<?xml version="1.0" encoding="utf-8"?>
<!-- Generator: Adobe Illustrator 16.0.0, SVG Export Plug-In . SVG Version: 6.00 Build 0)  -->
<!DOCTYPE svg PUBLIC "-//W3C//DTD SVG 1.1//EN" "http://www.w3.org/Graphics/SVG/1.1/DTD/svg11.dtd">
<svg version="1.1" id="图层_1" xmlns="http://www.w3.org/2000/svg" xmlns:xlink="http://www.w3.org/1999/xlink" x="0px" y="0px"
	 width="226px" height="218px" viewBox="0 0 226 218" enable-background="new 0 0 226 218" xml:space="preserve">
<path d="M215.2,98.21c-2.663-11.113-6.691-21.061-12.063-29.858c-0.335-5.794-1.402-11.561-3.223-17.298
	c-2.131-6.661-4.496-10.574-7.094-11.739c-2.631-1.199-7.326-0.666-14.088,1.599c-5.476,1.825-9.645,3.735-12.534,5.727
	c-5.873-0.904-12.128-1.29-18.786-1.131c-0.145,0.003-0.283,0.013-0.426,0.016c0.352-5.875-2.436-11.358-8.365-16.451
	c-6.766-5.82-15.822-8.968-27.158-9.463c-6.083-2.203-13.114-3.445-21.098-3.725c-12.122-0.466-20.281-1.615-24.478-3.447
	c-3.73-1.665-6.594-5.095-8.592-10.291c-0.466-1.299-0.949-1.998-1.449-2.098c-0.5-0.1-1.365,0.333-2.598,1.299
	c-2.73,2.131-4.545,5.678-5.445,10.64c-0.045,0.254-0.066,0.491-0.103,0.74l-0.296-0.24c-1.266-0.899-2.182-1.132-2.748-0.699
	c-0.666,0.533-0.933,1.648-0.799,3.347l0.325,2.016c-1.494-0.799-3.099-1.505-4.821-2.116c-4.429-1.565-8.425-2.115-11.989-1.648
	c-1.898,0.233-2.897,0.633-2.998,1.199c-0.1,0.5,0.533,1.632,1.898,3.397c1.439,1.844,2.405,4.063,2.914,6.642
	c-0.69-0.349-1.428-0.6-2.215-0.748c-1.032-0.2-1.682-0.2-1.948,0c-0.266,0.233-0.25,0.733,0.05,1.499
	c1.499,4.13,1.132,9.508-1.099,16.135c-2.098,6.261-6.078,14.254-11.939,23.978C-0.387,86.04-3.268,103.741,3.393,118.594
	c2.564,5.729,6.311,10.391,11.24,13.986c3.84,2.771,7.68,4.449,11.519,5.044c-5.31,6.343-8.932,12.671-10.82,18.983
	c-2.664,8.992-2.881,18.783-0.649,29.373c2.198,10.291,5.662,16.817,10.391,19.582c1.021,0.599,2.135,1.106,3.314,1.554
	c0.614,0.825,1.831,1.723,3.679,2.692c2.697,1.433,4.563,1.799,5.595,1.1c0.334-0.204,0.481-0.846,0.452-1.889
	c0.978,0.055,1.982,0.082,3.022,0.076c0.656,0.455,1.468,0.895,2.47,1.313c2.897,1.266,4.663,1.6,5.295,1
	c0.46-0.393,0.586-1.387,0.395-2.953c0.71-0.116,1.395-0.248,2.053-0.396c0.738,0.557,1.899,1.058,3.496,1.502
	c2.531,0.698,4.229,0.799,5.095,0.299c0.666-0.398,0.583-2.197-0.25-5.395c-0.009-0.031-0.019-0.061-0.028-0.092
	c0.521-0.426,0.999-0.876,1.426-1.357c0.027-0.029,0.052-0.063,0.079-0.095c1.457,2.933,3.142,5.124,5.066,6.539
	c1.202,0.878,2.608,1.569,4.177,2.117c0.396,0.998,1.146,2.122,2.267,3.378c1.565,1.798,2.714,2.646,3.447,2.547
	c0.632-0.066,1.382-0.965,2.248-2.697c0.327-0.681,0.573-1.298,0.771-1.878c0.429,0.007,0.849,0.021,1.293,0.013
	c0.494,1.142,1.467,2.213,2.931,3.215c1.765,1.166,3.047,1.599,3.847,1.299c0.632-0.233,1.166-1.115,1.598-2.646
	c0.277-1.002,0.402-1.949,0.407-2.855c0.278-0.063,0.553-0.129,0.821-0.196c0.66,0.83,2.031,1.531,4.117,2.103l4.696,0.301
	c0.533-0.6,0.366-2.397-0.5-5.396c-0.133-0.453-0.274-0.871-0.421-1.266c0.239-0.27,0.467-0.544,0.67-0.832
	c1.233-1.758,2.345-3.611,3.348-5.551c1.103,1.093,2.901,1.97,5.398,2.631c0.603,0.773,1.742,1.63,3.443,2.57
	c2.498,1.332,4.063,1.799,4.695,1.397c0.477-0.336,0.666-1.543,0.576-3.599l1.26,0.037c0.566,0.836,1.926,1.642,4.107,2.412
	c2.631,0.934,4.113,1.148,4.446,0.649c0.425-0.637,0.462-1.843,0.125-3.601c0.416-0.127,0.832-0.279,1.249-0.438
	c0.802,0.471,1.966,0.918,3.521,1.34c2.764,0.732,4.396,0.883,4.896,0.449c0.5-0.466,0.366-1.98-0.399-4.546
	c-0.17-0.577-0.354-1.092-0.547-1.567c0.332-0.257,0.663-0.506,0.996-0.779c3.455-2.854,6.404-6.16,8.857-9.909
	c4.479-1.556,8.685-3.466,12.602-5.757c0.342,3.08,1.973,7.328,4.917,12.769c3.397,6.294,6.677,10.558,9.841,12.788
	c2.976,2.086,6.861,2.921,11.655,2.509c0.91,0.427,2.511,0.741,4.83,0.938c3.53,0.299,5.396,0.05,5.595-0.75
	c0.135-0.518-0.063-1.311-0.568-2.358c0.402-0.134,0.798-0.272,1.188-0.413c0.909,0.471,2.376,0.813,4.426,1.023
	c2.865,0.267,4.446,0.066,4.746-0.6c0.272-0.576-0.164-2.015-1.297-4.297c0.27-0.182,0.539-0.361,0.797-0.55
	c0.016-0.012,0.029-0.022,0.045-0.034c0.737,0.227,1.77,0.422,3.104,0.584l4.445-0.148c0.399-0.666-0.065-2.332-1.397-4.996
	c-0.61-1.238-1.209-2.184-1.794-2.867c0.729-19.35-3.333-36.375-12.186-51.072c12.967-7.023,20.199-13.889,21.672-20.592
	C218.564,118.175,217.896,109.466,215.2,98.21z"/>
</svg>
