<?xml version="1.0" encoding="utf-8"?>
<!-- Generator: Adobe Illustrator 16.0.0, SVG Export Plug-In . SVG Version: 6.00 Build 0)  -->
<!DOCTYPE svg PUBLIC "-//W3C//DTD SVG 1.1//EN" "http://www.w3.org/Graphics/SVG/1.1/DTD/svg11.dtd">
<svg version="1.1" id="图层_1" xmlns="http://www.w3.org/2000/svg" xmlns:xlink="http://www.w3.org/1999/xlink" x="0px" y="0px"
	 width="133px" height="133px" viewBox="0 0 133 133" enable-background="new 0 0 133 133" xml:space="preserve">
<path d="M129.954,14.522c-1.331-1.863-3.21-2.545-5.64-2.046c-2.162,0.433-5.023,1.863-8.584,4.292
	c-0.556,0.381-1.071,0.723-1.594,1.071c-2.125-2.503-4.72-4.907-7.789-7.209C97.066,3.676,87.4,0.2,77.354,0.2
	c-10.979,0-20.579,3.194-28.795,9.582c-8.343,6.5-12.883,14.86-13.646,25.067c-2.383,1.292-4.59,3.89-6.616,7.821
	c-2.362,4.591-3.543,9.316-3.543,14.173c0,7.519,2.495,14.839,7.486,21.958c3.879,5.58,7.758,8.926,11.638,10.049
	c0.292,5.82-0.865,10.547-3.503,14.155c-2.928,3.96-7.17,6.022-12.726,6.188l-6.588-0.549l-3.643-1.348
	c-0.772-0.328-1.481-0.506-2.14-0.564c0.292-1.137-0.021-2.131-0.955-2.979c-0.457-0.428-0.939-0.699-1.444-0.835
	c0.686-1.505,1.252-3.399,1.694-5.703c0.799-3.959,0.865-7.719,0.2-11.278c-0.666-3.593-1.896-6.653-3.693-9.183
	c-2.03-2.828-4.176-3.991-6.438-3.494c-1.93,0.435-3.311,2.214-4.142,5.341c-0.932,3.627-0.682,8.053,0.749,13.274
	c1.064,3.858,2.895,7.254,5.49,10.183c0.912,1.014,1.737,1.826,2.478,2.445c-0.302,0.563-0.448,1.26-0.432,2.096
	c0,1.715,0.761,2.698,2.271,2.967c-0.494,1.25-0.557,2.722-0.174,4.42c1.464,6.088,5.007,10.796,10.63,14.123
	c5.257,3.127,11.578,4.641,18.964,4.541c9.017-0.133,15.754-0.965,20.212-2.496c4.574-1.555,8.219-4.305,10.959-8.217
	c1.299-0.304,2.578-0.761,3.84-1.357c0.177,0.242,0.363,0.475,0.57,0.691c1.267,1.265,2.879,1.946,4.842,2.047
	c2.361,0.133,4.541-0.699,6.537-2.496c1.963-1.729,2.945-3.594,2.945-5.59c0-2.944-0.982-5.127-2.936-6.562
	c0.652-1.582,0.988-3.171,0.988-4.769c0-1.17-0.076-2.262-0.195-3.309c1.273-0.574,2.5-1.242,3.675-2.021
	c1.815-0.314,3.453-1.178,4.905-2.604c1.896-1.862,2.845-4.042,2.845-6.538c0-1.861-0.459-3.397-1.322-4.648
	c-0.339-2.832-1.087-5.303-2.254-7.404c0.263,0.006,0.519,0.025,0.781,0.025c6.454,0,11.512-2.028,15.171-6.088
	c3.063-3.395,4.592-7.336,4.592-11.828c0-2.263-0.365-4.375-1.098-6.338l-1.098-2.246c4.59-3.893,6.887-8.767,6.887-14.623
	c0-2.98-0.481-5.858-1.44-8.634c0.952-0.426,1.949-0.869,3.038-1.347c4.059-1.73,6.637-3.71,7.734-5.939
	C131.617,18.399,131.385,16.453,129.954,14.522z"/>
</svg>
