<?xml version="1.0" encoding="utf-8"?>
<!-- Generator: Adobe Illustrator 16.0.0, SVG Export Plug-In . SVG Version: 6.00 Build 0)  -->
<!DOCTYPE svg PUBLIC "-//W3C//DTD SVG 1.1//EN" "http://www.w3.org/Graphics/SVG/1.1/DTD/svg11.dtd">
<svg version="1.1" id="图层_1" xmlns="http://www.w3.org/2000/svg" xmlns:xlink="http://www.w3.org/1999/xlink" x="0px" y="0px"
	 width="177px" height="176px" viewBox="0 0 177 176" enable-background="new 0 0 177 176" xml:space="preserve">
<path d="M169.992,53.411c-4.471-10.512-10.795-19.806-18.971-27.882c-8.176-8.042-17.555-14.266-28.133-18.671
	C111.943,2.286,100.48,0,88.5,0C76.52,0,65.057,2.286,54.111,6.858c-10.612,4.405-19.989,10.628-28.132,18.671
	c-8.176,8.076-14.5,17.37-18.972,27.882C2.369,64.256,0.049,75.669,0.049,87.649s2.319,23.41,6.958,34.289
	c4.472,10.479,10.796,19.756,18.972,27.832c8.143,8.043,17.52,14.282,28.132,18.722c10.913,4.538,22.375,6.808,34.389,6.808
	c11.98,0,23.443-2.27,34.389-6.808c10.579-4.438,19.957-10.679,28.133-18.722c8.177-8.076,14.5-17.354,18.972-27.832
	c4.639-10.879,6.959-22.309,6.959-34.289C176.951,75.669,174.631,64.256,169.992,53.411z"/>
</svg>
