<?xml version="1.0" encoding="utf-8"?>
<!-- Generator: Adobe Illustrator 16.0.0, SVG Export Plug-In . SVG Version: 6.00 Build 0)  -->
<!DOCTYPE svg PUBLIC "-//W3C//DTD SVG 1.1//EN" "http://www.w3.org/Graphics/SVG/1.1/DTD/svg11.dtd">
<svg version="1.1" id="图层_1" xmlns="http://www.w3.org/2000/svg" xmlns:xlink="http://www.w3.org/1999/xlink" x="0px" y="0px"
	 width="293px" height="290px" viewBox="0 0 293 290" enable-background="new 0 0 293 290" xml:space="preserve">
<path d="M281.313,88.343c-7.391-17.379-17.846-32.744-31.362-46.094c-13.517-13.317-29.032-23.622-46.544-30.913
	C185.295,3.779,166.318,0,146.475,0c-19.843,0-38.82,3.779-56.931,11.336c-17.512,7.291-33.01,17.595-46.494,30.913
	C29.533,55.6,19.079,70.964,11.688,88.343c-7.69,17.979-11.536,36.872-11.536,56.682c0,19.809,3.845,38.704,11.536,56.682
	c7.391,17.379,17.845,32.743,31.362,46.094c13.484,13.317,28.982,23.621,46.494,30.913C107.655,286.238,126.632,290,146.475,290
	c19.843,0,38.82-3.762,56.931-11.286c17.512-7.292,33.027-17.596,46.544-30.913c13.517-13.351,23.972-28.715,31.362-46.094
	c7.69-17.979,11.535-36.873,11.535-56.682C292.848,125.215,289.003,106.322,281.313,88.343z"/>
</svg>
