<?xml version="1.0" encoding="utf-8"?>
<!-- Generator: Adobe Illustrator 16.0.0, SVG Export Plug-In . SVG Version: 6.00 Build 0)  -->
<!DOCTYPE svg PUBLIC "-//W3C//DTD SVG 1.1//EN" "http://www.w3.org/Graphics/SVG/1.1/DTD/svg11.dtd">
<svg version="1.1" id="图层_1" xmlns="http://www.w3.org/2000/svg" xmlns:xlink="http://www.w3.org/1999/xlink" x="0px" y="0px"
	 width="155px" height="167px" viewBox="0 0 155 167" enable-background="new 0 0 155 167" xml:space="preserve">
<path d="M144.656,51.891c-4.457-5.655-9.813-9.53-16.066-11.625c-3.655-1.219-7.146-1.66-10.479-1.354
	c1.748-2.245,3.019-4.75,3.793-7.527c1.064-3.526,1.348-7.518,0.849-11.975c-0.565-5.089-2.063-9.497-4.491-13.222
	c-0.1-0.167-0.249-0.216-0.449-0.15l-8.432,2.146c-0.666-0.964-1.396-2.428-2.195-4.391c-0.133-0.233-0.299-0.299-0.499-0.2
	c-0.399,0.133-0.948,0.366-1.646,0.699l-1.747,0.798l-0.249-4.69c0-0.267-0.149-0.399-0.448-0.399
	c-4.291,0.532-8.2,2.146-11.727,4.84c-3.525,2.661-6.369,6.154-8.531,10.478c-2.596,5.189-3.044,10.711-1.348,16.565
	c1.83,6.42,5.771,10.777,11.825,13.073c3.529,1.354,7.073,1.878,10.632,1.591c-1.688,2.072-2.953,4.514-3.799,7.324
	c-5.581-4.559-11.965-6.639-19.157-6.221c-2.095,0.125-4.125,0.483-6.094,1.056c-1.32-3.339-2.971-6.264-4.982-8.74
	c-5.322-6.553-12.274-10.777-20.856-12.673c-8.449-1.896-14.902-0.782-19.359,3.343c-5.455,5.023-8.116,12.557-7.983,22.603
	c0.166,10.212,3.227,18.229,9.181,24.05c2.295,2.262,5.073,4.058,8.333,5.389c2.701,1.098,5.583,1.804,8.628,2.16
	c-0.409,2.781-0.617,5.667-0.636,8.651c-4.396-3.354-9.302-5.717-14.728-7.069c-8.216-2.063-14.853-1.696-19.909,1.098
	C5.299,91.242,1.374,98.211,0.31,108.423c-0.932,8.948,0.349,17.23,3.842,24.848c4.324,9.347,11.027,15.551,20.108,18.611
	c8.25,2.794,16.149,2.478,23.7-0.948c8.416-3.825,13.521-10.378,15.318-19.658c0.452-2.337,0.653-4.652,0.611-6.948
	c7.025,3.717,14.871,4.854,23.539,3.405l0.37-0.069c-1.687,5.599-1.667,11.21,0.079,16.834c2.562,8.349,7.733,14.104,15.518,17.264
	c7.917,3.261,15.55,3.792,22.901,1.597c8.117-2.428,13.705-7.7,16.766-15.816c2.927-7.684,3.643-15.567,2.145-23.65
	c-1.496-8.051-4.756-14.037-9.779-17.963c-5.37-4.243-12.312-5.396-20.82-3.46c0.63-2.738,0.983-5.601,1.057-8.589
	c3.167,1.381,6.594,2.109,10.284,2.17c5.288,0.066,10.444-1.281,15.468-4.041c6.951-3.826,10.744-9.514,11.376-17.065
	C153.455,67.359,150.744,59.675,144.656,51.891z"/>
</svg>
