<?xml version="1.0" encoding="utf-8"?>
<!-- Generator: Adobe Illustrator 16.0.0, SVG Export Plug-In . SVG Version: 6.00 Build 0)  -->
<!DOCTYPE svg PUBLIC "-//W3C//DTD SVG 1.1//EN" "http://www.w3.org/Graphics/SVG/1.1/DTD/svg11.dtd">
<svg version="1.1" id="图层_1" xmlns="http://www.w3.org/2000/svg" xmlns:xlink="http://www.w3.org/1999/xlink" x="0px" y="0px"
	 width="387px" height="385px" viewBox="0 0 387 385" enable-background="new 0 0 387 385" xml:space="preserve">
<path d="M318.279,111.369c-10.555-1.898-20.709-2.214-30.465-0.949c9.489-2.63,19.361-4.661,29.616-6.093
	c11.652-1.665,24.338-2.847,38.056-3.546l14.883-1.348c0.133-0.4-0.55-1.532-2.048-3.396c-1.831-2.264-4.096-4.495-6.792-6.692
	c-7.991-6.459-17.264-10.671-27.818-12.635c-7.291-1.332-14.799-1.815-22.523-1.449c-6.926,0.333-13.352,1.299-19.277,2.897
	c4.628-2.231,10.504-4.661,17.629-7.292c5.395-1.964,8.074-3.08,8.041-3.346c-0.166-1.332-3.063-2.031-8.689-2.098
	c-6.859-0.033-14.617,1.432-23.273,4.395c-8.903,3.044-17.819,7.353-26.746,12.922c8.592-6.488,17.666-12.632,27.246-18.416
	c19.145-11.553,36.557-20.759,52.239-27.618c3.662-1.599,7.641-3.263,11.936-4.994c2.53-1.032,3.779-1.782,3.746-2.248
	c0-0.699-2.348-1.382-7.042-2.048l-17.779-1.298c-18.445-0.333-34.51,1.498-48.194,5.494c-15.882,4.661-30.515,12.053-43.899,22.174
	c-4.262,3.229-8.323,6.692-12.186,10.388l-5.743,5.644c1.165-2.031,5.277-7.791,12.336-17.28
	c6.858-9.189,12.669-16.781,17.43-22.774l15.582-19.178c4.161-5.394,5.942-8.506,5.344-9.339c-0.433-0.599-2.514-0.816-6.243-0.649
	c-4.361,0.2-9.156,1.016-14.383,2.447c-15.149,4.029-28.733,11.603-40.753,22.724c-5.954,5.49-11.493,13.594-16.618,24.304
	c-5.458-14.669-12.716-26.773-21.788-36.29c-6.326-6.625-13.534-10.82-21.625-12.585c-2.996-0.666-5.677-0.882-8.041-0.649
	c-2.131,0.2-3.379,0.666-3.746,1.398c-0.3,0.566,0.966,2.896,3.795,6.992c4.828,6.958,9.689,15.132,14.583,24.521
	c4.027,7.688,7.618,15.826,10.781,24.401c-2.368-3.55-4.925-6.927-7.685-10.118c-7.991-9.223-17.996-17.297-30.015-24.222
	c-15.881-9.123-33.694-14.899-53.438-17.33L56.234,5.143c-4.694,0.1-7.175,0.366-7.441,0.799c-0.965,1.499,0.982,4.662,5.843,9.489
	c7.625,7.625,21.042,17.23,40.253,28.816c15.182,9.123,29.516,20.593,43,34.41c4.833,4.951,9.083,9.756,12.768,14.421
	c-12.79-10.244-25.569-18.633-38.338-25.159C88.746,55.9,65.906,50.689,43.798,52.288c-7.325,0.5-13.917,1.731-19.777,3.696
	c-4.628,1.532-7.059,2.713-7.292,3.546c-0.333,1.698,9.322,6.992,28.966,15.881l59.331,26.619
	c-11.753-1.964-22.125-2.43-31.114-1.398c-8.856,0.999-18.063,3.646-27.618,7.941c-12.552,5.627-24.072,14.483-34.56,26.569
	c-3.696,4.295-6.726,8.374-9.089,12.235c-2.098,3.43-2.963,5.427-2.597,5.993c0.233,0.366,11.087-2.48,32.562-8.54
	c13.596-3.817,24.41-6.752,32.451-8.806c-5.034,8.038-7.625,16.324-7.777,24.858c-6.746,3.618-13.257,8.134-19.53,13.564
	c-4.062,3.529-7.275,6.825-9.639,9.888c-2.264,2.897-3.146,4.761-2.647,5.594c0.566,0.965,5.46,0.35,14.683-1.848
	c6.094-1.444,13.385-3.434,21.854-5.96c3.277,6.501,8.21,11.952,14.804,16.348c10.521,7.024,21.924,8.89,34.21,5.593
	c2.63-0.705,5.147-1.629,7.562-2.748c-6.917,9.224-12.505,19.027-16.751,29.418c-6.659,16.281-9.406,32.629-8.24,49.043
	c0.298,4.167,0.873,8.201,1.673,12.13c-1.285,0.879-2.564,1.833-3.838,2.854c-0.773-0.223-1.556-0.421-2.35-0.592
	c-0.193-1.596-0.831-3.296-1.927-5.103c-1.498-2.431-3.546-4.695-6.143-6.792c-2.164-1.698-4.461-2.331-6.892-1.897
	c-2.397,0.466-4.145,1.863-5.244,4.194c-1.227,2.614-1.427,6.176-0.62,10.667c-3.307,1.112-6.547,2.676-9.718,4.715
	c-3.933,2.533-7.201,5.412-9.817,8.63c-1.62-0.614-3.466-0.938-5.564-0.938c-3.263,0-6.576,0.75-9.938,2.248
	c-3.962,1.764-5.993,3.912-6.093,6.441c-0.1,2.198,1.898,5.211,5.993,9.04c3.036,2.849,5.854,4.676,8.464,5.526
	c0.494,3.509,1.717,7.287,3.722,11.354c3.129,6.359,7.724,12.686,13.784,18.979c5.793,6.026,11.853,10.92,18.179,14.684
	c6.592,3.928,12.186,5.876,16.78,5.842c10.788-0.066,19.078-4.66,24.871-13.783c1.528-2.398,2.75-4.9,3.688-7.5
	c3.152-3.424,6.716-5.655,10.696-6.684c2.543-0.651,5.568-0.91,9.036-0.811c4.588,2.531,9.379,4.741,14.387,6.604
	c10.055,3.729,19.777,5.711,29.166,5.943c12.937,0.295,24.684-1.188,35.263-4.416c2.687,1.532,5.811,2.461,9.385,2.768
	c2.064,0.167,4.811-0.133,8.24-0.898c3.93-0.898,6.76-1.382,8.49-1.448c4.68-0.152,9.503,1.55,14.467,5.083
	c1.19,1.807,2.521,3.545,4.012,5.205c7.491,8.323,16.231,11.637,26.22,9.938c3.962-0.665,8.757-3.462,14.383-8.39
	c5.527-4.827,10.621-10.654,15.282-17.479c5.028-7.324,8.557-14.416,10.588-21.275c1.42-4.705,2-8.971,1.765-12.812
	c2.349-1.101,4.674-3.15,6.976-6.167c3.596-4.761,4.911-8.24,3.945-10.438c-1.198-2.697-4.462-4.378-9.789-5.044
	c-4.949-0.619-8.734,0.029-11.384,1.911c-3.381-3.086-7.471-5.593-12.288-7.504c-3.169-1.264-6.316-2.145-9.443-2.645
	c0-0.053,0.004-0.099,0.004-0.152c-0.066-4.828-0.965-8.475-2.697-10.938c-1.465-2.064-3.479-3.047-6.043-2.947
	c-2.463,0.1-4.627,1.199-6.492,3.297c-2.131,2.396-3.679,4.994-4.645,7.791c-0.651,1.935-0.906,3.706-0.772,5.317
	c-0.921,0.366-1.817,0.771-2.694,1.208c-1.266-0.544-2.547-1.058-3.84-1.543c0.248-3.24,0.355-6.581,0.314-10.027
	c-0.133-11.453-2.396-24.422-6.791-38.904c-2.973-9.833-6.621-19.282-10.913-28.365c4.789,3.011,10.088,5.147,15.907,6.391
	c5.992,1.266,11.902,1.382,17.729,0.35c5.727-0.998,10.771-3.014,15.133-6.043c9.256-6.393,14.982-15.599,17.18-27.618
	c1.442-7.923,0.983-15.741-1.355-23.454c4.604,0.512,9.506,1.198,14.74,2.078l22.374,4.395l9.489,1.848
	c0.199-0.333-0.167-1.149-1.099-2.447c-1.133-1.565-2.73-3.196-4.795-4.895c-5.927-4.961-13.934-9.073-24.022-12.335
	c-6.877-2.239-14.242-4.052-22.071-5.461c0.143-1.419,0.008-2.765-0.395-4.04c10.468-0.479,22.974-0.46,37.549,0.062l23.173,1.049
	c6.293,0.266,9.473,0.233,9.539-0.1C364.825,127.351,342.085,115.664,318.279,111.369z M314.693,149.111
	c-0.052-0.008-0.104-0.017-0.155-0.025c0.032-0.221,0.07-0.432,0.096-0.66c0.028-0.224,0.016-0.459,0.009-0.693
	C314.705,148.187,314.719,148.646,314.693,149.111z"/>
</svg>
