<?xml version="1.0" encoding="utf-8"?>
<!-- Generator: Adobe Illustrator 16.0.0, SVG Export Plug-In . SVG Version: 6.00 Build 0)  -->
<!DOCTYPE svg PUBLIC "-//W3C//DTD SVG 1.1//EN" "http://www.w3.org/Graphics/SVG/1.1/DTD/svg11.dtd">
<svg version="1.1" id="图层_1" xmlns="http://www.w3.org/2000/svg" xmlns:xlink="http://www.w3.org/1999/xlink" x="0px" y="0px"
	 width="139px" height="232px" viewBox="0 0 139 232" enable-background="new 0 0 139 232" xml:space="preserve">
<path d="M137.779,175.476c-0.533-0.467-1.634-0.384-3.301,0.251c-0.567,0.232-2.469,1.116-5.703,2.65
	c-1.016,0.487-2.185,0.892-3.491,1.22c0.481-1.424,0.809-2.909,0.94-4.472c0.233-2.768-0.134-4.918-1.101-6.452l-0.9-1.2l-0.95-0.75
	l-3.952-3.102l-1.3-1.602l-1.401-2.25c-1.935-2.835-3.901-4.969-5.902-6.403c-0.663-0.475-1.376-0.903-2.12-1.304
	c0.943-1.979,1.42-3.929,1.42-5.85l-0.051-1.25c-0.299-2.568-0.85-4.619-1.65-6.152l2.602-4.402c1.268-2.468,1.9-4.602,1.9-6.402
	c0-0.701-0.166-1.501-0.5-2.401c-0.334-0.867-0.717-1.518-1.15-1.951l-0.1-1.501l0.4-4.301l0.699-2.652
	c0.367-1.167,0.534-2.051,0.5-2.651c-0.066-1.834-0.383-3.251-0.949-4.252l-1.951-2.151l-2.951-2.401l-3.102-2.251l-3.302-2.351
	c-1.101-0.834-1.817-1.534-2.151-2.101c-0.866-3.769-1.617-6.186-2.25-7.253c1.167-2.602,2.551-5.386,4.151-8.354
	c2.501-4.702,4.536-7.853,6.103-9.454c1.434-1.434,1.617-3.035,0.551-4.802c-0.634-1.067-1.668-1.784-3.102-2.151
	c-1.567-0.4-3.135-0.25-4.702,0.45c-0.767,0.333-2.885,1.467-6.353,3.401c-7.504,4.269-11.705,6.219-12.605,5.853
	c-4.168-1.667-7.82-2.885-10.955-3.652c-4.035-1-7.736-1.417-11.104-1.25c-5.603,0.3-10.855,1.551-15.757,3.752l-7.253,4.052
	c-2.633-0.618-5.509-1.704-8.618-3.24c2.343-2.657,5.832-6.228,10.469-10.716c9.337-9.038,15.423-14.106,18.258-15.207l6.853-0.35
	c4.802,0.934,7.87,0.934,9.204,0l0.301-0.25c2.701-1.934,4.719-3.668,6.053-5.202c2.4-2.734,3.334-5.319,2.801-7.753
	c-1.167-5.436-1.918-8.554-2.251-9.354c-1.034-2.734-2.585-3.935-4.651-3.602c-2.234,0.333-4.419,0.333-6.554,0
	c-1.967-0.3-3.001-0.7-3.101-1.2c-0.133-0.934-0.033-2.084,0.3-3.452l0.85-3.102c0.3-1.734,0.017-3.918-0.85-6.553
	c-1.134-3.334-2.885-5.636-5.252-6.903c-1.401-0.767-3.902-0.917-7.503-0.45l-6.002,0.9c-2.101,0-3.618,0.317-4.552,0.95
	c-1.234,0.9-2.318,2.801-3.251,5.703l-2.951,7.653c-1.334,3.568-1.968,5.752-1.901,6.553l0.65,4.752l0.5,4.052
	c-0.033,0.967-2.801,6.753-8.304,17.357c-5.098,9.838-8.38,16.307-9.858,19.427c-1.901-1.185-3.455-1.534-4.648-1.019
	c-0.934,0.434-1.851,1.584-2.751,3.451c-0.475,1.005-0.774,1.839-0.929,2.534c-0.712,1.168-1.179,2.549-1.372,4.169l-0.5,1.901
	c-0.8,1.101-1.284,1.868-1.451,2.301c-0.534,1.334-0.7,3.102-0.5,5.302c0.2,2.301,0.55,3.985,1.05,5.052
	c-1.801,6.57-2.701,11.038-2.701,13.406c0,0.147,0.008,0.279,0.014,0.414c-1.021,0.849-1.601,1.629-1.715,2.337v0.55
	c0,1.834,1.05,4.568,3.151,8.203c2.067,3.535,3.768,5.603,5.102,6.203c1.234,0.566,2.368,0.733,3.401,0.5
	c1.968,4.702,4.452,9.188,7.454,13.456c3.401,4.868,6.553,8.021,9.454,9.454l2.035,0.142c-1.902,2.962-3.44,5.997-4.586,9.112
	c-2.034,5.436-3.051,11.472-3.051,18.107c0,1.203,0.056,2.378,0.139,3.538c-0.772,0.732-1.504,1.583-2.189,2.565
	c-2.234,3.234-3.302,7.152-3.202,11.754c0.067,3.502,1.084,6.953,3.051,10.355c2.134,3.701,4.952,6.452,8.454,8.253
	c-2.134,1.435-3.568,2.935-4.302,4.502c-0.667,1.468-0.633,2.769,0.1,3.901c1.134,1.734,4.369,2.418,9.704,2.051l0.3-0.049
	c3.835-0.301,7.753-1.084,11.755-2.352c3.315-1.052,6.31-2.361,8.998-3.914c3.646,0.868,7.463,1.313,11.461,1.313l8.553-0.75
	l4.252,3.802c1.701,1.634,2.885,3.085,3.552,4.352c2.435,4.569,5.687,6.804,9.755,6.703c3.434-0.067,6.285-1.435,8.553-4.103
	c1.334-1.5,2.818-3.768,4.452-6.803c1.582-2.994,2.761-5.312,3.542-6.959c4.292-1.265,8.646-3.692,13.065-7.297
	c5.869-4.735,10.038-10.021,12.505-15.856c1.4-3.335,2.301-6.136,2.701-8.403S138.514,176.109,137.779,175.476z"/>
</svg>
