<?xml version="1.0" encoding="utf-8"?>
<!-- Generator: Adobe Illustrator 16.0.0, SVG Export Plug-In . SVG Version: 6.00 Build 0)  -->
<!DOCTYPE svg PUBLIC "-//W3C//DTD SVG 1.1//EN" "http://www.w3.org/Graphics/SVG/1.1/DTD/svg11.dtd">
<svg version="1.1" id="图层_1" xmlns="http://www.w3.org/2000/svg" xmlns:xlink="http://www.w3.org/1999/xlink" x="0px" y="0px"
	 width="264px" height="345px" viewBox="0 0 264 345" enable-background="new 0 0 264 345" xml:space="preserve">
<path d="M263.501,175.494c-0.3-1.631-0.981-3.128-2.047-4.493c-3.362-4.36-6.324-7.306-8.887-8.836
	c-4.294-2.563-9.901-3.478-16.825-2.746c-3.262,0.366-12.098,2.297-26.51,5.792l-4.55,1.064c-2.042-4.996-3.172-7.914-3.388-8.753
	l6.689-8.288c3.629-4.693,5.691-8.021,6.191-9.985l0.1-0.999c0-2.063-1.614-4.609-4.843-7.638c-2.196-2.063-4.609-3.911-7.239-5.542
	c6.689-12.048,13.164-23.431,19.421-34.148c0.799-1.331,1.198-2.496,1.198-3.495c0-0.732-0.199-1.381-0.6-1.947
	c-1.298-1.697-4.177-2.03-8.637-0.998c-4.359,1.031-11.565,3.511-21.617,7.438c-6.291,2.43-12.064,4.776-17.324,7.04
	c-4.393-3.794-10.101-6.673-17.123-8.637c-12.182-3.428-25.562-2.879-40.14,1.647c-2.463-0.832-5.076-1.947-7.838-3.345
	c-1.298-0.666-3.611-1.931-6.939-3.794l-0.451-0.238c3.048-2.646,6.683-5.672,10.935-9.098
	c12.381-9.952,20.536-15.693,24.462-17.224c1.133-0.433,2.979-0.899,5.542-1.398l6.29-1.198l9.087-1.647
	c2.463-0.599,3.994-1.697,4.593-3.295l1.398-3.645l2.795-6.49c1.032-2.529,1.549-4.626,1.549-6.291c0-1.098-0.25-2.197-0.75-3.295
	c-0.532-1.131-1.197-1.88-1.996-2.247l-10.085-3.944c0.2-2.064,0.915-6.191,2.146-12.381c0.233-1.198,0.3-2.479,0.2-3.844
	c-0.133-2.03-0.666-3.395-1.598-4.094c-2.663-1.997-7.057-3.295-13.18-3.894c-6.857-0.666-11.217,0.449-13.081,3.345
	c-0.699,1.099-1.564,3.095-2.596,5.991l-2.297,6.54c-0.999,2.596-2.263,5.242-3.794,7.938c-1.564,2.762-3.129,5.059-4.693,6.889
	L98.701,51.881c-9.586,10.351-15.859,16.542-18.822,18.572c-1.797-1.132-3.777-1.665-5.941-1.598c-2.763,0.1-4.959,1.265-6.59,3.495
	c-1.498,1.997-3.894,3.978-7.189,5.941l-5.192,3.295c-1.731,1.332-2.846,2.679-3.345,4.044c-0.798,2.23-1.082,4.327-0.849,6.291
	c0.1,1.032,0.316,1.964,0.649,2.796c-3.561,3.361-7.239,6.573-11.033,9.635c-6.723,5.425-12.115,8.937-16.175,10.534
	c-2.929,1.131-6.823,2.23-11.682,3.295l-6.191,1.498c-1.831,0.632-2.945,1.548-3.345,2.746c-0.732,2.196-1.381,4.643-1.947,7.339
	C0.35,132.959,0,135.521,0,137.452c0,1.165,0.35,2.097,1.048,2.795l2.347,1.498c1.165,0.599,3.178,1.281,6.041,2.047
	c2.862,0.732,4.876,1.398,6.041,1.997c1.564,0.799,2.347,1.781,2.347,2.946l-0.649,5.591l-0.948,3.545
	c-0.433,1.564-0.649,2.696-0.649,3.395c0,1.432,0.916,3.063,2.746,4.893c2.197,2.297,5.292,3.794,9.286,4.493l10.134-0.349
	c1.564-0.433,2.979-1.099,4.244-1.997c1.332-0.965,2.097-1.947,2.296-2.946l4.094-17.923c2.163-8.587,3.944-13.812,5.342-15.676
	l8.337-10.285c2.542,9.13,7.259,28.59,14.145,58.363c-1.146,6.575-2.25,11.915-3.311,15.975c-1.032,3.86-1.548,7.854-1.548,11.981
	c0,2.696,0.233,5.109,0.699,7.239c0.433,2.063,1.032,3.562,1.797,4.493l1.648,2.496c1.265,2.23,2.18,3.678,2.746,4.344
	c1.298,1.432,2.813,2.23,4.543,2.396c1.764,0.166,3.461,0.549,5.092,1.148l2.917,1.143c-0.63,2.328-1.106,4.267-1.419,5.797
	c-1.298,6.257-1.947,12.813-1.947,19.67c-9.852,6.19-16.824,12.314-20.918,18.372c-4.493,6.69-6.374,14.444-5.641,23.265
	c0.399,4.727,1.381,8.604,2.945,11.633c1.347,2.581,3.268,4.923,5.736,7.035c0.406,0.423,0.885,0.856,1.453,1.302
	c0.764,0.598,1.594,1.146,2.456,1.673c-2.167,3.796-3.254,7.15-3.254,10.06c0,1.798,0.382,3.229,1.148,4.294
	c0.965,1.331,2.347,2.163,4.144,2.496l7.289-0.549c6.79-1.531,12.348-3.479,16.675-5.842c4.194-2.297,6.84-4.793,7.938-7.488
	l2.97-2.646c1.072-0.699,1.864-1.278,2.38-1.739c3.34-2.034,7.915-3.295,13.771-3.754c6.624-0.531,13.064,0.018,19.321,1.648
	c1.765,0.433,4.094,1.314,6.989,2.646l8.138,3.944c4.327,2.163,7.605,3.711,9.835,4.643c3.461,1.498,6.225,2.396,8.287,2.696
	c4.327,4.759,8.638,8.121,12.932,10.085c5.092,2.33,10.8,3.078,17.123,2.246c2.529-0.332,4.66-1.863,6.391-4.593
	c1.598-2.53,2.446-5.275,2.547-8.237c0.066-2.164-0.268-4.76-0.999-7.789l-1.036-3.964c0.854-1.36,1.501-2.793,1.944-4.298
	c0.39-0.981,0.745-2.022,1.038-3.17c0.701-2.712,1.064-5.686,1.124-8.897c11.364-6.929,20.182-17.602,26.435-32.041
	c3.895-8.953,6.541-18.639,7.938-29.056c1.232-9.187,0.949-14.229-0.848-15.127c-1.199-0.566-2.796,0.582-4.793,3.444l-3.645,4.793
	l-2.596,2.896l-4.394-2.796c-2.363-1.364-3.944-1.864-4.743-1.497c-0.799,0.365-1.514,2.712-2.146,7.039
	c-0.3,2.296-0.615,5.176-0.949,8.637c-2.163,1.397-7.921,2.496-17.273,3.295c-6.146,0.534-10.899,0.709-14.273,0.528
	c-2.448-3.876-4.217-7.018-5.297-9.415c-2.995-6.623-4.576-14.312-4.742-23.064c5.758-4.194,12.98-9.12,21.666-14.778
	c9.952-6.423,16.309-10.151,19.072-11.183c3.561,2.828,6.756,3.961,9.585,3.395c1.687-0.35,3.849-1.669,6.477-3.934
	c0.936-0.026,2.134-0.31,3.608-0.859c1.359-0.522,2.436-1.059,3.23-1.608l0.963-0.038c1.365-0.268,3.029-1.266,4.992-2.996
	c2.164-1.964,3.678-4.077,4.543-6.34C263.65,179.122,263.834,177.324,263.501,175.494z"/>
</svg>
