<?xml version="1.0" encoding="utf-8"?>
<!-- Generator: Adobe Illustrator 16.0.0, SVG Export Plug-In . SVG Version: 6.00 Build 0)  -->
<!DOCTYPE svg PUBLIC "-//W3C//DTD SVG 1.1//EN" "http://www.w3.org/Graphics/SVG/1.1/DTD/svg11.dtd">
<svg version="1.1" id="图层_1" xmlns="http://www.w3.org/2000/svg" xmlns:xlink="http://www.w3.org/1999/xlink" x="0px" y="0px"
	 width="330px" height="353px" viewBox="0 0 330 353" enable-background="new 0 0 330 353" xml:space="preserve">
<path d="M327.29,91.096c-1.198-4.828-4.028-8.624-8.49-11.387c-2.93-1.798-7.309-3.18-13.135-4.145
	c-6.26-0.999-11.321-0.933-15.183,0.2c-2.23-2.498-5.277-4.429-9.141-5.793c-1.806-0.636-3.502-1.025-5.102-1.197
	c-1.52-2.162-4.155-4.64-7.934-7.443c-0.746-0.55-1.471-1.052-2.186-1.533c-0.468-14.716-6.021-27.611-16.692-38.671
	C237.109,8.306,220.545,1.314,199.734,0.148c-13.617-0.766-25.621,1.299-36.009,6.193c-10.188,4.828-18.496,12.219-24.921,22.175
	c-7.018,10.874-10.216,23.312-9.611,37.307c-3.322,2.571-6.248,5.748-8.783,9.522c-2.029,0.487-5.136,2.257-9.325,5.312
	c-4.395,3.23-7.858,6.227-10.388,8.99c-1.499,1.665-3.446,3.329-5.843,4.994c-2.397,1.631-4.395,2.68-5.994,3.146
	c-2.83,0.799-4.861,2.181-6.093,4.146c-1.013,1.569-1.348,3.343-1.013,5.316c-3.947,2.216-10.582,5.37-19.914,9.467
	c-0.041,0.018-0.068,0.048-0.107,0.066c-1.875-1.521-4.502-3.457-7.884-5.81c-3.995-2.764-6.759-4.512-8.291-5.244
	c-2.764-1.365-5.51-1.981-8.241-1.848c-2.657,0.147-4.84,1.005-6.555,2.566c-1.181-0.512-2.497-0.866-3.983-1.019
	c-2.563-0.266-4.894,0.083-6.992,1.049l-7.242,2.647l-7.791,2.597c-2.131,0.732-3.529,2.164-4.195,4.295
	c-0.632,2.064-0.416,3.995,0.649,5.793c1.199,1.964,3.346,3.046,6.443,3.246c2.103,0.114,4.109-0.23,6.024-1.01
	c-0.544,1.381-0.757,2.865-0.63,4.457c0.167,1.964,0.766,3.446,1.798,4.445c1.266,1.265,2.93,1.682,4.995,1.249
	c2.164-0.466,3.862-1.715,5.094-3.746c0.766-1.232,1.715-2.331,2.847-3.296c0.801-0.68,1.611-1.232,2.43-1.664
	c0.291,0.19,0.564,0.363,0.867,0.565c2.697,1.765,4.661,3.196,5.893,4.295c0.766,0.666,1.282,1.249,1.548,1.748
	c0.267,0.466,0.466,1.132,0.6,1.998l0.2,4.445c-0.2,1.565-0.882,2.813-2.048,3.746c-2.364,1.931-4.545,4.245-6.542,6.942
	c-2.231,3.097-3.296,5.544-3.196,7.342c0.233,3.563,1.831,5.877,4.794,6.942c2.93,1.032,5.427,0.316,7.492-2.147
	c2.93-3.463,5.177-5.96,6.742-7.492c2.53-2.564,4.661-4.229,6.393-4.995c4.428-1.931,8.041-4.595,10.838-7.991
	c2.5-3.042,3.789-6.03,3.891-8.964c0.035-0.01,0.07-0.015,0.105-0.026c4.177-1.403,9.499-3.78,15.937-7.109
	c-1.611,3.81-2.25,8.051-1.92,12.724c-0.396,0.666-0.765,1.352-1.081,2.077c-1.532,3.462-1.915,6.992-1.148,10.588
	c0.647,3.121,1.988,5.549,4.016,7.29c-0.039,0.067-0.085,0.134-0.121,0.201c-0.866,1.698-1.099,3.929-0.699,6.693
	c0.466,3.263,1.548,6.459,3.246,9.589c1.309,2.444,2.562,3.986,3.761,4.636c0.073,2.908,0.911,5.642,2.532,8.199
	c1.771,2.779,3.969,4.495,6.581,5.173c-0.002,1.63,0.679,3.4,2.059,5.315c1.417,1.944,2.975,3.207,4.67,3.808
	c-4.331,9.235-7.256,15.147-8.766,17.718c-2.497,4.129-3.563,8.158-3.196,12.086c0.24,2.714,1.114,4.769,2.602,6.184
	c-0.059,0.339-0.098,0.689-0.104,1.059c-0.033,2.164,0.216,4.645,0.749,7.441c0.566,2.797,1.215,4.828,1.948,6.094
	c0.233,0.433,0.566,0.499,0.999,0.199c1.598-1.198,3.196-2.697,4.794-4.494c1.233-1.368,2.263-2.701,3.107-4.004
	c0.14,0.88,0.31,1.788,0.539,2.755c0.833,3.429,1.915,5.909,3.246,7.441c0.367,0.399,0.716,0.45,1.049,0.149
	c2.431-2.031,4.528-4.395,6.293-7.092c1.5-2.357,2.485-4.583,2.972-6.682c0.254,1.487,0.717,3.139,1.423,4.984
	c0.999,2.764,2.031,4.66,3.097,5.693l0.999,0.05c1.831-1.398,3.596-3.446,5.294-6.144c1.831-2.896,2.93-5.576,3.296-8.041
	c0.06-0.408,0.08-0.794,0.071-1.164c1.064-0.744,1.912-1.602,2.526-2.581c1.532-2.431,2.015-6.126,1.448-11.088
	c-0.333-2.896-0.632-6.326-0.899-10.288c-0.366-4.994-0.466-8.49-0.299-10.488c0.333-3.962-0.799-7.441-3.396-10.438
	c-2.266-2.591-4.767-3.914-7.501-3.98c0.042-1.276-0.033-2.627-0.24-4.061c-0.408-2.853-1.199-4.77-2.36-5.782
	c0.46-1.228,0.849-2.593,1.161-4.107c0.637-3.237,0.758-6.151,0.379-8.754c1.274,1.708,3.294,2.911,6.063,3.61
	c3.563,0.899,7.875,0.849,12.936-0.15c9.522-1.832,19.627-0.25,30.316,4.745c9.632,4.513,16.434,10.371,20.411,17.573
	c0.545,2.146,0.924,4.296,1.114,6.449c0.332,3.529,1.165,7.242,2.497,11.138c1.331,3.829,2.729,6.643,4.195,8.44
	c0.937,1.155,1.919,1.868,2.943,2.176c-0.377,3.277-0.838,6.324-1.396,9.111c-0.466,2.164-0.133,3.896,0.999,5.194
	c0.104,0.125,0.216,0.238,0.327,0.349c-0.577,1.236-1.072,2.742-1.476,4.545c-0.533,2.265-0.733,4.229-0.6,5.895
	c0.094,1.178,0.317,2.12,0.663,2.847c-0.744,1.257-1.353,2.762-1.812,4.544c-0.499,1.898-0.699,3.48-0.6,4.745
	c0.059,0.816,0.219,1.511,0.458,2.112c-0.813,1.464-1.549,2.979-2.156,4.58c-0.832,2.264-1.231,4.063-1.198,5.395
	c0.015,0.754,0.117,1.424,0.277,2.038c-0.523,1.005-0.999,2.122-1.427,3.354c-0.599,1.699-0.915,3.164-0.948,4.396
	c-0.059,1.297,0.18,2.402,0.695,3.328c-0.468,0.237-0.922,0.512-1.345,0.867c-0.633,0.565-1.115,1.165-1.448,1.798
	c-1.299,2.764-1.864,5.128-1.698,7.092c0.087,0.808,0.262,1.514,0.506,2.139c-0.926,0.587-1.777,1.455-2.553,2.606
	c-1,1.465-1.532,2.847-1.6,4.146c-0.05,0.973,0.125,1.963,0.523,2.973c-2.999,2.225-5.793,4.654-8.389,7.284
	c-0.435,0.138-0.874,0.315-1.324,0.581c-2.563,1.598-4.145,3.979-4.744,7.142c-0.566,2.997-0.133,5.344,1.299,7.042
	c0.86,0.993,1.804,1.567,2.822,1.769c3.887,3.88,7.246,7.537,10.063,10.967c2.664,3.229,5.811,5.228,9.439,5.993
	c2.734,0.595,5.054,0.414,6.965-0.529l5.871,4.225c3.029,2.298,5.111,3.963,6.242,4.995c0.566,0.499,0.967,0.416,1.199-0.25
	c0.832-2.23,0.816-5.344-0.05-9.339c-0.084-0.388-0.176-0.756-0.269-1.124c3.776,1.749,7.438,3.612,10.956,5.618
	c0.6,0.334,0.966,0.167,1.099-0.499c0.359-2.149,0.106-4.729-0.744-7.736c3.237,1.66,6.514,2.938,9.834,3.79
	c0.699,0.167,0.982-0.1,0.85-0.799c-0.3-1.73-0.899-3.895-1.799-6.492c-1.031-2.93-1.997-5.094-2.896-6.492
	c-0.499-0.745-1.051-1.316-1.643-1.752c0.496-1.059,0.565-2.419,0.194-4.092c-0.466-2.064-1.465-3.912-2.997-5.544
	c-2.744-2.937-7.253-6.631-13.485-11.065c1.545-1.264,2.698-3.128,3.447-5.615c0.722-2.377,0.777-4.045,0.191-5.03
	c0.682-0.546,1.239-1.212,1.657-2.013c1.32-2.607,2.023-5.637,2.127-9.076l0.818-0.362c0.6-0.433,1.133-1.083,1.599-1.948
	c1.705-3.111,2.638-6.358,2.811-9.738c1.405-1.014,2.352-2.228,2.833-3.646c1.019-2.898,1.298-6.015,0.859-9.342
	c0.173-0.144,0.34-0.29,0.489-0.447c0.6-0.6,1.149-1.481,1.648-2.646c1.154-2.612,1.691-5.591,1.627-8.924
	c0.621-0.461,1.18-1.205,1.669-2.264c0.699-1.564,1.148-3.729,1.349-6.492c0.202-2.396,0.125-4.42-0.198-6.115
	c0.732-0.539,1.305-1.305,1.697-2.326c0.865-2.197,1.265-4.661,1.197-7.391c-0.081-2.303-0.498-4.326-1.219-6.1
	c0.544-0.341,1.068-0.765,1.568-1.293c1.965-2.064,2.881-4.928,2.748-8.59c-0.8-22.041,0.232-41.087,3.096-57.135
	c2.625-14.809,7.063-28.013,13.283-39.637c0.635,0.585,1.559,0.742,2.799,0.432c2.164-0.566,5.078-0.882,8.74-0.949l5.805,0.417
	c1.537,3.091,3.91,5.122,7.131,6.076c2.797,0.866,6.426,0.916,10.887,0.149c2.564-0.466,6.526-2.214,11.887-5.244
	c4.528-2.63,8.225-5.044,11.088-7.242C327.341,100.119,328.556,96.157,327.29,91.096z M140.329,114.804
	c-4.034-4.005-9.033-5.855-14.998-5.548c1.487-0.563,2.996-1.259,4.533-2.128c1.265-0.699,2.713-1.215,4.345-1.548l5.354-0.217
	c1.43,3.143,3.005,6.326,4.729,9.551C142.895,114.719,141.574,114.685,140.329,114.804z"/>
</svg>
