<?xml version="1.0" encoding="utf-8"?>
<!-- Generator: Adobe Illustrator 16.0.0, SVG Export Plug-In . SVG Version: 6.00 Build 0)  -->
<!DOCTYPE svg PUBLIC "-//W3C//DTD SVG 1.1//EN" "http://www.w3.org/Graphics/SVG/1.1/DTD/svg11.dtd">
<svg version="1.1" id="图层_1" xmlns="http://www.w3.org/2000/svg" xmlns:xlink="http://www.w3.org/1999/xlink" x="0px" y="0px"
	 width="216px" height="322px" viewBox="0 0 216 322" enable-background="new 0 0 216 322" xml:space="preserve">
<path d="M206.552,98.095c2.263-2.565,4.048-4.863,5.351-6.888c1.773-2.752,2.563-4.981,2.401-6.704
	c0.021-0.343-0.076-0.754-0.303-1.243c-1.333-2.898-10.729-4.764-28.187-5.597c-0.15-0.007-0.295-0.012-0.445-0.019
	c-6.502-3.408-13.63-5.128-21.395-5.128c-5.52,0-10.524,0.773-15.025,2.305c2.242-7.175,3.594-13.3,4.029-18.348l-1.748-4.598
	c-1.3-2.999-2.25-4.931-2.85-5.797c-0.133-0.3-0.399-0.45-0.799-0.45c-0.334-0.067-0.617,0.05-0.85,0.35
	c-3.898,4.131-7.18,7.763-9.846,10.895l7.496-23.989l0.051-0.3l-0.301-0.7c-1.832-1.933-3.965-3.881-6.396-5.847
	c-4.831-3.865-9.146-6.281-12.944-7.247c-0.566-0.133-0.949,0.017-1.149,0.45c-3.932,5.664-7.529,11.495-10.795,17.492
	c-3.498-23.256-5.614-35.15-6.347-35.684c-0.866-0.633-3.481-0.949-7.846-0.949c-4.398,0-7.68,0.316-9.845,0.949
	c-1.433,0.367-2.316,0.95-2.649,1.75c-0.566,1.299-1.549,6.43-2.949,15.393c-1.533,9.496-2.582,17.509-3.148,24.039
	c-2.299-8.596-4.231-14.977-5.797-19.141c-1.1-2.832-1.882-4.332-2.349-4.498c-0.433-0.133-0.899-0.05-1.399,0.25
	c-1.333,0.766-3.932,3.215-7.796,7.347c-3.832,4.131-5.831,6.613-5.998,7.446l-0.05,1.05c0,6.13,0.25,11.312,0.75,15.542
	c-2.232-3.598-3.815-5.797-4.748-6.597l-1.1-0.35c-0.566-0.133-1.233,0.167-1.999,0.9c-0.966,0.866-2.132,2.166-3.499,3.898
	c-1.732,2.132-2.565,3.615-2.499,4.448c0.808,9.177,1.929,17.542,3.353,25.12c-9.594-0.431-18.448-0.461-26.542-0.082
	C9.429,78.097,2.916,79.346,0.85,81.312C0.283,81.845,0,82.428,0,83.061c0,2.266,4.531,8.496,13.594,18.691
	c7.212,8.105,14.853,15.671,22.899,22.722l-0.659,4.865l-0.985,6.311c-2.339,1.151-4.446,2.642-6.312,4.484
	c-5.397,5.331-8.213,12.944-8.446,22.84c-0.267,10.795,2.982,19.574,9.745,26.338c6.5,6.531,15.095,9.935,25.777,10.221
	c-4.786,9.577-7.186,17.069-7.186,22.463c0,2.699,0.7,5.332,2.099,7.896l0.2,19.041l0.254,14.323
	c-1.131,0.208-2.149,0.964-3.053,2.27c-1,1.399-2.032,3.765-3.099,7.097c-0.4,1.266-0.733,2.033-1,2.299l-8.296,5.548
	c-5.531,3.765-8.596,6.163-9.196,7.196c-1.166,2.066-1.483,4.648-0.95,7.746c0.5,2.966,1.483,4.965,2.949,5.998
	c1.599,1.199,4.181,1.683,7.747,1.449c3.498-0.2,6.414-0.982,8.746-2.35l5.498-4.598l5.397-4.547c1.1-0.667,2.416-1.316,3.948-1.949
	l4.698-1.899c1.833-0.8,3.332-2.065,4.498-3.798c1.466-2.232,2.199-5.049,2.199-8.447c0-1.632-0.983-3.715-2.948-6.246l-3.106-3.426
	c2.428-12.543,3.964-22.817,4.605-30.809c0.566-7.197,0.35-11.711-0.649-13.544l8.096-9.845c4.444-5.788,7.788-10.986,10.054-15.608
	c3.128,1.155,5.014,1.663,5.639,1.515c0.233-0.066,0.667-0.75,1.3-2.049l4.091-9.17c1.444,0.456,3.158,0.767,5.155,0.923
	c2.875,0.23,5.277,0.086,7.209-0.429c0.809,5.067,1.504,7.73,2.086,7.976c0.358,0.134,0.927,0.137,1.692,0.016l10.901,35.917
	l0.4,3.6c0.367,2.665,0.767,4.697,1.199,6.097c0.934,3.364,3.032,9.528,6.297,18.491c2.039,5.639,3.878,11.564,5.517,17.773
	c-0.799,1.136-1.572,2.788-2.317,4.967c-0.8,2.365-1.116,3.998-0.949,4.896l3.598,5.598l3.599,5.598l0.55,5.797
	c0.366,3.699,0.75,5.881,1.149,6.547c1.766,2.966,5.131,5.697,10.095,8.197c5.031,2.564,9.695,3.848,13.994,3.848
	c1.799,0,3.432-1.549,4.897-4.648c1.433-3.164,2.149-6.763,2.149-10.795c0-2.132-1.033-4.73-3.1-7.796l-5.197-6.747l-1.898-2.498
	c-2.365-3.666-3.648-6.081-3.849-7.247l-0.1-0.7l-0.75-5.896c-0.167-1.232-0.499-1.933-0.999-2.1
	c-0.381-0.127-1.385-0.151-3.002-0.077l-1.097-8.669l-3.448-25.588c-0.6-3.099-1.35-5.964-2.249-8.596
	c-0.866-2.666-1.616-4.281-2.249-4.848c-0.1-3.732-0.449-9.563-1.049-17.492c-0.768-10.312-1.594-18.215-2.483-23.724
	c5.604-3.281,8.533-5.32,8.78-6.112c0.187-0.624-0.574-1.693-2.261-3.196c3.789-3.005,5.709-5.161,5.709-6.449
	c0-1-2.3-3.099-6.897-6.298c-3.632-2.493-7.754-5.03-12.324-7.608c0.374-0.353,0.747-0.707,1.132-1.092
	c0.99,0.23,2.02,0.354,3.097,0.354c1.349,0,2.669-0.444,3.961-1.304c8.732,8.258,19.304,12.399,31.723,12.399
	c12.261,0,21.84-2.999,28.736-8.996C212.518,150.18,216,141.834,216,131.139C216,119.119,212.85,108.104,206.552,98.095z
	 M210.395,84.312c0.621-0.163,1.123-0.302,1.517-0.419c0.073,0.072,0.152,0.145,0.19,0.218L210.395,84.312z"/>
</svg>
