<?xml version="1.0" encoding="utf-8"?>
<!-- Generator: Adobe Illustrator 16.0.0, SVG Export Plug-In . SVG Version: 6.00 Build 0)  -->
<!DOCTYPE svg PUBLIC "-//W3C//DTD SVG 1.1//EN" "http://www.w3.org/Graphics/SVG/1.1/DTD/svg11.dtd">
<svg version="1.1" id="图层_1" xmlns="http://www.w3.org/2000/svg" xmlns:xlink="http://www.w3.org/1999/xlink" x="0px" y="0px"
	 width="268px" height="298px" viewBox="0 0 268 298" enable-background="new 0 0 268 298" xml:space="preserve">
<path d="M263.293,126.693c-1.6-3.368-4.784-7.036-9.553-11.003l-16.155-12.754c-9.337-7.669-17.239-13.438-23.708-17.306
	c-8.369-5.002-16.939-8.536-25.709-10.604c-4.978-1.174-10.42-1.922-16.31-2.259c0.225-0.71,0.431-1.424,0.604-2.142
	c1.101-4.468,1.134-8.537,0.1-12.204c-0.8-2.734-2.917-6.569-6.352-11.504c-3.801-5.436-6.102-9.104-6.902-11.004
	c-6.235-14.838-15.955-25.208-29.16-31.11c-11.904-5.302-24.575-6.286-38.013-2.951c-13.238,3.301-23.908,9.903-32.011,19.807
	c-8.736,10.737-12.404,23.125-11.004,37.163c0.4,3.768-0.5,9.703-2.701,17.806c-0.03,0.113-0.052,0.218-0.082,0.33
	c-8.627,4.328-15.557,10.481-20.775,18.476c-4.368,6.669-7.119,14.921-8.253,24.758c-0.872,7.519-0.625,15.319,0.721,23.395
	c-0.37,0.491-0.755,0.969-1.121,1.464C6.474,159.154,0.956,170.675,0.355,179.611c-0.567,7.836,0.333,14.271,2.701,19.307
	c1.634,3.501,3.835,6.102,6.603,7.803c2.401,1.467,5.568,1.533,9.503,0.199c1.152-0.387,2.315-0.892,3.49-1.498
	c0.596,0.122,1.232,0.189,1.912,0.198c2.601,0.033,4.852-0.717,6.752-2.251c2.101-1.7,3.284-3.668,3.551-5.902
	c0.063-0.604,0.048-1.217-0.03-1.838c0.815-0.857,1.626-1.696,2.433-2.524c2.115,3.769,4.384,7.583,6.795,11.438
	c-2.861,2.96-5.229,5.953-7.098,8.979c-0.855,1.382-1.602,2.81-2.292,4.261c-2.456,1.228-4.677,3.258-6.662,6.093
	c-3.401,4.802-5.102,10.437-5.102,16.905c0,7.003,1.667,12.821,5.001,17.457c2.736,3.755,6.043,5.973,9.901,6.707
	c1.452,2.914,2.903,5.432,4.354,7.547c-5.468,1.701-10.17,4.285-14.105,7.753c-3.601,3.234-5.401,6.103-5.401,8.603
	c0,1.734,1.217,3.151,3.651,4.252c2.634,1.167,6.252,1.75,10.854,1.75c11.003,0,30.51-0.416,58.52-1.25
	c16.472-0.434,26.525-2.551,30.16-6.352c1.7-1.801,2.701-3.952,3.001-6.453c0.243-2.063,0.053-5.158-0.561-9.263
	c1.078,0.033,2.162,0.056,3.261,0.06c1.028,0.009,2.074-0.007,3.13-0.041c7.682,1.813,16.188,1.584,25.529-0.709
	c7.406-1.813,13.789-5.154,19.163-10.002c1.568-0.659,3.135-1.336,4.694-2.052c4.143,2.506,8.582,4.408,13.314,5.714
	c-0.564,1.775-0.635,3.405-0.209,4.89c0.633,2.267,2.467,3.567,5.502,3.901c4.001,0.434,10.953-0.533,20.856-2.901
	c8.169-1.934,14.071-3.817,17.706-5.651c3.535-1.768,5.484-3.734,5.852-5.902c0.254-1.469,0.112-2.838-0.409-4.113
	c3.938-2.975,7.119-6.399,9.513-10.291c6.535-10.637,7.586-25.025,3.15-43.165c-2.566-10.57-8.535-20.94-17.905-31.11
	c-2.935-3.201-6.036-6.169-9.304-8.903l-4.001-3.2l-11.653-19.207c4.301,1.934,9.469,5.118,15.504,9.553
	c1.13,0.828,2.204,1.575,3.24,2.269c0.182,0.643,0.43,1.271,0.762,1.883c1.134,2.033,2.834,3.284,5.102,3.751
	c2.268,0.469,4.297,0.414,6.09-0.156c2.834,0.417,5.805,0.157,8.916-0.794c3.601-1.101,5.951-2.551,7.052-4.352
	c1.935-3.168,2.884-7.136,2.851-11.904C265.928,134.563,265.027,130.428,263.293,126.693z M224.379,157.77
	c-0.001-0.002-0.002-0.005-0.003-0.007C224.378,157.765,224.379,157.768,224.379,157.77
	C224.38,157.771,224.38,157.77,224.379,157.77z"/>
</svg>
