<?xml version="1.0" encoding="utf-8"?>
<!-- Generator: Adobe Illustrator 16.0.0, SVG Export Plug-In . SVG Version: 6.00 Build 0)  -->
<!DOCTYPE svg PUBLIC "-//W3C//DTD SVG 1.1//EN" "http://www.w3.org/Graphics/SVG/1.1/DTD/svg11.dtd">
<svg version="1.1" id="图层_1" xmlns="http://www.w3.org/2000/svg" xmlns:xlink="http://www.w3.org/1999/xlink" x="0px" y="0px"
	 width="304px" height="280px" viewBox="0 0 304 280" enable-background="new 0 0 304 280" xml:space="preserve">
<g>
	<path d="M302.2,63.188c-0.533-3.766-2.283-6.866-5.249-9.298c-2.777-2.326-6.329-3.814-10.642-4.48
		c-0.608-2.236-1.773-4.326-3.507-6.268c-2.032-2.266-4.315-3.716-6.848-4.349c-2.867-0.733-5.8-0.333-8.799,1.2
		c-1.99,1.04-3.642,2.394-4.972,4.047c-3.392-1.753-6.686-2.826-9.876-3.197c-3.699-0.467-6.916,0.066-9.648,1.6
		s-4.899,3.983-6.499,7.349c-1.433,3.133-2.3,6.882-2.6,11.249c-3.466,1.866-6.099,4.482-7.899,7.849
		c-1.6,3-2.249,5.932-1.949,8.798c0.267,2.5,1.3,4.75,3.1,6.749c1.351,1.516,3.003,2.706,4.924,3.607l-8.873,10.041
		c-2.467,2.7-3.549,4.183-3.25,4.45c0.301,0.233,2.133-0.467,5.5-2.1l6.248-3l-1.1,2.1c-0.6,1.033-0.816,1.633-0.649,1.8
		c0.167,0.2,1.017,0.067,2.55-0.4l7.698-2.899c1.3,4.366,3.565,7.715,6.799,10.048c2.866,2.1,6.299,3.283,10.298,3.549
		c3.434,0.233,6.633-0.5,9.6-2.2c2.549-1.5,4.458-3.449,5.739-5.839c4.252,0.997,8.075,1.283,11.457,0.84
		c3.866-0.533,6.866-1.95,8.999-4.249c1.799-2.033,2.933-4.85,3.399-8.449c0.466-3.899-0.017-7.682-1.45-11.348
		c2.732-1.866,4.783-4.399,6.149-7.599C302.217,69.62,302.666,66.42,302.2,63.188z"/>
	<path d="M187.818,68.687c1.334,0.8,3.133,1.1,5.4,0.9c1.532,1.8,3.199,2.883,4.998,3.25c1.867,0.4,3.5-0.033,4.899-1.3
		c1.433-1.3,2.033-3.05,1.8-5.249c-0.218-1.744-0.979-2.943-2.271-3.613c-0.097-3.436-1.444-5.409-4.078-5.885
		c-2.437-0.426-4.308,0.414-5.631,2.49c-1.385-0.675-2.856-0.61-4.417,0.209c-2,1.033-3,2.649-3,4.849
		C185.52,66.337,186.285,67.787,187.818,68.687z"/>
	<path d="M8.648,60.888c4.333,2.8,9.915,4.416,16.747,4.85c-0.767,2.333-0.933,4.682-0.5,7.049c0.5,2.766,1.717,4.899,3.649,6.398
		c2.2,1.733,4.933,2.517,8.199,2.35c3.433-0.167,6.932-1.399,10.499-3.699l4.799,4.25l1.9,1.4c0.4,0.066,0.55-0.517,0.45-1.75
		l-0.35-3.149l2.399,2.75c2.566,2.666,4.066,3.966,4.5,3.899c0.533-0.1,0.316-1.966-0.65-5.599l-1.9-6.449
		c3.866,0,6.532-0.883,7.999-2.649c1.967-2.366,2.35-5.766,1.15-10.198c4.366-1.633,7.632-4.166,9.798-7.599
		c1.767-2.866,2.566-5.866,2.4-8.999c-0.2-3.399-1.533-6.399-4-8.999c-2.433-2.566-5.649-4.416-9.648-5.549
		c1.267-4.066,1.866-7.565,1.8-10.498c-0.067-3.966-1.316-7.215-3.75-9.749c-1.866-1.966-4.566-3.216-8.099-3.749
		c-3.433-0.5-6.849-0.217-10.248,0.85c-3.3-2.8-6.982-4.633-11.048-5.499c-4.199-0.9-7.916-0.55-11.148,1.05
		c-3.066,1.566-5.465,4.199-7.199,7.898c-1.7,3.633-2.466,7.649-2.299,12.048l0.05,1.899c-5.232,2.9-9.115,6.916-11.648,12.048
		c-2.4,4.799-3.1,9.448-2.1,13.947C1.466,54.206,4.216,58.021,8.648,60.888z"/>
	<path d="M32.345,134.126c2.833-0.434,4.932-1.667,6.299-3.7c1.333-2,1.733-4.416,1.2-7.249c-0.566-3.133-2.167-5.799-4.799-7.999
		c0.567-2.866,0.383-5.432-0.55-7.699c-1.133-2.766-3.183-4.466-6.149-5.099c-1.933-0.4-4.016-0.1-6.249,0.9
		c-2.266,1.033-4.066,2.55-5.399,4.549c-3.167-0.833-6.166-0.333-8.999,1.5c-3.1,1.966-4.649,4.799-4.649,8.499
		c0,2.366,0.7,4.416,2.1,6.149c1.466,1.866,3.516,3.083,6.149,3.649c-0.566,1.7-0.55,3.316,0.05,4.849
		c0.566,1.433,1.566,2.533,3,3.299c3.366,1.8,6.882,1.033,10.548-2.299C27.595,134.209,30.078,134.426,32.345,134.126z"/>
	<path d="M265.307,162.471c-1.334-1-2.967-1.582-4.899-1.749c-1.233-1.634-2.583-2.767-4.05-3.399c-1.333-0.6-2.633-0.75-3.898-0.45
		c-1.5,0.399-2.717,1.3-3.65,2.7c-0.899,1.365-1.433,3.049-1.6,5.049c-2.066,0.199-3.716,0.967-4.949,2.299
		c-1.199,1.233-1.783,2.684-1.75,4.35c0.033,1.3,0.601,2.5,1.7,3.6c1.366,1.4,3.3,2.25,5.8,2.55
		c0.732,1.499,1.916,2.666,3.549,3.499c1.533,0.767,3.066,1.017,4.6,0.75c1.399-0.233,2.6-0.9,3.6-2
		c1.133-1.232,1.782-2.766,1.949-4.599c2.166-0.9,3.799-2.2,4.898-3.899c0.967-1.533,1.334-3.116,1.101-4.75
		C267.473,164.82,266.673,163.504,265.307,162.471z"/>
	<path d="M78.087,242.607c0.3-2.898-0.133-5.582-1.3-8.049c-1.366-2.932-3.599-5.099-6.699-6.498
		c-2.966-1.367-6.049-1.65-9.249-0.85c-3.288,0.806-6.197,2.649-8.737,5.513c-0.121-0.021-0.233-0.042-0.362-0.063
		c-3.399-0.5-6.615-0.033-9.648,1.399c-3.166,1.532-5.366,3.782-6.599,6.749c-1.2,2.899-1.233,6.049-0.1,9.448
		c0.987,2.987,2.805,5.645,5.431,7.983c-1.451,1.056-2.526,2.398-3.181,4.064c-0.7,1.833-0.783,3.516-0.25,5.049
		c0.6,1.633,1.816,2.983,3.649,4.05c1.767,1,3.899,1.616,6.399,1.85c1.5,2.633,3.766,4.466,6.799,5.499l8.249,0.25
		c2.899-0.867,5.149-2.449,6.749-4.749c0.971-1.407,1.61-2.922,1.927-4.542c3.834,0.11,7.228-0.751,10.171-2.607
		c3.033-1.899,5.016-4.465,5.949-7.698c0.966-3.3,0.583-6.466-1.15-9.499C84.469,246.975,81.786,244.541,78.087,242.607z"/>
	<path d="M36.244,208.363c-0.1-1.366-0.583-2.499-1.45-3.398c0.5-1.801,0.483-3.467-0.05-5c-0.566-1.566-1.55-2.533-2.95-2.899
		c-1.399-0.366-2.683-0.017-3.849,1.05c-1.133,1-1.95,2.5-2.45,4.5c-1.2,0.399-2.167,0.999-2.899,1.799
		c-0.833,0.834-1.25,1.767-1.25,2.8c0,1.7,0.733,2.883,2.2,3.55l4.299,0.199c1.4,1,2.799,1.55,4.199,1.65
		c1.367,0.1,2.45-0.234,3.25-1C36.061,210.847,36.377,209.764,36.244,208.363z"/>
	<path d="M245.359,237.408c-2.467-2.232-5.615-3.782-9.448-4.648c-0.601-1.967-1.583-3.616-2.95-4.949
		c-1.433-1.4-3.065-2.232-4.898-2.5c-2.732-0.366-5.183,0.2-7.35,1.7c-0.821,0.578-1.533,1.259-2.16,2.017
		c-2.001-0.787-3.885-1.157-5.638-1.066c-1.7,0.1-2.999,0.549-3.899,1.35c-2.199,1.966-2.883,5.133-2.05,9.498
		c-3.1,1.4-5.416,3.299-6.948,5.699c-1.5,2.366-1.984,4.716-1.45,7.049c0.6,2.467,2.199,4.549,4.799,6.249
		c2.713,1.729,6.044,2.665,9.983,2.82c1.423,3.327,3.407,5.941,5.965,7.827c2.766,2,5.781,2.883,9.048,2.65
		c2.833-0.2,5.466-1.383,7.898-3.55c2.733-2.433,4.616-5.649,5.649-9.648c5.499-3.732,7.982-8.198,7.449-13.397
		C249.092,241.908,247.76,239.542,245.359,237.408z"/>
	<path d="M196.176,206.612c5.975-6.571,10.787-14.142,14.437-22.71l4.752-0.785c3.532-0.699,5.8-1.365,6.799-1.999
		c1.366-0.866,2.566-3.666,3.6-8.399c1-4.732,1.149-7.981,0.45-9.748c-0.384-1.023-3.198-3.553-8.427-7.581
		c0.579-8.604-0.411-17.424-2.972-26.463c-0.77-2.694-1.67-5.332-2.674-7.926c0.324-0.34,0.646-0.668,0.975-1.022
		c2.499-2.733,4.016-4.749,4.549-6.049c1.434-2.633,0.9-6.566-1.6-11.798c-2.5-5.332-5.433-8.332-8.799-8.999
		c-2.1-0.439-5.988-0.277-11.648,0.482c-7.383-8.555-15.876-15.407-25.495-20.529c-5.741-3.053-11.628-5.345-17.658-6.878
		l-0.439-2.27l-1.65-6.799c-1.267-3.133-5.466-5.083-12.598-5.849c-7.132-0.767-11.515,0.267-13.148,3.099
		c-0.333,0.534-1.316,2.883-2.95,7.049l-1.318,3.468c-14.628,2.231-27.975,8.188-40.026,17.904c-4.19-1.643-7.2-2.475-8.998-2.475
		c-2.233,0-5.382,2-9.448,5.999c-3.899,3.799-5.816,6.349-5.749,7.649c0.094,1.97,1.421,5.708,3.949,11.168
		c-3.319,5.024-6.009,10.363-8.049,16.027c-2.48,6.784-3.915,13.753-4.322,20.902l-2.477,2.244
		c-2.133,2.066-3.416,3.716-3.849,4.949c-0.6,1.899-0.55,5.365,0.15,10.398c0.667,4.966,1.466,8.016,2.399,9.148
		c0.964,1.205,3.305,2.645,6.993,4.313c2.952,10.824,7.782,20.45,14.492,28.876c-0.141,0.875-0.271,1.82-0.388,2.855
		c-0.333,2.933-0.3,4.933,0.1,5.999c0.566,1.366,2.333,3.482,5.299,6.349c3.133,3.033,5.465,4.683,6.999,4.949
		c2.029,0.338,5.438,0.073,10.191-0.779c8.584,5.115,18.124,8.642,28.616,10.585c0.212,0.586,0.522,1.361,0.937,2.343
		c0.933,2.3,1.816,3.899,2.649,4.799c1.466,1.634,5.016,2.733,10.648,3.3l9.848-0.45c0.733-0.466,2.066-2.216,4-5.249l2.583-4.234
		c10.718-1.667,20.539-5.037,29.469-10.099c0.015,0.012,0.028,0.023,0.043,0.035c2.999,2.333,5.132,3.616,6.399,3.85
		c2.232,0.433,5.148-0.683,8.748-3.35c3.699-2.767,5.799-5.565,6.299-8.398c0.133-0.866-0.316-3.116-1.35-6.749
		C196.403,207.369,196.29,206.995,196.176,206.612z"/>
</g>
</svg>
