<?xml version="1.0" encoding="utf-8"?>
<!-- Generator: Adobe Illustrator 16.0.0, SVG Export Plug-In . SVG Version: 6.00 Build 0)  -->
<!DOCTYPE svg PUBLIC "-//W3C//DTD SVG 1.1//EN" "http://www.w3.org/Graphics/SVG/1.1/DTD/svg11.dtd">
<svg version="1.1" id="图层_1" xmlns="http://www.w3.org/2000/svg" xmlns:xlink="http://www.w3.org/1999/xlink" x="0px" y="0px"
	 width="210px" height="117px" viewBox="0 0 210 117" enable-background="new 0 0 210 117" xml:space="preserve">
<path d="M207.602,75.512c-1.365-2.397-2.797-2.914-4.297-1.549c-1.965,1.799-5.213,2.564-9.742,2.299
	c-2.59-0.135-4.996-0.521-7.234-1.138c-0.071-0.054-0.139-0.108-0.21-0.161c-2.882-2.05-6.296-3.38-10.236-3.999
	c-1.274-1.661-2.696-3.144-4.304-4.396c-4.762-3.75-9.941-7.321-15.532-10.72c-3.582-6.548-9.375-10.425-17.396-11.614
	l-10.291-2.099c-3.887-0.987-6.715-1.944-8.518-2.874c0.102-0.461,0.221-0.932,0.372-1.423l5.196-15.289l4.447-13.091
	c0.966-3.364,0.299-5.996-2-7.895c-2.33-1.932-5.229-2.132-8.693-0.599c-9.559,4.23-18.669,7.778-27.33,10.642
	c-11.559,3.831-23.267,6.795-35.125,8.894c-4.331,0.766-12.541-1.216-24.632-5.945C28.613,13.19,21.068,9.892,9.443,4.663
	c-2.365-1.066-4.347-1.049-5.946,0.05C1.898,5.812,0.816,7.927,0.25,11.058c-0.3,1.599-0.3,3.797,0,6.595l0.95,6.195
	c1.299,7.229,5.846,16.005,13.64,26.332c1.532,2.032,6.412,7.761,14.64,17.187c7.76,9.027,13.956,17.771,18.585,26.232
	c0.966,1.698,4.93,2.965,11.892,3.797c6.401,0.748,11.253,0.761,14.58,0.049c4.475,3.539,9.62,6.109,15.448,7.695
	c4.897,1.332,13.724,2.781,26.481,4.349l11.642,0.799c1.078-0.046,2.125-0.14,3.154-0.265c5.643,2.711,12.91,4.306,21.827,4.761
	c4.853,0.243,9.083-0.036,12.705-0.832l0.854,0.024c0.846,0.138,1.9,0.207,3.179,0.207c0.661,0,1.299-0.022,1.915-0.065l2.382,0.065
	c4.664-0.766,8.646-2.396,11.94-4.896c0.799-0.606,1.535-1.294,2.224-2.048c3.963-1.829,7.87-4.898,11.718-9.243
	c3.997-4.563,6.695-9.044,8.096-13.44C209.234,81.059,209.066,78.043,207.602,75.512z"/>
</svg>
