<?xml version="1.0" encoding="utf-8"?>
<!-- Generator: Adobe Illustrator 16.0.0, SVG Export Plug-In . SVG Version: 6.00 Build 0)  -->
<!DOCTYPE svg PUBLIC "-//W3C//DTD SVG 1.1//EN" "http://www.w3.org/Graphics/SVG/1.1/DTD/svg11.dtd">
<svg version="1.1" id="图层_1" xmlns="http://www.w3.org/2000/svg" xmlns:xlink="http://www.w3.org/1999/xlink" x="0px" y="0px"
	 width="369px" height="317px" viewBox="0 0 369 317" enable-background="new 0 0 369 317" xml:space="preserve">
<g>
	<path d="M365.852,168.219c-1.066-1.633-2.532-2.898-4.397-3.798c0.333-3.431-0.566-6.462-2.698-9.094
		c-1.832-2.298-4.13-3.797-6.895-4.497c-2.799-0.733-5.53-0.517-8.195,0.649c-1.875,0.836-3.303,1.979-4.305,3.412
		c-2.088-0.996-4.332-1.453-6.737-1.363c-2.632,0.133-4.714,0.899-6.246,2.298c-1.365,1.232-2.182,2.898-2.448,4.997
		c-0.233,1.932,0.017,3.897,0.75,5.896c-1.933,1.033-3.331,2.565-4.197,4.598c-0.767,1.832-0.967,3.664-0.6,5.496
		c0.466,2.465,1.749,4.663,3.847,6.596c1.568,1.492,3.234,2.482,4.995,2.976c-0.018,2.753,1.04,5.245,3.2,7.467
		c2.165,2.265,4.813,3.665,7.944,4.197c3.697,0.7,7.128,0.149,10.293-1.649c2.242-1.248,3.937-2.937,5.09-5.058
		c0.981,0.022,2.078-0.198,3.305-0.688c1.532-0.633,2.665-1.448,3.397-2.447c0.866-1.133,1.365-2.449,1.499-3.947
		c0.133-1.434-0.083-2.799-0.649-4.098c1.466-0.766,2.598-1.815,3.397-3.148c0.767-1.266,1.149-2.598,1.149-3.997
		C367.351,171.35,366.851,169.75,365.852,168.219z"/>
	<path d="M253.328,269.549c-2.532,0.667-3.898,1.55-4.098,2.648c-0.233,1.166,0.3,2.615,1.599,4.348
		c1.366,1.832,2.698,2.682,3.997,2.548c1.766-0.133,2.965-1.149,3.598-3.048c0.666-1.965,0.467-3.947-0.6-5.945
		C257.324,269.066,255.826,268.883,253.328,269.549z"/>
	<path d="M34.683,47.632c-0.429,1.076-0.656,2.164-0.656,3.265c-0.034,1.399,0.283,2.532,0.949,3.398
		c1.366,1.832,3.181,2.481,5.446,1.949c0.1,1.965,1.066,3.814,2.898,5.546c1.766,1.699,3.848,2.782,6.246,3.248
		c2.465,0.466,4.864,0.133,7.195-1c1.519-0.74,2.71-1.738,3.591-2.979c1.413,1.538,3.376,2.27,5.902,2.18
		c2.532-0.1,4.78-0.916,6.746-2.448c2.165-1.699,3.381-3.764,3.647-6.196c0.267-2.199-0.267-4.38-1.599-6.546
		c2.232-1.865,3.198-4.18,2.898-6.945c-0.133-1.466-0.799-2.981-1.999-4.547c-1.008-1.315-2.14-2.332-3.383-3.083
		c0.231-1.484,0.169-3.036-0.214-4.662c-0.766-3.165-2.348-5.546-4.747-7.145c-2.765-1.899-5.746-2.548-8.944-1.949
		c-3.131,0.566-5.863,2.232-8.195,4.997c-0.966-0.7-2.115-1.132-3.447-1.299c-1.433-0.167-2.682,0.067-3.748,0.7
		c-1.166,0.733-2.015,1.732-2.548,2.998c-0.433,1.099-0.533,2.148-0.3,3.148c-1.999,0.666-3.681,1.649-5.046,2.948
		c-1.533,1.433-2.532,3.115-2.998,5.047c-0.333,1.432-0.2,3.198,0.399,5.296C33.223,45.123,33.872,46.467,34.683,47.632z"/>
	<path d="M48.316,238.371c0.7-2.332,0.55-4.964-0.45-7.895c-1.166-3.465-3.214-5.963-6.146-7.496
		c-2.599-1.332-5.363-1.665-8.294-0.999c-1.999,0.433-3.814,1.282-5.446,2.548c-1.266-1.965-3.065-3.297-5.396-3.996
		c-2.465-0.767-4.78-0.65-6.945,0.35c-2.065,0.966-3.614,2.465-4.647,4.496c-1.066,2.032-1.299,4.064-0.699,6.096
		c-2.432,0.268-4.564,1.133-6.396,2.599c-1.898,1.532-3.098,3.481-3.598,5.847c-0.666,2.897-0.366,5.896,0.899,8.994
		c1.599,3.93,4.447,6.611,8.544,8.044c-0.233,0.666-0.2,1.516,0.1,2.548c0.366,1.166,0.949,2.032,1.749,2.599
		c0.933,0.633,2.016,0.949,3.248,0.949s2.365-0.316,3.397-0.949c1.866,2.698,4.497,4.431,7.895,5.196l8.645-0.25
		c2.831-0.799,5.163-2.115,6.995-3.947c1.898-1.965,2.832-4.113,2.798-6.445c1.965-0.766,3.648-1.982,5.047-3.647
		c1.466-1.732,2.315-3.647,2.548-5.746c0.167-1.232-0.017-2.648-0.55-4.247C50.948,240.952,49.849,239.403,48.316,238.371z"/>
	<path d="M83.043,52.546c1.099,1.566,2.582,2.199,4.447,1.899c1.732-0.267,2.832-1.066,3.298-2.398c0.3-0.933,0.333-2.148,0.1-3.647
		c-0.233-1.433-0.616-2.465-1.149-3.098c-1.032-1.232-2.365-1.732-3.997-1.499c-1.666,0.267-2.932,1.199-3.797,2.798
		c-0.333,0.666-0.383,1.632-0.15,2.898C82.027,50.698,82.443,51.714,83.043,52.546z"/>
	<path d="M27.987,104.346c-0.237,1.287-0.046,2.558,0.593,3.813c0.833,1.599,2.099,2.765,3.797,3.498c1.898,0.8,3.864,0.8,5.896,0
		c1.461-0.55,2.623-1.44,3.492-2.664c1.006,0.5,2.189,0.593,3.553,0.265c1.632-0.366,2.998-1.216,4.098-2.548
		c1.266-1.532,1.865-3.265,1.798-5.197c-0.066-2.265-1.099-4.414-3.098-6.445c0.4-0.7,0.583-1.516,0.55-2.449
		c-0.034-0.933-0.283-1.715-0.75-2.348c-0.467-0.6-1.116-1.016-1.949-1.249l-2.548-0.1c-0.466-1.433-1.433-2.598-2.898-3.498
		c-1.466-0.866-2.981-1.232-4.547-1.099c-1.632,0.167-3.082,0.882-4.347,2.148c-1.266,1.232-1.982,2.681-2.148,4.347
		c-1.366-0.167-2.749,0.283-4.147,1.349s-2.265,2.332-2.598,3.797c-0.367,1.699-0.1,3.332,0.799,4.897
		C24.482,102.546,25.971,103.703,27.987,104.346z"/>
	<path d="M158.388,46.416c-0.055,1.687,0.208,3.102,0.803,4.232c0.666,1.199,1.932,2.298,3.797,3.297
		c3.231,1.699,6.279,2.515,9.144,2.449c2.964-0.034,5.213-1.016,6.745-2.948c2.832,1,5.68,1.016,8.544,0.05
		c2.465-0.833,4.48-2.199,6.047-4.098c1.698-2.065,2.631-4.463,2.797-7.195c0.064-1.304-0.062-2.556-0.371-3.759
		c1.571-1.344,2.614-3.204,3.12-5.585c0.466-2.332,0.333-4.53-0.399-6.596c-0.633-1.732-1.683-3.198-3.148-4.397
		c-1.499-1.232-3.182-1.965-5.047-2.198c-0.633-2.832-1.981-5.23-4.047-7.195s-4.414-3.098-7.045-3.397
		c-2.465-0.267-4.83,0.316-7.095,1.749c-0.781,0.482-1.469,1.024-2.076,1.618c-2.619-1.889-5.439-2.061-8.467-0.469
		c-2.398,1.232-4.131,2.948-5.197,5.146c-0.966,2.032-1.216,4.047-0.75,6.046c-2.665,1.033-4.647,2.931-5.946,5.696
		c-1,2.099-1.433,4.131-1.299,6.096c0.167,2.832,1.216,5.363,3.148,7.595C153.544,44.73,155.794,46.01,158.388,46.416z"/>
	<path d="M117.036,294.843c0.375-1.564,0.37-3.117-0.066-4.657c-0.5-1.699-1.349-2.998-2.548-3.897
		c-0.966-0.733-2.115-1.083-3.448-1.05c-1.366,0.033-2.598,0.467-3.698,1.3c-0.999-1.799-2.481-3.031-4.447-3.698
		c-1.832-0.6-3.547-0.565-5.146,0.101c-1.666,0.633-2.931,1.849-3.797,3.647c-0.833,1.799-0.916,3.447-0.25,4.947
		c-1.499,0.332-2.781,1.148-3.847,2.447c-1.1,1.333-1.649,2.766-1.649,4.297c0,1.799,0.633,3.415,1.898,4.848
		c1.146,1.352,2.539,2.183,4.177,2.498c0.007,0.25-0.005,0.498,0.021,0.75c0.167,1.965,0.883,3.747,2.148,5.346
		c1.366,1.732,3.115,2.915,5.247,3.548c2.199,0.666,4.297,0.566,6.296-0.3c1.199-0.533,2.165-1.466,2.898-2.799
		c0.633-1.232,0.982-2.681,1.049-4.346c2.065,0.033,3.914-0.484,5.546-1.55c1.565-1.065,2.582-2.382,3.048-3.947
		c0.466-1.632,0.266-3.214-0.6-4.747C119.174,296.398,118.226,295.49,117.036,294.843z"/>
	<path d="M311.338,241.469c-2.864-4.863-6.462-7.462-10.793-7.795c-0.62-0.042-1.234-0.016-1.843,0.076
		c-1.595-2.625-4.155-4.62-7.7-5.973c-3.83-1.432-7.479-1.648-10.942-0.649c-3.631,1.066-6.112,3.099-7.444,6.097
		c-1.1,2.465-1.283,5.046-0.551,7.744c-1.799,0.367-3.33,1.232-4.596,2.598c-1.233,1.333-1.949,2.898-2.149,4.697
		c-0.3,2.531,0.316,4.997,1.849,7.395c0.757,1.183,1.656,2.202,2.688,3.071c-0.556,1.991-0.404,4.182,0.46,6.573
		c0.933,2.697,2.465,4.797,4.597,6.295c2.398,1.666,5.213,2.498,8.444,2.498c3.797,0,7.229-1.248,10.293-3.746
		c1.332,1.266,3.048,1.881,5.146,1.848c1.998-0.033,3.797-0.6,5.396-1.698c1.666-1.166,2.864-2.932,3.598-5.297
		c0.762-2.561,0.719-5.178-0.108-7.85c0.813-0.438,1.565-0.952,2.257-1.544c1.332-1.133,2.265-2.432,2.798-3.896
		c0.566-1.467,0.716-3.132,0.45-4.997C312.954,244.982,312.338,243.168,311.338,241.469z"/>
	<path d="M332.174,139.438l1.367-6.234c2.67-2.025,5.134-4.24,7.377-6.657c2.599-2.798,4.364-5.146,5.297-7.045
		c0.933-1.832,1.915-5.08,2.948-9.743c0.734-3.319,1.315-6.646,1.768-9.98l2.829-4.31c1.365-2.265,2.115-3.764,2.248-4.497
		l0.05-0.649c0-1.199-0.366-3.531-1.099-6.995l-1.749-7.095c0.999-1.399,1.315-2.932,0.949-4.597
		c-0.273-1.386-1.064-2.751-2.336-4.097c-0.109-0.902-0.323-2.022-0.662-3.398c-0.446-1.728-0.879-3.035-1.302-3.971
		c-0.06-0.425-0.168-0.87-0.359-1.35c0.52-0.673,1.008-1.509,1.462-2.524c0.499-1.199,0.749-2.132,0.749-2.798
		c0-0.566-0.55-1.499-1.648-2.798c-0.193-0.235-0.388-0.454-0.582-0.672c0.36-1.947,0.273-4.086-0.268-6.423
		c-0.533-2.265-1.316-4.164-2.349-5.696c-1.032-1.499-2.599-2.765-4.697-3.797c-1.754-0.919-3.571-1.48-5.443-1.724
		c-1.387-2.072-2.489-3.567-3.3-4.472c-1.133-1.232-3.515-2.981-7.146-5.247c-4.098-2.531-8.312-4.747-12.642-6.645
		c-10.904-4.784-21.424-6.989-31.56-6.632l-1.019-2.412c-0.898-1.766-1.766-2.981-2.598-3.647c-1-0.8-2.965-1.549-5.896-2.249
		c-3.23-0.766-5.813-0.95-7.744-0.55c-1.966,0.366-4.414,1.432-7.346,3.198c-2.798,1.632-4.697,3.064-5.695,4.297
		c-0.801,0.966-1.283,2.315-1.449,4.047l-0.081,3.723c-4.537,1.772-9.073,4.179-13.61,7.22c-4.301,2.909-8.104,6.084-11.406,9.525
		l-3.982,0.268c-2.398,0.267-3.947,0.566-4.647,0.899c-1.065,0.5-2.632,1.849-4.696,4.047c-2.199,2.298-3.531,4.131-3.998,5.497
		c-0.5,1.366-0.683,3.031-0.549,4.997c0.133,1.898,0.499,3.331,1.099,4.297l1.999,3.098l0.956,1.267
		c-0.211,0.741-0.396,1.461-0.545,2.152c-1.79-0.011-3.134,0.13-4.009,0.428c-0.833,0.267-2.199,1.283-4.098,3.048
		c-0.917,0.833-1.706,1.596-2.391,2.306c-7.975-2.502-16.637-4.337-26.04-5.454c-15.323-1.832-30.596-0.916-45.819,2.749
		c-7.823,1.895-15.083,4.399-21.809,7.482c-1.51-1.609-3.369-3.077-5.623-4.385c-3.031-1.765-5.696-2.598-7.994-2.498
		c-2.332,0.133-5.796,1.399-10.393,3.797c-4.264,2.231-7.229,4.18-8.894,5.846c-1.965,1.966-3.797,4.564-5.497,7.795
		c-1.666,3.165-2.765,6.112-3.297,8.844c-0.433,2.231-0.316,5.113,0.35,8.644c0.411,2.26,0.972,4.382,1.668,6.383
		c-8.18,10.791-14.021,24.424-17.525,40.894c-5.613,3.331-9.09,5.76-10.425,7.286c-1.033,1.132-1.766,3.664-2.199,7.595
		c-0.433,3.697-0.449,6.828-0.05,9.393c0.367,2.466,1.266,5.396,2.698,8.795c1.366,3.23,2.582,5.446,3.647,6.646
		c1.199,1.365,3.214,2.614,6.046,3.747c0.18,0.074,0.358,0.138,0.538,0.208c0.408,11.457,3.903,22.948,10.505,34.469
		c2.257,3.909,5.026,8.01,8.255,12.284l-2.309,8.451c-0.899,3.598-1.316,5.713-1.25,6.346c0.1,1.033,0.866,2.915,2.299,5.646
		c1.499,2.932,2.848,4.947,4.047,6.046c1.366,1.267,3.731,2.731,7.095,4.397c3.531,1.766,5.963,2.581,7.295,2.448
		c1.299-0.134,3.397-1.05,6.295-2.749l4.975-3.289c7.919,4.542,17.983,8.887,30.202,13.033c1.899,0.643,3.771,1.242,5.624,1.817
		l1.821,4.728c1,2.432,1.732,3.881,2.199,4.348c0.866,0.866,3.131,2.099,6.795,3.697c4.13,1.799,7.128,2.615,8.994,2.449
		l8.145-1.699c3.331-0.866,5.347-1.533,6.046-1.999c0.566-0.399,1.083-1.183,1.549-2.349c0.301-0.788,0.517-1.602,0.657-2.438
		c1.145-0.049,2.203-0.146,3.141-0.31c14.323-2.465,26.148-5.346,35.476-8.645c7.031-2.488,13.177-5.304,18.442-8.445
		c4.237,1.712,7.272,2.366,9.09,1.95c2.23-0.466,5.096-1.731,8.594-3.798c4.063-2.432,6.778-4.796,8.145-7.095
		c0.999-1.665,1.781-3.631,2.348-5.896c0.467-1.999,0.7-3.914,0.7-5.746c0-0.6-0.399-1.732-1.199-3.398l-2.128-4.147
		c1.77-2.851,3.622-5.918,5.575-9.243c6.216-10.582,9.953-18.076,11.229-22.504c1.166,0.574,2.354,1.051,3.562,1.418l2.998,0.35
		c0.566-0.166,1.398-0.766,2.498-1.799l2.644-3.014l2.003,0.316c3.032,0.232,4.98,0.25,5.847,0.049l3.147-2.148l3.548-2.848
		l4.247,0.2c0.899-0.2,1.449-0.633,1.648-1.3c0.168-0.499,0.85-1.365,2.049-2.598l2.499-2.498c0.499-0.467,0.216-1.549-0.85-3.248
		c-0.363-0.558-0.767-1.1-1.19-1.632c1.06-2.578,1.94-5.908,2.639-10.011c0.733-4.264,0.9-6.912,0.5-7.944
		c-0.332-0.866-1.732-2.331-4.197-4.397l-1.382-1.027c-0.745-1.559-1.791-3.356-3.165-5.418c-1.632-2.465-2.764-3.897-3.397-4.297
		l-6.567-0.266l0.991-4.57c1.334-0.083,2.774-0.185,4.327-0.31l13.341-1.649c1.066-0.3,3.132-1.282,6.196-2.948
		c0.815-0.444,1.588-0.875,2.332-1.297c1.233,1.16,2.312,1.926,3.214,2.246h0.35l11.992-3.498
		C330.958,142.569,331.608,141.436,332.174,139.438z M268.768,150.73c-0.524-1.656-1.021-3.182-1.496-4.612
		c0.994,0.58,1.987,1.107,2.981,1.58l-0.87,4.98C269.183,152.04,268.982,151.402,268.768,150.73z"/>
</g>
</svg>
