<?xml version="1.0" encoding="utf-8"?>
<!-- Generator: Adobe Illustrator 16.0.0, SVG Export Plug-In . SVG Version: 6.00 Build 0)  -->
<!DOCTYPE svg PUBLIC "-//W3C//DTD SVG 1.1//EN" "http://www.w3.org/Graphics/SVG/1.1/DTD/svg11.dtd">
<svg version="1.1" id="图层_1" xmlns="http://www.w3.org/2000/svg" xmlns:xlink="http://www.w3.org/1999/xlink" x="0px" y="0px"
	 width="310px" height="269px" viewBox="0 0 310 269" enable-background="new 0 0 310 269" xml:space="preserve">
<path d="M304.339,209.394c3.331-9.926,3.664-21.601,0.999-35.024c-2.431-12.281-7.039-24.532-13.79-36.752
	c0.552-0.596,1.116-1.187,1.699-1.77c0.6-0.565,0.949-1.198,1.05-1.898c0.1-0.666-0.018-1.316-0.351-1.949
	c-1.798-3.264-3.813-6.229-6.046-8.893c-2.471-2.959-4.494-4.607-6.077-4.963l4.829-7.178c1.564-2.698,2.331-4.646,2.298-5.846
	c-0.033-1.999-1.582-4.963-4.646-8.894c-0.664-0.86-1.321-1.675-1.974-2.445c0.204-3.802,1.319-8.903,3.373-15.342
	c0.633-1.965,2.514-7.161,5.645-15.588c0.6-1.565,0.783-3.297,0.551-5.196c-0.233-1.865-0.85-3.63-1.85-5.296
	c-0.433-0.766-1.049-1.282-1.848-1.549l-3.148,0.2l-13.539,5.646c-4.308,1.684-7.608,2.698-9.934,3.061
	c-0.977-2.256-2.986-3.534-6.055-3.811c-12.591-1.066-21.784-4.563-27.58-10.492c-5.762-5.829-10.326-16.221-13.689-31.177
	c-0.334-1.432-0.699-2.548-1.1-3.348c-0.5-0.999-1.249-1.915-2.248-2.748c-0.966-0.833-2.664-1.865-5.096-3.098
	c-1.674-0.862-2.968-1.461-3.889-1.802c-1.575-0.873-3.703-1.606-6.404-2.195c-4.696-1.066-8.693-0.949-11.991,0.35
	c-1.433,0.6-3.098,2.065-4.996,4.396c-1.366,1.699-3.114,4.197-5.246,7.495c-4.13,6.461-7.095,10.692-8.894,12.69
	c-2.819,3.147-5.563,4.986-8.23,5.526c-2.883-1.016-5.586-2.704-8.107-5.076c-2.198-2.065-4.68-5.03-7.444-8.894l-7.594-10.942
	c-0.938-1.342-2.082-2.333-3.427-2.979c-1.716-1.526-4.538-2.604-8.514-3.216c-5.796-0.933-11.108-0.35-15.938,1.749
	c-1.765,0.733-3.164,2.049-4.197,3.947c-0.799,1.499-1.699,4.063-2.698,7.694l-1.749,6.445c-0.799,2.665-1.666,4.946-2.598,6.845
	C88.832,37.771,83.419,46.415,77.657,53.01c-8.035,9.265-17.205,15.304-27.506,18.129c-1.388-0.406-2.688-0.846-3.89-1.325
	c-0.183-1.1-0.363-2.201-0.53-3.314c-0.666-4.397-2.249-7.178-4.747-8.344c-2.032-0.966-4.38-0.833-7.044,0.399
	c-5.33,2.432-10.592,6.295-15.789,11.591C12.422,75.976,8.476,81.938,6.31,88.034c-1.365,3.897-1.399,8.244-0.1,13.041
	c0.299,1.108,0.678,2.184,1.103,3.239c0.403,2.451,0.786,5.04,1.146,7.802c0.733,5.796,0.966,9.393,0.7,10.792
	c-0.433,2.465-1.316,4.813-2.648,7.045c-0.899,1.465-2.115,3.048-3.647,4.747c-1.599,1.699-2.415,3.896-2.448,6.595
	c-0.3,11.726,0.5,22.851,2.398,33.376c1.465,8.027,3.231,14.271,5.296,18.735c0.899,1.999,2.382,3.548,4.447,4.646
	c2.132,1.166,4.33,1.55,6.595,1.149c4.035-0.704,7.671-1.3,10.914-1.788c-0.349,0.445-0.704,0.915-1.071,1.438l-2.275,3.262
	c-1.965,0.231-4.435,1.784-7.418,4.682c-3.598,3.465-4.963,6.18-4.097,8.145c0.666,1.532,3.297,2.115,7.894,1.748
	c1.727-0.139,3.179-0.355,4.361-0.651c1.261,0.415,2.751,0.993,4.486,1.745c-1.107,2.381-1.323,4.256-0.604,5.602
	c0.732,1.433,3.78,1.6,9.143,0.5c4.891-1.003,8.002-2.299,9.374-3.884c3.705-0.134,7.619-0.546,11.76-1.263
	c4.683-0.809,8.077-1.806,10.218-2.988c0.659,0.681,1.317,1.374,1.973,2.09c1.832,1.965,4.88,3.247,9.143,3.847l16.331,0.6
	c2.625,0.837,4.997,1.229,7.102,1.149c4.264-0.167,7.245-0.85,8.943-2.049c3.764-2.531,6.246-5.096,7.445-7.694
	c0.677-1.5,1.753-3.181,3.184-5.02c0.527,2.274,1.757,4.514,3.71,6.718c2.196,2.527,4.597,4.135,7.2,4.842
	c-0.017,0.235-0.042,0.468-0.055,0.705c-0.167,2.531-0.533,5.596-1.1,9.192c-0.288,1.88-0.567,3.454-0.837,4.731
	c-0.003,0.006-0.008,0.011-0.012,0.016c-2.798,4.297-4.497,7.678-5.096,10.143c-0.9,3.75-0.013,6.941,2.628,9.584
	c-0.317,1.649-0.441,3.426-0.33,5.354c0.2,3.198,1.049,4.963,2.548,5.296c2.365,0.5,5.213-0.267,8.544-2.299
	c1.68-1.021,3.046-2.094,4.114-3.215c4.232,0.394,9.246,0.125,15.029-0.794c0.386,1.377,1.062,2.861,2.041,4.459
	c1.898,3.064,3.664,4.563,5.296,4.497c1.699-0.066,3.614-1.6,5.746-4.597c1.998-2.798,3.197-5.347,3.598-7.645
	c0.073-0.368,0.095-0.763,0.086-1.172c2.099-1.061,4.137-2.358,6.109-3.925c2.064-1.632,3.563-3.113,4.496-4.446
	c0.666-0.966,1.066-2.564,1.199-4.796v-5.246c0-1.1-0.35-1.916-1.049-2.449c-0.09-0.068-0.194-0.107-0.291-0.161
	c0.071-0.871,0.128-1.748,0.173-2.629c0.63,0.212,1.269,0.293,1.917,0.243c1.165-0.101,2.164-0.65,2.997-1.649
	c7.735-9.343,17.396-17.42,28.966-24.239l5.408,4.004c3.631,2.564,5.83,3.947,6.596,4.147l8.145-0.351
	c1.135,0,2.305-0.403,3.506-1.172c-0.787,2.144-1.262,4.513-1.408,7.118c-0.148,2.285-0.057,4.161,0.275,5.632
	c-0.505,1.631-0.842,3.33-0.975,5.11c-0.2,2.897,0.283,4.729,1.449,5.495c1.299,0.867,3.73,0.384,7.294-1.448
	c2.665-1.371,4.525-2.692,5.603-3.963l7.938,0.665c2.95,0.117,5.485,0.125,7.652,0.034c0.379,1.354,1.087,2.675,2.141,3.963
	c1.398,1.732,2.664,2.599,3.797,2.599c1.166,0,2.798-1.1,4.896-3.298c1.567-1.617,2.604-3.004,3.116-4.161
	c8.033-2.447,12.863-4.94,14.471-7.48c1.013-1.551,1.182-5.56,0.51-12.016C304.143,209.873,304.264,209.655,304.339,209.394z"/>
</svg>
