<?xml version="1.0" encoding="utf-8"?>
<!-- Generator: Adobe Illustrator 16.0.0, SVG Export Plug-In . SVG Version: 6.00 Build 0)  -->
<!DOCTYPE svg PUBLIC "-//W3C//DTD SVG 1.1//EN" "http://www.w3.org/Graphics/SVG/1.1/DTD/svg11.dtd">
<svg version="1.1" id="图层_1" xmlns="http://www.w3.org/2000/svg" xmlns:xlink="http://www.w3.org/1999/xlink" x="0px" y="0px"
	 width="261px" height="288px" viewBox="0 0 261 288" enable-background="new 0 0 261 288" xml:space="preserve">
<path d="M252.555,77.888c5.197-1,7.745-3.548,7.646-7.646c-0.101-4.031-2.549-6.663-7.346-7.896
	c-5.964-1.532-14.309-4.38-25.036-8.545c3.165,0.167,6.297-0.233,9.395-1.199c2.865-0.866,5.098-2.016,6.697-3.448
	c4.863-4.331,6.662-7.812,5.396-10.444c-1.133-2.432-4.265-3.464-9.395-3.098c-6.563,0.5-14.359,0.133-23.387-1.1
	c-11.66-1.565-20.372-4.214-26.135-7.945c-1.434-0.899-4.381-3.231-8.846-6.996c-4.43-3.698-8.328-6.596-11.693-8.695
	c-11.193-7.063-23.902-10.594-38.127-10.594c-14.459,0-27.651,3.681-39.578,11.043c-3.464,2.132-7.529,5.064-12.193,8.795
	c-4.431,3.598-7.362,5.813-8.795,6.646c-5.963,3.498-14.875,6.046-26.734,7.646c-9.461,1.266-17.357,1.666-23.687,1.199
	c-4.664-0.333-7.563,0.916-8.695,3.748c-1.099,2.798,0.017,5.68,3.348,8.645c2.999,2.631,6.713,4.497,11.144,5.597l5.697,0.85
	c-10.76,3.831-18.589,6.379-23.486,7.646c-5.33,1.366-8.229,3.981-8.695,7.845c-0.467,3.931,2.015,6.563,7.445,7.896
	c5.064,1.266,10.927,1.266,17.59,0c-1.666,0.8-3.731,2.082-6.197,3.848c-2.632,1.866-4.697,3.582-6.196,5.147
	c-1.899,1.999-2.932,4.248-3.098,6.746c-0.167,2.398,0.5,4.314,1.999,5.747c1.633,1.532,3.682,2.382,6.146,2.548
	c2.166,0.133,4.314-0.266,6.446-1.199l-3.148,5.647c-2.532,4.831-4.847,9.861-6.946,15.091
	c-6.729,16.724-10.094,32.281-10.094,46.673c0,36.479,12.942,63.98,38.828,82.503c2.935,2.097,6.002,4.044,9.183,5.863
	c-6.271,2.646-11.525,5.636-15.729,8.978c-6.796,5.397-8.528,10.277-5.197,14.643c3.865,5.097,13.442,5.946,28.734,2.548
	c6.13-1.366,12.076-3.231,17.839-5.597c5.543-2.264,9.625-4.462,12.262-6.595c12.318,2.582,25.757,3.896,40.358,3.896
	c14.738,0,28.236-1.249,40.532-3.711c1.052,0.813,2.228,1.617,3.543,2.411c8.229,4.998,18.289,8.496,30.183,10.494
	c12.992,2.166,21.371,1.017,25.136-3.447c3.531-4.231,1.849-9.063-5.047-14.492c-4.177-3.285-9.325-6.217-15.43-8.802
	c3.561-2.027,6.97-4.209,10.182-6.589c24.652-18.223,36.979-45.574,36.979-82.053c0-14.426-3.165-29.934-9.495-46.524
	c-1.965-5.164-4.147-10.144-6.546-14.941l-2.948-5.597c2.266,0.933,4.431,1.183,6.496,0.75c2.032-0.433,3.798-1.499,5.297-3.198
	c1.266-1.466,1.783-3.431,1.549-5.896c-0.266-2.532-1.266-4.631-2.998-6.296l-5.547-4.397l-6.796-4.647l9.045,1.049L252.555,77.888z
	"/>
</svg>
