<?xml version="1.0" encoding="utf-8"?>
<!-- Generator: Adobe Illustrator 16.0.0, SVG Export Plug-In . SVG Version: 6.00 Build 0)  -->
<!DOCTYPE svg PUBLIC "-//W3C//DTD SVG 1.1//EN" "http://www.w3.org/Graphics/SVG/1.1/DTD/svg11.dtd">
<svg version="1.1" id="图层_1" xmlns="http://www.w3.org/2000/svg" xmlns:xlink="http://www.w3.org/1999/xlink" x="0px" y="0px"
	 width="292px" height="285px" viewBox="0 0 292 285" enable-background="new 0 0 292 285" xml:space="preserve">
<path d="M257.93,193.666c0.461-0.648,0.883-1.304,1.268-1.965c3.163,0.489,6.242,0.57,9.23,0.215
	c10.133-1.199,16.432-6.799,18.897-16.797c2.333-9.498,1.216-17.963-3.35-25.396c-0.209-0.341-0.43-0.672-0.651-1.004
	c0.017-0.016,0.035-0.03,0.052-0.046c2.166-2.066,2.849-3.949,2.05-5.648c-0.7-1.6-3.1-2.284-7.199-2.05
	c-0.644,0.038-1.275,0.101-1.901,0.175c-0.858-0.681-1.76-1.331-2.702-1.949c1.115-5.988,0.105-11.43-3.045-16.323
	c-1.72-2.651-3.92-4.858-6.576-6.642c-0.757-1.277-1.613-2.543-2.587-3.795c1.357-2.672,2.284-5.364,2.771-8.075
	c0.23-0.062,0.463-0.118,0.693-0.184c3.467-0.966,6.633-2.583,9.498-4.849c3.133-2.466,4.434-4.649,3.9-6.549
	c-0.134-0.7-0.567-1.25-1.301-1.65c-1.433-0.767-3.832-1-7.198-0.7c-2.533,0.2-4.517,0.533-5.949,1
	c-0.252,0.071-0.515,0.121-0.771,0.184c-0.76-1.973-1.803-3.88-3.132-5.721c0.778-1.575,1.577-2.963,2.403-4.111l1.85-2.35
	c4.332-5.299,5.665-8.915,3.998-10.848c-0.633-0.767-1.682-1.183-3.148-1.25c-1.934,0-4.166,0.6-6.699,1.8
	c-2.633,1.267-4.716,2.8-6.249,4.599c-0.818,0.945-1.59,1.891-2.319,2.837c-1.31-0.773-2.666-1.458-4.08-2.037
	c-4.832-1.967-9.831-2.616-14.996-1.95c-0.703,0.092-1.396,0.212-2.082,0.35c-2.563-1.133-5.78-2.283-9.646-3.452
	c0.609-1.593,1.241-3.033,1.895-4.321c0.839-0.114,1.682-0.212,2.535-0.276c6.665-0.5,12.114,0.35,16.347,2.549
	c4.032,2.133,7.615,3.167,10.748,3.1c2.767-0.033,4.666-0.9,5.699-2.6c0.999-1.667,0.8-3.633-0.601-5.899
	c-1.499-2.5-4.182-4.766-8.048-6.799c-1.725-0.912-3.485-1.705-5.279-2.388c2.847-0.436,4.898-1.235,6.129-2.411
	c1.399-1.333,1.583-2.799,0.55-4.399c-1-1.633-2.899-2.866-5.699-3.699c-3.1-0.967-6.599-1.167-10.498-0.6
	c-5.799,0.833-10.898,3-15.297,6.499c-0.991,0.786-1.924,1.655-2.828,2.563c-1.062,0.203-2.11,0.442-3.148,0.706
	c2.436-1.866,4.499-3.97,6.176-6.318c4.033-5.699,5.583-11.631,4.65-17.797c-0.834-5.465-3.15-9.448-6.949-11.948
	c-1-0.633-1.916-0.85-2.75-0.65c-1.166,0.233-1.883,0.867-2.149,1.9c-0.167,0.633-0.149,1.733,0.05,3.299
	c0.767,6.166-0.833,11.515-4.799,16.047c-2.894,3.299-6.598,5.63-11.085,7.026c-0.976-2.967-2.046-5.393-3.212-7.276
	c-1.77-2.843-3.952-5.192-6.535-7.062c1.484-4.763,3.473-8.535,5.984-11.285c3.232-3.5,7.549-5.632,12.947-6.399
	c5.566-0.8,7.982-2.466,7.25-4.999c-0.567-1.866-1.884-3.333-3.949-4.399c-2.834-1.5-6.799-1.983-11.898-1.45
	c-5.799,0.6-10.998,3.2-15.598,7.799c-4.073,4.048-7.164,9.252-9.299,15.583c-0.101-0.01-0.197-0.025-0.299-0.035
	c-8.1-0.733-14.648,1.133-19.646,5.599c-3.532,3.189-5.924,7.451-7.188,12.771c-3.379-10.298-8.71-17.894-16.009-22.77
	c-7.199-4.833-14.614-6.199-22.246-4.099c-7.565,2.1-12.648,6.799-15.248,14.098c-0.793,2.26-1.253,4.613-1.403,7.054
	c-7.436-1.01-15.217,0.104-23.343,3.344c-3.299,1.333-6.032,3.316-8.199,5.949c-2.199,2.633-2.966,4.899-2.299,6.799
	c0.767,2.133,2.283,3.416,4.549,3.849c2.166,0.433,4.916,0.066,8.249-1.1c2.966-1.056,5.852-1.8,8.663-2.25
	c-0.204,0.637-0.4,1.279-0.564,1.951c-0.465,1.878-0.728,3.804-0.831,5.766c-2.567-0.323-5.157-0.297-7.768,0.083
	c-3.472,0.515-6.568,1.604-9.304,3.246c-0.262-0.316-0.521-0.633-0.794-0.946c-2.633-3.066-5.833-5.016-9.599-5.849
	c-3.433-0.767-5.749-0.434-6.949,1c-1.133,1.3-1.3,3.266-0.5,5.899c0.9,3,2.85,5.533,5.849,7.599
	c0.777,0.532,1.586,1.57,2.426,3.106c-2.171,4.693-2.966,10.139-2.376,16.34c0.325,3.189,1.024,6.462,2.081,9.816
	c-0.865,1.046-1.66,2.095-2.382,3.147c-7.374,4.088-11.313,10.46-11.796,19.131c-0.135,2.511,0.034,4.934,0.49,7.274
	c-2.313-1.302-4.801-2.562-7.489-3.775c-3.399-1.566-7.532-2.183-12.397-1.85c-4.899,0.333-7.815,1.45-8.749,3.35
	c-0.833,1.7-0.4,3.449,1.3,5.249c2.266,2.399,6.549,4.433,12.848,6.099c4.125,1.088,7.679,2.72,10.681,4.877
	c-0.396,2.476-0.514,4.998-0.333,7.57c0.014,0.215,0.048,0.416,0.066,0.629c-1.277,1.009-2.488,2.107-3.615,3.32
	c-2.633,2.833-4.516,6.683-5.649,11.549c-1.133,4.766-0.967,7.932,0.5,9.498c1,1.1,2.366,1.266,4.099,0.5
	c1.933-0.867,4.016-2.783,6.249-5.75c1.196-1.604,2.596-3.063,4.186-4.387c0.477,0.564,0.979,1.111,1.513,1.638
	c1.472,1.44,3.073,2.637,4.801,3.591c0.269,2.394,0.633,4.384,1.098,5.957c0.068,0.241,0.151,0.474,0.225,0.712
	c-9.055,0.54-16.378,3.052-21.971,7.537c-2.5,2.033-4.349,4.249-5.549,6.649c-1.1,2.199-1.467,4.148-1.1,5.849
	c0.201,0.848,0.524,1.467,0.948,1.896c-0.381-0.16-0.76-0.311-1.147-0.496c-8.332-3.932-12.964-3.532-13.897,1.2
	c-0.733,3.599,0.683,6.999,4.249,10.198s8.099,5.148,13.598,5.849c6.099,0.8,11.915-0.267,17.447-3.199
	c3.687-1.947,6.985-4.645,9.92-8.04c0.308,0.552,0.633,1.1,0.978,1.641c1.363,2.1,2.936,3.988,4.704,5.683
	c-0.581,0.366-1.152,0.749-1.705,1.167c-3.266,2.466-5.533,5.449-6.799,8.948c-2.133,5.766-2.033,12.481,0.3,20.146
	c2.266,7.599,6.399,15.048,12.398,22.346c9.231,11.265,19.53,17.131,30.895,17.597c5.099,0.201,9.615-0.916,13.547-3.35
	c4.066-2.499,7.032-6.165,8.898-10.998l4.1-11.747c1.259-3.285,2.416-6.233,3.477-8.869c0.365,0.966,0.953,1.708,1.772,2.22
	c2.433,1.5,5.232,1.133,8.398-1.1c3.1-2.166,5.632-5.416,7.599-9.748c1.716-3.807,2.587-7.68,2.642-11.617
	c1.899-0.145,3.861-0.464,5.891-0.97c0.977,0.502,1.946,0.914,2.911,1.264c0.589,4.773,0.275,10.762-0.945,17.972
	c-1.5,9.266-0.083,14.298,4.25,15.098c1.633,0.3,3.482-0.85,5.549-3.449c2.232-2.8,3.682-6.199,4.349-10.198
	c0.142-0.841,0.271-1.669,0.39-2.488c1.499,3.824,3.479,7.39,5.959,10.687c6.232,8.199,13.615,12.298,22.146,12.298
	c8.565,0,15.897-3.999,21.996-11.997c6.199-8.133,9.299-18.047,9.299-29.746c0-0.262-0.01-0.519-0.013-0.779
	c1.445,0.098,2.93,0.083,4.462-0.07c3.75-0.38,7.061-1.326,9.964-2.8c4.579,3.585,9.966,5.399,16.181,5.399
	c7.999,0,13.582-1.1,16.748-3.299c2.666-1.833,3.199-3.866,1.6-6.1c-0.667-0.966-2.1-1.649-4.3-2.049l-6.849-0.551
	c-5.255-0.275-9.604-1.585-13.074-3.901c0.597-1.072,1.196-2.243,1.801-3.514c6.876,2.763,14.947,3.887,24.221,3.366
	c5.433-0.3,9.732-1.75,12.898-4.35c2.766-2.232,4.016-4.565,3.749-6.998c-0.167-1.434-1.499-2.383-3.999-2.85
	c-2.767-0.533-7.166-0.533-13.197,0c-5.801,0.505-10.935,0.183-15.415-0.951C255.023,197.08,256.513,195.668,257.93,193.666z
	 M270.328,158.122c2.166,4.166,2.699,8.532,1.6,13.098c-0.646,2.646-2.378,4.308-5.195,4.987c-0.479-0.326-0.986-0.654-1.553-0.988
	c-1.685-0.977-3.206-1.743-4.567-2.303c-0.622-2.28-1.32-4.452-2.097-6.512c0.022-0.028,0.041-0.056,0.064-0.084
	c3.306-4.042,6.939-7.263,10.889-9.694C269.775,157.113,270.063,157.611,270.328,158.122z M88.71,62.589
	c-0.167-2.899,0.9-5.782,3.199-8.648c0.035-0.044,0.076-0.08,0.112-0.123c0.5,1.111,1.04,2.233,1.638,3.372l3.149,6.199
	c0.836,1.953,1.327,3.868,1.51,5.75c-2.837-0.376-5.796-1.332-8.875-2.862C89.005,64.708,88.759,63.477,88.71,62.589z
	 M241.11,103.921c0.198,1.344,0.493,2.68,0.887,4.009c-0.73-0.85-1.485-1.626-2.267-2.326c0.305-0.602,0.586-1.217,0.846-1.842
	C240.754,103.814,240.933,103.87,241.11,103.921z M80.634,87.643c0.081,2.21-0.357,4.169-1.302,5.88
	c-0.832,0.333-1.635,0.693-2.425,1.065C77.355,92.023,78.595,89.708,80.634,87.643z M55.198,117.152
	c-0.184,0.06-0.361,0.124-0.543,0.185c0.166-0.081,0.339-0.158,0.513-0.236C55.178,117.118,55.188,117.135,55.198,117.152z
	 M175.09,47.241c1.08-1.017,2.088-2.08,3.004-3.199c0.154-0.188,0.295-0.382,0.444-0.572c0.455,0.706,0.885,1.527,1.292,2.451
	C178.147,46.318,176.575,46.761,175.09,47.241z M107.057,37.243c-0.771-0.144-1.526-0.259-2.274-0.361
	c0.026-0.113,0.045-0.225,0.075-0.339c0.733-2.799,2.333-4.516,4.799-5.149c2.266-0.6,4.866-0.184,7.799,1.25
	c2.966,1.4,5.615,3.5,7.948,6.299c2.001,2.365,3.489,4.915,4.477,7.646C121.825,41.713,114.216,38.594,107.057,37.243z
	 M66.272,81.077c-0.386-1.61-0.874-3.193-1.463-4.749c2.752-1.779,5.421-2.452,8.003-1.991c0.022,0.004,0.053,0.013,0.076,0.017
	C70.221,76.395,68.023,78.639,66.272,81.077z M63.606,200.313c2.656,1.776,5.144,3.874,7.47,6.283
	c-1.991-0.297-4.256-1.259-6.813-2.932c-2.597-1.699-4.458-3.506-5.632-5.412C60.117,199.128,61.78,199.81,63.606,200.313z
	 M215.902,209.48c2.619,1.521,5.295,2.489,8.027,2.917c-0.665,0.132-1.355,0.243-2.094,0.315c-1.797,0.188-3.502,0-5.115-0.562
	C216.471,211.249,216.199,210.357,215.902,209.48z M19.172,201.164l3.799-2.398c4.222-2.831,8.696-4.587,13.423-5.271
	c-5.219,7.949-11.61,10.681-19.171,8.202C17.785,201.672,18.427,201.507,19.172,201.164z"/>
</svg>
