<?xml version="1.0" encoding="utf-8"?>
<!-- Generator: Adobe Illustrator 16.0.0, SVG Export Plug-In . SVG Version: 6.00 Build 0)  -->
<!DOCTYPE svg PUBLIC "-//W3C//DTD SVG 1.1//EN" "http://www.w3.org/Graphics/SVG/1.1/DTD/svg11.dtd">
<svg version="1.1" id="图层_1" xmlns="http://www.w3.org/2000/svg" xmlns:xlink="http://www.w3.org/1999/xlink" x="0px" y="0px"
	 width="415px" height="430px" viewBox="0 0 415 430" enable-background="new 0 0 415 430" xml:space="preserve">
<path d="M408.703,248.954c-1.266-4.764-2.481-7.212-3.647-7.345c-1.199-0.167-2.998,1.915-5.396,6.246
	c-1.939,3.4-3.771,6.297-5.497,8.702c-2.96-2.113-5.163-3.47-6.596-4.056c-1.166-0.467-2.532-0.133-4.098,1
	c-1.499,1.032-2.582,2.281-3.248,3.748c-0.566,1.299-0.767,4.313-0.6,9.044c0.093,2.636,0.274,4.795,0.54,6.513
	c-2.358,2.379-4.677,4.529-6.956,6.451c-0.063-0.144-0.114-0.276-0.18-0.422c-2.032-4.43-3.881-7.313-5.547-8.645
	c-0.966-0.766-2.599-1.249-4.897-1.449l-5.946,0.45c-2.565,0.633-4.098,1.549-4.597,2.748l-3.498,10.144
	c-1.117,3.448-2.009,6.369-2.688,8.791l-1.261-0.246c-4.83-1.299-9.544-4.164-14.141-8.595c-2.708-2.621-4.791-5.092-6.253-7.415
	c0-0.033,0-0.066,0-0.099l2.654-3.479c3.132-3.998,5.363-6.662,6.696-7.995c1.565-1.565,2.582-4.864,3.048-9.894
	c0.233-2.332,0.351-6.113,0.351-11.344c0-2.599-1.383-5.63-4.148-9.095c-2.598-3.265-5.496-5.813-8.694-7.646
	c-0.774-0.444-1.459-0.882-2.098-1.316c-0.497-4.92-1.086-9.567-1.769-13.936c1.528-2.067,2.62-3.65,3.267-4.735
	c1.499-2.532,2.632-5.347,3.398-8.445c0.6-2.398,0.083-4.963-1.55-7.695c-1.347-2.265-3.362-4.487-6.03-6.667
	c2.046-2.292,4.302-4.6,6.78-6.924c2.632-2.465,6.413-5.747,11.343-9.844l10.644-9.145c3.564-3.398,5.979-6.396,7.246-8.995
	l4.896-12.243c2.766-6.196,4.964-10.594,6.597-13.192c2.399-3.865,5.435-7.419,9.088-10.671c2.294-0.098,4.975-0.849,8.052-2.271
	c4.33-2.032,7.995-4.797,10.993-8.295c2.332-2.665,3.432-6.196,3.298-10.594c-0.033-2.532-0.749-4.747-2.148-6.646
	c-1.264-1.715-3.015-2.985-5.201-3.858c-1.549-3.958-4.15-7.804-7.801-11.538c2-3.439,3.044-6.34,3.107-8.689
	c0.101-3.864-0.899-7.362-2.998-10.494c-2.398-3.598-6.029-6.263-10.894-7.995c-3.498-1.233-6.695-1.583-9.594-1.05
	c-0.36,0.066-0.71,0.146-1.051,0.238c-0.639-0.266-1.303-0.483-1.998-0.638c-5.296-1.266-12.275,1.099-20.937,7.096
	c-6.463-1.333-12.726-0.033-18.789,3.897c-6.063,3.898-10.211,9.328-12.442,16.29c-1.699,5.264-3.531,9.328-5.497,12.193
	c-2.898,4.127-7.774,8.919-14.576,14.358c-0.487-0.563-0.941-1.019-1.363-1.366c-1.556-1.378-4.895-0.556-9.996,2.441l2.3-2.841
	c1.499-2.198,1.083-5.047-1.249-8.545c-1.218-1.798-3.246-4.102-6.08-6.91c0.834-0.159,1.594-0.361,2.232-0.635
	c2.799-1.166,5.131-2.865,6.996-5.097c1.898-2.265,3.547-5.33,4.947-9.194c1.365,0.066,3.047-0.333,5.047-1.2
	c2.798-1.232,5.446-3.231,7.945-5.996c5.896-6.596,9.96-11.41,12.192-14.441c3.73-5.063,5.263-8.661,4.597-10.793
	c-0.399-1.366-1.315-2.149-2.748-2.349c-5.93-0.933-15.957,0.35-30.082,3.848c-11.484,2.838-19.664,5.79-24.573,8.852
	c-4.101-10.471-11.148-18.686-21.149-24.643c-9.928-5.93-21.337-8.895-34.229-8.895c-18.1,0-33.82,4.929-47.174,14.76
	c-5.772-5.197-13.235-9.739-22.434-13.611c-10.561-4.464-20.105-6.58-28.633-6.346c-2.399,0.066-3.831,0.633-4.297,1.699
	c-0.333,0.833-0.083,1.816,0.75,2.948l3.748,4.248l5.597,6.196c1.266,1.532,2.515,3.464,3.748,5.796l3.148,6.496
	c2.898,6.33,5.413,10.744,7.545,13.242c2.888,3.312,6.408,5.435,10.54,6.407c-0.829,3.312-1.06,6.542-0.646,9.683
	c0.162,1.212,0.778,2.614,1.833,4.197c-0.756,2.048-2.399,5.528-4.932,10.444c-1.281,2.543-2.299,4.655-3.067,6.358
	c-3.51-1.336-6.174-2.01-7.976-2.01c-0.904,0.01-1.716,0.175-2.456,0.461c-1.874-1.677-4.249-3.413-7.139-5.209l-8.895-5.147
	l-6.596-3.647c-2.299-1.333-3.864-2.398-4.697-3.198c-5.563-5.53-13.358-10.843-23.386-15.94
	c-11.821-6.034-21.162-8.132-28.033-6.315l-2.149-0.481l-6.046,0.25c-1.932,0.533-3.665,1.366-5.197,2.499
	c-3.564,2.665-6.213,5.014-7.945,7.045c-3.198,3.731-4.431,7.196-3.698,10.394l0.282,1.222c-2.954,0.275-5.183,0.849-6.678,1.727
	c-1.766,1-3.331,2.815-4.697,5.447C0.616,69.013-0.25,74.01,0.05,80.106c0.3,5.697,1.366,9.611,3.198,11.743
	c0.833,0.933,1.749,1.216,2.748,0.849c1.658-0.536,3.588-1.976,5.782-4.298c3.627,1.769,6.139,3.386,7.51,4.848
	c2.365,2.532,4.914,7.262,7.646,14.191c1.433,3.665,3.897,6.779,7.396,9.345c1.999,1.466,5.396,3.348,10.194,5.646l7.945,3.698
	c2.665,1.466,4.68,3.265,6.046,5.396c1.132,1.799,2.282,4.514,3.448,8.145l2.398,7.896c1.199,3.765,2.515,6.679,3.948,8.745
	c1.766,2.632,4.581,5.43,8.445,8.395c5.896,4.531,11.393,10.311,16.49,17.34c3.647,5.015,6.053,9.07,7.239,12.185
	c-4.237,12.725-7.104,27.264-8.588,43.632c-1.117,0.653-2.256,2.122-3.417,4.379c-1.741,0.753-4.258,2.151-7.577,4.216
	c-4.797,2.965-9.527,6.279-14.191,9.944c-12.826,10.027-20.654,19.021-23.486,26.983c-3.864,0.933-6.596,2.099-8.195,3.497
	c-1.866,1.633-3.348,4.498-4.447,8.596c-0.633,2.432-1.316,5.813-2.049,10.144c-1,6.097-1.499,11.21-1.499,15.341
	c0,2.132,0.316,4.031,0.949,5.697c0.566,1.465,1.316,2.598,2.249,3.397c5.33,4.645,8.725,7.456,10.234,8.483
	c-2.989,1.849-6.794,5.105-11.433,9.806c-5.73,5.796-8.262,9.743-7.595,11.843c0.466,1.466,2.565,2.715,6.296,3.748
	c3.598,0.994,7.606,1.385,12.025,1.172c-0.177,1.268-0.322,2.641-0.432,4.125c-0.6,7.828,0.35,12.825,2.848,14.99
	c2.332,2.032,5.613,2.449,9.844,1.25c7.096-1.966,13.792-4.515,20.088-7.646c3.968-1.999,8.257-4.533,12.842-7.559
	c6.256,0.392,11.684,0.493,16.275,0.301c3.903,4.506,10.804,6.927,20.703,7.258l10.344-0.749c3.032-0.566,4.781-1.315,5.247-2.249
	c1.333-2.531-0.034-6.896-4.098-13.092c-0.563-0.861-1.113-1.658-1.658-2.421c0.791-1.574,1.322-3.447,1.591-5.623
	c6.252,7.886,18.719,15.133,37.444,21.735c20.018,7.031,41.246,11.271,63.681,12.736c0.276,0.326,0.552,0.656,0.831,0.956
	c0.17,0.187,0.352,0.362,0.533,0.538c1.113,2.295,2.217,4.219,3.31,5.769c-2.655,2.199-5.335,5.16-8.041,8.884
	c-3.531,4.831-5.047,8.445-4.547,10.844c0.466,2.432,4.063,3.564,10.794,3.397c7.146-0.163,16.193-1.854,27.114-5.056
	c1.359,0.553,2.653,0.983,3.885,1.299c1.979,2.671,7.664,5.688,17.071,9.054c10.227,3.665,17.84,5.497,22.836,5.497
	c3.731,0,7.896-3.248,12.493-9.744c2.528-3.567,4.149-6.77,4.883-9.614l16.903-1.279c4.498-0.899,7.096-2.299,7.796-4.197
	c0.666-1.766-1.649-5.43-6.946-10.993l-7.06-6.76c1.11-2.838,2.119-5.732,3.037-8.675c3.433-1.093,6.656-2.758,9.669-5.003
	c1.215-0.909,2.315-2.229,3.305-3.938c8.315-1.395,16.441-5.123,24.379-11.204c8.861-6.796,16.341-15.624,22.437-26.483
	c6.463-11.527,10.61-24.069,12.442-37.628C413.601,279.003,412.635,264.045,408.703,248.954z"/>
</svg>
