<?xml version="1.0" encoding="utf-8"?>
<!-- Generator: Adobe Illustrator 16.0.0, SVG Export Plug-In . SVG Version: 6.00 Build 0)  -->
<!DOCTYPE svg PUBLIC "-//W3C//DTD SVG 1.1//EN" "http://www.w3.org/Graphics/SVG/1.1/DTD/svg11.dtd">
<svg version="1.1" id="图层_1" xmlns="http://www.w3.org/2000/svg" xmlns:xlink="http://www.w3.org/1999/xlink" x="0px" y="0px"
	 width="145px" height="162px" viewBox="0 0 145 162" enable-background="new 0 0 145 162" xml:space="preserve">
<path d="M144,52.65c-0.166-4.133-1.117-7.5-2.85-10.1c-2.4-3.5-5.9-5.35-10.5-5.55c-2.268-0.1-4.734,0.533-7.4,1.9
	c-1.274,0.645-2.542,1.433-3.802,2.353L101.15,37.15c-0.634-0.1-1.15-0.367-1.551-0.8c-0.211-0.226-0.363-0.471-0.472-0.73
	c-0.022-0.389-0.051-0.776-0.085-1.161c1.121-1.727,5.602-5.992,13.457-12.809c4.066-3.5,8.017-6.833,11.85-10
	c1.434-1.433,1.783-2.85,1.051-4.25c-1.033-1.933-2.384-2.433-4.051-1.5L95.2,19.95c-0.212,0.104-0.391,0.183-0.585,0.274
	c-1.826-3.189-4.197-6.181-7.115-8.974c-7.7-7.4-16.783-11.1-27.25-11.1C49.817,0.15,40.8,3.9,33.2,11.4
	c-3.226,3.156-5.765,6.569-7.633,10.232c-3.189-1.059-7.508-3.034-12.967-5.932l-4.45-2.35c-1.133-0.667-2.15-0.5-3.05,0.5
	c-0.767,0.833-1.117,1.767-1.05,2.8c0.034,0.333,0.167,0.733,0.4,1.2l0.7,0.95c8.604,7.195,14.205,12.109,16.829,14.761
	c-0.098,0.831-0.176,1.668-0.22,2.519c-3.013,0.958-8.445,1.799-16.309,2.521l-3,0.35c-1.667,0.066-2.467,1.017-2.4,2.85
	c0.067,1.8,0.85,2.8,2.35,3l8.4,1.8l9.1,1.85c1.264,0.285,2.33,0.554,3.228,0.812c0.287,1.038,0.62,2.05,0.993,3.041
	c-2.659,0.572-5.557,0.882-8.721,0.897c-1.667-1.067-3.367-1.767-5.1-2.1c-2.1-0.434-3.983-0.283-5.65,0.45
	c-1.767,0.767-3,2.15-3.7,4.15c-1.1,3.066-0.65,7.133,1.35,12.2c0.9,2.333,2.25,4.3,4.05,5.9c1.733,1.567,3.6,2.567,5.6,3
	c1.533,0.333,3.117,0.2,4.75-0.4c1.533-0.566,2.95-1.483,4.25-2.75c0.767-1.267,4.633-2.9,11.6-4.9
	c1.18-0.335,2.291-0.619,3.37-0.878c6.119,4.637,13.433,7.148,21.948,7.524c0.334,1.973,0.545,4.539,0.632,7.703v8.4
	c0,9.533,2.2,18.5,6.6,26.9c4.527,8.735,10.354,14.505,17.472,17.324c-0.762,2.154-1.115,4.426-1.022,6.825
	c0.267,5.833,2.4,10.45,6.4,13.851c4.267,3.633,10.05,5.35,17.35,5.149c8.634-0.267,15.583-3.483,20.851-9.649
	c4.732-5.533,7.416-12.45,8.05-20.75c0.899-11.834-1.65-22.434-7.65-31.801c-4.103-6.407-9.536-11.838-16.288-16.301
	c16.688-0.642,27.202-6.489,31.538-17.549C143.467,61.267,144.2,56.983,144,52.65z M98,52.15c-0.166-0.2-0.217-0.5-0.15-0.9
	c0.066-0.467,0.301-0.767,0.7-0.9l12.328-0.543c-2.075,2.639-4.065,5.594-5.96,8.898L98,52.15z M89.921,63.062
	c2.387,0.873,5.827,2.5,10.322,4.88c-1.379,3.079-2.382,5.746-2.976,7.963L92.85,73.6c-3.325-1.913-6.104-3.788-8.339-5.623
	c1.353-1.01,2.652-2.113,3.89-3.327C88.929,64.131,89.432,63.6,89.921,63.062z"/>
</svg>
