<?xml version="1.0" encoding="utf-8"?>
<!-- Generator: Adobe Illustrator 16.0.0, SVG Export Plug-In . SVG Version: 6.00 Build 0)  -->
<!DOCTYPE svg PUBLIC "-//W3C//DTD SVG 1.1//EN" "http://www.w3.org/Graphics/SVG/1.1/DTD/svg11.dtd">
<svg version="1.1" id="图层_1" xmlns="http://www.w3.org/2000/svg" xmlns:xlink="http://www.w3.org/1999/xlink" x="0px" y="0px"
	 width="289px" height="294px" viewBox="0 0 289 294" enable-background="new 0 0 289 294" xml:space="preserve">
<path d="M285.8,110.1c-0.966-0.6-3.384-0.117-7.25,1.45c-5.366,2.233-11.333,4.55-17.899,6.95c-9.434,3.467-16.95,5.933-22.551,7.4
	c-0.866,0.233-1.449-0.033-1.75-0.8c-0.227-0.539-0.235-1.194-0.052-1.951c2.009-0.315,3.131-0.864,3.353-1.649
	c0.191-0.744-0.478-1.664-1.979-2.754c3.387-10.518,6.08-19.808,8.087-27.877l0.893-0.619c1.566-1.133,3.816-2.633,6.75-4.5
	l5.149-3.5c4.667-3.533,3.434-5.117-3.7-4.75c-1.979,0.109-4.116,0.333-6.396,0.66c0.675-4.37,0.896-7.716,0.646-10.01
	c-0.3-2.7-1.066-4.1-2.3-4.2c-1.233-0.1-2.517,1.066-3.85,3.5l-3.8,6.95l-3.775,6.401c-5.182,1.291-9.638,2.715-13.367,4.271
	c1.105-4.813,3.13-11.357,6.092-19.671c2.467-7,5.283-14.417,8.45-22.25c1.333-3.3,1.417-5.216,0.25-5.75
	c-1.167-0.533-3.1,0.383-5.8,2.75c-5.867,5.1-12.633,13.567-20.3,25.4c-1.756,2.7-3.45,5.44-5.106,8.206
	c1.802-11.412,3.819-22.252,6.057-32.506c0.666-3.1,0.5-5-0.5-5.7c-1.033-0.733-3.101-0.183-6.2,1.65c-4.4,2.6-8.366,5.167-11.9,7.7
	c-3.704,2.658-7.409,5.623-11.114,8.857c-0.369-0.234-0.747-0.58-1.136-1.057c-0.833-1.034-1.333-2.3-1.5-3.8
	c-0.433-4.066-0.399-10.633,0.101-19.7c0.5-8.5,1.217-16.367,2.149-23.6c0.434-3.233,0.116-5.067-0.95-5.5
	c-1.1-0.434-2.75,0.667-4.949,3.3c-6.101,7.2-13.601,18.133-22.5,32.8c-3.644,5.987-6.776,11.43-9.411,16.342
	c-0.84-0.241-1.703-0.997-2.589-2.292c-1.167-1.667-2.967-4.767-5.4-9.3l-5.15-9.6c-1.934-3.267-3.483-4.784-4.65-4.55
	c-1.133,0.2-1.983,2.117-2.55,5.75c-1.7,10.634-3.1,21.85-4.2,33.65c-0.104,1.117-0.201,2.195-0.292,3.254
	c-2.029-4.536-4.348-10.469-6.958-17.805c-3-8.433-5.434-16.066-7.3-22.9c-1.066-4.033-2.333-5.9-3.8-5.6
	c-1.434,0.267-2.283,2.367-2.55,6.3c-0.3,5.133,0.8,14.583,3.3,28.35c2.025,11.212,4.436,20.899,7.229,29.083
	c-3.12-2.174-6.479-3.552-10.079-4.133c-2.133-0.3-3.433-0.184-3.9,0.35c-0.567,0.667-0.067,2.05,1.5,4.15l10.25,13.15
	c3.7,4.9,6.267,8.967,7.7,12.2l-6.85-0.5c-2.034,0.066-3.117,0.533-3.25,1.4s0.75,1.733,2.65,2.6
	c2.404,1.03,4.782,2.439,7.137,4.182c-0.164,0.071-0.322,0.148-0.487,0.218c-1.571,0.662-3.172,1.226-4.802,1.706
	C99.127,111.698,89.728,98.917,80.5,83.85c-8.133-13.333-15.85-27.934-23.15-43.8c-1.567-3.433-3.15-4.95-4.75-4.55
	s-2.283,2.316-2.05,5.75c0.567,9.7,2.817,20.684,6.75,32.95c3.57,11.189,7.726,20.907,12.456,29.181
	c-3.975-0.715-12.916-3.454-26.856-8.231C28.3,90.183,16.533,85.867,7.6,82.2c-3.467-1.434-5.75-1.467-6.85-0.1
	c-1.067,1.3-0.7,3.45,1.1,6.45C7.217,97.583,16.433,107.4,29.5,118c11.354,9.146,24.284,17.783,38.77,25.918
	C65.488,146.783,60,150.21,51.8,154.2c-3.3,1.634-10.633,4.917-22,9.85c-6.4,2.8-5.983,5.2,1.25,7.2c10.8,3,27.167,3.517,49.1,1.55
	c13.857-1.243,26.083-3.106,36.697-5.579c-0.277,0.176-0.57,0.364-0.896,0.579l-2.35,1.65c-0.767,0.7-1.167,1.25-1.2,1.649
	c-0.033,0.362,0.229,1.182,0.78,2.45c-21.926,17.629-32.275,38.994-31.03,64.101c0.733,14.967,6.517,27.684,17.35,38.149
	c12.2,11.767,27.917,17.217,47.15,16.351c15-0.667,26.833-5.917,35.5-15.75c8.3-9.4,12.184-21.084,11.649-35.051
	c-0.233-5.967-2.233-11.766-6-17.399c-3.018-4.572-6.563-8.158-10.626-10.775c5.858-2.602,10.079-6.185,12.668-10.745
	c1.086-0.455,2.061-0.931,2.908-1.43c1.133-0.733,1.783-1.95,1.95-3.65c0.196-2.646-0.331-7.828-1.575-15.532
	c0.328-0.192,0.618-0.382,0.825-0.567l1.45-1.55c0.366-0.567,0.516-1.184,0.449-1.851c-0.143-1.764-0.511-4.021-1.097-6.755
	c8.088,6.471,15.69,11.815,22.797,16.005c6.601,3.867,13.284,7.018,20.05,9.45c4.134,1.534,6.617,1.684,7.45,0.45
	c0.667-1,0.2-2.783-1.399-5.35c-5.4-8.734-9.518-16.167-12.351-22.301c-0.466-1-0.566-1.833-0.3-2.5
	c0.267-0.633,0.95-1.266,2.05-1.899c9.767-5.601,19.067-12.45,27.9-20.55c9.433-8.7,17.033-17.683,22.8-26.95
	C286.35,113.283,287.033,110.833,285.8,110.1z"/>
</svg>
