<?xml version="1.0" encoding="utf-8"?>
<!-- Generator: Adobe Illustrator 16.0.0, SVG Export Plug-In . SVG Version: 6.00 Build 0)  -->
<!DOCTYPE svg PUBLIC "-//W3C//DTD SVG 1.1//EN" "http://www.w3.org/Graphics/SVG/1.1/DTD/svg11.dtd">
<svg version="1.1" id="图层_1" xmlns="http://www.w3.org/2000/svg" xmlns:xlink="http://www.w3.org/1999/xlink" x="0px" y="0px"
	 width="379px" height="323px" viewBox="0 0 379 323" enable-background="new 0 0 379 323" xml:space="preserve">
<path d="M376.502,214.213c-0.832-2.797-2.464-6.293-4.894-10.488c-0.233-0.466,0.083-1.348,0.948-2.646l1.948-2.547
	c0.766-1.199,1.065-2.248,0.898-3.146c-0.266-1.299-1.781-2.631-4.544-3.996c-0.899-0.465-4.129-1.814-9.688-4.045
	c-4.262-1.73-7.375-3.129-9.339-4.195c-2.476-1.319-4.166-2.57-5.096-3.754c1.993-4.701,3.612-9.607,4.846-14.724
	c0.953-3.952,1.629-7.913,2.082-11.882c0.861-0.535,1.468-1.102,1.813-1.701c0.799-1.365,1.481-2.93,2.047-4.695
	c0.566-1.864,0.85-3.529,0.85-4.994c0-1.065-0.217-2.181-0.649-3.346c-0.433-1.065-0.966-1.998-1.598-2.797l1.298-3.246
	c0.433-1.565,0.649-3.462,0.649-5.693c0-4.195-0.399-6.975-1.198-8.34c-0.366-0.699-1.082-1.365-2.147-1.998
	c-1.099-0.666-2.265-1.099-3.496-1.298c-0.21-0.022-0.512,0.009-0.854,0.064c-2.127-7.095-5.084-13.645-8.884-19.641
	c-1.923-3.453-4.036-6.703-6.322-9.772c2.221-4.088,5.259-10.615,9.119-19.593c5.826-13.55,9.654-23.488,11.486-29.814
	c0.299-0.899,0.366-1.432,0.199-1.598c-0.166-0.2-0.699-0.083-1.598,0.35c-2.53,1.132-9.789,5.777-21.774,13.934
	c-9.883,6.705-16.896,11.83-21.045,15.376c-1.993-1.198-4.047-2.332-6.173-3.391c-13.458-6.688-27.485-9.487-42.076-8.427
	c-3.22-2.786-5.511-8.443-6.865-16.993c-0.899-5.793-1.416-14.033-1.549-24.721l-0.1-7.441c-0.066-1.099-0.3-1.832-0.699-2.198
	c-0.467-0.399-1.582-0.533-3.346-0.399c-1.832,0.133-3.912,0.549-6.243,1.249c-13.284,3.929-26.136,10.771-38.554,20.526
	c-16.78,13.184-28.866,29.282-36.257,48.292c-0.084,0.217-0.155,0.439-0.238,0.657c-1.121-3.283-3.046-6.598-5.805-9.946
	c-4.362-5.293-8.973-7.574-13.834-6.842c-2.463,0.366-4.495,1.731-6.093,4.095c-1.132,1.698-1.964,3.779-2.497,6.243
	c-0.366,1.798-0.699,2.93-0.999,3.396c-0.466,0.766-1.298,1.182-2.497,1.249c-1.099,0.1-2.597-0.75-4.495-2.547
	c-1.398-1.332-3.263-3.413-5.593-6.242c-3.663-4.428-6.409-7.558-8.24-9.389c-3.429-3.496-6.842-6.176-10.238-8.041
	c-5.86-3.196-11.703-4.694-17.529-4.495c-5.959,0.2-10.604,2.131-13.934,5.793c-4.428,4.861-5.394,11.037-2.896,18.528
	c2.23,6.559,6.492,12.735,12.785,18.528c1.55,1.393,2.737,2.673,3.582,3.846c-14.2-8.856-29.078-13.453-44.633-13.784
	C29.797,71.199,17.079,76.16,8.389,86.414c-5.959,7.025-8.739,15.781-8.34,26.269c0.466,11.553,4.944,22.606,13.434,33.161
	c4.694,5.793,10.771,11.387,18.229,16.78c4.062,2.93,10.804,7.258,20.226,12.984c10.854,6.56,17.729,11.004,20.625,13.335
	c6.326,4.994,10.571,10.521,12.735,16.58c0.999,2.83,1.349,7.358,1.049,13.584l-1.648,18.928l-1.548,17.479
	c-0.433,6.426-0.416,11.502,0.05,15.231c0.599,4.794,2.463,9.222,5.593,13.284c3.263,4.162,7.091,6.892,11.486,8.19
	c5.027,1.432,9.988,1.481,14.882,0.149c5.061-1.398,9.123-4.012,12.186-7.84c3.962-4.928,8.64-13.751,14.033-26.469
	c3.795-8.957,6.726-15.199,8.79-18.729c1.34-2.266,2.662-4.091,3.964-5.493c1.154,0.679,1.917,1.857,2.278,3.546
	c0.399,1.765,0.15,3.879-0.749,6.342c-0.866,2.364-2.231,4.778-4.095,7.242c-8.457,11.22-13.251,22.906-14.383,35.059
	c-0.866,9.155,1.132,17.195,5.993,24.121c5.094,7.291,12.036,11.203,20.825,11.736c6.559,0.399,12.236-1.349,17.03-5.244
	c4.828-3.929,8.074-9.455,9.739-16.58c1.098-4.762,1.131-10.139,0.1-16.131c-0.4-2.297-1.731-7.707-3.996-16.23
	c-1.498-5.527-2.364-9.156-2.597-10.888c-0.366-2.82-0.087-4.901,0.817-6.268c1.042,0.724,2.159,1.448,3.378,2.173l6.292,3.745
	c3.61,2.375,6.775,4.268,9.504,5.689c3.399,9.195,7.451,16.769,12.171,22.677c8.557,10.787,18.528,15.249,29.915,13.385
	c3.762-0.6,7.024-1.965,9.787-4.096c2.764-2.131,4.645-4.744,5.645-7.84c0.865-2.764,0.948-5.511,0.249-8.24
	c-0.866-3.396-3.03-7.226-6.492-11.486c-0.999-1.199-1.432-3.347-1.298-6.443c0.166-3.695,0.133-5.959-0.101-6.791
	c-0.799-2.797-2.763-5.461-5.894-7.991c-1.93-1.564-4.76-3.362-8.489-5.394c-2.906-1.556-4.756-2.95-5.603-4.191
	c8.671,1.969,17.86,2.571,27.576,1.795c13.285-1.066,26.186-4.596,38.704-10.588c4.108-1.965,7.995-4.146,11.67-6.529
	c0.01,1.894,0.236,3.787,0.716,5.68c0.766,2.997,1.997,5.544,3.695,7.642c2.93,3.629,6.31,5.526,10.138,5.692
	c1.698,0.067,3.446-0.35,5.244-1.248l4.295-2.797c3.029-2.264,5.228-3.329,6.592-3.195c0.866,0.1,2.464,0.699,4.795,1.797
	c2.164,1.033,4.494,2.281,6.991,3.746c3.695,2.164,7.857,2.264,12.485,0.3c4.828-2.031,7.99-5.56,9.488-10.588
	C377.817,223.151,377.801,218.74,376.502,214.213z"/>
</svg>
