<?xml version="1.0" encoding="utf-8"?>
<!-- Generator: Adobe Illustrator 16.0.0, SVG Export Plug-In . SVG Version: 6.00 Build 0)  -->
<!DOCTYPE svg PUBLIC "-//W3C//DTD SVG 1.1//EN" "http://www.w3.org/Graphics/SVG/1.1/DTD/svg11.dtd">
<svg version="1.1" id="图层_1" xmlns="http://www.w3.org/2000/svg" xmlns:xlink="http://www.w3.org/1999/xlink" x="0px" y="0px"
	 width="330px" height="318px" viewBox="0 0 330 318" enable-background="new 0 0 330 318" xml:space="preserve">
<path d="M323.25,210.65c-3.835-10.404-9.021-18.574-15.558-24.512c-2.388-2.187-4.8-3.896-7.235-5.148
	c13.843-12.525,21.597-25.315,23.243-38.371c1.534-12.172-1.317-27.363-8.554-45.571c-6.771-17.008-16.041-33.616-27.813-49.824
	c-12.039-16.474-24.095-28.947-36.167-37.417c-13.273-9.271-24.445-12.022-33.516-8.254c-5.236,2.201-10.355,6.12-15.357,11.755
	c-5.536,6.27-10.255,14.007-14.156,23.211c-9.505,22.611-12.59,50.007-9.255,82.189c1.658,15.817,4.052,29.588,7.173,41.326
	c-0.789,0.13-1.58,0.272-2.371,0.442c-2.59,0.545-5.11,1.305-7.572,2.244c-4.366-30.998-14.87-60.429-31.544-88.285
	c-3.835-6.336-8.071-10.838-12.706-13.506c-4.602-2.601-8.054-2.584-10.355,0.05c-2.801,3.202-2.535,6.937,0.8,11.206
	c3.602,4.635,9.555,7.737,17.858,9.304c6.603,8.404,13.256,21.794,19.959,40.169c5.396,14.877,9.494,29.077,12.327,42.616
	c-3.438,1.633-6.749,3.664-9.926,6.106c-1.976,1.513-3.784,3.119-5.435,4.813c-4.669-14.176-11.989-27.254-21.979-39.23
	c-10.638-12.739-21.91-21.46-33.816-26.162c-7.637-3.035-13.973-4.719-19.009-5.052c-5.803-0.367-9.155,1.134-10.055,4.502
	c-0.5,1.834-0.167,3.568,1,5.203c1.167,1.634,2.968,2.901,5.403,3.802c5.77,2.167,12.522,1.768,20.259-1.201
	c21.946,7.12,40.355,27.622,55.233,61.494c-0.975,1.223-1.872,2.489-2.699,3.795c-14.717-14.15-34.819-28.126-60.337-41.928
	c-29.047-15.707-53.692-24.478-73.935-26.312c-7.937-0.734-13.04,0.85-15.307,4.752c-1.701,2.935-2.051,8.154-1.051,15.658
	c1.567,11.305,6.07,23.678,13.506,37.117c7.037,12.739,15.908,25.028,26.613,36.867c10.738,11.84,21.877,21.627,33.416,29.364
	c12.206,8.237,23.478,13.155,33.816,14.757c7.706,1.22,16.853,1.337,27.428,0.363c0.808,2.98,2.148,6.144,4.037,9.49
	c5.27,9.306,13.623,18.393,25.062,27.264c11.206,8.705,22.26,14.824,33.166,18.359c11.84,3.867,20.61,3.617,26.313-0.75
	c3.396-2.604,4.479-7.375,3.275-14.291c1.91-0.01,3.836-0.078,5.778-0.218c9.604-0.733,14.791-3.034,15.56-6.901
	c0.637-3.191-2.43-6.719-9.178-10.58c4.283-1.491,8.264-3.709,11.928-6.68c0.352-0.281,0.676-0.584,1.01-0.881
	c1.186,2.469,2.464,4.734,3.844,6.784c4.135,6.202,7.869,8.903,11.205,8.104c3.635-0.9,6.104-4.271,7.402-10.105
	c0.752-3.363,1.059-7.421,0.926-12.155c19.836,8.095,33.438,9.251,40.795,3.452c6.437-5.07,10.121-12.84,11.055-23.313
	C328.586,231.027,327.085,221.057,323.25,210.65z"/>
</svg>
