<?xml version="1.0" encoding="utf-8"?>
<!-- Generator: Adobe Illustrator 16.0.0, SVG Export Plug-In . SVG Version: 6.00 Build 0)  -->
<!DOCTYPE svg PUBLIC "-//W3C//DTD SVG 1.1//EN" "http://www.w3.org/Graphics/SVG/1.1/DTD/svg11.dtd">
<svg version="1.1" id="图层_1" xmlns="http://www.w3.org/2000/svg" xmlns:xlink="http://www.w3.org/1999/xlink" x="0px" y="0px"
	 width="220px" height="245px" viewBox="0 0 220 245" enable-background="new 0 0 220 245" xml:space="preserve">
<path d="M216.301,120.802c-40.167-23.195-62.314-35.958-66.441-38.288c-7.388-50.351-11.314-76.309-11.78-77.873
	c-0.632-2.296-2.13-3.761-4.493-4.393c-2.162-0.566-3.71-0.299-4.643,0.799l-1.646,1.647C121.04,8.519,110.208,20.499,94.8,38.636
	c-5.694,6.684-11.398,13.485-17.11,20.396c-0.566,0.138-1.129,0.287-1.689,0.447c-1.019-1.095-3.899-1.954-8.656-2.573l-2.097-0.3
	c-1.231-0.233-3.028,0.316-5.391,1.647c-1.697,0.965-3.262,2.047-4.692,3.245c-1.298,1.065-2.08,4.11-2.346,9.135
	c-0.038,0.675-0.064,1.301-0.087,1.906l-21.029,6.38C13.167,84.544,3.482,87.589,2.65,88.055c-1.797,0.999-2.679,2.429-2.646,4.293
	c0.033,1.331,0.482,2.746,1.348,4.243c0.632,1.098,7.372,6.423,20.217,15.974l10.3,7.676c0.117,0.353,0.261,0.657,0.432,0.91
	c0.632,0.932,2.113,2.18,4.443,3.743c1.745,1.156,3.11,1.831,4.112,2.043l1.266,0.944c0.67,2.067,1.464,4.065,2.39,5.991
	l-0.156,1.035c-0.058,0.176-0.117,0.34-0.174,0.52c-1.604,4.906-2.063,8.232-1.409,10.018l-3.633,24.177
	c-3.794,25.558-6.356,44.062-7.688,55.509l1.148,2.596c1.099,1.465,2.463,1.582,4.093,0.35
	c10.748-8.067,30.294-25.134,58.621-51.176l3.428,0.609c0.849,0.096,1.553,0.048,2.145-0.112l26.908,37.7
	c13.046,18.203,19.968,27.555,20.767,28.055c1.031,0.599,2.113,1.015,3.244,1.248l3.645-0.3c0.565-0.333,1.197-1.048,1.896-2.146
	c0.666-1.132,1.016-2.047,1.049-2.745c0.398-10.483-0.334-27.406-2.197-50.768l-2.97-32.527c0.468,0.124,0.782,0.092,0.923-0.119
	c2.629-4.094,4.26-6.939,4.893-8.536c-0.092-0.213-0.237-0.47-0.421-0.759l27.876-7.178c16.473-4.327,25.857-6.906,28.154-7.738
	c2.43-0.865,3.91-2.529,4.442-4.992C219.662,124.063,218.73,122.133,216.301,120.802z"/>
</svg>
