<?xml version="1.0" encoding="utf-8"?>
<!-- Generator: Adobe Illustrator 16.0.0, SVG Export Plug-In . SVG Version: 6.00 Build 0)  -->
<!DOCTYPE svg PUBLIC "-//W3C//DTD SVG 1.1//EN" "http://www.w3.org/Graphics/SVG/1.1/DTD/svg11.dtd">
<svg version="1.1" id="图层_1" xmlns="http://www.w3.org/2000/svg" xmlns:xlink="http://www.w3.org/1999/xlink" x="0px" y="0px"
	 width="277px" height="287px" viewBox="0 0 277 287" enable-background="new 0 0 277 287" xml:space="preserve">
<path d="M275.453,162.619c-1.032-3.661-2.064-6.058-3.096-7.189l-21.814-22.213c-3.39-3.365-6.522-6.447-9.401-9.25
	c11.522-21.178,18.325-34.531,20.384-40.021c0.865-2.296,1.298-4.726,1.298-7.288c0-2.229-0.233-3.611-0.699-4.144
	c-0.399-0.466-1.88-1.131-4.442-1.997c-2.763-0.932-5.075-1.498-6.939-1.697c-3.859-0.2-10.532-0.083-20.018,0.35l-20.09,1.119
	c-1.75-7.232-3.721-14.972-5.918-23.233c-4.093-15.408-7.287-26.59-9.584-33.545c-0.565-1.664-2.13-4.21-4.692-7.638
	c-2.596-3.461-4.31-5.274-5.142-5.441c-0.799-0.167-3.062,0.682-6.789,2.546c-3.727,1.897-5.99,3.361-6.789,4.393l-20.267,27.655
	c-4.036,5.39-7.705,10.211-11.034,14.505c-7.263-5.069-17.741-12.031-31.447-20.895C94.13,19.052,85.761,13.894,83.864,13.161
	l-5.541-0.599l-7.438-0.3l-0.649,0.449c-0.532,1.099-1.314,3.211-2.346,6.34c-1.098,3.228-1.647,5.158-1.647,5.791l5.801,56.649
	c-0.736,0.169-1.458,0.335-2.207,0.508c-25.792,5.957-39.635,9.468-41.532,10.533c-0.932,0.533-3.095,2.529-6.49,5.99
	c-3.195,3.229-5.008,5.175-5.441,5.841c-0.167,0.266-0.183,0.549-0.05,0.849c0.632,1.165,1.931,3.045,3.894,5.641
	c2.097,2.762,3.511,4.393,4.243,4.892l29.331,18.284c-2.813,3.338-8.058,8.304-15.753,14.913l-23.312,19.617l-8.486,7.238
	l-2.396,2.097c-0.766,1.198-1.631,3.544-2.596,7.038C0.416,188.061,0,190.057,0,190.922c0,0.367,0.183,0.633,0.549,0.799
	c5.125,1.764,15.392,3.729,30.8,5.891l32.407,4.705c-6.585,16.749-10.101,25.851-10.543,27.293c-0.499,1.697-0.532,4.809-0.1,9.335
	c0.466,4.526,1.065,6.839,1.797,6.938c1.631,0.233,7.471-1.364,17.521-4.792l24.731-8.855c0.661,2.413,1.271,6.524,1.826,12.351
	l1.547,18.669l0.599,8.187c0.167,2.629,0.316,4.227,0.449,4.793c0.1,0.465,1.481,2.146,4.143,5.041
	c2.663,2.896,4.243,4.426,4.743,4.593c0.599,0.3,2.479-0.017,5.641-0.948c3.261-0.932,5.541-1.896,6.839-2.896
	c1.963-1.331,8.869-7.354,20.716-18.07c12.079-10.95,20.344-18.928,24.819-23.95c1.231,1.342,2.497,2.722,3.835,4.182
	c16.605,18.138,25.358,27.539,26.257,28.205c0.766,0.565,3.112,1.348,7.038,2.346c3.961,0.998,6.34,1.381,7.139,1.148
	c0.799-0.267,2.03-1.697,3.694-4.293c1.631-2.529,2.596-4.443,2.896-5.741c0.486-1.972,0.983-11.237,1.492-27.793l11.088,2.934
	c8.951,2.329,15.607,3.86,19.967,4.593l3.444-0.25c0.666-0.565,1.099-1.947,1.298-4.143c0.5-5.358-1.23-14.76-5.191-28.205
	c-2.241-7.761-6.197-19.732-11.859-35.891l11.211-1.947l19.468-3.645c3.528-0.832,5.558-1.664,6.091-2.496
	C276.783,168.343,276.484,166.213,275.453,162.619z"/>
</svg>
