<?xml version="1.0" encoding="utf-8"?>
<!-- Generator: Adobe Illustrator 16.0.0, SVG Export Plug-In . SVG Version: 6.00 Build 0)  -->
<!DOCTYPE svg PUBLIC "-//W3C//DTD SVG 1.1//EN" "http://www.w3.org/Graphics/SVG/1.1/DTD/svg11.dtd">
<svg version="1.1" id="图层_1" xmlns="http://www.w3.org/2000/svg" xmlns:xlink="http://www.w3.org/1999/xlink" x="0px" y="0px"
	 width="257px" height="315px" viewBox="0 0 257 315" enable-background="new 0 0 257 315" xml:space="preserve">
<path d="M250.998,82.516c-2.869-0.233-4.971,0.65-6.305,2.652c-0.534,0.768-0.701,0.717-0.5-0.15c0.3-1.468,1.65-3.803,4.053-7.006
	c2.168-2.902,3.252-5.554,3.252-7.956c0-1.735-0.684-3.236-2.051-4.504c-1.368-1.301-3.036-1.951-5.004-1.951
	c-1.502,0-2.869,0.434-4.104,1.301c-1.135,0.768-1.868,1.651-2.202,2.652c-0.434,1.334-0.634,3.303-0.601,5.905
	c0,2.368-0.199,3.97-0.6,4.804c-0.768,1.735-1.719,3.119-2.854,4.153c-1,0.934-1.918,1.401-2.752,1.401
	c-0.801,0-1.451-0.233-1.951-0.7c-0.601-0.567-0.851-1.435-0.75-2.603c0.166-1.568,1.25-4.287,3.252-8.156
	c1.969-3.703,2.953-6.205,2.953-7.506c0-1.968-0.651-3.536-1.952-4.704c-1.368-1.201-3.235-1.801-5.604-1.801
	c-2.336,0-4.303,0.801-5.904,2.402c-1.469,1.435-2.202,3.002-2.202,4.704c0,0.9,0.3,2.735,0.901,5.504l0.85,4.604
	c0,1.601-0.45,3.469-1.351,5.604c-0.968,2.302-1.935,3.453-2.902,3.453c-0.7,0-1.335-0.55-1.901-1.651
	c-0.9-1.768-1.117-4.537-0.65-8.307c0.6-4.904-0.217-8.34-2.452-10.308c-1.935-1.735-4.454-2.085-7.556-1.051
	c-1.969,0.634-3.303,1.968-4.004,4.003c-0.566,1.668-0.634,3.253-0.199,4.754c0.333,1.234,1.367,2.702,3.102,4.404
	c1.701,1.668,2.719,3.019,3.053,4.053c0.467,1.435,0.934,5.771,1.4,13.011c0.034,0.434-0.149,0.717-0.55,0.851l-1.651-0.25
	c-1.568-0.767-3.27-1.134-5.104-1.101c-1.869,0-3.486,0.434-4.854,1.301c-0.621,0.39-1.163,0.821-1.637,1.288
	c-0.553-1.158-1.183-2.281-1.886-3.373c-0.337-4.354-2.059-8.497-5.184-12.426c-1.612-2.015-3.58-3.898-5.862-5.664l2.81,0.16
	c1.334-0.4,2.401-1.318,3.202-2.752c0.7-1.301,4.521-11.576,11.459-30.824l1.751,1.501c1.201,0.934,2.086,1.351,2.652,1.251
	c1.201-0.2,2.652-2.619,4.354-7.256l1.197-3.781c4.149,4.723,6.804,7.084,7.961,7.084c1.434,0,2.018-2.052,1.75-6.155
	c-0.266-3.937-1.2-8.473-2.802-13.611c-1.701-5.504-3.702-10.041-6.005-13.611C206.396,2.052,203.761,0,201.158,0
	c-2.735,0-7.322,3.319-13.761,9.958c-6.305,7.005-9.991,10.858-11.059,11.559c-0.567,0.367-2.952,0.801-7.155,1.301
	c-4.237,0.467-7.123,1.184-8.657,2.151c-3.049,1.906-5.181,5.021-6.415,9.316c-5.781-2.24-12.482-3.361-20.105-3.361
	c-9.63,0-18.503,1.924-26.632,5.741c-0.898-1.567-2.028-2.898-3.393-3.99c-3.37-2.735-8.323-4.137-14.862-4.203h-7.706
	c-3.002-0.233-5.671-0.934-8.006-2.102c-1.768-0.868-3.753-2.135-5.955-3.803l-5.054-3.953c-3.403-2.469-5.921-4.12-7.556-4.954
	c-2.735-1.434-5.388-2.151-7.956-2.151c-11.442,0-22.952,11.275-34.527,33.827c-4.104,8.006-7.406,15.879-9.908,23.619
	c-2.302,7.172-2.952,10.992-1.952,11.459c0.534,0.233,2.235-1.084,5.104-3.953l9.407-9.608c9.308-9.441,15.295-13.877,17.964-13.311
	c0.601,0.1,1.268,0.701,2.001,1.801l1.701,3.002l2.002,3.503c0.867,1.201,1.935,2.001,3.203,2.402l4.553-0.1l4.454-1.901
	l3.453-1.602c1.334-0.534,2.219-0.717,2.652-0.55c0.767,0.333,1.651,1.518,2.652,3.553l2.502,5.955
	c0.899,2.331,1.656,4.245,2.273,5.745c-0.552-0.023-1.108-0.041-1.673-0.041c-10.208,0-19.432,3.82-27.672,11.459
	c-8.473,7.839-12.71,16.896-12.71,27.171c0,9.541,3.419,17.848,10.258,24.92c3.006,3.081,6.208,5.465,9.603,7.165
	c-0.254,2.688-0.396,5.432-0.396,8.247c0,9.905,1.869,18.918,5.583,27.048c-4.055,4.699-6.083,10.345-6.083,16.938
	c0,7.605,2.686,13.811,8.057,18.614c0.51,0.456,1.047,0.87,1.585,1.283c-0.029,0.039-0.055,0.079-0.084,0.118l-7.183,9.872
	c-4.37,0.074-7.803,1.146-10.281,3.238c-2.435,2.068-3.653,4.87-3.653,8.407c0,2.201,0.517,4.152,1.551,5.854
	c0.832,1.368,1.958,2.454,3.35,3.283c1.666,4.495,5.398,13.458,11.204,26.901l-2.094,0.79c-1.401,0.602-2.352,1.185-2.853,1.752
	l-4.353,3.902c-2.469,2.068-4.07,3.254-4.804,3.553c-2.291,1.013-4.117,1.636-5.493,1.882l-0.362-0.33
	c-2.001-1.835-3.052-2.919-3.152-3.253c0.039-0.27,0.261-0.752,0.655-1.433c0.209,0.291,0.448,0.585,0.746,0.883
	c0.934,0.935,1.818,1.401,2.652,1.401l3.002-0.701l3.152-1.15c0.601-0.268,1.167-1.469,1.701-3.604
	c0.467-1.968,0.701-3.752,0.701-5.354c0-0.935-1.067-2.068-3.203-3.403c-2.235-1.401-4.237-2.102-6.005-2.102
	c-3.169,0-7.139,2.185-11.909,6.556c-4.904,4.47-7.756,8.689-8.557,12.66c-0.567,2.835-0.901,4.703-1.001,5.604
	c-0.3,3.27-0.083,6.488,0.65,9.658c0.634,2.735,1.918,4.737,3.853,6.005c1.835,1.234,4.871,2.185,9.107,2.853
	c1.601,0.232,3.436,0.684,5.504,1.351l3.653,1.101L32.475,315c2.269,0,5.021-0.984,8.257-2.952l8.156-5.805
	c2.068-1.567,3.77-2.753,5.104-3.553c1.668-0.968,4.22-2.136,7.656-3.503l4.003-1.501c1.435-0.534,2.469-1.034,3.103-1.501
	c1.601-1.201,2.986-3.27,4.153-6.205c1.167-2.902,1.751-5.672,1.751-8.307c0-2.469-1.001-4.621-3.002-6.455
	c-1.532-1.383-3.161-2.246-4.883-2.6c0.129-0.552,0.247-1.114,0.329-1.704c0.868-5.905-1.018-11.893-5.654-17.964
	c-1.447-1.92-2.999-5.243-4.654-9.958c0-0.001,0-0.001,0-0.001c2.068-2.067,3.103-4.02,3.103-5.854c0-2.004-1.135-3.823-3.397-5.462
	l2.797-4.196c1.084-1.594,2.066-3.003,2.952-4.239c2.398,0.506,4.939,0.786,7.657,0.786c6.872,0,12.71-2.602,17.514-7.806
	c0.339-0.371,0.64-0.758,0.955-1.138c6.547,1.682,13.66,2.539,21.362,2.539c7.006,0,13.961-1.301,20.867-3.903
	c2.95-1.1,5.763-2.403,8.448-3.892c3.728,1.713,7.894,2.59,12.519,2.59c4.488,0,8.552-0.809,12.22-2.372
	c1.953,1.379,4.545,3.562,7.796,6.576c3.249,3.032,5.65,5.552,7.232,7.577c-1.507,0.276-2.729,0.969-3.63,2.131
	c-0.834,1.033-1.25,2.135-1.25,3.303c0,1.539,0.718,2.709,2.104,3.534c-2.048,1.113-5.501,2.804-10.362,5.072
	c-5.236,2.401-8.272,4.271-9.106,5.604c-0.4,0.667-0.517,2.802-0.351,6.404c0.167,3.938,0.084,6.489-0.25,7.656l-0.951,3.053
	c-0.067,0.21-0.123,0.408-0.17,0.595c-1.926,1.127-4.053,2.94-6.385,5.46c-2.535,2.736-3.803,4.67-3.803,5.805
	c0,0.734,0.834,2.119,2.502,4.153c1.734,2.102,3.219,3.486,4.453,4.153c1.135,0.634,3.369,0.984,6.705,1.051
	c3.57,0.066,6.005,0.351,7.307,0.851c1.701,0.634,3.819,1.785,6.354,3.453c2.302,1.534,3.753,2.651,4.354,3.353
	c0.733,0.934,1.651,1.835,2.752,2.702c1.968,1.567,3.771,2.352,5.404,2.352l8.307-1.001l8.907-1l9.258,0.35
	c3.568,0.167,5.637,0.15,6.205-0.05c2.135-0.767,4.069-2.819,5.805-6.155c1.601-3.135,2.401-6.07,2.401-8.807
	c0-4.037-1.651-7.489-4.954-10.357c-3.035-2.603-6.371-3.904-10.008-3.904c-1.502,0-2.936,0.602-4.304,1.802
	c-1.268,1.134-1.901,2.269-1.901,3.403c0,1.434,0.701,2.969,2.102,4.604c1.435,1.701,2.853,2.552,4.254,2.552
	c1.234,0,2.401-0.634,3.502-1.901c0.224-0.267,0.411-0.533,0.586-0.799c0.077,0.504,0.072,1.111-0.035,1.85
	c-0.233,1.768-1.117,2.652-2.652,2.652c-0.834,0-2.719-0.484-5.654-1.451c-2.803-0.9-4.62-1.585-5.454-2.052
	c-0.4-0.2-1.585-1.635-3.553-4.304l-1.602-2.052c-0.867-1.067-2.435-2.269-4.704-3.603c-2.068-1.234-3.652-2.002-4.754-2.302
	l-5.104-0.351l-3.652-0.1l-3.999-0.698c0.353-0.593,0.737-1.216,1.196-1.904l4.104-6.055c0.634-0.901,4.119-3.819,10.458-8.757
	c4.372-3.407,7.172-6.017,8.405-7.835c1.405-0.21,2.596-0.727,3.555-1.573c1.635-1.4,2.451-3.385,2.451-5.954
	c0-2.368-0.65-4.82-1.951-7.356c-1.301-2.535-2.969-4.619-5.004-6.254c-2.168-1.769-4.354-2.652-6.555-2.652
	c-1.268,0-2.369,0.434-3.303,1.301c-0.134,0.124-0.248,0.244-0.351,0.362l-5.104-6.567c-2.589-3.252-4.566-5.705-5.947-7.379
	c2.595-3.828,3.896-8.206,3.896-13.137c0-7.006-2.67-12.811-8.007-17.414c-0.762-0.647-1.559-1.234-2.374-1.789
	c0.908-4.731,1.373-9.735,1.373-15.024c0-3.965-0.306-7.797-0.883-11.513c0.812-0.113,1.605-0.26,2.389-0.428
	c0.244,0.426,0.518,0.84,0.846,1.232c1.401,1.668,4.104,4.07,8.107,7.206l9.607,7.556c2.035,1.735,4.22,3.987,6.555,6.755
	c2.102,2.435,3.787,4.137,5.055,5.104c1.234,0.967,2.785,1.467,4.653,1.5c2.202,0.067,4.036-0.633,5.505-2.102
	c1.5-1.534,3.619-5.487,6.354-11.859c2.735-6.338,4.137-10.542,4.203-12.61l-0.4-7.356c-0.2-2.969,0.05-5.621,0.751-7.957
	l2.451-9.057l1.223-4.64c1.224,0.384,2.243,0.587,3.031,0.587c3.136,0,6.088-2.418,8.857-7.255l2.852-5.354
	c1.001-1.801,1.852-2.902,2.553-3.303l3.953-0.7c2.168-0.334,3.703-0.951,4.604-1.852c2.035-2.035,3.086-4.587,3.152-7.656
	C255.785,85.118,254.201,82.782,250.998,82.516z M202.359,140.762c-1.234,2.202-1.701,5.588-1.4,10.158
	c-3.07-2.869-6.189-6.355-9.357-10.458c-2.319-2.993-3.965-5.365-4.94-7.119c0.558-0.541,1.106-1.097,1.638-1.688
	c5.604-6.305,8.406-13.644,8.406-22.017c0-0.34-0.014-0.674-0.022-1.011l1.523-0.19l3.153-0.25c1.768,3.036,3.302,5.188,4.604,6.455
	c1.534,1.501,3.186,2.251,4.953,2.251c0.944,0,2.173-0.185,3.685-0.555c-0.471,2.167-1.062,5.104-1.782,8.861l-1.852,9.308
	C206.596,136.241,203.727,138.327,202.359,140.762z"/>
</svg>
