<?xml version="1.0" encoding="utf-8"?>
<!-- Generator: Adobe Illustrator 16.0.0, SVG Export Plug-In . SVG Version: 6.00 Build 0)  -->
<!DOCTYPE svg PUBLIC "-//W3C//DTD SVG 1.1//EN" "http://www.w3.org/Graphics/SVG/1.1/DTD/svg11.dtd">
<svg version="1.1" id="图层_1" xmlns="http://www.w3.org/2000/svg" xmlns:xlink="http://www.w3.org/1999/xlink" x="0px" y="0px"
	 width="371px" height="417px" viewBox="0 0 371 417" enable-background="new 0 0 371 417" xml:space="preserve">
<path d="M368.652,203.955c-1.266-16.446-4.478-31.728-9.639-45.844c-5.493-15.148-12.435-26.584-20.824-34.308
	c-9.389-8.59-19.727-11.636-31.013-9.139c-4.528,0.999-9.155,1.016-13.884,0.05c-2.896-0.566-6.791-1.798-11.686-3.695
	c-2.063-0.799-3.795-1.215-5.193-1.249c-1.266-0.033-2.646,0.267-4.145,0.899l-3.246,1.498c-1.398,0.666-2.431,0.966-3.097,0.899
	c-0.433-0.066-1.349-0.383-2.747-0.949l-2.796-1.099c-1.512-0.61-2.814-0.878-3.925-0.833c1.338-5.246,1.148-7.665-0.57-7.257
	c-0.766,0.2-3.195,1.415-7.291,3.646c-4.262,2.331-7.092,4.029-8.489,5.094c-2.63,2.064-6.243,4.245-10.837,6.542
	c-2.598-0.966-5.211-3.246-7.841-6.842c-1.564-2.131-3.013-4.561-4.345-7.292c-1.231-2.463-4.178-5.81-8.839-10.038
	c-0.709-0.635-1.392-1.225-2.061-1.792c-0.766-8.897-2.309-21.213-4.632-36.961c-3.762-25.669-6.441-40.9-8.04-45.695
	c-2.131-6.492-3.911-9.671-5.343-9.538c-0.732,0.066-1.299,0.649-1.699,1.748c-0.432,1.132-0.798,3.03-1.098,5.693
	c-0.399,3.762-1.831,8.906-4.295,15.431c-1.931,5.094-3.979,9.805-6.143,14.133l-4.594,9.089c-1.765,3.629-3.03,6.576-3.795,8.839
	c-0.25,0.751-0.491,1.508-0.723,2.271c-0.699-1.601-1.447-3.247-2.273-4.968c-3.229-6.758-5.644-11.136-7.241-13.134l-2.048-2.248
	c-0.999-0.699-1.398,0.133-1.198,2.497l-0.549,7.142c-0.466,5.193-0.916,8.772-1.349,10.737
	c-3.296,16.147-5.244,25.985-5.843,29.514c-2.164,12.618-2.93,21.557-2.297,26.817c0.064,0.511,0.14,1.03,0.215,1.549
	c-1.328,0.501-1.538,1.53-0.615,3.096c0.352,0.571,0.852,1.202,1.475,1.881c1.994,9.892,5.813,21.066,11.459,33.526
	c0.787,1.735,1.561,3.386,2.326,4.969c-4.105-0.343-5.984-0.004-5.622,1.023c0.166,0.435,0.505,0.928,0.98,1.466
	c-0.995,0.227-1.814,0.469-2.429,0.731c-0.85,0.351-1.65,0.79-2.425,1.272c-2.029-3.586-4.38-7.552-7.063-11.91
	c-2.212-3.592-4.485-7.166-6.807-10.725c1.364-0.901,2.263-1.918,2.662-3.058c1.631-4.728,2.114-9.272,1.448-13.633
	c-0.433-2.797-1.481-5.943-3.146-9.439l-0.4-0.849c-0.866-1.798-2.597-3.629-5.193-5.494c-2.597-1.864-5.294-3.179-8.09-3.945
	c-2.697-0.732-5.31-0.982-7.84-0.749c-1.929,0.173-3.625,0.625-5.095,1.348c-7.451-9.49-14.668-17.922-21.651-25.293
	C73.388,64.099,60.846,53.385,49.589,47.245c-6.659-3.629-15.381-7.724-26.168-12.285C9.271,29.001,1.498,26.92,0.099,28.718
	c-0.366,0.466,0.3,1.415,1.998,2.847l3.696,3.046c2.497,2.663,4.245,6.143,5.244,10.437l2.497,16.58l1.947,12.685
	c1.245,7.676,3.392,14.92,6.431,21.739c-0.813-0.208-1.627-0.421-2.436-0.614c-9.322-2.231-14.965-2.697-16.929-1.398
	c-1.065,0.732-0.566,2.331,1.498,4.794l4.295,4.444l4.045,4.395c1.631,2.264,2.947,5.144,3.945,8.64
	c4.561,16.071,12.278,30.094,23.118,42.09c-0.112,0.34-0.236,0.663-0.345,1.008c-5.327,17.046-8.124,37.205-8.39,60.477
	c-0.085,6.696,0.057,12.97,0.411,18.851c-1.554-0.312-2.929-0.538-4.107-0.672c-2.73-0.301-4.295-0.101-4.694,0.599
	c-0.866,1.432,0.516,4.028,4.145,7.79l4.345,4.645l1.688,1.72c1.203,8.575,2.999,16.052,5.403,22.401
	c0.799,2.164,1.848,4.312,3.146,6.442c1.265,2.131,2.13,3.213,2.597,3.246c0.566,0.066,1.099-1.049,1.598-3.347
	c0.419-1.994,1.453-6.171,3.091-12.494c5.09,5.678,8.287,10.186,9.543,13.494l1.249,3.396c0.899,2.63,1.548,4.911,1.947,6.841
	c1.032,4.994,3.596,10.422,7.691,16.281c0.776,1.114,1.569,2.158,2.379,3.136l-2.924,4.046c-3.116-1.247-5.755-1.771-7.896-1.539
	c-6.925,0.832-9.688,5.145-8.29,12.935c0.6,3.396-1.165,8.623-5.293,15.681c-1.198,2.031-1.831,4.129-1.897,6.293
	c-0.067,2.33,0.566,4.411,1.897,6.242l4.944,5.643c1.532,1.932,3.896,4.512,7.092,7.741c2.63,2.896,4.361,5.61,5.193,8.14
	c0.433,1.299,0.933,4.012,1.499,8.141l1.198,8.84c0.966,5.825,1.698,9.487,2.197,10.986c0.966,3.029,2.431,4.761,4.395,5.193
	l10.915-0.371l4.516,0.92l8.689,1.648l17.429,3.995l1.698-0.05c0.399-0.433,0.283-1.432-0.35-2.996
	c-1.116-2.804-2.532-5.435-4.223-7.907c8.79,1.803,16.22,3.606,22.251,5.41c3.596,1.099,6.243,2.03,7.94,2.797l1.398,0.149
	c0.266-0.433,0.083-1.715-0.549-3.846c-1.323-4.601-3.781-9.002-7.365-13.205c2.814,0.104,6.041,0.535,9.712,1.319
	c3.362,0.733,6.159,1.532,8.39,2.397c1.798,0.666,2.747,0.616,2.847-0.149c0.066-0.566-0.383-1.814-1.349-3.746
	c-1.897-3.795-5.51-7.94-10.836-12.435c-4.506-3.809-7.78-5.851-9.824-6.131c-0.488-1.682-1.237-2.909-2.262-3.657
	c-0.732-0.499-2.181-1.183-4.345-2.048c-2.098-0.865-4.062-1.564-5.893-2.098l-7.042-1.897c-2.563-0.799-4.528-1.681-5.893-2.646
	c-0.228-0.159-0.458-0.333-0.692-0.517c8.778-1.572,16.8-4.711,24.064-9.422c5.695-3.675,10.842-8.272,15.448-13.782
	c0.063,0.032,0.118,0.065,0.183,0.099l8.74,4.096c3.629,2.297,9.338,10.32,17.129,24.07c1.099,1.998,3.429,3.313,6.992,3.945
	l8.589,0.449l2.537-0.373c2.254,0.502,6.496,1.49,12.745,2.971c9.154,2.131,14.215,3.379,15.182,3.745l2.646,0.05
	c0.166-0.6-0.383-1.831-1.648-3.695c-1.878-2.817-4.112-5.568-6.686-8.253l10.231,3.009c7.757,2.265,12.335,3.68,13.733,4.246
	c1.099,0.432,1.748,0.432,1.947,0c0.2-0.5-0.033-1.715-0.699-3.646c-0.986-2.729-2.369-5.396-4.143-8.003l9.736,2.659l2.347-0.149
	l-1.598-3.745c-3.871-8.241-11.256-14.552-22.152-18.93c-0.72-1.821-1.697-3.316-2.968-4.442c-1.73-1.498-4.877-2.729-9.438-3.695
	l-0.8-0.2c-4.328-0.932-8.239-2.247-11.735-3.945c-4.295-2.063-7.025-4.344-8.19-6.842c-2.298-4.927-4.744-8.771-7.341-11.535
	c-2.397-2.531-5.294-4.479-8.689-5.844c0.366-1.498,0.516-3.013,0.449-4.544c-0.001-0.022-0.005-0.042-0.006-0.063
	c3.165-0.926,6.214-2.349,9.146-4.281c5.593-3.662,9.189-8.023,10.787-13.084c1.765-5.46,1.564-11.919-0.6-19.377
	c-1.764-6.125-3.928-10.604-6.492-13.434c-0.591-0.675-1.56-1.514-2.863-2.498c8.064-5.145,13.941-14.247,17.632-27.307
	c1.02,0.072,2.104,0.169,3.261,0.291c0.965,0.1,2.729,0.782,5.293,2.047c2.164,1.032,3.579,1.398,4.244,1.1
	c0.699-0.301,1.482-1.166,2.348-2.598c0.766-1.332,1.432-2.813,1.998-4.444c0.193-0.562,0.353-1.122,0.529-1.683
	c0.039,0.095,0.086,0.191,0.119,0.284l0.649,2.247c0.333,0.899,0.749,1.398,1.249,1.498c0.965,0.2,2.064,0.051,3.296-0.449
	c1.231-0.499,2.431-1.299,3.595-2.396l7.292-7.342c3.862-4.461,5.793-8.007,5.793-10.637v-2.397c-0.101-3.662-0.101-6.525,0-8.589
	c0.167-3.729,0.766-6.359,1.798-7.891l2.447-4.544c0.832-1.998,1.332-4.062,1.498-6.192c0.1-0.965-0.051-2.23-0.449-3.795
	c-0.334-1.332-0.899-2.297-1.698-2.896l1.897-5.893c0.176-0.62,0.314-1.198,0.436-1.756c2.369,0.142,4.938-1.169,7.705-3.937
	c1.863-1.864,3.662-3.979,5.393-6.342c1.898-0.832,3.08-1.698,3.546-2.597c0.267-0.533,0.433-1.748,0.499-3.646l0.949-0.949
	l0.35-1.648l0.3-0.05c3.329-0.2,6.875,1.731,10.638,5.793c5.061,5.46,8.789,13.65,11.186,24.57c0.5,2.297,1.232,3.695,2.197,4.195
	l3.846,0.15c11.153-1.398,22.489,4.095,34.009,16.48c11.786,12.685,23.372,32.178,34.758,58.479c0.6,1.299,1.065,1.914,1.398,1.848
	c0.3-0.1,0.6-0.832,0.898-2.197C369.002,235.067,369.917,220.436,368.652,203.955z M59.777,244.706l0.05,0.55
	c0,0.266,0.483,1.082,1.448,2.446l1.548,2.147c-3.06-1.344-5.869-2.544-8.445-3.613c3.415-12.651,5.733-20.549,6.947-23.654
	c6.559-16.979,12.318-24.952,17.279-23.92c4.195,0.833,7.341,0.067,9.438-2.297c0.921-1.029,1.912-2.708,2.968-5.02
	c4.237,1.385,8.595,2.575,13.079,3.563c-0.053,0.517-0.093,1.035-0.116,1.557c-0.167,4.228,0.5,8.307,1.998,12.235
	c1.532,3.996,3.795,7.557,6.792,10.687c2.783,2.904,6.207,5.214,10.254,6.938c-10.535,5.2-18.777,11.938-24.737,20.207
	c-0.394-0.256-0.778-0.464-1.147-0.578l-3.396,0.149c-0.333,0.334-0.732,1.016-1.199,2.049c-1.564,2.03-3.795,2.912-6.692,2.646
	c-2.53-0.233-6.725-1.531-12.584-3.896c-7.824-3.13-12.302-4.012-13.434-2.647C59.76,244.356,59.744,244.506,59.777,244.706z
	 M86.093,329.105l-1.577-1.739c0.514-0.597,1-1.17,1.457-1.718C86.007,326.822,86.046,327.977,86.093,329.105z"/>
</svg>
