<?xml version="1.0" encoding="utf-8"?>
<!-- Generator: Adobe Illustrator 16.0.0, SVG Export Plug-In . SVG Version: 6.00 Build 0)  -->
<!DOCTYPE svg PUBLIC "-//W3C//DTD SVG 1.1//EN" "http://www.w3.org/Graphics/SVG/1.1/DTD/svg11.dtd">
<svg version="1.1" id="图层_1" xmlns="http://www.w3.org/2000/svg" xmlns:xlink="http://www.w3.org/1999/xlink" x="0px" y="0px"
	 width="324px" height="324px" viewBox="0 0 324 324" enable-background="new 0 0 324 324" xml:space="preserve">
<path d="M316.907,292.717c-8.354-5.025-16.927-9.402-25.714-13.131l-11.035-4.095c-3.828-1.364-7.539-2.962-11.135-4.793
	c4.328,1.132,7.641,1.681,9.937,1.647c2.264-0.033,4.877-0.648,7.839-1.848c2.863-1.131,5.076-1.863,6.641-2.197l5.393-0.149
	l5.144,0.849c3.328,0.467,5.159-0.049,5.492-1.547s-1.132-3.063-4.394-4.693c-5.626-2.764-11.135-5.775-16.527-9.038
	c-6.891-4.161-12.849-8.306-17.875-12.433c-3.994-3.262-8.238-7.922-12.732-13.98c-1.058-1.431-2.175-3.012-3.339-4.711
	c3.12-4.148,5.983-8.402,8.581-12.766c6.589-11.009,11.146-22.234,13.692-33.674c1.987-0.222,3.451-0.497,4.383-0.828
	c2.13-0.732,3.745-1.997,4.843-3.795c0.6-0.965,1.1-2.213,1.498-3.744c0.434-1.697,0.649-3.379,0.649-5.043
	c0-2.497-0.698-5.625-2.097-9.387c-0.233-7.124-1.348-13.115-3.346-17.975c-1.702-4.118-3.906-6.938-6.61-8.465
	c-2.378-12.274-5.882-24.581-10.565-36.922c-6.191-16.178-13.848-31.14-22.969-44.888c-8.82-13.215-18.008-23.817-27.562-31.806
	c-9.72-8.089-18.607-12.45-26.663-13.082c-5.758-0.466-11.001,1.032-15.728,4.494c-3.995,2.929-6.541,6.242-7.64,9.937
	c-2.596-4.927-6.874-8.588-12.832-10.985c-7.024-2.83-14.031-2.546-21.021,0.849c-8.322,4.061-15.179,9.454-20.571,16.178
	c-6.158,7.723-13.198,20.372-21.121,37.947c-8.022,9.454-15.528,24.383-22.519,44.788c-1.23,3.583-2.345,7.053-3.356,10.421
	c-0.921-0.194-1.585-0.536-2.001-1.019c-0.274-2.352-0.999-4.141-2.183-5.357c-3.895-3.994-6.274-6.774-7.14-8.338
	c-0.833-1.564-1.681-4.644-2.547-9.237c-0.499-2.696-1.797-5.143-3.895-7.339c-1.964-2.097-3.778-3.129-5.442-3.096
	c-3.129,0.066-4.91,2.113-5.342,6.141c-0.5,4.228,0.999,8.305,4.494,12.233c0.566,0.6,0.949,1.415,1.148,2.447
	c0.233,0.999,0.216,1.665-0.05,1.997c-0.366,0.5-1.781,0.4-4.244-0.299c-2.73-0.766-5.31-1.931-7.739-3.495
	c-3.628-2.397-7.922-3.728-12.882-3.995C10.2,94.16,5.673,95.458,2.245,98.387c-2.53,2.164-3.013,4.244-1.448,6.242
	c1.831,2.296,6.092,3.362,12.782,3.195c3.762-0.1,6.641,0.516,8.638,1.848c1.564,1.065,2.53,2.513,2.896,4.344
	c0.699,3.462-1.415,6.092-6.341,7.889c-5.659,2.097-10.452,6.591-14.38,13.481c-4.061,7.157-4.028,12.034,0.1,14.63
	c1.864,1.165,3.828,1.015,5.892-0.449c2.43-1.698,5.692-5.542,9.786-11.534c1.132-1.698,2.38-3.195,3.745-4.494
	c1.564-1.498,2.896-2.313,3.994-2.447c1.199-0.133,1.764,0.399,1.698,1.598c-0.066,1.199-0.749,3.212-2.047,6.042
	c-3.096,6.857-4.361,12.666-3.795,17.426c0.566,4.594,2.613,6.924,6.142,6.99c2.063,0.033,3.611-0.982,4.644-3.046
	c0.632-1.265,1.265-3.662,1.897-7.19c0.765-4.028,1.531-7.023,2.296-8.987c1.132-2.93,1.798-4.244,1.998-3.945l0.05,4.044
	c-0.2,6.99,0.15,12.066,1.048,15.229c0.866,3.162,2.397,4.76,4.594,4.793c2.097,0.034,3.612-0.898,4.544-2.796
	c1.098-2.264,1.464-6.042,1.098-11.334c-0.233-3.495-0.216-5.692,0.05-6.591c0.233-0.799,0.932-1.232,2.097-1.298l2.747-0.3
	c0.174-0.045,0.328-0.126,0.493-0.187c-0.555,4.327-0.843,8.391-0.843,12.17v0.899c0.233,11.75,3.978,25.83,11.234,42.241
	c5.726,13.024,12.024,24.183,18.88,33.521c-1.711,2.255-3.522,4.497-5.449,6.724c-10.485,12.116-22.685,22.169-36.599,30.158
	c-3.429,1.964-5.109,3.861-5.043,5.692c0.066,1.797,1.764,2.979,5.093,3.545c5.093,0.766,10.252,0.898,15.479,0.399l9.138-0.8
	c3.351-0.153,6.183,0.095,8.54,0.708c-0.864,0.64-1.742,1.272-2.648,1.89c-0.533,0.364-1.02,0.701-1.463,1.015l-1.333,0.782
	c-3.795,2.164-6.441,3.711-7.939,4.644c-9.586,5.825-16.893,10.036-21.919,12.632c-4.593,2.364-7.073,4.711-7.439,7.041
	c-0.366,2.131,1.082,4.011,4.344,5.643c5.459,2.762,10.269,4.144,14.43,4.144c2.829,0,7.323-0.616,13.481-1.847
	c6.158-1.232,11.085-1.848,14.78-1.848c1.365,0,3.412,0.466,6.142,1.397l8.538,3.146c8.688,3.029,16.776,4.544,24.266,4.544
	c2.663,0,5.909-0.532,9.736-1.598l12.333-3.595c4.161-1.132,8.222-1.365,12.183-0.699c2.563,0.399,5.975,1.414,10.235,3.046
	c4.428,1.697,7.807,2.862,10.137,3.495c4.561,1.298,9.087,2.047,13.58,2.246c4.827,0.2,8.822-0.332,11.984-1.598
	c1.164-0.466,3.645-1.93,7.439-4.394l7.141-4.194c3.028-1.398,6.091-2.063,9.187-1.997c1.831,0.067,3.612,0.316,5.343,0.749
	c5.792,1.498,10.885,3.195,15.279,5.093l5.043,2.197c2.029,0.632,4.609,0.898,7.738,0.799c2.53-0.101,5.01-0.749,7.439-1.947
	l5.344-3.146c2.563-1.664,4.793-2.797,6.689-3.396c3.129-1.065,6.658-1.415,10.586-1.048c3.328,0.266,6.357-0.167,9.088-1.299
	c1.631-0.666,3.961-1.881,6.99-3.645c2.563-1.232,5.342-2.098,8.338-2.597c4.527-0.666,7.207-1.897,8.039-3.695
	C321.867,296.895,320.503,294.881,316.907,292.717z M97.088,213.703c0.027,0.068,0.055,0.134,0.082,0.2
	c-0.031,0.06-0.061,0.119-0.091,0.178L97.088,213.703z M83.781,206.937c-2.63-11.584-3.978-20.388-4.044-26.413l4.344,17.076
	c2.981,10.05,6.132,17.646,9.452,22.805c-1.317,2.169-2.731,4.325-4.241,6.468C87.55,221.984,85.713,215.341,83.781,206.937z"/>
</svg>
