<?xml version="1.0" encoding="utf-8"?>
<!-- Generator: Adobe Illustrator 16.0.0, SVG Export Plug-In . SVG Version: 6.00 Build 0)  -->
<!DOCTYPE svg PUBLIC "-//W3C//DTD SVG 1.1//EN" "http://www.w3.org/Graphics/SVG/1.1/DTD/svg11.dtd">
<svg version="1.1" id="图层_1" xmlns="http://www.w3.org/2000/svg" xmlns:xlink="http://www.w3.org/1999/xlink" x="0px" y="0px"
	 width="235px" height="291px" viewBox="0 0 235 291" enable-background="new 0 0 235 291" xml:space="preserve">
<path d="M231.699,121.745c-1.733-3.567-4.385-6.235-7.951-8.002c-5.435-2.734-11.02-3.901-16.754-3.5
	c-3.259,0.223-6.298,0.977-9.133,2.229l-2.57-7.781c-1.1-3.667-1.482-6.368-1.149-8.102c1.233-6.401,1.667-10.936,1.3-13.603
	c-0.3-1.867-0.566-3.018-0.8-3.451c-0.3-0.6-0.667-0.267-1.101,1l-1.55,4.501c-0.601,1.734-1.134,2.884-1.601,3.451
	c-0.166-5.435-0.367-8.968-0.6-10.602c-0.634-4.435-1.951-8.219-3.951-11.353c-0.6-0.9-1.066-1.167-1.4-0.8
	c-0.301,0.333-0.417,0.967-0.35,1.9c0.066,0.934-0.117,2.567-0.551,4.901c-0.434,2.5-0.883,4.151-1.35,4.951
	c-0.467-2.267-1.067-4.451-1.801-6.551c-0.9-2.601-1.783-4.417-2.65-5.451c-0.701-0.833-1.168-1.034-1.4-0.6
	c-0.134,0.2-0.233,0.817-0.301,1.851c-0.1,1.434-0.482,3.167-1.15,5.201l-1.199,3.551c-4.368,1.5-7.985,4.467-10.853,8.902
	c-1.267,1.967-5.352,4.751-12.253,8.352c-3.383,1.783-6.481,3.283-9.317,4.519c-0.189-0.325-0.358-0.66-0.484-1.018l-3.051-6.751
	l-2.351-4.651l10.352-17.304l4.602,0.15c2.434-0.5,4.184-1.951,5.251-4.351c0.534-1.133,0.684-2.517,0.45-4.151
	c-0.199-1.734-0.767-3.117-1.7-4.151c-1.667-1.867-3.7-2.75-6.102-2.65c-2.501,0.1-4.551,1.25-6.151,3.451
	c-1.467,2.034-1.633,4.684-0.5,7.952l-6.602,4.801l-7.151,5.501c-0.934-1.234-2.483-2.584-4.651-4.051
	c-2.533-1.734-4.984-2.917-7.351-3.551c0.534-25.372,3.717-46.427,9.552-63.164c0.733-2.034,0.867-3.067,0.4-3.101
	c-0.334,0-1.251,0.617-2.751,1.85c-5.334,4.401-10.569,12.303-15.704,23.705c-5.434,12.003-8.352,22.855-8.751,32.557
	c-2.567-3.634-5.301-9.269-8.202-16.904c-2.367-6.168-3.75-10.419-4.151-12.752c-0.433-2.401-1.067-1.934-1.9,1.4
	c-1.733,7.002-2.233,14.32-1.5,21.955c0.6,6.035,1.884,11.769,3.851,17.204c-2.567,0.633-5.051,1.717-7.452,3.25
	c-2.467,1.567-4.234,3.217-5.301,4.951l-14.203-9.252c0.667-1.667,1-3.051,1-4.151c0-2.701-1.367-4.901-4.101-6.602
	c-1.567-0.967-3.484-1.05-5.751-0.25c-2.634,0.9-4.201,2.851-4.701,5.851c-0.167,1.034-0.017,2.134,0.45,3.301
	c0.467,1.3,1.2,2.351,2.201,3.151c1.166,0.987,2.379,1.602,3.639,1.858c-2.502,0.924-4.543,1.919-6.09,2.993
	c-3.601,2.434-6.718,5.968-9.352,10.602c-0.7-3.134-1.534-5.568-2.5-7.301l-1.35-2c-0.4-0.367-0.55-0.05-0.45,0.95
	c0.7,5.935-0.05,10.552-2.25,13.853l-2.701,3.851l-3.801,5.801c-7.901,12.703-12.586,19.854-14.053,21.455
	c-2.334,2.601-4.435,5.451-6.301,8.552c-2.801,4.634-3.968,8.318-3.501,11.052c0.467,2.467,1.601,5.351,3.401,8.652
	c2.034,3.734,4.034,6.168,6.001,7.302l3.401,0.149c0.967,1.668,2.267,2.718,3.901,3.151l3.751-0.15
	c1.233,0.601,2.534,0.917,3.9,0.95c1.467,0.033,2.567-0.283,3.301-0.95c1.801,0.968,3.768,1.334,5.901,1.101
	c2.601-0.301,4.634-1.5,6.102-3.602c1.633,0.334,2.9,0.217,3.801-0.35c1.867-1.166,2.917-4.018,3.15-8.552
	c0.1-2.267,1.2-4.234,3.301-5.901c1.834-1.467,2.867-3.3,3.101-5.501c0.333-3.234-1.1-6.901-4.301-11.002
	c0.741-1.563,1.439-3.036,2.099-4.424c2.442,1.318,6.978,3.68,13.603,7.082c0.001,1.532,0.155,2.941,0.502,4.194
	c0.233,0.833,0.517,1.284,0.85,1.35c0.4,0.067,0.95-0.367,1.65-1.3l1.558-1.906c0.266,0.136,0.521,0.267,0.793,0.406
	c2.565,1.314,4.825,2.511,6.797,3.594c-0.023,2.423-0.986,5.607-2.896,9.559c-2.967,6.368-5.101,11.803-6.401,16.303
	c-1.467,5.135-2.2,10.137-2.2,15.004c0,4.234,0.767,8.484,2.3,12.752c1.467,4.102,3.817,8.636,7.052,13.604l-1.9,2.301
	c-6.635,6.234-8.168,12.919-4.601,20.055l-7.102,2.35c-7.368,2.668-12.619,4.852-15.753,6.552c-5.768,3.134-8.652,6.368-8.652,9.702
	c0,0.312,0.046,0.695,0.125,1.132c-0.333,0.241-0.673,0.496-1.025,0.769c-2.901,2.2-4.935,4.351-6.102,6.451
	c-1.034,1.9-1.684,3.851-1.95,5.852c-0.2,1.5-0.184,2.768,0.05,3.801c0.2,0.867,0.417,1.367,0.65,1.5c0.3,0.2,0.8,0,1.5-0.6
	c1.734-1.4,3.584-2.718,5.551-3.951c2.234-1.367,4.084-2.284,5.551-2.751l2.962-0.722c1.095,0.778,2.316,1.53,3.661,2.256
	c-0.779,0.856-1.387,1.646-1.822,2.367c-1.7,2.834-1.917,6.234-0.65,10.201c0.367,1.135,0.934,1.617,1.7,1.451
	c0.534-0.1,1.567-0.733,3.101-1.9c4.435-3.268,7.252-5.135,8.452-5.602l2.99-1.518c0.743,0.144,1.481,0.271,2.211,0.367
	c2.667,0.301,5.234-0.05,7.701-1.05c2.167-0.9,5.001-2.685,8.502-5.351c4.634-4.102,8.002-6.902,10.102-8.402
	c7.414-5.211,10.954-9.613,10.634-13.207l1.719-3.697c0.367-0.732,0.467-1.3,0.3-1.699l-0.55-0.451l-4.501-0.449h-1.832
	c-0.681-0.453-1.263-0.751-1.719-0.851c-0.767-1-1.4-2.501-1.9-4.501c-0.734-2.867-0.284-4.9,1.35-6.102
	c6.602,3.367,13.453,5.568,20.554,6.602c10.306,1.463,20.693,0.389,31.165-3.22c0.044,0.009,0.088,0.018,0.133,0.025
	c1.253,1.629,2.507,3.894,3.76,6.796c0.8,1.8,1.417,3.434,1.851,4.9c-0.229,0.392-0.451,0.827-0.67,1.29l-4.082,0.261l-0.5,0.449
	c-0.166,0.4-0.066,0.967,0.301,1.701l2.207,4.746c-0.028,0.341-0.057,0.681-0.057,1.005c0,1,0.334,2.101,1,3.301l2.301,3.301
	c2.934,3.801,5.568,7.602,7.901,11.402l4.552,7.852l3.75,5.951c1.334,1.9,2.784,3.534,4.352,4.901
	c1.945,1.733,5.167,2.077,9.636,1.065l2.267,1.635c1.133,0.667,3.567,3.001,7.301,7.001c1.334,1.4,2.268,2.218,2.801,2.451
	c0.701,0.267,1.334-0.133,1.9-1.2c1.934-3.734,2.284-7.118,1.051-10.152c-0.668-1.677-1.587-3.349-2.742-5.017
	c0.813-0.486,1.627-0.991,2.441-1.535c1.136-0.763,2.151-1.46,3.059-2.099l1.943,0.849c1.4,0.734,3.066,1.967,5,3.701
	c1.801,1.6,3.401,3.217,4.802,4.852c0.601,0.699,1.05,0.982,1.351,0.85c0.267-0.1,0.566-0.551,0.9-1.351
	c0.399-1.033,0.633-2.284,0.699-3.751c0.066-2.033-0.25-4.067-0.949-6.102c-0.768-2.267-2.385-4.734-4.852-7.4
	c-0.504-0.548-0.985-1.04-1.451-1.493c-0.006-0.667-0.084-1.352-0.249-2.058c-0.567-2.4-2.301-4.918-5.201-7.553
	c-1.9-1.699-5.201-4.15-9.902-7.352c-8.868-6-15.103-11.085-18.704-15.253c-0.733-2.101-2.134-5.401-4.201-9.901l-1.632-3.434
	c6.715-3.906,11.984-9.405,15.785-16.521c2.167-4.033,4.384-10.451,6.651-19.254l1.049-4.282c0.458-0.195,0.936-0.422,1.452-0.719
	l1.05,0.9c0.4,0.3,0.783,0.433,1.15,0.399c1.434-0.066,3.15-0.949,5.151-2.65c1.533-1.267,2.934-2.717,4.2-4.351
	c1.9-2.434,2.885-6.019,2.951-10.753l-0.65-11.852c-0.165-3.154-0.58-6.401-1.191-9.721c0.874-0.449,1.834-0.846,2.893-1.181
	c3.767-1.167,6.951-1.184,9.551-0.05c3.234,1.4,6.252,1.884,9.053,1.45c2.9-0.5,4.885-1.884,5.951-4.151
	C233.633,128.98,233.5,125.479,231.699,121.745z M59.18,73.833c1.134,1.416,2.509,3.245,4.133,5.502l0.506,0.729
	c-2.057-1.053-4.142-1.87-6.257-2.43c0.2-1.2,0.684-2.4,1.45-3.601L59.18,73.833z M165.885,136.898
	c-0.676,1.579-1.823,3.223-3.442,4.934c-4.341-6.495-9.646-12.823-15.887-18.991c0.344-0.132,0.68-0.263,1.026-0.396
	c6.026-2.291,9.62-4.977,10.799-8.057c2.346-0.97,4.835-1.982,7.504-3.046c0.501,1.4,0.967,5.901,1.4,13.503
	C167.619,129.98,167.152,133.998,165.885,136.898z M54.662,71.634c0.107-0.097,0.18-0.175,0.261-0.257
	c0.556-0.088,1.117-0.225,1.689-0.443c0.472,0.435,1.07,1.088,1.787,1.944l-0.237,0.006c-1.4,0.233-2.701,0.617-3.901,1.15
	l-3.151,1.9C52.111,74.335,53.295,72.901,54.662,71.634z"/>
</svg>
