<?xml version="1.0" encoding="utf-8"?>
<!-- Generator: Adobe Illustrator 16.0.0, SVG Export Plug-In . SVG Version: 6.00 Build 0)  -->
<!DOCTYPE svg PUBLIC "-//W3C//DTD SVG 1.1//EN" "http://www.w3.org/Graphics/SVG/1.1/DTD/svg11.dtd">
<svg version="1.1" id="图层_1" xmlns="http://www.w3.org/2000/svg" xmlns:xlink="http://www.w3.org/1999/xlink" x="0px" y="0px"
	 width="348px" height="320px" viewBox="0 0 348 320" enable-background="new 0 0 348 320" xml:space="preserve">
<path d="M347.65,103.49c-0.466-1.065-2.73-1.748-6.792-2.047c-2.448-0.209-5.207-0.249-8.244-0.136
	c-0.082-0.13-0.158-0.262-0.244-0.391c3.13-3.593,5.119-6.239,5.941-7.913c0.499-1.032,0.565-1.748,0.199-2.147
	c-0.565-0.666-2.63-0.4-6.192,0.799c-2.076,0.692-4.296,1.556-6.644,2.574c-0.061-0.042-0.119-0.089-0.18-0.131
	c1.535-3.558,2.45-6.03,2.728-7.388c0.2-0.832,0.116-1.382-0.25-1.648c-0.866-0.61-4.172,1.218-9.902,5.471
	c-0.533-0.156-1.058-0.287-1.572-0.393c0.178-2.309,0.208-3.906,0.088-4.778c-0.066-0.6-0.25-0.966-0.549-1.099
	c-0.979-0.537-3.114,1.493-6.4,6.08c-0.266,0.083-0.534,0.16-0.792,0.263c-1.032,0.433-1.964,0.999-2.797,1.698l-0.515,0.515
	c-4.231-5.02-6.859-7.394-7.875-7.108c-0.732,0.2-1.748,1.282-3.047,3.247l-0.28,0.469c-1.387-1.373-2.313-2.067-2.767-2.067
	c-0.476,0-1.34,0.589-2.587,1.758c-2.328-2.286-3.949-3.393-4.854-3.307c-0.633,0.067-1.664,0.866-3.096,2.397
	c-0.973,1.053-1.848,2.147-2.666,3.266l-2.031-1.673c1.035-1.149,1.939-2.41,2.699-3.791c1.598-2.963,2.348-6.126,2.248-9.489
	c-0.067-2.663-0.699-5.21-1.898-7.641c-1.232-2.497-2.996-4.711-5.294-6.642c-2.964-2.53-6.575-4.378-10.837-5.544
	c-2.02-0.565-4.019-0.927-5.999-1.092c-1.108-0.681-2.092-1.594-2.941-2.753c-1.032-1.332-1.515-2.48-1.448-3.446
	c0.033-1.032,0.6-2.114,1.697-3.246l3.496-2.997l3.597-3.046c1.132-1.199,1.781-2.464,1.948-3.796
	c0.332-2.331-0.467-4.461-2.398-6.393c-1.231-1.265-3.113-2.547-5.643-3.846c-2.164-1.099-3.813-2.064-4.945-2.896
	c-2.164-1.565-3.229-3.03-3.195-4.395c0.1-2.131,0.982-4.345,2.646-6.643l3.546-4.045c0.433-0.5,0.583-0.833,0.45-0.999l-1-0.25
	l-4.744,0.499c0.333-0.766,0.816-1.615,1.448-2.547l1.599-2.297l1.099-1.948c0.066-0.333-0.183-0.516-0.749-0.549
	c-4.361-0.1-8.391,1.615-12.086,5.144c-2.697,2.564-4.545,5.21-5.544,7.941c-2.431-1.765-5.261-2.464-8.49-2.098l-4.296,1.148
	c-0.732,0.367-0.781,0.783-0.149,1.249c2.83,2.264,4.245,4.079,4.245,5.443c0,0.766-0.799,2.198-2.396,4.295
	c-1.632,2.097-2.447,3.845-2.447,5.244c0,2.531,1.631,4.528,4.895,5.993l2.146,0.699c2.231,0.966,3.596,1.648,4.096,2.048
	c0.799,0.632,1.199,1.564,1.199,2.797l-0.101,1.848l-2.447-0.699l-3.796-0.799l-1.049,0.2c-0.1,0.167-0.016,0.549,0.25,1.148
	l1.299,2.048c0.832,1.398,1.448,2.796,1.848,4.195l-4.445-1.798h-1.148c-0.232,0.133-0.133,0.516,0.3,1.149l1.149,3.096
	c0.367,2.177-0.065,4.197-1.278,6.063l-3.317-1.019c-2.064-0.833-3.596-1.948-4.594-3.346c-0.8-1.166-1.049-3.013-0.75-5.544
	l1.249-6.492c0.699-3.696,0.517-6.11-0.55-7.242c-1.099-1.199-3.795-1.682-8.09-1.448l-9.189,0.899
	c-4.162,0.333-6.775,0.05-7.842-0.849c-0.799-0.699-1.299-1.598-1.498-2.697c-0.133-0.899-0.133-2.531,0-4.895l0.449-4.495
	c0.1-1.964-0.25-3.346-1.049-4.146c-0.666-0.632-1.697-0.866-3.096-0.699l-5.095,0.45c-1.798,0-3.662-0.949-5.593-2.847
	l-2.397-2.897l-0.849-0.649c-0.366,0-0.549,0.533-0.549,1.598c0,1.465,0.283,3.113,0.849,4.944c-3.196-1.798-5.71-4.479-7.542-8.041
	c-0.632-1.132-1.148-1.698-1.548-1.698c-0.4,0-0.683,0.466-0.849,1.398c-0.633,3.762-0.699,6.775-0.2,9.039
	c0.799,3.696,3.096,6.776,6.892,9.24c2.197,1.398,3.513,2.347,3.945,2.847c0.699,0.833,0.766,1.848,0.2,3.046l-3.846,6.542
	c-1.465,2.73-1.781,4.944-0.949,6.643c0.533,1.099,1.582,2.114,3.146,3.046l4.645,2.147c4.961,2.098,7.892,3.596,8.79,4.495
	c1.199,1.198,2.314,4.045,3.346,8.54c0.098,0.414,0.2,0.797,0.305,1.166l-1.104,1.98c-0.633,1.564-0.649,2.68-0.05,3.346
	l0.749,0.799l1.498,1.948l1.012,1.59c-0.268,0.795-0.488,1.645-0.611,2.605c-3.797-2.231-6.526-3.579-8.191-4.045l-1.848,0.1
	c-0.232,0.166-0.35,0.416-0.35,0.749c0,0.533,0.333,1.481,0.999,2.847l3.646,6.692l1.498,2.747l-1.854,2.128l-21.969-30.746
	c-2.064-2.963-3.646-4.195-4.745-3.696c-0.433,0.167-0.716,0.666-0.849,1.499c-0.233,1.032-0.183,2.38,0.15,4.045l8.523,43.096
	c-1.221,0.691-2.399,1.484-3.536,2.377c-21.461-16.249-33.167-25.067-35.103-26.445c-2.297-1.665-3.929-2.114-4.895-1.348
	c-0.999,0.866-0.882,2.68,0.35,5.443l13.784,27.219l13.221,25.901c-0.525,0.408-1.033,0.825-1.539,1.244
	c-28.932-11.383-44.902-17.587-47.89-18.605c-2.531-0.799-4.129-0.732-4.795,0.2c-0.666,0.999-0.183,2.48,1.449,4.445l18.129,18.829
	l17.066,17.452c-0.204,0.566-0.398,1.137-0.582,1.712l-19.331-1.035l-21.925-1.099c-2.098-0.066-3.346,0.433-3.746,1.498
	c-0.2,0.5-0.15,1.082,0.15,1.748c0.399,0.899,1.182,1.798,2.347,2.696l34.523,23.52c-2.16,2.113-4.114,4.543-5.856,7.296
	c-1.143,1.792-2.085,3.57-2.851,5.338c-16.348-2.104-31.73-7.29-46.143-15.576c-11.004-6.327-19.998-13.633-26.982-21.913
	c-0.255-1.531-0.116-3.115,0.462-4.756c0.533-1.565,1.515-3.379,2.947-5.444c1.598-2.264,2.264-4.045,1.998-5.344
	c-0.2-0.999-1.298-2.53-3.296-4.595c-1.198-1.265-1.831-2.597-1.897-3.996c-0.067-0.632,0.133-2.264,0.599-4.894
	c0.433-2.364,0.433-4.012,0-4.944c-1.065-2.364-4.179-4.345-9.339-5.943c-3.03-0.932-4.911-1.931-5.644-2.997
	c-0.566-0.732-0.15-1.964,1.249-3.696l3.546-3.746l1.249-1.298c0.433-0.6,0.233-2.015-0.6-4.245l-2.747-6.293
	c-0.5-1.065-0.949-1.049-1.349,0.05c-1.065,2.897-2.164,4.378-3.296,4.445c-0.466,0.033-0.949-0.133-1.448-0.5
	c-0.566-0.433-1.032-1.049-1.398-1.848c-0.533-1.232-0.25-3.329,0.849-6.292c0.799-2.231,1.831-4.395,3.096-6.493
	c0.333-0.5,0.433-0.833,0.3-0.999l-1.049-0.1c-2.131,0.399-3.945,1.415-5.444,3.046c-0.766-2.431-2.314-4.545-4.645-6.343
	c-1.265-0.999-2.48-1.731-3.646-2.197l-0.999-0.1c-0.3,0.167-0.3,0.533,0,1.099l0.899,2.497c0.599,1.965,0.899,3.829,0.899,5.594
	c0,1.731-0.366,3.196-1.099,4.395l-3.346,4.095l-2.248,2.697c-0.666,0.966-0.999,1.898-0.999,2.797c0,0.999,0.399,2.015,1.198,3.046
	c3.763,4.861,5.644,8.241,5.644,10.139c0,0.399-0.1,0.666-0.299,0.799l-4.096,4.146c-1.831,2.264-2.747,4.345-2.747,6.243
	c0,0.599,0.3,1.349,0.899,2.248l2.197,3.346c1.232,1.931,1.898,3.346,1.998,4.245c-2.73-1.232-5.394-1.482-7.991-0.75
	c-0.433,0.1-0.649,0.283-0.649,0.55c-0.033,0.233,0.083,0.466,0.35,0.699c1.831,1.598,3.346,3.096,4.545,4.495
	c1.265,1.498,1.881,2.53,1.848,3.096l-1.398,3.596c-0.899,2.264-1.332,4.312-1.298,6.143c0,1.765,0.5,2.963,1.498,3.596
	c1.798,1.199,6.01,2.264,12.636,3.196l5.394,1.198c2.364,0.6,3.979,1.115,4.845,1.549l-2.098,1.198c-0.6,0.6-0.5,1.016,0.299,1.249
	c0.2,0,1.482,0.383,3.846,1.148c2.289,0.706,3.996,1.328,5.134,1.867c5.502,11.88,12.325,22.716,20.487,32.493
	c12.552,15.083,27.169,26.337,43.85,33.761c7.18,3.185,14.435,5.612,21.761,7.304c-0.063,0.215-0.122,0.414-0.186,0.638
	l-2.004,7.443c-2.413-0.117-5.54,3.158-9.383,9.837c-2.198,3.862-5.061,9.339-8.59,16.431c-2.131,3.763-3.413,6.809-3.846,9.14
	c-0.613,3.252-0.082,6.462,1.566,9.629c-0.673,2.432-1.063,5.196-1.167,8.301c-0.133,3.763,0.066,6.459,0.599,8.091
	c0.266,0.732,0.5,1.115,0.699,1.148c0.433,0.1,1.298-0.416,2.597-1.549l2.047-2.047l2.997-3.146l2.752-2.676
	c4.072,1.2,8.858,1.715,14.378,1.527c3.513-0.112,6.51-0.43,9.002-0.945c0.063,0.415,0.116,0.813,0.187,1.244
	c0.566,3.43,1.182,6.076,1.848,7.941c0.5,1.332,0.899,2.081,1.199,2.248c0.433,0.232,1.149-0.084,2.147-0.949
	c2.531-2.098,4.861-4.979,6.992-8.641c0.819-1.412,1.457-2.759,1.955-4.055c3.465-0.96,5.688-2.896,6.635-5.834
	c1.099-3.329,1.032-8.989-0.2-16.98l-0.899-6.342c-0.533-3.93-1.265-7.393-2.197-10.389c-0.999-3.163-2.031-5.127-3.097-5.894
	c-0.029-0.022-0.062-0.034-0.092-0.055l2.989-8.835l0.848-2.63c16.66-0.766,33.39-4.882,50.189-12.357
	c4.905-0.679,9.752-2.015,14.537-4.04c0.215-0.091,0.42-0.193,0.633-0.287c1.258,1.237,2.723,2.313,4.406,3.216l-0.244,4.812
	c-0.027,0.563-0.053,1.096-0.075,1.609c-2.448,0.581-4.705,1.806-6.767,3.685c-2.197,1.998-3.713,4.278-4.545,6.843
	c-0.933,2.83-1.049,5.709-0.35,8.64c0.565,2.431,1.531,4.429,2.896,5.993c1.765,2.031,4.278,3.646,7.541,4.844
	c2.431,0.933,5.494,1.682,9.189,2.248c2.564,0.399,5.045,1.215,7.441,2.447l4.146,2.547c5.161,3.363,9.289,5.51,12.386,6.443
	c4.408,1.36,9.088,1.322,14.032-0.094l2.948,0.842l7.491,2.148l3.296,0.199c0.467-0.199,0.699-0.649,0.699-1.349
	c-0.029-1.761-1.058-4.132-3.079-7.109l1.731-1.231l3.009-2.424c0.597,0.221,1.222,0.445,1.886,0.676
	c4.761,1.633,8.141,2.48,10.138,2.548c0.633,0.033,1.082-0.083,1.349-0.35l0.35-0.949l-0.05-0.449
	c-0.333-2.131-2.064-5.177-5.194-9.14c-2.403-3.091-4.828-5.451-7.273-7.103c-1.282-3.148-3.561-5.564-6.86-7.231
	c-1.331-0.699-5.144-2.014-11.437-3.945c-4.895-1.531-8.374-2.713-10.438-3.545c-2.94-1.187-5.132-2.383-6.594-3.589l0.798-7.018
	c4.061-1.956,7.643-4.992,10.739-9.122c4.629-6.192,6.709-13.384,6.243-21.574c-0.366-6.693-2.581-12.436-6.643-17.23
	c-2.583-3.065-5.69-5.52-9.313-7.376c0.178-4.173,0.072-8.669-0.325-13.5c-0.514-6.241-1.402-12.021-2.665-17.34l6.061-0.389
	c4.994-0.933,8.906-2.963,11.736-6.093c1.921-2.116,3.342-4.443,4.293-6.968c1.639,2.034,2.691,3.03,3.148,2.972
	c0.733-0.1,2.248-1.548,4.545-4.345c0.677-0.846,1.268-1.616,1.818-2.351l5.024,1.952c0.466,0.2,0.882,0.033,1.249-0.5
	c0.942-1.537,1.771-2.912,2.508-4.161c0.399,1.321,0.729,2.245,0.988,2.762l0.599,0.549l3.546,0.1l3.446-0.549
	c0.301-0.25,0.469-1.208,0.505-2.871c1.812,1.111,2.979,1.672,3.49,1.672c0.805-0.176,2.15-2.167,4.037-5.969
	c0.719,0.375,1.585,0.734,2.605,1.074c1.531,0.466,2.497,0.599,2.896,0.399c0.618-0.322,1.648-3.349,3.091-9.073
	c1.833,1.062,3.842,1.833,6.049,2.281c2.279,0.468,4.355,0.486,6.25,0.107c8.708,3.117,13.541,4.617,14.476,4.488l0.45-0.35
	c0.267-0.6-0.816-2.797-3.246-6.592c-1.215-1.892-2.166-3.316-2.865-4.294c0.322-0.777,0.562-1.605,0.707-2.491
	c5.512-2.705,9.205-4.726,11.048-6.051C347.351,104.722,347.85,104.022,347.65,103.49z M189.917,96.167l-3.478-4.852
	c1.274,0.695,2.313,1.229,3.089,1.582C189.624,94.011,189.754,95.1,189.917,96.167z"/>
</svg>
