<?xml version="1.0" encoding="utf-8"?>
<!-- Generator: Adobe Illustrator 16.0.0, SVG Export Plug-In . SVG Version: 6.00 Build 0)  -->
<!DOCTYPE svg PUBLIC "-//W3C//DTD SVG 1.1//EN" "http://www.w3.org/Graphics/SVG/1.1/DTD/svg11.dtd">
<svg version="1.1" id="图层_1" xmlns="http://www.w3.org/2000/svg" xmlns:xlink="http://www.w3.org/1999/xlink" x="0px" y="0px"
	 width="451px" height="337px" viewBox="0 0 451 337" enable-background="new 0 0 451 337" xml:space="preserve">
<path d="M448.951,100.509c-0.8-0.366-2.231,0.483-4.297,2.548c-2.664,2.698-6.41,4.912-11.239,6.644
	c-4.071,1.465-8.015,2.338-11.831,2.625c-1.53-1.645-2.561-2.863-3.056-3.625c-1.166-1.798-1.433-4.496-0.8-8.093
	c0.233-1.399-0.25-2.764-1.448-4.096c-0.282-0.298-0.604-0.588-0.952-0.873c1.219-2.829,1.694-6.557,1.401-11.216
	c-0.399-5.928-1.898-11.14-4.496-15.636c-1.499-2.564-2.681-3.847-3.547-3.847c-0.966-0.033-1.565,1.499-1.798,4.596
	c-0.3,3.73-1.299,7.959-2.998,12.688c-1.238,3.355-2.563,6.188-3.969,8.523c-3.547-0.049-5.963,0.684-7.221,2.218
	c-2.731,3.397-5.313,5.245-7.743,5.545l-6.744-0.6l-7.213,0.247c-2.827-2.44-5.005-5.119-6.525-8.04
	c-1.032-1.965-1.948-2.897-2.747-2.797c-0.833,0.066-1.415,1.215-1.748,3.447c-0.866,5.895-0.334,11.14,1.598,15.736
	c0.611,1.43,1.309,2.704,2.081,3.839c0.007,0.069,0.01,0.137,0.018,0.207c0.267,2.731,1.082,5.195,2.448,7.394
	c0.898,1.432,1.947,2.464,3.146,3.097l2.848,0.799c0.966,0.167,1.648,0.433,2.048,0.799c0.566,0.566,0.866,1.582,0.899,3.047
	c0.167,5.762,0.416,9.242,0.749,10.441c0.049,0.181,0.118,0.337,0.173,0.511c-0.132,0.138-0.26,0.281-0.372,0.438
	c-0.966,1.432-1.433,4.18-1.398,8.243c0.033,2.132-0.25,4.479-0.85,7.044c-0.6,2.731-1.482,5.329-2.647,7.793
	c-9.492,20.215-18.518,32.122-27.076,35.718c-0.742,0.303-1.359,0.691-1.881,1.146c-3.238,0.214-5.761,0.116-7.561-0.298
	c-1.199-0.299-2.365-0.865-3.497-1.697l-1.382-1.097c-0.153-0.268-0.299-0.536-0.467-0.802c-1.498-2.332-3.347-3.397-5.545-3.197
	c-3.131,0.266-5.045,0.25-5.745-0.051c-0.799-0.365-1.698-1.631-2.697-3.796l-2.697-5.695c-2.265-3.896-4.413-6.777-6.444-8.642
	c-0.482-0.454-0.971-0.849-1.462-1.218c-0.066-0.46-0.115-0.92-0.187-1.38c-0.698-4.412-1.547-8.337-2.541-11.791
	c5.869-3.577,11.745-8.736,17.627-15.485c1.229-1.409,2.401-2.847,3.534-4.304l2.511,0.957l6.943,2.498l2.448-0.15
	c0.3-0.5,0.217-1.399-0.25-2.698c-1.27-3.588-2.721-7.43-4.333-11.498c5.327-9.288,8.99-19.423,10.978-30.415
	c1.375-7.609,1.744-15.066,1.136-22.374c2.967-3.166,4.374-4.837,4.209-5.001c-0.192-0.161-1.865-0.59-4.989-1.281
	c-1.737-10.639-5.604-20.955-11.646-30.94c-2.144-3.541-4.492-6.912-7-10.15c0.189-0.751,0.375-1.635,0.556-2.688
	c0.566-3.463,0.666-5.329,0.3-5.595c-0.267-0.2-1.599,0.1-3.996,0.899c-0.929,0.319-1.703,0.595-2.341,0.832
	c-4.799-5.262-10.144-10.071-16.044-14.42c-6.594-4.862-10.807-6.527-12.639-4.996c-1.165,0.999-0.398,4.063,2.299,9.192
	c2.473,5.099,4.681,10.592,6.626,16.472l-1.431,1.413c-2.598,2.664-3.83,4.196-3.697,4.596c0.134,0.366,2.481,0.849,7.044,1.449
	l0.361,0.04c3.791,13.646,4.626,24.943,2.501,33.888l-2.013-0.208c-1.366-0.067-2.282,0.1-2.748,0.5
	c-0.433,0.366-0.416,0.899,0.05,1.598l2.84,4.097c-2.788,7.589-6.743,14.502-11.881,20.731c-0.969,1.183-2.092,2.439-3.339,3.755
	c-3.159-1.227-6.3-2.412-9.4-3.505c-1.266-0.433-2.048-0.517-2.348-0.25c-0.333,0.3-0.25,1.116,0.249,2.448l2.549,6.944l0.823,2.145
	c-1.347,1.197-2.759,2.424-4.271,3.7l-4.263,3.769c-14.768-10.005-32.709-14.764-53.836-14.259
	c-6.328,0.167-13.271,1.582-20.831,4.247c-8.559,3.03-16.286,7.177-23.18,12.438c-0.042,0.032-0.081,0.066-0.124,0.099
	c-7.142-2.697-14.489-7.744-22.039-15.135l3.83-9.342c0.5-1.332,0.5-2.215,0-2.648l-2.548,0.05c-3.753,1.33-6.788,2.422-9.156,3.294
	c-2.577-3.216-4.775-6.441-6.584-9.676l3.351-6.906c0.633-1.199-0.167-1.715-2.397-1.549l-4.665,0.379
	c-0.382-1.058-0.73-2.117-1.031-3.177c-2.697-9.625-4.063-19.366-4.096-29.224c0-9.525,1.216-16.985,3.647-22.38l2.248-6.245
	c0.433-1.632,0.517-2.614,0.25-2.947c-0.5-0.633-1.599-0.516-3.297,0.35c-1.999,1.032-4.629,2.997-7.893,5.895
	c-6.395,5.895-11.956,13.921-16.685,24.079c-0.488,1.05-0.943,2.109-1.391,3.17l-2.806,0.576c-3.73,0.833-5.612,1.382-5.645,1.649
	c-0.067,0.566,1.315,2.547,4.146,5.944l0.959,1.093c-5.053,16.654-5.416,34.554-1.059,53.708c0.997,4.373,2.356,8.588,4.055,12.658
	c-1.386,1.946-2.524,3.675-3.405,5.176c-1.432,2.464-1.999,3.996-1.699,4.596c0.4,0.766,2.548,1.416,6.444,1.948l5.015,0.361
	c4.068,6.317,9.117,12.21,15.167,17.673c7.137,6.443,14.44,11.421,21.907,14.949c-0.028,1.312-0.021,2.64,0.023,3.984
	c0.003,0.091,0.008,0.174,0.011,0.265c-3.412,1.912-6.514,6.333-9.303,13.273c-1.266,3.264-2.731,5.245-4.396,5.944l-3.347,0.5
	c-1.272,0.388-2.16,1.253-2.674,2.582l-1.472,0.615c-0.367,0.399-0.982,0.716-1.849,0.949c-1.665,0.399-3.73,0.199-6.194-0.6
	c-1.632-0.566-3.197-0.799-4.696-0.699c-0.898,0.07-1.687,0.25-2.38,0.525c-4.197-4.755-8.897-11.47-14.105-20.158
	c-5.995-9.991-9.608-17.567-10.84-22.729c-0.699-3.097-1.399-5.429-2.098-6.994c-0.899-1.965-2.015-3.347-3.347-4.146
	c-0.814-0.494-1.77-0.8-2.852-0.936c0.299-0.677,0.584-1.253,0.854-1.712c0.933-1.532,2.131-2.73,3.597-3.597
	c1.332-0.766,2.331-2.431,2.998-4.996c0.489-1.902,0.662-3.785,0.535-5.647c2.46-1.862,4.203-4.387,5.21-7.59
	c1.132-3.597,1.249-7.843,0.35-12.739c-0.466-2.464-1.099-3.63-1.898-3.497c-0.733,0.067-1.749,1.199-3.047,3.397
	c-1.266,2.165-3.281,4.246-6.045,6.245c-0.485,0.36-0.982,0.703-1.483,1.037c-1.418-0.936-2.953-1.475-4.611-1.586
	c-5.961-0.433-9.725-1.082-11.29-1.948c-1.199-0.699-2.797-2.831-4.796-6.394c-0.633-1.166-1.815-1.948-3.547-2.348
	c-1.416-0.299-3.112-0.305-5.061-0.049c-1.192-2.572-3.482-5.153-6.878-7.744c-4.163-3.197-8.726-5.512-13.688-6.944
	c-1.932-0.533-3.197-0.383-3.797,0.45c-0.599,0.833-0.316,2.065,0.849,3.697c1.898,2.697,3.647,5.995,5.246,9.891
	c1.236,3.078,1.987,5.554,2.268,7.447c-1.516,1.331-2.396,2.662-2.617,3.993c-0.2,1.166-0.1,3.53,0.3,7.094
	c0.2,1.832,0.167,3.164-0.1,3.996c-0.015,0.052-0.048,0.112-0.065,0.166c-3.232-1.507-7.398-2.02-12.523-1.514
	c-5.562,0.5-10.208,2.048-13.938,4.646c-1.565,1.099-2.198,2.165-1.898,3.197c0.3,1,1.366,1.565,3.197,1.699
	c3.597,0.267,7.876,1.299,12.838,3.097c2.238,0.831,4.152,1.635,5.751,2.414c-0.161,1.756-0.064,3.466,0.293,5.129
	c0.433,1.998,1.266,3.713,2.498,5.146c1.099,1.299,2.448,2.265,4.046,2.897c1.432,0.6,2.897,0.816,4.396,0.649l3.547-0.649
	c2.431-0.333,4.08,0.316,4.946,1.948c1.465,2.765,3.214,4.479,5.245,5.146c1.692,0.595,3.802,0.562,6.311-0.068
	c-0.274,1.557-0.13,2.879,0.434,3.965c0.666,1.333,2.365,2.814,5.096,4.446l4.246,2.348c2.031,1.066,3.364,1.898,3.997,2.498
	c3.23,2.997,7.477,8.143,12.738,15.436c6.161,8.493,11.84,17.451,17.035,26.877c1.299,2.331,2.997,3.996,5.095,4.995
	c1.865,0.833,3.697,1.032,5.495,0.6c0.039-0.009,0.074-0.026,0.113-0.036c0.265,0.034,0.534,0.057,0.808,0.067
	c0.294,0.239,0.602,0.464,0.928,0.668c1.499,0.933,3.114,1.532,4.846,1.799l3.097-0.05c0.799-0.2,1.599-0.6,2.398-1.199l1.698-1.398
	l1.749-1.549c0.899-0.732,1.948-1.282,3.147-1.648c0.283-0.088,0.577-0.144,0.877-0.183c0.691,1.021,1.479,1.738,2.37,2.131
	c1.099,0.466,2.248,0.616,3.447,0.449l1.998-0.3l1.399,0.25c0.6,0.166,1.215,0.566,1.848,1.199c2.265,2.264,5.279,4.046,9.042,5.345
	c2.738,0.955,5.255,1.307,7.568,1.096c1.413,1.989,2.953,3.359,4.621,4.101c-1.032,1.73-1.465,4.229-1.299,7.492
	c0.1,2.299,0.433,4.396,1,6.295c1.132,3.764,3.03,7.477,5.695,11.141c2.431,3.363,4.762,5.711,6.994,7.043l-0.05,0.2
	c0,0.398,0.036,0.815,0.087,1.241c-14.66,2.519-23.86,6.746-27.563,12.696c-0.733,1.132-1.216,2.548-1.449,4.246
	c-0.06,0.4-0.083,0.767-0.1,1.128c-1.532,1.115-3.048,2.457-4.546,4.067c-6.561,7.027-11.207,13.321-13.938,18.884
	c-0.351,0.716-0.649,1.391-0.92,2.044c-0.848,0.219-1.784,0.528-2.827,0.952c-3.164,1.3-5.945,3.015-8.343,5.146
	c-2.997,2.664-5.146,5.278-6.444,7.843c-1.365,2.731-1.665,5.245-0.899,7.543c0.53,1.563,3.692,2.093,9.464,1.597
	c-0.059,0.497-0.059,0.968,0.028,1.4c0.2,0.899,0.616,1.566,1.249,1.998c0.799,0.533,2.131,0.816,3.997,0.85l12.489-0.749
	l10.69-1.099c1.499-0.233,2.531-0.783,3.097-1.648l1.249-2.448l0.814-0.992c0.558,0.955,1.119,1.707,1.684,2.241
	c1.465,1.398,3.613,2.23,6.444,2.498c2.498,0.199,4.379-0.184,5.645-1.149c0.742-0.563,1.553-1.622,2.433-3.167
	c0.961,0.711,1.625,1.449,1.964,2.218c0.299,0.6,0.533,1.515,0.699,2.747c0.399,1.033,1.432,1.766,3.097,2.198
	c2.698,0.633,5.961,1.083,9.792,1.349c5.461,0.367,8.892-0.116,10.291-1.448c0.633-0.633,0.849-1.516,0.649-2.647
	c-0.599-3.598-1.948-7.027-4.046-10.291c-0.268-0.419-0.539-0.82-0.814-1.207c0.003-0.015,0.012-0.027,0.015-0.042
	c0.267-1.433-0.017-3.863-0.849-7.294c-0.042-0.164-0.095-0.332-0.138-0.496c0.338-0.17,0.652-0.385,0.938-0.652l2.947-3.447
	c4.563-4.463,7.776-7.344,9.642-8.643l3.597-2.297l0.846-0.68c8.483,8.682,20.583,13.761,36.321,15.217
	c8.426,0.766,16.436-0.316,24.028-3.248c5.709-2.227,11.349-5.577,16.921-10.029l1.962,4.484c2.531,6.527,4.729,10.824,6.595,12.889
	c0.311,0.338,0.64,0.647,0.98,0.939c-0.956,1.458-1.979,3.167-3.079,5.155c-2.997,5.429-4.663,9.241-4.995,11.44
	c-0.367,2.464,0.532,3.829,2.697,4.096l12.488,0.649c6.328,0.066,10.092-0.267,11.29-0.999c0.467-0.267,1.083-1.199,1.849-2.798
	c0.456-0.975,0.956-1.71,1.489-2.259c0.897,1.143,2.129,1.999,3.706,2.559c1.799,0.633,3.797,0.833,5.995,0.6
	c3.372-0.366,5.52-1.355,6.474-2.953c0.668,0.57,1.03,0.958,1.069,1.154l0.35,1.449c0.3,0.533,0.866,1.032,1.698,1.498
	c2.564,1.399,7.427,2.698,14.588,3.896c8.325,1.366,13.254,0.949,14.786-1.248c1.699-2.398,0.233-8.043-4.396-16.936
	c-2.89-5.53-5.528-9.42-7.919-11.678c1.411-3.478,1.398-7.193-0.074-11.151c-1.698-4.563-5.379-9.625-11.04-15.187
	c-4.33-4.229-7.543-6.961-9.642-8.193c-1.045-0.629-2.148-1.15-3.299-1.587c-2.503-2.508-5.761-5.075-9.789-7.704
	c-3.72-2.442-7.136-4.16-10.251-5.165c0.601-4.229,0.506-8.402-0.29-12.52c1.032-1.398,1.864-3.563,2.498-6.494
	c0.666-2.897,0.999-5.895,0.999-8.992c0-1.376-0.129-2.889-0.385-4.537c0.65-0.058,1.283-0.162,1.883-0.358
	c1.466-0.5,3.631-2.098,6.494-4.795c1.666-1.566,3.697-2.166,6.095-1.799l5.845-0.3c1.025-0.55,1.908-1.568,2.652-3.056l2.993,0.158
	c1.798,0.533,3.963,1.648,6.494,3.347l2.997,1.948c1.133,0.633,2.165,1,3.098,1.1c1.731,0.133,3.113-0.134,4.146-0.8
	c0.801-0.501,1.514-1.269,2.139-2.305c1.23,0.378,2.385,0.459,3.456,0.206c1.532-0.398,2.647-1.082,3.347-2.047
	c0.566-0.733,1.032-1.898,1.399-3.498c0.133-0.666,1.032-2.397,2.697-5.195c0.399-0.699,1.165-1.731,2.298-3.097l3.996-4.796
	c4.363-5.195,8.56-10.757,12.589-16.686c4.862-7.16,8.876-14.021,12.04-20.581c0.532-1.099,1.682-2.365,3.446-3.797l3.247-2.298
	c1.232-0.966,1.849-2.032,1.849-3.197c0-0.145-0.021-0.308-0.06-0.487c1.16-0.058,2.362-0.275,3.606-0.662
	c1.398-0.433,2.964-1.515,4.695-3.247l4.047-4.496c1.898-2.065,3.297-3.43,4.196-4.096c1.465-1.099,2.897-1.582,4.296-1.449
	c1.199,0.133,2.348-0.167,3.447-0.899c1.099-0.732,1.998-1.798,2.697-3.197c0.453-0.907,0.766-1.86,0.951-2.856
	c4.325-1.145,8.225-3.677,11.688-7.635c3.697-4.163,6.229-9.092,7.594-14.787C449.8,102.824,449.783,100.942,448.951,100.509z"/>
</svg>
