<?xml version="1.0" encoding="utf-8"?>
<!-- Generator: Adobe Illustrator 16.0.0, SVG Export Plug-In . SVG Version: 6.00 Build 0)  -->
<!DOCTYPE svg PUBLIC "-//W3C//DTD SVG 1.1//EN" "http://www.w3.org/Graphics/SVG/1.1/DTD/svg11.dtd">
<svg version="1.1" id="图层_1" xmlns="http://www.w3.org/2000/svg" xmlns:xlink="http://www.w3.org/1999/xlink" x="0px" y="0px"
	 width="394px" height="382px" viewBox="0 0 394 382" enable-background="new 0 0 394 382" xml:space="preserve">
<path d="M393.45,177.662l-1.948-0.35c-6.095-0.3-11.939,1-17.534,3.896c-3.563,1.865-6.86,4.28-9.892,7.244l0.749-3.147
	c0.233-1.132,0.25-1.749,0.051-1.849c-0.2-0.133-0.683,0.25-1.449,1.149l-3.247,4.196c0.267-1.199,0.8-2.73,1.599-4.596
	c0.933-2.131,1.898-3.896,2.897-5.295c0.6-0.799,0.816-1.266,0.649-1.399l-1.599,0.5c-1.665,0.799-3.431,2.131-5.295,3.996
	c-2.165,2.165-3.697,4.346-4.597,6.544c0.134-1.099,0.367-2.198,0.7-3.297l0.799-2.298c0.2-0.633-0.066-0.699-0.799-0.2
	c-0.7,0.466-1.549,1.249-2.548,2.348c-4.922,5.689-6.995,10.935-6.24,15.741c-1.41,0.482-3.437,0.585-6.099,0.294
	c-2.665-0.266-5.246-0.998-7.743-2.197c-3.797-1.799-6.827-4.463-9.092-7.993c-5.563-8.759-11.041-16.086-16.436-21.98
	c-5.362-5.862-10.907-10.624-16.636-14.288c-6.027-3.83-13.288-5.112-21.78-3.846c-7.424,1.158-13.475,3.889-18.172,8.171
	c-0.719-3.927-0.218-8.345,1.536-13.267c2.513-7.022,7.338-14.106,14.461-21.252c2.352-0.809,4.902-1.52,7.67-2.127
	c6.161-1.332,14.87-2.265,26.127-2.797l3.347-0.2c12.522-0.766,22.214-3.281,29.074-7.543c4.904-3.049,8.372-7.088,10.407-12.115
	c0.59,0.104,1.215,0.197,1.882,0.275c2.064,0.233,4.362-0.383,6.894-1.849c1.699-0.999,3.681-2.514,5.945-4.546
	c2.265-2.065,4.263-3.513,5.994-4.346l1.799-0.949c0.166-0.233-0.35-0.566-1.549-0.999l-2.498-0.399l-3.347,0.35
	c1.998-2.431,3.497-4.629,4.496-6.594c1.565-3.197,2.348-6.561,2.348-10.091c0-2.531-0.166-4.563-0.499-6.095
	c-0.333-1.599-0.916-2.964-1.749-4.096c-0.166-2.132-0.866-4.513-2.098-7.144c-0.899-1.898-1.898-3.614-2.998-5.146
	c-0.732-1.033-1.215-1.482-1.448-1.349c-0.233,0.1-0.333,0.666-0.3,1.699l-0.149,4.746c-0.167,2.298-0.384,3.997-0.65,5.096
	c-0.366-2.198-0.932-3.797-1.698-4.796l-1.198-1.199c-0.2,0.066-0.267,0.799-0.2,2.198c0.133,2.764-0.416,5.295-1.648,7.593
	c-1.199,2.198-3.147,4.43-5.845,6.694c-4.03,3.363-6.878,6.328-8.543,8.892c-2.797,4.263-3.63,8.708-2.497,13.338
	c0.55,2.202,1.433,3.982,2.642,5.349c-2.999,4.73-7.117,8.253-12.384,10.537c-4.695,1.999-11.589,3.497-20.681,4.496l-6.595,0.649
	c-10.735,1.077-18.509,2.082-23.334,3.017c3.115-5.778,4.661-12.041,4.601-18.802c-0.033-7.926-2.231-16.086-6.594-24.479
	c-4.161-7.995-9.982-15.607-17.441-22.841c2.708-4.512,3.046-9.137,1.006-13.876c-1.232-2.797-3.963-6.544-8.193-11.24l-3.547-4.046
	c-1.165-1.432-1.914-2.748-2.248-3.946l-0.799-2.048c-0.1-0.066-0.25,0.25-0.449,0.949c-0.367,1.266-0.55,2.548-0.55,3.847
	c0,0.999,0.134,1.998,0.399,2.998l0.949,2.747l-2.048-3.396l-1.649-2.548c-0.1,0.033-0.033,1.166,0.201,3.397
	c0.266,2.265,0.516,3.963,0.748,5.095c-1.965-1.998-3.963-4.912-5.994-8.742c-2.664-5.029-4.445-10.158-5.346-15.386
	c-0.266-1.665-0.482-2.481-0.648-2.448l-1.1,2.148c-1.564,3.53-2.564,7.343-2.997,11.44l-0.2,5.845
	c-1.232,4.596-1.349,9.675-0.35,15.236c0.666,3.797,2.016,7.161,4.047,10.091c2.863,4.163,6.927,7.193,12.189,9.092
	c2.359,0.893,5.507,0.767,9.424-0.356l5.313,5.751c4.063,4.829,7.427,9.792,10.091,14.887c8.478,16.097,8.759,30.542,0.867,43.339
	c-5.379,1.812-10.039,4.111-13.955,6.917c-8.427,5.995-12.106,14.287-11.04,24.877c0.555,5.371,1.934,10.186,4.13,14.45
	c-0.342-0.22-0.676-0.437-1.033-0.662l-6.194-4.046c-2.265-1.632-4.279-3.347-6.045-5.146c-3.297-3.397-6.244-6.994-8.842-10.791
	c-2.098-3.097-4.613-7.293-7.543-12.589l-10.191-18.333c-4.696-7.926-8.958-14.138-12.789-18.634
	c-7.394-8.659-13.022-14.071-16.885-16.235c-2.919-1.613-6.357-2.13-10.298-1.584c-1.749-2.723-2.935-5.129-3.54-7.208l-0.799-2.198
	l-1.648,1.849c-1.066,1.332-1.948,2.598-2.648,3.796c-0.599-2.398-1.548-4.496-2.847-6.294c-1.132-1.599-2.315-2.664-3.547-3.197
	c-1.665-0.732-2.598-1.032-2.797-0.899c-0.3,0.167-0.267,1.166,0.1,2.997c0.4,1.932,0.433,3.813,0.1,5.645
	c-3.43-2.997-7.743-5.329-12.938-6.994c-5.528-1.765-10.84-2.332-15.936-1.699c-3.031,0.367-4.663,0.883-4.896,1.549
	c-0.2,0.666,1.049,1.349,3.747,2.048c1.732,0.433,3.114,0.849,4.146,1.249c-8.692-0.599-15.336-0.483-19.933,0.35
	c-2.165,0.367-3.313,0.766-3.447,1.199c-0.167,0.466,0.666,1.049,2.498,1.749l1.898,0.899c-5.895,0.366-12.206,1.915-18.933,4.646
	C69.754,79.649,59.713,86.26,49.956,95.285c-7.527,6.96-15.537,16.635-24.029,29.024c-2.231,3.297-4.679,6.444-7.343,9.442
	c-2.498,2.864-4.746,5.095-6.744,6.694c-1.832,1.465-2.681,2.448-2.548,2.947c0.167,0.533,1.532,0.816,4.096,0.85l4.946-0.1
	c-2.131,1.732-4.879,3.514-8.243,5.345c-2.298,1.232-3.563,2.098-3.797,2.598c-0.299,0.733,0.933,1.149,3.697,1.249l3.447,0.1
	c-1.033,0.799-2.564,1.598-4.596,2.397c-2.131,0.833-3.996,1.349-5.595,1.549c-1.932,0.2-2.981,0.483-3.147,0.849
	c-0.233,0.433,0.2,1.699,1.299,3.797c2.065,3.83,4.313,8.559,6.744,14.187c2.797,6.461,4.862,11.973,6.194,16.535
	c-0.866-0.466-1.599-1.032-2.198-1.698c-1.465-1.698-2.315-2.415-2.548-2.148c-0.133,0.167-0.2,1.532-0.2,4.096
	c0,5.162,0.316,10.357,0.949,15.586c0.866,7.228,2.214,13.021,4.046,17.385c1.751,4.18,4.209,8.5,7.371,12.961l-0.727,6.372
	c-1.132,5.895-3.164,11.407-6.095,16.535c-1.798,3.164-2.714,6.312-2.748,9.442c0,1.864,0.183,4.795,0.549,8.791
	c0,6.695-0.383,12.756-1.149,18.185c-0.566,4.063-1.599,8.192-3.097,12.389l-3.397,8.493c-1.032,2.531-1.599,4.445-1.698,5.744
	c-0.133,1.532,0.25,3.181,1.149,4.945c1.432,2.898,2.697,6.978,3.796,12.24l1.499,8.892c0.6,3.63,1.132,5.878,1.599,6.744
	c0.716,1.307,2.139,2.084,4.25,2.344c0.444,3.414,1.084,6.83,1.945,10.245c1.265,4.929,2.647,8.293,4.146,10.091
	c0.799,0.933,2.348,1.183,4.646,0.749c1.865-0.366,4.046-1.148,6.544-2.348c4.429-2.131,8.143-5.195,11.14-9.191
	c3.497-4.696,4.596-9.176,3.297-13.438c-0.233-0.699-1.749-1.882-4.546-3.547c-2.111-1.233-3.653-2.389-4.649-3.47
	c0.659-1.282,1.086-2.605,1.252-3.974c0.233-1.765,0-3.681-0.7-5.745l-2.348-5.645l-2.598-5.695
	c-0.999-2.298-1.565-4.445-1.699-6.444c-0.167-2.497,0.766-5.262,2.798-8.292c1.166-1.699,3.097-3.98,5.794-6.844l3.497-3.447
	c1.232-1.266,1.865-2.231,1.898-2.898c0.333-4.629,1.499-8.658,3.497-12.088c1.765-2.962,4.234-5.57,7.396-7.834
	c0.937,1.916,1.654,2.888,2.146,2.888c0.333,0.033,0.782-0.517,1.349-1.648c0.566-1.099,0.882-2.015,0.949-2.747
	c2.031,5.229,3.43,9.475,4.196,12.738c0.899,3.696,1.249,7.227,1.049,10.59c-0.133,2.266,0.017,3.447,0.45,3.547
	c0.399,0.101,1.515-0.699,3.347-2.397l4.146-3.847l-0.899,9.441c-0.267,2.664-0.183,4.08,0.25,4.246
	c0.4,0.167,1.465-0.882,3.197-3.146c2.198-2.897,4.646-5.545,7.344-7.943c3.23-2.896,6.277-4.912,9.142-6.045l-1.299,1.749
	c-1.099,1.632-1.482,2.614-1.149,2.947s1.399,0.167,3.197-0.499c3.23-1.166,7.61-2.598,13.138-4.297
	c4.35-1.304,7.423-2.181,9.265-2.642c4.6,3.151,8.202,5.771,10.767,7.837c0.685,0.551,1.34,1.101,1.981,1.649l-3.929,5.295
	c-2.897,4.629-4.146,8.358-3.747,11.19c0.227,1.588,0.917,2.896,2.062,3.929l-0.313,0.717c-2.598,5.761-4.13,9.375-4.596,10.841
	c-1.299,4.329-0.999,7.359,0.899,9.092c1.232,1.099,4.563,1.398,9.991,0.898c5.895-0.533,10.407-1.898,13.538-4.096
	c3.446-2.465,4.666-6.225,3.667-11.273l0.48,1.132c1.099,2.065,2.598,3.447,4.496,4.146c1.126,0.409,2.512,0.432,4.15,0.074
	l6.69,9.167c3.097,3.764,5.828,5.813,8.193,6.145c2.098,0.268,4.346-0.466,6.744-2.197c2.265-1.666,4.163-3.83,5.695-6.494
	c2.364-4.029,3.763-8.826,4.196-14.388c0.4-5.462-0.316-9.425-2.148-11.89c-0.833-1.132-3.214-2.164-7.144-3.097l-5.63-1.091
	c-0.444-3.392-1.115-5.728-2.013-7.002c-0.799-1.066-2.398-1.915-4.796-2.548l-2.998-0.749c-1.432-0.4-2.647-0.85-3.646-1.35
	c-0.331-0.166-0.659-0.348-0.985-0.539c-0.201-3.143,0.98-8.075,3.583-14.847c2.642-6.97,5.652-12.082,9.03-15.353
	c3.696-1.236,6.299-2.347,7.805-3.331c3.215-2.152,5.062-5.007,5.579-8.543l4.862-1.897c3.93-1.666,7.06-3.281,9.392-4.846
	c2.33-0.533,4.729,0.25,7.193,2.348c2.73,2.265,6.66,6.994,11.789,14.188c5.096,7.094,8.443,11.473,10.041,13.139
	c1.466,1.465,3.397,2.547,5.795,3.246l3.098,0.85c1.531,0.467,2.863,0.966,3.996,1.499c11.189,5.396,19.15,15.021,23.879,28.874
	c1.218,3.536,3.108,5.969,5.643,7.349c0.499,3.305,1.478,6.337,2.949,9.087c1.932,3.597,4.146,5.495,6.645,5.695
	c1.365,0.1,2.965-0.334,4.796-1.299c1.831-0.967,3.497-2.248,4.995-3.847c1.732-1.832,3.182-4.08,4.347-6.744
	c1.332-3.097,1.849-5.861,1.548-8.293c-0.266-2.132-0.998-3.796-2.197-4.995l-3.181-2.499c-0.004-0.366-0.025-0.732-0.066-1.099
	c-0.3-2.996-1.815-5.628-4.546-7.893c-6.661-5.495-11.54-11.323-14.637-17.484c-2.332-4.729-3.215-8.26-2.648-10.59
	c0.267-0.967-0.316-2.016-1.748-3.148l-4.146-2.847c-2.265-1.632-3.697-2.781-4.297-3.447c-1.299-1.433-2.031-3.163-2.197-5.195
	c-0.233-3.097-0.166-7.044,0.199-11.839l1.25-13.339l2.147-23.479c0.399-9.291-0.216-17.584-1.849-24.877
	c-1.032-4.629-3.297-8.676-6.793-12.139c-0.025-0.025-0.058-0.053-0.083-0.078c1.666-4.362,4.926-7.644,9.823-9.813
	c5.396-2.398,11.623-2.998,18.684-1.798c5.096,0.866,11.057,4.779,17.885,11.739c6.727,6.794,14.087,16.319,22.08,28.574
	c3.131,4.764,7.443,8.01,12.938,9.742c5.861,1.832,11.64,1.365,17.335-1.398l0.03-0.017c0.796,0.801,1.688,1.531,2.717,2.164
	c2.198,1.299,4.496,1.981,6.894,2.048c5.029,0.1,9.126-1.582,12.289-5.045c1.799-1.998,3.813-5.529,6.045-10.591l0.6-1.349
	c1.365-3.031,3.88-6.128,7.543-9.292c2.465-2.131,4.646-3.73,6.545-4.796l1.099-0.849h-1.648l-3.747,0.649l-3.197,0.899
	c0.866-0.533,3.247-1.549,7.144-3.047C393.051,178.211,393.65,177.862,393.45,177.662z"/>
</svg>
