<?xml version="1.0" encoding="utf-8"?>
<!-- Generator: Adobe Illustrator 16.0.0, SVG Export Plug-In . SVG Version: 6.00 Build 0)  -->
<!DOCTYPE svg PUBLIC "-//W3C//DTD SVG 1.1//EN" "http://www.w3.org/Graphics/SVG/1.1/DTD/svg11.dtd">
<svg version="1.1" id="图层_1" xmlns="http://www.w3.org/2000/svg" xmlns:xlink="http://www.w3.org/1999/xlink" x="0px" y="0px"
	 width="262px" height="285px" viewBox="0 0 262 285" enable-background="new 0 0 262 285" xml:space="preserve">
<path d="M255.154,123.536c-13.727-0.7-27.484,1.283-41.277,5.947c-13.575,4.612-25.066,11.131-34.497,19.533
	c-3.976-21.952-14.233-40.564-30.815-55.813c-1.579-1.445-3.2-2.825-4.848-4.164c4.563-3.201,9.705-7.534,15.441-13.026
	c6.496-6.229,11.943-12.226,16.342-17.99c1.398-1.799,1.898-3.248,1.498-4.347c-0.366-1-1.449-1.566-3.248-1.699
	c-6.432-0.443-14.571-0.125-24.377,0.938c0.705-5.89,1.401-13.891,2.09-24.025c0.934-13.759,1.266-22.454,1-26.085
	c-0.066-1.366-0.517-2.232-1.35-2.599c-0.866-0.433-1.966-0.1-3.299,1c-5.297,4.331-11.626,10.478-18.988,18.439
	c-7.394,7.999-13.63,15.489-18.737,22.481c-1.903-3.474-4.037-7.125-6.448-10.988c-2.965-4.797-5.197-8.129-6.696-9.995
	c-1.266-1.599-2.549-2.199-3.848-1.799c-1.233,0.367-1.916,1.499-2.049,3.398c-0.2,2.898-0.267,8.146-0.2,15.741
	c0.063,8.647,0.352,15.792,0.86,21.471c-0.583-0.138-1.169-0.212-1.759-0.184c-2.465,0.1-4.797,1.299-6.996,3.598
	c-1.264,1.319-2.241,2.675-2.961,4.063c-13.866,0.237-26.471,2.98-37.815,8.23c-14.559,6.729-25.119,16.974-31.682,30.732
	c-1.732-0.233-3.332-0.05-4.797,0.55c-1.466,0.633-2.582,1.582-3.348,2.848c-1.699,2.898-1.5,5.664,0.6,8.295
	c-2.266,1.432-3.231,3.481-2.898,6.146c0.292,2.393,1.491,4.389,3.598,5.989c0.595,7.688,2.164,14.947,4.691,21.783
	c-1.269,1.704-2.325,3.375-3.142,5.009c-1.333,2.765-2.215,5.796-2.648,9.095c-0.766,5.93,0.35,15.658,3.348,29.184l6.196,24.336
	c1.932,8.229,2.515,15.308,1.749,21.237c-0.799,6.43-3.231,12.177-7.296,17.24c-2.032,2.532-2.648,4.481-1.849,5.847
	c0.766,1.332,2.398,0.967,4.897-1.1c4.764-3.897,8.112-8.628,10.044-14.191c2.731-7.862,2.865-17.689,0.399-29.483
	c-3.764-16.157-5.896-25.702-6.396-28.634c-2.592-14.705-2.765-24.064-0.52-28.079c3.312,5.967,7.465,11.563,12.463,16.786
	c8.422,8.804,17.643,15.133,27.653,19.016l-0.269,5.82c0,6.062,0.515,11.483,1.534,16.279c-2.444,5.06-4.444,9.946-5.981,14.652
	c-0.533,1.633-0.3,2.699,0.7,3.198c0.766,0.399,1.799,0.399,3.098,0l6.656-2.361c5.039,13.773,12.362,25.124,21.978,34.044
	c5.23,4.83,10.744,8.545,16.541,11.143c5.197,2.332,10.011,3.498,14.441,3.498c2.065,0,2.982-0.615,2.749-1.849
	c-0.2-1.199-1.399-2.231-3.598-3.099c-9.261-3.631-17.457-9.078-24.586-16.34c-5.5-5.585-10.129-12.037-13.891-19.353l8.894-9.581
	c1.5,3.064,3.898,7.146,7.196,12.242c2.732,4.266,4.748,7.23,6.047,8.896c2.065,2.565,4.131,2.315,6.196-0.749l8.745-13.543
	c3.864,2.465,9.095,5.064,15.691,7.796c4.031,1.665,7.579,3.015,10.644,4.048c1.633,0.566,2.666,0.449,3.099-0.35
	c0.433-0.767,0.283-1.982-0.45-3.648c-2.231-5.264-6.08-12.16-11.543-20.688c-5.786-9.07-11.051-16.103-15.81-21.149
	c2.708-0.099,5.428-0.271,8.164-0.538c17.5-1.688,31.899-6.785,43.215-15.271c-0.147,10.697,2.233,22.115,7.156,34.26
	c4.798,11.793,10.277,20.322,16.44,25.586c2.465,2.099,4.348,2.682,5.646,1.748c1.333-0.898,1.15-2.598-0.549-5.097
	c-0.019-0.027-0.035-0.057-0.055-0.084c0.189-1.521,0.982-3.207,2.402-5.063c1.199-1.565,3.166-3.631,5.896-6.195
	c6.164-5.797,9.979-10.195,11.444-13.193c1.632-3.331,2.665-9.244,3.099-17.74c0.332-6.362,1.766-11.876,4.297-16.54
	c2.299-4.265,5.914-8.495,10.844-12.692c5.497-4.697,9.111-8.396,10.844-11.094c2.332-3.631,4.432-9.479,6.297-17.54
	c1.166-5.13,2.564-9.145,4.197-12.043c1.725-3.13,3.868-5.358,6.416-6.714c2.216-0.417,3.497-1.259,3.828-2.531
	C261.334,124.735,259.418,123.769,255.154,123.536z M62.264,203.64c-0.015-0.77-0.017-1.641-0.011-2.583
	c0.982,0.229,1.97,0.438,2.966,0.624c-0.92,1.29-1.878,2.737-2.875,4.342C62.316,205.229,62.273,204.454,62.264,203.64z"/>
</svg>
