<?xml version="1.0" encoding="utf-8"?>
<!-- Generator: Adobe Illustrator 16.0.0, SVG Export Plug-In . SVG Version: 6.00 Build 0)  -->
<!DOCTYPE svg PUBLIC "-//W3C//DTD SVG 1.1//EN" "http://www.w3.org/Graphics/SVG/1.1/DTD/svg11.dtd">
<svg version="1.1" id="图层_1" xmlns="http://www.w3.org/2000/svg" xmlns:xlink="http://www.w3.org/1999/xlink" x="0px" y="0px"
	 width="95px" height="136px" viewBox="0 0 95 136" enable-background="new 0 0 95 136" xml:space="preserve">
<path d="M92.121,88.258c-0.445-0.545-1.014-0.933-1.698-1.162c-0.313-1.05-0.804-2.059-1.491-3.022
	c-0.408-0.57-0.847-1.082-1.309-1.548c1.036-0.223,1.957-0.647,2.754-1.295c1.527-1.262,2.275-3.155,2.242-5.681
	c-0.033-2.757-1.079-5.133-3.139-7.126c-3.224-3.123-8.355-4.551-15.399-4.286c-1.097,0.033-1.679,0.216-1.744,0.548
	c-0.101,0.333,0.231,0.864,0.997,1.595l2.242,2.193c0.764,0.864,1.246,1.644,1.445,2.342l0.349,4.535
	c0.092,1.834,0.597,3.227,1.476,4.217c-1.291,0.209-2.5,0.707-3.619,1.515c-2.125,1.494-3.223,3.621-3.289,6.379
	c-0.023,0.614,0.006,1.224,0.086,1.826c-1.457,0.325-2.769,0.985-3.922,2.011c-1.724,1.473-2.763,3.355-3.138,5.643
	c-0.51-0.016-1.024-0.008-1.548,0.039c-2.064,0.172-3.914,0.726-5.563,1.635c-0.229-0.416-0.48-0.822-0.756-1.221
	c1.102-1.684,1.883-3.494,2.323-5.442c0.206-0.17,0.408-0.351,0.604-0.554c1.229-1.263,1.845-2.74,1.845-4.436
	c0-1.661-0.632-3.123-1.894-4.386c-0.627-0.609-1.306-1.066-2.037-1.374c-0.832-1.402-1.936-2.776-3.311-4.122
	c2.336-1.851,4.387-4.019,6.145-6.515c4.75-6.744,6.328-14.285,4.734-22.625c-1.496-7.774-5.831-13.954-13.008-18.539
	c-3.746-2.393-7.702-3.952-11.866-4.681c-0.049-0.102-0.089-0.197-0.144-0.303L33.266,11.96l-6.279-9.768
	c-1.13-1.495-1.894-2.209-2.292-2.143C24.329,0.116,23.797,1.046,23.1,2.84c-1.03,2.591-2.193,6.379-3.488,11.362
	c-1.396,5.349-2.276,9.618-2.642,12.808c-0.08,0.682-0.119,1.251-0.135,1.755c-4.961,2.613-8.956,6.261-11.975,10.953
	c-4.352,6.844-5.714,13.987-4.086,21.429c1.827,8.14,6.379,14.419,13.655,18.837c1.525,0.927,3.092,1.711,4.696,2.365
	c-0.431,1-0.759,2.034-0.976,3.104c-1.229,0.188-2.356,0.745-3.371,1.707c-1.362,1.262-2.043,2.823-2.043,4.685
	c0,2.159,0.831,3.819,2.492,4.983c1.196,0.83,2.442,1.245,3.738,1.245c0.565,0,1.098-0.07,1.604-0.195
	c0.981,1.436,2.218,2.768,3.728,3.994c-0.258,1.118-0.398,2.29-0.398,3.525c0,0.937,0.092,1.832,0.247,2.699
	c-0.953,0.448-1.773,1.146-2.44,2.135c-0.963,1.396-1.295,2.875-0.997,4.437c0.289,1.416,1.04,2.543,2.231,3.397
	c-0.014,0.295-0.039,0.584-0.039,0.889c0,2.77,0.765,5.281,2.266,7.545c-1.186,0.344-2.135,1.004-2.814,2.023
	c-0.698,1.097-0.914,2.242-0.648,3.438c0.266,1.264,0.93,2.227,1.994,2.891c1.129,0.73,2.475,0.963,4.037,0.697
	c1.362-0.232,2.458-0.847,3.289-1.844c0.363-0.461,0.596-0.954,0.748-1.469c2.739,1.307,5.961,1.93,9.667,1.867
	c2.956-0.06,5.589-0.668,7.919-1.795c0.295,0.693,0.73,1.347,1.35,1.944c0.896,0.896,2.093,1.361,3.589,1.396
	c1.562,0.065,2.808-0.398,3.737-1.396c0.863-0.897,1.229-2.043,1.097-3.438c-0.075-0.789-0.31-1.488-0.672-2.117
	c1.251-0.6,2.356-1.338,3.329-2.208c0.587,0.396,1.302,0.685,2.177,0.837c1.361,0.232,2.491,0.066,3.39-0.498
	c1.063-0.697,1.645-1.678,1.744-2.939c0.063-0.748-0.059-1.432-0.32-2.063c1.916-0.299,3.802-1.198,5.652-2.723
	c0.426-0.348,0.807-0.713,1.166-1.09c1.332,0.213,2.506,0.017,3.519-0.604c0.931-0.563,1.462-1.329,1.595-2.292
	c0.166-1.063-0.115-2.061-0.848-2.99c-0.416-0.533-0.918-0.943-1.487-1.254c2.033-0.197,3.794-0.921,5.274-2.186
	c1.401-1.158,2.313-2.711,2.748-4.644c0.428-0.096,0.844-0.249,1.24-0.489c0.995-0.599,1.512-1.361,1.545-2.293
	c0.032-0.896-0.268-1.711-0.898-2.441c-0.483-0.58-1.104-0.989-1.852-1.235c0.192-0.094,0.379-0.196,0.557-0.31
	c1.66-1.037,2.775-2.486,3.363-4.334c0.405-0.084,0.799-0.227,1.172-0.449c0.896-0.531,1.361-1.229,1.395-2.094
	C92.951,89.604,92.686,88.889,92.121,88.258z"/>
</svg>
