<?xml version="1.0" encoding="utf-8"?>
<!-- Generator: Adobe Illustrator 16.0.0, SVG Export Plug-In . SVG Version: 6.00 Build 0)  -->
<!DOCTYPE svg PUBLIC "-//W3C//DTD SVG 1.1//EN" "http://www.w3.org/Graphics/SVG/1.1/DTD/svg11.dtd">
<svg version="1.1" id="图层_1" xmlns="http://www.w3.org/2000/svg" xmlns:xlink="http://www.w3.org/1999/xlink" x="0px" y="0px"
	 width="476px" height="470px" viewBox="0 0 476 470" enable-background="new 0 0 476 470" xml:space="preserve">
<path d="M460.924,254.727c-5.501-6.334-12.751-11.184-21.752-14.551c-10.234-3.801-19.77-4.284-28.604-1.45
	c-3.467,1.101-4.917,2.583-4.351,4.45c0.567,1.867,2.567,2.134,6.001,0.801c5.5-2.135,12.335-1.817,20.502,0.949
	c8.334,2.834,14.918,7.201,19.752,13.102c7.635,9.301,9.984,17.668,7.051,25.103c-2.467,6.101-7.684,10.401-15.651,12.901
	c-8.868,2.768-17.686,2.351-26.453-1.25c-15.668-6.467-26.803-22.568-33.403-48.305c-2.033-8.001-5.384-14.485-10.051-19.453
	c-4.201-4.5-9.151-7.467-14.852-8.901c-5.301-1.333-10.635-1.2-16.002,0.4c-1.578,0.476-3.077,1.072-4.516,1.761
	c0.164-0.905,0.362-1.79,0.583-2.663c3.267-2.575,8.758-4.625,16.484-6.149c10.7-2.134,21.602-2.167,32.703-0.1
	c2.7,0.5,5.084,0.15,7.15-1.05c1.934-1.1,3.268-2.7,4.001-4.8c0.733-2.134,0.7-4.267-0.101-6.401c-0.899-2.333-2.6-4.25-5.101-5.75
	c-2.633-1.567-4.083-4.634-4.351-9.201c-0.333-5.534,1.751-10.868,6.251-16.001c1.867-2.1,6.117-4.534,12.752-7.301
	c6.934-2.867,10.768-4.634,11.501-5.301l2.7-2.7c0.733-1.067,1.184-2.267,1.35-3.601c0.2-1.833,0.134-3.35-0.199-4.55
	c-0.334-1.367-1.101-2.784-2.301-4.25c-4.667-5.701-7.084-13.584-7.251-23.652c-0.229-10.802,2.522-19.762,8.236-26.89
	c1.755-0.852,3.372-1.523,4.815-1.963c1.5-0.434,2.417-1.567,2.75-3.4c0.267-1.634,0.017-3.317-0.75-5.051
	c-0.667-1.5-1.767-2.483-3.3-2.95c-1.801-0.533-3.817-0.2-6.051,1c-14.702,7.934-33.87,21.402-57.506,40.404
	c-3.356,2.705-6.492,5.276-9.455,7.742c0.827-1.726,0.681-3.988-0.446-6.792c-1.233-3-2.784-4.951-4.65-5.851l-3.501,0.25
	c-2.435,1.189-4.755,2.312-6.981,3.378c-0.284-3.485-0.624-5.969-1.02-7.429c-0.5-1.833-1.233-2.817-2.2-2.95
	c-0.6-0.067-6.417,1.983-17.451,6.15c-4.779,1.8-9.079,3.335-12.913,4.612l16.764-31.815c1.033-2.167,1.283-4.367,0.75-6.601
	c-0.534-2.3-1.751-3.95-3.65-4.95c-1.567-0.8-3.4-0.55-5.501,0.75c-1.8,1.133-3.467,2.784-5.001,4.95l-17.123,22.708
	c-0.633-0.531-1.291-0.909-1.979-1.105l-5.601,1.75c-3.968,1.233-8.134,1.534-12.501,0.9c-4.001-0.567-8.401-1.483-13.201-2.75
	l-9.902-3.05c-7.566-2.867-15.118-4-22.652-3.4c-0.769,0.061-1.535,0.146-2.298,0.242c-0.083-1.551-0.18-3.124-0.302-4.743
	c-0.767-10.234-2.117-19.785-4.05-28.653c-2.034-9.334-4.334-16.035-6.901-20.102c-0.633-1-1.884-1.434-3.75-1.3
	c-1.833,0.133-2.733,0.783-2.7,1.95l0.6,11.051c0.136,3.368,0.175,6.357,0.121,8.979c-1.742-5.287-5.329-13.839-10.772-25.681
	c-8.5-18.569-15.735-30.237-21.702-35.004c-0.833-0.667-2.417-1.067-4.75-1.2c-2.4-0.1-3.934,0.2-4.601,0.9
	c-0.467,0.534-0.6,1.2-0.4,2l1.4,3.35c2,4.467,4.117,12.985,6.351,25.553c2.083,11.537,3.394,21.746,3.945,30.656l-4.495-2.853
	l-5.55-3.05c-1.8-0.833-3.384-0.684-4.751,0.45c-1.333,1.034-1.683,2.017-1.05,2.951c1.6,2.267,4.367,6.717,8.301,13.351
	c5.701,9.535,10.218,17.885,13.551,25.053l2.471,6.177c-2.475,1.112-4.885,2.414-7.229,3.908c-1.616-4.163-4.27-9.067-7.993-14.735
	c-4.967-7.534-9.768-13.085-14.402-16.652c-0.667-0.5-1.617-0.3-2.85,0.6c-1.233,0.867-1.767,1.667-1.6,2.4l1.577,8.3
	c-15.788-11.17-26.507-17.08-32.13-17.701c-1.067-0.133-2.05,0.2-2.951,1c-0.933,0.767-1.133,1.467-0.6,2.1l12.101,13.501
	l9.301,10.551c3.391,3.957,5.627,6.689,6.756,8.25l-1.605-0.299l-4.851-0.25c-0.9,0.067-1.583,0.65-2.05,1.75
	c-0.434,1.1-0.333,1.934,0.3,2.5l4.101,3.05l5,3.3l7.301,5.4l6.294,4.621c-4.346,6.387-7.302,13.46-8.844,21.232
	c-1.159,5.732-1.625,11.442-1.415,17.129c-0.296,0.037-0.578,0.077-0.835,0.123c-2.934,0.533-4.484,1.717-4.65,3.55
	c-0.175,2.132,0.174,4.098,1.048,5.897c-1.551,2.475-2.936,5.337-4.149,8.604c-2.5,6.701-4.017,14.251-4.55,22.652
	c-0.534,9.101,0,17.619,1.6,25.553c0.86,4.22,1.964,7.907,3.31,11.068c-0.816,0.292-1.632,0.584-2.46,0.884
	c-12.168,4.4-23.803,8.967-34.904,13.701c-9.935,4.234-15.702,6.951-17.302,8.15c-2.134,1.601-3.517,3.184-4.15,4.751
	c-0.667,1.733-0.45,3.517,0.65,5.351c1.167,1.934,2.867,3.367,5.101,4.301c2.167,0.934,3.7,0.934,4.601,0
	c0.919-0.979,2.364-2.105,4.315-3.371c8.629-1.027,16.976,0.611,25.038,4.921c8.667,4.634,15.352,11.335,20.052,20.103
	c1.8,3.367,4.267,5.551,7.401,6.551c2.833,0.899,5.3,0.684,7.4-0.65c1.036-0.68,2.528-1.893,4.445-3.605
	c2.848,6.482,6.158,12.202,9.928,17.164c-1.921,3.595-3.083,7.855-3.472,12.794c-0.467,5.468,0.083,10.851,1.65,16.151
	c0.33,1.123,0.694,2.222,1.079,3.305c-3.788,2.644-7.035,6.169-9.729,10.598c-2.313,3.801-3.838,7.624-4.604,11.468
	c-11.43,2.57-20.177,7.123-26.231,13.664c-7.581-1.936-14.83-1.942-21.747-0.011c-4.842-4.395-10.746-7.108-17.726-8.119
	c-1.548-0.223-3.099-0.339-4.652-0.38c-1.497-3.569-3.658-6.945-6.499-10.122c-0.529-0.599-1.07-1.172-1.623-1.723
	c0.326-0.884,0.651-1.786,0.973-2.728c3.133-9.234,4.517-15.968,4.15-20.202c-0.1-1.033-0.633-2-1.6-2.9
	c-0.934-0.834-1.667-1.133-2.2-0.9c-0.37,0.2-0.959,0.998-1.766,2.385l3.016-16.586c0.934-6.101,1.6-12.368,2-18.803
	c0.067-1.333-0.867-2.366-2.8-3.1s-3.117-0.517-3.55,0.65l-3.55,8.551l-1.828,3.755l-2.373-4.455l-2.5-6.251
	c-0.367-1-1.267-1.05-2.7-0.15c-1.467,0.9-2.167,1.867-2.101,2.9c0.233,5.301,0.117,11.135-0.35,17.502
	c-0.157,2.011-0.325,3.778-0.501,5.343l-1.5-5.393c-0.133-0.5-0.717-0.583-1.75-0.25c-1.067,0.3-1.65,0.833-1.75,1.601
	c-0.45,3.861-0.935,7.311-1.452,10.364c-0.68-0.56-1.374-1.075-2.079-1.556c1.192-4.203,1.336-9.123,0.431-14.76
	c-0.967-6-2.667-10.534-5.101-13.602c-0.031-0.039-0.064-0.072-0.096-0.111c2.512-3.557,4.281-8.148,5.296-13.789
	c0.719-3.965,0.854-7.544,0.44-10.761c3.959-2.32,7.23-7.013,9.811-14.093c2.733-7.533,3.3-14.418,1.7-20.652
	c-0.1-0.399-0.25-0.795-0.428-1.189c0.608-0.113,1.233-0.409,1.878-0.91c1.434-1.101,2.817-3.051,4.15-5.851
	c6.701-6.634,12.151-16.869,16.352-30.704c3.934-12.968,5.467-24.203,4.601-33.704c-0.2-2.133-0.967-3.2-2.3-3.2
	c-1.367,0-1.983,1.017-1.85,3.05c0.13,2.353,0.041,4.87-0.217,7.515c-1.364,1.333-2.108,1.961-2.233,1.886l-1.8-3.45
	c-1.1-2.134-1.767-3.234-2-3.3c-0.233-0.067-0.833,0.683-1.8,2.25l-1.55,2.4l-2.2-2.7c-1.4-1.833-2.184-2.717-2.35-2.65
	c-0.333,0.1-1.55,1.767-3.65,5l-2.056-1.522c-1.557-6.007-3.802-11.237-6.746-15.679c-0.833-1.3-1.583-2.067-2.25-2.3
	c-0.967-0.3-1.4,0.783-1.3,3.25c-0.633-2.5-2.2-4.951-4.7-7.351c-2.5-2.4-4.201-3.017-5.101-1.85
	c-0.267,0.367,0.05,2.184,0.95,5.451c0.867,3.167,1.167,4.75,0.9,4.75c-1.833-1.9-3.15-2.7-3.951-2.4
	c-0.8,0.267-0.633,1.617,0.5,4.05c0.883,1.903,1.652,3.971,2.316,6.187c-0.22,0.354-0.473,0.816-0.767,1.414l-1.65,3l-1.9-4.201
	c-1.133-2.6-1.867-3.784-2.2-3.55c-0.333,0.2-1.117,1.367-2.35,3.5l-1.95,3.101l-1.25-2.1l-1.7-3.25
	c-0.466-0.867-0.833-1.317-1.1-1.35c-0.233,0-0.55,0.35-0.95,1.05l-2.2,4.45l-1.45,2.7l-3.05-5.4c-0.367-0.6-0.65-0.917-0.85-0.95
	l-0.45,0.35c-0.731,0.789-1.448,1.959-2.153,3.466c-0.047-0.305-0.104-0.611-0.147-0.916c-0.533-3.767-1.534-5.834-3-6.201
	c-1.5-0.333-2.1,1.35-1.8,5.05c0.867,10.368,3.317,20.619,7.351,30.753c3.601,9.101,8.284,17.652,14.051,25.653
	c0.723,2.148,1.604,3.83,2.64,5.056c-2.896,0.353-5.429,1.379-7.59,3.096c-4.901,3.9-8.334,9.234-10.301,16.001
	c-1.294,4.45-1.877,9.053-1.766,13.803c-1.113,0.827-2.192,1.773-3.234,2.849c-5,5.102-8.184,11.985-9.551,20.652
	c-1.079,6.82-0.889,12.677,0.537,17.595c-3.523,4.637-5.628,11.078-6.288,19.36c-0.724,9.253,0.735,17.813,4.32,25.7
	c-0.146,1.006-0.25,2.021-0.269,3.052c-0.067,6.034,1.5,12.802,4.7,20.303c3.214,7.5,7.125,13.106,11.717,16.868
	c0.625,4.847,2.298,9.643,5.035,14.385c5.375,9.298,13.13,16.001,23.257,20.118c0.477,1.116,1.008,2.195,1.596,3.234
	c4,7.034,10.435,12.769,19.302,17.202c7.368,3.638,14.894,5.701,22.576,6.231c5.239,3.865,11.462,6.642,18.679,8.32
	c7.367,1.733,14.951,2.15,22.752,1.25c6.521-0.731,12.208-2.246,17.063-4.542c5.644,1.728,11.707,2.494,18.191,2.292
	c8.201-0.268,16.252-2.001,24.153-5.201c7.901-3.233,14.768-7.551,20.602-12.951c6.096-5.663,10.378-11.959,12.846-18.888
	c2.16-0.837,4.266-1.8,6.306-2.915c8.067-4.4,14.352-10.534,18.853-18.401c4.769-8.378,7.179-18.208,7.244-29.481
	c0.354-0.372,0.723-0.732,1.057-1.122c5.834-6.7,9.251-15.452,10.251-26.253c0.697-7.442,0.027-14.637-1.999-21.587
	c8.459,6.429,15.409,13.73,20.801,21.937c6.067,9.269,9.801,19.036,11.201,29.304c1.268,9.534,0.383,18.369-2.65,26.503
	c-3,8.034-7.617,14.135-13.852,18.302c-6.934,4.634-13.218,5.968-18.852,4.001c-4.967-1.734-8.435-5.484-10.401-11.252
	c-1.101-3.2-2.351-4.467-3.751-3.8c-1.433,0.666-1.633,3.117-0.6,7.351c1.801,7.201,5.751,12.201,11.852,15.002
	c7.834,3.566,17.385,1.883,28.652-5.051c7.301-4.468,12.869-11.135,16.702-20.002c3.867-9.035,5.317-18.952,4.351-29.754
	c-1.066-11.635-4.9-22.869-11.501-33.703c-7.334-12.102-17.603-22.803-30.804-32.104c-1.737-1.229-3.299-2.516-4.695-3.857
	c0.397-1.451,0.733-2.946,0.995-4.494c1.4-8.233,0.784-16.584-1.851-25.052c-0.593-1.902-1.256-3.69-1.978-5.385
	c1.294-1.287,2.707-2.132,4.236-2.544c1.504,2.279,3.063,4.68,4.692,7.229c2.834,4.467,7.567,13.568,14.201,27.303
	c6.768,14.068,10.602,21.836,11.502,23.303c2.2,3.634,4.301,6.134,6.301,7.5c2.967,2.067,6.601,2.602,10.9,1.601
	c5.201-1.2,14.452-5.101,27.753-11.701c13.802-6.867,22.22-11.935,25.253-15.202c2.601-2.8,4.367-5.934,5.301-9.4
	c0.967-3.566,0.85-6.801-0.351-9.701c-2.5-6.2-8.167-16.352-17.001-30.453c-7.882-12.621-13.332-21.688-16.351-27.202
	c-0.219-1.443-0.389-2.859-0.511-4.246c6.385-4.859,12.688-6.119,18.911-3.755c7.034,2.667,12.118,9.301,15.252,19.902
	c8.167,27.87,21.785,46.022,40.854,54.456c7.2,3.2,14.734,4.75,22.602,4.65c6.534-0.1,12.318-1.25,17.353-3.45
	c3.634-1.601,6.917-3.983,9.851-7.151c3.234-3.5,5.534-7.4,6.901-11.701C473.158,276.129,470.191,265.428,460.924,254.727z
	 M304.008,128.764c-0.322-0.035-0.659-0.097-1.005-0.178C303.344,128.659,303.685,128.732,304.008,128.764
	c0.341,0.034,0.714,0.04,1.095,0.041C304.719,128.806,304.35,128.796,304.008,128.764z M253.821,264.866
	c0.022-0.377,0.053-0.751,0.056-1.134c1.945,0.962,3.819,2.014,5.611,3.167c-0.991,0.225-1.943,0.565-2.861,1.013
	C255.745,266.812,254.804,265.806,253.821,264.866z M307.699,128.59c0.009-0.001,0.017-0.002,0.025-0.003
	C307.716,128.588,307.708,128.589,307.699,128.59z M318.444,125.452c0.131-0.05,0.259-0.1,0.391-0.151
	C318.705,125.352,318.574,125.403,318.444,125.452z M305.606,128.796c0.204-0.007,0.423-0.026,0.637-0.042
	C306.027,128.771,305.812,128.789,305.606,128.796z M325.81,122.363c-1.457,0.656-2.847,1.256-4.182,1.813
	c3.523-1.482,8.126-3.614,13.795-6.386l0.015,0.091C331.959,119.533,328.743,121.031,325.81,122.363z M320.277,124.731
	c0.032-0.013,0.066-0.027,0.099-0.04C320.343,124.705,320.31,124.719,320.277,124.731z"/>
</svg>
