<?xml version="1.0" encoding="utf-8"?>
<!-- Generator: Adobe Illustrator 16.0.0, SVG Export Plug-In . SVG Version: 6.00 Build 0)  -->
<!DOCTYPE svg PUBLIC "-//W3C//DTD SVG 1.1//EN" "http://www.w3.org/Graphics/SVG/1.1/DTD/svg11.dtd">
<svg version="1.1" id="图层_1" xmlns="http://www.w3.org/2000/svg" xmlns:xlink="http://www.w3.org/1999/xlink" x="0px" y="0px"
	 width="490px" height="453px" viewBox="0 0 490 453" enable-background="new 0 0 490 453" xml:space="preserve">
<path d="M484.062,351.65c-2.931-2.431-6.876-3.146-11.838-2.147l-16.983,2.847c-9.391,1.332-16.634,1.998-21.729,1.998
	c-2.42,0-5.112-0.236-8.071-0.703c2.998-4.047,5.674-8.059,8.021-12.033c5.928-10.058,7.726-16.201,5.395-18.433
	c-3.13-2.997-8.725-2.681-16.783,0.949c-5.794,2.598-14.069,7.593-24.825,14.985l-5.832,3.972
	c-8.952-3.651-15.056-6.011-18.294-7.069c-6.331-2.109-11.666-3.225-16.031-3.367c-1.73-6.602-3.821-13.083-6.277-19.443
	c3.359-2.425,5.693-5.241,6.974-8.458c1.132-2.897,1.216-5.212,0.25-6.942c-0.866-1.633-5.895-2.598-15.085-2.897l-0.393,0.001
	c-0.37-0.715-0.727-1.436-1.106-2.148c-1.335-2.499-2.729-4.924-4.152-7.313c0.833-2.05,1.651-3.785,2.454-5.175
	c0.6-1.133,1.898-3.279,3.896-6.443l3.396-5.694c1.332-2.497,1.882-4.763,1.648-6.794c-0.267-1.998-1.315-3.846-3.146-5.544
	c-1.732-1.632-3.714-2.563-5.944-2.798c-2.198-0.232-4.546,0.217-7.043,1.35l-6.094,2.797c-3.172,1.446-5.577,2.61-7.238,3.499
	c-1.181-1.324-2.381-2.624-3.602-3.898c-10.757-11.229-22.234-19.795-34.433-25.706c0.072-1.082,0.17-2.156,0.316-3.215
	c0.267-1.699,0.933-4.746,1.998-9.142c0.999-4.096,1.831-7.259,2.497-9.49c0.967-3.363,0.833-6.394-0.398-9.091
	c-1.398-2.997-4.113-5.294-8.143-6.893c-2.464-0.999-5.444-0.15-8.941,2.547c-4.162,3.23-8.041,8.542-11.639,15.934
	c-1.73,3.597-3.546,6.36-5.443,8.292c-0.61,0.61-1.323,1.223-2.119,1.836c-3.644-0.407-7.34-0.619-11.091-0.632
	c-0.083-2.472-0.127-4.78-0.127-6.898c0-13.087,1.499-26.041,4.496-38.861c2.964-12.887,7.193-24.526,12.688-34.916
	c6.236-11.814,10.148-26.871,11.742-45.16l0.168,0.033c2.058,0.53,4.192,0.821,6.422,0.821c8.957,0,16.533-3.43,22.727-10.29
	c5.928-6.56,8.892-14.286,8.892-23.177c0-10.756-3.962-20.164-11.888-28.222c-8.259-8.425-18.365-12.637-30.32-12.637
	c-7.559,0-14.086,2.481-19.581,7.442c-0.789,0.712-1.516,1.458-2.21,2.224c-8.488-4.882-18.049-7.572-28.709-8.019
	c-5.531-0.209-10.684,0.215-15.465,1.263c-1.963-6.866-5.535-12.542-10.759-16.998C180.18,2.598,172.788,0,164.129,0
	c-9.257,0-16.667,2.814-22.228,8.441c-5.461,5.562-8.192,12.904-8.192,22.028c0,4.229,1.315,8.675,3.946,13.337
	c0.906,1.601,1.776,2.953,2.614,4.081c-0.723-0.233-1.541-0.397-2.464-0.484c-2.198-0.233-4.163,0.117-5.894,1.049
	c-1.299,0.733-2.697,2.148-4.196,4.246c-1.599,2.198-2.448,3.979-2.547,5.345c-0.1,1.465,0.149,2.963,0.749,4.496
	c0.633,1.665,1.565,3.047,2.797,4.146c0.975,0.882,2.28,2.26,3.901,4.111c-0.812,1.471-1.615,2.973-2.402,4.53
	c-8.025,15.817-12.038,30.786-12.038,44.905c0,16.783,2.764,29.338,8.292,37.663c4.729,7.093,11.072,10.64,19.031,10.64
	c2.277,0,4.667-0.265,7.157-0.763c2.353,1.523,5.591,2.96,9.726,4.31c3.072,1.004,5.94,1.704,8.616,2.114l-0.331,4.905
	c-1.248,9.6-5.419,20.012-12.531,31.242c-3.264,5.195-7.692,11.406-13.287,18.632l-15.185,19.381
	c-13.02,16.75-22.511,31.252-28.472,43.506c-5.72,11.749-9.531,23.586-11.457,35.511c-9.021-0.958-17.408,1.286-25.156,6.748
	c-7.959,5.628-14.619,14.202-19.98,25.725c-1.265,2.73-4.662,11.638-10.19,26.724c-4.462,12.188-8.008,20.097-10.639,23.726
	c-2.598,3.597-5.761,6.977-9.491,10.141l-8.441,6.743c-2.664,2.164-4.346,4.112-5.045,5.844c-0.825,1.943-0.773,4.188,0.147,6.73
	c0.001,0.003,0.001,0.009,0.002,0.013c0.003,0.01,0.011,0.019,0.014,0.028c0.117,0.319,0.242,0.642,0.386,0.971
	c0.932,2.099,4.762,3.414,11.489,3.946c7.226,0.6,15.268,0.017,24.126-1.748c23.81-4.828,42.158-15.651,55.045-32.468
	c4.03-5.272,7.44-10.649,10.243-16.127c5.513,7.911,12.653,14.82,21.426,20.723c21.578,14.485,50.949,21.729,88.112,21.729
	c9.191,0,19.098-0.8,29.721-2.398c10.891-1.68,19.293-3.768,25.212-6.262c7.31,5.56,16.931,10.546,28.885,14.953
	c17.915,6.594,36.513,9.891,55.794,9.891c26.707,0,52.864-9.124,78.472-27.373c23.377-16.684,41.692-37.363,54.945-62.038
	C487.608,358.361,487.358,354.381,484.062,351.65z"/>
</svg>
