<?xml version="1.0" encoding="utf-8"?>
<!-- Generator: Adobe Illustrator 16.0.0, SVG Export Plug-In . SVG Version: 6.00 Build 0)  -->
<!DOCTYPE svg PUBLIC "-//W3C//DTD SVG 1.1//EN" "http://www.w3.org/Graphics/SVG/1.1/DTD/svg11.dtd">
<svg version="1.1" id="图层_1" xmlns="http://www.w3.org/2000/svg" xmlns:xlink="http://www.w3.org/1999/xlink" x="0px" y="0px"
	 width="178px" height="127px" viewBox="0 0 178 127" enable-background="new 0 0 178 127" xml:space="preserve">
<path d="M162.582,48.982c-2.295-1.463-6.419-3.642-12.373-6.535c-5.121-2.527-8.646-4.54-10.576-6.036
	c-3.025-2.328-5.67-5.604-7.932-9.828l-5.039-11.125c-1.896-4.257-3.808-7.383-5.736-9.379c-2.628-2.694-5.971-4.224-10.027-4.59
	c-3.326-0.299-7.6,0.565-12.822,2.594c-5.587,2.162-10.093,3.243-13.519,3.243c-2.96,0-6.353-1.181-10.177-3.542
	c-3.825-2.395-7.15-3.592-9.978-3.592c-5.255,0-9.346,1.68-12.272,5.039c-1.164,1.297-2.494,3.243-3.991,5.837l-4.44,7.633
	c-4.024,6.585-9.18,13.237-15.465,19.955L13.018,53.921C7.73,59.176,4.171,63.417,2.342,66.643
	c-2.395,4.291-2.927,8.415-1.596,12.373c1.629,4.822,5.354,7.648,11.175,8.48l6.386,0.799c2.195,0.398,3.708,1.18,4.54,2.344
	c0.765,1.031,0.482,2.512-0.848,4.44l-4.739,5.687c-4.556,5.521-5.454,10.078-2.694,13.67c1.563,1.996,3.792,2.844,6.685,2.545
	c1.896-0.2,4.939-1.098,9.129-2.694c4.822-1.862,8.398-3.06,10.726-3.593c4.224-0.964,8.015-0.964,11.375,0
	c2.195,0.633,4.356,1.83,6.485,3.593l5.288,5.089c4.49,4.29,9.512,6.436,15.066,6.436c5.488,0,10.476-1.514,14.966-4.541
	l5.238-3.242c2.129-1.031,4.507-1.596,7.135-1.696c5.32-0.199,10.26,1.48,14.816,5.039l4.988,3.741
	c1.896,1.131,3.824,1.696,5.787,1.696c2.162,0,4.406-0.997,6.734-2.993c2.595-2.229,4.906-3.525,6.936-3.891
	c1.795-0.333,5.138,0.016,10.027,1.047c4.423,0.299,7.5-1.38,9.229-5.039c2.029-4.223,1.813-7.965-0.648-11.225
	c-1.629-2.162-4.872-4.605-9.729-7.333c-5.354-3.026-8.68-5.155-9.977-6.386c-2.694-2.561-3.227-5.354-1.597-8.381
	c0.897-1.663,2.827-2.645,5.786-2.943c1.764-0.166,4.79-0.217,9.08-0.15c3.892-0.133,6.951-0.748,9.18-1.846
	c2.993-1.563,5.021-4.224,6.086-7.982C175.619,61.804,172.027,54.903,162.582,48.982z"/>
</svg>
