<?xml version="1.0" encoding="utf-8"?>
<!-- Generator: Adobe Illustrator 16.0.0, SVG Export Plug-In . SVG Version: 6.00 Build 0)  -->
<!DOCTYPE svg PUBLIC "-//W3C//DTD SVG 1.1//EN" "http://www.w3.org/Graphics/SVG/1.1/DTD/svg11.dtd">
<svg version="1.1" id="图层_1" xmlns="http://www.w3.org/2000/svg" xmlns:xlink="http://www.w3.org/1999/xlink" x="0px" y="0px"
	 width="120px" height="149px" viewBox="0 0 120 149" enable-background="new 0 0 120 149" xml:space="preserve">
<path d="M109.836,39.431c-5.414-8.667-12.221-13.632-20.424-14.895l-0.797,0.1l0.199,0.797c2.988,5.646,3.637,10.593,1.942,14.844
	c-0.83,2.026-1.976,3.985-3.437,5.878l-3.444,3.898c-7.458-0.042-13.489,0.45-18.075,1.481c-5.78,1.332-10.682,3.871-14.721,7.596
	c-1.41-3.379-3.49-6.692-6.25-9.937l-0.647-0.448l-0.149,0.548l-0.05,1.295c-0.83-0.896-1.86-2.474-3.088-4.732
	c-0.365-0.697-0.647-0.697-0.847,0l-0.398,2.192l-2.292-3.736l-0.548-0.598l-0.399,0.647l-0.598,2.192
	c-0.83-0.664-2.142-2.242-3.935-4.732c-0.531-0.697-0.847-0.647-0.946,0.15c-0.167,0.863-0.2,1.992-0.1,3.387l-3.885-3.487
	c-0.398-0.333-0.664-0.499-0.797-0.499c-0.166,0.033-0.216,0.315-0.149,0.847l0.498,3.537l-2.491-2.491
	c-0.332-0.266-0.564-0.382-0.697-0.349c-0.133,0.066-0.199,0.332-0.199,0.797l-0.299,2.74c-0.56-0.102-1.328-0.322-2.296-0.658
	c1.25-4.279,1.939-8.494,2.047-12.643c0.133-4.715-0.482-10.211-1.843-16.488c-0.664-3.055-1.112-5.496-1.345-7.323
	c-0.332-2.657-0.448-5.197-0.349-7.622c0.066-0.83,0-1.295-0.199-1.395c-0.199-0.133-0.581,0.133-1.146,0.797
	C11.87,7.767,8.034,16.085,6.174,26.081C4.232,36.608,5.239,46.246,9.173,55c-0.838,1.219-1.594,2.547-2.251,4.008l-1.594,4.284
	l-1.544,4.234L1.791,71.76c-1.229,1.993-1.826,3.752-1.793,5.28c0.033,3.952,1.826,7.854,5.38,11.706
	c2.056,2.209,4.37,4.034,6.926,5.499c-2.48,2.595-4.032,5.459-4.635,8.599c-0.199,1.129-0.183,1.793,0.05,1.992
	s0.582-0.033,1.046-0.697l0.896-1.146c-0.564,2.026-0.913,4.135-1.046,6.326c-0.133,2.226,0.017,3.985,0.448,5.281
	c0.266,0.697,0.498,1.078,0.697,1.145c0.199,0.033,0.448-0.281,0.747-0.945l0.797-1.943c0.531,2.557,1.627,5.031,3.288,7.422
	c1.047,1.5,2.273,2.835,3.638,4.042l-0.948,4.427l-1.544,5.28l-1.345,1.345l-1.893,1.445c-0.631,0.631-0.963,1.277-0.996,1.941
	c0,0.632,0.299,1.163,0.896,1.595c0.492,0.348,1.105,0.534,1.826,0.578c0.712,0.762,1.768,0.996,3.17,0.698
	c0.374,0.403,1.086,0.617,2.178,0.617l3.437-0.499c1.428-0.432,2.441-1.046,3.039-1.843c0.963-1.295,2.009-3.271,3.138-5.928
	c0.836-1.967,1.488-3.77,1.96-5.409c0.086-0.136,0.164-0.283,0.248-0.423l-0.165,5.732c-0.166,3.055-0.382,5.264-0.648,6.625
	l-0.647,1.245c-0.996,1.13-1.478,2.075-1.444,2.839c0.033,0.931,0.448,1.628,1.245,2.093c0.594,0.356,1.258,0.488,1.986,0.419
	c0.343,0.539,0.965,0.921,1.899,1.125c1.096,0.232,1.993,0.1,2.69-0.398c0.004-0.003,0.007-0.008,0.011-0.011l2.978-0.089
	c1.129-0.398,2.142-1.096,3.039-2.092c0.78-0.902,1.546-2.609,2.301-5.109c0.445,0.474,1.219,0.7,2.327,0.676
	c0.217,0.158,0.486,0.283,0.852,0.349l2.748-0.218c0.317,0.25,0.806,0.41,1.486,0.467c0.83,0.033,1.561-0.116,2.192-0.448
	c1.295-0.598,2.856-2.673,4.682-6.227c1.603-3.112,2.852-6.177,3.77-9.199c0.253,0.296,0.505,0.595,0.763,0.88l2.79,2.89
	l3.089,3.587l0.398,2.291c0.1,1.262,0.066,2.158-0.1,2.689l-1.146,1.744c-0.598,0.83-0.913,1.511-0.946,2.042
	c-0.033,0.632,0.199,1.146,0.698,1.544c0.398,0.345,0.874,0.547,1.42,0.616c0.01,0.01,0.014,0.022,0.023,0.032
	c0.365,0.398,1.063,0.614,2.093,0.647l1.813-0.285c0.012,0.011,0.018,0.025,0.03,0.036c0.531,0.432,1.678,0.432,3.438,0
	c1.76-0.465,3.238-1.162,4.434-2.092c1.063-0.831,1.81-3.022,2.241-6.576c0.398-3.221,0.398-6.293,0-9.215
	c-0.1-0.83-0.714-2.641-1.843-5.43c-1.693-4.251-2.574-7.373-2.641-9.365c-0.111-2.753-0.358-5.318-0.74-7.7
	c8.281,1.272,15.521,0.192,21.712-3.259c8.368-4.616,13.532-12.935,15.491-24.957C118.104,61.697,116.145,49.493,109.836,39.431z
	 M53.236,74.705c-0.042,0.013-0.083,0.027-0.124,0.041c0.001-0.012,0.003-0.024,0.005-0.037
	C53.157,74.708,53.196,74.706,53.236,74.705z M60.72,77.837l1.644-1.743c0.797-0.631,1.162-1.096,1.096-1.395
	c-0.063-0.253-0.53-0.491-1.377-0.713c0.69-0.097,1.357-0.21,2.023-0.325c-0.488,1.395-0.815,2.855-0.977,4.386
	C62.369,77.941,61.566,77.871,60.72,77.837z M46.025,134.973c0.232-1.141,0.666-2.988,1.29-5.497l0.154,1.014
	c0.166,1.362-0.332,3.155-1.494,5.38l-0.237,0.39C45.834,135.836,45.93,135.422,46.025,134.973z"/>
</svg>
