<?xml version="1.0" encoding="utf-8"?>
<!-- Generator: Adobe Illustrator 16.0.0, SVG Export Plug-In . SVG Version: 6.00 Build 0)  -->
<!DOCTYPE svg PUBLIC "-//W3C//DTD SVG 1.1//EN" "http://www.w3.org/Graphics/SVG/1.1/DTD/svg11.dtd">
<svg version="1.1" id="图层_1" xmlns="http://www.w3.org/2000/svg" xmlns:xlink="http://www.w3.org/1999/xlink" x="0px" y="0px"
	 width="239px" height="287px" viewBox="0 0 239 287" enable-background="new 0 0 239 287" xml:space="preserve">
<path d="M228.061,207.334c0.08-0.179,0.155-0.352,0.239-0.534c1.333-2.899,1.9-4.716,1.7-5.45c-0.133-0.533-1.3-1.116-3.5-1.75
	c-2.367-0.666-3.834-1.383-4.4-2.149c-0.5-0.7-0.75-2.333-0.75-4.9c-0.033-2.466-0.399-4.05-1.1-4.75c-0.5-0.5-1.967-0.767-4.4-0.8
	c-2.566-0.033-4.533-0.566-5.899-1.6c-1.467-1.101-2.55-2.984-3.25-5.65c-0.667-2.5-1.467-4-2.4-4.5l-4.05,0.25l-5.4-0.2
	c-1.266-0.566-2.666-2.083-4.199-4.55c-1.533-2.434-2.667-3.8-3.4-4.1c-0.6-0.234-2.45-0.217-5.55,0.05
	c-1.741,0.142-3.221,0.065-4.446-0.224c-4.403-4.076-7.949-8.506-10.661-13.28c2.763-1.809,5.532-2.944,8.308-3.396
	c0.399-0.033,0.533-0.25,0.399-0.649c-1.733-4.7-1.7-9.3,0.101-13.8c1.833-4.5,5.066-7.95,9.699-10.35
	c0.301-0.167,0.351-0.4,0.15-0.7c-1.2-1.8-2.05-3.7-2.55-5.7c-0.479-1.886-0.592-3.646-0.38-5.294
	c4.183,1.541,7.539,3.418,10.029,5.645c0.533,0.466,0.967,0.617,1.301,0.45c0.3-0.167,0.383-0.533,0.25-1.1
	c-2.533-13.2-2.234-24.4,0.899-33.6c3.101-9.167,9.4-17.483,18.9-24.95c0.167-0.1,0.216-0.267,0.149-0.5
	c-1.166-4.367-0.75-9.133,1.25-14.3c1.656-4.308,3.849-7.383,6.558-9.267c0.415-0.161,0.823-0.323,1.243-0.483
	c1.133-0.434,1.633-0.867,1.5-1.3c-0.134-0.4-0.801-0.533-2-0.4c-12.4,1.733-25.2,6.217-38.4,13.45
	c-8.199,4.488-15.738,9.635-22.647,15.413c-0.197-0.537-0.318-1.09-0.353-1.663c-0.033-0.467-0.25-0.7-0.65-0.7
	c-2.732-0.033-5.383-0.983-7.949-2.85c-2.634-1.933-4.417-4.283-5.351-7.05c-0.233-0.633-0.583-0.717-1.05-0.25
	c-2.867,2.867-6.45,4.15-10.75,3.85c-4.1-0.3-7.184-1.833-9.25-4.6l-1.05-0.05c-2.169,1.989-4.946,3.582-8.316,4.791
	c-0.61-4.39-0.609-7.76,0.016-10.09c0.067-0.2,0-0.367-0.2-0.5c-2.9-1.967-5.733-8.117-8.5-18.45
	c-2.067-7.8-3.617-15.683-4.65-23.65l-0.003,0.028c-0.068-0.717-0.25-1.078-0.546-1.078c-0.267,0-0.467,0.367-0.6,1.1
	c-1.367,8.633-1.316,21.5,0.15,38.6c0.481,5.64,1.059,10.933,1.73,15.88c-1.072-0.133-2.087-0.353-3.03-0.68
	c-0.533-0.167-0.817,0.05-0.85,0.65c-0.4,3.367-2.066,6.05-5,8.05c-2.867,1.9-5.667,2.4-8.4,1.5l-0.65,0.1
	c-0.167,0.134-0.217,0.35-0.15,0.65c0.367,2.433,0.033,4.833-1,7.2c-0.976,2.208-2.421,3.986-4.326,5.344
	C72.843,75.612,64.105,73.213,54.4,71.3c-16.833-3.3-30.75-3.883-41.75-1.75c-1.066,0.2-1.583,0.517-1.55,0.95
	c0.066,0.432,0.646,0.664,1.737,0.699C19.011,72.47,24.27,75.113,28.6,79.15c4.4,4.1,6.733,8.567,7,13.4
	c0.066,0.267,0.217,0.417,0.45,0.45c8.934,1.6,16.434,6.434,22.5,14.5c6.1,8.133,9.083,17.367,8.95,27.7c0,0.6,0.083,0.95,0.25,1.05
	c0.2,0.1,0.5-0.066,0.9-0.5c0.872-0.941,1.849-1.829,2.91-2.674c0.069,0.055,0.135,0.121,0.203,0.178
	c-0.745,0.816-1.522,1.644-2.363,2.496c-4.933,4.934-8.1,10.267-9.5,16c-1.818,7.431-0.775,15.733,3.113,24.903
	c-3.701-2.823-7.904-4.992-12.613-6.503c-5.9-1.9-12.117-2.65-18.65-2.25c-5.733,0.333-11.35,1.717-16.85,4.149
	c-5.367,2.333-10.183,5.45-14.45,9.351c-0.4,0.366-0.55,0.684-0.45,0.949c0.1,0.268,0.433,0.417,1,0.45
	c3.067,0.2,6.567,1.284,10.5,3.25c1.967,1,5.317,2.983,10.05,5.95c7.233,4.5,14.867,6.533,22.9,6.1
	c8.877-0.455,16.625-3.964,23.25-10.511c6.144,4.074,12.626,10.424,19.45,19.062c3.067,3.899,8.983,12.266,17.75,25.1
	c7.2,10.569,14.95,19.117,23.244,25.67c-0.382,0.484-0.778,0.947-1.193,1.38c-1.233,1.3-2.034,2.7-2.4,4.2
	c-0.366,1.334-0.333,2.617,0.101,3.85c0.5,1.434,1.533,2.518,3.1,3.25c1.666,0.768,3.7,1.018,6.1,0.75c2.867-0.3,5.184-1,6.95-2.1
	c0.854-0.531,1.627-1.19,2.325-1.964c16.899,7.993,35.755,8.81,56.575,2.414c16.433-5.034,27.116-13.567,32.05-25.601
	C236.36,232.334,235.118,220.244,228.061,207.334z M89.2,163.7c0.879-2.665,1.469-5.492,1.8-8.465
	c2.097,2.743,3.467,5.698,4.1,8.864c0.066,0.301,0.25,0.417,0.55,0.351c4.9-0.7,9.883,0.267,14.95,2.899
	c1.113,0.581,2.167,1.209,3.164,1.881c0.558,11.217,2.76,23.07,6.636,35.569l2.149,6.45c0.721,2.134,1.214,3.853,1.502,5.2
	l-2.465,0.069c-3.062-1.858-6.123-4.007-9.184-6.44c-0.066-0.546-0.121-1.113-0.153-1.729c-0.167-3.666-0.917-5.75-2.25-6.25
	l-4.6,0.2l-4.1,0.25c-1.267-0.566-2.267-2.466-3-5.7c-0.733-3.166-1.683-4.967-2.85-5.399L92,191.6
	c-1.367,0.533-2.517,0.667-3.45,0.4c-0.933-0.267-2.333-1.8-4.2-4.6c-1.833-2.834-3.333-4.384-4.5-4.65
	c-0.434-0.1-1.75,0.2-3.95,0.9c-1.55,0.499-2.963,0.535-4.244,0.123c-0.042-0.024-0.086-0.05-0.128-0.074
	C80.381,179.104,86.275,172.44,89.2,163.7z"/>
</svg>
