<?xml version="1.0" encoding="utf-8"?>
<!-- Generator: Adobe Illustrator 16.0.0, SVG Export Plug-In . SVG Version: 6.00 Build 0)  -->
<!DOCTYPE svg PUBLIC "-//W3C//DTD SVG 1.1//EN" "http://www.w3.org/Graphics/SVG/1.1/DTD/svg11.dtd">
<svg version="1.1" id="图层_1" xmlns="http://www.w3.org/2000/svg" xmlns:xlink="http://www.w3.org/1999/xlink" x="0px" y="0px"
	 width="241px" height="240px" viewBox="0 0 241 240" enable-background="new 0 0 241 240" xml:space="preserve">
<path d="M239.076,140.891c-4.766-3.432-10.23-6.68-16.395-9.746c-3.667-1.825-7.125-3.331-10.386-4.537l2.839-0.71
	c0.934-0.366,0.983-0.85,0.15-1.45c-1.832-1.199-3.881-2.248-6.147-3.148c1.134-0.633,3.599-1.782,7.397-3.448
	c0.633-0.3,0.933-0.583,0.899-0.85c-0.033-0.233-0.399-0.433-1.1-0.6l-5.647-0.8l-5.348,0.25c4.197-4.465,8.945-8.68,14.244-12.645
	c0.899-0.667,1.316-1.15,1.249-1.45l-1.949-0.05c-5.453,1.343-10.691,2.944-15.722,4.796l11.523-18.59l12.445-20.941
	c0.566-1,0.732-1.566,0.5-1.699c-0.201-0.133-0.75,0.033-1.65,0.5c-5.564,2.832-12.944,7.896-22.141,15.193
	c-6.52,5.17-11.845,9.798-15.978,13.885c0.853-3.054,1.825-6.18,2.933-9.386c1.8-5.065,3.499-8.98,5.099-11.745
	c0.466-0.8,0.6-1.283,0.399-1.45c-0.166-0.167-0.633-0.05-1.398,0.35c-0.734,0.333-1.7,0.983-2.899,1.949
	c1.966-4.698,4.282-9.063,6.947-13.095c0.6-0.899,0.8-1.483,0.6-1.749c-0.2-0.267-0.749-0.067-1.649,0.6
	c-7.785,5.732-15.966,15.379-24.54,28.92c0.194-4.908,0.627-9.205,1.3-12.876c0.166-0.9,0.1-1.366-0.2-1.399
	c-0.233-0.034-0.6,0.25-1.099,0.85c-1.155,1.42-2.25,2.977-3.288,4.662c-0.116-0.352-0.542-0.61-1.311-0.763
	c-4.165-0.833-8.863-1.283-14.095-1.35c-2.41-0.015-4.649,0.063-6.74,0.221c4.617-2.893,8.908-5.461,12.838-7.667
	c0.666-0.4,0.983-0.733,0.949-1c-0.066-0.267-0.566-0.417-1.498-0.45l-8.768,0.496c3.483-1.521,7.218-3.232,11.216-5.144
	c16.394-7.83,27.955-14.811,34.686-20.941c0.366-0.333,0.517-0.633,0.45-0.899c-0.066-0.3-0.35-0.466-0.85-0.5
	c-1.566-0.1-3.482-0.066-5.748,0.1l-2.758,0.394c3.979-4.857,8.478-11.539,13.504-20.086c4.697-7.963,8.379-14.927,11.045-20.891
	c0.233-0.566,0.267-0.95,0.1-1.149l-1.35-0.15c-9.162,1.299-20.924,5.264-35.285,11.895c-14.993,6.897-25.922,13.611-32.786,20.142
	c-1.599,1.533-4.997,6.264-10.196,14.194c-1.32,2.02-2.596,4.008-3.833,5.969c0.73-2.802,1.574-5.442,2.534-7.918
	c0.3-0.733,0.35-1.166,0.15-1.299c-0.167-0.133-0.584,0-1.25,0.4c-3.799,2.219-7.643,4.875-11.525,7.926
	c0.18-0.712-0.175-0.841-1.07-0.379c-0.305,0.159-0.592,0.341-0.892,0.506c-0.122-2.369-0.108-5.249,0.042-8.653
	c0.167-3.798,0.45-7.213,0.85-10.246c0.133-0.899,0.1-1.399-0.1-1.5c-0.2-0.066-0.633,0.217-1.3,0.85
	c-5.086,5.086-9.173,9.901-12.287,14.452c0.207-2.127,0.431-4.296,0.692-6.555c0.067-0.833-0.017-1.283-0.25-1.35
	c-0.233-0.066-0.633,0.184-1.2,0.75c-2.567,2.479-5.147,5.468-7.74,8.966c-0.093-2.575-0.115-5.514-0.057-8.866
	c0-0.566-0.117-0.9-0.35-1c-0.267-0.1-0.617,0.117-1.05,0.65c-2.27,2.706-4.702,6.366-7.291,10.958
	c-0.234-0.534-0.469-1.045-0.706-1.512c-0.2-0.366-0.4-0.549-0.6-0.549c-0.198,0-0.444,0.196-0.739,0.586
	c-1.897-3.638-3.557-7.444-4.959-11.432c-0.633-1.833-1.183-1.783-1.649,0.15c-1.166,4.598-1.666,10.563-1.5,17.893
	c-1.532-1.233-2.982-2.582-4.348-4.048l-4.198-4.748c-1.232-1.533-1.782-1.299-1.649,0.7l0.706,6.055
	c-1.245-2.326-2.557-4.722-3.955-7.205c-4.998-8.93-8.646-14.627-10.945-17.093c-3.798-4.065-11.995-9.563-24.59-16.493
	C16.885,6.563,7.938,2.299,1.574,0.1C0.475-0.267,0.059,0.116,0.325,1.249C1.991,7.68,5.339,15.71,10.371,25.339
	c4.434,8.488,8.868,15.763,13.301,21.826l-3.555-0.435l-4.198-0.95c-0.633-0.167-1.016-0.117-1.149,0.15s0.033,0.633,0.5,1.1
	c4.265,4.165,11.995,9.429,23.19,15.793c4.801,2.732,9.228,5.106,13.313,7.151c-5.229,0.406-10.417,0.402-15.563-0.054l-1.35,0.15
	c-0.1,0.167,0.1,0.583,0.6,1.25c1.799,2.465,4.365,5.081,7.697,7.847c2.883,2.372,6.11,4.651,9.648,6.849l-11.297,0.648
	c-0.667,0-1.016,0.1-1.05,0.3l0.8,1c2.408,2.068,5.353,4.108,8.819,6.119l-5.42-0.222L32.312,94.76c-0.899,0.1-1.366,0.3-1.399,0.6
	c-0.066,0.3,0.333,0.6,1.2,0.9c2.932,1.066,6.181,2.582,9.746,4.548c3.133,1.737,5.813,3.414,8.08,5.035
	c-4.61,0.845-9.664,2.555-15.177,5.161c-5.464,2.566-9.813,5.148-13.045,7.747c-0.7,0.566-0.983,1.016-0.85,1.349l1.5,0.15
	c3.765-1.033,8.446-1.799,14.044-2.299l13.594-0.45c-5.897,3.532-11.979,9.063-18.243,16.593c-0.566,0.699-0.75,1.184-0.55,1.449
	l1.549-0.149c2.599-1.1,5.714-2.149,9.346-3.149c3.399-0.933,6.564-1.632,9.496-2.099c-1.833,2.866-3.515,6.447-5.048,10.745
	c-0.4,1.1-0.483,1.732-0.25,1.9c0.233,0.133,0.8-0.15,1.699-0.851c2.902-2.315,5.94-4.271,9.099-5.91
	c-2.042,2.539-4.059,5.367-6.05,8.509c-3.731,5.898-6.764,11.813-9.096,17.743c-0.366,0.899-0.45,1.499-0.25,1.8
	c0.233,0.332,0.75,0.166,1.549-0.5c4.032-3.299,8.58-6.631,13.645-9.996c4.908-3.282,9.115-5.82,12.64-7.635
	c-3.976,8.545-7.108,19.829-9.391,33.873c-0.433,2.799,0.184,3.116,1.849,0.95c3.266-4.288,6.218-8.097,8.869-11.448
	c0.892,9.58,1.123,17.524,0.677,23.793c-0.267,3.398-0.65,6.281-1.15,8.646l-1.649,7.098c-1.033,4.764-2.882,8.379-5.548,10.845
	c-3.166,2.866-4.648,5.498-4.448,7.897c0.133,1.965,1.383,3.582,3.749,4.848c3.132,1.699,6.281,2.166,9.446,1.399
	c3.965-0.966,6.813-3.832,8.546-8.597c4.298-11.495,7.347-19.025,9.146-22.59c1.033-2.066,1.549-4.365,1.549-6.898
	c0-4.959,0.998-12.021,2.969-21.135c2.7,2.114,5.525,3.768,8.476,4.964c1.58,4.163,3.179,7.672,4.798,10.474
	c0.5,0.867,0.917,1.233,1.25,1.1c0.3-0.133,0.417-0.683,0.35-1.648c-0.194-2-0.249-4.81-0.171-8.382l2.479,0.222
	c1.712,4.169,3.048,7.748,3.99,10.709c1.333,4.164,2.149,7.896,2.449,11.195l1,12.194c0.267,5.031,0.05,8.08-0.649,9.146
	c-2.832,4.331-3.832,7.729-2.999,10.195c0.733,2.232,2.932,3.565,6.598,3.999c4.164,0.5,7.496-0.066,9.996-1.699
	c2.731-1.767,4.182-4.682,4.348-8.747l0.169-3.258c0.647-0.338,1.257-0.768,1.83-1.29c0.767-0.699,1.3-1.449,1.6-2.249
	c5.831-15.261,10.796-26.622,14.894-34.086c0.8-1.532,0.783-3.183-0.05-4.948c-2.132-4.356-2.943-8.685-2.467-12.984
	c0.12-0.076,0.241-0.151,0.361-0.229c1.85,5.372,4.226,10.038,7.153,13.963c4.332,5.864,9.613,9.846,15.844,11.945l0.899,0.35
	l0.749,1c1.467,2.832,2.75,6.847,3.85,12.045c1.266,6.03,1.199,9.729-0.201,11.095c-1.998,1.933-3.248,3.849-3.748,5.748
	c-0.467,1.766-0.267,3.365,0.6,4.798c1,1.699,2.982,2.782,5.947,3.248l7.447-0.35c2.466-0.666,4.465-2.099,5.998-4.298
	c1.433-2.032,2.115-4.265,2.049-6.697l-0.85-16.692c-0.467-8.031-0.616-13.812-0.449-17.344c0.066-1.266,0-2.315-0.201-3.148
	c-0.232-1.1-0.716-2.082-1.449-2.949c-2.599-3.064-4.465-6.097-5.598-9.096c-1.003-2.554-1.627-5.56-1.908-8.973
	c0.205,0.127,0.402,0.248,0.609,0.377c5.964,3.73,11.028,7.096,15.193,10.096c1.732,1.266,2.115,0.916,1.149-1.051
	c-1.098-2.368-2.289-4.484-3.561-6.376c0.937,0.517,2.004,1.123,3.211,1.829c1.233,0.732,1.55,0.466,0.95-0.801
	c-0.7-1.365-1.949-3.182-3.749-5.447c1.499,0.367,3.332,1.05,5.497,2.049l1.2,0.15c0.134-0.166,0-0.6-0.399-1.3
	c-1.434-2.565-3.865-6.114-7.297-10.646l-2.817-3.539c8.116,1.695,15.243,3.771,21.358,6.238c1.967,0.766,2.366,0.366,1.2-1.199
	c-2.099-2.832-5.048-6.081-8.847-9.746c-2.138-2.043-4.17-3.864-6.104-5.479l15.25,0.93l17.193,2.199c0.999,0.2,1.565,0.2,1.699,0
	C240.408,142.008,240.008,141.558,239.076,140.891z M154.84,88.193c1.662-0.945,3.268-1.815,4.813-2.603l-0.523,3.353
	C157.658,88.606,156.229,88.356,154.84,88.193z M165.625,89.378c-0.252-2.156-0.55-4.219-0.896-6.187
	c1.434-0.619,2.813-1.167,4.125-1.625c0.333-0.115,0.579-0.237,0.779-0.363C168.178,83.658,166.842,86.384,165.625,89.378z"/>
</svg>
