<?xml version="1.0" encoding="utf-8"?>
<!-- Generator: Adobe Illustrator 16.0.0, SVG Export Plug-In . SVG Version: 6.00 Build 0)  -->
<!DOCTYPE svg PUBLIC "-//W3C//DTD SVG 1.1//EN" "http://www.w3.org/Graphics/SVG/1.1/DTD/svg11.dtd">
<svg version="1.1" id="图层_1" xmlns="http://www.w3.org/2000/svg" xmlns:xlink="http://www.w3.org/1999/xlink" x="0px" y="0px"
	 width="298px" height="253px" viewBox="0 0 298 253" enable-background="new 0 0 298 253" xml:space="preserve">
<path d="M295.947,80.473c-1.537-0.134-2.905-0.134-4.107,0l-3.856,0.701c0.634-1.102,1.235-1.937,1.803-2.504
	c0.468-0.467,0.601-0.835,0.401-1.102c-0.201-0.234-0.651-0.334-1.353-0.301c-1.483,0.077-2.898,0.588-4.245,1.528
	c0.875-2.628,1.472-6.174,1.791-10.643c0.301-4.508,0.268-8.063-0.101-10.668c-0.134-0.968-0.384-1.469-0.751-1.502
	c-0.367-0.067-0.718,0.367-1.052,1.302c-0.734,2.003-1.753,4.14-3.056,6.411c-0.213,0.371-0.418,0.703-0.625,1.044
	c1.302-6.725,0.575-13.12-2.229-19.175c-2.871-6.144-7.679-11.553-14.424-16.228c-2.538-1.77-4.308-4.09-5.31-6.961
	c-0.567-1.603-1.135-4.608-1.702-9.015c-0.101-0.734-0.317-1.135-0.651-1.202c-0.334-0.033-0.668,0.317-1.002,1.052
	c-1.568,3.239-2.236,6.595-2.003,10.067c0.024,0.411,0.068,0.814,0.117,1.217l-2.221-1.918c-0.401-0.467-0.735-0.634-1.002-0.5
	c-0.3,0.133-0.384,0.567-0.251,1.302c0.602,3.874,1.688,6.945,3.256,9.216l-3.055,0.1c-1.035,0.234-1.82,0.618-2.354,1.152
	c-0.635,0.601-0.451,1.052,0.551,1.353c2.57,0.801,4.607,1.937,6.109,3.405c1.47,1.469,2.538,3.389,3.206,5.76
	c0.835,3.039,0.817,6.244-0.05,9.616c-0.717,2.861-1.975,5.587-3.77,8.179c-0.084-2.177-0.477-3.892-1.189-5.124
	c-0.434-0.768-0.834-1.119-1.201-1.052c-0.334,0.067-0.535,0.518-0.602,1.352c-0.167,2.838-1.052,5.359-2.654,7.563
	c-0.101-3.105-1.353-6.528-3.757-10.267c-1.235-1.937-1.819-1.82-1.753,0.351c0.033,2.237-0.316,4.19-1.052,5.859
	c-0.768,1.77-1.819,2.938-3.155,3.506l-4.357,0.25c-1.329-0.325-2.484-0.953-3.482-1.852c1.196-1.2,2.228-2.679,3.082-4.459
	c0.467-0.968,0.568-1.603,0.301-1.903c-0.268-0.301-0.802-0.15-1.604,0.451c-1.568,1.135-3.389,1.753-5.459,1.853
	c-1.97,0.1-3.756-0.234-5.358-1.002c-3.372-1.603-6.929-1.436-10.668,0.501c-0.825,0.417-1.596,0.892-2.323,1.413
	c0.158-0.779,0.407-1.582,0.771-2.415c0.634-1.469,1.47-2.688,2.505-3.656c1.034-1.001,0.3-1.168-2.205-0.501
	c-1.669,0.434-3.422,1.269-5.258,2.504c-0.997,0.671-1.841,1.35-2.565,2.034c0.423-2.65,0.445-5.231,0.062-7.744
	c-0.101-0.834-0.251-1.302-0.451-1.402c-0.201-0.1-0.501,0.234-0.902,1.002c-0.734,1.536-1.469,2.654-2.203,3.355l-0.751-6.06
	c-0.2-1.135-0.484-1.686-0.852-1.653c-0.401,0-0.701,0.601-0.901,1.803c-0.635,4.24-2.188,7.479-4.658,9.716
	c-1.845,1.68-4.037,2.644-6.564,2.916c2.35-4.156,5.153-9.164,8.418-15.036c10.785-19.433,17.797-31.52,21.035-36.261
	c2.037-2.938,2.922-4.524,2.654-4.758c-0.268-0.201-1.986,0.618-5.158,2.454c-1.254,0.707-2.641,1.605-4.143,2.669
	c0.19-1.569,0.226-3.127,0.086-4.673c-0.101-1.168-0.502-1.286-1.203-0.351c-4.039,5.409-8.647,8.865-13.822,10.367
	c-17.363,4.908-29.416,10.685-36.161,17.329l0.551-3.756c0.101-1.068-0.3-1.269-1.202-0.601c-0.961,0.707-1.922,1.592-2.884,2.635
	l-0.121-4.988c-0.033-0.768-0.217-1.169-0.551-1.202s-0.668,0.3-1.001,1.001c-2.104,4.174-6.194,9.382-12.271,15.626
	c-2.905,3.038-5.542,6.26-7.913,9.666c-2.918,4.243-5.864,9.361-8.837,15.338c-0.117-2.817-0.484-5.69-1.13-8.627
	c-1.77-8.047-5.208-15.008-10.317-20.885c-4.872-5.608-10.153-8.86-15.841-9.771c-0.241-0.151-0.48-0.302-0.736-0.445
	c-2.571-1.402-4.875-1.954-6.912-1.653c-0.534,0.1-0.785,0.3-0.751,0.601l0.601,0.801c4.508,3.573,6.762,8.264,6.762,14.074
	c0,3.439-1.553,6.661-4.658,9.666c-2.337,2.237-6.627,5.192-12.872,8.865c-5.24,3.088-9.063,6.353-11.505,9.791
	c-1.22-4.359-3.19-9.803-5.924-16.352c-3.105-7.479-5.91-13.205-8.414-17.179c-0.334-0.601-0.634-0.868-0.901-0.801
	c-0.234,0.033-0.384,0.384-0.451,1.052c-0.1,1.035-0.1,2.821,0,5.359c-1.703-2.104-3.373-3.923-5.008-5.459
	c-0.435-0.434-0.768-0.601-1.002-0.501c-0.2,0.134-0.267,0.501-0.2,1.102l0.232,2.591c-3.901-4.75-8.567-9.155-14.006-13.209
	c-4.207-3.105-8.331-6.627-12.371-10.567c-4.641-4.508-7.98-8.448-10.017-11.82C6.628,1.157,6.394,0.973,6.161,1.04
	C5.927,1.106,5.776,1.39,5.71,1.891C5.643,3.627,5.727,5.264,5.96,6.799c-1.569-1.335-3.122-3.355-4.658-6.06
	c-0.3-0.534-0.601-0.751-0.901-0.651C0.067,0.188-0.05,0.556,0.05,1.19c1.836,11.82,4.458,24.257,7.863,37.313
	C11.653,52.96,14.925,62.359,17.73,66.7c2.838,4.441,8.414,9.616,16.728,15.526c7.439,5.318,14.91,9.737,22.412,13.27
	c-0.292,2.764-0.446,5.413-0.425,7.916c0,1.024,0.034,2.063,0.088,3.11c-0.329-0.458-0.684-0.925-1.09-1.407
	c-0.868-0.968-1.319-0.818-1.353,0.451c-0.067,1.836-0.334,3.373-0.801,4.608c-0.567,1.536-1.569,2.938-3.005,4.207
	c-1.235,1.135-2.07,2.387-2.504,3.756c-0.57,1.651-0.841,4.079-0.818,7.269c-0.54-0.474-1.13-0.852-1.787-1.108
	c-0.434-0.167-0.751-0.167-0.951,0c-0.201,0.134-0.234,0.417-0.101,0.852c0.267,0.601,0.434,1.569,0.501,2.905
	c-0.868-1.135-1.97-2.137-3.306-3.005c-1.335-0.901-2.721-1.569-4.157-2.003l-1.603-0.05c-0.2,0.267-0.033,0.751,0.501,1.453
	c2.438,3.206,3.64,6.161,3.606,8.865c-0.084,7.082,0.453,12.368,1.608,15.874c-1.691-1.207-3.33-1.979-4.914-2.301
	c-0.568-0.101-0.935-0.033-1.102,0.2c-0.2,0.233-0.1,0.618,0.3,1.151c1.67,2.271,2.855,4.291,3.556,6.061
	c-1.335-0.901-2.788-1.303-4.357-1.202c-0.601,0.034-0.952,0.167-1.052,0.401c-0.133,0.267,0.05,0.584,0.551,0.951
	c1.903,1.469,3.272,3.088,4.107,4.857c0.534,1.103,1.018,2.839,1.452,5.209c0.334,1.971,1.135,3.94,2.404,5.91
	c1.636,2.571,3.839,4.758,6.611,6.561c-0.501-0.1-1.352-0.1-2.554,0l-2.805,0.401c-0.868,0.2-1.202,0.435-1.002,0.701l1.202,0.701
	l4.958,3.255c0.093,0.069,0.17,0.119,0.261,0.186c-2.665,0.744-4.831,1.532-6.472,2.369c-0.668,0.301-0.935,0.617-0.801,0.951
	c0.1,0.268,0.484,0.418,1.152,0.451c4.017,0.252,8.182,1.637,12.493,4.129l-2.827,0.68c-0.534,0.066-0.818,0.233-0.851,0.5
	c-0.034,0.268,0.2,0.568,0.701,0.902c1.436,0.9,3.105,1.636,5.008,2.203c1.703,0.532,3.352,0.832,4.949,0.918
	c-0.675,0.775-1.227,1.619-1.643,2.538c-0.568,1.202-0.25,1.552,0.951,1.052c1.536-0.568,2.788-0.868,3.756-0.902
	c-1.736,1.604-2.888,3.59-3.456,5.961c-0.367,1.469,0.05,1.719,1.252,0.751c1.703-1.369,3.339-2.271,4.908-2.704l0.147-0.021
	c0.55,4.008,0.761,8.2,0.604,12.591c-0.2,6.044-1.052,11.436-2.554,16.178l-1.102,2.604l-1.352,2.104
	c-1.336,2.07-2.187,4.074-2.555,6.011c-0.367,1.903-0.25,3.622,0.351,5.159c1.169,2.805,3.823,4.557,7.963,5.258
	c3.74,0.635,7.045,0.435,9.917-0.601c2.871-1.001,5.142-2.805,6.811-5.409c1.536-2.371,2.822-5.459,3.857-9.266
	c0.893-3.38,1.678-7.698,2.357-12.936c2.633-0.681,5.171-1.902,7.609-3.691c8.792-6.539,15.786-11.043,21.03-13.565
	c-1.251,4.001-2.667,7.26-4.251,9.759l-1.553,2.354l-1.202,1.502c-2.037,2.805-2.504,5.526-1.402,8.164
	c1.035,2.537,3.155,4.19,6.36,4.959c4.474,1.102,8.264,1.035,11.369-0.201c3.506-1.369,6.628-4.391,9.366-9.064
	c1.937-3.239,3.923-6.996,5.96-11.27l4.408-10.268c1.135-2.904,1.553-5.408,1.252-7.512c-0.257-1.893-0.995-3.13-2.207-3.729
	c1.611-1.898,2.952-3.235,4.009-3.984c0.253-0.188,0.54-0.342,0.819-0.505c2.161,3.724,5.087,7.183,8.797,10.371
	c4.374,3.739,9.249,6.544,14.624,8.414c1.537,0.567,2.404,2.237,2.605,5.009c0.334,5.543-0.284,10.2-1.854,13.973l-0.901,1.754
	l-1.253,1.402c-2.938,3.271-4.49,6.494-4.657,9.666c-0.2,5.476,2.838,8.647,9.115,9.516c4.508,0.635,8.114,0.351,10.818-0.852
	c3.873-1.736,6.878-5.51,9.015-11.318c4.842-13.089,7.646-22.389,8.414-27.897c0.4-2.938,0.317-5.442-0.25-7.513
	c-0.29-1.061-0.727-2.086-1.302-3.078c4.257,1.762,8.515,2.727,12.771,2.878c1.169,0.034,1.787-0.149,1.854-0.551
	c0.1-0.367-0.384-0.817-1.452-1.353c-0.895-0.44-1.759-0.93-2.602-1.453c0.935,0.204,1.9,0.357,2.901,0.451
	c1.604,0.168,3.573,0.201,5.91,0.101c3.072-0.101,6.277,0.868,9.616,2.905c0.935,0.567,1.536,0.701,1.804,0.4
	c0.233-0.268,0.033-0.852-0.602-1.753c-1.331-1.83-2.698-3.367-4.099-4.645c0.505,0.025,1.016,0.043,1.544,0.036
	c3.907-0.033,7.98-0.9,12.221-2.604c3.74-1.469,8.131-1.72,13.172-0.752c1.035,0.201,1.604,0.134,1.703-0.199
	c0.101-0.334-0.233-0.818-1.002-1.453c-1.652-1.335-3.617-2.304-5.889-2.912c1.928-0.851,4.271-2.444,7.041-4.801l6.16-6.762
	l6.278-7.806c0.981-0.338,2.008-0.643,3.088-0.909c5.108-1.234,9.816-1.219,14.124,0.051l1.553,0.05
	c0.199-0.233,0.116-0.802-0.251-1.702c-0.877-2.226-2.396-3.81-4.537-4.77c-0.633-1.363-1.628-2.472-3.026-3.295
	c-1.702-0.968-3.639-1.318-5.809-1.051c1.168-0.802,2.621-1.503,4.357-2.104c1.836-0.635,3.723-1.068,5.658-1.303
	c1.771-0.167,1.887-0.752,0.352-1.753c-1.802-1.21-3.527-2.056-5.187-2.577c0.458-0.241,0.934-0.516,1.43-0.828
	c1.603-0.969,3.173-2.171,4.708-3.606c0.668-0.601,0.602-1.052-0.2-1.353c-1.607-0.536-3.354-0.73-5.223-0.623
	c1.468-2.009,2.597-4.334,3.37-6.99c1.268-4.307,1.302-8.296,0.1-11.969c-0.936-2.872-0.984-6.194-0.15-9.967
	c0.868-4.074,0.918-7.863,0.15-11.369c-0.167-0.801-0.418-1.219-0.752-1.252c-0.3-0.034-0.634,0.284-1.001,0.952
	c-0.466,0.888-1.045,1.775-1.718,2.663c0.053-0.189,0.117-0.366,0.165-0.559c0.167-3.072,0.668-5.91,1.503-8.515
	c1.603-5.042,4.607-8.564,9.015-10.567c1.103-0.501,1.636-0.935,1.603-1.302C297.816,80.807,297.182,80.573,295.947,80.473z"/>
</svg>
