<?xml version="1.0" encoding="utf-8"?>
<!-- Generator: Adobe Illustrator 16.0.0, SVG Export Plug-In . SVG Version: 6.00 Build 0)  -->
<!DOCTYPE svg PUBLIC "-//W3C//DTD SVG 1.1//EN" "http://www.w3.org/Graphics/SVG/1.1/DTD/svg11.dtd">
<svg version="1.1" id="图层_1" xmlns="http://www.w3.org/2000/svg" xmlns:xlink="http://www.w3.org/1999/xlink" x="0px" y="0px"
	 width="265px" height="236px" viewBox="0 0 265 236" enable-background="new 0 0 265 236" xml:space="preserve">
<path d="M264.253,71.215l-65.114-51.46L154.33,0.35l-2.501-0.3l-50.21,3.651l-1.25,0.25l-0.7,0.75L81.214,34.307
	c-0.267,0.434-0.3,1.05-0.1,1.851l12.152,39.058c0.267,0.767,0.684,1.217,1.25,1.351l34.164,6.782l-29.663,25.475
	c-7.261,6.29-13.208,11.506-17.855,15.659L47.307,88.219L8.399,46.71c-0.167-0.1-1.267-0.117-3.301-0.05l-3.401,0.3
	c-0.233,0.2-0.767,1.851-1.6,4.951l48.704,101.922c-1.472,1.661-3.114,3.521-4.945,5.601l-14.303,16.404l-9.552,18.754
	c-5.935,11.902-8.902,18.086-8.902,18.553c0,0.4,1.984,2.001,5.952,4.802c3.834,2.733,5.917,4.134,6.251,4.2l26.806-3.35
	l27.006-3.602c11.508-4.124,20.958-7.541,28.369-10.258l4.388,3.906c0.434,0.334,1.75,0.867,3.951,1.601
	c2.268,0.8,3.651,1.134,4.151,1.001l33.536-7.633c1.367,6.514,2.375,10.044,3.021,10.583c0.867,0.667,10.203,3.435,28.006,8.302
	l27.557,7.352c19.971,4.001,30.173,5.885,30.605,5.651c0.434-0.2,2.117-2.101,5.052-5.702c2.968-3.633,4.468-5.65,4.501-6.051
	c0.1-0.5-1.9-6.635-6.002-18.404c-4.066-11.668-6.268-17.72-6.601-18.153c-0.464-0.637-11.493-9.199-33.077-25.677
	c11.803-15.363,17.724-23.457,17.724-24.234c0-1.199-8.502-10.936-25.505-29.206c-8.19-8.814-14.472-15.517-18.865-20.129
	l60.023-1.976l25.855-6.401c0.533-0.133,0.816-0.467,0.85-1l0.201-5.901C264.887,72.099,264.687,71.548,264.253,71.215z"/>
</svg>
