<?xml version="1.0" encoding="utf-8"?>
<!-- Generator: Adobe Illustrator 16.0.0, SVG Export Plug-In . SVG Version: 6.00 Build 0)  -->
<!DOCTYPE svg PUBLIC "-//W3C//DTD SVG 1.1//EN" "http://www.w3.org/Graphics/SVG/1.1/DTD/svg11.dtd">
<svg version="1.1" id="图层_1" xmlns="http://www.w3.org/2000/svg" xmlns:xlink="http://www.w3.org/1999/xlink" x="0px" y="0px"
	 width="141px" height="160px" viewBox="0 0 141 160" enable-background="new 0 0 141 160" xml:space="preserve">
<path d="M126.451,103.573c4.623-9.18,7.85-19.641,9.679-31.381c2.595-16.73,2.927-29.984,0.998-39.763
	c-1.896-9.446-6.203-16.963-12.922-22.55C116.424,3.393,107.044,0.1,96.068,0C85.092-0.067,74.615,3.076,64.637,9.429
	c-9.979,6.386-18.094,16.048-24.347,28.987c-6.02,12.506-10.244,27.922-12.672,46.248c-0.299,2.229-0.815,4.008-1.547,5.339
	l-3.093,4.29c-1.497,1.996-2.461,3.626-2.894,4.89c-0.098,0.28-0.181,0.569-0.254,0.862c-0.33-4.837,1.009-9.218,4.045-13.135
	c1.929-2.429,2.694-4.025,2.295-4.79c-0.466-0.864-2.495-1.048-6.087-0.549c-6.187,0.831-11.176,3.958-14.967,9.38
	c-3.559,5.021-5.122,10.477-4.69,16.363c0.333,4.391,1.747,8.498,4.241,12.324c2.045,3.108,4.512,5.569,7.385,7.404
	c-1.086,0.821-2.424,1.63-4.042,2.424l-4.79,2.295c-1.53,0.832-2.128,1.663-1.796,2.494c0.333,0.766,1.53,1.381,3.592,1.846
	c2.543,0.586,5.292,0.68,8.22,0.339c-1.287,0.853-2.701,1.72-4.279,2.605c-1.796,1.063-2.761,1.945-2.894,2.644
	c-0.066,0.6,0.466,1.164,1.597,1.697c2.162,0.997,4.873,1.413,8.132,1.246c2.313-0.148,4.625-0.568,6.937-1.257
	c-0.749,0.506-1.534,1.009-2.397,1.507c-2.627,1.563-3.892,2.761-3.792,3.592c0.067,0.799,1.38,1.514,3.941,2.146l6.636,0.35
	c1.933-0.188,3.717-0.589,5.366-1.178c-1.204,1.15-1.717,2.209-1.524,3.173c0.233,1.164,1.547,1.779,3.941,1.846
	c4.69,0.134,9.346-1.479,13.97-4.839c3.519-2.554,6.33-5.506,8.449-8.848c0.939,2.627,2.547,5.265,4.815,7.913
	c-0.665,0.217-1.334,0.432-2.039,0.635c-2.063,0.6-2.944,1.514-2.645,2.744c0.299,1.197,1.563,2.346,3.792,3.443
	c3.924,1.995,8.564,2.844,13.92,2.544c0.118-0.006,0.232-0.02,0.351-0.026c1.148,0.631,3.07,1.041,5.785,1.224
	c3.026,0.2,4.739-0.066,5.14-0.798c0.376-0.7,0.332-1.645-0.12-2.824c0.397-0.164,0.786-0.347,1.176-0.527
	c4.056,1.738,8.425,2.35,13.112,1.805c1.764-0.199,2.762-0.682,2.994-1.447c0.199-0.731-0.333-1.862-1.597-3.393l-1.084-1.211
	c2.017,0.684,3.941,1.139,5.773,1.361l8.231-0.25c4.819-0.754,5.769-2.365,2.867-4.831l6.713,0.291
	c2.328-0.166,3.908-0.648,4.739-1.446c1.064-0.998,1.181-1.963,0.349-2.895c-0.664-0.765-2.544-2.045-5.637-3.842l-6.486-3.94
	c-1.868-1.277-3.473-2.573-4.837-3.884c2.683-3.375,4.021-6.901,3.989-10.585c0-1.254-0.18-2.605-0.521-4.047
	C119.254,115.495,122.703,110.978,126.451,103.573z M25.073,112.104c1.021,0.492,1.921,0.836,2.722,1.059l-1.053,1.138
	c-0.91-0.821-1.72-1.692-2.451-2.603C24.545,111.837,24.799,111.977,25.073,112.104z"/>
</svg>
