<?xml version="1.0" encoding="utf-8"?>
<!-- Generator: Adobe Illustrator 16.0.0, SVG Export Plug-In . SVG Version: 6.00 Build 0)  -->
<!DOCTYPE svg PUBLIC "-//W3C//DTD SVG 1.1//EN" "http://www.w3.org/Graphics/SVG/1.1/DTD/svg11.dtd">
<svg version="1.1" id="图层_1" xmlns="http://www.w3.org/2000/svg" xmlns:xlink="http://www.w3.org/1999/xlink" x="0px" y="0px"
	 width="313px" height="269px" viewBox="0 0 313 269" enable-background="new 0 0 313 269" xml:space="preserve">
<path d="M308.805,206.457c-2.43-0.433-4.777,0.883-7.041,3.945c-4.494,6.025-9.471,9.504-14.931,10.437
	c-5.394,0.932-10.87-0.666-16.429-4.794L265.061,212l-14.581-10.736c-2.488-1.645-4.902-3.101-7.252-4.389
	c8.501-7.138,15.028-16.279,19.536-27.471c3.563-8.855,5.76-18.144,6.592-27.864c0.763-9.181,0.267-18.439-1.457-27.771
	c2.301-1.722,4.894-3.353,7.799-4.887c3.396-1.765,4.827-3.646,4.295-5.643c-0.5-1.964-2.514-2.663-6.043-2.097
	c-2.877,0.483-5.606,1.194-8.221,2.083c-3.123-11.014-7.584-21.183-13.401-30.497c-7.058-11.252-16.196-20.541-27.415-27.865
	c-1.186-0.77-2.387-1.504-3.597-2.216l-3.494-17.608c-0.399-1.831-0.815-2.863-1.249-3.096c-0.599-0.333-1.748,0.167-3.445,1.498
	l-6.492,5.493c-2.396,2.139-4.076,3.793-5.056,4.975c-4.486-1.396-9.107-2.476-13.87-3.227l-14.693-1.265
	c-1.885-4.176-4.554-9.107-8.027-14.814c-3.029-5.027-5.477-8.789-7.34-11.286c-1.665-2.197-2.847-3.163-3.546-2.896
	c-0.566,0.2-1.082,1.481-1.548,3.845l-2.747,15.33c-0.933,5.383-1.518,9.442-1.768,12.223c-6.214,1.268-12.333,3.116-18.356,5.555
	c-5.925,2.443-11.526,5.386-16.834,8.782c-3.28-1.561-6.821-3.074-10.63-4.537l-15.081-5.543l-0.2-0.05l-0.2-0.1
	c-3.529-1.198-4.544-0.167-3.046,3.096c4.428,9.665,8.055,17.119,10.891,22.387c-6.376,6.789-11.821,14.723-16.33,23.81
	c-6.596,0.605-14.164,1.434-22.725,2.491c-4.328,0.566-4.744,1.997-1.248,4.294c2.938,1.937,8.623,5.302,17.039,10.088l-0.96,2.695
	c-2.796,7.956-4.811,15.963-6.042,24.019c-1.2,7.577-1.626,14.79-1.299,21.647c-0.065,0.026-0.133,0.05-0.199,0.075v0.25
	c-1.565,0.599-2.314,1.165-2.247,1.698c0.066,0.432,0.815,0.981,2.247,1.647c0.155,0.07,0.302,0.136,0.457,0.206
	c0.282,2.996,0.655,5.718,1.12,8.167c-0.518,0.346-1.027,0.716-1.527,1.114c-3.895,3.097-5.893,6.608-5.992,10.537
	c-0.066,3.426,0.746,6.505,2.432,9.24c-1.607,0.781-3.346,1.24-5.229,1.346c-2.297,0.134-4.294-0.266-5.992-1.198
	c-3.329-1.765-5.459-5.376-6.392-10.836c-1.365-7.989-3.545-14.382-6.542-19.176c-2.796-4.394-6.392-7.59-10.786-9.587
	c-3.096-1.398-6.425-1.881-9.987-1.449c-3.529,0.434-7.091,1.715-10.686,3.846C0.932,147.965-0.3,149.713,0,151.577
	c0.333,1.897,2.181,2.464,5.543,1.698c5.06-1.166,9.288-0.966,12.684,0.599c3.596,1.665,6.076,4.811,7.44,9.438l1.148,5.293
	l0.949,5.243c1.165,6.259,2.197,10.387,3.096,12.384c1.408,3.134,3.547,5.448,6.395,6.972c-9.195,0.153-17.024,3.296-23.473,9.458
	c-2.996,2.83-5.16,6.176-6.492,10.037c-1.332,3.762-1.798,7.79-1.398,12.084c0.266,3.063,0.982,4.761,2.147,5.094
	c1.132,0.333,2.58-0.732,4.345-3.195c2.397-3.396,5.36-6.01,8.889-7.84c3.628-1.932,7.307-2.714,11.036-2.348
	c2.93,0.3,6.009,1.481,9.238,3.545l8.189,6.043c0.891,0.68,1.736,1.303,2.56,1.9c-1.418,0.818-3.069,2.18-4.957,4.092
	c-1.831,1.831-3.595,3.846-5.293,6.043c-3.096,4.027-5.876,6.907-8.339,8.639c-3.695,2.529-7.574,3.379-11.635,2.547
	c-3.029-0.666-5.693-2.131-7.99-4.395c-2.364-2.297-4.111-5.211-5.244-8.739c-0.898-2.796-2.33-3.995-4.294-3.595
	c-1.997,0.365-3.029,2.08-3.096,5.143c-0.133,5.061,1.215,9.571,4.044,13.533c2.863,3.994,6.841,6.841,11.935,8.539
	c5.293,1.83,10.836,1.947,16.628,0.35c6.425-1.731,11.569-5.26,15.431-10.587c4.9-6.766,10.526-11.235,16.877-13.41
	c-2.085,2.352-3.738,5.02-4.942,8.017c-1.698,4.129-2.214,8.189-1.548,12.186c0.766,4.428,2.297,6.94,4.594,7.54
	c2.331,0.599,3.845-1.282,4.544-5.644c0.466-2.93,1.582-5.858,3.346-8.788c1.393-2.286,2.87-4.045,4.428-5.294
	c-0.075,0.299-0.146,0.597-0.233,0.899c-0.533,1.931-1.582,4.544-3.146,7.84c-1.298,2.729-1.898,5.177-1.798,7.341
	c0.1,2.363,1.015,4.229,2.747,5.593c1.631,1.265,3.595,1.848,5.893,1.748c2.863-0.134,5.875-1.382,9.038-3.745
	c5.626-4.229,9.804-7.158,12.534-8.789c4.395-2.597,8.672-4.328,12.833-5.193c7.624-1.564,17.894-1.664,30.811-0.3
	c12.285,1.298,24.635,3.646,37.052,7.041c9.821,2.729,17.711,3.479,23.67,2.247c4.162-0.832,7.025-2.48,8.59-4.943
	c2.264-3.563,1.748-7.79-1.549-12.684c-1.098-1.631-4.128-5.011-9.088-10.137c-2.162-2.25-4.042-4.273-5.69-6.111
	c1.53-1.226,3.554-1.81,6.09-1.729c3.163,0.067,6.075,1.132,8.739,3.196c1.598,1.231,4.127,4.012,7.59,8.34
	c3.162,3.961,6.176,6.857,9.039,8.688c4.594,2.996,9.305,4.211,14.131,3.646c4.861-0.533,8.973-2.73,12.334-6.592
	c2.031-2.297,2.664-3.979,1.898-5.044c-0.732-0.999-2.247-0.999-4.545,0c-3.895,1.665-7.807,1.647-11.734-0.05
	c-4.66-2.031-8.705-6.292-12.135-12.783c-2.463-4.661-5.576-8.456-9.338-11.386c-0.705-0.545-1.426-1.036-2.155-1.502
	c2.619-0.71,5.079-1.521,7.367-2.441c5.77,1.393,11.306,3.903,16.61,7.538c1.266,0.866,3.578,2.73,6.941,5.594
	c3.396,2.896,6.209,5.109,8.439,6.641c7.557,5.327,15.163,8.09,22.82,8.29c6.857,0.2,12.95-1.698,18.276-5.692
	c5.327-3.995,9.255-9.672,11.785-17.029C311.9,208.953,311.302,206.89,308.805,206.457z"/>
</svg>
