<?xml version="1.0" encoding="utf-8"?>
<!-- Generator: Adobe Illustrator 16.0.0, SVG Export Plug-In . SVG Version: 6.00 Build 0)  -->
<!DOCTYPE svg PUBLIC "-//W3C//DTD SVG 1.1//EN" "http://www.w3.org/Graphics/SVG/1.1/DTD/svg11.dtd">
<svg version="1.1" id="图层_1" xmlns="http://www.w3.org/2000/svg" xmlns:xlink="http://www.w3.org/1999/xlink" x="0px" y="0px"
	 width="111px" height="196px" viewBox="0 0 111 196" enable-background="new 0 0 111 196" xml:space="preserve">
<path d="M108.693,88.113c0.533-1.165,0.799-2.164,0.799-2.996c0-2.296-2.08-4.66-6.24-7.089c0.666-0.865,1.531-2.363,2.596-4.493
	c1.198-2.429,1.797-4.11,1.797-5.042c0-1.897-1.063-3.861-3.193-5.891c-1.864-1.764-5.774-4.709-11.73-8.836
	c3.295-4.327,4.94-9.335,4.94-15.027l-0.101-1.947c-0.299-3.062-1.33-6.34-3.096-9.835c-2.163-4.227-5.059-7.988-8.686-11.283
	C77.824,8.485,68.672,3.726,58.32,1.396c-8.054-1.831-15.061-1.997-21.019-0.5c-8.62,2.13-15.992,6.424-22.116,12.88
	c-4.26,4.526-7.671,9.802-10.234,15.826C1.657,37.258,0.01,44.147,0.01,50.271c0,5.891,1.082,10.7,3.245,14.428
	c3.694,6.39,9.536,12.031,17.523,16.924c-0.433,0.898-0.832,2.097-1.198,3.595c-0.366,1.564-0.549,2.912-0.549,4.043
	c0,1.498,0.366,2.813,1.098,3.944c0.666,1.065,1.814,2.197,3.445,3.395c-1.265,3.328-2.03,6.773-2.296,10.333
	c-0.266,3.86,0.2,6.557,1.398,8.088c1.431,1.797,3.278,3.527,5.542,5.191c-0.233,0.699-0.499,2.08-0.799,4.145
	c-0.366,2.396-0.549,4.543-0.549,6.439c0,2.696,0.45,5.375,1.348,8.038c0.965,2.86,2.679,6.423,5.142,10.685
	c-0.333,7.056,1.265,15.858,4.792,26.408c3.562,10.551,6.856,16.26,9.885,17.124c3.728,1.064,9.652-1.465,17.771-7.589
	c8.021-6.059,14.762-13.029,20.221-20.918c3.527-0.232,6.738-2.029,9.636-5.393c3.827-4.56,6.854-10.283,9.086-17.174
	c2.662-8.088,3.994-17.141,3.994-27.158c0-6.723-0.718-14.295-2.147-22.714L108.693,88.113z"/>
</svg>
