<?xml version="1.0" encoding="utf-8"?>
<!-- Generator: Adobe Illustrator 16.0.0, SVG Export Plug-In . SVG Version: 6.00 Build 0)  -->
<!DOCTYPE svg PUBLIC "-//W3C//DTD SVG 1.1//EN" "http://www.w3.org/Graphics/SVG/1.1/DTD/svg11.dtd">
<svg version="1.1" id="图层_1" xmlns="http://www.w3.org/2000/svg" xmlns:xlink="http://www.w3.org/1999/xlink" x="0px" y="0px"
	 width="250px" height="181px" viewBox="0 0 250 181" enable-background="new 0 0 250 181" xml:space="preserve">
<path d="M247.498,134.369c-0.351-0.688-0.726-1.388-1.122-2.098c-1.77-12.48-5.513-25.378-11.239-38.693
	c-7.241-16.816-16.717-31.915-28.43-45.295c-13.146-15.015-28.078-26.626-44.795-34.835c-18.852-9.242-39.188-13.713-61.01-13.413
	c-27.227,0.367-50.567,8.508-70.02,24.424c-7.541,6.173-14.047,13.196-19.52,21.071C6.758,52.137,3.371,58.56,1.202,64.8
	c-1.401,4.104-1.618,9.56-0.651,16.366c0.935,6.94,2.703,12.229,5.306,15.866c1.802,2.503,3.353,4.321,4.654,5.455
	c1.668,1.435,3.454,2.253,5.355,2.452l12.012,1.502c4.814,1.008,9.772,2.801,14.869,5.358c0.294,0.432,0.59,0.863,0.89,1.288
	c-2.829,2.964-4.886,5.227-6.149,6.768c-2.87,3.503-4.621,6.406-5.255,8.708c-0.934,3.403-0.767,8.809,0.5,16.216
	c1.302,7.675,3.12,12.83,5.456,15.466c2.336,2.636,5.556,5.005,9.66,7.107c4.471,2.269,8.575,3.42,12.313,3.453
	c2.169,0.033,5.088-1.401,8.759-4.304l5.155-4.605c0.867-0.768,0.701-1.218-0.501-1.352c-2.135-0.199-4.421-0.684-6.856-1.451
	c-2.569-0.801-4.171-1.568-4.805-2.302c-0.534-0.734-1.067-3.304-1.602-7.708c-0.534-4.504-0.534-7.09,0-7.758
	c0.601-0.567,1.869-1.469,3.804-2.703c1.293-0.798,2.502-1.51,3.642-2.154c1.929,1.254,3.911,2.439,5.953,3.549
	c-0.23,1.535-0.396,3.262-0.486,5.213c-0.133,3.437,0.033,6.206,0.5,8.309c0.667,2.77,3.053,5.955,7.157,9.559
	c3.871,3.438,7.224,5.522,10.06,6.257c3.336,0.901,7.291,0.2,11.862-2.103c4.304-2.135,6.84-4.338,7.607-6.606l0.15-0.851
	c-0.033-0.234-0.284-0.384-0.751-0.451l-9.309-0.801c-0.634-1.434-1.084-2.902-1.352-4.404c-0.033-0.434,0.584-1.468,1.852-3.103
	l0.939-1.052c14.881,2.811,31.054,2.447,48.516-1.078c-0.52,3.315-1.485,6.463-2.908,9.438c-1.402,2.936-2.503,4.57-3.304,4.904
	l-4.354,0.5l-5.055-0.4l-3.805,0.201c-0.434,0.434-0.25,1.301,0.551,2.602c1.369,2.137,3.004,4.088,4.905,5.856
	c2.702,2.569,5.505,4.288,8.409,5.155c4.404,1.334,9.158,1.018,14.264-0.951c4.621-1.764,9.046-4.73,13.278-8.876
	c1.947,2.127,4.102,3.948,6.491,5.423c3.471,2.169,6.891,3.253,10.26,3.253c3.638,0,7.357-1.785,11.162-5.354
	c3.637-3.371,5.955-6.924,6.957-10.661c0.533-2.002,0.834-6.407,0.9-13.214c0.016-1.697,0.006-3.256-0.023-4.701
	c4.101,0.416,8.841,1.444,14.238,3.1c3.308,1.03,6.524,2.17,9.652,3.414c1.185,0.938,2.471,1.57,3.861,1.892
	c2.436,0.534,4.838-0.017,7.207-1.651c3.002-2.035,4.771-4.588,5.305-7.658C248.883,138.74,248.566,136.471,247.498,134.369z
	 M180.23,152.938c0.164-0.422,0.301-0.812,0.455-1.222c0.908,0.665,1.43,1.256,1.547,1.772c0.234,1.168,0.284,2.986,0.15,5.455
	c-0.133,2.503-0.367,3.971-0.7,4.404c-0.501,0.602-1.769,1.068-3.804,1.402c-1.21,0.188-2.311,0.259-3.325,0.237
	C176.025,162.844,177.917,158.831,180.23,152.938z"/>
</svg>
