<?xml version="1.0" encoding="utf-8"?>
<!-- Generator: Adobe Illustrator 16.0.0, SVG Export Plug-In . SVG Version: 6.00 Build 0)  -->
<!DOCTYPE svg PUBLIC "-//W3C//DTD SVG 1.1//EN" "http://www.w3.org/Graphics/SVG/1.1/DTD/svg11.dtd">
<svg version="1.1" id="图层_1" xmlns="http://www.w3.org/2000/svg" xmlns:xlink="http://www.w3.org/1999/xlink" x="0px" y="0px"
	 width="365px" height="318px" viewBox="0 0 365 318" enable-background="new 0 0 365 318" xml:space="preserve">
<path d="M360.65,241.325c-7.634-15.4-17.334-30.434-29.101-45.101c-8.815-10.995-19.225-22.299-31.218-33.909
	c2.844,0.848,5.931,1.403,9.268,1.659c3.167,0.2,5.184-0.116,6.051-0.949c1.267-1.268,0.149-3.684-3.351-7.25
	c-2.899-2.966-6.517-6-10.85-9.1c-3.438-2.471-6.925-4.698-10.458-6.708l10.208,0.859c3.733,0.033,5.783-0.483,6.149-1.55
	c0.267-0.9-0.6-2.367-2.6-4.4c-1.467-1.467-4.316-3.467-8.55-6c-3.161-1.862-6.239-3.522-9.238-4.988
	c0.111,0.012,0.228,0.027,0.338,0.038c7.4,0.733,14.167,0.65,20.3-0.25c4.967-0.733,7.483-2.05,7.551-3.95
	c0.066-1.833-2.084-3.983-6.45-6.45c-7.567-4.3-16.684-8.417-27.351-12.35c-12.627-4.642-23.288-7.246-32.036-7.866
	c1.169-1.127,2.317-2.283,3.437-3.484c1.771-1.886,3.583-3.951,5.43-6.178c2.064-0.224,5.405-0.102,10.07,0.378
	c6,0.567,10.834,1.4,14.5,2.5c0.5,0.133,0.816,0.133,0.95,0c0.134-0.167,0.149-0.483,0.05-0.95c-0.533-2.067-2.65-4.884-6.35-8.45
	c-3.07-2.893-6.062-5.234-8.975-7.029c3.131-4.483,6.354-9.386,9.674-14.721c9.467-15.167,15.967-27.85,19.5-38.05
	c1.234-3.6,1.316-5.733,0.25-6.4c-1.066-0.667-3.3,0.05-6.699,2.15c-8.066,4.933-18.75,9.15-32.051,12.65
	c-2.133-3.3-6.5-4.983-13.1-5.05l-20.45,1.95c-8.533,1.033-17.25,0.767-26.149-0.8l-17.351-4.1c-4.833-1.1-8.65-1.083-11.45,0.05
	c-0.11,0.044-0.212,0.11-0.321,0.158c-2.643-0.823-5.203-2.201-7.679-4.158c-3.467-2.733-6.417-6.3-8.85-10.7
	c-1.167-2.134-2.283-3-3.35-2.6c-1.033,0.4-2.15,2.017-3.35,4.85c-6.701,16.099-10.363,31.546-11.011,46.346
	c-0.271-0.547-0.548-1.132-0.839-1.796c-0.3-0.7-0.75-1.217-1.35-1.55c-0.347-0.204-0.686-0.296-1.02-0.3
	c-0.016-0.406-0.053-0.794-0.13-1.15c-0.233-1.233-0.9-2.45-2-3.65c-4.367-4.733-7.45-10.25-9.25-16.55
	c-1.233-4.366-2-10.083-2.3-17.15c-0.1-2.367-0.85-4.083-2.25-5.15c-1.4-1.033-3.566-1.367-6.5-1l-5.15,1.1L92.4,5.475l-13.95,0.55
	c-6,0.534-11.817,1.767-17.45,3.7c-12.867,4.4-24.5,12.183-34.9,23.35c-13.833,14.8-22.283,32.966-25.35,54.5
	c-0.967,6.8-0.983,10.4-0.05,10.8c0.9,0.367,2.9-2.217,6-7.75c4.2-7.4,9.65-14.833,16.35-22.3c9.1-10.134,18.383-17.567,27.85-22.3
	c6.7-3.367,13.85-5.517,21.45-6.45c7.167-0.867,15.6-0.733,25.3,0.4c0.733,0.1,1.434-0.267,2.1-1.1l2.1-3.65l2.35-4.8
	c1.1-2.167,2.233-4.116,3.4-5.85c2.667,1.833,5.15,5.65,7.45,11.45c1.667,4.233,2.917,8.5,3.75,12.8
	c0.378,2.095,1.179,3.729,2.398,4.906c-0.379,2.473-0.497,4.041-0.348,4.693c0.4,1.567,1.917,3.05,4.55,4.45l1.75,0.85
	c3,1.466,5.017,2.7,6.05,3.7c1.185,1.117,2.601,2.967,4.237,5.516c3.204,16.623,11.521,29.671,24.906,39.177
	c1.044,1.556,2.228,3.026,3.557,4.407c3.533,3.667,7.233,5.817,11.1,6.45c2.567,0.433,5.117,0.033,7.65-1.2c2-1,3.766-2.4,5.3-4.2
	c0.626-0.007,1.245-0.048,1.868-0.068c2.92,6.87,5.98,11.33,9.182,13.368c2.771,1.75,6.289,2.367,10.557,1.852
	c1.779,3.271,4.788,5.901,9.025,7.892c-0.86,0.919-1.497,1.837-1.882,2.756c-0.351,0.875-0.524,1.886-0.542,3.018l-0.358,0.083
	l-6.399,0.65c-3.434,0.033-7.15-0.4-11.15-1.3c-3.4-0.767-7.066-2.65-11-5.65c-3.2-2.466-6.066-5.25-8.6-8.35
	c-1.566-1.934-3.167-2.934-4.8-3c-1.333-0.067-2.917,0.667-4.75,2.2l-5.35,5.3c-1.4,1.466-3.233,2.816-5.5,4.05l-6.35,3.15
	c-4.733,2.367-8.083,4.217-10.05,5.55c-4.133,2.8-7.95,6.366-11.45,10.7c-3.9,4.833-7.8,12.35-11.7,22.55
	c-4.1,10.733-6.517,20.333-7.25,28.8c-1.133,12.566-0.55,25.383,1.75,38.45c1.181,6.808,2.563,12.5,4.141,17.095
	c-0.555,0.816-1.119,1.813-1.691,3.005l-2.1,4.9c-0.267,0.634-0.283,1.033-0.05,1.2l1.2-0.25c2.183-1.261,3.964-2.031,5.381-2.355
	c0.22,0.416,0.442,0.821,0.668,1.205c1.783,2.955,3.271,5.057,4.465,6.312c-0.636,1.494-1.097,3.184-1.365,5.089
	c-0.367,2.6-0.25,4.916,0.35,6.949l0.45,1.101c0.2,0.167,0.45,0.05,0.75-0.351c2.733-3.566,5.434-6.116,8.1-7.649
	c1.933-1.101,4.933-2.134,9-3.101l2.504-0.824c-0.022,0.061-0.017,0.095,0.045,0.074c2.767-1.066,6.25-1.967,10.45-2.699l9.55-1.5
	l8.95-1.301c2.7-0.6,4.467-1.583,5.3-2.949c0.8-1.301,0.917-2.984,0.35-5.051c-0.333-1.232-1.033-2.866-2.1-4.899
	c-0.373-0.684-0.683-1.269-0.93-1.758c0.716-0.244,1.251-0.556,1.581-0.942c1.533-1.733,2.033-5.434,1.5-11.1
	c-0.633-7.101,0.733-15.101,4.1-24c1.767-4.768,4.567-10.617,8.4-17.551l1.95-3.35c0.434-0.8,0.6-1.467,0.5-2
	c-0.268-1.633-0.717-3.033-1.351-4.2l-1.268-1.781c0.138-0.057,0.265-0.123,0.399-0.182l3.219,0.213
	c4.566-0.667,9.684-2.233,15.35-4.7c3.166-1.366,7.416-3.399,12.75-6.1c6.834-3.3,12.233-5.084,16.2-5.35
	c1.134-0.066,2.399,0.133,3.8,0.6l2.4,0.3l1.535-0.528c0.476,1.845,1.605,2.519,3.414,1.979c0.631-0.189,1.264-0.501,1.898-0.909
	c0.092,0.528,0.225,0.9,0.402,1.109c0.399,0.399,1.033,0.634,1.899,0.7l1.489,0.027c0.383,3.217,0.661,6.578,0.811,10.122
	c0.2,4.434,1.634,8.167,4.301,11.2c2.873,3.279,6.932,5.387,12.145,6.354c-0.035,1.292,0.047,2.525,0.255,3.695
	c0.3,1.767,0.833,2.917,1.601,3.45c3.866,2.7,7.283,6.084,10.25,10.15c2.199,3,4.816,7.467,7.85,13.399
	c2.133,4.101,3.566,8.233,4.3,12.4l0.75,8.8l0.15,3.2c0.066,1.1,0.216,1.933,0.45,2.5c0.513,1.196,1.379,2.212,2.589,3.053
	c-0.987,2.749-1.785,6.074-2.39,9.997c-0.681,4.477-0.78,7.839-0.302,10.102l-3.998,3.998c-1.933,1.834-2.649,5.184-2.149,10.051
	c0.399,4.066,1.232,7.217,2.5,9.449c0.566,0.934,1.05,0.867,1.449-0.199c2-5.167,4.984-9.384,8.95-12.65l4-2.95
	c0.3-0.225,0.57-0.439,0.813-0.644c2.228-0.19,6.444-0.219,12.659-0.087l3.979,1.881c3.2,1.566,5.116,2.616,5.75,3.149
	c1.233,1,2.55,2.634,3.95,4.9c1.399,2.2,2.283,4.033,2.649,5.5c0.134,0.467,0.317,0.717,0.551,0.75l0.699-0.35
	c1.7-1.301,2.584-4.351,2.65-9.15c0.1-4.934-0.833-8.416-2.8-10.45l-3.9-3.399l-1.899-1.301c-0.057-0.05-0.109-0.094-0.165-0.143
	c0.087-1.336-0.305-2.672-1.186-4.007c-0.7-1-1.883-2.2-3.55-3.601l-7.25-6.35c-2.311-2.312-3.851-4.369-4.645-6.182
	c1.047-1.367,1.684-2.97,1.895-4.818c0.833-7.566,0.134-14.066-2.1-19.5c-1.601-3.834-4.801-8.584-9.601-14.25
	c-7.1-8.334-11.399-16.633-12.899-24.9c-0.117-0.762-1.113-1.652-2.982-2.672c1.21-1.641,2.005-3.672,2.389-6.09
	c14.146,9.609,33.435,25.385,57.894,47.362c4,3.6,6.517,4.983,7.55,4.149C363.783,249.142,363.083,246.258,360.65,241.325z
	 M175.85,203.725c0.133,6.634-1.5,14.884-4.9,24.75c-3.3,9.5-6.6,16.051-9.9,19.65c-0.767,0.834-1.433,1.883-2,3.15
	c-0.8,1.666-1.033,3.05-0.7,4.149c0.035,0.126,0.088,0.247,0.146,0.367c-5.314,2.936-9.489,4.789-12.497,5.533
	c-3.533,0.866-8,0.95-13.4,0.25l-1.75-0.4l-1.189-0.17c-0.144-6.907,0.268-14,1.239-21.28c1.533-11.699,4.3-22.316,8.3-31.85
	c2.633-6.267,7.667-13.283,15.1-21.05c6.733-7.067,12.4-11.8,17-14.2c0.867-0.467,1.45-1.066,1.75-1.8
	c0.267-0.7,0.317-1.601,0.15-2.7l-1.4-6.7c-0.667-3.4-0.95-5.6-0.85-6.6c0.167-1.7,0.65-3.333,1.45-4.9
	c0.733-1.433,1.833-2.95,3.3-4.55c0.466-0.533,2.8,1.967,7,7.5c1.167,1.5,2.433,2.217,3.8,2.15l4.95-0.9
	c3.233-0.4,7.167-0.3,11.8,0.3c0.272,0.036,0.521,0.08,0.787,0.118c-6.308,2.598-12.24,6.712-17.787,12.382
	c-6.067,6.233-9.184,11.817-9.35,16.75c-0.089,2.209,0.586,4.28,1.99,6.22c-0.516,0.964-0.734,2.121-0.64,3.48
	c0.029,0.408,0.091,0.785,0.167,1.149c-1.336,1.141-2.179,2.621-2.517,4.45C175.7,200.041,175.684,201.625,175.85,203.725z
	 M133.919,273.601c-1.365,0.709-2.425,1.355-3.169,1.938c-0.051-0.646-0.113-1.323-0.2-2.064c-0.02-0.162-0.033-0.327-0.052-0.489
	C131.9,273.158,133.046,273.363,133.919,273.601z"/>
</svg>
