<?xml version="1.0" encoding="utf-8"?>
<!-- Generator: Adobe Illustrator 16.0.0, SVG Export Plug-In . SVG Version: 6.00 Build 0)  -->
<!DOCTYPE svg PUBLIC "-//W3C//DTD SVG 1.1//EN" "http://www.w3.org/Graphics/SVG/1.1/DTD/svg11.dtd">
<svg version="1.1" id="图层_1" xmlns="http://www.w3.org/2000/svg" xmlns:xlink="http://www.w3.org/1999/xlink" x="0px" y="0px"
	 width="571px" height="453px" viewBox="0 0 571 453" enable-background="new 0 0 571 453" xml:space="preserve">
<path d="M565.688,68.135c-2.833,0.6-6.449,1.6-10.848,3c-19.196,6.099-36.025,15.03-50.489,26.794
	c-4.666,3.799-8.948,7.798-12.847,11.998l-5.6,6.398c-1.3,1.466-1.749,2.283-1.35,2.449l2.75-0.45l14.896-1.899
	c-7.798,9.231-13.313,22.028-16.546,38.392c-1.934,9.731-3.45,24.627-4.55,44.69c-0.6,10.564-1.149,18.229-1.649,22.995
	c-0.833,7.897-2.033,14.214-3.6,18.946c-5.231,15.93-14.246,27.576-27.044,34.941c-7.173,4.16-17.654,7.562-31.427,10.208
	c0.081-1.64,0.079-3.324-0.016-5.06c-0.067-0.666-0.65-1.199-1.75-1.6l-3.699,0.15l-4.299,0.55
	c-6.122,0.489-11.718-0.644-16.8-3.358c2.776-11.923,7.787-22.969,15.05-33.133c13.331-18.729,32.609-31.21,57.838-37.442
	c2.266-0.566,3.482-0.95,3.648-1.149c0.233-0.333,0.2-1.683-0.1-4.049c-2.166-10.931-3.716-21.612-4.648-32.043
	c-1.8-19.829-0.983-38.908,2.449-57.237c4.232-22.762,11.98-42.474,23.244-59.137c14.745-21.852,34.889-37.412,60.423-46.688
	c1.271-0.186,2.545-0.388,3.813-0.551c3.166-0.367,4.815-0.85,4.949-1.45c0.166-0.733-2.05-1.55-6.648-2.45
	c-8.432-1.633-16.813-2.216-25.145-1.75c-13.861,0.733-28.439,4.154-43.731,10.249c-2.76,0.262-5.483,0.44-8.157,0.499
	c-3.766,0.067-6.449,0.583-8.049,1.55c-1.766,1.066-3.449,3.449-5.049,7.148l-0.06,0.146c-6.454,2.986-11.328,5.54-14.587,7.652
	c-4.898,3.199-8.848,6.915-11.848,11.147c-6.265,8.865-15.213,28.91-26.844,60.137c-10.131,27.127-16.779,46.94-19.945,59.437
	c-12.397,17.029-23.195,33.343-32.394,48.939c-1.655,2.778-7.327,12.916-17.014,30.409c-0.331-2.221-0.79-3.865-1.382-4.914
	c-1.1-1.966-2.982-3.116-5.648-3.449c-3.666-0.467-7.132,0.183-10.398,1.949c-2.999,1.634-4.715,3.532-5.148,5.699
	c-0.267,1.366-0.483,3.982-0.65,7.849c-0.3,3.432-1.016,5.665-2.149,6.697c-4.766,4.199-8.364,8.049-10.798,11.548l-2.199,3.949
	l-3.91-1.955c-1.257-3.296-4.316-6.145-9.187-8.542c-1.933-0.967-4.499-4.083-7.698-9.349c-3.066-4.999-4.816-8.681-5.249-11.048
	c-0.333-1.799,0.883-13.78,3.649-35.941l4.599-35.792c0.233-2.366-0.933-2.5-3.499-0.4c-3.033,2.5-7.815,7.982-14.347,16.447
	c-7.499,9.665-16.597,23.028-27.294,40.091c-5.099,0.867-10.131,2.6-15.097,5.199c-6.532,3.432-12.264,8.032-17.196,13.797
	l-6.949,1.049l-11.297,1.35l-21.445,2.699c-3.599,0.601-5.516,1.518-5.749,2.75c-0.267,1.199,1.05,2.583,3.949,4.148
	c2.366,1.268,12.481,6.016,30.344,14.248c-1.2,9.23,1.616,14.797,8.448,16.695c1.9,0.533,3.866,1.733,5.899,3.6
	c1.848,1.723,3.146,3.446,3.934,5.169c-14.553,1.489-28.05,4.806-40.476,9.978c-5.199-3.565-13.114-8.648-23.745-15.246
	l-18.246-11.447c-5.832-4.033-11.181-6.166-16.046-6.398l-6.983,0.948l-2.215-3.499c-1.233-1.6-2.199-2.633-2.899-3.099
	c-1.1-0.7-2.683-1.134-4.749-1.3l-3.049-0.35l-5.922-0.268c-0.03-0.029-0.042-0.052-0.077-0.082l-3.649-3.15
	c-1.733-1.199-3.633-1.799-5.699-1.799c-1.933,0-3.766,0.482-5.499,1.449l-4.449,3.149c-2,1.533-3.949,2.683-5.849,3.449l-1.1,0.399
	c-3.266,1.334-5.182,2.15-5.749,2.45c-1.966,1.066-2.883,2.183-2.75,3.349c0.133,1.268,0.733,2.5,1.8,3.699
	c1.2,1.334,2.649,2.233,4.349,2.699l6.599,0.451c2.903-0.604,6.492-2.404,10.759-5.388l-0.861,1.688
	c-0.218,0.428-0.474,0.87-0.758,1.322c-13.717,6.463-28.975,18.577-45.782,36.369c-6.465,6.832-12.331,13.663-17.596,20.495
	c-4.632,5.999-7.499,10.231-8.598,12.697c-1.033,2.333-1.733,4.399-2.1,6.198c-0.367,2-0.183,3.116,0.55,3.35
	c0.867,0.233,2.866-1.133,5.999-4.1l9.475-9.188c39.622-16.664,86.866-8.494,141.742,24.535c1.167,0.699,2.533,2.049,4.099,4.049
	c1.267,1.1,2.416,1.533,3.449,1.299c1.066-0.199,2.766-1.266,5.099-3.199c3.166-2.565,7.465-5.531,12.897-8.897
	c9.781-6.064,19.66-10.908,29.632-14.549c1.243,2.88,3.459,4.967,6.66,6.251c6.565,2.633,13.464,3.582,20.695,2.85
	c1.466-0.134,2.266-0.467,2.399-1c0.167-0.467,0.067-2.283-0.3-5.449c-0.32-2.911-0.119-6.012,0.574-9.29l8.699-0.273
	c0.031,0.145,0.063,0.289,0.094,0.437c-0.368,0.152-0.74,0.327-1.119,0.529c-1.133,0.6-1.7,1.066-1.7,1.399
	c-0.033,0.3,0.417,0.767,1.35,1.399c0.75,0.505,1.486,0.904,2.214,1.241l0.374,3.049c-0.213,0.069-0.424,0.125-0.639,0.209
	c-1.866,0.7-2.849,1.2-2.949,1.5s0.566,0.917,2,1.85c0.736,0.487,1.395,0.896,2.018,1.267l0.181,4.122
	c-0.249,0.082-0.496,0.153-0.749,0.26c-1.233,0.467-1.916,0.899-2.049,1.3c-0.1,0.334,0.216,0.85,0.95,1.55
	c0.647,0.635,1.289,1.164,1.926,1.639l-0.064,3.785c-0.157,0.012-0.302,0.009-0.462,0.024c-1.766,0.167-2.732,0.417-2.899,0.75
	c-0.167,0.367,0.3,1.217,1.399,2.55c0.572,0.662,1.108,1.257,1.616,1.796l-0.384,3.873l-2.332,0.08c-0.566,0.133-0.9,0.3-1,0.5
	c-0.1,0.232-0.017,0.582,0.25,1.049c0.873,1.388,1.697,2.594,2.475,3.633l-0.326,3.016c0,2.666,1.517,5.366,4.549,8.099
	c2.366,2.167,5.282,3.899,8.748,5.199c3.299,1.233,5.865,1.649,7.698,1.249c4.366-0.933,10.498-3.532,18.396-7.798
	c10.564-5.632,16.445-10.981,17.646-16.046l0.85-3.699c0.267-1.334,0.4-2.55,0.4-3.649c0-3.899-1.15-8.565-3.449-13.997
	c-2-4.732-5.032-10.381-9.099-16.946c-3.119-5.025-5.258-11.321-6.418-18.886c2.468,0.495,4.908,2.165,7.318,5.039
	c3.432,4.099,5.898,9.848,7.398,17.246c2.433,11.797,5.215,20.813,8.348,27.044c4.6,9.132,10.931,15.18,18.996,18.146
	c1.6,5.732,4.315,11.73,8.148,17.996c4.732,7.732,9.064,11.697,12.997,11.897c0.866,3.333,1.466,7.481,1.799,12.447
	c0.334,4.133,0.75,6.999,1.25,8.599c0.867,2.633,2.483,4.599,4.85,5.898l7.598,5.099c5.232,3.732,8.832,6.099,10.798,7.099
	c2.399,1.267,4.065,1.467,4.999,0.6c0.467-0.399,0.699-0.933,0.699-1.6c0-0.633-0.267-1.416-0.8-2.35l-2.149-3.599
	c-3.199-5.366-6.015-11.198-8.448-17.496c0.567,0.267,3.517,3.049,8.849,8.348c5.332,5.332,8.781,8.365,10.348,9.099
	c3.332,1.532,6.099,2.365,8.298,2.499c2.166,0.133,3.133-0.434,2.899-1.699c-0.366-2-2.016-4.649-4.949-7.948
	c-4.599-5.232-8.498-11.198-11.697-17.896c-3.099-6.432-4.632-11.548-4.599-15.347l0.2-8.548c-0.033-2.1-0.334-3.416-0.9-3.949
	c-0.767-0.699-1.799-1.083-3.099-1.15c0.6-4.199,1.966-8.531,4.099-12.996c1.8-3.8,3.516-6.516,5.149-8.148
	c1.366-1.367,4.615-1.184,9.747,0.55c6.099,2.1,13.23,6.015,21.396,11.747c1.933,1.367,4.633,1.967,8.099,1.8
	c2.232-0.134,4.532-0.55,6.898-1.25c5.365,13.03,8.465,21.646,9.298,25.845c1,4.898,3.782,10.098,8.348,15.597
	c4.532,5.432,9.182,9.214,13.947,11.347c3.6,1.634,6.198,2.55,7.798,2.75c2.533,0.3,2.967-1.017,1.3-3.949
	c-1.266-2.232-2.633-5.132-4.099-8.698l-4.049-10.248c-2.733-7.064-4.1-11.08-4.1-12.047v-0.3c0.533-0.5,1.133-0.917,1.8-1.25
	c0.767-0.399,1.433-0.566,1.999-0.5c0.334,0.033,1.05,0.783,2.15,2.25c4.299,6.632,8.697,12.63,13.196,17.996
	c5.999,7.098,9.731,9.798,11.198,8.098c0.666-0.767,0.533-3.549-0.4-8.348c-1.233-6.266-3.633-14.297-7.198-24.095
	c-2.366-6.365-5.932-12.897-10.697-19.596l-10.848-13.997c-3.267-3.933-5.616-7.132-7.049-9.598
	c-0.899-1.566-2.267-5.066-4.099-10.498l-2.438-7.468c19.603-7.792,33.406-20.59,41.379-38.422
	c6.365-14.23,9.548-33.493,9.548-57.787c0-14.364-0.667-30.077-2-47.14l-0.05-0.45c-0.233-3.566-0.351-6.532-0.351-8.898
	c0-13.164,1.634-25.128,4.899-35.892c2.566-8.398,5.716-15.03,9.448-19.896l3.849,13.147c1.866,6.032,3.149,9.615,3.85,10.748
	c0.767,1.2,1.35,1.616,1.749,1.25c0.3-0.3,0.733-1.433,1.3-3.399c2.433-8.332,6.232-17.529,11.397-27.594
	c6.499-12.664,14.83-25.961,24.995-39.892c1.333-1.833,3.315-4.282,5.948-7.348c1.733-2.033,2.566-3.232,2.5-3.599L565.688,68.135z"
	/>
</svg>
