<?xml version="1.0" encoding="utf-8"?>
<!-- Generator: Adobe Illustrator 16.0.0, SVG Export Plug-In . SVG Version: 6.00 Build 0)  -->
<!DOCTYPE svg PUBLIC "-//W3C//DTD SVG 1.1//EN" "http://www.w3.org/Graphics/SVG/1.1/DTD/svg11.dtd">
<svg version="1.1" id="图层_1" xmlns="http://www.w3.org/2000/svg" xmlns:xlink="http://www.w3.org/1999/xlink" x="0px" y="0px"
	 width="527px" height="424px" viewBox="0 0 527 424" enable-background="new 0 0 527 424" xml:space="preserve">
<path d="M520.252,280.348c-2.301-2.369-4.308-3.948-6.032-4.775c-0.03-4.111-0.581-7.887-1.665-11.318
	c-2.766-8.796-8.063-18.826-15.894-30.088c-7.464-10.696-16.511-21.476-27.14-32.338c-20.969-21.516-41.212-37.231-60.735-47.185
	c-2.066-2.001-4.192-3.952-6.39-5.845c-7.555-6.512-15.758-12.29-24.599-17.346c3.999-8.612,6.006-17.523,6.006-26.738
	c0-12.414-1.819-23.698-5.452-33.856c2.8-7.815,4.403-20.562,4.803-38.267c0.433-19.493-1.05-30.222-4.448-32.188
	c-2.699-1.532-13.795,0.533-33.288,6.198c-12.704,3.71-22.361,6.925-28.996,9.649c-15.761-4.885-33.937-7.35-54.572-7.35
	c-20.612,0-38.719,2.812-54.342,8.41c-6.233-3.264-14.924-6.65-26.077-10.159c-15.927-4.998-25.824-6.364-29.689-4.098
	c-4.098,2.399-5.381,13.628-3.849,33.687c0.6,7.497,1.5,14.978,2.699,22.441c0.533,3.273,1.038,6.039,1.519,8.333
	c-4.578,11.267-6.867,23.95-6.867,38.05c0,8.448,1.555,16.57,4.611,24.375c-11.559,6.352-22.029,13.917-31.401,22.707
	c-1.179,1.107-2.333,2.233-3.472,3.373c-20.723,10.783-40.942,26.094-60.654,45.958c-21.992,22.159-35.986,42.684-41.984,61.577
	c-1.126,3.545-1.831,7.223-2.163,11.019c-2.7,0.396-5.312,2.309-7.833,5.774c-2.666,3.699-3.166,6.248-1.5,7.648
	c1.1,0.932,2.982,1.199,5.648,0.799c0.269-0.037,0.541-0.089,0.812-0.137c-1.447,1.147-2.754,2.569-3.911,4.285
	c-1.866,2.732-2.466,4.615-1.799,5.648c0.566,0.933,2.399,1.249,5.498,0.949c1.492-0.127,2.892-0.353,4.215-0.659
	c-1.068,1.34-2.074,3.134-3.015,5.407c-1.433,3.398-1.683,5.564-0.75,6.498l6.098,0.199c1.955-0.432,3.621-0.966,5.004-1.602
	c-0.502,1.842-0.778,3.981-0.805,6.45c-0.034,3.065,0.333,4.864,1.1,5.397c1.166,0.8,3.365,0.2,6.597-1.799
	c1.749-1.106,3.063-2.198,3.971-3.275c1.273,0.392,2.62,0.697,4.038,0.924c0.567,1.544,1.54,3.177,2.938,4.9
	c1.933,2.399,3.482,3.599,4.648,3.599c0.388,0,0.821-0.213,1.297-0.627c0.012,0.023,0.024,0.05,0.036,0.072
	c-2.103,4.653-3.725,9.563-4.831,14.749c-0.419,1.975-0.73,3.937-0.982,5.891c-3.164,0.796-6.89,2.316-11.213,4.605
	c-7.764,4.099-11.529,7.848-11.296,11.246c0.267,3.865,3.982,7.963,11.146,12.295c6.398,3.865,11.679,5.948,15.844,6.248
	c0.061,0.005,0.119,0.002,0.18,0.006c2.479,5.705,5.812,10.971,10.017,15.788c12.895,14.794,29.988,22.975,51.28,24.541
	c9.097,0.666,18.093-0.017,26.99-2.05c8.563-1.966,16.094-4.965,22.591-8.996c6.796-4.209,12.735-9.69,17.833-16.423
	c9.938,2.448,20.521,4.434,31.747,5.956c19.251,2.997,39.286,4.519,60.128,4.519c28.615,0,54.606-2.419,78.013-7.22
	c4.964-0.938,9.781-1.98,14.462-3.122c2.547,4.184,5.485,7.774,8.837,10.742c7.197,6.397,15.494,11.063,24.891,13.994
	c9.13,2.866,18.626,3.882,28.488,3.049c9.963-0.8,19.51-3.415,28.64-7.847c9.496-4.599,17.877-10.862,25.141-18.793
	c5.431-5.932,9.713-13.129,12.845-21.592c1.117-3.039,2.039-6.128,2.779-9.263c2.307-0.084,6.552-1.886,12.765-5.432
	c6.397-3.599,10.213-6.414,11.446-8.446c0.633-0.967,0.716-1.867,0.25-2.699c-0.867-1.767-5.198-4.299-12.995-7.598
	c-3.994-1.702-7.248-2.924-9.776-3.676c-0.397-3.528-1.039-6.977-1.915-10.346c0.66-0.481,1.525-1.371,2.595-2.672
	c1.568-1.853,2.625-3.693,3.182-5.525c1.107-0.245,2.168-0.546,3.187-0.896c0.868,1.167,2.15,2.309,3.878,3.423
	c3.065,1.966,5.314,2.482,6.747,1.55c0.934-0.633,1.383-2.433,1.35-5.398c-0.054-2.345-0.406-4.519-1.026-6.536
	c1.626,0.794,3.483,1.389,5.625,1.738c3.099,0.533,5.048,0.399,5.848-0.399c0.933-0.934,0.767-3.166-0.5-6.698
	c-0.532-1.47-1.114-2.743-1.739-3.842c1,0.107,1.949,0.126,2.839,0.044c1.999-0.167,3.282-0.684,3.849-1.55
	c0.767-1.2,0.066-3.366-2.1-6.497c-0.806-1.184-1.628-2.216-2.467-3.1c3.546,0.03,5.735-0.403,6.565-1.299
	C524.767,286.229,523.65,283.848,520.252,280.348z"/>
</svg>
