<?xml version="1.0" encoding="utf-8"?>
<!-- Generator: Adobe Illustrator 16.0.0, SVG Export Plug-In . SVG Version: 6.00 Build 0)  -->
<!DOCTYPE svg PUBLIC "-//W3C//DTD SVG 1.1//EN" "http://www.w3.org/Graphics/SVG/1.1/DTD/svg11.dtd">
<svg version="1.1" id="图层_1" xmlns="http://www.w3.org/2000/svg" xmlns:xlink="http://www.w3.org/1999/xlink" x="0px" y="0px"
	 width="526px" height="519px" viewBox="0 0 526 519" enable-background="new 0 0 526 519" xml:space="preserve">
<path d="M503.748,357.635c-14.734-9.201-33.736-13.984-57.005-14.352c-14.235-0.233-29.32,2.117-45.255,7.051
	c-19.135,5.934-37.487,15.051-55.056,27.353c-3.143,2.198-6.818,4.818-11.015,7.851l-0.937-1.7c-0.733-1.233-1.149-2.283-1.25-3.15
	c-0.066-0.6,0.051-1.55,0.351-2.851l0.114-0.759l1.235-0.841l3.001-4.601l2.8-4.65c1.066-1.899,2-4.15,2.801-6.751l1.85-7.1
	l1.05-4.301c2.199-6.757,3.813-12.58,4.851-17.487c0.019,0.026,0.029,0.063,0.051,0.085c0.8,0.801,2.5-0.516,5.1-3.95
	c2.601-3.467,4.334-6.751,5.201-9.851l-1.75,6.301c-0.801,2.666-0.983,4.283-0.551,4.85c0.567,0.668,1.851,0.167,3.851-1.5
	c2.167-1.833,4.334-4.367,6.501-7.601c4.976-7.505,7.821-15.497,8.554-23.973l5.348-17.281l-1.051,19.002
	c0,2.067,0.551,3.167,1.65,3.3c1.533,0.168,4.384,0.101,8.551-0.199c4.501-0.301,7.018-0.7,7.551-1.2
	c0.4-0.4,0.75-5.101,1.05-14.102c0.334-10.435,0.667-16.919,1.001-19.452c1.133,4.635,2.833,10.252,5.101,16.852
	c2.267,6.668,3.667,10.118,4.2,10.352c0.7,0.3,2.75-0.35,6.15-1.95c3.767-1.8,6.817-3.834,9.15-6.101l2.601,1.75
	c1.101,0.5,1.95,0.684,2.551,0.55c1.699-0.433,4.783-2.483,9.25-6.15c4.4-3.634,6.635-5.884,6.701-6.751
	c0.066-0.732-3.101-3.967-9.501-9.701l-18.102-15.901c12.101,2.967,21.235,4.717,27.402,5.25l4.9,0.55c2,0.167,3.317-0.05,3.95-0.65
	c1.634-1.5,3.268-3.233,4.9-5.201c2.167-2.633,3.001-4.217,2.501-4.75l-10.352-2.9c-7.367-1.967-12.301-3.517-14.801-4.65
	l33.103,2.95l5.051-0.4c1.7-0.267,2.834-0.617,3.4-1.05c8.434-6.867,12.602-10.685,12.501-11.451
	c-0.066-0.6-5.867-2.617-17.401-6.051c-11.868-3.5-21.052-5.833-27.553-7l23.952-6.851c14.835-4.634,24.086-8.484,27.753-11.551
	c1.434-1.233,3.017-4.784,4.75-10.651c1.801-5.967,2.117-9.167,0.95-9.601c-0.434-0.167-6.884,0.884-19.352,3.15
	c-13.734,2.5-22.369,3.9-25.902,4.201c22.269-11.768,34.137-18.102,35.604-19.002c7.033-4.201,12.15-8.684,15.351-13.451
	c1.534-2.3,2.167-5.634,1.9-10.001c-0.233-4.301-1.184-7.618-2.85-9.951c-0.233-0.3-1.917,0.3-5.051,1.8
	c-4.034,1.934-6.734,3.117-8.101,3.55c11.567-7.534,18.818-12.735,21.752-15.602c3.2-3.134,4.801-6.717,4.801-10.751
	c0-1.367-0.834-4.55-2.501-9.551c-1.7-5.201-2.934-7.917-3.7-8.151c-0.434-0.133-6.284,2.983-17.552,9.351
	c-15.068,8.468-28.636,15.602-40.704,21.402c3.601-5.701,14.269-17.185,32.004-34.453c8.9-8.668,17.418-16.752,25.552-24.252
	c1-0.967,1.5-2.234,1.5-3.8c0-1.601-1.233-5.101-3.7-10.501c-2.6-5.701-4.5-8.435-5.7-8.201c-1.834,0.4-8.134,4.351-18.902,11.851
	c-9.534,6.634-18.501,13.185-26.902,19.652c7.4-7.601,16.002-18.335,25.803-32.203c9.367-13.201,14.218-21.119,14.552-23.752
	c-0.2-3.034-1.784-6.667-4.751-10.901c-3.033-4.367-5.367-5.984-7.001-4.85c-7.033,8.867-14.868,18.385-23.502,28.553
	c-6.886,8.118-13.416,15.39-19.603,21.845l-0.1-0.093L423.04,70.157c-6.867,5.534-11.117,10.301-12.751,14.301
	c-1.434,3.5-2.934,12.151-4.5,25.953c-1.434,12.368-2.867,22.369-4.301,30.003c-2.533,13.535-6.067,27.103-10.601,40.704
	c-2.001,6.067-7.551,14.785-16.652,26.152l-19.058,22.274l-2.844-3.722l-4.101-5.75l-7.251-9.001
	c-0.316-0.361-0.609-0.673-0.885-0.948c4.94-3.777,10.02-7.029,15.236-9.753c4.134-2.167,7.551-3.65,10.251-4.451l0.65-0.4
	c-3.067-4.734-6.984-7.601-11.752-8.601l-14.201,0.4c-4.633,0.986-8.046,1.926-10.257,2.82c-0.205-0.451-0.411-0.85-0.616-1.223
	c-0.149-0.554-0.393-1.165-0.722-1.828c-0.618-2.3-4.212-7.2-10.808-14.721c-7.134-8.101-11.851-12.984-14.151-14.651
	c-1.111-0.837-3.384-1.533-6.782-2.093c-2.2-1.496-4.029-2.489-5.469-2.958c-1.857-0.627-8.148-0.175-18.823,1.345
	c-17.015-0.326-25.531-0.159-25.531,0.505c0.033,0.556,1.322,1.554,3.851,2.988c-13.862,2.41-22.01,4.115-24.403,5.112l-2.8,1.1
	c-1.134,0.434-1.684,0.767-1.65,1c0.033,0.534,1.667,1.35,4.9,2.45l17.676,5.519c-7.409,2.661-13.333,5.025-17.726,7.083
	c-2.434,1.1-3.617,1.833-3.55,2.2c0.066,0.5,6.067,2.55,18.001,6.15c11.701,3.534,22.636,6.617,32.804,9.251
	c0.391,0.093,1.051,0.136,1.957,0.134c-1.647,2.583-3.011,5.509-4.058,8.817c-2.434,7.667-2.3,14.618,0.399,20.852
	c0.567,1.3,1.668,2.717,3.301,4.25l4.801,4l3.801,2.85c1.1,0.867,1.75,1.6,1.949,2.2l0.101,0.65
	c-0.134,0.433-0.717,0.917-1.751,1.45c-0.773,0.419-1.611,1.104-2.512,2.042c-4.239-2.643-11.564-7.105-21.99-13.394
	c-17.901-10.801-28.586-17.401-32.053-19.802c-9.034-7.967-22.886-23.519-41.554-46.654c-14.468-17.968-24.786-31.37-30.953-40.204
	c-2.934-4.2-6.617-8.284-11.051-12.251c-4-3.601-7.368-6.051-10.101-7.351c-4.3-2.167-9.667-4.617-16.102-7.351
	c-12.801-5.534-24.436-9.784-34.903-12.751c-0.746-0.341-1.332-0.553-1.792-0.663c-13.893-6.451-24.368-12.664-31.411-18.639
	c-4.134-3.534-10.468-8.268-19.002-14.202c-7.401-5.167-12.318-8.434-14.751-9.801c-1.8-1.034-3.25-1.35-4.351-0.95
	s-2.283,1.617-3.55,3.65C7.484,46.188,5.9,50.271,3.9,56.505C2,62.406,0.8,66.773,0.3,69.607c-0.4,2.3-0.217,4.217,0.55,5.75
	c0.934,1.833,2.784,3.4,5.551,4.7L40.054,98.51c20.935,11.501,34.27,18.335,40.004,20.502c-13.735-1.733-28.37-2.05-43.904-0.95
	c-13.501,0.934-20.852,2.117-22.052,3.55c-0.833,0.967-0.1,5.667,2.2,14.102c2.267,8.201,4,13.018,5.201,14.451
	c0.7,0.833,9.501,2.217,26.402,4.15c19.202,2.167,31.553,3.967,37.054,5.4l-29.853-1.85c-16.635-0.767-25.186-0.7-25.652,0.2
	c-0.5,0.967,1.767,6.101,6.801,15.401c4.9,9.067,7.984,14.118,9.25,15.151c1.667,1.367,10.818,2.967,27.453,4.801l39.704,3.85
	l-25.353,0.95c-13.868,0.533-20.869,1.1-21.002,1.7c-0.2,0.733,1.95,3.583,6.451,8.551c4.467,4.967,7.75,8.134,9.851,9.501
	c5.268,3.367,15.652,5.101,31.153,5.201l40.604-1.4c-3.467,0.867-13.635,2.3-30.503,4.3c-15.468,1.833-23.386,2.967-23.752,3.4
	c-0.567,0.667,0.467,2.884,3.1,6.651c2.634,3.767,4.5,5.767,5.601,6c2.734,0.533,11.084-0.017,25.053-1.65l22.002-2.9
	c-5.834,1.467-14.468,3-25.902,4.6c-8.468,1.167-12.635,2.067-12.501,2.7c0.167,0.7,1.45,2.15,3.851,4.351
	c2.633,2.4,4.784,3.867,6.451,4.4c5.3,1.767,15.685,1.55,31.153-0.65c7.934-1.134,16.385-2.584,25.353-4.351
	c-5.634,3.234-11.984,7.184-19.052,11.851c-7.601,5.001-11.818,8.085-12.651,9.252c-0.934,1.3,1.95,3.983,8.651,8.051
	c6.434,3.934,10.551,5.917,12.351,5.95c1.167,0.033,3.817-1.333,7.951-4.101l11.551-7.851l-8.751,9.301
	c-3.634,3.8-5.4,6.084-5.3,6.851c0.1,0.733,4.267,2.601,12.501,5.601c8.234,3.034,13.135,4.434,14.702,4.2
	c1.1-0.166,2.617-1.25,4.55-3.25l5.55-6.75l-3.1,7.1c-0.967,2.301-1.367,3.751-1.2,4.351c0.2,0.667,3.2,2.468,9.001,5.401
	c5.734,2.934,8.967,4.333,9.701,4.199c0.634-0.133,1.717-1.184,3.25-3.15l4.701-6.65c-1.233,3.668-1.467,5.701-0.7,6.102
	l13.301,2.75c0.213,0.039,0.414,0.075,0.623,0.113c-1.427,3.982-2.507,7.337-3.223,10.037c-0.856,3.177-1.747,8.04-2.672,14.579
	c-0.494,0.327-1.026,0.652-1.629,0.973c-2.633,1.4-5.917,2.55-9.851,3.45l-11.001,1.45c-4.234,0.267-8.218,0.267-11.951,0l1.5,2.001
	c1.093,1.427,2.522,2.826,4.27,4.199c-15.684-1.385-31.774-0.874-48.274,1.551c-25.061,3.636-45.932,11.07-62.642,22.279
	c-2.238,1.266-4.364,2.587-6.365,3.973c-16.168,11.201-24.002,25.753-23.502,43.654c0.167,5.834,2.034,12.151,5.601,18.952
	c3.867,7.4,9.167,14.151,15.901,20.252c15.85,14.366,35.609,22.022,59.265,22.991c-0.233,2.062-0.071,4.281,0.491,6.662
	c0.367,1.633,0.717,2.583,1.05,2.85c0.333,0.334,0.816-0.017,1.45-1.05c1.678-2.67,4.237-5.486,7.641-8.442
	c5.485-0.177,11.145-0.627,16.99-1.368c-1.79,1.915-2.986,3.636-3.579,5.16c-0.233,0.6-0.35,1.25-0.35,1.95
	c0,0.582,0.088,1.168,0.261,1.755c-0.583,1.124-1.015,2.348-1.261,3.695c-0.633,3.268-0.317,5.968,0.95,8.101
	c0.867,1.467,1.483,2.284,1.85,2.45c0.367,0.134,0.783-0.25,1.25-1.149c1.107-2.055,2.458-3.993,4.023-5.831
	c2.17,1.159,4.313,1.79,6.428,1.881c2.434,0.133,4.517-0.467,6.25-1.801c1.333-1,2.8-2.634,4.4-4.9c1.733-2.4,2.967-3.934,3.7-4.601
	c2.734-2.5,7.334-5.801,13.802-9.9c-0.434,1.267-0.85,2.866-1.25,4.8c-0.533,2.534-1.183,4.851-1.95,6.951
	c-1.4,3.767-2.1,6.768-2.1,9.001c0,2,0.5,3.684,1.5,5.05c0.989,1.319,2.111,2.412,3.36,3.288c0.18,1.387,0.505,2.742,0.99,4.063
	c0.733,2,2.083,4.366,4.05,7.101c1.534,2.133,2.534,3.267,3,3.4c0.433,0.133,0.883-0.534,1.35-2.001l1.2-5.351
	c0.317-1.587,0.732-3.219,1.224-4.886c1.014-0.164,2.024-0.39,3.026-0.715c2.1-0.666,3.583-1.45,4.45-2.35
	c1.267-1.334,1.983-3.684,2.15-7.051c0.133-2.334,0-5.551-0.4-9.651l-0.1-1.5c-0.233-2.533,0.233-5.65,1.4-9.351
	c1.033-3.334,2.167-5.834,3.4-7.501c0.467-0.667,2.284-0.684,5.451-0.05l8,1.601l5.65,0.55l3.95-0.2l0.4-0.15l1.051-0.149
	c0.833-0.3,1.616-1,2.35-2.101c0.245-0.354,0.474-0.716,0.699-1.08l0.951,0.03c3.834,0.566,7.5,2.267,11.001,5.101
	c1.5,1.267,2.767,2.384,3.8,3.35c0.301,0.167,0.533-0.649,0.701-2.45c0.299-2.866,0.166-5.233-0.4-7.101
	c-0.734-2.434-2.301-4.583-4.701-6.45c-2.033-1.567-4.217-2.667-6.551-3.301c-0.525-0.147-1.025-0.26-1.508-0.345
	c-0.014-0.135-0.022-0.272-0.042-0.405c-0.1-0.733-0.566-1.399-1.399-2c-0.826-0.609-2.018-1.157-3.531-1.653
	c13.251-5.637,28.603-12.53,46.085-20.699c6.997-3.261,13.44-6.219,19.338-8.879c3.591,6.521,6.182,12.066,7.765,16.63l-11.201,1
	h-1.65l-2.4-0.649l-6.2,0.45c-2.066,0.633-3.601,2.1-4.601,4.4c-0.385,0.876-0.648,1.713-0.834,2.525
	c-0.204,0.138-0.408,0.273-0.616,0.425c-2.3,1.666-3.967,3.483-5,5.45c-1.134,2.2-1.601,3.517-1.4,3.95c0.167,0.4,1,0.316,2.5-0.25
	c2.349-0.869,4.45-1.565,6.331-2.107c0.061,0.067,0.106,0.141,0.17,0.207c2.134,2.268,4.733,3.667,7.801,4.201
	c3.167,0.566,6.7,0.166,10.601-1.2c5.834-2.101,9.734-2.917,11.701-2.45c1.434,0.333,3.467,2.184,6.101,5.55
	c1.233,1.634,2.733,4.718,4.501,9.251c2.033,5.167,3.8,8.685,5.3,10.551c2.534,3.201,5.685,4.418,9.451,3.65
	c0.822-0.167,1.598-0.348,2.339-0.538c1.058,0.952,2.021,1.93,2.861,2.938c1.567,1.9,3.051,4.268,4.451,7.101
	c0.467,1.101,0.899,1.667,1.3,1.7c0.3,0.034,0.667-0.35,1.101-1.149c1.6-3.067,1.533-7.368-0.2-12.901
	c-0.23-0.723-0.498-1.429-0.801-2.119c0.649-0.763,1.086-1.589,1.301-2.481l0.2-1.4c0-2.434-1.484-5.233-4.451-8.4
	c-1.7-1.801-4.601-4.351-8.7-7.651l-0.801-0.6l7.901,0.8c2.8,0.434,5.417,1.084,7.851,1.95c1.634,0.567,3.351,1.45,5.15,2.65
	c1.033,0.7,2.601,1.884,4.7,3.551c2.934,2.333,5.301,4.017,7.101,5.05l4.551,0.2c0.074-0.022,0.142-0.06,0.215-0.085
	c0.077,0.115,0.159,0.216,0.235,0.335c1.167,1.801,2.017,3.684,2.55,5.65c0.434,1.667,0.834,2.501,1.2,2.501
	c0.334-0.034,0.95-0.867,1.851-2.501c2.167-3.9,2.583-7.551,1.25-10.951c-0.182-0.499-0.381-0.948-0.588-1.375
	c1.585-3.24,1.265-6.199-0.962-8.876c-0.267-0.322-0.548-0.632-0.829-0.94c0.275-0.315,0.523-0.665,0.754-1.037
	c1.534,0.563,3.306,1.417,5.325,2.578l4.15,2.5c0.767,0.367,1.2,0,1.3-1.1c0.334-3.667-0.383-6.701-2.149-9.102
	c-1.4-1.934-3.301-3.25-5.701-3.95c-0.689-0.204-1.328-0.329-1.924-0.39c-1.237-2.332-4.493-4.553-9.777-6.661
	c-5.167-2.1-9.367-3.25-12.601-3.45l-9.401,0.8l-9.251,1.251c-5.063,0.235-9.32,0.675-12.803,1.31
	c-2.992-3.169-6.908-8.854-11.749-17.062c-0.677-1.151-1.658-2.887-2.94-5.197c7.153-3.114,13.223-5.635,18.191-7.554
	c16.969-6.601,31.62-10.718,43.954-12.352c11.401-1.533,22.136-0.833,32.203,2.101c9.501,2.733,17.068,7.051,22.702,12.951
	c5.734,5.967,8.518,12.534,8.352,19.702c-0.06,3.433-0.813,6.806-2.25,10.12c-5.335,1.195-10.197,2.535-14.552,4.031
	c-7.734,2.633-13.685,5.65-17.852,9.051c-4.534,3.667-7.835,7.9-9.901,12.701c-2.033,4.8-2.283,8.834-0.75,12.101
	c2.533,5.367,8.15,7.168,16.852,5.4c6.334-1.233,12.234-3.133,17.701-5.7c3.234-1.533,6.968-3.667,11.201-6.4
	c4.067-2.634,7.701-3.934,10.901-3.9c1.967,0.033,3.551,0.5,4.751,1.4c1.767,1.366,2.333,3.934,1.699,7.7
	c-0.166,1.066-0.066,1.567,0.301,1.5c0.333-0.066,0.7-0.483,1.1-1.25c2.4-4.4,3.001-8.034,1.801-10.901
	c-2.867-6.733-10.234-7.233-22.103-1.5c-5.601,2.734-9.668,3.951-12.201,3.65c-1.634-0.2-2.75-1.133-3.351-2.8
	c-1.2-3.4,3.018-9.018,12.651-16.852c2.582-2.098,5.201-4.092,7.851-5.997c8.636-4.237,14.625-7.458,17.952-9.654
	c7.434-4.9,13.534-10.802,18.302-17.702c5.667-8.134,8.417-16.435,8.251-24.902C525.084,377.27,517.883,366.436,503.748,357.635z
	 M237.923,400.988c-0.2,0.501-0.284,1.351-0.25,2.551l-0.05,3.05c-0.7,4.801-1.717,9.085-3.05,12.852
	c-2.367,6.667-6.217,14.052-11.551,22.152c-2.6,3.967-5.35,6.551-8.25,7.751c-1.019,0.434-2.51,0.817-4.474,1.151
	c-8.281-1.338-15.958-5.003-23.029-11.003c-3.534-2.967-6.351-6.917-8.451-11.851c-2.333-5.501-3.284-11.151-2.85-16.952
	c1.133-14.901,10.751-27.27,28.853-37.104c5.641-3.051,12.556-6.48,20.721-10.28c-0.173,0.228-0.348,0.445-0.519,0.68
	c-1.867,2.634-3.05,4.884-3.55,6.751l3-1.301c3.834-2.334,8.134-4.033,12.901-5.101c1.769-0.396,3.484-0.663,5.157-0.825
	c-0.147,1.738-0.217,3.23-0.206,4.476c0.063,7.778,2.04,13.859,5.883,18.281c-0.186,0.406-0.364,0.812-0.583,1.221
	c-0.767,1.501-2.133,3.617-4.101,6.351l-3,3.45C239.256,398.688,238.389,399.922,237.923,400.988z M315.28,400.289
	c-16.535,12.134-29.087,21.019-37.653,26.652c-12.602,8.226-23.592,14.248-32.996,18.095c-0.253-0.342-0.493-0.702-0.708-1.093
	c-1.067-1.968-0.717-6.101,1.05-12.401l1.7-7.101c1.2-5.168,2.15-8.968,2.851-11.401c1.2-4.233,2.367-7.317,3.5-9.251
	c0.9-1.533,3.034-4.417,6.401-8.65c3.118-3.922,5.223-6.713,6.34-8.403l0.911-0.198c2.333-0.867,4.633-2.467,6.9-4.801l3.7-4
	c2.434-2.7,4.317-4.634,5.65-5.801c2.233-1.934,4.551-3.383,6.95-4.35c2.067-0.867,5.418-1.884,10.052-3.051l3.857-1.124
	c1.492,1.282,2.975,2.642,4.443,4.124c3.934,3.967,7.15,8.001,9.65,12.102c-0.566,2.133-0.85,3.783-0.85,4.95l-0.3,1.3
	c-0.2,0.634-0.283,1.101-0.25,1.4c0.166,0.834,0.816,1.817,1.95,2.951l3.3,3.35c0.366,0.413,0.7,0.8,1.029,1.184
	C320.378,396.522,317.888,398.359,315.28,400.289z M350.233,235.323c-0.982,1.14-1.963,2.316-2.941,3.513
	c-4.436-2.171-7.385-3.689-8.833-4.549l-0.227-2.515l-0.049-1.318c1.253,0.215,2.742,0.421,4.499,0.618
	c4.229,0.461,7.908,0.507,11.058,0.152L350.233,235.323z"/>
</svg>
