<?xml version="1.0" encoding="utf-8"?>
<!-- Generator: Adobe Illustrator 16.0.0, SVG Export Plug-In . SVG Version: 6.00 Build 0)  -->
<!DOCTYPE svg PUBLIC "-//W3C//DTD SVG 1.1//EN" "http://www.w3.org/Graphics/SVG/1.1/DTD/svg11.dtd">
<svg version="1.1" id="图层_1" xmlns="http://www.w3.org/2000/svg" xmlns:xlink="http://www.w3.org/1999/xlink" x="0px" y="0px"
	 width="621px" height="495px" viewBox="0 0 621 495" enable-background="new 0 0 621 495" xml:space="preserve">
<path d="M620.4,22.022c-0.3-0.5-1.25-0.566-2.85-0.2c-23.726,5.598-60.497,16.395-110.314,32.389
	c-27.785,8.94-53.213,17.378-76.305,25.318c8.771-9.028,16.981-18.63,24.621-28.817c0.9-1.033,1.233-1.766,1-2.199
	s-1.05-0.333-2.449,0.3l-21.443,9.447l-14.484,6.059c6.67-9.641,13.664-20.158,20.982-31.551c0.7-1.1,0.866-1.783,0.5-2.049
	c-0.333-0.233-0.982-0.066-1.949,0.5c-12.13,7.264-27.642,17.411-46.535,30.44c-16.97,11.67-31.807,22.298-44.566,31.908
	c-8.738,2.49-16.509,4.901-23.317,7.232l10.103-13.948c7.764-10.696,13.796-18.744,18.094-24.142c0.667-0.833,0.9-1.383,0.7-1.649
	l-1.749,0.2c-14.12,5.888-30.596,14.532-49.415,25.915c14.209-35.887,25.599-64.17,34.17-84.846c0.499-1.2,0.6-1.933,0.3-2.2
	c-0.3-0.233-0.95,0.117-1.949,1.05c-14.529,13.929-28.774,29.924-42.737,47.984c-10.607,13.706-19.685,26.807-27.275,39.319
	c-3.349-11.247-7.563-24.723-12.662-40.469c-5.498-16.861-9.747-29.324-12.746-37.388c-0.5-1.333-0.95-2.016-1.35-2.049
	c-0.466,0-0.733,0.767-0.799,2.299c-0.434,12.263-0.45,28.074-0.05,47.435c0.226,11.981,0.553,22.377,0.981,31.201
	c-4.574-4.868-12.447-12.468-23.624-22.804c-0.7-0.667-1.183-0.899-1.45-0.7c-0.233,0.2-0.233,0.716,0,1.549
	c1.663,5.246,3.38,10.452,5.139,15.629c-32.797-29.725-56.024-50.566-69.668-62.514c-1.4-1.2-2.35-1.616-2.849-1.25
	c-0.5,0.367-0.35,1.366,0.45,2.999c4.765,9.864,10.53,22.143,17.294,36.838l5.837,12.811L147.853,61.51
	c-10.297-5.165-18.911-9.297-25.842-12.396c-2.599-1.167-3.116-0.55-1.55,1.85c2.299,3.465,5.565,8.13,9.797,13.995l8.015,10.814
	c-12.766-5.048-27.187-10.664-43.303-16.862C47.285,40.583,16.345,29.72,2.149,26.321c-1.2-0.267-1.899-0.184-2.1,0.25
	c-0.167,0.433,0.184,1.066,1.05,1.899c19.694,18.294,44.236,39.72,73.626,64.279c2.306,1.927,4.574,3.814,6.842,5.699
	c-14.428-2.142-29.614-3.481-45.58-4c-1.266-0.033-1.982,0.233-2.149,0.8c-0.167,0.566,0.3,1.149,1.4,1.75
	c12.429,6.897,28.574,15.645,48.434,26.241c19.009,10.11,33.755,17.819,44.268,23.145c-11.523,0.144-25.039,0.641-40.569,1.497
	c-20.959,1.167-36.638,2.466-47.035,3.899c-1.366,0.2-2.066,0.566-2.099,1.1c-0.067,0.5,0.533,1,1.799,1.5
	c15.128,5.865,39.937,14.529,74.426,25.992c27.225,9.03,51.333,16.828,72.327,23.393c-10.463,9.397-22.126,20.926-34.988,34.589
	c-1.245,1.323-2.465,2.632-3.679,3.937c-1.624-0.38-3.528-0.511-5.718-0.388c-3.599,0.2-6.631,1.016-9.097,2.449
	c-0.7,0.4-0.7,0.8,0,1.2c2.645,1.541,5.13,3.119,7.489,4.726c-0.206,0.228-0.416,0.457-0.621,0.684
	c-1.736-0.689-3.837-1.03-6.318-1.011c-3.899,0.033-7.148,0.85-9.747,2.449c-0.333,0.199-0.5,0.416-0.5,0.649s0.2,0.434,0.6,0.601
	c2.807,1.202,5.841,2.885,9.094,5.026c-0.264,0.3-0.531,0.602-0.792,0.901c-0.698-0.053-1.429-0.067-2.204-0.03
	c-3.565,0.134-6.515,1.183-8.847,3.149c-0.7,0.633-0.6,1.049,0.3,1.25c1.608,0.388,3.351,1.081,5.213,2.046
	c-2.03,2.385-4.01,4.739-5.913,7.05c-0.7,0.867-0.917,1.483-0.65,1.85l2.199-0.1c2.842-1.063,5.729-2.16,8.637-3.272
	c0.785,1.726,2.551,2.95,5.309,3.673c9.23,2.432,17.611,6.58,25.142,12.445c7.498,5.832,12.729,12.264,15.695,19.294
	c1.233,2.899,2.083,7.081,2.549,12.546c0.467,5.332,0.35,9.146-0.35,11.446c-0.333,1.1-0.333,2.233,0,3.399
	c0.16,0.496,0.381,0.95,0.644,1.375c-0.71,2.103-1.727,4.354-3.093,6.771c-1.6,2.934-3.216,5.282-4.849,7.049
	c-0.333,0.366-0.433,0.699-0.3,0.999s0.433,0.433,0.899,0.399c3.899-0.133,7.981-1.615,12.246-4.448
	c4.107-2.738,6.669-5.729,7.721-8.968c1.554-1.295,2.304-3.083,2.226-5.377c-0.3-8.432,0.034-13.945,1-16.545
	c0.7-1.933,1.483-3.482,2.349-4.648s1.966-2.116,3.299-2.85c5.597-3.341,12.744-7.069,21.433-11.183
	c4.471,3.674,10.444,6.16,17.954,7.435c4.514,0.76,8.314,0.975,11.435,0.67c2.547,4.536,4.584,9.145,6.11,13.825
	c1.069,3.244,1.833,6.367,2.294,9.37c-10.082,2.768-23.569,8.752-40.482,17.971c-17.328,9.396-30.957,18.211-40.887,26.441
	c-0.8,0.666-1.133,1.15-1,1.449l1.7,0.101c4.465-1.167,11.463-2.683,20.993-4.549c1.001-0.202,1.976-0.396,2.942-0.586
	c-3.898,4.458-9.084,10.589-15.588,18.431c-0.566,0.699-0.75,1.199-0.55,1.499l1.6,0.101c8.224-2.115,15.098-4.112,20.63-5.995
	c-1.471,2.01-2.979,4.086-4.535,6.245c-11.196,15.562-20.094,28.79-26.691,39.687c-0.566,0.967-0.716,1.583-0.45,1.85
	c0.3,0.267,0.899,0.066,1.799-0.6c8.131-5.965,17.528-12.496,28.191-19.594c3.385-2.26,6.698-4.441,9.954-6.561l-4.556,14.208
	l-5.449,16.345c-0.399,1.066-0.483,1.699-0.25,1.899c0.233,0.233,0.833,0,1.799-0.7c7.349-5.092,14.215-10.653,20.643-16.64
	c-1.226,4.017-2.492,8.297-3.798,12.841c-5.632,19.627-9.48,35.706-11.546,48.235c-0.233,1.332-0.117,1.999,0.35,1.999
	c0.434,0.033,0.966-0.45,1.6-1.449c4.665-7.398,12.08-18.812,22.243-34.239c5.083-7.743,9.828-14.926,14.244-21.563
	c0.355,7.038,1.237,17.134,2.651,30.31c0.1,0.833,0.333,1.267,0.7,1.3c0.333,0.066,0.7-0.2,1.1-0.8
	c2.965-4.398,5.915-9.114,8.847-14.146c3.042-5.168,5.531-9.811,7.474-13.931c1.114,6.304,2.32,12.956,3.623,19.979
	c3.732,20.127,6.798,35.238,9.197,45.335c0.233,1,0.533,1.5,0.899,1.5c0.4,0.033,0.75-0.434,1.05-1.399
	c3.132-9.397,6.964-25.108,11.496-47.135c0.892-4.345,1.718-8.493,2.485-12.46c7.919,11.744,15.06,22.039,21.407,30.854
	c0.4,0.533,0.783,0.783,1.15,0.75c0.366-0.066,0.583-0.467,0.649-1.199l4.075-34.634c12.412,20.52,22.411,37.179,29.964,49.929
	c0.533,0.899,0.967,1.283,1.3,1.149c0.333-0.167,0.533-0.699,0.6-1.6c1-11.93-0.017-25.559-3.049-40.887
	c-3.066-15.395-7.814-30.623-14.246-45.685c-8.332-19.582-17.592-35.506-27.778-47.775c0.916-0.882,1.418-1.998,1.487-3.359
	c0.666-11.662,1.6-18.627,2.799-20.893c5.132-9.697,11.097-19.027,17.895-27.991c6.664-8.831,12.729-15.478,18.194-19.943
	c2.433-1.999,3.766-4.231,3.998-6.698c0.165-1.866-0.245-3.192-1.212-3.997c0.004-0.018,0.01-0.033,0.013-0.052
	c0.399-2.032,0.967-4.098,1.699-6.197c0.037-0.105,0.075-0.203,0.112-0.306c3.831,2.665,7.871,5.479,12.134,8.452l65.429,46.035
	c1,0.7,1.684,0.867,2.05,0.5c0.333-0.366,0.149-1.1-0.55-2.199c-8.764-13.895-20.243-31.072-34.439-51.533
	c-13.195-18.994-24.075-34.139-32.639-45.435c11.196-2.732,44.452-7.931,99.768-15.595l109.465-14.895
	c1.232-0.167,1.866-0.533,1.899-1.1c0.033-0.6-0.55-1.033-1.75-1.3c-12.762-2.965-34.288-7.047-64.579-12.246
	c-23.677-4.028-46.707-7.74-69.107-11.144c17.429-6.84,42.025-17.235,73.807-31.192c33.488-14.729,59.714-26.708,78.674-35.938
	c1.3-0.633,1.866-1.233,1.7-1.8c-0.167-0.6-0.967-0.783-2.399-0.55l-39.787,4.849l-37.996,3.874
	c1.633-1.211,3.279-2.432,4.956-3.674c37.389-27.691,67.262-49.634,89.622-65.829C620.101,23.289,620.667,22.522,620.4,22.022z
	 M180.449,251.738c0.019,0.192,0.048,0.365,0.093,0.51c0.233,0.7,0.7,0.834,1.399,0.4l1.899-1.6l1.044-1.213
	c23.349-9.897,41.196-18.049,53.544-24.459c-0.55,6.001-0.973,11.833-1.268,17.495c-3.514,3.771-6.693,8.528-9.535,14.275
	c-4.177,8.48-6.285,16.346-6.377,23.611c-1.043,0.234-2.083,0.67-3.12,1.331l-9.297,5.248c-3.932,1.999-6.848,3.266-8.747,3.799
	c-2,0.566-3.432,0.75-4.298,0.55c-1.1-0.232-1.983-1.1-2.649-2.6c-3.032-7.131-7.748-15.244-14.146-24.342
	c-2.5-3.555-4.853-6.701-7.063-9.455C174.746,254.123,177.583,252.941,180.449,251.738z M306.151,328.824l-0.531,3.407
	c-3.064-2.685-6.203-5.075-9.415-7.18c2.645-4.172,5.219-9.043,7.725-14.587c0.945,3.118,1.588,5.544,1.921,7.262
	c0.399,2.133,0.633,4.016,0.699,5.648C306.585,325.041,306.451,326.857,306.151,328.824z M350.219,257.218
	c-2.913-0.065-4.997,1.711-6.229,5.378c-1.3,3.898-3.699,8.646-7.198,14.244c-3.324,5.379-6.034,8.708-8.13,9.997
	c-0.429-0.476-0.819-1.054-1.167-1.749c-0.8-1.666-1.183-3.499-1.149-5.498c0.066-1.967,0.566-5.099,1.5-9.397
	c1.133-5.099,2.332-8.946,3.599-11.546c0.999-2,1.166-3.716,0.5-5.148c-0.507-1.146-1.38-1.824-2.609-2.055
	c-0.261-2.538-0.424-5.3-0.49-8.292c-0.066-3.299,0-5.965,0.2-7.998c0.1-0.966-0.25-1.216-1.05-0.75
	c-1.434,0.816-2.806,1.92-4.121,3.29l1.044-8.539c7.466,5.065,18.046,12.353,31.742,21.865c-0.438,0.272-0.879,0.563-1.323,0.879
	C352.877,253.65,351.179,255.424,350.219,257.218z"/>
</svg>
