<?xml version="1.0" encoding="utf-8"?>
<!-- Generator: Adobe Illustrator 16.0.0, SVG Export Plug-In . SVG Version: 6.00 Build 0)  -->
<!DOCTYPE svg PUBLIC "-//W3C//DTD SVG 1.1//EN" "http://www.w3.org/Graphics/SVG/1.1/DTD/svg11.dtd">
<svg version="1.1" id="图层_1" xmlns="http://www.w3.org/2000/svg" xmlns:xlink="http://www.w3.org/1999/xlink" x="0px" y="0px"
	 width="606px" height="465px" viewBox="0 0 606 465" enable-background="new 0 0 606 465" xml:space="preserve">
<path d="M604.702,18.244c-0.3-0.4-0.833-0.3-1.599,0.3c-1.467,1.1-2.699,1.666-3.699,1.7c-1.033,0.033-1.083-0.25-0.15-0.85
	c3.399-2.132,5.249-5.531,5.549-10.196c0.333-4.832-1.45-7.864-5.349-9.097l-1.149,0.05c-0.2,0.233-0.134,0.617,0.2,1.15
	c1.066,1.633,0.499,3.599-1.7,5.898s-4.781,3.565-7.747,3.799c-1.633,0.167-2.916,0.466-3.849,0.899
	c-0.934,0.433-1.666,1.066-2.199,1.899l-1.35,1.55c-0.533,0.433-1,0.649-1.399,0.649l-1.15-0.7c-0.433-0.5-0.782-1.149-1.049-1.949
	c-0.167-0.6-0.45-0.9-0.851-0.9c-0.399,0-0.666,0.317-0.799,0.95c-0.601,2.399-1.967,4.882-4.1,7.448
	c-2.398,2.932-5.098,4.999-8.097,6.198c-3.199,1.267-5.882,2.733-8.048,4.399c-0.866,0.667-1.499,0.85-1.899,0.55l-2.999,0.1
	c-2.032,1.133-4.448,2.815-7.247,5.048c-0.533,0.433-0.95,0.6-1.25,0.5c-0.3-0.066-0.383-0.333-0.25-0.8
	c0.167-0.566,0.117-0.916-0.149-1.049l-1.15,0.2c-1.499,0.767-2.915,1.733-4.248,2.899c-1.699,1.466-2.716,2.849-3.049,4.148
	c-0.301,1.2-0.934,2.399-1.899,3.599c-0.867,1.133-1.55,1.716-2.05,1.75c-0.699,0-1.183-1.35-1.449-4.048
	c-0.067-0.533-0.233-0.85-0.5-0.95c-0.3-0.133-0.566,0.184-0.8,0.95c-0.5,1.799-1.35,3.699-2.549,5.698
	c-0.967-0.966-1.899-1.633-2.8-1.999c-0.566-0.2-0.866-0.017-0.899,0.55c-1.166,13.063-18.744,26.691-52.733,40.887
	c-9.738,4.07-19.674,7.76-29.801,11.082c0.508-1.411,0.353-2.823-0.489-4.234l-0.55-0.35c-0.267,0-0.483,0.117-0.649,0.35l-1,0.8
	l-0.85,0.15c-0.467-0.167-0.583-0.6-0.35-1.299c0.233-0.733,0.767-1.25,1.6-1.55c3.132-1.133,4.315-3.116,3.549-5.948
	c-0.767-2.833-2.6-4.182-5.498-4.049c-1.033,0.033-1.733-0.383-2.1-1.25c-0.367-0.767-0.333-1.433,0.1-2
	c1.2-1.366,2.232-3.099,3.1-5.198c0.466-1.167,1.249-2.233,2.349-3.199c3.199-2.766,3.782-6.248,1.75-10.446
	c-0.601-1.167-0.867-2.283-0.8-3.349c0.033-0.933,0.333-1.983,0.899-3.149c0.5-1.033,0.217-1.35-0.85-0.95l-1.85-0.15
	c-0.399-0.533-0.333-1.45,0.2-2.749c0.8-1.899,0.383-3.799-1.25-5.698c-1.666-1.933-3.782-2.882-6.348-2.849h-0.05
	c-0.566,0-0.884,0.117-0.95,0.35c-0.1,0.266,0.15,0.566,0.75,0.899c0.767,0.467,1.267,1.167,1.499,2.1
	c0.233,0.933,0.15,1.749-0.249,2.449c-0.767,1.433-1.2,3.215-1.3,5.348c-0.066,2.965-1.083,4.465-3.049,4.499
	c-2.066,0.066-3.383,0.6-3.949,1.6c-0.533,0.966-0.283,2.099,0.75,3.398c1.566,1.966,1.782,4.249,0.649,6.848
	c-0.466,1.066-1.499,1.866-3.099,2.399l-4.199,0.55c-3.465-0.267-5.515,0.767-6.147,3.099c-0.633,2.299,0.517,4.815,3.449,7.548
	c0.933,0.933,1.299,1.766,1.1,2.499c-0.267,0.9-1.434,1.466-3.499,1.699c-2.366,0.333-3.949,1.633-4.749,3.899
	c-0.866,2.399-0.399,4.898,1.399,7.498c1.134,1.666,1.066,3.715-0.199,6.148c-0.924,1.735-2.23,3.081-3.901,4.054
	c-5.674,1.334-11.405,2.555-17.19,3.674c1.074-1.766,1.424-3.476,1.048-5.128c-0.467-1.966-1.699-3.116-3.698-3.449
	c-1.934-0.3-2.767-0.917-2.5-1.85c0.233-0.899,1.483-2.032,3.749-3.399c2.3-1.399,3.416-3.166,3.349-5.298
	c-0.066-2.232-1.433-4.465-4.099-6.698c-2.398-2.033-3.315-4.398-2.749-7.098c0.101-0.433,0.033-0.733-0.199-0.899
	c-0.267-0.167-0.584-0.067-0.95,0.3c-1.766,1.966-3.115,1.783-4.049-0.55c-0.966-2.433-0.583-6.032,1.149-10.796
	c0.301-0.733,0.067-1.05-0.699-0.95c-2.6,0.367-4.715,1.45-6.348,3.249c-1.7,1.899-2.483,4.215-2.35,6.948l-4.099,0.15
	c-1.466,0.367-2.666,0.933-3.599,1.7c-0.4,0.3-0.533,0.583-0.4,0.85c0.101,0.233,0.367,0.35,0.8,0.35
	c1.767-0.033,3.149,0.383,4.148,1.25c1.033,0.9,1.816,2.449,2.35,4.648c0.3,1.167,0.134,2.133-0.5,2.899
	c-0.6,0.7-1.516,1.1-2.749,1.2c-1.966,0.133-3.648,1.233-5.048,3.299c-1.5,2.233-1.8,4.532-0.9,6.898
	c0.267,0.767,0.316,1.35,0.15,1.75l-1.5,1c-1.699,0.633-2.648,1.566-2.849,2.799c-0.167,1.133,0.333,2.049,1.499,2.749
	c1.833,1.133,3.133,2.232,3.899,3.299c0.732,1.033,0.482,3.382-0.75,7.048c-0.833,2.599-2.3,4.148-4.398,4.648
	c-1.933,0.5-3.35-0.017-4.249-1.549c-0.467-0.8-1.3-1.333-2.499-1.6l-3.749,0.25c-3.266,1.133-5.064,3.749-5.398,7.847
	c-0.3,4.366-1.582,6.681-3.849,6.948c-1.333,0.167-2.349-0.483-3.049-1.949c-0.666-1.399-0.783-2.849-0.35-4.349
	c0.133-0.466,0.083-0.766-0.15-0.899l-0.899,0.2c-1.6,1.1-2.749,2.616-3.449,4.548c-1.166-2.166-1.216-4.481-0.149-6.948
	c1.066-2.499,2.766-3.782,5.098-3.849c1.066-0.033,2.133-0.3,3.199-0.8c0.934-0.466,1.666-1.016,2.199-1.649
	c0.667-0.866,0.467-1.299-0.6-1.299c-1.833,0.066-2.949-0.117-3.349-0.55c-0.4-0.434,0.133-0.967,1.6-1.6
	c1.499-0.667,2.398-1.5,2.699-2.499c0.267-0.967-0.084-1.766-1.05-2.399c-1.033-0.667-1.333-1.633-0.9-2.899
	c0.467-1.333,1.633-1.983,3.499-1.95c4.232,0.034,7.381-1.916,9.447-5.848c1.966-3.798,1.866-6.998-0.3-9.597
	c-0.934-1.167-1.416-2.216-1.45-3.149c-0.033-1.066,0.483-2.416,1.55-4.049c1.833-2.766,2.166-5.548,1-8.347
	c-1.133-2.732-3.315-4.666-6.548-5.798c-1.566-0.533-2.666-1.549-3.299-3.049c-0.566-1.267-0.733-2.699-0.5-4.299
	c0.066-0.5-0.017-0.8-0.25-0.899c-0.2-0.133-0.483-0.05-0.85,0.25c-0.8,0.7-1.383,1.366-1.75,1.999
	c-0.3-1.5-0.267-2.932,0.101-4.298c0.1-0.367,0.066-0.617-0.101-0.75l-0.8-0.05c-3.032,1.233-4.648,3.249-4.848,6.048
	c-0.233,2.833,1.083,5.948,3.948,9.347c0.767,0.933,0.367,2.299-1.199,4.099c-0.2-1.766-0.983-3.232-2.35-4.398
	c-1.3-1.1-2.699-1.566-4.198-1.4c-0.434,0.067-0.7,0.217-0.8,0.45c-0.066,0.233,0.1,0.483,0.5,0.75
	c1.865,1.266,2.749,2.482,2.648,3.649l-0.449,0.85c-0.233,0.2-0.417,0.2-0.55,0c-0.934-1.466-2.066-1.933-3.399-1.399
	c-1.3,0.533-1.766,1.566-1.399,3.099c0.666,2.699-0.149,4.932-2.449,6.698c-0.933,0.7-1.816,1.033-2.649,1
	c-0.866-0.033-1.433-0.483-1.699-1.35c-0.566-1.933-1.649-3.215-3.249-3.849c-1.6-0.6-2.949-0.283-4.049,0.95
	c-0.933,1.066-1.883,1.466-2.849,1.2c-1-0.267-1.733-1.15-2.199-2.649c-0.633-2.033-2.183-3.449-4.649-4.249
	c-2.399-0.8-4.832-0.766-7.297,0.1c-2.732,0.966-4.648,2.949-5.748,5.948c-0.933,2.632-1.1,5.431-0.5,8.397
	c0.466,2.1-1.85,4.382-6.948,6.848c-1.3,0.633-2.266,1.7-2.899,3.199c-0.566,1.333-0.683,2.516-0.35,3.549
	c0.233,0.8,0.783,1.533,1.649,2.199c0.8,0.667,2.133,1.483,3.999,2.449c1.399,0.733,2.333,1.649,2.799,2.749
	c0.467,1.1,0.417,2.166-0.15,3.199c-0.6,1.066-1.1,2.299-1.5,3.699c-0.4,1.5-0.6,2.866-0.6,4.099c0,1.966,0.933,3.999,2.799,6.098
	c1.833,2.099,3.899,3.449,6.198,4.048c1.299,0.333,2.199,0.85,2.699,1.55c0.434,0.667,0.617,1.616,0.55,2.849
	c-0.267,2.999-1.917,4.665-4.949,4.999c-2.299,0.267-3.916,1.466-4.848,3.599c-0.535,1.203-0.787,2.537-0.774,3.992
	c-1.639-0.308-2.9-1.3-3.775-2.993c-1.033-2.033-1.05-4.182-0.05-6.448c0.333-0.833,0.083-1.133-0.75-0.9
	c-1,0.267-1.899,0.783-2.699,1.55c-0.8,0.766-1.367,1.666-1.7,2.699c-0.167,0.5-0.45,0.8-0.85,0.9c-0.367,0.1-0.667-0.033-0.9-0.4
	c-0.5-0.667-0.417-1.649,0.25-2.949c1.366-2.565,1.633-5.665,0.8-9.297c-0.833-3.765-2.616-6.981-5.348-9.647
	c-0.5-0.5-0.883-0.649-1.15-0.45c-0.267,0.167-0.3,0.566-0.1,1.2l0.25,2c-0.1,0.666-0.283,1.016-0.55,1.049
	c-0.333,0.067-0.733-0.333-1.2-1.2c-0.5-0.933-1-2.299-1.5-4.099c-0.4-1.466-1.016-2.549-1.849-3.249
	c-0.833-0.733-2.049-1.2-3.649-1.4c-2.133-0.267-4.365,0.184-6.698,1.35c-2.566,1.267-4.532,3.099-5.898,5.499
	c-0.233,0.4-0.267,0.716-0.1,0.95c0.167,0.2,0.5,0.267,1,0.2c2.1-0.333,4.232-0.383,6.398-0.15c2.466,0.267,3.932,0.833,4.399,1.699
	c0.233,0.434,0.25,0.783,0.05,1.05c-0.2,0.267-0.5,0.367-0.9,0.3l-1.549,0.25c-0.6,0.233-1.066,0.566-1.399,1
	c-0.233,0.266-0.317,0.533-0.25,0.799c0.1,0.233,0.316,0.367,0.65,0.4c0.3,0.067,0.566,0.217,0.799,0.45
	c0.233,0.267,0.333,0.516,0.3,0.75c-0.067,0.6-0.933,1.133-2.599,1.6c-0.5,0.133-0.717,0.383-0.65,0.75
	c0.033,0.333,0.3,0.517,0.8,0.55c1.666,0.1,2.815,1.15,3.449,3.149c0.566,1.933,0.417,3.665-0.45,5.198
	c-1.1,1.899-2.766,2.699-4.999,2.399c-2.266-0.333-4.465-1.699-6.598-4.099c-2.499-2.833-5.365-4.249-8.597-4.249
	c-3.065,0-5.564,1.216-7.498,3.649c-1.966,2.499-2.516,5.681-1.649,9.547c0.9,4.099,3.083,7.248,6.548,9.447
	c1.533,0.966,2.433,1.933,2.699,2.899c0.267,0.899,0,1.732-0.8,2.499c-0.933,0.899-1.883,1.982-2.849,3.249
	c-1.1,1.399-1.916,2.683-2.449,3.849c-0.7,1.533-0.5,2.866,0.6,3.999c1.066,1.1,2.349,1.433,3.849,1c1.2-0.367,2.049-0.2,2.549,0.5
	c0.333,0.434,0.833,0.75,1.5,0.95l2.099,0.15c0.433-0.066,0.767,0.184,1,0.75c0.2,0.533,0.267,1.183,0.2,1.949
	c-0.1,1.066,0.283,1.933,1.149,2.599c-1.133,1.033-2.616,1.316-4.448,0.85c-1.899-0.5-3.299-1.633-4.199-3.399
	c-0.533-1.066-1.266-1.95-2.199-2.649c-0.9-0.633-1.75-0.95-2.549-0.95c-1.666,0-3.432,1.183-5.298,3.549
	c-0.966,1.2-2.016,1.733-3.149,1.6c-1.166-0.1-2.183-0.917-3.049-2.449c-0.233-0.433-0.483-0.633-0.75-0.6
	c-0.3,0.033-0.55,0.283-0.75,0.75c-0.833,1.966-0.75,3.699,0.25,5.198c1,1.533,2.616,2.316,4.849,2.349
	c-0.7,1.466-1.633,3.066-2.799,4.799c-0.333,0.533-0.383,0.916-0.15,1.149c0.267,0.267,0.667,0.217,1.2-0.15
	c4.399-2.999,7.881-4.082,10.447-3.249c2.533,0.867,2.782,3.016,0.75,6.448c-1.399,2.333-1.999,4.648-1.799,6.948
	c0.16,1.942,0.881,3.44,2.145,4.512c-0.847,0.965-1.645,1.899-2.393,2.802c-10.64-9.25-20.558-17.293-29.743-24.109
	c-9.797-7.204-18.07-12.479-24.852-15.868c0.084-0.096,0.179-0.174,0.26-0.276c0.9-1.1,2.016-1.8,3.349-2.1
	c1.2-0.233,2.266-0.083,3.199,0.45c2.232,1.233,4.881,1.116,7.947-0.35c2.799-1.333,4.548-2.949,5.248-4.848l1-2.25
	c0.366-0.966,0.55-1.866,0.55-2.699c0.033-0.866,0.383-1.816,1.05-2.849c0.733-1.166,1.633-2.049,2.699-2.649
	c1.267-0.7,1.933-1.35,2-1.95c0.066-0.5-0.316-0.916-1.149-1.25c-0.567-0.2-0.7-0.533-0.4-1l1.35-2.299
	c0.733-1.433,1.116-2.566,1.149-3.399c0.066-1.333-0.2-2.083-0.8-2.249c-0.633-0.167-1.35,0.417-2.149,1.749
	c-0.533,0.9-1.216,1.517-2.049,1.85l-1.599-0.1c-0.967-1.2-2.183-1.583-3.649-1.149c-1.366,0.367-2.266,1.166-2.699,2.399
	c-0.2,0.633-0.667,0.967-1.399,1c-0.767,0.033-1.3-0.433-1.6-1.399c-0.833-2.666-0.55-4.249,0.85-4.749
	c2.066-0.833,2.933-2.383,2.599-4.649c-0.2-1.466,0.317-2.516,1.55-3.149c1.166-0.6,2.249-0.6,3.249,0
	c3.266,1.966,5.698,2.833,7.298,2.599c1-0.167,2.232-0.6,3.699-1.299c1.7-0.8,2.783-1.566,3.249-2.299
	c0.833-1.333,1.066-2.283,0.7-2.849c-0.367-0.533-1.183-0.633-2.449-0.3c-0.6,0-0.716-0.233-0.35-0.7l1.999-2.349l1.649-2.299
	c0.6-1.2,0.85-2.299,0.75-3.299c-0.067-1.8,0.333-3,1.2-3.599c1.2-0.866,1.783-1.883,1.75-3.049c0-1.066-0.434-1.883-1.3-2.449
	c-1.666-1.066-1.816-2.133-0.45-3.199c0.8-0.6,1.599-0.933,2.399-1l2.5,0.3l3.049,0.1c1.5-0.2,2.732-0.6,3.699-1.2
	c1.233-0.833,2.199-1.699,2.899-2.599c1.1-1.433,1.299-2.699,0.6-3.799l-1.2-2.299c-0.367-0.933-0.517-1.516-0.45-1.75
	c0.233-0.566,0.783-0.916,1.649-1.049c0.866-0.167,1.683-0.034,2.449,0.399c1.799,1,3.666,1,5.598,0
	c2.066-1.1,2.699-2.899,1.899-5.398c-0.2-0.7-0.2-1.5,0-2.399c0.233-0.899,0.633-1.599,1.2-2.099c0.833-0.733,1.316-1.399,1.449-2
	c0.133-0.633-0.017-1.45-0.45-2.449c-0.4-1.1-0.333-2.349,0.2-3.749c0.366-0.967,0.916-1.666,1.649-2.1l2.249-0.15
	c1.433,0.633,2.666,1,3.699,1.1c1.1,0.1,2.116-0.066,3.049-0.5c2.699-1.267,4.915-2.982,6.648-5.148
	c1.699-2.166,2.282-3.949,1.749-5.349c-0.566-1.666-0.4-2.965,0.5-3.898c0.866-0.933,1.133-1.833,0.8-2.699
	c-0.3-0.8-0.983-1.35-2.049-1.649c-0.966-0.233-1.3-0.783-1-1.649c0.3-0.866,1.033-1.466,2.199-1.799
	c7.064-1.933,9.813-5.048,8.247-9.347c-0.766-2.033-0.566-4.132,0.6-6.298c1.066-1.966,2.666-3.565,4.798-4.799
	c1.166-0.633,1.75-1.232,1.75-1.799c0-0.6-0.633-1.016-1.899-1.25c-1.899-0.366-4.115,0.033-6.648,1.2
	c-2.632,1.233-4.648,2.849-6.048,4.848l-0.9,0.65c-0.367,0.1-0.65,0.017-0.85-0.25c-0.5-0.6-1.133-1.033-1.899-1.3l-2.25-0.15
	c-0.4,0.066-0.616,0.216-0.649,0.45c-0.034,0.2,0.15,0.4,0.55,0.6c0.533,0.267,0.949,0.717,1.25,1.35c0.3,0.667,0.366,1.3,0.2,1.899
	c-0.2,0.8-0.633,1.8-1.299,2.999l-1.55,2.25c-0.333,0.333-0.85,0.583-1.549,0.75l-2,0.1c-2.399-0.433-4.415-0.167-6.048,0.8
	c-1.766,1.033-2.633,2.616-2.599,4.749c0.033,2.299-0.45,4.232-1.45,5.798c-0.966,1.433-2.083,2.149-3.349,2.149
	c-0.666,0-1.133-0.283-1.399-0.85c-0.267-0.633-0.183-1.283,0.25-1.949c0.733-1.066,0.883-1.916,0.45-2.549
	c-0.366-0.6-1.066-0.8-2.099-0.6l-1.399-0.15c-0.467-0.2-0.75-0.483-0.85-0.85c-0.333-1.366-1.116-2.049-2.349-2.049
	c-1.166,0-2.266,0.617-3.299,1.85c-1.1,1.266-1.616,2.666-1.549,4.199c0.066,1.699-0.233,2.549-0.9,2.549
	c-1.133,0-1.916,0.283-2.349,0.85c-0.433,0.566-0.4,1.233,0.1,1.999c1.1,1.666,0.783,2.783-0.95,3.349
	c-1.766,0.566-2.782,0.083-3.049-1.45c-0.4-2.399-1.366-4.065-2.899-4.998c-1.266-0.767-2.632-0.883-4.099-0.35
	c-2.033,0.766-3.549,1.983-4.549,3.649c-1.066,1.699-1.2,3.282-0.4,4.748c0.3,0.567,0.434,1.033,0.4,1.4l-0.649,1.149l-1.15,0.8
	l-1.149,0.2c-1.033-0.267-2.083-0.267-3.149,0c-1.066,0.267-1.983,0.766-2.75,1.5c-2.965,2.899-3.549,5.831-1.749,8.797l1.849,3.499
	c0.4,1.066,0.4,2.016,0,2.849c-0.6,1.333-1.283,2.166-2.049,2.499c-0.6,0.233-1.1,0.1-1.5-0.4c-0.833-1.066-1.733-1.633-2.699-1.699
	c-1-0.067-1.75,0.4-2.249,1.399c-0.467,0.9-1.083,1.333-1.85,1.3c-0.7-0.034-1.083-0.383-1.149-1.05
	c-0.167-1.633-0.433-2.833-0.8-3.599c-0.5-1.066-1.2-1.583-2.1-1.549c-0.799,0.067-1.616,0.55-2.449,1.45
	c-0.866,1-1.449,2.199-1.749,3.599c-0.233,1.1-0.7,2.149-1.4,3.149c-0.766,1.1-1.533,1.666-2.299,1.7
	c-1.066,0.066-1.999-0.2-2.799-0.8c-0.8-0.633-1.333-1.483-1.6-2.549c-0.5-1.966-1.799-3.249-3.898-3.849
	c-1.933-0.566-3.799-0.417-5.599,0.45c-0.333,0.167-0.5,0.367-0.5,0.6c0,0.233,0.167,0.433,0.5,0.6c1.899,0.9,3.083,2,3.549,3.299
	c0.434,1.2,0.184,2.333-0.75,3.399c-1.766,2.1-1.7,4.082,0.2,5.948c1.866,1.866,3.966,2.066,6.298,0.6
	c2.199-1.366,4.015-0.933,5.448,1.3c0.566,0.866,0.766,1.683,0.6,2.449c-0.167,0.833-0.733,1.316-1.699,1.449
	c-1.4,0.2-2.483,0.733-3.249,1.6c-0.767,0.9-1.017,1.983-0.75,3.249c0.167,0.866-0.033,1.683-0.6,2.449
	c-0.566,0.733-1.167,0.95-1.799,0.65c-2-1-3.549-0.617-4.649,1.149c-0.866,1.333-1.299,2.799-1.299,4.398
	c0,1.633,0.433,2.999,1.299,4.099c1.3,1.666,1.95,3.416,1.95,5.248c0.033,1.866-0.633,3.382-2,4.548l-2.199-0.05
	c-0.7-0.566-1.133-1.383-1.3-2.449c-0.066-0.466-0.233-0.733-0.5-0.8c-0.233-0.066-0.467,0.05-0.7,0.35
	c-0.833,1.066-1.216,2.466-1.15,4.199c0.067,1.599,0.45,2.832,1.15,3.699c-1.133,0.667-2.266,0.733-3.399,0.2
	c-1.133-0.566-1.583-1.433-1.35-2.599c0.766-3.565-0.2-5.848-2.899-6.848c-1.033-0.367-1.616-0.9-1.749-1.6
	c-0.1-0.633,0.216-1.316,0.95-2.049c1.033-0.966,1.549-1.899,1.549-2.799c0-0.9-0.483-1.55-1.45-1.95
	c-1.1-0.5-1.316-1.183-0.649-2.049c1.133-1.5,1.866-2.766,2.199-3.799c0.3-0.899,0.283-1.516-0.05-1.849
	c-0.7-0.7-1.816-0.633-3.349,0.2c0.4-1.333,0.35-2.532-0.15-3.599c-0.434-0.966-1.183-1.733-2.25-2.299
	c-1.633-0.9-2.966-1.816-3.999-2.749c-0.5-0.433-0.883-0.566-1.15-0.4s-0.267,0.533,0,1.1c0.533,1.266,0.567,2.599,0.1,3.999
	c-0.433,1.3-1.083,2.066-1.949,2.299c-2.966,0.8-3.766,3.132-2.399,6.998c0.667,1.966,0.683,3.549,0.05,4.748
	c-0.7,1.267-1.966,1.816-3.798,1.649c-4.932-0.433-7.331,2.2-7.198,7.897c0.1,3.699-0.667,5.432-2.299,5.199
	c-2.266-0.3-3.982,0.316-5.148,1.849c-1.233,1.6-1.166,3.482,0.2,5.648c1.566,2.466,2.132,4.632,1.699,6.498
	c-0.108,0.434-0.263,0.811-0.456,1.144c-0.227-0.498-0.534-0.965-0.943-1.394c-0.667-0.733-1.45-1.216-2.349-1.45
	c-0.633-0.133-1.083-0.367-1.35-0.7c-0.4-0.566-0.567-1.516-0.5-2.849c0.133-2-0.683-3.582-2.449-4.749
	c-1.733-1.133-3.482-1.3-5.249-0.5c-0.566,0.267-1.149,0.2-1.749-0.2c-0.667-0.467-1.117-1.216-1.35-2.25
	c-0.1-0.4-0.283-0.633-0.55-0.7c-0.267-0.033-0.5,0.117-0.7,0.45c-0.567,0.967-1.45,1.583-2.649,1.85
	c0.9-1.299,1.25-2.766,1.05-4.398c-0.2-1.633-0.883-2.866-2.049-3.699c-0.6-0.4-1-0.25-1.2,0.45c-0.267,1.1-1.133,1.516-2.599,1.25
	c-1.433-0.3-2.049-1.133-1.85-2.499c0.2-1.133-0.033-2.066-0.7-2.799c-0.667-0.733-1.616-1.066-2.849-1
	c-1.733,0.1-2.166-0.933-1.299-3.099c0.899-2.166,2.366-3.315,4.398-3.449c1.133-0.1,2.016-0.35,2.649-0.75
	c0.733-0.433,1.333-1.116,1.8-2.049c0.733-1.399,0.933-3.232,0.6-5.498c-0.3-2.199-1.05-4.332-2.25-6.398
	c-0.5-0.933-1.283-1.583-2.349-1.949c-1.299-0.467-2.699-0.367-4.199,0.3l-2.349-0.1c-0.667-0.4-1.05-1.033-1.149-1.899
	c-0.2-1.633-0.816-2.882-1.85-3.749c-1.166-1-2.699-1.366-4.599-1.1c-0.966,0.134-1.599-0.05-1.899-0.55
	c-0.333-0.466-0.433-1.333-0.3-2.599c0.566-5.165-1.533-8.813-6.298-10.946c-5.032-2.266-6.681-6.015-4.948-11.247
	c0.233-0.799-0.034-1.1-0.8-0.899c-1.466,0.333-2.699,1.183-3.699,2.549c-0.733,0.966-1.267,0.783-1.6-0.55
	c-0.3-1.166-0.283-2.349,0.05-3.549c0.367-1.333,1.033-2.399,2-3.199c1.266-1.1,2.249-2.349,2.949-3.749
	c0.766-1.566,1.066-3.116,0.899-4.649c-0.233-2.366-1.1-4.632-2.599-6.797c-1.633-2.333-3.599-3.999-5.898-4.999
	c-1.233-0.5-1.783-0.117-1.649,1.149c0.3,2.299-0.3,3.982-1.799,5.048c-0.767,0.533-1.35,0.75-1.75,0.65
	c-0.4-0.067-0.6-0.35-0.6-0.85c0-1-0.333-1.766-1-2.299c-0.7-0.566-1.633-0.75-2.799-0.55c-0.667,0.1-0.95-0.3-0.85-1.2
	c0.133-0.966,0.683-1.783,1.649-2.449c1.899-1.366,3.499-3.099,4.798-5.198c1.167-1.899,1.85-3.699,2.049-5.398
	c0.267-2.132,0-3.632-0.799-4.499c-2.366-2.666-3.982-5.798-4.849-9.397c-0.133-0.6-0.367-0.917-0.7-0.95
	c-0.333-0.066-0.617,0.25-0.85,0.95c-0.867,2.533-2.25,4.666-4.149,6.398c-2.232,2.066-4.815,3.099-7.748,3.099
	c-4.598,0-8.797,2.599-12.596,7.797c-3.599,4.898-5.548,10.18-5.848,15.845c-0.466-0.933-0.8-2.216-1-3.849
	c-0.067-0.466-0.217-0.733-0.45-0.8c-0.3-0.1-0.566,0.067-0.8,0.5c-0.6,1.167-1.083,2.366-1.449,3.599
	c-0.6-3.032-0.667-6.114-0.2-9.247c0.067-0.6-0.033-0.966-0.3-1.1c-0.267-0.167-0.633,0-1.1,0.5c-1.2,1.333-2.316,3.782-3.349,7.348
	c-0.933,3.299-1.366,5.881-1.299,7.748c0.1,3.632-0.067,7.498-0.5,11.596l-3.099-0.2l-2.199,0.3c-0.7,0.333-0.766,0.816-0.2,1.45
	c4.765,5.498,8.347,11.596,10.747,18.294c2.166,6.165,3.549,13.462,4.148,21.893c0.2,2.599,0.816,5.131,1.85,7.597
	c1.133,2.666,2.616,4.815,4.448,6.448c12.996,11.596,23.926,31.256,32.79,58.981c0.566,1.733,1.466,2.982,2.699,3.749
	c1.133,0.667,2.966,1.183,5.498,1.55c5.632,0.766,13.779,4.798,24.442,12.096c7.968,5.434,14.199,10.59,18.711,15.472l-28.058,43.16
	c-1.366,2.133-1.949,3.349-1.75,3.648c0.233,0.333,1.583-0.3,4.049-1.899c7.464-4.832,16.395-10.979,26.792-18.444l19.584-14.677
	c11.433,1.697,22.216,5.804,32.349,12.327c10.971,7.112,20.58,16.688,28.834,28.714c-0.296,5.718-0.344,11.675-0.143,17.872
	c0.299,8.897,1.181,16.441,2.646,22.636c-2.232,6.753-2.597,14.246-1.047,22.499c1.433,7.564,3.849,13.43,7.248,17.595
	c3.166,3.898,5.365,6.897,6.598,8.997c1.167,1.899,1.783,3.498,1.85,4.799c0.033,0.633,0.316,1.016,0.85,1.149l1.225-0.069
	c-0.097,3.292-0.388,5.935-0.875,7.916c-0.633,2.6-1.649,4.549-3.049,5.849c-3.366,3.099-7.114,7.348-11.246,12.746
	c-2.28,2.934-4.18,5.563-5.726,7.91c-2.329,1.854-5.855,4.176-10.619,6.984c-1.308,0.771-2.517,1.471-3.63,2.101
	c-0.763-0.023-1.568-0.019-2.468,0.049c-1.433,0.134-2.5,0.351-3.199,0.65l-2.799,1.149l-2.849,0.399
	c-1.2-0.033-2.299,0.167-3.299,0.601c-0.633,0.3-1.466,0.833-2.5,1.599c-1.029,0.829-2.188,1.932-3.462,3.275l-0.786-0.026
	c-1.133,0.7-2.533,2.033-4.199,3.999c-1.466,1.732-2.616,3.332-3.449,4.799c-0.267,0.466-0.35,0.783-0.25,0.949
	c0.1,0.2,0.433,0.267,1,0.2l4.799-0.95c0.564-0.15,1.092-0.307,1.598-0.465c-0.607,0.718-1.239,1.552-1.898,2.515
	c-1.433,2.1-2.583,4.132-3.449,6.098c-0.167,0.334-0.216,0.566-0.15,0.7l0.75,0.25c2.232-0.1,5.198-0.9,8.897-2.399
	c3.193-1.294,5.115-2.414,5.807-3.366c1.69-0.68,3.241-1.393,4.662-2.135c-0.613,0.732-0.975,1.498-1.072,2.302
	c-0.099,0.865,0.126,1.572,0.668,2.125c-0.533,1.117-0.958,3.001-1.269,5.673c-0.3,2.732-0.417,5.148-0.35,7.248
	c0,0.466,0.083,0.732,0.25,0.799c0.133,0.067,0.383,0,0.75-0.199c1.633-0.9,3.815-2.633,6.548-5.198
	c2.292-2.164,3.679-3.754,4.179-4.782c0.673-0.215,1.33-0.598,1.969-1.166c0.833-0.733,1.4-1.533,1.7-2.399
	c0.933-2.732,1.733-4.448,2.399-5.148l5.198-5.298c2.166-2.766,3.999-4.582,5.498-5.448c0.093-0.052,0.201-0.083,0.297-0.131
	c1.151,1.064,2.445,1.854,3.902,2.33c2.033,0.633,4.232,2.732,6.598,6.298c0.5,0.767,1.283,1.266,2.35,1.499l1.689-0.144
	c0.702,0.964,2.094,2.224,4.209,3.793c2.932,2.232,4.898,3.415,5.898,3.549c0.7,0.166,1.017-0.066,0.95-0.7
	c-0.167-2.099-0.899-4.582-2.199-7.447c-1.005-2.207-1.919-3.677-2.744-4.422c0.139-0.732,0.071-1.475-0.205-2.226
	c-0.4-1.101-1.116-1.833-2.149-2.2c-1.333-0.533-2.783-1.333-4.349-2.398c-1.667-1.134-2.916-2.233-3.749-3.3
	c-0.633-0.799-1.283-1.982-1.949-3.549c-0.408-1.01-0.694-1.889-0.88-2.663c2.187-3.628,4.563-6.84,7.128-9.633
	c3.432-3.698,6.848-6.281,10.247-7.747c2.666-1.166,4.398-2.283,5.198-3.35c0.7-0.899,1.149-2.465,1.35-4.697
	c0.217-2.878,0.598-6.279,1.13-10.161l0.119-0.087c1.233-2.065,2.283-3.549,3.149-4.447c3.066-0.467,6.032-1.633,8.897-3.5
	c2.164-1.434,3.812-2.95,4.957-4.549c5.5,0.612,10.832,0.196,15.998-1.235c4.532,4.007,10.038,7.256,16.534,9.733
	c3.999,1.533,7.998,3.449,11.996,5.748c3.699,2.133,6.231,3.883,7.598,5.248l1.399-0.05c0.122-0.229,0.225-0.483,0.335-0.729
	c7.522,7.382,12.547,13.01,15.06,16.875c1.999,2.998,4.266,7.563,6.798,13.695c1.494,3.574,2.702,6.75,3.634,9.541
	c-0.387,1.431-1.06,3.079-2.034,4.954c-1.2,2.366-2.1,3.716-2.699,4.049l-3.099,0.999l-3.249,0.551
	c-1.233,0.1-2.199,0.466-2.899,1.1c-0.493,0.444-0.82,0.972-0.985,1.581c-0.932,0.432-2.034,1.448-3.313,3.067
	c-1.666,2.166-2.699,4.231-3.099,6.197c-0.067,0.434,0.116,0.7,0.55,0.8c1.5,0.233,3.532-0.017,6.098-0.749
	c1.818-0.525,3.107-1.118,3.889-1.773c0.259,0.115,0.56,0.192,0.91,0.224l2.1-0.35c1.517-0.687,3.06-1.218,4.626-1.609
	c-0.011,0.284-0.022,0.564-0.028,0.859c-0.033,2.199-0.499,3.965-1.399,5.298c-0.699,1.167-0.866,2.482-0.5,3.949
	c0.291,1.16,0.809,1.995,1.537,2.529c0.029,1.482,0.467,3.872,1.313,7.167c0.966,3.832,1.85,6.248,2.649,7.248
	c0.333,0.434,0.683,0.434,1.049,0c1.366-1.666,2.616-4.432,3.749-8.297c0.909-3.084,1.355-5.486,1.354-7.228
	c0.527-0.192,0.982-0.536,1.346-1.07c0.6-0.866,0.7-1.782,0.3-2.749c-0.267-0.6-0.267-1.816,0-3.648
	c0.267-1.733,0.55-2.866,0.85-3.399c0.233-0.399,0.617-0.717,1.15-0.949l1.249,0.1c1.6,1.6,2.85,2.633,3.749,3.099
	c0.866,0.467,1.699,1.25,2.499,2.35c0.767,1.1,1.3,2.216,1.6,3.349c0.399,1.6,1.216,2.732,2.449,3.399
	c0.739,0.419,1.459,0.597,2.161,0.542c0.846,1.053,1.856,2.816,3.037,5.306c1.333,2.766,2.183,4.999,2.549,6.698
	c0.101,0.433,0.233,0.666,0.4,0.699l0.75-0.449c1.766-1.6,2.716-4.482,2.849-8.647c0.085-3.395-0.353-5.721-1.3-7.002
	c-0.085-1.458-0.48-2.906-1.199-4.345c-0.967-1.832-2.333-3.432-4.099-4.798c-1.261-0.974-2.495-2.492-3.706-4.548
	c1.202,0.377,2.404,0.855,3.606,1.448c2.165,1.066,3.915,2.25,5.248,3.549c1.133,1.134,2.383,1.467,3.749,1
	c0.997-0.314,1.65-0.908,1.986-1.761l2.712,2.061l4.049,3.749c0.3,0.333,0.55,0.483,0.749,0.45c0.233-0.034,0.367-0.301,0.4-0.8
	c0.267-2.333-0.217-4.932-1.449-7.798c-0.929-2.183-1.941-3.655-3.04-4.421c-0.103-0.611-0.448-1.172-1.06-1.677
	c-0.866-0.733-1.982-1.1-3.349-1.1l-3.998-0.351c-1.8-0.3-2.999-0.649-3.6-1.05c-1.699-1.133-3.249-1.782-4.648-1.949
	c-0.633-0.066-1.532-0.466-2.699-1.199l-2.449-1.85c-0.633-0.666-1.35-1.199-2.149-1.6c-0.687-0.374-1.307-0.545-1.876-0.556
	c-1.347-2.631-2.655-5.914-3.922-9.891c-1.966-6.099-3.016-10.797-3.148-14.096c-0.067-1.966-0.351-3.549-0.851-4.749
	c-0.532-1.398-1.466-2.599-2.799-3.598c-1.333-1-3.599-3.933-6.798-8.798c-2.563-3.883-4.299-6.919-5.219-9.12
	c0.081,0.009,0.156,0.005,0.221-0.027c0.233-0.1,0.333-0.399,0.3-0.898c-0.1-2.934,0.184-6.349,0.85-10.248l2.199-10.945
	c1.566-7.965,1.149-16.629-1.249-25.992c-0.143-0.558-0.314-1.121-0.471-1.681c0.279-0.168,0.566-0.351,0.87-0.568l2.499-2.199
	c1.566-1.733,3.416-1.716,5.549,0.05c2.532,2.1,3.915,6.215,4.148,12.346c0.166,4.365,1.766,7.131,4.798,8.297
	c2.933,1.134,6.349,0.434,10.247-2.099c1.8-1.2,3.632-1.649,5.498-1.35c1.833,0.267,3.6,1.249,5.299,2.949
	c1.133,1.1,2.433,1.982,3.898,2.649c1.6,0.699,3.166,1.066,4.698,1.1c2.267,0.033,4.482-0.667,6.648-2.1
	c2.133-1.399,3.748-3.166,4.848-5.299c0.467-0.933,0.634-2.549,0.5-4.848c-0.233-2.433-0.35-3.982-0.35-4.648
	c0.033-2.633,1.166-4.532,3.399-5.699c2.199-1.032,3.349-2.415,3.448-4.148c0.101-1.6-0.733-3.382-2.499-5.348
	c-0.399-0.434-0.517-0.816-0.35-1.15c0.133-0.299,0.482-0.433,1.05-0.399c0.933,0.034,1.666-0.233,2.199-0.8s0.8-1.399,0.8-2.499
	c0-0.466,0.616-0.733,1.849-0.8c1.267-0.066,2.233,0.15,2.899,0.65l3.499,0.1c1.466-0.533,2.766-1.383,3.898-2.549
	c0.8-0.801,1.05-1.699,0.75-2.699c-0.333-1.066-1.267-2.083-2.799-3.049c-0.733-0.467-0.851-1.084-0.351-1.85
	c0.5-0.733,1.217-1.1,2.149-1.1c1.467,0,2.833-0.617,4.099-1.85c1.399-1.4,2.149-3.133,2.25-5.199
	c0.066-0.699-0.067-1.115-0.4-1.249s-0.733,0.033-1.199,0.5c-2.267,2.333-4.599,3.582-6.998,3.749
	c-2.6,0.199-3.749-1.15-3.449-4.049c0.167-1.933-0.366-3.166-1.6-3.699c-1.332-0.566-3.165-0.199-5.498,1.1
	c-0.767,0.467-1.416,0.617-1.949,0.45c-0.533-0.134-0.783-0.533-0.75-1.2c0.033-0.699,0.434-1.432,1.2-2.199
	c0.8-0.799,1.649-1.266,2.549-1.398c2.732-0.334,5.265-1.916,7.598-4.749c2.532-3.032,3.166-5.882,1.899-8.548
	c-0.2-0.399-0.434-0.566-0.7-0.5l-0.55,0.601c-0.633,1.565-1.732,2.799-3.299,3.698c-1.499,0.867-2.299,0.934-2.399,0.2
	c-0.066-0.399,0.551-1.233,1.85-2.499c1.267-1.299,2.533-2.35,3.799-3.148c1.267-0.801,1.85-1.75,1.75-2.85
	c-0.101-1.066-0.833-2.116-2.199-3.148c-0.233-0.134-0.351-0.384-0.351-0.75c0.067-1.3,1.616-2.933,4.648-4.898
	c2.433-1.566,3.316-3.232,2.649-4.998c-0.7-1.8-2.732-3.05-6.098-3.75c-1.399-0.299-2.216-0.865-2.449-1.699
	c-0.2-0.732,0.033-1.199,0.699-1.399c1.033-0.3,2.033-0.749,2.999-1.349c1-0.667,1.733-1.384,2.199-2.15
	c0.367-0.666,0.434-1.1,0.2-1.299l-1.3,0.149l-3.998,0.15c-1.233-0.5-1.899-1.3-2-2.399c-0.066-1.167,0.316-2.316,1.15-3.449
	c0.933-1.166,2.165-1.982,3.698-2.449c1.699-0.5,3.549-0.167,5.548,1c1.899,1.133,3.283,2.616,4.149,4.448
	c0.699,1.433,1.749,2.449,3.148,3.05l4.549,0.149c2.1-0.7,4.215-2.283,6.348-4.749l4.999-6.698c1.1-1.566,2.433-2.516,3.998-2.849
	c1.399-0.3,2.566-0.05,3.499,0.75c4.065,3.332,7.348,4.782,9.847,4.348c1.3-0.233,2.732-0.933,4.299-2.099
	c1.566-1.166,2.633-2.366,3.199-3.599c0.267-0.6,0.25-1.7-0.05-3.299l-1-4.648c-0.533-2.799,0.083-4.532,1.85-5.198
	c1.699-0.633,3.349-0.117,4.948,1.55c1.033,1.066,2.149,1.316,3.349,0.75c1.167-0.566,1.716-1.533,1.649-2.899
	c-0.066-0.6,0-1.066,0.2-1.399c0.2-0.333,0.583-0.65,1.149-0.95c1.6-0.766,2.249-1.982,1.949-3.648
	c-0.3-1.766-1.616-2.949-3.948-3.549c1.3-0.933,2.999-1.233,5.099-0.9c1.966,0.333,3.565,1.083,4.798,2.25
	c1.467,1.466,3.282,1.482,5.448,0.05c2.133-1.399,3.166-3.216,3.1-5.448c0-0.866-0.4-1.05-1.2-0.55
	c-1.033,0.667-1.816,0.866-2.349,0.6c-0.567-0.267-0.467-0.633,0.3-1.1c0.8-0.5,1.183-1.2,1.149-2.099
	c-0.033-0.966-0.566-1.716-1.6-2.25c-0.933-0.433-0.866-1.199,0.2-2.299c1.1-1.166,2.716-1.716,4.848-1.649
	c1.9,0.067,3.383-0.3,4.449-1.1c1.133-0.866,2.016-2.366,2.649-4.499c0.399-1.366,1.232-2.216,2.499-2.549
	c1.199-0.3,2.016-0.067,2.449,0.7c0.699,1.266,1.666,1.849,2.898,1.75c1.233-0.1,2.449-0.833,3.649-2.2
	c0.866-1,1.982-1.433,3.349-1.299c1.333,0.1,2.549,0.7,3.648,1.799c1.333,1.333,2.899,1.85,4.699,1.549
	c1.366-0.233,3.016-1,4.948-2.299c0.633-0.467,0.866-0.9,0.699-1.3c-0.166-0.367-0.616-0.5-1.349-0.4c-0.867,0.1-1.65-0.1-2.35-0.6
	c-0.633-0.434-1.083-1.033-1.35-1.8c2.133,0.434,4.215-0.899,6.248-3.999c0.833-1.266,2.299-4.182,4.398-8.747
	c0.833-1.766,2.282-3.132,4.349-4.099c2.366-1.066,5.015-1.333,7.947-0.8c1.866,0.333,3.499-0.017,4.898-1.05
	c1.333-1.033,2.083-2.382,2.249-4.049c0.101-0.933-0.283-1.266-1.149-1c-1.033,0.367-2.149,0.267-3.349-0.3
	c-1.1-0.5-1.732-1.1-1.899-1.799c-0.101-0.467,0.383-1.2,1.449-2.199c1.066-0.967,2.383-1.916,3.949-2.849
	c2.166-1.3,3.182-2.616,3.049-3.949c-0.134-1.333-1.449-2.566-3.949-3.699c-1.433-0.666-1.366-2.266,0.2-4.798
	c1.233-2.033,4.715-3.082,10.447-3.149c0.999-0.033,1.549-0.267,1.649-0.7c0.066-0.4-0.351-0.783-1.25-1.15
	c-1.6-0.6-2.116-1.499-1.55-2.699c0.533-1.167,1.717-2,3.549-2.5c3.1-0.833,5.299-2.583,6.598-5.248
	c1.2-2.466,1.4-5.182,0.601-8.147c-0.9-3.266,0.216-4.815,3.349-4.648c1.732,0.066,3.382-0.45,4.948-1.55
	c1.666-1.166,2.616-2.649,2.85-4.448c0.166-1.133,0.782-2.25,1.849-3.349s2.366-1.949,3.899-2.549c0.767-0.3,1.1-0.633,0.999-1
	c-0.1-0.367-0.566-0.5-1.399-0.4l-2.149-0.05c1.233-0.467,2.433-1.1,3.6-1.899c1.166-0.767,2.065-1.516,2.699-2.249
	c0.499-0.533,0.649-0.95,0.449-1.25c-0.166-0.3-0.533-0.366-1.1-0.2c-2.599,0.7-3.415-0.183-2.449-2.649
	c0.967-2.532,3.216-4.881,6.748-7.047c3.599-2.199,6.098-5.465,7.497-9.797c0.833-2.533,1.217-5.215,1.15-8.047
	c-0.034-1.766,0.433-3.266,1.399-4.499c0.8-1.066,1.799-1.8,2.999-2.2c1.033-0.333,2.099-1.233,3.199-2.699
	c0.966-1.267,1.749-2.683,2.349-4.249c0.434-1.133,0.633-2.066,0.6-2.799c-0.033-0.966-0.399-1.866-1.1-2.699
	c-0.433-0.533-0.666-1.133-0.699-1.799c0-0.667,0.217-1.583,0.649-2.749c0.3-0.867,1.383-2.266,3.249-4.199l4.049-4.449
	C604.869,19.244,605.002,18.644,604.702,18.244z M466.974,196.711l1.904-0.041C468.159,196.946,467.524,196.96,466.974,196.711z"/>
</svg>
