<?xml version="1.0" encoding="utf-8"?>
<!-- Generator: Adobe Illustrator 16.0.0, SVG Export Plug-In . SVG Version: 6.00 Build 0)  -->
<!DOCTYPE svg PUBLIC "-//W3C//DTD SVG 1.1//EN" "http://www.w3.org/Graphics/SVG/1.1/DTD/svg11.dtd">
<svg version="1.1" id="图层_1" xmlns="http://www.w3.org/2000/svg" xmlns:xlink="http://www.w3.org/1999/xlink" x="0px" y="0px"
	 width="273px" height="254px" viewBox="0 0 273 254" enable-background="new 0 0 273 254" xml:space="preserve">
<path d="M267.902,126.1c-3.168-12.038-10.521-22.643-22.059-31.813c-9.805-7.803-21.059-11.354-33.764-10.654
	c-10.938,0.6-20.358,3.952-28.262,10.054c-2.5,1.901-4.368,3.852-5.602,5.853c-1.168,1.901-1.385,3.185-0.65,3.852
	c0.867,0.733,2.451,0.617,4.752-0.35c4.701-2.034,8.97-3.268,12.805-3.702c4.002-0.434,8.854-0.117,14.556,0.95
	c4.868,0.9,8.521,2.951,10.954,6.153c1.434,1.834,2.518,4.268,3.252,7.303c0.733,3.134,0.834,6.236,0.3,9.304
	c-0.601,3.134-1.718,5.235-3.351,6.303c-3.068,1.967-6.553,3.034-10.455,3.201c-3.4,0.1-7.686-0.5-12.855-1.801
	c-6.035-1.501-10.62-2.451-13.755-2.852c-5.636-0.767-11.487-0.833-17.557-0.199c-7.903,0.8-17.74,5.902-29.512,15.305
	c-6.703,5.369-13.456,11.655-20.258,18.857c-3.702,3.869-6.403,6.104-8.104,6.703c-2,0.667-4.468-0.066-7.403-2.201
	c-5.235-3.834-7.453-11.32-6.652-22.459c0.3-4.334,1.05-8.569,2.25-12.704c1.101-3.869,2.301-6.72,3.602-8.554
	c3.334-4.769,5.886-10.004,7.653-15.706c0.873-2.772,1.533-5.618,2.001-8.528c2.258,1.005,5.679,2.607,10.304,4.827
	c5.102,2.301,8.287,3.235,9.554,2.801c1.767-0.6,2.451-3.201,2.051-7.803c-0.3-3.601-1.201-7.903-2.701-12.905l-2.351-8.503
	c-0.533-2.468-0.717-4.302-0.55-5.502c0.267-1.467,1.534-4.168,3.801-8.103l3.301-5.502l2.301-3.702
	c0.834-1.567,1.034-2.701,0.601-3.401c-0.5-0.867-1.551-1.517-3.151-1.951l-5.805-0.172c-0.101-0.004-0.201-0.009-0.309-0.009
	l-0.639-0.019c1.968-17.14,2.951-28.461,2.951-33.963c0-9.237-1.5-14.072-4.501-14.506c-2.701-0.4-9.204,6.569-19.508,20.908
	c-7.066,9.83-12.918,19.039-17.571,27.632c-10.633-5.424-22.249-6.801-34.85-4.122c-9.571,2.067-17.607,7.002-24.11,14.806
	c-0.555,0.669-1.079,1.346-1.588,2.026c-0.81-1.195-1.604-2.4-2.363-3.626c-1.501-2.501-3.235-5.636-5.202-9.404l-4.001-8.103
	c-1.334-2.435-2.418-3.585-3.251-3.452s-1.617,0.951-2.351,2.451c-0.7,1.4-1.267,3.234-1.701,5.502
	c-0.533,2.801-0.633,6.203-0.3,10.204c0.2,2.834,0.733,7.003,1.601,12.505c0.4,2.668,0.6,4.485,0.6,5.452
	c-0.033,1.134-0.333,1.901-0.9,2.301c-0.434,0.333-2.018,0.717-4.752,1.15c-2.501,0.4-3.868,0.867-4.102,1.4
	c-0.267,0.6-0.066,1.3,0.6,2.101l3.001,2.701l9.904,7.703c1.872,1.712,3.361,3.388,4.514,5.03
	c-4.854,5.532-6.827,11.525-5.914,17.979c1,7.236,5.152,12.739,12.455,16.507c5.586,2.903,11.591,4.118,18.002,3.696
	c0.128,0.667,0.224,1.348,0.255,2.056c0.067,1.268-1.65,9.821-5.152,25.66c-3.168,17.774-4.035,32.396-2.601,43.868
	c1.534,11.904,7.27,22.342,17.207,31.312C63.938,246.48,78.077,251.6,94.984,251.6c14.572,0,28.228-3.885,40.966-11.654
	c12.805-7.804,24.027-19.125,33.664-33.964l3.201-5.202l2.801-4.002c3.068-3.468,5.785-5.602,8.153-6.402l8.604-0.35l14.806,0.7
	c29.346-1.534,48.27-11.104,56.772-28.712C269.719,149.977,271.037,138.004,267.902,126.1z"/>
</svg>
