<?xml version="1.0" encoding="utf-8"?>
<!-- Generator: Adobe Illustrator 16.0.0, SVG Export Plug-In . SVG Version: 6.00 Build 0)  -->
<!DOCTYPE svg PUBLIC "-//W3C//DTD SVG 1.1//EN" "http://www.w3.org/Graphics/SVG/1.1/DTD/svg11.dtd">
<svg version="1.1" id="图层_1" xmlns="http://www.w3.org/2000/svg" xmlns:xlink="http://www.w3.org/1999/xlink" x="0px" y="0px"
	 width="254px" height="409px" viewBox="0 0 254 409" enable-background="new 0 0 254 409" xml:space="preserve">
<path d="M246.752,331.125c-2.732-6.697-6.631-12.762-11.695-18.193c-4.998-5.297-11.012-9.779-18.043-13.444
	c-6.964-3.632-14.094-6.03-21.392-7.196c-6.331-1-13.245-1.367-20.741-1.1l-17.443,1.249l-10.945,0.899l-8.896-0.699
	c-0.768-3.999,1.482-8.848,6.746-14.545c5.998-6.497,14.078-11.695,24.241-15.594c14.461-5.531,24.99-10.896,31.587-16.094
	c4.293-3.369,7.586-7.237,9.929-11.581c3.807-0.387,7.031-1.983,9.664-4.813c2.732-2.933,4.099-6.397,4.099-10.396
	c0-3.049-0.791-5.771-2.347-8.18c0.948-0.959,1.732-2.063,2.347-3.316c0.799-1.699,1.199-3.481,1.199-5.348
	c0-3.432-1.217-6.381-3.648-8.846c-1.118-1.118-2.351-1.967-3.688-2.571c-0.891-3.149-2.142-5.777-3.76-7.875
	c-1.466-1.933-3.516-3.732-6.147-5.398c-1.267-0.833-2.065-1.1-2.399-0.8c-0.366,0.267-0.199,1.033,0.5,2.299
	c1.89,3.243,2.543,7.104,1.992,11.566c-1.511,0.608-2.893,1.531-4.141,2.779c-2.434,2.465-3.648,5.415-3.648,8.846
	c0,1.195,0.191,2.419,0.557,3.669c-1.042,0.64-2.032,1.404-2.957,2.329c-2.998,2.998-4.498,6.613-4.498,10.846
	c0,3.473,1.068,6.563,3.188,9.277c-2.901,2.729-6.705,5.219-11.434,7.466c-5.864,2.766-13.678,5.364-23.441,7.797l-16.693,4.249
	c-7.463,2.065-14.41,4.364-20.841,6.896c-10.263,3.998-18.959,9.896-26.09,17.693c-7.597,8.33-12.145,17.477-13.645,27.439
	c-0.933,6.297,0.133,12.562,3.199,18.792c2.932,5.964,6.931,10.413,11.995,13.345c-7.364,0.9-13.944-0.616-19.742-4.548
	c-8.263-5.599-11.979-15.128-11.146-28.589c0.667-10.129,5.331-23.957,13.995-41.484c6.73-13.66,16.227-30.154,28.489-49.48
	l15.194-24.39c4.965-8.33,8.497-14.944,10.596-19.842c4.498-10.529,8.047-20.592,10.646-30.188c2.53-9.396,3.982-17.743,4.38-25.066
	c0.842-1.404,1.543-2.979,2.067-4.772c6.431-2.366,11.462-7.23,15.095-14.594c3.531-7.197,4.598-14.411,3.198-21.642
	c1.032-3.165,1.749-6.947,2.149-11.345l0.3-9.696c0-3.232-0.483-5.798-1.45-7.697c-0.966-1.899-2.165-2.666-3.598-2.299
	c-0.167-9.33-1.333-16.51-3.499-21.542c-2.099-4.798-4.265-5.898-6.497-3.299c-2.066-8.13-3.849-12.112-5.348-11.945
	c-0.834,0.067-1.434,0.583-1.8,1.549c-0.366,1-0.767,3.215-1.2,6.647c-1.133,9.063-2.082,15.561-2.848,19.492
	c-1.767,9.163-4.166,16.91-7.197,23.241l-4.748,9.346c-1.242,2.409-2.333,4.582-3.282,6.537c-1.636-1.076-3.534-2.171-5.715-3.288
	c-9.229-4.531-19.309-5.198-30.238-1.999c-5.87,1.736-11.027,4.276-15.475,7.617c0.27-3.526-0.134-7.945-1.218-13.265
	c-1.333-6.397-3.232-12.212-5.698-17.443c-1.866-4.099-4.715-8.297-8.546-12.595c-3.898-4.365-6.881-6.664-8.947-6.897
	c-1.266-0.133-2.182,0.267-2.749,1.2c-0.333,0.6-0.5,1.35-0.5,2.249c0,1.833,0.899,5.148,2.699,9.946l3.949,10.946
	c-0.133,0.533-0.15,1.616-0.05,3.249c0.133,2.532,0.549,5.714,1.249,9.546c-0.766,1.033-1.249,2.549-1.449,4.548
	c-0.267,2.833-0.1,7.098,0.5,12.795c-0.633-0.399-1.183-0.3-1.649,0.3c-0.487,0.63-0.712,1.718-0.707,3.209
	c-0.942,0.124-1.524,0.37-1.742,0.739c-0.474,0.741,0.363,2.156,2.496,4.24c0.787,3.662,1.831,6.924,3.152,9.755
	c1.213,2.641,2.479,4.469,3.794,5.513c-0.137,1.614-0.235,3.261-0.246,4.983c-0.014,2.133,0.073,4.085,0.25,5.876
	c-1.599,2.332-2.079,5.478-1.4,9.468c0.854,4.897,3.178,9.006,6.937,12.345c0.156,2.25-0.103,4.152-0.79,5.698l-0.2,0.5
	c-2.232,4.998-3.449,8.58-3.648,10.746c-0.4,4.731,1.749,8.38,6.447,10.945c5.231,2.899,11.129,4.465,17.693,4.698
	c5.265,0.2,9.63-0.383,13.095-1.749l-1.399,2.099l-1.315,1.808c-1.803-0.97-3.796-1.458-5.982-1.458
	c-3.532,0-6.547,1.266-9.046,3.799c-2.532,2.499-3.798,5.514-3.798,9.046c0,3.532,1.266,6.564,3.798,9.096
	c0.059,0.06,0.123,0.11,0.182,0.169c-5.317,6.859-11.15,13.733-17.525,20.623l-19.542,20.542
	c-14.194,14.994-24.94,28.771-32.237,41.334c-12.062,20.758-17.943,42-17.643,63.725c0.2,12.895,2.982,24.49,8.347,34.786
	c4.298,8.196,10.163,15.46,17.593,21.792c15.994,13.594,34.82,18.908,56.478,15.943c4.131-0.566,8.946-1.583,14.444-3.049
	l12.895-3.699c10.296-2.932,18.66-4.531,25.09-4.798c9.496-0.366,19.942,1.399,31.338,5.298c11.43,3.932,22.875,5.515,34.337,4.748
	c11.296-0.766,20.958-3.698,28.988-8.796c6.031-3.832,10.862-8.764,14.495-14.794c3.564-5.932,5.73-12.579,6.496-19.942
	C251.566,349.251,250.317,339.922,246.752,331.125z"/>
</svg>
