<?xml version="1.0" encoding="utf-8"?>
<!-- Generator: Adobe Illustrator 16.0.0, SVG Export Plug-In . SVG Version: 6.00 Build 0)  -->
<!DOCTYPE svg PUBLIC "-//W3C//DTD SVG 1.1//EN" "http://www.w3.org/Graphics/SVG/1.1/DTD/svg11.dtd">
<svg version="1.1" id="图层_1" xmlns="http://www.w3.org/2000/svg" xmlns:xlink="http://www.w3.org/1999/xlink" x="0px" y="0px"
	 width="359px" height="600px" viewBox="0 0 359 600" enable-background="new 0 0 359 600" xml:space="preserve">
<path d="M356.521,146.875c-0.567-1.3-2.35-3.033-5.35-5.199c-2.871-2.125-5.778-3.788-8.724-4.998
	c-0.317-0.997-0.691-1.966-1.125-2.905c3.746-2.228,5.828-3.815,6.199-4.745c0.167-0.4,0.101-0.783-0.2-1.15
	c-0.566-0.766-2.649-1.649-6.249-2.649c-3.029-0.857-5.793-1.448-8.316-1.799c-5.405-4.074-12.636-7.013-21.688-8.818
	c-7.114-12.625-15.223-23.391-24.336-32.275c-12.898-12.565-24.764-21.18-35.595-25.846c-4.333-1.833-8.065-2.833-11.198-3
	c-2.832-0.133-4.749,0.45-5.749,1.75c-0.8,1-1.2,2.733-1.2,5.199c0.033,2.433,0.434,5.849,1.2,10.248
	c0.8,4.633,0.816,11.765,0.05,21.396c-0.688,8.854-1.871,17.336-3.544,25.451c-0.635-3.124-1.45-6.16-2.454-9.104
	c-1.257-3.677-2.496-6.359-3.722-8.096c-0.961-5.929-3.819-11.612-8.587-17.048c0-0.119,0.016-0.229,0.01-0.352
	c-0.133-2.833-0.083-5.532,0.15-8.099c0.267-2.666,0.666-4.683,1.199-6.049c1.1-2.899,2.949-5.632,5.549-8.199
	c2.033-2,4.967-4.316,8.799-6.949c7.166-4.866,11.365-11.648,12.598-20.347c1.268-8.699-0.549-18.664-5.449-29.895l-1.1-1.8
	l-1.6-1.3c-1.033-0.433-2.149-0.417-3.35,0.05c-1.133,0.534-1.883,1.333-2.249,2.4c-0.399,1.2-0.3,2.6,0.3,4.199
	c3.533,9.532,4.783,17.697,3.75,24.496c-1,6.666-4.166,11.831-9.499,15.498c-4.267,2.933-7.665,5.849-10.198,8.748
	c-2.6,3-4.499,6.232-5.699,9.699c-0.833,2.399-1.3,5.549-1.399,9.448c-0.012,0.342-0.011,0.675-0.018,1.013
	c-4.521-3.199-9.526-5.461-15.03-6.762c-4.907-1.135-9.9-1.44-14.977-0.938c-1.209-1.092-2.854-2.391-4.97-3.911
	c-4.699-3.399-7.815-4.816-9.349-4.25c-1.466,0.567-2.766,3.683-3.899,9.349c-0.37,1.921-0.645,3.577-0.827,4.975
	c-2.778,1.654-5.668,3.894-8.671,6.723c-3.442,3.191-6.065,6.264-7.891,9.22c-3.439-0.655-6.826-0.913-10.156-0.722
	c-3.866,0.233-10.398,1.633-19.597,4.199c-7.065,1.966-13.848,3.299-20.347,3.999c-8.032,0.833-16.514-3.033-25.446-11.598
	C58.47,78.37,52.371,69.322,48.271,58.99c-0.433-1.133-1.267-1.983-2.5-2.55l-3.6-0.15c-1.066,0.433-1.799,1.333-2.2,2.7
	c-0.366,1.3-0.316,2.533,0.15,3.699c4.366,11.165,11.015,21.163,19.946,29.995c10.765,10.698,21.463,15.498,32.095,14.397
	c3.799-0.4,7.866-1.116,12.198-2.149l10.348-2.75c7.632-2.133,13.415-3.283,17.347-3.45c2.123-0.09,4.295,0.022,6.509,0.307
	c-1.965,5.122-2.959,12.003-2.959,20.689c-0.033,8.432,0.833,17.23,2.6,26.396c1.233,6.432,1.917,13.248,2.05,20.447
	c0.073,4.03-0.016,7.541-0.261,10.545c-0.15,0.106-0.322,0.217-0.484,0.325c-7.083-1.238-15.649-6.006-25.701-14.32
	c-9.532-7.898-17.63-16.53-24.296-25.896c-5.532-7.832-9.198-13.748-10.998-17.747c-1.433-3.199-2.066-6.299-1.9-9.298
	s-0.517-5.016-2.049-6.049c-2.1-1.367-5.866-0.783-11.298,1.75c-2.633,1.267-6.799,5.132-12.498,11.598
	c-6.465,7.432-12.781,15.964-18.947,25.596c-7.399,11.631-13.398,22.696-17.997,33.194c-6.465,14.764-10.515,29.012-12.148,42.743
	c-2.5,21.063-2.1,38.593,1.2,52.591c2.233,9.465,5.366,16.197,9.398,20.197c2.267,2.266,3.799,3.1,4.6,2.5
	c0.433-0.333,0.517-1.2,0.25-2.6c-0.2-1.133-0.583-2.399-1.15-3.799c-1.459-3.655-2.585-8.188-3.388-13.57
	c2.846-6.185,6.204-12.079,10.087-17.675c6.931-9.946,13.964-16.309,21.098-19.095c-1.16,4.227-1.739,8.671-1.701,13.346
	c0.011,2.075,0.181,4.047,0.487,5.93c-2.16,10.913-2.658,16.843-1.487,17.766c0.566,0.434,1.85,0.167,3.849-0.8l4.489-2.498
	c0.885,0.957,1.851,1.861,2.896,2.714c-0.038,2.326,0.163,5.047,0.614,8.182c0.667,4.566,1.466,7.432,2.399,8.598
	c0.4,0.467,0.816,0.7,1.25,0.7c1.291,0,4.903-3.498,10.822-10.47c0.62,0.096,1.235,0.17,1.842,0.212
	c0.862,2.432,1.931,4.917,3.232,7.458c1.767,3.466,3.266,5.516,4.5,6.149l2.05,0.05c1.066-0.6,2.25-3.516,3.549-8.749l2.253-10.988
	c3.006-2.844,5.972-6.743,8.895-11.708c6.466-10.865,12.698-19.547,18.697-26.046c2.814-3.064,5.629-5.733,8.443-8.031l3.405,2.732
	c1.137,0.951,2.102,1.842,2.916,2.68l-3.865,13.567c-3.666,13.498-6.532,24.663-8.599,33.495c-2.729,11.639-4.8,22.066-6.23,31.313
	c-2.458,3.978-4.471,8.793-6.018,14.479c-1.966,7.132-2.949,14.348-2.949,21.646c0,8.765,1.316,17.28,3.949,25.546
	c2.299,7.165,5.333,13.48,9.099,18.946c2.934,4.245,6.01,8.023,9.22,11.36c-0.243,11.185,1.616,24.778,5.578,40.781
	c5.132,20.729,12.748,40.06,22.846,57.99c12.498,22.196,27.929,40.977,46.292,56.341c23.963,20.03,51.559,32.895,82.787,38.594
	l4.85,0.499l8.248,0.301c2.967-0.067,4.683-0.434,5.148-1.101c0.567-0.8-0.399-2.166-2.898-4.099
	c-9.232-7.199-18.014-16.281-26.346-27.246c-9.666-12.798-17.547-26.745-23.646-41.843c-15.272-37.802-17.608-77.68-7.023-119.628
	c4.997-2.382,9.58-5.156,13.723-8.351c0.529-0.408,1.044-0.844,1.563-1.269c2.405,2.104,7.873,6.318,16.433,12.667
	c10.466,7.698,17.631,12.798,21.497,15.297c2.291,1.456,5.015,2.435,8.156,2.952c0.127,0.146,0.273,0.295,0.442,0.447
	c1.8,1.633,5.466,3.533,10.998,5.699c4.732,1.866,9.082,3.3,13.048,4.299l2.85,0.051c0.267-0.3,0.233-1.333-0.1-3.1
	c-0.333-1.604-1.144-3.821-2.405-6.618c1.55,0.903,3.238,1.825,5.104,2.769c3.1,1.6,5.482,2.666,7.148,3.199
	c1.6,0.533,2.6,0.684,3,0.45c0.3-0.2,0.433-0.85,0.399-1.949c-0.116-2.973-1.062-6.405-2.835-10.296
	c1.008,0.503,2.146,1.003,3.436,1.497c2.532,0.967,4.832,1.616,6.898,1.949c1.5,0.233,0.95-2.549-1.649-8.349
	c-2.358-5.224-4.569-8.261-6.633-9.127c-1.366-5.227-6.979-11.331-16.863-18.318c-3.733-2.666-7.599-5.1-11.599-7.299
	c-2.569-1.422-4.392-2.33-5.467-2.725c11.804-9.624,18.404-22.389,19.765-38.318c1.333-15.23-2.883-28.795-12.647-40.693
	c-7.337-8.992-17.608-16.795-30.795-23.417c-0.31-0.744-0.624-1.488-0.95-2.229c-3.466-7.865-7.982-15.631-13.548-23.296
	c-2.933-4.1-6.799-8.865-11.598-14.298l-1.7-1.95c-3.966-4.666-7.965-11.631-11.998-20.896c-1.579-3.599-2.956-7.142-4.161-10.637
	c0.318-2.761,1.599-5.96,3.861-9.609c3.1-4.966,6.966-8.715,11.599-11.248c4.032-2.233,7.598-3.383,10.697-3.45
	c4.866-0.167,10.266,1.767,16.197,5.799l1.15,0.55l0.8-1.15c1.399-3.333,3.1-6.532,5.099-9.598c3-4.633,5.732-7.132,8.199-7.499
	c3.133-0.5,7.383,1.267,12.748,5.299c4.639,3.495,10.34,8.865,17.073,16.063c0.735,2.88,1.261,4.797,1.573,5.734
	c0.7,2.133,1.417,3.149,2.149,3.049c0.634-0.066,1.117-0.867,1.45-2.399c0.434-2,0.7-5.416,0.8-10.249
	c0.095-6.477-0.402-13.166-1.475-20.062c1.634-0.457,3.132-1.036,4.505-1.73c9.021,1.598,14.048,1.999,15.066,1.196l0.4-0.8
	c0.063-1.011-2.079-4.542-6.417-10.583c0.22-0.647,0.414-1.313,0.571-2.005c8.378-1.082,12.834-2.118,13.345-3.108
	C356.687,147.775,356.687,147.375,356.521,146.875z"/>
</svg>
