<?xml version="1.0" encoding="utf-8"?>
<!-- Generator: Adobe Illustrator 16.0.0, SVG Export Plug-In . SVG Version: 6.00 Build 0)  -->
<!DOCTYPE svg PUBLIC "-//W3C//DTD SVG 1.1//EN" "http://www.w3.org/Graphics/SVG/1.1/DTD/svg11.dtd">
<svg version="1.1" id="图层_1" xmlns="http://www.w3.org/2000/svg" xmlns:xlink="http://www.w3.org/1999/xlink" x="0px" y="0px"
	 width="274px" height="313px" viewBox="0 0 274 313" enable-background="new 0 0 274 313" xml:space="preserve">
<path d="M272.652,296.943c-0.834-3.396-1.814-5.459-2.947-6.191c-1.631-0.998-3.328-1.83-5.094-2.496
	c-8.189-3.195-13.981-5.943-17.377-8.24c-7.258-4.927-11.303-10.936-12.135-18.026c-0.166-1.397-0.166-2.597,0-3.595l0.748-2.646
	l1.698-5.294c0.599-2.931,0.748-6.541,0.449-10.836c-0.699-9.421-1.933-18.659-3.695-27.716c-1.249-6.422-2.635-11.769-4.153-16.061
	c1.133-0.607,2.332-1.324,3.604-2.166c5.293-3.629,9.504-7.507,12.633-11.635c3.464-4.627,5.761-9.805,6.892-15.529
	c1.832-9.322,1.017-19.875-2.445-31.66c-2.516-8.53-5.507-15.397-8.965-20.642c2.359-1.85,4.781-4.195,7.267-7.073
	c3.962-4.594,7.79-10.137,11.485-16.629c3.795-6.658,6.773-13.682,8.938-21.073c2.862-9.887,4.028-19.658,3.495-29.313
	c-0.532-9.521-1.897-17.162-4.094-22.921c-2.197-5.66-5.312-9.754-9.339-12.284c-4.719-2.942-11.201-3.412-19.438-1.426
	c-0.156-1.98-0.451-3.039-0.887-3.168c-0.895-0.259-2.857,1.509-5.881,5.285l-4.207,1.606c-8.156,3.429-16.296,8.306-24.418,14.631
	c-8.689,6.792-16.746,14.765-24.17,23.919c-7.324,9.055-13.434,18.61-18.326,28.664c-4.08,8.36-6.706,15.796-7.9,22.323
	c-2.018-1.428-4.273-2.565-6.781-3.397c-2.33-0.799-4.743-1.282-7.239-1.448h-1.698c0.23-1.391,0.365-2.904,0.398-4.544
	c0.033-2.597-0.516-5.094-1.647-7.491c-0.884-1.877-2.107-3.585-3.632-5.143c0.843-1.299,1.511-2.678,1.984-4.146
	c1.065-3.329,0.749-6.342-0.949-9.039c-3.829-6.159-9.821-16.812-17.977-31.959c-1.365-2.497-2.93-3.612-4.694-3.346
	c-1.398,0.2-2.347,1.781-2.846,4.744l-2.248,21.173l-0.917,8.898c-1.807,0.014-3.547,0.107-5.225,0.277
	c-3.313-6.207-9.054-13.709-17.228-22.509C72.106,26.27,61.786,19.262,52.731,17.798c-6.591-1.065-11.885,0.399-15.879,4.395
	c-4.728,4.728-7.091,11.951-7.091,21.672c0,5.058,0.613,10.367,1.826,15.921L6.591,41.97c-2.497-1.798-4.411-2.181-5.743-1.149
	c-0.532,0.4-0.815,1.082-0.849,2.048c-0.033,1.032,0.216,2.147,0.749,3.346c26.932,52.433,41.081,79.565,42.446,81.396
	c1.032,1.398,3.113,2.247,6.242,2.546c2.962,0.267,5.875,0,8.739-0.799c0.572-0.115,1.109-0.257,1.662-0.387l0.685,1.186
	c1.166,1.798,2.497,3.512,3.995,5.144c4.794,5.193,10.387,8.672,16.778,10.438c0.36,0.101,0.726,0.183,1.091,0.27
	c-0.655,2.414-1.119,5.7-1.39,9.867c-0.419,6.158-0.208,12.161,0.622,18.006c-0.093,0.105-0.19,0.212-0.272,0.32
	c-0.366,0.466-0.866,1.615-1.498,3.445l-0.699,1.647c-0.366,0.634-1.598,1.515-3.695,2.646l-3.795,1.998
	c-1.498,0.933-2.447,1.848-2.846,2.746c-0.333,0.666-0.815,2.879-1.448,6.642l-1.848,11.636c-0.999,5.025-2.414,9.089-4.245,12.186
	c-2.297,3.961-4.111,8.09-5.443,12.384c-1.298,4.161-1.948,7.823-1.948,10.985c0,2.664,0.35,4.762,1.049,6.293l2.896,5.741
	c0.999,2.164,1.498,3.962,1.498,5.394c0,0.967-0.167,1.832-0.5,2.598c-1.231,2.663-4.194,6.99-8.889,12.982
	c-14.515,8.022-22.039,14.166-22.571,18.428c-0.366,2.963-0.167,6.092,0.599,9.388c0.832,3.528,1.914,5.293,3.246,5.293
	c0.633,0,4.028-3.612,10.187-10.836c6.592-7.823,11.485-12.551,14.681-14.183c5.926-3.063,12.601-5.409,20.024-7.041
	c1.465-0.299,2.031-1.364,1.698-3.195c-0.366-1.998-1.798-4.344-4.295-7.041c-1.698-1.831-2.863-3.596-3.495-5.293
	c-1.099-2.93-1.249-6.607-0.45-11.036c0.433-2.464,1.531-5.159,3.296-8.09l4.294-6.642c1.465-2.43,2.463-4.645,2.996-6.642
	c0.533-2.163,0.916-5.427,1.148-9.788c0.133-2.828,0.067-6.274-0.2-10.337c-0.2-3.629-0.233-5.709-0.1-6.241l0.299-0.898
	l1.099-3.096c0.366-1.299,0.433-2.646,0.2-4.045c-0.333-1.933-0.25-3.529,0.25-4.795c0.32-0.84,0.83-1.465,1.487-1.92
	c0.754,2.164,1.603,4.129,2.558,5.864c3.459,6.362,8.611,10.328,15.451,11.905c0.414,5.252,1.651,10.191,3.725,14.813
	c2.051,4.576,4.77,8.525,8.148,11.855c-0.563,4.564-1.148,10.539-1.756,17.955c-1.365,16.379-1.215,24.769,0.45,25.167
	c1.798,0.434,6.059-3.429,12.784-11.584c5.808-7.097,11.02-14.8,15.641-23.104c7.233-1.137,14.138-4.402,20.713-9.805
	c9.021-7.324,15.114-16.662,18.276-28.016c1.619-5.748,2.311-11.567,2.087-17.455l0.608,0.678c2.197,2.264,4.545,4.361,7.041,6.292
	c7.623,5.917,15.26,9.123,22.912,9.635c0.119,2.619,0.684,5.611,1.707,8.991c0.998,3.361,1.115,8.189,0.35,14.48l-0.748,5.095
	c-0.268,1.964-0.383,3.444-0.351,4.444c0.101,1.931,0.981,4.844,2.646,8.737l4.744,10.188l2.746,6.242
	c1.198,2.93,1.715,5.592,1.549,7.988c-0.166,2.432-1.049,4.846-2.646,7.241l-0.648,0.897l-3.496,5.494
	c-1.064,1.931-1.465,3.361-1.197,4.293c0.133,0.4,0.564,0.767,1.298,1.101c0.832,0.397,1.832,0.582,2.996,0.549l5.942-0.05
	l7.091,0.799c2.896,0.833,5.942,2.313,9.139,4.443l7.541,5.894l4.693,4.396c1.497,1.397,2.847,2.164,4.045,2.297
	c1.299,0.166,2.979,0.932,5.044,2.297c1.831,1.199,3.462,2.514,4.895,3.945c1.465,1.465,2.396,2.131,2.797,1.996
	c0.432-0.133,0.666-1.215,0.699-3.244C273.9,304.234,273.518,300.473,272.652,296.943z M112.867,61.522
	c0.645-2.374,1.225-4.631,1.736-6.769c1.045,2.479,2.218,5.105,3.512,7.869C116.759,62.16,115.005,61.794,112.867,61.522z"/>
</svg>
