<?xml version="1.0" encoding="utf-8"?>
<!-- Generator: Adobe Illustrator 16.0.0, SVG Export Plug-In . SVG Version: 6.00 Build 0)  -->
<!DOCTYPE svg PUBLIC "-//W3C//DTD SVG 1.1//EN" "http://www.w3.org/Graphics/SVG/1.1/DTD/svg11.dtd">
<svg version="1.1" id="图层_1" xmlns="http://www.w3.org/2000/svg" xmlns:xlink="http://www.w3.org/1999/xlink" x="0px" y="0px"
	 width="299px" height="417px" viewBox="0 0 299 417" enable-background="new 0 0 299 417" xml:space="preserve">
<path d="M263.204,237.15c0.499,2.166,1.698,3.781,3.597,4.847c1.633,0.933,3.48,1.282,5.546,1.049
	c0.8,2.731,1.981,4.513,3.547,5.346c2.464,1.332,5.778,1.198,9.941-0.399c1.999-0.732,4.196-2.881,6.595-6.445
	c2.031-2.997,3.664-6.095,4.896-9.292c0.599-1.565,0.898-3.464,0.898-5.695c0-2.765-0.3-5.528-0.898-8.293
	c-0.6-2.798-1.333-4.779-2.199-5.944c-2.598-3.531-6.91-6.878-12.939-10.042c-6.127-2.831-9.941-4.763-11.439-5.795
	c-1.998-1.365-6.545-6.261-13.639-14.688c-6.262-7.427-11.024-13.372-14.288-17.835c-2.397-3.264-4.68-7.727-6.845-13.389
	c-1.598-4.171-2.801-8.144-3.65-11.94c0.999-3.25,1.983-6.857,2.951-10.841c1.299-5.429,0.55-11.224-2.248-17.385
	c-2.831-6.195-6.161-9.142-9.992-8.843c-1.798,0.133-4.046,0.633-6.744,1.499l-5.845,2.148l-1.898,0.65
	c-1.332-0.367-2.548-1.349-3.647-2.948c2.898,0.2,7.028-0.716,12.391-2.748c2.397-0.933,4.129-2.065,5.195-3.397
	c1.133-1.398,2.198-3.797,3.197-7.194c3.031-0.966,5.462-2.182,7.294-3.647c1.865-1.499,3.313-3.43,4.347-5.795
	c1.065-2.398,1.465-6.095,1.199-11.091c-0.268-5.795-0.184-9.775,0.249-11.94c0.999-0.833,2.099-1.999,3.298-3.497
	c1.266-1.599,2.197-3.014,2.797-4.247c0.533-1.132,0.75-2.548,0.65-4.246c-0.167-2.665-1.166-5.712-2.998-9.143
	c0.1-2.332,0.899-5.329,2.398-8.992c1.165-2.898,2.197-4.996,3.098-6.295l1.598-2.648c0.367-0.966,0.367-1.865,0-2.698
	c-1.133-2.531-3.014-4.779-5.645-6.744c-2.166-1.599-4.063-2.581-5.695-2.948c-2.199-0.466-3.681,0.566-4.447,3.098l-1.248,3.947
	c-0.3,0.766-1.1,1.615-2.398,2.548c-1.432,1.032-2.864,1.698-4.297,1.998c-7.526-4.43-16.119-6.395-25.777-5.895
	c-6.395,0.3-12.057,1.465-16.986,3.497c-1.932-2.098-3.363-4.563-4.297-7.394c-0.898-2.731-1.864-4.596-2.896-5.595
	c-1.133-1.099-4.014-1.699-8.643-1.799c-4.264-0.1-7.295,0.183-9.093,0.85c-1.099,0.433-1.882,0.816-2.349,1.149
	c-0.633,0.5-1.115,1.232-1.448,2.198c-0.433,1.332-0.333,2.548,0.3,3.647l2.248,3.097l3.746,6.045
	c1.533,2.698,2.615,5.163,3.248,7.394c0.732,2.564,0.467,6.444-0.799,11.64l-4.496,15.337c-1.865,6.062-2.766,10.541-2.698,13.439
	c0.033,3.164,1.183,6.261,3.446,9.292c1.566,2.132,4.73,4.446,9.492,6.944c1.111,0.585,2.214,1.134,3.31,1.65
	c-2.055,2.125-3.358,4.739-3.909,7.842c-0.255,1.609-0.309,3.256-0.205,4.934c-4.551-0.34-8.316,0.706-11.285,3.159
	c-2.531,2.132-4.047,5.112-4.546,8.942c-0.493,3.61-0.002,7.61,1.447,11.992c-1.142,2.073-2.65,4.975-4.544,8.741l-12.24,17.835
	c-2.015,2.863-3.8,5.45-5.371,7.779c-0.999-5.037-2.287-11.833-3.871-20.418c-2.531-13.289-4.83-22.781-6.895-28.477
	c-4.463-12.223-11.94-21.931-22.431-29.125c-12.189-8.359-26.178-11.44-41.964-9.242c-8.493,1.199-16.437,4.213-23.83,9.042
	c-7.294,4.763-13.556,10.974-18.784,18.634c-4.83,7.094-8.41,15.354-10.741,24.779c-2.231,9.059-3.131,18.501-2.698,28.326
	c1.066,23.713,5.979,45.246,14.738,64.596c7.56,16.752,16.453,28.976,26.678,36.669c4.862,3.63,9.958,5.712,15.287,6.245
	c5.362,0.566,9.592-0.55,12.689-3.348c3.664-3.33,5.512-7.859,5.545-13.588c0-6.129-2.148-12.723-6.444-19.784
	c-2.132-3.53-4.879-7.511-8.243-11.94l-8.193-10.591l-9.742-12.939c-3.464-4.896-6.261-9.525-8.393-13.888
	c-5.462-11.157-8.209-24.313-8.243-39.467c-0.1-24.247,7.26-40.316,22.081-48.209c3.664-0.799,6.878-0.85,9.642-0.15
	c2.897,0.732,6.411,2.581,10.541,5.545c11.224,8.16,18.335,19.767,21.332,34.821c2.099,10.458,2.465,26.377,1.099,47.76
	c-1.665,27.144-0.833,48.726,2.498,64.745c0.215,1.037,0.462,2.036,0.698,3.049l-5.444,7.143c-1.299,1.6-1.948,3.23-1.948,4.896
	c-0.033,1.166,0.399,3.396,1.299,6.694c1.299,4.729,2.515,8.159,3.647,10.292c1.532,2.863,3.464,4.762,5.795,5.694
	c3.098,1.232,5.845,1.532,8.243,0.899c1.171-0.33,2.24-0.882,3.207-1.653c6.045,8.219,13.539,14.688,22.482,19.404l0.14,0.284
	c1.266,2.598,1.898,4.33,1.898,5.195c0,7.395-1.016,16.236-3.047,26.527c-2.032,10.258-4.53,19.185-7.494,26.777l-8.343,19.334
	l-3.797,10.191c-1.499,3.931-2.814,6.328-3.947,7.194l-5.895,4.546c-1.932,1.766-3.447,3.83-4.546,6.195
	c-1.333,2.931-1.715,5.795-1.149,8.593c0.466,2.165,1.349,3.913,2.648,5.245c4.163,4.297,9.608,5.745,16.336,4.347
	c2.265-0.433,4.28-1.282,6.045-2.548c1.698-1.232,2.98-2.697,3.847-4.396l5.545-1.249l4.796-0.549
	c2.931,2.73,7.111,3.746,12.54,3.047c3.497-0.466,6.262-1.565,8.293-3.297c2.564-2.165,3.78-5.229,3.646-9.192
	c-0.166-4.063-2.73-7.428-7.693-10.092l-0.1-0.549c-0.348-1.611-0.64-3.29-0.894-5.015c2.897-1.52,4.753-3.903,5.54-7.176
	c0.633-2.631,0.566-4.962-0.2-6.994s-1.948-3.729-3.547-5.096c-0.92-0.762-1.855-1.311-2.805-1.681
	c0.216-10.07,2.019-20.763,5.452-32.091c2.678-8.828,6.27-17.816,10.742-26.958c0.699,0.077,1.4,0.172,2.098,0.23
	c10.824,0.898,22.764-0.283,35.819-3.547c1.902-0.482,3.782-1.075,5.642-1.771c1.721,1.856,3.173,4.143,4.35,6.867
	c1.6,3.697,2.398,7.443,2.398,11.24c0,3.397-0.666,7.127-1.998,11.19c-0.267,0.833-0.916,2.015-1.949,3.548l-2.098,3.347
	c-0.6,1.266-0.933,2.481-0.999,3.647l0.05,3.297c-1.998,2.265-2.897,4.862-2.697,7.793c0.166,1.998,0.648,3.547,1.448,4.646
	c1.932,2.664,4.313,4.279,7.144,4.846c2.799,0.566,5.762,0.033,8.893-1.599c1.932,0.3,5.246,3.131,9.942,8.493
	c3.33,3.797,6.528,7.826,9.592,12.09c1.532,2.164,3.88,3.764,7.044,4.796c2.932,0.966,6.877,1.565,11.84,1.798
	c6.063,0.268,10.875-0.466,14.438-2.197c2.832-1.399,4.33-3.031,4.497-4.896c4.729,0.4,8.31-0.433,10.741-2.498
	c2.064-1.799,3.146-4.029,3.247-6.693c0.066-1.633-0.366-3.231-1.3-4.797c-0.898-1.531-2.147-2.781-3.746-3.746
	c-1.699-1.033-3.68-1.566-5.945-1.6c-2.197-0.033-4.213,0.416-6.045,1.35l-10.291-6.195l-12.439-8.043l-6.096-3.847
	c-4.828-3.164-7.859-5.279-9.092-6.345c-2.998-2.564-4.662-5.213-4.996-7.943c-0.366-2.697-0.549-6.111-0.549-10.242
	c0-8.025,2.015-14.754,6.045-20.183c4.43-5.929,7.576-11.374,9.441-16.336c2.798-7.294,4.197-16.103,4.197-26.428
	c0-3.265-0.167-6.545-0.5-9.842c-1.199-12.19-4.363-23.214-9.492-33.072c-4.079-7.836-8.982-14.087-14.684-18.81
	c-0.729-1.229-1.476-2.468-2.252-3.722c-3.497-5.628-5.596-10.391-6.295-14.288c-0.64-3.38-0.363-7.028,0.807-10.938
	c0.371-0.249,0.744-0.587,1.119-1.015c1.125,2.912,2.377,5.942,3.77,9.104c1.998,4.63,3.631,8.027,4.896,10.191
	c1.198,2.099,3.629,5.412,7.293,9.942c3.33,4.13,6.911,8.36,10.741,12.689l7.144,7.543l3.797,3.997l0.699,1.099l0.551,1.399
	c0.332,2.896,0.799,5.045,1.398,6.444c0.566,1.299,1.648,2.765,3.247,4.396l0.249,1.85l-2.348,3.297
	C262.988,233.371,262.738,235.252,263.204,237.15z M237.073,59.526c-0.049-0.206-0.102-0.405-0.155-0.601
	c0.088-0.091,0.17-0.184,0.258-0.275C237.136,58.838,237.103,59.148,237.073,59.526z M163.638,142.561
	c3.884,10.489,6.186,17.098,6.894,19.803c2.498,9.192,2.682,16.236,0.551,21.132c-1.239,2.878-2.43,5.217-3.573,7.04
	c-0.764,0.329-1.537,0.724-2.322,1.204c-2.38,1.455-4.699,3.094-6.965,4.899c-3.324,0.23-6.682-0.899-10.071-3.4
	c-2.964-2.165-5.279-4.729-6.944-7.694c-0.925-1.636-1.83-3.568-2.714-5.789c0.667-2.199,1.272-3.919,1.814-5.152
	c1.965-4.496,5.895-10.658,11.791-18.484C156.349,150.465,160.194,145.951,163.638,142.561z M182.571,90.072
	c0.17,0.998,0.32,2.128,0.45,3.399c0.333,3.297,0.333,5.528,0,6.694c-1.263-0.621-2.483-1.167-3.677-1.666
	C179.147,95.083,180.226,92.275,182.571,90.072z M158.844,65.157c0.179,1.329,0.444,2.582,0.812,3.745
	C159.234,67.676,158.965,66.428,158.844,65.157z M159.823,69.383c-0.047-0.125-0.09-0.251-0.135-0.377
	C159.73,69.134,159.779,69.256,159.823,69.383z M154.423,110.452c-0.002,0.139-0.011,0.274-0.009,0.416
	C154.415,110.729,154.418,110.59,154.423,110.452z M154.422,111.343c0.068,1.697,0.375,3.52,0.909,5.463
	c-0.003,0.004-0.007,0.01-0.01,0.014C154.757,114.914,154.458,113.088,154.422,111.343z"/>
</svg>
