<?xml version="1.0" encoding="utf-8"?>
<!-- Generator: Adobe Illustrator 16.0.0, SVG Export Plug-In . SVG Version: 6.00 Build 0)  -->
<!DOCTYPE svg PUBLIC "-//W3C//DTD SVG 1.1//EN" "http://www.w3.org/Graphics/SVG/1.1/DTD/svg11.dtd">
<svg version="1.1" id="图层_1" xmlns="http://www.w3.org/2000/svg" xmlns:xlink="http://www.w3.org/1999/xlink" x="0px" y="0px"
	 width="190px" height="174px" viewBox="0 0 190 174" enable-background="new 0 0 190 174" xml:space="preserve">
<path d="M186.096,94.119c-1-6.429-3.197-11.69-6.595-15.787c-2.731-3.297-6.378-5.961-10.94-7.993
	c-7.594-3.397-16.402-1.648-26.428,5.246c-9.791,6.694-19.966,17.768-30.523,33.221c-4.396,6.395-8.026,11.424-10.891,15.087
	c-2.831,3.631-6.228,7.577-10.191,11.84c-0.161,0.172-0.333,0.326-0.497,0.493c-0.703-0.6-1.428-1.21-2.201-1.842l-1.249-1.05
	c-7.127-5.895-12.789-10.973-16.985-15.236c-3.697-3.697-5.612-6.078-5.745-7.144c-0.2-1.532-0.333-4.479-0.4-8.843l-0.031-3.876
	c2.01-1.027,3.773-2.182,5.277-3.468c1.765-1.498,3.397-3.414,4.896-5.744c2.098-3.298,4.596-6.278,7.493-8.943
	c1.337-1.24,3.177-2.722,5.508-4.441l1.636,3.492c0.6,1.432,1.049,3.53,1.349,6.294l-0.3,2.448c-0.266,1.532-0.35,2.598-0.25,3.197
	c0.133,0.999,0.649,1.615,1.549,1.849c0.799,0.199,1.765-0.117,2.897-0.949l0.15-0.101c1.032,1.898,2.231,2.715,3.597,2.448
	c0.767-0.166,1.366-0.633,1.798-1.398l0.75-1.998v-0.201h0.05c2.032,0.5,3.28,0.051,3.747-1.348c0.232-0.666,0.166-1.383-0.2-2.148
	l-1.749-2.398l-1.248-1.599c-0.434-0.899-0.783-3.497-1.049-7.793c-0.17-2.62-0.286-5.358-0.35-8.209
	c1.366-0.878,2.794-1.787,4.296-2.731l8.424-5.108c1.283,2.322,3.049,4.312,5.314,5.957c4.529,3.331,10.291,4.529,17.284,3.597
	c4.664-0.632,8.609-2.897,11.84-6.794c2.032-2.464,3.581-5.279,4.646-8.443c3.598-1.599,6.378-3.963,8.343-7.094
	c2.099-3.331,3.147-7.377,3.147-12.14c0-3.43-0.467-6.578-1.398-9.442c-0.699-2.165-1.549-3.93-2.549-5.295
	c1.533-2.031,2.465-4.163,2.799-6.395c0.299-1.898,0.365-3.88,0.199-5.945c-0.166-1.965-0.449-3.164-0.85-3.597
	c-0.499-0.533-1.531-0.916-3.098-1.149c-2.131-0.333-4.795-0.267-7.992,0.2c-2.864,0.399-5.046,0.899-6.545,1.499
	c-4.596-3.197-11.257-4.629-19.982-4.296c-7.027,0.3-12.955,1.832-17.785,4.596c-4.195-1.299-8.192-2.131-11.989-2.498
	c-4.196-0.399-6.761-0.066-7.693,1c-0.833,0.999-1.266,3.314-1.299,6.944c-0.033,3.297,0.233,6.561,0.799,9.792
	c0.386,1.989,1.465,4.832,3.227,8.515c-1.547,1.202-3.217,2.426-5.025,3.674c-7.494,5.196-14.071,8.393-19.733,9.592l-7.843,1.499
	c-7.927,1.399-13.622,2.748-17.085,4.047c-5.961,2.198-10.524,5.495-13.688,9.892c-3.098,4.263-5.096,8.909-5.995,13.938
	c-0.833,4.629-0.783,9.842,0.15,15.637c0.5,3.164,0.716,5.646,0.649,7.444c-0.066,2.23-0.516,4.762-1.349,7.593l-3.847,11.939
	c-1.798,4.896-3.88,9.559-6.245,13.988c-2.598,4.862-4.646,9.874-6.145,15.037c-2.298,7.96-2.498,14.221-0.599,18.784
	c0.766,1.864,1.832,3.246,3.197,4.146c1.432,0.932,3.014,1.215,4.746,0.849l0.6,0.55c0.466,0.399,0.899,0.649,1.299,0.749
	c2.498,0.566,4.513-0.216,6.045-2.348c0.966-0.167,1.615-0.399,1.948-0.7c3.064-2.631,5.012-7.41,5.845-14.337
	c0.366-3.164,0.5-8.593,0.399-16.286l-0.05-6.895v-4.396l0.449-3.847c0.433-2.697,1.399-6.278,2.898-10.741
	c1.565-4.596,2.731-7.243,3.497-7.942l0.526-0.373l-0.026,0.373c-0.167,6.561,0.25,12.738,1.249,18.533
	c3.164,18.418,11.574,29.392,25.229,32.922c8.722,2.233,16.293,2.457,22.725,0.691c1.205,1.583,2.291,2.873,3.253,3.854
	c2.797,2.864,5.412,4.33,7.843,4.396c0.699,0.033,1.432-0.149,2.198-0.55c0.866-0.433,1.448-1.032,1.748-1.799
	c0.933-0.199,1.549-0.449,1.849-0.748c0.699-0.633,1.148-1.383,1.349-2.249l0.101-1.099c1.664-2.498,1.099-5.629-1.699-9.393
	c-0.49-0.667-1.076-1.379-1.747-2.13c3.877-4.107,8.27-9.7,13.188-16.804l3.097-4.496l4.447-6.244l2.197-2.848
	c9.792-12.522,17.436-21.248,22.931-26.177c9.159-8.26,16.802-11.157,22.931-8.693c2.83,1.133,5.278,3.131,7.344,5.995
	c2.197,3.031,3.613,6.611,4.246,10.74c1.099,6.861,0.217,14.121-2.648,21.781c-3.264,8.826-8.643,16.453-16.136,22.881l-1.299,0.05
	l-1.698-0.3c-2.398-0.732-4.264-1.216-5.596-1.449c-2.364-0.433-4.929-0.116-7.693,0.949c-2.098,0.833-4.513,2.232-7.244,4.197
	l-5.944,4.496c-6.994,5.528-12.056,10.225-15.187,14.088c-3.131,3.896-4.18,6.76-3.147,8.592c1.565,2.731,5.429,3.73,11.59,2.998
	c6.128-0.732,12.239-2.914,18.334-6.545c9.958-5.994,17.702-11.457,23.229-16.386c8.993-7.66,15.421-16.686,19.284-27.077
	C186.545,112.985,187.561,103.543,186.096,94.119z M44.303,102.225c2.339,0.186,4.699,0.123,7.082-0.202
	c0.714,4.511,0.99,7.291,0.826,8.332l-0.45,0.499c-1.765,2.199-2.964,4.098-3.597,5.695c-1.232,3.031-0.982,5.629,0.75,7.793
	c1.132,1.466,2.581,2.881,4.346,4.247c1.065,0.833,2.831,2.081,5.295,3.747c2.364,1.531,4.446,2.98,6.245,4.346l5.395,3.797
	l3.759,2.713l-11.852-0.365c-9.958-2.432-15.787-11.189-17.485-26.277C44.094,112.121,44.002,107.335,44.303,102.225z"/>
</svg>
