<?xml version="1.0" encoding="utf-8"?>
<!-- Generator: Adobe Illustrator 16.0.0, SVG Export Plug-In . SVG Version: 6.00 Build 0)  -->
<!DOCTYPE svg PUBLIC "-//W3C//DTD SVG 1.1//EN" "http://www.w3.org/Graphics/SVG/1.1/DTD/svg11.dtd">
<svg version="1.1" id="图层_1" xmlns="http://www.w3.org/2000/svg" xmlns:xlink="http://www.w3.org/1999/xlink" x="0px" y="0px"
	 width="170px" height="208px" viewBox="0 0 170 208" enable-background="new 0 0 170 208" xml:space="preserve">
<path d="M162.806,49.391c-4.128-9.855-9.938-18.528-17.429-26.019c-7.425-7.425-15.965-13.151-25.619-17.18
	C109.869,2.064,99.549,0,88.795,0c-8.823,0-17.896,3.196-27.218,9.588c-2.497,1.731-5.709,4.211-9.638,7.441
	c-3.363,2.764-5.644,4.478-6.842,5.144c-4.262,2.331-7.658,5.776-10.188,10.337c-0.763,1.378-1.365,2.647-1.821,3.816
	c-7.142,1.547-13.479,4.846-19.003,9.917C6.86,52.87,2.465,61.027,0.9,70.715c-1.099,6.858-1.199,14.316-0.3,22.373
	c0.471,4.318,1.443,10.109,2.903,17.326c-0.637,0.607-1.241,1.302-1.805,2.101c-1.165,1.632-1.665,2.93-1.498,3.896
	c0.2,1.099,1.099,2.264,2.697,3.496c0.878,0.702,1.882,1.331,2.997,1.896c1.421,6.866,2.388,12.098,2.896,15.682
	c1.232,8.656,1.565,16.73,0.999,24.221c-0.699,9.156,0.5,18.645,3.596,28.467c3.063,9.821,6.509,15.164,10.337,16.03
	c2.963,0.666,6.942-1.915,11.936-7.741c4.163-4.861,7.282-9.662,9.382-14.403c6.703,3.237,14.408,4.865,23.129,4.865
	c0.899,3.962,2.813,7.891,5.743,11.786c3.662,4.86,7.541,7.258,11.636,7.191c2.33-0.033,4.711-1.365,7.141-3.996
	c2.364-2.529,4.428-5.893,6.193-10.088c0.73-1.755,1.361-3.508,1.899-5.258c0.646,0.146,1.188,0.406,1.597,0.814
	c0.532,0.532,1.447,2.014,2.746,4.443c1.432,2.697,3.029,4.878,4.794,6.543c2.031,1.897,4.079,2.88,6.143,2.946
	c3.796,0.1,7.508-2.763,11.137-8.59c4.062-6.392,6.31-14.149,6.742-23.272c0.299-5.759-0.174-11.134-1.419-16.126
	c1.678-2.39,3.168-5.481,4.465-9.293c1.065-3.097,1.765-6.076,2.098-8.938c0.333-2.73,0.25-4.495-0.25-5.295
	c-0.965-1.564-3.729-2.213-8.289-1.947c-3.415,0.193-7.245,0.859-11.479,1.986c-2.182-2.377-4.596-4.721-7.249-7.03
	c-3.429-2.963-5.926-5.343-7.49-7.142c-2.598-2.963-4.795-6.408-6.592-10.338c-0.388-0.826-0.938-2.694-1.651-5.596
	c1.087-1.244,2.062-2.66,2.899-4.292c1.232-2.431,1.631-4.145,1.198-5.144c-0.466-1.099-1.632-2.031-3.495-2.797
	c-1.131-0.448-2.306-0.736-3.516-0.899c-2.004-9.232-4.227-16.788-6.673-22.622c-8.566-20.592-23.185-30.809-43.848-30.664
	c0.001-0.015-0.001-0.035,0-0.049c0.167-2.331,1.948-4.179,5.344-5.543c2.064-0.833,3.812-1.065,5.244-0.699
	c1.032,0.266,2.464,1.082,4.295,2.447c10.887,8.157,20.525,14.549,28.915,19.177c10.555,5.86,20.992,10.055,31.313,12.585
	c17.679,4.328,30.38,12.218,38.104,23.671c1.632,2.464,3.58,6.143,5.844,11.037c1.432,3.13,2.664,4.711,3.695,4.745
	c1.665,0.033,2.797-2.63,3.396-7.991c0.299-2.863,0.449-7.042,0.449-12.535C169.248,70.599,167.101,59.678,162.806,49.391z"/>
</svg>
