<?xml version="1.0" encoding="utf-8"?>
<!-- Generator: Adobe Illustrator 16.0.0, SVG Export Plug-In . SVG Version: 6.00 Build 0)  -->
<!DOCTYPE svg PUBLIC "-//W3C//DTD SVG 1.1//EN" "http://www.w3.org/Graphics/SVG/1.1/DTD/svg11.dtd">
<svg version="1.1" id="图层_1" xmlns="http://www.w3.org/2000/svg" xmlns:xlink="http://www.w3.org/1999/xlink" x="0px" y="0px"
	 width="215px" height="337px" viewBox="0 0 215 337" enable-background="new 0 0 215 337" xml:space="preserve">
<path d="M209.826,291.633c-3.229-13.418-7.041-25.09-11.434-35.022c3.655-3.839,7.035-9.459,10.133-16.905
	c2.871-6.877,4.79-13.369,5.758-19.479c0.434-2.737,0.334-4.289-0.301-4.656c-0.6-0.334-2.069,0.166-4.406,1.502
	c-11.236,6.229-22.8,8.772-34.686,7.65c-0.039-0.029-0.076-0.061-0.115-0.09c-8.414-6.399-18.853-10.646-31.282-12.779
	c5.91-3.021,11.549-7.115,16.91-12.308c6.51-6.31,9.181-11.032,8.013-14.171c-0.869-2.37-5.826-3.772-14.873-4.206
	c-9.714-0.468-18.277,0.784-25.688,3.755c-2.981,1.2-5.731,2.544-8.263,4.022c2.493-9.367,2.857-18.039,1.052-26.004
	c-0.668-2.938-1.568-5.441-2.704-7.511c-0.935-1.77-1.72-2.704-2.354-2.804c-1.302-0.234-3.188,0.367-5.658,1.803
	c-2.837,1.669-5.458,3.956-7.862,6.86c-6.216,7.51-9.192,16.828-8.935,27.947c-3.987-7.102-7.163-16.021-9.526-26.767
	c4.229,0.255,7.883-0.548,10.95-2.432c3.344-2.019,5.541-5.11,6.619-9.246c2.697-0.082,5.214-0.938,7.552-2.572
	c2.337-1.636,4.106-4.206,5.309-7.711c1.201-3.405,1.803-7.461,1.803-12.168c0-9.053-2.15-16.779-6.409-23.201
	c1.84-0.819,3.775-1.648,5.808-2.487l0.951-0.751l0.101-0.952c-1.836-10.983-5.542-21.599-11.117-31.847
	c-6.042-11.117-13.319-19.913-21.832-26.389c-0.968-0.701-1.569-0.901-1.803-0.601c-0.234,0.301-0.2,1.102,0.1,2.404
	c1.001,3.973,0.451,6.693-1.652,8.162c-1.903,1.335-4.707,1.569-8.413,0.701c-3.539-0.801-6.643-2.237-9.314-4.307
	c-2.904-2.203-5.158-4.874-6.76-8.012c-1.603-3.105-2.103-5.725-1.502-7.862c0.601-1.936,2.103-3.205,4.507-3.806
	c1.436-0.334,2.253-0.651,2.454-0.951c0.267-0.367-0.184-0.918-1.352-1.653c-2.27-1.435-6.459-3.205-12.569-5.308
	c-8.88-3.104-15.005-5.492-18.377-7.161c-7.177-3.572-12.502-7.828-15.974-12.769C11.95,0.518,11.382,0,10.982,0
	c-0.367,0-0.567,0.451-0.601,1.352c-0.267,7.311,0.834,15.373,3.305,24.186c3.939,14.121,10.732,25.788,20.38,35.002
	c5.174,4.94,11.618,8.913,19.329,11.917c3.806,1.469,10.682,3.489,20.63,6.059c10.215,2.604,17.209,4.773,20.981,6.51
	c6.644,3.038,11.217,7.244,13.72,12.619c-0.651,0.543-1.91,1.198-3.754,1.962c-3.221-3.216-7.023-5.677-11.418-7.37
	c-4.54-1.769-9.497-2.654-14.872-2.654c-12.118,0-21.715,4.891-28.792,14.672c-7.077,9.714-10.616,22.8-10.616,39.258
	c0,8.913,1.232,18.886,3.656,29.886c-3.13-1.546-7.013-2.599-11.668-3.146c-4.773-0.6-7.594-0.467-8.462,0.401
	c-0.601,0.601-0.768,2.387-0.5,5.358c0.333,3.538,1.285,7.244,2.854,11.115c4.174,10.327,11.418,18.675,21.721,25.05
	c-10.629-2.051-20.909-1.38-30.834,2.041c-4.574,1.569-8.479,3.522-11.718,5.858c-2.804,2.07-4.239,3.689-4.306,4.857
	c-0.033,0.868,0.667,2.086,2.103,3.656c1.636,1.769,3.789,3.455,6.459,5.057c7.018,4.152,15.445,6.408,25.256,6.805
	c-1.578,1.088-3.112,2.245-4.576,3.511c-7.077,6.108-12.318,13.036-15.723,20.78c-2.971,6.777-3.689,11.501-2.153,14.172
	c0.467,0.801,2.17,1.186,5.108,1.151c3.038-0.033,6.526-0.518,10.465-1.452c10.182-2.504,18.411-6.727,24.687-12.669
	c0.646-0.608,1.271-1.241,1.886-1.887c-1.938,6.005-3.669,13.764-5.191,23.319c-0.935,6.041-1.953,14.07-3.055,24.085l-1.051,10.415
	c-0.067,0.401-0.835,1.42-2.304,3.055c-1.168,1.577-1.723,3.077-1.665,4.501c-1.479,2.353-1.29,4.129,0.614,5.313
	c1.669,1.035,4.523,1.486,8.563,1.353c2.871-0.11,5.058-0.396,6.582-0.848c1.331,1.16,4.172,1.662,8.541,1.499
	c4.707-0.168,7.561-1.235,8.563-3.205l5.258-12.77c2.593-6.322,4.563-10.392,5.91-12.214c3.236,0.159,5.663-0.866,7.26-3.108
	c1.625-2.285,3.452-4.56,5.44-6.824c2.131,1.077,4.286,2.052,6.46,2.935l-3.037,12.052c-0.94,4.106-1.389,7.11-1.358,9.038
	c-0.031,0.011-0.063,0.015-0.094,0.025c-2.303,0.802-4.106,1.953-5.408,3.455c-1.302,1.469-1.519,2.537-0.651,3.205
	c1.636,1.269,4.557,1.886,8.763,1.853c3.06-0.024,5.086-0.366,6.1-1.019c2.084,0.405,4.594,0.439,7.57,0.067
	c3.438-0.434,5.992-1.27,7.661-2.504c0.602-0.434,1.603-1.786,3.004-4.057c4.357-7.108,9.6-12.549,15.703-16.367
	c0.458-0.037,0.913-0.063,1.373-0.107c10.591-0.991,19.611-3.739,27.082-8.221c2.25,2.416,6.104,8.137,11.575,17.185
	c4.822,7.988,8.197,12.452,10.136,13.418c0.254,0.959,1.262,1.712,3.033,2.255l7.562,0.502c1.803-0.168,3.405-0.484,4.808-0.952
	c1.702-0.534,2.787-1.202,3.254-2.003c0.021-0.037,0.03-0.075,0.05-0.112c1.442-0.924,2.495-1.917,3.105-2.992
	c0.601-1.068,0.901-2.37,0.901-3.905C214.684,315.502,213.099,305.253,209.826,291.633z"/>
</svg>
