<?xml version="1.0" encoding="utf-8"?>
<!-- Generator: Adobe Illustrator 16.0.0, SVG Export Plug-In . SVG Version: 6.00 Build 0)  -->
<!DOCTYPE svg PUBLIC "-//W3C//DTD SVG 1.1//EN" "http://www.w3.org/Graphics/SVG/1.1/DTD/svg11.dtd">
<svg version="1.1" id="图层_1" xmlns="http://www.w3.org/2000/svg" xmlns:xlink="http://www.w3.org/1999/xlink" x="0px" y="0px"
	 width="267px" height="399px" viewBox="0 0 267 399" enable-background="new 0 0 267 399" xml:space="preserve">
<path d="M265.283,217.269c-0.734-1.568-3.404-2.485-8.008-2.753c-1.736-0.1-3.137-0.734-4.205-1.902
	c-0.667-0.733-1.318-1.885-1.951-3.453c-1.102-2.803-2.537-4.771-4.305-5.906c-1.969-1.234-4.621-1.602-7.958-1.101
	c-2.87,0.434-5.306,0.05-7.308-1.151c-2.736-1.702-4.604-2.652-5.605-2.853c-2.814-0.605-5.78,0.176-8.896,2.314
	c0.014-0.222,0.036-0.445,0.036-0.663c0-1.234-0.283-2.419-0.851-3.553c-0.634-1.301-1.769-2.82-3.403-4.555
	c-1.067-1.135-1.835-2.319-2.303-3.554c-0.5-1.301-0.75-2.936-0.75-4.905c0-3.203-1.585-5.823-4.755-7.858l-4.634-2.129
	l-1.122-4.127c-1.501-6.44-2.253-11.962-2.253-16.566c0-4.338,0.618-8.375,1.853-12.112c6.74,0.601,11.896,0.517,15.466-0.25
	c3.938-0.834,6.79-2.62,8.559-5.355c0.108-0.027,0.211-0.074,0.317-0.104c0.931-0.262,1.645-0.55,2.123-0.866
	c2.814-1.514,5.258-4.363,7.319-8.589c3.27-6.74,4.537-15.482,3.804-26.227c-0.214-3.2-0.67-6.254-1.352-9.171
	c7.969-13.362,12.408-25.788,13.313-37.275c1.034-13.046-2.502-25.659-10.611-37.838c0.501-0.301,0.534-1.268,0.101-2.903
	c-0.501-2.002-1.602-4.137-3.304-6.406c-1.468-1.969-3.286-3.487-5.455-4.555c-2.169-1.034-3.787-1.185-4.855-0.45
	c-0.934,0.667-1,2.302-0.199,4.905c0.768,2.302,1.801,4.271,3.104,5.906c0.834,1.068,1.935,2.036,3.303,2.903
	c1.168,0.801,2.336,1.401,3.504,1.802c7.073,12.379,10.31,24.007,9.709,34.885c-0.568,9.891-4.072,20.822-10.497,32.79
	c-1.896-5.004-4.582-9.531-8.071-13.57c-2.125-2.444-4.422-4.57-6.886-6.385c-0.725-8.313-2.381-15.596-4.976-21.843
	c-5.506-13.18-16.283-24.041-32.333-32.583c-0.067-0.701-0.718-1.785-1.952-3.253c-1.301-1.568-2.603-2.703-3.904-3.404
	c-2.969-1.668-5.805-2.486-8.508-2.452c-2.236,0-3.587,0.417-4.055,1.251c-0.5,0.935-0.133,2.386,1.102,4.354
	c1.401,2.202,3.42,4.038,6.057,5.505c2.168,1.201,4.17,1.985,6.006,2.353c1.835,0.333,3.17,0.184,4.004-0.45
	c14.981,9.309,24.809,20.103,29.479,32.382c1.651,4.301,2.84,9.23,3.585,14.76c-3.869-1.959-8.082-3.28-12.645-3.95
	c-9.143-1.334-17.935-0.066-26.376,3.804c-8.509,3.904-15.282,9.826-20.321,17.768c-8.008,12.646-11.361,29.596-10.06,50.851
	c0.605,9.548,3.049,25.12,7.32,46.688c-2.507,1.532-4.23,2.986-5.168,4.363c-0.82,1.249-1.37,2.838-1.67,4.743
	c-0.964-0.841-2.238-1.654-3.835-2.441c-2.637-1.335-4.939-1.869-6.908-1.602l-5.906,2.302c-2.736,1.101-5.322,1.268-7.758,0.5
	c-2.903-0.901-5.572-0.901-8.008,0c-2.102,0.801-4.154,2.352-6.156,4.655c-1.268,1.468-2.302,2.419-3.103,2.853l-4.104,0.2
	l-7.007-0.601c-2.436,0.234-4.054,0.834-4.855,1.802c-0.467,0.601-0.417,1.385,0.15,2.353l1.902,2.603
	c1.068,1.268,1.751,2.236,2.052,2.903c0.601,1.301,0.718,2.669,0.351,4.104c-0.834,3.337-1.134,5.673-0.901,7.008
	c0.1,0.7,0.868,2.535,2.302,5.505c0.367,0.7,0.3,1.568-0.2,2.603l-1.352,2.353c-1.167,2.235-1.718,4.037-1.651,5.405
	c0.073,1.537,0.742,3.4,1.995,5.582c-21.046,5.346-37.369,14.201-48.979,26.56c-6.219,3.476-12.497,5.512-18.832,6.097
	c-5.206,0.5-10.928-0.066-17.167-1.701c-3.003-0.801-4.805-0.635-5.405,0.5c-0.667,1.201-0.317,4.121,1.051,8.759
	c1.835,6.307,4.604,12.196,8.308,17.668c3.393,5.03,6.92,8.71,10.579,11.06c-0.26,0.925-0.518,1.856-0.769,2.805
	c-3.104,11.744-5.389,25.158-6.857,40.24c-1.568,15.682-1.268,24.324,0.901,25.926c2.018,1.521,4.458,2.661,7.271,3.464
	c1.944,1.206,4.657,2.17,8.144,2.893l7.407,0.4c0.09-0.09,0.126-0.26,0.124-0.488l7.383,0.688c3.27-0.066,5.105-0.367,5.506-0.901
	c0.073-0.115,0.098-0.283,0.1-0.477l2.552,0.227c1.635-0.101,2.536-0.284,2.703-0.551c0.434-0.601-0.167-2.302-1.802-5.104
	c-0.884-1.491-1.685-2.595-2.407-3.329c2.366-3.934,5.167-9.02,8.414-15.29c3.148-6.056,5.242-10.388,6.303-13.037
	c3.104,1.261,6.681,2.504,10.73,3.731l2.787,18.114c2.302,15.282,3.971,24.408,5.005,27.378c0.567,1.668,1.952,3.069,4.154,4.204
	c2.108,1.098,4.807,1.856,8.091,2.278c0.787,1.261,3.36,2.153,7.725,2.677c4.838,0.601,7.591,0.534,8.258-0.2
	c0.005-0.007,0.007-0.017,0.012-0.023l8.247,0.474c3.236-0.233,4.955-0.634,5.155-1.201c0.024-0.07,0.031-0.157,0.032-0.248
	c0.421-0.02,0.855-0.05,1.319-0.103c1.435-0.167,2.319-0.399,2.653-0.7c0.634-0.601,0.033-2.136-1.802-4.605
	c-1.145-1.532-2.137-2.59-2.981-3.184c3.232-17.225,5.928-30.452,8.088-39.682l9.258-1.23c0.508,5.305,1.537,11.883,3.103,19.771
	c2.269,11.779,4.471,18.152,6.605,19.119c3.071,1.334,6.426,2.126,10.044,2.422c0.623,0.754,2.566,1.383,5.872,1.883l8.259,0.551
	c1.001-0.1,1.552-0.25,1.651-0.451l-0.207-0.644c1.131,0.097,2.916,0.045,5.363-0.157l5.305-0.7c0.701-0.267,1.084-0.534,1.15-0.801
	c0.001-0.006-0.002-0.017,0-0.022l4.605-0.078c0.533-0.033,0.817-0.199,0.851-0.5l-0.55-1.552c-1.135-2.068-2.27-3.72-3.404-4.954
	c-0.541-0.575-1.029-1.002-1.468-1.285c-0.251-7.593,0.632-16.582,2.669-26.994c2.123-10.878,5.099-20.729,8.921-29.554
	c0.612-0.934,1.167-2.017,1.66-3.264c0.778,0.209,1.439,0.569,1.981,1.086l1.702,2.353l2.202,3.453
	c1.168,1.401,2.652,2.236,4.455,2.502c2.002,0.301,4.271-0.133,6.807-1.301c2.336-1.034,3.953-1.385,4.854-1.051
	c2.87,1.135,5.339,1.686,7.407,1.651c2.336,0,4.538-0.718,6.607-2.151c1.567-1.068,3.086-1.752,4.554-2.053
	c1.368-0.268,3.036-0.233,5.005,0.1c2.869,0.501,4.572,0.334,5.105-0.5c0.567-0.934,0.017-3.02-1.652-6.256
	c-1.268-2.436-1.867-4.855-1.801-7.258c0.033-0.634,0.65-2.202,1.852-4.705c1.201-2.402,1.769-4.404,1.701-6.006
	c-0.1-2.336-0.768-4.738-2.002-7.207c-1.168-2.369-1.752-3.904-1.752-4.604c0-0.567,0.268-1.368,0.801-2.402l1.302-2.853
	c0.835-2.536,0.017-4.955-2.452-7.258c-1.301-1.234-2.136-2.318-2.502-3.253c-0.4-1.067-0.501-2.52-0.301-4.354
	c0.166-1.369-0.009-2.545-0.488-3.548c1.776-0.285,3.26-1.001,4.441-2.157c1.669-1.636,2.486-3.854,2.453-6.657l0.1-3.954
	c0.234-1.635,0.768-2.92,1.602-3.854c2.703-2.937,3.971-6.257,3.805-9.961c-0.635-3.77-0.768-6.456-0.4-8.058
	c0.3-1.134,0.867-2.202,1.701-3.203l2.854-2.953C264.982,220.621,265.916,218.67,265.283,217.269z M238.745,23.156l0.462,0.769
	c2.547,5.125,4.215,10.485,5.027,16.073C243.257,34.586,241.43,28.973,238.745,23.156z"/>
</svg>
