<?xml version="1.0" encoding="utf-8"?>
<!-- Generator: Adobe Illustrator 16.0.0, SVG Export Plug-In . SVG Version: 6.00 Build 0)  -->
<!DOCTYPE svg PUBLIC "-//W3C//DTD SVG 1.1//EN" "http://www.w3.org/Graphics/SVG/1.1/DTD/svg11.dtd">
<svg version="1.1" id="图层_1" xmlns="http://www.w3.org/2000/svg" xmlns:xlink="http://www.w3.org/1999/xlink" x="0px" y="0px"
	 width="220px" height="206px" viewBox="0 0 220 206" enable-background="new 0 0 220 206" xml:space="preserve">
<path d="M218.25,105.623c-0.133-0.4-1.565-0.633-4.297-0.699l-15.59-0.15l9.794-20.886c1.299-2.798,1.865-4.38,1.698-4.747
	c-0.166-0.4-1.482-0.25-3.947,0.45l-18.688,5.246c1.3-3.631,4.331-11.409,9.094-23.334c1.066-2.665,1.434-4.147,1.1-4.447
	c-0.332-0.233-1.615,0.35-3.848,1.749L182.375,65.8l17.388-44.62c0.999-2.532,1.3-3.897,0.899-4.097
	c-0.399-0.2-1.849,0.516-4.348,2.148c-1.965,1.299-15.289,11.942-39.973,31.928l-0.749-5.496c-0.3-1.532-0.683-2.315-1.149-2.349
	c-0.433,0-1.282,0.683-2.548,2.049l-7.995,8.145l1.949-12.892c0.3-2.598,0.316-4.014,0.05-4.247
	c-0.333-0.267-1.499,0.383-3.497,1.949l-18.938,14.79l-2.748-33.028c-0.233-2.964-0.566-4.497-1-4.597
	c-0.365-0.133-1.349,0.933-2.947,3.198l-14.79,20.836L86.041,3.293c-1.033-2.398-1.849-3.464-2.449-3.198
	c-0.5,0.233-0.816,1.349-0.949,3.348l-2.998,40.972c-4.03-3.864-6.695-6.362-7.994-7.495c-1.699-1.433-2.665-2.115-2.898-2.049
	c-0.3,0.067-0.416,1.133-0.35,3.198l1.199,34.776l-8.294-5.996c-1.965-1.399-3.148-2.049-3.547-1.949
	c-0.4,0.133-0.3,0.982,0.3,2.548l5.594,11.784c-0.2,0.004-0.396,0.001-0.597,0.008c-13.491,0.433-24.117,5.763-31.878,15.989
	c-8.061,10.559-11.609,24.6-10.643,42.122c0.167,3.197,0.15,5.297-0.05,6.295c-0.266,1.366-1.116,2.915-2.548,4.647
	c-3.864,4.696-7.179,9.276-9.943,13.741c-4.164,6.629-6.662,12.291-7.495,16.988c-1.299,7.229-0.25,11.675,3.148,13.34
	c2.931,1.467,6.545,0.684,10.843-2.348c14.59-10.326,26.115-17.555,34.576-21.686c1.499-0.725,3.07-1.375,4.678-1.99
	c-2.21,2.451-3.941,5.357-5.178,8.736c-1.432,3.963-1.549,6.729-0.35,8.294c1.465,1.966,5.496,2.099,12.092,0.399
	c6.804-1.739,12.536-4.933,17.224-9.541l2.88,3.969c-0.141,2.333,0.46,4.163,1.831,5.473c1.051,0.99,2.772,1.558,5.145,1.714
	c6.013,3.863,13.08,6.704,21.208,8.516l-0.72,0.463c-1.099,0.6-1.899,1.183-2.398,1.749c-1.766,1.965-1.482,3.614,0.85,4.947
	c2.432,1.365,5.83,1.582,10.193,0.648c2.731-0.566,5.912-1.848,9.543-3.847c1.139-0.614,2.102-1.16,2.896-1.642
	c6.077,0.042,11.779-0.573,17.125-1.811c-0.264,0.39-0.633,0.821-1.134,1.303c-1.166,1.1-1.782,2.299-1.849,3.598
	c-0.033,1.267,0.5,2.299,1.599,3.099c3.031,2.132,7.345,2.632,12.941,1.499c4.83-1,9.31-2.832,13.44-5.496
	c3.864-2.532,7.029-5.946,9.494-10.244c2.132-3.73,3.48-7.627,4.047-11.691c1.299-9.26-0.766-17.521-6.195-24.783
	c-0.354-0.474-0.717-0.932-1.087-1.377c11.355-4.458,19.038-7.566,23.021-9.315c2.099-0.899,3.114-1.565,3.048-1.999
	c-0.133-0.6-1.915-1.133-5.346-1.599l-11.942-1.399l28.681-26.232C217.301,107.505,218.45,106.123,218.25,105.623z"/>
</svg>
