<?xml version="1.0" encoding="utf-8"?>
<!-- Generator: Adobe Illustrator 16.0.0, SVG Export Plug-In . SVG Version: 6.00 Build 0)  -->
<!DOCTYPE svg PUBLIC "-//W3C//DTD SVG 1.1//EN" "http://www.w3.org/Graphics/SVG/1.1/DTD/svg11.dtd">
<svg version="1.1" id="图层_1" xmlns="http://www.w3.org/2000/svg" xmlns:xlink="http://www.w3.org/1999/xlink" x="0px" y="0px"
	 width="220px" height="272px" viewBox="0 0 220 272" enable-background="new 0 0 220 272" xml:space="preserve">
<path d="M217.872,123.264c0.194-2.104-0.308-3.814-1.521-5.123c-1.365-1.398-3.264-2.448-5.694-3.147
	c-2.53-0.733-5.396-0.999-8.593-0.799l-13.887,1.848l-13.986,1.798c-8.895,0.487-20.169-2.295-33.811-8.326
	c-10.536-18.478-20.481-31.775-29.834-39.868l1.801-1.211c0.699-0.4,0.966-0.783,0.799-1.149c-0.133-0.267-0.482-0.483-1.049-0.649
	l-2.897-0.75l9.241-10.94c0.666-0.766,0.9-1.249,0.7-1.449s-0.767-0.2-1.698,0l-6.395,1.299l9.092-18.633
	c0.5-0.966,0.649-1.565,0.449-1.798c-0.199-0.233-0.749-0.15-1.648,0.25l-6.294,2.947c-2.998,1.432-5.212,2.564-6.644,3.396
	l11.389-38.664c0.334-1.066,0.467-1.749,0.4-2.048c-0.066-0.366-0.449-0.316-1.149,0.15c-2.964,1.932-7.293,6.211-12.988,12.838
	C99.56,18,95.68,22.812,92.016,27.674v-11.24c0-1.166-0.15-1.765-0.449-1.798c-0.3-0.033-0.766,0.433-1.399,1.399l-5.995,9.991
	l-6.694,11.689l-1.698-5.445c-0.333-1.332-0.799-0.916-1.399,1.249c-0.799,3.03-1.632,6.827-2.498,11.39l-7.243-21.98
	c-0.3-0.833-0.616-1.232-0.949-1.199c-0.366,0.066-0.683,0.533-0.949,1.398c-2.464,7.793-4.163,16.069-5.095,24.827
	c-0.662,6.172-0.981,13.159-0.97,20.932c-2.255-1.443-4.017-2.379-5.274-2.799l-2.148-0.15c-1.232,0.533-2.098,3.547-2.597,9.042
	c-0.577,5.795-0.235,11,1.005,15.625c-1.964,6.271-2.802,12.984-2.504,20.142c0.433,10.757,3.064,17.967,7.893,21.63
	c2.031,1.532,5.362,1.516,9.991-0.05c0.753-0.257,2.308-0.908,4.653-1.947l0.143,17.583l-5.944-8.093
	c-1.432-1.865-1.998-1.599-1.699,0.799l1.249,11.041l-13.688-19.982c-6.727-9.658-11.406-16.152-14.037-19.482
	c-0.732-0.933-1.249-1.282-1.548-1.049c-0.3,0.233-0.3,0.999,0,2.298l6.793,29.023l-2.397-2.798
	c-0.666-0.666-1.132-0.898-1.399-0.699c-0.266,0.167-0.25,0.767,0.05,1.799l2.947,10.141l3.197,10.49
	c-22.246-12.555-35.317-19.731-39.214-21.53c-1.166-0.532-1.865-0.616-2.098-0.249c-0.2,0.332,0.05,0.965,0.75,1.898l11.539,14.985
	c6.428,8.159,11.423,14.171,14.986,18.034l-2.348-0.55c-0.966-0.233-1.516-0.233-1.648,0c-0.133,0.233,0.083,0.683,0.649,1.349
	l4.096,4.896l-5.745-0.35l-1.898,0.249c-0.167,0.234,0.233,0.75,1.199,1.549l15.236,12.439c-7.626,1.498-18.467,3.862-32.521,7.093
	c-1.598,0.399-2.397,0.8-2.397,1.199c0.033,0.366,0.749,0.666,2.148,0.899l43.061,6.494l-5.395,4.795
	c-0.933,0.933-1.366,1.516-1.299,1.748l1.998,0.051l7.131-1.753c-1.719,5.48-1.735,11.159-0.038,17.038
	c1.394,4.879,3.662,8.821,6.797,11.832c-0.748,1.072-1.895,2.025-3.45,2.855l-5.695,2.397c-4.096,1.565-7.043,3.313-8.842,5.245
	c-1.765,1.898-2.381,4.129-1.849,6.693c0.507,2.47,1.821,3.995,3.923,4.598c0.463,0.849,1.132,1.502,2.022,1.947
	c1.172,0.557,2.617,0.688,4.305,0.447c1.921,2.371,5.76,2.245,11.531-0.398c6.67-3.04,12.694-8.293,18.08-15.732
	c2.168,0.206,4.35,0.251,6.547,0.098c4.063-0.267,10.59-1.582,19.582-3.947l11.739-2.996c4.929-1.166,9.424-1.982,13.487-2.448
	l11.292-1.428c5.486,5.973,11.909,10.536,19.279,13.667c6.494,2.764,11.823,3.779,15.986,3.047c1.998-0.367,3.446-1.316,4.346-2.848
	c0.146-0.257,0.26-0.51,0.358-0.762c1.583-0.219,2.822-0.835,3.688-1.886c0.504-0.64,0.817-1.394,0.982-2.236
	c1.145-0.918,1.735-2.268,1.765-4.058c0.033-2.165-0.782-3.78-2.448-4.846c-1.132-0.766-2.863-1.398-5.195-1.898l-6.594-1.049
	c-5.113-0.719-8.654-1.637-10.671-2.745c6.272-3.813,9.72-10.386,10.321-19.734c0.541-8.329-0.225-18.146-2.262-29.417
	c0.412-0.417,0.699-0.928,0.843-1.545c1.787-1.028,2.502-2.856,2.118-5.505c-0.5-3.03-2.48-5.745-5.944-8.143
	c-0.171-0.115-0.356-0.233-0.544-0.352c-2.724-10.331-6.2-20.77-10.445-31.319c-0.107-0.269-0.217-0.528-0.324-0.795
	c3.504,0.418,7.686,0.52,12.563,0.296c5.295-0.233,9.375-0.767,12.238-1.599c5.029-1.499,9.991-2.614,14.887-3.347l10.99-1.099
	l7.593-0.599c2.031-0.4,3.313-1.249,3.847-2.548c0.295-0.718,0.425-1.385,0.422-2.013
	C218.016,126.088,218.365,124.653,217.872,123.264z M91.117,137.424c0.067,0.6,0.1,1.194,0.144,1.791
	c-0.358,1.13-0.951,2.689-1.792,4.703c-1.366,3.297-2.531,5.794-3.497,7.492l-1.249-6.394c-0.3-1.099-0.583-1.665-0.849-1.698
	c-0.3,0-0.633,0.615-1,1.848l-1.848,4.996c-2.868-8.864-5.189-16.411-6.973-22.66c0.772-0.354,1.577-0.726,2.427-1.118
	c3.497-1.632,5.812-2.681,6.944-3.147c0.261-0.11,0.511-0.213,0.756-0.313C87.941,125.087,90.255,129.917,91.117,137.424z"/>
</svg>
