<?xml version="1.0" encoding="utf-8"?>
<!-- Generator: Adobe Illustrator 16.0.0, SVG Export Plug-In . SVG Version: 6.00 Build 0)  -->
<!DOCTYPE svg PUBLIC "-//W3C//DTD SVG 1.1//EN" "http://www.w3.org/Graphics/SVG/1.1/DTD/svg11.dtd">
<svg version="1.1" id="图层_1" xmlns="http://www.w3.org/2000/svg" xmlns:xlink="http://www.w3.org/1999/xlink" x="0px" y="0px"
	 width="277px" height="392px" viewBox="0 0 277 392" enable-background="new 0 0 277 392" xml:space="preserve">
<path d="M270.244,336.18l-20.627-10.113l-11.784-5.646c-0.105-0.396-0.213-0.792-0.327-1.188c8.531-4.249,13.977-7.129,16.316-8.637
	c2.07-1.302,3.088-2.052,3.055-2.253l-4.807,0.201l-18.023,1.53c-0.161-0.344-0.32-0.687-0.489-1.028l3.243-1.554
	c2.604-1.302,3.354-2.087,2.253-2.353c-0.994-0.249-3.572-0.308-7.69-0.18c-1.471-2.533-3.135-5.033-4.991-7.5l0.016-0.031
	l4.757-9.963c0.967-2.336,1.234-3.637,0.801-3.904c-0.201-0.134-0.852,0.1-1.953,0.701c-1.187,0.646-4.346,2.744-9.476,6.288
	c-5.837-6.951-10.35-12.844-13.503-17.653c-2.504-3.805-5.992-13.684-10.464-29.638c-4.739-16.888-9.429-29.538-14.067-37.948
	c3.971,4.339,7.909,9.129,11.814,14.368c-0.167-0.167-0.301,0.651-0.4,2.454c-0.1,1.768,0.083,2.736,0.551,2.902l1.752-0.149
	c0.834-0.267,1.418-0.651,1.752-1.151c0.602,1.735,1.385,3.221,2.354,4.455c0.801,1.102,1.368,1.603,1.702,1.502
	c0.333-0.1,0.667-0.584,1.001-1.451l0.4-1.752c0.567,0.733,1.269,1.352,2.104,1.852c0.768,0.467,1.268,0.65,1.502,0.551
	c0.667-0.367,1-1.619,1-3.755c0.835,0.768,1.637,1.269,2.404,1.502c0.634,0.233,1.135,0.233,1.502,0c0.3-0.2,0.551-0.7,0.75-1.502
	c0.234-1.101,0.234-2.403,0-3.905c0.602,0.4,1.352,0.651,2.254,0.752l1.451-0.051c2.002-1.102,0.968-7.409-3.104-18.924
	c-4.373-12.483-10.13-24.064-17.272-34.745c-3.453-5.18-7.568-9.974-12.338-14.384l16.042-17.256
	c3.338-3.671,4.823-5.791,4.456-6.358c-0.333-0.501-2.419,0.033-6.258,1.602c-2.903,1.201-6.809,2.887-11.715,5.056l-8.261,3.604
	l10.814-14.819c2.803-3.838,4.004-5.941,3.604-6.308c-0.367-0.367-2.386,0.467-6.057,2.503l-5.258,3.004
	c16.455-25.333,27.603-42.721,33.443-52.167c3.004-4.873,4.222-7.459,3.654-7.76c-0.5-0.267-2.803,1.135-6.908,4.206
	c-8.945,6.675-20.76,15.286-35.445,25.833l3.104-6.559c1.568-3.571,2.187-5.54,1.853-5.907c-0.3-0.367-1.719,0.517-4.255,2.653
	l-2.805,2.303l-1.651,1.202l13.467-33.543c1.836-4.639,2.57-7.125,2.203-7.459c-0.334-0.267-2.169,1.102-5.507,4.105L165.06,66.936
	L180.078,6.81c0.969-4.072,1.202-6.308,0.701-6.709c-0.533-0.434-1.969,0.818-4.305,3.755L156.098,30.54
	c-11.348,15.086-17.539,23.513-18.573,25.282c-0.267-17.389-0.584-29.571-0.951-36.546c-0.234-4.439-0.718-6.708-1.452-6.809
	c-0.734-0.1-1.852,1.835-3.354,5.807l-14.669,39.601l-6.007-23.53c-1.969-7.677-3.271-7.593-3.905,0.25l-2.052,21.327
	C88.813,30.523,78.866,15.253,75.295,10.114c-2.937-4.239-4.756-6.275-5.457-6.108c-0.801,0.2-0.768,2.92,0.1,8.16
	c0.968,5.774,4.79,23.497,11.465,53.168c-5.774-5.774-10.029-10.213-12.766-13.317c-2.537-2.904-4.139-4.172-4.806-3.805
	c-0.734,0.4-0.451,2.503,0.851,6.308c1.368,3.972,2.286,7.042,2.753,9.211L34.943,36.247c-4.072-3.471-6.425-5.006-7.059-4.606
	c-0.668,0.367,0.333,2.787,3.003,7.259l34.895,59.175c-6.475-2.537-12.299-4.723-17.472-6.558l-5.607-1.702
	c-0.334,0.167,0.367,1.602,2.103,4.305l4.656,7.459c-18.791-7.543-32.575-13-41.353-16.371c-4.939-1.902-7.61-2.586-8.01-2.053
	c-0.367,0.467,1.385,2.27,5.257,5.407l42.654,34.444l-13.567-3.655c-3.204-0.834-4.923-1.035-5.157-0.601
	c-0.267,0.468,0.952,1.569,3.655,3.305l11.165,7.159l-33.292-2.403l-5.657,0.3c-0.334,0.534,1.135,1.519,4.405,2.954
	c13.518,5.574,27.719,11.548,42.604,17.923l-8.161,3.805c-2.536,1.235-3.821,2.136-3.854,2.704c-0.034,0.601,1.435,0.768,4.405,0.5
	l9.813-1.001l1.356-0.188c-2.901,3.714-6.187,8.026-9.867,12.954c-11.314,15.152-18.04,24.681-20.176,28.586
	c-1.468,2.703-2.453,5.774-2.954,9.211c-0.467,3.104-0.417,4.79,0.15,5.057l1.252-0.2l2.002-1.102
	c-0.033,0.834,0.067,1.602,0.3,2.303c0.234,0.668,0.484,1.035,0.751,1.102l1.102-0.301l1.702-1.701
	c0.167,1.734,0.534,2.67,1.102,2.803c0.934,0.201,2.286-0.817,4.055-3.054c0.3,0.868,0.667,1.603,1.101,2.203
	c0.367,0.534,0.651,0.817,0.851,0.851l3.755-2.604l4.906-3.254c7.076-3.537,12.766-6.574,17.072-9.111
	c4.305-2.541,8.124-5.009,11.468-7.407c3.244,15.261,3.763,31.78,1.548,49.561c-2.136,16.854-5.641,28.636-10.513,35.345
	c-11.214,15.386-18.257,30.188-21.127,44.406c-2.904,14.386-0.968,25.565,5.807,33.543c-3.705,2.704-7.309,6.408-10.813,11.114
	c-3.471,4.639-4.923,7.66-4.356,9.062l0.901,0.101l1.953-0.852c-1.202,1.836-1.953,3.404-2.253,4.706
	c-0.267,1.001-0.234,1.585,0.1,1.752c0.901,0.567,2.637-0.184,5.207-2.253c-0.5,1.369-0.484,2.32,0.05,2.854l1.352,0.15l2.954-1.151
	c9.813-5.106,18.774-9.429,26.884-12.966c9.145-4.006,15.52-7.076,19.125-9.213c3.137-1.902,4.606-3.371,4.406-4.405
	c15.252-5.307,34.344-6.274,57.273-2.903c8.11,1.201,15.954,2.854,23.53,4.956c6.174,1.702,10.446,3.171,12.816,4.405
	c0.5,0.501,3.537,2.471,9.111,5.908c5.941,3.705,11.481,7.793,16.621,12.266c7.844,6.875,13.117,10.881,15.82,12.016
	c1.568,0.667,2.42,0.25,2.553-1.252c2.938,2.77,4.906,3.854,5.908,3.254c0.434-0.233,0.617-0.768,0.551-1.602
	c-0.033-0.768-0.317-2.104-0.852-4.006c0.834,0.568,1.469,0.518,1.902-0.15c0.367-0.6,0.501-1.585,0.4-2.953
	c-0.233-2.504-1.652-6.107-4.255-10.814c-2.57-4.639-5.524-8.961-8.861-12.966c2.603-2.069,5.19-6.225,7.76-12.466
	c0.833-2.003,1.507-3.947,2.044-5.843l15.879,4.642c3.037,0.934,4.706,1.318,5.006,1.15c0.535-0.233-1.001-1.618-4.605-4.154
	l-7.811-5.258l-6.408-4.055l9.513,2.754c4.372,1.334,8.595,2.369,12.667,3.104c6.941,1.302,11.047,1.869,12.314,1.702
	C275.768,339.4,274.383,338.249,270.244,336.18z"/>
</svg>
