<?xml version="1.0" encoding="utf-8"?>
<!-- Generator: Adobe Illustrator 16.0.0, SVG Export Plug-In . SVG Version: 6.00 Build 0)  -->
<!DOCTYPE svg PUBLIC "-//W3C//DTD SVG 1.1//EN" "http://www.w3.org/Graphics/SVG/1.1/DTD/svg11.dtd">
<svg version="1.1" id="图层_1" xmlns="http://www.w3.org/2000/svg" xmlns:xlink="http://www.w3.org/1999/xlink" x="0px" y="0px"
	 width="180px" height="198px" viewBox="0 0 180 198" enable-background="new 0 0 180 198" xml:space="preserve">
<path d="M178.94,147.924c-0.599-0.965-2.53-2.131-5.792-3.494c-1.512-0.632-2.98-1.281-4.42-1.943
	c0.877-5.87,1.557-11.812,2.023-17.827c0.699-8.454,0.566-12.897-0.398-13.33c-1.332-0.599-4.46,2.063-9.387,7.987
	c-4.188,5.026-7.365,9.422-9.558,13.204c-2.159-1.564-4.187-3.185-6.067-4.866c-6.293-5.683-11.413-12.414-15.384-20.173
	l6.497,0.153l2.396,2.047c1.697,1.365,2.879,1.98,3.544,1.848c0.699-0.1,1.448-1.049,2.247-2.846l0.998-2.696
	c4.46-1.664,6.641-2.929,6.54-3.794c-0.033-0.3-0.499-0.799-1.397-1.498c-0.25-0.184-0.524-0.337-0.787-0.506
	c2.708-1.583,4.012-2.765,3.883-3.538c-0.067-0.433-0.616-0.932-1.648-1.498c-0.417-0.238-0.874-0.458-1.351-0.67l2.2-1.776
	c0.731-0.766,1.031-1.315,0.898-1.647c-0.167-0.5-1.166-1.015-2.996-1.548l-1.527-0.283l1.827-2.463
	c0.966-1.531,1.331-2.463,1.099-2.796c-0.333-0.566-1.515-0.898-3.545-0.999l-4.594,0.2c-3.13-0.954-5.973-1.815-8.557-2.593
	l13.101-13.882c0.698-0.898,0.998-1.514,0.898-1.847c-0.1-0.466-0.766-0.849-1.997-1.148l-11.383-2.296
	c-4.647-0.911-7.854-1.5-9.635-1.772l3.444-3.819l5.442-6.141c0.799-1.099,1.181-1.797,1.147-2.097
	c-0.066-0.333-0.683-0.749-1.847-1.248c-1.032-0.433-4.627-1.681-10.784-3.744c-6.11-2.057-10.288-3.391-12.576-4.019
	c-2.594-9.118-5.557-16.605-8.892-22.441C96.482,5.373,89.01-0.002,80.19-0.002c-4.521,0-8.776,1.579-12.766,4.728
	c-1.648-0.925-3.026-1.61-4.108-2.032c-1.997-0.799-3.811-1.148-5.442-1.048c-3.229,0.2-6.057,1.314-8.487,3.345
	c-1.731,1.398-3.611,3.678-5.642,6.84l-5.142,7.539c-1.816,2.207-3.774,3.831-5.871,4.889c-3.86,1.224-6.746,1.851-8.607,1.851
	c-0.799,0-2.43-0.449-4.893-1.348c-2.463-0.932-4.26-1.398-5.392-1.398c-3.428,0-6.606,2.213-9.536,6.64
	c-2.829,4.26-4.243,8.653-4.243,13.18c0,2.896,1.914,6.124,5.741,9.685c2.436,2.257,4.548,3.723,6.354,4.434l2.183,2.855
	c2.063,2.563,3.361,3.661,3.894,3.295c0.333-0.266,0.632-1.348,0.898-3.245c0.199-1.326,0.253-2.41,0.188-3.296
	c1.239-0.383,2.585-0.886,4.043-1.515c0.895,1.29,2.148,2.753,3.807,4.411c1.963,1.931,3.228,2.829,3.794,2.696
	c0.5-0.133,0.899-1.914,1.198-5.342c0.184-2.464,0.251-4.257,0.208-5.399l7.73,1.056l8.142,1.077
	c0.19,1.191-0.007,2.562-0.603,4.115c-0.692,1.855-2.15,4.553-4.357,8.071l-0.236-0.033l-4.144,0.2
	c-0.133,0.433,0.699,1.431,2.496,2.996c0.057,0.048,0.107,0.086,0.163,0.133c-1.108,2.261-1.984,4.237-2.641,5.945
	c-1.511,0.082-2.374,0.284-2.564,0.611c-0.113,0.194,0.042,0.541,0.456,1.033l-1.604-0.084l-1.348-0.299
	c-2.896-2.53-4.759-3.761-5.591-3.694c-0.466,0.066-0.882,0.765-1.248,2.097l-0.399,1.947l-2.147-0.599l-2.546,0.1
	c-0.366,0.599-0.1,2.247,0.799,4.942l-1.997,0.849c-1.332,0.666-2.03,1.182-2.097,1.548c-0.1,0.566,0.882,1.747,2.945,3.544
	l-1.498,1.048c-1.032,0.799-1.531,1.398-1.498,1.797c0.034,0.666,1.398,1.714,4.094,3.146c-0.333,0.299-0.749,0.948-1.249,1.947
	c-0.532,1.065-0.715,1.764-0.549,2.097c0.233,0.433,1.331,0.715,3.295,0.849l3.495,0.1l11.823,4.216
	c0.874,1.009,1.88,1.925,3.055,2.724c2.835,1.944,6.369,3.131,10.572,3.591c-1.719,4.246-2.968,8.332-3.746,12.259
	c-3.673,2.664-6.42,6.146-8.224,10.461c-1.764,4.293-2.396,8.77-1.897,13.43c0.499,4.76,2.113,8.953,4.843,12.58
	c1.744,2.338,3.832,4.254,6.248,5.767c-1.755,0.834-4.328,1.823-7.746,2.971l-12.98,4.094c-1.032,0.3-1.698,0.565-1.997,0.799
	c-0.399,0.333-0.699,0.933-0.899,1.798c-0.2,0.932-0.233,2.213-0.1,3.844c0.133,1.531,0.35,2.829,0.649,3.895
	c0.233,0.731,0.482,1.23,0.749,1.497l1.348,0.699c2.563,0.898,7.339,1.764,14.329,2.596l13.829,0.999
	c2.496-0.133,4.393-0.449,5.691-0.949c2.063-0.732,4.842-2.379,8.337-4.942c1.432-1.032,3.794-2.362,7.089-3.993l5.442-2.896
	c0.799-0.599,1.314-1.265,1.548-1.996c0.096-0.326,0.129-0.708,0.115-1.133c8.34,1.777,17.761,2.385,28.269,1.813
	c-0.187,1.613-0.378,3.562-0.576,5.858c-0.399,4.261-0.533,6.69-0.399,7.289l0.699,4.594c0.433,2.529,0.915,3.994,1.448,4.393
	c1.764,1.365,8.719,1.598,20.867,0.699c12.248-0.932,19.139-2.297,20.67-4.094c0.465-0.566,0.781-2.03,0.947-4.394
	c0.2-2.496-0.033-4.094-0.698-4.792l-5.491-5.742c-2.41-2.688-4.772-5.523-7.099-8.477c7.45-1.875,14.066-4.122,19.829-6.75
	c6.09-2.763,10.467-5.608,13.13-8.537C179.073,150.57,179.605,149.055,178.94,147.924z"/>
</svg>
