<?xml version="1.0" encoding="utf-8"?>
<!-- Generator: Adobe Illustrator 16.0.0, SVG Export Plug-In . SVG Version: 6.00 Build 0)  -->
<!DOCTYPE svg PUBLIC "-//W3C//DTD SVG 1.1//EN" "http://www.w3.org/Graphics/SVG/1.1/DTD/svg11.dtd">
<svg version="1.1" id="图层_1" xmlns="http://www.w3.org/2000/svg" xmlns:xlink="http://www.w3.org/1999/xlink" x="0px" y="0px"
	 width="199px" height="286px" viewBox="0 0 199 286" enable-background="new 0 0 199 286" xml:space="preserve">
<path d="M198.046,198.094c-0.601-0.568-1.985-0.385-4.155,0.551c-0.941,0.397-2.243,1.045-3.881,1.924
	c0.207-0.443,0.415-0.896,0.627-1.374c2.27-5.039,3.188-8.961,2.754-11.765c-0.168-0.967-1.854-4.071-5.057-9.311
	c-3.404-5.474-5.641-8.428-6.709-8.861c-0.3-0.133-0.667,0.066-1.101,0.601c-0.835,1.068-2.253,3.972-4.255,8.711
	c-2.337,5.54-3.521,9.495-3.555,11.864c-0.033,1.469,1.769,4.789,5.406,9.963c1.323,1.885,2.458,3.427,3.403,4.625
	c-6.806,2.673-14.445,2.424-22.927-0.771c-3.184-1.196-5.99-2.596-8.434-4.189c-1.089-1.542-2.297-3.065-3.631-4.57
	c-0.912-1.031-1.83-1.995-2.754-2.895c-0.063-0.132-0.117-0.268-0.186-0.397c-1.075-4.063-2.636-9.04-4.683-14.93l3.116,1.301
	l1.702,3.654c0.968,2.003,1.585,3.037,1.853,3.104c0.333,0.033,0.951-0.217,1.852-0.752l1.702-1.251l2.804,1.802
	c1.535,0.935,2.42,1.318,2.653,1.152l1.401-2.153l1.201-2.453l5.207-0.3c0.301-0.468,0.301-2.152,0-5.057l1.902-0.4
	c0.834-0.233,1.285-0.518,1.352-0.852c0.033-0.333-0.234-1.218-0.801-2.652l-1.052-2.453l0.45-1.902
	c0.234-1.102,0.284-1.77,0.15-2.003c-0.133-0.2-1.084-0.45-2.854-0.751l-4.055-0.851c-0.434-0.2-2.437-2.27-6.008-6.208
	l-10.313-11.363l-11.914-12.766c-3.156-3.316-5.265-5.4-6.363-6.295c3.378-1.827,6.401-4.066,9.066-6.721
	c3.537-3.571,6.074-7.576,7.609-12.015c1.437-4.08,1.859-8.096,1.285-12.049c1.132-7.731-0.225-14.197-4.089-19.389
	c-4.138-5.573-10.028-8.36-17.671-8.36c-1.325-2.925-3.525-5.594-6.557-8.019c0.977-4.414,1.628-11.417,1.951-21.017
	c0.467-14.351-0.651-21.76-3.355-22.227c-0.801-0.134-2.77,1.819-5.906,5.857c-2.904,3.738-5.757,7.876-8.561,12.415
	c-4.139-8.143-9.862-16.487-17.171-25.03C72.659,3.321,68.42-0.433,66.785,0.001c-1.669,0.434-3.688,7.692-6.058,21.776
	c-1.168,7.109-2.236,14.535-3.204,22.277l-8.561-3.404c-4.339-1.635-6.708-2.27-7.109-1.902c-0.701,0.634-0.2,4.339,1.502,11.114
	c2.063,7.983,5.087,16.397,9.072,25.242c-2.868,5.527-5.147,12.273-6.834,20.247l-7.995,7.376c-5.607,5.473-8.46,8.994-8.561,10.563
	c-0.034,0.901,1.051,3.454,3.254,7.659l3.254,6.308l-4.756,4.155c-3.204,2.77-4.839,4.572-4.906,5.407
	c-0.053,0.56,1.412,2.628,4.344,6.153c-4.394,4.855-8.927,10.14-13.606,15.875L6.511,171.26l-3.254,1.152
	c-1.368,0.367-2.103,0.667-2.203,0.9c-0.1,0.301,0.017,0.935,0.351,1.902l0.801,1.853l-1.302,1.952
	c-0.601,1.068-0.851,1.752-0.751,2.053c0.267,0.867,1.001,1.418,2.203,1.652l-0.701,2.203c-0.167,0.867-0.184,1.451-0.05,1.752
	c0.2,0.367,0.65,0.7,1.352,1.001l1.802,0.4c-0.1,0.567-0.017,1.302,0.25,2.202c0.234,0.901,0.518,1.436,0.851,1.603
	c0.301,0.167,1.202,0,2.704-0.501l2.954-1.201l1.752,2.152c0.968,1.002,1.652,1.418,2.053,1.252
	c0.567-0.234,1.869-2.236,3.905-6.008l7.645-2.197c-0.183,2.032-0.297,3.92-0.336,5.652c-0.01,0.463,0.001,0.913,0,1.371
	c-1.87,1.796-3.589,4.057-5.156,6.788c-3.671,6.341-5.507,13.45-5.507,21.326c0,4.438,1.352,9.194,4.055,14.268
	c3.204,5.974,7.292,9.912,12.265,11.814c-4.272,1.335-7.876,2.62-10.813,3.854c-5.64,2.303-8.761,4.455-9.361,6.458
	c-0.167,0.534-0.167,1.502,0,2.903c0.167,1.568,0.467,2.604,0.901,3.104c0.634,0.734,1.736,1.152,3.304,1.252
	c0.5,1.369,1.519,2.403,3.054,3.104c0.968,0.435,2.386,0.785,4.255,1.052c1.635,3.004,8.677,3.388,21.126,1.151
	c11.547-2.069,20.742-4.84,27.583-8.311c0.935-0.467,1.368-1.701,1.302-3.704c-0.034-1.468-0.367-3.521-1.001-6.157l-0.815-3.882
	c6.78,1.518,14.242,2.28,22.392,2.28l10.091-0.334c2.905,2.874,5.8,5.109,8.682,6.691l-0.901,3.203
	c-0.567,2.337-0.852,4.105-0.852,5.307c0,3.438,1.77,7.477,5.307,12.115c3.639,4.84,7.126,7.459,10.463,7.859
	c4.64,0.534,7.459,0.15,8.461-1.151l8.561-0.3c1.436-0.301,2.353-0.818,2.753-1.553c2.771,0.067,4.839-0.217,6.208-0.851
	c1.102-0.501,1.902-2.019,2.402-4.556c0.434-2.17,0.518-3.871,0.251-5.106c-0.134-0.667-2.286-2.987-6.458-6.958
	c-5.006-4.773-8.293-8.11-9.862-10.013c4.572-2.136,8.694-6.324,12.365-12.565c0.098-0.164,0.179-0.328,0.274-0.492
	c6.434-1.914,12.156-4.149,17.146-6.717c12.816-6.607,21.644-15.752,26.482-27.434l2.303-5.356
	C198.463,199.695,198.547,198.561,198.046,198.094z"/>
</svg>
