<?xml version="1.0" encoding="utf-8"?>
<!-- Generator: Adobe Illustrator 16.0.0, SVG Export Plug-In . SVG Version: 6.00 Build 0)  -->
<!DOCTYPE svg PUBLIC "-//W3C//DTD SVG 1.1//EN" "http://www.w3.org/Graphics/SVG/1.1/DTD/svg11.dtd">
<svg version="1.1" id="图层_1" xmlns="http://www.w3.org/2000/svg" xmlns:xlink="http://www.w3.org/1999/xlink" x="0px" y="0px"
	 width="335px" height="441px" viewBox="0 0 335 441" enable-background="new 0 0 335 441" xml:space="preserve">
<path d="M333.751,272.555c-0.331-2.758-1.103-4.97-2.302-6.654c-0.072-2.175-0.35-4.074-0.844-5.68
	c-1.076-3.43-2.786-5.805-5.131-7.129c-0.729-3.296-1.878-5.936-3.458-7.9c-2.035-2.478-5.369-4.483-9.991-6.02
	c-0.028-0.016-0.059-0.031-0.088-0.048c-0.364-0.326-0.715-0.661-1.105-0.974c-2.464-1.964-5.094-3.412-7.89-4.344
	c-3.896-1.266-9.354-1.1-16.378,0.499c-2.266,0.515-4.358,1.093-6.291,1.729l-0.949-1.18c-0.732-0.533-1.965-0.949-3.695-1.249
	l-10.936-1.198c-3.361-0.1-5.759,0.116-7.189,0.648c-0.491,0.179-0.976,0.38-1.456,0.593c-0.994-1.749-3.477-2.8-7.482-3.139
	c-7.49-0.633-12.999,0.233-16.528,2.597c-0.172,0.113-0.345,0.238-0.518,0.364c-1.325,0.13-2.597,0.32-3.815,0.568l-0.146-2.888
	c1.199-1.37,1.998-3.573,2.383-6.634l0.1-7.39c0-0.766-0.3-1.631-0.898-2.596c-0.589-0.981-1.39-1.812-2.38-2.51
	c0.458-0.906,0.738-1.848,0.837-2.829c6.454,3.613,13.709,5.392,21.766,5.338c9.188-0.033,16.777-2.364,22.77-6.991
	c5.707-4.369,9.438-10.421,11.236-18.12c1.072-2.041,1.883-3.818,2.396-5.299c0.365-1.065,0.482-1.648,0.35-1.748
	c-0.131-0.104-0.612,0.003-1.419,0.309l0.162-1.805c0.592-1.41,1.193-3.154,1.806-5.245c0.5-1.598,0.649-2.497,0.449-2.696
	c-0.166-0.167-0.832,0.033-1.997,0.599c-0.072,0.033-0.156,0.078-0.23,0.114c-0.257-3.146-0.758-6.419-1.498-9.817
	c1.297-1.229,2.556-3.587,3.776-7.074c1.364-3.861,1.78-5.992,1.248-6.392c-0.533-0.433-2.63,0.033-6.292,1.398
	c-0.71,0.262-1.343,0.512-1.935,0.756c-0.931-2.515-1.689-4.152-2.275-4.903c0.419-0.473,0.852-0.94,1.314-1.396
	c2.486-2.455,5.335-4.392,8.525-5.839c0.106,1.28,0.272,2.639,0.512,4.092c0.434,2.73,0.883,4.245,1.349,4.544
	c0.599,0.399,1.831-0.083,3.694-1.448c1.456-1.067,2.526-2.233,3.222-3.494c0.273,0.293,0.547,0.582,0.823,0.897
	c3.229,3.762,6.791,6.292,10.686,7.59c0.349,0.116,0.702,0.192,1.056,0.271c0.024,1.292,0.167,2.455,0.442,3.474
	c0.3,1.131,0.649,1.697,1.049,1.697c1.099,0,2.58-0.766,4.444-2.297c1.84-1.529,3.399-3.391,4.71-5.546
	c0.294-0.197,0.586-0.378,0.882-0.595c4.062-2.996,6.808-6.508,8.239-10.536c1.032-2.896,0.366-7.474-1.997-13.732
	c-2.33-6.258-4.777-10.053-7.34-11.385c-0.933-0.466-1.998-0.882-3.196-1.248c-2.297-0.666-4.693-0.965-7.19-0.899l-4.638,0.477
	c0.127-6.799-0.783-11.35-2.752-13.609c-1.421-1.653-3.69-2.307-6.806-1.963c0.39-3.764,0.679-7.702,0.863-11.818
	c0.766-16.245-0.599-30.376-4.095-42.393c-0.932-3.129-1.797-4.594-2.596-4.394c-0.799,0.166-2.215,2.13-4.244,5.892
	c-0.933,1.731-2.381,4.811-4.345,9.238l-3.944,8.888c-2.497-8.456-5.876-17.46-10.137-27.014
	c-5.659-12.683-11.435-22.603-17.326-29.76c-3.163-3.828-5.344-5.459-6.542-4.893c-1.231,0.565-2.446,3.878-3.646,9.937
	c-0.865,4.394-1.863,11.268-2.996,20.622l-2.297,19.823l-5.691-6.241c-2.896-3.063-5.859-5.809-8.889-8.239
	c-3.295-2.663-5.326-3.695-6.092-3.096c-0.965,0.732-1.531,4.328-1.697,10.786c-0.066,3.096,0.366,11.002,1.298,23.718
	c0.863,11.39,1.646,20.128,2.349,26.231c-1.957,1.923-3.875,4.001-5.744,6.274c-0.285,0.343-0.569,0.657-0.854,0.988
	c-4.319-1.359-8.76-2.145-13.327-2.336c-3.803-0.17-6.63,0.014-8.498,0.545c-1.61-2.788-3.36-5.706-5.283-8.784
	c-6.259-10.02-11.136-16.627-14.63-19.823c-2.131-1.931-3.778-2.597-4.943-1.998c-1.498,0.799-2.963,3.745-4.395,8.838
	c-1.664,6.059-3.112,12.134-4.344,18.226c-1.631-1.531-4.294-3.695-7.989-6.491l-7.923-5.659l4.427-0.932
	c5.06-0.799,9.021-2.78,11.884-5.942c1.916-2.129,4.31-6.184,7.17-12.118c0.848-0.613,1.655-1.366,2.417-2.263
	c3.295-3.928,5.592-8.355,6.891-13.282c1.031-3.995,1.248-6.242,0.648-6.741c-0.432-0.366-2.829,0.383-7.19,2.247
	c-4.377,1.834-7.246,3.434-8.635,4.801c-2.476,1.215-4.562,2.082-6.245,2.589l-6.317,1.238c0.605-0.555,1.076-1.056,1.374-1.487
	c0.245-0.355,0.454-0.724,0.627-1.104c1.463-1.961,2.388-4.52,2.768-7.684c0.499-4.361-0.067-8.489-1.698-12.383
	c-1.298-3.196-3.729-5.326-7.291-6.392c-2.929-0.832-5.775-0.832-8.539,0c0.233-3.695-0.133-6.658-1.098-8.888
	c-0.965-2.164-2.563-3.795-4.794-4.893c-2.363-1.166-5.259-1.465-8.688-0.899c-3.429,0.533-6.308,1.748-8.639,3.645
	c-1.132-1.332-3.029-2.53-5.692-3.595c-2.929-1.165-5.925-1.748-8.988-1.748c-5.126,0-9.121,2.497-11.984,7.49
	c-1.964-1.864-4.96-2.68-8.988-2.446c-4.062,0.233-7.39,1.448-9.987,3.645c-2.23,1.831-4.544,5.659-6.94,11.484
	c-1.927,4.644-3.793,10.305-5.601,16.958c-1.207,0.3-2.467,0.718-3.787,1.268c-3.129,1.332-5.359,3.046-6.691,5.143
	c-2.896,4.561-4.66,10.869-5.293,18.925c-0.599,7.556-0.066,13.898,1.598,19.024c0.633,1.931,1.483,3.854,2.543,5.77
	c-1.463,1.409-2.414,4.322-2.843,8.76c-0.533,5.06-0.2,9.67,0.999,13.832c1.065,3.728,3.446,7.14,7.141,10.236
	c2.402,2.045,4.613,3.372,6.64,4.006c5.883,9.393,13.354,15.122,22.421,17.165c5.471,1.241,10.848,3.005,16.135,5.265l-9.095,0.827
	c-1.465,0.399-2.297,0.815-2.497,1.248c-0.233,0.5,0.1,1.382,0.999,2.646c1.764,2.397,5.01,6.258,9.737,11.584
	c6.125,6.875,12.691,13.764,19.667,20.668c-0.028,0.375-0.072,0.754-0.083,1.123l-0.508,1.728
	c-10.453,6.625-17.344,11.601-20.672,14.93c-3.895,3.961-6.125,8.588-6.691,13.881c-0.466,4.494-0.566,9.121-0.3,13.882
	c0.2,3.761,0.583,7.091,1.148,9.986c-2.408,3.21-5.59,7.064-9.537,11.554c-1.856-0.088-3.989,0.245-6.381,0.97l6.43-11.274
	c3.429-6.259,5.476-10.42,6.142-12.484c0.799-2.43,0.916-3.844,0.35-4.244c-0.466-0.299-1.914-0.083-4.344,0.649
	c-4.161,1.198-8.438,3.179-12.833,5.942l2.497-20.573c0.732-6.857,1.148-11.634,1.249-14.331c0.1-2.264-0.117-3.445-0.649-3.545
	c-0.466-0.1-1.398,0.583-2.796,2.047c-2.896,2.996-6.691,7.823-11.385,14.48l-1.448-9.088c-0.832-4.327-1.581-7.64-2.247-9.937
	c-0.366-1.265-0.732-1.864-1.099-1.797c-0.266,0.033-0.766,0.616-1.498,1.748c-1.598,2.63-3.795,7.007-6.591,13.132
	c-0.108,0.236-0.208,0.461-0.313,0.693c-0.264-2.147-0.493-4.952-0.686-8.433l-0.549-10.486c-0.133-2.297-0.45-3.445-0.949-3.445
	c-0.433,0.033-1.382,1.132-2.846,3.295c-3.662,5.459-6.808,12.117-9.438,19.973c-2.962,8.988-4.777,18.275-5.442,27.863
	c-1.617,23.577,3.794,44.948,16.191,64.126c-1.813,3.309-3.23,6.552-4.207,9.725c-3.396,11.019-2.214,23.885,3.545,38.599
	c5.027,12.85,11.251,22.42,18.675,28.711c-0.865,1.165-2.413,3.578-4.644,7.24c-2.53,3.762-5.293,7.124-8.289,10.087l-10.935,10.186
	c-2.69,2.434-4.802,4.439-6.348,6.025c-0.165,0.021-0.33,0.055-0.493,0.117c-2.729,1.031-6.458,3.944-11.185,8.738
	c-4.561,4.594-6.691,7.356-6.392,8.288l5.892-0.199c2.235-0.57,4.234-1.216,6.032-1.927c-3.5,3.522-5.081,5.714-4.733,6.57
	c0.5,1.165,3.129,1.016,7.89-0.449l4.28-1.586c-1.453,1.947-2.021,3.245-1.684,3.883c0.833,1.498,5.692,0.999,14.581-1.498
	c6.61-1.834,10.987-3.394,13.138-4.679l0.494,0.035l5.093-0.2c3.295-0.266,7.473-1.581,12.533-3.944
	c5.393-2.497,9.087-5.026,11.085-7.59c3.728-4.794,7.273-9.903,10.636-15.329c5.226-8.489,7.29-13.849,6.191-16.079
	c11.285-7.123,17.976-11.484,20.073-13.082c5.468-4.195,9.697-8.379,12.707-12.551l-0.124,0.417
	c11.551,4.494,24.317,5.909,38.299,4.244c1.376-0.164,2.735-0.368,4.085-0.59c-2.305,1.53-3.985,3.291-5.034,5.284
	c-1.931,3.661-0.882,6.974,3.146,9.936c5.061,3.729,8.438,6.292,10.137,7.69c3.096,2.597,9.055,7.956,17.875,16.078
	c2.996,2.464,7.441,4.594,13.333,6.392c5.855,1.804,12.625,3.105,20.285,3.917c2.26,0.828,6.15,1.72,11.672,2.674
	c9.421,1.632,16.86,2.414,22.319,2.347c1.199-0.033,1.865-0.166,1.998-0.399c0.133-0.232-0.15-0.749-0.85-1.548
	c-0.134-0.149-0.299-0.311-0.45-0.466l6.043,0.566c1.365-0.033,2.114-0.217,2.247-0.55c0.166-0.399-0.25-1.281-1.248-2.646
	c-0.658-0.88-1.457-1.806-2.367-2.767c1.16,0.039,2.14,0.015,2.916-0.079c1.631-0.167,2.497-0.449,2.597-0.85
	c0.134-0.499-0.632-1.331-2.297-2.496c-2.297-1.631-5.692-3.412-10.187-5.343c-3.456-1.507-6.14-2.489-8.074-2.963
	c-1.464-0.743-2.729-1.19-3.773-1.315c-0.076-0.1-0.166-0.204-0.285-0.315c-5.893-5.16-13.682-11.169-23.369-18.026
	c10.201-1.679,18.076-4.022,23.634-7.029c4.317,0.445,8.226-0.118,11.719-1.709c5.991-2.662,11.118-8.422,15.38-17.276
	c1.664-3.429,2.896-6.741,3.694-9.937c0.732-3.063,0.899-5.21,0.499-6.441c-0.865-2.696-2.713-5.276-5.542-7.74
	c-1.581-1.372-3.063-2.42-4.457-3.177c-2.175-10.662-7.106-21.204-14.817-31.626c-3.096-4.194-6.841-8.605-11.234-13.232
	l-9.238-9.438c-1.928-2.021-3.709-4.281-5.36-6.752l14.299,1.51l21.614,1.2l0.256,0.198l8.838,8.738
	c5.357,4.448,9.954,6.67,13.793,6.666c0.311,0.215,0.647,0.4,1.037,0.523c2.896,0.932,6.043,1.365,9.438,1.299
	c2.863-0.1,4.361-0.333,4.494-0.699c0.166-0.467-0.882-2.114-3.146-4.943c-2.312-2.896-4.205-4.8-5.688-5.725
	c-1.123-1.301-2.144-2.748-3.05-4.362c-1.331-2.396-2.147-4.677-2.446-6.841c-0.048-0.361-0.063-0.735-0.088-1.106l4.831-1.79
	c1.955-0.721,3.336-1.184,4.168-1.401l4.071,1.302l3.906,0.471l0.588,5.422c-0.167,3.495-0.066,7.174,0.299,11.035
	c0.366,3.961,0.816,5.975,1.349,6.042c1.979,0.231,4.45-2.272,7.409-7.501c-0.1,2.043-0.061,4.045,0.131,6.003
	c0.266,2.63,0.665,4.028,1.198,4.194c0.785,0.238,2.028-0.598,3.714-2.467l0.131,0.719c0.333,1.564,0.633,2.43,0.898,2.597
	c0.267,0.2,0.899-0.033,1.897-0.698c0.633-0.398,1.224-0.808,1.793-1.221l0.554,3.067c0.2,1.065,0.55,1.614,1.049,1.647
	c0.466,0.033,1.165-0.416,2.098-1.348c3.229-3.129,5.076-6.108,5.542-8.938c0.013-0.073,0.001-0.152,0.008-0.227
	C333.679,278.65,334.147,275.816,333.751,272.555z M103.161,112.469c0.642,1.688,1.372,3.428,2.184,5.217
	c-0.148-0.092-0.283-0.18-0.436-0.274l-5.834-3.05c0.081-0.15,0.161-0.293,0.242-0.445c0.896-1.701,1.724-3.405,2.501-5.111
	L103.161,112.469z M88.913,393.65c-0.473,1.263-1.207,2.775-2.202,4.542C87.648,396.461,88.382,394.947,88.913,393.65z"/>
</svg>
