<?xml version="1.0" encoding="utf-8"?>
<!-- Generator: Adobe Illustrator 16.0.0, SVG Export Plug-In . SVG Version: 6.00 Build 0)  -->
<!DOCTYPE svg PUBLIC "-//W3C//DTD SVG 1.1//EN" "http://www.w3.org/Graphics/SVG/1.1/DTD/svg11.dtd">
<svg version="1.1" id="图层_1" xmlns="http://www.w3.org/2000/svg" xmlns:xlink="http://www.w3.org/1999/xlink" x="0px" y="0px"
	 width="123px" height="252px" viewBox="0 0 123 252" enable-background="new 0 0 123 252" xml:space="preserve">
<path d="M115.214,79.584c-1.966-3.199-5.448-5.266-10.448-6.199c-3.898-0.767-7.932-0.75-12.098,0.05
	c-3.133-7.798-7.481-14.197-13.047-19.196c-2.102-1.882-4.289-3.468-6.564-4.759c0.188-0.171,0.376-0.348,0.565-0.541
	c1.3-1.366,2.983-3.699,5.05-6.999c1.432-2.266,3.082-5.465,4.948-9.598c1.733-3.799,3.032-6.999,3.899-9.598
	c2.166-6.532,3-11.631,2.5-15.297c-0.5-3.433-2.167-5.766-5-6.999c-2.365-1-5.315-0.5-8.848,1.5
	c-4.1,2.366-7.248,6.149-9.448,11.348c-0.866,2.033-1.683,4.549-2.45,7.548c-0.699,2.766-1.166,5.149-1.398,7.148
	c-0.533,4.033-0.384,8.648,0.449,13.847c0.256,1.604,0.56,3.006,0.91,4.211c-2.375-0.537-4.826-0.812-7.359-0.812
	c-2.812,0-5.487,0.343-8.028,1.022c0.418-1.517,0.663-3.453,0.729-5.821c0.167-4.999-0.317-9.398-1.45-13.198
	c-0.6-2.033-1.433-4.349-2.5-6.948c-1.267-2.966-2.466-5.349-3.6-7.148c-2.999-4.732-6.782-7.916-11.348-9.548
	c-3.866-1.4-6.915-1.4-9.148,0c-2.566,1.6-3.766,4.132-3.6,7.599c0.167,3.566,1.85,8.432,5.049,14.597
	c1.266,2.433,3.049,5.382,5.349,8.848c2.5,3.799,4.632,6.699,6.399,8.698c2.399,2.733,4.333,4.616,5.799,5.649
	c0.278,0.188,0.554,0.349,0.828,0.499c-2.723,1.673-5.249,3.838-7.576,6.5c-3.866,4.432-7.315,10.564-10.348,18.396
	c-3.233-0.534-6.615-0.567-10.148-0.1c-7.032,0.966-11.231,3.966-12.598,8.998c-1.633,6.032,0.683,12.947,6.949,20.746
	c5.565,6.898,10.915,11.165,16.047,12.797c3.062,8.902,7.139,15.7,12.204,20.445c-0.135,0.099-0.271,0.192-0.406,0.301
	c-2.2,1.767-3.733,4.416-4.599,7.949c-1.267,4.865-0.6,8.881,2,12.047c2.566,3.133,5.766,4.049,9.598,2.75
	c2.299-0.733,3.899-2.783,4.799-6.148c0.6-2.2,0.867-4.75,0.8-7.649c-0.026-0.739-0.086-1.429-0.165-2.089
	c1.139,0.389,2.313,0.73,3.526,1.021c0.734,2.031,1.281,5.031,1.638,9.016c0.4,5.1-0.433,10.266-2.5,15.498
	c-1.966,5.031-4.766,9.414-8.398,13.146c-7.432,7.599-12.564,13.831-15.397,18.696c-3.666,6.299-5.499,13.198-5.499,20.696
	c0,7.832,2.949,14.597,8.848,20.296c5.632,5.399,11.981,8.099,19.046,8.099c11.131,0,19.862-3.649,26.195-10.948
	c6.466-7.432,9.698-17.847,9.698-31.243c0-9.398-2.566-21.413-7.699-36.043c-2.532-7.232-4.166-12.248-4.898-15.047
	c-1.256-4.925-1.717-9.191-1.406-12.817c1.333-0.511,2.635-1.129,3.904-1.853c-0.017,0.985-0.005,2.016,0.051,3.121
	c0.268,5.5,0.7,9.016,1.301,10.549c1.1,2.865,3.432,4.182,6.998,3.949c2.866-0.167,5.115-1.717,6.748-4.649
	c1.301-2.3,1.95-4.8,1.95-7.499c0-3.999-1.384-7.932-4.149-11.797c-0.871-1.215-1.697-2.205-2.485-3.002
	c2.814-3.663,5.269-8.027,7.335-13.145c10.364-5.499,17.662-12.214,21.896-20.146C118.713,92.565,118.913,85.649,115.214,79.584z"/>
</svg>
