<?xml version="1.0" encoding="utf-8"?>
<!-- Generator: Adobe Illustrator 16.0.0, SVG Export Plug-In . SVG Version: 6.00 Build 0)  -->
<!DOCTYPE svg PUBLIC "-//W3C//DTD SVG 1.1//EN" "http://www.w3.org/Graphics/SVG/1.1/DTD/svg11.dtd">
<svg version="1.1" id="图层_1" xmlns="http://www.w3.org/2000/svg" xmlns:xlink="http://www.w3.org/1999/xlink" x="0px" y="0px"
	 width="335px" height="258px" viewBox="0 0 335 258" enable-background="new 0 0 335 258" xml:space="preserve">
<path d="M334.046,131.648c-1.133-5.063-4.08-9.81-8.843-14.239c-4.764-4.43-10.109-7.428-16.038-8.993l9.393-0.2l3.098-0.2
	c0.033-0.366-1.099-1.349-3.397-2.948c-4.596-3.23-10.108-5.912-16.537-8.043c-8.826-2.931-16.837-3.697-24.031-2.298
	c0.533-0.533,1.383-0.982,2.549-1.349c1.332-0.433,2.914-0.666,4.746-0.699c2.964,0,4.297-0.183,3.996-0.55
	c-0.266-0.333-2.115-1.116-5.545-2.348c-11.625-4.23-24.531-4.363-38.721-0.399c-18.252,5.096-34.123,16.47-47.613,34.124
	c-4.763,6.195-8.526,10.591-11.291,13.189c-4.063,3.764-8.076,5.945-12.041,6.545c-9.492,1.467-17.652,0.051-24.48-4.246
	c-5.829-3.697-11.458-10.076-16.887-19.135c-2.731-4.563-7.744-14.389-15.039-29.477c-6.995-14.489-13.29-26.246-18.885-35.272
	c0.633-1.1,4.197-4.83,10.692-11.191c7.228-7.095,11.591-11.524,13.09-13.29c2.698-3.164,3.947-5.129,3.747-5.895
	c-0.2-0.733-1.999-0.899-5.396-0.5c-6.928,0.833-16.354,2.465-28.278,4.896c-11.292,2.298-18.036,3.88-20.234,4.746
	c-2.132-1.132-4.747-2.131-7.844-2.998c-6.162-1.732-12.141-2.148-17.936-1.249c1.832-7.827,3.498-15.738,4.996-23.731
	c0.733-3.997,0.583-5.962-0.45-5.896c-1.099,0.066-4.063,2.432-8.893,7.094c-9.292,8.927-18.186,20.451-26.679,34.573
	C5.268,51.027,0.255,60.786,0.255,70.945c0,5.229,3.53,11.625,10.592,19.185l21.733,20.435l10.992,10.242
	c4.463,4.164,7.694,7.378,9.692,9.643c3.722,4.17,8.031,10.545,12.924,19.108c-1.388,1.119-3.109,2.883-5.181,5.322
	c-3.73,4.363-6.378,8.677-7.944,12.94c-1.665,4.563-1.798,8.826-0.399,12.789c1.432,4.098,4.03,6.346,7.794,6.745
	c2.365,0.267,4.796-0.583,7.294-2.548c2.964-2.299,5.046-5.612,6.245-9.942c0.505-1.893,1.176-4.13,2.003-6.687
	c3.242,6.476,7.452,15.014,12.635,25.622c6.362,13.022,14.722,23.183,25.081,30.476c6.211,4.377,13.351,7.889,21.404,10.549
	c-0.19,0.066-0.379,0.126-0.57,0.193c-6.429,2.299-10.143,4.813-11.142,7.545c-0.633,1.765-0.666,3.414-0.1,4.945
	c0.6,1.6,1.699,2.648,3.298,3.148c0.299,1.598,1.215,2.863,2.748,3.797c1.666,1.032,3.564,1.299,5.696,0.799
	c1.266,1.398,3.031,2.198,5.296,2.398c2.231,0.166,4.479-0.3,6.745-1.398l11.641-7.545c3.243-2.229,5.98-4.004,8.216-5.327
	c5.855,1.564,11.343,1.826,16.464,0.78c1.467-0.299,2.698-0.865,3.697-1.698c1.066-0.866,1.749-1.948,2.049-3.247
	c0.008-0.033,0.01-0.068,0.017-0.103c15.613-2.895,29.417-9.265,41.401-19.133c14.289-11.824,25.396-28.212,33.324-49.162
	c5.43-14.322,11.658-24.247,18.686-29.776c7.295-5.729,18.252-9.01,32.874-9.843l3.848-0.35c0.3-0.267-0.55-1.099-2.548-2.498
	c-1.033-0.733-2.481-1.399-4.347-1.999c-2.065-0.666-4.03-1.016-5.896-1.049c5.096-0.866,10.275-0.35,15.537,1.549
	c3.964,1.399,7.028,3.114,9.193,5.146l2.947,2.697C334.563,134.828,334.512,133.813,334.046,131.648z"/>
</svg>
