<?xml version="1.0" encoding="utf-8"?>
<!-- Generator: Adobe Illustrator 16.0.0, SVG Export Plug-In . SVG Version: 6.00 Build 0)  -->
<!DOCTYPE svg PUBLIC "-//W3C//DTD SVG 1.1//EN" "http://www.w3.org/Graphics/SVG/1.1/DTD/svg11.dtd">
<svg version="1.1" id="图层_1" xmlns="http://www.w3.org/2000/svg" xmlns:xlink="http://www.w3.org/1999/xlink" x="0px" y="0px"
	 width="183px" height="219px" viewBox="0 0 183 219" enable-background="new 0 0 183 219" xml:space="preserve">
<path d="M181.001,147.229c-1.933-4.963-6.829-10.76-14.692-17.39c-7.607-6.491-14.929-10.964-21.962-13.434
	c0.196-1.91,0.354-3.838,0.424-5.806c0.533-15.525-3.948-29.884-13.442-43.077c-8.509-11.789-18.638-19.72-30.377-23.816l5.24-6.517
	l7.696-0.6c3.897-0.434,6.146-0.9,6.746-1.399c0.833-0.7,3.182-10.211,7.046-28.535c0.767-3.731,0.982-5.796,0.65-6.196
	c-0.4-0.433-2.199,0.133-5.397,1.699C105.775,10.754,96.996,15.801,96.598,17.3c-0.101,0.266-0.15,0.683-0.15,1.249
	c0,1.433,0.434,3.898,1.299,7.396l1.699,6.546l-8.026,8.495c-4.337-0.786-8.955-1.042-13.862-0.749
	c-6.222,0.389-12.206,1.684-17.954,3.869l-4.334-6.867l2.948-6.597c1.133-2.932,1.699-4.964,1.699-6.096l-0.1-0.7
	c-0.466-0.833-3.548-3.481-9.245-7.946c-4.631-3.598-8.929-6.83-12.893-9.695c-3.432-2.499-5.447-3.681-6.047-3.548
	c-0.466,0.1-0.7,1.532-0.7,4.298c0,0.999,0.45,5.763,1.35,14.292c0.933,9.095,1.583,13.893,1.949,14.392
	c0.733,1.033,2.749,2.116,6.047,3.248l7.546,2.349l3.617,6.652C41.279,53.537,33.208,61.56,27.235,71.97
	c-6.696,11.627-9.828,24.736-9.395,39.329c0.138,4.879,0.755,9.54,1.83,13.993c-3.389,2.459-7.441,6.658-12.174,12.642
	C2.199,144.697-0.3,149.229,0,151.527c0.1,0.566,0.649,1.215,1.649,1.948c1.033,0.7,2.082,1.183,3.148,1.449
	c3.964,0.966,8.112,0.767,12.443-0.6c4.831-1.477,8.813-4.206,11.967-8.157c0.557,0.779,1.127,1.551,1.725,2.311
	c6.591,8.4,14.938,14.857,25.007,19.402c-0.624,0.747-1.644,2.07-3.069,3.984c-1.433,1.899-2.016,3.032-1.749,3.398l4.297-0.199
	l6.296-1.35l-1.299,4.197c-0.533,1.633-0.566,2.565-0.1,2.799c0.333,0.199,1.183,0,2.548-0.6l10.76-4.423l0.084,4.872
	c0.033,3.332-0.033,5.397-0.2,6.197l-1.25,1.398c-0.899,0.7-1.899,1.233-2.999,1.6c-1.865,0.6-5.463,0.65-10.794,0.15
	c-1.999,0.066-3.748,0.865-5.247,2.398c-1,1.033-1.799,2.382-2.399,4.048c-0.566,1.632-0.833,3.215-0.799,4.747l0.066,0.689
	c-0.233,0.4-0.461,0.81-0.666,1.26c-0.767,1.766-1.183,3.465-1.25,5.098c-0.033,1.299,0.15,2.049,0.55,2.248
	c0.4,0.166,1.283-0.05,2.648-0.649l3.298-1.849l1.68-1.041l3.232,0.427c-0.027,0.817,0.05,1.556,0.235,2.213
	c0.152,0.587,0.454,1.104,0.876,1.563c-0.197,1.664-0.161,3.21,0.124,4.633c0.333,1.666,0.816,2.482,1.449,2.449
	c0.4,0,1.533-0.617,3.398-1.85c1.438-0.918,2.656-1.895,3.673-2.926c2.215-0.079,4.035-0.443,5.422-1.121
	c1.035-0.527,1.946-1.284,2.74-2.258c3.874-0.901,7.494-0.856,10.86,0.134c0.049,0.059,0.092,0.116,0.143,0.175
	c0.866,1.066,1.782,1.916,2.749,2.549c0.948,0.672,2.465,1.004,4.536,1.003l1.161,1.944c1.199,1.732,1.998,2.582,2.398,2.549
	c0.566-0.033,1.316-1.332,2.248-3.897c0.217-0.595,0.395-1.199,0.55-1.811c1.32-0.626,2.171-1.404,2.549-2.337
	c0.174-0.396,0.321-0.798,0.453-1.2c1.77,0.769,3.335,1.021,4.694,0.75c0.999-0.194,1.999-0.72,2.998-1.539
	c0.266,0.146,0.538,0.291,0.85,0.44c1.166,0.566,2.383,1.049,3.648,1.449c2.232,0.699,3.564,0.916,3.998,0.648
	c0.499-0.299,0.433-1.449-0.2-3.447c-0.7-2.199-1.732-4.164-3.099-5.896c-0.756-0.941-1.482-1.618-2.182-2.052
	c-0.204-0.904-0.498-1.729-0.916-2.446c-0.633-1.332-1.367-2.416-2.199-3.248c-0.899-0.934-1.749-1.416-2.549-1.449l-6.246-0.35
	c-2.565-0.268-4.515-0.733-5.848-1.399l-2.898-1.449c-1.166-0.634-1.815-1.233-1.948-1.8c-0.134-0.499-0.167-1.482-0.101-2.947
	l0.125-4.021l0.375,0.222c1.6,0.967,2.532,1.416,2.799,1.35c0.366-0.066,0.699-0.916,0.999-2.549l1.05-5.247l9.244,3.599
	c3.832,1.499,4.598,0.749,2.299-2.249l-4.045-5.045c13.429-4.835,23.544-13.757,30.331-26.788c0.991-1.894,1.868-3.84,2.687-5.812
	c2.777,4.269,6.457,7.793,11.057,10.56c5.097,3.064,10.76,4.963,16.99,5.696c7.263,0.833,11.826,0.399,13.692-1.3
	C181.95,151.71,182.033,149.861,181.001,147.229z"/>
</svg>
