<?xml version="1.0" encoding="utf-8"?>
<!-- Generator: Adobe Illustrator 16.0.0, SVG Export Plug-In . SVG Version: 6.00 Build 0)  -->
<!DOCTYPE svg PUBLIC "-//W3C//DTD SVG 1.1//EN" "http://www.w3.org/Graphics/SVG/1.1/DTD/svg11.dtd">
<svg version="1.1" id="图层_1" xmlns="http://www.w3.org/2000/svg" xmlns:xlink="http://www.w3.org/1999/xlink" x="0px" y="0px"
	 width="475px" height="379px" viewBox="0 0 475 379" enable-background="new 0 0 475 379" xml:space="preserve">
<path d="M473.044,48.344c-3.866-1.733-8.782-2.917-14.748-3.55l-13.548-0.7l20.497-7.699c2.1-0.866,3.399-1.899,3.899-3.1
	c0.533-1.266,0.783-3.283,0.75-6.049c0-2.066-0.134-3.95-0.4-5.649l-0.897-5.67c1.238-0.511,2.208-1.217,2.897-2.129
	c0.6-0.8,0.934-1.65,1-2.55l-0.4-2.7c-0.5-2.399-8.915-2.766-25.246-1.1c-28.13,2.933-53.593,8.648-76.391,17.147
	c-22.863,8.499-42.411,19.547-58.642,33.146c-11.669,9.827-21.646,20.343-29.951,31.543c-5.594-9.544-12.523-17.294-20.792-23.244
	c-1.774-1.274-3.714-2.413-5.785-3.443c0.094-1.27,0.188-2.562,0.285-3.905c1.066-15.131,1.633-24.563,1.7-28.296
	c0.066-3.666,0-6.033-0.2-7.099c-0.199-0.867-0.684-1.466-1.449-1.8c-0.601-0.2-2.2,1.217-4.8,4.25l-3.999,4.5
	c-0.301-0.1-2.633-9.249-7-27.446c-0.533-1.167-1.116-1.967-1.75-2.4c-0.399-0.267-0.899-0.4-1.499-0.4
	c-0.434-0.033-1.083,0.667-1.95,2.1l-2,3.75c-0.566,1.067-2.766,6.116-6.599,15.148c-3.466,8.266-5.333,12.415-5.599,12.448
	c-0.233,0.034-1.117-1-2.65-3.099l-3.199-4.2c-0.7-0.767-1.3-0.966-1.8-0.6c-0.567,0.433-0.9,1.533-1,3.299l-0.137,28.577
	c-1.041,0.187-2.08,0.389-3.113,0.62c-7.632,1.7-14.682,4.482-21.147,8.349c-6.266,3.766-11.481,8.232-15.648,13.398
	c-4.132,5.166-7.449,11.598-9.948,19.297c-0.375,1.163-0.713,2.33-1.033,3.499l-5.516-54.442c-0.367-3.366-0.85-5.149-1.45-5.349
	c-0.533-0.167-1.683,0.716-3.45,2.649l-2.8,3.25c-0.533-1.033-1.766-4.016-3.699-8.949l-2.7-7.099l-1.5-3.849
	c-0.933-2.167-1.667-3.25-2.2-3.25c-0.533,0.033-1.016,0.75-1.45,2.149l-0.9,3.35c-0.6,1.767-2.183,9.365-4.75,22.797l-5.049-3.6
	c-1.899-1.333-3.183-1.8-3.849-1.399c-0.833,0.533-1.167,1.6-1,3.199l4.199,27.347c1.182,7.546,2.218,14.036,3.111,19.497
	c-4.383-2.056-8.896-4.027-13.56-5.899C79.296,78.99,45.05,73.54,11.455,76.64l-5.099,1.25c-3.5,1.066-5.466,2.216-5.899,3.45
	c-0.5,1.533-0.6,2.85-0.3,3.949C0.61,86.802,1.897,87.315,4,86.85c0.582,1.667,1.741,4.166,3.506,7.538l3.899,7.199
	c0.2,0.6,0.55,1.05,1.05,1.35c0.6,0.333,1.517,0.517,2.75,0.55l20.098,1.3l17.848,1.7l-16.548,3.25
	c-10.232,1.967-17.064,3.583-20.498,4.85c-0.6,0.2-0.933,0.617-1,1.25c-0.067,0.5,0.033,1.233,0.3,2.199l3.75,11.599
	c2.466,7.366,4.033,11.499,4.699,12.398c0.733,0.967,1.85,1.483,3.35,1.55l2.05-0.2l9.099-2.149
	c6.433-1.467,12.182-2.633,17.248-3.5l-14.648,7.149c-5.433,2.633-8.365,4.1-8.799,4.399c-1.399,0.933-1.933,1.833-1.6,2.7
	c0.2,0.6,1.167,1.75,2.899,3.45c11.166,10.032,17.115,15.181,17.848,15.448c0.9,0.3,2.966-0.233,6.199-1.6l14.548-7.049l5.899-2.95
	l-3.149,3.65c-4.733,5.466-7.833,9.182-9.299,11.148c-2.167,2.899-3.25,5.033-3.25,6.399c0,0.4,0.167,0.883,0.5,1.45
	c1.167,2.1,5.899,6.266,14.198,12.498c8.465,6.3,13.481,9.299,15.048,9c0.667-0.134,1.667-0.951,3-2.45l6.549-8.149l4.799-5.999
	l-2.35,4.999c-2.767,5.9-4.25,9.615-4.45,11.148c-0.066,0.567,0.017,1.033,0.25,1.4l1.45,1.25c1.1,0.767,4.816,2.199,11.148,4.299
	c6.399,2.133,10.798,3.4,13.198,3.8c1.3,0.233,2.183,0.116,2.649-0.35c0.533-0.534,1.683-3.5,3.45-8.899l-0.7,4.4l-0.45,2.999
	c0,0.899,0.25,1.5,0.75,1.8c1.333,0.733,4.216,1.633,8.649,2.699c5.099,1.2,7.932,1.316,8.499,0.35l9.199-15.297l-1.45,12.998
	l-0.35,2.85c0.033,0.699,0.35,1.116,0.95,1.25l8.999,1.149l7.25,0.351l0.266-0.178c-0.679,3.206-1.214,6.476-1.566,9.826
	c-0.2,1.8-0.283,3.949-0.25,6.449c0,3.1,0.167,5.815,0.5,8.148c0.229,1.599,0.507,3.157,0.827,4.681
	c-2.254,1.319-4.368,3.011-6.326,5.118l-0.108,0.141l-1.642-4.74c-1.466-4.832-2.466-7.849-3-9.049
	c-1.066-2.533-2.566-5.133-4.5-7.799c-1.466-2-2.916-3.716-4.349-5.149c-0.367-0.366-0.717-0.95-1.05-1.749
	c-0.3-0.734-0.483-1.316-0.55-1.75c-0.066-0.533-0.433-1.133-1.1-1.8c-0.7-0.7-1.533-1.3-2.5-1.8
	c-3.767-1.867-7.232-2.267-10.399-1.2c-0.257,0.082-0.524,0.188-0.796,0.304c-2.117-1.414-4.086-2.401-5.903-2.953
	c-5.066-1.533-10.015-0.483-14.848,3.149c-0.867,0.667-1.184,1.167-0.95,1.5c0.267,0.333,1.133,0.55,2.6,0.649
	c3.2,0.234,6.266,1.65,9.199,4.25l1.232,1.372c-0.109,0.211-0.23,0.41-0.333,0.628c-0.966,2.033-1.45,4.016-1.45,5.949
	c0,1.033,0.133,1.933,0.4,2.699c0.833,2.566,2.566,3.949,5.199,4.149c1.333,0.134,3.017,1.05,5.05,2.749
	c1.799,1.567,3.533,3.434,5.199,5.6c1.233,1.566,2.6,4.283,4.099,8.149c-9.932-6.232-15.331-9.698-16.198-10.399
	c-2.433-2.133-4.783-3.35-7.049-3.648c-2.367-0.301-4.516,0.399-6.449,2.1c-0.285,0.253-0.559,0.521-0.824,0.801
	c-3.942-0.412-7.204-0.266-9.775,0.449c-5.1,1.433-8.699,4.982-10.799,10.648c-0.366,1.033-0.366,1.616,0,1.75
	c0.367,0.166,1.2-0.101,2.5-0.801c2.833-1.533,6.166-1.982,9.999-1.35l3.426,0.935c-0.129,2.251,0.27,4.08,1.223,5.465
	c1.7,2.466,3.3,4.166,4.799,5.099c1.767,1.101,3.583,1.283,5.449,0.551c2.066-0.834,5.266-0.533,9.599,0.899
	c2.867,0.934,5.766,2.167,8.699,3.7c-1.867,0.6-5,1.149-9.399,1.649l-9.649,0.5l-2.399-0.3c-2.333-0.801-4.466-0.934-6.399-0.4
	c-2.5,0.7-4.166,2.482-4.999,5.35c-0.236,0.804-0.387,1.66-0.472,2.561c-2.531,1.109-4.58,2.337-6.127,3.688
	c-3.966,3.532-5.649,8.315-5.049,14.349c0.1,1.066,0.35,1.582,0.75,1.549c0.4-0.033,1.033-0.649,1.899-1.85
	c1.9-2.6,4.716-4.466,8.449-5.6l2.336-0.434c0.44,0.934,0.916,1.813,1.463,2.584c0.667,0.934,1.517,1.766,2.55,2.5
	c1.066,0.699,1.966,1.066,2.699,1.1l3.5-0.25c0.766-0.233,1.766-0.75,3-1.55l3.5-2.6c1.633-1.134,3.233-1.95,4.799-2.45l5.399-1.799
	l7.149-2.7c2.533-0.933,4.149-1.3,4.849-1.101c3.333,0.967,6.183,2.084,8.549,3.35c2.433,1.334,4.116,2.7,5.05,4.1
	c0.233,0.334,0,1.1-0.7,2.301l-1.9,3.1c-0.733,1.299-1.25,2.615-1.55,3.949l-0.5,0.3l-1.7,1.499c-1.366,1.434-1.6,3.133-0.7,5.1
	c0.776,1.671,2.156,3.072,4.133,4.208l-1.483,2.591c-2.299,3.2-4.982,5.25-8.049,6.15c-1.4,0.433-2.183,0.832-2.35,1.199
	c-0.167,0.333,0.233,0.733,1.2,1.199c5.5,2.533,10.565,2.518,15.198-0.049c2.506-1.406,5.097-3.834,7.771-7.257
	c0.558,0.014,1.104,0.006,1.627-0.043c2.833-0.267,4.999-1.383,6.499-3.35c2.233-2.999,3.35-6.183,3.35-9.548
	c0.033-2.2-0.55-5.2-1.75-9l-2.5-6.599c-1.033-2.433-1.75-4.249-2.15-5.449c-0.6-1.899-0.767-3.2-0.5-3.899
	c0.133-0.434,1.1-1.25,2.9-2.449l4.099-2.75c1.074-0.806,1.942-1.569,2.641-2.299c5.229,5.631,12.314,10.569,21.306,14.797
	c0.975,0.46,1.95,0.878,2.924,1.276L195.73,304.46c-16.031,15.265-27.83,26.18-35.396,32.745c-1.1,1.033-1.583,1.867-1.45,2.5
	c0.1,0.6,0.816,1.434,2.15,2.5c10.398,8.332,19.714,15.581,27.946,21.747c11.865,8.898,18.981,13.614,21.347,14.147
	c2.466,0.566,14.215-1.749,35.246-6.949c21.197-5.266,32.679-8.814,34.445-10.648c0.9-0.933-0.033-14.064-2.8-39.395
	c-2.25-20.921-4.278-36.112-6.087-45.575c6.233-5.997,11.613-14.53,16.136-25.615c4.099-9.999,6.882-20.164,8.349-30.496
	c1.061-7.268,1.89-14.372,2.499-21.322c2.748-0.729,5.036-1.472,6.85-2.225c2.6-1.066,4.8-2.333,6.6-3.8l0.3-0.649l-1.8-8.249
	l0.1,0.25c1.601,3.333,2.65,5.349,3.15,6.049c0.6,0.867,1.216,1.15,1.85,0.849c2.933-1.232,7.832-3.182,14.697-5.849
	c0.567-0.233,0.9-3.483,1-9.749l1.101,3.75c0.732,2.399,1.333,3.766,1.8,4.1c0.433,0.333,2.266-0.117,5.499-1.35l7.398-2.95
	c1.733-0.633,2.9-1.283,3.5-1.95c0.566-0.6,0.7-1.25,0.4-1.95l-0.851-3.399l-0.55-3l2.1,4.099c1.333,2.267,2.566,3.15,3.699,2.65
	l11.349-5.1c1.367-0.566,2.267-1.233,2.7-2c0.399-0.7,0.416-1.383,0.05-2.05l-5.399-9.699l4.25,4.6l5.549,6.449
	c0.566,0.767,1.184,1.35,1.85,1.75c0.767,0.467,1.45,0.566,2.05,0.3c2.433-1.2,6.6-4.033,12.498-8.499
	c5.199-3.9,8.316-6.366,9.349-7.399l2.15-2.15c0.5-0.767,0.416-1.55-0.25-2.35c-0.6-0.767-3.866-3.3-9.799-7.599l-9.499-6.849
	l13.248,6.299c8.499,3.866,13.415,5.732,14.749,5.599c1.333-0.133,3.999-3.133,7.998-8.999l7.999-12.298
	c1.4-2.066,1.816-3.466,1.25-4.199l-2.8-1.35c-0.899-0.433-5.549-1.833-13.948-4.199l-12.848-3.6c5.199-0.566,12.349-0.4,21.447,0.5
	c6.966,0.667,11.581,1.283,13.848,1.85c1.434,0.367,2.883,0.233,4.35-0.4c1.399-0.633,2.533-1.633,3.399-3
	c6.232-13.532,9.516-21.197,9.849-22.997c0.233-1.233,0-2.1-0.7-2.6l-3.549-1.3c-6.499-2.066-13.932-3.316-22.297-3.75l-7.449-0.55
	c2.966-0.833,8.549-1.5,16.748-2c10.598-0.667,19.447-0.316,26.546,1.05c1.767,0.333,3.149,0.333,4.149,0
	c1.2-0.4,2.133-1.333,2.8-2.799c4.866-13.165,7.466-20.714,7.799-22.647l0.3-2.9C474.561,49.277,474.011,48.777,473.044,48.344z
	 M167.084,255.967c2.192-0.584,4.731-0.592,7.603-0.047c0.443,1.335,0.928,2.637,1.454,3.905c-1.015,0.603-2.116,1.101-3.308,1.49
	l-3.1,0.45c-0.533-0.4-1.316-1.949-2.35-4.649l-0.391-1.127C167.026,255.98,167.052,255.976,167.084,255.967z"/>
</svg>
