<?xml version="1.0" encoding="utf-8"?>
<!-- Generator: Adobe Illustrator 16.0.0, SVG Export Plug-In . SVG Version: 6.00 Build 0)  -->
<!DOCTYPE svg PUBLIC "-//W3C//DTD SVG 1.1//EN" "http://www.w3.org/Graphics/SVG/1.1/DTD/svg11.dtd">
<svg version="1.1" id="图层_1" xmlns="http://www.w3.org/2000/svg" xmlns:xlink="http://www.w3.org/1999/xlink" x="0px" y="0px"
	 width="218px" height="268px" viewBox="0 0 218 268" enable-background="new 0 0 218 268" xml:space="preserve">
<path d="M177.664,174.659c3.358-0.09,6.271-0.388,8.766-0.879c3.304,2.403,7.214,3.624,11.752,3.624
	c5.592,0,10.283-1.746,14.078-5.241c3.826-3.527,5.74-7.954,5.74-13.278c0-5.358-1.881-9.852-5.641-13.479
	c-3.795-3.661-8.471-5.491-14.027-5.491c-5.525,0-10.168,1.797-13.928,5.392c-2.16,2.102-3.674,4.498-4.582,7.17
	c0.008-2.121-0.089-4.239-0.247-6.354c2.89-3.715,5.171-8.139,6.825-13.296c0.199-0.623,0.367-1.252,0.544-1.879
	c0.731-0.657,1.452-1.377,2.151-2.214c3.562-4.293,5.393-9.385,5.492-15.275c0.1-5.059-1.299-9.751-4.193-14.078
	c-1.794-2.702-3.73-4.601-5.806-5.709c-1.486-3.579-3.334-6.989-5.565-10.22c1.883-2.821,4.291-7.174,7.228-13.074
	c3.694-7.388,5.675-12.031,5.94-13.927c0.666-4.593-1.447-12.747-6.34-24.461c-4.793-11.415-8.104-17.039-9.934-16.873
	c-1.465,0.167-2.047,4.726-1.748,13.678c0.2,6.589,0.816,14.543,1.848,23.862c0.066,0.666-1.781,3.211-5.541,7.638l-6.962,8.144
	c-2.406-1.549-4.949-2.961-7.665-4.201c-3.832-1.758-7.666-3.095-11.5-4.036c1.16-3.111,2.331-7.263,3.514-12.487
	c1.264-5.657,2.063-10.283,2.396-13.877c0.3-3.295-1.897-9.851-6.589-19.668c-4.594-9.651-7.605-14.36-9.036-14.127
	c-1.065,0.2-1.331,5.874-0.799,17.022c0.565,11.948,0.699,18.321,0.399,19.12c-0.732,2.097-2.813,6.057-6.24,11.881
	c-2.671,4.526-5.102,8.36-7.295,11.507c-2.81,0.541-5.619,1.293-8.43,2.271c-4.46,1.561-8.541,3.554-12.254,5.967
	c-8.174-0.469-16.237,0.293-24.188,2.319c-4.668,1.178-9.134,2.761-13.418,4.708c-2.885-1.662-6.144-2.512-9.794-2.512
	c-5.525,0-10.167,1.847-13.928,5.542c-3.694,3.661-5.541,8.17-5.541,13.528c0,1.931,0.253,3.739,0.743,5.429
	c-2.816,3.439-5.387,7.128-7.682,11.094c-3.587,6.175-6.321,12.711-8.232,19.597c-2.777,0.215-5.322,0.914-7.634,2.096
	c-1.792,0.413-3.346,1.294-4.65,2.668c-0.743,0.783-1.327,1.644-1.768,2.574C1.322,138.057,0,141.834,0,146.205
	c0,5.357,1.963,9.917,5.891,13.678c2.896,2.797,6.238,4.556,10.02,5.291c0.314,1.916,0.669,3.831,1.112,5.741
	c2.252,9.729,6.022,18.637,11.282,26.739c-0.199,0.271-0.396,0.536-0.599,0.816c-2.047,2.853-3.615,5.474-4.721,7.871
	c-0.659-0.056-1.332-0.084-2.018-0.084c-5.558,0-10.233,1.781-14.027,5.342c-3.827,3.595-5.741,8.055-5.741,13.379
	s1.914,9.768,5.741,13.328c3.794,3.562,8.47,5.342,14.027,5.342c5.591,0,10.25-1.747,13.978-5.242
	c3.728-3.494,5.591-7.903,5.591-13.229c0-3.818-0.965-7.189-2.858-10.129c0.56-1.261,1.194-2.495,1.893-3.706
	c4.42,4.264,9.322,7.991,14.743,11.14c9.318,5.425,19.651,8.686,31,9.784c10.849,1.065,21.732,0.101,32.648-2.896
	c4.658-1.286,9.117-2.907,13.4-4.825c0.144,0.257,0.323,0.517,0.576,0.782l3.295,2.445c1.73,1.099,3.112,2.113,4.145,3.045
	c1.365,1.248,2.591,2.72,3.692,4.391c-0.284,0.23-0.573,0.452-0.848,0.701c-3.794,3.462-5.69,7.838-5.69,13.129
	c0,5.326,1.863,9.752,5.591,13.279s8.37,5.291,13.927,5.291c5.625,0,10.301-1.713,14.028-5.141c3.794-3.461,5.69-7.838,5.69-13.129
	c0-5.325-1.863-9.752-5.591-13.279c-3.439-3.225-7.684-4.942-12.71-5.191c-0.043-0.566-0.145-1.162-0.319-1.797
	c-0.898-3.229-2.729-6.34-5.491-9.336c-1.546-1.691-3.129-3.054-4.745-4.109c0.183-0.131,0.37-0.251,0.552-0.383
	c4.702-3.425,8.896-7.186,12.595-11.272c1.354,0.621,2.89,1.25,4.628,1.888c1.213,0.457,2.365,0.841,3.478,1.179
	c0.796,3.39,2.501,6.364,5.159,8.905c3.793,3.627,8.469,5.441,14.027,5.441c5.557,0,10.217-1.798,13.977-5.393
	c3.795-3.627,5.691-8.104,5.691-13.428s-1.896-9.768-5.691-13.328c-3.76-3.562-8.42-5.342-13.977-5.342
	c-5.492,0-10.217,2.047-14.178,6.141c-0.048,0.05-0.088,0.101-0.136,0.15c-0.996-0.036-1.984-0.098-2.959-0.201
	c-0.012-0.001-0.022-0.003-0.033-0.004c2.722-4.92,4.877-10.02,6.466-15.297C176.893,174.676,177.264,174.673,177.664,174.659z"/>
</svg>
