<?xml version="1.0" encoding="utf-8"?>
<!-- Generator: Adobe Illustrator 16.0.0, SVG Export Plug-In . SVG Version: 6.00 Build 0)  -->
<!DOCTYPE svg PUBLIC "-//W3C//DTD SVG 1.1//EN" "http://www.w3.org/Graphics/SVG/1.1/DTD/svg11.dtd">
<svg version="1.1" id="图层_1" xmlns="http://www.w3.org/2000/svg" xmlns:xlink="http://www.w3.org/1999/xlink" x="0px" y="0px"
	 width="226px" height="325px" viewBox="0 0 226 325" enable-background="new 0 0 226 325" xml:space="preserve">
<path d="M221.316,160.975c-1.267-2.067-5.617-3.717-13.052-4.951c-3.376-0.555-7.149-0.981-11.294-1.287
	c-1.596-0.519-3.262-0.863-5.008-1.013c-2.688-0.226-5.129-0.063-7.325,0.487c-0.917-0.015-1.832-0.031-2.776-0.037
	c-10.689-0.089-20.722,0.309-30.104,1.188c10.69-6.411,22.005-11.879,33.953-16.39c7.301-2.734,16.387-5.584,27.254-8.552
	c4.901-1.333,7.502-4.05,7.802-8.151c0.267-3.567-1.184-7.485-4.351-11.752c-6.001-8.168-13.77-14.335-23.304-18.503
	c-10.034-4.434-19.553-5.451-28.554-3.05c-8.122,2.15-15.326,6.442-21.624,12.85c-1.335,0.061-2.678,0.205-4.03,0.452
	c-5.201,0.967-8.686,2.817-10.451,5.551c-0.635,0.967-1.067,1.883-1.301,2.75c-0.5,1.767-0.566,3.833-0.2,6.201l-0.3,1.15
	c-0.233,0.967-0.367,2.05-0.4,3.25c-0.104,1.958,0.178,3.81,0.844,5.556c-4.266,10.006-7.442,21.401-9.503,34.219
	c-2.207-0.028-4.442,0.101-6.706,0.39c2.387-3.64,4.494-7.689,6.314-12.161c4.634-11.335,6.584-23.153,5.851-35.455
	c-0.5-8.102-1.617-14.919-3.351-20.453c-1.934-6.001-4.768-11.068-8.501-15.203c-3.034-3.333-6.951-6.134-11.752-8.401
	c-3.992-1.889-8.495-3.325-13.462-4.351l9.162-22.854c4.134-10.868,7.401-20.303,9.801-28.304
	c2.667-8.968,3.484-13.669,2.451-14.102c-0.934-0.4-3.268,2.034-7.001,7.301c-3.7,5.201-7.718,11.668-12.052,19.403
	c-8.538,15.172-14.326,27.804-17.389,37.918l-0.564,0.038C50.134,66.516,35.66,76.101,26.946,93.43
	c-2.511-4.456-5.812-8.912-9.911-13.368c7.201-15.902,12.735-32.422,16.603-49.558c1.5-6.568,2.484-12.119,2.951-16.653
	c0.4-4.267,0.267-6.518-0.4-6.751c-1.767-0.566-4.734,2.55-8.902,9.352c-3.7,6.034-7.751,13.919-12.152,23.654
	C10.868,49.541,7.417,58.159,4.783,65.96c-2.8,8.435-3.934,13.785-3.4,16.052c0.7,2.967,4.467,7.068,11.302,12.302
	c4.289,3.3,7.853,5.746,10.713,7.368c-1.992,5.535-3.195,11.038-3.609,16.508c-1.02,0.111-2.039,0.257-3.053,0.479
	c-4.067,0.9-7.785,2.55-11.152,4.951c-3.701,2.667-5.484,5.217-5.351,7.651c0.133,2.5,2.383,4.684,6.751,6.551l7.723,3.29
	c0.335,2.194,0.854,4.349,1.578,6.461c1.611,4.721,4.057,8.849,7.319,12.394c-1.527,2.719-2.502,5.621-2.918,8.709
	c-0.467,3.434-0.184,6.701,0.85,9.802c0.833,2.4,2.133,4.534,3.9,6.401c1.733,1.833,3.717,3.184,5.951,4.051l5.101,1.05
	c2.652,0.224,4.973-0.028,6.97-0.739c-1.287,1.113-2.422,2.226-3.405,3.336c-0.817,0.333-1.638,0.705-2.465,1.154
	c-5.101,2.8-8.568,7.117-10.401,12.951c-1.734,5.635-1.534,10.985,0.6,16.053c1.967,4.634,4.917,7.867,8.851,9.701
	c2.034,0.934,4.268,1.384,6.701,1.351c2.134-0.061,4.039-0.506,5.739-1.297c0.533,0.6,1.139,1.195,1.815,1.787
	c-1.313,0.264-2.551,0.661-3.704,1.21c-2.767,1.301-4.784,3.25-6.051,5.852c-2.134,4.4-1.834,9.768,0.9,16.102
	c2.701,6.368,6.951,11.568,12.752,15.603c6.167,4.301,12.852,6.918,20.053,7.852c6.968,0.899,12.352,0,16.152-2.7
	c3.901-2.768,5.534-6.802,4.901-12.103c-0.125-1.081-0.39-2.185-0.783-3.309c0.219-4.886,1.622-9.139,4.234-12.743
	c2.941-4.073,6.369-5.819,10.282-5.254c3.157,1.241,6.91,2.045,11.271,2.402c3.978,0.323,7.62,0.183,10.931-0.421
	c-0.21,2.375-0.26,4.525-0.129,6.423c0.491,6.724,2.713,12.673,6.656,17.851c-5.261,3.044-9.615,8.393-13.058,16.054
	c-3.667,8.035-4.983,15.503-3.95,22.404c0.633,4.268,2.1,7.518,4.4,9.751c2.101,1.968,5.001,3.233,8.701,3.801
	c6.468,0.934,13.303-1.917,20.504-8.552c7.668-7,11.935-15.152,12.801-24.453c0.801-8.602-0.833-15.136-4.9-19.604
	c-2.922-3.248-6.451-4.98-10.576-5.222c-2.265-3.835-3.664-7.199-4.176-10.081c-0.7-3.733-0.517-8.768,0.55-15.102l0.125-1.044
	c4.299-3.493,7.666-7.619,10.106-12.375c0.202,0.131,0.418,0.275,0.614,0.4l0.306,0.216c0.059,0.031,0.133,0.063,0.193,0.093
	c1.669,1.043,3.148,1.891,4.408,2.509c2.633,1.333,5.484,2.333,8.551,3c7.301,1.634,14.703-0.233,22.203-5.602
	c6.701-4.767,12.669-11.617,17.903-20.553c5.001-8.468,8.317-16.952,9.952-25.453C224.717,172.393,224.15,165.643,221.316,160.975z
	 M82.495,233.836c1.961-2.072,4.137-4.79,6.521-8.134c1.812,3.461,4.03,6.592,6.66,9.39c-2.761,0.933-5.274,3.119-7.531,6.596
	c-1.593,2.5-2.738,4.907-3.448,7.227c-1.062-0.964-2.192-1.938-3.403-2.926c-2.665-2.182-5.256-4.061-7.778-5.651
	C76.463,239.146,79.456,236.987,82.495,233.836z M49.575,182.527c0.979-0.687,1.837-1.564,2.585-2.618
	c0.597,0.211,1.204,0.418,1.831,0.618c0.561,0.178,1.125,0.319,1.687,0.48c-2.922,1.611-5.521,3.22-7.814,4.825
	C48.503,184.906,49.076,183.809,49.575,182.527z"/>
</svg>
