<?xml version="1.0" encoding="utf-8"?>
<!-- Generator: Adobe Illustrator 16.0.0, SVG Export Plug-In . SVG Version: 6.00 Build 0)  -->
<!DOCTYPE svg PUBLIC "-//W3C//DTD SVG 1.1//EN" "http://www.w3.org/Graphics/SVG/1.1/DTD/svg11.dtd">
<svg version="1.1" id="图层_1" xmlns="http://www.w3.org/2000/svg" xmlns:xlink="http://www.w3.org/1999/xlink" x="0px" y="0px"
	 width="282px" height="282px" viewBox="0 0 282 282" enable-background="new 0 0 282 282" xml:space="preserve">
<path d="M279.8,198.15c-1.399-5.967-3.917-11.834-7.55-17.601c-2.406-3.847-5.254-7.456-8.493-10.856
	c1.088-12.861-0.442-23.447-4.606-31.743c-3-6-8.316-12.05-15.95-18.15l-9.15-7.2L223.15,104c-4-3.167-7.051-5.733-9.15-7.7
	c-3.967-3.717-7.355-6.04-10.181-7.005c-1.127-1.13-2.399-1.562-3.819-1.294c-1.733,0.333-2.8,2.867-3.2,7.6
	c-0.2,2.333-0.25,6.733-0.149,13.2c0.066,1.767-0.2,3.65-0.801,5.65c-0.403,1.366-0.912,2.61-1.512,3.75
	c-0.483-3.453-1.106-6.84-1.888-10.15c-2.206-9.248-5.464-17.444-9.756-24.607c4.181-11.158,7.466-24.904,9.855-41.243
	c1.4-9.467,2.184-18.05,2.351-25.75c0.199-7.567-0.234-12.534-1.301-14.9c-0.399-0.866-0.8-1.366-1.199-1.5
	c-0.367-0.133-0.867,0.034-1.5,0.5c-1.434,1.134-3.417,4.434-5.95,9.9c-2.733,5.8-5.384,12.616-7.95,20.45
	c-4.054,12.327-7.009,24.117-8.875,35.374c-3.228-3.069-7.352-5.911-12.375-8.524c-6.267-3.233-12.967-5.6-20.1-7.1
	c-11.653-2.45-22.623-2.37-32.917,0.207L95.75,46.7c-3.667-2.134-6.367-3.634-8.1-4.5c-2.3-1.134-4.617-1.417-6.95-0.85
	c-1.601,0.394-2.698,1.078-3.313,2.038c-1.096-1.184-2.206-2.364-3.337-3.538C62.783,28.184,51.433,18.5,40,10.8
	c-3.567-2.333-5.233-2-5,1c0.267,3.034,2.55,8.684,6.85,16.95C46.383,37.45,51.9,46.6,58.4,56.2
	c3.833,5.673,7.603,10.917,11.315,15.774c-5.978,7.75-9.958,17.45-11.916,29.125c-1.981,11.951-1.344,23.155,1.896,33.619
	c-1.214,1.491-2.364,2.822-3.445,3.981c-4.667,4.966-10.283,9.55-16.85,13.75c-9.733,6.233-17.05,11.75-21.95,16.55
	c-3.667,3.566-7.25,8.117-10.75,13.65c-2.367,3.699-4.133,7.934-5.3,12.699c-1.033,4.167-1.383,7.584-1.05,10.25
	c0.2,1.634,0.633,2.551,1.3,2.75c0.833,0.234,2.067-0.6,3.7-2.5c3.133-3.666,7.667-7.316,13.6-10.949
	c9.233-5.7,16.883-10.834,22.95-15.4c7.733-5.834,13.483-11.15,17.25-15.95l9.601-10.91c4.48,6.413,9.845,12.334,16.099,17.761
	c5.485,4.768,11.294,8.842,17.42,12.24l-0.67,2.51c-0.934,3.1-2.083,6.033-3.45,8.8c-4.5,9.1-7.5,15.583-9,19.45
	c-3,7.766-5.05,15.866-6.15,24.3c-1.367,10.533-1.583,19.433-0.65,26.7c0.7,5.434,1.967,9.633,3.8,12.6c1.9,3,3.283,4.334,4.15,4
	c0.833-0.334,1.867-2.566,3.1-6.7c1.8-6.233,3.167-10.566,4.1-13c2.867-7.433,7.133-15.899,12.8-25.399
	c4.233-7.033,7.233-13.684,9-19.95c1.902-6.734,3.003-14.891,3.319-24.442c2.841,0.764,5.143,1.203,6.894,1.313
	c1.235,2.77,3.111,5.23,5.637,7.379c4.557,3.915,10.083,5.895,16.556,5.979c0.568,1.587,1.277,3.097,2.144,4.521
	c1.935,3.223,4.512,5.858,7.717,7.923c-0.42,2.45-0.398,5.09,0.084,7.927c0.533,3.5,1.516,6.083,2.949,7.75
	c2,2.333,4.851,4.317,8.551,5.95c3.533,1.533,6.583,2.233,9.149,2.1c2.601-0.133,4.101-0.566,4.5-1.3
	c0.366-0.634-0.066-1.716-1.3-3.25c-1.233-1.566-2.133-3.634-2.7-6.2c-0.391-1.848-0.56-3.729-0.523-5.638
	c5.101,1.396,9.531,2.494,13.273,3.288l4.9,0.3c1.399-0.267,2.899-1.017,4.5-2.25c2.073-1.606,3.952-3.275,5.645-5.003
	c1.878,3.13,2.423,6.313,1.605,9.553c-0.4,1.667-0.366,2.667,0.1,3l3.05-0.3c2.967-0.833,5.518-2.233,7.65-4.2
	c2.6-2.366,3.95-5.1,4.05-8.199c0.134-2.934-0.433-5.533-1.7-7.801c-1.181-2.113-3.083-4.111-5.687-5.994
	c0.218-0.59,0.421-1.186,0.607-1.786c2.198-1.859,4.089-4.131,5.63-6.869c2.1-3.767,3.033-7.55,2.8-11.351
	c-0.167-2.866-1.05-5.633-2.65-8.3c-1.3-2.2-2.8-3.95-4.5-5.25c-1.099-0.83-2.124-1.28-3.079-1.359
	c2.534-1.66,5.371-3.553,8.529-5.69c1.088-0.737,2.125-1.444,3.113-2.121l1.537,2.471c6.133,9.467,12.75,16.283,19.85,20.45
	c6.934,4.067,12.517,8.417,16.75,13.05c2.566,2.834,4.85,6.134,6.85,9.9c1.634,3,2.9,4.383,3.801,4.15c0.833-0.2,1.449-1.867,1.85-5
	C281.217,206.983,280.9,202.816,279.8,198.15z M219.524,150.172c0.986,0.994,2.057,2.287,3.217,3.896L220.2,154.4
	c-0.873,0.129-1.716,0.255-2.541,0.379C218.473,153.296,219.105,151.764,219.524,150.172z M250.567,158.598
	c-0.863-0.588-1.72-1.179-2.617-1.748c-1.061-0.674-2.124-1.374-3.188-2.087c1.078-1.037,1.711-1.79,1.884-2.251
	C247.915,154.334,249.222,156.358,250.567,158.598z M195.51,133.751c2.968-3.007,5.317-6.041,7.04-9.101
	c2.067-3.6,3.634-7.867,4.7-12.8c0.396-1.783,0.646-3.523,0.786-5.228c1.164,1.754,2.418,3.941,3.764,6.578l4.3,8.25
	c3.7,6.733,8.033,11.716,13,14.95c5.5,3.6,9.417,6.583,11.75,8.95c1.744,1.761,3.578,4.006,5.5,6.729l-5.5-0.379l-0.435,0.057
	c-3.931-2.811-7.885-5.877-11.865-9.207c-2.533-2.167-4.933-3.966-7.2-5.4c-1.648-1.06-3.008-1.797-4.091-2.225
	c-1.047-1.083-2.281-1.546-3.709-1.375c-1.233,0.167-2.066,1.5-2.5,4l-0.6,6.55c-0.221,2.584-0.987,5.234-2.276,7.95
	c-1.783-3.167-3.763-6.083-5.974-8.7c-2.224-2.647-4.453-4.729-6.688-6.261C195.522,135.97,195.524,134.856,195.51,133.751z"/>
</svg>
