<?xml version="1.0" encoding="utf-8"?>
<!-- Generator: Adobe Illustrator 16.0.0, SVG Export Plug-In . SVG Version: 6.00 Build 0)  -->
<!DOCTYPE svg PUBLIC "-//W3C//DTD SVG 1.1//EN" "http://www.w3.org/Graphics/SVG/1.1/DTD/svg11.dtd">
<svg version="1.1" id="图层_1" xmlns="http://www.w3.org/2000/svg" xmlns:xlink="http://www.w3.org/1999/xlink" x="0px" y="0px"
	 width="706px" height="368px" viewBox="0 0 706 368" enable-background="new 0 0 706 368" xml:space="preserve">
<path d="M700.092,12.489c-16.387-5.962-34.206-9.792-53.457-11.491c-18.685-1.666-37.402-1.249-56.154,1.249
	c-18.817,2.531-36.237,6.994-52.257,13.389c-16.653,6.628-30.625,14.871-41.916,24.729c-1.166-4.929-4.146-8.809-8.942-11.64
	c-4.597-2.731-9.193-3.597-13.789-2.598c-0.733,0.2-1.116,0.433-1.149,0.7c0,0.233,0.25,0.633,0.75,1.199
	c5.129,5.929,7.693,13.373,7.693,22.332c-1.199-2.865-2.981-5.429-5.346-7.694c-2.331-2.265-4.862-3.864-7.594-4.796
	c-0.5-0.167-0.85-0.167-1.049,0c-0.167,0.133-0.267,0.466-0.3,0.999c-0.233,10.425-1.649,20.8-4.247,31.125
	c-2.564,10.325-6.145,19.984-10.741,28.977l-10.841,21.582c-4.63,9.026-9.093,17.036-13.39,24.031
	c-8.223,13.305-17.874,26.203-28.946,38.696c-5.175-16.548-15.139-31.559-29.882-45.034c8.58-11.314,17.148-27.16,25.705-47.569
	c4.33-10.258,7.395-19.001,9.193-26.229c1.898-7.594,1.981-11.857,0.249-12.79c-1.998-1.066-6.012,0.549-12.04,4.846
	c-5.695,4.03-12.307,9.809-19.834,17.336c-16.329,16.234-28.968,31.797-37.928,46.689c-7.771-2.416-16.107-3.335-25.021-2.726
	c-6.531,0.477-12.377,1.756-17.54,3.833c-13.208-15.184-27.656-29.604-43.36-43.251c-15.754-13.655-24.979-19.867-27.678-18.635
	c-1.232,0.566-0.982,4.213,0.75,10.941c1.832,7.027,4.713,15.154,8.643,24.38c10.091,23.71,21.789,42.573,35.083,56.611
	c-4.597,13.054-6.493,27.218-5.675,42.496c-15.204-11.188-27.857-21.893-37.95-32.112c-14.821-15.021-26.062-30.658-33.723-46.912
	c-7.627-16.253-8.276-31.524-1.948-45.813c0.267-0.666,0.05-1.033-0.649-1.099c-3.131-0.433-6.012-0.117-8.643,0.949
	c-3.164,1.299-5.479,3.563-6.944,6.794c-0.3-3.897,0.316-7.86,1.849-11.89c1.599-4.164,3.763-7.294,6.495-9.393
	c0.366-0.267,0.516-0.533,0.45-0.799l-0.649-0.6c-4.597-1.798-9.026-1.499-13.29,0.899c-4.629,2.598-7.46,6.928-8.493,12.989
	c-14.854-8.593-30.142-14.754-45.862-18.485c-14.988-3.53-29.493-4.696-43.515-3.497c-13.789,1.199-26.162,4.58-37.12,10.142
	c-11.125,5.662-20,13.173-26.628,22.532c-1.965,2.365-2.548,3.847-1.749,4.446c0.766,0.6,2.332-0.033,4.696-1.898
	c0.014-0.011,0.028-0.02,0.042-0.031c20.696,2.286,41.249,12.44,61.658,30.506c18.718,16.62,33.29,35.888,43.714,57.803
	c0.966,2.065,2.298,3.497,3.997,4.296c1.465,0.699,3.431,1.016,5.895,0.949c14.722-0.466,35.455,2.714,62.2,9.542
	c30.992,7.919,57.307,18.137,78.971,30.64c0.828,3.457,1.828,6.759,2.998,9.906c-33.875,13.567-59.128,25.733-75.724,36.492
	c-26.545,17.119-43.181,36.47-49.909,58.052c-0.766,2.465-0.05,2.964,2.148,1.499c19.251-13.057,36.836-21.532,52.757-25.43
	c15.92-3.863,28.959-2.848,39.118,3.048l1.099,0.25c0.333-0.101,0.6-0.433,0.799-0.999c4.863-13.789,9.509-24.181,13.938-31.175
	c6.704-10.652,15.178-18.562,25.419-23.732c8.382,11.856,18.96,21.3,31.735,28.329c3.821,2.091,7.621,3.79,11.401,5.141
	c0.279,2.749,0.75,5.499,1.438,8.248c0.899,3.563,1.732,5.412,2.498,5.545c0.6,0.134,1.433-0.232,2.498-1.099
	c0.868-0.688,1.645-1.526,2.336-2.508c1.224,2.968,2.591,5.493,4.109,7.554c1.831,2.465,3.33,3.68,4.496,3.646
	c0.766-0.066,1.549-1.248,2.348-3.547c0.717-2.094,1.225-4.542,1.547-7.303c1.238,0.883,2.207,1.239,2.899,1.059
	c0.667-0.167,1.183-0.883,1.549-2.148c0.42-1.457,0.566-3.475,0.444-6.039c4.376-0.45,8.726-1.409,13.045-2.904
	c1.383-0.482,2.727-1.007,4.05-1.554c0.112,3.101,0.451,6.088,1.046,8.948c0.8,3.764,1.732,5.662,2.798,5.695
	c0.866,0.033,1.832-0.899,2.897-2.798c0.752-1.284,1.358-2.669,1.827-4.147c1.17,2.506,2.636,5.167,4.418,7.994
	c3.431,5.43,5.929,7.994,7.494,7.693c1.065-0.199,1.599-3.247,1.599-9.143c0.029-3.638-0.143-7.8-0.513-12.479
	c0.626,0.374,1.276,0.725,1.961,1.04c2.332,1.099,3.813,1.398,4.446,0.898c0.967-0.766,0.783-3.464-0.549-8.094
	c-1.149-3.994-2.694-7.726-4.588-11.225c2.721-2.927,5.174-6.139,7.359-9.634c17.034,9.261,30.353,18.795,39.943,28.603
	c15.154,15.487,25.763,35.154,31.824,59.002c0.333,1.332,0.799,2.031,1.398,2.098c0.633,0.067,1.282-0.549,1.949-1.848
	c2.197-4.363,4.729-7.645,7.594-9.842c2.864-2.165,6.361-3.531,10.491-4.098c8.493-1.132,18.535,1.933,30.125,9.193
	c11.058,6.961,23.215,17.568,36.471,31.824c1.466,1.564,2.465,2.164,2.997,1.799c0.566-0.334,0.467-1.6-0.3-3.798
	c-5.262-14.821-9.741-26.128-13.438-33.922c-5.329-11.157-11.341-20.616-18.035-28.377c-15.487-17.985-39.618-31.724-72.392-41.217
	c-12.023-3.497-22.814-7.61-32.373-12.34c-6.338-3.146-12.806-6.917-19.397-11.282c3.367-9.325,4.861-18.926,4.494-28.798
	c5.99-6.844,13.253-13.617,21.798-20.32c13.988-10.991,30.274-20.933,48.859-29.826c18.053-8.659,36.338-15.437,54.855-20.333
	c18.918-4.996,35.971-7.444,51.158-7.344c2.932,0,5.013-0.716,6.245-2.148c0.899-1,1.549-2.765,1.948-5.296
	c3.864-24.547,17.786-46.912,41.767-67.095c20.51-17.26,43.646-29.494,69.391-36.729c3.209,0.314,5.053-0.077,5.498-1.19
	C704.454,14.737,703.155,13.588,700.092,12.489z"/>
</svg>
