<?xml version="1.0" encoding="utf-8"?>
<!-- Generator: Adobe Illustrator 16.0.0, SVG Export Plug-In . SVG Version: 6.00 Build 0)  -->
<!DOCTYPE svg PUBLIC "-//W3C//DTD SVG 1.1//EN" "http://www.w3.org/Graphics/SVG/1.1/DTD/svg11.dtd">
<svg version="1.1" id="图层_1" xmlns="http://www.w3.org/2000/svg" xmlns:xlink="http://www.w3.org/1999/xlink" x="0px" y="0px"
	 width="319px" height="374px" viewBox="0 0 319 374" enable-background="new 0 0 319 374" xml:space="preserve">
<path d="M316.846,77.661c-1.199-1.633-3.517-1.5-6.949,0.4c-4.668,3-8.535,5.251-11.604,6.751l-8.951,4.201
	c6.668-5.634,12.336-11.285,17.003-16.952c5.867-7.134,9.401-13.519,10.603-19.153c0.667-3.034,0.865-5.734,0.6-8.101
	c-0.232-2.067-0.7-3.333-1.399-3.8c-1.366-0.9-3.733-0.317-7.102,1.75l-10.901,7.301l-10.552,6.651
	c7.168-7.501,12.519-13.752,16.054-18.752c6.533-9.202,9.801-17.269,9.801-24.204c0-9.168-2.635-13.751-7.9-13.751
	c-3.102,0-6.468,1.333-10.102,4c-2.567,1.934-6.334,5.467-11.303,10.601l-8.201,8.852c-5.166,5.067-10.351,9.484-15.551,13.251
	c-3.5,2.534-8.318,5.634-14.453,9.301c-10.269,6.134-15.969,9.618-17.103,10.452c-5.399,4-8.769,8.334-10.103,13.001
	c-0.666,2.367-1.815,7.051-3.449,14.052c-2.441,9.884-4.479,17.143-6.117,21.783l-2.134-4.431c-1.834-3.601-3.233-5.884-4.2-6.851
	c-0.667-0.667-3.167-1.383-7.501-2.15l-5.12-0.801c-7.543-5.699-15.07-10.373-22.584-14.001c-9.634-4.634-16.269-5.901-19.902-3.8
	l-3.929,2.122c-3.09-1.302-6.808-2.593-11.173-3.872c-7.368-2.167-12.668-2.917-15.902-2.25c-2.847,0.552-7.226,5.195-13.135,13.922
	l-6.167,1.53l-4.234,0.734c1.015-8.409,1.245-12.549,0.684-12.386c-2.024,0.561-5.313,7.407-9.868,20.531
	c-1.098,1-2.519,1.894-4.284,2.672l-4.38,1.657c-6.811-4.029-13.75-9.882-20.823-17.609C49.98,75.378,43.579,67.41,35.312,56.409
	c-4.301-5.767-7.651-9.285-10.052-10.551c-1.733-0.9-3.4-0.617-5,0.85c-1.9,1.7-2.85,4.567-2.85,8.601c0,4.601,0.9,9.835,2.7,15.702
	c2.067,6.701,4.967,12.902,8.701,18.604c-2.2-2.134-4.451-3.467-6.751-4c-1.967-0.467-3.467-0.267-4.5,0.6
	c-1.167,0.967-1.7,2.833-1.6,5.601c0.066,3,0.883,6.501,2.45,10.501c3.934,10.001,11.151,20.286,21.653,30.854
	c-1.6-0.9-3.267-1.467-5-1.7c-2-0.267-3.284,0.067-3.851,1c-1.7,2.834-0.85,6.701,2.55,11.602
	c4.5,6.501,12.702,12.519,24.603,18.053c-1.733-0.2-3.083,0.066-4.05,0.8c-0.9,0.667-1.35,1.55-1.35,2.65
	c0,2.601,1.733,5.218,5.201,7.851c4.334,3.267,11.001,6.184,20.002,8.751c-1.133,0.333-1.883,0.85-2.25,1.55
	c-0.7,1.367,0.133,3.018,2.5,4.951c3,2.467,7.668,4.385,14.002,5.75c0.333,1.5,1.6,2.9,3.801,4.201
	c1.833,1.102,3.719,1.744,5.648,1.984c-1.955,7.546-2.948,15.037-2.948,22.469c0,6.602,0.867,13.135,2.6,19.604
	c-5.801,0.699-10.651,3.699-14.552,9c-3.961,5.348-6.397,12.4-7.319,21.146l-1.182,1.107l-4.951,4.699
	c-2.167,1.801-3.884,2.717-5.151,2.75c-3.167-2.101-6.551-6.117-10.151-12.052c-2.5-4.167-4.834-8.769-7.001-13.801
	c-2.034-4.668-3.7-7.785-5-9.353c-2.5-3.033-5.934-4.768-10.301-5.201c-1.234-0.1-2.634,0.218-4.201,0.951
	c-0.987,0.457-1.912,1.015-2.778,1.662c-1.067-0.52-2.457-0.592-4.173-0.213c-2.4,0.5-4.917,1.75-7.551,3.75
	c-1.733,1.367-2.5,2.451-2.3,3.251c0.2,0.866,1.583,1.45,4.15,1.75l5.242,0.759c0.101,1.457,0.402,2.524,0.909,3.191l3.801,2.951
	l1.45,1.05c2.6,1.867,7.967,7.552,16.102,17.052c-7.468-4.434-14.168-7.384-20.103-8.851c-6.124-1.47-10.26-1.009-12.46,1.329
	c-1.705-0.584-3.632-0.619-5.792-0.079c-3.367,0.833-5.934,2.784-7.701,5.851c-0.534,0.934-0.634,1.635-0.3,2.102
	c0.3,0.4,0.867,0.601,1.7,0.601l7.313,0.978c0.219,1.222,0.665,2.662,1.389,4.373c0.367,0.834,1.517,1.5,3.451,2l7.451,1.25
	l9.602,1.301c4.434,0.634,8.785,1.551,13.052,2.751c7.067,1.967,12.902,5.351,17.502,10.151c2.3,2.399,4.684,5.816,7.151,10.252
	l0.2,1.198c0.267,0.935,0.684,1.718,1.25,2.351c1.201,1.308,2.917,1.89,5.143,1.758l0.857,1.244c1.434,2.3,2.517,4.383,3.25,6.25
	c0.5,1.268,1.05,1.951,1.65,2.051c0.7,0.133,1.434-0.617,2.2-2.25c0.9-1.867,1.45-3.867,1.65-6.002
	c0.191-2.044-0.03-3.828-0.619-5.383c0.206-0.283,0.388-0.571,0.519-0.867c0.567-1.301,0.667-2.75,0.3-4.352
	c-0.367-1.732-1.183-3.066-2.45-4c-1.4-1.033-2.7-2.185-3.9-3.451c-1.534-1.633-2.534-3.101-3-4.4
	c0.633-2.266,2.634-4.35,6.001-6.25c1.959-0.913,3.396-1.637,4.346-2.18c0.971,1.33,1.779,2.272,2.405,2.779
	c0.967,0.866,1.667,1.301,2.1,1.301c0.567,0,0.9-0.584,1-1.75l0.4-2.551l0.4-1.802c6.301,1.534,11.168,2.251,14.602,2.149
	c8.734-0.231,16.385-3.482,22.953-9.75c8.434,3.468,15.202,5.435,20.303,5.9l3.718-0.253c1.181,2.144,2.924,4.878,5.233,8.204
	l0.5,3.051l0.449,6.851c0.101,3.268,0.051,5.385-0.149,6.352c-0.367,2.101-0.55,3.566-0.55,4.4c0,3.967,0.768,6.834,2.3,8.602
	c1.5,1.699,3.101,2.685,4.802,2.949l0.795-0.051c0.233,0.226,0.479,0.454,0.734,0.686c-0.186,10.728,0.714,19.334,2.721,25.771
	c1.102,3.566,3.834,9.168,8.2,16.803c0.769,1.333,1.334,2.1,1.701,2.3c0.333,0.2,0.685-0.034,1.05-0.7l3.751-8.451l5.45,3.9
	c3.102,2.167,4.834,3.135,5.2,2.9c0.548-0.346,1.133-3.684,1.754-9.996c2.034,3.472,4.265,6.46,6.696,8.945l6.802,5.951
	c0.399,0.366,0.7,0.483,0.899,0.351l0.451-1.45l2-8.451c0.934,0.633,3.668,2.65,8.201,6.051c0.967,0.7,1.616,1.033,1.949,1
	l0.201-0.25c0.262-3.011,0.263-6.146,0.031-9.392c9.414,7.571,14.389,11.187,14.92,10.842c0.367-0.233,0.565-2.284,0.6-6.151
	l-0.148-7.399c3.801,1.935,8.301,3.717,13.502,5.351c0.633,0.2,1.133,0.135,1.5-0.199c0.365-0.367,0.5-0.983,0.399-1.851
	c-0.724-7.028-2.588-14.204-5.562-21.524c8.509,2.886,13.019,4.162,13.512,3.822c0.334-0.199,0.135-2.101-0.6-5.701l-1.451-6.75
	l6.002,1.449l5.451,1.2l1.198-0.101c0.134-0.2,0.052-0.733-0.25-1.602c-2.192-6.326-5.096-12.32-8.673-17.994l1.872-0.106l5.001-0.2
	c0.366,0.033-0.268-1.467-1.9-4.501l-3.149-5.601l6.552-1l6.35-0.649l1.852-0.25c0.134-0.233-0.148-0.851-0.852-1.851
	c-9.166-13.303-21.135-23.121-35.903-29.455c-12.511-5.334-25.767-7.733-39.765-7.2c1.66-0.761,3.039-1.334,4.109-1.7
	c1.232-0.434,1.867-0.768,1.9-1c0.033-0.2-0.484-0.55-1.551-1.05c-1.067-0.5-3.217-1.234-6.451-2.201
	c-1.766-0.535-3.137-0.922-4.139-1.171c0.805-2.655,1.477-5.449,2.014-8.383c0.398-0.506,0.758-0.988,1.074-1.447
	c2.233-3.268,2.867-5.867,1.9-7.801l-0.9-0.986c0.524-0.953,1.123-2.066,1.801-3.363c2.201-4.168,3.318-6.802,3.352-7.901
	c0-0.399-0.184-0.7-0.551-0.899c-0.639-0.308-2.206,0.215-4.667,1.53l-0.218-6.646c1.697-0.332,2.963-0.809,3.785-1.438
	c0.666-0.466,1.049-1.05,1.149-1.75v-0.398c0-0.701-0.2-1.567-0.601-2.603c2.166,1.733,3.718,2.603,4.65,2.603
	c1.133,0,2.949-0.502,5.45-1.502c2.733-1.065,4.534-2.101,5.399-3.101c0.4-0.5,0.602-0.983,0.602-1.449v-0.25
	c-0.134-0.733-0.551-1.649-1.25-2.751c3.199,1.434,5.934,1.801,8.201,1.102c2.6-0.734,4.584-1.451,5.95-2.15
	c2.399-1.201,3.718-2.584,3.95-4.15l0.051-0.649c0-0.5-0.283-1.134-0.852-1.9l-1.601-2c3.101,0.8,6.019,1.033,8.752,0.699
	c2.435-0.333,4.185-1.017,5.25-2.05l1.451-1.2c2.899-2.269,4.532-4.019,4.899-5.25c0.435-1.434-0.117-2.751-1.649-3.951
	c-1.566-1.233-3.918-2.717-7.052-4.451c-2.768-1.534-5.385-2.85-7.852-3.951c15.669,1.367,25.903,1.067,30.704-0.9
	c4.167-1.733,7.983-4.134,11.452-7.201c3-2.7,4.9-5.084,5.699-7.151c1.102-3,1.168-5.184,0.201-6.551
	c-1.135-1.667-4.4-2.5-9.801-2.5c-2.636-0.033-6.636,0.05-12.003,0.25l13.201-4.151c5.399-1.833,9.067-3.333,11.002-4.5
	c3-1.8,6.034-4.734,9.103-8.801c2.6-3.434,4.25-6.184,4.949-8.251c0.768-2.234,1.083-3.9,0.95-5.001
	c-0.101-0.833-0.482-1.433-1.149-1.8l-7.65-0.25l-10.553,1.701c7.769-4.567,13.853-9.102,18.253-13.602
	c4.468-4.601,7.602-9.601,9.4-15.002c1.067-3.167,1.733-5.584,2-7.251C318.413,81.928,318.079,79.394,316.846,77.661z
	 M80.011,182.833c0.408-0.088,0.859-0.142,1.354-0.158l0.587,0.072L80.011,182.833z M137.963,173.18l-0.055,0.013
	c0.176-0.276,0.352-0.552,0.524-0.832C138.276,172.641,138.12,172.916,137.963,173.18z"/>
</svg>
