<?xml version="1.0" encoding="utf-8"?>
<!-- Generator: Adobe Illustrator 16.0.0, SVG Export Plug-In . SVG Version: 6.00 Build 0)  -->
<!DOCTYPE svg PUBLIC "-//W3C//DTD SVG 1.1//EN" "http://www.w3.org/Graphics/SVG/1.1/DTD/svg11.dtd">
<svg version="1.1" id="图层_1" xmlns="http://www.w3.org/2000/svg" xmlns:xlink="http://www.w3.org/1999/xlink" x="0px" y="0px"
	 width="330px" height="183px" viewBox="0 0 330 183" enable-background="new 0 0 330 183" xml:space="preserve">
<path d="M326.652,127.276c-0.666-5.46-2.563-11.652-5.693-18.577c-2.53-5.627-5.261-10.504-8.19-14.633
	c-4.561-6.425-7.657-13.4-9.288-20.924c-3.996-19.077-9.705-33.826-17.129-44.247c-7.425-10.387-16.098-15.797-26.02-16.23
	c-11.119-0.466-22.105,5.311-32.959,17.329c-10.661,11.806-19.101,27.299-25.329,46.461c-1.056-0.378-2.127-0.734-3.213-1.07
	c-2.521-12.662-8.145-24.997-16.903-37.001c-12.186-16.68-27.45-28.25-45.795-34.708c-14.849-5.227-30.014-4.694-45.495,1.598
	c-20.176,8.223-39.519,25.869-58.03,52.936l-4.444,5.693c-3.596,4.328-6.942,7.857-10.038,10.587
	C8.271,83.213,2.445,92.568,0.647,102.557c-1.532,8.855-0.466,16.514,3.196,22.972c3.396,5.96,8.207,9.705,14.433,11.236
	c6.392,1.599,12.651,0.499,18.777-3.296c7.058-4.395,10.903-11.086,11.536-20.076c0.5-6.99-0.433-14.215-2.796-21.673l-5.244-13.035
	c-2.197-5.227-2.23-9.971-0.1-14.232c11.12-22.107,25.336-38.121,42.648-48.042c17.313-9.888,34.375-11.769,51.188-5.643
	c12.651,4.594,24.087,12.402,34.309,23.422c10.318,11.111,17.983,24.222,23.016,39.315c-6.981-1.481-14.52-2.186-22.616-2.111
	c-8.956,0.1-17.545,1.515-25.769,4.245c-8.09,2.697-15.282,6.492-21.574,11.386c-5.993,4.694-10.67,9.988-14.033,15.881
	c-3.363,5.959-5.044,12.002-5.044,18.128c0,3.988,0.706,7.796,2.103,11.428c-9.906-0.201-16.717-0.099-20.43,0.308
	c-4.828,0.5-7.924,2.547-9.289,6.143c-1.232,3.13-0.932,6.459,0.899,9.988c2.064,3.928,5.976,6.459,11.736,7.591
	c4.395,0.865,8.506,0.849,12.335-0.05c4.495-1.1,8.557-2.797,12.186-5.094c1.531-0.964,2.937-2.021,4.232-3.16
	c2.029,1.742,4.276,3.43,6.754,5.058c9.439,6.201,20.178,10.261,32.214,12.185c0,0.033-0.003,0.065-0.003,0.1
	c0,3.463,0.933,6.426,2.797,8.891c1.831,2.463,4.045,3.695,6.642,3.695s4.81-1.232,6.642-3.695c1.619-2.181,2.52-4.754,2.707-7.716
	c8.573-0.124,16.731-1.14,24.459-3.071c1.163-0.287,2.301-0.598,3.424-0.922c-0.01,0.273-0.027,0.542-0.027,0.821
	c0,4.128,1.082,7.642,3.246,10.538c2.164,2.93,4.777,4.395,7.84,4.395c3.063,0,5.678-1.465,7.842-4.395
	c2.164-2.896,3.246-6.41,3.246-10.538c0-3.686-0.869-6.877-2.594-9.581c3.559-2.318,6.651-4.895,9.269-7.735
	c0.804,0.64,1.685,1.33,2.663,2.085c4.494,3.463,7.907,5.859,10.238,7.191c6.857,4.162,13.766,5.926,20.725,5.293
	c6.426-0.599,11.137-2.93,14.133-6.99c2.63-3.529,2.563-7.574-0.199-12.136c-2.764-4.628-6.76-7.142-11.986-7.541
	c-12.095-0.88-21.066-1.913-26.937-3.099c0.614-2.32,0.964-4.682,1.019-7.089c0.166-6.792-1.365-13.367-4.595-19.727
	c-3.229-6.358-7.924-11.985-14.083-16.879c-4.356-3.453-9.118-6.338-14.277-8.669c7.376-20.092,15.63-35.306,24.765-45.615
	c9.321-10.521,18.827-15.148,28.515-13.883c8.99,1.166,16.73,7.058,23.223,17.679c6.459,10.554,10.32,23.488,11.586,38.803
	c0.299,3.329-0.399,7.075-2.098,11.236c-1.132,2.763-2.93,6.175-5.394,10.238c-6.625,10.687-9.854,21.008-9.688,30.962
	c0.167,9.489,2.631,17.313,7.392,23.472s10.819,9.322,18.178,9.488c6.892,0.133,12.635-3.063,17.229-9.588
	C325.97,144.688,327.784,136.632,326.652,127.276z"/>
</svg>
