<?xml version="1.0" encoding="utf-8"?>
<!-- Generator: Adobe Illustrator 16.0.0, SVG Export Plug-In . SVG Version: 6.00 Build 0)  -->
<!DOCTYPE svg PUBLIC "-//W3C//DTD SVG 1.1//EN" "http://www.w3.org/Graphics/SVG/1.1/DTD/svg11.dtd">
<svg version="1.1" id="图层_1" xmlns="http://www.w3.org/2000/svg" xmlns:xlink="http://www.w3.org/1999/xlink" x="0px" y="0px"
	 width="314px" height="206px" viewBox="0 0 314 206" enable-background="new 0 0 314 206" xml:space="preserve">
<path d="M299.5,138.55c3.533-3.1,6.583-6.384,9.15-9.85c3.566-4.866,4.783-8.517,3.649-10.95c-0.666-1.367-1.916-2.316-3.75-2.85
	c-2.033-0.634-4.5-0.684-7.399-0.15c-4.268,0.733-8.684,2.4-13.25,5c-0.033-7.533,1.583-16.5,4.85-26.9
	c2.1-6.633,5.35-15.15,9.75-25.55c3.367-7.866,3.583-12.716,0.65-14.55c-3-1.867-7.9,0.7-14.7,7.7
	c-14.167,14.533-24.5,32.15-31,52.85l-5.7,18.351c-1.589,4.119-3.521,6.91-5.783,8.42c-3.033-0.302-6.121-1.688-9.267-4.17
	c-6.333-4.967-13.467-12.217-21.4-21.75c-10.333-12.4-16.983-20.117-19.95-23.15c-8.232-8.333-16.967-14.783-26.199-19.35
	c-11.434-5.6-24.817-9.05-40.15-10.35c-2.77-0.226-6.859-0.215-12.242,0.026c-1.152-3.048-2.737-6.556-4.808-10.576
	c-1.949-3.776-3.771-6.989-5.47-9.652c1.306-5.191,3.912-9.973,7.819-14.348c3.915-4.322,8.187-7.302,12.807-8.975
	c0.597,1.3,1.436,2.479,2.543,3.525c2.333,2.233,5.267,3.35,8.8,3.35c3.5,0,6.417-1.117,8.75-3.35c2.367-2.267,3.55-5.116,3.55-8.55
	c0-3.533-1.133-6.517-3.4-8.95c-2.3-2.5-5.184-3.75-8.65-3.75c-3.467,0-6.45,1.233-8.95,3.7c-2.433,2.465-3.66,5.403-3.694,8.808
	c-4.96,1.289-9.631,3.561-14.006,6.842c-4.933,3.7-8.883,8.217-11.85,13.55c-3.934-3.967-8.717-7.017-14.35-9.15
	c-5.4-2.066-11.167-3.15-17.3-3.25c-7.7-0.1-15.183,2.134-22.45,6.7c-5.679,3.565-10.526,8.083-14.563,13.53
	c-3.365-2.882-7.409-4.33-12.137-4.33c-5.333,0-9.9,1.9-13.7,5.7C1.9,45.95,0,50.517,0,55.85s1.817,9.767,5.45,13.3
	c3.633,3.534,8.133,5.3,13.5,5.3s9.9-1.833,13.6-5.5c3.733-3.667,5.6-8.167,5.6-13.5c0-4.108-1.054-7.704-3.144-10.796
	c3.841-4.912,9.11-8.871,15.844-11.854c6.4-2.833,12.25-4.15,17.55-3.95c8.333,0.3,15.617,3.383,21.85,9.25
	c6.188,5.791,10.877,13.919,14.075,24.374c-21,3.147-39.045,11.05-54.125,23.727C43,92.267,37.6,98.7,34,105.5
	c-3.767,7.166-5.233,14.184-4.4,21.05c0.833,6.733,3.85,12.366,9.05,16.9c3.967,3.466,10.033,6.85,18.2,10.149l10.224,3.914
	c-7.157,3.971-13.737,6.545-19.724,7.687c-4.6,0.866-7.867,2.616-9.8,5.25c-1.767,2.399-2.117,5.017-1.05,7.85
	c1.1,2.866,3.317,5.116,6.65,6.75c3.733,1.833,8.15,2.5,13.25,2c5.7-0.566,11.583-3.05,17.65-7.45
	c4.019-2.95,8.77-7.339,14.236-13.127c4.587,2.448,8.494,5.024,11.714,7.728c19.867,16.634,40.183,25.233,60.95,25.8
	c18.033,0.5,34.033-4.867,48-16.1c11.7-9.4,20.667-16,26.899-19.801c3.823-2.341,7.437-4.197,10.846-5.582
	c4.106,0.771,9.139,5.106,15.104,13.032L270.65,184c3.533,5.066,6.366,8.783,8.5,11.15c5.066,5.666,8.967,7.633,11.699,5.899
	c2.734-1.733,2.917-6.116,0.551-13.149c-1.268-3.734-1.484-6.65-0.65-8.75c0.6-1.601,1.95-2.95,4.05-4.051l5.55-2.699
	c2-1.234,3.25-2.801,3.75-4.7c0.5-2.067,0.066-4.167-1.3-6.3c-1.167-1.9-2.85-3.566-5.05-5c-2.867-1.867-4.434-4.234-4.7-7.101
	C292.75,146.166,294.9,142.584,299.5,138.55z"/>
</svg>
