<?xml version="1.0" encoding="utf-8"?>
<!-- Generator: Adobe Illustrator 16.0.0, SVG Export Plug-In . SVG Version: 6.00 Build 0)  -->
<!DOCTYPE svg PUBLIC "-//W3C//DTD SVG 1.1//EN" "http://www.w3.org/Graphics/SVG/1.1/DTD/svg11.dtd">
<svg version="1.1" id="图层_1" xmlns="http://www.w3.org/2000/svg" xmlns:xlink="http://www.w3.org/1999/xlink" x="0px" y="0px"
	 width="116px" height="133px" viewBox="0 0 116 133" enable-background="new 0 0 116 133" xml:space="preserve">
<path d="M105.236,102.355c-3.188-2.59-6.026-4.799-8.517-6.625h-0.349c-1.316,0.627-3.429,1.839-6.315,3.622
	c-0.285-1.305-0.713-2.565-1.279-3.783c4.365-2.273,7.91-5.191,10.633-8.754c3.056-3.985,3.753-6.956,2.092-8.915
	c-1.053-1.213-3.145-1.527-6.253-0.96c-0.062-0.11-0.102-0.229-0.172-0.335c-0.432-0.665-0.863-0.947-1.295-0.848
	c-0.432,0.066-0.83,0.448-1.195,1.146c-0.155,0.263-0.272,0.533-0.372,0.809c-0.92,0.281-1.841,0.6-2.762,0.961
	c1.338-1.312,2.521-2.728,3.532-4.261c3.752-5.777,4.383-11.854,1.893-18.229c-0.697-1.859-1.727-3.669-3.088-5.429
	c-0.983-1.319-2.029-2.467-3.135-3.457l8.912,0.369c3.619-0.199,5.744-0.664,6.375-1.395c2.822-3.453,5.33-11.821,7.521-25.103
	c2.158-12.917,2.523-19.79,1.096-20.62c-1.992-1.162-9.197,1.461-21.616,7.87C78.191,14.96,71.003,20.157,69.376,24.009
	c-0.432,1.029-0.1,3.403,0.996,7.123c1.175,3.95,2.673,7.254,4.49,9.921l-6.034-0.458c-2.756,0.166-5.512,0.647-8.268,1.444
	c-4.937,1.504-8.965,3.692-12.118,6.539c0.158-2.699,0.167-5.586,0.014-8.681c-0.199-3.586-0.531-5.711-0.996-6.375
	c-1.826-2.49-9.928-4.549-24.306-6.176C8.943,25.752,1.257,25.818,0.095,27.545c-0.93,1.395,2.557,8.251,10.459,20.57
	c7.969,12.352,12.983,18.595,15.042,18.728c1.129,0.066,3.52-0.764,7.172-2.49c2.956-1.356,5.326-2.633,7.13-3.834
	c-0.538,1.464-0.923,3.073-1.153,4.83c-0.465,3.52-0.232,6.89,0.697,10.11c1.693,5.645,5.877,9.613,12.551,11.904
	c0.449,0.152,0.91,0.268,1.365,0.398l-6.246,0.747c-0.531-0.398-1.146-0.73-1.843-0.996l-1.793-0.149
	c-0.299,0.166-0.415,0.631-0.349,1.395c0.031,0.248,0.082,0.475,0.142,0.69c-0.802,0.324-1.485,0.849-2.035,1.601
	c-0.598,0.863-0.863,1.71-0.797,2.54c0.133,1.76,1.81,3.271,5.031,4.532c1.529,0.605,3.303,1.107,5.318,1.508
	c-0.761,0.871-1.26,2.122-1.483,3.771c-0.365,2.557,0.066,5.08,1.295,7.571c1.395,2.789,3.254,4.698,5.579,5.728
	c2.125,0.963,4.034,0.963,5.727,0c0.229-0.122,0.438-0.268,0.636-0.426c0.434,0.204,0.881,0.399,1.356,0.575
	c3.594,1.336,7.589,1.603,11.979,0.813c0.152,2.248,0.902,4.451,2.267,6.607c1.462,2.324,3.222,3.969,5.28,4.932l0.9,0.021
	c1.594,0.698,3.176,0.725,4.748,0.111l0.676,0.016c1.263-0.598,1.993-1.908,2.192-3.934c0.166-1.992-0.266-4.052-1.295-6.177
	c-1.054-2.039-2.775-3.735-5.163-5.09c1.313-1.036,2.411-2.318,3.27-3.875c0.923-1.684,1.46-3.518,1.65-5.489l1.688-0.537
	l4.582,6.325c2.291,2.988,4.018,5.063,5.18,6.226l0.449,0.05c2.557-1.727,5.811-4.433,9.762-8.118c0.199-0.166,0.199-0.332,0-0.498
	L105.236,102.355z M84.658,114.765c-0.225,0.199-0.482,0.389-0.771,0.569c-0.636,0.361-1.383,0.701-2.259,1.017
	c-0.004,0.001-0.007,0.002-0.01,0.003C82.751,115.933,83.761,115.399,84.658,114.765z"/>
</svg>
