<?xml version="1.0" encoding="utf-8"?>
<!-- Generator: Adobe Illustrator 16.0.0, SVG Export Plug-In . SVG Version: 6.00 Build 0)  -->
<!DOCTYPE svg PUBLIC "-//W3C//DTD SVG 1.1//EN" "http://www.w3.org/Graphics/SVG/1.1/DTD/svg11.dtd">
<svg version="1.1" id="图层_1" xmlns="http://www.w3.org/2000/svg" xmlns:xlink="http://www.w3.org/1999/xlink" x="0px" y="0px"
	 width="140px" height="125px" viewBox="0 0 140 125" enable-background="new 0 0 140 125" xml:space="preserve">
<path d="M136.198,58.826c-1.766-3.332-4.281-5.581-7.547-6.747c-2.647-0.955-5.481-1.116-8.498-0.507
	c-1.648-2.522-3.434-4.728-5.347-6.633c3.572-4.764,6.606-10.763,9.097-18c2.832-8.296,3.433-13.828,1.8-16.593
	c-2.199-3.732-9.113-5.798-20.742-6.197C93.422,3.761,83.465,5.334,75.062,8.834C68.013,3.304,59.555,0.373,49.683,0.05
	c-4.798-0.167-8.997,0.417-12.595,1.75c-3.698,1.366-6.131,3.315-7.297,5.848c-1.533,3.165-1.266,6.664,0.8,10.496
	c1.153,2.15,2.654,4.017,4.483,5.616c-0.783,1.199-1.507,2.457-2.187,3.758c-6.704,1.752-13.85,5.97-21.439,12.667
	C3.718,47.015-0.03,52.379,0.203,56.277c0.2,2.999,2.766,6.048,7.697,9.146c5.27,3.31,11.697,5.555,19.259,6.757
	c0.143,0.876,0.283,1.754,0.457,2.613c-1.078,0-2.167,0.082-3.272,0.276c-2.833,0.5-4.415,1.565-4.748,3.198
	c-0.433,2.232,1.066,4.632,4.498,7.197c2.44,1.812,5.308,3.308,8.603,4.492c3.615,7.324,8.989,14.241,16.138,20.747
	c7.063,6.432,13.361,10.563,18.892,12.396c3.299,1.133,6.031,0.667,8.196-1.399c3.258-3.014,5.474-6.111,6.673-9.291
	c2.383-0.627,4.82-1.403,7.322-2.354c6.946-2.6,11.92-5.521,14.973-8.757c4.519,1.234,10.045,1.219,16.614-0.09
	c7.631-1.499,12.362-3.698,14.195-6.598c1.133-1.799,0.816-4.664-0.95-8.596c-0.486-1.104-1.025-2.132-1.588-3.123
	c2.725-3.037,4.413-6.838,5.036-11.422C138.863,66.74,138.197,62.525,136.198,58.826z"/>
</svg>
