<?xml version="1.0" encoding="utf-8"?>
<!-- Generator: Adobe Illustrator 16.0.0, SVG Export Plug-In . SVG Version: 6.00 Build 0)  -->
<!DOCTYPE svg PUBLIC "-//W3C//DTD SVG 1.1//EN" "http://www.w3.org/Graphics/SVG/1.1/DTD/svg11.dtd">
<svg version="1.1" id="图层_1" xmlns="http://www.w3.org/2000/svg" xmlns:xlink="http://www.w3.org/1999/xlink" x="0px" y="0px"
	 width="109px" height="126px" viewBox="0 0 109 126" enable-background="new 0 0 109 126" xml:space="preserve">
<path d="M103.393,53.575c-2.475-8.922-6.524-16.448-12.127-22.594c0.354-0.059,0.708-0.132,1.063-0.233
	c2.159-0.598,3.787-1.877,4.885-3.838c1.395-2.393,1.66-4.918,0.797-7.576c-0.864-2.691-2.509-4.419-4.935-5.184l-3.452-0.244
	c0.455-3.136-0.051-5.948-1.531-8.429c-1.363-2.326-3.273-3.921-5.732-4.785c-3.987-1.396-7.726-0.931-11.215,1.396
	c-1.522,0.992-2.677,2.17-3.507,3.514c-1.657-1.593-3.89-2.175-6.71-1.72c-3.157,0.499-5.334,2.093-6.53,4.785
	c-0.665,1.562-0.665,3.29,0,5.184c0.48,1.305,1.207,2.398,2.145,3.308c-9.292,0.172-17.752,2.6-25.371,7.308
	c-7.676,4.751-13.474,11.165-17.395,19.239c-2.359,4.902-3.815,9.892-4.389,14.969c-1.683,0.557-3.623,1.759-5.828,3.622
	c-2.824,2.358-3.954,4.369-3.389,6.03c0.299,0.897,1.313,1.578,3.04,2.044l6.491,0.549c0.328,2.03,0.785,4.073,1.384,6.13
	c1.799,6.17,4.669,11.598,8.59,16.299c-0.072-0.015-0.145-0.037-0.216-0.051c-2.292-0.465-4.07,0-5.333,1.396
	c-1.329,1.461-1.279,3.555,0.149,6.279c1.529,2.924,4.07,5.217,7.626,6.879c5.948,2.824,9.47,2.791,10.566-0.1
	c0.444-1.165,0.415-2.419-0.074-3.758c1.119,0.662,2.264,1.306,3.463,1.913c10.599,5.399,21.368,7.079,32.307,5.067
	c-0.217,3.02,0.783,5.966,3.031,8.838c2.525,3.19,5.217,4.337,8.074,3.439c1.927-0.598,3.04-2.475,3.339-5.632
	c0.333-3.522-0.765-6.845-3.29-9.968c-0.009-0.011-0.015-0.017-0.023-0.027c9.907-4.246,17.183-11.291,21.805-21.156
	C105.885,76.203,106.648,65.238,103.393,53.575z"/>
</svg>
