<?xml version="1.0" encoding="utf-8"?>
<!-- Generator: Adobe Illustrator 16.0.0, SVG Export Plug-In . SVG Version: 6.00 Build 0)  -->
<!DOCTYPE svg PUBLIC "-//W3C//DTD SVG 1.1//EN" "http://www.w3.org/Graphics/SVG/1.1/DTD/svg11.dtd">
<svg version="1.1" id="图层_1" xmlns="http://www.w3.org/2000/svg" xmlns:xlink="http://www.w3.org/1999/xlink" x="0px" y="0px"
	 width="113px" height="130px" viewBox="0 0 113 130" enable-background="new 0 0 113 130" xml:space="preserve">
<path d="M98.113,59.829c-1.159-0.088-2.312-0.12-3.459-0.102l-0.638-2.346c12.456-14.154,17.851-22.064,16.186-23.729
	c-1.831-1.832-8.292-3.414-19.383-4.746l-2.955-0.266c-0.272-2.284-0.537-4.194-0.792-5.679c-0.566-3.13-1.182-4.946-1.848-5.445
	c-0.6-0.433-2.281-0.466-5.046-0.1c-1.918,0.237-4.07,0.637-6.445,1.191c-0.339-2.393-0.73-4.846-1.198-7.386
	c-1.266-6.894-2.397-10.574-3.396-11.04C67.74-0.484,63.427,1.647,56.2,6.576c-2.39,1.622-4.531,3.142-6.441,4.569
	c-3.914-4.933-6.482-7.326-7.697-7.167c-0.866,0.1-1.915,1.649-3.147,4.646c-0.546,1.337-1.025,2.77-1.459,4.268
	c-1.052-1.107-2.112-2.186-3.186-3.219c-3.896-3.796-6.378-5.461-7.443-4.995c-1.099,0.5-1.898,4.812-2.398,12.938
	c-0.433,6.927-0.516,12.589-0.25,16.985c-1.057,1.157-2.061,2.317-3.032,3.479c-0.981-2.274-1.688-3.41-2.113-3.379
	c-0.851,0.026-1.928,1.079-3.225,3.122c-1.614-1.736-3.501-3.311-5.667-4.72c-3.63-2.365-6.228-3.064-7.793-2.098
	C1.115,31.77,0.366,33.668,0.1,36.699c-0.267,3.097,0.05,6.395,0.949,9.891c0.999,3.997,2.448,7.344,4.346,10.041
	c0.826,1.182,1.648,2.105,2.468,2.8C6.067,68.19,6.154,75.804,8.143,82.259c1.343,4.307,3.634,8.325,6.828,12.068
	c-1.244,1.755-2.265,3.671-3.032,5.767c-1.798,4.861-1.482,8.525,0.949,10.99c1.898,1.932,4.929,2.431,9.092,1.498
	c3.94-0.902,7.195-2.779,9.777-5.61c1.536,0.704,3.104,1.329,4.71,1.864c6.76,2.289,13.127,3.513,19.112,3.697
	c0.136,4.385,0.919,8.021,2.369,10.889c1.765,3.498,4.247,5.296,7.443,5.396c4.263,0.133,7.277-2.166,9.042-6.895
	c1.302-3.471,1.828-7.997,1.607-13.543c8.646-4.201,14.671-10.877,18.075-20.027c1.347-3.578,2.365-7.018,3.064-10.32
	c1.114-0.955,2.225-2.055,3.33-3.317c1.965-2.265,3.48-4.546,4.546-6.845c1.033-2.297,1.332-4.029,0.899-5.195
	C105.39,61.111,102.775,60.162,98.113,59.829z"/>
</svg>
