<?xml version="1.0" encoding="utf-8"?>
<!-- Generator: Adobe Illustrator 16.0.0, SVG Export Plug-In . SVG Version: 6.00 Build 0)  -->
<!DOCTYPE svg PUBLIC "-//W3C//DTD SVG 1.1//EN" "http://www.w3.org/Graphics/SVG/1.1/DTD/svg11.dtd">
<svg version="1.1" id="图层_1" xmlns="http://www.w3.org/2000/svg" xmlns:xlink="http://www.w3.org/1999/xlink" x="0px" y="0px"
	 width="110px" height="200px" viewBox="0 0 110 200" enable-background="new 0 0 110 200" xml:space="preserve">
<path d="M106.439,95.422c-4.17-1.201-8.99-1.185-14.461,0.05c-5.826,1.327-10.386,3.731-13.699,7.194
	c-0.314-0.515-0.629-1.029-0.963-1.54c-1.968-3.036-2.651-8.273-2.051-15.712c0.502-6.6,1.651-11.58,3.427-14.982
	c5.776-2.428,11.456-8.919,17.038-19.493c5.571-10.542,9.09-21.366,10.559-32.475c0.133-0.934,0.083-1.518-0.15-1.751
	c-0.268-0.334-0.967-0.434-2.102-0.3c-3.103,0.333-7.189,1.234-12.26,2.702c-1.289,0.371-2.475,0.735-3.578,1.095
	c-0.646-0.83-1.799-1.81-3.477-2.946c-1.78-1.241-3.262-1.982-4.453-2.242v-2.662l-0.25-9.557c-0.168-1.701-0.617-2.619-1.352-2.752
	c-0.5-0.1-1.568,0.183-3.202,0.851c-4.237,1.768-8.74,4.704-13.511,8.807c-0.918,0.782-1.777,1.564-2.608,2.346
	c-0.504-3.412-1.101-5.852-1.794-7.3c-0.334-0.701-0.617-1.051-0.852-1.051c-0.267-0.034-0.717,0.25-1.351,0.851
	c-2.035,2.001-4.27,5.404-6.705,10.208c-2.793,5.52-4.464,10.52-5.023,15.005c-2.972,4.349-4.759,9.664-5.334,15.968
	c-0.634,7.039,0.5,12.643,3.403,16.813c2.702,3.87,6.388,6.705,11.058,8.506c0.766,0.292,1.549,0.54,2.341,0.769
	c-1.597,3.23-2.742,6.913-3.392,11.09c-0.783,5.119-0.538,9.435,0.719,12.96c-0.023,0.015-0.046,0.037-0.069,0.05l-4.11,1.525
	c-0.638-1.06-1.346-2.099-2.137-3.114c-1.039-4.088-2.659-8.628-4.862-13.623c-3.002-6.805-6.471-12.993-10.408-18.564
	c-4.904-6.905-9.974-12.393-15.211-16.462c-4.37-3.403-8.189-5.371-11.458-5.905L1.11,39.83c-0.567,0.2-0.884,0.634-0.951,1.301
	c-0.2,1.635,0.9,4.203,3.302,7.706c0.234,0.342,0.498,0.713,0.782,1.106c-0.775,8.969,1.177,18.44,5.874,28.416
	c4.761,10.105,10.595,17.009,17.495,20.73c0.631,1.962,1.415,3.856,2.343,5.685c-7.792,3.526-13.159,7.347-16.085,11.463
	c-2.335,3.303-3.536,7.655-3.603,13.06c-0.1,6.905,1.568,13.076,5.004,18.514c2.368,3.736,5.004,6.488,7.906,8.257
	c1.735,1.101,2.669,2.401,2.802,3.903c0.133,1.167,0.1,2.785-0.1,4.854c-0.105,1.197-0.24,2.175-0.401,2.944
	c-4.562,2.079-8.468,5.345-11.708,9.815c-2.769,3.803-4.67,7.789-5.705,11.959c-0.434,1.734-0.617,3.369-0.55,4.902
	c0.067,1.502,0.384,2.603,0.951,3.303c0.867,1.068,2.102,1.651,3.703,1.752c2.435,0.133,5.404-0.717,8.907-2.553
	c3.169-1.701,6.004-3.752,8.506-6.154c2.735-2.668,4.67-5.771,5.805-9.307c1-3.002,1.284-5.738,0.851-8.206
	c-0.2-1.268-0.584-2.368-1.151-3.303c-0.52-0.857-1.128-1.463-1.817-1.843c-0.045-4.03,0.441-6.445,1.466-7.214l10.092,0.308
	c0.004,0.015-0.002,0.029,0.016,0.043c1.167,0.867,2.035,2.585,2.602,5.153c0.248,1.113,0.395,2.065,0.455,2.88
	c-0.841,0.535-1.533,1.221-2.056,2.074c-0.601,1-0.884,2.102-0.851,3.303c0.067,2.635,1.351,5.438,3.853,8.406
	c2.568,3.068,5.788,5.504,9.657,7.305c4.136,1.902,7.956,3.02,11.458,3.354c3.402,0.333,5.805-0.15,7.206-1.451
	c1.468-1.335,1.701-3.403,0.7-6.205c-1.602-4.504-4.87-8.623-9.807-12.359c-3.537-2.735-7.456-4.953-11.76-6.655
	c-0.267-1.101-0.434-2.519-0.5-4.253c-0.038-0.933-0.033-1.695,0.005-2.324c4.067-0.994,7.971-2.467,11.704-4.431
	c4.67-2.469,8.406-5.421,11.208-8.856c2.769-3.402,4.754-7.406,5.954-12.01c1.368-5.203,1.368-10.842,0-16.912
	c-0.133-0.608-0.286-1.212-0.443-1.815c5.856-0.59,10.814-2.313,14.855-5.19c2.334-1.635,4.753-4.086,7.255-7.355l2.302-3.652
	c0.6-1.234,0.867-2.052,0.801-2.452C109.24,96.723,108.24,95.922,106.439,95.422z"/>
</svg>
