<?xml version="1.0" encoding="utf-8"?>
<!-- Generator: Adobe Illustrator 16.0.0, SVG Export Plug-In . SVG Version: 6.00 Build 0)  -->
<!DOCTYPE svg PUBLIC "-//W3C//DTD SVG 1.1//EN" "http://www.w3.org/Graphics/SVG/1.1/DTD/svg11.dtd">
<svg version="1.1" id="图层_1" xmlns="http://www.w3.org/2000/svg" xmlns:xlink="http://www.w3.org/1999/xlink" x="0px" y="0px"
	 width="119px" height="113px" viewBox="0 0 119 113" enable-background="new 0 0 119 113" xml:space="preserve">
<path d="M110.678,90.586c-5.647-2.957-13.721-6.645-24.219-11.063l-0.254-4.101c2.826-0.979,5.53-2.226,8.108-3.748
	c6.341-0.861,11.831-3.458,16.464-7.799C116.26,58.692,119,52.696,119,45.886c0-4.153-1.18-7.375-3.538-9.667
	c-0.835-0.823-1.805-1.494-2.895-2.029c-0.592-4.775-1.94-9.184-4.046-13.226c0.356-0.511,0.71-1.035,1.061-1.588
	c1.793-2.857,3.039-5.648,3.737-8.372c0.697-2.791,0.614-4.784-0.249-5.98c-0.831-1.229-3.639-1.728-8.422-1.495
	c-3.776,0.188-7.322,0.865-10.646,2.01C88.036,1.978,81.14,0.189,73.304,0.189c-8.242,0-15.476,2.128-21.713,6.361
	C33.586,5.354,20.553,5.508,12.508,7.016C4.169,8.611,0,11.883,0,16.833c0,2.923,1.678,5.216,5.033,6.876
	c3.322,1.694,7.674,2.425,13.056,2.193c6.9-0.276,13.848-2.099,20.843-5.464c-2.933,5.259-4.679,11.17-5.24,17.734
	c-1.521,1.029-2.936,2.235-4.241,3.626c-5.216,5.582-7.741,13.156-7.575,22.724c0.02,0.886,0.098,1.749,0.205,2.601l-5.188-0.309
	l-1.146,0.199c-0.199,0.232-0.299,0.714-0.299,1.445c-0.066,2.192,0.183,4.335,0.747,6.429c0.304,1.133,0.684,2.177,1.134,3.138
	c-1.441,1.393-2.623,2.626-3.526,3.688c-0.963,1.097-1.495,1.795-1.595,2.094c-0.232,0.598,0.05,1.279,0.847,2.043
	c0.897,0.93,1.977,1.811,3.239,2.641l5.033,2.99c0.764,0.432,1.396,0.498,1.894,0.199c0.432-0.266,1.046-0.996,1.844-2.192
	c0.211-0.323,0.411-0.63,0.612-0.939l2.179,1.188c2.857,1.462,5.349,2.592,7.475,3.389c1.03,0.365,1.744,0.465,2.143,0.299
	c0.531-0.199,1.063-0.896,1.595-2.093c0.237-0.475,0.466-0.934,0.687-1.378c0.81,0.577,3.321,1.353,7.535,2.324
	c5.814,1.296,9.369,2.476,10.664,3.539c9.436,7.607,15.963,12.557,19.584,14.85c2.293,1.429,3.688,1.927,4.186,1.495
	c0.399-0.366-0.215-2.093-1.844-5.183c-1.826-3.455-4.152-6.943-6.977-10.465c6.545,3.588,11.943,6.246,16.196,7.973
	c3.555,1.429,5.448,1.91,5.681,1.445c0.564-1.129-2.492-4.318-9.169-9.567c-7.043-5.548-13.455-9.501-19.235-11.86l0.797-3.588
	l0.747-2.863c0.593,0.012,1.186,0.023,1.795,0.023c3.085,0,6.056-0.25,8.92-0.732v3.821l-7.226,1.196
	c-1.794,0.332-2.808,0.681-3.04,1.047c-0.864,1.262,5.632,4.302,19.484,9.119c6.179,2.159,11.528,3.854,16.046,5.082
	c4.651,1.263,7.094,1.662,7.326,1.196c0.232-0.465-0.184-1.212-1.246-2.242l-1.694-1.495l5.73,0.648
	c2.325,0.166,3.538,0.049,3.638-0.35C117.854,94.738,115.528,93.144,110.678,90.586z M41.843,85.727
	c1.999-1.274,4.439-4.911,7.319-10.891c2.577,1.053,5.527,1.848,8.852,2.388c-0.021,0.39-0.041,0.803-0.059,1.253l-0.249,6.179
	c-3.156,0.433-6.728,1.13-10.714,2.093c-3.315,0.785-5.528,1.462-6.652,2.033C40.901,87.648,41.4,86.635,41.843,85.727z"/>
</svg>
