<?xml version="1.0" encoding="utf-8"?>
<!-- Generator: Adobe Illustrator 16.0.0, SVG Export Plug-In . SVG Version: 6.00 Build 0)  -->
<!DOCTYPE svg PUBLIC "-//W3C//DTD SVG 1.1//EN" "http://www.w3.org/Graphics/SVG/1.1/DTD/svg11.dtd">
<svg version="1.1" id="图层_1" xmlns="http://www.w3.org/2000/svg" xmlns:xlink="http://www.w3.org/1999/xlink" x="0px" y="0px"
	 width="261px" height="338px" viewBox="0 0 261 338" enable-background="new 0 0 261 338" xml:space="preserve">
<path d="M258.604,211.327c-9.084-15.44-26.704-42.311-52.859-80.611c-23.439-34.289-38.112-54.924-44.029-61.918
	c1.664-4.905,2.523-10.035,2.551-15.398c0.066-6.988-1.181-13.776-3.743-20.365c-2.562-6.755-6.206-12.495-10.931-17.22
	c-4.759-4.792-10.383-8.568-16.871-11.33c-6.556-2.762-13.194-4.143-19.916-4.143c-11.513,0-21.829,3.211-30.946,9.633
	c-8.189,5.764-13.901,12.932-17.141,21.499c-1.303-0.007-2.61,0.01-3.923,0.064c-4.592,0.2-8.286,0.865-11.081,1.997
	c-2.695,1.098-4.958,2.812-6.788,5.141c-1.896,2.429-3.727,5.707-5.491,9.833c-1.63,3.76-2.396,6.223-2.296,7.387
	c0.033,0.433,0.2,0.682,0.499,0.749c0.333,0.067,0.732-0.05,1.198-0.349c0.965-0.632,2.296-1.248,3.993-1.847
	c2.263-0.798,4.126-1.114,5.59-0.948c2.462,0.267,6.056,1.231,10.781,2.895c1.207,0.431,2.326,0.824,3.397,1.195
	c0.864,11.135,5.765,21.004,14.722,29.602c3.184,3.076,6.61,5.675,10.273,7.813c-3.663,6.267-7.083,12.354-10.25,18.253
	c-14.951,4.877-25.815,14.646-32.567,29.339c-4.792,10.382-7.087,21.646-6.888,33.791c-8.152,5.225-15.24,10.333-21.263,15.324
	c-5.59,4.625-8.751,7.869-9.483,9.733c-1.165,2.828-2.03,6.372-2.596,10.632c-0.532,3.727-0.799,7.637-0.799,11.729
	c0,8.519,1.048,17.153,3.145,25.905c1.797,7.453,3.277,11.53,4.442,12.229c0.433,0.233,0.799,0.166,1.098-0.199
	c6.641-7.411,15.201-20.938,25.67-40.551c-2.089,10.144-3.629,20.052-4.606,29.719c-0.999,10.05-1.215,15.59-0.649,16.622
	c0.632,1.132,2.213,2.196,4.742,3.194c3.494,1.364,7.72,1.896,12.678,1.598c0.566-0.066,0.865-0.316,0.898-0.749
	c0.72-5.134,1.394-9.989,2.026-14.604c1.839,2.576,3.56,4.535,5.161,5.869c1.739,1.451,3.772,2.795,6.081,4.041l-2.019,15.913
	c-10.941,1.799-22.525,5.69-34.759,11.692c-12.212,5.988-20.582,11.846-25.107,17.568c-0.565,0.699-0.699,1.465-0.399,2.297
	c0.898,2.828,8.485,2.878,22.761,0.149c9.917-1.896,19.783-4.343,29.599-7.337c11.214-3.361,20.182-6.622,26.904-9.783
	c6.222-2.895,9.899-5.408,11.031-7.537c0.466-0.898,0.599-1.714,0.399-2.445c-0.533-2.03-3.178-3.561-7.937-4.593
	c-3.513-0.801-6.578-1.109-9.234-0.97l0.699-4.021l0.396-2.693c0.273,1.216,0.673,1.934,1.201,2.145
	c8.419,3.161,19.882,4.625,34.391,4.393c3.196-0.055,6.356-0.188,9.486-0.384l-0.152,2.38c-0.055,0.939-0.097,1.781-0.126,2.541
	l-3.867-0.345c-3.46-0.033-5.807,0.499-7.038,1.597c-0.832,0.766-1.131,1.814-0.898,3.145c0.433,2.729,3.594,6.839,9.483,12.329
	c5.823,5.425,12.595,10.599,20.315,15.523c8.951,5.69,18.584,10.315,28.9,13.876c10.381,3.561,16.521,4.343,18.418,2.346
	c0.665-0.732,0.898-1.697,0.698-2.895c-0.532-2.962-3.36-7.238-8.485-12.828c-5.391-5.856-11.746-11.396-19.066-16.621
	c-3.694-2.662-7.953-5.274-12.778-7.836c-5.03-2.662-9.63-4.701-13.807-6.128l0.735-8.244c3.724-0.472,7.396-1.053,11.023-1.736
	l2.797,5.775l0.398,0.449l0.649-0.05c7.819-2.363,17.286-6.705,28.401-13.027c13.11-7.487,22.76-14.775,28.949-21.862
	c0.434-0.499,0.649-0.966,0.649-1.397c-0.033-0.399-0.267-1.031-0.698-1.896c-1.365-2.563-6.273-9.983-14.725-22.262l-8.39-12.281
	c-1.301-7.52-2.853-15.04-4.688-22.559c-1.687-6.951-3.487-13.418-5.396-19.424c-1.041-4.959-2.302-9.838-3.838-14.618
	c-2.049-6.424-4.204-11.845-6.461-16.31c-2.381-6.085-4.736-11.696-7.065-16.833c-1.203-2.621-2.429-5.181-3.677-7.687
	l-2.313-13.876l-1.802-9.607c1.249-0.984,2.452-2.021,3.599-3.121c1.575-1.497,3.018-3.084,4.349-4.746
	c12.968,23.027,27.837,51.42,44.616,85.208c14.742,29.715,25.273,51.877,31.596,66.485c0.799,1.863,1.531,2.912,2.196,3.145
	c0.731,0.267,1.913-0.183,3.544-1.348l11.68-9.434l11.23-9.184c1.198-0.932,1.764-1.781,1.697-2.546
	C260.467,214.771,259.834,213.424,258.604,211.327z M53.058,158.169c0.721-0.78,1.522-1.469,2.38-2.092
	c-1.072,2.766-2.098,5.525-3.081,8.279c-0.031-0.151-0.069-0.294-0.098-0.447c-0.258-1.326-0.443-2.669-0.565-4.028
	C52.044,159.348,52.493,158.779,53.058,158.169z"/>
</svg>
