<?xml version="1.0" encoding="utf-8"?>
<!-- Generator: Adobe Illustrator 16.0.0, SVG Export Plug-In . SVG Version: 6.00 Build 0)  -->
<!DOCTYPE svg PUBLIC "-//W3C//DTD SVG 1.1//EN" "http://www.w3.org/Graphics/SVG/1.1/DTD/svg11.dtd">
<svg version="1.1" id="图层_1" xmlns="http://www.w3.org/2000/svg" xmlns:xlink="http://www.w3.org/1999/xlink" x="0px" y="0px"
	 width="201px" height="194px" viewBox="0 0 201 194" enable-background="new 0 0 201 194" xml:space="preserve">
<path d="M201,16.305c0-4.468-1.518-8.269-4.551-11.403c-3.068-3.167-6.818-4.751-11.253-4.751s-8.235,1.584-11.403,4.751
	c-3.167,3.167-4.751,6.968-4.751,11.403c0,4.468,1.584,8.285,4.751,11.453c2.146,2.169,4.613,3.577,7.385,4.26
	c1.086,7.897,0.672,14.573-1.283,19.996c-1.805,5.035-4.979,9.08-9.49,12.16c-0.572-0.411-1.148-0.819-1.762-1.207
	c0.399-6.602-1.051-11.953-4.352-16.054c-3.268-4.068-8.086-6.535-14.453-7.402c-2.768-6.735-6.702-11.853-11.804-15.354
	c-4.368-2.968-9.136-4.501-14.304-4.602c-5.268-0.1-10.152,0.984-14.653,3.251c-2.192,1.112-4.217,2.468-6.082,4.055
	c-1.818-1.725-3.866-3.188-6.171-4.355c-1.631-0.815-3.684-1.61-6.145-2.384c-0.226-0.552-0.461-1.092-0.707-1.617
	c-1.967-4.134-4.751-7.885-8.352-11.252c-5.234-4.901-11.636-7.219-19.205-6.952c-7.302,0.267-13.27,2.768-17.904,7.502
	c-5.035,5.102-8.136,12.22-9.302,21.355c-0.216,1.65-0.326,3.229-0.385,4.775c-9.712,1.173-18.114,4.167-25.171,9.028
	C3.217,47.396,0,51.447,0,55.115c0,1.434,0.917,3.201,2.75,5.301c1.934,2.267,4.518,4.401,7.752,6.401
	c1.473,0.922,2.984,1.761,4.529,2.523c-1.697,1.658-3.101,3.734-4.179,6.279c-1.434,3.401-1.884,6.869-1.35,10.403
	c0.5,3.334,1.967,6.301,4.401,8.902c1.634,1.733,3.518,3.134,5.651,4.2c-2.467,1.968-4.401,4.719-5.801,8.253
	c-1.4,3.501-2.101,7.401-2.101,11.702c0,4.835,1.384,9.22,4.151,13.154c3.368,4.768,8.286,8.002,14.754,9.702
	c-0.4,3.935,0.467,8.019,2.601,12.253c2.567,5.035,6.501,9.035,11.803,12.003c0.764,0.424,1.537,0.802,2.318,1.146
	c0.449,1.071,0.91,2.368,1.383,3.905c0.733,2.566,1.284,5,1.65,7.301c0.633,4.234,1.167,7.086,1.601,8.553
	c0.733,2.567,1.8,4.251,3.201,5.051c0.967,0.533,2.15,0.867,3.551,1c1.267,0.067,2.517-0.166,3.751-0.699
	c2-0.801,3.834-2.751,5.501-5.852c2.607-4.891,3.932-11.625,3.99-20.18c2.801-1.258,5.592-2.885,8.375-4.883
	c1.406,11.569,3.685,18.613,6.84,21.111c1.134,0.834,2.184,1.334,3.151,1.5l3.551-0.25c2.68-0.998,5.068-4.471,7.167-10.395
	c0.464,1.518,0.759,2.716,0.884,3.594c0.567,3.801,1.201,6.734,1.9,8.802c0.9,2.7,2.067,4.468,3.502,5.302
	c1.166,0.633,2.333,0.949,3.5,0.949c1.4,0,2.635-0.267,3.701-0.8c2.701-1.334,4.935-4.018,6.701-8.052
	c2.195-4.948,3.307-11.224,3.345-18.812c1.762-1.206,3.377-2.647,4.842-4.33c2.233,0.892,4.472,1.57,6.714,2.028
	c0.809,3.22,2.405,6.755,4.805,10.61c2.968,4.835,5.885,7.901,8.752,9.202c1.434,0.667,2.885,0.834,4.352,0.5
	c1.268-0.333,2.317-0.916,3.15-1.75c1.734-1.768,3.001-4.852,3.801-9.252c0.752-4.238,0.942-9.053,0.583-14.43
	c0.762-0.586,1.507-1.2,2.218-1.875c4.035-3.801,6.719-8.318,8.053-13.553c1.033-4.102,1.1-7.619,0.199-10.553
	c3.768-2.701,6.586-5.451,8.453-8.252c1.967-3.002,3.018-6.303,3.15-9.902c0.267-5.836-1.2-11.037-4.401-15.604
	c0.278-0.537,0.529-1.074,0.769-1.611c4.888-4.467,8.725-9.725,11.484-15.793c3.068-6.602,4.686-13.804,4.852-21.605
	c0.228-9.524-1.302-18.585-4.56-27.19c1.714-0.788,3.288-1.9,4.71-3.367C199.482,24.624,201,20.806,201,16.305z"/>
</svg>
