<?xml version="1.0" encoding="utf-8"?>
<!-- Generator: Adobe Illustrator 16.0.0, SVG Export Plug-In . SVG Version: 6.00 Build 0)  -->
<!DOCTYPE svg PUBLIC "-//W3C//DTD SVG 1.1//EN" "http://www.w3.org/Graphics/SVG/1.1/DTD/svg11.dtd">
<svg version="1.1" id="图层_1" xmlns="http://www.w3.org/2000/svg" xmlns:xlink="http://www.w3.org/1999/xlink" x="0px" y="0px"
	 width="393px" height="440px" viewBox="0 0 393 440" enable-background="new 0 0 393 440" xml:space="preserve">
<path d="M353.413,121.275l30.469-3.796c1.998-0.466,3.663-1.398,4.995-2.797c1.765-1.831,2.647-4.229,2.647-7.192
	c0-2.764-0.783-5.345-2.349-7.742c-1.965-2.997-4.813-4.829-8.542-5.494c-4.527-0.799-17.531-0.866-39.01-0.2l-55.413,3.152
	c1.366-0.456,2.68-0.9,3.932-1.329l45.538-8.117c30.969-5.827,46.651-9.624,47.053-11.388c0.433-2.064-0.2-4.279-1.898-6.644
	c-2.098-2.963-5.262-4.945-9.49-5.944c-1.998-0.466-12.304-0.333-30.918,0.4l-14.88,0.711c4.278-0.709,8.518-1.361,12.682-1.91
	c3.797-0.5,5.444-0.982,4.945-1.449c-0.267-0.267-2.063-0.783-5.395-1.548c-21.944-4.928-45.521-6.127-70.729-3.596
	c-10.228,1.044-20.321,2.647-30.284,4.794l-1.832-0.398c-13.453,2.963-27.422,7.109-41.908,12.437
	c-11.022,4.096-19.963,7.909-26.822,11.438c-7.892,4.063-13.386,8.841-16.483,14.335c-2.83,4.995-3.613,10.422-2.348,16.283
	c0.427,2.015,2.221,9.009,5.379,20.973c-2.013-1.06-4.035-2.099-6.079-3.091c-15.684-7.626-28.454-11.122-38.311-10.489l-3.67-0.606
	c-0.162-7.001-0.922-13.959-2.324-20.872c-0.799-4.029-2.78-8.042-5.944-12.038c-2.264-2.83-4.512-5.028-6.743-6.593
	c-2.564-1.731-4.146,1.515-4.745,9.74c-0.333,4.262-0.483,9.407-0.449,15.434c-2.697-16.583-5.744-30.352-9.141-41.308
	c-5.626-18.248-11.57-26.273-17.83-24.075c-0.732-5.561-2.63-11.155-5.694-16.783c-3.763-6.926-7.675-9.873-11.738-8.841
	c-1.299-4.628-3.113-8.674-5.444-12.138c-2.298-3.396-4.179-4.895-5.645-4.495c-2.164-0.666-3.13,2.997-2.897,10.989
	c0.1,4.295,0.417,10.089,0.949,17.382l0.1,29.32c-0.033,13.32-0.283,24.309-0.749,32.966c-0.633,12.154-1.065,23.992-1.299,35.514
	c0.034,4.729,1.432,9.69,4.196,14.885c0.888,1.654,2.015,3.491,3.358,5.493c-3.854,3.032-7.058,7.588-9.602,13.688
	c-2.297,5.461-3.446,10.39-3.446,14.785c0,0.599,0.183,1.415,0.549,2.447l0.699,2.048c0.124,0.427,0.338,0.948,0.607,1.527
	c-0.321,2.087-0.347,4.224-0.058,6.415c0.203,1.502,0.618,3.271,1.221,5.275l-0.518,2.387c-1.891,1.426-4.049,3.16-6.497,5.226
	C8.482,206.473,3.62,211.601,1.023,215.83c-1.632,2.664-1.315,8.508,0.949,17.531c1.598,6.395,3.13,11.223,4.595,14.486
	c0.433,1.064,0.999,1.064,1.698,0c1.565-2.466,4.912-6.859,10.04-13.188c3.672-4.525,6.218-7.51,7.648-8.967
	c2.399,4.561,3.9,9.793,4.49,15.709c0.699,7.061,0.1,11.654-1.798,13.785c-0.466,0.5-0.599,0.883-0.399,1.149
	c0.2,0.3,0.649,0.383,1.349,0.25c0.108-0.015,0.258-0.047,0.393-0.071l0.007,0.021c2.598-0.334,6.943-1.564,13.037-3.697
	c5.265-1.813,8.718-3.236,10.374-4.277l4.561,3.129c1.698,1.267,4.928,3.363,9.69,6.295c4.129,2.529,6.826,4.379,8.092,5.543
	l0.699,4.146l0.649,5.594c1.598,14.054,5.195,25.99,10.789,35.813c3.911,6.858,8.793,12.81,14.628,17.868
	c-2.104,0.268-3.988,0.863-5.637,1.813c-0.749,0.416-1.426,0.844-2.069,1.275c-2.319-4.564-4.146-7.874-5.474-9.918
	c-2.564-3.93-5.194-6.709-7.892-8.342c-2.464-1.498-5.395-2.246-8.791-2.246c-3.23,0-5.994,1.049-8.292,3.146
	c-1.898-1.467-4.146-2.314-6.743-2.549c-2.631-0.199-5.128,0.268-7.493,1.398c-0.632,0.307-1.218,0.66-1.771,1.043
	c-1.08-0.309-2.383-0.54-3.922-0.693c-4.296-0.434-7.909,0.167-10.839,1.798c-2.131,1.199-3.813,2.448-5.045,3.746
	c-1.465,1.499-2.514,3.229-3.147,5.195c-0.5,1.498-0.5,2.28,0,2.348l3.746-0.85c3.963-0.898,7.826-1.216,11.588-0.949l2.105,0.327
	c-0.001,0.092-0.008,0.181-0.008,0.271v0.351c-2.63-0.365-5.078,0.2-7.342,1.698c-1.532,0.998-2.781,2.314-3.746,3.945
	c-0.401,0.663-0.723,1.366-0.998,2.094c-0.615,0.228-1.256,0.485-1.949,0.804c-3.962,1.766-6.793,4.079-8.491,6.942
	c-1.232,2.131-2.064,4.047-2.498,5.744c-0.533,2.064-0.583,4.096-0.15,6.094c0.3,1.565,0.683,2.248,1.149,2.049l2.847-2.598
	c2.997-2.764,6.177-4.979,9.54-6.644c0.332-0.157,0.727-0.33,1.178-0.519c1.915,2.246,4.911,4.002,9.012,5.264l3.696,0.748
	c10.223,5.429,18.331,11.521,24.325,18.281c4.662,5.295,9.773,13.287,15.334,23.977c1.199,2.298,2.93,4.196,5.195,5.694
	c2.098,1.364,4.429,2.247,6.993,2.646c0.433,0.898,0.316,2.997-0.35,6.293l-0.599,3.746v0.3c0,1.065,0.815,2.381,2.447,3.946
	c0.007,0.007,0.015,0.012,0.021,0.019c-0.697,0.783-1.527,1.562-2.519,2.329l-8.042,4.846l-1.499,1.049
	c0.033,0.167,0.566,0.482,1.598,0.949c1.299,0.565,2.764,0.981,4.396,1.249c2.131,0.332,4.229,0.3,6.293-0.101
	c3.064-0.633,5.944-1.849,8.642-3.646c1.511-1.015,2.666-2.04,3.477-3.08c2.779-0.719,5.154-2.294,7.112-4.763
	c2.198-2.765,3.164-5.628,2.897-8.592l-1.298-5.045l-1.898-5.994c-0.699-2.396-0.782-3.862-0.25-4.395
	c3.396-3.597,7.542-7.209,12.437-10.841l1.818-1.246c0.407,0.334,0.831,0.658,1.229,0.998c2.53,2.164,4.861,5.145,6.993,8.939
	c1.765,3.164,3.18,6.477,4.246,9.94c0.466,1.53,1.848,3.729,4.146,6.593c2.331,2.964,4.163,4.729,5.495,5.295
	c0.833,0.333,1.365,0.815,1.598,1.448c0.267,0.731,0.15,1.682-0.35,2.847l-1.848,3.497c-1.365,2.597-2.081,4.379-2.147,5.345
	c-0.133,1.766,0.833,3.629,2.897,5.595c0.035,0.033,0.075,0.064,0.11,0.099c-0.678,0.878-1.521,1.744-2.558,2.599
	c-1.765,1.433-4.612,3.182-8.541,5.245c-0.999,0.532-1.499,0.882-1.499,1.049l1.598,0.949c1.266,0.6,2.714,1.032,4.346,1.298
	l6.293-0.148c3.097-0.633,5.978-1.85,8.641-3.646c1.185-0.785,2.144-1.579,2.898-2.381c3.433-0.51,6.268-2.648,8.491-6.46
	c1.998-3.463,2.847-6.793,2.547-9.99l-0.399-2.996l-0.999-8.791c-0.3-3.93-0.15-6.294,0.449-7.093
	c2.697-3.597,6.56-7.21,11.588-10.839l12.486-8.342l2.05-1.148c1.498-0.967,2.547-1.981,3.146-3.047
	c0.5-0.898,0.916-3.447,1.248-7.643c0.063-0.749,0.123-1.439,0.184-2.104l0.117,1.056c0.267,2.264,1.183,2.281,2.746,0.05
	c0.899-1.231,2.947-3.28,6.146-6.144c2.729-2.433,4.229-4.113,4.495-5.046c0.564-3.797,1.216-7.476,1.947-11.039
	c0.455-2.313,0.972-4.508,1.539-6.602c10.74-8.126,16.893-12.688,18.439-13.679c2.896-1.863,5.012-2.264,6.344-1.197l2.543,1.807
	l22.482,31.51c17.115,23.709,26.539,36.213,28.271,37.512c1.863,1.365,6.644,0.75,14.334-1.848c3.179-1.074,5.837-2.087,8.024-3.041
	c2.069,2.026,3.293,3.192,3.664,3.489c1.231,0.999,6.394-0.966,15.483-5.896c3.11-1.668,6.23-3.435,9.357-5.285
	c1.798,1.297,2.793,1.978,2.979,2.039c0.966,0.334,5.628-2.68,13.985-9.04c8.424-6.46,12.57-10.373,12.438-11.738
	c-0.059-0.535-3.857-2.876-11.391-7.017c1.26-1.741,2.685-3.784,4.297-6.17c4.396-6.461,6.462-10.272,6.194-11.438
	c-0.232-1.1-20.496-8.773-60.788-23.025l-49.685-17.365l3.432,0.682l4.597,0.85c0.433-0.033-0.617-0.898-3.147-2.598
	c-2.33-1.564-4.263-2.93-5.793-4.096l-3.697-2.797l5.546,1.147l6.492,1.349l6.194,1.051c1.231,0,0.481-0.768-2.248-2.299
	c-13.466-8.155-25.748-15.646-36.884-22.49c0.07-0.031,0.15-0.055,0.222-0.086c0.423-0.191,0.815-0.389,1.188-0.588
	c8.537,4.582,16.998,8.56,25.383,11.926c12.82,5.162,23.793,8.225,32.916,9.191l7.244,0.849c1.332,0.101,1.447-0.116,0.35-0.649
	l-18.781-9.938c-7.888-4.296-16.183-9.128-24.863-14.466c10.737,4.471,19.429,7.912,26.063,10.318
	c14.752,5.361,28.139,9.158,40.159,11.389c3.229,0.601,4.263,0.468,3.098-0.398l-2.697-1.499c-9.656-3.662-23.177-9.923-40.56-18.78
	c8.325,3.229,17.333,5.944,27.023,8.143c10.354,2.363,17.599,3.18,21.728,2.447c3.63-0.633,4.729-1.148,3.297-1.549l-3.197-0.398
	c-17.481-2.764-36.396-11.639-56.741-26.623c-5.457-4.012-12.047-9.359-19.75-16.023l14.754,0.289l0.302-0.398l5.244-6.295
	c1.997-2.696,2.997-4.728,2.997-6.092c0-0.699-0.233-1.249-0.7-1.648c-0.981-0.819-7.708-2.813-20.159-5.979
	c1.461-0.833,2.497-1.751,3.109-2.756l13.703-0.556c10.623-0.599,16.666-1.215,18.132-1.848c1.932-0.833,3.93-2.331,5.994-4.495
	c2.363-2.431,3.579-4.579,3.646-6.443V194c0-1.499-0.648-2.597-1.948-3.296c-2.019-1.131-11.784-1.869-29.256-2.214
	c0.313-0.146,0.636-0.287,0.935-0.434c0.32-0.157,0.625-0.316,0.929-0.477l54.217-6.716c1.331-0.167,2.431-0.999,3.296-2.498
	c0.899-1.532,1.665-3.247,2.298-5.146c0.767-2.264,1.148-4.295,1.148-6.094c0-2.198-0.266-3.896-0.799-5.095
	c-0.666-1.532-7.176-2.564-19.53-3.097c-5.749-0.243-12.521-0.374-20.3-0.396c1.319-0.847,2.438-1.749,3.355-2.708l31.479-4.488
	c21.645-2.997,33.25-4.778,34.813-5.344c2.432-0.833,4.763-4.429,6.993-10.789l2.947-10.339c0.532-1.665-1.249-2.415-5.345-2.248
	l-29.271,1.998l-44.813,2.752c0.105-0.044,0.201-0.088,0.306-0.132L353.413,121.275z M109.762,364.876
	c-0.104-0.451-0.232-0.94-0.373-1.446c0.473,0.244,0.935,0.484,1.376,0.715L109.762,364.876z M156.819,96.74
	c-0.906,1.118-1.761,2.266-2.526,3.47c0.608-1.017,1.284-2.009,2.073-2.96C156.506,97.079,156.671,96.91,156.819,96.74z
	 M160.65,210.691c-3.238-3.42-6.514-7.373-9.829-11.895c-3.396-4.595-7.992-11.555-13.786-20.879
	c-1.771-2.856-3.487-5.52-5.154-8.013c7.687,3.388,13.887,8.236,18.59,14.556c1.916,2.584,3.914,5.131,5.954,7.659
	c2.636,3.469,5.386,6.88,8.249,10.232C163.734,204.861,162.397,207.639,160.65,210.691z M177.493,365.525
	c-1.599,1.933-4.229,4.195-7.892,6.793l-1.848,1.35c-0.857-3.716-2.482-8.639-4.864-14.748c1.402-2.292,3.17-4.646,5.297-7.064
	c3.349,0.449,6.515,0.726,9.501,0.83c0.181,0.771,0.36,1.545,0.505,2.301c0.399,2.131,0.816,3.313,1.249,3.546
	c0.466,0.267,1.083-0.466,1.848-2.198l0.999-2.146l0.245,1.06C181.461,359.27,179.786,362.702,177.493,365.525z"/>
</svg>
