<?xml version="1.0" encoding="utf-8"?>
<!-- Generator: Adobe Illustrator 16.0.0, SVG Export Plug-In . SVG Version: 6.00 Build 0)  -->
<!DOCTYPE svg PUBLIC "-//W3C//DTD SVG 1.1//EN" "http://www.w3.org/Graphics/SVG/1.1/DTD/svg11.dtd">
<svg version="1.1" id="图层_1" xmlns="http://www.w3.org/2000/svg" xmlns:xlink="http://www.w3.org/1999/xlink" x="0px" y="0px"
	 width="189px" height="246px" viewBox="0 0 189 246" enable-background="new 0 0 189 246" xml:space="preserve">
<path d="M188.15,152.058c-0.5-2.167-1.434-3.417-2.801-3.751c-1.168-0.267-2.568,0.167-4.201,1.301
	c-2.591,1.781-5.293,4.703-8.103,8.748c-1.313-5.615-3.51-10.236-6.603-13.85c-3.438-4.017-7.579-6.095-12.406-6.279
	c-1.796-4.065-3.938-7.85-6.414-11.363c5.999-2.257,11.906-6.941,17.721-14.066c5.835-7.135,7.952-11.836,6.352-14.104
	c-0.934-1.3-3.217-1.9-6.852-1.8c-2.038,0.089-4.368,0.385-6.956,0.867c-0.263-0.919-0.638-1.794-1.146-2.617
	c-0.084-0.135-0.183-0.258-0.272-0.389c1.115-6.134,0.98-10.883-0.429-14.215c-1.563-3.563-4.669-5.687-9.278-6.407
	c0.007-0.751,0-1.515-0.024-2.295c-0.134-3.676-0.521-7.06-1.147-10.167c4.446-2.182,8.434-5.683,11.95-10.539
	c3.335-4.634,5.135-8.686,5.402-12.153c0.133-1.733-1.75-3.534-5.652-5.401c-2.916-1.372-5.424-2.213-7.531-2.531
	c0.234-3.789-0.286-7.696-1.57-11.722c-1.701-5.402-4.368-9.853-8.002-13.354c-3.969-3.768-8.369-5.735-13.204-5.902
	c-2.3-0.066-4.317,0.583-6.052,1.951c-1.108,0.924-2.021,2.122-2.762,3.559c-2.449-1.769-5.243-2.598-8.391-2.458
	c-3.183,0.118-5.685,1.111-7.514,2.973c-3.316-1.541-7.246-2.1-11.792-1.673c-7.269,0.7-13.437,3.935-18.505,9.703
	c-3.797,4.357-6.05,9.076-6.77,14.154c-4.286,1.284-7.25,4.98-8.885,11.103c-1.707,6.237-0.904,10.757,2.399,13.568
	c-0.316,0.312-0.626,0.608-0.949,0.936c-5.901,5.968-8.469,10.686-7.702,14.154c0.704,3.229,3.798,5.818,9.258,7.775
	c-1.037,1.183-1.762,2.76-2.174,4.734c-3.02,1.475-5.438,3.7-7.235,6.696c-1.767,2.934-2.717,6.151-2.851,9.652
	c-0.133,3.468,0.55,6.568,2.05,9.303c1.47,2.669,3.524,4.576,6.155,5.735c-0.438,1.627-0.534,3.492-0.253,5.618
	c0.635,4.558,2.548,7.8,5.729,9.737c-0.578,0.476-1.154,0.963-1.728,1.466c-4.668,4.101-7.919,7.902-9.752,11.402
	c-1.034,1.967-1.317,3.418-0.851,4.352c0.467,0.9,1.768,1.5,3.901,1.801c5.668,0.833,12.303,0.3,19.905-1.602
	c0.501-0.126,0.986-0.265,1.478-0.398c-0.506,1.975-1.032,4.898-1.578,8.801c-0.659,4.945-0.894,8.091-0.705,9.449
	c-1.791,2.982-3.226,5.954-4.305,8.913c-6.694,2.083-14.607,1.053-23.748-3.108c-7.548-3.401-12.845-7.345-15.907-11.826
	c1.871-1.445,3.366-3.195,4.454-5.277c1.201-2.334,1.801-4.818,1.801-7.452c0-4.567-1.65-8.552-4.951-11.953
	c-3.334-3.401-7.319-5.102-11.953-5.102c-4.401,0-8.286,1.617-11.653,4.852C1.717,134.903,0,138.787,0,143.256
	c0,4.567,1.684,8.519,5.051,11.853c3.368,3.335,7.352,5.001,11.953,5.001l1.619-0.105c0.809,2.664,2.38,5.813,4.733,9.459
	c3.167,4.967,7.069,9.719,11.703,14.254c11.21,10.985,22.421,16.957,33.631,17.943c3.709,7.196,9.781,12.455,18.232,15.765
	l-7.852,9.853c-4.167,5.234-6.501,8.486-7.002,9.753c-0.767,1.834-0.983,3.268-0.65,4.302c0.3,1,1.167,1.684,2.601,2.05
	c6.735,1.634,14.587-1.217,23.557-8.552c6.035-4.902,10.752-9.887,14.153-14.955c0.567-0.833,0.867-3.551,0.9-8.151
	c0-3.195,0.073-5.639,0.219-7.336c6.75,0.227,13.099-0.507,19.036-2.217c7.012-1.973,12.58-5.16,16.757-9.52
	c5.378-0.457,10.197,0.842,14.452,3.918l2.801,2.101c1.066,0.7,2,1.066,2.801,1.101c3.1,0.167,6.518-3.151,10.252-9.952
	c3.034-5.568,5.518-11.787,7.452-18.656c0.733-2.6,1.317-5.534,1.751-8.802C188.717,157.959,188.717,154.525,188.15,152.058z"/>
</svg>
