<?xml version="1.0" encoding="utf-8"?>
<!-- Generator: Adobe Illustrator 16.0.0, SVG Export Plug-In . SVG Version: 6.00 Build 0)  -->
<!DOCTYPE svg PUBLIC "-//W3C//DTD SVG 1.1//EN" "http://www.w3.org/Graphics/SVG/1.1/DTD/svg11.dtd">
<svg version="1.1" id="图层_1" xmlns="http://www.w3.org/2000/svg" xmlns:xlink="http://www.w3.org/1999/xlink" x="0px" y="0px"
	 width="231px" height="324px" viewBox="0 0 231 324" enable-background="new 0 0 231 324" xml:space="preserve">
<path d="M230.365,121.631c0-4.394-1.564-8.122-4.693-11.185c-3.129-3.029-6.924-4.543-11.385-4.543
	c-4.46,0-8.288,1.515-11.484,4.543c-3.229,3.063-4.843,6.791-4.843,11.185c0,4.594,1.864,8.405,5.593,11.434
	c1.863,1.506,3.82,2.57,5.864,3.225c-4.175,18.997-11.72,35.998-22.642,51c-8.518,11.653-17.974,19.979-28.367,24.989
	c-3.046-7.82-8.096-15.335-15.172-22.543c-4.627-4.727-11.75-10.719-21.371-17.975c-9.453-7.09-16.061-12.433-19.822-16.028
	c-6.757-6.424-12.067-13.415-15.928-20.971c-4.427-8.688-7.256-19.157-8.488-31.407c-1.132-11.317-0.796-23.512,0.994-36.579
	c1.685-4.959,2.599-10.09,2.729-15.396c1.433-0.183,2.983-0.495,4.665-0.952c4.427-1.231,7.906-3.046,10.436-5.442
	c4.228-3.995,7.589-9.337,10.086-16.028c2.097-5.592,3.295-11.251,3.595-16.977c0.066-1.065,0.017-1.714-0.15-1.947
	c-0.2-0.266-0.899-0.516-2.097-0.749c-4.561-0.965-9.836-0.832-15.828,0.399c-6.558,1.332-12.25,3.695-17.076,7.09
	c-2.337,1.636-4.274,3.58-5.821,5.824c-5.254-4.367-11.519-6.591-18.795-6.672c-6.088-0.078-11.635,1.135-16.655,3.604
	c-0.102,0.011-0.202,0.029-0.304,0.042c-1.416-3.377-3.589-6.478-6.559-9.289C21.588,5.326,14.631,1.998,5.977,0.3L3.181,0.15
	c-0.3,0.167-0.583,0.766-0.849,1.797C0.867,7.773,0.235,12.999,0.435,17.626c0.167,4.86,1.265,9.453,3.295,13.781
	c2.226,4.697,5.478,8.197,9.736,10.521c-0.93,2.067-1.748,4.217-2.446,6.455c-1.697,5.293-2.546,10.336-2.546,15.129
	c0,15.079,3.029,26.713,9.087,34.901c2.164,2.929,4.577,5.193,7.24,6.791c2.13,1.265,3.944,1.897,5.442,1.897
	c5.259,0,10.901-1.531,16.926-4.594c2.339-1.195,4.604-2.555,6.799-4.073c0.081,5.904-0.437,14.527-1.556,25.893
	c-0.532,5.292-2.43,15.012-5.692,29.16c-1.53,6.616-2.777,12.225-3.747,16.847c-8.968,4.706-16.424,13.203-22.367,25.494
	c-2.763,5.726-4.561,11.085-5.393,16.078c-0.832,4.793-0.516,7.639,0.949,8.537c2.863,1.766,9.97-1.697,21.32-10.385
	c0.872-0.669,1.702-1.319,2.514-1.961c0.181,2.009,0.437,3.959,0.744,5.869c-4.039,4.997-6.194,10.65-6.454,16.963
	c-0.3,6.657,1.731,13.447,6.091,20.371c4.361,6.957,10.719,13.498,19.074,19.623c2.363,1.73,3.578,3.545,3.645,5.442
	c0.066,1.964-1.132,3.263-3.595,3.895c-4.527,1.132-9.237,2.597-14.13,4.394c-4.86,1.798-8.788,4.195-11.784,7.19
	c-2.696,2.696-4.194,5.343-4.494,7.938c-0.399,3.529,1.431,6.209,5.492,8.039c6.092,2.73,14.746,2.396,25.964-0.998
	c11.518-3.462,19.856-8.521,25.016-15.18c1.831-2.297,3.029-4.427,3.595-6.391s0.433-3.528-0.399-4.693
	c-0.722-1.015-1.319-2.007-1.801-2.979c10.349,3.431,22.314,4.396,35.904,2.879c1.313-0.146,2.588-0.33,3.843-0.531
	c0.489,1.448,0.829,2.699,1,3.727c0.533,3.229-0.148,5.775-2.047,7.64c-1.83,1.864-4.594,3.944-8.288,6.241
	c-4.86,3.063-7.706,4.893-8.538,5.492c-2.729,2.064-4.71,4.211-5.942,6.441c-1.265,2.264-1.698,4.477-1.298,6.641
	c0.466,2.829,2.58,4.943,6.341,6.341c3.029,1.132,6.607,1.665,10.735,1.599c6.092-0.067,12.133-1.315,18.125-3.746
	c6.824-2.762,12.3-6.607,16.428-11.533c2.264-2.729,3.445-5.359,3.545-7.889c0.133-3.229-1.398-6.674-4.594-10.336
	c-1.697-1.931-2.496-3.611-2.396-5.043c0.1-1.531,1.198-3.678,3.295-6.441c2.887-3.768,5.185-8.019,6.927-12.727
	c13.18-8.619,24.638-20.533,34.366-35.756c16.443-25.764,24.299-56.838,23.567-93.221c-0.004-0.245-0.032-0.461-0.046-0.694
	c3.008-0.667,5.673-2.19,7.984-4.598C228.867,128.971,230.365,125.493,230.365,121.631z"/>
</svg>
