<?xml version="1.0" encoding="utf-8"?>
<!-- Generator: Adobe Illustrator 16.0.0, SVG Export Plug-In . SVG Version: 6.00 Build 0)  -->
<!DOCTYPE svg PUBLIC "-//W3C//DTD SVG 1.1//EN" "http://www.w3.org/Graphics/SVG/1.1/DTD/svg11.dtd">
<svg version="1.1" id="图层_1" xmlns="http://www.w3.org/2000/svg" xmlns:xlink="http://www.w3.org/1999/xlink" x="0px" y="0px"
	 width="152px" height="168px" viewBox="0 0 152 168" enable-background="new 0 0 152 168" xml:space="preserve">
<path d="M150.049,49.091c-0.301-0.967-0.752-1.702-1.352-2.202c-0.334-0.3-0.834-0.584-1.502-0.851
	c-1.768-0.667-4.354-0.867-7.758-0.601l-3.78,0.57c1.949-0.593,3.796-1.428,5.532-2.522c3.07-1.902,4.604-3.804,4.604-5.706
	c0-5.372-2.919-10.71-8.759-16.016c-2.502-2.303-4.922-3.871-7.257-4.705c-2.536-0.901-4.538-0.75-6.006,0.451
	c-1.517,1.226-2.376,5.535-2.582,12.908c-0.729-3.174-1.686-5.977-2.874-8.403c-1.635-3.37-3.303-5.155-5.004-5.355
	c-4.639-0.567-9.31,2.736-14.014,9.91c-0.247,0.375-0.458,0.749-0.688,1.124c0.477-2.553,0.644-4.9,0.486-7.03
	c-0.267-3.57-1.385-5.672-3.354-6.306c-1.801-0.567-4.153-0.267-7.057,0.901c-0.142,0.055-0.284,0.128-0.426,0.187l0.477-0.387
	c2.068-1.935,3.47-3.437,4.203-4.504c0.734-1.134,1.135-1.918,1.201-2.352c0.201-0.935-0.149-1.969-1.051-3.103
	c-1.668-2.069-4.604-3.554-8.809-4.455c-4.371-0.901-8.341-0.734-11.912,0.5c-1.635,0.567-3.153,1.818-4.555,3.754
	c-1.334,2.035-2.402,3.987-3.203,5.855c-0.594,1.394-0.921,2.508-0.987,3.348l-0.164-1.195l-0.1-6.106
	c-0.133-1.802-0.968-2.77-2.502-2.903c-5.873-0.5-11.562,2.135-17.067,7.908c-2.335,2.436-3.837,4.805-4.504,7.107
	c-0.734,2.502-0.317,4.438,1.251,5.806c2.007,1.72,4.901,2.735,8.652,3.069c-4.992,0.982-8.936,2.474-11.805,4.488
	c-1.435,1.001-2.453,2.853-3.053,5.555c-0.567,2.502-0.684,5.205-0.35,8.108c0.867,7.04,3.37,10.677,7.507,10.911
	c0.934,0.067,1.869-0.217,2.803-0.851l3.354-3.253l4.629-5.969c-0.091,0.205-0.188,0.404-0.275,0.613
	c-0.901,2.069-1.518,4.154-1.852,6.256c-0.467,2.636-0.267,4.504,0.601,5.605c0.778,1,2.06,1.249,3.833,0.769
	c-0.124,1.414-0.128,2.872,0.021,4.386c0.434,4.211,1.871,8.291,4.287,12.242c-4.718-0.393-9.202,0.354-13.446,2.272
	c-3.47,1.568-6.123,3.503-7.958,5.806c-0.226,0.279-0.435,0.555-0.639,0.829c-3.503,1.542-6.613,3.946-9.321,7.229
	c-2.335,2.803-4.471,6.656-6.406,11.561c-1.101,2.869-2.619,7.258-4.555,13.163c-3.77,10.845-8.575,17.634-14.414,20.37
	c-1.168,0.534-1.852,1.018-2.052,1.451c-0.2,0.334-0.066,0.751,0.4,1.252c0.801,0.967,2.302,1.685,4.505,2.152l4.905,0.6
	c2.282,0.231,4.414,0.36,6.414,0.399c0.021,0.563,0.068,1.146,0.142,1.753c0.234,1.802,0.667,3.453,1.301,4.955
	c0.567,1.368,1.084,2.086,1.552,2.152c0.934,0.133,3.72-0.818,8.358-2.854c0.594-0.258,1.153-0.508,1.683-0.75
	c0.814,1.791,1.737,3.195,2.771,4.204c1.034,1.067,1.936,1.519,2.703,1.351l2.853-3.353c1.229-1.497,2.538-2.841,3.91-4.062
	c0.262,1.428,1.221,3.36,2.896,5.813c2.402,3.504,4.354,4.305,5.856,2.402c1.715-2.198,3.917-4.219,6.588-6.069
	c4.679,5.094,9.523,8.955,14.532,11.575c2.035,1.068,3.454,0.367,4.254-2.102c0.503-1.551,1.864-4.417,4.068-8.58
	c2.383,2.072,4.147,3.682,5.291,4.826c2.603,2.535,4.354,4.588,5.256,6.156c0.333,0.634,1.852,0.217,4.555-1.252
	c2.115-1.146,3.606-2.327,4.479-3.546c2.028,1.376,3.491,2.426,4.379,3.146c1.168,0.935,2.453,2.486,3.854,4.654l1.901,2.854
	c0.367,0.066,1.151-0.601,2.353-2.002c1.269-1.469,2.202-2.854,2.804-4.154c1.155-2.452,2.095-5.031,2.842-7.725l3.113,1.669
	c4.305,2.269,6.623,3.337,6.957,3.203c0.91-0.443,1.69-1.514,2.35-3.182c5.674,0.362,10.471-0.402,14.367-2.324
	c0.967-0.467,1.451-1.067,1.451-1.802s-0.434-1.352-1.301-1.852c-6.34-3.537-11.145-10.076-14.415-19.619l-3.753-11.962
	c-1.502-4.671-3.087-8.408-4.756-11.212c-2.58-4.29-6.138-7.152-10.64-8.636c-1.494-2.229-3.514-4.16-6.076-5.778
	c-2.031-1.313-4.135-2.232-6.308-2.774c1.696-0.551,3.563-1.456,5.607-2.73c2.97-1.84,5.309-3.943,7.037-6.301
	c1.108,0.521,2.049,0.67,2.822,0.445c1.034-0.267,1.969-1.251,2.803-2.953c0.9-1.769,1.584-3.67,2.052-5.706
	c0.1-0.397,0.164-0.771,0.239-1.151c-0.024,3.104-0.2,6.484-0.539,10.16c-0.134,1.568,0.199,2.87,1,3.904
	c0.635,0.834,1.535,1.435,2.703,1.802c2.937,0.9,6.99,0.885,12.162-0.05c5.772-1.067,8.542-2.953,8.309-5.656
	c-0.434-4.204-2.57-8.508-6.406-12.913c-0.378-0.437-0.748-0.849-1.113-1.245c3.835,2.278,6.859,3.695,9.07,4.248
	c0.834,0.233,1.552,0.233,2.152,0c0.567-0.234,1.102-0.701,1.602-1.401c2.068-2.836,3.236-6.123,3.504-9.86
	C151.699,56.148,151.217,52.695,150.049,49.091z"/>
</svg>
