<?xml version="1.0" encoding="utf-8"?>
<!-- Generator: Adobe Illustrator 16.0.0, SVG Export Plug-In . SVG Version: 6.00 Build 0)  -->
<!DOCTYPE svg PUBLIC "-//W3C//DTD SVG 1.1//EN" "http://www.w3.org/Graphics/SVG/1.1/DTD/svg11.dtd">
<svg version="1.1" id="图层_1" xmlns="http://www.w3.org/2000/svg" xmlns:xlink="http://www.w3.org/1999/xlink" x="0px" y="0px"
	 width="169px" height="165px" viewBox="0 0 169 165" enable-background="new 0 0 169 165" xml:space="preserve">
<path d="M167.398,64.142c-0.797-2.793-2.809-5.021-6.035-6.684c-3.83-1.948-8.302-2.417-13.411-1.414
	c-2.434-3.261-5.102-6.229-8.005-8.9c2.019-0.592,4.086-1.856,6.203-3.801c3.459-3.159,5.504-7.182,6.135-12.071
	c0.6-4.555,0.018-9.078-1.745-13.567c-1.729-4.356-4.306-8.064-7.731-11.123c-3.559-3.192-7.531-5.237-11.921-6.135
	c-4.755-0.964-9.526-0.449-14.315,1.546c-4.922,2.062-8.513,5.786-10.773,11.173c-2.506,5.848-2.507,12.068-0.014,18.661
	c-3.938-0.24-7.841,0.019-11.709,0.792c-6.52,1.288-12.344,3.701-17.484,7.218c-0.896-6.742-4.009-12.06-9.351-15.947
	c-6.185-4.522-13.251-5.121-21.199-1.796c-5.885,2.461-10.275,6.468-13.168,12.021c-2.527,4.755-3.674,10.059-3.441,15.912
	c0.299,7.98,3.275,13.966,8.928,17.957c5.259,3.724,11.049,4.633,17.367,2.742c-2.465,9.595-2.571,20.185-0.308,31.774
	c2.361,12.237,8.712,21.847,19.054,28.83c3.94,2.669,8.093,4.704,12.456,6.115l-13.204,8.3l-1.047,0.1l-0.599-0.648l-7.482-11.521
	c-0.532-0.832-1.347-0.965-2.444-0.399l-13.218,7.033c-0.897,0.565-1.43,0.216-1.596-1.048l-0.947-8.23l-0.25-1.596
	c-0.167-0.432-0.482-0.665-0.948-0.698l-8.629-0.249c-0.399-0.033-0.648-0.166-0.749-0.399c-0.066-0.166-0.083-0.499-0.05-0.997
	l0.549-9.028c0.066-0.665-0.299-0.981-1.098-0.948l-5.486,0.25c-0.333,0.033-0.499-0.084-0.499-0.35l0.355-5.775
	c4.451-1.278,8.165-3.779,11.117-7.542c3.325-4.257,4.988-8.945,4.988-14.065c0-6.451-2.161-11.772-6.484-15.962
	c-4.29-4.157-9.71-6.235-16.261-6.235c-6.484,0-11.921,2.294-16.311,6.883c-4.123,4.356-6.185,9.46-6.185,15.313
	c0,6.484,2.128,11.854,6.385,16.11c4.256,4.29,9.626,6.435,16.111,6.435l2.843-0.15c0.271-0.033,0.526-0.092,0.792-0.134
	l-0.044,7.716c0.033,0.732,0.382,1.048,1.047,0.947l5.188-0.598c0.366,0,0.549,0.166,0.549,0.498l-0.948,9.577
	c-0.066,0.997,0.299,1.513,1.097,1.546l9.028,0.25c0.465,0.033,0.748,0.398,0.848,1.098l1.497,12.021
	c0.066,0.632,0.299,1.03,0.698,1.196c0.366,0.167,0.832,0.084,1.396-0.248l14.216-8.131c0.499-0.299,0.881-0.433,1.147-0.398
	c0.333,0.066,0.665,0.365,0.998,0.896l7.183,11.174c0.399,0.631,0.898,1.014,1.497,1.146c0.565,0.167,1.164,0.066,1.795-0.299
	l18.917-11.369c1.943,0.371,3.926,0.625,5.946,0.767c0.402,1.323,0.297,3.325-0.323,6.014c-0.798,3.425-0.814,6.7-0.05,9.826
	c1.43,5.653,4.339,8.463,8.729,8.43c4.389-0.066,7.314-2.909,8.778-8.529c0.731-2.761,0.249-6.235-1.446-10.425
	c-1.206-2.95-1.812-4.949-1.83-6.02c12.312-1.879,22.554-6.026,30.737-12.431c0.059,0.03,0.112,0.067,0.172,0.095
	c1.829,0.864,3.757,0.482,5.786-1.147c2.095-1.696,3.857-4.888,5.287-9.577c0.274-0.906,0.515-1.807,0.734-2.703
	c4.098-6.828,5.998-14.373,5.699-22.635c-0.213-5.578-1.301-11.105-3.251-16.582c1.236,0.209,2.34,0.286,3.302,0.221
	c2.194-0.167,3.891-1.064,5.088-2.693C167.715,69.229,168.164,66.769,167.398,64.142z"/>
</svg>
