<?xml version="1.0" encoding="utf-8"?>
<!-- Generator: Adobe Illustrator 16.0.0, SVG Export Plug-In . SVG Version: 6.00 Build 0)  -->
<!DOCTYPE svg PUBLIC "-//W3C//DTD SVG 1.1//EN" "http://www.w3.org/Graphics/SVG/1.1/DTD/svg11.dtd">
<svg version="1.1" id="图层_1" xmlns="http://www.w3.org/2000/svg" xmlns:xlink="http://www.w3.org/1999/xlink" x="0px" y="0px"
	 width="187px" height="243px" viewBox="0 0 187 243" enable-background="new 0 0 187 243" xml:space="preserve">
<path d="M179.011,153.33c-4.136-5.53-8.609-9.324-13.421-11.394c-3.004-20.025-10.77-36.674-23.33-49.924
	c-2.816-2.96-5.764-5.554-8.825-7.826c2.645-3.065,5.65-6.959,9.024-11.699c8.456-11.851,14.064-22.653,16.828-32.406
	c2.696-9.454,3.845-17.893,3.445-25.316c-0.5-8.389-3.013-13.182-7.54-14.381c-4.527-1.198-9.521,1.382-14.979,7.74
	c-4.961,5.759-9.455,13.565-13.482,23.419c-3.895,9.521-7.057,19.79-9.487,30.809c-0.978,4.458-1.77,8.684-2.376,12.68
	c-6.289-1.692-12.638-2.065-19.045-1.096c-3.77,0.563-7.393,1.563-10.887,2.947c-0.616-3.481-1.412-7.436-2.396-11.885
	c-2.53-11.418-5.509-22.22-8.938-32.407c-3.229-9.587-7.24-17.094-12.034-22.52c-4.827-5.426-9.454-7.64-13.882-6.641
	c-4.161,0.932-6.824,4.811-7.989,11.635c-1.198,6.957-0.599,15.662,1.798,26.115c2.23,9.753,7.007,20.206,14.331,31.358
	c4.486,6.836,8.471,11.979,11.958,15.447c-5.057,4.774-9.45,10.55-13.157,17.359c-4.627,8.455-7.839,17.81-9.637,28.063
	c-0.282,1.611-0.512,3.226-0.716,4.843c-1.122-0.966-2.293-2.068-3.528-3.345c-2.93-3.063-5.227-5.876-6.891-8.438
	c-1.298-1.965-2.846-3.363-4.644-4.195c-1.931-0.898-3.895-0.981-5.892-0.249c-2.364,0.832-4.194,2.479-5.493,4.943
	c-1.465,2.896-1.797,6.292-0.999,10.187c1.231,5.992,5.442,11.418,12.633,16.277c4.737,3.189,9.531,5.331,14.377,6.479
	c0.146,1.733,0.32,3.468,0.553,5.207c1.697,12.747,5.684,23.577,11.93,32.515l-5.089,7.132l-6.94-6.791
	c-0.333-0.299-0.6-0.433-0.799-0.399c-0.167,0.033-0.366,0.183-0.599,0.449l-6.591,7.54l-4.096-5.021
	c1.229-2.329,1.85-4.932,1.85-7.813c0-4.727-1.681-8.771-5.043-12.134c-3.329-3.361-7.357-5.043-12.084-5.043
	s-8.722,1.598-11.984,4.793C1.648,183.573,0,187.551,0,192.278s1.681,8.755,5.043,12.084c3.329,3.362,7.356,5.043,12.083,5.043
	c4.76,0,8.772-1.598,12.034-4.794c0.039-0.038,0.07-0.079,0.108-0.117l5.684,7.957l0.399,0.3l0.649-0.499l7.939-7.391l8.738,9.537
	c0.399,0.4,0.699,0.633,0.898,0.699l0.699-0.449l2.996-4.544l2.946-4.594l3.226,0.569c1.488,1.461,3.059,2.853,4.713,4.174
	c4.697,3.746,9.705,6.633,15.014,8.692c-0.359,0.146-0.712,0.288-1.082,0.446l-10.736,3.495c-4.361,1.397-7.54,3.063-9.537,4.993
	c-2.763,2.563-3.512,5.276-2.247,8.139c1.265,2.863,4.461,4.478,9.587,4.844c4.927,0.366,10.086-0.499,15.479-2.596
	c4.294-1.665,7.856-3.779,10.686-6.342c2.164-1.998,3.646-3.962,4.444-5.893c0.469-1.063,0.724-2.201,0.782-3.41
	c4.57,0.249,9.315,0.017,14.248-0.734c3.531-0.536,6.883-1.243,10.061-2.115c0.076,0.188,0.144,0.385,0.226,0.567
	c1.298,2.896,3.195,4.81,5.692,5.742c2.763,1.032,5.692,0.55,8.788-1.448c3.196-2.03,5.775-5.209,7.739-9.537
	c1.406-3.079,2.355-6.123,2.877-9.136c2.353-2.275,4.483-4.764,6.361-7.491c5.306-7.701,8.584-17.012,9.844-27.925l0.492,1.46
	l1.697,5.442c0.699,1.997,1.349,3.462,1.947,4.394c1.133,1.799,2.58,3.096,4.345,3.896l5.243,0.249
	c2.164-0.799,3.845-2.264,5.043-4.394c1.232-2.164,1.814-4.827,1.748-7.989C186.801,166.979,184.17,160.221,179.011,153.33z"/>
</svg>
