<?xml version="1.0" encoding="utf-8"?>
<!-- Generator: Adobe Illustrator 16.0.0, SVG Export Plug-In . SVG Version: 6.00 Build 0)  -->
<!DOCTYPE svg PUBLIC "-//W3C//DTD SVG 1.1//EN" "http://www.w3.org/Graphics/SVG/1.1/DTD/svg11.dtd">
<svg version="1.1" id="图层_1" xmlns="http://www.w3.org/2000/svg" xmlns:xlink="http://www.w3.org/1999/xlink" x="0px" y="0px"
	 width="276px" height="295px" viewBox="0 0 276 295" enable-background="new 0 0 276 295" xml:space="preserve">
<path d="M274.535,76.004c-0.968-2.57-2.42-4.874-4.355-6.91c-1.937-2.036-4.156-3.622-6.66-4.756
	c-2.536-1.135-5.207-1.736-8.01-1.802c-5.775-0.134-10.766,1.786-14.971,5.758c-4.205,4.005-6.393,8.895-6.559,14.67
	c-0.066,2.804,0.4,5.491,1.401,8.061c0.059,0.155,0.136,0.3,0.197,0.454l-4.353,4.303c-1.603,1.468-2.703,2.153-3.305,2.053
	c-0.635-0.1-1.302-0.818-2.002-2.153l-0.583-1.259c3.462-3.769,5.268-8.251,5.389-13.46c0.167-5.774-1.753-10.765-5.758-14.97
	s-8.896-6.392-14.67-6.559c-2.771-0.066-5.457,0.4-8.061,1.402c-2.57,0.968-4.874,2.42-6.909,4.356
	c-2.037,1.936-3.605,4.156-4.707,6.659c-1.135,2.537-1.735,5.207-1.803,8.011c-0.066,2.804,0.4,5.491,1.402,8.061
	c0.969,2.57,2.42,4.873,4.355,6.909c1.937,2.036,4.156,3.622,6.66,4.756c2.536,1.135,5.189,1.736,7.96,1.803
	c1.143,0.033,2.245-0.04,3.326-0.169c0.09,0.5,0.171,1.004,0.229,1.521c0.4,3.171-0.067,5.558-1.402,7.16
	c-1.535,1.869-8.295,5.741-20.277,11.616c-11.649,5.708-18.775,8.795-21.379,9.262l-1.742-0.112l0.841-26.574
	c0.534-20.561,0.45-32.01-0.251-34.347c-1.436-4.84-3.788-8.395-7.059-10.665c-3.705-2.503-9.33-4.005-16.873-4.506
	c-0.253-0.018-0.52-0.024-0.774-0.04c-0.083-1.7,0.037-3.618,0.374-5.769c0.634-3.872,1.602-6.325,2.903-7.36
	c1.202-0.968,2.954-1.953,5.257-2.954c1.535-0.667,4.439-1.786,8.712-3.354l13.97-5.207c5.006-2.036,8.211-3.688,9.612-4.957
	c1.97-1.803,2.87-4.089,2.704-6.859c-0.167-2.437-1.119-4.907-2.854-7.41c-1.637-2.37-3.556-4.156-5.758-5.357
	c-2.337-1.269-4.39-1.536-6.159-0.801c-1.669,0.734-3.638,2.036-5.907,3.905l-8.062,6.909l-10.114,8.512
	c-3.738,2.938-6.342,4.406-7.811,4.406c-1.067,0-2.286-0.717-3.654-2.153l-10.014-10.564c-4.439-4.606-9.296-9.33-14.57-14.169
	c-1.502-1.369-3.371-1.686-5.607-0.951c-2.003,0.701-3.922,2.153-5.758,4.356c-1.869,2.169-3.171,4.539-3.905,7.109
	c-0.801,2.837-0.734,5.357,0.2,7.561c0.601,1.435,5.541,4.406,14.82,8.912l15.321,7.51c4.038,3.097,5.374,9.324,4.028,18.66
	c-0.74,0.038-1.47,0.065-2.225,0.116c-5.808,0.367-10.097,1.018-12.868,1.953c-6.609,2.27-10.714,5.19-12.316,8.762
	c-1.803,4.072-2.136,12.05-1.001,23.933l1.752,18.775c0.522,6.677,0.86,12.675,1.02,18.018c-3.626,1.057-6.407,1.047-8.33-0.044
	l-21.629-12.817c-10.581-6.509-16.489-10.547-17.724-12.116c-1.001-1.269-1.251-2.787-0.751-4.556
	c0.3-1.068,1.018-2.521,2.153-4.356l0.608-1.071c2.803,1.4,5.883,2.122,9.256,2.122c5.774,0,10.714-2.053,14.82-6.158
	s6.158-9.046,6.158-14.82s-2.053-10.714-6.158-14.82c-4.105-4.106-9.045-6.159-14.82-6.159c-5.775,0-10.715,2.053-14.82,6.159
	c-4.105,4.105-6.158,9.045-6.158,14.82c0,4.663,1.363,8.772,4.04,12.347c-0.145,0.125-0.287,0.233-0.435,0.37
	c-3.038,2.804-5.324,4.239-6.859,4.306c-1.612,0.081-3.62-0.994-6.01-3.185c2.722-3.595,4.107-7.734,4.107-12.437
	c0-5.774-2.053-10.714-6.158-14.82s-9.045-6.159-14.82-6.158c-5.774,0-10.714,2.053-14.82,6.158s-6.158,9.045-6.158,14.82
	c0,5.775,2.053,10.715,6.158,14.82s9.045,6.158,14.82,6.158c2.995,0,5.76-0.564,8.305-1.668l2.61,3.07
	c1.001,1.335,1.452,2.32,1.352,2.954c-0.123,0.735-0.674,1.482-1.646,2.242c-3.499-2.517-7.501-3.794-12.022-3.794
	c-5.774,0-10.714,2.053-14.82,6.159c-4.106,4.105-6.159,9.045-6.159,14.82s2.053,10.715,6.159,14.82
	c4.105,4.105,9.045,6.158,14.82,6.158s10.715-2.053,14.82-6.158s6.158-9.046,6.158-14.82c0-2.345-0.356-4.545-1.034-6.616
	c2.43-0.448,4.001-0.666,4.688-0.644c2.17,0.033,4.423,1.102,6.759,3.205c1.703,1.535,6.542,4.973,14.52,10.314
	c8.044,5.407,13.952,9.179,17.724,11.315l4.306,1.953l4.406,1.752c2.938,1.235,5.491,2.938,7.661,5.107
	c2.236,2.27,3.504,4.506,3.805,6.709c0.011,0.092,0.03,0.17,0.046,0.251c-1.382,11.903-3.233,20.684-5.554,26.335l-5.607,14.771
	c-2.674,7.859-4.464,14.631-5.407,20.362c-2.605,0.375-5.077,1.605-7.411,3.72c-3.038,2.737-5.24,6.426-6.609,11.064
	c-2.704,8.846-0.768,16.089,5.808,21.73c-2.437,2.068-4.022,4.289-4.756,6.658c-0.701,2.17-0.784,4.957-0.25,8.361
	c-8.511,2.037-15.104,4.573-19.776,7.611c-4.573,3.004-6.943,6.225-7.11,9.662c-0.1,1.636,0.4,3.104,1.502,4.406
	c1.068,1.235,2.503,2.17,4.306,2.804c4.84,1.669,11.282,1.636,19.326-0.101c8.211-1.802,13.852-4.521,16.923-8.16
	c0.634-0.768,1.135-1.752,1.502-2.954l0.451-3.104c0-0.867-0.634-2.587-1.903-5.156c-1.302-2.57-1.953-4.557-1.953-5.959
	c0-2.971,1.285-5.891,3.855-8.762c3.605-0.2,6.542-0.801,8.812-1.803c0.169-0.078,0.333-0.182,0.5-0.268
	c5.456,3.162,11.38,4.872,17.774,5.125c5.671,0.213,10.767-0.799,15.294-3.022c1.633,1.374,3.294,2.416,4.984,3.122
	c2.369,1.002,5.156,1.52,8.361,1.553c1.568,1.735,2.353,3.721,2.353,5.957c0,1.569-0.751,3.521-2.253,5.858
	s-2.253,4.056-2.253,5.157c0,2.637,1.686,5.257,5.057,7.86c3.138,2.403,7.227,4.439,12.267,6.108
	c5.007,1.669,9.98,2.654,14.92,2.954c5.308,0.333,9.664-0.2,13.068-1.603c1.535-0.634,2.62-1.401,3.254-2.303
	c0.567-0.801,0.918-1.986,1.052-3.555c0.501-5.107-2.787-9.58-9.863-13.418c-6.242-3.405-13.302-5.375-21.179-5.908
	c0.801-1.902,0.968-4.239,0.5-7.01c-0.434-2.838-1.418-5.307-2.953-7.41c2.536-2.971,3.805-6.909,3.805-11.816
	c0-4.807-1.385-9.68-4.156-14.619c-1.444-2.573-3.029-4.585-4.752-6.046c3.081-9.064,5.634-19.963,7.656-32.707
	c1.824-11.37,2.882-21.846,3.198-31.457c1.12-1.739,2.468-3.454,4.062-5.143c3.338-3.604,7.36-6.642,12.066-9.112l11.666-6.258
	l12.518-6.208c4.105-2.136,6.658-3.622,7.66-4.456l0.551-0.451c3.004-2.437,5.941-4.139,8.812-5.107
	c1.089-0.359,2.192-0.609,3.306-0.772c-0.979,2.333-1.524,4.855-1.604,7.582c-0.066,2.804,0.4,5.491,1.402,8.061
	c0.968,2.57,2.42,4.874,4.355,6.91s4.156,3.622,6.659,4.756c2.537,1.135,5.207,1.719,8.011,1.752
	c5.809,0.167,10.799-1.736,14.971-5.708c2.036-1.936,3.621-4.155,4.756-6.659c1.135-2.537,1.736-5.207,1.803-8.011
	c0.066-2.804-0.384-5.491-1.352-8.061c-1.002-2.57-2.471-4.89-4.406-6.959c-3.972-4.172-8.861-6.342-14.67-6.509
	c-3.966-0.092-7.553,0.809-10.779,2.654c-1.224-0.726-1.874-1.361-1.938-1.903c-0.101-1.035,0.9-2.487,3.004-4.356l2.903-2.328
	c3.652,3.172,7.989,4.837,13.019,4.981c2.803,0.067,5.49-0.384,8.061-1.352c2.57-1.001,4.873-2.47,6.909-4.406
	s3.604-4.155,4.706-6.659c1.135-2.537,1.736-5.207,1.803-8.011C275.953,81.261,275.503,78.574,274.535,76.004z"/>
</svg>
