<?xml version="1.0" encoding="utf-8"?>
<!-- Generator: Adobe Illustrator 16.0.0, SVG Export Plug-In . SVG Version: 6.00 Build 0)  -->
<!DOCTYPE svg PUBLIC "-//W3C//DTD SVG 1.1//EN" "http://www.w3.org/Graphics/SVG/1.1/DTD/svg11.dtd">
<svg version="1.1" id="图层_1" xmlns="http://www.w3.org/2000/svg" xmlns:xlink="http://www.w3.org/1999/xlink" x="0px" y="0px"
	 width="187px" height="285px" viewBox="0 0 187 285" enable-background="new 0 0 187 285" xml:space="preserve">
<path d="M183.404,194.355c2.03-1.997,3.046-4.428,3.046-7.29s-1.016-5.293-3.046-7.29c-0.178-0.178-0.363-0.339-0.549-0.501
	c0.221-6.226-0.337-12.729-1.698-19.522c-3.063-15.313-9.771-30.443-20.123-45.389c-10.087-14.581-22.12-26.848-36.103-36.801
	c-14.58-10.386-29.16-16.694-43.741-18.924c-1.684-0.255-3.356-0.457-5.018-0.606c-0.434-17.432-4.411-31.321-11.959-41.638
	C56.391,5.708,46.254,0.365,33.804,0.365c-8.422,0-15.379,2.247-20.872,6.741C7.273,11.7,4.443,17.675,4.443,25.032
	c0,7.623,1.98,13.598,5.942,17.926c3.762,4.161,8.755,6.242,14.98,6.242c4.727-0.033,8.688-1.531,11.884-4.494
	c3.196-2.962,4.76-6.625,4.694-10.985c-0.067-3.295-1.232-6.125-3.496-8.488c-2.33-2.463-5.193-3.695-8.588-3.695
	c-1.931,0-3.628,0.399-5.093,1.199c-1.498,0.832-2.23,1.797-2.197,2.896c0.066,1.764,0.999,2.729,2.796,2.896h4.694
	c2.363,0.366,4.011,1.481,4.943,3.346c1.099,2.164,0.599,4.51-1.498,7.041c-1.165,1.431-2.613,2.463-4.344,3.096
	c-1.764,0.632-3.628,0.815-5.592,0.549c-3.862-0.533-6.974-2.729-9.337-6.591c-2.031-3.362-2.996-6.824-2.896-10.386
	c0.2-5.193,2.297-9.587,6.292-13.182c4.228-3.795,9.587-5.643,16.079-5.542c8.755,0.167,16.062,3.795,21.921,10.885
	c7.416,8.956,10.639,22.329,9.703,40.083c-7.861,0.412-15.458,2.075-22.786,5.006c-12.483,4.993-20.972,12.417-25.466,22.27
	c-4.128,8.988-4.178,18.259-0.15,27.813c2.13,5.126,5.909,10.835,11.335,17.127l0.649,0.849c-2.984,8.127-3.662,15.027-2.058,20.712
	c-4.792,2.728-9.1,6.756-12.922,12.095l-6.242,0.149c-2.63,0.665-4.661,2.097-6.092,4.294c-1.432,2.23-1.914,4.594-1.448,7.091
	c0.466,2.43,1.681,4.211,3.645,5.343c-1.165,1.465-1.598,3.313-1.298,5.543c0.333,2.297,1.381,4.145,3.146,5.542
	c2.131,1.731,4.478,2.547,7.041,2.446c2.43-0.1,4.76-0.981,6.991-2.646c1.864,1.698,4.194,2.48,6.991,2.348
	c2.696-0.133,4.927-1.016,6.691-2.646c2.164-1.965,3.08-4.594,2.747-7.89c-0.3-3.229-1.582-5.526-3.845-6.891
	c3.795-3.896,9.57-5.626,17.327-5.193c5.146,0.266,9.981,1.376,14.513,3.308c-0.595,4.253-0.991,8.082-1.181,11.473
	c-0.484,8.141-0.084,15.264,1.185,21.385l-4.43-0.363c-4.194-0.166-7.19-0.133-8.988,0.101c-4.361,0.565-7.623,2.13-9.787,4.693
	c-2.031,2.364-2.863,5.177-2.497,8.438c0.3,2.563,0.999,5.843,2.097,9.838l1.2,4.159c-0.872,0.925-1.52,1.942-1.943,3.052
	l-0.022-0.002c-0.388-1.679-1.208-3.137-2.481-4.363c-1.864-1.798-4.145-2.697-6.841-2.697c-2.73,0-5.027,0.899-6.891,2.697
	c-1.931,1.797-2.896,4.027-2.896,6.691c0,2.253,0.684,4.188,2.032,5.813c-0.908,0.447-1.755,1.049-2.531,1.825
	c-1.798,1.799-2.697,3.979-2.697,6.542s0.899,4.743,2.697,6.541c1.831,1.831,4.028,2.747,6.591,2.747c2.505,0,4.665-0.9,6.485-2.695
	c1.223,0.669,6.211,4.407,14.987,11.233c4.567,3.536,8.458,6.272,11.68,8.22c0.564,0.468,1.161,0.925,1.802,1.367
	c2.83,2.031,5.892,3.079,9.188,3.146c0.511,0.011,0.99-0.013,1.454-0.053c2.399,0.111,4.299-0.399,5.687-1.546
	c2.43-2.097,3.445-5.376,3.046-9.837c-0.333-3.961-1.931-9.986-4.793-18.076l-5.093-13.381l10.536,1.248
	c4.994,0.832,8.372,1.598,10.137,2.297c0.203,0.074,0.404,0.1,0.603,0.103c2.614,0.956,5.379,1.707,8.335,2.194
	c21.567,3.553,38.896,1.53,52.002-6.038c1.965,2.517,4.565,3.791,7.817,3.791c4.895,0,9.188-3.462,12.883-10.386
	c3.795-7.191,5.977-16.328,6.542-27.414c0.175-3.508,0.074-6.764-0.298-9.772c0.087-0.267,0.178-0.531,0.261-0.799
	C181.224,196.159,182.368,195.392,183.404,194.355z"/>
</svg>
