<?xml version="1.0" encoding="utf-8"?>
<!-- Generator: Adobe Illustrator 16.0.0, SVG Export Plug-In . SVG Version: 6.00 Build 0)  -->
<!DOCTYPE svg PUBLIC "-//W3C//DTD SVG 1.1//EN" "http://www.w3.org/Graphics/SVG/1.1/DTD/svg11.dtd">
<svg version="1.1" id="图层_1" xmlns="http://www.w3.org/2000/svg" xmlns:xlink="http://www.w3.org/1999/xlink" x="0px" y="0px"
	 width="200px" height="167px" viewBox="0 0 200 167" enable-background="new 0 0 200 167" xml:space="preserve">
<path d="M181.002,33.52l0.799-0.899C190.394,19,196.088,8.992,198.887,2.598c0.565-1.299,0.748-2.064,0.549-2.298l-3.247-0.15
	c-3.83,0.367-9.991,1.299-18.483,2.797c-8.093,1.432-13.072,2.415-14.937,2.948c-1.132,0.3-1.831,0.516-2.099,0.649
	c-0.365,0.2-0.633,0.516-0.799,0.949c-0.232,0.566-0.865,3.164-1.898,7.793l-2.348,10.59l-7.044,0.35l-5.095,0.35
	c-0.733,0.1-1.183,0.25-1.35,0.45c-0.166,0.233-0.232,0.783-0.199,1.648l0.799,12.139l-9.541,1.849
	c-1.1,0.166-1.732,0.316-1.898,0.449c-0.233,0.133-0.366,0.583-0.4,1.349c-0.232,3.463-0.316,7.177-0.249,11.14l-8.043,1.149
	l-1.149,0.25c-0.299,0.167-0.449,0.483-0.449,0.949l0.3,9.542c-2.997,0.566-4.929,0.982-5.795,1.249c-0.2,0.067-0.267,0.2-0.2,0.4
	c0.149,1.159,0.751,4.262,1.802,9.295l-4.549-8.196l-0.749-0.799c-0.233-0.034-0.6,0.133-1.1,0.5l-4.846,3.247
	c-1.798-3.563-3.629-6.677-5.495-9.342l-0.75-0.649c-0.2,0-0.549,0.167-1.049,0.5l-8.592,5.595l-7.793-9.741
	c-0.466-0.6-0.849-0.883-1.149-0.85c-0.233,0-0.683,0.267-1.349,0.799l-8.442,7.293c-3.897-4.296-7.061-7.56-9.492-9.791
	c-0.533-0.5-0.966-0.716-1.299-0.649c-0.133,0.033-0.583,0.333-1.349,0.899c-2.398,1.765-5.429,4.163-9.092,7.193l-14.837-11.54
	c-0.699-0.5-1.149-0.766-1.349-0.799c-0.233-0.033-0.7,0.15-1.399,0.549C16.05,62.577,5.726,68.955,1.463,71.786
	c-0.933,0.666-1.349,1.182-1.249,1.549c0.1,0.366,0.766,0.799,1.999,1.299c4.363,1.665,16.318,5.395,35.868,11.19l1.299,0.1
	l1.099-0.699l4.696-4.846l5.045-5.495c3.064,3.264,6.361,6.311,9.891,9.143c0.466,0.365,0.833,0.516,1.099,0.449
	c0.299-0.033,0.716-0.3,1.249-0.8l8.043-8.143l3.247,3.647l5.345,5.495l1.299,0.949c0.399,0.033,0.982-0.366,1.749-1.199
	l7.144-7.393l7.893,7.843l1.399,0.999l1.499-1.1l4.996-5.045l1.799,2.548l1.172,1.474c-2.782,1.826-5.28,3.86-7.496,6.104
	c-4.338-0.294-9.102-0.078-14.308,0.666c-6.561,0.932-12.139,2.464-16.735,4.596c-2.498,1.165-3.963,2.646-4.396,4.445
	c-0.433,1.865,0.149,4.313,1.748,7.344c1.932,3.764,4.779,7.56,8.542,11.39c3.536,3.563,7.45,6.656,11.731,9.295
	c0.238,2.636,0.826,5.233,1.807,7.79c1.099,2.896,2.547,5.461,4.346,7.693c1.174,1.449,2.461,2.765,3.854,3.958
	c-1.163,0.734-2.726,1.315-4.703,1.736l-6.744,0.649c-1.999,0.033-3.547,0.283-4.646,0.75c-1.232,0.532-2.082,1.381-2.548,2.547
	c-0.2,0.533-0.25,1.148-0.15,1.849c0.067,0.699,0.25,1.299,0.55,1.798c0.433,0.767,1.115,1.482,2.048,2.148
	c0.966,0.666,1.965,1.133,2.998,1.398c3.563,0.933,7.31,0.666,11.24-0.799c1.613-0.617,3.101-1.395,4.466-2.326
	c-0.072,0.887-0.065,1.779,0.03,2.676c0.399,3.63,2.131,5.795,5.196,6.494c3.43,0.799,6.543-0.25,9.341-3.147
	c2.282-2.342,3.607-4.902,3.994-7.677c0.934,0.084,1.893,0.139,2.864,0.178c1.474,3.51,3.711,5.192,6.729,5.002
	c2.436-0.16,4.637-2.112,6.609-5.817c4.936-0.821,9.733-2.228,14.395-4.208c0.212,0.8,0.452,1.483,0.727,2.032
	c1.099,2.198,2.814,3.847,5.146,4.945c2.465,1.199,4.746,1.299,6.844,0.3c2.398-1.133,3.68-3.214,3.847-6.244
	c0.134-2.498-0.417-4.912-1.648-7.244l-1.088-1.755c5.319-4.141,9.393-9.13,12.22-14.968c1.377-0.711,2.668-1.43,3.854-2.16
	c6.86-4.162,9.691-7.977,8.493-11.439c-0.5-1.498-1.932-2.381-4.297-2.647c-1.18-0.139-2.477-0.065-3.877,0.194
	c0.295-7.207-1.671-13.983-5.914-20.326c-0.664-1.011-1.4-1.962-2.186-2.873c1.628-5.341,2.265-11.85,1.886-19.557
	c-0.466-8.726-2.215-13.021-5.245-12.888c-3.996,0.2-8.443,1.715-13.338,4.546c-6.039,3.474-11.248,8.334-15.641,14.561
	c-3.675-0.111-7.344,0.198-11.005,0.932l0.119-3.454l2.598-0.35l5.245-0.85c0.6-0.133,0.966-0.316,1.1-0.549l0.199-2.248
	l0.199-7.793l10.641-2.947l0.949-0.4c0.2-0.166,0.301-0.533,0.301-1.099l-0.101-8.493l12.888-2.748c0.9-0.233,1.433-0.449,1.6-0.649
	l0.25-1.448l-0.051-3.847l-0.149-4.546l16.585-0.55L181.002,33.52z"/>
</svg>
