<?xml version="1.0" encoding="utf-8"?>
<!-- Generator: Adobe Illustrator 16.0.0, SVG Export Plug-In . SVG Version: 6.00 Build 0)  -->
<!DOCTYPE svg PUBLIC "-//W3C//DTD SVG 1.1//EN" "http://www.w3.org/Graphics/SVG/1.1/DTD/svg11.dtd">
<svg version="1.1" id="图层_1" xmlns="http://www.w3.org/2000/svg" xmlns:xlink="http://www.w3.org/1999/xlink" x="0px" y="0px"
	 width="273px" height="190px" viewBox="0 0 273 190" enable-background="new 0 0 273 190" xml:space="preserve">
<path d="M267.558,87.662c-3.062-3.627-7.354-7.171-12.878-10.632c-5.625-3.495-15.809-8.752-30.551-15.774
	c-1.941-0.919-3.808-1.792-5.618-2.627c0.167-0.324,0.327-0.661,0.478-1.017c1.197-2.929,1.547-6.207,1.048-9.834
	c-0.665-5.025-2.745-8.952-6.239-11.781c-1.442-1.183-3.103-2.147-4.966-2.909c0.324-0.473,0.586-0.966,0.772-1.484
	c0.466-1.298,0.232-3.012-0.699-5.142c-0.965-2.097-2.313-3.96-4.043-5.591c-3.627-3.395-8.303-6.256-14.027-8.586
	c-5.125-2.096-9.385-3.145-12.779-3.145c-0.887-0.008-1.863,0.172-2.919,0.52c-0.222-0.457-0.558-0.929-1.024-1.418
	c-2.063-2.263-6.655-4.177-13.777-5.741c-6.755-1.464-13.811-2.229-21.164-2.296l-11.981,0.999c-4.501,0.827-7.59,1.982-9.302,3.457
	c-0.635-0.231-1.247-0.392-1.829-0.462c-2.896-0.366-7.288,0.283-13.178,1.947c-6.523,1.864-11.797,4.21-15.824,7.038
	c-3.394,2.363-5.308,4.942-5.74,7.737c-0.176,1.133-0.095,2.172,0.216,3.129c-1.844,0.609-3.568,1.421-5.158,2.461
	c-3.894,2.529-6.539,5.924-7.937,10.184c-1.098,3.394-1.165,6.539-0.2,9.434c0.52,1.542,1.282,2.825,2.268,3.869
	c-11.39,2.803-22.63,6.384-33.716,10.757C13.893,69.775,1.663,79.026,0.099,88.511c-0.532,3.228,0.682,6.922,3.644,11.081
	c2.762,3.895,6.672,7.754,11.73,11.582c11.215,8.419,22.23,13.211,33.046,14.376c2.74,0.29,5.478,0.168,8.214-0.354
	c2.875,13.294,12.478,24.578,28.824,33.849c0.327,0.186,0.662,0.356,0.991,0.539c-0.322,2.027-0.492,4.221-0.492,6.599
	c0,6.889,1.897,12.612,5.69,17.172c3.395,4.093,7.238,6.14,11.531,6.14c3.96,0,7.288-1.73,9.983-5.191
	c2.55-3.271,4.022-7.596,4.448-12.943c7.79,1.787,15.994,2.93,24.612,3.428c0.709,3.131,1.911,5.959,3.636,8.467
	c2.995,4.359,6.655,6.54,10.981,6.54c4.094,0,7.338-1.864,9.734-5.591c1.736-2.677,2.834-6.044,3.313-10.083
	c14.831-1.715,27.576-5.72,38.219-12.03c0.492-0.291,0.956-0.596,1.434-0.895c1.104,0.918,2.254,1.723,3.459,2.392
	c4.027,2.229,7.604,2.362,10.732,0.399c2.961-1.83,4.26-5.309,3.894-10.433c-0.174-2.472-0.706-5.083-1.575-7.824
	c4.314-6.493,6.726-13.883,7.216-22.177c0.002-0.029,0.002-0.059,0.004-0.088c7.782-1.181,15.635-3.944,23.558-8.298
	c10.017-5.491,15.092-11.132,15.225-16.923C272.25,94.95,270.719,91.422,267.558,87.662z"/>
</svg>
