<?xml version="1.0" encoding="utf-8"?>
<!-- Generator: Adobe Illustrator 16.0.0, SVG Export Plug-In . SVG Version: 6.00 Build 0)  -->
<!DOCTYPE svg PUBLIC "-//W3C//DTD SVG 1.1//EN" "http://www.w3.org/Graphics/SVG/1.1/DTD/svg11.dtd">
<svg version="1.1" id="图层_1" xmlns="http://www.w3.org/2000/svg" xmlns:xlink="http://www.w3.org/1999/xlink" x="0px" y="0px"
	 width="235px" height="245px" viewBox="0 0 235 245" enable-background="new 0 0 235 245" xml:space="preserve">
<path d="M232.604,159.778c1.295-6.869,0.867-13.268-1.244-19.207c0.03-0.02,0.066-0.035,0.097-0.056
	c1.131-0.766,1.597-1.265,1.396-1.498c-0.164-0.197-0.789-0.017-1.868,0.536c-0.237-0.606-0.492-1.209-0.767-1.806l0.988-0.477
	c1.264-0.665,1.779-1.098,1.547-1.297l-1.846,0.299c-0.428,0.139-0.813,0.286-1.199,0.435c-0.473-0.945-0.984-1.854-1.529-2.733
	l1.53-0.846c1.132-0.798,1.647-1.297,1.547-1.496c-0.133-0.2-0.897-0.033-2.296,0.498c-0.541,0.238-1.043,0.465-1.524,0.685
	c-3.33-4.903-7.853-8.733-13.597-11.463c-3.521-1.681-7.124-2.692-10.806-3.057l0.126-1.135c0.067-1.597-0.033-2.396-0.299-2.396
	c-0.266,0.033-0.549,0.915-0.848,2.645l-0.122,0.785c-1.347-0.083-2.705-0.072-4.073,0.02c-0.038-1.466-0.119-2.753-0.247-3.849
	c-0.133-0.998-0.3-1.48-0.499-1.447c-0.232,0.034-0.398,0.516-0.499,1.447c-0.101,0.925-0.146,2.251-0.137,3.966
	c-0.675,0.074-1.353,0.171-2.033,0.287c-0.48-1.404-0.873-2.064-1.173-1.957c-0.268,0.088-0.256,0.811,0.029,2.16
	c-2.391,0.487-4.813,1.23-7.266,2.231c-8.617,3.519-14.628,9.66-18.044,18.413c-0.076-0.03-0.144-0.071-0.222-0.099l-2.146-0.299
	c-0.365,0.166-0.049,0.499,0.949,0.998c0.29,0.145,0.617,0.349,0.977,0.603c-0.204,0.573-0.392,1.147-0.563,1.722
	c-0.311-0.108-0.616-0.204-0.913-0.278l-2.545-0.2c-0.133,0.233,0.516,0.633,1.947,1.198c0.371,0.159,0.757,0.35,1.15,0.557
	c-0.706,2.715-1.071,5.428-1.081,8.14l-3.707,1.589c-3.229-12.737-9.745-23.272-19.568-31.594
	c-11.146-9.449-24.653-14.173-40.522-14.173c-1.677,0-3.323,0.079-4.951,0.199c1.609-1.517,2.843-3.397,3.653-5.689
	c0.832-2.462,1.048-4.774,0.648-6.937c-0.066-0.299-0.216-0.416-0.449-0.35c-6.055,0.298-10.726,2.558-14.016,6.771l-1.723-4.918
	c7.269-3.586,13.215-8.343,17.841-14.269l0.893,0.638c0.832,0.599,1.314,0.832,1.447,0.699c0.133-0.167-0.117-0.649-0.749-1.447
	l-0.928-0.751c0.785-1.054,1.526-2.147,2.23-3.273c1.341,0.695,2.529,1.514,3.538,2.478c0.732,0.699,1.165,0.965,1.298,0.798
	c0.133-0.166-0.117-0.648-0.749-1.447c-0.699-0.898-1.664-1.747-2.895-2.545c-0.194-0.121-0.37-0.208-0.557-0.316
	c0.129-0.218,0.252-0.442,0.378-0.662l0.627,0.229l1.896,0.399c0.1-0.166-0.366-0.549-1.397-1.147l-0.662-0.294
	c0.776-1.415,1.499-2.878,2.159-4.397c3.83-8.87,4.846-17.84,3.061-26.912l2.179,0.513l1.248,0.05
	c-0.1-0.266-0.599-0.599-1.497-0.998c-0.768-0.331-1.484-0.543-2.173-0.69c-0.429-1.933-0.977-3.87-1.661-5.812l1.688-0.485
	c1.464-0.333,2.163-0.582,2.096-0.749l-2.295-0.2c-0.663,0.03-1.31,0.103-1.946,0.208c-0.149-0.394-0.292-0.787-0.452-1.182
	l0.352-0.074c0.632-0.2,0.898-0.383,0.798-0.549c-0.1-0.167-0.482-0.25-1.147-0.25l-0.367,0.014
	c-5.08-12.015-13.169-20.493-24.286-25.416c-6.625-2.94-13.606-4.303-20.937-4.113L63.877,2.03c0.1-1.297,0-1.896-0.299-1.796
	c-0.266,0.1-0.549,0.782-0.849,2.046c-0.111,0.576-0.19,1.422-0.24,2.519c-0.333,0.018-0.67,0.05-1.006,0.074l-0.301-1.045
	c-0.233-0.732-0.449-1.048-0.649-0.948c-0.166,0.066-0.233,0.482-0.199,1.248c0.009,0.28,0.049,0.551,0.077,0.825
	C56.396,5.32,52.278,6.141,48.058,7.42c-3.567,1.075-6.899,2.518-10.003,4.319l-0.826-0.826c-0.195,0-0.1,0.388,0.278,1.153
	c-0.717,0.43-1.424,0.874-2.116,1.343c-0.173-0.258-0.343-0.497-0.508-0.699c-0.898-1.164-1.414-1.646-1.547-1.447
	c-0.133,0.167,0.133,0.815,0.798,1.946l0.392,0.821c-0.911,0.649-1.801,1.333-2.667,2.053c-0.787-0.444-1.315-0.659-1.567-0.627
	c-0.267,0.033-0.05,0.349,0.648,0.948l0.198,0.267c-0.696,0.603-1.377,1.229-2.044,1.879c-4.991,4.824-8.783,10.597-11.378,17.317
	c-1.974,5.158-3.069,10.442-3.315,15.849l-1.226-0.079c-0.034,0.166,0.299,0.466,0.998,0.898l0.193,0.107
	c-0.01,0.368-0.023,0.735-0.025,1.104c-0.708-0.303-1.51-0.623-2.414-0.962c-1.197-0.433-1.73-0.482-1.597-0.149
	c0.1,0.333,0.632,0.765,1.597,1.297l2.437,1.447c0.006,0.217,0,0.432,0.009,0.649c0.038,0.999,0.111,1.985,0.206,2.962l-0.306,0.032
	c-0.666,0.133-1.031,0.283-1.098,0.449c-0.034,0.199,0.283,0.333,0.948,0.399l0.561,0.027c0.645,5.582,2.209,10.817,4.729,15.693
	c2.334,4.48,5.076,8.406,8.209,11.796l-2.271,1.777c-1.064,0.666-1.281,1.015-0.648,1.048c0.565,0.033,1.431-0.25,2.595-0.849
	l1.375-0.871c0.439,0.446,0.884,0.885,1.338,1.312l-0.567,1.056c-0.266,0.599-0.366,0.981-0.299,1.148
	c0.066,0.2,0.316,0.066,0.749-0.399l0.928-1.073c0.241,0.215,0.479,0.434,0.723,0.644l-0.653,1.377
	c-0.732,1.031-0.998,1.63-0.798,1.796c0.2,0.167,0.765-0.183,1.697-1.048c0.352-0.337,0.658-0.728,0.933-1.156
	c3.385,2.71,7.129,4.93,11.244,6.646c5.977,2.5,12.123,3.691,18.439,3.58l-0.024,2.259c0,0.931,0.116,1.414,0.349,1.447
	c0.233,0.067,0.449-0.349,0.649-1.248c0.191-0.923,0.333-1.757,0.433-2.513c1.302-0.063,2.611-0.183,3.927-0.355l0.331,2.27
	c0.043,0.405,0.124,0.666,0.234,0.812c-1.623,0.438-3.042,1.073-4.227,1.933c-0.233,0.167-0.283,0.366-0.15,0.599
	c0.932,1.697,2.396,3.227,4.392,4.591c1.697,1.131,3.451,1.896,5.256,2.329c-5.585,3.021-10.769,7.024-15.536,12.043
	c-5.423,5.723-9.648,12.227-12.676,19.513c-2.86,6.945-4.381,14.026-4.599,21.239c-4.526-0.495-8.967-0.087-13.323,1.217
	l-0.193-0.698c-0.299-1.064-0.582-1.613-0.848-1.646c-0.266-0.066-0.333,0.516-0.2,1.747c0.028,0.319,0.067,0.636,0.109,0.952
	c-0.869,0.292-1.734,0.621-2.596,0.985l-1.256-2.387c-0.699-1.065-1.165-1.563-1.397-1.497c-0.2,0.066-0.117,0.682,0.25,1.846
	c0.302,0.918,0.63,1.806,0.971,2.679c-0.877,0.413-1.75,0.867-2.621,1.355c-0.347-0.387-0.719-0.768-1.146-1.14
	c-0.832-0.698-1.281-0.932-1.347-0.698s0.183,0.731,0.749,1.497l0.629,0.986c-0.36,0.216-0.72,0.432-1.078,0.66
	c-6.412,4.104-10.736,10.049-12.977,17.834l-2.693-0.517L0,190.52c-0.067,0.232,0.482,0.565,1.646,0.998l2.495,0.779
	c-0.341,1.353-0.627,2.753-0.848,4.211c-1.171,7.906-0.167,14.968,2.992,21.192c-0.395,0.218-0.806,0.413-1.246,0.566
	c-1.098,0.399-1.613,0.716-1.547,0.948l2.295-0.199c0.339-0.087,0.677-0.208,1.013-0.346c0.161,0.293,0.321,0.586,0.492,0.875
	c-0.504,0.421-1.043,0.878-1.655,1.416c-0.799,0.666-1.065,1.049-0.799,1.148c0.266,0.133,0.865-0.084,1.797-0.648l1.335-0.837
	c0.783,1.211,1.645,2.391,2.607,3.531c6.587,7.785,14.539,12.16,23.854,13.125c1.091,0.115,2.175,0.178,3.25,0.194
	c-0.104,0.547-0.177,1.008-0.207,1.353c-0.1,1.098,0.017,1.547,0.349,1.347c0.3-0.199,0.632-0.864,0.999-1.996l0.188-0.713
	c0.92-0.021,1.835-0.079,2.745-0.173c0.104,0.804,0.246,1.65,0.46,2.583c0.267,1.298,0.516,1.963,0.749,1.996
	c0.232,0,0.382-0.648,0.449-1.946c0.038-1.04,0.049-1.989,0.034-2.851c0.899-0.139,1.794-0.305,2.683-0.516l0.228,1.57
	c0.233,1.23,0.482,1.863,0.749,1.896c0.267,0.033,0.383-0.633,0.35-1.996l-0.121-1.789c4.444-1.23,8.744-3.374,12.896-6.445
	c3.72-2.717,6.599-6.118,8.655-10.193c4.521,2.803,9.42,4.982,14.7,6.539c-1.557,1.65-2.766,3.462-3.592,5.45
	c-0.865,2.196-1.098,4.142-0.699,5.839c0.266,1.264,0.898,2.362,1.896,3.294c0.998,0.897,2.212,1.547,3.643,1.946
	c4.891,1.363,9.948,0.499,15.171-2.596c4.741-2.801,8.485-6.756,11.261-11.836c5.201-0.734,10.298-2.138,15.289-4.232
	c1.467-0.617,2.893-1.298,4.297-2.014c1.315,3.017,3.369,5.67,6.183,7.952c2.662,2.162,5.356,3.51,8.085,4.042
	c4.025,0.832,7.054,0.25,9.083-1.746c2.063-2.063,2.694-5.291,1.896-9.682c-0.434-2.529-1.631-5.008-3.594-7.436
	c-1.741-2.103-3.634-3.671-5.673-4.715c6.074-6.006,10.565-12.981,13.458-20.937c3.118-8.543,4.127-17.63,3.06-27.251l3.658-0.565
	c0.586,1.903,1.334,3.806,2.265,5.708c1.196,2.445,2.596,4.652,4.187,6.637c-0.064,0.085-0.131,0.164-0.194,0.251
	c-0.465,0.665-0.682,1.147-0.648,1.447c0.066,0.3,0.482,0.083,1.248-0.649l0.254-0.238c0.417,0.487,0.847,0.959,1.289,1.416
	c-0.832,0.93-1.638,1.879-2.392,2.865c-0.532,0.698-0.665,1.081-0.399,1.147c0.232,0.066,0.715-0.2,1.447-0.798l2.26-2.313
	c0.541,0.516,1.098,1.013,1.674,1.487c-0.229,0.838-0.235,1.293,0.009,1.323c0.188,0.027,0.445-0.221,0.765-0.716
	c3.332,2.568,7.215,4.492,11.662,5.757c5.87,1.657,11.559,1.829,17.068,0.538l0.198,1.808c0.1,1.264,0.267,1.83,0.499,1.696
	c0.232-0.133,0.416-0.831,0.549-2.096c0.09-0.612,0.111-1.192,0.075-1.746c3.213-0.895,6.366-2.285,9.456-4.192
	c0.945-0.58,1.844-1.195,2.7-1.844c0.254,0.334,0.471,0.697,0.644,1.095c0.366,0.698,0.633,0.965,0.799,0.798
	c0.133-0.199,0.083-0.748-0.149-1.646c-0.074-0.326-0.218-0.642-0.411-0.949c0.388-0.316,0.766-0.641,1.134-0.973l1.473,1.473
	l0.55,0.051c0.033-0.4-0.15-0.883-0.55-1.447l-0.657-0.834C228.35,172.313,231.284,166.673,232.604,159.778z M69.018,104.185
	c0.094-0.6,0.111-1.408,0.057-2.41c0.631-0.1,1.263-0.209,1.896-0.334l0.093,0.598c0.1,0.732,0.267,0.981,0.5,0.749
	c0.199-0.233,0.333-0.682,0.399-1.347v-0.213c1.595-0.347,3.2-0.77,4.815-1.275l1.023,3.235l0.717,1.956
	c-0.275-0.098-0.55-0.191-0.817-0.259l-7.187-0.3c-0.588,0.083-1.145,0.195-1.687,0.322C68.906,104.74,68.97,104.503,69.018,104.185
	z"/>
</svg>
