<?xml version="1.0" encoding="utf-8"?>
<!-- Generator: Adobe Illustrator 16.0.0, SVG Export Plug-In . SVG Version: 6.00 Build 0)  -->
<!DOCTYPE svg PUBLIC "-//W3C//DTD SVG 1.1//EN" "http://www.w3.org/Graphics/SVG/1.1/DTD/svg11.dtd">
<svg version="1.1" id="图层_1" xmlns="http://www.w3.org/2000/svg" xmlns:xlink="http://www.w3.org/1999/xlink" x="0px" y="0px"
	 width="114px" height="148px" viewBox="0 0 114 148" enable-background="new 0 0 114 148" xml:space="preserve">
<path d="M112.551,45.846l-2.641,0.05c-2.824,0.398-5.813,1.478-8.969,3.238c-1.971,1.1-3.762,2.343-5.399,3.71
	c-0.948-2.395-1.824-5.037-2.63-7.915c2.615-0.578,4.6-1.96,5.938-4.167c1.029-1.76,1.594-3.936,1.693-6.527
	c0.066-2.657-0.383-5.464-1.346-8.42c-1.195-3.753-2.807-6.926-4.832-9.517c-2.16-2.824-4.318-4.252-6.479-4.285
	c-1.859-0.033-3.937,1.744-6.229,5.332c-2.156,3.361-3.424,6.63-3.824,9.811c-0.886-0.315-1.799-0.603-2.753-0.842
	c-5.349-1.329-10.662-1.212-15.942,0.349c-4.485,1.295-8.012,3.289-10.604,5.964c-1.454-2.999-3.258-5.757-5.441-8.256
	c-0.652-0.737-1.294-1.377-1.931-1.966c0.178-0.375,0.371-0.731,0.536-1.123c1.694-3.986,1.96-7.873,0.797-11.659
	C41.434,6.268,39.54,3.76,36.816,2.1c-2.856-1.761-6.211-2.275-10.064-1.545c-4.318,0.797-8.039,3.023-11.161,6.677
	c-3.421,4.053-6.477,9.4-9.168,16.044c-3.056,7.507-5.049,15.279-5.979,23.318c-1.129,9.965-0.183,19.914,2.84,29.846
	c2.769,8.99,7.206,17.789,13.268,26.402c-1.991,6.606-2.622,11.688-1.858,15.201c0.797,3.521,2.159,6.377,4.086,8.57
	c0.855,0.949,1.849,1.796,2.961,2.551c-2.398,2.148-2.868,4.402-1.367,6.766c1.495,2.426,4.567,4.303,9.218,5.631l5.929,1.844
	c1.461,0.564,2.84,1.279,4.135,2.144c1.396,0.931,2.209,1.328,2.441,1.195c0.233-0.101,0.283-0.963,0.15-2.593
	c-0.037-0.53-0.096-0.974-0.173-1.344c1.386,0.416,2.595,0.91,3.611,1.494c1.029,0.631,1.661,0.881,1.893,0.747
	c0.199-0.1,0.216-0.681,0.05-1.743c-0.21-1.418-0.667-2.557-1.353-3.433c0.646,0.015,1.411,0.175,2.3,0.492l0.997,0.05
	c0.133-0.232,0-0.83-0.399-1.793c-0.365-0.964-0.979-1.777-1.843-2.441c-0.831-0.599-2.01-1.146-3.538-1.645
	c-1.196-0.398-2.143-0.83-2.84-1.296l-2.434-2.05c-0.015-0.018-0.029-0.033-0.043-0.051c0.054-0.039,0.109-0.078,0.162-0.119
	c4.11,0.457,7.477,0.486,10.106,0.092l4.814,6.313c1.329,2.094,2.408,3.473,3.239,4.137c0.897,0.696,2.144,1.111,3.737,1.244
	c3.156,0.199,6.211,0.864,9.168,1.993c1.262,0.498,2.061,0.729,2.392,0.697c0.332-0.033,0.466-0.349,0.398-0.946
	c-0.035-0.326-0.112-0.637-0.202-0.941l2.443,0.692l1.047,0.199c0.166-0.133,0.217-0.517,0.15-1.146
	c-0.002-0.006-0.003-0.01-0.004-0.016c-0.033-0.548-0.169-1.063-0.412-1.543c-0.115-0.297-0.248-0.585-0.406-0.859l1.319,0.076
	l1.195,0.051l-0.548-1.646c-0.432-0.896-1.245-1.711-2.441-2.44c-0.765-0.433-1.992-0.998-3.688-1.694l-3.139-1.345l-2.69-1.943
	c-0.124-0.135-0.251-0.29-0.377-0.447l4.961,0.148c3.188-0.066,5.53,0.299,7.024,1.096l0.279,0.091
	c0.378,0.9,0.941,1.595,1.713,2.052c0.864,0.531,2.16,0.881,3.887,1.047c2.857,0.3,5.133,0.83,6.826,1.595
	c1.229,0.53,1.978,0.729,2.242,0.598c0.029-0.013,0.042-0.048,0.064-0.067c0.017-0.01,0.029-0.026,0.041-0.043
	c0.166-0.219,0.123-0.701-0.155-1.482c-0.015-0.038-0.035-0.073-0.049-0.111l2.341,0.459l0.927,0.101
	c0.04,0.019,0.08,0.032,0.12,0.051c0.001-0.013-0.002-0.024-0.001-0.037l0.349,0.037c0.166-0.199,0.101-0.797-0.199-1.794
	c-0.184-0.605-0.479-1.158-0.848-1.676l0.799,0.031l1.146-0.149l-0.646-1.545c-0.697-1.328-2.209-2.343-4.535-3.039
	c-1.992-0.599-3.471-1.195-4.435-1.793c-1.161-0.698-1.909-1.578-2.241-2.642c-2.026-6.111-4.035-13.203-6.029-21.274
	c-0.797-3.257-1.278-7.425-1.444-12.507l-0.149-4.834c-0.084-0.954-0.244-1.676-0.465-2.211c0.371-0.248,0.756-0.479,1.162-0.678
	c16.479-8.097,23.131-16.66,19.975-25.689c3.188-2.738,7.547-5.93,13.109-9.587C112.002,46.693,112.684,46.079,112.551,45.846z
	 M39.009,75.893c-0.698,1.395-1.611,2.392-2.74,2.988c-6.478,3.521-10.746,6.411-12.805,8.67c-1.343,1.475-2.73,3.979-4.161,7.467
	c-0.749-2.008-1.488-4.242-2.217-6.72c-2.624-9.002-3.936-17.638-3.936-25.909c-0.001-11.394,2.84-21.359,8.519-29.896
	c0.531,0.429,1.14,0.731,1.809,0.934c-0.875,3.946-1.168,7.393-0.862,10.327c0.365,3.222,1.428,5.647,3.189,7.274
	c1.594,1.428,3.687,2.226,6.278,2.392c2.345,0.122,4.958-0.279,7.833-1.19c-0.549,1.511-1.02,2.551-1.405,3.084
	c-0.954,1.4-1.622,2.799-2.018,4.195c-6.39-0.54-12.063,0.236-17.016,2.332c-1.827,0.731-2.69,1.212-2.591,1.445l3.04,0.25
	l11.061,0.299c1.849,0.187,3.613,0.439,5.302,0.75c0.446,2.197,1.578,4.388,3.417,6.574c0.092,0.108,0.195,0.209,0.29,0.316
	C39.987,73.094,39.67,74.572,39.009,75.893z"/>
</svg>
