<?xml version="1.0" encoding="utf-8"?>
<!-- Generator: Adobe Illustrator 16.0.0, SVG Export Plug-In . SVG Version: 6.00 Build 0)  -->
<!DOCTYPE svg PUBLIC "-//W3C//DTD SVG 1.1//EN" "http://www.w3.org/Graphics/SVG/1.1/DTD/svg11.dtd">
<svg version="1.1" id="图层_1" xmlns="http://www.w3.org/2000/svg" xmlns:xlink="http://www.w3.org/1999/xlink" x="0px" y="0px"
	 width="328px" height="244px" viewBox="0 0 328 244" enable-background="new 0 0 328 244" xml:space="preserve">
<path d="M321.547,19.57c-2.43-7.123-5.975-11.767-10.635-13.93s-9.92-1.681-15.777,1.448c-5.06,2.729-9.52,6.957-13.381,12.682
	c-3.61,5.431-6.444,11.868-8.521,19.292c-8.573-2.802-18.045-3.937-28.419-3.398c-1.443-5.806-3.584-10.846-6.448-15.095
	c-1.698-2.53-2.979-3.711-3.845-3.545s-1.115,1.764-0.749,4.793c0.351,2.724,0.613,5.481,0.788,8.271
	c-1.878-4.469-4.252-8.84-7.129-13.114c-4.427-6.624-9.07-11.384-13.93-14.28c-2.098-1.231-3.529-1.697-4.294-1.398
	c-0.899,0.366-0.999,1.748-0.3,4.144c2.603,9.179,4.747,17.889,6.44,26.135c-3.322-1.265-6.091-2.092-8.288-2.469
	c-2.363-0.399-3.661-0.266-3.895,0.399c-0.199,0.566,0.416,1.731,1.848,3.495c2.761,3.409,5.281,6.919,7.589,10.518
	c-6.021,2.767-11.516,6.445-16.476,11.051c-4.899,4.503-8.771,9.415-11.64,14.725c-0.597-1.194-1.22-2.378-1.892-3.542
	c-4.293-7.489-9.67-13.614-16.127-18.374c-6.224-4.593-12.499-7.256-18.823-7.989c-6.491-0.765-11.966,0.666-16.426,4.294
	c-6.757,5.492-9.47,14.246-8.138,26.263c1.265,11.683,5.758,22.201,13.48,31.555c4.46,5.425,9.752,10.202,15.877,14.329
	c5.925,3.995,11.816,6.84,17.674,8.538c6.025,1.73,11.168,1.947,15.428,0.649c2.224-0.661,4.076-1.729,5.574-3.185
	c4.881,4.477,10.83,7.964,17.867,10.445c-9.551-0.573-18.1,0.414-25.638,2.974c-9.054,3.063-15.844,8.105-20.371,15.129
	c-2.563,3.994-2.913,7.539-1.048,10.635c1.864,3.129,4.843,3.777,8.938,1.947c9.053-4.094,16.975-7.256,23.766-9.486
	c5.034-1.656,9.992-3.016,14.879-4.089c-2.813,1.745-5.396,3.952-7.739,6.635c-2.995,3.462-4.993,7.023-5.991,10.685
	c-0.746,2.786-1.022,5.509-0.83,8.17c-6.06,6.144-13.264,11.234-21.639,15.246c-8.387,4.028-17.175,6.658-26.361,7.889
	c-9.154,1.232-17.774,0.933-25.863-0.898c-8.454-1.896-15.511-5.309-21.169-10.234c-14.568-12.638-17.826-35.167-9.791-67.574
	c7.897-1.817,14.558-5.934,19.977-12.362c6.557-7.855,9.503-16.476,8.837-25.863c-0.399-5.592-1.714-10.501-3.944-14.729
	c-2.146-4.134-5.11-7.481-8.873-10.059c-0.011-2.913,0.398-5.635,1.233-8.165c0.856-2.686,2.155-4.941,3.848-6.816
	c2.592-0.295,5.089-1.241,7.485-2.87c3.396-2.33,5.625-5.342,6.69-9.037c1.365-4.56,1.082-8.887-0.849-12.981
	c-1.897-3.961-4.843-6.69-8.837-8.188c-4.86-1.831-9.486-1.864-13.88-0.1c-4.261,1.731-7.306,4.644-9.137,8.737
	c-1.797,4.061-2.047,8.338-0.749,12.832c1.053,3.725,2.907,6.48,5.535,8.301c-0.76,2.429-1.571,4.502-2.439,6.179
	c-0.76,1.452-1.666,2.785-2.698,4.014c-2.368-0.873-5.149-1.52-8.386-1.917c-3.566-0.42-6.619-0.384-9.214,0.06
	c-0.929-1.295-1.754-2.825-2.469-4.604c-0.994-2.573-1.593-5.242-1.843-7.995c2.84-2.154,4.828-5.172,5.937-9.081
	c1.365-4.827,0.949-9.387-1.248-13.681c-2.396-4.66-5.908-7.872-10.535-9.636c-4.327-1.665-8.854-1.814-13.581-0.45
	c-5.126,1.498-8.938,4.893-11.434,10.186c-2.43,5.226-2.696,10.352-0.799,15.378c1.731,4.626,4.676,8.055,8.837,10.285
	c3.125,1.658,6.317,2.333,9.575,2.061c2.263,4.323,3.287,8.487,3.075,12.493c-2.384,1.338-4.82,3.176-7.308,5.518
	c-2.262,2.113-4.2,4.296-5.85,6.542c-1.46,0.046-2.938-0.133-4.436-0.551c-2.594-0.732-4.99-2.117-7.193-4.136
	c0.751-2.776,0.689-5.823-0.196-9.145c-1.231-4.66-3.662-8.155-7.29-10.485c-4.261-2.696-8.937-3.462-14.03-2.297
	c-5.06,1.165-8.837,3.845-11.334,8.039c-2.763,4.593-3.312,9.703-1.647,15.328c1.664,5.625,4.893,9.287,9.686,10.984
	c3.828,1.398,7.623,1.748,11.384,1.049c2.434-0.462,4.482-1.309,6.149-2.538c2.507,0.511,5.315,1.77,8.43,3.786
	c1.838,1.179,3.343,2.34,4.531,3.483c-1.79,11.181,0.886,21.106,8.051,29.77c6.076,7.374,13.942,11.767,23.583,13.206
	c-4.288,18.197-4.966,34.537-2.015,49.004c3.096,15.246,9.902,26.746,20.421,34.501c5.892,4.36,13.431,7.489,22.617,9.387
	c9.154,1.897,18.923,2.396,29.308,1.498c23.066-2.022,42.67-9.769,58.828-23.207c1.649,2.988,3.576,7.178,5.779,12.572
	c2.559,6.312,4.784,12.525,6.715,18.652c-0.106,1.894-0.076,3.767,0.126,5.612c0.632,6.191,2.895,10.236,6.789,12.133
	c3.928,1.897,8.555,1.182,13.881-2.146c3.56-2.218,6.584-5.178,9.088-8.862c0.5,1.126,1.193,2.12,2.096,2.971
	c1.065,0.965,2.214,1.581,3.445,1.847c4.061,0.865,8.238-0.482,12.531-4.044c4.794-3.994,8.205-9.753,10.236-17.274
	c2.596-9.721,2.563-17.492-0.1-23.317c-1.1-2.43-2.514-4.094-4.244-4.993c-1.376-0.688-2.74-0.809-4.094-0.382
	c-0.77-0.684-1.683-1.095-2.746-1.216c-2.297-0.232-4.578,0.649-6.841,2.646c-2.011,1.829-3.896,4.448-5.657,7.84
	c-0.573-0.697-1.215-1.284-1.932-1.748c-0.342-0.229-0.691-0.415-1.046-0.574l-5.931-7.624c2.896-2.222,5.509-4.907,7.825-8.079
	c5.591-7.685,8.546-16.957,8.885-27.806c16.49,3.154,30.059,0.05,40.694-9.341c4.26-3.795,7.506-8.188,9.735-13.182
	c2.064-4.593,2.896-8.836,2.497-12.731c-0.333-3.462-1.481-5.525-3.445-6.191c-1.178-0.409-2.32-0.297-3.429,0.318
	c3.982-6.691,5.994-13.883,6.046-21.573c7.135-9.666,11.842-20.735,14.108-33.217C325.142,39.309,324.676,28.724,321.547,19.57z
	 M224.616,197.846c-1.428-2.516-2.727-4.93-3.891-7.236c1.534-0.171,3.024-0.414,4.473-0.726l2.756,4.803
	C226.766,195.682,225.652,196.733,224.616,197.846z"/>
</svg>
