<?xml version="1.0" encoding="utf-8"?>
<!-- Generator: Adobe Illustrator 16.0.0, SVG Export Plug-In . SVG Version: 6.00 Build 0)  -->
<!DOCTYPE svg PUBLIC "-//W3C//DTD SVG 1.1//EN" "http://www.w3.org/Graphics/SVG/1.1/DTD/svg11.dtd">
<svg version="1.1" id="图层_1" xmlns="http://www.w3.org/2000/svg" xmlns:xlink="http://www.w3.org/1999/xlink" x="0px" y="0px"
	 width="119px" height="139px" viewBox="0 0 119 139" enable-background="new 0 0 119 139" xml:space="preserve">
<path d="M112.056,19.338c-3.229-4.095-7.241-7.374-12.034-9.837c-5.094-2.597-10.438-3.812-16.03-3.646
	C76.135,6.121,68.693,9.25,61.67,15.243c-2.431-4.528-6.243-8.123-11.436-10.787c-5.194-2.663-11.12-4.095-17.778-4.294
	c-5.959-0.167-11.652,1.032-17.079,3.596c-5.027,2.363-7.34,4.544-6.941,6.542c0.399,1.897,2.33,4.294,5.792,7.191
	c3.629,3.063,7.458,5.36,11.486,6.892c5.326,2.03,10.87,3.079,16.629,3.146c5.56,0.034,10.553-0.815,14.981-2.546l-3.979,14.352
	c-1.344-2.251-2.867-4.303-4.61-6.112c-2.33-2.464-4.078-3.662-5.243-3.596c-1.398,0.1-2.88,1.848-4.444,5.243
	c-0.799,1.731-1.531,3.612-2.197,5.643c-2.23-2.13-4.728-4.095-7.491-5.893c-3.396-2.297-5.676-3.229-6.841-2.796
	c-0.899,0.333-1.365,1.897-1.398,4.694l0.349,5.543c-1.764-0.933-3.612-1.682-5.543-2.248c-2.097-0.632-3.313-0.732-3.645-0.299
	c-0.267,0.366-0.083,1.481,0.549,3.346l2.946,8.439l-3.146,4.644c-2.031,3.129-3.829,6.242-5.394,9.338
	c-4.927,9.754-7.341,18.926-7.241,27.515c0.167,12.685,4.894,23.138,14.182,31.361c8.389,7.457,18.194,11.385,29.413,11.785
	c13.583,0.499,24.952-2.613,34.107-9.339c9.754-7.157,15.131-17.261,16.129-30.312c0.367-4.728,0.4-9.888,0.101-15.48
	c-0.3-5.227-0.799-9.571-1.498-13.034v-0.15c5.293-9.088,7.89-14.432,7.79-16.03c-0.066-1.065-1.432-1.365-4.095-0.899
	c-2.098,0.399-4.461,1.149-7.091,2.247c0-6.392-0.25-10.087-0.75-11.086c-0.133-0.299-0.432-0.499-0.898-0.599
	c-1.031-0.233-3.046,0.266-6.042,1.498c-2.997,1.265-5.51,2.647-7.54,4.145l-2.197-7.291c-1.365-4.294-2.397-6.559-3.097-6.792
	c-0.766-0.233-2.563,0.749-5.394,2.946c-0.921,0.712-1.811,1.464-2.688,2.234c1.249-5.069,2.346-8.985,3.288-11.722
	c4.86,4.86,12.418,7.856,22.672,8.989c8.755,0.999,16.195,0.533,22.321-1.398c4.827-1.498,7.341-3.129,7.54-4.894
	C116.517,26.379,115.119,23.167,112.056,19.338z"/>
</svg>
