<?xml version="1.0" encoding="utf-8"?>
<!-- Generator: Adobe Illustrator 16.0.0, SVG Export Plug-In . SVG Version: 6.00 Build 0)  -->
<!DOCTYPE svg PUBLIC "-//W3C//DTD SVG 1.1//EN" "http://www.w3.org/Graphics/SVG/1.1/DTD/svg11.dtd">
<svg version="1.1" id="图层_1" xmlns="http://www.w3.org/2000/svg" xmlns:xlink="http://www.w3.org/1999/xlink" x="0px" y="0px"
	 width="239px" height="244px" viewBox="0 0 239 244" enable-background="new 0 0 239 244" xml:space="preserve">
<path d="M236.703,209.785c-1.363-1.365-2.345-2.546-2.943-3.544c-0.5-0.798-0.998-1.93-1.498-3.394
	c-0.765-2.329-1.147-5.174-1.147-8.534l0.399-9.183c0.398-7.486-0.849-14.489-3.743-21.01c-2.828-6.289-6.887-11.529-12.177-15.721
	c-5.357-4.192-11.412-6.887-18.166-8.085c-7.153-1.231-14.423-0.649-21.809,1.747c-7.719,2.528-14.822,6.937-21.311,13.225
	c-1.264,1.23-3.344,2.429-6.238,3.594c-1.332,0.523-2.736,0.998-4.204,1.43c-0.211-2.401-0.547-4.932-1.036-7.619
	c-0.848-4.71-1.497-8.662-1.952-11.875c0.85-0.846,2.094-2.482,3.749-4.943c1.195-1.748,2.146-3.368,2.882-4.874l9.245,0.532
	l4.342,1.099c0.5-0.134,1.148-1.53,1.947-4.192c0.598-2.063,1.663-4.475,3.193-7.236l3.543-6.538
	c0.123-0.265,0.236-0.531,0.346-0.796c0.797,0.14,1.568,0.204,2.3,0.147c1.663-0.133,4.591-1.031,8.783-2.695
	s6.388-2.794,6.588-3.394c0.267-0.732-0.282-3.094-1.647-7.086c-1.157-3.353-2.422-5.987-3.789-7.924l3.041-4.054
	c1.598-2.03,3.111-3.527,4.541-4.492c2.163-1.464,3.261-2.495,3.295-3.094l-2.146-3.992c-0.533-0.865-1.182-2.479-1.946-4.841
	l-1.652-4.657c0.427-0.359,0.822-0.731,1.153-1.132c1.064-1.298,2.445-3.993,4.143-8.085c1.696-4.059,2.395-6.372,2.096-6.937
	c-0.366-0.699-2.445-1.979-6.238-3.843c-2.05-0.986-3.913-1.723-5.606-2.231c0.003-0.09,0.015-0.174,0.017-0.264v-6.188
	c0.033-2.396,0.299-4.409,0.799-6.039c0.599-1.896,0.732-3.078,0.398-3.543c-0.365-0.466-1.646-0.932-3.842-1.397
	c-1.165-0.233-2.994-0.932-5.49-2.096l-6.887-3.244c-1.008-0.432-1.964-0.787-2.898-1.107c-0.188-1.637-0.532-3.703-1.045-6.229
	c-0.897-4.458-1.613-6.82-2.146-7.086c-0.698-0.366-3.177-0.117-7.437,0.749c-3.361,0.667-6.068,1.515-8.155,2.533
	c-0.227-0.229-0.436-0.46-0.677-0.687l-4.643-4.192c-1.629-1.563-2.711-3.027-3.243-4.392c-0.665-1.63-1.314-2.412-1.946-2.346
	l-3.394,1.946c-4.159,1.597-7.702,3.028-10.63,4.292c-2.084,0.913-3.926,1.895-5.53,2.944c-0.97-0.98-2.145-2.089-3.553-3.343
	c-3.327-2.961-5.307-4.409-5.939-4.342c-0.798,0.133-2.728,1.78-5.789,4.94c-1.922,1.958-3.427,3.765-4.544,5.432l-3.84,0.108
	c-2.163,0.233-4.824-0.449-7.985-2.046c-0.532-0.266-0.882-0.35-1.048-0.25c-0.133,0.1-0.183,0.382-0.15,0.848
	c0.1,1.664-0.433,3.76-1.597,6.288l-3.643,7.037c-0.618,1.202-1.135,2.353-1.559,3.457l-5.528,0.486
	c-4.359,0.732-6.688,1.364-6.987,1.896c-0.399,0.699-0.35,3.177,0.149,7.436c0.153,1.323,0.347,2.543,0.576,3.676
	c-1.256,1.077-2.726,2.557-4.418,4.458l-2.944,3.144l-2.396,1.597c-0.798,0.333-1.281,0.616-1.447,0.849
	c-0.2,0.266-0.133,0.682,0.2,1.248c0.865,1.531,1.547,3.294,2.046,5.29c1.797,6.887,2.845,10.713,3.144,11.479
	c0.504,1.255,1.081,2.362,1.715,3.351c-0.678,0.931-1.412,1.984-2.214,3.187c-2.462,3.693-3.593,5.839-3.394,6.438
	c0.266,0.765,2.163,2.396,5.689,4.891c0.252,0.178,0.494,0.337,0.741,0.506c-0.287,1.573-0.667,4.265-1.141,8.078l-0.25,2.146
	l-0.366,1.056c-2.248-0.408-4.553-0.646-6.92-0.707c-6.488-0.167-13.159,0.948-20.012,3.344c-7.586,2.662-14.09,6.471-19.514,11.429
	c-3.26,3.027-6.238,6.837-8.933,11.428C1.28,129.469-0.2,134.11,0,137.97c0.133,2.362,0.433,3.644,0.898,3.843
	c0.399,0.133,1.813-0.35,4.242-1.447c5.956-2.729,10.946-4.275,14.972-4.641c4.292-0.367,10.614,1.064,18.964,4.291
	c9.749,3.76,16.369,5.889,19.863,6.389l14.323-0.5c4.192-0.731,10.047-2.229,17.567-4.491c3.48-1.031,8.587,0.755,15.313,5.341
	c-4.284,1.26-8.065,2.67-11.321,4.241c-14.14,6.888-20.877,17.65-20.212,32.29c0.361,7.729,2.997,14.105,7.887,19.141l-5.341,6.76
	c-0.532,0.532-5.939,1.298-16.22,2.296c-10.946,1.098-18.382,2.628-22.308,4.591c-4.924,2.463-8.601,5.291-11.029,8.484
	c-2.296,3.061-3.144,6.006-2.545,8.834c0.399,1.863,1.514,3.344,3.344,4.441c1.523,0.92,3.109,1.278,4.757,1.08
	c0.49,1.209,1.33,2.248,2.529,3.111c1.664,1.231,3.527,1.73,5.589,1.498c4.093-0.434,7.918-2.363,11.479-5.789
	c4.625-4.459,7.553-7.004,8.784-7.637c4.392-2.262,9.698-4.309,15.92-6.138c3.993-1.132,6.804-2.778,8.434-4.94
	c2.289-2.985,4.445-6.204,6.47-9.651c2.457,1.151,5,1.98,7.628,2.485c0.511,1.565,1.125,3.322,1.872,5.319
	c2.995,7.885,6.172,12.876,9.532,14.972c2.362,1.497,7.187,2.545,14.473,3.145l14.423,0.748l10.73,1.197
	c3.692,0.5,6.654,1.031,8.883,1.598c3.893,0.965,6.971,1.015,9.232,0.149c1.831-0.717,2.704-1.874,2.651-3.458
	c0.979-0.275,1.811-0.781,2.489-1.533c1.064-1.197,1.314-2.678,0.748-4.441c-1.098-3.459-3.443-6.221-7.036-8.284
	c-2.595-1.464-5.989-2.645-10.181-3.543c-5.357-1.132-13.025-1.065-23.008,0.2l-17.067,0.549c-0.998-0.4-2.179-2.196-3.543-5.391
	c-0.19-0.453-0.369-0.922-0.55-1.388c5.866-1.229,11.128-4.111,15.772-8.693c6.953-6.887,11.645-16.885,14.073-29.993
	c0.354-1.886,0.55-3.934,0.61-6.121c3.717-0.895,7.735-1.338,12.065-1.314c6.255,0.033,11.412,1.047,15.472,3.044
	c4.391,2.162,7.785,4.675,10.18,7.536c3.161,3.793,5.789,9.299,7.886,16.519c2.097,7.319,6.787,13.308,14.073,17.966
	c6.355,4.059,12.843,6.172,19.463,6.338c5.789,0.133,9.915-0.765,12.377-2.695C237.668,212.612,238.035,211.115,236.703,209.785z
	 M118.227,143.709c-4.792-1.274-8.878-2.908-12.259-4.9c0.829-0.807,2-1.52,3.525-2.137c2.129-0.865,4.691-1.613,7.686-2.246
	l6.937-1.447c0.501-0.119,0.973-0.257,1.438-0.398c0.089,0.113,0.167,0.243,0.26,0.35c0.815,0.938,2.405,2.173,4.763,3.698
	c-1.211,3.324-2.548,5.176-4.015,5.534l-7.988,1.659C118.466,143.784,118.355,143.747,118.227,143.709z"/>
</svg>
