<?xml version="1.0" encoding="utf-8"?>
<!-- Generator: Adobe Illustrator 16.0.0, SVG Export Plug-In . SVG Version: 6.00 Build 0)  -->
<!DOCTYPE svg PUBLIC "-//W3C//DTD SVG 1.1//EN" "http://www.w3.org/Graphics/SVG/1.1/DTD/svg11.dtd">
<svg version="1.1" id="图层_1" xmlns="http://www.w3.org/2000/svg" xmlns:xlink="http://www.w3.org/1999/xlink" x="0px" y="0px"
	 width="303px" height="173px" viewBox="0 0 303 173" enable-background="new 0 0 303 173" xml:space="preserve">
<path d="M297.677,74.847c-2.429-3.161-9.631-4.075-21.606-2.745c-6.587,0.732-15.502,3.044-26.746,6.936
	c-9.273,3.24-18.549,7.011-27.822,11.281c0.09-3.757-0.389-7.615-1.469-11.58c-1.686-6.071-4.332-10.926-7.912-14.594
	c2.128-4.503,4.333-9.944,6.615-16.343c3.027-8.45,4.025-13.157,2.994-14.122c-1.098-1.031-4.425,1.447-9.98,7.435
	c-3.992,4.292-7.534,8.5-10.628,12.625c-0.038,0.052-0.07,0.099-0.107,0.151c-3.207-2.124-6.636-3.7-10.292-4.718
	c-2.146-6.066-3.871-10.685-5.17-13.846c-3.559-8.683-6.137-12.907-7.734-12.674c-1.941,0.287-2.845,8.854-2.714,25.656
	c-4.331,0.678-8.185,1.904-11.559,3.684c-2.614,0.149-5.241,0.792-7.882,1.946c-10.08,4.458-16.151,12.807-18.213,25.049
	c-0.563,3.311-0.602,6.579-0.137,9.805c-12.6-17.516-26.896-33.52-42.926-47.978C75.958,24.183,57.795,12.007,39.898,4.29
	c-7.817-3.36-14.371-4.741-19.66-4.142c-4.125,0.465-7.019,2.012-8.683,4.64C8.728,9.247,9.127,15.75,12.753,24.299
	c1.616,3.826,3.652,7.467,6.063,10.942c-2.57-0.215-5.042-0.079-7.41,0.435c-5.256,1.098-8.732,3.875-10.429,8.333
	c-1.297,3.46-0.698,7.552,1.796,12.275c3.992,7.518,12.475,14.953,25.449,22.305c12.309,6.953,26.446,13.007,42.414,18.164
	c16.164,5.234,33.638,9.337,52.407,12.319c-0.053,0.17-0.113,0.332-0.163,0.504c-0.701,2.404-0.798,4.855-0.293,7.354
	c-3.461,4.284-10.094,6.295-19.917,6.02c-5.617-0.158-10.207-0.704-13.819-1.618c3.618,0.268,6.956,0.302,9.977,0.071
	c3.959-0.266,6.304-0.914,7.036-1.945c0.366-0.499,0.416-1.031,0.149-1.598c-0.732-1.695-3.027-2.693-6.886-2.993
	c-3.76-0.327-8.474,0.073-14.13,1.192c-0.835-0.798-1.804-1.509-2.922-2.123c-0.366-1.098-1.213-2.185-2.558-3.261
	c-1.464-1.132-2.978-1.896-4.541-2.296l-2.395-0.299c-0.1,0.1,0,0.615,0.299,1.547l0.609,2.193c-1.883-0.031-3.669,0.177-5.35,0.65
	c-0.377,0.108-0.719,0.242-1.068,0.37c-1.109-0.813-2.089-1.826-2.924-3.064l-0.898-0.798c-0.266-0.033-0.682,0.232-1.248,0.798
	c-1.071,1.07-1.617,2.526-1.674,4.343c-5.196-2.024-10.345-3.815-15.441-5.341c-11.644-3.56-17.598-3.825-17.864-0.798
	c-0.1,0.898,0.466,2.029,1.697,3.393c2.461,2.729,8.083,5.023,16.866,6.887c5.522,1.166,10.552,1.893,15.104,2.19
	c0.037,1.698,0.539,3.165,1.513,4.396c2.129,2.695,5.755,4.357,10.878,4.99c1.235,0.148,2.47,0.194,3.706,0.141
	c0.03,0.02,0.056,0.039,0.086,0.059c5.485,3.523,12.499,6.549,21.04,9.076l-2.776,2.301l-2.894,2.146l-3.743,3.293
	c-0.832,0.932-1.331,2.029-1.497,3.293c-0.167,1.23,0.017,2.678,0.549,4.342c0.366,1.297,0.782,2.312,1.248,3.043
	c0.333,0.6,0.665,0.6,0.998,0c0.998-1.596,1.73-2.645,2.196-3.143c0.998,2.993,2.395,4.84,4.191,5.538l0.499,0.101l0.25-0.5
	l0.998-3.543c0.599-2.794,1.38-4.939,2.345-6.437c1.031-1.63,2.528-3.643,4.491-6.038c0.589-0.696,1.173-1.43,1.754-2.188
	c1.114,0.238,2.214,0.454,3.298,0.645c-0.646,0.861-1.322,1.698-2.058,2.492l-2.794,2.794l-3.094,3.294
	c-0.898,1.331-1.447,3.044-1.646,5.14c-0.133,1.53,0.167,3.127,0.898,4.79c0.666,1.464,1.597,2.794,2.794,3.992l0.599,0.349
	l0.35-0.549l1.996-3.792c0.731,1.231,1.563,2.278,2.495,3.144c0.965,0.932,1.846,1.447,2.645,1.547l0.649-0.05l0.05-0.798
	l0.05-3.543c0-2.629,0.283-4.824,0.849-6.587c0.665-2.096,1.879-5.156,3.643-9.182c0.3-0.702,0.581-1.378,0.85-2.037
	c1.251,0.079,2.487,0.136,3.69,0.142c2.784,0.021,5.546-0.233,8.289-0.708l4.385,13.382c0.865,2.595,1.48,4.906,1.847,6.936
	c0.465,2.496,0.765,5.456,0.898,8.883l0.299,0.648l0.948-0.15c1.863-0.73,3.692-2.277,5.489-4.641
	c0.466,0.633,0.832,1.598,1.098,2.895c0.1,0.6,0.233,0.932,0.399,0.998l1.098-0.249c0.765-0.399,1.547-1.165,2.345-2.296
	c1.064-1.496,1.597-3.027,1.597-4.59l-0.05-0.799c-0.2-1.63-0.599-2.911-1.197-3.842l-2.096-2.396
	c-1.796-1.963-3.127-3.643-3.992-5.04c-1.431-2.195-2.927-4.939-4.491-8.233c-0.52-1.102-0.991-2.177-1.434-3.233
	c2.061-0.619,4.543-1.434,7.471-2.455c4.774-1.433,8.9-2.379,12.383-2.843c1.913,0.074,3.665,0.032,5.248-0.13
	c0.056,1.238-0.027,2.784-0.267,4.67l-0.599,4.59l-0.249,1.896c-0.033,0.466,0.232,0.998,0.798,1.597l1.946,1.946
	c3.559,3.492,6.254,7.635,8.084,12.425c0.166,0.433,0.549,0.499,1.146,0.199l2.196-1.597l1.247,2.295
	c0.166,0.3,0.433,0.383,0.799,0.25c0.398-0.133,0.799-0.565,1.197-1.297l1.197-3.045c0.467-1.43,0.699-2.578,0.699-3.442
	l-0.199-1.298l-1.298-1.297l-3.394-2.246l-4.59-2.844c-1.664-1.098-2.645-1.996-2.944-2.694l-0.095-11.562
	c0.568-0.313,1.028-0.673,1.381-1.077c0.242,2.111,0.875,4.725,1.907,7.849c1.165,3.459,2.096,5.455,2.794,5.987l2.994,1.996
	c3.127,2.029,5.605,4.092,7.436,6.188c2.627,3.027,4.74,6.937,6.337,11.727l0.499,0.748l0.799-0.349l2.894-2.296l2.694,2.396
	c0.366,0.299,0.666,0.249,0.898-0.15c0.865-1.596,0.881-4.074,0.05-7.435c-0.798-3.327-1.946-5.622-3.442-6.886
	c-1.73-1.464-5.008-3.394-9.83-5.789c-2.229-1.098-3.76-1.896-4.592-2.395c-1.463-0.865-2.444-1.646-2.943-2.346
	c-0.633-0.898-1.364-2.661-2.195-5.289c-0.671-2.137-1.063-3.873-1.178-5.211c0.027-0.011,0.054-0.018,0.08-0.028
	c0.396-0.153,0.779-0.347,1.164-0.533c1.002,1.14,2.31,3.193,3.925,6.172l3.692,6.536c1.098,1.73,2.063,2.678,2.895,2.845
	c1.896,0.433,8,2.961,18.313,7.585l1.847,0.798c1.597,0.698,3.543,2.362,5.839,4.99c2.063,2.362,3.26,4.059,3.592,5.09
	c0.166,0.632,0.399,0.915,0.699,0.849c0.266-0.033,0.682-0.467,1.247-1.298c0.632-0.998,1.064-2.162,1.298-3.493l4.141,1.048
	c0.334,0.101,0.566-0.033,0.699-0.399c0.299-0.998,0.199-2.395-0.299-4.191c-0.467-1.696-1.115-3.243-1.947-4.641
	c-1.995-3.127-3.875-4.873-5.639-5.239c-3.858-0.698-8.799-1.913-14.819-3.643c-7.119-2.029-11.493-3.643-13.124-4.84
	c-0.897-0.632-2.278-2.462-4.141-5.489c-1.672-2.659-2.736-4.778-3.211-6.376c0.07-0.073,0.146-0.135,0.217-0.21
	c0.215-0.223,0.398-0.452,0.6-0.678c8.221,2.172,16.271,3.684,24.15,4.52c8.25,0.865,17.447,1.114,27.594,0.748
	c8.749-0.332,15.719-1.945,20.908-4.84c3.393-1.896,5.705-4.108,6.936-6.637c1.863-3.926,1.431-7.002-1.297-9.231
	c-0.674-0.551-1.479-1.032-2.411-1.445c22.572-7.391,36.106-16.604,40.583-27.646c0.467-1.231,0.666-2.495,0.6-3.792
	C298.559,76.66,298.242,75.612,297.677,74.847z"/>
</svg>
