<?xml version="1.0" encoding="utf-8"?>
<!-- Generator: Adobe Illustrator 16.0.0, SVG Export Plug-In . SVG Version: 6.00 Build 0)  -->
<!DOCTYPE svg PUBLIC "-//W3C//DTD SVG 1.1//EN" "http://www.w3.org/Graphics/SVG/1.1/DTD/svg11.dtd">
<svg version="1.1" id="图层_1" xmlns="http://www.w3.org/2000/svg" xmlns:xlink="http://www.w3.org/1999/xlink" x="0px" y="0px"
	 width="174px" height="191px" viewBox="0 0 174 191" enable-background="new 0 0 174 191" xml:space="preserve">
<path d="M170.695,96.652c1.67-2.338,2.07-3.858,1.202-4.559c-0.868-0.735-2.739-0.417-5.611,0.952
	c-0.702,0.334-2.372,1.37-5.011,3.106l-7.465,4.71l-6.162-3.758l10.221-9.168l7.465-7.165c2.672-3.073,3.574-5.043,2.705-5.912
	c-0.434-0.434-1.201-0.551-2.305-0.351c-1.269,0.234-2.755,0.835-4.459,1.804l-10.671,6.964l-11.724,7.866l-1.127-0.651
	c3.468-10.76,2.882-21.965-1.779-33.618c-5.177-12.893-13.594-22.496-25.25-28.808c-13.861-7.515-27.639-10.221-41.333-8.116
	c-12.292,1.847-21.967,7.122-29.045,15.803c0.565-3.212,1.279-8.325,2.141-15.352l1.703-15.08c0.267-3.34-0.284-5.077-1.653-5.21
	c-0.635-0.067-1.219,0.184-1.753,0.751c-0.601,0.634-1.219,1.787-1.854,3.457c-0.3,0.769-3.022,9.453-8.166,26.053l-6.363-4.008
	l1.603-16.934c0.1-0.835,0.033-1.67-0.2-2.505c-0.268-0.935-0.685-1.47-1.253-1.603c-1.302-0.334-2.488,0.801-3.557,3.407
	l-1.904,5.561l-2.505,7.816c-3.006-1.437-5.194-2.422-6.563-2.956c-2.572-1.035-4.175-1.219-4.81-0.551
	c-0.367,0.368-0.467,0.902-0.3,1.604c0.167,0.801,0.634,1.67,1.403,2.605l5.411,5.461l-6.062,4.709
	c-1.704,1.303-2.889,2.271-3.557,2.906c-1.938,1.87-2.522,3.356-1.753,4.458c0.668,0.902,2.371,0.835,5.11-0.2
	c4.075-1.603,8.667-3.741,13.778-6.413l6.263,4.609l-10.321,8.618l-8.367,7.264c-2.171,2.071-2.822,3.674-1.954,4.81
	c0.869,1.135,2.655,1.102,5.361-0.1c2.338-1.002,6.379-3.257,12.125-6.764c5.344-3.24,9.335-5.812,11.974-7.716l0.365,0.262
	c-4.431,9.591-4.409,20.058,0.085,31.402c4.135,10.468,10.917,19.041,20.322,25.735c0.483,0.554,0.693,1.027,0.62,1.419
	c-0.134,1.068-0.936,2.772-2.405,5.11l-4.81,7.515c-2.639,4.309-4.576,8.133-5.812,11.474c-1.315,3.549-2.056,6.986-2.229,10.313
	c-0.072-0.112-0.16-0.235-0.227-0.344c-2.004-3.273-4.693-5.41-8.066-6.412c-3.374-1.002-6.179-0.502-8.417,1.502
	c-1.971,1.737-2.622,4.51-1.954,8.317c0.702,4.042,2.739,7.933,6.112,11.673c3.875,4.275,8.15,6.914,12.826,7.916
	c3.322,0.712,6.041,0.483,8.177-0.657c0.275,0.24,0.553,0.479,0.841,0.708c4.047,3.249,9.119,5.245,15.191,6.02
	c-0.17,0.215-0.343,0.42-0.512,0.644c-2.605,3.474-4.025,7.298-4.258,11.474c-0.234,4.542,1.219,7.698,4.358,9.469
	c3.44,1.938,7.081,1.67,10.922-0.802c3.474-2.237,6.046-5.394,7.716-9.47c1.837-4.441,2.588-8.383,2.254-11.823
	c-0.157-1.438-0.494-2.649-0.99-3.663c2.139-1.438,3.948-3.178,5.441-5.207c2.995,1.209,7.336,2.029,13.033,2.457
	c10.588,0.802,20.709-1.086,30.361-5.661c4.409-2.104,8.117-5.077,11.123-8.918c2.838-3.641,4.676-7.548,5.511-11.724
	c0.248-1.212,0.39-2.386,0.446-3.529c0.436,0.866,1.004,1.308,1.708,1.325c1.103,0.033,2.188-1.554,3.257-4.76l1.402-5.661
	l1.604-6.914c3.307,1.77,5.545,2.872,6.713,3.307l3.257,0.551c0.868-0.066,1.453-0.351,1.753-0.852c0.234-0.4,0.135-1.019-0.3-1.854
	c-0.401-0.802-1.019-1.637-1.854-2.506l-2.805-2.555l-3.607-2.906l4.91-5.16L170.695,96.652z M82.317,114.288
	c0.063-0.1,0.159-0.172,0.272-0.229c8.303,1.836,16.596,2.048,24.878,0.63c6.681-1.169,12.476-3.373,17.385-6.613
	c3.466-2.295,6.253-4.979,8.395-8.03l0.874,0.516l-1.5,11.646c-1.537,0.093-3.091,0.38-4.662,0.88
	c-4.609,1.469-8.049,4.324-10.32,8.566c-5.712,10.655-10.906,17.986-15.582,21.994c-2.623,2.2-5.394,3.591-8.312,4.183
	c0.995-6.403-1.02-13.541-6.067-21.417c-2.238-3.474-3.774-6.129-4.609-7.966c-0.602-1.336-0.902-2.421-0.902-3.257
	C82.167,114.756,82.217,114.455,82.317,114.288z M141.625,114.098l2.065-7.926l5.661,3.507v8.517
	c-0.03,1.711-0.038,3.15-0.028,4.349c-0.104-0.281-0.202-0.564-0.321-0.841C147.519,118.336,145.051,115.808,141.625,114.098z"/>
</svg>
