<?xml version="1.0" encoding="utf-8"?>
<!-- Generator: Adobe Illustrator 16.0.0, SVG Export Plug-In . SVG Version: 6.00 Build 0)  -->
<!DOCTYPE svg PUBLIC "-//W3C//DTD SVG 1.1//EN" "http://www.w3.org/Graphics/SVG/1.1/DTD/svg11.dtd">
<svg version="1.1" id="图层_1" xmlns="http://www.w3.org/2000/svg" xmlns:xlink="http://www.w3.org/1999/xlink" x="0px" y="0px"
	 width="275px" height="328px" viewBox="0 0 275 328" enable-background="new 0 0 275 328" xml:space="preserve">
<path d="M268.951,242.621c-2.083-4.144-5.322-7.056-9.709-8.749c-0.628-2.93-2.196-5.499-4.735-7.694
	c-3.198-2.766-7.164-4.299-11.896-4.599c-2.192-0.144-4.454,0.148-6.782,0.848c-3.85-1.561-8.513-2.085-14.011-1.548
	c-6.83,0.633-13.111,2.865-18.843,6.697c-7.53,4.999-13.195,8.414-16.994,10.247c-0.861,0.415-1.736,0.813-2.622,1.197
	c0.269-7.422,0.034-15.744-0.709-24.975l1.282-2.663l4.998-11.146c1.732-4.831,2.433-9.096,2.099-12.795
	c-0.433-4.598-1.615-8.563-3.549-11.896c-0.999-1.733-2.698-3.899-5.098-6.498l-2.799-2.899c-0.9-1.065-1.449-2.198-1.649-3.398
	c-0.466-2.566,0.183-7.014,1.949-13.345c1.767-6.364,2.249-11.829,1.45-16.394c-0.934-5.398-4.249-10.396-9.947-14.995l-6.197-4.948
	c-0.727-0.643-1.357-1.274-1.9-1.896c-0.661-2.504-1.337-5.021-2.026-7.546c0.248-2.281,0.771-5.277,1.577-9.001
	c1.5-6.964,1.699-12.912,0.6-17.843c-1.166-5.332-3.998-10.446-8.496-15.345c-2.789-3.062-5.704-5.467-8.743-7.222
	c-1.163-3.335-2.298-6.462-3.403-9.372c-5.264-13.828-13.861-24.708-25.79-32.638C105.244,4.408,91.683,0.426,76.321,0.259
	c-9.596-0.1-19.143,1.783-28.639,5.648c-9.563,3.899-17.777,9.28-24.641,16.145c-5.598,5.564-9.896,11.795-12.896,18.693
	c-2.932,6.831-4.382,13.762-4.348,20.792c0.066,5.398,1.033,10.346,2.899,14.845c1.899,4.498,4.815,8.747,8.747,12.745
	c7.197,7.331,10.713,16.061,10.546,26.19c-0.2,9.863-3.849,19.327-10.946,28.39c-8.63,11.03-14.012,23.242-16.144,36.637
	c-1.933,12.063-0.983,22.476,2.849,31.238c2.032,4.633,4.881,8.164,8.547,10.597c2.499,1.633,5.181,2.683,8.047,3.149
	c-7.031,23.524-7.431,40.484-1.2,50.881c1.669,2.773,3.885,5.177,6.619,7.227c-2.944,1.815-5.786,4.108-8.518,6.918
	c-5.465,5.632-8.497,10.996-9.097,16.095c-0.467,3.765,0.566,6.813,3.099,9.146c1.876,1.731,4.053,2.71,6.529,2.942
	c0.192,0.683,0.431,1.354,0.768,2.006c1.066,2.133,3.416,3.449,7.047,3.949c3.302,0.449,6.045-0.001,8.238-1.336
	c0.167,0.146,0.327,0.297,0.509,0.436c2.766,2.133,6.031,2.782,9.796,1.949c4.132-0.899,7.697-3.449,10.696-7.646l9.997-15.845
	c3.285-5.132,5.856-8.841,7.724-11.148l2.123-0.247c5.965-0.934,10.396-1.316,13.295-1.15l19.193,3.249
	c2.431,0.443,4.702,0.833,6.824,1.173c1.574,6.54,3.564,12.248,5.972,17.121c5.465,11.029,12.229,15.894,20.292,14.594
	c2.573-0.432,4.546-1.644,5.949-3.592c3.507,2.813,7.288,3.516,11.345,2.093c2.476-0.861,4.344-2.314,5.648-4.315
	c1.01,0.786,2.233,1.368,3.698,1.717c2.033,0.5,4.064,0.482,6.098-0.051c4.965-1.299,7.514-4.581,7.647-9.846
	c0.125-4.621-1.691-9.508-5.398-14.655c5.766,0.187,10.437,0.241,13.995,0.16c22.358-0.433,41.719-5.498,58.079-15.194
	c9.896-5.865,16.743-12.745,20.542-20.643C271.284,254.25,271.65,248.02,268.951,242.621z"/>
</svg>
