<?xml version="1.0" encoding="utf-8"?>
<!-- Generator: Adobe Illustrator 16.0.0, SVG Export Plug-In . SVG Version: 6.00 Build 0)  -->
<!DOCTYPE svg PUBLIC "-//W3C//DTD SVG 1.1//EN" "http://www.w3.org/Graphics/SVG/1.1/DTD/svg11.dtd">
<svg version="1.1" id="图层_1" xmlns="http://www.w3.org/2000/svg" xmlns:xlink="http://www.w3.org/1999/xlink" x="0px" y="0px"
	 width="285px" height="299px" viewBox="0 0 285 299" enable-background="new 0 0 285 299" xml:space="preserve">
<path d="M281.49,68.596c-1.031-0.2-3.229,0.599-6.59,2.396l-6.439,3.245c-3.596,1.564-7.639,2.879-12.133,3.944
	c-9.652,2.264-18.955,5.792-27.908,10.584c-7.621,4.094-13.579,8.271-17.873,12.531l-0.299-0.2
	c-5.492-3.894-11.982-6.057-19.471-6.49c-5.857-0.333-11.25,0.333-16.176,1.997c-14.944-13.779-36.129-26.41-63.554-37.893
	l-3.645-1.847l-2.347-1.448l-5.991-6.291c-2.663-2.796-4.71-4.693-6.141-5.691c-1.165-0.766-2.18-1.048-3.045-0.849
	c-1.265,0.266-1.797,1.647-1.598,4.144c0.2,2.629,1.764,7.705,4.693,15.227c3.361,8.621,7.006,16.176,10.933,22.666
	c3.129,5.192,9.453,12.797,18.972,22.816l16.03,16.142c-5.107,0.936-9.422,2.028-12.935,3.278
	c-13.113,4.626-22.632,12.265-28.557,22.916c-0.466,0.832-0.649,1.332-0.549,1.498l1.697,0.2c6.157,0.233,12.98-0.55,20.469-2.347
	c6.494-1.586,12.458-3.674,17.902-6.255c-0.407,0.632-0.791,1.28-1.127,1.962c-1.198,2.363-1.864,4.81-1.997,7.338
	c-0.033,0.732,0.083,1.166,0.35,1.299l1.847-0.35c3.994-1.299,7.322-3.146,9.984-5.542c0.033-0.03,0.063-0.061,0.097-0.091
	c-0.358,0.515-0.724,1.012-1.095,1.489c-3.195,4.127-7.339,7.556-12.431,10.285c-2.862,1.531-7.139,2.547-12.831,3.045
	c-4.56,0.4-10.817,0.517-18.771,0.35c-8.154-0.133-15.743,0.084-22.766,0.649c-8.388,0.699-14.778,1.831-19.171,3.396
	c-2.143,0.763-4.172,1.602-6.086,2.518c-13.304-8.798-22.667-21.859-28.062-39.213c-5.758-18.605-5.508-36.828,0.749-54.668
	c2.063-5.924,6.174-11.066,12.331-15.427c3.851-2.714,8.385-5.009,13.561-6.911c0.71-0.254,1.445-0.513,2.2-0.773
	c3.159-1.054,6.53-1.978,10.15-2.75c8.288-1.764,13.43-3.212,15.427-4.343c4.36-2.43,5.808-5.176,4.344-8.238
	c-1.498-3.029-4.893-4.56-10.185-4.593c-8.321,0-17.823,2.197-28.507,6.59l-5.542,2.446c4.427-5.924,9.286-11.117,14.578-15.577
	c4.76-4.027,11.283-8.554,19.571-13.58c1.631-0.965,2.663-2.43,3.095-4.394c0.433-1.93,0.133-3.594-0.898-4.992
	c-1.065-1.398-2.663-2.28-4.793-2.646c-2.097-0.333-4.277-0.133-6.54,0.599C57.594,3.012,50.788,7.006,43.998,12.73
	C35.71,19.753,28.405,28.64,22.081,39.39C9.5,60.825,3.942,82.958,5.406,105.79c1.265,19.338,7.089,36.412,17.474,51.224
	c1.731,2.463,4.577,5.857,8.537,10.184l9.465,10.193c-2.517,2.412-4.646,5.084-6.37,8.029c-2.463,4.294-4.909,11.899-7.339,22.816
	l-1.348,6.041c-0.899,3.694-2.164,6.523-3.794,8.486c-0.566,0.666-2.197,2.08-4.893,4.244l-2.147,1.647
	c-0.832,0.632-1.564,1.315-2.197,2.047c-1.73,1.897-4.31,8.204-7.738,18.922c-3.428,10.617-5.109,17.407-5.042,20.369
	c0.067,3.128,0.866,6.124,2.396,8.986c1.564,2.929,3.461,4.909,5.691,5.941c1.464,0.698,3.262,1.081,5.392,1.147
	c2.13,0.101,3.561-0.166,4.293-0.799c0.766-0.632,1.182-1.863,1.248-3.693c0.033-1.365-0.15-3.262-0.549-5.691
	c-0.565-3.295,0.649-7.988,3.645-14.079c3.628-7.39,8.67-13.297,15.127-17.724c2.33-1.631,5.009-2.846,8.038-3.645l8.038-1.398
	l1.18-0.186l0.218,1.634l0.699,6.44c0.833,12.049,1.531,19.82,2.097,23.314c0.865,5.691,2.296,9.42,4.293,11.184
	c3.461,3.063,6.157,5.025,8.088,5.891c2.296,1.032,4.51,1.082,6.64,0.15l1.248-0.749l0.799-1.147
	c0.366-1.065,0.066-2.646-0.899-4.744l-3.145-5.791l-0.699-1.298c-0.765-1.364-0.715-5.892,0.15-13.579
	c0.898-8.121,2.18-13.347,3.844-15.677c1.098-1.53,4.194-4.077,9.286-7.638l12.581-8.638c0.146-0.118,0.282-0.235,0.422-0.353
	c3.175,0.796,6.051,1.433,8.614,1.9c5.339,0.994,10.209,1.461,14.655,1.45c0.314,2.655,0.605,5.513,0.872,8.585l0.399,5.74
	c1.165,16.242,2.646,28.125,4.443,35.646c1.697,6.957,4.077,11.732,7.139,14.329c2.263,1.931,4.427,2.945,6.49,3.046
	c1.864,0.066,3.079-0.566,3.645-1.898c0.965-2.296,0.565-5.857-1.199-10.684c-1.996-5.524-2.812-13.813-2.446-24.862
	c0.299-10.052,1.365-18.472,3.196-25.262c0.521-1.96,1.402-4.353,2.642-7.175l10.938,4.329c3.794,1.497,7.622,3.245,11.482,5.242
	c4.96,2.563,9.519,5.874,13.68,9.935c3.495,3.361,5.375,5.742,5.642,7.14c0.732,3.794,1.848,6.79,3.345,8.986
	c1.231,1.798,2.563,2.879,3.994,3.245c2.229,0.566,4.061,0,5.491-1.697c2.064-2.463,2.896-6.24,2.496-11.333
	c-0.465-5.792-2.629-10.7-6.49-14.728c-10.684-11.217-18.472-20.287-23.364-27.209c-1.758-2.475-3.517-5.44-5.274-8.847
	c1.172-2.47,2.021-5.044,2.528-7.729c1.431-7.455,2.829-13.014,4.194-16.674c0.87-2.309,1.978-4.528,3.316-6.664
	c2.736,0.951,5.211,1.445,7.417,1.471c6.557,0.067,13.796-2.695,21.718-8.287c5.666-3.962,9.799-8.198,12.419-12.705
	c1.454,2.889,3.416,5.513,5.903,7.863c2.828,2.662,6.041,4.709,9.635,6.141c0.999,0.365,1.582,0.465,1.748,0.299
	c0.199-0.199,0.166-0.882-0.1-2.047c-0.411-1.781-0.885-3.388-1.42-4.825c3.429,2.678,7.84,5.087,13.252,7.222
	c5.658,2.264,10.767,3.611,15.326,4.044c1.798,0.167,2.83,0.066,3.096-0.3c0.232-0.332,0.017-1.197-0.648-2.596
	c-4.727-10.019-10.967-17.89-18.723-23.615c-5.596-4.126-11.89-7.048-18.863-8.796c9.102-4.836,17.704-12.15,25.803-21.957
	c4.693-5.691,10.019-13.58,15.977-23.665l6.141-11.083C283.005,72.74,283.754,68.996,281.49,68.596z"/>
</svg>
