<?xml version="1.0" encoding="utf-8"?>
<!-- Generator: Adobe Illustrator 16.0.0, SVG Export Plug-In . SVG Version: 6.00 Build 0)  -->
<!DOCTYPE svg PUBLIC "-//W3C//DTD SVG 1.1//EN" "http://www.w3.org/Graphics/SVG/1.1/DTD/svg11.dtd">
<svg version="1.1" id="图层_1" xmlns="http://www.w3.org/2000/svg" xmlns:xlink="http://www.w3.org/1999/xlink" x="0px" y="0px"
	 width="249px" height="268px" viewBox="0 0 249 268" enable-background="new 0 0 249 268" xml:space="preserve">
<path d="M248.482,80.39c-0.233-0.267-0.999-0.133-2.299,0.399c-8.193,3.231-14.172,5.646-17.936,7.245
	c-12.99,5.563-22.7,11.358-29.129,17.387c-6.795,6.395-13.689,16.454-20.685,30.177c-2.968,5.903-6.108,12.627-9.421,20.155
	c-3.226-2.231-6.93-3.837-11.113-4.816c-3.231-0.766-7.412-1.016-12.541-0.75c-6.462,0.4-11.324,0.134-14.589-0.799l-13.79-4.297
	c-6.229-2.065-10.725-3.714-13.49-4.946c-1.299-0.8-2.382-1.849-3.248-3.147c-0.344-0.523-0.611-1.024-0.821-1.508
	c5.206-7.927,7.815-16.617,7.815-26.072c0.026-7.694-1.7-14.205-5.16-19.542l0.863-1.093c11.625-14.29,18.586-28.729,20.885-43.318
	c1.999-12.79,0.533-27.08-4.397-42.868c-0.5-1.599-0.966-2.448-1.399-2.548c-0.433-0.1-1.149,0.417-2.148,1.549
	c-6.528,7.428-11.491,13.74-14.889,18.936c-3.797,5.795-6.545,11.491-8.244,17.087c-0.11,0.363-0.209,0.747-0.312,1.123
	l-0.038,0.026v0.05c0.003,0.003,0.01,0.005,0.014,0.009c-2.64,9.7-2.875,23.495-0.704,41.385c-5.13-2.808-11.324-4.188-18.595-4.122
	c-6.502,0.063-12.342,1.547-17.533,4.417c-3.658-13.713-9.787-26.311-18.391-37.792C27.531,29.828,15.873,19.752,2.216,12.491
	c-0.866-0.466-1.432-0.633-1.699-0.5c-0.3,0.1-0.433,0.616-0.4,1.549c0.466,13.457,1.799,24.481,3.997,33.075
	c2.765,10.692,7.311,19.852,13.64,27.479c4.297,5.163,9.81,10.109,16.538,14.839l8.148,5.101c-2.378,4.534-3.687,9.442-3.901,14.734
	c-0.267,5.862,0.866,11.475,3.397,16.838c2.79,5.892,6.977,10.83,12.521,14.845c1.671,3,2.644,6.828,2.918,11.485
	c0.267,5.03-0.3,11.642-1.699,19.835c-0.733,4.297-1.099,7.562-1.099,9.793c0,2.198,0.366,4.963,1.099,8.294
	c0.566,2.498,0.816,4.196,0.75,5.097c-0.133,1.631-0.999,3.247-2.598,4.846l-6.295,6.445l-6.795,6.695
	c-3.564,3.33-6.628,6.845-9.193,10.542c-1.999,2.864-3.481,5.479-4.447,7.844c-1.666,4.163-2.515,7.478-2.548,9.942
	c-0.033,2.432,0.766,4.363,2.398,5.796c2.432,2.132,5.996,2.331,10.692,0.6c4.896-1.832,7.661-4.796,8.294-8.894
	c0.6-3.996,1.049-6.195,1.349-6.595c1.798-2.864,8.011-7.179,18.636-12.94l7.395-4.197c3.131-1.932,5.18-3.53,6.146-4.796
	c0.6-0.8,1.266-2.315,1.999-4.547c0.654-2.061,1.405-3.566,2.252-4.536c2.269,0.977,4.702,1.679,7.299,2.112
	c2.581,3.108,4.285,6.727,5.088,10.868c0.466,2.564,0.649,6.527,0.549,11.891c-0.133,6.662-1.065,11.975-2.798,15.938
	c-1.765,3.932-4.513,6.879-8.244,8.844c-1.066,0.6-1.865,1.532-2.398,2.799c-0.466,1.165-0.666,2.48-0.599,3.946
	c0.133,3.431,3.248,5.546,9.343,6.345c5.996,0.8,9.942-0.266,11.841-3.197l1.399-2.198c0.699-0.999,1.482-1.798,2.348-2.397
	c1.565-1.066,2.648-2.349,3.248-3.848l0.089-0.393c2.943,0.931,6.06,1.167,9.354,0.692c4.264-0.666,8.177-2.448,11.741-5.347
	c0.834-0.633,1.482-1.349,1.949-2.148c0.467-0.898,0.85-2.081,1.148-3.547c0.234-1.1,1.166-3.181,2.799-6.245
	c1.998-3.831,4.113-7.062,6.346-9.692l3.146-3.647c0.8-0.999,1.266-1.716,1.399-2.148c0.2-0.6,0.083-1.433-0.35-2.499l-1.149-2.848
	c-0.366-1.032-0.482-2.531-0.35-4.496c0.064-0.905,0.191-1.709,0.376-2.418c1.733,2.472,3.344,4.618,4.82,6.415
	c3.197,3.931,6.278,6.928,9.243,8.993c0.666,0.467,3.147,1.532,7.444,3.197c3.831,1.499,5.995,2.648,6.495,3.447
	c1.532,2.398,2.798,5.746,3.797,10.043c0.866,3.664,1.299,6.762,1.299,9.293c0,1.033-0.366,2.031-1.099,2.998
	c-0.767,1.032-1.749,1.766-2.948,2.198l-2.548,1.299c-0.899,0.767-1.466,1.882-1.698,3.348c-0.367,2.265,0.066,4.03,1.299,5.296
	c1.199,1.332,3.114,2.281,5.746,2.848c2.863,0.666,5.979,0.717,9.342,0.15c2.166-0.367,3.881-1.398,5.146-3.098
	c1.332-1.766,2.382-4.563,3.148-8.395c0.299-1.465,0.482-6.895,0.549-16.287c0.066-10.226-0.232-16.238-0.898-18.037
	c-0.767-2.031-2.216-4.113-4.348-6.245l-4.547-4.546c-0.998-1.299-1.798-7.129-2.397-17.487c-0.69-12.172-3.354-21.765-7.983-28.789
	c1.35-0.79,3.205-1.718,5.585-2.788l8.244-3.797c17.354-8.46,29.294-16.471,35.823-24.032c6.994-8.061,12.59-20.801,16.787-38.222
	c0.899-3.664,2.365-7.894,4.396-12.69C248.549,81.373,248.716,80.623,248.482,80.39z M114.732,228.829
	c1.599-10.792,2.631-17.07,3.098-18.836l1.551-3.563l4.495,8.809c1.666,2.897,2.098,5.246,1.298,7.045
	c-1.365,3.164-4.046,7.811-8.043,13.939c-0.3,0.633-0.966,1.199-1.999,1.698l-1.902,0.78L114.732,228.829z"/>
</svg>
