<?xml version="1.0" encoding="utf-8"?>
<!-- Generator: Adobe Illustrator 16.0.0, SVG Export Plug-In . SVG Version: 6.00 Build 0)  -->
<!DOCTYPE svg PUBLIC "-//W3C//DTD SVG 1.1//EN" "http://www.w3.org/Graphics/SVG/1.1/DTD/svg11.dtd">
<svg version="1.1" id="图层_1" xmlns="http://www.w3.org/2000/svg" xmlns:xlink="http://www.w3.org/1999/xlink" x="0px" y="0px"
	 width="171px" height="187px" viewBox="0 0 171 187" enable-background="new 0 0 171 187" xml:space="preserve">
<path d="M169.473,76.164l-7.781,0.349l-9.445,1.284c0.51-0.62,0.953-1.263,1.314-1.932c0.266-0.532,0.066-0.832-0.599-0.898
	l-2.528,0.307c1.118-1.515,1.983-2.835,2.578-3.948l0.05-0.698l-0.848-0.1c-1.663,0.532-3.774,1.463-6.335,2.793
	c-2.66,1.33-4.938,2.66-6.834,3.99c0.699-2.062,1.563-4.106,2.594-6.135c0.433-0.831,0.2-1.047-0.697-0.648
	c-1.863,0.865-4.323,2.361-7.383,4.489l1.396-3.891c0.232-0.499,0.25-0.814,0.051-0.948c-0.167-0.133-0.449-0.083-0.849,0.15
	c-1.497,0.731-3.425,2.045-5.786,3.94c-1.227,0.987-2.294,1.932-3.218,2.839c-0.222-1.266-0.573-2.64-1.071-4.136
	c-0.167-0.432-0.5-0.482-0.998-0.15c-3.326,2.395-7.05,7.599-11.174,15.613c-4.142,8.158-6.292,14.863-6.495,20.149
	c-0.422,0.27-1.039,0.741-1.884,1.449l-3.441,2.743c-3.027,1.896-6.852,2.062-11.473,0.499c-4.556-1.597-9.261-4.673-14.116-9.228
	c-1.164-1.098-2.561-1.797-4.19-2.096l-3.168,0.189c0.646-0.7,1.254-1.46,1.821-2.284c1.064-1.63,1.746-3.126,2.045-4.489
	c0.1-0.465,0.083-0.748-0.05-0.848l-0.798,0.149l-3.641,1.247l-4.29,0.898c0.166-1.098,0.615-2.312,1.347-3.642
	c0.232-0.499,0.05-0.698-0.549-0.598c-1.584,0.209-2.999,0.688-4.261,1.409c0.091-1.11,0.235-2.328,0.435-3.658
	c3.911-1.093,7.549-3.261,10.909-6.53c2.36-2.311,4.272-4.814,5.742-7.507c3.625,1.152,8.105,1.829,13.461,2.021
	c5.288,0.167,9.428-0.149,12.421-0.948c1.63-0.432,2.511-1.047,2.644-1.845c0.066-0.698-0.416-1.463-1.447-2.294
	c-5.112-4.002-11.119-7.693-18-11.083c3.114-3.76,6.654-9.775,10.619-18.047c4.189-8.846,5.803-13.817,4.838-14.914
	c-0.865-0.964-5.637,0.066-14.316,3.092c-1.428,0.495-2.773,0.983-4.08,1.47c0.303-5.428,0.302-12.026-0.01-19.826
	C81.65,5.068,81.102,0.462,80.337,0.097c-2.062-0.964-7.731,2.328-17.009,9.876c-8.042,6.548-14.825,13.442-20.39,20.671
	c-1.008-2.927-2.301-5.924-3.901-8.999c-2.028-3.824-3.508-5.686-4.439-5.586c-1.197,0.133-2.677,3.857-4.439,11.173
	c-1.654,6.771-2.595,12.683-2.844,17.756c-8.462-1.103-16.462-1.441-23.991-0.997c-1.829,0.1-2.876,0.565-3.143,1.397
	c-0.266,0.798,0.233,1.712,1.496,2.743c2.295,1.862,6.418,4.473,12.371,7.831c4.937,2.775,9.475,5.151,13.63,7.144
	c0.042,2.098,0.452,3.905,1.228,5.424c-0.187,0.681-0.5,1.376-0.925,2.084l-1.861,0.113c-3.226,0.233-5.304,0.582-6.235,1.047
	c-1.131,0.632-2.261,1.896-3.392,3.791c-1.064,1.795-1.829,3.608-2.294,5.437c-0.266,1.097-0.382,2.377-0.349,3.841
	c0.033,1.43,0.2,2.594,0.499,3.491c0.665,1.862,1.663,3.608,2.993,5.238c1.363,1.629,2.494,2.427,3.392,2.394
	c0.964,0,2.793-1.513,5.487-4.539c0.784-0.878,1.493-1.624,2.143-2.263c0.92,0.589,2.029,1.387,3.344,2.413
	c0.998,0.732,2.062,1.114,3.192,1.147c0.898,0.033,2.028-0.183,3.392-0.648c4.123-1.497,7.365-2.444,9.727-2.843
	c0.261-0.043,0.5-0.109,0.753-0.161c0.888,0.787,1.385,1.429,1.441,1.907c0.159,1.788,0.2,3.401,0.143,4.865l-2.387-0.825
	l-2.395-1.197l-0.549-0.1c-0.133,0.133-0.166,0.349-0.1,0.648c0.432,2.029,0.981,3.775,1.646,5.238
	c-2.793-0.799-5.188-1.147-7.183-1.048l-0.499,0.2l0.2,0.598c2.494,2.693,4.373,5.138,5.637,7.332
	c-4.19,3.891-6.983,8.081-8.38,12.57c-1.397,4.489-1.247,8.795,0.449,12.919c2.128,5.188,5.62,9.278,10.475,12.271
	c2.889,1.772,6.076,3.027,9.55,3.786c0.646,6.644,0.922,10.808,0.825,12.475c-0.066,1.929-1.18,3.242-3.342,3.94
	c-2.062,0.632-4.373,1.081-6.933,1.347l-7.233,0.249c-0.516-0.037-0.996-0.035-1.454-0.011l-3.684-0.737
	c-0.964-0.332-1.862-0.249-2.693,0.25c-0.706,0.434-1.096,1.044-1.204,1.811c-0.098,0.014-0.192,0.014-0.293,0.035
	c-1.529,0.332-2.644,1.164-3.342,2.494c-0.233,0.498-0.382,1.131-0.449,1.895c-0.1,0.732-0.066,1.147,0.1,1.248l2.16,0.039
	c-0.245,0.725-0.323,1.491-0.214,2.305c0.051,0.671,0.155,1.095,0.306,1.285c-0.002,0.004-0.005,0.008-0.007,0.012
	c0.004-0.003,0.009-0.005,0.013-0.008c0.042,0.052,0.087,0.093,0.137,0.107l3.242-1.197l3.542-1.347
	c0.07-0.021,0.127-0.051,0.191-0.077l1.501,0.34c-0.618,0.843-1.025,1.83-1.193,2.98c-0.133,1.196-0.05,1.895,0.25,2.094
	l2.743-0.848l2.863-1.104c-0.114,0.711-0.122,1.411-0.02,2.103c0.066,0.798,0.2,1.23,0.399,1.297c0.125,0.063,0.737-0.18,1.8-0.704
	c0.08,0.699,0.21,1.076,0.395,1.103l2.195-0.848c0.705-0.341,1.519-0.648,2.426-0.928c0.375,0.628,1.001,0.935,1.914,0.878
	c0.964-0.033,1.879-0.415,2.744-1.147c0.687-0.555,1.428-0.935,2.22-1.153c0.086,0.146,0.175,0.288,0.286,0.401
	c-0.626,0.609-1.121,1.413-1.458,2.448c-0.299,0.931-0.399,1.862-0.299,2.793c0.1,0.897,0.316,1.38,0.648,1.446
	c0.299,0.1,1.23-0.299,2.793-1.197c0.632-0.365,1.446-0.748,2.444-1.146c0.229-0.101,0.427-0.215,0.615-0.336
	c0.417,0.39,1.01,0.585,1.78,0.585c0.964-0.033,1.762-0.366,2.394-0.997c3.658-3.725,6.867-6.202,9.627-7.433
	c2.959-1.264,6.268-1.297,9.926-0.1c0.327,0.131,0.655,0.13,0.982,0.003c0.549,0.331,1.129,0.61,1.762,0.795l1.546,0.1
	c0.799-0.765,0.832-1.895,0.1-3.392c-0.655-1.341-1.582-2.2-2.775-2.587c-0.258-0.368-0.576-0.689-0.965-0.955
	c-0.732-0.498-1.596-0.764-2.594-0.797l-5.786-0.799c-0.964-0.199-1.746-0.731-2.345-1.596c-0.665-0.998-0.948-2.195-0.848-3.592
	l0.499-6.783c0.194-2.157,0.388-3.857,0.582-5.113c0.073-0.075,0.141-0.151,0.217-0.225c0.798-0.765,1.563-1.264,2.294-1.496
	c5.952-1.762,11.522-6.052,16.709-12.869c2.063-2.693,3.99-5.736,5.786-9.128c1.294-2.498,2.325-4.776,3.125-6.858
	c0.76-0.187,1.808-0.738,3.16-1.671l2.475-2.075c3.713,2.561,9.593,5.229,17.677,8.011c9.244,3.192,16.527,4.673,21.848,4.439
	c0.965-0.033,1.131-0.366,0.498-0.997c-1.253-1.179-2.436-2.193-3.562-3.076l8.101,1.43l0.849-0.15
	c0.166-0.166,0.149-0.432-0.05-0.797l-2.276-3.521l3.323,0.229h5.537c1.098-0.1,1.28-0.482,0.549-1.146
	c-1.258-1.166-2.486-2.539-3.688-4.103l0.994-0.038l3.641-0.897c0.799-0.267,0.814-0.615,0.051-1.048l-4.739-3.541
	c4.522-2.96,8.13-5.554,10.824-7.781c0.232-0.199,0.333-0.433,0.299-0.699c-0.033-0.266-0.199-0.498-0.499-0.697
	c-0.831-0.533-2.277-1.182-4.339-1.945l-5.337-1.797c2.793-2.193,5.221-4.372,7.282-6.534c0.266-0.266,0.349-0.499,0.249-0.698
	s-0.332-0.299-0.698-0.299c-1.563,0.1-2.876,0.083-3.94-0.05c4.09-6.218,6.783-10.508,8.08-12.869
	C170.437,76.596,170.236,76.23,169.473,76.164z M65.124,163.952c-0.565-0.731-0.865-1.696-0.898-2.894
	c0-3.659,0.094-7.647,0.277-11.945c1.075,0.063,1.96,0.306,2.659,0.726l0.356,6.332l0.05,6.235c-0.072,0.996-0.37,1.834-0.876,2.524
	C66.067,164.797,65.544,164.472,65.124,163.952z"/>
</svg>
