<?xml version="1.0" encoding="utf-8"?>
<!-- Generator: Adobe Illustrator 16.0.0, SVG Export Plug-In . SVG Version: 6.00 Build 0)  -->
<!DOCTYPE svg PUBLIC "-//W3C//DTD SVG 1.1//EN" "http://www.w3.org/Graphics/SVG/1.1/DTD/svg11.dtd">
<svg version="1.1" id="图层_1" xmlns="http://www.w3.org/2000/svg" xmlns:xlink="http://www.w3.org/1999/xlink" x="0px" y="0px"
	 width="283px" height="407px" viewBox="0 0 283 407" enable-background="new 0 0 283 407" xml:space="preserve">
<path d="M255.168,292.013c-18.653,3.96-32.607,6.278-41.889,6.962c0.076-1.588,0.119-3.19,0.119-4.813
	c0-16.547-1.29-31.063-3.836-43.601c6.877-6.588,15.258-14.199,25.17-22.853c11.026-9.593,17.338-14.673,18.938-15.239
	c4.297-1.532,10.559-3.647,18.787-6.346c6.096-2.631,9.143-5.879,9.143-9.743c0-3.031-1.648-5.846-4.946-8.444
	c-3.831-2.998-9.576-5.313-17.237-6.945c-2.365-5.03-4.664-7.544-6.896-7.544c-1.366,0-2.864,0.799-4.497,2.398
	c-0.6,0.566-1.498,1.632-2.697,3.198l-11.824,0.946c-1.509-4.483-4.209-8.148-8.112-10.989c-6.195-4.53-14.307-6.196-24.333-4.997
	l-1.501,0.045c1.604-1.541,2.955-3.469,4.05-5.792c1.641-3.517,2.279-7.013,1.944-10.489c1.049-1.459,1.901-3.321,2.552-5.599
	c0.659-2.384,0.962-4.873,0.934-7.456c9.63-3.383,18.182-9.752,25.648-19.125c6.462-8.094,11.641-17.704,15.539-28.83
	c3.363-9.626,5.146-18.354,5.346-26.181c0.233-7.595-1.082-11.392-3.947-11.392c-0.566,0-2.932,2.665-7.095,7.995
	c-5.663,7.294-10.56,13.124-14.69,17.487c-13.012,13.691-25.47,21.519-37.374,23.49c0-0.003,0.001-0.004,0.001-0.007
	c0.434-8.927-1.666-17.904-6.295-26.931c-0.003-0.006-0.006-0.011-0.009-0.017c1.292-2.424,4.738-7.876,10.351-16.372
	c4.83-7.328,6.912-11.325,6.246-11.992c-0.5-0.533-3.148-0.483-7.944,0.15l-15.011,1.227c0.031-2.405,0.437-8.167,1.221-17.315
	c0.732-8.827,0.466-13.574-0.8-14.24c-1.466-0.767-5.296,1.798-11.491,7.694c-3.482,3.287-6.24,5.826-8.284,7.626
	c-3.565-3.272-7.782-8.927-12.651-16.969c-4.33-7.095-7.212-10.643-8.644-10.643c-1.166,0-2.582,1.166-4.247,3.498
	c-0.667,0.899-2.382,3.647-5.146,8.244c-5.18,8.569-10.037,14.368-14.572,17.412c-2.321-1.982-4.958-5.004-7.912-9.068
	c-4.23-5.83-6.695-8.611-7.395-8.344c-1.299,0.466-1.982,4.813-2.048,13.041l-0.221,15.334c-3.983-0.24-8.722-1.187-14.219-2.843
	c-4.031-1.199-6.462-1.482-7.295-0.849c-1,0.799,0.483,4.563,4.447,11.292c4.448,7.537,7.082,12.984,7.95,16.396
	c-5.643,6.979-8.564,15.909-8.778,26.781c-1.783,1.609-3.44,3.333-4.968,5.176c-11.858-0.862-22.852-8.098-32.976-21.723
	c-3.131-4.23-6.545-9.66-10.243-16.288c-2.765-4.93-4.347-7.362-4.747-7.295c-2.432,0.433-4.031,4.247-4.797,11.442
	c-0.833,7.661-0.183,15.789,1.949,24.383c2.532,10.292,6.795,18.97,12.791,26.031c7.228,8.561,16.488,14.074,27.78,16.539
	c-0.6,3.931-0.3,7.428,0.899,10.493c0.904,2.248,2.164,3.886,3.769,4.932c-0.099,3.671,0.52,7.158,1.877,10.458
	c0.728,1.803,1.609,3.38,2.635,4.741c-0.842-0.165-1.668-0.33-2.535-0.494c-7.662-1.399-13.524-0.833-17.588,1.699
	c-1.327,0.825-2.523,1.898-3.598,3.205l-5.495-4.004l-6.046-4.047c-0.5-3.997-1.382-7.245-2.648-9.743
	c-1.299-2.498-2.798-3.864-4.497-4.097c-1.166-0.133-2.448,0.517-3.847,1.949c-1.133,1.132-2.065,2.415-2.798,3.847
	c-3.464-1.499-7.112-2.481-10.942-2.948c-5.996-0.733-10.31,0.333-12.941,3.198c-1.066,1.199-1.033,3.88,0.1,8.044
	c1.232,4.431,3.464,9.494,6.695,15.189c7.656,13.577,18.1,25.999,31.324,37.267c0.726,0.923,1.509,1.842,2.403,2.755l5.846,5.496
	c2.198,2.099,3.73,3.881,4.597,5.347c0.667,1.099,1.316,4.663,1.949,10.692c0.6,5.796,1.666,9.66,3.198,11.592
	c0.437,0.563,0.963,1.094,1.531,1.609c-0.71,1.85-1.394,3.722-2.03,5.635c-4.697,14.157-7.045,29.164-7.045,45.02
	c0,0.008,0,0.017,0,0.024c-6.092,4.755-10.949,10.847-14.54,18.312c-3.498,7.328-5.496,15.173-5.996,23.533
	c-0.433,8.162,0.616,15.64,3.147,22.435c1.756,4.712,4.089,8.619,6.972,11.76c-3.698,3.506-6.625,7.611-8.77,12.323
	c-2.032,4.497-2.815,8.178-2.349,11.042c0.3,1.732,1.715,3.182,4.247,4.348c3.064,1.398,7.228,2.081,12.491,2.048
	c10.526-0.066,23.034-3.164,37.523-9.293c14.093-5.957,23.444-12.023,28.082-18.196c6.674,1.693,13.516,2.558,20.534,2.558
	c6.831,0,13.629-0.936,20.396-2.762c3.555,4.04,8.7,7.843,15.479,11.405c6.529,3.431,12.691,5.729,18.486,6.896
	c4.598,2.73,8.795,4.996,12.592,6.795c8.594,4.03,15.473,6.046,20.635,6.046c3.465,0,6.713-0.816,9.744-2.448
	c3.464-1.899,5.195-4.28,5.195-7.146c0-2.198-1.049-5.279-3.146-9.243c-1.566-2.898-3.082-5.279-4.547-7.145
	c8.21-11.352,11.622-24.119,10.26-38.297c13.579-7.889,24.902-18.269,33.959-31.154c3.597-5.097,6.278-9.844,8.044-14.24
	c1.632-4.098,2.114-6.895,1.448-8.395C278.769,287.532,270.758,288.682,255.168,292.013z"/>
</svg>
