<?xml version="1.0" encoding="utf-8"?>
<!-- Generator: Adobe Illustrator 16.0.0, SVG Export Plug-In . SVG Version: 6.00 Build 0)  -->
<!DOCTYPE svg PUBLIC "-//W3C//DTD SVG 1.1//EN" "http://www.w3.org/Graphics/SVG/1.1/DTD/svg11.dtd">
<svg version="1.1" id="图层_1" xmlns="http://www.w3.org/2000/svg" xmlns:xlink="http://www.w3.org/1999/xlink" x="0px" y="0px"
	 width="271px" height="276px" viewBox="0 0 271 276" enable-background="new 0 0 271 276" xml:space="preserve">
<path d="M270.677,70.549c-0.065-0.267-2.015-1.382-5.846-3.348c-3.831-1.999-5.962-2.981-6.396-2.948
	c-0.334,0.033-1.732,0.716-4.197,2.048l-6.146,3.348l4.097-4.696l2.449-3.098c0-0.233-2.133-0.882-6.396-1.948
	c-4.432-1.133-7.361-1.699-8.795-1.699H239.3l-0.101,0.05c-1.698,0.833-5.313,3.547-10.842,8.144l1.748-4.547
	c0.601-1.865,0.834-2.881,0.699-3.047c-0.134-0.167-2.064-0.184-5.796-0.05l-6.045,0.35l-3.198,3.447l-4.847,5.546l3.897-8.943
	l-5.098,0.5c-3.33,0.466-5.18,0.816-5.545,1.049c-0.268,0.167-1.217,1.482-2.849,3.947l-4.446,6.795
	c0.434-1.199,1.432-3.298,2.998-6.295l1.947-4.197c-0.033-0.3-2.581,0.266-7.645,1.699c-5.029,1.432-7.793,2.315-8.293,2.648
	c-0.268,0.2-0.935,1.565-2,4.097l-3.548,7.994l2.3-6.695c1.032-2.964,1.432-4.563,1.198-4.796c-0.2-0.2-1.665,0.396-4.375,1.775
	c-0.36-8.695-3.796-17.664-10.313-26.907c-4.696-6.628-7.328-11.425-7.896-14.39c-0.433-2.465,0.384-6.063,2.449-10.792
	c0.897-2.165-0.167-2.215-3.198-0.15c-1.333,0.899-2.281,1.615-2.849,2.148c-0.8,0.733-1.765,1.882-2.897,3.447
	c0.102-1.732,0.333-3.214,0.7-4.447l1.199-2.898c0.433-0.933,0.133-1.332-0.9-1.199c-0.937,0.09-1.932,0.586-2.979,1.444
	c0.207-2.254,0.647-4.122,1.33-5.592c0.4-0.866,0.4-1.432,0-1.699l-1.948,0.1c-0.666,0.233-1.632,0.949-2.897,2.148l-3.098,2.998
	c0.034-1.466,0.398-3.331,1.1-5.596c0.399-1.132,0.551-1.865,0.449-2.198c-0.268-0.7-1.332-0.683-3.197,0.05
	c-1.365,0.533-2.849,1.316-4.445,2.348l-3.299,2.199c-0.166-1.099-0.117-3.214,0.149-6.346c0.166-1.499-0.084-2.282-0.75-2.348
	c-0.666-0.033-1.548,0.716-2.647,2.249c-0.825,1.191-2.231,3.674-4.206,7.417c-0.427-1.322-0.841-2.196-1.24-2.62
	c-0.6-0.633-1.132-0.283-1.599,1.049l-0.799,3.048l-2.099-3.797c-1.033-1.499-2.382-2.631-4.047-3.397
	c-1.133-0.533-1.882-0.683-2.249-0.45c-0.333,0.233-0.233,0.716,0.3,1.449c0.466,0.633,0.766,1.266,0.899,1.899l0.1,2.748
	c0,1.865-0.783,3.88-2.348,6.045c-1.799,2.432-4.347,4.663-7.645,6.695c-6.729,4.164-12.824,9.193-18.287,15.089
	c-5.705,6.071-9.557,12.063-11.582,17.978c-2.729-1.418-4.136-2.083-4.207-1.99l0.25,1.499l0.5,2.298l-1.898-4.997
	c-0.2-0.333-2.648-1.499-7.345-3.497c-4.763-1.999-7.211-2.881-7.345-2.648c-0.133,0.2,0.066,0.966,0.6,2.298l1.399,3.598
	c-1.699-2.964-2.665-4.547-2.898-4.747c-0.3-0.2-1.183-0.45-2.648-0.75l-2.499-0.2c-0.133,0.133-0.083,0.883,0.15,2.248l0.7,3.748
	l-3.847-6.595l-6.795-0.25c-4.197,0.3-6.179,0.716-5.945,1.249l1.849,2.398l2.448,2.848l-7.445-4.197
	c-0.233-0.033-1.532,0.316-3.897,1.049l-4.047,1.349c-0.266,0.133,0.083,0.383,1.049,0.75l1.799,0.6l-2.598-0.55l-3.647,2.498
	c-2.365,1.699-3.681,2.781-3.947,3.248c-0.266,0.5,1,0.816,3.797,0.949l6.646,0.05l-5.596,2.748
	c-2.298,1.132-3.431,1.815-3.397,2.048c0.033,0.3,0.633,0.85,1.799,1.649c1.199,0.766,2.082,1.166,2.648,1.199l6.295-1l9.144-1.699
	l-7.245,3.397c-2.698,1.232-4.13,1.949-4.297,2.148c-0.2,0.233,1.099,1.566,3.897,3.997c2.798,2.398,4.396,3.614,4.796,3.647
	l5.646-2.398c4.23-1.832,7.794-3.148,10.692-3.947c-1.566,1.465-4.214,3.23-7.944,5.296l-5.446,2.948
	c-0.233,0.2,1.382,1.715,4.847,4.546c3.431,2.798,5.33,4.214,5.696,4.247l5.996-2.648c4.53-2.065,8.078-3.531,10.642-4.397
	l-9.792,5.396c-3.931,2.065-5.962,3.214-6.096,3.448c-0.045,0.101,0.52,0.418,1.664,0.942c-0.984,0.522-2.157,1.148-3.563,1.905
	l-6.795,3.598c-0.233,0.066,0.5,0.433,2.198,1.099l4.747,1.898l-6.745-1.299l-3.897-0.5c-0.466,0.066-2.781,1.715-6.945,4.946
	c-4.197,3.264-6.295,5.046-6.295,5.346c0,0.233,1.399,0.699,4.197,1.399c3.464,0.899,5.613,1.516,6.445,1.849
	c-10.026,0.766-15.739,1.432-17.138,1.999c-1.132,0.4-2.981,2.448-5.546,6.146c-2.432,3.464-3.581,5.363-3.447,5.696l3.697-0.1
	l6.645-0.6l-8.044,2.698c-2.931,0.966-4.547,1.565-4.847,1.799c-0.433,0.3-1.815,2.598-4.147,6.895
	c-2.365,4.264-3.481,6.512-3.348,6.745c0.1,0.133,1.782-0.449,5.046-1.749c3.931-1.565,6.495-2.531,7.694-2.897
	c-6.795,4.529-10.359,7.028-10.692,7.494c-0.233,0.334-0.466,2.148-0.7,5.446c-0.267,3.363-0.233,5.097,0.1,5.195
	c0.233,0.066,3.131-2.447,8.693-7.545c6.029-5.528,9.593-8.66,10.692-9.393l-4.147,7.844l-2.698,5.246l7.745-1.049l8.144-1.699
	c0.233-0.133,0.766-1.414,1.599-3.847l2.499-7.095l-0.1,5.096c0.033,2.564,0.1,3.947,0.2,4.146
	c0.133,0.201,3.564-0.633,10.293-2.498c0.184-0.051,0.356-0.101,0.535-0.15c-0.301,0.494-0.599,0.99-0.885,1.5
	c-4.83,8.594-7.694,15.654-8.594,21.186c-0.733,4.563-0.483,11.592,0.75,21.084l0.4,2.799c0.233,2.064,0.25,3.631,0.05,4.695
	L36.096,199l-0.849,6.146c-0.633,3.764-0.75,7.576-0.35,11.441c0.233,2.396,0.982,4.213,2.248,5.445
	c1.166,1.1,2.915,1.849,5.247,2.248l0.544,0.033c0.336,0.619,0.882,1.403,1.654,2.365c1.366,1.731,2.348,2.598,2.948,2.598
	s1.349-0.666,2.249-1.998c0.584-0.866,0.975-1.686,1.207-2.467l3.54,0.219c0.213,0.003,0.414,0.004,0.623,0.006
	c0.283,0.62,1.036,1.529,2.275,2.742c1.599,1.564,2.731,2.164,3.397,1.799c0.666-0.367,1.282-1.199,1.849-2.498l0.726-2.38
	c1.226-0.148,2.261-0.345,3.118-0.589c0.624,0.455,1.631,0.992,3.051,1.619c2.598,1.1,3.997,1.231,4.197,0.399
	c0.4-1.5,0.05-3.548-1.049-6.146c-0.119-0.28-0.238-0.533-0.356-0.777c0.019-0.025,0.037-0.047,0.056-0.072
	c2.398-3.197,4.047-6.711,4.947-10.542c2.065,1.966,4.93,4.081,8.594,6.347c3.764,2.33,7.328,4.162,10.692,5.496
	c2.232,8.859,6.878,18.554,13.94,29.078c6.928,10.359,13.291,17.254,19.086,20.686c0.252,0.146,0.59,0.268,1.004,0.365
	c0.356,0.608,0.918,1.385,1.694,2.332c1.433,1.799,2.432,2.766,2.998,2.898c0.433,0.1,1.082-0.916,1.949-3.049
	c0.315-0.796,0.562-1.479,0.737-2.048c1.146-0.085,2.395-0.2,3.758-0.351c0.057-0.007,0.104-0.015,0.16-0.021
	c0.521,0.679,1.432,1.468,2.738,2.368c1.998,1.398,3.381,1.998,4.146,1.799c0.434-0.1,0.865-1.064,1.299-2.896l0.422-2.689
	c1.123-0.268,2.116-0.553,2.979-0.855l3.895,1.297c2.23,0.601,3.447,0.75,3.646,0.449c0.732-1.066,0.233-3.148-1.498-6.246
	c-0.435-0.775-0.853-1.438-1.252-1.992c-0.014-3.164-0.36-7.905-1.047-14.246l-1.748-13.09c0.164-0.029,0.328-0.066,0.494-0.099
	l7.106,10.824c-0.078,0.791,0.028,1.962,0.342,3.563c0.367,2.031,0.851,3.114,1.449,3.248c0.601,0.1,1.565-0.367,2.897-1.398
	l0.797-0.764c1.447,0.336,3.324,0.652,5.611,0.951c0.18,0.516,0.439,1.115,0.787,1.811c0.998,1.998,1.898,3.031,2.697,3.098
	c0.766,0.066,1.849-0.799,3.248-2.598c0.542-0.695,0.964-1.28,1.279-1.768l2.768,0.168l2.299-0.25
	c0.102-0.006,0.204-0.031,0.307-0.043c0.323,0.608,0.804,1.288,1.441,2.041c1.398,1.633,2.48,2.032,3.248,1.199
	c1.232-1.365,1.732-3.247,1.498-5.646c-0.045-0.539-0.117-1.012-0.209-1.433c3.117-3.506,6.45-9.378,10.002-17.653
	c4.664-10.959,7.245-23.416,7.745-37.373c0.239-6.774,0.039-12.205-0.599-16.305c0.152-4.006-0.225-7.914-1.15-11.726
	c2.832-7.628,4.697-15.772,5.596-24.433c0.732-7.461,0.65-11.524-0.25-12.191c-1.865-1.299-6.527-2.198-13.988-2.698
	c-5.199-0.341-10.14-0.147-14.836,0.544c-0.388-0.313-0.793-0.634-1.213-0.96l3.596-1.152l2.311,0.869
	c0.514,0.256,0.814-0.383,0.914-1.901l7.479-2.396c0.133-0.1-1.065-1.666-3.598-4.697l-4.596-5.945
	c1.799,0.766,4.097,2.465,6.895,5.096l4.047,3.897c0.268,0.133,1.883-0.766,4.848-2.698c2.863-1.865,4.363-2.931,4.496-3.198
	c0.066-0.133-0.916-1.349-2.947-3.647l-4.247-4.896c1.199,0.533,2.981,1.916,5.347,4.147l3.498,3.248l3.196-0.849
	c1.799-0.633,2.799-1.066,2.998-1.299c0.166-0.233-1.699-2.432-5.597-6.595c-3.93-4.197-6.86-7.111-8.793-8.744
	c2.697,0.866,6.795,3.081,12.291,6.646l7.646,4.946c0.397-0.033,2.881-1.033,7.442-2.998c4.664-2.032,7.046-3.197,7.146-3.497
	c0.167-0.433-4.146-3.614-12.939-9.543c2.397,0.833,6.045,2.765,10.94,5.796l7.046,4.447c0.301,0.066,2.647-1.599,7.045-4.996
	l6.496-5.396c-0.033-0.133-1.717-0.882-5.048-2.248l-8.692-3.598l9.893,1.599l6.146,0.799l4.746-4.397
	c2.83-2.798,4.196-4.28,4.098-4.447l-4.397-0.399l-8.793,0.05l9.144-3.348C268.846,71.565,270.744,70.749,270.677,70.549z
	 M56.503,130.314c-0.35,0.27-0.698,0.542-1.039,0.82c0.27-1.826,0.643-3.319,1.118-4.477L56.503,130.314z"/>
</svg>
