<?xml version="1.0" encoding="utf-8"?>
<!-- Generator: Adobe Illustrator 16.0.0, SVG Export Plug-In . SVG Version: 6.00 Build 0)  -->
<!DOCTYPE svg PUBLIC "-//W3C//DTD SVG 1.1//EN" "http://www.w3.org/Graphics/SVG/1.1/DTD/svg11.dtd">
<svg version="1.1" id="图层_1" xmlns="http://www.w3.org/2000/svg" xmlns:xlink="http://www.w3.org/1999/xlink" x="0px" y="0px"
	 width="290px" height="235px" viewBox="0 0 290 235" enable-background="new 0 0 290 235" xml:space="preserve">
<path d="M284.443,79.604c-2.971-14.451-8.627-27.45-16.971-38.997c-9.777-13.583-21.543-24.063-35.293-31.438
	c-8.209-4.372-15.652-7.092-22.326-8.16l-6.758-0.851c-2.904-0.167-4.757,0.117-5.558,0.851c-0.701,0.667,0.133,1.485,2.503,2.453
	c5.874,2.437,9.896,4.188,12.064,5.256c11.515,5.707,21.691,13.583,30.537,23.629c10.945,12.481,18.021,26.615,21.226,42.401
	c1.702,8.444,1.651,16.72-0.15,24.83c-1.368,6.208-3.653,11.915-6.858,17.121c-2.902,4.672-6.356,8.427-10.361,11.264
	c-2.621,1.833-5.314,3.184-8.079,4.063c-0.045-0.151-0.084-0.305-0.131-0.457c-1.802-5.875-4.39-11.348-7.759-16.42
	c-2.938-4.439-6.525-8.527-10.764-12.265c-4.105-3.638-7.844-6.074-11.213-7.309l2.452-1.352c1.535-0.768,2.304-1.318,2.304-1.652
	c0-0.367-0.803-0.634-2.404-0.801l-4.654-0.451l1.352-0.851l2.252-1.853c-0.033-0.2-0.934-0.434-2.703-0.701
	c-4.471-0.667-8.575-0.768-12.313-0.3c1.368-1.102,3.154-2.22,5.356-3.354c2.535-1.269,4.672-2.036,6.406-2.303l1.553-0.25
	c0.734-0.3,0.283-0.751-1.352-1.352c-5.072-1.802-9.996-2.453-14.769-1.953c-3.237,0.334-7.358,1.435-12.364,3.304l4.705-4.806
	l1.652-0.951c0.634-0.567-0.135-0.734-2.303-0.501c-7.652,0.898-13.225,2.465-16.724,4.698c0.135-1.375,0.202-3.023,0.202-4.948
	l-0.301-4.255l5.007-5.857c2.136-2.603,3.202-4.289,3.202-5.056c0-0.734-1.135-2.036-3.402-3.905l-6.059-4.505l2.604-5.657
	l2.453-5.707c0.334-1.168,0.334-1.985,0-2.453c-0.399-0.634-1.386-1.018-2.954-1.151c-6.875-0.601-15.452,1.802-25.731,7.208
	c-6.469,3.382-12.075,7.08-16.861,11.079c0.403-2.592,0.999-4.356,1.792-5.272l1.302-1.302l-1.702-0.1l-3.354,0.601
	c-0.601,0.167-1.585,0.534-2.954,1.102l2.753-3.905c1.102-1.435,2.136-2.503,3.104-3.204l1.502-1.452l-2.052-0.1
	c-7.576,0.467-14.217,3.104-19.924,7.91c0.768-1.235,1.485-2.169,2.153-2.803l2.252-1.802l1.652-1.452l-2.453,0.05
	c-2.036,0.367-3.754,0.818-5.156,1.352c-1.668,0.667-3.354,1.635-5.056,2.904c0.567-1.035,1.519-2.253,2.854-3.654
	c1.235-1.269,2.503-2.42,3.805-3.455l1.251-1.251c0.5-0.701-0.184-0.768-2.053-0.2c-4.539,1.435-8.376,2.954-11.514,4.556
	c-5.974,3.037-10.513,6.658-13.617,10.863l-1.051-5.106c-0.133-1.035-0.367-1.368-0.701-1.001l-0.5,0.801l-2.253,5.307l-0.2-3.655
	c0-1.735,0.2-3.337,0.601-4.806l0.501-2.052c0-0.334-0.367-0.267-1.102,0.2c-1.535,0.968-2.736,2.252-3.604,3.854l-0.05-1.202
	l0.4-3.304c-0.467-0.267-0.984-0.1-1.552,0.5c-2.168,2.14-3.657,5.552-4.484,10.207c-3.038-1.759-7.009-3.26-11.935-4.499
	c-5.606-1.435-9.245-1.669-10.913-0.701c-0.601,0.367-0.901,0.868-0.901,1.502c0,1.368,1.251,4.138,3.754,8.31l5.256,8.11
	c-5.307,2.069-7.793,3.604-7.459,4.605c0.367,1.068,1.418,2.453,3.154,4.155l1.699,1.608c-3.63,3.16-5.454,5.397-5.454,6.701
	c0,1.202,0.768,2.704,2.303,4.506c-1.502,1.902-2.503,3.304-3.004,4.205c-1.384,2.445-2.093,4.985-2.143,7.616
	c-9.548,1.046-17.459,2.658-23.688,4.849c-4.238,1.502-8.744,3.754-13.516,6.758c-2.236,1.435-3.188,2.403-2.854,2.903
	c0.3,0.5,1.602,0.334,3.904-0.5c7.209-1.802,13.767-3.204,19.674-4.205c7.842-1.364,13.758-1.838,17.8-1.446
	c0.133,0.513,0.252,1.03,0.399,1.538c-4.78,1.223-8.931,3.074-12.442,5.564c-3.337,2.37-5.69,4.989-7.059,7.86
	c-0.734,1.502-0.935,2.285-0.601,2.354c0.234,0.033,1.185-0.385,2.854-1.252l4.405-2.402c3.271-1.902,5.774-3.237,7.509-4.005
	c2.879-1.287,5.359-1.989,7.451-2.124c0.14,0.339,0.261,0.684,0.408,1.021c-9.29,4.538-16.974,9.342-23.027,14.418
	c-4.939,4.172-8.21,7.977-9.812,11.414c-0.768,1.635-0.618,2.219,0.45,1.752l2.203-1.502c4.772-3.271,9.745-6.408,14.918-9.412
	c8.517-4.99,14.96-7.992,19.361-9.028c0.771,1.165,1.575,2.262,2.416,3.271c1.335,1.604,2.353,3.655,3.054,6.157
	c0.434,1.469,0.884,3.788,1.352,6.959l0.801,5.355c0.367,2.17,0.801,3.822,1.301,4.957c1.269,3.004,3.087,5.272,5.457,6.809
	c2.169,1.4,4.656,2.102,7.459,2.102l14.067,1.002c1.053,0.487,2.27,1.45,3.642,2.86l-0.188-0.007
	c-1.335-0.201-3.271-0.701-5.807-1.502c-2.903-0.901-5.356-0.534-7.359,1.102c-1.368,1.135-2.737,3.153-4.105,6.057
	c-1.335,2.871-2.002,5.291-2.002,7.26c-0.033,1.869,0.551,3.12,1.752,3.755c0.601,0.301,1.802-0.149,3.604-1.353
	c2.036-1.336,3.955-3.104,5.757-5.307c0.901,1.401,1.352,2.504,1.352,3.305l-0.551,1l-3.004,3.806
	c-1.401,1.937-2.319,3.639-2.753,5.106c-0.534,1.969-0.434,3.787,0.3,5.455c0.701,1.569,1.652,2.453,2.854,2.654
	c0.734,0.133,1.518,0,2.353-0.4c0.768-0.399,1.302-0.867,1.602-1.401l4.656-8.812c2.203,1.803,4.355,3.088,6.458,3.854
	c3.096,1.123,5.757,0.966,7.999-0.431c0.085,0.313,0.18,0.614,0.262,0.932c0.267,1.102,0.517,1.701,0.75,1.802
	c0.134,0.034,0.467-0.2,1.001-0.7c1.001-1.068,1.902-2.504,2.703-4.306c0.935,2.169,2.186,4.472,3.755,6.908
	c1.668,2.604,2.787,3.838,3.354,3.704c0.5-0.101,0.75-0.935,0.75-2.502c1.754,1.81,3.696,3.509,5.805,5.108
	c-1.817,0.482-4.163,1.328-7.057,2.55c-3.571,1.469-6.007,2.67-7.309,3.604c-0.801,0.565-1.502,1.969-2.103,4.205
	c-0.601,2.202-0.801,4.069-0.601,5.604c0.2,1.402,0.517,2.37,0.951,2.904l1.452,0.1c-0.434,3.539-0.25,5.941,0.551,7.209
	c0.868,1.402,2.119,1.902,3.754,1.502c1.068-0.268,2.103-0.951,3.104-2.053l2.353-3.004l1.602-2.354
	c0.634-0.9,1.301-1.534,2.002-1.901c2.469-1.233,4.271-2.019,5.406-2.353l-2.353,6.207c-0.868,2.369-1.218,4.039-1.051,5.006
	c0.233,1.234,0.634,2.053,1.201,2.453c0.701,0.5,1.835,0.602,3.404,0.301c3.504-0.668,6.157-2.203,7.959-4.605l2.353-3.904
	c0.734-1.401,1.218-2.17,1.452-2.303l0.751-0.201c4.873-1.4,8.477-2.72,10.813-3.955c1.272-0.696,2.207-1.396,2.812-2.092
	c4.22,0.688,8.6,1.098,13.158,1.191c4.129,0.063,8.297-0.273,12.502-0.993c-0.551,0.304-0.959,0.539-1.188,0.692
	c-2.169,1.436-3.821,3.203-4.956,5.307c-0.834,1.535-1.418,3.305-1.752,5.307c-0.367,2.236-0.301,4.006,0.2,5.308
	c0.501,1.269,1.168,1.901,2.003,1.901c0.634,0,1.301-0.316,2.002-0.951l3.054-3.254c0.968-1.135,1.753-1.885,2.353-2.252
	c-0.133,2.336,0.084,4.455,0.65,6.356c0.502,1.769,1.119,2.87,1.854,3.304c0.633,0.367,1.334,0.284,2.103-0.25l2.854-2.503
	l3.305-3.254l3.153-3.454c1.135-1.335,2.235-2.402,3.304-3.203c-0.467,2.135-0.518,4.254-0.15,6.357
	c0.334,2.168,0.937,3.37,1.803,3.604c1.535,0.4,3.472-0.701,5.808-3.304c2.069-2.271,4.306-5.522,6.709-9.762l2.152-1.151
	c3.104-1.669,6.124-3.453,9.061-5.355c3.237-2.069,5.341-3.655,6.308-4.756c1.938-2.104,2.57-4.256,1.902-6.459
	c-0.814-2.631-3.55-6.273-8.156-10.904c4.31-4.063,8.006-8.414,11.061-13.073c2.182-3.343,3.943-6.72,5.32-10.128
	c7.841-2.922,15.217-7.095,22.113-12.55c10.245-8.076,17.62-17.755,22.127-29.035C286.83,111.243,287.848,96.125,284.443,79.604z"/>
</svg>
