<?xml version="1.0" encoding="utf-8"?>
<!-- Generator: Adobe Illustrator 16.0.0, SVG Export Plug-In . SVG Version: 6.00 Build 0)  -->
<!DOCTYPE svg PUBLIC "-//W3C//DTD SVG 1.1//EN" "http://www.w3.org/Graphics/SVG/1.1/DTD/svg11.dtd">
<svg version="1.1" id="图层_1" xmlns="http://www.w3.org/2000/svg" xmlns:xlink="http://www.w3.org/1999/xlink" x="0px" y="0px"
	 width="193px" height="216px" viewBox="0 0 193 216" enable-background="new 0 0 193 216" xml:space="preserve">
<path d="M191.601,61.471c-0.2-0.266-1.114-0.166-2.744,0.3c-2.129,0.665-3.825,1.829-5.089,3.493
	c1.23-3.061,3.209-5.905,5.938-8.533c1.031-0.998,1.446-1.646,1.247-1.946l-2.595,0.05c-3.193,0.666-6.254,2.229-9.182,4.69
	c-3.093,2.628-5.621,5.904-7.584,9.83c0.166-1.796,0.615-3.559,1.348-5.289c1.63-3.825,0.632-4.324-2.994-1.497
	c-4.222,3.251-7.216,7.879-9.019,13.839c0.373-4.774,1.415-9.337,3.131-13.69c2.894-7.385,7.585-13.705,14.071-18.96
	c0.266-0.2,0.332-0.416,0.199-0.649l-0.499-0.499l-3.892-0.1c-0.965,0.167-2.029,0.632-3.193,1.397
	c0.798-2.495,1.93-5.023,3.393-7.584c1.064-1.796,2.711-4.292,4.939-7.485c0.799-1.131,1.115-1.83,0.948-2.095l-2.495,0.1
	c-5.721,1.264-10.411,4.973-14.07,11.127c0.299-2.195,0.932-4.274,1.896-6.237c0.665-1.463,0.848-2.278,0.549-2.445
	c-0.3-0.2-1.182,0.183-2.645,1.147c-6.354,4.025-11.443,8.715-15.269,14.071c-1.429,1.99-2.842,4.312-4.238,6.935
	c1.094-5.764,1.382-11.849,0.845-18.261c-0.598-6.853-2.012-13.239-4.24-19.16c-0.766-2.029-1.331-2.895-1.697-2.595
	c-0.199,0.166-0.416,0.981-0.648,2.445l-1.348,6.486c-0.166-8.648-2.91-15.052-8.232-19.21c-1.164-0.898-1.963-1.248-2.395-1.048
	c-0.467,0.2-0.416,0.998,0.148,2.395c0.998,3.027,1.564,5.638,1.697,7.834c0.166,2.361-0.084,5.405-0.748,9.131
	c-0.799-2.828-1.93-5.472-3.394-7.934c-1.53-2.528-2.562-3.726-3.094-3.593c-0.599,0.1-0.997,1.78-1.197,5.04
	c-0.632,9.779-1.431,16.698-2.396,20.757c-1.763,7.484-4.906,13.04-9.43,16.666c-1.069,0.853-2.089,1.548-3.063,2.098
	c4.795-7.138,5.518-15.986,2.164-26.547c-0.399-1.397-0.748-2.112-1.048-2.146c-0.333-0.066-0.698,0.565-1.098,1.896l-1.247,2.594
	c-0.133-4.391-0.6-7.817-1.397-10.279c-0.798-2.395-2.179-4.707-4.142-6.936c-0.832-0.931-1.463-1.38-1.896-1.347
	c-0.399,0.033-0.382,0.565,0.05,1.597c1.463,3.526,1.331,7.501-0.399,11.925c-0.898-1.331-2.096-2.461-3.593-3.393
	c-1.331-0.799-2.063-0.981-2.195-0.549c-0.066,0.233,0.149,1.082,0.648,2.545c0.898,2.528,1.064,4.957,0.499,7.285
	c-0.632,2.593-2.102,4.41-4.387,5.47c-12.632-6.839-22.286-6.648-28.943,0.618c-2.728,2.994-4.524,6.802-5.389,11.426
	c-0.741,3.884-0.697,7.569,0.121,11.057c-0.479-0.255-0.78-0.373-0.869-0.329c-0.166,0.133-0.017,0.815,0.449,2.046
	c1.697,4.191,2.728,7.251,3.094,9.181l-4.74-2.794c-2.162-1.264-3.842-2.129-5.04-2.595c-1.563-0.599-2.445-0.732-2.645-0.399
	c-0.133,0.166,0.017,0.731,0.449,1.696c0.765,1.563,2.012,3.31,3.742,5.239c1.23,1.364,1.979,2.894,2.245,4.59
	c0.45,2.757-1.023,5.324-4.406,7.701c0.167-1.461-0.011-2.764-0.534-3.909c-0.666-1.43-1.73-2.295-3.193-2.594
	c-2.362-0.532-3.027-2.844-1.996-6.936c1.064-4.291,1.563-7.934,1.497-10.927c-0.067-3.293-0.849-6.154-2.345-8.582
	c-0.666-1.064-1.148-1.613-1.447-1.646c-0.333-0.067-0.516,0.465-0.549,1.597c-0.133,3.958-1.048,7.501-2.744,10.628l0.25-4.491
	c0-3.958-0.599-7.302-1.796-10.029c-0.998-2.229-2.445-4.125-4.341-5.688c-1.131-0.932-1.846-1.314-2.146-1.148
	c-0.266,0.1-0.316,0.682-0.15,1.747c0.732,4.491,1.114,8.183,1.147,11.077c0.033,2.794-0.25,5.605-0.848,8.432
	c-0.432-5.156-1.996-8.815-4.69-10.977c-0.632-0.499-1.031-0.582-1.197-0.25c-0.133,0.2-0.233,0.948-0.299,2.245
	c-0.233,7.285-1.148,12.458-2.745,15.518c-1.53,3.061-5.139,6.719-10.827,10.977c-4.491,3.327-6.304,7.485-5.439,12.474
	c0.832,5.023,4.042,8.3,9.63,9.83c1.93,0.499,3.493,1.58,4.69,3.243c0.835,1.131,1.406,2.389,1.739,3.76
	c-0.255,0.59-0.552,1.216-0.891,1.878c-1.064,2.095-2.86,5.106-5.389,9.031c-3.393,5.289-4.291,10.429-2.694,15.418
	c1.63,5.189,5.405,8.034,11.327,8.533c5.056,0.398,9.414,0.998,13.073,1.796c2.877,0.64,4.79,1.279,5.737,1.919
	c-0.038,5.373,1.383,10.358,4.292,14.946c3.126,4.89,7.617,8.948,13.472,12.175c7.685,4.218,16.159,6.495,25.413,6.856
	c-0.105,0.093-0.212,0.18-0.315,0.278c-0.255,0.24-0.484,0.492-0.702,0.751c-3.368,0.557-5.012,2.324-4.887,5.337
	c0.123,2.939,1.701,4.666,4.7,5.21c0.281,0.371,0.587,0.732,0.938,1.077c1.329,1.301,2.793,2.063,4.387,2.304
	c0.138,0.78,0.09,1.681-0.196,2.735c-1.197,4.69-0.732,8.15,1.397,10.379c2.096,2.229,4.99,2.395,8.682,0.498
	c4.591-2.395,8.133-3.542,10.628-3.442c2.495,0.067,5.39,1.397,8.683,3.991c6.453,5.09,11.559,6.92,15.318,5.489
	c3.658-1.431,5.571-5.655,5.737-12.674c0.101-4.124,1.132-7.584,3.094-10.378c2.661-3.793,6.72-5.756,12.175-5.889
	c5.488-0.166,8.898-1.746,10.229-4.74c1.364-3.127,0.033-7.168-3.991-12.125c-2.063-2.527-2.761-4.989-2.096-7.384
	c0.3-1.099,1.131-2.462,2.495-4.092c2.195-2.595,2.428-5.022,0.698-7.284c-1.829-2.396-5.007-3.012-9.53-1.847l-5.988,1.397
	l-3.472-0.131c2.546-5.207,4.041-10.584,4.47-16.136c0.037-0.468,0.05-0.926,0.071-1.388c1.476-2.964,3.528-5.366,6.166-7.195
	c2.961-2.096,6.37-3.209,10.229-3.342c8.116-0.334,13.754-2.496,16.914-6.487c3.094-3.925,4.508-10.512,4.242-19.759
	c-0.2-7.352,0.282-13.023,1.446-17.015c1.265-4.424,3.843-8.732,7.734-12.923C191.219,62.702,191.801,61.804,191.601,61.471z"/>
</svg>
