<?xml version="1.0" encoding="utf-8"?>
<!-- Generator: Adobe Illustrator 16.0.0, SVG Export Plug-In . SVG Version: 6.00 Build 0)  -->
<!DOCTYPE svg PUBLIC "-//W3C//DTD SVG 1.1//EN" "http://www.w3.org/Graphics/SVG/1.1/DTD/svg11.dtd">
<svg version="1.1" id="图层_1" xmlns="http://www.w3.org/2000/svg" xmlns:xlink="http://www.w3.org/1999/xlink" x="0px" y="0px"
	 width="139px" height="177px" viewBox="0 0 139 177" enable-background="new 0 0 139 177" xml:space="preserve">
<path d="M131.901,53.943C127.477,43.364,121.206,34,113.089,25.849c-8.15-8.15-17.516-14.455-28.095-18.912
	C74.049,2.312,62.522,0,50.413,0c-3.027,0-5.572,0.898-7.635,2.695c-2.262,1.962-3.393,4.641-3.393,8.034l0.195,29.055
	c-10.592,1.979-19.61,7.24-27.042,15.806C4.32,65.071,0.212,76.017,0.212,88.425c0,14.538,4.924,26.597,14.771,36.178
	c9.614,9.314,21.391,13.973,35.33,13.973c14.039,0,25.849-4.725,35.429-14.172c9.682-9.548,14.555-21.524,14.621-35.929
	c0.067-12.542-4.008-23.487-12.225-32.835c-7.388-8.447-16.477-13.715-27.253-15.824l-0.2-17.289
	c16.168,2.478,29.614,9.882,40.327,22.234c10.878,12.542,16.317,27.096,16.317,43.664c0,18.596-6.52,34.399-19.561,47.407
	c-13.008,13.04-28.81,19.561-47.407,19.561c-3.526,0-6.321,1.131-8.383,3.394c-1.896,2.029-2.844,4.508-2.844,7.435
	c0,2.895,0.931,5.356,2.794,7.386c2.063,2.263,4.857,3.394,8.383,3.394c12.242,0,23.853-2.279,34.832-6.836
	c10.611-4.393,19.96-10.646,28.044-18.764c8.117-8.084,14.372-17.449,18.763-28.094c4.559-10.979,6.837-22.59,6.837-34.832
	C138.788,76.432,136.492,64.922,131.901,53.943z"/>
</svg>
