<?xml version="1.0" encoding="utf-8"?>
<!-- Generator: Adobe Illustrator 16.0.0, SVG Export Plug-In . SVG Version: 6.00 Build 0)  -->
<!DOCTYPE svg PUBLIC "-//W3C//DTD SVG 1.1//EN" "http://www.w3.org/Graphics/SVG/1.1/DTD/svg11.dtd">
<svg version="1.1" id="图层_1" xmlns="http://www.w3.org/2000/svg" xmlns:xlink="http://www.w3.org/1999/xlink" x="0px" y="0px"
	 width="97px" height="194px" viewBox="0 0 97 194" enable-background="new 0 0 97 194" xml:space="preserve">
<path d="M84.762,114.168c-7.051-8.093-15.445-13.075-25.176-14.959V50.402l-0.35-38.99c-0.101-3.604-1.268-6.457-3.504-8.559
	C53.697,0.951,51.262,0,48.425,0c-2.87,0-5.305,0.951-7.308,2.853c-2.235,2.102-3.37,4.955-3.403,8.559
	c-0.133,10.377-0.217,24.842-0.25,43.395c0,17.231,0.048,32.044,0.145,44.451c-10.258,2.04-18.867,7.107-25.821,15.21
	C4.046,123.41,0.175,133.889,0.175,145.9c0,13.314,4.655,24.643,13.964,33.984C23.482,189.295,34.928,194,48.475,194
	c13.213,0,24.576-4.705,34.085-14.115c9.51-9.442,14.264-20.754,14.264-33.934C96.824,133.972,92.805,123.377,84.762,114.168z"/>
</svg>
