<?xml version="1.0" encoding="utf-8"?>
<!-- Generator: Adobe Illustrator 16.0.0, SVG Export Plug-In . SVG Version: 6.00 Build 0)  -->
<!DOCTYPE svg PUBLIC "-//W3C//DTD SVG 1.1//EN" "http://www.w3.org/Graphics/SVG/1.1/DTD/svg11.dtd">
<svg version="1.1" id="图层_1" xmlns="http://www.w3.org/2000/svg" xmlns:xlink="http://www.w3.org/1999/xlink" x="0px" y="0px"
	 width="166px" height="160px" viewBox="0 0 166 160" enable-background="new 0 0 166 160" xml:space="preserve">
<path d="M162.352,35.833c-2.029-1.997-4.559-3.044-7.586-3.145c-3.027-0.066-5.606,0.815-7.736,2.646
	c-2.361,2.029-3.56,4.808-3.593,8.334c-0.1,7.686-2.096,14.789-5.989,21.31c-3.642,6.07-8.554,11.023-14.711,14.884
	c-3.452-4.829-7.691-8.88-12.736-12.139c-5.01-3.246-10.353-5.407-16.021-6.512V10.48c0-3.294-1.147-5.906-3.444-7.835
	C88.473,0.882,85.944,0,82.95,0c-2.995,0-5.54,0.882-7.636,2.645c-2.296,1.93-3.443,4.542-3.443,7.835v50.748
	c-5.668,1.112-10.978,3.218-15.92,6.345c-5.28,3.336-9.647,7.534-13.106,12.59c-6.159-3.839-11.031-8.826-14.592-14.985
	c-3.759-6.488-5.689-13.608-5.789-21.36c-0.033-3.527-1.231-6.305-3.593-8.334c-2.096-1.83-4.641-2.728-7.636-2.695
	c-2.994,0.033-5.523,0.981-7.585,2.845c-2.296,2.096-3.444,4.891-3.444,8.384c0.067,11.079,3.178,21.709,9.333,31.89
	c6.212,10.233,14.444,18.14,24.671,23.748c-1.402,6.335-1.498,12.792-0.267,19.372c1.397,7.419,4.309,14.223,8.734,20.411
	c4.558,6.288,10.197,11.229,16.918,14.822C66.747,158.087,74.533,160,82.95,160c8.085,0,15.671-1.797,22.757-5.39
	c6.721-3.427,12.395-8.185,17.019-14.273c4.591-6.056,7.636-12.776,9.133-20.162c1.429-6.939,1.341-13.863-0.241-20.775
	c10.028-5.495,18.068-12.838,24.097-22.044c6.421-9.848,9.748-20.678,9.981-32.489C165.762,41.106,164.646,38.095,162.352,35.833z"
	/>
</svg>
