<?xml version="1.0" encoding="utf-8"?>
<!-- Generator: Adobe Illustrator 16.0.0, SVG Export Plug-In . SVG Version: 6.00 Build 0)  -->
<!DOCTYPE svg PUBLIC "-//W3C//DTD SVG 1.1//EN" "http://www.w3.org/Graphics/SVG/1.1/DTD/svg11.dtd">
<svg version="1.1" id="图层_1" xmlns="http://www.w3.org/2000/svg" xmlns:xlink="http://www.w3.org/1999/xlink" x="0px" y="0px"
	 width="100px" height="192px" viewBox="0 0 100 192" enable-background="new 0 0 100 192" xml:space="preserve">
<path d="M91.181,146.847l-7.347-31.785c4.75-4.186,8.506-9.062,11.233-14.652C98.355,93.732,100,86.441,100,78.536
	c0-11.626-3.67-22.056-11.012-31.291c-6.479-8.186-14.396-13.599-23.747-16.243c-1.21-6.771-2.808-14.124-4.803-22.073
	c-0.665-2.625-1.993-4.717-3.985-6.278C54.592,1.19,52.5,0.426,50.174,0.359c-2.392-0.066-4.501,0.598-6.328,1.993
	c-2.06,1.561-3.438,3.787-4.136,6.677l-4.833,22.035c-9.695,2.801-17.752,8.241-24.165,16.331C3.571,56.43,0,66.777,0,78.436
	c0,7.806,1.644,15.047,4.933,21.724c2.779,5.642,6.625,10.611,11.501,14.931c-4.909,24.285-9.506,45.104-13.793,62.448
	c-0.83,3.389-0.382,6.328,1.345,8.819c1.595,2.226,3.837,3.653,6.727,4.285c2.923,0.598,5.564,0.199,7.922-1.196
	c2.69-1.527,4.368-4.02,5.032-7.474c1.747-9.367,3.134-16.566,4.164-21.612c2.844,2.771,6.169,4.932,9.987,6.465
	c3.953,1.596,8.055,2.393,12.307,2.393c4.219,0,8.354-0.848,12.407-2.541c3.748-1.58,7.013-3.73,9.808-6.437l4.393,21.832
	c0.665,3.255,2.275,5.63,4.833,7.125c2.325,1.362,4.916,1.777,7.773,1.246c2.822-0.565,5.049-1.927,6.676-4.086
	c1.794-2.425,2.359-5.348,1.694-8.769C96.246,170.082,94.07,159.834,91.181,146.847z M62.88,133.294
	c0,4.053-1.212,7.491-3.638,10.313c-2.457,2.824-5.514,4.236-9.167,4.236c-3.621,0-6.71-1.412-9.268-4.236
	c-2.524-2.822-3.787-6.261-3.787-10.313c0-4.052,1.262-7.49,3.787-10.313c2.524-2.824,5.614-4.235,9.268-4.235
	s6.71,1.411,9.167,4.235C61.668,125.771,62.88,129.209,62.88,133.294z"/>
</svg>
