<?xml version="1.0" encoding="utf-8"?>
<!-- Generator: Adobe Illustrator 16.0.0, SVG Export Plug-In . SVG Version: 6.00 Build 0)  -->
<!DOCTYPE svg PUBLIC "-//W3C//DTD SVG 1.1//EN" "http://www.w3.org/Graphics/SVG/1.1/DTD/svg11.dtd">
<svg version="1.1" id="图层_1" xmlns="http://www.w3.org/2000/svg" xmlns:xlink="http://www.w3.org/1999/xlink" x="0px" y="0px"
	 width="115px" height="163px" viewBox="0 0 115 163" enable-background="new 0 0 115 163" xml:space="preserve">
<path d="M111.101,95.662c-4.517-4.776-10.775-10.927-18.748-18.431c4.884-7.237,7.657-15.129,8.308-23.681
	c0.699-9.025-0.999-17.667-5.096-25.926c-4.129-8.259-10.023-14.853-17.684-19.782C69.723,2.614,60.58,0,50.457,0
	C36.569,0,24.764,4.729,15.039,14.187C5.048,23.845,0.053,35.867,0.053,50.254l0.1,101.706c0,3.497,1.132,6.261,3.397,8.292
	C5.548,162.084,8.012,163,10.943,163s5.412-0.916,7.443-2.748c2.231-2.031,3.347-4.795,3.347-8.292l-0.196-60.892
	c3.439,2.664,7.317,4.795,11.635,6.393c5.495,2.031,11.256,3.047,17.284,3.047c5.329,0,10.64-0.916,15.935-2.748
	c4.023-1.419,7.692-3.262,11.017-5.519l9.266,9.266l8.791,9.191c2.432,2.53,5.195,3.78,8.293,3.747c2.83,0,5.312-0.982,7.443-2.947
	c2.164-1.999,3.33-4.38,3.496-7.145C114.863,101.257,113.665,98.359,111.101,95.662z"/>
</svg>
