<?xml version="1.0" encoding="utf-8"?>
<!-- Generator: Adobe Illustrator 16.0.0, SVG Export Plug-In . SVG Version: 6.00 Build 0)  -->
<!DOCTYPE svg PUBLIC "-//W3C//DTD SVG 1.1//EN" "http://www.w3.org/Graphics/SVG/1.1/DTD/svg11.dtd">
<svg version="1.1" id="图层_1" xmlns="http://www.w3.org/2000/svg" xmlns:xlink="http://www.w3.org/1999/xlink" x="0px" y="0px"
	 width="101px" height="195px" viewBox="0 0 101 195" enable-background="new 0 0 101 195" xml:space="preserve">
<path d="M89.32,65.417c-7.429-9.062-16.811-14.673-28.136-16.85c0.252-12.642,0.315-25.143,0.185-37.498
	c-0.033-3.506-1.168-6.278-3.406-8.315C55.96,0.918,53.521,0,50.65,0c-2.905,0-5.376,0.918-7.414,2.755
	c-2.271,2.037-3.456,4.809-3.556,8.315c-0.262,8.42-0.202,20.917,0.179,37.47c-10.944,2.037-20.141,7.388-27.578,16.076
	C4.2,74.033,0.16,84.969,0.16,97.425c0,12.355,4.124,23.292,12.372,32.81c7.532,8.621,16.673,13.956,27.412,16.027
	c0.216,11.392,0.146,23.941-0.213,37.668c-0.066,3.473,1.019,6.245,3.256,8.315c2.037,1.837,4.559,2.755,7.564,2.755
	c2.971,0,5.493-0.918,7.563-2.755c2.271-2.037,3.39-4.792,3.356-8.265l-0.251-18.734c-0.124-8.182-0.131-14.47-0.022-18.914
	c10.868-1.962,20.029-7.27,27.472-15.948c8.115-9.45,12.172-20.437,12.172-32.959C100.84,85.437,97,74.768,89.32,65.417z"/>
</svg>
