<?xml version="1.0" encoding="utf-8"?>
<!-- Generator: Adobe Illustrator 16.0.0, SVG Export Plug-In . SVG Version: 6.00 Build 0)  -->
<!DOCTYPE svg PUBLIC "-//W3C//DTD SVG 1.1//EN" "http://www.w3.org/Graphics/SVG/1.1/DTD/svg11.dtd">
<svg version="1.1" id="图层_1" xmlns="http://www.w3.org/2000/svg" xmlns:xlink="http://www.w3.org/1999/xlink" x="0px" y="0px"
	 width="118px" height="181px" viewBox="0 0 118 181" enable-background="new 0 0 118 181" xml:space="preserve">
<path d="M117.851,11.002c-0.066-2.822-1.112-5.247-3.138-7.272c-2.06-2.026-4.467-3.088-7.223-3.188
	c-3.088-0.1-5.911,1.096-8.469,3.586c-4.031,3.904-8.284,8.25-12.748,13.017c-3.361-2.325-7.062-4.178-11.11-5.545
	c-5.048-1.727-10.277-2.59-15.69-2.59c-13.449,0-25.038,4.566-34.768,13.698C14.445,32.305,9.298,44.409,9.265,59.02
	c-0.033,13.15,4.001,24.324,12.104,33.521c7.3,8.271,16.458,13.323,27.461,15.183c0.344,13.947,0.274,26.508-0.215,37.667
	c-0.199,3.885-1.527,7.105-3.985,9.662c-2.523,2.657-5.662,3.985-9.414,3.985c-3.786,0-6.973-1.328-9.563-3.985
	c-2.557-2.623-3.835-5.86-3.835-9.713c0-3.42-1.146-6.143-3.437-8.168c-2.059-1.826-4.566-2.74-7.521-2.74
	c-2.956-0.033-5.462,0.863-7.521,2.689c-2.258,2.026-3.37,4.749-3.337,8.17c0.1,10.127,3.453,18.479,10.062,25.054
	c6.608,6.642,14.993,9.962,25.154,9.962c10.062,0,18.347-3.221,24.855-9.663c6.542-6.509,9.879-14.909,10.012-25.204
	c0.227-14.442,0.199-27.039-0.08-37.819c10.899-2.116,19.962-7.152,27.178-15.128c8.201-9.099,12.303-20.223,12.303-33.373
	c0-5.446-0.83-10.659-2.49-15.641c-1.381-4.116-3.302-7.918-5.745-11.418l12.868-12.391
	C116.672,16.98,117.917,14.091,117.851,11.002z"/>
</svg>
