<?xml version="1.0" encoding="utf-8"?>
<!-- Generator: Adobe Illustrator 16.0.0, SVG Export Plug-In . SVG Version: 6.00 Build 0)  -->
<!DOCTYPE svg PUBLIC "-//W3C//DTD SVG 1.1//EN" "http://www.w3.org/Graphics/SVG/1.1/DTD/svg11.dtd">
<svg version="1.1" id="图层_1" xmlns="http://www.w3.org/2000/svg" xmlns:xlink="http://www.w3.org/1999/xlink" x="0px" y="0px"
	 width="174px" height="138px" viewBox="0 0 174 138" enable-background="new 0 0 174 138" xml:space="preserve">
<path d="M169.113,58.477c-3.138-8.991-7.703-17.252-13.672-24.796c2.945-2.562,5.922-5.375,8.934-8.467
	c2.561-2.626,3.79-5.486,3.69-8.578c-0.1-2.792-1.196-5.203-3.292-7.231c-2.094-2.028-4.537-3.076-7.33-3.142
	c-3.059-0.1-5.852,1.114-8.379,3.641l-8.576,9.027c-7.603-6-15.845-10.596-24.738-13.765c-9.209-3.292-18.734-4.937-28.576-4.937
	c-9.841,0-19.399,1.646-28.676,4.937c-8.921,3.156-17.166,7.714-24.746,13.648l-3.381-3.674l-5.336-5.236
	c-2.494-2.427-5.236-3.574-8.229-3.441c-2.727,0.1-5.087,1.18-7.082,3.241c-2.028,2.062-3.092,4.456-3.191,7.182
	c-0.1,3.059,1.064,5.852,3.491,8.378c3.05,3.213,5.982,6.073,8.809,8.617C12.865,41.49,8.258,49.701,5.037,58.527
	C1.679,67.836,0,77.395,0,87.203c0,7.713,1.064,15.359,3.192,22.94c2.094,7.48,5.12,14.563,9.076,21.245
	c1.762,2.926,4.14,4.721,7.132,5.387c2.726,0.631,5.353,0.232,7.879-1.197c2.527-1.396,4.189-3.392,4.987-5.984
	c0.864-2.926,0.349-5.969-1.546-9.127c-3.292-5.553-5.652-11.055-7.082-16.508c-1.296-5.02-1.945-10.622-1.945-16.807
	c0-16.258,5.32-30.554,15.959-42.888c10.442-12.139,23.501-19.43,39.165-21.897l-0.066,6.487l-0.229,9.641
	c-10.477,1.777-19.48,6.918-27.001,15.444c-8.345,9.476-12.518,20.563-12.518,33.264c0,14.629,4.904,26.73,14.712,36.306
	c9.575,9.31,21.378,13.964,35.408,13.964c14.097,0,25.933-4.721,35.508-14.163c9.742-9.575,14.596-21.61,14.563-36.106
	c0-12.368-4.006-23.257-12.02-32.666c-7.461-8.751-16.601-14.092-27.408-16.037c-0.155-3.97-0.244-9.334-0.265-16.139
	c15.677,2.462,28.744,9.755,39.193,21.902c10.64,12.334,15.959,26.63,15.959,42.888c0,11.804-3.042,22.858-9.126,33.165
	c-1.862,3.191-2.344,6.251-1.447,9.177c0.799,2.626,2.511,4.671,5.137,6.134c2.561,1.429,5.188,1.828,7.881,1.196
	c2.992-0.664,5.318-2.477,6.981-5.436C170.027,117.191,174,102.463,174,87.203C174,77.295,172.371,67.72,169.113,58.477z"/>
</svg>
