<?xml version="1.0" encoding="utf-8"?>
<!-- Generator: Adobe Illustrator 16.0.0, SVG Export Plug-In . SVG Version: 6.00 Build 0)  -->
<!DOCTYPE svg PUBLIC "-//W3C//DTD SVG 1.1//EN" "http://www.w3.org/Graphics/SVG/1.1/DTD/svg11.dtd">
<svg version="1.1" id="图层_1" xmlns="http://www.w3.org/2000/svg" xmlns:xlink="http://www.w3.org/1999/xlink" x="0px" y="0px"
	 width="97px" height="196px" viewBox="0 0 97 196" enable-background="new 0 0 97 196" xml:space="preserve">
<path d="M58.947,98.597L58.8,95.242c9.557-1.835,17.917-6.531,25.073-14.106c8.561-9.026,12.857-19.968,12.891-32.825
	c0.033-15.155-5.43-27.429-16.389-36.822C69.484,2.063,56.527-1.584,41.505,0.547c-3.464,0.5-6.045,1.999-7.744,4.497
	c-1.532,2.298-2.098,4.913-1.699,7.844c0.433,2.931,1.715,5.296,3.847,7.094c2.398,2.032,5.346,2.848,8.843,2.448
	c9.126-0.999,16.604,1.349,22.433,7.045c5.296,5.129,7.944,11.424,7.944,18.885c0,7.328-2.599,13.606-7.794,18.835
	c-5.196,5.229-11.541,7.844-19.036,7.844c-2.998,0-5.513,0.933-7.544,2.798c-2.165,1.999-3.248,4.63-3.248,7.894l0.142,13.046
	c-10.035,2.15-18.528,7.124-25.473,14.933c-7.994,8.993-11.991,19.519-11.991,31.576c0,13.39,4.463,24.681,13.39,33.873
	c9.193,9.46,20.801,14.174,34.823,14.14c13.889,0,25.448-4.713,34.674-14.14c9.025-9.226,13.539-20.518,13.539-33.873
	c0-12.024-4.03-22.616-12.091-31.775C77.422,105.45,68.896,100.479,58.947,98.597z"/>
</svg>
