<?xml version="1.0" encoding="utf-8"?>
<!-- Generator: Adobe Illustrator 16.0.0, SVG Export Plug-In . SVG Version: 6.00 Build 0)  -->
<!DOCTYPE svg PUBLIC "-//W3C//DTD SVG 1.1//EN" "http://www.w3.org/Graphics/SVG/1.1/DTD/svg11.dtd">
<svg version="1.1" id="图层_1" xmlns="http://www.w3.org/2000/svg" xmlns:xlink="http://www.w3.org/1999/xlink" x="0px" y="0px"
	 width="172px" height="161px" viewBox="0 0 172 161" enable-background="new 0 0 172 161" xml:space="preserve">
<path d="M168.598,3.405c-1.801-1.968-4.152-3.035-7.054-3.202c-2.901-0.167-5.47,0.583-7.704,2.251
	c-2.436,1.868-3.836,4.469-4.203,7.805c-1.133,10.506-2.801,29.25-5.002,56.233c-1.932,23.734-3.234,41.059-3.907,51.979
	l-12.414-12.37c5.345-8.555,7.74-18.27,7.165-29.153c-0.7-12.741-5.436-23.497-14.208-32.269
	c-9.238-9.239-20.396-14.108-33.47-14.608c-11.42-0.424-21.446,2.479-30.088,8.686L29.667,10.81
	c-3.202-3.202-6.921-4.103-11.157-2.702c-4.302,1.468-6.637,4.603-7.004,9.406L6.054,79.8L0.05,148.39
	c-0.267,3.569,0.617,6.47,2.651,8.705c1.834,1.968,4.203,3.052,7.104,3.252c2.902,0.2,5.454-0.55,7.655-2.251
	c2.401-1.868,3.786-4.486,4.152-7.855c1.701-16.109,3.535-35.82,5.503-59.134c1.808-21.67,3.004-38.022,3.588-49.057l12.325,12.146
	c-5.732,8.956-8.259,18.856-7.558,29.707c0.834,12.307,5.687,22.913,14.559,31.818c9.305,9.305,20.362,14.225,33.169,14.758
	c11.368,0.488,21.521-2.503,30.466-8.95l27.718,28.062c3.168,3.169,6.92,4.103,11.256,2.803c4.47-1.335,6.904-4.47,7.305-9.406
	l4.953-59.835c3.002-35.554,5.086-59.268,6.254-71.141C171.483,8.475,170.633,5.606,168.598,3.405z"/>
</svg>
