<?xml version="1.0" encoding="utf-8"?>
<!-- Generator: Adobe Illustrator 16.0.0, SVG Export Plug-In . SVG Version: 6.00 Build 0)  -->
<!DOCTYPE svg PUBLIC "-//W3C//DTD SVG 1.1//EN" "http://www.w3.org/Graphics/SVG/1.1/DTD/svg11.dtd">
<svg version="1.1" id="图层_1" xmlns="http://www.w3.org/2000/svg" xmlns:xlink="http://www.w3.org/1999/xlink" x="0px" y="0px"
	 width="151px" height="179px" viewBox="0 0 151 179" enable-background="new 0 0 151 179" xml:space="preserve">
<path d="M148.93,7.548c-1.199-2.699-3.066-4.599-5.599-5.698c-2.8-1.233-5.798-1.15-8.997,0.25
	c-3.232,1.433-6.915,3.449-11.047,6.048c-3.584,2.236-6.983,4.61-10.219,7.107c-5.498-4.814-12.597-8.556-21.322-11.206
	C82.947,1.35,73.25,0,62.653,0c-17.928,0-32.69,3.449-44.288,10.347C6.369,17.512,0.288,26.992,0.121,38.789
	C-0.012,50.252,3.02,60.767,9.218,70.33c5.667,8.759,12.985,15.255,21.919,19.532c-5.318,3.893-9.65,9.02-12.971,15.408
	c-3.833,7.364-5.749,15.196-5.749,23.493c0,14.297,5.015,26.31,15.046,36.04C37.194,174.268,48.907,179,62.604,179
	c14.363,0,26.326-4.832,35.891-14.496c9.496-9.598,14.246-21.527,14.246-35.79c0-8.064-1.917-15.729-5.749-22.993
	c-3.292-6.296-7.653-11.563-13.073-15.806c12.65-6.588,21.646-16.16,26.969-28.731c4.354-10.33,5.482-19.786,3.408-28.374
	c2.18-1.598,4.858-3.354,8.039-5.267c4.199-2.5,7.781-4.399,10.747-5.699c3.199-1.399,5.298-3.549,6.298-6.448
	C150.246,12.83,150.096,10.214,148.93,7.548z M32.012,27.442c8.031-3.966,18.228-5.948,30.591-5.948s22.544,1.982,30.541,5.948
	c7.031,3.466,10.547,7.248,10.547,11.347c0,10.897-3.848,19.861-11.546,26.893c-7.698,6.998-17.562,10.497-29.592,10.497
	c-11.997,0-21.844-3.499-29.542-10.497c-7.731-7.031-11.597-15.979-11.597-26.842C21.415,34.74,24.947,30.941,32.012,27.442z"/>
</svg>
