<?xml version="1.0" encoding="utf-8"?>
<!-- Generator: Adobe Illustrator 16.0.0, SVG Export Plug-In . SVG Version: 6.00 Build 0)  -->
<!DOCTYPE svg PUBLIC "-//W3C//DTD SVG 1.1//EN" "http://www.w3.org/Graphics/SVG/1.1/DTD/svg11.dtd">
<svg version="1.1" id="图层_1" xmlns="http://www.w3.org/2000/svg" xmlns:xlink="http://www.w3.org/1999/xlink" x="0px" y="0px"
	 width="150px" height="172px" viewBox="0 0 150 172" enable-background="new 0 0 150 172" xml:space="preserve">
<path d="M123.615,96.939c4.001,0.079,8.946,0.042,14.862-0.115c3.524-0.133,6.335-1.297,8.431-3.491
	c1.861-2.028,2.793-4.456,2.793-7.283c-0.033-2.827-0.98-5.238-2.844-7.233c-2.095-2.195-4.904-3.342-8.43-3.442
	c-3.649-0.096-8.591-0.067-14.797,0.083c-1.776-9.63-6.383-18.041-13.837-25.225c-7.373-7.104-15.872-11.456-25.487-13.076
	C84.278,26.729,88.626,21.5,97.373,21.5l30.928,0.149c3.492,0,6.27-1.13,8.331-3.392c1.829-2.029,2.761-4.506,2.794-7.433
	c0-2.926-0.932-5.404-2.794-7.433C134.604,1.131,131.843,0,128.352,0L97.423,0.149c-9.977,0-18.241,3.592-24.792,10.775
	c-6.527,7.144-9.636,16.052-9.345,26.716c-9.306,1.993-17.4,6.436-24.276,13.341c-7.071,7.041-11.346,15.187-12.843,24.43
	c-6.963-0.118-11.843-0.114-14.593,0.014c-3.525,0.133-6.335,1.33-8.43,3.591c-1.896,2.029-2.843,4.457-2.843,7.283
	c0,2.86,0.931,5.271,2.793,7.233c2.062,2.195,4.855,3.325,8.38,3.393c5.703,0.125,10.612,0.071,14.75-0.158
	c1.604,9.205,5.845,17.374,12.736,24.501c6.921,7.129,14.91,11.54,23.962,13.249c0.182,11.055,3.428,20.045,9.759,26.958
	C79.099,168.492,87.379,172,97.522,172h30.829c3.524,0,6.318-1.131,8.38-3.393c1.862-2.028,2.794-4.489,2.794-7.383
	c0-2.926-0.932-5.404-2.794-7.432c-2.062-2.262-4.839-3.393-8.331-3.393l-30.978,0.1c-4.058,0-7.25-1.43-9.577-4.29
	c-2.179-2.747-3.31-6.509-3.421-11.264c9.867-1.656,18.425-5.994,25.669-13.03C117.337,114.88,121.84,106.552,123.615,96.939z"/>
</svg>
