<?xml version="1.0" encoding="utf-8"?>
<!-- Generator: Adobe Illustrator 16.0.0, SVG Export Plug-In . SVG Version: 6.00 Build 0)  -->
<!DOCTYPE svg PUBLIC "-//W3C//DTD SVG 1.1//EN" "http://www.w3.org/Graphics/SVG/1.1/DTD/svg11.dtd">
<svg version="1.1" id="图层_1" xmlns="http://www.w3.org/2000/svg" xmlns:xlink="http://www.w3.org/1999/xlink" x="0px" y="0px"
	 width="177px" height="199px" viewBox="0 0 177 199" enable-background="new 0 0 177 199" xml:space="preserve">
<path d="M169.775,53.75c-4.4-10.566-10.65-19.9-18.75-28c-8.134-8.133-17.5-14.417-28.101-18.85c-11-4.6-22.6-6.9-34.8-6.9
	c-11.467,0-22.533,2.184-33.2,6.55c-10.5,4.267-19.833,10.333-28,18.2c-8.333,8-14.8,17.267-19.4,27.8
	c-4.833,11.1-7.283,22.9-7.35,35.4c-0.133,22.899,7.133,42.55,21.8,58.95c14.55,16.229,33.091,25.585,55.606,28.095
	c-0.19,4.295-0.213,8.58-0.057,12.854c0.133,3.533,1.317,6.334,3.55,8.4c2,1.834,4.417,2.75,7.25,2.75c2.833,0,5.233-0.934,7.2-2.8
	c2.166-2.067,3.266-4.833,3.3-8.3L98.725,165.1c0-3.232-1.033-5.866-3.1-7.899c-2-1.934-4.5-2.9-7.5-2.9
	c-11.967,0-23.083-2.966-33.35-8.899c-9.933-5.801-17.867-13.667-23.8-23.601c-6.767-11.3-9.917-23.483-9.45-36.55
	c0.491-13.384,4.766-25.561,12.807-36.536c3.105,3.347,7.036,7.44,11.807,12.292c-5.476,8.354-8.214,17.335-8.214,26.943
	c0,14.134,4.934,26.033,14.8,35.7c9.733,9.6,21.55,14.399,35.45,14.399c12.333,0,23.167-4.033,32.5-12.1
	c8.56-7.381,13.938-16.495,16.158-27.333l14.242,0.433l14.399,0.05c3.334-0.133,6.033-1.25,8.101-3.35
	c2.033-2.067,3.05-4.65,3.05-7.75C176.625,76.033,174.342,64.617,169.775,53.75z M128.325,58c-4.767-6.434-10.934-11.517-18.5-15.25
	c-7.233-3.566-15.267-5.117-24.1-4.65c-9.004,0.438-17.15,3.032-24.436,7.778c-3.513-3.831-7.553-7.783-12.123-11.856
	c10.363-7.169,21.515-11.266,33.459-12.271c11.233-0.934,21.934,0.883,32.1,5.45c10.234,4.566,18.768,11.3,25.601,20.2
	c6.745,8.776,11.146,18.831,13.227,30.148l-16.688-0.238C135.405,70.154,132.562,63.716,128.325,58z"/>
</svg>
