<?xml version="1.0" encoding="utf-8"?>
<!-- Generator: Adobe Illustrator 16.0.0, SVG Export Plug-In . SVG Version: 6.00 Build 0)  -->
<!DOCTYPE svg PUBLIC "-//W3C//DTD SVG 1.1//EN" "http://www.w3.org/Graphics/SVG/1.1/DTD/svg11.dtd">
<svg version="1.1" id="图层_1" xmlns="http://www.w3.org/2000/svg" xmlns:xlink="http://www.w3.org/1999/xlink" x="0px" y="0px"
	 width="109px" height="172px" viewBox="0 0 109 172" enable-background="new 0 0 109 172" xml:space="preserve">
<path d="M93.807,22.954C84.012,13.392,72.233,8.61,58.473,8.61c-10.021,0-19.032,2.714-27.042,8.123l-12.69-13.07
	c-2.465-2.465-5.231-3.632-8.296-3.499c-2.732,0.133-5.131,1.25-7.197,3.349C1.183,5.579,0.1,8.011,0,10.81
	c-0.167,3.065,0.983,5.847,3.448,8.346l12.825,12.635c-2.345,3.335-4.192,7.066-5.528,11.204
	c-1.633,4.964-2.449,10.212-2.449,15.743l-0.05,101.704c0,3.531,1.116,6.33,3.349,8.396c2.032,1.866,4.515,2.799,7.446,2.799
	c2.899,0,5.364-0.933,7.396-2.799c2.232-2.065,3.349-4.864,3.349-8.396l-0.197-61.019c3.583,2.646,7.479,4.778,11.691,6.394
	c5.564,2.132,11.295,3.197,17.192,3.197c13.827,0,25.589-4.664,35.284-13.993c9.995-9.662,14.993-21.74,14.993-36.233
	C108.75,44.627,103.77,32.683,93.807,22.954z"/>
</svg>
