<?xml version="1.0" encoding="utf-8"?>
<!-- Generator: Adobe Illustrator 16.0.0, SVG Export Plug-In . SVG Version: 6.00 Build 0)  -->
<!DOCTYPE svg PUBLIC "-//W3C//DTD SVG 1.1//EN" "http://www.w3.org/Graphics/SVG/1.1/DTD/svg11.dtd">
<svg version="1.1" id="图层_1" xmlns="http://www.w3.org/2000/svg" xmlns:xlink="http://www.w3.org/1999/xlink" x="0px" y="0px"
	 width="130px" height="171px" viewBox="0 0 130 171" enable-background="new 0 0 130 171" xml:space="preserve">
<path d="M121.774,140.031c-6.114-6.479-14.306-9.72-24.574-9.72c-7.078,0-13.558,1.512-19.44,4.536
	c-4.034,2.096-7.084,4.429-9.176,6.995c-0.056-13.807,0.04-25.334,0.287-34.582c10.989-2.032,20.153-7.286,27.481-15.78
	c7.942-9.238,11.946-20.188,12.013-32.849c0.1-14.488-4.9-26.551-15.004-36.188C83.658,13.172,71.994,8.536,58.37,8.536
	c-5.45,0-10.65,0.831-15.602,2.492c-4.089,1.372-7.859,3.266-11.32,5.664L18.742,3.701c-2.459-2.459-5.201-3.605-8.225-3.439
	c-2.725,0.1-5.118,1.18-7.178,3.24c-2.06,2.061-3.173,4.47-3.34,7.228c-0.166,3.024,0.964,5.782,3.39,8.274L16.354,31.78
	c-5.351,7.679-8.031,16.627-8.031,26.852c0,13.226,4.253,24.458,12.761,33.696c7.287,7.922,16.146,12.889,26.568,14.924v52.568
	c0,3.756,1.063,6.53,3.19,8.324c1.794,1.529,4.287,2.293,7.477,2.293l59.916,0.15c3.755,0,6.646-1.03,8.673-3.091
	c1.895-1.894,2.842-4.437,2.842-7.626C129.75,152.294,127.092,145.681,121.774,140.031z"/>
</svg>
