<?xml version="1.0" encoding="utf-8"?>
<!-- Generator: Adobe Illustrator 16.0.0, SVG Export Plug-In . SVG Version: 6.00 Build 0)  -->
<!DOCTYPE svg PUBLIC "-//W3C//DTD SVG 1.1//EN" "http://www.w3.org/Graphics/SVG/1.1/DTD/svg11.dtd">
<svg version="1.1" id="图层_1" xmlns="http://www.w3.org/2000/svg" xmlns:xlink="http://www.w3.org/1999/xlink" x="0px" y="0px"
	 width="110px" height="201px" viewBox="0 0 110 201" enable-background="new 0 0 110 201" xml:space="preserve">
<path d="M109.229,22.272c-0.467-2.603-1.885-4.738-4.254-6.406c-7.273-5.138-15.048-9.059-23.323-11.762
	C73.276,1.368,64.734,0,56.025,0C47.25,0,38.692,1.368,30.351,4.104c-8.275,2.703-15.982,6.624-23.123,11.762
	c-2.402,1.735-3.871,3.871-4.404,6.406c-0.567,2.536-0.133,5.122,1.301,7.758c2.812,5.165,7.186,12.49,13.104,21.946
	c-3.411,3.831-6.102,8.205-8.048,13.139c-2.336,5.839-3.504,11.979-3.504,18.418c0,9.943,2.736,19.086,8.208,27.428
	c4.704,7.112,10.746,12.571,18.097,16.411c-7.114,3.26-15.571,7.26-25.404,12.017c-4.305,2.068-6.49,5.271-6.557,9.609
	c-0.067,4.338,2.068,7.541,6.406,9.609l40.24,19.77c19.353,9.61,32.699,16.301,40.04,20.07c3.369,1.701,6.506,2.053,9.409,1.051
	c2.636-0.9,4.588-2.669,5.855-5.305c1.235-2.637,1.419-5.322,0.551-8.059c-0.935-3.036-3.02-5.404-6.257-7.106
	c-7.841-4.171-18.969-9.743-33.383-16.717c-10.332-5.011-19.424-9.325-27.309-12.958L80.2,127.727
	c9.143-4.471,15.899-10.71,20.271-18.719c3.903-7.174,5.855-15.648,5.855-25.425c0-6.673-1.185-12.979-3.554-18.919
	c-1.981-4.94-4.604-9.15-7.845-12.656c3.988-6.177,8.269-13.512,12.85-22.028C109.18,27.311,109.662,24.741,109.229,22.272z
	 M78.016,38.655c-6.932-3.646-14.262-5.472-21.99-5.472c-7.867,0-15.216,1.823-22.048,5.46l-6.33-10.565
	c8.642-4.338,18.118-6.507,28.428-6.507c10.477,0,19.903,2.152,28.278,6.457C82.405,31.076,80.289,34.631,78.016,38.655z"/>
</svg>
