<?xml version="1.0" encoding="utf-8"?>
<!-- Generator: Adobe Illustrator 16.0.0, SVG Export Plug-In . SVG Version: 6.00 Build 0)  -->
<!DOCTYPE svg PUBLIC "-//W3C//DTD SVG 1.1//EN" "http://www.w3.org/Graphics/SVG/1.1/DTD/svg11.dtd">
<svg version="1.1" id="图层_1" xmlns="http://www.w3.org/2000/svg" xmlns:xlink="http://www.w3.org/1999/xlink" x="0px" y="0px"
	 width="117px" height="173px" viewBox="0 0 117 173" enable-background="new 0 0 117 173" xml:space="preserve">
<path d="M116.8,10.682c-0.1-2.798-1.166-5.214-3.198-7.247c-2.066-2.033-4.481-3.115-7.247-3.249
	c-3.065-0.1-5.864,1.066-8.396,3.499c-4.673,4.483-8.882,8.719-12.657,12.725c-3.485-2.409-7.293-4.307-11.433-5.678
	c-4.897-1.6-10.013-2.399-15.343-2.399c-5.397,0-10.629,0.833-15.693,2.499c-4.096,1.357-7.789,3.17-11.088,5.426
	c-2.277-2.365-6.529-6.542-12.802-12.572c-2.565-2.499-5.398-3.699-8.497-3.599c-2.799,0.1-5.214,1.166-7.247,3.199
	C1.133,5.318,0.083,7.75,0.05,10.583c-0.066,3.099,1.183,5.998,3.749,8.696c3.906,4.065,8.109,8.193,12.591,12.379
	c-4.426,6.466-7.009,13.95-7.743,22.456c-0.767,8.729,0.466,16.843,3.698,24.339c3.565,8.197,8.779,14.86,15.643,19.992
	c5.907,4.451,12.487,7.377,19.74,8.779l-0.098,34.451c0,4.998-2.999,8.113-8.996,9.347c-3.499,0.7-6.23,2.249-8.196,4.647
	c-1.799,2.199-2.682,4.648-2.649,7.348c0.033,2.698,0.966,4.947,2.799,6.746c2.032,2,4.781,3,8.247,3
	c3.099,0,6.497-0.783,10.195-2.35c3.965-1.699,7.247-3.898,9.846-6.598c6.297,5.965,12.777,8.947,19.441,8.947
	c3.398,0,6.114-1.066,8.146-3.199c1.799-1.933,2.732-4.314,2.799-7.146c0.033-2.832-0.833-5.299-2.599-7.397
	c-1.933-2.299-4.599-3.615-7.997-3.948c-2.732-0.233-4.947-1.217-6.646-2.949c-1.699-1.699-2.582-3.781-2.649-6.246l-0.1-17.344
	v-17.269c7.244-1.29,13.809-4.178,19.691-8.67c6.764-5.131,11.944-11.828,15.544-20.091c3.198-7.397,4.397-15.51,3.598-24.34
	c-0.766-8.539-3.32-16.059-7.65-22.568l12.698-12.316C115.684,16.646,116.9,13.781,116.8,10.682z"/>
</svg>
