<?xml version="1.0" encoding="utf-8"?>
<!-- Generator: Adobe Illustrator 16.0.0, SVG Export Plug-In . SVG Version: 6.00 Build 0)  -->
<!DOCTYPE svg PUBLIC "-//W3C//DTD SVG 1.1//EN" "http://www.w3.org/Graphics/SVG/1.1/DTD/svg11.dtd">
<svg version="1.1" id="图层_1" xmlns="http://www.w3.org/2000/svg" xmlns:xlink="http://www.w3.org/1999/xlink" x="0px" y="0px"
	 width="113px" height="157px" viewBox="0 0 113 157" enable-background="new 0 0 113 157" xml:space="preserve">
<path d="M66.727,21.974l35.088-0.049c3.529-0.033,6.325-1.182,8.389-3.445c1.865-2.03,2.797-4.494,2.797-7.39
	s-0.932-5.343-2.797-7.34c-2.063-2.23-4.859-3.345-8.389-3.345l-45.489-0.05C32.723,0.32,17.626,0.37,11.035,0.503
	C7.573,0.57,4.81,1.719,2.747,3.949C0.916,5.979,0,8.426,0,11.289s0.916,5.293,2.747,7.291c2.063,2.197,4.827,3.279,8.289,3.246
	l35.077,0.098c0.086,13.525-0.031,25.5-0.352,35.907c-11.067,1.982-20.266,7.251-27.585,15.827
	c-7.923,9.254-11.884,20.24-11.884,32.957c0,14.147,4.877,26.049,14.631,35.702c9.687,9.587,21.521,14.381,35.503,14.381
	c13.548,0,25.167-4.628,34.854-13.882c10.119-9.654,15.18-21.738,15.18-36.252c0-12.018-3.962-22.753-11.885-32.207
	c-7.519-8.96-16.793-14.46-27.818-16.519l-0.194-19.583L66.727,21.974z"/>
</svg>
