<?xml version="1.0" encoding="utf-8"?>
<!-- Generator: Adobe Illustrator 16.0.0, SVG Export Plug-In . SVG Version: 6.00 Build 0)  -->
<!DOCTYPE svg PUBLIC "-//W3C//DTD SVG 1.1//EN" "http://www.w3.org/Graphics/SVG/1.1/DTD/svg11.dtd">
<svg version="1.1" id="图层_1" xmlns="http://www.w3.org/2000/svg" xmlns:xlink="http://www.w3.org/1999/xlink" x="0px" y="0px"
	 width="158px" height="202px" viewBox="0 0 158 202" enable-background="new 0 0 158 202" xml:space="preserve">
<path d="M156.049,132.846c-0.702-2.405-2.188-4.46-4.461-6.164l-11.625-8.218l-12.68-8.246c2.095-10.105,1.066-19.952-3.105-29.538
	c-4.443-10.223-11.477-18.09-21.098-23.603c-10.623-6.114-22.049-8.068-34.276-5.863c-12.931,2.332-23.284,9.079-31.067,20.231
	c-2.302-1.358-4.866-2.964-7.719-4.847l-5.021-3.492C30.31,55.575,36.888,49.465,44.75,44.8c7.984-4.777,16.687-7.701,26.108-8.77
	c3.04,3.341,6.815,4.076,11.325,2.205c4.543-1.837,6.815-5.095,6.815-9.772l-0.05-17.489c0-3.441-1.086-6.181-3.258-8.218
	C83.721,0.919,81.299,0,78.425,0c-2.873,0-5.329,0.902-7.366,2.706c-2.238,2.038-3.424,4.777-3.558,8.218
	c-0.02,1.412,0.033,2.775,0.123,4.114C53.648,16.737,40.81,21.59,29.116,29.616C17.222,37.801,7.952,48.291,1.304,61.086
	c-1.336,2.572-1.654,5.128-0.952,7.667c0.668,2.506,2.155,4.561,4.46,6.164l24.313,16.486c-1.908,10.126-0.833,19.965,3.248,29.517
	c4.376,10.322,11.325,18.224,20.846,23.702c10.59,6.08,22.066,7.984,34.427,5.713c13.068-2.37,23.44-9.142,31.123-20.307
	c3.888,2.295,8.026,5.019,12.416,8.172c-5.378,7.65-11.852,13.823-19.436,18.499c-7.918,4.91-16.521,7.867-25.809,8.869
	c-3.072-3.34-6.931-4.176-11.575-2.505c-4.677,1.704-7.016,4.878-7.016,9.521l0.101,18.041c0,3.508,1.102,6.313,3.307,8.418
	c1.971,1.904,4.393,2.873,7.266,2.906c2.84,0.034,5.278-0.868,7.316-2.705c2.271-2.038,3.458-4.811,3.558-8.318
	c0.06-1.34,0.033-2.721-0.059-4.131c14.078-1.653,26.978-6.534,38.695-14.662c11.826-8.218,21.063-18.774,27.711-31.67
	C156.549,137.957,156.816,135.418,156.049,132.846z"/>
</svg>
