<?xml version="1.0" encoding="utf-8"?>
<!-- Generator: Adobe Illustrator 16.0.0, SVG Export Plug-In . SVG Version: 6.00 Build 0)  -->
<!DOCTYPE svg PUBLIC "-//W3C//DTD SVG 1.1//EN" "http://www.w3.org/Graphics/SVG/1.1/DTD/svg11.dtd">
<svg version="1.1" id="图层_1" xmlns="http://www.w3.org/2000/svg" xmlns:xlink="http://www.w3.org/1999/xlink" x="0px" y="0px"
	 width="136px" height="170px" viewBox="0 0 136 170" enable-background="new 0 0 136 170" xml:space="preserve">
<path d="M119.997,98.086l-13.56-13.311c9.105-8.475,17.714-16.883,25.824-25.226c2.492-2.559,3.688-5.351,3.589-8.375
	c-0.066-2.758-1.113-5.151-3.142-7.179c-1.994-2.027-4.369-3.091-7.129-3.19c-3.023-0.1-5.815,1.08-8.375,3.54l-10.07,10.12
	L96.07,65.766c-2.956-7.475-7.592-13.852-13.912-19.128c-6.39-5.339-13.522-8.756-21.397-10.253
	c-0.086-6.586-0.067-14.92,0.061-25.042c0.033-3.457-1.063-6.215-3.291-8.276c-2.027-1.828-4.503-2.742-7.428-2.742
	c-2.958,0-5.434,0.914-7.428,2.742c-2.26,2.061-3.356,4.819-3.29,8.276l0.192,25.044c-10.792,1.981-19.883,7.17-27.263,15.586
	C4.104,61.245,0,72.263,0,85.025s4.237,23.913,12.712,33.452c7.511,8.499,16.469,13.577,26.863,15.259l-0.191,24.923
	c-0.066,3.457,1.03,6.215,3.29,8.275c1.994,1.828,4.47,2.742,7.428,2.742c2.925,0,5.401-0.914,7.428-2.742
	c2.227-2.061,3.324-4.818,3.291-8.275c-0.127-10.052-0.147-18.359-0.062-24.963c7.979-1.411,15.194-4.806,21.648-10.184
	c6.382-5.295,10.948-11.652,13.708-19.066c8.211,8.617,15.197,15.695,20.939,21.21c2.56,2.46,5.351,3.64,8.376,3.54
	c2.758-0.1,5.15-1.164,7.178-3.191s3.092-4.403,3.191-7.129c0.1-3.023-1.08-5.816-3.539-8.375L119.997,98.086z"/>
</svg>
