<?xml version="1.0" encoding="utf-8"?>
<!-- Generator: Adobe Illustrator 16.0.0, SVG Export Plug-In . SVG Version: 6.00 Build 0)  -->
<!DOCTYPE svg PUBLIC "-//W3C//DTD SVG 1.1//EN" "http://www.w3.org/Graphics/SVG/1.1/DTD/svg11.dtd">
<svg version="1.1" id="图层_1" xmlns="http://www.w3.org/2000/svg" xmlns:xlink="http://www.w3.org/1999/xlink" x="0px" y="0px"
	 width="139px" height="139px" viewBox="0 0 139 139" enable-background="new 0 0 139 139" xml:space="preserve">
<path d="M135.311,120.18l-7.638-7.684c2.277-1.969,4.756-4.292,7.438-6.975c2.492-2.526,3.689-5.302,3.59-8.326
	c-0.1-2.726-1.146-5.086-3.141-7.08c-2.028-2.027-4.422-3.107-7.18-3.24c-3.092-0.133-5.934,0.997-8.525,3.391
	c-2.033,1.846-4.417,4.262-7.14,7.228L91.993,77.006c4.852-7.134,7.612-14.961,8.269-23.485c0.73-9.007-0.914-17.616-4.936-25.826
	c-4.056-8.276-9.889-14.874-17.5-19.793c-8.177-5.251-17.383-7.877-27.621-7.877c-13.894,0-25.66,4.637-35.298,13.91
	C4.969,23.507,0,35.573,0,50.131c0,9.738,2.643,18.629,7.927,26.673c4.952,7.612,11.567,13.511,19.843,17.699
	c8.31,4.188,16.951,5.999,25.925,5.435c8.455-0.555,16.219-3.193,23.292-7.916l43.067,43.264c2.459,2.46,5.219,3.641,8.275,3.541
	c2.727-0.134,5.119-1.214,7.18-3.241c2.061-2.062,3.158-4.454,3.291-7.18C138.934,125.381,137.77,122.639,135.311,120.18z"/>
</svg>
