<?xml version="1.0" encoding="utf-8"?>
<!-- Generator: Adobe Illustrator 16.0.0, SVG Export Plug-In . SVG Version: 6.00 Build 0)  -->
<!DOCTYPE svg PUBLIC "-//W3C//DTD SVG 1.1//EN" "http://www.w3.org/Graphics/SVG/1.1/DTD/svg11.dtd">
<svg version="1.1" id="图层_1" xmlns="http://www.w3.org/2000/svg" xmlns:xlink="http://www.w3.org/1999/xlink" x="0px" y="0px"
	 width="169px" height="179px" viewBox="0 0 169 179" enable-background="new 0 0 169 179" xml:space="preserve">
<path d="M166.752,46.487c-1.5-4.232-5.215-6.431-11.146-6.598c-11.862-0.363-30.744-0.316-56.627,0.139
	c-2.137-11.204-7.565-20.55-16.303-28.031C73.345,3.999,62.464,0,50.035,0c-13.196,0-24.643,4.516-34.34,13.546
	C5.264,23.21,0.049,35.44,0.049,50.236c0,12.763,4.015,23.843,12.046,33.241c7.405,8.619,16.571,13.826,27.486,15.646l-0.343,48.785
	c0,2.367-1.183,4.482-3.549,6.349c-1.899,1.499-3.749,2.366-5.548,2.6c-3.666,0.499-6.515,1.933-8.547,4.298
	c-1.833,2.167-2.699,4.666-2.6,7.498c0.1,2.833,1.117,5.216,3.049,7.148c2.1,2.1,4.882,3.149,8.348,3.149
	c3.399,0,7.131-1.017,11.197-3.05c3.449-1.698,6.297-3.75,8.563-6.146C56.945,175.912,63.522,179,69.879,179
	c3.399,0,6.115-1.1,8.148-3.299c1.866-1.967,2.833-4.398,2.899-7.299c0.067-2.898-0.8-5.398-2.599-7.497
	c-1.966-2.366-4.699-3.683-8.198-3.949c-1.866-0.167-3.799-1.216-5.798-3.149c-2.133-1.999-3.232-3.998-3.299-5.998V134.31
	c6.104,0.276,13.093,0.362,20.994,0.253c3.566-0.033,6.398-1.166,8.498-3.398c1.899-2,2.85-4.449,2.85-7.349s-0.95-5.365-2.85-7.397
	c-2.1-2.267-4.932-3.449-8.498-3.549c-7.396-0.169-14.367-0.149-20.961,0.036l-0.223-13.983c4.6-0.602,9.393-2.355,14.386-5.298
	c5.069-2.979,9.063-6.374,12.014-10.168l18.128,18.565c2.133,2.199,4.666,3.299,7.598,3.299c2.933,0.033,5.482-1.066,7.648-3.299
	l42.638-43.588C167.052,54.568,168.219,50.586,166.752,46.487z M129.912,61.433c-7.131,8.031-12.763,14.063-16.895,18.095
	c-5.398-5.999-11.098-12.063-17.096-18.195c4.465-0.167,10.146-0.25,17.045-0.25C120.365,61.116,126.014,61.233,129.912,61.433z"/>
</svg>
