<?xml version="1.0" encoding="utf-8"?>
<!-- Generator: Adobe Illustrator 16.0.0, SVG Export Plug-In . SVG Version: 6.00 Build 0)  -->
<!DOCTYPE svg PUBLIC "-//W3C//DTD SVG 1.1//EN" "http://www.w3.org/Graphics/SVG/1.1/DTD/svg11.dtd">
<svg version="1.1" id="图层_1" xmlns="http://www.w3.org/2000/svg" xmlns:xlink="http://www.w3.org/1999/xlink" x="0px" y="0px"
	 width="132px" height="133px" viewBox="0 0 132 133" enable-background="new 0 0 132 133" xml:space="preserve">
<path d="M107.742,93.216c5.402-7.559,8.112-16.52,8.112-26.891c0-5.381-0.813-10.564-2.442-15.547
	c-1.363-4.065-3.2-7.761-5.495-11.102l20.196-20.341c2.457-2.458,3.62-5.232,3.487-8.322c-0.1-2.757-1.179-5.182-3.239-7.275
	c-2.025-2.093-4.401-3.223-7.125-3.389c-3.023-0.166-5.764,0.98-8.223,3.438c-5.119,5.055-11.896,11.941-20.303,20.632
	c-3.314-2.327-7.072-4.21-11.289-5.634c-5.116-1.727-10.299-2.591-15.547-2.591c-5.382,0-10.531,0.831-15.448,2.491
	c-4.127,1.385-7.962,3.312-11.513,5.763c-9.069-9.389-15.766-16.198-20.08-20.413c-2.491-2.492-5.265-3.671-8.321-3.538
	c-2.724,0.1-5.116,1.196-7.176,3.289c-2.06,2.06-3.139,4.468-3.239,7.225c-0.1,3.056,1.096,5.83,3.587,8.322L23.89,39.394
	c-2.367,3.323-4.256,7.113-5.652,11.384c-1.661,5.049-2.492,10.232-2.492,15.547c0,10.384,2.692,19.321,8.057,26.821L3.537,113.314
	c-2.491,2.492-3.654,5.266-3.488,8.322c0.133,2.757,1.229,5.182,3.289,7.274c2.093,2.093,4.518,3.189,7.275,3.289
	c3.089,0.133,5.88-1.046,8.371-3.538l9.867-10.215l9.818-10.379c7.506,5.486,16.573,8.236,27.206,8.236
	c10.523,0,19.49-2.69,26.911-8.051l9.664,10.043l10.065,10.365c2.492,2.492,5.266,3.654,8.322,3.488
	c2.79-0.133,5.231-1.262,7.324-3.389c2.127-2.093,3.256-4.534,3.389-7.324c0.166-3.057-0.996-5.83-3.488-8.322
	C123.205,108.16,116.421,101.519,107.742,93.216z"/>
</svg>
