<?xml version="1.0" encoding="utf-8"?>
<!-- Generator: Adobe Illustrator 16.0.0, SVG Export Plug-In . SVG Version: 6.00 Build 0)  -->
<!DOCTYPE svg PUBLIC "-//W3C//DTD SVG 1.1//EN" "http://www.w3.org/Graphics/SVG/1.1/DTD/svg11.dtd">
<svg version="1.1" id="图层_1" xmlns="http://www.w3.org/2000/svg" xmlns:xlink="http://www.w3.org/1999/xlink" x="0px" y="0px"
	 width="176px" height="176px" viewBox="0 0 176 176" enable-background="new 0 0 176 176" xml:space="preserve">
<path d="M169.02,53.245c-4.404-10.542-10.66-19.833-18.767-27.874c-8.04-8.04-17.331-14.246-27.874-18.616
	C111.504,2.252,100.061,0,88.05,0C76.407,0,65.214,2.219,54.471,6.656c-10.542,4.337-19.883,10.476-28.023,18.416
	c-8.274,8.04-14.679,17.332-19.217,27.874c-4.737,11.042-7.106,22.752-7.106,35.13c0,12.21,2.335,23.82,7.006,34.829
	c4.504,10.51,10.859,19.801,19.066,27.874c8.107,7.974,17.432,14.146,27.974,18.517C64.98,173.765,76.273,176,88.05,176
	c11.978,0,23.403-2.269,34.279-6.806c10.542-4.37,19.833-10.593,27.874-18.666c8.107-8.04,14.379-17.349,18.816-27.924
	c4.57-10.942,6.855-22.485,6.855-34.629C175.875,75.765,173.59,64.188,169.02,53.245z M98.767,136.725
	c10.943-2.337,20.12-7.688,27.517-16.072c8.24-9.374,12.26-20.267,12.06-32.677c-0.2-14.279-5.138-26.223-14.813-35.831
	c-9.642-9.575-21.468-14.362-35.48-14.362c-13.778,0-25.455,4.471-35.03,13.411c-10.142,9.475-15.213,21.752-15.213,36.832
	c0,12.51,3.937,23.354,11.81,32.528c7.273,8.531,16.543,13.936,27.797,16.228c0.206,6.062,0.288,11.725,0.252,17.016
	c-15.977-2.467-29.284-9.854-39.909-22.184c-10.843-12.544-16.264-27.073-16.264-43.587c0-8.641,1.718-17.031,5.154-25.171
	c3.336-7.94,8.024-15.013,14.062-21.218C53.821,28.224,69.584,21.519,88,21.519c18.182,0,33.846,6.689,46.99,20.067
	c6.139,6.205,10.893,13.261,14.262,21.168c3.47,8.174,5.205,16.598,5.205,25.271c0,16.915-5.404,31.577-16.215,43.988
	c-10.499,12.073-23.795,19.329-39.877,21.788C98.395,146.631,98.528,140.948,98.767,136.725z"/>
</svg>
