<?xml version="1.0" encoding="utf-8"?>
<!-- Generator: Adobe Illustrator 16.0.0, SVG Export Plug-In . SVG Version: 6.00 Build 0)  -->
<!DOCTYPE svg PUBLIC "-//W3C//DTD SVG 1.1//EN" "http://www.w3.org/Graphics/SVG/1.1/DTD/svg11.dtd">
<svg version="1.1" id="图层_1" xmlns="http://www.w3.org/2000/svg" xmlns:xlink="http://www.w3.org/1999/xlink" x="0px" y="0px"
	 width="127px" height="198px" viewBox="0 0 127 198" enable-background="new 0 0 127 198" xml:space="preserve">
<path d="M123.914,48.001c-2.064-2.198-4.879-3.296-8.441-3.296l-5.127,0.086c-1.769-9.446-6.063-17.669-12.905-24.661
	C90.347,12.883,81.849,8.347,71.952,6.508l0.265-5.06c0.033-0.7-0.334-1.116-1.1-1.249C69.652,0.066,66.605,0,61.977,0l-9.94,0.2
	c-0.6,0.033-0.933,0.383-0.999,1.049c-0.058,1.753,0.019,3.521,0.185,5.299c-11.183,2.164-20.456,7.418-27.807,15.78
	c-8.092,9.157-12.188,20.146-12.288,32.966c-0.067,12.754,4.129,23.876,12.587,33.367c7.535,8.436,16.632,13.572,27.281,15.43
	c0.009,0.916,0.031,1.797,0.07,2.636c-8.515,1.994-15.89,6.034-22.106,12.153c-6.299,6.202-10.326,13.532-12.128,21.967
	c-1.655-0.025-3.417-0.007-5.305,0.062c-3.563,0.133-6.394,1.314-8.491,3.546c-1.898,1.998-2.847,4.412-2.847,7.243
	c-0.033,2.797,0.899,5.178,2.797,7.143c2.065,2.164,4.896,3.279,8.492,3.346c2.014,0.04,3.789,0.031,5.337-0.024
	c2.388,10.375,7.596,18.812,15.641,25.3c8.192,6.594,17.882,9.99,29.071,10.189c13.12,0.232,24.192-4.229,33.216-13.387
	c8.825-8.99,13.204-19.896,13.137-32.717c-0.033-11.056-3.546-20.779-10.539-29.17c-6.66-8.024-15.084-13.251-25.262-15.698
	l0.109-2.685c9.603-1.94,17.923-6.446,24.952-13.536c6.986-7.015,11.394-15.234,13.23-24.656l5.102,0.131
	c3.563,0.033,6.394-1.066,8.491-3.297c1.864-1.965,2.798-4.396,2.798-7.292S125.813,50,123.914,48.001z M36.802,151.547
	c0-6.926,2.398-12.804,7.193-17.633c4.795-4.861,10.639-7.292,17.532-7.292s12.754,2.431,17.583,7.292
	c4.795,4.829,7.192,10.707,7.192,17.633s-2.381,12.787-7.143,17.582c-4.796,4.828-10.64,7.243-17.532,7.243
	c-6.926,0-12.787-2.415-17.583-7.243C39.216,164.334,36.802,158.473,36.802,151.547z"/>
</svg>
