<?xml version="1.0" encoding="utf-8"?>
<!-- Generator: Adobe Illustrator 16.0.0, SVG Export Plug-In . SVG Version: 6.00 Build 0)  -->
<!DOCTYPE svg PUBLIC "-//W3C//DTD SVG 1.1//EN" "http://www.w3.org/Graphics/SVG/1.1/DTD/svg11.dtd">
<svg version="1.1" id="图层_1" xmlns="http://www.w3.org/2000/svg" xmlns:xlink="http://www.w3.org/1999/xlink" x="0px" y="0px"
	 width="177px" height="147px" viewBox="0 0 177 147" enable-background="new 0 0 177 147" xml:space="preserve">
<path d="M173.173,50.629c-2.028-1.862-4.506-2.81-7.433-2.843c-2.926,0-5.403,0.915-7.432,2.744
	c-2.262,2.062-3.393,4.838-3.393,8.33c0,14.632-4.192,27.669-12.554,39.123c-4.496-4.886-8.497-9.007-12.015-12.378
	c5.24-7.597,8.031-15.896,8.357-24.899c0.299-9.045-1.846-17.741-6.435-26.088c-3.691-6.684-8.612-12.205-14.765-16.561
	c-5.645-4.007-11.832-6.622-18.558-7.851c-0.251-3.11-1.374-5.62-3.391-7.513C93.563,0.898,91.168,0,88.375,0
	c-2.793,0.033-5.171,0.964-7.133,2.793c-2.025,1.84-3.146,4.312-3.388,7.397c-6.708,1.181-12.877,3.769-18.51,7.766
	c-6.052,4.29-10.924,9.793-14.615,16.511c-4.589,8.28-6.717,17.026-6.385,26.238c0.298,9.098,3.053,17.431,8.249,25.004
	c-4.748,4.551-8.795,8.624-12.15,12.226c-8.298-11.42-12.459-24.409-12.459-38.976c0-3.525-1.131-6.335-3.392-8.43
	c-2.028-1.862-4.506-2.793-7.432-2.793s-5.42,0.931-7.482,2.793c-2.261,2.095-3.408,4.905-3.441,8.43
	C0.102,71.164,2.363,82.753,7.019,93.727c4.456,10.542,10.791,19.854,19.005,27.934c8.147,8.015,17.542,14.217,28.183,18.605
	C65.114,144.756,76.52,147,88.425,147c11.439,0,22.497-2.145,33.171-6.435c10.607-4.257,20.002-10.292,28.184-18.106
	c8.379-8.015,14.881-17.293,19.503-27.834c4.854-11.141,7.282-23.029,7.282-35.666C176.564,55.468,175.434,52.691,173.173,50.629z
	 M68.422,104.501c3.396,1.549,6.524,2.633,9.413,3.302c-0.062,5.038-0.005,10.632,0.172,16.801
	c-10.616-1.675-20.194-5.632-28.735-11.872c4.11-4.284,8.219-8.282,12.329-11.971C63.624,102.081,65.883,103.332,68.422,104.501z
	 M99.036,107.782c5.816-1.307,11.233-3.622,16.241-6.973c4.142,4.496,8.175,8.544,12.099,12.146
	c-8.591,6.159-18.12,10.063-28.584,11.713L99.036,107.782z"/>
</svg>
