<?xml version="1.0" encoding="utf-8"?>
<!-- Generator: Adobe Illustrator 16.0.0, SVG Export Plug-In . SVG Version: 6.00 Build 0)  -->
<!DOCTYPE svg PUBLIC "-//W3C//DTD SVG 1.1//EN" "http://www.w3.org/Graphics/SVG/1.1/DTD/svg11.dtd">
<svg version="1.1" id="图层_1" xmlns="http://www.w3.org/2000/svg" xmlns:xlink="http://www.w3.org/1999/xlink" x="0px" y="0px"
	 width="217px" height="338px" viewBox="0 0 217 338" enable-background="new 0 0 217 338" xml:space="preserve">
<path d="M157.813,216.139c9.203-27.465,15.223-49.102,18.063-64.917c9.84-11.147,19.016-27.176,27.525-48.107
	c8.099-19.962,12.147-35.258,12.147-45.889c0-2.399-1.782-6.099-5.349-11.098c-3.666-5.199-8.414-10.614-14.246-16.246
	c-14.598-14.063-29.477-23.728-44.641-28.993c-6.365-2.233-11.53,0.9-15.496,9.398c-2.366,5.132-3.149,10.864-2.35,17.196
	c0.33,2.532,0.872,4.708,1.608,6.556c-12.511-6.223-27.399-9.355-44.698-9.355c-12.13,0-23.628,2.783-34.492,8.348
	c-9.398,4.799-17.763,11.364-25.094,19.695c-6.432,7.298-11.264,14.947-14.497,22.945c-3.033,7.598-3.933,13.664-2.699,18.196
	c0.4,1.366,3.549,3.499,9.448,6.398c2.397,1.159,4.754,2.207,7.086,3.19c-2.048,9.542-3.087,20.215-3.087,32.051
	c0,24.928,7.932,53.271,23.794,85.03c3.933,7.965,9.365,18.396,16.296,31.293c4.965,9.765,7.448,16.713,7.448,20.846
	c0,0.221-0.007,0.428-0.012,0.638c-6.543-3.123-12.609-7.062-18.184-11.835c-7.032-6.032-12.064-12.447-15.097-19.246
	c-2.366-5.332-4.582-12.83-6.648-22.494c-1.866-9.932-3.183-16.396-3.949-19.396c-1.566-6.398-3.982-11.164-7.248-14.297
	c-3.333-3.199-7.198-4.382-11.597-3.549c-5.199,0.967-8.715,4.398-10.548,10.298c-1.833,5.898-1.75,13.547,0.25,22.944
	c2.466,11.564,7.715,22.412,15.747,32.543c7.384,9.356,15.885,16.521,25.502,21.5c-6.728,1.403-11.199,5.748-13.405,13.042
	c-1.233,3.999-1.2,8.081,0.1,12.247c1.076,3.395,2.698,5.894,4.847,7.528c-0.261,1.798-0.398,3.7-0.398,5.719
	c0,7.565,2.483,13.714,7.448,18.446c5.865,5.598,14.53,8.397,25.994,8.397c5.065,0,10.314-1.517,15.746-4.549
	c6.432-3.565,12.514-8.998,18.246-16.296c2.399-3.1,6.082-4.549,11.047-4.35c4.732,0.166,8.098,1.55,10.098,4.148
	c4.633,6.033,9.314,10.481,14.047,13.348c5.699,3.499,12.214,5.248,19.545,5.248c9.132,0,16.23-2.532,21.295-7.598
	c4.566-4.599,6.85-10.447,6.85-17.546c0-7.532-2.334-13.797-6.999-18.796c-0.791-0.856-1.616-1.608-2.457-2.312
	c-1.217-3.084-3.107-5.553-5.69-7.386c-2.633-1.867-5.449-2.8-8.449-2.8c-3.432,0-6.548,0.851-9.348,2.55
	c-2.766,1.666-4.531,2.499-5.299,2.499c-0.799,0-1.966-0.733-3.499-2.199c-1.362-1.241-2.405-2.468-3.164-3.683
	c0.854-4.707,2.642-11.36,5.364-19.962L157.813,216.139z M161.762,50.876c13.931,6.865,21.079,10.681,21.445,11.447
	c1.233,3.266,1.018,9.248-0.649,17.946c-1.429,7.639-3.458,14.81-6.073,21.523c-1.604-23.337-9.417-41.746-23.46-55.205
	L161.762,50.876z"/>
</svg>
