<?xml version="1.0" encoding="utf-8"?>
<!-- Generator: Adobe Illustrator 16.0.0, SVG Export Plug-In . SVG Version: 6.00 Build 0)  -->
<!DOCTYPE svg PUBLIC "-//W3C//DTD SVG 1.1//EN" "http://www.w3.org/Graphics/SVG/1.1/DTD/svg11.dtd">
<svg version="1.1" id="图层_1" xmlns="http://www.w3.org/2000/svg" xmlns:xlink="http://www.w3.org/1999/xlink" x="0px" y="0px"
	 width="290px" height="336px" viewBox="0 0 290 336" enable-background="new 0 0 290 336" xml:space="preserve">
<path d="M288.9,269.285c-0.199-1.465-1.497-3.112-3.895-4.943c-1.561-1.171-3.364-2.271-5.386-3.306
	c1.048-2.495,1.184-4.524,0.394-6.081c-0.367-0.732-1.415-1.631-3.146-2.696l-3.944-2.446c-1.364-0.966-4.128-4.428-8.288-10.387
	c-4.76-6.856-7.873-12.432-9.338-16.727c-0.232-0.732-0.316-2.131-0.249-4.193l0.149-4.145c0-1.798-0.25-3.213-0.748-4.244
	c-0.666-1.398-1.881-2.414-3.646-3.047l-6.092-2.445c-1.265-0.633-2.047-1.365-2.347-2.197c-0.566-7.989-1.682-16.844-3.346-26.563
	c-2.297-13.149-4.826-22.17-7.59-27.063c-4.727-8.289-12.016-15.961-21.869-23.018c-2.615-1.858-5.135-3.465-7.561-4.824
	c4.963-11.926,7.288-23.068,6.961-33.423c5.593-1.664,9.92-4.327,12.982-7.989c3.162-3.828,4.744-8.455,4.744-13.881
	c0-6.125-2.23-11.401-6.691-15.828c-4.428-4.427-9.687-6.641-15.778-6.641c-6.823,0-12.683,2.396-17.575,7.19
	c-4.761,4.627-7.141,10.003-7.141,16.127c0,4.927,1.864,9.354,5.592,13.282c3.463,3.628,7.674,6.008,12.633,7.14
	c0.366,3.529,0.2,7.623-0.499,12.283c-0.932,5.843-2.629,11.656-5.077,17.437c-1.715-0.512-3.371-0.87-4.966-1.066
	c-1.216-1.574-3.329-4.184-6.384-7.882l-7.191-8.638c-1.031-1.165-1.713-1.781-2.047-1.847c-0.398-0.067-0.832,0.466-1.298,1.598
	l-3.345,9.487l-3.047,8.538l-5.842-5.941l-6.641-6.94c-0.898-0.932-1.515-1.365-1.848-1.298c-0.266,0.033-0.6,0.549-0.998,1.548
	l-7.839,20.721c-0.267-0.266-1.199-2.563-2.796-6.89c-1.864-5.026-3.229-8.438-4.094-10.236c-0.699-1.498-1.198-2.296-1.498-2.396
	c-0.333-0.1-1.082,0.35-2.247,1.348c-7.656,6.524-12.616,10.968-14.88,13.332l2.347-9.986l2.197-11.584
	c0.366-2.563,0.399-4.044,0.1-4.444c-0.333-0.466-1.614-0.449-3.844,0.05l-14.53,3.794l4.044-9.537l4.494-11.584
	c0.699-1.931,0.965-3.029,0.799-3.295l-3.645-0.15l-18.075,2.846c0.266-0.799,1.814-3.961,4.644-9.487l4.693-9.337
	c0.333-0.799,0.383-1.315,0.15-1.548l-1.698-0.2l-3.897,0.466c2.13-1.958,4.229-3.991,6.294-6.108
	c5.259-5.393,7.772-8.871,7.54-10.436c-0.133-1.231-4.91-2.08-14.33-2.546l-24.267-1.997c-5.137-1.412-8.617-2.29-10.474-2.645
	c-0.451-1.251-0.986-2.813-1.61-4.695c-1.665-5.093-2.53-7.989-2.596-8.688c1.231-0.832,2.247-2.081,3.045-3.745
	c0.766-1.598,1.148-3.162,1.148-4.693c0-2.896-1.015-5.343-3.045-7.34c-2.097-2.03-4.627-3.013-7.59-2.946
	c-2.829,0.1-5.259,1.132-7.29,3.096c-2.097,1.997-3.146,4.411-3.146,7.24c0,2.963,0.799,5.376,2.397,7.24
	c1.598,1.864,3.778,2.962,6.541,3.295l2.097,7.44l0.938,3.114c-5.47,0.142-10.381,1.047-14.734,2.717l-0.034-0.09l-2.497-6.641
	l-1.648-4.344c0.932-0.599,1.698-1.664,2.297-3.195c0.566-1.498,0.849-3.079,0.849-4.744c0-2.43-0.882-4.61-2.646-6.541
	c-1.964-2.13-4.478-3.212-7.54-3.246c-3.063-0.033-5.626,1.065-7.689,3.296c-1.931,2.063-2.896,4.46-2.896,7.19
	c0,2.763,1.032,5.176,3.096,7.24c2.03,2.064,4.46,3.129,7.29,3.196c0.399,0.732,1.265,3.246,2.596,7.54
	c0.521,1.637,0.937,2.997,1.25,4.084c-0.393,0.284-0.788,0.591-1.188,0.93c-2.462,1.157-5.393,2.051-8.799,2.675l-9.138,1.298
	c-2.729,0.366-4.61,0.766-5.642,1.198C0.682,44.612,0.166,45.161,0,45.894c-0.233,1.198,0.882,3.761,3.345,7.689
	c2.974,4.765,6.615,8.489,10.911,11.195c0.037,0.494,0.078,1.003,0.125,1.537l0.599,7.689c0,1.731-0.333,3.695-0.999,5.892
	c-0.932,2.829-1.931,6.641-2.996,11.434c-1.099,5.026-1.665,8.472-1.698,10.336c-1.731,4.56-1.032,8.788,2.097,12.682
	c3.329,4.161,8.206,5.975,14.63,5.443c7.157,1.132,13.015,0.649,17.576-1.448c2.729-1.265,5.559-4.044,8.488-8.338
	c1.589-2.32,3.054-4.126,4.403-5.454c2.686,3.84,6.541,11.175,11.575,22.031c6.191,13.348,9.104,22.02,8.738,26.014l-2.446,27.312
	c-0.1,1.065,0.083,2.913,0.549,5.543l0.849,5.791c0.066,2.631-2.313,7.79-7.14,15.479l-10.336,15.978
	c-0.799,1.398-2.463,3.279-4.993,5.643c-2.263,2.063-3.578,3.711-3.944,4.943c-0.333,1.164,0.066,3.312,1.198,6.441
	c1.099,3.063,2.18,5.192,3.246,6.391c1.198,1.299,3.329,2.68,6.391,4.145c2.729,1.265,4.61,1.93,5.642,1.997l3.895,4.144
	l8.838,8.389c4.727,4.561,7.24,7.273,7.54,8.139l0.549,4.444c0.399,2.264,1.315,3.778,2.747,4.544
	c1.631,0.832,3.695,1.381,6.191,1.647l1.687-0.078c0.186,2.249,1.151,5.316,2.907,9.216c1.238,2.746,2.4,4.675,3.492,5.837
	c-0.276,0.507-0.497,0.993-0.646,1.452c-0.399,1.232-0.283,3.163,0.35,5.793c0.369,1.563,0.709,2.68,1.022,3.365
	c-1.692,2.067-3.645,5.183-5.866,9.367c-2.796,5.293-3.828,8.771-3.096,10.436c0.699,1.664,4.211,3.212,10.535,4.644
	c5.958,1.364,11.035,1.947,15.229,1.747c1.265-0.033,2.014-0.232,2.247-0.599l0.599-2.896c0.433-2.463,0.732-5.343,0.899-8.638
	c0.223-4.211,0.076-7.603-0.435-10.192c1.259-0.743,2.817-2.087,4.679-4.038c2.264-2.396,3.662-4.395,4.194-5.992
	c0.333-0.965,0.116-3.012-0.649-6.141c-0.865-3.063-1.298-4.761-1.298-5.094c0-2.363,0.299-5.442,0.898-9.236
	c0.699-4.295,1.498-7.49,2.397-9.588l0.1-0.049c1.032-1.765,2.313-3.496,3.845-5.193l2.996-3.545
	c1.631-2.53,1.748-7.041,0.349-13.531c-0.466-2.164,1.498-8.788,5.892-19.873l4.313-10.533c2.771-1.237,5.691-2.718,8.756-4.429
	c4.752,4.614,9.864,8.241,15.343,10.868c2.529,1.197,6.258,2.546,11.184,4.044c0.866,0.267,1.615,1.681,2.248,4.244
	c0.632,2.796,1.164,4.36,1.598,4.693c0.965,0.766,2.629,1.349,4.992,1.747c2.464,0.434,4.145,0.933,5.043,1.498
	c4.028,2.697,7.058,5.426,9.088,8.189c2.164,2.963,3.762,6.74,4.793,11.334c0.234,1.165,2.015,2.014,5.344,2.547l2.138,0.055
	c0.282,1.855,1.116,4.199,2.505,7.035c1.865,3.729,3.712,5.775,5.543,6.142c1.332,0.267,2.846,0.134,4.543-0.399
	c1.665-0.533,2.947-1.248,3.846-2.146c1.298-1.299,2.513-3.363,3.645-6.191c1.531-3.861,1.831-7.324,0.898-10.387v-0.1
	c-0.632-1.132-2.279-2.363-4.943-3.695c-1.506-0.768-2.818-1.342-3.957-1.742c0.597-2.624,0.391-4.445-0.636-5.447
	c-0.699-0.699-2.048-1.432-4.045-2.197l-3.994-1.447c-0.699-0.334-2.363-1.765-4.993-4.295l-8.938-8.787
	c-0.865-0.865-1.664-3.229-2.396-7.091c-0.732-3.794-1.365-5.908-1.898-6.341c-0.599-0.467-2.014-0.982-4.244-1.548
	c-2.163-0.565-3.461-1.049-3.895-1.448c-0.599-0.633-2.13-4.161-4.594-10.586c-1.84-4.748-3.02-8.037-3.54-9.871
	c2.097-1.407,3.729-2.165,4.889-2.262c4.095,5.625,8.838,10.918,14.23,15.878c6.158,5.626,12.55,10.27,19.173,13.931
	c0.434,0.233,0.684,1.582,0.75,4.045c0.066,2.529,0.516,4.094,1.348,4.693l3.596,0.648c1.963,0.2,3.162,0.5,3.595,0.899
	c3.096,2.862,6.407,7.806,9.937,14.829c2.996,5.926,4.693,10.004,5.093,12.233c0.133,0.899,0.149,3.046,0.05,6.441
	c-0.066,2.396,0.25,3.944,0.949,4.644c1.23,1.231,3.312,2.064,6.24,2.496c0.541,0.084,1.051,0.14,1.545,0.182
	c1.106,2.816,2.286,5.315,3.549,7.459c1.764,2.962,3.313,4.643,4.644,5.043l5.492,0.648c2.03-0.066,3.528-0.366,4.493-0.898
	c1.632-0.932,3.296-2.73,4.994-5.393C288.502,276.408,289.4,272.847,288.9,269.285z M98.813,256.703l-9.986-6.441l-7.041-4.844
	c-0.233-0.433-0.466-1.564-0.699-3.395c-0.267-2.064-0.566-3.629-0.899-4.694l-0.649-1.897c-0.267-0.633-0.666-1.231-1.199-1.797
	c4.76-2.697,9.42-5.593,13.981-8.688c5.602-3.794,9.93-7.177,12.998-10.152c4.331,2.458,8.856,4.268,13.572,5.435
	c0.24,2.091,0.455,5.041,0.642,8.862c0.366,7.756,0.299,13.747-0.2,17.976l-3.096,4.843c-1.564,2.597-2.347,4.677-2.347,6.241
	c0,1.398,0.616,3.362,1.847,5.893c1.198,2.563,1.798,4.526,1.798,5.891c0,2.244-0.319,4.673-0.944,7.279
	c-1.25-1.514-2.766-3.276-4.536-5.276c0.249-1.589,0.215-3.5-0.112-5.747c-0.533-3.328-1.481-5.393-2.846-6.191
	c-1.265-0.732-3.163-1.365-5.692-1.897C100.977,257.602,99.446,257.135,98.813,256.703z"/>
</svg>
