<?xml version="1.0" encoding="utf-8"?>
<!-- Generator: Adobe Illustrator 16.0.0, SVG Export Plug-In . SVG Version: 6.00 Build 0)  -->
<!DOCTYPE svg PUBLIC "-//W3C//DTD SVG 1.1//EN" "http://www.w3.org/Graphics/SVG/1.1/DTD/svg11.dtd">
<svg version="1.1" id="图层_1" xmlns="http://www.w3.org/2000/svg" xmlns:xlink="http://www.w3.org/1999/xlink" x="0px" y="0px"
	 width="168px" height="197px" viewBox="0 0 168 197" enable-background="new 0 0 168 197" xml:space="preserve">
<path d="M167.299,113.903c0.334-0.301,0.501-3.489,0.501-9.567c-2.003-2.972-7.78-7.73-17.331-14.275l-17.721-11.638
	c1.174-3.208,3.465-6.094,6.902-8.648c2.404-1.77,4.992-3.172,7.764-4.208l0.951-0.601l0.15-1.152c0.1-3.807,0.033-6.612-0.2-8.415
	l-0.351-1.302l-1.203-0.801c-0.84-0.451-2.095-1.001-3.719-1.641c1.987-1.688,4.076-3.051,6.273-4.07l0.301-0.25
	c0.468-1.001,0.835-3.122,1.103-6.361c0.233-3.172,0.233-5.476,0-6.912l-0.101-0.301c-0.567-0.667-4.524-2.938-11.871-6.812
	c-7.68-4.041-12.723-6.378-15.127-7.013h-0.25c-4.174,0.902-9.65,6.145-16.43,15.728c-0.644,0.911-1.25,1.812-1.855,2.712
	c-0.155-4.376-0.454-6.703-0.899-6.969l-3.957-0.451l-6.805,0.088c-2.989-5.27-6.028-10.412-9.124-15.416
	C77.723,5.042,73.766-0.15,72.43,0.05c-0.935,0.133-2.889,4.208-5.86,12.222c-1.39,3.675-2.685,7.351-3.903,11.026
	c-1.723-0.974-3.362-1.666-4.913-2.061c-5.81,0.234-13.674,1.854-23.592,4.859c-8.882,2.738-13.557,4.491-14.025,5.259
	c-0.367,0.902-0.501,3.206-0.401,6.913c0.067,3.039,0.184,5.192,0.351,6.461l0.3,0.451c7.259,3.567,13.033,8.635,17.36,15.163
	c-3.302-1.693-7.619-3.258-12.952-4.694c-6.745-1.87-11.771-2.488-15.077-1.853l-0.25,0.15c-2.604,2.438-5.693,6.362-9.267,11.771
	l-0.15,0.301c-0.167,1.369,0.05,3.389,0.651,6.061c0.601,2.705,1.202,4.274,1.803,4.708l0.451,0.1
	c4.375-0.968,8.699-0.952,12.973,0.05c5.402,1.237,11.444,4.136,18.114,8.67c-8.926,7.316-16.903,17.128-23.924,29.447l0.851,3.105
	l1.703,5.21l0.201,0.3c0.567,0.401,1.736,0.986,3.506,1.754l3.259,1.156c-0.666,0.995-1.714,2.853-3.158,5.605
	c-1.97,3.807-3.156,6.528-3.557,8.164v0.201c0.1,1.502,0.635,3.539,1.603,6.111c0.935,2.438,1.703,3.957,2.304,4.558l0.351,0.2
	l10.719,1.052l7.864,0.751l0.451-0.199c0.183-0.237,0.362-0.459,0.544-0.692c1.362,1.708,3.192,3.495,5.481,5.359l-2.568,5.551
	l-2.705,6.211l0.2,0.501c1.136,0.936,3.49,2.521,7.063,4.759c3.306,2.07,5.209,3.206,5.71,3.405h0.401
	c1.536-0.601,3.84-1.936,6.912-4.007l5.545-3.823c5.309,2.474,10.538,4.304,15.692,5.514l2.906,7.226l4.157,9.267
	c0.936,1.736,2.655,2.889,5.16,3.456c2.638,0.601,5.76,0.451,9.366-0.45c2.538-0.668,4.392-1.503,5.56-2.505
	c1.102-0.935,1.82-2.237,2.154-3.907c0.847-4.351,1.389-9.124,1.639-14.303c0.806,0.284,1.612,0.428,2.418,0.428
	c0.301,0,0.484-0.166,0.551-0.5l2.208-8.109c2.32-1.845,4.582-3.861,6.786-6.05l1.826,1.536l2.404,1.652h0.5l6.062-4.658
	c3.64-2.938,5.81-4.892,6.512-5.859c0.134-0.135,0.149-0.318,0.05-0.552l-5.35-7.058c0.942-1.658,1.611-3.165,2.007-4.521
	l2.591,2.863l0.702,0.502l0.751-0.301l10.869-4.309c6.312-2.504,9.951-4.006,10.92-4.508c0.501-0.233,0.801-0.45,0.902-0.65
	l0.25-1.203l0.05-6.461l-0.101-4.608l-4.643-5.191c0.199-0.058,0.381-0.108,0.586-0.168
	C163.926,115.188,166.932,114.203,167.299,113.903z"/>
</svg>
