<?xml version="1.0" encoding="utf-8"?>
<!-- Generator: Adobe Illustrator 16.0.0, SVG Export Plug-In . SVG Version: 6.00 Build 0)  -->
<!DOCTYPE svg PUBLIC "-//W3C//DTD SVG 1.1//EN" "http://www.w3.org/Graphics/SVG/1.1/DTD/svg11.dtd">
<svg version="1.1" id="图层_1" xmlns="http://www.w3.org/2000/svg" xmlns:xlink="http://www.w3.org/1999/xlink" x="0px" y="0px"
	 width="402px" height="294px" viewBox="0 0 402 294" enable-background="new 0 0 402 294" xml:space="preserve">
<path d="M400.179,149.196c-1.198-3.729-2.846-5.959-4.943-6.691c-7.189-2.463-22.02-5.293-44.489-8.489
	c-3.021-0.433-5.866-0.821-8.54-1.164c-0.356-7.268-1.367-13.709-3.044-19.308l2.696-9.337c1.664-5.859,2.496-9.387,2.496-10.586
	l-0.1-0.849c-0.499-2.364-2.597-6.774-6.291-13.232c-3.729-6.591-6.675-10.969-8.838-13.132c-1.266-1.265-4.312-2.18-9.138-2.746
	l-7.54-0.749l-1.248-1.298c0.267-4.294-0.017-9.088-0.849-14.38c-0.899-5.625-2.015-9.637-3.346-12.034
	c-2.863-5.06-10.636-10.469-23.318-16.228c-12.35-5.559-21.221-7.972-26.613-7.24c-2.464,0.333-5.227,1.765-8.289,4.294
	l-4.693,3.795c-4.162-1.864-6.875-2.946-8.14-3.246c-0.731-3.295-1.831-6.475-3.296-9.537c-1.498-3.229-2.912-5.226-4.244-5.992
	c-1.896-1.132-9.087-1.365-21.57-0.699c-12.15,0.632-19.64,1.498-22.469,2.597c-1.631,0.632-3.029,2.563-4.194,5.792
	c-0.599,1.731-1.348,4.71-2.247,8.938l-3.895,0.799l-7.889-6.941c-3.196-2.563-5.326-3.861-6.392-3.895
	c-2.363-0.133-9.104,2.43-20.222,7.689c-11.118,5.227-17.41,8.821-18.875,10.785c-1.332,1.731-2.164,4.211-2.497,7.44
	c-0.233,2.064-0.283,5.526-0.15,10.386l-6.292,5.942c-4.827,4.394-8.172,7.606-10.036,9.637c-0.466,0.433-3.545,0.899-9.237,1.398
	c-5.759,0.5-9.004,1.065-9.737,1.698c-1.531,1.531-4.594,5.842-9.188,12.933c-5.026,7.723-7.506,12.417-7.44,14.081
	c0.066,1.332,1.182,4.644,3.345,9.937c2.064,4.927,2.979,7.939,2.747,9.038c-2.24,6.509-3.804,13.154-4.704,19.931
	c-5.506,0.653-11.991,1.582-19.463,2.788c-9.254,1.465-18.442,3.129-27.563,4.993c-8.322,1.665-13.016,2.73-14.081,3.196
	c-2.064,0.899-3.645,2.913-4.744,6.042c-0.898,2.596-1.332,5.509-1.298,8.738c0,3.762,0.6,7.107,1.798,10.037
	c1.398,3.494,3.445,5.809,6.142,6.939c3.295,1.398,17.027,3.346,41.194,5.842c4.635,0.479,8.876,0.874,12.735,1.186
	c-2.892,1.137-6.098,2.565-9.64,4.308c-5.526,2.696-9.687,5.01-12.483,6.94c-1.198,0.865-1.931,2.363-2.197,4.494
	c-0.233,1.797-0.117,3.711,0.349,5.742c0.5,2.33,1.348,4.361,2.547,6.092c1.365,1.964,2.979,3.179,4.843,3.645
	c2.963,0.699,7.839,1.082,14.63,1.148l12.023-0.491c0.87,0.353,1.854,0.732,2.957,1.141l8.239,3.146l-1.848,5.293
	c-0.932,2.63-1.481,4.344-1.647,5.143c-0.2,1.032,1.714,4.744,5.742,11.135c4.028,6.325,6.491,9.654,7.39,9.986l4.644,0.101
	l5.093-0.35c-1.365,4.527-1.282,7.573,0.25,9.138l10.386,10.835c6.458,6.325,10.918,9.638,13.381,9.937
	c2.397,0.3,5.909-0.399,10.536-2.098l7.989-3.195c4.993,2.33,10.253,4.095,15.779,5.293l16.228,2.746
	c0.899,2.996,1.914,5.593,3.046,7.789c1.398,2.764,2.846,4.578,4.344,5.443c1.698,0.998,8.355,1.531,19.972,1.598
	c11.752,0.066,18.293-0.466,19.624-1.598c1.065-0.898,3.079-3.362,6.042-7.391l4.793-6.49c3.362-0.666,8.072-2.147,14.131-4.444
	l3.994,3.296c2.33,1.997,3.995,2.879,4.994,2.646c1.331-0.3,6.475-2.613,15.429-6.941c9.021-4.36,13.981-6.939,14.88-7.739
	c0.766-0.632,1.182-2.68,1.248-6.142l0.15-5.842l12.232-8.639l6.192,1.848c3.595,1.132,5.958,1.432,7.09,0.898
	c1.631-0.766,5.659-4.061,12.084-9.887c6.657-5.991,10.003-9.553,10.036-10.685c0.066-1.032-0.898-4.111-2.896-9.237l-2.904-6.979
	c3.514,0.397,7.623,0.694,12.342,0.887c6.358,0.232,10.187,0.232,11.484,0c1.931-0.366,3.745-1.598,5.442-3.695
	c1.564-1.931,2.597-4.012,3.096-6.241c0.433-2.03,0.483-4.145,0.15-6.342c-0.399-2.463-1.215-4.128-2.447-4.993
	c-0.932-0.699-3.795-2.246-8.588-4.644c-2.655-1.319-5.155-2.511-7.513-3.584c2.141-0.183,4.376-0.386,6.714-0.61
	c24.167-2.33,37.865-4.178,41.094-5.543c2.696-1.131,4.744-3.312,6.142-6.541c1.198-2.796,1.814-6.024,1.848-9.687
	C401.627,155.504,401.145,152.259,400.179,149.196z"/>
</svg>
