<?xml version="1.0" encoding="utf-8"?>
<!-- Generator: Adobe Illustrator 16.0.0, SVG Export Plug-In . SVG Version: 6.00 Build 0)  -->
<!DOCTYPE svg PUBLIC "-//W3C//DTD SVG 1.1//EN" "http://www.w3.org/Graphics/SVG/1.1/DTD/svg11.dtd">
<svg version="1.1" id="图层_1" xmlns="http://www.w3.org/2000/svg" xmlns:xlink="http://www.w3.org/1999/xlink" x="0px" y="0px"
	 width="363px" height="287px" viewBox="0 0 363 287" enable-background="new 0 0 363 287" xml:space="preserve">
<path d="M360.867,9.191c-0.166-5.429-0.882-8.426-2.147-8.992c-1.565-0.7-5.496,0.5-11.79,3.597
	c-5.861,2.897-12.622,6.844-20.282,11.84c-18.251,11.989-29.675,21.581-34.271,28.775c-3.496,5.495-5.012,11.99-4.546,19.483
	c0.45,7.159,2.713,13.083,6.75,17.796c-1.925,0.625-4.056,0.973-6.4,1.037c-4.329,0.1-10.99-0.899-19.982-2.997
	c-11.989-2.831-20.132-4.58-24.429-5.246c-10.092-1.532-19.316-1.665-27.676-0.399c-11.656,1.765-22.031,5.262-31.123,10.491
	c-4.31,2.479-8.37,5.397-12.209,8.704c1.875-7.559,1.767-13.209-0.33-16.946c-0.666-1.199-1.648-2.048-2.947-2.548l-2.076-0.15
	c0.857-6.46,0.869-13.104,0.028-19.932c-0.733-5.829-2.032-10.641-3.896-14.438c-1.932-3.863-4.13-5.995-6.594-6.395
	c-3.364-0.533-7.194,1.266-11.49,5.396c-4.263,4.063-8.243,9.691-11.939,16.885c-7.078,13.726-10.934,27.854-11.575,42.384
	c-6.447-0.831-13.088-1.27-19.948-1.27c-14.388,0-27.959,2.415-40.715,7.244c-12.189,4.629-22.913,11.173-32.172,19.633
	c-9.125,8.326-16.186,17.917-21.182,28.775c-5.062,11.091-7.593,22.696-7.593,34.819c0,10.357,1.465,19.117,4.396,26.277
	c2.998,7.26,7.91,13.955,14.737,20.082c0.553,0.495,1.109,0.948,1.668,1.368c2.909,2.954,6.43,5.779,10.571,8.474
	c2.93,1.868,5.903,3.499,8.913,4.92c-0.271,2.66-0.494,7.13-0.67,13.414c-0.266,9.691,0.217,14.838,1.449,15.437
	c1.432,0.733,5.595-2.081,12.489-8.442c5.313-4.863,8.909-8.501,10.829-10.944c8.876,2.512,16.016,4.117,21.394,4.8
	c6.711,0.813,15.492,0.875,26.315,0.191c3.396,6.164,6.863,11.585,10.403,16.244c3.83,5.063,6.444,7.527,7.843,7.394
	c1.199-0.134,3.047-4.546,5.545-13.238c1.898-6.704,3.092-11.574,3.59-14.632c3.7-0.63,8.404-1.791,14.144-3.502
	c6.222-1.865,10.539-3.432,12.959-4.702c10.077-3.704,19.23-11.093,27.456-22.175c0.579-0.784,1.141-1.569,1.685-2.357
	c4.501-2.431,10.203-4.151,17.149-5.137l25.577-1.898c11.324-0.799,20.815-2.264,28.476-4.396
	c10.724-3.03,20.349-7.86,28.875-14.487c11.923-9.292,19.699-20.083,23.329-32.372c2.798-9.458,3.214-20.499,1.249-33.121
	c-0.633-4.196-1.682-9.358-3.147-15.486l-3.247-14.038c-1.101-5.343-1.57-9.879-1.422-13.623c6.61,0.724,12.965-0.268,19.057-3.012
	c7.061-3.164,12.307-8.043,15.736-14.637c5.729-10.991,9.742-25.828,12.04-44.511C360.685,21.064,361.067,14.586,360.867,9.191z"/>
</svg>
