<?xml version="1.0" encoding="utf-8"?>
<!-- Generator: Adobe Illustrator 16.0.0, SVG Export Plug-In . SVG Version: 6.00 Build 0)  -->
<!DOCTYPE svg PUBLIC "-//W3C//DTD SVG 1.1//EN" "http://www.w3.org/Graphics/SVG/1.1/DTD/svg11.dtd">
<svg version="1.1" id="图层_1" xmlns="http://www.w3.org/2000/svg" xmlns:xlink="http://www.w3.org/1999/xlink" x="0px" y="0px"
	 width="307px" height="302px" viewBox="0 0 307 302" enable-background="new 0 0 307 302" xml:space="preserve">
<path d="M298.346,154.277c-4.606-5.613-8.535-9.235-11.803-10.914c-1.534-1.604-3.203-3.17-5.009-4.696
	c-5.87-5.103-10.14-9.89-12.808-14.359c-4.229-7.1-6.676-15.918-7.374-26.423c0.005-0.021,0.009-0.042,0.014-0.063
	c3.795-1.487,6.916-3.647,9.36-6.485c3.635-4.203,5.875-10.089,6.754-17.616c4.451-2.042,8.305-5.857,11.559-11.453
	c2.268-3.936,3.719-8.105,4.354-12.508c0.633-4.536,0.266-8.672-1.102-12.408c-0.768-2.068-1.885-3.052-3.352-2.952
	c-1.334,0.066-2.502,0.934-3.502,2.602c-2.603,4.436-5.904,7.838-9.907,10.207c-0.846,0.506-1.695,0.937-2.549,1.317
	c-2.862-13.629-2.004-24.182,2.599-31.637c3.203-5.203,4.07-9.323,2.602-12.358c-1.567-3.269-5.586-4.753-12.057-4.453
	c-8.273,0.4-15.979,2.802-23.115,7.205c-8.006,4.937-13.81,11.574-17.412,19.913c-6.471,14.843-8.322,29.853-5.553,45.029
	c0.783,4.287,1.993,8.087,3.617,11.416c-3.602,5.811-5.242,11.794-4.869,17.953c0.254,3.948,1.334,7.325,3.191,10.162
	c-1.71,3.959-4.565,7.712-8.595,11.252c-2.854,2.479-5.887,4.544-9.099,6.196c5.334-5.67,7.859-11.372,7.548-17.103
	c-0.339-7-4.85-13.771-13.513-20.315c0.445-9.805-0.151-22.44-1.797-37.923c-1.701-15.877-3.719-27.484-6.055-34.823
	c-0.666-2.101-1.367-3.202-2.102-3.302c-0.733-0.134-1.768,0.684-3.102,2.451c-4.069,5.504-8.639,13.776-13.709,24.816
	c-5.719,12.401-9.765,23.771-12.172,34.13c-2.877-0.013-6.067,0.229-9.592,0.743c-5.071,0.737-9.498,1.918-13.301,3.528
	c-5.692-8.515-12.773-17.227-21.271-26.143c-8.606-9.006-15.594-15.043-20.964-18.112c-2.335-1.334-3.819-1.801-4.453-1.401
	c-0.667,0.367-0.951,1.868-0.851,4.503c0.267,7.171,2.501,18.329,6.704,33.472c3.727,13.399,7.299,24.127,10.717,32.203
	c-5.347,8.106-7.12,15.834-5.313,23.184c1.654,6.807,6.241,12.302,13.761,16.485c-9.807-1.788-17.896-5.165-24.27-10.131
	c0.722-2.72,0.828-5.669,0.302-8.855c-1.154-6.861-4.92-12.439-11.282-16.742c0.134-2.376,0.081-4.897-0.175-7.574
	c-1.167-12.341-5.887-24.733-14.16-37.174c-5.57-8.339-13.042-14.659-22.415-18.962c-10.473-4.836-20.813-5.804-31.02-2.902
	c-6.571,1.868-10.29,4.537-11.157,8.005c-0.867,3.436,1.217,6.771,6.254,10.006c4.77,3.036,8.055,7.455,9.856,13.259
	c1.453,4.748,1.944,10.695,1.49,17.82c-0.468-0.042-0.934-0.088-1.39-0.158c-4.336-0.701-7.955-2.619-10.857-5.754
	c-1.067-1.167-2.235-1.568-3.502-1.201c-1.434,0.4-2.251,1.751-2.452,4.053c-0.6,7.538,2.218,14.243,8.456,20.113
	c4.414,4.165,9.421,6.735,15.018,7.72c3.74,9.224,10.202,15.229,19.405,17.997c2.379,0.706,4.71,1.139,6.994,1.312
	c0.393,0.872,0.826,1.699,1.297,2.484c1.694,8.917,1.186,18.091-1.537,27.524c-1.701,5.971-4.736,12.941-9.106,20.913
	c-0.374,0.671-0.794,1.523-1.255,2.544c-0.395,0.537-0.78,1.099-1.146,1.709c-2.102,3.469-3.902,7.988-5.403,13.559
	c-1.635,6.07-1.785,9.74-0.451,11.008c1.067,0.967,4.37-0.167,9.907-3.402c3.971-2.314,7.213-4.602,9.743-6.863
	c8.556-2.143,16.355-2.192,23.378-0.092c7.266,2.199,12.991,6.509,17.212,12.878c-1.393-0.189-2.857-0.285-4.404-0.27
	c-5.337,0.034-10.09,1.084-14.259,3.152c-2.201,1.067-3.135,2.019-2.802,2.852c0.3,0.768,1.701,1.552,4.203,2.352
	c2.635,0.834,5.053,1.835,7.255,3.002c2.642,1.405,5.475,3.267,8.496,5.571c0.009,1.838,0.316,3.667,0.96,5.486
	c1.468,4.27,4.336,7.521,8.605,9.756c3.836,2.035,8.005,2.385,12.508,1.051c4.67-1.434,7.922-4.236,9.756-8.405
	c1.611-3.617,1.919-7.401,0.955-11.351c2.006-0.865,3.449-2.194,4.299-4.01c1.301-2.731,1.547-5.479,0.755-8.242
	c0.726-2.746,1.903-5.502,3.547-8.268c2.402-4.037,5.153-6.838,8.255-8.406c1.301-0.634,2.502-0.768,3.603-0.4
	c0.567,0.196,1.151,0.353,1.729,0.525c0.012,0.486,0.033,0.978,0.073,1.477c0.438,5.558,2.362,10.109,5.721,13.689
	c-0.884,1.697-1.502,3.548-1.818,5.572c-0.685,4.453,0.412,8.597,3.245,12.439c-1.21,1.136-2.185,2.484-2.895,4.072
	c-0.033,0.075-0.055,0.148-0.087,0.224c-1.413,0.326-2.819,0.761-4.216,1.327c-6.037,2.401-10.54,6.454-13.509,12.158
	c-2.735,5.236-3.636,10.707-2.702,16.41c0.697,4.494,2.448,8.382,5.226,11.676c-0.73,3.208-1.208,6.966-1.424,11.289
	c-0.233,4.937,0.083,7.538,0.951,7.805c0.801,0.234,2.835-1.033,6.104-3.803c2.628-2.225,4.851-4.346,6.705-6.371
	c5.525,2.235,11.296,2.343,17.311,0.318c6.338-2.168,10.958-5.871,13.859-11.107c3.669-6.504,4.403-13.76,2.201-21.765
	c-0.876-3.182-2.146-5.956-3.795-8.338c0.791-2.661,0.813-5.235,0.076-7.722c1.353-0.615,2.632-1.386,3.819-2.353
	c3.735-3.068,5.87-7.288,6.404-12.658c0.271-2.706-0.153-5.256-1.227-7.66c1.088-0.896,2.121-1.884,3.077-2.997
	c4.437-5.17,6.004-11.073,4.703-17.711c-0.271-1.391-0.641-2.693-1.08-3.936c1.114-0.829,2.19-1.689,3.182-2.619
	c0.434-0.367,1.05-0.483,1.851-0.35c2.969,0.6,5.771,1.801,8.406,3.602c3.068,2.106,5.752,4.938,8.06,8.479
	c-0.109,3.088,0.814,5.736,2.798,7.932c1.407,1.559,3.108,2.567,5.092,3.044c0.115,0.531,0.246,1.065,0.411,1.609
	c1.567,5.303,5.021,9.022,10.356,11.157c4.036,1.601,8.056,1.685,12.059,0.25c3.602-1.268,6.42-3.419,8.455-6.454
	c2.368-3.436,3.068-7.505,2.102-12.208c-0.316-1.506-0.803-2.88-1.419-4.153c0.754-2.898,1.759-5.238,3.02-7.004
	c1.101-1.568,2.785-3.119,5.054-4.653c1.334-0.9,2.001-1.718,2.001-2.452c0-0.867-0.867-1.551-2.602-2.051
	c-3.728-1.038-7.581-0.987-11.562,0.129c1.77-6.952,5.458-13.089,11.111-18.391c5.501-5.153,11.241-7.853,17.219-8.105
	c3.925,1.359,9.053,2.295,15.402,2.802c6.838,0.534,10.49,0.3,10.957-0.7C305.333,163.75,303.215,160.182,298.346,154.277z"/>
</svg>
