<?xml version="1.0" encoding="utf-8"?>
<!-- Generator: Adobe Illustrator 16.0.0, SVG Export Plug-In . SVG Version: 6.00 Build 0)  -->
<!DOCTYPE svg PUBLIC "-//W3C//DTD SVG 1.1//EN" "http://www.w3.org/Graphics/SVG/1.1/DTD/svg11.dtd">
<svg version="1.1" id="图层_1" xmlns="http://www.w3.org/2000/svg" xmlns:xlink="http://www.w3.org/1999/xlink" x="0px" y="0px"
	 width="643px" height="509px" viewBox="0 0 643 509" enable-background="new 0 0 643 509" xml:space="preserve">
<path d="M638.551,309.556c-2.405-9.111-6.525-16.305-12.325-21.615c1.004-3.567,1.916-7.399,2.732-11.509
	c5.196-25.913,1.466-53.607-11.19-83.084c-10.292-23.915-23.932-44.432-40.918-61.552c-1.166-1.166-1.966-2.131-2.398-2.897
	c-0.433-0.799-0.883-2.182-1.349-4.147c-2.065-8.526-5.196-19.385-9.393-32.574c-4.464-13.889-7.511-22.1-9.144-24.631
	c-1.132-1.699-4.213-3.747-9.242-6.145c-4.763-2.332-10.126-4.413-16.088-6.245c-14.654-4.53-22.998-5.08-25.03-1.649
	c-0.333,0.533-0.899,1.782-1.698,3.747l-2.798,6.045c-1.232,2.465-2.698,4.879-4.396,7.244c-1.543,2.2-3.554,4.72-6.026,7.556
	l-12.209-1.161l-14.056-1.874c-0.095-0.292-0.188-0.579-0.283-0.874l-4.896-15.088c-0.866-2.498-1.865-4.396-2.998-5.695
	c-1.132-1.266-2.881-2.531-5.245-3.797c-3.031-1.599-8.511-3.231-16.438-4.896c-10.559-2.198-19.185-2.564-25.88-1.099
	c-1.099,0.233-2.098,0.849-2.997,1.849c-0.833,0.966-1.449,2.098-1.849,3.397c-2.332,7.661-6.412,17.187-12.24,28.578
	c-3.151,6.181-6.094,11.454-8.831,15.835c-1.699-3.742-5.382-10.383-11.054-19.932l-10.791-18.085
	c-1.633-3.298-11.541-8.71-29.728-16.237c-16.986-7.028-27.778-10.792-32.374-11.291c-2.831-0.3-16.704,4.763-41.617,15.188
	c-26.18,10.958-43.35,19.385-51.51,25.28c-1.624,1.164-3.818,11.778-6.584,31.844c-10.845-4.974-17.235-7.534-19.145-7.663
	c-1.04-0.063-3.543,1.36-7.509,4.266c-0.147-0.093-0.286-0.173-0.435-0.269l-17.786-12.74c-5.462-3.897-23.398-18.452-53.808-43.666
	L53.411,1.897c-2.398-2.032-7.145-2.415-14.239-1.149c-3.098,0.566-7.244,1.649-12.44,3.248c-2.431,0.732-4.28,1.565-5.545,2.498
	c-1.232,0.899-2.315,2.182-3.248,3.847c-1.066,1.898-2.132,5.213-3.197,9.942c-1.166,5.263-1.249,8.394-0.25,9.393
	c5.695,5.695,17.903,18.769,36.621,39.219c24.88,27.179,41.584,46.53,50.111,58.054c3.264,4.463,5.929,9.326,7.994,14.589
	c0.835,2.116,1.687,4.609,2.553,7.435c-6.006,6.124-9.326,10.243-9.947,12.349c-0.4,1.333,3.497,13.573,11.69,36.721
	c6.965,19.682,11.554,31.71,13.768,36.09c-2.314,3.79-4.488,8.213-6.523,13.271l-3.597,9.642c-0.766,1.699-1.199,3.331-1.299,4.896
	c-0.066,1.599,0.2,3.381,0.8,5.346l2.114,7.526c-3.206,4.724-6.364,10.114-9.473,16.175c-2.955,0.48-6.272,0.729-9.978,0.729
	l-45.215-3.696l-39.619-3.748c-2.698,0-5.695,2.016-8.993,6.045c-3.43,4.264-5.212,8.544-5.346,12.84
	c-0.033,1.066,1.033,4.197,3.198,9.394c2.332,5.528,4.063,8.36,5.196,8.493c8.293,0.865,23.648,3.248,46.064,7.145
	c23.182,3.996,36.721,6.711,40.618,8.144l12.356,4.31c1.19,1.852,2.475,3.803,3.881,5.883c8.993,13.289,14.722,20.65,17.187,22.082
	c1.851,1.071,6.324,1.414,13.38,1.038c0.032,2.898,0.999,10.124,2.907,21.694c2.165,13.057,3.797,20.351,4.896,21.883
	c0.366,0.532,7.211,2.914,20.534,7.145c13.689,4.396,21.883,6.678,24.581,6.844c1.139,0.062,3.294-0.988,6.456-3.137
	c3.363,6.072,7.701,12.081,13.029,18.025c1.571,1.743,2.987,3.224,4.252,4.448c-0.092,2.152-0.21,4.515-0.355,7.093l-1.749,27.429
	c-0.367,7.894-0.55,12.673-0.55,14.339c0.033,4.463,0.533,7.178,1.499,8.144l3.047,2.447c1.865,1.232,3.581,1.832,5.146,1.799
	c1.898-0.066,3.78-0.883,5.646-2.448c1.432-1.232,2.631-2.664,3.597-4.296c1.166-1.999,3.131-11.808,5.896-29.427
	c1.452-9.258,2.776-16.641,3.974-22.176c1.323-0.186,2.695-0.387,4.12-0.606c10.325-1.565,15.821-2.715,16.487-3.447
	c1.466-1.565,4.43-7.228,8.893-16.987c0.558-1.227,1.077-2.387,1.56-3.484c3.704-0.498,7.347-1.086,10.932-1.763l3.346,11.243
	c1.432,4.662,2.398,7.544,2.897,8.643c0.7,1.532,1.366,2.515,1.999,2.948c0.466,0.333,1.565,0.683,3.297,1.049
	c3.797,0.866,16.804,4.213,39.02,10.042l36.871,9.643l6.744-0.2c0.866-0.999,0.35-2.98-1.549-5.945
	c-1.765-2.731-9.726-13.655-23.881-32.774l-22.683-30.676c-0.898-1.266-1.798-2.049-2.697-2.348l-5.446-0.449
	c-2.531-0.101-5.662-0.117-9.393-0.051l-11.227,0.654c0.147-4.344,0.027-6.952-0.364-7.799c-0.533-1.133-4.063-4.629-10.591-10.491
	c-6.628-5.962-10.442-8.977-11.441-9.043c-0.699-0.033-3.247,0.616-7.644,1.948c-3.58,1.042-6.593,2.008-9.059,2.899
	c-0.662-0.808-1.257-1.279-1.783-1.4c-0.508-0.121-1.061-0.231-1.638-0.338c0.131-2.069,0.31-8.458,0.539-19.196
	c0.042-1.766,0.08-3.409,0.114-4.953l13.625-0.643c2.665-0.167,4.93-1.582,6.795-4.247c1.499-2.165,2.248-4.163,2.248-5.995
	c0-3.031-1.315-5.063-3.947-6.096c-0.667-0.266-3.514-0.816-8.543-1.648l-29.827-4.746c-14.059-2.319-24.193-4.244-30.424-5.775
	c7.397-3.499,12.843-6.343,16.286-8.514c1.332-0.832,2.381-1.998,3.147-3.497c0.6-1.132,1.282-2.997,2.048-5.596l4.347-14.538
	c1.606-5.578,3.039-11.142,4.315-16.692c6.932,5.562,14.971,12.127,24.163,19.739l39.869,33.225
	c1.798,1.365,5.545,0.416,11.24-2.848c3.697-2.1,7.328-4.58,10.892-7.445c0.767-0.6,1.433-1.748,1.999-3.447
	c0.6-1.765,0.749-3.23,0.449-4.396c-0.131-0.512-0.284-1.051-0.433-1.584l1.932-0.664c3.397-1.432,7.261-2.098,11.591-1.998
	c5.929,0.133,10.492,1.998,13.689,5.596c3.397,3.863,6.028,9.242,7.894,16.137c1.898,7.095,2.132,12.807,0.699,17.137
	c-0.666,1.998,2.915,6.146,10.742,12.44c5.962,4.796,11.091,8.477,15.388,11.042c1.166,0.699,2.198,1.016,3.098,0.949
	c0.666-0.033,1.815-0.417,3.447-1.15c7.728-3.33,12.124-5.212,13.189-5.645c6.661-2.564,10.592-3.447,11.791-2.648
	c18.918,12.457,40.035,20.884,63.35,25.28c20.118,3.797,40.868,4.464,62.251,1.999c18.586-2.133,35.572-6.329,50.96-12.591
	c6.74-2.747,12.478-5.588,17.234-8.521c9.163-4.558,15.615-11.253,19.337-20.106C640.898,329.99,641.382,320.147,638.551,309.556z
	 M229.496,371.106l-2.322-7.193l-4.896-13.789c-0.229-0.558-1.138-1.217-2.717-1.977c6.245-0.099,13.351-0.288,21.352-0.571
	l2.606-0.123c-3.736,11.693-6.105,19.232-7.107,22.619C233.888,370.313,231.582,370.658,229.496,371.106z M295.97,260.895
	c-14.93-13.732-24.962-25.131-30.102-34.199c2.631,1.565,4.899,2.848,6.77,3.822c1.366,0.699,8.293-0.6,20.784-3.897
	c9.495-2.496,17.892-5.056,25.212-7.678c2.86,5.421,4.17,11.393,3.915,17.919c-0.433,10.592-4.946,18.269-13.539,23.032
	c-0.766,0.434-1.216,1.016-1.349,1.749l0.149,2.248c0.266,2.33,1.288,5.698,3.058,10.098
	C305.802,269.719,300.828,265.361,295.97,260.895z M253.155,372.726c1.535,0.056,2.883,0.143,4.048,0.262L253.155,372.726z"/>
</svg>
