<?xml version="1.0" encoding="utf-8"?>
<!-- Generator: Adobe Illustrator 16.0.0, SVG Export Plug-In . SVG Version: 6.00 Build 0)  -->
<!DOCTYPE svg PUBLIC "-//W3C//DTD SVG 1.1//EN" "http://www.w3.org/Graphics/SVG/1.1/DTD/svg11.dtd">
<svg version="1.1" id="图层_1" xmlns="http://www.w3.org/2000/svg" xmlns:xlink="http://www.w3.org/1999/xlink" x="0px" y="0px"
	 width="209px" height="196px" viewBox="0 0 209 196" enable-background="new 0 0 209 196" xml:space="preserve">
<path d="M207.215,5.09c-0.199-0.998-1.114-1.863-2.744-2.595c-2.761-1.264-7.235-2.046-13.422-2.345L170.64,0.849
	c-17.125,1.764-30.854,5.404-41.208,10.908c-8.729-3.19-18.609-3.973-29.647-2.326c-9.832,1.467-18.061,4.581-24.707,9.321
	c-14.075-2.873-29.14-2.344-45.2,1.607c-6.387,1.597-12.242,3.559-17.564,5.888c-4.724,2.096-8.1,4.042-10.129,5.838
	c-1.297,1.131-1.913,2.112-1.846,2.944c0.299,4.125,4.541,11.26,12.724,21.406c8.316,10.346,14.288,15.585,17.913,15.718
	c1.399,0.05,3.278-0.565,5.635-1.843c1.308,1.644,3.1,2.944,5.393,3.888c2.48,1.029,5.183,1.487,8.104,1.387
	c0.305,5.511,1.509,9.811,3.623,12.884c3.16,4.591,7.967,7.601,14.42,9.032c1.441,0.316,2.884,0.525,4.328,0.635
	c-6.076,2.26-11.959,5.606-17.651,10.043c-6.586,5.09-9.397,8.948-8.433,11.576c0.931,2.462,4.64,4.059,11.127,4.79
	c5.562,0.597,10.958,0.397,16.193-0.578c-1.399,2.578-2.602,5.076-3.632,7.505c-5.939,0.328-10.238,0.764-12.86,1.307
	c-2.927,0.599-4.474,1.547-4.641,2.844c-0.1,0.898,0.549,2.195,1.946,3.893l3.842,3.692c2.195,2.063,3.326,3.21,3.393,3.442
	l0.149,6.787l-0.05,7.085c0.299,3.061,0.782,4.923,1.447,5.589c0.599,0.565,2.262,0.932,4.99,1.098l3.1-0.206
	c-1.087,1.391-1.996,2.948-2.701,4.696c-0.798,2.063-1.197,3.992-1.197,5.789c0,3.426,1.131,6.553,3.393,9.381
	c2.395,2.994,5.755,5.239,10.079,6.736c2.894,0.998,4.923,1.214,6.088,0.648c0.085-0.041,0.16-0.1,0.239-0.151
	c3.285,1.335,6.598,1.874,9.94,1.599c2.756-0.191,4.822-1.017,6.214-2.464c5.13-0.09,8.974-1.288,11.5-3.624
	c1.787-1.645,2.68-3.61,2.709-5.887c0.663,0.785,1.466,1.409,2.431,1.846c1.295,0.554,2.739,0.751,4.32,0.619
	c0.215,0.289,0.467,0.551,0.77,0.777c1.364,1.031,3.659,1.48,6.886,1.348c3.352-0.133,6.457-1.078,9.312-2.834
	c0.226,0.075,0.465,0.139,0.718,0.189c1.996,0.398,4.291-0.15,6.887-1.646c1.529-0.865,2.943-2.163,4.241-3.893
	c0.997-1.349,1.815-2.834,2.477-4.441c3.695,0.826,5.911,1.164,6.604,0.998c1.031-0.299,1.88-2.078,2.545-5.339l0.799-4.84
	c0.266-1.563,0.531-2.545,0.798-2.944c0.267-0.433,1.58-1.381,3.942-2.844l5.389-3.593c1.497-1.198,2.195-2.429,2.096-3.692
	c-0.133-1.23-1.048-2.362-2.744-3.394c-8.749-4.69-13.34-7.302-13.771-7.834c-0.334-0.366-0.766-1.88-1.298-4.54l-1.796-8.533
	c-1.132-4.891-2.911-11.293-5.34-19.211c-2.586-8.453-4.764-14.74-6.543-18.917c0.662-0.369,1.384-0.762,2.202-1.192
	c0.987-0.519,1.869-1.012,2.651-1.479c1.897-0.408,3.856-1.042,5.881-1.915c7.385-3.16,12.176-8.15,14.371-14.969
	c0.848-2.556,1.092-5.471,0.753-8.733c3.293-1.27,6.184-2.966,8.628-5.139c2.63-2.337,4.616-5.047,5.962-8.128
	c2.276,0.308,3.925,0.311,4.915-0.006c2.762-0.898,6.254-7.368,10.479-19.41C206.45,17.964,208.113,9.647,207.215,5.09z"/>
</svg>
