<?xml version="1.0" encoding="utf-8"?>
<!-- Generator: Adobe Illustrator 16.0.0, SVG Export Plug-In . SVG Version: 6.00 Build 0)  -->
<!DOCTYPE svg PUBLIC "-//W3C//DTD SVG 1.1//EN" "http://www.w3.org/Graphics/SVG/1.1/DTD/svg11.dtd">
<svg version="1.1" id="图层_1" xmlns="http://www.w3.org/2000/svg" xmlns:xlink="http://www.w3.org/1999/xlink" x="0px" y="0px"
	 width="127px" height="137px" viewBox="0 0 127 137" enable-background="new 0 0 127 137" xml:space="preserve">
<path d="M125.204,122.896c-1.388-1.42-3.296-2.002-5.716-1.764c-1.275-0.673-3.415-0.969-6.416-0.891
	c-0.611-0.292-1.092-0.44-1.436-0.44c-0.32,0-0.732,0.134-1.229,0.388l-2.314,0.662l-2.992,0.848
	c-1.797,0.266-3.759,0.049-5.888-0.648c-2.161-0.666-4.006-2.029-5.536-4.091c-1.047-1.378-1.652-2.524-1.832-3.444
	c0.077,0.033,0.16,0.072,0.235,0.104l0.897,0.199c0.267-0.101,0.217-0.448-0.149-1.049c-0.365-0.631-0.631-1.396-0.797-2.293
	c-0.134-0.799-0.15-1.365-0.052-1.697c1.521-3.566,2.418-6.075,2.686-7.528c2.078-1.63,3.836-3.56,5.262-5.795
	c2.69-1.062,5.229-2.882,7.617-5.481c2.395-2.627,4.04-5.336,4.938-8.131c1.363-4.09,1.979-8.279,1.847-12.57
	c-0.073-2.853-0.413-5.038-1.015-6.563c1.309,0.919,2,1.25,2.062,0.976c0.099-0.555-1.504-4.3-4.797-11.219
	c0.087-0.085,0.167-0.164,0.258-0.254l3.192-2.843c1.131-1.23,1.63-2.294,1.496-3.192c-0.398-2.926-0.813-4.955-1.248-6.085
	c-0.286-0.755-0.639-1.304-1.053-1.66c0.229-0.331,0.402-0.789,0.527-1.37c0.441-0.323,1.063-1.022,1.873-2.108l2.145-3.392
	c0.367-0.864,0.367-1.945,0-3.242c-0.166-0.532-0.599-1.23-1.297-2.095l-1.994-2.295l2.842-2.444
	c1.598-1.197,2.978-2.012,4.142-2.444l0.897-0.449c0-0.066-0.267-0.216-0.799-0.449c-3.125-1.363-6.334-1.646-9.627-0.848
	c2.594-7.117,5.205-12.104,7.832-14.964l0.598-0.948l-0.946,0.1c-0.865,0.2-1.979,0.632-3.342,1.297
	c-1.298,0.565-2.429,1.147-3.394,1.746l1.646-3.491c0.232-0.565,0.066-0.749-0.499-0.549l-1.896,1.247l-5.338,5.088
	c-2.129,2.428-3.707,4.972-4.738,7.632c-3.824-4.29-8.147-7.815-12.969-10.575c-3.027-1.696-5.505-2.793-7.435-3.292L80.605,0.44
	c-0.133,0.066-0.032,0.333,0.299,0.798c3.326,5.387,6.253,10.559,8.779,15.513c-5.619-3.092-11.307-4.789-17.059-5.088l-1.497,0.1
	l0.748,0.798c2.461,1.995,4.64,4.207,6.534,6.634c-2.574,0.289-5.313,0.788-8.176,1.454c-2.051-0.758-4.272-1.334-6.688-1.704
	l-6.485-0.299c-2.993,0.366-4.473,1.28-4.439,2.743l-4.789-0.698c-1.472-0.058-2.492,0.097-3.112,0.44
	c-1.915-1.308-3.707-2.229-5.368-2.735l-5.986-0.349c-1.995-1.497-3.475-2.494-4.439-2.993c-0.632-0.333-1.929-0.648-3.891-0.948
	c-2.095-0.266-3.542-0.283-4.339-0.05c-0.366,0.1-0.632,0.299-0.798,0.599l-0.1,0.449c0,0.731,1.463,3.226,4.39,7.482l-6.584-5.836
	c-2.661-2.361-5.122-4.323-7.383-5.886c-1.097-0.765-1.979-0.998-2.644-0.699c-0.665,0.333-1.181,1.48-1.546,3.442
	c-0.299,1.43-0.466,2.86-0.499,4.29c-0.033,1.164,0.216,2.478,0.749,3.941c0.565,1.43,1.313,2.776,2.245,4.04
	c-1.929-1.33-3.359-1.663-4.29-0.998c-1.23,0.898-1.479,3.226-0.748,6.984c0.366,2.028,0.964,3.974,1.796,5.836
	c1.097,2.428,2.793,5.321,5.088,8.68c-0.865,2.66-0.083,6.884,2.344,12.67c0.822,1.947,1.764,3.807,2.798,5.599
	c-1.675-0.822-3.65-1.689-5.941-2.605c-3.824-1.53-6.385-2.262-7.682-2.195l-1.397,0.35c-0.266,0.199-0.416,0.715-0.449,1.546
	c-0.066,1.264,0.416,2.977,1.446,5.138c1.43,2.926,3.559,5.719,6.385,8.381c1.995,1.861,7.432,4.488,16.312,7.881
	c1.122,0.436,2.17,0.834,3.184,1.217l-4.681-0.119c-3.891,0.167-5.953,0.632-6.186,1.396c-0.166,0.598,0.117,1.363,0.848,2.295
	l3.392,3.143c2.294,1.695,4.323,2.494,6.085,2.395c1.929-0.066,4.805-0.582,8.63-1.546l4.988-1.282
	c1.541,2.051,3.362,3.861,5.458,5.437c-0.604,1.44-0.918,3.547-0.918,6.371c0,0.831,0.1,1.879,0.299,3.143l0.449,2.894l-2.893,2.793
	c-0.366,0.332-0.233,0.5,0.399,0.5l2.045,0.248l0.344-0.012l-0.843,2.406c-0.998,2.295-2.344,4.323-4.041,6.086
	c-2.128,2.229-5.869,3.309-11.223,3.242l-5.487,0.299c-1.264,0.399-2.294,1.314-3.093,2.744c-0.489,0.919-0.684,1.822-0.61,2.712
	c-0.147,0.158-0.296,0.313-0.437,0.479c-1.097,1.298-1.813,2.693-2.145,4.19c-0.232,0.997-0.1,1.63,0.399,1.896
	c0.465,0.232,1.264,0.084,2.394-0.448c0.884-0.453,1.718-0.808,2.509-1.075l0.384,0.277l3.442-0.1
	c1.596-0.435,2.81-1.05,3.642-1.847c0.898-0.897,5.171-2.112,12.82-3.644c2.361-0.432,5.586,0.416,9.677,2.545l1.147,0.599
	l2.345,0.2c0.77-0.11,1.426-0.319,2.015-0.589c0.237,0.124,0.451,0.239,0.629,0.34c0.865,0.465,1.43,0.614,1.696,0.448
	c0.333-0.166,0.449-0.814,0.349-1.945l-0.648-2.193c-0.432-0.865-0.964-1.563-1.596-2.097c-0.04-0.033-0.08-0.06-0.12-0.09
	c-0.446-0.624-1.034-1.179-1.775-1.656c-0.973-0.657-2.683-1.032-5.108-1.129c0.41-1.709,0.371-2.866-0.129-3.46
	c-0.333-0.398-0.931-0.648-1.796-0.748h-2.045l-0.065,0.004c0.259-0.505,0.575-1.052,0.963-1.648
	c0.896-1.393,1.807-2.558,2.732-3.519c0.303,0.624,0.638,1.265,1.009,1.921l0.399,0.748l0.35-0.896l1.197-3.941
	c2.661-1.164,4.656-2.145,5.986-2.943c2.076-1.213,3.406-2.348,4.018-3.406c3.734,0.979,7.427,1.471,11.078,1.473
	c0.402,0.684,1.156,1.527,2.264,2.534c1.363,1.264,2.494,2.11,3.393,2.543c0.93,0.5,1.778,1.696,2.543,3.592l0.399,0.549
	l0.328-0.558c0.085,0.627,0.235,1.431,0.47,2.453c0.166,0.697,0.434,0.965,0.799,0.798c1.063,0.467,1.813,1.147,2.244,2.046
	l0.549,2.045h-3.143c-1.695,0.1-3.043,0.35-4.041,0.749c-0.834,0.322-1.348,0.829-1.572,1.5c-0.238,0.218-0.479,0.457-0.722,0.744
	c-0.798,0.965-1.397,2.078-1.796,3.342c-0.332,1.131-0.365,1.813-0.1,2.045l2.145-0.249l1.51-0.482
	c0.192,0.305,0.418,0.521,0.686,0.633c1.23,0.599,2.978,0.449,5.238-0.449c4.057-1.596,6.949-2.244,8.68-1.945l2.293,0.699
	l2.845,1.098l3.491-0.101l3.617-1.108l1.271,0.211l1.496,0.599l1.546,0.799l1.347,0.299c0.459-0.086,0.998-0.407,1.605-0.94
	l3.732,3.285c0.53,0.467,0.863,0.666,0.998,0.6l0.248-1.146c0.199-1.697,0.166-3.275-0.101-4.738
	c-0.127-0.715-0.31-1.352-0.536-1.922l1.186-0.174c0.467-0.065,0.781-0.365,0.947-0.897l0.028-0.366l3.265,0.466
	c0.965,0.066,1.529-0.05,1.695-0.35C126.801,124.941,126.368,124.094,125.204,122.896z"/>
</svg>
