<?xml version="1.0" encoding="utf-8"?>
<!-- Generator: Adobe Illustrator 16.0.0, SVG Export Plug-In . SVG Version: 6.00 Build 0)  -->
<!DOCTYPE svg PUBLIC "-//W3C//DTD SVG 1.1//EN" "http://www.w3.org/Graphics/SVG/1.1/DTD/svg11.dtd">
<svg version="1.1" id="图层_1" xmlns="http://www.w3.org/2000/svg" xmlns:xlink="http://www.w3.org/1999/xlink" x="0px" y="0px"
	 width="218px" height="329px" viewBox="0 0 218 329" enable-background="new 0 0 218 329" xml:space="preserve">
<path d="M216.85,152.922c0.733-3.267,0.9-6.468,0.5-9.602c-0.434-3.501-1.551-6.518-3.351-9.052
	c-3.301-4.701-7.068-8.552-11.303-11.553c-4.501-3.201-8.718-4.817-12.653-4.851c-3-0.033-6.602,1.15-10.802,3.551
	c-4.302,2.434-6.919,4.834-7.853,7.202c-0.833,2.134-0.699,4.334,0.4,6.602c0.833,1.694,1.865,2.878,3.094,3.559
	c0.156,1.586,1.103,3.498,2.857,5.744c0.342,0.439,0.687,0.842,1.033,1.222c-1.281,1.04-2.448,2.031-3.472,2.96
	c-2.694-4.035-5.904-8.292-9.663-12.784c-4.235-5.041-7.794-8.631-10.686-10.785c4.635-2.188,8.838-5.276,12.616-9.25
	c3.032,0.142,5.493,0.103,7.37-0.12c2.334-0.3,4.068-0.933,5.201-1.9c4.168-3.567,7.819-9.919,10.953-19.054
	c3.234-9.436,4.15-16.954,2.751-22.555c-0.4-1.467-1.134-3-2.2-4.601c-1.174-1.701-2.525-3.033-4.034-4.038
	c0.192-2.706,0.284-5.405,0.305-8.1l3.079-0.616c1.166-0.333,1.801-0.633,1.9-0.9c0.133-0.3-0.167-0.984-0.9-2.051l-4.352-5.938
	c-0.157-2.336-0.39-4.556-0.679-6.688l9.331-2.229c1.667-0.433,2.617-1.05,2.851-1.85c0.2-0.634,0-1.684-0.601-3.151
	c-1.366-3.234-3.066-6.718-5.101-10.452c-2.767-5.135-5.484-9.419-8.151-12.853c-4.234-5.435-9.469-8.335-15.704-8.702
	c-5.368-0.333-11.053,1.2-17.054,4.601c-2.601,1.467-5.585,3.484-8.952,6.051c-2.921,2.23-6.861,5.449-11.795,9.633
	c-7.391-2.089-15.593-2.603-24.613-1.531c-3.234,0.367-6.752,1.233-10.553,2.601c-3.354,1.217-6.332,2.616-8.973,4.177l-1.346-0.617
	c0.001-1.015,0.018-2.021,0.066-3.01c0.333-6.635-0.283-10.202-1.85-10.702c-1.5-0.5-4.018,1.833-7.552,7.001
	c-0.451,0.659-0.883,1.346-1.305,2.046C63.152,14.944,53.046,11.092,45.36,8.79c-11.103-3.301-20.821-2.651-29.157,1.95
	C6.868,15.841,1.7,24.91,0.7,37.946C0.2,44.681-0.033,51.116,0,57.25c0.033,6.802,0.417,11.719,1.15,14.753
	c0.433,1.734,1.117,2.801,2.05,3.201l4.401-0.35c6.769-2.101,14.837-3.884,24.206-5.351c8.821-1.35,16.817-2.116,24.013-2.313
	c-0.482,1.223-0.942,2.425-1.376,3.604c-7.036,8.701-10.166,15.94-9.383,21.715c0.7,5.134,3.634,10.919,8.802,17.354
	c3.934,4.901,8.202,9.136,12.803,12.703c1.934,1.534,3.951,2.167,6.051,1.9c0.686-0.06,2.355-0.563,4.991-1.504
	c-0.532,1.571-1.271,3.315-2.24,5.255l-2.851,5.251l-1.484,2.72c-6.768,5.832-12.082,10.93-15.92,15.284
	c-6.802,7.735-10.403,14.487-10.803,20.254c-0.333,4.935,1.034,9.902,4.101,14.904c0.919,1.49,1.951,2.896,3.093,4.216
	c-4.315,5.904-8.168,11.263-11.572,16.092c-4.564,0.696-10.006,0.579-16.326-0.354c-4.601-0.7-7.552,0.083-8.852,2.351
	c-0.833,1.4-0.984,3.201-0.45,5.4c0.867,3.334,2.284,7.285,4.251,11.854c1.253,2.923,2.516,5.603,3.789,8.056
	c-4.547,9.429-3.899,20.611,1.963,33.554c0.403,0.888,0.828,1.748,1.261,2.598c0.245,2.77-0.207,6.086-1.361,9.955
	c-1.034,3.501-2.584,7.252-4.651,11.253l-4.051,8.001c-1.333,3.002-2.034,5.485-2.101,7.452c-0.1,2.468,0.45,5.385,1.65,8.752
	c1.101,3.167,2.167,5.135,3.201,5.901c2.701,2.101,6.752,3.801,12.153,5.102c4.601,1.133,8.619,1.667,12.053,1.6
	c5.768-0.1,12.036-1.184,18.805-3.25c2.367-0.7,4.384-2.234,6.051-4.602c1.534-2.167,2.351-4.384,2.451-6.651
	c0.033-1.233-0.317-2.634-1.05-4.2c-0.5-1.067-1.4-2.602-2.701-4.602l-2.051-3.301l-1.95-3.551c-0.333-0.768-0.633-2.201-0.9-4.301
	c-0.239-1.861-0.313-3.334-0.233-4.454c7.859-1.166,12.838-2.549,14.937-4.147c1.6-1.234,3.268-2.801,5.001-4.701l1.461-1.705
	c3.265-1.333,8.395-2.949,15.393-4.848c9.779-2.643,18.547-4.455,26.309-5.443c6.497,1.601,12.616,4.272,18.352,8.045
	c5.567,3.634,8.569,6.635,9.002,9.002c0.3,1.467,0.583,4.251,0.851,8.352c0.166,2.5,0.35,4.102,0.55,4.801
	c0.4,1.268,1.834,2.617,4.302,4.051c2.367,1.367,4.584,2.201,6.65,2.501l11.104,0.95l9.302,0.301l9.952-0.351
	c4.501-0.233,7.502-0.684,9.002-1.351c1.066-0.434,1.984-1.2,2.751-2.301c0.899-1.232,1.417-2.6,1.55-4.101
	c0.167-2.034-0.116-4.051-0.85-6.052c-0.801-2.267-2-3.917-3.602-4.951c-0.333-0.199-0.982-0.5-1.95-0.899l-2.251-0.95
	c-2.867-1.4-5.067-2.751-6.601-4.051c-1.926-1.596-3.102-3.271-3.552-5.026c6.771-8.63,10.028-16.824,9.753-24.581
	c-0.167-4.635-1.851-9.519-5.052-14.653c-1.467-2.333-4.5-6.317-9.102-11.952l-3.461-4.412c0.784-6.513,0.49-12.943-0.891-19.294
	c-0.568-2.591-1.443-5.574-2.612-8.929c6.165-3.008,13.162-7.9,21.017-14.727C208.932,168.81,215.116,160.424,216.85,152.922z"/>
</svg>
