<?xml version="1.0" encoding="utf-8"?>
<!-- Generator: Adobe Illustrator 16.0.0, SVG Export Plug-In . SVG Version: 6.00 Build 0)  -->
<!DOCTYPE svg PUBLIC "-//W3C//DTD SVG 1.1//EN" "http://www.w3.org/Graphics/SVG/1.1/DTD/svg11.dtd">
<svg version="1.1" id="图层_1" xmlns="http://www.w3.org/2000/svg" xmlns:xlink="http://www.w3.org/1999/xlink" x="0px" y="0px"
	 width="195px" height="134px" viewBox="0 0 195 134" enable-background="new 0 0 195 134" xml:space="preserve">
<path d="M191.155,46.678c-2.095-4.189-5.021-7.63-8.777-10.323c-3.724-2.66-7.829-4.355-12.317-5.087
	c-4.555-0.765-8.927-0.449-13.115,0.948c-2.361,0.765-5.104,2.178-8.229,4.239c-1.93,1.23-4.788,3.292-8.578,6.184
	c-6.018,4.588-10.439,7.746-13.266,9.475c-5.135,3.1-9.837,5.004-14.116,5.746c-1.617-5.489-4.07-10.49-7.347-15.011l2.961-9.735
	c0.366-1.396,0.433-2.194,0.199-2.394l-2.344,0.299l-9.138,2.853c-6.686-5.722-14.441-9.497-23.264-11.322L69.672,2.294
	C69.307,0.831,68.975,0.066,68.675,0c-0.333-0.033-0.865,0.682-1.596,2.145l-8.734,19.498c-2.174,0.213-4.543,0.607-7.125,1.198
	c-2.923,0.663-5.559,1.484-7.936,2.448c-4.547-5.124-7.326-8.14-8.321-9.031c-0.998-0.897-1.58-1.263-1.746-1.097
	c-0.166,0.167-0.233,1.097-0.2,2.793l1.05,12.043c-4.111,2.703-8.136,6.492-12.071,11.396l-9.326-2.443l-6.832-1.696l-2.294,0.15
	c-0.133,0.366,0.249,1.296,1.147,2.792l3.939,5.885l5.049,7.329L2.398,56.652c-1.33,0.399-1.995,0.765-1.995,1.097
	c-0.033,0.299,0.482,0.864,1.546,1.695l9.092,6.783c-0.767,5.071-0.739,10.058,0.084,14.96c0.69,4.222,1.953,8.267,3.778,12.139
	c-0.757,1.032-2.243,3.408-4.477,7.161c-0.964,1.63-1.346,2.593-1.147,2.893c0.2,0.333,1.363,0.515,3.491,0.548l8.774-0.191
	c0.174,0.213,0.335,0.429,0.513,0.641c-0.776,2.381-2.042,6.815-3.801,13.315c-0.632,2.526-0.814,4.007-0.548,4.438
	c0.332,0.565,1.513,0.217,3.541-1.047c2.973-1.815,6.543-4.347,10.694-7.576c5.28,3.769,11.103,6.453,17.482,8.024
	c2.775,0.688,5.589,1.14,8.44,1.372c5.592,7.354,8.851,10.976,9.762,10.846c0.927-0.128,2.025-3.914,3.292-11.338
	c0.2-0.03,0.398-0.05,0.598-0.082c6.184-0.964,12.152-3.108,17.903-6.434c5.829-3.365,10.695-7.546,14.624-12.52l6.621,1.051
	l10.223,1.346c1.197,0.1,1.861-0.083,1.995-0.549c0.166-0.465-0.216-1.313-1.147-2.543l-10.22-11.872
	c1.844-4.858,2.944-9.763,3.291-14.714c5.676-0.104,10.798,0.573,15.356,2.05c2.561,0.831,6.982,2.793,13.266,5.885
	c4.888,2.394,8.661,4.04,11.32,4.937c4.422,1.53,8.461,2.178,12.119,1.945c9.607-0.531,16.839-4.139,21.693-10.821
	c3.989-5.452,5.934-12.052,5.834-19.798C194.363,55.405,193.283,50.867,191.155,46.678z M70.641,57.823
	c4.591-0.176,9.122-0.042,13.589,0.415L70.641,57.823z"/>
</svg>
