<?xml version="1.0" encoding="utf-8"?>
<!-- Generator: Adobe Illustrator 16.0.0, SVG Export Plug-In . SVG Version: 6.00 Build 0)  -->
<!DOCTYPE svg PUBLIC "-//W3C//DTD SVG 1.1//EN" "http://www.w3.org/Graphics/SVG/1.1/DTD/svg11.dtd">
<svg version="1.1" id="图层_1" xmlns="http://www.w3.org/2000/svg" xmlns:xlink="http://www.w3.org/1999/xlink" x="0px" y="0px"
	 width="188px" height="195px" viewBox="0 0 188 195" enable-background="new 0 0 188 195" xml:space="preserve">
<path d="M186.657,168.939c-0.731-3.993-4.942-7.121-12.63-9.385c-7.389-2.164-14.078-5.01-20.069-8.537
	c-0.237-0.141-0.459-0.285-0.692-0.427c3.729-4.895,6.245-10.238,7.556-16.031c5.062,2.24,9.389,3.378,12.956,3.378
	c3.063,0,5.691-0.715,7.888-2.146c2.529-1.664,3.878-4.01,4.044-7.039c0.199-3.096-1.614-5.358-5.441-6.789
	c-1.864-0.666-5.875-1.448-12.031-2.347l-6.925-1.175c-1.216-6.576-4.375-12.672-9.471-18.288c0.763-1.27,0.744-3.507-0.079-6.747
	c-0.933-3.694-2.164-6.357-3.695-7.988c-2.163-2.296-6.49-4.726-12.979-7.289c-6.657-2.629-10.967-3.495-12.931-2.596
	c-1.29,0.576-2.471,1.222-3.596,1.902c3.313-25.919,2.406-45.337-2.744-58.215C110.691,6.407,101.339,0,87.76,0
	C77.642,0,69.321,3.478,62.798,10.434c-6.024,6.423-9.036,13.912-9.036,22.465c0,5.492,1.448,10.101,4.344,13.829
	c2.896,3.694,6.44,5.542,10.633,5.542l9.086-0.999l7.389-0.999c1.498,0,2.929,0.383,4.293,1.148
	c1.198,0.666,2.197,1.531,2.996,2.596c1.897,2.529,2.529,6.972,1.897,13.329c-0.296,2.817-0.875,6.181-1.717,10.046
	c-1.53,0.459-3.012,1.044-4.442,1.769c-2.431,0.469-4.902,1.115-7.412,1.922c-0.795-1.439-2.456-2.625-5-3.553
	c-2.53-0.932-4.843-1.265-6.939-0.999c-4.094,0.533-8.637,2.663-13.629,6.39c-4.793,3.595-7.705,6.873-8.737,9.835
	c-0.499,1.331-0.832,3.511-0.999,6.54c-0.163,2.943-0.084,4.965,0.234,6.076c-1.601,2.127-3.008,4.307-4.197,6.544
	c-1.718,0.843-3.294,1.94-4.723,3.306c-1.502,1.424-2.699,3.029-3.612,4.802l-0.282,0.091c-5.225,1.564-9.801,2.396-13.729,2.496
	c-4.926,0.133-8.586,0.499-10.983,1.098c-5.259,1.332-7.888,3.895-7.888,7.689c0,3.328,1.165,5.94,3.495,7.838
	c2.396,1.996,5.791,2.994,10.184,2.994c2.696,0,5.542-0.416,8.537-1.248l7.788-2.195l2.41-0.492c0.852,1.979,2.015,3.733,3.53,5.234
	c0.462,0.449,0.952,0.859,1.455,1.248c0.427,0.434,0.863,0.844,1.31,1.226c2.213,5.144,5.805,9.8,10.789,13.964
	c-5.637,5.331-11.914,9.498-18.845,12.468c-4.893,2.097-8.271,4.16-10.135,6.19c-1.864,1.997-2.795,4.526-2.795,7.588
	c0,2.764,1.048,4.91,3.145,6.441c2.13,1.563,5.159,2.346,9.086,2.346c7.888,0,14.927-3.012,21.118-9.036l12.73-13.729
	c0.233-0.242,0.459-0.461,0.691-0.696c3.919,1.626,8.247,2.444,12.988,2.444c1.333,0,2.585-0.08,3.759-0.236
	c4.87,0.789,10.023,1.185,15.461,1.185c9.272,0,17.789-1.229,25.555-3.68c0.349,0.016,0.691,0.036,1.055,0.036
	c5.504,0,10.688-2.143,15.553-6.413c2.719,1.563,5.271,3.285,7.611,5.214c9.852,8.188,18.389,12.281,25.611,12.281
	c4.393,0,8.037-1.397,10.933-4.193C186.225,175.414,187.323,172.335,186.657,168.939z"/>
</svg>
