<?xml version="1.0" encoding="utf-8"?>
<!-- Generator: Adobe Illustrator 16.0.0, SVG Export Plug-In . SVG Version: 6.00 Build 0)  -->
<!DOCTYPE svg PUBLIC "-//W3C//DTD SVG 1.1//EN" "http://www.w3.org/Graphics/SVG/1.1/DTD/svg11.dtd">
<svg version="1.1" id="图层_1" xmlns="http://www.w3.org/2000/svg" xmlns:xlink="http://www.w3.org/1999/xlink" x="0px" y="0px"
	 width="339px" height="337px" viewBox="0 0 339 337" enable-background="new 0 0 339 337" xml:space="preserve">
<path d="M335.076,126.875c-1.965-2.798-5.696-4.63-11.193-5.497c-5.463-0.833-11.793-0.566-18.988,0.799
	c-6.099,1.164-13.985,3.97-23.642,8.402c2.225-1.724,4.9-3.786,8.051-6.203c5.397-4.131,9.628-8.278,12.692-12.442
	c4.23-5.863,3.998-9.028-0.699-9.495l-6.347,0.3l-5.146,0.55c-2.565-0.133-4.598-0.866-6.097-2.199
	c-0.705-0.626-1.42-1.56-2.145-2.779c0.089-0.96,0.015-1.958-0.229-2.993c1.571-1.527,2.914-3.809,4.022-6.871
	c0.811-2.248,1.248-4.379,1.354-6.407c1.512-1.224,3.013-2.413,4.494-3.537c3.631-2.732,6.046-5.63,7.245-8.695
	c1.199-2.999,1.149-5.88-0.149-8.645c-0.252-0.532-0.584-1.008-0.981-1.437c-0.318-0.447-0.689-0.836-1.118-1.162
	c-5.43-3.998-13.975-4.864-25.635-2.598c-11.959,2.332-23.769,7.379-35.429,15.141c-13.093,8.695-23.419,19.272-30.981,31.731
	c-3.935,6.493-6.924,13.247-8.984,20.257c-1.491-1.487-3.061-2.909-4.707-4.267c-5.929-4.876-12.367-8.413-19.298-10.65
	c0.549-2.447,0.976-4.861,1.259-7.239c3.264-0.667,5.763-2.115,7.494-4.347c1.566-1.999,2.332-4.348,2.299-7.046
	c-0.066-2.599-0.865-4.947-2.398-7.046c-1.599-2.266-3.73-3.765-6.396-4.498c-3.63-1-6.962-0.549-9.993,1.349
	c-2.765,1.732-4.464,4.064-5.097,6.996c-0.5,2.398-0.35,4.664,0.45,6.796c0.833,2.332,2.282,4.098,4.347,5.297
	c-0.281,2.362-0.739,4.888-1.352,7.559c-7.128-1.048-14.717-0.884-22.783,0.537c-6.518,1.141-12.507,3.163-17.983,6.041
	c-2.769-3.854-5.344-8.068-7.702-12.687c-5.796-11.393-9.328-23.169-10.594-35.329v-0.05c0-0.8,0.85-1.699,2.549-2.699
	c1.865-1.132,4.297-1.682,7.295-1.649c2.199,0.033,4.264,0.333,6.196,0.899c4.697,1.399,7.279,1.183,7.746-0.649
	c0.6-2.365-1.683-7.979-6.846-16.84c-0.533-0.899,0.55-6.33,3.248-16.291c2.999-11.126,4.531-18.605,4.598-22.437
	c0.033-3.398-0.716-4.997-2.249-4.797c-1.932,0.233-5.413,3.131-10.444,8.695c-3.098,3.398-8.461,10.694-16.09,21.887
	c-4.764,6.962-8.678,10.494-11.743,10.594c-2.731,0.1-7.412-2.815-14.042-8.745c-5.93-5.264-11.327-10.96-16.19-17.09l-3.298-4.098
	l-2.948-0.05c-2.565,2.432-1.982,8.495,1.749,18.189l4.897,11.593c1.932,4.431,3.165,7.546,3.698,9.345
	c0.066,0.2-0.716,2.265-2.349,6.196c-1.699,4.131-2.548,6.896-2.548,8.295c0,1.666,0.233,2.798,0.699,3.398
	c0.4,0.466,0.933,0.7,1.599,0.7l2.299-0.35c3.564-0.899,6.813-1.449,9.744-1.649c3.665-0.233,6.229,0.133,7.695,1.1
	c0.733,0.466,1.266,1.166,1.599,2.099c0.3,0.766,0.55,2.016,0.75,3.748c1.966,14.924,4.498,27.917,7.596,38.977
	c0.599,2.132,1.227,4.218,1.876,6.272c-0.821-0.786-1.663-1.554-2.52-2.31c-1.571-2.269-3.091-4.551-4.503-6.86
	c1.532-4.764,1.299-8.528-0.7-11.293c-1.865-2.532-4.531-4.015-7.995-4.447c-3.864-0.433-7.063,0.816-9.594,3.748
	c-0.838,0.949-1.428,2.074-1.813,3.344c-7.061-3.008-14.068-4.842-21.023-5.493c-10.327-0.933-17.89,0.95-22.687,5.647
	c-0.25,0.25-0.455,0.53-0.636,0.823c-0.467,0.574-0.854,1.19-1.113,1.875c-1,2.665-0.2,5.913,2.398,9.744
	c0.738,1.071,1.498,2.047,2.279,2.936c-1.164-0.875-2.309-1.83-3.428-2.885c-1.599-1.533-2.715-2.232-3.348-2.099
	c-0.633,0.133-0.917,1.183-0.85,3.148c0.267,5.13,2.115,9.561,5.546,13.292c1.582,1.698,2.997,2.888,4.255,3.603
	c-0.021,0.382-0.024,0.746-0.005,1.087c-0.847,0.222-1.996,0.357-3.45,0.407c-3.465,0.133-6.913-0.5-10.344-1.899
	c-4.498-1.799-6.979-1.466-7.446,1c-0.4,2.065,0.517,4.863,2.749,8.395c2.032,3.252,5.434,6.583,10.155,9.989
	c-2.025,0.189-3.915,0.536-5.658,1.055c-3.698,1.066-6.33,2.682-7.895,4.847c-1.433,1.966-2.049,4.647-1.849,8.045
	c0.167,3.365,1.1,6.879,2.798,10.543c2.365,5.03,5.98,10.077,10.844,15.142c5.197,5.43,11.177,10.144,17.939,14.141
	c16.39,9.695,33.63,13.343,51.719,10.944c4.796-0.638,9.267-1.431,13.423-2.371c0.964,0.865,1.951,1.648,2.967,2.321
	c3.033,2.037,6.214,3.127,9.537,3.314l0.857,2.482c2.165,6.229,4.414,11.942,6.746,17.139c0.463,1.023,0.929,2.028,1.398,3.013
	c-1.198,1.126-2.407,2.383-3.625,3.766c-1.769-0.008-3.381-0.372-4.818-1.132c-1.799-1.199-3.215-2.015-4.248-2.447
	c-1.533-0.634-2.615-0.75-3.248-0.351c-0.5,0.3-0.9,1.133-1.2,2.499c-0.833,4.064-1.216,8.378-1.149,12.941
	c0.061,4.103,0.506,7.982,1.298,11.661c-1.446,4.958-1.795,9.439-0.999,13.425c0.699,3.432,2.065,6.013,4.098,7.745
	c1.532,1.3,3.248,2.032,5.146,2.198c0.64,0.057,1.545-0.135,2.684-0.545c0.086,0.296,0.187,0.589,0.322,0.877
	c-4.346,2.805-7.504,5.957-9.451,9.463c-1.897,3.408-2.361,6.644-1.41,9.71c-0.295,0.684-0.576,1.406-0.839,2.183
	c-1.865,5.563-2.548,11.326-2.048,17.29c0.266,3.464,0.833,5.313,1.699,5.546c0.833,0.268,2.299-0.932,4.397-3.598l7.196-8.345
	c2.06-2.374,3.55-4.153,4.501-5.372c2.938-0.435,6.081-1.662,9.44-3.723c4.864-2.998,8.395-6.563,10.594-10.693
	c2.499-4.664,2.915-8.828,1.25-12.492c-0.714-1.588-1.715-2.808-2.97-3.701c0.416-1.566,0.485-3.1,0.226-4.601
	c2.431-0.244,4.095-0.524,4.993-0.843c2.54-0.876,5.296-2.979,8.271-6.311c4.144,1.98,8.699,3.451,13.667,4.411
	c7.662,1.499,15.624,1.649,23.886,0.45c11.414-1.634,21.288-5.222,29.635-10.746c0.738,0.721,1.508,1.427,2.346,2.101
	c3.998,3.198,9.245,5.696,15.741,7.495l11.466,2.995c0.3,2.871,1.067,5.46,2.326,7.749c0.063,0.116,0.139,0.214,0.204,0.326
	c-0.797,1.902-1.247,3.999-1.304,6.32c-0.199,6.762,2.615,12.576,8.445,17.439c4.497,3.764,9.877,6.146,16.141,7.146
	c2.571,0.401,4.87,0.469,6.898,0.204c1.869,1.331,4.676,3.588,8.441,6.792c2.832,2.365,4.648,3.231,5.447,2.599
	c0.767-0.6,0.833-2.766,0.2-6.496c-0.808-4.771-1.979-8.834-3.492-12.234c0.67-2.402,0.749-5.048,0.194-7.954
	c-1.066-5.497-4.081-10.094-9.045-13.792c-3.5-2.602-7.172-4.415-11.008-5.472c-0.103-1.192-0.354-2.429-0.734-3.703
	c0.981-1.751,1.524-4.026,1.598-6.865c0.101-3.864-0.648-7.563-2.248-11.094c-1.266-2.798-3.182-5.747-5.746-8.845l-1.15-1.549
	c0.767-5.463,0.384-12.193-1.148-20.188c-1.533-8.162-3.031-12.41-4.498-12.743c-0.966-0.233-2.715,0.85-5.246,3.248
	c-2.932,2.731-5.714,4.364-8.346,4.897c-3.191-1.543-6.198-2.498-9.03-2.896c-1.046-4.743-2.999-11.697-5.841-20.822
	c2.313,0.204,4.703,0.335,7.176,0.383c18.455,0.332,35.979-2.799,52.568-9.395c19.09-7.596,32.765-18.456,41.026-32.581
	c4.697-7.995,7.745-15.374,9.145-22.137C337.775,135.053,337.342,130.106,335.076,126.875z M73.981,162.354
	c-4.541-6.207-7.626-11.134-9.306-14.827c2.921,2.26,5.615,4.424,8.057,6.482c6.901,5.811,12.707,11.49,17.436,17.041
	c-4.352-1.578-9.168-3.286-14.431-5.118C75.286,164.778,74.704,163.587,73.981,162.354z M234.322,151.689l-3.783,3.369
	c-0.257,0.222-0.482,0.421-0.727,0.634c-0.787-0.227-1.593-0.362-2.422-0.384c-2.398-0.1-4.331,0.633-5.797,2.199l-5.946,6.196
	c-0.151,0.119-0.319,0.231-0.479,0.347c-0.077-0.454-0.168-0.896-0.25-1.345c5.351-7.984,12.467-17.408,21.34-28.262
	c-2.385,5.854-3.592,9.163-3.622,9.922C232.533,147.054,233.095,149.495,234.322,151.689z"/>
</svg>
