<?xml version="1.0" encoding="utf-8"?>
<!-- Generator: Adobe Illustrator 16.0.0, SVG Export Plug-In . SVG Version: 6.00 Build 0)  -->
<!DOCTYPE svg PUBLIC "-//W3C//DTD SVG 1.1//EN" "http://www.w3.org/Graphics/SVG/1.1/DTD/svg11.dtd">
<svg version="1.1" id="图层_1" xmlns="http://www.w3.org/2000/svg" xmlns:xlink="http://www.w3.org/1999/xlink" x="0px" y="0px"
	 width="178px" height="257px" viewBox="0 0 178 257" enable-background="new 0 0 178 257" xml:space="preserve">
<path d="M148.891,48.637c6.625-5.592,12.117-12.033,16.477-19.323c4.262-7.09,8.272-16.394,12.033-27.911
	c0.2-0.599,0.233-0.965,0.1-1.098l-1.048-0.15c-24.466,1.764-42.391,6.258-53.774,13.481c-11.237,7.109-20.156,19.274-26.762,36.486
	c-4.786-1.755-9.962-2.634-15.529-2.634c-5.912,0-11.609,0.752-17.098,2.237c-1.692-3.212-4.125-6.718-7.318-10.525
	c-3.928-4.693-6.657-6.823-8.188-6.391c-1.631,0.499-3.944,4.294-6.94,11.384c-3.254,7.635-5.028,14.64-5.351,21.027
	c-7.578,7.068-11.375,14.705-11.375,22.912c0,5.299,1.207,10.038,3.608,14.221c-2.271,1.394-4.604,3.226-7.004,5.501
	c-0.561,0.538-1.074,1.066-1.558,1.587c-0.924,0.371-2.006,0.833-3.285,1.408c-2.43,1.065-3.828,1.798-4.194,2.197
	c-0.632,0.599-1.315,2.879-2.047,6.84c-0.799,4.36-1.198,8.571-1.198,12.632c0,4.594,1.981,9.137,5.942,13.631
	c3.928,4.461,10.002,9.037,18.224,13.73c-3.695,4.727-8.055,10.585-13.082,17.575c-5.292,7.456-8.954,12.899-10.984,16.327
	c-2.13,3.629-4.094,7.64-5.892,12.033C0.882,210.011,0,212.773,0,214.105c0,1.098,0.949,4.227,2.846,9.387
	c1.864,5.059,3.079,7.922,3.645,8.588c1.232,1.464,3.762,2.779,7.589,3.943c3.083,0.949,5.646,1.357,7.707,1.242
	c-0.657,1.317-1.221,2.589-1.666,3.801c-0.266,0.732-0.266,1.215,0,1.448c0.333,0.267,0.965,0.149,1.897-0.349l2.394-1.197
	c-1.068,3.102-1.719,5.354-1.945,6.738c-0.133,0.699-0.116,1.115,0.05,1.249l1.398-0.35l4.943-2.847
	c4.427-2.662,7.856-4.676,10.286-6.041c4.327-2.363,7.839-3.978,10.535-4.844c8.055-2.596,13.797-4.76,17.226-6.49
	c3.528-1.764,5.292-3.396,5.292-4.893c0-2.23-1.548-4.994-4.644-8.289c-3.096-3.328-4.644-5.126-4.644-5.393
	c0-1.498,0.5-3.461,1.498-5.892c1.023-2.509,2.162-4.475,3.414-5.902l6.672,0.71l12.32-0.595c1.941,2.092,3.695,4.435,5.255,7.036
	c2.297,3.895,3.445,7.373,3.445,10.435c0,0.565-0.732,2.264-2.197,5.093c-1.464,2.83-2.196,4.96-2.196,6.391
	c0,2.297,3.944,5.926,11.833,10.885c3.961,2.464,7.906,4.711,11.834,6.741c8.854,5.592,14.979,9.187,18.374,10.784
	c1.931,0.899,3.162,1.182,3.694,0.85c0.6-0.4,0.716-1.199,0.35-2.396c-0.543-1.81-1.802-4.257-3.742-7.311
	c6.608,3.778,10.406,5.486,11.382,5.113c0.433-0.166,0.683-0.516,0.749-1.049c0.266-1.664-1.266-5.01-4.594-10.035
	c-3.928-5.893-8.654-11.085-14.18-15.578l-11.434-8.838l-5.144-3.695l-2.796-2.297c-2.197-3.129-3.596-6.357-4.194-9.686
	c-0.584-3.279-0.371-6.398,0.628-9.36c0.219-0.295,0.451-0.579,0.65-0.89c4.021,6.576,10.963,11.858,20.841,15.842
	c9.12,3.662,17.708,5.242,25.764,4.743c1.364-0.066,2.196-0.333,2.497-0.799c0.266-0.499,0.033-1.315-0.699-2.446
	c-3.362-5.06-9.554-9.836-18.574-14.33c-9.319-4.659-18.548-7.242-27.687-7.796c0.508-1.703,0.835-3.548,0.962-5.551
	c7.659,3.335,17.014,4.408,28.072,3.211c13.148-1.432,26.68-5.976,40.594-13.631c1.131-0.599,1.115-1.182-0.051-1.747
	c-9.22-4.095-20.703-5.593-34.451-4.494c-13.372,1.085-24.825,4.336-34.403,9.704c-0.214-1.842-0.537-3.808-0.974-5.901
	c7.035-2.254,15.446-7.545,25.241-15.886c10.319-8.788,16.76-16.36,19.323-22.718c0.199-0.466,0.183-0.832-0.051-1.098
	c-0.199-0.233-0.532-0.316-0.998-0.25c-9.287,1.232-18.441,4.843-27.461,10.835c-8.42,5.561-14.678,11.834-18.776,18.815
	c-1.192-3.826-2.648-7.952-4.372-12.382c0.451-3.81,0.68-7.421,0.68-10.828c0-3.694-1.299-6.374-3.895-8.038
	c-2.131-1.365-5.775-2.313-10.935-2.846l-0.1-1.298c0.033-0.466,0.116-0.716,0.25-0.749c9.986-2.463,18.374-7.173,25.164-14.13
	c7.023-7.19,10.535-15.012,10.535-23.467c0-7.37-2.276-13.946-6.825-19.73c6.966-1.792,12.666-3.504,17.062-5.135
	C138.789,55.428,144.664,52.232,148.891,48.637z M49.63,186.893c0.563,1.407,1.447,2.724,2.638,3.953
	c-0.499,9.771-1.644,16.315-3.437,19.614c-0.799,1.464-3.212,3.712-7.24,6.74l-9.337,6.491c-1.024,0.665-2.052,1.539-3.082,2.604
	c-0.247-0.534-0.406-0.927-0.463-1.156c-1.231-4.793-1.314-11.5-0.25-20.121c0.999-8.089,2.396-13.748,4.194-16.977
	c1.165-2.097,4.21-6.873,9.137-14.33c1.591-2.429,3.138-4.764,4.645-7.013c1.375,0.532,2.798,1.035,4.255,1.517
	c-1.158,3.963-1.831,6.948-2.01,8.941C48.282,181.185,48.599,184.43,49.63,186.893z M34.602,120.886
	c-1.248-3.886-1.791-7.883-1.655-11.986c1.745,1.65,3.736,3.187,5.999,4.596c7.855,4.893,17.425,7.739,28.709,8.538
	c0.233,0,0.316,0.1,0.25,0.299l-0.549,2.447c-3.129,1.332-7.19,4.478-12.183,9.437c-2.081,2.043-4.372,4.443-6.872,7.196
	c-2.557-1.831-4.846-3.631-6.859-5.398C39.578,134.35,37.298,129.307,34.602,120.886z M25.268,152.942h0.014l8.571,5.44
	C30.659,156.555,27.81,154.742,25.268,152.942z"/>
</svg>
