<?xml version="1.0" encoding="utf-8"?>
<!-- Generator: Adobe Illustrator 16.0.0, SVG Export Plug-In . SVG Version: 6.00 Build 0)  -->
<!DOCTYPE svg PUBLIC "-//W3C//DTD SVG 1.1//EN" "http://www.w3.org/Graphics/SVG/1.1/DTD/svg11.dtd">
<svg version="1.1" id="图层_1" xmlns="http://www.w3.org/2000/svg" xmlns:xlink="http://www.w3.org/1999/xlink" x="0px" y="0px"
	 width="136px" height="195px" viewBox="0 0 136 195" enable-background="new 0 0 136 195" xml:space="preserve">
<path d="M129.562,48.634c-2.06-4.252-5.083-7.674-9.069-10.266c-8.008-5.149-15.914-5.897-23.723-2.242
	c-3.289,1.528-5.847,3.638-7.674,6.329c-0.449,0.686-0.829,1.377-1.145,2.073c-6.725-6.025-14.245-10.303-22.577-12.787
	c-6.146-1.828-12.178-2.584-18.096-2.285c2.993-9.039,1.469-16.534-4.579-22.483c-2.691-2.591-5.931-4.435-9.718-5.532
	c-3.82-1.129-7.741-1.313-11.761-0.548C14.044,2.254,8.379,5.676,4.226,11.158c-4.784,6.279-5.648,12.974-2.591,20.083
	c2.651,6.237,7.072,10.294,13.248,12.186c-4.238,4.245-7.448,9.314-9.61,15.224c-3.522,9.701-3.189,19.768,0.997,30.2
	c1.066,2.651,2.3,5.111,3.673,7.415c-0.781,0.977-1.541,2.107-2.277,3.4c-2.16,3.787-3.638,8.156-4.436,13.105
	c-0.698,4.453-0.299,8.572,1.196,12.359c1.927,4.898,5.483,7.803,10.626,8.764c-1.534,6.104-1.261,12.468,0.835,19.095
	c2.733,8.785,7.896,15.175,15.474,19.18c-2.195,1.058-3.966,2.817-5.307,5.289c-0.524,0.979-0.915,1.916-1.188,2.815
	c-0.183,0.027-0.368,0.065-0.557,0.125c-1.761,0.531-3.372,1.794-4.834,3.787c-1.362,1.895-1.877,3.373-1.544,4.436
	c0.266,0.963,1.993,1.296,5.183,0.996c2.299-0.195,3.89-0.527,4.784-0.993c0.43,0.289,0.885,0.572,1.396,0.845
	c0.932,0.494,1.841,0.892,2.729,1.203c-0.355,1.638-0.271,2.701,0.261,3.182l5.083-0.199c2.824-0.797,4.635-1.777,5.432-2.939
	c0.249-0.37,0.42-0.748,0.519-1.133c1.425-0.717,2.879-1.631,4.365-2.755c3.982-3.033,6.43-6.737,7.355-11.109
	c0.847,1.179,1.945,2.227,3.309,3.136c2.259,1.462,4.9,2.326,7.924,2.592c3.456,0.232,6.778-0.35,9.967-1.744
	c3.004-1.329,5.124-3.068,6.383-5.209c2.708-1.687,5.481-4.186,8.318-7.5c4.284-4.952,6.436-9.236,6.469-12.855
	c0.052-0.036,0.108-0.061,0.159-0.102c1.196-0.963,2.126-2.84,2.791-5.631c0.664-2.658,0.73-4.253,0.199-4.784
	c-0.466-0.499-2.159-0.199-5.083,0.897c-1.189,0.436-2.16,0.869-2.929,1.3c-0.921-0.664-1.822-1.192-2.706-1.59
	c-0.799-4.233-2.433-8.294-4.904-12.182c1.673-1.725,2.8-3.875,3.362-6.466c0.864-3.987,0.433-7.808-1.296-11.463
	c-0.128-0.269-0.273-0.52-0.408-0.781c3.12-1.909,5.885-4.367,8.283-7.391c5.575-6.979,8.164-15.396,7.78-25.247
	c1.099,0.545,2.254,0.996,3.481,1.325c3.854,1.063,7.741,0.947,11.662-0.349c3.953-1.329,7.209-3.638,9.768-6.927
	c2.791-3.588,4.318-7.841,4.584-12.758C132.419,57.239,131.555,52.787,129.562,48.634z"/>
</svg>
