<?xml version="1.0" encoding="utf-8"?>
<!-- Generator: Adobe Illustrator 16.0.0, SVG Export Plug-In . SVG Version: 6.00 Build 0)  -->
<!DOCTYPE svg PUBLIC "-//W3C//DTD SVG 1.1//EN" "http://www.w3.org/Graphics/SVG/1.1/DTD/svg11.dtd">
<svg version="1.1" id="图层_1" xmlns="http://www.w3.org/2000/svg" xmlns:xlink="http://www.w3.org/1999/xlink" x="0px" y="0px"
	 width="294px" height="410px" viewBox="0 0 294 410" enable-background="new 0 0 294 410" xml:space="preserve">
<path d="M288.248,385.042c-1.801-1.567-4.77-3.485-8.904-5.753c-4.441-2.414-7.313-3.495-8.649-3.269
	c-0.519-0.426-1.165-0.902-1.956-1.435c-3.39-2.278-6.164-4.494-8.325-6.645c1.955-2.472,3.466-4.678,4.522-6.611
	c1.901-3.502,2.885-6.887,2.952-10.155c0.1-6.069-3.469-15.124-10.706-27.164c-8.05-12.249-13.314-20.649-15.81-25.22
	c1.102-5.183,1.756-9.838,1.953-13.95c0.333-6.604-0.251-13.79-1.751-21.562c-1.768-9.104-5.703-23.395-11.807-42.871
	c-3.587-11.44-7.344-22.716-11.267-33.828c17.04-12.555,28.822-21.859,35.329-27.904c2.035-1.868,4.902-6.82,8.604-14.857
	c3.702-7.971,7.204-16.759,10.505-26.364c8.044-23.271,10.835-38.208,8.398-44.857c0.025-0.262,0.032-0.519,0.006-0.766
	c-0.191-1.953-0.53-3.859-0.993-5.728c0.223-0.991,0.356-2.389,0.394-4.227c0.066-3.502-0.217-7.354-0.851-11.556
	c-1.7-11.106-4.902-19.16-9.604-24.163c-0.668-0.667-1.001-0.534-1.001,0.4l0.053,5.687c-1.972-7.382-4.871-12.885-8.707-16.493
	c-0.733-0.734-1.051-0.583-0.95,0.45l1.15,20.761c0.097,2.552,0.166,4.823,0.211,6.831c-0.314-0.091-0.682-0.231-1.111-0.428
	l-0.667-0.378c-0.242-3.265-0.826-6.832-1.784-10.728c-2.734-10.939-6.654-18.726-11.756-23.362c-0.334-0.3-0.601-0.4-0.801-0.3
	c-0.167,0.1-0.233,0.367-0.2,0.801c0.767,5.103,1.401,11.139,1.901,18.109c0.467,6.537,0.733,12.89,0.801,19.06l0.162,0.325
	c-0.792,1.727-1.774,3.615-2.965,5.678c-1.467,2.601-2.518,4.186-3.15,4.752l-2.563,0.148c-2.073-1.907-4.27-4.333-6.593-7.302
	c-2.802-3.535-5.036-6.903-6.704-10.105c-0.199-0.367-0.399-0.55-0.6-0.55c-0.2,0.033-0.35,0.25-0.45,0.65
	c-1.567,5.436-1.2,11.689,1.101,18.759c1.522,4.66,3.25,8.057,5.184,10.201c0.173,0.426,0.369,0.882,0.619,1.405
	c0.566,1.434,0.717,5.703,0.45,12.807c-0.29,7.996-1.1,17.25-2.419,27.738c-0.819-0.913-1.583-1.71-2.283-2.375
	c-0.434-0.367-0.917-0.434-1.451-0.2c-9.007,4.325-16.847,8.633-23.541,12.926c-0.075-0.158-0.137-0.306-0.221-0.47
	c-1.567-3.168-3.369-5.336-5.402-6.503l-2.952-0.25l-2.696,0.546c-3.802-11.955-5.588-22.605-5.369-31.958
	c0.169-0.137,0.354-0.261,0.512-0.405c1.534-1.368,2.468-3.019,2.801-4.953c0.468-2.435-0.049-4.969-1.551-7.604
	c-0.654-1.149-1.477-2.262-2.449-3.341c0.158-2.48,0.005-4.761-0.502-6.814c-0.201-0.786-0.449-1.505-0.732-2.169
	c2.359-7.429,3.707-12.379,4.035-14.839c0.232-1.634-1.035-4.335-3.803-8.104c-2.568-3.502-4.52-5.569-5.854-6.203
	c-1.166-0.567-4.234,0.367-9.204,2.801c-4.057,1.967-6.951,3.618-8.715,4.962c-4.614-1.936-9.945-3.025-15.998-3.261
	c-6.237-0.267-11.839,0.367-16.809,1.901l-6.354-4.502l-6.503-4.652c-1.467-0.934-2.518-1.384-3.151-1.351
	c-0.467,0.033-1.267,0.5-2.401,1.4c-1.067,0.834-2.518,2.218-4.352,4.152l-4.752,5.403c-0.934,1.134-1.484,2.167-1.651,3.102
	c-0.1,0.634-0.05,1.667,0.15,3.102l2.852,8.905c1.901,6.203,2.885,9.955,2.952,11.255c0.1,2.101-3.102,12.773-9.605,32.017
	l-1.351,3.352c-0.3,0.4-0.967,0.717-2.001,0.951l-3.352,0.8c-1.5,0.4-2.417,0.8-2.751,1.201c-0.434,0.5-1.034,1.584-1.801,3.251
	c-0.531,1.201-0.925,2.247-1.2,3.16c-1.872-0.866-3.821-1.704-5.854-2.509c-6.37-2.535-12.073-4.152-17.108-4.853
	c-0.8-0.133-1.251,0.15-1.351,0.851c-0.333,2.034-0.65,4.752-0.951,8.154c-0.017,0.177-0.03,0.338-0.046,0.512l-3.955-1.908
	c-0.334-4.676-0.618-11.125-0.851-19.365c-0.333-12.173-0.184-19.71,0.45-22.612c0.227-1.078,2.076-4.443,5.534-10.078
	c2.757-1.732,5.465-4.865,8.123-9.432c3.969-6.737,5.219-13.124,3.752-19.16l-0.4-0.5c-0.167-0.066-0.35,0-0.55,0.2l-9.055,8.104
	l-8.021,6.532l-0.934-0.679c-1.034-1.267-1.901-3.685-2.601-7.253c-0.508-2.567-0.78-4.877-0.838-6.951
	c2.945-3.75,6.304-7.585,10.093-11.508c4.936-5.103,9.638-9.355,14.107-12.757c0.5-0.367,0.684-0.65,0.55-0.85l-0.951-0.15
	c-8.218,0.916-16.252,4.327-24.103,10.222c2.545-3.113,4.928-5.825,7.145-8.122c0.367-0.367,0.5-0.633,0.4-0.8l-0.901-0.15
	c-4.936,0.867-10.005,3.135-15.208,6.803c-3.56,2.535-6.941,5.558-10.151,9.052c-2.9,2.17-5.885,4.85-8.958,8.057
	c-3.001,3.135-5.436,6.153-7.304,9.055c-1.284,1.984-2.05,3.534-2.321,4.668C2.287,48.05-0.664,63.327,0.951,84.739
	c1.268,16.809,4.719,33.717,10.355,50.726c1.701,5.136,3.435,8.921,5.203,11.356c1.701,2.334,4.519,4.869,8.454,7.604l23.062,14.657
	c13.83,9.038,22.927,15.599,27.324,19.7c-0.221,8.904-1.305,20.057-3.262,33.478c-3.235,21.978-7.354,39.337-12.356,52.077
	c-8.238,18.275-14.124,33.333-17.659,45.172c-4.102,13.641-7.604,30.85-10.505,51.627c-0.267,1.934-1.951,4.053-5.053,6.354
	l-7.453,4.724c-3.338,1.409-6.609,3.303-9.806,5.731c-2.935,2.234-5.252,4.436-6.954,6.604c-1.701,2.134-2.435,3.418-2.201,3.852
	l5.052,0.301c2.447-0.193,7.886-1.135,16.299-2.819c-2.494,2.574-4.336,4.968-5.493,7.171c-0.767,1.501-0.35,2.034,1.25,1.601
	c9.259-2.24,16.291-3.876,21.11-4.912c-2.132,2.758-3.676,5.381-4.602,7.864c-0.567,1.601-0.25,2.234,0.951,1.9
	c12.214-3.268,19.674-5.485,22.412-6.66c2.692-0.661,6.694-1.893,12.006-3.694c9.205-3.136,14.124-5.053,14.758-5.753
	c0.467-0.534,1.101-1.718,1.901-3.553l2.051-4.602c2.902-5.736,5.286-10.021,7.154-12.857c1.002-1.494,2.072-2.967,3.204-4.419
	c12.784,7.6,25.49,9.151,38.117,4.62c12.4-4.47,20.923-13.384,25.591-26.715c3.063-0.472,6.24-1.069,9.501-1.757
	c9.016,1.487,18.312,6.107,27.89,13.864c9.672,7.837,14.925,14.773,15.759,20.811c0.134,1.1,0.066,2.217-0.2,3.352l-0.851,3.651
	c-0.3,1.701-0.167,2.886,0.4,3.552c0.767,0.9,2.851,1.901,6.253,3.002c6.236,2.001,13.007,3.818,20.311,5.453
	c8.871,2,16.893,3.318,24.063,3.951c1.4,0.101,2.084-0.066,2.051-0.5c-0.102-1.016-1.697-3.041-4.778-6.069
	c8.572,0.344,14.938,0.517,19.085,0.517c1.768,0,2.552-0.367,2.352-1.101c-0.133-0.467-0.867-1.367-2.201-2.701
	c-0.769-0.745-1.628-1.5-2.566-2.261l6.619-0.041l5.553-0.3C291.967,389.027,291.016,387.609,288.248,385.042z"/>
</svg>
