<?xml version="1.0" encoding="utf-8"?>
<!-- Generator: Adobe Illustrator 16.0.0, SVG Export Plug-In . SVG Version: 6.00 Build 0)  -->
<!DOCTYPE svg PUBLIC "-//W3C//DTD SVG 1.1//EN" "http://www.w3.org/Graphics/SVG/1.1/DTD/svg11.dtd">
<svg version="1.1" id="图层_1" xmlns="http://www.w3.org/2000/svg" xmlns:xlink="http://www.w3.org/1999/xlink" x="0px" y="0px"
	 width="205px" height="229px" viewBox="0 0 205 229" enable-background="new 0 0 205 229" xml:space="preserve">
<path d="M203.104,17.14h-2.371c2.725-2.849,3.679-5.578,2.82-8.184l-0.449-0.648c-0.133-0.033-0.35,0.1-0.648,0.399
	c-1.464,1.431-3.826,2.545-7.086,3.344c-3.228,0.798-6.404,1.064-9.531,0.798c-4.093-0.333-8.201,0.715-12.326,3.144
	c-1.699,1.009-3.184,2.13-4.476,3.351c-0.698-1.817-1.562-3.201-2.61-4.1c-1.137-1.019-2.398-1.363-3.789-1.032
	c-0.322-0.598-0.684-1.157-1.102-1.663c-1.531-1.863-3.361-2.794-5.49-2.794c-0.798,0-0.98,0.349-0.549,1.048
	c1.331,2.029,2.129,4.308,2.396,6.836c0.366,2.961-0.183,5.39-1.646,7.286c-0.998,1.297-2.429,2.479-4.292,3.543
	c-1.963,1.098-3.893,1.78-5.789,2.046c-1.371,0.205-2.583,0.526-3.671,0.938c0.522-1.665,0.648-3.245,0.328-4.731
	c-0.333-1.464-1.015-2.678-2.046-3.643c-0.633-0.532-0.998-0.382-1.098,0.449c-0.333,2.063-1.381,3.859-3.145,5.39
	c-1.696,1.497-3.775,2.528-6.238,3.094c-3.825,0.865-6.32,2.312-7.484,4.342c-0.898,1.563-1.215,4.108-0.949,7.635
	c0.2,3.094-0.066,5.256-0.798,6.487c-0.698,1.198-2.096,1.93-4.192,2.196c-1.953,0.259-3.379,0.79-4.301,1.582
	c-3.144,0.282-6.134,1.058-8.974,2.322c-0.566-1.325-0.373-2.444,0.6-3.354c0.799-0.765,2.944-2.013,6.438-3.743
	c3.095-1.53,4.924-2.978,5.489-4.341c0.499-1.264,0.117-2.961-1.147-5.09c-0.731-1.264-0.815-2.578-0.249-3.942
	c0.765-1.763,2.611-3.443,5.539-5.04c0.798-0.399,0.698-0.798-0.3-1.197l-4.142-0.25c-1.349,0.27-2.594,0.77-3.745,1.477
	c0.116-1.097,0.466-2.064,1.101-2.874c0.432-0.532,1.829-1.73,4.191-3.593c1.963-1.53,3.177-2.944,3.643-4.242
	c0.633-1.663,0.217-3.376-1.248-5.14l-1.996-2.445c-0.531-0.798-0.814-1.697-0.848-2.695c-0.066-2.861-0.566-5.29-1.497-7.286
	c-0.2-0.333-0.399-0.482-0.599-0.449c-0.167,0.033-0.316,0.216-0.449,0.549l-0.986,1.872c-0.58-1.774-1.63-3.132-3.156-4.067
	c-0.398-0.266-0.698-0.333-0.898-0.199c-0.199,0.133-0.232,0.432-0.1,0.898c0.699,3.061,0.217,5.772-1.447,8.134
	c-1.563,2.262-4.008,3.926-7.335,4.99c-3.833,1.269-6.534,3.329-8.141,6.152c-0.389-1.268-0.962-2.393-1.74-3.358
	c-0.932-1.131-2.013-1.93-3.244-2.395c-1.032-0.333-1.381-0.1-1.048,0.698c1.331,2.828,1.414,5.938,0.25,9.332
	c-1.231,3.659-3.593,6.57-7.086,8.733c-2.129,1.331-3.327,2.611-3.593,3.842c-0.232,1.098,0.167,2.762,1.198,4.99
	c0.832,1.83,1.181,3.244,1.048,4.242c-0.233,1.497-1.464,3.177-3.693,5.04c-2.961,2.462-4.458,4.375-4.491,5.739
	c-0.062,1.528,1.342,4.037,4.172,7.502c-1.708,4.461-2.277,9.293-1.677,14.504c0.153,1.381,0.364,2.582,0.628,3.607
	c-2.31,3.162-3.51,6.665-3.573,10.515c0,3.194,0.682,6.071,2.046,8.633c0.798,1.497,2.262,3.56,4.392,6.188
	c1.863,2.295,3.027,4.108,3.493,5.439c0.532,1.43,0.632,3.194,0.299,5.29s-0.981,3.776-1.946,5.041
	c-1.53,2.129-2.578,3.959-3.144,5.488c-0.632,1.764-0.848,3.644-0.648,5.64c0.299,2.728,1.38,4.907,3.244,6.537
	c1.83,1.597,4.125,2.396,6.887,2.396c2.753,0,5.026-0.758,6.83-2.255c-1.541,2.329-3.628,4.645-6.281,6.945
	c-5.313,4.609-11.495,7.874-18.52,9.834c-1.174-2.237-3.231-3.688-6.182-4.345l-7.984,0.25c-2.728,0.731-5.04,1.912-6.937,3.543
	c-1.87,1.578-2.917,3.322-3.145,5.234C14.257,169.161,0.294,176.314,0,185.012c-0.067,2.063,1.098,3.76,3.493,5.091
	c1.963,1.098,5.655,2.345,11.078,3.743c5.356,1.363,8.866,2.512,10.529,3.442c2.063,1.099,3.876,2.994,5.439,5.688
	c2.495,4.293,5.423,7.054,8.783,8.285c2.661,0.964,7.302,1.413,13.923,1.347l14.571,0.599c2.861,0.533,6.404,2.063,10.629,4.592
	c6.122,3.726,10.213,6.055,12.276,6.986c5.522,2.461,11.128,3.659,16.817,3.592c5.29-0.033,10.313-0.781,15.07-2.245
	c5.423-1.663,11.444-4.524,18.065-8.583c5.955-3.627,12.525-5.771,19.711-6.438l7.835-0.549c2.794-0.199,5.09-0.633,6.886-1.297
	c2.43-0.898,4.393-2.279,5.889-4.143c1.465-1.83,2.346-3.959,2.646-6.388c0.466-3.726-0.3-7.069-2.296-10.03
	c-1.47-2.236-3.653-4.292-6.525-6.174c-0.301-2.678-1.414-5.344-3.355-7.998c-2.162-2.994-4.674-5.107-7.535-6.338
	c-1.83-0.799-3.659-1.148-5.489-1.049c-1.397,0.088-2.524,0.404-3.412,0.926c-3.51-4.342-5.908-8.857-7.167-13.551
	c-1.33-4.791-1.613-10.795-0.848-18.015c0.332-3.394,1.43-7.935,3.293-13.624l4.94-14.97c3.591-12.056,3.881-21.431,0.89-28.141
	c4.798,0.149,7.349-2.044,7.644-6.591l0.3-4.042c0.166-1.397,0.449-2.412,0.848-3.044c0.466-0.765,1.414-1.58,2.845-2.445
	c1.563-0.931,3.177-1.58,4.841-1.946c3.726-0.766,6.82-2.129,9.281-4.092c2.429-1.896,4.125-4.275,5.09-7.136
	c0.367-1.131,0.033-1.414-0.998-0.848c-2.121,1.122-4.547,1.807-7.248,2.1c3.805-2.069,6.213-4.431,7.199-7.09
	c0.864-2.329,0.715-5.406-0.449-9.232c-0.6-2.029-0.1-3.759,1.496-5.19c1.198-1.098,3.826-2.579,7.885-4.441
	c2.994-1.397,5.207-2.811,6.638-4.242c1.031-1.031,1.796-2.312,2.296-3.843l-0.101-0.449L203.104,17.14z M89.026,124.779
	c-1.283-1.001-2.089-4.017-2.43-8.992c1.266,0.878,2.685,1.593,4.243,2.153c1.016,1.55,1.799,3.372,2.329,5.492
	c0.532,2.162,0.849,4.957,0.948,8.384c0.027,0.802-0.015,1.603-0.115,2.401C93.688,130.285,92.038,127.136,89.026,124.779z"/>
</svg>
