<?xml version="1.0" encoding="utf-8"?>
<!-- Generator: Adobe Illustrator 16.0.0, SVG Export Plug-In . SVG Version: 6.00 Build 0)  -->
<!DOCTYPE svg PUBLIC "-//W3C//DTD SVG 1.1//EN" "http://www.w3.org/Graphics/SVG/1.1/DTD/svg11.dtd">
<svg version="1.1" id="图层_1" xmlns="http://www.w3.org/2000/svg" xmlns:xlink="http://www.w3.org/1999/xlink" x="0px" y="0px"
	 width="246px" height="267px" viewBox="0 0 246 267" enable-background="new 0 0 246 267" xml:space="preserve">
<path d="M235.696,207.405c-2.901-1.301-7.202-2.335-12.905-3.102c-3.935-0.534-7.286-1.251-10.054-2.151
	c-2.896-0.896-4.927-1.923-6.109-3.076c0.113-1.77,0.066-3.049-0.144-3.826c-0.112-0.359-0.479-0.826-1.063-1.383
	c9.169-7.171,16.349-17.033,21.539-29.587c1.926-0.579,3.148-1.438,3.633-2.594c0.635-1.501,1.535-4.285,2.701-8.354
	c1.334-4.568,1.969-7.337,1.901-8.304c-0.033-0.633-0.25-1.367-0.65-2.201c-0.413-0.799-0.946-1.549-1.587-2.256
	c0.488-5.926,0.388-11.1-0.313-15.5c-0.134-0.767-0.4-1.201-0.801-1.301c-0.202-0.051-0.5-0.036-0.891,0.042
	c0.3-4.293,0.034-8.889-0.81-13.797c-0.844-4.685-2.042-8.599-3.588-11.762c0.638-1.17,1.134-3.716,1.486-7.646
	c0-1.1-1.65-4.285-4.951-9.554c-3.234-5.169-5.42-8.22-6.553-9.154c-1.067-0.9-2.752-1.234-5.053-1
	c-3.364-3.457-6.743-6.35-10.137-8.692c-0.484-1.739-1.267-3.509-2.368-5.313l-2.001-3.102c-0.666-1.2-1.033-2.451-1.1-3.751
	c-0.101-1.634,0.283-3.535,1.15-5.702c0.4-1.067,1.517-3.452,3.352-7.153c1.434-2.901,2.551-5.652,3.351-8.253
	c0.333-1.067,0.367-1.684,0.101-1.851c-0.234-0.133-0.801,0.1-1.701,0.701c-0.733,0.433-2.001,1.3-3.801,2.601l0.85-3.601
	c0.133-0.867,0.1-1.334-0.1-1.401c-0.167-0.1-0.551,0.134-1.15,0.7l-1.501,1.551c1.134-3.935,4.269-12.405,9.403-25.41
	c0.334-1.067,0.434-1.734,0.301-2.001l-1.4,0.15c-3.335,1.534-6.903,3.968-10.705,7.303c-3.367,2.901-6.452,6.086-9.254,9.554
	l-1-7.053l-0.35-0.8c-0.201-0.1-0.467,0.033-0.801,0.4c-2.501,2.901-5.086,6.536-7.754,10.905c-2.9,4.835-5.018,9.17-6.352,13.005
	l-1.301-1.051c-0.467-0.367-0.801-0.267-1,0.3l-0.451,1.551c-1.533-1.434-2.634-2.901-3.301-4.402
	c-0.301-0.734-0.617-1.05-0.95-0.95c-0.333,0.1-0.501,0.433-0.501,1c0,2.868,0.551,6.686,1.651,11.455l1.95,7.353
	c0.007,0.029,0.014,0.056,0.021,0.085l-4.397-0.344c-2.041-2.206-4.413-3.861-7.127-4.943c-2.135-0.833-6.953-0.85-14.456-0.05
	l-11.955,1.701c-1.711,0.397-3.267,2.467-4.67,6.169c-0.789,0.26-2.345,1.067-4.684,2.434c-2.335,1.369-3.977,2.484-4.951,3.356
	l-3.553-0.205l-5.068,0.256c-0.412-4.193-1.734-8.414-3.985-12.661c-3.235-6.036-7.303-10.454-12.205-13.255
	c-1.369-0.773-2.645-1.294-3.847-1.615c-6.008-3.847-11.497-4.482-16.462-1.886c-4.984,2.606-7.399,7.367-7.26,14.271
	c-1.524-1.158-3.134-2.14-4.845-2.916c-0.615-0.282-1.226-0.524-1.834-0.742c-3.038-2.513-7.236-3.926-12.622-4.21
	c-6.703-0.367-12.138,1.65-16.307,6.052c-4.568,4.802-6.403,13.605-5.502,26.411c0.467,6.603,1.417,13.806,2.852,21.609
	c0.033,2.001-1.467,6.836-4.502,14.506c-3.068,7.77-4.619,13.739-4.652,17.907c-0.034,2.834,0.833,5.319,2.601,7.453
	c1.934,2.301,5.135,4.469,9.604,6.503c2.535,1.133,4.235,2.35,5.103,3.65c0.467,0.734,0.983,2.301,1.55,4.702
	c0.7,2.868,1.901,4.835,3.602,5.902c1.727,1.079,3.728,0.975,5.997-0.285c0.053,0.128,0.099,0.263,0.156,0.386
	c0.662,1.441,1.547,2.556,2.63,3.381c7.23,14.947,8.058,27.978,2.472,39.086c-3.806,7.548-12.021,15.732-24.619,24.55
	c-2.566-0.803-5.347-0.258-8.344,1.661c-3.561,2.3-5.372,5.023-5.479,8.157c-1.433,0.869-2.808,2.15-4.125,3.848
	c-1.801,2.334-2.968,4.802-3.501,7.403c-1.334,6.736,1.867,11.271,9.604,13.605c2.468,0.733,5.169,0.983,8.104,0.75l7.453-1.15
	c7.069-1.167,11.988-1.384,14.756-0.65c2.368,0.667,6.036,3.001,11.004,7.003c4.002,3.234,7.253,5.452,9.754,6.653
	c4.269,1.967,9.554,3.067,15.856,3.301c6.002,0.2,12.005-0.75,18.007-2.852c3.435-1.2,7.987-3.301,13.656-6.303
	c5.536-2.934,9.954-4.551,13.255-4.852c3.034-0.267,7.437,0.434,13.206,2.102c7.836,2.301,14.105,3.033,18.807,2.2
	c3.068-0.567,7.471-2.534,13.205-5.902c3.002-1.801,5.604-2.835,7.804-3.101c2.301-0.268,6.169,0.049,11.604,0.949
	c8.337,1.367,14.355,1.602,18.058,0.701c4.235-1.001,8.554-3.985,12.955-8.954c2.735-3.135,5.47-5.103,8.204-5.902
	c12.104-3.302,18.257-8.437,18.457-15.406C244.166,214.024,241.398,210.006,235.696,207.405z"/>
</svg>
