<?xml version="1.0" encoding="utf-8"?>
<!-- Generator: Adobe Illustrator 16.0.0, SVG Export Plug-In . SVG Version: 6.00 Build 0)  -->
<!DOCTYPE svg PUBLIC "-//W3C//DTD SVG 1.1//EN" "http://www.w3.org/Graphics/SVG/1.1/DTD/svg11.dtd">
<svg version="1.1" id="图层_1" xmlns="http://www.w3.org/2000/svg" xmlns:xlink="http://www.w3.org/1999/xlink" x="0px" y="0px"
	 width="693px" height="311px" viewBox="0 0 693 311" enable-background="new 0 0 693 311" xml:space="preserve">
<path d="M691.902,200.6c-0.533-3.732-1.016-6.098-1.449-7.098c-0.5-1.266-14.642-5.396-42.426-12.393
	c-30.249-7.596-54.618-12.543-73.107-14.842c16.523-1.699,36.813-1.682,60.865,0.051c12.359,0.899,24.552,2.082,36.578,3.548
	l7.097,0.55c1.098-0.133,1.499-0.949,1.199-2.449c-0.3-1.432-2.849-5.38-7.646-11.843c-4.131-5.497-6.763-8.845-7.896-10.044
	c-0.401-0.4-2.017-0.849-4.848-1.349l-4.099-0.65c-25.085-3.398-55.368-3.331-90.845,0.2c-8.955,0.884-17.277,1.852-24.98,2.903
	c1.709-1.633,2.601-2.642,2.641-3.002c0.033-0.499-6.879-2.065-20.738-4.697l-30.782-5.797l40.127-3.048l28.983-1.949l10.444-13.792
	c1.166-1.499,1.647-2.465,1.448-2.898c-0.199-0.499-1.365-0.866-3.498-1.099l-22.337-0.65l-31.582,1.05
	c11.693-4.664,31.132-8.012,58.316-10.044l37.728-1.599l1.25-1.549c-2.765-2.066-4.498-3.282-5.196-3.648
	c2.065,0.299,5.247,1.066,9.545,2.298l5.546-8.895c3.232-5.997,3.698-9.195,1.398-9.595c-7.596-1.3-19.621-1.45-36.078-0.45
	l-43.325,3.698c25.686-6.23,49.672-9.711,71.959-10.444l27.584,0.95c1.399,0.233,2.415,0.1,3.048-0.4
	c0.7-0.567-0.05-1.349-2.248-2.349c-1.633-0.732-5.214-1.699-10.744-2.898c-4.164-0.899-5.712-1.432-4.646-1.599l12.643,0.95
	l10.794,0.999c0.435-0.2,1.849-2.315,4.248-6.346c2.398-4.031,3.48-6.196,3.248-6.496c-6.663-2.466-16.225-4.465-28.684-5.997
	c-24.753-2.998-52.171-2.649-82.253,1.049c27.617-4.797,51.736-6.896,72.357-6.296c9.862,0.3,21.504,1.649,34.93,4.048
	c4.531,0.833,7.68,1.215,9.444,1.149c1.466-0.033,2.416-0.416,2.849-1.149c4.598-7.862,6.746-11.893,6.446-12.093
	c-0.5-0.333-4.063-0.95-10.693-1.849l-9.045-1.549l16.092-1.099l16.189-1.149c0.633-0.466-1.733-3.482-7.096-9.045
	c-0.3-0.2-1.133-0.483-2.499-0.85l-1.948-0.45c-26.118-7.263-59.6-7.946-100.443-2.045c-23.819,3.465-49.854,9.211-78.105,17.24
	l7.146-4.098l3.646-2.249c0.401-0.433,0.5-0.966,0.3-1.599c-0.166-0.7-0.617-1.034-1.349-1c-0.533,0-4.315,1.016-11.344,3.048
	c-6.23,1.765-8.745,2.398-7.546,1.898l10.095-4.347c5.83-2.399,10.976-4.181,15.439-5.347c0.601-0.167,0.2-1.799-1.198-4.897
	c-1.433-3.098-2.998-4.48-4.697-4.147c-26.451,5.263-56.35,17.656-89.698,37.178c-13.208,7.727-28.633,17.733-46.246,29.99
	c-0.932-2.094-1.563-3.691-1.873-4.758c-0.633-2.198-1.299-3.215-1.999-3.048c-0.633,0.167-1.499,1.399-2.599,3.698
	c-1.267,2.632-3.398,5.547-6.396,8.745c-3.332,3.631-5.83,5.314-7.496,5.047c-1.766-0.233-3.048-0.849-3.848-1.849
	c-0.8-0.966-1.299-2.498-1.499-4.597c-0.233-2.332-0.783-3.482-1.649-3.448c-0.833,0.034-1.599,1.233-2.299,3.598
	c-1.364,4.464-3.414,7.629-6.146,9.495c-2.011,1.352-4.676,2.375-7.991,3.075c-4.473-3.471-8.897-7.029-13.247-10.721
	c-10.061-8.529-16.14-14.542-18.239-18.04c-3.898-6.397-8.179-10.577-12.843-12.543c-4.098-1.7-8.778-1.766-14.042-0.2
	c-1.732,0.5-3.431,1.2-5.097,2.099c-1,0.566-2.548,1.515-4.647,2.848l-7.946,5.597c-4.231,2.732-8.862,5.097-13.892,7.096
	c-2.58,1.045-7.507,2.685-14.767,4.917l-2.822-1.219c-1.966-0.766-3.182-1.299-3.648-1.599l6.446-15.291
	c3.864-9.228,5.796-14.425,5.796-15.591c0-1.632-0.4-2.798-1.199-3.498c-0.866-0.766-1.965-0.566-3.298,0.6
	c-1.966,1.799-4.681,5.147-8.146,10.044l-7.696,10.844c0-2.631,0.25-9.344,0.75-20.138l0.549-16.141
	c-0.199-1.632-0.916-2.832-2.148-3.598c-1.466-0.9-2.966-0.35-4.498,1.649c-2.998,3.998-6.363,10.511-10.093,19.537l-7.046,17.09
	c-0.433-1.732-2.299-11.643-5.597-29.732c-2.998-16.257-4.83-24.986-5.497-26.185c-0.932-1.665-2.365-2.232-4.297-1.699
	c-2.033,0.567-3.398,2.149-4.098,4.748c-1.466,5.763-2.698,16.44-3.698,32.031l-1.699,28.084
	c-2.032-3.432-6.147-11.277-12.343-23.537c-5.963-11.76-9.277-18.472-9.944-20.138c-0.666-1.633-2.215-1.832-4.647-0.6
	c-2.465,1.266-3.715,3.348-3.748,6.246c-0.033,5.797,1.099,16.857,3.398,33.181l4.048,29.033L125.628,74.02l-10.294-12.643
	c-1.067-1.399-2.332-1.865-3.798-1.399c-1.532,0.5-2.082,1.866-1.649,4.098c2.533,12.76,6.28,27.251,11.244,43.475
	c3.219,10.508,5.116,16.882,5.701,19.147c-2.457,1.676-6.579,4.167-12.398,7.489c-6.962,3.997-14.092,7.878-21.387,11.643
	c-4.231,2.199-9.794,4.814-16.69,7.846c-5.597,2.465-9.494,4.381-11.693,5.746c-8.195,5.197-17.306,13.477-27.334,24.836
	c-12.993,14.725-22.304,24.604-27.934,29.633l-6.596,7.196c-0.7,0.699-1.383,1.665-2.049,2.897c-0.667,1.267-0.883,2.049-0.65,2.35
	c0.5,0.6,1.549,0.383,3.148-0.65l8.545-5.996c12.027-8.262,22.171-14.892,30.433-19.889c14.857-8.961,26.601-14.625,35.229-16.99
	c0.866-0.231,1.766-0.815,2.699-1.748l2.948-3.496c0.43-0.553,0.881-1.097,1.331-1.641l2.067-0.91
	c12.159-5.664,21.57-9.91,28.233-12.742c9.628-4.131,16.024-6.463,19.189-6.997c0.106-0.017,0.203-0.055,0.301-0.088l5.197,0.787
	c12.193,1.765,25.285,1.782,39.277,0.05c6.596-0.833,13.576-4.681,20.938-11.543c4.264-3.997,10.577-10.61,18.939-19.838
	l6.946-7.396l5.597-5.646c5.33-4.497,12.276-8.362,20.838-11.593c8.362-3.132,14.075-4.132,17.14-2.999
	c1.998,0.766,6.496,6.313,13.492,16.641c7.479,10.987,15.353,23.886,23.622,38.686c2.212,7.273,3.736,15.777,4.561,25.527
	c1.067,12.359,0.934,24.252-0.398,35.68c-0.734,6.195-0.833,10.093-0.3,11.693c0.566,1.6,1.849,1.115,3.848-1.449l6.796-9.795
	c2.566-3.83,3.998-5.53,4.298-5.098l4.946,7.246c3.098,4.398,5.146,6.913,6.146,7.547c0.762,0.507,1.704-1.72,2.824-6.66
	c2.629,3.3,5.496,6.327,8.62,9.059c8.129,7.096,18.156,12.477,30.083,16.141c2.868,0.877,5.898,1.593,9.087,2.15
	c0.934,2.064,1.146,4.047,0.607,5.943c-0.867,3.099-3.582,5.613-8.146,7.546c-2.698,1.165-4.18,2.2-4.447,3.099
	c-0.266,0.768,0.418,1.266,2.05,1.499l4.997,0.3c0.201,0.011,0.389,0.024,0.57,0.039l-3.067,1.959
	c-2.065,1.432-3.632,2.416-4.697,2.948c-1.766,0.933-3.599,1.549-5.497,1.849c-0.786,0.133-1.845,0.207-3.13,0.233
	c-0.12-0.027-0.257-0.055-0.369-0.083l-7.196-3.299c-0.856-0.355-1.704-0.607-2.544-0.772c-2.054-0.863-3.759-1.557-5.102-2.073
	c-4.563-1.799-7.929-2.383-10.095-1.746c-1.332,0.385-2.75,1.186-4.251,2.381c-0.96-0.174-1.836-0.265-2.637-0.279
	c-0.519-0.159-1.038-0.277-1.557-0.352l-4.496-1.953c-4.232-1.732-7.379-2.299-9.444-1.701c-1.322,0.396-2.738,1.159-4.248,2.284
	c-2.942-0.715-5.214-0.847-6.799-0.384c-2.666,0.801-5.697,3.082-9.095,6.847c-1.765,1.933-3.415,3.964-4.947,6.097l-1.449,1.148
	l-1.949,1.1c-2.399,1.5-3.098,3.682-2.099,6.547c0.8,2.232,2.549,4.114,5.247,5.646c0.655,0.373,1.334,0.699,2.029,0.995
	c0.613,2.592,1.684,4.944,3.221,7.05c1.732,2.398,3.914,4.298,6.546,5.697l1.797,0.049l-0.599-1.148
	c-1.625-3.396-1.933-6.633-0.94-9.716c0.141-0.006,0.271-0.025,0.406-0.039c0.577,1.366,1.303,2.652,2.184,3.858
	c1.732,2.397,3.914,4.298,6.546,5.697l1.8,0.049l-0.601-1.199c-1.232-2.576-1.692-5.054-1.417-7.435
	c0.635,1.904,1.538,3.669,2.718,5.286c1.732,2.398,3.914,4.299,6.546,5.697l0.241,0.007c1.123,0.969,2.356,1.817,3.707,2.542
	l1.849,0.049l-0.6-1.199c-1.686-3.517-2.012-6.889-0.996-10.118c0.151-0.009,0.291-0.032,0.436-0.049
	c0.61,1.424,1.378,2.765,2.309,4.021c1.799,2.499,4.064,4.464,6.796,5.896c1.367,0.733,1.982,0.768,1.849,0.101l-0.6-1.249
	c-1.289-2.69-1.776-5.285-1.5-7.791c0.666,2.024,1.611,3.891,2.849,5.592c1.799,2.465,4.065,4.432,6.796,5.896l1.85,0.051
	l-0.601-1.199c-1.481-3.094-1.904-6.073-1.296-8.943l0.097-0.004c1.833-0.4,3.199-1.149,4.099-2.248
	c1.166-1.367,1.416-3.1,0.75-5.197c-0.833-2.5-0.799-4.314,0.1-5.447c0.332-0.411,0.777-0.758,1.319-1.048
	c4.205,0.771,7.517,1.305,9.925,1.599l3.647,0.249c1.896-0.042,3.664-0.056,5.314-0.045c7.278,1.417,12.542,2.333,15.773,2.743
	l0.602,0.031c0.43,0.475,0.569,0.997,0.397,1.57c0.199,0.232,0.183,0.766-0.051,1.599l-0.448,1.749c0,1.502,0.468,2.782,1.382,3.852
	c-0.579,2.99-2.281,5.591-5.131,7.791c-0.5,0.268-0.851,0.533-1.051,0.801c-0.398,0.5,0.135,0.732,1.601,0.699
	c2.965-0.033,5.763-0.734,8.395-2.1c2.107-1.053,3.961-2.472,5.571-4.238c0.026-0.004,0.052-0.005,0.077-0.01
	c2.831-0.533,5.513-2.032,8.045-4.497c1.471-1.44,2.654-3.403,3.554-5.883c0.779,0.203,1.449,0.43,1.993,0.685
	c1.598,0.766,2.232,1.666,1.898,2.698c0.232,0.2,0.217,0.749-0.051,1.649l-0.498,1.799c0,1.593,0.504,2.941,1.492,4.057
	c-0.649,3.104-2.438,5.787-5.391,8.037c-0.499,0.3-0.867,0.583-1.099,0.85c-0.401,0.533,0.166,0.782,1.697,0.749
	c3.1-0.065,6.015-0.782,8.745-2.147c2.191-1.135,4.126-2.637,5.818-4.488c0.026-0.005,0.053-0.007,0.079-0.012
	c2.965-0.532,5.764-2.082,8.396-4.646c1.767-1.699,3.115-4.097,4.048-7.195c0.967-3.199,1.116-5.946,0.449-8.246
	c-0.333-1.064-1.2-1.864-2.599-2.397c-0.566-0.231-1.865-0.549-3.897-0.949c-5.396-1.1-8.644-1.966-9.744-2.599
	c-0.232-0.133-0.565-0.766-1-1.898c-0.333-0.832,0.25-2.148,1.749-3.947c0.313-0.376,0.659-0.753,1.023-1.131l0.426,3.48
	c0.401,2.665,0.768,3.998,1.1,3.998c0.334,0.033,0.649-0.167,0.949-0.6l0.851-1.6c1.198-2.299,4.264-4.814,9.194-7.547
	c7.896-4.43,17.607-6.762,29.134-6.996c0.899-0.033,1.416-0.265,1.549-0.699c0.1-0.365-0.101-0.865-0.601-1.498
	c-1.266-1.599-2.382-3.248-3.348-4.947l7.596,1.35l5.497,0.3c0.132-0.399-0.9-1.614-3.099-3.647l-4.897-4.598l5.147,0.051h3.947
	c0.799-0.101,1.182-0.383,1.148-0.851c-0.065-0.534-0.648-1.149-1.749-1.849c-1.956-1.305-5.454-4.561-10.49-9.765
	c0.999-0.328,1.992-0.638,2.995-0.98c15.924-5.431,28.1-13.509,36.528-24.235c4.498-5.707,7.442-11.243,8.847-16.612
	c21.039,3.816,46.979,14.017,77.855,30.653c18.489,9.961,35.08,19.922,49.771,29.883c0.732,0.301,2.016-2.631,3.848-8.795
	c1.832-6.763,2.915-10.677,3.248-11.742c6.33,4.496,11.51,8.028,15.541,10.595c3.698,2.265,5.763,2.53,6.195,0.799
	c0.366-1.565,0.634-4.964,0.801-10.192c0.199-6.164-0.083-10.029-0.851-11.595c-0.767-1.632-7.528-5.362-20.288-11.192
	c-10.094-4.599-22.687-9.961-37.777-16.093c14.823,4.966,31.53,11.478,50.121,19.539c10.461,4.563,18.839,8.38,25.136,11.443
	c2.665,1.3,4.164,1.032,4.497-0.8c0.399-2.231,0.6-7.578,0.6-16.041C692.752,207.495,692.468,204.463,691.902,200.6z
	 M394.597,271.713c0.264-0.655,0.767-1.438,1.526-2.355c0.019-0.022,0.04-0.045,0.06-0.067c0.031,0.758,0.1,1.428,0.208,1.997
	C395.799,271.46,395.201,271.604,394.597,271.713z M602.033,80.189c-5.225,0.126-10.444,0.27-15.652,0.444
	C592.275,80.357,597.49,80.21,602.033,80.189z"/>
</svg>
