<?xml version="1.0" encoding="utf-8"?>
<!-- Generator: Adobe Illustrator 16.0.0, SVG Export Plug-In . SVG Version: 6.00 Build 0)  -->
<!DOCTYPE svg PUBLIC "-//W3C//DTD SVG 1.1//EN" "http://www.w3.org/Graphics/SVG/1.1/DTD/svg11.dtd">
<svg version="1.1" id="图层_1" xmlns="http://www.w3.org/2000/svg" xmlns:xlink="http://www.w3.org/1999/xlink" x="0px" y="0px"
	 width="245px" height="160px" viewBox="0 0 245 160" enable-background="new 0 0 245 160" xml:space="preserve">
<path d="M239.012,71.523c-3.135-12.17-7.819-22.757-14.055-31.76c-6.168-8.87-14.188-16.689-24.058-23.458
	c-10.203-7.002-21.423-11.771-33.66-14.305c-12.138-2.5-24.658-2.667-37.562-0.5c-14.171,2.401-27.176,7.319-39.013,14.755
	c-11.937,7.502-22.107,17.172-30.509,29.009C53.053,55.301,47.468,66.588,43.4,79.125c-3.313,10.176-5.362,20.468-6.187,30.872
	l-20.221-2.263c-0.967-0.066-1.601,0.15-1.901,0.65c-0.333,0.5-0.217,1.133,0.35,1.9c1.101,1.467,3.435,4.135,7.002,8.002
	c-4.702,2.334-11.487,5.469-20.356,9.403c-1.333,0.634-1.967,1.2-1.9,1.7c0.1,0.533,1.017,0.951,2.75,1.251l14.905,1.7l16.155,0.9
	c-3.401,2.467-6.302,4.901-8.703,7.303c-0.8,0.8-1.067,1.383-0.8,1.75c0.267,0.434,1.117,0.566,2.551,0.4l10.053-1.751l9.603-2.2
	c-1.667,4.334-2.75,7.402-3.251,9.203c-0.233,0.866-0.15,1.383,0.25,1.55c0.367,0.167,0.984,0,1.851-0.5l5.302-3.301
	c2.368-1.501,4.102-2.468,5.202-2.901c-2.334,5.102-3.968,9.104-4.901,12.004c-0.7,2.301,0.066,2.834,2.301,1.601
	c3.601-2.034,6.702-3.751,9.303-5.151c4.901-2.635,8.553-4.418,10.954-5.352l-1.301,6.802c-0.1,0.8,0.067,1.251,0.5,1.351
	c0.367,0.066,0.883-0.133,1.55-0.601l4.151-2.95l4.051-2.602l-0.3,4.902c-0.033,0.666,0.083,1.05,0.35,1.15l1.401-0.201
	c1.833-0.6,4.234-1.684,7.202-3.25c2.396-1.227,4.319-2.322,5.784-3.292c12.707,2.226,28.844,3.06,48.433,2.491
	c26.608-0.767,47.349-3.768,62.22-9.003c15.705-5.534,26.008-15.354,30.909-29.459C242.695,99.564,242.813,86.328,239.012,71.523z"
	/>
</svg>
