<?xml version="1.0" encoding="utf-8"?>
<!-- Generator: Adobe Illustrator 16.0.0, SVG Export Plug-In . SVG Version: 6.00 Build 0)  -->
<!DOCTYPE svg PUBLIC "-//W3C//DTD SVG 1.1//EN" "http://www.w3.org/Graphics/SVG/1.1/DTD/svg11.dtd">
<svg version="1.1" id="图层_1" xmlns="http://www.w3.org/2000/svg" xmlns:xlink="http://www.w3.org/1999/xlink" x="0px" y="0px"
	 width="282px" height="290px" viewBox="0 0 282 290" enable-background="new 0 0 282 290" xml:space="preserve">
<path d="M280.049,263.648c-2.27-2.336-5.457-4.89-9.563-7.66c-2.473-1.655-4.901-3.135-7.295-4.475l5.543-2.334
	c0.601-0.367,0.584-0.7-0.05-1.001c-7.461-3.371-12.633-5.954-15.53-7.752c-0.266-1.293-0.481-2.45-0.641-3.462
	c-0.467-2.837-0.917-7.075-1.352-12.716c-3.871-50.663-7.742-87.809-11.613-111.438c-3.973-24.164-9.662-44.873-17.072-62.127
	c-6.408-15.052-14.885-27-25.432-35.844c-10.98-9.211-23.078-14.118-36.295-14.718c-10.646-0.467-21.91,1.335-33.792,5.407
	c-10.046,3.471-17.839,7.442-23.379,11.915c-5.707,4.639-10.947,10.914-15.72,18.823c-3.848,6.35-6.341,11.764-7.509,16.265
	c-14.02,4.668-24.208,13.638-30.539,26.939c-8.058,16.877-12.044,44.089-11.965,81.623c-4.19,8.993-8.063,18.66-11.614,29.015
	c-4.439,12.982-7.542,24.813-9.312,35.494c-0.2,1.201-0.233,1.951-0.1,2.252c0.2,0.501,0.818,0.434,1.852-0.2l0.405-0.252
	c-5.648,5.892-11.338,11.413-17.075,16.522c-0.5,0.467-0.417,0.784,0.25,0.951c3.655,1.114,7.58,1.689,11.751,1.77l-4.692,4.889
	l-8.861,8.61c-0.768,0.667-0.634,1.001,0.401,1.001l24.681-1.001c-0.667,3.037-2.002,6.341-4.005,9.913
	c-0.233,0.4-0.25,0.667-0.05,0.801h0.701c3.688-1.302,7.244-3.172,10.673-5.596c-0.037,0.179-0.071,0.37-0.109,0.539
	c-0.367,1.602-0.935,3.421-1.702,5.457c-0.267,0.768-0.017,1.018,0.751,0.75c1.835-0.7,3.771-1.785,5.807-3.254
	c1.58-1.173,2.937-2.382,4.087-3.623c0.521,1.655,1.139,3.25,1.87,4.775c3.638,7.576,9.295,11.814,16.971,12.715
	c2.737,0.334,4.572,0.101,5.507-0.7c0.968-0.868,1.001-2.453,0.1-4.756c-0.538-1.338-0.948-2.744-1.24-4.217
	c2.637-1.491,5.167-2.779,7.597-3.883c-0.286,1.752-0.493,3.517-0.6,5.296c-0.033,0.367,0.05,0.65,0.25,0.852
	c0.2,0.199,0.434,0.199,0.701,0c2.057-1.521,4.354-2.873,6.864-4.073c-0.096,0.807-0.136,1.629-0.105,2.471
	c0,0.233,0.134,0.4,0.4,0.501l0.801-0.15c2.259-1.068,4.504-2.475,6.735-4.187c2.683,1.243,5.672,2.341,8.984,3.285
	c5.474,1.578,11.488,2.646,18.018,3.229c-3.479,2.682-4.787,4.96-3.9,6.833c0.667,1.469,2.353,2.437,5.056,2.903
	c12.649,2.17,22.161,0.385,28.536-5.355c1.538-1.393,2.854-2.979,3.964-4.749l11.305-0.208c0.868,0.501,2.819,1.969,5.856,4.406
	l7.01,5.506l0.75,0.101c0.201-0.134,0.251-0.4,0.15-0.802c-0.834-3.537-1.368-6.273-1.602-8.209c1.335,1,4.256,2.82,8.761,5.456
	c4.739,2.804,8.177,4.673,10.313,5.606l0.801,0.051c0.166-0.167,0.184-0.417,0.05-0.751c-1.259-3.38-2.51-7.211-3.752-11.472
	c4.351,1.423,9.178,2.859,14.515,4.313c6.575,1.836,11.564,3.021,14.969,3.555l0.801-0.15c0.101-0.166,0-0.417-0.3-0.75
	c-1.97-2.337-3.821-4.757-5.558-7.26c4.439,1.602,9.896,3.088,16.371,4.455c0.467,0.101,0.751,0.033,0.852-0.199
	c0.1-0.234,0-0.484-0.301-0.752c-1.08-0.954-2.091-1.884-3.032-2.788c3.624,0.781,8.971,1.36,16.048,1.737
	c0.468,0,0.718-0.117,0.752-0.351c0.066-0.233-0.101-0.517-0.502-0.851c-2.094-1.763-3.981-3.604-5.674-5.521
	c4.49,1.206,10.181,2.479,17.088,3.818l18.624,3.205l0.601-0.201c0.133-0.166,0.133-0.367,0-0.6
	c-2.604-5.082-5.015-9.374-7.236-12.886l13.443,0.419C280.633,264.866,280.883,264.482,280.049,263.648z"/>
</svg>
