<?xml version="1.0" encoding="utf-8"?>
<!-- Generator: Adobe Illustrator 16.0.0, SVG Export Plug-In . SVG Version: 6.00 Build 0)  -->
<!DOCTYPE svg PUBLIC "-//W3C//DTD SVG 1.1//EN" "http://www.w3.org/Graphics/SVG/1.1/DTD/svg11.dtd">
<svg version="1.1" id="图层_1" xmlns="http://www.w3.org/2000/svg" xmlns:xlink="http://www.w3.org/1999/xlink" x="0px" y="0px"
	 width="190px" height="198px" viewBox="0 0 190 198" enable-background="new 0 0 190 198" xml:space="preserve">
<path d="M188.208,86.466c-0.532-1.132-1.581-2.829-3.146-5.092c-0.465-0.666-1.148-1.032-2.047-1.099
	c-1.131-0.066-2.512,0.399-4.143,1.398c-1.678,1.028-4.495,2.855-8.432,5.468l-0.355-8.613c-0.1-2.763-1.814-3.495-5.143-2.197
	c-3.295,1.265-5.109,3.095-5.441,5.492c-0.467,2.829-0.932,7.04-1.398,12.631c-0.024,0.357-0.044,0.686-0.062,1.006
	c-9.86,6.667-16.14,10.83-18.841,12.489c-2.381-2.821-5.087-5.527-8.156-8.104c-0.14-0.117-0.284-0.226-0.425-0.342
	c0.587-4.561,2.12-12.24,4.604-23.042l15.342-11.264c2.296-1.664,2.745-3.828,1.348-6.49c-1.397-2.663-3.577-3.745-6.54-3.245
	l-5.582,1.385l5.832-22.752c2.563-9.985,4.51-18.156,5.841-24.513c0.366-1.664-0.066-3.345-1.298-5.042
	c-1.165-1.598-2.763-2.879-4.793-3.844c-4.127-1.897-7.256-0.067-9.386,5.492l-12.261,28.058l-7.759-12.731
	c-0.766-1.431-1.98-2.296-3.645-2.596c-1.497-0.233-3.013,0.05-4.543,0.849c-1.598,0.799-2.729,1.897-3.396,3.295
	c-0.766,1.598-0.781,3.245-0.049,4.943c2.961,6.856,5.357,13.296,7.188,19.321c1.864,6.091,2.529,9.668,1.997,10.733
	c-2.829,5.458-5.775,10.601-8.837,15.427c-2.929,4.626-5.392,8.104-7.389,10.434c-0.077,0.089-0.141,0.169-0.213,0.255
	c-1.479-0.237-2.979-0.424-4.494-0.571c-0.402-1.636-0.829-3.39-1.284-5.275L88.41,66.346c-0.3-1.464-1.232-2.646-2.796-3.544
	c-1.431-0.899-3.079-1.365-4.942-1.398c-4.56-0.067-7.139,1.831-7.738,5.691c-0.5,3.162-1.548,7.955-3.146,14.378
	c-0.03,0.122-0.06,0.236-0.09,0.356l-5.252-15.433c-0.033-0.865,0.766-2.313,2.396-4.343l2.496-2.796
	c1.098-1.498,1.231-3.911,0.399-7.239c-0.865-3.562-2.479-5.176-4.843-4.843c-0.499,0.066-1.697,0.499-3.595,1.298l-2.419,1.025
	l-4.669-14.255c-4.76-14.411-7.872-23.481-9.336-27.208c-1.065-2.796-3.445-3.728-7.139-2.796c-3.694,0.965-5.359,2.829-4.993,5.591
	l3.476,28.003l-1.179-0.145l-6.291-2.546c-3.395-1.464-5.592-2.497-6.59-3.095c-2.33-1.432-4.36-0.366-6.091,3.195
	c-1.73,3.562-1.547,6.024,0.549,7.389c9.918,6.39,16.176,11.25,18.771,14.578c2.164,2.763,3.944,7.705,5.342,14.828l2.347,15.477
	l1.797,13.778c0.008,0.08,0.017,0.146,0.025,0.225c-2.11,2.104-4.03,4.254-5.772,6.448l-10.278-8.069l-0.02-0.016
	c0.009-0.354,0.016-0.73,0.02-1.133l-0.2-7.189l-0.399-5.042c-0.133-2.33-1.647-4.027-4.543-5.092
	c-2.929-1.065-4.56-0.267-4.893,2.396l-0.942,7.412l-7.745-6.114c-1.531-1.098-2.829-1.581-3.894-1.448
	c-1.198,0.167-2.396,1.082-3.594,2.746c-1.265,1.831-1.997,3.212-2.197,4.144c-0.333,1.464,0.083,3.045,1.248,4.743l8.862,10.316
	c-2.105,1.34-3.55,2.413-4.319,3.213c-1.131,1.132-1.464,2.131-0.999,2.996c0.799,1.397,1.98,2.629,3.545,3.693
	c1.165,0.799,2.13,1.282,2.896,1.448l8.59,0.269l8.6,10.014c-1.433,4.834-2.163,9.841-2.163,15.029
	c0,14.645,5.658,26.443,16.974,35.396c2.143,1.688,4.415,3.214,6.813,4.581l-0.273,5.753c-0.1,1.631,1.581,3.18,5.042,4.644
	c3.528,1.464,5.924,1.397,7.189-0.2c0.726-0.914,1.59-2.354,2.584-4.285c6.947,1.884,14.633,2.838,23.077,2.838
	c6.006,0,11.708-0.565,17.12-1.674l1.303,2.473c0.665,1.231,2.745,1.498,6.24,0.799c3.462-0.732,5.458-1.864,5.991-3.395
	c0.281-0.873,0.526-2.335,0.736-4.374c0.866-0.38,1.723-0.777,2.569-1.193l1.886,1.423c1.432,0.898,2.496,1.348,3.195,1.348
	c0.766,0,1.831-0.383,3.195-1.147c1.465-0.832,2.363-1.647,2.696-2.446l1.298-4.693l0.619-2.805
	c11.058-9.207,16.605-20.78,16.605-34.738c0-4.279-0.481-8.387-1.419-12.333l14.166-13.794l6.823,1.115l5.791,0.499
	c0.766-0.1,1.963-0.665,3.594-1.697c1.964-1.265,3.412-2.597,4.344-3.994c0.466-0.698,0.516-1.382,0.15-2.047l-1.648-1.647
	l-6.628-4.621l9.874-9.657l2.096-2.846C189.141,89.461,188.974,88.097,188.208,86.466z"/>
</svg>
