<?xml version="1.0" encoding="utf-8"?>
<!-- Generator: Adobe Illustrator 16.0.0, SVG Export Plug-In . SVG Version: 6.00 Build 0)  -->
<!DOCTYPE svg PUBLIC "-//W3C//DTD SVG 1.1//EN" "http://www.w3.org/Graphics/SVG/1.1/DTD/svg11.dtd">
<svg version="1.1" id="图层_1" xmlns="http://www.w3.org/2000/svg" xmlns:xlink="http://www.w3.org/1999/xlink" x="0px" y="0px"
	 width="153px" height="202px" viewBox="0 0 153 202" enable-background="new 0 0 153 202" xml:space="preserve">
<path d="M151.851,0.582l-2.247-0.05c-8.521,4.527-16.029,12.434-22.521,23.719c-6.458,11.285-10.536,23.569-12.233,36.852
	l-0.699,9.388c-0.396,4.694-0.977,8.229-1.734,10.634c-1.813-1.51-3.969-2.832-6.506-3.943c-5.326-2.33-11.551-3.496-18.675-3.496
	c-7.19,0-14.165,1.199-20.923,3.596c-7.091,2.53-13.083,6.075-17.977,10.636l-2.546-0.25c-2.881-0.197-5.648-0.153-8.314,0.103
	c-0.227-4.005-0.65-7.289-1.273-9.84c-0.898-3.562-2.114-5.326-3.645-5.293c-2.13,0.066-4.91,3.129-8.339,9.188
	c-2.402,4.236-4.096,8.312-5.108,12.233c-4.303,2.645-8.144,5.89-11.521,9.738c-5.459,6.258-7.99,12.484-7.59,18.676
	c0.22,2.89,2.422,6.351,6.555,10.368c-1.402,0.488-2.55,1.312-3.409,2.515c-0.999,1.365-1.198,2.58-0.599,3.646
	c0.766,1.331,2.397,1.848,4.894,1.548c2.199-0.24,4.154-0.999,5.889-2.222c3.688,2.46,7.716,4.402,12.087,5.817
	c6.178,2.033,12.278,3.362,18.301,3.999c0.104,6.128,2.21,11.377,6.367,15.725c4.427,4.562,8.855,5.71,13.282,3.446
	c3.396-1.731,4.311-4.978,2.747-9.738c-1.39-4.228-3.941-7.32-7.642-9.289c1.207-0.098,2.422-0.212,3.654-0.359
	c7.612,4.666,12.741,6.456,15.373,5.354c1.83-0.766,2.896-2.696,3.195-5.792c0.124-1.28,0.076-2.41-0.124-3.406
	c4.542-1.336,8.711-2.896,12.517-4.675c3.396,2.354,6.938,6.694,10.628,13.074c3.595,6.192,5.991,11.784,7.19,16.778
	c2.098,8.621,5.742,16.063,10.936,22.32c4.894,5.926,9.904,9.371,15.03,10.336c1.265,0.234,2.131,0.034,2.597-0.599
	c0.467-0.732,0.3-1.798-0.499-3.196c-1.997-3.495-3.246-7.406-3.745-11.734c-0.566-4.96,0.05-9.338,1.848-13.133
	c4.094-8.622,4.377-17.094,0.849-25.416c-1.331-3.196-2.13-6.442-2.397-9.738c-0.266-3.628,0.25-6.208,1.549-7.739
	c1.531-1.831,2.496-3.212,2.896-4.145c0.299-0.699,0.332-1.265,0.1-1.698c-0.566-1.064-2.73-1.432-6.492-1.098
	c-3.895,0.365-7.406,1.348-10.535,2.945c-3.695,1.932-6.426,3.195-8.189,3.795c-1.021,0.341-2.017,0.594-2.992,0.777l-5.483,0.146
	c3.214-2.703,5.968-5.684,8.226-8.963c7.239-10.475,8.373-21.553,3.437-33.229c4.21-2.415,8.127-3.979,11.743-4.671l8.039-0.6
	c2.896,0.133,5.277,0.666,7.142,1.598c0.2,0.133,0.383,0.133,0.549,0l0.25-0.599c-0.033-2.896,0.333-6.375,1.099-10.437
	c0.6-3.163,1.265-5.942,1.997-8.339c0.267-0.833,0.333-1.631,0.2-2.397l-0.75-1.948c-3.762-7.923-5.409-18.06-4.943-30.41
	c0.446-11.148,2.344-20.065,5.686-26.764c0.662-0.586,1.329-1.158,2.005-1.699C151.951,1.93,152.217,1.248,151.851,0.582z"/>
</svg>
