<?xml version="1.0" encoding="utf-8"?>
<!-- Generator: Adobe Illustrator 16.0.0, SVG Export Plug-In . SVG Version: 6.00 Build 0)  -->
<!DOCTYPE svg PUBLIC "-//W3C//DTD SVG 1.1//EN" "http://www.w3.org/Graphics/SVG/1.1/DTD/svg11.dtd">
<svg version="1.1" id="图层_1" xmlns="http://www.w3.org/2000/svg" xmlns:xlink="http://www.w3.org/1999/xlink" x="0px" y="0px"
	 width="291px" height="254px" viewBox="0 0 291 254" enable-background="new 0 0 291 254" xml:space="preserve">
<path d="M287.962,206.004c0.672-2.409,1.106-4.892,1.288-7.454c0.5-7.066,0.184-11.1-0.95-12.1c-0.7-0.601-2.533,0.066-5.5,2
	c-4.066,2.6-7.583,4.25-10.55,4.95c-2.383,0.539-4.914,0.613-7.585,0.242c-4.931-6.323-9.936-10.893-15.015-13.692
	c-4.467-2.467-9.167-3.616-14.101-3.45c-2.257,0.091-4.472,0.436-6.646,1.009c-1.335-1.598-3.013-2.906-5.054-3.909
	c-1.76-0.864-3.545-1.373-5.353-1.562c-1.388-2.003-2.937-3.933-4.647-5.788c-6.5-7.033-13.899-11.934-22.199-14.7
	c-3.722-1.229-6.7-1.986-8.947-2.28c-0.521-4.695,1.539-9.485,6.197-14.369c7.533-7.833,13.5-15.984,17.899-24.45
	c4.366-8.367,7-16.667,7.9-24.9c2.167-20.066-2.25-37.25-13.25-51.55c-8.09-10.532-18.069-17.431-29.925-20.721
	c-0.15-3.988-1.896-7.221-5.275-9.679c-2.967-2.167-6.434-3.35-10.4-3.55c-3.967-0.2-7.866,1.034-11.7,3.7
	c-3.415,2.373-5.254,4.897-5.528,7.571c-2.649,0.26-5.222,0.619-7.718,1.08c-2.656-2.178-5.785-3.39-9.403-3.601
	c-4.6-0.267-8.717,1.117-12.35,4.15c-3.476,2.953-5.528,6.61-6.194,10.954c-5.087,3.665-9.593,8.092-13.505,13.296
	c-2.239,2.976-4.204,6.131-5.919,9.447c-0.235,0.239-0.467,0.484-0.681,0.753c-5.9,7.367-9.117,16.75-9.65,28.15
	c-0.067,1.233,0.25,2.083,0.95,2.55c0.454,0.296,0.932,0.334,1.432,0.128c0.001,1.924,0.098,3.796,0.312,5.605
	c-3.717,1.775-8.825,3.415-15.344,4.917c-4.267,1.1-7.167,3.617-8.7,7.55c-1.434,3.667-1.567,8.184-0.4,13.55
	c1.333,6.167,3.583,10.617,6.75,13.35c3,2.6,8.133,4.7,15.4,6.3c8.633,1.9,15.117,3.883,19.45,5.95
	c2.396,1.145,4.49,2.492,6.301,4.03c1.431,4.238,1.019,9.243-1.25,15.02c-0.667,1.666-3.533,7.133-8.6,16.4
	c-0.929,1.706-1.765,3.399-2.515,5.084l-2.835,3.865c-2.867,3.734-5.233,6.367-7.1,7.9c-3.2,2.666-6.783,4.217-10.75,4.65
	c-10.333,1.166-15.983-0.783-16.95-5.851c-0.833-4.366-0.6-8.616,0.7-12.75c0.767-2.5,2.45-6.066,5.05-10.7l0.9-1.6
	c2.8-5.033,3.317-8.883,1.55-11.55c-2.033-3.067-6.783-3.184-14.25-0.351c-10.3,3.9-18.8,9.768-25.5,17.601
	c-1.334,1.567-2.554,3.188-3.695,4.848c-2.548,0.232-4.95,1.114-7.205,2.652c-3.5,2.366-5.667,5.634-6.5,9.8
	c-0.8,4.2-0.017,8.033,2.35,11.5c0.525,0.776,1.102,1.476,1.714,2.124C3.8,204.491,4.31,210.684,6,216.7
	c0.708,2.508,1.61,4.852,2.665,7.067c-0.036,0.13-0.082,0.251-0.115,0.383c-1.133,4.699-0.417,9.184,2.15,13.449
	c2.6,4.268,6.233,6.967,10.9,8.101c3.79,0.947,7.381,0.586,10.776-1.07c4.666,1.685,9.705,2.663,15.124,2.92
	c11.367,0.534,23.783-2.1,37.25-7.899c5-2.167,9.5-3.5,13.5-4c4.033-0.533,8.333-0.301,12.9,0.699
	c0.314,0.067,0.611,0.118,0.892,0.154c1.201,0.457,2.434,0.892,3.708,1.296c8.967,2.866,19.5,4.333,31.6,4.4
	c2.037,0.023,4.023,0,5.967-0.064c0.808,0.732,1.643,1.444,2.533,2.114c7.768,5.834,17.667,8.75,29.7,8.75
	c4.472,0,8.605-0.547,12.404-1.634c3.743,1.542,7.674,1.612,11.796,0.184c4.566-1.634,7.816-4.649,9.75-9.05
	c1.531-3.504,2.018-6.979,1.487-10.422c2.562,0.982,6.093,2.172,10.612,3.572c4.673,1.434,8.803,2.377,12.4,2.837
	c3.879,1.612,7.696,2.039,11.45,1.263c4.966-1.033,8.7-3.2,11.2-6.5c0.551-0.719,1.013-1.453,1.395-2.203
	c0.706-0.466,1.416-0.938,2.155-1.447c2.899-2.02,5.486-4.223,7.774-6.603c0.794-0.095,1.635-0.273,2.525-0.547
	c3.166-0.934,5.383-2.284,6.65-4.05c1.866-2.533,2.566-5.351,2.1-8.45C289.027,208.48,288.596,207.167,287.962,206.004z"/>
</svg>
