<?xml version="1.0" encoding="utf-8"?>
<!-- Generator: Adobe Illustrator 16.0.0, SVG Export Plug-In . SVG Version: 6.00 Build 0)  -->
<!DOCTYPE svg PUBLIC "-//W3C//DTD SVG 1.1//EN" "http://www.w3.org/Graphics/SVG/1.1/DTD/svg11.dtd">
<svg version="1.1" id="图层_1" xmlns="http://www.w3.org/2000/svg" xmlns:xlink="http://www.w3.org/1999/xlink" x="0px" y="0px"
	 width="237px" height="308px" viewBox="0 0 237 308" enable-background="new 0 0 237 308" xml:space="preserve">
<path d="M236.26,50.758c0-1.001-3.787-1.719-11.363-2.152c-9.027-0.521-20.781-0.341-35.249,0.538
	c0.63-3.493,1.096-7.163,1.36-11.05c0.434-5.973,0.184-9.11-0.75-9.411c-0.936-0.333-4.939,3.921-12.014,12.765
	c-5.273,6.574-10.746,13.749-16.419,21.524l-4.15,1.403c-3.732-4.102-8.907-6.986-15.572-8.611
	c-7.215-1.748-14.078-1.627-20.597,0.318c0.12-5.314,0.378-8.693,0.774-10.13c3.204-4.505,6.323-9.694,9.36-15.567
	c3.271-6.307,4.438-9.694,3.504-10.162c-0.968-0.467-4.154,0.751-9.561,3.654c-3.283,1.767-5.995,3.58-8.176,5.436l-0.784-14.346
	C115.956,5.089,115.372,0.1,114.872,0c-0.534-0.1-1.785,1.102-3.754,3.604c-2.102,2.669-4.221,5.84-6.357,9.511
	c-3.752,6.462-6.312,12.358-7.696,17.693c-1.634-0.894-4.284-1.868-7.972-2.926c-4.338-1.235-6.824-1.535-7.458-0.901
	c-0.601,0.601,0.818,6.224,4.255,16.869c2.57,7.976,5.156,15.534,7.759,22.676l-7.759,1.752c-3.871,0.901-5.856,1.585-5.957,2.052
	s0.684,1.185,2.353,2.152l3.554,1.952c-5.139,4.839-8.36,11.38-9.661,19.623c-0.542,3.349-0.666,6.553-0.376,9.612
	c-0.634,0.726-0.917,1.378-0.825,1.951c0.091,0.593,0.558,1.146,1.383,1.662c0.779,3.676,2.198,7.128,4.273,10.352
	c-0.498,0.072-0.972,0.154-1.457,0.232c-8.519-8.035-20.008-16.389-34.484-25.061C28.073,82.861,15.108,77.372,5.798,76.337
	c-2.77-0.3-4.522,0.351-5.256,1.952c-0.768,1.635-0.618,4.539,0.45,8.71c1.602,6.24,4.372,13.115,8.31,20.624
	c4.205,7.976,8.977,15.134,14.316,21.474c12.852,15.357,24.939,21.694,36.268,19.065c-6.864,8.474-12.331,16.269-16.396,23.383
	c-4.73,8.313-8.188,16.633-10.394,24.958c-0.335-0.107-0.661-0.151-0.97-0.079c-0.834,0.199-1.885,1.234-3.153,3.104
	c-1.735,2.569-3.154,5.973-4.255,10.211c-1.902-1.635-3.621-2.836-5.156-3.604c-1.902-0.969-3.271-1.118-4.105-0.451
	c-1.134,0.868-1.518,3.287-1.151,7.258c0.333,3.972,1.301,8.193,2.903,12.665c2.77,7.742,6.941,14.283,12.514,19.622
	c5.172,4.939,9.21,6.842,12.114,5.707c1.966-0.771,3.255-2.994,3.888-6.622c2.417,1.491,5.122,2.865,8.125,4.119l13.064,3.904
	c5.439,1.602,9.544,3.788,12.314,6.558c8.488,8.487,17.619,13.929,27.383,16.365c-1.289,1.169-2.541,2.52-3.756,4.058
	c-1.769,2.235-3.204,4.522-4.305,6.858c-1.802,3.703-2.586,7.342-2.353,10.912c0.167,2.836,0.734,4.655,1.702,5.456
	c0.5,0.434,2.403,0.167,5.707-0.801c3.638-1.067,6.658-2.47,9.06-4.205c1.135,2.603,3.104,5.022,5.907,7.259
	c2.203,1.734,3.821,2.686,4.856,2.854c0.768,0.133,1.785-0.651,3.053-2.354c1.336-1.835,2.57-4.205,3.705-7.107
	c2.731-7.244,3.733-14.869,3.049-22.869c1.948,1.506,4.684,3.039,8.213,4.598c12.815,5.473,25.646,6.124,38.494,1.953
	c11.848-3.805,20.307-10.296,25.379-19.473c4.238-7.609,5.656-16.836,4.255-27.682c-1.508-11.561-6.395-21.668-14.633-30.332
	c-1.335-3.311-2.962-6.78-4.89-10.414c-9.388-17.637-21.634-31.839-36.723-42.628c-0.508-0.621-1.138-1.337-1.921-2.173
	c-0.823-0.865-1.657-1.672-2.497-2.453c7.136-0.715,13.192-3.666,18.165-8.86c4.772-4.964,7.564-10.895,8.424-17.77
	c2.142,1.033,4.189,1.851,6.143,2.452c2.27,0.734,3.688,0.968,4.255,0.701c0.534-0.2,0.367-2.753-0.5-7.659
	c-0.799-4.511-1.597-7.736-2.395-9.708l5.697,0.247c2.837-0.333,4.389-0.784,4.656-1.352c0.334-0.601-0.602-2.436-2.804-5.506
	c-2.14-2.97-4.445-5.479-6.901-7.577c5.781-1.168,13.194-2.811,22.27-4.938c17.753-4.104,26.73-6.574,26.93-7.408
	c0.134-0.701-3.203-2.954-10.012-6.758l-14.233-7.801c5.425-2.408,10.425-4.714,14.985-6.916
	C232.038,53.861,236.26,51.492,236.26,50.758z M162.197,217.822c-0.003-0.022-0.007-0.045-0.01-0.067
	c0.017,0.009,0.033,0.017,0.051,0.025C162.225,217.795,162.211,217.808,162.197,217.822z"/>
</svg>
