<?xml version="1.0" encoding="utf-8"?>
<!-- Generator: Adobe Illustrator 16.0.0, SVG Export Plug-In . SVG Version: 6.00 Build 0)  -->
<!DOCTYPE svg PUBLIC "-//W3C//DTD SVG 1.1//EN" "http://www.w3.org/Graphics/SVG/1.1/DTD/svg11.dtd">
<svg version="1.1" id="图层_1" xmlns="http://www.w3.org/2000/svg" xmlns:xlink="http://www.w3.org/1999/xlink" x="0px" y="0px"
	 width="506px" height="353px" viewBox="0 0 506 353" enable-background="new 0 0 506 353" xml:space="preserve">
<path d="M503.049,131.733c-3.301-2.834-6.886-4.519-10.754-5.052c-4.068-0.567-9.221-0.017-15.456,1.651
	c-16.674,4.468-30.963,7.703-42.867,9.704c-14.806,2.468-29.495,3.702-44.067,3.702c-17.674,0-38.782-3.168-63.325-9.504
	c-14.772-3.835-35.347-10.221-61.724-19.158l-25.061-8.503c-8.737-2.868-15.873-4.936-21.409-6.203
	c-4.668-1.067-9.303-1.751-13.905-2.051c-2.6-0.177-5.416-0.224-8.399-0.168c2.731-11.6,3.48-24.131,2.247-37.597
	c-1.201-12.972-4.068-25.077-8.604-36.314C186.124,13.37,180.421,7,172.618,3.132c-7.136-3.535-13.455-4.018-18.958-1.451
	c-3.468,1.634-5.802,5.119-7.002,10.454c-1.334,5.836-0.767,12.072,1.701,18.708c1.4,3.735,4.618,8.72,9.654,14.956
	c5.302,6.536,8.854,11.888,10.654,16.056c2.734,6.369,4.568,12.355,5.502,17.957c0.867,5.43,1.046,11.594,0.552,18.478
	c-6.088,1.162-11.768,2.777-17.009,4.881c-9.237,3.735-18.174,9.337-26.811,16.807c-2.252,1.964-4.339,3.95-6.263,5.958
	c-6.193-3.48-11.443-9.881-15.746-19.213c-3.835-8.304-6.085-16.673-6.752-25.11l-0.45-9.053c-0.267-4.035-0.767-7.653-1.5-10.854
	c-1.301-5.636-3.802-9.954-7.503-12.955c-3.602-2.935-7.553-3.952-11.855-3.051c-2.401,0.5-4.752,2.051-7.053,4.652
	c-2.434,2.734-4.435,6.203-6.002,10.404c-3.768,10.137-4.085,21.292-0.95,33.463c2.368,9.271,8.487,18.391,18.357,27.361
	c8.074,7.328,17.578,13.702,28.488,19.138c-0.744,1.381-1.424,2.771-2.028,4.172c-3.668,8.437-5.502,19.024-5.502,31.762
	c0,1.3,0.167,3.417,0.5,6.353l0.55,4.401l0.3,4.052c0,8.903-4.035,21.325-12.105,37.265c-7.136,14.005-14.239,25.11-21.308,33.313
	c-4.902,5.701-11.955,11.921-21.159,18.657l-37.415,25.81c-5.302,3.635-9.154,6.903-11.555,9.805
	c-2.501,3.001-3.818,6.035-3.952,9.104c-0.233,6.636,5.319,12.121,16.657,16.456c10.504,4.035,24.109,6.485,40.816,7.353
	c16.807,0.834,33.18-0.116,49.12-2.851c17.34-2.968,31.179-7.636,41.517-14.006l14.605-9.304c4.535-2.9,7.97-4.768,10.304-5.602
	c2.134-0.768,5.102-1.352,8.903-1.751l9.254-1.05l8.353-1.502c2.834-0.633,5.069-1.333,6.703-2.1
	c2.167-1.001,4.285-2.552,6.353-4.652l5.152-6.002l4.051-5.002c1.379-1.548,2.683-2.819,3.92-3.845
	c3.082,0.683,6.174,1.311,9.286,1.843c15.373,2.635,29.429,3.135,42.167,1.502c13.338-1.701,23.909-5.586,31.712-11.655
	c0.672-0.525,1.315-1.09,1.932-1.691c4.431,9.021,10.815,17.324,19.177,24.9c11.871,10.704,23.476,16.057,34.813,16.057
	c12.973,0,23.776-4.068,32.413-12.205c9.037-8.503,13.556-19.624,13.556-33.363c0-10.337,3.818-18.624,11.454-24.859
	c3.835-3.135,7.937-5.335,12.305-6.603c4.469-1.301,8.954-1.501,13.456-0.601l1.3-0.149c0.067-0.234-0.066-0.534-0.399-0.9
	c-2.368-3.168-6.119-5.637-11.255-7.403c-5.269-1.801-10.805-2.418-16.606-1.851c-8.637,0.8-16.474,3.501-23.51,8.104
	c-8.96,5.818-16.296,14.56-22.01,26.215c-0.691-2.489-1.011-4.364-0.949-5.607c0.067-1.134,0.367-2.168,0.9-3.102
	c0.567-0.934,1.468-1.934,2.701-3.001c0.233-0.2,0.25-0.399,0.05-0.601c-4.146-3.518-6.359-7.216-6.688-11.09
	c0.585-0.336,1.142-0.686,1.636-1.064c1.217-0.924,2.259-1.936,3.147-3.026c0.546,0.144,0.981,0.353,1.305,0.626
	c0.434,0.333,0.816,0.883,1.15,1.65l1.4,3.951l1.301,4.602l0.2,0.301l0.399-0.2c0.667-0.733,1.534-1.384,2.602-1.95
	c1.233-0.701,2.334-1.001,3.301-0.9l0.4-0.301c0.567-3.401,1.968-6.002,4.202-7.803c1.767-1.367,4.201-2.334,7.303-2.901
	c0.634-0.101,0.667-0.351,0.1-0.751c-3.668-2.4-6.902-4.034-9.703-4.901c-2.441-0.746-5.154-1.11-8.131-1.104
	c2.166-1.429,4.281-2.999,6.33-4.749l7.452-6.703c2.802-2.5,5.253-4.4,7.354-5.701c4.135-2.568,11.305-5.686,21.508-9.354
	c10.771-3.869,20.842-8.537,30.212-14.006c23.81-13.873,39.35-27.161,46.619-39.866c2.701-4.702,4.035-8.953,4.001-12.755
	C505.566,135.451,504.717,133.167,503.049,131.733z M346.087,290.596c-8.537-2.668-15.739-6.803-21.608-12.404
	c-2.726-2.619-4.938-5.358-6.648-8.214c0.777-2.22,1.413-4.629,1.896-7.243c1.41-7.759,1.544-17.761,0.427-29.959
	c4.666,2.204,9.566,4.021,14.729,5.4c1.638,0.443,3.247,0.826,4.835,1.157c-0.026,0.549-0.065,1.088-0.083,1.644
	c-0.067,2.101,0.45,3.768,1.55,5.002c0.968,1.101,2.151,1.634,3.552,1.601s2.551-0.65,3.451-1.851
	c0.888-1.153,1.274-2.681,1.218-4.541c0.463,0.467,0.938,0.931,1.434,1.39c4.135,3.835,7.603,5.752,10.404,5.752
	c0.943,0,1.924-0.093,2.934-0.264l-0.283,11.318c0.034,3.968,0.384,7.437,1.051,10.404c0.843,3.593,2.036,7.048,3.579,10.364
	c-2.076,2.572-4.282,4.734-6.63,6.442C356.791,290.329,351.522,291.663,346.087,290.596z"/>
</svg>
