<?xml version="1.0" encoding="utf-8"?>
<!-- Generator: Adobe Illustrator 16.0.0, SVG Export Plug-In . SVG Version: 6.00 Build 0)  -->
<!DOCTYPE svg PUBLIC "-//W3C//DTD SVG 1.1//EN" "http://www.w3.org/Graphics/SVG/1.1/DTD/svg11.dtd">
<svg version="1.1" id="图层_1" xmlns="http://www.w3.org/2000/svg" xmlns:xlink="http://www.w3.org/1999/xlink" x="0px" y="0px"
	 width="465px" height="402px" viewBox="0 0 465 402" enable-background="new 0 0 465 402" xml:space="preserve">
<path d="M461.851,116.854c-0.2-0.566-1.815-0.716-4.848-0.45c-19.254,1.766-40.44,6.529-63.559,14.291
	c-10.983,3.679-19.903,7.113-26.799,10.308c-4.314-7.556-9.698-15.702-16.174-24.449l-0.35-12.242l-0.999-18.988
	c-0.399-6.795-0.916-11.692-1.549-14.69c-1.633-7.595-4.015-14.791-7.146-21.586c-3.231-6.929-6.729-12.275-10.493-16.04
	c-3.298-3.264-5.363-3.631-6.196-1.099c-0.2,0.5-0.467,3.731-0.8,9.694c-0.566,9.494-2.465,20.937-5.696,34.328
	c-2.031,8.495-3.98,15.54-5.846,21.137c-11.06,0.533-19.903,1.982-26.533,4.347c-5.929,2.132-9.36,4.664-10.294,7.595
	c-0.332,1.1,0.484,2.648,2.449,4.647c1.183,1.229,2.75,2.537,4.665,3.917c-2.182,3.955-3.229,8.772-3.116,14.471
	c0.233,9.494,4.08,19.254,11.543,29.281l-0.8,2.249l-2.499,5.747c-0.666,0.133-1.281,0.316-1.848,0.549
	c-0.566,0.2-1.017,0.566-1.35,1.1c-2.465,4.297-4.214,7.562-5.246,9.793c-0.967,0.066-1.883,0.583-2.749,1.549
	c-1.333,1.566-2.964,3.881-4.896,6.946c-1.032,0.233-2.082,0.75-3.147,1.549l-1.4,1.199l-11.342,13.641
	c-0.566,0.666-0.916,1.332-1.05,1.999l-0.149,0.749l-10.594,3.748l-10.296,3.433c-2.396-9.283-5.238-19.462-8.542-30.565
	c-9.361-31.446-17.056-50.934-23.085-58.462c-3.331-4.164-9.793-10.876-19.387-20.137c-12.992-12.525-26.683-24.534-41.074-36.027
	C97.818,36.239,57.794,13.721,20.585,2.828C13.023,0.629,7.244-0.254,3.246,0.179c-4.064,0.433-4.514,2.032-1.349,4.797
	c24.424,21.625,47.511,42.963,69.285,64.021c-8.442-4.205-17.495-7.825-27.163-10.855c-11.826-3.697-24.084-6.379-36.776-8.044
	c-4.231-0.566-4.081,1.416,0.45,5.946c23.68,21.072,47.989,42.935,72.91,65.568c-7.992-2.246-17.893-4.034-29.738-5.357
	c-14.924-1.666-26.999-1.782-36.227-0.35c-2.365,0.366-3.714,0.949-4.047,1.749c-0.333,0.8,0.4,1.766,2.199,2.898
	c32.074,20.056,61.742,39.347,89.026,57.878c-11.123-0.527-22.672,0.141-34.661,2.033c-10.76,1.699-17.838,3.531-21.236,5.497
	c-2.798,1.632-4.064,2.881-3.797,3.748c0.3,0.933,2.481,2.099,6.546,3.498c30.213,10.194,53.199,18.188,68.955,23.985
	c25.091,9.243,46.277,17.679,63.572,25.311c-6.627,5.594-11.494,12.6-14.553,21.059c-0.126,0.347-0.234,0.713-0.355,1.065
	c-0.527-0.989-1.138-1.961-1.844-2.913c-2.165-2.932-4.83-5.247-7.995-6.945c-4.797-2.565-10.21-3.781-16.24-3.648l-5.796,0.3
	c-1.766,0.033-2.998-0.183-3.698-0.649c-18.122-11.859-33.828-21.803-47.12-29.83c-11.759-7.096-17.855-10.461-18.288-10.094
	c-0.233,0.232,0.5,1.665,2.198,4.297c2.266,3.465,5.563,7.795,9.894,12.992c12.991,15.489,32.229,34.894,57.712,58.212
	c1.833,1.665,3.548,2.882,5.147,3.647c1.599,0.766,2.765,0.916,3.498,0.449c0.333-0.199,0.35-1.248,0.05-3.147l-0.699-3.548
	c-0.367-1.266-0.55-2.564-0.55-3.897c0-1.766,0.4-3.198,1.199-4.297c0.866-1.199,2.232-1.882,4.097-2.049
	c2.932,1.865,5.197,4.431,6.796,7.694c1.565,3.199,2.349,6.696,2.349,10.494c0,1.166-0.35,2.248-1.049,3.248
	c-0.7,1.099-1.549,1.665-2.548,1.699c-1.632,0.1-2.249,0.6-1.849,1.498l1.449,1.699l5.173,4.787
	c-0.534,2.227-0.862,4.545-0.976,6.955c-0.333,6.163,0.75,11.959,3.248,17.389c0.47,1.038,0.993,2.016,1.541,2.965l-2.69-0.116
	c-1.632-0.5-3.048-1.166-4.247-1.999c-0.7-0.533-1.549-0.283-2.548,0.75l-3.148,3.747c-2.765,3.032-4.98,4.997-6.646,5.896
	l-2.898-1.849c0.766-3.299-0.8-6.263-4.697-8.895c-3.964-2.665-8.361-3.581-13.191-2.748c-4.097,0.699-7.645,1.748-10.643,3.148
	c-3.698,1.731-7.029,4.18-9.994,7.345c-1.932,2.065-2.865,3.481-2.798,4.247c0.067,0.866,1.35,1.516,3.848,1.949
	c5.463,0.932,10.727,2.515,15.79,4.746c2.598,1.1,4.896,2.216,6.896,3.348l1.899,0.45c0.6,2.299,0.2,6.462-1.199,12.492
	c-1.033,4.364-2.182,8.345-3.448,11.942c-5.196,1.898-10.227,3.281-15.09,4.146l-10.993,0.6c-1.299-0.232-2.115-0.115-2.448,0.351
	c-0.4,0.532-0.15,1.448,0.75,2.748c4.164,5.963,8.828,10.376,13.991,13.241c4.664,2.599,9.328,3.731,13.991,3.398
	c4.397-0.267,7.795-0.95,10.193-2.049c5.263,1.133,11.493,0.583,18.688-1.649c1.699-0.533,2.232-1.716,1.599-3.548l-1.349-3.747
	c0.666-1.065,0.999-2.132,0.999-3.198c0-0.766-0.15-1.549-0.45-2.348c-1.199-3.365-2.099-7.046-2.698-11.043
	c-1-7.096-0.7-13.592,0.899-19.488c0.833-0.832,2.016-1.565,3.548-2.198c2.565-1.099,4.747-0.983,6.546,0.35
	c3.165,2.265,7.145,2.864,11.942,1.799c4.611-1.027,9.547-3.532,14.799-7.474c1.029,0,2.072-0.03,3.139-0.121
	c0.181-0.015,0.353-0.032,0.531-0.049l1.168,3.146c1.299,3.831,1.882,6.68,1.749,8.545c-0.066,1.365-0.833,3.248-2.298,5.646
	l-2.148,3.197l-1.199-0.449c-0.966-0.133-1.999,0.199-3.098,0.999c-3.065,2.298-6.413,4.313-10.043,6.046
	c-2.998,1.466-5.846,2.565-8.544,3.299c-2.998,0.832-4.581,1.682-4.747,2.548c-0.167,0.899,1.116,2.298,3.848,4.197
	c4.364,3.064,9.111,5.347,14.241,6.845c5.729,2.6,11.709,3.848,17.938,3.748c5.196-0.1,10.16-1.115,14.89-3.048
	c1.866-0.767,2.965-1.532,3.298-2.298c0.2-0.533,0.05-1.366-0.45-2.499l-2.948-5.946v-2.299l-0.3-2.148
	c-0.5-4.963-0.133-10.061,1.099-15.29c1.133-4.696,2.648-8.461,4.547-11.292c2.032-1.033,5.363-0.667,9.994,1.099
	c2.332,0.899,4.464,1.882,6.396,2.948c1.132,0.434,2.948,0,5.446-1.299c3.034-1.563,6.938-4.397,11.692-8.47
	c9.889-1.363,17.59-5.978,23.085-13.866c6.297-9.061,9.411-19.021,9.344-29.881c0-3.397-0.332-6.746-0.998-10.043l-0.513-2.073
	c0.905-2.699,1.762-5.5,2.561-8.421l0.749-2.748c0.496-1.758,0.991-3.892,1.483-6.39c25.353-9.722,51.869-18.836,79.564-27.339
	l21.187-6.596c4.931-1.632,7.528-2.881,7.795-3.747c0.2-0.499-1.682-1.216-5.646-2.148c-3.829-0.917-7.926-1.367-12.279-1.367
	c17.223-6.614,36.787-14.103,58.7-22.468l5.945-2.549c0.434-0.532-1.049-1.315-4.446-2.348c-3.465-1.033-8.361-2.049-14.69-3.048
	c-6.394-1.006-11.927-1.576-16.61-1.714c33.159-16.382,49.55-25.06,49.139-26.018c-0.6-1.333-7.729-2.731-21.386-4.197
	c-13.104-1.404-23.895-1.587-32.375-0.551c34.956-26.707,53.938-41.639,56.909-44.77
	C461.067,118.786,462.05,117.387,461.851,116.854z M299.904,202.349l3.299-15.49c0.266-1.232,0.232-2.232-0.101-2.998l1.249-2.599
	c0.934,2.099,1.666,4.447,2.199,7.045c0.532,2.599,0.782,5.03,0.749,7.295c-0.002,0.142,0.014,0.287,0.02,0.43
	c-2.339,2.575-4.63,5.11-6.873,7.607C300.307,203.203,300.136,202.771,299.904,202.349z"/>
</svg>
