<?xml version="1.0" encoding="utf-8"?>
<!-- Generator: Adobe Illustrator 16.0.0, SVG Export Plug-In . SVG Version: 6.00 Build 0)  -->
<!DOCTYPE svg PUBLIC "-//W3C//DTD SVG 1.1//EN" "http://www.w3.org/Graphics/SVG/1.1/DTD/svg11.dtd">
<svg version="1.1" id="图层_1" xmlns="http://www.w3.org/2000/svg" xmlns:xlink="http://www.w3.org/1999/xlink" x="0px" y="0px"
	 width="145px" height="198px" viewBox="0 0 145 198" enable-background="new 0 0 145 198" xml:space="preserve">
<path d="M140.387,10.876c2.695-6.287,3.926-9.647,3.693-10.08c-0.666-1.164-4.176-1.214-10.529-0.15
	c-6.578,1.118-11.7,3.011-15.396,5.661c-0.109-0.04-0.209-0.083-0.321-0.122c-3.094-1.064-7.003-1.563-11.727-1.497
	c-4.392,0.033-8.517,1.098-12.375,3.194c-0.363,0.197-0.712,0.403-1.057,0.611c-1.997-1.478-4.122-2.764-6.378-3.854
	c-2.795-1.331-4.541-1.813-5.24-1.447c-1.43,0.765-1.813,3.343-1.146,7.734c0.505,3.587,1.664,6.882,3.459,9.894
	c-0.467,1.845-0.777,3.879-0.914,6.124c-0.234,3.834,0.105,7.238,1.002,10.225c-1.376,1.593-2.643,3.884-3.797,6.891
	c-1.131,3.027-1.631,5.206-1.497,6.537c0.174,1.524,0.815,3.153,1.896,4.879c-5.533,1.214-10.116,2.844-13.723,4.901
	c-0.374,0.213-0.73,0.438-1.086,0.662c-4.477-0.387-8.723,0.068-12.736,1.384c-5.622,1.863-10.362,5.306-14.221,10.329
	c-0.433,0.561-0.841,1.129-1.233,1.702c-2.607,0.938-4.927,2.082-6.95,3.438c-0.487,0.329-0.956,0.683-1.417,1.047
	c-0.736,0.49-1.438,0.988-2.076,1.498c-1.335,1.084-2.54,2.322-3.639,3.682c-2.341,0.697-4.736,1.187-7.189,1.458
	c-4.258,0.499-8.034,0.25-11.327-0.749c-1.863-0.532-3.11-0.416-3.742,0.349c-0.433,0.466-0.516,1.397-0.25,2.794
	c0.232,1.497,0.798,3.11,1.696,4.84c1.664,3.36,4.059,6.62,7.186,9.78c2.113,2.085,4.276,3.875,6.481,5.402
	c0.04,1.532,0.136,3.12,0.305,4.776c0.2,2.029,0.815,6.006,1.847,11.927l0.399,2.744c0.1,1.064-0.333,2.479-1.297,4.241
	l-2.844,4.541l-0.599,1.048c-0.732,1.198-0.948,2.495-0.649,3.893c0.167,0.765,0.549,1.847,1.148,3.243l0.499,1.547l0.349,5.09
	l-0.042,3.174c-0.353,0.161-0.796,0.425-1.355,0.818c-1.098,0.765-1.813,1.529-2.146,2.295c-0.399,0.965-0.565,3.11-0.499,6.438
	c0.067,3.426,0.35,5.705,0.848,6.836c0.367,0.813,0.902,1.512,1.597,2.103v0.343c0,1.131,0.366,2.312,1.098,3.543
	c0.433,0.765,1.248,1.896,2.445,3.393c2.029,2.562,3.293,4.607,3.792,6.138c0.399,1.198,1.264,2.229,2.595,3.094
	c1.597,1.031,3.26,1.28,4.99,0.749l1.846-0.549l2.595-0.85c0.798-0.432,1.281-1.014,1.447-1.746l2.695-0.599
	c1.031-0.433,1.646-0.782,1.846-1.048l0.699-1.248c1.796-0.199,2.994-0.98,3.593-2.345c0.299-0.599,0.449-1.397,0.449-2.396
	c0-1.031-0.133-1.996-0.399-2.894c-0.2-0.765-0.565-1.397-1.098-1.896l-1.747-1.147c-1.828-1.154-3.308-2.357-4.456-3.604
	c0.899-1.443,1.038-5.329,0.414-11.665c-0.166-1.43-0.482-2.445-0.948-3.043l-1.23-0.933c0.512-1.409,1.19-2.813,2.078-4.208
	c0.865-1.396,2.246-3.243,4.142-5.538l2.844-2.994c0.932-0.998,1.497-1.862,1.696-2.595l1.647-6.687l1.597-6.188
	c0.743-0.206,1.424-0.374,2.077-0.524c0.652,1.109,1.008,2.747,1.066,4.916c0.067,1.896-0.033,3.409-0.299,4.541
	c-0.366,1.43-0.366,2.578,0,3.442l1.63,4.918l-0.583,0.421c-0.665,0.533-1.147,1.148-1.447,1.847
	c-0.366,0.897-0.449,2.562-0.249,4.989c0.232,2.296,0.582,4.076,1.048,5.34c0.574,1.492,1.748,2.528,3.517,3.115
	c-0.145,1.534-0.187,2.496-0.124,2.873c0.1,0.798,0.549,1.547,1.347,2.245l2.495,1.896c1.696,1.198,2.861,2.229,3.493,3.094
	c1.131,1.498,2.295,2.512,3.493,3.045c0.832,0.365,1.846,0.549,3.044,0.549l3.144-0.648c1.064-0.5,1.763-1.132,2.095-1.896
	c1.73-0.333,3.012-0.998,3.843-1.996c0.565-0.699,0.882-1.48,0.948-2.346c0.832-0.232,1.43-0.848,1.796-1.846l0.449-2.445
	c0-1.73-0.249-2.978-0.749-3.742c-0.465-0.666-1.463-1.397-2.993-2.195c-1.224-0.484-2.136-0.916-2.775-1.303
	c0.714-1.516,0.848-4.327,0.38-8.479c-0.166-1.43-0.482-2.428-0.947-2.994l-1.448-0.998l-0.19,0.063
	c0.766-6.199,1.368-10.199,1.806-11.993c3.097,0.687,5.906,0.994,8.414,0.902c1.597,7.119,2.495,11.727,2.694,13.822
	c0.333,3.593,1.048,6.453,2.146,8.582l4.541,7.635l2.067,3.144c-0.087,0.078-0.171,0.15-0.271,0.25
	c-0.666,0.632-1.182,1.364-1.547,2.196c-0.466,1.064-0.199,3.109,0.798,6.137c0.765,2.362,1.647,4.491,2.646,6.387
	c0.998,1.863,1.763,3.027,2.295,3.494c0.811,0.713,1.898,1.094,3.254,1.152l0.339,2.09c0.232,1.132,0.964,2.146,2.195,3.045
	l4.292,2.545c2.195,1.197,4.607,2.927,7.234,5.189c0.633,0.531,1.863,0.715,3.693,0.549c1.696-0.133,3.276-0.482,4.74-1.049
	c1.796-0.631,2.877-1.529,3.243-2.693h0.05l4.042-1.747c1.331-0.798,2.079-1.68,2.245-2.645l1.397-0.649l1.247-1.098l0.699-1.146
	l0.149-1.498c0-1.197-0.249-2.479-0.749-3.842c-0.697-2.063-1.347-3.426-1.945-4.092c-0.832-0.898-2.328-1.663-4.491-2.295
	l-3.442-1.049c-1.384-0.479-2.589-1.022-3.636-1.622c0.022-0.972-0.392-2.851-1.255-5.663l-1.646-4.84
	c-0.654-1.712-2.236-2.611-4.725-2.722c-0.924-3.643-1.573-6.576-1.942-8.786c0.388-2.345,1.227-5.011,2.525-8.003
	c0.897-2.063,2.444-5.123,4.641-9.181l3.593-6.986c0.973-2.181,1.585-4.017,1.879-5.544c5.65-6.109,8.643-13.106,8.949-21.002
	c0.133-3.061,0-5.772-0.399-8.134c-0.466-2.262-0.765-4.059-0.898-5.389c-0.333-3.726-0.499-6.354-0.499-7.884
	c0-2.096,0.199-4.691,0.6-7.785c0.531-3.526,0.798-7.352,0.798-11.477l-0.249-19.66c0-6.653,0.315-10.961,0.947-12.924
	C135.215,23.234,137.16,18.394,140.387,10.876z"/>
</svg>
