<?xml version="1.0" encoding="utf-8"?>
<!-- Generator: Adobe Illustrator 16.0.0, SVG Export Plug-In . SVG Version: 6.00 Build 0)  -->
<!DOCTYPE svg PUBLIC "-//W3C//DTD SVG 1.1//EN" "http://www.w3.org/Graphics/SVG/1.1/DTD/svg11.dtd">
<svg version="1.1" id="图层_1" xmlns="http://www.w3.org/2000/svg" xmlns:xlink="http://www.w3.org/1999/xlink" x="0px" y="0px"
	 width="319px" height="331px" viewBox="0 0 319 331" enable-background="new 0 0 319 331" xml:space="preserve">
<path d="M313.254,82.763c-2.864-13.156-10.675-24.481-23.432-33.973l6.146-3.547c0.366-0.233,0.55-0.483,0.55-0.75
	s-0.2-0.5-0.6-0.699c-3.331-1.499-7.711-3.297-13.141-5.396c-7.16-2.765-13.289-4.896-18.385-6.395c-0.732-0.2-1.199-0.2-1.398,0
	c-0.234,0.2-0.15,0.633,0.249,1.299c4.363,7.128,9.825,16.854,16.388,29.177c0.232,0.466,0.516,0.7,0.85,0.7
	c0.365,0,0.633-0.233,0.799-0.7c0.6-1.665,1.832-4.23,3.697-7.694c10.492,8.593,16.92,17.47,19.285,26.629
	c2.497,9.493,0.232,18.003-6.795,25.53c-5.529,5.962-12.674,9.109-21.434,9.442c-8.76,0.367-19.768-2.032-33.023-7.194
	c-9.526-3.664-18.902-4.03-28.129-1.099c-9.097,2.869-17.729,8.843-25.899,17.903c-3.788-2.966-6.839-4.596-9.143-4.871
	c-1.93-3.758-4.659-6.813-8.224-9.135c-3.797-2.498-7.895-3.664-12.291-3.497c-4.612,0.157-8.446,1.9-11.521,5.19
	c-3.489-2.285-7.374-3.422-11.661-3.392c-4.495,0.063-8.589,1.414-12.294,4.021c-0.553-0.33-1.115-0.645-1.695-0.924
	c-3.732-1.835-8.245-2.713-13.516-2.661c-0.322-1.554-0.754-3.084-1.323-4.583c-2.365-6.195-6.045-10.042-11.041-11.541
	l0.999-12.141l0.75-7.044c1.066-13.823-0.25-24.331-3.947-31.525c-0.815-1.6-1.787-3.088-2.898-4.476
	c0.245-0.292,0.485-0.59,0.7-0.919c2.298-3.63,4.93-6.445,7.894-8.443c3.031-2.065,6.162-3.098,9.393-3.098
	c6.461,0,10.691,3.78,12.69,11.341c2.032,7.661,0.75,15.771-3.847,24.331c-1.099,2.032-1.216,3.381-0.35,4.047
	c0.833,0.633,2.049,0.4,3.647-0.699c6.461-4.363,10.958-9.893,13.489-16.587c2.332-6.062,2.848-12.44,1.549-19.135
	c-1.199-6.395-3.797-12.091-7.794-17.087c-4.13-5.129-9.01-8.61-14.639-10.441c-10.591-3.431-21.3-2.682-32.125,2.248
	c-0.227,0.103-0.443,0.213-0.667,0.318c-5.455-3.973-11.844-5.68-19.168-5.114c-6.995,0.566-13.29,2.981-18.885,7.245
	c-5.862,4.496-9.509,9.775-10.941,15.837c-1.326,5.747-0.515,11.616,2.379,17.602c-2.376,3.292-4.174,7.179-5.377,11.675
	c-0.733,2.731-2.398,4.963-4.996,6.695C21,61.396,14.372,65.31,4.246,70.972c-1.181,0.667-1.981,1.55-2.415,2.639
	c-0.586,0.234-0.952,0.632-1.083,1.208c-0.133,0.833-0.133,1.682,0,2.548c0.167,0.866,0.45,1.565,0.85,2.098
	c0.233,0.292,0.591,0.515,1.06,0.679c0.972,1.726,2.509,3.218,4.635,4.467c1.112,0.655,2.358,1.141,3.736,1.461
	c1.78,2.557,3.615,4.424,5.507,5.583c1.199,0.766,2.481,1.132,3.847,1.099c1.266,0,2.848-0.383,4.746-1.149
	c2.099-0.866,5.996-1.382,11.691-1.549c1.544-0.051,3.064-0.066,4.573-0.064c1.661,0.813,2.971,2.03,3.92,3.661
	c1.066,1.832,1.582,3.914,1.549,6.245c-0.021,1.727-0.06,3.339-0.111,4.879c-2.912,0.485-5.441,2.117-7.583,4.913
	c-2.298,3.031-3.73,6.795-4.297,11.292c-0.566,4.696-0.066,9.292,1.499,13.789c0.966,2.751,2.288,5.255,3.942,7.528
	c1.854,5.27,1.978,10.604,0.355,16.004c-2.964,9.659-4.43,23.165-4.397,40.519c0,15.787,0.983,26.745,2.948,32.873
	c0.6,1.832,0.966,3.614,1.099,5.347c0.1,1.665,0.017,3.58-0.25,5.745c-0.302,2.363-1.082,6.429-2.335,12.189
	c-1.595-0.339-3.022-0.32-4.26,0.102c-1.366,0.466-2.315,1.315-2.848,2.547c-0.666,1.6-1.166,3.881-1.499,6.846
	c-0.36,2.939-0.27,4.911,0.262,5.933c-0.712,0.354-1.254,0.9-1.611,1.661c-0.566,1.465-1.049,3.297-1.449,5.496
	c-0.533,2.997-0.45,4.912,0.25,5.745c0.423,0.499,0.938,0.975,1.542,1.427c-0.759,0.77-1.74,1.558-2.991,2.37
	c-1.465,0.966-3.53,2.099-6.195,3.397c-0.899,0.434-3.164,1.082-6.794,1.948c-3.464,0.8-5.396,1.333-5.795,1.599
	c-1.246,0.811-1.813,2.83-1.719,6.029c-1.119,0.815-2.211,2.168-3.277,4.063c-1.199,2.032-1.632,3.314-1.299,3.848
	c0.233,0.366,1.965-0.017,5.196-1.149c0.938-0.339,1.748-0.649,2.459-0.938c0.299,0.203,0.672,0.415,1.138,0.639l1.19,0.465
	c-1.625,2.689-2.206,4.349-1.74,4.98c0.433,0.533,2.198,0.084,5.296-1.348c0.862-0.399,1.596-0.783,2.224-1.153l1.624,1.353
	c0.593,0.365,1.154,0.634,1.7,0.857c-1.249,2.208-1.639,3.627-1.15,4.238c0.633,0.833,2.432,0.566,5.396-0.799
	c0.234-0.106,0.442-0.212,0.658-0.318c2.24,0.99,4.519,1.414,6.836,1.268c0.933-0.066,2.248-0.65,3.947-1.749
	c1.432-0.966,2.648-1.948,3.647-2.947c1.266-1.267,3.414-2.882,6.445-4.847c2.065-1.365,4.013-2.564,5.845-3.598
	c3.73-2.031,5.179-4.646,4.347-7.844c-0.54-2.258-0.897-4.033-1.076-5.333c1.015-0.208,1.929-0.491,2.725-0.861
	c0.999-0.466,1.865-2.049,2.598-4.747c0.633-2.298,0.933-4.279,0.899-5.945c-0.046-0.908-0.275-1.618-0.664-2.151
	c1.066-0.986,1.922-2.757,2.562-5.343c0.6-2.331,0.916-4.629,0.949-6.895c0.089-2.629-0.85-4.349-2.804-5.17
	c0.405-1.2,0.903-2.616,1.505-4.271l2.548-6.746c1.299-3.03,1.682-5.945,1.149-8.742c-0.333-1.865-0.3-4.463,0.1-7.794
	c0.4-3.563,1.033-6.412,1.898-8.544c2.432-5.928,3.93-11.074,4.497-15.438c0.558-4.288,1.674-7.511,3.346-9.675
	c4.04,1.785,8.327,3.152,12.87,4.092c1.365,4.451,3.069,9.059,5.118,13.827c5.429,12.59,11.141,21.6,17.136,27.028
	c3.064,2.765,5.563,6.495,7.494,11.191c1.572,3.889,2.437,7.65,2.615,11.288c-1.093,0.118-2.065,0.452-2.915,1.002
	c-1.132,0.732-1.715,1.648-1.749,2.748c-0.199,6.21,0.372,10.244,1.707,12.117c-0.807,0.49-1.23,1.262-1.257,2.321l0.2,4.796
	c0.233,2.898,0.683,4.63,1.349,5.196c0.76,0.646,1.768,1.189,3.025,1.634c-0.942,1.701-2.312,3.586-4.124,5.66
	c-2.332,2.632-4.363,4.43-6.095,5.396c-2.198,1.232-3.581,2.814-4.147,4.746c-0.497,1.637-0.352,3.465,0.434,5.486
	c-0.219,0.473-0.432,0.991-0.633,1.607c-0.566,1.666-0.916,3.314-1.049,4.947c-0.033,0.666,0.25,0.916,0.85,0.749
	c1.432-0.333,2.864-0.883,4.296-1.649c1.271-0.696,2.355-1.45,3.269-2.257l1.677,0.559l1.664,0.232
	c-0.319,1.786-0.262,3.624,0.185,5.513c0.133,0.6,0.483,0.75,1.049,0.45l3.747-2.498c0.973-0.814,1.704-1.556,2.203-2.228
	l2.144,0.429l1.995-0.035c-0.155,1.799-0.001,3.753,0.503,5.881c0.067,0.3,0.184,0.483,0.35,0.55l0.749-0.1
	c2.057-0.917,3.688-2.13,4.896-3.637c0.973,0.554,2.099,0.685,3.397,0.339c1.466-0.399,2.398-1.166,2.798-2.298
	c0.3-0.833,1.649-3.598,4.047-8.294l4.147-8.294c1.066-2.265,1.249-4.33,0.549-6.195c-0.381-0.969-0.696-1.889-0.98-2.785
	c2.842-1.47,6.594-2.939,11.272-4.408c4.862-1.533,8.66-2.449,11.392-2.748c3.497-0.4,5.795-1.399,6.895-2.998
	c0.932-1.299,1.166-3.314,0.699-6.045c-0.7-4.292-1.029-7.649-0.988-10.072c1.152-0.1,1.985-0.321,2.486-0.67
	c0.767-0.533,1.583-2.015,2.449-4.446c0.732-2.198,1.165-3.979,1.299-5.346c0.1-0.899-0.018-1.698-0.35-2.397
	c-0.119-0.282-0.265-0.522-0.431-0.731c0.076-0.04,0.157-0.076,0.23-0.118c0.566-0.334,1.216-1.898,1.948-4.697
	c0.633-2.531,0.982-4.529,1.049-5.994c0.066-1.333-0.299-2.449-1.099-3.348c-0.654-0.733-1.468-1.188-2.43-1.387
	c0.196-1.186,0.522-2.752,0.981-4.709l1.348-5.445c0.633-2.631,1.066-5.279,1.3-7.943c0.233-2.732,0.2-4.963-0.101-6.695
	c-0.65-3.564-0.905-6.759-0.812-9.627c9.048,9.741,18.327,16.886,27.841,21.418c1.832,0.865,3.064,1.814,3.697,2.848
	c0.399,0.666,0.832,2.031,1.299,4.097c0.498,2.345,0.906,6.137,1.224,11.368c-1.049,0.173-1.942,0.511-2.673,1.021
	c-0.898,0.666-1.398,1.449-1.498,2.349c-0.268,2.099-0.134,4.746,0.399,7.944c0.523,2.949,1.298,4.998,2.313,6.182
	c-0.325,0.274-0.616,0.623-0.865,1.063c-0.433,0.732-0.633,1.531-0.6,2.398c0.334,7.527,1.699,11.641,4.098,12.34
	c0.448,0.128,0.936,0.237,1.452,0.334c-0.16,0.846-0.438,1.684-0.853,2.514l-1.898,3.098c-1.232,1.965-3.048,4.113-5.446,6.445
	c-1.399,1.332-2.048,2.863-1.948,4.596c0.078,1.335,0.585,2.398,1.507,3.198c-0.11,0.373-0.214,0.766-0.308,1.198
	c-0.666,2.898-0.6,4.58,0.199,5.047c0.4,0.232,1.732-0.417,3.997-1.949c1.217-0.836,2.115-1.527,2.719-2.086
	c0.596,0.256,1.238,0.426,1.934,0.494c0.017,0.031,0.027,0.063,0.044,0.094c0.309,0.528,0.666,0.905,1.062,1.157
	c-0.671,2.228-0.743,3.493-0.212,3.788c0.633,0.4,2.098-0.133,4.396-1.599c0.473-0.306,0.891-0.599,1.274-0.885
	c0.641,0.221,1.318,0.385,2.073,0.435l1.975-0.186l-0.127,0.387c-0.532,1.865-0.615,2.896-0.249,3.097
	c0.666,0.333,2.165-0.149,4.496-1.448c0.25-0.139,0.479-0.274,0.702-0.409c0.982,0.22,1.997,0.182,3.045-0.141
	c1.499-0.466,2.598-1.366,3.298-2.698l7.594-12.49c0.566-0.865,0.899-1.915,0.999-3.147c0.133-1.266,0.018-2.431-0.35-3.497
	c-1.389-3.693-2.366-6.436-2.944-8.253c0.368-0.253,0.673-0.516,0.896-0.79c0.666-0.832,1.1-2.881,1.299-6.145
	c0.168-2.532,0.168-4.646,0-6.346c-0.1-0.933-0.416-1.715-0.949-2.348c-0.335-0.398-0.729-0.693-1.169-0.906
	c0.389-1.298,0.547-3.489,0.47-6.588c-0.1-4.031-0.482-6.662-1.148-7.895c-0.467-0.865-1.249-1.498-2.349-1.898l-2.849-0.266
	l-0.449-5.279c-0.398-3.998-0.565-6.879-0.499-8.644c0.101-2.498-0.6-4.597-2.099-6.296c-7.693-8.76-13.822-18.734-18.385-29.926
	c-4.563-11.225-6.846-21.9-6.846-32.025c0-4.463-1.382-8.593-4.146-12.391c-3.187-4.374-7.282-9.102-12.282-14.181
	c5.395-8.441,12.35-13.979,20.876-16.595c7.361-2.231,14.089-2.032,20.184,0.6c13.822,5.995,25.914,8.626,36.271,7.894
	c10.359-0.7,19.586-4.796,27.679-12.291C313.121,106.644,316.152,95.919,313.254,82.763z M146.503,192.073l7.875,17.79l6.045,14.089
	c0.933,2.798,1.416,5.046,1.449,6.745c0.063,2.2-0.446,4.732-1.511,7.587l-3.286,0.157c-1.099,0.365-1.766,0.965-1.999,1.798
	c-0.433,1.532-0.783,3.581-1.049,6.146c-0.233,2.764-0.183,4.629,0.15,5.596c0.036,0.097,0.086,0.191,0.134,0.287
	c-0.855,0.524-1.383,1.311-1.583,2.36c-0.267,1.366-0.4,3.198-0.4,5.495c0,2.599,0.25,4.23,0.75,4.896
	c0.414,0.552,1.114,1.076,2.087,1.575c-1.767,1.225-3.194,2.271-4.286,3.143c-0.05-1.147-0.133-2.054-0.25-2.719
	c-0.167-0.966-0.733-1.732-1.699-2.298c-0.767-0.46-1.644-0.71-2.627-0.759c0.361-6.037-0.078-10.2-1.32-12.481
	c-3.764-6.961-6.178-13.873-7.244-20.734c-1.465-9.158-2.481-19.168-3.047-30.025c-0.052-1.033-0.098-2.051-0.141-3.062
	C138.975,196.013,142.958,194.15,146.503,192.073z"/>
</svg>
