<?xml version="1.0" encoding="utf-8"?>
<!-- Generator: Adobe Illustrator 16.0.0, SVG Export Plug-In . SVG Version: 6.00 Build 0)  -->
<!DOCTYPE svg PUBLIC "-//W3C//DTD SVG 1.1//EN" "http://www.w3.org/Graphics/SVG/1.1/DTD/svg11.dtd">
<svg version="1.1" id="图层_1" xmlns="http://www.w3.org/2000/svg" xmlns:xlink="http://www.w3.org/1999/xlink" x="0px" y="0px"
	 width="209px" height="255px" viewBox="0 0 209 255" enable-background="new 0 0 209 255" xml:space="preserve">
<path d="M201,117.852c-0.499-4.066-1.766-7.215-3.799-9.448c-0.01-0.011-0.021-0.021-0.031-0.032
	c1.028-1.424,1.574-3.509,1.631-6.268c0.033-1.733-0.299-3.499-1-5.298c-0.674-1.701-1.537-3.085-2.583-4.168
	c0.392-0.478,0.755-1.061,1.083-1.78c0.533-1.2,0.833-2.416,0.899-3.649c0.1-1.467-0.116-2.949-0.649-4.449
	c-0.32-0.879-0.714-1.664-1.166-2.376c1.128-1.508,1.752-3.065,1.867-4.672c0.133-1.399-0.033-2.849-0.5-4.349
	c-0.317-1.072-0.735-1.999-1.248-2.787c0.725-1.012,1.217-2.128,1.446-3.362c0.467-2.666,0.25-4.998-0.649-6.998
	c-0.215-0.477-0.46-0.901-0.729-1.286c0.659-0.659,1.22-1.626,1.679-2.914c0.666-1.833,0.767-3.715,0.299-5.648
	c-0.465-1.933-1.349-3.166-2.647-3.699c-0.9-0.4-1.949-0.3-3.15,0.297c-0.833,0.399-1.648,1.033-2.45,1.899
	c-0.831,0.934-1.432,1.917-1.799,2.95c-0.467,1.266-0.633,2.549-0.5,3.849c0.101,0.964,0.35,1.81,0.74,2.542
	c-0.802,0.615-1.519,1.426-2.14,2.459c-0.732,1.199-1.217,2.466-1.449,3.799c-0.341,2.017-0.147,3.855,0.562,5.522
	c-1.547,1.746-2.423,3.818-2.612,6.226c-0.117,1.614,0.231,3.199,0.991,4.761c-0.029,0.03-0.061,0.056-0.09,0.087
	c-1.866,1.933-2.866,4.365-2.999,7.298c-0.066,1.4,0.199,2.833,0.801,4.299c0.457,1.146,1.072,2.173,1.826,3.097
	c-0.042,0.053-0.086,0.098-0.127,0.152c-1.966,2.599-2.882,5.499-2.749,8.698c0.122,1.943,0.901,4.097,2.323,6.456
	c-0.873,1.184-1.566,2.646-2.074,4.393c-2.033,7.065-4.1,13.48-6.199,19.246c-3.644,9.824-7.078,16.762-10.3,20.831
	c-2.649-6.612-8.239-11.628-16.792-15.034c-7.999-3.166-16.847-4.582-26.544-4.248c4.865-5.066,8.631-10.065,11.297-14.997
	c5.199-9.598,8.05-20.812,8.55-33.642c0.467-12.331-1.801-24.045-6.8-35.142c-5.431-12.03-12.93-20.428-22.493-25.194
	c-1.468-3.798-4.05-7.481-7.75-11.047c-3.833-3.733-8.332-6.799-13.497-9.198C77.047-0.737,64.267-1.437,51.14,2.931
	c-10.065,3.366-17.846,8.998-23.345,16.896c-4.165,5.965-6.315,11.731-6.448,17.296c-3.299,3.699-5.698,7.698-7.198,11.997
	c-1.566,4.566-1.8,8.681-0.7,12.347c2.699,8.931,12.23,12.73,28.593,11.397c-2.033,1.932-3.532,4.314-4.499,7.147
	c-0.867,2.432-1.1,4.282-0.7,5.548c1.633,5.465,5.765,9.614,12.397,12.447c6.531,2.832,13.43,3.532,20.695,2.099
	c0,5.266-1.466,9.698-4.399,13.297c-2.133,2.6-6.949,6.682-14.447,12.247c-4.499,3.366-8.598,6.915-12.297,10.647
	c-4.433,4.532-7.448,8.582-9.048,12.146c-1.915,4.24-3.146,8.43-3.723,12.57c-3.552,0.746-7.145,2.416-10.777,5.028
	c-4.333,3.131-7.832,7.015-10.498,11.647c-6.732,11.729-6.515,24.643,0.65,38.74c7.998,15.797,22.661,25.993,43.989,30.592
	c12.397,2.666,24.994,3.267,37.791,1.801l27.043-1.051l12.197,0.201l11.098-0.451c14.031-1.433,25.579-5.197,34.644-11.297
	c10.165-6.799,16.462-16.063,18.895-27.793c1.634-7.899,2.033-15.015,1.2-21.346c-0.254-1.981-0.641-3.831-1.13-5.577
	c4.406-7.293,7.526-15.705,9.329-25.266C202.584,144.746,202.768,131.949,201,117.852z"/>
</svg>
