<?xml version="1.0" encoding="utf-8"?>
<!-- Generator: Adobe Illustrator 16.0.0, SVG Export Plug-In . SVG Version: 6.00 Build 0)  -->
<!DOCTYPE svg PUBLIC "-//W3C//DTD SVG 1.1//EN" "http://www.w3.org/Graphics/SVG/1.1/DTD/svg11.dtd">
<svg version="1.1" id="图层_1" xmlns="http://www.w3.org/2000/svg" xmlns:xlink="http://www.w3.org/1999/xlink" x="0px" y="0px"
	 width="262px" height="378px" viewBox="0 0 262 378" enable-background="new 0 0 262 378" xml:space="preserve">
<path d="M260.082,105.944c-0.801-0.933-1.982-1.416-3.549-1.449c-1.499-0.033-2.998,0.366-4.498,1.199
	c-4.164,2.266-9.678,4.748-16.541,7.446c-3.365,1.299-6.413,3.015-9.145,5.147l-5.747,5.147c-2.599,2.399-4.564,3.548-5.897,3.448
	c-0.999-0.1-1.499-0.733-1.499-1.899c0.101-2.799,0.833-5.964,2.199-9.495c1.732-4.464,4.265-8.829,7.596-13.093
	c1.433-1.766,3.798-3.948,7.097-6.546c2.799-2.199,4.631-4.015,5.496-5.447c0.934-1.532,1.066-3.032,0.4-4.498
	c-0.833-1.899-2.849-2.299-6.047-1.199c-3.231,1.133-6.797,3.465-10.694,6.996c-6.53,5.864-11.027,11.794-13.493,17.791
	c-1.699,4.064-2.664,9.045-2.898,14.942c-0.166,4.031-0.716,7.263-1.648,9.695c-1,2.465-2.766,4.998-5.297,7.596
	c-4.498,4.664-7.913,9.378-10.245,14.142c-2.332,4.764-3.915,10.312-4.747,16.642c-1.6,12.227-3.365,20.755-5.298,25.587
	c-0.416,1.015-0.888,1.915-1.403,2.726c-0.766-1.149-1.556-2.281-2.395-3.376c-3.332-4.264-7.896-8.829-13.693-13.693
	l-13.643-11.594c-4.764-4.564-8.295-9.312-10.594-14.242c-0.6-1.333-0.717-2.815-0.35-4.448c0.333-1.433,1.049-3.099,2.148-4.998
	c1.099-1.862,3.359-5.283,6.753-10.223c2.228,2.092,4.688,3.987,7.39,5.676c4.098,2.532,8.112,4.231,12.043,5.097
	c5.131,1.133,10.063,0.633,14.793-1.499c4.397-1.966,6.963-4.464,7.695-7.496c0.6-2.432,0.101-5.131-1.498-8.096
	c-1.934-3.565-5.015-6.347-9.246-8.346c-5.295-2.458-11.549-3.616-18.751-3.492c1.803-3.801,2.735-7.805,2.803-12.012
	c1.521-1.295,3.287-2.325,5.304-3.086c3.232-1.232,8.646-2.365,16.242-3.398c6.796-0.899,11.644-1.833,14.542-2.798
	c5.131-1.666,9.528-4.398,13.192-8.196c0.533-0.566,0.684-1.116,0.45-1.649c-0.267-0.6-0.933-1.099-1.999-1.499l-10.344-3.548
	l-6.497-2.099l-1.699-11.944c-0.233-1.299-0.683-1.982-1.349-2.049c-0.667-0.033-1.732,0.517-3.199,1.649l-6.196,5.547
	c-3.198,2.499-6.446,3.781-9.745,3.848l-8.596,0.3l-4.848,0.649c-1.531-2.832-4.447-5.847-8.744-9.045
	c-3.965-3.032-8.18-5.514-12.645-7.446c-1.299-0.566-2.115-1.1-2.448-1.599c-0.3-0.466-0.516-1.399-0.649-2.798
	c-0.566-5.597-0.899-11.744-1-18.44v-5.064c2.207,1.051,5,1.381,8.396,0.967c2.6-0.311,5.326-1.029,8.165-2.107
	c1.351,0.36,2.786,0.775,4.328,1.257l5.497,1.799l5.746,1.499c4.266,0.733,8.529,0.483,12.794-0.75l10.944-4.198
	c3.098-1.299,5.58-2.215,7.445-2.749c2.533-0.733,4.798-1.049,6.797-0.949c1.699,0.066,3.198-0.15,4.498-0.65
	c1.266-0.5,2.215-1.249,2.848-2.249c0.434-0.733,0.717-1.583,0.85-2.549c0.101-1.033-0.033-1.882-0.399-2.549
	c-0.533-0.966-1.499-1.766-2.898-2.398c-1.399-0.633-2.882-0.95-4.448-0.95c-3.064,0-6.346,0.533-9.844,1.599l-8.945,3.298
	l-8.146,2.798c-2.898,0.767-5.68,1.083-8.346,0.95c-1.296-0.057-2.636-0.193-4.014-0.397c2.047-0.718,4.053-1.21,6.014-1.452
	c2.365-0.267,4.047-0.949,5.047-2.049c0.633-0.7,0.949-1.499,0.949-2.399c0-1.232-0.616-2.465-1.849-3.698
	c-1.267-1.233-2.599-1.899-3.998-1.999c-3.099-0.233-6.763,0.516-10.994,2.249c-3.675,1.464-6.882,3.324-9.673,5.538l-4.67-1.39
	c-3.965-0.861-7.701-0.902-11.214-0.146l0.92-7.75c0.566-4.131,0.916-6.43,1.049-6.896c0.333-1.233,0.316-2.149-0.05-2.749
	c-2.332-2.732-4.931-4.181-7.796-4.348c-2.065-0.1-3.831,0.55-5.297,1.949c-0.533,0.566-1.033,2.182-1.5,4.848
	c-0.433,2.499-0.999,6.863-1.699,13.093l-12.494,0.35c-3.165,0.566-5.897,1.416-8.196,2.549c-0.433-1.366-1.049-3.998-1.849-7.896
	l-1.599-7.396c-0.333-1.133-1.216-1.999-2.649-2.599l-5.247-0.15c-1.399,0.399-2.665,1.149-3.798,2.249
	c-1.166,1.199-1.749,2.382-1.749,3.548c2.132,12.993,4.547,29.434,7.246,49.324c0.167,1.299,0.15,3.099-0.05,5.397
	c-0.2,2.366-0.466,3.665-0.799,3.898c-2.499,1.799-4.947,3.881-7.346,6.247c-2.865,2.765-4.914,5.23-6.147,7.396
	c-0.566,1.066-1.299,3.098-2.199,6.097c-0.899,3.032-1.732,6.23-2.499,9.595c-1,4.531-2.499,8.029-4.498,10.495
	c-1.833,2.266-4.797,4.481-8.896,6.646c-6.296,3.298-15.892,8.096-28.785,14.393c-10.528,5.297-17.507,9.245-20.939,11.844
	c-1,0.766-1.366,1.965-1.099,3.598c0.266,1.6,1.049,3.115,2.349,4.548c3.332,3.631,7.446,4.314,12.343,2.049
	c4.464-2.032,11.844-4.564,22.138-7.596c2.066-0.6,4.031-0.783,5.897-0.55c2.166,0.267,5.114,1.149,8.845,2.648
	c3.265,1.333,5.964,2.215,8.096,2.648l6.747,0.35c3.642-0.463,9.963-3.132,18.952-7.999c0.807,0.512,1.947,0.979,3.437,1.402
	l6.646,1.649c5.997,1.699,9.512,4.547,10.544,8.545c0.233,1.232-0.083,2.599-0.949,4.098l-3.998,6.747
	c-10.428,17.557-17.058,32.299-19.89,44.227c-2.532,10.561-2.632,21.838-0.3,33.832c2.232,11.727,6.047,20.905,11.444,27.535
	c5.264,6.43,14.576,13.477,27.936,21.139c6.197,3.598,10.544,6.347,13.043,8.246c-8.496,0.399-16.058,4.264-22.688,11.594
	c-6.463,7.162-9.695,14.975-9.695,23.438c0,11.527,4.448,21.889,13.343,31.083c3.832,3.932,8.029,7.046,12.593,9.345
	c4.564,2.266,8.863,3.398,12.894,3.398c11.561,0,20.938-4.197,28.135-12.593c9.262-10.794,13.525-27.452,12.793-49.974
	c-0.3-9.695,0.117-19.174,1.249-28.436l3.249-21.188c1.133-7.696,1.582-14.608,1.349-20.739c-0.057-1.379-0.16-2.793-0.286-4.225
	c4.072,1.188,8.714,1.284,13.93,0.277c4.73-0.9,11.177-3.132,19.339-6.697l7.696-3.298c3.198-1.166,6.979-1.815,11.344-1.948
	l9.745,0.549l3.099,0.45c2.598,0.267,4.447-0.184,5.547-1.35c0.6-0.633,0.966-1.449,1.1-2.448c0.133-0.9,0.066-1.75-0.2-2.549
	c-0.7-2.332-2.898-4.081-6.597-5.248c-3.531-1.099-7.979-1.516-13.343-1.248c-4.299,0.229-9.507,1.482-15.616,3.748
	c2.191-3.413,3.818-7.176,4.871-11.295c1.2-4.697,1.434-9.045,0.7-13.043c-1.599-8.762-2.532-14.792-2.798-18.09
	c-0.434-5.264-0.067-9.595,1.099-12.993c3.198-9.195,3.682-15.992,1.45-20.389c-0.834-1.666-2.366-3.132-4.598-4.397
	c-1.549-0.864-3.608-1.701-6.17-2.512c0.947-0.707,1.928-1.43,2.971-2.186c6.563-4.831,11.861-8.396,15.893-10.694
	c0.999-0.566,4.914-2.282,11.743-5.147c6.663-2.965,10.678-5.314,12.044-7.046c0.933-1.2,1.398-2.499,1.398-3.898
	C261.23,107.943,260.848,106.843,260.082,105.944z M108.312,60.668l-6.197,0.45c-3.898-14.692-6.18-23.738-6.847-27.136
	c2.898-1.999,6.097-3.298,9.595-3.898c2.898-0.5,5.563-0.466,7.996,0.1C111.127,46.275,109.611,56.437,108.312,60.668z"/>
</svg>
