<?xml version="1.0" encoding="utf-8"?>
<!-- Generator: Adobe Illustrator 16.0.0, SVG Export Plug-In . SVG Version: 6.00 Build 0)  -->
<!DOCTYPE svg PUBLIC "-//W3C//DTD SVG 1.1//EN" "http://www.w3.org/Graphics/SVG/1.1/DTD/svg11.dtd">
<svg version="1.1" id="图层_1" xmlns="http://www.w3.org/2000/svg" xmlns:xlink="http://www.w3.org/1999/xlink" x="0px" y="0px"
	 width="209px" height="179px" viewBox="0 0 209 179" enable-background="new 0 0 209 179" xml:space="preserve">
<path d="M200.135,44.139c-5.276-6.178-13.441-10.954-24.496-14.327c-0.896-0.278-1.648-0.486-2.29-0.641
	c-6.132-3.051-12.844-5.68-20.153-7.876c-7.467-2.252-13.82-3.55-19.085-3.911c-4.915-5.749-10.506-10.147-16.784-13.172
	c-6.312-3.039-12.757-4.425-19.336-4.158C81.855,0.676,68.261,8.308,57.193,22.913c-6.998,1.937-14.253,4.975-21.773,9.153
	c-11.447,6.349-19.786,13.706-25.04,22.063c-0.674,0.515-1.33,1.056-1.962,1.632c-4.341,3.941-7.013,8.583-8.015,13.926
	c-1.002,5.244-0.184,9.719,2.455,13.426c2.761,3.853,6.958,5.912,12.56,6.215c0.425,0.876,0.939,1.698,1.567,2.452
	c2.842,3.469,6.795,5.054,11.859,4.758c-0.913,1.869-1.756,4.128-2.532,6.759l-3.566,0.456c-1.57,0.401-2.505,0.919-2.805,1.553
	c-0.535,1.103-0.417,3.356,0.351,6.763c0.595,2.739,1.471,5.534,2.597,8.378c-1.462,10.725-1.861,19.489-1.194,26.289
	c1.168,11.956,3.123,20.005,5.861,24.146c1.64,2.476,4.327,4.146,8.044,5.023c0.618,0.315,1.525,0.694,2.727,1.139
	c2.805,1.068,5.31,1.52,7.514,1.354c0.802-0.067,1.87-0.451,3.206-1.152c1.369-0.702,2.405-1.403,3.106-2.104
	c0.468-0.468,0.668-0.886,0.601-1.253c-0.035-0.191-0.152-0.394-0.342-0.604c0.407-1.582,1.334-3.466,2.797-5.658
	c1.063-1.563,2.881-3.926,5.436-7.069c0.653,0.022,1.319,0.032,1.988,0.04c1.85,4.65,3.799,8.586,5.852,11.789
	c1.469,2.338,3.156,3.873,5.06,4.608c1.627,0.633,4.229,0.95,7.785,0.958c0.338,0.09,0.728,0.172,1.182,0.244l6.663,0.301
	l5.26-0.501c1.537-0.401,3.022-1.002,4.459-1.804c1.502-0.868,2.221-1.569,2.154-2.104c-0.065-0.557-0.436-1.134-1.103-1.73
	c0.285-5.225,0.851-9.399,1.704-12.497c0.735-2.672,1.336-5.478,1.804-8.416c0.209-1.435,0.359-2.697,0.452-3.797
	c1.332-1.748,2.811-3.088,4.457-3.968c1.025-0.556,2.273-1.02,3.732-1.396c2.798,2.04,5.237,4.237,7.289,6.604
	c1.937,2.238,3.907,5.027,5.911,8.367c1.87,3.105,3.69,5.01,5.46,5.711c1.871,0.734,5.177,0.784,9.92,0.15
	c0.019-0.004,0.026-0.02,0.04-0.028l1.713,0.028l8.416-1.954c3.841-1.103,6.63-2.121,8.366-3.056
	c0.969-0.502,1.436-0.986,1.402-1.453c-0.033-0.635-0.852-1.353-2.455-2.154c-0.365-0.188-0.781-0.347-1.22-0.49
	c0.397-3.483-0.246-9.393-1.937-17.744c-1.635-8.11-3.456-14.648-5.46-19.651c0.284,0.002,0.568,0.021,0.853,0.013
	c4.174-0.1,8.416-1.553,12.724-4.357c5.043-3.273,7.865-7.248,8.466-11.923c0.234-2.038-0.184-3.558-1.252-4.56
	s-3.206-1.902-6.412-2.705c-1.709-0.427-3.714-2.532-6.008-6.277c0.031-0.347,0.047-0.774,0.047-1.287
	c0-2.438-0.585-5.06-1.754-7.865c-1.148-2.779-2.711-5.275-4.673-7.498c-0.017-2.504-0.101-4.959-0.267-7.353
	c2.1,0.949,4.034,1.725,5.784,2.308c0.67,0.487,1.9,1.143,3.714,1.973c3.607,1.636,8.099,2.655,13.476,3.056
	c6.605,0.516,12.692-0.225,18.271-2.197c1.577-0.27,3.069-0.686,4.472-1.26c2.939-1.203,4.994-2.839,6.162-4.91
	C206.313,56.162,205.312,50.284,200.135,44.139z"/>
</svg>
