<?xml version="1.0" encoding="utf-8"?>
<!-- Generator: Adobe Illustrator 16.0.0, SVG Export Plug-In . SVG Version: 6.00 Build 0)  -->
<!DOCTYPE svg PUBLIC "-//W3C//DTD SVG 1.1//EN" "http://www.w3.org/Graphics/SVG/1.1/DTD/svg11.dtd">
<svg version="1.1" id="图层_1" xmlns="http://www.w3.org/2000/svg" xmlns:xlink="http://www.w3.org/1999/xlink" x="0px" y="0px"
	 width="491px" height="285px" viewBox="0 0 491 285" enable-background="new 0 0 491 285" xml:space="preserve">
<path d="M487.303,78.121c-2.432-5.163-5.547-9.26-9.344-12.292c-7.062-5.596-20.885-10.925-41.471-15.989
	c-16.075-3.94-30.444-6.289-43.126-7.061c-1.694-1.036-3.737-2.063-6.139-3.082c-2.993-1.282-5.456-2.08-7.44-2.439
	c-0.53-0.555-1.107-1.122-1.753-1.708c-6.862-6.362-15.839-11.742-26.931-16.139c-12.321-4.884-23.792-6.917-34.414-6.108
	c-0.938-0.444-1.9-0.89-2.909-1.337c-9.46-4.197-18.82-7.228-28.081-9.093c-9.026-1.832-18.569-2.731-28.629-2.698
	c-8.76,0-16.538,0.65-23.333,1.949c-9.756,1.896-17.439,6.155-23.051,12.775c-5.546-0.286-11.119-0.243-16.721,0.166
	c-11.925,0.833-23.533,3.214-34.825,7.145c-4.831,1.693-9.14,3.713-12.928,6.058c-20.07-3.105-39.199-4.799-57.372-5.059
	c-17.488-0.233-31.245,0.833-41.271,3.198c-8.561,2.032-16.055,6.329-22.484,12.891c-2.564,2.631-4.413,5.113-5.546,7.444
	c-1.099,2.332-1.249,3.947-0.45,4.847c1.732,1.965,8.044,0.1,18.937-5.596c1.526-0.8,3.144-1.502,4.832-2.126
	c9.574-0.774,19.106,0.103,28.594,2.676c9.078,2.432,24.012,8.092,44.767,16.961c-1.416,1.5-2.772,3.015-4.068,4.543
	c-2.605,0.325-4.719,0.799-6.323,1.429c-3.165,1.199-7.095,5.379-11.792,12.541c-4.097,6.162-7.045,11.675-8.844,16.538
	c-1.632,4.464-2.315,7.961-2.048,10.493c0.233,2.298,1.349,4.397,3.347,6.295l0.497,0.249c-2.041,6.014-3.642,11.3-4.793,15.84
	c-0.068,0.265-0.122,0.523-0.188,0.787c-9.6,0.031-21.66-3.376-36.186-10.23c-16.788-7.928-28.346-16.955-34.675-27.081
	c-2.398-3.864-4.13-6.396-5.196-7.595c-1.432-1.666-2.715-2.298-3.847-1.899c-0.733,0.3-1.299,1.449-1.699,3.448
	c-0.6,2.964-0.55,7.245,0.15,12.841c2.065,16.322,9.144,31.261,21.235,44.817c13.356,14.921,30.436,24.985,51.217,30.22
	c0.728,7.018,1.976,11.553,3.744,13.6c1.223,1.459,3.949,2.616,8.163,3.477l3.429,8.315c2.598,5.996,4.729,10.643,6.395,13.939
	c-0.633,0.533-1.249,1.217-1.849,2.049c-0.833,1.266-1.399,2.631-1.699,4.098c-0.466,2.265,0.966,5.895,4.297,10.892
	c2.465,3.765,5.346,7.429,8.644,10.992c2.165,2.298,6.595,3.798,13.291,4.497c0.742,0.081,1.474,0.129,2.209,0.188
	c6.242,5.066,12.731,8.764,19.476,11.054c6.495,2.198,12.808,2.998,18.937,2.398c6.562-0.667,12.208-2.449,16.938-5.347
	c4.693-2.908,7.528-6.311,8.516-10.203c3.334,0.409,6.311,0.218,8.921-0.589c2.498-0.8,4.946-2.249,7.345-4.348
	c0.51-0.419,0.877-0.864,1.117-1.331c0.355,0.386,0.781,0.779,1.282,1.182c2.112,1.678,5.017,3.017,8.693,4.028
	c0,5.278-0.15,8.698-0.449,10.262l-0.38,0.659c-1.729,0.283-3.355,0.611-4.866,0.989c-4.363,1.1-6.612,2.382-6.745,3.848
	c-0.2,1.865,1.766,4.18,5.896,6.945c2.456,1.663,4.615,2.759,6.494,3.315c2.716,3.382,6.902,6.146,12.593,8.276
	c6.295,2.331,13.807,3.664,22.534,3.996c14.256,0.566,25.699-0.749,34.326-3.947c8.594-3.197,14.057-8.16,16.389-14.889l0.299-0.85
	c1.566,0.1,2.998-0.15,4.297-0.75c1.699-0.766,2.915-2.031,3.648-3.797c1.765-3.997,3.514-8.693,5.246-14.09
	c2.465-7.762,3.414-12.891,2.848-15.389c-0.301-1.345-0.932-2.777-1.872-4.292c6.498-0.457,12.919-1.521,19.26-3.203
	c7.728-2.065,14.34-4.83,19.836-8.294c0.719-0.445,1.578-1.035,2.549-1.739c0.299,1.495,0.848,3.821,1.648,6.985
	c0.754,3.048,2.312,5.578,4.651,7.604l-4.402,4.038c-3.63,3.598-5.396,5.996-5.296,7.194c0.2,2.166,2.248,3.515,6.146,4.048
	l14.223-0.416c0.627,0.528,1.274,1.026,1.938,1.498c0.052,0.942,0.358,1.93,0.927,2.965c4.797,8.794,11.991,11.825,21.585,9.094
	c3.53-0.999,6.745-2.632,9.643-4.896c2.087-1.648,3.417-3.146,4.01-4.495c3.402-1.15,6.562-2.645,9.472-4.486
	c5.25,0.919,10.499,0.856,15.748-0.212c5.229-1.065,8.044-2.499,8.444-4.297c0.399-1.866-0.15-4.297-1.649-7.295
	c-1.569-3.232-4.005-6.552-7.283-9.955c0.003-0.114,0.01-0.219,0.011-0.334c0.529-0.512,1.03-1.028,1.477-1.553
	c2.665-3.098,4.547-7.095,5.646-11.991c1.065-4.664,1.599-10.942,1.599-18.837c0-5.862-0.816-10.259-2.448-13.19
	c-1.466-2.631-3.831-4.447-7.095-5.446c1.159-12.665,1.01-24.782-0.433-36.36c5.85-2.27,11.623-7.037,17.32-14.304
	c4.963-6.295,8.128-11.642,9.493-16.039c1.299-4.164,1.965-7.295,1.999-9.394c0.033-2.365-0.717-3.73-2.249-4.097
	c-0.699-0.167-1.731,0.033-3.098,0.6l-3.947,1.749c-1.38,0.59-2.938,0.953-4.658,1.111c-0.232-0.394-0.522-0.781-0.888-1.161
	c-0.933-0.933-2.132-1.649-3.598-2.148c-2.065-0.7-4.496-1.033-7.295-1c-2.494,0-4.287,0.316-5.397,0.939
	c-1.699-0.715-3.375-1.531-5.025-2.454c-0.432-2.101-0.994-4.18-1.718-6.23c-2.106-5.926-5.296-11.18-9.548-15.775
	c9.857,0.637,21.01,2.789,33.48,6.481c12.024,3.564,21.602,7.412,28.729,11.542c4.03,2.332,7.328,3.847,9.893,4.547
	c2.332,0.666,3.814,0.6,4.447-0.2C490.084,85.516,489.434,82.718,487.303,78.121z"/>
</svg>
