<?xml version="1.0" encoding="utf-8"?>
<!-- Generator: Adobe Illustrator 16.0.0, SVG Export Plug-In . SVG Version: 6.00 Build 0)  -->
<!DOCTYPE svg PUBLIC "-//W3C//DTD SVG 1.1//EN" "http://www.w3.org/Graphics/SVG/1.1/DTD/svg11.dtd">
<svg version="1.1" id="图层_1" xmlns="http://www.w3.org/2000/svg" xmlns:xlink="http://www.w3.org/1999/xlink" x="0px" y="0px"
	 width="207px" height="212px" viewBox="0 0 207 212" enable-background="new 0 0 207 212" xml:space="preserve">
<path d="M205.699,74.079c-0.834-1.634-3.402-2.468-7.705-2.502c-5.371-0.033-10.275,0.417-14.711,1.351
	c-6.839,1.501-13.311,4.203-19.414,8.106c-4.67,3.002-8.757,6.388-12.26,10.157c-2.768,2.969-6.287,7.456-10.557,13.46l-4.203,6.054
	c-0.934,1.049-2.23,1.923-3.851,2.641c-2.502-3.034-5.31-5.857-8.417-8.473c0.549-4.591,1.333-8.426,2.359-11.48
	c1.769-5.404,4.42-9.057,7.957-10.958c1.2-0.634,4.086-1.668,8.656-3.102c5.036-1.535,9.022-2.952,11.958-4.253
	c10.374-4.67,16.962-11.442,19.765-20.315c3.803-12.175,1.768-23.55-6.104-34.125c-7.839-10.475-19.015-17.013-33.524-19.614
	c-12.409-2.235-24.051-0.484-34.925,5.253c-12.142,6.405-18.947,16.012-20.415,28.821c-1.268,11.208,2.469,20.815,11.208,28.821
	c1.401,1.301,4.787,3.969,10.157,8.006c3.603,2.735,5.82,4.954,6.654,6.655c1.201,2.502,1.335,5.387,0.4,8.656
	c-0.733,2.473-1.985,4.834-3.738,7.085c-13.452-4.409-27.033-5.358-40.744-2.833c-11.66,2.115-19.656,5.874-23.998,11.272
	c-0.828-1.986-1.836-3.883-3.072-5.668c-3.936-5.67-8.773-8.673-14.51-9.006c-5.938-0.333-11.225,2.402-15.861,8.206
	C2.202,102.065-0.066,108.703,0,116.209c0.067,7.939,2.302,14.511,6.705,19.715c4.236,5.004,9.39,7.555,15.461,7.655
	c5.046,0.062,9.487-2.106,13.326-6.497c0.327,1.091,0.678,2.188,1.084,3.295c5.137,14.076,15.695,25.719,31.673,34.925
	c16.045,9.273,31.456,12.76,46.233,10.458c1.338-0.209,2.628-0.47,3.894-0.76c-1.265,5.506-0.599,10.38,2.011,14.619
	c2.902,4.704,8.256,7.439,16.063,8.207c7.705,0.8,14.627-0.568,20.765-4.104c6.438-3.67,10.774-8.807,13.01-15.411
	c2.168-6.472,1.651-12.192-1.552-17.163c-2.701-4.203-7.572-6.888-14.61-8.055c-2.725-0.454-5.416-0.566-8.075-0.352
	c2.513-6.896,2.292-15.465-0.682-25.718c-1.407-4.908-3.275-9.496-5.604-13.767c1.519-0.869,2.794-1.476,3.804-1.795l6.255-1.352
	c5.237-1.066,9.757-2.301,13.56-3.702c5.671-2.067,11.492-5.021,17.463-8.856s11.092-8.239,15.361-13.209
	c3.369-3.936,6.07-8.072,8.105-12.409C206.016,78.165,206.5,75.546,205.699,74.079z"/>
</svg>
