<?xml version="1.0" encoding="utf-8"?>
<!-- Generator: Adobe Illustrator 16.0.0, SVG Export Plug-In . SVG Version: 6.00 Build 0)  -->
<!DOCTYPE svg PUBLIC "-//W3C//DTD SVG 1.1//EN" "http://www.w3.org/Graphics/SVG/1.1/DTD/svg11.dtd">
<svg version="1.1" id="图层_1" xmlns="http://www.w3.org/2000/svg" xmlns:xlink="http://www.w3.org/1999/xlink" x="0px" y="0px"
	 width="204px" height="323px" viewBox="0 0 204 323" enable-background="new 0 0 204 323" xml:space="preserve">
<path d="M194.31,197.305c3.862-5.16,6.176-11.252,6.941-18.277c1.099-9.887-1.382-18.826-7.44-26.816
	c-6.06-7.957-13.75-12.451-23.072-13.483c-6.491-0.732-12.834,0.583-19.025,3.945c-5.929,3.222-10.613,7.734-14.078,13.512
	c-4.425,0.681-10.02,2.12-16.784,4.316c-5.726,1.864-10.521,2.646-14.382,2.347c-3.396-0.261-6.918-1.409-10.567-3.441
	c-2.326-5.723-3.872-11.417-4.615-17.083c-0.732-5.926-0.749-13.017-0.05-21.273c0.133-1.532,0.45-3.346,0.949-5.443l1.199-5.094
	l1.348-6.392c0.336-1.987,0.509-3.999,0.54-6.033c1.738,1.236,3.343,2.106,4.804,2.587c5.259,1.731,9.587,2.197,12.984,1.398
	c2.73-0.666,4.527-2.014,5.393-4.045c0.467-1.132,0.334-2.364-0.398-3.695c-0.999-1.898-3.097-3.729-6.293-5.494
	c-7.402-4.057-13.345-8.421-17.866-13.083c0.808,0.299,1.769,0.699,2.885,1.198c3.496,1.565,7.307,2.197,11.436,1.898
	c2.23-0.133,5.21-0.699,8.938-1.698c0.899-0.233,2.197-0.05,3.896,0.549c1.298,0.433,3.596,1.415,6.891,2.947
	c2.298,1.065,4.361,0.266,6.193-2.397c1.797-2.63,1.896-4.744,0.299-6.342c-0.959-0.959-2.266-1.609-3.913-1.956
	c2.675-2.282,4.764-5.206,6.261-8.781c1.73-4.128,2.963-9.904,3.695-17.329c0.066-0.965,0.283-1.698,0.648-2.197
	c0.4-0.533,1.016-0.916,1.848-1.148l11.387-2.347c1.764-0.366,2.646-2.114,2.646-5.244c0.033-2.963-0.449-4.728-1.448-5.293
	c-1.465-0.799-4.728-0.566-9.788,0.699c-3.129,0.766-6.158,1.681-9.088,2.747c-2.631,0.932-4.278,1.631-4.944,2.098
	c-1.532,1.099-2.28,2.68-2.247,4.744c0.299,12.185-2.397,20.874-8.09,26.067c-3.396,3.063-7.541,4.711-12.436,4.944
	c-1.983,0.111-3.79-0.002-5.449-0.301c1.142-0.419,2.194-1.129,3.152-2.146c1.598-1.731,2.397-3.712,2.397-5.943
	c0-2.197-0.782-4.078-2.347-5.643c-1.599-1.598-3.496-2.397-5.693-2.397s-4.145,0.833-5.843,2.497
	c-1.3,1.25-2.112,2.651-2.436,4.202c-0.593-2.391-0.547-5.098,0.188-8.147c1.731-7.024,6.326-12.301,13.784-15.83
	c6.025-2.83,12.434-4.062,19.226-3.695c1.099,0.066,1.881-0.133,2.347-0.6l1.1-1.998c0.565-1.065,1.465-3.645,2.696-7.74
	c1.465-4.694,2.364-8.34,2.696-10.937c0.367-2.896-1.198-4.511-4.693-4.844c-3.396-0.366-5.594,0.416-6.592,2.347
	c-0.268,0.532-0.717,2.663-1.35,6.392l-0.848,5.394c-0.234,1.232-0.899,1.914-1.998,2.047c-4.361,0.533-8.09,1.232-11.186,2.098
	c-5.014,1.406-9.131,3.409-12.376,5.993c-0.012-1.15-0.113-2.233-0.309-3.247c-0.399-2.131-1.165-3.695-2.297-4.694
	c-1.731-1.531-3.746-1.765-6.043-0.699c-2.297,1.065-3.379,2.697-3.246,4.894l0.399,1.798l0.599,1.798
	c0.633,2.164,0.999,3.978,1.099,5.443c0.133,2.497-0.283,5.177-1.249,8.04l-2.147,5.743c-0.966,3.229-1.182,6.109-0.649,8.639
	l1.199,5.743c0.1,1.231-0.117,2.197-0.649,2.896l-1.205,1.244c-4.817-2.076-9.543-3.015-14.176-2.792
	c-3.452,0.192-6.421,1.015-8.923,2.449c-0.716-1.181-0.86-2.396-0.415-3.647l2.097-4.145c0.766-1.964,1.215-3.862,1.349-5.693
	c0.133-2.63-0.233-5.859-1.099-9.688c-0.666-2.896-0.966-5.527-0.899-7.891c0.066-1.531,0.416-4.461,1.048-8.789l0.45-2.996
	c-0.033-1.099-0.516-1.964-1.448-2.597c-0.833-0.533-1.881-0.816-3.146-0.849c-1.232-0.033-2.23,0.183-2.997,0.649
	c-1.032,0.666-1.714,1.581-2.047,2.747c-0.145,0.435-0.236,0.967-0.282,1.58c-1.281-1.71-2.683-3.205-4.212-4.476
	c-2.697-2.231-6.259-4.178-10.687-5.843c-0.766-0.3-1.249-0.616-1.448-0.949c-0.266-0.366-0.399-0.999-0.399-1.898l-0.35-9.838
	c-0.167-1.365-1.432-2.197-3.795-2.497c-2.364-0.3-4.195,0.1-5.493,1.198c-0.799,0.732-1.065,3.413-0.799,8.04
	c0.233,3.429,0.566,6.259,0.999,8.49c0.267,1.298,0.899,2.43,1.898,3.396c1.065,0.966,2.447,1.681,4.145,2.147
	c5.161,1.465,9.555,4.261,13.184,8.39c4.132,4.661,6.454,10.258,6.976,16.789c-0.248-0.331-0.521-0.652-0.833-0.958
	c-1.465-1.432-3.229-2.147-5.293-2.147c-2.097,0-3.895,0.732-5.393,2.197c-1.532,1.465-2.297,3.229-2.297,5.293
	s0.716,3.812,2.147,5.244c0.52,0.52,1.081,0.942,1.68,1.273c-1.725-0.156-3.549-0.674-5.475-1.573
	c-5.26-2.497-9.039-6.775-11.336-12.834c-2.264-6.026-2.78-13.101-1.548-21.224c0.266-1.698,0.216-3.113-0.15-4.245
	c-0.4-1.231-1.199-2.38-2.397-3.446l-3.596-2.996c-2.896-2.23-5.493-3.895-7.791-4.994C6.958,7.44,5.61,7.291,4.445,7.69
	c-1.065,0.366-2.064,1.215-2.996,2.547c-1.232,1.765-1.432,3.363-0.6,4.794c0.533,0.966,1.615,1.931,3.246,2.896l3.096,1.698
	l3.695,2.597c0.999,0.999,1.398,2.097,1.199,3.296c-0.699,3.729-1.016,6.941-0.949,9.638c0.03,2.653,0.469,5.334,1.272,8.041
	c-0.157-0.047-0.32-0.11-0.474-0.15l-4.444-0.549c-1.298-0.033-2.364,0.516-3.196,1.648c-0.699,0.932-1.099,2.114-1.198,3.545
	c-0.2,2.164,0.167,3.629,1.099,4.395C4.828,52.618,6.143,53,8.14,53.233l3.746,0.45c1.432,0.233,2.63,0.583,3.596,1.049
	c1.099,0.566,2.696,1.981,4.794,4.245l4.395,4.594c1.931,1.765,3.995,3.03,6.192,3.795c3.695,1.332,7.641,1.897,11.835,1.698
	l4.994,0.45c0.889,0.313,1.527,0.85,1.93,1.596c-0.642,0.851-1.206,1.877-1.693,3.076c-3.143,3.334-5.986,5.957-8.527,7.863
	c-3.229,2.397-7.324,4.661-12.285,6.792c-1.265,0.566-2.264,1.365-2.996,2.397c-0.766,1.065-1.032,2.114-0.799,3.146
	c0.267,1.365,1.232,2.58,2.896,3.646c1.765,1.132,3.812,1.698,6.143,1.698l4.544-0.599l3.39-1.161c0.06,0.197,0.127,0.4,0.206,0.612
	c0.466,1.198,1.116,2.13,1.948,2.796c0.081,0.065,0.159,0.11,0.238,0.165l-0.038,1.533l-0.396,3.314l-0.753,1.08l-1.698,1.848
	l-3.396,4.095c-1.265,1.765-2.047,3.446-2.347,5.044c-0.5,2.563,0.05,5.01,1.648,7.341c1.386,2.034,3.112,3.308,5.177,3.828
	c0.577,1.635,1.38,3.123,2.414,4.461c1.132,1.498,2.53,2.647,4.195,3.446c1.665,0.832,3.313,1.182,4.944,1.049
	c0.778-0.078,1.614-0.325,2.504-0.732c1.049,2.618,0.916,8.531-0.407,17.761c-1.198,8.157-3.512,19.925-6.941,35.306
	c-0.949,4.248-1.228,8.34-0.852,12.28c-1.457,6.31-2.648,12.556-3.543,18.731c-1.099,7.491-1.465,12.917-1.099,16.28l1.149,7.54
	c0.466,4.095,0.466,7.142,0,9.139c-1.798,7.757-4.345,15.598-7.641,23.521c-3.163,7.491-6.009,12.752-8.54,15.781l-1.099,1.498
	c-0.096,0.205-0.142,0.438-0.159,0.688c-1.347,0.51-2.742,1.343-4.186,2.508c-2.23,1.799-4.012,3.996-5.343,6.592
	c-0.666,1.365-0.799,2.23-0.399,2.598c0.333,0.332,1.448,0.482,3.346,0.449l8.689-0.25l9.588-0.648
	c0.233-0.035,0.44-0.075,0.626-0.121c0.323,0.146,0.746,0.203,1.271,0.17c1.132,0,1.798-0.316,1.998-0.948
	c0.012-0.043,0.032-0.084,0.045-0.127l0.554,0.427c0.499,0.266,0.916,0.433,1.249,0.499c0.499,0.101,0.865-0.05,1.099-0.449
	l0.449-1.349l0.94-4.467l0.458-0.377l1.248-1.099c0.4-0.433,0.616-0.866,0.649-1.298c0.233-4.195,0.466-6.875,0.699-8.041
	c0.632-3.129,2.463-9.072,5.493-17.828c0.899-2.729,1.881-5.043,2.946-6.941l2.197-3.445l1.148-2.146
	c0.3-0.732,0.466-1.615,0.5-2.647c0.133-2.597,1.049-6.442,2.747-11.536c1.768-5.246,3.676-9.241,5.722-11.989
	c4.755,2.024,10.083,3.115,15.984,3.271c0.514,0.822,1.049,1.675,1.615,2.577c4.095,6.524,6.858,12.118,8.29,16.778
	c0.399,1.232,1.182,2.83,2.347,4.795l0.863,1.355c-0.73,4.695-1.866,9.084-3.459,13.127c-1.365,3.495-2.68,5.976-3.945,7.44
	l-1.398,1.897c-0.123,0.258-0.197,0.506-0.247,0.749c-1.632,0.463-3.493,1.469-5.596,3.046c-2.73,2.031-4.611,3.929-5.643,5.693
	c-0.5,0.898-0.683,1.515-0.549,1.848c0.2,0.333,0.865,0.533,1.998,0.6c8.859,0.124,14.508,0.155,16.949,0.094
	c-0.958,4.492-2.028,7.621-3.216,9.344c-0.788,1.182-0.998,2.482-0.645,3.902c-1.187,1.648-1.676,3.127-1.453,4.438
	c0.333,1.665,0.949,3.196,1.848,4.595c0.966,1.531,1.998,2.397,3.096,2.597c1.998,0.399,4.461,0.083,7.391-0.949
	c2.78-1.008,4.901-2.402,6.388-4.169c1.256-0.15,2.589-1.415,4-3.821c1.498-2.529,1.98-4.477,1.448-5.842
	c-1.398-3.662-1.682-10.938-0.85-21.823c0.699-9.056,1.382-14.632,2.048-16.729c0.633-1.897,0.849-3.579,0.649-5.044
	c-0.129-0.775-0.471-1.928-1.019-3.442c0.462-1.163,1.23-2.575,2.317-4.248l4.145-5.843c0.799-1.132,1.198-2.081,1.198-2.847
	l-0.799-3.146c-0.933-2.098-1.165-5.077-0.699-8.938c0.424-3.544,1.369-7.071,2.784-10.586c5.759-1.387,11.709-2.101,17.85-2.141
	c1.788,3.777,4.014,7.453,6.682,11.027c5.693,7.625,11.953,12.752,18.777,15.382c0.898,0.366,2.114,1.548,3.646,3.546
	c2.397,3.129,4.728,9.021,6.991,17.678c1.965,7.557,2.996,13.217,3.096,16.979c0.033,1.564-0.133,2.78-0.498,3.646l-0.85,1.397
	c-0.267,0.399-0.399,0.999-0.399,1.798c0,0.391,0.031,0.72,0.092,0.988c-0.114,0.152-0.229,0.3-0.342,0.46
	c-1.397,1.997-1.432,4.528-0.1,7.591c1.265,2.896,2.796,4.461,4.595,4.693c2.297,0.334,5.127-0.615,8.488-2.846
	c2.852-1.891,4.456-3.489,4.815-4.795c0.814-0.814,1.377-2.287,1.677-4.443c0.334-2.464,0.217-4.212-0.35-5.244
	c-2.063-3.828-3.495-10.055-4.294-18.677c-0.633-6.858-0.767-12.935-0.399-18.228c0.166-2.463-0.084-4.378-0.75-5.742
	c-0.432-0.899-1.331-1.948-2.696-3.146l-2.546-1.998c-1.133-0.965-1.998-2.014-2.598-3.146c-1.897-3.529-3.213-8.007-3.945-13.434
	c-0.355-2.659-0.809-8.805-1.355-18.415C186.264,205.525,190.716,202.118,194.31,197.305z"/>
</svg>
