<?xml version="1.0" encoding="utf-8"?>
<!-- Generator: Adobe Illustrator 16.0.0, SVG Export Plug-In . SVG Version: 6.00 Build 0)  -->
<!DOCTYPE svg PUBLIC "-//W3C//DTD SVG 1.1//EN" "http://www.w3.org/Graphics/SVG/1.1/DTD/svg11.dtd">
<svg version="1.1" id="图层_1" xmlns="http://www.w3.org/2000/svg" xmlns:xlink="http://www.w3.org/1999/xlink" x="0px" y="0px"
	 width="347px" height="387px" viewBox="0 0 347 387" enable-background="new 0 0 347 387" xml:space="preserve">
<path d="M344.17,272.004c-1.632-2.165-4.313-3.247-8.042-3.247c-4.063,0-7.294-0.699-9.691-2.099
	c-1.998-1.132-3.181-2.564-3.547-4.296c4.362-5.295,7.693-10.374,9.991-15.235c2.631-5.563,3.563-10.158,2.797-13.788
	c-0.6-2.964-2.114-5.112-4.546-6.444c-2.164-1.166-4.379-1.1-6.644,0.199c-2.231,1.266-4.163,3.514-5.795,6.744
	c-1.432,2.864-3.38,5.979-5.845,9.342l-4.746,5.695v-0.051c1.865-2.631,2.531-6.576,1.999-11.839
	c-0.6-5.961-2.765-10.573-6.494-13.837c-1.532-1.332-3.314-1.982-5.346-1.949c-1.832,0.033-3.53,0.6-5.096,1.699
	c-1.531,1.099-2.497,2.414-2.896,3.946c-0.467,1.698-0.117,3.297,1.049,4.796c1.598,2.031,2.197,5.412,1.799,10.141
	c-0.334,3.996-0.967,6.744-1.898,8.242c-0.5,0.866-1.482,2.064-2.947,3.598c-1.533,1.631-2.631,2.963-3.298,3.996
	c-0.912,1.387-1.568,2.926-1.97,4.617c-11.659,1.127-21.967,0.132-30.9-3.02c-11.252-3.969-22.408-11.81-33.466-23.502
	c1.293-0.652,2.483-1.447,3.543-2.424c1.532-1.432,2.698-3.08,3.497-4.945c2.031-4.629,1.698-9.226-1-13.788
	c-0.623-1.047-1.363-2.063-2.214-3.048c19.886-1.713,35.198-6.923,45.925-15.635c9.592-7.793,14.387-17.268,14.387-28.425
	c-0.097-6.236-2.49-12.363-7.165-18.381c3.999-2.085,6.036-4.035,6.066-5.847c-0.033-2.631-2.831-5.095-8.393-7.393
	c-3.447-1.425-7.646-2.677-12.58-3.761c1.267-1.509,2.123-3.458,2.54-5.881c0.365-2.131-0.018-4.246-1.149-6.344
	c-1.266-2.364-3.397-4.513-6.395-6.444c-5.995-3.863-13.954-7.061-23.878-9.591c-5.426-1.38-10.629-2.35-15.624-2.936
	c-1.554-2.755-3.655-5.474-6.307-8.154c-2.964-3.064-5.179-4.629-6.644-4.696c-0.899-0.033-2.215,1.482-3.947,4.546
	c-1.447,2.549-2.695,5.313-3.767,8.265c-6.49,0.79-12.945,2.336-19.362,4.674c-9.524,3.43-17.5,8.042-23.928,13.837
	c-1.333,1.266-2.048,2.665-2.148,4.196c-0.087,1.168,0.206,2.133,0.835,2.917c-3.857,1.709-8.179,4.328-12.974,7.873
	c-6.461,4.729-11.59,9.525-15.386,14.387c-3.664,4.729-4.546,8.742-2.647,12.039c1.998,3.53,6.943,5.612,14.836,6.245
	c9.276,0.761,17.369-0.071,24.306-2.461l-0.178,3.31c-0.133,6.661,1.399,13.005,4.596,19.033
	c2.993,5.631,7.162,10.477,12.486,14.554c-2.832,1.617-4.751,3.69-5.742,6.228c-0.966,2.577-1.171,5.592-0.619,9.044
	c-1.655-0.836-3.228-1.684-4.676-2.55c-6.494-3.863-15.07-10.807-25.727-20.831c-11.356-10.646-19.797-20.071-25.34-28.279
	c0.305-1.023,0.462-2.037,0.462-3.042c0-5.029-0.35-10.657-1.049-16.885c-0.7-6.161-1.465-10.507-2.298-13.038
	c-1.565-4.629-4.463-8.06-8.692-10.291c-3.721-1.941-6.935-2.376-9.649-1.331c-1.558-6.474-3.78-13.931-6.686-22.397
	c-0.633-1.898-0.866-3.513-0.7-4.846c0.233-1.632,1.066-3.28,2.498-4.945c6.894-7.959,11.689-17.251,14.387-27.875
	c2.231-8.792,3.097-18.949,2.598-30.472c-0.076-7.001-0.018-12.185,0.171-15.556c2.375-4.959,4.485-8.861,6.323-11.669
	c0.533-0.732,0.267-1.182-0.799-1.349c-2.797-0.366-6.394,0.066-10.79,1.299c-4.696,1.299-9.875,3.397-15.536,6.294l3.397-7.743
	c0.233-0.666,0.283-1.049,0.15-1.149C87.486-0.083,87.086,0,86.454,0.3C72.566,6.46,61.559,13.971,53.433,22.829
	c-7.56,8.226-12.105,17.068-13.638,26.526c-1.499,9.092-0.1,17.884,4.196,26.376c4.363,8.559,11.24,15.919,20.631,22.08l3.547,2.448
	c1.032,0.866,1.798,1.981,2.298,3.347c1.305,3.499,2.451,6.832,3.452,10.016c-2.744,0.561-5.013,1.848-6.798,3.872
	c-1.699,1.965-2.665,4.246-2.897,6.844c-0.466,4.762,0.566,9.358,3.097,13.788c1.726,3.01,3.939,5.43,6.621,7.279
	c-3.408-0.405-6.286,0.339-8.619,2.262c-2.198,1.832-3.396,4.213-3.597,7.144c-0.2,2.498,0.4,4.913,1.798,7.244
	c1.465,2.464,3.281,3.93,5.445,4.396c2.136,0.418,4.197,0.331,6.188-0.239c-2.619,7.304-6.6,14.709-11.982,22.219
	c-5.895,8.226-13.688,16.852-23.379,25.877c-14.853,13.82-24.927,25.01-30.223,33.568c-6.46,10.424-9.575,22.098-9.341,35.02
	c0.033,12.688,6.328,23.179,18.883,31.471c11.423,7.561,26.193,12.272,44.31,14.138c17.817,1.798,35.035,0.466,51.653-3.997
	c17.357-4.647,30.722-11.952,40.117-21.899c1.026,0.57,2.079,1.13,3.194,1.668c4.279,2.041,8.324,3.556,12.149,4.578
	c0.776,4.524,0.631,9.093-0.46,13.706c-1.078,4.489-2.875,8.301-5.377,11.445c-5.122,1.3-8.884,3.639-11.257,7.037
	c-2.731,3.93-2.964,8.477-0.699,13.639c3.763,8.658,10.091,16.102,18.982,22.329c8.826,6.161,17.5,9.259,26.027,9.292
	c8.426-0.033,15.536-2.049,21.331-6.045c5.428-3.764,8.125-8.043,8.092-12.838c0-3.997-1.682-7.193-5.045-9.592
	c-3.164-2.265-7.193-3.396-12.09-3.396c-4.362,0-9.558-1.732-15.586-5.195c-4.672-2.699-7.621-4.917-8.854-6.654
	c4.693-5.387,7.796-11.395,9.305-18.023c1.116-4.84,1.398-10.867,0.868-18.049c1.624-0.994,3.173-2.156,4.627-3.532
	c8.799-8.342,13.65-23.139,14.563-44.38c1.036,0.987,2.071,1.946,3.104,2.874l0.865,0.893c1.817,1.646,3.748,3.187,5.753,4.658
	c8.674,6.764,17.23,11.413,25.669,13.925c10.381,3.092,23.49,3.681,39.311,1.778c1.08,0.749,2.276,1.376,3.601,1.868
	c5.195,1.898,11.473,1.633,18.833-0.799c4.829-1.564,9.824-1.032,14.986,1.599c3.164,1.665,6.561,1.915,10.19,0.749
	c3.896-1.199,6.494-3.646,7.793-7.343C345.969,276.2,345.669,273.936,344.17,272.004z M119.841,301.229
	c5.346-4.348,11.231-6.941,17.666-7.745c1.238-0.154,2.434-0.214,3.61-0.226c-6.242,5.23-13.735,9.503-22.48,12.814
	C119.125,304.721,119.526,303.106,119.841,301.229z M144.75,258.516c-2.685,3.753-4.605,7.534-5.781,11.342
	c-0.886-0.162-1.73-0.259-2.512-0.252c-3.529,0-7.438,1.694-11.719,5.052c0.178-0.482,0.34-0.985,0.529-1.454
	c0.933-2.332,3.847-6.494,8.742-12.489c4.163-5.128,6.578-9.958,7.244-14.487c0.899-6.26-0.916-11.422-5.445-15.485
	c-4.296-3.896-9.758-5.778-16.385-5.646c-11.023,0.2-19.549,3.681-25.577,10.441c-6.261,6.993-9.392,17.034-9.392,30.123
	c0,15.652,2.914,28.008,8.742,37.066c2.417,3.764,4.946,6.508,7.584,8.248c-9.263,1.724-18.717,2.363-28.366,1.893
	c-9.991-0.467-19.099-2.049-27.325-4.746c-8.492-2.764-15.136-6.41-19.932-10.939c-5.128-4.83-7.693-10.274-7.693-16.336
	c0-11.023,4.013-21.73,12.039-32.121c3.097-3.996,7.227-8.542,12.389-13.637L56.081,221.5
	c12.588-12.057,21.664-22.613,27.225-31.672c2.302-3.771,4.28-7.634,5.956-11.585c3.112,1.382,6.122,1.914,9.031,1.594
	c0.357-0.042,0.704-0.103,1.048-0.168c10.265,13.605,20.705,25.076,31.323,34.388c11.197,9.752,23.192,17.636,35.967,23.688
	c-1.561,1.636-5.371,4.91-11.439,9.831C151.062,250.939,147.582,254.586,144.75,258.516z"/>
</svg>
