<?xml version="1.0" encoding="utf-8"?>
<!-- Generator: Adobe Illustrator 16.0.0, SVG Export Plug-In . SVG Version: 6.00 Build 0)  -->
<!DOCTYPE svg PUBLIC "-//W3C//DTD SVG 1.1//EN" "http://www.w3.org/Graphics/SVG/1.1/DTD/svg11.dtd">
<svg version="1.1" id="图层_1" xmlns="http://www.w3.org/2000/svg" xmlns:xlink="http://www.w3.org/1999/xlink" x="0px" y="0px"
	 width="158px" height="227px" viewBox="0 0 158 227" enable-background="new 0 0 158 227" xml:space="preserve">
<path d="M157.256,115.579c-0.334-1.235-1.369-3.106-3.106-5.611c-1.837-2.639-3.189-4.058-4.058-4.258l-5.861,0.3
	c-2.506,0.501-4.226,1.069-5.161,1.704c-0.292,0.189-0.538,0.378-0.741,0.567l-2.815,0.084c-1.437,0.3-2.605,0.685-3.507,1.152
	c-1.203,0.635-1.804,1.57-1.804,2.806c0,1.024,0.16,2.248,0.474,3.664c-1.149,1.639-1.991,3.292-2.516,4.96
	c-1.808,0.128-4.547,0.06-8.229-0.207l-8.632-1.138c0.848-4.331,1.591-7.999,2.23-11c0.979-1.642,2.373-3.373,4.196-5.197
	c1.537-1.537,2.188-3.908,1.955-7.114c-0.201-2.438-1.152-3.757-2.855-3.958l-3.825-0.673c4.959-1.271,9.725-3.546,14.296-6.842
	c8.684-6.279,12.925-13.727,12.725-22.344c-0.167-7.014-2.205-13.327-6.112-18.938c-3.782-5.431-8.891-9.535-15.302-12.338
	c0.525-1.282,1.001-2.385,1.424-3.293l0.702-1.904c0.134-0.735,0.066-1.486-0.2-2.254l-2.305-7.315
	c-0.435-1.503-1.437-2.154-3.006-1.954c-1.57,0.2-2.739,1.252-3.508,3.156c-0.635,1.637-1.553,3.44-2.755,5.411
	c-0.315,0.526-0.629,1.01-0.94,1.482c-0.196-2.219-0.25-5.351-0.162-9.398l0.502-10.17c0.1-1.57-0.469-2.605-1.704-3.106
	l-4.71-1.704l-1.753,0.1c-0.468,0.301-0.784,0.818-0.952,1.553c-0.768,3.574-2.021,7.548-3.757,11.924
	c-1.394,3.557-2.807,6.464-4.239,8.725l-1.522-5.819c-0.635-2.706-1.035-4.776-1.202-6.212c-0.134-1.036-0.484-1.77-1.053-2.205
	c-0.601-0.434-1.303-0.501-2.104-0.2c-0.734,0.267-1.787,0.785-3.156,1.553c-1.47,0.801-2.404,1.403-2.806,1.803
	c-0.768,0.802-1.286,1.82-1.553,3.056l-2.004,9.519c-0.434,1.804-0.935,3.189-1.503,4.158c-0.668,1.069-1.67,1.971-3.006,2.706
	c-6.646,3.707-11.506,7.982-14.579,12.825c-3.14,4.91-4.659,10.671-4.559,17.284c0.067,5.611,2.154,10.888,6.263,15.832
	c3.916,4.743,8.813,8.12,14.671,10.163c-1.198,0.359-2.251,0.924-3.149,1.711c-1.102,0.969-2.455,1.503-4.058,1.603L50.293,90.68
	l-14.116-0.145c-0.17-0.303-0.334-0.606-0.513-0.908c-1.503-2.572-2.939-4.359-4.309-5.361c-1.737-1.302-4.743-2.137-9.018-2.505
	c-4.309-0.367-7.666-0.083-10.07,0.852c-2.271,0.869-4.476,2.004-6.613,3.407c-1.904,1.269-3.34,2.455-4.309,3.557
	c-1.036,1.169-1.453,2.488-1.252,3.958c0.835,5.845,1.737,10.22,2.705,13.126c0.768,2.338,2.154,3.841,4.158,4.509
	c1.531,0.549,3.038,0.496,4.519-0.155c0.409,0.818,1.003,1.457,1.794,1.909c1.27,0.734,2.906,1.303,4.91,1.703l4.359,0.301
	c0.902-0.134,1.603-0.568,2.104-1.303c0.188-0.275,0.326-0.591,0.438-0.928c0.657,0.378,1.376,0.577,2.167,0.577l4.91-0.651
	l1.703-0.751c0.602-0.368,1.019-0.918,1.252-1.653c0.319-0.95,0.621-1.821,0.909-2.631l23.289-3.631
	c10.788-1.47,17.384-2.171,19.789-2.104c0.7,0.015,1.338,0.081,1.934,0.181c1.795,1.487,2.739,3.764,2.826,6.833
	c0.033,1.069-0.185,3.557-0.651,7.464l-1.402,9.52c-0.043,0.233-0.061,0.452-0.065,0.664c-6.355,0.504-11.966,3.257-16.819,8.303
	c-5.043,5.277-7.214,10.989-6.513,17.135c0.601,5.215,2.715,9.535,6.306,12.985l-0.244,2.444l-0.551,2.455
	c-0.021,0.029-0.038,0.055-0.058,0.084c-2.526,1.431-4.118,2.905-4.751,4.426l-4.559,11.222c-1.15,2.82-1.985,4.918-2.527,6.347
	c-5.168,0.368-9.521,3.041-13.054,8.032c-3.574,5.043-4.626,10.003-3.156,14.88c1.703,5.711,6.88,9.251,15.531,10.621
	c3.574,0.533,6.98,0.533,10.22,0c3.307-0.568,5.728-1.604,7.265-3.107c3.039-2.938,4.208-7.765,3.507-14.479
	c-0.672-6.464-2.724-10.68-6.125-12.697l4.772-6.991c3.14-4.542,5.01-7.415,5.611-8.617c0.37-0.678,0.566-2.318,0.595-4.897
	c0.105-0.09,0.198-0.172,0.307-0.263l4.059-3.113c4.763-0.073,8.895-1.409,12.373-4.051c0.782-0.604,1.456-1.252,2.077-1.92
	c2.372,2.16,5.249,3.442,8.645,3.823c0.868,0.102,1.734,0.142,2.599,0.122c1.175,1.089,1.977,1.975,2.361,2.634
	c0.501,0.835,0.668,1.77,0.501,2.806c-0.301,1.603-0.368,3.323-0.2,5.16c0.133,1.636,0.4,3.006,0.801,4.108
	c2.619,6.948,4.592,11.636,5.919,14.067c-1.82,1.011-3.4,2.499-4.716,4.519c-1.47,2.271-2.221,4.543-2.255,6.814
	c-0.033,2.204,0.368,4.041,1.202,5.51c0.769,1.471,2.104,2.807,4.008,4.009c5.779,3.707,11.874,6.045,18.287,7.014
	c5.577,0.835,10.153,0.534,13.727-0.901c4.543-1.804,6.914-4.894,7.114-9.269c0.167-4.376-1.937-7.548-6.313-9.519
	c-4.977-2.238-8.767-4.309-11.372-6.213c-2.448-1.745-4.6-2.822-6.46-3.248c-0.06-0.353-0.152-0.719-0.304-1.11l-3.106-9.269
	c-0.981-3.231-1.725-5.9-2.231-8.011c0.219-0.603,0.361-1.255,0.428-1.959c0.134-1.503-0.133-2.839-0.801-4.008
	c-0.401-0.735-0.902-2.305-1.504-4.71c-0.5-1.947-0.816-3.518-0.964-4.739c0.577-0.616,1.117-1.273,1.616-1.974
	c2.271-3.14,3.406-6.696,3.406-10.671c0-5.578-1.586-10.304-4.76-14.179c-1.008-1.228-2.129-2.28-3.341-3.194l11.327-0.995
	c0.197,0.282,0.406,0.561,0.631,0.833c0.869,1.003,3.057,1.987,6.563,2.956c3.641,1.035,6.347,1.336,8.117,0.902
	c1.803-0.435,3.707-1.587,5.711-3.457c1.904-1.737,3.289-3.508,4.158-5.311c0.802-1.703,1.486-3.857,2.055-6.463
	C157.423,118.686,157.557,116.748,157.256,115.579z"/>
</svg>
