<?xml version="1.0" encoding="utf-8"?>
<!-- Generator: Adobe Illustrator 16.0.0, SVG Export Plug-In . SVG Version: 6.00 Build 0)  -->
<!DOCTYPE svg PUBLIC "-//W3C//DTD SVG 1.1//EN" "http://www.w3.org/Graphics/SVG/1.1/DTD/svg11.dtd">
<svg version="1.1" id="图层_1" xmlns="http://www.w3.org/2000/svg" xmlns:xlink="http://www.w3.org/1999/xlink" x="0px" y="0px"
	 width="368px" height="317px" viewBox="0 0 368 317" enable-background="new 0 0 368 317" xml:space="preserve">
<path d="M353.982,25.017c-7.945-4.108-13.228-6.282-15.863-6.535c-5.593-5.166-12.959-9.493-22.11-12.977
	c-11.708-4.403-23.081-5.32-34.122-2.752c-5.095,1.193-9.33,2.958-12.727,5.282c-9.794-1.898-17.891-2.999-24.246-3.28
	c-1.268-0.034-2.019,0.267-2.252,0.9c-0.233,0.601-0.017,1.468,0.65,2.602c0.834,1.334,2.869,3.919,6.104,7.755
	c3.194,3.846,6.532,7.627,9.986,11.357c0.393,4.835,2.548,9.805,6.475,14.909c0.333,0.433,0.679,0.858,1.027,1.282
	c-1.634,4.866-4.608,9.659-8.933,14.378c-4.496,4.94-9.876,9.132-16.113,12.598c-7.814-5.022-16.683-7.545-26.614-7.545
	c-4.491,0-8.749,0.482-12.778,1.433c-1.372-4.845-3.707-9.377-7.034-13.59c-1.094-1.395-2.265-2.676-3.477-3.897
	c3.419-4.461,5.129-9.732,5.129-15.815c0-7.538-2.553-13.858-7.655-18.962c-5.104-5.136-11.424-7.705-18.962-7.705
	c-4.695,0-8.876,0.846-12.545,2.538L144.5,1.652c-3.869-1.568-6.037-1.985-6.504-1.251c-0.2,0.333,0.167,1.668,1.101,4.002
	c0.571,1.34,2.898,5.999,6.975,13.964c-1.973,3.796-2.973,8.093-2.973,12.903c0,7.171,2.302,13.208,6.905,18.111
	c5.003,5.37,11.724,8.055,20.163,8.055c3.915,0,7.506-0.675,10.779-2.012c1.037,1.271,2.064,2.817,3.08,4.664
	c1.912,3.441,3.238,6.908,3.982,10.4c-2.815,1.787-5.48,3.884-7.985,6.31c-2.197,2.121-4.13,4.369-5.823,6.732
	c-7.05,2.625-13.409,4.299-19.043,4.975c-7.785,0.914-17.941,0.412-30.462-1.504c-1.22-5.11-3.126-9.64-5.735-13.573l1.576-16.192
	c0.434-5.97,0.483-10.373,0.15-13.208c-0.167-1.267-0.517-2.018-1.051-2.251c-0.633-0.234-1.751,0.05-3.352,0.85
	c-7.426,3.887-14.701,8.896-21.828,14.999c-6.039-0.763-12.536,0.182-19.498,2.863c-11.774,4.503-23.048,13.208-33.822,26.117
	c-5.637,6.771-9.606,14.142-11.907,22.114c-0.683,2.391-1.18,4.767-1.528,7.13c-3.516,2.754-7.406,6.176-11.68,10.281
	c-5.57,5.336-9.773,9.906-12.608,13.708c-2.368,3.169-3.485,5.22-3.352,6.154c0.2,1.167,2.135,1.685,5.804,1.551l14.059-1.001
	l12.445-1.738c0.826,1.508,1.744,2.958,2.765,4.34c2.658,3.618,5.79,6.501,9.375,8.684c-0.382,2.464-0.789,5.265-1.22,8.427
	c-0.8,5.837-1.334,10.289-1.601,13.358c-0.334,4.603-0.017,7.338,0.95,8.205c0.934,0.867,2.919,0.333,5.954-1.601
	c3.952-2.526,12.18-9.961,24.657-22.271c5.496-0.477,10.836-1.918,16.018-4.346c11.741-5.537,21.414-15.443,29.019-29.719
	c2.865-5.386,4.941-10.77,6.257-16.15c10.055,0.7,21.076-0.717,33.067-4.263c2.739-0.813,5.49-1.726,8.253-2.732
	c-0.127,1.532-0.198,3.091-0.198,4.684c0,13.742,4.803,25.083,14.409,34.021c1.651,1.534,3.376,2.926,5.169,4.191
	c-0.477,1.439-1.048,2.644-1.717,3.614c-1.401,2.035-3.502,3.502-6.304,4.403c-8.338,2.768-14.509,4.986-18.512,6.654
	c-6.137,2.535-11.474,5.369-16.01,8.505c-4.389,3.007-7.879,6.474-10.486,10.392c-2.219-1.796-4.56-3.127-7.025-3.987
	c-3.002-1.034-7.104-1.718-12.308-2.052c-7.605-0.434-15.543,0.484-23.815,2.752c-8.672,2.402-15.176,5.654-19.513,9.756
	c-3.068,2.936-4.569,6.404-4.502,10.407c0.1,3.936,1.717,7.538,4.853,10.807c8.438,8.839,23.798,19.513,46.079,32.021
	c22.35,12.559,42.513,21.789,60.497,27.703c2.597,7.697,7.383,16.948,14.4,27.781c7.572,11.674,12.959,17.512,16.16,17.512
	c2.836-0.033,7.639-5.67,14.41-16.911c5.721-9.502,10.705-19.219,14.972-29.146c1.751-0.414,3.535-0.848,5.391-1.324
	c12.908-3.335,25.583-7.555,38.024-12.657c31.72-12.976,52.75-27.567,63.09-43.778c3.436-5.402,3.568-10.789,0.399-16.16
	c-3.401-5.703-10.022-10.322-19.862-13.858c-10.507-3.735-18.629-4.953-24.365-3.652c-5.837,1.301-11.657,5.687-17.461,13.159
	c-0.441,0.571-0.882,1.123-1.323,1.689c-0.427-3.088-1.549-6.071-3.38-8.945c-2.301-3.602-5.553-6.771-9.756-9.506
	c-1.935-1.268-5.187-2.969-9.756-5.103l-2.769-1.317c4.168,0.002,8.19-0.239,12.078-0.707c0.649,0.798,1.346,1.573,2.097,2.324
	c5.537,5.537,12.358,8.306,20.463,8.306c8.072,0,14.811-2.769,20.213-8.306c5.337-5.537,8.006-12.374,8.006-20.513
	s-2.669-14.943-8.006-20.413c-2.272-2.315-4.784-4.137-7.529-5.478c2.938-1.142,5.566-2.865,7.88-5.179
	c4.536-4.603,6.805-10.406,6.805-17.411s-2.269-12.842-6.805-17.511c-4.603-4.703-10.39-7.054-17.36-7.054
	c-7.039,0-13.009,2.351-17.912,7.054c-0.736,0.701-1.41,1.43-2.037,2.179c-1.66-0.581-3.316-1.066-4.967-1.429
	c-4.24-0.898-8.121-1.019-11.652-0.381c-0.733-1.016-1.508-2.015-2.334-2.992c6.597-3.21,12.518-7.592,17.738-13.188
	c3.879-4.175,6.74-8.472,8.595-12.89c4.088,2.569,8.688,4.834,13.819,6.787c9.746,3.708,19.112,4.988,28.102,3.859
	c1.14,0.654,2.318,1.317,3.568,1.995c7.038,3.802,13.292,6.521,18.762,8.155l4.503,0.1c0.301-0.667-0.133-2.585-1.301-5.753
	c-0.798-2.119-2.751-6.065-5.859-11.836c3.116-2.435,5.341-5.375,6.66-8.827c0.861-2.271,1.353-4.553,1.492-6.845
	c1.975-0.432,4.168-0.996,6.613-1.71c7.171-2.102,10.84-3.853,11.007-5.253C367.591,33.305,363.155,29.819,353.982,25.017z
	 M268.828,129.082c-5.57,5.503-8.355,12.308-8.355,20.413c0,0.481,0.012,0.958,0.031,1.43c-5.434,0.328-10.994,0.232-16.68-0.289
	c2.312-1.518,4.514-3.241,6.593-5.193c9.439-8.939,14.159-20.279,14.159-34.021c0-4.431-0.534-8.638-1.582-12.631
	c1.06,0.038,2.151,0.109,3.283,0.224c0.315,0.032,0.612,0.076,0.92,0.113c-0.042,0.621-0.07,1.249-0.07,1.888
	c0,6.938,2.485,12.741,7.455,17.411c1.643,1.542,3.422,2.8,5.314,3.822C275.767,123.582,272.075,125.855,268.828,129.082z"/>
</svg>
