<?xml version="1.0" encoding="utf-8"?>
<!-- Generator: Adobe Illustrator 16.0.0, SVG Export Plug-In . SVG Version: 6.00 Build 0)  -->
<!DOCTYPE svg PUBLIC "-//W3C//DTD SVG 1.1//EN" "http://www.w3.org/Graphics/SVG/1.1/DTD/svg11.dtd">
<svg version="1.1" id="图层_1" xmlns="http://www.w3.org/2000/svg" xmlns:xlink="http://www.w3.org/1999/xlink" x="0px" y="0px"
	 width="125px" height="166px" viewBox="0 0 125 166" enable-background="new 0 0 125 166" xml:space="preserve">
<path d="M123.008,22.915c-0.633-1.73-4.76-2.912-12.382-3.544c-7.556-0.666-13.612-0.416-18.173,0.749
	c-4.109,1.027-7.553,2.239-10.34,3.634c1.6-2.396,2.868-5.086,3.8-8.077c1.165-3.861,1.231-6.024,0.2-6.49
	c-0.699-0.3-1.998,0.066-3.895,1.098c-1.964,1.098-3.961,2.596-5.991,4.493c-2.907,2.723-5.048,5.452-6.429,8.185
	c-0.329-5.338-1.359-10.001-3.107-13.976c-1.631-3.695-3.095-5.542-4.393-5.542c-0.999,0-1.748,1.515-2.247,4.543
	c-0.446,2.467-0.452,5.096-0.036,7.878c-2.707-3.246-6.084-6.273-10.149-9.076c-3.561-2.463-7.089-4.327-10.584-5.592
	c-3.195-1.165-5.325-1.481-6.39-0.948c-0.466,0.399-0.366,1.864,0.299,4.393c0.699,2.729,1.797,5.708,3.295,8.937
	c4.094,8.687,9.086,14.944,14.977,18.772c-12.048,0-22.732,2.962-32.052,8.887C10.493,46.896,4.502,54.151,1.44,63.004l0.05,0.649
	c0.133,0.233,0.316,0.366,0.549,0.399l7.834,1.512c-2.852,3.447-5.366,8.652-7.535,15.662c-2.13,6.923-2.746,10.966-1.847,12.131
	l1.698,1.698c1.498,1.364,3.278,2.729,5.342,4.094c4.25,2.869,9.104,5.408,14.537,7.629c-1.775,0.041-3.51,0.205-5.201,0.508
	c-4.394,0.799-6.89,2.264-7.489,4.395c-0.466,1.764,1.032,4.176,4.493,7.238c3.607,3.21,8.132,5.49,13.557,6.857
	c-1.554,7.764-0.552,14.354,3.018,19.766c-3.943,3.417-5.94,6.989-5.94,10.721c0,2.363,0.715,4.227,2.146,5.592
	c1.365,1.298,3.195,1.947,5.492,1.947c2.563,0,5.142-0.865,7.738-2.596c2.159-1.449,3.841-3.168,5.054-5.149
	c3.394,1.032,7.165,1.554,11.321,1.554c3.425,0,6.567-0.377,9.438-1.119c0.775,1.729,2.297,3.499,4.592,5.313
	c2.962,2.396,5.691,3.595,8.188,3.595c2.662,0,4.742-0.832,6.24-2.496c1.265-1.398,1.897-3.129,1.897-5.192
	c0-1.964-0.666-4.027-1.997-6.19c-1.156-1.935-2.63-3.539-4.393-4.845c3.563-5.165,4.387-11.25,2.484-18.252
	c7.007-1.534,12.536-4.173,16.536-7.957c1.831-1.765,3.146-3.578,3.944-5.442c0.699-1.631,0.865-2.928,0.499-3.894
	c-0.047-0.124-0.12-0.235-0.18-0.354c1.899-0.234,3.87-0.833,5.921-1.843c2.03-1.032,3.345-1.98,3.943-2.846
	c0.799-1.099,1.082-4.594,0.85-10.484c-0.314-7.073-1.667-14.057-4.029-20.952c0.922-0.021,1.857-0.043,2.831-0.067
	c0.267,0,0.466-0.1,0.599-0.3c0.2-0.133,0.267-0.349,0.2-0.649c-1.531-9.252-6.573-17.923-15.128-26.011
	c-3.723-3.515-7.352-6.291-10.89-8.342c11.122,0.423,20.263-1.719,27.415-6.436c2.729-1.797,4.843-3.777,6.341-5.941
	C122.824,25.078,123.307,23.747,123.008,22.915z"/>
</svg>
