<?xml version="1.0" encoding="utf-8"?>
<!-- Generator: Adobe Illustrator 16.0.0, SVG Export Plug-In . SVG Version: 6.00 Build 0)  -->
<!DOCTYPE svg PUBLIC "-//W3C//DTD SVG 1.1//EN" "http://www.w3.org/Graphics/SVG/1.1/DTD/svg11.dtd">
<svg version="1.1" id="图层_1" xmlns="http://www.w3.org/2000/svg" xmlns:xlink="http://www.w3.org/1999/xlink" x="0px" y="0px"
	 width="201px" height="212px" viewBox="0 0 201 212" enable-background="new 0 0 201 212" xml:space="preserve">
<path d="M197.652,116.522c-1.301-4.665-4.166-7.715-8.599-9.147c-3.699-1.2-7.349-0.566-10.947,1.899
	c-3.466,2.366-5.981,5.815-7.548,10.347c-0.153,0.448-0.279,0.896-0.414,1.343c-1.736-1.694-3.615-2.426-5.635-2.192
	c-1.723,0.206-3.215,0.983-4.481,2.32c1.964-12.075-0.405-24.096-7.116-36.062c-0.726-1.298-1.493-2.558-2.285-3.794
	c4.87-5.979,8.384-9.186,10.533-9.603c4.898-0.966,7.682-4.416,8.348-10.347c0.5-4.399-0.116-9.365-1.85-14.896
	c-2.865-9.031-6.748-17.33-11.646-24.894c-5.032-7.798-10.447-13.764-16.246-17.896c-3.033-2.166-6.132-3.349-9.298-3.549
	c-2.119-0.129-4.329,0.178-6.627,0.91c-0.042-0.019-0.08-0.043-0.122-0.06c-1.533-0.6-3.049-0.3-4.549,0.899
	c-1.017,0.805-1.599,1.732-1.754,2.779c-1.526,1.417-2.782,3.149-3.744,5.22c-2.033,4.232-2.199,8.765-0.5,13.597
	c1.966,5.632,7.698,13.98,17.195,25.044c9.031,10.498,15.597,16.896,19.695,19.195c0.4,0.2,0.334,0.617-0.199,1.25
	c-0.541,0.7-2.25,2.199-5.101,4.479c-3.682-4.292-7.852-8.13-12.546-11.478c-8.219-5.833-17.082-9.585-26.587-11.266
	c-3.55-6.6-11.013-20.251-22.401-40.972c-1.333-2.366-3.016-3.282-5.049-2.749l-8.098,2.399c-4.966,1.6-8.315,2.933-10.048,3.999
	c-0.9,0.533-1.516,1.35-1.85,2.449c-0.433,1.633-0.183,3.482,0.75,5.549l6.848,14.447c4.532,9.531,7.582,15.796,9.148,18.795
	c0.5,0.866,0.4,1.516-0.3,1.95l-2.35,1.5c-0.8,0.566-1.583,1.3-2.349,2.199c-0.004,0.004-0.005,0.009-0.009,0.013l-4.94-8.011
	L52.036,31.143c-1.033-1.966-2.216-2.899-3.549-2.799c-2.299,0.167-6.065,1.033-11.297,2.599c-5.665,1.7-9.064,3.133-10.197,4.299
	c-0.633,0.6-1.066,1.417-1.3,2.449c-0.267,1.1-0.25,2.283,0.05,3.549c0.198,0.759,8.977,15.198,26.325,43.3
	c-2.201,6.604-3.167,13.515-2.88,20.735c0.333,8.698,2.449,17.262,6.348,25.694c0.758,1.649,1.568,3.229,2.414,4.764
	c-1.725,0.049-3.133-0.68-4.213-2.214c-0.9-1.333-3.699-6.698-8.398-16.097c-4.966-9.964-8.465-17.346-10.498-22.145
	c-0.928-2.196-2.301-4.019-4.089-5.494c-0.397-1.273-1.74-2.162-4.06-2.654c-0.281-0.059-0.542-0.09-0.801-0.118
	c-3.915-1.514-7.763-1.71-11.545-0.582c-2.162,0.631-4.115,1.711-5.874,3.209c-0.021,0.018-0.044,0.033-0.065,0.052
	c-1.928,1.659-3.618,3.83-5.059,6.537c-2.933,5.465-3.799,11.332-2.6,17.596c2.133,11.063,8.481,21.095,19.046,30.093
	c9.331,7.965,18.029,12.313,26.094,13.047c4.632,0.434,8.464-0.333,11.497-2.299c2.533-1.667,4.066-3.8,4.599-6.398
	c0.264-1.322,0.893-2.531,1.877-3.63c6.329,7.943,14.312,13.744,23.966,17.376c7.568,2.857,15.144,4.017,22.73,3.514
	c-0.096,0.064-0.189,0.117-0.285,0.186c-3.267,2.332-4.849,5.232-4.749,8.697c0.072,2.159,0.699,4.103,1.866,5.838
	c-0.072,0.071-0.14,0.124-0.216,0.211c-1.533,1.7-3.066,4.283-4.6,7.748c-1.966,4.633-2.466,8.948-1.5,12.947
	c0.967,3.933,3.133,6.599,6.499,7.998c4.231,1.767,8.415,1.617,12.547-0.449c4.165-2.1,7.114-5.566,8.848-10.398
	c2.133-5.998,2.55-11.43,1.25-16.296c-1.233-4.599-3.583-7.415-7.048-8.448l-4.1-0.149c-0.929,0.144-1.671,0.357-2.242,0.636
	c-0.103-0.446-0.149-0.934-0.107-1.486c0.263-3.019,3.23-6.427,8.891-10.222c1.734-0.622,3.47-1.327,5.206-2.125
	c6.398-2.966,11.964-7.114,16.696-12.446c3.235-3.671,5.87-7.682,7.937-12.015c2.143-3.284,4.529-4.932,7.159-4.932
	c2.957,0,5.15,1.757,6.584,5.264c0.07,0.395,0.129,0.79,0.215,1.185c1.233,5.732,3.566,9.182,6.998,10.348
	c3.5,1.166,7.182,0.283,11.048-2.649c4.132-3.166,7.215-7.815,9.248-13.946C198.535,125.62,198.852,120.788,197.652,116.522z
	 M74.431,20.995c1.333,0.966,2.399,2.299,3.199,3.999c0.596,1.245,0.959,2.524,1.115,3.836c-0.023-0.012-0.038-0.026-0.065-0.037
	c-1.366-0.5-2.583-1.633-3.649-3.399c-1.003-1.69-1.25-3.183-0.749-4.479L74.431,20.995z M46.538,51.038
	c-1.367-0.467-2.566-1.583-3.599-3.35c-1.003-1.719-1.249-3.227-0.75-4.527c1.424,1.052,2.545,2.405,3.349,4.077
	c0.601,1.256,0.954,2.548,1.084,3.872L46.538,51.038z"/>
</svg>
