<?xml version="1.0" encoding="utf-8"?>
<!-- Generator: Adobe Illustrator 16.0.0, SVG Export Plug-In . SVG Version: 6.00 Build 0)  -->
<!DOCTYPE svg PUBLIC "-//W3C//DTD SVG 1.1//EN" "http://www.w3.org/Graphics/SVG/1.1/DTD/svg11.dtd">
<svg version="1.1" id="图层_1" xmlns="http://www.w3.org/2000/svg" xmlns:xlink="http://www.w3.org/1999/xlink" x="0px" y="0px"
	 width="243px" height="312px" viewBox="0 0 243 312" enable-background="new 0 0 243 312" xml:space="preserve">
<path d="M222.884,242.943c-2.099-6.131-5.348-11.576-9.743-16.34c-11.826-12.859-30.181-19.238-55.064-19.139
	c-1.031,0.003-2.082,0.024-3.133,0.046c1.696-5.635,4.069-10.798,7.13-15.483c5.563-8.528,12.759-14.357,21.586-17.489
	c15.323-5.431,28.198-13.308,38.626-23.635c12.992-12.858,19.387-27.349,19.188-43.472c-0.134-9.994-2.932-19.771-8.395-29.332
	c-5.497-9.56-13.209-18.054-23.137-25.483c-10.326-7.762-22.285-13.774-35.877-18.04c-1.896-0.591-3.811-1.14-5.741-1.653
	c-3.14-1.636-6.388-3.907-9.747-6.84L146.383,14.59c-4.963-4.563-9.594-7.928-13.891-10.093C126.729,1.565,120.467,0.066,113.704,0
	C102.578-0.133,93.4,3.248,86.171,10.144c-6.745,6.437-11.022,15.463-12.853,27.054c-7.675,2.87-14.735,6.342-21.175,10.42
	C28.658,62.476,16.916,82.53,16.916,107.78c0,9.894,4.53,19.904,13.591,30.031c8.794,9.793,22.485,20.371,41.073,31.729
	c7.796,4.764,13.226,10.312,16.29,16.64c2.332,4.896,3.115,9.743,2.349,14.54c-0.742,4.597-2.248,10.476-4.507,17.616
	c-2.223,0.57-4.463,1.156-6.735,1.771l-29.381,8.345c-8.627,2.432-14.107,3.515-16.439,3.248c-4.897-0.533-7.046-3.597-6.446-9.193
	c0.6-5.764,3.965-12.577,10.094-20.438c8.094-10.459,13.074-19.453,14.94-26.981c1.565-6.297,0.832-9.728-2.199-10.293
	c-1.998-0.367-4.347,1.517-7.045,5.646l-9.143,14.238c-2.665,3.664-6.713,8.129-12.143,13.391
	c-6.129,5.964-10.144,10.095-12.042,12.394c-3.998,4.763-6.646,9.511-7.945,14.241c-1.599,5.697-1.516,12.009,0.25,18.938
	c3.065,11.894,10.793,20.371,23.185,25.435c12.459,5.063,29.748,6.763,51.867,5.097c0.602-0.044,1.312-0.121,2.083-0.218
	c1.449,3.938,3.472,7.746,6.111,11.412c5.763,7.993,14.074,14.323,24.934,18.987c11.192,4.797,23.817,7.229,37.876,7.295
	c23.751,0.101,42.672-4.498,56.763-13.791c14.567-9.647,21.526-22.973,20.903-39.965c0.012-0.386,0.027-0.766,0.033-1.158
	C225.298,252.337,224.516,247.74,222.884,242.943z"/>
</svg>
