<?xml version="1.0" encoding="utf-8"?>
<!-- Generator: Adobe Illustrator 16.0.0, SVG Export Plug-In . SVG Version: 6.00 Build 0)  -->
<!DOCTYPE svg PUBLIC "-//W3C//DTD SVG 1.1//EN" "http://www.w3.org/Graphics/SVG/1.1/DTD/svg11.dtd">
<svg version="1.1" id="图层_1" xmlns="http://www.w3.org/2000/svg" xmlns:xlink="http://www.w3.org/1999/xlink" x="0px" y="0px"
	 width="387px" height="341px" viewBox="0 0 387 341" enable-background="new 0 0 387 341" xml:space="preserve">
<path d="M368.415,166.927c-11.124-7.094-25.228-12.755-42.313-16.985c-1.87-7.687-4.457-15.24-7.708-22.668
	c5.214-6.718,9.004-14.395,11.355-23.04c1.498-5.429,2.031-10.241,1.598-14.437c-0.399-4.263-1.715-7.177-3.946-8.742
	c-2.364-1.632-5.229-1.732-8.592-0.3c-2.432,1.066-5.812,3.347-10.141,6.844l-9.308,7.477c-5.138-6.754-10.914-13.276-17.313-19.572
	c1.773-2.997,2.707-6.324,2.791-9.985c0.133-5.396-1.564-10.657-5.096-15.786c-3.447-4.994-8.013-8.903-13.674-11.747
	c-0.092-7.362-2.894-14.254-8.406-20.674c-6.327-7.36-15.103-12.589-26.326-15.686c-8.191-2.265-16.468-2.231-24.826,0.1
	c-7.941,2.225-13.964,6.061-18.121,11.467c-5.897-3.12-11.364-3.315-16.398-0.577c-4.833,2.593-7.51,6.976-8.041,13.141
	c-8.391,0.543-16.436,2.037-24.13,4.493c-6.894,2.215-13.415,5.119-19.575,8.691c-2.748-2.537-5.797-4.751-9.149-6.643
	c-7.26-4.096-15.053-6.145-23.379-6.145c-13.354,0-25.21,4.529-35.568,13.588C40.095,50.299,34.067,64.369,34.067,81.954
	c0,3.467,0.339,6.805,1.001,10.018c-3.264,1.725-6.132,4.159-8.595,7.316c-4.563,5.828-6.844,12.439-6.844,19.833
	c0,8.392,2.748,15.669,8.243,21.83c5.562,6.228,12.272,9.341,20.132,9.341c3.266,0,6.288-0.569,9.072-1.693
	c-0.544,3.983-1,8.005-1.329,12.084c-0.307,3.773-0.496,7.458-0.603,11.082c-7.144-2.237-14.419-3.818-21.827-4.737
	c-8.292-1.032-15.336-1.049-21.131-0.05c-6.161,1.066-9.958,3.13-11.39,6.194c-2.165,4.696-0.399,9.858,5.295,15.486
	c6.094,6.062,14.836,10.557,26.226,13.487c-8.559,2.132-15.336,5.362-20.332,9.691c-4.696,4.096-6.727,8.143-6.094,12.139
	c1.065,6.527,7.177,10.408,18.333,11.64c8.159,0.866,16.452,0.399,24.877-1.398c-5.928,3.364-10.557,7.826-13.888,13.388
	c-3.43,5.695-3.913,10.058-1.449,13.088c1.271,1.573,3.299,2.445,6.061,2.638c-0.631,1.726-0.664,3.313-0.066,4.756
	c2.797,6.728,12.389,7.827,28.774,3.298c4.433-1.218,8.881-2.751,13.345-4.586c1.413,2.021,2.869,4.006,4.389,5.934
	c0.871,1.102,1.761,2.181,2.662,3.245c-0.976,2.22-1.852,4.435-2.612,6.646c-1.898,5.595-2.748,10.29-2.548,14.087
	c0.233,3.83,1.482,6.244,3.747,7.244c4.809,2.093,11.882-0.992,21.218-9.244c7.547,5.682,15.789,10.519,24.741,14.488
	c2.194,0.972,4.413,1.882,6.653,2.735c-3.232,3.029-5.808,5.916-7.702,8.655c-3.863,5.562-4.663,10.008-2.398,13.338
	c2.364,3.496,9.258,4.162,20.681,1.998c11.91-2.249,25.073-7.181,39.478-14.779c18.417,0.215,36.081-2.63,52.988-8.55
	c1.895-0.661,3.755-1.367,5.598-2.097c0.17,0.068,0.351,0.135,0.547,0.199c12.322,4.162,24.328,6.494,36.018,6.993
	c12.422,0.499,19.232-1.448,20.432-5.845c1.099-4.029-0.982-8.376-6.244-13.039c-3.828-3.406-8.933-6.442-15.294-9.114
	c7.637-6.305,14.59-13.516,20.839-21.657c15.676-20.457,24.52-43.559,26.57-69.289c5.246,2.745,10.179,4.666,14.792,5.746
	c8.093,1.932,13.388,1.116,15.886-2.447c1.998-2.831,0.949-6.794-3.147-11.889c-0.385-0.483-0.794-0.955-1.206-1.427
	c3.157,1.125,7.176,1.643,12.097,1.526c7.426-0.2,11.589-2.016,12.488-5.445C383.884,179.715,379.172,173.754,368.415,166.927z"/>
</svg>
