<?xml version="1.0" encoding="utf-8"?>
<!-- Generator: Adobe Illustrator 16.0.0, SVG Export Plug-In . SVG Version: 6.00 Build 0)  -->
<!DOCTYPE svg PUBLIC "-//W3C//DTD SVG 1.1//EN" "http://www.w3.org/Graphics/SVG/1.1/DTD/svg11.dtd">
<svg version="1.1" id="图层_1" xmlns="http://www.w3.org/2000/svg" xmlns:xlink="http://www.w3.org/1999/xlink" x="0px" y="0px"
	 width="417px" height="399px" viewBox="0 0 417 399" enable-background="new 0 0 417 399" xml:space="preserve">
<path d="M411.903,119.208l-9.643-3.298l6.345-15.289l6.396-15.938c1.199-3.231,1.549-5.063,1.05-5.496
	c-0.467-0.433-1.532,0.466-3.198,2.698l-8.244,11.542l-8.693,12.441l-1.349-6.295l-1.35-5.696c-0.499-2.032-0.999-2.915-1.499-2.648
	c-0.499,0.233-1.049,1.565-1.648,3.997l-2.748,11.442c-6.528-8.827-15.14-17.921-25.831-27.281
	c-12.592-10.992-25.049-19.469-37.374-25.432c-1.865-0.899-3.064-1.149-3.597-0.75c-0.566,0.4-0.684,1.666-0.35,3.797
	c3.464,23.25,5.063,44.918,4.796,65.003c-0.232,18.886-2.182,38.688-5.846,59.407c-7.276-10.777-11.761-17.537-13.466-20.295
	c0.435-3.017,0.583-6.321,0.426-9.934c-0.366-8.053-1.807-14.296-4.296-18.773c5.568-3.992,9.454-9.72,11.641-17.201
	c2.331-7.927,1.765-15.122-1.699-21.584c-1.438-2.69-3.225-4.929-5.352-6.731c3.508-5.009,5.533-10.424,6.051-16.252
	c0.5-5.563-0.399-10.875-2.697-15.938c-2.266-4.963-5.546-8.927-9.843-11.892c-4.381-3.027-9.248-4.577-14.593-4.677
	c1.368-2.695,1.806-5.98,1.302-9.862c-0.533-4.464-2.182-8.744-4.946-12.841c-6.763-10.126-16.738-15.189-29.929-15.189
	c-6.695,0-12.391,1.965-17.088,5.896c-4.164,3.531-7.078,8.177-8.744,13.94c-0.144,0.49-0.262,0.979-0.383,1.468
	c-3.859-3.744-8.392-6.055-13.606-6.915c-6.729-1.166-12.857,0.533-18.387,5.097c-5.066,4.182-7.757,9.538-8.083,16.063
	c-5.453-1.182-9.753-0.075-12.901,3.323c-2.955,3.196-4.269,7.756-3.976,13.654c-0.462-0.654-0.89-1.278-1.271-1.862
	c-1.898-2.898-3.347-5.729-4.347-8.494c1.599-1.965,2.615-4.064,3.048-6.295c0.4-2.199,0.2-4.347-0.6-6.445
	c-1.999-5.196-5.746-8.361-11.242-9.493c-5.425-1.104-9.945,0.692-13.565,5.37c-0.417-0.616-0.853-1.226-1.324-1.823
	c-5.329-6.695-11.558-8.794-18.687-6.295c-3.93,1.366-6.912,3.547-8.943,6.545c-1.766,2.632-2.615,5.563-2.548,8.794
	c0.033,3.031,0.85,5.679,2.448,7.944c1.383,1.975,3.067,3.225,5.048,3.766c-0.052,0.044-0.098,0.086-0.151,0.131
	c-1.57,1.329-3.846,2.934-6.812,4.811c-2.04-1.334-4.389-2.8-7.078-4.411c-6.129-3.664-10.825-6.229-14.09-7.695
	c-0.933-0.399-1.565-0.516-1.898-0.35c-0.433,0.233-0.583,0.916-0.45,2.049c0.647,5.262,2.372,12.486,5.172,21.666
	c-6.527,4.216-11.726,8.089-15.565,11.61c-5.563,5.096-9.343,10.259-11.342,15.489c-2.964,7.728-4.063,15.189-3.297,22.384
	c0.699,6.829,3.047,12.908,7.045,18.237c3.93,5.263,9.11,9.31,15.539,12.141c2.375,1.045,4.854,1.879,7.427,2.522
	c-7.191,10.491-11.734,20.11-13.622,28.855c-1.499,6.762-1.932,16.854-1.299,30.278c0.4,8.728-0.982,17.288-4.147,25.681
	c-1.732,4.564-4.613,10.227-8.644,16.988c-1.799,3.031-2.981,5.279-3.548,6.745c-0.732,1.899-1.116,4.048-1.149,6.445L58.558,269
	c-0.466,5.729-1.882,11.908-4.247,18.537c-3.497,9.727-8.077,17.521-13.74,23.383c-2.832,2.932-6.845,5.963-12.042,9.094
	c-0.899,0.533-1.932,1.315-3.098,2.348c-0.53,0.455-0.959,0.847-1.31,1.191c-3.189,0.445-6.235,1.624-9.132,3.556
	c-4.197,2.798-7.811,6.778-10.842,11.941c-2.898,4.896-4.264,9.026-4.097,12.392c0.033,0.898,0.883,1.549,2.548,1.947l1.117,0.164
	c0.551,1.057,2.068,1.854,4.579,2.385l8.584,0.332c0.208,0.642,0.523,1.104,0.958,1.367c1.699,1.166,6.812,1.932,15.339,2.298
	c7.928,0.366,14.023,0.267,18.287-0.3c0.5-0.056,0.982-0.225,1.452-0.486c3.668,0.467,8.255-0.029,13.787-1.512
	c6.129-1.633,9.827-3.564,11.092-5.797c0.633-1.199,0.916-3.963,0.849-8.293v-10.543c0.2-4.663,0.899-8.76,2.099-12.291
	c2.931-8.693,6.712-16.255,11.342-22.684c3.131-4.396,6.912-8.544,11.342-12.441l5.546-5.296c1.099-1.433,1.615-3.098,1.549-4.997
	c-0.2-6.062,2.781-14.839,8.943-26.33c6.4-11.888,13.145-20.172,20.232-24.865c2.345,1.128,4.795,2.2,7.353,3.218
	c0.431,1.911,0.924,3.892,1.495,5.958c2.265,8.262,2.099,17.737-0.5,28.43c-0.633,2.731-1.649,6.229-3.048,10.492
	c-1.066,3.265-1.599,5.246-1.599,5.946c0,2.798,0.4,8.161,1.199,16.089c0.5,7.928,0.05,14.938-1.349,21.034
	c-3.131,13.99-7.544,24.55-13.24,31.677l-6.945,7.245c-2.298,2.636-3.414,4.923-3.378,6.874c-2.257,1.346-4.415,3.125-6.465,5.367
	c-6.862,7.528-9.81,16.705-8.843,27.53c0.1,1.133,1.132,1.866,3.098,2.198c0.829,0.135,1.545,0.188,2.173,0.179
	c0.756,1.587,3.377,2.328,7.87,2.22c4.512-0.14,8.319-0.937,11.439-2.374c2.269,0.679,6.911,0.439,13.942-0.724
	c8.494-1.398,14.79-3.215,18.887-5.446c0.414-0.217,0.751-0.525,1.028-0.905c2.156-0.84,4.759-2.833,7.815-5.99
	c3.997-4.063,5.929-7.061,5.796-8.992c-1.099-19.687,0.616-36.408,5.146-50.164c0.364-1.123,0.757-2.232,1.171-3.334
	c0.071,0.087,0.146,0.167,0.228,0.236c0.364,0.295,0.793,0.413,1.284,0.365c-0.035,0.56,0.053,0.971,0.265,1.232
	c1.154,1.443,5.249,1.726,12.266,0.854c0.028,0.031,0.044,0.064,0.075,0.096c1.465,1.633,6.412,2.216,14.839,1.75
	c6.678-0.386,10.939-1.408,12.805-3.061c2.651-0.189,6.087-1.359,10.329-3.535c5.63-2.898,8.161-5.779,7.595-8.645
	c-1.466-7.061-1.549-15.639-0.25-25.73c0.766-6.029,2.215-13.523,4.347-22.484c1.898-7.928,2.548-13.157,1.948-15.688
	c-0.399-1.766-2.515-4.729-6.346-8.894c-2.631-2.865-4.33-4.98-5.096-6.346c-1.373-2.387-2.328-5.544-2.872-9.455
	c0.277-0.387,0.487-1.208,0.624-2.486l0.196-3.193l1.949-0.236l2.801,8.026c0.733,1.933,1.349,3.048,1.849,3.348
	c0.566,0.366,0.949-0.366,1.148-2.198c0.143-1.219,0.243-2.769,0.303-4.627c3.952,13.981,7.068,22.596,9.341,25.812
	c2.599,3.697,10.144,10.043,22.634,19.036c12.125,8.728,18.537,13.757,19.236,15.09c4.264,6.229,7.045,10.509,8.344,12.84
	c4.363,8.095,6.229,14.957,5.596,20.586c-0.1,0.766-1.365,3.348-3.797,7.744l-3.939,7.128c-1.756,1.548-3.212,3.563-4.354,6.063
	c-1.499,3.331-2.165,6.762-1.999,10.293c0.2,3.697,1.333,6.646,3.398,8.843c0.779,0.803,1.647,1.12,2.602,0.976
	c-0.016,0.31-0.043,0.612-0.054,0.924c-0.101,2.298,2.382,2.948,7.444,1.948c3.548-0.721,7.029-1.893,10.452-3.464
	c-0.001,0.054-0.011,0.114-0.01,0.167c0,1.632,0.633,2.564,1.898,2.797c4.497,0.6,9.927-0.716,16.289-3.947
	c5.462-2.83,9.376-5.712,11.741-8.643c0.273-0.337,0.462-0.731,0.563-1.185c9.243-5.318,12.581-10.303,9.979-14.954
	c-6.895-12.391-12.507-25.432-16.838-39.122c-2.498-7.928-4.813-17.088-6.944-27.48l-0.949-5.745
	c-0.267-1.732-0.55-2.865-0.85-3.398c-0.233-0.466-0.8-0.932-1.699-1.398l-2.697-1.299c-9.427-4.963-15.973-12.508-19.637-22.635
	c-2.664-7.361-4.446-18.969-5.346-34.824c-0.407-7.329-0.862-13.522-1.365-18.598l18.652,30.339
	c1.267,1.966,2.216,2.915,2.849,2.849c0.566-0.066,1.249-1.149,2.048-3.248c5.896-15.589,9.644-38.056,11.242-67.401
	c1.532-29.079,0.233-50.464-3.897-64.154c6.163,3.398,14.973,9.943,26.432,19.636c11.558,9.793,19.553,17.521,23.982,23.183
	l-5.296-0.699l-5.496-0.3c-2.132,0.066-3.281,0.316-3.447,0.749c-0.2,0.4,0.532,1.083,2.198,2.049l10.992,6.096l-7.845,17.537
	c-1.065,2.432-1.365,3.847-0.899,4.247c0.467,0.366,1.683-0.333,3.647-2.099l11.342-10.692c0.366,2.632,1.332,7.012,2.897,13.141
	c0.4,1.865,0.85,2.631,1.35,2.298c0.466-0.3,0.949-1.582,1.449-3.847l3.747-16.988c1.766-0.5,6.729-1.682,14.889-3.547
	c1.999-0.5,2.865-1.033,2.599-1.599C415.234,120.59,414.035,119.974,411.903,119.208z M208.95,282.041
	c-2.38,5.513-6.373,9.249-11.934,11.256c-1.854-9.288-1.519-19.53,1.042-30.742c0.907-3.958,2.497-9.279,4.758-15.946
	c4.23,3.724,6.854,8.597,7.833,14.647C211.98,269.449,211.414,276.378,208.95,282.041z M136.188,116.226c0,0.001,0,0.001,0,0.002
	c-0.5-0.292-1-0.582-1.493-0.869c-0.066-0.041-0.132-0.081-0.198-0.122L136.188,116.226z"/>
</svg>
