<?xml version="1.0" encoding="utf-8"?>
<!-- Generator: Adobe Illustrator 16.0.0, SVG Export Plug-In . SVG Version: 6.00 Build 0)  -->
<!DOCTYPE svg PUBLIC "-//W3C//DTD SVG 1.1//EN" "http://www.w3.org/Graphics/SVG/1.1/DTD/svg11.dtd">
<svg version="1.1" id="图层_1" xmlns="http://www.w3.org/2000/svg" xmlns:xlink="http://www.w3.org/1999/xlink" x="0px" y="0px"
	 width="368px" height="437px" viewBox="0 0 368 437" enable-background="new 0 0 368 437" xml:space="preserve">
<path d="M366.788,105.259c-0.667-1.134-1.385-1.618-2.152-1.452c-24.821,8.63-40.669,14.283-47.562,16.966
	c21.041-29.095,31.697-44.002,31.946-44.694c0.366-0.834,0.083-1.751-0.852-2.752c-1.001-1.068-2.085-1.285-3.253-0.651
	c-1.702,0.901-8.626,5.188-20.771,12.863c-6.708,4.223-11.953,7.573-15.765,10.067c0.034-0.316,0.067-0.65,0.099-1.008
	c0.314-3.806,0.209-8.664-0.308-14.546c4.603-3.751,8.211-6.896,10.818-9.429c1.468-1.435,2.219-2.419,2.252-2.953
	c0.033-0.5-0.601-0.884-1.901-1.151l-12.613-2.403l-2.719-0.252c-1.185-2.868-2.496-5.306-3.938-7.305l10.46-0.4
	c1.702-0.233,2.586-0.601,2.653-1.101c0.033-0.467-0.651-1.018-2.053-1.652c-2.136-0.867-4.505-2.202-7.107-4.004
	c-2.7-1.887-4.526-3.597-5.483-5.131c0.919-2.708,1.929-5.635,3.031-8.784c0.634-1.802,0.834-2.936,0.601-3.403
	c-0.233-0.534-1.001-0.451-2.303,0.25c-3.438,1.833-6.107,3.394-8.02,4.687c0.038-0.733,0.068-1.464,0.062-2.184
	c-0.033-3.003-0.333-4.572-0.901-4.705c-0.199-0.033-0.967,0.551-2.302,1.752c-0.426,0.38-0.874,0.803-1.317,1.217
	c-1.396-1.747-3.24-3.23-5.59-4.42l3.104-0.3l1.951-0.2c0.301-0.601-0.684-1.819-2.953-3.654c-2.335-1.869-4.504-3.07-6.506-3.604
	c-3.904-0.801-7.341-0.584-10.311,0.651c1.201-1.936,1.518-4.855,0.951-8.759c-0.568-3.67-1.219-5.472-1.953-5.405
	c-0.166,0-0.583,0.951-1.25,2.853c-0.868,2.303-1.602,3.971-2.203,5.005c-1.334,2.436-2.836,4.354-4.504,5.756
	c0.133-1.535,0.1-3.303-0.101-5.305c-0.3-2.436-0.834-4.738-1.602-6.907c-0.801-2.302-2.319-4.455-4.555-6.457
	c-1.936-1.802-3.153-2.569-3.653-2.303l0.5,5.456c0.155,3.818-0.304,6.963-1.361,9.453c-1.778-3.848-2.944-5.82-3.494-5.899
	c-0.67-0.056-2.158,2.663-4.461,8.134c-4.098-5.942-12.646-7.529-25.67-4.73l2.503,1.852l4.404,3.303
	c2.87,2.335,5.072,4.455,6.606,6.356c-10.331-0.032-17.438,2.629-21.344,7.968c-1.037-1.517-2.019-3.038-2.931-4.564
	c-1.735-2.87-2.953-2.803-3.653,0.2c-0.448,1.886-0.556,4.811-0.328,8.75l-7.631-3.794c-1.668-0.801-2.686-1.018-3.053-0.651
	c-0.301,0.3-0.25,1.351,0.15,3.153c0.575,2.57,1.292,5.354,2.146,8.341c-1.638,1.723-4.119,3.38-7.451,4.973
	c-3.604,1.702-6.757,2.653-9.46,2.853c-1.201,0.1-1.785,0.384-1.752,0.851c0.034,0.467,0.701,0.967,2.002,1.501
	c1.602,0.701,3.854,1.285,6.757,1.752l4.962,0.437c-1.446,0.802-2.966,1.391-4.562,1.765l-8.158,1.401
	c-5.673,1.068-10.594,2.669-14.766,4.805c-5.205,2.636-8.742,5.906-10.611,9.811c-2.81,5.895-3.432,11.172-1.881,15.836
	c-0.492-0.044-1.049,0.046-1.673,0.28c-1.535,0.567-2.302,1.435-2.302,2.603l0.625,20.531c-2.646,1.096-4.496,1.995-5.529,2.693
	c-1.538,1.047-2.68,2.316-3.443,3.795l-29.441-28.771L78.341,65.167c-0.968-0.868-2.135-0.784-3.503,0.25
	c-1.335,1.067-1.802,2.102-1.401,3.103c2.169,5.305,8.392,16.901,18.669,34.786l19.074,32.487
	c-5.922-2.807-13.049-6.106-21.426-9.914c-20.821-9.443-33.518-14.849-38.089-16.216c-1.068-0.334-2.036,0.3-2.903,1.902
	c-0.239,0.45-0.421,0.85-0.559,1.212c-0.072,0.019-0.092,0.07-0.056,0.154c-0.288,0.818-0.304,1.401-0.035,1.737
	c4.038,5.139,14.231,14.732,30.582,28.78c8.792,7.556,16.501,13.973,23.134,19.259c-5.564,0.854-10.433,2.029-14.608,3.527
	l-14.231-1.314c-0.801-0.1-1.301,0.434-1.501,1.602c-0.233,1.168-0.067,1.985,0.5,2.453c0.859,0.742,2.329,1.7,4.373,2.862
	c-5.27,4.002-7.8,9.152-7.576,15.457c0.228,6.61,3.516,12.313,9.846,17.112c-6.011,3.672-9.61,7.928-10.797,12.769
	c-1.235,4.973,0,11.062,3.704,18.27c1.068,2.035,1.001,3.77-0.2,5.205c-1.001,1.201-2.502,1.936-4.504,2.202
	s-3.57-0.033-4.705-0.901c-1.268-0.967-1.451-2.385-0.55-4.254c3.37-7.008,4.455-12.63,3.253-16.867
	c-1.302-4.538-5.139-7.074-11.512-7.608c-5.439-0.434-9.343,0.083-11.712,1.552c-1.635,1.035-2.753,2.803-3.354,5.306
	c-0.3,1.234-0.634,2.002-1.001,2.302c-0.567,0.434-1.652,0.534-3.253,0.301c-1.101-0.167-1.702-0.384-1.802-0.65
	c-0.1-0.334,0.167-1.135,0.801-2.402c1.101-2.203,1.568-3.921,1.401-5.156c-0.2-1.668-1.485-2.87-3.854-3.604
	c-2.436-0.734-4.955-0.717-7.558,0.05c-1.101,0.334-3.07,1.201-5.906,2.603c-5.239,2.536-10.043,2.452-14.415-0.25
	c-1.401-0.868-2.219-1.201-2.453-1.001c-0.2,0.2-0.133,1.251,0.2,3.153c0.434,2.402,0.968,3.988,1.602,4.755
	c1.235,1.468,3.637,2.252,7.208,2.352l6.156,0.701c2.669,0.533,4.405,1.268,5.206,2.202c0.467,0.534,0.617,1.435,0.45,2.702
	l-0.45,3.654c-0.167,3.203,1.718,5.205,5.656,6.006l9.41-0.25c2.703-0.867,4.872-2.419,6.507-4.654
	c2.369,1.501,3.403,3.036,3.103,4.604c-0.233,1.201-1.552,3.17-3.954,5.905c-2.569,2.938-4.238,5.373-5.005,7.309
	c-0.634,1.568-0.767,3.137-0.4,4.705c1.535,6.172,6.257,10.51,14.165,13.013c5.539,1.769,11.445,2.253,17.718,1.452
	c6.14-0.768,11.012-2.537,14.615-5.307c3.537,4.305,7.841,6.824,12.914,7.559c4.262,0.622,8.063-0.13,11.406-2.239
	c-0.644,5.715-1.458,10.925-2.453,15.597c-5.484,1.017-10.357,3.381-14.609,7.113c-4.504,3.938-7.524,8.742-9.059,14.415
	c-1.205,4.435-1.35,8.843-0.466,13.225c-1.624,2.557-3.803,9.152-6.542,19.81l-4.555,18.869c-0.934,2.637-2.986,5.772-6.156,9.41
	c-2.336,2.669-4.388,4.705-6.156,6.105c-1.168,0.935-1.802,1.669-1.902,2.203c-0.134,0.667,0.55,0.984,2.052,0.951l4.104,0.049
	l2.858-0.033c-0.818,1.227-1.881,2.732-3.208,4.539l-4.905,6.856c-0.634,0.968-0.584,1.501,0.15,1.602l3.354-0.65l7.479-2.598
	c-1.35,6.146-1.286,11.406,0.229,15.761c1.602,4.505,4.555,7.541,8.859,9.109c5.339,1.969,9.894,1.552,13.664-1.251
	c0.064-0.048,0.115-0.106,0.177-0.155c1.271,0.912,3.076,1.616,5.429,2.107l8.709,0.3c2.633-0.416,4.694-1.41,6.193-2.974
	c1.065,0.721,2.614,1.313,4.668,1.772c2.148,0.459,3.924,0.572,5.33,0.34c-0.206,1.565-0.286,3.185-0.225,4.866
	c0.2,5.539,2.853,9.793,7.958,12.763c4.838,2.791,9.864,3.2,15.077,1.235c3.664,2.951,8.835,4.486,15.554,4.57
	c3.437,0.067,6.273-0.417,8.509-1.451c1.514-0.685,2.583-1.544,3.207-2.576c0.453,0.448,0.943,0.877,1.498,1.274
	c2.403,1.735,5.422,2.771,9.06,3.104c3.503,0.334,6.773-0.05,9.81-1.151c3.237-1.168,5.473-2.902,6.707-5.205
	c3.16-5.936,3.197-13.739,0.13-23.399c1.625,0.58,3.503,1.029,5.677,1.327c1.835,0.233,2.819-0.034,2.953-0.801
	c0.058-0.31-0.054-0.707-0.298-1.174c1.025-0.139,1.908-0.44,2.641-0.917c0.59,0.27,1.373,0.5,2.362,0.688l6.756,0.351
	c2.49-0.222,4.501-0.691,6.044-1.402c4.155,1.302,7.885,1.165,11.175-0.449c3.604-1.802,5.355-4.722,5.255-8.759
	c-0.148-6.596-2.552-10.597-7.199-12.018l1.443,0.055c0.134-0.467-0.233-1.234-1.101-2.303c-3.705-4.504-6.523-12.229-8.459-23.174
	l-1.803-11.812c-0.566-3.557-1.094-6.048-1.583-7.489c1.923-0.967,3.622-2.303,5.087-4.022c4.037-4.738,5.339-10.878,3.904-18.419
	c1.401-1.568,3.037-4.321,4.905-8.259c1.232-2.658,2.128-4.881,2.694-6.682c0.608,0.365,1.129,0.543,1.56,0.525
	c1.769-0.067,4.672-3.62,8.709-10.661l2.74-5.012c0.396,2.875,1.418,7.831,3.065,14.872c1.87,8.042,2.575,13.621,2.115,16.743
	c-4.971,1.781-8.065,4.008-9.271,6.681c-0.535,1.201-0.685,4.889-0.451,11.062c0.2,6.439,0.784,10.044,1.752,10.811
	c0.768,0.635,2.102,1.235,4.004,1.803l3.791,0.671c-0.593,3.466-1.172,8.821-1.738,16.097c-0.635,8.107-0.834,13.43-0.602,15.966
	l-3.854,7.858l-3.904,7.107c-0.967,1.635-1.334,2.702-1.101,3.203c0.2,0.4,0.867,0.483,2.002,0.25l5.856-1.602l2.184-0.709
	l-2.435,5.714c-0.867,1.769-1.218,2.87-1.051,3.304l2.753-0.05c1.742-0.575,4.179-1.596,7.295-3.054
	c0.619,5.451,2.232,10.676,4.867,15.666c2.937,5.506,6.174,8.943,9.711,10.311c5.805,2.236,11.311,3.521,16.516,3.854
	c5.873,0.367,10.045-0.617,12.514-2.953c0.113-0.108,0.21-0.235,0.318-0.35c3.267,1.208,6.547,1.714,9.842,1.501
	c3.466-0.192,6.323-1.165,8.586-2.9c4.411,1.01,8.541-0.354,12.386-4.107c4.104-4.07,5.84-8.892,5.205-14.465
	c-0.601-5.438-2.552-9.543-5.855-12.313c-2.106-1.762-4.718-2.941-7.819-3.555l6.818-0.049c1.668,0,2.603-0.283,2.803-0.852
	c0.233-0.6-0.301-1.467-1.602-2.602l-8.409-7.959l-4.955-4.955l-6.856-14.014c-4.067-8.221-6.814-13.592-8.251-16.133
	c0.82-0.425,1.637-1.036,2.444-1.887c1.201-1.234,1.819-2.252,1.853-3.053c0.167-3.504,0.066-7.357-0.301-11.562
	c-0.367-4.237-0.867-7.308-1.501-9.21c-0.747-2.21-3.627-3.979-8.626-5.307c-0.126-6.292,0.64-13.641,2.319-22.071l5.405-23.624
	c2.103-9.543,3.304-17.785,3.604-24.726c0.36-8.372-0.437-16.362-2.37-23.979c0.13-3.247-0.039-6.521-0.497-9.823
	c0.938,2.08,1.879,1.787,2.817-0.885c2.636-7.508,3.287-16.016,1.952-25.526c-0.202-1.425-0.598-3.491-1.181-6.171
	c7.834-3.201,15.538-6.546,23.104-10.045c9.343-4.338,15.382-7.491,18.118-9.46c0.801-0.534,1.051-1.352,0.751-2.453
	c-0.301-1.134-1.067-1.735-2.303-1.802c-3.47-0.233-9.81-0.117-19.02,0.351l-14.35,0.923l8.043-7.029l19.37-17.568
	c0.567-0.567,0.501-1.485-0.2-2.753c-0.561-1.041-1.196-1.637-1.906-1.802l12.468-10.511l9.81-8.809
	C367.439,107.361,367.456,106.427,366.788,105.259z M127.542,362.224c-1.165-7.894-0.937-14.521,0.659-19.905
	c2.88-2.128,5.196-4.819,6.949-8.074c2.205-4.067,3.091-8.309,2.696-12.724c3.283-2.044,6.505-5.221,9.667-9.549
	c3.041-4.168,5.457-8.601,7.263-13.291c0.561,3.796,0.812,7.44,0.765,10.939c-5.567,1.431-9.311,3.708-11.181,6.856
	c-1.268,1.768-2.186,5.889-2.753,12.362c-0.5,6.007-0.517,9.394-0.05,10.161c1.991,3.318,4.383,5.308,7.173,5.981
	c-4.157,14.635-9.195,26.075-15.112,34.333C130.703,375.563,128.671,369.881,127.542,362.224z M134.56,393.297
	c-1.101,0.409-2.148,0.909-3.153,1.484c-0.031-0.316-0.078-0.619-0.129-0.92L134.56,393.297z M302.822,92.496l2.402,4.054
	c0.189,0.29,0.362,0.547,0.528,0.791c-1.253,0.837-2.273,1.536-3.046,2.085C302.874,96.121,302.913,93.806,302.822,92.496z
	 M154.029,106.512c-1.495-3.831-2.738-6.975-3.729-9.433l3.119,3.775c1.001,1.301,1.502,2.436,1.502,3.403
	C154.947,105.043,154.639,105.793,154.029,106.512z"/>
</svg>
