<?xml version="1.0" encoding="utf-8"?>
<!-- Generator: Adobe Illustrator 16.0.0, SVG Export Plug-In . SVG Version: 6.00 Build 0)  -->
<!DOCTYPE svg PUBLIC "-//W3C//DTD SVG 1.1//EN" "http://www.w3.org/Graphics/SVG/1.1/DTD/svg11.dtd">
<svg version="1.1" id="图层_1" xmlns="http://www.w3.org/2000/svg" xmlns:xlink="http://www.w3.org/1999/xlink" x="0px" y="0px"
	 width="461px" height="405px" viewBox="0 0 461 405" enable-background="new 0 0 461 405" xml:space="preserve">
<path d="M448.482,28.668c-5.826-3.43-15.932-8.607-30.316-15.533c-4.162-1.731-18.296-4.112-42.402-7.142
	C352.556,3.096,332.462,1.099,315.48,0c-2.53-0.167-7.209,1.116-14.034,3.846c-5.689,2.419-9.502,3.973-11.448,4.667
	c-0.214-0.125-0.432-0.256-0.639-0.372c-3.529-1.964-8.124-3.463-13.785-4.495c-5.527-0.999-9.156-1.032-10.887-0.1
	c-2.831,1.531-5.111,6.476-6.843,14.833c-1.831,8.624-1.365,14.201,1.398,16.731l8.091,7.741c3.954,4.504,6.365,9.024,7.259,13.561
	c-0.2,0.396-0.386,0.796-0.56,1.197l-4.102,5.07c-1.993,2.758-2.686,5.331-2.109,7.723c-7.614-1.514-14.74-4.046-21.365-7.623
	c-3.297-1.798-9.106-5.594-17.431-11.387c-7.891-5.527-13.501-9.09-16.831-10.688c-6.426-3.13-12.936-4.462-19.528-3.996
	c-13.319,0.932-23.441,4.794-30.366,11.587c-6.526,6.393-9.124,14.185-7.792,23.374c1.232,8.424-0.266,13.718-4.495,15.882
	c-2.93,1.499-7.092,0.949-12.486-1.648c-7.925-3.829-18.313-11.954-31.166-24.373c-4.662-4.528-10.389-7.591-17.181-9.189
	c-6.16-1.465-11.837-1.465-17.031,0c-7.192,1.964-12.003,6.16-14.434,12.586L55.37,77.514c-1.099,6.193-2.464,9.489-4.096,9.889
	c-3.063,0.733-9.373-1.132-18.929-5.594c-10.189-4.761-20.111-10.754-29.767-17.98c-1.265-0.965-1.931-1.065-1.998-0.299
	c-0.034,0.632,0.316,1.715,1.049,3.246c1.198,2.497,3.013,5.461,5.444,8.89c2.297,3.23,4.545,6.06,6.742,8.491l-4.895-3.047
	c-2.896-1.731-4.828-2.747-5.793-3.046l-2.697-0.05c-0.067,0.566,0.632,1.448,2.098,2.647c3.929,3.13,7.642,7.392,11.138,12.786
	c1.265,1.931,3.995,6.693,8.191,14.284l5.893,10.389c2.198,3.496,4.229,5.943,6.093,7.342c7.925,5.927,14.401,8.79,19.429,8.59
	c5.027-0.233,10.505-3.629,16.432-10.188c2.896-3.197,6.443-3.13,10.638,0.2c2.863,2.264,8.307,8.374,16.332,18.33
	c1.687,2.089,3.308,4.014,4.87,5.791c-5.741,2.342-9.4,6.617-10.962,12.838c-1.319,5.249-0.936,9.715,1.129,13.407
	c-3.608-1.564-7.262-2.901-10.969-3.968c-11.054-3.164-20.927-3.679-29.617-1.548c-5.561,1.365-10.438,3.979-14.634,7.841
	c-4.029,3.729-6.892,8.141-8.59,13.235c-1.731,5.228-1.964,10.472-0.699,15.732c1.365,5.728,4.378,10.889,9.04,15.483
	c7.392,7.259,16.598,11.753,27.619,13.485c12.147,1.902,24.521-0.086,37.122-5.946l-5.207,12.589
	c-6.726,16.348-11.138,25.921-13.235,28.718c-3.163,4.295-7.225,7.758-12.186,10.388l-5.494,2.947
	c-1.931,1.365-3.496,3.413-4.695,6.143c-5.028,11.488-13.468,27.203-25.322,47.148c-10.888,18.313-16.499,28.035-16.832,29.168
	c-1.665,5.561-2.547,10.871-2.647,15.932c-0.1,5.161,0.633,8.674,2.198,10.539c2.231,2.597,5.977,4.128,11.237,4.594
	c2.352,0.197,4.193,0.133,5.536-0.188c1.768,1.095,4.177,1.548,7.25,1.338c3.063-0.21,4.986-0.91,5.806-2.087l4.233-0.311
	c2.531-0.6,4.129-1.349,4.795-2.248c1.298-1.764,1.915-4.028,1.848-6.792c-0.1-2.73-0.849-5.327-2.248-7.792
	c-1.132-1.997-2.081-4.062-2.847-6.192c-1.032-2.897-1.232-4.878-0.599-5.943c5.927-9.923,13.252-20.977,21.976-33.163
	c11.792-16.497,20.565-26.569,26.338-30.257c17.922-4.145,31.634-10.456,41.136-18.938c3.206-2.88,6.327-6.335,9.363-10.364
	c-2.523,8.104-7.552,14.794-15.106,20.054c-1.499,1.031-2.414,3.013-2.747,5.943c-0.3,2.797,0.033,4.811,0.999,6.043
	c2.896,3.662,9.29,16.215,19.178,37.658l15.133,33.313c2.165,4.295,6.31,7.459,12.437,9.49c6.093,1.998,12.086,2.214,17.98,0.648
	c0.479-0.115,0.86-0.415,1.163-0.862c1.188,0.224,2.543,0.188,4.082-0.136c2.11-0.43,3.597-1.234,4.467-2.413
	c1.31-0.421,2.376-1.188,3.175-2.332c0.999-1.365,1.465-2.997,1.398-4.895c-0.2-4.462-2.831-7.958-7.892-10.488
	c-0.965-0.499-2.23-0.767-3.796-0.8l-4.195,0.101c-3.429,0.066-5.76-0.433-6.992-1.499c-4.495-6.559-8.257-16.414-11.287-29.566
	c-3.396-14.75-3.247-24.873,0.449-30.366c0.799-1.198,2.081-2.431,3.846-3.696l5.394-3.445c5.96-3.563,10.488-6.776,13.585-9.641
	c5.201-4.802,10.06-11.129,14.586-18.938c0.664-0.448,1.314-0.925,1.946-1.438c4.995-4.029,8.058-9.373,9.19-16.032
	c0.439-2.556,0.564-5.203,0.389-7.939l0.917-2.544c0.565,6.048,0.862,11.023,0.891,14.929c0,8.823-0.699,17.997-2.098,27.52
	c-1.132,7.558-2.514,14.301-4.146,20.228c-0.566,2.031-0.699,3.979-0.399,5.844c0.2,1.231,0.833,3.463,1.898,6.692
	c2.997,9.123,5.028,15.815,6.094,20.077c2.963,12.087,5.26,26.421,6.892,43.002c0.866,9.023,4.245,15.85,10.14,20.478
	c4.961,3.862,10.953,5.744,17.979,5.645c1.622-0.026,2.886-0.412,3.812-1.14c1.033,0.245,2.401,0.346,4.129,0.29
	c3.264-0.133,5.378-0.849,6.344-2.147c0.163-0.22,0.305-0.464,0.432-0.722c1.792-0.077,3.333-0.745,4.612-2.025
	c1.565-1.599,2.181-3.63,1.849-6.093c-0.566-3.963-1.781-7.092-3.646-9.391c-1.432-1.73-3.146-2.946-5.145-3.646
	c-4.389-1.494-7.502-3.266-9.369-5.308c-2.572-11.378-4.466-22.711-5.664-33.998c-1.165-11.254-1.615-21.909-1.348-31.965
	c0.299-11.854,2.414-25.122,6.342-39.806c0.792-2.94,1.798-6.374,3.01-10.283c2.109,4.433,4.604,8.668,7.529,12.681
	c4.098,5.628,7.69,8.72,10.777,9.289c-0.202,3.431-0.512,7.069-0.938,10.938l-1.099,10.239c-0.166,3.196,0.149,5.411,0.949,6.643
	c2.963,4.562,7.607,15.283,13.934,32.165l14.784,40.254c1.132,2.931,4.645,5.694,10.538,8.291
	c5.594,2.432,10.555,3.613,14.884,3.547c3.145-0.054,5.306-1.112,6.52-3.14c3.384,0.793,5.877,0.133,7.465-2.005
	c0.172-0.228,0.314-0.475,0.453-0.724c1.322-0.278,2.455-1.048,3.393-2.323c1.498-2.098,1.798-4.944,0.898-8.541
	c-0.865-3.529-2.58-6.359-5.144-8.49c-1.665-1.398-4.063-2.697-7.192-3.896l-4.545-1.997c-1.698-0.866-2.979-1.832-3.846-2.897
	c-3.063-6.093-6.326-15.499-9.789-28.219c-4.129-15.05-6.543-28.252-7.242-39.606c-0.199-3.496,0.782-9.922,2.947-19.277
	c3.029-12.121,5.327-21.743,6.892-28.869c4.9-22.249,6.745-40.934,5.556-56.082c21.414,1.285,36.257-2.07,44.528-10.066
	c3.99-0.091,7.346,0.643,10.05,2.22c3.196,1.898,5.344,4.878,6.442,8.94c2.198,8.224,0.583,18.346-4.845,30.366
	c-5.526,12.187-13.252,22.375-23.174,30.565c-2.631,2.165-3.729,3.496-3.297,3.996c0.4,0.434,1.898,0.017,4.495-1.248
	c13.618-6.627,24.224-16.232,31.815-28.818c7.258-12.02,10.071-23.74,8.44-35.161c-0.899-6.293-3.43-11.254-7.592-14.883
	c-3.665-3.188-8.284-5.1-13.841-5.755c3.42-4.471,6.361-9.06,8.797-13.773c4.095-8.024,5.927-14.767,5.493-20.228
	c-0.166-2.198-0.832-4.279-1.997-6.243c-1.065-1.831-2.465-3.413-4.195-4.745c-7.459-5.694-12.553-9.922-15.283-12.686
	c-3.363-3.396-4.962-6.226-4.795-8.49c0.1-1.832,1.731-3.913,4.895-6.243c2.098-1.565,6.227-4.096,12.386-7.592
	c12.486-7.092,19.462-14.051,20.927-20.876c1.214-5.672-1.44-11.108-7.937-16.311c0.284-0.02,0.559-0.042,0.795-0.071l28.918-3.296
	c12.12-1.865,18.396-4.162,18.829-6.893C460.27,36.825,456.474,33.363,448.482,28.668z M284.616,235.726
	c3.601,9.646,5.655,19.869,6.142,30.679c0.004,0.077,0.005,0.16,0.008,0.237c-1.922-0.824-4.619-4.044-8.099-9.677
	c-2.974-4.884-4.985-8.877-6.041-11.989c0.891-2.661,1.843-5.463,2.857-8.41C281.206,236.363,282.917,236.084,284.616,235.726z
	 M286.163,120.965c-1.022-10.545-0.107-20.547,2.703-30.019c0.009-0.001,0.018-0.002,0.026-0.003
	c-2.695,9.794-3.535,20.016-2.48,30.672c0.347,3.689,1.151,8.558,2.408,14.593C287.431,129.838,286.544,124.753,286.163,120.965z
	 M106.518,182.422c-3.165-3.421-4.48-8.014-3.901-13.81c0.59-5.72,2.681-9.983,6.231-12.83c2.986,2.77,5.672,4.788,8.052,6.038
	c8.391,4.462,16.782,3.013,25.172-4.345c3.296-2.891,5.799-3.733,7.514-2.533c-0.068,2.334,0.265,4.672,1.011,7.012
	c-6.561,2.525-12.9,6.464-19.013,11.853c-5.919,5.225-10.57,10.795-13.961,16.709c-1.731-1.366-3.469-2.714-5.218-4.023
	C110.461,185.047,108.495,183.707,106.518,182.422z M107.583,212.783c-10.12,6.074-20.033,9.632-29.738,10.668
	c-10.389,1.133-19.329-0.749-26.82-5.644c-4.762-3.097-8.274-6.742-10.539-10.938c-2.164-4.062-2.913-8.173-2.248-12.335
	c0.666-4.229,2.747-8.024,6.243-11.388c3.511-3.354,8.188-5.946,14.001-7.794c12.215,0.78,26.676,7.105,43.385,18.982
	c3.123,2.225,6.51,4.825,10.136,7.761L107.583,212.783z"/>
</svg>
