<?xml version="1.0" encoding="utf-8"?>
<!-- Generator: Adobe Illustrator 16.0.0, SVG Export Plug-In . SVG Version: 6.00 Build 0)  -->
<!DOCTYPE svg PUBLIC "-//W3C//DTD SVG 1.1//EN" "http://www.w3.org/Graphics/SVG/1.1/DTD/svg11.dtd">
<svg version="1.1" id="图层_1" xmlns="http://www.w3.org/2000/svg" xmlns:xlink="http://www.w3.org/1999/xlink" x="0px" y="0px"
	 width="171px" height="202px" viewBox="0 0 171 202" enable-background="new 0 0 171 202" xml:space="preserve">
<path d="M146.698,62.188c15.546-31.564,23.356-47.972,23.422-49.207c0.1-3.962-1.099-7.407-3.596-10.337
	c-2.597-3.063-5.144-3.563-7.641-1.499l-38.13,37.165c-2.188-0.268-4.602-0.376-7.264-0.31c-7.158,0.167-13.584,1.565-19.276,4.195
	c-9.655,4.528-20.708,13.583-33.159,27.167c-3.456,3.756-6.694,7.507-9.729,11.252c-4.292-3.125-7.441-4.297-9.448-3.512
	c-3.196,1.232-4.128,7.274-2.796,18.127c0.076,0.627,0.157,1.244,0.241,1.853c-2.34,3.616-4.49,7.226-6.433,10.832
	c-0.259,0.481-0.45,0.912-0.586,1.301l-4.508-4.946c-1.065-1.032-2.214-1.632-3.446-1.798c-1.231-0.166-2.38,0.117-3.445,0.85
	c-4.395,3.096-7.458,5.459-9.189,7.091c-1.265,1.198-1.748,2.597-1.448,4.194c0.267,1.498,1.099,2.847,2.497,4.045l8.066,6.625
	l-2.074-0.582l-9.239-2.348c-3.862-0.932-6.292,0.167-7.291,3.297c-0.965,3.129-1.598,6.108-1.897,8.938
	c-0.233,2.197,0.316,3.979,1.648,5.343c1.198,1.232,2.88,1.948,5.044,2.148l8.842,0.635c-0.228,0.736-0.436,1.465-0.625,2.186
	c-2.859,1.192-5.037,2.151-6.52,2.872c-1.631,0.799-2.613,1.914-2.946,3.346c-0.366,1.432-0.017,2.93,1.048,4.495
	c1.365,2.063,2.98,4.161,4.844,6.292c0.914,1.054,1.693,1.885,2.347,2.513c-0.128,1.401-0.2,2.642-0.2,3.68
	c-0.033,6.125,1.881,12.9,5.743,20.324c3.929,7.491,7.607,11.32,11.037,11.486c2.364,0.1,4.694-2.031,6.991-6.393
	c2.479-4.635,3.559-9.773,3.268-15.405c0.927-0.083,1.863-0.21,2.818-0.424c4.083,2.675,8.89,4.94,14.438,6.79
	c9.688,3.221,19.252,3.969,28.695,2.263l0.269,2.332c0.066,1.231,0.233,2.197,0.5,2.896c0.633,1.731,3.961,2.93,9.987,3.596
	c5.094,0.532,9.472,0.565,13.134,0.1c4.994-0.665,8.973-1.581,11.936-2.747c3.296-1.265,5.043-2.746,5.243-4.443
	c0.167-1.266-1.065-2.681-3.695-4.245c-2.563-1.498-5.593-2.647-9.089-3.446c3.995-3.328,6.01-8.14,6.043-14.432
	c0.061-5.52-1.344-9.451-4.179-11.828c0.105-0.879,0.198-1.775,0.277-2.688c6.132,1.074,11.379,1.452,15.736,1.133
	c4.528-0.333,7.024-1.281,7.491-2.847c0.666-2.164-1.315-5.393-5.943-9.688c-4.164-3.798-8.918-6.936-14.248-9.426
	c5.715,0.414,10.506-0.361,14.348-2.359c5.127-2.697,9.239-7.758,12.336-15.182c5.792-13.85,6.592-28.365,2.396-43.546
	C148.599,67.204,147.712,64.634,146.698,62.188z M23.898,125.992c-0.026,0.039-0.055,0.078-0.081,0.117l-1.339-1.197
	C22.942,125.268,23.414,125.627,23.898,125.992z M135.306,143.623c-1.816-1.598-4.236-3.615-7.251-6.047
	c1.706,1.229,3.349,2.521,4.911,3.896C133.845,142.239,134.625,142.956,135.306,143.623z"/>
</svg>
