<?xml version="1.0" encoding="utf-8"?>
<!-- Generator: Adobe Illustrator 16.0.0, SVG Export Plug-In . SVG Version: 6.00 Build 0)  -->
<!DOCTYPE svg PUBLIC "-//W3C//DTD SVG 1.1//EN" "http://www.w3.org/Graphics/SVG/1.1/DTD/svg11.dtd">
<svg version="1.1" id="图层_1" xmlns="http://www.w3.org/2000/svg" xmlns:xlink="http://www.w3.org/1999/xlink" x="0px" y="0px"
	 width="269px" height="297px" viewBox="0 0 269 297" enable-background="new 0 0 269 297" xml:space="preserve">
<path d="M265.037,119.5c-1.001-2.068-3.086-2.585-6.256-1.551l-16.964,5.655c-6.839,2.235-11.442,3.503-13.812,3.803
	c-2.208,0.258-3.705-0.243-4.524-1.473c4.223-12.051,7.555-24.833,9.979-38.361c2.435-13.745,3.469-25.254,3.102-34.529
	c-0.166-4.104-1.101-6.656-2.802-7.657c-1.568-0.934-3.003-0.217-4.304,2.152c-6.235,11.397-15.323,25.382-27.256,41.947
	c-0.734-1.106-1.624-2.287-2.667-3.543c1.137-3.524,2.37-7.701,3.7-12.532c3.236-11.777,5.105-19.767,5.605-23.97
	c0.133-1.201-0.451-2.903-1.752-5.104c-1.334-2.168-2.385-3.186-3.152-3.053c-0.301,0.067-0.717,0.417-1.251,1.051l-2.603,3.453
	L189.373,59.9c-2.738,3.295-5.464,6.233-8.179,8.837l-5.082-4.784l-3.181-2.855c-0.046-3.911-0.135-7.941-0.272-12.107
	c-0.567-17.248-1.567-29.591-3.003-37.031c-0.3-1.534-1.317-3.553-3.053-6.055c-1.534-2.202-2.985-3.903-4.354-5.104
	C161.583,0.167,161.049-0.1,160.648,0c-0.366,0.1-0.666,0.551-0.9,1.351c-2.803,10.576-5.588,19.75-8.357,27.523
	c-5.304,14.712-10.258,23.67-14.861,26.873c-1.605,1.118-4.018,2.286-7.224,3.502c-1.273-2.845-2.575-5.683-3.937-8.506
	c-4.604-9.541-8.757-16.897-12.46-22.068c-0.8-1.134-2.769-2.536-5.905-4.204c-1.268-0.634-2.135-0.851-2.602-0.65
	c-0.601,0.233-0.834,1.084-0.701,2.552c0.767,8.074,1.384,17.665,1.852,28.774c0.203,4.952,0.353,9.663,0.455,14.16
	c-2.214,1.388-4.181,2.904-5.905,4.545c-2.504-3.814-5.138-7.892-7.911-12.249C84.185,49.091,78.697,40.167,75.728,34.83
	c-3.47-6.172-6.372-8.574-8.708-7.206c-2.001,1.167-3.252,4.704-3.753,10.609c-1.134,12.877-1.484,26.739-1.051,41.585
	c0.419,14.212,1.492,26.548,3.206,37.042c-8.007-0.702-17.389-2.565-28.177-5.616c-7.673-2.168-14.629-4.47-20.868-6.906
	c-7.172-2.869-12.043-3.486-14.612-1.852c-2.702,1.735-2.185,5.705,1.551,11.91c6.239,10.342,14.362,20.901,24.371,31.677
	c3.703,4.003,10.943,11.192,21.718,21.567l3.803,3.554c-1.034,5.104-4.704,12.41-11.009,21.919
	c-4.604,6.938-8.524,12.243-11.76,15.912c-2.836,3.17-4.037,5.389-3.603,6.656s2.636,2.068,6.605,2.402
	c6.005,0.5,16.03-0.434,30.075-2.803l5.21-0.917c0.213,2.556,0.683,5.368,1.445,8.474c0.567,2.369,1.618,6.088,3.153,11.159
	c-3.27,2.869-7.406,6.956-12.411,12.261c-5.705,6.038-8.974,10.025-9.808,11.959c-0.634,1.436-0.284,2.703,1.051,3.804
	c1.735,1.468,4.971,2.252,9.708,2.353c3.703,0.1,8.757-0.418,15.163-1.552c3.964-0.7,6.753-1.282,8.419-1.754
	c5.477,9.689,11.061,17.561,16.752,23.572c6.873,7.239,13.278,11.06,19.216,11.46c7.239,0.5,16.431-3.703,27.573-12.611
	c6.955-5.556,12.589-11.201,16.917-16.938c1.915,1.183,4.244,2.292,7.003,3.326c3.569,1.335,6.723,2.102,9.458,2.303
	c4.037,0.333,6.572-0.018,7.606-1.051c0.868-0.868,0.868-2.586,0-5.154c-0.467-1.402-2.019-4.305-4.653-8.708
	c-2.398-4.079-4.383-7.171-5.967-9.304c1.808-2.124,3.629-4.486,5.466-7.109c3.736-5.372,6.923-10.927,9.558-16.664
	c3.37,0.733,8.273,2.218,14.713,4.453l14.412,5.154c2.135,0.768,3.47,0.968,4.004,0.601c0.467-0.333,0.7-1.451,0.7-3.353
	c0-4.304-1.067-11.31-3.202-21.018c-2.068-9.508-4.354-17.999-6.856-25.472l0.351-0.251c6.271-4.87,14.512-13.193,24.721-24.971
	c11.643-13.378,18.633-23.419,20.967-30.125C265.721,124.805,266.004,121.569,265.037,119.5z"/>
</svg>
