<?xml version="1.0" encoding="utf-8"?>
<!-- Generator: Adobe Illustrator 16.0.0, SVG Export Plug-In . SVG Version: 6.00 Build 0)  -->
<!DOCTYPE svg PUBLIC "-//W3C//DTD SVG 1.1//EN" "http://www.w3.org/Graphics/SVG/1.1/DTD/svg11.dtd">
<svg version="1.1" id="图层_1" xmlns="http://www.w3.org/2000/svg" xmlns:xlink="http://www.w3.org/1999/xlink" x="0px" y="0px"
	 width="454px" height="481px" viewBox="0 0 454 481" enable-background="new 0 0 454 481" xml:space="preserve">
<path d="M452.911,84.63c-1.067-2.302-3.736-3.67-8.007-4.104c-6.239-0.601-23.289-3.87-51.148-9.809l-46.693-9.859
	c-4.037-0.701-14.146-0.184-30.328,1.551l-27.376,3.053c-17.383,1.001-31.663,2.886-42.84,5.655
	c-9.776,2.402-18.802,5.939-27.076,10.61c-1.801,1.014-4.627,2.973-8.474,5.873c0.076-3.645-0.048-7.483-0.385-11.528
	c-0.263-3.208-0.751-6.334-1.438-9.389c0.083-5.506-0.537-12.133-1.865-19.889c-2.069-12.111-4.938-21.754-8.608-28.927
	c-0.167-0.467-0.367-0.701-0.601-0.701c-0.233,0.033-0.383,0.284-0.45,0.751c-0.567,3.77-1.635,8.708-3.203,14.813
	c-0.345,1.364-0.68,2.641-1.009,3.861c-8.103-9.16-18.707-16.988-31.822-23.479c-10.243-5.038-20.77-8.758-31.58-11.16
	c-9.342-2.069-14.363-2.486-15.064-1.251c-0.1,0.2,1.051,1.969,3.453,5.305c3.27,4.504,5.889,8.491,7.857,11.961
	c4.858,8.332,7.529,15.708,8.042,22.142c-5.754-3.138-11.85-5.936-18.302-8.379c-1.001-0.434-1.685-0.567-2.052-0.4
	c-0.4,0.2-0.184,0.768,0.65,1.702l4.554,4.905c3.992,4.308,7.938,9.343,11.841,15.089c-0.772,0.724-1.694,1.37-2.782,1.927
	l-9.309,3.353c-17.483,5.639-30.746,15.014-39.787,28.126c-8.664,12.573-14.63,30.249-17.899,53.025
	c-13.204-9.43-25.773-15.434-37.703-17.992c-3.737-0.801-7.057-0.834-9.959-0.1c-2.869,0.734-4.754,2.068-5.655,4.003
	c-2.703,5.839-3.103,13.012-1.201,21.521c1.869,8.508,4.838,13.212,8.908,14.113l19.178,2.875
	c-3.526,6.658-7.314,15.425-11.362,26.287c-6.039,0.166-11.031,0.888-14.973,2.168c-5.505,1.735-8.308,4.371-8.408,7.907
	c-0.033,1.735,0.517,4.288,1.652,7.657c1.234,3.637,2.802,7.073,4.704,10.31c1.782,3.044,3.595,5.471,5.439,7.305
	c-3.718,13.451-5.788,24.554-6.189,33.283c-0.868,19.785,0.917,41.605,5.355,65.461c4.337,23.389,10.593,45.377,18.768,65.963
	c8.508,21.52,17.967,38.502,28.376,50.947c11.377,13.612,22.771,20.369,34.182,20.269c2.836-0.033,5.855-0.667,9.058-1.901
	c3.303-1.302,6.49-3.153,9.559-5.556c6.406,0.267,11.694-1.401,15.865-5.005c4.371-3.736,6.856-9.058,7.457-15.965
	c2.569-0.867,5.238-2.686,8.008-5.455c2.869-2.869,5.271-6.205,7.207-10.009c0.606-1.178,1.144-2.344,1.616-3.499
	c6.264,10.387,13.329,19.517,21.205,27.371c24.923,24.823,58.389,37.485,100.395,37.985c23.722,0.301,45.292-4.805,64.71-15.314
	c12.413-6.714,22.625-15,30.671-24.832c18.771-5.219,34.958-13.536,48.554-24.964c4.904-4.138,8.975-8.258,12.211-12.362
	c2.636-3.336,3.82-5.288,3.554-5.855c-0.2-0.434-5.689,0.384-16.466,2.452c-10.978,2.119-19.941,3.498-26.903,4.143
	c1.526-2.657,3.234-5.553,5.133-8.696c5.305-8.774,7.824-13.296,7.558-13.563c-0.801-0.867-5.155,1.235-13.063,6.307
	c-2.881,1.829-5.643,3.704-8.308,5.618v-13.425c0-13.146-0.301-19.819-0.901-20.02c-1.168-0.367-3.386,1.401-6.656,5.305
	c-3.403,4.104-6.822,9.176-10.26,15.215c-8.32,14.762-12.718,28.055-13.211,39.884c-6.53,5.114-13.368,9.344-20.521,12.665
	c-11.511,5.372-22.854,7.975-34.031,7.808c-13.513-0.167-26.408-3.637-38.687-10.41c-11.277-6.206-21.103-14.646-29.478-25.323
	c-8.041-10.276-13.746-21.32-17.116-33.131c-3.403-12.078-3.92-23.355-1.552-33.832c0.434-1.936,1.285-3.787,2.552-5.555
	c1.101-1.602,2.186-2.687,3.253-3.254c2.681-1.488,5.153-3.312,7.421-5.465c1.895,0.121,3.914,0.074,6.091-0.189
	c7.04-0.801,11.728-3.087,14.063-6.857c-0.733,15.648,2.302,25.857,9.108,30.629c1.635,1.102,3.787,1.552,6.456,1.352
	c2.603-0.167,4.954-0.918,7.057-2.252c2.002-1.268,5.472-4.088,10.409-8.458l15.564-13.663
	c15.782-13.346,30.93-23.839,45.443-31.479c4.57-2.402,6.873-6.589,6.906-12.562c0-5.772-1.901-9.442-5.705-11.01
	c0.9-5.105-0.551-9.91-4.354-14.414c-3.77-4.504-7.74-6.272-11.911-5.305c-2.77-3.438-6.339-5.522-10.71-6.256
	c-4.438-0.701-9.158,0.083-14.163,2.352c-11.578,5.271-21.52,16.516-29.828,33.732c2.035-5.506,3.37-10.344,4.004-14.514
	c0.5-3.203,0.751-7.541,0.751-13.013c0-6.14-1.651-12.111-4.955-17.917c-3.136-5.505-7.323-10.209-12.562-14.113
	c-5.305-3.904-10.877-6.439-16.716-7.607c-3.388-0.652-6.637-0.774-9.759-0.404c-1.58-1.874-3.235-3.728-5.005-5.552
	c-10.934-11.253-24.604-20.646-41.003-28.183c5.498-3.23,11.452-5.921,17.882-8.051c9.776-3.203,19.552-4.838,29.328-4.904
	c9.842-0.034,20.168,1.601,30.979,4.904c8.575,2.603,16.332,5.855,23.271,9.759c5.006,2.803,10.51,6.339,16.516,10.61l13.563,9.809
	c9.575,6.54,17.883,9.509,24.923,8.909c3.236-0.3,6.79-1.285,10.66-2.953c4.271-1.868,8.141-4.254,11.61-7.157
	c0.901-0.734,1.568-1.835,2.002-3.303l0.4-2.002c5.139,0.3,11.478-2.786,19.019-9.259c7.439-6.373,10.876-11.411,10.31-15.114
	c5.638,0.367,11.827-3.57,18.567-11.811c2.535-3.103,4.704-6.289,6.506-9.559c1.668-3.07,2.502-5.238,2.502-6.506
	c0-5.805-5.021-8.958-15.063-9.459c-8.709-0.4-17.267-2.919-25.675-7.557c-0.419-0.233-0.826-0.464-1.223-0.692
	c0.274-0.55,0.552-1.087,0.822-1.66c0.746-1.579,1.383-3.041,1.946-4.425c9.473,1.951,16.934,3.143,22.377,3.574
	c7.44,0.701,13.646,0.784,18.617,0.25c4.771-0.534,8.608-1.685,11.511-3.453c3.771-2.302,7.69-5.806,11.761-10.51
	c2.97-3.503,5.339-6.773,7.107-9.809c1.234-2.069,2.085-4.188,2.552-6.356C453.646,87.983,453.579,86.065,452.911,84.63z
	 M151.503,136.894c0-1.354-0.058-2.81-0.174-4.369c-0.601-7.707-2.019-13.729-4.254-18.067c-0.634-1.301-1.751-1.968-3.353-2.002
	c-1.635-0.066-3.303,0.601-5.005,2.002c-5.924,4.924-11.571,12.392-16.943,22.381c-1.438-3.48-2.069-8.029-1.875-13.673
	c0.233-6.839,1.018-10.893,2.352-12.161c2.569-2.369,6.189-3.954,10.86-4.754c4.971-0.901,8.541-0.3,10.71,1.802l9.208,13.413
	c2.521,3.7,4.584,6.636,6.193,8.812L151.503,136.894z M81.428,279.01c-2.611-3.89-5.042-7.889-7.271-12.009
	c-0.253-0.472-0.49-0.944-0.738-1.417c3.598-2.519,6.939-4.703,10.023-6.555c2.456,5.078,5.1,10.234,7.955,15.477
	C87.974,275.873,84.654,277.379,81.428,279.01z M63.447,238.224c-0.348,0.08-0.687,0.165-1.032,0.247
	c-0.038-0.132-0.082-0.265-0.119-0.397c-1.888-6.519-3.036-12.246-3.46-17.2c3.084-0.521,6.094-0.955,9.02-1.292
	c1.605,5.395,3.487,10.905,5.632,16.522C70.308,236.707,66.974,237.406,63.447,238.224z"/>
</svg>
