<?xml version="1.0" encoding="utf-8"?>
<!-- Generator: Adobe Illustrator 16.0.0, SVG Export Plug-In . SVG Version: 6.00 Build 0)  -->
<!DOCTYPE svg PUBLIC "-//W3C//DTD SVG 1.1//EN" "http://www.w3.org/Graphics/SVG/1.1/DTD/svg11.dtd">
<svg version="1.1" id="图层_1" xmlns="http://www.w3.org/2000/svg" xmlns:xlink="http://www.w3.org/1999/xlink" x="0px" y="0px"
	 width="135px" height="169px" viewBox="0 0 135 169" enable-background="new 0 0 135 169" xml:space="preserve">
<path d="M133.461,23.885c-11.328,2.998-25.152,8.563-41.477,16.69c-4.719,2.345-9.172,4.667-13.371,6.969
	c-0.094-0.122-0.175-0.251-0.271-0.372c-1.472-1.829-3.09-3.389-4.831-4.725c6.264-2.734,13.22-8,20.872-15.814
	c6.962-7.129,12.026-13.658,15.19-19.588c1.133-2.166,1.449-3.648,0.949-4.448c-0.565-0.865-2.281-1.049-5.146-0.549
	c-6.363,1.066-13.092,3.931-20.188,8.595c-9.393,6.163-17.755,14.617-25.094,25.344c-2.918-0.771-6.111-1.111-9.586-1.008
	c-4.398,0.1-8.812,0.9-13.242,2.397c-4.723,1.629-8.681,3.932-11.9,6.888c-1.249-8.509-4.038-17.034-8.389-25.575
	C13.214,11.327,9.334,5.747,5.336,1.949C3.804,0.483,2.638-0.15,1.838,0.05C0.972,0.283,0.456,1.499,0.29,3.698
	c-0.567,6.229,0.549,14.525,3.346,24.885c3.119,11.498,7.237,20.629,12.35,27.409c-1.604,2.916-2.707,6.056-3.304,9.419
	c-0.8,4.464-0.617,8.795,0.549,12.992c1.266,4.598,3.715,8.545,7.346,11.843c2.399,2.179,5.057,3.83,7.964,4.977
	c-2.565,1.921-4.884,4.472-6.948,7.673l-0.667-0.409l-0.85-0.148c-0.4,0.1-0.633,0.532-0.7,1.299
	c-0.233-0.166-0.517-0.283-0.85-0.35l-0.75,0.1c-0.233,0.133-0.4,0.416-0.5,0.85c-0.133,0.435-0.166,0.867-0.1,1.3l-1.249-0.101
	c-0.5,0.066-0.799,0.217-0.899,0.449c-0.233,0.567,0.6,2.434,2.499,5.598c-0.899,0.699-1.299,1.349-1.199,1.949
	c0.133,0.633,1.165,1.266,3.098,1.898c1.699,0.586,3.193,0.845,4.506,0.812c-1.255,4.382-2.184,8.695-2.756,12.934
	c-0.812,5.875-0.816,10.392-0.026,13.569c-3.129,1.231-5.427,2.785-6.87,4.668c-1.255,1.644-1.511,2.936-0.783,3.882
	c-0.376,0.695-0.468,1.316-0.265,1.862c0.167,0.467,0.65,0.75,1.449,0.851l0.9-0.088c0.728,0.925,3.1,1.124,7.144,0.589
	c4.316-0.594,8.221-1.737,11.745-3.389l3.797,0.241l6.196,0.45c1.365,0.3,3.331,0.916,5.896,1.85
	c6.163,2.265,11.143,3.813,14.941,4.646c2.709,0.604,5.13,0.941,7.297,1.042c1.099,2.456,2.942,4.659,5.543,6.603
	c2.601,1.932,4.381,2.647,5.348,2.147c0.075-0.039,0.141-0.089,0.201-0.146c0.353,0.269,0.734,0.456,1.15,0.548l1.348-0.051
	c0.435-0.177,0.718-0.584,0.884-1.17c1.331-0.883,1.825-2.735,1.466-5.574c-0.376-2.726-1.393-5.51-3.034-8.353
	c2.358-3.959,3.572-9.898,3.634-17.833c0.002-0.323-0.007-0.652-0.009-0.978c0.817-0.631,1.462-1.175,1.906-1.619l0.051-0.55
	l-2.156-3.196c-0.098-1.456-0.229-2.933-0.397-4.43c0.73-0.639,1.664-1.428,2.804-2.368l6.597-5.447c0.232-0.2,0.25-0.398,0.049-0.6
	l-8.895-10.145c2.896-2.265,6.979-5.13,12.243-8.595c0.267-0.166,0.299-0.367,0.101-0.601c-1.021-1.351-1.969-2.613-2.87-3.823
	c1.254-2.876,1.782-5.733,1.571-8.569c-0.174-2.311-0.727-4.14-1.613-5.542c3.517-1.463,7.441-2.947,11.807-4.452
	c8.328-2.831,16.074-5.013,23.236-6.546l0.35-0.45l-0.199-22.137c-0.066-10.828,0.016-17.84,0.25-21.038
	C134.027,23.936,133.859,23.786,133.461,23.885z"/>
</svg>
