<?xml version="1.0" encoding="utf-8"?>
<!-- Generator: Adobe Illustrator 16.0.0, SVG Export Plug-In . SVG Version: 6.00 Build 0)  -->
<!DOCTYPE svg PUBLIC "-//W3C//DTD SVG 1.1//EN" "http://www.w3.org/Graphics/SVG/1.1/DTD/svg11.dtd">
<svg version="1.1" id="图层_1" xmlns="http://www.w3.org/2000/svg" xmlns:xlink="http://www.w3.org/1999/xlink" x="0px" y="0px"
	 width="465px" height="502px" viewBox="0 0 465 502" enable-background="new 0 0 465 502" xml:space="preserve">
<path d="M464.5,193.487c-0.133-1.999-0.833-3.265-2.099-3.797c-1.199-0.533-2.564-0.25-4.097,0.849
	c-17.456,12.192-31.547,20.454-42.273,24.784c7.296-5.863,16.057-15.074,26.283-27.632c7.929-9.694,12.842-16.206,14.74-19.537
	l2.148-4.098c0.533-1.366,0.883-2.931,1.05-4.697c0.167-1.866,0.033-4.514-0.399-7.945c-0.434-3.332-0.967-6.146-1.6-8.445
	c-0.666-2.432-1.648-3.781-2.947-4.047c-1.233-0.233-2.648,0.5-4.248,2.199c-16.589,17.355-28.548,28.815-35.877,34.378
	c5.93-8.028,12.409-18.622,19.438-31.78c3.065-5.729,6.779-13.108,11.144-22.136c0.699-1.465,1.199-3.231,1.499-5.296
	c0.333-2.432,0.283-4.764-0.15-6.996c-1.232-6.629-3.265-12.492-6.096-17.588c-0.767-1.366-1.732-2.166-2.898-2.398
	c-1.366-0.3-2.548,0.383-3.548,2.048c-12.991,21.986-22.935,37.643-29.831,46.97c5.93-13.225,13.408-35.244,22.436-66.057
	l0.45-3.498c0-2.198-0.649-4.347-1.949-6.446c-1.698-2.665-4.33-5.446-7.895-8.344c-1.499-1.233-2.981-1.799-4.447-1.699
	c-1.565,0.133-2.682,1.016-3.348,2.648c-1.399,3.431-4.347,9.76-8.845,18.988c-4.896,10.06-8.91,17.855-12.042,23.385
	c1.499-6.696,2.965-16.639,4.397-29.831c1.166-10.96,1.749-17.855,1.749-20.687c0-5.33-1.6-9.377-4.797-12.142
	c-3.831-3.364-7.896-6.146-12.192-8.345c-2.231-1.166-3.98-1.532-5.247-1.099c-1.499,0.533-2.465,2.265-2.897,5.197l-3.048,30.181
	c-1.087,10.706-2.03,19.198-2.835,25.512c-0.441-1.307-0.99-2.679-1.662-4.126c-1.139-2.459-2.691-4.874-4.622-7.248
	c-0.303-8.489-1.572-18.707-3.823-30.677c-1.766-9.427-3.581-17.339-5.446-23.735c-0.5-1.765-1.449-3.281-2.848-4.547
	c-1.333-1.232-2.915-2.115-4.747-2.648c-3.864-1.099-7.329-1.615-10.394-1.549c-1.499,0-2.698,0.4-3.598,1.199
	c-1.266,1.133-1.749,2.998-1.449,5.596c4.196,34.939,6.634,60.063,7.317,75.394c-1.805-7.398-4.141-15.57-7.018-24.526
	c-5.196-16.123-9.394-27.416-12.592-33.878c-1.865-3.698-4.147-5.763-6.846-6.196c-1.832-0.3-4.33,0.017-7.495,0.949
	c-3.431,1.033-5.546,2.282-6.346,3.748c-0.833,1.632-0.949,3.314-0.35,5.047c8.36,23.851,13.225,47.103,14.591,69.755
	c1.698,28.723-1.624,60.213-9.946,94.462c-0.392,0.553-0.841,1.26-1.347,2.125l-1.949,3.448l-0.898-3.648
	c-0.768-2.432-1.666-3.698-2.699-3.797c-1.199-0.1-2.448,1.232-3.748,3.997c-1.398,3.032-2.748,7.579-4.047,13.642
	c-1.599,7.616-3.286,17.74-5.061,30.37c-0.013,0.018-0.024,0.035-0.036,0.053c-0.457-2.489-0.939-4.324-1.448-5.489
	c-0.566-1.333-1.316-2.048-2.249-2.148c-0.644-0.057-1.376,0.399-2.191,1.331c0.247-2.677,0.495-6.22,0.742-10.675
	c0.366-6.463,0.55-11.443,0.55-14.94c0-8.961-0.4-15.024-1.199-18.188c-0.434-1.732-1.066-2.598-1.898-2.598
	c-0.6-0.034-1.166,0.183-1.699,0.649l-0.65,0.649l-0.449-2.648c-0.399-1.699-1.082-2.615-2.049-2.749
	c-0.999-0.133-2.182,0.8-3.547,2.798l-1.899,2.998l-1.3-2.748c-1.065-1.766-2.197-2.599-3.396-2.499
	c-1.966,0.167-3.865,3.365-5.697,9.594c-1.998,6.762-3.114,14.741-3.348,23.935c-0.267,9.494-0.217,18.039,0.15,25.633l1.206,18.567
	c-0.499-2.581-1.018-5.6-1.556-9.073c-0.533-3.498-0.967-8.062-1.3-13.691l-0.35-5.496c-0.233-1.333-0.883-2.032-1.948-2.099
	c-0.7-0.034-1.566,0.816-2.599,2.548l-1.449,2.548l-0.5-2.099c-0.433-1.399-0.999-2.099-1.698-2.099
	c-0.666,0-1.266,0.433-1.799,1.299c-0.367,0.633-0.833,1.766-1.399,3.398l-0.2,0.45c0-0.6-0.366-1.049-1.099-1.349
	c-0.799-0.333-1.466,0.083-1.999,1.249c-0.383,0.887-0.672,2.273-0.874,4.132c-1.35-3.372-3.687-8.674-7.021-15.925l-8.544-17.988
	c-1.433-2.865-2.615-5.013-3.548-6.446c-1.766-2.665-3.265-3.631-4.497-2.898c-0.766,0.466-1.083,1.333-0.949,2.598l0.3,1.799
	l-0.8-1.199c-0.6-0.833-1.232-1.333-1.898-1.499c-0.566-0.167-1.033-0.1-1.399,0.2c-0.5,0.4-0.75,1.133-0.75,2.199
	c0,0.966,0.3,2.166,0.899,3.598c-1.399-2.032-2.748-2.748-4.047-2.148c-1.699,0.799-2.215,3.531-1.549,8.195
	c0.799,5.729,3.431,15.14,7.895,28.231c1.599,4.631,3.797,10.144,6.596,16.539c1.844,4.211,4.403,9.856,7.675,16.932
	c-0.835-1.376-1.667-2.75-2.529-4.14c-2.865-4.63-5.213-7.728-7.045-9.294c-1.333-1.133-2.432-1.465-3.298-0.999
	c-0.7,0.333-1.016,1.216-0.949,2.647c0.033,1.066,0.216,1.982,0.549,2.749c-0.633-1.1-1.349-1.899-2.148-2.398l-2.049-0.149
	c-1.765,1.083-1.838,4.138-0.263,9.108c-2.751,2.328-6.732,5.875-11.979,10.679c2.831-4.964,6.296-11.859,10.393-20.688
	c1.166-2.398,1.832-4.563,1.999-6.496c0.067-1.032-0.15-2.664-0.649-4.896l-1.599-5.196c-0.433-1.065-1.149-1.716-2.148-1.948
	c-1.066-0.201-2.182,0.149-3.348,1.049c-0.7,0.533-2.698,2.165-5.997,4.896l-9.543,7.995c5.896-10.294,9.36-16.606,10.393-18.938
	l1.249-3.748c0.2-1.066,0.267-2.382,0.2-3.947c-0.1-2.332-0.75-5.48-1.949-9.444c-0.5-1.699-1.283-2.715-2.349-3.048
	c-1.132-0.366-2.349,0.217-3.647,1.749c-2.365,2.865-6.063,7.645-11.093,14.341l-10.693,14.491
	c0.933-8.429,2.848-16.956,5.747-25.584c2.231-6.729,4.597-12.326,7.095-16.789c0.733-1.333,1.199-2.499,1.399-3.498
	c0.3-1.565,0.167-3.231-0.399-4.997l-1.499-3.648c-0.833-1.599-1.666-2.931-2.499-3.997c-1.166-1.433-2.332-2.199-3.498-2.299
	c-1.233-0.066-2.449,0.616-3.648,2.049c-2.832,3.531-5.663,7.828-8.495,12.892c-3.464,6.163-6.412,12.592-8.844,19.288
	c1.266-8.062,3.115-17.772,5.546-29.131l3.248-14.79c0.466-2.132,0.6-3.781,0.4-4.947c-0.233-1.366-0.983-2.898-2.249-4.597
	c-1.899-2.532-4.531-5.363-7.895-8.495c-1.099-1.033-2.132-1.516-3.098-1.449c-1.099,0.067-1.999,0.883-2.698,2.449
	c-1.965,4.43-3.964,9.594-5.996,15.49c-2.798,8.228-5.146,16.556-7.045,24.984l-0.2-5.296c0-5.297,0.733-11.393,2.198-18.288
	c1.266-5.93,3.248-13.242,5.946-21.936c0.566-1.832,0.85-3.181,0.85-4.047c0-1-0.2-1.982-0.6-2.948l-1.299-2.448
	c-1.999-3.365-4.064-6.046-6.196-8.045c-1.033-0.966-1.999-1.449-2.898-1.449c-1.232-0.033-2.249,0.8-3.048,2.499
	c-2.932,6.163-5.146,12.142-6.646,17.938c-0.989,3.892-1.685,7.808-2.098,11.748c-0.333-4.231-0.558-8.492-0.665-12.786
	c0.349-4.159,1.036-8.394,2.063-12.703c0.933-3.931,2.065-7.612,3.398-11.043c0.566-1.565,0.699-3.031,0.399-4.397
	c-0.233-0.899-0.716-1.882-1.449-2.948l-2.199-2.898l-0.594-0.722c2.005-16.87,5.776-33.453,11.337-49.746
	c4.93-14.457,11.759-29.564,20.487-45.32l2.198-4.047c1.965-3.731,1.965-7.396,0-10.993c-0.799-1.366-1.699-2.315-2.698-2.848
	c-1.132-0.6-2.232-0.533-3.298,0.2c-1.22,0.804-3.235,2.872-6.023,6.167c2.482-5.327,5.694-11.696,9.671-19.158
	c0.999-1.932,0.933-3.198-0.2-3.797l-3.697-0.15c-1.499,0.4-3.481,1.199-5.946,2.398c-2.932,1.433-5.68,3.048-8.245,4.847
	c-1.1,0.766-2.315,1.815-3.648,3.148c-1.532,1.532-2.748,2.998-3.647,4.397c-2.731,4.197-5.513,9.394-8.345,15.59
	c-5.462,11.917-9.803,24.872-13.028,38.862c-0.322,0.34-0.652,0.716-0.989,1.118c-0.238-4.254-0.163-12.292,0.226-24.14
	c0.066-2.298-0.466-3.631-1.599-3.998c-1.033-0.333-2.115,0.217-3.248,1.649c-1,1.299-2.449,3.515-4.347,6.646
	c-1.999,3.331-3.515,6.096-4.547,8.294c-0.899,1.999-1.516,3.881-1.849,5.646c-0.3,1.732-0.417,3.764-0.35,6.096
	c0.341,13.056,0.784,23.192,1.327,30.417c-0.188-0.083-0.378-0.151-0.577-0.187c-0.458-0.087-0.895-0.027-1.312,0.176l-3.885-10.969
	c-0.667-1.966-1.533-3.065-2.599-3.298c-1.199-0.267-1.932,1.132-2.198,4.197c-0.633,6.429-0.899,12.109-0.8,17.039
	c0.067,2.498,0.433,5.296,1.1,8.395l1.669,6.405c0.101,0.968,0.271,1.901,0.529,2.789l6.446,18.838
	c2.833,7.822,5.501,14.634,8.006,20.439c-4.685-6.083-10.368-13.612-17.05-22.587c-1.299-1.766-2.682-2.465-4.147-2.099
	c-1.565,0.366-2.432,1.965-2.598,4.797c-0.167,2.631-0.05,6.362,0.35,11.193c0.1,1.432,0.4,2.981,0.899,4.647
	c0.533,1.799,1.199,3.397,1.999,4.797c2.698,4.863,6.296,10.177,10.793,15.939c5.268,6.699,10.824,12.758,16.663,18.187
	c0.043,0.353,0.089,0.706,0.135,1.059L77.5,187.791c-1.299-1.099-2.499-1.416-3.598-0.949c-1.333,0.566-1.916,2.265-1.749,5.097
	c0.267,3.731,1.116,7.745,2.548,12.042l1.799,4.497c1.066,2.398,2.016,4.081,2.848,5.047c5.932,6.712,11.627,12.683,17.092,17.933
	c-2.082-1.153-4.681-2.65-7.798-4.491c-1.432-0.899-2.682-1.066-3.748-0.5c-1.232,0.633-1.649,2.065-1.249,4.297
	c0.6,3.831,1.466,7.396,2.598,10.693c1,2.964,2.965,5.796,5.896,8.494l7.045,5.747c2.609,1.951,5.242,3.736,7.895,5.385
	l-3.448-0.389c-1.632-0.133-2.814,0.301-3.547,1.3c-0.833,1.166-0.65,2.748,0.549,4.747c2.232,3.664,4.48,6.512,6.746,8.545
	c1.333,1.165,3.564,2.682,6.696,4.547c2.063,1.22,3.875,2.212,5.459,3.002c0.094,0.165,0.191,0.325,0.286,0.489l-1.248,0.156
	c-1.132,0.532-1.132,1.683,0,3.448c2.652,4.224,6.505,8.319,11.527,12.287c7.845,10.694,16.819,20.135,26.914,28.329
	c-4.286,2.262-8.406,5.106-12.357,8.552l-15.64,13.092l-13.042,10.793c-1.899,1.665-3.914,2.764-6.046,3.297l-4.896,0.4
	l-5.896-1.149l-6.001-1.025c-1.009-2.733-1.368-5.883-1.044-9.468c0.367-3.965,1.716-9.361,4.047-16.189
	c2.099-5.03,3.464-8.777,4.098-11.243c1.132-4.264,0.75-7.878-1.149-10.843c-1.932-3.064-4.68-4.714-8.245-4.947
	c-2.378-0.165-4.371,0.192-5.992,1.06c-1.604-2.777-4.068-4.566-7.4-5.356c-2.565-0.6-4.963-0.333-7.195,0.799
	c-1.735,0.91-3.044,2.183-3.978,3.772c-1.486-0.758-3.203-1.287-5.167-1.573c-4.664-0.633-8.461,0.267-11.393,2.698
	c-1.698,1.425-2.778,2.884-3.26,4.375l-5.484,0.173c-4.031,0.898-7.362,3.214-9.994,6.945c-2.898,4.063-3.814,8.527-2.749,13.391
	c0.733,3.332,2.499,5.913,5.297,7.745c1.376,0.925,2.751,1.553,4.128,1.896c-0.625,2.726-0.872,6.269-0.73,10.646
	c0.266,6.596,1.599,11.942,3.997,16.039c2.365,3.932,5.896,7.729,10.593,11.393c3.365,2.641,6.565,4.686,9.602,6.138
	c-1.165,0.923-2.862,2.65-5.105,5.206c-2.432,2.731-4.93,4.996-7.495,6.795c-3.198,2.232-6.029,3.348-8.495,3.348l-8.594-0.499
	c-4.83-0.134-8.245,0.217-10.244,1.049c-2.765,1.166-5.729,3.481-8.894,6.946c-4.597,5.029-8.178,11.292-10.743,18.787
	c-0.833,2.432-1.333,4.997-1.499,7.695c-0.167,2.565,0,4.381,0.5,5.446c0.233,0.533,0.566,0.883,1,1.05
	c1.299,0.466,5.68-2.082,13.142-7.646c2.632-1.832,6.063-3.681,10.293-5.546c4.697-2.032,8.428-3.182,11.193-3.448
	c0.633-0.066,3.914-0.017,9.843,0.15l11.043,0.1c0.809-0.018,1.54-0.049,2.202-0.092l-4.151,5.788
	c-3.864,5.696-6.529,10.41-7.995,14.141c-1.299,3.298-2.049,5.48-2.249,6.546c-0.333,1.732,0.083,2.865,1.249,3.398
	c1.037,0.462,2.574-0.035,4.608-1.485c-1.872,2.34-4.169,5.146-6.907,8.431l-5.347,6.995c-1.399,1.832-2.115,3.481-2.148,4.947
	c-0.034,0.999,0.2,1.682,0.699,2.049c0.466,0.433,1.133,0.666,1.999,0.699c1.333,0.1,2.898-0.316,4.697-1.249
	c19.054-10.127,29.647-16.323,31.779-18.588c0.966-1,1.899-2.466,2.798-4.397l3.647-8.395c1.466-3.298,4.348-8.711,8.645-16.239
	c1.213-2.132,2.292-4.011,3.244-5.647c6.232-3.098,11.039-6.196,14.395-9.293c4.431-4.131,8.378-9.827,11.842-17.09
	c3.964-8.294,7.212-13.907,9.744-16.839c3.065-3.598,7.795-6.829,14.191-9.693c2.632-1.166,5.497-2.016,8.595-2.548l7.345-0.95
	l3.033-0.52c0.26,1.261,0.637,2.599,1.14,4.021c-3.752,0.844-8.12,2.171-13.118,3.994c-6.762,2.498-10.26,4.514-10.493,6.047
	c-0.033,0.466,0.1,0.883,0.4,1.248c0.566,0.633,1.965,0.916,4.197,0.85c-0.899,0.367-1.616,0.783-2.149,1.25
	c-0.6,0.533-0.833,1.016-0.699,1.449c0.133,0.6,0.833,1.032,2.099,1.299l12.392,0.699l16.71-0.484
	c0.485,0.587,0.983,1.164,1.494,1.73c-2.839,0.882-6.436,2.311-10.809,4.301c-5.976,2.753-11.448,5.735-16.455,8.929
	c-1.465-1.654-3.508-2.399-6.131-2.233c-1.066,0.1-2.082,0.467-3.048,1.1c-0.891,0.604-1.484,1.302-1.797,2.088
	c-0.167,0.065-0.333,0.129-0.501,0.21c-1.033,0.533-2.382,2.132-4.047,4.797c-0.38,0.609-0.725,1.188-1.043,1.744
	c-1.656-0.487-3.243-0.665-4.753-0.494c-1.992,0.217-3.483,1.024-4.486,2.406c-0.487,0.163-0.945,0.4-1.36,0.741
	c-1.465,1.199-2.998,3.132-4.597,5.796c-1.566,2.665-2.166,4.314-1.799,4.947c0.167,0.3,0.616,0.383,1.349,0.25l7.53-2.264
	c0.785,1.546,2.649,2.785,5.611,3.713c2.532,0.799,4.964,1.915,7.295,3.348c0.775,0.48,1.509,0.997,2.223,1.53
	c-1.689-0.87-3.395-1.684-5.121-2.43c-4.497-1.933-7.862-2.815-10.094-2.648c-1.832,0.133-3.364,0.6-4.597,1.399
	c-1.398,0.881-2.286,2.142-2.713,3.743c-0.632,0.46-1.12,1.099-1.434,1.953c-0.833,2.065-1.366,4.33-1.599,6.795
	c-0.267,2.499-0.117,3.932,0.45,4.298c0.233,0.199,0.533,0.149,0.899-0.15l6.831-5.831c1.434,0.896,4.109,1.609,8.06,2.134
	c2.665,0.333,5.146,0.966,7.445,1.898c2.565,1.066,4.647,2.415,6.246,4.048l2.449,3.048c0.933,1.299,1.765,2.266,2.498,2.898
	c1.199,1.099,2.932,2.231,5.197,3.397c3.131,1.633,5.164,3.015,6.096,4.147c0.799,0.966,1.083,2.231,0.849,3.798
	c-0.3,1.898-0.333,3.431-0.1,4.597c0.336,1.5,1.16,2.616,2.426,3.386c-0.013,0.168-0.032,0.331-0.027,0.512
	c-0.267,5.03-0.35,8.378-0.25,10.044c0.033,0.999,0.183,1.599,0.45,1.799c0.4,0.266,0.95,0.066,1.649-0.6l6.146-7.695l0.05-0.05
	c0.381-0.67,0.619-1.323,0.726-1.961c1.742-1.66,2.641-3.553,2.672-5.685c0.034-1.199-0.316-2.848-1.049-4.946
	c-0.433-1.166-0.883-2.849-1.349-5.047l-0.75-4.497l-0.296-3.372l3.444-3.224l6.946-6.746l10.543-10.893l6.871-7.015
	c2.199-0.135,4.471-0.607,6.82-1.431c0.798-0.281,1.592-0.6,2.383-0.955c-3.92,6.994-8.027,15.627-12.327,25.939
	c-2.398,5.763-4.331,11.709-5.796,17.839c-1.999,8.228-1.949,12.858,0.15,13.891c1.666,0.833,3.281,0.017,4.847-2.448l-0.3,3.647
	c0,2.865,0.716,4.33,2.148,4.397c1.1,0.033,2.432-1.133,3.998-3.498c1.199-1.799,2.632-4.514,4.297-8.145
	c-0.899,4.963-1.349,8.178-1.349,9.644c0,1.366,0.35,2.165,1.049,2.398c1.333,0.433,3.231-1.615,5.696-6.146
	c1.999-3.697,4.097-8.444,6.296-14.24l8.73-24.234c0.907,0.584,1.872,1.335,2.913,2.299c2.169,2.049,4.94,5.133,8.295,9.222
	c-0.617,1.989-0.541,4.26,0.249,6.817c0.833,2.698,2.532,5.963,5.097,9.794c0.267,0.566,0.166,2.748-0.3,6.546l-1.149,7.795
	c-0.873,4.563-0.02,7.523,2.532,8.911c-0.015,0.225-0.039,0.441-0.034,0.683c0.066,1.632,0.816,3.831,2.249,6.596
	c1.399,2.798,2.465,4.181,3.198,4.147c0.666-0.033,1.615-1.683,2.848-4.947c1.066-2.864,1.666-4.797,1.799-5.796
	c0.022-0.203,0.014-0.387,0.019-0.578c1.658-1.716,2.606-3.355,2.829-4.918c0.101-0.967-0.1-2.349-0.6-4.147l-0.799-4.197
	l-0.1-3.948c0-2.165,0.149-3.563,0.449-4.197l2.449-3.298c1.531-2.432,2.897-5.912,4.097-10.442
	c0.395-1.461,1.375-3.145,2.914-5.041l0.483,6.64c0.9,8.86,2.666,13.358,5.297,13.491c0.262,0.016,0.52-0.02,0.773-0.101
	l0.626,10.943c0.833,8.062,2.215,12.159,4.147,12.292c0.933,0.066,1.732-0.566,2.398-1.898l0.749-1.999
	c2.099,7.096,4.347,10.543,6.745,10.344c2.398-0.2,4.098-3.864,5.098-10.993c0.898-6.162,1.133-13.308,0.699-21.437
	c-0.434-8.794-1.183-18.688-2.248-29.681c-0.383-3.854-0.743-7.259-1.081-10.228l4.079,12.376
	c3.664,12.858,6.529,19.222,8.594,19.088c1.333-0.033,1.966-1.532,1.898-4.497l1.699,2.299c1.333,1.632,2.532,2.349,3.598,2.148
	c0.6-0.167,1.1-0.533,1.499-1.1c1.377-2.294,1.081-8.134-0.868-17.481l5.766,10.586l8.045,14.291
	c4.663,7.995,8.361,13.208,11.093,15.64c1.432,1.267,2.665,1.732,3.697,1.399c0.866-0.3,1.35-1.066,1.449-2.299
	c0.066-0.732,0-1.466-0.2-2.198c1.466,2.132,2.665,3.631,3.598,4.497c1.199,1.166,2.249,1.615,3.148,1.35
	c1.299-0.334,1.948-2.049,1.948-5.147l-0.35-5.696c1.666,1.732,3.081,2.183,4.247,1.35c0.6-0.434,0.883-1.232,0.85-2.398
	c-0.033-1.766-0.766-4.664-2.198-8.694c-2.032-5.663-4.147-10.927-6.346-15.79c-5.069-11.471-9.082-20.016-12.046-25.661
	c0.419,0.409,0.824,0.815,1.252,1.227c6.829,6.529,11.06,9.327,12.692,8.395c0.119-0.065,0.229-0.147,0.328-0.245l13.014,14.187
	c9.493,9.627,15.106,13.891,16.839,12.792c0.999-0.666,1.249-1.916,0.749-3.748c2.332,1.399,4.197,2.315,5.597,2.748
	c1.865,0.633,3.215,0.55,4.048-0.249c0.899-0.833,0.982-2.382,0.249-4.647c-0.433-1.466-1.149-3.064-2.148-4.797
	c1.199,0.133,2.099-0.033,2.698-0.5c1.066-0.866,0.816-2.682-0.749-5.446c-1.899-3.298-6.396-9.377-13.491-18.238
	c-8.009-9.993-19.91-22.975-35.69-38.932c3.675,2.642,7.67,5.406,12.005,8.302l18.389,11.893
	c5.597,3.664,13.008,7.711,22.235,12.142c10.96,5.297,17.122,7.262,18.488,5.896c0.399-0.4,0.55-0.916,0.449-1.549l-0.549-1.25
	c1.832,0.533,3.114,0.384,3.848-0.449c0.433-0.533,0.616-1.216,0.549-2.049c-0.1-0.699-0.333-1.332-0.699-1.898
	c1.399,0.066,2.365-0.384,2.898-1.35c1.499-2.765-5.863-10.659-22.086-23.685c-4.698-3.662-10.321-7.624-16.857-11.88l5.314,1.786
	c5.164,1.533,11.46,3.082,18.888,4.647c6.597,1.433,12.093,2.249,16.49,2.448c4.396,0.166,7.229-0.283,8.494-1.35
	c1.166-0.999,1.232-2.215,0.2-3.646c-0.566-0.767-1.6-1.699-3.099-2.799l3.298-0.4c1.066-0.365,1.649-1.016,1.749-1.948
	c0.233-1.599-1.865-3.798-6.296-6.596c-4.23-2.698-9.127-5.063-14.69-7.095c-6.773-2.413-13.224-4.395-19.388-5.996
	c2.257-0.884,3.415-2.025,3.488-3.422l7.105-0.176l13.591-0.551c11.192-0.666,16.855-2.031,16.989-4.097
	c0.1-0.933-0.616-1.899-2.148-2.898l4.247-0.949c1.466-0.533,2.265-1.416,2.398-2.648c0.233-1.865-1.716-3.431-5.847-4.696
	c-3.164-0.967-7.429-1.717-12.791-2.249l-14.241-0.7c-6.352-0.165-10.809-0.136-13.382,0.088c-0.063-1.076-0.863-2.203-2.458-3.385
	c-4.164-3.064-10.193-7.18-18.088-12.342l14.141,6.295c5.063,2.266,8.178,3.582,9.344,3.947c2.165,0.7,4.081,1,5.746,0.9
	c1.366-0.066,3.015-0.483,4.947-1.25c2.531-1.032,5.446-2.531,8.744-4.496l7.945-5.447c2.765-2.165,2.115-4.197-1.949-6.096
	l-14.041-6.096c-7.396-3.099-12.925-5.297-16.589-6.596l27.981,1.748l15.79-0.549c2.332-0.234,4.247-0.783,5.746-1.649
	s2.865-2.198,4.098-3.997c1.799-2.599,3.614-6.496,5.446-11.693c0.5-1.531,0.5-2.682,0-3.447c-0.699-1.1-2.432-1.682-5.196-1.749
	l-38.476-2.298c11.426-1.467,22.669-4.164,33.729-8.096c7.528-2.697,12.809-5.014,15.84-6.945c1.732-1.1,3.147-2.314,4.247-3.647
	c0.866-1.065,1.749-2.515,2.648-4.347c1.299-2.565,2.731-6.613,4.297-12.143c0.434-1.666,0.267-2.932-0.5-3.798
	c-0.898-0.999-2.381-1.183-4.446-0.549c-15.257,4.43-28.365,7.878-39.325,10.343c9.194-3.698,18.755-8.778,28.682-15.24
	c7.595-4.963,12.492-8.595,14.69-10.893c1.466-1.532,2.499-2.848,3.099-3.947c0.666-1.233,1.349-3.131,2.048-5.696
	c0.634-2.399,1.133-5.38,1.499-8.944C464.617,199.45,464.7,196.219,464.5,193.487z M202.669,296.221l1.725-2.707l3.332,6.188
	c-2.709,0.083-5.322,0.293-7.845,0.623L202.669,296.221z M231.393,424.317c1.972,1.782,4.218,3.165,6.708,4.195l0.245,3.071
	l0.65,5.646l0.057,1.07c-0.219-0.375-0.439-0.74-0.656-1.121l-4.547-8.544L231.393,424.317z M253.393,445.426l1.443-14.392
	c0.025-0.312,0.287-1.177,0.778-2.581c2.51-1.33,4.662-3.115,6.453-5.356l0.316,10.262l-1.053,1.523
	C258.257,438.594,255.615,442.106,253.393,445.426z M181.176,415.509l-9.687,10.179l-9.389,9.757
	c-2.594-6.825-4.969-12.723-7.127-17.691l6.922-1.109c5.917-1.248,11.213-3.039,15.902-5.36
	C178.657,412.85,179.796,414.25,181.176,415.509z M139.5,417.557c0.513,0.206,1.055,0.416,1.658,0.636
	c0.65,0.265,1.95,1.932,3.89,4.985C143.102,421.082,141.254,419.212,139.5,417.557z"/>
</svg>
