<?xml version="1.0" encoding="utf-8"?>
<!-- Generator: Adobe Illustrator 16.0.0, SVG Export Plug-In . SVG Version: 6.00 Build 0)  -->
<!DOCTYPE svg PUBLIC "-//W3C//DTD SVG 1.1//EN" "http://www.w3.org/Graphics/SVG/1.1/DTD/svg11.dtd">
<svg version="1.1" id="图层_1" xmlns="http://www.w3.org/2000/svg" xmlns:xlink="http://www.w3.org/1999/xlink" x="0px" y="0px"
	 width="201px" height="197px" viewBox="0 0 201 197" enable-background="new 0 0 201 197" xml:space="preserve">
<path d="M194.396,99.477c1.734-0.968,2.869-2.119,3.402-3.453c0.567-1.468-0.333-1.935-2.701-1.401
	c-8.373,1.935-18.197,2.669-29.473,2.202l-12.852,0.774c1.493-2.684,2.613-5.245,3.344-7.679c1.068-3.536,0.984-5.671-0.25-6.405
	c-1.067-0.601-2.869-0.467-5.404,0.4c-3.404,1.165-7.348,3.582-11.821,7.233c0.68-5.433,0.424-11.492-0.788-18.191
	c-2.812-15.45-10.479-32.278-22.986-50.48c-2.97-5.65-6.765-10.385-11.387-14.201c-1.663-2.318-3.486-4.425-5.507-6.272
	c-1.535-1.401-2.485-2.051-2.852-1.951c-0.367,0.066-0.2,0.9,0.5,2.502c1.171,2.692,2.098,5.421,2.837,8.179
	c0.687,7.478-0.183,14.943-2.637,22.395c-0.595,1.785-1.313,3.609-2.126,5.462c-3.281,4.594-8.571,9.66-15.887,15.203
	C67.733,61.43,61.445,66.718,58.943,69.653c-3.018,3.518-5.271,7.268-6.792,11.24c-3.226-1.493-6.006-3.415-8.319-5.786
	c-4.403-4.503-6.505-10.074-6.305-16.713c0.233-7.306,3.052-12.843,8.456-16.613c4.604-3.236,10.675-4.97,18.214-5.204
	c2.135-0.034,3.203-0.2,3.203-0.5c0-0.267-1.067-0.667-3.203-1.201c-7.239-1.768-14.328-0.934-21.266,2.502
	c-8.506,4.17-12.76,11.192-12.76,21.066c0,7.672,2.902,14.127,8.707,19.365c3.451,3.142,7.473,5.465,12.039,7.007
	c-0.359,1.425-0.65,2.871-0.83,4.351c-0.834,7.072,0.517,13.678,4.053,19.814c0.176,0.305,0.373,0.589,0.557,0.887
	c-8.305-1.916-18.515-1.911-30.68,0.064l-9.857,0.65l-11.509-0.85c-1.501-0.234-2.335-0.135-2.502,0.299
	c-0.1,0.268,0.083,0.768,0.551,1.502c0.867,1.301,2.235,2.151,4.103,2.552c-1.101,0.4-2.068,1.051-2.902,1.952
	c-0.5,0.566-0.7,1.017-0.601,1.351c0.067,0.333,0.5,0.601,1.301,0.8c1.468,0.334,3.803,0.284,7.005-0.149
	c-0.601,1.335-0.767,2.568-0.5,3.702c0.167,0.734,0.45,1.135,0.851,1.201c0.367,0.066,0.967-0.116,1.801-0.55
	c2.802-1.501,5.371-2.269,7.706-2.302c2.735-0.066,6.088,0.417,10.058,1.451l11.559,2.802c5.271,0.901,11.042,1.401,17.313,1.501
	l16.288-0.91c4.65,1.48,9.756,2.294,15.336,2.412c0.992,0.019,1.975,0.005,2.955-0.026c-2.015,3.277-3.141,6.556-3.355,9.833
	c-0.222,3.308,0.59,5.945,2.406,7.933c-2.758-0.257-5.478,0.581-8.16,2.525c-3.269-5.337-8.606-9.49-16.012-12.46
	c-7.539-3.002-13.126-3.018-16.763-0.049c-2.936,2.435-3.519,5.721-1.751,9.857c2.002,4.703,6.588,8.59,13.761,11.658
	c5.604,2.369,10.725,3.219,15.362,2.553c3.992-0.597,6.202-2.063,6.655-4.388c1.507-1.152,3.394-2.147,5.704-2.968
	c3.069-1.035,6.238-1.502,9.507-1.402c2.219,0.081,4.178,0.63,5.882,1.633c0.679,1.386,0.985,3.144,0.873,5.323
	c-0.133,2.401-0.634,4.003-1.501,4.804c-7.272,4.236-12.193,9.29-14.761,15.161c-1.602,3.669-2.152,7.005-1.651,10.008
	c0.901,5.104,3.919,7.906,9.057,8.406c4.871,0.501,9.14-1.151,12.81-4.954c3.202-3.336,5.237-7.521,6.104-12.559
	c0.935-5.404,0.05-9.991-2.651-13.761c-0.602-0.834-0.617-2.469-0.051-4.903c0.634-2.803,1.835-5.088,3.604-6.855
	c4.369-4.371,7.021-9.191,7.955-14.461c0.876-4.953,0.257-10.43-1.808-16.414c3.906-1.039,7.603-2.682,11.089-4.929l5.43-0.374
	l15.912-0.852c3.47-0.666,7.506-2.117,12.109-4.353c2.336-1.101,4.203-1.885,5.604-2.353c2.136-0.733,4.286-1.184,6.455-1.351
	l7.306-0.1l6.555-0.501c3.836-0.867,3.703-1.984-0.4-3.352c3.604-0.367,5.588-1.085,5.955-2.152
	C200.602,100.46,198.666,99.775,194.396,99.477z"/>
</svg>
