<?xml version="1.0" encoding="utf-8"?>
<!-- Generator: Adobe Illustrator 16.0.0, SVG Export Plug-In . SVG Version: 6.00 Build 0)  -->
<!DOCTYPE svg PUBLIC "-//W3C//DTD SVG 1.1//EN" "http://www.w3.org/Graphics/SVG/1.1/DTD/svg11.dtd">
<svg version="1.1" id="图层_1" xmlns="http://www.w3.org/2000/svg" xmlns:xlink="http://www.w3.org/1999/xlink" x="0px" y="0px"
	 width="130px" height="181px" viewBox="0 0 130 181" enable-background="new 0 0 130 181" xml:space="preserve">
<path d="M126.801,147.004c-2.099-2.899-4.965-4.35-8.596-4.35c-2.633,0-4.666,0.917-6.098,2.75
	c-0.885,1.074-1.388,2.248-1.514,3.522c-5.21-9.977-11.435-17.588-18.68-22.815c-6.919-4.975-16.162-8.632-27.719-10.982
	c1.098-2.866,1.743-6.201,1.93-10.01c0.433-8.93-1.716-18.942-6.448-30.038c-0.008-0.033-0.021-0.055-0.037-0.067
	c-0.371-0.808-0.818-1.496-1.339-2.067c5.489-1.322,10.167-3.854,14.021-7.612c3.998-3.898,6.814-8.813,8.447-14.744
	c2.998-10.896,2.665-21.725-1-32.487c-1.533-4.532-3.465-8.247-5.798-11.146s-4.648-4.481-6.947-4.748
	c-3.013-0.328-6.507,1.486-10.48,5.43c-0.459-1.578-1.298-3.106-2.565-4.58C52.413,1.193,50.88,0.26,49.381,0.26
	c-1.033,0-2.366,0.633-3.999,1.899c-1.966,1.499-3.798,3.548-5.498,6.147c-3.292,4.985-5.522,11.047-6.731,18.149
	c-0.948,0.385-1.87,1.645-2.765,3.792c-1.024,2.515-1.434,5.176-1.243,7.979c-0.922,1.064-1.758,2.253-2.506,3.566
	c-1.732,3.032-2.599,6.164-2.599,9.396c0,4.698,1.533,8.264,4.599,10.696c2.27,1.847,5.096,2.845,8.466,3.014
	c1.044,1.318,2.391,2.55,4.079,3.684c1.098,0.757,2.165,1.346,3.209,1.802c-0.619,0.648-1.203,1.29-1.761,1.925
	c-3.572,2.208-6.753,4.551-9.553,7.026c-0.831-0.098-1.613,0.055-2.341,0.492c-0.837,0.465-1.433,1.231-1.809,2.273
	c-0.178-0.012-0.356-0.024-0.54-0.024c-0.966,0-1.866,0.417-2.699,1.25c-1,0.966-1.499,2.249-1.499,3.849
	c0,0.42,0.058,0.808,0.142,1.18c-1.248,1.973-2.077,3.944-2.441,5.917c-0.466,2.266-0.267,4.198,0.6,5.798
	c1.133,2.166,3.166,3.249,6.098,3.249l0.11-0.016c-0.928,5.508-0.441,10.217,1.49,14.109c0.823,1.673,1.843,3.015,3.049,4.041
	c-4.095,3.183-7.019,6.152-8.747,8.904c-1.733,2.732-2.599,5.765-2.599,9.097c0,4.876,1.856,9.604,5.543,14.188
	c-0.911,0.554-2.276,0.961-4.144,1.205c-1.803,0.245-3.533,0.284-5.196,0.136c-0.939-0.822-2.123-1.235-3.55-1.235
	c-1.069,0-2.046,0.259-2.931,0.773c-1.172-1.273-2.52-1.625-4.045-1.039c-1.123-0.826-2.577-0.71-4.37,0.366
	C1.066,155.15,0,157.199,0,159.998c0,2.166,0.783,3.932,2.349,5.299c1.429,1.27,3.012,1.759,4.744,1.485
	c1.277,0.75,2.657,1.034,4.139,0.854c0.345,0.221,0.711,0.427,1.113,0.609c2.899,1.333,7.88,1.999,14.944,1.999
	c6.764,0,11.662-1.033,14.694-3.099c2.166-1.499,3.249-3.332,3.249-5.498c0-2.799-1.499-5.231-4.498-7.297
	c-1.299-0.899-2.616-3.116-3.949-6.647c-1.266-3.365-1.899-6.114-1.899-8.247c0-1.899,0.833-3.882,2.499-5.948
	c0.941-1.167,2.061-2.222,3.321-3.188c0.038,10.097,3.185,19.003,9.431,26.722c-0.084,0.903-0.183,1.751-0.307,2.507
	c-0.133,0.666-0.767,1.898-1.899,3.698c-1.272,1.971-2.481,3.442-3.632,4.443c-0.552,0.291-1.093,0.658-1.616,1.154
	c-1.5,1.366-2.249,3.116-2.249,5.248c0,1.733,0.716,3.198,2.149,4.398c1.399,1.233,3.116,1.849,5.148,1.849
	c1.933,0,3.599-0.732,4.998-2.199c0.585-0.599,1.033-1.232,1.361-1.896c0.295,0.939,0.76,1.78,1.438,2.496
	c1.233,1.333,2.865,1.999,4.898,1.999c1.766,0,3.266-0.666,4.498-1.999c0.221-0.244,0.414-0.502,0.596-0.767
	c1.038,1.272,2.568,1.916,4.603,1.916c1.699,0,3.166-0.65,4.398-1.949c1.332-1.399,1.999-3.166,1.999-5.298
	c0-0.755-0.087-1.434-0.242-2.053c1.201-0.033,2.404-0.152,3.608-0.351c7.141,3.386,15.239,5.102,24.323,5.102
	c7.864,0,14.128-1.482,18.793-4.447c4.665-2.966,6.997-6.898,6.997-11.796C130,153.967,128.934,149.936,126.801,147.004z"/>
</svg>
