<?xml version="1.0" encoding="utf-8"?>
<!-- Generator: Adobe Illustrator 16.0.0, SVG Export Plug-In . SVG Version: 6.00 Build 0)  -->
<!DOCTYPE svg PUBLIC "-//W3C//DTD SVG 1.1//EN" "http://www.w3.org/Graphics/SVG/1.1/DTD/svg11.dtd">
<svg version="1.1" id="图层_1" xmlns="http://www.w3.org/2000/svg" xmlns:xlink="http://www.w3.org/1999/xlink" x="0px" y="0px"
	 width="238px" height="265px" viewBox="0 0 238 265" enable-background="new 0 0 238 265" xml:space="preserve">
<path d="M233.973,220.467c-5.372-13.911-13.789-25.841-25.242-35.793c-1.104-7.783-2.717-14.676-4.844-20.672
	c6.261,3.521,13.972,6.568,23.146,9.137l2.746-0.05c0.3-0.499,0.101-1.631-0.599-3.396c-5.393-13.379-14.495-23.197-27.309-29.455
	c-4.727-2.33-9.203-3.761-13.43-4.293c-1.769-0.227-3.219-0.273-4.384-0.157c1.758-1.288,2.92-2.002,3.484-2.14
	c4.332-1.029,7.95-2.398,10.902-4.083c0.106,0.732,0.265,1.091,0.48,1.038l1.048-1.099c0.311-0.36,0.707-0.935,1.188-1.721
	c1.276-0.974,2.392-2.025,3.307-3.171c0.666,0.965,0.998,2.047,0.998,3.245c0,1.531-0.666,3.745-1.996,6.64
	c-0.5,1.132-0.699,1.73-0.6,1.798l1.148-0.2c4.893-0.832,8.486-2.896,10.783-6.191c1.864-2.696,2.514-5.392,1.947-8.088
	c-0.533-2.563-1.531-4.926-2.996-7.089c-1.73-2.53-3.561-3.745-5.491-3.645l-3.239,0.199c-0.703-2.431-1.981-4.201-3.85-5.291
	c-1.931-1.132-4.743-1.432-8.438-0.899c-3.494,0.5-5.675,1.298-6.54,2.396l-4.493,6.64l-3.781,5.742
	c-0.683,0.969-1.383,2.004-2.11,3.145c-1.165,1.897-4.81,5.841-10.933,11.833c-5.592,5.458-9.203,8.804-10.834,10.034
	c-2.963-1.331-5.709-3.262-8.238-5.791c-2.229-2.196-4.709-5.292-7.438-9.286c-3.195-4.626-6.157-7.522-8.887-8.687
	c-2.529-1.065-5.358-0.815-8.487,0.749c-0.234,0.117-0.452,0.213-0.677,0.319c-4.321-5.109-6.519-9.23-6.562-12.351
	c0.2-1.831,1.082-4.477,2.646-7.938c2.496,0,4.477-0.565,5.94-1.697c1.432-1.131,2.047-2.546,1.848-4.244
	c0.5,0.566,1.148,0.999,1.947,1.298l2.097,0.449c1.364,0,2.946-0.649,4.743-1.947c1.73-1.265,3.063-2.712,3.994-4.343
	c2.995-5.226,4.492-11.699,4.492-19.421c0.034-6.723-1.064-12.781-3.295-18.172c-2.629-6.324-6.156-9.486-10.584-9.486l-3.295,0.35
	l-1.465,0.116c-0.304-1.306-0.64-2.624-1.031-3.96c-2.097-7.156-5.159-13.613-9.186-19.371C102.653,7.156,89.291,0,72.516,0
	C52.346,0,35.904,8.004,23.19,24.014C11.708,38.492,4.519,57.58,1.623,81.277c-2.762,22.832-1.082,45.564,5.042,68.197
	c1.417,5.263,3.029,10.277,4.813,15.072c-2.782,5.157-4.673,10.997-5.661,17.528c-0.133,0.999-0.133,1.564,0,1.697
	c0.133,0.101,0.566-0.05,1.298-0.449c3.529-1.82,6.858-3.693,9.991-5.62c3.042,6.192,6.456,11.911,10.243,17.153
	c0.413,2.744,1.023,5.507,1.833,8.287c0.333,1.165,0.566,1.73,0.699,1.697l1.148-1.298c0.536-0.673,1.062-1.344,1.577-2.014
	c1.429,1.674,2.896,3.3,4.415,4.859c0.998,1.031,1.797,1.58,2.396,1.647c0.666,0.1,0.632-0.716-0.1-2.446
	c-1.22-2.8-2.374-5.619-3.47-8.455c4.219-5.965,7.611-11.831,10.172-17.599c1.828,9.079,4.899,16.67,9.224,22.759
	c0.699,0.932,1.115,1.397,1.248,1.397l0.999-1.548c6.324-12.647,7.539-25.811,3.645-39.49c-0.231-0.808-0.479-1.59-0.735-2.36
	c1.286,0.925,2.551,1.805,3.781,2.61c7.023,4.626,12.631,6.939,16.825,6.939c2.796,0,4.027-0.766,3.694-2.297
	c-0.2-0.766-0.915-1.881-2.146-3.345l-1.997-2.296c1.764-2.93,4.66-6.523,8.687-10.784c1.283-1.348,2.483-2.534,3.615-3.59
	c0.126,0.516,0.25,1.035,0.379,1.543c1.335,5.303,2.794,10.052,4.372,14.263c-0.242,0.259-0.496,0.527-0.777,0.814l-5.142,5.143
	c-4.626,4.826-8.121,8.786-10.484,11.882c-3.628,4.692-5.358,8.188-5.192,10.483c0.167,2.23,2.946,6.624,8.337,13.181
	c5.559,6.724,8.388,10.302,8.487,10.733c-0.732,1.199-2.58,2.131-5.542,2.796c-2.929,0.699-6.573,1.032-10.934,0.999l-9.585,0.35
	c-3.062,0.332-5.525,0.998-7.389,1.996c-2.297,1.232-3.961,2.996-4.993,5.293c-0.898,2.029-1.148,4.076-0.749,6.141
	c0.2,1.23,0.549,1.947,1.048,2.146c0.699,0.232,1.897-0.25,3.595-1.447c2.23-1.564,4.227-2.746,5.991-3.545
	c2.795-1.299,5.691-2.047,8.687-2.247c-3.528,1.065-6.224,2.163-8.087,3.295c-1.831,1.099-3.079,2.43-3.745,3.994
	c-0.333,0.766-0.532,1.98-0.599,3.645c-0.1,1.765,0,3.229,0.3,4.394c0.333,1.331,0.815,2.014,1.448,2.047
	c0.599,0.066,1.681-0.449,3.245-1.548c2.663-1.897,6.39-4.077,11.183-6.54c4.792-2.496,9.319-4.576,13.58-6.24
	c1.831-0.732,5.542-1.664,11.133-2.797l13.38-2.545c1.298-0.233,2.413-0.666,3.345-1.299c0.898-0.633,1.365-1.265,1.398-1.896
	c0-1.266-1.165-2.313-3.495-3.146c-2.396-0.899-5.708-1.448-9.935-1.647l-1.099-7.589c-1.065-5.558-2.413-9.603-4.044-12.132
	l10.534-3.195c3.051-1.124,5.58-2.268,7.588-3.43c2.113,1.326,4.277,2.403,6.491,3.23c2.793,1.055,5.946,1.828,9.442,2.334
	c0.01,0.92,0.038,1.84,0.093,2.758c0.566,9.652,3.777,17.939,9.636,24.863l1.298,1.148l1.298-1.398
	c2.396-3.262,4.128-6.823,5.192-10.684c1.064-3.828,1.598-8.421,1.598-13.779c-0.005-0.854-0.035-1.702-0.081-2.545
	c1.837-0.142,3.725-0.322,5.673-0.551c2.795,0.666,5.808,1.548,9.036,2.646c3.794,1.331,6.274,2.446,7.438,3.345
	c0.467,8.687-0.083,14.845-1.647,18.472c-5.824,0.566-9.769,1.748-11.832,3.545c-1.697,1.432-1.847,2.563-0.449,3.395
	c0.499,0.3,3.661,1.564,9.485,3.795c6.225,2.529,10.617,4.593,13.18,6.19c3.296,2.03,8.188,5.675,14.679,10.934
	c6.091,4.859,10.817,8.887,14.179,12.081c2.662,2.53,4.276,2.314,4.842-0.648c0.699-3.395,0.633-7.306-0.199-11.732l2.696,2.297
	c1.397,1.265,2.347,1.863,2.846,1.797c0.665-0.066,1.198-1.049,1.597-2.945c1.1-5.192-0.1-10.102-3.594-14.728
	c-1.83-2.43-3.777-4.044-5.842-4.843c-1.297-0.5-4.492-1.165-9.585-1.997c-4.128-0.665-8.337-1.697-12.631-3.095
	c-3.928-1.266-6.507-2.363-7.738-3.296l7.788-9.136c2.231-2.773,3.892-5.126,4.99-7.065c8.59,6.063,19.203,11.183,31.854,15.353
	l3.295,0.998C234.455,222.131,234.404,221.565,233.973,220.467z M22.477,141.479l0.664-0.841c0.5-0.932,1.248-1.913,2.247-2.945
	c1.032-1.132,2.08-2.014,3.146-2.646c3.249,1.869,6.719,4.317,10.4,7.318c-3.899,1.057-7.798,2.823-11.698,5.313
	c-1.277,0.826-2.488,1.704-3.655,2.615C23.154,147.372,22.786,144.434,22.477,141.479z M37.219,118.321
	c-3.661-1.431-7.222-1.415-10.684,0.05c-1.546,0.646-2.863,1.517-3.959,2.603c-0.443-0.081-0.875-0.145-1.298-0.194
	c-0.116-13.956,1.22-27.324,4.009-40.102c3.96-18.172,10.284-32.634,18.971-43.384c8.299-10.283,17.721-15.851,28.257-16.736v0.011
	l2.896-0.15c8.421-0.033,16.476,2.879,24.164,8.737c5.027,3.847,9.799,8.911,14.321,15.173l-2.988-0.295l-7.988-0.999
	c-5.725,0-10.334,7.056-13.829,21.168c-3.129,12.614-4.227,24.663-3.295,36.146c0.742,9.051,1.693,17.457,2.848,25.234
	c-0.913,0.154-1.707,0.404-2.349,0.777c-1.997,1.098-3.611,3.911-4.843,8.438c-0.865,3.162-2.446,6.656-4.743,10.484
	c-1.864,3.128-3.745,5.808-5.642,8.037c-2.629-1.93-6.673-5.824-12.132-11.682c-5.924-6.391-10.201-11.649-12.831-15.777
	C43.809,122.232,40.847,119.719,37.219,118.321z M27.502,170.545c0.684-0.529,1.357-1.061,2.016-1.596
	c-0.49,1.497-0.929,2.998-1.29,4.507C27.978,172.488,27.739,171.517,27.502,170.545z M170.468,146.879
	c1.585-1.355,3.051-2.597,4.421-3.744c-0.274,0.479-0.55,0.983-0.826,1.547c-1.764,3.595-2.996,7.871-3.694,12.83
	c-0.121,0.849-0.223,1.692-0.309,2.532c-2.652-1.733-5.511-3.523-8.573-5.37L170.468,146.879z"/>
</svg>
