<?xml version="1.0" encoding="utf-8"?>
<!-- Generator: Adobe Illustrator 16.0.0, SVG Export Plug-In . SVG Version: 6.00 Build 0)  -->
<!DOCTYPE svg PUBLIC "-//W3C//DTD SVG 1.1//EN" "http://www.w3.org/Graphics/SVG/1.1/DTD/svg11.dtd">
<svg version="1.1" id="图层_1" xmlns="http://www.w3.org/2000/svg" xmlns:xlink="http://www.w3.org/1999/xlink" x="0px" y="0px"
	 width="324px" height="371px" viewBox="0 0 324 371" enable-background="new 0 0 324 371" xml:space="preserve">
<path d="M320.863,244.918c-0.833-2.965-4.015-8.179-9.545-15.642c-5.43-7.263-10.511-13.243-15.242-17.94
	c3.532-4.564,7.213-10.328,11.045-17.291c3.465-6.296,5.464-10.561,5.996-12.792c0.467-1.799,0.301-2.882-0.499-3.249
	c-0.7-0.3-1.716,0-3.049,0.899c-1.266,0.8-2.398,1.649-3.397,2.549l-5.298,5.097l4.798-14.642
	c3.165-10.161,4.947-17.091,5.347-20.789c0.2-1.533,0.066-2.499-0.399-2.898c-0.4-0.367-0.983-0.283-1.749,0.25
	c-0.8,0.6-1.499,1.333-2.099,2.199c-0.834,1.199-1.883,3.165-3.148,5.896c0.5-2.898,0.116-4.498-1.149-4.797
	c-1.2-0.267-2.565,0.566-4.099,2.499c-1.299,1.633-2.531,3.548-3.697,5.747c-0.699,1.333-1.949,3.915-3.748,7.746
	c1-4.564,1.466-7.613,1.399-9.146c-0.067-1.199-0.399-1.916-0.999-2.148c-0.733-0.3-1.684,0.167-2.85,1.399
	c-1.998,2.066-4.797,7.113-8.395,15.142l0.999-4.148c0.533-1.999,0.833-3.798,0.899-5.397c0.1-2.166-0.267-3.381-1.1-3.648
	c-0.933-0.267-2.314,0.683-4.147,2.848c-1.666,2.032-3.349,4.631-5.048,7.796l-4.996,10.245l1.248-5.447
	c0.4-1.999,0.65-4.098,0.75-6.296c0.133-2.465-0.316-3.931-1.35-4.397c-0.999-0.467-2.314,0.1-3.947,1.699
	c-1.433,1.399-3.016,3.582-4.748,6.546l-5.246,9.695l1.398-5.297c0.367-1.699,0.6-3.615,0.699-5.747
	c0.134-2.132-0.299-3.548-1.299-4.248l-3.148,0.1c-4.678,2.532-10.378,10.815-17.092,24.814c-0.792-0.984-1.849-1.853-3.158-2.608
	c4.419-3.967,8.521-11.249,12.305-21.856c1.466-4.098,4.58-14.675,9.345-31.733l0.65-2.26c15.583-9.915,27.966-21.635,37.13-35.169
	c3.364-4.964,5.813-9.479,7.346-13.543c1.332-3.564,1.582-5.53,0.75-5.896c-0.767-0.3-2.383,0.266-4.848,1.699
	c-2.636,1.506-5.41,3.605-8.322,6.294c-0.345-3.973-2.165-6.458-5.471-7.444l-5.297,0.3c3.398-4.297,4.598-8.862,3.598-13.692
	c-0.732-3.465-1.499-6.097-2.299-7.896c-0.832-1.766-1.849-3.031-3.048-3.798c-1.1-0.7-3.015-0.85-5.747-0.45
	c-2.432,0.367-4.748,1.016-6.946,1.949c-3.132,1.366-5.946,3.981-8.445,7.846c-1.699,2.599-2.981,5.247-3.849,7.946l-4.396-1.6
	c-2.133-0.666-3.699-0.833-4.698-0.5c-1.565,0.566-3.632,2.832-6.196,6.796c-2.599,3.964-4.048,7.129-4.348,9.495
	c-0.267,2.033,0.184,4.631,1.35,7.796l3.998,8.896c2.631,5.763,4.396,9.911,5.297,12.443c-0.449,1.516-0.991,3.228-1.624,5.135
	c-9.003-16.524-18.788-29.421-29.36-38.667c-4.131-3.598-7.912-6.23-11.344-7.896c-3.031-1.466-5.146-1.916-6.346-1.35
	c-0.767,0.367-0.5,2.982,0.799,7.846c1.467,5.53,3.715,11.36,6.746,17.49c8.623,17.376,19.962,30.03,34.004,37.986
	c-0.832,2.222-1.72,4.565-2.67,7.04l-8.146,20.639c-6.229-2.465-10.993-4.498-14.291-6.097c-7.863-3.765-12.693-7.046-14.492-9.845
	c-2.166-3.431-5.215-5.797-9.146-7.096c-3.698-1.232-7.913-1.416-12.644-0.55c-0.362-0.337-0.726-0.702-1.09-1.093l0.291,0.043
	c3.331-0.133,6.18-1.516,8.545-4.147c2.398-2.632,3.515-5.614,3.348-8.945c-0.166-3.332-1.465-6.13-3.897-8.396
	c-2.499-2.365-5.464-3.381-8.896-3.048c-5.043,0.486-8.391,2.444-10.082,5.84c-1.24-3.305-1.862-6.068-1.862-8.289
	c0-1.866,0.217-3.915,0.65-6.146c0.465-2.419,1.126-4.658,1.967-6.731c1.454-0.489,3.673-1.555,6.678-3.213
	c3.832-2.132,6.18-3.698,7.047-4.697c0.732-0.833,0.666-2.749-0.2-5.747c-0.833-2.865-1.882-5.047-3.148-6.546l1.449,0.05l1.899,1.1
	l6.296,4.397c0.933,0.633,1.499,0.95,1.699,0.95c0.399,0,0.866-0.483,1.399-1.449c4.83-9.095,6.797-19.473,5.896-31.133
	c-0.766-9.995-3.598-20.639-8.495-31.933c-1.899-4.397-3.915-8.362-6.047-11.894c-2.032-3.365-3.814-5.78-5.347-7.246
	c-1-0.933-1.717-1.416-2.149-1.449c-0.433-0.066-0.849,0.233-1.249,0.899c-1.999,3.065-5.081,6.497-9.245,10.295
	c-2.932,2.665-5.264,4.581-6.996,5.747c-6.53-2.032-12.993-2.282-19.39-0.75c-6.197,1.466-11.127,4.298-14.792,8.496
	c-7.996-2.199-15.309-3.615-21.938-4.248l-9.495-0.35c-1.166-0.033-1.866,0.133-2.099,0.5c-0.233,0.333-0.184,1.1,0.15,2.299
	c1.632,6.33,4.614,13.393,8.945,21.188c4.464,8.096,9.362,15.125,14.692,21.089c5.797,6.43,10.278,13.126,13.442,20.089
	c4.298,9.395,6.713,20.089,7.246,32.083c0.058,1.214,0.097,2.434,0.122,3.657c-3.033-0.159-5.822,1.002-8.367,3.489
	c-2.766,2.699-4.064,5.647-3.898,8.845c0.133,2.965,1.349,5.564,3.648,7.796c2.12,2.058,4.507,3.185,7.153,3.404
	c-0.038,0.265-0.068,0.528-0.107,0.794c-4.064,1.066-7.246,2.532-9.544,4.397c-3.198,2.632-5.214,6.347-6.047,11.144
	c-0.833,4.831-3.082,11.111-6.747,18.84c-3.698,7.862-7.629,14.593-11.793,20.189l-26.454-20.065
	c5.667-10.764,10.079-21.698,13.211-32.806c3.298-11.894,4.897-22.804,4.797-32.732c-0.133-8.096-0.9-12.293-2.299-12.593
	c-0.466-0.133-1.616,0.7-3.448,2.499c-2.132,2.099-4.298,4.714-6.497,7.846c-6.23,9.062-10.561,19.356-12.993,30.884
	c-1.908,8.985-2.535,18.417-1.913,28.284l-2.335-11.293c-1.399-6.663-2.915-10.994-4.547-12.993c-1.5-1.799-3.381-3.365-5.647-4.697
	c-2.232-1.299-4.214-2.016-5.947-2.149c-1.019-0.081-2.267,0.322-3.738,1.19c-4.382-11.805-10.196-22-17.45-30.574
	c-2.666-3.165-5.181-5.664-7.546-7.496c-2.099-1.632-3.448-2.315-4.048-2.049c-1.299,0.566-1.416,4.548-0.35,11.944
	c1.172,8.533,3.756,16.97,7.73,25.312c-0.555,0.029-1.057,0.113-1.484,0.274c-4.098,1.599-6.779,4.981-8.045,10.145
	c-1.399,5.764-0.033,11.427,4.098,16.991c1.066,1.433,1.849,2.066,2.349,1.899c0.5-0.167,0.983-1.2,1.449-3.099
	c0.333-1.333,0.833-2.615,1.5-3.848c0.566-1.066,1.049-1.766,1.449-2.099c1.999-0.333,4.147,0.117,6.446,1.349
	c-3.998,1.766-6.546,4.415-7.646,7.946c-1.066,3.499-0.483,7.146,1.749,10.944c1.5,2.465,3.981,4.964,7.446,7.496
	c1.932,1.433,3.231,1.916,3.898,1.449c0.666-0.467,0.883-2.015,0.649-4.647l-0.15-2.748c-0.1-2.799,0.35-4.848,1.349-6.147
	l1.949,3.348l3.398,5.797c1.333,1.833,2.799,2.849,4.398,3.048c4.364,0.533,7.363,1.5,8.995,2.898
	c20.355,17.425,36.463,27.319,48.324,29.685l3.148,0.149c1.232-0.466,2.599-1.832,4.098-4.098l3.898-6.496l5.897-9.744
	c2.599-4.231,4.897-7.563,6.896-9.995l-4.147,18.84l-3.798,2.749c-13.126,9.428-22.421,16.757-27.885,21.987
	c-9.961,9.562-15.308,18.341-16.042,26.336c-0.2,1.999-0.25,3.897-0.15,5.697c0.2,4.831,1.466,9.411,3.798,13.742
	c0.799,1.499,2.832,4.548,6.097,9.146c1.899,2.731,3.015,4.48,3.348,5.247c-0.8,0.666-3.415,1.832-7.846,3.498l-12.394,4.697
	c-10.546,4.317-17.731,7.576-21.57,9.78c-2.693,0.461-5.398,1.409-8.114,2.863c-2.332,1.299-4.081,2.564-5.247,3.798
	c-0.633,0.699-0.799,1.3-0.5,1.799c0.233,0.433,0.799,0.733,1.699,0.899l5.597,0.4l4.758-0.215c-0.685,0.657-1.334,1.337-1.91,2.063
	c-1.266,1.599-2.066,3.048-2.399,4.348c-0.2,0.767-0.167,1.249,0.1,1.449l1.999,0.149l9.095-1.398l5.692-1.198l2.409,0.736
	c-1.363,1.935-2.232,3.521-2.604,4.759c-0.3,1-0.25,1.633,0.15,1.899c0.467,0.267,1.749,0.283,3.848,0.05
	c1.433-0.166,4.264-0.933,8.495-2.299l7.046-2.498l0.209-0.185l1.041,0.084c1.232,0,2.332-0.316,3.298-0.949
	c2.132-1.433,4.181-3.198,6.147-5.298c0.933-1.065,4.831-4.164,11.694-9.295c6.796-5.063,10.744-7.861,11.843-8.395
	c2.099-0.967,2.516-2.666,1.25-5.098c-1.932-3.531-2.382-7.646-1.349-12.344c1-4.73,3.098-8.162,6.296-10.294
	c5.764-3.831,14.942-5.897,27.535-6.196c13.726,8.729,28.085,13.692,43.077,14.892c4.338,0.364,8.407,0.41,12.221,0.15
	c-3.406,5.319-6.4,11.178-8.973,17.59c-2.666,6.563-4.182,11.86-4.548,15.892c-0.167,1.666,0.083,2.766,0.75,3.299l1.849,0.149
	c1.966-0.933,4.131-2.731,6.496-5.397c2.266-2.531,4.531-5.664,6.797-9.395c-1.033,3.031-1.648,5.746-1.85,8.146
	c-0.066,1.366,0.134,2.231,0.6,2.599c0.7,0.566,2.083,0.017,4.148-1.649c1.898-1.565,4.564-4.764,7.996-9.595l5.734-8.338
	c0.025,0.295,0.05,0.591,0.063,0.893c0.166,3.864-0.217,7.729-1.15,11.594c-0.566,2.299-1.266,4.381-2.098,6.246
	c-0.4,0.933-0.518,1.815-0.351,2.648c0.134,0.767,0.517,1.416,1.149,1.949c0.899,0.766,2.082,2.049,3.549,3.848
	c2.064,2.532,4.146,5.53,6.246,8.995c0.699,1.133,1.433,3.065,2.199,5.797l1.599,6.196c0.999,3.531,2.099,6.181,3.298,7.946
	c1.566,2.332,4.049,4.414,7.446,6.247l1.128,0.544c0.234,0.392,0.596,0.777,1.121,1.155c3.098,2.031,7.445,4.28,13.043,6.746
	c2.365,0.999,3.781,1.299,4.248,0.898c0.533-0.398,0.35-1.766-0.551-4.098c-0.399-1.047-0.801-2.015-1.202-2.941l2.171-0.215
	c2.061,1.491,4.682,2.86,7.877,4.106c2.532,0.966,4.998,1.732,7.396,2.299l2.299,0.1c0.232-0.267,0.1-1.099-0.4-2.499
	c-0.382-1.096-0.876-2.246-1.482-3.45c1.63,1.172,3.702,2.058,6.23,2.651l2.299,0.15c0.399-0.234,0.416-0.967,0.049-2.199
	c-0.791-2.832-2.272-5.636-4.428-8.411c-0.321-1.471-1.836-3.743-4.566-6.831c-2.732-3.098-7.113-7.529-13.143-13.293
	l-12.094-11.543c-4.365-4.265-7.08-7.264-8.146-8.996c-0.299-0.399-0.449-0.916-0.449-1.549c-0.133-2.732,2.016-8.045,6.446-15.941
	c0.091-0.162,0.173-0.316,0.263-0.479c2.146,2.147,6.353,5.537,12.631,10.174c9.561,7.063,17.023,11.061,22.388,11.993
	c2.132,0.366,3.481,0.134,4.048-0.7c0.4-0.566,0.449-1.699,0.15-3.397c-0.467-2.766-3.766-7.813-9.896-15.142l6.547,5.396
	c2.032,1.466,4.597,2.849,7.696,4.148c1.332,0.6,2.448,0.516,3.348-0.25c1.066-0.9,1.133-2.499,0.199-4.798
	c-1.398-3.531-4.497-9.095-9.295-16.69c-4.464-6.963-8.678-13.061-12.643-18.291c6.529,6.03,12.926,11.295,19.189,15.792
	c5.53,3.931,9.328,6.18,11.395,6.746c1.766,0.5,3.031,0.417,3.797-0.25c0.733-0.633,0.95-1.732,0.65-3.298
	c-0.267-1.399-2.049-4.514-5.348-9.346c-2.631-3.897-5.58-7.979-8.845-12.242c4.931,3.83,9.194,6.762,12.793,8.795
	c5.297,3.031,8.662,3.831,10.095,2.398c0.433-0.434,0.649-1.116,0.649-2.049c-0.1-2.432-2.165-6.514-6.196-12.244
	c-2.965-4.264-6.78-9.128-11.444-14.592c4.531,3.832,8.163,6.73,10.895,8.695c3.498,2.499,6.496,4.231,8.995,5.197
	c2.665,1,4.53,0.934,5.597-0.199c1.033-1.1,0.982-2.849-0.149-5.248c-1-2.064-2.615-4.58-4.848-7.545l-6.297-7.946
	c6.264,3.831,11.011,5.997,14.242,6.497C320.93,249.148,321.696,247.85,320.863,244.918z M223.683,190.428
	c0.474,2.194,1.725,5.371,3.781,9.564c-6.33-5.598-10.777-9.028-13.343-10.295c-1.366-0.699-2.416-0.85-3.148-0.449
	c-0.766,0.4-0.982,1.216-0.649,2.449c0.267,1.032,0.815,2.265,1.649,3.697l1.4,2.452c-0.167,0-0.332-0.01-0.502-0.003
	c-0.354,0.015-0.71,0.062-1.068,0.124c-4.469-4.071-7.931-6.112-10.388-6.129c-0.949-1.618-1.86-3.167-2.73-4.64
	c0.71-0.723,1.363-1.638,1.944-2.799c0.898-1.865,1.315-3.665,1.248-5.397c-0.063-1.338-0.369-2.617-0.866-3.847
	c0.86,0.474,1.729,0.967,2.616,1.499l13.543,9.145l4.697,3.398L223.683,190.428z"/>
</svg>
