<?xml version="1.0" encoding="utf-8"?>
<!-- Generator: Adobe Illustrator 16.0.0, SVG Export Plug-In . SVG Version: 6.00 Build 0)  -->
<!DOCTYPE svg PUBLIC "-//W3C//DTD SVG 1.1//EN" "http://www.w3.org/Graphics/SVG/1.1/DTD/svg11.dtd">
<svg version="1.1" id="图层_1" xmlns="http://www.w3.org/2000/svg" xmlns:xlink="http://www.w3.org/1999/xlink" x="0px" y="0px"
	 width="108px" height="169px" viewBox="0 0 108 169" enable-background="new 0 0 108 169" xml:space="preserve">
<path d="M107.389,95.252c0-1.262-1.593-2.707-4.775-4.334c-0.298-0.811-0.639-1.599-1.021-2.363c0.267-0.406,0.523-0.83,0.758-1.286
	c0.599-1.298,0.781-2.212,0.549-2.745c-0.166-0.399-1.082-0.482-2.744-0.25c-1.498,0.233-2.762,0.549-3.793,0.948
	c3.061-5.056,4.125-8.033,3.193-8.932l-2.545,0.2c-0.934,0.283-1.767,0.636-2.517,1.046c0.642-5.704-0.477-11.408-3.37-17.113
	c-3.627-7.118-9.198-12.142-16.716-15.068c-5.929-2.31-12.384-2.999-19.361-2.082c4.683-4.054,7.979-10.957,9.881-20.722
	c0.765-3.858,1.131-7.334,1.098-10.428c-0.066-3.027-0.466-4.657-1.197-4.89c-2.462-0.799-6.304,1.131-11.526,5.788
	c-5.489,4.89-8.915,9.93-10.279,15.119C39.13,16.964,31.563,8.781,20.319,3.592c-4.125-1.896-8.05-3.044-11.776-3.443
	C5.117-0.217,3.055,0.116,2.356,1.147c-0.565,0.898-0.616,2.611-0.15,5.139C2.739,9.08,3.803,12.141,5.4,15.467
	c4.125,8.648,10.229,15.967,18.312,21.955c-4.424-0.965-9.314-0.682-14.669,0.848c-5.256,1.497-8.15,3.326-8.682,5.489
	c-0.233,0.898,0.449,2.162,2.046,3.792c1.63,1.63,3.759,3.21,6.387,4.74c6.005,3.453,11.696,5.072,17.078,4.893
	c-4.109,4.01-7.158,8.732-9.145,14.167c-3.36,9.181-2.911,17.846,1.347,25.996c2.628,5.057,6.736,8.781,12.325,11.177
	c0.203,0.086,0.418,0.154,0.624,0.236c-1,0.55-1.975,1.18-2.919,1.909c-1.464,1.131-2.195,1.963-2.195,2.494
	c0,0.6,0.632,1.132,1.896,1.598c1.364,0.498,3.127,0.798,5.289,0.898c-1.663,1.098-2.977,2.244-3.942,3.442
	c-0.965,1.164-1.347,2.046-1.147,2.645c0.166,0.466,0.898,0.749,2.195,0.849c1.463,0.1,3.11-0.133,4.94-0.699
	c-0.798,0.998-1.431,2.013-1.896,3.044c-0.465,1.064-0.615,1.78-0.449,2.146c0.199,0.466,0.998,0.632,2.395,0.499l3.892-0.798
	c-0.399,0.798-0.665,1.547-0.798,2.244c-0.166,0.766-0.149,1.298,0.05,1.598c0.333,0.365,1.364,0.266,3.093-0.3
	c1.83-0.599,3.56-1.446,5.189-2.544c0.207-0.138,0.396-0.293,0.598-0.437c4.443,6.857,10.811,10.635,19.111,11.313
	c2.366,0.182,4.707,0.108,7.025-0.21c-1.089,2.843-1.901,4.465-2.436,4.851c-0.698,0.564-3.442,1.33-8.232,2.295l-1.709,0.366
	c-4.288-0.122-6.976,0.136-8.021,0.781c-1.176,0.711-2.075,2.794-2.704,6.211c-0.095,0.18-0.197,0.339-0.29,0.525
	c-1.165,2.362-1.597,3.925-1.297,4.69c0.299,0.765,1.414,0.865,3.343,0.299c1.154-0.318,2.087-0.751,2.848-1.271
	c-0.587,1.859-0.692,2.939-0.303,3.218l3.941-0.249c1.193-0.419,2.143-0.896,2.9-1.42c-0.957,2.825-1.065,4.505-0.306,5.012
	l3.044-0.149c0.797-0.297,1.452-0.651,1.991-1.052c-0.392,1.688-0.331,2.813,0.204,3.348c0.432,0.432,1.38,0.266,2.844-0.5
	c1.342-0.698,2.786-1.771,4.323-3.183c-0.082,0.298-0.16,0.609-0.231,0.938c-0.566,2.628-0.482,4.208,0.249,4.74
	c0.632,0.466,1.913,0.066,3.843-1.197c1.962-1.265,3.775-2.911,5.438-4.94c0.732-0.864,2.911-2.594,6.537-5.189l5.688-4.19
	c0.864-0.565,1.913-0.782,3.144-0.649l3.842,0.5c0.565,0.033,0.898-0.1,0.998-0.4c0.299-0.631-0.35-1.945-1.946-3.941
	c-1.597-2.063-2.978-3.26-4.142-3.592c-0.599-0.167-1.763,0.049-3.492,0.648c-1.697,0.599-2.711,0.832-3.044,0.698
	c-0.161-0.749,0.661-6.254,2.464-16.494c4.586-4.386,7.859-10.343,9.811-17.885c0.519-1.975,0.898-3.876,1.156-5.713l0.44-0.075
	c1.099-0.398,1.714-0.881,1.847-1.447c0.133-0.598-0.184-1.446-0.948-2.545c-0.304-0.436-0.624-0.821-0.954-1.178
	c0-0.671-0.02-1.331-0.06-1.979c0.725-0.337,1.369-0.712,1.911-1.134C106.939,96.5,107.389,95.851,107.389,95.252z M84.746,134.771
	l-1.256,9.398c-0.442-0.444-0.988-0.724-1.648-0.818l-3.243,0.101l2.682-7.108C82.442,135.884,83.598,135.363,84.746,134.771z"/>
</svg>
