<?xml version="1.0" encoding="utf-8"?>
<!-- Generator: Adobe Illustrator 16.0.0, SVG Export Plug-In . SVG Version: 6.00 Build 0)  -->
<!DOCTYPE svg PUBLIC "-//W3C//DTD SVG 1.1//EN" "http://www.w3.org/Graphics/SVG/1.1/DTD/svg11.dtd">
<svg version="1.1" id="图层_1" xmlns="http://www.w3.org/2000/svg" xmlns:xlink="http://www.w3.org/1999/xlink" x="0px" y="0px"
	 width="239px" height="259px" viewBox="0 0 239 259" enable-background="new 0 0 239 259" xml:space="preserve">
<path d="M238.523,106.321c-0.234-0.767-1.584-1.15-4.051-1.15c-2.367,0-5.268,0.367-8.702,1.1c2.034-4.167,2.867-6.535,2.501-7.102
	c-0.234-0.333-1.201-0.183-2.9,0.45c-1.625,0.605-3.656,1.54-6.072,2.783c-5.552-3.759-14.09-8.053-25.635-12.885
	c-10.902-4.601-17.253-6.852-19.053-6.751c-2.701,0.133-9.836,2.484-21.404,7.051c-10.697,4.234-17.646,7.295-20.863,9.188
	c-0.742-4.141-1.054-8.643-0.941-13.498c1.009-0.463,1.918-1.034,2.701-1.741c1.199-1.067,1.5-2.667,0.899-4.801
	c-0.484-1.679-1.368-3.341-2.634-4.988c0.013-0.089,0.021-0.174,0.033-0.263c1.367-9.969-1.316-17.604-8.051-22.904
	c-3.874-3.043-7.947-4.841-12.22-5.398c6.431-6.01,8.995-14.009,7.668-24.007c-0.467-3.434-1.334-6.718-2.601-9.852
	c-1.067-2.634-1.834-3.984-2.301-4.051c-1.233-0.167-3.184,1.784-5.851,5.851c-2.797,4.303-4.475,8.707-5.061,13.208
	c-2.812-7.686-8.605-14.34-17.393-19.958c-3.434-2.167-6.935-3.917-10.502-5.251c-3.001-1.167-4.685-1.601-5.051-1.301
	c-0.233,0.2-0.35,1.301-0.35,3.301c0,2.434,0.3,5.001,0.9,7.702c1.625,7.479,5.061,13.874,10.265,19.211
	c-5.367-2.427-11.802-3.317-19.316-2.658c-3.234,0.3-6.268,0.833-9.102,1.6c-2.434,0.667-3.718,1.167-3.851,1.5
	c-0.2,0.467,0.567,1.833,2.3,4.101c2.134,2.768,4.785,5.285,7.952,7.552c9.35,6.72,20.618,9.382,33.793,8.009
	c-4.885,3.31-7.504,7.805-7.838,13.495c-0.4,6.868,2.467,16.153,8.602,27.855c1.933,3.66,3.413,8.096,4.449,13.291l-10.95-0.338
	l-10.202-1.2c-6.668-1.467-13.252-3.284-19.754-5.451c-5.768-1.934-10.568-3.834-14.403-5.701c0.7-2.4,1.217-5.018,1.55-7.852
	c0.3-2.767,0.267-4.284-0.1-4.551c-0.333-0.233-1.534,0.017-3.601,0.75c-1.322,0.46-2.6,0.979-3.848,1.539
	c0.058-3.102,0.008-6.61-0.153-10.54c-0.333-7.335-0.967-11.252-1.9-11.752l-0.8,0.05c-3.534,2.734-5.935,7.118-7.201,13.153
	c-0.945,4.525-1.123,9.1-0.542,13.724l-1.208,0.529c-0.802,0.292-1.567,0.516-2.304,0.687c0.121-0.224,0.228-0.463,0.304-0.737
	c0.967-3.301,1.65-9.619,2.05-18.954c0.434-9.602,0.1-14.47-1-14.603c-1.034-0.1-2.451,0.934-4.251,3.101
	c-1.533,1.839-2.726,3.868-3.593,6.079c-0.202-1.27-0.42-2.47-0.657-3.578l-0.25-0.45l-0.45,0.1c-2.201,1-4.134,3.567-5.801,7.701
	c-1.82,4.503-2.604,9.439-2.375,14.799c-1.368-0.634-2.251-0.839-2.626-0.596c-0.633,0.4-0.667,1.934-0.1,4.601
	c0.767,3.4,2.434,7.251,5.001,11.552c-1.967,0.333-4.051,1.167-6.251,2.5c-2.201,1.3-3.301,2.367-3.301,3.201
	c0,1.1,3.801,1.967,11.402,2.601c-0.733,1.233-1.351,2.617-1.851,4.15c-0.467,1.5-0.7,2.75-0.7,3.751c0,1.133,0.184,1.784,0.55,1.95
	l1.35-0.35c1.234-0.767,3.101-1.583,5.601-2.45l0.139-0.046c0.592,3.771,1.411,5.621,2.461,5.497c1.021-0.093,2.64-1.176,4.84-3.224
	c3.362,2.454,8.244,5.36,14.664,8.725c9.869,5.167,16.187,7.567,18.954,7.201c5.368-0.7,13.219-2.484,23.555-5.351
	c8.779-2.42,15.247-4.435,19.407-6.046c0.186,4.091,0.157,8.353-0.104,12.797c-3.401-0.366-6.385-0.317-8.952,0.149
	c-2.034,0.367-3.167,0.817-3.401,1.351c-0.167,0.4,0.167,1.167,1,2.301c0.892,1.198,2.243,2.62,4.013,4.245
	c-2.5,1.414-3.763,2.354-3.763,2.807c0,0.467,1.084,1.05,3.251,1.75c-3.067,3.234-5.068,5.751-6.001,7.551
	c-0.667,1.101-0.483,1.584,0.55,1.451l5.386-0.662c-5.16,2.151-9.576,5.352-13.238,9.613c-4.268,4.968-6.401,10.068-6.401,15.303
	c0,6.004,1.785,11.2,5.343,15.597c-0.846,2.211-1.87,4.56-3.093,7.058c-2,4.102-4.017,7.535-6.051,10.303
	c-2.067,2.801-5.117,5.284-9.151,7.451c-3.901,2.101-7.401,3.217-10.502,3.351c-3.401,0.134-5.701,0.517-6.901,1.15
	c-0.954,0.462-1.808,1.455-2.563,2.969c-1.126,0.156-2.404,1.272-3.838,3.382c-1.9,2.801-3,5.936-3.301,9.402v0.05
	c0,0.501,0.233,0.65,0.7,0.45c2.73-1.016,5.398-2.5,8.008-4.423c0.371,0.4,0.802,0.645,1.294,0.722c0.6,0.134,1.134-0.033,1.601-0.5
	c1.919-1.919,4.318-2.965,7.185-3.158c-0.19,0.747-0.349,1.685-0.474,2.821c-0.35,0.58-0.703,1.235-1.06,1.987
	c-1.7,3.701-1.75,7.068-0.15,10.103c0.267,0.5,1.617-0.384,4.051-2.651c0.905-0.856,1.675-1.639,2.315-2.352
	c0.412,0.249,1.032,0.34,1.885,0.252c0.934-0.1,1.65-0.334,2.15-0.7l2.55-2.45l3.851-3.951c2.558-2.558,6.227-3.529,10.986-2.942
	c-0.081,1.232-0.289,2.269-0.634,3.093c-0.955,2.26-0.265,3.904,2.031,4.949c0.213,2.011,0.88,3.567,2.02,4.652
	c0.933,0.9,1.784,1.316,2.55,1.25c1.1-0.033,2.134-0.867,3.101-2.5c0.859-1.415,1.39-3.063,1.597-4.938
	c0.5-0.343,0.889-0.856,1.153-1.563c0.333-1,0.3-1.95-0.1-2.85c-0.566-1.168-0.85-2.435-0.85-3.801l-0.05-2.051
	c-0.067-0.6-0.267-1.084-0.6-1.45c-1.174-1.231-2.212-2.486-3.128-3.763l1.528-4.539c0.7-1.834,0.833-3.301,0.4-4.4
	c-0.3-0.901-1.27-2.199-2.896-3.885c0.099-0.188,0.188-0.375,0.296-0.566c1.772-3.131,4.188-5.512,7.241-7.151
	c2.159,0.589,4.425,0.899,6.812,0.899c7.101,0,13.103-1.533,18.003-4.6c4.668-2.931,7.829-6.975,9.513-12.111
	c0.855,0.57,1.761,1.125,2.74,1.658c1.696,0.946,3.345,1.708,4.948,2.305c1.749,4.562,4.599,8.311,8.554,11.248
	c4.034,2.968,8.885,4.951,14.553,5.951c2.626,0.457,5.099,0.658,7.423,0.607c2.084,3.281,3.482,5.802,4.18,7.545
	c1.075,2.639,1.813,6.016,2.22,10.119c-0.071,0.105-0.144,0.213-0.22,0.332c-0.227,0.35-0.475,0.688-0.736,1.021
	c-1.899,1.048-3.408,1.597-4.515,1.629c-1.334,0.067-2.283,0.234-2.851,0.5c-0.601,0.301-1.134,0.851-1.601,1.65
	c-1.133,1.9-1.783,3.117-1.949,3.651c-0.334,0.866-0.301,1.684,0.1,2.45c0.5,1.033,1.2,1.951,2.1,2.75l0.351,0.201l0.3-0.351
	l1.451-1.501c0.51-0.437,0.983-0.737,1.423-0.909c0.475,0.744,1.171,1.481,2.127,2.21l4.436,2.729
	c0.077,0.786,0.116,1.772,0.116,2.972c0,2,0.216,3.268,0.649,3.801c0.421,0.512,1.624,1.078,3.594,1.698
	c1.604,4.029,3.47,6.673,5.608,7.903l0.699-0.15c0.834-1.199,1.434-2.366,1.801-3.5c0.334-1.1,0.566-2.567,0.7-4.4
	c0-0.003,0-0.006,0.001-0.01c1.67-1.905,2.823-3.454,3.449-4.642c0.347-0.654,0.563-1.258,0.676-1.823l3.275,0.173
	c1.734,0.333,4.367,1.05,7.902,2.15c4.667,1.434,7.885,2.301,9.651,2.601l3.813-0.087c0.081,0.063,0.153,0.124,0.238,0.187
	c4.001,2.935,6.302,4.518,6.901,4.752c0.533,0.166,0.85,0.033,0.95-0.4l0.25-3.051l-0.15-3.15c-0.102-0.491-0.235-0.971-0.389-1.443
	c0.868-0.42,1.503-0.935,1.907-1.544c0.585,0.46,1.255,0.906,2.032,1.337c2.4,1.334,4.701,2.066,6.901,2.2l0.551-0.05v-0.551
	c-0.234-1.267-0.784-2.717-1.65-4.351c-0.867-1.634-1.852-3.117-2.951-4.45c-0.466-0.569-0.917-1.042-1.357-1.445l0.008-0.006
	c-0.534-1.232-1.584-2.383-3.151-3.45c-0.899-0.667-1.817-1.534-2.751-2.601c-0.934-1.033-1.916-1.733-2.949-2.101l-3.502-0.3
	l-15.103-0.801c-2-0.366-4.751-1.149-8.251-2.35l-4.404-1.594c-1.166-2.526-2.332-5.905-3.498-10.158
	c-1.187-4.457-1.992-8.551-2.438-12.298c1.838-1.836,3.421-3.886,4.739-6.156c2.101-3.634,3.234-7.368,3.4-11.202
	c0.334-6.568-1.6-13.002-5.801-19.304c-0.979-1.474-2.074-2.915-3.273-4.327c0.567-0.903,1.126-1.841,1.674-2.824
	c2.267-4.001,4.133-8.219,5.601-12.652l1.399-4.801c0.134-0.7,0.067-1.184-0.199-1.451l-1.951-0.049l-1.391,0.302
	c0.234-0.281,0.481-0.581,0.741-0.902c2.367-2.9,3.801-4.518,4.301-4.851l1.25,3.65c0.4,1,0.784,1.5,1.15,1.5
	c0.467,0,1.184-0.584,2.15-1.75l1.779-2.483c1.071,1.902,2.229,3.997,3.472,6.284c3.467,6.4,5.484,10.402,6.051,12.002
	c0.134,0.467,0.4,0.533,0.801,0.2c2.2-1.8,3.167-5.585,2.9-11.353c-0.052-1.119-0.16-2.23-0.299-3.338l0.349-2.013
	c0.434-1.934,0.917-3.417,1.45-4.451l4.348,0.641c2.501,3.588,5.768,7.59,9.805,12.013c0.768,0.833,1.334,1.199,1.701,1.1
	c0.196-0.053,0.34-0.274,0.44-0.642c3.389-5.2,4.901-10.968,4.511-17.312c-0.264-4.126-1.287-7.92-3.039-11.397
	c1.887-1.024,4.047-2.54,6.489-4.556C237.373,108.704,238.756,107.087,238.523,106.321z M180.502,139.594l-3.841,0.834l-7.964,1.708
	c-1.54-1.202-3.434-2.604-5.689-4.209c4.068-1.9,5.984-3.167,5.752-3.801c-0.134-0.366-1.484-0.65-4.051-0.851l-7.136,0.186
	c0.664-1.124,1.162-2.187,1.484-3.186c0.333-0.967,0.399-1.567,0.2-1.801l-4.9,0.2c-2.703,0.59-4.997,1.376-6.918,2.343
	c-0.102-0.14-0.212-0.287-0.334-0.442c-4.134-5.554-7.414-11.029-9.858-16.427c11.733-1.736,19.712-2.347,23.911-1.826
	c0.733,0.067,3.801,1.6,9.201,4.601l8.502,4.924c-0.38,0.33-0.762,0.668-1.15,1.027c-1.967,1.833-2.834,3.017-2.6,3.55l3.6,0.35
	l5.201,0.4c-1.133,1.967-2.084,4.917-2.85,8.852C180.774,137.49,180.588,138.68,180.502,139.594z"/>
</svg>
