<?xml version="1.0" encoding="utf-8"?>
<!-- Generator: Adobe Illustrator 16.0.0, SVG Export Plug-In . SVG Version: 6.00 Build 0)  -->
<!DOCTYPE svg PUBLIC "-//W3C//DTD SVG 1.1//EN" "http://www.w3.org/Graphics/SVG/1.1/DTD/svg11.dtd">
<svg version="1.1" id="图层_1" xmlns="http://www.w3.org/2000/svg" xmlns:xlink="http://www.w3.org/1999/xlink" x="0px" y="0px"
	 width="361px" height="410px" viewBox="0 0 361 410" enable-background="new 0 0 361 410" xml:space="preserve">
<path d="M360.2,374.283c-1.432-0.732-2.481-1.35-3.147-1.85c-0.833-0.633-4.03-2.348-9.594-5.146l-10.143-4.996
	c0.933-0.333,5.113-1.532,12.541-3.598c6.729-1.998,9.594-3.264,8.595-3.797c-1-0.533-6.18-1.582-15.54-3.148l-17.588-2.897
	l6.596-1.499l5.696-1.249c2.198-0.633,3.314-1.05,3.348-1.249c0.066-0.3-1.466-0.732-4.597-1.299l-30.779-5.597
	c-16.921-28.28-26.781-45.568-29.579-51.864c-0.267-8.827-1.315-17.805-3.147-26.932c-1.699-8.427-3.115-12.707-4.248-12.84
	c-0.666-0.101-1.598,1.016-2.797,3.348l-4.848,8.793c-0.999-2.73-2.964-5.929-5.896-9.594l-8.394-9.793l-4.348-5.546
	c8.561,0.233,15.39-3.081,20.486-9.942l6.395-0.7c1.6-0.466,2.516-1.199,2.748-2.198c0.234-0.899-1.281-2.115-4.546-3.647
	c-4.897-2.298-13.19-4.979-24.883-8.044l-15.239-10.793l-14.49-9.793c-1.266-2.198-3.082-4.28-5.446-6.246
	c-1.832-1.565-4.197-3.181-7.095-4.847c-7.895-4.563-13.208-8.111-15.939-10.643l0.535-3.622l0.164,0.324
	c2.065,4.064,3.248,6.212,3.548,6.446c0.499,0.333,1.232-3.564,2.198-11.692l7.395,9.793c5.064,6.829,7.861,10.26,8.395,10.293
	c0.566,0.033,0.883-1.715,0.949-5.247l0.15-5.246l3.897,3.048c2.364,1.932,3.548,2.648,3.548,2.148l-1.899-5.396
	c-1.165-2.965-1.532-4.414-1.099-4.347l11.492,1.199l19.137,14.49c11.658,8.694,18.77,13.674,21.334,14.94
	c5.797,2.865,9.361,3.714,10.693,2.548c1.199-1,0.616-3.281-1.749-6.846l3.848,3.598c6.528,5.929,11.209,7.878,14.04,5.846
	c2.865-1.965,0.55-7.528-6.945-16.688c3.664,3.931,6.362,6.545,8.095,7.844c1.898,1.399,3.431,1.815,4.597,1.25
	c2.065-1,2.182-5.163,0.35-12.492c-2.231-8.827-7.028-20.269-14.39-34.326c-0.289-0.554-0.591-1.095-0.883-1.646
	c1.402-3.748,3.259-8.538,5.579-14.393l7.045,16.289l6.945,15.739l1.549,2.948c0.434,0.4,0.55-0.783,0.35-3.547l-1.898-19.037
	l-1.748-16.838l7.095,7.095c1.199,1.199,1.849,1.782,1.948,1.749c0.2-0.067,0.2-1.066,0-2.998l-1.049-6.396
	c-0.5-2.565-0.75-4.181-0.75-4.847v-0.05l4.197,2.648l4.447,2.798c1.065,0.6,1.665,0.883,1.799,0.85
	c0.267-0.1,0.116-0.783-0.45-2.049l-3.797-8.994l-3.048-7.695l9.493,4.447c1.865,0.899,2.848,1.349,2.948,1.349
	c0.267-0.034-0.101-0.85-1.1-2.449l-7.895-11.342c-4.53-6.196-7.928-10.293-10.193-12.292c0.633-2.199,2.35-5.28,5.147-9.244
	s5.046-6.479,6.745-7.545c5.596-3.564,8.86-6.012,9.793-7.345l0.8-1.599l0.199-1.399c0.134-1.466,0.316-2.548,0.55-3.248
	c0.533-1.532,0.8-2.782,0.8-3.748c0-1.432-0.733-2.715-2.198-3.847l-1.35-1.349l-0.8-1.149c-1.165-1.499-2.515-2.232-4.047-2.198
	c-0.134,0.004-0.256,0.021-0.387,0.028c-1.069-1.625-3.233-3.25-6.509-4.875c-2.031-1.033-2.765-0.899-2.198,0.399
	c0.421,0.902,0.966,3.339,1.631,7.282c-0.229,0.254-0.439,0.525-0.632,0.813c-0.532,0.833-0.799,1.765-0.799,2.798
	c0,0.799,0.183,1.699,0.55,2.698c-0.367,1-0.899,1.565-1.6,1.699c-0.832,0.233-1.615-0.05-2.348-0.85
	c-0.899-0.866-2.116-3.314-3.647-7.345c-1.6-4.297-2.266-7.211-1.999-8.744c1.065-5.962-0.134-9.66-3.598-11.092
	c-1.299-0.533-2.599-1.333-3.897-2.398c-1.1-0.866-1.932-1.666-2.498-2.398c-1.766-2.465-4.047-3.964-6.846-4.497
	c-2.831-0.533-5.362,0.033-7.594,1.699c-1.666,1.266-4.364,2.748-8.095,4.447l-2.499,1.199c-1.065,0.651-1.654,2.174-1.773,4.56
	c-0.711,0.234-1.402,0.643-2.073,1.236c-0.151,0.129-0.29,0.267-0.432,0.404c-0.352-0.104-0.693-0.193-1.018-0.254
	c-1.632-0.267-3.298-0.067-4.996,0.6c-1.366,0.533-2.515,1.432-3.448,2.698l-1.398,2.498l-0.85,1.799l-0.949,1.549l-2.248,2.099
	c-1.865,1.766-2.965,3.098-3.299,3.997c-0.666,1.766-0.283,4.147,1.15,7.145c0.073,0.15,0.174,0.291,0.26,0.436
	c-0.271,3.457,0.186,6.364,1.389,8.708c0.666,1.299,1.166,1.948,1.499,1.948c0.499,0,0.899-1.116,1.198-3.348
	c0.134-0.866,0.484-1.832,1.05-2.898c0.084-0.173,0.164-0.315,0.246-0.466c0.675,0.21,1.357,0.357,2.052,0.416
	c2.799,0.267,5.264-0.983,7.396-3.748l3.248,0.899l1.448,1.149l1.75,1.898c0.766,0.7,1.531,1.583,2.298,2.648l1.799,2.998
	c-1.3,2.032-2.165,4.197-2.599,6.496c-0.5,2.632-0.383,5.263,0.35,7.895c-3.497,0.7-8.76,2.249-15.789,4.647
	c-3.733,1.349-6.545,2.364-8.442,3.046c-29.846-37.237-52.702-59.759-68.565-67.556l7.855-12.937l0.9-2.149
	c0.166-0.833-0.084-1.449-0.75-1.849l-2.348,0.05c-1.066,0.366-2.032,1.032-2.898,1.999l-10.302,13.042
	c-2.301-0.191-4.884-0.184-7.786,0.048c-6.596,0.566-12.775,2.082-18.538,4.547c-4.097,1.766-7.428,4.164-9.993,7.195
	c-2.465,2.898-4.547,6.746-6.246,11.542c-1.382,3.909-2.821,8.331-4.316,13.254c-19.64-14.88-30.779-23.215-33.408-24.996
	c-1.599-1.132-2.748-1.399-3.448-0.799c-0.6,0.6-0.899,1.565-0.899,2.898c0,0.267,0.367,1.033,1.1,2.298
	c0.666,1.199,9.577,9.077,26.731,23.634l0.1,0.05l-2.048,0.1l-1.799,0.2c-0.333,0.133,1.049,1.699,4.147,4.697l5.662,5.329
	c-0.069,0.253-0.14,0.512-0.209,0.767l-3.354,3.397l-0.849,1.149c-0.1,0.333,0.133,0.666,0.699,1l1.761,0.927
	c-2.953,11.177-6.087,24-9.406,38.495c-0.941,4.124-1.82,8.045-2.638,11.767c-0.402-0.146-0.948-0.304-1.66-0.475
	c-4.063-1.199-7.278-2.082-9.643-2.648l7.345-2.198c2.199-0.733,3.365-1.183,3.498-1.349c0.167-0.3-1.032-0.55-3.597-0.75
	l-21.885-1.149l-22.285-0.899c-0.133-1.432-0.6-2.964-1.399-4.597l-2.349-3.947c-1.466-2.099-2.198-3.531-2.198-4.297l0.05-3.148
	c-0.133-2.432-0.633-4.58-1.499-6.445l1.349-0.4c1.965,1.066,3.581,1.349,4.847,0.85c0.389-0.16,0.771-0.375,1.148-0.619
	c0.099,0.116,0.198,0.23,0.301,0.369c0.5,0.666,0.816,1.282,0.95,1.849l0.75,2.298c0.2,0.3,0.516,0.233,0.949-0.2
	c1.299-1.232,1.932-2.948,1.898-5.146c0-1.432-0.258-2.783-0.746-4.061c0.14-0.318,0.261-0.631,0.346-0.936
	c0.233-0.799,0.133-1.632-0.3-2.498l-1.699-2.349c-1.066-1.366-1.749-2.365-2.049-2.998c-0.666-1.532-1.532-2.748-2.598-3.647
	c-0.966-0.766-1.882-1.149-2.748-1.149c-1.399,0-4.347,0.45-8.844,1.349c-1.732,0.366-3.398,1.166-4.997,2.398
	c-1.632,1.199-2.915,2.631-3.848,4.297c-0.007,0.013-0.011,0.029-0.018,0.042c-0.11-0.114-0.213-0.231-0.332-0.342
	c-1.004-0.945-2.022-1.6-3.053-1.994c-0.334-0.862-0.763-1.762-1.294-2.703c-1.399-2.499-3.897-3.397-7.495-2.698l-3.198-0.15
	l-5.346-1.099l-2.548,0.3c-1.766,0.733-2.798,2.415-3.098,5.046c-0.267,2.465-1.349,4.73-3.248,6.795
	c-0.799,0.899-1.382,1.815-1.749,2.748C0.183,87.715,0,88.98,0,90.479c0,1.066,0.333,2.165,1,3.298
	c0.699,1.132,1.615,2.132,2.748,2.998c1.132,0.833,2.715,2.665,4.747,5.496c2.432,3.364,3.664,5.929,3.697,7.694
	c-0.7-0.07-1.432,0.01-2.191,0.223l-1.356-4.07l-1.399-0.05c-1.532,1.599-2.515,3.414-2.948,5.446
	c-0.195,1.018-0.242,1.912-0.169,2.705c-0.533,0.643-0.973,1.304-1.28,1.992c-0.2,0.466-0.3,0.982-0.3,1.549
	c0,0.866,0.167,1.865,0.5,2.998c0.333,1.166,0.75,2.132,1.249,2.898c1.532,2.398,3.148,3.664,4.847,3.797
	c3.931,0.266,8.478,1.315,13.641,3.147c4.83,1.732,8.078,3.331,9.743,4.797c0.466,2.498,1.516,6.595,3.148,12.292l2.848,9.394
	l0.799,1.949c0.2,0.1,0.433-0.566,0.7-1.999l1.299-8.044c1.532,2.631,5.713,10.892,12.542,24.783
	c0.766,1.465,1.232,2.198,1.399,2.198s0.267-0.799,0.3-2.398l0.3-6.146l12.941,15.04c2.099,2.398,3.331,3.448,3.698,3.148
	c0.366-0.3,0.033-1.899-1-4.797l-6.196-17.638l9.543,5.346c1.666,0.966,2.715,1.333,3.148,1.099c0.433-0.233,0.183-1.016-0.75-2.348
	l-2.848-4.297l17.788,7.895c1.139,0.485,1.985,0.786,2.559,0.916c0.179,4.937,0.874,9.197,2.088,12.775
	c1.232,3.598,2.648,5.596,4.247,5.996c0.799,0.233,1.682-0.15,2.648-1.149c1.1-1.199,1.965-2.948,2.598-5.247l-0.05,2.898
	c0,3.531,0.05,5.796,0.15,6.795c0.045,0.564,0.114,1.057,0.202,1.492l-9.495,7.852c-19.687,16.289-31.029,25.949-34.026,28.98
	c-1.266,1.299-2.099,5.279-2.499,11.941c-0.267,4.164-0.399,11.459-0.399,21.885l-0.2,33.777
	c-0.266,21.318-0.649,35.075-1.149,41.271c-1.699,2.164-6.212,6.428-13.541,12.791l-11.342,9.742c-0.899,0.8-1.399,1.5-1.499,2.1
	c-0.133,0.766,0.616,0.832,2.249,0.199c3.231-1.232,8.561-3.015,15.989-5.346l-3.048,2.797l-2.898,2.499
	c-1.299,1.065-2.015,1.882-2.148,2.448l2.298-0.1c1.632-0.699,4.48-1.749,8.544-3.148l8.294-2.798l-5.896,8.044
	c-2.998,4.131-4.53,6.529-4.597,7.195c-0.067,0.699,5.463-1.799,16.588-7.494c11.592-6.096,17.821-9.36,18.687-9.793
	c-1.066,4.463-2.032,7.744-2.898,9.843c-0.633,1.632-0.866,2.581-0.7,2.848c0.267,0.466,1.482-0.316,3.647-2.349l7.345-7.694
	c2.598-2.897,4.164-4.413,4.697-4.547l4.547,3.997l4.397,3.647c0.833,0.667,1.315,0.983,1.449,0.95
	c0.3-0.067,0.483-0.867,0.55-2.398l-0.15-5.396c-0.133-2.133-0.167-3.432-0.1-3.897l14.44,4.597
	c8.761,2.698,13.041,3.614,12.841,2.748c-0.2-0.832-1.632-2.798-4.297-5.896l-5.497-6.295l8.894,2.448l8.744,2.599
	c1.565,0.533,2.381,0.648,2.448,0.35c0.066-0.233-0.433-0.949-1.499-2.148c-0.8-0.866-2.215-2.032-4.247-3.498l-5.046-3.647
	l8.644,1.649l7.645,1.698l2.298,0.05c0-0.399-0.633-1.115-1.899-2.148c-0.933-0.766-2.648-1.865-5.146-3.297l-5.596-3.348
	l21.885,1.148l3.498-0.15c0.366-0.266-0.666-0.949-3.098-2.048c-2.731-1.267-8.96-3.813-18.687-7.646l-14.39-5.596l-5.596-16.588
	c-3.531-10.959-5.996-20.119-7.395-27.481c1.766-2.765,3.647-7.278,5.646-13.54c2.265-7.129,3.681-13.741,4.247-19.837
	c0.233-2.665-0.167-3.947-1.199-3.847c-0.999,0.1-3.048,1.564-6.146,4.396c-1.399,1.266-2.998,2.415-4.797,3.447
	c-1.765,1.033-3.098,1.566-3.997,1.6c-0.766-1.999-1.399-3.414-1.899-4.248c-0.1-0.133,11.592-10.509,35.076-31.128
	c-0.2,2.897-0.1,4.997,0.3,6.296c0.2,0.732,1.549-0.65,4.047-4.147l4.896-7.245l1.25,8.694c0.666,4.364,1.232,6.412,1.699,6.146
	c0.466-0.232,1.499-2.348,3.098-6.346l2.798-7.295c26.481,28.314,40.322,44.037,41.521,47.168l35.574,96.582l-9.992,7.445
	c-6.096,4.631-8.678,7.045-7.744,7.245c0.932,0.2,3.064,0.149,6.395-0.149l6.695-0.8l-11.392,11.842
	c-6.763,7.095-10.826,11.592-12.191,13.49c-1.565,2.166-2.149,3.314-1.749,3.448c0.267,0.1,1.565-0.366,3.897-1.399l24.433-10.992
	l-2.648,5.146c-1.232,2.465-2.015,4.197-2.348,5.196c-0.3,0.999,2.082-0.467,7.145-4.396l9.244-7.445l-1,10.343
	c-0.466,5.663-0.449,8.777,0.051,9.344c0.533,0.533,3.215-2.432,8.044-8.894l7.995-10.992l2.798,5.496
	c1.532,2.897,2.498,4.363,2.897,4.396c0.4,0.066,1.449-1.615,3.148-5.047l3.147-6.146l7.095,10.043
	c4.364,6.263,7.063,9.927,8.095,10.992l2.148,2.299l0.149-3.397c-0.066-1.966-0.565-5.13-1.498-9.494l-1.799-8.145
	c13.99,10.294,22.001,16.057,24.033,17.289c0.899,0.532-0.033-3.198-2.798-11.193l-4.997-14.14l13.241,5.796
	c8.094,3.598,12.907,5.696,14.439,6.296l3.598,1.449c0.134-0.067-0.649-1.315-2.349-3.747c-1.498-2.133-4.28-5.48-8.344-10.043
	l-6.995-7.846l16.639,1l19.137,1.148C359.668,374.933,360.733,374.75,360.2,374.283z M279.356,36.067
	c0.566,0.233,1.449,1.116,2.648,2.648c1.332,1.666,2.415,3.348,3.247,5.046c1,1.899,1.5,3.698,1.5,5.396
	c0,0.833-0.15,1.499-0.45,1.999c-0.399,0.733-1.099,1.116-2.099,1.149c-1.998,0.2-5.229-4.281-9.693-13.441
	C276.375,38.599,277.99,37.666,279.356,36.067z M272.418,126.334l2.892-3.377l0.523,9.225
	C274.711,130.216,273.571,128.268,272.418,126.334z M248.219,90.87c-0.332-0.427-0.655-0.865-0.99-1.29
	c-0.501-0.633-0.995-1.25-1.492-1.875c2.335,0.094,4.702,0.15,7.139,0.127L248.219,90.87z M28.845,85.224l1.584,0.559l1.215,0.463
	c0.091,0.522,0.197,1.087,0.334,1.736c0.533,2.564,0.716,4.347,0.549,5.346c-0.267,1.266-0.833,2.148-1.699,2.648
	c-1.499,0.733-3.481,0.55-5.946-0.549c-3.864-1.599-5.796-3.548-5.796-5.846l0.05-0.35c2.065,0.5,3.914,0.35,5.546-0.45
	c1.432-1,2.315-1.616,2.648-1.849C28,86.491,28.503,85.92,28.845,85.224z M123.515,173.872l0.034,7.93
	c-0.544,0.389-1.045,0.748-1.5,1.076L123.515,173.872z M100.178,135.69c-3.858-1.916-6.31-3.147-7.342-3.689l2.498-0.65l3.897-0.699
	l2.108-0.491C100.934,132.063,100.546,133.909,100.178,135.69z M93.585,168.275l-2.632-3.171c1.422,0.565,2.743,1.082,3.98,1.558
	c-0.103,1.167-0.168,2.213-0.196,3.134C94.429,169.356,94.051,168.855,93.585,168.275z M102.61,124.281
	c-0.44,2.011-0.862,3.963-1.265,5.854l-2.113-0.983c-2.099-0.866-5.197-1.832-9.294-2.898l11.342-1.699
	C101.818,124.464,102.257,124.373,102.61,124.281z"/>
</svg>
