<?xml version="1.0" encoding="utf-8"?>
<!-- Generator: Adobe Illustrator 16.0.0, SVG Export Plug-In . SVG Version: 6.00 Build 0)  -->
<!DOCTYPE svg PUBLIC "-//W3C//DTD SVG 1.1//EN" "http://www.w3.org/Graphics/SVG/1.1/DTD/svg11.dtd">
<svg version="1.1" id="图层_1" xmlns="http://www.w3.org/2000/svg" xmlns:xlink="http://www.w3.org/1999/xlink" x="0px" y="0px"
	 width="132px" height="166px" viewBox="0 0 132 166" enable-background="new 0 0 132 166" xml:space="preserve">
<path d="M131.35,104.474c0.033-0.965-1.246-2.462-3.841-4.49c-2.395-1.896-4.489-3.209-6.286-3.94
	c1.197-1.23,2.512-3.176,3.941-5.837c1.563-2.96,2.012-4.756,1.348-5.388c-0.633-0.666-2.811-0.333-6.535,0.998
	c-3.251,1.196-5.328,2.191-6.26,2.992c-1.443-4.568-3.89-8.877-7.359-12.92c-6.239-7.317-13.749-11.579-22.523-12.8
	c1.057-13.64,1.498-24.294,1.321-31.948C84.689,11.751,81.314,1.491,75.028,0.36c-4.557-0.831-7.351,6.569-8.382,22.2
	c-0.982,14.647-0.116,28.078,2.581,40.304c-7.439,1.14-14.187,4.762-20.24,10.879c-5.459,5.554-8.534,11.047-9.232,16.481
	c-0.704-0.415-1.417-0.822-2.142-1.216c-0.643-0.347-1.245-0.649-1.821-0.925c-2.26-4.888-5.982-10.065-11.199-15.538
	c-6.286-6.618-11.175-9.295-14.667-8.032c-3.858,1.397-6.635,5.82-8.331,13.27C0.132,84.17-0.334,91.27,0.198,99.086
	c0.599,7.882,2.395,16.113,5.388,24.693c3.492,9.978,7.516,16.546,12.073,19.705c2.033,1.385,4.616,1.707,7.746,0.978
	c-0.852,5.125-0.607,8.758,0.734,10.896c0.931,1.497,2.927,2.395,5.986,2.694c2.27,0.223,4.025,0.021,5.27-0.6
	c0.201,2.448,0.804,4.179,1.814,5.188c1.064,1.064,2.993,1.646,5.787,1.746c2.627,0.066,4.224-0.216,4.789-0.848
	c0.632-0.765,0.981-2.678,1.047-5.736c0.036-1.954,0.789-4.5,2.246-7.624c0.016,1.073,0.155,2.181,0.448,3.333
	c0.466,1.863,1.131,3.26,1.996,4.191c1.131,1.264,3.359,1.813,6.685,1.646c3.326-0.166,5.389-0.897,6.186-2.194
	c0.434-0.732,0.217-2.645-0.648-5.737l-1.5-5.003c1.555-0.305,3.006-0.693,4.374-1.149c1.354,1.199,3.021,3.792,5.01,7.798
	l3.541,7.384c1.265,1.729,3.792,2.71,7.584,2.943c3.791,0.233,6.002-0.433,6.635-1.995c0.232-0.6,0.249-1.497,0.049-2.694
	l-0.848-3.343c-0.864-3.126-1.363-6.584-1.496-10.376c-0.199-4.623-0.449-7.948-0.748-9.978c-0.419-3.138-1.107-5.53-2.063-7.191
	c5.172-1.079,9.817-2.888,13.937-5.43c1.814-1.118,3.402-2.307,4.767-3.564c3.217,2.479,6.087,4.205,8.603,5.16
	c1.963,0.766,3.442,0.998,4.439,0.699c0.965-0.299,1.197-2.494,0.699-6.586c-0.339-2.818-0.881-5.175-1.617-7.092
	C127.197,108.346,131.284,106.169,131.35,104.474z"/>
</svg>
