<?xml version="1.0" encoding="utf-8"?>
<!-- Generator: Adobe Illustrator 16.0.0, SVG Export Plug-In . SVG Version: 6.00 Build 0)  -->
<!DOCTYPE svg PUBLIC "-//W3C//DTD SVG 1.1//EN" "http://www.w3.org/Graphics/SVG/1.1/DTD/svg11.dtd">
<svg version="1.1" id="图层_1" xmlns="http://www.w3.org/2000/svg" xmlns:xlink="http://www.w3.org/1999/xlink" x="0px" y="0px"
	 width="203px" height="217px" viewBox="0 0 203 217" enable-background="new 0 0 203 217" xml:space="preserve">
<path d="M200.453,92.52l-3.596-2.896c0.666-1.232,0.949-2.314,0.85-3.246c-0.101-0.666-0.483-1.498-1.148-2.497
	c-0.767-1.132-1.981-2.364-3.646-3.695c-1.531-1.265-3.046-2.297-4.544-3.096c-1.599-0.833-3.013-1.232-4.245-1.199
	c-1.231,0.067-2.098,0.566-2.597,1.499c-0.966-0.699-2.663-1.465-5.094-2.297c-2.131-0.766-3.995-1.298-5.593-1.598
	c-1.065-0.2-1.798-0.2-2.197,0c-0.5,0.233-0.865,0.866-1.1,1.898c-0.557,2.534-1.361,5.051-2.409,7.551l-0.502-0.126
	c-1.033-7.373-4.981-14.178-11.87-20.409c-8.789-7.923-19.477-12.301-32.061-13.134c-1.062-0.072-2.105-0.11-3.141-0.132
	c0.059-5.379,0.755-13.521,2.092-24.438c1.398-11.453,2.598-18.511,3.596-21.174c0.566-1.564,0.783-2.53,0.649-2.896
	c-0.233-0.533-1.132-0.666-2.696-0.399c-9.389,1.631-17.762,4.994-25.12,10.087C82.299,19.842,73.21,34.391,68.815,53.967
	c-1.898,8.49-1.814,16.746,0.25,24.77c0.457,1.806,1.006,3.55,1.631,5.242l-0.283,0.101c-6.292,2.297-10.087,3.762-11.386,4.395
	l-2.047,0.949c-0.766,0.433-1.132,0.849-1.099,1.249c0.066,0.632,1.448,1.381,4.145,2.247c1.004,0.344,6.366,1.493,16.064,3.442
	c0.86,1.79,1.882,3.527,3.112,5.197c2.299,3.159,5.135,5.899,8.479,8.244c-1.054,0.307-2.077,0.634-3.067,0.98
	c-11.553-5.999-21.919-12.948-31.081-20.86c-8.323-7.158-14.083-13.566-17.279-19.226c-1.765-3.196-3.413-5.427-4.944-6.692
	c-1.565-1.298-3.346-1.881-5.344-1.748c-1.931,0.1-3.712,0.516-5.343,1.248c-1.864,0.833-2.963,1.881-3.296,3.146
	c-2.93-0.1-5.427,0.683-7.491,2.347C4.645,73.06,2.88,76.605,4.544,79.635c-1.032,0.965-1.931,2.014-2.697,3.146
	C0.749,84.413,0.133,85.978,0,87.476v0.949c0,1.698,0.399,3.246,1.199,4.645c1.198,2.097,3.446,4.395,6.742,6.891
	c5.072,3.882,10.274,7.512,15.598,10.902c-1.981-0.815-3.689-1.194-5.111-1.114c-3.895,0.233-6.775,2.081-8.639,5.543
	c-1.532,2.863-2.563,7.309-3.096,13.334c-0.6,6.292,0.283,13.633,2.646,22.023c2.697,9.588,6.592,17.195,11.686,22.821
	c4.095,4.528,8.173,6.892,12.235,7.091c2.297,0.134,4.745-0.532,7.341-1.997c2.364-1.332,5.393-3.679,9.089-7.042
	c1.509-1.382,2.862-2.712,4.085-4c0.572,2.187,1.306,4.221,2.207,6.098c2.131,4.428,5.394,8.373,9.788,11.836
	c0.766,1.432,1.565,5.01,2.397,10.736c0.433,3.13,1.032,6.076,1.798,8.84c0.799,2.996,1.631,5.109,2.497,6.342
	c1.432,2.064,3.712,3.496,6.841,4.295c2.73,0.666,4.844,0.699,6.342,0.1l1.648-1.099l1.298-1.349l5.244-3.146l5.543-3.195
	l8.889-6.242c4.295-3.297,8.073-6.691,11.336-10.188c1.1-1.192,2.142-2.409,3.139-3.646c0.905,0.97,1.824,1.575,2.755,1.799
	c2.963,0.666,6.625-1.615,10.986-6.842c3.994-4.794,7.623-10.854,10.887-18.178c3.361-7.523,5.31-14.133,5.842-19.826
	c0.402-4.308-0.113-7.465-1.538-9.482c7.702-1.288,14.991-3.731,21.863-7.346c7.291-3.862,14.815-9.738,22.572-17.629
	c1.065-1.099,2.28-2.73,3.646-4.894c1.564-2.563,2.613-4.811,3.146-6.742l0.1-1.148C203,95.482,202.15,94.117,200.453,92.52z
	 M136.664,135.419c1.035,0.022,2.063,0.026,3.086,0.012c-0.883,0.572-1.817,1.214-2.808,1.931
	C136.863,136.701,136.768,136.056,136.664,135.419z M35.007,117.688c9.823,5.405,18.765,9.241,26.831,11.518
	c-1.059,1.554-2.083,3.168-3.06,4.862c-0.956,1.666-1.784,3.303-2.529,4.92c-4.959-6.386-11.069-12.587-18.346-18.604
	c-1.691-1.399-3.295-2.658-4.814-3.781C33.728,116.966,34.364,117.333,35.007,117.688z"/>
</svg>
