<?xml version="1.0" encoding="utf-8"?>
<!-- Generator: Adobe Illustrator 16.0.0, SVG Export Plug-In . SVG Version: 6.00 Build 0)  -->
<!DOCTYPE svg PUBLIC "-//W3C//DTD SVG 1.1//EN" "http://www.w3.org/Graphics/SVG/1.1/DTD/svg11.dtd">
<svg version="1.1" id="图层_1" xmlns="http://www.w3.org/2000/svg" xmlns:xlink="http://www.w3.org/1999/xlink" x="0px" y="0px"
	 width="286px" height="248px" viewBox="0 0 286 248" enable-background="new 0 0 286 248" xml:space="preserve">
<path d="M282.408,31.362c-1.266-0.066-7.408,8.939-18.428,27.017c-12.119,19.875-19.826,31.528-23.123,34.957
	c-2.596-7.657-4.678-14.948-6.241-21.873c-1.332-5.793-2.414-8.64-3.246-8.54c-0.999,0.099-2.729,3.862-5.194,11.286
	c-7.191,21.74-14.765,39.002-22.722,51.786c-0.321,0.512-0.641,1.001-0.962,1.495c-2.729-6.024-6.187-12.131-10.428-18.325
	c-4.926-7.258-7.823-13.817-8.688-19.676c-0.333-2.464-0.5-5.676-0.5-9.638l0.2-12.535c0.033-9.688-1.914-18.627-5.844-26.817
	c-0.859-1.786-1.784-3.482-2.773-5.091l2.773,0.098c7.957,1.132,15.131,2.813,21.523,5.044c4.828,1.664,10.021,3.945,15.581,6.841
	c1.498,0.699,2.515,1.215,3.046,1.548c1.766,1.099,2.863,2.314,3.297,3.646c0.467,1.431,0.5,2.863,0.1,4.294
	c-0.565,1.898-1.897,3.046-3.994,3.446l-2.547-0.35c-0.9-0.4-1.581-0.966-2.049-1.698c-0.565-0.832-0.781-1.797-0.647-2.896
	c0.101-1.099,0.517-1.864,1.248-2.297c1.231-0.732,2.297-0.915,3.194-0.549c0.834,0.366,1.117,0.932,0.851,1.698
	c-0.233,0.633-0.101,1.05,0.399,1.249c0.498,0.199,0.849,0.033,1.049-0.5c0.599-1.498,0.199-2.78-1.198-3.845
	c-1.433-1.032-2.931-1.232-4.495-0.599c-1.531,0.632-2.564,1.914-3.097,3.845c-0.565,1.997-0.332,3.779,0.698,5.343
	c0.533,0.8,1.35,1.498,2.447,2.098c1.133,0.599,2.264,0.899,3.396,0.899c1.299,0,2.381-0.2,3.246-0.6
	c0.799-0.4,1.564-1.015,2.297-1.848c1.564-1.931,1.98-4.361,1.248-7.291l-1.299-3.995l-0.998-2.796
	c-1.531-5.094-2.43-8.656-2.697-10.687c-0.532-3.929,0.068-6.759,1.799-8.49c3.662-3.662,8.605-5.576,14.832-5.743
	c4.96-0.166,9.637,0.699,14.032,2.597c1.298,0.566,2.247,0.316,2.847-0.749c0.6-1.033,0.533-1.782-0.199-2.248
	C234.329,10.619,218.382,4.16,203.301,1.497c-13.75-2.464-25.186-1.532-34.309,2.796c-3.129,1.498-6.292,4.228-9.488,8.19
	c-1.463,1.818-2.704,3.723-3.768,5.697c-4.134-2.153-8.679-3.876-13.659-5.145c-9.522-2.397-18.794-2.646-27.816-0.749
	c-8.589,1.798-16.396,5.593-23.421,11.386c-0.201,0.165-0.384,0.337-0.582,0.503c-1.674-1.755-3.493-3.291-5.463-4.6
	c-4.094-2.73-8.539-4.311-13.333-4.744c-9.789-0.866-19.976,1.548-30.563,7.241c-13.484,7.225-27.05,19.476-40.7,36.755
	c-0.533,0.666-0.333,1.398,0.599,2.197c0.932,0.766,1.898,0.666,2.898-0.299c3.396-3.197,7.607-5.577,12.634-7.142
	c6.093-1.897,11.486-1.747,16.18,0.45c2.198,1.032,3.646,3.412,4.345,7.141l0.849,10.787v2.996c0,1.598,0.05,2.996,0.15,4.195
	c0.366,3.129,1.615,5.26,3.745,6.392c0.966,0.532,1.881,0.849,2.747,0.949c0.965,0.066,2.064-0.117,3.296-0.55
	c1.032-0.399,1.981-1.081,2.846-2.047c0.832-0.932,1.348-1.864,1.548-2.796c0.433-1.864,0.05-3.628-1.148-5.293
	c-1.199-1.664-2.63-2.497-4.295-2.497c-2.397,0.033-3.845,1.048-4.345,3.046c-0.467,1.897,0,3.446,1.398,4.644
	c1.232,1.066,2.064,1.232,2.497,0.5c0.433-0.765,0.116-1.548-0.949-2.347c-0.7-0.499-0.866-1.248-0.5-2.247
	c0.366-1.033,1.249-1.399,2.647-1.099c0.833,0.167,1.482,0.749,1.948,1.748c0.499,0.965,0.632,1.931,0.399,2.896
	c-0.2,0.832-0.649,1.598-1.348,2.297c-0.7,0.666-1.449,1.066-2.248,1.199c-2.097,0.366-3.728-0.25-4.894-1.848
	c-0.899-1.199-1.381-2.564-1.448-4.095c-0.066-1.365,0.55-2.879,1.848-4.544l2.297-2.497c4.495-4.96,8.573-8.989,12.235-12.085
	c5.361-4.562,11.503-8.723,18.428-12.485c0.196-0.105,0.413-0.203,0.614-0.306c-2.397,7.111-3.488,14.271-3.259,21.48
	c0.267,7.924,2.147,16.197,5.643,24.82c1.65,4.056,1.943,9.407,0.879,16.051c-0.341-0.087-0.689-0.19-1.028-0.272
	c-8.156-1.964-16.629-1.149-25.418,2.447c-8.922,3.629-15.165,8.94-18.727,15.931c-6.393,12.719-6.759,24.602-1.099,35.656
	c6.358,12.486,19.559,21.324,39.601,26.518c4.214,1.086,8.468,1.853,12.757,2.337c1.374,1.82,2.814,3.473,4.321,4.955
	c0.234,0.233-1.248,0.732-4.444,1.498c-4.694,1.099-8.456,2.132-11.286,3.097c-11.419,3.861-17.695,8.906-18.827,15.131
	c-1.032,5.628-0.699,9.64,0.999,12.035c1.831,2.565,5.177,3.08,10.038,1.549c33.858-10.92,52.286-17.129,55.282-18.627
	c0.865-0.434,1.581-1.614,2.147-3.545c0.599-1.965,0.732-3.713,0.399-5.244c7.158,2.197,14.782,3.213,22.872,3.046
	c7.592-0.134,14.233-1.248,19.927-3.347l0.899,3.996c0.631,3.029,1.48,5.276,2.547,6.741c1.33,1.831,7.922,7.591,19.774,17.278
	c12.319,10.055,19.376,15.166,21.174,15.332c3.364,0.299,6.243-0.416,8.64-2.146c2.365-1.732,3.863-4.113,4.494-7.143
	c1.5-7.225-1.848-14.449-10.037-21.674c-5.326-4.728-10.619-9.022-15.881-12.885c-3.662-2.662-5.459-4.028-5.394-4.095
	c2.597-2.264,5.41-5.577,8.438-9.938c2.963-4.328,4.994-7.975,6.094-10.938c3.861-10.654,4.128-22.256,0.799-34.807
	c-0.021-0.077-0.047-0.154-0.067-0.231c5.371-4.204,9.858-7.857,13.451-10.954c3.363-2.897,8.822-7.925,16.38-15.083l11.485,10.188
	c7.791,6.791,12.053,10.087,12.784,9.887c2.264-0.531,5.095-6.242,8.49-17.128c3.063-9.721,5.975-21.524,8.738-35.407
	c2.73-13.817,4.494-25.535,5.297-35.155C284.955,36.855,284.404,31.495,282.408,31.362z M76.158,118.256l-4.245,13.982
	c-1.532,5.428-2.397,10.021-2.597,13.783c-0.333,6.026,1.165,13.934,4.495,23.722c1.671,4.899,3.54,9.294,5.602,13.193
	c-18.966-4.281-31.467-12.135-37.463-23.583c-2.43-4.66-3.612-9.653-3.545-14.98c0.066-4.596,1.049-8.906,2.946-12.936
	c3.363-7.157,9.089-11.852,17.179-14.083c5.476-1.509,11.518-1.777,18.116-0.829C76.489,117.097,76.33,117.67,76.158,118.256z"/>
</svg>
