<?xml version="1.0" encoding="utf-8"?>
<!-- Generator: Adobe Illustrator 16.0.0, SVG Export Plug-In . SVG Version: 6.00 Build 0)  -->
<!DOCTYPE svg PUBLIC "-//W3C//DTD SVG 1.1//EN" "http://www.w3.org/Graphics/SVG/1.1/DTD/svg11.dtd">
<svg version="1.1" id="图层_1" xmlns="http://www.w3.org/2000/svg" xmlns:xlink="http://www.w3.org/1999/xlink" x="0px" y="0px"
	 width="409px" height="339px" viewBox="0 0 409 339" enable-background="new 0 0 409 339" xml:space="preserve">
<path d="M405.803,314.781c-1.565-2.297-4.146-4.495-7.743-6.594c-5.328-3.063-8.591-5.111-9.79-6.143
	c-3.613-3.017-6.538-7.045-8.785-12.069c2.874-5.236,4.22-11.938,4.035-20.107c0.086-0.063,0.188-0.121,0.254-0.192
	c2.032-2.131,2.365-7.409,1-15.834c-1.632-9.957-5.512-19.231-11.639-27.823c-2.323-3.255-4.778-6.223-7.354-8.932
	c6.401-13.913,9.651-33.363,9.752-58.353c0.166-28.705-4.413-55.246-13.736-79.622c-10.058-26.274-24.41-46.455-43.059-60.541
	c-10.623-8.025-22.095-13.637-34.416-16.833c-6.493-1.665-11.173-1.815-14.036-0.45c-1.998,0.966-3.164,2.781-3.497,5.445
	c-1.398,11.456-2.946,26.874-4.646,46.255c-1.57,17.572-2.801,29.833-3.693,36.814c-1.254,0.205-2.712,0.5-4.398,0.898
	c3.03-2.864,3.313-4.262,0.85-4.196c-2.231,0.133-9.191,1.432-20.88,3.896c-13.254,2.764-23.61,5.278-31.07,7.542
	c-0.052-0.042-0.103-0.072-0.155-0.112c-2.09-1.596-4.252-2.93-6.485-4.006c-2.2-10.842-2.491-21.491-0.852-31.946
	c0.933-6.061,3.18-14.419,6.744-25.075c3.697-11.056,5.478-19.581,5.345-25.575c-0.101-5.162-1.566-8.108-4.396-8.841
	c-4.295-1.132-9.89,0.966-16.783,6.294c-7.526,5.861-13.537,13.537-18.033,23.027c-7.958,16.85-12.421,33.317-13.387,49.402
	c-0.135,2.263-0.191,4.509-0.187,6.744c-11.015,0.743-20.934,3.128-29.734,7.192c-6.061,2.824-11.708,6.245-16.953,10.249
	C94.462,89.246,81.995,78.292,70.68,72.469c-12.621-6.527-23.494-9.558-32.618-9.091c-8.292,0.4-13.653,3.463-16.084,9.191
	c-1.698,3.963-0.732,8.176,2.897,12.638c3.297,3.996,9.557,9.042,18.782,15.135c7.326,4.862,14.286,10.557,20.879,17.083
	c6.794,6.696,12.821,13.921,18.092,21.664c-2.325,4.626-3.822,9.189-4.489,13.688c-5.491,3.287-12.762,7.995-21.845,14.149
	c-11.855,8.059-20.447,14.369-25.775,18.931c-1.432,1.266-1.915,2.248-1.449,2.947c0.466,0.732,1.698,1.016,3.696,0.85
	c6.427-0.467,13.271-1.549,20.53-3.247c-4.462,3.63-8.875,7.792-13.237,12.487c-4.695,5.195-3.963,7.227,2.198,6.095
	c6.561-1.165,16.817-3.963,30.77-8.392c11.256-3.597,19.198-6.311,23.827-8.143c0.556,0.218,1.082,0.4,1.589,0.562l-0.141-0.012
	c3.931,1.773,8.069,3.173,12.407,4.212c-2.416,2.391-4.374,5.988-5.863,10.823c-0.899,2.931-1.665,6.011-2.298,9.241
	c-0.966,2.331-2.714,5.128-5.245,8.392c-2.88,3.729-6.065,7.008-9.524,9.881c-2.48,0.122-5.682,0.778-9.657,2.007
	c-8.292,2.531-15.651,6.711-22.079,12.539c-4.462,4.063-8.092,8.725-10.889,13.986c-0.629,1.205-1.161,2.35-1.616,3.447
	l-6.127,4.045c-2.264,1.598-4.579,3.529-6.943,5.794l-6.194,5.046c-6.294,5.061-12.005,10.455-17.133,16.184
	c-5.261,5.861-7.625,9.59-7.093,11.189c0.732,2.131,1.965,3.763,3.696,4.895c0.933,0.633,2.082,1.183,3.447,1.648l-0.15,0.799
	c-0.033,0.6,0.1,1.199,0.399,1.799c0.999,1.932,3.563,3.713,7.692,5.345c3.53,1.398,6.377,2.064,8.542,1.998
	c3.197-0.101,5.544-1.665,7.043-4.695c1.132-2.265,3.164-5.079,6.094-8.442c2.697-3.097,5.111-5.494,7.243-7.192
	c-0.766,2.53-1.482,5.312-2.148,8.342c-0.833,3.829-1.249,6.776-1.249,8.841c0,1.532,0.1,2.631,0.299,3.297
	c0.4,1.299,1.266,2.182,2.598,2.648c2.897,0.998,6.344,1.498,10.34,1.498c4.596-0.033,8.226-0.85,10.89-2.447
	c2.564-1.532,4.046-3.363,4.445-5.495c3.097-16.351,5.745-25.542,7.942-27.573c7.359-2.33,13.77-5.678,19.231-10.04
	c5.628-4.495,9.99-9.874,13.087-16.134c2.198-4.496,5.478-13.188,9.84-26.074c3.63-10.856,6.494-17.617,8.592-20.281
	c2.93-3.662,6.394-6.943,10.39-9.84c2.631-1.932,4.979-3.38,7.043-4.346c5.213,1.572,9.428,3.062,12.687,4.47
	c3.179,3.778,6.292,7.699,9.342,11.762c-0.329,1.421-1.155,2.952-2.498,4.599c-0.999,1.231-3.43,3.646-7.293,7.242
	c-0.721,0.679-1.442,1.371-2.163,2.065c-3.592,1.11-7.02,3.06-10.275,5.877c-3.863,3.33-6.943,7.376-9.241,12.138
	c-2.398,4.963-3.597,9.957-3.597,14.986c0.03,5.062,1.277,9.687,3.709,13.883c-0.003,0.368-0.013,0.729-0.013,1.102l0.1,3.247
	l0.35,7.144c0,3.163-0.849,6.061-2.547,8.691c-1.665,2.564-3.93,4.495-6.793,5.794c-10.823,4.896-16.601,9.641-17.333,14.236
	c-0.6,3.729,1.748,6.36,7.043,7.892c0.633,4.463,5.511,6.611,14.636,6.444c4.596-0.066,9.774-0.782,15.535-2.147
	c2.697,1.864,7.893,2.58,15.585,2.147c8.325-0.499,14.153-2.348,17.483-5.544c3.197-3.064,6.344-7.51,9.44-13.338
	c1.965-3.596,3.663-7.242,5.095-10.939c0.866-2.23,1.399-4.279,1.599-6.144c0.2-1.632,0.133-2.897-0.2-3.796
	c-1.299-3.53-1.699-6.627-1.199-9.291c0.6-3.131,2.464-5.928,5.595-8.393c3.63-2.863,7.81-5.444,12.538-7.742
	c3.818-1.858,7.717-3.391,11.692-4.606c5.003,0.345,10.478,0.313,16.425-0.099c-2.561,6.775-3.842,11.957-3.842,15.545
	c0,3.03,1.149,5.611,3.447,7.742c2.297,2.131,5.494,3.547,9.59,4.246l10.041,0.35c3.43-0.5,5.328-1.549,5.694-3.146
	c0.003-0.013,0.007-0.026,0.01-0.038c1.144,0.673,2.803,1.284,4.985,1.836c3.02,0.729,6.441,1.146,10.225,1.284
	c1.389,1.899,4.656,2.819,9.806,2.762c4.829-0.066,9.79-0.85,14.886-2.348c2.53-0.732,4.712-1.715,6.543-2.947
	c1.744-1.153,2.663-2.229,2.786-3.231l2.06-1.064l1.459-0.912l1.089,1.013c0.001,0.001,0.003,0.002,0.004,0.003
	c-0.294,7.626,0.692,16.076,2.993,25.372c3.396,13.652,8.658,21.229,15.784,22.728c7.227,1.499,13.653,1.781,19.281,0.849
	c4.629-0.766,7.892-2.131,9.79-4.096l10.59,0.949c5.328-0.033,9.175-0.783,11.539-2.248c1.198-0.766,2.031-1.748,2.497-2.947
	c3.33,0.066,6.36-0.516,9.091-1.748c2.631-1.232,4.43-2.814,5.396-4.745C407.768,319.294,407.435,317.146,405.803,314.781z
	 M247.508,108.234l8.74-8.142c0.388-0.367,0.76-0.724,1.118-1.069c-3.074,22.677-5.524,36.072-7.351,40.176l-17.145,3.501
	c-6.605-2.405-13.229-2.208-19.865,0.575c0.718-2.163,1.287-4.339,1.713-6.528c0.206-0.603,0.399-1.266,0.57-2.039
	C225.246,127.981,235.985,119.156,247.508,108.234z"/>
</svg>
