<?xml version="1.0" encoding="utf-8"?>
<!-- Generator: Adobe Illustrator 16.0.0, SVG Export Plug-In . SVG Version: 6.00 Build 0)  -->
<!DOCTYPE svg PUBLIC "-//W3C//DTD SVG 1.1//EN" "http://www.w3.org/Graphics/SVG/1.1/DTD/svg11.dtd">
<svg version="1.1" id="图层_1" xmlns="http://www.w3.org/2000/svg" xmlns:xlink="http://www.w3.org/1999/xlink" x="0px" y="0px"
	 width="195px" height="179px" viewBox="0 0 195 179" enable-background="new 0 0 195 179" xml:space="preserve">
<path d="M191.615,130.693c-1.764,0.632-3.926,0.998-6.487,1.098l-5.19-0.549l2.795-0.399l1.996-0.948
	c0.832-0.532,1.164-0.965,0.998-1.297c-0.166-0.366-0.947-0.533-2.346-0.499c-2.927,0.133-5.605-0.832-8.033-2.895
	c-2.029-1.696-4.309-4.541-6.837-8.533l-3.294-4.94l2.895,0.1c0.965,0.232,1.414,0.133,1.348-0.299
	c-0.898-4.592-2.195-8.65-3.893-12.177c-1.896-3.959-4.158-6.887-6.787-8.782c1.397,0.033,3.16,0.615,5.29,1.746
	c0.998,0.499,1.563,0.682,1.696,0.549c0.267-0.266-0.033-1.514-0.898-3.743c-1.164-2.994-2.928-6.005-5.289-9.032
	c-2.396-3.027-4.791-5.339-7.186-6.937c1.896-0.732,3.709-0.998,5.439-0.798l1.896,0.05c0.167-0.167-0.315-0.666-1.446-1.497
	c-3.561-2.595-6.92-4.375-10.081-5.339c-3.127-0.932-7.02-1.348-11.677-1.248c0.498-0.599,1.896-1.63,4.191-3.094
	c2.362-1.563,3.976-2.462,4.841-2.695c1.131-0.333,1.747-0.615,1.847-0.848c0.133-0.333-0.716-0.582-2.545-0.749
	c-5.756-0.499-10.547-0.25-14.373,0.749c-3.127,0.832-6.486,2.479-10.08,4.94c0.865-1.73,1.946-3.21,3.244-4.441
	c0.998-0.932,1.979-1.63,2.943-2.096c0.898-0.399,1.414-0.765,1.548-1.098c0.1-0.366-0.532-0.499-1.896-0.399
	c-3.027,0.299-5.722,1.048-8.084,2.246c-2.961,1.464-5.673,3.759-8.134,6.886c0-3.293,0.682-6.986,2.045-11.078
	c1.099-3.26,2.163-5.656,3.194-7.186c1.165-1.763,1.58-2.778,1.247-3.044c-0.266-0.266-1.197,0.017-2.794,0.848
	c-9.382,4.891-16.152,11.76-20.311,20.61l-1.846-6.038c-0.699-1.797-1.115-2.678-1.248-2.645c-0.1,0-0.316,0.948-0.649,2.844
	l-1.597,7.585c-0.798,3.194-1.347,4.957-1.647,5.29l-1.646-0.25l-1.597-1.297c-1.464-1.93-2.195-6.288-2.195-13.075l0.299-4.541
	c0.166-2.029,0.216-4.258,0.149-6.687c-0.033-2.661-0.998-5.406-2.894-8.234l-3.493-4.391c0.266-2.728,0.366-6.072,0.299-10.03
	c-0.167-7.885-1.131-15.087-2.895-21.608c-0.233-0.932-1.064-1.048-2.495-0.35C61.57,4.673,54.384,11.044,48.396,19.561
	c-2.096-0.233-4.325-0.266-6.687-0.1c-2.695,0.199-4.957,0.632-6.787,1.297c-3.427-6.753-6.753-11.894-9.98-15.42
	c-2.429-2.628-4.292-3.942-5.589-3.942c-1.929,0-4.192,4.94-6.787,14.821C9.638,27.329,8.208,38.906,8.274,50.949
	c0.131,23.679,6.418,43.815,18.841,60.419c-1.385,5.87-3.583,12.406-6.615,19.624c-3.07,7.307-5.458,11.943-7.168,13.93
	c-0.077,0.088-0.154,0.176-0.228,0.253c-0.064,0.068-0.128,0.135-0.19,0.194c-0.139,0.134-0.275,0.256-0.399,0.345
	c-0.798,0.565-2.295,1.298-4.491,2.196l-4.392,1.746c-1.63,0.799-2.628,1.713-2.994,2.744c-0.532,1.564-0.665,3.228-0.399,4.99
	c0.266,1.697,0.832,3.111,1.696,4.242c0.466,0.599,1.115,1.048,1.946,1.348l2.196,0.449c1.264,1.396,2.928,2.179,4.99,2.346
	l3.718-0.397c0.089,0.064,0.17,0.138,0.263,0.198c0.689,0.59,1.391,1.028,2.106,1.297l5.989,0.249
	c2.894-0.433,5.09-1.298,6.587-2.595c1.431-1.265,2.645-3.377,3.643-6.338c0.599-1.896,3.26-5.273,7.984-10.13
	c4.358-4.458,7.418-7.236,9.182-8.334c1.198-0.698,2.063-2.212,2.595-4.541l0.222-1.491c5.266,2.604,10.899,4.523,16.891,5.783
	l0.153,1.597c0,3.46-0.549,6.837-1.646,10.13c-0.613,1.879-1.264,3.339-1.951,4.391c-0.219,0.324-0.437,0.608-0.653,0.853
	c-0.011,0.012-0.021,0.023-0.032,0.035c-0.101,0.111-0.202,0.215-0.302,0.31c-0.118,0.108-0.236,0.215-0.355,0.301
	c-0.931,0.665-2.279,1.23-4.042,1.697c-1.664,0.465-2.728,0.814-3.194,1.047c-1.231,0.533-2.013,1.314-2.345,2.346
	c-0.632,1.896-0.948,4.092-0.948,6.588l0.05,1.746c0.066,0.565,0.25,1.064,0.549,1.497c0.732,1.031,2.562,1.58,5.489,1.646
	c1.032,1.696,2.628,2.646,4.791,2.845c1.669,0.128,2.862-0.077,3.602-0.598c0.233,0.173,0.48,0.331,0.741,0.476
	c1.797,1.282,4.389,1.692,7.783,1.22c3.793-0.532,6.737-1.979,8.833-4.342c2.395-2.694,4.441-7.385,6.138-14.072
	c0.041-0.162,0.087-0.321,0.128-0.483c1.001-0.215,1.878-0.693,2.616-1.463c0.965-0.998,1.913-2.894,2.845-5.688
	c0.564-1.598,0.98-2.645,1.247-3.145c0.565-1.164,1.896-3.144,3.992-5.938l2.645-3.194c0.932-1.197,1.497-2.162,1.696-2.894
	c0.325-1.026,0.337-2.486,0.047-4.366c0.366-0.3,0.733-0.604,1.102-0.924l4.242-3.743c0.562-0.431,1.104-0.756,1.635-1.031
	c1.084,1.236,2.612,2.659,4.603,4.275l2.096,1.547l1.348,1.348c0.333,1.829,0.499,3.359,0.499,4.591
	c0,0.046-0.006,0.087-0.006,0.132l-0.045,0.018c0,2.433-0.526,4.521-1.578,6.265c-0.006,0.01-0.014,0.02-0.021,0.029
	c-0.202,0.333-0.423,0.653-0.664,0.961c-0.509,0.647-1.102,1.24-1.778,1.777c-0.832,0.599-2.063,1.198-3.693,1.797
	c-1.396,0.499-2.395,0.948-2.994,1.347c-0.998,0.633-1.663,1.447-1.996,2.445c-0.499,1.598-0.748,3.127-0.748,4.592
	c0,1.396,0.232,2.428,0.698,3.094c0.865,1.23,2.579,1.896,5.14,1.996c1.198,1.43,2.912,2.096,5.141,1.996l3.793-0.849l4.041,0.898
	c2.229,0.3,3.793,0,4.691-0.898l5.639-5.29c2.129-1.796,3.859-3.825,5.189-6.088c0.434-0.731,0.666-1.863,0.699-3.393l0.199-4.891
	l0.358-3.069c0.095-0.725,0.195-1.411,0.299-2.072c2.034,1.029,3.841,1.825,5.382,2.347c6.653,2.262,14.389,2.429,23.204,0.499
	c8.782-1.896,14.954-5.09,18.514-9.581c0.965-1.197,1.397-1.88,1.298-2.046C194.277,129.895,193.346,130.094,191.615,130.693z"/>
</svg>
