<?xml version="1.0" encoding="utf-8"?>
<!-- Generator: Adobe Illustrator 16.0.0, SVG Export Plug-In . SVG Version: 6.00 Build 0)  -->
<!DOCTYPE svg PUBLIC "-//W3C//DTD SVG 1.1//EN" "http://www.w3.org/Graphics/SVG/1.1/DTD/svg11.dtd">
<svg version="1.1" id="图层_1" xmlns="http://www.w3.org/2000/svg" xmlns:xlink="http://www.w3.org/1999/xlink" x="0px" y="0px"
	 width="279px" height="293px" viewBox="0 0 279 293" enable-background="new 0 0 279 293" xml:space="preserve">
<path d="M277.199,7.001c-0.4-0.034-1.9,0.983-4.502,3.05c-3.166,2.534-6.65,4.567-10.451,6.101c-4.867,2-9.484,2.8-13.853,2.4
	c3.067-1.267,5.968-3.417,8.702-6.451c1.434-1.6,2.033-2.484,1.8-2.65s-1.517,0.15-3.851,0.95c-2.334,0.767-5.418,1.417-9.252,1.95
	l-9.602,0.55c-3.801-0.2-6.934-0.15-9.401,0.15c2.267-2.634,5.051-4.267,8.352-4.901l4.501-1.1c0.467-0.4-0.984-0.833-4.352-1.3
	c-3.533-0.467-7.551,0.017-12.052,1.45c-3.968,1.233-7.634,2.967-11.001,5.201l1.649-2.701c0.667-1.367,1.117-3.134,1.351-5.301
	c0.267-2.667,0.25-4.118-0.051-4.351c-0.333-0.267-1.116,0.717-2.35,2.951c-1.234,2.234-3.334,4.667-6.301,7.301
	c-2.734,2.4-5.734,4.584-9.002,6.551l-6.102,3.4c-2.9,1.6-5.15,2.951-6.75,4.051c-6.102,4.134-9.27,8.818-9.502,14.052
	c-0.167,3.901,1.517,9.269,5.051,16.103c2.867,5.567,4.134,11.302,3.801,17.203c-0.092,1.511-0.287,2.959-0.585,4.345
	c-1.054,0.209-2.109,0.449-3.166,0.756c-6.201,1.767-11.386,4.934-15.553,9.501c0.733-2.367,2.867-5.868,6.401-10.501l3.801-5.201
	c0.199-0.5-0.783-0.2-2.951,0.9c-3.4,1.767-8.718,5.851-15.953,12.252c-7.734,6.801-13.186,11.185-16.352,13.152
	c-4.246,2.613-9.265,4.152-15.047,4.632l-0.555,0.019c-5.701-0.3-10.319-1.05-13.853-2.25c4.901-0.6,10.685-3.117,17.353-7.551
	c1.567-1.067,2.184-1.7,1.85-1.9l-4.15,0.5c-7.368,1.667-16.437,0.3-27.205-4.101c-3.967-1.633-7.92-3.565-11.86-5.78
	c0.169-0.157,0.338-0.308,0.508-0.471c3.234-3.167,4.75-6.185,4.551-9.052l-0.35-6.301c-1-14.703-0.817-24.338,0.55-28.905l2-6.701
	c0.434-1.934,0.283-3.134-0.45-3.601c-0.566-0.367-1.65-0.167-3.25,0.6c-1.9,0.934-4.201,2.584-6.901,4.951
	c-4.701,4.101-9.218,10.186-13.553,18.253c-3.534,6.601-5.384,10.968-5.551,13.102c-0.066,0.867,0.184,2.267,0.75,4.201l0.466,1.574
	c-4.724-2.437-9.679-3.684-14.869-3.725c-5.492,0-10.44,1.044-14.856,3.111c-0.305-1.93-0.8-3.326-1.497-4.161
	c-0.967-1.167-1.817-1.884-2.551-2.15l-2.1-0.1l-2.15,0.25l-2.351-0.05c-1.434-0.534-4.25-5.084-8.451-13.652
	c-4.134-8.368-6.651-14.52-7.551-18.453c-0.8-3.667-1.717-5.501-2.75-5.501c-0.733,0.033-1.5,0.933-2.301,2.7
	c-0.767,1.7-1.383,3.801-1.85,6.301c-0.833,4.5-1.017,13.385-0.55,26.654c0.5,14.936,1.9,23.387,4.201,25.354
	c1,0.867,2.733,1.867,5.201,3l2.14,0.938c-0.251,0.494-0.5,0.993-0.739,1.512c-2.867,6.168-4.301,13.169-4.301,21.004
	c0,3.034,0.7,6.501,2.1,10.402c1.367,3.867,2.05,7.118,2.05,9.751c0,6.568-1.784,12.419-5.351,17.553
	c-1.767,2.601-3.584,4.551-5.451,5.851c-1.367,0.9-1.233,1.334,0.4,1.301c5.167-0.133,9.451-1.983,12.852-5.551
	c-0.167,3.768-0.684,6.718-1.55,8.852c-0.767,1.867-0.967,2.867-0.6,3c0.367,0.134,1.45-0.5,3.25-1.9
	c2.734-2.1,4.518-4.233,5.351-6.4c0,4.867-0.95,9.969-2.851,15.303l-1,3.301c0.033,0.566,0.733,0.049,2.1-1.551
	c1.267-1.5,2.351-3.134,3.25-4.9l1.65-3.451l0.05,2.451c0,2.199-0.117,4.033-0.35,5.5c-0.367,2.067-1.033,4.117-2,6.151
	c-0.7,1.434-0.884,2.267-0.55,2.501c0.3,0.199,0.95-0.15,1.95-1.051c2.334-2.066,4.551-5.102,6.651-9.102
	c2.101-4.034,3.601-8.118,4.501-12.252l0.75,5.501c0.367,1.567,1.15,3.251,2.35,5.051c1.234,1.9,1.9,2.733,2,2.501l-0.3-3.451
	c-0.184-1.895,0.153-5.364,1.007-10.395c0.626,1.432,1.272,2.951,1.938,4.56c0.02,0.421,0.039,0.859,0.056,1.334l0.4,7.952
	l0.6,11.451c0.1,2.934,0.3,4.684,0.6,5.251l2,3.001c2.3,3.533,3.867,6.4,4.701,8.602c1.9,4.834,2.467,9.852,1.7,15.053
	c-0.867,6-2.583,11.418-5.151,16.252c-1.867,3.534-3.734,6.068-5.601,7.602c-1.367,1.133-3.851,2.217-7.451,3.25
	c-3.567,1.034-5.951,2.001-7.151,2.9c-1.503,1.173-2.261,2.777-2.284,4.807c-1.041,0.809-1.965,1.886-2.767,3.245
	c-1.3,2.134-1.967,4.435-2,6.901c0,0.801,0.117,1.267,0.35,1.4c0.267,0.133,0.867-0.051,1.8-0.551c1.033-0.566,2.617-1.199,4.75-1.9
	l1.633-0.496c-0.129,0.242-0.258,0.486-0.383,0.746c-1.234,2.635-1.884,5.268-1.951,7.902c-0.033,0.9,0.083,1.4,0.35,1.5
	c0.267,0.1,0.9-0.15,1.9-0.75l4.951-2.601c1.681-0.856,2.992-1.545,3.939-2.068c0.88,0.184,1.826,0.27,2.844,0.248
	c-0.979,2.604-1.501,5.196-1.533,7.771c-0.033,1.102,0.083,1.685,0.35,1.751c0.233,0.067,0.934-0.233,2.101-0.899
	c1.233-0.734,3.384-1.834,6.451-3.301l1.661-0.821c0.065,0.023,0.123,0.048,0.189,0.071c3.5,1.232,6.334,1.467,8.501,0.699
	c1.8-0.666,4.667-3.217,8.602-7.65l7.251-8.752c1.034-1.301,1.567-3.201,1.601-5.701l-0.25-8.801c0-3.001,0.783-7.969,2.35-14.903
	c1.034-4.468,2.067-8.501,3.101-12.103c0.8-2.666,0.917-4.967,0.35-6.9c-0.068-0.24-0.157-0.509-0.263-0.802l13.266,4.452
	c1.867,0.6,2.95,0.801,3.25,0.6c0.333-0.232-0.233-1.083-1.7-2.55l-2.301-2.4l8.251,2.351c4.401,1.199,7.151,1.767,8.251,1.7
	c1-0.067,0.784-0.567-0.65-1.501c-2.801-1.767-4.884-3.267-6.251-4.5c2.824,0.389,6.199,0.512,10.109,0.377l0.092,0.072
	c0.329,0.286,0.63,0.586,0.938,0.882c1.247,1.39,2.324,2.795,3.212,4.22c3.401,5.534,5.201,12.352,5.401,20.453
	c0.167,7.835-0.733,14.719-2.7,20.654c-1.467,4.4-3.084,7.317-4.851,8.751c-1.5,1.2-3.534,2.351-6.101,3.45l-6.001,2.201
	c-2.867,1-4.734,2.066-5.601,3.2c-0.994,1.325-1.287,3.269-0.894,5.817c-1.456,1.049-2.71,2.457-3.757,4.234
	c-1.467,2.434-2.201,4.984-2.201,7.651c0,0.8,0.1,1.25,0.3,1.351c0.233,0.1,0.733-0.101,1.5-0.601l6.751-3.7
	c1.085-0.573,2.009-1.05,2.783-1.439c0.409,0.135,0.832,0.234,1.27,0.298c-0.138,0.349-0.272,0.71-0.402,1.091
	c-1.033,2.934-1.534,5.901-1.5,8.902c0,0.866,0.1,1.333,0.3,1.4c0.2,0.1,0.75-0.134,1.65-0.701l10.252-5.701l2.45-1.3
	c0.029-0.017,0.049-0.046,0.076-0.066c0.972-0.016,1.977-0.088,3.025-0.233c0.104,0.189,0.221,0.37,0.336,0.552
	c-0.128,0.635-0.241,1.332-0.336,2.099c-0.3,2.634-0.333,5.168-0.1,7.602c0.1,0.967,0.35,1.483,0.75,1.55
	c0.4,0.067,0.934-0.25,1.601-0.95l3.65-3.101c0.962-0.77,1.806-1.409,2.565-1.956c1.74,0.369,3.354,0.295,4.836-0.244
	c2.101-0.733,4.801-2.634,8.102-5.701c2.5-2.301,4.584-4.484,6.251-6.551c2.467-3.033,3.084-8.752,1.851-17.152
	c-0.861-5.697-0.735-15.233,0.38-28.599c0.099,0.146,0.217,0.255,0.37,0.293l2.051-0.399c0.899-0.301,2.267-0.9,4.1-1.801
	c0.726-0.343,1.375-0.647,1.964-0.924c1.037,0.079,2.066,0.004,3.087-0.227c1.268-0.333,2.784-1.383,4.551-3.15
	c1.734-1.768,2.935-3.434,3.602-5.001c0.732-1.8,1.05-4.284,0.949-7.451c-0.033-1.967-0.333-5.218-0.899-9.751
	c-0.367-3.135-0.134-6.869,0.7-11.203l2.35-9.852l0.951-3.65l0.5-2.5c0-1.234-0.601-2.617-1.801-4.15l-0.77-0.918
	c0.705-0.497,1.349-0.929,1.92-1.283c0.292-0.184,0.588-0.34,0.881-0.516l1.569,2.616c2.233,3.768,3.935,6.168,5.101,7.201
	c1.201,1.034,3.117,1.851,5.752,2.45l7.201,1.15l5.601,0.6c1.866,0.268,2.9,0.701,3.101,1.301c2.167,6.301,3.2,13.136,3.1,20.504
	c-0.066,6.467-0.732,10.219-2,11.252c-1.4,1.166-2.9,2.133-4.5,2.9l-3.301,1.35c-1.4,0.601-2.234,1.284-2.5,2.051
	c-0.209,0.598-0.241,1.677-0.105,3.226c-1.039,0.753-2.005,1.825-2.896,3.226c-1.434,2.2-2.218,4.451-2.351,6.751
	c-0.033,0.767,0.066,1.2,0.3,1.3c0.2,0.101,0.784-0.066,1.751-0.5l6.5-2.35l2.574-0.781c-0.989,2.236-1.517,4.414-1.573,6.531
	c-0.034,0.834,0.05,1.284,0.25,1.351l1.75-0.7l7.602-4.2l4.476-2.217c-0.241,0.757-0.437,1.59-0.575,2.517
	c-0.366,2.4-0.35,4.9,0.05,7.502c0.066,0.566,0.301,0.899,0.701,1c0.399,0.1,0.883-0.067,1.449-0.5l7.704-5.973
	c1.802,0.459,3.453,0.436,4.948-0.079c1.533-0.566,3.034-2.017,4.501-4.351l3.251-6.201l1.15-1.95c1.8-3.034,2.75-5.817,2.85-8.352
	c0.066-2.467-0.65-5.2-2.15-8.201l-1.25-3.601c-0.934-3.601-1.65-8.234-2.15-13.902l-0.9-12.803l-0.55-8.051
	c-0.233-1.567-1-2.75-2.3-3.551l-3.901-1.801c-3.667-1.733-5.851-4.268-6.551-7.602c-0.279-1.328-0.637-2.594-1.057-3.809
	c3.621,2.461,6.915,5.223,9.858,8.311c6.668,6.967,10.768,14.568,12.302,22.803c0.366,1.867,0.8,2.484,1.3,1.852
	c0.5-0.634,0.801-2.067,0.9-4.301l0.25-10.803c2.301,4.068,4.001,8.201,5.102,12.402c0.666,2.634,1.116,3.967,1.35,4.001
	c0.2,0.033,0.434-1.117,0.7-3.45l0.101-3.701l-0.101-4.9c0-1.601-0.184-3.534-0.55-5.801l-0.851-4.852l1.351,2.75l1.25,3.102
	l1.15,3.9c0.4,0.9,0.633-0.801,0.699-5.102c0.101-4.4-0.883-9.401-2.949-15.002c-1.268-3.367-2.701-6.484-4.301-9.352
	c1.6,0.867,4.434,3.734,8.501,8.602l3.4,4.451c0.434,0.299,0.101-1.584-1-5.651c-2.567-9.568-7.685-18.187-15.353-25.854
	c-2.967-2.967-7.918-6.918-14.853-11.852c1.534,0.167,4.15,1.017,7.851,2.55c3.901,1.567,7.002,3.101,9.303,4.601l4.1,2.4
	c0.234-0.1-0.616-1.533-2.55-4.301c-2.968-4.167-7.651-7.818-14.052-10.952c-2.801-1.367-7.002-3-12.604-4.901l5.151,0.35
	c2.501,0.333,4.685,0.767,6.552,1.3c2,0.533,3.033,0.717,3.1,0.55c0.101-0.167-0.866-1.034-2.9-2.601
	c-1.867-1.434-4.566-2.667-8.102-3.701c-2.4-0.733-4.884-1.284-7.451-1.65l6.451,0.5c3.135,0.534,5.984,1.234,8.552,2.101
	c1.501,0.5,2.685,1,3.551,1.5c2.567,1.5,2.05,0.05-1.55-4.351c-4.528-4.156-9.744-7.272-15.62-9.39
	c0.817-1.5,1.518-3.034,2.067-4.612c1.301-3.734,1.95-8.235,1.95-13.502l-0.25-7.351l-0.05-2.75c0-1.133,0.05-1.917,0.15-2.351
	c0.866-1.133,2.482-2.133,4.85-3c1.501-0.534,4.168-1.25,8.002-2.15l9.252-2.451c3.801-1.167,7.184-2.5,10.151-4
	c4.935-2.467,8.918-5.501,11.952-9.102c2.367-2.801,4.784-6.801,7.251-12.002c2.367-4.901,4.718-9.235,7.052-13.002
	C277.166,8.202,277.632,7.068,277.199,7.001z"/>
</svg>
