<?xml version="1.0" encoding="utf-8"?>
<!-- Generator: Adobe Illustrator 16.0.0, SVG Export Plug-In . SVG Version: 6.00 Build 0)  -->
<!DOCTYPE svg PUBLIC "-//W3C//DTD SVG 1.1//EN" "http://www.w3.org/Graphics/SVG/1.1/DTD/svg11.dtd">
<svg version="1.1" id="图层_1" xmlns="http://www.w3.org/2000/svg" xmlns:xlink="http://www.w3.org/1999/xlink" x="0px" y="0px"
	 width="292px" height="184px" viewBox="0 0 292 184" enable-background="new 0 0 292 184" xml:space="preserve">
<path d="M287.206,54.097l-18.016-3.693l2.046-10.38l0.2-2.545c-0.233-0.399-1.132-0.183-2.695,0.648
	c-1.63,0.898-6.72,4.192-15.271,9.881l-3.918,2.658c0.749-8.352,1.041-12.643,0.873-12.838c-0.166-0.233-3.094,0.316-8.783,1.647
	l-9.531,2.246l-1.996-8.733l-1.947-8.933c-0.133-0.832-0.365-1.198-0.698-1.098l-1.896,1.397
	c-7.32,6.587-11.578,10.313-12.776,11.179c-0.599-0.732-1.913-2.795-3.942-6.188l-3.643-6.138c-0.865-1.364-1.447-2.063-1.747-2.096
	c-0.3-0.066-0.698,0.433-1.198,1.497l-4.042,6.039c-2.329,3.161-3.81,4.924-4.441,5.29c-4.824-6.222-7.853-9.998-9.083-11.329
	l-1.597-1.297l-0.898,1.597l-2.508,4.985c-3.894-10.232-6.188-15.279-6.874-15.116c-0.766,0.2-1.813,1.664-3.145,4.392l-2.795,6.288
	c-11.111-4.924-16.934-7.203-17.467-6.837c-0.1,0.066,0.3,1.946,1.198,5.639l3.144,11.927l-2.983,0.525
	c-4.56-3.845-9.992-7.516-16.33-11.005c-5.822-3.194-10.663-5.44-14.522-6.737l-2.395-0.15l1.098,2.246l4.641,8.983
	c2.495,5.124,4.009,8.55,4.542,10.28l-12.726-4.242l-1.297-0.15c-0.167,0.167-0.033,0.616,0.399,1.348l6.372,10.603l-17.501-7.509
	c-1.797-0.765-2.795-1.064-2.994-0.898c-0.267,0.166-0.083,1.164,0.549,2.994l1.556,5.901c-4.374-5.003-8.882-9.868-13.534-14.585
	C71.966,14.921,57.709,4.607,45.865,0.848C43.669,0.149,42.488-0.1,42.322,0.1c-0.167,0.133,0.216,0.948,1.147,2.445
	c2.229,3.526,4.342,6.454,6.338,8.783C38.03,9.332,30.844,8.217,28.249,7.984c-1.198-0.1-1.797-0.017-1.797,0.25L27.6,9.631
	l7.336,6.637l8.783,8.234l-11.977-1.846l-1.747,0.05c-0.066,0.167,0.233,0.682,0.898,1.547l7.037,9.282
	c-3.494-0.299-8.601-0.299-15.321,0l-11.827,0.849l-2.495,0.599c-0.067,0.2,0.482,0.799,1.646,1.797l11.179,8.583l12.227,9.432
	c-10.48,2.628-17.716,4.525-21.709,5.689c-1.563,0.433-2.379,0.782-2.445,1.048c-0.066,0.233,0.482,0.715,1.647,1.447
	c3.027,1.863,8.833,5.207,17.417,10.031l-11.728,3.992c-5.922,2.063-9.881,3.527-11.877,4.392c-2.828,1.265-4.225,2.063-4.192,2.396
	c0.033,0.3,1.381,0.533,4.042,0.699l15.471,1.946c9.482,1.397,14.373,2.496,14.672,3.294c-4.99,2.196-8.933,4.026-11.828,5.49
	c-3.094,1.597-4.625,2.777-4.591,3.543c0.034,0.766,1.664,1.115,4.891,1.048c10.413-0.133,23.954,0.616,40.623,2.246
	c5.09,0.498,9.729,1.007,13.929,1.526c-4.748,2.353-7.819,3.977-9.188,4.861c-1.929,1.264-2.894,2.063-2.894,2.396
	c-0.034,0.366,0.931,0.782,2.894,1.247l14.258,4.426c-0.988,1.503-2.012,3.19-3.079,5.106c-4.325,7.719-6.621,15.071-6.887,22.058
	c-0.1,2.229,0.383,5.59,1.447,10.082l2.445,9.481l1.297,4.441l0.275,1.351c-1.517,1.237-2.727,2.796-3.618,4.688
	c-0.799,1.697-1.231,3.311-1.298,4.842c-0.033,0.398,0.167,0.598,0.599,0.598l0.648-0.1c1.518-0.528,2.936-1.066,4.261-1.612
	c-0.276,0.643-0.533,1.312-0.767,2.012c-0.233,0.766,0.233,0.882,1.397,0.35c2.295-0.665,4.924-1.614,7.885-2.845
	c0.028-0.012,0.051-0.022,0.079-0.034c-0.252,0.516-0.497,1.055-0.728,1.632c-0.366,0.965-0.432,1.529-0.199,1.696l0.449-0.05
	l6.986-1.847c3.063-0.859,4.989-1.576,5.817-2.153c0.451-0.144,0.882-0.301,1.27-0.492c2.795-1.43,6.122-5.771,9.981-13.024
	c0.548-1.038,1.071-2.075,1.582-3.111l9.786-5.342l-1.386,5.658c-0.167,0.731,0.1,0.932,0.798,0.599l4.854-2.118l0.585,7.857
	c0,0.632,0.333,0.815,0.999,0.549l2.933-1.778c1.133,3.941,3.282,7.453,6.499,10.512c0.715,0.678,1.492,1.273,2.316,1.81
	c0.058,0.08,0.108,0.161,0.18,0.237c1.231,1.33,3.244,2.561,6.039,3.692l5.439,1.796l2.146,0.301
	c0.366-0.101,0.482-0.449,0.35-1.049c-0.131-0.646-0.291-1.268-0.47-1.874l5.211,2.373c1.031,0.499,1.979,0.799,2.845,0.898
	c0.898,0.066,1.33-0.149,1.297-0.649c-0.21-1.591-0.584-3.075-1.106-4.464c0.229,0.122,0.458,0.243,0.708,0.372l4.99,2.496
	c1.396,0.631,2.063,0.216,1.996-1.248c-0.097-2.755-1.006-5.207-2.713-7.361c0.024-0.334,0.022-0.674-0.031-1.023
	c-0.219-1.307-0.156-3.164,0.18-5.556c1.518,3.098,2.392,4.706,2.614,4.808c0.219,0.116,1.122-0.578,2.69-2.062
	c0.556,0.291,1.105,0.534,1.651,0.714c0.346,0.109,0.715,0.197,1.1,0.271c1.08,0.836,3.5,1.578,7.284,2.226l6.089,0.848
	c0.399,0.066,0.698-0.05,0.897-0.35c0.2-0.365,0.2-0.914,0-1.646c-0.06-0.223-0.143-0.443-0.236-0.663
	c1.344,0.451,2.867,0.921,4.578,1.411l2.146,0.15c0.266-0.199,0.299-0.748,0.1-1.646c-0.098-0.457-0.229-0.898-0.375-1.334
	c1.11,0.267,2.309,0.544,3.619,0.834l1.148-0.249c0.133-0.233,0.049-0.948-0.25-2.146c-0.055-0.205-0.109-0.379-0.165-0.563
	c2.272,1.578,3.494,2.351,3.658,2.31c0.276-0.056,0.651-2.861,1.122-8.394c1.643,2.909,2.635,4.248,2.971,4.002
	c0.498-0.366,1.414-3.926,2.744-10.68l0.857-4.381c0.213,0.411,0.416,0.813,0.64,1.237c0.799,1.496,1.764,3.742,2.895,6.736
	c1.763,4.093,3.511,6.938,5.24,8.534c1.198,1.132,4.309,3.095,9.332,5.889l4.142,1.847c1.382,0.775,2.898,1.291,4.526,1.588
	c2.345,1.369,6.704,2.288,13.091,2.754c0.666,0.066,0.998-0.1,0.998-0.499l-0.849-1.996c-0.302-0.513-0.61-0.997-0.922-1.466
	c0.558,0.141,1.139,0.281,1.771,0.418l6.986,1.297c0.898,0.199,1.398,0.133,1.498-0.199c0.133-0.366-0.15-1.215-0.85-2.545
	c-0.361-0.676-0.781-1.319-1.25-1.936c0.457,0.1,0.934,0.197,1.45,0.288l5.64,0.649c0.965,0.066,1.447-0.117,1.447-0.549
	l-0.699-2.097c-0.599-1.464-1.713-2.961-3.344-4.491c-0.524-0.493-1.046-0.913-1.563-1.27c-0.178-0.516-0.496-0.978-0.982-1.375
	c-2.462-2.097-6.57-7.203-12.326-15.321c-1.211-1.696-2.308-3.26-3.305-4.706l0.46,0.164c6.022,2.13,9.149,3.111,9.382,2.945
	c0.199-0.167-1.23-3.577-4.291-10.23l-5.44-11.778l4.794,0.845l5.586,3.896c3.095,1.996,4.642,2.629,4.642,1.896
	c0-0.631-0.115-1.987-0.343-4.053l0.343,0.061l12.876,1.996c-0.104-0.395-5.172-6.177-15.156-17.303
	c-0.708-5.173-1.229-8.511-1.563-9.996l7.087-1.297c3.959-0.766,5.905-1.364,5.839-1.797c-0.085-0.568-5.405-6.494-15.924-17.739
	l28.898,1.121c1.498,0,1.598-1.031,0.3-3.094l-5.439-7.386c2.196-1.531,5.157-4.192,8.884-7.985
	c3.825-3.893,5.622-6.155,5.389-6.787C290.916,55.361,289.602,54.729,287.206,54.097z"/>
</svg>
