<?xml version="1.0" encoding="utf-8"?>
<!-- Generator: Adobe Illustrator 16.0.0, SVG Export Plug-In . SVG Version: 6.00 Build 0)  -->
<!DOCTYPE svg PUBLIC "-//W3C//DTD SVG 1.1//EN" "http://www.w3.org/Graphics/SVG/1.1/DTD/svg11.dtd">
<svg version="1.1" id="图层_1" xmlns="http://www.w3.org/2000/svg" xmlns:xlink="http://www.w3.org/1999/xlink" x="0px" y="0px"
	 width="324px" height="184px" viewBox="0 0 324 184" enable-background="new 0 0 324 184" xml:space="preserve">
<path d="M322.05,93.278c0.167-2.87,0.15-4.839-0.05-5.907c-0.234-1.335-0.484-1.602-0.751-0.801l-1.352,4.105
	c-1.436,3.371-2.57,5.708-3.404,7.008c0.5-2.703,0.751-5.323,0.751-7.859c0-8.544-2.153-15.502-6.458-20.876
	c-0.435-0.567-0.718-0.601-0.852-0.1c-0.134,0.434-0.25,1.752-0.351,3.955c-0.233,4.672-1.302,9.678-3.204,15.019
	c-1.368,3.938-2.986,7.526-4.855,10.763c0.067-3.805-0.317-6.875-1.151-9.211c-0.534-1.468-0.918-1.969-1.151-1.502l-0.351,1.602
	c-1.669,8.144-6.491,15.202-14.468,21.177c-7.142,5.34-14.751,8.51-22.828,9.512l2.503-2.003l2.453-2.453
	c0.768-0.935,1.018-1.435,0.751-1.502l-1.552,0.3c-11.314,2.504-21.494,2.587-30.538,0.251c-9.646-2.437-19.975-8.06-30.988-16.871
	c-11.814-9.445-21.093-15.736-27.835-18.873c-6.508-3.037-14.534-4.856-24.079-5.457c-1.835-0.1-5.106-0.066-9.812,0.101
	l-10.863,0.2c-8.578-0.134-15.653-0.801-21.227-2.002c-3.838-0.834-6.625-1.819-8.36-2.954c-2.136-1.436-3.955-4.139-5.457-8.11
	c2.804-6.542,4.205-12.882,4.205-19.023c0-7.275-2.069-14.151-6.208-20.625c7.242-9.278,10.797-14.084,10.663-14.417l-2.203-0.05
	l-3.204,0.4l2.203-3.354c0.968-1.535,1.302-2.42,1.001-2.653s-1.635,0.233-4.005,1.402l-4.856,2.403l0.35-3.454l-0.05-1.352
	c-0.133,0-0.618,0.384-1.452,1.151l-11.114,9.762c-7.076-4.706-14.902-6.958-23.479-6.758c-9.044,0.234-17.205,3.188-24.48,8.861
	c-2.136-1.435-5.457-3.054-9.962-4.856c-5.34-2.103-9.813-3.371-13.417-3.805l-1.151,0.1l0.1,0.701
	c0.1,0.367,0.785,1.318,2.053,2.854c1.435,1.735,2.97,3.387,4.605,4.956l-4.556,0.451c-2.136,0.233-3.304,0.434-3.504,0.601
	c-0.167,0.2,0.617,1.084,2.353,2.653l3.855,3.354l-5.457,0.551c-0.567,0.133-0.785,0.367-0.651,0.701l1.752,2.153l5.056,4.856
	l6.809,6.708c-0.935,2.369-1.735,5.022-2.403,7.959c-1.102,4.773-1.652,9.545-1.652,14.318c0,10.546,2.153,20.959,6.458,31.238
	c1.123,2.659,2.399,5.23,3.826,7.716c-0.971,3.789-2.509,8.204-4.627,13.261c-3.004,7.176-5.807,11.932-8.411,14.268
	c-0.901,0.801-1.218,1.285-0.951,1.451l1.602-0.35c3.137-1.303,5.824-2.604,8.06-3.905l4.706-3.154
	c-0.467,2.47-1.568,6.091-3.304,10.864c-1.302,3.604-1.769,5.355-1.402,5.256c0.776-0.227,3.865-2.371,9.251-6.424
	c-0.289,1.656-0.585,3.243-0.891,4.722c-2.737,13.417-6.441,22.979-11.114,28.686c-0.337,0.466-0.568,0.958-0.744,1.465
	c-2.678,0.569-6.448,2.413-11.321,5.544c-4.139,2.637-6.975,4.656-8.51,6.057c-1.216,1.13,0.233,1.428,4.338,0.9
	c-0.316,0.252-0.565,0.472-0.734,0.652c-0.701,0.734-0.184,1.102,1.552,1.102l13.116-1.553l14.033-2.241
	c1.594,0.201,2.611,0.183,3.038-0.062c3.872-2.002,9.512-7.242,16.921-15.719c7.83-9.028,13.745-17.47,17.78-25.336
	c3.435,1.516,7.034,2.938,10.806,4.26l0.05,0.15c0.868,6.774,1.302,12.432,1.302,16.971c0,4.438-0.417,7.709-1.251,9.813
	c-0.734,0.667-2.203,1.518-4.405,2.553c-1.135,0.555-2.011,1.004-2.631,1.35c-2.798,0.953-5.824,2.647-9.083,5.108
	c-2.77,2.103-5.206,4.306-7.309,6.608c-0.768,0.867-0.601,1.318,0.5,1.352l5.813-0.605c-0.662,0.575-1.303,1.158-1.908,1.757
	c-0.901,0.968-0.4,1.418,1.502,1.352l14.468-1.802l16.27-2.504c0.086-0.017,0.159-0.05,0.236-0.077l0.915-0.123
	c1.435-0.267,2.52-0.634,3.254-1.101c2.002-1.303,4.756-5.207,8.26-11.715c0.157-0.29,0.298-0.574,0.451-0.862l4.655-0.489
	l12.816-2.152c0.102-0.022,0.187-0.058,0.279-0.088c0.101,0.031,0.194,0.065,0.321,0.088l23.519-2.947
	c1.165,1.272,2.546,2.393,4.165,3.348l-3.304,0.9c-2.003,0.602-3.438,1.118-4.306,1.553c-0.668,0.346-1.175,0.725-1.541,1.135
	c-2.433,1.038-5.184,2.569-8.271,4.621c-4.572,3.071-7.542,5.391-8.911,6.959c-0.901,1.002-0.734,1.519,0.501,1.553l4.587-0.511
	c-0.324,0.239-0.636,0.477-0.933,0.71c-2.236,1.836,3.571,1.736,17.421-0.3l15.239-2.54l0.881,0.037l21.827-2.904
	c10.513-1.835,16.42-3.604,17.722-5.307c0.768-1,0.45-2.219-0.951-3.654l-4.906-3.754c3.604-2.036,6.792-4.539,9.562-7.51
	c3.171-3.438,5.44-7.125,6.809-11.063c3.07,3.871,6.208,7.275,9.412,10.212c3.904,3.572,8.46,6.977,13.666,10.213
	c2.737,1.669,5.808,3.204,9.212,4.605l8.86,3.254c3.104,1.068,6.041,2.187,8.812,3.355c3.271,1.334,5.272,2.318,6.007,2.953
	c0.868,0.734,1.419,1.034,1.652,0.9c0.234-0.166,0.051-0.801-0.551-1.902c-1.602-2.97-3.236-5.223-4.906-6.758
	c-0.6-0.567-1.918-1.519-3.955-2.854c7.344,0.334,14.168-0.2,20.477-1.602c10.212-2.27,18.422-6.658,24.63-13.166
	c0.901-0.936,1.302-1.52,1.201-1.753c-0.1-0.233-0.801-0.066-2.103,0.501c-1.436,0.634-3.471,1.285-6.107,1.952l-6.708,1.251
	c5.306-2.369,9.829-5.322,13.566-8.86c5.774-5.54,9.111-12.081,10.013-19.624c0.1-0.868,0.033-1.234-0.2-1.102l-1.603,1.752
	c-0.801,0.935-2.152,2.137-4.055,3.604l-4.756,3.255c3.771-4.807,6.625-9.246,8.561-13.317
	C319.463,111.367,321.482,102.857,322.05,93.278z M114.454,147.202l2.042,1.544l-2.748,1.05
	C114.006,148.923,114.243,148.059,114.454,147.202z"/>
</svg>
