<?xml version="1.0" encoding="utf-8"?>
<!-- Generator: Adobe Illustrator 16.0.0, SVG Export Plug-In . SVG Version: 6.00 Build 0)  -->
<!DOCTYPE svg PUBLIC "-//W3C//DTD SVG 1.1//EN" "http://www.w3.org/Graphics/SVG/1.1/DTD/svg11.dtd">
<svg version="1.1" id="图层_1" xmlns="http://www.w3.org/2000/svg" xmlns:xlink="http://www.w3.org/1999/xlink" x="0px" y="0px"
	 width="102px" height="124px" viewBox="0 0 102 124" enable-background="new 0 0 102 124" xml:space="preserve">
<path d="M100.081,61.353c-1.396-0.366-4.257,3.142-8.579,10.524c-2.398,4.104-4.337,7.83-5.849,11.205l-0.841-0.023
	c0.919-4.979,1.591-9.871,2.001-14.674c0.665-7.149,0.415-10.873-0.749-11.172c-0.896-0.233-3.391,2.926-7.48,9.477
	c-3.143,5.065-5.5,9.546-7.091,13.453l-0.841-1.133c-0.765-1.031-1.363-1.529-1.795-1.496c-0.399,0.033-1.264,0.398-2.594,1.097
	l-2.494,1.197c0.066-3.99-0.018-6.085-0.25-6.284l-2.644-0.6l-2.743-0.498c-0.591-3.459-1.116-6.404-1.575-8.839
	c1.655-3.278,2.448-5.105,2.373-5.477c-0.072-0.36-1.384-0.914-3.896-1.654c-0.805-3.063-1.686-5.834-2.644-8.316
	c1.709-4.957,2.512-7.542,2.4-7.737l-6.44-0.34c-0.99-1.495-2.034-2.783-3.137-3.85c1.031-8.912,2.079-19.586,3.143-32.022
	c0.033-0.698-0.2-1.413-0.698-2.145c-0.499-0.665-1.147-1.214-1.945-1.646l-2.793-0.1c-0.831,0.399-1.546,1.114-2.145,2.145
	c-9.207,17.059-14.513,26.503-15.936,28.364c-0.747-0.542-1.558-1.126-2.47-1.779c-4.489-3.192-7.033-4.854-7.631-4.988l-1.497,0.1
	c-0.366,0.266-0.582,0.931-0.648,1.995c-0.199,2.527,0.1,5.936,0.898,10.225c0.015,0.085,0.029,0.159,0.044,0.242
	c-2.641,1.888-4.76,4.063-6.329,6.542c-0.433,0.665-0.698,1.43-0.798,2.294c-0.122,0.912-0.097,2.144,0.059,3.667
	c-1.854,1.354-3.35,3.095-4.448,5.262c-1.264,2.494-1.896,5.337-1.896,8.529c0,4.789,1.513,8.695,4.539,11.722
	c3.226,3.192,7.715,4.938,13.467,5.237c0.817,0.113,1.596,0.188,2.369,0.257c-1.047,2.357-1.588,3.72-1.621,4.083
	c-0.034,0.332,0.399,1.064,1.297,2.194l1.546,1.896l-1.646,2.743c-1.031,1.696-1.563,2.71-1.596,3.043
	c-0.032,0.318,0.521,1.772,1.643,4.337c-0.303,0.22-0.616,0.451-0.944,0.701c-2.527,1.928-4.123,3.541-4.788,4.838
	c-0.299,0.565-0.333,1.114-0.1,1.646c0.166,0.432,0.416,0.715,0.748,0.848c1.046,0.418,3.056,0.756,6.01,1.014
	c-0.299,1.221-0.425,1.949-0.374,2.179c0.1,0.299,1.48,1.413,4.14,3.342l0.914,0.64c-0.527,0.675-1.048,1.417-1.562,2.254
	c-0.931,1.496-1.48,2.56-1.646,3.191c-0.233,0.932,0.133,1.447,1.097,1.547l6.584-0.25c2.361-0.365,3.841-0.715,4.439-1.047
	c0.094-0.054,0.153-0.139,0.227-0.21c4.592,1.815,10.092,2.563,16.532,2.204l7.635,0.645l0.196,0.104
	c2.294,0.864,5.42,1.513,9.377,1.945c1.239,0.148,1.839-0.333,1.804-1.44c0.607,0.081,1.284,0.162,2.037,0.243
	c3.325,0.399,5.47,0.433,6.435,0.1c0.45-0.15,0.703-0.446,0.761-0.889c0.212,0.047,0.409,0.096,0.636,0.141l6.783,0.499
	c0.532-0.033,0.748-0.449,0.648-1.247c-0.038-0.267-0.108-0.55-0.195-0.842c2.825,0.221,4.44,0.07,4.834-0.455
	c0.3-0.366-0.066-1.397-1.098-3.093c-0.247-0.403-0.495-0.788-0.746-1.156c3.19-0.17,4.842-0.433,4.937-0.789
	c0.066-0.299-0.166-1.064-0.698-2.295l-1.047-2.145l2.194-1.297l1.845-1.496c0.058-0.318-0.882-1.66-2.816-4.022
	c1.793-1.48,2.667-2.336,2.617-2.562l-2.131-1.899c1.983-7.029,3.545-14.838,4.675-23.439
	C101.278,66.473,101.278,61.618,100.081,61.353z"/>
</svg>
