<?xml version="1.0" encoding="utf-8"?>
<!-- Generator: Adobe Illustrator 16.0.0, SVG Export Plug-In . SVG Version: 6.00 Build 0)  -->
<!DOCTYPE svg PUBLIC "-//W3C//DTD SVG 1.1//EN" "http://www.w3.org/Graphics/SVG/1.1/DTD/svg11.dtd">
<svg version="1.1" id="图层_1" xmlns="http://www.w3.org/2000/svg" xmlns:xlink="http://www.w3.org/1999/xlink" x="0px" y="0px"
	 width="208px" height="207px" viewBox="0 0 208 207" enable-background="new 0 0 208 207" xml:space="preserve">
<path d="M206.148,188.366l-4.451-9.654c-2.268-5.103-4.77-11.038-7.504-17.809c-2.369-5.972-3.961-10.293-4.781-12.98l0.079-0.075
	c5.302-5.303,9.388-11.189,12.256-17.659c2.835-6.403,4.169-12.706,4.002-18.909c-0.233-11.839-4.402-22.777-12.506-32.815
	c-7.5-9.32-17.497-16.817-29.977-22.502c0.769-3.625,1.82-7.808,3.163-12.565c2.769-9.971,5.22-17.258,7.354-21.86
	c1.968-4.269,2.936-6.703,2.902-7.303c-0.067-0.734-1.618,1.384-4.652,6.353c-3.702,6.103-8.721,12.889-15.058,20.359
	c-3.293,3.883-6.224,7.059-8.8,9.546c-0.457-0.129-0.914-0.259-1.373-0.382c-0.518-2.863-0.567-7.217-0.133-13.116
	c0.434-5.703,1.084-10.855,1.951-15.458l1.501-9.104l1.151-6.753c0.633-2.735,0.916-4.502,0.85-5.303
	c-0.066-1.101-0.884,0.517-2.451,4.853c-2.602,7.37-5.719,14.707-9.354,22.01c-4.618,9.207-8.907,15.657-12.87,19.372
	c-3.856-0.375-7.767-0.591-11.742-0.613c-14.112,0-27.495,2.249-40.149,6.743c-4.465-4.256-10.334-10.53-17.628-18.849
	C47.123,21.653,40.453,13.649,37.918,9.881C36.417,7.68,35.4,6.612,34.867,6.679c-0.534,0.066-0.083,1.484,1.351,4.252
	c5.436,9.872,10.238,19.042,14.407,27.513c4.245,8.685,7.32,15.771,9.249,21.292c-7.836,4.367-14.018,8.808-18.503,13.325
	C30.398,84.2,25.012,96.839,25.212,110.979c0.094,7.297,2.251,14.501,6.454,21.615c-1.49,3.574-5.702,8.988-12.657,16.254
	c-5.669,5.969-10.822,10.922-15.458,14.857C1.184,165.738,0,166.939,0,167.307c-0.033,0.434,1.501-0.334,4.602-2.301
	c8.904-5.703,15.491-9.805,19.76-12.307c8.288-4.886,13.754-7.596,16.404-8.134c8.006,8.552,18.037,15.377,30.092,20.478
	c-0.759,3.725-1.814,8.124-3.175,13.219c-3.001,11.105-5.403,18.575-7.204,22.41c-1.4,3.068-1.851,4.67-1.351,4.803
	c0.5,0.133,1.534-1.134,3.102-3.802c3.102-5.403,7.52-11.989,13.256-19.76c3.77-5.131,7.12-9.288,10.061-12.496
	c9.755,2.572,19.921,3.979,30.509,4.192c6.618,0.137,13.094-0.246,19.436-1.12c2.69,1.448,6.412,4.517,11.179,9.224
	c5.104,5.069,8.838,9.389,11.206,12.957c0.7,1.066,1.233,1.467,1.601,1.2c0.367-0.233,0.316-0.884-0.15-1.951l-1.65-3.751
	c-0.801-1.835-1.484-3.652-2.051-5.453l-2.301-7.404c-0.732-2.705-1.34-5.435-1.834-8.188c9.021-2.588,17.159-6.145,24.419-10.667
	c1.706,1.348,3.823,3.204,6.378,5.599c6.104,5.77,11.64,11.922,16.608,18.459l5.153,6.553c2.033,2.469,3.201,3.635,3.501,3.502
	C207.816,192.469,207.35,191.068,206.148,188.366z"/>
</svg>
