<?xml version="1.0" encoding="utf-8"?>
<!-- Generator: Adobe Illustrator 16.0.0, SVG Export Plug-In . SVG Version: 6.00 Build 0)  -->
<!DOCTYPE svg PUBLIC "-//W3C//DTD SVG 1.1//EN" "http://www.w3.org/Graphics/SVG/1.1/DTD/svg11.dtd">
<svg version="1.1" id="图层_1" xmlns="http://www.w3.org/2000/svg" xmlns:xlink="http://www.w3.org/1999/xlink" x="0px" y="0px"
	 width="376px" height="296px" viewBox="0 0 376 296" enable-background="new 0 0 376 296" xml:space="preserve">
<path d="M356.063,32.981c-10.323-6.127-23.944-9.191-40.861-9.191c-16.252,0-32.736,3.763-49.454,11.29
	c-16.085,7.26-31.254,17.45-45.508,30.571c-14.22,13.055-26.375,27.958-36.466,44.708c-7.712,12.853-13.76,26.065-18.151,39.633
	c-0.658-1.494-1.39-2.925-2.23-4.266c-2.631-4.229-6.86-8.459-12.688-12.688c-6.927-4.996-11.156-8.359-12.688-10.091
	c-3.863-4.229-5.795-9.408-5.795-15.536c0-7.859,2.498-18.35,7.493-31.471c3.663-9.724,9.441-22.612,17.334-38.664
	c0.399-0.833,1.166-1.499,2.298-1.998c0.699-0.3,2.048-0.816,4.046-1.548c4.529-2.032,9.142-6.095,13.837-12.189
	c3.03-3.896,4.829-7.959,5.395-12.188c0.599-4.396-0.366-7.26-2.897-8.592c-2.265-1.232-5.345-0.866-9.241,1.099
	c-4.33,2.198-7.893,5.728-10.69,10.59c-3.297,5.728-5.429,10.707-6.395,14.936l-1.598,6.644
	c-6.86,11.789-13.288,24.627-19.282,38.514c-3.03,7.061-8.059,19.715-15.086,37.965l-0.05,0.15
	c-0.833-6.86-0.516-17.101,0.949-30.721c1.598-14.886,3.979-27.275,7.143-37.166c0.666-1.898,1.765-4.18,3.297-6.844l3.297-5.695
	c1.166-2.231,2.215-4.845,3.147-7.843c1.132-3.497,1.432-6.977,0.899-10.44c-0.5-3.331-1.582-5.595-3.247-6.794
	c-0.899-0.599-1.981-0.849-3.247-0.749c-1.665,0.133-3.363,0.849-5.095,2.148c-3.197,2.397-5.312,5.861-6.344,10.39
	c-1.066,4.862-0.982,11.373,0.25,19.532c0.466,3.164,0.5,5.578,0.1,7.243c-1.998,9.558-3.796,19.416-5.395,29.573l-3.197,22.979
	l-2.348,16.485c-0.556,2.937-1.166,5.128-1.826,6.608c-5.192-12.153-11.173-23.684-17.956-34.583
	C77.29,67.865,65.418,53.295,52.197,41.073c-11.156-10.29-21.813-17.684-31.97-22.179c-9.258-4.129-15.353-4.795-18.283-1.998
	c-4.596,4.329-1.632,15.319,8.892,32.969c10.324,17.317,24.977,36.2,43.959,56.647c1.232,1.398,1.648,2.664,1.249,3.796
	c-2.964,7.792,3.93,18.133,20.681,31.021c0.966,0.799,1.232,1.798,0.799,2.997c-1.266,3.364-0.633,6.561,1.898,9.591
	c0.702,0.847,1.582,1.722,2.618,2.621c-1.296,4.275-1.968,8.45-1.968,12.516c0,12.355,3.347,21.93,10.041,28.723
	c3.657,3.729,8.148,6.437,13.458,8.139c0.308,3.271-0.146,9.592-1.37,18.986c-1.865,14.021-2.797,25.076-2.797,33.169
	c0,13.454,2.015,23.278,6.044,29.473c3.064,4.763,7.11,7.144,12.139,7.144c5.162,0,9.075-1.699,11.739-5.096
	c3.164-4.096,4.662-10.756,4.496-19.98c-0.1-5.429-1.332-9.857-3.697-13.288c-2.397-3.464-5.461-5.195-9.191-5.195
	c-3.164,0-5.761,1.731-7.792,5.195c-2.131,3.63-2.698,7.643-1.699,12.038c0.367,1.6,0.933,2.748,1.699,3.447
	c0.633,0.633,1.249,0.816,1.848,0.55c0.699-0.267,1.199-0.833,1.499-1.698c0.333-0.967,0.367-2.148,0.1-3.547
	c-0.566-2.931-0.316-5.279,0.749-7.043c0.933-1.6,2.315-2.398,4.146-2.398c1.632,0,3.081,1.133,4.346,3.396
	c1.399,2.531,2.098,5.778,2.098,9.741c0,5.162-1.016,9.392-3.047,12.688c-1.898,3.097-4.163,4.646-6.793,4.646
	c-3.03,0-5.628-2.681-7.793-8.042c-1.998-5.063-2.997-10.707-2.997-16.936c0-11.322,1.299-23.111,3.896-35.366
	c2.431-11.522,4.679-17.866,6.744-19.032c0.383-0.219,0.703-0.456,0.985-0.703c2.166-0.007,4.283-0.108,6.355-0.296
	c0.981,1.862,2.079,3.451,3.3,4.745c0.308,0.33,0.616,0.629,0.924,0.905c-2.505,3.5-4.995,7.177-7.468,11.034l-4.746,7.193
	c-2.431,1.998-4.496,4.762-6.194,8.292c-1.199,2.431-1.865,4.812-1.998,7.144c-0.167,2.264,0.216,3.696,1.149,4.296
	c1.132,0.699,2.215,0.832,3.247,0.399c1.998-0.933,3.813-3.146,5.445-6.645c1.632-3.43,2.581-7.01,2.848-10.739
	c0.2-3.297,2.864-8.026,7.992-14.187c1.451-1.747,2.833-3.291,4.162-4.675c0.511,0.029,1.022-0.003,1.533-0.121
	c1.241-0.28,2.195-1.42,2.866-3.41c3.401,2.764,7.016,5.102,10.872,6.957c0.75,0.358,1.499,0.694,2.245,1.008
	c1.074,1.713,2.567,3.589,4.499,5.636c3.197,3.396,5.812,5.096,7.843,5.096c1.432,0,2.647-0.699,3.646-2.099
	c0.699-0.933,1.099-2.314,1.199-4.146c0.016-0.426,0.013-0.844-0.003-1.255c5.004-0.273,9.901-1.65,14.689-4.141
	c1.666-0.87,3.171-1.848,4.549-2.91c2.119,1.935,4.514,3.357,7.19,4.259c3.529,1.232,6.427,1.166,8.691-0.199
	c0.898-0.533,1.615-1.433,2.148-2.697c0.466-1.199,0.715-2.531,0.748-3.997c0-2.382-0.795-4.928-2.361-7.633
	c5.169,3.018,8.874,4.916,11.104,5.685l2.598,0.449c0.6-0.066,1.149-0.35,1.648-0.849l4.146-5.095c0.199-0.334,0.549-0.6,1.049-0.8
	l1.498-0.249l23.029,2.597c0.966,0.999,7.793,6.428,20.48,16.285c12.488,9.724,19.066,14.97,19.732,15.735
	c4.662,5.328,9.024,9.142,13.088,11.439c3.663,2.098,7.909,3.363,12.737,3.797c1.865,0.166,3.147-0.417,3.847-1.749
	s0.583-3.014-0.35-5.046c-1.498-3.229-4.362-5.977-8.592-8.242c-4.43-2.397-10.091-4.112-16.984-5.145
	c-3.064-0.434-10.141-5.229-21.23-14.387c-11.023-9.125-17.268-15.285-18.732-18.482c-1.344-5.399-2.483-9.855-3.42-13.38
	c1.688-0.187,3.182-0.389,4.469-0.607c3.297-0.566,6.295-2.081,8.992-4.546c2.73-2.531,4.712-5.611,5.944-9.241
	c1.266-3.663,2.847-6.327,4.745-7.993c1.799-1.631,4.479-2.847,8.043-3.646l19.482-4.296c5.261-1.165,9.008-2.131,11.239-2.897
	c1.932-0.666,3.746-3.23,5.444-7.692c1.832-4.929,3.081-11.14,3.747-18.633c0.166-1.965,0.516-3.396,1.049-4.296
	c0.499-0.833,1.465-1.732,2.897-2.697c13.787-9.258,24.91-20.448,33.369-33.569c7.792-12.022,11.688-22.862,11.688-32.52
	C371.05,46.552,366.055,38.942,356.063,32.981z"/>
</svg>
