<?xml version="1.0" encoding="utf-8"?>
<!-- Generator: Adobe Illustrator 16.0.0, SVG Export Plug-In . SVG Version: 6.00 Build 0)  -->
<!DOCTYPE svg PUBLIC "-//W3C//DTD SVG 1.1//EN" "http://www.w3.org/Graphics/SVG/1.1/DTD/svg11.dtd">
<svg version="1.1" id="图层_1" xmlns="http://www.w3.org/2000/svg" xmlns:xlink="http://www.w3.org/1999/xlink" x="0px" y="0px"
	 width="259px" height="225px" viewBox="0 0 259 225" enable-background="new 0 0 259 225" xml:space="preserve">
<path d="M254.433,164.93c-6.925-4.461-15.296-10.254-25.116-17.377c-10.484-7.642-17.78-13.492-21.926-17.57l0.804-3.901l0.35-5.343
	c0.1-7.523-1.331-14.863-4.294-22.021c-2.864-6.862-7.011-13.227-12.404-19.106c2.938-4.307,7.751-10.385,14.451-18.244
	c8.788-10.287,16.479-18.659,23.069-25.117c1.798-1.764,2.446-2.696,1.947-2.796c-0.499-0.1-1.814,0.633-3.944,2.197
	c-5.326,3.928-13.25,9.154-23.769,15.679c-12.006,7.473-21.124,12.441-27.357,14.907c-7.758-5.294-16.31-9.573-25.672-12.81
	c-9.882-3.411-20.166-5.463-30.841-6.188c-1.229-4.364-2.566-11.399-4.012-21.125c-1.465-9.954-2.314-17.144-2.547-21.571
	C113.038,1.214,112.722-0.3,112.222,0c-0.499,0.333-0.732,1.864-0.699,4.594c0.1,6.192-0.433,14.148-1.598,23.868
	c-1.061,8.873-2.188,15.09-3.379,18.664c-7.285,0.38-14.509,1.511-21.672,3.39c-2.696-2.81-5.641-5.975-8.853-9.521
	c-7.457-8.255-14.547-16.461-21.271-24.617c-2.93-3.562-4.444-5.06-4.544-4.494c-0.067,0.532,0.932,2.43,2.996,5.692
	c7.79,12.55,13.548,22.77,17.277,30.659c0.987,2.113,1.858,4.143,2.649,6.116c-10.58,4.173-19.581,9.698-26.967,16.604
	C34.01,82.34,27.751,96.005,27.385,111.95c-0.292,10.692,2.959,20.848,9.732,30.468c-2.656,6.377-8.344,15.229-17.073,26.557
	c-5.892,7.656-11.568,14.497-17.027,20.521c-2.264,2.531-3.146,3.879-2.646,4.045c0.433,0.133,1.764-0.715,3.995-2.547l9.288-7.739
	c8.289-6.924,15.446-12.45,21.471-16.577c6.025-4.131,11.433-7.248,16.241-9.38c7.894,6.255,17.137,11.317,27.75,15.171
	c12.384,4.461,25.516,6.875,39.397,7.241c2.989,0.085,6.237,0.041,9.712-0.117c3.281,4.004,7.379,9.413,12.309,16.245
	c8.355,11.651,13.781,19.674,16.277,24.068c1.765,3.096,2.83,4.627,3.195,4.594c0.4-0.033-0.066-1.848-1.397-5.443
	c-3.296-8.921-6.092-17.143-8.389-24.666c-1.994-6.49-3.475-12.005-4.453-16.568c8.754-1.491,16.789-3.778,24.104-6.859
	c3.859,1.965,9.707,6.941,17.549,14.938c4.361,4.428,9.071,9.421,14.131,14.979c1.965,1.932,3.146,2.896,3.546,2.896
	c0.433-0.033-0.316-1.348-2.247-3.944c-2.697-3.595-6.508-9.438-11.436-17.526c-4.896-7.974-8.108-13.771-9.645-17.408
	c8.546-5.265,15.163-11.586,19.862-18.959c7.759,1.351,17.152,4.401,28.182,9.153c7.49,3.229,14.913,6.808,22.271,10.735
	c2.963,1.299,4.71,1.864,5.242,1.697C257.895,167.359,256.93,166.494,254.433,164.93z"/>
</svg>
