<?xml version="1.0" encoding="utf-8"?>
<!-- Generator: Adobe Illustrator 16.0.0, SVG Export Plug-In . SVG Version: 6.00 Build 0)  -->
<!DOCTYPE svg PUBLIC "-//W3C//DTD SVG 1.1//EN" "http://www.w3.org/Graphics/SVG/1.1/DTD/svg11.dtd">
<svg version="1.1" id="图层_1" xmlns="http://www.w3.org/2000/svg" xmlns:xlink="http://www.w3.org/1999/xlink" x="0px" y="0px"
	 width="391px" height="295px" viewBox="0 0 391 295" enable-background="new 0 0 391 295" xml:space="preserve">
<path d="M385.612,77.391c-1.631-11.618-4.261-19.141-7.889-22.569c-0.899-0.832-1.931-1.465-3.096-1.897
	c-1.198-0.433-2.33-0.549-3.396-0.35c-7.391,1.365-20.489,5.826-39.297,13.382c-18.441,7.423-38.132,16.095-59.07,26.015
	c-15.38,7.303-29.257,14.279-41.637,20.93c-2.491-4.746-5.319-9.163-8.495-13.24c-2.916-3.725-5.855-7.248-8.815-10.584
	c1.165-1.413,2.338-2.898,3.523-4.496c16.71-22.603,24.666-45.971,23.867-70.105c-0.233-7.656-2.63-12.283-7.19-13.881
	c-6.657-2.297-14.447,1.731-23.368,12.083c-7.723,8.955-13.682,19.107-17.876,30.459c-2.446,6.664-4.543,13.691-6.297,21.073
	c-0.829-0.581-1.659-1.147-2.491-1.7c-14.713-9.787-27.163-13.149-37.349-10.086c-4.028,1.199-7.989,4.96-11.884,11.285
	c-3.238,5.243-6.013,11.528-8.337,18.829c-2.441-3.667-5.385-7.479-8.839-11.439c-3.595-4.127-6.808-7.373-9.637-9.737
	c-7.79-6.491-15.545-11.717-23.269-15.679c-11.251-5.792-19.374-6.907-24.367-3.345c-1.265,0.932-2.181,2.48-2.747,4.644
	c-0.499,2.064-0.566,4.178-0.2,6.341c1.165,7.19,5.476,15.113,12.933,23.768c8.389,9.753,19.041,18.192,31.957,25.315
	c8.698,4.766,15.27,7.446,19.729,8.054c-0.021,1.234-0.025,2.477-0.006,3.73c0.111,7.067,0.877,14.204,2.267,21.406
	c-0.467,0.47-0.872,0.979-1.211,1.531c-35.902-6.238-62.459-10.374-79.649-12.402c-26.231-3.129-40.245-2.646-42.043,1.448
	c-3.063,7.091-1.282,21.671,5.343,43.741c2.63,8.688,5.443,16.478,8.438,23.368c3.029,6.924,5.376,10.952,7.041,12.083
	c1.665,1.133,6.658,1.715,14.98,1.748c4.061,0.033,11.817-0.166,23.268-0.6c-5.292,1.166-10.686,2.847-16.178,5.043
	c-5.027,2.031-8.222,3.695-9.587,4.994c-1.598,1.498-2.463,2.846-2.596,4.045c-0.1,1.131,0.399,2.563,1.498,4.293
	c4.427,6.891,11.618,14.082,21.571,21.571c9.454,7.058,15.712,10.386,18.774,9.986c2.13-0.267,7.856-2.53,17.177-6.79
	c3.6-1.66,6.764-3.111,9.51-4.363c3.32-1.311,6.944-2.749,10.872-4.314c-3.862,3.125-8.224,7.013-13.092,11.673
	c-4.927,4.694-7.856,7.69-8.788,8.988c-0.799,1.132-1.165,2.097-1.099,2.896c0.1,0.865,0.683,1.731,1.748,2.597
	c3.928,3.029,12.134,6.857,24.617,11.484c12.45,4.594,21.904,7.323,28.362,8.188c3.029,0.434,5.076,0.15,6.142-0.848
	c1.132-1.166,3.162-4.145,6.092-8.938l7.29-12.184c-1.864,7.724-3.196,13.731-3.995,18.026c-0.5,2.695,0.383,4.443,2.646,5.242
	c4.228,1.531,11.618,2.597,22.17,3.195c10.419,0.566,19.008,0.416,25.766-0.449c5.092-0.666,7.938-1.797,8.537-3.395
	c0.301-0.766,0.566-2.397,0.799-4.895l0.301-8.638c0-4.306-0.192-9.924-0.573-16.822l3.369,3.64c4.062,4.428,6.208,6.592,6.44,6.492
	c0.276-0.126,1.305-3.661,3.087-10.602c2.079,2.971,3.884,5.495,5.402,7.555c7.956,10.853,13.132,16.578,15.528,17.178
	c1.398,0.332,5.359-0.416,11.885-2.248c6.657-1.896,13.581-4.244,20.771-7.04c19.008-7.39,28.512-13.398,28.512-18.025
	c0-4.728-5.775-11.734-17.326-21.021c13.148,5.958,21.803,9.587,25.964,10.886c2.33,0.732,4.012,1.115,5.043,1.148
	c1.798,0,3.329-0.684,4.594-2.048c3.596-3.828,8.156-9.786,13.682-17.876c7.689-11.251,11.534-19.273,11.534-24.066v-0.75
	c-0.1-0.865-0.482-1.781-1.148-2.746c-0.599-0.932-1.248-1.614-1.947-2.047c-0.832-0.5-4.077-1.448-9.736-2.846l-15.829-3.896
	c9.255,0.399,18.076,0.333,26.465-0.2c9.786-0.665,15.545-1.847,17.276-3.545c2.862-2.896,6.108-11.352,9.736-25.365
	c3.862-14.847,4.544-24.201,2.048-28.062c-0.399-0.632-0.999-1.182-1.798-1.648c-0.832-0.499-1.614-0.749-2.347-0.749l-13.981,1.848
	l-20.422,3.146c11.751-4.428,20.472-7.873,26.164-10.336c9.055-3.994,14.064-6.957,15.03-8.888c0.266-0.533,0.482-1.814,0.648-3.845
	l0.25-5.992C387.36,94.801,386.777,85.547,385.612,77.391z"/>
</svg>
