<?xml version="1.0" encoding="utf-8"?>
<!-- Generator: Adobe Illustrator 16.0.0, SVG Export Plug-In . SVG Version: 6.00 Build 0)  -->
<!DOCTYPE svg PUBLIC "-//W3C//DTD SVG 1.1//EN" "http://www.w3.org/Graphics/SVG/1.1/DTD/svg11.dtd">
<svg version="1.1" id="图层_1" xmlns="http://www.w3.org/2000/svg" xmlns:xlink="http://www.w3.org/1999/xlink" x="0px" y="0px"
	 width="175px" height="199px" viewBox="0 0 175 199" enable-background="new 0 0 175 199" xml:space="preserve">
<path d="M165.42,81.913c-2.029-2.927-4.125-5.305-6.286-7.134c-1.962-1.696-3.259-2.378-3.892-2.045
	c-0.896,0.465-1.131,1.895-0.698,4.29c1.031,5.321-0.267,11.807-3.892,19.456c-3.384,7.171-6.738,10.993-10.064,11.47
	c-0.492-5.722-1.976-11.555-4.501-17.506c-3.823-9.046-9.61-17.443-17.36-25.193l-5.238-5.537c-1.629-1.962-3.109-4.307-4.439-7.034
	c-0.299-0.632-1.48-4.224-3.542-10.776c-1.886-6.112-3.386-10.159-4.509-12.171c1.219-5.244,1.745-11.062,1.564-17.462
	c-0.231-7.117-1.213-11.125-2.942-12.023c-1.33-0.699-4.854,0.066-10.574,2.294c-5.289,2.062-9.862,4.29-13.72,6.685
	c-8.913-3.126-17.311-3.808-25.193-2.045c-7.317,1.663-14.102,5.372-20.354,11.125c-3.924-1.131-9.113-1.447-15.565-0.948
	c-5.986,0.465-9.246,1.147-9.778,2.045c-1.098,1.896-0.083,5.92,3.042,12.073c3.05,6.003,6.5,10.858,10.341,14.581
	c-0.517,11.645,1.635,20.559,6.471,26.725c2.443,3.083,6.339,6.257,11.665,9.521c-6.796,2.4-12.224,5.226-16.254,8.49
	c-4.395,3.586-8.22,8.552-11.484,14.871c-0.013,0-0.025-0.005-0.039-0.005c-1.763,0-3.709,1.962-5.837,5.887
	c-2.062,3.857-2.661,6.436-1.796,7.732c0.266,0.365,0.998,0.531,2.195,0.498l2.43-0.418c-0.779,2.747-0.865,4.361-0.235,4.809
	c0.665,0.398,2.295,0.1,4.889-0.898c2.295-0.865,3.758-1.563,4.39-2.096c0.466-0.376,0.883-0.939,1.26-1.656l5.632-0.879
	c0.184,0.591,0.402,1.173,0.69,1.737c0.765,1.464,1.514,2.194,2.245,2.194c1.097,0,2.295-0.932,3.592-2.793
	c0.581-0.848,1.02-1.634,1.326-2.362l1.169-0.183l8.79-1.784c-0.688,3.398-1.116,6.814-1.298,10.246
	c-2.297,2.008-4.297,4.821-5.995,8.45c-2.262,4.689-3.392,9.629-3.392,14.816c0,12.105,5.521,20.854,16.563,26.241
	c2.273,1.128,4.642,2.007,7.105,2.639c-0.04,0.087-0.072,0.175-0.108,0.261c-1.121,0.424-1.963,1.296-2.51,2.638
	c-1.397,3.293-2.129,6.053-2.195,8.282c-0.067,1.528,0.083,2.427,0.449,2.692c0.15,0.112,0.3,0.188,0.45,0.244
	c-0.059,0.511,0,0.872,0.2,1.054c0.665,0.598,3.376,0.332,8.133-0.8c4.656-1.129,7.649-2.194,8.979-3.19
	c0.278-0.213,0.493-0.479,0.648-0.798c0.56-0.106,1.063-0.253,1.497-0.45c4.423-1.928,8.282-4.424,11.574-7.482
	c2.38-2.192,4.271-4.493,5.708-6.893c4.178,0.663,8.546,1.021,13.099,1.086c6.029,4.629,13.126,6.953,21.301,6.953
	c2.064,0,4.293-0.267,6.666-0.769c1.388,2.538,3.146,4.912,5.309,7.104c2.433,2.498,5.193,4.571,8.276,6.227
	c0.688,0.764,2.345,1.581,4.993,2.455c2.527,0.831,4.906,1.413,7.134,1.746l4.739-0.249c0.466-0.374,0.732-0.798,0.823-1.269
	l0.725-0.08c0.665-0.498,1.13-1.597,1.396-3.293c0.266-1.662,0.399-4.424,0.399-8.281c0-0.769-0.106-1.5-0.283-2.208
	c0.112-0.5,0.128-0.962,0.034-1.384c-0.965-4.355-2.429-8.215-4.391-11.572c-1.718-2.923-3.449-4.812-5.193-5.688
	c0.875-1.472,1.581-2.904,2.1-4.292c0.84-2.196,1.403-4.691,1.699-7.474c4.579-3.184,8.674-8.405,12.27-15.723
	c4.391-8.881,6.834-18.691,7.334-29.434C173.553,98.442,170.977,89.995,165.42,81.913z"/>
</svg>
