<?xml version="1.0" encoding="utf-8"?>
<!-- Generator: Adobe Illustrator 16.0.0, SVG Export Plug-In . SVG Version: 6.00 Build 0)  -->
<!DOCTYPE svg PUBLIC "-//W3C//DTD SVG 1.1//EN" "http://www.w3.org/Graphics/SVG/1.1/DTD/svg11.dtd">
<svg version="1.1" id="图层_1" xmlns="http://www.w3.org/2000/svg" xmlns:xlink="http://www.w3.org/1999/xlink" x="0px" y="0px"
	 width="285px" height="164px" viewBox="0 0 285 164" enable-background="new 0 0 285 164" xml:space="preserve">
<path d="M282.492,47.05c-1.411-6.119-6.785-12.027-16.133-17.723c-10.428-6.396-24.837-12.01-43.227-16.841
	c-17.525-4.631-36.398-7.996-56.621-10.095c-20.488-2.099-39.362-2.616-56.62-1.549c-1.432,0.1-2.482,0.5-3.148,1.199
	c-1.366,1.433-2.049,5.064-2.049,10.895l0.8,12.893l0.558,0.57l12.385,16.321c2.397,3.127,4.466,5.843,6.231,8.179
	c-8.195,0.635-15.573,1.859-22.159,3.655l-22.852-5.037L28.031,38.033c-0.307-1.882-0.557-4.919-0.746-9.156l-0.5-9.195
	c-0.233-2.132-0.783-3.481-1.649-4.048l-1.499-0.7l-1.599-0.3c-7.696,2.999-13.143,5.797-16.341,8.396
	c-2.925,2.37-4.642,5.073-5.153,8.11C0.175,32.645-0.015,34.331,0,36.224c0.034,4.664,1.233,11.794,3.598,21.389
	c2.865,11.494,17.324,21.938,43.377,31.333c5.633,2.028,11.5,3.88,17.573,5.577c-0.168,2.782-0.123,5.682,0.167,8.716
	c0.109,1.156,0.261,2.297,0.438,3.428c-3.002,1.568-5.338,3.652-6.985,6.268c-1.965,3.064-2.465,5.93-1.499,8.596
	c0.899,2.564,2.981,4.348,6.247,5.347c2.616,0.774,5.536,0.863,8.75,0.282c-1.92,2.78-3.096,5.535-3.503,8.264
	c-0.5,3.498,0.317,6.246,2.449,8.245c2.099,1.999,5.114,2.731,9.045,2.198c2.805-0.391,5.326-1.375,7.575-2.924
	c0.868,0.706,1.763,1.402,2.68,2.09c-0.528,1.611-0.869,3.369-1.01,5.282c-0.267,3.165,0,5.464,0.8,6.896
	c0.933,1.665,2.232,2.965,3.898,3.897c1.666,0.967,3.515,1.467,5.547,1.5c2.532,0.033,5.514-1.184,8.945-3.648
	c1.073-0.767,2.036-1.549,2.943-2.34c10.247,3.85,21.389,5.788,33.438,5.788c20.208,0,36.791-4.339,49.751-13.017
	c2.374,1.566,4.78,2.559,7.219,2.972c3.599,0.634,6.396-0.033,8.396-1.999c1.965-1.865,2.697-4.564,2.198-8.096
	c-0.33-2.25-1.166-4.494-2.478-6.732c4.422-1.292,7.923-3.024,10.473-5.211c2.366-2.032,3.699-4.164,3.998-6.396
	c0.234-1.732-0.316-3.516-1.648-5.348c-1.161-1.59-2.647-2.855-4.426-3.828c0.694-3.606,1.037-7.393,1.063-11.34
	c5.526-0.903,10.911-1.96,16.155-3.172c12.293-2.832,22.289-6.247,29.984-10.245c7.662-3.997,12.293-8.179,13.893-12.543
	c1.366-3.665,2.516-9.062,3.448-16.191C283.372,54.77,283.365,50.038,282.492,47.05z"/>
</svg>
