<?xml version="1.0" encoding="utf-8"?>
<!-- Generator: Adobe Illustrator 16.0.0, SVG Export Plug-In . SVG Version: 6.00 Build 0)  -->
<!DOCTYPE svg PUBLIC "-//W3C//DTD SVG 1.1//EN" "http://www.w3.org/Graphics/SVG/1.1/DTD/svg11.dtd">
<svg version="1.1" id="图层_1" xmlns="http://www.w3.org/2000/svg" xmlns:xlink="http://www.w3.org/1999/xlink" x="0px" y="0px"
	 width="252px" height="303px" viewBox="0 0 252 303" enable-background="new 0 0 252 303" xml:space="preserve">
<path d="M248.083,90.64c-1.864-6.759-4.795-13.385-8.79-19.877c-8.623-14.15-20.277-26.636-34.959-37.457
	c-22.808-16.88-50.359-27.452-82.655-31.713C91.014-2.469,62.847,0.877,37.176,11.631c-10.488,4.428-19.094,9.589-25.82,15.482
	C4.897,32.773,1.251,38.151,0.419,43.245c-0.866,5.194-0.15,14.383,2.147,27.568C5.164,85.696,8.543,95.285,12.705,99.58
	c7.921,8.128,18.439,15.68,31.54,22.659c-0.535,2.229-0.981,4.274-1.325,6.108c-4.994,3.962-7.508,8.157-7.542,12.585
	c0,4.628,1.548,9.322,4.645,14.083c3.196,4.861,7.625,9.256,13.285,13.186c9.031,6.243,19.387,10.322,31.064,12.245
	c-6.225,5.487-12.468,12.699-18.729,21.665c-6.659,9.522-12.935,20.393-18.828,32.612c-3.13,6.459-6.143,14.833-9.04,25.121
	c-3.43,12.319-4.112,19.61-2.048,21.874c2.73,2.997,7.042,5.277,12.935,6.843c8.89,2.331,19.062,1.864,30.515-1.398l4.495-0.2
	c5.194,0.6,7.924,0.066,8.19-1.598c0.066-0.5-0.1-1.099-0.5-1.798l-0.649-0.849l-1.842-2.605c0.093-0.331,0.19-0.687,0.294-1.091
	c0.599-2.131,0.999-3.945,1.198-5.444c0.167-0.965,0.2-1.514,0.1-1.647l-2.547-0.3l-4.097,0.459
	c-0.142-0.346-0.244-0.651-0.298-0.908l-0.05-0.649c0-4.794,1.731-14.217,5.194-28.267c4.023-16.354,8.255-28.36,12.696-36.039
	c0.962,9.628,4.986,17.646,12.075,24.053c0.618,0.557,1.272,1.071,1.922,1.592c-2.206,2.311-4.412,5.654-6.617,10.045
	c-4.062,7.99-6.559,16.88-7.491,26.668l-4.345,3.496c-0.726,0.693-1.272,1.348-1.646,1.963c-1.144,1.245-2.326,3.88-3.548,7.926
	c-0.466,1.565,0.083,2.281,1.648,2.148l5.044-0.699c1.305-0.258,2.374-0.544,3.219-0.856c-0.099,0.537-0.192,1.112-0.273,1.755
	c-0.233,1.998-0.35,3.945-0.35,5.844c0,0.865,0.133,1.314,0.4,1.348l2.697-0.898c2.53-1.166,4.428-2.164,5.693-2.996
	c0.348-0.218,0.662-0.436,0.96-0.653c0.011,0.214,0.021,0.426,0.039,0.653l0.599,5.043c0.2,1.432,0.416,2.215,0.649,2.348
	c0.333,0.199,1.132-0.199,2.397-1.198l4.994-4.096c0.489-0.432,0.89-0.855,1.251-1.276c0.031-0.025,0.069-0.044,0.098-0.072
	c4.162-4.028,8.074-6.892,11.736-8.59c3.764-1.731,6.027-2.963,6.793-3.695c1.065-0.966,0.682-2.647-1.148-5.045
	c-2.164-2.43-3.363-3.895-3.596-4.395c0.381-3.594,1.201-6.961,2.442-10.107c0.808,5.582,1.756,10.789,2.851,15.602
	c1.087,4.798,2.155,8.539,3.206,11.241l-1.857,2.293c-1.432,2.063-1.798,3.612-1.099,4.645c1.065,1.599,4.029,3.046,8.89,4.345
	c2.412,0.658,4.708,1.122,6.889,1.395c0.483,0.192,0.967,0.363,1.452,0.504c4.395,1.298,12.27,1.564,23.623,0.799
	c7.391-0.5,13.018-1.332,16.88-2.498c3.929-1.164,6.426-2.779,7.491-4.844c0.469-0.938,0.659-1.989,0.578-3.149
	c0.105-0.31,0.212-0.635,0.32-0.995l0.467-1.828l1.166,0.047c1.271,1.207,4.302,2.699,9.105,4.478l2.248,0.849
	c0.432-0.033,0.648-0.732,0.648-2.098c0-1.719-0.192-3.376-0.573-4.97c0.74,0.433,1.673,0.89,2.821,1.374
	c2.197,0.933,3.912,1.516,5.144,1.748l1.647,0.25c0.334-0.133,0.417-0.799,0.25-1.998c-0.199-1.631-0.565-3.18-1.099-4.645
	c-0.104-0.291-0.216-0.541-0.325-0.8c1.524,0.359,3.521,0.661,6.02,0.899l1.397,0.051c0.134-0.134,0.101-0.649-0.1-1.549
	c-0.399-1.631-1.115-3.279-2.147-4.944c-0.278-0.464-0.554-0.879-0.826-1.247c-0.953-1.813-4.006-4.51-9.162-8.092
	c-0.267-6.293-1.133-11.687-2.598-16.182c-3.362-10.221-9.622-18.795-18.777-25.721c1.164-2.796,1.748-6.009,1.748-9.639
	c0-14.083-5.91-26.02-17.73-35.809c-7.822-6.463-16.71-10.751-26.651-12.888c1.836-1.553,3.474-3.167,4.917-4.841
	c3.933,0.564,6.096,0.717,6.452,0.449c0.366-0.3,0.2-2.164-0.499-5.594l-0.593-3.097c0.26-0.528,0.525-1.054,0.764-1.592
	c0.409-0.182,0.81-0.383,1.2-0.604c1.467,0.993,3.413,2.349,5.87,4.094c4.262,3.063,6.709,4.711,7.342,4.945
	c3.163,1.098,10.138-0.233,20.926-3.996c11.72-4.062,20.959-8.906,27.718-14.533c1.932-1.598,4.744-6.342,8.44-14.233
	c3.329-7.059,5.894-13.318,7.69-18.778C250.23,102.11,249.881,97.199,248.083,90.64z M183.339,248.612
	c1.688,1.029,2.967,2.354,3.814,3.991c1.799,3.449,3.021,6.641,3.676,9.578C188.198,257.747,185.705,253.221,183.339,248.612z"/>
</svg>
