<?xml version="1.0" encoding="utf-8"?>
<!-- Generator: Adobe Illustrator 16.0.0, SVG Export Plug-In . SVG Version: 6.00 Build 0)  -->
<!DOCTYPE svg PUBLIC "-//W3C//DTD SVG 1.1//EN" "http://www.w3.org/Graphics/SVG/1.1/DTD/svg11.dtd">
<svg version="1.1" id="图层_1" xmlns="http://www.w3.org/2000/svg" xmlns:xlink="http://www.w3.org/1999/xlink" x="0px" y="0px"
	 width="260px" height="337px" viewBox="0 0 260 337" enable-background="new 0 0 260 337" xml:space="preserve">
<path d="M258.674,135.719l-3.498,0.15l-13.143,3.548l2.249-15.141c1.433-9.794,2.216-16.09,2.349-18.889
	c0.033-0.466-0.2-0.883-0.699-1.249c-0.434-0.333-0.934-0.483-1.5-0.45l-17.539,0.949l-13.242,0.899l-1.399-16.34l-1.749-21.737
	c-0.066-1.033-0.35-1.666-0.85-1.899c-0.399-0.2-1.183-0.2-2.349,0l-25.545,4.573c1.023-2.825,1.743-5.533,2.15-8.12
	c1.777-0.294,3.835-0.594,6.205-0.9l11.493-1.449l2.199-0.6c0.066-0.167-0.4-0.716-1.4-1.649l-6.046-4.848l-5.297-4.147l7.546-7.695
	l6.796-7.295l1.299-1.899c0.067-0.3-0.399-0.633-1.399-1c-4.297-1.466-9.277-2.349-14.941-2.648l-13.041,0.45l2.498-6.446
	c1.266-3.431,1.565-5.08,0.899-4.947c-0.667,0.1-2.382,0.933-5.147,2.499l-5.047,2.948c-0.366-1.466-0.85-4.864-1.449-10.194
	l-0.799-8.695c0-1.999-0.2-3.131-0.6-3.398c-0.434-0.267-1.5,0.1-3.198,1.1c-3.298,1.965-6.229,4.297-8.795,6.996l-4.548,5.447
	l-5.297-5.247l-5.047-4.797c-0.299-0.233-0.433,2.265-0.399,7.496l0.149,9.444c-13.758-5.697-21.32-8.628-22.686-8.795
	c-0.833-0.1,1.999,3.998,8.495,12.293l6.286,7.857c-6.104,3.685-11.143,8.349-15.113,13.994l-5.664-10.758l-7.995-15.491
	c-0.7-1.399-1.216-2.132-1.549-2.199c-0.167-0.033-0.75,0.366-1.749,1.199L86.976,28.883l-13.192,9.744l-4.198-6.746l-5.646-8.695
	c-0.899-1.266-1.616-1.749-2.148-1.449l-2.149,2.699L48.998,39.376c-0.543,0.785-1.057,1.537-1.577,2.296
	c-3.854-1.046-7.28-1.286-10.267-0.697c-4.364,0.833-10.144,4.031-17.339,9.594C13.086,55.767,8.139,62.246,4.974,70.008
	C2.109,77.004,1.293,83.2,2.525,88.597c1.126,5.068,7.993,23.847,20.59,56.312c-6.97,7.39-12.29,12.528-15.942,15.396
	c-2.499,1.932-3.531,3.148-3.098,3.648l4.897-0.35l10.494-2.499c-4.364,4.598-7.795,8.945-10.294,13.042
	c-4.031,6.496-6.779,13.625-8.245,21.387c-0.6,3.232-0.716,5.031-0.35,5.397c0.366,0.333,1.382-0.466,3.048-2.398
	c1.432-1.699,2.948-3.165,4.547-4.397c1.333-1.066,3.115-2.249,5.347-3.548c-4.831,10.427-7.563,21.287-8.195,32.581
	c-0.7,12.393,1.033,26.551,5.197,42.475c1.066,4.03,1.799,5.93,2.199,5.696l2.798-6.097l4.598-11.043
	c0.457-1.026,0.905-1.977,1.347-2.86c0.053,0.239,0.098,0.472,0.152,0.712c2.298,10.326,5.43,18.838,9.395,25.534
	c-2.465,6.463-4.364,13.026-5.697,19.688c-1.266,6.363-1.899,12.159-1.899,17.39c0,3.397,0.55,6.18,1.649,8.345
	c1.033,2.032,2.615,3.648,4.747,4.848c4.931,2.832,13.525,4.863,25.785,6.096c10.994,1.1,19.189,1.184,24.585,0.25
	c5.13-0.899,8.528-2.715,10.194-5.446c1.778-2.964,2.578-8.453,2.403-16.46c1.448,0.271,2.952,0.52,4.516,0.745
	c4,3.492,8.478,6.38,13.468,8.618c4.624,2.069,9.367,3.37,14.226,3.933c0.285,0.804,0.558,1.471,0.815,1.964
	c1.632,3.032,4.297,5.098,7.995,6.197c6.697,1.965,16.94,2.248,30.732,0.85c14.691-1.5,24.152-4.248,28.383-8.246
	c1.167-1.087,1.939-2.692,2.346-4.779c4.409-0.591,8.034-1.426,10.847-2.516c1.732-0.666,2.665-1.25,2.798-1.749
	c0.134-0.533-0.549-1.083-2.049-1.649c-1.832-0.699-3.164-1.266-3.997-1.699l-2.948-1.898l9.994,0.949
	c4.73-0.066,8.845-0.816,12.343-2.248c2.198-0.9,3.331-1.582,3.397-2.049c0.101-0.467-0.799-0.916-2.697-1.35
	c-1.6-0.369-3.358-1.159-5.27-2.351c3.924-1.61,8.394-4.388,13.414-8.343c5.73-4.464,9.378-8.961,10.943-13.492
	c1.633-4.764,0.684-8.928-2.848-12.492c-1.533-1.533-4.131-3.132-7.796-4.797l-8.295-3.449l7.595-2.048
	c3.766-1.399,5.997-2.932,6.697-4.598c1.065-2.632,0.965-5.696-0.301-9.194c-1.299-3.697-3.298-5.913-5.996-6.646
	c-1.666-0.466-4.098,0.367-7.296,2.499c7.429-11.56,11.144-19.955,11.144-25.185c0-1.199-0.533-2.648-1.6-4.348
	c-0.98-1.605-4.222-3.517-9.712-5.731l3.966,0.234l4.098-0.35c0.3-0.433-0.982-1.565-3.848-3.398l-14.541-9.894l-1.667-1.131
	c1.138,0.228,2.229,0.392,3.266,0.48l3.548-0.149c0.261-0.522-0.636-2.073-2.677-4.642c7.774-1.623,13.948-4.538,18.518-8.75
	c2.831-2.6,7.528-9.928,14.091-21.987l10.045-19.339C259.057,136.969,259.14,136.119,258.674,135.719z"/>
</svg>
