<?xml version="1.0" encoding="utf-8"?>
<!-- Generator: Adobe Illustrator 16.0.0, SVG Export Plug-In . SVG Version: 6.00 Build 0)  -->
<!DOCTYPE svg PUBLIC "-//W3C//DTD SVG 1.1//EN" "http://www.w3.org/Graphics/SVG/1.1/DTD/svg11.dtd">
<svg version="1.1" id="图层_1" xmlns="http://www.w3.org/2000/svg" xmlns:xlink="http://www.w3.org/1999/xlink" x="0px" y="0px"
	 width="149px" height="180px" viewBox="0 0 149 180" enable-background="new 0 0 149 180" xml:space="preserve">
<path d="M148.6,91.228c0.1-3.473-0.852-7.229-2.855-11.269c-1.869-3.773-4.391-7.262-7.563-10.468
	c-0.399-0.406-0.812-0.806-1.233-1.2c-1.685-6.226-4.486-12.172-8.433-17.832c-4.006-5.743-8.831-10.802-14.475-15.176
	c-5.074-3.906-10.768-7.179-17.078-9.816c-6.076-2.504-11.736-4.04-16.979-4.607c0.835-1.269,1.553-2.972,2.154-5.109
	c0.566-2.07,0.851-3.94,0.851-5.609c0-2.972-1.118-5.375-3.355-7.212c-2.438-2.003-5.91-2.955-10.417-2.855
	c-4.407,0.067-8.13,1.269-11.168,3.606c-2.972,2.27-4.441,4.941-4.408,8.013c0.1,3.473,1.77,7.195,5.008,11.168
	C45.226,26.068,33.573,33.597,23.69,45.451c-6.926,8.321-11.621,17.214-14.086,26.678C3.322,78.3,0.108,85.214,0,92.88
	c-0.038,1.28,0.075,2.573,0.335,3.878c0.405,2.253,1.176,4.533,2.319,6.84c1.703,3.406,4.124,6.711,7.262,9.917
	c1.675,1.702,3.546,3.298,5.603,4.796c2.88,8.541,7.883,16.294,15.032,23.251c1.756,1.711,3.604,3.31,5.528,4.814
	c-3.5,1.45-6.682,3.313-9.535,5.603c-5.509,4.408-7.93,8.865-7.262,13.373c0.534,3.84,3.689,7.111,9.466,9.816
	c6.544,3.072,14.157,3.939,22.838,2.604c8.08-1.235,14.958-4.091,20.634-8.564c1.519-1.188,2.803-2.377,3.868-3.567
	c0.834,0.539,1.566,0.995,2.192,1.363c2.271,1.336,3.974,2.004,5.109,2.004c1.736,0,3.756-1.469,6.06-4.407
	c1.287-1.652,2.445-3.497,3.498-5.494c0.989,0.578,2.056,1.095,3.214,1.537c3.539,1.402,7.346,1.954,11.418,1.653
	c9.75-0.668,18.131-5.643,25.143-14.926c4.074-5.375,6.444-11.452,7.112-18.23c0.603-6.446-0.521-11.716-3.331-15.837
	C144.337,106.758,148.383,99.401,148.6,91.228z"/>
</svg>
