<?xml version="1.0" encoding="utf-8"?>
<!-- Generator: Adobe Illustrator 16.0.0, SVG Export Plug-In . SVG Version: 6.00 Build 0)  -->
<!DOCTYPE svg PUBLIC "-//W3C//DTD SVG 1.1//EN" "http://www.w3.org/Graphics/SVG/1.1/DTD/svg11.dtd">
<svg version="1.1" id="图层_1" xmlns="http://www.w3.org/2000/svg" xmlns:xlink="http://www.w3.org/1999/xlink" x="0px" y="0px"
	 width="252px" height="272px" viewBox="0 0 252 272" enable-background="new 0 0 252 272" xml:space="preserve">
<path d="M246.01,133.426c-1.796-7.553-3.626-12.977-5.49-16.271c-2.928-5.024-7.469-8.984-13.625-11.878
	c-9.051-4.292-15.206-5.69-18.467-4.193c-1.564,0.699-2.596,1.88-3.095,3.544s-0.466,5.257,0.101,10.781l1.197,9.833
	c-3.062-0.266-5.24,0.2-6.539,1.397c-0.698,0.666-1.047,1.497-1.047,2.496l0.049,0.349c0.134,1.331,0.582,3.344,1.348,6.039
	c0.965,3.593,1.447,6.089,1.447,7.487l-0.149,1.298l-7.587,0.948c-4.857,0.433-7.885,0.383-9.083-0.149
	c-3.606-1.643-8.882-3.898-15.793-6.757c4.935-2.313,9.438-5.229,13.497-8.766c3.695-3.231,6.718-6.712,9.089-10.434l7.831,0.302
	c2.695,0.133,4.475-0.183,5.34-0.948c1.064-0.865,0.35-2.129-2.146-3.793l-6.95-3.917c1.534-4.384,2.31-9.049,2.31-14.001
	c0-16.87-6.306-30.462-18.916-40.777c-10.805-8.888-23.539-13.347-38.191-13.407c-0.43-4.714-1.817-9.61-4.184-14.693
	c-2.729-5.823-6.105-10.415-10.132-13.775C119.47,7.95,109.87,3.724,98.025,1.461C86.013-0.834,75.049-0.452,65.133,2.609
	c-2.961,0.898-9.4,3.178-19.315,6.838l-23.907,8.635C13.825,20.478,7.719,20.86,3.593,19.23C1.331,18.332,0.133,18.182,0,18.781
	c-0.1,0.466,0.449,1.314,1.647,2.545c7.287,7.52,16.836,12.761,28.648,15.722c12.112,3.028,26.902,3.71,44.371,2.046
	c16.637-1.564,34.788-3.959,54.453-7.187l2.994,4.242c1.4,2.229,2.332,4.458,2.849,6.688c-14.872,1.179-27.904,7.408-39.083,18.717
	c-5.39,5.457-9.5,11.463-12.328,18.018c-2.928,6.821-4.176,13.675-3.744,20.563c0.366,6.089,1.896,12.012,4.592,17.769
	c2.695,5.79,6.189,10.564,10.481,14.324c4.416,3.861,9.74,6.833,15.942,8.951c-2.995,1.504-7.602,3.492-13.846,5.973l-13.227,5.041
	c-3.094,1.132-4.642,3.927-4.642,8.386c0,1.131,0.399,3.077,1.198,5.839c0.699,2.296,3.843,4.958,9.433,7.985
	c1.778,0.958,4.807,2.408,9.084,4.35c-1.17,0.916-2.334,1.959-3.494,3.138c-5.89,5.956-9.317,12.96-10.282,21.013
	c-0.433,3.56-0.1,7.037,0.998,10.431c1.065,3.394,2.829,6.489,5.291,9.284c2.093,2.36,4.457,4.379,7.084,6.063
	c-0.651,4.376-1.777,7.044-3.39,7.961l-15.473,5.79c-10.415,3.926-16.071,6.255-16.97,6.987c-0.898,0.731-1.348,1.597-1.348,2.595
	c0.033,1.132,1.098,2.579,3.194,4.343c0.033,1.563,0.599,3.062,1.697,4.492c1.464,1.863,3.81,3.493,7.037,4.892
	c0.832,1.53,2.795,2.828,5.89,3.893l8.734,0.25c3.261-1.299,8.335-4.459,15.223-9.483c7.853-5.724,11.563-9.633,11.13-11.729
	c-0.266-1.464-1.181-3.111-2.745-4.941c-0.965-1.131-1.531-2.18-1.697-3.145c-0.166-1.031,0.35-2.545,1.547-4.541
	c0.538-0.87,1.12-1.687,1.723-2.479c0.241,0.01,0.482,0.029,0.723,0.033c9.117,0.133,16.337-2.546,21.661-8.036
	c1.387-1.423,2.589-2.979,3.617-4.663c2.75,3.418,5.884,6.127,9.41,8.107c4.159,2.328,8.584,3.493,13.276,3.493
	c1.625,0,3.204-0.114,4.738-0.333c0.865,3.507,1.168,5.785,0.901,6.821c-0.166,0.766-0.632,1.581-1.397,2.446
	c-0.599,0.731-1.015,1.314-1.247,1.746c-0.434,0.832-0.566,1.664-0.4,2.496c0.334,1.896,3.444,5.49,9.334,10.78
	c5.756,5.224,10.115,8.468,13.076,9.733c2.396,1.064,5.49,1.114,9.283,0.148c3.063-0.765,5.375-1.746,6.938-2.943
	c2.829,0.199,5.873-0.367,9.135-1.697c3.294-1.331,5.557-2.929,6.787-4.792c0.566-0.898,0.85-2.013,0.85-3.344l-0.101-0.649
	l0.499-0.398l1.896-1.498c0.666-0.599,0.998-1.197,0.998-1.797c0-0.865-0.516-1.746-1.547-2.645
	c-0.766-0.633-3.693-1.631-8.784-2.995l-18.218-4.592l-13.676-3.593c-0.498-0.301-0.98-1.914-1.447-4.842l-0.42-3.23
	c1.355-0.93,2.662-1.978,3.914-3.158c6.056-5.656,9.101-12.594,9.134-20.813c0.033-8.885-3.062-16.604-9.284-23.159
	c-4.892-5.104-10.391-8.164-16.493-9.189c-0.239-1.984-0.93-4.908-2.073-8.778l-2.695-8.984
	c13.41,6.755,23.408,10.914,29.996,12.479c6.422,1.497,15.506,2.112,27.252,1.846c12.977-0.332,21.694-1.83,26.153-4.491
	C249.488,160.211,249.903,150.329,246.01,133.426z"/>
</svg>
