<?xml version="1.0" encoding="utf-8"?>
<!-- Generator: Adobe Illustrator 16.0.0, SVG Export Plug-In . SVG Version: 6.00 Build 0)  -->
<!DOCTYPE svg PUBLIC "-//W3C//DTD SVG 1.1//EN" "http://www.w3.org/Graphics/SVG/1.1/DTD/svg11.dtd">
<svg version="1.1" id="图层_1" xmlns="http://www.w3.org/2000/svg" xmlns:xlink="http://www.w3.org/1999/xlink" x="0px" y="0px"
	 width="461px" height="317px" viewBox="0 0 461 317" enable-background="new 0 0 461 317" xml:space="preserve">
<path d="M459.181,197.425c-8.928-15.89-20.937-27.999-36.027-36.327c-11.793-6.529-25.201-10.626-40.225-12.292
	c8.728-4.364,15.757-8.911,21.087-13.642c6.029-5.363,11.242-12.059,15.64-20.087l1.499-3.048c-0.066-0.533-1.266-1.066-3.598-1.599
	c-19.954-4.497-38.192-1.616-54.716,8.645c-11.667,7.259-20.55,16.432-26.669,27.506c-3.982-0.968-9.217-2.525-15.704-4.67
	c-1.532-7.595-3.997-13.608-7.396-18.039c-0.557-0.724-1.126-1.39-1.705-1.999c0.465-1.815,0.706-3.631,0.706-5.446
	c0-3.532-1.266-8.394-3.787-14.578c7.803-11.579,13.581-27.566,17.328-47.983c1.5-8.328,2.433-16.207,2.799-23.635
	c0.333-6.896,0.1-11.826-0.699-14.791c-0.4-1.599-1.033-2.599-1.899-2.999c-0.899-0.399-1.948-0.283-3.147,0.35
	c-4.497,2.298-10.527,9.511-18.089,21.636c-6.343,10.176-10.618,18.941-12.828,26.296c-0.491-1.558-0.979-3.141-1.463-4.759
	c-3.398-11.393-5.58-20.687-6.546-27.882c-0.233-1.899-0.55-3.065-0.949-3.498c-0.467-0.5-1.066-0.066-1.8,1.299
	c-0.965,1.832-2.098,4.264-3.396,7.295c-1.633,3.931-3.016,7.762-4.148,11.493c-5.662-8.961-12.658-17.539-20.986-25.734
	c-7.162-7.029-12.858-11.56-17.09-13.591c-3.098-1.499-4.763-1.899-4.996-1.199c-0.1,0.233,0.233,1.132,0.999,2.698
	c1.199,2.398,2.865,6.263,4.997,11.593c2.965,7.362,4.613,12.475,4.947,15.34l-6.047-5.996l-5.596-4.397
	c-1.932-1.433-2.748-1.682-2.448-0.75l1.549,3.848l1.499,5.896c0.666,3.131,1.099,6.063,1.299,8.794
	c-3.294-1.672-7.51-2.986-12.635-3.945c-2.297-5.765-4.844-10.971-7.652-15.593c-6.063-9.96-13.142-16.956-21.237-20.987
	c-1.899-0.966-3.331-0.833-4.297,0.4c-0.7,0.933-1.399,3.015-2.099,6.246c-0.733,3.364-1.016,8.095-0.85,14.191
	c0.11,4.882,0.524,9.949,1.229,15.193c-9.654,1.38-19.308,4.043-28.961,7.992c-13.991,5.696-24.967,13.092-32.929,22.186
	c-1.832,2.099-2.682,3.415-2.548,3.947c0.167,0.566,1.549,0.033,4.147-1.599c2.765-1.766,7.012-3.548,12.742-5.347
	c5.796-1.799,10.843-2.898,15.141-3.298c-6.696,3.098-12.326,6.579-16.889,10.443c-4.964,4.197-8.878,9.027-11.743,14.491
	c-1.466,2.898-2.265,4.714-2.398,5.447c-0.167,1.166,0.799,1.083,2.898-0.25c3.998-2.499,9.361-4.78,16.09-6.846
	c-5.796,4.897-10.826,9.894-15.09,14.99c-4.031,4.831-6.746,8.961-8.145,12.393c-1.399,3.431-2.132,5.646-2.199,6.646
	c-0.033,1.033,0.683,1.066,2.149,0.1l5.746-4.347c2.765-2.166,4.864-3.631,6.296-4.397l-2.149,3.248l-6.096,9.244
	c-0.424,0.689-0.841,1.391-1.257,2.093c-4.729-4.708-9.621-8.762-14.683-12.136c-17.655-11.826-37.676-16.09-60.062-12.792
	c-2.099,0.3-3.464,0.783-4.097,1.449c-0.633,0.633-0.683,1.549-0.15,2.748c4.53,9.76,10.993,18.622,19.388,26.583
	c8.162,7.729,17.872,14.341,29.131,19.838c-15.39,4.963-28.382,10.693-38.975,17.189c-12.192,7.462-22.219,16.456-30.081,26.983
	c-1.333,1.799-1.916,3.114-1.749,3.947c0.133,0.766,0.966,1.332,2.499,1.699c13.358,3.33,27.016,4.297,40.974,2.897
	c7.23-0.739,14.624-2.133,22.17-4.145c-3.322,3.01-5.454,4.664-6.38,4.944L32.2,206.77c-3.397,0.433-4.83,0.865-4.297,1.299
	c0.366,0.267,1.615,0.75,3.748,1.449l6.746,1.949l8.245,1.799l-21.686,1.748c-9.627,0.5-16.373,0.467-20.237-0.1
	c-2.731-0.367-4.214-0.35-4.447,0.05c-0.233,0.466,1.083,1.532,3.948,3.198c5.729,3.331,12.692,6.463,20.887,9.394
	c4.43,1.565,10.76,3.548,18.988,5.946L31.9,234.651l-8.095-0.399c-2.965-0.233-4.447-0.033-4.447,0.6
	c0,0.666,1.482,1.865,4.447,3.598c5.164,3.031,13.441,6.746,24.834,11.143c16.456,6.363,33.745,11.643,51.867,15.84
	c1.212,0.28,2.41,0.54,3.611,0.805c0.273,0.574,0.552,1.124,0.836,1.645c0.966,1.766,1.815,2.682,2.548,2.748
	c0.666,0.066,1.799-0.6,3.398-1.999c0.3-0.26,0.591-0.528,0.887-0.792c15.847,3.093,30.656,4.72,44.428,4.881
	c-3.22,5.383-4.903,8.438-5.04,9.152c-0.167,1,0.15,3.448,0.949,7.346c0.8,3.932,1.433,6.063,1.899,6.396l1.349,0.799l2.349,0.9
	c0.3,2.231,0.816,5.129,1.549,8.693c0.8,3.665,1.316,5.564,1.549,5.697c0.866,0.566,6.246,1.449,16.14,2.648
	c10.16,1.232,15.907,1.565,17.239,0.999c0.533-0.233,1.166-1.632,1.899-4.197l2.348-9.394h2.299l1.799-0.201
	c0.433-0.133,1.299-2.182,2.598-6.146c1.233-3.798,1.899-6.279,1.999-7.445c0.1-0.899-0.75-5.28-2.548-13.142l-2.023-8.248
	c12.206-3.779,23.174-9.307,32.916-16.567c2.504,0.012,5.11-0.09,7.832-0.319c7.708-0.658,14.439-2.113,20.207-4.353
	c1.874,2.165,3.123,4.398,3.729,6.702l-4.348,0.85c-2.932,0.766-4.631,1.665-5.097,2.697c-0.6,1.232-1.166,3.332-1.699,6.297
	c-0.532,2.965-0.699,4.797-0.499,5.496c0.161,0.554,2.266,3.164,6.304,7.819c-0.733,10.021-1.003,15.518-0.808,16.466
	c0.199,0.799,1.749,3.314,4.646,7.545c2.965,4.33,4.764,6.579,5.396,6.746l15.441-1.1c9.627-0.967,14.623-1.649,14.99-2.049
	c0.534-0.503,1.616-3.481,3.246-8.931l4.049-0.613l4.497-0.7c0.967-0.299,1.6-0.816,1.899-1.549l1.599-4.746l1.199-4.697
	c0.233-1.232,0.283-2.115,0.15-2.648c-0.267-0.934-1.083-2.082-2.449-3.448l-10.942-10.894l-9.794-9.844
	c-0.966-0.999-2.849-1.965-5.646-2.897c-0.187-0.054-0.257-0.199-0.262-0.396l2.18-2.714c2.53-2.033,5.533-3.979,9.024-5.834
	c4.764-2.565,8.313-5.363,10.644-8.395c2.565-3.365,3.848-7.229,3.848-11.594c0-2.831-0.433-6.012-1.299-9.543
	c-0.899-3.798-2.132-7.296-3.697-10.494c-3.531-7.295-8.129-13.357-13.792-18.188c-2.944-2.506-6.274-4.741-9.962-6.725
	c0.455-0.87,0.949-1.763,1.466-2.668l11.545,11.84l3.348,3.148c1.066,0.767,1.865,1,2.398,0.699c0.566-0.332,0.766-1.215,0.6-2.648
	l-1.25-5.047c-0.272-0.896-0.568-1.808-0.853-2.712l-0.097-4.883c1.699,1.933,4.447,5.38,8.245,10.344
	c1.399,1.732,2.182,2.581,2.349,2.548c0.233-0.033,0.166-1.249-0.2-3.647c-0.766-4.63-2.231-12.142-4.397-22.536
	c0-0.001,0-0.002,0-0.002c3.311-2.066,5.997-4.395,8.046-6.993c2.978,0.425,7.639,1.678,13.943,3.739
	c-3.544,12.184-4.566,23.697-3.051,34.537c1.232,8.928,4.098,17.021,8.595,24.284c4.863,7.795,10.627,14.091,17.289,18.888
	c4.03,2.865,9.711,5.896,17.039,9.095c1.565,0.7,2.682,0.899,3.348,0.6c0.633-0.333,1.133-1.349,1.499-3.048
	c0.367-1.633,0.65-4.131,0.85-7.496c0.167-3.23,0.2-6.012,0.101-8.344c-0.367-8.828-1.566-16.473-3.598-22.936
	c-1.8-5.597-4.548-11.26-8.245-16.99c12.325,7.463,25.167,12.609,38.525,15.441c17.489,3.697,35.228,3.264,53.217-1.3
	c1.632-0.399,2.632-0.866,2.998-1.399C460.18,199.873,459.979,198.857,459.181,197.425z"/>
</svg>
