<?xml version="1.0" encoding="utf-8"?>
<!-- Generator: Adobe Illustrator 16.0.0, SVG Export Plug-In . SVG Version: 6.00 Build 0)  -->
<!DOCTYPE svg PUBLIC "-//W3C//DTD SVG 1.1//EN" "http://www.w3.org/Graphics/SVG/1.1/DTD/svg11.dtd">
<svg version="1.1" id="图层_1" xmlns="http://www.w3.org/2000/svg" xmlns:xlink="http://www.w3.org/1999/xlink" x="0px" y="0px"
	 width="363px" height="199px" viewBox="0 0 363 199" enable-background="new 0 0 363 199" xml:space="preserve">
<path d="M362.684,1.543L362.6,0.998c-0.3-0.433-0.983-0.7-2.05-0.8c-9.426-0.672-21.474,0.976-36.116,4.919
	c-6.508,1.67-13.336,3.813-20.479,6.419c-0.954,0.336-1.9,0.665-2.872,1.015c-25.74,9.303-47.93,20.389-66.568,33.259
	c-7.769,5.401-13.521,10.186-17.255,14.354c-3.4,3.801-6.186,8.352-8.352,13.654c-2.401,6.035-6.452,12.22-12.154,18.555
	L181.3,107.527l-7.629,7.202c-1.872-3.241-3.68-6.757-5.424-10.553c-4.068-8.869-9.853-14.971-17.355-18.305
	c-6.568-2.901-13.554-3.384-20.956-1.45c-10.443,2.722-17.651,7.983-21.636,15.771c-1.007-1.575-2.014-3.112-3.021-4.568
	C94.176,79.586,78.722,62.298,58.917,43.76c-8.903-8.369-20.522-16.554-34.86-24.557C10.153,11.401,2.217,8.384,0.25,10.151
	c-0.333,0.3-0.267,0.867,0.2,1.7l1.5,2.151c2.367,3.201,7.519,8.602,15.454,16.204l4.451,4.401v0.5
	c-0.867,5.468,3.185,14.154,12.153,26.058c10.437,13.837,24.857,27.974,43.262,42.411c-0.867,2.135,0.567,6.235,4.301,12.304
	c4.601,7.502,11.12,14.388,19.555,20.655l-0.05,0.451c0,2.2,1.383,4.65,4.151,7.352c2.567,2.533,5.785,4.801,9.653,6.802v0.05
	c0,2.501,1.667,4.984,5.001,7.452c1.241,0.925,2.55,1.708,3.923,2.357c3.773,10.486,11.846,17.774,24.234,21.849
	c4.932,1.631,11.126,2.813,18.575,3.549l-0.97,0.703l-1.15,1.051c-0.4,0.5-0.617,0.934-0.65,1.3c0,1.034,0.534,1.834,1.601,2.4
	l1.354,0.091c0.26,0.629,0.712,1.095,1.396,1.359c0.518,0.216,1.16,0.296,1.913,0.258l1.789,1.243
	c1.367,0.667,2.601,0.767,3.701,0.3c0.2-0.1,0.267-0.25,0.2-0.45l-0.25-0.399l-0.55-0.551c-0.282-0.25-0.521-0.502-0.74-0.756
	c0.166,0.034,0.311,0.077,0.49,0.105c0.517,0.058,1.035,0.005,1.552-0.136l1.099,0.636c1.434,0.567,2.667,0.551,3.701-0.049
	c0.333-0.234,0.333-0.484,0-0.751l-0.75-0.601l-1.15-1l-0.198-0.34c0.063-0.165,0.121-0.332,0.148-0.51l-0.2-0.801l-0.35-0.65
	l-0.15-1.05c0.041-0.215,0.106-0.427,0.195-0.638c1.036,0.035,2.084,0.065,3.156,0.088c1.036,0.022,2.077,0.021,3.119,0.019
	l-0.567,0.431l-1.15,0.9c-0.801,0.801-1.184,1.451-1.15,1.951c0,0.8,0.616,1.667,1.85,2.601c0.377,0.29,0.835,0.406,1.364,0.368
	c0.31,0.578,0.764,1.029,1.387,1.332c0.462,0.198,0.986,0.293,1.571,0.286c0.232,0.249,0.525,0.503,0.879,0.765
	c1.468,1.066,2.818,1.267,4.052,0.6c0.366-0.233,0.399-0.517,0.101-0.85c-0.56-0.56-1.004-1.065-1.349-1.524
	c0.063-0.032,0.126-0.066,0.188-0.101c0.158,0.043,0.329,0.076,0.501,0.107c0.073,0.124,0.151,0.246,0.259,0.367l0.05,0.05l1.7,1.05
	c1.268,0.566,2.418,0.551,3.451-0.05c0.533-0.3,0.617-0.601,0.25-0.9c-0.622-0.481-1.116-0.924-1.506-1.333
	c0.47-0.374,0.769-0.823,0.855-1.367l-0.05-1.601l-0.2-1.45c0.033-0.301,0.5-0.934,1.4-1.9l0.591-0.553
	c0.689-0.075,1.379-0.153,2.071-0.239l0.139,0.191l-0.05,1.15l-0.149,0.75l-0.101,0.7c0.094,0.514,0.369,0.924,0.807,1.242
	l-0.257,0.459l-1.15,0.85c-0.333,0.166-0.5,0.367-0.5,0.6c0,0.234,0.184,0.4,0.551,0.5c0.8,0.201,1.684,0.201,2.65,0
	c1.033-0.199,1.834-0.583,2.4-1.15l0.051-0.049c0.271-0.289,0.432-0.591,0.487-0.905c0.399-0.178,0.771-0.423,1.112-0.745
	c0.7-0.668,0.951-1.334,0.75-2.001c-0.133-0.501-0.684-1.233-1.65-2.2c-0.025-0.029-0.047-0.063-0.072-0.093
	c14.019-2.231,28.514-6.567,43.484-13.011c24.574-10.604,48.447-26.058,71.62-46.363c5.802-5.068,8.869-8.186,9.202-9.353
	c0.134-0.333-0.033-0.467-0.5-0.4l-0.7,0.2c-0.667-0.033-11.303,6.002-31.909,18.105l-32.709,19.205
	c-1.5,0.833-6.668,2.1-15.504,3.801l-14.004,2.551c0.7-4.035,9.402-12.537,26.107-25.508l27.258-20.505
	c0.467-0.467,0.416-0.751-0.15-0.851c-0.566-0.066-1.283,0.117-2.15,0.551c-14.938,7.469-27.174,14.12-36.711,19.955
	c-8.502,5.234-19.505,12.754-33.009,22.557l-0.742-0.575c5.022-2.431,7.956-4.772,8.794-7.027l0.301-1.751
	c0-0.732-0.25-1.517-0.75-2.35c6.335-2.901,11.619-6.402,15.854-10.504c3.835-3.701,6.119-7.151,6.853-10.353
	c0.567-2.067,0.5-3.7-0.2-4.901c4.401-2.867,8.486-6.168,12.254-9.902c4.567-4.535,6.818-8.103,6.752-10.703
	c0-0.667-0.15-1.233-0.451-1.7l-0.9-1.15c21.707-10.903,40.162-23.606,55.366-38.111c12.604-12.003,20.306-22.323,23.106-30.958
	c0.399-1.133,0.616-2.367,0.649-3.701c0.033-1.603-0.252-2.952-0.835-4.062c0.826-0.547,1.399-0.951,1.686-1.19
	c0.175-0.146,0.332-0.282,0.475-0.411c2.729-1.856,5.818-4.182,9.278-6.991c5.401-4.334,8.219-7.168,8.452-8.502L362.684,1.543z"/>
</svg>
