<?xml version="1.0" encoding="utf-8"?>
<!-- Generator: Adobe Illustrator 16.0.0, SVG Export Plug-In . SVG Version: 6.00 Build 0)  -->
<!DOCTYPE svg PUBLIC "-//W3C//DTD SVG 1.1//EN" "http://www.w3.org/Graphics/SVG/1.1/DTD/svg11.dtd">
<svg version="1.1" id="图层_1" xmlns="http://www.w3.org/2000/svg" xmlns:xlink="http://www.w3.org/1999/xlink" x="0px" y="0px"
	 width="763px" height="273px" viewBox="0 0 763 273" enable-background="new 0 0 763 273" xml:space="preserve">
<path d="M762.287,124.84c-0.633-2.996-8.656-4.927-24.069-5.792c-7.391-0.399-26.167-3.346-56.328-8.839
	c-35.555-6.458-62.187-12.467-79.897-18.027c-6.758-2.097-12.4-2.796-16.929-2.097c-2.763,0.466-7.54,2.214-14.331,5.243
	l-7.84,3.496c-3.329,1.465-7.69,3.262-13.084,5.393c-11.052,4.395-22.688,8.156-34.905,11.286
	c-14.795,3.817-28.823,6.26-42.086,7.328c0.113-2.176,0.19-4.376,0.19-6.629v-0.299c0.366-1.065,1.465-2.397,3.296-3.995
	c1.031-0.932,3.063-2.53,6.092-4.794l3.868-2.971l6.02-0.625c4.027-0.466,7.323-1.048,9.887-1.748
	c1.232-0.333,1.98-0.633,2.247-0.899c0.3-0.3,0.233-0.732-0.199-1.298l-6.392-8.489l13.482-5.493
	c7.124-2.796,11.785-4.561,13.981-5.293l3.945-1.448c0.399-0.366-0.149-0.999-1.647-1.897c-4.095-2.463-8.973-4.661-14.632-6.591
	l-7.827-2.316c-0.633-2.126-1.714-3.987-3.259-5.574c-2.163-2.23-5.409-4.095-9.737-5.593c-4.561-1.564-9.737-2.93-15.53-4.095
	c-6.591-1.332-12.184-2.014-16.778-2.047c-9.887,0-17.677,2.297-23.37,6.891c-8.09,2.696-18.026,4.627-29.812,5.792
	c-10.354,1.032-18.859,1.232-25.518,0.599c-3.795-0.366-5.893-0.366-6.292,0c-0.433,0.366,0.633,1.498,3.196,3.396l6.741,4.644
	c1.864,1.132,4.078,2.28,6.642,3.445c-5.293-0.299-10.819-1.015-16.579-2.147c-4.894-0.932-9.121-1.998-12.684-3.196
	c-3.595-1.232-5.576-1.548-5.942-0.949c-0.3,0.466,0.366,1.915,1.998,4.345c2.396,3.562,5.543,6.891,9.438,9.987
	c3.828,2.996,8.09,5.56,12.783,7.69c-2.987,0.546-5.991,0.97-9.01,1.282c-10.297-5.25-22.035-11.831-35.233-19.758
	c-25.533-15.314-48.504-31.127-68.911-47.439c-7.357-5.859-13.549-9.455-18.576-10.786c-5.26-1.398-16.196-2.264-32.808-2.597
	l-42.545-0.899l-42.795-1.598L57.74,4.245L3.41,0C1.212-0.067,0.164,0.865,0.264,2.796c0.1,1.797,1.148,4.078,3.146,6.841
	c4.794,6.658,10.786,11.335,17.977,14.032c2.796,1.065,13.799,4.395,33.007,9.987L98.488,46.49l-23.42-1.398l-26.516-0.799
	l-8.689,0.2c-2.963-0.066-4.195,0.932-3.695,2.997c0.466,1.931,2.264,4.311,5.393,7.141c7.657,6.991,16.046,11.202,25.168,12.634
	l21.123,3.146l16.429,2.747c-7.524,0.699-13.15,1.381-16.878,2.047c-6.691,1.165-9.92,2.846-9.688,5.043
	c0.299,2.696,2.913,5.709,7.84,9.038c5.093,3.462,10.121,5.41,15.081,5.843c6.559,0.566,25.534,0.566,56.927,0
	c-11.985,2.297-20.657,4.078-26.017,5.343c-9.155,2.197-14.332,4.078-15.53,5.643c-0.666,0.866-0.3,2.197,1.099,3.995
	c1.332,1.731,3.346,3.512,6.042,5.343c6.558,4.461,13.1,6.792,19.625,6.991l31.66-1.748l-10.137,3.146l-5.193,1.897
	c-1.198,0.366-1.615,0.865-1.249,1.498c0.366,0.599,1.631,1.481,3.795,2.646l9.737,5.043c4.694,2.197,8.09,3.362,10.187,3.495
	c1.964,0.101,4.428-0.316,7.391-1.248l7.041-2.147c-1.598,0.932-2.863,1.714-3.795,2.347c-1.764,1.198-2.38,2.063-1.848,2.597
	c1.998,1.997,5.044,4.128,9.139,6.392c6.225,3.495,11.519,4.794,15.879,3.896c6.559-1.299,14.981-3.346,25.268-6.143
	c-2.33,1.398-4.211,2.696-5.643,3.895c-1.931,1.564-2.78,2.747-2.547,3.546c0.233,0.933,3.296,1.997,9.188,3.196
	c5.859,1.231,9.488,1.564,10.886,0.998l24.668-9.537c-1.864,1.364-3.646,2.829-5.343,4.395l-3.645,3.495
	c-1.864,1.798-0.25,3.679,4.844,5.643c4.994,1.897,8.556,2.446,10.686,1.647l12.384-5.043l-2.747,3.096
	c-0.999,1.432-1.015,2.363-0.05,2.797c1.398,0.633,4.527,1.248,9.388,1.848c2.523,0.304,4.641,0.473,6.375,0.516
	c-2.32,1.072-4.549,1.988-6.674,2.73c-12.884,4.494-42.429,16.729-88.636,36.702c-45.508,19.708-78.366,34.439-98.574,44.193
	c-6.026,2.896-8.623,5.061-7.79,6.491c0.832,1.432,4.311,1.35,10.437-0.249l93.58-29.911c57.426-18.344,87.721-27.332,90.883-26.966
	c0.766,0.1,1.215,0.399,1.349,0.899c0.166,0.498-0.1,0.965-0.799,1.397l-81.096,67.063c-3.529,2.963-4.794,4.694-3.795,5.193
	c0.932,0.5,3.512-0.232,7.74-2.197c15.879-8.289,36.986-19.824,63.319-34.605c14.71-8.258,25.778-14.54,33.217-18.853
	c1.564,0.475,3.296,0.304,5.197-0.518c0.478,0.948,1.23,1.62,2.283,1.993c1.664,0.6,3.528,0.449,5.593-0.449
	c2.297-0.966,3.895-2.564,4.794-4.795c0.191-0.471,0.334-0.962,0.452-1.462c4.486,0.253,8.985,0.362,13.497,0.322
	c1.782,0.075,3.581,0.115,5.391,0.132c-0.992,1.397-1.6,2.732-1.812,4.004c-0.233,1.266-0.083,2.331,0.449,3.196
	c0.732,1.265,1.848,2.015,3.346,2.247l5.294-0.449c1.564,1.798,2.996,2.713,4.294,2.746c1.498,0.033,3.146-0.35,4.943-1.148
	c1.731-0.799,3.146-1.797,4.245-2.996c1.598,0.434,3.329,0.416,5.193-0.05c2.03-0.499,3.629-1.415,4.794-2.746
	c1.132-1.265,1.831-2.714,2.097-4.345c0.173-1.103,0.098-2.166-0.179-3.199c7.932-1.454,15.439-3.473,22.501-6.089
	c13.458-4.982,24.561-11.722,33.321-20.208c0.862,1.335,1.772,2.108,2.732,2.281l2.896,0.549l8.09,1.299
	c2.696,0.333,4.777,0.35,6.242,0.05c0.999-0.167,1.498-0.915,1.498-2.247l-0.35-2.797l-0.35-2.347
	c2.431,4.361,4.428,7.058,5.992,8.09c1.232,0.832,3.329,1.148,6.292,0.948l0.949-0.1c1.897-0.1,3.245-0.615,4.045-1.548
	c0.433-0.466,0.766-1.298,0.998-2.497c1.498,2.464,3.196,4.045,5.094,4.744l5.843,0.5l2.347-0.051c1.731,0,2.913-0.449,3.546-1.348
	c0.333-0.533,0.499-1.148,0.499-1.848c0-0.766-0.283-1.932-0.849-3.496l-3.196-9.688l8.789,11.835
	c1.864,2.364,4.677,3.762,8.438,4.194l7.94-0.299l0.599-0.101c0.732-0.1,1.282-0.482,1.648-1.148l0.149-0.849l-0.05-0.199
	l1.698,1.598c0.932,0.799,2.729,1.182,5.393,1.148l8.439-0.699l2.197-0.25c1.165-0.066,1.897-0.516,2.197-1.348l0.199-0.899
	c0-0.832-0.399-1.964-1.198-3.396l-3.646-5.293c4.961,3.895,8.756,6.425,11.386,7.59c3.895,1.798,8.423,2.53,13.583,2.197
	l10.336-1.099c2.431-0.865,2.514-2.58,0.25-5.144l-4.943-4.744l-9.737-9.388c9.521,5.726,18.593,10.403,27.215,14.032
	c8.123,3.429,13.699,5.043,16.729,4.844c7.724-0.533,13.249-1.314,16.578-2.348c4.562-1.397,4.378-3.162-0.549-5.293
	c-1.664-0.732-4.211-2.097-7.641-4.094c9.621,3.729,16.063,5.842,19.325,6.342c3.396,0.532,7.391,0.299,11.985-0.699
	c2.696-0.6,6.175-1.665,10.437-3.196c2.963-1.065,4.111-2.297,3.445-3.695c-1.065-2.197-6.025-5.659-14.881-10.387l-5.293-3.495
	c29.063,10.52,49.303,13.183,60.722,7.989c4.628-2.063,7.141-3.661,7.541-4.794c0.998-2.796-4.095-5.809-15.281-9.038
	c-2.13-0.633-5.193-1.798-9.188-3.495c13.948,1.931,24.668,2.629,32.158,2.097c5.127-0.366,9.288-1.431,12.484-3.196
	c2.43-1.397,3.845-2.695,4.244-3.895c0.766-2.164-1.73-3.879-7.49-5.144c8.189-0.166,14.998-1.081,20.424-2.746
	c4.128-1.265,7.258-2.88,9.388-4.844l3.945-3.246C761.804,127.153,762.486,125.905,762.287,124.84z"/>
</svg>
