<?xml version="1.0" encoding="utf-8"?>
<!-- Generator: Adobe Illustrator 16.0.0, SVG Export Plug-In . SVG Version: 6.00 Build 0)  -->
<!DOCTYPE svg PUBLIC "-//W3C//DTD SVG 1.1//EN" "http://www.w3.org/Graphics/SVG/1.1/DTD/svg11.dtd">
<svg version="1.1" id="图层_1" xmlns="http://www.w3.org/2000/svg" xmlns:xlink="http://www.w3.org/1999/xlink" x="0px" y="0px"
	 width="499px" height="201px" viewBox="0 0 499 201" enable-background="new 0 0 499 201" xml:space="preserve">
<path d="M498.227,170.665c-1.399-2.865-8.513-7.38-21.34-13.543c-13.394-6.431-30.385-13.36-50.975-20.79
	c-45.143-16.246-92.377-29.734-141.695-40.475c4.266-1.906,7.365-4.433,9.262-7.601c0.266-0.5,0.316-0.883,0.149-1.149
	c-0.2-0.266-0.716-0.466-1.55-0.6l-3.797-0.399l-3.049-0.15l-0.45-2.548l-0.35-1.5c-0.067-0.533-0.566-0.716-1.499-0.55
	c-0.685,0.111-1.776,0.425-3.243,0.928c0.253-1.509,0.425-3.033,0.494-4.576l0.042-0.392l8.354-2.606l29.735-9.445
	c11.694-3.765,18.225-6.097,19.591-6.997c0.633-0.433,1.065-0.966,1.299-1.599c0.366-0.866,0.15-1.699-0.649-2.499
	c-2.664-2.664-5.801-5.08-9.397-7.255c2.273-1.133,3.639-1.87,4.05-2.19c0.833-0.666,1.399-1.382,1.699-2.149
	c0.3-0.899,0.101-1.599-0.6-2.099c-4.864-3.565-11.661-6.38-20.39-8.446c-7.529-1.799-12.527-2.366-14.992-1.699
	c-0.332,0.095-2.023,1.77-5.059,5.007c-0.781-0.108-1.563-0.221-2.338-0.309l-7.047-0.25c-1.033,0.333-5.747,6.114-14.143,17.341
	c-0.787,1.048-1.534,2.043-2.254,3.005c-4.302-2.969-9.55-4.999-15.784-6.049c0.097-2.814,0.001-5.078-0.304-6.751
	c-0.133-0.767-0.332-1.283-0.6-1.549c-0.232-0.233-0.699-0.383-1.399-0.45c-6.43-0.333-13.577,1.232-21.439,4.697
	c-1.117,0.494-2.16,0.991-3.168,1.49c-0.125-1.416-0.314-2.971-0.58-4.688c-0.5-3.165-1.033-5.497-1.599-6.997
	c-0.267-0.733-0.566-1.166-0.899-1.299c-0.433-0.133-1.2,0.033-2.299,0.5c-11.061,4.631-20.057,10.162-26.987,16.592
	c-2.593,2.389-4.893,4.875-6.912,7.454c-29.423-14.509-56.078-26.512-79.945-35.99C71.122,8.196,44.702,0.833,26.911,0l-1.299,0.1
	c-0.2,0.133-0.267,0.45-0.2,0.949c0.333,2.132,1.133,4.498,2.399,7.097l2.899,5.047c-4.531-0.133-9.396-0.05-14.593,0.25
	c-6.031,0.366-10.528,0.949-13.494,1.749c-0.833,0.2-1.449,0.483-1.849,0.85c-0.433,0.367-0.5,0.716-0.2,1.049
	c6.896,7.33,28.103,17.558,63.618,30.685c19.724,7.296,41.546,14.409,65.468,21.339c15.389,4.423,30.837,8.533,46.343,12.342
	c-0.3,2.097-0.47,4.237-0.508,6.421c-9.41-0.127-18.311-0.053-26.695,0.227c-18.124,0.6-29.901,2.149-35.332,4.648
	c-7.763,3.532-12.827,8.496-15.193,14.893c-1.099,3.064-1.466,6.097-1.099,9.096c0.433,3.432,1.782,6.446,4.048,9.045
	c0.433,0.5,0.783,0.7,1.049,0.6l0.3-0.35c2.699-2.732,6.764-5.098,12.194-7.096c4.831-1.767,9.345-2.799,13.543-3.1l36.232-1.498
	c1.788-0.06,3.489-0.113,5.152-0.164c-3.279,2.081-7.114,4.524-11.549,7.359l-16.442,10.245l-9.295,5.448
	c-2.266,1.099-4.115,2.414-5.547,3.947c-1.1,1.199-1.732,2.249-1.899,3.148c-0.067,0.6,0.15,1.1,0.649,1.5
	c1.399,1.465,3.648,2.698,6.747,3.697c5.364,1.732,12.044,2.148,20.04,1.25c5.764-0.667,14.942-5.131,27.536-13.394
	c9.16-6.011,15.495-10.775,19.031-14.304c4.976,1.46,10.642,2.28,17.051,2.41c8.662,0.133,16.042-0.717,22.139-2.549
	c7.21-2.221,13.622-5.279,19.279-9.133c36.292,19.698,74.484,37.893,114.604,54.56c50.975,21.189,85.157,31.135,102.549,29.835
	l1.799-0.199c0.267-0.167,0.233-0.783-0.1-1.85c-1.433-4.664-3.582-9.379-6.447-14.143l-5.847-8.896l16.192,0.15l16.642-0.899
	c0.933-0.167,1.449-0.5,1.549-0.999L498.227,170.665z M435.896,142.851c0.013-0.004,0.025-0.007,0.038-0.011
	c2.793,1.028,5.512,2.045,8.157,3.05C441.433,144.891,438.699,143.877,435.896,142.851z"/>
</svg>
