<?xml version="1.0" encoding="utf-8"?>
<!-- Generator: Adobe Illustrator 16.0.0, SVG Export Plug-In . SVG Version: 6.00 Build 0)  -->
<!DOCTYPE svg PUBLIC "-//W3C//DTD SVG 1.1//EN" "http://www.w3.org/Graphics/SVG/1.1/DTD/svg11.dtd">
<svg version="1.1" id="图层_1" xmlns="http://www.w3.org/2000/svg" xmlns:xlink="http://www.w3.org/1999/xlink" x="0px" y="0px"
	 width="527px" height="298px" viewBox="0 0 527 298" enable-background="new 0 0 527 298" xml:space="preserve">
<path d="M524.262,246.297c-0.334-1.48-0.92-3.021-1.734-4.613c-0.023-0.047-0.052-0.096-0.076-0.143
	c-0.252-0.485-0.525-0.975-0.821-1.471c-0.087-0.146-0.18-0.294-0.271-0.441c-0.28-0.451-0.579-0.906-0.896-1.366
	c-0.082-0.12-0.163-0.239-0.249-0.359c-0.386-0.548-0.797-1.102-1.234-1.661c-0.035-0.045-0.067-0.089-0.103-0.134
	c-0.506-0.643-1.035-1.29-1.608-1.948c-0.305-0.352-0.636-0.708-0.979-1.066c0-0.001,0-0.001-0.001-0.002
	c-6.033-6.296-18.029-13.606-35.992-21.932c-8.331-3.899-17.443-7.787-27.362-11.666l-0.15-0.05h-0.049
	c-18.739-7.396-36.713-13.356-53.896-17.832c-10.163-2.656-20.7-6.37-31.611-11.14c0.521-2.386,0.96-4.797,1.292-7.242
	c0.865-6.326,0.982-12.171,0.35-17.532c-0.566-4.829-1.599-8.358-3.097-10.589c-0.566-0.833-1.315-1.282-2.248-1.349l-1.898,0.299
	c-11.888,3.197-21.777,2.931-29.67-0.799c-8.258-3.93-16.316-12.455-24.176-25.575c-2.031-3.396-3.396-5.478-4.096-6.244
	c-1.065-1.132-2.714-2.114-4.945-2.947c-3.097-1.166-5.711-2.781-7.842-4.845c-1.865-1.765-3.113-3.63-3.746-5.594
	c-2.697-8.725-0.85-17.799,5.545-27.223c5.66-8.325,12.271-13.853,19.829-16.583c3.396-1.232,5.428-2.531,6.094-3.896
	c0.633-1.398,0.184-3.513-1.349-6.344l-1.099-1.648c-4.143-5.331-10.366-10.255-18.628-14.781
	c-8.561-5.218-19.561-9.767-33.02-13.64C244.31-1.886,224.03-1.37,203.684,5.49c-7.559,2.531-14.285,5.694-20.18,9.49
	c-5.128,3.33-8.391,6.26-9.79,8.792c-0.899,1.631-1.199,3.063-0.899,4.295c0.3,1.398,1.382,2.897,3.247,4.496
	c1.432,1.265,2.964,2.897,4.596,4.895c1.731,2.064,3.13,3.996,4.195,5.794c1.399,2.384,2.266,4.63,2.627,6.746
	c0.102,0.757,0.138,1.5,0.114,2.232l-0.043,0.113c-1.732,3.796-4.629,7.126-8.691,9.99c-4.096,2.864-8.059,4.295-11.888,4.295
	l-29.92-0.999l-28.571-1.648c-21.811-1.066-38.611-0.217-50.399,2.547c-11.389,2.697-16.567,6.293-15.535,10.789
	c0.533,2.331,2.331,3.946,5.395,4.845c2.764,0.799,6.977,1.099,12.637,0.899c19.947-0.666,35.631,1.715,47.053,7.143
	c4.729,2.264,9.824,3.43,15.285,3.496c5.261,0,11.688-0.816,19.281-2.447c7.559-1.665,12.138-2.498,13.736-2.498h0.25
	c-1.299,1.232-2.564,2.214-3.796,2.947c-1.498,0.932-3.28,1.748-5.344,2.447c-4.362,1.465-11.921,2.115-22.677,1.948
	c-13.12-0.466-22.994-0.7-29.62-0.7L80.358,94.55l-16.184-0.899c-7.193,0-12.154,1.232-14.885,3.696
	c-2.331,2.098-3.146,5.211-2.447,9.341c6.236,36.736,16.288,67.261,30.147,91.583c-2.702,2.828-5.807,5.601-9.318,8.317
	c-8.591,6.659-20.796,13.902-36.613,21.728c-11.455,5.661-18.099,9.041-19.93,10.14c-5.96,3.529-9.374,6.91-10.239,10.14
	c-0.933,3.33-0.666,6.144,0.799,8.442c1.865,2.863,5.578,4.844,11.139,5.943c5.132,1.049,11.09,1.146,17.847,0.318
	c0.057,0.241,0.108,0.479,0.185,0.73c0.366,1.332,0.816,2.265,1.349,2.797c2.864,2.864,6.826,4.929,11.888,6.194
	c5.562,1.398,11.805,1.632,18.731,0.699c2.521-0.337,5.064-0.83,7.626-1.445c6.522,4.346,14.385,6.229,23.592,5.642
	c13.97-0.887,28.491-7.902,43.561-21.022c22.959,11.344,50.191,17.026,81.713,17.026c2.562,0,5.08-0.051,7.576-0.125
	c2.167,3.448,4.354,6.488,6.56,9.115c5.794,6.859,10.256,8.741,13.387,5.645l6.443,2.896c2.032,0.666,3.597,0.684,4.695,0.051
	c0.833-0.467,1.482-1.482,1.948-3.047l0.899-4.646c2.631,1.365,4.595,1.231,5.894-0.399c0.966-1.166,1.449-3.896,1.449-8.191
	c0-1.825-0.223-4.027-0.658-6.593c3.625-0.873,7.177-1.852,10.653-2.938c2.393,4.718,5.131,9.067,8.235,13.026
	c5.328,6.793,9.874,10.156,13.637,10.09c0.6,0,1.166-0.184,1.699-0.55c0.699-0.433,1.164-1.082,1.398-1.948
	c4.795,4.063,8.475,5.528,11.038,4.396c1.133-0.5,1.948-1.499,2.448-2.998c0.433-1.332,0.666-3.18,0.699-5.544l2.797,1.249
	c1.032,0.299,1.848,0.299,2.447,0c2.831-1.398,3.913-7.41,3.247-18.032c-0.56-8.756-2.145-15.811-4.73-21.209
	c1.728-1.287,3.406-2.609,5.04-3.966c17.653,13.415,39.058,23.841,64.187,31.299c0.911,0.294,1.776,0.553,2.586,0.77
	c18.133,5.171,34.22,8.813,48.289,10.948c7.57,1.29,14.444,2.191,20.592,2.688c17.416,1.399,28.072-0.483,31.968-5.644
	c0.933-1.266,1.382-3.081,1.349-5.445c-0.011-0.978-0.134-1.907-0.35-2.798c6.144-0.33,11.157-2.042,15.035-5.144
	c1.938-1.512,2.9-3.756,2.893-6.727c1.722-0.124,3.372-0.509,4.949-1.166c2.764-1.133,4.729-2.863,5.895-5.195
	C524.645,251.625,524.895,249.128,524.262,246.297z"/>
</svg>
