<?xml version="1.0" encoding="utf-8"?>
<!-- Generator: Adobe Illustrator 16.0.0, SVG Export Plug-In . SVG Version: 6.00 Build 0)  -->
<!DOCTYPE svg PUBLIC "-//W3C//DTD SVG 1.1//EN" "http://www.w3.org/Graphics/SVG/1.1/DTD/svg11.dtd">
<svg version="1.1" id="图层_1" xmlns="http://www.w3.org/2000/svg" xmlns:xlink="http://www.w3.org/1999/xlink" x="0px" y="0px"
	 width="309px" height="271px" viewBox="0 0 309 271" enable-background="new 0 0 309 271" xml:space="preserve">
<path d="M301.503,210.889l-11.294,0.899l-15.893-1.249c-8.23-1.232-16.775-4.98-25.64-11.245c-5.421-3.815-9.5-7.325-12.28-10.538
	c-0.027-0.775-0.065-1.56-0.112-2.355c-0.125-2.079-0.353-4.143-0.685-6.188c3.691,3.739,8.526,7.088,14.527,10.037
	c6.563,3.231,13.061,5.381,19.49,6.447l2.349,0.05c0.435-0.333,0.601-1.466,0.5-3.398c-0.313-6.271-1.853-12.492-4.592-18.664
	c1.851,0.86,4.328,1.869,7.44,3.022c5.063,1.832,8.662,2.914,10.795,3.248l3.947-0.25c0.434-0.435,0.366-1.517-0.199-3.248
	c-3.166-9.129-8.112-17.394-14.844-24.789c-6.217-6.841-13.089-11.957-20.607-15.373c6.014-2.092,11.082-4.656,15.16-7.715
	c0.934-0.7,1.365-1.283,1.3-1.749c-0.033-0.433-0.533-1.033-1.499-1.799c-11.2-8.668-24.242-13.91-39.112-15.745
	c2.333-0.956,5.058-2.369,8.179-4.246c4.696-2.798,8.729-5.664,12.094-8.596c0.967-0.833,1.332-1.549,1.1-2.149
	c-0.166-0.6-0.898-1.166-2.199-1.699c-5.928-2.502-11.644-4.375-17.15-5.631c5.352-2.158,10.957-4.68,16.853-7.612
	c6.029-2.999,9.828-5.114,11.394-6.347c1.301-1,1.899-1.683,1.801-2.049c-0.033-0.266-0.7-0.666-2-1.199
	c-9.361-3.865-20.156-5.964-32.385-6.297c-7.969-0.229-14.67,0.199-20.123,1.277c1.151-1.093,2.311-2.209,3.481-3.376
	c0.8-0.766,1.101-1.316,0.899-1.649c-0.233-0.333-1.1-0.616-2.6-0.85c-7.722-1.152-15.468-1.479-23.238-0.986
	c3.004-1.99,6.067-4.468,9.195-7.459c5.363-5.097,9.711-10.595,13.043-16.492c0.9-1.566,1.25-2.565,1.051-2.999
	c-0.168-0.367-1.051-0.617-2.649-0.75c-16.617-1.206-32.804,2.158-48.56,10.066c1.271-2.297,2.502-4.788,3.683-7.518
	c3.397-7.896,5.18-14.609,5.347-20.14c0.102-2.865-0.115-4.581-0.648-5.147c-0.467-0.5-1.633-0.483-3.498,0.05
	c-7.197,2.166-14.443,5.897-21.74,11.195c-6.024,4.404-9.908,8.237-11.667,11.502l-1.228-16.5c-0.2-2.299-0.516-3.582-0.949-3.848
	c-0.433-0.233-1.433,0.233-2.999,1.399c-2.372,1.759-4.731,3.661-7.078,5.696c0.264-1.432,0.492-3.611,0.681-6.596
	c0.3-4.631,0.383-7.746,0.25-9.345c-0.067-1.033-0.283-1.616-0.65-1.749c-0.367-0.1-1.299,0.15-2.799,0.75
	c-5.597,2.365-10.778,5.78-15.542,10.245c-3.594,3.392-6.569,6.985-8.928,10.78l-0.667-4.233c-0.167-1.133-0.45-1.766-0.85-1.899
	c-0.433-0.167-1.183,0.133-2.249,0.9c-6.215,4.503-12.054,11.536-17.519,21.076c-1.136-3.503-3.235-7.427-6.319-11.781
	c-0.566-0.833-1-1.25-1.299-1.25c-0.267,0-0.716,0.4-1.349,1.199c-3.398,4.265-5.797,8.946-7.197,14.043
	c-1.071,3.927-1.432,7.741-1.109,11.447c-1.656-2.318-3.548-4.455-5.688-6.4c-2.666-2.399-6.097-4.665-10.295-6.796
	c-0.933-0.467-1.549-0.667-1.849-0.6c-0.467,0.133-0.8,0.733-1,1.799c-1.871,9.105-1.491,17.985,1.124,26.639
	c-3.35-1.281-7.42-2.116-12.219-2.501c-4.398-0.366-8.213-0.333-11.444,0.1c-0.966,0.133-1.533,0.333-1.699,0.6
	c-0.133,0.3-0.034,0.95,0.3,1.949c2.332,6.563,5.864,12.244,10.595,17.042c4.721,4.842,10.075,8.135,16.048,9.916
	c-3.754,1.565-7.18,2.833-10.251,3.778c-3.932,1.233-6.914,2.799-8.946,4.698c-1.766,1.633-2.965,3.648-3.598,6.047
	c-0.3,1.167-0.433,2.166-0.4,2.999c0.02,0.465,0.102,0.976,0.234,1.52c-5.287,6.313-9.043,14.27-11.229,23.917
	c-2.399,10.527-2.432,20.989-0.1,31.385c0.267,1.266,0.5,1.998,0.7,2.199c0.233,0.231,0.6-0.033,1.1-0.801l3.998-7.445l1.033-2.066
	c-0.099,4.73,0.2,9.32,0.916,13.76c0.4,2.266,1.116,2.434,2.149,0.5c4.364-7.963,8.529-15.158,12.494-21.589
	c5.824-9.517,10.668-16.548,14.538-21.106l5.302,0.166c2.199-0.8,4.031-1.933,5.498-3.398c1.168-1.234,2.784-3.456,4.838-6.65
	c0.402,0.406,0.81,0.779,1.222,1.114l1.236,4.087l1.499,6.547c0.433,2.532,0.833,4.43,1.2,5.697
	c0.566,1.799,1.333,3.349,2.299,4.647c2.699,3.564,5.064,5.931,7.097,7.097c2.199,1.267,5.131,1.851,8.795,1.75
	c3.143-0.063,6.791-1.627,10.933-4.655l0.912,7.204c0.522,3.379,1.208,6.478,2.042,9.319c-11.738,4.527-17.5,9.83-17.288,15.904
	c-22.116,7.662-40.347,13.482-54.671,17.455c-2.465,0.699-3.682,1.299-3.648,1.799c0,0.601,1.549,1.433,4.647,2.498
	c5.596,1.935,11.205,3.562,16.826,4.895l-14.227,0.754c-2.332,0.134-3.681,0.466-4.048,0.999c-0.433,0.601,0.517,1.367,2.849,2.299
	c14.093,5.729,29.735,8.847,46.927,9.347c10.428,0.301,20.007-0.301,28.736-1.799c0.878-0.152,1.724-0.389,2.554-0.666
	c2.897,0.332,5.662,0.332,8.296,0.008c1.274,1.023,2.678,1.938,4.208,2.746l-5.213,3.408c-2.572,1.862-4.274,3.54-5.114,5.036
	c-0.044,0.022-0.089,0.037-0.133,0.062c-2.699,1.467-5.647,3.815-8.846,7.047c-3.599,3.666-6.53,7.514-8.796,11.545
	c-0.766,1.365-1.016,2.133-0.75,2.299c0.3,0.167,1.699-0.116,4.198-0.85c2.031-0.609,4.912-1.282,8.637-2.019
	c-1.324,1.901-2.539,3.873-3.639,5.916c-0.733,1.366-0.966,2.115-0.7,2.249l3.199-0.6l15.742-5.248
	c6.859-2.391,11.121-3.951,12.801-4.688c7.207-0.028,17.294-2.594,30.278-7.705c4.231-1.666,7.446-3.448,9.646-5.348
	c2.433-2.032,3.748-4.281,3.948-6.746c0.199-2.033-0.383-4.147-1.75-6.349c-1.023-1.715-2.327-3.168-3.9-4.371
	c1.982-0.254,3.998-0.575,6.051-0.977l4.099,4.199l3.248,2.947c4.767,4.029,9.696,6.963,14.788,8.82
	c-1.983,1.726-3.768,3.564-5.344,5.522c-2.453,3.062-3.738,5.76-3.896,8.108c-1.978,1.349-4.308,3.32-6.999,5.935
	c-5.531,5.364-9.412,10.229-11.645,14.595c-0.967,1.864-1.366,2.932-1.199,3.196l3.598-0.101l11.645-2.947
	c5.299-1.498,9.636-2.891,13.039-4.182c-2.041,3.041-3.707,6.133-4.991,9.277c-0.566,1.4-0.667,2.184-0.302,2.35l3.35-0.549
	c5.363-1.565,11.994-4.166,19.891-7.797c6.268-2.881,10.838-5.336,13.729-7.369c4.017-1.615,7.87-4.314,11.559-8.123
	c3.197-3.364,5.613-6.764,7.246-10.194c0.646-1.319,0.995-2.576,1.085-3.778c11.99,1.891,23.84,1.338,35.547-1.669
	c11.528-2.966,20.273-7.53,26.237-13.692c2.799-2.934,4.115-4.914,3.948-5.947C306.75,210.422,304.936,210.223,301.503,210.889z"/>
</svg>
