<?xml version="1.0" encoding="utf-8"?>
<!-- Generator: Adobe Illustrator 16.0.0, SVG Export Plug-In . SVG Version: 6.00 Build 0)  -->
<!DOCTYPE svg PUBLIC "-//W3C//DTD SVG 1.1//EN" "http://www.w3.org/Graphics/SVG/1.1/DTD/svg11.dtd">
<svg version="1.1" id="图层_1" xmlns="http://www.w3.org/2000/svg" xmlns:xlink="http://www.w3.org/1999/xlink" x="0px" y="0px"
	 width="91px" height="170px" viewBox="0 0 91 170" enable-background="new 0 0 91 170" xml:space="preserve">
<path d="M84.141,56.619c-0.576-1.384-1.203-2.708-1.88-3.971c1.194-2.723,1.995-5.659,2.382-8.817
	c0.468-3.911-0.017-6.569-1.455-7.973c-1.671-1.605-4.328-2.106-7.973-1.504c-2.947,0.476-5.756,1.495-8.432,3.021
	c-1.855-0.928-3.824-1.719-5.91-2.37l-4.815-0.169c-0.001-0.011,0.004-0.021,0.001-0.031c-1.504-5.75-3.928-11.634-7.271-17.652
	C44.742,9.798,40.529,4.666,36.15,1.758c-2.34-1.571-4.229-2.09-5.667-1.555c-1.404,0.501-2.541,2.039-3.41,4.613
	c-2.675,7.856-3.778,16.365-3.31,25.525c0.19,3.616,0.634,6.978,1.307,10.11c-2.932,1.962-5.692,4.554-8.277,7.792
	c-4.614,5.717-7.739,12.487-9.377,20.31l0.1,0.702c1.137,1.873,2.524,3.394,4.162,4.563c1.405,1.025,3.123,1.859,5.117,2.524
	c0.097,0.814,0.227,1.628,0.399,2.44c0.735,3.61,2.173,6.87,4.313,9.778c2.34,3.21,5.366,5.801,9.077,7.773
	c1.77,0.917,3.664,1.675,5.673,2.285c-1.451,3.031-3.397,5.917-5.874,8.646c-2.674,2.942-4.948,4.563-6.82,4.865l-7.874-7.523
	c-4.045-3.744-6.887-6.101-8.525-7.07c-2.507-1.471-4.463-1.722-5.867-0.752c-1.371,0.936-1.655,2.558-0.853,4.864
	c1.103,3.176,3.761,6.687,7.974,10.53c3.176,2.909,6.151,5.149,8.926,6.721c1.838,1.069,3.543,1.203,5.115,0.4
	c3.029-1.431,6.094-3.767,9.193-6.984c-2.822,4.805-6.57,11.942-11.249,21.428c-6.251,12.67-10.113,21.362-11.584,26.076
	c-1.271,3.979,0.167,6.352,4.313,7.121l12.085,0.602c5.188-0.026,8.698-0.414,10.541-1.161c0.698,1.04,1.675,1.653,2.949,1.813
	c5.717,0.668,10.916,0.568,15.595-0.301c3.511-0.636,7.572-1.939,12.187-3.912c4.079-1.705,8.106-2.373,12.085-2.006
	c1.004,0.101,1.555-0.017,1.655-0.351c0.101-0.268-0.15-0.669-0.753-1.204l-1.904-1.254l-1.354-0.852l1.253-0.552l1.957-0.753
	c0.4-0.233,0.568-0.451,0.501-0.651l-0.802-0.702c-0.703-0.435-1.789-0.803-3.26-1.104l-2.057-0.4l0.201-1.404
	c0.2-1.07,0.268-1.855,0.2-2.357c-0.034-0.568-0.185-0.886-0.452-0.953l-1.053,0.15c-0.468,0.135-1.203,0.502-2.206,1.104
	l-2.09,1.335c-1.375-3.411-2.767-6.387-4.175-8.931c1.586,0.656,3.124,1.003,4.609,1.027c1.806,0.033,2.959-0.535,3.461-1.705
	c0.501-1.137,0.217-2.475-0.854-4.012c-0.969-1.438-4.98-5.45-12.035-12.036c-1.616-1.518-3.102-3.067-4.479-4.643
	c-1.959-2.981-3.618-6.224-4.948-9.749c-1.496-3.951-2.431-7.823-2.835-11.622c5.45,0.188,10.265-0.656,14.419-2.57
	c3.154-1.456,5.983-3.561,8.513-6.266l6.933,1.101l5.667-0.401c2.44-0.669,3.861-2.056,4.263-4.162
	C89.089,76.762,88.152,66.281,84.141,56.619z"/>
</svg>
