<?xml version="1.0" encoding="utf-8"?>
<!-- Generator: Adobe Illustrator 16.0.0, SVG Export Plug-In . SVG Version: 6.00 Build 0)  -->
<!DOCTYPE svg PUBLIC "-//W3C//DTD SVG 1.1//EN" "http://www.w3.org/Graphics/SVG/1.1/DTD/svg11.dtd">
<svg version="1.1" id="图层_1" xmlns="http://www.w3.org/2000/svg" xmlns:xlink="http://www.w3.org/1999/xlink" x="0px" y="0px"
	 width="161px" height="243px" viewBox="0 0 161 243" enable-background="new 0 0 161 243" xml:space="preserve">
<path d="M159.744,129.315l-0.101-0.899c-0.666-1.398-3.196-2.947-7.593-4.645c-4.361-1.665-12.354-4.179-23.975-7.542
	c-4.305-1.234-8.643-2.75-13.012-4.515c3.652-1.799,7.044-3.657,10.164-5.575c7.959-4.861,13.703-9.823,17.232-14.885l1.1-1.798
	l-0.949-2.248c-6.777-16.76-16.714-31.767-29.783-45.035l0.014-0.019c5.028-8.425,7.625-16.899,7.792-25.424
	c0.167-8.758-2.381-14.086-7.642-15.984c-2.965-1.065-6.328-1.016-10.09,0.15c-3.963,1.199-7.809,3.48-11.539,6.843
	c-3.92,3.513-7.294,7.746-10.125,12.696c-8.182-2.598-16.417-2.912-24.704-0.946c-3.725-4.674-7.598-8.695-11.623-12.049
	C37.752,1.514,31.908-0.534,27.38,1.297c-2.298,0.933-3.78,3.48-4.446,7.643c-0.566,3.663-0.449,8.108,0.35,13.336
	c0.766,4.895,1.965,9.391,3.597,13.486c0.623,1.564,1.255,2.917,1.896,4.069c-0.463,0.989-0.891,1.993-1.248,3.024
	c-1.598,4.528-2.331,9.257-2.198,14.186c0.019,0.854,0.07,1.669,0.138,2.467c-2.848,3.229-6.205,7.796-10.078,13.716
	C7.767,84.911,2.805,95.7,0.507,105.59l-0.45,2.148l2.098-0.2c3.163-0.5,9.823-2.082,19.979-4.745l17.082-4.646l1.299-0.549
	l0.5-1.499c0.625-2.627,1.562-6.017,2.807-10.166c3.848,2.308,8.121,3.97,12.827,4.971c0.208-1.385,0.47-2.731,0.76-4.058
	c4.223,1.301,8.746,1.96,13.575,1.96c0.116,0,0.229-0.005,0.346-0.006c0.051,0.186,0.108,0.366,0.154,0.556
	c0.308,1.361,0.403,2.499,0.295,3.424c-1.363,1.334-3.841,3.156-7.438,5.467c-4.829,3.097-9.49,5.578-13.986,7.442
	c-2.031,0.866-4.179,1.598-6.443,2.198l-5.045,1.298c-2.764,0.833-5.095,1.632-6.993,2.397c-2.63,1.033-5.428,2.331-8.391,3.896
	c-4.096,2.198-8.392,5.728-12.887,10.589c-4.562,4.929-6.609,8.358-6.144,10.29c0.2,0.832,0.882,1.249,2.048,1.249
	c3.963,0,9.257-1.915,15.884-5.744c5.761-3.363,9.64-6.244,11.638-8.642c3.796-4.628,8.625-8.341,14.485-11.139
	c3.23-1.532,6.959-2.914,11.188-4.146c2.819-0.829,5.243-1.399,7.275-1.713c-0.691,1.43-1.513,3.172-2.48,5.259
	c-1.465,3.197-2.714,5.311-3.747,6.343c-2.564,2.631-6.526,4.911-11.888,6.843c-5.194,1.865-11.072,3.164-17.632,3.896l-1.298,0.1
	c-0.133,0.066-0.183,0.333-0.15,0.799l1.199,4.546c0.866,2.697,1.715,5.095,2.547,7.192c-3.03,1.665-6.727,3.097-11.089,4.296
	c-0.899,0.233-1.398,0.449-1.498,0.649c-0.1,0.166,0,0.582,0.299,1.248c0.833,1.799,2.265,4.063,4.296,6.793
	c2.431,3.164,4.195,4.713,5.294,4.646c0.633-0.066,1.781-0.866,3.446-2.397l4.196,2.547c3.363,1.865,6.077,3.113,8.142,3.746
	l1.249,0.2l1.549-1.049c3.763-2.864,7.708-7.525,11.837-13.985c0.934-1.476,1.825-2.964,2.68-4.463
	c1.01,3.86,2.303,7.44,3.913,10.706c2.23,4.581,6.277,10.812,12.124,18.673c-0.784,6.581-1.612,11.417-2.483,14.493
	c-2.397,8.458-4.495,16.966-6.293,25.524c-2.064,9.723-3.097,16.682-3.097,20.878c0,1.698,0.233,3.247,0.699,4.646
	c0.5,1.498,1.132,2.381,1.898,2.646c1.032,0.367,2.165-0.033,3.396-1.198c1.432-1.365,3.347-4.063,5.744-8.092
	c4.03-6.692,6.543-12.687,7.542-17.981c0.933-4.928,0.517-9.041-1.249-12.338c-1.199-2.23-1.932-4.944-2.197-8.141
	c-0.267-3.098-0.051-6.294,0.648-9.59c0.074-0.371,0.432-1.513,1.07-3.416c0.533,0.68,1.073,1.367,1.627,2.066l2.797,3.547
	c4.196,5.494,10.424,14.602,18.682,27.322c5.928,9.156,9.307,13.619,10.14,13.386c1.432-0.399,1.565-4.579,0.399-12.537
	c-1.332-9.124-4.129-17.632-8.392-25.524c-2.931-5.394-6.576-7.908-10.938-7.541c-1.898,0.199-3.713-0.566-5.444-2.299
	c-1.909-1.931-3.848-4.357-5.816-7.257c0.768-2.189,1.638-4.655,2.62-7.427l3.014-8.725c5.094,4.729,10.217,8.843,15.367,12.32
	c0.865,0.633,1.664,0.766,2.396,0.399c3.064-1.632,5.945-3.513,8.642-5.644l4.346,2.447l0.6,0.05l1.049-0.7
	c1.532-0.998,3.779-3.313,6.743-6.942c4.096-5.028,6.693-9.739,7.792-14.136l0.1-0.648c-0.1-0.134-0.483-0.316-1.149-0.55
	l-5.145-1.499l2.498-3.995c0.606-1.021,1.083-1.913,1.445-2.69c3.469,0.843,6.802,1.311,9.992,1.392
	c3.563,0.1,6.428-0.366,8.592-1.398c1.832-0.899,2.747-1.882,2.747-2.947C160.343,130.248,160.143,129.781,159.744,129.315z
	 M115.439,124.87c-9.99-2.73-16.25-4.945-18.781-6.643c-2.783-1.855-5.731-5.874-8.844-12.048c2.365,0.773,5.439,2.153,9.244,4.156
	c1.36,0.715,2.678,1.447,3.968,2.188c-0.014,1.103-0.023,2.206-0.072,3.306c-0.067,1.365,0.517,1.815,1.748,1.349
	c1.209-0.481,2.391-0.968,3.556-1.458c2.801,1.829,5.413,3.729,7.832,5.704c2.258,1.837,4.669,3.501,7.215,5.012
	C119.403,125.944,117.452,125.426,115.439,124.87z M98.307,103.742c-6.86-3.745-11.983-7.034-15.385-9.872
	c-0.575-2.032-1.032-4.037-1.348-6.012c-0.011-0.078-0.011-0.162-0.017-0.243c5.606-1.339,10.621-3.811,15.044-7.415
	c2.372,8.384,3.797,16.685,4.265,24.903C100.014,104.655,99.161,104.21,98.307,103.742z M79.626,151.393
	c0.764,0.095,1.51,0.139,2.247,0.158c-0.136,2.052-0.293,4.204-0.475,6.462C80.476,155.618,79.876,153.406,79.626,151.393z"/>
</svg>
