<?xml version="1.0" encoding="utf-8"?>
<!-- Generator: Adobe Illustrator 16.0.0, SVG Export Plug-In . SVG Version: 6.00 Build 0)  -->
<!DOCTYPE svg PUBLIC "-//W3C//DTD SVG 1.1//EN" "http://www.w3.org/Graphics/SVG/1.1/DTD/svg11.dtd">
<svg version="1.1" id="图层_1" xmlns="http://www.w3.org/2000/svg" xmlns:xlink="http://www.w3.org/1999/xlink" x="0px" y="0px"
	 width="331px" height="353px" viewBox="0 0 331 353" enable-background="new 0 0 331 353" xml:space="preserve">
<path d="M323.445,264.629c-5.736-6.471-14.842-13.442-27.316-20.913l-23.715-14.259c-10.639-6.671-20.596-13.541-29.867-20.612
	c-10.74-8.172-18.778-19.929-24.115-35.271c-4.755-13.68-6.006-26.376-3.76-38.093c3.081-2.006,5.953-4.901,8.613-8.686
	c0.407-0.578,0.784-1.163,1.16-1.749c2.397,7.904,4.419,15.742,6.044,23.512c3.603,17.577,9.339,32.403,17.21,44.477
	c6.537,10.006,13.292,16.56,20.263,19.662l2.751,0.95c0.602-0.067,0.834-0.851,0.701-2.352l-0.4-1.951
	c4.77,3.802,7.639,5.753,8.605,5.854c1.635,0.101,1.534-2.919-0.301-9.056l0.351-0.801l0.149-0.8
	c-0.566-6.537-5.52-15.143-14.858-25.815c-8.772-9.973-15.859-20.112-21.263-30.418c-3.502-6.738-7.037-15.31-10.606-25.716
	l-3.267-9.576c0.506-1.896,0.889-3.821,1.115-5.783c0.2-1.834-0.05-3.001-0.75-3.502l-3.502,0.1l-0.538,0.097
	c-0.354-0.735-0.708-1.435-1.063-2.098l-0.877-1.585c9.612-0.792,17.964-4.324,25.041-10.623
	c9.973-8.839,14.876-20.813,14.709-35.922c0-14.875-4.318-27.25-12.957-37.123c-9.605-11.006-22.881-16.51-39.824-16.51
	c-17.911,0-32.286,4.953-43.126,14.859c-9.939,9.139-14.909,20.346-14.909,33.621c0,9.405,3.686,17.227,11.057,23.464
	c3.205,2.733,6.89,4.964,11.019,6.728c-0.517,1.366-1.129,2.634-1.863,3.778c-2.735,4.336-6.971,6.988-12.708,7.955
	c-0.8,0.133-1.234,0.367-1.301,0.7c-0.066,0.267,0.167,0.667,0.701,1.201c2.468,2.335,5.353,4.203,8.655,5.604
	c2.907,1.214,5.84,1.92,8.797,2.131l-4.294,7.825l-8.355,14.458c-3.636,5.604-7.588,10.29-11.857,14.059
	c-28.384,25.148-42.576,44.093-42.576,56.834l0.3,2.701l-1.301,4.953c-0.6,2.335-0.934,4.303-1,5.904
	c-0.033,2.001,0.267,3.168,0.9,3.502c0.701,0.367,2.035,0.017,4.002-1.051c3.102-1.701,6.837-4.203,11.207-7.505
	c4.069-3.135,7.154-5.771,9.255-7.905c7.404-7.637,13.825-16.025,19.262-25.165c4.269-7.238,8.722-16.393,13.358-27.466
	c2.234-5.337,5.904-11.574,11.007-18.711c1.131-1.578,2.212-3.041,3.255-4.415c0.119,2.515,0.534,4.937,1.248,7.266
	c1.033,3.335,2.618,6.07,4.752,8.205c0.52,0.511,1.059,0.976,1.618,1.396c-8.155,6.136-14.198,11.613-18.077,16.414
	c-3.736,4.603-6.871,10.406-9.406,17.411c-1.647,4.544-4.703,15.329-9.157,32.307c-5.412,11.683-12.826,22.132-22.263,31.332
	c-18.645,18.178-42.375,27.733-71.193,28.667l-41.425-1.45c-10.74-0.935-16.31-0.9-16.71,0.1
	c15.338,23.096,38.888,35.922,70.639,38.489c-0.765,0.229-1.525,0.469-2.297,0.685c-7.538,2.502-11.54,4.686-12.007,6.554
	c-0.467,1.968,3.135,3.235,10.807,3.802c5.103,0.334,11.457,1.502,19.062,3.502c8.272,2.135,15.993,4.754,23.164,7.855
	c5.437,2.368,9.856,4.103,13.258,5.203c2.867,0.926,5.724,1.662,8.571,2.242c-0.256,0.285-0.508,0.579-0.767,0.859
	c-2.335,2.535-3.319,4.27-2.952,5.203c0.333,0.934,2.185,1.602,5.554,2.002c2.101,0.267,5.303,0.983,9.605,2.15
	c4.603,1.234,8.005,2.352,10.207,3.353c5.069,2.235,10.89,4.386,17.461,6.454c5.736,1.801,9.822,2.885,12.257,3.252
	c7.237,1.033,13.808-4.203,19.712-15.71c4.502-8.806,7.771-18.228,9.806-28.267c0.655-3.226,1.188-6.566,1.608-10.014
	c2.718,0.059,5.336,0.258,7.848,0.607c2.637,0.359,5.525,0.897,8.646,1.603c-0.283,13.02-2.02,26.821-5.244,41.424
	c-1.034,4.702-0.534,7.104,1.5,7.204c1.168,0.066,3.252-0.834,6.254-2.701c2.702-1.701,12.941-7.688,30.719-17.961
	c18.879-10.873,29.768-17.027,32.67-18.461c3.669-1.801,5.52-4.069,5.553-6.805c0.034-1.334-0.666-3.586-2.101-6.754
	c-0.155-0.345-0.341-0.711-0.511-1.066c1.529-1.744,3.545-4.231,6.064-7.488l4.402-5.504c0.289-0.327,0.564-0.623,0.834-0.905
	l10.223,0.705l6.309,0.839c0.275,0.079,0.526,0.136,0.746,0.162c0.245,0.036,0.468,0.04,0.68,0.027l0.17,0.022
	c0.026-0.012,0.035-0.033,0.059-0.047c1-0.154,1.586-0.915,1.743-2.305C330.8,275.451,328.516,270.332,323.445,264.629z
	 M212.629,77.036c3.631-0.923,6.566-2.313,8.805-4.174c1.067,2.301,1.602,4.786,1.602,7.455s-0.551,5.32-1.651,7.955
	c-0.422,1.003-0.963,1.96-1.587,2.887c-0.272-0.5-0.514-0.905-0.715-1.186c-1.467-2.068-3.519-3.552-6.153-4.453l-0.014,0
	C210.959,84.485,210.863,81.659,212.629,77.036z"/>
</svg>
