<?xml version="1.0" encoding="utf-8"?>
<!-- Generator: Adobe Illustrator 16.0.0, SVG Export Plug-In . SVG Version: 6.00 Build 0)  -->
<!DOCTYPE svg PUBLIC "-//W3C//DTD SVG 1.1//EN" "http://www.w3.org/Graphics/SVG/1.1/DTD/svg11.dtd">
<svg version="1.1" id="图层_1" xmlns="http://www.w3.org/2000/svg" xmlns:xlink="http://www.w3.org/1999/xlink" x="0px" y="0px"
	 width="220px" height="179px" viewBox="0 0 220 179" enable-background="new 0 0 220 179" xml:space="preserve">
<path d="M218.701,151.497c-5.954-21.024-17.182-39.037-33.681-54.04c-12.88-11.708-25.616-19.208-38.209-22.521
	c0.202-1.364,0.347-2.763,0.387-4.223c0.266-8.017-3.127-15.635-10.179-22.854c-5.456-5.622-10.861-9.281-16.218-10.978
	c1.099-3.925,3.825-8.915,8.184-14.969c4.856-6.786,10.029-12.292,15.519-16.516c3.26-2.495,4.407-4.059,3.442-4.69
	c-0.864-0.599-2.827-0.366-5.888,0.698c-7.385,2.562-14.82,7.967-22.305,16.217c-5.788,6.42-9.78,12.142-11.975,17.165
	c-10.812,0.1-20.192,2.994-28.143,8.682c-6.206,4.433-10.328,9.58-12.378,15.438c-14.641-2.812-27.168-2.376-37.569,1.327
	c-8.383,2.961-15.069,7.884-20.059,14.77c-5.988,8.283-9.181,18.262-9.581,29.939c-0.333,10.745,1.647,19.876,5.938,27.394
	c1.597,2.961,2.977,4.175,4.142,3.643c1.031-0.465,1.048-1.996,0.05-4.59c-3.027-8.283-3.958-17.1-2.794-26.446
	c1.297-10.412,5.04-18.895,11.227-25.448c5.456-5.788,12.308-9.464,20.558-11.027c8.027-1.548,16.921-0.954,26.66,1.731
	c0.23,2.482,0.835,4.888,1.822,7.217C55.509,81.627,46.06,88.485,39.319,98.006c-8.782,12.375-11.66,27.877-8.632,46.506
	c0.232,1.463,0.648,2.728,1.247,3.792c0.599,1.131,1.248,1.646,1.946,1.547c0.665-0.101,1.064-0.683,1.197-1.747v-3.043
	c-0.832-12.143,2.562-24.351,10.179-36.625C52.93,96.03,62.16,88.402,72.937,85.522c5.477,5.958,13.873,10.34,25.211,13.133
	c8.383,2.062,16.434,2.229,24.15,0.499c2.872-0.646,5.511-1.518,7.918-2.609c8.69,4.423,17.478,12.369,26.361,23.865
	c11.977,15.535,19.877,32.833,23.702,51.895c0.499,2.428,0.915,4.025,1.247,4.79c0.3,0.599,0.666,0.864,1.098,0.798
	c0.434-0.033,0.716-0.315,0.849-0.848l0.149-3.693c-0.531-20.424-6.67-39.336-18.412-56.733
	c-4.79-7.052-10.129-13.223-16.018-18.513c-3.426-3.125-6.76-5.692-10.007-7.716c0.398-0.398,0.801-0.793,1.175-1.215
	c1.445-1.632,2.64-3.413,3.627-5.315c3.232,0.598,7.406,2.23,12.541,4.917c6.42,3.393,12.906,7.75,19.46,13.073
	c17.065,13.839,30.122,30.321,39.17,49.448c1.164,2.462,2.028,4.025,2.595,4.691c0.398,0.498,0.799,0.665,1.197,0.498
	c0.399-0.133,0.582-0.498,0.549-1.098C219.5,154.69,219.234,153.393,218.701,151.497z M145.586,2.314l-1.871,0.059l1.836-0.171
	C145.574,2.233,145.585,2.271,145.586,2.314z"/>
</svg>
