<?xml version="1.0" encoding="utf-8"?>
<!-- Generator: Adobe Illustrator 16.0.0, SVG Export Plug-In . SVG Version: 6.00 Build 0)  -->
<!DOCTYPE svg PUBLIC "-//W3C//DTD SVG 1.1//EN" "http://www.w3.org/Graphics/SVG/1.1/DTD/svg11.dtd">
<svg version="1.1" id="图层_1" xmlns="http://www.w3.org/2000/svg" xmlns:xlink="http://www.w3.org/1999/xlink" x="0px" y="0px"
	 width="268px" height="233px" viewBox="0 0 268 233" enable-background="new 0 0 268 233" xml:space="preserve">
<path d="M255.648,26.594c1.6-3.599,3.267-8.298,5-14.097c1.565-5.299,2.516-9.165,2.849-11.597c0.067-0.434-0.083-0.717-0.45-0.85
	c-0.399-0.133-0.85-0.017-1.35,0.35l-5.148,4.299c-56.625,51.425-92.459,84.555-107.508,99.398
	c-0.524-0.992-1.072-2.019-1.669-3.119c-2.166-4.033-3.766-7.249-4.799-9.648c-1.466-3.399-2.383-6.349-2.749-8.848
	c-1.301-9.032-1.117-25.195,0.549-48.49l0.95-14.147c0.101-2.966-0.616-4.683-2.149-5.149c-1.566-0.5-2.783,0.983-3.649,4.449
	l-0.649,3.249c-5.766,30.693-10.648,49.889-14.647,57.588c-1.066,2-2.716,4.299-4.949,6.898l-6.749,7.148
	c-2.783,2.86-5.176,5.449-7.214,7.791L4.103,14.896c-1.566-1.233-2.683-1.6-3.35-1.1c-0.533,0.4-0.7,1.1-0.5,2.1l0.85,2.75
	l9.048,22.645c-0.8,2.266-1.6,5.466-2.399,9.598c-1.266,6.532-1.899,12.964-1.899,19.296c0,9.131,1.45,17.396,4.349,24.794
	c3.632,9.332,9.498,17.146,17.596,23.444c7.632,5.899,16.263,9.449,25.895,10.648c7.365,0.9,14.813,0.416,22.345-1.449
	c4.897-1.218,9.571-2.998,14.025-5.324c-0.249,1.507-0.363,2.999-0.329,4.475c0.2,8.931,3.399,16.096,9.598,21.494
	c4.563,3.93,10.263,6.492,17.083,7.702c0.052,1.609,0.274,3.161,0.661,4.659l-17.045,4.285c-10.265,2.666-15.83,4.5-16.696,5.5
	c-0.667,0.766-5.149,7.148-13.447,19.145l-14.397,20.446c-1.1,1.399-1.366,2.149-0.8,2.249c0.467,0.067,2.083-0.366,4.849-1.299
	l11.939-3.81c-0.357,0.689-0.718,1.386-1.092,2.109c-7.499,14.497-10.998,21.962-10.498,22.396c0.934,0.8,9.565-2.267,25.895-9.198
	c16.164-6.865,24.778-10.981,25.845-12.347c0.833-1.167,3.616-8.199,8.348-21.096c2.578-7.104,4.469-12.41,5.679-15.936
	c4.271,3.313,9.173,4.987,14.716,4.987c6.497,0,12.147-2.126,16.965-6.356c1.197,2.352,2.605,5.067,4.23,8.156
	c5.967,11.297,9.998,17.729,12.098,19.296c3.934,2.933,13.897,7.882,29.895,14.847l25.094,10.598c1.533,0.633,2.449,0.783,2.75,0.45
	c0.3-0.366,0.083-1.3-0.65-2.8c-6.181-12.145-11.276-22.035-15.289-29.674l17.988,2.13c1.967,0.167,3.033,0.033,3.199-0.399
	c0.167-0.367-0.316-1.2-1.449-2.5c-20.496-23.994-32.076-37.092-34.742-39.291c-0.767-0.667-7.382-1.133-19.846-1.4
	c-7.471-0.15-12.933-0.21-16.412-0.18c-0.998-3.977-3.222-7.567-6.684-10.768c-0.829-0.767-1.692-1.443-2.572-2.08
	c1.247-3.195,1.873-6.816,1.873-10.867c0-3.966-0.983-8.365-2.949-13.197c-0.098-0.242-0.214-0.51-0.326-0.774l1.576-0.575
	c15.33,12.197,31.909,18.113,49.738,17.746c18.063-0.367,33.344-7.182,45.84-20.445c10.898-11.531,16.447-25.328,16.646-41.392
	C267.547,54.222,263.646,40.225,255.648,26.594z"/>
</svg>
