<?xml version="1.0" encoding="utf-8"?>
<!-- Generator: Adobe Illustrator 16.0.0, SVG Export Plug-In . SVG Version: 6.00 Build 0)  -->
<!DOCTYPE svg PUBLIC "-//W3C//DTD SVG 1.1//EN" "http://www.w3.org/Graphics/SVG/1.1/DTD/svg11.dtd">
<svg version="1.1" id="图层_1" xmlns="http://www.w3.org/2000/svg" xmlns:xlink="http://www.w3.org/1999/xlink" x="0px" y="0px"
	 width="201px" height="159px" viewBox="0 0 201 159" enable-background="new 0 0 201 159" xml:space="preserve">
<path d="M200.45,112.492c-0.267-2.4-2.249-4.699-5.948-6.898c-1.132-0.676-2.921-1.574-5.321-2.679
	c4.765-1.435,7.446-3.654,8.021-6.669c0.366-2.033-0.334-3.783-2.1-5.249c-1.699-1.399-4.115-2.35-7.248-2.849
	c-3.1-0.467-6.115-1.268-9.048-2.4c-2.999-1.166-6.315-2.865-9.948-5.099c-2.232-13.33-6.914-24.61-14.046-33.841
	c-6.565-8.531-15.597-15.813-27.093-21.845c-1.733-0.933-2.4-1.899-2-2.899c0.434-1.2,1.933-2.766,4.499-4.699
	c2.267-1.766,3.433-3.399,3.499-4.898c0-1.767-0.767-3-2.299-3.699c-2.052-0.912-4.604-0.921-7.651-0.036
	c0.005-0.418-0.005-0.838-0.048-1.264c-0.266-2.366-1.199-4.016-2.799-4.949c-1.4-0.733-2.966-0.867-4.699-0.4
	c-1.066,0.3-2.166,0.95-3.299,1.95c-0.047,0.041-0.088,0.085-0.134,0.126c-1.017-1.089-2.255-1.864-3.716-2.326
	c-2.585-0.818-5.22-0.052-7.902,2.281c-0.016-0.027-0.028-0.055-0.045-0.082c-0.9-1.433-1.9-2.466-3-3.1
	c-1.399-0.866-2.949-1.049-4.649-0.55c-1.624,0.532-2.891,1.72-3.809,3.546c-1.992-1.268-4.102-2.059-6.338-2.347
	c-2.299-0.267-4.032,0.083-5.199,1.05c-1.6,1.333-1.433,3.583,0.5,6.749c1.8,2.799,2.699,5.349,2.699,7.648l-0.3,1.75
	c-0.3,0.7-0.783,1.133-1.45,1.3C64.018,23.88,50.837,32.762,40.04,46.758c-9.357,12.091-14.191,24.625-14.538,37.598l-6.807,0.393
	c-7.731-0.566-12.447,0.601-14.146,3.5c-1.366,2.299-0.833,4.915,1.6,7.848c1.412,1.723,3.056,3.063,4.926,4.03
	c-0.607,0.409-1.209,0.817-1.777,1.218C3.099,105.743,0,109.143,0,111.542c0,0.733,0.133,1.366,0.4,1.899
	c1.6,3.332,7.531,4.432,17.795,3.299c5.878-0.636,11.69-1.758,17.439-3.347c0.37,0.606,0.751,1.21,1.161,1.806
	c-1.819,2.774-2.556,4.955-2.204,6.54c0.267,1.267,1.417,2.366,3.449,3.3c2.7,1.263,5.898,1.7,9.585,1.328
	c0.858,0.665,1.74,1.323,2.662,1.971c0.815,0.573,1.641,1.128,2.475,1.666c-0.755,3.293-0.48,6.882,0.874,10.781
	c2.033,5.898,5.798,10.197,11.297,12.896c4.899,2.399,9.931,2.883,15.097,1.449c5.099-1.399,8.781-4.182,11.047-8.348
	c0.792-1.453,1.223-2.992,1.337-4.606c1.53,0.08,3.078,0.13,4.647,0.143c0.165,0.706,0.359,1.411,0.614,2.114
	c1.333,3.6,3.633,6.615,6.898,9.048c3.332,2.499,7.064,3.915,11.197,4.249c4.498,0.4,8.848-0.55,13.047-2.85
	c5.365-2.932,9.23-7.015,11.597-12.246c1.409-3.073,2.009-5.923,1.843-8.56c5.393,1.961,10.379,2.337,14.953,1.11
	c1.566-0.433,2.949-1.082,4.148-1.949c1.2-0.866,1.916-1.75,2.15-2.649c0.467-1.833-0.283-3.966-2.25-6.397l-4.976-5.225
	c0.132-0.151,0.25-0.306,0.378-0.458c9.543,3.286,17.877,5.003,24.992,5.132c6.166,0.133,10.998-0.899,14.497-3.1
	C199.384,118.507,200.816,115.824,200.45,112.492z"/>
</svg>
