<?xml version="1.0" encoding="utf-8"?>
<!-- Generator: Adobe Illustrator 16.0.0, SVG Export Plug-In . SVG Version: 6.00 Build 0)  -->
<!DOCTYPE svg PUBLIC "-//W3C//DTD SVG 1.1//EN" "http://www.w3.org/Graphics/SVG/1.1/DTD/svg11.dtd">
<svg version="1.1" id="图层_1" xmlns="http://www.w3.org/2000/svg" xmlns:xlink="http://www.w3.org/1999/xlink" x="0px" y="0px"
	 width="229px" height="300px" viewBox="0 0 229 300" enable-background="new 0 0 229 300" xml:space="preserve">
<path d="M223.66,270.734c-2.295-2.029-6.221-4.641-11.776-7.834c-6.72-3.859-12.192-6.288-16.418-7.286
	c-0.864-0.199-1.88-0.033-3.044,0.499c-1.027,0.486-1.99,1.179-2.896,2.056c-0.398-0.149-0.79-0.293-1.146-0.409
	c-0.818-0.272-1.691-0.207-2.615,0.185c-1.345-0.33-2.669-0.883-3.972-1.681c-1.896-1.198-2.711-2.396-2.445-3.594
	c0.365-1.563,1.764-3.094,4.191-4.591l8.035-4.491c5.256-3.094,9.082-6.869,11.477-11.328c2.596-4.89,4.092-11.576,4.491-20.061
	c0.208-4.54-0.633-9.707-2.519-15.501c2.849,1.38,5.026,1.932,6.511,1.629c0.965-0.2,1.681-0.716,2.146-1.547
	c1.031-2.063,1.231-5.755,0.6-11.079c-0.699-5.654-2.063-9.697-4.092-12.125c-1.198-1.465-3.161-2.712-5.889-3.743
	c-1.165-0.429-2.285-0.708-3.37-0.864c-0.072-0.067-0.157-0.142-0.234-0.213l0.36-0.021c2.994-0.799,5.023-2.163,6.088-4.093
	c1.231-2.328,0.932-4.807-0.898-7.435c-1.131-1.563-3.443-3.81-6.936-6.737c2.494-0.765,4.574-1.73,6.237-2.895
	c2.196-1.53,3.41-3.244,3.644-5.14c0.066-0.732-0.066-1.581-0.4-2.545c-0.299-0.865-0.631-1.48-0.998-1.847
	c-1.796-1.796-4.508-3.011-8.133-3.643l-8.982-0.998c-5.789-0.798-9.765-1.53-11.928-2.196c-3.725-1.198-7.068-3.227-10.029-6.088
	c0.465-3.227,1.081-6.155,1.846-8.783c0.965-3.194,2.029-5.439,3.194-6.737l8.034-0.35c2.595-0.532,4.607-1.464,6.038-2.794
	c0.897-0.898,1.58-2.013,2.046-3.343c0.398-1.264,0.565-2.562,0.499-3.893c-0.167-3.127,0.2-5.256,1.098-6.387
	c0.698-0.932,2.794-2.312,6.288-4.142l5.539-2.994c3.227-1.863,4.624-5.306,4.191-10.33c-0.121-1.448-0.375-2.91-0.755-4.385
	c7.977-8.317,13.489-16.387,16.524-24.209c1.996-5.157,3.16-9.914,3.492-14.272c0.333-4.524-0.249-8.434-1.746-11.727
	s-4.375-6.304-8.633-9.032c-3.627-2.329-8.533-4.607-14.721-6.836c-11.278-4.059-24.253-5.456-38.924-4.192
	c-15.803,1.331-28.295,5.473-37.477,12.426c-4.284,3.262-8.295,7.241-12.038,11.923c-0.554-0.156-1.125-0.295-1.735-0.396
	c-3.027-0.499-6.138,0.299-9.332,2.395c-3.526,2.295-6.205,5.656-8.034,10.08c-1.098,2.662-1.747,5.373-1.946,8.134
	c-0.2,2.928,0.149,5.389,1.048,7.385c0.746,1.673,1.802,3.035,3.158,4.098c-2.664,8.519-4.006,17.232-4.006,26.143
	c0,5.356,0.832,10.247,2.495,14.671c1.73,4.724,4.142,8.2,7.236,10.429c5.622,4.059,13.64,5.539,24.053,4.441
	c6.022-0.63,13.089-2.187,21.163-4.642c0.604,1.268,0.925,2.517,0.943,3.744c0.033,2.429-0.3,4.674-0.998,6.737
	c-0.731,2.063-1.729,3.693-2.994,4.891l-12.276,0.648l-12.924,0.3c-5.656,0.266-9.848,1.364-12.576,3.293
	c-2.396,1.697-3.36,3.759-2.894,6.188c0.266,1.397,1.048,2.694,2.345,3.892c1.364,1.231,3.027,2.096,4.99,2.595
	c-2.229,0.932-3.909,1.863-5.04,2.795c-1.165,0.964-1.863,2.063-2.096,3.293c-0.2,1.064-0.116,2.229,0.25,3.493
	c0.399,1.364,1.065,2.545,1.996,3.543c1.021,1.071,2.191,1.909,3.476,2.566c-3.696,4.763-6.642,10.007-8.815,15.747
	c-1.382,3.627-2.329,7.245-2.863,10.856c-20.861-1.553-36.646-8.642-47.338-21.286c-5.988-7.119-10.413-15.419-13.274-24.9
	c-0.69-2.271-1.25-4.48-1.694-6.636c1.261-0.408,2.475-0.939,3.64-1.598c1.144-0.653,2.104-1.385,2.904-2.185
	c1.271,0.39,2.582,0.588,3.933,0.588c4.125,0,7.568-1.314,10.33-3.942c2.928-2.761,4.375-6.388,4.341-10.879
	c-0.066-3.992-1.563-7.418-4.491-10.28c-2.764-2.732-6.034-4.144-9.799-4.268c-0.321-3.825-1.908-7.128-4.772-9.904
	c-3.26-3.161-7.186-4.741-11.777-4.741c-4.558,0-8.467,1.58-11.727,4.741c-1.547,1.5-2.715,3.146-3.528,4.931
	c-3.665,0.204-6.951,1.659-9.846,4.4C1.58,99.421,0,102.898,0,106.857s1.547,7.402,4.641,10.33
	c3.061,2.861,6.604,4.292,10.629,4.292c0.757,0,1.502-0.07,2.238-0.196c0.62,1.788,1.368,3.29,2.253,4.487
	c1.313,1.782,3.083,3.106,5.278,4.006c0.102,2.108,0.252,4.325,0.461,6.673c1.131,12.476,3.709,24.002,7.735,34.583
	c4.957,12.975,11.993,24.102,21.108,33.384c10.746,10.926,23.761,18.55,39.03,22.895c0.572,1.249,1.214,2.375,1.939,3.354
	c1.73,2.295,1.83,4.89,0.3,7.784c-0.832,1.597-2.545,3.743-5.14,6.438c-1.53,1.597-2.728,4.491-3.593,8.683
	c-0.532,2.784-0.974,6.478-1.33,11.056c-0.756,1.045-1.414,2.115-1.964,3.216c-0.998,1.996-1.53,3.41-1.597,4.242
	c-0.133,1.131,0.25,2.711,1.148,4.74c1.098,2.563,3.21,5.64,6.337,9.232c3.726,4.258,7.785,7.801,12.176,10.629
	c1.563,0.998,2.462,1.497,2.694,1.497c0.466,0,1.181-0.749,2.146-2.245c1.963-3.027,3.293-6.92,3.992-11.678
	c0.418-2.947,0.533-5.763,0.347-8.448c3.619,2.736,7.649,5.582,12.129,8.548c4.856,3.228,7.95,5.091,9.281,5.59l2.795,0.947
	c0.531,0.033,0.864-0.498,0.998-1.596c0.765-5.689,0.016-11.045-2.246-16.068c-2.662-5.855-7.568-11.777-14.721-17.766
	c-0.566-0.433-1.265-0.532-2.096-0.299c-0.333,0.111-0.721,0.326-1.152,0.625l-2.242-4.368c-1.064-1.963-1.597-3.36-1.597-4.192
	c0-1.796,0.499-3.109,1.497-3.941c0.699-0.633,2.429-1.498,5.19-2.596l5.29-1.945c2.561-0.998,4.807-2.029,6.736-3.094
	c1.053-0.594,2.037-1.217,2.976-1.858c6.379,0.795,13.204,0.719,20.478-0.238c3.226-0.431,6.156-0.97,8.799-1.615
	c0.267,0.393,0.498,0.797,0.684,1.216c0.632,1.432,0.798,3.311,0.498,5.639c-0.332,2.363-0.998,3.992-1.996,4.891l-2.594,2.645
	c-0.533,0.832-0.583,1.83-0.15,2.994c0.565,1.498,1.414,4.975,2.545,10.43c1.197,5.723,1.797,9.365,1.797,10.93
	c0,2.127,4.088,3.905,12.244,5.336c0.012,0.05,0.018,0.104,0.031,0.152c0.633,2.063,6.354,3.676,17.166,4.841l22.356,0.948l4.94-0.3
	c1.697-0.166,2.678-0.532,2.944-1.098c0.183-0.406,0.014-0.976-0.497-1.704l1.246-0.092c2.428-0.3,3.759-0.749,3.992-1.348
	C228.717,276.058,227.221,273.828,223.66,270.734z"/>
</svg>
