<?xml version="1.0" encoding="utf-8"?>
<!-- Generator: Adobe Illustrator 16.0.0, SVG Export Plug-In . SVG Version: 6.00 Build 0)  -->
<!DOCTYPE svg PUBLIC "-//W3C//DTD SVG 1.1//EN" "http://www.w3.org/Graphics/SVG/1.1/DTD/svg11.dtd">
<svg version="1.1" id="图层_1" xmlns="http://www.w3.org/2000/svg" xmlns:xlink="http://www.w3.org/1999/xlink" x="0px" y="0px"
	 width="297px" height="157px" viewBox="0 0 297 157" enable-background="new 0 0 297 157" xml:space="preserve">
<path d="M291.547,37.433c-3.195-7.688-8.004-14.527-14.428-20.517c-6.289-5.824-13.494-10.234-21.615-13.229
	c-10.416-3.827-21.05-4.726-31.898-2.696c-7.855,1.498-15.01,4.276-21.467,8.337c-5.857,3.727-10.533,7.821-14.027,12.28
	c-3.313,4.199-4.888,7.831-4.741,10.897c-0.248,0.274-0.485,0.564-0.7,0.884c-0.904,1.382-1.599,3.726-2.087,7.024
	c-5.621-3.338-12.327-6.515-20.121-9.531c-0.905-0.4-1.819-0.809-2.702-1.188c-0.732-0.299-4.393-4.293-10.982-11.98
	c-2.13-2.43-2.996-2.646-2.596-0.649l0.699,2.746c0.233,0.866,0.333,1.598,0.299,2.197l-5.541-3.894l-4.493-2.696
	c-1.131-0.666-1.797-0.981-1.997-0.948c-0.3,0.033-0.283,0.549,0.05,1.547l1.647,5.841c-1.131-0.566-3.295-1.947-6.49-4.143
	c-2.163-1.531-2.762-1.032-1.797,1.498l1.017,2.493c-5.246-1.034-10.411-3.238-15.494-6.637c-3.195-2.13-5.774-4.26-7.738-6.39
	c-0.487-0.541-0.881-0.77-1.192-0.716l-0.355-0.432l0.183,0.489c-0.01,0.006-0.023,0.004-0.033,0.011
	c-0.333,0.232-0.416,0.849-0.25,1.847c0.167,0.965,0.5,1.964,0.999,2.995l1.448,3.245l-4.343-3.645
	c-1.797-1.498-3.012-2.213-3.644-2.146c-0.632,0.067-0.849,1.148-0.649,3.245l0.699,5.641L95.01,14.22l-1.148-1.897
	c-0.2-0.066-0.333,0.682-0.399,2.246c-0.132,3.18-0.777,5.962-1.932,8.35c-6.897,2.236-13.264,6.209-19.085,11.968
	c-3.76,3.728-8.203,9.369-13.329,16.923l-3.345,5.341c-1.198,1.864-2.13,3.095-2.795,3.694c-1.365,1.265-3.444,2.43-6.24,3.495
	l-7.987,2.546c-5.191,1.498-8.653,2.596-10.383,3.295c-1.894,0.793-3.433,1.673-4.642,2.632c-3.607,0.84-7.202,1.422-10.783,1.71
	c-3.361,0.267-6.307,0.267-8.836,0c-1.964-0.233-3.145-0.1-3.544,0.399c-0.366,0.399-0.216,0.999,0.449,1.797
	c2.608,3.236,4.811,5.542,6.618,6.938l-2.175-0.1c-1.065,0.101-1.797,0.316-2.196,0.649c-0.566,0.466-0.366,1.115,0.599,1.947
	c3.294,2.895,6.672,5.258,10.134,7.088c2.776,1.439,6.225,2.849,10.332,4.229c1.435,1.377,2.702,2.239,3.795,2.56
	c3.294,1.065,7.139,1.647,11.532,1.748l11.831-0.3c4.958-0.2,8.803-0.25,11.532-0.149c4.326,0.199,8.303,0.748,11.931,1.646
	c-7.92,3.262-15.741,6.989-23.462,11.183c-8.354,4.526-12.93,7.688-13.728,9.485c-0.577,1.281-0.963,2.586-1.197,3.909
	c-1.165,1.263-2.378,2.825-3.645,4.727c-3.262,4.892-5.542,10.067-6.839,15.525c-0.167,0.731-0.183,1.214-0.05,1.447
	c0.233,0.366,0.849,0.283,1.847-0.249l6.159-3.385c-0.877,1.953-1.5,3.797-1.866,5.531c-0.167,0.799-0.133,1.23,0.1,1.298
	l1.647-0.449l11.282-4.743c3.935-1.655,7.034-2.915,9.326-3.792c2.107,0.901,5.482,0.773,10.143-0.401l14.128-4.043
	c15.375-3.994,28.504-6.39,39.387-7.188c4.293-0.3,9.917-0.399,16.873-0.3l17.272,0.399c4.585,0.102,8.896,0.142,12.942,0.122
	c10.26,4.436,23.499,6.012,39.724,4.721c7.954-0.633,15.026-2.43,21.217-5.392c5.653-2.734,10.244-6.288,13.798-10.641
	c9.942-3.27,18.461-7.125,25.539-11.574c12.081-7.621,20.967-17.589,26.657-29.902c2.729-5.924,4.044-12.613,3.943-20.068
	C296.006,51.744,294.475,44.489,291.547,37.433z M209.427,38.196c2.664-2.339,6.217-3.799,10.684-4.357
	c4.493-0.566,9.269-0.216,14.327,1.048c5.258,1.365,9.701,3.395,13.329,6.09s5.774,5.574,6.439,8.636
	c1.065,4.826,0.233,8.919-2.496,12.28c-2.097,2.596-5.574,4.56-10.433,5.891c-2.406,0.658-4.903,1.088-7.474,1.339
	c-3.63-3.321-7.69-5.955-12.196-7.879l0.799-1.797l1.099-1.947l1.198-1.597l-2.097-0.1l-3.944,0.35l-4.941,1.048
	c1.364-1.997,2.828-3.86,4.393-5.591l3.096-3.344c1.598-1.831,0.981-2.43-1.848-1.797c-2.229,0.499-4.625,1.215-7.188,2.146
	c-3.761,1.332-6.855,2.762-9.285,4.293l1.349-4.493c0.432-1.498,0.932-2.795,1.497-3.894c0.599-1.131,0.616-1.714,0.05-1.748
	l-0.812,0.163c0.399-0.488,0.773-0.938,1.117-1.342c0.644-0.6,1.275-1.248,1.891-1.965c0.243-0.282,0.51-0.542,0.773-0.804
	C209.032,38.636,209.255,38.425,209.427,38.196z"/>
</svg>
