<?xml version="1.0" encoding="utf-8"?>
<!-- Generator: Adobe Illustrator 16.0.0, SVG Export Plug-In . SVG Version: 6.00 Build 0)  -->
<!DOCTYPE svg PUBLIC "-//W3C//DTD SVG 1.1//EN" "http://www.w3.org/Graphics/SVG/1.1/DTD/svg11.dtd">
<svg version="1.1" id="图层_1" xmlns="http://www.w3.org/2000/svg" xmlns:xlink="http://www.w3.org/1999/xlink" x="0px" y="0px"
	 width="373px" height="322px" viewBox="0 0 373 322" enable-background="new 0 0 373 322" xml:space="preserve">
<path d="M359.3,189.325c-9.133-18.2-22.1-37.867-38.899-59c-17.717-22.283-32.011-35.979-42.905-41.14
	c6.063-4.314,9.104-10.846,9.104-19.61c0-6.748-2.15-13.341-6.45-19.781c0.226-2.377,0.076-4.567-0.449-6.569
	c-1.667-6.034-4.634-11.417-8.9-16.15c-3.066-3.4-6.583-6.233-10.55-8.5l-4.2-2.7c-3.333-2.8-6.25-6.617-8.75-11.45
	c-1.533-3-2.649-4.433-3.35-4.3c-0.667,0.133-1,1.684-1,4.65c0,1.8,0.2,3.733,0.6,5.8c-3.966-2.3-7.167-3.934-9.6-4.9
	c-1.8-0.7-2.833-0.85-3.101-0.45c-0.232,0.367-0.083,1.683,0.45,3.95c0.733,3.233,1.15,6.784,1.25,10.65
	c0.059,1.356,0.134,2.603,0.223,3.762c-4.284-0.473-8.476-0.148-12.572,0.988c-4.5,1.267-8.333,3.316-11.5,6.15l-2.5-0.45l-5.9-0.8
	c-1.634,0-2.8,0.4-3.5,1.2c-0.667,0.767-1,1.884-1,3.35c0,1.067,0.15,2.3,0.45,3.7l1.2,4.6c-3.4,5.733-7.833,12.1-13.3,19.1
	c-4.382,5.623-8,9.812-10.876,12.612c-0.556,0.159-1.108,0.333-1.662,0.503c-6.886,1.605-13.964,4.716-21.237,9.348
	c-7.373,4.305-14.498,9.632-21.374,15.987c-14.067,12.933-27.75,30.816-41.05,53.65c-8.264,14.186-14.943,28.663-20.088,43.417
	c-6.01,0.354-12.146-0.183-18.412-1.617c-8.267-1.934-15.3-5.233-21.1-9.9c-3.833-3.066-7.483-8.316-10.95-15.75
	c-2.767-5.899-4.9-11.866-6.4-17.9c-0.687-2.846-1.368-4.835-2.043-5.982c-0.002-0.023-0.005-0.044-0.006-0.067
	c-0.005,0.011-0.01,0.021-0.015,0.032c-0.465-0.777-0.927-1.159-1.386-1.132c-1,0.066-2.066,2.083-3.2,6.05
	c-1.067,3.867-1.983,8.117-2.75,12.75c-0.833,5.233-1.25,9.817-1.25,13.75c0,5.833,0.75,11.634,2.25,17.4
	c1.367,5.233,3.183,9.816,5.45,13.75l-2.8-2.7c-2.567-2.733-4.2-3.733-4.9-3c-0.633,0.633-0.45,2.416,0.55,5.35
	c3.633,10.634,10.617,17.584,20.95,20.851l-4.4,0.35c-2.9-0.134-4.55,0.2-4.95,1c-0.467,0.833,0.533,2.167,3,4
	c4.792,3.563,11.346,5.793,19.618,6.724c-3.365,6.086-5.389,12.145-6.068,18.177c-0.167,1.267-0.25,2.75-0.25,4.45
	c0,5.967,1.784,12.199,5.35,18.699c3.284,5.994,7.632,11.401,13.02,16.236l-6.969,7.814c-5.367,6.266-7.817,9.85-7.35,10.75
	c0.167,0.399,0.5,0.566,1,0.5c0.8-0.101,3.033-0.917,6.7-2.45l3.146-1.384c-2.397,2.431-3.564,4.109-3.495,5.033
	c0,0.4,0.216,0.734,0.65,1c2.217,1.272,13.088-1.503,32.563-8.302l0.437-0.048l4.65-0.85c4.5-1.134,8.8-2.434,12.9-3.9
	c7.2-2.533,11.317-4.783,12.35-6.75c0.533-1,0.617-2.033,0.25-3.1l-3.8-7.45l-3.524-6.751c1.904-3.418,3.737-7.555,5.5-12.404
	c8.539-3.755,17.675-6.33,27.424-7.695c13.1-1.833,26.85-1.383,41.25,1.351c-0.133,0.733-1.667,3.566-4.6,8.5
	c-2.833,4.767-4.25,7.649-4.25,8.649c0,1.7,0.7,3.084,2.1,4.15c3.3,2.533,9,5.283,17.1,8.25c8.472,3.091,15.273,4.475,20.428,4.174
	c16.17,3.123,25.229,3.949,27.172,2.477c0.434-0.268,0.616-0.634,0.55-1.101c-0.052-0.85-0.842-2.051-2.355-3.595l3.256,0.795
	l7.1,1.45c0.467,0,0.783-0.217,0.95-0.65c0.333-0.933-2.05-3.884-7.149-8.85l-7.526-6.95h0.076c-1.434-1.834-3.184-3.783-5.25-5.85
	c7.833-4.566,13.283-8.5,16.35-11.801c1.5-1.633,2.4-2.866,2.7-3.699c0.334-1.033,0.217-2.584-0.35-4.65
	c-1.566-5.7-5.134-11.834-10.7-18.4c-6.267-7.366-14.034-13.967-23.3-19.8c6.6-3.399,10.416-5.35,11.449-5.85
	c4.101-1.967,7.584-3.833,10.45-5.601l11.75-7.75c4.601-3.166,12.95-7.232,25.05-12.199c3.434-1.434,5.268-2.551,5.5-3.351
	c0.301-0.899-1.467-1.533-5.3-1.899c-1-0.134-2.634-0.167-4.899-0.101c3.333-1.634,6.934-3.283,10.8-4.95
	c0.068-0.031,0.122-0.062,0.188-0.093c7.667,3.182,15.073,7.654,22.212,13.443c7.768,6.267,14.634,13.6,20.601,22
	c5.833,8.267,10.383,16.483,13.649,24.649c3,7.533,4.25,13.15,3.75,16.851c-0.919,0.453-1.805,1.032-2.663,1.722l-12.137-1.172
	l-10.1-1.8c-1.534-0.434-1.884,0.05-1.05,1.45l1.55,2l1.45,1.699c-1.967-0.6-4-1.383-6.101-2.35c-1.134-0.533-1.899-0.617-2.3-0.25
	c-0.334,0.334-0.3,0.916,0.1,1.75c2.268,4.6,4.566,8.117,6.9,10.55c4.076,4.198,9.613,7.47,16.576,9.835
	c0.789,0.71,1.732,1.293,2.874,1.715c6.399,2.4,12.916,2.934,19.55,1.601c6.9-1.4,12.583-4.601,17.05-9.601
	c6.9-7.699,10.65-18.033,11.25-31C372.033,222.992,368.033,206.691,359.3,189.325z"/>
</svg>
