<?xml version="1.0" encoding="utf-8"?>
<!-- Generator: Adobe Illustrator 16.0.0, SVG Export Plug-In . SVG Version: 6.00 Build 0)  -->
<!DOCTYPE svg PUBLIC "-//W3C//DTD SVG 1.1//EN" "http://www.w3.org/Graphics/SVG/1.1/DTD/svg11.dtd">
<svg version="1.1" id="图层_1" xmlns="http://www.w3.org/2000/svg" xmlns:xlink="http://www.w3.org/1999/xlink" x="0px" y="0px"
	 width="405px" height="315px" viewBox="0 0 405 315" enable-background="new 0 0 405 315" xml:space="preserve">
<path d="M393.547,254.687c-6.268-17.53-13.204-31.575-20.807-42.153c1.014-0.791,2.413-2.077,4.2-3.863
	c2.134-2.135,3.201-3.418,3.201-3.852c0-0.467-0.884-1.234-2.651-2.301l-5.151-2.901l9.453-9.304c0.9-0.967-2.117-1.217-9.053-0.75
	c-0.779,0.051-1.53,0.112-2.271,0.178c0.757-1.494,1.71-3.791,2.87-6.931l3.052-9.304c0.467-1.801,0.183-5.335-0.851-10.604
	c-0.934-4.902-1.817-8.153-2.651-9.753c-0.5-0.9-1.817-2.101-3.951-3.602l-7.028-4.46c1.704-7.151,2.532-14.135,2.477-20.949
	c-0.091-8.097-1.428-15.516-4.003-22.263c4.659,1.146,10.899,0.958,18.759-0.595c8.97-1.801,14.005-4.352,15.105-7.653
	c0.366-1.067-0.801-2.468-3.502-4.202c-2.7-1.701-6.152-3.218-10.354-4.552c-9.938-3.179-18.417-3.768-25.441-1.775
	c2.428-6.4,3.353-13.736,2.733-22.034c-0.233-3.268-0.667-6.152-1.301-8.653c-0.634-2.268-1.2-3.452-1.7-3.551
	c-2.401,0.2-5.303,3.868-8.704,11.004c-3.189,6.791-4.541,12.771-4.058,17.943c-3.451-2.554-7.315-4.885-11.598-6.989
	c-11.036-5.426-22.426-8.068-34.166-7.942c-1.03-0.156-2.063-0.298-3.098-0.411c-7.217-0.805-14.081-0.521-20.608,0.801
	c-4.966-15.656-14.128-30.098-27.51-43.317c-5.836-5.735-11.704-10.387-17.606-13.955c-5.802-3.501-10.804-5.469-15.005-5.902
	c-7.203-0.734-18.274,2.417-33.213,9.454c-14.939,7.002-26.376,14.405-34.313,22.208c-2.901-1.101-6.986-2.351-12.255-3.751
	c-6.069-1.601-10.287-2.417-12.655-2.451c-0.767,0-0.567,1.267,0.601,3.801c1.233,2.734,3.384,6.469,6.452,11.204l-10.454,2.451
	c-4.835,1.201-8.17,2.418-10.004,3.651c-0.48,0.321,0.991,1.811,4.404,4.463c-3.244,1.345-6.303,2.851-9.156,4.541
	c-3.301,1.967-5.418,3.585-6.352,4.852c-1.034,1.467-1.351,4.151-0.951,8.053c0.33,2.966,0.754,5.021,1.272,6.185
	c-0.38,0.712-0.656,1.369-0.822,1.969c-0.533,1.9-0.55,4.102-0.05,6.602c0.534,2.601,1.451,4.452,2.751,5.552
	c0.526,0.44,1.081,0.733,1.665,0.887c-0.021,0.048-0.039,0.097-0.06,0.146c-14.518,3.377-25.746,6.468-33.667,9.271
	c-16.039,5.636-26.926,12.104-32.662,19.407c-5.936,7.536-9.37,16.29-10.304,26.26c-0.738,7.852,0.114,16.123,2.541,24.809
	l-4.141,4.053c-2.935,2.601-5.002,4.284-6.202,5.051c-1.134,0.734,0.017,1.885,3.451,3.451c3.334,1.568,6.903,2.668,10.704,3.302
	l-0.05,0.851c-0.006,0.026-0.009,0.044-0.015,0.069c-2.977-0.895-5.246-1.058-6.787-0.47c-1.534,0.634-2.868,2.301-4.001,5.002
	c-0.78,1.777-1.249,3.455-1.423,5.038c-3.493-0.132-5.844,0.087-7.03,0.664c-1.701,0.866-3.385,3.701-5.052,8.503
	c-1.567,4.502-2.768,9.737-3.602,15.706c-2.067,14.505-1.217,23.559,2.551,27.16c2.901,2.734,7.436,4.618,13.605,5.651l12.917,0.403
	c-0.449,1.032-0.979,2.217-1.613,3.599c-0.1,0.434,0.8,0.584,2.701,0.45l6.252-0.2c0.133,0.967,0.05,2.534-0.25,4.701l-0.701,4.053
	l4.502,0.199l6.202-0.9c1.634,4.469,2.718,7.152,3.251,8.053c0.133,0.268,2.067-0.666,5.802-2.801
	c3.37-1.93,6.371-3.801,9.037-5.618c4.388,2.688,9.412,5.198,15.122,7.519c9.537,3.869,19.857,6.836,30.961,8.904
	c10.837,2,20.725,2.834,29.661,2.5c8.28-0.326,14.6-1.632,18.971-3.913c9.071,3.964,18.75,6.726,29.047,8.265
	c16.689,2.497,32.91,1.581,48.667-2.716c32.254,14.24,63.386,22.838,93.386,25.774c13.205,1.301,25.043,1.318,35.513,0.051
	c10.104-1.234,18.074-3.535,23.909-6.902c2.935-1.701,5.436-3.719,7.503-6.053c2.201-2.534,3.418-4.918,3.651-7.152
	C402.434,284.564,399.749,272.16,393.547,254.687z M203.162,71.705c0.044,1.531,0.126,3.469,0.245,5.827l-3.232,1.44l-3.008,1.243
	c-0.555-0.298-1.094-0.587-1.602-0.856C198.05,77.329,200.582,74.777,203.162,71.705z"/>
</svg>
