<?xml version="1.0" encoding="utf-8"?>
<!-- Generator: Adobe Illustrator 16.0.0, SVG Export Plug-In . SVG Version: 6.00 Build 0)  -->
<!DOCTYPE svg PUBLIC "-//W3C//DTD SVG 1.1//EN" "http://www.w3.org/Graphics/SVG/1.1/DTD/svg11.dtd">
<svg version="1.1" id="图层_1" xmlns="http://www.w3.org/2000/svg" xmlns:xlink="http://www.w3.org/1999/xlink" x="0px" y="0px"
	 width="165px" height="162px" viewBox="0 0 165 162" enable-background="new 0 0 165 162" xml:space="preserve">
<path d="M162.9,130.449c-0.4-1.567-1.084-3.051-2.051-4.45c-0.521-0.736-1.066-1.352-1.635-1.864
	c2.084-7.273,1.836-15.649-0.767-25.135c-0.548-1.97-1.308-3.872-2.267-5.713c0.867-4.329,1.475-7.163,1.819-8.487
	c0.267-1,0.166-2.167-0.3-3.5c-0.434-1.3-0.967-2.067-1.602-2.3c-0.566-0.2-2.35,0.533-5.349,2.2l-2.938,1.688
	c-1.342-1.182-2.794-2.329-4.365-3.438c-0.404-0.291-0.847-0.586-1.287-0.881c0.654-12.337,0.902-19.105,0.741-20.27
	c-0.102-0.767-0.467-1.6-1.102-2.5c-0.634-0.9-1.333-1.533-2.1-1.9l-3.102-0.15l-6.447,6l-3.635,3.42
	c2.254-5.903,4.232-14.751,5.933-26.57l0.6-5.15c0.234-2,0.417-3.117,0.55-3.35l4.852-0.4l6.648-0.55
	c1.067-0.2,1.5-1.183,1.301-2.95c-0.199-1.733-0.801-2.884-1.801-3.45c-1.566-0.867-5.55-2.283-11.949-4.25
	c-7.4-2.3-12.566-3.45-15.5-3.45c-2.734,0-6.635,1.3-11.7,3.9c-4.433,2.267-8.583,4.866-12.45,7.8l5.45-7.25l3.85-5.35
	c0.2-0.767-0.05-1.733-0.75-2.9c-0.667-1.066-1.215-1.6-1.649-1.6c-0.767,0-2.5,0.7-5.199,2.1c-3.201,1.667-5.818,3.467-7.852,5.4
	C83.45,18.383,79.833,23.167,76,29.5c-1.402,2.317-2.654,4.533-3.773,6.66c-2.625-0.7-5.544-0.96-8.759-0.779
	c-2.434-9.073-6.071-15.472-10.918-19.18c-4.767-3.667-10.917-4.85-18.45-3.55l1.25-6.35c0.667-3.5,0.967-5.5,0.9-6L33,0.15
	c-2.167,0.3-3.55,0.833-4.15,1.6c-3.667,4.566-6.667,10.717-9,18.45c-1.7,5.7-2.783,11.067-3.25,16.1l-1.1-7.1l-0.8-5.3l-2.8-0.15
	c-1.634,0.4-2.533,0.883-2.7,1.45c-3.233,11.7-2.7,23.917,1.6,36.651c3.292,9.749,7.495,17.094,12.607,22.043L23.3,86.9
	c0,1.858,0.065,3.496,0.188,4.935L14.45,83.7c-4.867-4.1-9.233-7.283-13.1-9.55c-0.633-0.367-0.983-0.467-1.05-0.3
	c-0.067,0.133,0.117,0.45,0.55,0.949c2.333,2.334,5.083,4.867,8.25,7.602c6.954,5.978,12.021,10.663,15.21,14.063
	c0.031,0.094,0.058,0.197,0.09,0.286c0.767,2.1,2.267,3.85,4.5,5.249c1.934,1.2,3.233,2.55,3.9,4.05l0.361,1.625L21.15,107.25
	c-7.433,0.033-13.2,0.482-17.3,1.35c-0.867,0.2-1.334,0.385-1.4,0.551l1.5,0.25l14.4,0.25l15.396,0.671
	c0.48,2.337,0.898,3.868,1.254,4.579c1.067,2.133,3.167,3.699,6.3,4.699c2.537,0.814,4.632,1.021,6.293,0.634L50.95,122
	c2.367,1.268,3.767,1.95,4.2,2.05l3.6-0.1c1.9-0.3,3.067-0.75,3.5-1.351c0.233-0.266,0.267-0.584,0.1-0.949
	c-0.3-0.601-1.45-1.918-3.45-3.948l-2.829-2.788c0.009-0.004,0.02-0.01,0.029-0.014l2.25-0.801l3.6-1.149l0.301-0.162
	c0.25,0.693,0.483,1.776,0.699,3.262c0.3,2.267,0.383,4.5,0.25,6.7c-0.3,5.5-0.417,9.451-0.35,11.85
	c0.096,3.809,0.54,7.206,1.311,10.218c-0.966,0.533-1.92,1.493-2.861,2.933c-1,1.5-1.534,2.716-1.6,3.65
	c0,0.633,0.167,1.05,0.5,1.25l6.3,0.35l6.75-0.85c0.15-0.05,0.269-0.109,0.371-0.173l4.229-0.227l0.38-0.027l2.669,0.626l3.35,0.551
	c0.9,0.033,1.434-0.135,1.6-0.5l-0.05-1.65c-0.217-1.671-0.522-2.861-0.912-3.613c1.02-1.598,1.964-3.387,2.835-5.364
	c3.03,1.969,6.11,3.573,9.239,4.82c0.566,2.847,1.127,5.272,1.681,7.288c-0.804,0.744-1.476,1.641-1.992,2.719
	c-0.699,1.433-0.834,2.25-0.399,2.449l4.649,0.352c2.466-0.098,3.928-0.403,4.404-0.91c0.555,0.721,1.949,1.439,4.196,2.16
	l5.899,1.351c0.867,0.101,1.551-0.149,2.051-0.75c0.634-0.901,0.8-2.185,0.5-3.851c-0.059-0.501-0.272-1.033-0.607-1.589
	c1.093-1.451,2.248-3.343,3.463-5.679c1.291-0.023,2.557-0.079,3.794-0.168l-1.052,2.285c-0.533,1.266-0.8,2.4-0.8,3.4
	c0,0.731,0.351,1.05,1.05,0.949c2.768-0.468,5.284-1.283,7.551-2.449l1.72-1.06c1.627,0.639,3.742,0.988,6.345,1.047
	c-0.384,2.353-0.24,3.762,0.436,4.214c0.633,0.467,2.366-0.117,5.199-1.75c2.768-1.601,4.534-2.949,5.301-4.051
	c0.09-0.122,0.163-0.24,0.223-0.356c1.64-0.876,3.426-2.124,5.378-3.794c2.5-2.166,4.417-4.283,5.75-6.351
	C163.7,139.018,164.1,135.15,162.9,130.449z"/>
</svg>
