<?xml version="1.0" encoding="utf-8"?>
<!-- Generator: Adobe Illustrator 16.0.0, SVG Export Plug-In . SVG Version: 6.00 Build 0)  -->
<!DOCTYPE svg PUBLIC "-//W3C//DTD SVG 1.1//EN" "http://www.w3.org/Graphics/SVG/1.1/DTD/svg11.dtd">
<svg version="1.1" id="图层_1" xmlns="http://www.w3.org/2000/svg" xmlns:xlink="http://www.w3.org/1999/xlink" x="0px" y="0px"
	 width="221px" height="160px" viewBox="0 0 221 160" enable-background="new 0 0 221 160" xml:space="preserve">
<path d="M218.87,114.709c-1.596-9.905-5.784-19.213-12.565-27.922c-3.758-4.813-7.27-8.54-10.545-11.219
	c-0.786-12.588-2.271-22.285-4.463-29.067c-1.895-5.95-3.771-10.338-5.634-13.163c-1.661-2.56-3.44-3.972-5.335-4.238
	c-0.842-0.12-1.746,0.184-2.71,0.899c0.629-9.197-0.046-14.271-2.026-15.209c-0.931-0.432-2.227,0.216-3.889,1.944
	c-1.762,1.829-3.357,4.288-4.787,7.379c-1.081,2.344-1.916,4.707-2.521,7.086c-4.88-7.159-10.868-13.113-17.972-17.856
	C135.355,5.932,123.871,1.61,111.971,0.381c-10.969-1.137-21.767,0.388-32.395,4.562c-1.145-1.065-2.198-1.758-3.156-2.069
	c-2.327-0.698-3.972,0.017-4.936,2.144c-0.633,1.394-1.144,2.909-1.547,4.532c-5.344,3.032-10.449,6.762-15.306,11.224
	c-4.454,4.122-8.094,8.193-10.919,12.215l-0.399,0.548l0.549,0.449c1.861,1.595,3.324,3.922,4.388,6.98l0.78,2.913
	c-3.183,0.9-6.793,2.396-10.852,4.517c-9.008,4.687-17.634,13.446-25.877,26.276C4.589,86.639,0.534,96.51,0.135,104.289
	c-0.066,1.462,0.149,2.875,0.648,4.237c0.499,1.296,1.13,2.194,1.895,2.692c3.025,1.994,7.03,3.008,12.017,3.041
	c0.119,0,0.231-0.005,0.349-0.006c0.969,0.252,2.148,0.486,3.54,0.705l12.764,0.398l2.044-0.199
	c0.798-0.166,1.247-0.482,1.346-0.947c0.133-0.565-0.698-1.529-2.493-2.893c-2.068-1.504-3.477-2.589-4.246-3.266
	c1.674-5.646,6.462-14.909,14.368-27.797c5-8.128,9.114-14.515,12.342-19.162c0.024,0.053,0.049,0.112,0.073,0.165
	c2.46,5.385,6.133,11.501,11.019,18.349c1.825,2.576,3.87,4.964,6.133,7.168c-2.56,4.65-4.675,9.718-6.332,15.218
	c-1.695,5.585-2.011,12-0.947,19.246c0.931,6.283,2.426,10.986,4.487,14.111c0.524,0.811,1.076,1.346,1.652,1.625
	c-0.106,0.2-0.158,0.367-0.107,0.469c0.299,0.664,1.031,1.196,2.194,1.596c1.762,0.598,4.637,0.997,8.626,1.196l5.235-0.199
	c1.429-0.2,2.177-0.516,2.244-0.948c0.066-0.564-0.183-1.379-0.748-2.442c-0.415-0.788-0.96-1.532-1.608-2.243
	c0.07-0.085,0.144-0.162,0.212-0.25c2.393-3.025,5.352-9.307,8.875-18.847c1.68-4.537,3.097-8.934,4.264-13.199
	c1.886,0.524,3.83,0.989,5.821,1.403c-0.276,0.409-0.563,0.818-0.812,1.226c-3.889,6.382-7.13,16.221-9.723,29.517
	c-0.997,5.053-0.864,7.795,0.399,8.227c1.795,0.565,4.521-3.107,8.177-11.019c1.097-2.36,4.305-8.294,9.624-17.8
	c1.837-3.277,3.408-6.059,4.727-8.369c2.289,0.188,4.593,0.32,6.92,0.355c0.982,1.839,2.081,3.6,3.311,5.271
	c3.191,4.287,6.25,6.598,9.175,6.93c0.997,0.101,2.427-0.299,4.288-1.195l5.634-3.291l4.886-3.142
	c0.287-0.179,0.534-0.318,0.791-0.467c-0.404,1.489-0.736,3.007-0.99,4.556c-0.963,5.85-1.263,14.857-0.896,27.023
	c0.266,7.944,1.213,11.967,2.842,12.066c0.73,0.066,1.379-0.599,1.944-1.994c0.831-2.027,1.661-5.851,2.493-11.469l3.291-20.043
	c0.82-4.848,1.415-8.599,1.787-11.273c0.815-0.062,1.613-0.147,2.4-0.249c0.17,0.82,0.349,1.613,0.549,2.349
	c0.398,1.462,0.947,2.775,1.645,3.938c0.332,0.536,0.659,0.976,0.982,1.332c-0.717,0.984-0.966,1.739-0.732,2.258
	c0.498,1.13,3.656,1.579,9.473,1.347l8.526-0.698c0.565-0.066,0.997-0.249,1.296-0.549c0.021-0.022,0.029-0.046,0.047-0.068
	c0.442-0.092,0.872-0.191,1.276-0.306c1.304,2.632,2.721,5.362,4.262,8.202l1.097,1.895l3.028,5.016
	c-2.131,1.644-3.15,2.884-3.028,3.71c0.066,0.731,1.313,1.279,3.74,1.646l8.924,0.448l5.285-0.199
	c1.512-0.156,2.475-0.458,2.903-0.9c0.752-0.311,1.43-1.238,2.033-2.789C219.635,129.484,220.133,122.72,218.87,114.709z"/>
</svg>
