<?xml version="1.0" encoding="utf-8"?>
<!-- Generator: Adobe Illustrator 16.0.0, SVG Export Plug-In . SVG Version: 6.00 Build 0)  -->
<!DOCTYPE svg PUBLIC "-//W3C//DTD SVG 1.1//EN" "http://www.w3.org/Graphics/SVG/1.1/DTD/svg11.dtd">
<svg version="1.1" id="图层_1" xmlns="http://www.w3.org/2000/svg" xmlns:xlink="http://www.w3.org/1999/xlink" x="0px" y="0px"
	 width="498px" height="310px" viewBox="0 0 498 310" enable-background="new 0 0 498 310" xml:space="preserve">
<path d="M495.682,1.598c-1.133-1.332-3.213-1.848-6.242-1.548c-19.009,1.864-45.941,8.672-80.796,20.424
	c-35.121,11.884-63.202,23.719-84.241,35.504c-13.815,7.757-27.648,24.319-41.496,49.686c-4.994,9.122-9.571,18.659-13.732,28.613
	c-2.869,6.874-4.991,12.548-6.382,17.047c-0.124-0.591-0.257-1.156-0.409-1.667c-0.799-2.796-2.314-5.343-4.545-7.64
	c-3.195-3.329-7.258-5.942-12.184-7.84c-2.563-0.965-4.894-1.615-6.991-1.947l-6.944-6.173l-3.342-5.512l-2.896-5.293
	c-0.533-1.199-1.016-3.046-1.448-5.543l-1.049-6.192c-0.732-4.694-1.348-7.856-1.848-9.487c-0.799-2.73-2.13-3.995-3.995-3.795
	c-2.097,0.2-6.025,2.514-11.785,6.941c-3.296,2.53-6.741,5.376-10.337,8.539c-6.891-1.698-14.115-2.83-21.672-3.396
	c-13.616-0.999-24.552,0.383-32.808,4.145c-0.932,0.433-3.229-1.714-6.891-6.441l-4.145-5.543c-1.532-1.931-2.78-2.93-3.746-2.996
	c-0.666-0.033-1.515,0.5-2.546,1.598c-1.531,1.532-3.346,6.009-5.443,13.433c-0.597,2.146-1.201,4.444-1.809,6.863
	c-4.553-4.715-11.873-10.647-21.961-17.799c-10.886-7.757-22.837-15.397-35.854-22.92c-13.417-7.79-25.001-13.732-34.755-17.827
	c-10.853-4.594-17.71-6.142-20.573-4.644c-1.565,0.833-2.38,2.514-2.447,5.043c-0.299,8.456,6.442,24.985,20.224,49.586
	c5.626,10.02,11.103,18.892,16.429,26.615c5.493,7.957,9.504,12.717,12.035,14.282c4.86,2.963,14.315,6.625,28.363,10.986
	c3.913,1.225,7.764,2.373,11.566,3.457c-0.115,0.348-0.218,0.701-0.319,1.056l-1.161,0.281c-8.456,2.03-13.699,3.379-15.729,4.044
	c-5.626,1.898-8.922,4.078-9.887,6.543c-0.699,1.73-0.417,3.545,0.849,5.442c3.695,5.526,10.903,10.304,21.622,14.331
	c10.013,3.765,21.629,6.211,34.794,7.383c6.726,4.507,14.796,7.802,24.211,9.883c-1.83,1.348-4.028,2.846-6.623,4.507
	c-3.396,2.178-5.991,3.665-7.822,4.492l-3.763-0.248c-1.365,0.267-2.463,0.815-3.295,1.647c-3.03,2.963-4.345,9.355-3.945,19.176
	c0.466,11.086,3.229,23.104,8.29,36.054c5.06,12.983,10.187,21.355,15.38,25.117c2.464,1.798,5.46,3.079,8.989,3.845l11.735,1.398
	c5.493,0.434,10.386-0.25,14.681-2.047c4.162-1.698,6.841-4.045,8.04-7.041l1.797-3.846c0.699-1.797,1.182-3.479,1.448-5.043
	c0.133-0.865,0.033-1.365-0.3-1.498l-2.596,0.399l-4.944,0.999l-3.595,0.25c-3.562-1.865-9.604-8.955-18.127-21.273
	c-7.723-11.119-12.733-19.242-15.03-24.368c-2.164-6.093-3.928-10.603-5.293-13.532c-0.177-0.376-0.366-0.722-0.551-1.079
	c4.226-2.264,8.652-5.359,13.285-9.308l4.619-4.267c0.452,0.141,0.918,0.268,1.401,0.378c7.558,6.143,15.688,11.479,24.401,15.989
	c1.648,1.844,3.833,3.898,6.581,6.176c5.759,4.761,10.137,7.79,13.133,9.088c2.164,0.966,3.778,1.049,4.844,0.25
	c1.208-0.893,1.416-2.648,0.657-5.239c7.851,2.435,16.063,4.358,24.661,5.738c6.216,1.002,12.383,1.667,18.502,2.005
	c-0.996,4.595-2.195,9.603-3.622,15.073c-3.299,12.672-6.195,21.457-8.693,26.376c-0.048,0.066-0.098,0.122-0.145,0.19
	c-0.03,0.043-0.056,0.092-0.085,0.136l-2.96,1.262l-3.895,1.148l-2.946,0.649c-0.266,0.1-0.3,0.5-0.1,1.198
	c0.3,1.032,1.481,2.497,3.545,4.395c2.397,2.197,4.827,3.712,7.291,4.544c2.696,4.028,6.342,6.076,10.936,6.143
	c4.062,0.066,8.688-1.415,13.882-4.445c7.824-4.627,12.967-9.554,15.431-14.78c2.862-6.059,4.378-16.396,4.544-31.01
	c0.051-4.845-0.186-9.421-0.702-13.736c1.905-1.535,3.362-4.048,4.348-7.587c0.966-3.528,1.698-9.537,2.196-18.026
	c0.2-4.128-0.016-8.022-0.648-11.685c-0.982-5.832-2.494-10.359-4.523-13.616c8.64,3.037,20.229,5.562,34.784,7.573
	c14.349,1.998,24.585,2.747,30.711,2.248c4.894-0.4,14.397-6.192,28.513-17.378c9.921-7.856,18.709-15.464,26.366-22.82
	c2.93-2.763,5.06-5.343,6.392-7.74c1.465-2.563,1.897-4.694,1.299-6.392c-0.434-1.199-1.349-2.247-2.747-3.146
	c-1.765-1.099-4.128-1.781-7.091-2.047c-8.737-0.739-18.042-0.918-27.888-0.564c7.508-2.444,14.157-4.869,19.948-7.275
	c9.255-3.829,18.56-8.473,27.914-13.932c7.523-4.395,19.524-19.392,36.003-44.992c16.812-26.066,29.429-49.569,37.852-70.509
	C496.797,4.693,496.746,2.862,495.682,1.598z"/>
</svg>
