<?xml version="1.0" encoding="utf-8"?>
<!-- Generator: Adobe Illustrator 16.0.0, SVG Export Plug-In . SVG Version: 6.00 Build 0)  -->
<!DOCTYPE svg PUBLIC "-//W3C//DTD SVG 1.1//EN" "http://www.w3.org/Graphics/SVG/1.1/DTD/svg11.dtd">
<svg version="1.1" id="图层_1" xmlns="http://www.w3.org/2000/svg" xmlns:xlink="http://www.w3.org/1999/xlink" x="0px" y="0px"
	 width="259px" height="236px" viewBox="0 0 259 236" enable-background="new 0 0 259 236" xml:space="preserve">
<g>
	<path d="M109.614,34.077c9.005,2.035,18.627,2.885,28.867,2.552c13.24-0.434,24.514-2.135,33.819-5.103
		c8.905-2.835,15.209-6.554,18.911-11.157c2.301-2.868,2.835-5.42,1.602-7.654c-0.501-0.867-1.918-2.218-4.253-4.052
		c-4.403-3.302-11.273-5.753-20.612-7.354c-9.605-1.634-17.594-1.601-23.964,0.1c-0.733,0.2-1.067,0.384-1.001,0.55
		c0.067,0.133,0.418,0.284,1.051,0.45c4.67,1.368,9.322,3.402,13.959,6.104c4.636,2.735,6.403,4.469,5.303,5.203
		c-3.77,2.501-12.991,3.902-27.666,4.203c-15.309,0.3-24.464-1.218-27.466-4.553c-0.534-0.634,1.117-2.335,4.953-5.103
		c3.202-2.268,5.62-3.819,7.254-4.653c0.934-0.467,1.4-0.817,1.4-1.05c0-0.267-0.6-0.417-1.801-0.451
		c-8.538-0.1-16.359,1.768-23.464,5.604c-6.57,3.569-9.855,7.138-9.855,10.706c0,2.335,1.301,4.753,3.902,7.254
		C94.221,29.208,100.575,32.009,109.614,34.077z"/>
	<path d="M257.049,109.821c-1.033-0.234-7.871,1.284-20.512,4.552c-10.279,2.666-20.151,5.392-29.661,8.171
		c1.923-1.158,3.757-2.976,5.497-5.47c0.668-0.964,1.224-1.878,1.687-2.752l22.378-16.909c11.673-8.839,17.826-13.691,18.461-14.559
		l-2.452-7.104c-1.734-4.669-2.735-7.004-3.001-7.004c-0.668,0-4.003,1.701-10.006,5.103l-13.809,7.955
		c-0.834-0.5-1.617-0.9-2.352-1.201c-1.367-0.634-2.334-0.833-2.901-0.6c-2.07,0.949-4.087,1.873-6.05,2.773
		c-1.711-2.543-3.912-4.67-6.607-6.375c-0.541-0.337-1.11-0.426-1.708-0.272c-1.138-1.799-2.422-3.55-3.866-5.25
		c0.147-3.977-0.033-8.165-0.58-12.589c-0.699-5.937-1.768-9.272-3.201-10.006c-1.101-0.567-3.736,0.184-7.904,2.251
		c-3.151,1.576-5.938,3.26-8.401,5.042c-8.725-4.186-18.394-6.292-29.021-6.292c-9.605,0-18.744,1.801-27.416,5.403
		c-0.632,0.262-1.241,0.547-1.857,0.825c-1.675-0.735-3.54-1.51-5.597-2.325c-6.67-2.635-10.689-3.603-12.057-2.902
		c-1.534,0.767-2.885,5.103-4.053,13.007c-0.614,3.976-0.967,7.331-1.066,10.084c-1.072,1.569-2.015,3.214-2.811,4.945
		c-0.339,0.238-0.68,0.493-1.025,0.78c-1.567,1.267-3.035,2.885-4.402,4.853c-2.135,3.068-3.619,6.721-4.453,10.957
		c-0.07,0.368-0.128,0.724-0.186,1.08c-4.42-2.605-9.24-5.431-14.472-8.484C47.628,72.299,32.902,63.811,29.467,62.043
		c-1.201-0.634-3.102,0.317-5.703,2.852c-1.801,1.701-3.369,3.502-4.703,5.403c-1.701,2.568-1.901,4.419-0.6,5.553l10.606,7.604
		l12.107,8.405c-1.267,2.535-1.901,4.519-1.901,5.953c0,1.101,0.317,1.935,0.951,2.501l11.307,8.805l14.858,11.607
		c-38.189-6.504-58.701-9.472-61.536-8.905c-0.9,0.2-1.918,2.151-3.052,5.854c-0.701,2.334-1.217,4.369-1.551,6.104
		c-0.4,1.968-0.284,3.118,0.35,3.451c1.301,0.701,4.553,1.868,9.756,3.503c4.736,1.468,7.104,2.268,7.104,2.401l-0.1,1.551
		c-0.067,0.801-0.033,1.284,0.1,1.451l2.602,1.051c1.567,0.533,2.368,0.85,2.401,0.95l-0.1,2.151c-0.134,1.334-0.067,2.051,0.2,2.15
		c2.368,1.102,10.089,3.219,23.163,6.354l1.051-1.25l1.051-1.4c0.2-0.101,2.835,0.717,7.904,2.451
		c5.036,1.701,7.554,2.635,7.554,2.801l-22.163,6.555c-15.643,4.603-24.915,7.438-27.816,8.505c-0.901,0.3-1.084,1.001-0.55,2.101
		c0.367,0.834,2.101,3.068,5.203,6.704c3.302,3.902,5.42,5.954,6.354,6.153c1.101,0.268,5.386-0.6,12.857-2.602l11.156-2.852
		l3.602,2.352c2.301,1.4,3.819,2.085,4.553,2.051l16.363-2.938c0.312,0.397,0.64,0.793,0.997,1.188
		c1.34,1.558,2.385,2.438,3.143,2.656c1.335,11.08,6.215,20.488,14.668,28.211c1.266,1.151,2.564,2.221,3.89,3.221
		c3.219,6.521,7.124,11.587,11.719,15.19c4.036,3.169,8.305,5.02,12.808,5.553c6.104,0.733,11.407-0.616,15.909-4.052
		c3.703-2.836,6.021-6.204,6.955-10.106c0.007-0.029,0.012-0.056,0.02-0.084c1.359-0.52,2.72-1.077,4.082-1.717
		c2.159-1.011,4.262-2.16,6.32-3.417c0.57,0.206,1.229,0.282,1.984,0.215c1.734-0.199,3.619-1.084,5.654-2.651
		c1.634-1.301,2.768-3.001,3.401-5.103c0.1-0.355,0.171-0.692,0.229-1.021c0.901-0.835,1.794-1.69,2.672-2.582
		c2.224-2.263,4.271-4.596,6.17-6.986c1.348-0.896,2.726-2.012,4.137-3.37c3.936-3.768,6.953-8.32,9.055-13.657
		c0.118-0.297,0.224-0.593,0.335-0.889l7.069,2.239c1,0.233,2.484-0.75,4.453-2.951l3.051-3.603
		c0.168-0.066,4.17,1.101,12.008,3.502l13.258,3.853c1.167,0.133,3.552-1.584,7.154-5.153c3.602-3.603,5.169-5.92,4.702-6.954
		c-0.4-0.934-5.703-3.519-15.909-7.754l-23.764-9.506l11.256-4.453c6.004-2.334,9.123-3.484,9.355-3.451
		c0.134,0,0.418,0.7,0.852,2.102c0.434,1.4,0.85,2.084,1.25,2.051c0.634-0.033,3.419-0.867,8.355-2.502
		c5.136-1.668,7.82-2.718,8.055-3.151c0.199-0.333,0.25-1.268,0.149-2.802l-0.05-2.401l3.201-1.251
		c2.002-0.768,3.068-1.234,3.203-1.4l0.1-2.602l-0.1-2.451c0-0.067,1.917-0.885,5.752-2.451c3.869-1.602,5.971-2.568,6.305-2.902
		c0.666-0.667,1.15-3.102,1.451-7.304C258.483,112.356,258.116,110.055,257.049,109.821z"/>
</g>
</svg>
