<?xml version="1.0" encoding="utf-8"?>
<!-- Generator: Adobe Illustrator 16.0.0, SVG Export Plug-In . SVG Version: 6.00 Build 0)  -->
<!DOCTYPE svg PUBLIC "-//W3C//DTD SVG 1.1//EN" "http://www.w3.org/Graphics/SVG/1.1/DTD/svg11.dtd">
<svg version="1.1" id="图层_1" xmlns="http://www.w3.org/2000/svg" xmlns:xlink="http://www.w3.org/1999/xlink" x="0px" y="0px"
	 width="207px" height="244px" viewBox="0 0 207 244" enable-background="new 0 0 207 244" xml:space="preserve">
<path d="M193.217,37.096c-3.595-6.225-8.139-11.417-13.63-15.578c-6.024-4.56-12.516-7.323-19.472-8.288
	c-2.747-0.383-5.281-0.549-7.604-0.499c-2.404-0.166-5.362,0.232-8.873,1.198c-5.857,1.664-10.385,4.626-13.58,8.887
	c-3.595,4.893-5.426,10.801-5.492,17.724c-0.029,3.544,0.433,7.083,1.382,10.614c-1.865-0.567-3.836-1.078-5.925-1.527
	c-5.393-1.165-10.918-1.797-16.577-1.897c-0.919-0.014-1.826,0.009-2.736,0.023c-0.262-8.052-1.157-14.632-2.706-19.694
	c-1.862-6.082-4.679-10.932-8.44-14.562c-1.089-1.253-2.647-2.54-4.69-3.862C73.191,2.08,60.759-1.016,47.578,0.349
	C34.863,1.68,23.929,6.839,14.775,15.826C8.251,22.25,3.808,29.523,1.445,37.645c-2.363,8.188-1.98,15.211,1.148,21.07
	c2.13,3.994,5.392,6.74,9.786,8.238c4.127,1.431,8.837,1.614,14.129,0.549c8.875-1.803,17.197-4.632,24.974-8.473
	c1.316,1.072,2.725,2.141,4.245,3.206c-3.527,2.542-6.852,5.384-9.947,8.563c-13.323,13.688-21.069,31.042-23.283,52.033
	l-4.926,0.24c-9.02,1.1-14.346,3.313-15.977,6.641c-0.533,1.099-0.666,2.33-0.399,3.695c0.233,1.397,0.832,2.695,1.797,3.895
	c3.728,4.727,9.453,8.637,17.175,11.732c0.851,0.339,1.687,0.647,2.516,0.944c0.536,4.203,1.32,8.236,2.354,12.099
	c-1.504,0.954-2.849,2.095-4.021,3.434c-1.897,2.163-3.479,4.976-4.743,8.438c-1.631,4.527-1.98,9.686-1.048,15.478
	c0.932,5.625,2.962,11.15,6.091,16.575c4.527,7.956,10.418,14.014,17.674,18.174c7.29,4.228,15.328,6.175,24.115,5.842
	c3.528-0.133,6.707-1.082,9.536-2.846c2.863-1.764,5.109-4.193,6.74-7.289c0.58-1.092,1.064-2.226,1.473-3.393
	c9.836,2.854,19.979,4.24,30.431,4.141c3.541-0.037,6.967-0.271,10.301-0.661c0.938,4.118,2.331,7.733,4.179,10.847
	c4.493,7.59,11.267,11.384,20.321,11.384c5.425,0,10.434-1.231,15.027-3.694c4.693-2.529,8.438-6.092,11.234-10.685
	c3.895-6.392,5.574-14.113,5.042-23.167c-0.316-5.3-1.386-10.631-3.171-15.99c8.757-12.978,13.156-28.775,13.156-47.418
	c0-9.319-1.331-18.989-3.994-29.007c-1.896-7.123-4.044-13.165-6.44-18.124c11.883-2.862,19.488-9.619,22.817-20.271
	C203.186,62.825,201.006,50.576,193.217,37.096z"/>
</svg>
