<?xml version="1.0" encoding="utf-8"?>
<!-- Generator: Adobe Illustrator 16.0.0, SVG Export Plug-In . SVG Version: 6.00 Build 0)  -->
<!DOCTYPE svg PUBLIC "-//W3C//DTD SVG 1.1//EN" "http://www.w3.org/Graphics/SVG/1.1/DTD/svg11.dtd">
<svg version="1.1" id="图层_1" xmlns="http://www.w3.org/2000/svg" xmlns:xlink="http://www.w3.org/1999/xlink" x="0px" y="0px"
	 width="257px" height="279px" viewBox="0 0 257 279" enable-background="new 0 0 257 279" xml:space="preserve">
<path d="M254.602,95.817c-0.6-4.36-2.229-8.487-4.893-12.38c-2.029-2.962-6.39-6.274-13.079-9.935
	c-6.356-3.461-11.116-5.342-14.278-5.642c-2.861-0.266-6.473,0.366-10.833,1.897c-1.084,0.388-2.084,0.782-3.009,1.182
	c0.27-0.181,0.547-0.344,0.813-0.533c5.957-4.227,10.234-10.467,12.83-18.721c2.896-9.119,2.629-18.005-0.799-26.658
	c-3.361-8.52-8.72-15.01-16.075-19.47c-6.423-3.927-13.079-5.675-19.969-5.242c-11.582,0.699-20.734,4.909-27.457,12.63
	c-3.927,4.526-6.54,9.385-7.838,14.577c-0.933,3.627-1.397,7.255-1.397,10.883c0,3.794,0.516,7.671,1.547,11.632
	c1.231,4.726,2.996,8.554,5.292,11.482l-1.844,3.083c-6.291-2.525-13.595-4.039-21.919-4.53c-8.387-0.466-16.408,0.183-24.063,1.947
	c-8.287,1.964-15.742,5.109-22.365,9.436c-4.92,3.204-8.937,6.784-12.059,10.734c-0.679-0.288-1.463-0.81-2.368-1.599
	c-1.099-0.999-1.914-1.93-2.446-2.796c2.795-4.227,4.609-9.103,5.441-14.627c0.932-6.19,0.482-12.414-1.348-18.671
	c-1.165-4.027-3.079-7.871-5.741-11.532c-3.794-5.325-8.487-9.152-14.078-11.482c-7.189-3.029-14.261-3.944-21.217-2.746
	c-7.089,1.198-13.629,4.509-19.62,9.934C5.672,34.229,1.912,41.169,0.547,49.489c-1.231,7.289-0.499,14.261,2.197,20.917
	c2.33,5.758,6.007,10.517,11.033,14.278c3.195,2.429,6.707,4.293,10.534,5.591c4.56,1.498,9.485,2.163,14.777,1.997
	c6.257-0.233,11.798-1.697,16.625-4.393c2.977,3.473,4.666,6.771,5.1,9.897c-0.136,0.013-0.271,0.019-0.408,0.038
	c-1.231,0.167-2.563,0.749-3.994,1.748c-1.498,0.998-2.762,2.229-3.794,3.694c-1.298,1.864-2.197,3.877-2.696,6.041
	c-0.466,2.097-0.5,4.11-0.1,6.041c0.566,2.596,1.814,4.742,3.744,6.44c1.751,1.533,3.861,2.514,6.318,2.959
	c0.291,1.718,0.677,3.699,1.17,5.977c0.3,1.298,1.032,2.379,2.197,3.245c0.514,0.375,1.071,0.636,1.655,0.825l2.28,10.96
	c-12.661,0.042-20.522,0.738-23.555,2.093c-3.827,1.73-9.468,5.559-16.923,11.482c-9.519,7.555-14.894,13.729-16.125,18.521
	c-1.032,4.127-0.982,8.553,0.15,13.279c0.865,3.594,1.83,6.007,2.896,7.238c0.632,0.766,1.93,1.447,3.894,2.047
	c1.779,0.557,3.459,0.792,5.052,0.744c0.451,1.253,0.946,2.143,1.488,2.65c1.498,1.365,3.811,2.529,6.939,3.494
	c3.481,1.081,6.238,1.124,8.285,0.147c0.068,0.065,0.131,0.146,0.202,0.202c1.631,1.266,3.645,2.164,6.041,2.696
	c2.829,0.599,5.025,0.267,6.589-0.999c2.03-1.697,4.144-4.109,6.34-7.238c2.729-3.895,4.094-7.072,4.094-9.535
	c0-1.697-0.699-3.444-2.097-5.242c-0.642-0.811-1.218-1.413-1.731-1.813l3.578-5.875c2.596-4.127,4.094-6.373,4.493-6.74
	l2.846-0.199l2.683,0.067c1.186,7.043,2.172,13.657,2.952,19.824c-0.429,0.058-0.875,0.147-1.341,0.277
	c-1.797,0.499-3.062,1.348-3.794,2.546c-0.732,1.298-0.948,3.096-0.649,5.392l0.599,4.394c0.031,0.197,0.063,0.384,0.095,0.568
	c-0.761,1.468-1.195,3.09-1.293,4.873c-0.041,1.173,0.082,2.339,0.333,3.499c-1.294,1.234-2.348,2.688-3.129,4.389
	c-1.564,3.461-1.947,7.604-1.148,12.431c0.53,3.363,2.02,6.566,4.444,9.609c-1.951,0.921-4.424,2.189-7.439,3.819
	c-3.195,1.765-5.175,2.896-5.941,3.396c-0.898,0.599-1.514,1.348-1.847,2.246c-0.305,0.804-0.353,1.668-0.173,2.587
	c-1.421,1.146-3.074,2.841-4.969,5.101c-0.998,1.198-1.514,2.529-1.547,3.994c-0.033,1.364,0.333,2.662,1.098,3.895
	c0.999,1.563,2.296,2.496,3.894,2.795c1.531,0.333,3.262,0.05,5.192-0.849c1.43-0.669,2.662-1.257,3.734-1.78l11.218,3.907
	c-0.5,1.617-0.268,3.254,0.723,4.912c0.965,1.564,2.247,2.546,3.844,2.945c1.631,0.399,3.461,0.2,5.492-0.599l5.042-2.098
	l0.493-0.28c1.28,0.447,2.707,0.588,4.3,0.381c2.33-0.3,4.709-1.282,7.139-2.946l14.278-9.834c2.163-1.432,3.561-2.896,4.193-4.393
	c0.532-1.332,0.666-3.313,0.399-5.941c-0.2-2.063-0.666-4.41-1.398-7.039l-1.262-3.922c0.078-0.121,0.147-0.246,0.222-0.369
	c2.42-0.052,4.995-0.432,7.73-1.15l9.735-2.945c5.524-1.797,9.702-3.012,12.53-3.645c4.627-1.064,8.587-1.447,11.882-1.148
	c4.626,0.434,8.886,1.248,12.78,2.446c3.121,0.983,5.651,2.079,7.593,3.288c2.018,4.561,5.085,8.002,9.231,10.291
	c6.356,3.494,13.179,3.245,20.468-0.749c6.456-3.528,11.997-9.103,16.624-16.724c4.027-6.623,6.706-13.346,8.037-20.169
	c0.869-4.479,1.044-8.477,0.555-12.016l1.691-1.513l3.396-3.495c0.698-0.832,1.114-1.913,1.248-3.245
	c0.2-1.631-0.116-3.078-0.948-4.343c-0.965-1.465-2.164-2.43-3.595-2.896l-3.095-0.1c-3.053,1.184-5.122,2.051-6.239,2.611
	c-0.904-0.64-1.881-1.23-2.946-1.764c-3.14-1.584-5.784-2.35-7.945-2.316l0.356-1.428c0.333-1.563,0.183-3.012-0.449-4.343
	c-0.632-1.364-1.647-2.362-3.046-2.995c-3.381-1.528-6.089-1.28-8.137,0.717l-0.25-5.609l-0.409-5.957l11.593-0.982
	c11.049-1.298,17.755-2.846,20.118-4.643c2.829-2.097,5.907-6.49,9.235-13.18c3.761-7.488,6.689-15.792,8.787-24.911
	C254.668,108.63,255.334,101.375,254.602,95.817z M202.633,74.4c-0.666,0.566-1.198,2.113-1.598,4.643
	c-0.433,2.629-0.5,4.926-0.199,6.89c0.199,1.265,0.615,2.446,1.248,3.544c0.665,1.131,1.381,1.847,2.146,2.146
	c0.346,0.152,0.688,0.282,1.031,0.4c-1.283,7.137-1.512,18.229-0.682,33.298c-2.4,0.652-4.81,1.342-7.226,2.063
	c-3.38-13.879-8.137-26.274-14.292-37.158c-4.211-7.425-8.344-13.079-12.399-16.996l0.119-0.526
	c5.724,2.829,11.931,4.177,18.621,4.043c5.095-0.09,9.774-1.111,14.061-3.019C203.167,73.951,202.887,74.175,202.633,74.4z"/>
</svg>
