<?xml version="1.0" encoding="utf-8"?>
<!-- Generator: Adobe Illustrator 16.0.0, SVG Export Plug-In . SVG Version: 6.00 Build 0)  -->
<!DOCTYPE svg PUBLIC "-//W3C//DTD SVG 1.1//EN" "http://www.w3.org/Graphics/SVG/1.1/DTD/svg11.dtd">
<svg version="1.1" id="图层_1" xmlns="http://www.w3.org/2000/svg" xmlns:xlink="http://www.w3.org/1999/xlink" x="0px" y="0px"
	 width="379px" height="350px" viewBox="0 0 379 350" enable-background="new 0 0 379 350" xml:space="preserve">
<path d="M374.451,111.075c-1.899-5.231-4.748-9.879-8.547-13.944c-8.729-9.263-19.459-13.128-32.188-11.595
	c-5.431,0.666-10.079,1.999-13.944,3.998c-2.305,1.2-4.552,2.773-6.741,4.704c5.064-12.205,9.795-21.273,14.188-27.195
	c4.265-5.731,5.381-14.661,3.349-26.789c-1.532-8.997-4.064-17.126-7.597-24.391c-0.899-1.899-2.016-3.499-3.349-4.798
	c-1.366-1.333-2.766-2.166-4.198-2.499c-3.266-0.767-6.564,0.383-9.896,3.449c-3.299-2.966-7.83-3.715-13.595-2.25
	c-5.432,1.366-9.129,3.715-11.096,7.047c-4.697-1.732-8.746-1.799-12.145-0.2c-4.266,1.999-7.464,4.715-9.597,8.146
	c-1.933,3.132-2.899,6.731-2.899,10.796c0,2.433,0.734,4.615,2.199,6.547c1.467,1.933,3.266,3.082,5.398,3.449
	c-0.4,4.832-0.084,8.913,0.949,12.245c0.967,3.065,2.649,5.781,5.049,8.146c-5.531,6.531-9.496,15.294-11.896,26.29
	c-0.625,2.914-1.133,5.944-1.523,9.092c-0.565-3.405-1.611-6.315-3.175-8.693c-1.933-2.965-4.182-4.314-6.748-4.048l-20.592,1.6
	l-15.943,0.45l9.047-14.344l10.346-16.293c1.533-2.333,1.916-5.331,1.149-8.997c-0.833-3.798-2.616-6.864-5.348-9.196
	c-2.866-2.433-5.915-3.732-9.146-3.898c-3.466-0.167-6.548,1.016-9.246,3.548c-5.765,5.432-15.028,14.528-27.789,27.29l3.848-14.844
	l3.898-16.044c0.6-2.399,0.9-4.231,0.9-5.498c0-5.998-3.382-10.796-10.146-14.394c-4.198-2.199-8.813-3.116-13.845-2.749
	c-4.898,0.366-8.463,1.816-10.696,4.348c-1.499,1.699-5.165,8.23-10.996,19.592c-6.73,12.995-11.012,20.992-12.845,23.99
	l-5.498-10.695c-2.333-4.532-4.165-8.43-5.498-11.696c-1.033-2.565-3.666-4.231-7.897-4.998c-4.065-0.733-8.113-0.433-12.145,0.9
	c-3.299,1.133-5.948,2.815-7.947,5.048c-1.899,2.133-2.849,4.349-2.849,6.647c0,0.7,0.1,1.399,0.3,2.099
	c2.232,8.263,3.898,16.827,4.998,25.69c0.667,5.198,1.183,11.045,1.549,17.543l-3.449,2.699c-0.633,0.633-4.931,1.083-12.895,1.349
	l-11.746,0.25c-2.069,0-3.984,0.277-5.753,0.818c-1.113-4.083-1.88-9.261-2.294-15.562c-0.866-13.195,0.65-25.807,4.548-37.835
	c1.533,0.2,3.865-0.317,6.997-1.549c3.199-1.3,5.182-2.566,5.948-3.799c2.399-3.932,3.882-8.063,4.448-12.395
	c0.433-3.132,0.35-5.998-0.25-8.597c-0.5-2.166-1.283-3.981-2.349-5.448c-3.632-4.898-6.647-8.197-9.046-9.896
	c-4.565-3.265-9.962-4.332-16.193-3.199C39.634,2.751,29.888,5.4,22.791,8.465c-7.164,3.132-11.996,6.831-14.495,11.096
	c-3.465,5.998-5.914,14.278-7.347,24.84c-1.766,13.161-1.099,26.04,2,38.635c3.032,12.361,8.713,26.506,17.043,42.433
	c6.397,12.262,11.945,21.441,16.644,27.539c2.333,3.032,5.348,4.665,9.046,4.898c3.465,0.2,6.114-0.783,7.947-2.949
	c1.333-1.6,2.349-3.632,3.049-6.098c0.533,0.233,1.649,0.85,3.349,1.849l3.873,2.16l-3.473,5.037
	c-1.899,2.699-2.849,5.431-2.849,8.197c0,1.899,0.35,3.715,1.049,5.448c0.767,1.966,1.916,3.632,3.449,4.998
	c2.299,2.1,4.998,3.449,8.097,4.049c3.232,0.6,5.731,0.133,7.497-1.4l0.65-0.549c6.487-5.619,11.368-8.965,14.646-10.043
	c-0.269,3.433-0.354,5.986-0.252,7.644c0.092,1.226,2.238,2.266,6.385,3.125c1.729,5.993,3.003,14.762,3.816,26.333
	c-8.472,0.89-15.624,4.044-21.447,9.477c-6.397,5.932-10.646,14.045-12.745,24.34l-5.298,4.748c-1.766,1.8-2.799,3.35-3.099,4.648
	c-0.4,1.967-0.6,4.266-0.6,6.897c0,4.032,0.733,7.614,2.199,10.746c1.666,3.499,4.015,5.813,7.047,6.947
	c3.298,1.232,6.547,1.849,9.746,1.849c2.099,2.933,4.715,5.748,7.847,8.447c2.348,2.047,4.685,3.699,7.013,4.998
	c0.409,0.729,0.86,1.489,1.384,2.299c0.533,0.833,1.075,1.581,1.622,2.287l-3.021,1.111c-4.465,1.566-7.831,2.898-10.096,3.998
	c-3.765,1.8-6.564,3.766-8.396,5.898c-1.622,1.827-2.559,3.796-2.829,5.901c-0.328,0.32-0.654,0.646-0.97,0.995
	c-3.465,3.898-5.548,8.964-6.248,15.195c-0.2,1.665,0,3.131,0.6,4.397c0.633,1.267,1.566,2.149,2.799,2.649
	c1.566,0.6,3.215,0.999,4.948,1.199l4.357-0.384c0.575,2.139,1.931,3.557,4.09,4.232c2.987,0.937,5.805,1.022,8.457,0.262
	c0.59,1.627,1.747,2.728,3.488,3.286c2.299,0.768,4.565,1.133,6.797,1.1s4.265-0.482,6.098-1.35
	c0.933-0.399,1.649-1.082,2.149-2.049c0.5-0.899,0.9-2.249,1.2-4.049c0.055-0.301,0.138-0.602,0.228-0.903
	c3.97,0.198,7.299-0.146,9.968-1.046c2.499-0.799,5.098-2.332,7.797-4.598c3.732-3.132,9.18-6.697,16.344-10.695
	c7.963-4.398,14.461-7.23,19.492-8.497c1.975-0.493,3.634-1.185,5.01-2.051c5.283,0.808,9.35,0.099,12.183-2.147
	c2.354-1.895,3.203-4.263,2.563-7.097c4.251-2.852,9.591-9.237,16.029-19.192c1.531-2.377,2.913-4.608,4.151-6.701
	c1.735,3.175,5.012,7.804,9.844,13.898l-1.1,4.298c-0.7,2.799-1.084,4.731-1.15,5.798c-0.199,3.266,0.617,5.797,2.449,7.597
	c1.3,1.3,2.716,1.982,4.248,2.05c1.633,0.066,3.416,0.766,5.349,2.099c2.032,3.165,3.465,6.098,4.298,8.796
	c0.467,1.566,0.783,3.466,0.949,5.698c0.134,2.199,0.384,3.832,0.75,4.897c0.633,1.867,1.816,3.449,3.549,4.749
	c1.639,1.252,4.003,2.422,7.082,3.515l0.465,4.582c0.133,2.332,1.467,4.248,3.998,5.748c2.199,1.266,4.582,1.932,7.148,1.998
	c2.998,0.067,5.681-0.532,8.046-1.799c2.177-1.157,3.51-2.604,4.022-4.332c0.478,0.725,1.131,1.371,1.976,1.934
	c1.766,1.133,3.965,1.732,6.597,1.799c2.766,0.066,5.349-0.699,7.748-2.299c2.465-1.633,3.814-3.615,4.048-5.947
	c0.013-0.128,0.018-0.253,0.028-0.38c1.077,1.453,2.68,2.516,4.82,3.179l6.447,0.199c2.065-0.566,3.814-1.6,5.248-3.099
	c1.432-1.499,2.182-3.132,2.248-4.897c0.167-4.432-0.383-8.598-1.648-12.496c-0.201-0.612-0.421-1.202-0.65-1.781v-0.917
	c0.7-4.998-1.799-10.313-7.496-15.944c-3.966-3.898-9.164-7.68-15.594-11.346c5.098-2.865,9.578-6.63,13.443-11.295
	c4.499-5.432,7.031-10.912,7.598-16.443c1.166-11.695-0.217-22.375-4.148-32.037c-2.786-6.86-6.582-12.59-11.352-17.23
	c4.962-13.277,15.883-25.346,32.793-36.199c13.595-8.729,27.456-14.977,41.584-18.742c4.198-1.133,8.03-4.215,11.495-9.246
	c4.165-5.998,6.697-13.511,7.597-22.541C377.033,121.554,376.351,116.339,374.451,111.075z M210.215,136.815
	c-0.066,0.356-0.132,0.726-0.198,1.091c-0.029-0.334,0.019-0.665,0.149-0.992C210.179,136.881,210.2,136.848,210.215,136.815z
	 M255.848,128.418c-5.059-0.74-11.041-0.251-17.939,1.452c-1.445-1.448-2.94-2.84-4.488-4.172c3.619-1.049,8.537-2.439,14.781-4.178
	l1-0.3c2.86-0.767,4.935-2.792,6.229-6.065c-0.018,0.949-0.032,1.9-0.032,2.867C255.398,121.887,255.549,125.353,255.848,128.418z"
	/>
</svg>
