<?xml version="1.0" encoding="utf-8"?>
<!-- Generator: Adobe Illustrator 16.0.0, SVG Export Plug-In . SVG Version: 6.00 Build 0)  -->
<!DOCTYPE svg PUBLIC "-//W3C//DTD SVG 1.1//EN" "http://www.w3.org/Graphics/SVG/1.1/DTD/svg11.dtd">
<svg version="1.1" id="图层_1" xmlns="http://www.w3.org/2000/svg" xmlns:xlink="http://www.w3.org/1999/xlink" x="0px" y="0px"
	 width="267px" height="267px" viewBox="0 0 267 267" enable-background="new 0 0 267 267" xml:space="preserve">
<path d="M259.203,74.145c-2.498-14.29-11.441-25.448-26.83-33.475c-7.728-3.997-15.438-5.046-23.133-3.148
	c-7.928,1.965-14.173,6.662-18.736,14.09c-3.863,6.262-4.979,13.207-3.348,20.834c1.666,7.895,5.93,14.423,12.791,19.585
	c-0.836,6.039-3.51,12.633-7.976,19.767c0.095-0.393,0.198-0.781,0.281-1.18c3.031-14.623-2.248-29.079-15.838-43.368
	c-5.729-5.996-12.308-11.192-19.735-15.588c-0.046-0.027-0.091-0.051-0.136-0.078c0.028-0.008,0.058-0.014,0.086-0.022
	c5.097-1.499,10.009-5.196,14.739-11.091c4.063-5.13,7.178-10.759,9.343-16.888c2.099-5.962,2.515-10.076,1.249-12.341
	c-0.533-0.933-2.898-1.249-7.095-0.949c-4.497,0.3-9.26,1.249-14.29,2.848c-9.341,2.924-16.244,6.901-20.724,11.924
	c-2.247-1.443-4.777-2.182-7.604-2.182c-1.549,0-2.996,0.135-4.36,0.376c-0.158-0.358-0.308-0.715-0.486-1.076
	c-2.431-4.896-6.478-9.209-12.141-12.94c-6.362-4.197-14.223-7.228-23.583-9.093c-1.332-0.267-2.198-0.167-2.598,0.299
	c-0.266,0.333-0.483,1.266-0.649,2.798c-0.833,6.928-0.366,13.573,1.399,19.935c1.632,5.862,4.18,10.875,7.645,15.039
	c2.937,3.542,6.161,6.02,9.67,7.446c-6.755,1.973-13.178,4.798-19.263,8.492C73.092,63.152,64.898,75.343,63.3,90.732
	c-0.117,1.126-0.177,2.245-0.194,3.357c-5.469-11.146-8.752-19.661-9.849-25.541c8.793-1.465,15.088-4.646,18.886-9.542
	c3.664-4.763,5.046-11.309,4.147-19.636c-0.899-8.926-6.045-15.521-15.438-19.785c-9.126-4.097-19.186-4.696-30.178-1.798
	C16.185,21.617,6.809,29.861,2.545,42.518c-4.23,12.424-3.014,27.696,3.647,45.815c4.097,11.092,11.125,21.518,21.084,31.277
	c4.285,4.228,8.687,7.947,13.195,11.19c-7.505,8.205-11.889,17.78-13.145,28.73c-1.399,12.458,0.366,23.599,5.296,33.425
	c1.526,3.035,3.33,5.851,5.404,8.449c-2.889,1.724-5.513,3.681-7.853,5.891c-4.263,4.029-6.945,8.193-8.044,12.49
	c-1.132,4.663-0.25,8.91,2.648,12.74c1.799,2.332,4.347,3.964,7.645,4.896c3.031,0.833,6.029,0.899,8.993,0.2
	c2.598,4.263,6.479,7.011,11.641,8.243c5.33,1.266,10.509,0.533,15.539-2.197c4.363-2.365,10.409-6.779,18.136-13.24
	c2.942-2.451,5.592-4.732,7.971-6.854l7.068-0.492c2.964-0.232,5.063-0.249,6.295-0.049c1.066,0.199,5.779,2.381,14.14,6.545
	c7.799,3.422,15.201,5.748,22.217,7.015c2.509,4.424,5.422,8.634,8.759,12.62c5.23,6.229,10.659,10.893,16.289,13.99
	c4.263,2.364,9.126,2.964,14.588,1.799c5.529-1.166,9.644-3.781,12.342-7.845c3.597,0.8,6.911,0.666,9.941-0.399
	c2.932-1.033,5.246-2.781,6.945-5.246c3.797-5.529,3.564-11.775-0.699-18.736c-1.6-2.664-4.863-5.813-9.793-9.443
	c-0.396-0.298-0.786-0.582-1.178-0.868c7.198-6.825,11.607-15.427,13.219-25.812c1.898-12.191,0.233-24.481-4.996-36.872
	c-0.043-0.103-0.091-0.203-0.135-0.305c6.886-3.165,12.836-6.74,17.821-10.737c7.86-6.295,14.522-14.556,19.985-24.781
	C257.771,104.838,261.668,88.234,259.203,74.145z"/>
</svg>
