<?xml version="1.0" encoding="utf-8"?>
<!-- Generator: Adobe Illustrator 16.0.0, SVG Export Plug-In . SVG Version: 6.00 Build 0)  -->
<!DOCTYPE svg PUBLIC "-//W3C//DTD SVG 1.1//EN" "http://www.w3.org/Graphics/SVG/1.1/DTD/svg11.dtd">
<svg version="1.1" id="图层_1" xmlns="http://www.w3.org/2000/svg" xmlns:xlink="http://www.w3.org/1999/xlink" x="0px" y="0px"
	 width="516px" height="521px" viewBox="0 0 516 521" enable-background="new 0 0 516 521" xml:space="preserve">
<path d="M514.1,230.808c-1.635-21.946-3.936-33.669-6.904-35.17c-3.102-1.567-10.406-2.301-21.913-2.201
	c-10.405,0.1-22.63,0.851-36.671,2.251l15.309-10.606c8.372-5.736,13.225-9.272,14.559-10.606c1.602-1.601,1.852-3.135,0.751-4.603
	c-0.9-1.201-2.985-2.652-6.254-4.353c-9.072-4.736-18.244-8.372-27.516-10.907c-6.171-1.683-12.979-2.988-20.422-3.92
	c0.529-1.662,0.972-3.241,1.326-4.74c11.278-1.656,20.645-6.04,28.101-13.152c9.772-9.272,15.342-22.563,16.71-39.873
	c14.975-7.338,24.598-13.508,28.866-18.511l4.253-5.103c0.867-1.567,1.051-3.886,0.55-6.954c-0.9-5.604-3.735-11.49-8.505-17.66
	c-4.402-5.704-8.988-9.889-13.758-12.558c-2.201-1.234-4.569-2.068-7.104-2.501l-5.903,0.3c-3.302,1.334-8.672,6.587-16.109,15.759
	l-12.607,16.56l-3.901-0.2c-6.204-18.01-10.773-30.501-13.708-37.472c-7.071-17.01-12.607-25.198-16.61-24.564
	c-10.706,0.901-20.295,4.169-28.767,9.806c-7.07,4.736-11.674,9.739-13.808,15.008c-1.001,2.335-0.718,4.553,0.851,6.654
	c5.303,7.071,10.072,14.609,14.308,22.613c2.902,5.47,5.37,10.84,7.404,16.109c-24.381-18.644-38.905-25.298-43.575-19.961
	c-4.269,4.936-8.138,10.439-11.606,16.509c-4.202,7.238-6.304,12.875-6.304,16.91c0,0.9,0.1,1.718,0.3,2.451
	c0.501,1.668,2.218,2.918,5.153,3.752c14.108,4.036,25.382,8.255,33.819,12.657c4.87,2.501,8.238,4.719,10.106,6.654
	c0.467,4.436,1.017,8.138,1.65,11.106c1.263,5.827,3.049,10.784,5.349,14.882c-2.486,2.332-4.703,4.792-6.658,7.375l-1.592-1.694
	c-1.901-2.035-4.886-4.302-8.955-6.804c-6.547-4.024-14.098-7.305-22.631-9.861c-0.554-2.136-1.376-4.481-2.484-7.049
	c-2.167-5.003-4.886-9.622-8.154-13.858c-8.538-11.073-18.411-16.676-29.617-16.81c-5.703-0.067-11.273,1.567-16.71,4.903
	c-4.036,2.468-7.788,5.703-11.257,9.706c-4.502,5.236-7.904,11.356-10.205,18.36c-1.053,3.158-1.758,6.044-2.115,8.658
	c-10.557,4.762-20.05,11.135-28.453,19.158c-6.404,6.104-10.29,10.873-11.657,14.308c-0.934,2.268-0.1,3.869,2.501,4.803
	l3.762,0.928l-1.11,2.774c-3.269-1.267-6.337-1.717-9.206-1.351c-2.935,0.4-5.353,1.584-7.254,3.552
	c-2.368,2.435-3.769,5.803-4.203,10.105c-0.467,4.436,0.284,8.605,2.251,12.507c0.798,1.615,1.888,3.109,3.256,4.488l-8.191,4.974
	c1.679-27.316,2.624-44.566,2.833-51.737c0.634-9.172,0.867-15.709,0.701-19.611c-0.333-6.57-2.135-10.806-5.403-12.708
	c-6.437-3.702-17.577-5.403-33.419-5.103c-16.31,0.3-30.417,2.685-42.325,7.154c-6.403,2.401-10.99,5.103-13.758,8.105
	c-3.135,3.335-4.819,7.821-5.053,13.458c-0.234,4.87,2.451,21.212,8.055,49.029c2.801,14.008,5.72,28.066,8.755,42.174
	c-1.601,1.034-3.469,2.368-5.603,4.002c-3.135,2.401-5.52,4.486-7.154,6.253c-14.675-16.576-28.633-30.701-41.875-42.375
	c-14.875-13.141-24.381-19.061-28.517-17.76c-4.269,1.334-9.472,6.587-15.609,15.759c-6.471,9.672-12.941,22.179-19.411,37.521
	c-2.802,6.604-4.436,12.307-4.903,17.11c-0.7,7.004,0.934,12.474,4.903,16.41c4.736,4.736,15.859,11.206,33.369,19.411
	c18.511,8.639,35.504,15.025,50.979,19.161c4.703,12.975,13.841,23.514,27.416,31.618c11.712,6.96,24.587,10.745,38.617,11.38
	c-2.642,5.454-4.31,12.896-4.998,22.341c-0.934,13.44,1.034,25.931,5.903,37.471c4.87,11.607,12.107,21.763,21.713,30.468
	c0.992,0.897,2.012,1.769,3.045,2.627c-15.981,14.15-26.757,25.602-32.313,34.345c-5.57,8.806-6.521,15.977-2.852,21.513
	c2.535,3.802,8.405,6.504,17.61,8.104c8.372,1.435,16.31,1.534,23.814,0.301c2.068,2.534,6.12,4.719,12.157,6.554
	c5.836,1.801,11.523,2.685,17.06,2.651c3.969-0.033,7.104-0.467,9.405-1.301c4.402-1.635,8.455-4.937,12.157-9.906
	c6.356-8.454,11.91-20.283,16.668-35.473c12.015,0.879,23.57,0.216,34.662-1.999c18.311-3.635,34.07-11.173,47.277-22.613
	c9.638-8.357,17.234-18.181,22.793-29.466c12.233,3.605,24.282,5.268,36.146,4.99c2.053,7.536,4.384,13.818,6.999,18.822
	c2.868,5.537,5.57,8.556,8.104,9.056c3.97,0.801,10.307-0.25,19.012-3.151c8.671-2.869,14.008-5.688,16.009-8.455
	c4.603-0.268,9.272-1.451,14.008-3.553c4.637-2.034,8.556-4.569,11.757-7.604c3.369-3.201,5.354-6.453,5.954-9.755
	c0.7-3.636-0.4-6.938-3.302-9.906c-2.269-2.335-4.87-4.303-7.805-5.903c-1.869-1.006-4.141-2.004-6.801-2.992
	c2.484-2.179,4.838-4.497,7.051-6.964c7.338-8.138,13.274-17.71,17.811-28.717c3.169-7.742,4.702-13.472,4.613-17.207
	c8.541-7.715,14.748-14.556,18.6-20.515c1.435-2.234,1.984-4.085,1.651-5.554c-0.334-1.5-1.834-3.668-4.503-6.503
	c-4.103-4.336-10.789-10.59-20.062-18.761c-12.04-10.606-22.696-19.162-31.969-25.665l17.511-1.401l16.409-0.25l18.211-0.4
	c5.069-0.3,8.104-1.117,9.105-2.451c0.7-0.934,1.05-5.003,1.05-12.207C515.1,247.201,514.767,239.413,514.1,230.808z
	 M375.609,155.391c0.003-0.001,0.006-0.002,0.009-0.003l0.001,0.049L375.609,155.391z M424.761,152.083
	c-0.059-0.008-0.11-0.015-0.167-0.022c0.079-0.233,0.156-0.465,0.231-0.696C424.819,151.602,424.798,151.842,424.761,152.083z
	 M202.644,207.759c-0.006,0.005-0.012,0.01-0.019,0.015c0.004-0.064,0.008-0.129,0.012-0.192L202.644,207.759z"/>
</svg>
