<?xml version="1.0" encoding="utf-8"?>
<!-- Generator: Adobe Illustrator 16.0.0, SVG Export Plug-In . SVG Version: 6.00 Build 0)  -->
<!DOCTYPE svg PUBLIC "-//W3C//DTD SVG 1.1//EN" "http://www.w3.org/Graphics/SVG/1.1/DTD/svg11.dtd">
<svg version="1.1" id="图层_1" xmlns="http://www.w3.org/2000/svg" xmlns:xlink="http://www.w3.org/1999/xlink" x="0px" y="0px"
	 width="167px" height="136px" viewBox="0 0 167 136" enable-background="new 0 0 167 136" xml:space="preserve">
<path d="M163.35,126.068c-0.834-1.9-2.384-3.785-4.651-5.652c-2.233-1.834-4.718-3.284-7.452-4.352
	c-0.595-0.229-1.191-0.429-1.789-0.614c0.179-0.163,0.361-0.318,0.539-0.485c7.735-7.27,11.604-15.972,11.604-26.107
	c0-8.752-2.977-16.688-8.904-23.814c1.766-0.778,3.274-1.786,4.502-3.044c3.602-3.735,5.086-8.319,4.452-13.754
	c-0.601-5.235-2.918-9.569-6.952-13.004c-4.102-3.501-8.67-5.468-13.704-5.902c-5.202-0.433-9.386,0.917-12.554,4.051
	c-2.9,2.868-4.385,7.036-4.451,12.504c0,1.178,0.116,2.324,0.344,3.44c-1.055-0.085-2.118-0.139-3.195-0.139
	c-6.47,0-12.258,1.444-17.376,4.309c-0.12-2.366-0.571-4.557-1.38-6.559c-1.4-3.435-3.684-5.969-6.852-7.603
	c-4.367-2.267-9.203-2.367-14.504-0.3c-5.268,2.067-9.219,5.618-11.854,10.653c-1.467,2.801-2.384,5.918-2.75,9.353
	c-0.4,3.501-0.15,6.635,0.75,9.403c1.3,4.135,3.868,7.219,7.702,9.252c2.434,1.268,5.318,1.768,8.653,1.501
	c0.556-0.041,1.092-0.124,1.631-0.202c-0.187,0.819-0.354,1.646-0.491,2.484l-1.34-1.633l-11.753,25.059L65.57,70.801L52.367,88.007
	L49.666,65.1l-9.203,5.902l-1.404-6.317c1.867-0.408,3.735-0.98,5.605-1.735c9.27-3.734,15.505-10.17,18.706-19.306
	c3.134-9.003,2.417-17.772-2.15-26.308C57.151,9.733,51.1,4.582,43.063,1.881c-7.635-2.567-15.188-2.351-22.657,0.65
	C12.071,5.898,6.136,11.717,2.602,19.986c-3.501,8.269-3.584,16.571-0.25,24.907c3.368,8.336,9.169,14.271,17.405,17.806
	c6.065,2.592,12.148,3.32,18.25,2.199l1.456,8.354l8.703-4.801l3.051,25.258L63.72,77.403l6.352,37.611l14.014-26.647
	c-0.002,0.164-0.01,0.325-0.01,0.49c0,10.169,3.751,18.871,11.254,26.107c1.031,0.99,2.094,1.906,3.183,2.762
	c-1.275,0.609-2.504,1.321-3.684,2.14c-2.435,1.634-4.151,3.351-5.151,5.151c-0.834,1.4-1.066,2.751-0.7,4.051
	c0.3,1.101,1.101,2.001,2.4,2.701c1.768,1,4.218,1.551,7.353,1.65c3.168,0.066,6.269-0.333,9.303-1.2
	c2.434-0.7,4.584-1.684,6.451-2.95c1.629-1.105,2.854-2.331,3.721-3.664c1.399,0.137,2.825,0.213,4.282,0.213
	c3.831,0,7.469-0.477,10.919-1.416c0.831,1.126,1.955,2.215,3.386,3.266c2.101,1.534,4.618,2.818,7.552,3.852
	c4.302,1.434,8.303,2.084,12.004,1.951c4.068-0.134,6.502-1.234,7.303-3.302C164.117,128.936,164.017,127.568,163.35,126.068z"/>
</svg>
