<?xml version="1.0" encoding="utf-8"?>
<!-- Generator: Adobe Illustrator 16.0.0, SVG Export Plug-In . SVG Version: 6.00 Build 0)  -->
<!DOCTYPE svg PUBLIC "-//W3C//DTD SVG 1.1//EN" "http://www.w3.org/Graphics/SVG/1.1/DTD/svg11.dtd">
<svg version="1.1" id="图层_1" xmlns="http://www.w3.org/2000/svg" xmlns:xlink="http://www.w3.org/1999/xlink" x="0px" y="0px"
	 width="255px" height="285px" viewBox="0 0 255 285" enable-background="new 0 0 255 285" xml:space="preserve">
<path d="M250.415,156.032c-3.868-28.215-6.888-50.627-9.055-67.235l-6.253-47.976c-0.234-1.768-6.521-8.054-18.86-18.86
	l-18.76-15.908c-0.968-0.734-2.852-1.818-5.653-3.251c-3.068-1.601-5.152-2.501-6.253-2.702c-0.7-0.167-3.401-0.167-8.104,0
	l-14.207,0.75c-9.005,0.667-15.691,1.417-20.061,2.251c-2.568,0.5-4.103,0.967-4.604,1.401
	c-2.201,1.734-11.055,11.106-26.563,28.115C95.7,50.593,86.912,61.016,85.678,63.884c-1.167,2.701-3.151,10.839-5.953,24.413
	L77.47,99.68c-0.683,0.491-1.373,0.988-2.047,1.474c-20.578,14.774-31.083,22.595-31.517,23.462c-0.5,1-0.283,4.703,0.65,11.106
	c0.967,6.336,1.784,9.972,2.451,10.905c0.145,0.207,0.454,0.57,0.9,1.065c-5.091,1.579-11.969,4.021-20.66,7.339
	c-16.342,6.203-25.063,10.673-26.164,13.407c-1.067,2.669-1.317,8.271-0.75,16.81c0.567,9.271,1.951,15.774,4.152,19.51
	c0.5,0.867,1.234,1.635,2.201,2.301c0.867,0.635,1.685,1.001,2.452,1.102l49.679,2.319c0.883,0.922,1.79,1.859,2.748,2.833
	c1.572,1.277,7.689,3.73,18.33,7.355c3.705,11.248,7.02,20.685,9.935,28.264c2.801,7.336,4.536,11.205,5.203,11.605
	c0.9,0.601,3.285,1.567,7.154,2.901c4.002,1.368,6.537,2.052,7.604,2.052l3.827-0.426c0.75,1.234,1.292,1.977,1.626,2.227
	c1.134,0.834,5.787,3.734,13.958,8.704c8.838,5.337,13.791,8.138,14.857,8.405c1.201,0.299,5.387,0.217,12.557-0.251
	c7.338-0.5,11.356-1.017,12.057-1.551c2.734-2.101,12.14-13.39,28.215-33.868l22.402-28.716l9.615-0.699l5.252-1.05
	c0.701-0.268,1.367-0.867,2.002-1.802c3.4-4.902,6.953-10.339,10.654-16.309c5.004-8.071,7.504-12.84,7.504-14.308L250.415,156.032z
	"/>
</svg>
