<?xml version="1.0" encoding="utf-8"?>
<!-- Generator: Adobe Illustrator 16.0.0, SVG Export Plug-In . SVG Version: 6.00 Build 0)  -->
<!DOCTYPE svg PUBLIC "-//W3C//DTD SVG 1.1//EN" "http://www.w3.org/Graphics/SVG/1.1/DTD/svg11.dtd">
<svg version="1.1" id="图层_1" xmlns="http://www.w3.org/2000/svg" xmlns:xlink="http://www.w3.org/1999/xlink" x="0px" y="0px"
	 width="456px" height="415px" viewBox="0 0 456 415" enable-background="new 0 0 456 415" xml:space="preserve">
<path d="M443.916,239.189c-7.635-14.185-18.575-27.14-32.8-38.872c-0.556-4.983-1.043-7.648-1.463-7.978l-5.194-0.699l-5.386-0.423
	c-0.321-0.222-0.641-0.445-0.963-0.666l4.8-0.51c2.797-0.266,4.263-0.632,4.396-1.099c0.2-0.566-1.314-2.714-4.545-6.443
	c-3.163-3.696-5.045-5.644-5.645-5.844l-6.043-0.2l-11.238-0.05l10.239-1.648c3.43-0.566,5.193-1.032,5.294-1.398
	c0.101-0.5-0.981-2.581-3.246-6.243c-2.298-3.696-3.763-5.694-4.396-5.994l-10.237-0.5l-14.936-0.2l11.889-4.096
	c4.762-1.631,7.157-2.614,7.191-2.947c0.066-0.466-2.515-2.83-7.742-7.092c-5.359-4.395-8.641-6.659-9.839-6.792l-9.189,1.148
	l-15.483,2.547l15.583-4.745l3.597-1.149c0.434-0.433-0.6-1.182-3.097-2.248c-2.327-1.018-6.404-2.441-12.204-4.263
	c0.642-0.216,1.316-0.453,2.065-0.732c4.86-1.798,7.475-3.263,7.841-4.395c0.3-0.933,0.033-2.797-0.799-5.594l-1.849-5.594
	l7.242,8.591c0.767,0.766,3.412-0.866,7.941-4.895c1.305-1.162,2.394-2.199,3.312-3.138c0.65,0.644,1.297,1.29,1.934,1.939
	c5.294-3.229,7.94-5.161,7.94-5.793c-0.032-0.399-0.981-1.848-2.848-4.345l-5.493-7.342c6.093,4.029,9.572,5.677,10.438,4.945
	c0.666-0.533,1.613-3.18,2.847-7.941c1.299-4.861,1.748-7.858,1.349-8.99c-0.333-0.966-2.631-3.546-6.893-7.742l-10.838-10.639
	l9.04,4.745c3.296,1.731,5.094,2.248,5.394,1.548c0.699-1.598,0.283-6.709-1.248-15.333c-1.765-9.856-4.296-16.382-7.592-19.579
	c-14.774-10.47-30.866-16.782-48.271-18.954c-0.515-0.451-1.038-0.908-1.575-1.374C311.675,10.152,302.85,4.907,296.725,4.441
	c-1.998-0.1-7.442,2.364-16.334,7.392l3.348-5.794c1.564-2.697,2.214-4.278,1.947-4.745c-0.5-0.799-4.479-1.232-11.938-1.299
	c-8.258-0.066-14.7,0.766-19.328,2.498c-2.591,0.96-5.497,3.283-8.717,6.953c-0.421-1.093-0.715-1.673-0.873-1.709
	c-0.268-0.066-2.064,1.632-5.395,5.095l-6.443,6.792l-3.846-6.942c-1.897-3.363-3.03-4.912-3.396-4.645l-5.794,6.543
	c-0.726,0.849-1.383,1.621-1.995,2.342C207.548,7.08,198.783,1.671,191.687,0.745c-7.559-0.966-16.516-0.083-26.871,2.647
	c-6.326,1.632-11.238,3.28-14.734,4.945c-0.699,0.299-0.466,1.132,0.699,2.497l3.446,3.796l-5.694-2.397
	c-2.164-0.932-3.646-1.465-4.445-1.598c-2.664-0.399-6.959,2.314-12.886,8.141l-2.755,3.05c-18.757-0.206-34.849,3.124-48.24,10.036
	c-1.398,0.699-4.312,4.129-8.741,10.289c-3.996,5.561-6.227,8.907-6.693,10.039c-0.2,0.5,1.865,0.2,6.193-0.899l12.087-3.097
	L71.52,53.791c-3.762,1.798-5.927,2.93-6.493,3.396c-0.966,0.833-3.047,6.11-6.243,15.833c-3.596,10.955-6.01,20.528-7.242,28.719
	c-0.3,2.064,0.033,2.897,0.999,2.498l4.745-3.097c11.894-7.729,25.117-14.221,39.633-19.51c-3.284,2.345-6.589,4.834-9.916,7.473
	c-6.493,5.128-12.021,10.022-16.582,14.684c-4.129,4.195-6.043,6.66-5.744,7.392c0.472,1.18,3.249,3.303,8.321,6.365
	c-2.136,1.014-4.276,2.059-6.423,3.175c-1.332,0.699-1.965,1.099-1.898,1.199l1.798,0.749c2.564,1.365,5.76,2.714,9.59,4.046
	l-13.436,0.649l-9.24,0.699c-0.899,0.299-5.311,3.762-13.235,10.389c-7.958,6.692-11.804,10.222-11.538,10.588
	c0.233,0.333,2.63,0.033,7.192-0.899l11.937-2.397l-21.827,9.689l-12.836,16.832l15.134-4.095l-18.13,9.64l-9.24,26.821l-0.2,1.648
	c0.133,0.833,0.816,0.666,2.048-0.5l19.579-19.579l-5.494,14.185c-2.464,6.327-3.58,9.689-3.347,10.09
	c0.333,0.6,4.745-0.084,13.236-2.048l4.595-16.333l0.649,8.591c0.218,3.183,0.526,5.002,0.919,5.495
	c0.41,4.597,1.609,10.13,3.625,16.63c2.397,7.727,4.762,13.254,7.092,16.582c-3.896,3.196-9.023,8.607-15.383,16.232
	c-6.06,7.259-10.588,13.302-13.585,18.13c-1.483,2.397-1.787,6.17-0.928,11.296c-1.81,1.819-3.631,3.945-5.465,6.387
	c-5.228,6.858-7.842,13.418-7.842,19.678c0,4.929,1.416,9.923,4.246,14.984c1.698,3.028,4.845,7.957,9.44,14.782
	c1.332,2.169,2.061,4.399,2.213,6.69c-0.072,0.035-0.145,0.063-0.216,0.103c-2.464,1.365-4.978,3.912-7.542,7.644
	c-2.564,3.662-4.079,6.893-4.545,9.688c-0.433,2.729-0.333,4.445,0.3,5.146c0.599,0.666,2.198,0.947,4.795,0.849
	c2.098-0.101,5.544-0.8,10.338-2.099l5.987-1.731c3.539,1.457,7.91,2.717,13.139,3.772c-0.047,0.172-0.101,0.334-0.146,0.507
	c-1.498,5.794-0.832,9.557,1.998,11.288c1.365,0.865,5.744-0.084,13.136-2.848c6.799-2.521,10.867-4.431,12.219-5.728
	c4.632,0.237,9.149,0.315,13.552,0.231l2.248,4.047c2.697,3.695,6.16,6.477,10.389,8.34c1.432,0.634,2.564,0.934,3.396,0.9
	c0.899-0.066,1.798-0.551,2.697-1.449c1.765-1.73,3.696-4.479,5.793-8.24c2.262-3.959,3.293-6.791,3.124-8.527
	c2.513-1.156,4.429-2.179,5.716-3.061c2.165-1.465,3.513-3.146,4.046-5.045c0.326-1.101,0.431-2.472,0.321-4.105
	c3.26,0.542,6.748,1.014,10.467,1.409c19.046,1.998,33.114,1.147,42.204-2.548c2.776-1.123,6.238-2.648,10.355-4.561
	c5.739,2.028,11.74,3.477,18.015,4.311c6.066,0.8,13.079,1.033,20.994,0.729c0.114,0.376,0.214,0.739,0.333,1.119l3.346,8.491
	c0.513,1.283,0.924,2.445,1.235,3.49c-0.438,0.149-0.82,0.332-1.135,0.556c-2.564,1.831-5.844,5.677-9.839,11.537
	c-4.162,6.159-5.844,10.039-5.044,11.638c0.833,1.633,5.161,2.23,12.986,1.799l11.587-1.199c0.998-0.168,1.813-0.377,2.475-0.621
	c0.872,0.576,1.787,1.137,2.771,1.67c7.24,3.926,16.508,6.157,27.787,6.707c0.334,1.157,1.16,2.336,2.479,3.531
	c1.798,1.633,4.562,3.514,8.291,5.645c3.862,2.23,6.293,3.297,7.292,3.197c1.365-0.135,3.579-2.447,6.643-6.942
	c1.996-2.916,3.297-5.168,3.937-6.785c6.804-0.845,12.559-2.009,17.245-3.497c1.266,0.333,2.855,0.6,4.791,0.792
	c3.829,0.366,7.409,0.416,10.738,0.15c1.564-0.134,2.896-0.518,3.996-1.149c0.933-0.564,1.53-1.197,1.798-1.896
	c0.833-2.266-0.467-6.012-3.896-11.238c-0.313-0.477-0.618-0.925-0.918-1.363c0.355-1.72,0.547-3.726,0.568-6.027
	c0-0.557,0.033-1.072,0.088-1.565c0.004,0.005,0.008,0.013,0.012,0.017c1.632,1.865,5.577,1.184,11.837-2.047
	c1.632-0.834,3.216-1.724,4.758-2.666c8.509,0.61,17.25,0.684,26.242,0.18c3.021,2.201,6.17,4.007,9.456,5.384
	c3.896,1.664,7.492,2.53,10.789,2.598c1.231,0.033,2.597-1.614,4.096-4.944c1.057-2.424,1.824-4.709,2.33-6.871
	c2.268-0.661,4.282-1.402,6.055-2.223c0.439,0.189,1.023,0.342,1.755,0.452c1.896,0.3,4.162,0.25,6.792-0.149
	c6.727-0.998,10.739-3.097,12.037-6.293c0.666-1.664-1.35-4.828-6.043-9.489c-3.501-3.525-6.288-5.522-8.365-6
	c-1.238-1.526-2.812-3.306-4.721-5.339c13.686-7.49,25.006-17.297,33.963-29.418c9.29-12.553,13.936-24.873,13.936-36.959
	C453.506,261.6,450.309,251.043,443.916,239.189z M45.945,192.77l3.647-12.865l2.099,11.637c0.08,0.446,0.156,0.852,0.233,1.262
	C49.771,192.708,47.777,192.696,45.945,192.77z M84.356,191.741l-2.477,5.461c-4.472-0.94-8.752-1.752-12.841-2.435l6.178-28.349
	l0.1,16.032c0,5.927,0.167,9.024,0.5,9.29c0.428,0.333,4.277-0.536,11.512-2.59L84.356,191.741z M101.397,163.83l2.237-13.443
	l3.351,11.978L101.397,163.83z M180.926,112.685c-2.947-1.457-5.973-2.755-9.074-3.899c2.061-2.676,4.172-5.328,6.352-7.946
	c1.256-1.511,2.495-2.958,3.718-4.346C181.043,102.208,180.718,107.6,180.926,112.685z M330.276,126.882l0.063-4.766l4.396,5.394
	c0.251,0.316,0.479,0.609,0.696,0.891C333.803,127.916,332.084,127.409,330.276,126.882z"/>
</svg>
