<?xml version="1.0" encoding="utf-8"?>
<!-- Generator: Adobe Illustrator 16.0.0, SVG Export Plug-In . SVG Version: 6.00 Build 0)  -->
<!DOCTYPE svg PUBLIC "-//W3C//DTD SVG 1.1//EN" "http://www.w3.org/Graphics/SVG/1.1/DTD/svg11.dtd">
<svg version="1.1" id="图层_1" xmlns="http://www.w3.org/2000/svg" xmlns:xlink="http://www.w3.org/1999/xlink" x="0px" y="0px"
	 width="227px" height="240px" viewBox="0 0 227 240" enable-background="new 0 0 227 240" xml:space="preserve">
<path d="M225.23,143.16c-0.635-0.467-1.967,0.183-3.998,1.949c-3.598,3.164-8.312,5.563-14.142,7.195
	c-5.394,1.521-9.937,1.734-13.653,0.685c-1.871-3.917-3.699-7.115-5.484-9.578c-2.238-3.13-5.502-6.542-9.76-10.229l1.765-15.657
	c0.134-1.399-0.134-2.665-0.8-3.797c-0.766-1.299-1.781-1.749-3.049-1.349c-1.764,0.5-3.646,1.083-5.646,1.749
	c-3.419,1.111-6.744,2.372-9.983,3.764c-0.423-0.445-0.827-0.884-1.209-1.315c-1.867-2.099-3.099-3.831-3.698-5.197
	c2.931-3.331,6.495-8.361,10.692-15.09c4.797-7.796,7.096-12.876,6.896-15.241c-0.133-1.733-0.732-3.348-1.799-4.847
	c-1.133-1.633-2.314-2.365-3.551-2.195l-3.145,0.765c2.115-2.742,3.356-4.276,3.697-4.565c1.4-1.232,5.347-2.165,11.843-2.798
	l1.999-0.45l0.749-1.249c0.2-0.599,0.2-1.549,0-2.848l-0.749-2.998c-0.268-0.667-2.133-1.266-5.598-1.799l-7.694-0.6
	c0.233-1.933,0.333-4.281,0.3-7.046c-0.033-3.031-0.234-5.596-0.6-7.695c-0.633-3.365-2.133-8.162-4.497-14.391
	c1.198-0.6,4.364-1.283,9.493-2.049c1.166-0.167,1.966-0.433,2.398-0.8c0.467-0.4,0.666-1.016,0.6-1.849
	c-0.066-0.933-0.482-2.216-1.248-3.848c-0.867-1.732-1.666-2.782-2.398-3.148l-9.844-0.799l-13.096-0.496
	c-4.729-0.167-9.977,0.766-15.739,2.798c-2.832,0.966-6.58,2.581-11.244,4.847l1.698-3.298c0.666-1.333,1-2.265,1-2.798
	c0-0.566-0.266-1.133-0.799-1.699c-0.934-0.933-2.283-1.532-4.049-1.799c-1.998-0.3-3.863-0.034-5.596,0.799
	c-2.765,1.299-8.379,6.213-16.84,14.741c-0.784,0.79-1.534,1.557-2.268,2.314l-0.478-3.716c-0.433-2.565-0.916-4.63-1.449-6.196
	l-1.849-4.997l-1.049-2.499c-0.166-0.599,0.966-2.132,3.398-4.597l3.998-4.197c0.733-1.799-0.782-3.448-4.547-4.947
	c-1.565-0.6-6.512,0.583-14.843,3.551c-9.161,3.298-16.223,6.829-21.187,10.593l0.35-5.047c0.167-2.732,0.2-4.531,0.1-5.397
	c-0.067-0.733-1.083-1.182-3.048-1.349c-1.932-0.201-3.248-0.067-3.948,0.399c-4.031,2.599-8.611,10.793-13.741,24.585l-3.248-6.196
	c-1.332-2.465-2.298-3.864-2.898-4.197c-0.666-0.366-2.098,0.283-4.297,1.949c-2.099,1.566-3.298,2.715-3.598,3.448
	c-1.665,3.865-1.565,12.093,0.3,24.685c1.717,11.399,3.758,19.519,6.12,24.36c-1.602,2.488-3.061,5.305-4.369,8.465
	c-3.231,0.966-6.129,3.115-8.694,6.446c-2.332,2.999-3.731,5.963-4.198,8.895c-0.3,1.965-0.333,4.431-0.097,7.396l0.35,4.197
	l-4.947,4.947c-3.665,3.398-6.047,6.63-7.146,9.693c-1,2.733-1.1,5.681-0.3,8.846c0.699,2.697,2.432,5.214,5.197,7.545
	c1.832,1.531,4.531,3.248,8.095,5.146l2.898,1.25c0.333,0,0.632-0.334,0.899-1c0.832-2.166,1.699-3.582,2.598-4.248
	c4.059,4.483,8.698,7.531,13.907,9.162c-1.283,4.231-1.827,8.424-1.615,12.574c0.085,2.022,0.319,3.794,0.695,5.322
	c-0.392,3.719-0.229,7.392,0.502,11.018c0.666,3.266,1.283,4.93,1.849,4.997c0.398,0.024,0.961-0.34,1.69-1.091
	c0.325,2.143,0.811,3.256,1.458,3.338c0.933,0.1,2.448-1.35,4.547-4.348c0.242-0.35,0.472-0.689,0.693-1.023
	c0.149,1.149,0.43,2.258,0.856,3.323c0.467,1.133,0.867,1.748,1.2,1.849c0.533,0.133,1.465-0.682,2.798-2.447
	c1.394-1.859,2.698-4.184,3.919-6.937c0.505-0.112,0.987-0.243,1.427-0.409c2.698-1,5.28-3.531,7.745-7.596
	c2.065-3.396,4.364-5.979,6.896-7.744c1.048-0.749,2.087-1.311,3.117-1.687c0.432,1.137,0.874,2.342,1.331,3.636
	c0.183,0.524,0.35,1.012,0.521,1.509c-3.417,2.519-5.6,6.286-6.518,11.333c-0.615,3.283-0.688,6.256-0.221,8.919
	c-0.01,0.008-0.021,0.017-0.03,0.024c-1.332,1.066-2.298,1.999-2.898,2.799c-0.307,0.426-0.535,0.873-0.719,1.332
	c-1.697,0.994-3.341,2.241-4.926,3.764c-1.699,1.666-2.482,2.815-2.349,3.448c0.1,0.565,1.816,0.983,5.147,1.248l6.078,0.188
	c0.006,0.004,0.012,0.009,0.018,0.013c0.263,0.971,0.64,1.898,1.117,2.788c-0.978,1.331-1.936,2.736-2.866,4.258
	c-1.832,2.932-2.565,4.664-2.199,5.197l4.997-0.35c0.992-0.222,2.022-0.491,3.071-0.782l-0.473,0.98
	c-0.067,0.5-0.017,0.815,0.15,0.949l1.799,0.198l0.635-0.186c-1.038,1.014-2.099,2.306-3.183,3.887
	c-1.566,2.299-2.199,3.731-1.899,4.297l6.196,0.199c3.413-0.393,6.23-0.922,8.466-1.59c-0.039,0.165-0.083,0.318-0.119,0.489
	c-0.7,3.364-0.4,5.131,0.899,5.297c1.699,0.167,4.43-0.216,8.195-1.147c4.03-1.033,6.512-2.133,7.445-3.299
	c0.235-0.3,0.363-0.629,0.406-0.983l4.928-0.178c2.07,0.917,4.171,1.67,6.306,2.262l4.848,0.25c0.533-0.534,0.832-1.567,0.898-3.099
	l-0.031-1.487c5.415,0.987,10.293,1.295,14.623,0.907c1.087,1.118,2.262,2.217,3.533,3.294c-1.133,0.946-2.805,2.798-5.031,5.581
	c-2.898,3.664-4.098,5.912-3.598,6.744c0.533,0.967,3.031,1.282,7.496,0.949c4.152-0.348,8.133-1.102,11.953-2.234
	c0.708,1.714,2.676,3.705,5.937,5.982c4.23,2.964,7.546,4.18,9.943,3.646c1.698-0.365,3.446-1.666,5.246-3.896
	c1.187-1.442,1.938-2.812,2.28-4.113c1.657,0.79,4.053,1.414,7.213,1.865l7.296,0.4c0.8-0.133,1.3-0.467,1.499-1
	c0.166-0.465,0.1-1.182-0.199-2.148c-0.367-1.066-1-2.299-1.898-3.697l-2.134-3.061l1.082-1.135
	c5.599-3.465,10.194-8.346,13.792-14.641c1.377-2.407,2.479-4.869,3.353-7.378c8.409-4.707,14.989-12.62,19.733-23.755
	c3.698-8.729,5.83-17.939,6.396-27.633C225.945,145.309,225.762,143.627,225.23,143.16z"/>
</svg>
