<?xml version="1.0" encoding="utf-8"?>
<!-- Generator: Adobe Illustrator 16.0.0, SVG Export Plug-In . SVG Version: 6.00 Build 0)  -->
<!DOCTYPE svg PUBLIC "-//W3C//DTD SVG 1.1//EN" "http://www.w3.org/Graphics/SVG/1.1/DTD/svg11.dtd">
<svg version="1.1" id="图层_1" xmlns="http://www.w3.org/2000/svg" xmlns:xlink="http://www.w3.org/1999/xlink" x="0px" y="0px"
	 width="260px" height="200px" viewBox="0 0 260 200" enable-background="new 0 0 260 200" xml:space="preserve">
<path d="M257.696,47.334c-1.503-1.503-3.306-2.254-5.409-2.254s-3.907,0.751-5.41,2.254c-1.502,1.502-2.254,3.306-2.254,5.409
	c0,1.832,0.571,3.435,1.711,4.811c-1.672,1.208-3.567,2.394-5.717,3.554c-2.465,1.312-4.977,2.404-7.525,3.326
	c-1.773-4.49-4.464-7.94-8.074-10.347l0.523-0.942c3.709-6.902,6.159-11.774,7.376-14.658c0.539,0.118,1.101,0.183,1.689,0.183
	c2.104,0,3.907-0.751,5.409-2.254c1.502-1.469,2.254-3.272,2.254-5.41c0-2.104-0.752-3.89-2.254-5.359
	c-1.502-1.503-3.306-2.254-5.409-2.254c-2.104,0-3.89,0.751-5.359,2.254c-1.503,1.469-2.254,3.255-2.254,5.359
	c0,2.137,0.751,3.94,2.254,5.41c0.493,0.504,1.024,0.916,1.588,1.25l-6.246,13.024l-1.157,2.462
	c-2.728-1.385-5.896-1.926-9.512-1.611c-2.106,0.171-4.24,0.624-6.399,1.349c-0.331-1.72-0.602-3.738-0.813-6.057
	c-0.339-3.79-0.365-7.179-0.106-10.201c1.787-0.159,3.343-0.898,4.664-2.22c1.469-1.503,2.204-3.306,2.204-5.41
	c0-2.104-0.735-3.89-2.204-5.359c-1.502-1.503-3.306-2.254-5.409-2.254s-3.907,0.751-5.409,2.254
	c-1.503,1.469-2.254,3.255-2.254,5.359c0,2.104,0.751,3.907,2.254,5.41c1.296,1.296,2.817,2.031,4.562,2.208
	c-0.212,3.121-0.22,6.419-0.004,9.912c0.177,2.832,0.466,5.146,0.862,6.966c-1.51,0.602-3.033,1.331-4.568,2.2
	c-9.617,5.51-16.579,13.874-20.887,25.093c-2.003,5.276-3.155,12.522-3.455,21.737c-0.268,8.982,0.334,17.447,1.803,25.395
	c-2.672,1.068-4.574,2.104-5.71,3.105c-1.202,1.035-1.636,2.104-1.302,3.205c0.3,1.002,1.118,1.604,2.453,1.804l4.408-0.2
	c-0.712,2.938-0.641,4.843,0.203,5.723c-2.267,2.591-4.827,5.015-7.717,7.25c-9.041,6.918-19.259,10.667-30.644,11.271
	c-2.319-6.407-6.353-11.757-12.13-16.03c-3.407-2.519-7.341-4.59-11.774-6.233c0.699-0.514,1.39-1.035,2.058-1.58
	c8.782-7.112,14.091-16.93,15.928-29.451c0.178-1.167,0.296-2.317,0.387-3.461c6.312-2.956,11.932-7.929,16.843-14.971
	c6.144-8.849,10.168-19.651,12.071-32.406c0.2-1.269,0.5-2.304,0.901-3.105c0.601-1.335,1.536-2.438,2.805-3.306
	c2.604-1.836,6.327-2.755,11.169-2.755l2.354-0.25c0.233-0.2,0.134-0.834-0.3-1.903c-1.103-3.005-3.523-5.009-7.264-6.011
	l8.314-5.96l1.503-1.252c0.134-0.401-0.3-0.768-1.302-1.102c-2.771-1.001-5.895-1.436-9.367-1.302
	c-2.771,0.134-5.142,0.551-7.111,1.252c0.199-2.17-0.184-4.291-1.152-6.361c-0.902-2.037-2.188-3.706-3.857-5.008l-0.801-0.05
	c-0.133,0.2-0.301,0.751-0.501,1.653c-1.169,5.71-2.905,9.917-5.209,12.622c-2.07,2.471-4.657,3.79-7.763,3.957
	c-7.881,0.434-14.709,1.503-20.486,3.206c-10.257,3.03-18.635,8.089-25.139,15.171c-6.301-2.485-13.265-4.136-20.891-4.953
	c-4.453-0.479-8.74-0.605-12.869-0.397c-2.823-7.214-7.861-13.445-15.13-18.686c-4.107-2.938-10.301-6.177-18.582-9.717
	l-2.955-1.302c-1.837-0.835-3.172-3.022-4.007-6.562c-0.801-3.473-0.918-7.279-0.351-11.419c0.167-1.169,0.101-1.903-0.2-2.204
	c-0.3-0.3-0.868-0.234-1.703,0.201c-1.235,0.701-2.387,1.669-3.456,2.905c-1.102,1.302-1.954,2.755-2.555,4.357
	c-4.675-4.575-9.333-6.495-13.974-5.76C3.156,2.039,2.855,2.307,3.056,2.707l0.551,0.601c2.438,2.17,4.04,5.209,4.808,9.116
	c-1.502-0.133-2.938,0.083-4.307,0.651c-1.503,0.634-2.722,1.603-3.656,2.905C0.083,16.514-0.066,16.848,0,16.982l1.152,0.2
	c2.003,0.033,4.057,0.568,6.161,1.603c2.003,0.968,3.589,2.153,4.758,3.556c0.935,1.102,1.302,2.07,1.102,2.905
	c-1.903,11.553-2.12,22.021-0.651,31.404c1.237,7.938,3.641,14.84,7.186,20.729c-2.616,5.038-4.232,10.63-4.832,16.786
	c-1.369,13.723,3.172,25.877,13.624,36.463c7.681,7.802,17.084,13.218,28.194,16.272c-0.2,0.435-0.409,0.863-0.596,1.308
	c-2.003,4.741-3.022,9.566-3.055,14.475c-0.033,5.978,1.736,12.789,5.309,20.436c3.773,8.047,7.497,12.138,11.169,12.271
	c3.039,0.167,6.01-2.672,8.916-8.515l0.487-0.081c0.173,0.076,0.337,0.154,0.515,0.23c4.167,1.765,8.688,3.034,13.559,3.819
	c0.197,0.046,0.384,0.083,0.577,0.126c0.557,0.749,1.073,1.379,1.542,1.865c1.569,1.536,3.089,2.221,4.558,2.054
	c0.524-0.044,1.032-0.209,1.529-0.457c2.436,3.42,4.732,5.163,6.886,5.216c2.805,0.066,5.56-2.789,8.264-8.565
	c0.258-0.552,0.501-1.092,0.733-1.625c2.525-1.048,4.918-2.409,7.181-4.085c1.235,3.105,2.755,5.627,4.558,7.563
	c1.669,1.803,3.222,2.704,4.658,2.704c2.805,0,5.075-2.104,6.812-6.311c1.637-3.94,2.471-8.781,2.504-14.525
	c0.026-3.464-0.29-6.717-0.934-9.769c13.406-0.382,24.643-4.513,33.691-12.419c4.744-4.159,8.379-8.69,10.922-13.59
	c0.314-0.267,0.63-0.538,0.948-0.836c0.601,2.204,1.319,3.891,2.153,5.059c0.868,1.236,1.803,1.82,2.805,1.754
	c1.236-0.101,2.287-1.136,3.156-3.105c0.768-1.736,1.252-3.757,1.452-6.061c7.346-3.239,14.524-8.865,21.537-16.88
	c6.411-7.278,10.902-14.341,13.474-21.187c3.238-8.615,4.291-17.029,3.155-25.244c-0.329-2.33-0.821-4.474-1.468-6.444
	c2.623-0.839,4.935-1.746,6.928-2.722c2.538-1.27,4.831-2.827,6.904-4.643c1.366,1.089,2.954,1.638,4.766,1.638
	c2.104,0,3.906-0.735,5.409-2.204c1.47-1.502,2.204-3.306,2.204-5.409S259.166,48.837,257.696,47.334z"/>
</svg>
