<?xml version="1.0" encoding="utf-8"?>
<!-- Generator: Adobe Illustrator 16.0.0, SVG Export Plug-In . SVG Version: 6.00 Build 0)  -->
<!DOCTYPE svg PUBLIC "-//W3C//DTD SVG 1.1//EN" "http://www.w3.org/Graphics/SVG/1.1/DTD/svg11.dtd">
<svg version="1.1" id="图层_1" xmlns="http://www.w3.org/2000/svg" xmlns:xlink="http://www.w3.org/1999/xlink" x="0px" y="0px"
	 width="281px" height="298px" viewBox="0 0 281 298" enable-background="new 0 0 281 298" xml:space="preserve">
<path d="M276.695,34.742c-2.77-0.667-6.859-1.418-12.268-2.253l-6.996-1.073l6.396-16.752c2.736-7.21,3.955-11.433,3.654-12.668
	c-0.2-0.768-1.451-0.5-3.756,0.801c-1.969,1.102-4.406,2.787-7.31,5.057c-3.549,2.702-9.4,6.492-17.521,11.353L231.932,5.4
	c-2.938-5.908-4.557-6.91-4.856-3.004l-1.302,14.521l-1.086,10.347c-12.388,6.643-23.848,11.866-34.365,15.64
	c-13.92,4.94-25.553,7.11-34.899,6.509c-8.011-0.534-17.375-2.637-28.09-6.309C118.241,40,108.57,35.905,98.336,30.847l-3.6-11.476
	C92.333,11.76,90.731,7.17,89.93,5.601c-0.968-1.802-1.919-2.653-2.854-2.553c-0.868,0.1-1.519,0.951-1.953,2.553
	c-0.367,1.369-0.801,4.791-1.302,10.265c-0.285,3.049-0.481,5.401-0.593,7.076c-6.956-3.867-13.556-7.826-19.786-11.883
	c-2.537-1.636-4.323-2.57-5.358-2.804c-1.803-0.4-2.103,0.935-0.901,4.006c2.182,5.455,5.76,12.798,10.725,22.018l-8.221-0.387
	c-5.107-0.2-8.412-0.25-9.915-0.15c-1.535,0.1-2.053,0.551-1.552,1.352c0.4,0.601,1.318,1.352,2.754,2.253
	c3.905,2.47,8.979,5.224,15.222,8.262l9.716,4.744l1.299,3.267l2.053,5.308c7.01,18.994,12.518,32.212,16.523,39.656
	c0.783,1.465,1.581,2.874,2.392,4.235c-3.514,3.762-8.077,8.521-13.708,14.291c-1.402,1.603-1.803,2.688-1.202,3.255
	c0.467,0.4,2.02,0.718,4.657,0.951l5.608,0.2l10.965,0.701c4.44,0.567,7.678,1.636,9.714,3.205l1.981,1.585
	c-2.986,1.921-5.669,4.193-8.04,6.827c-3.004,3.338-5.124,6.726-6.359,10.165c-1.138,3.069-1.989,6.049-2.593,8.952
	c-1.829-0.296-3.573-0.302-5.24-0.045c-0.452-1.965-1.511-3.583-3.183-4.852c-1.936-1.469-4.106-2.053-6.509-1.752
	c-2.404,0.3-4.34,1.402-5.809,3.304c-1.502,1.902-2.103,4.057-1.802,6.459c0.3,2.371,1.418,4.307,3.354,5.809
	c1.358,1.048,2.854,1.629,4.484,1.76c-1.098,0.222-2.218,0.438-3.382,0.645c-6.442,1.102-11.132,2.219-14.07,3.354
	c-3.354,1.25-6.229,2.939-8.647,5.053c-3.264-0.134-6.507-0.558-9.729-1.297c-6.075-1.402-11.249-3.756-15.522-7.061
	c-7.744-6.008-12.818-14.654-15.222-25.937c-2.358-11.006-1.607-21.723,2.239-32.151c3.751,0.195,7.265-0.605,10.529-2.448
	c4.907-2.804,8.179-7.327,9.814-13.569c1.001-3.739,1.319-7.911,0.952-12.518c-0.401-4.707-1.436-9.096-3.104-13.169
	c-0.234-0.567-0.567-0.935-1.001-1.102c-0.367-0.133-0.751-0.05-1.151,0.25l-2.153,1.803l-2.554,2.503
	c-1.068-6.176-2.503-9.397-4.306-9.664c-1.369-0.233-4.439,2.153-9.213,7.161l-1.252-3.205l-0.951-1.752
	c-0.701-1.168-1.886-0.984-3.555,0.551c-3.071,2.771-5.625,5.858-7.661,9.263c-1.869,3.104-3.154,6.209-3.855,9.313
	c-1.335,5.875-0.834,11.116,1.502,15.722c2.212,4.334,5.692,7.4,10.42,9.219c-2.507,6.427-3.87,14.043-4.061,22.877
	c-0.233,11.116,1.652,20.98,5.658,29.592c3.138,6.709,7.961,12.484,14.471,17.324c6.001,4.471,13.054,7.847,21.134,10.154
	c-1.296,2.61-2.252,5.201-2.858,7.771c-1.202,5.207-1.619,13.202-1.252,23.984c0.267,8.479-0.784,16.439-3.154,23.884
	c-1.903,5.809-2.537,13.319-1.903,22.532c0.534,7.878,1.569,13.553,3.104,17.024c1.269,2.971,3.271,4.64,6.008,5.007
	c1.302,0.2,2.37-0.15,3.205-1.051c0.835-0.869,1.536-2.387,2.103-4.557l0.952-3.705c1.769-7.244,3.054-12.051,3.855-14.421
	c2.069-6.009,4.606-10.499,7.611-13.47c2.169-2.17,4.239-5.19,6.208-9.063c2.07-4.072,4.54-10.064,7.411-17.976l1.437,0.628
	c1.201,3.502,2.44,8.178,3.721,14.043c1.202,5.675,2.22,11.266,3.055,16.773l0.851,5.608c0.834,5.107,2.27,9.431,4.306,12.968
	c2.203,3.873,4.64,5.809,7.311,5.809c0.367,0,0.734-0.233,1.102-0.701c0.467-0.566,0.768-1.335,0.901-2.303l0.174-1.97
	c0.463,2.298,0.997,4.679,1.628,7.177c1.068,4.24,2.521,7.729,4.356,10.465c1.636,2.438,3.321,3.906,5.057,4.406l3.205,0.501
	c0.567-0.067,1.118-0.367,1.652-0.901c0.768-0.801,1.385-3.104,1.853-6.91l1.402-13.118c0.868-9.38,1.652-16.156,2.354-20.329
	c0.534-3.371,2.086-8.746,4.657-16.123l3.755-10.414l3.205-0.701l2.253-0.701l1.603,10.465l1.202,7.511
	c0.467,2.403,1.201,5.124,2.203,8.161c1.502,4.674,3.438,9.697,5.809,15.072c1.735,3.905,3.354,7.243,4.856,10.014
	c1.034,1.97,2.47,3.488,4.306,4.557c1.736,0.968,3.238,1.252,4.507,0.852c1.903-0.602,2.638-2.738,2.203-6.41
	c-0.935-7.811-1.202-15.07-0.801-21.78c0.267-4.773,0.951-10.048,2.053-15.823l2.153-10.014l2.604-14.57
	c0.845-5.398,1.372-10.247,1.59-14.556c3.256-1.316,6.646-3.407,10.177-6.324c1.961-1.619,3.691-3.333,5.197-5.138
	c0.052,0.046,0.104,0.097,0.155,0.144c-0.673,0.694-1.256,1.507-1.748,2.44c-1.268,2.437-1.518,4.974-0.75,7.611
	c0.801,2.67,2.387,4.656,4.756,5.958c2.404,1.302,4.874,1.569,7.411,0.801c2.671-0.801,4.657-2.437,5.958-4.907
	c1.27-2.47,1.52-5.023,0.752-7.66c-0.768-2.671-2.354-4.657-4.758-5.959c-2.336-1.302-4.789-1.568-7.359-0.801
	c-1.103,0.316-2.084,0.793-2.959,1.411l-0.434-0.325c3.727-4.925,5.844-10.51,6.346-16.758c0.298-3.891,0.136-7.608-0.438-11.173
	l1.076-0.183c0.309,1.424,0.977,2.724,2.017,3.895c1.636,1.803,3.672,2.771,6.109,2.904c2.436,0.133,4.556-0.618,6.358-2.254
	c1.803-1.602,2.771-3.605,2.904-6.008c0.167-2.371-0.567-4.474-2.203-6.31c-1.702-1.803-3.739-2.754-6.108-2.854
	c-2.438-0.133-4.557,0.601-6.359,2.203s-2.771,3.605-2.904,6.009c-0.013,0.225-0.01,0.444-0.007,0.664l-1.193,0.168
	c-0.771-3.769-2.031-7.354-3.808-10.747c-2.695-5.101-6.35-9.484-10.943-13.162c1.995-0.868,3.415-1.376,4.234-1.509
	c3.205-0.534,12.385,0.201,27.539,2.203l6.609,0.25c0.334-0.367-0.518-1.986-2.553-4.857c-1.797-2.483-4.024-6.455-6.678-11.889
	c5.389-5.164,10.985-12.324,16.791-21.508c7.025-11.1,14.16-24.813,21.401-41.123c2.741-1.274,6.953-3.337,12.647-6.194
	c8.746-4.406,13.887-7.093,15.422-8.062c2.27-1.435,3.389-2.437,3.355-3.004C279.583,35.677,278.599,35.209,276.695,34.742z
	 M92.383,160.271c1.235-1.601,1.837-3.369,1.82-5.301l4.674-0.297c-0.3,1.731-0.521,3.438-0.627,5.109
	c-2.417,0.942-5.161,1.802-8.211,2.584C90.914,161.833,91.698,161.14,92.383,160.271z"/>
</svg>
