<?xml version="1.0" encoding="utf-8"?>
<!-- Generator: Adobe Illustrator 16.0.0, SVG Export Plug-In . SVG Version: 6.00 Build 0)  -->
<!DOCTYPE svg PUBLIC "-//W3C//DTD SVG 1.1//EN" "http://www.w3.org/Graphics/SVG/1.1/DTD/svg11.dtd">
<svg version="1.1" id="图层_1" xmlns="http://www.w3.org/2000/svg" xmlns:xlink="http://www.w3.org/1999/xlink" x="0px" y="0px"
	 width="157px" height="184px" viewBox="0 0 157 184" enable-background="new 0 0 157 184" xml:space="preserve">
<path d="M156.801,111.594c-0.565-9.074-3.474-16.17-8.726-21.289c-1.596-1.563-3.743-3.224-6.424-4.979
	c0.279-0.284,0.555-0.562,0.84-0.854c1.063-1.095,2.673-5.615,4.827-13.54c1.761-2.136,2.736-3.531,2.9-4.16
	c0.233-0.864,0.066-4.67-0.498-11.417l-0.149-1.197l-0.149-0.349c-0.545-0.635-1.062-1.227-1.562-1.792
	c-0.115-0.454-0.229-0.909-0.366-1.356c0.839-8.415,1.152-16.261,0.93-23.525c-0.232-6.914-0.963-13.744-2.193-20.491
	c-0.166-1.03-0.498-1.678-0.997-1.944c-0.466-0.266-0.947,0.017-1.446,0.848l-11.616,19.793l-3.19-4.188
	c-1.695-2.161-2.726-3.225-3.092-3.191c-0.365,0.033-0.863,1.711-1.496,5.035l-0.625,3.678c-6.438-2.818-12.661-4.66-18.669-5.522
	c-5.352-0.765-12.63,0.731-21.837,4.487c-7.413,3.025-12.564,5.734-15.456,8.127c-1.901,1.608-3.287,3.217-4.159,4.826
	c-1.566-3.599-3.483-7.925-5.763-13.003C50.505,9.104,46.051,0.762,44.522,0.562c-0.399-0.033-0.731,0.1-0.998,0.399
	c-0.631,0.864-1.03,6.515-1.196,16.951l-0.1,23.034c-4.653-3.024-7.927-5.052-9.822-6.083c-1.429-0.765-2.276-1.047-2.542-0.848
	c-0.399,0.233-0.532,0.582-0.399,1.047l7.778,18.348c5.384,12.032,8.792,18.048,10.221,18.048c0.997,0,3.606-0.615,7.828-1.845
	l1.93-0.644c0.141,3.787,1.011,7.029,2.615,9.723l-17.06-4.742l-4.039-7.379c-0.465-0.931-0.848-1.28-1.146-1.047
	c-0.167,0.133-0.399,0.731-0.698,1.795c-0.399,1.662-0.631,3.589-0.698,5.783l-5.285-1.845c-2.659-0.897-4.138-1.263-4.437-1.097
	c-0.299,0.133,0.166,1.23,1.396,3.291l2.592,4.138l-4.687,0.947c-2.327,0.499-3.59,0.864-3.789,1.097
	c-0.199,0.233,0.598,1.097,2.393,2.593l3.34,2.643c-0.931,2.825-2.443,6.581-4.537,11.268c-2.227,5.052-3.823,8.143-4.787,9.273
	c-1.961,2.359-4.62,5.151-7.977,8.375l-8.176,7.279c-1.529,1.264-2.26,2.094-2.194,2.493c0.066,0.466,1.08,0.731,3.041,0.798
	l4.288,0.05l-2.792,3.988c-1.064,1.695-1.463,2.609-1.197,2.742c0.333,0.167,5.401-0.814,15.207-2.941l-2.044,5.933
	c-0.565,1.529,0.05,1.895,1.845,1.098c2.393-1.131,4.77-2.56,7.13-4.288c3.988-2.958,6.647-5.95,7.977-8.975
	c2.726-6.913,5.601-13.511,8.625-19.793c3.424-7.146,5.717-11.068,6.88-11.767c1.496-0.897,4.753-0.93,9.772-0.1
	c3.557,0.599,7.412,1.513,11.567,2.742c-0.55,0.766-1.082,1.505-1.612,2.241l-3.573-0.596c-0.631-0.1-1.08,0.05-1.346,0.448
	l-4.238,4.836l-4.388,5.136c-0.129,0.324,0.026,2.997,0.462,8.006c-3.09,4.086-5.329,6.896-6.694,8.397
	c-4.919,5.551-8.376,9.605-10.37,12.165c-3.789,4.952-6.083,8.958-6.88,12.016c-0.366,1.362-0.133,2.626,0.698,3.789l3.989,5.284
	c2.161,2.959,3.224,4.604,3.191,4.937l-2.593,3.44l-4.985,6.182c-0.831,1.098-1.18,1.895-1.047,2.394
	c0.133,0.599,0.931,0.847,2.394,0.747l2.094-0.148l0.05,3.738c0.033,1.729,0.183,2.709,0.449,2.941
	c0.266,0.233,1.562-0.266,3.889-1.495l4.637-2.493l0.25,2.643l0.149,3.291c0.066,1.362,0.266,2.127,0.599,2.293
	c0.365,0.166,1.13-0.299,2.293-1.396c2.427-2.293,5.235-5.417,8.426-9.373c4.288-5.384,6.166-8.874,5.634-10.469l-3.939-8.576
	c-2.193-4.653-3.191-7.129-2.991-7.429c1.163-1.528,4.288-3.806,9.373-6.83c5.883-3.457,9.988-4.804,12.315-4.038
	c2.592,0.863,5.683,2.409,9.273,4.637c3.225,1.994,5.119,3.39,5.684,4.188l-3.639,6.631l-3.889,7.279l-0.5,1.895
	c-0.033,0.398,0.034,0.831,0.2,1.297c0.133,0.432,1.495,2.393,4.089,5.883l6.88,8.924c1.263,1.496,2.177,2.178,2.741,2.045
	c0.499-0.133,0.947-1.064,1.347-2.793l0.897-3.19l4.637,1.845c2.426,0.964,3.723,1.313,3.889,1.047l0.798-3.191l0.748-3.489
	l5.783-0.2c0.931,0,1.081-0.498,0.448-1.495c-0.83-1.429-2.409-3.407-4.736-5.933l-4.985-4.887c1.662-1.861,3.257-3.905,4.786-6.132
	c1.895-2.792,2.842-4.687,2.842-5.684c0-1.163-2.676-5.252-8.026-12.265l-8.276-10.67c0-0.731,0.831-3.291,2.492-7.678l4.777-12.395
	c5.942,1.383,10.253,1.927,12.922,1.625c2.697-0.279,6.082-1.886,10.143-4.794c1.675,2.316,3.282,4.903,4.814,7.786
	c1.896,3.656,3.424,7.361,4.588,11.117c0.664,2.061,1.296,3.125,1.895,3.191c0.564,0.066,1.213-0.881,1.944-2.842l1.246-3.141
	l2.742,3.838c1.229,1.629,2.027,2.427,2.394,2.394c0.365-0.033,0.863-1.362,1.495-3.988l1.147-5.484l3.789,2.842
	c1.229,0.964,2.044,1.329,2.442,1.097C156.768,114.17,156.9,113.223,156.801,111.594z"/>
</svg>
