<?xml version="1.0" encoding="utf-8"?>
<!-- Generator: Adobe Illustrator 16.0.0, SVG Export Plug-In . SVG Version: 6.00 Build 0)  -->
<!DOCTYPE svg PUBLIC "-//W3C//DTD SVG 1.1//EN" "http://www.w3.org/Graphics/SVG/1.1/DTD/svg11.dtd">
<svg version="1.1" id="图层_1" xmlns="http://www.w3.org/2000/svg" xmlns:xlink="http://www.w3.org/1999/xlink" x="0px" y="0px"
	 width="242px" height="193px" viewBox="0 0 242 193" enable-background="new 0 0 242 193" xml:space="preserve">
<path d="M236.801,163.161c-2.699-2.966-6.165-5.833-10.397-8.599c-10.931-7.165-20.813-28.744-29.644-64.736
	c-10.198-41.492-26.078-68.869-47.641-82.133c-9.865-6.065-21.279-8.515-34.243-7.348c-10.465,0.933-19.33,3.666-26.595,8.198
	c-8.498,3.066-15.18,8.481-20.046,16.247c-2.322,3.696-4.241,8.183-5.76,13.451l-5.137,0.246c-4.184,0.848-7.827,2.481-10.931,4.896
	c-5.03,2.38-11.031,6.525-18.013,12.451C16.53,65.897,7.315,77.345,0.75,90.176c-0.467,0.9-0.717,1.566-0.75,2l0.2,0.899
	c1.266,2.966,2.816,5.699,4.649,8.198c2.566,3.5,5.199,5.766,7.898,6.799l2,0.3c0.3-0.134,0.566-0.517,0.8-1.149
	C22.412,88.76,26.911,77.295,29.044,72.83c2.845-5.949,5.767-10.854,8.766-14.739c-1.503,4.213-2.268,8.492-2.268,12.84
	c0,7.532,2.183,13.98,6.549,19.346c3.796,4.616,8.53,7.609,14.18,9.014c-2.371,0.99-4.958,2.372-7.782,4.183
	c-4.065,2.6-8.181,5.799-12.347,9.599c-3.5,3.199-7.532,5.782-12.098,7.749l-12.847,4.448c-3.299,1.267-5.432,2-6.399,2.2
	c-0.766,0.166-1.166,0.35-1.2,0.549c-0.033,0.234,0.3,0.551,1,0.95c2,1.3,3.849,2.233,5.549,2.8c-4.132,2.6-6.032,4.1-5.699,4.499
	c0.3,0.333,4.749,1.249,13.347,2.749c0.333,2.434,0.5,4.832,0.5,7.199c0,1.1,0.183,1.615,0.55,1.549l1.899-1.549
	c13.064-12.598,21.179-20.58,24.345-23.945l5.249-5.449c2.033-2.1,3.782-3.648,5.249-4.648c-1.066,3.166-2.149,5.766-3.249,7.798
	c-1.9,3.499-4.833,7.632-8.798,12.397c-13.164,15.963-20.979,28.277-23.445,36.942c-0.366,1.267-0.483,2.116-0.35,2.55l1.649,1.85
	c3.833,3.433,8.249,5.898,13.248,7.398c0.336,0.101,0.693,0.18,1.037,0.272c-0.792,0.979-1.108,1.971-0.937,2.977l0.05,0.3
	l0.899-0.15c1.2-0.533,2.25-0.732,3.149-0.6c0.467,0.066,0.783,0.268,0.95,0.6c0.167,0.434-0.083,0.834-0.75,1.2l-1.55,0.649
	c-0.533,0.101-0.733,0.268-0.6,0.5c0.066,0.101,0.183,0.201,0.35,0.301c1.267,0.6,2.799,0.982,4.599,1.149l5.799-0.3
	c2.233-0.4,4.266-1.1,6.099-2.1c1.733-0.967,3-2.033,3.799-3.199c0.011-0.015,0.016-0.029,0.026-0.043
	c0.41-0.038,0.808-0.063,1.224-0.107l0.3,1.8l0.3,1l1.25,0.45c3.499,0.732,7.348,1.183,11.547,1.35
	c1.994,0.086,3.93,0.091,5.82,0.032c0.856,0.736,1.997,1.427,3.428,2.067c1.966,0.899,4.083,1.549,6.349,1.949l6.549,0.2
	c2.033-0.2,3.433-0.5,4.199-0.899c0.633-0.334,1-0.601,1.1-0.801c0.1-0.166-0.05-0.316-0.45-0.449c-0.7-0.2-1.333-0.467-1.9-0.801
	c-0.767-0.5-0.75-0.883,0.05-1.149l2.149-0.05c0.8,0.133,1.316,0.316,1.55,0.55l0.7,0.2c0.2-0.133,0.283-0.434,0.25-0.9
	c-0.171-1.603-0.937-2.973-2.288-4.113c1.617-0.5,2.894-0.931,3.787-1.285c2.233-0.934,5.432-2.732,9.598-5.398
	c0.867-0.566,1.316-1.15,1.35-1.75c0.033-0.733-0.417-2.266-1.35-4.6c-1.7-4.266-4.349-9.381-7.948-15.346
	c-5.565-9.232-12.248-18.38-20.046-27.445c-2.566-2.966-4.433-6.132-5.599-9.498c-0.667-1.832-1.183-4.099-1.549-6.799
	c2.999,1.801,5.965,4.566,8.898,8.299c2,2.533,4.349,6.082,7.048,10.648c6.099,10.23,13.598,17.945,22.496,23.145l1.3,0.6l0.1-1.549
	c-0.133-1.867-0.617-4.666-1.45-8.398l8.298,1.25l2.127,0.162c1.211,2.154,2.468,4.283,3.772,6.386
	c8.197,13.197,21.245,23.362,39.142,30.494c14.964,5.933,28.911,8.448,41.841,7.548c5.133-0.333,9.732-1.199,13.797-2.6
	c4.9-1.699,8.6-4.065,11.099-7.098l3.449-2.6c1.066-1.133,1.666-2.517,1.8-4.149v-0.05
	C241.65,170.026,240.033,166.76,236.801,163.161z M74.285,35.737c0.6-1.899,1.566-3.666,2.899-5.299
	c2.033-2.5,4.366-4.583,6.999-6.249c2.633-1.633,4.999-2.5,7.099-2.599h0.1l0.1-0.05c1.966-0.466,3.566-0.216,4.799,0.75
	c2.399,1.766,4.132,5.965,5.199,12.597c0.6,3.799,1.117,10.032,1.55,18.696l0.349,7.08c-7.55-7.3-14.521-12.554-20.904-15.739
	c-1.766-1.604-3.659-2.923-5.689-3.938c-0.933-0.466-1.949-0.869-3.004-1.243C73.667,38.567,73.823,37.239,74.285,35.737z
	 M75.313,96.773c3.703-1.869,6.801-4.392,9.269-7.597c3.799-4.966,5.699-11.048,5.699-18.246c0-1.575-0.137-3.236-0.395-4.972
	c8.12,12.584,14.463,26.347,18.991,41.314c0.233,0.733,0.633,0.966,1.2,0.7c0.331-0.151,0.67-0.322,1.015-0.507
	c1.574,5.453,3.386,10.771,5.424,15.962c-3.548-2.457-6.521-4.418-8.888-5.857c-2.7-1.666-5.282-3.683-7.749-6.049
	c-4.666-4.499-8.748-7.715-12.248-9.648c-3.472-1.946-7.883-3.479-13.218-4.604C74.715,97.11,75.016,96.946,75.313,96.773z"/>
</svg>
