<?xml version="1.0" encoding="utf-8"?>
<!-- Generator: Adobe Illustrator 16.0.0, SVG Export Plug-In . SVG Version: 6.00 Build 0)  -->
<!DOCTYPE svg PUBLIC "-//W3C//DTD SVG 1.1//EN" "http://www.w3.org/Graphics/SVG/1.1/DTD/svg11.dtd">
<svg version="1.1" id="图层_1" xmlns="http://www.w3.org/2000/svg" xmlns:xlink="http://www.w3.org/1999/xlink" x="0px" y="0px"
	 width="149px" height="162px" viewBox="0 0 149 162" enable-background="new 0 0 149 162" xml:space="preserve">
<path d="M146.73,49.658l-0.1-0.351l-0.25-0.2c-0.191-0.138-0.372-0.298-0.555-0.453c-0.952-7.567-2.648-13.71-5.073-18.457
	c0.038-0.228,0.069-0.458,0.115-0.682l0.101-0.351l-0.201-0.3c-4.375-9.02-10.338-16.235-17.889-21.647
	C116.332,2.506,110.202,0.101,104.49,0c-6.214-0.066-12.628,1.704-19.242,5.312c-6.414,3.508-12.327,8.335-17.738,14.481
	c-5.512,6.347-9.838,13.379-12.978,21.096c-2.943,7.228-4.601,14.493-4.977,21.796c-1.351,0.188-2.484,0.421-3.391,0.703
	l-2.054-4.86l-5.412-13.379c-1.57-3.641-2.823-5.696-3.758-6.164c-2.305-1.136-4.827-1.604-7.566-1.403
	c-2.639,0.2-5.161,0.969-7.566,2.305c-1.236,0.702-2.321,1.737-3.257,3.107c-0.902,1.336-1.353,2.522-1.353,3.558
	c0,1.971,0.267,5.712,0.802,11.224c0.568,5.879,1.152,10.757,1.754,14.632c-5.412,5.278-9.37,10.355-11.875,15.233
	c-2.873,5.546-4.31,11.558-4.31,18.039c0,0.735,0.551,1.971,1.654,3.708c0.969,1.537,1.737,2.539,2.305,3.006
	c0.089,0.072,0.189,0.143,0.283,0.214c0.241,1.147,0.573,2.326,1.02,3.545c0.347,0.919,0.747,1.815,1.173,2.701
	c-1.832,2.414-3.511,5.659-5.031,9.775C1,134.04,0.014,138.75,0.014,142.759l0.05,1.253c0.201,1.87,0.802,3.072,1.804,3.607
	c2.605,1.47,6.814,0.902,12.627-1.703c4.631-2.073,8.826-4.847,12.595-8.31c0.166,0.089,0.332,0.178,0.499,0.266
	c0.839,1.17,1.686,2.148,2.54,2.882c1.537,1.303,5.529,2.79,11.976,4.46c0.109,0.027,0.206,0.05,0.314,0.077
	c0.063,0.073,0.123,0.15,0.187,0.224c4.276,4.911,7.851,7.165,10.723,6.765c0.55-0.095,1.058-0.354,1.526-0.766
	c2.651,2.591,5.75,4.879,9.347,6.828c4.543,2.373,7.65,3.225,9.32,2.557c2.806-1.069,4.125-5.028,3.958-11.876
	c-0.054-2.306-0.297-4.55-0.69-6.743c1.324-0.522,2.639-1.099,3.941-1.737c4.232,2.747,9.168,4.832,14.838,6.226
	c7.35,1.804,12.277,1.82,14.782,0.05c1.002-0.702,1.453-2.372,1.353-5.011c-0.1-2.605-0.685-5.545-1.754-8.819
	c-0.598-1.862-1.26-3.585-1.975-5.192c4.305-1.723,7.214-3.167,8.689-4.328l0.15-0.15l0.1-0.2c0.067-0.168,0.158-0.324,0.232-0.488
	c2.677-1.261,4.945-2.567,6.783-3.921c1.285-0.918,2.519-1.971,3.709-3.141c0.134-0.005,0.265-0.017,0.4-0.017h0.301l0.25-0.2
	c1.771-1.471,3.842-3.908,6.213-7.316c3.008-4.342,5.529-9.002,7.566-13.98c2.406-5.879,4.059-12.176,4.961-18.89
	C148.435,66.745,148.234,58.243,146.73,49.658z"/>
</svg>
