<?xml version="1.0" encoding="utf-8"?>
<!-- Generator: Adobe Illustrator 16.0.0, SVG Export Plug-In . SVG Version: 6.00 Build 0)  -->
<!DOCTYPE svg PUBLIC "-//W3C//DTD SVG 1.1//EN" "http://www.w3.org/Graphics/SVG/1.1/DTD/svg11.dtd">
<svg version="1.1" id="图层_1" xmlns="http://www.w3.org/2000/svg" xmlns:xlink="http://www.w3.org/1999/xlink" x="0px" y="0px"
	 width="349px" height="263px" viewBox="0 0 349 263" enable-background="new 0 0 349 263" xml:space="preserve">
<path d="M348.05,58.394c-0.267-2.299-1.216-4.732-2.849-7.298c-1.233-1.933-3.332-4.582-6.298-7.948
	c-7.332-8.297-17.079-15.795-29.242-22.493c-12.43-6.832-25.959-12.03-40.589-15.596c-15.629-3.799-31.057-5.332-46.286-4.599
	c-16.695,0.8-32.157,4.315-46.387,10.547c-5.865,2.566-7.131,8.214-3.799,16.945c1.07,2.862,2.385,7.109,3.942,12.733
	c-1.64-1.39-3.519-3.016-5.642-4.885l-14.646-12.696c-5.398-4.366-9.481-6.948-12.247-7.748c-4.732-1.433-12.03,0.767-21.894,6.598
	c-5.532,3.232-8.448,5.615-8.748,7.148c-0.1,0.367-0.15,0.8-0.15,1.3c0,1.133,0.383,3.132,1.149,5.998l2.449,9.697l2.799,12.997
	c0.933,4.898,1.399,8.631,1.399,11.197l-0.05,0.75c-2.966-1.799-9.031-6.332-18.195-13.596l-11.147-8.397
	c-1.266-0.733-3.199-0.7-5.798,0.1c-3.032,0.933-6.265,2.566-9.697,4.898c-3.599,2.433-5.898,4.649-6.898,6.648
	c-0.333,0.633-0.5,1.433-0.5,2.399c0,1.566,0.466,3.833,1.399,6.798l3.649,10.047c3.499,8.831,4.865,14.163,4.099,15.996
	c-0.466,1.1-1.583,2.466-3.349,4.099c-1.433,1.333-2.649,2.283-3.649,2.849c-1.133-0.1-6.865-2.583-17.195-7.448
	c-4.232-2.232-6.715-3.482-7.448-3.749l-2,0.1c-0.4,0.133-1.216,0.5-2.449,1.1c-1.866,0.966-3.699,2.35-5.499,4.149
	s-2.882,3.316-3.249,4.549l-0.1,0.85c0,1.133,0.517,2.916,1.55,5.349c0.766,1.833,2.183,4.798,4.249,8.897l4.749,10.047
	c-0.466,0.767-1.25,1.583-2.349,2.449c-1.066,0.8-1.833,1.2-2.299,1.2c-0.5-0.066-3.166-1.566-7.998-4.499l-4.549-2.699
	c-0.767-0.4-1.649-0.4-2.649,0c-1.366,0.6-2.749,1.966-4.148,4.099c-1.167,1.8-1.966,3.449-2.399,4.949
	c-0.433,1.533,0.5,4.932,2.799,10.197l2.999,6.848c1,2.566,1.433,4.35,1.299,5.349l-1.1,5.099
	c-1.433,6.064-2.283,9.964-2.549,11.696c-0.766,4.832-0.667,8.431,0.3,10.798c0.232,0.552,0.586,0.902,1.047,1.073l-0.547,0.775
	l-1.1,1.3l-6.048,5.099c-2,1.565-4.365,3.083-7.098,4.549l-5.049,2.449C0.65,198.221-0.033,199.02,0,199.854
	c0.033,1.266,1.633,2.916,4.799,4.948c5.802,3.583,12.444,6.616,19.906,9.112c0.065,1.308,0.178,2.078,0.338,2.285
	c0.048,0.072,0.134,0.158,0.24,0.25c0.048,0.197,0.101,0.336,0.16,0.399c0.131,0.132,0.706,0.389,1.708,0.77
	c0.29,0.155,0.599,0.317,0.946,0.492c0.367,1.929,0.749,3.295,1.145,4.087c0.5,1.066,1.083,1.732,1.75,1.999
	c0.479,0.171,1.021,0.329,1.596,0.48c0.027,0.137,0.056,0.261,0.083,0.396c-1.872,1.057-3.665,3.192-5.378,6.421
	c-1.933,3.6-3.016,6.381-3.249,8.348c-0.066,0.732,0,1.184,0.2,1.35l1.699,0.3c4.676,0,8.502-0.672,11.482-2.014
	c2.008,1.316,4.862,2.254,8.584,2.801c1.878,2.956,3.307,4.886,4.276,5.761l1.6,1.2c0.433,0.1,1.066-0.134,1.899-0.7l4.599-2.999
	c1.855-1.273,3.08-2.326,3.693-3.163c5.027-0.489,9.287-1.186,12.771-2.09c0.947,0.653,3.098,1.685,6.479,3.104
	c3.532,1.5,5.632,2.299,6.298,2.399l1.1,0.2c0.2-0.133,0.333-0.767,0.4-1.899c0.133-3.333-0.333-7.198-1.4-11.597
	c-0.642-2.681-1.35-4.741-2.12-6.224l0.256-1.699c0.725-0.15,1.325-0.308,1.765-0.476c0.385-0.138,0.738-0.379,1.073-0.683
	l5.991,0.071c0.35,0.516,0.771,0.885,1.284,1.063c0.964,0.326,1.968,0.629,2.99,0.92c0.129,0.689,0.275,1.405,0.438,2.148
	c-1.013,1.174-1.962,2.487-2.829,3.979c-1.866,3.166-3.066,6.531-3.599,10.098c-0.167,1.033-0.216,1.616-0.15,1.75
	c0.167,0.332,0.75,0.416,1.75,0.249l8.348-1.35c3.773-0.749,6.151-1.498,7.176-2.247c2.721,1.047,5.244,1.832,7.57,2.358
	c-0.23,1.565,0.119,3.576,1.05,6.037c0.733,1.966,1.517,3.516,2.35,4.649c0.733,0.999,1.299,1.599,1.699,1.799
	c0.6,0.267,1.366,0.083,2.299-0.55c3.399-2.333,5.632-3.933,6.698-4.799c2.627-2.071,4.253-3.719,4.889-4.947
	c6.562,0.14,12.197-0.533,16.923-2.006c1.181,0.794,3.489,1.775,6.979,2.954c4.398,1.467,7.698,2.366,9.897,2.699
	c1.633,0.268,2.649,0.268,3.049,0c0.5-0.3,0.683-1.199,0.55-2.699c-0.4-4.766-1.417-8.78-3.049-12.047
	c-1.3-2.599-3.316-5.215-6.048-7.848c-0.112-0.108-0.243-0.183-0.363-0.274c0.817-0.276,1.544-0.567,2.163-0.874
	c1.199-0.601,2.183-2.033,2.949-4.299c0.495-1.391,0.841-2.922,1.052-4.578c9.191-1.931,15.96-3.721,20.292-5.369
	c4.398-1.666,6.965-3.449,7.698-5.35c0.047-0.104,0.023-0.246-0.031-0.404c3.521-1.018,6.833-2.046,9.918-3.085
	c-0.072,1.159,0.011,2.452,0.261,3.89c0.399,2.433,0.999,4.349,1.799,5.748c0.517,0.854,1.654,1.576,3.384,2.172l0.016,0.628
	c0.133,2.499,1.399,4.515,3.799,6.048c2.917,1.883,7.703,3.256,14.312,4.134c-0.875,2.299-1.517,4.603-1.915,6.913
	c-0.2,1.233-0.2,2.016,0,2.35l1.899,0.15c3.232-0.834,5.881-1.834,7.947-3l4.1-2.398c1.397-0.998,2.265-1.996,2.612-2.994
	c7.424,0.077,13.489-0.648,18.198-2.173c0.354,0.271,0.766,0.529,1.283,0.768l3.199,1.149c3.665,1.166,7.93,1.916,12.795,2.25
	l1.45-0.051l-0.05-1.648c-0.72-3.516-2.117-6.772-4.185-9.774l1.485-0.273l1.549-0.35l1.101-0.5c0.1-0.167-0.05-0.634-0.45-1.399
	c-1-1.766-2.266-3.466-3.799-5.099c-1.42-1.515-2.824-2.721-4.215-3.637c0.931-1.746,1.524-4.042,1.766-6.91
	c0.367-4.266-0.184-7.897-1.649-10.897c-0.866-1.699-2.05-2.982-3.55-3.849c-1.214-0.718-2.452-1.023-3.713-0.964l-0.456-3.436
	c0.633-0.386,1.146-0.753,1.521-1.099c1.199-1.101,1.766-3.532,1.699-7.298c-0.031-1.85-0.346-5.324-0.938-10.385l1.688-1.112
	c2.732,0.433,6.582,0.2,11.547-0.7l12.996-3.049l7.548-1.799c0.925-0.187,1.852-0.563,2.781-1.094l3.267,0.894
	c4.732,1.199,7.531,1.649,8.397,1.35c0.9-0.267,1.5-0.967,1.8-2.1l0.3-2.3l-0.2-1.149l-1.199-1.449
	c-0.65-0.751-2.167-1.962-4.547-3.634c2.348-3.673,3.936-7.097,4.767-10.271c0.063-0.22,0.123-0.449,0.181-0.691
	c0.399-1.565,0.633-3.315,0.699-5.248c0.033-1.966-0.133-3.666-0.5-5.098c-0.199-0.867-0.483-1.3-0.85-1.3s-0.767,0.433-1.199,1.3
	c-0.286,0.589-1.065,1.731-2.329,3.417c-2.115-2.978-4.985-6.282-8.618-9.916c-0.807-0.814-1.592-1.586-2.359-2.324
	c12.326-7.13,23.063-16.782,32.201-28.967C344.718,73.023,348.65,64.392,348.05,58.394z M26.39,238.396
	c0.05-0.211,0.124-0.451,0.219-0.719C26.534,237.916,26.461,238.156,26.39,238.396z M319.114,30.306
	c-1-0.643-2.031-1.293-3.104-1.954c-6.103-3.732-12.443-7.083-19.006-10.073c2.848,1.218,5.641,2.501,8.358,3.875
	C310.39,24.708,314.969,27.427,319.114,30.306z"/>
</svg>
