<?xml version="1.0" encoding="utf-8"?>
<!-- Generator: Adobe Illustrator 16.0.0, SVG Export Plug-In . SVG Version: 6.00 Build 0)  -->
<!DOCTYPE svg PUBLIC "-//W3C//DTD SVG 1.1//EN" "http://www.w3.org/Graphics/SVG/1.1/DTD/svg11.dtd">
<svg version="1.1" id="图层_1" xmlns="http://www.w3.org/2000/svg" xmlns:xlink="http://www.w3.org/1999/xlink" x="0px" y="0px"
	 width="511px" height="487px" viewBox="0 0 511 487" enable-background="new 0 0 511 487" xml:space="preserve">
<path d="M508.982,421.754c-1.067-3.803-3.152-8.173-6.255-13.109c-7.243-11.521-16.096-20.715-26.546-27.595
	c-0.935-1.914-2.073-3.693-3.426-5.329c-1.867-2.268-7.255-5.32-16.161-9.156c-7.505-3.203-12.909-5.204-16.212-6.004
	c-4.637-1.102-8.423-1.352-11.357-0.752l-6.29,2.18l-5.895-1.816c-1.832-4.275-4.213-8.141-7.18-11.57
	c-4.67-5.438-15.011-10.124-31.022-14.061c-6.338-1.534-12.275-2.618-17.813-3.252c-5.438-0.601-9.057-0.601-10.858,0
	c-2.957,0.973-5.053,1.814-6.297,2.525c-1.92-0.827-3.499-1.544-4.717-2.143c-0.853-1.307-1.767-2.566-2.737-3.783
	c2.842-1.723,5.429-3.785,7.747-6.207c0.724-0.76,1.4-1.535,2.036-2.327l5.319,2.478c4.47,2.002,7.705,3.27,9.707,3.803
	c2.435,0.601,3.469-0.35,3.102-2.852c-0.667-4.27-2.335-9.141-5.003-14.611c-2.054-4.186-4.118-7.57-6.192-10.18
	c-0.389-9.796-4.656-18.43-12.821-25.896c-1.77-1.624-3.603-3.069-5.492-4.357c-2.649-4.926-6.379-10.539-11.22-16.857
	c-0.573-0.746-1.155-1.426-1.74-2.074c-0.002-3.587-1.015-7.214-3.063-10.885c-4.503-7.973-11.691-13.31-21.565-16.012
	c-4.389-1.189-8.619-1.659-12.692-1.414c-0.238-0.232-0.474-0.464-0.724-0.697l0.007-0.291c0-5.104-0.518-9.523-1.552-13.259
	c-0.467-1.735-1.368-4.22-2.702-7.456l-2.301-5.354c-0.168-0.434,2-6.855,6.504-19.264c4.537-12.476,6.705-19.164,6.505-20.064
	c-0.333-1.567-3.386-3.869-9.157-6.905c-6.137-3.236-10.457-4.236-12.959-3.002c-4.069,2.035-12.142,7.789-24.217,17.262
	l-7.789,6.226c-0.489-2.457-1.144-4.288-1.968-5.476c-2.689-3.802-10.829-11.189-24.4-22.15c1.557-4.592,1.371-11.214-0.568-19.88
	c-2.602-11.542-7.805-22.032-15.611-31.473c-4.57-5.571-10.074-10.291-16.512-14.16c-6.806-4.09-14.102-6.863-21.873-8.352
	l-38.571-64c-1.334-2.135-2.251-2.735-2.752-1.801c-0.467,0.868-0.367,2.385,0.3,4.553c0.5,1.668,6.071,16.345,16.712,44.032
	l6.198,16.115c-5.85,0.217-12.238,1.3-19.156,3.239c-18.719-18.917-32.188-32.633-40.38-41.12c-1.868-1.935-3.152-2.685-3.853-2.251
	c-0.734,0.467-0.434,1.851,0.9,4.153c5.075,8.857,12.507,22.601,22.282,41.202L60.01,60.744
	c-28.187-7.338-43.882-11.358-47.084-12.059L4.72,47.084l-4.604,0.2c-0.233,0.634,0.784,1.818,3.052,3.553
	c2.068,1.568,4.954,3.402,8.656,5.504c2.735,1.568,15.311,9.423,37.727,23.567l32.375,20.398c-2.83,7.461-4.294,15.104-4.355,22.933
	c-0.032,2.153,0.353,3.358,1.15,3.629c0,0.007,0,0.016,0.001,0.023l0.021-0.014c0.011,0.003,0.019,0.011,0.03,0.014
	c0.867,0.233,2.468-0.567,4.803-2.402c2.635-2.035,6.104-4.27,10.408-6.705c0.045-0.025,0.082-0.045,0.126-0.07l3.025,7.626
	c0.3,0.734,0.701,1.134,1.201,1.201c0.4,0.034,1.017-0.183,1.851-0.65c1.668-0.9,3.886-1.785,6.655-2.652l2.202,5.704l0.601,1.301
	c0.267,0.1,0.817-0.133,1.651-0.7c0.968-0.667,2.052-1.268,3.252-1.801c1.234-0.567,1.952-0.75,2.152-0.55
	c0.461,0.443,0.866,1.066,1.226,1.836c-2.898,1.817-5.611,3.984-8.131,6.52c-4.952,5.001-8.082,10.569-9.396,16.703l-3.264,1.66
	c-2.935-2.869-4.987-5.12-6.154-6.755c-0.8-1.101-1.451-1.484-1.951-1.15c-0.367,0.267-0.851,1.167-1.451,2.702
	c-1.001,2.702-1.568,6.138-1.701,10.308l-0.801,0.55l-3.552,2.352c-1.167,0.967-1.751,1.985-1.751,3.052l0.2,1.301l0.15,0.451
	c0.947,3.788,2.914,7.584,5.876,11.389c-0.537,0.625-1.077,1.28-1.623,1.97c-2.969,3.736-4.454,6.705-4.454,8.906l0.2,1.351
	c0.901,2.369,4.704,9.791,11.408,22.266l-2.501,6.455c-1.301,4.07-1.952,8.022-1.952,11.858c0,2.484,0.283,4.993,0.799,7.522
	c-0.142,0.18-0.277,0.355-0.413,0.53l-0.086-0.096l-0.15-0.2l-0.3-0.1c-3.603-1.067-7.589-0.467-11.958,1.801
	c-3.369,1.734-6.705,4.269-10.007,7.605c-0.91,0.922-1.624,2.116-2.168,3.546l-0.434,0.257c-4.27,2.502-7.105,4.254-8.506,5.254
	c-0.344,0.244-0.666,0.487-0.99,0.731l-0.261-0.131c-3.103-1.101-7.255-0.534-12.459,1.701c-4.136,1.735-7.556,3.786-10.257,6.155
	c-1.117,0.967-2.072,2.279-2.883,3.902c-2.815,0.938-5.359,2.417-7.625,4.453c-2.668,2.402-4.586,5.254-5.754,8.557
	c-0.4,1.2-0.5,1.934-0.3,2.201l1.501,0.3l9.334,0.355c0.051,0.87,0.137,1.729,0.259,2.576c-1.496,1.261-2.943,2.813-4.339,4.674
	c-2.068,2.735-3.569,5.538-4.503,8.406c-0.534,1.501,0.05,2.302,1.751,2.401l13.766-0.521c0.517,0.672,1.043,1.302,1.576,1.908
	c-1.162,2.225-2.064,4.643-2.682,7.269c-0.2,0.834,0.083,1.368,0.851,1.602l2.552,0.15l6.205-0.4l4.24-1.068
	c2.815,0.817,5.786,0.998,8.919,0.518c5.271-0.801,9.323-1.867,12.159-3.202c2.202-1.067,4.904-2.985,8.106-5.754
	c0.589-0.528,0.938-1.326,1.066-2.374c2.371-0.894,6.814-3.604,13.329-8.132c3.889,0.445,7.945-0.298,12.174-2.253
	c1.401-0.635,2.752-1.436,4.053-2.402l1.975-1.581c0.07,2.883,0.245,5.36,0.527,7.435c-2.435,2.902-4.27,6.105-5.504,9.607
	c-1.24,3.522-1.949,7.563-2.142,12.109c-5.942,0.468-11.367,2.532-16.271,6.204c-5.088,3.793-8.938,8.616-11.57,14.455
	c-5.893,1.618-10.517,4.514-13.848,8.712c-4.904,6.204-7.939,13.143-9.107,20.814c-0.967,6.305-0.6,11.575,1.101,15.812
	c0.7,1.701,2.385,3.503,5.054,5.403l0.097-0.155c-0.012,4.585,0.776,9.535,2.404,14.866c1.8,5.886,3.92,10.463,6.356,13.754
	c-4.173,1.964-7.064,5.183-8.676,9.657c-1.75,1.126-3.709,2.789-5.886,5.01c-3.536,3.636-5.955,7.071-7.255,10.307
	c-0.734,1.701-0.15,2.719,1.751,3.053c4.35,0.71,8.449,0.721,12.3,0.04c-1.387,2.234-2.52,4.489-3.394,6.765
	c-0.4,1.034-0.484,1.768-0.25,2.201c0.233,0.534,0.9,0.817,2.001,0.851l14.861-0.65c4.904-0.667,8.823-1.501,11.758-2.501
	l0.303-0.139l1.99,0.159c-0.218,0.503-0.433,1.011-0.641,1.53c-0.4,1.101-0.217,1.768,0.55,2.001l2.202,0.25
	c3.502,0.134,7.839-0.3,13.009-1.301c4.97-0.934,8.556-1.968,10.758-3.102l0.484-0.309c5.979-0.662,11.479-1.54,16.479-2.644
	c5.17-1.135,8.89-2.302,11.158-3.503c0.421-0.238,0.793-0.609,1.124-1.089c1.51-0.227,2.904-0.529,4.18-0.912
	c1.935-0.567,3.019-1.185,3.252-1.852c0.367-1.067-0.75-3.169-3.352-6.305c-1.543-1.861-2.958-3.393-4.25-4.606
	c-0.089-0.215-0.157-0.435-0.254-0.647c-0.586-1.295-1.287-2.437-2.09-3.442c1.264-1.586,2.527-4.234,3.791-7.966
	c0.671-2.014,1.149-3.783,1.445-5.322c2.157-0.279,3.782-0.755,4.859-1.433c3.487-2.163,6.28-5.668,8.392-10.488
	c4.642,3.332,9.766,6.195,15.375,8.587c1.368,2.168,3.436,4.437,6.204,6.805c4.037,3.437,8.773,6.255,14.21,8.456
	c7.539,3.036,16.345,4.771,26.419,5.204c12.225,0.533,25.927-0.919,41.068-4.304c0.933,1.019,1.904,2.01,2.914,2.977
	c-0.083,0.092-0.176,0.183-0.251,0.276c-2.135,2.636-4.053,5.504-5.754,8.606c-2.193,3.967-3.521,7.573-3.999,10.823
	c-1.099,0.995-2.282,2.12-3.557,3.387c-5.304,5.271-8.573,9.424-9.807,12.459c-0.534,1.301-0.634,2.202-0.3,2.702
	c0.167,0.3,0.65,0.533,1.451,0.7c5.771,1.101,12.059,1.651,18.863,1.651c5.094-0.027,8.648-0.304,10.717-0.82
	c3.47,1.226,7.177,2.289,11.149,3.172c5.12,1.149,9.931,1.856,14.437,2.133c1.561,1.782,3.632,3.87,6.229,6.273l6.854,6.154
	c0.801,0.7,1.567,0.984,2.302,0.851c0.634-0.134,1.451-0.65,2.452-1.551c1.467-1.301,3.603-3.536,6.404-6.705
	c2.603-2.909,4.339-5.1,5.225-6.584l5.433-0.972l4.83-1.217c1.841,0.738,5.384,1.794,10.631,3.168
	c6.839,1.835,11.075,2.786,12.71,2.853l3.352,0.15c0.701-0.134,1.051-0.834,1.051-2.102c0-3.97-1.067-8.239-3.202-12.81
	c-2.762-5.824-6.832-10.68-12.188-14.585c-1.494-4.863-3.407-9.53-5.775-13.985c-1.557-2.917-3.178-5.169-4.859-6.8
	c0.391-0.536,0.772-1.082,1.146-1.635c1.028,0.556,2.159,1.053,3.413,1.479c1.534,0.533,4.903,1.268,10.107,2.201l24.367-0.8
	c10.941-1.067,18.246-2.068,21.916-3.003c2.269-0.587,4.505-1.592,6.709-3.002h4.899l6.157-0.267c1.066,2.29,2.86,4.084,5.4,5.37
	c2.302,1.168,4.771,1.752,7.405,1.752l16.062,0.1l17.463-0.851c2.389-0.397,4.824-1.559,7.306-3.479l21.865,5.431
	c11.208,2.335,17.979,2.686,20.314,1.051C509.899,427.975,510.083,425.557,508.982,421.754z M119.125,180.741
	c1.166,1.604,2.062,3.135,2.679,4.593c0.273,0.661,0.483,1.331,0.663,2.004c-3.038,0.625-5.782,1.407-8.219,2.349
	c-1.262-1.464-2.682-2.97-4.25-4.514C112.523,183.807,115.565,182.33,119.125,180.741z M498.537,408.189
	c-0.563-0.785-1.152-1.573-1.754-2.362c0.486,0.637,0.979,1.271,1.441,1.917C498.332,407.895,498.432,408.041,498.537,408.189z
	 M499.35,409.365c-0.126-0.181-0.242-0.361-0.37-0.542C499.105,409.005,499.228,409.185,499.35,409.365z M495.49,404.177
	c0.283,0.351,0.568,0.699,0.844,1.053C496.063,404.88,495.769,404.527,495.49,404.177z M72.86,301.807
	c0.001-0.009,0.002-0.02,0.004-0.028l0.293-0.059C73.059,301.754,72.959,301.783,72.86,301.807z"/>
</svg>
