<?xml version="1.0" encoding="utf-8"?>
<!-- Generator: Adobe Illustrator 16.0.0, SVG Export Plug-In . SVG Version: 6.00 Build 0)  -->
<!DOCTYPE svg PUBLIC "-//W3C//DTD SVG 1.1//EN" "http://www.w3.org/Graphics/SVG/1.1/DTD/svg11.dtd">
<svg version="1.1" id="图层_1" xmlns="http://www.w3.org/2000/svg" xmlns:xlink="http://www.w3.org/1999/xlink" x="0px" y="0px"
	 width="199px" height="191px" viewBox="0 0 199 191" enable-background="new 0 0 199 191" xml:space="preserve">
<path d="M198.073,127.583c-0.101-1.732-0.75-2.849-1.949-3.349c-1.166-0.466-2.266-0.1-3.298,1.1l-1.399,1.699
	c-0.7,0.566-1.55,0.717-2.549,0.45c-2.266-0.6-3.515-1.649-3.748-3.148c-0.134-0.833,0.316-1.517,1.349-2.049
	c0.967-0.5,2.266-0.833,3.898-0.999c1.865-0.167,2.832-0.917,2.898-2.25c0.1-1.266-0.666-2.365-2.299-3.298
	c-2.498-1.433-5.164-2.315-7.996-2.648c-2.898-0.333-5.613-0.066-8.145,0.8c-2.272,0.757-4.332,2.04-6.182,3.838
	c-19.994-4.367-34.073-7.978-42.223-10.826c0.109-0.056,0.22-0.102,0.328-0.158c5.628-2.952,10.016-6.288,13.169-10.006
	c1.374,3.742,4.647,6.668,9.87,8.756c4.997,2,10.361,2.766,16.091,2.299c4.897-0.399,9.229-1.998,12.993-4.797
	c4.598-3.465,7.563-8.279,8.896-14.442c1.366-6.463,0.083-12.777-3.848-18.94c-3.864-6.063-8.896-9.861-15.093-11.394
	c-5.764-1.433-10.928-1.25-15.491,0.549c-0.807,0.311-1.55,0.678-2.264,1.071c-0.191-8.528-3.495-15.917-9.931-22.16
	c-3.331-3.265-8.278-6.613-14.842-10.044c-4.83-2.499-8.496-4.998-10.994-7.496c-3.465-3.465-6.68-8.512-9.645-15.142
	c-0.7-1.5-1.566-2.699-2.6-3.598C101.973,0.466,100.841,0,99.675,0c-1.299,0-2.466,0.35-3.499,1.049
	c-1.066,0.767-1.882,1.882-2.449,3.348c-0.899,2.499-2.365,5.048-4.397,7.646c-3.532,4.564-8.013,8.096-13.443,10.594
	c-8.762,3.998-15.226,7.846-19.39,11.544c-7.62,6.741-11.936,15.269-12.967,25.575c-0.321-0.201-0.64-0.405-0.975-0.588
	c-3.698-2.032-7.896-2.849-12.594-2.449c-7.396,0.566-13.26,3.315-17.591,8.246C7.64,70.33,5.707,77.243,6.573,85.705
	c0.633,6.43,2.865,11.761,6.697,15.992c4.031,4.431,8.862,6.546,14.492,6.346c0.849-0.027,1.668-0.103,2.469-0.207
	c1.852,0.83,4.237,1.172,7.176,1.007c3.598-0.167,6.813-1.05,9.645-2.648c2.532-1.399,4.514-2.981,5.947-4.747
	c1.121-1.394,2.11-3.191,2.983-5.354c3.567,4.01,8.159,7.401,13.772,10.175c-4.095,1.487-10.044,3.312-17.854,5.475
	c-9.302,2.558-16.488,4.202-21.574,4.938c-1.719-1.452-3.752-2.471-6.112-3.04c-4.498-1.1-8.279-1.549-11.344-1.35
	c-3.032,0.2-5.114,1.033-6.247,2.499c-1.199,1.599-1.482,3.148-0.849,4.647c0.633,1.466,1.699,2.049,3.198,1.749l1.449-0.05
	c0.666,0.1,1.149,0.333,1.449,0.699c0.764,0.812,1.101,1.963,1.027,3.44c-0.375,0.318-0.735,0.714-1.077,1.208
	c-1.348,1.939-2.172,4.044-2.482,6.309c-0.31-0.591-0.555-1.224-0.717-1.912c-0.167-0.898-0.283-2.248-0.35-4.047
	c-0.067-1.766-0.783-2.865-2.149-3.299c-1.366-0.399-2.599,0.133-3.698,1.6c-1.266,1.732-2.032,3.697-2.299,5.896
	c-0.333,2.965,0.433,5.681,2.299,8.146c1.999,2.631,4.914,4.563,8.746,5.797c3.798,1.232,7.479,1.432,11.044,0.6
	c3.964-0.934,7.113-3.133,9.445-6.598c1.545-2.38,2.526-5.101,2.946-8.161c8.632-2.418,16.951-5.09,24.939-8.03
	c10.583-3.896,18.754-7.585,24.529-11.068l-0.142,0.725c0.025,0.021,0.055,0.037,0.08,0.058c-0.246,1.946-0.68,4.163-1.329,6.688
	c-0.293,1.162-0.593,2.228-0.896,3.245c-5.219,1.576-8.764,4.89-10.638,9.939c-0.391,0.019-0.792,0.064-1.209,0.159
	c-6.063,1.398-10.611,2.664-13.643,3.797c-5.997,2.199-10.128,4.865-12.394,7.996c-2.599,3.598-3.765,7.196-3.498,10.795
	c0.267,3.365,1.699,6.08,4.297,8.146c2.799,2.231,7.247,4.015,13.343,5.347c5.529,1.182,11.878,1.885,19.032,2.117
	c0.335,6.091,1.693,10.862,4.106,14.274c2.399,3.365,5.397,5.081,8.996,5.147c4.059,0.055,6.625-1.921,7.709-5.915
	c0.381,1.246,0.953,2.372,1.736,3.366c1.599,1.999,3.615,3.049,6.047,3.148c3.831,0.166,6.912-2.498,9.244-7.996
	c1.547-3.588,2.581-7.771,3.121-12.526c7.783,0.172,14.349-0.313,19.668-1.466c5.63-1.232,10.194-3.266,13.692-6.097
	c2.099-1.699,3.315-4.065,3.647-7.097c0.367-3.398-0.566-6.779-2.798-10.145c-3.265-4.964-11.827-9.162-25.687-12.594l-1.787-0.198
	c-0.682-2.161-2.134-4.194-4.359-6.099c-2.072-1.784-4.128-2.952-6.17-3.518c-0.217-0.775-0.426-1.568-0.627-2.379
	c-0.692-2.722-1.139-5.141-1.352-7.271c5.411,2.784,14.237,6.09,26.488,9.92c9.952,3.127,18.144,5.434,24.613,6.941
	c0.104,1.813,0.57,3.599,1.424,5.353c1.832,3.864,5.146,6.78,9.944,8.745l7.846,0.25c2.632-0.966,4.881-2.932,6.747-5.896l0.499-0.9
	c2.266,0.067,4.248-1.032,5.947-3.298C197.439,132.248,198.207,129.949,198.073,127.583z"/>
</svg>
