<?xml version="1.0" encoding="utf-8"?>
<!-- Generator: Adobe Illustrator 16.0.0, SVG Export Plug-In . SVG Version: 6.00 Build 0)  -->
<!DOCTYPE svg PUBLIC "-//W3C//DTD SVG 1.1//EN" "http://www.w3.org/Graphics/SVG/1.1/DTD/svg11.dtd">
<svg version="1.1" id="图层_1" xmlns="http://www.w3.org/2000/svg" xmlns:xlink="http://www.w3.org/1999/xlink" x="0px" y="0px"
	 width="137px" height="316px" viewBox="0 0 137 316" enable-background="new 0 0 137 316" xml:space="preserve">
<path d="M119.525,86.141c2.4,1.734,4.852,2.535,7.354,2.401c2.301-0.1,4.219-0.967,5.753-2.601c1.233-1.267,1.685-3.185,1.351-5.752
	c-0.367-2.802-1.635-5.553-3.802-8.254c-2.135-2.702-5.119-4.902-8.954-6.604c-3.55-1.631-7.379-2.626-11.48-3
	c-0.542-7.487-3.332-13.709-8.379-18.661C96.643,39.042,91.181,36.589,85,36.267c1.753-3.001,3.109-6.4,4.061-10.204
	c0.934-3.702,1.418-7.37,1.451-11.005c0.066-4.435-1.15-8.137-3.652-11.105c-2.467-2.868-5.402-4.169-8.804-3.902
	c-4.169,0.333-7.403,2.384-9.705,6.153c-2.068,3.368-3.068,7.503-3.001,12.406c0.067,4.102,0.984,8.004,2.751,11.706
	c1.014,2.167,2.372,4.342,4.055,6.525c-6.811,1.279-12.45,4.886-16.912,10.833c-4.628,6.138-6.747,13.214-6.368,21.226
	c-7.511,0.64-14.068,2.69-19.645,6.187c-2.768,1.768-4.552,4.202-5.353,7.303c-0.733,3.035-0.3,5.569,1.301,7.604
	c2.134,2.668,5.002,3.752,8.604,3.252c2.935-0.434,5.669-1.701,8.204-3.802c1.567-1.333,3.501-3.401,5.803-6.203
	c0.527-0.649,1.021-1.284,1.504-1.913c0.119,7.958,2.516,15.167,7.2,21.623c3.583,4.932,7.823,8.336,12.711,10.232
	c-0.579,2.193-1.196,4.145-1.856,5.825c-0.467,1.101-1.317,1.951-2.551,2.551c-26.846,12.139-41.953,19.142-45.321,21.01
	c-2.535,1.401-3.668,3.702-3.402,6.903c0.3,3.501,2.568,5.636,6.803,6.403c4.642,0.861,10.448,1.706,17.411,2.536
	c-3.778,1.361-7.398,4.563-10.858,9.62c-4.375,6.361-6.538,13.212-6.497,20.554c-2.984,4.473-5.748,8.976-8.26,13.513
	C3.37,222.572-1.365,240.48,0.469,255.822c1.701,13.939,7.237,24.944,16.608,33.016c6.27,5.391,13.408,8.763,21.412,10.124
	c-0.45,0.969-1.062,1.89-1.835,2.764c-0.189-0.193-0.376-0.382-0.567-0.583c-0.801-0.867-1.634-1.217-2.501-1.05
	c-0.867,0.2-1.517,0.8-1.951,1.801l-1.351,3.452c-0.567,1.634-0.851,2.984-0.851,4.051c0,1.268,0.517,2.402,1.551,3.402
	c0.867,0.834,1.868,1.384,3.001,1.65c3.735,0.801,7.587,0.634,11.555-0.5c2.602-0.768,4.686-1.701,6.253-2.801
	c0.867-0.567,1.384-1.352,1.551-2.352c0.134-0.768,0.034-1.801-0.3-3.102l-1.557-6.229c9.404-0.725,17.616-3.405,24.636-8.037
	c0.482,0.41,1.243,0.73,2.283,0.959l4.352,0.551l6.903,1.301l8.954,2.25c2.135,0.602,4.119,0.867,5.953,0.801
	c1.9-0.033,3.401-0.434,4.502-1.2l3.151-2.351l3.452-3.002c1.867-2.135,2.084-3.635,0.65-4.502c-1.367-0.801-3.285-0.717-5.753,0.25
	l-2.901,0.199c-0.97-0.241-2.212-0.849-3.702-1.785c4.028-1.797,7.801-4.11,11.306-6.969c5.436-4.436,9.604-9.654,12.506-15.656
	c3.168-6.438,4.553-13.257,4.152-20.461c-0.634-11.438-5.17-24.411-13.607-38.918c-3.729-6.392-10.817-16.709-21.238-30.927
	c1.282-5.385,1.103-9.873-0.54-13.466l6.972-1.479l18.109-4.152c3.501-0.934,5.336-2.951,5.502-6.053
	c0.133-2.935-1.134-5.002-3.802-6.203c-2.802-1.268-10.104-4.436-21.91-9.505c-11.792-5.077-19.698-8.445-23.736-10.111
	c0.218-1.584,0.564-3.16,1.027-4.728c1.536,0.655,3.353,0.982,5.45,0.982c2.436,0,4.486-0.583,6.153-1.751
	c0.68-0.498,1.204-1.025,1.59-1.578c6.88-1.879,12.289-6.568,16.219-14.079c3.637-6.932,4.997-14.053,4.085-21.361
	c0.158,0.218,0.303,0.431,0.467,0.651C115.04,82.239,117.324,84.574,119.525,86.141z M88.91,139.716l-0.591-5.88
	c1.989,0.85,5.215,2.439,9.696,4.78l10.608,5.396l-5.807,0.506l-13.21,1.585L88.91,139.716z M46.791,144.969l-13.172-0.439
	l13.522-6.114c8.124-3.638,13.331-5.824,15.641-6.568c-1.802,5.392-3.486,9.619-5.055,12.7L46.791,144.969z"/>
</svg>
