<?xml version="1.0" encoding="utf-8"?>
<!-- Generator: Adobe Illustrator 16.0.0, SVG Export Plug-In . SVG Version: 6.00 Build 0)  -->
<!DOCTYPE svg PUBLIC "-//W3C//DTD SVG 1.1//EN" "http://www.w3.org/Graphics/SVG/1.1/DTD/svg11.dtd">
<svg version="1.1" id="图层_1" xmlns="http://www.w3.org/2000/svg" xmlns:xlink="http://www.w3.org/1999/xlink" x="0px" y="0px"
	 width="183px" height="198px" viewBox="0 0 183 198" enable-background="new 0 0 183 198" xml:space="preserve">
<path d="M170.906,113.792c7.662-2.132,11.461-3.981,11.394-5.547c-0.833-13.959-5.347-27.335-13.542-40.128
	c-7.596-11.86-17.957-22.671-31.084-32.432c-12.426-9.195-26.451-16.841-42.076-22.938C80.306,6.784,64.848,2.819,49.223,0.854
	l-4.647-0.5c-0.066,0.033,0.25,1.099,0.95,3.198c1.501,4.383,4.571,11.377,9.187,20.943c-3.548-1.189-7.155-2.282-10.836-3.252
	l-2.848-0.1c-0.4,0.333-0.367,1.333,0.1,2.999c1.5,5.463,5.831,15.425,12.993,29.883c7.063,14.259,11.627,22.421,13.692,24.487
	c2.491,2.491,9.588,7.528,21.284,15.108c-3.394,0.509-6.838,1.244-10.34,2.232c-8.462,2.432-16.258,5.98-23.387,10.645
	c-3.086,2.015-6.083,4.521-8.994,7.513l-3.6-6.264c-1.333-2.332-2.332-3.349-2.999-3.048c-0.6,0.266-0.899,1.532-0.899,3.797
	c0,2.266,0.044,4.275,0.127,6.056l-5.274-3.956c-9.628-6.963-16.941-11.91-21.938-14.842c-2.032-1.2-3.281-1.633-3.748-1.299
	c-0.367,0.3-0.367,1.366,0,3.198c1,4.864,3.248,14.009,6.746,27.435c0.916,3.532,1.722,6.617,2.427,9.287
	c-4.646-1.203-8.597-2.17-11.822-2.891L0.1,131.682c-0.466,0.801,0.4,2.332,2.599,4.598l23.637,24.087l0.699,3.948
	c0.633,3.064,1.35,5.764,2.149,8.096c1.266,3.631,1.799,6.945,1.599,9.944c-0.133,1.999,0.083,3.515,0.65,4.548
	c0.633,1.1,1.916,2.049,3.848,2.848c2.299,0.9,7.063,2.283,14.292,4.148c7.029,1.832,11.494,2.848,13.393,3.048
	c4.897,0.6,8.229,0.45,9.995-0.45l4.198,0.551c1.466-0.101,2.848-0.517,4.147-1.25c2.232,0.033,3.931-0.35,5.097-1.148
	c0.229-0.167,0.421-0.348,0.595-0.534c1.758,0.591,3.197,0.972,4.302,1.134c1.833,0.266,3.515,0.066,5.048-0.6
	c0.6,0.433,1.564,0.648,2.898,0.648c1.365,0,2.365-0.25,2.998-0.749c2.531-0.134,4.264-0.7,5.197-1.699
	c0.049-0.054,0.09-0.118,0.135-0.176c3.201,1.005,5.348,0.989,6.411-0.074l2.749,0.351c1.166-0.167,1.882-0.5,2.148-1
	c1.832-0.1,3.064-0.717,3.697-1.85c0.733-1.299,1.051-3.681,0.95-7.146c-0.033-1.433-0.667-2.481-1.899-3.148
	c-0.933-0.499-2.398-0.833-4.396-0.999l-4.648-0.2c-0.166,0.067-0.35-0.083-0.549-0.45c-1.1-1.998-2-5.746-2.699-11.243
	c-0.699-5.431-0.766-9.046-0.199-10.845c1.599-2.631,3.031-5.529,4.297-8.695c1.316-3.299,2.139-6.369,2.493-9.225
	c0.24,0.722,0.477,1.463,0.705,2.229c0.966,3.299,1.833,5.498,2.599,6.597c0.699,0.933,1.883,1.916,3.549,2.948
	c1.932,1.199,4.113,2.166,6.546,2.898l3.099,0.2l6.846-1.399c0.203-0.044,0.365-0.095,0.498-0.15h0.002
	c0.079-0.036,0.163-0.086,0.25-0.146c0.009-0.009,0.021-0.016,0.029-0.024c0.514-0.371,1.15-1.157,1.911-2.357
	c0.272-0.193,0.556-0.397,0.858-0.619l3.397-2.698c0.3-0.301,0.384-0.617,0.25-0.95c-0.101-0.267-0.333-0.433-0.7-0.499
	l-1.178-0.022c0.467-0.938,0.958-1.96,1.479-3.076c0.961-2.08,1.745-3.861,2.38-5.389c0.227,0.414,0.441,0.795,0.644,1.136
	l-1.675,4.652c-0.333,0.967-0.366,1.6-0.1,1.899l1.948-0.05l6.149-1.924c0.501,0.202,1.024,0.409,1.597,0.624
	c0.82,0.298,1.575,0.56,2.264,0.783c-0.213,0.422-0.408,0.819-0.564,1.166c-0.633,1.532-0.133,2.065,1.499,1.599l6.9-2.192
	l2.345-0.306c2.732-0.633,4.197-1.449,4.397-2.449c0.467-2.432,0.05-7.246-1.249-14.441l-2.199-11.794
	C170.406,114.092,170.573,113.893,170.906,113.792z"/>
</svg>
