<?xml version="1.0" encoding="utf-8"?>
<!-- Generator: Adobe Illustrator 16.0.0, SVG Export Plug-In . SVG Version: 6.00 Build 0)  -->
<!DOCTYPE svg PUBLIC "-//W3C//DTD SVG 1.1//EN" "http://www.w3.org/Graphics/SVG/1.1/DTD/svg11.dtd">
<svg version="1.1" id="图层_1" xmlns="http://www.w3.org/2000/svg" xmlns:xlink="http://www.w3.org/1999/xlink" x="0px" y="0px"
	 width="323px" height="335px" viewBox="0 0 323 335" enable-background="new 0 0 323 335" xml:space="preserve">
<path d="M321.801,22.887c-0.767-1.632-3.647-2.665-8.644-3.098c-4.13-0.3-11.374-0.216-21.734,0.249
	c-13.489,0.599-22.998,1.798-28.526,3.597c-5.496,1.765-10.875,6.312-16.139,13.639c-2.039,2.895-4.355,6.762-6.937,11.566
	c-0.092-2.249-0.128-5.047-0.106-8.416l0.148-11.292c0-1.532-0.35-2.931-1.049-4.197c-0.864-1.498-2.131-2.564-3.797-3.197
	c-1.365-0.499-2.897-0.516-4.596-0.05c-1.732,0.466-3.148,1.316-4.247,2.548c-2.132,2.398-5.796,5.929-10.991,10.591
	c-2.449,2.188-4.558,3.992-6.362,5.458c-1.756-5.571-4.754-10.576-9.025-15.001c-4.93-5.13-11.325-9.26-19.187-12.391
	c1.666-3.664,2.498-6.112,2.498-7.344c0-1.232-0.416-2.281-1.248-3.147c-1.566-1.532-3.164-2.215-4.797-2.048
	c-2.03,0.2-4.595,1.698-7.692,4.496c-11.192,10.258-18.453,20.984-21.784,32.175c-3.262,11.009-2.629,22.113,1.871,33.311
	L142.29,70.1c-1.932,0-3.298,0.733-4.097,2.198c-0.733,1.366-0.533,3.332,0.599,5.896l4.047,7.894l4.029,7.891
	c-1.932,9.63-1.389,18.499,1.632,26.605c-3.137-1.33-6.983-3.131-11.556-5.417c-5.429-2.732-9.077-4.73-10.942-5.996
	c-1.066-0.699-2.332-1.015-3.797-0.949c-1.432,0.066-2.881,0.516-4.348,1.349c-1.499,0.898-2.698,2.031-3.597,3.397
	c-1.066,1.632-1.532,3.397-1.399,5.296c0.333,5.03,0.516,10.342,0.55,15.938c0.029,7.453-0.27,13.442-0.89,17.993
	c-3.615,3.311-6.318,6.508-8.104,9.592c-1.957-0.945-4.447-2.406-7.491-4.403c-3.997-2.631-6.678-4.646-8.044-6.045
	c-1.699-1.699-3.597-2.198-5.696-1.499c-2.032,0.666-3.781,1.949-5.246,3.847c-1.732,2.231-2.681,4.913-2.848,8.044l-0.5,16.336
	c-0.251,7.347-0.585,12.788-1,16.339c-2.88,2.801-5.417,5.569-7.614,8.306l-7.973-18.35c-0.799-1.865-2.031-3.28-3.697-4.246
	c-1.599-0.932-3.215-1.266-4.846-1.002c-1.466,0.236-2.531,1.084-3.198,2.55c-0.333,0.733-0.516,1.432-0.549,2.098
	c-0.899,4.765-1.865,8.562-2.898,11.392c-1.717,4.815-3.95,8.486-6.684,11.042c-3.819-1.871-8.168-4.583-13.051-8.144
	c-4.696-3.43-10.309-7.977-16.837-13.639c-0.533-0.5-1.199-0.717-1.998-0.65c-0.767,0.033-1.433,0.334-1.999,0.9
	c-0.899,0.898-1.549,2.814-1.949,5.745c-0.499,3.731-0.366,8.11,0.4,13.14c2.831,18.553,10.026,34.508,21.582,47.865
	c10.84,12.551,25.772,23.063,44.795,31.537c2.396,2.882,5.037,5.396,7.924,7.544c-3.342,3.381-6.209,6.771-8.552,10.178
	c-2.197,3.206-3.432,5.739-3.714,7.606c-1.208,2.269-2.022,4.793-2.431,7.582c-0.499,3.531-0.316,7.213,0.55,11.043
	c0.234,0.9,0.483,1.433,0.75,1.599l2.198-0.198c1.799-0.566,4.963-2.232,9.493-4.996c1.074-0.66,2.029-1.279,2.915-1.875
	l32.896,1.981c0.348,0.714,0.728,1.454,1.158,2.239c1.999,3.631,3.864,6.262,5.596,7.895c0.633,0.566,1.183,0.865,1.649,0.898
	c0.566,0.033,1.233-0.25,1.999-0.85c1.798-1.466,3.88-4.048,6.245-7.744c0.86-1.341,1.563-2.556,2.135-3.664
	c3.616-1.426,6.836-3.633,9.657-6.625c2.665-2.867,4.813-6.248,6.445-10.144c0.866-1.998,0.916-4.08,0.15-6.245
	c-0.28-0.783-1.013-2.162-2.186-4.122c11.371-0.227,22.362-2.016,32.97-5.388l-0.358,0.716c-0.666,1.899-0.75,3.663-0.25,5.296
	c0.4,1.232,1.199,2.448,2.397,3.646c1.099,1.066,2.414,1.982,3.947,2.748c4.93,2.432,11.241,4.963,18.936,7.595
	c10.425,3.563,17.619,4.996,21.583,4.296l2.319-0.604c2.614,0.848,5.95,1.551,10.022,2.103l16.836,1.397
	c1.066,0.035,1.717-0.099,1.949-0.399c0.166-0.265,0.049-0.815-0.35-1.647c-1.428-2.948-3.376-5.762-5.822-8.447
	c2.416-0.608,4.489-0.983,6.172-1.096c1.466-0.159,2.73-0.369,3.808-0.627c2.009,0.533,4.418,0.959,7.235,1.277
	c4.563,0.5,8.992,0.566,13.289,0.199c0.799-0.067,1.266-0.266,1.399-0.6c0.166-0.399-0.019-1.05-0.552-1.949
	c-1.598-2.83-3.98-5.744-7.145-8.742c-2.607-2.452-4.76-3.992-6.469-4.646c-0.404-1.23-1.104-2.284-2.124-3.146
	c-2.265-1.932-5.362-3.814-9.293-5.646l-4.261-1.766c1.812-1.68,3.549-3.602,5.209-5.778c4.205-5.521,6.821-10.488,7.894-14.915
	l0.373,0.031c0.359,0.365,0.781,0.762,1.278,1.195c1.797,1.598,3.014,2.33,3.646,2.197c1.066-0.267,2.682-1.881,4.846-4.846
	c0.453-0.613,0.842-1.168,1.189-1.685c1.061-0.74,2.082-1.589,3.057-2.564c4.432-4.562,7.611-11.306,9.543-20.233
	c1.666-7.562,2.065-14.006,1.199-19.334c-0.6-3.6-2.244-6.358-4.898-8.307c-1.455-3.838-2.375-8.903-2.746-15.226
	c-0.259-4.436-0.268-7.756-0.028-9.975c1.363-0.445,2.346-0.998,2.925-1.665c1.233-1.433,2.098-4.063,2.598-7.894
	c0.634-4.697,0.135-9.044-1.498-13.041c-1.465-3.564-3.881-6.629-7.243-9.193c-3.8-2.895-8.386-4.673-13.742-5.356
	c0.108-3.875,0.164-7.813,0.153-11.831c0-5.678-0.192-13.087-0.573-22.184c1.743,0.159,3.498,0.133,5.269-0.099
	c6.694-0.833,14.289-4.263,22.782-10.292c8.628-6.129,14.205-17.187,16.737-33.174c1.299-8.161,1.915-16.521,1.849-25.081
	c0.133-0.6,0.416-1.082,0.85-1.449c0.266-0.233,0.898-0.666,1.897-1.299c3.664-2.098,6.696-4.546,9.094-7.344
	c1.3-1.565,2.081-2.948,2.349-4.147C322.434,25.069,322.3,23.986,321.801,22.887z"/>
</svg>
