<?xml version="1.0" encoding="utf-8"?>
<!-- Generator: Adobe Illustrator 16.0.0, SVG Export Plug-In . SVG Version: 6.00 Build 0)  -->
<!DOCTYPE svg PUBLIC "-//W3C//DTD SVG 1.1//EN" "http://www.w3.org/Graphics/SVG/1.1/DTD/svg11.dtd">
<svg version="1.1" id="图层_1" xmlns="http://www.w3.org/2000/svg" xmlns:xlink="http://www.w3.org/1999/xlink" x="0px" y="0px"
	 width="276px" height="343px" viewBox="0 0 276 343" enable-background="new 0 0 276 343" xml:space="preserve">
<path d="M273.105,92.736c-1.934-27.229-4.1-41.127-6.5-41.694l7.399-36.195c0.467-2.666-0.05-4.433-1.55-5.299
	c-1.533-0.9-3.366-0.417-5.499,1.45c-4.899,4.3-9.966,8.999-15.198,14.098c-6.031,5.866-11.081,11.148-15.147,15.848
	c-1.833-1.167-3.55-1.516-5.149-1.05c-1.366,0.367-3.582,1.7-6.648,4c-9.232,6.932-20.797,16.348-34.695,28.246
	c-16.465,14.131-25.279,22.73-26.445,25.796c-1.134,2.966-1.816,8.266-2.051,15.898l-0.05,19.097v2.2
	c-2.949,1.116-8.141,3.241-15.559,6.369c-3.659-0.477-8.269-1.399-13.807-2.759c0.464-3.313,0.97-7.175,1.52-11.609l2.25-20.097
	c0.167-3.899-0.433-6.132-1.8-6.699c-0.633-0.267-1.433-0.1-2.399,0.5c-0.8,0.5-1.9,1.45-3.299,2.85l-11.249,11.798l-8.949-21.997
	c-4.899-12.032-9.182-21.98-12.848-29.846c-1.367-3-3-3.966-4.899-2.899c-2,1.1-3.116,4.049-3.35,8.849l-1.45,19.897l-1.017,11.784
	c-0.831,1.552-1.774,3.336-2.833,5.364l-1.015,1.981l-4.185-4.98c-3.7-4.266-5.966-5.982-6.799-5.149
	c-0.498,0.499-1.107,3.995-1.825,10.456c-9.42-17.484-15.591-28.752-18.518-33.81L77.184,9.948c0.733-1.866,1.283-4.249,1.65-7.149
	c0.333-2.333-0.55-3.199-2.649-2.6c-1.767,0.5-3.616,1.667-5.549,3.5c-4.732,4.5-16.331,16.864-34.795,37.095
	C17.276,61.125,6.927,72.823,4.794,75.889c-1.9,2.7-3.066,4.75-3.5,6.149c-0.7,2.133-0.683,4.649,0.05,7.549
	c1.404,5.5,5.289,15.616,11.64,30.322c-4.869-1.835-7.703-2.829-8.49-2.977c-2.133-0.466-3.466-0.366-3.999,0.3
	c-0.6,0.7-0.434,2.166,0.5,4.399c0.366,0.9,3.732,5.982,10.098,15.248l13.198,19.097l-7.399-1.05l-8.799-0.95
	c-3.533-0.067-3.6,2.016-0.2,6.249l15.975,19.987c-0.332,1.166-0.674,2.448-1.027,3.859l-1.05,3.599
	c-0.533,0.201-2.8-0.332-6.799-1.6l-7.949-2.6c-1.3-0.399-2.016-0.266-2.149,0.4c-0.067,0.566,0.267,1.467,1,2.699l4.949,7.149
	l5.25,7.599c-0.167,0-1.65-0.533-4.449-1.6l-2.7,0.1c0.233,0.867,1.966,3.334,5.199,7.399l5.799,7.198l-3.2,0.101
	c-1.5,0-2.216,0.25-2.15,0.75c0.067,0.966,3,4.999,8.799,12.099c1.3,4.1,2.4,9.332,3.299,15.697c0.767,5.133,1.25,9.781,1.45,13.947
	c0.1,2.033,0.316,3.6,0.65,4.7c0.267,0.899,0.85,2.1,1.75,3.599c2.466,4.133,4.816,9.299,7.049,15.498
	c0.534,1.467,1.5,2.367,2.9,2.7l2.497-0.112c1.229,0.815,2.878,1.603,4.952,2.361c2.333,0.834,3.966,1.268,4.899,1.301h1.35
	l0.35-0.601c0.045-0.842-0.244-2.019-0.851-3.513c1.408,0.66,2.846,1.281,4.35,1.813c2.233,0.734,3.6,0.984,4.099,0.75l0.3-0.149
	l0.2-0.5c0.117-0.906-0.497-2.595-1.841-5.064l4.391,1.165c1.667,0.267,2.75,0.283,3.25,0.05c0.566-0.3,0.4-1.333-0.5-3.1
	c-0.734-1.399-1.824-3.009-3.253-4.819c-0.002-0.459-0.242-0.966-0.746-1.529c-1.333-1.566-3.066-4.199-5.199-7.898
	c-2.766-4.733-4.949-9.216-6.549-13.449c-2.533-6.766-3.167-16.464-1.9-29.096c0.355-3.511,0.791-6.815,1.298-9.938
	c8.455,3.014,16.688,3.649,24.698,1.89c2.04-0.44,3.975-1.057,5.828-1.81l0.822,3.11c1.899,7.932,2.766,12.432,2.6,13.498
	l-1.2,5.498c-0.466,3-0.3,5.767,0.5,8.299l2.75,9.649c1.434,4.899,2.35,7.648,2.75,8.249c0.629,0.868,2.574,1.411,5.813,1.634
	c0.224,0.235,0.464,0.473,0.736,0.716c1.4,1.199,3.166,2.399,5.299,3.6c2.133,1.166,3.566,1.749,4.299,1.749l1-0.3l0.35-1.5
	c0.022-0.922-0.136-2.025-0.447-3.281c1.229,0.769,2.486,1.479,3.797,2.082c1.733,0.732,2.85,1.016,3.35,0.85
	c0.4-0.1,0.6-0.733,0.6-1.9c-0.043-0.768-0.112-1.488-0.196-2.185c0.454,0.193,0.928,0.376,1.426,0.549
	c-0.069,6.404-0.345,11.755-0.83,16.034l-0.379,3.033c-0.833-1.14-1.358-1.705-1.57-1.684c-0.3,0.033-0.533,1.283-0.7,3.75
	l-0.4,5.35c-0.733-0.734-2.366-1.701-4.899-2.9c-2.3-1.133-3.667-1.717-4.1-1.75l-1.1,0.051c-0.3,0.366-0.116,1.383,0.55,3.049
	c4.866,11.699,6.832,17.831,5.899,18.397l-5.149,0.5l-4.649,0.2c-0.3,0.133,0.417,1.217,2.149,3.25l3,3.249l-2.45,0.55
	c-1.866,0.267-2.849,0.517-2.949,0.75c-0.2,0.333,1.383,2.366,4.749,6.1c3.433,3.832,6.183,6.564,8.249,8.198l0.85,0.649
	c0.667,0.434,1.233,0.667,1.7,0.7c0.108,0.01,0.191-0.011,0.262-0.048c0.6,0.55,1.235,1.087,1.938,1.598
	c2.033,1.5,4.816,3.066,8.349,4.699c0.035-0.035,0.059-0.085,0.079-0.14c0.229,0.281,0.498,0.562,0.821,0.84
	c1.533,1.333,4.033,2.616,7.499,3.85c3.333,1.166,5.399,1.55,6.199,1.149c0.434-0.199,0.6-0.967,0.5-2.299
	c-0.031-0.442-0.086-0.869-0.146-1.292c1.362,0.992,2.765,1.925,4.245,2.741c1.732,0.934,3.049,1.482,3.949,1.65
	c1.732,0.332,2.533-0.168,2.4-1.5c-0.097-1.147-0.376-2.399-0.801-3.732l1.8,0.932l2.95,1.101c1.166,0.467,1.933,0.634,2.299,0.5
	c0.434-0.167,0.6-0.8,0.5-1.899c-0.338-4-1.267-7.097-2.771-9.312c0.007,0.005,0.014,0.008,0.021,0.013
	c-0.365-1.9-1.115-4.083-2.249-6.549l-2.125-4.311c0.251-0.028,0.411-0.451,0.476-1.289c0.033-0.4-0.934-3.083-2.9-8.049
	c-1.966-4.899-2.898-7.549-2.799-7.949l2.799-8.248c1.667-4.967,2.301-7.616,1.9-7.949c-0.4-0.334-1.967,0.333-4.699,2l-3.236,2.019
	c0.396-6.44,1.551-13.211,3.486-20.316c2.232-8.132,5.049-14.981,8.448-20.547c0.467-0.767,2.017-1.616,4.649-2.55
	c0.888-0.31,1.821-0.598,2.78-0.875c1.264,8.811,1.909,16.446,1.937,22.908c-0.13-0.156-0.242-0.279-0.317-0.336
	c-0.366-0.267-0.7,0.85-1,3.35l-0.499,4.999l-4.9-1.8c-2.566-0.9-4.016-1.25-4.35-1.05c-0.366,0.2,0.951,3.933,3.95,11.198
	l4.949,11.698l-3.499,2.999c-1.9,1.667-2.801,2.6-2.7,2.801c0.067,0.199,0.899,0.633,2.499,1.299l3.7,1.551l-4.6,3.049l-1.1,0.85
	l1.399,1.051c1.6,0.966,4.616,2.316,9.049,4.049c5.239,2.076,9.347,3.301,12.351,3.694c0,0.001-0.002,0.004-0.002,0.005l0.204,0.023
	c0.063,0.008,0.133,0.021,0.195,0.027c0.003-0.002,0.005-0.003,0.008-0.004l3.542,0.403l3.283,0.076
	c0.146,0.108,0.288,0.217,0.466,0.323c1.467,0.9,3.783,1.834,6.949,2.801c2.732,0.832,4.85,1.332,6.35,1.499l3.1,0.2
	c0.366-0.133,0.383-0.783,0.05-1.949c-0.206-0.732-0.626-1.605-1.244-2.611c1.104,0.349,2.203,0.664,3.294,0.911l3.549,0.55
	l1.551-0.3c0.232-0.2,0.232-0.601,0-1.2c-0.305-0.833-0.805-1.765-1.457-2.771l4.006,0.572c0.6,0.033,0.95-0.051,1.05-0.25
	c0.167-0.334-0.116-0.983-0.85-1.949l-2.6-3.15c-0.733-0.732-1.556-1.401-2.451-2.016c-0.372-0.723-1.686-1.949-3.948-3.684
	l-4.58-3.502c-0.009-0.036-0.01-0.059-0.02-0.098l-3.049-6.648c-1.733-3.8-2.5-6.082-2.3-6.85l5.449-18.297l0.351-1.35
	c-0.034-0.434-0.584-0.584-1.65-0.45l-1.35,0.25l0.1,0.05c-1.333,0.167-3.049,1.267-5.148,3.3c-0.067-0.567-0.084-1.267-0.051-2.1
	l-0.073-1.917c1.449-7.294,4.369-17.18,8.772-29.679c0.602-1.715,1.189-3.368,1.767-4.967c1.671-0.167,2.601-0.345,2.732-0.532
	c0.183-0.229-0.339-1.16-1.529-2.762c1.858-5.035,3.585-9.431,5.18-13.188c3.87-1.528,5.842-2.463,5.897-2.799
	c0.021-0.112-0.35-0.78-1.103-1.99c0.1-0.166,0.195-0.317,0.304-0.509c0.833-1.566,1.883-4.966,3.148-10.198
	c1.5-6.299,2.367-12.031,2.6-17.197c10.266-5,21.098-11.365,32.496-19.098c16.331-11.165,24.496-19.697,24.496-25.596
	C275.305,128.381,274.572,113.633,273.105,92.736z M107.58,228.617l0.415-6.921l2.034,1.771l-0.65,5.199c-0.3,3-0.366,4.633-0.2,4.9
	c0.2,0.232,0.767-0.051,1.7-0.851l1.95-1.749l-1.05,4.898c-0.467,2.066-0.583,3.166-0.35,3.3c0.233,0.2,0.783,0.083,1.65-0.351
	l2.399-1.449c0.374,3.133,0.63,7.015,0.771,11.644c-1.213-1.687-2.883-4.907-5.021-9.694
	C108.796,233.816,107.58,230.25,107.58,228.617z"/>
</svg>
