<?xml version="1.0" encoding="utf-8"?>
<!-- Generator: Adobe Illustrator 16.0.0, SVG Export Plug-In . SVG Version: 6.00 Build 0)  -->
<!DOCTYPE svg PUBLIC "-//W3C//DTD SVG 1.1//EN" "http://www.w3.org/Graphics/SVG/1.1/DTD/svg11.dtd">
<svg version="1.1" id="图层_1" xmlns="http://www.w3.org/2000/svg" xmlns:xlink="http://www.w3.org/1999/xlink" x="0px" y="0px"
	 width="116px" height="170px" viewBox="0 0 116 170" enable-background="new 0 0 116 170" xml:space="preserve">
<path d="M110.867,13.15c-2.424-2.258-6.99-2.025-13.697,0.697c-7.969,3.254-15.839,9.297-23.608,18.13
	c-5.679,6.475-9.878,13.332-12.602,20.57c-2.124,5.592-3.146,10.737-3.096,15.448c-1.976-1.265-4.226-2.35-6.766-3.245
	c-3.52-1.295-7.123-2.075-10.808-2.341l-8.716,0.598c-2.119,0.438-4.102,1.032-5.953,1.774c1.281-2.629,1.94-6.221,1.968-10.79
	c0-5.28-0.83-10.742-2.491-16.387c5.313-8.234,8.783-16.137,10.41-23.708c1.527-7.006,1.112-11.29-1.245-12.85
	c-1.461-0.963-3.918-0.631-7.371,0.996c-3.487,1.66-7.073,4.234-10.758,7.72C6.804,18.496,1.474,28.075,0.146,38.501
	c-0.664,5.313,0.349,11.14,3.039,17.482c2.921,6.827,6.979,11.734,12.147,14.765c-3.031,2.435-5.505,5.415-7.416,8.943
	c-2.225,4.051-3.337,8.135-3.337,12.252c-0.033,5.047,1.776,9.763,5.429,14.146c2.78,3.336,6.302,5.953,10.542,7.87
	c-4.109-0.021-7.991,0.554-11.638,1.742c-4.416,1.461-6.625,3.138-6.625,5.03c0,1.926,1.959,3.818,5.877,5.678
	c3.738,1.792,8.278,3.06,13.598,3.816c-0.347,1.781-0.559,3.473-0.598,5.05c-0.047,1.904,0.145,3.721,0.56,5.454l-1.905,0.672
	l-3.586,0.299c-3.188-3.121-4.964-2.972-5.33,0.448c-0.332,3.354,0.548,6.708,2.64,10.062c1.993,3.088,3.918,4.698,5.778,4.831
	l6.575-0.598l6.692-0.41c1.609,1.317,3.771,2.665,6.506,4.046c2.822,1.395,4.399,2.557,4.731,3.486
	c0.93,2.523,1.992,3.935,3.188,4.233c1.66,0.466,3.736-0.847,6.226-3.935c2.457-2.988,3.785-5.628,3.984-7.919
	c0.146-1.646,0.211-3.498,0.213-5.51c0.431-0.153,0.831-0.345,1.197-0.579c2.641,6.154,4.349,9.352,5.115,9.575
	c0.631,0.199,2.623-0.498,5.977-2.092c3.486-1.66,5.196-2.89,5.13-3.687l-1.644-3.885l-3.486-5.977
	c1.328-0.432,2.988-1.179,4.98-2.241c2.059-1.096,3.121-1.81,3.188-2.142c0.133-0.664-0.631-2.64-2.291-5.927
	c-1.693-3.421-2.955-5.263-3.785-5.528c-0.432-0.133-1.445,0.148-3.039,0.846c-0.918,0.411-1.628,0.759-2.142,1.047
	c-0.254-0.359-0.518-0.724-0.796-1.096c-4.346-5.823-9.107-9.638-14.274-11.485c4.637-1.022,8.802-2.962,12.481-5.848
	c5.047-3.985,7.985-8.815,8.815-14.494c0.465-3.486,0.083-7.271-1.146-11.356c-1.113-3.758-2.771-6.996-4.959-9.728
	c5.61-1.021,11.43-3.659,17.461-7.953c6.375-4.482,12.086-10.144,17.133-16.984c5.246-7.039,8.85-14.427,10.809-22.164
	C114.154,20.97,113.723,15.773,110.867,13.15z"/>
</svg>
