<?xml version="1.0" encoding="utf-8"?>
<!-- Generator: Adobe Illustrator 16.0.0, SVG Export Plug-In . SVG Version: 6.00 Build 0)  -->
<!DOCTYPE svg PUBLIC "-//W3C//DTD SVG 1.1//EN" "http://www.w3.org/Graphics/SVG/1.1/DTD/svg11.dtd">
<svg version="1.1" id="图层_1" xmlns="http://www.w3.org/2000/svg" xmlns:xlink="http://www.w3.org/1999/xlink" x="0px" y="0px"
	 width="129px" height="169px" viewBox="0 0 129 169" enable-background="new 0 0 129 169" xml:space="preserve">
<path d="M121.947,122.689c-3.636-4.729-8.182-7.92-13.62-9.604c4.987-2.544,8.956-6.241,11.872-11.126
	c3.764-6.361,4.512-12.772,2.248-19.233c-1.466-4.196-3.813-7.826-7.044-10.891c-3.001-2.841-6.496-4.955-10.477-6.357
	c1.521-3.517,2.3-8.321,2.333-14.424c0-7.194-1.148-14.804-3.446-22.83c-2.531-8.892-6.461-16.169-11.79-21.831
	c-4.762-5.029-8.709-7.11-11.839-6.245c-2.598,0.732-4.413,4.229-5.445,10.491c-1.165,7.26-0.6,15.703,1.698,25.327
	c0.899,3.697,2.715,7.993,5.445,12.889c2.908,5.228,6.303,10.065,10.172,14.523c-3.925-0.189-8.294,0.575-13.119,2.312
	c-5.069,1.86-8.856,4.306-11.387,7.327c-0.104,0.103-0.206,0.207-0.309,0.311c-1.245-3.004-4.046-6.314-8.437-9.936
	c-4.996-4.096-11.423-8.076-19.283-11.939c-10.957-5.428-20.065-8.259-27.326-8.492c-5.995-0.2-9.808,1.249-11.44,4.346
	c-1.632,3.13-0.383,7.343,3.747,12.639c4.929,6.328,12.872,12.222,23.829,17.684c4.229,2.132,9.142,3.863,14.737,5.195
	c5.895,1.399,11.59,2.115,17.085,2.148c0.021,0,0.034-0.013,0.054-0.014c-1.389,3.074-1.995,6.441-1.802,10.105
	c0.145,3.293,0.905,6.334,2.276,9.125c-3.372-0.874-5.558-0.663-6.522,0.666c-1.565,2.232-0.283,6.278,3.846,12.14
	c2.214,3.141,4.486,5.595,6.815,7.374c-1.241,1.321-4.327,4.822-9.263,10.51c-6.427,7.461-9.625,11.523-9.591,12.189
	c0.066,0.633,1.665,2.265,4.796,4.896c3.164,2.632,5.145,3.931,5.944,3.897c0.882-0.066,3.143-2.73,6.776-7.979
	c0.139,0.07,0.292,0.123,0.442,0.179c0.259,2.575,0.813,5.404,1.674,8.5c1.132,4.063,2.197,6.66,3.197,7.793
	c0.865,0.965,2.547,1.798,5.045,2.498c2.332,0.666,4.596,0.998,6.794,0.998c2.364-0.066,3.83-0.416,4.396-1.049
	c0.2-0.266,0.267-0.649,0.2-1.148c-0.101-0.533-0.35-0.982-0.75-1.35c0.133-1.498,0.4-2.881,0.799-4.146
	c1.266-3.629,3.148-5.444,5.646-5.444c1.099,0,2.614,0.333,4.546,0.999c1.699,0.566,3.031,1.148,3.996,1.748
	c1.699,1.033,3.048,1.499,4.047,1.398c0.933-0.066,2.148-0.699,3.646-1.898c1.6-1.332,3.014-2.93,4.246-4.795
	c2.765-4.029,3.947-6.411,3.547-7.144c-0.332-0.566-1.615-0.733-3.846-0.5c-1.455-2.761-2.924-4.63-4.404-5.617
	c0.543-1.634,0.967-3.386,1.257-5.272c0.158-1.045,0.256-2.086,0.323-3.124c3.562,1.858,7.166,2.94,10.816,3.224
	c3.564,0.266,5.679-0.233,6.345-1.499C126.477,130.233,125.311,127.053,121.947,122.689z"/>
</svg>
