<?xml version="1.0" encoding="utf-8"?>
<!-- Generator: Adobe Illustrator 16.0.0, SVG Export Plug-In . SVG Version: 6.00 Build 0)  -->
<!DOCTYPE svg PUBLIC "-//W3C//DTD SVG 1.1//EN" "http://www.w3.org/Graphics/SVG/1.1/DTD/svg11.dtd">
<svg version="1.1" id="图层_1" xmlns="http://www.w3.org/2000/svg" xmlns:xlink="http://www.w3.org/1999/xlink" x="0px" y="0px"
	 width="199px" height="218px" viewBox="0 0 199 218" enable-background="new 0 0 199 218" xml:space="preserve">
<path d="M198.543,156.912c-0.666-10.348-2.629-18.999-5.889-25.953c-3.161-6.787-7.836-12.527-14.025-17.219
	c-7.436-5.663-16.605-9.203-27.493-10.635c4.579-5.745,7.405-11.532,8.429-17.363c1.598-9.35-0.998-19.464-7.785-30.344
	c-0.847-1.354-1.529-2.355-2.061-3.026c-4.821-7.246-11-12.849-18.553-16.788c-0.477-0.248-0.962-0.477-1.444-0.712
	c0.935-1.074,1.804-2.228,2.593-3.48c2.463-3.926,4.459-9.166,5.989-15.721c0.267-1.265,0.166-2.396-0.3-3.394
	c-0.565-1.131-1.563-1.896-2.994-2.296c-0.998-0.266-2.029-0.166-3.094,0.3c-1.232,0.565-1.997,1.497-2.297,2.794l-0.898,2.945
	c-1.496,5.124-2.611,8.518-3.344,10.181c-0.995,2.298-2.103,4.138-3.314,5.55c-2.611-0.865-5.299-1.565-8.063-2.099
	c0.085-0.45,0.176-0.895,0.248-1.355c0.532-3.227,0.682-6.172,0.449-8.833c-0.666-6.754-2.296-11.829-4.892-15.222
	c-2.296-3.028-5.04-4.425-8.235-4.192c-3.327,0.233-5.855,2.046-7.585,5.44c-1.597,3.194-2.346,7.536-2.246,13.026
	c0.072,3.672,0.654,7.107,1.73,10.313c-4.505,0.473-9.057,1.344-13.659,2.663c-15.859,4.575-27.963,11.596-36.326,21.054
	c-1.054-1.036-2.002-2.047-2.867-3.038c0.966-0.617,1.904-1.31,2.81-2.095c2.362-2.063,4.076-4.542,5.141-7.437
	c1.431-3.893,1.597-8.235,0.499-13.026c-0.832-3.66-2.679-6.571-5.54-8.734c-2.595-1.963-5.057-2.695-7.386-2.196
	c-2.961,0.632-5.24,2.396-6.837,5.291c-1.764,3.227-2.462,7.52-2.096,12.876c0.2,2.629,1.031,5.474,2.495,8.535
	c0.732,1.563,1.448,2.845,2.146,3.843l-5.939-0.449c-3.926-0.898-7.303-2.612-10.131-5.141c-1.364-1.231-3.311-3.51-5.839-6.837
	l-1.847-2.396c-1.93-2.429-4.009-2.828-6.238-1.198c-0.998,0.732-1.531,1.73-1.597,2.995c-0.066,1.231,0.299,2.429,1.098,3.593
	c5.556,7.786,12.976,12.776,22.259,14.973c3.726,0.898,7.287,0.948,10.68,0.149c0.347-0.087,0.689-0.187,1.031-0.291
	c1.266,1.619,2.82,3.269,4.669,4.951c-7.246,10.088-10.563,22.358-9.942,36.814c0,0.005,0.001,0.009,0.001,0.014
	c0,0.064-0.002,0.121-0.001,0.186c0.016,3.577,0.741,6.969,2.157,10.179c-2.42-0.589-4.704-0.724-6.849-0.397
	c-4.059,0.666-6.355,1.813-6.887,3.444c-0.333,1.098,0.166,2.496,1.497,4.193l4.242,4.441c0.732,0.732,1.764,2.08,3.094,4.043
	l3.743,5.689l5.64,8.584c0.198,0.283,0.391,0.548,0.582,0.811c-0.072,1.451-0.04,2.927,0.117,4.43
	c0.06,0.571,0.139,1.114,0.226,1.644c-0.159,0.351-0.324,0.695-0.476,1.052c-2.595,6.155-3.61,11.745-3.044,16.77
	c0.167,1.396,1.148,2.495,2.945,3.293c1.318,0.612,2.935,0.962,4.82,1.074c0.697,4.016,1.836,7.862,3.432,11.535
	c-0.406,1.434-0.52,3.064-0.317,4.909c0.281,2.646,1.202,5.313,2.74,7.995c0.224,2.102,0.594,4.271,1.153,6.527
	c1.031,4.193,1.331,8.635,0.898,13.326c-0.333,3.394-0.066,5.457,0.798,6.188c1.065,0.898,3.577,0.766,7.536-0.399
	c3.827-1.164,7.686-3.793,11.579-7.885c0.628-0.66,1.268-1.377,1.919-2.145c0.158,0.015,0.319,0.037,0.476,0.048
	c0.578,0.034,1.106,0.048,1.612,0.052c7.444,3.33,15.639,4.881,24.589,4.64c6.782-0.168,13.18-1.119,19.208-2.829
	c0.853,0.182,1.736,0.263,2.645,0.259c2.894,4.156,5.477,7.167,7.743,9.009c2.762,2.195,5.739,3.261,8.934,3.193
	c1.93-0.066,3.227-0.498,3.893-1.297c0.499-0.6,0.682-1.514,0.549-2.745l-0.998-6.188c-0.266-1.764-0.383-3.61-0.35-5.54
	l0.051-5.091c-0.013-0.942-0.03-1.812-0.05-2.64c0.13-0.186,0.274-0.364,0.398-0.554c0.196-0.306,0.381-0.613,0.558-0.924
	c1.29-1.164,2.526-2.379,3.685-3.668c4.458-4.958,7.803-10.48,10.032-16.57c1.226-3.395,2.035-6.804,2.455-10.227
	c1.386,0.46,2.793,0.882,4.232,1.243c7.22,1.83,14.59,2.18,22.109,1.048c5.922-0.865,10.331-2.262,13.226-4.191l1.447-1.298
	C198.443,158.393,198.609,157.71,198.543,156.912z M99.924,10.53c0.533-1.231,1.248-1.88,2.146-1.947
	c1.464-0.066,2.729,0.932,3.793,2.995c1.164,2.296,1.863,5.54,2.096,9.732c0.121,1.854-0.081,4.329-0.594,7.403
	c-2.213-0.204-4.438-0.292-6.676-0.282c-1.077-2.902-1.668-6.485-1.764-10.764C98.893,14.506,99.225,12.127,99.924,10.53z
	 M40.433,23.806c0.865,0.998,1.498,2.429,1.896,4.292c1.597,6.688,0.699,11.729-2.695,15.123l-2.346,1.796l-1.697-3.793
	c-1.131-2.895-1.764-5.356-1.897-7.386c-0.199-3.394,0.117-6.122,0.948-8.185c0.766-1.83,1.813-2.845,3.145-3.044
	C38.753,22.475,39.635,22.874,40.433,23.806z"/>
</svg>
