<?xml version="1.0" encoding="utf-8"?>
<!-- Generator: Adobe Illustrator 16.0.0, SVG Export Plug-In . SVG Version: 6.00 Build 0)  -->
<!DOCTYPE svg PUBLIC "-//W3C//DTD SVG 1.1//EN" "http://www.w3.org/Graphics/SVG/1.1/DTD/svg11.dtd">
<svg version="1.1" id="图层_1" xmlns="http://www.w3.org/2000/svg" xmlns:xlink="http://www.w3.org/1999/xlink" x="0px" y="0px"
	 width="165px" height="200px" viewBox="0 0 165 200" enable-background="new 0 0 165 200" xml:space="preserve">
<path d="M161.836,57.421l-1.5-1.499l-1.249-0.2c-7.455,0-15.199,3.97-23.229,11.894c-0.419-14.677-7.188-26.926-20.35-36.731
	c-3.668-2.739-7.516-5.067-11.532-7.011c3.851-6.692,5.952-13.583,6.286-20.675c0.066-1.566-0.134-2.532-0.6-2.899l-3.249,0.1
	C95.33,3.555,86.533,9.154,80.007,17.181c-2.797-0.287-5.654-0.439-8.577-0.439c-17.348,0-32.209,3.972-44.597,11.894
	c-0.255-0.399-0.511-0.799-0.781-1.199c-4.797-7.063-9.562-11.511-14.293-13.343c-1.199-0.433-2.049-0.583-2.549-0.45
	c-0.699,0.2-1.099,0.933-1.199,2.199c-0.708,7.976,1.232,15.843,5.802,23.602C4.752,49.309,0.216,61.23,0.216,75.212
	c0,10.262,2.449,18.774,7.346,25.538c0.746,1.03,1.521,1.97,2.319,2.837c-1.596,0.451-2.774,0.871-3.519,1.261
	c-1.066,0.5-1.699,1.083-1.899,1.749c-0.233,0.767,0.034,1.966,0.8,3.599c0.766,1.565,1.732,3.049,2.898,4.447
	c3.765,4.465,8.896,8.646,15.393,12.544c3.56,2.157,6.897,3.726,10.021,4.727c0.322,0.657,0.66,1.313,1.024,1.97
	c2.386,4.282,5.043,7.198,7.967,8.764c0.676,1.646,1.406,3.277,2.228,4.88c1.754,3.446,3.775,6.613,6.063,9.503
	c-0.849,1.452-1.231,3.438-1.115,5.989c0.267,4.864,2.582,9.146,6.947,12.844c1.713,1.456,3.555,2.685,5.499,3.731
	c1.915,4.57,4.289,8.779,7.145,12.61c3.998,5.397,7.296,7.962,9.895,7.696c2.532-0.267,5.248-3.398,8.146-9.396
	c1.409-2.962,2.553-6.003,3.446-9.119c1.775-0.722,3.481-1.6,5.099-2.675c0.229-0.153,0.418-0.315,0.579-0.483
	c1.226,0.05,2.461,0.083,3.72,0.083c5.913,0,11.252-0.627,16.041-1.854c2.048,0.735,4.509,0.811,7.396,0.206
	c0.703-0.153,1.399-0.353,2.092-0.574c5.549,3.826,11.313,6.859,17.299,9.07c6.663,2.465,10.711,3.048,12.144,1.748
	c1.333-1.133,1.483-5.014,0.45-11.644c-1.225-7.805-3.979-15.497-8.232-23.083c0.906-3.528,0.943-6.88,0.086-10.051
	c-0.699-2.565-1.882-4.83-3.548-6.797c-1.584-1.899-3.106-2.916-4.57-3.07c-0.233-0.563-0.476-1.137-0.728-1.727l-4.813-10.806
	c2.107-1.479,4.341-3.299,6.712-5.486c8.296-7.597,14.609-16.025,18.94-25.288c2.666-5.697,4.215-11.694,4.648-17.991
	C164.567,64.768,163.801,60.253,161.836,57.421z"/>
</svg>
