<?xml version="1.0" encoding="utf-8"?>
<!-- Generator: Adobe Illustrator 16.0.0, SVG Export Plug-In . SVG Version: 6.00 Build 0)  -->
<!DOCTYPE svg PUBLIC "-//W3C//DTD SVG 1.1//EN" "http://www.w3.org/Graphics/SVG/1.1/DTD/svg11.dtd">
<svg version="1.1" id="图层_1" xmlns="http://www.w3.org/2000/svg" xmlns:xlink="http://www.w3.org/1999/xlink" x="0px" y="0px"
	 width="146px" height="132px" viewBox="0 0 146 132" enable-background="new 0 0 146 132" xml:space="preserve">
<path d="M145.728,82.281c-0.067-2.768-0.684-4.918-1.851-6.453c-0.566-0.766-1-1.55-1.301-2.35l-0.55-2.102l-0.55-2.501
	c-0.334-1.067-0.817-2.034-1.451-2.901c-1.167-1.567-2.668-2.601-4.502-3.101l-3.658-0.081c-0.262-0.242-0.539-0.483-0.844-0.72
	c-0.934-0.767-2.567-1.267-4.901-1.5l-1.901-0.3c-0.633-0.167-1.116-0.417-1.449-0.75c-0.701-0.733-1.568-1.351-2.602-1.851
	c-1.134-0.567-2.117-0.8-2.951-0.7c-0.801,0.1-1.467,1.034-2.001,2.801c-0.601,2.034-1.167,3.251-1.7,3.651
	c-3.168,2.635-5.502,5.035-7.003,7.203c-2.409,3.438-3.27,6.826-2.616,10.17l-0.585,0.033c-0.534-0.1-1.351-0.449-2.451-1.05
	c-1-0.567-2.567-1.751-4.702-3.552l-2.34-2.08c0.666,0.011,1.344-0.008,2.041-0.07c3-0.301,5.568-1.134,7.702-2.501l1.2-1.05
	c0.066-0.201-0.1-0.518-0.5-0.951c-3.969-4.401-8.387-6.802-13.255-7.203c-0.159-0.013-0.31-0.016-0.466-0.025
	c0.97-0.718,1.915-1.495,2.816-2.376c4.735-4.668,6.953-10.22,6.652-16.656c-0.121-2.801-0.989-5.785-2.584-8.947
	c-0.122-0.252-0.249-0.502-0.381-0.751l3.516-8.409l3.501-9.604l0.501-1.951c0.066-0.634-0.033-1.067-0.301-1.301
	c-0.4-0.267-1.217-0.066-2.451,0.601L86.615,23.411c-1.621-0.917-3.499-1.642-5.662-2.152c-0.942-0.219-1.881-0.37-2.817-0.482
	c-0.539-1.545-1.899-4.45-4.085-8.721l-4.952-9.104C67.865,0.95,67.098-0.033,66.798,0c-0.333,0.1-0.701,1.301-1.101,3.602
	c-1.473,9.635-2.096,16.297-1.875,20.002c-1.516,0.883-2.82,1.912-3.91,3.089c-1.889-0.831-4.897-2.086-9.071-3.784
	c-5.902-2.368-9.587-3.785-11.054-4.251c-1.801-0.601-2.834-0.734-3.102-0.4c-0.333,0.434,0.333,1.784,2.001,4.052l6.953,8.603
	l6.535,7.386c-0.553,2.245-0.782,4.667-0.683,7.27c0.267,6.269,2.935,11.504,8.003,15.706c1.469,1.216,3.018,2.218,4.631,3.053
	c-0.552,0.136-1.107,0.277-1.681,0.448c-5.602,1.734-9.804,4.785-12.604,9.153c-0.567,0.867-0.467,1.484,0.3,1.852
	c2.447,1.147,5.24,1.742,8.372,1.796c-2.713,3.003-4.856,4.646-6.421,4.906c-3.482,0.641-6.74,0.537-9.779-0.288
	c1.283-2.739,0.617-6.208-2.025-10.416c-1.167-1.867-2.818-3.901-4.952-6.103c-2.334-2.367-4.152-3.768-5.452-4.202
	c-0.941-0.322-2.078-0.504-3.406-0.55c-1.297-0.812-2.693-1.368-4.197-1.65c-1.967-0.367-3.835-0.2-5.602,0.5
	c-2.201,0.834-4.702,2.084-7.503,3.751l-4.202,2.451c-0.833,0.367-1.333,0.75-1.5,1.15c-0.1,0.334-0.067,0.751,0.1,1.251l0.95,1.851
	l0.169,0.694c-0.821,0.373-1.415,1.005-1.77,1.907c-0.233,0.533-0.434,1.417-0.6,2.65c-0.767,4.668-1.417,7.787-1.951,9.354
	l-0.2,1.4c0,1.534,0.734,2.852,2.201,3.951l4.652,3.201c1.89,1.165,3.356,1.906,4.427,2.251l0.125,1.751
	c0.2,1.334,0.534,2.168,1,2.501l1.2,0.501c0.267-0.034,0.65-0.284,1.151-0.751c0.233-0.233,0.633-0.384,1.2-0.45l1.951,0.051
	c8.503,1.767,13.956,1.7,16.356-0.201c1.834-1.467,3.435-3.067,4.802-4.801c1.477-1.915,2.395-3.681,2.772-5.304
	c2.333,0.587,4.774,0.878,7.331,0.852c3.435,0,6.053-0.567,7.853-1.7c1.844-1.106,4.261-3.262,7.24-6.443
	c-0.23,1.422-0.364,2.836-0.387,4.242c-0.005,0.421,0.002,0.842,0.016,1.262c-0.254,1-0.497,2.034-0.716,3.14
	c-0.9,4.401-1.351,8.87-1.351,13.405c0,5.936,0.667,11.704,2.001,17.307c1.3,5.535,2.618,8.303,3.952,8.303
	c1.134,0,3.451-3.218,6.952-9.653l3.097-6.117c0.595,0.527,1.196,1.034,1.806,1.515c2.067,1.602,3.418,2.401,4.051,2.401
	c0.175-0.007,0.37-0.063,0.58-0.153l0.671,1.805c2.468,6.235,4.318,9.354,5.552,9.354c1.102,0,2.318-2.752,3.652-8.254
	c1.434-5.735,2.167-11.371,2.2-16.906c0-2.468-0.176-4.857-0.496-7.185c0.465-2.838,0.531-5.599,0.146-8.271
	c-0.223-1.557-0.522-3.061-0.887-4.522l3.988,2.621c1.389,0.777,3.504,1.145,6.325,1.112c0.844,4.738,2.896,8.109,6.18,10.092
	c2.2,1.367,4.651,2.367,7.353,3.002l6.002,0.5l3.002,0.199l2.301,0.601c1.768,0.4,3.185,0.233,4.252-0.5
	c0.801-0.563,1.433-1.546,1.917-2.899c0.093,0.033,0.195,0.063,0.283,0.098c0.733,0.301,1.417,0.301,2.051,0
	c1.101-0.533,1.768-1.9,2.001-4.102c0.102-0.737,0.357-1.831,0.763-3.275C144.431,88.618,145.789,85.798,145.728,82.281z
	 M94.107,116.813c-0.053,0.277-0.107,0.555-0.163,0.832C94,117.367,94.055,117.09,94.107,116.813z M93.504,119.726
	c0.035-0.157,0.07-0.314,0.104-0.471c-0.018,0.08-0.032,0.16-0.05,0.24C93.539,119.574,93.522,119.647,93.504,119.726z"/>
</svg>
