<?xml version="1.0" encoding="utf-8"?>
<!-- Generator: Adobe Illustrator 16.0.0, SVG Export Plug-In . SVG Version: 6.00 Build 0)  -->
<!DOCTYPE svg PUBLIC "-//W3C//DTD SVG 1.1//EN" "http://www.w3.org/Graphics/SVG/1.1/DTD/svg11.dtd">
<svg version="1.1" id="图层_1" xmlns="http://www.w3.org/2000/svg" xmlns:xlink="http://www.w3.org/1999/xlink" x="0px" y="0px"
	 width="154px" height="164px" viewBox="0 0 154 164" enable-background="new 0 0 154 164" xml:space="preserve">
<path d="M148.705,131.477c-3.064-1.731-6.977-2.848-11.738-3.347c2.031-7.726,1.731-15.718-0.899-23.977
	c-2.464-7.692-6.71-14.853-12.737-21.479c-5.895-6.526-12.721-11.705-20.48-15.534c-4.816-2.359-9.639-3.999-14.468-4.954
	c11.64-6.299,22.394-13.734,32.251-22.32c9.157-7.992,18.065-17.55,26.724-28.672c4.263-5.528,5.944-8.924,5.045-10.19
	c-0.433-0.566-1.665-0.816-3.696-0.75l-5.245,0.649c-22.411,4.229-39.694,12.588-51.85,25.076
	c-7.845,8.074-14.781,19.926-20.814,35.538c-16.21,1.346-30.055,7.01-41.525,17.011c-6.028,5.262-10.69,11.256-13.987,17.982
	c-3.33,6.794-4.995,13.771-4.995,20.93c0,2.106,0.141,4.136,0.391,6.104c-0.797,0.083-1.594,0.203-2.389,0.39
	c-5.162,1.199-7.925,4.529-8.292,9.99c-0.167,2.299,0.549,4.346,2.147,6.145c1.732,1.965,4.08,3.131,7.043,3.496
	c-0.999,1.965-1.432,4.014-1.299,6.145c0.133,1.565,0.5,2.881,1.099,3.946c0.866,1.432,2.198,2.563,3.996,3.396
	c1.798,0.8,3.68,1.116,5.645,0.949c4.138-0.3,7.552-2.415,10.243-6.343c11.875,7.654,28.739,11.469,50.598,11.438
	c8.09-0.02,15.58-0.477,22.495-1.351c2.359,0.936,4.933,1.092,7.726,0.452c2.361-0.53,4.282-1.494,5.781-2.872
	c9.538-2.331,18.021-5.8,25.438-10.415c7.959-4.996,11.939-9.208,11.939-12.639C152.852,134.641,151.469,133.042,148.705,131.477z"
	/>
</svg>
