<?xml version="1.0" encoding="utf-8"?>
<!-- Generator: Adobe Illustrator 16.0.0, SVG Export Plug-In . SVG Version: 6.00 Build 0)  -->
<!DOCTYPE svg PUBLIC "-//W3C//DTD SVG 1.1//EN" "http://www.w3.org/Graphics/SVG/1.1/DTD/svg11.dtd">
<svg version="1.1" id="图层_1" xmlns="http://www.w3.org/2000/svg" xmlns:xlink="http://www.w3.org/1999/xlink" x="0px" y="0px"
	 width="345px" height="369px" viewBox="0 0 345 369" enable-background="new 0 0 345 369" xml:space="preserve">
<path d="M344.25,326.444c-0.166-5.829-2.031-11.259-5.596-16.288c-2.564-3.697-6.528-7.728-11.892-12.092
	c-4.03-3.23-7.345-6.111-9.942-8.643c-3.931-3.831-7.128-7.662-9.593-11.492c-4.265-6.596-8.028-20.402-11.292-41.42
	c-1.998-12.824-4.396-33.326-7.195-61.505c-2.131-21.018-3.947-36.707-5.445-47.066c-2.266-15.922-5.846-30.645-10.742-44.168
	c-6.496-17.887-15.14-33.176-25.932-45.867c-12.791-15.022-28.729-25.615-47.815-31.777c-18.72-6.096-39.571-7.628-62.555-4.597
	c-7.761,1.032-15.938,3.48-24.532,7.344c-10.059,4.53-19.303,10.476-27.73,17.837c-21.273,18.52-34.383,43.086-39.367,73.67
	c-5.516,6.063-9.052,15.592-10.597,28.606c-0.866,7.328-2.349,13.523-4.447,18.586c-2.032,4.93-4.347,8.127-6.945,9.593
	c-3.031,1.699-5.129,3.98-6.295,6.845c-1.033,2.432-1.199,4.713-0.5,6.845c0.373,1.117,1.093,2.092,2.158,2.926
	c-2.076,1.166-4.032,2.532-5.855,4.119c-2.698,2.398-4.63,4.863-5.796,7.395c-2.099,4.496-2.582,9.043-1.449,13.641
	c1.199,4.863,4.047,8.743,8.543,11.641c0.799,4.397,2.565,7.928,5.296,10.593c2.385,2.335,5.447,3.89,9.184,4.669
	c-0.833,11.253-1.396,21.391-1.689,30.406c-0.333,10.525-0.667,17.287-1,20.285c-0.5,4.33-1.965,8.693-4.396,13.09
	c-1.632,2.965-4.23,6.729-7.794,11.292c-4.297,5.596-7.328,10.21-9.094,13.84C1.149,320.449-0.167,326.345,0,332.44
	c0.1,3.897,0.866,7.577,2.298,11.042c1.465,3.464,3.464,6.395,5.996,8.793c2.765,2.599,6.146,4.564,10.143,5.896
	s8.411,1.932,13.24,1.799c3.631-0.101,7.562-0.617,11.792-1.549l10.043-2.299c8.294-1.532,13.64-2.415,16.038-2.648
	c6.096-0.6,11.192-0.199,15.289,1.199l4.497,1.6l10.343,4.146c3.964,1.565,7.561,2.582,10.792,3.048
	c8.96,1.299,20.385-0.8,34.275-6.296c8.727-3.464,15.089-5.296,19.086-5.496c5.196-0.266,12.042,1.383,20.535,4.947
	c14.09,5.862,26.181,8.76,36.274,8.693c9.26-0.1,18.486-2.798,27.68-8.094c4.629-2.665,8.677-4.281,12.141-4.847
	c2.432-0.399,6.362-0.384,11.791,0.05l11.992,0.899c6.029,0.366,10.941,0.45,14.739,0.249c14.822-0.732,25.498-2.598,32.026-5.596
	C340.17,343.815,344.583,336.637,344.25,326.444z"/>
</svg>
