<?xml version="1.0" encoding="utf-8"?>
<!-- Generator: Adobe Illustrator 16.0.0, SVG Export Plug-In . SVG Version: 6.00 Build 0)  -->
<!DOCTYPE svg PUBLIC "-//W3C//DTD SVG 1.1//EN" "http://www.w3.org/Graphics/SVG/1.1/DTD/svg11.dtd">
<svg version="1.1" id="图层_1" xmlns="http://www.w3.org/2000/svg" xmlns:xlink="http://www.w3.org/1999/xlink" x="0px" y="0px"
	 width="234px" height="237px" viewBox="0 0 234 237" enable-background="new 0 0 234 237" xml:space="preserve">
<path d="M233.1,105.211c-0.434-0.701-1.836-0.951-4.205-0.751l-7.958,0.951l-7.058,0.5c-3.704,0-6.99-0.384-9.861-1.151
	c-1.534-0.4-3.319-1.068-5.355-2.002c-0.967-0.467-1.685-0.768-2.152-0.901l-1.901,0.2c-0.601,0.267-1.502,1.102-2.703,2.503
	c-1.214,1.385-2.401,2.592-3.563,3.626c-0.169-2.731-0.51-5.346-1.042-7.831c-1.529-7.145-4.61-13.785-9.197-19.934
	c0.852-6.419,1.715-14.118,2.59-23.112c2.102-21.356,3.037-34.237,2.803-38.641c-0.166-3.471-0.518-5.906-1.051-7.308
	c-0.434-1.068-1.051-1.668-1.852-1.802c-0.568-0.067-1.235,0.384-2.002,1.352c-0.701,0.901-1.318,2.002-1.853,3.303
	c-4.538,11.446-9.01,22.374-13.415,32.785l-2.752-8.209c-1.335-3.871-2.387-6.523-3.154-7.958c-1.067-1.969-2.135-2.954-3.203-2.954
	c-1.535-0.066-2.619,2.236-3.254,6.908c-0.313,2.457-1.953,9.756-4.907,21.853c-1.639-0.599-3.258-1.119-4.858-1.561
	c-5.509-18.79-11.046-33.382-16.611-43.768c-1.135-2.069-2.253-3.771-3.354-5.105c-1.235-1.435-2.187-2.052-2.854-1.852
	c-0.501,0.133-0.884,0.684-1.151,1.652c-0.267,0.868-0.4,1.969-0.4,3.303l0.05,1.251l2.203,35.488l-8.059-13.564
	c-1.735-2.937-3.153-4.438-4.255-4.505c-1.501-0.1-2.335,2.536-2.502,7.909c-0.199,6.377-0.034,14.476,0.494,24.292
	c-6.127,3.459-12.035,7.876-17.712,13.298c-2.678,2.542-5.014,5.103-7.03,7.681l0.923-27.603c0-3.771-0.483-6.908-1.451-9.41
	l-4.355-8.309c-1.702-3.003-3.687-6.74-5.956-11.212c-2.636-5.206-4.822-9.744-6.557-13.614l-3.253-7.558
	c-1.201-2.536-2.119-3.621-2.753-3.253C55.109,1,54.809,5.104,55.71,12.512c0.483,3.885,1.188,7.424,2.113,10.618
	c0.11,4.032-0.902,9.275-3.064,15.761c-2.636,7.908-5.823,13.197-9.56,15.867c-0.5,0.367-0.768,0.901-0.801,1.602l0.101,0.951
	c3.203,5.739,4.771,12.247,4.705,19.521c-0.066,7.942-2.219,14.465-6.457,19.571c-0.534,0.734-0.684,1.301-0.451,1.702
	c1.802,3.003,3.087,8.526,3.854,16.568c0.206,2.188,0.322,4.224,0.352,6.112c-5.106,1.883-8.382,2.968-9.812,3.248l-19.871,0.701
	c-5.039-0.467-8.509-1.018-10.411-1.652l-3.704-0.4c-1.368,0.066-2.219,0.384-2.553,0.951c-0.267,0.434-0.184,1.201,0.25,2.303
	c0.5,1.268,1.351,2.535,2.553,3.804c2.836,3.003,8.976,6.991,18.419,11.963c7.556,3.98,14.231,6.644,20.036,8.004
	c-1.133,5.577-1.735,9.073-1.808,10.493c-1.223,2.13-1.78,3.531-1.675,4.208c-0.094,0.301-0.042,0.417,0.162,0.339
	c0.032,0.029,0.062,0.062,0.103,0.081c0.901,0.467,4.505-2.319,10.812-8.359c2.312-2.199,4.303-4.171,5.974-5.917
	c8.641-0.536,16.232-1.879,22.757-4.043c0.766-0.254,1.488-0.517,2.188-0.783c3.939,10.447,11.691,19.014,23.257,25.699
	c-0.301,2.463-0.84,6.413-1.62,11.873c-1.134,9.176-1.334,13.932-0.601,14.266c0.634,0.3,1.819-0.268,3.554-1.703
	c1.735-1.434,3.254-3.069,4.555-4.904c-2.903,12.713-4.838,23.792-5.806,33.235c-0.701,7.241-0.784,10.962-0.25,11.161
	c2.369,0.734,7.208-4.604,14.515-16.017c7.646-11.947,13.632-24.389,17.992-37.31c2.336,0.232,4.681,0.357,7.035,0.37
	c14.215,0.067,25.477-4.354,33.786-13.265c2.97-3.17,5.272-6.656,6.907-10.461c1.368-3.137,1.985-5.622,1.852-7.457
	c-0.081-1.038-0.399-2.063-0.928-3.078c0.08-0.861,0.107-1.881,0.077-3.079c-0.061-2.531-0.302-5.301-0.706-8.283
	c10.592-1.09,21.105-5.164,31.539-12.239c8.977-6.106,14.949-11.779,17.919-17.018C233.5,106.613,233.533,105.845,233.1,105.211z"/>
</svg>
