<?xml version="1.0" encoding="utf-8"?>
<!-- Generator: Adobe Illustrator 16.0.0, SVG Export Plug-In . SVG Version: 6.00 Build 0)  -->
<!DOCTYPE svg PUBLIC "-//W3C//DTD SVG 1.1//EN" "http://www.w3.org/Graphics/SVG/1.1/DTD/svg11.dtd">
<svg version="1.1" id="图层_1" xmlns="http://www.w3.org/2000/svg" xmlns:xlink="http://www.w3.org/1999/xlink" x="0px" y="0px"
	 width="143px" height="181px" viewBox="0 0 143 181" enable-background="new 0 0 143 181" xml:space="preserve">
<path d="M141.229,86.93c-0.633-0.666-2.348-0.916-5.144-0.749l-14.88,1.448l-0.628,0.071c-1.983-3.648-4.601-6.472-7.86-8.459
	c-0.048-0.03-0.095-0.052-0.142-0.082c1.577-2.489,3.687-6.445,6.333-11.901c2.564-5.293,4.345-9.287,5.344-11.983
	c0.865-2.23,0.898-3.495,0.1-3.795c-0.797-0.3-2.33,0.316-4.594,1.848l1.997-4.044c1.198-2.896,0.616-3.912-1.747-3.046
	c-0.766,0.299-1.715,0.815-2.847,1.548c0-2.763-0.249-6.458-0.749-11.084c-0.499-4.661-1.031-8.255-1.598-10.785
	c-0.566-2.463-1.481-3.096-2.746-1.897c-1.166,1.065-2.047,2.862-2.646,5.393c-1.332-4.061-2.43-6.974-3.295-8.738
	c-2.23-4.56-5.043-8.155-8.439-10.785l-0.448-4.394L96.59,1.098c-0.267-0.899-0.932-1.249-1.998-1.048
	c-0.665,0.166-1.33,0.482-1.996,0.948c-0.732,0.566-1.199,1.165-1.398,1.798c-0.198,0.599-0.365,2.063-0.5,4.394l-0.198,3.945
	c-0.832,0.699-1.563,1.448-2.197,2.247l-0.897,1.198l-5.344,0.25c-0.199,0.2-0.281,1.315-0.248,3.346
	c0,1.664,0.049,3.062,0.148,4.194c-1.23,1.698-2.396,3.595-3.495,5.692c-2.041,3.89-3.479,8.042-4.327,12.452
	c-2.054-2.612-4.676-5.687-7.906-9.256C60.241,24.634,56.197,20.706,54.1,19.474l-1.748,0.05c-0.233,0.5-0.266,1.714-0.1,3.645
	l0.35,4.294c-2.23-1.665-6.258-3.745-12.083-6.242c-5.592-2.396-9.188-3.678-10.785-3.845c-1.032-0.066-1.897,0.2-2.596,0.799
	c-0.799,0.699-0.732,1.514,0.2,2.446l2.996,2.946l3.495,3.046c-0.366,0.666-0.749,1.564-1.148,2.696
	c-0.532,1.531-0.882,3.046-1.048,4.544l-3.246,0.799c-1.065,0.333-1.664,0.599-1.797,0.799c-0.2,0.266-0.283,0.682-0.25,1.249
	c0,0.666,0.25,1.098,0.749,1.298l4.844,1.548c0.666,5.06,1.464,9.204,2.396,12.433l-1.099,1.748l-0.949,1.398
	c-0.666,1.231-0.466,2.23,0.599,2.996l4.844,3.495l3.295,9.088c1.457,3.51,2.889,6.293,4.296,8.36l-0.302,4.073
	c-2.03-3.096-4.776-6.939-8.238-11.534c-4.594-6.125-8.488-10.885-11.684-14.28c-0.832-0.898-1.847-1.048-3.046-0.449
	c-0.632,0.3-1.165,0.815-1.598,1.548c-0.466,0.699-0.699,1.448-0.699,2.247l0.05,0.699l2.147,14.73
	c1.231,8.921,1.864,14.563,1.897,16.927c-2.064-1.631-5.509-4.063-10.336-7.291c-4.46-2.996-7.124-4.694-7.989-5.093
	c-1.199-0.632-2.347-0.466-3.445,0.5c-1.099,0.965-1.415,2.03-0.949,3.195l1.698,3.745l5.692,13.73
	c2.597,6.457,3.845,9.787,3.745,9.985l-0.549,0.999l-0.799,0.6l-0.849-0.199l-1.398-0.399l-4.044-0.999
	c-2.363-0.499-3.761-0.283-4.194,0.649c-0.433,0.864,0.05,2.229,1.448,4.095c2.663,3.563,4.777,6.973,6.341,10.234
	c1.976,4.193,2.851,7.801,2.646,10.834c-2.051,3.625-3.242,7.354-3.545,11.187c-0.233,3.097,0.216,6.341,1.348,9.737
	c1.165,3.361,2.729,6.041,4.693,8.038l1.798,3.595c0.898,1.365,1.764,2.314,2.596,2.848c0.899,0.599,2.563,1.28,4.993,2.047
	c1.726,0.533,4.545,1.037,8.431,1.512l0.058,0.087l0.549,0.149l2.497,0.549l6.69,0.449l4.194-0.699
	c0.552-0.213,0.896-0.463,1.057-0.748l1.789-0.25c0.433-0.102,0.682-0.301,0.749-0.6c0.1-0.4-0.45-1.133-1.648-2.197
	c-1.192-1.1-2.385-1.859-3.578-2.307c0.3-0.656,0.795-1.609,1.487-2.859c1.063-0.559,2.42-1.027,4.081-1.403
	c0.189,0.87,0.422,1.667,0.706,2.376c1.265,3.229,2.746,5.759,4.444,7.589c1.091,1.176,2.183,1.976,3.273,2.446
	c0.921,0.591,2.753,1.01,5.515,1.248c3.029,0.232,4.893,0.066,5.592-0.498c0.3-0.241,0.387-0.555,0.279-0.93l1.019,0.129
	l2.597-0.397c0.332-0.101,0.5-0.315,0.5-0.649c0.026-0.445-0.377-1.076-1.165-1.869l3.01,0.371l4.994-0.498
	c0.38-0.127,0.633-0.304,0.762-0.526l0.984,0.026l2.348-0.199l0.35-0.35l-0.149-0.699l-1.646-1.797l-1.198-0.877
	c-0.101-2.369,0.713-6.799,2.446-13.305l2.06-7.143c1.022-1.295,1.795-2.608,2.285-3.942l1.049-4.942
	c0.5-2.209,1.291-4.045,2.339-5.551c1.419,1.725,2.397,3.067,2.903,4.003c0.698,1.265,1.664,2.113,2.896,2.546l2.051,0.067
	c-1.87,3.392-2.681,5.478-2.399,6.224l0.549,0.551c0.832,0.266,2.662-0.283,5.492-1.648c2.601-1.254,4.418-2.423,5.472-3.509
	c0.745-0.097,2.162-0.64,4.265-1.634l4.545-2.597l0.898-1.049l0.25-1.397l-0.4-2.197l-0.599-2.446l-0.399-1.997l1.299-1.398
	l2.347-2.445l5.842-7.141c1.267-1.832,1.897-3.362,1.897-4.594c0-1.897-0.25-4.262-0.75-7.091c-0.449-2.733-1.086-5.466-1.89-8.198
	l5.636-3.983l8.388-6.542C141.411,88.744,141.895,87.628,141.229,86.93z"/>
</svg>
