<?xml version="1.0" encoding="utf-8"?>
<!-- Generator: Adobe Illustrator 16.0.0, SVG Export Plug-In . SVG Version: 6.00 Build 0)  -->
<!DOCTYPE svg PUBLIC "-//W3C//DTD SVG 1.1//EN" "http://www.w3.org/Graphics/SVG/1.1/DTD/svg11.dtd">
<svg version="1.1" id="图层_1" xmlns="http://www.w3.org/2000/svg" xmlns:xlink="http://www.w3.org/1999/xlink" x="0px" y="0px"
	 width="625px" height="410px" viewBox="0 0 625 410" enable-background="new 0 0 625 410" xml:space="preserve">
<path d="M609.312,159.406c-5.796-4.363-9.261-6.895-10.393-7.595c-5.496-3.597-10.126-5.596-13.89-5.996
	c1.065-4.03,0.016-7.927-3.148-11.691c-2.864-3.331-7.628-6.812-14.289-10.442c-7.895-4.264-15.006-6.063-21.335-5.396
	c-3.498,0.367-7.479,1.815-11.941,4.347l-2.648,1.349c-5.163-5.163-10.709-8.394-16.638-9.693
	c-3.997-0.866-10.159-1.016-18.486-0.45l-3.493,0.328c-3.26-5.662-6.724-11.136-10.397-16.417
	c-30.845-44.501-72.531-73.247-125.06-86.238C320.752,2.386,285.461-1.312,251.719,0.421c-31.111,1.565-59.857,7.661-86.238,18.287
	c-24.616,9.893-45.9,23.183-63.854,39.872c-5.364,4.97-10.312,10.127-14.845,15.472c-0.593-0.372-1.177-0.734-1.793-1.132
	l-21.334-14.79c-9.46-6.662-16.188-11.225-20.186-13.69c-6.462-3.964-11.259-6.062-14.39-6.295
	c-4.097-0.333-7.428,0.666-9.993,2.998c-3.398,3.164-5.247,9.16-5.546,17.987c-4.03,0.966-6.912,3.947-8.644,8.944
	c-1.932,5.563-1.649,11.941,0.85,19.136c-1.832,0.833-3.198,2.249-4.097,4.247C0.783,93.254,0.25,95.735,0.05,98.9L0,101.098
	c0,11.259,4.28,22.867,12.841,34.825c9.593,13.423,21.685,22.417,36.274,26.98c0.454,0.812,0.915,1.611,1.38,2.404
	c-2.395,29.203,3.537,58.597,17.806,88.181c15.955,33.076,40.688,63.888,74.197,92.434c13.057,11.125,29.695,21.385,49.914,30.777
	c23.549,10.893,47.949,18.604,73.197,23.134c29.778,5.296,58.608,5.663,86.488,1.1c32.276-5.263,62.205-17.021,89.785-35.274
	c17.82-11.825,31.478-24.449,40.971-37.873c9.859-13.924,14.789-28.063,14.789-42.42c0-5.063-0.833-10.809-2.498-17.237
	c-1.23-4.744-2.734-9.175-4.498-13.308c1.364-1.149,2.7-2.339,3.998-3.58l0.2-0.2l13.788-25.864
	c1.744,0.116,3.479,0.216,5.198,0.283c23.716,0.932,44.801-2.848,63.254-11.342c17.222-7.961,29.279-16.788,36.175-26.481
	C621.086,176.644,619.771,167.234,609.312,159.406z"/>
</svg>
