<?xml version="1.0" encoding="utf-8"?>
<!-- Generator: Adobe Illustrator 16.0.0, SVG Export Plug-In . SVG Version: 6.00 Build 0)  -->
<!DOCTYPE svg PUBLIC "-//W3C//DTD SVG 1.1//EN" "http://www.w3.org/Graphics/SVG/1.1/DTD/svg11.dtd">
<svg version="1.1" id="图层_1" xmlns="http://www.w3.org/2000/svg" xmlns:xlink="http://www.w3.org/1999/xlink" x="0px" y="0px"
	 width="1001px" height="570px" viewBox="0 0 1001 570" enable-background="new 0 0 1001 570" xml:space="preserve">
<path d="M993.85,9.596c-0.467-3.965-3.382-6.647-8.747-8.047c-8.73-2.299-19.876-2.116-33.438,0.55
	c-13.961,2.732-28.439,7.73-43.435,14.995c-16.261,7.831-31.372,17.494-45.334,28.99c-15.494,12.796-28.507,27.041-39.036,42.735
	c-10.163,15.128-20.243,28.073-30.239,38.836c-9.017,9.73-16.379,15.87-22.102,18.445c-9.298-1.822-18.876-3.04-28.738-3.646
	c-0.333-0.387-0.648-0.758-0.992-1.154c-6.598-7.598-11.945-13.146-16.044-16.644c-2.633-2.233-5.432-3.249-8.397-3.049
	c-2.999,0.2-5.698,1.583-8.097,4.149c-3.38,3.66-7.513,9.113-12.377,16.311c-11.306-0.056-23.064-0.205-35.284-0.449
	c-2.178-5.363-7.48-13.28-15.917-23.759c-7.83-9.73-13.812-16.277-17.943-19.643c-2.466-1.999-4.999-2.882-7.598-2.649
	c-2.666,0.267-5.099,1.699-7.298,4.298c-6.544,7.873-14.855,21.011-24.923,39.382c-16.372-0.702-33.367-1.533-51-2.495
	c-73.641-3.999-130.821-8.747-171.54-14.245c-59.912-8.13-115.193-5.631-165.842,7.498c-51.182,13.262-93.317,36.287-126.405,69.076
	c-28.324,28.09-48.533,60.029-60.629,95.817C0.198,331.25-2.867,369.104,3.297,408.456c0.466,3.065,1.483,5.515,3.049,7.348
	c1.466,1.666,3.132,2.532,4.999,2.599c1.899,0.101,3.599-0.633,5.098-2.199c0.576-0.588,1.084-1.27,1.531-2.035l7.666,15.98
	c3.287,7.018,5.921,12.833,7.921,17.481c-2.254,4.456-3.415,8.776-3.473,12.958c-0.1,5.364,1.649,10.346,5.248,14.944
	c42.852,54.947,103.014,84.771,180.487,89.469c34.488,2.066,73.375-0.683,116.659-8.247c38.153-6.73,81.306-17.527,129.455-32.389
	l119.208-37.287c61.878-19.326,101.631-31.605,119.258-36.837c38.787-11.463,73.458-26.457,104.014-44.984
	c30.256-18.394,54.515-39.053,72.774-61.978c8.73-10.996,14.479-22.093,17.244-33.289c2.423-9.726,2.491-18.854,0.216-27.39
	c7.329-8.984,14.671-19.668,22.026-32.089c6.831-11.563,11.979-21.559,15.444-29.989c2.866-6.897,3.299-11.929,1.3-15.095
	c-2.065-3.266-6.614-4.332-13.646-3.199c-8.729,1.433-20.809,4.915-36.237,10.446c-1.523,0.545-3.019,1.093-4.499,1.642
	c-13.139-21.784-32.874-39.144-59.225-52.069c-0.899-5.668-1.02-11.446-0.383-17.332c0.997,1.329,2.252,2.672,3.778,4.032
	c4.932,4.398,12.012,8.463,21.242,12.195c9.23,3.766,19.394,6.698,30.489,8.797c11.729,2.233,23.142,3.282,34.238,3.149
	c2.565,0,3.565-1.066,2.999-3.199c-3.366-12.396-3.616-25.924-0.75-40.586c2.666-13.595,7.847-27.457,15.544-41.585
	c7.298-13.429,16.328-26.108,27.091-38.037c10.63-11.795,21.959-21.775,33.988-29.939C992.384,16.777,994.316,13.395,993.85,9.596z"
	/>
</svg>
