<?xml version="1.0" encoding="utf-8"?>
<!-- Generator: Adobe Illustrator 16.0.0, SVG Export Plug-In . SVG Version: 6.00 Build 0)  -->
<!DOCTYPE svg PUBLIC "-//W3C//DTD SVG 1.1//EN" "http://www.w3.org/Graphics/SVG/1.1/DTD/svg11.dtd">
<svg version="1.1" id="图层_1" xmlns="http://www.w3.org/2000/svg" xmlns:xlink="http://www.w3.org/1999/xlink" x="0px" y="0px"
	 width="253px" height="221px" viewBox="0 0 253 221" enable-background="new 0 0 253 221" xml:space="preserve">
<path d="M248.85,80.694c-0.934-7.835-4.385-16.22-10.352-25.155c-3.105-4.682-6.503-9.003-10.19-12.966
	c4.112-4.365,6.475-9.735,7.04-16.139c0.5-5.768-0.418-10.969-2.751-15.604c-1.7-3.367-3.984-6.034-6.852-8.001
	c-2.834-1.934-5.734-2.851-8.702-2.75c-1.934,0.067-3.801,0.567-5.601,1.5c-1.867,0.967-3.351,2.2-4.451,3.701
	c-1.767,2.434-2.8,5.618-3.101,9.552c-0.241,3.042,0.006,5.97,0.69,8.795l-9.192-0.343c-4.804,0.913-8.358,2.792-10.695,5.618
	c-0.558-1.968-1.235-3.861-2.057-5.667c-3.668-8.202-9.602-13.386-17.804-15.553c-4.001-1.067-7.501-1.317-10.502-0.75
	c-2.434,0.433-4.417,1.383-5.951,2.851c-2.233,2.134-3.834,5.067-4.801,8.802c-0.867,3.434-1.001,6.618-0.4,9.552
	c1.134,5.201,3.435,9.769,6.901,13.703c2.696,3.057,5.902,5.324,9.582,6.856c-1.992,4.32-3.109,9.677-3.33,16.098
	c-0.268,6.501-0.601,11.152-1.001,13.953c-0.366,2.367-0.833,3.768-1.399,4.201l-0.201,0.1
	c-11.769-17.87-21.654-29.922-29.655-36.157c-9.235-7.202-20.704-10.853-34.407-10.953c-9.469-0.066-18.904,2.234-28.306,6.901
	c-9.135,4.535-17.304,10.835-24.505,18.904c-7.368,8.302-12.919,17.57-16.653,27.806c-2.167,5.974-3.598,12.019-4.303,18.132
	c-6.799,8.88-11.501,18.583-14.051,29.126c-3.067,12.57-2.434,24.122,1.9,34.657c2.5,6.001,7.301,9.952,14.403,11.853
	c6.001,1.6,11.702,1.5,17.103-0.301c2.734-0.899,4.801-1.967,6.202-3.2c1.598-1.405,2.86-3.318,3.797-5.726
	c4.28,2.931,9,5.534,14.149,7.818c-0.061,0.254-0.135,0.501-0.193,0.758c-2.334,10.369-1.034,19.971,3.9,28.806
	c2.067,3.734,5.918,6.284,11.553,7.651c4.567,1.101,9.685,1.334,15.353,0.701c4.601-0.501,8.751-1.551,12.452-3.151
	c4.234-1.833,6.718-3.983,7.452-6.451c1.7-5.534,2.667-10.719,2.9-15.554c0.048-0.903,0.061-1.811,0.068-2.72
	c6.89-0.524,13.35-1.984,19.379-4.384c0.002,0.469,0.033,0.878,0.107,1.203c0.166,0.867,0.733,1.884,1.7,3.051
	c1.767,2.1,4.417,3.783,7.952,5.051c3.367,1.2,7.101,1.884,11.201,2.051c6.802,0.266,12.369-1.018,16.703-3.852
	c4.568-3.033,7.602-7.685,9.103-13.953c3.632-15.379,0.856-29.713-8.294-43.005c0.906-3.012,1.655-5.368,2.242-7.054
	c2.067-5.936,4.768-10.386,8.102-13.354c6.035,4.301,11.936,7.568,17.704,9.803c6.001,2.3,11.618,3.4,16.853,3.301
	c5.002-0.034,9.586-0.951,13.754-2.751c4.134-1.801,7.668-4.384,10.602-7.752c3.801-4.367,6.484-10.119,8.052-17.253
	C249.517,96.181,249.783,88.729,248.85,80.694z"/>
</svg>
