<?xml version="1.0" encoding="utf-8"?>
<!-- Generator: Adobe Illustrator 16.0.0, SVG Export Plug-In . SVG Version: 6.00 Build 0)  -->
<!DOCTYPE svg PUBLIC "-//W3C//DTD SVG 1.1//EN" "http://www.w3.org/Graphics/SVG/1.1/DTD/svg11.dtd">
<svg version="1.1" id="图层_1" xmlns="http://www.w3.org/2000/svg" xmlns:xlink="http://www.w3.org/1999/xlink" x="0px" y="0px"
	 width="443px" height="390px" viewBox="0 0 443 390" enable-background="new 0 0 443 390" xml:space="preserve">
<path d="M442.195,246.039c-4.437-22.05-14.929-39.613-31.475-52.69c-6.204-4.937-12.659-8.707-19.364-11.309
	c-4.063-1.579-7.579-2.521-10.575-2.855c6.087-3.686,11.4-8.384,15.929-14.108c5.138-6.472,8.707-13.327,10.708-20.566
	c0.534-2.035,0.217-3.353-0.95-3.953c-0.768-0.434-2.252-0.6-4.453-0.5c-8.641,0.4-16.696,2.419-24.169,6.055
	c-5.471,2.669-10.892,6.389-16.263,11.159c3.169-9.14,4.854-18.798,5.054-28.972c0.167-10.241-1.167-19.615-4.003-28.122
	c-0.267-0.801-0.817-1.118-1.651-0.951c-0.419,0.112-1.351,0.509-2.779,1.185c0.355-3.436,0.432-5.766,0.228-6.989
	c-0.5-3.136-2.285-5.571-5.354-7.306c-6.237-3.502-12.092-4.604-17.563-3.302v-0.05l-3.553-7.956
	c-1.367-2.502-2.719-3.87-4.053-4.103l-5.354,0.25l-4.503,1.151l-0.501-2.051c-0.399-1.735-0.616-6.805-0.65-15.212
	c-0.033-8.74,0.15-17.68,0.551-26.821c-0.3-1.201-0.834-2.502-1.602-3.903c-1.534-2.769-3.452-4.587-5.754-5.454l-15.662-4.003
	l-14.912-3.703c-1.033-0.333-6.154-0.4-15.361-0.2c-9.508,0.233-14.961,0.667-16.363,1.301l-2.15,0.851
	c-2.402,0.967-4.771,2.018-7.105,3.152c-2.303,1.134-3.736,1.952-4.304,2.452c-0.233,0.234-1.651,5.455-4.253,15.662
	c-2.836,11.309-5.055,18.931-6.656,22.868c-2.201-3.836-6.621-4.453-13.26-1.852c-0.534-1.501-0.9-2.769-1.101-3.803
	c-1.635-7.806-2.418-16.463-2.352-25.97l0.05-12.26c-2.102-3.402-3.703-5.404-4.804-6.004c-1.001-0.534-4.47-1.735-10.408-3.603
	c-6.338-2.001-10.524-3.119-12.56-3.353c-2.235-0.233-8.023-0.283-17.363-0.15l-16.012,0.7c-1.134,0.234-3.787,1.251-7.956,3.053
	c-4.17,1.734-6.438,2.785-6.806,3.152c-0.4,0.4-0.7,0.9-0.9,1.501l-1.101,4.554c-0.834,4.57-2.402,9.824-4.704,15.762
	c-1.668,4.27-3.252,7.873-4.753,10.808c-1.201,2.302-4.103,6.055-8.707,11.259c-3.402-1.101-7.589-1.268-12.56-0.5
	c-5.237,0.834-8.707,2.352-10.408,4.554c-1.401,1.801-2.585,4.604-3.553,8.406c-0.412,1.548-0.705,2.997-0.878,4.349
	c-1.328-1.757-2.488-3.059-3.475-3.898c-2.168-1.834-3.453-2.535-3.853-2.102c-0.3,0.3-0.233,1.685,0.2,4.153
	c1.167,6.338,1.751,11.842,1.751,16.513l-0.1,5.504c-8.307,5.704-15.695,12.91-22.167,21.616
	c-10.127,13.583-16.468,28.906-19.031,45.965c-4.005,7.87-7.27,13.601-9.791,17.184c-5.271,7.506-10.958,12.526-17.063,15.062
	c-3.403,1.401-5.921,2.936-7.556,4.604c-1.734,1.701-2.385,3.436-1.951,5.204c0.834,3.269,5.104,5.538,12.81,6.806
	c6.937,1.176,15.387,1.333,25.322,0.491l2.55,16.121c0.5,7.706-0.25,17.313-2.252,28.822c-3.236,18.48-9.14,33.042-17.713,43.684
	c-1.234,1.534-1.618,2.468-1.151,2.802l4.854,0.301l9.458-0.701l0.665-0.095c-2.851,6.076-4.526,11.114-5.018,15.106
	c-0.567,4.403,0.25,7.923,2.452,10.559c2.435,2.869,7.756,6.004,15.962,9.406c8.773,3.604,16.029,5.338,21.767,5.205
	c1.701-0.033,3.286-0.334,4.753-0.901c1.435-0.534,2.552-1.218,3.353-2.052c5.938,1.969,12.36,2.77,19.265,2.402
	c8.14-0.467,13.143-2.719,15.011-6.756c1.101-2.401,1.635-5.27,1.602-8.605c-0.023-2.27-0.316-4.382-0.848-6.355
	c2.245,0.737,3.962,1.222,5.151,1.451c1.268,0.233,1.918,0.15,1.951-0.25c0.067-0.4-0.434-1.401-1.501-3.002
	c-1.334-2.035-2.385-4.604-3.152-7.707c5.037,3.604,10.725,7.072,17.063,10.408c9.222,4.85,18.923,8.867,29.091,12.069
	l-2.921,20.306c-0.434,0.968-2.052,3.453-4.854,7.456c-3.036,4.304-4.82,6.922-5.354,7.856c-0.867,1.567-0.867,2.502,0,2.802
	c0.834,0.267,2.369-0.067,4.604-1.001c0.957-0.395,2.287-0.84,3.977-1.333c-0.862,1.562-1.516,2.887-1.925,3.935
	c-1.101,2.902-1.318,5.488-0.651,7.756c0.367,1.201,1.018,2.236,1.952,3.104c0.801,0.7,1.985,1.434,3.553,2.201
	c6.872,3.236,14.578,5.638,23.118,7.205c10.642,1.936,17.997,1.368,22.067-1.701c4.37,2.636,9.524,4.07,15.462,4.304
	c4.237,0.167,7.973-0.217,11.209-1.151l8.456-2.651c3.77-1.668,6.271-3.903,7.505-6.706c0.734-1.601,0.818-3.669,0.251-6.204
	c-0.291-1.321-0.82-2.905-1.548-4.709c2.392,0.894,4.215,1.615,5.451,2.157c2.001,0.867,3.303,1.117,3.902,0.75
	c0.668-0.4,0.518-1.635-0.45-3.703c-5.638-11.342-8.557-17.396-8.757-18.164c-0.066-0.299,0.367-4.203,1.301-11.709
	c0.226-1.801,0.415-3.414,0.57-4.847c1.692-0.274,3.379-0.556,5.047-0.864c3.923,2.22,8.317,4.243,13.197,6.063
	c5.626,2.092,11.192,3.677,16.703,4.797c0.101,1.502,0.703,3.222,1.812,5.16c1.769,3.103,7.339,6.338,16.713,9.707
	c9.04,3.27,16.996,5.088,23.868,5.455c2.469,0.133,4.854-0.584,7.155-2.152c1.468-0.967,2.803-2.201,4.004-3.703
	c3.869,2.002,7.622,3.403,11.258,4.203c3.67,0.801,8.707-0.517,15.112-3.952c4.604-2.469,7.989-4.737,10.157-6.806
	c0.867-0.801,1.218-2.652,1.051-5.555c-0.126-2.203-0.506-4.467-1.133-6.786c0.548-0.394,0.746-1.41,0.583-3.071l-0.801-4.754
	c-0.367-1.533-0.584-2.801-0.65-3.803l3.002,1.852l3.953,3.253c1.835,1.734,2.919,2.368,3.253,1.901
	c0.333-0.467,0.1-2.318-0.701-5.555l-5.454-19.264c-1.629-6.071-2.781-11.023-3.463-14.873c0.305-1.563,0.56-3.167,0.781-4.799
	c2.42-1.231,4.766-3.46,7.035-6.699c4.17-5.938,6.822-13.494,7.956-22.668c0.58-4.394,0.58-8.731,0.016-13.016
	c1.214-0.979,1.993-1.894,2.336-2.746c0.534-1.4,0.951-3.619,1.251-6.654l-0.821-0.853c3.413,2.055,7.11,3.931,11.13,5.605
	c6.972,2.902,14.16,4.888,21.566,5.954c6.505,0.968,11.775,1.085,15.812,0.352l1.952-0.501
	C442.396,247.641,442.396,247.04,442.195,246.039z"/>
</svg>
