<?xml version="1.0" encoding="utf-8"?>
<!-- Generator: Adobe Illustrator 16.0.0, SVG Export Plug-In . SVG Version: 6.00 Build 0)  -->
<!DOCTYPE svg PUBLIC "-//W3C//DTD SVG 1.1//EN" "http://www.w3.org/Graphics/SVG/1.1/DTD/svg11.dtd">
<svg version="1.1" id="图层_1" xmlns="http://www.w3.org/2000/svg" xmlns:xlink="http://www.w3.org/1999/xlink" x="0px" y="0px"
	 width="209px" height="182px" viewBox="0 0 209 182" enable-background="new 0 0 209 182" xml:space="preserve">
<path d="M198.844,92.82c6.088-9.049,9.248-16.568,9.48-22.557c0.134-3.427-0.715-4.907-2.545-4.441
	c-0.665,0.166-1.763,0.848-3.293,2.046c-2.691,2.042-4.815,3.5-6.385,4.392l-0.502-0.699l-1.248-1.497l-0.748-0.299
	c-0.081,0-0.15,0.05-0.213,0.125l-5.875,0.474l-2.362-0.148c-0.804-1.664-1.673-3.343-2.629-5.042
	c-1.164-2.129-2.978-2.895-5.439-2.295c-0.642,0.139-2.104,0.766-4.362,1.866c-1.005-1.316-2.219-2.716-3.672-4.211
	c-3.793-3.893-8.284-7.485-13.475-10.779c-14.705-9.282-29.227-13.873-43.566-13.773c-16.235,0.1-30.075,2.944-41.52,8.534
	c-8.272,4.048-14.858,9.264-19.769,15.64c-0.549-2.284-0.781-3.939-0.692-4.96c2.595-1.497,4.508-3.177,5.739-5.04
	c0.665-1.031,1.181-2.313,1.547-3.843c1.93-0.599,3.227-1.248,3.893-1.946c1.098-1.165,1.846-3.227,2.246-6.188
	c0.103-0.643,0.172-1.299,0.224-1.961c0.309-0.497,0.584-1.056,0.824-1.682c1.031-2.695,1.248-6.238,0.649-10.629
	c-0.798-4.192-2.845-7.403-6.138-9.631c-0.783-0.522-1.565-0.809-2.348-0.904c-1.646-2.229-3.57-4.359-5.787-6.382
	c-2.795-2.562-6.404-4.475-10.83-5.739c-4.558-1.297-8.933-1.597-13.125-0.898c-4.159,0.699-8.118,2.512-11.877,5.439
	c-3.593,2.761-6.421,6.072-8.484,9.931c-0.04,0.074-0.072,0.154-0.111,0.229c-1.083,1.133-2.145,2.826-3.182,5.111
	c-2.096,4.458-2.911,8.783-2.445,12.975c0.027,0.265,0.07,0.518,0.105,0.778c-0.332,2.72-0.542,5.563-0.604,8.554
	c-0.167,8.983,0.832,18.016,2.994,27.098c2.262,9.549,5.506,18.714,9.731,27.498c3.51,7.317,7.53,13.906,12.046,19.782
	c-3.649,6.356-6.768,15.096-9.352,26.229c-1.203,5.136-2.05,9.867-2.554,14.21c-2.08,1.64-3.892,5.203-5.431,10.742
	c0.066,0.365,0.648,0.532,1.747,0.499l3.919-0.287c-0.268,1.03-0.35,1.929-0.227,2.683l0.349,0.998
	c0.307,0.184,2.618-0.591,6.882-2.301c0.723,0.222,1.453,0.415,2.2,0.555c0.767,0.145,1.547,0.26,2.334,0.362
	c-0.153,1.031-0.262,2.097-0.288,3.229c-0.033,0.5,0.05,0.916,0.25,1.248l0.499,0.35c1.918-0.596,4.562-2.098,7.926-4.5
	c1.358-0.063,2.741-0.174,4.151-0.341c5.523-0.665,9.365-1.896,11.528-3.692c0.466-0.4,0.765-1.248,0.898-2.545l0.349-4.742
	c0.527-6.547,1.825-12.057,3.883-16.541c0.869,1.098,2.262,2.213,4.171,3.345c2.43,1.622,5.373,3.098,8.864,4.414
	c4.92,1.836,10.386,3.154,16.386,3.963c1.079,8.539,2.17,14.179,3.276,16.897c0.237,0.563,0.781,1.083,1.598,1.567
	c1.805,3.054,3.004,4.916,3.592,5.568l1.048,0.948c0.233,0.033,0.599-0.25,1.098-0.849c1.105-1.311,1.905-2.432,2.418-3.375
	c2.185,0.278,4.636,0.419,7.331,0.435c0.15,0.193,0.295,0.385,0.481,0.595l2.595,2.795c0.666,0.731,1.248,1.064,1.747,0.998
	c0.399-0.066,0.831-0.449,1.298-1.147l1.447-2.994l0.188-0.511c2.57-0.185,4.813-0.418,6.74-0.701
	c0.126,0.134,0.262,0.271,0.407,0.413l3.193,2.795c0.932,0.798,1.63,1.131,2.096,0.998c0.466-0.1,0.849-0.648,1.148-1.646
	c0.266-0.799,0.482-2.113,0.648-3.943l0.058-0.793c2.582-1.776,3.462-7.363,2.638-16.773c-0.124-1.41-0.292-2.845-0.501-4.301
	c10.057-2.983,20.055-7.326,29.993-13.065c0.979-0.849,2.299-2.924,3.952-6.211c0.333,2.702,0.43,7.229,0.29,13.597l-0.449,10.63
	c0,2.032,1.59,3.57,4.757,4.618c-0.019,0.295-0.014,0.56,0.034,0.771c0.232,1.064,0.998,2.428,2.295,4.092
	c0.533,0.699,0.965,1.098,1.298,1.197c0.366,0.066,0.731-0.149,1.099-0.648l1.596-2.195c0.576-0.85,0.913-1.533,1.037-2.066
	l4.468,0.144c0.252,0.633,0.708,1.403,1.383,2.321c1.031,1.398,1.78,2.229,2.245,2.496l0.749,0.398c0.3,0,0.599-0.299,0.897-0.898
	l1.447-2.445c0.319-0.678,0.498-1.289,0.565-1.847c1.616-0.155,3.112-0.367,4.47-0.648c0.255,0.362,0.617,0.776,1.104,1.248
	l2.545,2.146l1.447,0.849c0.466,0.167,0.782,0.017,0.948-0.448c0.267-0.6,0.466-1.498,0.599-2.695
	c0.181-1.232,0.222-2.464,0.157-3.695c0.198-0.132,0.409-0.257,0.592-0.396c2.329-1.764,3.626-3.544,3.893-5.34
	c0.798-6.188-1.165-16.801-5.889-31.84c-2.217-7.103-4.497-13.189-6.843-18.267C192.205,101.546,195.551,97.695,198.844,92.82z"/>
</svg>
