<?xml version="1.0" encoding="utf-8"?>
<!-- Generator: Adobe Illustrator 16.0.0, SVG Export Plug-In . SVG Version: 6.00 Build 0)  -->
<!DOCTYPE svg PUBLIC "-//W3C//DTD SVG 1.1//EN" "http://www.w3.org/Graphics/SVG/1.1/DTD/svg11.dtd">
<svg version="1.1" id="图层_1" xmlns="http://www.w3.org/2000/svg" xmlns:xlink="http://www.w3.org/1999/xlink" x="0px" y="0px"
	 width="115px" height="220px" viewBox="0 0 115 220" enable-background="new 0 0 115 220" xml:space="preserve">
<path d="M114.652,98.64c0-1.935-0.301-3.32-0.9-4.154c-0.327-0.453-0.835-0.81-1.521-1.073c-0.171-0.08-0.359-0.139-0.564-0.177
	c-0.058-0.016-0.106-0.037-0.166-0.052c-2.018-0.497-4.637,0.313-7.857,2.429c-0.287-0.925-0.579-1.85-0.901-2.779
	c-2.584-7.416-6.003-14.156-10.233-20.238c-0.009-0.079-0.015-0.149-0.025-0.231c-0.768-5.872-2.053-11.377-3.854-16.515
	c-1.388-3.987-2.83-7.005-4.328-9.062c2.212-4.335,3.326-9.119,3.326-14.359c0-8.941-3.219-16.582-9.658-22.921
	C71.563,3.169,63.822,0,54.748,0c-9.042,0-16.782,3.169-23.221,9.509c-6.406,6.339-9.608,13.979-9.608,22.921
	c0,6.092,1.49,11.571,4.464,16.44c-1.368,1.821-2.441,4.79-3.213,8.933c-0.934,5.238-1.051,10.326-0.35,15.264
	c-3.804,6.439-6.806,12.995-9.008,19.668c-0.342,1.044-0.657,2.081-0.953,3.114c-1.04-0.42-2.112-0.816-3.251-1.162
	c-3.77-1.167-6.306-1.268-7.606-0.3c-1.135,0.868-1.752,2.135-1.852,3.804c-0.2,3.37,1.334,7.807,4.604,13.313
	c1.896,3.213,3.693,5.761,5.396,7.675c0.749,11.744,4.699,21.834,11.87,30.259c5.826,6.881,12.983,11.617,21.474,14.209
	c-2.426,1.473-4.381,3.342-5.859,5.609c-2.469,3.77-3.12,7.439-1.952,11.01c1.05,3.293,3.161,5.719,6.312,7.297
	c-0.85,1.527-1.398,3.193-1.607,5.015c-0.233,2.035,0.017,3.819,0.75,5.354c1.401,3.003,4.304,5.105,8.708,6.307
	c5.004,1.4,10.693,1.184,17.065-0.651c2.273-0.649,4.407-1.534,6.419-2.627c-1.407,4.513-4.996,8.975-10.772,13.387l-4.054,3.153
	c-1.101,1-1.501,1.701-1.201,2.102l5.306,0.15c3.002-0.768,5.771-2.002,8.307-3.703c4.438-2.937,7.841-6.757,10.209-11.461
	c2.15-4.301,2.893-8.406,2.233-12.317c2.11-2.848,3.577-5.928,4.373-9.252c0.768-3.37,0.651-6.673-0.351-9.909
	c-0.994-3.086-2.668-5.708-5.017-7.87c-0.021-1.616-0.249-3.248-0.678-4.896c3.47-1.913,6.771-4.313,9.898-7.203
	c8.962-8.27,14.034-18.187,15.243-29.736c1.612-2.783,3.038-5.748,4.275-8.898C113.468,108.499,114.652,103.21,114.652,98.64z
	 M68.61,170.955l0.25,0.201l-2.052,3.002c-0.549,0.596-1.151,1.123-1.779,1.618c-3.008-0.425-6.001-0.394-8.98,0.134
	c-3.038,0.501-5.526,1.396-7.469,2.68c-0.616-0.41-1.084-0.965-1.389-1.68c-0.734-1.701,0.15-3.386,2.652-5.054
	c2.102-1.368,5.639-2.035,10.61-2.002C64.924,169.888,67.643,170.255,68.61,170.955z M76.919,181.131
	c-0.284-0.256-0.598-0.482-0.901-0.719c0.395-0.409,0.774-0.831,1.137-1.267C77.135,179.793,77.059,180.454,76.919,181.131z
	 M51.192,189.533c3.147,0.023,6.66-0.437,10.562-1.412c2.119-0.529,4.082-1.193,5.891-1.988c0.612,0.21,1.172,0.452,1.666,0.737
	c1.125,0.646,2.063,1.57,2.831,2.739c-0.451,0.426-0.922,0.836-1.429,1.214c-3.371,2.503-7.007,4.004-10.91,4.505
	c-3.67,0.5-6.323,0-7.958-1.502C50.578,192.683,50.37,191.249,51.192,189.533z"/>
</svg>
