<?xml version="1.0" encoding="utf-8"?>
<!-- Generator: Adobe Illustrator 16.0.0, SVG Export Plug-In . SVG Version: 6.00 Build 0)  -->
<!DOCTYPE svg PUBLIC "-//W3C//DTD SVG 1.1//EN" "http://www.w3.org/Graphics/SVG/1.1/DTD/svg11.dtd">
<svg version="1.1" id="图层_1" xmlns="http://www.w3.org/2000/svg" xmlns:xlink="http://www.w3.org/1999/xlink" x="0px" y="0px"
	 width="241px" height="254px" viewBox="0 0 241 254" enable-background="new 0 0 241 254" xml:space="preserve">
<path d="M240.25,107.717c-0.249-2.081-1.098-5.29-2.532-9.598c0.165-1.204,0.143-2.473-0.069-3.807
	c-0.7-4.535-3.451-9.554-8.253-15.056c-4.136-4.735-8.888-8.887-14.256-12.455c-5.446-3.641-12.912-4.289-22.394-1.947
	c-0.026-0.186-0.031-0.367-0.066-0.554c-0.421-2.346-1.637-4.35-3.631-6.018c2.309-2.463,4.146-5.383,5.482-8.788
	c1.301-3.368,1.95-6.686,1.951-9.954c-0.001-5.168,0.316-9.487,0.949-12.955c0.668-3.868,1.785-7.036,3.352-9.504
	c2.234-3.602,3.735-6.353,4.502-8.253c0.967-2.368,1.101-4.052,0.4-5.052c-0.4-0.567-1.201-0.967-2.4-1.201
	c-1.135-0.2-2.285-0.183-3.452,0.05c-5.636,1.167-12.138,4.168-19.508,9.003c-6.193,4.106-11.001,8.032-14.432,11.776
	c-0.91-0.518-1.829-0.996-2.758-1.425c0.251-0.762,0.382-1.576,0.382-2.448c0-2.234-0.8-4.202-2.4-5.902
	c-1.635-1.701-3.568-2.551-5.803-2.551s-4.201,0.784-5.902,2.351c-1.651,1.554-2.493,3.393-2.541,5.512
	c-2.645,0.159-5.348,0.598-8.113,1.341c-3.382,0.903-6.514,1.989-9.448,3.218c-2.384-3.958-7.172-8.533-14.362-13.723
	c-9.637-6.936-18.391-10.138-26.261-9.604c-2.368,0.167-4.068,1.134-5.102,2.901c-1.467,2.501-1.534,6.419-0.2,11.755
	c0.634,2.567,1.834,5.853,3.602,9.854c1.634,3.735,2.751,6.603,3.352,8.604c1.067,3.401,1.634,6.803,1.701,10.204
	c0.133,6.569,1.517,13.039,4.151,19.408c0.914,2.206,1.893,4.131,2.935,5.789c-0.274,1.116-0.557,2.206-0.856,3.251
	c-5.397-3.598-11.507-6.945-18.334-10.041c-10.471-4.769-18.775-6.886-24.911-6.353c-3.668,0.3-8.57,1.734-14.706,4.302
	c-6.103,2.534-12.105,5.636-18.007,9.304C7.87,78.088,0.584,85.825,0.45,92.361C0.421,94.7,0.664,96.89,1.147,98.948
	c-0.065,0.222-0.133,0.437-0.197,0.667c-0.9,3.401-1.184,6.252-0.851,8.553c0.267,2.001,0.967,3.018,2.101,3.051
	c0.333,0.034,1.05-0.217,2.151-0.75c0.2,1.767,0.667,3.301,1.4,4.602c0.667,1.167,1.417,1.951,2.251,2.351l2.401-0.05l3.702-2.151
	c0.567,0.934,1.25,1.484,2.051,1.65c1.534,0.367,3.251-0.017,5.152-1.15c0.38-0.239,0.765-0.518,1.15-0.814l6.953-0.786
	c3.701-0.934,7.319-2.484,10.854-4.652l8.253-6.053c2.467-1.967,4.318-3.334,5.552-4.102c1.967-1.267,3.768-2.051,5.402-2.351
	c2.334,0.4,6.086,1.284,11.255,2.651l9.02,2.184c-0.358,0.32-0.7,0.654-1.067,0.967c-1.204,1.038-2.395,2.212-3.576,3.499
	c-8.449-2.707-17.127-2.358-26.036,1.053c-9.104,3.501-15.923,9.237-20.458,17.207c-4.802,8.47-7.22,17.357-7.253,26.661
	c0,8.17,1.717,15.09,5.152,20.759c3.602,5.902,7.503,10.288,11.705,13.155c3.296,2.257,7.112,3.782,11.439,4.584
	c1.379,8.543,3.748,15.458,7.119,20.727c3.468,5.402,7.52,8.387,12.155,8.953c3.068,0.4,6.069-0.516,9.004-2.75
	c1.408-1.086,2.671-2.367,3.794-3.842c2.618-0.398,5.19-1.201,7.71-2.461c0.317-0.156,0.608-0.336,0.916-0.502
	c2.849,1.063,5.859,1.918,9.039,2.553c3.975,0.795,7.995,1.245,12.06,1.358l1.596,2.793c-4.435,1.901-6.636,4.685-6.603,8.354
	c0.033,2.368,0.833,4.552,2.401,6.553c4.402,5.603,9.304,10.054,14.706,13.355c4.77,2.968,9.621,4.853,14.557,5.652l0.003-0.028
	l6.3,1.328c4.769,0.701,9.137,0.65,13.105-0.149c1.234-0.233,1.918-0.567,2.051-1.001c0.107-0.324-0.062-0.951-0.481-1.849
	l2.982,0.249l3.602-0.051c1.7-0.199,2.651-0.434,2.851-0.7c0.101-0.167-0.066-0.733-0.5-1.7c-1.6-3.568-3.218-6.17-4.852-7.804
	c-0.994-0.964-2.676-2.106-5.029-3.424c-0.437-0.892-1.053-1.896-1.873-3.028l-2.201-3.152c4.902-1.033,9.604-2.984,14.105-5.852
	c5.535-3.535,9.721-7.903,12.555-13.105c3.269-5.902,4.902-12.339,4.902-19.309c0-3.501-0.666-7.469-2-11.904
	c-0.968-3.234-2.585-7.57-4.853-13.006l-0.394-0.738c0.934-3.997,1.498-8.162,1.645-12.518c0.3-9.67-1.334-19.891-4.902-30.662
	l-3.802-10.715c4.873-5.815,9.509-10.005,13.905-12.545c2.068-1.2,5.152-2.384,9.254-3.551l6.503,4.552l7.253,4.852
	c3.668,2.067,7.287,3.452,10.855,4.152c1.232,0.235,2.413,0.37,3.547,0.416c4.061,3.15,6.514,4.363,7.357,3.636
	c0.37-0.321,0.437-0.991,0.204-2.005c2.905,1.743,4.845,2.237,5.798,1.455c0.301-0.233,0.417-0.7,0.35-1.401l-0.124-0.744
	c1.577,1.026,2.722,1.328,3.426,0.895C240.283,110.585,240.483,109.485,240.25,107.717z M58.759,135.722
	c-1.144,1.491-2.196,3.117-3.136,4.909c-1.471,2.786-2.62,5.847-3.461,9.169c0.236-1.571,0.568-3.111,1.011-4.616
	c1.529-4.867,3.578-8.588,6.137-11.184C59.122,134.573,58.933,135.145,58.759,135.722z M66.047,118.933
	c-4.172,0.367-8.165,1.838-11.974,4.441c-4.168,2.834-7.537,6.619-10.104,11.354c-3.535,6.503-4.902,14.057-4.102,22.66
	c0.642,6.762,2.561,12.715,5.741,17.87c-1.101-0.675-2.229-1.581-3.39-2.765c-1.968-1.934-3.552-4.135-4.752-6.603
	c-2.368-4.802-3.485-10.188-3.352-16.157c0.1-5.234,1.084-9.87,2.951-13.905c2.768-6.003,6.937-10.838,12.505-14.506
	c5.825-3.851,11.732-5.336,17.72-4.477C66.865,117.538,66.45,118.233,66.047,118.933z"/>
</svg>
