<?xml version="1.0" encoding="utf-8"?>
<!-- Generator: Adobe Illustrator 16.0.0, SVG Export Plug-In . SVG Version: 6.00 Build 0)  -->
<!DOCTYPE svg PUBLIC "-//W3C//DTD SVG 1.1//EN" "http://www.w3.org/Graphics/SVG/1.1/DTD/svg11.dtd">
<svg version="1.1" id="图层_1" xmlns="http://www.w3.org/2000/svg" xmlns:xlink="http://www.w3.org/1999/xlink" x="0px" y="0px"
	 width="239px" height="289px" viewBox="0 0 239 289" enable-background="new 0 0 239 289" xml:space="preserve">
<path d="M233.65,86.173c-2.465-7.161-7.561-12.206-15.287-15.137c-7.826-2.964-17.185-3.347-28.075-1.149
	c-19.582,3.91-36.223,14.345-49.942,31.266c-5.241-4.754-11.397-8.642-18.498-11.633c-6.959-2.927-14.326-4.691-22.086-5.329
	c5.782-5.108,11.381-11.05,16.79-17.851c5.595-7.061,10.024-13.805,13.288-20.232c5.096-10.025,6.828-19.034,5.196-27.027
	c-1.599-7.76-6.112-13.372-13.538-16.835c-7.927-3.63-16.569-3.097-25.928,1.599c-9.891,4.962-17.668,13.322-23.33,25.079
	c-4.163,8.625-6.261,18.084-6.294,28.375c-0.064,10.126,1.897,20.02,5.842,29.684c-1.154,0.337-2.303,0.697-3.444,1.089
	c-8.56,2.931-15.903,7.127-22.031,12.589c-6.395,5.729-10.824,12.339-13.288,19.833c-4.097,12.422-4.18,23.979-0.25,34.67
	c2.136,5.892,5.411,11.245,9.801,16.071c-7.976-2.375-12.315-3.787-12.998-4.231c-0.366-0.233-0.766-0.866-1.199-1.898l-0.899-2.397
	l-1.299-2.598c-0.666-0.867-1.549-1.35-2.648-1.449c-0.633-0.033-1.365,0.333-2.198,1.099c-0.833,0.8-1.582,1.815-2.248,3.048
	c-4.163,7.493-5.212,14.237-3.147,20.232c2.103,6.027,7.435,11.565,15.989,16.617c-2.105,3.539-3.676,6.973-4.712,10.301
	c-0.29,0.012-0.597,0.029-0.936,0.059c-1.465,0.133-3.48,0.865-6.044,2.198c-2.498,1.299-3.947,1.948-4.346,1.948l-4.346-1.1
	c-2.265-0.699-4.03-0.965-5.295-0.799c-2.231,0.267-3.93,2.231-5.096,5.895c-1.199,3.697-1.382,7.693-0.55,11.99
	c1.799,9.158,7.144,16.02,16.036,20.582c8.693,4.463,16.536,4.729,23.53,0.799c4.196,3.264,10.108,6.045,17.735,8.344
	c-0.5,2.53-1.782,5.828-3.847,9.891c-2.032,3.996-3.098,6.345-3.197,7.044c-0.333,2.132,0.466,3.964,2.398,5.495
	c2.065,1.633,4.962,2.448,8.692,2.448c12.763,0,23.82-4.336,33.175-13.002c5.103,1.9,10.363,1.839,15.783-0.237
	c5.862-2.264,9.974-6.111,12.339-11.539c2.332-5.43,2.231-11.074-0.3-16.936c-1.96-4.487-4.819-7.934-8.556-10.364
	c0.142-0.952,0.27-1.916,0.385-2.891c4.25,1.254,9.217,1.499,14.915,0.716c10.591-1.466,18.052-5.679,22.381-12.639
	c1.998-3.164,3.197-6.562,3.597-10.191c0.166-1.932-0.316-3.348-1.449-4.246c-1.198-0.967-3.03-1.266-5.494-0.9l-7.045,0.301
	c-1.831-0.134-5.145-1.217-9.941-3.248l-5.776-2.625c3.633-0.946,7.125-2.217,10.473-3.819c9.825-4.729,16.503-11.206,20.032-19.433
	c2.965-6.895,4.514-14.404,4.646-22.531c0.152-7.547-0.943-14.909-3.258-22.092c4.686,1.015,10.106,1.641,16.297,1.86
	c8.592,0.333,15.686-0.133,21.281-1.399c14.221-3.197,24.979-9.159,32.271-17.885C234.666,103.324,236.648,94.832,233.65,86.173z"/>
</svg>
