<?xml version="1.0" encoding="utf-8"?>
<!-- Generator: Adobe Illustrator 16.0.0, SVG Export Plug-In . SVG Version: 6.00 Build 0)  -->
<!DOCTYPE svg PUBLIC "-//W3C//DTD SVG 1.1//EN" "http://www.w3.org/Graphics/SVG/1.1/DTD/svg11.dtd">
<svg version="1.1" id="图层_1" xmlns="http://www.w3.org/2000/svg" xmlns:xlink="http://www.w3.org/1999/xlink" x="0px" y="0px"
	 width="265px" height="205px" viewBox="0 0 265 205" enable-background="new 0 0 265 205" xml:space="preserve">
<path d="M258.402,50.401c-4.196-9.691-10.507-18.266-18.932-25.725c-8.725-7.726-19.115-13.703-31.17-17.933
	C195.514,2.248,181.561,0,166.441,0c-11.555,0-22.777,1.731-33.667,5.195c-10.956,3.497-20.68,8.458-29.171,14.885
	c-8.825,6.694-15.651,14.503-20.48,23.427c-5.162,9.558-7.742,19.864-7.742,30.92c0,0.954,0.027,1.901,0.066,2.847
	c-10.093,0.164-20.172,2.541-30.237,7.144c-12.021,5.562-21.179,13.187-27.473,22.877c-4.096,6.294-6.677,12.754-7.742,19.381
	c-0.844,5.265-0.695,10.326,0.443,15.185c-1.688,2.14-3.22,4.647-4.589,7.544c-3.097,6.494-4.979,14.103-5.645,22.828
	c-0.1,1.73,0.116,5.128,0.649,10.189c0.366,3.197,2.248,5.628,5.645,7.293c2.93,1.432,6.227,2.048,9.89,1.848
	c3.063-0.166,5.728-0.998,7.992-2.497c2.498-1.665,3.879-3.78,4.146-6.344c0.598-5.686,1.438-11.237,2.521-16.656
	c0.982,0.556,1.959,1.094,2.929,1.604c-2.622,9.685-3.41,18.316-2.353,25.891c0.5,3.73,2.78,6.627,6.843,8.691
	c3.53,1.799,7.526,2.648,11.988,2.549c3.696-0.101,6.943-0.816,9.74-2.148c3.297-1.565,5.045-3.613,5.245-6.145l0.949-10.24
	c0.256-2.389,0.534-4.604,0.834-6.651c7.932,1.829,15.61,2.927,23.033,3.291c0.107,0.989,0.35,1.854,0.759,2.562
	c1.132,1.932,3.497,3.43,7.093,4.496c2.764,0.865,5.811,1.148,9.141,0.85c3.763-0.301,6.86-1.283,9.291-2.947
	c2.374-1.623,3.817-4.369,4.347-8.215c3.611-1.062,7.041-2.375,10.298-3.93c0.372,1.441,0.639,3.261,0.79,5.5l0.399,10.84
	c0.066,1.698,1.748,3.197,5.045,4.496c3.396,1.332,7.359,1.98,11.889,1.947c3.33,0,6.294-0.6,8.891-1.798
	c2.831-1.266,4.613-2.98,5.346-5.146c1.798-5.295,1.648-12.971-0.449-23.027c-1.583-7.59-3.625-13.313-6.126-17.177
	c5.279,0.651,10.681,0.993,16.216,0.993c18.615,0,35.598-4.729,50.949-14.187c14.953-9.224,24.893-20.729,29.822-34.517
	c2.63-0.399,4.729-2.197,6.293-5.395c1.832-3.83,2.998-9.74,3.497-17.732C264.413,70.131,262.631,60.091,258.402,50.401z
	 M112.772,18.536c4.421-2.935,9.076-5.434,13.963-7.5C121.955,13.138,117.301,15.641,112.772,18.536z M127.614,10.659
	c0.241-0.099,0.479-0.203,0.721-0.3C128.094,10.46,127.853,10.557,127.614,10.659z"/>
</svg>
