<?xml version="1.0" encoding="utf-8"?>
<!-- Generator: Adobe Illustrator 16.0.0, SVG Export Plug-In . SVG Version: 6.00 Build 0)  -->
<!DOCTYPE svg PUBLIC "-//W3C//DTD SVG 1.1//EN" "http://www.w3.org/Graphics/SVG/1.1/DTD/svg11.dtd">
<svg version="1.1" id="图层_1" xmlns="http://www.w3.org/2000/svg" xmlns:xlink="http://www.w3.org/1999/xlink" x="0px" y="0px"
	 width="278px" height="255px" viewBox="0 0 278 255" enable-background="new 0 0 278 255" xml:space="preserve">
<path d="M270.118,29.151l-17.822,6.49c1.297-3.162,4.876-8.154,10.733-14.977l10.684-12.53c2.029-2.962,2.578-5.342,1.646-7.139
	c-1.031-1.963-3.693-1.198-7.988,2.297c-23.43,19.204-41.002,32.216-52.719,39.039c-2.795,1.598-4.892,3.512-6.289,5.741
	c-0.864,1.365-2.463,4.826-4.793,10.384l-3.295,8.188c-1.498,3.395-2.994,5.958-4.491,7.688l-4.693,4.643l-4.593,4.144
	c-2.895,2.796-4.992,5.142-6.29,7.039c-1.465,2.131-2.246,4.178-2.347,6.141c-0.031,0.722-0.063,1.415-0.097,2.095
	c-3.525-4.292-7.037-8.072-10.534-11.333c-3.032-2.844-6.309-5.521-9.809-8.042c0.141-12.953,0.165-21.289,0.071-25.005
	c-0.066-3.461-0.731-5.508-1.996-6.14c-1.397-0.699-2.978,0.882-4.742,4.742l-5.94,15.026c-3.461-11.349-6.673-25.127-9.635-41.335
	c-2.03-10.983-3.761-16.79-5.192-17.423c-1.264-0.565-2.695,0.117-4.293,2.047c-1.564,1.863-2.445,3.81-2.647,5.844l-0.15,3.095
	c-0.199,7.921-0.582,14.195-1.148,18.821c-1.132,9.019-3.078,15.259-5.841,18.72c-1.331-2.097-3.278-5.674-5.841-10.733
	l-5.691-11.183l-2.846-5.342c-0.932-1.531-1.897-2.03-2.896-1.498c-1.132,0.566-1.747,2.446-1.847,5.641l-0.354,8.242
	c-0.395-0.407-0.792-0.785-1.191-1.105c-5.092-4.061-10.999-9.436-17.722-16.125L63.142,10.532L57.95,5.29
	c-2.03-1.763-3.461-2.362-4.293-1.797c-2.296,1.531-1.115,6.473,3.545,14.827l5.891,9.834c1.597,2.862,2.612,5.858,3.045,8.986
	c-2.13,0.233-5.924-0.832-11.382-3.195c-4.592-1.998-7.072-2.497-7.438-1.498c-0.399,1.032-0.333,2.363,0.2,3.994
	c0.632,1.93,1.731,3.494,3.295,4.692c2.862,2.196,5.74,5.774,8.636,10.733c3.116,5.33,5.456,11.162,7.045,17.48
	c-0.191,0.766-0.409,1.8-0.657,3.137l-1.498,7.688c-2.729-2.363-6.739-6.623-12.031-12.78l-12.83-15.476l-6.689-8.387
	c-0.566-0.566-1.232-0.915-1.997-1.048c-0.766-0.1-1.481,0.05-2.147,0.449c-0.865,0.499-1.547,1.397-2.043,2.694
	c-0.566,1.498-0.616,2.979-0.15,4.443c1.831,5.991,3.528,14.045,5.092,24.162c1.328,8.586,1.932,15.464,1.81,20.632
	c-1.107,0.117-4.179,0.082-9.251-0.112c-5.225-0.2-8.254-0.25-9.086-0.15c-2.23,0.332-3.711,1.264-4.441,2.793
	c-0.866,1.864-0.816,4.86,0.149,8.986l2.097,7.539c1.298,5.225,1.714,8.437,1.248,9.635c-0.832,2.03-3.028,5.756-6.589,11.182
	c-3.095,4.692-4.709,7.755-4.842,9.187c-0.34,4.24,0.374,7.753,2.125,10.551c-0.227,2.04-0.503,5.241-0.83,9.618l-1.498,17.174
	l-0.899,10.332c-0.033,1.731,0.166,3.146,0.599,4.244c0.333,0.887,0.874,1.664,1.599,2.344c-0.585,0.913-1.152,1.95-1.696,3.147
	c-1.731,3.894-2.23,6.14-1.498,6.739c0.899,0.766,3.894,0.3,8.986-1.397c3.465-1.133,5.793-2.17,7.039-3.117
	c1.969,0.547,3.738,0.844,5.292,0.869c1.41,0,2.953-0.23,4.615-0.667c0.814,0.904,2.379,2.122,4.72,3.664
	c2.895,1.93,4.776,2.846,5.641,2.746c0.932-0.134,1.764-1.998,2.496-5.592c0.578-2.865,0.703-4.97,0.389-6.341l1.258-1.947
	l3.644-6.19l3.395-5.541c0.683-1.049,1.409-1.995,2.171-2.856l3.632-0.197c1.167,1.157,2.055,2.084,2.65,2.771
	c0.095,2.218,0.866,4.063,2.329,5.526c0.177,0.177,0.452,0.354,0.772,0.534c-0.081,2.709-0.353,6.81-0.821,12.348l-1.647,15.573
	c-1.057,8.102-1.063,13.886-0.024,17.365c-0.647,0.626-1.467,1.504-2.472,2.653c-2.03,2.295-3.478,4.244-4.343,5.841
	c-0.832,1.53-1.082,2.528-0.749,2.995c0.266,0.365,0.998,0.498,2.196,0.398c2.397-0.167,5.425-0.798,9.086-1.896
	c2.177-0.641,3.705-1.195,4.622-1.666c0.265,0.091,0.578,0.194,0.927,0.306c0.519,1.123,1.591,2.621,3.237,4.506
	c2.496,2.862,4.21,4.276,5.142,4.243c0.766-0.033,2.48-1.348,5.142-3.943c1.602-1.563,2.724-2.831,3.397-3.824l3.121-0.421
	c0.751,0.766,2.083,1.729,4.015,2.896c3.062,1.864,5.458,2.995,7.188,3.396l1.897,0.1c0.367-0.232,0.483-0.865,0.35-1.896
	c-0.133-1.266-0.766-3.229-1.897-5.892c-1.198-2.796-2.213-4.593-3.045-5.392c-0.121-0.121-0.251-0.213-0.382-0.305l2.73-8.381
	c0.433-1.332,2.08-4.992,4.942-10.982l4.52-9.542c0.417,0.175,0.81,0.252,1.17,0.208c1.235-0.19,3.891-1.663,7.93-4.385
	c0.779,1.229,1.771,2.361,3.004,3.385c2.296,1.897,4.992,3.195,8.087,3.894l2.846-0.149c0.466-0.332,1.031-1.164,1.697-2.496
	c0.024-0.048,0.055-0.096,0.08-0.143l3.515,1.49c3.428,1.131,6.823,1.63,10.184,1.497c2.829-0.101,7.788-2.496,14.876-7.188
	c4.096-2.73,7.532-5.347,10.355-7.856l1.726,3.261l0.416,0.901c-0.988,0.499-2.158,1.414-3.511,2.745
	c-2.03,2.031-3.412,3.861-4.144,5.492c-0.5,1.131-0.582,1.846-0.25,2.146l2.646,0.25c2.596-0.167,5.424-0.7,8.486-1.598
	c2.248-0.653,3.766-1.282,4.586-1.888c2.255,0.181,5.001,0.184,8.238,0.008c0.956,0.531,2.475,1.139,4.598,1.828
	c3.695,1.165,7.057,1.948,10.085,2.347c1.165,0.135,1.88,0.033,2.146-0.299c0.4-0.533,0.067-1.847-0.998-3.943
	c-0.58-1.162-1.198-2.244-1.854-3.249c0.455-0.617,0.875-1.366,1.254-2.269c2.47,0.665,5.03,1.115,7.688,1.324
	c1.664,0.166,2.613,0,2.846-0.5c0.234-0.531-0.314-1.581-1.646-3.145l-4.842-4.594l-2.068-1.611
	c0.449-3.747,0.523-7.263,0.172-10.519l-0.752-6.19l-1.197-13.18c-0.431-4.326-0.81-7.238-1.142-8.752l1.892-1.631
	c0.699-1.099,0.716-2.813,0.05-5.143c-1.353-4.562-3.263-9.846-5.715-15.834c1.179-0.805,2.479-1.617,3.918-2.438
	c5.891-3.361,13.296-6.456,22.215-9.285c1.831-0.599,4.06-2.063,6.688-4.393c2.697-2.396,4.311-4.426,4.844-6.09
	c0.865-5.026,1.779-10.018,2.746-14.977c1.93-9.818,4.326-18.072,7.188-24.761c3.828-9.019,8.154-16.84,12.98-23.463
	c4.094-5.558,8.221-9.851,12.381-12.88c2.23-1.63,2.994-3.211,2.296-4.742C273.746,28.468,272.314,28.186,270.118,29.151z"/>
</svg>
