<?xml version="1.0" encoding="utf-8"?>
<!-- Generator: Adobe Illustrator 16.0.0, SVG Export Plug-In . SVG Version: 6.00 Build 0)  -->
<!DOCTYPE svg PUBLIC "-//W3C//DTD SVG 1.1//EN" "http://www.w3.org/Graphics/SVG/1.1/DTD/svg11.dtd">
<svg version="1.1" id="图层_1" xmlns="http://www.w3.org/2000/svg" xmlns:xlink="http://www.w3.org/1999/xlink" x="0px" y="0px"
	 width="249px" height="166px" viewBox="0 0 249 166" enable-background="new 0 0 249 166" xml:space="preserve">
<path d="M245.143,106.418c-0.521-0.929-1.101-1.837-1.722-2.73c2.206-9.215,2.768-14.475,1.672-15.754l-1.804-0.1
	c-1.703,0.301-4.892,1.436-9.566,3.406c-0.857,0.365-1.616,0.698-2.326,1.016c-3.783-2.536-8.165-4.862-13.152-6.977
	c-7.609-3.211-14.226-5.21-19.856-6.006c-0.205-4.604-0.869-9.021-1.966-13.262c0.666-0.954,1.421-2.064,2.287-3.373
	c3.072-4.642,4.658-7.464,4.759-8.465c0.033-0.368-0.067-0.635-0.301-0.801l-8.165-0.451l-3.528,0.294
	c-1.275-2.415-2.731-4.757-4.356-7.029c0.42-1.574,0.894-3.497,1.424-5.787c1.636-6.913,2.32-11.187,2.053-12.823
	c0-0.501-0.199-0.835-0.601-1.002c-0.868-0.334-4.107,0.451-9.718,2.354c-2.801,0.957-5.214,1.852-7.262,2.687
	c-7.605-5.842-16.041-9.667-25.312-11.46c1.599-3.31,2.796-5.923,3.571-7.807c2.338-5.443,3.089-8.582,2.254-9.417
	c-0.268-0.267-1.219,0.083-2.855,1.052c-1.869,1.069-5.894,3.606-12.071,7.614l-6.512-7.514c-2.672-2.838-4.458-4.191-5.36-4.057
	c-0.935,0.167-2.287,2.037-4.057,5.61c-0.835,1.703-2.188,4.792-4.058,9.267l-9.066-5.961c-3.206-2.07-5.092-3.039-5.66-2.905
	c-0.734,0.201-1.553,2.221-2.455,6.061l-1.853,8.716c-1.937-0.768-4.675-1.636-8.215-2.605l-5.71-1.402
	c-0.467-0.033-0.785,0.1-0.952,0.401c-0.167,0.3-0.134,0.685,0.1,1.152c1.102,2.171,3.807,5.109,8.115,8.816l4.68,3.827
	c-0.543,0.403-1.079,0.826-1.614,1.25c-1.818-0.624-4.175-1.314-7.073-2.071c-6.211-1.603-9.951-2.371-11.22-2.304
	c-1.703,0.066-2.471,0.685-2.304,1.853c0.234,1.703,1.82,5.844,4.759,12.422c0.793,1.759,1.5,3.284,2.126,4.592
	c-2.244,3.21-4.138,6.564-5.691,10.057c-1.568,0.15-3.65,0.476-6.253,0.979c-6.011,1.202-9.167,2.187-9.467,2.956
	c-0.267,0.701,1.77,3.022,6.111,6.962c2.193,2.004,3.898,3.49,5.133,4.475c-0.227,1.486-0.404,2.992-0.529,4.519
	c-9.44,1.113-18.823,3.528-28.146,7.285c-6.309,2.545-11.958,5.501-16.967,8.857c-0.559-0.464-1.143-0.942-1.767-1.443
	c-4.675-3.707-7.697-5.66-9.066-5.861l-0.902,0.201c-0.568,0.501-0.835,2.988-0.801,7.463l0.2,8.466
	c0.015,0.566,0.037,1.083,0.062,1.574c-0.798,0.861-1.575,1.736-2.315,2.634c-1.215,1.468-2.283,2.938-3.223,4.408l-1.586,0.199
	c-3.673,0.668-5.928,1.42-6.762,2.254L0,113.33l0.2,0.701c0.381,0.838,1.869,2.56,4.45,5.153c-0.616,2.369-0.886,4.742-0.793,7.119
	c0.2,5.61,2.188,10.401,5.961,14.376c4.041,4.274,9.333,6.645,15.878,7.113c2.573,0.183,5.113,0.022,7.62-0.465
	c2.36,2.094,3.904,3.212,4.603,3.319c0.267,0.067,0.534-0.033,0.801-0.3c0.557-0.581,1.187-2.389,1.889-5.42
	c2.288-1.073,4.548-2.437,6.777-4.098c0.73-0.541,1.517-1.193,2.356-1.947c5.149,0.718,8.204,0.816,9.164,0.294l0.451-0.701
	c0.06-0.81-0.859-3.034-2.74-6.647l3.591-3.871c4.508-4.575,8.615-8.416,12.322-11.521c1.854-1.567,3.807-3.099,5.806-4.614
	c2.947,5.576,6.815,10.774,11.625,15.585c3.075,3.066,6.306,5.752,9.688,8.062c0.316,2.495,3.743,6.983,10.298,13.477
	c6.378,6.245,12.072,11.036,17.081,14.376c2.471,1.637,4.158,2.254,5.06,1.854c1.47-0.668,3.706-5.443,6.712-14.326
	c0.067-0.201,0.129-0.394,0.194-0.593c4.51,4.344,7.584,6.661,9.223,6.954c1.67,0.268,6.695-3.605,15.077-11.621
	c7.132-6.823,11.676-11.978,13.655-15.475c0.971-0.871,1.933-1.765,2.875-2.707c6.274-6.274,10.959-13.202,14.063-20.78l3.969,4.351
	l6.813,7.363l3.727,3.899c-0.111,0.717-0.219,1.462-0.32,2.261c-0.334,2.505-0.501,4.575-0.501,6.211c0,2.404,0.15,3.758,0.45,4.059
	l1.453,0.3c1.436-0.167,4.357-1.186,8.766-3.056c0.261-0.108,0.491-0.208,0.738-0.313c3.324,2.083,6.717,3.354,10.182,3.77
	c4.875,0.567,9.083-0.484,12.623-3.156c3.606-2.738,5.71-6.629,6.311-11.671C248.699,115.734,247.715,110.992,245.143,106.418z"/>
</svg>
