<?xml version="1.0" encoding="utf-8"?>
<!-- Generator: Adobe Illustrator 16.0.0, SVG Export Plug-In . SVG Version: 6.00 Build 0)  -->
<!DOCTYPE svg PUBLIC "-//W3C//DTD SVG 1.1//EN" "http://www.w3.org/Graphics/SVG/1.1/DTD/svg11.dtd">
<svg version="1.1" id="图层_1" xmlns="http://www.w3.org/2000/svg" xmlns:xlink="http://www.w3.org/1999/xlink" x="0px" y="0px"
	 width="249px" height="309px" viewBox="0 0 249 309" enable-background="new 0 0 249 309" xml:space="preserve">
<path d="M242.18,96.372c-4.463-5.263-11.024-8.926-19.684-10.991c-8.66-2.098-15.072-1.565-19.235,1.599
	c-3.964,3.031-9.026,10.858-15.188,23.481c-3.063,6.329-5.745,12.357-8.044,18.085l-0.898,1.749l-1.079,1.239
	c-1.111,0.064-2.285,0.067-3.567-0.04l-3.547-0.7c-0.8-0.299-1.299-0.416-1.499-0.35c-0.2,0.033-0.45,0.4-0.749,1.099l-3.244,5.925
	c-2.545,0.671-5.306,1.186-8.281,1.544l-4.112-4.372c-0.433-0.466-0.749-0.7-0.949-0.7c-0.267,0-0.683,0.283-1.249,0.85
	l-4.605,4.828l-9.328-0.467c1.153-2.514,2.187-4.322,3.092-5.411l0.75-1.299c-0.033-0.333-0.434-0.733-1.199-1.199l-3.098-2.148
	l-1.45-1.132c0.027-0.753,0.099-1.387,0.213-1.9c5.057-1.663,9.484-3.836,13.292-6.515c5.673,3.623,8.666,5.356,8.979,5.2
	c0.3-0.133,0.566-2.864,0.799-8.193c4.264-2.598,6.313-4.097,6.146-4.496l-3.946-3.297l-1.108-0.821
	c4.251-7.051,5.817-14.84,4.688-23.37l1.516,0.91c0.898,0.566,1.432,0.816,1.598,0.75l1.1-2.498l1.199-3.497l2.049,2.947l0.6,0.1
	l0.849-0.649c1.266-0.866,3.497-1.549,6.694-2.048l7.794,3.297c0.866,0.366,1.399,0.466,1.599,0.299l-0.05-1.099l-1.349-3.597
	l-1.499-3.797l4.296-1.949c2.432-1.132,3.598-1.815,3.498-2.048c-0.1-0.233-1.398-0.649-3.896-1.249l-4.396-1.099
	c0.565-3.83,0.699-5.795,0.398-5.895c-0.199-0.067-1.881,0.75-5.045,2.448l-5.047,2.748c-6.527-2.665-13.505-6.512-20.933-11.541
	c-13.922-9.459-25.146-20.684-33.672-33.673l1.948-6.445l1.149-4.696c0.133-0.699,0.083-1.116-0.15-1.249
	c-0.2-0.1-0.899-0.1-2.098,0l-6.095,0.35l-4.846-9.942c-0.466-0.933-0.849-1.416-1.149-1.449c-0.333-0.033-0.666,0.5-0.999,1.599
	l-3.147,9.742l-10.392,0.35c-0.233,0.1,0.699,2.132,2.798,6.095l3.397,6.345c-2.564,5.529-6.561,12.224-11.99,20.084
	C80.51,57.57,70.435,68.428,59.577,76.788l-6.445,0.599l-4.996,0.25c-0.533,0.033-0.8,0.133-0.8,0.3l0.2,0.699l0.849,1.999
	l1.249,3.147l-7.344,5.446c-0.799,0.766-1.215,1.232-1.249,1.398c0,0.2,0.4,0.283,1.199,0.25l8.793-0.999l0.899,3.347
	c0.5,1.798,0.866,2.814,1.099,3.047c0.366,0.333,5.196-1.815,14.488-6.445l7.83,1.74c-0.014,1.641,0.103,3.292,0.363,4.955
	c2.065,13.356,9.176,22.648,21.333,27.877c3.22,1.362,6.701,2.38,10.429,3.075l-0.38,2.453l-0.557,0.417
	c-1.365,1.065-2.998,1.981-4.896,2.748c-0.833,0.366-1.282,0.666-1.349,0.899c-0.067,0.233,0.167,0.683,0.699,1.349
	c1.232,1.432,2.048,2.582,2.448,3.447l0.707,1.092l-0.107,0.107l-10.56-0.514l-0.081-0.036c-1.132-0.533-2.448-1.449-3.947-2.748
	l-2.548-2.398c-0.433-0.433-0.766-0.683-1-0.75c-0.266-0.033-0.599,0.1-0.999,0.399l-2.748,2.249l-3.17,2.127l-12.66-0.713
	c-0.643-0.455-1.673-1.469-3.105-3.063l-2.897-3.447l-0.55-0.599c-0.133-0.034-0.333,0.066-0.599,0.299l-3.597,3.498
	c-2.097,1.893-3.812,3.06-5.145,3.501c-3.123,0.28-5.522,0.728-7.196,1.344c-1.711,0.571-3.566,1.57-5.547,2.947
	c-1.293,0.165-2.868,0.25-4.745,0.25l-5.096-0.2l-2.648,0.05c-0.133,0.167-0.167,0.999-0.1,2.498l-0.05,5.745
	c-0.063,1.431-0.145,2.601-0.245,3.527c-2.689,3.004-5.391,6.309-8.106,9.93l-1.891,0.383l-5.446,0.549l-4.247,0.449l-2.797,0.4
	c-0.4,0.199-0.616,0.434-0.649,0.699l0.299,1.049l1.649,3.997l1.999,5.396c0.337,1.027,0.574,1.951,0.715,2.774
	c-0.753,1.394-1.788,3.542-3.113,6.468c-1.432,3.064-2.381,5.796-2.848,8.193c-0.466,2.332-0.45,4.147,0.05,5.446
	c1.965,5.263,6.828,10.009,14.588,14.238c7.76,4.196,14.472,5.778,20.134,4.746c3.73-0.699,6.961-2.931,9.692-6.694
	c2.564-3.497,6.428-10.875,11.59-22.133l5.446-11.939c2.098-4.43,3.847-7.511,5.246-9.242c2.432-2.998,11.108-5.014,26.029-6.046
	c-0.999,1.832-3.397,5.612-7.194,11.341l-11.08,16.742l-3.759,1.594l-3.097,0.699c-0.733,0.133-1.183,0.299-1.349,0.5
	c-0.2,0.199-0.233,0.599-0.1,1.198l0.799,2.897c0.366,1.766,0.399,3.465,0.1,5.096l-0.186,0.791l-5.013,7.672
	c-2.93,1.829-5.86,3.111-8.79,3.828l-1.799,0.499c-0.133,0.101-0.15,0.499-0.05,1.199l0.849,4.746
	c0.292,1.821,0.449,3.177,0.475,4.077c-2.231,3.614-3.959,6.545-5.184,8.791c-1.739,0.765-4.482,1.636-8.28,2.619
	c-1.033,0.267-1.632,0.5-1.799,0.699c-0.2,0.2-0.167,0.633,0.1,1.299l1.798,5.496c0.555,1.884,0.929,3.345,1.13,4.402l-3.786,9.103
	l-3.889,2.183l-5.046,2.148c-1.432,0.633-2.231,1.065-2.398,1.299c-0.233,0.266-0.167,0.732,0.2,1.398l2.947,6.145l2.093,5.121
	c-1.173,4.723-1.661,8.388-1.443,10.967c0.066,0.898,0.183,1.615,0.35,2.148c0.933,3.063,2.931,6.027,5.995,8.893
	c3.197,2.964,6.944,5.246,11.241,6.844c6.128,2.299,12.573,3.148,19.334,2.549c6.562-0.6,12.224-2.432,16.986-5.496
	c2.131-1.365,4.23-4.146,6.295-8.344c1.166-2.464,2.897-6.794,5.196-12.988c3.23-8.793,5.662-14.672,7.294-17.637
	c3.264-5.928,7.178-9.809,11.741-11.641c1.332-0.532,2.248-0.732,2.748-0.6c0.533,0.167,0.899,0.783,1.099,1.85
	c0.7,3.264,0.583,8.209-0.35,14.838l-1.799,12.24c-0.599,4.629-0.849,8.426-0.749,11.391c0.066,2.164,0.533,3.996,1.399,5.495
	c0.966,1.698,2.498,3.114,4.596,4.247c7.861,4.229,17.569,6.111,29.126,5.645c12.557-0.499,21.133-3.896,25.729-10.191
	c2.39-3.301,3.862-7.834,4.441-13.568l7.1-8.363c0.4-0.566,0.583-1,0.55-1.299c0-0.367-0.283-0.867-0.85-1.5l-7.196-8.598
	c-0.345-2.505-0.993-6.086-1.938-10.718c2.608-4.773,4.174-7.516,4.688-8.212c0.467-0.6,0.684-1.1,0.649-1.498
	c-0.066-0.334-0.366-0.7-0.899-1.1l-8.367-6.131l-1.625-5.609l-1.398-4.396l-1.511-4.784l0.861-2.011
	c1.032-2.598,1.482-3.963,1.349-4.097l-5.979-4.102l-4.951-12.099c1.473-2.963,2.152-4.593,2.037-4.883
	c-0.125-0.313-2.212-1.78-6.211-4.37c-5.001-11.66-8.595-21.05-10.775-28.153l4.746,0.899c18.652,2.831,30.893,4.163,36.721,3.997
	c5.928-0.134,11.008-1.05,15.237-2.748c3.764-1.499,7.461-3.896,11.091-7.194c7.494-6.861,14.889-16.637,22.183-29.326
	C244.277,111.46,246.477,101.401,242.18,96.372z"/>
</svg>
