<?xml version="1.0" encoding="utf-8"?>
<!-- Generator: Adobe Illustrator 16.0.0, SVG Export Plug-In . SVG Version: 6.00 Build 0)  -->
<!DOCTYPE svg PUBLIC "-//W3C//DTD SVG 1.1//EN" "http://www.w3.org/Graphics/SVG/1.1/DTD/svg11.dtd">
<svg version="1.1" id="图层_1" xmlns="http://www.w3.org/2000/svg" xmlns:xlink="http://www.w3.org/1999/xlink" x="0px" y="0px"
	 width="332px" height="170px" viewBox="0 0 332 170" enable-background="new 0 0 332 170" xml:space="preserve">
<path d="M328.852,87.17c-1.065-5.029-3.63-8.193-7.693-9.492c0.966-6.028,0.083-12.022-2.647-17.984
	c-2.864-6.228-7.293-11.223-13.288-14.986c-6.961-4.363-14.587-6.395-22.879-6.095c-7.893,0.267-14.971,2.581-21.23,6.944
	c-2.564-4.396-6.195-7.46-10.891-9.192c-3.996-1.465-8.109-1.798-12.339-0.999c-4.995,0.933-9.092,3.081-12.289,6.444
	c-3.197,3.297-5.112,7.327-5.745,12.089l-8.992-0.25c-3.696,0.833-6.96,2.448-9.791,4.846c-4.695,3.963-7.727,8.809-9.092,14.537
	c-0.913,3.908-1.028,8.088-0.356,12.536c-0.939-0.855-1.919-1.654-2.94-2.396c-1.798-1.299-4.079-3.313-6.844-6.044
	c-2.964-2.897-5.811-5.961-8.542-9.191c-4.196-4.929-9.741-8.409-16.635-10.441c-3.219-0.955-6.51-1.511-9.864-1.704
	c0.109-0.243,0.211-0.507,0.323-0.744c6.694-14.387,17.051-25.593,31.072-33.62c17.784-10.19,39.098-13.371,63.942-9.541l1.648-0.05
	c0.134-0.167-0.283-0.516-1.249-1.049c-10.823-5.628-21.197-9.042-31.121-10.241c-9.858-1.199-18.934-0.167-27.227,3.097
	c-16.885,6.627-30.355,22.929-40.413,48.906c-8.093-27.908-20.931-44.51-38.515-49.805c-7.793-2.364-16.269-2.281-25.427,0.25
	c-6.261,1.765-11.39,4.046-15.386,6.844c-1.033,0.733-1.382,1.182-1.049,1.349l1.499-0.1c9.325-2.098,18.816-2.115,28.474-0.05
	c11.123,2.365,20.315,7.194,27.575,14.487c4.696,4.762,8.392,9.092,11.09,12.988c3.097,4.529,6.044,10.141,8.842,16.834l0.12,0.481
	c-2.032,0.143-4.085,0.407-6.165,0.817c-7.493,1.499-13.704,4.996-18.633,10.491c-4.795,5.329-7.959,12.089-9.491,20.282
	c-0.07,0.395-0.183,0.883-0.333,1.451c-2.8-6.463-8.097-10.88-15.902-13.241c-7.926-2.398-14.97-1.632-21.131,2.298
	c-4.696-5.329-10.507-8.659-17.434-9.991c-6.494-1.232-12.922-0.566-19.283,1.998c-6.461,2.564-11.606,6.611-15.436,12.139
	c-4.13,5.961-6.044,12.788-5.745,20.481c-5.062,2.298-8.509,6.161-10.34,11.589c-1.798,5.263-1.516,10.291,0.849,15.087
	c2.298,4.596,6.111,7.76,11.439,9.491c5.862,1.932,11.839,1.398,17.934-1.598c4.063,3.029,9.358,4.112,15.886,3.246
	c6.627-0.865,10.823-3.28,12.588-7.243c2.598,2.864,5.945,5.062,10.041,6.595c4.063,1.498,8.259,2.147,12.588,1.947
	c9.773-0.453,16.787-4.533,21.057-12.221c4.009,8.128,10.488,14.371,19.457,18.715c4.265,2.07,8.701,3.528,13.307,4.375
	c0.678,2.699,2.652,5.171,5.926,7.414l2.548,1.299l1.698,0.051c0.233-0.133,0.283-0.616,0.15-1.449
	c-0.167-0.898-0.483-1.765-0.949-2.598c-0.005-0.009-0.01-0.019-0.015-0.027c0.914,0.726,1.905,1.38,3.012,1.926
	c2.032,1.066,3.297,1.299,3.796,0.699s0.1-1.798-1.199-3.597c-0.669-0.814-1.27-1.803-1.812-2.947
	c3.69-0.209,7.472-0.751,11.354-1.648c2.761-0.64,5.37-1.387,7.859-2.219c4.728,5.029,10.438,8.765,17.169,11.161
	c7.026,2.531,13.171,3.164,18.433,1.898c5.995,2.364,9.558,2.996,10.69,1.898c0.5-0.5,0.434-1.716-0.199-3.647
	c-1.232-3.696-4.463-8.509-9.691-14.437c-4.035-4.569-8.372-8.42-12.988-11.603c1.853-2.143,3.478-4.446,4.846-6.931
	c1.021-1.853,1.871-3.725,2.565-5.614c1.833-0.429,3.708-1.15,5.627-2.179c2.931,2.197,6.478,3.446,10.64,3.746
	c3.896,0.3,7.777-0.25,11.641-1.648c3.862-1.398,7.026-3.414,9.49-6.045c2.631-2.83,4.03-5.978,4.197-9.441
	c3.763,4.03,8.892,6.045,15.386,6.045c6.594,0,10.956-2.182,13.088-6.544c3.464,4.662,9.441,7.294,17.935,7.893
	c8.691,0.633,14.137-1.481,16.334-6.345c4.23,2.232,8.56,2.648,12.989,1.25c4.096-1.332,7.26-3.814,9.491-7.443
	C329.018,96.961,329.884,92.198,328.852,87.17z"/>
</svg>
