<?xml version="1.0" encoding="utf-8"?>
<!-- Generator: Adobe Illustrator 16.0.0, SVG Export Plug-In . SVG Version: 6.00 Build 0)  -->
<!DOCTYPE svg PUBLIC "-//W3C//DTD SVG 1.1//EN" "http://www.w3.org/Graphics/SVG/1.1/DTD/svg11.dtd">
<svg version="1.1" id="图层_1" xmlns="http://www.w3.org/2000/svg" xmlns:xlink="http://www.w3.org/1999/xlink" x="0px" y="0px"
	 width="570px" height="417px" viewBox="0 0 570 417" enable-background="new 0 0 570 417" xml:space="preserve">
<path d="M562.508,89.029c-3.632-7.099-8.765-12.447-15.396-16.046c1.066-12.963-3.932-22.895-14.996-29.793
	c-4.365-2.699-9.248-4.615-14.646-5.749c-4.898-1-9.331-1.216-13.297-0.65c-8.531,1.233-15.629,4.583-21.295,10.048
	c-7.564,7.298-11.014,17.379-10.348,30.243c-6.564,0.133-11.63,1.833-15.196,5.099c-4.398,4.032-5.932,10.147-4.599,18.346
	c-8.498-2.533-15.563-1.85-21.195,2.049c-5.765,3.999-8.114,10.147-7.048,18.446c-6.398-2.466-12.863-3.5-19.396-3.099
	c-6.898,0.433-12.697,2.416-17.396,5.948c-3.899,2.933-6.682,6.632-8.349,11.098c-1.565,4.232-2.332,9.697-2.299,16.396
	c-5.365-1.667-10.531-2.483-15.496-2.45c-5.399,0.067-9.831,1.15-13.297,3.25c-3.199,1.933-5.565,4.465-7.099,7.598
	c-1.066,2.233-1.883,5.249-2.449,9.048c-5.466-2.666-11.314-4.032-17.546-4.099c-6.632-0.1-12.547,1.316-17.746,4.249
	c-4.166,2.333-7.564,5.682-10.197,10.047c-1.813,3.023-3.153,6.33-4.034,9.913c-4.71-4.552-8.82-9.815-12.312-15.812
	c-4.965-8.564-7.698-16.896-8.198-24.994c-0.233-3.899,0.25-7.915,1.45-12.047c0.643-2.262,1.646-4.925,3.002-7.98
	c1.842-0.793,3.345-1.813,4.496-3.067c1.799-2,2.616-4.416,2.449-7.249c-0.075-0.961-0.25-1.847-0.507-2.671
	c1.125-2.263,1.973-4.426,2.506-6.476c0.7-2.733,0.983-5.565,0.85-8.498c-0.467-9.964-4.699-18.129-12.697-24.494
	c-4.917-3.896-10.544-6.574-16.881-8.035c2.133-1.864,5.589-3.353,10.383-4.462c8.165-1.833,18.679-2.1,31.542-0.8
	c9.732,1,20.279,2.766,31.644,5.299c6.932,1.533,16.846,4.032,29.742,7.498c18.362,4.966,31.31,8.065,38.841,9.298
	c11.598,1.933,21.911,2.033,30.942,0.3c10.631-2.033,19.563-6.249,26.794-12.647c9.765-8.665,14.18-19.945,13.247-33.842
	c-0.167-2.333-0.4-3.599-0.7-3.799c-0.399-0.267-1.199,0.567-2.399,2.5c-4.732,7.598-10.848,14.414-18.346,20.445
	c-10.53,8.431-21.645,13.147-33.342,14.146c-10.265,0.867-20.995-0.05-32.192-2.75c-6.765-1.633-16.779-4.915-30.043-9.848
	c-12.163-4.465-20.062-7.248-23.694-8.348c-17.796-5.399-33.592-7.548-47.388-6.449c-11.664,0.933-20.729,3.999-27.194,9.198
	c-1.941,1.573-3.526,3.41-4.761,5.508c0.258-2.39,0.846-4.776,1.762-7.158c1.133-2.999,3.066-6.432,5.798-10.297
	c8.731-12.397,24.578-17.929,47.539-16.596c14.63,0.867,28.877,3.849,42.74,8.948c17.063,6.332,31.342,9.615,42.84,9.848
	c7.098,0.167,13.279-1.116,18.545-3.849c5.166-2.699,8.848-6.498,11.048-11.397c1.833-4.099,2.282-8.631,1.35-13.597
	c-0.8-4.366-2.533-8.548-5.199-12.547c-0.933-1.333-1.566-2.049-1.899-2.149c-0.566-0.133-1.017,0.667-1.35,2.399
	c-0.366,1.833-1.466,4.183-3.299,7.048c-2.133,3.366-4.699,6.432-7.698,9.198c-8.132,7.499-17.096,10.814-26.894,9.948
	c-5.832-0.533-12.014-1.799-18.546-3.799c-4.398-1.399-10.631-3.716-18.695-6.948c-11.264-4.599-20.028-7.814-26.294-9.647
	c-10.397-3.033-19.845-4.466-28.343-4.299c-14.629,0.3-26.41,3.565-35.341,9.797c-6.065,4.232-10.531,9.614-13.397,16.146
	c-2.899,6.465-3.516,13.497-1.849,21.095c1.332,6.073,3.73,11.226,7.165,15.484c-11.021,0.88-20.341,4.866-27.96,11.959
	c-7.731,7.198-11.68,15.247-11.847,24.144c-0.053,3.068,0.437,5.822,1.452,8.271c-0.356,1.433-0.552,2.936-0.552,4.526
	c0,2.333,0.383,4.266,1.15,5.799c1.3,2.799,3.399,4.999,6.298,6.599c2.687,1.462,5.696,2.21,9.023,2.256
	c3.284,2.807,5.401,4.761,6.323,5.841l1.1,1.55c1.699,2.466,2.833,3.916,3.399,4.349c1.6,1.266,3.649,1.45,6.148,0.55
	c0.857-0.309,1.729-0.722,2.608-1.188c5.618,6.193,8.387,12.638,8.29,19.333c-0.066,5.865-0.65,16.613-1.75,32.242
	c-0.032,1.346-0.04,2.649-0.034,3.928c-3.348-4.245-7.497-7.246-12.463-8.977c-4.666-1.633-9.831-2.049-15.496-1.25
	c-5.899,0.866-11.131,2.899-15.696,6.099c-4.866-9.898-13.247-14.963-25.144-15.196l0.15-2.399c0-5.132-0.85-9.981-2.549-14.547
	c-1.8-4.832-4.333-8.781-7.598-11.847c-3.133-2.966-7.032-5.148-11.697-6.548c-5.832-1.766-12.38-2.149-19.645-1.149
	c-0.8-2.899-2.649-5.016-5.549-6.349c-3-1.333-6.115-1.35-9.348-0.05v-0.15c0-4.365-1.533-9.014-4.599-13.946
	c-3.232-5.199-7.315-9.281-12.247-12.247c-6.499-3.933-13.563-5.549-21.195-4.849c-7.565,0.667-13.847,3.449-18.846,8.348
	c-9.064-4.099-16.729-4.132-22.994-0.1c-5.465,3.533-8.131,8.498-7.998,14.896c-6.999,1-12.914,3.949-17.746,8.848
	c-4.666,4.732-7.531,10.464-8.598,17.196c-1.233,7.465-0.467,14.163,2.299,20.095c2.566,5.532,6.548,9.881,11.947,13.047
	c-1.733,8.731-0.55,15.646,3.549,20.745c3.799,4.666,9.181,6.965,16.146,6.899c-1.1,12.197,2.783,21.229,11.647,27.094
	c3.632,2.365,7.748,3.915,12.347,4.648l12.297-0.4c1.367,7.232,5.266,12.598,11.697,16.097c6.332,3.466,13.23,4.115,20.695,1.949
	c2.066,5.865,5.299,11.247,9.698,16.146c4.833,5.332,10.264,9.165,16.296,11.498c5.265,2,11.097,2.749,17.496,2.25
	c7.665-0.601,15.146-2.967,22.445-7.1c1.933,4.066,5.548,6.749,10.847,8.049c5.765,1.433,10.464,0.066,14.097-4.1
	c3.099,7.998,8.715,13.931,16.846,17.797c5.736,2.73,11.853,3.998,18.347,3.806l1.698,1.792
	c10.831,12.031,16.946,19.329,18.346,21.895c1.433,2.6,2.999,4.799,4.699,6.6c2.399,2.565,4.632,3.732,6.699,3.498
	c2.599-0.299,4.699-3.266,6.298-8.897c0.094-0.346,0.174-0.687,0.262-1.03c3.573,1.66,7.183,2.984,10.835,3.93
	c5.2,1.34,10.585,1.69,16.151,1.077c1.755,6.4,3.104,15.4,4.044,27.017c1.333,16.329,1.133,30.459-0.6,42.39l-0.15,1.799l0.85,1.05
	c4.499,2.933,9.748,4.532,15.746,4.799l5.549-0.35c2.399-0.5,3.616-1.383,3.649-2.649c0.5-11.997-0.267-23.978-2.3-35.941
	c-2.702-15.84-7.413-29.731-14.119-41.689c1.077-0.545,2.107-1.145,3.087-1.805c1.015,2.063,2.043,4.276,3.084,6.653
	c4.966,11.297,8.299,22.078,9.998,32.342c0.167,1.066,3.549,1.15,10.147,0.25c6.599-0.899,9.864-1.899,9.798-2.999
	c-0.434-7.065-3.433-15.68-8.998-25.844c-1.555-2.851-3.219-5.571-4.967-8.191c0.801,0.867,1.469,1.564,1.968,2.043
	c1.042,0.992,2.023,1.794,2.957,2.449c0.148,0.301,0.293,0.593,0.442,0.899c6.099,12.498,9.997,22.295,11.697,29.393
	c0.232,1.033,3.648,1.184,10.247,0.451c6.565-0.734,9.765-1.783,9.598-3.15c-1.1-7.864-4.632-16.646-10.598-26.344
	c-2.664-4.309-5.667-8.518-8.985-12.632c0.156-2.074,0.258-4.612,0.306-7.61c3.021,3.854,6.329,8.779,9.93,14.794
	c6.532,10.997,11.797,21.978,15.796,32.942c0.434,1.199,4.249,0.816,11.447-1.15c7.231-1.999,10.647-3.632,10.248-4.898
	c-1.7-5.832-5.683-13.313-11.947-22.444c-6.344-9.217-13.324-17.094-20.94-23.633c1.531-0.649,2.985-1.415,4.355-2.31
	c5.546,5.027,11.956,11.589,19.234,19.693c14.796,16.463,26.527,32.593,35.191,48.389c1.066,1.967,6.132,1.117,15.196-2.549
	s12.931-6.432,11.598-8.299c-5.999-8.397-16.646-19.912-31.942-34.541c-14.999-14.298-28.359-25.047-40.085-32.252
	c0.563-0.91,1.1-1.852,1.594-2.84c2.933-5.998,4.466-13.23,4.599-21.695c8.231-0.433,15.03-2.815,20.396-7.148
	c4.966-3.998,8.382-9.414,10.248-16.246c3.599,2.467,8.73,3.916,15.396,4.35c7.398,0.467,14.28-0.617,20.646-3.25
	c5.565-2.332,10.264-5.947,14.097-10.847c5.132-6.532,8.098-14.747,8.897-24.644c7.299,1.133,14.146,1.115,20.545-0.051
	c7.231-1.299,13.347-3.999,18.346-8.098c4.466-3.666,7.932-8.381,10.397-14.147c2.2-5.265,3.499-11.247,3.899-17.945
	c4.065-0.367,7.765-1.8,11.098-4.299c3.332-2.533,5.898-5.849,7.698-9.947c4.132-9.431,3.415-20.012-2.15-31.743
	c13.53-3.166,21.812-11.247,24.845-24.244C567.49,104.841,566.474,96.827,562.508,89.029z"/>
</svg>
