<?xml version="1.0" encoding="utf-8"?>
<!-- Generator: Adobe Illustrator 16.0.0, SVG Export Plug-In . SVG Version: 6.00 Build 0)  -->
<!DOCTYPE svg PUBLIC "-//W3C//DTD SVG 1.1//EN" "http://www.w3.org/Graphics/SVG/1.1/DTD/svg11.dtd">
<svg version="1.1" id="图层_1" xmlns="http://www.w3.org/2000/svg" xmlns:xlink="http://www.w3.org/1999/xlink" x="0px" y="0px"
	 width="219px" height="313px" viewBox="0 0 219 313" enable-background="new 0 0 219 313" xml:space="preserve">
<path d="M214.607,78.611c-2.231-7.691-4.828-11.82-7.792-12.386c-0.2-0.033-0.35,0.117-0.449,0.45l-0.2,0.899l-0.6,5.793
	c-0.599,5.76-1.064,9.207-1.398,10.338c-1.931,3.663-6.725,10.539-14.383,20.627l-12.137,15.732
	c1.266-3.663,1.715-9.722,1.348-18.18c-0.332-8.157-1.265-14.966-2.797-20.427c-0.565-2.098-1.215-3.047-1.947-2.847
	c-0.766,0.2-1.266,1.548-1.498,4.045c-0.666,7.792-4.313,17.93-10.938,30.416c-2.309,4.346-5.929,10.535-10.853,18.557
	c-1.971-2.629-4.427-5.186-7.378-7.669l-7.841-5.894l2.098-0.35c0.899-0.167,1.581-0.433,2.048-0.799l0.898-0.999
	c-0.066-0.233-0.633-0.45-1.697-0.649c-3.463-0.699-6.594-1.631-9.391-2.797l-5.016-2.428c4.312-3.357,7.586-6.859,9.811-10.507
	c2.131-3.529,3.197-7.059,3.197-10.588c0-1.864-0.684-3.979-2.049-6.343c-1.023-1.697-2.679-3.96-4.963-6.789
	c0.152-1.172,0.12-2.337-0.095-3.493c0.055-0.035,0.104-0.075,0.163-0.107c0.666-0.4,1.116-0.933,1.35-1.598
	c0.199-0.733,0.133-1.532-0.2-2.397c-0.495-1.328-1.06-2.581-1.678-3.774c1.611-4.133,3.319-9.563,5.124-16.304
	c2.963-11.121,5.011-21.093,6.143-29.917c0.3-2.331,0.316-3.929,0.051-4.794c-0.301-1.099-1.033-0.45-2.198,1.948l-3.945,7.591
	l2.147-14.983c0.467-4.695,0.399-7.309-0.199-7.841c-0.866-0.766-2.864,2.014-5.994,8.34l-12.535,22.975
	c-4.44,7.98-7.82,13.933-10.158,17.892c-7.916-1.411-16.483-0.483-25.703,2.785c-5.028-8.257-11.104-16.848-18.229-25.771
	c-6.36-7.924-11.055-13.118-14.084-15.582c-1.465-1.166-2.381-1.632-2.747-1.398c-0.233,0.166-0.2,0.782,0.1,1.848l1.199,5.843
	L38.404,7.69c-1.465-1.166-3.113-2.364-4.944-3.596c-2.264-1.465-3.513-1.898-3.746-1.298c-0.133,0.399,0.183,1.365,0.949,2.896
	l8.74,17.581c9.855,20.344,15.732,33.263,17.63,38.756c2.597,7.559,4.345,15.35,5.244,23.374c0.841,7.7,0.744,14.705-0.262,21.036
	c-3.64,1.964-8.024,5.609-13.173,10.978c-0.699,0.699-0.999,1.166-0.899,1.398c0.1,0.267,0.683,0.383,1.748,0.35l5.044-0.1
	c-2.164,2.131-5.86,5.594-11.087,10.388l-9.839,8.69c-1.132,0.799-1.665,1.298-1.598,1.498l2.247,0.25l4.345-0.549l3.596-0.75
	l-4.146,4.396c-1.831,1.964-2.514,2.88-2.048,2.747l9.04-3.446c-5.793,8.024-10.805,15.933-15.033,23.724
	c-8.424,15.449-15.2,32.08-20.327,49.894c-2.098,7.325-4.995,13.469-8.69,18.43c-1.032,1.365-1.232,2.098-0.599,2.197l2.597-0.649
	c3.096-1.198,5.61-2.313,7.542-3.346v5.594c0.033,2.83,0.15,4.278,0.35,4.345l2.393-1.561c0.938,9.61,2.885,16.646,5.848,21.089
	c0.932,1.398,1.848,2.547,2.747,3.446c0.932,0.966,1.598,1.382,1.998,1.249c0.466-0.134,0.683-1,0.649-2.598l-0.25-6.143v-2.897
	c-0.028-4.977,0.301-9.583,0.947-13.863c1.018-0.493,2.048-1.027,3.099-1.619c0.368-0.206,0.711-0.415,1.061-0.623
	c0.178,0.884,0.371,1.802,0.587,2.771c2.197,9.689,5.111,16.615,8.74,20.777c1.065,1.231,2.098,2.23,3.097,2.996
	c0.122,0.09,0.225,0.151,0.338,0.228c1.074,4.646,2.89,9.654,5.505,15.056l-5.594,4.195c-3.33,2.764-6.143,5.743-8.44,8.939
	c-0.933,1.266-1.532,2.314-1.798,3.146c-0.333,1.033-0.033,1.465,0.899,1.299l5.194-0.699l-1.348,1.998
	c-0.4,0.699-0.799,1.631-1.199,2.797c-0.433,1.198-0.5,1.848-0.2,1.947l3.096-0.399c1.499-0.2,3.113-0.583,4.845-1.148l4.995-1.698
	c-0.799,1.132-1.282,1.965-1.449,2.497c-0.2,0.6-0.266,0.982-0.2,1.149l0.999,0.35c4.029,0.266,10.405-0.301,19.128-1.699
	c8.257-1.298,13.668-2.496,16.232-3.596l2.248-1.049c0.399-0.399,0.549-1.215,0.45-2.447c-0.267-3.529,0.682-7.708,2.847-12.535
	c2.224-4.976,5.401-9.705,9.528-14.191c3.725,0.751,7.72,1.224,11.999,1.405c4.229,3.163,7.74,7.725,10.537,13.685
	c0.633,1.299,2.231,5.561,4.795,12.785l0.899,3.098l0.599,1.398c1.033,0.832,9.756,3.895,26.172,9.189l3.346,0.799l-0.549-2.147
	l-0.65-1.548l-0.799-1.499l8.891,1.998l7.342,1.848l1.148,0.2l-0.05-2.498l-0.699-3.496l-0.949-2.496l8.491,1.348l1.398,0.2
	c0.266-0.101,0.199-0.616-0.2-1.548c-1.433-3.197-3.097-5.811-4.995-7.842l-5.893-5.294c1.697-7.06,2.613-12.769,2.746-17.131
	c0.058-1.657-0.031-3.651-0.253-5.944c3.412-2.015,6.515-4.372,9.316-7.063c0.374,0.771,0.749,1.55,1.126,2.369
	c3.162,6.926,4.828,10.371,4.994,10.338c0.5-0.033,1.032-0.699,1.598-1.998c0.566-1.266,0.982-2.713,1.249-4.345
	c1.089-6.314,1.317-12.573,0.715-18.776c6.896-11.473,10.577-24.887,11.022-40.258c0.199-5.96-0.217-12.719-1.249-20.277
	c-0.966-7.092-2.364-14.067-4.195-20.926c11.421-16.815,18.362-37.176,20.827-61.083C217.703,95.276,216.971,86.769,214.607,78.611z
	 M144.086,136.396l-4.096-4.445c2.076,0.545,5.064,1.541,8.939,2.976c-0.829,1.338-1.684,2.713-2.578,4.143
	C145.698,138.242,144.947,137.354,144.086,136.396z M142.038,141.84l2.105,0.749c-0.227,0.359-0.452,0.717-0.682,1.082
	C142.986,143.06,142.52,142.453,142.038,141.84z M42.25,238.482c0.034-0.707,0.085-1.443,0.152-2.204
	c0.069,0.07,0.127,0.135,0.197,0.206l2.157,2.305c-0.103,0.264-0.208,0.521-0.309,0.792c-0.923,2.432-1.642,4.885-2.174,7.358
	C42.123,244.015,42.108,241.19,42.25,238.482z"/>
</svg>
