<?xml version="1.0" encoding="utf-8"?>
<!-- Generator: Adobe Illustrator 16.0.0, SVG Export Plug-In . SVG Version: 6.00 Build 0)  -->
<!DOCTYPE svg PUBLIC "-//W3C//DTD SVG 1.1//EN" "http://www.w3.org/Graphics/SVG/1.1/DTD/svg11.dtd">
<svg version="1.1" id="图层_1" xmlns="http://www.w3.org/2000/svg" xmlns:xlink="http://www.w3.org/1999/xlink" x="0px" y="0px"
	 width="313px" height="316px" viewBox="0 0 313 316" enable-background="new 0 0 313 316" xml:space="preserve">
<path d="M305.824,84.213l5.4-15.902c1.134-3.634,0.566-6.284-1.7-7.951c-2.101-1.534-7.085-2.867-14.952-4.001
	c-7.602-1.067-15.753-1.65-24.454-1.75c-10.802-0.1-22.054,2.117-33.755,6.651c-13.803,5.401-25.104,13.052-33.906,22.954
	c-5.567,6.268-9.818,13.502-12.752,21.704c-2.9,8.001-4.351,16.369-4.351,25.104c0,1.434,0.036,2.796,0.091,4.12
	c-4.936-3.556-10.148-6.217-15.643-7.97c-6.734-2.167-13.703-2.717-20.904-1.65c-7.068,1.067-13.352,3.551-18.853,7.451
	c-7.697,5.508-13.945,13.057-18.772,22.604c-3.59-5.715-7.926-10.509-13.033-14.353c-7.001-5.268-14.119-8.318-21.354-9.151
	c-7.101-0.8-14.052,0.517-20.853,3.95c-9.354,4.766-17.049,13.867-23.092,27.28c-0.005-0.505-0.012-1.007-0.012-1.526
	c0-8.434,0.816-17.252,2.45-26.454c1.4-7.735,2.55-12.219,3.451-13.452l8.851-3.201l8.702-3.4c1.333-0.733,2.15-1.3,2.45-1.7
	c0.434-0.6,0.4-1.384-0.1-2.351l-5.601-11.552c-0.1-0.333,2.85-0.784,8.851-1.35l11.052-1c2.201-0.267,3.584-0.533,4.151-0.8
	c0.633-0.333,1.167-1.05,1.6-2.15c4.467-10.969,9.668-21.687,15.603-32.155c6.401-11.302,12.852-20.92,19.353-28.854
	c3.301-4,9.668-10.952,19.103-20.854C139.881,5.167,143.198,1.2,142.798,0.6c-0.767-1.167-3.984-0.667-9.651,1.5
	c-24.804,9.435-50.225,24.287-76.262,44.557C41.015,58.993,29.463,69.194,22.229,77.262c-1.5,1.701-2.167,2.967-2,3.801
	c0.133,0.6,0.8,1.75,2,3.451l8.701,15.052c-8.168,13.135-15.252,28.805-21.253,47.007c-6.401,19.304-9.602,35.772-9.602,49.407
	c0,10.303,1.684,20.471,5.051,30.506c3.134,9.334,7.435,17.736,12.902,25.203c2.474,3.381,5.484,6.37,9.031,8.967
	c0.422,0.394,1.001,0.851,1.77,1.385c9.502,6.469,19.237,9.135,29.205,8.002c6.139-0.702,12.306-2.85,18.5-6.405
	c4.111,6.64,8.924,11.854,14.455,15.606c7.435,5.034,16.019,8.219,25.754,9.552c9.235,1.233,18.32,0.684,27.254-1.65
	c5.55-1.466,10.947-3.837,16.193-7.087c3.668,1.409,6.577,1.564,8.711,0.436c0.369-0.192,0.729-0.515,1.081-0.939
	c5.148,6.737,11.016,12.296,17.622,16.643c5.444,3.61,11.222,6.497,17.307,8.712c1.079,0.517,2.231,0.914,3.464,1.178
	c3.686,1.159,7.473,2.096,11.384,2.763c11.369,1.934,22.154,1.55,32.355-1.15c6.709-1.762,13.063-4.677,19.074-8.71
	c5.452,0.422,9.441-0.118,11.931-1.642c2.959-1.821,4.471-6.329,4.544-13.511c3.515-4.339,6.611-9.077,9.258-14.244
	c8.802-17.169,12.952-36.039,12.452-56.608c-0.167-7.701-1.017-16.369-2.55-26.005l-4.352-24.104l-3.2-17.953
	c-0.967-6.334-1.434-11.518-1.399-15.552c0.033-8.101,1.166-17.303,3.4-27.604C302.106,97.966,303.623,92.115,305.824,84.213z
	 M229.961,211.384c-2.967-5.335-6.117-12.868-9.451-22.604c-3.936-11.487-8.534-21.46-13.786-29.941
	c-0.148-1.576-0.263-3.148-0.352-4.719c2.46,1.04,5.149,1.954,8.073,2.737c0.262,0.997,0.52,1.991,0.814,3.018
	c4.367,15.436,10.301,27.422,17.803,35.956c1.467,1.667,2.566,2.767,3.301,3.301c0.666,0.5,1.199,0.634,1.6,0.399
	c0.533-0.3,0.717-1.016,0.551-2.15c-0.168-1.3-0.834-3.917-2.001-7.851l-0.5-2.4c-2.558-8.371-4.467-17.628-5.745-27.75
	c5.115,0.277,10.244,0.044,15.387-0.717l0.109,3.263c0,10.868-1.416,20.92-4.25,30.154c-2.576,8.313-6.15,15.232-10.709,20.776
	C230.524,212.381,230.243,211.895,229.961,211.384z"/>
</svg>
