<?xml version="1.0" encoding="utf-8"?>
<!-- Generator: Adobe Illustrator 16.0.0, SVG Export Plug-In . SVG Version: 6.00 Build 0)  -->
<!DOCTYPE svg PUBLIC "-//W3C//DTD SVG 1.1//EN" "http://www.w3.org/Graphics/SVG/1.1/DTD/svg11.dtd">
<svg version="1.1" id="图层_1" xmlns="http://www.w3.org/2000/svg" xmlns:xlink="http://www.w3.org/1999/xlink" x="0px" y="0px"
	 width="232px" height="269px" viewBox="0 0 232 269" enable-background="new 0 0 232 269" xml:space="preserve">
<path d="M222.92,78.716c-4.426-14.775-11.313-28.053-20.664-39.833c-9.219-11.614-19.817-20.516-31.797-26.705
	c-12.879-6.689-26.557-10.632-41.031-11.83C114.619-0.851,100.043,0.913,85.7,5.638c-12.18,4.026-23.294,9.667-33.344,16.921
	c-8.519,6.157-14.825,12.313-18.918,18.469c-1.797,2.696-2.862,5.208-3.194,7.538c-0.3,1.963-0.067,3.428,0.699,4.393
	c0.898,1.131,2.795,1.614,5.69,1.448c2.596-0.133,6.29-0.815,11.082-2.047c6.688-1.697,12.978-1.83,18.868-0.399
	c6.157,1.498,11.415,4.609,15.774,9.334c7.421,8.086,11.697,18.968,12.828,32.646c0.228,2.772,0.311,5.585,0.266,8.434
	c-14.923,0.939-27.824,2.697-38.651,5.293c-5.624,1.331-10.399,2.845-14.326,4.542c-0.865,0.399-0.682,1.664,0.549,3.793
	c0.994,1.719,1.833,2.622,2.524,2.737l0.038,0.874c-0.837,0.093-1.617,0.216-2.312,0.382c-0.632,0.167-0.981,0.583-1.048,1.248
	c-0.1,0.732,0.183,1.381,0.848,1.947c6.123,5.69,10.732,9.617,13.827,11.78c7.273,5.173,16.199,10.158,26.764,14.957
	c-3.004,6.452-6.365,12.171-10.092,17.14c-6.323,8.519-13.261,14.275-20.815,17.271c-5.325,2.129-11.797,2.412-19.417,0.848
	c-7.787-1.598-14.043-4.559-18.769-8.885c-6.256-5.724-10.383-7.92-12.379-6.589c-1.464,0.998-2.08,3.743-1.847,8.235
	c0.333,6.057,2.33,14.11,5.99,24.16c6.323,17.305,16.706,31.464,31.148,42.479c14.442,10.982,31.248,17.488,50.416,19.518
	c21.83,2.297,43.111-1.381,63.844-11.031c24.725-11.514,44.242-30.033,58.552-55.557c9.517-16.939,15.424-36.223,17.72-57.854
	C230.275,118.1,228.578,97.784,222.92,78.716z"/>
</svg>
