<?xml version="1.0" encoding="utf-8"?>
<!-- Generator: Adobe Illustrator 16.0.0, SVG Export Plug-In . SVG Version: 6.00 Build 0)  -->
<!DOCTYPE svg PUBLIC "-//W3C//DTD SVG 1.1//EN" "http://www.w3.org/Graphics/SVG/1.1/DTD/svg11.dtd">
<svg version="1.1" id="图层_1" xmlns="http://www.w3.org/2000/svg" xmlns:xlink="http://www.w3.org/1999/xlink" x="0px" y="0px"
	 width="294px" height="300px" viewBox="0 0 294 300" enable-background="new 0 0 294 300" xml:space="preserve">
<path d="M292.7,153.197c-0.134-0.732-0.683-1.516-1.649-2.348c-1.064-0.933-3.514-2.182-7.344-3.747
	c-3.863-1.599-6.51-2.431-7.942-2.498l-5.995,0.15l-3.797,0.3l-4.996-0.5l-7.594-0.45c-5.062,0.034-10.291-0.866-15.686-2.698
	c-4.93-1.632-7.678-2.398-8.243-2.298c-2.521,0.494-6.303,2.414-11.338,5.752c-0.759-4.675-2.024-9.165-3.821-13.46l2.07-2.983
	c1.632-2.631,2.398-4.43,2.298-5.396c0-0.094-0.012-0.188-0.034-0.28l4.23-2.568l7.594-4.746l2.398-1.949l2.147-2.647
	c3.265-4.33,6.711-8.126,10.341-11.39c2.998-2.731,5.779-4.796,8.344-6.195l3.247-2.448c0.866-0.899,1.266-1.665,1.198-2.298
	c-0.1-0.666-0.849-1.116-2.248-1.349l-3.696-0.5c-3.597-0.833-10.009,0.083-19.233,2.748c-8.46,2.398-13.372,4.263-14.738,5.595
	c-1.299,1.299-2.598,2.848-3.896,4.646c-1.564,2.231-2.432,3.913-2.598,5.045c-0.033,0.533-0.999,0.966-2.897,1.299l-3.192,0.402
	c-0.124-0.339-0.245-0.678-0.404-1.051c-1-2.231-2.115-3.514-3.348-3.847c-1.166-0.3-3.18,0.067-6.045,1.099l-3.277,1.393
	c-4.719-3.584-9.721-6.382-14.996-8.429c0.105-0.296,0.211-0.594,0.339-0.908c0.533-1.232,1.665-3.031,3.397-5.395
	c1.665-2.265,2.647-3.813,2.947-4.646c0.233-0.666-0.399-3.097-1.898-7.293c-1.632-4.596-2.331-8.41-2.098-11.44l0.449-3.047
	l2.098-9.941c0.7-4.13,0.551-7.294-0.449-9.492c-1.365-3.064-2.864-7.36-4.496-12.889c-1.698-5.662-2.631-9.609-2.797-11.84
	c-0.301-4.596-0.15-8.493,0.449-11.69c0.199-1.199-0.334-2.365-1.6-3.497c-1.564-1.398-3.945-2.398-7.143-2.997l-3.348,0.25
	c-0.732,0.566-1.1,1.782-1.1,3.647c0,0.933-0.516,3.863-1.549,8.792l-3.246,14.038c-2.832,10.558-4.447,16.952-4.847,19.184
	c-0.233,1.366-0.815,3.181-1.748,5.445l-2.349,5.646l-2.248,5.795c-0.7,1.932-1,3.347-0.899,4.247
	c0.066,0.833,0.5,1.582,1.299,2.248l2.098,1.599l2.049,2.148c0.732,1.033,1.232,2.281,1.498,3.747
	c0.533,2.864-0.033,5.878-1.698,9.042c-1.422,2.622-3.188,4.557-5.288,5.824c-7.664,1.104-14.82,3.574-21.481,7.38
	c-0.02-0.003-0.038-0.012-0.058-0.015l-4.247-0.15l-1.898,0.15c-1.199,0-2.381,0.267-3.547,0.799
	c-1.292,0.58-2.193,1.389-2.733,2.408c-0.483-0.616-0.909-1.235-1.263-1.858c-1.132-2.031-2.864-5.678-5.195-10.94l-3.098-7.244
	c-0.5-1.432-1.915-2.248-4.246-2.448l-5.146-0.05c-2.498-0.267-5.961-1.865-10.391-4.796l-9.142-6.544
	c-1.232-0.899-2.548-2.198-3.947-3.897l-2.498-2.748c-1.099-0.966-2.031-1.282-2.797-0.949c-1.232,0.533-2.198,1.865-2.897,3.997
	c-0.633,2.032-0.783,3.847-0.45,5.445c0.2,0.899,1.116,2.465,2.748,4.696l4.746,6.544l3.947,5.595
	c1.765,2.431,3.713,5.662,5.845,9.691c1.699,3.264,2.915,5.829,3.647,7.694c0.533,1.266,1.116,2.065,1.749,2.398l3.747,1.049
	c6.161,1.432,9.742,3.114,10.741,5.046l2.285,4.805c-0.22,0.612-0.4,1.354-0.537,2.239c-0.216,1.359-0.261,2.463-0.169,3.361
	c-2.705,4.528-4.752,9.299-6.144,14.312c-0.246,0.169-0.505,0.355-0.781,0.562l-4.346,3.497c-0.388,0.308-0.564,0.859-0.536,1.646
	c-0.887,0.217-1.799,0.421-2.761,0.602c-0.2,0.033-3.431-1.182-9.692-3.647c-6.228-2.431-10.991-3.313-14.288-2.647l-20.782,3.946
	c-10.325,1.965-16.985,3.414-19.983,4.347L8.342,149.4c-4.196,1.133-6.777,2.248-7.743,3.348c-1.199,1.365-0.85,3.247,1.049,5.645
	c1.832,2.365,3.764,3.58,5.795,3.647l24.429,2.248c15.72,1.965,27.376,4.313,34.97,7.044c1.832,0.666,3.181,1.016,4.046,1.049
	c1.066,0.033,2.381-0.316,3.947-1.049l10.391-4.846c0.344-0.149,0.661-0.279,0.986-0.416c0.074,0.287,0.131,0.582,0.213,0.865
	c0.733,2.531,1.582,3.863,2.548,3.996c1.512-0.022,2.811-0.081,3.927-0.17c0.813,2.922,1.846,5.811,3.117,8.664
	c0.655,1.449,1.375,2.861,2.128,4.252c-2.037,2.344-5.697,3.863-11.021,4.54c-0.999,0.133-3.397,1.915-7.194,5.345
	c-4.763,4.33-8.11,7.161-10.042,8.493c-1.765,1.199-3.314,2.748-4.646,4.646c-0.766,1.132-1.765,2.897-2.998,5.296
	c-1.699,3.529-3.364,6.16-4.996,7.893l-2.148,2.198l-6.894,6.994c-1.798,1.932-2.515,3.23-2.148,3.896l2.998,0.101l3.797-1.149
	c4.296-1.3,7.977-2.632,11.041-3.997c3.764-1.632,7.394-2.98,10.891-4.047c4.063-1.299,6.928-1.864,8.593-1.698
	c2.964,0.3,5.396-0.683,7.294-2.947l5.096-8.144c0.899-1.432,2.598-3.131,5.096-5.096l1.75-1.34
	c1.148,0.482,2.906,0.716,5.294,0.691c2.931-0.033,4.979-0.301,6.145-0.8l0.994-0.578c1.646,1.335,3.346,2.586,5.1,3.753
	c-0.861,1.245-1.297,2.105-1.297,2.57c0,1.266,0.483,3.064,1.449,5.396l2.448,5.396c-0.766,0.566-1.666,1.881-2.698,3.946
	c-1.099,2.231-1.749,4.263-1.948,6.095c-0.133,1.398,0.316,6.845,1.349,16.336l1.649,17.086l-0.25,13.189
	c-0.133,8.259-0.017,12.789,0.35,13.588c0.433,1.1,1.465,2.764,3.098,4.996c1.698,2.331,2.797,3.496,3.297,3.496
	c0.799,0,1.615-0.466,2.448-1.398c0.866-0.966,1.532-2.164,1.998-3.597l1.049-5.595l1.299-7.844
	c1.365-6.994,2.148-10.674,2.348-11.041c9.858-17.119,14.987-26.66,15.386-28.625c0.233-1.232-0.299-3.881-1.598-7.943l-2.049-6.245
	l4.446-3.298l5.296-4.096c0.331-0.313,0.513-0.791,0.561-1.415c6.384-0.261,12.422-1.399,18.115-3.419
	c1.262,0.903,2.249,1.484,2.955,1.736c0.633,0.2,1.715-0.083,3.248-0.85c1.162-0.581,1.986-1.13,2.499-1.648
	c0.346,1.363,0.725,2.944,1.147,4.797c1.133,4.995,2.115,7.727,2.947,8.192l10.142,7.094l11.091,7.743
	c2.797,1.766,6.095,3.631,9.891,5.596c4.93,2.598,7.744,3.713,8.443,3.348c0.6-0.334,0.949-1.1,1.049-2.299
	c0.066-0.932-0.016-1.865-0.25-2.797c-1.031-4.83-1.731-8.676-2.098-11.541c-0.1-0.666-0.516-1.531-1.249-2.598l-2.647-3.396
	c-2.365-2.865-3.847-4.913-4.446-6.145l-0.05-0.101v-0.05c-0.899-1.199-2.598-4.213-5.096-9.043c-2.432-4.762-3.98-7.56-4.646-8.393
	c-0.433-0.6-2.314-0.999-5.645-1.199c-2.171-0.124-4.143-0.66-5.915-1.605c0.73-0.678,1.454-1.371,2.168-2.091
	c9.127-9.2,14.872-19.732,17.258-31.586c3.474,0.224,6.519,0.725,9.12,1.512l3.896,1.349l2.897,0.899
	c1.532,0.167,4.196-0.483,7.993-1.948c3.197-1.232,5.745-2.415,7.643-3.547c2.565-1.532,6.545-3.298,11.94-5.296
	c7.294-2.731,13.173-4.097,17.636-4.097l7.193-0.449c3.764-0.434,5.861-1.066,6.295-1.898
	C292.633,154.297,292.767,153.697,292.7,153.197z"/>
</svg>
