<?xml version="1.0" encoding="utf-8"?>
<!-- Generator: Adobe Illustrator 16.0.0, SVG Export Plug-In . SVG Version: 6.00 Build 0)  -->
<!DOCTYPE svg PUBLIC "-//W3C//DTD SVG 1.1//EN" "http://www.w3.org/Graphics/SVG/1.1/DTD/svg11.dtd">
<svg version="1.1" id="图层_1" xmlns="http://www.w3.org/2000/svg" xmlns:xlink="http://www.w3.org/1999/xlink" x="0px" y="0px"
	 width="157px" height="172px" viewBox="0 0 157 172" enable-background="new 0 0 157 172" xml:space="preserve">
<path d="M151.259,110.561c-3.428-4.293-7.555-6.439-12.38-6.439c-3.728-0.033-7.322,1.498-10.783,4.593
	c-2.331,2.089-4.256,4.54-5.816,7.317c-1.695-0.307-3.522-0.479-5.516-0.479c-6.623,0.033-11.73-1.447-15.325-4.442
	c-3.96-3.295-8.138-9.885-12.53-19.769c-1.206-2.719-2.334-5.208-3.389-7.483c1.875-2.061,3.736-4.904,5.585-8.542
	c2.03-4.027,3.396-7.737,4.094-11.132c0.731-3.561,0.948-6.855,0.649-9.884c-0.4-3.794-1.615-6.64-3.645-8.537
	c-0.932-0.865-1.98-1.481-3.145-1.847l-3.895-0.1c-3.594,0.965-6.24,4.077-7.938,9.335c-1.265,3.913-1.799,8.021-1.607,12.324
	c-3.284-4.831-6.658-8.545-10.124-11.125c-4.826-3.561-10.167-6.307-16.024-8.237c-5.591-1.831-11.066-2.729-16.424-2.696
	c-1.326,0.005-2.582,0.077-3.805,0.177c1.522-3.85,3.366-7.247,5.552-10.162c4.493-6.124,10.583-11.182,18.271-15.176
	c4.359-2.263,9.634-4.31,15.825-6.14l2.995-0.948l0.749-0.649c0.133-0.267-0.067-0.466-0.599-0.599
	c-2.13-0.566-6.756,0.516-13.878,3.245c-8.686,3.295-15.758,7.654-21.216,13.079c-5.768,5.711-9.758,11.684-11.987,17.917
	c-4.086,0.808-7.462,2.273-10.127,4.397c-2.452,1.973-4.078,4.323-4.887,7.046c-1.451-2.952-2.491-6.456-3.101-10.54
	c-0.666-4.593-0.749-8.819-0.25-12.68c1.564-11.582,6.556-21.083,14.976-28.504l1.847-1.897c0.599-0.599,0.749-1.065,0.449-1.398
	l-1.547,0.1c-2.763,1.431-5.591,3.91-8.487,7.438c-4.126,5.025-7.188,10.999-9.185,17.921c-1.831,6.423-2.33,12.78-1.498,19.07
	C3.922,51.118,5.834,56.134,8.85,60.19c-3.331,2.479-5.006,5.754-5.006,9.835c0,1.564,0.383,3.079,1.148,4.543
	c0.693,1.355,1.649,2.54,2.849,3.566l-7.342,7.017C0.066,85.584-0.083,85.867,0.05,86l0.749-0.05c0.699-0.2,2.313-0.932,4.842-2.196
	l-0.499,3.693c-0.299,2.064-0.383,3.162-0.25,3.295c0.167,0.167,1.281-1.031,3.345-3.594l4.434-6.162
	c2.586,0.939,5.234,1.419,7.946,1.419c1.314,0,2.589-0.107,3.832-0.301l3.905,0.551l1.002,0.134c3.27,5.596,5.137,8.503,5.588,8.702
	c0.166,0.067,0.183-2.396,0.05-7.388l4.393,3.145c0.366,0.3,0.616,0.383,0.749,0.25c0.1-0.167,0.033-0.482-0.2-0.949l-1.461-2.337
	c2.1,0.562,3.89,1.289,5.355,2.188c2.396,1.497,5.391,5.142,8.985,10.933c2.862,4.626,5.591,9.701,8.187,15.226
	c2.7,5.721,5.446,10.663,8.238,14.846c-1.738,1.362-3.188,3.565-4.344,6.62c-1.365,3.561-2.047,7.571-2.047,12.031
	c0,4.227,1.098,7.638,3.295,10.233c1.997,2.362,4.36,3.544,7.089,3.544c2.13,0,3.927-1.281,5.391-3.844
	c1.398-2.463,2.096-5.408,2.096-8.836c0-2.386-0.294-4.968-0.849-7.724c3.705,2.875,8.496,5.173,14.366,6.896
	c-0.821,2.431-1.236,5.398-1.236,8.916c0,4.658,0.932,8.52,2.795,11.581c1.964,3.229,4.594,4.843,7.888,4.843
	c2.097,0,3.645-0.799,4.643-2.396c1.198-1.863,1.598-4.727,1.198-8.586c-0.409-4.037-1.823-8.099-4.237-12.187
	c6.143,0.506,11.907-0.278,17.294-2.35c1.397,1.976,3.106,3.67,5.164,5.051c2.796,1.897,5.691,2.846,8.687,2.846
	c6.157,0,11.165-2.53,15.026-7.589c3.594-4.758,5.391-10.549,5.391-17.371C156.85,121.427,154.986,115.254,151.259,110.561z"/>
</svg>
