<?xml version="1.0" encoding="utf-8"?>
<!-- Generator: Adobe Illustrator 16.0.0, SVG Export Plug-In . SVG Version: 6.00 Build 0)  -->
<!DOCTYPE svg PUBLIC "-//W3C//DTD SVG 1.1//EN" "http://www.w3.org/Graphics/SVG/1.1/DTD/svg11.dtd">
<svg version="1.1" id="图层_1" xmlns="http://www.w3.org/2000/svg" xmlns:xlink="http://www.w3.org/1999/xlink" x="0px" y="0px"
	 width="390px" height="337px" viewBox="0 0 390 337" enable-background="new 0 0 390 337" xml:space="preserve">
<path d="M380.256,183.958c-2.797-5.526-6.759-11.372-11.888-17.532c-6.326-7.326-11.388-13.386-15.185-18.181
	c-4.328-5.461-9.406-9.09-15.233-10.889c-5.69-1.793-10.69-1.357-15.002,1.301c-0.865-0.411-1.766-0.739-2.7-0.983
	c-1.499-2.52-3.386-4.447-5.674-5.762c-1.231-0.666-2.48-1.115-3.746-1.349c-0.08-0.012-0.141-0.013-0.217-0.022
	c5.122-4.635,8.211-8.442,9.258-11.416c0.948-2.667,0.929-6.761-0.037-12.251c1.577-4.187,2.206-8.078,1.885-11.674
	c-0.195-2.058-0.723-4.148-1.549-6.268c9.984-3.408,17.267-7.295,21.828-11.664c6.193-5.927,10.905-15.251,14.135-27.971
	c0.603-2.404,1.025-4.596,1.277-6.578c1.548-4.066,2.688-6.871,3.418-8.406c1.532-3.197,3.514-6.193,5.943-8.991
	c2.099-2.397,2.964-4.212,2.598-5.444c-0.333-1.099-1.382-1.349-3.146-0.749l-3.496,1.499c-2.331,0.932-4.694,1.615-7.093,2.048
	l3.696-7.692c1.299-2.963,1.948-5.145,1.948-6.543c0-1.665-0.483-2.831-1.449-3.496c-1.1-0.799-2.547-0.517-4.345,0.849
	L338.449,18.33c-4.528,3.03-9.058,5.561-13.586,7.592c-4.396,1.598-7.575,2.914-9.54,3.946c-3.463,1.765-5.429,4.063-5.895,6.893
	c-0.799,4.896-2.88,9.989-6.243,15.284c-2.895,4.548-5.774,7.779-8.644,9.708c-1.414-0.642-2.905-1.266-4.493-1.866
	c-4.729-1.765-8.656-2.781-11.788-3.047c-1.364-3.23-3.014-7.825-4.944-13.786l-3.445-11.039c-1.133-3.663-2.73-5.611-4.795-5.844
	c-2.299-0.266-4.362,1.981-6.193,6.743c-0.833,2.165-2.098,6.027-3.797,11.588l-2.497,7.292c-0.683,1.776-1.272,3.12-1.776,4.043
	c-2.035-1.495-3.865-3.041-5.467-4.642c-4.063-4.029-7.107-8.741-9.14-14.136c-1.499-3.862-2.681-6.36-3.546-7.492
	c-0.934-1.166-2.631-2.264-5.096-3.296c-4.063-1.398-6.826-2.448-8.291-3.147c-5.096-2.431-9.44-5.594-13.037-9.49
	c-2.396-2.631-4.328-5.777-5.793-9.44c-1.332-3.296-2.683-4.662-4.047-4.096c-1.231,0.466-1.998,1.964-2.297,4.495
	c-0.399,3.03-0.433,6.976-0.1,11.838l-11.588-3.097L168.826,9.29c-6.094-1.931-9.823-1.815-11.188,0.35
	c-1.232,1.931-0.3,4.129,2.797,6.593c3.729,2.864,5.994,5.045,6.793,6.543c1.931,3.729,3.063,7.259,3.396,10.589
	c0.3,2.93,0,5.294-0.899,7.092c-0.799,1.565-1.166,2.697-1.099,3.396c0.1,1.199,1.049,2.431,2.847,3.696
	c1.576,1.102,2.951,2.18,4.164,3.239c0.017,3.36,0.605,6.825,1.78,10.397c1.082,3.233,2.582,6.12,4.487,8.674l-19.022-11.67
	c-3.063-1.898-5.161-2.098-6.293-0.6c-1.065,1.398-0.882,3.43,0.55,6.094l8.241,15.134c2.144,4.35,3.436,8.655,3.898,12.918
	c-4.521-1.552-8.354-2.537-11.484-2.939c-1.472-2.696-3.642-5.082-6.533-7.146c-0.534-3.759-1.651-7.682-3.364-11.774
	c-1.998-4.762-3.996-7.592-5.994-8.491c-3.696-1.665-11.888-1.049-24.575,1.848c-13.231,3.046-25.152,7.646-35.784,13.773
	c-12.396,2.914-23.003,6.941-31.795,12.1c-5.294,3.097-9.773,6.577-13.436,10.439c-1.977,2.095-3.546,4.133-4.717,6.116
	c-2.123-5.248-3.65-11.394-4.574-18.454c-0.866-6.393-1.249-13.969-1.148-22.726c0.066-8.758-1.232-13.303-3.896-13.636
	c-2.598-0.299-5.994,3.463-10.189,11.289c-6.56,12.288-10.273,28.421-11.139,48.4c-0.999,22.044,2.031,42.723,9.091,62.036
	c7.026,19.313,17.865,36.179,32.516,50.598c14.137,13.941,31.041,24.798,50.696,32.586c-0.197,0.838-0.396,1.691-0.598,2.577
	c-2.531,11.188-4.945,18.349-7.243,21.478l-5.145,4.896c-3.263,2.864-5.495,5.146-6.693,6.844c-1.931,2.765-2.347,5.244-1.249,7.44
	c1.532,3.064,3.929,5.494,7.192,7.294c3.03,1.698,5.994,2.446,8.891,2.247l2.447-0.6l0.689-0.232
	c0.104,1.07,0.419,2.344,0.959,3.828c0.965,2.797,2.447,5.595,4.445,8.393c5.228,7.191,11.837,11.671,19.829,13.438
	c8.858,1.931,17.199,1.729,25.024-0.601c7.468-2.231,12.453-5.862,14.961-10.892c2.902,1.021,6.883,1.607,11.96,1.75
	c6.027,0.199,9.873-0.399,11.538-1.799c1.698-1.397,2.514-3.362,2.447-5.894c-0.1-2.464-1.099-6.51-2.997-12.138l-0.5-1.448
	c-0.533-1.665-0.55-4.896-0.05-9.688c0.149-1.488,0.352-3.057,0.58-4.658c7,1.211,15.088,1.473,24.294,0.763
	c9.822-0.8,19.63-2.582,29.42-5.347c9.976-2.807,18.515-6.141,25.63-9.99c-2.306,7.49-2.956,13.068-1.904,16.686
	c0.865,2.829,3.246,5.211,7.144,7.143c4.895,2.363,11.621,3.896,20.179,4.596c7.604,0.577,12.856-0.091,15.772-1.993
	c0.229,0.421,0.563,0.802,1.01,1.144c6.326,4.996,17.299,7.843,32.916,8.541l16.781-0.748c4.93-0.866,7.742-2.182,8.441-3.946
	c0.467-1.131,0.366-2.463-0.3-3.995c-0.732-1.632-2.031-3.181-3.896-4.646c-6.008-4.729-11.061-8.276-15.167-10.652
	c0.092-2.282-0.331-5.307-1.266-9.076c-1.067-4.21-2.461-7.706-4.177-10.492c1.112-3.109,2.075-7.144,2.878-12.134
	c1.365-8.491,1.132-14.485-0.699-17.981c-2.531-4.896-6.51-9.855-11.938-14.885c-5.494-5.095-9.573-7.492-12.236-7.191l-0.25,0.299
	c-3.944,0.425-7.39,1.65-10.345,3.67c-4.823-2.134-9.761-3.62-14.812-4.461l-0.567-2.105c-0.434-1.83-0.533-3.297-0.3-4.396
	c0.898-4.162,2.181-7.892,3.847-11.188c0.939-1.854,2.486-4.402,4.619-7.621c4.319-3.472,7.695-7.621,10.114-12.457
	c0.173-0.348,0.323-0.696,0.485-1.045c2.515,1.109,5.698,0.146,9.555-2.901c0.396-0.323,0.765-0.685,1.137-1.042
	c0.445,0.287,0.906,0.56,1.389,0.813c-0.876,2.993-0.811,6.397,0.223,10.221c1.032,3.83,3.263,8.856,6.692,15.084l2.248,5.345
	l1.747,6.344c0.601,3.163,1.582,5.777,2.947,7.843c1.632,2.463,4.112,4.693,7.442,6.691c0.778,0.468,1.559,0.9,2.337,1.313
	c1.116,4.705,2.103,8.051,2.957,10.025c0.933,2.198,1.915,3.195,2.947,2.997c1.332-0.267,2.945-1.731,4.845-4.396l2.682-4.316
	c0.813,0.092,1.625,0.152,2.437,0.182c0.731,0.936,1.58,1.879,2.575,2.836c3.13,2.997,5.193,4.297,6.192,3.896
	c1.299-0.532,2.764-3.196,4.396-7.991c0.027-0.082,0.049-0.153,0.075-0.235l2.722,1.185c1.998,0.733,3.463,0.967,4.396,0.7
	c0.866-0.2,1.35-2.481,1.448-6.844l-0.081-5.287c1.111-1.42,2.098-2.899,2.929-4.453
	C385.95,203.889,385.584,194.381,380.256,183.958z M151.095,142.701c-0.267,2.53-0.616,3.946-1.049,4.246
	c-0.666,0.167-2.797-1.033-6.394-3.596c-3.43-2.498-7.292-5.561-11.588-9.191c-1.398-1.165-2.647-1.548-3.746-1.148
	c-2.331,0.899-2.647,5.394-0.949,13.486c1.932,9.124,3.213,18.114,3.846,26.973c-1.448,1.404-2.811,2.913-4.116,4.49
	c-7.925-1.285-14.93-2.748-21.008-4.393c-7.047-1.907-13.475-4.203-19.299-6.879c1.377-1.011,2.863-2.307,4.464-3.908
	c1.332-1.332,4.729-5.627,10.189-12.887c4.729-6.327,8.108-10.156,10.14-11.488c3.163-2.064,8.325-4.396,15.484-6.993
	c6.293-2.264,11.738-3.946,16.333-5.044c1.813-0.444,3.504-1.188,5.087-2.201c0.624,0.25,1.533,0.64,2.714,1.161l0.291,8.431
	C151.494,137.257,151.361,140.237,151.095,142.701z"/>
</svg>
