<?xml version="1.0" encoding="utf-8"?>
<!-- Generator: Adobe Illustrator 16.0.0, SVG Export Plug-In . SVG Version: 6.00 Build 0)  -->
<!DOCTYPE svg PUBLIC "-//W3C//DTD SVG 1.1//EN" "http://www.w3.org/Graphics/SVG/1.1/DTD/svg11.dtd">
<svg version="1.1" id="图层_1" xmlns="http://www.w3.org/2000/svg" xmlns:xlink="http://www.w3.org/1999/xlink" x="0px" y="0px"
	 width="324px" height="270px" viewBox="0 0 324 270" enable-background="new 0 0 324 270" xml:space="preserve">
<path d="M298.597,177.337c6.757-11.117,11.716-23.116,14.878-35.997c3.729-15.111,4.627-30.704,2.696-46.78
	c-1.931-16.176-6.657-32.136-14.179-47.879c-4.594-9.619-10.817-18.156-18.673-25.612c-7.223-6.89-15.095-12.215-23.614-15.977
	c-8.255-3.628-15.927-5.309-23.017-5.042c-7.322,0.3-12.947,2.646-16.875,7.04c-3.96,4.46-5.476,9.17-4.543,14.129
	c0.865,4.859,3.678,8.121,8.438,9.785c3.894,1.398,7.605,1.032,11.134-1.098c3.129-1.864,5.592-4.727,7.389-8.587
	c0.499-1.032,0.648-2.03,0.449-2.996c-0.199-0.932-0.666-1.598-1.398-1.997c-0.898-0.499-1.797-0.499-2.695,0
	c-0.799,0.433-1.414,1.082-1.848,1.947c-1.298,2.33-2.779,4.027-4.443,5.092c-1.83,1.099-3.645,1.282-5.441,0.549
	c-2.363-0.999-3.795-2.779-4.294-5.342c-0.466-2.63,0.233-5.026,2.097-7.189c2.729-3.063,6.973-4.693,12.731-4.893
	c4.36-0.167,8.421,0.383,12.182,1.648l5.292,2.247c4.261,2.063,8.438,4.493,12.531,7.289c12.948,8.954,22.601,20.054,28.957,33.301
	c12.815,26.661,16.51,53.67,11.084,81.03c-4.67,23.351-14.965,43.144-30.854,59.399c0.377-2.943,0.544-5.953,0.478-9.037
	c1.151-2.782,1.661-6.037,1.519-9.772c-0.133-4.193-1.115-7.871-2.945-11.033c-1.18-2.039-2.423-3.39-3.729-4.072
	c-0.771-1.896-1.621-3.77-2.563-5.613c-3.994-7.756-9.053-14.096-15.178-19.022c-7.988-6.457-16.309-11.117-24.963-13.979
	c-5.392-1.764-13.58-3.428-24.563-4.993c-7.534-1.065-14.268-2.203-20.221-3.41c0.985-2.103,2-4.873,3.045-8.323
	c2.33-7.556,3.795-14.995,4.395-22.317c0.766-9.453,0.383-17.99-1.148-25.612c-1.664-8.155-4.344-13.713-8.039-16.675
	c-0.207-0.167-0.447-0.304-0.673-0.454c0.07-0.147,0.159-0.299,0.224-0.445c1.365-3.062,2.014-6.374,1.947-9.935
	c-0.066-3.694-0.865-6.873-2.396-9.536c-1.431-2.463-3.512-4.543-6.24-6.241c-2.696-1.664-5.542-2.646-8.537-2.945
	c-8.721-0.932-16.958,2.396-24.714,9.985c-4.127-6.357-9.902-10.784-17.324-13.28c-7.789-2.629-14.662-2.063-20.62,1.698
	c-2.529,1.598-4.593,3.778-6.19,6.54c-1.864,3.262-2.796,6.907-2.796,10.934c0.033,5.226,1.897,10.767,5.592,16.625
	c4.582,7.233,11.495,13.965,20.711,20.201c-6.201,5.726-11.914,12.21-17.117,19.49c-3.262,4.568-6.121,9.225-8.604,13.963
	l-2.829-0.133c-1.665,0.233-3.345,0.715-5.043,1.448c-1.997,0.865-3.994,2.247-5.991,4.144c-2.663,2.529-4.427,5.259-5.292,8.188
	c-0.766,2.663-0.915,4.926-0.449,6.79c0.3,1.232,0.965,2.48,1.997,3.745c0.999,1.165,2.43,2.063,4.293,2.696l3.468,0.572
	c-0.638,3.139-1.133,6.31-1.471,9.514c-0.898,8.554-0.316,17.757,1.748,27.609c1.946,9.54,5.151,19.066,9.583,28.578
	c-0.104,0.206-0.204,0.41-0.314,0.619c-7.13-7.225-13.571-16.408-19.304-27.6c-2.962-5.858-6.158-15.062-9.586-27.609
	c-2.197-7.988-5.092-19.854-8.687-35.598c-3.029-13.114-5.309-22.6-6.84-28.458c-5.226-19.937-13.996-31.953-26.311-36.047
	c-4.926-1.664-9.603-1.415-14.029,0.749c-4.46,2.197-7.639,5.792-9.536,10.784c-0.899,2.363-1.298,4.81-1.198,7.339
	c0.133,2.43,0.682,4.643,1.647,6.64c1.098,2.264,2.712,4.244,4.843,5.941c2.063,1.631,4.477,2.862,7.239,3.694
	c3.262,0.965,5.326,0.549,6.191-1.248c0.898-1.764-0.2-3.146-3.295-4.144c-1.365-0.433-2.962-1.364-4.793-2.795
	c-2.13-1.598-3.545-3.129-4.244-4.593c-1.332-2.696-1.432-5.509-0.3-8.438c1.698-4.294,4.743-6.69,9.137-7.189
	c2.263-0.266,4.726,0,7.389,0.799c4.427,1.365,8.504,4.759,12.232,10.185c3.895,5.591,6.973,12.714,9.236,21.368
	c1.797,6.823,3.911,15.677,6.341,26.561c3.894,16.908,6.84,29.09,8.837,36.546c3.561,13.114,6.89,22.716,9.985,28.808
	c6.988,13.691,13.756,24.207,20.308,31.571c-2.565,3.273-5.272,5.838-8.125,7.671c-8.121,5.258-13.414,9.152-15.876,11.682
	c-5.059,5.16-7.056,10.734-5.991,16.726c0.533,2.862,1.515,5.392,2.946,7.589c1.431,2.264,3.212,3.944,5.342,5.043
	c3.129,1.664,6.125,2.612,8.987,2.846c3.794,0.266,8.038-0.6,12.731-2.597c6.89-2.929,12.881-8.354,17.973-16.276
	c2.911-4.545,4.888-8.682,5.977-12.429c4.292,4.515,8.474,8.328,12.546,11.431c5.026,3.795,10.235,6.79,15.627,8.986
	c1.613,0.655,3.272,1.255,4.954,1.828c-0.327,0.317-0.657,0.637-1.009,0.969c-3.562,3.395-6.856,6.074-9.886,8.037
	c-6.19,4.094-9.486,8.305-9.885,12.632c-0.233,2.896,0.716,5.442,2.846,7.639c1.864,1.798,4.91,2.479,9.137,2.047
	c5.625-0.565,10.118-3.778,13.48-9.636l5.691-11.633c1.105-2.225,2.317-4.335,3.604-6.364c4.107,0.79,8.381,1.381,12.821,1.771
	c11.882,1.066,23.998,0.633,36.347-1.297c12.016-1.898,23.049-5.176,33.101-9.836c5.399-2.491,10.019-5.151,13.869-7.98
	c0.235,0.37,0.504,0.846,0.81,1.439l1.598,2.896c2.363,3.895,4.177,6.723,5.441,8.487c2.596,3.462,5.309,6.175,8.138,8.138
	c3.063,2.131,6.091,3.179,9.087,3.146c2.729-0.033,4.727-0.898,5.991-2.597c1.265-1.631,1.497-3.794,0.698-6.49
	c-0.965-3.129-3.211-6.207-6.74-9.236c-1.497-1.298-3.627-2.962-6.39-4.992l-5.892-4.643c-0.648-0.591-1.208-1.176-1.728-1.758
	c10.301,7.199,20.28,9.21,29.937,6.001c1.996-0.665,3.727-1.847,5.191-3.545c1.465-1.697,2.197-3.429,2.197-5.192
	c0-3.262-1.232-6.124-3.695-8.587c-2.529-2.463-6.224-4.46-11.083-5.991c-3.794-1.165-6.757-2.279-8.887-3.346
	c-0.008-0.004-0.015-0.008-0.021-0.012C288.61,191.829,293.902,185.041,298.597,177.337z M156.557,83.176
	c0.648,4.331,1.483,8.241,2.5,11.74c-1.233-1.866-2.368-3.895-3.398-6.098c-3.362-7.189-5.292-14.961-5.792-23.315
	c-0.064-1.162-0.161-2.244-0.286-3.26c2.159-0.758,4.292-1.647,6.4-2.672C155.046,66.563,155.237,74.431,156.557,83.176z"/>
</svg>
