<?xml version="1.0" encoding="utf-8"?>
<!-- Generator: Adobe Illustrator 16.0.0, SVG Export Plug-In . SVG Version: 6.00 Build 0)  -->
<!DOCTYPE svg PUBLIC "-//W3C//DTD SVG 1.1//EN" "http://www.w3.org/Graphics/SVG/1.1/DTD/svg11.dtd">
<svg version="1.1" id="图层_1" xmlns="http://www.w3.org/2000/svg" xmlns:xlink="http://www.w3.org/1999/xlink" x="0px" y="0px"
	 width="234px" height="201px" viewBox="0 0 234 201" enable-background="new 0 0 234 201" xml:space="preserve">
<path d="M232.885,47.303c-0.533-11.322-4.196-18.665-10.99-22.028c-2.863-1.399-6.193-2.115-9.989-2.148
	c-3.763-0.033-7.427,0.616-10.989,1.948c-12.487,4.662-22.511,12.954-30.07,24.875c-5.262,8.292-8.908,17.482-10.939,27.573
	c-0.556,2.765-0.896,5.593-1.046,8.48c-3.037-5.576-6.002-10.52-8.894-14.824c-3.944-5.87-7.942-10.823-11.994-14.904
	c2.437-4.193,5.534-9.844,9.297-16.965c4.928-9.291,7.825-14.968,8.691-17.033l1.299-3.597c0.232-1.166,0.033-1.981-0.6-2.447
	c-0.633-0.5-1.698-0.283-3.197,0.649c-0.932,0.566-2.348,1.682-4.246,3.347c-4.162,3.629-8.424,7.542-12.787,11.738
	c-6.385,6.126-10.671,10.673-12.87,13.65c-3.978-4.175-8.362-11.488-13.153-21.942c-3.63-7.892-6.161-14.219-7.593-18.981
	c-0.533-1.798-1.265-3.08-2.198-3.846c-0.732-0.633-1.499-0.899-2.297-0.799c-0.633,0.067-1.216,0.883-1.749,2.448l-1.099,4.595
	c-1.199,6.36-1.715,16.55-1.549,30.57c0.014,1.417,0.035,2.793,0.06,4.144c-2.211-2.253-4.895-4.933-8.052-8.04l-9.94-9.641
	l-3.197-2.997c-1.432-1.032-2.697-1.215-3.796-0.549c-0.965,0.566-1.465,1.515-1.498,2.847c-0.067,1.166,0.216,2.414,0.849,3.746
	c3.13,7.093,5.561,12.887,7.292,17.383c3.151,8.222,5.387,15.146,6.718,20.789c-0.646,1.386-1.249,2.819-1.814,4.294
	c-0.103,0.1-0.204,0.188-0.308,0.292c-2.531,2.531-4.263,5.345-5.195,8.442c-0.799,2.597-1.182,5.495-1.149,8.691
	c0.024,2.454,0.291,4.422,0.792,5.921c-0.208,1.316-0.417,2.631-0.592,3.969c-0.966,7.326-1.315,13.87-1.049,19.63
	c0.068,1.422,0.188,2.84,0.347,4.255c-1.438-1.003-2.645-1.898-3.616-2.685c0.585-2.292,1.026-4.929,1.321-7.914
	c0.966-9.291-0.066-18.781-3.097-28.472C61.172,59.724,49.55,46.32,33.133,41.559c-6.893-1.998-13.62-1.082-20.18,2.747
	C5.561,48.635,1.381,55.345,0.416,64.436c-0.333,3.53,0.633,5.428,2.897,5.694c1.28,0.143,2.744-0.193,4.388-0.998
	c0.321,0.311,0.651,0.625,1.007,0.948c3.063,2.797,4.545,4.429,4.445,4.896l0.22,5.193c-2.136-0.812-3.787-1.011-4.916-0.548
	c-2.098,0.866-3.347,2.764-3.746,5.694c-0.267,2.098-0.117,5.378,0.449,9.84c0.899,7.293,3.763,14.485,8.592,21.579
	c5.827,8.558,12.887,13.919,21.179,16.084c4.795,1.265,9.407,1.614,13.836,1.049c3.629-0.467,6.677-1.449,9.141-2.947
	c1.056-0.627,2.045-1.361,2.981-2.179l1.888-0.201c2.584,1.596,5.35,2.915,8.317,3.929c1.92,0.659,3.613,1.117,5.089,1.381
	c0.15,0.473,0.295,0.944,0.456,1.416c1.49,4.368,3.047,7.658,4.67,9.882c0.518,1.319,1.077,2.639,1.723,3.954
	c2.087,4.146,4.611,8.045,7.558,11.706c-0.71-0.181-1.443-0.382-2.213-0.617c-2.651-0.834-5.477-1.945-8.472-3.323
	c-1.017-1.905-2.284-3.664-3.815-5.268c-2.198-2.332-4.08-3.431-5.645-3.297c-0.866,0.066-1.648,0.566-2.348,1.498
	c-0.599,0.832-1.032,1.865-1.299,3.098c-0.433,1.864-1.315,3.662-2.647,5.395l-3.846,3.996l-3.297,2.996
	c-1.132,1.199-2.015,2.631-2.647,4.296c-1.465,3.862-2.131,7.876-1.998,12.038c0.1,4.229,1.016,8.375,2.748,12.438
	c0.732,1.699,1.598,3.113,2.597,4.246c1.032,1.166,1.898,1.682,2.598,1.549c1.232-0.233,2.131-1.316,2.697-3.247l0.749-4.296
	c0.333-2.764,1.432-5.795,3.297-9.091c1.798-3.23,3.563-5.361,5.294-6.394c2.996-1.791,5.329-4.323,7.003-7.591
	c2.4,0.62,5.22,1.056,8.443,1.313c-0.202,0.656-0.446,1.303-0.761,1.932l-2.048,3.396c-1.665,2.598-2.631,4.313-2.897,5.145
	c-0.933,3.031,0.283,8.009,3.646,14.936c1.599,3.23,3.264,4.629,4.995,4.195c1.332-0.299,2.348-2.847,3.047-7.643
	c0.6-4.063,2.581-7.758,5.944-11.088c1.107-1.134,1.679-2.837,1.735-5.089c1.744,0.2,3.661,0.119,5.757-0.257
	c0.635-0.115,1.246-0.244,1.834-0.387c1.036,0.447,2.084,0.842,3.145,1.188c0.34,0.221,0.702,0.435,1.064,0.647l-1.297,2.748
	c-1.199,2.931-1.515,5.411-0.949,7.442c0.333,1.266,1.216,3.146,2.647,5.645c1.332,2.331,2.364,3.896,3.097,4.695l1.848,1.698
	l2.148,0.2c0.399-0.166,0.749-0.683,1.049-1.549c0.333-0.965,0.5-2.098,0.5-3.396c0-1.564,0.149-3.146,0.449-4.745
	c0.366-2.099,0.916-3.58,1.648-4.446c0.663-0.822,1.271-1.91,1.83-3.24c0.707,0.186,1.424,0.368,2.166,0.543
	c3.605,0.847,7.123,1.318,10.561,1.453l1.677,4.891c0.833,2.564,1.481,4.297,1.948,5.195c0.732,1.365,1.615,2.115,2.647,2.248
	c0.799,0.1,1.765-0.3,2.897-1.199c1.365-1.099,2.447-2.613,3.246-4.545c1.31-3.169,2.321-6.013,3.042-8.537
	c4.438-1.367,8.473-3.36,12.093-5.999c2.531-0.632,4.463-1.415,5.795-2.348c0.364-0.262,0.721-0.561,1.07-0.892
	c0.527,0.599,1.221,1.287,2.126,2.091l3.847,3.347c0.249,0.254,0.49,0.55,0.733,0.835c0.007,0.141,0.008,0.27,0.016,0.413
	c0.167,4.43,0.167,7.177,0,8.242c-1.299,6.993-1.05,10.873,0.749,11.639c0.699,0.333,1.748,0.033,3.146-0.899
	c1.232-0.799,2.215-1.665,2.947-2.597c0.311-0.409,0.604-0.821,0.89-1.236c0.203,0.544,0.409,1.078,0.609,1.635
	c1.032,2.498,2.381,3.797,4.046,3.896c1.299,0.1,2.697-1.099,4.195-3.596c1.398-2.398,2.298-4.846,2.697-7.344
	c0.899-5.428,1.149-9.856,0.75-13.286c-0.5-4.695-2.148-8.292-4.945-10.79c-4.546-4.094-7.295-7.811-8.283-11.155
	c0.266,0.02,0.522,0.052,0.791,0.067c6.493,0.399,10.522-0.883,12.088-3.847c0.499-0.966,0.316-2.497-0.55-4.595
	c-0.833-1.965-2.181-4.196-4.046-6.693c-2.964-3.93-6.826-7.193-11.588-9.791c-3.047-1.623-6.2-2.836-9.454-3.658
	c-0.067-0.988-0.159-1.979-0.288-2.977c0.544,0.186,1.105,0.353,1.699,0.491l8.092,0.399c6.361-0.633,12.238-2.397,17.633-5.295
	c5.728-3.13,11.189-7.709,16.384-13.736c3.097-3.596,5.678-8.308,7.742-14.136c2.165-6.061,3.214-11.805,3.147-17.233
	c-0.022-2.076-0.227-3.968-0.586-5.704c1.457-1.766,2.638-4.269,3.533-7.533C232.617,56.277,233.084,51.932,232.885,47.303z"/>
</svg>
