<?xml version="1.0" encoding="utf-8"?>
<!-- Generator: Adobe Illustrator 16.0.0, SVG Export Plug-In . SVG Version: 6.00 Build 0)  -->
<!DOCTYPE svg PUBLIC "-//W3C//DTD SVG 1.1//EN" "http://www.w3.org/Graphics/SVG/1.1/DTD/svg11.dtd">
<svg version="1.1" id="图层_1" xmlns="http://www.w3.org/2000/svg" xmlns:xlink="http://www.w3.org/1999/xlink" x="0px" y="0px"
	 width="401px" height="291px" viewBox="0 0 401 291" enable-background="new 0 0 401 291" xml:space="preserve">
<path d="M399.601,231.193c-1.267-4.865-5.082-9.68-11.446-14.445c-13.828-10.396-28.056-17.144-42.684-20.242
	c-16.494-3.472-32.661-2.047-48.503,4.26c-4.524,0.761-8.353,2.41-11.482,4.953c-3.834-3.209-7.896-8.271-12.188-15.211
	c-4.966-8.055-8.27-15.126-9.92-21.221c0.075-0.34,0.156-0.674,0.225-1.021c0.162-0.825,0.305-1.695,0.436-2.596
	c0.149,0.067,0.298,0.135,0.464,0.196l3.198,0.5c2.866-0.2,6.515-1.75,10.946-4.648c3.699-2.387,6.904-5.026,9.668-7.894
	c2.36,2.04,6.164,3.457,11.425,4.245c7.563,1.133,15.644,0.732,24.24-1.199c6.265-1.4,11.246-8.48,14.944-21.242
	c2.339-8.139,4.169-18.889,5.491-32.234l3.506,2.795l7.047,5.998c1.2,1.1,2.033,0.583,2.499-1.549
	c0.233-1.066,0.417-3.049,0.55-5.948c0.101-1.5-0.2-3.715-0.899-6.647c-0.6-2.633-1.216-4.632-1.85-5.998l2.999,0.35
	c0.866,0.133,1.449-0.05,1.749-0.55c0.733-1.366,0.684-3.532-0.149-6.498c-1.333-4.798-4.882-9.147-10.646-13.045
	c-0.799-3.499-2.549-8.213-5.248-14.145c-3.099-6.797-6.547-13.112-10.346-18.943c-10.329-15.794-20.076-23.458-29.239-22.992
	c-9.263,0.467-18.343,7.831-27.239,22.092c-8.164,13.062-13.313,26.707-15.445,40.935c-4.631,3.832-8.129,8.213-10.496,13.145
	c-1.998,4.198-2.564,6.781-1.699,7.747c0.634,0.7,1.4,1.083,2.3,1.149l5.904-0.707c-2.174,4.071-3.159,7.057-2.956,8.954
	c0.167,1.366,0.417,2.266,0.75,2.699c0.4,0.467,1.083,0.617,2.049,0.45c0.725-0.101,2.256-0.594,4.591-1.48
	c1.015,3.678,2.149,6.824,3.407,9.427c1.6,3.365,3.031,4.981,4.298,4.848c0.308-0.035,0.63-0.171,0.961-0.354l3.237,4.153
	c0.099,0.138,0.191,0.27,0.29,0.407l-4.188,7.34c-1.801,3.146-3.544,5.989-5.229,8.536c-0.131-2.889-0.685-5.966-1.667-9.236
	c-2.666-8.897-7.864-15.145-15.595-18.743c-3.466-9.33-8.446-19.376-14.944-30.139c-7.897-13.128-17.011-25.424-27.34-36.886
	c-0.607-0.677-1.226-1.309-1.849-1.92c0.986-0.88,2.009-1.796,3.099-2.778c9.096-8.23,15.211-14.328,18.343-18.293
	c0.767-0.967,1.017-1.683,0.749-2.149c-0.266-0.5-1.216-0.85-2.849-1.05c-7.63-0.833-20.126-0.633-37.486,0.6l-7.147-17.994
	c-1.933-4.565-3.199-6.831-3.798-6.797c-1.666,0.1-5.831,3.632-12.496,10.596c-5.631,5.898-9.613,10.413-11.945,13.545l-12.745-1.75
	l-12.246-1c-1.699,0.133-2.732,0.367-3.099,0.7c-0.3,0.3-0.383,1.05-0.25,2.249c0.3,2.732,2.099,7.997,5.398,15.794
	c3.299,7.797,5.831,12.812,7.597,15.044c-0.9,3.465-1.2,9.113-0.9,16.943c0.233,5.665,0.55,9.73,0.95,12.195
	c0.164,0.843,0.385,1.417,0.659,1.75c-1.815,5.599-3.23,11.584-4.208,17.993c-1.419,9.302-1.669,16.371-0.756,21.219
	c-0.938,0.047-1.916,0.271-2.943,0.723c-1.833,0.8-3.299,2.033-4.398,3.699c-1.945,2.95-3.053,6.752-3.344,11.386
	c-1.1-1.234-2.376-2.735-3.854-4.538c-3.465-4.176-6.471-8.06-9.067-11.684c1.843-3.395,3.715-8.356,5.619-14.907
	c2.866-9.963,4.332-17.727,4.398-23.292v-0.25c0-7.597-0.733-13.912-2.199-18.943c-2.833-9.597-8.497-18.593-16.994-26.99
	c-9.163-9.063-19.176-15.827-30.039-20.292c-9.963-4.131-19.559-5.914-28.789-5.348c-5.731,0.333-13.378,3.282-22.941,8.847
	C6.314,29.435,1.066,33.983,0.1,37.516c-0.533,1.966,0.783,3.365,3.949,4.198l7.047,1.1l10.346,2.449
	c3.496,0.936,6.679,2.004,9.583,3.19c-0.502,1.956-0.818,4.236-0.937,6.856l-0.05,0.6c-0.133,3.099-0.15,5.298-0.05,6.598
	c0.167,1.733,0.6,2.949,1.3,3.649c0.4,0.366,1.299,0.533,2.699,0.5l3.849-0.25c4.199-0.366,7.847-1.499,10.946-3.398
	c0.537-0.331,1.038-0.68,1.508-1.044c0.958,1.13,1.895,2.326,2.791,3.644l7.496,11.08c-0.451,1.151-0.901,2.369-1.349,3.665
	c-0.697,2.008-1.244,3.781-1.65,5.338c-4.665,1.257-9.795,2.061-15.393,2.409c-7.53,0.502-13.415-0.215-17.7-2.118
	c-1.241-1.623-2.504-3.361-3.792-5.23l-4.648-6.547c-1.933-2.399-3.416-3.399-4.449-2.999c-1.866,0.767-3.049,4.298-3.548,10.596
	c-0.367,4.665-0.367,8.83,0,12.495c0.533,5.832,2.532,10.213,5.998,13.146c1.366,1.133,3.282,2.349,5.748,3.648l7.197,3.749
	l1.299,0.7c3.865,2.133,9.73,6.214,17.594,12.246l8.097,6.447c3.132,2.433,5.515,4.082,7.147,4.948
	c4.705,2.381,13.629,1.44,26.738-2.794c3.21,4.534,8.903,10.178,17.095,16.939c8.83,7.23,14.178,10.596,16.044,10.096
	c0.608-0.165,1.448-0.563,2.47-1.142c1.942,5.055,4.588,9.963,7.943,14.724c1.101,8.898,4.417,18.661,9.979,29.303
	c0.906,1.731,1.853,3.435,2.83,5.117c-1.921,1.163-3.979,2.914-6.179,5.278c-3.666,3.898-6.115,7.947-7.348,12.146
	c-1.237,4.049-0.937,8.098,0.863,12.146c0,0.014,0,0.026-0.001,0.04l-1.461,0.91c-1.63,1.087-3.087,2.269-4.381,3.539
	c-1.872-0.752-3.568-1.085-5.065-0.94c-0.867,0.1-1.5,0.883-1.899,2.349c-0.711,2.554-0.631,6.498,0.225,11.812
	c-0.325,2.181-0.403,4.64-0.225,7.382c0.233,3.099,0.733,6.047,1.5,8.847c0.712,2.593,1.552,4.506,2.512,5.77
	c-0.971,2.422-1.398,3.975-1.262,4.626c0.1,0.4,0.333,0.667,0.7,0.801c1.233,0.499,4.665,0.199,10.296-0.9
	c5.308-1.018,8.698-1.974,10.216-2.869l4.116,0.853c-1.255,1.607-1.932,2.953-1.987,4.017c-0.034,0.466,0.083,0.865,0.35,1.199
	c0.233,0.333,0.583,0.516,1.05,0.549l12.345-0.649c6.509-0.642,10.221-1.396,11.153-2.262c9.733,0.331,15.753-0.977,18.036-3.936
	c2.666-3.466,3.849-9.347,3.549-17.644c-0.176-5.173-0.704-8.97-1.578-11.409c6.477,4.158,13.47,7.775,21.021,10.81
	c6.181,2.479,12.478,4.443,18.887,5.916c0.166,0.241,0.321,0.473,0.455,0.682c1.267,1.999,2.366,4.265,3.299,6.797l0.6,1.8
	l1.9,5.147c0.832,1.8,1.782,2.866,2.848,3.199c1.267,0.367,2.566,0,3.899-1.1c2.999-2.365,5.415-6.248,7.247-11.646
	c0.218-0.627,0.407-1.255,0.592-1.884c6.59,0.398,13.294,0.294,20.108-0.295c0.227,1.142,0.504,2.175,0.842,3.078
	c0.667,1.699,1.583,2.782,2.749,3.249l4.462,1.128c0.91,1.764,3.044,3.949,6.435,6.569c3.697,2.832,6.113,4.032,7.246,3.599
	c1.367-0.5,3.016-2.033,4.949-4.599c0.979-1.299,1.683-2.353,2.129-3.177c7.711,0.557,14.044,0.719,19,0.487l9.909,1.94
	c6.164,1.066,9.696,1.482,10.596,1.249c1.066-0.3-0.316-3.615-4.148-9.946c-3.345-5.497-5.698-8.264-7.063-8.302
	c0.272-4.608,0.176-9.446-0.334-14.54c-0.301-3.147-0.746-6.223-1.316-9.235c0.775-0.707,1.58-1.557,2.416-2.56
	c2.719-3.245,4.847-7.195,6.386-11.85c3.598-1.625,5.357-2.924,5.26-3.895c-0.038-0.361-0.182-0.731-0.429-1.108
	c11.594-3.396,24.414-2.783,38.465,1.858c7.431,2.465,13.795,5.48,19.093,9.046c1,0.7,1.767,0.616,2.3-0.25
	C400.05,234.342,400.066,232.992,399.601,231.193z"/>
</svg>
