<?xml version="1.0" encoding="utf-8"?>
<!-- Generator: Adobe Illustrator 16.0.0, SVG Export Plug-In . SVG Version: 6.00 Build 0)  -->
<!DOCTYPE svg PUBLIC "-//W3C//DTD SVG 1.1//EN" "http://www.w3.org/Graphics/SVG/1.1/DTD/svg11.dtd">
<svg version="1.1" id="图层_1" xmlns="http://www.w3.org/2000/svg" xmlns:xlink="http://www.w3.org/1999/xlink" x="0px" y="0px"
	 width="193px" height="176px" viewBox="0 0 193 176" enable-background="new 0 0 193 176" xml:space="preserve">
<path d="M191.16,130.336c-3.271-5.809-8.562-11.634-15.872-17.476c-14.042-11.272-31.734-18.542-53.056-21.833
	c0.378-0.197,0.758-0.393,1.132-0.599c8.849-4.88,14.613-11.223,17.311-19.021c2.614-1.344,4.208-4.245,4.771-8.718
	c0.701-5.542-0.65-11.266-4.055-17.175c-3.605-6.309-9.03-11.449-16.273-15.422c-5.475-3.004-11.75-5.241-18.827-6.709
	c-3.038-7.21-6.894-14.086-11.566-20.629c-1.302-1.802-2.37-2.72-3.205-2.754c-1.369-0.066-2.987,1.536-4.857,4.807
	c-2.303,4.005-5.658,10.598-10.064,19.778c-5.675,1.135-10.833,3.221-15.472,6.259c-3.848,2.46-6.548,4.996-8.131,7.604
	c-3.16,1.852-5.793,4.336-7.892,7.467c-2.203,3.238-3.672,6.759-4.406,10.565c-0.701,3.372-0.684,6.075,0.05,8.111
	c0.233,0.601,0.634,1.202,1.202,1.803c0.667,0.667,1.318,1.051,1.953,1.151c0.258,0.048,0.525,0.063,0.797,0.063
	c1.397,8.695,6.468,15.87,15.226,21.519c1.808,1.161,3.692,2.2,5.646,3.129c-13.316,3.757-26.315,10.803-38.994,21.155
	c-8.712,7.11-15.472,13.819-20.279,20.129c-4.506,5.908-6.576,10.465-6.208,13.669c0.333,2.838,3.271,6.51,8.813,11.016
	c5.341,4.373,9.163,6.51,11.466,6.409c1.369-0.033,2.103-1.235,2.203-3.604l-0.351-4.406l-0.05-2.153
	c0.134-1.001,0.501-2.22,1.102-3.655c1.836-4.473,5.858-10.081,12.067-16.824c8.332-9.106,17.578-16.02,27.721-20.784
	c-0.22,1.39-0.382,2.827-0.433,4.361c-0.133,3.571,0.417,6.993,1.652,10.265c1.235,3.305,3.071,6.209,5.508,8.712
	c4.213,4.387,9.642,7.131,16.275,8.25l-1.705,4.317c-1.435,3.939-2.036,6.227-1.803,6.86c0.234,0.567,2.47,3.604,6.71,9.112
	c4.206,5.441,6.759,8.613,7.661,9.514c0.868,0.869,1.469,1.285,1.803,1.252c0.367-0.033,0.951-0.601,1.753-1.702
	c2.77-3.806,5.373-7.878,7.811-12.218c2.504-4.406,3.705-7.109,3.605-8.111c-0.066-0.734-0.951-2.871-2.654-6.408l-2.102-4.315
	c0.931-0.39,1.911-0.85,2.953-1.394c3.205-1.669,5.725-3.455,7.561-5.357c2.37-2.437,4.156-5.391,5.357-8.862
	c1.068-3.238,1.569-6.659,1.502-10.265c-0.048-1.779-0.285-3.543-0.702-5.29c9.674,3.441,19.073,8.166,28.191,14.202
	c7.778,5.208,13.485,9.965,17.124,14.271c1.869,2.304,3.222,4.54,4.057,6.71c0.601,1.635,1.018,3.654,1.252,6.059
	c0.199,1.969,0.634,3.104,1.301,3.404c0.568,0.268,1.436-0.1,2.604-1.102c2.371-1.969,4.725-4.773,7.061-8.412
	c2.471-3.805,4.206-7.427,5.207-10.865l0.802-3.305C191.578,131.754,191.494,130.902,191.16,130.336z M91.739,144.771
	c0.539,0.021,1.083,0.034,1.632,0.034c0.929,0,1.839-0.037,2.737-0.102c-1.554,0.186-3.007,0.203-4.369,0.069
	C91.739,144.772,91.74,144.772,91.739,144.771z"/>
</svg>
