<?xml version="1.0" encoding="utf-8"?>
<!-- Generator: Adobe Illustrator 16.0.0, SVG Export Plug-In . SVG Version: 6.00 Build 0)  -->
<!DOCTYPE svg PUBLIC "-//W3C//DTD SVG 1.1//EN" "http://www.w3.org/Graphics/SVG/1.1/DTD/svg11.dtd">
<svg version="1.1" id="图层_1" xmlns="http://www.w3.org/2000/svg" xmlns:xlink="http://www.w3.org/1999/xlink" x="0px" y="0px"
	 width="319px" height="335px" viewBox="0 0 319 335" enable-background="new 0 0 319 335" xml:space="preserve">
<path d="M316.311,243.694l-3.946-3.546c-2.963-2.764-5.194-5.162-6.692-7.192c-1.998-2.73-3.363-5.328-4.096-7.792
	c-0.833-2.896-1.216-6.843-1.148-11.838c0.033-6.526-1.083-12.438-3.348-17.731c-3.695-8.69-10.305-15.367-19.828-20.028
	c-4.596-2.266-9.724-3.58-15.385-3.946c-6.127-0.399-11.787,0.399-16.982,2.397c-14.048,5.318-22.68,14.168-25.914,26.538
	c-2.936-3.501-5.18-6.05-6.718-7.626c4.553-2.697,8.959-5.58,13.202-8.673c20.663-15.055,33.102-31.646,37.354-49.77
	c2.756-1.866,5.093-4.65,7-8.37c2.132-4.162,3.396-8.94,3.797-14.335c0.532-7.059-0.816-11.737-4.046-14.035
	c-1.142-0.813-2.262-1.284-3.359-1.436c0.334-3.639-0.104-7.686-1.336-12.15c-1.466-5.261-3.746-9.806-6.843-13.636
	c-3.663-4.528-7.658-8.058-11.988-10.589c-3.633-2.106-6.982-3.235-10.056-3.411l-0.933-0.735c-1.764-1.332-3.463-2.431-5.094-3.297
	c-8.725-4.595-19.48-7.908-32.267-9.939c-12.254-1.931-25.356-2.547-39.309-1.848c-3.33,0.2-7.609-2.581-12.836-8.341
	c-6.194-6.859-10.839-15.45-13.936-25.773c-0.899-2.997-3.996-4.995-9.291-5.994c-4.795-0.933-9.44-0.816-13.935,0.35
	c-6.593,1.698-11.588,3.896-14.984,6.593c-3.263,2.63-4.712,5.478-4.346,8.541c1.232,10.922,0.566,20.828-1.998,29.719
	c-2.131,7.459-4.578,11.804-7.342,13.037c-12.919,5.694-24.291,12.187-34.114,19.479c-10.096,7.485-17.886,15.357-23.377,23.614
	c-2.094,0.534-4.208,1.37-6.341,2.508c-3.929,2.131-7.209,4.978-9.84,8.541c-3.13,4.262-4.961,9.407-5.494,15.434
	c-0.475,5.52,0.275,10.827,2.234,15.924c-0.95,5.559-0.896,10.707,0.164,15.443c1.166,5.085,3.428,9.249,6.768,12.507
	c0.449,2.81,1.488,5.534,3.122,8.172c1.832,2.93,4.495,5.594,7.992,7.991c3.163,2.198,6.077,3.563,8.741,4.096
	c1.109,0.229,2.074,0.269,2.902,0.129c9.252,11.587,24.975,19.541,47.196,23.847c2.021,0.39,4.058,0.729,6.102,1.043
	c-0.466,0.991-0.925,1.987-1.357,3.002c-0.167,0.393-0.31,0.784-0.47,1.177c-2.324-1.205-4.878-2.216-7.671-3.024
	c-3.863-1.065-7.742-1.632-11.638-1.698c-4.729-0.033-9.34,0.6-13.835,1.897c-6.094,1.766-11.088,4.579-14.984,8.441
	c-6.926,6.793-11.039,14.668-12.337,23.625c-0.999,6.894-0.316,13.753,2.048,20.579c1.632,4.729,2.498,8.608,2.598,11.638
	c0.066,2.564-0.417,5.444-1.449,8.641c-0.466,1.532-1.465,3.863-2.997,6.993l-3.046,6.094c-0.533,1.032-0.716,1.948-0.55,2.747
	c0.167,0.6,0.616,1.349,1.349,2.248c0.966,1.132,2.964,2.713,5.994,4.744c2.964,1.965,4.945,3.064,5.944,3.297
	c0.933,0.233,1.715,0.233,2.348,0l1.898-1.448l7.542-8.292c4.695-4.861,7.859-7.392,9.49-7.592l3.646-0.35l13.985-1.648
	c7.368-1.578,13.398-4.283,18.102-8.104c2.611,3.569,5.627,6.924,9.069,10.052c1.686,1.531,3.435,2.968,5.239,4.321
	c1.037,5.334,2.087,10.092,3.152,14.26c2.198,8.49,4.129,13.303,5.794,14.435c0.633,0.399,1.199,0.532,1.698,0.399
	c1.432-0.299,4.778-2.914,10.04-7.842l8.391-8.123c6.482,1.445,13.402,2.231,20.778,2.329c12.254,0.167,24.125-2.064,35.613-6.692
	c5.396-2.185,10.373-4.778,14.949-7.761c2.69,1.541,6.557,3.096,11.623,4.663c6.16,1.932,10.172,2.498,12.037,1.699
	c0.799-0.367,1.266-0.899,1.398-1.599c0.366-1.798,0.267-6.96-0.3-15.483c-0.422-6.488-0.882-11.045-1.379-13.672
	c1.624-2.893,3.016-5.91,4.177-9.055c2.82-7.614,4.146-15.591,4.011-23.924c11.049,6.314,26.392,7.301,46.036,2.945l1.35-0.3
	c2.33-0.433,7.941,2.281,16.832,8.142c1.932,1.332,3.68,1.748,5.244,1.249c2.564-0.8,5.078-2.78,7.542-5.944
	c2.098-2.697,3.363-5.027,3.796-6.992C317.792,246.242,317.409,244.927,316.311,243.694z"/>
</svg>
