<?xml version="1.0" encoding="utf-8"?>
<!-- Generator: Adobe Illustrator 16.0.0, SVG Export Plug-In . SVG Version: 6.00 Build 0)  -->
<!DOCTYPE svg PUBLIC "-//W3C//DTD SVG 1.1//EN" "http://www.w3.org/Graphics/SVG/1.1/DTD/svg11.dtd">
<svg version="1.1" id="图层_1" xmlns="http://www.w3.org/2000/svg" xmlns:xlink="http://www.w3.org/1999/xlink" x="0px" y="0px"
	 width="223px" height="269px" viewBox="0 0 223 269" enable-background="new 0 0 223 269" xml:space="preserve">
<path d="M221.25,76.087c-1.033-3.067-2.617-5.885-4.752-8.452c-3.7-4.435-8.201-7.852-13.502-10.252
	c-7.77-3.534-16.638-4.568-26.606-3.101c-6.066,0.898-11.561,2.687-16.492,5.352c-1.491-1.597-3.139-3.133-4.962-4.602
	c-0.458-0.368-0.938-0.713-1.409-1.067c1.529-1.65,3.176-3.28,4.96-4.884c8.135-7.269,15.586-11.853,22.354-13.753
	c3.768-1.033,6.435-2.184,8.001-3.451c1.534-1.2,2.318-2.75,2.352-4.651c0.033-3.301-2.102-6.401-6.402-9.302
	c-4.066-2.734-8.401-4.268-13.002-4.601c-6.969-0.5-13.438,0.617-19.404,3.351c-4.535,2.067-8.553,4.917-12.053,8.552
	c-3.768,3.968-7.285,9.735-10.553,17.304c-0.075,0.174-0.137,0.338-0.211,0.511c-2.751-0.671-5.51-1.203-8.275-1.562
	c0.076-0.446,0.152-0.891,0.234-1.35c0.6-3.501,2.15-10.786,4.65-21.855l1.001-4.451c0.634-3.134-0.101-6.052-2.2-8.752
	c-1.067-1.4-2.602-2.518-4.602-3.351c-2-0.867-4.284-1.35-6.852-1.45c-5.501-0.233-10.152,1.117-13.953,4.051
	s-6.101,6.968-6.901,12.103c-0.9,5.801-0.65,12.719,0.75,20.754l1.286,5.62c-1.814,0.413-3.609,0.878-5.376,1.424
	c-0.332-0.53-0.658-1.059-1.011-1.592c-5.134-7.768-11.019-13.27-17.654-16.503c-4.468-2.167-9.069-3.334-13.803-3.501
	c-4.434-0.167-8.752,0.55-12.953,2.15c-2.101,0.833-4.151,2.101-6.151,3.801c-2.334,2-3.851,4.084-4.551,6.251
	c-0.733,2.301-0.517,4.334,0.65,6.102c1.2,1.8,2.9,3.25,5.101,4.351c1.367,0.667,3.601,1.467,6.701,2.4l6.552,2.101
	c2.767,1.033,5.101,2.217,7.001,3.551c1.869,1.304,3.689,2.702,5.477,4.163c-1.093,0.928-2.145,1.883-3.145,2.872
	c-2.408-1.035-4.934-1.932-7.583-2.684c-8.069-2.3-15.604-3.05-22.605-2.25c-6.068,0.7-11.219,2.184-15.453,4.451
	c-4.968,2.634-9.085,6.501-12.353,11.603c-1.567,2.434-2.617,4.851-3.15,7.251c-0.534,2.334-0.5,4.351,0.1,6.052
	c0.8,2.334,2.317,3.851,4.551,4.551c0.934,0.333,2.3,0.333,4.101,0l6.852-1.5c7.677-1.643,14.345-2.767,20.025-3.382
	c-6.234,2.068-11.616,5.004-16.124,8.833C12.97,99.159,8.152,105.91,5.451,113.545c-2.701,7.668-2.534,14.07,0.5,19.204
	c0.933,1.534,2.2,2.75,3.801,3.651c1.4,0.801,2.9,1.268,4.501,1.4c2.667,0.2,5.484-0.7,8.452-2.701
	c1.934-1.267,3.484-2.617,4.651-4.05l0.35-0.45c7.949-9.609,15.607-16.629,22.976-21.072c-0.809,2.764-1.443,5.521-1.871,8.269
	c-0.589,3.949-0.709,7.553-0.414,10.851c-0.817,1.667-1.574,3.376-2.237,5.152c-3.534,9.569-5.635,16.604-6.302,21.104
	c-1.033,6.936,0.1,12.27,3.401,16.004c2.434,2.801,5.551,5.001,9.352,6.602c3.701,1.566,6.985,2.134,9.852,1.7
	c4.201-0.601,7.135-2.733,8.802-6.401c0.399-0.921,1.085-3.203,2.049-6.811c11.443,7.241,23.973,10.985,37.581,11.252
	c2.858,3.617,5.188,7.006,6.98,10.162c1.465,2.554,2.646,5.042,3.569,7.472c-2.514,1.692-4.374,3.718-5.57,6.081
	c-0.312,0.623-0.559,1.266-0.767,1.919c-4.089,2.736-7.63,5.94-10.623,9.61l-1.614-0.477c-5.601-1.801-8.602-2.751-9.002-2.851
	c-2.967-0.833-5.618-1.251-7.952-1.251c-2.434,0-4.834,0.484-7.202,1.451c-2.434,1.033-4.134,2.316-5.101,3.851
	c-0.934,1.4-1.2,3.051-0.8,4.951c0.4,2.001,1.484,3.884,3.251,5.651c4.165,4.133,10.633,6.487,19.396,7.067
	c-0.416,2.057-0.66,4.118-0.692,6.186l0.024,0.871l-9.076,2.93c-3.701,1.366-6.518,2.751-8.452,4.151
	c-3.134,2.334-4.984,5.367-5.551,9.102c-0.567,3.701,0.3,6.969,2.601,9.803c1.5,1.934,3.667,3.1,6.501,3.5
	c4.734,0.7,10.602-0.916,17.604-4.852c3.489-2.039,6.362-3.74,8.641-5.116c4.697,3.024,11.286,5.022,19.816,5.968
	c9.135,1,18.004,0.516,26.605-1.451c8.147-1.867,14.912-4.833,20.33-8.868c2.044,0.503,4.249,1.074,6.626,1.717l7.952,2.3
	c2.967,0.834,5.168,1.284,6.602,1.352c3.2,0.166,5.918-0.701,8.151-2.602c2.401-2.033,3.601-4.801,3.601-8.302
	c0-3.267-1.199-5.984-3.601-8.151c-2.4-2.134-5.501-3.317-9.302-3.551c-1.762-0.108-4.543-0.564-8.308-1.355
	c0.216-2.733-0.012-5.511-0.684-8.332c7.304-1.08,12.751-3.159,16.292-6.266c3.936-3.435,4.552-7.219,1.852-11.354
	c-2.135-3.268-5.985-4.918-11.553-4.951c-5.192-0.031-11.115,1.367-17.75,4.162c-1.233-1.105-2.552-2.143-3.955-3.111
	c-5.655-3.931-12.208-6.404-19.638-7.456c-0.387-0.425-0.799-0.843-1.267-1.246c-2.058-1.822-4.61-3.164-7.602-4.08
	c0.057-1.301,0.139-2.64,0.25-4.021c0.499-6.082,1.479-11.891,2.937-17.43c1.674-0.781,3.334-1.608,4.965-2.524
	c8.468-4.734,15.319-10.72,20.554-17.955c0.015-0.02,0.027-0.041,0.041-0.061c0.004,0.004,0.007,0.007,0.01,0.011
	c1.967,2.167,4.268,3.734,6.901,4.701c2.435,0.9,4.868,1.15,7.302,0.75c2.134-0.333,4.102-1.3,5.901-2.9
	c1.7-1.567,3.101-3.584,4.2-6.052c2.234-5.067,2.618-10.785,1.15-17.153c-1.5-6.535-4.801-13.187-9.902-19.955
	c-2.632-3.504-5.728-6.617-9.271-9.35c-1.553-4.073-3.658-8.202-6.313-12.385c0.149-1.786,0.162-3.57,0.037-5.353
	c2.41-0.133,5.003-0.08,7.796,0.181c7.669,0.734,14.703,2.417,21.104,5.051c5.435,2.334,9.568,3.734,12.402,4.201
	c3.568,0.6,6.419,0.066,8.553-1.601c0.6-0.467,1.15-1.25,1.65-2.351c0.6-1.3,0.916-2.667,0.95-4.101
	C222.55,81.222,222.15,78.721,221.25,76.087z"/>
</svg>
