<?xml version="1.0" encoding="utf-8"?>
<!-- Generator: Adobe Illustrator 16.0.0, SVG Export Plug-In . SVG Version: 6.00 Build 0)  -->
<!DOCTYPE svg PUBLIC "-//W3C//DTD SVG 1.1//EN" "http://www.w3.org/Graphics/SVG/1.1/DTD/svg11.dtd">
<svg version="1.1" id="图层_1" xmlns="http://www.w3.org/2000/svg" xmlns:xlink="http://www.w3.org/1999/xlink" x="0px" y="0px"
	 width="252px" height="337px" viewBox="0 0 252 337" enable-background="new 0 0 252 337" xml:space="preserve">
<path d="M243.496,124.645c-1.006-0.898-2.304-1.811-3.876-2.734c0.218-2.059,0.328-4.162,0.328-6.312
	c0-2.999-0.716-5.764-2.149-8.296c-1.1-1.933-2.516-3.548-4.248-4.848c1-3.365,1.449-6.264,1.35-8.696
	c-0.232-4.098-1.482-8.247-3.748-12.445c-1.034-1.899-2.442-4.057-4.198-6.455l2.899-0.292l8.146-1.15
	c2.565-0.666,4.148-1.749,4.748-3.249c0.7-1.699,0.999-3.532,0.899-5.498c-0.1-2.032-0.6-3.848-1.499-5.447
	c-1.399-2.466-3.648-4.665-6.747-6.597c-3.031-1.866-6.28-3.082-9.746-3.648c-6.23-1-12.327-0.833-18.291,0.5
	c-2.883,0.638-5.457,1.522-7.757,2.626c-3.657-1.549-7.547-2.814-11.685-3.776c-7.865-1.852-15.614-2.409-23.247-1.688
	c0.177-0.615,0.361-1.204,0.557-1.76c2.065-5.931,5.78-10.995,11.146-15.193c4.531-3.565,7.696-6.313,9.496-8.246
	c2.631-2.832,4.048-5.448,4.248-7.847c0.166-1.799,0.083-3.349-0.25-4.648c-0.5-1.866-1.533-3.631-3.1-5.297
	c-1.199-1.2-2.948-2.149-5.247-2.849c-2.266-0.666-4.614-0.933-7.047-0.799c-4.431,0.233-9.029,1.566-13.794,3.998
	c-5.863,2.965-10.712,7.047-14.543,12.245c-4.465,6.064-7.68,12.744-9.646,20.041c-1.799,6.63-2.516,13.511-2.148,20.641
	c0,0.008,0.001,0.017,0.002,0.025c-6.838,4.435-12.499,10.155-16.975,17.171c-0.679,0.183-1.344,0.384-1.999,0.6
	c-7.425-7.292-15.471-13.486-24.16-18.546c-13.561-7.863-27.887-12.511-42.98-13.944c-10.629-0.966-19.625,0.566-26.988,4.598
	c-6.43,3.499-10.295,8.013-11.595,13.544c-0.933,3.932-0.616,7.597,0.95,10.995c1.632,3.598,4.381,6.147,8.246,7.646
	c4.098,1.566,8.08,2.532,11.945,2.899c2.599,0.233,6.48,0.25,11.645,0.05c8.829-0.333,14.71-0.433,17.642-0.3
	c7.63,0.333,14.493,1.632,20.591,3.898c5.13,1.906,9.98,4.355,14.562,7.325c-0.008,0.017-0.017,0.033-0.025,0.05
	c-4.109,3.916-7.702,7.973-10.778,12.172c-4.566-0.338-8.511-0.46-11.805-0.356c-14.061,0.4-27.305,3.448-39.732,9.146
	c-15.46,7.097-25.489,15.26-30.087,24.489c-3.099,6.164-3.582,11.812-1.449,16.942c0.833,1.933,2.099,3.582,3.798,4.948
	c1.666,1.333,3.532,2.216,5.598,2.649c4.198,0.9,9.029,0.117,14.494-2.349c5.631-2.532,11.578-6.697,17.842-12.495
	c8.673-8.042,18.411-13.646,29.209-16.828c-1.585,6.85-2.19,14.085-1.771,21.726c0.083,2.128,0.335,4.722,0.749,7.769
	c-5.543,7.595-9.326,15.101-11.344,22.518c-1.399,4.997-1.733,10.562-1,16.692c0.8,6.563,2.632,11.695,5.498,15.393
	c1.499,1.934,3.448,3.416,5.847,4.449c2.299,0.999,4.748,1.465,7.347,1.398c5.664-0.1,9.696-2.382,12.095-6.847
	c0.556-1.043,1.07-2.383,1.545-3.983c1.546,2.713,3.259,5.699,5.151,8.98l2.449,3.999c3.598,6.23,5.564,12.61,5.897,19.142
	c0.2,3.564,0.1,6.597-0.3,9.096c-0.433,2.633-1.266,4.898-2.499,6.797c-4.165,0.6-9.379,3.332-15.643,8.196
	c-5.797,4.498-9.729,8.546-11.795,12.145c-1.299,0.899-2.982,1.6-5.048,2.099l-5.897,0.9l-6.896,0.949
	c-2.799,0.533-5.031,1.25-6.697,2.149c-2.199,1.166-3.932,3.731-5.198,7.696c-1.199,3.699-1.699,7.58-1.499,11.645l0.1,1.35
	c0.7,6.297,3.415,10.096,8.146,11.395l5.797,0.201l1.69-0.19c0.111,0.676,0.242,1.341,0.409,1.989
	c1.066,4.298,2.582,7.946,4.548,10.945c2.399,3.664,5.115,5.747,8.146,6.246c2.799,0.467,6.414-0.016,10.845-1.449
	c2.232-0.732,6.164-2.314,11.795-4.748c4.431-1.932,7.53-3.231,9.296-3.897c1.229-0.481,2.348-0.888,3.36-1.22
	c12.619,4.906,24.81,7.047,36.572,6.418c10.362-0.566,18.458-3.049,24.289-7.447c1.699-1.333,3.015-2.133,3.948-2.398
	c1.6,0.1,3.848,0.666,6.747,1.699l7.396,2.848c4.831,1.732,8.296,2.865,10.396,3.398c3.998,1,7.663,1.316,10.995,0.95
	c4.665-0.5,8.413-3.948,11.245-10.346c2.166-4.864,3.281-9.029,3.349-12.494c0.066-3.365-0.884-6.331-2.849-8.896
	c-0.834-1.1-2.666-2.266-5.498-3.499l-7.946-3.249c-5.231-2.199-8.813-3.798-10.745-4.797c-4.132-2.232-7.53-4.748-10.195-7.547
	c-1.799-5.265-4.182-9.646-7.146-13.145c-3.633-4.298-8.48-7.764-14.544-10.396c-3.599-7.53-8.88-14.927-15.843-22.19
	c-1.699-1.799-4.016-3.914-6.947-6.347l-6.697-5.497c-7.563-6.564-13.177-12.562-16.842-17.992
	c-5.165-7.597-9.479-17.676-12.944-30.236l-0.649-3.049c-0.267-1.366-0.383-2.399-0.35-3.099c0.056-1.631,0.254-3.229,0.577-4.798
	c0.059-0.099,0.113-0.202,0.173-0.3c0.842-1.39,1.673-2.641,2.496-3.771c3.634,3.826,7.631,6.954,11.997,9.369
	c1.554,0.857,3.132,1.589,4.733,2.215c-0.727,3.903-1.1,8.184-1.084,12.878c0.033,9.229,1.333,16.859,3.898,22.89
	c1.499,3.466,3.748,6.464,6.747,8.996c3.065,2.599,6.331,4.198,9.796,4.798c2.398,0.4,4.848,0.166,7.346-0.699
	c2.566-0.9,4.599-2.283,6.098-4.148c2.865-3.531,3.748-7.946,2.648-13.244c-0.633-2.998-2.398-7.563-5.297-13.693
	c-1.95-4.086-3.137-9.686-3.588-16.747c6.769,2.184,13.955,3.303,21.58,3.303c5.078,0,9.951-0.417,14.633-1.223l3.609,7.62
	l3.398,8.046c1.077,3.145,3.235,5.627,6.475,7.448c0.947,0.64,1.953,1.158,3.021,1.548c1.782,0.633,3.439,0.82,4.979,0.593
	c1.604-0.105,3.114-0.571,4.516-1.442c4.166-2.632,6.414-6.331,6.748-11.095c0.333-4.632-1.184-9.68-4.549-15.144
	c-1.327-2.167-2.749-4.213-4.229-6.187c3.223-1.873,6.32-3.999,9.278-6.408c3.888-3.177,7.209-6.591,10.007-10.225
	c1.502,0.691,2.952,1.262,4.337,1.679c3.697,1.1,6.663,1.166,8.896,0.2c1.632-0.7,3.032-1.982,4.198-3.848
	c1.133-1.799,1.832-3.782,2.099-5.947C249.461,133.541,247.729,128.376,243.496,124.645z"/>
</svg>
