<?xml version="1.0" encoding="utf-8"?>
<!-- Generator: Adobe Illustrator 16.0.0, SVG Export Plug-In . SVG Version: 6.00 Build 0)  -->
<!DOCTYPE svg PUBLIC "-//W3C//DTD SVG 1.1//EN" "http://www.w3.org/Graphics/SVG/1.1/DTD/svg11.dtd">
<svg version="1.1" id="图层_1" xmlns="http://www.w3.org/2000/svg" xmlns:xlink="http://www.w3.org/1999/xlink" x="0px" y="0px"
	 width="222px" height="207px" viewBox="0 0 222 207" enable-background="new 0 0 222 207" xml:space="preserve">
<path d="M220.539,88.55c-5.317-4.879-11.438-8.268-18.362-10.168c4.365-1.154,8.41-3.195,12.123-6.154
	c1.099-0.898,1.697-1.581,1.798-2.046c0.066-0.366-0.15-0.815-0.649-1.348c-5.392-5.391-13.128-8.469-23.211-9.234
	c-7.549-0.569-13.991,0.062-19.352,1.862c0.029-1.325-0.011-2.604-0.108-3.846c1.429-1.591,3.853-4.68,7.264-9.254
	c4.327-1.088,16.53-8.792,36.654-23.153c1.465-1.165,2.164-1.98,2.098-2.446l-2.347-0.1c-1.563,0.433-5.724,2.014-12.479,4.742
	c-6.888,2.829-11.363,4.792-13.427,5.89c-0.049,0.025-0.093,0.048-0.141,0.073c1.621-2.621,2.437-4.247,2.437-4.865l-0.449-0.699
	c-1.036-0.547-5.155,0.753-12.343,3.892c-0.485-3.093-1.661-7.85-3.53-14.274c-2.563-8.686-4.809-14.226-6.738-16.622
	c-0.499-0.632-0.998-0.882-1.498-0.749c-1.098,0.366-1.946,3.211-2.545,8.535c-0.533,4.393-0.982,11.73-1.348,22.013l-0.1,6.089
	l-0.072,2.496c-0.91,0.475-1.696,0.903-2.368,1.286c-3.114-0.985-7.358-1.73-12.734-2.235c-11.247-1.065-22.03-0.1-32.345,2.895
	c-2.157,0.628-4.253,1.286-6.306,1.965c-4.07-4.582-9.467-8.251-16.207-11c-5.857-2.396-10.915-3.511-15.174-3.345
	c-0.466,0.033-0.749,0.167-0.849,0.399l-0.2,1.448c-0.066,2.063,0.35,4.592,1.248,7.587c0.472,1.64,0.968,3.058,1.485,4.288
	c-0.716-0.445-1.456-0.893-2.234-1.343c-8.686-5.058-16.822-6.888-24.409-5.49c-0.699,0.1-1.198,0.299-1.497,0.599
	c-0.366,0.366-0.533,0.949-0.5,1.747c0.2,4.26,0.898,7.72,2.097,10.383c0.383,0.846,0.888,1.684,1.49,2.518
	c-9.396-4.433-19.376-5.794-29.942-4.065c-1.93,0.3-2.729,1.314-2.396,3.045c0.399,2.363,1.813,5.574,4.243,9.634
	c1.241,2.095,2.318,3.762,3.235,5.012c-9.622-2.76-18.888-3.225-27.794-1.368c-1.531,0.299-2.462,0.715-2.795,1.248
	c-0.266,0.433-0.233,1.165,0.1,2.196c0.898,2.762,2.329,5.724,4.292,8.885c1.608,2.578,3.099,4.523,4.476,5.854
	c-1.622,2.269-2.619,4.891-2.978,7.872c-0.532,4.659,0.682,8.818,3.644,12.479c2.928,3.66,6.722,5.757,11.381,6.289
	c4.592,0.5,8.735-0.698,12.429-3.594c1.31-1.015,2.474-2.242,3.493-3.676c1.012,0.958,2.243,2.099,3.695,3.426
	c-0.167,1.398-0.266,3.595-0.3,6.59c-0.005,0.483,0.01,0.94,0.01,1.417c-1.631,0.398-3.531,1.185-5.711,2.371
	c-6.17,0.347-11.774,2.491-16.811,6.444c-4.526,3.561-8.07,8.02-10.632,13.377c-0.91,1.911-1.573,3.734-2.013,5.479
	c-2.345,3.571-3.694,7.797-4.027,12.69c-0.399,5.757,0.549,10.033,2.845,12.828l0.438,0.418c0.536,3.001,1.636,6.272,3.305,9.814
	c1.398,2.962,2.746,5.324,4.043,7.088c0.832,1.099,1.53,1.581,2.096,1.447c0.699-0.166,1.248-1.197,1.647-3.094l1.148-8.087
	l1.298-10.333c0.545-3.327,1.171-5.905,1.873-7.758c2.255-1.186,4.158-2.68,5.665-4.521c1.902-2.327,3.642-5.694,5.22-10.092
	c2.893,0.181,5.113,0.034,6.66-0.439c1.758-0.515,3.706-1.767,5.837-3.73c1.229,4.166,2.824,7.644,4.795,10.419
	c2.663,3.794,11.431,5.075,26.306,3.843c5.573-0.446,10.859-1.124,15.887-2.011c-0.385,0.98-0.64,2.314-0.763,4.008
	c-0.2,2.896,0.2,5.075,1.198,6.539c0.205,0.297,0.453,0.706,0.726,1.177l-3.171,2.467c-2.03,1.896-3.211,3.811-3.544,5.74
	c-0.333,1.997-0.216,5.209,0.35,9.635c0.112,0.921,0.225,1.777,0.339,2.584c-1.228,3.242-3.934,7.735-8.126,13.488l-6.988,8.935
	c-0.832,1.065-0.932,1.913-0.3,2.546c0.965,0.965,3.844,0.766,8.635-0.6c3.739-1.039,6.396-2.043,7.998-3.012
	c0.183,0.768,0.476,1.245,0.888,1.415l3.544-0.499c3.793-0.998,7.171-2.712,10.133-5.142c4.28-3.488,7.378-8.217,9.336-14.14
	c0.049-0.047,0.099-0.088,0.148-0.136c3.561-3.528,6.106-8.985,7.637-16.372c1.542-7.496,1.39-14.542-0.413-21.151
	c1.161,0.462,2.45,0.98,3.857,1.55c-0.046,1.878,0.181,3.736,0.698,5.574c0.666,2.33,1.764,4.477,3.295,6.439
	c3.428,4.393,7.953,6.922,13.577,7.588c5.424,0.632,10.249-0.699,14.476-3.994c4.227-3.261,6.622-7.504,7.188-12.729
	c0.181-1.666,0.137-3.271-0.085-4.829c9.267,1.376,18.331,1.395,27.189,0.038c7.454-1.132,13.827-3.045,19.118-5.74
	c0.465-0.233,0.715-0.516,0.748-0.85c0.033-0.432-0.166-1.131-0.6-2.096c-3.048-7.127-9.289-12.61-18.689-16.468
	c6.352-0.277,11.281-0.759,14.746-1.452c4.926-0.998,9.951-2.895,15.075-5.69l1.448-1.099c0.066-0.365-0.316-0.98-1.148-1.846
	c-4.881-5.103-10.679-8.904-17.385-11.417c3.316-0.403,6.715-1.251,10.197-2.561c2.994-1.165,5.606-2.446,7.836-3.843
	c0.898-0.566,1.465-1.115,1.697-1.647C221.571,89.998,221.338,89.282,220.539,88.55z M126.117,133.513l1.48,0.78
	c-0.955,0.895-1.788,1.854-2.506,2.875l-2.167-1.532C124.006,134.937,125.069,134.229,126.117,133.513z M41.118,124.299
	c0.042,0.376,0.101,0.729,0.146,1.101l-0.41-1.109L41.118,124.299z M187.24,60.665c0.477,0.007,0.948,0.009,1.434,0.028
	C188.186,60.676,187.717,60.674,187.24,60.665z M20.366,121.365c1.964-1.506,3.92-2.694,5.867-3.566
	C24.313,118.738,22.359,119.917,20.366,121.365z"/>
</svg>
