<?xml version="1.0" encoding="utf-8"?>
<!-- Generator: Adobe Illustrator 16.0.0, SVG Export Plug-In . SVG Version: 6.00 Build 0)  -->
<!DOCTYPE svg PUBLIC "-//W3C//DTD SVG 1.1//EN" "http://www.w3.org/Graphics/SVG/1.1/DTD/svg11.dtd">
<svg version="1.1" id="图层_1" xmlns="http://www.w3.org/2000/svg" xmlns:xlink="http://www.w3.org/1999/xlink" x="0px" y="0px"
	 width="428px" height="338px" viewBox="0 0 428 338" enable-background="new 0 0 428 338" xml:space="preserve">
<path d="M426.75,155.221c-0.634-0.367-2.018,0.517-4.152,2.651c-2.2,2.134-4.835,5.202-7.902,9.203
	c-1.203,1.574-2.629,3.205-4.256,4.888l2.855-10.84c0.867-3.501,1.25-6.235,1.15-8.203c-0.066-1.667-0.45-2.667-1.15-3.001
	c-0.867-0.4-2.451,0.517-4.752,2.751c-2.2,2.134-5.368,5.769-9.503,10.904c-4.22,5.21-8.341,11.951-12.367,20.191
	c-10.721-8.685-17.896-14.323-21.495-16.89c-5.102-3.735-8.369-5.235-9.803-4.501c-0.734,0.367-1.218,0.95-1.451,1.75
	c-0.3,0.934-0.35,2.317-0.149,4.151c0.399,4.102,2.467,11.188,6.202,21.257c2.102,5.658,3.912,10.202,5.444,13.686
	c-9.288,4.481-18.272,7.595-26.952,9.323c-3.533,0.709-7.376,1.026-11.513,0.972c-1.106-1.962-2.317-4.032-3.643-6.224
	c-7.203-11.938-15.155-22.642-23.858-32.111c-12.271-13.338-25.059-22.808-38.363-28.41c-3.047-1.291-6.732-2.513-11.055-3.665
	c3.983-0.972,7.868-2.233,11.654-3.788c2.073-0.86,4.067-1.796,6.023-2.769c3.638,1.484,6.412,2.678,8.281,3.569
	c6.236,2.934,11.955,6.302,17.156,10.104c6.27,4.568,11.371,8.536,15.306,11.904c3.568,3.067,7.053,6.385,10.454,9.953
	c1.4,1.467,2.367,2.102,2.9,1.9c0.434-0.166,0.884-1.166,1.351-3c2.334-8.904,3.001-16.24,2.001-22.008
	c-1.601-9.036-6.985-17.587-16.152-25.657c-2.128-3.977-4.777-7.604-7.954-10.875c0.662-0.134,1.047-0.327,1.148-0.581
	c0.134-0.434-0.483-1.284-1.851-2.551c-6.336-5.969-13.055-10.387-20.157-13.254c-5.202-2.134-11.138-3.568-17.806-4.302
	c-1.683-0.187-3.354-0.291-5.018-0.33c4.44-4.428,6.386-7.722,5.817-9.874c-0.434-1.534-4.802-2.217-13.104-2.05
	c-7.336,0.167-13.521,0.75-18.557,1.75c-3.391,0.683-7.465,1.994-12.19,3.903c-0.496-1.201-1.002-2.35-1.516-3.454
	c1.252-0.733,2.425-1.498,3.503-2.3c6.402-4.735,11.688-9.32,15.855-13.755c4.868-5.168,6.985-8.92,6.352-11.254
	c-0.1-0.4-0.383-0.717-0.85-0.951c-1.534-0.867-5.419-1.1-11.654-0.7c-6.303,0.434-11.721,1.301-16.256,2.601
	c-3.226,0.961-7.71,3.693-13.418,8.146c-1.891-0.56-3.801-0.668-5.73-0.336l-1.159-2.758c-0.759-1.778-1.478-3.37-2.166-4.815
	l8.167-0.336c5.335-1.801,11.021-7.303,17.056-16.506c5.603-8.536,8.503-15.105,8.703-19.707l-0.251-0.75l-0.649-0.85
	c-1.267-1.134-5.502-1.667-12.705-1.601c-6.802,0.033-13.004,0.533-18.606,1.5c-4.571,0.81-9.356,3.531-14.354,8.157
	c-3.522-3.423-8.224-6.415-14.156-8.957c-8.503-3.602-17.139-5.285-25.909-5.052c-6.741,0.182-13.371,2.176-19.891,5.966
	c-0.141-0.194-0.283-0.394-0.417-0.564c-3.968-5.168-9.237-9.02-15.806-11.554C98.384,3.351,92.499,1.85,85.83,0.816
	c-6.669-1-10.754-1-12.254,0c-0.667,0.434-0.5,2.417,0.5,5.952c0.967,3.468,2.451,7.386,4.451,11.754
	c5.069,11.137,9.904,17.957,14.505,20.457c1.34,0.727,2.805,1.28,4.368,1.697c-0.552,1.063-1.076,2.147-1.567,3.255
	c-1.463,3.284-2.274,6.486-2.452,9.61c-0.735,6.825,1.443,12.953,6.54,18.383c2.317,5.884,3.69,8.965,4.115,9.219
	c0.377,0.201,1.25-0.987,2.617-3.562c0.848,0.578,1.737,1.146,2.665,1.705c1.616,4.794,4.045,9.35,7.284,13.667
	c-3.056-1.16-7.054-2.031-12.016-2.607c-5.335-0.667-8.287-0.534-8.854,0.4c-0.688,1.081,0.323,3.99,3.014,8.706
	c-3.741-1.658-7.677-2.865-11.816-3.604c-16.039-2.801-28.494-0.717-37.363,6.252c-0.682,0.532-1.131,0.993-1.348,1.384
	c-3.169,0.549-6.239,1.285-9.206,2.217c-14.119,4.47-23.234,12.653-27.368,24.532c-1.273,1.296-2.522,2.741-3.743,4.378
	c-3.834,5.168-6.269,10.437-7.303,15.806c-0.333,1.7-0.533,3.701-0.6,6.002c-0.067,2.401,0.05,4.118,0.35,5.152
	c0.367,1.234,0.833,1.884,1.4,1.951c0.767,0.066,2.234-0.717,4.402-2.351c7.103-5.402,17.456-10.037,31.061-13.905
	c12.638-3.601,22.725-5.185,30.261-4.751c6.369,0.333,11.254,0.383,14.655,0.15c3.847-0.305,6.839-0.957,8.996-1.946
	c0.458,0.063,0.902,0.108,1.333,0.137c2.544,2.884,5.369,5.323,8.478,7.311c4.968,3.168,9.787,4.518,14.455,4.051
	c1.277-0.139,2.554-0.537,3.832-1.161c-3.819,12.18-4.486,24.821-1.981,37.924c0.085,0.446,0.349,0.973,0.77,1.568
	c0.707,6.719,2.183,13.748,4.432,21.09c0.295,0.959,0.619,1.921,0.966,2.885c-0.248,0.375-0.503,0.764-0.766,1.166
	c-2.534,3.835-5.185,7.186-7.953,10.054c-3.334,3.468-6.219,5.585-8.653,6.353c-7.803,2.434-13.038,6.352-15.706,11.754
	c-2.334,4.668-2.601,10.054-0.8,16.156c0.534,1.8,1.617,2.95,3.251,3.451l1.153,0.098c0,0.034-0.004,0.067-0.003,0.102
	c0.142,4.718,1.886,8.924,5.202,12.624c0.13,0.944,0.277,1.903,0.45,2.882c0.733,4.168,1.067,7.786,1,10.854
	c-0.067,3.734-0.767,6.136-2.101,7.203c-3.911,3.166-6.29,5.9-7.145,8.205c-0.58,0.384-1.194,0.811-1.858,1.298
	c-3.068,2.268-4.852,4.102-5.352,5.502c-0.367,1.101-0.417,1.817-0.15,2.15c1.067,1.067,4.185,1.584,9.353,1.551
	c4.471-0.028,7.704-0.481,9.726-1.35c4.268,0.868,8.592,1.654,12.985,2.342c-0.032,0.068-0.075,0.142-0.103,0.208
	c-0.533,1.334-0.533,2.268,0,2.801c1.268,1.268,4.502,1.901,9.704,1.901c5.214,0,9.373-0.811,12.503-2.409
	c2.915,0.124,5.405,0.096,7.454-0.092c2.567-0.268,5.135-0.884,7.703-1.851c3.234-0.968,5.385-1.968,6.452-3.001
	c1.567-1.501,2.251-3.902,2.051-7.203c-0.469-8.422-0.233-15.948,0.675-22.62l2.876-1.938c4.159-3.196,7.858-7.156,11.128-11.83
	c13.685,8.618,28.017,13.878,42.994,15.788c0.136,0.096,0.256,0.202,0.397,0.294c1.567,1.033,5.469,2.5,11.704,4.401l1.402,0.313
	c0.778,3.264,1.478,6.993,2.099,11.191c1.096,7.395,1.498,12.992,1.216,16.81c-0.845,0.591-1.762,1.313-2.767,2.197
	c-3.167,2.734-5.185,5.269-6.051,7.603c-0.334,0.968-0.251,1.667,0.25,2.101c1.233,1.234,4.551,1.9,9.953,2.001
	c4.869,0.11,8.792-0.46,11.801-1.689c2.291,0.016,5.022-0.005,8.206-0.062c3.468-0.1,9.97-0.033,19.507,0.2
	c3.847,0.116,7.199,0.203,10.08,0.263c0.927,0.724,2.216,1.536,3.875,2.438c2.9,1.567,5.234,2.334,7.002,2.301
	c1.635-0.067,3.435-0.9,5.402-2.501c1.224-0.969,2.232-2.007,3.057-3.104c1.834-0.443,3.121-1.042,3.846-1.799
	c0.3-0.299,0.566-1,0.8-2.1c0.233-0.967,0.334-1.734,0.301-2.301c-0.4-6.67-1.234-13.222-2.501-19.657
	c-1.551-7.858-3.648-15.197-6.28-22.027c1.86-1.687,3.384-3.361,4.59-5.023c5.395-1.806,10.953-4.041,16.695-6.761
	c15.139-7.17,30.36-16.957,45.666-29.361c11.037-8.902,21.958-20.34,32.762-34.312c9.736-12.604,16.256-22.958,19.557-31.061
	c3.102-7.569,4.885-13.322,5.352-17.256C427.733,157.205,427.517,155.688,426.75,155.221z M131.331,125.29
	c-0.695,2.225-1.428,4.437-2.208,6.631c-0.272,0.092-0.535,0.2-0.778,0.341l-0.348,0.532c-0.534-2.653-1.618-5.514-3.254-8.584
	c-0.538-1.006-1.099-1.984-1.679-2.942C125.728,122.715,128.488,124.051,131.331,125.29z"/>
</svg>
