<?xml version="1.0" encoding="utf-8"?>
<!-- Generator: Adobe Illustrator 16.0.0, SVG Export Plug-In . SVG Version: 6.00 Build 0)  -->
<!DOCTYPE svg PUBLIC "-//W3C//DTD SVG 1.1//EN" "http://www.w3.org/Graphics/SVG/1.1/DTD/svg11.dtd">
<svg version="1.1" id="图层_1" xmlns="http://www.w3.org/2000/svg" xmlns:xlink="http://www.w3.org/1999/xlink" x="0px" y="0px"
	 width="144px" height="191px" viewBox="0 0 144 191" enable-background="new 0 0 144 191" xml:space="preserve">
<path d="M142.074,177.035c-8.063-5.804-13.912-9.625-17.559-11.469c0.75-0.679,1.359-1.498,1.792-2.495
	c0.4-0.935,0.601-1.936,0.601-3.003c0-0.734-0.167-1.602-0.5-2.604c1.234-1.4,1.852-4.438,1.852-9.109
	c0-2.936-0.217-6.189-0.65-9.76c-0.4-3.07-0.835-5.489-1.302-7.258c-0.101-0.434-0.15-1.084-0.15-1.952l0.2-4.454l0.351-9.109
	c0-5.974-0.317-11.012-0.951-15.116c-0.968-6.374-2.77-12.063-5.405-17.068c-2.236-4.237-6.04-8.358-11.412-12.363
	c-5.105-3.771-10.979-6.974-17.619-9.61c-0.401-0.16-0.804-0.3-1.206-0.451l0.105-0.65c0.434-2.97,1.234-7.158,2.402-12.563
	l3.354-15.466l3.054-13.564l1.651-7.308c0.267-1.568-0.251-2.669-1.552-3.303l-3.754,0.2c-1.602,0.534-3.003,1.351-4.204,2.452
	c-1.168,1.035-4.688,0.584-10.562-1.351c-5.672-1.869-9.56-3.704-11.662-5.506l-0.701-0.651l-2.853-2.502
	c-1.268-0.901-2.369-1.185-3.303-0.851c-2.002,0.701-2.82,3.671-2.453,8.91c0.067,0.934,0.917,6.54,2.553,16.817l3.704,24.476
	l0.584,7.142c-4.792,0.299-9.028,1.3-12.697,3.019c-8.762,4.168-16.375,11.263-22.846,21.272c-1.712-6.07-4.888-14.208-9.538-24.426
	c-4.738-10.411-7.908-16.667-9.51-18.77c-1.135-1.568-2.319-2.302-3.554-2.202c-0.701,0.033-1.151,0.417-1.352,1.151
	c-0.167,0.634-0.117,1.402,0.15,2.303C8,42.412,8.618,44.046,8.985,44.747L5.631,56.51c-0.1,0.4,0.183,1.167,0.851,2.302
	l3.104,5.206l-3.053-2.703l-0.951-0.701c-0.2,0-0.384,0.351-0.551,1.051L2.328,73.978c-0.2,0.767-0.067,1.435,0.4,2.002l2.002,1.752
	l9.26,9.16l-5.956-2.252l-3.904-1.452c-0.867-0.367-1.501-0.434-1.902-0.2c-0.3,0.167-0.534,0.617-0.701,1.352l-0.651,6.006
	c-0.3,3.537-0.45,6.374-0.45,8.509c0,1.102,0.5,1.77,1.501,2.002l4.905,1.302l-4.905,1.302c-0.5,0.133-0.817,0.367-0.951,0.7
	l-0.25,1.902l0.15,5.506c0.134,2.669,0.284,4.487,0.451,5.456c0.167,1,0.317,1.568,0.451,1.701c0.2,0.2,0.701,0.2,1.501,0
	l5.005-1.602l6.857-2.603l-5.255,4.955c-1.735,1.368-3.754,2.687-6.057,3.954c-1.068,0.601-1.668,1.001-1.802,1.201
	c-0.167,0.233-0.233,0.867-0.2,1.902c0.3,6.273,0.517,10.043,0.651,11.312c0,0.634,0.35,0.834,1.051,0.601
	c0.434-0.133,1.001-0.434,1.702-0.9l1.902-1.302l-2.853,3.653c-0.901,1.168-1.368,1.886-1.401,2.152l1.602,14.365l-3.454,6.207
	c-0.968,2.002-1.051,3.253-0.25,3.754c0.768,0.467,1.769,0.383,3.003-0.25c1.068-0.535,1.985-1.285,2.753-2.253
	c7.017-8.572,13.53-19.819,19.543-33.721c2.116,9.142,4.909,17.582,8.386,25.312c0.99,2.21,3.362,5.354,7.097,9.418
	c-2.586,0.956-5.377,2.064-8.398,3.346c-7.107,2.97-11.612,5.223-13.514,6.757c-0.935,0.734-1.519,1.335-1.752,1.802
	c-0.267,0.534-0.083,1.018,0.55,1.451c0.667,0.501,3.304,2.27,7.909,5.307l7.608,4.904c0.367,0.201,0.801,0.051,1.301-0.45
	l1.752-2.202l3.503,2.402c1.668,1.135,2.82,1.818,3.454,2.053l2.002,0.4c0.534-0.033,1.051-0.268,1.552-0.701l7.808-9.76
	c0.367-0.476,0.701-0.912,1.045-1.36c2.482,1.968,4.875,3.668,7.164,5.063c7.374,4.438,13.714,6.657,19.02,6.657
	c8.421-0.03,17.226-4.419,26.415-13.144c0.784,1.063,1.664,2.278,2.666,3.684l3.553,4.855l0.852,0.951l0.851,0.05l3.354-1.251
	l3.954-1.702l1.051,1.201c0.534,0.501,0.984,0.7,1.352,0.601c4.238-1.168,9.461-3.57,15.667-7.207
	C142.908,178.221,142.842,177.703,142.074,177.035z M83.012,34.036l-2.953,18.469c-0.667,3.637-1.468,5.272-2.402,4.905
	c-0.934-0.367-1.651-2.753-2.152-7.158l-0.801-6.356c-1.535-11.879-2.302-19.454-2.302-22.724c0-0.901,0.067-1.485,0.201-1.751
	c0.7-0.167,2.752,0.367,6.156,1.602c3.337,1.234,5.122,2.052,5.355,2.453C84.347,23.842,83.98,27.362,83.012,34.036z"/>
</svg>
