<?xml version="1.0" encoding="utf-8"?>
<!-- Generator: Adobe Illustrator 16.0.0, SVG Export Plug-In . SVG Version: 6.00 Build 0)  -->
<!DOCTYPE svg PUBLIC "-//W3C//DTD SVG 1.1//EN" "http://www.w3.org/Graphics/SVG/1.1/DTD/svg11.dtd">
<svg version="1.1" id="图层_1" xmlns="http://www.w3.org/2000/svg" xmlns:xlink="http://www.w3.org/1999/xlink" x="0px" y="0px"
	 width="206px" height="199px" viewBox="0 0 206 199" enable-background="new 0 0 206 199" xml:space="preserve">
<path d="M203.252,76.143c-1.06-0.937-1.989-1.541-2.793-1.82c0.632-0.552,1.279-1.322,1.943-2.328
	c1.166-1.798,1.516-3.064,1.049-3.797c-0.6-0.933-2.016-1.266-4.246-1c-1.951,0.204-3.29,0.675-4.02,1.413L181.668,63.8
	l-11.584-4.103c-3.022-3.95-6.392-7.609-10.091-10.992c2.908-9.196,3.633-18.487,2.138-27.873
	c-1.299-8.061-3.297-12.957-5.994-14.689c-1.5-0.933-4.848-0.716-10.041,0.65c-4.981,1.324-9.372,3.146-13.188,5.454
	c-1.278-1.55-2.729-3.026-4.401-4.406c-6.261-5.196-13.922-7.794-22.982-7.794c-9.027,0-17.288,2.815-24.782,8.444
	c-7.817,5.847-13.121,13.642-15.926,23.372c-6.481-0.619-14.475-0.235-23.996,1.16c-14.39,2.099-26.014,5.846-34.874,11.242
	C2.181,46.63,0.217,48.828,0.05,50.86c-0.167,1.799,1.165,4.764,3.997,8.894c4.863,7.061,10.142,13.457,15.838,19.185
	c5.706,5.755,11.282,10.231,16.729,13.437c-3.452-0.74-6.846-0.807-10.184-0.197c-6.262,1.166-9.643,3.964-10.143,8.394
	c-0.333,2.997,0.849,6.112,3.547,9.344c3.265,3.896,8.511,7.644,15.739,11.241c-1.168,1.771-2.109,3.434-2.837,4.996
	c-2.141,1.4-4.097,3.077-5.856,5.048c-7.261,8.161-9.609,18.721-7.045,31.678c1.732,8.761,5.812,15.788,12.241,21.084
	c5.896,4.896,12.874,7.711,20.935,8.444c7.928,0.732,15.322-0.684,22.184-4.247c7.282-3.772,12.603-9.343,15.97-16.7
	c0.2,0.291,0.403,0.58,0.617,0.861c4.098,5.361,10.026,7.794,17.788,7.295c2.639-0.161,4.99-0.691,7.069-1.575
	c0.841,2.082,3.039,5.414,6.62,10.019c0.477,0.604,0.995,1.142,1.552,1.622c0.817,1.682,2.525,3.472,5.145,5.372
	c3.397,2.498,6.045,3.448,7.944,2.848c1.299-0.399,2.465-1.414,3.496-3.047c1.044-1.762,1.505-3.604,1.398-5.525
	c2.884-1.977,6.313-5.213,10.293-9.713c6.104-6.884,10.183-13.48,12.268-19.794c7.063-6.018,12.639-13.702,16.711-23.075
	c3.797-8.762,5.646-18.104,5.547-28.027c-0.093-6.821-1.119-13.573-3.041-20.261c1.319-0.172,3.452-0.808,6.438-1.927
	c3.104-1.187,5.445-2.333,7.063-3.441c0.803-0.045,1.86-0.277,3.18-0.704c2.297-0.766,3.597-1.716,3.897-2.848
	C205.383,78.608,204.75,77.475,203.252,76.143z"/>
</svg>
