<?xml version="1.0" encoding="utf-8"?>
<!-- Generator: Adobe Illustrator 16.0.0, SVG Export Plug-In . SVG Version: 6.00 Build 0)  -->
<!DOCTYPE svg PUBLIC "-//W3C//DTD SVG 1.1//EN" "http://www.w3.org/Graphics/SVG/1.1/DTD/svg11.dtd">
<svg version="1.1" id="图层_1" xmlns="http://www.w3.org/2000/svg" xmlns:xlink="http://www.w3.org/1999/xlink" x="0px" y="0px"
	 width="363px" height="399px" viewBox="0 0 363 399" enable-background="new 0 0 363 399" xml:space="preserve">
<path d="M361.801,307.199c-2.199-4.996-7.828-12.357-16.889-22.084l-22.585-22.984c-14.257-14.29-25.716-29.696-34.376-46.219
	c-12.112-23.192-19.56-49.636-22.37-79.311c0.472-1.089,0.921-2.197,1.335-3.332c1.166-3.131,2.016-6.479,2.548-10.043
	c0.5-3.298,0.683-6.313,0.55-9.044c-0.216-3.823-0.905-7.477-2.066-10.962c0.106-0.261,0.208-0.516,0.317-0.78l12.392-27.531
	c7.063-15.922,10.876-29.696,11.442-41.321c0.565-11.292-1.982-19.886-7.646-25.782c-5.828-6.063-12.641-8.494-20.436-7.295
	c-7.062,1.066-12.158,4.281-15.289,9.644c-0.833,1.399-0.699,2.398,0.399,2.998c1.065,0.6,2.082,0.267,3.048-1
	c3.398-4.463,8.012-6.845,13.841-7.145c5.896-0.267,10.825,1.749,14.79,6.046c6.129,6.629,7.428,17.854,3.896,33.677
	c-2.098,9.294-5.296,18.487-9.594,27.581c-4.982,10.517-8.531,18.248-10.651,23.209c-0.468-0.801-0.964-1.593-1.489-2.373
	c-4.297-6.329-10.426-11.809-18.388-16.439c-3.064-1.765-5.38-3.431-6.945-4.997c-1.832-1.799-3.897-4.58-6.195-8.344
	l-11.792-22.384c-6.263-12.059-10.143-18.904-11.643-20.536c-1.365-1.532-2.748-2.032-4.146-1.499
	c-1.399,0.5-1.999,1.716-1.799,3.647c1.166,11.259,2.082,22.218,2.748,32.877c0.091,1.428,0.172,2.795,0.247,4.133
	c-5.281-1.519-10.378-2.304-15.286-2.334c-7.448-0.031-14.393,0.947-20.846,2.907c-5.364-4.483-10.313-9.18-14.831-14.099
	c-13.557-14.79-17.521-26.365-11.892-34.726c2.532-3.764,6.279-5.846,11.242-6.246c4.93-0.4,10.56,0.866,16.888,3.797
	c1.299,0.633,2.249,0.483,2.848-0.45s0.3-1.849-0.899-2.748c-5.296-3.998-11.509-5.83-18.637-5.496
	c-7.228,0.299-12.508,2.781-15.839,7.445c-5.696,7.994-5.28,17.654,1.249,28.98c4.692,8.105,12.385,16.794,23.045,26.063
	c-5.328,2.311-10.928,5.465-16.8,9.463c-10.16,6.962-19.12,11.125-26.881,12.492c-2.032,0.366-3.748-0.2-5.146-1.699
	c-16.222-17.021-32.777-28.53-49.666-34.526c-14.157-4.997-29.014-6.263-44.569-3.797c-3.631,0.6-6.046,1.432-7.245,2.498
	c-1.266,1.066-1.449,2.532-0.55,4.397c2.166,4.597,6.929,9.993,14.291,16.189c6.257,5.242,11.732,8.783,16.429,10.633
	c-6.288,1.324-12.415,3.124-18.378,5.406c-6.995,2.698-12.775,5.629-17.338,8.794c-3.531,2.432-5.563,4.38-6.096,5.846
	c-0.5,1.366,0.183,2.781,2.049,4.247c4.197,3.364,11.642,6.229,22.334,8.594c9.712,2.105,18.262,2.809,25.679,2.147
	c-12.726,10.39-21.492,21.681-26.279,33.878c-1.266,3.165-1.616,5.446-1.049,6.846c0.466,1.199,1.682,1.832,3.647,1.898
	c5.496,0.167,12.392-0.916,20.686-3.248c6.658-1.898,11.925-3.993,15.842-6.277c-4.169,10.541-6.092,21.061-5.749,31.56
	c0.133,3.864,0.766,6.096,1.899,6.696c1.032,0.533,3.181,0.017,6.445-1.549c10.693-5.096,20.686-14.124,29.979-27.081
	c12.674-17.641,20.18-38.758,22.551-63.33c4.837-0.176,9.844-1.013,15.023-2.525c5.363-1.599,11.359-4.047,17.987-7.345
	c4.664-2.332,10.21-3.914,16.639-4.747c5.015-0.65,9.547-0.713,13.609-0.208c7.299,5.518,13.614,10.476,18.952,14.881
	c-0.656,1.321-1.21,2.795-1.632,4.464c-0.767,3.098-1.915,11.275-3.448,24.533c-2.468,22.154-5.356,40.306-8.666,54.47
	c-1.375,0.925-2.766,1.823-4.174,2.691c-7.196,4.463-15.657,8.377-25.383,11.742c-8.727,3.031-21.435,6.629-38.124,10.792
	c-22.018,5.463-38.99,14.94-50.915,28.431c-12.225,13.824-18.67,31.395-19.337,52.713c-0.533,17.256,2.815,33.178,10.043,47.768
	c6.662,13.424,16.322,25.166,28.98,35.227c11.858,9.426,25.565,16.787,41.122,22.084c15.09,5.13,30.612,7.895,46.568,8.295
	c35.476,0.898,64.289-5.846,86.44-20.236c23.983-15.623,36.492-38.258,37.524-67.903c0.265-7.489-1.315-16.536-4.728-27.132
	c10.162,16.054,17.352,27.798,21.565,35.227c0.367,0.6,0.75,0.85,1.149,0.749s0.733-0.45,0.999-1.05
	c0.967-1.965,1.699-4.163,2.199-6.595c0.377-1.979,0.631-4.39,0.771-7.199l10.021,8.498l11.542,10.144
	c0.733,0.666,1.266,0.949,1.6,0.85c0.399-0.101,0.666-0.7,0.799-1.799c0.134-1.199-0.05-4.215-0.55-9.045
	c-0.479-4.49-0.984-8.045-1.518-10.679c5.695,2.357,11.414,5.214,17.157,8.581c0.8,0.466,1.332,0.6,1.599,0.399
	S362.2,308.1,361.801,307.199z M256.473,188.37c-3.779-11.877-6.144-22.845-7.094-32.903c0.164-0.023,0.345-0.03,0.498-0.063
	c1.153-0.244,2.356-0.835,3.604-1.736C253.88,165.57,254.881,177.136,256.473,188.37z M118.868,274.572
	c-0.267-7.096,1.682-13.074,5.846-17.938c4.297-5.063,11.325-9.377,21.085-12.941c5.826-2.117,11.168-4.155,16.039-6.117
	c-7.582,11.394-16.853,21.946-27.831,31.65c-5.273,4.667-9.944,8.861-14.036,12.602C119.34,279.514,118.97,277.096,118.868,274.572z
	 M165.885,301.154c9.227-14.124,15.656-24.234,19.287-30.33c6.063-10.059,10.143-17.986,12.242-23.783
	c3.277-8.975,5.996-20.045,8.154-33.2c2.057-1.61,4.149-3.327,6.285-5.173l9.145-8.545c0.965,5.597,1.798,11.093,2.498,16.489
	c2.965,23.351,2.515,41.438-1.35,54.263c-4.53,15.156-13.174,26.332-25.932,33.527c-10.863,6.148-22.962,8.122-36.288,5.955
	C161.84,307.371,163.822,304.309,165.885,301.154z"/>
</svg>
