<?xml version="1.0" encoding="utf-8"?>
<!-- Generator: Adobe Illustrator 16.0.0, SVG Export Plug-In . SVG Version: 6.00 Build 0)  -->
<!DOCTYPE svg PUBLIC "-//W3C//DTD SVG 1.1//EN" "http://www.w3.org/Graphics/SVG/1.1/DTD/svg11.dtd">
<svg version="1.1" id="图层_1" xmlns="http://www.w3.org/2000/svg" xmlns:xlink="http://www.w3.org/1999/xlink" x="0px" y="0px"
	 width="99px" height="165px" viewBox="0 0 99 165" enable-background="new 0 0 99 165" xml:space="preserve">
<path d="M83.794,122.13c-0.999-1.351-2.137-2.592-3.396-3.738c2.171-1.562,4.187-3.352,6.037-5.384
	c7.877-8.74,11.498-20.372,10.867-34.895c-0.398-8.907-3.156-18.129-8.275-27.667c-4.719-8.84-11-17.115-18.842-24.825
	c-7.578-7.478-15.637-13.476-24.177-17.996c-8.807-4.686-16.916-7.128-24.326-7.328c-3.523-0.1-5.583,0.282-6.181,1.146
	c-0.632,0.931,0.133,2.592,2.293,4.985c5.616,6.148,8.939,12.978,9.97,20.488c1.097,7.976-0.598,15.586-5.084,22.831
	c-4.454,7.245-7.428,12.794-8.923,16.649c-2.326,6.015-3.456,12.595-3.39,19.74c0.07,6.444,1.455,12.246,4.127,17.417
	c-1.88,0.9-3.567,1.933-5.024,3.12c-4.071,3.366-6.362,7.592-6.908,12.658c-1.342,2.012-2.175,4.104-2.464,6.285
	c-0.565,4.453,0.831,8.89,4.187,13.31c0.336,0.44,0.679,0.851,1.024,1.253c-0.292,4.219,1.145,7.515,4.359,9.863
	c2.924,2.16,7.644,3.689,14.157,4.586c1.562,0.214,3.084,0.204,4.569-0.025c1.443,1.947,3.4,3.72,5.899,5.31
	c3.489,2.227,7.245,3.589,11.266,4.088c3.456,0.432,6.862,0.083,10.22-1.047c2.76-0.968,5.132-2.375,7.16-4.171
	c6.197,0.609,10.295,0.489,12.28-0.365c2.131-0.953,3.503-3.251,4.121-6.888c0.879-0.453,1.75-0.972,2.608-1.587
	c3.955-2.824,6.298-6.331,7.029-10.518c0.465-2.626,0.216-5.518-0.748-8.674C87.3,127.696,85.82,124.821,83.794,122.13z"/>
</svg>
