<?xml version="1.0" encoding="utf-8"?>
<!-- Generator: Adobe Illustrator 16.0.0, SVG Export Plug-In . SVG Version: 6.00 Build 0)  -->
<!DOCTYPE svg PUBLIC "-//W3C//DTD SVG 1.1//EN" "http://www.w3.org/Graphics/SVG/1.1/DTD/svg11.dtd">
<svg version="1.1" id="图层_1" xmlns="http://www.w3.org/2000/svg" xmlns:xlink="http://www.w3.org/1999/xlink" x="0px" y="0px"
	 width="119px" height="180px" viewBox="0 0 119 180" enable-background="new 0 0 119 180" xml:space="preserve">
<path d="M114.729,114.454c-2.531-2.765-5.711-4.296-9.541-4.597c0.6-1.531,0.898-3.447,0.898-5.745c0-4.229-1.465-7.86-4.396-10.891
	c8.293-3.031,12.439-8.81,12.439-17.335c0-5.229-1.865-9.725-5.595-13.489c-1.374-1.399-2.85-2.536-4.423-3.419
	c9.503-4.858,14.265-10.878,14.265-18.063c0-4.962-4.446-9.425-13.339-13.389c-9.691-4.363-21.781-6.544-36.27-6.544
	c-9.093,0-17.735,1.449-25.929,4.346c2.131-2.631,5.313-4.813,9.542-6.544c4.811-1.978,9.965-3.178,15.456-3.617
	c2.874-0.104,6.029-0.083,9.474,0.07c0.958,0.039,1.881,0.087,2.787,0.139c5.794,0.605,12.022,1.903,18.695,3.907l4.503,1.037
	c0.183,0.048,0.357,0.085,0.531,0.122l1.26,0.29c2.032,0.233,3.364-0.117,3.997-1.049c0.433-0.633,0.35-1.532-0.25-2.698
	c-0.666-1.266-1.865-2.665-3.598-4.197c-4.43-3.863-10.791-6.961-19.084-9.292C77.993,1.165,69.45,0,60.523,0
	C45.77,0,33.047,3.58,22.356,10.74C11.698,17.834,6.369,26.244,6.369,35.969c0,5.878,3.066,11.239,9.176,16.087
	c-0.154,0.819-0.233,1.667-0.233,2.547c0,0.899,0.15,2.015,0.449,3.347c-2.997,1.698-5.396,4.013-7.194,6.944
	c-1.865,2.997-2.798,6.161-2.798,9.492c0,3.098,0.816,6.045,2.448,8.843c1.565,2.698,3.697,4.946,6.395,6.745
	c-2.931,1.998-4.563,4.912-4.896,8.742c-0.266,3.031,0.183,5.479,1.349,7.344c-3.197,0.833-5.795,2.832-7.793,5.996
	c-1.999,3.163-2.998,6.844-2.998,11.04c0,4.597,1.599,8.31,4.796,11.141c1.883,1.668,4.196,2.872,6.91,3.642
	c1.078,2.365,2.608,4.521,4.63,6.45c4.396,4.196,9.941,6.295,16.636,6.295c3.472,0,6.569-0.729,9.313-2.15
	c0.647,2.267,1.403,4.775,2.277,7.546c2.797,8.826,4.913,14.971,6.345,18.435c1.199,2.931,2.248,4.446,3.147,4.546
	c0.866,0.1,1.915-1.1,3.147-3.597c2.231-4.463,5.396-12.356,9.492-23.681c0.335-0.927,0.652-1.811,0.96-2.673
	c1.099,0.833,2.317,1.581,3.687,2.224c5.063,2.432,10.691,2.848,16.886,1.249c4.906-1.234,8.644-4.264,11.217-9.074
	c4.895-0.352,9.083-1.888,12.563-4.614c4.297-3.397,6.428-7.91,6.395-13.539C118.643,120.932,117.326,117.318,114.729,114.454z"/>
</svg>
