<?xml version="1.0" encoding="utf-8"?>
<!-- Generator: Adobe Illustrator 16.0.0, SVG Export Plug-In . SVG Version: 6.00 Build 0)  -->
<!DOCTYPE svg PUBLIC "-//W3C//DTD SVG 1.1//EN" "http://www.w3.org/Graphics/SVG/1.1/DTD/svg11.dtd">
<svg version="1.1" id="图层_1" xmlns="http://www.w3.org/2000/svg" xmlns:xlink="http://www.w3.org/1999/xlink" x="0px" y="0px"
	 width="76px" height="124px" viewBox="0 0 76 124" enable-background="new 0 0 76 124" xml:space="preserve">
<path d="M73.713,104.823l-5.566,0.597c-2.121-0.133-3.977-1.027-5.566-2.684c-1.26-2.784-2.768-4.938-4.523-6.463
	c-0.444-0.398-0.916-0.753-1.402-1.084c4.97-2.48,9.174-6.115,12.586-10.944c4.374-6.196,6.578-13.155,6.611-20.876
	c0.099-10.041-3.662-18.706-11.283-25.996c-7.523-7.224-16.42-10.836-26.692-10.836c-0.487,0-0.968,0.016-1.448,0.032
	c-0.097-0.229-0.194-0.467-0.292-0.728c-0.696-1.79-1.127-3.645-1.292-5.567c-0.332-4.042,0.05-7.489,1.143-10.338
	c0.63-1.558,1.74-3.347,3.331-5.369l1.938-2.286c0.629-0.862,0.845-1.441,0.646-1.74L37.776,0.64
	c-1.955,0.53-3.678,1.16-5.169,1.889c-3.049,1.524-5.617,3.446-7.705,5.766c-2.22,2.485-3.794,5.286-4.722,8.4
	c-1.094,3.678-1.209,7.82-0.348,12.426c0.112,0.594,0.245,1.152,0.375,1.713c-3.165,1.695-6.14,3.889-8.924,6.587
	C3.761,44.746,0,53.444,0,63.518c0,9.842,3.38,18.309,10.14,25.4c4.494,4.73,9.667,7.917,15.513,9.577
	c-0.407,0.313-0.808,0.646-1.198,1.01c-2.85,2.685-4.274,5.832-4.274,9.444c0,3.811,1.176,6.941,3.529,9.395
	c2.519,2.65,5.965,3.977,10.339,3.977c1.338,0,2.61-0.184,3.821-0.534c2.206,1.464,4.958,2.224,8.257,2.273
	c3.016,0.066,5.749-0.679,8.201-2.237c0.501-0.319,0.958-0.667,1.393-1.028c0.147-0.026,0.301-0.035,0.447-0.064
	c3.445-0.663,5.997-2.154,7.654-4.474c3.446-0.266,6.246-1.326,8.4-3.182c1.822-1.623,2.932-3.578,3.33-5.865
	c0.199-1.192,0.199-1.922,0-2.187L73.713,104.823z"/>
</svg>
