<?xml version="1.0" encoding="utf-8"?>
<!-- Generator: Adobe Illustrator 16.0.0, SVG Export Plug-In . SVG Version: 6.00 Build 0)  -->
<!DOCTYPE svg PUBLIC "-//W3C//DTD SVG 1.1//EN" "http://www.w3.org/Graphics/SVG/1.1/DTD/svg11.dtd">
<svg version="1.1" id="图层_1" xmlns="http://www.w3.org/2000/svg" xmlns:xlink="http://www.w3.org/1999/xlink" x="0px" y="0px"
	 width="256px" height="268px" viewBox="0 0 256 268" enable-background="new 0 0 256 268" xml:space="preserve">
<path d="M244.662,89.783l-6.994-3.747l9.393-9.043c5.396-5.263,7.811-8.061,7.244-8.394c-0.532-0.333-3.063-1.399-7.594-3.198
	l-7.943-3.198l7.044-10.342c3.997-6.063,5.597-9.11,4.796-9.144l-20.684-1.149c0.166-0.633,1.315-3.947,3.447-9.943l3.547-10.242
	c0.233-0.766-2.931-0.233-9.492,1.599l-11.342,3.348c-0.166-0.933-0.233-3.297-0.199-7.095l0.199-7.994l-0.05-2.948
	c-0.167-0.233-0.983,0.05-2.448,0.85c-4.207,2.309-8.472,5.371-12.792,9.167c-0.413-8.017-0.896-11.822-1.448-11.365l-18.236,15.538
	l-7.244-19.935c-0.6-1.499-1.115-2.332-1.549-2.498c-0.433-0.2-0.982,0.25-1.648,1.349l-5.945,9.942l-5.896,9.693L144.887,4.446
	c-0.308-0.35-0.571,0.022-0.791,1.108l-0.158-0.158c-1.599,5.196-2.432,13.889-2.498,26.081c-0.033,6.162,0.084,11.991,0.35,17.487
	c-6.295,3.564-12.523,9.393-18.686,17.487c-6.496,8.561-10.159,16.205-10.992,22.933c-5.729,1.199-8.81,3.098-9.243,5.696
	c-0.2,1.032,0.117,1.932,0.95,2.698c0.866,0.766,1.999,1.183,3.397,1.249c-0.466,0.3-0.85,0.766-1.149,1.399
	c-0.267,0.533-0.383,1-0.35,1.399c0.133,1.466,1.132,2.532,2.998,3.198l4.957,0.844c1.513,5.979,6.615,11.926,15.329,17.842
	c2.203,1.5,4.546,2.926,7.002,4.292c-0.761,1.806-1.348,2.895-1.756,3.252c-0.667-0.133-3.064-1.399-7.195-3.797l-8.094-4.846
	c-1.299-0.799-2.148-1.149-2.548-1.049c-0.399,0.066-0.483,0.55-0.25,1.449l6.295,18.287l-17.737-1.549l-4.197,0.249
	c-0.6,0.366-0.167,0.933,1.299,1.699l24.881,12.479c-4.356,1.565-9.213,3.217-14.589,4.957c-9.609,3.13-18.027,8.198-25.283,15.152
	c-16.396-0.563-30.887-5.325-43.466-14.303c-7.328-5.229-13.007-11.408-17.037-18.536c-4.197-7.395-6.295-15.255-6.295-23.583
	c0-12.291,3.947-21.684,11.841-28.179c6.562-5.43,14.656-8.144,24.282-8.144c6.562,0,12.341,2.881,17.337,8.644
	c4.53,5.229,6.795,10.592,6.795,16.088c0,5.829-2.365,11.491-7.095,16.987c-5.096,5.862-10.858,8.81-17.287,8.843
	c-3.531,0.034-6.678-0.616-9.443-1.948c-3.297-1.565-5.813-3.997-7.544-7.295c-1.432-2.831-1.965-5.729-1.599-8.693
	c0.366-2.731,1.482-5.146,3.348-7.245c1.266-1.399,2.764-2.448,4.497-3.147c1.699-0.666,3.464-0.916,5.296-0.75
	c-1.999,1.865-3.331,3.581-3.997,5.146c-0.766,1.832-0.933,4.047-0.5,6.645c0.399,2.432,1.799,4.63,4.197,6.595
	c2.565,2.132,5.446,3.198,8.644,3.198c4.33,0,7.877-1.399,10.642-4.197c2.698-2.731,4.047-6.096,4.047-10.093
	c0-5.795-2.065-10.559-6.195-14.289c-4.33-3.931-10.143-5.896-17.437-5.896c-8.394,0-14.922,2.548-19.585,7.645
	c-4.396,4.796-6.595,11.275-6.595,19.436c0,7.96,3.264,14.689,9.792,20.185c6.861,5.763,15.688,8.644,26.48,8.644
	c10.592,0,19.336-4.131,26.23-12.391c6.495-7.827,9.477-16.771,8.943-26.83c-0.633-11.892-4.763-21.584-12.391-29.079
	c-7.894-7.728-18.07-11.591-30.527-11.591c-17.087,0.033-30.177,5.646-39.271,16.837C4.208,93.78,0.012,108.652,0.345,127.604
	c0.367,23.282,10.492,43.884,30.377,61.804c10.326,9.308,22.426,17.292,36.292,23.96c-0.163,0.849-0.305,1.705-0.419,2.57
	c-0.899,6.795-0.133,12.94,2.298,18.437l0.4,1.398c-0.222,0.243-1.081,0.734-2.554,1.469c-1.214,0.578-2.427,1.163-3.641,1.729
	c-2.865,1.332-4.73,2.265-5.596,2.798c-0.524,0.325-0.91,0.641-1.179,0.946c-0.449,0.398-0.736,0.769-0.82,1.103
	c-0.034,0.232,0.1,0.532,0.399,0.898c0.4,0.4,1.299,0.633,2.698,0.699l5.996-0.149l4.446-0.05l-1.648,3.598
	c-1.033,2.164-1.583,3.48-1.649,3.947c-0.1,0.565,0,0.965,0.3,1.199l0.849,0.398c0.466,0.234,2.881-0.633,7.245-2.598l6.895-3.197
	l1.099,2.848c0.633,1.799,1.099,2.848,1.399,3.147c0.667,0.733,1.333,0.7,1.999-0.1c1.097-1.253,2.056-2.462,2.887-3.628
	l0.061-0.069c0.054-0.079,0.101-0.158,0.154-0.237c1.353-1.941,2.338-3.763,2.943-5.459c0.367-0.965,0.483-1.648,0.35-2.048
	l-0.45-0.999l-0.118-0.471l-0.232-1.278l0.05-0.25c0.6-2.997,1.865-5.729,3.797-8.194c1.199-1.564,3.015-3.363,5.446-5.396
	c6.573,3.67,13.955,5.797,22.119,6.433c0.412,3,0.435,4.909,0.064,5.709c-1.218,2.709-2.157,4.973-2.819,6.795
	c-1.36,3.667-1.788,5.968-1.278,6.895c0.3,0.666,0.616,1.032,0.949,1.1c0.5,0.066,1.349-0.283,2.548-1.05l3.598-2.448
	c1.399-0.766,2.248-1.216,2.548-1.35l1.3,4.447c1.031,2.798,2.114,4.063,3.247,3.797l1.499-1.299l2.049-2.498l1.549-1.948
	l1.398-1.499c0.926,0.505,2.293,0.998,4.092,1.479l-0.095,0.12c-0.733,0.966-1.032,1.799-0.899,2.498
	c0.133,0.7,0.816,1.449,2.049,2.249c1.284,0.881,2.665,2.002,4.137,3.348l3.407,3.347l2.897,2.998l2.398,1.898
	c0.766,0.2,1.316-0.066,1.648-0.8l0.75-2.598c0.285-1.228,0.497-1.987,0.636-2.285l0.063-0.113l1.549,0.6l4.146,1.898
	c1.399,0.566,2.365,0.75,2.898,0.55c0.3-0.134,0.467-0.45,0.5-0.949l-0.1-1.448l-0.301-2.199l-0.1-1.049h1.599l5.296,0.05
	c1.533-0.101,2.382-0.517,2.549-1.249c0.1-0.6-0.417-1.249-1.549-1.949c-0.633-0.365-2.148-1.099-4.547-2.197l-3.692-1.748
	c-1.499-0.767-2.391-1.336-2.653-1.699c3.931-2.832,6.945-5.846,9.043-9.044c2.365-3.563,3.73-7.577,4.098-12.041
	c0.3-3.764-0.434-7.728-2.199-11.892c-0.913-2.138-2.036-4.166-3.36-6.09c2.547-2.807,4.924-5.739,7.124-8.807
	c0.237,0.455,0.48,0.921,0.734,1.407c2.997,5.796,6.178,11.491,9.542,17.087c3.53,5.93,6.013,9.594,7.444,10.992
	c1.266,1.266,2.715,3.348,4.348,6.245l1.698,3.298c0.633,1.032,1.249,1.531,1.849,1.498c0.899-0.066,1.599-0.883,2.098-2.447
	l0.321-1.535c0.193-0.701,0.386-1.605,0.579-2.762l0.25-1.35l0.898,0.75c2.065,1.832,3.73,3.064,4.996,3.697
	c0.867,0.466,1.416,0.582,1.649,0.35c0.267-0.267,0.383-0.916,0.35-1.949c-0.067-1.498-0.466-3.497-1.199-5.995l-0.749-4.097h0.649
	l5.246,0.1c1.599-0.033,2.564-0.266,2.897-0.699c0.267-0.3,0.184-0.75-0.25-1.35c-0.5-0.688-1.404-1.545-2.714-2.572
	c-0.114-0.093-0.208-0.179-0.333-0.275l-0.295-0.204c-0.641-0.481-1.353-0.994-2.154-1.544l-0.199-0.15l-0.159-0.04l-3.488-2.407
	l-3.247-2.199c-0.8-1.032-3.164-8.727-7.096-23.082l-7.238-26.613c2.293-9.058,3.141-17.573,2.543-25.549l-0.051-2.947
	c6.731-5.244,12.283-10.724,16.668-16.437c4.239-1.738,7.946-4.48,11.111-8.245c2.332-2.731,4.18-5.746,5.546-9.043l9.942-5.046
	c6.295-3.331,9.16-5.229,8.594-5.696C250.824,93.114,248.593,91.848,244.662,89.783z M148.435,243.219
	c-0.289,0.801-0.862,1.844-1.67,3.089c-0.636-0.671-1.222-1.319-1.725-1.932c-0.045-0.055-0.096-0.11-0.14-0.165
	c-0.225-0.276-0.416-0.538-0.613-0.803c-0.151-0.205-0.305-0.41-0.443-0.611c-0.146-0.212-0.278-0.418-0.405-0.621
	c-0.149-0.237-0.291-0.473-0.421-0.705c-1.374-2.445-2.022-5.01-1.928-7.695c0.034-0.73,0.08-1.472,0.138-2.224
	c0.104-0.024,0.208-0.049,0.313-0.074c2.969,1.811,5.061,3.643,6.245,5.495C149.018,238.938,149.234,241.02,148.435,243.219z
	 M157.678,137.297c-1.087,1.622-2.736,3.234-4.923,4.839l-3.045-7.704C152.268,135.439,154.922,136.395,157.678,137.297z"/>
</svg>
