<?xml version="1.0" encoding="utf-8"?>
<!-- Generator: Adobe Illustrator 16.0.0, SVG Export Plug-In . SVG Version: 6.00 Build 0)  -->
<!DOCTYPE svg PUBLIC "-//W3C//DTD SVG 1.1//EN" "http://www.w3.org/Graphics/SVG/1.1/DTD/svg11.dtd">
<svg version="1.1" id="图层_1" xmlns="http://www.w3.org/2000/svg" xmlns:xlink="http://www.w3.org/1999/xlink" x="0px" y="0px"
	 width="130px" height="190px" viewBox="0 0 130 190" enable-background="new 0 0 130 190" xml:space="preserve">
<path d="M123.707,79.61c-3.358-8.38-9.344-15.663-17.957-21.848c-3.725-2.694-5.587-7.432-5.587-14.216
	c0-5.154,0.1-10.292,0.3-15.414l0.498-10.974c0.3-6.717,0.333-10.99,0.1-12.819c-0.266-2.594-1.18-4.024-2.743-4.29
	c-1.63-0.299-3.292,0.516-4.987,2.444c-1.497,1.729-3.559,5.005-6.186,9.827l-7.134,13.468c-3.491,6.484-6.967,12.371-10.425,17.658
	c-1.064,1.629-3.093,2.91-6.086,3.841l-7.931,1.945c-9.577,2.594-17.458,6.934-23.644,13.019
	c-5.554,5.454-8.996,11.506-10.326,18.157c-2.095,10.409-0.781,19.903,3.941,28.482c2.937,5.318,7.014,9.933,12.212,13.854
	l-4.93-1.232l-5.088-1.746c-2.128-0.898-4.19,0.282-6.186,3.541c-0.998,1.663-1.813,3.426-2.444,5.287l-5.038-0.947l-5.088-1.247
	c-2.461-0.599-4.406,0.516-5.836,3.343c-2.993,5.985-3.758,13.086-2.294,21.299c0.465,2.66,1.33,5.32,2.594,7.981
	c1.563,3.325,3.292,5.487,5.188,6.484c1.098,0.565,2.793,0.466,5.088-0.299c1.796-0.565,6.368-2.444,13.718-5.637l0.449,0.948
	c1.729,3.458,3.774,6.866,6.136,10.225c3.857,5.555,7.781,9.744,11.772,12.57c4.855,3.426,9.627,5.338,14.316,5.736
	c4.423,0.366,8.38-0.664,11.873-3.092l3.392-2.545l3.591-2.793c5.854-4.423,10.293-7.383,13.318-8.879
	c3.061,2.494,6.036,4.39,8.93,5.687l2.544,0.648c0.798-0.033,1.729-0.399,2.793-1.097c2.128-1.431,4.007-3.975,5.637-7.633
	c1.663-3.725,2.761-7.965,3.292-12.72c0.1-1.197,0.018-2.394-0.249-3.591c-0.3-1.264-0.731-2.079-1.297-2.445l-5.487-2.942
	c-3.492-1.829-6.152-3.376-7.98-4.64l0.249-3.242c0.033-2.161-0.3-3.658-0.997-4.488c-0.631-0.739-1.688-1.305-3.158-1.703
	c6.771-2.182,12.573-5.476,17.374-9.92c5.853-5.454,9.693-12.071,11.522-19.854C127.382,95.49,126.801,87.425,123.707,79.61z"/>
</svg>
