<?xml version="1.0" encoding="utf-8"?>
<!-- Generator: Adobe Illustrator 16.0.0, SVG Export Plug-In . SVG Version: 6.00 Build 0)  -->
<!DOCTYPE svg PUBLIC "-//W3C//DTD SVG 1.1//EN" "http://www.w3.org/Graphics/SVG/1.1/DTD/svg11.dtd">
<svg version="1.1" id="图层_1" xmlns="http://www.w3.org/2000/svg" xmlns:xlink="http://www.w3.org/1999/xlink" x="0px" y="0px"
	 width="262px" height="289px" viewBox="0 0 262 289" enable-background="new 0 0 262 289" xml:space="preserve">
<path d="M261.9,164.564v-0.149c-0.167-1.464-3.794-3.228-10.882-5.291l-13.477-3.394c-0.2-1.099-0.383-2.979-0.55-5.641
	c-0.054-1.026-0.116-1.93-0.187-2.72c3.069-5.755,6.426-12.731,10.07-20.94c6.355-14.209,9.233-24.308,8.635-30.298
	c-0.166-2.063-1.165-2.978-2.995-2.745c-0.865,0.133-2.545,0.749-5.041,1.847l-4.742,2.096l-2.695,1.148
	c-0.998,0.166-1.713-0.333-2.146-1.498c-3.127-8.619-5.324-13.161-6.588-13.626c-0.732-0.267-3.195,1.414-7.388,5.041
	c-2.444,2.134-4.224,3.609-5.379,4.465c-4.652-9.524-9.829-17.508-15.535-23.932c-2.459-2.759-5.764-5.858-9.896-9.292
	c-1.879-7.472-4.269-12.301-7.174-14.467c-1.032-0.766-2.763-0.749-5.191,0.05c-1.198,0.399-3.394,1.348-6.589,2.845
	c-2.396-1.198-5.49-2.496-9.283-3.894c-7.555-2.762-14.775-4.592-21.664-5.49c-1.729-6.456-4.342-13.66-7.836-21.613
	c-4.06-9.185-7.371-14.575-9.933-16.172c-0.965-0.566-1.831-0.566-2.596,0c-5.091,3.693-10.033,8.951-14.825,15.773
	c-4.892,6.921-9.267,14.941-13.127,24.059l-1.048,0.35c-5.195,1.929-8.902,3.348-11.136,4.263
	c-4.766-1.32-10.931-2.443-18.514-3.365c-9.75-1.165-15.29-0.916-16.621,0.749c-1.231,1.531-1.431,7.121-0.599,16.771
	c0.564,6.935,1.249,12.492,2.051,16.704c-2.37,4.948-3.958,10.176-4.746,15.69c-0.466,3.028-0.699,6.223-0.699,9.583
	c0,9.562,2.853,18.519,8.543,26.873c-1.252,1.791-2.126,3.319-2.604,4.573c-0.333,0.932-0.433,1.681-0.299,2.246
	c0.1,0.433,0.383,0.882,0.849,1.348c3.494,3.494,5.906,5.541,7.237,6.14c0.932,0.466,1.547,0.632,1.847,0.499
	c0.399-0.133,0.765-0.732,1.098-1.797l0.873-2.618c10.98,9.823,26.636,15.413,46.996,16.744l0.296-0.028
	c-0.757,1.223-1.834,2.513-3.241,3.872c-3.294,0.731-10.615,0.932-21.962,0.599l-23.21-1.248c-8.751-0.765-15.19-0.449-19.316,0.948
	c-3.294,1.098-6.639,3.594-10.033,7.487c-7.054,8.086-13.111,17.038-18.168,26.854c-5.091,9.982-9.001,20.58-11.73,31.795
	c-0.566,2.362-0.815,5.107-0.749,8.236c0,1.896,0.865,2.495,2.595,1.797l4.592-2.396c1.498-0.699,2.646-1.23,3.444-1.598
	c1.431-0.632,2.213-0.832,2.346-0.599l2.396,6.938c1.764,4.226,3.527,6.09,5.291,5.59c2.196-1.464,4.326-2.795,6.389-3.992
	c4.126-2.363,6.838-3.078,8.136-2.146l8.036,7.088c3.694,3.193,6.14,4.574,7.337,4.143c2.163-0.799,5.74-15.707,10.731-44.724
	l4.292-24.009c0.333-2.096,2.014-3.41,5.042-3.943l14.425-1.098l8.236-0.6c-12.345,21.031-18.518,38.734-18.518,53.109
	c0,3.627,0.383,6.988,1.148,10.082c2.13,8.885,4.792,17.005,7.986,24.359c1.431,3.327,3.228,6.921,5.391,10.781
	c-1.664,2.129-1.947,3.81-0.849,5.041c1.298,1.431,4.293,2.146,8.985,2.146c2.695,0,5.158-0.482,7.387-1.447
	c2.096-0.932,4.326-2.446,6.688-4.543c1.364-1.23,5.557-6.189,12.579-14.874l13.677,2.097c1.563,0.166,2.795,0.516,3.693,1.048
	c0.932,0.565,1.797,1.447,2.596,2.646c1.697,2.662,3.594,5.84,5.689,9.533c2.13,3.693,3.195,5.707,3.195,6.04l-1.299,2.146
	c-0.864,1.166-1.313,2.014-1.348,2.547c-0.066,1.064,0.949,1.913,3.045,2.545l9.135,0.35c4.892-0.566,8.036-2.08,9.434-4.543
	c4.892-8.551,8.336-17.053,10.332-25.506c1.461-6.142,2.107-12.033,1.952-17.681l0.045,0.011l1.348,0.15l1.897,6.239l1.896,5.69
	c0.432,0.898,0.748,1.364,0.947,1.397c0.268,0.1,0.865-0.183,1.797-0.849c3.494-2.362,6.49-4.275,8.985-5.74l4.393,2.646
	c2.196,1.331,3.827,2.213,4.892,2.646c1.131,0.466,1.813,0.666,2.047,0.6c0.266-0.101,0.549-0.699,0.848-1.797l2.695-12.43
	c3.328-2.063,6.156-4.126,8.486-6.189c2.096-1.896,3.127-3.178,3.094-3.843c-0.033-0.599-1.397-1.697-4.093-3.294
	c-2.362-1.398-5.341-2.945-8.935-4.643c-0.832-7.521-1.397-11.996-1.697-13.427c-0.232-1.099-0.532-1.747-0.898-1.946
	c-0.432-0.233-1.197-0.101-2.296,0.398l-5.49,3.145l-6.09,3.645c-1.099-0.6-4.642-2.795-10.632-6.589
	c-0.832-0.532-1.431-0.716-1.797-0.55c-0.365,0.167-0.582,0.649-0.648,1.448c-0.1,0.865-0.15,3.36-0.15,7.487
	c0,4.359,0.051,7.387,0.15,9.084c-1.595,1.063-2.662,1.719-3.209,1.969c-0.528-1.696-1.132-3.37-1.832-5.014
	c-3.527-8.285-8.203-16.538-14.026-24.758c-4.438-6.31-9.819-12.913-16.139-19.808l13.992,1.24
	c13.144,0.798,25.007,1.031,35.589,0.698c1.225-0.033,2.43-0.143,3.62-0.308l1.321,5.05c0.865,3.095,1.664,4.958,2.396,5.59
	l11.43,1.498l12.979,1.598c-1.166,3.36-2.563,8.068-4.193,14.125c-1.963,7.354-2.945,12.196-2.945,14.525
	c0,0.633,0.084,1.049,0.25,1.248c0.898,1.23,4.043,2.113,9.434,2.646c-0.998,2.962-2.113,6.604-3.344,10.931
	c-1.332,4.592-1.997,7.205-1.997,7.837c0,1.099,2.163,3.81,6.489,8.136c3.826,3.827,7.037,6.723,9.633,8.686l3.345,2.346
	c0.932,0.532,1.597,0.666,1.997,0.399c0.232-0.167-0.334-2.279-1.697-6.339c-1.432-4.227-2.829-7.787-4.193-10.682l15.674-24.857
	c0.232-0.366,0.349-0.799,0.349-1.298c0-1.397-1.165-3.228-3.494-5.491l-7.637-6.738l-1.348-1.147l8.235-21.713
	C259.82,172.568,261.9,166.096,261.9,164.564z M152.887,149.939c8.187-2.729,14.775-5.956,19.767-9.683
	c1.695-1.259,3.275-2.56,4.749-3.897l1.291,1.452l5.22,6.139c-2.455,5.699-4.961,9.682-7.517,11.93
	c-2.662,2.329-10.382,4.01-23.16,5.041l-17.336,0.598l-6.41-6.783C137.276,154.099,145.076,152.506,152.887,149.939z"/>
</svg>
