<?xml version="1.0" encoding="utf-8"?>
<!-- Generator: Adobe Illustrator 16.0.0, SVG Export Plug-In . SVG Version: 6.00 Build 0)  -->
<!DOCTYPE svg PUBLIC "-//W3C//DTD SVG 1.1//EN" "http://www.w3.org/Graphics/SVG/1.1/DTD/svg11.dtd">
<svg version="1.1" id="图层_1" xmlns="http://www.w3.org/2000/svg" xmlns:xlink="http://www.w3.org/1999/xlink" x="0px" y="0px"
	 width="274px" height="233px" viewBox="0 0 274 233" enable-background="new 0 0 274 233" xml:space="preserve">
<path d="M273.225,82.494c-0.533-0.932-1.998-1.282-4.395-1.048l-8.489,1.598c-7.923,1.731-15.696,2.347-23.319,1.848l-13.334-1.947
	c-6.891-1.432-12.066-2.347-15.529-2.747c-3.282-0.367-6.339-0.398-9.187-0.119c-9.152-13.621-22.319-25.666-39.501-36.135
	c7.324-2.763,10.687-7.773,10.088-15.031l-1.199-8.439c-0.399-3.063-0.133-5.327,0.799-6.791c1.698-2.664,5.16-4.378,10.387-5.144
	c2.93-0.466,4.645-1.182,5.144-2.147c0.433-0.865-0.083-1.814-1.548-2.846C179.744,1.182,175.384,0,170.057,0
	c-4.294,0-8.788,1.681-13.482,5.043c-4.693,3.362-8.156,7.357-10.387,11.985c-1.064,2.23-3.045,3.961-5.941,5.193
	c-2.697,1.099-5.676,1.598-8.939,1.499c-4.428-0.1-7.374-0.034-8.838,0.199c-4.495,0.766-8.656,2.763-12.484,5.993
	c-4.627,0.533-9.138,2.43-13.532,5.692c-3.03,2.197-5.66,4.728-7.89,7.59l-1.498,0.5c-12.484,2.996-22.837,7.374-31.06,13.133
	c-11.052,7.79-20.773,19.409-29.162,34.855c-6.825,2.53-12.767,6.408-17.827,11.635c-5.693,5.826-8.656,11.852-8.889,18.077
	c-0.133,3.729,0.833,6.975,2.896,9.737c0.999,1.332,2.746,2.946,5.243,4.844c2.164,1.598,3.445,3.746,3.845,6.441
	c0.266,1.565,0.416,3.996,0.449,7.291c0.3,2.863,1.432,5.21,3.396,7.041c2.53,2.396,6.808,4.345,12.833,5.843l0.05,0.1
	c1.265,3.896,2.58,7.024,3.945,9.388c2.264,3.929,5.227,7.174,8.888,9.738c-2.363,0.932-4.394,2.513-6.092,4.743l-3.646,5.893
	c-2.364,3.929-4.494,6.358-6.392,7.29c-3.263,1.599-7.857,1.049-13.782-1.647c-5.46-2.497-7.823-2.214-7.091,0.849
	c0.532,2.264,2.28,5.178,5.243,8.739c3.595,4.261,9.604,7.19,18.027,8.788c5.393,1.033,11.318,1.449,17.777,1.249
	c4.661-0.167,7.823,0.233,9.488,1.198c1.298,0.766,3.096,3.047,5.393,6.842c2.463,4.094,6.275,6.342,11.436,6.74
	c4.294,0.334,9.654-0.615,16.079-2.846c3.196-1.099,5.976-1.548,8.339-1.348c2.097,0.166,5.859,1.082,11.285,2.746
	c3.529,1.098,6.691,1.447,9.488,1.049c2.297-0.3,4.111-1.049,5.443-2.248c2.297-2.13,3.628-4.41,3.995-6.841
	c0.732-4.728-1.182-11.036-5.743-18.925c7.49-1,14.465-2.498,20.923-4.495c6.791-2.13,13.549-4.96,20.273-8.489
	c0.002-0.001,0.004-0.002,0.006-0.002c2.788-0.554,4.588-1.238,5.412-2.053c4.034-1.633,7.797-3.423,11.289-5.367
	c0.835,0.503,1.608,0.701,2.318,0.581c1.465-0.267,3.646-1.298,6.542-3.096c3.13-1.997,5.227-3.845,6.292-5.543
	c0.467-0.755,0.532-1.805,0.241-3.119c2.652-2.541,5.021-5.246,7.099-8.116c7.624-10.534,11.498-23.448,11.637-38.732
	c5.891,0.367,11.749-0.54,17.576-2.765c6.358-2.464,9.938-5.026,10.736-7.69c0.333-1.065-0.1-1.848-1.299-2.347
	c-1.697-0.799-2.629-1.465-2.796-1.997c-0.333-1.298,1.931-2.713,6.791-4.245c4.062-1.232,7.324-2.514,9.788-3.845
	c5.625-3.029,10.885-7.407,15.779-13.133l3.195-4.294C273.424,84.075,273.591,83.126,273.225,82.494z"/>
</svg>
