<?xml version="1.0" encoding="utf-8"?>
<!-- Generator: Adobe Illustrator 16.0.0, SVG Export Plug-In . SVG Version: 6.00 Build 0)  -->
<!DOCTYPE svg PUBLIC "-//W3C//DTD SVG 1.1//EN" "http://www.w3.org/Graphics/SVG/1.1/DTD/svg11.dtd">
<svg version="1.1" id="图层_1" xmlns="http://www.w3.org/2000/svg" xmlns:xlink="http://www.w3.org/1999/xlink" x="0px" y="0px"
	 width="379px" height="364px" viewBox="0 0 379 364" enable-background="new 0 0 379 364" xml:space="preserve">
<path d="M378.1,262.371c-0.533-0.1-1.367,0.4-2.501,1.5c-1.934,1.935-5.034,6.452-9.302,13.555l-4.951-10.303
	c-2.401-4.734-4.685-8.819-6.853-12.254c-0.666-1.066-1.383-1.6-2.15-1.6c-0.934,0-2.184,0.717-3.751,2.15
	c-2.4,2.2-5.135,5.501-8.202,9.902c-2.801-7.436-9.386-19.589-19.755-36.46c-8.397-13.656-14.147-22.423-17.269-26.33
	c1.218-1.283,2.521-2.804,3.915-4.578l6.151-8.302l3.951-5.502c1.4-1.9,2.4-3.017,3.001-3.351l5.401,2.501
	c3.834,1.733,6.618,2.816,8.352,3.25c1.101,0.268,2.334,0.268,3.701,0c1.367-0.266,2.601-0.75,3.701-1.449
	c1.834-1.067,3.067-2.901,3.701-5.502l0.851-6.852c0.267-3.534,0.399-6.935,0.399-10.203c0-2.768-0.233-5.218-0.7-7.352
	c-0.467-2.2-1.1-3.784-1.9-4.751c-1.4-1.667-4.201-3.401-8.402-5.202c-3.667-1.6-6.818-2.65-9.452-3.15l0.05-2.701l-0.15-4.351
	c-0.3-3.934-1.4-7.019-3.301-9.252c-1.6-1.934-5.284-4.134-11.053-6.602c-6.068-2.601-10.252-3.551-12.553-2.851
	c-1.067,0.333-2.201,0.9-3.401,1.7l-2.351,1.601c-0.733-2.901-1.316-4.835-1.75-5.802c-1.067-2.467-2.468-3.951-4.201-4.451
	c-3.168-0.934-7.318-1.734-12.453-2.4c-6.669-0.833-11.137-0.717-13.404,0.35c-1.967,0.934-3.584,3.768-4.852,8.502
	c-0.732,2.734-1.617,7.569-2.65,14.504l-4.602-14.604c-1.5-4.534-2.733-7.202-3.7-8.002c-0.456-0.367-1.111-0.66-1.953-0.885
	c-1.237-2.52-2.497-5.003-3.799-7.417c-5.968-11.069-12.587-20.772-19.854-29.107c-6.49-7.479-13.214-13.507-20.163-18.122
	c2.886-1.672,4.849-2.938,5.858-3.784c1.334-1.101,1.934-2.234,1.801-3.401c-0.1-1-1.051-2.234-2.851-3.701l-4.302-3.201l-0.1-0.1
	c2.067-0.033,5.518,0.383,10.354,1.25l10.752,1.9l2.301,0.3c1.768,0.167,3.268,0.15,4.502-0.05c1.133-0.2,3.7-1.5,7.701-3.901
	l6.802-4.051l6.702-0.2l9.152,1.601l7.052,1.5l6.552,1.05c2.9,0.167,6.502-0.884,10.803-3.151c3.734-1.934,5.568-3.268,5.502-4.001
	l-1.586-0.049c0.059-0.05,0.129-0.101,0.186-0.151l-0.596,0.138l-4.456-0.138c-2.334,0.367-4.802-0.067-7.401-1.3
	c-3.068-1.467-9.937-5.585-20.605-12.354l-3.151-2c-3.034-1.9-6.769-2.351-11.203-1.35c-2.3,0.5-5.519,1.717-9.652,3.651l-2.551,1.1
	c-1.034,0.367-3.268-0.2-6.702-1.7l-10.603-4.801c-10.836-4.601-17.354-7.269-19.556-8.002c-7.368-2.4-14.67-3.467-21.905-3.201
	c-9.269,0.333-19.738,5.018-31.408,14.054c-4.334,3.301-8.035,6.635-11.103,10.003c-2.9,3.134-4.284,5.168-4.151,6.102
	c0.133,1.333,1.5,2.817,4.101,4.451c2.467,1.534,5.135,2.667,8.002,3.401l-8.002,6.651c-2.234,2.134-2.984,3.668-2.25,4.602
	c1.034,1.333,3.234,2.65,6.602,3.951l3.047,1.108c-9.276,7.668-18.644,20.344-28.104,38.052
	c-10.002,18.705-16.704,36.709-20.105,54.014c-0.103,0.15-0.204,0.326-0.303,0.52c-4.225,5.094-7.442,9.063-9.618,11.869
	c-3.558-2.608-6.081-4.002-7.534-4.136c-2.268-0.2-5.785,0.2-10.553,1.2c-4.968,1.034-8.285,2.134-9.953,3.301
	c-1.467,1.034-2.717,2.317-3.751,3.851l-2.225,3.551c-3.489-0.753-6.301-0.274-8.428,1.45l-6.251,5.501
	c-4.301,4.301-6.935,8.069-7.902,11.303c-0.082,0.281-0.154,0.55-0.232,0.826c-1.724,0.591-3.596,1.94-5.619,4.076
	c-2.567,2.7-4.318,5.584-5.251,8.652l-1.801,7.651c-0.967,5.302-0.833,8.436,0.4,9.402c0.969,0.778,1.982,1.464,3.034,2.067
	l-0.083,0.084l-3.351,3.801c-1.267,1.533-1.984,4.367-2.15,8.502c-0.167,3.434,0,6.285,0.5,8.553c0.167,0.732,0.667,1.483,1.5,2.25
	c0.7,0.633,1.5,1.184,2.401,1.65c1.033,0.533,2.234,0.816,3.601,0.85c1.367,0.067,2.634-0.149,3.801-0.649l1.8-0.7
	c6.135-2.168,9.502-5.085,10.103-8.752c0.534-3.635,1.084-5.952,1.651-6.952l6.352,3.7c3.567,2.234,6.102,4.068,7.602,5.502
	l2.67,2.438c-1.171,2.585-2.708,6.477-4.621,11.717c-2.467,6.768-4.268,12.27-5.401,16.504l-3.651-2.101
	c-2.234-1.134-3.734-1.601-4.501-1.4c-1.167,0.3-2.034,1.034-2.601,2.2c-0.867,1.701-2.784,6.402-5.751,14.104
	c-5.935-2.1-11.503-3.9-16.705-5.4c-1.567-0.434-2.4-0.268-2.5,0.5c-0.067,0.5,0.267,1.816,1,3.951
	c2.5,7.068,5.035,13.137,7.602,18.205c2.134,4.167,4.201,7.435,6.202,9.802c2.434,2.901,4.518,4.135,6.252,3.701
	c1.534-0.366,3.868-2.317,7.002-5.852l4.201-5.201c3.435,2.9,5.952,4.451,7.552,4.651c2.701,0.3,6.268-1.4,10.703-5.102
	c4.568-3.768,10.086-8.752,16.555-14.954c5.961-5.731,10.971-10.857,15.047-15.391c-1.224,4.955-1.844,9.324-1.844,13.09
	c0,1.101,0.05,2.118,0.15,3.051c0.267,2.701,1.567,7.802,3.901,15.304l3.701,12.154c0.133,0.6-0.7,2.667-2.501,6.201
	c-1.9,3.701-2.75,6.818-2.551,9.353c0.067,0.733,0.484,1.851,1.25,3.351c0.733,1.467,1.517,2.751,2.351,3.852
	c3.201,4.268,6.585,7.085,10.153,8.452c3.868,1.5,10.303,2.3,19.305,2.4c12.003,0.134,23.489-1.251,34.459-4.151
	c9.302-2.467,15.671-5.168,19.105-8.102l8.052-6.902l4.701-4.501c0.633-0.833,0.8-1.4,0.5-1.7c-0.2-0.2-0.667-0.301-1.4-0.301
	l-2.801,0.301l-3.551,0.3l2.5-3.351c1-1.5,1.084-2.218,0.25-2.15l-3.651,0.8l-2.851,0.8l-3.951-4.501l0.9-3.551
	c0.467-2.167,0.7-4.351,0.7-6.552c0-1.4-0.2-3.284-0.6-5.651l-0.659-3.715c6.354,0.004,12.582-0.691,18.687-2.06
	c-0.78,3.915-1.173,7.608-1.173,11.076c0,2.9,0.4,5.602,1.2,8.102l2.15,5.151c-3.634,8.036-5.451,14.237-5.451,18.604
	c0,2.102,0.3,3.918,0.9,5.452c0.6,1.467,1.684,3.15,3.25,5.052c5.035,6.067,19.355,8.868,42.961,8.401
	c0.434-0.033,1.9,1.15,4.401,3.552l4.701,4.25c0.633,0.4,1.45-0.066,2.451-1.4l1.85-3.15l7.102,4.602
	c3.969,2.533,6.369,3.817,7.203,3.851c0.799,0.034,0.916-1.3,0.35-4.001l-1.351-6.051l4.751,2.6
	c2.067,1.134,3.285,1.668,3.651,1.601c0.333-0.066,0.767-1.434,1.3-4.101c0.5-2.801,0.867-4.318,1.101-4.552l2.601-1.25
	c4.768-2.101,7.669-3.468,8.703-4.101c3.867-2.268,6.568-4.936,8.102-8.003c0.633-1.267,0.95-2.867,0.95-4.801
	c0-2.734-0.767-6.085-2.301-10.053c-1.101-2.901-2.351-5.552-3.751-7.952c1.934-3.468,2.9-7.886,2.9-13.254
	c0-5.768-0.399-11.953-1.199-18.555c-0.867-6.936-2.051-13.32-3.551-19.154c-2.688-10.36-7.122-18.312-13.291-23.868
	c0.453-1.129,0.877-2.273,1.268-3.436c10.022,19.051,23.627,36.641,40.83,52.76c13.37,12.536,25.141,21.239,35.31,26.106
	c4.868,2.301,9.202-4.501,13.004-20.404c2.033,2.533,4.234,4.75,6.602,6.651c2.033,1.634,3.384,2.45,4.051,2.45l1.65-0.25
	c0.601-0.4,1.267-1.35,2.001-2.851c0.767-1.468,2-6.335,3.7-14.604c1.768-8.535,2.885-15.203,3.352-20.005
	C378.833,263.172,378.633,262.471,378.1,262.371z"/>
</svg>
