<?xml version="1.0" encoding="utf-8"?>
<!-- Generator: Adobe Illustrator 16.0.0, SVG Export Plug-In . SVG Version: 6.00 Build 0)  -->
<!DOCTYPE svg PUBLIC "-//W3C//DTD SVG 1.1//EN" "http://www.w3.org/Graphics/SVG/1.1/DTD/svg11.dtd">
<svg version="1.1" id="图层_1" xmlns="http://www.w3.org/2000/svg" xmlns:xlink="http://www.w3.org/1999/xlink" x="0px" y="0px"
	 width="433px" height="424px" viewBox="0 0 433 424" enable-background="new 0 0 433 424" xml:space="preserve">
<path d="M432.201,392.16c-2.364-4.961-5.345-10.405-8.941-16.332c-3.247-5.394-6.196-9.815-8.852-13.29
	c-0.717-3.309-2.108-5.38-4.185-6.19c-14.951-5.794-47.617-19.746-97.998-41.856c-31.468-13.853-63.417-28.021-95.851-42.506
	c-2.397-1.065-5.694-2.064-9.89-2.997c-0.51-0.113-1.005-0.22-1.49-0.32c20.247-5.969,50.262-22.177,90.048-48.629
	c17.582-11.688,33.799-23.309,48.649-34.863c14.951-11.621,25.624-20.928,32.017-27.921c0.367-0.4,0.5-0.849,0.4-1.349l-1.749-8.142
	c2.598,0.599,5.828,1.715,9.69,3.347c0.666,0.266,1.132,0.149,1.398-0.35c3.063-5.661,5.211-9.49,6.443-11.488
	c0.3-0.533,0.233-1.032-0.2-1.499l-2.297-2.248l-3.097-2.697l9.439,1.748c0.566,0.067,1.016-0.133,1.349-0.599
	c1.565-1.832,4.146-5.444,7.742-10.839c0.233-0.366,0.283-0.699,0.149-0.999c-0.166-0.3-0.466-0.5-0.898-0.599
	c-4.195-0.933-7.509-1.815-9.939-2.647c4.628-1.432,9.59-3.163,14.884-5.194c0.5-0.167,0.783-0.55,0.85-1.149
	c0.499-4.895,0.683-9.024,0.55-12.387c0-0.766-0.384-1.149-1.149-1.149l-10.039-0.25l-10.64-0.6
	c3.696-3.896,8.791-9.84,15.284-17.832c0.434-0.433,0.434-0.899,0-1.398c-1.465-1.698-3.796-3.513-6.992-5.444l-1.349,0.1
	l-19.63,14.235l2.098-17.731c0.101-0.799-0.216-1.232-0.949-1.298c-3.529-0.267-7.259-0.25-11.188,0.05
	c-0.4,0.033-0.75,0.25-1.05,0.649l-12.592,17.988c-0.718-4.667-1.271-9.444-1.643-14.342c-0.067-0.699-0.384-1.032-0.949-0.999
	h-7.242c-0.6,0-0.999,0.233-1.199,0.699c-2.894,7.153-5.479,13.121-7.77,17.946c-1.408-3.153-2.831-5.998-4.268-8.505
	c-0.366-0.633-0.833-0.799-1.399-0.5c-13.918,7.026-29.585,17.065-47.001,30.119c-16.749,12.521-33.631,26.722-50.646,42.606
	c-36.127,33.67-62.906,64.645-80.379,92.935c-0.457-0.47-0.914-0.939-1.336-1.43c-2.042-2.357-3.883-5.178-5.528-8.454
	c3.811-5.553,7.454-11.688,10.922-18.418c6.993-13.52,12.737-28.288,17.232-44.304c4.496-15.95,7.343-31.617,8.542-47.001
	c1.2-15.599,0.553-29.526-1.911-41.808c0.816-0.736,1.29-1.98,1.412-3.745c0.366-6.293-1.116-13.636-4.445-22.027
	c-3.497-8.891-8.441-17.332-14.835-25.324C144,15.219,124.77,3.897,102.094,0.967C88.042-0.864,74.822,1.05,62.435,6.711
	C50.081,12.339,40.208,20.93,32.816,32.484c-0.81,1.239-1.16,2.287-1.067,3.151c-1.04,2.143-1.887,4.256-2.529,6.339
	c-1.798-3.796-4.013-7.192-6.643-10.189l-0.5-0.399l-0.649,0.05c-1.765,0.533-3.33,1.149-4.695,1.848
	c-0.433,0.266-0.616,0.616-0.549,1.049c0.999,4.429,2.281,8.791,3.846,13.086c-3.597-1.665-7.476-2.997-11.638-3.996
	c-0.533-0.133-0.916-0.05-1.149,0.25c-2.364,3.33-4.079,6.31-5.145,8.94c-0.2,0.466-0.133,0.933,0.2,1.399
	c2.131,2.83,4.212,5.894,6.244,9.19c1.055,1.704,1.974,3.285,2.768,4.751C8.362,67.192,5.76,66.345,3.546,65.4
	c-0.799-0.367-1.299-0.15-1.499,0.649C1.415,68.28,0.899,71.044,0.5,74.341c-0.4,3.297-0.549,5.911-0.45,7.842
	c0,0.533,0.216,0.982,0.649,1.349c3.03,2.464,6.626,5.161,10.789,8.092c-2.364,0.666-4.812,1.582-7.342,2.747
	c-0.5,0.233-0.699,0.616-0.599,1.149c2.963,22.543,11.938,50.214,26.922,83.014c6.626,14.518,13.419,27.555,20.379,39.11
	c6.777,11.264,12.874,19.716,18.292,25.363c-16.414,16.145-27.275,33.063-32.577,50.757c-3.702,12.382-4.26,23.28-1.698,32.707
	c-1.384,1.55-2.894,2.974-4.545,4.255c-5.96,4.429-10.456,8.691-13.486,12.787c-5.294,7.125-7.942,15.2-7.942,24.225
	c0,4.795,0.633,9.506,1.898,14.135c1.11,4.001,2.476,7.181,4.097,9.543c-1.439,1.692-2.014,3.67-1.7,5.941
	c0.5,3.796,4.246,5.927,11.238,6.393c2.864,0.167,5.495-0.083,7.892-0.749c1.245-0.34,2.278-0.759,3.107-1.256
	c3.598,0.671,7.889,0.675,12.876,0.008c6.526-0.899,10.872-2.747,13.036-5.545c2.531-3.263,4.063-7.259,4.595-11.987
	c0.366-3.096,0.287-6.397-0.228-9.897c8.171,5.982,18.773,11.105,31.795,15.372c-0.25,8.437,0.252,15.381,1.507,20.835
	c-0.184,0.513-0.292,1.048-0.308,1.611c-0.066,2.431,1.099,4.462,3.497,6.094c2.131,1.465,4.912,2.431,8.341,2.897l9.041-0.3
	c1.507-0.329,2.723-0.778,3.662-1.341c5.863,1.155,11.834,0.681,17.916-1.457c7.292-2.563,11.938-6.709,13.936-12.437
	c0.482-1.365,0.887-2.795,1.237-4.268c3.632,0.355,7.312,0.667,11.05,0.921c13.168,0.904,24.947,1.081,35.362,0.547
	c0.037,0.904,0.083,1.781,0.151,2.6c0.033,2.031,1.082,3.663,3.146,4.896c2.031,1.231,4.729,1.864,8.092,1.897
	c3.263,0.033,5.876-0.466,7.841-1.498c0.353-0.185,0.664-0.387,0.957-0.598l3.373,0.091c0.169,0.103,0.332,0.209,0.516,0.307
	c2.23,1.199,5.128,1.898,8.691,2.099c3.762,0.199,6.676-0.134,8.74-0.999c1.001-0.397,1.76-0.904,2.291-1.514
	c7.05-0.441,12.249-3.164,15.59-8.177c3.53-5.261,5.828-14.302,6.894-27.121c0.532-6.494,0.449-12.787-0.25-18.881
	c-0.526-4.662-1.4-8.986-2.594-13.002c21.962,16.088,44.521,28.147,67.676,36.178c0.666,0.232,1.149,0.017,1.449-0.649l3.196-8.092
	l1.299,5.146l0.799,5.094c0.033,0.566,0.3,0.883,0.8,0.949c4.229,0.799,7.559,1.682,9.989,2.647
	c0.566,0.267,0.949,0.033,1.148-0.699l1.799-9.04l1.198,5.193l0.749,4.296c0.167,0.699,0.467,1.165,0.899,1.399
	c4.329,2.197,9.773,4.445,16.333,6.742c7.226,2.531,12.837,4.046,16.832,4.545c0.899,0.134,1.249-0.216,1.05-1.049
	c-0.8-4.029-1.849-8.174-3.147-12.437c3.93,5.161,7.659,9.323,11.188,12.487c0.233,0.232,0.566,0.383,0.999,0.449
	c2.964,0.399,7.176,0.3,12.637-0.3c0.833-0.066,1.082-0.532,0.749-1.398c-1.331-3.729-2.93-7.542-4.795-11.438l5.295,6.743
	l3.746,5.095c0.333,0.467,0.683,0.683,1.049,0.649c4.895-0.134,9.074-0.666,12.537-1.599
	C432.483,393.609,432.667,393.06,432.201,392.16z M126.36,75.48c10.219,26.426,10.659,53.584,1.307,81.475
	c-4.639,13.869-11.66,27.793-21.049,41.773c-0.691-13.274-3.364-30.725-8.02-52.362c-4.549-21.162-8.753-36.446-12.613-45.889
	c0.355-0.252,0.71-0.509,1.057-0.785c-0.015,1.115,0.169,2.172,0.567,3.168c0.699,1.665,1.865,2.897,3.496,3.696
	c2.531,1.232,5.528,1.348,8.991,0.35c4.096-1.166,7.509-3.729,10.24-7.692c2.797-4.063,5.278-9.507,7.442-16.333
	c1.4-4.49,2.488-9.035,3.3-13.627c0.515,1.131,1.039,2.262,1.595,3.388c0.6,1.199,1.382,2.015,2.348,2.447
	C125.384,75.258,125.842,75.383,126.36,75.48z"/>
</svg>
