<?xml version="1.0" encoding="utf-8"?>
<!-- Generator: Adobe Illustrator 16.0.0, SVG Export Plug-In . SVG Version: 6.00 Build 0)  -->
<!DOCTYPE svg PUBLIC "-//W3C//DTD SVG 1.1//EN" "http://www.w3.org/Graphics/SVG/1.1/DTD/svg11.dtd">
<svg version="1.1" id="图层_1" xmlns="http://www.w3.org/2000/svg" xmlns:xlink="http://www.w3.org/1999/xlink" x="0px" y="0px"
	 width="182px" height="191px" viewBox="0 0 182 191" enable-background="new 0 0 182 191" xml:space="preserve">
<path d="M179.402,176.808l-4.396-4.097c-3.397-3.064-6.878-5.195-10.441-6.395c-3.931-1.332-11.807-2.98-23.631-4.945
	c-16.819-2.832-28.627-5.695-35.421-8.594c-9.026-3.93-16.786-10.458-23.281-19.584c-7.061-9.958-12.356-18.635-15.887-26.028
	l-2.198-4.597c-0.799-1.498-1.549-2.58-2.248-3.246c-1.299-1.232-3.281-2.148-5.945-2.748l-6.944-1.049l-4.446-0.85
	c-1.632-0.599-3.197-2.048-4.696-4.346c-1.427-2.155-1.924-3.954-1.492-5.396c3.584-0.282,6.891-0.846,9.945-1.665l4.936,1.116
	l5.895,0.6c1.099-0.033,1.749-0.366,1.949-0.999c0.333-0.966,0.433-2.148,0.299-3.547l-0.566-3.055
	c0.135-0.102,0.284-0.188,0.417-0.292c1.523-1.191,2.858-2.473,4.011-3.842c1.798-0.747,3.061-1.481,3.783-2.203
	c0.399-0.433,0.566-0.949,0.5-1.549c-0.047-0.533-0.32-1.155-0.804-1.858c1.265-2.942,1.903-6.184,1.903-9.732
	c0-7.327-3.497-13.605-10.491-18.834c-6.448-4.813-14.07-7.392-22.861-7.747c-0.342-1.292-0.557-2.546-0.647-3.764
	c5.017-0.609,9.096-2.095,12.217-4.477c3.197-2.464,4.796-5.429,4.796-8.893c0-3.93-2.215-7.261-6.645-9.992
	c-4.463-2.765-9.742-4.08-15.837-3.947c-5.895,0.1-10.857,1.515-14.888,4.247c-4.063,2.764-6.095,6.095-6.095,9.992
	c0,3.53,1.849,6.561,5.545,9.092c3.601,2.444,8.138,3.838,13.605,4.186c-0.01,0.597-0.061,1.23-0.167,1.91
	c-0.132,0.88-0.288,1.545-0.464,2.033c-6.892,0.944-13,3.442-18.321,7.509C3.463,44.517,0,50.878,0,58.306
	c0,3.231,0.61,6.326,1.815,9.286c-0.485,0.98-0.86,1.867-1.116,2.654c-0.666,2.131-0.583,3.78,0.25,4.946
	c1.031,1.384,3.545,1.935,7.493,1.684c3.017,2.712,6.741,4.788,11.192,6.21c3.123,1.026,6.444,1.662,9.955,1.926
	c1.074,1.833,1.572,3.838,1.486,6.017c-0.1,2.465-0.85,4.08-2.248,4.846l-2.448,1.149c-3.131,1.365-5.162,2.398-6.095,3.098
	c-2.198,1.599-3.248,3.563-3.147,5.895c0.133,3.397,2.698,9.826,7.693,19.285c5.296,9.991,10.675,18.117,16.137,24.379
	c5.496,6.262,11.69,11.541,18.585,15.838c7.094,4.396,13.955,7.144,20.583,8.242l6.794,0.9l6.095,0.699
	c5.096,0.6,8.459,1.199,10.092,1.799c2.23,0.832,4.113,2.397,5.645,4.695l4.197,5.995c1.232,1.565,2.148,2.397,2.748,2.498
	c1.064,0.134,3.347-0.399,6.844-1.599c3.098-1.033,5.928-1.666,8.493-1.898l2.897-0.05l6.844,0.949
	c3.064,0.267,5.629,0.066,7.694-0.6c1.831-0.566,3.797-1.482,5.896-2.748c3.363-2.065,6.511-3.048,9.441-2.947l9.293,0.399
	c4.296-0.133,6.777-1.049,7.443-2.748C180.751,178.606,180.367,177.84,179.402,176.808z"/>
</svg>
