<?xml version="1.0" encoding="utf-8"?>
<!-- Generator: Adobe Illustrator 16.0.0, SVG Export Plug-In . SVG Version: 6.00 Build 0)  -->
<!DOCTYPE svg PUBLIC "-//W3C//DTD SVG 1.1//EN" "http://www.w3.org/Graphics/SVG/1.1/DTD/svg11.dtd">
<svg version="1.1" id="图层_1" xmlns="http://www.w3.org/2000/svg" xmlns:xlink="http://www.w3.org/1999/xlink" x="0px" y="0px"
	 width="266px" height="295px" viewBox="0 0 266 295" enable-background="new 0 0 266 295" xml:space="preserve">
<path d="M265.601,24.482c-0.167-0.399-1.015-0.283-2.546,0.35c-9.087,3.828-18.123,9.636-27.109,17.424
	c-9.719,8.454-17.674,17.856-23.864,28.208c-5.093,8.487-8.954,17.44-11.583,26.86c-1.199,4.287-2.021,8.215-2.482,11.803
	c-1.603-0.565-3.268-0.98-5.006-1.219c-3.229-0.433-7.572,0.25-13.031,2.047c-5.258,1.964-8.453,3.045-9.585,3.245
	c-0.815,0.148-1.705,0.249-2.629,0.327c0.011-0.01,0.021-0.018,0.032-0.027c1.365-1.265,1.166-1.897-0.599-1.897
	c-6.356-0.033-11.466-1.448-15.327-4.244c-1.532-1.113-3.128-2.719-4.781-4.783c1.607-4.47,2.444-9.064,2.484-13.789
	c0.134-13.18-4.209-24.047-13.029-32.601c-8.521-8.254-19.055-12.381-31.603-12.381c-12.381,0-22.283,2.862-29.705,8.587
	c-7.224,5.589-10.892,12.981-11.021,22.166c-0.356-0.125-0.716-0.242-1.061-0.398c-1.531-0.699-2.696-1.531-3.495-2.497
	c-1.864-3.594-1.647-8.903,0.649-15.926c2.396-7.289,6.474-14.528,12.231-21.717c6.524-8.121,14.162-14.812,22.916-20.07
	c10.185-6.058,21.102-9.702,32.751-10.934c1.797-0.2,2.729-0.433,2.796-0.699c0.033-0.299-1.148-0.632-3.545-0.999
	c-11.982-1.764-23.531-1.398-34.648,1.099c-10.617,2.396-20.07,6.54-28.357,12.431c-8.221,5.858-14.594,12.931-19.121,21.218
	c-4.693,8.554-7.04,17.723-7.04,27.508c0,6.091,0.949,11.6,2.846,16.525c1.797,4.66,3.811,7.322,6.041,7.988
	c1.065,0.333,2.33,0.133,3.794-0.599l5.691-3.794c3.865,1.096,7.016,2.399,9.502,3.893c-3.729,2.506-6.815,4.207-9.252,5.093
	c-2.762,1.032-4.11,1.797-4.044,2.296c0.067,0.533,1.531,0.832,4.394,0.899l6.84,0.25c-4.793,2.663-8.554,5.841-11.283,9.536
	c-2.496,3.395-4.61,7.888-6.34,13.479c-0.5,1.665-0.599,2.629-0.3,2.896c0.333,0.266,1.215-0.133,2.646-1.198
	c3.362-2.43,6.107-3.978,8.238-4.643c-3.761,3.328-6.457,6.657-8.088,9.985c-1.564,3.195-2.613,7.389-3.145,12.581
	c-0.366,3.595-0.283,5.492,0.25,5.691c0.599,0.233,1.98-1.348,4.144-4.743c2.862-4.526,6.008-7.872,9.436-10.035
	c-2.063,3.129-3.412,6.091-4.044,8.887c-0.632,2.763-0.699,5.875-0.2,9.336c0.2,1.698,0.815,1.665,1.847-0.1
	c0.932-1.598,2.479-3.162,4.643-4.693c-2.629,5.126-3.944,10.151-3.944,15.077c0.034,4.193,1.032,8.587,2.996,13.18
	c0.699,1.631,1.231,2.414,1.598,2.348c0.333-0.101,0.716-1.066,1.148-2.896c0.632-2.662,1.448-5.309,2.446-7.938
	c1.098-2.896,2.08-4.793,2.945-5.691c0.3,7.389,1.198,13.279,2.696,17.673c0.173,0.495,0.364,0.996,0.571,1.502l-17.696,1.894
	c-10.451,1.197-17.69,2.828-21.717,4.893c-3.062,1.598-6.69,4.576-10.884,8.936c-1.909,1.986-3.452,3.758-4.659,5.332
	c-3.64,0.353-7.179,1.769-10.618,4.254c-4.061,2.963-6.307,6.273-6.74,9.936c-0.133,0.932-0.033,1.465,0.299,1.598
	c0.3,0.133,0.899,0,1.797-0.4c2.463-1.098,5.359-1.779,8.687-2.047l2.075,0.122c-0.724,1.377-1.299,2.817-1.726,4.321
	c-1.165,4.094-1.099,8.188,0.2,12.282c0.299,0.898,0.682,1.382,1.148,1.448c0.433,0.033,0.916-0.283,1.448-0.949
	c1.665-1.997,4.327-4.643,7.988-7.938c3.208-2.946,5.534-4.869,6.979-5.771l1.758,0.278c0.668,0.054,1.304,0.12,1.921,0.193
	c0.11,1.398,0.499,3.047,1.174,4.949c1.198,3.428,2.996,6.623,5.392,9.586c0.566,0.665,0.982,0.965,1.248,0.898
	c0.299-0.033,0.616-0.5,0.949-1.398c1.657-5.485,2.986-9.573,4-12.312c1.032-0.194,1.985-0.491,2.839-0.919
	c1.365-0.665,2.48-1.697,3.345-3.095c0.699-1.132,1.381-2.796,2.047-4.993c0.766-2.529,2.396-4.593,4.893-6.19
	c3.062-1.997,8.021-3.744,14.878-5.241l7.339-0.65l4.878-0.202c1.949,4.554,4.378,8.752,7.303,12.584
	c5.558,7.323,12.265,12.548,20.12,15.677c1.298,0.499,1.997,0.6,2.097,0.299c0.133-0.332-0.349-1.314-1.448-2.945l-2.796-4.492
	l-1.997-4.344c1.897,2.962,4.477,5.143,7.738,6.54c2.13,0.932,3.229,1.181,3.295,0.749l-1.697-3.146
	c-2.263-3.895-3.312-8.237-3.146-13.03c0.148-4.167,1.179-8.005,3.085-11.515c0.34,0.151,0.683,0.294,1.026,0.435
	c0.587,3.124,1.775,5.706,3.578,7.734c0.566,0.666,0.982,0.999,1.248,0.999c0.233,0,0.316-0.3,0.25-0.899
	c-0.237-1.85-0.265-3.936-0.096-6.243c4.406,1.016,9.051,1.115,13.934,0.298c0.276,2.65,0.22,4.965-0.176,6.934
	c-2.036,0.615-4.242,1.813-6.623,3.605c-2.529,1.896-4.31,3.762-5.342,5.592c-0.366,0.6-0.516,0.998-0.449,1.198
	c0.1,0.233,0.399,0.315,0.898,0.249l7.338-0.599c0.064-0.004,0.122-0.007,0.186-0.011c-0.734,1.826-1.419,3.616-2.032,5.353
	c-1.365,3.761-3.095,7.972-5.192,12.631c-2.696,5.958-4.677,9.503-5.941,10.634l-9.785,8.887c-4.693,3.861-8.371,5.991-11.033,6.391
	c-0.769,0.116-1.512,0.318-2.23,0.603c-4.86-0.344-9.527,0.593-13.996,2.843c-4.793,2.396-7.472,5.408-8.038,9.036
	c-0.066,0.565-0.033,0.898,0.1,0.999c0.167,0.133,0.599,0.133,1.298,0c3.708-0.853,8.306-0.901,13.788-0.15
	c-0.203,0.217-0.406,0.422-0.608,0.648c-3.595,4.094-5.642,8.438-6.141,13.031c-0.066,0.633-0.017,0.981,0.15,1.049l1.298-0.2
	l2.945-1.148c2.164-0.933,5.309-1.931,9.436-2.995c3.343-0.844,6.19-1.457,8.543-1.844c0.582,0.143,1.081,0.274,1.491,0.396
	c1.062,0.318,2.229,0.735,3.481,1.23c-1.348,4.979-1.023,9.778,1.012,14.396c0.2,0.4,0.383,0.6,0.549,0.6l0.949-0.6
	c3.095-3.428,5.991-6.189,8.687-8.287l5.549-4.381c1.173-0.504,2.24-1.168,3.188-2.01c2.463-2.196,4.027-5.375,4.693-9.535
	c1.098-6.856,1.996-11.549,2.695-14.079c0.932-3.295,2.33-6.224,4.193-8.786l7.04-8.787c4.193-5.326,6.59-8.688,7.188-10.085
	c0.156-0.405,0.146-0.796-0.02-1.172c0.846-2.036,1.585-3.877,2.213-5.519c1.265-0.562,2.401-1.144,3.398-1.747
	c0.403-0.269,0.738-0.711,1.02-1.29c0.026-0.004,0.053-0.004,0.079-0.008c2.496-0.3,4.36-1.082,5.592-2.347
	c0.731-0.698,1.464-3.794,2.196-9.286c0.832-5.857,1.314-8.953,1.448-9.285c1.298-3.129,2.097-6.624,2.396-10.484
	c0.268-3.528,0.084-5.892-0.549-7.09c-0.079-0.15-0.23-0.345-0.445-0.576c0.725-3.293,1.08-5.579,1.066-6.86
	c3.281-3.604,6.504-7.606,9.664-12.034c1.465,1.165,3.494,4.676,6.09,10.534l4.443,10.733c1.1,2.63,2.913,4.71,5.442,6.241
	c2.496,1.563,6.44,3.012,11.833,4.343c0.266,2.93-0.383,6.059-1.947,9.387c-1.952,4.166-5.746,9.814-11.377,16.938
	c-4.626,0.067-8.644,0.988-12.039,2.783c-3.627,1.93-5.691,4.426-6.189,7.488c-0.101,0.565-0.084,0.915,0.049,1.049l1.199-0.101
	l10.334-0.698l0.183,0.018c-2.104,2.702-3.432,6.271-3.978,10.716c-0.066,0.632,0.018,1.015,0.25,1.147l1.348-0.199l6.791-2.695
	c4.938-1.775,8.738-2.776,11.423-3.019l5.151,1.92c0.244,0.08,0.466,0.149,0.699,0.226l1.248,2.07
	c1.863,3.328,3.111,5.892,3.744,7.689l0.449,0.799l0.949-0.5c2.929-2.264,4.709-5.259,5.342-8.986
	c0.168-0.979,0.236-1.917,0.22-2.817c0.094-0.189,0.19-0.372,0.279-0.577c1.265-2.93,1.881-7.123,1.847-12.582
	c0-1.297,0.301-4.825,0.899-10.584l1.248-10.384c0.366-3.961,0.366-8.071,0-12.331c-0.192-2.367-1.067-4.176-2.612-5.436
	c0.019-4.272-0.091-7.253-0.334-8.894c-0.232-1.464-0.599-2.28-1.098-2.446c-0.433-0.133-0.898,0.283-1.398,1.248l-3.835,6.248
	l-1.106-0.756c3.028-19.005,1.613-35.214-4.244-48.627c-2.914-6.652-6.482-11.729-10.691-15.262
	c2.647-3.856,6.624-7.789,11.939-11.798c6.523-4.926,13.197-8.753,20.02-11.482c0-8.953,2.48-19.67,7.439-32.152
	c5.291-13.213,11.615-23.714,18.971-31.502C265.317,25.631,265.767,24.882,265.601,24.482z"/>
</svg>
