<?xml version="1.0" encoding="utf-8"?>
<!-- Generator: Adobe Illustrator 16.0.0, SVG Export Plug-In . SVG Version: 6.00 Build 0)  -->
<!DOCTYPE svg PUBLIC "-//W3C//DTD SVG 1.1//EN" "http://www.w3.org/Graphics/SVG/1.1/DTD/svg11.dtd">
<svg version="1.1" id="图层_1" xmlns="http://www.w3.org/2000/svg" xmlns:xlink="http://www.w3.org/1999/xlink" x="0px" y="0px"
	 width="356px" height="328px" viewBox="0 0 356 328" enable-background="new 0 0 356 328" xml:space="preserve">
<path d="M329.936,147.364l-30.572-2.048c3.164-4.596,11.489-15.786,24.978-33.569c8.23-11.391,13.154-19.483,14.805-24.311
	c0.107-0.166,0.152-0.308,0.141-0.429c0.554-1.768,0.646-3.074,0.24-3.884c-1.032-2.064-9.108,0.816-24.228,8.642
	c-8.001,4.166-20.931,11.371-38.776,21.608c1.408-9.244,1.963-15.106,1.66-17.562c2.864-5.195,4.112-8.276,3.747-9.242
	c-0.2-0.533-1.383-1.166-3.547-1.898l-3.147-1.149c0.101-0.833,0.033-1.982-0.2-3.447c-0.299-1.898-0.766-3.114-1.398-3.647
	c-0.966-0.833-2.381-0.916-4.246-0.25c-1.35,0.467-2.428,1.122-3.252,1.953c-0.501-0.853-1.143-1.64-1.943-2.353
	c-2.131-1.898-4.563-2.331-7.293-1.299c-0.766,0.3-1.249,2.181-1.449,5.645c-0.232,3.597-0.466,5.495-0.699,5.695
	c-8.538,7.342-14.701,13.795-18.516,19.368c-1.979-2.498-4.254-5.007-6.861-7.529c-2.499-2.41-4.829-4.398-7.01-6.01
	c0.006-0.012,0.011-0.022,0.017-0.034c5.362-11.789,10.724-24.661,16.085-38.615c5.063-13.188,9.075-24.577,12.039-34.168
	c3.631-11.689,4.796-17.917,3.497-18.683c-0.699-0.399-2.248,0.083-4.646,1.449l-9.242,5.895
	c-10.391,6.627-25.16,17.351-44.309,32.171c-20.779,16.118-35.026,28.26-42.783,36.452c-2.949-2.41-6.614-4.341-11.018-5.78
	c-7.826-2.564-15.186-2.415-22.08,0.449c-7.16,2.998-12.588,7.959-16.285,14.887c-3.051,5.77-4.06,11.578-3.044,17.426
	c-13.582,1.894-29.46,4.574-47.659,8.05c-23.146,4.429-39.047,8.209-47.706,11.34c-2.464,0.899-3.997,1.881-4.596,2.947
	c-0.666,1.132-0.067,2.214,1.798,3.247c8.625,4.762,24.311,10.59,47.057,17.484c12.622,3.815,26.442,7.676,41.431,11.583
	c-0.295,3.333-0.385,5.984-0.268,7.949c0.013,0.279,0.033,0.588,0.059,0.918c-3.634-0.993-7.909-1.966-12.848-2.916
	c-6.86-1.299-11.756-1.898-14.687-1.798c-0.399,0.034-1.382-0.649-2.947-2.048c-1.599-1.366-2.598-2.032-2.997-1.998
	c-1.465,0.233-2.748,1.315-3.847,3.247c-0.543,0.944-0.895,1.918-1.076,2.917l-3.72,0.28c-2.564,0.633-3.913,1.282-4.046,1.948
	c-0.167,0.699,0.366,2.198,1.599,4.496l1.749,3.396l-1.999,2.397c-1.199,1.533-1.782,2.564-1.748,3.098
	c0.1,1.032,1.565,2.165,4.396,3.396l2.224,0.994l-19.108,1.104c-8.459,1.099-12.838,2.681-13.138,4.745
	c-0.366,2.731,8.076,7.377,25.327,13.938c9.125,3.431,20.731,7.51,34.818,12.239l-18.933,10.79
	c-9.058,5.495-13.488,9.142-13.288,10.939c0.108,0.979,0.775,1.775,1.986,2.394c0.309,0.278,0.732,0.448,1.267,0.515
	c2.768,0.907,7.287,1.239,13.582,0.988l28.024-2.297c-1.266,1.697-2.665,4.229-4.196,7.592c-1.765,3.896-2.198,6.028-1.299,6.395
	c1.898,0.833,5.595,0.051,11.09-2.348c3.897-1.709,7.438-3.604,10.661-5.662c1.733,3.012,3.999,6.749,6.791,11.207
	c-0.815,2-1.358,4.326-1.616,6.994c-0.396,4.27,0.047,7.543,1.3,9.852c-0.219,5.616,1.89,11.673,6.343,18.172
	c3.93,5.695,8.026,9.725,12.289,12.09c5.828,3.197,11.922,4.563,18.283,4.096c6.127-0.433,11.473-2.432,16.035-5.994
	c4.419-3.479,7.314-7.869,8.725-13.146c3.48,0.318,8.438,0.291,14.904-0.092c4.629-0.3,7.492,0.066,8.592,1.1
	c0.533,0.499,2.547,5.461,6.045,14.886c2.5,5.827,4.878,10.017,7.135,12.574c-0.285,1.105,0.012,2.357,0.907,3.761
	c1.433,2.198,3.563,3.813,6.394,4.846c2.632,0.933,5.346,0.717,8.143-0.649c1.418-0.683,2.528-1.5,3.342-2.445
	c0.416,0.625,0.962,1.129,1.654,1.496c2.465,1.299,5.195,2.048,8.192,2.248c3.063,0.233,5.694-0.167,7.894-1.198
	c2.396-1.066,3.68-2.881,3.846-5.445c0.039-0.597,0.011-1.154-0.074-1.679c3.766-5.223,7.663-12.52,11.692-21.887
	c14.943,0.338,27.924-4.226,38.936-13.7c11.756-10.158,18.483-23.512,20.182-40.064c1.532-14.819-2.148-28.59-11.04-41.312
	c-1.148-1.644-2.346-3.203-3.588-4.685c-0.082-1.642-1.682-4.248-4.854-7.854l-8.393-8.593c8.125-3.13,21.063-7.893,38.814-14.287
	c13.62-5.361,20.281-9.292,19.981-11.789C354.08,151.127,345.921,148.963,329.936,147.364z"/>
</svg>
