<?xml version="1.0" encoding="utf-8"?>
<!-- Generator: Adobe Illustrator 16.0.0, SVG Export Plug-In . SVG Version: 6.00 Build 0)  -->
<!DOCTYPE svg PUBLIC "-//W3C//DTD SVG 1.1//EN" "http://www.w3.org/Graphics/SVG/1.1/DTD/svg11.dtd">
<svg version="1.1" id="图层_1" xmlns="http://www.w3.org/2000/svg" xmlns:xlink="http://www.w3.org/1999/xlink" x="0px" y="0px"
	 width="167px" height="202px" viewBox="0 0 167 202" enable-background="new 0 0 167 202" xml:space="preserve">
<path d="M163.41,99.625c-1.996-4.991-5.125-7.737-9.384-8.236c-5.058-0.599-9.084,1.813-12.079,7.237
	c-2.828,5.191-5.24,14.126-7.237,26.804c-0.932,5.823-1.847,10.482-2.745,13.976c-1.165,4.526-2.479,7.937-3.943,10.232
	c-3.021,4.756-6.299,8.331-9.831,10.748c-0.39-3.484-0.624-7.479-0.7-11.995c-0.1-7.754,0.315-19.018,1.248-33.792
	c0.196-3.15,0.352-6.778,0.467-10.86c4.917-12.153,4.681-24.322-0.717-36.508c-5.391-12.146-14.292-20.747-26.704-25.805
	c-1.17-0.478-2.349-0.893-3.532-1.272c-3.432-6.104-8.197-12.664-14.336-19.692C64.332,9.514,55.63,2.992,47.811,0.896
	c-6.456-1.73-11.896-1.032-16.322,2.096c-3.96,2.795-6.223,6.755-6.788,11.879c-0.799,6.955,1.93,13.993,8.186,21.114
	c3.657,4.182,7.798,7.672,12.406,10.5c-8.318,5.189-14.373,12.382-18.146,21.594c-4.367,10.713-5.243,20.845-2.665,30.402
	c-2.193,13.19-4.101,23.076-5.721,29.644c-3.194,13.011-6.871,21.995-11.031,26.953c-2.995,3.561-5.125,6.988-6.389,10.282
	c-1.231,3.261-1.414,5.823-0.549,7.687c1.165,2.496,3.993,4.16,8.485,4.992l9.833,0.599c4.756,0,8.813-1.418,12.176-4.237
	c0.019,0.013,0.033,0.035,0.053,0.045c0.333,0.166,1.498-0.184,3.494-1.049c1.111-0.455,3.081-1.058,5.897-1.807
	c-0.083,1.171-0.113,2.367-0.058,3.604c0.266,5.49,1.714,9.916,4.342,13.277c3.128,3.959,7.521,5.756,13.177,5.391
	c3.841-0.208,6.998-1.921,9.479-5.113c0.752,1.349,1.655,2.582,2.75,3.666c3.328,3.327,7.62,4.824,12.877,4.492
	c4.426-0.267,7.953-2.363,10.582-6.289c0.314-0.476,0.604-0.965,0.875-1.467c1.519,3.08,3.023,5.402,4.516,6.957
	c2.729,2.795,6.023,3.844,9.883,3.145c9.018-1.598,14.358-4.26,16.021-7.986c0.832-1.797,0.966-4.076,0.4-6.838
	c-0.571-2.76-1.908-6.301-3.991-10.604c5.756-2.747,12.093-6.845,19.015-12.307c7.287-5.69,13.16-12.911,17.619-21.663
	c4.061-7.952,6.406-16.005,7.038-24.157C165.756,109.374,165.141,104.017,163.41,99.625z M93.077,130.167
	c1.053-0.486,2.103-1.007,3.146-1.593l-0.782,4.459C94.683,131.963,93.895,131.004,93.077,130.167z M42.17,136.96
	c0.117-2.364,0.235-6.594,0.352-12.677c2.952,2.101,6.19,3.891,9.718,5.368c-3.167,2.75-6.662,7.36-10.486,13.843
	C41.913,141.434,42.053,139.264,42.17,136.96z"/>
</svg>
