<?xml version="1.0" encoding="utf-8"?>
<!-- Generator: Adobe Illustrator 16.0.0, SVG Export Plug-In . SVG Version: 6.00 Build 0)  -->
<!DOCTYPE svg PUBLIC "-//W3C//DTD SVG 1.1//EN" "http://www.w3.org/Graphics/SVG/1.1/DTD/svg11.dtd">
<svg version="1.1" id="图层_1" xmlns="http://www.w3.org/2000/svg" xmlns:xlink="http://www.w3.org/1999/xlink" x="0px" y="0px"
	 width="187px" height="219px" viewBox="0 0 187 219" enable-background="new 0 0 187 219" xml:space="preserve">
<path d="M178.147,118.886c-5.272-13.549-11.797-27.398-19.572-41.547c-8.143-14.75-16.202-27.398-24.178-37.943
	C122.518,23.71,109.887,11.18,96.504,1.802c-1.468-1.035-2.652-1.619-3.554-1.752c-0.801-0.1-1.802,0.15-3.003,0.75
	c-4.305,2.136-10.829,8.043-19.572,17.721C60.697,29.2,51.503,41.114,42.793,54.262c-10.111,15.25-18.654,30.585-25.629,46.002
	c-9.144,20.189-14.851,39.011-17.12,56.464c-0.567,4.306,5.189,9.812,17.27,16.52c9.353,5.203,18.226,9.081,26.63,11.668
	c0.96,4.448,2.792,9.001,5.506,13.66c4.171,7.209,9.611,12.415,16.319,15.619c6.607,3.137,12.264,3.354,16.969,0.65
	c4.539-2.57,7.024-7.309,7.458-14.217c0.13-1.997,0.063-4.012-0.187-6.043l0.237-0.113c1.769-1.102,3.504-4.021,5.206-8.761
	c0.106-0.305,0.204-0.631,0.309-0.941l3.146,0.491l5.866-0.488c2.697,1.538,5.644,2.294,8.851,2.24
	c0.85-0.011,1.662-0.081,2.457-0.179c-0.701,5.344-0.32,10.16,1.147,14.444c1.701,4.939,4.505,8.143,8.409,9.611
	c4.772,1.77,9.861,0.65,15.268-3.354c5.506-4.071,9.644-9.861,12.414-17.37c1.979-5.361,2.778-10.963,2.423-16.797
	c4.007-2.115,7.81-4.453,11.393-7.03c10.479-7.508,16.386-14.467,17.721-20.873C185.689,141.428,183.453,132.568,178.147,118.886z"
	/>
</svg>
