<?xml version="1.0" encoding="utf-8"?>
<!-- Generator: Adobe Illustrator 16.0.0, SVG Export Plug-In . SVG Version: 6.00 Build 0)  -->
<!DOCTYPE svg PUBLIC "-//W3C//DTD SVG 1.1//EN" "http://www.w3.org/Graphics/SVG/1.1/DTD/svg11.dtd">
<svg version="1.1" id="图层_1" xmlns="http://www.w3.org/2000/svg" xmlns:xlink="http://www.w3.org/1999/xlink" x="0px" y="0px"
	 width="414px" height="348px" viewBox="0 0 414 348" enable-background="new 0 0 414 348" xml:space="preserve">
<path d="M412.251,1.043l-7.643,0.2L392.92,5.039l-4.396,1.349l-16.284,4.845c-7.493,2.364-12.771,4.279-15.835,5.745
	c-1.731,0.833-10.156,5.145-25.275,12.938L300.609,45.45c-0.732-1.898-2.848-3.43-6.344-4.595c-2.164-0.7-5.777-1.465-10.84-2.298
	c-2.896-0.466-7.742-1.948-14.535-4.446l-17.783-6.843l-9.841-3.796l-9.591-3.397c-3.596-0.932-6.277-0.782-8.042,0.45
	c-2.348,1.639-3.825,3.16-4.449,4.565c-10.819-0.997-21.951-0.403-33.398,1.782c-1.142-1.284-2.675-2.304-4.612-3.05
	c-2.265-0.866-6.66-0.366-13.188,1.499c-5.062,1.432-12.554,4.063-22.478,7.893c-7.959,3.03-13.287,4.995-15.985,5.894
	c-8.792,2.931-13.836,4.662-15.135,5.195c-3.197,1.299-5.195,2.681-5.994,4.146c-3.03-1.432-7.526-3.713-13.487-6.843l-15.435-8.142
	c-2.231-1.199-4.829-2.148-7.792-2.847l-9.141-2.148c-6.194-1.665-10.707-2.997-13.537-3.996c-4.929-1.665-9.008-3.547-12.238-5.645
	c-4.862-3.197-9.94-6.228-15.235-9.091C11.006,4.073,4.396,1.925,1.698,3.291C0.632,3.856,0.066,4.739,0,5.938
	C-0.167,8.869,1.964,17.41,6.394,31.563c4.496,14.453,8.675,26.041,12.538,34.766c3.33,7.56,8.042,16.967,14.136,28.223
	c8.991,16.584,17.45,30.138,25.375,40.661c-1.066,0.733-2.348,1.849-3.846,3.347c-2.165,2.165-3.33,6.926-3.497,14.286
	c-0.167,7.226,0.683,12.588,2.547,16.084c0.905,1.681,2.308,3.086,4.196,4.225c-0.502,7.164-0.714,14.011-0.635,20.538
	c-3.669,1.642-6.413,3.855-8.207,6.656c-1.532,2.465-2.298,5.279-2.298,8.442c0,1.332,0.283,3.979,0.849,7.942l0.6,5.744
	c0.732,9.558,2.631,16.334,5.694,20.33c1.532,2.065,4.046,3.98,7.543,5.745l6.053,2.668c1.738,4.454,3.582,8.533,5.536,12.218
	c0.747,1.384,1.567,2.786,2.422,4.197l-0.424,0.398c-1.066,1.198-1.898,2.314-2.498,3.346c-1.432,2.465-0.815,6.611,1.849,12.438
	c2.697,5.895,7.976,11.872,15.834,17.933c7.326,5.662,13.254,8.792,17.783,9.391c3.597,0.467,6.894,1.582,9.891,3.348l4.296,2.896
	c2.064,1.398,3.93,2.348,5.595,2.848c2.864,0.832,5.678,0.666,8.441-0.5l0.915-0.508l8.926,4.504
	c3.465,1.641,7.378,3.109,11.726,4.413c0.353,0.972,1.038,2.279,2.061,3.929c1.798,2.998,5.628,5.479,11.489,7.443l15.385,3.896
	l9.141,3.146c3.63,1.133,8.059,1.166,13.287,0.1c2.997-0.633,7.477-1.848,13.438-3.646l3.846-0.648
	c2.83-0.666,5.395-0.816,7.693-0.449c1.897,0.299,4.146,1.064,6.742,2.297l4.846,2.148c3.164,1.266,7.742,0.283,13.736-2.947
	c3.697-1.965,8.293-5.063,13.787-9.291l5.545-3.697c2.396-1.668,3.479-3.266,3.278-4.795c4.144-1.476,7.72-2.941,10.708-4.396
	c4.053-2.026,8.027-4.508,11.934-7.39l4.001,1.745c2.73,0.866,5.512,0.716,8.342-0.45c2.231-0.932,4.746-2.631,7.543-5.094
	l7.942-7.594c4.795-3.596,8.875-8.758,12.238-15.484c0.3-0.6,0.766-1,1.398-1.199l2.947-0.25c3.83-0.1,6.66-0.6,8.492-1.498
	c2.563-1.299,4.861-4.762,6.893-10.391c1.433-4.029,2.365-7.709,2.798-11.039c0.233-1.898-0.316-4.329-1.648-7.293
	c-0.669-1.477-1.337-2.73-2.006-3.787c1.127-2.251,2.154-4.502,3.055-6.752l2.168-6.232l5.574-4.107
	c2.198-1.965,3.83-4.729,4.896-8.293c0.933-4.229,1.715-7.409,2.348-9.541c0.899-2.996,1.082-6.526,0.55-10.59l-0.699-9.24
	c-0.267-3.996-0.633-7.043-1.1-9.142c-0.232-1.198-0.582-2.265-1.049-3.196c-0.741-1.483-1.586-2.046-2.531-1.717l-0.466-9.073
	c-0.268-3.729-0.617-6.981-1.046-9.765c2.67-2.306,4.439-4.215,5.292-5.72c0.766-1.366,1.115-3.896,1.049-7.593l-0.399-12.138
	c-0.033-1.865,0.184-5.179,0.649-9.94c0.233-2.298-0.633-4.812-2.598-7.543c-1.432-1.931-3.313-3.863-5.645-5.794l5.944-12.338
	l2.647-5.994c1.632-3.696,5.179-13.62,10.64-29.771c1.798-5.294,3.88-10.873,6.244-16.734c1.831-4.562,3.463-8.392,4.896-11.489
	c2.23-4.829,4.429-11.206,6.594-19.131c2.098-7.626,3.146-12.804,3.146-15.535C413.75,2.774,413.25,1.742,412.251,1.043z"/>
</svg>
