<?xml version="1.0" encoding="utf-8"?>
<!-- Generator: Adobe Illustrator 16.0.0, SVG Export Plug-In . SVG Version: 6.00 Build 0)  -->
<!DOCTYPE svg PUBLIC "-//W3C//DTD SVG 1.1//EN" "http://www.w3.org/Graphics/SVG/1.1/DTD/svg11.dtd">
<svg version="1.1" id="图层_1" xmlns="http://www.w3.org/2000/svg" xmlns:xlink="http://www.w3.org/1999/xlink" x="0px" y="0px"
	 width="329px" height="224px" viewBox="0 0 329 224" enable-background="new 0 0 329 224" xml:space="preserve">
<path d="M323.006,52.997c-2.697-2.93-6.343-5.593-10.938-7.99c-4.494-2.331-8.939-3.912-13.334-4.745
	c-4.693-0.898-8.406-0.749-11.136,0.45c-0.767-1.864-2.913-3.812-6.442-5.843c-3.362-1.931-7.274-3.563-11.736-4.894
	c-10.753-3.196-18.127-3.196-22.123,0c-4.86-4.728-10.969-7.491-18.327-8.29c-2.559-0.268-4.962-0.25-7.217,0.041
	c-7.028-4.655-14.591-8.602-22.696-11.826c-16.048-6.392-33.427-9.655-52.137-9.788c-16.979-0.133-33.276,2.78-48.891,8.739
	c-7.383,2.822-14.353,6.232-20.919,10.219c-1.056-0.604-2.147-1.159-3.301-1.629c-4.229-1.731-8.224-2.347-11.986-1.848
	c-4.827,0.633-9.089,2.331-12.784,5.094c-4.162,3.097-6.775,6.992-7.84,11.686c-0.966,4.195-0.799,8.573,0.499,13.134
	c0.413,1.43,0.911,2.743,1.476,3.964c-4.659,6.138-8.634,12.672-11.913,19.607c-6.559,13.916-9.838,28.349-9.838,43.297
	c0,11.421,1.667,22.246,4.991,32.478c-7.798-2.623-14.111-3.5-18.924-2.614c-3.662,0.633-5.942,1.914-6.841,3.846
	c-1.465,3.295-0.583,7.956,2.646,13.982c3.163,5.893,7.658,11.387,13.484,16.48c7.491,6.592,15.931,11.136,25.319,13.633
	c5.891,1.597,11.323,2.057,16.307,1.403c1.022,0.858,2.057,1.709,3.12,2.542c12.152,9.521,26.235,16.846,42.249,21.973
	c15.914,5.061,32.594,7.592,50.039,7.592c29.382,0,54.063-6.13,74.053-18.374c7.219-1.861,13.466-4.441,18.733-7.745
	c8.124-5.127,13.668-11.752,16.631-19.875c1.198-3.297,1.465-6.293,0.799-8.989c-0.075-0.282-0.165-0.549-0.258-0.812
	c1.693-3.18,3.215-6.47,4.553-9.876c0.798-2.025,1.518-4.075,2.176-6.144c17.566-10.62,31.354-24.789,41.321-42.547
	c8.09-14.449,13.134-30.164,15.131-47.143C327.283,59.289,325.969,56.226,323.006,52.997z"/>
</svg>
