<?xml version="1.0" encoding="utf-8"?>
<!-- Generator: Adobe Illustrator 16.0.0, SVG Export Plug-In . SVG Version: 6.00 Build 0)  -->
<!DOCTYPE svg PUBLIC "-//W3C//DTD SVG 1.1//EN" "http://www.w3.org/Graphics/SVG/1.1/DTD/svg11.dtd">
<svg version="1.1" id="图层_1" xmlns="http://www.w3.org/2000/svg" xmlns:xlink="http://www.w3.org/1999/xlink" x="0px" y="0px"
	 width="385px" height="292px" viewBox="0 0 385 292" enable-background="new 0 0 385 292" xml:space="preserve">
<path d="M378.003,222.858c-4.697-5.964-10.678-10.86-17.94-14.692c-4.255-2.244-8.57-3.928-12.945-5.068
	c0.578-0.237,1.199-0.491,1.901-0.778c3.665-1.6,5.83-2.882,6.496-3.849l0.3-1.148l-0.199-0.95c-0.7-1.565-2.565-3.065-5.598-4.497
	c-3.498-1.666-8.012-2.932-13.543-3.799c-7.629-3.331-14.942-4.547-21.938-3.648c-6.094,0.773-11.124,3.067-15.105,6.862
	c-1.416-5.28-3.655-10.715-6.733-16.307c-11.993-21.889-29.635-42.378-52.922-61.468c-7.297-5.963-14.76-11.46-22.389-16.491
	l-9.395-5.847c-9.775-5.972-15.974-11.083-18.602-15.335c1.257-1.81,2.084-3.103,2.46-3.854l0.423-1.364
	c1.045-1.327,2.349-3.328,3.924-6.032c2.133-3.698,3.266-6.014,3.398-6.946c0.134-0.767,0.033-1.35-0.299-1.75
	c-0.035-0.04-0.089-0.08-0.137-0.119c0.527-1.26,1.121-3.199,1.785-5.828c0.766-3.132,1.199-5.314,1.299-6.546l-0.1-2.099
	c-0.127-0.213-0.528-0.411-1.147-0.597c0.265-1.441,0.251-3.484-0.052-6.15c-0.267-2.398-0.583-4.281-0.949-5.647
	c-0.2-0.7-0.5-1.133-0.9-1.299l-2.348-0.25c-8.807-0.358-19.703,0.335-32.669,2.072c-1.188-3.664-3.548-7.386-7.11-11.167
	c-3.898-4.098-8.612-7.646-14.143-10.645c-13.16-7.096-26.636-9.212-40.429-6.347c-13.16,2.699-24.071,8.329-32.733,16.892
	c-8.083,7.986-12.232,16.46-12.471,25.419c-10.941-1.056-21.71-1.055-32.306,0.018c-5.664,0.6-10.661,1.433-14.992,2.499
	C6.263,47,4.231,47.75,3.798,48.349c-0.667,0.866-1.016,3.615-1.05,8.246c-0.021,2.818,0.055,4.993,0.225,6.539
	C1.59,63.877,0.654,64.564,0.2,65.19c-0.5,0.7-0.1,3.182,1.199,7.446c1.083,3.528,2.179,6.386,3.285,8.594
	c-0.52,0.514-0.834,0.939-0.886,1.251c-0.133,0.866,0.766,2.948,2.698,6.247c2.019,3.416,4.081,6.083,6.186,8.023
	c-1.399,1.537-2.05,2.448-1.938,2.722c0.667,1.599,3.381,4.281,8.146,8.046c4.665,3.665,7.263,5.347,7.796,5.047
	c0.399-0.167,3.281-4.065,8.646-11.694L46.226,85.38l-3.298,15.692c-1.466,7.03-2.432,12.26-2.898,15.692
	c-0.1,0.6-0.033,1.049,0.2,1.349l0.949,0.6l8.046,0.35l8.396,0.05c0.7-0.066,1.133-0.216,1.299-0.45l0.4-1.649l3.648-24.837
	l0.122-0.842c2.06,4.005,4.898,9.295,8.524,15.884l-1.349,2.499c-0.667,1.366-1,2.682-1,3.948c0,1.999,1.116,4.598,3.348,7.796
	c-2.398,3.765-4.631,9.729-6.696,17.891c-2.632,10.229-3.948,20.59-3.948,31.084c0,14.793,2.432,28.652,7.296,41.578
	c2.103,5.619,4.6,10.837,7.481,15.662c-3.005,2.393-6.843,4.785-11.529,7.176c-5.764,2.898-11.361,5.131-16.791,6.697
	c-12.627,3.498-20.19,7.695-22.688,12.594c-0.796,1.593-0.833,3.639-0.124,6.13c-1.918,1.698-2.912,3.569-2.974,5.614
	c-0.1,2.865,0.633,5.279,2.199,7.246c0.599,0.715,1.406,1.418,2.375,2.11c-0.007,0.097-0.024,0.191-0.027,0.288
	c-0.066,1.865,0.466,3.682,1.599,5.447c1.2,1.865,2.749,3.182,4.647,3.947c6.597,2.532,13.56,2.965,20.889,1.3
	c14.925-3.41,30.051-14.575,45.379-33.448c23.124,17.492,52.09,25.697,86.902,24.603c14.493-0.433,28.752-2.499,42.778-6.196
	c11.479-3.021,20.793-6.518,27.993-10.479c1.451,0.782,2.882,1.479,4.29,2.083c8.529,3.599,16.574,5.614,24.137,6.047
	c6.131,0.367,10.762-0.283,13.893-1.948c1.749-0.941,3.098-2.226,4.086-3.818c9.84,0.005,15.377-3.134,16.604-9.425
	c0.071-0.38,0.097-0.76,0.101-1.14c1.845-0.942,3.325-2.199,4.397-3.808c1.3-1.933,1.716-3.898,1.249-5.897
	c-0.832-3.665-3.798-6.663-8.895-8.995c-5.931-2.732-13.71-3.947-23.339-3.648c-0.243,0.007-0.497-0.008-0.743-0.006
	c0.984-1.501,1.875-3.017,2.68-4.544c2.11-0.845,4.402-1.458,6.909-1.796c3.332-0.467,7.846-0.551,13.543-0.25
	c2.032,0.1,6.764,1.148,14.192,3.148l20.439,5.547c5.564,1.432,11.078,2.648,16.542,3.648l10.895,1.648
	c2.665,0.233,4.264-0.5,4.797-2.199C384.017,232.486,382.301,228.322,378.003,222.858z"/>
</svg>
