<?xml version="1.0" encoding="utf-8"?>
<!-- Generator: Adobe Illustrator 16.0.0, SVG Export Plug-In . SVG Version: 6.00 Build 0)  -->
<!DOCTYPE svg PUBLIC "-//W3C//DTD SVG 1.1//EN" "http://www.w3.org/Graphics/SVG/1.1/DTD/svg11.dtd">
<svg version="1.1" id="图层_1" xmlns="http://www.w3.org/2000/svg" xmlns:xlink="http://www.w3.org/1999/xlink" x="0px" y="0px"
	 width="334px" height="333px" viewBox="0 0 334 333" enable-background="new 0 0 334 333" xml:space="preserve">
<path d="M331.627,293.453c-2.063-2.363-6.574-6.125-13.531-11.285c-0.766-19.706-6.708-39.813-17.826-60.318
	c-3.762-6.957-7.856-13.481-12.283-19.573c-1.066-1.442-2.042-2.722-2.944-3.868c-0.492-8.301-2.823-17.457-7.042-27.489
	c-3.435-8.127-6.684-13.911-9.748-17.363c0.796-2.807,1.209-5.997,1.209-9.601c0-6.044-0.833-10.091-2.493-12.155
	c0.344-2.07,0.247-3.725-0.335-4.923l0.031-0.049c0.903-1.51,1.491-3.452,1.771-5.819l0.228,0.177
	c1.099,0.666,1.831,0.549,2.197-0.35l1.548-3.795c0.466-1.032,1.032-1.548,1.697-1.548c0.6-0.033,1.198,0.533,1.798,1.698
	c0.433,0.732,0.266,1.548-0.5,2.447l-2.047,1.997c-0.565,0.666,0.4,1.432,2.896,2.297c2.43,0.866,3.695,0.749,3.795-0.349
	c0.166-1.465,0.582-2.88,1.248-4.245c0.832-1.698,1.781-2.58,2.846-2.646c0.6-0.033,1.066,0.117,1.398,0.45
	c0.366,0.433,0.566,1.082,0.6,1.947c0.033,0.799-0.084,1.481-0.35,2.047c-0.267,0.499,0.682,0.932,2.846,1.298
	c2.197,0.366,3.445,0.2,3.745-0.499c0.333-0.833,0.833-1.481,1.498-1.947c0.632-0.5,1.182-0.633,1.647-0.4
	c0.566,0.267,0.832,1.232,0.799,2.896c-0.066,1.631,0.018,2.48,0.25,2.546c1.332,0.466,3.213,0.066,5.643-1.198
	c1.797-0.965,3.079-1.831,3.845-2.597l0.849-0.849c0.134-0.233-0.133-0.549-0.799-0.949c-2.696-1.564-3.812-3.029-3.346-4.394
	c0.233-0.633,0.766-0.982,1.598-1.049c0.799-0.033,1.648,0.216,2.547,0.749c0.799,0.5,1.082-0.167,0.849-1.997
	c-0.266-1.831-0.832-3.179-1.697-4.045c-1.265-0.599-1.914-1.065-1.947-1.398c-0.066-0.799,0.665-1.531,2.197-2.197
	c0.698-0.3,1.331-0.3,1.897,0c0.698,0.366,1.248,1.115,1.647,2.247c0.399,1.032,0.499,1.864,0.3,2.497
	c-0.2,0.599,0.499,1.082,2.097,1.448l3.945,0.15c1.797-0.433,3.096-1.132,3.895-2.097c0.699-0.833,0.849-1.515,0.449-2.047
	c-0.666-0.865-0.966-1.881-0.898-3.046c0.1-1.398,0.782-2.363,2.047-2.896c0.732-0.333,0.316-1.814-1.248-4.444
	c-1.564-2.63-2.83-3.778-3.795-3.445l-3.046,0.549c-1.065-0.033-1.715-0.266-1.947-0.699c-0.267-0.533-0.184-1.215,0.249-2.047
	c0.366-0.799,0.949-1.548,1.748-2.247c0.666-0.632,1.398-0.865,2.197-0.699c0.865,0.133,1.931,0.749,3.195,1.847
	c0.832,0.699,2.313-0.433,4.444-3.396c2.097-2.929,2.396-4.377,0.898-4.344c-1.765,0.066-3.029-0.316-3.795-1.148
	c-0.433-0.5-0.683-1.132-0.749-1.897c-0.1-0.833,0.05-1.432,0.449-1.798c0.5-0.399,1.665-0.516,3.495-0.35
	c1.897,0.2,3.196,0.666,3.896,1.398c0.799,0.832,1.448-0.749,1.947-4.744c0.466-3.895,0.083-5.709-1.148-5.443l-6.642,0.25
	c-1.598-0.366-2.313-0.916-2.146-1.648c0.166-0.533,0.749-1.065,1.747-1.598c1.065-0.533,2.147-0.816,3.246-0.849
	c1.697-0.066,1.498-1.98-0.6-5.742c-2.13-3.828-3.562-5.126-4.294-3.895c-1.099,1.897-2.23,3.262-3.396,4.094
	c-1.819,1.336-3.528,1.203-5.129-0.375c0.262-0.365,0.538-0.781,0.835-1.273c1.364-2.197,1.515-3.362,0.449-3.496
	c-1.099-0.133-1.997-0.749-2.696-1.848c-0.699-1.032-0.898-1.997-0.6-2.896c0.233-0.766,1.864-1.115,4.894-1.048
	c0.666,0.033,0.933-0.516,0.799-1.648c-0.133-1.065-0.532-2.213-1.198-3.445c-1.73-3.329-3.195-4.044-4.394-2.147
	c-0.866,1.365-1.965,2.264-3.296,2.696s-2.446,0.233-3.346-0.599c-0.932-0.833-0.149-2.28,2.347-4.344
	c0.566-0.466,0.799-0.916,0.699-1.348c-0.1-0.366-0.466-0.799-1.098-1.298c-1.133-0.865-1.648-1.698-1.549-2.497
	c0.066-0.566,1.032-1.132,2.896-1.698c1.631-0.499,3.046-0.782,4.244-0.849c0.999-0.066,0.982-1.515-0.05-4.344
	s-1.914-3.745-2.646-2.746c-0.732,1.032-1.614,1.897-2.646,2.596c-1.065,0.699-2.015,1.065-2.847,1.099
	c-0.332,0-0.748-0.233-1.248-0.699l-0.6-0.849c0.268-0.766,1.914-1.648,4.943-2.646c0.866-0.3,0.184-1.365-2.047-3.196
	c-2.264-1.831-3.578-2.513-3.944-2.047c-1.298,1.565-2.479,2.347-3.546,2.347c-0.398,0-0.981-0.516-1.747-1.548
	c-0.732-0.999-1.065-1.698-0.999-2.097c0.267-1.132,0.899-2.164,1.898-3.096c0.465-0.4,1.381-1.049,2.746-1.948
	c0.832-0.566,0.166-1.831-1.998-3.795c-2.164-1.964-3.346-2.396-3.545-1.298c-0.166,1.032-0.533,1.98-1.099,2.846
	c-0.499,0.799-1.065,1.331-1.697,1.598l-1.748-0.2c-0.599-0.333-0.898-0.616-0.898-0.849c-0.067-1.065,0.683-2.463,2.247-4.194
	c0.399-0.433,0-1.132-1.199-2.097c-1.164-0.898-2.014-1.348-2.546-1.348c-0.565,0.033-1.881,0.649-3.944,1.848
	c-2.197,1.231-3.163,2.047-2.896,2.447c0.3,0.433,0.499,1.099,0.6,1.997c0.1,0.932,0.033,1.615-0.2,2.047
	c-0.433,0.832-1.747,1.448-3.944,1.848c-0.4,0.033-0.616-0.516-0.649-1.648c-0.033-1.065,0.066-1.897,0.3-2.497
	c0.266-0.832-0.832-1.032-3.296-0.599c-2.43,0.399-3.712,1.132-3.845,2.197c-0.799,7.024-4.361,13.166-10.686,18.425
	c-0.279,0.232-0.565,0.448-0.849,0.672c-3.331-6.756-8.692-12.199-16.128-16.301c-7.957-4.361-16.811-6.341-26.564-5.942
	c-10.119,0.433-18.908,2.729-26.364,6.891c-5.863,3.237-10.025,7.041-12.526,11.399c-0.256-0.252-0.514-0.503-0.756-0.763
	c-1.998-2.097-3.529-4.927-4.594-8.489c-0.898-3.029-1.249-5.526-1.049-7.49c0.166-1.465-0.815-2.63-2.946-3.495
	c-2.097-0.866-3.262-0.949-3.495-0.25l-0.4,2.297c-0.2,0.999-0.516,1.631-0.949,1.897l-1.697-0.2
	c-1.432-0.766-2.197-2.047-2.297-3.845c-0.066-1.132,0.117-2.28,0.549-3.445c0.4-1.065-0.666-1.531-3.195-1.398
	c-2.563,0.1-3.862,0.449-3.895,1.048c-0.333,3.362-0.682,5.143-1.048,5.343l-0.3-0.05c-1.431-0.799-2.18-1.931-2.247-3.396
	l-3.695,0.15c-2.43,0.566-3.762,1.082-3.995,1.548c-0.266,0.466-0.25,1.615,0.05,3.445c0.3,1.864,0.666,2.846,1.099,2.946
	c2.863,0.632,4.46,1.365,4.793,2.197c0.167,0.466-0.017,1.015-0.549,1.648c-1.298,1.631-2.83,2.213-4.594,1.748
	c-0.766-0.167-1.498-0.716-2.197-1.648c-0.599-0.832-0.932-1.564-0.999-2.197c-0.133-1.132-1.298-1.065-3.495,0.2
	c-2.23,1.298-3.063,2.28-2.497,2.946l1.398,1.448c0.433,0.466,0.649,0.949,0.649,1.448c0,0.6-0.216,1.065-0.649,1.398
	c-1.132,0.865-2.147,1.115-3.046,0.749c-0.532-0.233-1.048-0.849-1.548-1.848c-0.466-0.999-0.649-1.797-0.549-2.396
	c0.1-0.766-1.515-0.483-4.843,0.849c-3.329,1.298-5.16,2.38-5.493,3.246c-0.266,0.732,0.083,2.147,1.049,4.244
	c0.932,2.097,1.631,3.013,2.097,2.747c2.396-1.365,4.011-1.681,4.843-0.949c0.666,0.632,0.632,1.531-0.1,2.696
	c-0.766,1.265-1.948,1.914-3.545,1.947c-0.899,0-0.916,1.099-0.05,3.295c0.865,2.197,1.681,3.163,2.447,2.896
	c2.063-0.666,3.794-0.898,5.193-0.699c1.231,0.167,1.897,0.599,1.997,1.298c0.1,0.666-0.183,1.464-0.849,2.396
	c-0.599,0.833-1.332,1.531-2.197,2.097l-2.696-0.1c-1.198-0.433-2.014-0.433-2.447,0c-0.532,0.499-1.348,0.766-2.446,0.799
	l-2.896,0.1c-0.865,0.133-0.965,1.465-0.299,3.995c0.666,2.53,1.215,3.712,1.647,3.545l1.648-0.749l1.76-0.262
	c-0.337,0.837-0.929,1.625-1.81,2.359c-1.065,0.866-2.197,1.365-3.396,1.498c-0.899,0.1-1.964-0.366-3.196-1.398
	c-1.032-0.799-1.681-1.481-1.947-2.047c-0.366-0.833-1.498-0.433-3.396,1.198c-1.964,1.698-2.746,2.646-2.347,2.846
	c1.099,0.599,1.881,1.548,2.347,2.846c0.5,1.265,0.466,2.313-0.1,3.146c-0.899,1.298-1.964,1.914-3.196,1.848
	c-0.466-0.033-1.249-0.449-2.347-1.249l-1.498-1.248c-1.998,0.499-3.595,2.347-4.793,5.542c-0.233,0.599-0.316,1.032-0.25,1.298
	l0.749,0.898c1.132,0.866,1.964,1.648,2.497,2.347c0.799,1.065,1.132,2.164,0.999,3.295c-0.034,0.399,0.932,0.749,2.896,1.049
	l3.845,0.449l0.35-0.05c0.2-0.167,0.15-0.549-0.15-1.148c-0.433-0.866-0.583-1.731-0.449-2.597c0.2-0.999,0.815-1.231,1.847-0.699
	c1.564,0.799,2.297,2.081,2.197,3.845c-0.067,0.966-0.666,2.031-1.798,3.196c-1.098,1.132-2.13,1.781-3.096,1.948
	c-0.433,0.066-0.666,0.166-0.699,0.299c-0.033,0.1,0.05,0.333,0.25,0.699l2.646,4.294c0.233,0.5,0.632,0.633,1.198,0.399l1.248-0.05
	c0.5,0.066,0.799,0.183,0.899,0.35c0.167,0.233,0.067,0.666-0.299,1.298c-0.433,0.832-1.065,1.515-1.897,2.047
	c-0.799,0.5-1.598,0.716-2.397,0.649c-0.732-0.066-1.548-0.616-2.447-1.648c-0.799-0.899-1.265-1.647-1.398-2.247
	c-0.167-1.198-0.599-1.531-1.298-0.999c-0.466,0.333-1.282,1.265-2.447,2.796c-1.265,1.631-1.931,2.746-1.997,3.345
	c-0.1,0.799,0.383,2.73,1.448,5.792c1.065,3.196,1.848,4.527,2.347,3.995c0.632-0.633,1.764-1.148,3.396-1.548
	c2.097-0.5,3.628-0.15,4.594,1.048c0.532,0.666,0.949,0.583,1.248-0.25c0.965-3.462,2.13-5.476,3.496-6.042
	c0.799-0.333,1.664-0.233,2.596,0.3c1.298,0.699,1.814,1.797,1.548,3.295c-0.133,0.932-0.549,1.814-1.248,2.646
	c-0.866,0.999-1.731,1.182-2.597,0.549c-0.832-0.633-1.731,0-2.696,1.897c-0.866,1.664-1.282,2.879-1.249,3.645l1.448,1.897
	l1.398,1.498c0.5,0.466,0.949,0.416,1.348-0.15c0.3-0.433,0.799-0.815,1.498-1.148c0.699-0.333,1.215-0.433,1.548-0.3
	c0.333,0.1,0.583,0.616,0.749,1.548c0.2,1.998-0.083,3.729-0.849,5.193c-0.699,1.265-1.548,1.98-2.547,2.147
	c-0.932,0.167-0.083,1.231,2.547,3.196c2.596,1.964,3.961,2.48,4.094,1.548c0.2-1.132,0.516-2.264,0.949-3.396
	c0.5-1.298,0.949-2.031,1.348-2.197l0.25,0.05c1.198,0.732,2.447,1.897,3.745,3.495c0.267,0.299,0.549,0.399,0.849,0.299
	c0.366-0.1,0.499-0.399,0.399-0.898c-0.167-0.932-0.25-2.047-0.25-3.346c0-1.764,0.25-2.879,0.749-3.345
	c0.366-0.366,0.882-0.466,1.548-0.3c2.43,0.566,3.728,1.015,3.895,1.348s0,1.132-0.5,2.397l0.15,0.749
	c0.77,0.879,1.578,1.676,2.418,2.404c-1.882,2.541-3.191,5.63-3.919,9.275c-2.003,1.136-4.099,2.885-6.289,5.249
	c-1.365,1.464-4.044,4.727-8.039,9.787c-1.564,1.964-9.237,8.472-23.019,19.523c-6.093,4.884-11.469,9.133-16.146,12.765
	c-3.785-2.021-8.746-2.808-14.911-2.329c-7.867,0.562-14.73,3.147-20.595,7.746c-2,0.37-4.112,1.104-6.335,2.2
	c-2.626-0.107-5.509,0.16-8.671,0.839c-7.124,1.531-13.166,4.111-18.125,7.739c-4.927,3.563-7.973,7.574-9.138,12.034
	c-0.366,1.397-0.066,2.497,0.899,3.296c1.298,1.064,4.028,2.03,8.189,2.896c13.039,2.724,21.78,6.177,26.249,10.354
	c-2.534,7.579-3.433,16.042-2.681,25.397c0.799,9.687,4.228,18.774,10.286,27.263c1.402,1.974,2.881,3.82,4.431,5.548
	c-4.75,2.197-9.095,5.694-13.02,10.53c-3.913,4.789-5.56,8.642-4.952,11.563c-8.254,4.346-11.788,8.082-10.577,11.206
	c-3.396,1.531-5.359,2.63-5.892,3.296c-1.831,2.163,0.05,4.527,5.642,7.091c7.324,3.328,19.59,5.941,36.8,7.839
	c19.274,2.097,35.735,1.981,49.383-0.35c6.325-1.099,10.736-2.612,13.232-4.544c1.498-1.198,3.845-4.277,7.041-9.237
	c0.869-1.335,1.728-2.655,2.583-3.969c4.104,2.017,10.095,3.74,17.988,5.167c10.652,1.897,21.904,2.646,33.754,2.247
	c30.988-1.047,56.817-9.462,77.513-25.209c7.382,8.352,16.93,15.266,28.693,20.716c6.292,2.896,14.414,2.629,24.368-0.8
	c9.486-3.263,16.594-7.823,21.32-13.681c0.966-1.199,1.432-2.314,1.398-3.346C333.142,295.7,332.626,294.618,331.627,293.453z
	 M268.313,112.348c-0.276-2.593-0.691-4.826-1.232-6.727l0.384-0.264l1.947-0.1c0.766,0.366,1.248,1.099,1.448,2.197
	c0.299,1.864,0.066,3.179-0.699,3.945l-1.398,1.098c-0.135,0.052-0.279,0.066-0.43,0.063
	C268.324,112.488,268.32,112.421,268.313,112.348z"/>
</svg>
