<?xml version="1.0" encoding="utf-8"?>
<!-- Generator: Adobe Illustrator 16.0.0, SVG Export Plug-In . SVG Version: 6.00 Build 0)  -->
<!DOCTYPE svg PUBLIC "-//W3C//DTD SVG 1.1//EN" "http://www.w3.org/Graphics/SVG/1.1/DTD/svg11.dtd">
<svg version="1.1" id="图层_1" xmlns="http://www.w3.org/2000/svg" xmlns:xlink="http://www.w3.org/1999/xlink" x="0px" y="0px"
	 width="155px" height="165px" viewBox="0 0 155 165" enable-background="new 0 0 155 165" xml:space="preserve">
<path d="M154.315,73.083c-0.034-0.769-0.268-1.486-0.702-2.154l-1.252-1.302c-1.736-1.669-5.059-4.141-9.968-7.414
	c-0.701-2.771-1.72-5.794-3.056-9.066c-2.371-5.811-5.076-10.486-8.115-14.025l1.754-5.911l1.202-4.909l0.05-1.302l-0.701-1.052
	c-1.637-1.937-3.74-4.074-6.312-6.412c-3.74-3.439-6.745-5.593-9.017-6.461l-2.154-0.301c-0.232,0.034-0.634,0.167-1.201,0.401
	l-9.617,5.059c-6.613-3.74-12.656-6.044-18.134-6.913c-0.901-2.504-1.87-4.792-2.905-6.862c-1.168-2.337-2.037-3.573-2.604-3.707
	L69.21,0.05c-4.742,0.268-8.616,0.885-11.621,1.854c-1.002,0.301-1.92,1.302-2.755,3.005c-0.368,0.735-1.085,2.488-2.154,5.26
	l-1.553,4.158c-2.805,0.968-6.094,2.604-9.868,4.909c-3.506,2.104-5.978,3.874-7.414,5.31l-7.213-1.453l-4.858-0.3
	c-1.737,0.968-4.007,4.174-6.813,9.617c-2.638,5.176-3.874,8.315-3.707,9.417c0.234,1.269,3.022,4.625,8.365,10.068
	c-0.968,5.376-1.486,9.184-1.553,11.421l-3.707,2.705c-2.404,1.803-3.824,2.955-4.258,3.456c-0.968,1.135-0.417,4.942,1.653,11.421
	c2.071,6.412,3.724,9.818,4.959,10.218l10.72,1.754l0.254,0.596c-0.487,1.232-0.733,2.548-0.742,3.944l-2.267,0.218
	c-1.737,0.468-3.189,1.17-4.358,2.104c-3.016,2.508-4.537,5.585-4.572,9.229l-0.938,0.339c-1.636,0.734-2.838,1.637-3.606,2.705
	l-4.458,1.252c-2.972,0.936-4.875,1.637-5.71,2.104c-0.434,0.234-0.701,0.668-0.802,1.303c-0.3,1.971-0.15,4.207,0.451,6.712
	c0.104,0.452,0.212,0.865,0.322,1.261c1.594,6.506,4.433,12.187,8.544,17.022c5.143,6.011,11.838,10.151,20.087,12.423
	c4.041,3.807,8.666,6.479,13.875,8.015c6.178,1.837,12.239,1.669,18.183-0.501l7.013,0.752l2.004,1.452
	c1.235,0.734,2.371,1.151,3.406,1.252l8.064-0.251c2.906-0.533,4.893-1.535,5.961-3.005l4.609-0.802l2.122-0.699
	c0.243-0.054,0.532-0.147,0.872-0.287l1.264-0.416c2.137,0.902,5.191,1.086,9.166,0.551c5.31-0.734,10.285-2.771,14.928-6.111
	c4.674-3.372,8.281-6.611,10.818-9.717c2.539-3.072,4.492-6.612,5.861-10.619c0.149-0.43,0.172-0.686,0.092-0.802
	c-0.001-0.051,0.012-0.099,0.008-0.15c-0.199-1.536-1.703-3.69-4.508-6.462c0.602-0.834,0.902-1.686,0.902-2.555l-0.251-1.453
	c-0.401-1.234-1.202-2.337-2.404-3.305c-0.886-0.714-1.845-1.243-2.875-1.594c2.362-1.99,4.625-4.588,6.782-7.824
	c1.391-2.113,2.553-4.192,3.498-6.24c2.855-1.308,5.617-3.037,8.273-5.23c2.371-2.004,3.84-3.59,4.408-4.759
	c0.141-0.269,0.222-0.481,0.275-0.669c0.688-1.278,1.266-3.369,1.729-6.293C154.315,82.483,154.516,78.059,154.315,73.083z"/>
</svg>
