<?xml version="1.0" encoding="utf-8"?>
<!-- Generator: Adobe Illustrator 16.0.0, SVG Export Plug-In . SVG Version: 6.00 Build 0)  -->
<!DOCTYPE svg PUBLIC "-//W3C//DTD SVG 1.1//EN" "http://www.w3.org/Graphics/SVG/1.1/DTD/svg11.dtd">
<svg version="1.1" id="图层_1" xmlns="http://www.w3.org/2000/svg" xmlns:xlink="http://www.w3.org/1999/xlink" x="0px" y="0px"
	 width="278px" height="273px" viewBox="0 0 278 273" enable-background="new 0 0 278 273" xml:space="preserve">
<path d="M275.799,246.414c-0.595-4.67-1.697-8.978-3.302-12.931c0.266-0.922,0.533-1.906,0.804-2.96l0.3-1
	c0.566-2.099-0.399-4.58-2.898-7.445c-1.916-2.152-4.424-4.227-7.515-6.223c-0.551-1.051-1.156-2.107-1.83-3.172l-1.199-1.5
	c-0.533-0.333-1.05-0.116-1.549,0.65c-0.175,0.255-0.366,0.58-0.567,0.945c-1.928-1.252-3.547-2.983-4.83-5.244
	c-0.895-1.507-1.568-3.114-2.032-4.817c1.202,2.023,2.118,3.456,2.731,4.269c0.866,1.1,1.499,1.633,1.899,1.6l1.249-1.3
	c1.877-2.718,3.548-8.634,5.016-17.728c2.951-3.605,3.713-7.457,2.28-11.557c-3.697-10.761-10.744-19.373-21.139-25.836
	c-8.403-5.232-17.525-8.158-27.362-8.779c1.479-3.934,5.563-9.25,12.271-15.957c3.199-3.198,9.828-9.245,19.89-18.14l2.898-2.599
	c1.799-1.566,2.265-3.382,1.399-5.447c-1.933-4.564-8.695-8.645-20.289-12.243c-12.561-3.865-25.253-5.147-38.079-3.848
	c-10.827,1.066-21.205,4.614-31.133,10.644c-7.862,4.73-13.81,9.811-17.841,15.242c-1.766,2.432-2.531,4.231-2.299,5.397
	c0.6,2.732,5.781,8.612,15.542,17.64c9.002,8.363,16.497,14.104,22.487,17.229c-0.674,0.406-1.343,0.824-1.998,1.262
	c-6.032,4.054-10.819,9.007-14.372,14.854c0.267-5.16-0.48-10.758-2.269-16.803c-2-6.63-4.615-11.711-7.846-15.242
	c-3.166-3.398-6.214-5.097-9.146-5.097c-1.933,0-3.965,0.517-6.097,1.549c-0.197,0.097-0.38,0.21-0.572,0.313
	c0.788-4.827,2.024-10.158,3.721-16.004c2.332-7.929,3.498-15.092,3.498-21.488c0-5.897-0.9-11.76-2.699-17.59
	c-2.188-6.982-5.568-13.462-10.118-19.449c-0.445-2.902-1.169-4.953-2.175-6.137c-1.164-1.361-2.401-1.564-3.709-0.624l-2.009-1.817
	c-0.146-2.781-0.715-5.533-1.727-8.253c-1.499-3.964-3.315-6.346-5.447-7.146c-2.132-0.766-4.064-0.533-5.797,0.7
	c-1.399,0.966-2.849,2.749-4.348,5.347c-0.3-2.832-1.116-5.364-2.449-7.596c-1.799-3.065-4.314-5.014-7.546-5.847
	c-2.565-0.633-5.13-0.333-7.696,0.899c-2.432,1.2-4.547,3.048-6.347,5.547c-0.966-2.132-2.532-3.981-4.697-5.547
	c-2.265-1.565-4.547-2.365-6.846-2.398c-4.564-0.1-8.129,1.482-10.694,4.748c-1.63,2.023-2.492,3.842-2.605,5.462
	c-0.321,0.031-0.645,0.066-0.967,0.1c-0.722-2.921-2.255-5.479-4.624-7.662c-2.532-2.365-5.847-4.147-9.944-5.347
	c4.064-4.064,7.212-8.378,9.445-12.943c1.199-2.499,2.065-4.931,2.599-7.296c0.2-0.966,0.066-1.532-0.4-1.699
	c-0.4-0.167-1.166-0.05-2.299,0.35c-4.031,1.532-7.762,3.831-11.194,6.896c-4.264,3.832-7.612,8.479-10.044,13.942
	c-2.965,1.666-5.314,3.315-7.046,4.947c-2.865,2.665-5.664,6.413-8.395,11.244c-1.599,2.765-4.647,4.831-9.145,6.196
	c-5.131,1.632-7.313,2.898-6.546,3.798c0.566,0.667,2.698,1.083,6.396,1.25l7.846,0.5c2.332,0.4,4.431,1.216,6.296,2.449
	l3.948,2.849l3.198,2.199c1.133,0.7,2.432,1.349,3.898,1.949c1.366,4.598,4.165,8.795,8.396,12.593
	c3.731,3.332,7.679,5.63,11.843,6.896l3.448,0.35c0.6-0.267,0.866-1.066,0.799-2.399c-0.133-3.498-1.116-6.813-2.948-9.944
	c-2.099-3.565-5.064-6.413-8.895-8.545c3.365-0.633,6.363-2.449,8.995-5.447c2.588-3.047,4.155-6.514,4.714-10.398
	c8.399,0.866,16.162,2.56,23.27,5.101c11.094,3.931,18.74,9.428,22.938,16.491c4.598,7.696,6.78,16.69,6.546,26.985
	c-0.167,8.362-1.766,16.191-4.797,23.487c-6.03,14.725-9.461,27.568-10.294,38.529c-0.833,10.894,0.816,20.889,4.947,29.983
	c4.398,9.628,10.078,17.374,17.041,23.237c6.729,5.696,14.975,9.845,24.736,12.443c5.73,1.532,9.928,3.248,12.593,5.147
	c0.823,0.559,1.77,1.542,2.827,2.904c-0.353,0.86-0.682,1.753-0.979,2.692c-2.465,7.695-2.299,16.208,0.5,25.536
	c1.699,5.63,4.864,10.193,9.495,13.691c4.198,3.199,8.495,4.814,12.894,4.848c3.83,0,7.445-1.549,10.844-4.646
	c2.966-2.748,5.088-6.001,6.386-9.743c4.37-0.386,10.029-1.845,17.001-4.399c9.461-3.465,15.291-5.447,17.49-5.947
	c3.432-0.766,7.33-1.282,11.693-1.549l10.595-0.3h0.047c9.388,10.227,15.938,14.149,19.642,11.743
	C275.832,256.509,276.599,252.645,275.799,246.414z"/>
</svg>
