<?xml version="1.0" encoding="utf-8"?>
<!-- Generator: Adobe Illustrator 16.0.0, SVG Export Plug-In . SVG Version: 6.00 Build 0)  -->
<!DOCTYPE svg PUBLIC "-//W3C//DTD SVG 1.1//EN" "http://www.w3.org/Graphics/SVG/1.1/DTD/svg11.dtd">
<svg version="1.1" id="图层_1" xmlns="http://www.w3.org/2000/svg" xmlns:xlink="http://www.w3.org/1999/xlink" x="0px" y="0px"
	 width="330px" height="270px" viewBox="0 0 330 270" enable-background="new 0 0 330 270" xml:space="preserve">
<path d="M327.998,159.656c-2.203-4.438-3.972-8.26-5.307-11.464c-2.103-5.206-3.237-8.46-3.404-9.762
	c-0.134-1.168,1.401-6.642,4.605-16.42c3.371-10.146,5.09-15.585,5.156-16.32c0.101-1.168-0.601-2.419-2.103-3.754l-4.605-3.604
	l-3.905-3.254c-1.468-1.335-2.619-2.637-3.454-3.905c-7.042-11.28-11.78-17.955-14.217-20.024c-1.202-1.068-2.119-1.668-2.753-1.802
	c-1.068-0.233-2.438,0.217-4.105,1.352c-18.256,12.115-29.419,17.771-33.49,16.97c-5.641-1.068-11.765-2.77-18.373-5.106
	c-4.025-1.445-9.485-3.591-16.341-6.422c13.731-5.128,24.024-10.313,30.858-15.554c5.006-3.838,9.979-9.545,14.918-17.121
	c4.506-6.909,7.894-13.316,10.163-19.224c2.603-6.808,3.403-12.131,2.403-15.969c-0.568-2.069-1.736-3.921-3.505-5.557
	c-2.37-2.169-5.123-3.054-8.26-2.653c-9.345,1.202-25.298,11.013-47.858,29.436c-8.109,6.642-16.002,13.517-23.679,20.625
	c-5.545,5.136-9.441,8.952-11.745,11.494l-11.533-3.284c-6.154-1.561-11.756-2.643-16.81-3.253c-0.022-0.101-0.027-0.2-0.06-0.301
	c-0.5-1.402-2.42-2.52-5.757-3.354c-2.837-0.734-6.425-1.218-10.763-1.452l2.403-40.449c0.233-3.638-0.317-5.824-1.652-6.558
	l-2.804,0.1c-5.173,1.235-12.415,4.939-21.726,11.114c-11.414,7.542-20.759,15.836-28.034,24.88c-2.57,3.17-4.656,6.158-6.257,8.961
	c-1.602,2.803-3.304,6.391-5.106,10.763c-9.211,2.503-17.738,6.057-25.581,10.663c-7.108,4.171-12.465,8.46-16.069,12.865
	c-6.007,7.409-13.016,19.273-21.025,35.593c-9.478,19.19-14.084,33.208-13.817,42.051c0.167,4.672,0.918,10.68,2.253,18.021
	c-1.702,1.602-3.004,3.021-3.905,4.256C0.918,184.67,0,187.006,0,189.242c0,1.234,0.651,3.137,1.952,5.707
	c1.469,2.803,3.271,5.49,5.407,8.06c5.774,6.875,11.748,10.196,17.922,9.962l14.067,0.852l9.211,1.401
	c1.134,0.167,3.271,0.968,6.408,2.403l8.911,4.004c3.471,1.402,6.742,2.187,9.812,2.354c0.535,0.029,1.084,0.036,1.64,0.031
	c-0.107,1.189-0.318,2.771-0.639,4.774c-0.5,5.808-0.117,10.212,1.151,13.216c2.136,5.106,7.025,9.162,14.668,12.165
	c5.106,2.003,9.645,3.153,13.616,3.454c4.272,0.334,7.542-0.316,9.812-1.952c2.036-1.435,3.371-3.688,4.005-6.759
	c0.4-1.835,0.534-3.82,0.4-5.957c-0.2-3.771-0.884-7.893-2.052-12.365c-0.788-2.952-1.658-5.602-2.609-7.955
	c0.258-0.348,0.517-0.698,0.779-1.064c0.56,0,1.14,0.005,1.753,0.018c3.569,11.895,7.016,21.159,10.339,27.775
	c4.139,8.311,8.627,13.717,13.466,16.22c4.039,2.103,9.612,3.003,16.721,2.703c6.041-0.267,11.646-1.251,16.82-2.954
	c5.34-1.835,8.076-3.838,8.21-6.007c0.11-2.832-2.721-8.184-8.477-16.043c0.226-5.643-3.128-12.324-10.051-20.04
	c1.77-0.012,3.014-0.081,3.709-0.211l3.605-0.641c15.212,21.133,26.561,32.097,34.04,32.88c4.873,0.501,11.181-0.501,18.924-3.004
	c8.109-2.603,12.898-5.423,14.367-8.46c0.467-0.935,0.601-2.02,0.4-3.254c-0.234-1.235-0.734-2.253-1.502-3.054
	c-3.17-3.338-10.88-9.411-23.128-18.222c-3.497-2.507-6.583-4.691-9.261-6.558c8.551-3.356,14.206-5.766,16.984-7.232
	c7.929,8.239,19.481,16.839,34.678,25.804c14.484,8.511,25.264,13.5,32.339,14.969l9.062,1.301c2.402,0.033,4.104-0.4,5.105-1.301
	c1.702-1.568,2.069-5.49,1.102-11.765c-1.469-9.545-2.971-15.819-4.506-18.823c-2.402-4.705-6.857-7.977-13.365-9.812
	c-6.475-1.769-12.732-3.704-18.773-5.808c-8.526-2.971-14.654-5.649-18.394-8.039l2.274-0.971c1.769-0.835,3.054-1.402,3.854-1.703
	c5.54-2.135,13.8-1.15,24.78,2.954c2.637,0.968,9.127,3.938,19.473,8.911c2.838,1.334,4.823,0.066,5.958-3.805
	c0.667-4.406,1.102-6.842,1.302-7.309c1.034-2.471,3.805-6.175,8.31-11.113c4.306-4.74,8.861-9.162,13.667-13.267
	C329.416,164.713,329.332,162.693,327.998,159.656z"/>
</svg>
