<?xml version="1.0" encoding="utf-8"?>
<!-- Generator: Adobe Illustrator 16.0.0, SVG Export Plug-In . SVG Version: 6.00 Build 0)  -->
<!DOCTYPE svg PUBLIC "-//W3C//DTD SVG 1.1//EN" "http://www.w3.org/Graphics/SVG/1.1/DTD/svg11.dtd">
<svg version="1.1" id="图层_1" xmlns="http://www.w3.org/2000/svg" xmlns:xlink="http://www.w3.org/1999/xlink" x="0px" y="0px"
	 width="228px" height="196px" viewBox="0 0 228 196" enable-background="new 0 0 228 196" xml:space="preserve">
<path d="M222.309,72.149c-2.828-4.857-6.67-8.583-11.526-11.178c-0.462-0.249-0.929-0.469-1.394-0.69
	c1.057-6.564-0.453-13.005-4.545-19.32c-4.592-7.02-10.779-10.995-18.564-11.926c-6.396-0.743-12.125-0.023-17.19,2.151
	c-3.614-1.702-7.548-2.308-11.801-1.802c-4.56,0.532-8.933,2.246-13.125,5.14c-4.258,2.927-7.769,6.703-10.528,11.327
	c-1.585,2.666-2.807,5.462-3.689,8.381c-3.415,1.846-6.247,4.968-8.486,9.384c-0.704,1.387-1.286,2.785-1.773,4.191
	c-3.478,2.366-6.136,5.521-7.957,9.482c-1.996,4.358-2.812,9.298-2.445,14.82c0.233,3.726,1.663,6.754,4.292,9.083
	c1.365,1.203,2.888,2.103,4.561,2.709c-5.659,1.066-9.917,1.352-12.745,0.834c-5.589-1.031-9.631-3.01-12.126-5.938
	c-0.798-0.932-1.248-2.196-1.347-3.793c-0.1-1.497,0.133-2.562,0.699-3.194l5.838-7.236c2.256-3.307,3.959-6.643,5.125-10.007
	c0.452-0.137,1.062-0.417,1.862-0.872c4.591-2.628,10.047-7.369,16.368-14.222c6.121-6.654,10.229-12.16,12.326-16.518
	c0.598-1.198,0.78-2.063,0.549-2.595c-0.166-0.466-0.781-0.932-1.848-1.397c-7.053-3.26-15.568-4.741-25.549-4.441
	c-2.831,0.08-5.492,0.347-8.003,0.778c1.353-2.262,2.146-4.683,2.364-7.266c0.499-5.789-0.848-10.629-4.042-14.521
	c-2.728-3.327-6.038-5.223-9.93-5.688c-0.461-0.054-0.914-0.088-1.361-0.11c-1.568-2.3-3.575-4.161-6.074-5.529
	c-3.626-1.963-7.501-2.412-11.627-1.347c-2.846,0.711-5.218,1.853-7.13,3.411c-1.843-0.296-4.004-0.025-6.493,0.831
	c-4.025,1.397-6.82,3.976-8.383,7.735c-1.331,3.161-1.547,6.337-0.649,9.531c0.455,1.642,1.123,3.118,1.999,4.434
	c-5.105-3.231-10.807-5.432-17.119-6.579c-5.888-1.065-9.232-1.082-10.03-0.05c-1.43,1.83-1.347,6.005,0.25,12.525
	c1.837,7.541,5.296,14.483,10.348,20.837c-0.773,2.388-1.166,5.086-1.166,8.105c-5.722,1.297-8.583,4.225-8.583,8.783
	c0,4.757,2.794,10.629,8.383,17.615c5.156,6.487,9.731,10.563,13.723,12.227c2.783,1.182,5.582,1.983,8.396,2.423
	c-0.086,3.523-2.04,7.454-5.901,11.798c-3.892,4.358-7.519,6.986-10.878,7.886l-8.783,0.998l-11.627,0.698
	c-6.62,0.599-11.062,2.229-13.324,4.892c-1.712,2.024-2.092,4.567-1.162,7.621c-0.027,0.404-0.03,0.821,0.014,1.26
	c0.306,2.906,2.462,4.473,6.421,4.734c0.072,0.086,0.137,0.172,0.216,0.256c1.364,1.397,4.558,1.348,9.581-0.148
	c2.928-0.865,7.086-0.799,12.476,0.199l9.681,0.449l17.368-10.097c0.946,1.672,2.02,3.354,3.241,5.056
	c3.933,5.496,8.383,9.666,13.335,12.553c0.484,5.734,0.483,11.713-0.011,17.938c-0.565,7.42,0.183,12.775,2.246,16.068
	c1.199,1.928,2.999,3.304,5.376,4.15c0.815,0.777,1.874,1.334,3.207,1.639c2.904,0.638,5.359-0.194,7.375-2.463
	c1.555-0.088,2.889-0.944,4.002-2.577c1.364-2.063,1.896-4.159,1.597-6.288c-0.363-1.279-0.641-2.35-0.839-3.223l2.386-0.271
	l1.333-0.471c0.918,0.646,2.062,0.918,3.457,0.77c1.996-0.266,3.459-1.547,4.391-3.842c1.131-2.795,2.112-6.321,2.944-10.58
	c0.765-3.741,1.393-6.446,1.889-8.149c1.431-0.344,2.897-0.722,4.403-1.135c0.213,0.459,0.427,0.883,0.645,1.252
	c1.53,2.594,4.025,4.822,7.485,6.686c3.114,1.688,6.366,2.693,9.751,3.029c0.494,2.109,0.788,4.955,0.878,8.549
	c0.065,3.826-0.116,6.803-0.549,8.932c-0.832,0.799-1.53,1.73-2.097,2.795c-0.633,1.131-0.947,2.162-0.947,3.094
	c0,1.332,0.466,2.528,1.396,3.594c1.098,1.298,2.661,1.996,4.69,2.097c1.364,0.998,2.694,1.528,3.992,1.596
	c1.597,0.067,3.394-0.481,5.39-1.646c1.43,0.066,2.729-0.232,3.893-0.898c1.496-0.863,2.513-2.277,3.043-4.24
	c0.566-2.297,0.699-6.322,0.4-12.076l-0.4-13.125c-0.198-6.121-0.53-9.797-0.998-11.027c-0.53-1.432-1.695-2.545-3.491-3.344
	l-1.671-0.494c0.736-2.409,1.379-5.082,1.92-8.038c1.031-5.854,1.214-10.529,0.549-14.022c-0.109-0.576-0.277-1.173-0.473-1.776
	c8.695-2.9,17.853-1.212,27.471,5.069c0.75,2.178,2.102,4.162,4.091,5.938c3.728,3.326,8.435,4.924,14.122,4.791
	c5.355-0.134,9.848-2.763,13.475-7.886c3.525-4.989,4.973-10.396,4.342-16.219c-0.193-1.75-0.532-3.4-1.004-4.961
	c4.013-1.451,7.264-4.097,9.735-7.963c2.528-3.926,3.894-8.5,4.093-13.723C226.533,82.545,225.203,77.139,222.309,72.149z"/>
</svg>
