<?xml version="1.0" encoding="utf-8"?>
<!-- Generator: Adobe Illustrator 16.0.0, SVG Export Plug-In . SVG Version: 6.00 Build 0)  -->
<!DOCTYPE svg PUBLIC "-//W3C//DTD SVG 1.1//EN" "http://www.w3.org/Graphics/SVG/1.1/DTD/svg11.dtd">
<svg version="1.1" id="图层_1" xmlns="http://www.w3.org/2000/svg" xmlns:xlink="http://www.w3.org/1999/xlink" x="0px" y="0px"
	 width="111px" height="126px" viewBox="0 0 111 126" enable-background="new 0 0 111 126" xml:space="preserve">
<path d="M110.207,47.612c-0.334-1.132-1.183-2.115-2.549-2.948l-4.446-2.048c-2.165-0.966-3.863-1.832-5.096-2.598
	c-2.065-1.232-3.897-2.681-5.495-4.346L82.578,24.53c-4.396-4.796-8.359-8.676-11.891-11.641C60.396,4.296,49.472,0,37.914,0
	C27.456,0,18.596,3.997,11.335,11.99C3.974,20.084,0.294,30.06,0.294,41.917c0,5.096,1.049,10.059,3.147,14.888
	c2.165,4.93,5.313,9.409,9.442,13.439c-2.065,3.164-3.697,6.495-4.896,9.992c-1.399,3.963-2.099,7.811-2.099,11.541
	c0,10.158,3.831,18.352,11.491,24.58c7.127,5.796,15.937,8.693,26.429,8.693c11.225,0,20.85-3.98,28.877-11.94
	c8.427-8.394,15.638-21.683,21.633-39.868c1.266-3.863,3.131-7.461,5.595-10.792l5.796-6.794l3.597-4.247
	C110.24,50.01,110.539,48.745,110.207,47.612z"/>
</svg>
