<?xml version="1.0" encoding="utf-8"?>
<!-- Generator: Adobe Illustrator 16.0.0, SVG Export Plug-In . SVG Version: 6.00 Build 0)  -->
<!DOCTYPE svg PUBLIC "-//W3C//DTD SVG 1.1//EN" "http://www.w3.org/Graphics/SVG/1.1/DTD/svg11.dtd">
<svg version="1.1" id="图层_1" xmlns="http://www.w3.org/2000/svg" xmlns:xlink="http://www.w3.org/1999/xlink" x="0px" y="0px"
	 width="126px" height="193px" viewBox="0 0 126 193" enable-background="new 0 0 126 193" xml:space="preserve">
<path d="M122.6,176.2c-2.066-5.534-5.684-9.95-10.85-13.25c3.1-4.134,4.934-9.3,5.5-15.5c0.7-7.634-0.867-15.217-4.7-22.75
	c-2.466-4.8-5.783-8.434-9.95-10.9c-0.742-0.434-1.464-0.793-2.175-1.113c-1.983-1.952-4.3-3.735-6.975-5.337
	c-2.76-1.617-6.589-3.372-11.461-5.262c0.03-0.293,0.054-0.588,0.061-0.888c0.034-1.333-0.183-2.517-0.649-3.55
	c-0.367-0.8-1.2-1.634-2.5-2.5c-1.101-0.733-2.25-1.316-3.45-1.75c-1.129-0.431-2.161-0.917-3.107-1.454
	c1.711-0.485,3.322-1.105,4.808-1.896c3.856-2.026,6.076-4.462,6.7-7.297c5.489-3.798,8.128-9.396,7.899-16.803
	c-0.166-5.1-2.633-9.083-7.4-11.95c-1.017-0.602-2.107-1.13-3.262-1.596c3.346-3.259,5.357-6.942,6.012-11.054
	c0.5-3.167,0.217-6.7-0.85-10.6c-1.233-4.434-3.316-8.633-6.25-12.6c-4.277-5.694-10.027-8.497-17.242-8.424
	C59.368,5.691,55.833,2.954,52.15,1.55c-4.4-1.7-9.533-1.8-15.4-0.3c-6.3,1.6-10.817,5.1-13.55,10.5
	c-0.772,1.528-1.366,3.129-1.796,4.798c-1.504,0.172-2.927,0.514-4.254,1.052c-4.533,1.833-8.316,4.75-11.35,8.75
	c-3,4-4.883,8.566-5.65,13.7c-0.533,3.7,0.3,7.45,2.5,11.25c1.575,2.735,3.975,5.645,7.176,8.724C9.705,61.043,9.657,62.1,9.7,63.2
	c0.133,3.333,1.066,6.183,2.8,8.55c0.854,1.179,1.762,2.038,2.722,2.586c1.373,1.753,3.079,3.376,5.128,4.864
	c7.6,5.533,11.933,10.933,13,16.2c0.473,2.365,0.391,5.33-0.232,8.879c-3.155,1.458-6.608,3.707-10.368,6.771
	c-4.533,3.667-7.583,6.967-9.15,9.9c-0.733,1.366-0.833,2.55-0.3,3.55c0.5,0.9,1.333,1.416,2.5,1.55
	c3.825,0.49,7.747,0.078,11.763-1.228c-0.027,0.358-0.053,0.717-0.063,1.075c-1.192,1.042-2.281,2.14-3.25,3.303
	c-2.7,3.3-4.1,6.7-4.2,10.2v0.399c0,3.434,1.217,6.9,3.65,10.4c2.4,3.5,5.85,6.816,10.35,9.95c-3.267,1.566-6.3,3.967-9.1,7.199
	c-2.867,3.268-3.684,5.367-2.45,6.301c0.6,0.434,1.4,0.699,2.4,0.8l3.2-0.15c-1.4,3.101-1.617,5.134-0.65,6.101
	c0.5,0.533,1.917,0.732,4.25,0.6l5.8-0.9c5.867-1.434,11.583-3.649,17.15-6.649c5.667-3.101,8.667-5.684,9-7.75
	c0.066-0.4-0.051-1.101-0.351-2.101c-0.4-1.232-0.966-2.25-1.7-3.05c1.667-1.1,3.234-2.517,4.7-4.25
	c0.132-0.156,0.252-0.315,0.379-0.473c1.808,0.085,3.63,0.1,5.472,0.022c4.348-0.189,8.422-0.884,12.24-2.047
	c1.892,3.552,4.321,6.723,7.31,9.497c-3.067,3.034-3.116,7.034-0.15,12c1.767,2.967,4.45,5.95,8.05,8.95
	c3.967,3.367,7.7,5.5,11.2,6.4c2.4,0.633,3.95,0.3,4.65-1c0.533-1.033,0.583-2.934,0.149-5.7c3.967,2.8,6.4,3.649,7.301,2.55
	C124.533,184.5,124.434,181.066,122.6,176.2z"/>
</svg>
