<?xml version="1.0" encoding="utf-8"?>
<!-- Generator: Adobe Illustrator 16.0.0, SVG Export Plug-In . SVG Version: 6.00 Build 0)  -->
<!DOCTYPE svg PUBLIC "-//W3C//DTD SVG 1.1//EN" "http://www.w3.org/Graphics/SVG/1.1/DTD/svg11.dtd">
<svg version="1.1" id="图层_1" xmlns="http://www.w3.org/2000/svg" xmlns:xlink="http://www.w3.org/1999/xlink" x="0px" y="0px"
	 width="266px" height="288px" viewBox="0 0 266 288" enable-background="new 0 0 266 288" xml:space="preserve">
<path d="M257.357,78.934c-3.613-4.279-7.914-7.184-12.885-8.747c-5.356-7.703-11.285-14.314-17.787-19.826
	c-6.193-5.229-11.522-8.359-15.984-9.391c-5.662-7.993-14.354-14.42-26.076-19.282c-9.434-3.877-20.142-6.479-32.095-7.838
	c-6.092-6.292-13.201-10.507-21.355-12.593c-8.925-2.298-17.434-1.065-25.526,3.696c-6.558,3.846-10.938,8.539-13.198,14.057
	c-8.536,2.61-15.899,5.879-22.068,9.821c-6.894,4.362-11.656,9.125-14.287,14.287C46.438,47.081,37.88,53.208,30.42,61.5
	c-7.031,7.808-12.758,17.19-17.204,28.119c-0.785,0.332-1.591,0.722-2.428,1.204c-3.93,2.265-6.844,5.245-8.742,8.941
	c-2.265,4.396-2.698,8.942-1.299,13.637c0.919,3.11,2.51,5.829,4.747,8.172c-0.775,9.117-0.583,17.62,0.598,25.497
	c1.166,7.726,3.047,13.72,5.645,17.982c0.625,6.741,1.859,13.236,3.689,19.488c-2.286,5.686-3.7,14.902-4.239,27.668
	c-0.599,13.953,0.333,23.794,2.797,29.521c1.099,2.631,2.498,4.246,4.196,4.846c6.094,2.164,11.056,3.23,14.886,3.197
	c6.36-0.066,11.006-2.781,13.937-8.143c0.7-1.266,1.798-2.881,3.297-4.846l0.391-0.485c6.696,5.415,13.967,9.979,21.822,13.678
	c-0.004,4.986,0.894,10.326,2.714,16.03c2.031,6.461,4.462,10.74,7.293,12.838c2.964,2.165,8.209,3.78,15.735,4.846
	c7.792,1.133,13.438,0.933,16.934-0.6c1.132-0.466,1.815-1.349,2.048-2.647l0.1-4.695c0.1-2.698,1.166-7.21,3.197-13.538
	l0.056-0.163c13.522,1.878,26.181,2.244,37.958,1.063c11.717-1.182,21.824-3.793,30.34-7.822c1.161,1.22,2.648,2.592,4.478,4.125
	l6.993,5.445c3.163,2.264,7.942,3.763,14.337,4.496c6.26,0.732,10.689,0.398,13.287-1c1.599-0.865,2.398-2.747,2.398-5.645
	c-0.033-2.197-0.5-4.695-1.399-7.492c-0.532-1.566,0.101-5.629,1.898-12.189c1.132-4.063,1.782-7.559,1.948-10.49
	c0.169-2.608,0.012-5.081-0.467-7.42c8.766-7.857,15.402-18.766,19.898-32.742c4.496-14.053,5.111-25.692,1.848-34.917
	c4.729-10.157,7.094-20.88,7.094-32.17c0-3.437-0.167-6.963-0.482-10.569c1.91-4.55,3.004-9.535,3.279-14.957
	C264.434,91.605,262.219,84.662,257.357,78.934z"/>
</svg>
