<?xml version="1.0" encoding="utf-8"?>
<!-- Generator: Adobe Illustrator 16.0.0, SVG Export Plug-In . SVG Version: 6.00 Build 0)  -->
<!DOCTYPE svg PUBLIC "-//W3C//DTD SVG 1.1//EN" "http://www.w3.org/Graphics/SVG/1.1/DTD/svg11.dtd">
<svg version="1.1" id="图层_1" xmlns="http://www.w3.org/2000/svg" xmlns:xlink="http://www.w3.org/1999/xlink" x="0px" y="0px"
	 width="162px" height="196px" viewBox="0 0 162 196" enable-background="new 0 0 162 196" xml:space="preserve">
<path d="M157.26,140.913c0.136-1.178,0.253-2.376,0.346-3.599c0.333-4.598-1.383-10.414-5.148-17.445
	c-2.133-3.998-5.416-9.08-9.848-15.246l-2.149-3.049c-1.767-2.633-3.749-4.599-5.948-5.898c-1.619-0.908-3.896-1.744-6.819-2.507
	c-5.054-6.071-10.049-12.262-14.976-18.588c-6.998-8.964-11.713-15.529-14.146-19.695c-2.365-3.999-4.732-9.147-7.098-15.446
	c-1.9-5.065-3.133-8.931-3.699-11.597c-0.2-1-0.7-2.1-1.5-3.299c-0.866-1.267-1.832-2.283-2.898-3.049l-3.05-1.2
	c-2.266-0.867-4.266-1.716-5.999-2.549c-3.299-1.6-8.798-4.766-16.496-9.498C50.633,3.749,46.784,1.366,46.284,1.1l-2.099-1
	l-2.549,0.15c-18.129,3.599-27.86,6.315-29.193,8.148c-0.733,1.033-1.433,2.849-2.099,5.449c-0.667,2.532-0.85,4.016-0.55,4.449
	l6.648,5.849c3.296,2.836,5.433,4.948,6.451,6.361c-0.829,0.321-1.625,0.647-2.352,0.987c-1.8,0.833-4.866,3.766-9.198,8.797
	c-3.999,4.699-6.365,7.848-7.098,9.448c-0.6,1.433-1.383,4.532-2.35,9.298c-1.1,5.565-1.649,10.081-1.649,13.546l0.05,2.199l0.3,1.7
	c0.833,2.833,2.382,6.365,4.648,10.597c2.167,4.099,3.849,6.749,5.049,7.948c1.466,1.466,4.416,3.666,8.848,6.598
	c5.232,3.466,9.081,5.448,11.547,5.948c5.365,1.066,10.63,1.416,15.796,1.05c0.813-0.061,1.636-0.145,2.465-0.242l-0.116,0.492
	c-1.366,4.665-2.099,7.981-2.199,9.948c-0.2,2.865,0.35,6.48,1.649,10.847c0.898,3.067,1.884,5.997,2.938,8.817
	c-1.306,4.789,0.291,11.36,4.81,19.725c3.266,5.999,6.548,10.781,9.848,14.348c3.632,3.932,9.081,7.314,16.346,10.146
	c0.381,0.148,0.766,0.281,1.149,0.421c2.727,2.222,5.813,4.175,9.298,5.827c3.766,1.767,6.998,2.783,9.697,3.05l1.85-0.05
	c0.268-0.133,0.283-0.467,0.051-1l-1.65-3.049l-0.713-1.141c0.233,0.01,0.467,0.021,0.7,0.027
	c4.736,3.153,10.598,5.629,17.608,7.411c5.133,1.267,9.064,1.899,11.797,1.899l2.55-0.1c0.7-0.133,1.2-0.533,1.499-1.199
	c0.635-1.428-0.139-6.307-2.313-14.621c5.692-3.061,10.396-7.198,14.112-12.415l1.597,2.642c1.4,2.1,2.533,3.516,3.399,4.249
	l1.85,1.101c0.601,0.033,1.216-0.518,1.85-1.65C159.941,168.182,160.169,157.107,157.26,140.913z"/>
</svg>
