<?xml version="1.0" encoding="utf-8"?>
<!-- Generator: Adobe Illustrator 16.0.0, SVG Export Plug-In . SVG Version: 6.00 Build 0)  -->
<!DOCTYPE svg PUBLIC "-//W3C//DTD SVG 1.1//EN" "http://www.w3.org/Graphics/SVG/1.1/DTD/svg11.dtd">
<svg version="1.1" id="图层_1" xmlns="http://www.w3.org/2000/svg" xmlns:xlink="http://www.w3.org/1999/xlink" x="0px" y="0px"
	 width="435px" height="305px" viewBox="0 0 435 305" enable-background="new 0 0 435 305" xml:space="preserve">
<path d="M426.101,115.504l-4.85-12.749c-0.133-0.434-0.533-0.85-1.2-1.25c-0.666-0.433-1.316-0.633-1.949-0.6l-4.449,0.35
	c-2.667,0.333-4.883,0.933-6.649,1.8l-0.75,0.8c-0.566,0.7-1,1.417-1.3,2.15c-2.133,5.666-6.899,11.315-14.299,16.948
	c-5.832,4.466-10.032,6.983-12.599,7.549c-1.399-0.7-4.315-1.083-8.749-1.15l-9.098,0.422c3.293-2.461,5.332-4.521,6.099-6.171
	c1.133-2.467,2.517-9.249,4.149-20.348c1.41-9.595,2.103-16.527,2.08-20.818c10.938-29.431,16.827-46.006,17.668-49.724
	c0.1-0.333-0.75-0.95-2.55-1.85c-1.833-0.933-3.134-1.283-3.899-1.05c-1.434,0.433-10.183,5.116-26.247,14.048
	c-4.362,2.413-8.12,4.526-11.304,6.354c-0.743-0.316-1.621-0.666-2.646-1.054c-1.152-0.431-2.124-0.802-2.929-1.119
	c4.87-20.1,6.964-30.58,6.278-31.428c-0.3-0.367-1.35-0.783-3.149-1.25l-3.399-0.35c-0.646,0.258-8.598,7.667-23.813,22.184
	c-3.01-4.363-5.208-7.1-6.584-8.185c-6.065-4.733-12.548-8.549-19.448-11.449c-2.195-0.916-4.498-1.78-6.894-2.599l-0.205-4.601
	c-0.233-3.233-0.5-5.316-0.8-6.249c-0.59-1.671-10.458-0.404-29.562,3.785c-3.441-0.503-7.002-0.949-10.685-1.335
	c-24.43-2.6-45.527-1.683-63.292,2.75c-2.24,0.56-4.388,1.184-6.481,1.844l-5.467-4.894c-4.266-3.766-6.683-5.749-7.249-5.949
	c-0.6-0.2-1.317-0.05-2.15,0.45c-0.8,0.5-1.233,0.95-1.3,1.35l0.05,8.699l0.131,7.15c-1.77,0.997-3.474,2.039-5.08,3.148
	c-4.114,2.864-8.221,6.987-12.32,12.362c-5.621-5.484-11.101-10.5-16.427-15.012l-7.099-5.849c-0.966-0.9-1.85-1.217-2.649-0.95
	c-0.733,0.267-1.583,0.667-2.55,1.2c-1.3,0.7-2,1.266-2.1,1.7c-0.2,0.667,0.15,4.549,1.05,11.648
	c0.967,7.611,2.097,14.335,3.385,20.194c-6.373,3.072-11.852,6.622-16.434,10.652c-4.666,4.066-7.466,7.699-8.399,10.898
	c-1.433,4.833-0.75,13.648,2.05,26.447c2.367,10.898,4.533,18.331,6.5,22.297c1.462,2.814,4.449,6.135,8.946,9.958
	c-0.249,1.032-0.381,2.122-0.42,3.259l-12.775-0.768c-5.377-0.283-9.539-0.445-12.488-0.487c-2.125-2.45-4.746-4.5-7.91-6.112
	c-2.98-1.49-5.694-2.264-8.148-2.339c-4.714-3.354-9.991-5.604-15.849-6.709c-2-2.7-2.833-5.549-2.5-8.549l0.25-3.1l-0.35-2.1
	c-4.6-11.032-7.116-17.498-7.549-19.397l-0.8-2.6l-1.3-1.3c-0.633-0.5-2.066-1.2-4.3-2.1c-2.233-0.9-3.466-1.3-3.699-1.2l-0.95,0.15
	c-0.5,0.167-1.033,0.65-1.6,1.45c-0.434,0.633-3.333,10.682-8.699,30.146c-5.599,20.298-9.016,33.53-10.249,39.696
	c-1.033,5.199-1.95,13.532-2.75,24.997c-0.595,8.386-1.021,16.573-1.292,24.576c-0.466,1.772-0.839,3.594-1.107,5.471
	c-2.941,20.867,0.714,36.702,10.917,47.543c-0.171,0.676-0.33,1.372-0.469,2.102c-0.9,4.732-0.867,10.049,0.1,15.947
	c0.767,4.7,1.733,8.232,2.899,10.6c0.967,1.899,1.733,3.1,2.3,3.6c0.7,0.6,1.383,0.449,2.05-0.45
	c1.033-1.399,4.816-5.017,11.349-10.849c3.768-3.352,6.919-5.999,9.466-7.957c2.083,0.222,4.228,0.375,6.482,0.408
	c11.632,0.133,22.047-2.383,31.247-7.549c6.291-3.546,11.324-7.852,15.142-12.889l4.406,0.239l18.948,1.5
	c1.9,0.399,3.117,0.267,3.65-0.399c0.433-0.566,0.417-1.533-0.05-2.9c-2.1-6.398-6.099-12.882-11.999-19.447
	c-2.341-2.59-4.453-4.675-6.354-6.298c-0.001-0.118,0.007-0.232,0.005-0.352c-0.067-5.633-1.25-12.349-3.55-20.147l-3.399-10.049
	c-0.798-2.012-2.448-4.334-4.93-6.958c-0.596-7.794-2.041-15.278-4.319-22.458c0.204-1.013,0.365-2.014,0.483-3.002l27.626-1.913
	c3.79,3.266,8.465,5.267,14.036,5.983c5.299,0.677,10.085-0.01,14.375-2.009c2.07,1.519,4.392,3.171,6.973,4.959
	c8.166,5.666,14.165,9.433,17.998,11.299c13.499,6.666,31.08,11.015,52.745,13.048c17.149,1.624,33.695,1.172,49.646-1.333
	c-2.067,1.677-4.374,3.642-6.952,5.933c-8.565,7.6-14.231,14.148-16.998,19.648c-1.999,3.999-3.45,8.016-4.35,12.049
	c-0.833,3.799-1.249,7.932-1.249,12.398c0,5.701,0.948,11.57,2.839,17.607c-6.374,6.069-10.988,12.664-13.839,19.788
	c-2.633,6.499-3.732,13.215-3.299,20.147c0.166,2.833,0.482,4.5,0.949,5c0.467,0.433,1.667,0.333,3.6-0.301l24.098-6.699
	l11.341-3.194c7.839,6.089,17.4,10.045,28.704,11.844c7.366,1.167,14.749,1.233,22.148,0.2c3.71-0.508,7.175-1.261,10.408-2.246
	c10.934,5.438,17.118,8.723,18.538,9.845c2.199,1.7,3.55,2.517,4.05,2.45c0.333-0.033,0.6-0.783,0.8-2.25
	c1.147-8.619,0.604-16.715-1.586-24.3c0.604-0.601,1.208-1.202,1.836-1.847c6.099-6.267,10.198-11.249,12.298-14.949
	c0.7-1.166,1.334-2.683,1.9-4.549l1.3-4.25l13.498-15.798c8.899-10.799,15.498-19.681,19.798-26.647
	c6.766-10.965,13.099-22.863,18.998-35.695c6.999-15.132,11.165-26.98,12.498-35.546l0.25-4.15
	C430.583,130.669,429.167,124.37,426.101,115.504z"/>
</svg>
