<?xml version="1.0" encoding="utf-8"?>
<!-- Generator: Adobe Illustrator 16.0.0, SVG Export Plug-In . SVG Version: 6.00 Build 0)  -->
<!DOCTYPE svg PUBLIC "-//W3C//DTD SVG 1.1//EN" "http://www.w3.org/Graphics/SVG/1.1/DTD/svg11.dtd">
<svg version="1.1" id="图层_1" xmlns="http://www.w3.org/2000/svg" xmlns:xlink="http://www.w3.org/1999/xlink" x="0px" y="0px"
	 width="788px" height="329px" viewBox="0 0 788 329" enable-background="new 0 0 788 329" xml:space="preserve">
<path d="M782.265,226.849c2.606-10.132,3.626-20.019,3.041-29.659c-1.466-23.826-12.429-44.969-32.89-63.43
	c-5.265-4.765-10.913-8.664-16.945-11.697c-6.197-3.099-13.346-5.548-21.443-7.348c-12.463-9.963-24.759-18.444-36.889-25.442
	c-11.461-6.604-23.239-12.176-35.332-16.727c0.006-0.74-0.005-1.476-0.021-2.211c8.989,1.813,14.447,2.045,16.359,0.694
	c0.733-0.533,0.783-2,0.15-4.399c-0.733-2.599-2.1-5.465-4.099-8.597c-4.992-7.827-12.033-14.239-21.071-19.273
	c-0.46-0.827-0.926-1.652-1.422-2.47c-3.766-6.198-8.348-11.729-13.746-16.595c-4.532-4.132-9.014-7.248-13.446-9.347
	c-6.598-3.132-14.929-4.715-24.992-4.749c-6.078-0.019-11.612,0.579-16.64,1.75c-7.108-1.848-14.966-3.335-23.598-4.45
	C520.22,0.433,505.208-0.45,494.244,0.25c-7.364,0.467-14.979,1.983-22.843,4.549l-8.397,3.149
	c-3.732,1.366-6.864,2.216-9.397,2.549c-14.729,2.033-25.509,4.215-32.34,6.548c-3.299,1.133-7.181,3.116-11.646,5.948l-1.35,1.15
	c-1.966,1.266-3.433,2.982-4.398,5.148c-0.967,2.132-1.149,4.015-0.55,5.648c0.699,1.833,3.449,2.383,8.247,1.65
	c1.944-0.278,4.687-0.309,8.204-0.101c0.285,1.12,0.697,1.909,1.243,2.35c0.437,0.336,1.379,0.71,2.821,1.122
	c-0.131,0.852-0.222,1.721-0.222,2.627c0,0.018,0.003,0.036,0.003,0.054c-2.953-1.007-6.191-1.96-9.75-2.853
	c-9.364-2.333-19.095-3.815-29.191-4.449c-25.259-1.533-45.736,2.449-61.432,11.946l-3.049,2.1c-0.146,0.09-0.29,0.185-0.435,0.275
	c0.109-0.228,0.233-0.443,0.335-0.675c2.166-4.865,3.266-8.681,3.299-11.447c0.019-0.817-0.061-1.592-0.218-2.332
	c1.299-1.193,2.506-2.217,3.617-3.066l7.998-5.698c4.632-3.199,7.964-5.715,9.997-7.548c2.865-2.699,4.231-4.965,4.099-6.798
	c-0.033-0.767-0.416-1.433-1.149-2c-0.4-0.333-1.3-0.85-2.699-1.549c-4.365-2.166-8.048-3.782-11.047-4.849l-3.199-1
	c-4.531-0.566-11.396,1.183-20.594,5.249c-7.131,3.132-13.396,6.515-18.794,10.147l-1,0.65c-0.894,0.596-1.758,1.177-2.617,1.756
	c-3.066-0.203-6.078-0.145-9.03,0.193c-6.698,0.8-19.86,2.933-39.488,6.398c-21.46,3.765-34.673,6.415-39.638,7.947
	c-4.799,1.466-10.264,4.382-16.395,8.748c-5.132,3.666-8.814,6.831-11.047,9.497c-2.799,3.399-10.53,7.981-23.193,13.746
	c-12.163,5.532-24.759,10.33-37.789,14.396c-12.063,3.766-31.424,18.278-58.083,43.537c-11.097,10.53-21.027,20.727-29.791,30.591
	c-9.03,10.163-14.995,17.928-17.895,23.293c-1.533,2.865-1.616,7.547-0.25,14.045c0.733,3.388,1.801,6.908,3.194,10.558
	c-2.791,6.582-5.008,15.334-6.644,26.282c-1.133,7.697-1.666,14.795-1.6,21.293c0.067,6.631,0.767,11.097,2.1,13.396
	c0.566,1.066,1.383,1.615,2.449,1.648l2.249-0.449c1.401-0.411,3.103-1.174,5.085-2.264c-2.168,10.262-2.003,17.023,0.513,20.258
	c0.8,1.066,3.799,0.934,8.997-0.399c5.298-1.399,11.063-3.599,17.295-6.599c7.938-3.831,14.356-7.813,19.282-11.941
	c0.768,0.533,1.53,1.072,2.312,1.596c7.054,4.72,13.935,8.804,20.649,12.271c-9.133,15.285-12.919,24.06-11.352,26.316
	c1.166,1.666,4.215,2.666,9.147,2.999c5.165,0.366,10.797-0.134,16.895-1.5c11.822-2.646,21.095-7.325,27.833-14.028
	c8.991,0.751,15.995-0.733,21.002-4.466c8.165-6.032,15.412-14.729,21.744-26.093c5.898-10.563,8.631-18.76,8.197-24.592
	c-0.3-3.766-1.766-8.447-4.398-14.046c-0.895-1.888-1.82-3.666-2.773-5.337c1.888,0.299,5.508-2.596,10.871-8.709
	c0.706-0.81,1.385-1.618,2.048-2.425c3.284,0.76,6.663,1.325,10.148,1.675c3.789,0.367,7.44,0.463,10.953,0.286
	c1.469,4.341,2.867,7.289,4.192,8.812c1.267,1.434,2.833,1.516,4.699,0.25c2.933-2.1,6.798-6.281,11.597-12.547
	c0.689-0.896,1.329-1.758,1.925-2.594c1.376-0.853,2.644-1.78,3.773-2.804c5.158-4.681,9.378-10.105,12.69-16.249
	c4.063,6.246,9.611,12.442,16.651,18.59c-1.227,3.645-1.932,8.171-2.1,13.604c-0.2,6.531,0.466,11.33,2,14.396
	c0.333,0.633,1.816,2.666,4.448,6.098c3.299,4.266,6.548,8.182,9.747,11.746c9.697,10.863,16.212,15.513,19.544,13.946
	c5.831-2.765,15.04-8.461,27.607-17.071c2.425,1.41,5.014,2.755,7.782,4.025c15.796,7.298,34.757,10.963,56.883,10.996
	c24.393,0.033,45.319-5.481,62.781-16.545c2.28-1.443,4.364-2.925,6.293-4.438c14.573,8.974,24.34,13.485,29.246,13.485
	c2.866-0.366,7.131-6.282,12.796-17.745c5.499-11.13,8.381-19.16,8.647-24.092l0.15-8.648c-0.019-1.992-0.06-3.594-0.121-4.834
	c7.933-9.15,13.335-18.981,16.166-29.505c2.832-10.563,3.382-23.376,1.649-38.438c-1.566-13.496-3.966-22.727-7.198-27.691
	c-2.568-3.964-6.03-7.694-10.37-11.195c8.987-1.322,16.265-0.63,21.817,2.097c5.564,2.766,9.83,7.798,12.796,15.096
	c-0.7,2.299-1.2,4.582-1.5,6.848c-0.267,2.2-0.399,4.965-0.399,8.298c0,11.229,1.449,21.343,4.349,30.341
	c3.699,11.396,7.598,20.16,11.696,26.292c7.598,11.296,18.578,20.394,32.94,27.292c-0.601,2.865-1.05,6.298-1.35,10.297
	c-0.267,3.266-0.4,6.264-0.4,8.996c0,2.233,0.101,4.066,0.3,5.499c0.267,1.833,0.75,3.683,1.45,5.548
	c3.898,9.998,7.98,18.662,12.246,25.992c4.365,7.498,9.131,13.946,14.296,19.345c8.063,8.431,18.178,15.411,30.341,20.943
	c11.655,5.327,23.685,8.593,36.076,9.854c5.667,2.161,10.988,3.563,15.958,4.191c5.364,0.666,8.63,0.25,9.797-1.25
	c0.245-0.322,0.076-1.477-0.497-3.443c5.751-0.889,11.299-2.322,16.642-4.305c0.154-0.058,0.305-0.121,0.458-0.179
	c2.914,1.746,5.983,3.489,9.239,5.228c9.797,5.232,18.494,8.998,26.092,11.297c8.397,2.499,13.563,2.6,15.496,0.3
	c2.865-3.366,3.748-9.681,2.648-18.944c-0.933-8.131-3.216-17.395-6.848-27.791c-1.102-3.135-2.24-6.113-3.409-8.969
	c3.897-6.098,7.28-12.116,10.158-18.057c4.798,2.906,7.619,3.607,8.446,2.082c1.3-2.365,1.866-6.748,1.699-13.146
	C783.319,235.789,782.936,231.428,782.265,226.849z M459.956,62.39l2.148,0.141c1.633-0.433,4.248,0.316,7.848,2.25
	c1.513,0.813,3.067,1.77,4.664,2.873c-0.567,1.832-1.153,3.547-1.76,5.133c-1.553-1.208-3.147-2.426-4.804-3.658
	c-2.924-2.171-5.854-4.271-8.79-6.306C459.498,62.685,459.728,62.538,459.956,62.39z"/>
</svg>
