<?xml version="1.0" encoding="utf-8"?>
<!-- Generator: Adobe Illustrator 16.0.0, SVG Export Plug-In . SVG Version: 6.00 Build 0)  -->
<!DOCTYPE svg PUBLIC "-//W3C//DTD SVG 1.1//EN" "http://www.w3.org/Graphics/SVG/1.1/DTD/svg11.dtd">
<svg version="1.1" id="图层_1" xmlns="http://www.w3.org/2000/svg" xmlns:xlink="http://www.w3.org/1999/xlink" x="0px" y="0px"
	 width="372px" height="390px" viewBox="0 0 372 390" enable-background="new 0 0 372 390" xml:space="preserve">
<path d="M362.669,81.516c-5.461-20.179-9.49-33.382-12.088-39.609c-1.332-3.196-6.26-8.325-14.784-15.384
	c-6.527-5.428-13.803-10.906-21.828-16.434l-8.342-5.844c-2.164-1.365-6.26-1.016-12.287,1.049
	c-5.461,1.865-8.874,3.546-10.239,5.045l-0.149,0.1L270.113,28.37c-0.865,2.165-1.348,4.129-1.448,5.894
	c-0.167,2.564,0.384,5.012,1.648,7.343c1.565,2.897,3.946,11.438,7.143,25.624c3.229,14.285,4.479,22.161,3.746,23.626
	c-0.776,1.488-1.766,3.888-2.963,7.177l-11.574-7.369c-0.41-17.334-0.759-27.158-1.047-29.427c-0.233-1.898-1.715-4.496-4.445-7.792
	c-2.597-3.164-4.528-4.912-5.794-5.245c-0.799-0.2-2.465,0.133-4.995,0.999l-4.562,1.629c-0.054-0.22-0.101-0.421-0.133-0.58
	c-0.367-1.599-0.85-2.897-1.449-3.896c-0.533-0.866-1.315-1.715-2.348-2.547l-12.037-10.689c-5.162-4.628-8.459-7.309-9.891-8.042
	c-1.864-0.899-7.109-1.315-15.733-1.249l-14.685,0.949c-1.398,0.466-5.845,3.996-13.337,10.589
	c-7.359,6.493-11.405,10.373-12.138,11.638c-0.566,0.933-2.614,7.193-6.144,18.781l-6.743,22.677l-3.98,1.434
	c-1.929-4.266-3.965-11.016-6.109-20.265c-1.365-5.86-3.213-14.885-5.544-27.072l-3.946-21.978
	c-1.066-5.727-2.098-9.224-3.097-10.489c-2.098-2.664-6.46-5.078-13.086-7.242c-6.36-2.131-11.671-3.063-15.934-2.797
	c-3.463,0.167-5.561,0.849-6.293,2.048c-0.3,0.466-0.649,1.515-1.049,3.147l-1.399,5.194c-3.829,11.788-7.026,20.246-9.59,25.374
	C75.63,46.801,68.604,55.076,60.079,60.637c-1.265,0.799-2.547,9.657-3.846,26.573c-1.332,16.916-1.481,26.323-0.449,28.221
	c0.433,0.799,3.18,3.879,8.241,9.24c1.661,1.767,3.496,3.853,5.502,6.257c-2.047,0.828-5.445,2.904-10.197,6.23
	c-6.827,4.795-10.689,8.575-11.588,11.338c-0.866,2.764-1.382,7.942-1.548,15.534c-0.167,7.726,0.216,12.154,1.149,13.286
	c0.589,0.766,2.718,2.039,6.362,3.811c-2.106,1.037-4.643,2.528-7.661,4.531c-4.063,2.63-6.21,4.462-6.443,5.494
	s0.3,4.262,1.599,9.69l2.397,9.34c0.533,1.898,1.432,3.18,2.697,3.846l0.188,0.052c-1.043,0.681-2.368,1.691-3.984,3.046
	c-2.497,2.131-4.012,3.68-4.545,4.645c-0.529,0.926,0.092,4.316,1.861,10.164l-2.959,1.524c-2.364,1.365-3.929,2.631-4.695,3.796
	c-0.599,0.933-5.677,9.757-15.234,26.473c-9.457,16.351-14.585,24.825-15.384,25.424c-0.866,0.633-1.315,1.433-1.349,2.398
	l0.45,3.196c0.2,1.565,1.748,6.577,4.645,15.034c3.063,8.925,5.145,14.219,6.244,15.885c0.766,1.132,2.98,2.797,6.644,4.994
	c3.862,2.298,8.091,4.445,12.687,6.443c12.121,5.262,20.845,7.043,26.173,5.345c5.561-2.298,11.638-4.911,18.231-7.842
	c10.855-4.829,17.449-8.108,19.78-9.84c2.098-1.565,5.044-5.395,8.841-11.488l5.045-8.691l0.135-2.121l0.764,9.214
	c0,1.832,5.128,8.741,15.384,20.729l0.1,0.15l0.035,0.026c0.798,8.458-0.603,15.117-4.23,19.953
	c-1.199,1.599-2.647,2.979-4.346,4.146l-2.947,1.848c-0.866,0.633-1.116,3.181-0.75,7.643c0.333,3.696,0.766,6.51,1.299,8.441
	c0.5,1.698,4.129,6.127,10.889,13.286c0.666,0.3,1.948,0.6,3.846,0.899l11.688,0.649c14.186-0.333,32.05-3.53,53.595-9.591
	c1.365-0.365,2.73-1.115,4.096-2.247c1.198-1.032,2.198-2.147,2.997-3.347c1.266-1.865,3.264-5.244,5.994-10.14
	c3.263-5.86,4.895-9.308,4.895-10.339c0-1.232-0.5-3.514-1.498-6.844c-1.033-3.396-1.832-5.244-2.398-5.544
	c-3.996-1.332-7.226-3.014-9.689-5.045c-4.441-3.604-7.328-9.327-8.689-17.13c2.934-4.146,4.665-7.16,5.193-9.043
	c0.02-0.066,0.028-0.116,0.046-0.181c8.304,5.829,14.884,9.022,19.733,9.571c5.928,0.666,12.937,0.549,21.028-0.35
	c3.529-0.375,6.558-0.824,9.091-1.349l0.898,1.498c1.166,1.765,2.414,3.047,3.746,3.846c1.137,0.673,3.034,1.403,5.656,2.188
	l-3.957,2.807c-3.764,2.764-5.844,4.563-6.244,5.395c-0.666,1.398-1.182,3.23-1.549,5.494c-0.499,2.73-0.383,4.445,0.35,5.145
	c0.699,0.699,6.443,2.715,17.232,6.044l16.034,4.796l3.097,0.35l28.471-7.293c0.999-0.3,4.063-3.03,9.19-8.191
	c5.928-5.994,9.557-9.523,10.889-10.59c0.833-0.699,1.083-2.863,0.75-6.493c-0.3-3.463-0.767-5.628-1.399-6.493
	c-0.332-0.434-3.213-1.249-8.641-2.447c-4.963-1.1-8.682-2.344-11.186-3.73c1.888-1.592,4.084-3.877,6.59-6.859
	c3.93-4.628,6.094-7.892,6.494-9.789c0.266-1.398-0.717-4.047-2.947-7.942l-4.49-7.192c1.099-0.371,2.149-0.69,3.142-0.949
	c1.731-0.433,4.129-2.947,7.192-7.542c2.198-3.33,3.646-5.778,4.346-7.343l7.043-13.985l1.848-3.747
	c0.633-1.198,0.982-2.131,1.049-2.797c0.067-0.666-0.133-3.579-0.599-8.74l-0.652-7.82c2.402-1.664,3.729-2.99,3.948-3.968
	c0.233-0.899-0.183-3.646-1.248-8.241c-1.166-5.063-2.564-9.541-4.196-13.437c-0.442-1.046-0.96-2.062-1.55-3.048
	c1.398-0.78,3.226-2.503,5.496-5.194c2.697-3.197,3.979-5.361,3.846-6.494l-1.299-5.444c-0.766-2.864-1.148-4.928-1.148-6.193
	c0-1.333-0.967-2.612-2.889-3.839l7.934-3.054c6.327-2.597,9.757-4.429,10.289-5.495c0.434-0.832,2.548-7.342,6.344-19.53
	c3.963-12.787,6.311-20.096,7.043-21.927C371.243,116.663,368.763,103.959,362.669,81.516z M108.511,291.51l-4.427-20.289
	c-3.53-16.648-5.195-25.906-4.995-27.771c0.2-1.864-0.183-3.646-1.149-5.344l-1.43-1.906l3.527-5.137
	c2.797-4.129,4.079-6.743,3.846-7.842c-0.267-1.299-1.149-3.264-2.647-5.895c-1.309-2.282-2.406-3.903-3.298-4.879
	c5.064-2.12,7.952-3.592,8.643-4.411c0.566-0.699,1.499-3.963,2.797-9.79c1.266-5.894,1.732-9.274,1.399-10.14
	c-0.3-0.766-1.482-2.031-3.546-3.796l-2.233-1.855c6.235-3.049,10.116-5.247,11.624-6.586c1.565-1.398,2.448-2.448,2.647-3.147
	l0.068-1.339c0.118,0.53,0.229,0.93,0.331,1.189c1.731,4.629,6.593,11.622,14.585,20.979c4.396,5.129,8.725,9.891,12.987,14.285
	c1.032,2.531,1.898,5.145,2.597,7.842c0.833,2.998,1.249,5.346,1.249,7.043l-0.35,2.049l-0.5,1.697l-7.282,13.236
	c-2.053,0.847-4.136,1.903-6.254,3.197c-4.229,2.598-7.06,5.045-8.491,7.342l-10.29,21.129l-9.291,19.33
	C108.571,290.824,108.532,291.1,108.511,291.51z"/>
</svg>
