<?xml version="1.0" encoding="utf-8"?>
<!-- Generator: Adobe Illustrator 16.0.0, SVG Export Plug-In . SVG Version: 6.00 Build 0)  -->
<!DOCTYPE svg PUBLIC "-//W3C//DTD SVG 1.1//EN" "http://www.w3.org/Graphics/SVG/1.1/DTD/svg11.dtd">
<svg version="1.1" id="图层_1" xmlns="http://www.w3.org/2000/svg" xmlns:xlink="http://www.w3.org/1999/xlink" x="0px" y="0px"
	 width="467px" height="381px" viewBox="0 0 467 381" enable-background="new 0 0 467 381" xml:space="preserve">
<path d="M466.8,116.821l-0.294-0.149c-0.604-0.61-3.091-2.162-7.464-4.656c-4.071-2.336-6.808-3.854-8.209-4.555l-1.602-0.3
	l-2.053,0.45l-33.874,10.008l-3.365-13.462l-1.702-5.906c-2.69-1.237-5.8-2.429-9.293-3.58l1.134-1.326l14.266-17.218l-0.351-26.229
	c0-1.001-0.116-1.685-0.351-2.052c-0.267-0.434-0.767-0.567-1.501-0.4c-1.168,0.267-6.04,1.935-14.616,5.005
	c-9.009,3.271-13.664,5.139-13.965,5.606c-0.418,0.613-5.372,9.587-14.854,26.907l-1.264-0.379l-2.353-0.25l-3.203,0.951
	l-29.231,9.31c-18.119,5.772-27.513,8.926-28.18,9.46c-0.701,0.534-2.236,2.77-4.605,6.707l-2.35,4.033l-12.516-58.141
	c-0.039-0.121-0.342-0.425-0.892-0.902l-0.01-0.048l-0.288-0.207c-3.658-3.089-15.77-12.077-36.352-26.972l-38.09-27.479
	c-0.935-0.801-1.719-1.118-2.353-0.951c-0.434,0.1-1.001,0.517-1.702,1.251L170.032,31.68
	c-23.058,19.888-34.821,30.433-35.288,31.634c-0.464,1.083-2.323,21.671-5.573,61.727l-24.609,2.893
	c-0.901,0.167-1.935,0.684-3.103,1.552c-51.021,47.785-77.049,72.244-78.084,73.378c-0.509,0.566-1.114,7.354-1.815,20.316
	l-6.493,3.409l-7.809,4.255l-1.301,0.851c-0.3,0.233-0.534,0.551-0.701,0.951l-2.853,6.707C0.701,243.457-0.1,245.643,0,245.91
	c0.1,0.266,2.152,1.033,6.157,2.302l6.457,1.853l7.743-2.514c-0.256,5.723-0.385,9.399-0.385,11.022c0,0.733,0.117,1.218,0.35,1.451
	l1.101,0.2l5.551-0.361l-2.047,3.766c0.601,8.842,1.035,13.314,1.301,13.414c0.253,0.094,3.857-1.217,10.802-3.931
	c2.864,11.565,4.472,17.41,4.814,17.495c0.367,0.1,6.557-4.955,18.57-15.166l3.654-17.619l0.325-1.654l15.192-2.15l3.153-0.6
	l40.011-47.449c-3.105,39.953-4.53,60.388-4.272,61.264c0.37,1.253,1.819,3.388,4.327,6.389l-7.68,0.369
	c-0.567,0.266-4.421,5.288-11.563,15.065c-7.141,9.743-10.828,15.017-11.062,15.817c-0.233,0.834,0.117,5.723,1.051,14.665
	c0.968,9.01,1.668,13.682,2.102,14.015c0.501,0.435,5.74,3.638,15.717,9.611c10.144,6.072,15.633,9.227,16.467,9.46
	c1.181,0.351,4.384,0.424,9.562,0.226c1.89,1.793,3.913,3.709,6.105,5.781c15.517,14.648,23.642,21.99,24.376,22.023
	c0.99,0.06,9.938-10.753,26.835-32.424l6.2-1.063c15.316-13.348,23.208-20.555,23.676-21.623c0.269-0.593,0.484-3.696,0.645-9.305
	l5.761,0.034c0.256,7.306,0.557,11.166,0.902,11.573c0.3,0.367,5.923,3.837,16.868,10.41l16.317,9.762l7.09-0.26
	c2.477,2.441,6.562,6.374,12.281,11.821c9.943,9.443,15.133,14.148,15.566,14.115c0.467-0.033,5.623-6.657,15.467-19.871
	c2.079-2.778,3.929-5.26,5.575-7.479l0.731,0.07c19.621-11.312,29.599-17.251,29.932-17.819c0.4-0.634,1.285-4.371,2.653-11.211
	c1.435-7.108,1.918-10.979,1.451-11.613c-0.534-0.734-5.389-4.404-14.565-11.012c-9.276-6.674-14.449-10.16-15.517-10.461
	c-0.63-0.186-4.942-0.301-12.916-0.347l2.705-1.056l12.213-22.674l0.351-0.65l0.15-0.751l-18.783-88.375
	c11.65,7.727,17.938,11.665,18.833,11.792l31.434-0.05c20.321-0.134,30.716-0.317,31.184-0.551c1.164-0.693,2.304-1.618,3.423-2.749
	c19.85,10.962,30.057,16.401,30.613,16.313l27.78-8.509c0.601-0.267,0.934-0.518,1.001-0.751c0.066-0.367-0.15-1.035-0.651-2.002
	c-7.741-13.915-12.063-21.089-12.964-21.523c-0.601-0.3-8.375-2.586-23.324-6.857l-1.303-0.378c2.934-3.414,4.464-5.369,4.556-5.829
	c0.099-0.621-0.799-5.256-2.687-13.883l35.872-2.184c0.467-0.1,2.837-2.736,7.107-7.909c4.037-4.875,6.112-7.643,6.276-8.356
	L466.8,116.821z"/>
</svg>
