<?xml version="1.0" encoding="utf-8"?>
<!-- Generator: Adobe Illustrator 16.0.0, SVG Export Plug-In . SVG Version: 6.00 Build 0)  -->
<!DOCTYPE svg PUBLIC "-//W3C//DTD SVG 1.1//EN" "http://www.w3.org/Graphics/SVG/1.1/DTD/svg11.dtd">
<svg version="1.1" id="图层_1" xmlns="http://www.w3.org/2000/svg" xmlns:xlink="http://www.w3.org/1999/xlink" x="0px" y="0px"
	 width="519px" height="396px" viewBox="0 0 519 396" enable-background="new 0 0 519 396" xml:space="preserve">
<path d="M510.106,247.436c-1.431-2.719-2.853-5.049-4.268-7.019c-0.377-1.879-1.051-3.853-2.027-5.921
	c-1.133-2.398-3.081-5.596-5.846-9.593l-1.849-2.748c-7.827-11.69-17.137-21.55-27.929-29.577
	c-8.394-6.262-21.866-14.206-40.419-23.832l-8.593-4.496c-8.693-4.53-15.438-8.76-20.234-12.69
	c-4.515-3.694-7.981-7.617-10.422-11.766c4.312-4.106,7.677-8.872,10.071-14.314c3.564-8.06,4.88-16.587,3.947-25.58
	s-3.947-16.97-9.043-23.932c-5.662-7.661-12.906-13.14-21.733-16.438c-8.361-3.08-17.97-4.117-28.794-3.163
	c-6.94-12.078-15.847-22.478-26.763-31.16c-10.226-8.127-23.266-14.605-39.12-19.435c-15.654-4.796-29.311-6.545-40.969-5.246
	c-1.065,0.1-2.448,0.667-4.146,1.699c-3.431,2.032-6.778,5.363-10.042,9.992c-3.797,0.333-7.877,0.916-12.24,1.749l-9.143,1.998
	c-3.997-2.531-8.227-4.113-12.69-4.746c-4.23-0.6-8.077-0.25-11.541,1.049c-21.184,8.027-38.221,22.183-51.11,42.467
	c-7.886,12.452-13.313,25.764-16.286,39.936c-16.769,6.093-28.734,16.057-35.875,29.911c-6.562,12.757-7.794,25.613-3.697,38.57
	c1.532,4.863,3.813,9.426,6.845,13.689c3.072,4.263,6.722,7.997,10.943,11.211c-0.083,0.244-0.172,0.477-0.251,0.73l-1.199,5.046
	c-1.832,8.626-3.298,14.355-4.397,17.187c-3.031,7.827-7.811,14.389-14.339,19.686c-16.154,13.123-29.027,24.381-38.62,33.773
	c-8.427,8.293-13.823,14.655-16.188,19.085c-3.681,6.817-4.894,13.096-3.654,18.837c-0.666,1.074-1.345,2.232-2.042,3.496
	c-3.63,6.595-5.729,13.289-6.295,20.084c-0.6,6.929,0.616,11.892,3.647,14.889c1.499,1.5,3.714,2.465,6.645,2.898
	c2.869,0.438,5.248-0.038,7.153-1.394c0.082,0.13,0.156,0.267,0.241,0.394c1.965,2.998,4.997,4.747,9.093,5.246
	c1.732,0.2,3.447,0.033,5.146-0.499c1.465-0.5,2.714-1.183,3.747-2.049c1.465-1.198,2.448-3.181,2.948-5.945l1.099-12.39
	c0.231-3.495,0.537-6.504,0.913-9.049l4.207,0.071c-0.277,2.115-0.424,3.969-0.424,5.529c0,4.563,0.816,8.344,2.448,11.341
	c1.465,2.632,3.397,4.414,5.795,5.347c1.666,0.666,3.664,0.999,5.996,0.999c2.498-0.033,4.33-0.467,5.496-1.299
	c3.131-2.232,4.597-7.195,4.396-14.889c-0.105-3.877,0.155-7.797,0.762-11.757c3.458-1.754,6.095-3.844,7.882-6.279
	c1.832-2.531,3.681-6.895,5.546-13.09c1.965-6.562,3.797-13.689,5.496-21.384c1.865-8.326,3.73-15.938,5.596-22.832
	c2.231-8.227,3.947-13.473,5.146-15.738c2.598-4.763,5.212-12.457,7.844-23.082c1.135-4.603,2.09-8.909,2.868-12.924
	c8.389,1.597,16.98,1.286,25.776-0.961c13.166,14.275,28.529,24.738,46.099,31.372l0.3,0.949c0,1.6-1.349,3.83-4.047,6.695
	c-2.298,2.498-5.346,5.213-9.143,8.144c-3.464,2.665-6.012,5.263-7.644,7.794c-1.699,2.598-2.981,5.929-3.847,9.992
	c-0.566,2.598-0.566,6.096,0,10.492c0.6,4.797,1.666,8.277,3.198,10.441c2.575,3.649,6.32,7.253,11.223,10.807
	c0.082,2.785,0.908,5.657,2.496,8.619c-2.361,2.758-4.967,6.862-7.823,12.35c-3.498,6.695-6.512,13.807-9.043,21.334
	c-6.395,18.886-7.277,31.976-2.648,39.27c5.563,8.76,14.989,14.156,28.278,16.188c11.591,1.766,23.582,0.8,35.972-2.897
	c7.195-2.132,12.99-4.746,17.387-7.844c5.596-3.897,8.443-8.277,8.543-13.14c0.1-3.664-0.383-12.874-1.449-27.629
	c-0.946-13.118-1.401-21.19-1.369-24.249c2.432-1.699,4.813-3.646,7.142-5.849c2.92-0.371,5.875-0.83,8.865-1.379
	c4.644-0.843,9.127-1.844,13.457-2.995c3.307,1.813,6.762,3.074,10.367,3.776c0.252,3.041,0.62,8.417,1.106,16.156
	c0.866,11.791,1.815,18.969,2.848,21.533c2.132,5.13,7.461,8.877,15.988,11.242c7.461,2.098,15.688,2.781,24.681,2.048
	c10.259-0.8,19.019-2.864,26.279-6.195c9.193-4.196,14.655-9.909,16.388-17.137c3.23-13.723-0.6-29.027-11.491-45.915
	c-3.964-6.095-8.526-11.891-13.689-17.387c-3.521-3.743-6.61-6.632-9.278-8.689c1.681-2.462,3.146-4.96,4.382-7.498
	c3.531-7.261,4.63-14.455,3.298-21.583c-1.032-5.396-2.998-9.56-5.896-12.49c-1.199-1.165-3.23-2.397-6.096-3.697l-7.094-2.798
	c-4.53-1.698-7.195-3.646-7.994-5.846c-0.233-0.666-0.283-1.349-0.15-2.048l0.351-0.999c10.958-8.76,19.418-16.887,25.38-24.382
	c7.028-8.826,12.174-18.569,15.438-29.227c-0.125-0.01-0.253-0.046-0.379-0.065c5.645-0.742,10.971-2.108,15.98-4.096
	c7.043,15.193,17.761,29.72,32.161,43.581c4.097,3.93,7.878,9.176,11.342,15.738c2.265,4.297,4.779,10.059,7.544,17.286l2.748,7.245
	c1.032,2.73,1.898,4.746,2.598,6.045c3.197,5.929,5.929,10.275,8.193,13.04c3.112,3.804,6.662,6.655,10.646,8.564
	c0.336,1.274,0.684,2.643,1.045,4.126c1.266,5.396,2.398,10.924,3.397,16.587c1.133,6.362,3.364,10.509,6.694,12.44
	c2.731,1.465,6.063,1.465,9.993,0c2.265-0.899,3.946-2.682,5.046-5.346c1.599-3.83,1.898-9.177,0.899-16.038
	c-0.46-3.151-1.128-6.22-1.998-9.206l1.578-0.229c0.786,2.347,1.393,4.602,1.769,6.736c1.1,6.229,2.132,10.692,3.098,13.391
	c1.166,3.264,2.665,5.479,4.496,6.645c1,0.6,2.349,0.899,4.047,0.899c1.466,0,3.031-0.25,4.697-0.749
	c3.264-0.967,5.578-2.932,6.944-5.896c1.032-2.265,1.648-4.862,1.849-7.793c0.6,0.898,1.282,1.531,2.048,1.898
	c0.833,0.398,1.849,0.565,3.048,0.499c1.166-0.066,2.265-0.333,3.298-0.8c1.432-0.633,2.598-1.432,3.497-2.397
	c0.966-1.032,1.716-2.331,2.248-3.897C517.134,266.238,515.535,257.828,510.106,247.436z M497.231,268.64
	c0.259,1.086,0.474,2.147,0.634,3.177c0.229,1.416,0.35,2.729,0.379,3.961C498.141,273.511,497.803,271.131,497.231,268.64z"/>
</svg>
