<?xml version="1.0" encoding="utf-8"?>
<!-- Generator: Adobe Illustrator 16.0.0, SVG Export Plug-In . SVG Version: 6.00 Build 0)  -->
<!DOCTYPE svg PUBLIC "-//W3C//DTD SVG 1.1//EN" "http://www.w3.org/Graphics/SVG/1.1/DTD/svg11.dtd">
<svg version="1.1" id="图层_1" xmlns="http://www.w3.org/2000/svg" xmlns:xlink="http://www.w3.org/1999/xlink" x="0px" y="0px"
	 width="321px" height="303px" viewBox="0 0 321 303" enable-background="new 0 0 321 303" xml:space="preserve">
<path d="M320.2,270.45c-5.167-11.833-13.768-22.233-25.8-31.2c-15.033-11.2-32.185-17-51.45-17.4c-0.013,0-0.022,0-0.035,0
	c0.374-4.332,1.468-10.248,3.285-17.75c1.839-7.629,3.479-13.026,4.923-16.207c0.025,0.696,0.023,1.397-0.023,2.107
	c-0.133,1.9-0.115,2.883,0.051,2.95c0.232,0.1,0.935-0.733,2.101-2.5c1.834-2.7,3.133-5.534,3.899-8.5
	c0.968-3.7,1.517-8.784,1.649-15.25l-0.2-4c2,3.399,3.4,6.05,4.2,7.95l1.05,2.75c0.269,0.467,0.385-0.283,0.352-2.25l-1.4-13.25
	c-0.865-6.834-1.232-13.2-1.1-19.102c0.134-6.3-0.917-15.05-3.15-26.25c-2.134-10.867-4.482-19.65-7.05-26.35
	c-2.166-5.7-4.733-10.8-7.7-15.3c-1.348-2.05-2.89-4.14-4.604-6.267c5.672,2.845,10.109,6.333,13.305,10.467
	c4.033,5.2,7.033,12.533,9,22c0.4,1.9,0.684,2.917,0.85,3.05l0.65-1.3c0.834-2.367,1.25-5.65,1.25-9.85
	c0.334,0.767,0.633,2.633,0.9,5.6l0.449,6.95l0.101,2.65l1.3-1.6c1.967-2.867,3.383-5.917,4.25-9.15c0.7-2.767,1.05-5.983,1.05-9.65
	c0-2.566-0.466-5.4-1.399-8.5c4.566,4.8,7.399,10.883,8.5,18.25c0.801,5.5,0.666,12.534-0.399,21.1c-0.166,1.567-0.166,2.383,0,2.45
	l1.851-1.65c3.233-3.333,5.916-7.917,8.051-13.75c2.066-5.633,3.1-10.967,3.1-16c0-9.567-2.066-18.483-6.199-26.75
	c1.232,1.1,2.399,2.783,3.5,5.05c0.865,1.833,1.601,3.816,2.199,5.95c0.242,0.837,0.448,1.537,0.626,2.13
	c0.097,0.666,0.188,1.349,0.274,2.07c0.045-0.271,0.074-0.539,0.113-0.809c0.178,0.552,0.293,0.865,0.336,0.909
	c0.301,0.2,0.649-1.233,1.051-4.3c0.967-7.434-0.283-14.784-3.75-22.05c-3.9-8.133-9.967-14.583-18.2-19.35l10.7,0.9
	c5.266,0.9,9.482,2.267,12.648,4.1c1.434,0.833,2.184,1.1,2.25,0.8l-1.05-1.85c-6.8-10.033-15.616-16.333-26.45-18.9
	c-8.865-2.1-18.35-1.617-28.449,1.45c2.699-2.866,4.684-6.8,5.949-11.8c0.5-1.934,0.551-2.934,0.15-3
	c-0.333-0.033-1.102,0.6-2.301,1.9c-2.467,2.667-5.416,5.117-8.851,7.35c-4,2.533-7.7,4.066-11.1,4.6
	c-8.167,1.267-15.65,2.983-22.45,5.15c-8.768,2.8-15.033,5.983-18.8,9.55c-3.974,3.797-6.354,8.232-7.159,13.302
	c-3.266-1.643-6.926-2.697-10.991-3.152c-3.479-0.432-6.401-0.353-8.789,0.219c-2.127-1.632-4.339-3.165-6.661-4.569
	c-11.2-6.767-23.15-8.65-35.85-5.65c-10.021,2.375-17.962,6.846-23.836,13.396c-1.494-0.108-2.998-0.162-4.514-0.146
	c-9.566,0.1-18.533,2.616-26.9,7.55c-8,4.767-14.317,11.383-18.95,19.85c-4.285,7.878-6.443,16.208-6.529,24.979
	c-2.708,1.193-5.334,2.578-7.871,4.171c-7.767,4.9-13.967,11.35-18.6,19.35c-5.167,8.967-7.683,18.816-7.55,29.55
	c0.2,15.8,6.133,27.867,17.8,36.201c4.233,3.032,8.75,5.199,13.55,6.5c1.361,0.369,2.603,0.637,3.748,0.817
	c-0.982,0.558-1.951,1.131-2.897,1.731C16.433,202.934,7.183,215.8,4.45,231.5c-1.067,6.033-1.05,12.05,0.05,18.05
	c0.967,5.167,2.533,9.55,4.7,13.15c7.7,12.733,18.95,21.933,33.75,27.6c13.291,5.097,27.945,6.796,43.952,5.118
	c10.947,4.323,23.577,6.637,37.897,6.932c10.767,0.234,23.667-1.533,38.7-5.3c6.69-1.657,15.562-4.288,26.595-7.886
	c7.278-0.624,15.684,0.204,25.256,2.536c7.801,1.866,14.434,4.083,19.899,6.649l1.95,0.899c0.333,0.033,0.398-0.416,0.199-1.351
	c-0.762-3.447-2.107-6.596-4.013-9.457l4.263,0.258c0.429-0.111,0.814-0.282,1.168-0.508l4.082,0.106
	c0.953-0.289,1.703-0.729,2.295-1.291c1.406,0.06,2.679-0.198,3.806-0.809c1.399-0.767,2.166-1.851,2.3-3.25
	c0.167-1.8-0.384-3.483-1.648-5.05c-0.728-0.896-1.586-1.609-2.578-2.146c14.082-0.771,26.313,1.121,36.678,5.694l2.1,0.6
	l-1.35-2.648c-4.834-8.234-12.4-14.566-22.7-19c-4.522-1.959-8.821-3.325-12.903-4.127c2.754-0.385,5.521-0.699,8.305-0.924
	c12.732-1.066,24.55-0.134,35.449,2.801c10.399,2.8,19.167,7.199,26.301,13.199c1.1,0.934,1.717,1.301,1.85,1.101L320.2,270.45z
	 M223.5,218.4c-0.072,1.908-0.271,3.646-0.59,5.223c-1.438,0.266-2.889,0.551-4.36,0.877c-0.334,0.073-0.696,0.156-1.073,0.244
	c0.469-2.729,1.143-6.104,2.023-10.145c0.216-0.975,0.419-1.859,0.616-2.703l3.065-2.715
	C223.453,213.014,223.561,216.092,223.5,218.4z"/>
</svg>
