<?xml version="1.0" encoding="utf-8"?>
<!-- Generator: Adobe Illustrator 16.0.0, SVG Export Plug-In . SVG Version: 6.00 Build 0)  -->
<!DOCTYPE svg PUBLIC "-//W3C//DTD SVG 1.1//EN" "http://www.w3.org/Graphics/SVG/1.1/DTD/svg11.dtd">
<svg version="1.1" id="图层_1" xmlns="http://www.w3.org/2000/svg" xmlns:xlink="http://www.w3.org/1999/xlink" x="0px" y="0px"
	 width="387px" height="290px" viewBox="0 0 387 290" enable-background="new 0 0 387 290" xml:space="preserve">
<path d="M385.834,0.199c-0.799-0.633-3.063-0.017-6.794,1.848c-19.583,9.792-52.255,30.69-98.016,62.696
	c-21.938,15.328-40.632,28.857-56.093,40.594c-2.764-0.453-5.693-0.749-8.801-0.878c-0.916-0.037-1.83-0.041-2.744-0.028
	c-8.392-2.636-16.387-4.043-23.983-4.219c-9.059-0.233-16.935,1.315-23.629,4.646c-0.181,0.088-0.336,0.168-0.507,0.254
	c-26.092-20.166-53.86-39.154-83.32-56.955c3.796-2.298,5.528-3.997,5.195-5.096c-0.167-0.466-0.699-0.799-1.599-0.999l-11.041-0.75
	l0.6-6.095c0.167-2.397,0.1-3.68-0.2-3.847c-0.466-0.266-1.449-0.033-2.948,0.7c-1.832,0.933-4.229,2.514-7.194,4.746
	c-7.127-4.563-13.139-7.926-18.034-10.091c-3.764-1.699-5.828-2.332-6.195-1.898c-0.333,0.366,0.383,1.648,2.148,3.847
	c2.498,3.097,7.91,9.208,16.236,18.334l30.479,34.148c-0.4,0.288-0.798,0.573-1.204,0.872c-7.362,5.434-14.041,11.37-20.055,17.794
	c-4.798-2.094-9.901-3.216-15.313-3.345c-1.193-4.292-1.782-10.54-1.751-18.795c0.033-5.862,0.25-10.541,0.649-14.038l-0.05-0.999
	l-0.849,0.05c-2.032,0.533-3.813,1.532-5.346,2.998c-0.666-5.063-0.999-8.859-0.999-11.39c0-0.833-0.083-1.266-0.25-1.299
	c-0.2-0.067-0.616,0.233-1.249,0.899c-6.461,5.762-11.557,13.671-15.287,23.729c-3.499,9.341-5.193,18.65-5.093,27.926
	c-6.555,4.385-11.83,9.821-15.789,16.335c-4.529,7.561-6.794,15.737-6.794,24.529c0,2.789,0.464,4.446,1.375,5.011
	c6.09,5.502,14.555,10.359,25.402,14.572c5.695,2.198,12.506,4.68,20.432,7.443c6.694,3.265,20.049,10.291,40.065,21.082
	l17.729,9.559c4.483,8.544,12.125,15.884,22.936,22.015c5.96,3.381,12.262,5.953,18.898,7.738c0.15,14.544,3.287,26.29,9.427,35.225
	c1.944,2.828,4.006,5.08,6.186,6.763c0.392,1.241,0.921,2.356,1.607,3.328c0.7,0.967,1.249,1.449,1.649,1.449l0.849-0.699
	l0.313-1.084c0.89,1.144,1.816,1.983,2.784,2.482c0.866,0.434,1.482,0.55,1.849,0.35c0.3-0.1,0.35-0.549,0.15-1.349
	c-0.309-1.174-1.155-3.334-2.523-6.456c0.001-0.022,0.002-0.046,0.004-0.068l1.77,1.18c1.099,0.499,1.832,0.615,2.198,0.35l0.3-0.65
	c0-0.732-0.417-1.798-1.249-3.197c-0.84-1.436-1.9-2.777-3.158-4.037c-0.146-2.019-0.373-4.313-0.689-6.902
	c-1.26-10.205-3.075-18.193-5.442-23.973c2.458,0.188,4.952,0.293,7.49,0.293c9.906,0,19.267-1.23,28.089-3.677
	c-0.915,3.288-1.645,6.754-2.162,10.421c-1.398,9.824-1.165,18.584,0.7,26.277c0.31,1.286,0.643,2.459,0.997,3.527
	c-0.131,1.526-0.147,3.414-0.048,5.664c0.167,3.031,0.583,4.613,1.249,4.746c0.592,0.11,1.194-0.338,1.807-1.307
	c0.202,1.178,0.604,2.441,1.24,3.805c0.933,1.965,1.799,2.947,2.598,2.947c0.633,0,1.316-0.883,2.049-2.648
	c0.473-1.139,0.907-2.51,1.31-4.088c2.514,2.479,4.148,3.538,4.885,3.14c0.333-0.167,0.399-1.716,0.2-4.646
	c-0.23-2.79-0.558-5.269-0.982-7.445c0.211-0.417,0.422-0.846,0.633-1.297c3.23-6.961,5.245-15.521,6.045-25.678
	c0.595-7.824,0.399-15.008-0.565-21.567c11.417-6.323,21.176-14.821,29.24-25.542c7.327-9.792,12.489-20.267,15.487-31.423
	c2.265-8.388,2.94-15.698,2.083-21.968l16.3,16.622c9.16,9.226,14.021,13.838,14.588,13.838c0.434,0,0.75-0.815,0.949-2.447
	c0.166-1.499,0.166-2.98,0-4.446c6.428,2.198,9.925,3.014,10.491,2.448c0.267-0.234,0.149-0.767-0.35-1.6
	c-0.699-1.266-2.282-3.496-4.746-6.693c5.063,2.564,8.459,4.079,10.191,4.545l1.648-0.149c0.233-0.233,0.316-0.666,0.25-1.299
	c-0.101-0.866-0.566-1.948-1.399-3.247c2.099,0.6,4.097,0.966,5.995,1.1l2.848-0.25c0.399-0.666-3.33-4.38-11.19-11.141
	c-10.258-8.792-22.764-17.718-37.518-26.777c1.965-5.762,3.064-10.724,3.297-14.887c0.167-2.964-0.066-4.996-0.699-6.095
	c-0.566-0.999-2.331-1.582-5.295-1.749l-5.113,0.229c17.76-15.584,43.987-37.821,78.699-66.722l11.89-1.349
	c1.832-0.366,2.814-0.716,2.947-1.049c0.2-0.433-0.05-1.066-0.749-1.898c-0.899-1.032-2.381-2.148-4.446-3.347
	c4.43-0.866,9.192-2.298,14.288-4.296c4.862-1.898,7.227-3.164,7.094-3.796c-0.133-0.466-1.365-0.916-3.697-1.349l-6.095-0.5
	l10.691-9.142l6.194-5.445C385.418,2.497,386.601,0.832,385.834,0.199z M132.783,129.769c-2.953,3.836-5.445,8.321-7.474,13.457
	c-2.381,6.016-3.601,11.453-3.681,16.32c-4.123-1.092-8.406-2.694-12.854-4.83c-5.295-2.564-9.608-5.396-12.939-8.493
	c-3.43-3.197-5.146-6.127-5.146-8.792c0-7.094,3.93-17.718,11.79-31.873c1.104-1.998,2.237-3.977,3.391-5.942L132.783,129.769z"/>
</svg>
