<?xml version="1.0" encoding="utf-8"?>
<!-- Generator: Adobe Illustrator 16.0.0, SVG Export Plug-In . SVG Version: 6.00 Build 0)  -->
<!DOCTYPE svg PUBLIC "-//W3C//DTD SVG 1.1//EN" "http://www.w3.org/Graphics/SVG/1.1/DTD/svg11.dtd">
<svg version="1.1" id="图层_1" xmlns="http://www.w3.org/2000/svg" xmlns:xlink="http://www.w3.org/1999/xlink" x="0px" y="0px"
	 width="488px" height="308px" viewBox="0 0 488 308" enable-background="new 0 0 488 308" xml:space="preserve">
<path d="M487.149,47.667c-0.467-0.9-8.219,0.684-23.257,4.751c-17.839,4.868-37.345,11.204-58.518,19.006
	c-24.628,9.096-48.204,18.988-70.761,29.65l-6.014,0.259l-8.202,0.25c3.034-5.335,5.185-9.72,6.452-13.154
	c1.033-2.935,1.267-4.602,0.7-5.001c-1.4-0.934-9.786,2.901-25.158,11.503c2.734-6.168,4.469-10.753,5.202-13.754
	c0.5-2.101,0.483-3.268-0.05-3.501c-1.034-0.534-4.368,1.351-10.004,5.652c-6.146,4.676-16.426,13.21-30.815,25.583
	c-1.847-0.075-3.694-0.125-5.546-0.125c-3.328,0-6.705,0.132-10.121,0.367c-0.804-0.188-1.65-0.415-2.582-0.717
	c-2.635-0.867-4.401-1.784-5.302-2.75l-24.408-29.81l-26.908-33.21c4.401-3.034,7.536-5.485,9.403-7.353
	c1.134-1.2,1.701-2.067,1.701-2.601c0-0.567-0.984-1.083-2.951-1.55c-2.601-0.6-6.602-0.984-12.004-1.15
	c7.569-5.435,13.304-10.037,17.205-13.804c2.801-2.701,4.102-4.318,3.901-4.852l-10.203,0.35c-7.603,1-15.104,2.701-22.507,5.102
	c-2.268-2.968-5.168-6.235-8.703-9.803c-5.035-5.068-8.369-7.352-10.003-6.852c-1.8,0.434,1.117,22.24,8.753,65.42
	c3.755,21.162,7.69,42.275,11.797,63.341c-21.86,9.759-38.16,20.437-48.9,32.032c-0.319,0.085-0.631,0.169-0.958,0.257
	c-12.637,3.4-21.173,5.901-25.608,7.502c-29.843,10.803-51.099,24.725-63.77,41.763c-4.425,5.935-7.754,12.208-10.023,18.81
	c-3.664-6.026-7.036-12.014-10.083-17.959c-3.801-7.503-6.535-13.771-8.203-18.807c-0.567-1.768-1-2.667-1.3-2.701
	c-0.3-0.066-0.684,0.768-1.15,2.502l-1.1,4.852c-1.901-4.002-3.518-7.17-4.852-9.504c-0.967-1.633-1.601-2.434-1.901-2.4
	c-0.3,0.033-0.417,0.967-0.35,2.801c0.82,25.107,9.746,51.007,26.741,77.693c2.171,10.505,7.422,20.22,15.772,29.14
	c3.834,4.067,7.619,7.136,11.354,9.202c3.768,2.068,6.735,2.719,8.903,1.951c4.501-1.634,14.788-14.455,30.859-38.462l17.105-25.958
	c5.568-8.502,9.053-13.487,10.453-14.955c4.968-5.234,14.388-10.369,28.259-15.404c6.52-2.377,12.707-4.254,18.577-5.656
	c1.98,2.857,4.163,5.559,6.554,8.101c-2.807,4.487-4.949,12.507-6.425,24.063c-0.719,5.552-0.942,10.019-0.675,13.411
	c-0.909,0.763-1.754,1.815-2.526,3.194c-0.934,1.601-1.267,2.751-1,3.451c0.167,0.434,0.934,0.667,2.301,0.7
	c1.166,0.054,2.189-0.092,3.082-0.418c-0.262,0.959-0.473,2.328-0.631,4.119c-0.167,2.233-0.167,4.067,0,5.502
	c0.2,1.601,0.55,2.45,1.05,2.551c0.5,0.066,1.284-0.55,2.351-1.851c0.967-1.167,1.917-2.718,2.851-4.651
	c0.136-0.281,0.259-0.564,0.388-0.846c0.139,0.464,0.29,0.93,0.462,1.396c0.7,1.967,1.467,3.334,2.301,4.102
	c0.434,0.4,0.884,0.566,1.351,0.5c0.4,0,0.75-0.25,1.05-0.75c0.833-1.201,1.5-3.651,2-7.353c0.464-3.305,0.511-5.813,0.143-7.53
	c1.264-1.195,2.598-2.564,4.009-4.123c6.057-6.773,9.998-12.877,11.836-18.314c13.451,6.435,28.575,9.662,45.381,9.662
	c1.064,0,2.105-0.029,3.159-0.044c-7.216,11.352-11.456,21.854-12.712,31.503c-0.27,2.216-0.34,4.22-0.253,6.058
	c-0.694,0.804-1.377,1.794-2.048,2.995c-0.9,1.634-1.217,2.734-0.95,3.301c0.267,0.534,0.983,0.768,2.15,0.701
	c0.838-0.05,1.585-0.22,2.241-0.506c0.14,0.269,0.286,0.52,0.444,0.741c-0.246,2.834-0.261,5.344-0.034,7.517
	c0.233,2.234,0.634,3.367,1.201,3.4c0.8,0.067,2.634-1.617,5.501-5.051c2.046-2.484,3.571-4.591,4.584-6.328
	c0.207,1.504,0.669,3.093,1.418,4.777c1.066,2.301,1.983,3.451,2.75,3.451c0.934-0.033,1.984-2.534,3.151-7.502
	c0.706-2.966,1.166-5.27,1.39-6.939c7.57-5.885,13.736-12.981,18.467-21.32c4.309-7.587,7.563-14.528,9.769-20.828
	c14.316-3.134,27.215-8.088,38.704-14.853l28.601,4.422l7.803,0.649c0.566-0.766,0.767-1.983,0.6-3.65
	c-0.233-2.701-1.417-6.318-3.551-10.854c20.939,5.002,31.91,6.669,32.91,5.002c0.5-0.801,0.2-2.635-0.9-5.502
	c-1.634-4.201-4.734-9.336-9.303-15.404c13.004-2.901,23.773-5.785,32.31-8.653c7.836-2.601,11.754-4.484,11.754-5.651
	c0-1-1.45-2.184-4.352-3.551c-5.168-2.435-14.321-5.119-27.458-8.053c4.734-3.168,8.636-6.369,11.703-9.604
	c2.435-2.601,3.534-4.168,3.301-4.701c-0.467-1.066-3.15-1.967-8.052-2.701l-17.405-0.7c4.868-3.768,8.603-7.369,11.203-10.803
	c2.001-2.701,2.817-4.401,2.451-5.102c-0.601-1.101-3.901-1.15-9.903-0.15c-7.581,1.248-18.948,4.126-34.079,8.627
	c-0.976-1.241-2.002-2.464-3.104-3.662l40.534-26.421c18.056-11.772,30.827-19.948,38.329-24.537
	c9.827-0.434,17.095-1.091,21.79-1.971c3.501-0.667,5.251-1.367,5.251-2.101c0-0.767-0.95-1.75-2.851-2.951
	c-1.7-1.101-3.701-2.084-6.002-2.951c13.07-2.801,22.841-5.302,29.31-7.502c5.001-1.701,7.502-2.984,7.502-3.851
	c0-0.7-1.384-1.334-4.151-1.901l-11.209-0.484c7.211-5.001,12.668-9.16,16.36-12.47C486.05,50.985,487.684,48.734,487.149,47.667z"
	/>
</svg>
