<?xml version="1.0" encoding="utf-8"?>
<!-- Generator: Adobe Illustrator 16.0.0, SVG Export Plug-In . SVG Version: 6.00 Build 0)  -->
<!DOCTYPE svg PUBLIC "-//W3C//DTD SVG 1.1//EN" "http://www.w3.org/Graphics/SVG/1.1/DTD/svg11.dtd">
<svg version="1.1" id="图层_1" xmlns="http://www.w3.org/2000/svg" xmlns:xlink="http://www.w3.org/1999/xlink" x="0px" y="0px"
	 width="936px" height="609px" viewBox="0 0 936 609" enable-background="new 0 0 936 609" xml:space="preserve">
<path d="M921.169,41.021c9.695-12.248,14.327-20.667,13.853-25.227c-0.433-3.999-4.615-7.098-12.546-9.297
	c-6.864-1.866-15.495-2.849-25.892-2.949l-6.348,0.35c-2.433-0.066-8.598,4.016-18.494,12.246c-3.705,3.075-6.742,5.755-9.12,8.042
	c-1.518-0.042-3.054-0.076-4.614-0.096c4.21-5.854,7.01-11.419,8.387-16.693c0.399-1.6,0.149-3.183-0.75-4.749
	c-0.934-1.566-2.116-2.399-3.549-2.499c-5.332-0.433-14.129,0-26.392,1.299c-11.963,1.233-19.193,2.399-21.692,3.499
	c-2.166,0.933-7.381,5.814-15.646,14.645c-3.376,3.616-6.046,6.546-8.026,8.807c-2.143,0.277-4.284,0.561-6.421,0.863l1.052-2.423
	c2.1-5.131,3.049-9.264,2.85-12.396c-0.101-1.633-0.384-2.732-0.85-3.299c-0.567-0.733-1.717-1.166-3.449-1.299
	c-2.466-0.2-9.014,0.733-19.644,2.799c-11.496,2.266-18.344,4.282-20.543,6.048c-2.066,1.633-5.749,6.548-11.047,14.745
	l-4.424,7.102c-1.919,0.53-3.794,1.068-5.63,1.616c0.98-3.283,1.693-6.588,2.106-9.917c0.5-3.999,0.399-6.531-0.3-7.598
	c-0.434-0.566-1.033-0.883-1.8-0.95c-2.232-0.066-8.83,2.049-19.793,6.348c-11.297,4.432-17.794,7.647-19.494,9.646
	c-1.532,1.767-4.748,7.814-9.646,18.145c-1.771,3.708-3.452,7.319-5.051,10.839c-12.692,9.678-23.98,21.445-33.837,35.346
	c-6.714,9.517-12.368,19.483-16.978,29.892c-14.322-2.204-29.505-2.883-45.541-2.048c-0.467-0.45-0.948-0.901-1.46-1.353
	c-22.659-20.093-44.269-34.872-64.829-44.335c-18.827-8.697-31.706-10.879-38.637-6.548c-1.633,1.033-2.666,2.816-3.1,5.348
	c-0.366,2.2-0.232,4.449,0.4,6.748c1.466,5.265,2.732,16.461,3.799,33.589c0.786,12.712,1.088,22.217,0.909,28.534
	c-16.107,5.581-33.041,12.246-50.843,20.05c-6.701,2.954-16.048,7.27-27.997,12.924c-0.016-0.108-0.024-0.222-0.044-0.328
	c-0.833-4.465-5.898-8.531-15.195-12.196c-5.265-2.066-15.378-5.032-30.34-8.897c-4.165-1.066-8.447-2.349-12.846-3.849
	c-3.665-1.267-5.898-1.966-6.698-2.1c-1.266-0.233-5.265,0.717-11.995,2.849c-4.499,1.4-8.298,2.683-11.397,3.849
	c-1,0.333-1.449,0.649-1.349,0.949c0.066,0.233,0.533,0.55,1.399,0.95l6.897,2.549l12.946,4.849l-15.995-3.699l-5.348-1.799
	l-3.199-1c-0.866-0.1-1.866,0.05-2.999,0.45l-19.893,7.797c-1,0.367-1.283,0.75-0.85,1.15c0.333,0.333,1.233,0.716,2.699,1.149
	l18.744,4.599c7.858,2.086,14.36,4.085,19.522,5.999c-0.158-0.015-0.322-0.037-0.479-0.051c-6.198-0.567-11.096-0.317-14.695,0.75
	c-1.461,0.438-2.626,0.999-3.53,1.668c-2.601-0.455-5.304-0.993-8.116-1.618c-7.064-1.566-14.229-3.565-21.493-5.998
	c-1.366-0.5-2.533-0.766-3.499-0.799l-2.649,0.3c-2.333,0.6-5.698,1.833-10.097,3.699c-4.932,2.099-8.43,3.865-10.497,5.298
	c-0.966,0.667-1.549,1.233-1.749,1.699c-0.233,0.533,0.017,0.9,0.75,1.1l12.046,4.099c6.498,2.333,12.463,4.682,17.895,7.048
	c-7.531-0.367-13.646-1.116-18.344-2.25c-4.898-1.166-9.63-3.082-14.195-5.748c-1.2-0.7-2.266-1.116-3.199-1.25l-3.299,0.35
	c-5.665,1.466-12.696,4.565-21.093,9.297c-1.866,1.033-2.882,1.883-3.049,2.549c-0.167,0.7,0.517,1.516,2.05,2.449
	c6.098,3.699,17.86,7.914,35.288,12.646c3.731,1.025,7.346,1.945,10.853,2.77c-13.123,0.612-25.394,0.494-36.794-0.37
	c-11.596-0.933-20.643-2.482-27.141-4.648c-5.231-1.766-8.314-2.383-9.247-1.85c-0.866,0.5-0.383,2.383,1.45,5.648
	c10.497,18.827,23.375,35.222,38.637,49.184c4.361,3.99,9.18,8.036,14.427,12.136c-4.659,0.31-9.696-0.376-15.126-2.089
	c-4.298-1.366-16.878-7.397-37.738-18.094c-20.726-10.597-32.589-16.345-35.588-17.244l-4.149-0.9
	c-0.933-0.033-2.066,0.183-3.399,0.65c-1.633,0.6-4.765,2.216-9.397,4.849c-3.665,2.099-6.564,3.815-8.697,5.148
	c-1.466,0.933-2.2,1.516-2.2,1.75c-0.033,0.3,0.816,0.517,2.549,0.65c3.899,0.267,7.098,0.766,9.597,1.5
	c5.198,1.533,9.747,4.249,13.646,8.147l-18.994-5.099l-6.798-2.099c-1.766-0.533-3.365-0.717-4.798-0.55
	c-1.366,0.167-2.932,0.733-4.698,1.699l-9.647,4.798c-5.365,2.599-8.864,4.332-10.497,5.198c-2.433,1.3-3.532,2.266-3.299,2.899
	c0.267,0.667,2.016,1.033,5.249,1.1c6.864,0.2,14.528,1.216,22.992,3.049c9.997,2.199,18.061,4.965,24.192,8.297l17.245,9.797
	c11.996,6.698,19.277,10.513,21.843,11.447c-9.764-0.4-19.46-2.05-29.09-4.949c-7.798-2.332-16.995-5.981-27.591-10.946
	c-8.464-3.932-18.244-7.364-29.34-10.296c-7.764-2.066-13.079-3.232-15.945-3.499l-1.849-0.4l-3.049,0.5
	c-1.6,0.4-5.398,1.982-11.396,4.749c-4.365,1.966-8.064,3.699-11.096,5.198c-1.533,0.733-2.35,1.299-2.449,1.699
	c-0.067,0.367,0.417,0.716,1.449,1.05l12.046,2.349c8.064,1.966,14.645,4.749,19.743,8.347L67.756,304.8l-9.697-2.449
	c-10.896-3.166-18.127-4.132-21.693-2.899c-2.499,0.833-8.431,3.399-17.794,7.697c-9.864,4.566-15.378,7.365-16.545,8.398
	c-1.366,1.266-2.033,2.082-1.999,2.449c0.066,0.466,1.116,0.716,3.149,0.749c9.497,0.267,25.875,3.649,49.134,10.146
	c22.759,6.364,40.803,12.496,54.132,18.394c17.194,7.598,34.205,10.031,51.033,7.299c12.929-2.1,29.39-8.215,49.384-18.345
	l5.898-2.999c19.127-9.73,35.022-17.511,47.685-23.342c1.016-0.467,2-0.915,2.957-1.35c10.68,6.84,22.487,13.82,35.43,20.943
	c1.23,0.53,2.637,1.085,4.184,1.659c6.471,7.86,14.02,11.997,22.657,12.386c0.723,0,1.214-0.308,1.493-0.899
	c1.805,0.484,3.379,0.789,4.706,0.899l8.047-0.5l1.584-0.493c1.448,0.404,2.87,0.803,4.246,1.192
	c3.857,4.563,9.846,8.135,18.012,10.697c1.389,0.432,2.691,0.793,3.945,1.115c-6.633,1.723-13.633,3.129-21.039,4.183l-25.192,3.199
	c-62.379,7.697-109.68,15.128-141.903,22.292c-56.247,12.517-89.244,27.221-99.006,44.108c-7.033,1.758-13.607,3.829-19.705,6.226
	c-9.764,3.832-15.595,7.581-17.495,11.246c-6.298,12.196-9.997,21.227-11.096,27.092c-0.933,5.131,0.033,8.497,2.899,10.097
	c2.266,1.266,12.596,0.55,30.99-2.149c4.274-0.624,8.077-1.238,11.454-1.845c0.328,1.096,0.684,2.187,1.056,3.274
	c-1.5,0.541-3.436,1.347-5.812,2.419c-10.53,4.731-19.044,9.08-25.542,13.046c-8.197,4.965-12.413,8.83-12.646,11.596
	c-0.333,3.898,1.533,10.264,5.598,19.094c3.765,8.23,7.147,13.996,10.146,17.295c1,1.066,2.899,1.599,5.698,1.599
	c1.533,0.034,11.046-3.915,28.541-11.846c10.211-4.646,17.57-8.178,22.109-10.611c2.225,2.14,4.554,4.233,6.995,6.278
	c-3.189,2.737-7.208,6.546-12.06,11.431c-10.463,10.497-16.378,18.044-17.744,22.643c-0.2,0.733-0.083,1.55,0.35,2.449l1.25,1.949
	c3.832,5.165,11.879,10.23,24.142,15.195c11.129,4.498,19.26,6.681,24.392,6.548c1.933-0.033,11.696-5.698,29.291-16.994
	c5.579-3.574,10.304-6.634,14.208-9.199c6.282,2.018,12.536,3.751,18.762,5.198c-6.436,9.106-10.368,16.077-11.777,20.895
	c-0.366,1.2-0.45,2.483-0.25,3.85c0.167,1.299,0.483,2.266,0.95,2.898c3.265,4.365,11.429,7.198,24.492,8.497
	c6.998,0.667,14.612,0.85,22.842,0.55c2.999-0.133,5.565-0.466,7.698-0.999c2.599-0.634,5.248-1.717,7.947-3.249
	c2.699-1.533,11.113-9.063,25.242-22.593c3.284-3.141,6.193-5.946,8.753-8.438c26.34-6.201,54.794-22.693,85.366-49.493
	c13.062-11.43,25.175-23.659,36.338-36.688c10.097-11.729,17.694-22.06,22.792-30.989c2.666-4.665,5.282-11.363,7.848-20.094
	c2.6-9.597,4.448-16.245,5.548-19.943c2.454-8.187,4.937-15.021,7.447-20.518c26.888,7.32,53.449,12.314,79.679,14.967
	c0.973,0.466,1.953,0.919,2.944,1.352l5.549,1.649c3.832,1,6.798,1.45,8.896,1.35c2.658-0.104,5.137-0.633,7.441-1.569
	c2.181-0.018,4.516-0.131,7.006-0.34l4.646,5.358c8.564,9.197,13.646,13.162,15.245,11.896l22.193-19.244l10.106-8.852
	c4.095-1.244,8.19-2.605,12.286-4.094c3.124-1.137,6.237-2.345,9.341-3.613c15.489-5.459,30.787-11.549,45.891-18.279
	c17.428-7.731,31.173-14.796,41.236-21.193c31.989-20.26,51.633-42.003,58.931-65.229c2.382-7.576,3.4-15.059,3.089-22.451
	c1.687-3.639,2.684-7.367,2.959-11.188c0.5-6.931-2.016-13.279-7.547-19.044c-2.166-2.232-4.433-3.965-6.798-5.198
	c-0.978-0.525-1.851-0.895-2.63-1.126c-9.771-19.473-23.914-36.231-42.455-50.257c-2.104-1.596-4.298-3.164-6.548-4.713
	c7.471-3.084,16.015-6.344,25.642-9.782c15.128-5.365,31.723-12.246,49.783-20.643c19.561-9.13,37.805-18.627,54.732-28.491
	c41.686-24.325,65.961-45.168,72.825-62.529c1.066-2.633,1.217-5.615,0.45-8.947C922.162,43.452,921.722,42.185,921.169,41.021z
	 M78.371,287.201l-7.197-1.282l0.032-0.013C73.348,286.209,75.747,286.646,78.371,287.201z"/>
</svg>
