<?xml version="1.0" encoding="utf-8"?>
<!-- Generator: Adobe Illustrator 16.0.0, SVG Export Plug-In . SVG Version: 6.00 Build 0)  -->
<!DOCTYPE svg PUBLIC "-//W3C//DTD SVG 1.1//EN" "http://www.w3.org/Graphics/SVG/1.1/DTD/svg11.dtd">
<svg version="1.1" id="图层_1" xmlns="http://www.w3.org/2000/svg" xmlns:xlink="http://www.w3.org/1999/xlink" x="0px" y="0px"
	 width="437px" height="476px" viewBox="0 0 437 476" enable-background="new 0 0 437 476" xml:space="preserve">
<path d="M434.799,192.499c-4.153-1.994-10.694-3.971-19.615-5.932c-0.38-2.162-0.936-4.305-1.655-6.429
	c2.149-8.417,4.157-17.049,6.012-25.911c3.902-18.644,5.587-31.318,5.053-38.021c-0.4-5.136-3.735-13.424-10.006-24.864
	c-6.47-11.773-12.29-19.812-17.46-24.114c-0.5-0.434-1.033-0.684-1.601-0.75c-0.634-0.1-0.983,0.133-1.051,0.7l-0.65,17.61
	c-0.053,1.381-0.104,2.682-0.153,3.909c-1.543-2.875-3.27-5.89-5.199-9.062c-4.637-7.604-8.855-13.225-12.657-16.86
	c-0.534-0.5-1.018-0.734-1.451-0.701c-0.434,0.034-0.684,0.267-0.75,0.701l-1.101,18.411c-0.105,1.61-0.21,3.121-0.313,4.545
	c-2.397-3.972-5.943-8.937-10.645-14.901c-4.735-6.003-7.554-9.306-8.454-9.906c-0.634-0.4-1.067-0.567-1.301-0.5
	c-0.268,0.067-0.45,0.417-0.551,1.051l-1.901,17.51c-0.212,2.027-0.405,3.88-0.578,5.569c-2.56-5.005-5.995-10.113-10.328-15.325
	c-3.234-3.869-5.586-6.37-7.054-7.504l-1.101-0.05c-0.2,0.233-0.367,0.784-0.5,1.651l-0.851,16.409l-0.7,16.61
	c-0.101,0.6-1.401,3.168-3.902,7.704l-1.824,3.144c-2.815-4.916-4.611-7.753-5.38-8.497c-0.968-0.9-2.401-1.434-4.303-1.601h-2.098
	c-0.851-1.384-1.702-2.741-2.554-4.078c0.008-0.459,0.01-0.93-0.001-1.425c-0.034-3.569-0.601-6.454-1.701-8.655
	c-1.601-3.235-5.12-8.188-10.556-14.858c-4.369-5.336-7.205-8.639-8.506-9.906c-0.467-0.467-1.434-0.801-2.901-1l-2.751-0.15
	l-1.051,0.35l-0.26,0.145c-0.55-0.568-1.099-1.139-1.65-1.696c-0.014-0.168-0.026-0.33-0.041-0.5
	c-0.434-4.502-0.918-7.021-1.451-7.554l-8.654-7.804c-5.07-4.436-7.938-6.754-8.605-6.954l-4.152,0.4
	c-1.124,0.267-2.006,0.539-2.661,0.816c-0.716-0.493-1.432-0.984-2.151-1.462c-0.187-1.297-0.862-2.98-2.041-5.058
	c-1.435-2.568-2.869-4.352-4.303-5.353c-2.769-1.801-10.856-5.536-24.264-11.206c-14.108-5.97-23.447-9.456-28.017-10.456
	l-1.05-0.15c-2.468,0-5.036,0.834-7.705,2.501l-4.219,3.019c-3.869-3.423-6.601-5.367-8.188-5.82l-0.8-0.15
	c-2.768-0.133-10.123,0.617-22.063,2.251c-11.74,1.601-18.227,2.702-19.461,3.302c-0.934,0.434-2.151,1.751-3.652,3.952l-1.676,2.53
	l-3.527-1.379c-1.467-0.634-3.452-0.517-5.953,0.35c-1.648,0.578-5.096,2.352-10.329,5.312c-6.988-3.571-11.923-6.527-14.786-8.864
	c-0.667-0.567-2.268-0.25-4.803,0.95c-2.468,1.167-3.668,2.118-3.602,2.852c0.232,2.187,0.271,5.52,0.119,9.985
	c-1.84-0.954-4.46-2.445-7.873-4.482l-7.754-4.703c-0.967-0.567-2.718-0.117-5.253,1.351c-2.535,1.468-3.819,2.768-3.852,3.902
	c-0.035,0.782,0.089,5.496,0.372,14.122c-1.611-0.66-3.699-1.579-6.275-2.765l-6.754-3.302c-1.101-0.601-2.735,0.167-4.903,2.301
	c-2.235,2.201-3.185,4.219-2.852,6.053l3.089,17.332c-1.144-0.272-2.535-0.677-4.189-1.222l-5.553-1.751
	c-1.167-0.267-2.618,0.434-4.353,2.101c-1.734,1.734-2.452,3.235-2.151,4.503l9.556,34.47c3.274,11.91,5.701,20.989,7.297,27.29
	l-6.747,9.481c-4.469,6.704-6.821,11.256-7.054,13.658l-0.45,3.552c-0.014,0.138-0.014,0.26-0.026,0.395
	c-2.13,1.419-4.619,3.317-7.479,5.708c-2.535,2.135-6.087,9.572-10.656,22.313C2.935,182.71,0.717,189.831,0.25,193
	c-0.267,1.934-0.267,3.035,0,3.302c0.3,0.267,1.351,0.05,3.152-0.65c3.787-1.527,10.701-5.382,20.722-11.55
	c-1.043,5.777-0.935,13.073,0.34,21.906c1.435,10.006,3.969,19.144,7.604,27.416c1,2.301,1.784,3.319,2.352,3.052l1.551-2.852
	c0.602-1.276,2.243-5.758,4.913-13.411c0.304,7.827,2.338,15.351,6.144,22.565c0.601,1.135,1.134,1.685,1.601,1.651
	c0.534-0.033,1.117-0.7,1.751-2.001c1.334-2.668,4.219-9.472,8.655-20.412c1.047-2.604,2.017-5.055,2.915-7.362
	c0.439,2.415,1.149,5.479,2.138,9.213c0.317,1.228,0.63,2.364,0.941,3.458c-4.967,5.101-8.51,10.881-10.597,17.354
	c-1.901,5.903-2.468,12.174-1.701,18.812c0.7,6.203,2.418,11.773,5.153,16.709c0.638,1.15,1.339,2.195,2.07,3.192
	c0.158,1.042-0.063,2.658-0.669,4.862c-0.601,2.168-0.65,4.152-0.15,5.953l4.353,12.908c2.201,6.369,3.302,9.905,3.302,10.605
	l-3.602,2.852l-4.752,3.702c-2.968,2.568-5.17,4.687-6.604,6.354c-1.752,2.059-2.905,4.023-3.474,5.897
	c-4.275,2.646-8.919,6.894-13.936,12.764c-5.203,6.037-9.689,12.474-13.458,19.311c-0.8,1.468-1,2.451-0.6,2.952
	c0.4,0.434,1.567,0.601,3.502,0.5c3.397-0.151,10.531-1.77,21.375-4.846c-6.755,10.14-11,17.796-12.72,22.956
	c-0.467,1.501-0.567,2.368-0.3,2.602c0.3,0.233,1.484,0.217,3.552-0.05c2.301-0.3,8.071-2.085,17.31-5.354
	c7.169-2.521,12.594-4.62,16.282-6.299c-3.219,6.172-5.192,11.22-5.876,15.104c-0.233,1.4-0.25,2.201-0.05,2.401
	c0.367,0.366,1.601,0.217,3.702-0.45c9.972-3.169,21.396-7.422,34.27-12.758l15.922-6.927l0.688,0.073
	c4.469-0.567,14.892-4.253,31.268-11.057c17.209-7.171,26.298-12.04,27.266-14.608c0.567-1.534,0.066-4.235-1.501-8.104
	l-3.802-8.154c-0.827-1.721-1.719-3.181-2.666-4.422c8.238,0.794,17.402,2.489,27.53,5.121c15.795,4.098,28.051,9.309,36.79,15.625
	l-2.82,12.941c-2.836,12.741-4.119,20.329-3.853,22.764c0.434,3.702,3.752,8.872,9.956,15.509
	c5.047,5.417,10.601,10.344,16.613,14.823c1.695,5.938,5.447,14.037,11.303,24.35c7.604,13.341,15.408,23.713,23.413,31.117
	c0.934,0.867,1.685,1.251,2.251,1.15l1.951-1.25c4.436-3.803,8.271-13.058,11.507-27.766c1.874-8.556,3.034-15.908,3.487-22.065
	c4.069,6.652,10.922,15.27,20.576,25.867c10.706,11.773,18.127,18.911,22.263,21.412c1.668,1.034,2.769,1.484,3.302,1.351
	c0.501-0.1,1.218-0.934,2.151-2.501c2.435-4.169,3.803-14.309,4.103-30.418c0.048-2.512,0.063-4.891,0.052-7.164l12.706,10.466
	c9.571,7.672,16.042,12.258,19.41,13.759c1.969,0.867,3.136,1.25,3.503,1.15c0.5-0.167,0.8-1.251,0.9-3.252
	c0.2-5.003-1.385-14.559-4.753-28.666c-2.901-12.007-4.986-19.595-6.254-22.764c-0.733-1.834-2.018-3.952-3.852-6.354
	c-1.301-1.734-4.136-4.803-8.505-9.205c-1.107-1.122-2.105-2.105-3.025-2.989c1.163-28.447,1.989-56.518,2.513-84.249
	c4.356-4.68,8.713-10.82,13.069-18.423c4.19-7.286,8.203-15.642,12.042-25.04c6.926-2.439,12.173-4.667,15.724-6.678
	c1.468-0.833,2.219-1.45,2.252-1.851s-0.634-0.9-2.001-1.501c-2.771-1.247-6.329-2.524-10.668-3.833l4.549-13.857
	c7.6-2.722,13.359-5.33,17.275-7.825c1.033-0.667,1.534-1.167,1.501-1.501c-0.034-0.3-0.501-0.617-1.401-0.951
	c-3.915-1.516-8.346-2.964-13.284-4.347c0.999-3.924,1.824-7.568,2.486-10.951c0.327-0.102,0.654-0.204,0.992-0.311
	c8.238-2.635,15.143-5.486,20.712-8.555c1.201-0.667,1.784-1.151,1.751-1.451C436.767,193.583,436.1,193.133,434.799,192.499z
	 M83.147,212.761l9.346-21.129c2.713-0.91,4.686-1.902,5.863-2.985l1.201-1.251c2.401-3.202,4.603-6.854,6.604-10.956
	c1.518-3.108,2.618-5.863,3.309-8.271c3.148-0.35,6.501-1.068,10.067-2.173c1.447,1.396,3.13,2.57,5.084,3.49
	c1.512,0.698,3.037,1.16,4.574,1.415c0.283,1.816,0.428,3.81,0.428,5.99c0,4.736-0.784,8.938-2.351,12.607
	c-1.534,3.635-6.12,10.889-13.758,21.762c-2.01,2.864-3.8,5.425-5.386,7.702c-1.772-1.379-3.973-2.516-6.621-3.399
	c-3.102-1.001-6.821-1.268-11.157-0.801c-3.12,0.324-6.108,0.967-8.966,1.927L83.147,212.761z"/>
</svg>
