<?xml version="1.0" encoding="utf-8"?>
<!-- Generator: Adobe Illustrator 16.0.0, SVG Export Plug-In . SVG Version: 6.00 Build 0)  -->
<!DOCTYPE svg PUBLIC "-//W3C//DTD SVG 1.1//EN" "http://www.w3.org/Graphics/SVG/1.1/DTD/svg11.dtd">
<svg version="1.1" id="图层_1" xmlns="http://www.w3.org/2000/svg" xmlns:xlink="http://www.w3.org/1999/xlink" x="0px" y="0px"
	 width="514px" height="514px" viewBox="0 0 514 514" enable-background="new 0 0 514 514" xml:space="preserve">
<path d="M509.601,407.681c-2.299-5.898-5.515-11.063-9.646-15.495c-4.369-4.694-8.513-7.077-12.435-7.179
	c0.801-0.613,1.51-1.308,2.087-2.118c3.199-4.466,5.132-7.965,5.799-10.498c1.033-3.799,0.517-8.131-1.55-12.996l-2.522-7.612
	c2.121-0.891,3.95-2.064,5.472-3.534c1.699-1.666,2.799-3.432,3.299-5.299c1.066-3.898,2.267-14.545,3.6-31.939l1.649-24.943
	c0.333-3.666-0.884-6.865-3.649-9.598l-8.747-6.797c-1.201-0.89-2.28-1.673-3.266-2.375c0.095-1.109,0.184-2.078,0.267-2.874
	c0.514-4.88-0.445-9.323-2.859-13.337c0.361-8.293,0.447-12.879,0.26-13.755c-0.2-1.033-0.684-1.933-1.449-2.699
	c-0.102-0.104-0.21-0.193-0.317-0.284c-0.703-14.88-3.677-29.998-8.931-45.353c-3.445-10.092-7.06-18.277-10.841-24.579l3.793,0.586
	c2.533,0.3,4.133,0.066,4.799-0.7l0.45-1.35c0.133-0.7,0.116-1.333-0.051-1.899c-0.666-2.366-4.765-10.73-12.296-25.093
	c-3.645-6.931-6.606-12.375-8.904-16.372c0.197-1.154,0.307-2.202,0.307-3.122c0-0.7-0.233-1.899-0.699-3.599
	c-1.366-5.798-6.865-14.779-16.495-26.942c-7.332-9.264-12.613-15.379-15.846-18.345c-1.267-1.166-3.282-1.533-6.049-1.1
	c-1.732,0.3-4.531,1.133-8.397,2.499c-1.593,0.567-2.986,1.03-4.199,1.4c-1.598-0.829-3.21-1.519-4.837-2.073
	c-0.474-0.346-0.961-0.677-1.469-0.984c-10.898-10.854-23.599-20.024-38.131-27.484c-8.379-4.279-17.771-8.104-28.164-11.482
	c0.344-5.405,0.47-8.87,0.372-10.362c-0.166-3.366-0.982-5.548-2.449-6.548c-5.064-3.399-14.346-6.331-27.842-8.797
	c-11.329-2.066-18.461-2.932-21.394-2.599c-1.434,0.133-3.166,1.366-5.198,3.699c-0.866,0.999-2.126,2.626-3.762,4.854
	c-2.572-0.414-5.632-0.848-9.185-1.305c-11.264-1.433-19.128-1.616-23.593-0.55c-1.366,0.3-1.866,1.516-1.5,3.649
	c0.219,1.268,1.074,3.591,2.542,6.926c-20.768,2.375-40.031,8.97-57.775,19.816c-8.131,4.965-14.879,10.23-20.244,15.795
	c-5.132,5.365-8.231,10.197-9.297,14.496c-0.073,0.287-0.109,0.574-0.161,0.86c-0.853,0.573-1.519,1.289-1.999,2.146
	c-0.265-0.021-0.538-0.056-0.79-0.056c-1.533,0.033-3.366,0.866-5.498,2.499c-2.2,1.733-3.816,3.649-4.849,5.749
	c-0.948,1.929-1.917,4.115-2.909,6.557c-4.372,4.865-9.465,11.887-15.286,21.085c-3.499,5.465-6.432,10.48-8.797,15.045
	c-2.333,4.465-3.366,6.981-3.099,7.548c0.367,0.733,2.366,1.383,5.998,1.949l7.228,0.213c-1.362,5.639-2.39,10.505-3.079,14.583
	c-1.799,10.563-1.616,15.646,0.55,15.246c1.633-0.3,4.749-4.132,9.347-11.497c1.656-2.651,3.544-5.764,5.665-9.336
	c1.653,2.516,3.592,5.061,5.832,7.637c3.099,3.566,4.982,5.282,5.648,5.148c1.333-0.267,3.532-6.431,6.598-18.495
	c3.081-12.179,5.312-24.949,6.708-38.3c1.148-2.256,1.932-3.924,2.34-4.987c1.133-2.966,1.7-6.098,1.7-9.397
	c0-0.312-0.026-0.611-0.051-0.911c0.003-0.002,0.005-0.004,0.008-0.006c1.051-0.188,2.083-0.52,3.092-1.033
	c10.597-5.465,23.56-10.014,38.889-13.646c12.421-2.944,23.526-4.561,33.345-4.883c0.863,0.708,1.791,1.294,2.775,1.77
	c-2.273,2.59-3.688,4.25-4.229,4.962c-2.199,2.966-3.166,5.282-2.899,6.948l0.5,1.449l1.149,0.95
	c1.933,1.066,10.13,3.116,24.593,6.148c15.562,3.266,25.093,4.482,28.592,3.649c1.966-0.466,4.999-2.566,9.097-6.298
	c2.098-1.891,3.739-3.534,4.94-4.937c0.572,0.19,1.155,0.385,1.759,0.588l11.296,3.999c4.232,1.5,7.048,2.333,8.448,2.499
	c0.899,0.1,1.482-0.383,1.749-1.449l0.123-1.351c0.907,0.529,1.816,1.074,2.727,1.65c8.117,5.138,17.319,12.6,27.601,22.37
	c0.145,0.355,0.299,0.706,0.464,1.052c0.235,1.234,0.567,2.441,0.98,3.627l-2.903,5.141c-2.966,6.365-3.932,11.247-2.898,14.646
	c0.8,2.666,4.299,8.897,10.496,18.694c3.962,6.297,7.493,11.444,10.598,15.455c-8.271,9.23-20.129,22.903-35.57,41.014
	c-1.909,0.833-3.634,1.589-5.168,2.264c-2.037,0.887-3.865,1.695-5.494,2.429c-4.301-5.02-8.601-9.185-12.9-12.476
	c-12.996-9.997-26.342-12.846-40.039-8.548c-1.432,0.467-2.715,1-3.848,1.6c-0.279,0.156-0.521,0.3-0.725,0.434
	c-18.782-15.323-31.049-24.244-36.765-26.727c-2.899-1.233-5.499-1.933-7.798-2.099c-2.566-0.133-4.382,0.417-5.448,1.649
	c-0.8,0.9-1.083,2.533-0.85,4.898c0.2,2.2,0.783,4.532,1.75,6.998c1.399,3.566,6.065,11.23,13.996,22.994l0.104,0.152
	c-12.205,5.016-22.907,13.255-32.095,24.741c-9.764,12.196-18.628,26.142-26.592,41.838c-5.356,10.516-9.394,19.793-12.125,27.845
	c-1.355,0.653-2.676,1.339-3.92,2.097c-1.069,0.648-2.105,1.363-3.125,2.111c-1.918,1.239-3.662,2.534-5.222,3.887
	c-2.417,2.099-5.142,5.073-8.166,8.903c-1.61-0.665-3.297-1.239-5.08-1.706c-1.672-0.435-3.548-0.791-5.608-1.076l-0.99-1.373
	c-10.331-14.129-17.178-27.275-20.544-39.438c-2.899-10.397-3.216-19.895-0.95-28.492c1.466-5.599-12.83-26.326-42.888-62.182
	c-15.096-17.995-30.508-35.64-46.236-52.935c-0.667-0.767-3.099-1.1-7.298-1c-3.899,0.133-6.765,0.483-8.598,1.05
	c-3.099,0.933-4.049,2.599-2.849,4.999c2.699,5.398,22.876,42.121,60.532,110.168c13.196,23.854,24.428,44.085,33.713,60.73
	c-4.072,1.063-7.666,2.809-10.77,5.25c-4.865,3.799-7.781,8.498-8.748,14.097c-0.036,0.207-0.054,0.415-0.081,0.622
	c-0.124,0.125-0.251,0.244-0.369,0.377c-3.099,3.566-5.715,7.765-7.848,12.597c-0.852,1.926-1.561,3.788-2.134,5.593
	c-7.307,4.934-11.75,10.849-13.312,17.75c-0.434,1.967-0.467,4.266-0.1,6.898c0.433,3.199,1.383,5.682,2.849,7.447
	c1.533,1.934,3.565,3.516,6.098,4.749c3.432,1.733,7.098,2.35,10.997,1.85c2.405-0.28,4.8-1.06,7.185-2.332
	c1.271-0.202,2.625-0.458,4.062-0.767c4.599-1,7.914-1.967,9.947-2.899c2.433-1.066,3.716-1.883,3.849-2.449
	c0.167-0.899-1.5-2.066-4.999-3.499c-0.443-0.188-0.858-0.367-1.279-0.549c0.085-0.104,0.175-0.21,0.259-0.315
	c3.49,1.5,7.545,2.851,12.174,4.05c-1.788,1.256-2.558,2.211-2.307,2.862c0.167,0.5,1.533,1.116,4.099,1.85
	c1.28,0.375,3.009,0.695,5.162,0.965c1.143,4.803,2.784,10.623,4.92,17.455l-2.785,7.473c-2.299,6.864-3.549,12.663-3.749,17.395
	c-0.113,2.539,1.028,6.272,3.402,11.181c-3.188,6.339-8.448,14.818-15.798,25.459c-6.665,9.664-11.846,16.762-15.545,21.294
	c-0.866,1.066-2.216,3.948-4.049,8.647c-1.699,4.398-2.833,7.714-3.399,9.947c-0.333,1.299-0.066,2.349,0.8,3.148l3.149-0.05
	c1.283-0.938,16.751-17.311,46.401-49.113c0.063,0.094,0.122,0.183,0.185,0.277c3.72,5.513,7.351,10.601,10.896,15.278
	c1.3,4.15,2.896,9.112,4.799,14.913c4.999,15.096,8.165,23.859,9.498,26.292c1.033,1.866,3.582,4.032,7.647,6.499
	c4.832,2.932,9.547,4.632,14.146,5.098c4.999,0.5,11.38-0.366,19.145-2.599c7.564-2.199,12.13-4.382,13.696-6.548
	c2.999-4.066,6.231-10.348,9.697-18.845c2.433-5.898,5.548-14.146,9.347-24.743l8.248-22.993c1.87-4.985,3.534-9.752,5.019-14.328
	c1.25-1.618,2.573-3.256,3.979-4.916l2.959-3.255c6.941,6.943,18.73,19.221,35.38,36.845c24.792,26.226,37.688,39.655,38.688,40.288
	c1.232,0.8,2.249,1.1,3.049,0.9c1-0.267,1.55-1.25,1.649-2.949c0.533-9.23,0.033-14.862-1.499-16.896
	c-10.031-13.129-25.36-35.923-45.987-68.38c-8.103-12.769-14.651-23.24-19.655-31.429c-0.045-0.663-0.09-1.323-0.139-2.012
	c-0.85-11.922-1.413-20.131-1.692-24.666c5.742-11.06,14.513-22.099,26.335-33.117c0.048-0.044,0.096-0.087,0.144-0.132
	l20.75,38.421c1.867,3.466,5.466,6.448,10.798,8.947c0.669,0.319,1.306,0.604,1.925,0.873c1.268,1.089,2.624,2.071,4.07,2.948
	c0.02,0.11,0.032,0.216,0.053,0.327c1.533,8.198,6.182,16.879,13.946,26.043c9.597,11.33,21.743,20.11,36.439,26.342
	c8.639,3.64,17.566,5.538,26.778,5.729c5.49,1.799,9.996,1.627,13.51-0.529c0.283-0.172,0.55-0.353,0.826-0.528
	c0.805-0.133,1.61-0.278,2.419-0.436c4.498,1.569,9.606,2.219,15.349,1.913c5.855-0.303,10.984-1.509,15.418-3.575
	c4.604,0.767,8.936,1.324,12.988,1.665c3.895,3.854,8.254,6.994,13.082,9.408c2.785,1.399,5.526,2.417,8.228,3.084
	c0.242,0.237,0.483,0.471,0.72,0.665c6.599,5.432,13.546,6.281,20.844,2.549c3.666-1.866,6.665-4.282,8.998-7.248
	c3.132-3.731,5.015-6.831,5.648-9.297C512.134,416.995,511.567,412.779,509.601,407.681z M395.514,173.621
	c1.731,3.462,3.983,8.211,6.769,14.274l1.5,3.199c1.966,3.732,3.865,5.565,5.698,5.498c1.212-0.07,2.424-0.945,3.636-2.608
	c1.63,5.259,3.137,10.789,4.512,16.604c3.398,14.529,5.099,27.542,5.099,39.039c0,0.136,0.014,0.289,0.03,0.445
	c-0.509,0.697-0.989,1.409-1.425,2.146c-1.777,0.317-4.431,0.947-8.003,1.907c-5.532,1.466-9.331,2.683-11.396,3.649
	c-1.6,0.767-2.816,1.85-3.649,3.249c-0.866,1.5-1.55,3.749-2.049,6.748l-8.647,51.936c-0.334,1.499-0.084,3.099,0.749,4.799
	c1.167,2.332,3.266,4.448,6.299,6.348c2.908,1.805,6.825,4.605,11.715,8.369l-0.327,2.193c-12.749-5.773-20.516-9.396-23.284-10.863
	c-1.751-0.918-3.57-1.5-5.456-1.761c-0.16-0.512-0.321-1.024-0.488-1.544l11.242-23.438c1.833-4.531,2.982-8.43,3.449-11.695
	c0.566-4,0.316-7.965-0.75-11.896l-9.646-36.34c-3.492-12.802-6.317-22.762-8.482-29.894c1.008-1.829,2.03-3.684,3.084-5.596
	c7.588-13.771,13.948-25.354,19.096-34.772C395.037,173.623,395.273,173.621,395.514,173.621z"/>
</svg>
