<?xml version="1.0" encoding="utf-8"?>
<!-- Generator: Adobe Illustrator 16.0.0, SVG Export Plug-In . SVG Version: 6.00 Build 0)  -->
<!DOCTYPE svg PUBLIC "-//W3C//DTD SVG 1.1//EN" "http://www.w3.org/Graphics/SVG/1.1/DTD/svg11.dtd">
<svg version="1.1" id="图层_1" xmlns="http://www.w3.org/2000/svg" xmlns:xlink="http://www.w3.org/1999/xlink" x="0px" y="0px"
	 width="371px" height="371px" viewBox="0 0 371 371" enable-background="new 0 0 371 371" xml:space="preserve">
<path d="M367.302,291.707c-3.032-21.991-7.631-42.732-13.795-62.225c-8.13-25.623-17.477-47.964-28.038-67.023
	c-6.098-11.029-14.395-23.624-24.891-37.785l-10.096-14.245c-3.132-4.865-5.548-9.496-7.247-13.894l-1.8-4.648
	c-3.064-9.263-6.014-16.06-8.846-20.392c-2.332-3.532-5.432-6.547-9.297-9.046c-1.432-4.532-4.148-8.296-8.146-11.295
	c-4.031-2.999-8.613-4.615-13.744-4.848c-0.699-11.162-4.881-21.475-12.545-30.938C220.66,5.206,211.414,0.125,201.119,0.125
	c-12.929,0-24.107,3.599-33.537,10.795c-9.796,7.497-18.126,19.192-24.99,35.086l-4.998,0.7c-3.765-1.732-8.063-1.732-12.895,0
	c-5.031,1.866-7.747,4.765-8.146,8.696c-4.265,2.799-7.897,5.948-10.896,9.446c-1.433,1.699-2.949,4.065-4.548,7.097l-3.548,7.347
	c-1.433,3.065-2.799,5.647-4.099,7.747c-1.732,2.799-4.032,5.914-6.897,9.346c-19.226,23.457-33.403,42.549-42.533,57.277
	c-12.128,19.525-21.558,40.399-28.289,62.624c-3.832,12.596-7.297,27.605-10.396,45.032C1.782,281.244,0,297.688,0,310.649
	c0,5.864,0.417,10.712,1.25,14.544c0.7,3.1,3.632,7.431,8.796,12.995c3.298,3.499,8.23,8.213,14.794,14.144
	c2.232,2,4.698,3.433,7.397,4.299c2.799,0.899,5.081,0.916,6.847,0.05c2.366-1.166,3.549-3.298,3.549-6.397l-0.05-0.699l-0.45-9.646
	c6.331,6.83,10.163,10.596,11.495,11.295c1.066,0.533,2.266,0.85,3.599,0.95c1.699,0.167,3.132-0.167,4.298-0.999
	c1.933-1.4,2.899-3.449,2.899-6.148l-0.2-2.748c-3.099-22.691-4.648-40.817-4.648-54.379c0-76.235,24.34-135.795,73.021-178.677
	c7.364,10.629,16.144,18.576,26.339,23.84l2.299,1.25c1.666,1.033,3.015,3.166,4.048,6.397c0.833,2.666,1.199,5.264,1.1,7.797
	l-2.849-2.349c-7.997-6.164-14.311-8.097-18.942-5.798c-3.565,1.766-5.664,5.415-6.297,10.946
	c-0.566,4.798-0.033,10.746,1.599,17.843c-3.731,4.698-9.896,13.528-18.492,26.49c-11.995,18.092-21.042,33.319-27.139,45.682
	c-3.332,6.797-5.881,15.66-7.647,26.588c-3.698,23.191-6.314,41.984-7.847,56.378c-1.233,11.495-1.916,21.975-2.049,31.437
	c-0.033,4.1,1.2,7.465,3.699,10.097c2.332,2.433,5.381,3.898,9.146,4.397c3.365,0.434,6.414,0.184,9.146-0.749
	c3.099-1.032,5.015-2.782,5.748-5.248l9.696-39.334c6.697-26.789,11.146-43.065,13.345-48.83c2.199-5.897,8.03-15.36,17.493-28.389
	c11.262-15.46,21.475-26.506,30.638-33.137c2.999,0.533,5.548,0.366,7.647-0.499c3.565-1.467,5.847-4.599,6.847-9.396l3.498-1.199
	l4.549-0.45c2.48,0.215,4.961,0.956,7.441,2.212c0.357,2.948,1.488,5.146,3.404,6.584c2.032,1.533,4.314,1.866,6.848,1
	c19.891,22.857,36.718,50.363,50.479,82.517c5.132,12.028,9.33,23.591,12.596,34.687c2.799,9.496,4.398,16.692,4.798,21.591
	c0.267,3.365,1.683,5.947,4.248,7.747c2.099,1.499,4.647,2.315,7.647,2.449c2.865,0.1,5.58-0.584,8.146-2.05
	c2.732-1.599,4.298-3.599,4.698-5.997c0.699-4.166,1.049-10.396,1.049-18.693c0-8.129-0.666-17.775-1.999-28.938
	c-1.133-9.43-2.916-21.309-5.348-35.636l-1.075-6.051c0.008-0.034,0.018-0.063,0.025-0.097c0.833-3.865,0.583-8.098-0.749-12.695
	c-1.134-3.95-2.604-7.051-4.4-9.33c-5.764-16.874-14.324-33.306-25.688-49.296c-5.266-7.397-11.146-14.578-17.644-21.542
	c0.366-2.465,0.434-5.364,0.2-8.696c-0.467-6.597-2.148-12.595-5.048-17.993c-1.532-2.833-3.365-4.282-5.498-4.349
	c-2.999-0.066-6.581,2.133-10.745,6.598c-1.468,1.576-2.801,3.187-4.024,4.827c-0.075-0.792-0.124-1.572-0.124-2.328
	c0-5.131,1.482-9.629,4.447-13.495c1.767-2.232,4.882-4.848,9.347-7.847c4.898-3.266,8.479-6.114,10.746-8.547
	c8.396,5.864,16.843,15.994,25.339,30.388c8.397,14.194,15.311,29.921,20.742,47.181c3.766,11.995,6.931,29.055,9.496,51.18
	c2.299,20.059,3.449,37.718,3.449,52.979c0,5.197-0.334,10.496-1,15.893l-0.2,2.6c0,2.266,0.65,4.281,1.949,6.047
	c0.767,1.066,2.232,2.732,4.398,4.998l2.849,3.898c2.366,3.133,4.349,6.564,5.948,10.297l1.099,2.698l1.1,2.349
	c0.767,1.2,1.85,2.116,3.249,2.75c1.433,0.633,2.916,0.85,4.448,0.649c1.699-0.233,3.199-0.983,4.498-2.249
	c1.267-1.232,2.149-2.699,2.649-4.398c1.332-4.765,2.249-9.563,2.749-14.395c1.565,2.399,3.132,4.981,4.697,7.747
	c1.866,3.365,3.116,5.931,3.749,7.697c0.633,1.732,1.849,3.065,3.648,3.998c1.766,0.933,3.665,1.267,5.697,0.999
	c1.833-0.266,3.482-1.099,4.948-2.498c1.766-1.633,2.749-3.682,2.949-6.148l0.25-8.746
	C370.65,322.678,369.534,308.067,367.302,291.707z"/>
</svg>
