<?xml version="1.0" encoding="utf-8"?>
<!-- Generator: Adobe Illustrator 16.0.0, SVG Export Plug-In . SVG Version: 6.00 Build 0)  -->
<!DOCTYPE svg PUBLIC "-//W3C//DTD SVG 1.1//EN" "http://www.w3.org/Graphics/SVG/1.1/DTD/svg11.dtd">
<svg version="1.1" id="图层_1" xmlns="http://www.w3.org/2000/svg" xmlns:xlink="http://www.w3.org/1999/xlink" x="0px" y="0px"
	 width="468px" height="390px" viewBox="0 0 468 390" enable-background="new 0 0 468 390" xml:space="preserve">
<path d="M461.938,113.756c-3.499-9.197-9.514-17.46-18.043-24.791c-8.364-7.197-18.327-12.812-29.889-16.844
	c-11.896-4.165-24.357-6.248-37.386-6.248c-15.395,0-31.121,2.882-47.182,8.647c-17.493,6.297-30.772,14.544-39.835,24.74
	c-1.533,1.732-2.582,3.065-3.148,3.999c-0.633,1.066-0.783,1.833-0.45,2.299c0.667,0.867,3.049,0.433,7.147-1.299
	c22.357-9.596,41.617-15.244,57.777-16.943c13.396-1.415,26.45-0.237,39.166,3.515c-14.752,0.172-29.174,3.343-43.265,9.53
	c-14.428,6.364-26.106,14.811-35.036,25.34c-1.366,1.632-2.366,3.215-2.999,4.748c-0.633,1.5-0.716,2.516-0.25,3.049l2.149,0.2
	c1.666-0.3,3.698-1.149,6.098-2.549c9.763-5.698,20.926-10.446,33.487-14.245c12.695-3.798,23.791-5.698,33.287-5.698
	c15.761,0,29.389,2.833,40.884,8.497c3.515,1.729,6.525,3.612,9.07,5.637c1.119,4.187,0.856,8.719-0.823,13.605
	c-1.899,5.631-5.381,10.796-10.445,15.494c-12.329,11.429-29.855,17.144-52.58,17.144c-13.695,0-30.538-3.016-50.53-9.047
	c-23.491-7.097-47.949-17.46-73.372-31.088l-4.148-3.499c-7.73-7.264-15.944-11.795-24.641-13.595l-11.096-2.449
	c-2.154-0.569-3.504-1.111-4.058-1.625c-0.07-0.739-0.101-1.395-0.09-1.966c8.358-6.797,18.07-18.26,29.138-34.395
	c6.265-9.13,11.563-17.776,15.894-25.94c4.166-7.83,5.865-12.162,5.099-12.995c-0.933-1-5.698,1.083-14.294,6.248
	c-9.897,5.931-19.86,13.278-29.889,22.042c-1.633-2.332-3.815-4.698-6.547-7.097c-2.399-2.132-4.365-3.582-5.898-4.348
	c1-14.161,1.133-26.557,0.4-37.186C195.006,5.115,193.99,0.233,192.591,0c-1.266-0.2-3.682,1.933-7.247,6.397
	c-3.699,4.631-7.464,10.379-11.296,17.243c-8.869,15.858-14.252,30.486-16.158,43.886c-7.274-2.986-13.587-5.139-18.928-6.45
	c-4.365-1.033-6.714-1.299-7.047-0.799c-0.833,1.333,2.466,6.831,9.896,16.494c7.708,10.03,14.759,17.274,21.156,21.748
	c0.083,0.146,0.151,0.299,0.235,0.444c0.574,0.99,1.184,1.923,1.81,2.83c0.073,0.112,0.137,0.204,0.189,0.269
	c0.004,0.005,0.01,0.01,0.015,0.016c3.402,4.835,7.538,8.476,12.431,10.88c3.911,1.928,7.258,2.764,10.062,2.545l0.088,0.815
	c-1.91,1.607-4.407,3.136-7.501,4.587l-9.346,3.648c-3.032,1.1-5.615,3.249-7.747,6.448c-0.337,0.511-0.639,1.031-0.925,1.557
	c-15.359,2.332-30.395,8.022-45.107,17.086c-14.828,9.163-25.49,19.392-31.988,30.688c-3.632,6.397-6.914,16.194-9.846,29.388
	c-1.366,6.098-3.182,16.094-5.448,29.988l-0.45,2.75c-1.198,7.189-3.045,13.442-5.519,18.788
	c-7.439-1.501-13.403-4.509-17.872-9.042c-4.632-4.698-6.948-10.313-6.948-16.844c0-5.198,1.167-9.946,3.499-14.244
	c2.299-4.332,5.948-8.547,10.946-12.646c2.432-1.966,3.365-3.565,2.799-4.798c-0.533-1.1-2.249-1.383-5.148-0.85
	c-6.098,1.232-11.646,5.147-16.644,11.745c-5.365,7.097-8.047,14.894-8.047,23.392c0,7.896,2.349,15.344,7.047,22.341
	c5.063,7.482,11.74,12.522,20.019,15.134c-1.274,1.101-2.611,2.11-4.024,3.01c-8.63,5.464-22.092,8.196-40.385,8.196
	c-5.598,0-8.597,0.749-8.996,2.249c-0.2,1.399,2.332,3.065,7.597,4.998c8.064,2.966,16.227,4.165,24.491,3.599
	c8.363-0.6,16.027-2.999,22.991-7.197c5.541-3.354,10.337-7.649,14.406-12.863c9.329-0.137,17.364-2.631,24.104-7.479
	c2.567,3.587,5.074,6.453,7.52,8.602c1.72,8.202,10.058,20.274,25.042,36.232c6.864,7.33,13.878,14.061,21.042,20.191
	c7.164,6.131,12.878,10.297,17.143,12.496c2.766,1.398,4.715,1.715,5.848,0.949c2.199-1.566-0.666-9.779-8.597-24.641
	c-7.896-14.764-17.644-30.237-29.24-46.423c4.646-3.546,11.571-9.292,20.793-17.253l19.792-17.393
	c5.098,0.865,9.613,0.299,13.545-1.699c3.664-1.833,6.138-4.542,7.446-8.111c2.697,0.49,5.433,0.67,8.208,0.529
	c-0.001,0.162-0.011,0.321-0.011,0.484c0,5.031,1.399,9.129,4.198,12.295c2.866,3.266,6.481,4.731,10.846,4.398
	c4.832,7.664,10.913,16.644,18.243,26.939l18.094,25.59c7.33,10.729,13.861,20.842,19.592,30.339l6.848,11.695
	c8.696,14.861,15.51,25.657,20.441,32.388c5.898,8.097,9.963,11.612,12.195,10.546c1.333-0.633,1.899-2.699,1.7-6.198
	c-0.434-6.63-3.266-18.309-8.497-35.035c-5.679-18.101-11.812-34.921-18.385-50.504c1.338-3.515,2.832-7.581,4.49-12.223
	c5.331-14.928,7.396-23.074,6.197-24.44c-0.666-0.733-6.098,1.449-16.293,6.548c-2.521,1.321-4.744,2.484-6.68,3.494
	c-7.864-16.435-14.754-31.065-20.66-43.879c-1-10.33-4.382-23.092-10.146-38.286c-5.432-14.228-9.08-21.342-10.946-21.342
	c-0.667,0-2.016,2.632-4.048,7.897c-2.874,7.653-5.928,13.404-9.158,17.295c-1.233-1.037-2.446-2.427-3.637-4.2
	c-1.6-2.399-2.399-4.382-2.399-5.948c0-3.099,0.95-6.131,2.849-9.097c1.766-2.799,3.765-4.715,5.998-5.748
	c2.366-1.1,4.499-2.516,6.397-4.249c1.817-1.671,3.647-3.845,5.49-6.521c0.313,0.111,0.627,0.221,0.958,0.323
	c10.262,3.232,23.424,8.713,39.484,16.444c22.258,10.763,38.118,17.91,47.582,21.442c18.692,7.031,35.303,10.546,49.83,10.546
	c29.389,0,52.313-5.766,68.773-17.294c15.428-10.796,23.142-24.974,23.142-42.534c0-1.613-0.083-3.183-0.208-4.73
	C466.082,130.97,465.202,122.268,461.938,113.756z M173.798,163.837c5.198,2.965,8.33,4.998,9.396,6.098
	c0.9,0.899,1.35,2.316,1.35,4.249c0,4.498-0.95,8.38-2.849,11.646c-0.661,1.142-1.49,2.258-2.469,3.352
	c-0.211-2.917-0.888-5.915-2.079-9c-1.466-3.799-3.016-5.698-4.648-5.698c-1.799,0-5.165,3.415-10.096,10.246
	c-5.698,7.897-9.68,16.043-11.945,24.441c-8.197,8.029-18.276,19.842-30.238,35.436c-4.595,5.988-8.354,11.139-11.308,15.48
	c-1.259-0.426-2.739-0.895-4.419-1.402c6.732-9.84,12.344-24.253,16.826-43.267c4.231-18.06,10.229-31.821,17.993-41.284
	c6.953-8.528,15.784-14.046,26.482-16.569C167.9,159.901,170.56,161.996,173.798,163.837z M129.526,162.03
	c-3.863,3.709-7.2,8.009-10.007,12.903c-4.432,7.664-7.714,16.943-9.846,27.839c-3.399,17.36-7.314,30.172-11.746,38.436
	c-2.878,5.332-6.576,9.886-11.08,13.673c-0.31,0.068-0.538,0.172-0.666,0.321c-0.048,0.06-0.071,0.155-0.082,0.269
	c-2.169,1.75-4.516,3.332-7.048,4.736c1.849-5.081,3.189-10.521,3.981-16.351c2.1-15.693,4.548-28.338,7.347-37.935
	c2.799-9.597,6.081-16.594,9.847-20.992C107.276,176.741,117.047,169.108,129.526,162.03z"/>
</svg>
