<?xml version="1.0" encoding="utf-8"?>
<!-- Generator: Adobe Illustrator 16.0.0, SVG Export Plug-In . SVG Version: 6.00 Build 0)  -->
<!DOCTYPE svg PUBLIC "-//W3C//DTD SVG 1.1//EN" "http://www.w3.org/Graphics/SVG/1.1/DTD/svg11.dtd">
<svg version="1.1" id="图层_1" xmlns="http://www.w3.org/2000/svg" xmlns:xlink="http://www.w3.org/1999/xlink" x="0px" y="0px"
	 width="309px" height="408px" viewBox="0 0 309 408" enable-background="new 0 0 309 408" xml:space="preserve">
<path d="M305.27,115.607c-1.832-4.765-4.981-9.146-9.446-13.145c-4.332-3.899-9.646-7.198-15.944-9.896
	c-7.297-3.166-15.561-5.281-24.791-6.348c-9.396-1.066-19.293-1-29.689,0.2c-20.737,2.448-39.339,8.117-55.809,16.999
	c1.69-6.909,2.142-14.437,1.329-22.597c-0.733-7.464-1.883-12.196-3.448-14.195c-0.768-0.966-1.934-0.483-3.499,1.449l-4.728,6.825
	c-0.286-0.263-0.573-0.526-0.871-0.777c-4.765-4.032-10.646-6.314-17.643-6.848c-20.292-27.49-35.537-46.399-45.733-56.729
	C86.966,2.415,81.369-1,78.203,0.299c-1.266,0.533-1.766,3.065-1.5,7.597c0.233,4.898,1.333,11.013,3.299,18.343
	C85,45.066,93.581,65.042,105.743,86.168c-1.466,8.663-0.133,17.193,3.998,25.59c1.975,4.008,4.368,7.442,7.179,10.305l-2.13,2.84
	c-1.233,1.5-2.649,2.516-4.249,3.049c-5.631,1.966-10.646,4.099-15.044,6.398c-2.222,1.185-4.119,2.342-5.706,3.473
	c-1.707,0.043-3.42,0.548-5.14,1.525c-1.966,1.1-3.715,2.682-5.248,4.748c-1.5,2.1-2.616,4.432-3.349,6.998l-5.398,1.949
	c-8.797,2.899-14.911,5.082-18.343,6.548c-9.563,4.065-19.093,9.479-28.589,16.244c-7.531,5.364-13.179,11.396-16.944,18.093
	c-3.732,6.664-4.798,12.496-3.199,17.494c0.899,2.766,2.416,4.898,4.548,6.397c2.965,2.065,7.264,3.065,12.895,2.999l13.595-0.55
	l13.095-1l9.524-0.335c-0.077,1.02-0.127,2.032-0.127,3.034c0,4.749,1.002,9.266,2.983,13.558c-0.391,0.605-0.78,1.207-1.184,1.837
	c-10.529,16.394-19.426,32.737-26.69,49.032c-3.432,1.965-5.364,3.465-5.798,4.498c-0.267,0.666-0.283,1.999-0.05,3.998
	l-12.995,40.885c-8.23,28.156-12.629,48.616-13.195,61.378l-0.05,1.8c0,2.465,0.316,4.364,0.95,5.697
	c0.4,0.833,0.85,1.316,1.349,1.449c0.7,0.167,1.616-0.316,2.749-1.449c1.466-1.433,3.083-3.765,4.849-6.997
	c1.199-2.232,3.332-6.881,6.397-13.944l9.497-21.942c3.532-8.097,8.58-19.376,15.145-33.838l8.646-19.243
	c0.1-0.133,0.917-0.633,2.449-1.499l2.399-1.749c0.1-0.233,0.067-1.4-0.1-3.499c-0.133-1.933-0.05-3.065,0.25-3.399
	c5.764-6.33,11.679-13.195,17.743-20.592c7.738-9.453,13.631-17.297,17.702-23.551l3.472-0.147c0.144,0.046,0.32,0.085,0.569,0.106
	c4.965,0.633,9.497-0.582,13.595-3.648c3.532-2.666,6.265-6.264,8.197-10.796c1.46-3.375,2.115-7.449,1.994-12.199
	c0.876-0.678,1.754-1.32,2.634-1.929c11.074,4.053,19.564,7.963,25.461,11.729c3.632,2.299,7.314,5.465,11.046,9.497l3.149,3.148
	c1.398,1.333,2.948,2.166,4.648,2.499c1.666,0.334,3.115,0.084,4.348-0.75c0.9-0.6,1.566-1.749,2-3.448
	c0.532-2.3,0.232-4.831-0.9-7.597c-1.365-3.27-4.329-6.637-8.86-10.1c0.603,0.15,1.196,0.298,1.813,0.453l13.895,3.549l-0.699,1.949
	c-0.334,0.966-0.384,1.565-0.15,1.799c0.399,0.4,1.716,0.6,3.948,0.6c-3.865,4.032-11.513,14.461-22.941,31.289
	c-10.963,16.127-17.127,25.757-18.493,28.889c-0.8,1.866-1.167,3.466-1.1,4.799c0.033,0.966,0.25,1.6,0.649,1.898
	c2,1.566,5.115,0.551,9.347-3.049c2.433-2.032,7.181-6.514,14.245-13.444l22.741-22.842l9.851-10.129
	c2.92-1.608,7.601-5.946,14.041-13.013c7.331-8.03,11.212-13.678,11.646-16.943c0.333-2.5-1.732-5.432-6.197-8.797
	c-4.253-3.214-9.382-5.838-15.373-7.881c-10.841-5.945-24.351-12.144-40.521-18.597c-0.975-3.43-2.447-6.214-4.422-8.35
	c-4.699-6.961-12.944-12.316-24.721-16.071c0.829-0.851,1.651-1.757,2.467-2.731c2.214-2.65,3.965-5.396,5.26-8.238
	c1.459-1.167,2.761-2.69,3.887-4.607c1.266-2.266,2.099-4.682,2.499-7.248c0.182-1.189,0.264-2.34,0.267-3.46
	c3.515-4.333,7.175-8.335,10.971-12.025c2.65-1.596,5.106-3.655,7.355-6.207c0.354-0.404,0.692-0.816,1.021-1.232
	c2.888-2.333,5.84-4.518,8.874-6.515c8.298-5.465,16.795-9.48,25.491-12.046c15.761-4.598,32.222-6.314,49.382-5.148
	c16.094,1.1,27.84,4.265,35.237,9.497c5.265,3.732,8.83,8.264,10.696,13.595c1.799,5.132,1.949,10.68,0.449,16.644
	c-0.533,2.166-0.583,4.099-0.15,5.798c0.467,1.799,1.384,2.982,2.75,3.549c1.732,0.7,3.482,0.1,5.248-1.799
	c1.666-1.799,3.049-4.398,4.148-7.797C307.552,128.969,307.669,121.871,305.27,115.607z M77.116,165.208
	c1.448,2.882,3.59,4.729,6.435,5.529c0.069,0.02,0.138,0.028,0.208,0.047l2.229,15.466c-10.456-3.348-19.834-5.339-28.128-5.967
	c-4.931-0.367-9.813-0.233-14.645,0.4c-0.899,0.133-1.433,0.417-1.599,0.85c-0.167,0.367-0.1,0.899,0.2,1.599
	c1.266,3.032,3.532,6.631,6.797,10.796c3.865,4.931,7.781,8.697,11.746,11.296c-0.123,0.33-0.229,0.657-0.345,0.986l-25.095,1.861
	c-5.332,0.301-9.097,0.283-11.296-0.049c-2.232-0.367-3.699-1.184-4.398-2.449c-0.933-1.633,0.1-4.699,3.099-9.197
	c5.531-8.03,12.545-14.711,21.042-20.042C53.513,169.94,64.765,166.236,77.116,165.208z M107.242,100.013
	c0.112,0.668,0.246,1.308,0.375,1.953c-0.539-2.21-0.87-4.446-1-6.708C106.779,96.955,106.987,98.542,107.242,100.013z"/>
</svg>
