<?xml version="1.0" encoding="utf-8"?>
<!-- Generator: Adobe Illustrator 16.0.0, SVG Export Plug-In . SVG Version: 6.00 Build 0)  -->
<!DOCTYPE svg PUBLIC "-//W3C//DTD SVG 1.1//EN" "http://www.w3.org/Graphics/SVG/1.1/DTD/svg11.dtd">
<svg version="1.1" id="图层_1" xmlns="http://www.w3.org/2000/svg" xmlns:xlink="http://www.w3.org/1999/xlink" x="0px" y="0px"
	 width="301px" height="375px" viewBox="0 0 301 375" enable-background="new 0 0 301 375" xml:space="preserve">
<path d="M299.32,199.812c0.6-2.702-0.317-6.238-2.753-10.608c-2.535-4.637-6.889-10.492-13.061-17.564
	c-0.601-0.7-4.137-9.624-10.608-26.771c-2.568-6.238-5.287-11.292-8.156-15.162c-1.902-2.535-5.238-6.171-10.008-10.909
	l-2.303-2.302c-3.736-3.703-9.257-8.39-16.563-14.061l-11.459-8.557l-0.901-3.603l-1.101-2.552c-0.968-1.735-3.186-3.52-6.655-5.354
	c-2.702-1.434-5.222-2.485-7.556-3.152c-0.134-1.401-0.701-3.069-1.702-5.004c-1-1.907-2.062-3.296-3.179-4.206
	c1.285-0.631,2.66-1.511,4.13-2.649c3.527-2.747,6.812-6.456,9.86-11.093l4.951-1.067c4.037-1.034,6.955-2.235,8.758-3.603
	c2.168-1.635,3.502-4.938,4.002-9.908c0.4-4.337,0.217-7.189-0.55-8.557c-0.601-1.134-2.552-2.318-5.854-3.553
	c-2.296-0.879-4.229-1.433-5.81-1.668c-0.281-1.451-0.627-2.928-1.046-4.437c-1.435-5.137-3.537-9.625-6.305-13.46
	c-2.937-4.037-6.238-6.822-9.908-8.357c-5.538-2.335-11.643-2.302-18.314,0.1c-6.845,2.435-11.978,6.631-15.413,12.571
	c-3.027-0.785-6.128-1.476-9.308-2.063c-6.338-1.167-10.024-1.368-11.059-0.601c-3.169,2.235-5.004,6.222-5.504,11.96
	c-0.1,1.201-0.033,2.335,0.2,3.402c0.233,1.034,0.584,1.835,1.051,2.402c1.391,1.751,6,4.785,13.788,9.088l-2.328,5.624
	c-1.268,3.136-1.868,4.887-1.802,5.254c0.1,0.601,0.65,1.118,1.651,1.551l2.902,0.951l7.155,2.001
	c3.336,1.134,6.122,2.619,8.357,4.454l0.301,0.3l1.188,0.954l-0.029,2.413l-4.162-0.215c-3.336,0.2-6.489,1.718-9.458,4.554
	c-1.701,1.602-3.169,3.453-4.403,5.555c-4.237,0.3-8.239,1.751-12.01,4.354c-2.578,1.795-4.605,3.752-6.098,5.867
	c-2.524,0.446-5.326,1.371-8.414,2.79c-7.339,3.403-13.127,7.923-17.364,13.561c-0.611,0.835-1.207,1.765-1.794,2.74
	c-11.395,1.825-19.924,6.113-25.577,12.872c-3.37,4.037-5.755,9.825-7.156,17.364c-0.597,3.063-1.054,6.726-1.38,10.948
	c-3.67,1.352-5.939,2.226-6.777,2.613c-2.635,1.101-4.837,2.318-6.605,3.653c-9.947,7.307-14.503,18.291-13.703,32.929
	c-7.108,3.146-13.026,6.777-17.723,10.907c-5.171,4.57-8.991,9.874-11.459,15.912c-2.369,5.771-3.303,12.644-2.802,20.617
	c0.337,5.865,1.449,11.374,3.3,16.543l-7.654,4.724c-3.103,2.136-5.588,4.304-7.456,6.505c-6.872,7.973-10.058,16.714-9.558,26.221
	c0.133,2.436,0.967,4.454,2.502,6.056c1.535,1.534,3.469,2.385,5.805,2.552c1.901,0.133,3.569-0.4,5.004-1.602
	c1.801-1.501,3.002-3.936,3.603-7.306c0.767-4.203,2.402-8.056,4.904-11.56c2.481-3.459,5.991-6.823,10.517-10.092
	c2.739,5.109,4.574,8.796,5.496,11.043c1.602,4.037,2.302,7.773,2.102,11.209c-0.133,2.669,0.534,5.104,2.002,7.306
	c1.401,2.068,3.052,3.236,4.954,3.503c1.868,0.268,3.72-0.4,5.555-2.002c2.102-1.834,3.52-4.437,4.253-7.806
	c1.167-5.204,0.484-11.292-2.052-18.265c-1.291-3.558-3.576-8.396-6.842-14.495c5.952-3.787,10.762-7.546,14.398-11.275
	c5.004-5.138,8.223-10.642,9.658-16.513c1.067-4.438,1.484-9.408,1.251-14.912l-1.501-14.563l-0.404-3.142l8.411-4.014
	c3.502-1.902,6.038-3.803,7.606-5.705c3.569-4.337,6.071-9.608,7.506-15.813c0.656-2.974,1.24-7.241,1.753-12.782
	c6.84-2.838,12.306-6.51,16.362-11.037c3.502-3.87,6.055-8.49,7.656-13.861c1.406-4.676,2.997-8.781,4.763-12.344l22.959-1.917
	l0.293-0.025l0.608,0.626l2.752,2.502l2.402,2.302l4.402,6.806l4.854,7.206c1.935,2.636,3.736,4.404,5.404,5.304
	c0.862,0.458,1.633,0.71,2.321,0.777c0.271,2.581-0.076,5.443-1.038,8.586c-2.116-3.286-4.574-6.31-7.388-9.063
	c-3.27-3.203-6.556-5.504-9.858-6.905c-3.203-1.368-5.905-1.651-8.106-0.851c-5.304,1.935-9.174,7.823-11.609,17.665
	c-2.235,9.141-2.552,18.165-0.951,27.071c-4.237,4.938-9.958,14.228-17.164,27.873c-7.139,13.511-13.694,27.405-19.666,41.684
	c-4.704,11.143-10.108,26.688-16.213,46.637c-7.439,24.32-13.11,46.555-17.014,66.703c-0.8,4.037-0.917,7.406-0.35,10.108
	c0.5,2.436,1.384,3.771,2.652,4.003c1.601,0.301,3.402-0.434,5.404-2.201c2.168-1.868,4.303-4.721,6.405-8.557
	c7.84-14.278,17.347-32.176,28.523-53.693l16.513-32.125c3.736-7.307,11.309-19.383,22.718-36.229l16.663-24.069
	c2.402,1.535,4.555,2.469,6.456,2.803c1.769,0.267,3.22,0.033,4.354-0.701c3.163-2.06,5.476-6.245,6.944-12.539
	c2.885,0.42,5.963,0.478,9.246,0.147c0.095,2.903,0.413,5.46,0.973,7.638c0.602,2.303,1.418,3.971,2.452,5.004
	c1.669,1.668,4.187,2.336,7.556,2.002c3.437-0.301,7.156-1.551,11.16-3.753c2.001,2.535,7.005,10.575,15.012,24.119
	c8.072,13.644,13.461,23.185,16.162,28.623c0.734,1.501,5.521,14.795,14.361,39.882c8.908,25.42,14.129,39.781,15.663,43.084
	c2.269,4.838,4.104,8.207,5.505,10.108c1.867,2.603,3.636,3.687,5.304,3.253c1.134-0.301,1.985-1.418,2.552-3.354
	c0.567-1.968,0.751-4.402,0.551-7.305c-1.034-15.446-2.568-31.092-4.604-46.938c-2.235-17.281-4.587-30.858-7.056-40.733
	c-0.867-3.569-2.686-9.04-5.454-16.413c-2.461-6.62-5.08-13.082-7.848-19.395c-1.352-4.481-3.07-9.654-5.163-15.533
	c-6.381-17.973-11.335-28.007-14.867-30.141l-3.497-7.54c2.436-8.34,3.652-14.979,3.652-19.916c0-3.136-0.367-5.988-1.101-8.557
	c-0.733-2.636-1.769-4.704-3.103-6.205c-1.234-1.368-2.836-2.302-4.804-2.802l-6.005-0.15c-5.267,0.889-10.646,4.414-16.141,10.563
	c-0.109-1.066-0.154-2.167-0.123-3.307c0.116-4.203,1.129-7.257,3.033-9.168l0.971,0.162c0.768,0.1,1.551-0.167,2.352-0.801
	c1.034-0.834,3.42-5.888,7.156-15.162c5.938,2.502,13.094,8.323,21.467,17.464c2.035,2.235,5.604,9.024,10.709,20.366l7.055,16.313
	c0.4,0.968,0.602,1.968,0.602,3.002c0,1.768-0.668,3.887-2.002,6.355l-3.303,5.454c-0.968,1.735-1.502,3.553-1.602,5.454
	l0.301,7.105l-0.051,5.055c0,1.435,0.951,2.886,2.853,4.354c1.534,1.201,2.985,1.984,4.354,2.352l3.603-0.25
	c1.502,2.068,2.953,3.436,4.354,4.104c0.867,0.4,1.936,0.4,3.203,0l2.451-1.151c1.436,1.234,2.819,1.835,4.154,1.802
	c1.434-0.033,2.602-0.484,3.502-1.352l1.652-2.002l4.653,0.4c1.435-0.333,2.735-1.734,3.903-4.203l1.15-0.1
	c0.567-0.1,1.102-0.301,1.602-0.601c0.9-0.501,1.584-2.318,2.052-5.454C299.62,204.398,299.653,201.913,299.32,199.812z
	 M99.41,130.206c1.252-3.295,3.354-5.979,6.273-8.074l-1.019,2.569c-1.368,2.869-2.736,4.987-4.104,6.355l-1.902,1.701
	C98.884,131.801,99.133,130.945,99.41,130.206z M55.424,214.322c-0.7,7.073-3.353,12.611-7.956,16.614
	c-1.654,1.446-4.03,3.208-7.122,5.283c-1.136-3.897-1.477-8.237-0.985-13.04c0.667-6.505,2.502-11.509,5.504-15.012
	c2.737-3.291,6.135-6.223,10.176-8.804C55.623,206.295,55.75,211.282,55.424,214.322z M71.12,172.231
	c0.341-1.348,0.774-2.618,1.318-3.795c1.433-3.039,3.636-5.656,6.597-7.857c-0.355,1.271-0.802,2.473-1.342,3.604
	C76.236,167.156,74.04,169.837,71.12,172.231z M179.957,60.843l-0.237-0.102c0.001-0.029,0.002-0.057,0.003-0.086L179.957,60.843z"
	/>
</svg>
