<?xml version="1.0" encoding="utf-8"?>
<!-- Generator: Adobe Illustrator 16.0.0, SVG Export Plug-In . SVG Version: 6.00 Build 0)  -->
<!DOCTYPE svg PUBLIC "-//W3C//DTD SVG 1.1//EN" "http://www.w3.org/Graphics/SVG/1.1/DTD/svg11.dtd">
<svg version="1.1" id="图层_1" xmlns="http://www.w3.org/2000/svg" xmlns:xlink="http://www.w3.org/1999/xlink" x="0px" y="0px"
	 width="159px" height="232px" viewBox="0 0 159 232" enable-background="new 0 0 159 232" xml:space="preserve">
<path d="M110.579,69.629c5.763,1.1,11.442,0.933,17.04-0.5c1.49-0.385,2.944-0.851,4.365-1.39c1.288-0.465,2.542-1.034,3.775-1.666
	c0.427-0.213,0.852-0.433,1.272-0.662c0.088-0.05,0.178-0.098,0.266-0.149c2.489-1.378,4.863-3.011,7.11-4.928
	c4.996-4.264,8.994-9.527,11.992-15.79c0.366-0.8,0.25-1.349-0.35-1.649c-5.396-2.865-11.493-4.647-18.289-5.347
	c-7.795-0.799-15.057,0.066-21.786,2.598c-3.484,1.31-6.684,3.098-9.609,5.343c1.144-3.601,1.805-6.194,1.964-7.742
	c0.134-1.199-0.049-1.882-0.549-2.049c-0.566-0.233-1.467,0.333-2.699,1.699c-1.365,1.565-4.213,5.28-8.544,11.143
	c-0.087,0.119-0.171,0.229-0.258,0.347c2.251-10.002,1.462-19.813-2.391-29.429C89.959,9.6,84.362,3.154,77.1,0.123
	c-0.433-0.2-0.799-0.116-1.099,0.25c-4.73,5.896-7.729,12.492-8.995,19.788c-1.232,7.162-0.649,14.058,1.749,20.687
	c1.766,4.797,4.414,8.828,7.945,12.092c3.45,3.222,7.316,5.323,11.592,6.319c-1.196,1.475-2.383,2.914-3.547,4.274
	c-3.851,4.506-6.863,7.583-9.053,9.257c-2.378-0.432-5.055-0.67-8.037-0.712c-4.831-0.067-9.344,0.433-13.542,1.499
	c-10.66,2.698-21.47,8.028-32.43,15.99C10.459,97.728,3.78,105.323,1.647,112.352c-2.465,8.128-2.182,17.773,0.85,28.932
	c0.011,0.04,0.023,0.077,0.034,0.117c-0.594,2.332-0.852,4.85-0.734,7.577c0.167,3.199,0.8,6.297,1.899,9.295
	c2.665,7.229,7.579,13.375,14.741,18.438c2.587,1.84,5.331,3.431,8.225,4.782c-2.273,7.963-2.742,16.161-1.379,24.6
	c1.232,7.595,3.448,13.258,6.646,16.988c0.933,1.232,4.047,1.933,9.344,2.1c7.029,0.199,11.093-0.334,12.192-1.6
	c1.366-1.599,2.682-4.047,3.948-7.346c1.499-3.946,2.458-8.12,2.889-12.517c1.854,0.97,3.781,1.851,5.785,2.638
	c0.159,1.787,0.564,3.763,1.22,5.932c0.933,3.165,2.099,5.58,3.498,7.246l0.3,0.25c1.443,0.706,4.422,1.039,8.897,1.01
	c1.152,3.675,2.74,6.667,4.794,8.934l0.301,0.199c2.398,1.033,6.195,1.6,11.393,1.699c5.396,0.1,8.645-0.482,9.744-1.748
	c4.597-5.363,7.461-12.942,8.594-22.736c0.025-0.22,0.034-0.431,0.058-0.649c0.303-0.141,0.598-0.291,0.896-0.436
	c0.488,4.063,1.632,8.006,3.443,11.828c1.866,3.931,3.598,6.229,5.196,6.896c2.398,1.033,6.213,1.35,11.443,0.949
	c5.197-0.399,8.345-1.249,9.443-2.548c2.766-3.198,4.465-9.428,5.098-18.688c0.708-10.048-0.74-18.71-4.338-25.992
	c0.216-0.046,0.434-0.09,0.641-0.141c1.432-0.334,2.365-0.85,2.798-1.55c1.132-1.898,1.716-4.298,1.749-7.195
	c0.033-2.798-0.434-5.163-1.399-7.096c-0.753-1.536-2.06-2.43-3.904-2.697c-0.573-4.009-1.833-7.742-3.791-11.194
	c-3.031-5.43-7.512-9.66-13.441-12.691c-3.665-4.764-8.745-8.645-15.24-11.643c-3.505-1.657-6.485-2.729-8.953-3.228
	c0.119-7.632-0.392-14.273-1.54-19.908c-1.75-8.493-4.987-14.862-9.7-19.125l5.955-16.446
	C102.808,67.492,106.584,68.849,110.579,69.629z"/>
</svg>
