<?xml version="1.0" encoding="utf-8"?>
<!-- Generator: Adobe Illustrator 16.0.0, SVG Export Plug-In . SVG Version: 6.00 Build 0)  -->
<!DOCTYPE svg PUBLIC "-//W3C//DTD SVG 1.1//EN" "http://www.w3.org/Graphics/SVG/1.1/DTD/svg11.dtd">
<svg version="1.1" id="图层_1" xmlns="http://www.w3.org/2000/svg" xmlns:xlink="http://www.w3.org/1999/xlink" x="0px" y="0px"
	 width="315px" height="370px" viewBox="0 0 315 370" enable-background="new 0 0 315 370" xml:space="preserve">
<path d="M304.557,260.927c0.29-2.612,0.437-5.639,0.445-9.063l3.502-4.828c2.299-3.397,4.081-6.362,5.347-8.895
	c0.633-1.232,0.916-2.082,0.85-2.548c-0.1-0.533-0.683-0.999-1.749-1.399l-6.768-2.009c2.116-7.898,2.664-15.938,1.621-24.124
	c-1.466-11.227-5.88-23.802-13.242-37.727c-4.337-8.169-9.485-15.787-15.417-22.872c-0.411-4.198-1.331-8.135-2.771-11.806
	c-1.65-4.188-3.913-7.837-6.771-10.959c-0.374-1.415-0.858-2.745-1.438-4.004c1.645,1.292,3.506,2.469,5.608,3.521
	c2.433,1.166,4.414,1.832,5.947,1.999c1.365,0.133,2.215-0.1,2.548-0.699c0.333-0.5,0.267-1.349-0.2-2.548
	c-0.466-1.166-1.549-2.915-3.248-5.247l-3.819-4.635c3.524,0.389,7.325,0.243,11.415-0.462c4.997-0.833,9.361-2.232,13.092-4.197
	c4.098-2.165,4.447-5.263,1.049-9.294c-2.064-2.465-4.746-4.564-8.045-6.296c-1.918-1.014-3.886-1.785-5.898-2.331
	c1.54-0.237,2.934-0.647,4.15-1.267c0.999-0.5,1.498-1.133,1.498-1.899c0-0.899-0.716-1.866-2.148-2.898
	c-1.199-0.866-2.781-1.599-4.746-2.198c-1.732-0.56-3.493-0.922-5.283-1.093c1.556-1.014,2.973-2.144,4.233-3.404
	c0.767-0.8,0.916-1.466,0.45-1.999c-0.434-0.533-1.3-0.866-2.599-0.999l-3.349-0.1l-3.097,0.348
	c2.203-1.543,4.168-3.106,5.846-4.695c2.265-2.199,4.331-4.73,6.196-7.595c1.732-2.665,2.165-5.03,1.299-7.096
	c-0.933-2.132-3.015-3.348-6.246-3.647c-7.131-0.692-14.618,0.345-22.456,3.077c2.349-2.794,3.862-5.272,4.518-7.424
	c0.532-1.799,0.116-3.132-1.249-3.998c-1.093-0.695-2.398-0.759-3.917-0.196c0.378-0.501,0.728-0.99,1.019-1.453l1.849-3.548
	c0.633-1.499,0.55-2.698-0.249-3.598c-0.834-0.899-2.1-1.183-3.799-0.85c-3.896,0.801-7.303,2.265-10.238,4.371
	c0.515-1,0.987-1.978,1.395-2.921c1.898-4.431,3.015-9.078,3.348-13.941c0.3-4.364-1.35-5.546-4.947-3.548
	c-5.012,2.797-8.991,6.058-11.954,9.775c0.156-0.567,0.299-1.141,0.412-1.73c0.267-1.299,0.399-2.382,0.399-3.248
	c0-3.398-1.549-4.314-4.646-2.749c-1.566,0.766-2.982,1.849-4.248,3.248c-0.613,0.665-1.159,1.365-1.642,2.099
	c-0.339-2.371-0.93-4.464-1.806-6.246c-0.533-1.199-1.166-1.749-1.898-1.649c-0.733,0.1-1.399,0.85-1.999,2.249
	c-0.508,1.207-0.9,2.665-1.181,4.369c-0.575-3.169-1.446-6.407-2.617-9.715c-1.898-5.33-3.998-9.21-6.296-11.643
	c-1.699-1.832-3.364-2.615-4.997-2.348c-1.732,0.266-3.314,1.732-4.746,4.397c-2.433,4.664-4.182,9.044-5.248,13.142
	c-0.398,1.535-0.719,3.085-0.969,4.647c-0.557-2.164-1.349-4.063-2.379-5.697c-1.065-1.565-2.231-2.298-3.498-2.199
	c-1.398,0.133-2.564,1.25-3.497,3.348c-1.8,4.029-2.435,8.932-1.92,14.697c-0.802-1.604-1.594-2.926-2.378-3.954
	c-0.932-1.299-1.848-1.799-2.748-1.499c-0.898,0.3-1.416,1.249-1.549,2.848c-0.146,1.408-0.163,3.006-0.062,4.785
	c-1.668-3.052-3.706-6.047-6.134-8.982c-4.131-5.03-8.045-8.162-11.743-9.394c-2.032-0.7-3.664-0.667-4.897,0.1
	c-1.266,0.766-1.965,2.231-2.099,4.397c-0.167,2.832,0.2,6.096,1.1,9.794c0.726,2.925,1.735,5.808,2.985,8.656
	c-0.562-0.399-1.16-0.79-1.836-1.161c-0.999-0.533-1.782-0.833-2.348-0.899c-1.899-0.333-2.615,0.649-2.149,2.948
	c0.233,1.011,0.675,2.189,1.312,3.523c-1.165-0.825-2.378-1.576-3.661-2.225c-2.832-1.432-5.58-2.265-8.245-2.499
	c-3.098-0.266-4.397,1.133-3.897,4.198c0.267,1.432,0.7,3.015,1.299,4.747c0.608,1.745,1.314,3.304,2.111,4.692
	c-0.623,1.504-1.101,3.018-1.442,4.543c-0.892-5.602-2.657-11.08-5.316-16.43c-2.898-5.763-6.063-9.811-9.494-12.142
	c-1.965-1.366-3.831-1.499-5.597-0.4c-1.632,1.033-2.815,2.898-3.547,5.597c-1.452,5.362-1.97,10.788-1.568,16.277
	c-0.477-0.975-0.953-1.786-1.43-2.386c-1.132-1.433-2.032-1.866-2.698-1.299c-0.633,0.5-0.916,1.583-0.849,3.248
	c0.029,0.897,0.165,2.008,0.395,3.307c-0.5-0.761-1.024-1.49-1.594-2.158c-1-1.1-1.833-1.416-2.499-0.95
	c-0.633,0.466-0.833,1.366-0.6,2.698c0.063,0.451,0.167,0.917,0.272,1.382c-1.781-2.622-3.701-5.036-5.769-7.229
	c-3.831-4.131-7.579-6.879-11.243-8.245c-1.499-0.566-2.698-0.5-3.598,0.2c-0.9,0.667-1.399,1.849-1.5,3.548
	c-0.266,4.73,0.133,9.127,1.199,13.191c0.924,3.524,2.466,7.363,4.614,11.507c-2.223-2.222-4.683-4.219-7.412-5.96
	c-1.399-0.866-2.499-1.083-3.298-0.65c-0.833,0.466-1.083,1.533-0.75,3.198c0.455,2.355,1.348,4.962,2.663,7.812
	c-3.414-2.937-7.082-5.31-11.007-7.112c-4.964-2.298-9.578-3.364-13.841-3.198c-2.365,0.1-3.948,0.766-4.747,1.999
	c-0.866,1.333-0.916,3.431-0.15,6.296c0.933,3.397,2.731,7.195,5.396,11.393c1.889,2.953,3.9,5.588,6.03,7.918
	c-1.344-0.484-2.752-0.831-4.231-1.023c-1.799-0.233-3.398-0.216-4.797,0.05c-1.466,0.233-2.398,0.733-2.798,1.5
	c-0.466,0.833-0.183,1.915,0.85,3.248c1.946,2.506,3.989,4.764,6.118,6.8c-3.396-0.685-6.618-1.004-9.666-0.953
	c-1.448,0.025-2.793,0.134-4.039,0.325c-4.435-2.453-8.604-5.421-12.501-8.919c-4.23-3.798-7.628-7.778-10.193-11.942
	c-1.099-1.799-2.199-2.682-3.298-2.648s-2.065,1.016-2.898,2.948c-3.498,8.361-5.496,18.005-5.996,28.932
	c-0.533,11.726,0.733,23.302,3.798,34.728c1.449,5.375,3.224,10.482,5.305,15.337c1.481,6.025,3.558,12.221,6.237,18.591
	c3.933,9.24,8.377,17.13,13.322,23.7c-8.782,11.06-16.218,23.285-22.267,36.711C4.264,253.215,0.267,268.988,0,283.412
	c-0.133,7.129,1.565,13.275,5.097,18.438c3.103,4.531,7.129,7.611,12.054,9.279c0.113,0.591,0.387,1.291,0.838,2.113
	c1.033,1.899,2.349,3.448,3.948,4.647c2.665,2.031,5.013,2.465,7.045,1.299l3.798-2.348l2.948-2.449
	c1.899,1.566,3.431,2.698,4.597,3.398c0.966,0.566,2.315,1.166,4.047,1.799c1.732,0.633,3.415,0.832,5.047,0.6
	c1.599-0.2,2.998-0.783,4.197-1.75c2.398-1.932,4.131-4.547,5.197-7.844l4.647,0.648c2.499,0.167,4.147-0.683,4.947-2.548
	c0.6-1.366,1.049-2.998,1.349-4.897l0.1-2.049c-0.066-0.832-0.366-1.516-0.899-2.048c-0.112-0.111-0.25-0.223-0.371-0.334
	c0.937-1.893,1.246-5.654,0.921-11.309c-0.233-4.265-0.883-9.978-1.949-17.14c-0.7-4.73-0.45-10.693,0.75-17.889
	c0.675-4.048,1.695-8.702,3.039-13.922c9.058,7.509,20.36,14.732,33.938,21.668c13.291,6.771,25.044,11.337,35.299,13.75
	l-7.917,24.075c-4.53,15.591-6.563,28.683-6.096,39.275c0.133,2.998,0.517,5.396,1.149,7.195c0.7,2.032,1.949,4.03,3.748,5.996
	c2.932,3.165,6.629,5.862,11.093,8.095c5.444,2.66,10.786,3.821,16.029,3.523c0.133,0.339,0.334,0.647,0.61,0.924
	c2.365,2.232,4.247,3.748,5.646,4.547c1.266,0.767,2.414,1.149,3.447,1.149c1,0.034,2.065-0.3,3.198-0.999
	c1.632-1,3.681-2.799,6.146-5.396l7.195,1.549c2.666,0.366,4.564,0.366,5.697,0c1.232-0.434,2.432-1.532,3.598-3.298
	c1.166-1.732,2.049-3.531,2.648-5.396c0.152-0.427,0.217-0.88,0.24-1.346c2.147,0.099,4.027-0.186,5.605-0.903
	c2.799-1.232,3.631-3.314,2.498-6.246c-0.965-2.465-2.598-4.847-4.896-7.145c-0.336-0.336-0.704-0.574-1.102-0.727l-1.896-11.117
	c-1.066-6.462-1.549-11.941-1.449-16.439c0.1-4.03,0.899-10.876,2.398-20.537c0.594-3.809,1.24-7.591,1.915-11.359l12.076-1.332
	c5.01-0.861,9.402-1.971,13.189-3.321c3.328,2.287,6.758,4.315,10.296,6.069c1.878,0.927,3.721,1.75,5.531,2.477l-0.984,6.618
	c-0.333,2.498-0.5,4.28-0.5,5.347c0,2.299,0.417,4.146,1.25,5.547c0.832,1.398,2.198,2.498,4.098,3.297
	c5.129,2.133,10.143,3.564,15.04,4.298c5.475,0.805,11.139,0.808,16.987,0.033c0.449,0.426,1.046,0.733,1.801,0.916
	c3.863,0.866,6.579,1.282,8.145,1.249c1.732-0.033,2.998-0.533,3.798-1.499s1.232-2.432,1.299-4.397l4.997,1.1
	c1.532,0.2,3.131,0.184,4.797-0.05c1.832-0.233,3.082-1.065,3.748-2.499c0.609-1.219,0.626-2.516,0.062-3.89
	c1.606-0.646,2.757-1.282,3.436-1.906c1.732-1.532,1.866-3.448,0.4-5.746l-2.499-2.898l-1.064-0.876
	c-0.156-0.599-0.362-1.265-0.635-2.021l-1.698-4.598c-1.491-5.074-2.72-8.943-3.693-11.625c0.368-0.387,0.746-0.769,1.095-1.167
	C302.99,266.906,304.156,264.191,304.557,260.927z"/>
</svg>
