<?xml version="1.0" encoding="utf-8"?>
<!-- Generator: Adobe Illustrator 16.0.0, SVG Export Plug-In . SVG Version: 6.00 Build 0)  -->
<!DOCTYPE svg PUBLIC "-//W3C//DTD SVG 1.1//EN" "http://www.w3.org/Graphics/SVG/1.1/DTD/svg11.dtd">
<svg version="1.1" id="图层_1" xmlns="http://www.w3.org/2000/svg" xmlns:xlink="http://www.w3.org/1999/xlink" x="0px" y="0px"
	 width="541px" height="493px" viewBox="0 0 541 493" enable-background="new 0 0 541 493" xml:space="preserve">
<path d="M534.859,149.861l-2.201-2.101l-2.201-2.601c-1.134-1.768-2.468-2.651-4.001-2.651l-3.852,0.05l-1.401-0.1
	c-0.3-0.167-0.467-0.617-0.5-1.351c-0.233-2.201-0.35-3.685-0.35-4.452c0-0.9-0.584-1.55-1.751-1.951l-2.251-0.25
	c-1.134-0.1-1.984-0.3-2.551-0.6c-1.4-0.767-2.251-1.784-2.551-3.051c-0.134-0.6-0.567-1.401-1.301-2.401l-1.351-1.901
	c-0.801-1.434-1.935-1.751-3.401-0.951c-1.501,0.801-3.618,1.768-6.353,2.901l-5.353,1.951c-0.533,0.133-0.884,0.284-1.051,0.45
	c-0.233,0.233-0.35,0.583-0.35,1.05l0.1,1.501c-0.066,0.467-0.483,0.75-1.25,0.85l-2.001,0.35l-2.551,0.2
	c-0.5,0-0.967-0.167-1.4-0.5c-0.4-0.333-0.634-0.7-0.7-1.101c-0.134-1.267-0.468-2.651-1.001-4.152
	c-0.7-1.9-1.501-3.101-2.401-3.601l-0.065-0.039l0.616-0.562c0.2-0.567,0.517-0.983,0.95-1.25l1.4,0.05l3.902-0.15
	c0.399-0.267,0.95-0.45,1.65-0.55l1.351-0.2l3.751-1.351c1.001-0.3,1.468-1.034,1.401-2.201c-0.034-1-0.417-2.151-1.151-3.451
	c-0.433-0.8-0.649-1.384-0.649-1.751c-0.067-0.567,0.25-0.934,0.95-1.1l2.051-0.601c0.667-0.3,1.351-0.8,2.051-1.5
	c0.434-0.434,1.017-0.667,1.751-0.7l1.9,0.15l2.651,0.701l2.751,0.7c0.667,0.133,1.483,0.133,2.451,0
	c1.066-0.134,1.834-0.367,2.301-0.7l3.701-3.501c1.668-1.801,2.551-2.985,2.651-3.552c0.5-2.634-0.184-4.452-2.051-5.452
	l-6.003-3.301c-0.967-0.5-1.733-1.184-2.301-2.051c-0.566-0.867-0.717-1.651-0.45-2.351l0.551-1.451l0.1-1.05
	c0.134-0.8,0.316-1.367,0.55-1.701c0.301-0.434,0.434-0.884,0.4-1.351c-0.066-0.534-0.333-0.867-0.8-1l-2.201-0.95l-1.9-1.15
	c-0.434-0.534-1.051-0.917-1.852-1.15l-2.65,0.15c-0.867,0.467-1.601,0.8-2.201,1c-1.034,0.4-2.134,0.6-3.302,0.6l-2.951-0.45
	c-0.566-0.5-0.917-1.851-1.05-4.052c-0.033-0.867-0.283-1.701-0.751-2.501c-0.366-0.7-0.8-1.2-1.3-1.5
	c-0.467-0.267-1.251-0.417-2.352-0.45l-3.251,0.35l-2.701,0.65c-0.8,0.066-1.268-0.117-1.4-0.55l-0.801-1.201l-1.25-1.05
	c-0.7-0.633-0.45-1.834,0.75-3.602c0.533-0.733,1.001-1.934,1.4-3.601c0.434-1.734,0.501-2.801,0.2-3.202l-1.601-2.151
	c-0.934-1.101-1.768-1.784-2.501-2.051l-4.302-1.3c-1.734-0.567-2.968-1.134-3.701-1.701c-0.9-0.7-1.851-1.101-2.852-1.201
	c-0.934-0.133-1.768,0.017-2.501,0.45l-3.701,1.701c-2.001,0.967-3.535,1.901-4.603,2.801c-0.733,0.6-1.384,0.884-1.95,0.85
	c-0.567,0-1.184-0.316-1.851-0.95l-2.501-1.301l-2.802-1.5c-0.833-0.667-1.267-1.351-1.3-2.051c-0.034-0.567,0.217-1.284,0.75-2.151
	c1-1.634,1.667-3.301,2.001-5.002c0.366-1.968,0.066-3.102-0.9-3.401c-3.502-1.167-6.27-1.417-8.304-0.75
	c-1.233,0.367-2.384,0.217-3.451-0.45c-1.067-0.7-2.251-2.034-3.552-4.001c-0.3-0.434-0.7-0.75-1.2-0.95l-1.851,0.1
	c-2.802,1.434-4.485,2.218-5.053,2.351c-0.5,0.133-1.167,0.517-2,1.15c-0.9,0.701-1.534,1.368-1.901,2.001l-1.301,1.601
	c-0.6,0.333-1.417,0.117-2.45-0.65c-1.101-0.767-1.768-1.4-2.001-1.9c-0.167-0.367-0.2-1.067-0.101-2.101
	c0.101-0.767,0.034-1.417-0.199-1.951l-0.751-1.15c-0.5-0.867-0.25-1.518,0.751-1.951c0.866-0.367,1.783-0.867,2.751-1.501l2-1.5
	c1.001-1,1.334-2.018,1.001-3.051c-0.233-0.634-0.5-1.768-0.801-3.401c-0.333-1.701-0.5-2.901-0.5-3.602
	c0-0.8-0.116-1.384-0.35-1.75c-0.268-0.434-0.734-0.717-1.401-0.851l-2.101-0.4c-1.267-0.4-2.4-1.084-3.401-2.051
	c-2.601-2.601-4.802-4.585-6.603-5.953l-2.301-2.101l-1.451-1.701c-0.1-0.267-0.434-0.434-1-0.5c-0.467-0.1-0.934-0.1-1.4,0
	l-3.052,1.201l-3.101,1.15c-0.434,0-0.917,0.217-1.451,0.65c-0.6,0.467-0.9,0.934-0.9,1.4c0,0.767-0.467,1.768-1.4,3.001l-0.8,0.9
	c-0.301,0.2-0.684,0.2-1.151,0l-2.25-1.1c-0.4-0.233-0.467-0.634-0.2-1.201l0.95-1.5c0.434-0.534,0.601-1.15,0.5-1.851
	c-0.1-0.767-0.55-1.434-1.351-2l-2.451-2.001c-1.2-1-2.15-1.567-2.851-1.701l-1.851-0.95l-1.501-1.201c-0.3-0.3-0.733-0.4-1.301-0.3
	c-0.6,0.1-1.167,0.383-1.7,0.85l-3.802,3.602l-4.552,4.502c-0.834,0.9-2.118,1.867-3.852,2.901c-1.768,1-2.918,1.684-3.451,2.051
	c-1.501,1.067-2.868,1.167-4.103,0.3l-2.25-1.201c-0.9-0.567-1.418-1.234-1.551-2c-0.134-0.834-0.534-1.384-1.201-1.651
	c-0.566-0.233-1.25-0.233-2.051,0l-8.803,2.501c-1.635,0.5-2.668,1.551-3.102,3.151l-2.251,7.403
	c-0.233,0.567-0.867,1.051-1.901,1.451l-3.201,1.651l-2.951,1.65c-0.833,0.434-1.2,0.984-1.101,1.651
	c0.067,0.5-0.05,1.267-0.35,2.301c-0.334,1.201-0.784,1.968-1.351,2.301l-2.101,0.1c-0.801-0.3-1.901-1.017-3.302-2.151
	c-1.233-0.967-2.4-1.3-3.501-1c-0.501,0.133-1.351,0.617-2.552,1.45c-0.9,0.634-1.851,0.984-2.851,1.051
	c-1.167,0.066-2.067-0.35-2.701-1.25l-2.151-3.001c-1.133-1.067-2.834-1.767-5.102-2.101c-1.234-0.2-1.968-0.467-2.201-0.8
	c-0.334-0.467-0.35-1.501-0.05-3.102l0.05-1.551c-0.133-0.433-0.45-0.733-0.95-0.9l-3.602-1.601c-1.901-0.9-3.001-1.534-3.302-1.9
	c-0.266-0.333-0.633-0.517-1.1-0.55l-1.551,0.1l-4.553,1.1l-4.15,1.101c-1.068,0.133-1.602,0.617-1.602,1.451
	c0,0.534-0.184,1.184-0.55,1.951c-0.367,0.8-0.851,1.467-1.451,2.001c-1.367,1.267-3.235,3.185-5.602,5.752
	c-1.101,1.134-2.451,2.084-4.052,2.851c-2.068,0.967-3.968,1.3-5.703,1c-2-0.3-3.118,0-3.351,0.9
	c-0.233,0.9-3.102,4.102-8.604,9.604c-0.967,1.034-1.968,1.301-3.001,0.8l-3.952-1.2l-3.551-0.9c-1-0.367-1.634,0-1.901,1.1
	c-0.367,1.334-0.967,2.151-1.801,2.451c-0.333,0.133-1.284,1.551-2.851,4.252l-3.901,6.202c-0.734,0.9-0.951,1.768-0.65,2.601
	c0.233,0.701,0.634,1.134,1.201,1.301c0.5,0.133,1.034,0.383,1.601,0.75l1.3,0.95l1.301,1c0.434,0.567,0.55,1.317,0.35,2.251
	l-0.15,1.65c-0.2,0.567-0.851,0.851-1.951,0.851h-1.45l-1.451,0.2c-0.634,0.167-1.051,0-1.25-0.5l-0.4-1.751
	c-0.233-1-0.617-1.917-1.15-2.751c-0.733-1.101-1.467-1.484-2.201-1.15c-0.801,0.367-2.234,0.65-4.302,0.851
	c-2.001,0.2-3.235,0.2-3.702,0c-1-0.333-1.768,0.083-2.301,1.25l-4.202,8.503l-0.601,1.9c-0.066,0.767,0.1,1.751,0.5,2.951
	l1.3,4.052c0.167,0.634,0.15,1.284-0.05,1.951l-1.301,1.8l-3.201,2.701c-0.534,0.5-1.25,0.701-2.151,0.601
	c-0.6-0.067-1.367-0.3-2.301-0.701l-3.102-1.05c-0.867-0.2-1.684,0.15-2.451,1.05l-1.901,2.701l-1.15,2.301l-1.351,2.701
	c-0.367,0.634-0.384,1.134-0.05,1.501c0.3,0.3,0.867,0.45,1.701,0.45c0.634,0,1.417,0.167,2.351,0.5c0.9,0.333,1.484,0.667,1.751,1
	c0.567,0.733,1.5,1.101,2.801,1.101c0.667,0,1.084,0.167,1.25,0.5c0.167,0.3,0.184,0.85,0.05,1.651
	c-0.167,1.367-0.2,2.601-0.1,3.701c0.1,0.9,0.434,1.801,1,2.701l2.501,3.551c1.234,1.601,2.217,2.685,2.951,3.251
	c1.234,1.034,2.484,1.584,3.751,1.651l11.354-0.55c2.968-0.567,4.585-1.651,4.852-3.251c0.133-0.633,0.417-1.184,0.851-1.65
	c0.467-0.534,0.917-0.75,1.35-0.65c1.368,0.4,1.868,1.134,1.501,2.201c-0.267,0.767-0.217,1.651,0.15,2.651
	c0.467,1.134,1.217,1.867,2.251,2.201c1.567,0.534,3.101,0.717,4.602,0.55c2.034-0.2,3.268-1.034,3.702-2.501
	c0.734-2.268,1.25-3.668,1.551-4.202l3.151,0.55c1.034,0.2,1.667,0.517,1.9,0.95c0.567,1.101,0.384,2.368-0.55,3.802
	c-0.467,0.767-0.784,1.634-0.951,2.601c-0.2,1.034-0.1,1.75,0.3,2.151l-4.252-0.45c-1.367,0.033-2.368,0.433-3.001,1.2
	c-2.001,2.468-2.284,4.418-0.851,5.853c1.067,1.067,1.851,2.117,2.351,3.151c0.634,1.3,0.65,2.351,0.05,3.151
	c-0.9,1.167-2.568,2.417-5.002,3.751c-2.234,1.267-3.101,2.718-2.601,4.352c0.326,1.178,0.718,2.224,1.175,3.138
	c-0.551-0.945-1.19-1.401-1.925-1.337l-0.688,0.263c-1.723-2.35-4.856-6.183-9.417-11.518l-9.604-10.854
	c-1.267-1.268-2.201-1.917-2.801-1.951c-0.7,0-1.634,0.75-2.801,2.251c-2.801,3.668-6.186,9.137-10.154,16.407
	c-3.754,6.841-6.271,12.141-7.579,15.932c-0.197-0.233-0.39-0.498-0.574-0.826c-0.333-0.534-0.8-0.951-1.401-1.25l-2-0.05
	l-3.902,1.551c-1.467,0.467-2.117,1.3-1.951,2.501c0.133,0.934,0.133,2.118,0,3.551c-0.133,1.467-0.367,2.618-0.7,3.452l-1.05,2
	c-0.367,0.5-0.884,0.934-1.551,1.301c-0.567,0.3-1.384,0.884-2.451,1.75l-2.351,2.051c-0.601,0.534-0.967,1.051-1.101,1.551
	s-0.033,1.084,0.3,1.75l0.851,2.101l0.55,1.901c0.133,0.5,0.1,0.884-0.1,1.15l-0.9,0.55c-0.4,0.167-1.15,0.567-2.251,1.201
	c-1.2,0.633-2.018,1.117-2.451,1.45c-1.958,1.51-2.02,3.232-0.201,5.165c-2.874,1.206-5.628,2.385-8.261,3.538
	c-3.503-2.646-8.215-5.928-14.146-9.853c-6.369-4.202-10.654-6.853-12.855-7.953c-2.401-1.201-3.951-1.701-4.652-1.5
	c-0.967,0.233-1.834,1.717-2.601,4.452c-4.127,14.747-7.411,27.744-9.872,39.037c-2.087,1.56-4.035,3.12-5.834,4.681
	c-0.667,0.6-0.851,1.167-0.55,1.701l0.523,1.814l-13.829,1.037c-3.668,0.434-6.019,1.551-7.053,3.352
	c-2.601,4.535-5.219,9.487-7.853,14.856c-3.235,6.469-5.219,11.054-5.953,13.755c-0.9,3.201-1.267,6.203-1.1,9.004
	c0.233,3.602,1.367,6.52,3.401,8.754c1.2,1.334,3.134,2.934,5.802,4.801l5.808,3.693c-0.64,0.887-1.277,1.785-1.906,2.71
	c-8.476,12.464-13.58,25.236-15.318,38.319c-0.113,0.05-0.224,0.088-0.338,0.146l-29.862,14.306
	c-17.907,8.503-27.627,13.188-29.162,14.056c-5.702,3.135-5.186,5.352,1.551,6.652c7.47,1.4,19.241,2.852,35.314,4.352l18.534,1.242
	c-3.815,8.122-7.146,17.286-9.98,27.52c-1.459,5.259-2.865,11.11-4.219,17.513c-0.423,0.206-0.862,0.443-1.333,0.745
	c-1.267,0.834-2.218,1.701-2.851,2.602c-2.435,3.301-4.686,7.069-6.753,11.304l-4.802,10.654c-0.7,1.601-0.851,3.135-0.45,4.603
	c0.367,1.4,1.184,2.567,2.451,3.501c1.117,0.868,2.373,1.551,3.766,2.05c0.112,1.917,0.753,3.471,1.937,4.653
	c3.301,3.268,6.502,5.535,9.604,6.803c2.101,0.934,5.119,1.317,9.053,1.15l10.754-1.2c2.901-0.567,5.686-1.484,8.354-2.752
	c0.302-0.145,0.553-0.339,0.78-0.558c3.983,1.521,8.921,2.172,14.794,1.971c0.524,0.635,1.433,1.198,2.733,1.688
	c3.501,1.334,7.586,2.185,12.255,2.551l4.952-0.199c1.3-0.2,2.567-0.617,3.801-1.251c2.901-1.501,5.202-3.335,6.903-5.502
	c0.293-0.38,0.498-0.77,0.622-1.167c2.017-0.636,3.681-1.676,4.98-3.135c1.567-1.801,2.817-4.452,3.751-7.953
	c3.743-13.642,8.697-24.107,14.854-31.411c10.821,6.87,21.377,12.329,31.664,16.354c18.322,7.133,39.46,11.32,63.4,12.578
	c-0.352,4.857-0.984,9.349-1.87,13.51c-3.379,5.089-5.837,10.463-7.357,16.129c-0.467,1.668-0.434,3.102,0.1,4.302
	c0.5,1.234,1.467,2.052,2.901,2.451c6.336,1.734,12.989,2.118,19.958,1.15c0.035-0.005,0.062-0.019,0.095-0.024
	c1.625,1.557,3.673,2.942,6.159,4.154c0.324,0.756,0.839,1.464,1.549,2.123c2.435,2.334,5.235,4.436,8.403,6.303
	c2.968,1.801,5.552,2.984,7.753,3.551l5.803,0.951l4.752-0.25c4.135-0.834,7.77-2.068,10.904-3.702
	c2.268-1.134,5.002-2.918,8.203-5.352c0.408-0.31,0.742-0.688,1.016-1.126c2.153-0.66,4.51-1.514,7.088-2.576
	c2.355-0.992,4.202-1.863,5.543-2.615c0.523,0.402,1.214,0.684,2.109,0.814l8.954,0.301c3.935-0.167,7.103-0.617,9.504-1.351
	c2.201-0.634,3.067-2.168,2.601-4.603c-0.934-5.068-2.034-9.087-3.301-12.055c-0.447-1.067-0.951-2.097-1.506-3.091
	c0.886-3.521,1.291-8.003,1.205-13.466c-0.055-4.396-0.265-9.072-0.619-14.008c9.307-2.328,18.466-5.834,27.478-10.517
	c-0.007,0.957-0.015,1.915-0.047,2.916c-0.264,8.629-1.312,16.997-3.136,25.105c-0.313,0.69-0.609,1.389-0.866,2.105
	c-0.9,2.534-1.7,6.219-2.401,11.055c-0.467,2.801,0.384,4.385,2.552,4.752l16.307,0.6c0.523-0.048,0.932-0.184,1.234-0.401
	c0.749,0.414,1.565,0.815,2.467,1.202c1.895,0.829,3.691,1.323,5.403,1.521c0.345,0.635,0.825,1.163,1.449,1.579
	c2.501,1.635,5.336,3.252,8.504,4.853c4.135,2.034,7.97,3.534,11.505,4.502c2.567,0.667,5.052,0.667,7.452,0
	c3.568-1.001,6.837-2.317,9.805-3.952c2.834-1.5,5.152-3.168,6.952-5.002c0.583-0.566,0.991-1.316,1.23-2.244
	c3.093-1.477,5.623-2.912,7.607-4.305c0.491,0.173,1.059,0.292,1.717,0.347c2.234,0.167,4.602,0.116,7.103-0.15
	c3.235-0.333,6.036-0.983,8.404-1.95c2.067-0.867,2.65-2.602,1.75-5.202l-3.352-9.354c-0.476-1.146-0.979-2.233-1.493-3.293
	c0.211-22.904-2.071-42.187-6.859-57.832c-0.176-0.57-0.365-1.13-0.549-1.694c13.063-8.476,25.285-19.96,36.663-34.47
	c11.038-14.105,19.225-28.295,24.56-42.567c1.101-2.968,1.151-5.052,0.15-6.253c-1-1.2-3.201-1.733-6.603-1.6
	c-2.734,0.133-8.037,1.017-15.906,2.65c-14.275,2.946-27.947,3.926-41.029,2.976c-0.624-2.345-1.816-4.19-3.589-5.526
	c-2.235-1.697-5.514-2.691-9.813-2.997c-0.341-2.979-1.271-6.049-2.792-9.208c-1.2-2.535-3.118-5.719-5.752-9.555
	c-4.002-5.769-9.504-12.871-16.507-21.309c-7.67-9.303-13.322-15.472-16.957-18.507c-1.968-1.634-3.901-2.351-5.803-2.151
	l-7.511,0.461c-0.173-0.125-0.342-0.237-0.514-0.358c2.832-3.959,5.461-7.482,7.888-10.575l0.688,1.768
	c0.267,0.867,1.7,1.301,4.302,1.301l6.503-0.35c0.1,0.533,0.517,1.133,1.25,1.8l2.301,1.851c0.733,0.633,1.117,1.384,1.15,2.251
	c0.033,0.7-0.133,1.284-0.5,1.75c-0.634,0.934-0.717,1.834-0.25,2.701c0.467,0.8,1.117,1.234,1.951,1.3
	c1.233,0.1,2.9,0.75,5.002,1.951c1.801,1,3.185,1.967,4.151,2.901c0.8,0.767,2.067,1.284,3.802,1.551l4.352-0.2l5.102-1.451
	l6.354-2.101c1.834-0.667,3.101-2.051,3.801-4.152c0.5-1.5,0.667-2.984,0.5-4.452l-0.399-2.501c-0.033-0.833,0.2-1.434,0.7-1.801
	c1.134-0.8,2.901-1.768,5.302-2.901c0.5-0.267,0.968-0.367,1.4-0.3c0.534,0.066,0.935,0.35,1.201,0.85
	c1,2.001,2.218,3.084,3.651,3.251l2.351-0.45l0.9-0.05l0.5,0.45c0.434,1.701,0.834,2.885,1.201,3.552c0.467,0.967,2.234,1.3,5.302,1
	c1.901-0.233,4.235-1.234,7.003-3.001c1.233-0.767,1.834-2.034,1.801-3.801l-0.601-3.552c-0.333-1.3,0.067-2.317,1.201-3.051
	l2.4-1.65c1.234-0.834,2.118-1.384,2.651-1.651c1.434-0.733,2.234-2.184,2.401-4.352c0.1-1.868,0.666-3.485,1.7-4.852
	c0.533-0.634,1.817-1.467,3.852-2.501c1-0.5,1.684-1.934,2.051-4.302c0.134-0.7,0.083-1.584-0.15-2.651
	c-0.233-1.1-0.55-1.834-0.95-2.201c-0.934-0.8-1.551-2.084-1.851-3.852c-0.167-0.833-0.95-1.267-2.351-1.3
	c-1.234,0-2.435,0.25-3.602,0.75c-2.201,0.9-3.435,0.784-3.702-0.35c-0.125-0.702-0.523-1.629-1.194-2.783
	c0.188-0.759,0.385-1.393,0.595-1.869c0.667-1.634,1.733-2.851,3.201-3.651c1.667-0.934,2.935-1.451,3.802-1.551
	s1.684,0.133,2.451,0.7c2.134,1.567,3.868,2.318,5.201,2.251c1.534-0.1,2.685,0.867,3.452,2.901c0.1,0.3,0.467,0.483,1.101,0.55
	c0.6,0.033,1.1-0.1,1.5-0.4c0.5-0.467,1.935-1.267,4.302-2.401c0.567-0.3,1.218-0.967,1.951-2.001c0.8-1.167,1.301-2.234,1.5-3.201
	c0.268-1.234,0.484-1.967,0.65-2.201c0.334-0.433,1.084-0.733,2.251-0.9l3.802-0.35c1.4-0.2,2.468-0.733,3.201-1.601
	c0.4-0.467,1.051-0.8,1.951-1l2.051-0.1c2.301,0.5,4.068,1.05,5.302,1.65c0.867,0.4,1.734,0.033,2.602-1.101l2.101-2.201
	l2.001-2.301c0.366-0.667,0.566-1.5,0.6-2.501c0-1.167-0.25-2.185-0.75-3.051l-0.8-1.201c-0.233-0.434-0.251-0.784-0.051-1.05
	l0.851-1.301c0.5-0.633,0.983-0.767,1.451-0.4l1.851,0.15c0.7-0.2,1.233-0.5,1.601-0.9l3.051-3.952
	c1.101-1.567,1.817-2.734,2.151-3.501C535.943,151.812,535.793,150.628,534.859,149.861z M311.186,193.108
	c-2.608-6.79-5.797-13.891-9.566-21.299c0.324,0.166,0.671,0.398,1.046,0.711l2.501,2.401l1.801,2.051c0.4,0.5,1,0.851,1.801,1.051
	l2.101,0.1l7.392-1.91c0.177,0.894,0.378,1.674,0.611,2.311c0.867,2.201,2.401,3.802,4.603,4.802l9.403,3.802
	c4.102,1.601,6.42,2.584,6.953,2.951c0.634,0.434,1.084,1.084,1.351,1.951l0.7,4.302c-1.275,0.933-4.728,2.882-10.354,5.846
	C325.342,198.73,318.562,195.708,311.186,193.108z M380.297,169.319c1.066,0.534,2,0.45,2.801-0.25
	c0.7-0.601,1.084-1.667,1.15-3.202c0-0.72-0.073-1.409-0.18-2.083l1.53,0.233c0.9,0.167,1.634,0.417,2.201,0.75
	c0.29,0.18,0.57,0.33,0.849,0.475c-0.268,0.721-0.317,1.462-0.099,2.226l2.251,5.752c-1.439,0.5-3.25,0.903-5.389,1.221
	c-0.248-0.49-0.499-0.973-0.764-1.421l-0.301-0.25l-9.361-4.329c0.359-0.14,0.785-0.223,1.309-0.223
	C377.462,168.251,378.796,168.619,380.297,169.319z M232.486,148.51l4.102-0.15c1.901-0.167,3.385-0.467,4.452-0.9
	c0.767-0.367,1.367-0.483,1.801-0.35l1,0.75c0.333,0.333,1.268,0.867,2.801,1.601c1.167,0.5,1.834,0.867,2.001,1.1
	c0.233,0.267,0.567,0.467,1,0.6l1.55-0.15c0.567-0.267,1.734-0.684,3.501-1.25c0.9-0.233,1.634-0.117,2.201,0.35l1.25,0.951
	c0.833,0.5,0.934,1.3,0.3,2.401c-0.633,1.134-1.667,2.201-3.101,3.201c-0.867,0.6-1.084,1.267-0.65,2.001l1.701,2.601l1.701,2.351
	c0.434,0.434,0.884,0.4,1.351-0.1c0.367-0.367,1.217-0.801,2.551-1.301l0.95-0.15l0.8,0.7c0.867,0.934,1.534,1.868,2.001,2.801
	c0.434,0.733,1.217,1.1,2.351,1.1l4.801-0.6c1.067-0.1,1.818,0.2,2.252,0.9l0.156,0.208c-2.911,4.056-6.319,9.378-10.228,15.968
	c-2.169-0.23-4.319-0.421-6.454-0.582c-0.139-1.646-0.464-2.831-0.982-3.54c-0.367-0.467-0.917-0.733-1.65-0.8
	c-0.834-0.1-2.284-0.1-4.352,0c-1.4,0.067-2.101-1.234-2.101-3.901c0-1-0.517-1.701-1.551-2.101c-0.467-0.2-1.267-0.433-2.401-0.7
	l-2.451-0.45c-0.5-0.033-0.884-0.167-1.15-0.4c-0.3-0.3-0.5-0.8-0.6-1.5c-0.133-0.734-0.534-1.618-1.201-2.651
	c-0.633-0.967-1.267-1.684-1.901-2.151c-0.533-0.4-0.784-0.917-0.75-1.551c0-0.467,0.15-0.883,0.45-1.25l1.901-2.751
	c1.034-1.2,1.034-2.334,0-3.401l-1.351-2.201l-1.301-2.201c-0.467-0.567-0.984-0.884-1.551-0.95h-1.701c-1,0-1.934-0.25-2.801-0.75
	c-0.754-0.403-1.4-0.875-1.952-1.408C229.984,148.371,231.063,148.578,232.486,148.51z"/>
</svg>
