<?xml version="1.0" encoding="utf-8"?>
<!-- Generator: Adobe Illustrator 16.0.0, SVG Export Plug-In . SVG Version: 6.00 Build 0)  -->
<!DOCTYPE svg PUBLIC "-//W3C//DTD SVG 1.1//EN" "http://www.w3.org/Graphics/SVG/1.1/DTD/svg11.dtd">
<svg version="1.1" id="图层_1" xmlns="http://www.w3.org/2000/svg" xmlns:xlink="http://www.w3.org/1999/xlink" x="0px" y="0px"
	 width="165px" height="181px" viewBox="0 0 165 181" enable-background="new 0 0 165 181" xml:space="preserve">
<path d="M160.855,84.164c-1.063-0.844-4.315-0.601-9.756,0.729c-2.32-14.495-9.063-26.746-20.236-36.753
	c1.271-4.855,0.533-13.423-2.229-25.727c-2.993-13.202-6.302-20.567-9.927-22.097c-1.994-0.831-5.984,0.299-11.971,3.392
	c-5.592,2.904-11.094,6.582-16.508,11.013c-3.222-0.95-6.61-1.436-10.178-1.436c-8.213,0-15.063,2.959-20.55,8.878
	c-2.645,2.868-4.491,5.934-5.556,9.191c-4.398,1.294-8.58,3.039-12.547,5.231c-4.497-1.206-10.165-2.19-17.012-2.951
	c-12.337-1.396-19.502-1.047-21.498,1.047c-3.192,3.425-3.857,12.021-1.995,25.788c1.694,12.563,4.201,20.839,7.52,24.849
	c-0.548,3.908-0.835,7.973-0.835,12.211c0,19.318,6.401,35.48,19.203,48.481c8.142,8.285,17.737,14.017,28.771,17.218
	c-4.937,1.463-8.919,3.4-11.912,5.826c-3.425,2.827-4.39,5.221-2.893,7.185c2.228,2.394,7.881,3.391,16.959,2.991
	c9.676-0.397,18.472-2.36,26.386-5.885c3.025-1.363,4.389-3.227,4.09-5.588c-0.09-0.678-0.326-1.322-0.688-1.939
	c5.183-0.484,10.111-1.381,14.787-2.688c0.517,0.933,1.167,1.763,1.961,2.483c1.396,1.298,3.209,2.545,5.438,3.742l5.985,2.793
	c6.151,2.526,11.972,4.156,17.458,4.888c2.76,0.366,4.986,0.383,6.684,0.051c0.731-0.133,1.396-0.433,1.996-0.897
	c0.697-0.498,1.113-1.08,1.246-1.746c0.232-2.127-0.748-4.488-2.943-7.082c-2.094-2.461-4.771-4.539-8.029-6.234
	c-4.416-2.334-8.783-4.011-13.1-5.033c4.418-2.588,8.541-5.652,12.352-9.232c10.734-10.088,17.273-22.451,19.658-37.066
	c4.367-5.396,7.518-10.766,9.42-16.105C162.202,88.569,162.352,85.394,160.855,84.164z"/>
</svg>
