<?xml version="1.0" encoding="utf-8"?>
<!-- Generator: Adobe Illustrator 16.0.0, SVG Export Plug-In . SVG Version: 6.00 Build 0)  -->
<!DOCTYPE svg PUBLIC "-//W3C//DTD SVG 1.1//EN" "http://www.w3.org/Graphics/SVG/1.1/DTD/svg11.dtd">
<svg version="1.1" id="图层_1" xmlns="http://www.w3.org/2000/svg" xmlns:xlink="http://www.w3.org/1999/xlink" x="0px" y="0px"
	 width="216px" height="251px" viewBox="0 0 216 251" enable-background="new 0 0 216 251" xml:space="preserve">
<path d="M214.651,143.833c-0.366-0.767-0.949-1.266-1.749-1.499l-1.448,0.051l-0.699,0.299c-0.256,0.108-0.549,0.324-0.871,0.624
	c-0.567-0.748-1.256-1.214-2.076-1.373c-0.767-0.167-1.481-0.083-2.147,0.25c-0.425,0.181-0.882,0.552-1.365,1.083
	c-0.158-0.145-0.33-0.277-0.533-0.384l-2.299-0.1c-0.699,0.219-1.405,0.81-2.118,1.759c-1.21-0.18-2.386,0.441-3.526,1.888
	c-1.541,1.927-2.831,3.991-3.897,6.182c-2.47-2.396-5.208-4.322-8.241-5.731c-2.646-1.237-5.13-1.912-7.453-2.031
	c0.029-0.256,0.054-0.512,0.061-0.767l-0.378-1.994c0.104-0.058,0.197-0.141,0.278-0.254l2.896-4.446l0.656-1.36
	c3.993-3.084,7.839-7.217,11.533-12.427c4.762-6.66,8.275-13.787,10.539-21.38c1.499-5.095,1.799-9.008,0.9-11.739
	c-0.666-1.865-1.832-3.064-3.498-3.597c-1.299-0.399-2.813-0.083-4.545,0.949c-1.165,0.729-2.285,1.711-3.362,2.935
	c-0.757-4.24-2.179-8.548-4.28-12.926c-1.299-2.698-2.765-5.245-4.396-7.643l-2.348-3.097c-5.029-6.527-11.789-11.623-20.281-15.286
	c-2.73-1.166-5.479-2.131-8.242-2.897l-0.05-0.011c-0.864-0.588-1.653-1.214-2.349-1.888l-1.199-1.249
	c-1.564-2.231-1.414-4.563,0.45-6.994l3.297-4.446c1.599-2.032,2.231-3.997,1.898-5.895c-0.3-1.932-1.615-3.713-3.946-5.345
	l-3.247-2.498L143.667,18c-3.331-3.397-4.546-7.126-3.647-11.189c0.467-2.032,1.316-3.813,2.549-5.345
	c0.399-0.6,0.516-1.016,0.35-1.249l-0.899-0.2l-0.999,0.15c-2.365,0.5-4.729,1.532-7.094,3.097c-4.729,3.13-7.31,7.41-7.742,12.838
	l0.199,2.698c0.333,1.499,1.115,3.097,2.348,4.795c1,1.399,1.398,2.564,1.199,3.497c-0.199,1.099-1.249,2.314-3.146,3.646
	l-1.399,0.949c-4.462,2.997-7.376,5.461-8.741,7.393c-2.795,3.976-2.76,8.375,0.089,13.195c-2.31,0.99-4.703,2.348-7.183,4.089
	c-6.425,4.491-11.266,10.358-14.565,17.565c-0.808-1.076-1.534-1.913-2.169-2.479c-3.23-3.497-6.46-5.279-9.691-5.345
	c-1.832-0.066-3.447,0.383-4.846,1.349c-3.33,2.231-4.995,8.009-4.995,17.334c0,2.964,0.333,6.394,0.999,10.291
	c0.133,0.899,0.449,2.331,0.949,4.296c0.833,3.197,1.832,6.294,2.997,9.292c1.021,2.647,2.121,5.076,3.295,7.302
	c-6.103-3.07-13.61-4.109-22.528-3.105c-3.264,0.399-6.577,1.049-9.94,1.948l-4.118,1.264c-1.239-2.226-2.663-6.122-4.274-11.704
	c-1.265-4.296-2.364-8.559-3.297-12.788c-0.366-1.798-1.232-3.114-2.598-3.946c-0.666-0.367-1.415-0.566-2.248-0.6l-1,0.05
	l-2.248,1.299c-1.299,1.399-1.765,3.563-1.399,6.494l1.449,7.143c0.524,2.047,1.129,4.003,1.777,5.912l-0.178-0.217l-4.496-6.444
	l-3.946-5.595c-1.432-1.765-3.03-2.764-4.795-2.998c-1.032-0.1-1.965,0.1-2.797,0.6c-0.433,0.267-0.766,0.549-0.999,0.849
	l-0.899,1.998c-0.3,1.799,0.233,3.863,1.599,6.194c1.432,2.431,3.463,5.195,6.094,8.292c1.146,1.339,2.205,2.503,3.184,3.51
	l-0.137-0.063l-3.847-1.698l-7.043-2.698c-2.498-0.999-4.163-1.615-4.995-1.848c-2.598-0.766-4.596-0.183-5.995,1.749
	c-0.566,0.799-0.783,1.798-0.649,2.997c0.167,1.499,0.966,2.764,2.398,3.796c1.898,1.332,6.577,3.097,14.037,5.295l0.295,0.085
	c-3.762-0.256-7.147-0.157-10.136,0.315c-2.231,0.333-3.913,0.783-5.045,1.349c-1.666,0.733-2.581,1.981-2.748,3.747
	c-0.067,0.832,0.066,1.615,0.399,2.348c0.899,2.498,3.331,3.447,7.293,2.848l3.097-0.199l7.293-0.5
	c2.797-0.233,4.696-0.066,5.695,0.5l1.648,1.049l5.945,3.746c2.989,1.196,6.475,1.214,10.458,0.059l3.679,1.989
	c3.43,1.565,6.127,2.231,8.092,1.999l2.048-0.65c1.465-0.732,2.398-1.848,2.797-3.347c0.233-0.966,0.133-1.932-0.3-2.897
	c-0.533-1.266-1.548-2.148-3.047-2.647c-0.88-0.33-1.678-0.674-2.427-1.026l2.427-0.722c3.03-0.767,6.094-1.299,9.191-1.599
	c9.791-0.933,17.983,0.6,24.577,4.596l8.742,5.744c6.261,4.33,10.624,7.977,13.088,10.94c-1.531,2.664-2.931,4.796-4.196,6.394
	c-1.703,2.123-3.418,3.739-5.147,4.854c0.245-1.788,0.335-3.302,0.251-4.504c-0.133-1.864-0.649-3.446-1.549-4.745
	c-0.899-1.266-1.965-2.198-3.197-2.798c-1.232-0.6-2.98-1.065-5.245-1.398c-1.199-0.166-2.248-0.466-3.147-0.898l-0.999-0.6
	c-1.199-0.933-1.615-2.266-1.249-3.996l0.949-2.498c0.299-0.467,0.383-0.816,0.25-1.049c-0.133-0.233-0.483-0.367-1.049-0.4
	c-2.231-0.033-3.997,0.45-5.295,1.449c-0.866,0.666-1.615,1.698-2.248,3.097l-0.15-2.447c0.066-2.331,0.599-4.43,1.598-6.294
	l1.599-2.299l0.45-0.849c-0.067-0.2-0.433-0.35-1.099-0.45h-1.798c-1.432,0.167-2.781,0.55-4.046,1.149
	c-4.063,1.965-6.66,5.928-7.792,11.89c-1.299-2.065-2.931-3.23-4.896-3.497c-0.733-0.101-1.182,0.05-1.349,0.449
	c-0.034,0.167,0.183,0.45,0.649,0.849l1.598,2.148c0.766,1.832,0.616,3.947-0.449,6.344l-1.648,2.947
	c-2.098,3.631-3.214,6.145-3.347,7.543c-0.291,2.974,1.365,6.105,4.932,9.393c-0.955,2.215-1.342,4.888-1.135,8.042l0.25,2.798
	l0.393,1.253c-3.115-3.37-6.425-5.825-9.934-7.348c-2.065-0.899-4.096-1.415-6.095-1.549l-2.598,0.101
	c-2.964,0.365-4.979,1.564-6.044,3.596c-0.533,1-0.766,1.965-0.7,2.898V179l0.386,1.718c-3.229,0.582-5.02,2.447-5.331,5.626
	c-0.133,1.232,0.117,2.397,0.75,3.496c0.635,1.075,1.563,1.82,2.771,2.25c-0.657,0.248-1.315,0.589-1.972,1.047
	c-1.998,1.399-2.98,3.364-2.947,5.895l0.55,2.299c0.666,1.531,1.798,2.598,3.397,3.197l1.398,0.398
	c1.199,0.201,2.448,0.184,3.747-0.049l7.593-1.499l3.397-0.399c2.764,0,5.428,0.749,7.993,2.248
	c6.461,3.796,11.256,4.313,14.387,1.549c1.898-1.633,2.847-4.014,2.847-7.145l-0.07-0.953l3.467-0.495
	c2.997,0,5.628,0.815,7.893,2.448c4.829,3.496,9.308,5.545,13.438,6.145c2.695,0.406,5.292,0.199,7.794-0.603
	c0.561,0.571,1.078,1.25,1.548,2.051c0.566,0.966,0.799,1.614,0.699,1.948l-0.449,1.148c-0.277,0.585-0.491,1.111-0.655,1.59
	c-2.036,0.341-3.738,0.956-5.09,1.857c-2.065,1.365-3.097,3.246-3.097,5.645l0.05,0.05c-0.066,0.366,0.067,1.032,0.4,1.998
	c0.533,1.532,1.465,3.247,2.797,5.146c1.365,1.898,2.547,4.196,3.547,6.894l1.099,3.497c0.699,3.264,1.914,6.044,3.646,8.342
	c1.998,2.664,4.346,4.097,7.043,4.297l1.299,0.049c1.033-0.033,1.998-0.232,2.897-0.6c0.866-0.365,1.549-0.948,2.048-1.748
	l0.5-0.999c0.141-0.407,0.212-0.813,0.223-1.221c2.671,1.044,4.799,1.571,6.371,1.571c1.665-0.034,3.08-0.65,4.246-1.85l0.949-1.498
	c0.267-0.766,0.333-1.516,0.199-2.248c-0.064-0.368-0.168-0.668-0.289-0.938c1.151,0.102,2.202-0.058,3.137-0.511
	c1.166-0.499,1.932-1.315,2.299-2.448c0.266-0.799,0.332-1.631,0.199-2.498c-0.267-1.664-1.232-2.863-2.897-3.596
	c-1.698-0.732-4.263-1.033-7.692-0.899c-2.099,0.1-4.33-0.383-6.694-1.448l-2.997-1.648c-1.699-1.166-2.947-2.798-3.746-4.896
	l-0.572-2.331c3.574-0.207,6.716-1.204,9.414-3.014c3.363-2.231,5.295-5.312,5.794-9.241c0.821-6.468-1.91-14.054-8.177-22.755
	c0.633-2.393,1.228-6.029,1.783-10.914l0.898-6.294c0.732-3.63,1.982-6.444,3.747-8.442l2.497-1.898
	c0.039-0.017,0.064-0.042,0.093-0.066c1.719,0.661,3.582,1.17,5.603,1.515c5.361,0.9,10.174,0.75,14.437-0.449
	c2.243-0.667,4.107-1.546,5.603-2.63c1.176-0.202,2.308-0.478,3.406-0.81l5.478,0.043c4.962,0.666,9.458,2.631,13.487,5.895
	l1.799,0.999c0.009,0.003,0.017,0.004,0.025,0.007c0.234,0.775,0.699,1.539,1.424,2.291l2.598,2.248l0.948,0.85
	c0.899,0.799,1.749,1.998,2.548,3.596c0.6,1.232,0.999,2.314,1.199,3.248c0.266,1.064,0.749,1.897,1.448,2.497
	c0.833,0.699,1.849,0.966,3.048,0.8c1.132-0.167,1.98-0.783,2.547-1.849c0.467-0.866,0.649-1.832,0.55-2.897l-0.2-3.447l0.1-0.849
	c0.167-1.433,1.682-4.413,4.547-8.942l6.344-9.591l0.649-0.999c1.065-1.632,1.599-3.113,1.599-4.445L214.651,143.833z"/>
</svg>
