<?xml version="1.0" encoding="utf-8"?>
<!-- Generator: Adobe Illustrator 16.0.0, SVG Export Plug-In . SVG Version: 6.00 Build 0)  -->
<!DOCTYPE svg PUBLIC "-//W3C//DTD SVG 1.1//EN" "http://www.w3.org/Graphics/SVG/1.1/DTD/svg11.dtd">
<svg version="1.1" id="图层_1" xmlns="http://www.w3.org/2000/svg" xmlns:xlink="http://www.w3.org/1999/xlink" x="0px" y="0px"
	 width="289px" height="323px" viewBox="0 0 289 323" enable-background="new 0 0 289 323" xml:space="preserve">
<path d="M285.9,215.875c-0.801-1.267-3.634-4.733-8.5-10.4c-0.834-0.967-2.033-1.833-3.601-2.6c-1.466-0.733-2.917-1.217-4.35-1.45
	l-9.601-1.35c-0.178-0.008-0.344-0.01-0.517-0.015c-0.493-1.841-1.355-3.719-2.633-5.636c-0.95-1.45-1.929-2.667-2.936-3.648
	c2.5-3.476,4.169-7.142,4.985-11.001c1.033-4.967,0.316-9.051-2.15-12.25c-1.934-2.467-4.583-3.467-7.949-3
	c-1.301,0.199-2.45,0.684-3.45,1.449c-1.101,0.9-1.851,2.066-2.25,3.5c-1.601,5.634-3.067,9.884-4.4,12.75
	c-0.167,0.342-0.315,0.674-0.446,0.997c-3.865-1.018-7.865-2.563-12.004-4.646c-5.533-2.767-12.5-5.684-20.899-8.75
	c-9.648-3.54-18.522-6.229-26.64-8.092c9.376-3.969,16.491-11.336,21.34-22.108c5.133-11.4,6.316-22.667,3.55-33.8
	c-0.567-2.2-1.684-3.617-3.351-4.25c-1.6-0.6-3.333-0.367-5.199,0.7c-2,1.133-3.851,2.717-5.551,4.75
	c-0.529,0.645-1.01,1.313-1.464,1.994c-2.865-17.492-11.832-32.262-26.936-44.294c-7.101-5.633-14.884-9.983-23.35-13.05
	c-8.567-3.066-17.1-4.533-25.6-4.4c-0.8,0.034-1.25,0.184-1.35,0.45s0.1,0.683,0.6,1.25c4.3,4.7,7.483,8.7,9.55,12
	c2.1,3.367,3.2,6.316,3.3,8.85c0.066,1.466-0.1,2.483-0.5,3.05c-0.367,0.5-1.15,0.9-2.35,1.2c-5.1,1.333-10.1,3.816-15,7.45
	c-4.522,3.392-7.906,7.13-10.188,11.206c0.566-2.293,1.375-4.234,2.438-5.806l3.95-6.5c1.033-2.133,1.583-4.183,1.65-6.15
	c0.1-2.3-0.317-4.283-1.25-5.95c-0.934-1.667-2.233-2.8-3.9-3.4c-2.067-0.767-4-0.9-5.8-0.4c-1.867,0.534-3.1,1.617-3.7,3.25
	c-1.109,3.151-2.448,5.99-3.99,8.553c-0.624-0.178-1.276-0.265-1.96-0.252c-1.7,0.033-3.317,0.616-4.85,1.75
	c-0.833,0.566-2.083,1.65-3.75,3.25l-3.8,3.8c-0.833,0.967-1.45,1.9-1.85,2.8c-0.425,0.957-0.729,2.081-0.921,3.356
	c-0.331,0.103-0.658,0.227-0.979,0.394l-3.5,2.4l-1.945,1.561c-0.057-1.123-0.289-2.079-0.705-2.861c-0.534-1-1.45-1.833-2.75-2.5
	c-2.833-1.367-5.75-2.483-8.75-3.35c-0.367-0.133-0.583-0.35-0.65-0.65c-0.066-0.3,0.05-0.6,0.35-0.9
	c0.867-0.867,1.25-1.733,1.15-2.6c-0.066-0.867-0.633-1.566-1.7-2.1c-0.567-0.3-0.85-0.716-0.85-1.25c0-0.533,0.25-1.066,0.75-1.6
	c1.933-1.934,4.1-3.784,6.5-5.55c2.633-1.966,4.7-3.183,6.2-3.65c3.233-1,5.316-2.783,6.25-5.35c0.833-2.267,0.6-4.4-0.7-6.4
	c-0.833-1.333-0.85-2.583-0.05-3.75l2.2-2.6c0.9-0.9,1.767-1.617,2.6-2.15c1.367-0.9,1.917-1.9,1.65-3s-1.316-1.7-3.15-1.8
	c-5-0.2-9.3,0.167-12.9,1.1l-7.2,0.65c-0.833-0.1-1.316-0.417-1.45-0.95s0.133-1.033,0.8-1.5l2.55-1.75
	c0.733-0.533,1.034-0.967,0.9-1.3c-0.167-0.434-0.684-0.75-1.55-0.95l-1.5-0.45c-0.133-0.267,0.217-0.7,1.05-1.3
	c2.633-1.833,3.617-3.25,2.95-4.25c-0.4-0.566-1.05-0.967-1.95-1.2l-2.8-0.3c-3.233-0.133-4.833-0.65-4.8-1.55
	c0.066-0.634,0.367-1.217,0.9-1.75c0.533-0.534,1.483-1.217,2.85-2.05c3.467-2.1,8.066-4.517,13.8-7.25c5-2.433,9.2-4.316,12.6-5.65
	c1.333-0.5,2.033-1.05,2.1-1.65c0.1-0.633-0.533-1.133-1.9-1.5l-2.5-0.25l-2.2,0.3h-0.95c-0.267-0.066-0.283-0.183-0.05-0.35
	l5.15-3.15l4.55-3.05c1.566-1.4,1.9-2.35,1-2.85l-4,0.25c-6.267,1.767-12.017,3.5-17.25,5.2c-9.967,3.267-17.934,6.65-23.9,10.15
	c-2,1.2-3.45,2.283-4.35,3.25c-0.833,0.933-1.333,1.95-1.5,3.05l-0.45,2.15c-0.3,0.9-0.867,1.517-1.7,1.85
	c-5.6,2.4-8.933,3.85-10,4.35c-3.9,1.934-6.783,3.883-8.65,5.85c-1,1.066-1.467,2.033-1.4,2.9c0.1,0.833,0.717,1.533,1.85,2.1
	c0.667,0.333,1.083,0.85,1.25,1.55c0.2,0.8-0.017,1.6-0.65,2.4c-1.6,2.034-2.784,4.317-3.55,6.85c-0.833,2.733-0.933,4.934-0.3,6.6
	c1.033,2.6,2.683,4.316,4.95,5.15c2.167,0.8,4.434,0.65,6.8-0.45l6.95-3.5l5.6-3.3c1.133-0.833,2.283-1.433,3.45-1.8l2.3-0.05
	l1.25,1.35c0.5,0.6,0.767,1.133,0.8,1.6l-0.25,0.7c-0.767,0.767-1.133,1.517-1.1,2.25c0.033,0.533,0.3,1.233,0.8,2.1
	c0.333,0.5,0.383,1.017,0.15,1.55c-0.233,0.5-0.683,0.867-1.35,1.1c-1.034,0.366-2.333,1.017-3.9,1.95
	c-1.633,0.934-2.767,1.717-3.4,2.35c-1.833,1.833-1.967,3.417-0.4,4.75c1.333,1.167,1.983,2.4,1.95,3.7
	c-0.1,1.366-0.967,2.466-2.6,3.3c-3.2,1.633-7.083,4.05-11.65,7.25c-4.6,3.2-7.417,5.467-8.45,6.8c-2.6,3.333-2.833,5.617-0.7,6.85
	c0.5,0.267,1.733,0.55,3.7,0.85l4.05,0.6c0.767,0.133,1.233,0.35,1.4,0.65c0.167,0.3,0.05,0.617-0.35,0.95
	c-2.767,2.433-3.983,4.517-3.65,6.25c0.333,1.733,2.267,3.05,5.8,3.95c1.267,0.333,2.05,0.867,2.35,1.6c0.3,0.767,0.033,1.4-0.8,1.9
	c-1.267,0.733-2.216,1.65-2.85,2.75c-0.7,1.2-0.817,2.317-0.35,3.35c0.4,0.867,1.183,1.75,2.35,2.65l2.8,1.85
	c0.433,0.233,0.683,0.417,0.75,0.55l-0.35,0.7c-11.433,15.7-18.233,31.5-20.4,47.4c-1.5,11.133-0.733,21.434,2.3,30.899
	c3.067,9.467,8.2,17.167,15.4,23.101c6.955,5.687,16.721,10.438,29.285,14.255c-1.391,2.549-2.59,4.902-3.585,7.045
	c-0.333,0.7-0.9,1.399-1.7,2.1l-2.3,1.601c-2.767,1.333-6.483,2.649-11.15,3.949c-1.333,0.367-2,0.95-2,1.75
	c-0.033,0.768,0.583,1.484,1.85,2.15c2.993,1.484,5.457,2.915,7.401,4.293c-2.463,1.646-4.786,3.651-6.952,6.057
	c-3.133,3.467-5.133,6.934-6,10.4c-4.267-0.334-8.117,0.816-11.55,3.45c-3.367,2.566-5.133,5.583-5.3,9.05
	c-0.3,6.3,2.4,10.2,8.1,11.7c4.979,1.26,10.03,0.317,15.151-2.815c0.175,0.805,0.419,1.625,0.75,2.465
	c1.4,3.566,3.85,5.917,7.35,7.051c3.667,1.199,7.25,1,10.75-0.601c2.29-1.05,4.114-2.422,5.489-4.104
	c0.143,0.869,0.375,1.721,0.711,2.554c0.967,2.367,2.733,4.316,5.3,5.85c2.567,1.533,5.434,2.316,8.6,2.351
	c3.167,0.033,6.05-0.9,8.65-2.8c2.633-1.934,4.367-4.417,5.2-7.45c0.767-2.833,0.6-5.65-0.5-8.45
	c-0.529-1.314-1.227-2.479-2.074-3.513c0.15-2.634,0.069-5.406-0.276-8.337c-0.305-2.714-0.78-5.05-1.406-7.05
	c0.825,0.293,1.657,0.577,2.456,0.899l4.95,2.05l2.7,0.15c0.433-0.4,0.35-1.167-0.25-2.3c-1.867-3.5-3.117-6.617-3.75-9.351
	c-0.333-1.366-0.467-2.517-0.4-3.45c0.1-1.333,0.566-2.85,1.4-4.55c2.145-4.146,3.981-7.715,5.522-10.733
	c9.425,1.194,17.408,0.853,23.953-1.023l8.975-0.843l10.95-0.65c0.867,0.101,1.417,0.284,1.65,0.55c0.267,0.334,0.2,0.867-0.2,1.601
	c-1.333,2.433-3.45,5.8-6.35,10.1l-6.1,0.75l-6.1,0.9c-1.033,0.2-1.633,0.583-1.8,1.149c-0.133,0.467,0.05,1.018,0.55,1.65l2.1,2
	l2.7,2.25l-4.1,2.8l-3.15,2.75c-0.6,0.667-0.8,1.3-0.6,1.9c0.233,0.634,0.816,0.95,1.75,0.95l1.585,0.105
	c-0.715,1.088-0.949,2.482-0.685,4.194c0.367,2.399,1.683,4.466,3.95,6.2c4.5,3.399,10.633,5.5,18.4,6.3
	c8.367,0.866,16.583-0.067,24.65-2.8c5.334,2.934,10.834,4.766,16.5,5.5c5.2,0.666,9.45,0.3,12.75-1.101
	c3.633-1.533,5.483-3.767,5.55-6.7c0.072-2.105-0.852-3.957-2.737-5.563c0.319-1.448,0.088-2.794-0.713-4.036
	c-0.8-1.233-2.05-2.267-3.75-3.1c-1.328-0.656-2.815-1.167-4.447-1.546c-0.182-0.388-0.412-0.788-0.702-1.204
	c-0.601-0.801-1.25-1.384-1.95-1.75c-4.434-2.2-10.467-1.967-18.1,0.699l-1.484-0.668c0.099-0.028,0.197-0.059,0.284-0.082
	c0.866-0.266,1.35-0.699,1.45-1.3c0.1-0.634-0.268-1.216-1.101-1.75c-1.933-1.2-4.533-2.45-7.8-3.75l10.15-20.55
	c2.633-6.033,2.833-11.05,0.6-15.05c-1.867-3.3-5.184-5.634-9.95-7c-3.7-1.067-7.233-1.65-10.6-1.75l-10.026,0.816
	c0.19-2.91,0.085-6.129-0.324-9.667c-1.148-10.718-1.108-20.079,0.094-28.11l2.105,2.761l4.65,5.55
	c1.466,1.434,2.75,1.217,3.85-0.649c1.101-1.867,2.067-4.101,2.9-6.7c0.747-2.27,1.226-4.371,1.46-6.319
	c2.803,0.994,6.592,2.778,11.39,5.369c1.134,0.6,1.95,0.684,2.45,0.25c0.467-0.367,0.6-1.084,0.4-2.15
	c-0.468-2.479-1.238-5.066-2.275-7.751c14.481,5.288,32.452,19.094,53.925,41.451c5.366,5.634,10.317,10.184,14.851,13.65
	c3.856,2.989,7.617,5.356,11.286,7.113c0.014,0.705,0.096,1.417,0.264,2.137c0.333,1.5,0.616,3.95,0.85,7.35l0.351,7.851
	c0,1.934,0.717,3.467,2.149,4.6c1.366,1.1,3,1.584,4.9,1.45c1.5-0.101,2.767-0.601,3.8-1.5c1.281-1.063,2.042-2.604,2.297-4.604
	c0.784,0.244,1.633,0.332,2.553,0.253c2.101-0.199,3.717-0.982,4.851-2.35c0.966-1.2,1.517-2.75,1.649-4.65
	c0.214-2.284,0.146-5.384-0.198-9.281c0.924,0.266,1.84,0.37,2.749,0.281c2-0.232,3.533-0.866,4.6-1.899
	c1.334-1.267,1.816-3.067,1.45-5.4l-1.2-6.149c-0.476-2.237-0.813-4.176-1.031-5.85c1.511,1.185,3.137,1.724,4.881,1.6
	c1.834-0.134,3.734-0.984,5.7-2.551c1.601-1.333,2.55-2.816,2.851-4.449C287.383,219.175,286.967,217.541,285.9,215.875z
	 M30,223.175c-6.833-5.7-11.5-13.45-14-23.25c-2.167-8.634-1.9-17.733,0.8-27.3c2.8-9.834,8.367-20.9,16.7-33.2
	c0.767-1.033,1.4-1.75,1.9-2.15c0.467-0.4,0.967-0.6,1.5-0.6c0.434,0,0.867,0.167,1.3,0.5l0.8,0.75
	c1.033,1.067,2.233,1.583,3.6,1.55c1.2-0.067,2.183-0.534,2.95-1.4c0.5-0.6,1.083-1.067,1.75-1.4c0.204-0.102,0.403-0.18,0.6-0.243
	c-4.123,15.535-5.131,28.39-3,38.543c1.633,7.634,4.633,13.066,9,16.301c4.267,3.133,10,4.266,17.2,3.399
	c5.667-0.667,11.25-2.017,16.75-4.05c2.593-0.973,5.077-2.075,7.458-3.3c-0.854,1.397-1.905,2.979-3.208,4.8l-5.75,7.85
	c-5.252,7.377-9.126,13.375-11.636,18.009c-0.388,0.079-0.771,0.144-1.164,0.241c-5.667,1.367-10.15,4.301-13.45,8.801
	c-1.51,2.054-3.054,4.304-4.628,6.737C45.061,232.185,36.559,228.668,30,223.175z"/>
</svg>
