<?xml version="1.0" encoding="utf-8"?>
<!-- Generator: Adobe Illustrator 16.0.0, SVG Export Plug-In . SVG Version: 6.00 Build 0)  -->
<!DOCTYPE svg PUBLIC "-//W3C//DTD SVG 1.1//EN" "http://www.w3.org/Graphics/SVG/1.1/DTD/svg11.dtd">
<svg version="1.1" id="图层_1" xmlns="http://www.w3.org/2000/svg" xmlns:xlink="http://www.w3.org/1999/xlink" x="0px" y="0px"
	 width="337px" height="376px" viewBox="0 0 337 376" enable-background="new 0 0 337 376" xml:space="preserve">
<path d="M331.692,245.454c-0.966-4.829-2.831-9.442-5.596-13.839c-1.288-2.081-3.284-4.705-5.98-7.867
	c-0.686-2.438-2.07-6.638-4.161-12.617l-3.397-9.492c-0.2-0.732-0.5-1.082-0.899-1.049c-0.3,0.033-0.5,0.467-0.6,1.299l-0.406,5.05
	l-1.792-3.501l-2.897-5.146c-0.467-0.767-0.883-1.05-1.249-0.85c-0.2,0.101-0.3,0.35-0.3,0.749l0.1,0.6l2.501,11.968
	c-1.87-3.025-4.103-7.028-6.697-12.018c-1.832-3.497-3.481-6.794-4.946-9.892l-2.498-17.636c-0.066-0.666-0.232-1.016-0.5-1.049
	c-0.332-0.1-0.648,0.15-0.949,0.75l-3.855,6.17c-1.146-4.066-2.517-8.25-4.138-12.565l-2.548-6.395
	c-0.267-0.6-0.566-0.883-0.899-0.85c-0.366,0.033-0.583,0.383-0.649,1.049l-1.606,16.941l-13.4-20.801
	c0.24-0.439,0.358-0.945,0.318-1.536c-0.066-1.932-0.749-4.663-2.048-8.193l-1.836-4.477c7.825-6.15,14.469-14.745,19.921-25.799
	c1.933-3.93,3.614-7.96,5.046-12.09l1.699-5.595c0.966-3.331,0.883-5.379-0.25-6.145c-0.4-0.4-1.049-0.616-1.949-0.65
	c-1.831-0.033-3.846,0.899-6.045,2.798c-1.765,1.532-3.88,3.681-6.345,6.445c-2.058,2.28-3.938,4.532-5.644,6.757l2.596-5.857
	c0.2-0.566,0.233-0.933,0.101-1.099c-0.101-0.1-0.433-0.1-0.999,0c-0.729,0.177-1.943,0.787-3.622,1.812
	c1.326-1.522,2.589-3.058,3.771-4.61c1.232-1.565,1.915-4.097,2.048-7.594c0.167-3.597-0.266-7.361-1.299-11.291
	c-0.932-3.664-3.547-6.012-7.844-7.044l-6.145-0.45l-3.547-0.35c-1.066-0.367-1.648-1-1.749-1.898
	c-0.033-0.667,0.116-1.199,0.45-1.599c0.365-0.366,0.898-0.616,1.598-0.749l1.449-0.2l1.749-0.25c0.532-0.133,1.016-0.366,1.448-0.7
	c1.299-1.032,1.615-3.43,0.949-7.194c-0.932-5.196-3.347-10.442-7.244-15.738c-4.396-5.962-9.609-10.308-15.637-13.04
	c-5.097-2.298-9.942-3.248-14.539-2.848c-4.662,0.366-8.643,2.098-11.94,5.196l-1.049,1.049l-2.849,2.498
	c-1.365,0.966-2.747,1.499-4.146,1.599c-2.564,0.2-5.229-1.749-7.993-5.845c-1.332-1.898-2.632-3.331-3.897-4.297
	c-1.232-0.999-2.58-1.648-4.047-1.948c-3.363-0.699-6.361,0.133-8.992,2.498c-1.266,1.166-2.481,2.065-3.646,2.698l-1.399,0.549
	c-1.266,0.433-2.731,0.3-4.396-0.399c-3.331-1.366-6.362-4.713-9.093-10.042c-2.564-5.063-3.581-9.442-3.047-13.14
	c0.299-1.898,0.882-3.347,1.749-4.346l0.5-0.65l0.05-0.449l-1.149-0.2c-1.666,0.466-3.331,1.482-4.996,3.048
	c-3.364,3.164-5.179,7.577-5.446,13.239c-0.266,5.695,0.966,10.142,3.697,13.339c0.899,1.027,1.844,1.811,2.826,2.398
	c-0.419-0.112-0.844-0.274-1.277-0.5c-2.665-1.366-6.145-4.746-10.442-10.142c-4.729-5.929-9.625-10.159-14.688-12.69
	c-3.697-1.832-8.31-3.048-13.839-3.647c-3.264-0.366-5.628,0.85-7.094,3.647c-0.833,1.599-1.465,4.296-1.898,8.093l-0.849,4.597
	c-0.3,1.399-0.866,2.231-1.699,2.498c-0.075,0.03-0.169,0.036-0.257,0.05l-0.394,0.015c-0.46-0.029-1.034-0.19-1.747-0.515
	c-0.766-0.333-2.132-1.066-4.097-2.198c-2.765-1.599-4.896-2.048-6.395-1.349c-1,0.466-1.599,1.382-1.799,2.748l-0.1,2.748
	l0.1,1.549c0,0.5-0.1,0.816-0.3,0.949c-0.899,0.633-1.932,0.483-3.097-0.45l-1.449-1.648c-1.299-1.799-2.415-3.131-3.347-3.997
	c-1.965-1.798-4.596-3.464-7.894-4.996c-4.297-1.965-9.809-2.498-16.537-1.599l-9.442,2.148c-0.633,0.2-0.916,0.5-0.849,0.899
	c0,0.267,0.283,0.433,0.849,0.5c8.061,1.365,13.723,3.38,16.987,6.045c2.464,1.965,3.63,4.396,3.497,7.294l-0.2,2.098
	c-0.067,0.966,0,1.782,0.2,2.448c0.5,1.632,2.332,2.714,5.496,3.247l6.545,0.45h1.449c1.332-0.133,2.315,0.034,2.948,0.5
	c0.433,0.333,0.649,1.049,0.649,2.148c0.033,0.566-0.217,0.999-0.75,1.299c-0.6,0.4-1.615,0.3-3.048-0.3l-2.248-0.999L70.5,41.667
	c-2.931-0.667-6.012-0.233-9.243,1.299c-1.798,0.866-3.281,1.832-4.446,2.897l-0.35,0.5c-0.133,0.233-0.167,0.416-0.1,0.549
	c0.133,0.3,0.5,0.4,1.099,0.3l2.748-0.2l6.245,0.5c6.362,1.299,10.642,4.58,12.84,9.842c3.131,7.46,7.344,11.89,12.64,13.289
	l5.695,0.2c1.865-0.367,3.53-1.133,4.996-2.298c2.698-2.099,4.146-5.646,4.346-10.642c0.167-3.864-0.383-7.977-1.648-12.34
	c2.165-0.866,4.646-1.166,7.444-0.899c5.163,0.5,9.992,3.047,14.489,7.644c2.431,2.332,3.397,4.846,2.897,7.544
	c-0.267,1.366-0.816,2.548-1.648,3.547l-3.098,4.896c-1.266,2.831-1.166,5.296,0.3,7.394c0.766,1.232,2.332,2.332,4.696,3.297
	l3.497,1.149c5.596,1.532,8.36,2.864,8.293,3.997c-0.033,0.766-0.217,1.266-0.55,1.499l-0.749,0.15l-0.899,0.05
	c-2.731,0.033-5.279,0.766-7.644,2.198c-2.465,1.499-3.93,3.314-4.396,5.446c-0.167,0.533-0.1,0.899,0.2,1.099l1.049-0.35
	c0.899-0.566,1.749-1.032,2.548-1.398c1.965-0.899,4.03-1.499,6.195-1.799c6.462-0.892,12.666,1.1,18.611,5.96
	c0.603,1.447,1.244,2.884,1.918,4.311c-2.071,0.372-3.991,0.825-5.741,1.37l-2.298,0.799c-0.533,0.233-0.816,0.433-0.849,0.6
	c-0.033,0.233,0.167,0.516,0.6,0.85l17.246,11.433c1.694,2.28,3.477,4.43,5.353,6.441l-4.434,4.475
	c-1.885,0.031-3.868,0.18-5.976,0.483c-2.831,0.4-5.545,1.649-8.143,3.747c-2.532,2.032-4.813,4.746-6.845,8.144
	c-2.631,4.396-4.396,9.442-5.296,15.138c-0.137,0.859-0.24,1.677-0.329,2.477l-7.265,13.261c-1.294,2.092-2.958,4.575-4.978,7.435
	l-7.762,0.359c-0.866,0.1-1.333,0.333-1.399,0.7c-0.067,0.266,0.216,0.616,0.849,1.049l4.681,2.791l-3.387,1.454L117.809,184
	l-1.146-10.088c0-0.666-0.183-1.049-0.549-1.149c-0.133-0.033-0.3,0.05-0.5,0.25c-0.2,0.2-0.35,0.433-0.449,0.7l-2.798,6.045
	c-0.542,1.257-1.072,2.52-1.59,3.789c-23.272-1.803-42.361-6.063-57.263-12.782c-15.088-6.828-24.98-15.754-29.676-26.778
	c-2.032-4.863-2.998-9.31-2.898-13.34c0.167-6.794,1.649-12.506,4.447-17.136c1.698-2.797,4.296-5.646,7.793-8.543
	c3.797-3.131,7.544-5.729,11.241-7.794l6.695-3.697c2.598-1.532,4.779-3.081,6.544-4.646c3.331-2.998,4.996-6.378,4.996-10.142
	c0-1.998-0.583-3.88-1.749-5.645c-0.766-1.532-2.515-2.948-5.246-4.247c-4.629-2.165-10.292-2.415-16.986-0.749
	c-4.363,0.899-8.893,3.097-13.589,6.595c-4.83,3.597-9.126,8.077-12.89,13.439c-8.993,12.657-12.89,26.362-11.691,41.117
	c2.198,23.415,17.003,41.351,44.415,53.807c7.561,3.431,15.971,6.379,25.23,8.843c7.732,2.051,15.819,3.662,24.221,4.883
	c-1.336,0.63-2.666,1.255-4.037,1.912c-8.093,3.863-12.906,6.345-14.438,7.444c-0.633,0.399-0.916,0.749-0.849,1.049
	c0.066,0.232,0.233,0.383,0.5,0.449l0.75,0.051l9.243,0.25c5.731,0.113,9.998,0.104,12.824-0.025l-5.13,6.27l-5.571,7.044
	l0.725-3.147c0.2-0.865,0.117-1.415-0.25-1.648c-0.3-0.166-0.716,0.15-1.249,0.949l-14.838,22.982
	c-3.864,2.864-7.527,6.444-10.991,10.741c-6.961,8.626-11.308,18.118-13.04,28.478c-0.899,4.93-0.4,9.025,1.499,12.29
	c0.555,0.963,1.15,1.768,1.785,2.418l1.512,3.277c1.413,2.695,2.908,4.688,4.482,5.989l0.414,1.355
	c0.799,2.031,2.031,3.48,3.697,4.346l0.091-0.07c0.036,0.147,0.072,0.292,0.108,0.42c0.466,1.633,1.266,2.898,2.398,3.797
	c0.716,0.572,1.667,1.027,2.826,1.379c0.02,0.193,0.042,0.373,0.071,0.52c0.333,1.699,1.183,2.832,2.548,3.397
	c1.786,0.696,3.497,1.246,5.144,1.664c-0.2,0.081-0.392,0.143-0.597,0.235c-1.166,0.499-2.065,0.982-2.698,1.448
	c-0.5,0.399-0.75,0.699-0.75,0.899l0.75,0.6c3.797,1.531,7.427,3.146,10.892,4.846c4.163,2.031,6.511,3.431,7.044,4.197
	c0.633,0.932,2.082,4.113,4.347,9.542c1.866,4.498,3.131,7.48,3.8,8.958c0.499,6.826,0.997,12.561,1.496,17.171l1.199,3.298
	c1.398,2.265,3.647,3.563,6.744,3.896c4.097,0.434,7.561-0.616,10.392-3.147c0.453-0.409,0.843-0.942,1.185-1.575
	c1.321,1.064,2.785,1.915,4.411,2.524c2.065,0.8,3.98,1.099,5.746,0.899c2.465-0.267,4.38-1.183,5.746-2.748
	c0.729-0.856,1.245-1.838,1.559-2.937c1.134,1.204,2.724,2.136,4.786,2.786c2.198,0.667,4.08,0.85,5.646,0.551
	c2.465-0.467,4.28-1.566,5.446-3.298c0.292-0.429,0.505-0.891,0.646-1.382c1.877,0.669,3.855,1.011,5.948,0.982
	c2.831-0.066,5.212-0.816,7.144-2.248c1.732-1.299,2.731-2.932,2.998-4.896c0.162-1.405-0.094-2.835-0.745-4.289
	c0.862-0.13,1.865-0.449,3.043-1.007c2.165-0.999,3.747-2.331,4.746-3.997c1.199-1.965,1.599-3.863,1.199-5.695
	c-0.3-1.432-1.05-2.715-2.248-3.847l-9.881-9.743c-0.006-0.178-0.059-0.393-0.161-0.648l-0.85-1.249
	c-5.196-5.163-8.976-9.509-11.341-13.04c-1.565-2.331-2.598-4.513-3.098-6.545c-1.832-7.294,0.067-16.969,5.695-29.026
	c1.378-2.979,2.623-5.813,3.742-8.508l8.148,5.56c0.433,1.666,0.883,2.882,1.349,3.647c1.166,1.898,3.064,3.348,5.695,4.347
	c3.164,1.199,6.079,2.465,8.744,3.797c2.498,1.299,4.246,2.398,5.245,3.297l0.999,0.9l7.145,6.395
	c3.73,2.897,7.377,4.83,10.941,5.795l1.549,0.301c0.095-0.025,0.189-0.064,0.284-0.102l7.859,3.049
	c5.396,2.031,8.659,3.113,9.792,3.247c1.133,0.167,2.115-0.116,2.947-0.849c0.789-0.638,1.375-1.595,1.776-2.841l1.972,0.492
	l4.995,1.049c1.599,0.233,3.064-0.233,4.396-1.399l1.549-1.848c0.966-1.565,1.216-2.98,0.749-4.246
	c-0.15-0.44-0.402-0.846-0.753-1.215l0.653-0.685c0.699-0.866,1.116-1.749,1.249-2.647c0.2-1.133-0.017-2.232-0.649-3.297
	c-0.214-0.354-0.463-0.658-0.729-0.939c0.4-0.725,0.519-1.476,0.33-2.259c-0.147-0.779-0.663-1.491-1.543-2.138
	c0.28-1.804-0.777-3.227-3.203-4.257l-11.191-3.298l-10.118-2.835c-0.501-0.596-1.455-1.514-2.871-2.761l-1.977-1.595l1.877-1.202
	c3.496-1.666,6.194-2.881,8.093-3.647c3.397-1.399,6.345-2.364,8.843-2.897c0.091-0.013,0.172-0.096,0.248-0.215
	c5.274,1.856,9.596,2.204,12.941,1.014c1.999-0.666,3.947-1.799,5.846-3.396c3.531-3.031,5.746-6.979,6.645-11.842
	c0.833-4.496-0.133-8.093-2.897-10.791c-0.866-0.832-1.865-1.531-2.997-2.098l-1.449-0.6c-0.05-0.016-0.091-0.014-0.138-0.021
	c-3.854-7.569-12.773-15.953-26.791-25.158c-4.563-2.965-9.376-5.846-14.438-8.644l-4.526-2.371l5.126-0.677
	c0.6-0.066,0.916-0.266,0.949-0.6c0.033-0.232-0.199-0.516-0.699-0.85c-2.698-1.832-6.045-3.779-10.043-5.845l-2.509-1.255
	l3.06-1.593l0.799-0.749l-0.899-0.7l-7.048-2.871c1.1-1.347,2.357-2.739,3.766-4.175c0.245,0.165,0.532,0.303,0.885,0.402
	c1.266,0.3,2.931-0.117,4.996-1.249l2.379-1.586c0.838-0.088,1.825-0.487,2.967-1.212c1.706-1.088,2.998-2.287,3.925-3.583
	c1.254,0.295,2.542,0.38,3.868,0.235c1.334-0.157,2.486-0.484,3.471-0.969c0.685-0.143,1.36-0.515,2.025-1.129
	c0.995-0.885,1.687-2.159,2.108-3.778c1.545,0.786,2.937,1.394,4.136,1.779c2.1,0.699,4.264,0.999,6.496,0.899l4.896-0.899
	c1.616-0.544,3.074-1.283,4.393-2.197l8.647,6.044c6.428,4.829,10.441,8.626,12.04,11.391c2.531,4.396,7.427,14.738,14.688,31.025
	c7.76,17.387,11.69,27.312,11.791,29.776c0.13,3.538-0.192,6.723-0.948,9.565c-0.826,0.697-2.254,1.438-4.298,2.225l-4.597,1.449
	c-1.299,0.267-2.231,0.85-2.798,1.748l-0.5,1.35l-0.1,1.148c0,1.832,0.6,3.48,1.799,4.946c1.266,1.565,2.998,2.614,5.195,3.147
	c1.965,0.467,4.68-0.217,8.145-2.049c0.396-0.213,0.761-0.45,1.143-0.674l1.904,7.969c0.666,2.598,2.381,4.063,5.146,4.396
	l4.995-0.05l5.346-0.45c1.299-0.266,2.231-0.716,2.798-1.349c0.012-0.013,0.022-0.034,0.034-0.048
	c2.271,0.322,3.732-0.121,4.362-1.352l0.105-0.254c0.43,0.059,0.878,0.027,1.344-0.096c0.833-0.232,1.432-0.749,1.799-1.549
	l0.441-0.939l1.356,0.041c0.767-0.2,1.316-0.65,1.649-1.35l4.129-8.451c1.708-1.242,2.697-4.201,2.965-8.885
	C333.091,255.613,332.725,250.684,331.692,245.454z M302.465,266.037c0.146-0.156,0.275-0.304,0.415-0.456
	c0.221-0.103,0.433-0.199,0.647-0.299l0.023,1.897c-0.551-0.168-1.259-0.221-2.151-0.138L302.465,266.037z M178.514,254.348
	l-0.139,0.119l-9.603-4.066l-1.049-0.051c-0.233,0.167-0.25,0.518-0.05,1.05l2.104,5.343l-4.58-1.538
	c1.009-1.945,1.821-4.109,2.426-6.503c0.633-2.465,0.949-4.879,0.949-7.244c0-1.271-0.092-2.502-0.266-3.695l0.016-0.002
	c-0.145-3.637-0.567-6.952-1.236-9.984l2.634,0.293c3.365,0.533,6.912,1.332,10.643,2.398c11.016,3.164,21.549,8.176,31.611,14.984
	c-10.144-0.101-18.992,1.518-26.516,4.898C182.828,251.549,180.513,252.881,178.514,254.348z M90.185,301.659
	c-1.531-1.12-2.772-1.7-3.739-1.771l0.842-4.025c2.83,4.278,5.545,7.735,8.15,10.398l-3.557-0.698
	C91.87,303.788,91.308,302.485,90.185,301.659z M115.864,241.158c3.595-8.313,7.05-15.56,10.367-21.756
	c-0.1,1.424-0.159,3.092-0.175,5.019c-0.059,5.55,0.505,10.151,1.689,13.811c-0.385,1.407-0.662,2.808-0.821,4.2l-0.918,1.773
	c-1.865,3.764-3.847,8.077-5.945,12.939c-2.432,5.662-5.296,10.958-8.593,15.888l-4.396,7.394c-0.879,1.583-1.977,3.744-3.292,6.482
	c-0.5-1.523-0.985-3.363-1.455-5.533l-0.289-1.496C104.776,269.026,109.373,256.134,115.864,241.158z M162.71,262.243l1.261,2.766
	l-2.253,0.159C162.069,264.17,162.403,263.191,162.71,262.243z"/>
</svg>
