<?xml version="1.0" encoding="utf-8"?>
<!-- Generator: Adobe Illustrator 16.0.0, SVG Export Plug-In . SVG Version: 6.00 Build 0)  -->
<!DOCTYPE svg PUBLIC "-//W3C//DTD SVG 1.1//EN" "http://www.w3.org/Graphics/SVG/1.1/DTD/svg11.dtd">
<svg version="1.1" id="图层_1" xmlns="http://www.w3.org/2000/svg" xmlns:xlink="http://www.w3.org/1999/xlink" x="0px" y="0px"
	 width="141px" height="192px" viewBox="0 0 141 192" enable-background="new 0 0 141 192" xml:space="preserve">
<path d="M137.537,90.078c-0.933-1.365-2.947-2.014-6.043-1.948c-5.445,0.086-10.728,1.313-15.85,3.668
	c6.799-4.778,12.103-11.405,15.9-19.897c5.726-12.85,5.992-25.684,0.799-38.5c-4.828-12.018-13.434-21.123-25.816-27.314
	c-13.35-6.691-27.564-7.939-42.645-3.745c-13.416,3.762-23.669,11.219-30.76,22.371c-6.924,10.886-9.371,22.903-7.34,36.053
	c1.231,8.056,4.095,15.247,8.589,21.572c2.188,3.09,4.626,5.724,7.293,7.943c-1.585,0.342-3.076,0.857-4.476,1.541
	c-2.649-1.573-5.319-2.987-8.011-4.24c-7.79-3.662-14.298-5.227-19.524-4.694c-2.197,0.233-3.629,0.932-4.294,2.098
	c-0.699,1.265-0.616,3.246,0.25,5.942c0.907,2.837,2.168,5.594,3.742,8.282c-0.059,2.342,0.24,4.178,0.902,5.501
	c-2.53-1.332-4.694-2.164-6.492-2.497c-1.831-0.333-2.996-0.067-3.496,0.799c-0.732,1.231-0.183,3.695,1.648,7.391
	c1.775,3.667,4.111,6.749,7.007,9.246c-0.004,0.456,0.018,0.918,0.084,1.39c0.267,2.131,1.132,3.828,2.597,5.094
	c1.798,1.564,4.611,2.963,8.439,4.194c3.369,1.055,6.574,1.645,9.633,1.822c0.115,3.203,0.732,6.024,1.852,8.464
	c1.438,3.185,3.441,6.068,5.988,8.663c-2.431,3.472-3.72,8.1-3.841,13.908c-0.1,5.526,0.782,10.835,2.646,15.929
	c1.365,3.729,3.229,6.176,5.593,7.341c2.197,1.065,4.161,0.849,5.892-0.649c2.197-1.931,3.962-5.176,5.293-9.737
	c1.432-4.982,1.95-10.481,1.576-16.482c4.626,1.532,9.541,2.388,14.752,2.551c2.81,0.085,5.514-0.04,8.126-0.351
	c0.851,4.462,2.61,8.51,5.306,12.135c2.464,3.296,5.26,5.776,8.39,7.441c2.163,1.131,4.161,1.281,5.992,0.449
	c1.798-0.832,2.979-2.381,3.546-4.645c0.599-2.496,0.648-5.227,0.148-8.189c-0.812-4.463-2.853-8.822-6.093-13.081
	c2.516-1.6,4.77-3.475,6.743-5.645c6.474-7.046,9.698-16.328,9.683-27.842c7.005-2.791,12.939-6.851,17.781-12.206
	c3.661-4.095,6.358-8.455,8.089-13.083C138.369,93.856,138.502,91.509,137.537,90.078z"/>
</svg>
