<?xml version="1.0" encoding="utf-8"?>
<!-- Generator: Adobe Illustrator 16.0.0, SVG Export Plug-In . SVG Version: 6.00 Build 0)  -->
<!DOCTYPE svg PUBLIC "-//W3C//DTD SVG 1.1//EN" "http://www.w3.org/Graphics/SVG/1.1/DTD/svg11.dtd">
<svg version="1.1" id="图层_1" xmlns="http://www.w3.org/2000/svg" xmlns:xlink="http://www.w3.org/1999/xlink" x="0px" y="0px"
	 width="262px" height="317px" viewBox="0 0 262 317" enable-background="new 0 0 262 317" xml:space="preserve">
<path d="M259.35,214.414c-6.832-18.563-21.729-36.093-44.691-52.59c-15.312-10.999-32.667-20.609-52.047-28.842
	c-0.362-3.376-0.267-7.087,0.307-11.15c0.4-2.7,1.134-6.315,2.2-10.848l0.712-3.331c0.567-1.88,1.08-3.965,1.537-6.267
	c1.287-6.58,1.79-12.839,1.512-18.777c0.246-0.487,0.492-0.971,0.738-1.469c6.565-13.297,9.748-23.646,9.549-31.044
	c-0.101-3-0.816-5.083-2.15-6.249c-1.399-1.267-3.549-1.533-6.448-0.8c-2.767,0.667-5.782,2.066-9.048,4.199
	c-3.278,2.135-6.022,4.53-8.242,7.182c-5.647-3.557-12.231-5.306-19.751-5.248c-1.201-3.364-2.546-6.483-4.051-9.333
	c-4.799-9.065-9.098-14.297-12.897-15.697c-3.166-1.167-5.482,0.267-6.949,4.299c-1.167,3.299-1.8,8.282-1.9,14.947
	c-0.059,6.759,0.578,12.716,1.904,17.881c-5.951,6.439-11.341,16.356-16.169,29.756c-6.8-15.279-15.35-29.896-25.677-43.837
	C48.391,20.968,28.244,5.438,7.348,0.605c-2.299-0.5-3.932-0.417-4.899,0.25C1.35,1.622,0.667,3.438,0.4,6.304
	c-1.1,11.431,0.15,23.629,3.749,36.593C7.782,55.861,13.53,68.742,21.396,81.54c7.266,11.765,15.847,22.663,25.745,32.694
	c9.178,9.269,18.77,17.03,28.769,23.318c-1.382,2.779-3.584,6.581-6.623,11.425c-3.833,6.099-6.282,10.148-7.349,12.148
	c-3.899,7.265-6.849,13.847-8.848,19.746c-2.133,6.365-3.549,13.113-4.25,20.246c-8.498,5.199-16.664,11.58-24.495,19.146
	c-8.532,8.23-15.864,17.08-21.996,26.545c-0.8,1.232-1.016,2.199-0.65,2.898c0.233,0.5,0.867,0.967,1.9,1.4
	c6.699,2.799,15.847,4.249,27.445,4.35c9.86,0.062,18.543-0.817,26.082-2.613c0.902,4.06,1.425,6.672,1.563,7.812
	c0.566,4.633,0.6,8.515,0.1,11.647c-0.533,3.333-1.766,6.499-3.699,9.498L48.99,291.5c-2.533,4.332-4.382,8.465-5.549,12.396
	c-0.6,2.066-0.466,3.434,0.4,4.1c0.9,0.667,2.383,0.4,4.449-0.8l6.249-3.799c2.726-1.624,4.942-2.833,6.667-3.639
	c0.383,4.877,1.453,9.359,3.23,13.437c0.933,2.1,2.5,2.25,4.699,0.45c2-1.601,4.099-3.85,6.299-6.749l4.499-6.449
	c1.233,0.434,3.199,1.518,5.899,3.25l5.449,3.549c1.267,0.733,2.25,0.917,2.95,0.551c0.733-0.4,1.083-1.384,1.05-2.949
	c-0.067-1.768-1.066-4.566-3-8.398l-4.999-9.349c-1.4-2.6-2.066-4.815-2-6.649c0.1-2.133,1.149-4.398,3.149-6.799
	c2.566-3.032,4.882-5.232,6.948-6.598c3.167-2.066,7.032-3.316,11.598-3.75c8.05-0.717,15.089-2.01,21.165-3.851
	c3.064,3.831,4.753,7.747,5.029,11.749c0.134,2.267-0.399,5.966-1.6,11.098c-0.433,1.867-0.266,3.4,0.5,4.6
	c0.801,1.3,2.267,2.149,4.399,2.549c5.532,1,12.281,2.717,20.246,5.15c8.099,2.465,15.181,4.981,21.246,7.548l3.599,0.149
	c0.634-0.666,0.533-1.832-0.299-3.498c-0.855-1.753-1.963-3.49-3.278-5.214c2.292,0.468,5.26,1.235,8.927,2.313
	c1.333,0.367,2.166,0.167,2.5-0.6c0.299-0.699,0.1-1.583-0.6-2.649c-0.771-1.175-1.886-2.424-3.324-3.743l1.924-0.156
	c1.8-0.566,1.866-1.699,0.199-3.399c-1.865-1.933-4.832-3.882-8.897-5.849c-2.899-1.434-7.765-3.5-14.597-6.199
	c-1.134-0.434-1.934-1.033-2.4-1.799c-0.366-0.567-0.616-1.483-0.75-2.75c-0.399-3.699,0.483-8.516,2.65-14.447
	c1.966-5.499,4.781-11.314,8.447-17.447c6.433-10.797,9.982-20.912,10.648-30.344c0.188-2.644,0.167-5.416-0.056-8.313
	c10.055,8.466,22.483,14.723,37.299,18.761c11.165,2.999,22.662,4.549,34.493,4.649c2.732,0,4.482-0.584,5.249-1.75
	C260.4,218.73,260.283,216.914,259.35,214.414z"/>
</svg>
