<?xml version="1.0" encoding="utf-8"?>
<!-- Generator: Adobe Illustrator 16.0.0, SVG Export Plug-In . SVG Version: 6.00 Build 0)  -->
<!DOCTYPE svg PUBLIC "-//W3C//DTD SVG 1.1//EN" "http://www.w3.org/Graphics/SVG/1.1/DTD/svg11.dtd">
<svg version="1.1" id="图层_1" xmlns="http://www.w3.org/2000/svg" xmlns:xlink="http://www.w3.org/1999/xlink" x="0px" y="0px"
	 width="149px" height="157px" viewBox="0 0 149 157" enable-background="new 0 0 149 157" xml:space="preserve">
<path d="M146.148,64.17l-9.791-3.12c-1.612-11.068-5.979-19.885-13.117-26.439c-7.235-6.635-16.422-10.12-27.559-10.453
	c-0.44-0.014-0.874-0.012-1.31-0.014c-3.744-2.305-5.981-5.764-6.692-10.39c-0.801-5.369,1-9.503,5.401-12.404
	c1.434-0.934,1.284-1.384-0.45-1.351c-4.401,0.167-8.219,1.467-11.453,3.901c-2.901,2.234-4.919,5.018-6.053,8.353
	c-1.133,3.268-1.167,6.285-0.1,9.053c0.941,2.419,2.565,4.2,4.851,5.362c-4.681,1.811-8.917,4.589-12.703,8.343
	c-6.555,6.527-10.357,14.679-11.43,24.445c-1.564,0.914-3.315,2.026-5.276,3.363c-2.167,1.5-3.568,2.568-4.201,3.201
	c-1.9,1.901-1.65,3.084,0.75,3.551l1.698,0.208c-3.209,1.34-6.378,3.147-9.508,5.424c-2.196-5.049-3.948-8.573-5.244-10.534
	c-1.134-1.7-2.568-2.817-4.302-3.351c-1.541-0.428-3.472-0.441-5.746-0.087c-0.102-0.187-0.203-0.378-0.306-0.563
	c-1-1.801-2.551-2.935-4.651-3.401c-2.301-0.467-4.935-0.05-7.903,1.25c-2.39,1.084-3.013,2.865-1.882,5.34
	c-0.958-0.084-2.067-0.011-3.37,0.262c-1.934,0.367-3.234,1.1-3.901,2.201c-0.667,1.1-0.633,2.417,0.1,3.951
	c0.434,0.967,1.167,2.167,2.201,3.601c0.692,0.974,1.404,1.86,2.124,2.708c-0.366,0.118-0.694,0.279-0.974,0.494
	c-0.464,0.374-0.708,0.847-0.755,1.409c-1.547-0.559-2.713-0.613-3.496-0.158c-0.967,0.533-1.284,1.8-0.95,3.801
	c0.55,3.066,2.447,6.851,5.682,11.348c-0.149,0.301-0.23,0.696-0.23,1.206c-0.033,0.9,0.167,1.852,0.6,2.852
	c2.534,6.002,6.402,11.67,11.604,17.006c6.235,6.401,12.721,10.303,19.456,11.703c0.242,0.052,0.485,0.088,0.727,0.135
	c1.691,1.411,3.669,2.722,5.938,3.931c-1.026,0.622-1.899,1.465-2.614,2.536c-1,1.4-1.217,2.551-0.65,3.451
	c0.367,0.534,0.883,0.918,1.55,1.15l3.101-0.149c2.868-1.034,6.185-0.251,9.953,2.351c2.367,1.567,4.768,3.685,7.202,6.352
	c2.601,2.834,4.568,5.568,5.902,8.203c0.9,1.834,2.317,2.551,4.251,2.15c1.293-0.295,2.096-0.97,2.432-2.006
	c1.093,0.979,2.314,1.235,3.67,0.756c1.151-0.399,1.863-1.18,2.153-2.325c0.849,0.82,1.914,1.083,3.198,0.774
	c1.634-0.4,2.434-1.4,2.4-3.001c-0.118-5.002-1.531-8.974-4.224-11.927c2.313-0.014,4.637-0.096,6.976-0.277
	c2.192-0.172,4.316-0.427,6.376-0.758c1.415,1.305,2.872,2.768,4.377,4.409c2.034,2.167,3.651,4.135,4.852,5.901
	c1.101,1.602,2.483,2.051,4.151,1.352c0.786-0.347,1.322-0.85,1.626-1.5c0.852,0.267,1.693,0.191,2.524-0.251
	c0.635-0.327,1.07-0.796,1.35-1.376l2.202,0.076c1.067-0.567,1.634-1.501,1.7-2.802c0.25-4.084-1.436-7.903-5.005-11.462
	c5.799-2.985,10.775-6.959,14.908-11.945c0.59-0.705,1.142-1.423,1.67-2.147c4.47-2.854,7.789-7.642,9.935-14.407
	c2.055-6.477,2.297-11.805,0.775-16.014l0.024,0.008c0.866,0.2,1.501,0.051,1.9-0.45c0.366-0.5,0.384-1.233,0.05-2.2
	c-1.183-3.55-3.358-8.217-6.506-13.975c0.018-0.189,0.029-0.381,0.037-0.575c4.117-0.378,7.453-0.944,9.971-1.706
	c1.566-0.5,2.367-1.217,2.4-2.151C148.615,65.404,147.814,64.67,146.148,64.17z"/>
</svg>
