<?xml version="1.0" encoding="utf-8"?>
<!-- Generator: Adobe Illustrator 16.0.0, SVG Export Plug-In . SVG Version: 6.00 Build 0)  -->
<!DOCTYPE svg PUBLIC "-//W3C//DTD SVG 1.1//EN" "http://www.w3.org/Graphics/SVG/1.1/DTD/svg11.dtd">
<svg version="1.1" id="图层_1" xmlns="http://www.w3.org/2000/svg" xmlns:xlink="http://www.w3.org/1999/xlink" x="0px" y="0px"
	 width="223px" height="299px" viewBox="0 0 223 299" enable-background="new 0 0 223 299" xml:space="preserve">
<path d="M217.707,87.697c-5.291-0.832-11.232-1.165-17.822-0.999l-9.058,0.597c-0.68-2.827-2.047-5.903-4.121-9.234
	c-1.952-3.139-4.074-5.704-6.36-7.714c-2.022-2.889-4.91-5.26-8.666-7.113c-5.459-2.696-10.566-4.143-15.326-4.343
	c-0.913-0.034-1.767,0.001-2.592,0.068c-4.344-1.483-8.408-4.105-12.186-7.905c-5.591-5.658-8.387-11.915-8.387-18.771
	c0-5.425,1.248-9.702,3.744-12.83c2.197-2.696,4.876-4.093,8.037-4.193c3.096-0.066,5.592,1.082,7.488,3.445
	c2.131,2.563,2.846,5.891,2.147,9.984c-0.399,2.33-0.333,3.644,0.2,3.943c0.564,0.3,1.713-0.482,3.443-2.346
	c2.563-2.762,3.961-5.974,4.193-9.635c0.2-3.428-0.648-6.739-2.545-9.935c-1.931-3.228-4.643-5.774-8.138-7.638
	c-3.761-1.997-7.954-2.896-12.58-2.696c-6.757,0.299-13.112,2.646-19.07,7.039c-5.724,4.26-10.4,9.884-14.028,16.873
	c-4.593,8.853-6.29,18.421-5.092,28.705c1.208,10.222,5.083,19.417,11.612,27.588c-2.037,3.894-3.915,8.232-5.622,13.048
	c-2.995,8.454-5.641,18.887-7.938,31.301c-2.097,2.463-4.826,5.059-8.187,7.788c-2.667,2.128-5.389,4.064-8.164,5.815
	c-5.764,1.688-11.357,3.693-16.77,6.032c-2.053-4.839-6.154-10.412-12.358-16.74c-6.515-6.635-12.582-11.082-18.204-13.357
	c-9.098-8.4-18.988-14.167-29.671-17.295c-4.26-1.231-6.124,0.167-5.591,4.193c0.533,3.927,1.564,8.37,3.095,13.329
	c0.984,3.207,2.018,6.142,3.098,8.812c-0.791,0.66-1.179,2.09-1.151,4.317c0.167,9.418,1.664,18.987,4.493,28.706
	c2.327,8.005,5.133,14.688,8.405,20.088c0.484,1.101,0.988,2.182,1.529,3.225c2.33,10.185,6.656,18.188,12.979,24.013
	c5.41,4.971,12.724,8.747,21.937,11.329c4.781,2.677,9.78,5.069,15.003,7.173c-1.443,1.989-3.034,4.374-4.791,7.208
	c-1.231,1.93-1.564,3.078-0.999,3.444c0.466,0.333,1.731,0.083,3.794-0.749c2.729-1.098,5.841-1.914,9.335-2.445
	c-0.865,2.895-1.381,5.374-1.547,7.438c-0.233,2.164,0.033,3.361,0.799,3.595c0.695,0.242,1.667-0.335,2.911-1.712
	c0.482,1.652,0.927,3.552,1.333,5.705l0.949,6.54v3.095c-0.167,0.966-0.516,1.947-1.048,2.945l-4.693,8.287l-3.495,6.49
	c-1.431,2.829-1.914,6.19-1.448,10.084c0.466,3.928,1.781,7.639,3.944,11.133c1.332,2.13,2.596,3.045,3.794,2.746
	c1.032-0.233,2.046-1.332,3.045-3.295c1.098-2.23,1.914-4.81,2.446-7.738c0.354-1.944,0.617-4.22,0.794-6.811
	c0.869-0.781,2.073-1.267,3.648-1.427c1.685-0.152,3.271,0.139,4.759,0.866c1.939,3.293,4.139,6.566,6.624,9.817
	c3.361,4.427,6.041,7.188,8.037,8.287c3.062,1.697,4.775,0.998,5.143-2.097c0.465-3.494,0.432-6.673-0.1-9.535
	c-0.147-0.893-0.35-1.693-0.577-2.451c0.925,0.882,2.049,2.098,3.372,3.648c2.097,2.43,3.527,3.895,4.293,4.395
	c1.897,1.23,3.245,1.63,4.044,1.197c0.799-0.466,1.215-1.914,1.248-4.344c0.033-3.228-0.399-6.189-1.298-8.885
	c-1.064-3.262-2.662-5.542-4.793-6.84c-12.67-7.868-20.721-13.73-24.164-17.591c-0.648-3.746-1.131-7.681-1.46-11.792
	c1.221,1.046,1.948,0.607,2.161-1.369c0.2-1.963,0.566-4.094,1.098-6.39c1.897,0.965,3.944,1.88,6.141,2.745
	c1.697,0.666,3.045,1.132,4.043,1.398l3.445-0.1c0.266-0.6-0.15-1.548-1.248-2.846c-0.66-0.738-1.472-1.805-2.424-3.17
	c2.616,0.297,5.215,0.502,7.8,0.633c-0.785,0.928-1.502,1.888-2.132,2.887c-1.165,1.83-1.547,3.078-1.148,3.744
	c0.433,0.665,1.448,0.532,3.045-0.4c1.531-0.898,4.193-2.096,7.987-3.594l1.147,5.791c0.475,2.917,1.49,3.732,3.048,2.446
	c1.106,1.343,2.927,2.971,5.489,4.892c1.713,1.267,3.054,2.419,4.048,3.467c-2.75-0.254-5.45-0.302-8.091-0.121
	c-3.361,0.232-5.658,0.814-6.89,1.746c-2.896,2.23-4.792,3.911-5.69,5.043c-0.933,1.265-1.266,2.363-0.999,3.295
	c0.3,1.031,1.265,1.631,2.896,1.797c3.395,0.366,7.006,0.033,10.833-0.998c2.496-0.666,6.24-0.084,11.232,1.747
	c2.263,0.865,4.692,1.53,7.288,1.997c4.826,0.932,9.318,2.196,13.479,3.793c3.328,1.266,6.623,2.813,9.885,4.644
	c3.328,1.864,6.058,3.711,8.188,5.541c1.997,1.664,3.527,2.296,4.593,1.897c1.032-0.399,1.515-1.614,1.448-3.645
	c-0.075-2.213-0.54-4.333-1.396-6.36c1.51,0.64,3.245,1.295,5.239,1.968l4.592,0.199c0.666-0.666,0.583-2.08-0.249-4.244
	c-0.327-0.801-0.687-1.565-1.06-2.314c1.607,0.278,2.748,0.123,3.406-0.48c0.898-0.799,0.865-2.279-0.1-4.443
	c-1.332-3.062-3.328-5.591-5.991-7.588c-2.163-1.598-4.626-2.746-7.388-3.444c-2.098-0.532-6.457-1.148-13.08-1.847l-18.57-1.697
	c-2.729-2.47-5.067-4.97-7.024-7.499c0.734,0.364,1.28,0.437,1.632,0.21c0.4-0.232,0.699-0.965,0.898-2.197
	c0.5-2.895,0.799-5.324,0.899-7.288c2.763,0.499,5.241,0.532,7.438,0.101c2.662-0.6,3.128-1.549,1.397-2.846
	c-0.254-0.174-0.623-0.385-1.097-0.628c7.743-2.11,14.712-4.836,20.865-8.208c10.484-5.758,18.355-13.146,23.613-22.166
	c5.025-8.619,7.555-17.922,7.588-27.906c0.033-8.719-1.83-17.622-5.591-26.708c-2.862-6.856-4.859-12.963-5.991-18.321
	c-1.103-5.108-1.602-10.413-1.51-15.909c2.187-1.576,3.93-3.129,5.205-4.658c0.365-0.466,0.498-0.849,0.398-1.148
	c-0.066-0.266-0.332-0.516-0.799-0.749l-5.007-1.915c2.683-1.524,5.53-2.992,8.544-4.405c5.144-1.145,10.829-2.381,17.081-3.715
	c2.862-0.599,4.243-1.397,4.144-2.396C222.051,88.878,220.569,88.163,217.707,87.697z"/>
</svg>
