<?xml version="1.0" encoding="utf-8"?>
<!-- Generator: Adobe Illustrator 16.0.0, SVG Export Plug-In . SVG Version: 6.00 Build 0)  -->
<!DOCTYPE svg PUBLIC "-//W3C//DTD SVG 1.1//EN" "http://www.w3.org/Graphics/SVG/1.1/DTD/svg11.dtd">
<svg version="1.1" id="图层_1" xmlns="http://www.w3.org/2000/svg" xmlns:xlink="http://www.w3.org/1999/xlink" x="0px" y="0px"
	 width="248px" height="368px" viewBox="0 0 248 368" enable-background="new 0 0 248 368" xml:space="preserve">
<path d="M245.602,181.627c-0.832-6.959-3.146-14.385-6.943-22.277c-2.464-5.128-4.861-11.488-7.192-19.081
	c-2.697-8.792-4.646-17.283-5.844-25.475c-0.499-3.296-0.566-6.993-0.2-11.089c0.1-1.499,0.516-4.795,1.249-9.89l0.749-7.742
	c0.129-1.799,0.199-3.31,0.217-4.552c1.234-2.353,2.445-4.777,3.629-7.286c6.127-13.02,9.874-24.176,11.239-33.466
	c0.2-1.398,0.083-2.181-0.35-2.348c-0.366-0.167-1.132,0.167-2.298,0.999c-1.384,1.014-2.666,1.992-3.856,2.936l1.109-2.636
	c0.633-1.698,0.716-2.631,0.249-2.797c-0.432-0.167-1.332,0.383-2.697,1.648c-6.227,5.761-12.387,10.506-18.48,14.236l-3.146,1.848
	c-1.732-8.525-3.646-16.833-5.744-24.925c-3.031-11.855-5.828-20.779-8.393-26.773c-0.699-1.631-1.564-2.581-2.598-2.847
	c-0.932-0.2-2.381,0.05-4.346,0.749c-21.045,7.526-37.944,20.596-50.698,39.21c-14.052,20.446-20.396,44.206-19.031,71.278
	c0.066,1.532,0.45,2.331,1.149,2.397c0.666,0.066,1.332-0.5,1.998-1.698c3.027-5.335,6.327-10.312,9.887-14.948
	c1.104,4.123,2.838,8.258,5.205,12.406c-6.131,3.401-9.937,8.041-11.396,13.931c-0.533,2.164-0.433,3.546,0.3,4.146
	c0.455,0.39,1.124,0.421,2.001,0.107c-0.23,0.226-0.464,0.427-0.702,0.592c-0.967,0.633-2.332,0.982-4.096,1.049
	c-7.926,0.299-15.402,2.813-22.428,7.542c-5.726,3.835-10.328,8.64-13.836,14.39c-1.867-2.711-4.241-5.18-7.142-7.396
	c-2.786-2.149-5.455-3.6-8.008-4.375c-0.637-0.842-1.28-1.667-1.932-2.469c-6.061-7.492-13.087-13.586-21.079-18.281
	c-2.064-1.199-3.463-1.432-4.196-0.7c-0.666,0.7-0.799,2.331-0.399,4.896c0.307,1.768,0.725,3.53,1.237,5.288
	c-0.656-0.734-1.313-1.467-1.986-2.191c-11.056-11.921-22.761-20.979-35.115-27.173c-2.764-1.365-4.646-1.798-5.645-1.298
	c-1.199,0.599-1.498,2.547-0.899,5.844c1.166,6.593,3.497,14.418,6.993,23.476c2.83,7.272,5.883,13.936,9.154,20.011
	c-4.054-3.079-7.726-5.659-11.002-7.724c-3.863-2.397-6.477-3.08-7.842-2.048c-1.265,0.933-1.398,3.347-0.399,7.243
	c1.698,6.626,3.846,13.037,6.443,19.23c2.664,6.232,5.63,11.825,8.89,16.801c-3.576-1.76-7.107-3.291-10.588-4.563
	c-3.33-1.232-5.428-1.299-6.294-0.2c-0.833,1.032-0.583,3.18,0.75,6.443c6.169,15.106,14.638,27.624,25.394,37.566
	c2.039,18.554,8.897,34.759,20.609,48.598c2.564,2.996,5.877,4.711,9.94,5.145c6.426,0.633,15.234-1.102,26.415-5.191
	c1.493,1.264,3.193,2.461,5.104,3.593c2.009,1.189,3.897,2.095,5.676,2.738c-1.266,0.415-2.65,0.929-4.177,1.558
	c-2.498,1.065-4.479,2.031-5.944,2.896c-2.165,1.332-3.014,2.348-2.547,3.047c0.366,0.633,1.465,0.85,3.297,0.65l8.791-0.55
	c-0.999,0.866-2.431,2.331-4.296,4.396c-1.165,1.232-1.548,2.064-1.148,2.498c0.366,0.398,1.448,0.416,3.247,0.049l8.691-2.547
	c-1.099,1.932-1.948,3.514-2.548,4.745c-0.566,1.099-0.632,1.831-0.2,2.198c0.144,0.134,0.35,0.201,0.605,0.218l-1.554,2.13
	c-1.066,1.398-1.266,3.097-0.6,5.094c1.77,5.246,2.724,10.46,2.876,15.644c-1.843,1.315-3.843,2.294-6.023,2.889
	c-2.497,0.666-4.112,1.981-4.845,3.946c-0.53,1.458-0.534,3.045-0.03,4.757c-0.54,0.755-0.955,1.517-1.219,2.286l-2.148,5.443
	l-2.697,5.744c-0.999,1.799-1.182,3.497-0.549,5.096c0.458,1.184,1.281,2.048,2.435,2.623c-0.046,3.459,0.533,7.392,1.761,11.813
	c0.533,1.932,1.232,2.93,2.098,2.996c0.866,0.067,1.748-0.766,2.647-2.497c1.411-2.671,2.861-5.621,4.348-8.845
	c1.609,0.609,3.025,0.552,4.243-0.195c1.365-0.833,2.048-2.099,2.048-3.797c0-2.863,0.367-5.095,1.099-6.693
	c0.699-1.531,1.815-2.613,3.347-3.246c2.064,1.764,3.497,3.163,4.295,4.195c1.232,1.632,1.832,3.279,1.798,4.945
	c-0.033,1.864,0.549,3.229,1.749,4.096c0.763,0.534,1.665,0.802,2.7,0.812c0.034,0.045,0.062,0.093,0.097,0.138l7.143,9.24
	c2.963,3.597,4.811,3.213,5.544-1.148c0.92-5.242,0.682-10.042-0.686-14.409c1.08-0.824,1.809-1.843,2.173-3.06
	c0.262,0.684,0.531,1.521,0.811,2.533c0.403,0.903,0.968,1.549,1.682,1.953c0.29,0.598,0.709,1.081,1.266,1.443
	c2.83,1.832,5.41,3.713,7.742,5.645c1.631,1.332,2.797,1.882,3.496,1.648c0.699-0.232,1.099-1.365,1.199-3.396
	c0.1-2.164,0.016-4.046-0.25-5.645c-0.321-1.953-0.941-3.907-1.847-5.86c0.539-0.961,0.728-2.02,0.548-3.181
	c-0.2-1.598-0.999-2.93-2.398-3.996c-0.359-0.271-0.708-0.547-1.053-0.823c1.463-0.156,2.821-0.466,4.081-0.92
	c1.65,2.142,3.818,2.383,6.513,0.694c2.064-1.266,4.229-2.031,6.493-2.297l5.146,0.35c15.051,4.129,23.893,8.324,26.523,12.587
	c1.231,1.998,2.813,2.798,4.744,2.397c1.464-0.276,2.474-1.017,3.044-2.208c1.279,0.464,2.777,1.098,4.499,1.908
	c2.564,1.232,4.328,2.298,5.295,3.196c1.332,1.232,2.314,1.648,2.947,1.25c0.599-0.4,0.799-1.549,0.599-3.447
	c-0.3-2.464-0.966-4.678-1.998-6.643c-0.528-1.034-1.151-1.959-1.858-2.785c0.856-0.03,1.667-0.196,2.436-0.482
	c1.229,0.409,2.964,1.262,5.217,2.568c2.664,1.531,4.713,2.979,6.145,4.345c1.132,1.099,2.031,1.516,2.697,1.249
	c0.732-0.3,0.916-1.516,0.549-3.646c-0.309-1.725-0.853-3.491-1.62-5.296l2.12,1.101c1.365,0.699,2.547,1.365,3.547,1.998
	c3.129,2.064,4.295,1.248,3.496-2.447c-0.434-1.998-1.232-4.063-2.398-6.194c-1.094-2.036-2.326-3.726-3.692-5.08
	c1.11-5.052-1.251-7.424-7.097-7.108l-9.141-0.249l-10.988-1.499c-2.631-0.633-5.844-1.965-9.641-3.996
	c-2.83-1.498-5.162-2.896-6.992-4.195c-1.199-0.865-2.332-1.465-3.397-1.798c-0.917-0.297-1.96-0.444-3.118-0.457
	c-0.678-1.078-1.387-2.239-2.127-3.489c-1.447-2.42-2.688-4.624-3.751-6.646c0.568-2.894,1.328-5.597,2.271-8.117
	c0.752,0.647,1.563,1.304,2.48,1.976c1.132,0.832,1.932,1.049,2.396,0.649c0.4-0.333,0.533-0.999,0.4-1.998
	c-0.233-1.599-0.35-3.363-0.35-5.294c3.297,0.965,6.41,2.348,9.34,4.145c1.865,1.166,3.064,1.399,3.598,0.7
	c0.465-0.633,0.365-1.765-0.301-3.397c-0.998-2.463-2.33-5.011-3.996-7.642c-1.06-1.699-2.059-3.123-3.001-4.282
	c5.062-2.186,9.947-4.694,14.64-7.556c22.455-13.729,36.161-31.686,41.164-53.851c0.276,0.24,0.572,0.384,0.894,0.404
	c0.966,0.033,1.815-0.883,2.548-2.747C245.418,200.291,246.701,190.918,245.602,181.627z M139.459,325.682
	c-1.168,1.351-2.044,2.669-2.646,3.957c-0.805-0.914-1.542-1.849-2.2-2.809c-1.898-2.63-4.046-4.096-6.443-4.395l-5.744-0.699
	c-1.532-0.233-2.864-0.833-3.996-1.799c-1.465-1.232-2.914-3.297-4.345-6.193c-0.666-1.332-1.083-3.396-1.249-6.193l-0.05-6.094
	c0-2.337,1.337-5.206,3.978-8.594c0.607,0.683,1.197,1.255,1.767,1.7c1.232,0.966,2.131,1.282,2.697,0.948
	c0.466-0.332,0.732-1.215,0.799-2.646l0.399-6.145c0.799,1.133,1.998,2.348,3.597,3.646c1.532,1.232,2.964,2.165,4.296,2.797
	c1.332,0.633,2.197,0.7,2.597,0.201c0.399-0.5,0.333-1.549-0.2-3.147c-0.655-1.877-1.085-4.118-1.313-6.687
	c5.394,0.175,10.84-0.054,16.34-0.696c-1.666,1.808-2.948,3.718-3.837,5.734c-0.865,1.998-1.032,3.247-0.5,3.746
	c0.5,0.533,1.549,0.2,3.147-0.999c1.206-0.898,3.003-2.045,5.366-3.431l-0.871,2.831c-0.5,1.332-0.333,2.049,0.5,2.148
	c0.766,0.133,1.582-0.25,2.447-1.148c0.04-0.043,0.078-0.081,0.118-0.124c-0.513,2.32-0.619,4.31-0.317,5.968
	c0.299,1.765,1.231,3.846,2.797,6.244c2.264,3.496,3.629,6.276,4.096,8.341c0.366,1.565,0.199,2.88-0.5,3.946
	c-0.533,0.832-1.382,1.332-2.547,1.498l-4.196-0.1c-2.164-0.133-4.263,0.066-6.294,0.6c-2.563,0.633-4.078,1.648-4.545,3.047
	c-0.187,0.525-0.289,1.12-0.324,1.771C141.333,323.674,140.392,324.59,139.459,325.682z"/>
</svg>
