<?xml version="1.0" encoding="utf-8"?>
<!-- Generator: Adobe Illustrator 16.0.0, SVG Export Plug-In . SVG Version: 6.00 Build 0)  -->
<!DOCTYPE svg PUBLIC "-//W3C//DTD SVG 1.1//EN" "http://www.w3.org/Graphics/SVG/1.1/DTD/svg11.dtd">
<svg version="1.1" id="图层_1" xmlns="http://www.w3.org/2000/svg" xmlns:xlink="http://www.w3.org/1999/xlink" x="0px" y="0px"
	 width="200px" height="169px" viewBox="0 0 200 169" enable-background="new 0 0 200 169" xml:space="preserve">
<path d="M198.121,37.188c-0.5-3.466-2.066-6.631-4.699-9.497c-2.738-3.042-5.919-4.728-9.534-5.079
	c-0.47-6.564-3.071-11.599-7.86-15.065c-3.965-2.866-8.58-4.282-13.846-4.249c-6.099,0.1-11.097,1.85-14.996,5.249
	c-1.492,1.325-2.698,2.829-3.619,4.511c-1.67-1.326-4.004-1.988-7.027-1.961c-3.66,0.03-6.558,1.212-8.707,3.521
	c-0.468-0.074-0.944-0.136-1.439-0.172c-3.066-0.2-6.132,0.333-9.197,1.6c-5.705,2.399-9.175,6.017-10.423,10.847
	c-5.44-4.162-12.799-7.136-22.118-8.897c-4.999-0.952-9.728-1.336-14.192-1.165c3.28-4.612,3.665-8.822,1.146-12.631
	c-2.633-3.999-6.765-5.215-12.396-3.649c-5.765,1.6-10.047,5.415-12.846,11.447c-1.2,2.532-1.799,4.948-1.799,7.248
	c0,1.98,0.462,3.569,1.37,4.777c-4.372,1.735-8.349,4.25-11.917,7.569c-4.092,3.786-7.169,8.22-9.262,13.284
	c-2.884-1.564-6.042-1.92-9.483-1.038c-3.366,0.9-5.948,2.599-7.748,5.099c-1.7,2.333-2.466,5.165-2.299,8.498
	c0.178,3.334,1.389,6.133,3.616,8.403c-1.524,0.271-2.997,0.929-4.416,1.993c-2.366,1.8-3.782,4.066-4.249,6.798
	c-0.466,2.866,0.083,5.615,1.65,8.248c1.595,2.708,3.958,4.607,7.075,5.713c-1.321,1.061-2.385,2.482-3.177,4.284
	c-1.166,2.766-1.416,5.498-0.75,8.197c0.667,2.733,2.099,4.981,4.299,6.748c2.253,1.797,4.817,2.637,7.684,2.54
	c-0.856,2.802-0.859,5.621,0.014,8.457c1,3.365,2.849,5.981,5.548,7.848c2.438,1.694,5.137,2.639,8.089,2.85
	c0.247,1.993,0.675,4.2,1.308,6.647c0.616,2.407,1.269,4.414,1.955,6.068c-1.179,0.575-2.428,1.281-3.754,2.13
	c-1.833,1.166-3.166,2.215-3.999,3.148c-2.333,2.666-1.816,3.898,1.55,3.699c2.333-0.2,4.798-0.75,7.397-1.65l-1.899,2.899
	c-0.7,1.267-1.2,2.383-1.5,3.349c-0.5,1.6-0.417,2.633,0.25,3.1s1.816,0.117,3.449-1.05l8.697-5.748c-0.7,2.3-1.1,3.832-1.2,4.599
	c-0.333,2.933,0.933,3.416,3.799,1.449c7.812-5.334,13.801-11.849,18.012-19.514c2.759-0.675,5.274-2.068,7.531-4.229
	c0.11-0.105,0.204-0.216,0.311-0.323c2.894,1.377,5.565,2.495,7.987,3.321c2.414,0.796,4.994,1.448,7.724,1.973
	c1.597,3.296,3.335,6.176,5.223,8.625c1.013,1.295,2.039,2.424,3.077,3.386c-1.576,1.353-3.5,3.386-5.776,6.111
	c-1.166,1.366-1.549,2.416-1.149,3.149c0.366,0.732,1.35,0.883,2.949,0.449l5.098-1.649c-0.899,2.466-1.416,4.183-1.549,5.148
	c-0.267,1.399-0.033,2.183,0.7,2.35c0.7,0.167,1.7-0.217,2.999-1.149c2.767-1.934,5.099-3.982,6.998-6.148
	c1.7,2.365,2.982,3.998,3.849,4.898c1.633,1.732,2.783,1.232,3.449-1.5c1.086-4.374,2.187-8.392,3.299-12.095
	c1.813-1.49,3.581-3.335,5.299-5.55c1.154-1.489,2.192-3.092,3.165-4.76c6.988-0.501,13.308-1.712,18.958-3.631
	c2.921,3.635,6.17,5.979,9.741,7.056l-4.622,6.384c-1.301,1.832-1.566,3.065-0.801,3.699c0.667,0.6,1.95,0.516,3.85-0.25
	l6.548-2.949l0.45,5.448c0.232,1.666,0.732,2.532,1.499,2.599c0.634,0.066,1.333-0.449,2.1-1.549
	c1.167-1.767,2.966-3.832,5.398-6.198c1.499,1.166,2.966,2.632,4.398,4.398c0.833,0.966,1.583,1.3,2.249,1
	c0.566-0.3,0.934-0.917,1.1-1.85c0.814-4.463,1.009-8.828,0.595-13.1c1.509-1.19,2.799-2.649,3.854-4.396
	c8.331-13.729,12.08-29.225,11.246-46.486c-0.695-13.953-4.438-25.645-11.218-35.085c3.326-0.092,6.332-0.927,9.019-2.503
	c2.899-1.667,5.065-3.949,6.498-6.848C198.154,43.453,198.621,40.388,198.121,37.188z"/>
</svg>
