<?xml version="1.0" encoding="utf-8"?>
<!-- Generator: Adobe Illustrator 16.0.0, SVG Export Plug-In . SVG Version: 6.00 Build 0)  -->
<!DOCTYPE svg PUBLIC "-//W3C//DTD SVG 1.1//EN" "http://www.w3.org/Graphics/SVG/1.1/DTD/svg11.dtd">
<svg version="1.1" id="图层_1" xmlns="http://www.w3.org/2000/svg" xmlns:xlink="http://www.w3.org/1999/xlink" x="0px" y="0px"
	 width="175px" height="202px" viewBox="0 0 175 202" enable-background="new 0 0 175 202" xml:space="preserve">
<path d="M174.15,109.795c-0.233-0.8-0.316-1.832-0.25-3.1l0.199-2.797c-0.033-1.566-0.184-2.351-0.449-2.351
	c-0.199,0.033-0.566,0.733-1.101,2.101l-0.999,1.949l-1.55,2.197c0.5-3.031,0.565-4.863,0.201-5.497
	c-0.269-0.5-0.917-0.315-1.949,0.55c0.933-4.931,1.147-7.846,0.649-8.745c-0.434-0.866-1.717-0.233-3.848,1.899
	c0.6-2.832,0.698-5.014,0.299-6.546c-0.399-1.766-1.5-3.048-3.299-3.848c-0.865-0.4-1.031-1.549-0.498-3.448
	c0.799-2.998,1.215-4.947,1.248-5.847l-0.25-3.248c-0.199-1.333-0.467-2.448-0.799-3.348c-0.9-2.465-1.482-3.665-1.75-3.598
	c-0.199,0.033-0.433,1.232-0.699,3.598c-0.231,2.632-0.815,4.514-1.748,5.646c-2.365,1.932-3.965,3.365-4.797,4.297
	c-1.4,1.5-2.1,3.515-2.1,6.047l0.199,2.148c0.033,0.8-0.166,1.583-0.6,2.349l-1.6,3.098c-0.398-1-0.45-1.933-0.148-2.798
	c0.465-1.466,0.498-2.732,0.1-3.798c-0.367-0.933-0.566-1.816-0.6-2.648l0.049-1.399c-0.033-0.933-0.133-1.416-0.299-1.449
	c-0.135-0.033-0.451,0.333-0.949,1.1c-0.834,1.266-1.366,2.215-1.601,2.848c-0.399,1.199-0.416,2.615-0.05,4.248
	c0.199,0.933,0.232,1.749,0.1,2.449l-0.699,1.699c-0.532,1.033-0.815,1.833-0.85,2.399c0,0.633,0.249,1.466,0.749,2.499
	c0.435,0.866,0.45,1.766,0.052,2.698c-1.435,3.632-1.816,6.081-1.15,7.346l1,1.249c0.434,0.5,0.666,1.05,0.699,1.649
	c0.033,0.467-0.434,1.599-1.398,3.397c-0.967,1.832-1.398,3.265-1.3,4.298c0.101,1.498,0.634,2.947,1.599,4.348
	c1.033,1.498,2.217,2.332,3.549,2.498c2.687,0.328,4.901,1.254,6.664,2.756c-3.316,7.802-7.865,14.067-13.66,18.781
	c-5.396,4.398-11.427,7.146-18.09,8.246c-6.396,1.032-12.643,0.416-18.738-1.85c-5.855-2.143-10.838-5.549-14.969-10.188
	c-0.377-7.281-3.078-14.979-8.119-23.094c-4.197-6.762-7.512-14.957-9.944-24.585c-1.766-6.841-3.626-17.146-5.578-30.892
	c0.274-1.186,0.65-2.498,1.131-3.938c0.333-1.066,1.25-3.564,2.749-7.496c1.832-4.797,2.798-10.111,2.898-15.941
	c0.133-5.997-0.683-11.61-2.449-16.84C65.146,8.369,57.134,1.523,45.374,0.357c-5.13-0.5-10.328,0.25-15.591,2.249
	c-5.23,1.965-9.444,4.747-12.643,8.345c-1.708,1.895-2.228,3.979-1.591,6.25c-0.681,0.99-1.399,2.303-2.157,3.944
	c-1.64,3.506-2.564,6.405-2.788,8.711c-2.007,1.504-3.685,3.209-5.007,5.13c-1.433,1.999-2.282,3.915-2.549,5.747
	C2.482,45.364,4.747,51.56,9.844,59.322c4.93,7.563,9.294,11.877,13.092,12.943c0.187,0.052,0.387,0.097,0.598,0.137
	c-3.379,2.567-6.309,5.346-8.743,8.358c-3.198,3.898-6.646,9.395-10.344,16.491c-2.166,2.499-3.548,4.78-4.147,6.847
	c-0.467,1.6-0.433,2.682,0.1,3.248c0.367,0.399,1.116,0.584,2.249,0.549c1.199-0.033,2.465-0.315,3.798-0.849
	c-0.034,2.897,0.616,4.53,1.949,4.896c0.766,0.268,1.982-0.365,3.648-1.897c0.617-0.575,1.137-1.125,1.595-1.659
	c-0.851,6.566-0.936,12.784-0.246,18.649c0.604,5.069,1.816,9.604,3.621,13.614c-2.302,1.813-4.393,4.235-6.27,7.272
	c-2.499,4.031-3.615,7.763-3.348,11.193c0.167,2.433,1.183,4.78,3.048,7.046c0.841,1.04,1.784,1.945,2.807,2.746
	c-0.769,0.357-1.665,0.853-2.707,1.502c-1.183,0.769-2.17,1.467-2.985,2.104c-1.065,0.355-2.416,1.182-4.061,2.493
	c-2.332,1.832-3.431,3.183-3.298,4.047c0.066,0.4,0.85,0.685,2.349,0.851l4.956-0.26c-0.888,1.16-1.233,1.985-1.008,2.459
	c0.233,0.467,1.433,0.615,3.598,0.448c1.393-0.11,2.674-0.31,3.862-0.581c-0.653,0.992-0.882,1.674-0.664,2.03l5.797-0.3
	c3.05-0.521,4.902-1.137,5.595-1.84c4.016-0.422,8.047-1.438,12.095-3.059c3.898-1.531,6.046-2.865,6.446-3.996
	c0.4-1.033,0.366-2.365-0.1-3.998c-0.422-1.418-1.133-2.852-2.103-4.298c0.579-0.825,1.262-1.642,2.053-2.448
	c1.123-1.123,2.069-1.861,2.844-2.228c1.844,0.386,3.768,0.702,5.766,0.952c1.69,3.521,4.218,6.818,7.568,9.893
	c0.83,2.243,1.138,5.379,0.912,9.422c-0.267,4.599-0.017,7.463,0.75,8.596c0.15,0.212,0.329,0.414,0.521,0.611
	c-0.147,1.184-0.107,2.788,0.128,4.836c0.367,2.932,0.917,4.414,1.649,4.446c0.6,0.065,1.699-0.933,3.298-2.999
	c0.983-1.27,1.688-2.337,2.116-3.204c1.188,0.216,2.405,0.325,3.642,0.36c0.395,0.854,0.934,1.781,1.638,2.795
	c1.632,2.365,2.881,3.432,3.748,3.197c0.633-0.166,1.1-1.682,1.399-4.547c0.08-0.784,0.127-1.504,0.145-2.166
	c1.096-0.281,2.089-0.637,2.971-1.071c0.585,0.778,1.52,1.705,2.83,2.788c2.232,1.832,3.565,2.631,3.998,2.398
	c0.666-0.334,0.616-2.449-0.149-6.348c-0.449-2.326-0.976-3.997-1.575-5.05c0.091-0.371,0.17-0.75,0.226-1.146
	c0.233-1.699-0.45-4.299-2.049-7.797c-1.211-2.601-2.027-4.576-2.469-5.955c0.08-0.878,0.219-1.826,0.408-2.832
	c4.189,3.787,10.007,6.277,17.501,7.438c8.195,1.266,16.373,0.666,24.535-1.8c9.096-2.799,16.607-7.528,22.537-14.191
	c6.729-7.587,10.811-17.087,12.246-28.494c0.635-0.38,1.364-0.988,2.195-1.839c0.667-0.731,1.633-1.364,2.898-1.897
	c0.633-0.268,1.198-0.816,1.698-1.649l0.899-1.999c0.332-0.732,1.517-1.865,3.548-3.398c1.467-1.132,1.981-2.447,1.55-3.947
	c-0.232-0.731-0.018-1.932,0.648-3.598C174.283,112.01,174.45,110.729,174.15,109.795z M145.081,161.393
	c-0.002,0.002-0.004,0.004-0.006,0.004c0.006-0.004,0.011-0.01,0.017-0.015C145.088,161.385,145.085,161.389,145.081,161.393z"/>
</svg>
