<?xml version="1.0" encoding="utf-8"?>
<!-- Generator: Adobe Illustrator 16.0.0, SVG Export Plug-In . SVG Version: 6.00 Build 0)  -->
<!DOCTYPE svg PUBLIC "-//W3C//DTD SVG 1.1//EN" "http://www.w3.org/Graphics/SVG/1.1/DTD/svg11.dtd">
<svg version="1.1" id="图层_1" xmlns="http://www.w3.org/2000/svg" xmlns:xlink="http://www.w3.org/1999/xlink" x="0px" y="0px"
	 width="243px" height="270px" viewBox="0 0 243 270" enable-background="new 0 0 243 270" xml:space="preserve">
<path d="M239.563,239.578c-1.334-5.404-5.619-10.741-12.858-16.012c-5.979-4.387-13.005-8.108-21.07-11.172
	c3.08-4.326,5.392-8.905,6.91-13.746c3.703-11.775,2.567-23.918-3.401-36.428c-4.703-9.841-12.66-20.266-23.867-31.273
	c-2.637-2.569-7.606-8.173-14.912-16.813c-6.111-7.181-11.303-12.761-15.594-16.779c10.396-3.828,21.266-15.311,32.606-34.459
	c5.437-9.207,10.24-19.031,14.41-29.472c3.868-9.774,6.403-18.063,7.604-24.868c0.769-4.403,0.033-7.105-2.201-8.106
	c-2.035-0.934-4.938-0.451-8.707,1.451c-9.34,4.77-21.582,14.827-36.727,30.172c-15.879,16.079-25.604,28.838-29.172,38.278
	c-1.668,4.47-2.652,7.373-2.953,8.707c-0.199,0.91-0.342,1.813-0.443,2.71c-7.111-2.181-14.417-2.764-21.921-1.709
	c-0.296,0.048-0.53,0.126-0.714,0.229c-0.166-0.174-0.315-0.359-0.487-0.529c-2.969-2.969-6.171-4.804-9.607-5.504
	c0.934-1.835,1.334-4.103,1.201-6.805c-0.133-3.436-1.501-6.321-4.103-8.656c-2.468-2.302-5.604-3.703-9.407-4.203
	c-6.838-0.901-13.143,1.368-18.914,6.805c-4.806,4.539-7.86,9.808-9.184,15.798c-0.042-0.098-0.088-0.211-0.124-0.286
	c-3.736-8.273-11.775-18.63-24.118-31.073c-9.774-9.907-16.496-15.979-20.165-18.213c-4.036-2.502-7.105-3.186-9.207-2.051
	c-2.001,1.067-2.719,3.419-2.152,7.055C1.82,42.6,6.056,55.609,12.994,71.655c7.372,17.113,13.66,27.42,18.864,30.923
	c1.368,0.934,5.471,3.069,12.31,6.405c6.289,3.097,9.928,4.814,10.932,5.161c-3.32,13.209-3.859,27.665-1.596,43.377
	c-0.3-0.115-0.619-0.232-0.979-0.354c-4.604-1.566-8.99-2.468-13.16-2.702c-6.004-0.3-9.641,1.151-10.908,4.354
	c-1.568,3.902,2.469,9.34,12.109,16.313c3.736,2.668,7.606,5.037,11.609,7.105c3.547,1.804,6.261,2.882,8.155,3.25
	c1.509,4.271,3.203,8.432,5.104,12.461c4.47,9.439,9.523,17.162,15.161,23.167c5.171,5.519,10.935,10.065,17.279,13.661
	l-3.169,0.148c-5.671,1.167-11.992,3.938-18.964,8.307c-8.106,5.037-12.743,9.908-13.91,14.61c-0.367,1.501-0.017,3.003,1.05,4.505
	c1.201,1.601,3.036,2.801,5.504,3.602c6.405,2.068,14.877,0.852,25.419-3.652c4.203-1.768,9.707-4.652,16.512-8.656
	c7.249-4.227,12.04-7.508,14.382-9.853c10.551,1.532,21.401,1.034,32.553-1.506c13.312-3.036,24.97-8.439,34.978-16.212
	c0.271-0.211,0.529-0.424,0.797-0.637c0.152,0.305,0.33,0.629,0.554,0.985c3.136,5.104,6.771,10.024,10.907,14.763
	c4.57,5.235,8.59,8.889,12.06,10.957c6.705,4.004,12.644,4.688,17.813,2.053C239.563,251.486,241.297,246.617,239.563,239.578z
	 M176.266,230.221c-0.037,0.081-0.099,0.187-0.145,0.274c0.131-0.292,0.246-0.584,0.346-0.874c0.153-0.415,0.307-0.934,0.461-1.532
	C176.707,228.966,176.486,229.689,176.266,230.221z"/>
</svg>
