<?xml version="1.0" encoding="utf-8"?>
<!-- Generator: Adobe Illustrator 16.0.0, SVG Export Plug-In . SVG Version: 6.00 Build 0)  -->
<!DOCTYPE svg PUBLIC "-//W3C//DTD SVG 1.1//EN" "http://www.w3.org/Graphics/SVG/1.1/DTD/svg11.dtd">
<svg version="1.1" id="图层_1" xmlns="http://www.w3.org/2000/svg" xmlns:xlink="http://www.w3.org/1999/xlink" x="0px" y="0px"
	 width="308px" height="305px" viewBox="0 0 308 305" enable-background="new 0 0 308 305" xml:space="preserve">
<path d="M302.35,221.623c-1.355-2.866-3.188-4.174-5.485-3.963c-1.552-3.758-4.206-5.975-7.97-6.641
	c-1.651-0.299-3.296-0.171-4.934,0.371c-0.784-3.179-1.886-6.271-3.318-9.273c-3.924-8.204-11.39-17.182-22.376-26.931
	c0.993-1.61,1.95-3.413,2.869-5.431c2.601-5.668,4.251-11.703,4.952-18.105c1.901-17.345-3.34-34.447-15.688-51.309
	c1.133-1.4,2.07-3.027,2.783-4.91c1.394-3.648,1.7-7.35,0.93-11.105c5.766,0.652,10.907-0.581,15.426-3.7
	c5.668-3.901,8.752-9.886,9.252-17.956c0.434-6.969-1.834-12.654-6.802-17.056c-3.711-3.268-7.783-4.994-12.207-5.226
	c3.55-9.19,2.408-16.554-3.448-22.083c-2.5-2.367-5.535-3.935-9.103-4.701c-3.035-0.653-6.033-0.61-8.997,0.113
	c-0.158-0.721-0.337-1.43-0.557-2.114c-1.5-4.801-4.334-8.119-8.502-9.953c-6.402-2.801-12.688-2.334-18.856,1.4
	c-3.573,2.161-6.494,5.179-8.767,9.053c-7.07-2.582-13.771-3.294-20.093-2.101c-5.295,1.028-9.868,3.265-13.737,6.678
	c-3.071-4.451-6.66-7.514-10.771-9.179c-5.135-2.067-9.953-1.834-14.455,0.7c-3.602,2-6.085,5.452-7.453,10.354
	c-0.863,3.099-1.17,6.454-0.946,10.053c-6.003,0.987-9.842,4.251-11.508,9.804c-1.714,5.682-0.323,11.318,4.157,16.91
	c-3.497,1.602-6.419,4.38-8.759,8.348c-2.867,4.835-3.784,9.854-2.75,15.055c1,4.868,3.501,8.886,7.502,12.054
	c3.801,3.001,8.319,4.768,13.554,5.302c0.1,0.01,0.186,0.015,0.282,0.023c-0.099,1.41-0.098,2.742,0.007,3.993
	c-1.854,4.908-4.795,10.335-8.841,16.291c-0.218,0.32-0.448,0.653-0.684,0.993c-11.142-18.523-26.132-31.396-44.981-38.605
	c-8.936-3.401-17.839-5.018-26.708-4.852c-9.136,0.133-17.589,2.151-25.358,6.052C17.34,86.346,8.571,97.433,3.702,113.238
	c-4.768,15.438-5.001,32.577-0.7,51.416c4.535,19.84,13.438,38.213,26.709,55.118c14.519,18.452,32.784,33.078,54.777,43.896
	c4.055,6.84,9.058,12.512,15.045,16.975c6.702,5.035,14.321,8.336,22.857,9.903c1.192,0.22,2.397,0.397,3.609,0.545
	c0.612,0.62,1.255,1.226,1.943,1.806c3.067,2.567,6.452,4.401,10.153,5.502c9.069,2.701,17.522,2.101,25.358-1.801
	c7.503-3.701,13.054-9.67,16.655-17.906c0.286-0.655,0.548-1.301,0.796-1.94c0.035-0.021,0.069-0.039,0.104-0.06
	c8.369-4.902,13.754-7.92,16.155-9.053c6.368-3.002,12.171-4.586,17.405-4.752l6.953,0.2l7.352,0.45
	c14.506,0.533,24.992,0.017,31.461-1.551c0.672-0.16,1.328-0.335,1.971-0.521c1.549,1.173,3.3,2.044,5.281,2.571
	c4.936,1.334,10.104,0.316,15.506-3.051c4.968-3.102,9.202-7.035,12.703-11.805c3.602-4.935,6.035-10.27,7.303-16.004
	C304.066,228.676,303.816,224.824,302.35,221.623z"/>
</svg>
