<?xml version="1.0" encoding="utf-8"?>
<!-- Generator: Adobe Illustrator 16.0.0, SVG Export Plug-In . SVG Version: 6.00 Build 0)  -->
<!DOCTYPE svg PUBLIC "-//W3C//DTD SVG 1.1//EN" "http://www.w3.org/Graphics/SVG/1.1/DTD/svg11.dtd">
<svg version="1.1" id="图层_1" xmlns="http://www.w3.org/2000/svg" xmlns:xlink="http://www.w3.org/1999/xlink" x="0px" y="0px"
	 width="127px" height="162px" viewBox="0 0 127 162" enable-background="new 0 0 127 162" xml:space="preserve">
<path d="M125.79,20.404c-0.765-4.557-2.811-8.797-6.137-12.723c-3.393-4.024-7.317-6.469-11.774-7.334
	c-4.291-0.865-8.1-0.116-11.426,2.245c-3.026,2.096-4.673,5.123-4.939,9.081c-0.286,4.015,1.063,7.844,4.011,11.492
	c-0.332,2.875-1.795,5.845-4.409,8.914c-1.581,1.877-3.314,3.443-5.197,4.701c-2.445-0.348-4.969-0.555-7.575-0.609
	c-1.407-0.032-2.801-0.02-4.188,0.02c-0.581-0.155-1.176-0.299-1.8-0.419l-6.037-0.499c-2.506,0.188-4.67,0.725-6.494,1.607
	c-1.358-2.513-1.713-5.737-1.04-9.69c0.507-2.802,1.229-5.065,2.163-6.798c3.392-1.692,5.576-4.126,6.519-7.321
	c0.964-3.26,0.398-6.054-1.697-8.382c-1.962-2.162-4.856-3.276-8.681-3.343c-3.958-0.034-7.833,1.114-11.625,3.442
	c-4.191,2.627-6.952,5.92-8.282,9.878c-1.231,3.626-0.915,6.386,0.948,8.282c1.63,1.662,3.711,2.424,6.233,2.304
	c-0.326,3.296,0.381,6.454,2.148,9.47c1.431,2.415,3.317,4.214,5.635,5.427c-0.935,0.322-1.867,0.649-2.791,1.01
	c-9.147,3.559-15.317,8.099-18.51,13.62c-1.796,3.16-2.561,7.052-2.295,11.675c0.07,1.194,0.228,2.517,0.463,3.955
	c-1.07,1.395-2.088,2.791-3.036,4.188c-1.021-0.438-2.142-0.659-3.364-0.659c-2.495-0.033-4.573,0.798-6.236,2.495
	c-1.597,1.597-2.428,3.592-2.495,5.987c-0.033,2.461,0.765,4.523,2.395,6.187c0.535,0.535,1.125,0.974,1.759,1.337
	c-1.52,4.229-2.455,8.366-2.794,12.414c-0.984-0.991-2.031-1.844-3.156-2.525c-3.093-1.862-5.821-2.178-8.183-0.947
	c-2.461,1.297-3.758,3.857-3.892,7.684c-0.1,3.592,0.832,7.449,2.794,11.574c2.129,4.357,4.89,7.783,8.282,10.277
	c3.227,2.396,5.887,3.144,7.983,2.246c1.62-0.694,2.727-2.223,3.333-4.566c0.333,0.393,0.652,0.789,1.008,1.174
	c4.391,4.723,10.145,8.465,17.263,11.225c5.424,2.096,11.046,3.385,16.86,3.896c-0.727,4.75-0.484,8.828,0.752,12.219
	c1.23,3.393,3.093,5.306,5.588,5.738c2.728,0.466,5.306-1.081,7.733-4.641c2.469-3.563,4.313-8.556,5.549-14.939
	c1.426-0.423,2.805-0.91,4.13-1.475c9.712-4.091,16.415-10.893,20.106-20.406c4.104-10.538,4.636-24.518,1.611-41.926
	c4.282-0.651,7.707-1.906,10.264-3.774c3.359-2.428,5.155-5.837,5.388-10.228c0.366-6.719-3.476-12.789-11.524-18.211
	c-1.639-1.104-3.34-2.096-5.096-2.987c5.537-3.25,9.025-7.379,10.48-12.379c1.415,0.879,2.879,1.482,4.394,1.796
	c2.794,0.599,5.089,0.083,6.886-1.547C125.823,27.838,126.488,24.761,125.79,20.404z"/>
</svg>
