<?xml version="1.0" encoding="utf-8"?>
<!-- Generator: Adobe Illustrator 16.0.0, SVG Export Plug-In . SVG Version: 6.00 Build 0)  -->
<!DOCTYPE svg PUBLIC "-//W3C//DTD SVG 1.1//EN" "http://www.w3.org/Graphics/SVG/1.1/DTD/svg11.dtd">
<svg version="1.1" id="图层_1" xmlns="http://www.w3.org/2000/svg" xmlns:xlink="http://www.w3.org/1999/xlink" x="0px" y="0px"
	 width="263px" height="301px" viewBox="0 0 263 301" enable-background="new 0 0 263 301" xml:space="preserve">
<path d="M243.9,177.064c-10.628-17.714-22.867-31.375-36.71-41.004c0.292-2.139,0.051-4.167-0.741-6.084
	c-0.799-1.931-2.029-3.429-3.694-4.494c-2.264-1.465-4.743-2.064-7.44-1.798c-2.064,0.196-3.733,0.825-5.049,1.839
	c-0.689-0.778-1.451-1.493-2.291-2.139c-3.296-2.497-6.824-3.329-10.586-2.497c-4.128,0.898-7.406,2.929-9.837,6.092
	c-0.287,0.373-0.549,0.755-0.798,1.142c-1.285-4.459-3.36-8.852-6.243-13.176c-1.438-2.159-2.978-4.146-4.605-5.98
	c4.427-5.151,7.487-10.728,9.149-16.739c1.664-6.092,1.748-11.984,0.25-17.677c-1.132-4.194-3.013-7.889-5.643-11.085
	c-2.663-3.163-5.793-5.459-9.388-6.891c0.532-5.426,0.683-11.251,0.45-17.477c-0.226-5.295-0.703-10.178-1.423-14.668
	c3.171-0.376,5.784-1.545,7.839-3.505c10.547,10.006,24.083,25.493,40.621,46.486c16.512,20.905,30.127,39.78,40.846,56.625
	c1.165,1.798,2.264,2.447,3.295,1.947c1.032-0.499,1.066-1.797,0.1-3.895c-8.588-18.742-19.873-37.7-33.854-56.875
	c-15.483-21.192-31.422-38.513-47.812-51.979c0.083-2.853-0.651-5.452-2.222-7.792c-1.864-2.863-4.527-4.611-7.989-5.243
	c-3.229-0.599-6.275-0.083-9.139,1.548c-2.962,1.698-4.859,4.178-5.691,7.44c-0.699,2.83-0.583,5.459,0.35,7.889
	c0.712,1.858,1.797,3.392,3.249,4.607c-0.937,6.089-2.383,13.136-4.349,21.159c-1.025,4.271-2.038,8.144-3.038,11.625
	c-2.357,0.105-4.819,0.579-7.397,1.458c-0.458,0.159-0.89,0.344-1.33,0.52c-3.215-2.696-6.879-6.867-11.003-12.554
	c-3.486-4.839-6.433-9.517-8.847-14.032c1.031-1.338,1.615-2.992,1.707-4.993c0.066-2.297-0.533-4.411-1.798-6.342
	c-1.365-2.064-3.162-3.396-5.393-3.995c-0.827-0.229-1.669-0.344-2.525-0.35c-1.42-0.053-2.858,0.195-4.316,0.749
	c-2.563,0.965-4.395,2.597-5.493,4.894c-0.852,1.844-1.141,3.934-0.88,6.262c0.045,0.403,0.101,0.811,0.181,1.228
	c0.202,0.977,0.516,1.861,0.922,2.667c-8.966,12.65-16.517,29.197-22.643,49.663c-5.306,17.645-8.12,33.938-8.463,48.891
	c-9.203,6.757-18.482,15.79-27.839,27.108C10.91,174.418,2.171,191.295,0.174,206.275c-0.266,2.13,0.133,3.361,1.199,3.695
	c1.099,0.332,2.28-0.383,3.545-2.148c6.558-9.088,17.793-22.736,33.705-40.945c16.412-18.841,28.729-32.09,36.951-39.747
	c1.132,0.466,2.397,0.666,3.795,0.599c1.09-0.029,2.022-0.228,2.815-0.578c1.846,2.416,3.999,5.396,6.442,8.907
	c-2.119,0.537-4.059,1.681-5.812,3.456c-2.763,2.83-4.311,6.508-4.644,11.035c-0.366,4.827,0.533,8.889,2.696,12.184
	c1.121,1.715,2.478,3.018,4.065,3.918c-10.842,5.542-21.685,15.628-32.527,30.287c-10.919,14.78-17.577,28.229-19.974,40.346
	c-0.566,2.73-0.233,4.661,0.999,5.793c1.132,1.064,2.963,1.332,5.493,0.799c4.661-1.031,10.187-3.146,16.578-6.342
	c6.323-3.147,11.301-6.369,14.945-9.667c0.854,7.083,3.009,13.504,6.477,19.255c0.68,1.128,1.407,2.196,2.161,3.229
	c-6.474,2.565-11.69,7.394-15.643,14.497c-1.797,3.229-2.879,6.258-3.246,9.088c-0.399,2.862,0.033,4.859,1.298,5.992
	c1.032,0.932,2.879,1.081,5.542,0.449c2.696-0.666,5.559-1.947,8.589-3.846c6.952-4.311,11.682-9.677,14.204-16.092
	c5.227,3.271,11.378,5.373,18.453,6.305c8.634,1.151,16.727,0.382,24.283-2.299c0.543,9.554,4.349,18.209,11.419,25.968
	c3.096,3.429,6.275,5.926,9.538,7.49c3.296,1.598,6.009,1.914,8.14,0.948c1.631-0.732,2.546-3.129,2.746-7.189
	c0.199-3.929-0.334-8.406-1.598-13.433c-2.89-11.558-7.444-19.374-13.654-23.467c0.123-0.103,0.248-0.197,0.371-0.302
	c9.146-7.8,15.081-17.373,17.81-28.717c6.621,7.124,16.627,13.95,30.026,20.478c13.749,6.725,24.518,10.054,32.308,9.987
	c2.063,0,3.396-0.4,3.995-1.199c0.666-0.865,0.699-2.479,0.1-4.844c-3.928-15.313-13.432-32.156-28.512-50.532
	c-13.923-16.936-27.989-29.849-42.202-38.759c0.393-0.394,0.779-0.786,1.196-1.179c3.601,1.866,7.249,2.612,10.945,2.237
	c7.557-0.766,13.049-3.944,16.479-9.537c1.723-2.768,2.76-5.807,3.161-9.1c0.193,0.038,0.383,0.081,0.583,0.112
	c2.166,0.356,4.051,0.223,5.688-0.347c7.319,9.276,17.803,25.758,31.464,49.481c13.849,24.102,22.138,39.881,24.866,47.338
	c0.799,2.163,1.848,3.096,3.146,2.796c1.299-0.267,1.947-1.647,1.947-4.145C262.525,218.326,256.316,197.836,243.9,177.064z
	 M72.877,114.347c-1.032,1.231-1.648,2.68-1.848,4.344c-3.44,1.498-6.892,3.334-10.354,5.483
	c2.031-11.302,5.178-24.026,9.455-38.189c6.813-22.631,13.867-39.707,21.162-51.253c1.373,0.347,2.752,0.314,4.138-0.09
	c1.528,4.745,2.999,10.793,4.411,18.188c1.664,8.776,2.591,16.189,2.798,22.269c-0.677,1.686-1.167,3.404-1.472,5.154
	c-0.677,0.616-1.237,1.622-1.675,3.037c-0.732,2.463-0.882,5.442-0.45,8.938c0.399,3.196,1.382,5.892,2.946,8.089
	c0.953,1.346,1.867,2.175,2.742,2.491c-0.802,0.607-1.555,1.3-2.243,2.103c-2.463,2.83-3.912,6.608-4.344,11.335
	c-0.258,2.658-0.597,7.76-1.015,15.281c-4.132-4.349-7.45-7.655-9.957-9.923c0.431-1.688,0.442-3.309-0.014-4.858
	c-0.466-1.598-1.348-2.88-2.646-3.845c-1.797-1.298-3.828-1.814-6.092-1.548C76.123,111.617,74.275,112.616,72.877,114.347z
	 M116.38,118.035c0.313,0.206,0.64,0.409,0.988,0.606c2.863,1.664,5.459,2.28,7.79,1.847c2.005-0.369,3.747-1.092,5.241-2.149
	c-0.034,5.358-1.271,10.405-3.743,15.132c-2.596,4.927-6.891,10.203-12.883,15.829l-0.425,0.372
	c-0.654-0.801-1.336-1.625-2.058-2.479C113.783,139.459,115.479,129.74,116.38,118.035z M26.439,158.838
	c1.344-1.696,2.689-3.329,4.036-4.931c-0.796,0.965-1.592,1.938-2.388,2.934c-7.257,9.088-13.315,18.026-18.176,26.814
	c-0.39,0.708-0.743,1.389-1.107,2.078C12.969,177.4,18.836,168.439,26.439,158.838z"/>
</svg>
