<?xml version="1.0" encoding="utf-8"?>
<!-- Generator: Adobe Illustrator 16.0.0, SVG Export Plug-In . SVG Version: 6.00 Build 0)  -->
<!DOCTYPE svg PUBLIC "-//W3C//DTD SVG 1.1//EN" "http://www.w3.org/Graphics/SVG/1.1/DTD/svg11.dtd">
<svg version="1.1" id="图层_1" xmlns="http://www.w3.org/2000/svg" xmlns:xlink="http://www.w3.org/1999/xlink" x="0px" y="0px"
	 width="223px" height="197px" viewBox="0 0 223 197" enable-background="new 0 0 223 197" xml:space="preserve">
<path d="M219.104,63.788c2.298-7.858,2.964-15.782,1.998-23.773c-1.299-10.788-4.245-18.762-8.84-23.923
	c-3.963-4.495-8.824-6.576-14.584-6.243c-7.559,0.399-13.685,4.895-18.379,13.485c-1.408,2.556-2.578,5.25-3.51,8.081
	c-3.563-2.058-8.755-3.343-15.619-3.835l-14.533-1.848c-7.192-1.266-14.135-4.562-20.827-9.889
	c-5.493-4.362-9.956-9.273-13.385-14.733c-0.833-1.332-1.332-1.215-1.499,0.35c-0.433,3.463-0.433,7.092,0,10.888
	c0.375,3.465,1.103,6.4,2.168,8.828c-1.767-1.588-3.091-2.942-3.917-4.034l-0.749-0.999c-0.167-0.2-0.35-0.283-0.549-0.25
	c-0.267,0.034-0.4,0.549-0.4,1.548l0.1,2.647c0.2,2.131,0.649,4.179,1.349,6.143c1.9,5.389,5.325,9.461,10.246,12.241
	c-6.129,3.017-11.761,7.783-16.889,14.33c-0.069,0.088-0.13,0.177-0.199,0.266c-4.948-6.076-10.19-10.21-15.733-12.352
	c-5.228-1.998-10.105-2.064-14.634-0.2c-5.061,2.131-8.291,6.493-9.689,13.085c-1.266,6.026-0.816,12.469,1.348,19.328
	c2.397,7.691,5.644,14.284,9.739,19.778c4.229,5.727,8.99,9.706,14.284,11.937c3.462,1.499,6.909,2.28,10.338,2.348
	c2.85,0.058,5.488-0.385,7.915-1.323l-0.773,2.672c-0.766,2.963-1.282,5.943-1.548,8.939c-0.067,0.799,0.017,1.282,0.25,1.449
	l1.349-0.2c2.83-1.198,6.01-2.88,9.54-5.044c0.033,1.697,0.232,3.995,0.6,6.892l0.748,5.244c0.101,0.633,0.267,0.982,0.5,1.049
	c0.232,0.067,0.633-0.183,1.199-0.749l3.846-4.096l6.198-7.29c2.114,0.528,4.247,0.953,6.399,1.28
	c-0.85,1.543-2.477,3.279-4.906,5.211c-3.93,3.163-9.24,6.127-15.933,8.891c-4.311,1.654-7.988,3.251-11.035,4.792
	c0.171-1.36,0.243-2.897,0.197-4.643l-0.3-3.696c-0.066-0.6-0.2-0.949-0.399-1.049c-0.233-0.066-0.583,0.084-1.049,0.449
	l-2.397,2.049c-1.562,1.441-2.881,2.825-3.982,4.158c-2.659-3.658-5.71-7.596-9.203-11.85c-1.266-1.699-2.381-2.881-3.347-3.547
	c-0.899-0.666-1.548-0.815-1.948-0.449c-0.266,0.333-0.416,0.883-0.449,1.648c0,0.699,0.116,1.748,0.35,3.146
	c0.732,4.694,1.998,10.638,3.795,17.83l-11.687-0.5l-5.744,0.15c-0.633,0.066-0.999,0.199-1.099,0.399
	c-0.034,0.133,0.116,0.466,0.449,0.999l4.519,4.651c-6.75-1.012-12.835-2.928-18.253-5.751c-5.969-3.122-10.993-7.3-15.089-12.512
	l1.854,0.275l3.646-0.249c0.366-0.399,0.45-1.183,0.25-2.348l-0.449-1.599l-2.747-6.643l-2.797-6.192
	c3.862-7.425,6.31-12.47,7.342-15.133c1.099-2.563,1.432-4.062,0.999-4.495c-0.466-0.466-2.248-0.433-5.344,0.1
	c-2.83,0.533-5.86,1.332-9.09,2.397l-5.744,2.197l-7.392-6.093c-3.795-2.997-6.376-4.945-7.741-5.844
	c-1.265-0.932-2.381-1.498-3.346-1.698l-1.798,0.2c-0.699,0.399-1.049,1.432-1.049,3.096l0.299,3.296
	c0.5,3.23,1.398,7.175,2.697,11.837c1.132,4.028,2.064,6.925,2.797,8.69l-3.396,6.293l-3.496,7.191
	c-0.932,1.998-1.198,3.313-0.799,3.945c0.333,0.732,2.114,0.717,5.344-0.049c1.698-0.367,3.796-0.967,6.293-1.799l5.752-2.168
	c3.366,8.289,8.651,15.624,15.874,21.996c10.952,9.731,24.513,14.744,40.663,15.07l-2.006,2.859c-0.366,0.533-0.466,0.916-0.3,1.148
	l1.249,0.1l3.396-0.748l5.044-1.299l-0.849,3.695c-0.133,0.533-0.116,0.866,0.05,0.999l1.099-0.1l0.54-0.18
	c-0.231,0.558-0.474,1.08-0.74,1.528l-1.798,2.147l-1.598,1.698c-0.933,1.232-1.548,2.396-1.848,3.496
	c-0.433,1.798-0.35,4.129,0.25,6.992c0.999,4.694,3.063,8.24,6.193,10.638c3.629,2.764,8.191,3.513,13.685,2.247
	c1.964-0.466,3.513-1.082,4.645-1.848c1.099-0.766,1.881-1.765,2.348-2.996c0.566-1.465,0.516-2.881-0.15-4.246
	c-0.285-0.636-0.682-1.209-1.17-1.729c3.384-2.282,6.249-5.083,8.583-8.416l-0.221,2.056c-0.066,2.597,0.45,4.361,1.548,5.293
	c1.465,1.466,4.096,2.548,7.892,3.247c4.296,0.799,8.64,0.716,13.036-0.25c2.33-0.499,3.745-1.614,4.244-3.347
	c0.267-0.932,0.1-1.947-0.499-3.046l-1.698-2.447c-0.3-0.399-0.449-0.999-0.449-1.798l0.2-3.8c0.168-0.051,0.335-0.104,0.502-0.158
	c0.094,1.436,0.487,3.019,1.195,4.757c1.565,3.862,4.245,6.76,8.041,8.69c3.563,1.765,6.992,2.214,10.288,1.349
	c0.865-0.225,1.635-0.572,2.329-1.02c0.34,0.825,0.872,1.566,1.617,2.218c2.497,2.265,6.775,3.38,12.835,3.347
	c3.064,0,5.744-0.367,8.041-1.1c2.164-0.666,3.764-1.581,4.795-2.746c1.1-1.199,1.582-2.664,1.449-4.396
	c-0.167-1.231-0.967-2.364-2.398-3.396l-1.837-1.029c0.171-2.61,0.549-4.983,1.138-7.112l1.898-5.693
	c1.664-4.861,2.764-8.757,3.297-11.687c0.898-4.695,1.064-9.424,0.499-14.185c-0.733-6.293-2.597-12.636-5.594-19.028
	c-1.654-3.493-3.826-7.253-6.468-11.254c3.31-2.047,6.426-4.46,9.351-7.233l4.109,2.904c3.896,2.664,6.759,4.362,8.591,5.095
	l1.098,0.05l0.051-0.999c-0.766-4.461-1.882-8.523-3.347-12.187l10.038-1.348c3.297-0.699,5.777-1.432,7.442-2.198l0.749-0.649
	c0-0.266-0.232-0.599-0.699-0.999l-4.645-3.746c-1.387-1.04-2.396-1.768-3.045-2.198c0.844-0.658,1.678-1.364,2.496-2.147
	C213.26,77.805,216.773,71.646,219.104,63.788z"/>
</svg>
