<?xml version="1.0" encoding="utf-8"?>
<!-- Generator: Adobe Illustrator 16.0.0, SVG Export Plug-In . SVG Version: 6.00 Build 0)  -->
<!DOCTYPE svg PUBLIC "-//W3C//DTD SVG 1.1//EN" "http://www.w3.org/Graphics/SVG/1.1/DTD/svg11.dtd">
<svg version="1.1" id="图层_1" xmlns="http://www.w3.org/2000/svg" xmlns:xlink="http://www.w3.org/1999/xlink" x="0px" y="0px"
	 width="286px" height="291px" viewBox="0 0 286 291" enable-background="new 0 0 286 291" xml:space="preserve">
<path d="M281.848,117.306c-2.669-10.274-8.34-20.031-17.012-29.271c-4.027-4.308-7.177-7.83-9.468-10.581
	c4.18,0.942,7.487,1.267,9.917,0.974c1.268-0.133,2.102-0.534,2.502-1.201c0.301-0.567,0.334-1.417,0.101-2.552
	c-0.435-1.868-1.868-4.803-4.304-8.806c-2.969-4.836-6.021-8.689-9.156-11.558c0.9-2.201,1.885-5.904,2.953-11.107
	c1.2-5.804,1.801-10.357,1.801-13.66c0-2.568-0.5-4.153-1.502-4.753c-1.033-0.6-2.752-0.284-5.152,0.951
	c-2.77,1.435-6.071,3.703-9.908,6.805c-3.802,3.069-6.938,6.004-9.406,8.806c-3.836-1.501-8.238-2.818-13.209-3.953
	s-8.923-1.718-11.858-1.751c-2.101,0-3.452,0.367-4.053,1.101c-0.667,0.767-0.617,2.168,0.15,4.203
	c1.067,2.769,3.786,6.988,8.155,12.659l7.405,9.156c-1.301,2.902-2.568,6.371-3.803,10.407c-1.534,5.003-2.302,8.823-2.302,11.458
	c0,2.369,0.534,3.87,1.602,4.503c0.934,0.567,2.451,0.483,4.553-0.25c2.436-0.867,5.404-2.501,8.906-4.903
	c3.223-2.22,6.01-4.512,8.401-6.87c0.624,0.912,1.269,1.831,1.956,2.767c3.902,5.304,8.489,10.541,13.76,15.711
	c7.105,7.005,11.858,14.193,14.26,21.565c2.436,7.472,2.302,14.793-0.4,21.965c-2.768,7.271-7.389,13.059-13.859,17.362
	c-6.092,4.063-13.282,6.389-21.541,7.026c0.455-1.144,0.913-2.313,1.377-3.523c3.068-7.939,5.004-14.043,5.805-18.313
	c0.366-2.001,0.116-3.169-0.751-3.502c-0.834-0.367-2.302,0.017-4.403,1.151c-2.234,1.201-5.82,3.736-10.758,7.605
	c-5.971,4.704-11.008,9.224-15.11,13.56c-0.968-6.638-1.868-11.758-2.702-15.36c-1.601-6.938-3.252-10.341-4.953-10.208
	c-1.801,0.034-3.603,3.586-5.404,10.658c-1.24,4.802-2.215,9.946-2.939,15.415c-0.29-0.1-0.563-0.215-0.863-0.305
	c-2.172-0.669-4.477-1.061-6.904-1.199c2.719-1.094,5.036-2.531,6.904-4.354c0.668-0.667,0.918-1.201,0.751-1.602
	s-0.817-0.684-1.951-0.85c-4.47-0.734-8.989-3.503-13.56-8.307c-4.491-4.744-7.313-9.762-8.505-15.046
	c3.359-0.131,6.943-0.949,10.757-2.466c7.472-2.969,14.326-8.139,20.564-15.511c6.338-7.438,10.357-15.377,12.059-23.816
	c1.601-7.739,0.917-13.543-2.052-17.413c-2.001-2.635-4.954-4.319-8.856-5.053c-3.969-0.734-8.272-0.384-12.909,1.051
	c-10.679,3.268-19.564,10.631-26.665,22.064c-2.159-4.491-4.971-8.583-8.432-12.281c1.795-1.794,3.394-3.813,4.775-6.081
	c2.682-4.411,4.386-9.372,5.124-14.874c1.198-3.013,2.047-6.126,2.532-9.343c0.666-4.703,0.533-9.156-0.4-13.359
	c-0.201-0.867-0.567-1.368-1.102-1.501c-0.566-0.1-1.167,0.233-1.801,1.001c-5.904,7.338-10.975,12.542-15.211,15.611
	c-6.905,5.003-14.927,7.688-24.067,8.056l-21.265,1.651C95.105,57.91,90.425,59.225,86.368,61c1.521-6.54,1.923-13.787,1.194-21.749
	C86.36,25.942,82.441,15.635,75.803,8.33C69.899,1.826,63.478-0.876,56.54,0.225c-6.504,1.067-11.558,5.37-15.161,12.909
	c-4.236,8.906-5.22,20.531-2.952,34.875c1.768,10.974,5.954,20.297,12.559,27.97c2.056,2.373,4.048,4.282,5.978,5.752
	c-8.726,6.006-16.612,10.057-23.64,12.11c-8.472,2.435-17.262,2.585-26.368,0.45c-1.334-0.3-2.202-0.3-2.602,0
	c-0.434,0.367-0.35,1.134,0.25,2.302c3.909,7.387,10.436,14.164,19.574,20.334c5.121,6.427,11.283,11.748,18.502,15.941
	c7.299,4.269,14.807,6.902,22.519,7.923c-0.947,7.538-0.674,14.454,0.808,20.752l-16.622-1.257
	c-4.803-0.834-8.823-2.101-12.059-3.803c-3.536-1.901-7.271-2.935-11.208-3.103c-3.502-0.166-6.838,0.317-10.007,1.451
	c-3.269,1.168-5.804,2.869-7.605,5.104c-1.273,1.554-2.096,3.273-2.475,5.157c-0.517,0.205-0.996,0.527-1.428,0.997
	c-1.735,1.869-3.002,3.47-3.803,4.804c-0.667,1.101-0.901,1.818-0.701,2.151l3.102,0.15l3.456-0.671
	c0.396,0.8,0.852,1.523,1.38,2.153c0.012,0.386,0.021,0.771,0.067,1.17l0.23,1.125c-0.457,0.739-0.917,1.548-1.381,2.428
	c-1.101,2.067-1.518,3.318-1.251,3.752c0.233,0.367,1.501,0.2,3.803-0.5c0.6-0.182,1.163-0.367,1.706-0.557
	c0.995,1.058,2.137,1.967,3.448,2.708c0.987,0.587,1.939,1.017,2.859,1.307c0.365,1.05,0.919,2.001,1.661,2.854
	c-0.178,0.793-0.351,1.702-0.518,2.744c-0.467,2.901-0.4,4.52,0.2,4.853c0.601,0.3,2.051-0.384,4.353-2.052
	c0.926-0.701,1.717-1.362,2.389-1.986c2.667,0.746,5.39,0.914,8.168,0.486c3.206-0.523,5.718-1.773,7.544-3.741
	c1.632,0.027,3.799,0.338,6.515,0.938l10.507,2.852c6.538,1.902,12.092,3.32,16.662,4.254c5.941,1.236,11.234,1.895,15.894,1.985
	c3.786,3.541,8,6.589,12.647,9.137c-1.527,6.587-3.767,14.002-6.726,22.251c-4.92,13.703-9.483,22.478-13.69,26.362
	c-2.557,0.591-5.099,1.545-7.625,2.908c-5.237,2.802-8.489,5.971-9.757,9.507c-1.534,4.27-1.401,7.738,0.4,10.407
	c1.746,2.56,4.661,3.673,8.742,3.34c0.005,0.004,0.009,0.009,0.014,0.013c2.569,2.211,6.488,3.073,11.734,2.607
	c1.976,1.642,4.894,2.58,8.78,2.796c3.302,0.167,6.354-0.2,9.156-1.101c4.87-1.501,8.239-4.42,10.107-8.756l10.292-23.393
	c0.646,0.303,1.438,0.55,2.417,0.727c1.072,0.196,2.097,0.251,3.083,0.189c0.53,0.353,1.116,0.675,1.771,0.961
	c2.014,0.844,4.174,1.168,6.477,0.99c0.8,0.525,1.733,0.923,2.83,1.162c5.371,1.2,9.824,0.816,13.359-1.151
	c3.369-1.868,5.771-5.054,7.205-9.557c0.467-1.401,1.418-3.369,2.852-5.904l4.104-7.155c3.035-5.337,5.12-9.289,6.254-11.857
	c1.635-3.736,2.219-6.405,1.752-8.006l-1.909-4.672c0.447-0.128,0.884-0.259,1.319-0.389c1.126,2.335,2.353,4.769,3.691,7.313
	c5.037,9.539,9.04,15.094,12.009,16.661c7.772,4.036,13.576,8.188,17.412,12.458c3.059,3.432,4.564,6.658,4.569,9.687
	c-1.344,2.49-2.018,5.115-2.018,7.876c0,4.17,1.101,7.122,3.303,8.856c1.956,1.505,4.625,1.927,7.992,1.286
	c0.271,0.2,0.557,0.391,0.863,0.565c1.802,1.067,4.086,1.551,6.855,1.45c1.955-0.05,3.664-0.354,5.129-0.913
	c1.157,0.702,2.546,1.111,4.178,1.214c4.97,0.334,8.723-1.918,11.258-6.754c2.468-4.771,2.719-9.924,0.75-15.461
	c-1.334-3.77-4.053-8.34-8.156-13.71l-11.657-13.91l-6.655-7.956c-2.301-2.834-4.002-5.152-5.104-6.954
	c-1.435-2.322-2.634-4.703-3.633-7.135c2.34,1.861,4.352,3.156,6.035,3.882l1.751,0.101c0.4-0.3,0.483-0.834,0.25-1.601
	c-0.9-2.936-1.901-5.221-3.002-6.855c6.038,2.269,10.675,3.619,13.909,4.053c1.769,0.268,2.836,0.084,3.203-0.551
	c0.333-0.6,0.083-1.518-0.751-2.751c-0.634-0.901-2.235-2.585-4.804-5.054l-6.354-5.805l12.008-1.15
	c4.637-0.6,8.156-1.284,10.558-2.051c4.003-1.335,4.153-2.953,0.45-4.854c-2.565-1.318-7.47-2.984-14.687-4.992
	c8.02-0.835,15.95-3.657,23.793-8.468c9.874-6.071,16.745-13.81,20.614-23.216C283.949,137.003,284.482,127.447,281.848,117.306z
	 M133.722,235.489c3.225-7.367,6.002-13.782,8.325-19.229c0.128,0.013,0.246,0.029,0.379,0.039c0.541,0.498,1.27,0.988,2.185,1.473
	c-0.338,2.157-1.287,4.79-2.862,7.91c-1.912,3.824-4.215,6.988-6.903,9.501C134.468,235.274,134.093,235.378,133.722,235.489z"/>
</svg>
