<?xml version="1.0" encoding="utf-8"?>
<!-- Generator: Adobe Illustrator 16.0.0, SVG Export Plug-In . SVG Version: 6.00 Build 0)  -->
<!DOCTYPE svg PUBLIC "-//W3C//DTD SVG 1.1//EN" "http://www.w3.org/Graphics/SVG/1.1/DTD/svg11.dtd">
<svg version="1.1" id="图层_1" xmlns="http://www.w3.org/2000/svg" xmlns:xlink="http://www.w3.org/1999/xlink" x="0px" y="0px"
	 width="387px" height="420px" viewBox="0 0 387 420" enable-background="new 0 0 387 420" xml:space="preserve">
<path d="M379.46,221.544c-6.363-4.298-14.243-7.68-23.639-10.146c-2.908-0.766-5.807-1.397-8.697-1.909
	c12.297-10.741,21.532-22.713,27.688-35.923c6.363-13.593,8.563-26.554,6.597-38.881c-1.565-9.829-5.031-17.925-10.395-24.289
	c-5.964-7.063-15.076-13.077-27.338-18.042c-17.758-7.229-29.502-15.026-35.232-23.389c-2.028-2.976-3.56-6.323-4.608-10.029
	c3.309,2.487,7.439,4.764,12.404,6.831c5.797,2.398,9.279,3.065,10.445,1.999c0.433-0.434,0.649-1.167,0.649-2.199
	c0-3.165-1.183-7.713-3.548-13.644c-2.366-5.931-4.932-10.745-7.696-14.443c3.031-4.298,5.863-10.162,8.495-17.592
	c2.532-7.03,3.799-12.244,3.799-15.643c0-0.899-0.15-1.533-0.45-1.899c-1.399-1.6-5.78-1.033-13.144,1.699
	c-7.264,2.665-13.61,5.98-19.041,9.945C283.556,6.93,274.443,2.532,268.413,0.799c-3.632-1.066-5.847-1.116-6.647-0.15
	c-0.332,0.366-0.499,1-0.499,1.899c0,2.366,0.966,6.414,2.898,12.144c2.165,6.564,5.114,13.811,8.846,21.74
	c-2.966,4.065-5.581,8.396-7.847,12.994c-2.531,5.164-3.798,9.129-3.798,11.894c0,0.667,0.134,1.216,0.399,1.649
	c1.066,1.632,5.631,1.299,13.693-1c6.121-1.737,10.297-3.222,12.539-4.458c1.05,9.001,3.611,16.357,7.702,22.049
	c6.53,9.063,19.541,17.892,39.031,26.488c8.362,3.665,15.043,8.313,20.04,13.943c5.131,5.797,8.196,12.294,9.196,19.491
	c1.332,9.695-1.133,19.907-7.396,30.635c-2.119,3.631-4.646,7.259-7.562,10.883c-2.442,0.126-4.994,0.341-7.682,0.662
	c-8.063,0.933-14.659,2.299-19.79,4.098c-0.334-3.398-0.5-6.414-0.5-9.046c0-9.495,1.05-20.723,3.148-33.684l3.198-16.842
	c0.134-0.433,0.101-0.75-0.1-0.949l-1.199-0.05c-16.226,8.796-28.553,20.107-36.982,33.934c-4.798,7.796-7.996,15.792-9.596,23.988
	c-3.199-3.099-6.68-6.997-10.445-11.694c-3.031-3.832-4.614-5.931-4.748-6.297c-0.365-0.467-0.699-0.667-0.999-0.6
	c-0.3,0.066-0.517,0.399-0.649,1l-0.5,9.045c0.126,6.396,1.197,12.091,3.189,17.103c-3.361-0.799-6.838-1.144-10.436-1.01
	l-19.592-0.649l-7.658-1.203c2.353-4.614,4.517-9.468,6.503-14.548c0.035-0.065,0.071-0.126,0.106-0.192
	c0.034-0.052,0.044-0.106,0.034-0.163c0.656-1.688,1.299-3.395,1.915-5.135c0.3-0.6,0.3-1.033,0-1.3c-0.2-0.2-0.617-0.116-1.25,0.25
	c-5.098,2.565-11.41,4.781-18.94,6.647c-6.813,1.681-13.052,2.679-18.729,3.008c1.299-2.236,2.564-4.548,3.787-6.957
	c7.129-14.027,12.094-29.153,14.893-45.378c0.232-1.133,0.166-1.766-0.2-1.899c-0.3-0.133-0.749,0.216-1.349,1.049l-3.442,5.04
	c5.476-15.416,7.981-32.648,7.489-51.717c0-0.866-0.232-1.366-0.699-1.499c-0.333-0.1-0.684,0.316-1.049,1.249
	c-0.658,1.8-1.451,3.737-2.369,5.803c-0.058-0.089-0.132-0.161-0.23-0.205c-0.199-0.1-0.616,0.116-1.249,0.649
	c-2.466,2.299-7.88,5.697-16.242,10.195c-10.095,5.397-20.924,10.312-32.485,14.743c-9.16,3.683-17.681,8.424-25.578,14.2
	c-6.735-8.682-11.93-19.314-15.552-31.942c-4.931-16.992-5.047-32.751-0.35-47.278c0.2-0.633,0.2-1.066,0-1.299
	c-0.2-0.167-0.617-0.1-1.25,0.2c-5.131,2.699-8.813,4.931-11.045,6.697c-3.172,2.513-5.837,5.36-8.031,8.519
	c1.083-3.119,2.145-5.619,3.183-7.469c0.4-0.667,0.466-1.133,0.2-1.399c-0.3-0.233-0.783-0.167-1.45,0.2
	C92.697,55.74,83.185,65.685,75.755,78.712c-8.034,14.075-12.43,30.164-13.209,48.252c-6.724,1.608-13.366,1.868-19.925,0.775
	c-6.53-1.066-12.361-3.382-17.492-6.947c-4.564-3.165-8.229-7.113-10.995-11.844c-2.732-4.698-4.465-9.995-5.198-15.893
	c-0.133-0.866-0.417-1.299-0.85-1.299c-0.366-0.033-0.666,0.367-0.899,1.2c-0.534,2.152-0.883,4.4-1.066,6.733l-0.383-1.036
	c-0.3-0.7-0.617-1.033-0.95-1c-0.333,0.033-0.583,0.433-0.75,1.199c-4.398,22.556-5.014,39.614-1.849,51.176
	c2.611,9.563,9.021,18.452,19.208,26.672c-0.342,0.701-0.652,1.449-0.917,2.264c-1.199,3.698-1.399,7.963-0.6,12.794
	c0.618,3.742,1.697,7.29,3.22,10.65c-4.289,1.324-9.106,2.176-14.465,2.544l-7.497,0.2c-0.566,0-0.916,0.1-1.049,0.3
	c-0.133,0.233-0.05,0.583,0.25,1.05c6.563,9.895,14.709,18.208,24.438,24.938c9.322,6.464,18.517,10.387,27.586,11.784
	c0.266,0.614,0.589,1.177,1,1.659c0.95,1.107,2.458,2.045,4.49,2.822c2.038,1.576,4.458,2.846,7.304,3.775
	c3.398,1.099,6.88,1.565,10.445,1.398l3.043,0.144c0.553,5.831,0.78,11.646,0.655,17.448c-0.2,7.63-1.05,12.961-2.549,15.992
	c-4.731,9.762-10.045,19.041-15.942,27.837c-7.063,10.562-12.794,16.976-17.192,19.241l-4.998,2.299
	c-2.632,1.166-4.464,2.016-5.498,2.549c-1.999,1.033-3.648,2.148-4.948,3.348c-1.766,1.633-2.882,3.932-3.348,6.897
	c-0.466,2.965-0.133,5.764,1,8.396c1.1,2.633,2.982,4.598,5.647,5.897c2.529,1.249,5.562,1.801,9.085,1.675
	c1.338,0.537,2.924,0.878,4.758,1.023c2.554,0.211,5.009-0.008,7.373-0.61c1.918,1.07,4.202,1.764,6.87,2.06
	c4.931,0.434,8.996,0.201,12.194-0.699c3.231-0.899,5.747-2.498,7.546-4.797c3.398-4.299,6.797-9.43,10.195-15.394l6.097-11.544
	c0.8-1.6,0.367-1.982-1.299-1.15l-5.778,3.213c1.211-1.955,3.101-4.903,5.678-8.859l11.045-17.441
	c2.999-5.031,4.481-8.313,4.448-9.846l-0.083-11.949c3.41,2.604,7.217,4.808,11.428,6.602c1.533,0.566,1.899,0.133,1.1-1.299
	c-0.651-1.072-1.267-2.133-1.859-3.188c6.199,3.98,12.963,6.383,20.3,7.186c5.984,0.644,12.239,0.215,18.76-1.26
	c1.593,2.871,3.346,5.915,5.279,9.156l9.246,15.393c0.647,1.17,1.214,2.264,1.713,3.294c-4.157,6.485-7.096,9.873-8.81,10.149
	l-8.096,1.699c-3.698,0.966-6.53,2.115-8.496,3.448c-3.298,2.332-4.798,5.547-4.498,9.646c0.2,2.365,0.983,4.681,2.349,6.946
	c1.299,2.065,2.682,3.465,4.148,4.198c1.1,0.566,2.732,0.982,4.897,1.249c2.154,0.261,4.015,0.278,5.593,0.061
	c2.342,0.576,4.869,0.613,7.579,0.112c0.722,0.313,1.484,0.584,2.32,0.777l2.229,0.232c-1.828,9.646-3.853,15.871-6.077,18.658
	c-0.933,1.166-2.299,2.382-4.098,3.648l-5.047,3.049c-3.765,2.165-6.38,3.965-7.846,5.396c-2.399,2.399-3.599,5.148-3.599,8.246
	c0,4.099,1.35,7.313,4.048,9.646c3.123,2.78,7.714,3.883,13.735,3.354c0.74,0.451,1.54,0.852,2.407,1.193
	c3.639,1.48,7.827,1.732,12.55,0.786c1.106,0.638,2.316,1.115,3.643,1.413l9.796,0.8c5.164-0.2,8.912-1.449,11.244-3.748
	c1.666-1.666,3.965-5.748,6.896-12.244l6.848-15.743l2.448-5.848c0.333-0.633,0.399-1.065,0.2-1.299l-0.8-0.1l-0.5,0.15
	c-0.8,0.299-2.481,1.049-5.048,2.248c-0.284,0.131-0.553,0.258-0.825,0.385c-0.639-4.025-0.88-12.615-0.724-25.772
	c0.133-10.028,0.366-18.124,0.699-24.288c0.11-1.841,0.004-3.718-0.294-5.627c1.152-3.229,2.894-7.788,5.242-13.715l5.847-14.543
	l1.05-2.549c1.166-2.965,1.517-5.414,1.05-7.346c-0.2-0.699-1.116-2.549-2.749-5.547c-0.999-1.8-0.782-4.498,0.649-8.097
	c0.474-1.302,1.633-3.699,3.473-7.181c7.461-3.731,13.863-6.115,19.212-7.158l4.403,5.393l8.596,10.146
	c3.299,3.731,6.447,6.946,9.445,9.646c2.299,2.065,5.114,4.031,8.445,5.896l8.896,4.599l5.896,2.898
	c3.432,1.933,8.646,9.845,15.644,23.739c5.899,11.689,8.809,19.819,8.729,24.389l-1.333,0.849l-5.048,3.249
	c-1.933,1.266-3.682,2.598-5.248,3.998c-1.699,1.466-2.615,3.598-2.748,6.396c-0.134,2.799,0.549,5.531,2.049,8.196
	c1.499,2.665,3.698,4.665,6.597,5.997c3.216,1.465,6.6,1.683,10.149,0.683c2.794,2.067,7.078,2.26,12.82,0.62
	c1.674,1.287,3.94,2.139,6.816,2.545l8.496-0.449c2.765-0.732,5.047-1.832,6.847-3.299c1.466-1.166,2.832-2.799,4.098-4.897
	c1.266-2.332,2.116-4.564,2.549-6.696c0.6-2.766,0.649-5.947,0.15-9.546c-1.2-6.763-5.697-17.608-13.494-32.534
	c-2.532-4.898-8.546-15.709-18.041-32.435c-1.433-2.632-3.398-4.731-5.897-6.298c-1.699-1.099-3.349-3.647-4.947-7.646
	c-1.474-3.746-2.733-8.437-3.781-14.059c1.508,1.485,2.973,3.079,4.381,4.813c0.499,0.601,0.899,0.816,1.199,0.649
	c0.333-0.133,0.467-0.566,0.399-1.299c-0.399-4.265-2.165-9.646-5.297-16.143c5.131,2.898,12.077,5.998,20.84,9.296l1.05,0.05
	c0.366-0.199,0.399-0.633,0.1-1.299c-2.965-6.498-6.313-12.728-10.045-18.691c5.997-2.666,15.809-6.247,29.436-10.745l18.892-5.997
	l0.749-0.65C380.076,222.178,379.894,221.844,379.46,221.544z"/>
</svg>
