<?xml version="1.0" encoding="utf-8"?>
<!-- Generator: Adobe Illustrator 16.0.0, SVG Export Plug-In . SVG Version: 6.00 Build 0)  -->
<!DOCTYPE svg PUBLIC "-//W3C//DTD SVG 1.1//EN" "http://www.w3.org/Graphics/SVG/1.1/DTD/svg11.dtd">
<svg version="1.1" id="图层_1" xmlns="http://www.w3.org/2000/svg" xmlns:xlink="http://www.w3.org/1999/xlink" x="0px" y="0px"
	 width="81px" height="130px" viewBox="0 0 81 130" enable-background="new 0 0 81 130" xml:space="preserve">
<path d="M69.67,66.719c-4.289-6.317-8.977-10.871-14.063-13.664c3.657-2.028,6.965-4.471,9.924-7.331
	c3.789-3.723,6.865-8.078,9.225-13.064c2.461-5.253,3.558-10.605,3.291-16.057c-0.266-5.385-1.778-9.242-4.537-11.569
	c-1.33-1.097-2.876-1.629-4.638-1.596c-1.862,0-3.558,0.615-5.087,1.845C61.619,6.6,59.74,8.072,58.141,9.696
	c-1.497,0.285-3.057,1.085-4.678,2.419c-2.094,1.695-3.889,3.923-5.385,6.682c-3.436,6.368-4.161,12.84-2.188,19.417
	c-0.479,1.019-1.011,1.97-1.594,2.851c0.017-1.952-0.158-4.649-0.528-8.095c0.111-3.462-0.725-7.386-2.521-11.778
	c-1.092-2.665-2.411-4.817-3.948-6.477c-0.887-2.127-2.195-3.986-3.98-5.541c-0.964-0.832-2.593-1.912-4.887-3.242
	c-1.163-0.631-2.427-1.745-3.79-3.341c-1.862-2.261-4.289-3.042-7.28-2.344c-2.095,0.499-3.574,1.995-4.438,4.488
	c-0.75,2.095-0.935,4.429-0.567,6.995c-1.978,2.418-2.996,5.563-3.023,9.46c-0.034,4.721,1.363,9.857,4.188,15.408
	c1.563,3.092,3.807,5.884,6.732,8.377c3.144,2.717,6.486,4.468,10.022,5.279c-0.54,0.157-1.08,0.313-1.645,0.456
	c-8.909,2.227-15.874,6.998-20.894,14.312c-4.588,6.616-7.098,14.528-7.53,23.736c-0.399,9.208,2.377,17.021,8.328,23.437
	c1.512,1.625,3.183,3.084,4.998,4.394c0.222,2.501,0.721,4.802,1.534,6.876c1.13,2.826,2.576,4.472,4.338,4.938
	c1.563,0.398,3.374,0.083,5.435-0.947c1.721-0.875,3.496-2.212,5.318-3.956c2.313,0.462,4.741,0.805,7.298,1.014
	c3.808,0.313,7.374,0.262,10.715-0.13c0.868,1.289,1.799,2.339,2.799,3.121c1.362,1.131,2.692,1.629,3.988,1.496
	c1.496-0.133,3.043-1.146,4.639-3.041c1.467-1.783,2.536-3.937,3.257-6.416c2.171-1.318,4.18-2.883,6.018-4.704
	c7.546-7.446,10.438-17.188,8.677-29.222C76.617,79.4,73.992,73.102,69.67,66.719z"/>
</svg>
