<?xml version="1.0" encoding="utf-8"?>
<!-- Generator: Adobe Illustrator 16.0.0, SVG Export Plug-In . SVG Version: 6.00 Build 0)  -->
<!DOCTYPE svg PUBLIC "-//W3C//DTD SVG 1.1//EN" "http://www.w3.org/Graphics/SVG/1.1/DTD/svg11.dtd">
<svg version="1.1" id="图层_1" xmlns="http://www.w3.org/2000/svg" xmlns:xlink="http://www.w3.org/1999/xlink" x="0px" y="0px"
	 width="167px" height="282px" viewBox="0 0 167 282" enable-background="new 0 0 167 282" xml:space="preserve">
<path d="M165.887,145.545c0.333-5.428-0.782-9.956-3.346-13.585c-2.798-4.029-6.228-6.843-10.289-8.441
	c-4.927-1.977-9.778-1.571-14.557,1.212c-4.26-3.239-8.98-4.547-14.164-3.909c-0.996,0.118-1.949,0.324-2.883,0.572
	c3.702-3.558,7.145-8.105,10.326-13.658c3.296-5.827,7.508-9.04,12.636-9.64c2.098-0.233,3.063-0.899,2.897-1.998
	c-0.134-0.933-0.949-1.915-2.447-2.947c-1.063-0.717-2.371-1.246-3.9-1.603c2.99-4.258,5.213-8.766,6.646-13.531
	c0.933-3.063,0.816-6.959-0.35-11.688c-0.633-2.564-1.814-6.06-3.546-10.489c-0.833-2.165-0.933-4.729-0.3-7.692l1.898-6.293
	c0.633-1.865,0.732-3.097,0.299-3.696c-0.499-0.699-1.814-0.949-3.945-0.75c-1.531,0.167-3.146,0.766-4.845,1.798
	c-1.621,0.979-3.14,2.296-4.563,3.921c-1.102-1.126-2.309-2.234-3.628-3.322c-6.526-5.427-11.138-9.606-13.835-12.537
	c-5.361-5.794-8.758-11.488-10.189-17.082c-0.5-1.932-1.182-2.997-2.048-3.197c-0.899-0.2-1.882,0.583-2.946,2.348
	c-0.732,1.232-1.365,3.047-1.898,5.444c-0.301,1.33-0.505,2.635-0.625,3.92l-0.973-2.272c-1.565-3.03-2.697-7.275-3.396-12.736
	c-0.301-2.198-1.049-3.413-2.248-3.646c-1.199-0.267-2.431,0.516-3.696,2.347c-1.988,2.967-3.449,7.356-4.398,13.132
	c-4.33-3.17-9.401-5.704-15.23-7.588C56.12,4.645,47.313,4.278,39.921,6.842c-1.731,0.6-2.797,1.332-3.197,2.198
	c-0.466,0.966-0.25,2.297,0.649,3.996c1.695,3.199,3.119,6.343,4.284,9.435c-1.5-1.165-3.161-2.079-4.983-2.742
	c-2.564-0.932-4.928-1.232-7.093-0.899c-4.129,0.599-4.861,2.614-2.197,6.043l3.446,4.396c1.132,1.964,1.065,3.696-0.2,5.194
	c-5.709,6.909-7.901,12.208-6.583,15.9c-3.563-0.865-7.195-1.163-10.899-0.866c-1.965,0.167-3.18,0.782-3.646,1.848
	c-0.499,1.065-0.05,2.197,1.349,3.396L12.7,56.54c0.159,0.189,0.3,0.409,0.447,0.619c-0.926-0.233-1.893-0.435-2.945-0.569
	c-2.597-0.333-4.928-0.3-6.992,0.1c-1.632,0.333-2.647,1.065-3.047,2.197c-0.433,1.232,0.183,2.448,1.848,3.646
	c2.497,1.798,4.229,3.563,5.194,5.294c1.299,2.297,2.181,5.727,2.647,10.289c0.633,6.593,1.465,11.371,2.498,14.334
	c1.367,3.863,3.548,6.831,6.532,8.917c-0.513,0.231-1.013,0.484-1.488,0.773c-2.197,1.332-3.629,3.03-4.295,5.094
	c-0.599,1.898-0.35,3.38,0.75,4.445c1.065,0.999,2.281,1.016,3.646,0.05c4.362-3.097,8.208-3.946,11.538-2.547
	c1.698,0.699,4.346,2.93,7.942,6.693c2.997,3.163,5.677,5.511,8.041,7.042c2.331,1.506,4.55,2.384,6.665,2.659
	c-1.652,1.104-3.128,2.526-4.417,4.283c-5.162-3.463-10.522-4.495-16.083-3.097c-5.494,1.398-10.056,4.912-13.686,10.539
	c-3.729,5.794-4.762,12.004-3.097,18.63c1.731,6.76,5.527,10.738,11.388,11.938c-2.231,7.159-1.415,13.619,2.448,19.379
	c1.538,2.301,3.379,4.162,5.519,5.589l-3.172,5.3c-5.228,0.6-9.04,1.531-11.438,2.797c-1.132,0.633-1.365,1.449-0.699,2.447
	c0.999,1.432,2.114,2.715,3.346,3.846l3.446,2.748c-3.929,2.597-6.609,4.611-8.042,6.043c-1.665,1.732-1.499,2.881,0.5,3.447
	c4.196,1.098,7.425,2.164,9.69,3.195c-0.699,7.659-0.882,13.104-0.55,16.334c0.1,1.231,0.483,1.931,1.149,2.098
	c0.633,0.133,1.365-0.15,2.198-0.85c2.597-2.164,6.21-5.428,10.838-9.789l4.445,2.496c2.031,1.199,3.363,1.915,3.996,2.148
	c1.199,0.467,2.048-0.017,2.547-1.449l1.848-5.793l1.698-5.345l0.731,1.612l-0.731,2.283c-0.399,1.532,0.283,2.198,2.048,1.998
	l3.196-0.449c0.466,7.992,1.315,13.969,2.547,17.932c0.6,1.797,1.648,1.897,3.147,0.299c1.859-1.951,4.539-4.481,8.017-7.577
	c0.762,1.212,1.492,2.391,2.194,3.538c-1.561,5.867-1.928,12.039-1.071,18.523c0.866,6.494,2.647,11.422,5.344,14.785
	c1.099,1.332,2.098,1.931,2.997,1.798c0.932-0.167,1.565-1.165,1.898-2.997c0.765-4.808,1.416-8.431,1.957-10.908
	c1.599,3.952,3.078,8.22,4.437,12.807c1.098,3.662,2.53,5.311,4.295,4.944c1.731-0.366,2.896-2.414,3.496-6.144
	c1.962-12.485,2.109-24.198,0.443-35.14c2.741-4.599,5.073-9.022,7.001-13.273c1.26-0.554,2.757-1.285,4.543-2.233l9.24,7.992
	c0.6,0.533,1.165,0.716,1.698,0.549c0.566-0.199,0.932-0.799,1.099-1.798l1.648-11.338l7.892-2.697
	c0.932-0.3,1.448-0.699,1.549-1.198c0.1-0.467-0.15-1.115-0.75-1.948l-4.645-6.144l-4.336-4.992
	c0.415-0.403,0.866-0.829,1.389-1.301l3.896-3.347c0.799-0.666,0.782-1.382-0.051-2.147c-0.799-0.732-2.43-1.565-4.895-2.498
	l-4.795-1.697l-4.937-11.26c5.066-2.06,9.062-3.926,12-5.602c1.258,1.916,2.736,3.604,4.475,5.023
	c5.194,4.195,11.471,5.377,18.829,3.547c6.627-1.633,10.456-6.127,11.488-13.486c0.4-2.996,0.2-5.943-0.6-8.84
	c-0.471-1.779-1.111-3.306-1.921-4.583C163.678,154.61,165.547,150.959,165.887,145.545z M110.037,128.584
	c-0.316,0.402-0.638,0.794-0.939,1.227c-1.666,2.431-2.564,5.311-2.697,8.641c-0.1,3.33,0.6,6.626,2.098,9.89
	c0.336,0.743,0.705,1.453,1.093,2.145c-0.985,1.231-2.072,2.659-3.261,4.285c-2.241-3.712-5.102-7.424-8.581-11.135
	c0.166-1.706,0.081-3.561-0.29-5.584c-0.299-1.731-1.031-3.13-2.197-4.195c-1.332-1.208-3.102-1.876-5.296-2.018l-0.175-0.576
	c1.19,0.015,2.382-0.005,3.572-0.104c1.504-0.116,2.958-0.302,4.369-0.548C102.008,130.903,106.109,130.229,110.037,128.584z"/>
</svg>
