<?xml version="1.0" encoding="utf-8"?>
<!-- Generator: Adobe Illustrator 16.0.0, SVG Export Plug-In . SVG Version: 6.00 Build 0)  -->
<!DOCTYPE svg PUBLIC "-//W3C//DTD SVG 1.1//EN" "http://www.w3.org/Graphics/SVG/1.1/DTD/svg11.dtd">
<svg version="1.1" id="图层_1" xmlns="http://www.w3.org/2000/svg" xmlns:xlink="http://www.w3.org/1999/xlink" x="0px" y="0px"
	 width="146px" height="270px" viewBox="0 0 146 270" enable-background="new 0 0 146 270" xml:space="preserve">
<path d="M141.438,126.576l-0.7-1.95c-0.3-0.533-0.649-0.9-1.05-1.1c-0.633-0.267-1.666-0.117-3.1,0.45
	c-9.898,4.566-19.297,6.815-28.195,6.749c-6.766-0.034-13.03-1.4-18.796-4.099c-5.466-2.6-10.182-6.199-14.147-10.798
	c-3.067-3.61-5.035-6.926-5.927-9.955c9.942-2.589,18.059-6.814,24.339-12.686l12.032-0.456c7.198-0.667,11.031-1.583,11.498-2.75
	c0.433-1.066-0.899-3.199-3.999-6.398c-2.58-2.73-5.302-5.074-8.151-7.075c0.839-2.06,1.448-4.045,1.835-5.958
	c3.435-1.426,6.181-2.865,8.216-4.314c0.7-0.5,1.1-0.983,1.2-1.45c0.033-0.4-0.084-0.783-0.351-1.149l-1.3-1.4
	c-1.58-1.496-3.575-2.978-5.979-4.447l0.181-5.151c-0.1-3.666-0.65-5.632-1.65-5.899c-0.084-0.024-0.169-0.027-0.254-0.032
	c-0.015-11.767-2.559-22.008-7.645-30.713C93.796,6.298,86.247,1.049,76.85,0.249c-14.698-1.3-28.329,2.1-40.893,10.198
	c-6.166,3.98-10.965,8.137-14.417,12.468c-1.744-0.413-3.327-0.612-4.729-0.57c-4.333,0.1-7.849,1.5-10.548,4.199
	c-2.7,2.666-4.533,6.549-5.499,11.648c-1,5.565-0.867,11.897,0.4,18.996c1.2,6.565,2.533,10.148,3.999,10.748
	c0.413,0.192,1.044-0.214,1.888-1.202c0.221,0.417,0.423,0.833,0.662,1.252c1.933,3.499,3.532,5.266,4.799,5.299
	c0.011,0,0.027-0.004,0.04-0.004c-1.181,2.66-1.931,5.46-2.239,8.403c-0.433,4.333,0.233,8.165,2,11.498
	c3.363,6.393,10.741,10.82,22.104,13.295c-0.472,0.955-0.935,1.908-1.384,2.858c-4.459,1.074-8.95,2.767-13.471,5.093
	c-5.366,2.732-9.532,5.766-12.498,9.098c-0.403,0.457-0.73,0.915-1.022,1.375l-2.527,0.975c-1.966,0.9-2.95,1.649-2.95,2.25
	l0.05,0.15c0.2,0.7,1.467,1.216,3.799,1.55c-1.2,1.866-1.833,3.25-1.899,4.149l0.2,0.649c0.529,0.529,2.367-0.016,5.479-1.606
	c-0.484,2.477-0.581,3.936-0.28,4.356l0.15,0.149l0.4,0.2c0.567,0.101,1.633-0.649,3.2-2.25l2.25-2.45
	c0.022-0.027,0.025-0.06,0.033-0.09l0.267-0.009l2.85-0.6l3.599-0.5l4.047-0.978c-3.167,10.608-4.611,20.192-4.327,28.75
	c-5.062,7.415-8.283,13.647-9.618,18.669c-2.033,7.566-0.667,14.031,4.099,19.396c1.8,2.033,4.349,4.1,7.648,6.199
	c1.933,1.267,5.149,3.217,9.648,5.85l3.591,2.067c-0.018,4.455-1.353,8.584-4.042,12.38c-2.366,3.398-5.416,6.099-9.148,8.098
	c-1.8,0.934-4.083,1.8-6.849,2.6c-1.733,0.5-3,1.084-3.799,1.75c-0.993,0.801-1.528,1.87-1.628,3.195
	c-1.166,0.664-2.819,1.993-4.971,4.004c-2.866,2.633-4.099,4.415-3.699,5.349l0.75,0.499l6.199-0.199
	c1.899-0.266,3.469-0.588,4.717-0.966c-0.056,0.091-0.111,0.172-0.168,0.266c-1.433,2.3-2.45,4.416-3.05,6.349
	c-0.366,1.066-0.417,1.767-0.15,2.1l0.15,0.15l0.55,0.1c1,0.033,3.366-0.516,7.099-1.649c2.037-0.611,3.573-1.121,4.643-1.536
	c-0.959,2.066-1.696,4.258-2.193,6.586c-0.566,2.499-0.583,3.949-0.05,4.349l1.05,0.149c1.366-0.232,3.533-1.116,6.499-2.648
	c2.036-1.092,3.574-2.07,4.619-2.938l2.58,0.088c2.2-0.367,4.116-1.684,5.749-3.949c2.7-3.666,5.083-6.399,7.149-8.199
	c1.366-1.199,3.533-2.649,6.499-4.35l3.399-1.999c1.733-1.134,2.983-2.517,3.75-4.149c0.028-0.061,0.043-0.123,0.07-0.185
	c4.709-3.489,7.007-5.896,6.879-7.214c-0.1-0.867-1.816-1.65-5.149-2.35l-5.649-0.723c-0.438-3.21-0.509-6.303-0.2-9.275
	c0.233-2.199,0.816-4.916,1.75-8.148l0.9-3.5c0.091-0.748,0.023-1.479-0.179-2.197c2.382,0.664,4.726,1.183,7.028,1.548
	c4.804,0.741,9.953,0.898,15.443,0.479c3.322,1.506,7.556,2.113,12.702,1.821c5.031-0.284,9.438-1.208,13.248-2.747
	c0.003,0.027,0.006,0.054,0.009,0.082l-0.26,0.716c-0.833,2.166-1.634,3.882-2.399,5.148c-1.4,2.399-3.232,4.582-5.499,6.549
	c-1.866,1.666-2.983,3.466-3.35,5.398c-0.235,1.441-0.017,2.635,0.604,3.609c-0.07,0.16-0.143,0.316-0.205,0.49
	c-0.766,2.1-1.365,4.466-1.799,7.099c-0.5,2.999-0.434,4.749,0.199,5.249l0.25,0.15l0.7,0.05c0.967-0.167,2.466-1.134,4.499-2.899
	c2.1-1.8,3.75-3.582,4.949-5.35c0.089-0.136,0.159-0.272,0.234-0.409c-0.29,7.635,0.363,11.544,1.965,11.708
	c0.967,0.1,2.417-1.167,4.35-3.8c1.474-2,2.546-3.831,3.23-5.499c0.073,1.985,0.401,4.128,1.02,6.449
	c0.766,2.832,1.566,4.332,2.398,4.499c0.834,0.134,2.117-1.033,3.85-3.499c1.423-2.063,2.457-4.004,3.146-5.839
	c1.643-1.848,2.762-3.983,3.354-6.409c0.466-1.833,0.683-4.232,0.649-7.199l-0.05-1.649c0-4.132,0.167-7.698,0.5-10.698
	c0.366-3.299,1.017-6.932,1.95-10.897c0.648-2.923,0.549-5.268-0.291-7.039c0.964-4.179,1.514-7.042,1.641-8.558
	c0.1-1.134-0.051-1.816-0.45-2.051c-0.834-0.392-2.157,0.216-3.963,1.806c6.913-11.078,11.155-22.644,12.712-34.699
	C143.287,138.523,143.037,131.642,141.438,126.576z"/>
</svg>
