<?xml version="1.0" encoding="utf-8"?>
<!-- Generator: Adobe Illustrator 16.0.0, SVG Export Plug-In . SVG Version: 6.00 Build 0)  -->
<!DOCTYPE svg PUBLIC "-//W3C//DTD SVG 1.1//EN" "http://www.w3.org/Graphics/SVG/1.1/DTD/svg11.dtd">
<svg version="1.1" id="图层_1" xmlns="http://www.w3.org/2000/svg" xmlns:xlink="http://www.w3.org/1999/xlink" x="0px" y="0px"
	 width="323px" height="367px" viewBox="0 0 323 367" enable-background="new 0 0 323 367" xml:space="preserve">
<path d="M319.242,116.521c-0.933-0.433-2.365,0.066-4.297,1.499c-1.599,1.166-3.947,3.297-7.045,6.396
	c-14.391,14.39-27.682,25.683-39.873,33.877c-11.451,7.688-22.902,13.274-34.354,16.792c-3.394-3.514-7.127-6.59-11.204-9.223
	c-5.766-4.939-18.573-12.458-38.435-22.559l-7.445-3.698c-2.11-1.196-4.537-4.534-7.272-9.959c1.461-0.455,2.244-0.834,2.325-1.133
	c0.134-0.566-0.499-1.532-1.898-2.898l-3.848-3.548l-2.397-2.094c7.356-1.219,14.321-6.675,20.886-16.393
	c6.634-9.821,10.784-20.948,12.466-33.372c0.932-1.005,2.038-2.271,3.323-3.803c3.564-4.264,5.33-6.928,5.296-7.994
	c0-0.092-0.017-0.173-0.034-0.252c1.437-1.144,3.342-3.133,5.73-5.994c2.564-3.031,4.631-5.729,6.195-8.094
	c1.533-2.365,2.199-3.797,1.999-4.297c-0.267-0.799-2.198-1.216-5.796-1.249l-9.244,0.25l-11.691,1.088
	c-0.259-0.828-0.533-1.652-0.824-2.475c-0.038-0.666-0.075-1.33-0.125-2.012c-0.434-5.962-1.283-11.375-2.549-16.239
	c-1.266-4.83-2.615-7.895-4.047-9.194c-2.099-1.932-6.945-3.214-14.54-3.847c-7.528-0.633-14.773-0.367-21.735,0.799
	c-2.107,0.36-4.18,0.843-6.233,1.395c-1.004-1.957-2.007-3.663-3.011-5.092c-1.599-2.365-2.798-3.415-3.598-3.148
	c-0.866,0.3-1.815,2.182-2.848,5.646c-0.259,0.848-0.485,1.65-0.679,2.41l-8.764,0.738c-3.831,0.6-6.479,1.299-7.945,2.099
	c-1.292,0.738-2.583,2.081-3.875,4.012c-1.694-1.315-2.873-1.944-3.52-1.863c-1.099,0.167-1.599,1.999-1.499,5.496l0.051,2.706
	c-5.947,7.563-10.01,14.319-12.183,20.264c-2.657-0.292-5.72-0.569-9.205-0.834l-15.739-0.8h-1.749
	c-3.498-0.1-5.313,0.267-5.446,1.1c-0.167,0.866,1.266,2.865,4.297,5.996c2.632,2.865,7.512,7.562,14.64,14.091
	c4.998,4.586,9.003,8.029,12.036,10.351c0.65,2.745,1.506,5.43,2.569,8.053c-1.578,5.605-3.468,11.583-5.671,17.933l-9.334-0.711
	c-5.43-0.133-8.377,0.167-8.844,0.899c-0.766,1.132,1.016,4.597,5.346,10.393l6.074,7.448l-4.524,11.739
	c-1.118,2.854-2.156,5.536-3.124,8.066c-3.462,3.997-6.554,7.357-9.268,10.072c-3.731,3.764-6.263,5.779-7.595,6.046l-3.997,0.5
	l-5.046,0.649c-10.06,1.699-18.254,3.564-24.583,5.596l-7.445-0.6c-0.3,0.1-1.815,1.432-4.547,3.997l-4.047,3.848l-4.547,3.448
	l-3.498,2.598c-0.566,0.899-0.916,2.481-1.049,4.747c-0.1,1.699-0.083,2.898,0.05,3.598c0.034,0.466,0.367,1.099,1,1.898
	l1.399,1.449c0.364,0.182,0.886,0.138,1.544-0.099c0.031,0.16,0.064,0.3,0.105,0.399c0.3,0.666,1.249,1.616,2.848,2.849l2.848,1.948
	c0.533,0.254,1.244,0.203,2.127-0.145c-0.073,0.436-0.012,0.791,0.221,1.044c0.466,0.467,1.366,0.399,2.698-0.2l5.496-2.798
	c2.065-1.166,3.248-1.949,3.548-2.349c0.233-0.3,0.483-1.183,0.75-2.648l0.549-3.598c0.333-1.532,0.833-2.731,1.499-3.598
	c2.499-0.699,6.812-0.799,12.941-0.3l14.14,1.649l5.396,0.5l3.248-1c0.381-0.153,0.722-0.302,1.041-0.449
	c-0.623,3.262-1.09,6.396-1.391,9.393c-0.43,4.192-0.61,8.334-0.568,12.431c-7.966,8.962-14.715,19.495-20.218,31.64
	c-5.763,12.625-8.078,22.301-6.945,29.029c0.273,1.82,1.132,3.836,2.566,6.043c-0.483,1.685-0.391,5.378,0.282,11.096
	c0.766,6.563,1.499,10.243,2.198,11.043l1.749,0.149l5.796-0.6l7.795-1.198c3.283-0.611,5.63-1.234,7.051-1.871
	c3.986,1.446,8.043,2.434,12.172,2.957c-0.363,1.716-0.981,3.707-1.886,6.009c-1.199,3.164-2.348,5.362-3.448,6.595
	c-1.066,1.199-3.531,3.049-7.395,5.547c-4.63,2.998-8.111,4.63-10.443,4.896l-3.498-0.15l-4.147-0.6l-3.847-0.399l-2.199,0.15
	c-0.799,0.333-1.699,1.216-2.698,2.647c-0.733,1.033-1.299,1.999-1.699,2.898c-0.002,0.004,0,0.009-0.002,0.013
	c-0.537,0.309-1.107,0.645-1.747,1.036c-2.432,1.5-4.213,2.815-5.346,3.947c-1.066,1.066-1.616,1.832-1.649,2.299
	c0,0.467,0.483,0.833,1.449,1.1l9.743,0.85l6.813-0.204c-0.156,0.135-0.305,0.261-0.467,0.403c-2.398,2.166-4.047,3.814-4.947,4.947
	l-1.849,2.298c-0.799,1.133-1.016,1.799-0.649,1.999c0.866,0.5,4.747,0.482,11.642-0.051c5.207-0.402,8.521-0.833,9.948-1.292
	l0.044,0.011c-0.36,0.303-0.719,0.604-1.098,0.932c-4.431,3.865-6.812,6.662-7.146,8.395c-0.167,0.833,1.533,1.283,5.097,1.35
	l9.644-0.45l7.995-1.099c0.463-0.111,0.876-0.238,1.242-0.379c1.414,0.909,4.086,1.355,8.052,1.328l6.746-0.45
	c2.032-0.1,3.631-0.766,4.796-1.999c0.833-0.832,1.666-2.298,2.499-4.396l1.549-4.396c7.362-21.386,12.042-33.178,14.041-35.377
	c0.933-1.099,1.382-2.964,1.349-5.596c-0.026-1.715-0.188-3.052-0.477-4.038c0.802,0.52,1.605,1.038,2.426,1.54
	c9.993,6.129,20.819,10.393,32.478,12.791c10.9,2.265,22.26,2.833,34.071,1.736c2.3,3.499,4.203,5.564,5.701,6.158
	c1.233,0.467,4.314-0.266,9.244-2.198c0.421-0.165,0.829-0.331,1.238-0.498c-0.324,3.43-2.649,8.623-6.984,15.588
	c-4.164,6.629-7.145,10.743-8.943,12.341c-0.233,0.234-1.916,1.15-5.047,2.749c-3.131,1.698-4.963,2.981-5.496,3.847
	c-0.6,0.967-1.082,2.066-1.449,3.299c-0.434,1.432-0.549,2.631-0.35,3.598c0.318,1.389,0.771,2.646,1.341,3.785
	c-0.113,0.17-0.224,0.333-0.342,0.512c-1.999,2.964-3.247,5.195-3.747,6.695c-0.334,0.898-0.316,1.449,0.05,1.648l3.048,0.199
	c2.299-0.1,6.063-0.898,11.293-2.397c3.582-1.027,6.011-1.854,7.343-2.489c1.665-0.189,2.905-0.448,3.719-0.777
	c0.13,0.245,0.279,0.443,0.439,0.615c-0.104,0.415-0.207,0.847-0.31,1.303c-0.666,2.964-1.032,5.246-1.099,6.845
	c-0.034,1.399,0.066,2.182,0.3,2.349l2.348-0.2c2.066-0.499,5.264-1.999,9.594-4.497c1.446-0.827,2.654-1.572,3.675-2.251
	l2.921,0.303l2.248-1.349l0.756-0.756c0.274,0.531,0.572,0.985,0.894,1.354l1.306,0.758c0.097,0.827,0.226,1.721,0.393,2.69
	c0.6,3.631,1.217,6.079,1.85,7.345c0.266,0.532,0.566,0.8,0.898,0.8c0.5,0,1.383-0.434,2.648-1.299
	c2.1-1.467,4.397-3.481,6.896-6.047c0.327-0.335,0.63-0.655,0.923-0.97c1.247-0.119,2.194-0.393,2.824-0.829
	c1.799-1.232,3.348-2.715,4.647-4.447c1.599-2.131,2.398-4.163,2.398-6.096l-0.85-9.344c-0.6-6.461-0.883-11.092-0.85-13.89
	c0.101-8.794,1.183-17.589,3.248-26.382c0.699-2.832,1.083-4.947,1.149-6.346c0.166-2.799-0.5-4.498-1.999-5.098
	c-2.599-1.028-4.312-2.123-5.173-3.283c2.622-1.452,5.517-3.177,8.721-5.211c24.017-15.123,43.42-37.024,58.21-65.705
	c12.892-24.982,20.336-50.632,22.335-76.947C322.124,123.599,321.441,117.52,319.242,116.521z M157.593,112.845
	c0.848,1.411,1.545,2.777,2.109,4.107c-1.125-0.807-2.212-1.511-3.261-2.111C156.947,114.259,157.336,113.598,157.593,112.845z
	 M11.852,183.075l0.399-1.899l3.653-2.532l-0.055,3.432c-0.497,0.565-1.016,1.281-1.557,2.137
	C13.186,183.822,12.36,183.442,11.852,183.075z"/>
</svg>
