<?xml version="1.0" encoding="utf-8"?>
<!-- Generator: Adobe Illustrator 16.0.0, SVG Export Plug-In . SVG Version: 6.00 Build 0)  -->
<!DOCTYPE svg PUBLIC "-//W3C//DTD SVG 1.1//EN" "http://www.w3.org/Graphics/SVG/1.1/DTD/svg11.dtd">
<svg version="1.1" id="图层_1" xmlns="http://www.w3.org/2000/svg" xmlns:xlink="http://www.w3.org/1999/xlink" x="0px" y="0px"
	 width="381px" height="266px" viewBox="0 0 381 266" enable-background="new 0 0 381 266" xml:space="preserve">
<path d="M376.09,31.676c-16.313-15.345-41.698-25.219-76.158-29.623c-13.742-1.734-27.553-2.368-41.431-1.901
	c-12.743,0.434-23.468,1.685-32.174,3.753c-3.703,0.901-6.321,2.335-7.856,4.303c-1.334,1.735-1.701,3.653-1.101,5.754
	c1.067,3.636,1.868,8.773,2.401,15.412c0.635,7.672,0.668,15.145,0.101,22.417c-1.445,19.313-6.537,31.852-15.259,37.647
	c-1.322-1.875-2.129-3.37-2.404-4.472c-0.521-2.219-1.115-4.313-1.773-6.297c5.994-4.023,9.959-12.457,11.881-25.327
	c2.002-13.31,0.9-25.502-3.303-36.577c-0.967-2.536-2.084-4.103-3.352-4.704c-1.335-0.634-3.37-0.484-6.105,0.45
	c-8.473,2.869-16.112,8.073-22.917,15.612c-7.188,7.973-11.313,16.411-12.388,25.312c-0.126,0.003-0.241,0.002-0.372,0.007
	c-12.359,0.43-22.046,4.859-29.077,13.268c-6.434-4.091-15.551-5.999-27.366-5.712c-10.241,0.267-17.43,1.484-21.566,3.653
	c-2.269,1.201-3.687,2.302-4.253,3.303c-0.634,1.034-0.701,2.635-0.2,4.803C84.454,86,92.176,96.708,104.585,104.881
	c5.271,3.469,10.758,5.955,16.462,7.456c5.14,1.385,9.805,1.792,14.007,1.246c1.651,1.724,4.643,4.688,8.971,8.89
	c-14.171,0.143-28.035-3.229-41.593-10.136c-12.876-6.572-22.417-14.578-28.621-24.018c-1.802-2.735-3.386-4.27-4.754-4.604
	c-1.201-0.3-2.852,0.217-4.954,1.551c-2.936,1.901-7.472,6.305-13.61,13.21c-7.405,8.406-14.361,17.563-20.866,27.471
	c-18.48,28.122-28.338,54.558-29.572,79.31c-0.033,1.034,0.25,1.968,0.851,2.802c0.6,0.769,1.317,1.219,2.151,1.353
	c2.135,0.3,3.369-1.368,3.703-5.004c0.046-0.509,0.115-1.026,0.171-1.538c2.936-5.116,7.815-9.68,14.69-13.674
	c6.538-3.77,14.144-6.655,22.817-8.656c8.072-1.9,15.545-2.702,22.417-2.4c6.972,0.266,11.676,1.616,14.111,4.053
	c0.008,0.009,0.015,0.015,0.023,0.022c1.305,1.91,2.548,2.765,3.729,2.528c1.151-0.229,1.609-1.41,1.387-3.522
	c5.438-8.819,15.475-16.223,30.136-22.196c14.972-6.139,29.373-8.519,43.206-7.162c4.773,4.416,10.899,7.109,18.391,8.063
	c0.021,0.003,0.041,0.003,0.062,0.006l4.241,1.596c1.802,1.035,3.469,3.068,5.004,6.104l18.813,44.685l18.615,44.783
	c1.601,3.868,3.553,5.569,5.854,5.104c2.337-0.467,2.819-2.869,1.451-7.205c-0.7-2.168-6.004-16.146-15.912-41.932
	c-9.974-25.888-15.344-39.996-16.11-42.332c-1.103-3.402-1.484-6.371-1.151-8.906c0.272-2.051,1.06-3.977,2.343-5.781
	c2.701-1.416,5.193-3.229,7.485-5.423c0.802-0.035,1.644,0.073,2.53,0.346c1.869,0.567,4.037,1.868,6.506,3.903l73.055,60.846
	c4.236,3.402,6.955,4.069,8.156,2.001c0.467-0.833,0.416-1.918-0.15-3.252c-0.633-1.468-1.734-2.868-3.303-4.203
	c-5.037-4.237-16.762-14.511-35.176-30.823c-20.148-17.914-31.824-28.537-35.026-31.873c-2.802-2.902-4.62-5.604-5.454-8.106
	c-0.495-1.425-0.738-2.958-0.754-4.591c1.697-4.369,2.382-8.529,2.005-12.472c-0.198-2.061-0.545-4.104-1.034-6.129
	c7.422-11.225,17.368-20.511,29.855-27.847c12.216-7.18,24.271-11.027,36.173-11.563c1.015,1.81,2.365,2.588,4.058,2.306
	c1.803-0.334,2.152-1.952,1.051-4.854c-0.051-0.138-0.112-0.271-0.166-0.409c1.629-4.76,4.973-9.609,10.074-14.552
	c5.271-5.104,11.658-9.624,19.164-13.561c16.754-8.797,32.943-12.137,48.568-10.052c0.981,0.753,1.922,1.519,2.82,2.297
	c1.301,1.134,2.618,1.768,3.953,1.901c1.268,0.133,2.233-0.184,2.9-0.951C380.043,37.147,379.292,34.712,376.09,31.676z"/>
</svg>
