<?xml version="1.0" encoding="utf-8"?>
<!-- Generator: Adobe Illustrator 16.0.0, SVG Export Plug-In . SVG Version: 6.00 Build 0)  -->
<!DOCTYPE svg PUBLIC "-//W3C//DTD SVG 1.1//EN" "http://www.w3.org/Graphics/SVG/1.1/DTD/svg11.dtd">
<svg version="1.1" id="图层_1" xmlns="http://www.w3.org/2000/svg" xmlns:xlink="http://www.w3.org/1999/xlink" x="0px" y="0px"
	 width="159px" height="190px" viewBox="0 0 159 190" enable-background="new 0 0 159 190" xml:space="preserve">
<path d="M156.23,120.568c-0.972-4.615-2.579-8.969-4.777-13.08c2.106-3.157,3.621-7.021,4.527-11.613
	c0.898-4.666,0.999-8.898,0.299-12.697c-0.366-2.033-1.766-2.466-4.198-1.3c-3.466,1.666-7.081,2.449-10.847,2.349
	c-2.808-0.099-5.132-0.672-6.977-1.716c-0.362-1.301-1.285-2.745-2.771-4.332c-1.967-2.146-4.311-3.782-7.024-4.915
	c-0.205-7.435-1.286-14.96-3.272-22.578c-2.367-9.098-5.766-17.396-10.197-24.894c-4.566-7.765-9.798-13.863-15.696-18.295
	C88.965,2.732,82.332,0.25,75.401,0.05C66.97-0.217,58.772,1.816,50.808,6.148c-7.631,4.166-14.596,10.197-20.895,18.095
	C16.942,40.572,9.315,60.696,7.011,84.603c-1.878,1.313-3.456,3.02-4.691,5.174c-1.5,2.633-2.266,5.415-2.299,8.348
	c-0.077,5.506,2.227,10.151,6.892,13.945c1.495,11.973,5.301,21.621,11.418,28.942c0.028,1.538,0.518,3.12,1.484,4.75
	c1.189,2,2.795,3.305,4.815,3.918c-0.167,2.529,0.932,4.931,3.298,7.207c-0.824,2.684-1.373,4.988-1.615,6.87
	c-0.354,2.477-0.348,4.994-0.024,7.549c-0.357,0.859-0.716,1.754-1.076,2.698c-1.566,4.133-2.066,6.582-1.5,7.348
	c0.733,0.967,2.583,1.334,5.548,1.101c2.866-0.233,4.799-0.833,5.798-1.8c0.011-0.012,0.02-0.032,0.031-0.044
	c3.409,0.375,6.848,0.445,10.317,0.194c3.865-0.268,6.248-0.834,7.148-1.7c1.2-1.1,2.766-3.632,4.699-7.598
	c1.406-2.916,2.833-6.214,4.279-9.884c7.636,0.257,14.396-0.691,20.264-2.863c1.469-0.536,2.852-1.148,4.164-1.822l11.407-0.342
	c-0.577,2.992-1.006,6.175-1.274,9.563c-0.42,5.512-0.283,10.256,0.393,14.259c-0.195,1.681-0.293,3.211-0.293,4.587
	c0,2.166,0.184,3.481,0.551,3.948c0.399,0.467,1.466,0.583,3.199,0.351c4.198-0.533,6.797-1.434,7.797-2.7
	c0.025-0.034,0.044-0.089,0.067-0.128c2.354-0.067,4.874-0.43,7.581-1.121c2.799-0.733,5.099-1.6,6.898-2.6
	c1.365-0.767,2.416-1.684,3.148-2.75c0.767-1.133,1.3-2.632,1.6-4.498c1.699-9.797,2.633-16.912,2.8-21.345
	c0.127-3.229-0.027-6.282-0.447-9.17c1.178-1.21,2.276-2.584,3.296-4.124l0.25,8.745c0.033,1.3,0.184,2.35,0.45,3.149
	c0.3,0.866,0.816,1.6,1.55,2.199c1.112,0.974,2.397,1.529,3.836,1.713c0.294,0.567,0.914,1.163,1.862,1.786
	c1.167,0.733,2.1,1.116,2.8,1.149c1,0.033,2.082-0.416,3.248-1.35c0.871-0.705,1.427-1.419,1.683-2.141
	c2.41-0.854,4.15-1.855,5.216-3.008c1.066-1.199,1.85-3.082,2.35-5.648C157.863,137.53,157.963,128.566,156.23,120.568z"/>
</svg>
