<?xml version="1.0" encoding="utf-8"?>
<!-- Generator: Adobe Illustrator 16.0.0, SVG Export Plug-In . SVG Version: 6.00 Build 0)  -->
<!DOCTYPE svg PUBLIC "-//W3C//DTD SVG 1.1//EN" "http://www.w3.org/Graphics/SVG/1.1/DTD/svg11.dtd">
<svg version="1.1" id="图层_1" xmlns="http://www.w3.org/2000/svg" xmlns:xlink="http://www.w3.org/1999/xlink" x="0px" y="0px"
	 width="74px" height="129px" viewBox="0 0 74 129" enable-background="new 0 0 74 129" xml:space="preserve">
<path d="M73.601,83.037c-1.497-3.56-3.027-6.554-4.591-8.982c-0.05-0.078-0.104-0.144-0.154-0.22
	c1.209-3.224,1.022-6.889-0.594-11.007c-0.918-2.355-2.076-4.235-3.463-5.661l2.614,0.272c0.333,0,0.466-0.166,0.399-0.499
	C67.28,51.318,66,46.91,63.971,43.717c-1.675-2.636-3.949-4.612-6.808-5.947c0.148-1.438-0.013-2.818-0.528-4.133
	c-0.359-0.922-0.868-1.761-1.514-2.521c0.647-0.977,1.059-2.112,1.215-3.416c0.199-1.597-0.018-2.944-0.648-4.042
	c-0.313-0.556-0.716-1.042-1.166-1.493c0.676-0.707,1.152-1.553,1.415-2.549c0.333-1.264,0.267-2.495-0.2-3.692
	c-0.401-1.051-1.041-1.889-1.896-2.533l7.934-11.239c0.333-0.466,0.399-0.848,0.2-1.148c-0.2-0.333-0.633-0.532-1.298-0.599
	C57.25,0.171,53.841,0.72,50.447,2.051c-3.393,1.364-5.771,3.094-7.135,5.189c-1.098,1.72-1.21,3.493-0.352,5.318
	c-2.757,0.813-4.912,2.323-6.435,4.562c-0.532,0.798-0.849,1.713-0.948,2.744c-0.071,0.733-0.01,1.448,0.171,2.147
	c-0.907,0.675-1.732,1.469-2.467,2.394c-0.732,0.898-1.181,1.929-1.347,3.094c-0.11,0.789-0.076,1.554,0.074,2.299
	c-0.024,0.017-0.05,0.029-0.074,0.046c-2.372,1.612-3.83,3.603-4.395,5.965c-4.359,0.305-7.875,1.106-10.525,2.417
	c-4.058,2.029-6.586,5.323-7.584,9.88c-0.333,1.497,0.216,2.362,1.646,2.595c1.43,0.216,2.874,0.179,4.33-0.095
	c-0.677,1.138-1.21,2.461-1.585,3.988c-0.018,0.069-0.025,0.134-0.042,0.202c-2.513,1.797-4.143,4.113-4.885,6.95
	c-0.941,0.434-1.797,0.958-2.558,1.58c-2.295,1.929-3.925,4.658-4.89,8.183c-0.732,2.563-1.081,5.307-1.048,8.234
	c0,0.266,0.1,0.415,0.299,0.448c0.768,0.27,1.561,0.442,2.366,0.559C2.2,82.085,1.52,83.333,1.048,84.484
	C0.549,85.748,0.199,87.212,0,88.875c-0.067,0.299,0.017,0.565,0.25,0.799l0.898,0.1c1.331-0.633,2.545-1.098,3.643-1.397
	c-0.832,1.896-1.131,3.676-0.898,5.339l0.349,0.648c0.266,0.2,0.532,0.2,0.798,0c0.565-0.461,1.057-0.829,1.495-1.13
	c-0.096,0.421-0.185,0.845-0.248,1.28c-0.699,4.657,0.682,9.447,4.142,14.371c0.798,1.031,1.68,1.264,2.645,0.698
	c0.337-0.182,0.645-0.372,0.966-0.559c-0.115,2.89,0.051,5.435,0.531,7.595c0.1,0.432,0.299,0.698,0.599,0.798l0.848-0.249
	l3.244-3.543c0.096,0.325,0.214,0.621,0.317,0.938l-4.658,9.042c-0.333,0.665-0.382,1.347-0.149,2.046s0.731,1.182,1.497,1.447
	c2.262,0.832,3.826,0.482,4.691-1.048c0.769-1.374,1.406-2.82,1.926-4.331c0.36,0.562,0.723,1.119,1.117,1.637
	c0.233,0.332,0.499,0.482,0.798,0.449l0.798-0.549l2.146-4.043c2.461,4.458,4.74,7.419,6.836,8.883l0.948,0.1
	c2.229-0.766,4.424-2.162,6.586-4.191c1.663-1.563,3.477-3.676,5.438-6.338l-0.249,1.797l-0.399,2.246
	c-0.033,0.332,0.117,0.549,0.449,0.648c0.366,0.1,0.766,0,1.197-0.3c1.322-0.827,2.729-2.337,4.219-4.523
	c1.29,5.202,2.03,8.044,2.219,8.516c0.332,0.897,0.848,1.446,1.547,1.646l2.295-0.1c1.331-0.267,2.146-0.683,2.445-1.247
	c0.3-0.467,0.316-1.198,0.051-2.196l-2.66-8.146c0.005,0.003,0.01,0.009,0.015,0.012c0.3,0.233,0.583,0.3,0.849,0.2l0.499-0.599
	c0.25-1.5,1.094-4.084,2.517-7.724c1.2-0.183,2.571-0.452,4.119-0.81c0.2-0.033,0.3-0.183,0.3-0.449
	c-0.066-3.193-0.615-6.137-1.646-8.832c-0.049-0.125-0.103-0.242-0.152-0.365l0.202-1.73l-0.149-3.043
	c0.831,0.166,2.212,0.697,4.142,1.596c0.465,0.166,0.748,0.051,0.848-0.349c0.333-1.165,0.3-2.679-0.1-4.541
	c-0.272-1.394-0.7-2.681-1.266-3.872c1.771-0.444,3.318-1.09,4.609-1.967C73.75,83.402,73.801,83.236,73.601,83.037z"/>
</svg>
