<?xml version="1.0" encoding="utf-8"?>
<!-- Generator: Adobe Illustrator 16.0.0, SVG Export Plug-In . SVG Version: 6.00 Build 0)  -->
<!DOCTYPE svg PUBLIC "-//W3C//DTD SVG 1.1//EN" "http://www.w3.org/Graphics/SVG/1.1/DTD/svg11.dtd">
<svg version="1.1" id="图层_1" xmlns="http://www.w3.org/2000/svg" xmlns:xlink="http://www.w3.org/1999/xlink" x="0px" y="0px"
	 width="76px" height="140px" viewBox="0 0 76 140" enable-background="new 0 0 76 140" xml:space="preserve">
<path d="M75.508,74.764c-0.101-1.604-0.602-3.143-1.505-4.613c-0.902-1.471-2.022-2.607-3.359-3.41
	c2.206-3.41,2.423-7.07,0.651-10.981c-0.635-1.304-1.555-2.391-2.758-3.26c-1.104-0.769-2.34-1.304-3.711-1.604
	c-0.434-3.376-1.621-5.967-3.56-7.772c-1.204-1.103-2.675-1.855-4.413-2.256c-0.3-0.072-0.604-0.117-0.91-0.164
	c1.537-2.841,1.269-5.844-0.844-9.012c-0.478-0.723-1.03-1.338-1.619-1.899c1.924-2.023,2.285-4.415,1.066-7.177
	c-0.295-0.672-0.674-1.243-1.104-1.753c0.288-1.009,0.361-2.11,0.201-3.311c-0.2-1.438-0.651-2.607-1.354-3.51
	c-0.338-0.451-0.759-0.85-1.245-1.206c1.097-1.825,2.117-3.855,3.05-6.115c0.937-2.307,1.521-4.178,1.756-5.616
	c0.1-0.769-0.401-1.137-1.505-1.104c-2.741,0.167-5.499,0.936-8.273,2.307c-2.976,1.504-5.081,3.276-6.317,5.315
	c-0.603,1.003-0.903,2.072-0.903,3.209c0,0.9,0.169,1.697,0.506,2.392c-1.18,0.701-2.239,1.585-3.164,2.673
	c-2,2.384-2.6,4.767-1.803,7.15c-0.426,0.386-0.832,0.791-1.205,1.224c-2.372,2.672-2.908,5.208-1.639,7.61
	c-0.121,0.106-0.248,0.203-0.367,0.313c-2.276,2.097-3.728,4.329-4.367,6.694c-0.115,0.012-0.232,0.01-0.347,0.025
	c-2.574,0.301-4.713,1.087-6.418,2.357c-1.371,1.003-2.423,2.29-3.159,3.861c-0.769,1.672-1.136,3.51-1.103,5.516
	c-2.741,0.835-4.88,2.507-6.418,5.014c-1.571,2.507-2.072,5.432-1.504,8.775c-1.538,0.535-2.909,1.521-4.112,2.958
	c-1.204,1.471-2.006,3.143-2.407,5.015c-0.401,2.039-0.368,4.195,0.101,6.468c0.635,3.01,1.989,5.55,4.062,7.622
	c-1.103,1.604-1.789,3.394-2.056,5.366c-0.201,1.57-0.134,3.059,0.2,4.462c0.401,1.604,1.137,3.075,2.207,4.413
	c1.07,1.303,2.307,2.34,3.71,3.108c0,0.776,0.083,1.542,0.207,2.301l-0.006,0.006c-0.735,0.735-1.12,1.37-1.153,1.905l-0.1,3.811
	c-0.167,0.636-0.435,1.121-0.803,1.455l-6.769,5.967c-0.535,0.468-0.819,1.104-0.853,1.905c-0.033,0.735,0.15,1.37,0.552,1.905
	c0.435,0.568,1.086,0.902,1.956,1.004c0.802,0.1,1.538-0.034,2.206-0.402c0.802-0.434,3.276-2.54,7.421-6.317l0.853-1.153
	c0.125-0.223,0.213-0.427,0.292-0.626c0.821,0.7,1.691,1.28,2.616,1.729c1.203,0.534,2.674,0.936,4.413,1.203
	c-0.067,1.069,0.234,2.206,0.902,3.41c0.702,1.236,1.605,2.139,2.708,2.707c1.571,0.803,3.259,1.153,5.064,1.053
	c1.322-0.074,2.542-0.383,3.66-0.924c-0.222,0.849-0.637,1.659-1.253,2.429l-2.156,1.854c-1.237,0.636-2.022,1.404-2.356,2.307
	c-0.368,0.903-0.234,1.772,0.401,2.607c0.468,0.603,1.153,0.903,2.056,0.903c0.902,0,1.722-0.301,2.457-0.903l2.607-2.758
	l1.473-2.334c0.07,1.423,0.193,2.775,0.382,4.039c0.401,2.508,0.986,4.246,1.755,5.215c0.735,0.937,1.554,1.538,2.457,1.806
	l2.356-0.101c0.936-0.334,1.621-0.853,2.057-1.555c0.467-0.734,0.451-1.42-0.051-2.056c-1.567-2.077-2.722-4.102-3.485-6.075
	c1.374,1.983,2.77,3.348,4.188,4.07c0.635,0.367,1.32,0.501,2.056,0.4c0.803-0.1,1.438-0.468,1.905-1.104
	c0.568-0.668,0.786-1.387,0.651-2.156c-0.1-0.734-0.451-1.37-1.053-1.904c-1.852-1.594-3.314-2.932-4.408-4.026
	c2.446,0.374,4.452,0.063,6.014-0.938c1.27-0.803,2.139-2.173,2.607-4.111l4.012-0.401c1.173-0.3,2.084-0.769,2.735-1.403
	l4.636,5.916c0.367,0.367,0.936,0.552,1.704,0.552c0.836,0,1.521-0.234,2.056-0.702c0.736-0.602,1.153-1.354,1.254-2.256
	c0.134-0.836-0.051-1.555-0.552-2.156l-4.161-4.814c-1.004-1.337-1.404-2.707-1.204-4.111c0.149-0.9,0.058-1.729-0.249-2.494
	c0.966-0.219,1.951-0.671,2.957-1.367c1.438-0.969,2.507-2.156,3.209-3.561c0.702-1.303,1.053-2.69,1.053-4.162
	c0-1.403-0.317-2.69-0.953-3.86c1.037-0.636,1.906-1.471,2.607-2.507c0.703-1.07,1.087-2.156,1.154-3.26
	c0.133-2.34-0.636-4.362-2.307-6.067C74.354,81.232,75.741,78.24,75.508,74.764z"/>
</svg>
