<?xml version="1.0" encoding="utf-8"?>
<!-- Generator: Adobe Illustrator 16.0.0, SVG Export Plug-In . SVG Version: 6.00 Build 0)  -->
<!DOCTYPE svg PUBLIC "-//W3C//DTD SVG 1.1//EN" "http://www.w3.org/Graphics/SVG/1.1/DTD/svg11.dtd">
<svg version="1.1" id="图层_1" xmlns="http://www.w3.org/2000/svg" xmlns:xlink="http://www.w3.org/1999/xlink" x="0px" y="0px"
	 width="76px" height="135px" viewBox="0 0 76 135" enable-background="new 0 0 76 135" xml:space="preserve">
<path d="M73.051,83.862c-0.633-0.634-0.7-1.233-0.199-1.802c1.567-1.634,2.334-3.152,2.301-4.553c0-0.867-0.217-1.685-0.65-2.451
	l-1.551-2.152c-0.701-0.9-0.934-1.751-0.701-2.552c0.301-0.968,0.385-1.601,0.251-1.901L71.15,67.4L70.6,66.75
	c-0.066-0.267,0.033-0.684,0.3-1.251l1.051-2.702c0.233-0.934,0.251-1.751,0.05-2.452c-0.232-0.901-0.684-1.702-1.351-2.402
	l-2.102-1.651c-0.867-0.567-1.384-1.034-1.552-1.401c-0.166-0.367-0.166-1.018,0-1.952c0.301-1.768,0.101-3.219-0.6-4.353
	c-0.668-1.034-1.868-1.835-3.604-2.402c-0.8-0.267-1.367-0.55-1.701-0.851c-0.434-0.4-0.717-0.967-0.85-1.701
	c-0.301-1.768-0.818-2.869-1.552-3.303c-0.667-0.434-1.435-0.634-2.302-0.6l-2.602,0.4l-1.15,0.1c-0.367-0.033-0.668-0.2-0.901-0.5
	l-0.851-1.301l-1.201-1.101c-0.118-0.057-0.236-0.098-0.354-0.145c0.325-0.92,0.473-1.902,0.405-2.958
	c-0.134-1.534-0.668-2.902-1.602-4.103c-0.687-0.874-1.524-1.618-2.502-2.243c0.661-1.104,1.023-2.4,1.051-3.911
	c0-1.735-0.417-3.286-1.251-4.654c-0.283-0.435-0.624-0.828-0.993-1.202c0.412-1.101,0.549-2.348,0.393-3.752
	c-0.13-1.33-0.492-2.481-1.072-3.464c2.728-0.455,4.955-1.067,6.677-1.839c0.867-0.367,1.251-0.951,1.151-1.751
	c-0.101-0.734-0.551-1.501-1.352-2.302c-2.769-2.735-6.088-4.353-9.957-4.854c-3.27-0.434-6.155-0.066-8.657,1.101
	c-2.269,1.067-3.736,2.652-4.403,4.753c-0.496,1.539-0.433,2.85,0.173,3.94c-1.122,0.991-2.084,2.19-2.875,3.616
	c-1.865,3.399-1.991,6.059-0.411,7.993c-0.644,0.804-1.193,1.657-1.641,2.564c-0.701,1.501-1.051,2.985-1.051,4.453
	c-0.026,1.214,0.205,2.304,0.679,3.278c-0.322,0.316-0.638,0.637-0.93,0.975c-2.677,3.118-3.245,6.326-1.76,9.622
	c-0.328,0.221-0.735,0.311-1.242,0.236c-1.868-0.3-3.186-0.1-3.953,0.6c-0.734,0.601-1.101,1.585-1.101,2.952
	c0,0.701-0.217,1.101-0.65,1.201c-2.068,0.367-3.319,1.018-3.753,1.951c-0.567,1.001-0.534,2.318,0.1,3.953
	c0.3,0.834,0.083,1.384-0.65,1.651c-2.135,0.8-3.453,1.868-3.953,3.202c-0.534,1.368-0.284,2.886,0.75,4.554
	c0.333,0.6,0.3,1.067-0.1,1.401c-0.867,0.601-1.401,1.284-1.601,2.051C2.982,66.933,3.233,67.801,4,68.801l0.4,0.901l-0.701,0.7
	c-2.035,1.268-3.202,2.853-3.502,4.754c-0.267,1.734,0.284,3.402,1.651,5.004c0.4,0.5,0.434,0.983,0.1,1.451
	c-1.501,1.934-2.119,3.652-1.852,5.153c0.233,1.301,1.001,2.468,2.302,3.503c0.601,0.467,0.767,1.051,0.5,1.751l-1.101,3.202
	c-0.2,1.034-0.15,1.901,0.15,2.602c0.267,0.635,0.634,1.151,1.101,1.552l1.901,1.251c0.634,0.367,0.834,0.817,0.601,1.352
	c-0.834,1.601-1.001,2.951-0.5,4.053c0.3,0.633,1.167,1.384,2.602,2.252l0.701,0.6l-0.05,1.15c-0.601,2.235-0.434,3.854,0.5,4.854
	c0.367,0.435,1.518,0.969,3.453,1.602c1.601,0.567,2.452,1.268,2.552,2.102l0.2,1.852c0.133,0.734,0.367,1.234,0.701,1.502
	l3.052,0.449c0.967,0,1.417,0.384,1.351,1.151c-0.066,1.2,0.25,2.151,0.951,2.853c0.667,0.666,1.768,0.917,3.303,0.75
	c0.8-0.033,1.201,0.167,1.201,0.601c-0.066,1.101,0.25,1.951,0.951,2.552c0.734,0.667,2.019,0.834,3.853,0.5
	c0.667-0.133,1.201,0,1.601,0.4c2.202,2.202,4.854,3.053,7.956,2.553c1.368-0.234,2.502-0.685,3.402-1.352
	c0.935-0.734,1.802-1.852,2.603-3.353c0.4-0.667,0.883-0.9,1.451-0.7l3.553,0.1c1.634-0.768,2.868-2.335,3.702-4.703
	c0.267-0.701,0.7-1.084,1.301-1.15l1.552-0.15l1.65-0.951c0.701-0.7,1.084-1.785,1.151-3.252c0.033-0.4,0.116-0.684,0.25-0.852
	c0.167-0.199,0.483-0.333,0.95-0.4c1.969-0.434,3.303-1.184,4.004-2.251c0.9-1.335,1.084-3.369,0.55-6.104
	c-0.2-0.834-0.116-1.334,0.251-1.501c1-0.434,1.584-0.817,1.75-1.151l0.051-1.551l-0.2-1.501c-0.067-0.601,0-1.067,0.2-1.401
	l1.201-1.251l1.65-1.401c0.567-0.566,0.918-1.134,1.051-1.701l0.051-1.852l-0.5-1.75c-0.234-0.801-0.101-1.436,0.399-1.902
	c1.802-1.567,2.735-3.186,2.802-4.854c0.033-0.566-0.133-1.101-0.5-1.602L73.051,83.862z"/>
</svg>
