<?xml version="1.0" encoding="utf-8"?>
<!-- Generator: Adobe Illustrator 16.0.0, SVG Export Plug-In . SVG Version: 6.00 Build 0)  -->
<!DOCTYPE svg PUBLIC "-//W3C//DTD SVG 1.1//EN" "http://www.w3.org/Graphics/SVG/1.1/DTD/svg11.dtd">
<svg version="1.1" id="图层_1" xmlns="http://www.w3.org/2000/svg" xmlns:xlink="http://www.w3.org/1999/xlink" x="0px" y="0px"
	 width="162px" height="239px" viewBox="0 0 162 239" enable-background="new 0 0 162 239" xml:space="preserve">
<path d="M161.075,154.247c-0.534-4.503-1.301-7.604-2.302-9.306c-0.551-0.902-2.035-1.85-4.415-2.84
	c0.778-1.132,1.732-2.848,2.864-5.166c1.535-3.201,2.201-5.253,2.002-6.153c-0.367-1.601-1.785-3.786-4.253-6.554
	c-2.435-2.803-4.47-4.537-6.104-5.204l-9.256-0.5c-0.858,0.056-1.634,0.121-2.369,0.191l0.818-5.044l0.5-4.753
	c-0.3-1.701-2.65-3.919-7.054-6.654c-4.103-2.535-6.838-3.802-8.205-3.802c-0.882,0-2.282,0.45-4.188,1.335
	c-0.772-4.615-1.545-7.394-2.317-8.29c-0.333-0.233-0.666-0.383-1-0.45l-2.09-0.163l1.34-2.939c0.6-1.734,0.783-3.102,0.55-4.103
	c-0.167-0.8-0.968-2.051-2.401-3.752c-1.568-1.835-2.818-2.752-3.752-2.752c-0.801,0-2.336,0.567-4.604,1.701
	c-2.668,1.334-4.053,2.618-4.152,3.853c0.033,1.801,0.25,3.435,0.65,4.903c0.304,1.153,0.811,2.437,1.5,3.837
	c-0.417,0.115-0.71,0.236-0.85,0.365l-1.451,2.151c-0.465,0.837-0.875,1.73-1.259,2.649c-2.957-3.052-6.747-5.427-11.399-7.102
	c-1.629-12.035-2.61-29.161-2.947-51.37c2.313-2.165,4.2-4.584,5.649-7.268c2.302-4.236,2.651-7.838,1.051-10.807
	c-1.067-1.768-2.735-2.401-5.003-1.901c-0.062,0.014-0.121,0.035-0.183,0.05c0.538-4.319,0.724-8.181,0.532-11.557
	c-0.199-3.402-0.717-5.521-1.551-6.354c-0.301-0.367-0.684-0.517-1.15-0.45c-0.701,0.033-1.668,0.784-2.902,2.251l-2.151,3.102
	c-1.968,3.369-3.252,6.704-3.853,10.006c-0.654,3.738-0.35,7.049,0.887,9.943c-2.177,2.761-3.352,5.765-3.488,9.019v0.4
	c0,2.768,1.367,4.586,4.103,5.453c-0.3,10.273-0.75,19.012-1.351,26.217c-0.634,7.538-1.551,15.009-2.751,22.414
	c-1.006,0.231-1.977,0.503-2.924,0.803c-3.387-3.128-5.787-4.706-7.183-4.706c-0.534,0-1.584,0.634-3.152,1.901l-2.302,2.051
	c-1.434,1.501-2.151,2.668-2.151,3.502l0.851,1.651l1.598,3.027c-0.751,0.768-1.478,1.565-2.148,2.427
	c-0.84,1.093-1.579,2.231-2.243,3.402l-1.959,0.25l-1.25,0.3c-0.5,0.333-1.101,1.001-1.801,2.001
	c-0.734,1.101-1.167,2.018-1.301,2.751c-0.142,0.405-0.215,1.37-0.221,2.878c-1.447-2.726-2.676-4.342-3.681-4.829
	c-0.834-0.434-3.853-0.167-9.056,0.801c-5.204,0.967-8.155,1.801-8.856,2.501c-0.9,1.134-1.634,3.019-2.201,5.653
	c-0.63,2.993-0.928,6.542-0.904,10.635c-3.741-0.816-6.178-1.11-7.301-0.879c-1.234,0.301-3.352,1.852-6.354,4.652
	c-3.135,2.936-4.82,5.087-5.053,6.455c-0.2,1.334,0.383,4.202,1.751,8.605c0.805,2.544,1.549,4.49,2.239,5.881
	c-1.517,1.374-3.046,3.087-4.59,5.176c-1.601,2.201-2.418,3.652-2.451,4.353c-0.1,1.334,0.717,3.519,2.451,6.554
	c1.535,2.702,2.785,4.47,3.752,5.304c0.801,0.667,2.769,1.117,5.904,1.351l6.604-0.25c0.94-0.255,2.095-1.132,3.461-2.626
	c0.711,0.912,1.602,1.676,2.692,2.276c1.051,0.558,2.413,1.035,4.078,1.431c0.024,4.273,1.25,7.448,3.677,9.526
	c1.801,1.601,4.103,2.501,6.904,2.701c0.199,0.017,0.385,0.009,0.581,0.019c-0.532,1.55-0.788,3.11-0.73,4.685
	c0.067,1.968,0.601,3.619,1.601,4.953c0.7,0.967,1.751,1.751,3.152,2.352c1.568,0.666,3.352,0.983,5.354,0.95l-0.951,2.052
	c-0.267,0.834-0.434,1.884-0.5,3.151c0,1.567,0.333,3.052,1.001,4.453c1.267,2.435,3.936,4.186,8.005,5.253
	c-0.4,1.101-0.601,2.285-0.601,3.553c0,2.268,0.634,4.285,1.901,6.053c1.293,1.764,3.162,2.875,5.583,3.362
	c0.226,3.121,1.394,5.177,3.523,6.145c1.705,0.763,3.41,0.753,5.114,0.007c0.899,1.658,2.053,2.986,3.491,3.945
	c1.634,1.101,3.402,1.568,5.304,1.4c2.034-0.199,3.868-1.1,5.503-2.701c1.52-1.519,2.577-3.384,3.181-5.59
	c2.015,0.026,3.794-0.307,5.325-1.014c1.567-0.734,2.785-1.802,3.652-3.203c1.033-1.566,1.518-3.368,1.451-5.402
	c-0.029-1.732-0.47-3.307-1.274-4.744c1.683-0.28,3.266-0.751,4.726-1.46c2.369-1.134,4.203-2.702,5.504-4.703
	c1.986-2.964,2.268-6.335,0.886-10.103c5.279-2.259,7.951-7.338,8.013-15.241c2.996,0.056,5.521-0.413,7.563-1.423
	c2.862-1.448,5.171-4.2,6.93-8.245c2.683-0.23,4.952-1.354,6.821-3.349c3.829,1.817,6.406,2.669,7.712,2.537
	c1.367-0.133,3.803-1.6,7.305-4.402c3.502-2.801,5.537-4.902,6.104-6.304C161.509,161.818,161.576,158.783,161.075,154.247z"/>
</svg>
