<?xml version="1.0" encoding="utf-8"?>
<!-- Generator: Adobe Illustrator 16.0.0, SVG Export Plug-In . SVG Version: 6.00 Build 0)  -->
<!DOCTYPE svg PUBLIC "-//W3C//DTD SVG 1.1//EN" "http://www.w3.org/Graphics/SVG/1.1/DTD/svg11.dtd">
<svg version="1.1" id="图层_1" xmlns="http://www.w3.org/2000/svg" xmlns:xlink="http://www.w3.org/1999/xlink" x="0px" y="0px"
	 width="183px" height="258px" viewBox="0 0 183 258" enable-background="new 0 0 183 258" xml:space="preserve">
<path d="M182.152,165.195c-1.531-1.43-4.142-5.92-7.834-13.471c-4.49-9.246-7.35-14.851-8.58-16.813
	c-2.828-4.623-7.318-9.28-13.471-13.97c-5.732-4.395-12.729-8.65-20.961-12.77c-0.651-1.74-1.469-3.486-2.488-5.241
	c-0.906-1.564-1.906-2.981-2.989-4.267c0.008-1.232-0.137-2.534-0.453-3.915c-0.399-1.696-0.981-3.276-1.746-4.739
	c-0.167-0.299-0.466-0.433-0.898-0.399l-4.091,0.798c-1.14,0.347-2.084,0.721-2.836,1.123c-1.019-0.381-2.079-0.695-3.175-0.953
	c-2.175-7.745-3.217-24.596-3.119-50.61c3.426-3.393,5.587-6.835,6.485-10.327c0.932-3.426,0.399-5.92-1.596-7.484
	c-0.834-0.664-1.842-0.975-3.011-0.957c0.981-5.705,1.108-10.695,0.366-14.958c-0.732-4.125-1.945-6.153-3.643-6.087
	c-2.328,0.1-4.64,3.043-6.935,8.831c-2.128,5.255-3.192,9.778-3.192,13.57c0,1.164,0.249,2.229,0.748,3.193
	c0.416,0.857,0.961,1.495,1.63,1.919c-2.068,2.237-3.386,4.475-3.925,6.712c-0.499,1.896-0.416,3.442,0.249,4.64
	c0.599,1.131,1.547,1.962,2.844,2.495l1.79,0.126c-0.202,8.36-0.666,17.778-1.391,28.262c-0.69,10.162-1.32,16.992-1.893,20.5
	c-2.274,0.469-4.534,1.353-6.779,2.654c-1.364-3.233-3.786-5.637-7.293-7.189c-3.692-1.63-7.6-1.946-11.724-0.948
	c-0.666,0.167-1.048,0.616-1.147,1.347c-0.565,5.555,0.682,9.795,3.742,12.722c1.818,1.731,3.962,2.822,6.431,3.277
	c-4.996,2.839-13.391,5.854-25.19,9.046c-11.375,3.06-22.368,11.492-32.978,25.295c-2.927,3.825-6.669,8.198-11.226,13.121
	c-4.723,5.122-8.365,8.698-10.926,10.727C0.316,160.955,0,161.404,0,161.803c-0.033,0.366,0.199,0.782,0.698,1.248l3.493,2.993
	c1.02,0.717,2.174,1.35,3.446,1.906c-0.557,0.447-1.108,0.867-1.65,1.237c-0.898,0.631-1.38,1.197-1.447,1.695
	c-0.033,0.5,0.333,1.031,1.098,1.598c3.026,2.494,5.721,4.307,8.082,5.438l2.645-0.15l2.943-1.546l1.573-1.195
	c2.097,1.541,5.186,2.955,9.303,4.239l2.395,0.148c0.499-0.199,1.048-0.781,1.646-1.746c0.863-1.389,1.903-3.166,3.118-5.326
	c0.457,1.859,1.505,3.488,3.168,4.877c1.364,1.198,3.143,2.047,5.338,2.545c1.939,0.418,3.935,0.482,5.981,0.231
	c0.597,1.308,1.434,2.517,2.55,3.61c1.763,1.729,4.058,2.894,6.885,3.492l5.39-0.143c0.176,9.79,3.052,18.801,8.629,27.034
	c3.666,5.415,7.541,9.242,11.622,11.499c-2.077,1.985-4.267,4.309-6.583,7.01c-2.661,3.127-3.958,5.006-3.892,5.639
	c0.1,0.931,1.563,2.012,4.391,3.242c1.73,0.795,3.526,1.461,5.377,2.013c-0.506,1-0.956,1.962-1.336,2.877
	c-1.23,2.96-1.596,4.823-1.098,5.588c0.732,1.23,4.025,2.511,9.878,3.841c5.954,1.364,9.313,1.464,10.078,0.3
	c0.732-1.131,1.215-4.074,1.447-8.831c0.036-0.699,0.062-1.384,0.08-2.059c0.635,1.766,1.438,2.712,2.414,2.808
	c0.965,0.066,3.16-0.449,6.586-1.547c3.825-1.23,5.871-2.378,6.137-3.442c0.365-1.264-0.732-3.709-3.293-7.334
	c-2.253-3.174-4.568-5.833-6.943-8.007c5.726-2.102,10.884-6.596,15.475-13.496c5.113-7.702,7.985-16.133,8.643-25.288
	c0.734,0.087,1.464,0.132,2.184,0.094c1.996-0.067,3.676-0.6,5.039-1.598c1.497-1.064,2.645-2.511,3.443-4.34
	c0.055-0.122,0.088-0.248,0.138-0.37c2.165,0.03,4.198-0.426,6.099-1.376c2.028-1.031,3.625-2.479,4.789-4.341
	c1.23-1.962,1.813-4.224,1.746-6.785c-0.016-0.626-0.071-1.243-0.163-1.852c0.912-0.259,1.751-0.715,2.508-1.392
	c0.704-0.609,1.268-1.342,1.707-2.184c0.994,5.885,1.904,9.774,2.733,11.663c0.266,0.599,0.599,0.981,0.998,1.147l1.297,0.1
	c2.461-0.232,4.789-0.864,6.984-1.896c1.631-0.731,3.426-1.813,5.389-3.243c0.466-0.332,0.699-0.665,0.699-0.998
	c0.033-0.332-0.15-0.765-0.549-1.297c-0.102-0.139-0.199-0.294-0.3-0.437c1.202-0.514,2.271-1.192,3.192-2.058
	c0.5-0.433,0.732-0.832,0.699-1.197C182.9,166.077,182.65,165.661,182.152,165.195z"/>
</svg>
