<?xml version="1.0" encoding="utf-8"?>
<!-- Generator: Adobe Illustrator 16.0.0, SVG Export Plug-In . SVG Version: 6.00 Build 0)  -->
<!DOCTYPE svg PUBLIC "-//W3C//DTD SVG 1.1//EN" "http://www.w3.org/Graphics/SVG/1.1/DTD/svg11.dtd">
<svg version="1.1" id="图层_1" xmlns="http://www.w3.org/2000/svg" xmlns:xlink="http://www.w3.org/1999/xlink" x="0px" y="0px"
	 width="332px" height="290px" viewBox="0 0 332 290" enable-background="new 0 0 332 290" xml:space="preserve">
<path d="M330.943,197.132c-4.799-11.029-7.765-17.561-8.897-19.593c-0.433-0.733-1.166-0.85-2.199-0.35
	c-5.559,3.088-9.971,5.838-13.245,8.25c-3.054-6.424-8.271-11.052-15.695-13.849c-7.161-2.722-14.309-2.976-21.441-0.765
	c6.966-7.414,12.856-15.187,17.644-23.327c6.631-11.296,11.479-23.792,14.545-37.487c2.499-11.263,4.048-22.476,4.648-33.639
	c0.554-10.56,0.226-20.429-0.974-29.618c3.533-1.44,10.254-3.912,20.167-7.419l1.1-0.7l-0.2-1.25l-3.249-9.047l-3.599-8.997
	c-0.267-0.6-0.533-0.933-0.8-1c-0.233-0.033-0.767,0.117-1.6,0.45c-2.266,0.966-5.298,2.566-9.097,4.798
	c-2.622,1.536-4.856,2.946-6.71,4.23l3.812-7.829l4.798-11.046c0.333-0.766,0.417-1.283,0.25-1.549
	c-0.133-0.233-0.6-0.483-1.399-0.75l-10.246-3.599c-4.766-1.599-7.897-2.565-9.396-2.899c-0.801-0.167-1.301-0.167-1.5,0
	c-0.233,0.167-0.383,0.667-0.45,1.5l-1.749,13.945c-0.645,4.551-1.17,8.023-1.579,10.431c-1.826-4.835-3.93-10.851-6.318-18.079
	c-0.3-0.933-0.583-1.466-0.85-1.6c-0.267-0.167-0.767-0.066-1.499,0.3l-7.448,4.349c-3.965,2.366-7.114,4.299-9.446,5.798
	c-0.7,0.467-1.1,0.883-1.199,1.25c-0.067,0.3,0.1,0.8,0.499,1.5l11.817,20.126c-8.179,10.508-15.4,23.388-21.664,38.653
	c-5.816,14.146-10.204,28.802-13.169,43.965c-4.3-3.031-8.921-5.003-13.872-5.879c-0.779-0.139-1.555-0.249-2.327-0.332
	c-0.646-0.67-1.142-1.247-1.471-1.717c-1.267-5.098-3.815-9.846-7.647-14.245c-3.799-4.365-8.73-8.213-14.795-11.546
	c-4.266-2.333-9.63-4.148-16.095-5.448c-6.231-1.266-12.545-1.882-18.943-1.849c-1.732,0-2.666,0.35-2.799,1.05
	c-0.133,0.667,0.466,1.283,1.799,1.849c8.731,3.865,18.411,8.847,29.04,14.945c11.34,6.508,19.902,12.123,25.697,16.848
	c-3.247,0.194-6.439,0.911-9.575,2.139c-3.561-2.671-7.28-5.107-11.173-7.291c-8.73-4.898-18.244-9.03-28.541-12.396
	c-7.331-2.399-13.962-4.099-19.894-5.098l-3.199,0.1c-0.4,0.433-0.25,1.583,0.45,3.449c2.299,6.298,6.681,12.679,13.146,19.143
	c6.898,6.865,13.862,11.396,20.893,13.596c4.146,1.287,8.354,1.918,12.623,1.904c-1.457,2.436-2.569,5.024-3.34,7.766
	c-23.661-15.403-44.802-27.311-63.415-35.711c-24.227-10.982-46.999-17.52-68.322-19.632c-0.638-3.195-1.652-7.204-3.054-12.057
	c-1.699-5.931-3.199-10.396-4.499-13.395c-0.466-1.133-0.85-1.783-1.149-1.95l-2.1,0.1c-3.032,0.667-6.464,1.583-10.296,2.749
	c-4.198,1.3-7.281,2.449-9.247,3.449c-0.866,0.434-1.333,0.8-1.399,1.1c-0.067,0.267,0.1,0.933,0.5,2
	c1.333,3.332,2.866,6.748,4.599,10.247c1.379,2.782,2.73,5.266,4.057,7.468c-7.586-5.308-13.042-9.001-16.353-11.066
	c-1.299-0.833-2.132-1.216-2.499-1.15c-0.367,0.033-0.866,0.617-1.5,1.75c-1.3,2.299-2.999,5.631-5.098,9.997l-3.899,8.497
	c-0.466,1.1-0.649,1.816-0.55,2.149c0.1,0.367,0.667,0.833,1.7,1.4c2.932,1.533,6.647,3.182,11.146,4.948l8.441,3.205
	c-2.028,0.051-4.305,0.148-6.841,0.294l-9.747,0.7c-1.133,0.133-1.8,0.316-2,0.55c-0.2,0.233-0.267,0.816-0.2,1.749
	c0.333,3.199,0.933,6.981,1.799,11.346c0.833,4.232,1.599,7.364,2.299,9.397c0.467,1.299,0.883,2.032,1.25,2.199l3.599-0.25
	c4.332-0.733,9.13-1.783,14.395-3.149c3.65-0.977,6.619-1.863,8.921-2.662c11.411,15.601,24.014,28.736,37.813,39.398
	c8.864,6.865,20.31,14.029,34.338,21.493c15.128,8.063,32.639,13.528,52.532,16.394c10.157,1.48,19.933,2.135,29.334,1.974
	c-6.945,3.667-12.126,10.058-15.539,19.17c-3.635,9.584-3.703,18.188-0.229,25.816c-2.141,0.983-4.893,2.321-8.269,4.022
	c-4.965,2.5-8.597,4.449-10.896,5.849c-0.7,0.433-1.083,0.866-1.15,1.3c-0.1,0.399,0.117,0.967,0.65,1.699l14.396,19.293
	c0.5,0.633,0.883,0.967,1.149,1s0.683-0.2,1.249-0.699c8.203-7.244,13.742-12.039,16.625-14.395l-2.18,21.441
	c-0.033,0.934,0.066,1.55,0.3,1.85c0.233,0.267,0.816,0.416,1.749,0.449l11.746,0.301l9.547-0.2l1.449-0.399
	c0.234-0.234,0.334-0.783,0.301-1.65l-0.732-18.951c7.957-0.202,15.15-2.829,21.574-7.889c6.348-5.021,10.904-11.602,13.719-19.7
	c-0.111,1.992-0.236,4.144-0.373,6.454c-0.033,0.533,0.033,0.883,0.2,1.05l0.95,0.3c5.531,0,12.662-0.6,21.393-1.799
	c0.865-0.134,1.199-0.551,0.999-1.25c-2.499-10.896-4.081-18.894-4.748-23.992c2.433,1,6.381,2.717,11.846,5.148l8.997,3.898
	c0.267,0.101,0.467,0.033,0.6-0.199l1.52-3.672c3.188,0.074,6.1-0.446,8.727-1.576c2.674-1.154,4.854-2.874,6.554-5.145
	l15.039,12.291c0.8,0.566,1.35,0.851,1.649,0.851l1.25-1.05l5.148-6.798c2.466-3.365,4.048-5.864,4.748-7.497
	c0.333-0.7,0.467-1.184,0.399-1.449l-0.999-1l-9.347-5.898l-7.371-4.29l10.17-3.707l7.797-2.499
	C330.977,198.848,331.376,198.132,330.943,197.132z"/>
</svg>
