<?xml version="1.0" encoding="utf-8"?>
<!-- Generator: Adobe Illustrator 16.0.0, SVG Export Plug-In . SVG Version: 6.00 Build 0)  -->
<!DOCTYPE svg PUBLIC "-//W3C//DTD SVG 1.1//EN" "http://www.w3.org/Graphics/SVG/1.1/DTD/svg11.dtd">
<svg version="1.1" id="图层_1" xmlns="http://www.w3.org/2000/svg" xmlns:xlink="http://www.w3.org/1999/xlink" x="0px" y="0px"
	 width="227px" height="139px" viewBox="0 0 227 139" enable-background="new 0 0 227 139" xml:space="preserve">
<path d="M221.597,32.027c-2.599-1.432-7.194-0.933-13.79,1.499c-7.746,2.84-15.92,7.78-24.511,14.781
	c-0.139-3.221-0.445-5.237-0.921-6.037c-1.166-1.965-4.896-5.08-11.192-9.343c-1.185-0.809-2.268-1.52-3.301-2.182
	c0.532-1.064,1.054-2.159,1.552-3.314c2.605-5.981,3.955-11.397,4.077-16.26c0.39-0.22,0.748-0.6,1.069-1.177
	c0.533-0.966,0.816-2.082,0.85-3.348c0-1.432-0.35-2.598-1.049-3.498c-0.666-0.866-1.383-1.249-2.148-1.149
	c-0.767,0.066-1.399,0.533-1.898,1.399c-0.5,0.899-0.717,1.982-0.65,3.248c0.1,1.632,0.5,2.881,1.199,3.748
	c0.357,0.462,0.752,0.747,1.176,0.891c-0.135,4.657-1.467,9.952-4.023,15.897c-0.417,0.983-0.848,1.922-1.286,2.841
	c-3.851-2.4-6.523-3.667-8.007-3.791c-1.533-0.1-5.846,1.266-12.941,4.097c-4.13,1.666-8.027,3.314-11.691,4.946
	c-9.698-5.982-17.001-9.939-21.92-11.883c0.028-0.32,0.062-0.632,0.086-0.958c0.412-5.518,0.121-10.043-0.855-13.599
	c0.351-0.298,0.642-0.749,0.855-1.391c0.333-1.032,0.366-2.182,0.1-3.447c-0.3-1.399-0.899-2.481-1.798-3.248
	c-0.866-0.699-1.699-0.916-2.499-0.649c-0.766,0.267-1.299,0.866-1.599,1.799c-0.333,0.966-0.333,2.048,0,3.248
	c0.466,1.599,1.132,2.748,1.999,3.448c0.525,0.411,1.05,0.62,1.576,0.655c0.925,3.193,1.204,7.513,0.823,12.985
	c-0.015,0.22-0.035,0.431-0.051,0.648c-1.664-0.58-2.998-0.881-3.996-0.898c-2.731-0.033-7.928,2.215-15.589,6.745
	c-7.093,4.223-11.012,6.957-11.766,8.206c-11.064,8.964-16.995,14.497-17.763,16.576c-0.026,0.07-0.05,0.155-0.075,0.235
	c-0.596-0.477-1.237-0.972-1.923-1.484c-4.963-3.697-11.125-7.495-18.486-11.392c-7.195-3.831-13.99-6.878-20.386-9.144
	c-10.259-3.664-16.705-4.114-19.336-1.349c-1.499,1.565-1.749,4.447-0.75,8.644c0.933,3.897,2.765,8.228,5.496,12.991
	c6.396,11.159,13.007,17.937,19.836,20.335c5.896,2.099,14.323,1.398,25.282-2.099c3.465-1.111,6.524-2.328,9.19-3.649
	c-0.017,0.647-0.033,1.308-0.047,2c-0.167,8.394,0.05,13.174,0.649,14.339c0.3,0.566,4.53,3.049,12.691,7.445
	c8.827,4.73,13.74,7.461,14.739,8.194c0.002,0.134,0.006,0.28,0.009,0.417c-3.072,5.218-5.348,11.118-6.804,17.72
	c-1.466,6.562-1.616,11.009-0.45,13.341c1.699,3.396,6.479,5.729,14.339,6.994c6.453,1.044,13.484,1.191,21.078,0.462
	c1.349,0.327,2.47,0.509,3.354,0.538c2.932,0.1,8.678-2.415,17.238-7.545c6.978-4.232,12.826-8.515,17.57-12.846
	c2.755-1.866,4.399-3.365,4.913-4.492c0.466-1.032,0.833-5.129,1.1-12.291c0.233-6.729,0.267-11.725,0.1-14.988
	c12.325-5.896,19.054-9.811,20.186-11.742c0.474-0.825,0.869-2.239,1.188-4.22c3.755,1.951,8.364,2.769,13.851,2.421
	c5.13-0.366,10.742-4.047,16.838-11.042c5.829-6.662,9.493-13.09,10.992-19.286C225.327,36.923,224.494,33.592,221.597,32.027z"/>
</svg>
