<?xml version="1.0" encoding="utf-8"?>
<!-- Generator: Adobe Illustrator 16.0.0, SVG Export Plug-In . SVG Version: 6.00 Build 0)  -->
<!DOCTYPE svg PUBLIC "-//W3C//DTD SVG 1.1//EN" "http://www.w3.org/Graphics/SVG/1.1/DTD/svg11.dtd">
<svg version="1.1" id="图层_1" xmlns="http://www.w3.org/2000/svg" xmlns:xlink="http://www.w3.org/1999/xlink" x="0px" y="0px"
	 width="322px" height="321px" viewBox="0 0 322 321" enable-background="new 0 0 322 321" xml:space="preserve">
<path d="M318.454,90.985c-4.494-1.598-12.634-0.899-24.419,2.097c-14.91,3.785-30.667,10.52-47.269,20.195
	c-0.985-2.123-2.13-4.181-3.469-6.162c-2.431-3.662-5.21-6.758-8.34-9.289c-2.896-2.33-6.409-4.228-10.536-5.693
	c-3.727-1.358-7.699-2.235-11.904-2.665c-1.171-2.632-2.429-5.501-3.777-8.622c-1.164-2.63-3.029-4.627-5.593-5.992
	c-2.796-1.465-5.959-1.881-9.488-1.249c-0.541,0.101-1.063,0.238-1.576,0.392c-1.314-12.367-3.514-25.262-6.613-38.694
	c-4.994-21.507-10.403-33.092-16.229-34.757c-2.896-0.732-5.743,0.299-8.54,3.096c-4.494,4.694-7.973,11.502-10.437,20.425
	c-2.297,8.29-2.946,15.181-1.947,20.674c0.315,1.74,0.789,3.567,1.399,5.47c-0.495-0.29-0.979-0.475-1.45-0.526
	c-0.799-0.033-1.515,0.25-2.147,0.849c-2.364,2.364-3.746,8.057-4.145,17.079c-0.399,9.022,0.466,15.364,2.597,19.026
	c2.197,3.729,6.425,7.391,12.685,10.986c4.728,2.72,9.967,5.035,15.671,6.98c-2.673,2.148-4.951,4.681-6.832,7.602
	c-2.468,3.841-4.059,8.053-4.797,12.626c-1.417-0.566-3.16-1.179-5.241-1.839c-4.563-1.437-8.923-2.556-13.085-3.363
	c-5.063-2.442-8.454-4.015-10.181-4.724c-1.071-2.133-2.007-4.43-2.802-6.895c-1.498-4.761-2.613-10.537-3.346-17.329
	c-0.366-3.396-1.448-5.893-3.246-7.491l-2.357-1.243c-0.016-0.071-0.022-0.133-0.04-0.205c-0.366-1.598-0.965-2.614-1.797-3.046
	c-1.465-0.766-2.764-1.132-3.896-1.099c-0.566,0-1.332,0.183-2.297,0.549c-0.548,0.235-1.174,0.677-1.86,1.28
	c-1.836-1.338-3.333-1.97-4.482-1.879c-1.099,0.067-2.48,0.933-4.145,2.597c-1.731,1.665-2.73,3.212-2.996,4.644
	c-0.266,1.665-0.2,3.596,0.2,5.793c0.466,2.83,1.415,5.01,2.847,6.542l0.699,0.399l0.5-0.6l0.705-1.455
	c1.708,4.879,3.938,9.34,6.691,13.384c-11.184-2.382-22.024-3.572-32.514-3.54c-9.289,0.033-17.462,0.982-24.52,2.847
	c-1.099,0.3-2.064,0.716-2.896,1.249l-1.848,1.548c-3.629,3.795-6.625,7.99-8.989,12.584c-1.771,3.448-3.659,8.13-5.662,14.014
	c-12.379,2.182-19.44,4.219-21.155,6.111c-3.928,4.261-7.257,11.169-9.987,20.725C1.199,172.816,0,180.274,0,186.767
	c0,2.696,0.216,4.694,0.649,5.992c0.399,1.432,4.395,6.975,11.985,16.63l8.14,9.987c2.729,3.329,4.361,5.56,4.894,6.691l0.25,2.647
	l-0.45,6.242l-0.949,7.989c-1.032,10.62-1.548,17.679-1.548,21.174s0.333,5.843,0.999,7.042
	c3.429,5.859,10.836,13.533,22.222,23.021c12.584,10.52,21.939,15.83,28.065,15.93l11.835-0.85l10.537-0.898l8.839-0.998l5.094-0.35
	c1.099,0.133,2.863,0.814,5.293,2.047l7.191,3.895l8.989,4.744c3.029,1.432,5.293,2.098,6.792,1.998
	c5.993-0.333,12.435-2.896,19.326-7.69c6.892-4.827,13.351-11.286,19.376-19.376c10.42-13.949,18.027-30.578,22.822-49.889
	c5.764-23.151,5.941-45.625,0.56-67.423c2.565,0.327,5.186,0.424,7.86,0.287c6.411,1.25,12.19,1.032,17.336-0.656l0.561,2.474
	c1.865,8.123,3.513,13.434,4.944,15.931c1.621,2.755,4.037,4.094,7.236,4.041c0.419,0.452,0.943,0.903,1.603,1.353
	c7.69,4.627,15.531,7.773,23.521,9.438c7.941,1.639,14.373,1.39,19.331-0.702c0.042,0.987-0.039,1.923-0.255,2.8
	c-0.1,0.533-0.051,0.865,0.149,0.999l0.849-0.05c1.299-0.467,2.53-1.299,3.695-2.497c1.032-1.099,1.799-2.247,2.297-3.446
	c0.4-0.932,0.65-2.047,0.75-3.346c0.066-1.332-0.033-2.447-0.3-3.346c-0.2-0.666-0.882-1.398-2.048-2.197l-1.423-0.903
	c0.278-1.858-0.438-3.672-2.173-5.438c-0.732-0.766-1.581-1.365-2.547-1.798c-0.898-0.399-1.664-0.565-2.297-0.499
	c-0.257,0.034-0.51,0.093-0.76,0.174c-1.257-0.706-3.009-1.037-5.283-0.974c-2.396,0.101-6.059,0.666-10.986,1.698l-10.536,2.396
	c-3.829,0.833-6.741,1.182-8.739,1.049c-0.246-0.02-0.469-0.022-0.699-0.032c0.313-2.396-0.265-4.766-1.748-7.108
	c-1.265-1.998-4.262-5.46-8.988-10.387l-1.631-1.573c6.737-3.677,11.596-10.16,14.577-19.441c5.131-0.54,10.35-1.332,15.668-2.407
	c3.995-0.799,7.157-3.03,9.488-6.692c0.479-0.748,0.892-1.514,1.256-2.293c3.74,0.299,8.164-1.03,13.276-3.999
	c5.26-2.996,8.14-5.976,8.639-8.939c0.215-0.957-0.006-1.686-0.649-2.196c1.761-0.323,3.2-0.706,4.295-1.15
	c5.261-2.131,10.687-6.542,16.28-13.234c5.692-6.792,8.506-12.401,8.439-16.829C321.867,93.432,320.719,91.817,318.454,90.985z"/>
</svg>
