<?xml version="1.0" encoding="utf-8"?>
<!-- Generator: Adobe Illustrator 16.0.0, SVG Export Plug-In . SVG Version: 6.00 Build 0)  -->
<!DOCTYPE svg PUBLIC "-//W3C//DTD SVG 1.1//EN" "http://www.w3.org/Graphics/SVG/1.1/DTD/svg11.dtd">
<svg version="1.1" id="图层_1" xmlns="http://www.w3.org/2000/svg" xmlns:xlink="http://www.w3.org/1999/xlink" x="0px" y="0px"
	 width="138px" height="217px" viewBox="0 0 138 217" enable-background="new 0 0 138 217" xml:space="preserve">
<path d="M129.939,58.529c2.727-8.462,4.653-15.947,5.76-22.43c1.033-6.135,1.084-9.503,0.15-10.104
	c-1.301-0.867-5.27,0.833-11.904,5.102c-5.112,3.265-9.145,6.169-12.125,8.723c-1.462-7.125-3.631-14.844-6.532-23.178
	c-3.802-11.037-6.669-16.573-8.603-16.606c-1.734-0.033-4.452,5.085-8.153,15.355c-2.877,7.933-5.17,15.59-6.898,22.981
	l-3.668,1.189c-3.014-3.174-6.257-6.296-9.741-9.365c-6.335-5.569-10.271-8.037-11.804-7.403c-1.467,0.634-1.584,5.702-0.35,15.206
	c0.607,4.565,1.378,8.816,2.299,12.777c-4.775,4.421-8.251,9.56-10.402,15.433c-3.468,9.47-3.551,21.407-0.25,35.813
	c0.106,0.472,0.22,0.956,0.338,1.448c-1.211,2.338-2.196,4.587-2.967,6.751c-3.21-0.856-6.55-1.296-10.026-1.296
	c-3.891,0-7.657,0.637-11.302,1.894c-1.931-4.309-4.742-9.153-8.455-14.549c-4.235-6.135-7.02-8.953-8.353-8.453
	c-1.634,0.634-2.918,6.119-3.852,16.456c-0.897,9.809-0.849,17.916,0.12,24.365c-0.252,0.508-0.494,1.021-0.72,1.544
	C0.833,134.018,0,137.952,0,141.987c0,7.303,2.468,13.372,7.403,18.206c4.208,4.122,9.797,6.889,16.76,8.308
	c0.369,0.483,0.721,1.031,1.057,1.646c-1.004,0.133-1.941,0.449-2.812,0.951c-1.901,1.101-2.951,2.834-3.151,5.202
	c-0.133,1.767,0.45,3.234,1.751,4.401c1.2,1.134,2.717,1.784,4.551,1.951c1.1,0.09,2.114,0.03,3.042-0.173
	c0.065,0.655,0.125,1.312,0.159,1.974c0.3,5.802,0.967,10.07,2.001,12.805c1.131,2.998,2.833,5.154,5.075,6.509
	c-1.86,2.687-2.297,5.501-1.274,8.446c1.034,3.135,3.001,4.651,5.902,4.551c3.401-0.166,5.852-1.35,7.353-3.551
	c1.511-2.203,1.878-5.264,1.131-9.159c1.652-0.854,3.177-2.131,4.571-3.846l2.904-3.424c10.009,4.721,19.379,4.104,28.107-1.878
	c6.869-4.701,11.837-11.888,14.904-21.558c2.969-9.271,3.836-19.69,2.602-31.261c-0.972-9.202-1.398-16.896-1.282-23.094
	c4.53,1.13,9.191,0.821,13.987-0.966c5.168-1.935,9.619-5.235,13.354-9.903c4.836-6.036,7.653-13.171,8.453-21.408
	C137.502,77.062,135.294,67.666,129.939,58.529z M58.666,164.099c2.702-1.614,5.025-3.542,6.982-5.772
	c0.599,4.521,0.458,8.622-0.408,12.31c-0.294-0.28-0.599-0.561-0.917-0.839c-1.75-1.544-3.551-2.742-5.403-3.6
	C58.953,165.513,58.868,164.813,58.666,164.099z"/>
</svg>
