<?xml version="1.0" encoding="utf-8"?>
<!-- Generator: Adobe Illustrator 16.0.0, SVG Export Plug-In . SVG Version: 6.00 Build 0)  -->
<!DOCTYPE svg PUBLIC "-//W3C//DTD SVG 1.1//EN" "http://www.w3.org/Graphics/SVG/1.1/DTD/svg11.dtd">
<svg version="1.1" id="图层_1" xmlns="http://www.w3.org/2000/svg" xmlns:xlink="http://www.w3.org/1999/xlink" x="0px" y="0px"
	 width="188px" height="237px" viewBox="0 0 188 237" enable-background="new 0 0 188 237" xml:space="preserve">
<path d="M184.851,86.417c-0.899-1.033-2.249-0.966-4.048,0.2c-7.43,4.831-13.16,11.311-17.191,19.439
	c-2.998,5.997-5.113,13.06-6.346,21.189c-0.254,1.604-0.479,3.292-0.684,5.048c-2.191-8.749-6.244-16.504-12.21-23.238
	c-6.097-6.93-12.376-10.928-18.84-11.994c-2.065-0.333-3.448-0.066-4.147,0.799c-0.699,0.833-0.35,1.833,1.049,2.999
	c4.965,4.064,8.912,9.128,11.844,15.192c2.699,5.564,4.631,12.11,5.797,19.64c1.633,10.894,1.383,20.673-0.749,29.335
	c-1.896,7.707-4.981,13.402-9.227,17.138c-1.284-7.14-4.051-14.733-8.294-22.779c0.381-0.146,0.758-0.309,1.129-0.506
	c2.199-1.199,3.398-3.698,3.598-7.495c0.165-3.219-0.432-6.748-1.765-10.58c2.432-3.808,3.664-8.172,3.664-13.107
	c0-5.598-1.649-10.212-4.947-13.843c-3.099-3.398-7.313-5.497-12.644-6.296c-4.237-0.64-8.122-0.349-11.662,0.853l-6.078-5.051
	c-2.602-2.251-4.446-3.988-5.535-5.213c0.822-0.752,1.613-1.51,2.336-2.282c4.931-5.264,7.063-10.511,6.396-15.742
	c-0.466-3.398-2.116-6.413-4.947-9.045c-2.657-2.416-5.757-3.946-9.29-4.61c0.263-4.314,0.008-8.446-0.805-12.381
	c-1.147-5.714-3.339-10.266-6.573-13.657c2.691-4.307,4.209-9.112,4.524-14.428c0.133-2.399-0.316-3.981-1.35-4.748
	c-0.744-0.535-1.513-0.521-2.306,0.015c0.182-0.501,0.355-0.994,0.507-1.464c0.566-1.799,1.033-3.881,1.399-6.247
	c1.232-7.363,0.15-11.677-3.249-12.943c-1.732-0.633-3.714-0.3-5.947,1c-2.565,1.466-4.897,3.948-6.996,7.446l-7.796,12.443
	c-1.707,2.573-3.519,5.145-5.423,7.717c-6.969,0.685-12.834,2.946-17.565,6.825c-4.531,3.731-7.696,8.629-9.495,14.692l-2.099,6.596
	c-0.633,1.633-1.233,2.815-1.799,3.548c-2.798,3.598-4.231,6.879-4.297,9.845c-0.067,2.199,0.699,4.448,2.298,6.747
	c3.249,4.605,7.299,8.62,12.131,12.061c-2.385,3.027-3.805,6.152-4.235,9.378c-0.433,3.531,0.383,6.58,2.449,9.145
	c2.669,3.336,6.642,5.516,11.903,6.551c-2.684,2.958-6.92,6.4-12.753,10.34l-13.593,8.845c-4.431,2.999-7.596,6.396-9.495,10.195
	c-2.165,4.297-1.982,7.879,0.55,10.744c2.799,3.165,7.33,4.114,13.593,2.849c2.098-0.42,4.093-1.023,5.993-1.797
	c4.875,1.035,9.377,0.746,13.497-0.901c3.662-1.485,6.309-3.81,7.95-6.967c-0.95,6.687-2.608,13.687-5.001,21.009
	c-2.632,8.162-3.748,15.325-3.348,21.488c0.467,6.863,2.815,11.894,7.046,15.093c0.309,0.234,0.63,0.448,0.95,0.663l-2.299,1.935
	l-4.248,2.449c-4.164,1.898-6.563,4.58-7.196,8.045c-0.6,3.232,0.383,5.781,2.949,7.646c4.498,3.332,10.211,3.398,17.141,0.2
	c7.242-3.395,12.438-9.243,15.601-17.532l0.69-0.059c5.23-0.866,9.861-1.266,13.893-1.199c5.197,0.1,10.095,0.949,14.692,2.549
	c1.333,0.466,2.648,0.86,3.952,1.211c2.212,7.606,5.616,13.629,10.24,18.028c4.53,4.298,9.545,6.479,15.042,6.547
	c2.365,0.033,4.514-0.3,6.446-0.999c2.032-0.7,3.515-1.699,4.448-2.999c1.732-2.365,2.148-4.864,1.249-7.496
	c-0.899-2.665-2.948-4.847-6.147-6.546c-1.799-0.934-3.48-2.016-5.047-3.249c-1.592-1.251-2.837-2.503-3.774-3.754
	c2.401-1.099,4.377-2.629,5.923-4.591c0.751-0.966,1.384-2.022,1.952-3.128c5.465,1.386,10.943,1.438,16.438,0.129
	c6.03-1.466,11.377-4.397,16.041-8.796c11.028-10.428,16.176-26.419,15.442-47.974c-0.466-13.26-0.399-22.821,0.2-28.685
	c0.999-10.095,3.682-18.973,8.045-26.636C185.634,89.065,185.783,87.449,184.851,86.417z"/>
</svg>
