<?xml version="1.0" encoding="utf-8"?>
<!-- Generator: Adobe Illustrator 16.0.0, SVG Export Plug-In . SVG Version: 6.00 Build 0)  -->
<!DOCTYPE svg PUBLIC "-//W3C//DTD SVG 1.1//EN" "http://www.w3.org/Graphics/SVG/1.1/DTD/svg11.dtd">
<svg version="1.1" id="图层_1" xmlns="http://www.w3.org/2000/svg" xmlns:xlink="http://www.w3.org/1999/xlink" x="0px" y="0px"
	 width="231px" height="335px" viewBox="0 0 231 335" enable-background="new 0 0 231 335" xml:space="preserve">
<path d="M227.125,207.129c-1.702-6.81-5.273-15.889-10.715-27.236c-2.336-4.873-4.172-9.129-5.507-12.768
	c-1.735-4.74-2.921-9.229-3.555-13.468c-0.634-4.272-1.285-6.575-1.952-6.909c-0.668-0.3-1.604,1.168-2.805,4.406
	c-2.478,6.658-4.283,14.648-5.426,23.949c-0.958-2.774-2.031-5.454-3.235-8.027c-1.735-3.639-4.089-7.794-7.06-12.467
	c-1.736-2.704-2.887-4.022-3.455-3.956c-0.567,0.1-0.784,1.702-0.65,4.807c0.268,5.59,0.022,11.867-0.704,18.786
	c-0.972-1.55-2.001-3.183-3.101-4.917l-11.862-18.288c2.313-3.248,2.793-7.507,1.397-12.804c-1.429-5.422-4.163-9.476-8.182-12.182
	c-0.018-2.367-0.16-4.35-0.43-5.943c-0.2-1.035-0.584-1.569-1.151-1.602c-0.501-0.033-1.219,0.3-2.153,1.001
	c-2.222,1.75-3.728,3.018-4.54,3.82l-1.519-1.717l-2.652-2.203c-1.436-0.935-2.471-1.269-3.105-1.001
	c-0.566,0.2-0.934,0.951-1.101,2.253l-0.173,3.937l-6.687-4.538c-3.167-2.262-5.451-4.087-6.858-5.479
	c0.087-0.631,0.18-1.266,0.25-1.881c1.201-10.981-0.084-20.094-3.855-27.337c-4.324-8.331-12.55-14.43-24.658-18.308
	c-1.16-2.014-2.447-3.958-3.88-5.825c-5.247-6.781-11.103-11.286-17.563-13.525c-0.375-4.359-1.558-9.559-3.565-15.614
	c-2.402-7.272-4.753-11.16-7.056-11.665c-1.929-7.452-4.016-12.887-6.262-16.273c-2.036-3.038-3.638-4.406-4.807-4.105
	c-1.235,0.333-1.786,2.42-1.652,6.258l0.3,20.778c0.052,9.612-0.027,16.615-0.234,21.035l-1.568,1.696l-2.454,1.802
	c-4.606,3.238-7.777,7.176-9.513,11.816c-1.369,3.605-2.22,8.929-2.553,15.972l-0.301,3.655l-0.801,2.954
	c-1.302,3.605-1.953,6.409-1.953,8.411c0,5.341,2.136,9.947,6.409,13.819c0.777,0.707,1.684,1.415,2.672,2.125
	c-2.033,8.03-1.674,17.056,1.081,27.08c-1.324,1.836-3.75,4.576-7.307,8.246c-3.572,3.681-6.039,5.932-7.439,6.804
	c-1.054-0.179-2.225-0.344-3.526-0.495l-6.411-0.292l-0.599-2.562l-1.151-3.605c-0.467-1.202-0.901-1.836-1.302-1.902
	c-0.4-0.067-1.102,0.333-2.103,1.202c-1.001,0.834-2.236,2.236-3.705,4.206c-0.027,0.037-0.043,0.067-0.069,0.104l-2.334-1.105
	c-1.602-0.734-2.737-1.218-3.405-1.452c-1.669-0.634-2.704-0.734-3.104-0.301c-0.3,0.301-0.334,1.118-0.1,2.454
	c0.2,1.168,0.751,2.97,1.652,5.407l-3.405,0.651c-1.269,0.367-2.186,0.734-2.753,1.102c-0.568,0.367-0.868,0.717-0.901,1.051
	c-0.034,0.267,0.117,0.634,0.451,1.102c0.734,0.968,1.786,1.969,3.154,3.004c1.344,1.014,2.741,1.835,4.186,2.482l5.327,6.83
	c1.458,1.677,2.9,3.167,4.325,4.473c-2.213,4.889-4.456,12.757-6.728,23.615c-2.169,10.447-3.188,17.424-3.054,20.928
	c0.167,4.34,0.785,6.776,1.853,7.311c1.202,0.635,3.421-0.852,6.659-4.456c3.337-3.671,8.628-10.581,15.871-20.728
	c8.315-11.674,13.235-19.706,14.778-24.117l4.998-2.151c-1.204,6.612-3.161,13.659-5.907,21.161
	c-2.136,5.875-3.405,9.597-3.805,11.165c-0.695,2.674-0.824,4.835-0.405,6.502l-5.803,9.069c-3.872,6.475-6.492,11.883-7.86,16.222
	c-2.837,9.112-2.437,17.04,1.202,23.782s9.896,11.164,18.775,13.268c0.894,0.208,1.69,0.379,2.41,0.519
	c0.669,1.083,1.062,1.953,1.145,2.585c0.1,1.303-1.903,2.787-6.008,4.457c-7.343,3.004-12.867,5.541-16.572,7.609
	c-5.407,3.004-7.51,5.574-6.309,7.711c1.202,2.17,5.458,2.887,12.768,2.152c4.339-0.434,9.112-1.335,14.319-2.703
	c4.874-1.269,8.579-2.52,11.115-3.756c3.238-1.602,5.14-3.521,5.708-5.757c0.4-1.536,0.15-3.138-0.751-4.807
	c-1.269-2.304-1.836-3.589-1.702-3.854c0.434-0.769,3.071-0.902,7.911-0.401c12.817,1.335,25.1,4.188,36.849,8.562
	c13.285,4.939,19.293,9.746,18.024,14.42c-1.902,7.076-0.217,14.352,5.057,21.829c2.136,3.004,4.439,5.356,6.909,7.06
	c2.504,1.702,4.573,2.336,6.209,1.902c1.668-0.434,2.938-1.986,3.805-4.656c0.867-2.537,1.219-5.574,1.051-9.112
	c-0.434-8.545-3.188-14.987-8.26-19.326c-1.536-1.302-2.337-3.12-2.404-5.457c-0.1-2.17,0.435-3.806,1.603-4.907
	c1.06-1.007,2.057-1.987,3.024-2.955c20.841,3.705,39.214,0.547,55.104-9.512c15.354-9.713,24.934-23.414,28.738-41.104
	C229.879,227.105,229.662,217.176,227.125,207.129z M158.283,196.664c0.934-3.004,0.851-8.645-0.251-16.922
	c-1.072-7.916-2.627-14.714-4.653-20.425c3.16,5.769,8.222,12.489,15.217,20.175c4.071,4.493,7.757,8.169,11.064,11.044
	c-0.197,1.071-0.384,2.129-0.6,3.225c-2.347,11.731-4.36,19.419-6.044,23.078c-0.157-0.266-0.3-0.535-0.465-0.798
	c-3.103-4.995-7.257-8.952-12.435-11.899C159.612,201.306,159.004,198.807,158.283,196.664z"/>
</svg>
