<?xml version="1.0" encoding="utf-8"?>
<!-- Generator: Adobe Illustrator 16.0.0, SVG Export Plug-In . SVG Version: 6.00 Build 0)  -->
<!DOCTYPE svg PUBLIC "-//W3C//DTD SVG 1.1//EN" "http://www.w3.org/Graphics/SVG/1.1/DTD/svg11.dtd">
<svg version="1.1" id="图层_1" xmlns="http://www.w3.org/2000/svg" xmlns:xlink="http://www.w3.org/1999/xlink" x="0px" y="0px"
	 width="488px" height="349px" viewBox="0 0 488 349" enable-background="new 0 0 488 349" xml:space="preserve">
<path d="M477.643,1.15c-22.105,4.268-51.266,14.854-87.476,31.759c-36.677,17.105-68.986,35.31-96.929,54.616
	c-2.066,1.434-3.633,3.117-4.7,5.051c-1.034,1.867-1.468,3.734-1.302,5.602c0.301,2.801,2.502,5.102,6.604,6.902
	c3.4,1.5,6.568,6.052,9.502,13.654c3.302,8.536,4.952,18.072,4.952,28.608c0,15.504-4.785,29.176-14.354,41.012
	c-4.268,5.269-9.002,9.387-14.203,12.354c-4.907,2.813-9.739,4.29-14.5,4.467c-2.279-10.535-5.276-21.457-9.008-32.774
	c-3.233-9.803-6.367-17.705-9.401-23.707c-3.101-6.168-5.485-9.103-7.152-8.803c-2,0.367-4.018,2.334-6.052,5.902
	c-0.6,1.067-1.834,3.734-3.701,8.002c-4.801-1.334-11.203-1.734-19.205-1.201c-7.402,0.5-13.137,1.534-17.205,3.101l-4.501-7.502
	c-2.067-3-3.884-4.501-5.452-4.501c-1.8,0-4.101,3.701-6.902,11.103c-2.634,7.036-5.285,16.155-7.952,27.358
	c-1.811,7.621-3.351,14.914-4.636,21.898c-3.682-0.037-7.638-1.181-11.869-3.443c-4.501-2.4-8.619-5.734-12.354-10.002
	c-9.002-10.236-13.504-22.674-13.504-37.313c0-7.168,1.384-14.021,4.151-20.556c2.167-5.068,4.468-8.686,6.902-10.853
	c3.301-2.968,5.035-6.402,5.202-10.303c0.133-3.468-0.967-6.852-3.301-10.153c-7.068-10.069-16.955-20.806-29.658-32.209
	C97.733,58.583,84.729,48.514,70.625,39.011c-13.971-9.369-27.041-16.838-39.211-22.406C18.644,10.77,8.558,7.853,1.156,7.853
	c-1.067,0-1.367,0.6-0.9,1.8c0.267,0.7,0.9,1.784,1.9,3.251c25.841,37.144,40.845,72.688,45.013,106.63
	c4.301,35.444-2.718,72.521-21.056,111.231c-0.233,0.467-0.233,0.934,0,1.399c0.233,0.534,0.65,0.853,1.25,0.951
	c10.569,1.934,22.156,7.219,34.76,15.854c19.306,13.236,34.36,31.158,45.163,53.764c0.233,0.468,0.667,0.769,1.3,0.9
	c0.7,0.135,1.25-0.133,1.65-0.8c2.091-3.286,4.567-6.263,7.401-8.953c-0.017,1.431,0.303,2.993,1.001,4.702
	c1.734,4.234,5.318,8.202,10.753,11.902c5.102,3.469,10.803,8.236,17.105,14.305c5.269,5.068,9.636,9.703,13.104,13.904
	c3.067,3.701,6.302,6.252,9.703,7.652c3.368,1.366,6.035,1.232,8.002-0.4c1.567-1.301,1.8-3.9,0.7-7.803
	c-1.034-3.802-3.051-7.951-6.052-12.453l4.151-4.201c1.015-1.066,1.813-1.988,2.405-2.771c9.698,13.135,22.027,19.727,37.006,19.727
	c7.669,0,14.971-2.102,21.906-6.303c7.136-4.328,13.253-10.543,18.36-18.636l2.096,1.58l4.4,3.451
	c-2.834,5.035-4.25,9.086-4.25,12.153c0,2.135,0.5,3.885,1.5,5.252s2.318,2.101,3.951,2.199c3.969,0.201,8.035-3.018,12.203-9.651
	c3.534-5.668,7.151-10.503,10.854-14.505c4.668-5.034,10.387-9.887,17.154-14.555c5.368-3.668,9.187-7.652,11.453-11.953
	c2.034-3.867,2.469-7.201,1.302-10.002c-1.167-2.802-3.585-4.186-7.253-4.151c-4.067,0-8.785,1.852-14.154,5.552
	c-2.6,1.801-6.936,5.9-13.003,12.305l-10.953,11.803c-0.7-0.232-2.368-1.033-5.001-2.4l-3.03-1.555
	c2.867-7.346,4.933-15.408,6.183-24.2c26.273-10.96,51.831-3.95,76.671,21.054c1.7,1.734,2.935,2.4,3.7,2.001
	c0.801-0.366,1.185-1.866,1.15-4.501c-0.2-28.941,7.802-52.466,24.007-70.57c12.104-13.569,27.258-22.856,45.463-27.857l1-0.7
	l0.25-1.2c-2.399-16.005-2.783-32.943-1.149-50.814c1.801-19.539,5.886-38.361,12.254-56.466
	c5.702-16.171,12.82-31.176,21.355-45.013c8.235-13.271,16.806-23.957,25.707-32.059c5.201-4.701,7.72-7.419,7.554-8.152
	C486.995-0.217,483.811-0.017,477.643,1.15z M162.001,312.689l-6.552-7.953c-3.667-4.268-7.152-7.719-10.453-10.353
	c-5.768-4.602-11.12-7.27-16.054-8.002c-0.297-0.043-0.574-0.062-0.86-0.09c11.193-5.948,23.104-5.808,35.737,0.453
	c1.777,6.723,4.091,13.026,6.93,18.919C169.354,306.76,166.444,309.098,162.001,312.689z"/>
</svg>
