<?xml version="1.0" encoding="utf-8"?>
<!-- Generator: Adobe Illustrator 16.0.0, SVG Export Plug-In . SVG Version: 6.00 Build 0)  -->
<!DOCTYPE svg PUBLIC "-//W3C//DTD SVG 1.1//EN" "http://www.w3.org/Graphics/SVG/1.1/DTD/svg11.dtd">
<svg version="1.1" id="图层_1" xmlns="http://www.w3.org/2000/svg" xmlns:xlink="http://www.w3.org/1999/xlink" x="0px" y="0px"
	 width="134px" height="162px" viewBox="0 0 134 162" enable-background="new 0 0 134 162" xml:space="preserve">
<path d="M125.455,52.652c-4.27-4.471-9.775-6.706-16.515-6.706c-6.772,0-12.345,2.552-16.716,7.657
	c-0.375,0.437-0.713,0.885-1.051,1.333c-0.117-0.16-0.234-0.315-0.35-0.481c-3.154-4.515-4.621-10.485-4.404-17.906
	c4.427-3.1,9.497-4.459,15.214-4.064c6.372,0.367,11.927,2.019,16.665,4.955c3.804,2.369,6.123,4.788,6.957,7.256l0.5,0.651
	l0.75-0.4c3.838-4.371,4.889-9.959,3.154-16.766c-1.436-5.605-4.321-10.676-8.658-15.214c-5.139-5.338-11.361-8.742-18.668-10.209
	c-7.641-1.501-14.797-0.517-21.47,2.953c-3.27,1.702-6.322,4.021-9.158,6.957C66.368,7.026,59.511,3.206,51.137,1.204
	C41.161-1.165,31.302-0.114,21.56,4.357C10.583,9.362,3.81,18.37,1.241,31.382c-1.802,9.008-1.585,17.549,0.65,25.624
	c0.2,0.567,0.4,0.851,0.601,0.851c0.233,0.033,0.484-0.2,0.751-0.701c0.967-2.369,2.636-4.688,5.004-6.957
	c4.705-4.504,10.577-6.623,17.616-6.356l14.514,0.751c3.236-0.167,6.556-1.051,9.959-2.653c4.372-2.042,8.806-2.85,13.301-2.45
	l-0.039,2.149c-0.133,2.302-0.467,4.638-1.001,7.007c-1.654,7.395-4.882,13.834-9.657,19.338c-0.302-0.005-0.599-0.02-0.903-0.02
	c-12.578,0-23.605,4.704-33.081,14.113c-9.942,9.81-14.73,21.67-14.363,35.583c0.267,10.343,3.804,19.885,10.61,28.627
	c2.669,3.402,5.488,6.188,8.458,8.357c2.77,2.002,5.038,3.036,6.807,3.103c0.801,0.034,1.952-0.684,3.453-2.151
	c1.018-0.991,1.811-1.894,2.399-2.713c3.287,1.164,6.897,1.963,10.863,2.362c6.721,0.675,13.571,0.096,20.55-1.734
	c2.164,3.086,4.074,4.711,5.724,4.837c1.469,0.134,3.637-0.768,6.506-2.702c3.137-2.136,6.14-4.905,9.009-8.308
	c7.674-9.042,11.527-18.968,11.562-29.777c0.033-13.779-4.488-25.441-13.563-34.982c-7.155-7.489-15.696-12.087-25.611-13.82
	c5.005-1.954,9.058-5.7,12.149-11.254c1.515-2.675,2.616-5.312,3.31-7.911c2.471,4.799,6.213,8.082,11.253,9.813
	c0.119,0.042,0.233,0.067,0.352,0.107c-1.426,3.139-2.104,6.503-2.002,10.103c0.166,6.306,2.485,11.494,6.956,15.564
	c4.438,4.037,9.959,6.057,16.565,6.057c6.139,0,11.377-2.319,15.715-6.957c4.104-4.404,6.155-9.342,6.155-14.814
	C131.812,62.661,129.693,57.056,125.455,52.652z"/>
</svg>
