<?xml version="1.0" encoding="utf-8"?>
<!-- Generator: Adobe Illustrator 16.0.0, SVG Export Plug-In . SVG Version: 6.00 Build 0)  -->
<!DOCTYPE svg PUBLIC "-//W3C//DTD SVG 1.1//EN" "http://www.w3.org/Graphics/SVG/1.1/DTD/svg11.dtd">
<svg version="1.1" id="图层_1" xmlns="http://www.w3.org/2000/svg" xmlns:xlink="http://www.w3.org/1999/xlink" x="0px" y="0px"
	 width="130px" height="177px" viewBox="0 0 130 177" enable-background="new 0 0 130 177" xml:space="preserve">
<path d="M127.305,150.778c-8.824-5.128-14.467-10.571-16.932-16.331c-1.997-4.695-2.197-10.771-0.599-18.23
	c2.53-11.82,3.446-22.158,2.747-31.015c-0.667-8.675-2.961-16.475-6.844-23.421c2.573,0.3,5.225,0.585,7.992,0.847
	c1.631,0.166,2.53,0.066,2.697-0.3c0.133-0.267-0.117-0.966-0.75-2.098c-3.35-6.212-7.819-11.448-13.393-15.722
	c3.84-2.134,7.062-4.152,9.647-6.053c0.999-0.732,1.481-1.365,1.448-1.898c-0.033-0.466-0.516-0.999-1.448-1.598
	c-7.358-4.895-15.216-7.591-23.573-8.091c-8.213-0.535-15.503,1.164-21.871,5.089c0.515-2.308,0.771-4.636,0.744-6.987
	c-0.066-5.494-1.564-10.388-4.494-14.683c-2.93-4.295-6.792-7.275-11.587-8.94c-5.128-1.798-10.622-1.814-16.481-0.05
	c-4.395,1.332-8.224,3.646-11.487,6.942c-3.229,3.296-5.36,7.042-6.393,11.237c-1.598,6.592-0.599,12.319,2.997,17.181
	c1.784,2.417,3.819,4.206,6.09,5.407c-5.021,3.104-9.187,7.189-12.482,12.272c-3.43,5.261-6.01,11.787-7.741,19.578
	c-0.3,1.365-0.283,2.181,0.05,2.447l3.146-0.1c0.998-0.243,2.48-0.708,4.429-1.388c-2.066,7.485-3.002,14.197-2.781,20.117
	c0.3,8.091,2.614,16.531,6.942,25.321c1.165,2.33,1.881,4.861,2.147,7.592c0.233,2.33,0.133,4.461-0.3,6.393
	c-0.766,3.33-2.58,6.759-5.444,10.288c-3.063,3.763-6.526,6.576-10.388,8.44c-2.131,1.065-3.229,1.898-3.296,2.498
	c-0.033,0.599,0.799,1.531,2.498,2.796c5.959,4.495,13.784,7.175,23.473,8.041c2.423,0.223,4.872,0.311,7.344,0.278
	c1.105,1.685,2.682,3.472,4.743,5.365c2.664,2.431,4.662,3.629,5.993,3.596c0.966-0.033,2.231-0.715,3.796-2.047l2.62-2.772
	c4.141,0.408,9.054,0.321,14.76-0.274c4.833-0.491,8.924-1.205,12.292-2.138l2.74,2.088c2.064,1.364,3.646,2.015,4.744,1.948
	c1.365-0.067,3.529-1.815,6.493-5.244c2.654-3.016,4.686-5.921,6.11-8.718c1.349,0.187,2.718,0.34,4.129,0.427
	c8.723,0.499,17.246-0.933,25.57-4.295c1.632-0.666,2.397-1.266,2.297-1.799C129.602,152.343,128.803,151.678,127.305,150.778z
	 M54.846,38.142c-2.054-0.76-4.3-1.255-6.741-1.484c0.87-1.366,1.533-2.897,1.986-4.595c1.099,0.865,2.181,2.064,3.246,3.596
	C53.869,36.425,54.366,37.266,54.846,38.142z"/>
</svg>
