<?xml version="1.0" encoding="utf-8"?>
<!-- Generator: Adobe Illustrator 16.0.0, SVG Export Plug-In . SVG Version: 6.00 Build 0)  -->
<!DOCTYPE svg PUBLIC "-//W3C//DTD SVG 1.1//EN" "http://www.w3.org/Graphics/SVG/1.1/DTD/svg11.dtd">
<svg version="1.1" id="图层_1" xmlns="http://www.w3.org/2000/svg" xmlns:xlink="http://www.w3.org/1999/xlink" x="0px" y="0px"
	 width="190px" height="178px" viewBox="0 0 190 178" enable-background="new 0 0 190 178" xml:space="preserve">
<path d="M189.15,79.223c-0.166-0.233-1.13-0.615-2.893-1.147l-14.565-3.342c0.499-0.831,3.774-4.622,9.827-11.373
	c1.197-1.33,1.745-2.178,1.646-2.544c-0.1-0.399-1.015-0.981-2.743-1.746c-14.233-6.352-27.751-7.349-40.555-2.993
	c-4.023,1.364-7.748,3.192-11.173,5.487l-3.552,2.751c-2.009-0.793-4.229-1.205-6.674-1.205c-2.786,0-5.37,0.802-7.758,2.38
	c-0.73-0.574-1.483-1.126-2.253-1.662c3.065-3.857,5.659-8.133,7.766-12.84c6.452-14.366,6.834-29.746,1.147-46.141
	c-0.332-0.998-0.615-1.513-0.848-1.546c-0.233-0.066-0.815,0.25-1.746,0.948c-2.494,1.896-6.685,5.703-12.57,11.423
	c-0.565-7.083-1.048-11.739-1.447-13.967c-0.166-1.031-0.349-1.58-0.549-1.646c-0.199-0.1-0.914,0.116-2.145,0.648
	c-6.218,2.76-11.423,7.349-15.613,13.768c-3.891,5.919-6.584,12.886-8.081,20.9c-1.264,6.692-1.58,13.396-0.958,20.113
	c-0.864,0.118-1.721,0.26-2.57,0.427c-1.205-2.495-3.013-4.543-5.451-6.125c-1.986-1.276-3.998-2.082-6.034-2.434
	c-0.001-0.003,0-0.007-0.002-0.01c-6.352-10.409-15.347-17.492-26.986-21.25c-3.824-1.23-7.599-1.979-11.323-2.245l-5.038,0.2
	c-0.233,0.232,0.282,3.009,1.546,8.33l2.694,11.024c-1.064-0.865-4.007-2.61-8.829-5.238c-4.922-2.727-7.549-3.99-7.881-3.791
	c-0.399,0.266-0.698,1.58-0.898,3.941c-0.199,2.594-0.149,5.52,0.15,8.779C3.59,55.978,5.835,63.41,9.526,69.396
	c5.308,8.524,13.799,15.285,25.454,20.293c-0.204,0.775-0.394,1.558-0.563,2.354c-0.369,1.753-0.581,3.566-0.646,5.435
	c-12.603,2.79-22.083,9.855-28.435,21.202c-2.095,3.758-3.625,7.615-4.589,11.572c-0.798,3.26-0.998,5.055-0.599,5.387l7.732-0.299
	l8.829-0.648l-4.938,7.881c-2.361,3.658-3.475,5.621-3.342,5.887c15.275,3.488,28.773,1.738,40.505-5.219
	c1.396,1.679,2.926,3.288,4.585,4.83c-2.415,2.396-4.66,5.499-6.731,9.317c-2.128,3.892-2.959,6.152-2.494,6.784
	c0.266,0.365,2.511-0.017,6.734-1.147l1.612-0.425c0.437,2.204,1.408,4.654,2.927,7.358c1.763,3.159,3.309,4.806,4.639,4.938
	c0.831,0.166,1.979-0.299,3.442-1.396c1.391-1.043,2.875-2.506,4.446-4.359l0.768,0.208c0.517,0.73,0.976,1.321,1.371,1.757
	c0.499,0.599,0.865,0.914,1.098,0.947c0.266,0.033,0.765-0.199,1.497-0.698l1.627-1.211c0.034,0.06,0.084,0.104,0.168,0.114
	l5.492-0.235c0.532,1.823,1.361,3.515,2.489,5.073c1.197,1.596,2.261,2.444,3.192,2.544c1.363,0.167,2.893-0.615,4.589-2.345
	c1.67-1.669,3.324-4.106,4.963-7.295c1.771,0.598,3.497,1.123,5.163,1.559c4.323,1.131,6.734,1.414,7.233,0.849
	c0.531-0.632,0.066-2.644-1.396-6.036c-1.519-3.471-3.726-7.468-6.601-11.979c0.856-0.439,1.701-0.908,2.532-1.408
	c3.938,7.544,11.111,12.84,21.526,15.881c3.491,1.064,7,1.746,10.524,2.045c2.928,0.233,4.623,0.199,5.089-0.1
	c0.333-0.232-0.034-2.494-1.098-6.783c-0.997-3.958-1.979-7.283-2.942-9.977l9.078,4.738c5.32,2.826,8.197,4.123,8.629,3.891
	c0.433-0.232,0.766-1.264,0.998-3.092c0.232-2.063,0.199-4.424-0.1-7.084c-0.799-7.35-3.359-14.133-7.682-20.352
	c-3.026-4.356-7.051-8.164-12.072-11.423c-2.019-1.306-4.506-2.64-7.424-4.002c0.855-3.09,1.428-6.124,1.708-9.101
	c5.772,2.672,11.931,3.811,18.486,3.375c7.083-0.465,13.884-2.71,20.401-6.733c4.557-2.761,8.963-6.352,13.219-10.774
	c3.492-3.625,6.035-6.801,7.632-9.528C189.117,80.503,189.417,79.589,189.15,79.223z"/>
</svg>
