<?xml version="1.0" encoding="utf-8"?>
<!-- Generator: Adobe Illustrator 16.0.0, SVG Export Plug-In . SVG Version: 6.00 Build 0)  -->
<!DOCTYPE svg PUBLIC "-//W3C//DTD SVG 1.1//EN" "http://www.w3.org/Graphics/SVG/1.1/DTD/svg11.dtd">
<svg version="1.1" id="图层_1" xmlns="http://www.w3.org/2000/svg" xmlns:xlink="http://www.w3.org/1999/xlink" x="0px" y="0px"
	 width="100px" height="133px" viewBox="0 0 100 133" enable-background="new 0 0 100 133" xml:space="preserve">
<path d="M94.279,74.652c-1.297-2.262-2.045-4.073-2.244-5.436c-0.166-1.264,0-3.242,0.499-5.935
	c1.196-5.984-0.366-10.256-4.688-12.816c-4.255-2.46-8.776-2.044-13.563,1.247c-2.062,1.462-3.508,2.36-4.339,2.693l-4.938,0.449
	c-5.252-0.399-8.543,1.23-9.873,4.887c-1.396,3.823-0.051,8.378,4.039,13.664c1.463,1.828,2.145,3.673,2.045,5.535
	c-0.046,0.82-0.248,1.568-0.592,2.25c-4.647-3.397-7.913-6.409-9.781-9.032c-1.961-2.727-2.876-5.685-2.743-8.876
	c0.1-2.859,1.047-6.15,2.842-9.874c2.095-4.355,3.391-7.763,3.89-10.223c0.731-3.724,0.083-7.53-1.944-11.42
	c-0.656-1.277-1.403-2.45-2.23-3.532c2.195,0.003,4.783-0.397,7.815-1.255c3.956-1.164,7.995-2.909,12.118-5.236
	c3.324-1.862,5.867-3.807,7.63-5.835c1.729-1.961,2.377-3.607,1.944-4.937c-0.398-1.164-1.795-1.612-4.188-1.346
	c-3.956,0.399-7.88-0.05-11.769-1.347c-2.361-0.798-5.885-2.443-10.572-4.937c-5.32-2.66-10.24-3.723-14.762-3.191
	c-3.923,0.465-7.064,2.028-9.425,4.688c-1.813,1.841-2.962,3.932-3.455,6.271c-3.29-1.658-6.808-2.392-10.558-2.182
	c-5.087,0.299-9.076,2.493-11.969,6.583c-2.693,4.089-3.158,7.979-1.396,11.669c0.739,1.506,1.669,2.726,2.77,3.69
	c-2.151,2.83-3.559,5.805-4.216,8.926c-0.499,2.494-0.499,4.987,0,7.48c0.499,2.427,1.43,4.621,2.792,6.583l0.045-0.01
	c-0.452,1.256-0.491,2.392-0.095,3.401c0.897,2.062,3.707,4.023,8.428,5.885c0.653,0.257,1.287,0.486,1.91,0.7
	c0.782,0.329,1.487,0.693,2.127,1.09c-0.811,0.795-1.246,1.809-1.294,3.047c-0.066,1.663,0.565,3.559,1.895,5.686l1.596,2.893
	c0.3,0.729,0.485,1.442,0.578,2.143c-0.663,1.473-1.532,3.066-2.623,4.789c-0.705,1.13-1.351,2.214-1.964,3.274l-0.979,1.313
	l-2.094,2.395c-3.258,3.756-5.137,6.898-5.635,9.424c-0.688,3.572,0.506,7.922,3.564,13.044l-0.572,1.269l-2.194,4.488
	c-1.695,3.392-2.011,5.835-0.947,7.331c0.765,0.997,2.294,1.513,4.588,1.546c2.028,0.033,4.887-0.316,8.577-1.047
	c5.253-1.031,10.456-1.164,15.609-0.399c3.491,0.532,7.547,1.612,12.168,3.241c3.059,1.098,5.436,1.829,7.131,2.195
	c2.261,0.531,3.94,0.564,5.036,0.1c0.799-0.3,1.529-0.848,2.195-1.646l1.496-2.244c1.263-1.861,2.51-2.992,3.74-3.391
	c1.03-0.332,2.726-0.316,5.086,0.05c2.028,0.3,3.574-0.017,4.639-0.948c1.161-1.071,2.053-3.058,2.681-5.943
	c0.086-0.226,0.171-0.459,0.255-0.696c0.443-0.021,0.879-0.095,1.303-0.241c1.695-0.565,2.576-1.68,2.643-3.342
	c0.033-1.063-0.365-2.193-1.196-3.391c-0.633-0.965-1.411-1.771-2.316-2.435c0.308-4.794-0.921-9.225-3.728-13.282
	c0.683-2.111,1.717-3.572,3.102-4.381c1.264-0.73,3.092-0.98,5.485-0.748c5.818,0.532,9.708-0.764,11.669-3.89
	C97.222,82.199,96.873,78.708,94.279,74.652z"/>
</svg>
