<?xml version="1.0" encoding="utf-8"?>
<!-- Generator: Adobe Illustrator 16.0.0, SVG Export Plug-In . SVG Version: 6.00 Build 0)  -->
<!DOCTYPE svg PUBLIC "-//W3C//DTD SVG 1.1//EN" "http://www.w3.org/Graphics/SVG/1.1/DTD/svg11.dtd">
<svg version="1.1" id="图层_1" xmlns="http://www.w3.org/2000/svg" xmlns:xlink="http://www.w3.org/1999/xlink" x="0px" y="0px"
	 width="74px" height="139px" viewBox="0 0 74 139" enable-background="new 0 0 74 139" xml:space="preserve">
<path d="M72.949,114.691c-0.24-1.915-0.967-3.088-2.172-3.528c0.039-1.41-0.253-3.17-0.885-5.289
	c-1.215-4.073-3.308-7.385-6.269-9.94c0.528-1.469,0.95-3.276,1.259-5.441c0.435-3.139,0.217-4.959-0.651-5.461
	c-0.835-0.5-2.521-0.066-5.06,1.303c-0.691,0.36-1.326,0.732-1.93,1.109c-0.028-0.899-0.125-1.761-0.325-2.563
	c-0.233-1.035-0.519-1.619-0.853-1.753c-0.533-0.233-1.336-0.034-2.404,0.601c-0.804,0.478-1.484,1.04-2.043,1.688
	c-0.119-0.99-0.289-2.085-0.512-3.292c-0.735-3.674-1.637-5.627-2.706-5.861c-0.901-0.233-2.138,0.518-3.708,2.255
	c-1.209,1.298-2.17,2.65-2.91,4.053c-0.93-1.149-1.433-2.493-1.508-4.031c0.131-0.501,0.295-0.965,0.48-1.404
	c0.501-0.754,1.033-1.463,1.633-2.074c0.969-1.002,2.739-2.354,5.312-4.059c4.309-2.839,7.231-5.11,8.768-6.813
	c3.173-3.541,4.626-7.732,4.358-12.576c-0.133-2.572-0.935-5.161-2.404-7.766c-1.789-3.162-4.427-6.107-7.895-8.841
	c1.935-2.548,3.551-5.791,4.838-9.747c1.703-5.11,2.139-9.669,1.303-13.678c-0.835-4.108-2.789-6.864-5.861-8.267
	c-2.78-1.263-5.424-1.029-7.935,0.665c-1.778-2.597-4.276-3.89-7.497-3.871c-2.709,0-4.953,0.96-6.737,2.866
	c-0.634-0.243-1.342-0.255-2.131-0.01c-0.692,0.18-1.254,0.47-1.691,0.866c-1.809-1.224-3.88-1.622-6.226-1.167
	c-1.89,0.368-3.441,1.197-4.671,2.463C9.028,5.611,6.427,8.999,6.114,15.29C5.82,21.722,7.99,28.042,12.611,34.25
	c-4.707,3.373-7.622,7.401-8.702,12.103c-1.069,4.743-0.25,10.054,2.455,15.933c1.203,2.605,2.271,6.33,3.207,11.172
	c1.102,5.646,1.252,9.753,0.451,12.325c-0.4,1.236-1.135,2.705-2.204,4.408l-2.806,4.159c-2.572,3.708-4.092,6.38-4.56,8.017
	c-0.671,2.246-0.539,4.939,0.396,8.078c-0.224,2.646,0.292,5.347,1.518,8.102l-0.511,1.807c-0.768,2.471-1.169,4.408-1.202,5.812
	c-0.034,2.305,0.802,3.724,2.505,4.259l4.459,0.4l4.81-0.551c4.309-0.435,7.715-0.468,10.221-0.101
	c1.637,0.233,3.34,0.835,5.11,1.804l4.509,2.855c4.075,2.672,7.516,3.941,10.321,3.809c2.839-0.168,5.494-1.771,7.966-4.811
	l2.354-2.905c1.036-1.103,2.172-1.904,3.407-2.405l2.305-0.351l2.405,0.15c2.939,0.134,4.91-0.101,5.912-0.701
	c1.849-1.147,2.942-3.834,3.301-8.023c0.447-0.131,0.9-0.339,1.358-0.645C72.732,118.182,73.184,116.763,72.949,114.691z
	 M52.178,122.503c-0.37,0.006-0.751-0.071-1.144-0.226C51.401,122.377,51.779,122.457,52.178,122.503z M25.359,14.434
	c0.001-0.006,0.002-0.013,0.003-0.019l0.041-0.027c0.075-0.053,0.16-0.098,0.237-0.149C25.548,14.306,25.447,14.365,25.359,14.434z
	 M11.595,64.484l-0.803-0.453c0.013-0.028,0.027-0.055,0.04-0.082C11.072,64.129,11.321,64.308,11.595,64.484z M50.805,67.503
	c0.088-0.038,0.172-0.08,0.259-0.119c-0.03,0.023-0.064,0.047-0.095,0.071C50.914,67.471,50.859,67.486,50.805,67.503z
	 M55.723,16.518c-0.055-0.05-0.108-0.1-0.168-0.148c0.059,0.04,0.114,0.081,0.17,0.122C55.725,16.5,55.724,16.509,55.723,16.518z
	 M39.894,81.426l-0.052-0.05c0.002-0.027,0.004-0.055,0.006-0.082C39.862,81.339,39.878,81.382,39.894,81.426z"/>
</svg>
