<?xml version="1.0" encoding="utf-8"?>
<!-- Generator: Adobe Illustrator 16.0.0, SVG Export Plug-In . SVG Version: 6.00 Build 0)  -->
<!DOCTYPE svg PUBLIC "-//W3C//DTD SVG 1.1//EN" "http://www.w3.org/Graphics/SVG/1.1/DTD/svg11.dtd">
<svg version="1.1" id="图层_1" xmlns="http://www.w3.org/2000/svg" xmlns:xlink="http://www.w3.org/1999/xlink" x="0px" y="0px"
	 width="203px" height="276px" viewBox="0 0 203 276" enable-background="new 0 0 203 276" xml:space="preserve">
<path d="M201.801,204.066c0.232-2.332-0.351-4.547-1.75-6.646c-1.499-2.291-3.728-3.939-6.668-4.958
	c-0.132-0.567-0.271-1.156-0.428-1.788c-0.829-3.372-1.694-6.2-2.597-8.494c1.222-0.916,2.27-1.939,3.096-3.101
	c1.333-1.899,1.866-3.715,1.6-5.447c-0.333-2.198-1.633-4.081-3.898-5.647c-2.231-1.532-5.048-2.465-8.446-2.799l-1.948-3.598
	c-2.299-4.103-4.292-7.43-5.98-9.982c0.696-1.989,0.83-3.713,0.383-5.16c-0.6-1.999-2.249-3.398-4.947-4.197
	c-1.732-0.5-2.849-0.967-3.349-1.4c-0.933-0.799-1.299-2.082-1.1-3.848c0.533-4.831,0.483-8.679-0.149-11.544
	c-0.866-3.865-2.899-6.847-6.097-8.945c-4.598-2.999-11.045-2.449-19.341,1.649c-1.433,0.667-2.683,0.883-3.749,0.65
	c-1.065-0.267-2.031-1.016-2.898-2.249c-1.732-2.432-3.931-3.548-6.596-3.348c-2.563,0.189-5.444,1.596-8.638,4.188
	c-0.611-2.726-1.722-4.635-3.356-5.688c-2.199-1.433-4.965-1.433-8.297,0c-2.665,1.133-5.53,3.082-8.595,5.847
	c-0.06,0.054-0.116,0.1-0.175,0.152c-6.612-5.366-10.042-10.382-10.27-15.045c-0.167-3.532,1.866-9.396,6.097-17.591
	c3.065-5.464,5.297-9.795,6.696-12.994c2.409-5.461,3.739-10.704,4.011-15.731c0.479-0.234,0.958-0.484,1.437-0.761
	c4.83-2.798,9.795-7.913,14.893-15.342c3.432-5.031,7.146-9.079,11.145-12.144c4.331-3.398,9.695-6.213,16.092-8.446
	c3.432-1.199,4.98-2.582,4.648-4.148c-0.367-1.599-2.467-2.232-6.297-1.899l-15.243,0.649c-3.432-0.167-7.597-0.833-12.493-1.999
	c-13.094-3.065-24.189-1.2-33.284,5.597c-1.085,0.809-2.08,1.661-3.002,2.548c-2.25-0.879-4.594-1.57-7.037-2.061
	c1.909-4.646,6.515-9.222,13.837-13.73c2.599-1.566,3.082-2.882,1.45-3.948c-1.666-1.033-4.298-0.799-7.896,0.7
	c-4.998,2.099-9.628,3.432-13.893,3.998l-17.491,0.5c-6.63-0.1-12.361,1.199-17.191,3.898c-3.499,1.966-6.147,4.381-7.946,7.247
	c-1.766,2.832-2.782,5.947-3.048,9.345c-0.27,3.208,0.236,5.968,1.505,8.286c-3.385,4.158-5.325,8.725-5.803,13.704
	c-0.566,5.63,0.316,11.244,2.648,16.842c2.132,5.064,5.681,10.562,10.645,16.492c5.797,6.896,8.512,15.342,8.146,25.337
	c-0.373,9.596-3.6,19.496-9.674,29.699c-2.805,3.072-5.463,6.101-7.967,9.082c-7.096,8.429-11.544,14.858-13.343,19.29
	c-2.933,7.246-2.893,13.534,0.104,18.868c0.659,3.021,1.785,6.785,3.394,11.317c0.433,1.166,0.617,2.133,0.55,2.898
	c-0.1,0.967-0.55,1.949-1.349,2.948c-4.298,5.298-7.03,8.779-8.196,10.445c-3.065,4.464-4.264,7.597-3.598,9.396
	c1,2.632,3.432,4.598,7.296,5.896c2.232,0.733,5.964,1.433,11.195,2.1c4.429,0.554,7.507,1.196,9.235,1.928l-1.489,7.168
	c-0.5,2.266-0.533,4.447-0.1,6.547c0.433,2.098,1.266,3.814,2.499,5.146c1.733,1.833,4.032,3.099,6.897,3.799
	c3.165,0.732,6.613,0.699,10.345-0.101c10.595-2.332,18.141-3.081,22.639-2.249c5.431,1.033,10.878,4.781,16.342,11.244
	c5.63,6.664,11.96,10.429,18.99,11.295c6.197,0.767,11.512-0.717,15.942-4.447c9.429-7.896,16.542-13.211,21.339-15.942
	c10.262-5.831,20.758-8.446,31.485-7.847l15.093-0.6c6.163-1.032,10.095-2.981,11.794-5.847c1.032-1.732,1.499-3.415,1.399-5.048
	c-0.1-1.832-0.9-3.765-2.398-5.797c-2.666-3.598-4.248-6.03-4.748-7.297c-0.533-1.365-0.5-2.932,0.1-4.697
	c0.461-1.436,0.678-2.826,0.676-4.174c2.012-0.376,3.678-1.271,4.972-2.723C200.918,207.849,201.634,206.1,201.801,204.066z"/>
</svg>
