<?xml version="1.0" encoding="utf-8"?>
<!-- Generator: Adobe Illustrator 16.0.0, SVG Export Plug-In . SVG Version: 6.00 Build 0)  -->
<!DOCTYPE svg PUBLIC "-//W3C//DTD SVG 1.1//EN" "http://www.w3.org/Graphics/SVG/1.1/DTD/svg11.dtd">
<svg version="1.1" id="图层_1" xmlns="http://www.w3.org/2000/svg" xmlns:xlink="http://www.w3.org/1999/xlink" x="0px" y="0px"
	 width="217px" height="278px" viewBox="0 0 217 278" enable-background="new 0 0 217 278" xml:space="preserve">
<path d="M209.892,241.818c-4.237-3.402-7.456-6.355-9.659-8.857c-1.608-1.848-3.176-4.118-4.705-6.765
	c1.254-0.409,2.338-1.124,3.254-2.144c2.068-2.303,2.469-4.904,1.201-7.807c-1.275-2.925-3.814-4.703-7.585-5.365
	c-1.18-6.445-2.652-12.071-4.426-16.855c-1.574-4.296-3.545-8.374-5.893-12.246c1.625-1.658,3.063-3.654,4.292-6.02
	c1.501-2.937,2.318-5.739,2.451-8.408c0.167-3.637-1.25-6.956-4.254-9.959c-3.202-3.137-6.822-4.404-10.859-3.803
	c-1.969,0.267-3.938,1.101-5.905,2.502c-1.786,1.302-3.442,2.994-4.981,5.038c-2.517-1.652-5.109-3.049-7.779-4.188
	c-2.515-1.083-5.229-1.952-8.102-2.653c1.423-6.799,0.997-12.079-1.308-15.813c-1.868-3.069-4.987-5.021-9.358-5.855
	c-4.338-0.834-7.957-0.15-10.859,2.052c-3.691,2.792-5.761,7.521-6.24,14.143c-3.127-0.818-5.609-1.729-7.422-2.733
	c-2.776-1.557-5.083-3.798-6.931-6.707c-0.293-0.711-0.598-1.439-0.927-2.201l-2.302-5.705c-0.49-1.542-0.787-3.094-0.899-4.654
	c0.25-5.556,1.574-9.937,4.001-13.112c1.236-1.667,4.559-4.75,9.956-9.241c7.09-0.201,13.022-1.168,17.77-2.92
	c4.805-1.768,7.123-3.803,6.957-6.105c-0.034-0.901-0.651-1.735-1.853-2.502c-0.94-0.57-2.192-1.05-3.718-1.449
	c5.084-5.761,7.813-12.499,8.172-20.22c0.234-4.816-0.389-9.402-1.866-13.76c2.346-4.925,3.656-10.312,3.918-16.167
	c0.3-7.207-1.218-13.545-4.554-19.017c-0.9-1.468-1.852-2.619-2.853-3.453c-1.067-0.868-2.035-1.251-2.903-1.151
	c-1.668,0.133-3.252,2.218-4.754,6.255c-1.034,2.869-2.152,5.205-3.354,7.006c-1.105,1.672-2.379,3.034-3.805,4.119
	c-4.176-2.643-8.77-4.631-13.811-5.92c-7.097-1.79-14.09-2.068-20.98-0.872c-2.845-1.05-5.427-1.445-7.746-1.18
	c-2.044,0.199-3.784,0.911-5.225,2.125c-0.926-1.508-1.645-2.904-2.132-4.176c-1.401-3.77-1.935-8.825-1.602-15.164
	c0.267-5.405-0.517-8.591-2.352-9.559c-2.135-1.101-5.672,0.333-10.609,4.304C50.448,10.16,45.61,17.817,42.841,27.626
	c-2.836,9.942-2.619,18.984,0.651,27.125c2.436,6.005,6.306,10.443,11.61,13.312c0.489,0.267,0.994,0.502,1.499,0.737
	c0.006,0.636,0.052,1.429,0.14,2.389c-1.83-0.954-3.66-1.743-5.493-2.325c-5.805-1.869-9.358-1.401-10.66,1.401
	c-1.334,2.836,0.284,6.706,4.854,11.611c3.227,3.488,6.983,6.272,11.25,8.379c-0.984,9.244-3.894,18.295-8.749,27.153
	c-3.836,6.939-9.809,15.264-17.916,24.972c-0.088,0.107-0.169,0.209-0.256,0.316c-3.731,3.831-6.622,7.183-8.651,10.043
	c-5.057,7.133-8.083,15.384-9.094,24.743c-2.468,6.537-3.862,13.551-4.168,21.048c-0.3,7.474,0.934,14.563,3.704,21.27
	c1.11,2.674,2.346,5.043,3.698,7.131c-0.348,1.888-1.507,4.261-3.498,7.132c-2.002,2.903-4.404,5.739-7.207,8.508
	c-1.935,1.935-3.236,3.854-3.904,5.755c-0.667,1.836-0.684,3.537-0.05,5.105c0.967,2.301,3.053,4.119,6.255,5.454
	c3.303,1.335,7.457,2.002,12.461,2.002c3.837,0,8.341-0.567,13.512-1.702c3.636-0.767,8.074-1.951,13.312-3.553
	c5.038-1.501,9.075-2.553,12.111-3.152l8.451-0.586c1.708,0.876,3.349,1.927,4.911,3.188c2.269,1.836,5.488,5.339,9.659,10.51
	l2.903,3.453c3.67,4.104,7.957,6.406,12.861,6.906c5.171,0.5,10.593-1.051,16.265-4.654c2.303-1.435,5.789-4.02,10.459-7.757
	l5.305-4.045c4.666,1.212,8.758,2.492,12.262,3.845c10.977,4.17,20.234,6.673,27.775,7.507c9.541,1.034,15.264-0.768,17.165-5.405
	c0.567-1.434,0.101-3.553-1.401-6.355c-0.508-0.941-0.907-1.802-1.22-2.599l4.873-0.354l5.905,0.752l6.807,0.65
	c2.869,0.166,5.471,0.133,7.807-0.101c4.004-0.434,6.223-2.235,6.656-5.405C216.131,248.658,214.195,245.255,209.892,241.818z"/>
</svg>
