<?xml version="1.0" encoding="utf-8"?>
<!-- Generator: Adobe Illustrator 16.0.0, SVG Export Plug-In . SVG Version: 6.00 Build 0)  -->
<!DOCTYPE svg PUBLIC "-//W3C//DTD SVG 1.1//EN" "http://www.w3.org/Graphics/SVG/1.1/DTD/svg11.dtd">
<svg version="1.1" id="图层_1" xmlns="http://www.w3.org/2000/svg" xmlns:xlink="http://www.w3.org/1999/xlink" x="0px" y="0px"
	 width="423px" height="312px" viewBox="0 0 423 312" enable-background="new 0 0 423 312" xml:space="preserve">
<path d="M419.45,60.822c-0.899-3.899-4.716-6.682-11.447-8.348c-8.165-1.966-16.246-1.5-24.244,1.4
	c-5.996,2.176-11.344,5.526-16.06,10.018c-1.399-1.673-2.966-3.261-4.692-4.769c1.88-1.786,3.667-3.847,5.355-6.199
	c5.232-7.332,8.265-15.363,9.098-24.094c0.7-7.332-1.017-12.064-5.148-14.197c-3.999-2.066-9.048-1.15-15.146,2.749
	c-6.398,4.132-11.464,9.531-15.196,16.196c-2.259,4.02-3.915,8.344-5.007,12.953c-4.325-0.714-8.724-0.79-13.196-0.222
	c0.553-4.156,0.608-8.382,0.157-12.681c-0.933-8.865-3.732-16.263-8.398-22.195c-3.599-4.532-7.364-6.532-11.297-5.999
	c-3.732,0.533-6.665,3.183-8.798,7.948c-3.033,6.865-3.933,14.98-2.699,24.344c0.999,7.561,3.233,14.275,6.678,20.161
	c-1.419,1.634-2.647,3.427-3.679,5.383c-4.533,8.989-6.072,17.796-4.646,26.422c-3.46-1.682-7.355-1.827-11.701-0.378
	c-5.5,1.791-10.442,5.786-14.839,11.935c-2.002-4.148-4.702-8.144-8.104-11.985c-7.979-8.987-17.743-15.119-29.285-18.411
	c6.792-11.064,15.389-21.248,25.836-30.527c11.23-9.998,23.827-18.313,37.791-24.944c2.133-1,3.166-2.066,3.099-3.199
	c-0.101-1.133-1.3-1.933-3.599-2.399c-6.599-1.3-13.714-0.816-21.346,1.45c-7.631,2.299-14.83,6.082-21.595,11.347
	c-7.231,5.632-13.363,12.397-18.396,20.295c-3.494,5.491-6.284,11.306-8.402,17.43c-0.839-8.818-3.438-17.512-7.844-26.078
	c-4.799-9.398-10.964-17.146-18.496-23.245c-5.199-4.199-10.631-7.182-16.296-8.948c-5.632-1.766-11.097-2.199-16.396-1.3
	c-1.833,0.3-2.866,1-3.099,2.1c-0.233,1.167,0.616,2.183,2.549,3.049c11.164,4.932,21.995,14.097,32.492,27.494
	c9.929,12.688,16.12,24.771,18.591,36.251c-14.394,0.062-26.776,5-37.137,14.836c-2.196,2.083-4.153,4.244-5.895,6.474
	c-2.445-6.739-6.168-11.627-11.202-14.622c-4.932-2.933-9.797-3.432-14.596-1.5c-0.093,0.037-0.181,0.082-0.272,0.121
	c-0.018-3.131-0.823-5.657-2.427-7.569c-2.866-3.399-7.631-3.999-14.296-1.799c-8.365,2.766-15.463,7.531-21.295,14.296
	c-3.609,4.168-6.199,8.534-7.786,13.094c-2.501-1.228-5.15-2.224-7.955-2.974c1.845-5.442,2.814-11.279,2.893-17.518
	c0.133-9.964-1.933-18.529-6.199-25.694c-2.899-4.898-6.248-7.298-10.047-7.198c-3.699,0.1-7.082,2.466-10.147,7.099
	c-4.799,7.231-7.265,15.779-7.398,25.644c-0.101,6.143,0.717,12.163,2.441,18.061c-3.685,1.184-7.221,2.86-10.612,5.016
	c-2.361-4.979-5.486-9.352-9.425-13.079c-6.199-5.899-13.947-9.881-23.245-11.947c-7.098-1.566-12.147-0.883-15.146,2.049
	c-3.066,2.966-3.149,7.532-0.25,13.697c3.699,7.865,9.181,14.53,16.446,19.995c4.739,3.549,9.636,6.109,14.69,7.688
	c-1.792,3.979-2.693,8.164-2.693,12.557c0,9.193,2.537,17.119,7.592,23.784c-3.822,0.298-6.84,2.442-9.042,6.458
	c-2.566,4.633-2.433,9.298,0.4,13.996c1.267,2.1,3.183,3.65,5.749,4.649c2.294,0.863,4.775,1.15,7.442,0.87
	c-0.036,0.5-0.056,1.007-0.043,1.529c0.067,2.833,0.867,5.349,2.399,7.549c1.667,2.466,3.999,4.099,6.999,4.898
	c2.731,0.743,5.252,0.761,7.579,0.105c-0.37,12.36,1.274,23.877,4.968,34.536c3.766,10.765,9.381,20.028,16.846,27.794
	c6.965,7.197,15.33,12.713,25.094,16.546c9.731,3.799,20.246,5.698,31.542,5.698c12.964,0,24.661-1.949,35.092-5.849
	c15.215-5.722,26.601-15.256,34.167-28.596c7.929,4.137,13.441,8.337,16.522,12.6c3.365,4.565,4.215,9.132,2.549,13.696
	l-3.799,9.948l-2.02,4.884c-2.053,0.49-3.765,1.606-5.129,3.364c-1.399,1.866-2.216,4.099-2.449,6.698
	c-0.5,6.032,1.799,10.914,6.898,14.646c3.999,2.933,8.564,4.316,13.697,4.149c3.338-0.096,5.746-0.695,7.259-1.78
	c2.577,0.337,4.825-0.229,6.737-1.719c2.232-1.733,3.282-4.066,3.148-6.998c-0.1-2.566-1.315-5-3.648-7.299
	c-1.266-1.3-3.633-3.082-7.098-5.349c-2-1.3-3.483-2.35-4.449-3.149c-0.951-0.774-1.653-1.492-2.149-2.164
	c2.25-3.448,4.072-7.338,5.448-11.683c1.533-4.766,2.217-8.864,2.049-12.298c-0.055-0.87-0.201-1.868-0.428-2.979
	c13.426,6.56,27.182,8.995,41.269,7.278c14.431-1.733,27.96-7.665,40.591-17.796c14.229-11.397,23.994-26.844,29.293-46.339
	c4.774-17.561,5.302-35.588,1.604-54.08c0.168,0.06,0.323,0.137,0.495,0.192c4.565,1.4,8.814,0.333,12.747-3.199
	c2.832-2.566,3.815-6.365,2.949-11.397c-0.099-0.571-0.221-1.116-0.354-1.645c1.832-0.724,3.319-1.889,4.453-3.504
	c1.267-1.8,2-3.966,2.199-6.499c0.2-2.266-0.149-4.399-1.049-6.398c-0.869-1.982-2.166-3.502-3.876-4.578
	c0.211-0.371,0.426-0.738,0.626-1.121c3.602-6.88,5.244-13.633,4.952-20.262c4.821,0.513,9.968,0.105,15.443-1.233
	c8.564-2.133,15.847-5.949,21.845-11.448C418.334,68.537,420.283,64.521,419.45,60.822z M77.237,187.018
	c0.838,1.017,1.828,1.93,2.993,2.725c4.366,2.999,9.381,3.315,15.046,0.949c5.132-2.166,7.432-6.349,6.898-12.547
	c-0.082-0.896-0.255-1.745-0.47-2.572c3.042,0.914,5.998,0.616,8.868-0.927c2.899-1.566,4.849-3.866,5.849-6.898
	c0.966-2.999,0.867-5.899-0.3-8.698c-1.327-3.075-3.797-5.352-7.387-6.844c7.019-7.055,10.537-15.469,10.537-25.248
	c0-5.095-0.975-9.859-2.914-14.296c4.972-2.581,9.365-5.742,13.162-9.498c0.182-0.178,0.344-0.366,0.522-0.545
	c-0.101,4.904,0.409,10.029,1.577,15.392c2.167,9.897,7.332,17.212,15.497,21.945c7.306,4.262,14.103,5.047,20.392,2.375
	c1.141,1.477,2.382,2.936,3.752,4.373c3.512,3.669,7.429,6.778,11.742,9.34c-3.242,2.569-6.375,5.579-9.392,9.056
	c-6.099,6.932-9.814,13.613-11.147,20.045c-0.466,2.232,0.083,3.866,1.65,4.898c1.566,1.033,3.599,1.15,6.098,0.351
	c4.299-1.399,8.631-3.249,12.997-5.549c4.378-2.311,7.873-4.621,10.503-6.933c-0.826,3.222-1.86,7.146-3.105,11.781
	c-2.049,8.35-3.345,15.105-3.896,20.289c-1.87-0.355-3.24,0.026-4.102,1.156c-0.753,1.013-0.737,2.18,0.028,3.496
	c-2.06-0.548-4.182-0.921-6.376-1.097c-4.299-0.366-7.398,0-9.298,1.1c-4.752,2.753-8.906,10.853-12.466,24.273
	c-5.108-2.67-10.15-3.966-15.127-3.878c-5.632,0.066-9.148,1.832-10.548,5.299c-0.415,1.052-0.541,2.107-0.41,3.165
	c-1.532,1.389-2.123,3.442-1.739,6.183c0.5,3.565,2.6,6.198,6.298,7.898c4.436,2.035,8.333,3.542,11.707,4.535
	c-2.584,0.117-5.219,0.108-7.907-0.037c-20.329-1.133-35.825-8.298-46.489-21.494c-5.732-7.065-9.731-15.197-11.998-24.395
	C76.024,206.964,75.688,197.237,77.237,187.018z M168.56,248.027l-1.3-2.799c-0.4-1.232-0.383-2.332,0.05-3.299
	c3.432-7.531,5.699-11.48,6.798-11.848c0.009-0.003,0.02-0.005,0.029-0.008c-0.247,2.461,1.589,4.631,5.52,6.506
	c4.277,2.016,8.541,2.233,12.789,0.702c-4.392,6.832-10.734,12.499-19.037,16.994c-1.162,0.633-2.342,1.22-3.534,1.776
	C170.363,253.671,169.933,250.999,168.56,248.027z M249.291,232.582c3.865-3.633,5.215-7.315,4.049-11.048
	c-0.867-2.699-3.083-4.315-6.648-4.849c-1.87-0.262-3.646-0.157-5.332,0.295c0.642-0.938,1.083-1.964,1.283-3.094
	c0.266-1.566,0.083-2.783-0.551-3.65c-0.467-0.666-1.25-1.032-2.35-1.1c-1.04-0.051-2.14,0.213-3.296,0.78
	c-1.438-5.474-4.048-11.131-7.851-16.976l-8.099-12.447c-0.581-0.931-1.122-1.82-1.644-2.69c5.943,5.245,12.023,9.598,18.24,13.038
	c6.098,3.398,10.83,5.165,14.196,5.299c5.198,0.199,12.147-0.967,20.845-3.5c9.765-2.865,16.963-6.281,21.596-10.247
	c1.499-1.267,2.115-2.449,1.85-3.55c-0.268-1.133-1.483-1.898-3.649-2.299c-4.599-0.833-11.314-0.983-20.146-0.449
	c-8.365,0.499-16.613,1.466-24.744,2.898c-5.037-1.179-15.074-5.876-30.083-14.069c13.506,0.36,24.807-2.521,33.882-8.675
	c1.839-1.252,3.524-2.614,5.082-4.067c6.357,3.703,13.178,4.25,20.463,1.618c6.932-2.533,12.529-7.115,16.795-13.747
	c1.616-2.518,2.983-5.091,4.119-7.717c0.876,0.823,1.852,1.53,2.93,2.119c3.326,1.757,7.325,2.212,11.981,1.399
	c0.146,0.901,0.363,1.833,0.665,2.8c1.867,5.865,5.383,9.131,10.548,9.798c3.94,0.51,7.418-0.38,10.441-2.643
	c5.383,14.107,6.54,29.099,3.455,44.982c-3.499,17.764-11.764,32.31-24.794,43.641c-10.764,9.364-23.027,14.513-36.791,15.445
	c-14.583,1.028-27.443-3.191-38.59-12.629C241.665,237.459,245.717,235.915,249.291,232.582z"/>
</svg>
