<?xml version="1.0" encoding="utf-8"?>
<!-- Generator: Adobe Illustrator 16.0.0, SVG Export Plug-In . SVG Version: 6.00 Build 0)  -->
<!DOCTYPE svg PUBLIC "-//W3C//DTD SVG 1.1//EN" "http://www.w3.org/Graphics/SVG/1.1/DTD/svg11.dtd">
<svg version="1.1" id="图层_1" xmlns="http://www.w3.org/2000/svg" xmlns:xlink="http://www.w3.org/1999/xlink" x="0px" y="0px"
	 width="153px" height="255px" viewBox="0 0 153 255" enable-background="new 0 0 153 255" xml:space="preserve">
<path d="M150.398,214.683c-1.734-2.235-3.969-2.651-6.705-1.251l-4.502,2.102c-1.936,0.733-4.086,1.25-6.455,1.551
	c-11.94-10.373-22.98-23.565-33.121-39.576c-7.333-11.614-13.098-23.133-17.307-34.559c-0.029-1.485-0.126-3.209-0.305-5.217
	c-0.234-3.002-0.518-5.221-0.851-6.654l5.253,0.6l5.154,1.051c1.033,0.2,1.584,0,1.65-0.6c0.066-0.501-0.217-1.051-0.851-1.651
	c-1.868-1.835-4.386-3.853-7.555-6.054c-2.924-1.987-5.719-3.64-8.4-4.999c10.742-3.315,19.166-8.701,25.261-16.165
	c6.505-7.972,9.54-16.995,9.106-27.068c-0.634-15.31-7.288-27.334-19.963-36.074c-2.165-1.5-4.389-2.836-6.667-4.025
	c0.628-2.143,0.754-4.385,0.363-6.731c3.902-1.534,7.421-3.953,10.557-7.255c3.168-3.402,5.17-6.921,6.004-10.557
	c0.166-0.701,0.033-1.167-0.4-1.401c-0.434-0.267-0.885-0.2-1.352,0.2c-2.768,2.335-5.036,4.086-6.804,5.253
	c-2.235,1.501-4.253,2.452-6.054,2.852c0.467-2.635,0.083-5.204-1.151-7.705c-1.301-2.735-3.353-4.703-6.153-5.904
	c-2.536-1.101-5.087-1.368-7.656-0.8c-2.702,0.567-4.87,1.901-6.504,4.002c-1.001-2.969-2.985-5.17-5.954-6.604
	c-2.702-1.301-5.487-1.718-8.355-1.25c-2.635,0.434-4.853,1.551-6.654,3.352c-2.135,2.168-3.152,4.92-3.052,8.255
	c-4.403-1.768-8.639-1.368-12.708,1.201c-4.136,2.568-6.371,6.371-6.705,11.408c-0.267,4.136,1.518,7.438,5.354,9.906
	c0.397,0.26,0.795,0.488,1.193,0.705c-4.303,2.054-8.291,4.646-11.95,7.8C5.554,51.959,0.167,63.634,0,77.843
	c-0.066,6.438,1.435,12.592,4.503,18.462c2.969,5.704,7.188,10.69,12.658,14.959c8.512,6.618,18.202,10.436,29.058,11.487
	c-0.438,1.712-0.8,3.466-1.08,5.265c-3.904,6.561-6.885,14.242-8.916,23.074c-2.335,10.34-2.985,20.681-1.951,31.021
	c2.568,25.416,14.292,44.896,35.173,58.438c1.034,0.9,1.935,2.235,2.702,4.003l1.601,5.153c0.768,2.969,2.335,4.503,4.703,4.604
	c2.135,0.066,3.786-0.867,4.953-2.803c0.567-0.934,0.867-2.018,0.9-3.252c0.033-1.301-0.232-2.484-0.8-3.552
	c2.201-1.101,3.636-2.552,4.303-4.353c0.5-1.401,0.517-2.886,0.05-4.453c-0.6-1.734-1.951-2.818-4.053-3.252
	c-2.135-0.434-3.936,0.1-5.403,1.601l-3.552,3.353c-1.468,1-3.069,1.434-4.803,1.301c-19.513-13.009-30.804-31.037-33.872-54.086
	c-1.301-9.673-0.984-19.563,0.951-29.669c1.586-8.257,4.094-15.969,7.519-23.137c-0.101,1.142-0.172,2.299-0.214,3.474
	c-0.2,5.404,0.333,9.906,1.601,13.509c0.3,0.768,0.684,1.151,1.15,1.151c0.467,0,0.851-0.334,1.151-1.001
	c1.634-4.003,3.085-7.055,4.353-9.156c1.834,3.103,3.235,5.337,4.203,6.704c1.601,2.302,3.219,4.203,4.853,5.704
	c1.001,0.9,1.635,0.751,1.901-0.45c1.167-5.737,2.568-9.973,4.203-12.709c5.504,2.035,9.69,4.236,12.558,6.605
	c0.554,0.455,0.993,0.588,1.325,0.409c3.927,10.212,9.318,20.748,16.187,31.611c10.54,16.711,21.848,30.304,33.922,40.776
	c0.968,1.535,1.668,3.02,2.102,4.453c0.4,1.367,0.634,2.902,0.701,4.604c0.066,2.001,0.75,3.686,2.051,5.053
	c1.201,1.268,2.585,1.885,4.152,1.852c2.035-0.033,3.619-1.117,4.754-3.252c1.1-2.135,1.084-4.104-0.051-5.904
	c1.502,0,2.702-0.283,3.603-0.851c0.935-0.601,1.668-1.567,2.202-2.901C152.383,219.152,152.066,216.816,150.398,214.683z"/>
</svg>
