<?xml version="1.0" encoding="utf-8"?>
<!-- Generator: Adobe Illustrator 16.0.0, SVG Export Plug-In . SVG Version: 6.00 Build 0)  -->
<!DOCTYPE svg PUBLIC "-//W3C//DTD SVG 1.1//EN" "http://www.w3.org/Graphics/SVG/1.1/DTD/svg11.dtd">
<svg version="1.1" id="图层_1" xmlns="http://www.w3.org/2000/svg" xmlns:xlink="http://www.w3.org/1999/xlink" x="0px" y="0px"
	 width="402px" height="376px" viewBox="0 0 402 376" enable-background="new 0 0 402 376" xml:space="preserve">
<path d="M398.353,330.461c-14.258-12.625-30.798-30.231-49.619-52.817c-17.572-21.08-31.624-39.862-42.157-56.349
	c16.331-16.525,25.976-35.684,28.915-57.48c2.832-20.987-0.883-41.591-11.144-61.812c-10.493-20.688-25.65-36.777-45.471-48.27
	c-8.443-4.913-17.131-8.607-26.054-11.117c3.538-3.676,6.976-8.297,10.313-13.868c4.131-6.996,6.879-13.559,8.244-19.688
	c1.399-6.462,0.566-7.845-2.498-4.147c-2.799,3.365-6.446,6.946-10.943,10.743c-3.849,3.217-7.613,5.977-11.296,8.296
	c0.157-3.168-0.587-6.101-2.245-8.796c-1.766-2.865-4.265-5.063-7.496-6.596c-3.23-1.533-6.629-2.149-10.193-1.849
	c-3.529,0.307-6.758,1.516-9.693,3.604c-1.758-4.126-4.73-7.052-8.945-8.75c-4.197-1.666-8.761-1.866-13.691-0.6
	c-4.963,1.299-8.928,3.748-11.893,7.345c-3.048,3.664-4.381,7.876-4.042,12.622c-1.819-0.602-3.786-0.862-5.901-0.779
	c-3.331,0.133-6.462,1.083-9.394,2.848c-6.779,4.086-9.835,10.232-9.194,18.423c-2.354,0.181-4.472,0.898-6.347,2.164
	c-2.398,1.599-4.081,3.814-5.047,6.646c-0.966,2.798-1.033,5.613-0.2,8.445c0.774,2.638,2.23,4.89,4.361,6.763
	c-16.561,13.433-28.23,30.396-34.992,50.901c-6.763,20.487-7.512,40.975-2.249,61.462c5.23,20.298,15.476,36.915,30.712,49.869
	c-5.246,3.992-10.718,7.862-16.416,11.61c-14.622,5.901-33.457,10.661-56.521,14.273c-22.752,3.564-43.223,5.13-61.412,4.697
	c-3.698-0.1-5.63,0.533-5.796,1.898c-0.2,1.299,1.166,2.781,4.098,4.447c4.031,2.299,7.745,4.031,11.143,5.197
	c2.232,0.766,5.83,1.732,10.793,2.898l-9.994,6.945l-10.543,5.946c-3.431,1.799-4.797,3.348-4.098,4.647
	c0.566,1.132,2.582,1.898,6.046,2.298c6.496,0.767,12.992,0.95,19.488,0.55c4.634-0.275,9.031-0.848,13.222-1.676
	c-0.876,0.487-1.719,0.93-2.529,1.326l-6.096,2.748c-2.332,1-3.331,2.016-2.998,3.049c0.3,0.965,1.732,1.531,4.297,1.698l11.543-0.7
	c4.068-0.594,7.731-1.439,11.032-2.51c-0.748,1.261-1.537,2.572-2.388,3.959l-8.745,13.393c-1.366,1.965-1.749,3.348-1.149,4.146
	c0.633,0.834,2.282,1.117,4.947,0.85c6.229-0.566,13.092-2.432,20.587-5.596c7.462-3.132,14.308-7.029,20.537-11.693
	c-4.797,11.061-7.595,19.072-8.395,24.035c-0.367,1.966-0.217,3.198,0.45,3.697c0.733,0.566,2.148,0.334,4.248-0.699
	c8.261-4.098,18.022-11.525,29.282-22.286c10.327-9.894,20.887-21.587,31.68-35.078c7.414-9.237,14.167-18.363,20.284-27.382
	c4.071,1.952,8.303,4.597,12.696,7.944c4.443,3.393,7.984,6.716,10.642,9.973c-3.385,4.354-7.255,8.709-11.641,13.063
	c-4.797,4.764-9.461,8.777-13.991,12.042c-2.465,1.766-3.515,3.165-3.148,4.197c0.366,1.032,2.165,1.466,5.396,1.3
	c3.464-0.201,6.363-0.634,8.695-1.3c1.186-0.333,2.565-0.844,4.101-1.497c-1.473,1.487-3.182,3.146-5.15,4.994
	c-1.799,1.666-2.365,2.949-1.699,3.848c0.633,0.834,2.115,1.033,4.447,0.6c4.839-0.948,9.498-2.673,13.982-5.142
	c-0.945,2.964-2.038,5.781-3.289,8.44c-0.766,1.632-0.883,2.648-0.35,3.048c0.566,0.433,1.865,0.116,3.897-0.949
	c4.897-2.599,8.911-5.297,12.043-8.095c2.664-2.365,5.047-5.164,7.145-8.395c1.033,3.896,2.882,7.944,5.547,12.142
	c1.851,2.884,3.644,5.203,5.383,6.976c-3.033,4.418-6.646,9.197-10.879,14.361c-8.861,10.826-17.339,19.338-25.435,25.534
	c-2.232,1.732-3.115,3.099-2.648,4.098c0.433,0.966,2.016,1.315,4.747,1.05c3.398-0.334,6.446-1,9.145-2
	c1.559-0.58,3.09-1.32,4.6-2.196c-3.225,5.844-7.15,12.234-11.795,19.187c-1.233,1.865-1.5,3.215-0.8,4.047
	c0.733,0.867,2.265,0.867,4.597,0c5.03-1.832,9.927-4.363,14.691-7.595c4.73-3.198,8.811-6.713,12.242-10.544
	c-0.434,2.898-1.166,5.797-2.198,8.695l-3.099,7.495c-0.999,2.231-1.182,3.631-0.549,4.197s1.981,0.333,4.047-0.7
	c7.962-3.863,17.506-21.354,28.633-52.467c4.663-13.125,8.678-26.283,12.042-39.476c3.243-12.845,5.272-23.464,6.119-31.909
	l4.924-3.02c7.462-4.496,12.509-7.595,15.141-9.293c4.617-2.987,8.197-5.612,10.768-7.887c6.957,19.858,15.68,39.842,26.21,59.953
	c12.759,24.452,24.401,41.491,34.928,51.119c1.633,1.498,2.832,2.031,3.598,1.599c0.833-0.433,0.983-1.749,0.45-3.948
	c-1.016-4.363-1.56-7.9-1.648-10.636c3.173,4.254,6.702,8.151,10.593,11.686c5.196,4.73,10.177,8.028,14.94,9.894
	c1.966,0.767,3.281,0.85,3.947,0.25c0.733-0.666,0.517-2.016-0.649-4.047c-2.332-4.064-3.98-7.18-4.946-9.344
	c-1.166-2.666-2.282-5.947-3.349-9.845c2.398,2.132,4.897,3.948,7.496,5.446c2.365,1.333,5.163,2.599,8.395,3.799
	c3.131,1.165,4.913,1.182,5.347,0.049C401.533,334.042,400.617,332.492,398.353,330.461z M241.402,265.099
	c2.355-1.936,5.077-3.964,8.166-6.084c-0.777,2.514-1.887,5.425-3.371,8.785l-3.215,6.933
	C242.146,271.61,241.62,268.399,241.402,265.099z"/>
</svg>
