<?xml version="1.0" encoding="utf-8"?>
<!-- Generator: Adobe Illustrator 16.0.0, SVG Export Plug-In . SVG Version: 6.00 Build 0)  -->
<!DOCTYPE svg PUBLIC "-//W3C//DTD SVG 1.1//EN" "http://www.w3.org/Graphics/SVG/1.1/DTD/svg11.dtd">
<svg version="1.1" id="图层_1" xmlns="http://www.w3.org/2000/svg" xmlns:xlink="http://www.w3.org/1999/xlink" x="0px" y="0px"
	 width="146px" height="237px" viewBox="0 0 146 237" enable-background="new 0 0 146 237" xml:space="preserve">
<path d="M141.197,97.887c2.201-3.536,3.169-6.972,2.902-10.307c-0.268-3.469-1.868-6.438-4.804-8.906
	c-2.067-1.734-4.353-2.685-6.854-2.852c-2.902-0.2-5.621,0.701-8.156,2.702c-1.668-3.402-4.103-5.537-7.305-6.404
	c-2.902-0.768-5.688-0.417-8.355,1.051c-1.117,0.6-2.073,1.337-2.884,2.198c-6.223-2.81-11.667-2.93-16.329-0.347
	c-4.017,2.224-6.702,5.678-8.063,10.357c-0.914-0.333-1.84-0.655-2.794-0.951c-0.576-0.177-1.152-0.338-1.729-0.494
	c5.871-5.307,11.354-11.241,16.438-17.819c4.596-5.926,7.322-10.315,8.219-13.199c2.084-0.667,3.835-1.815,5.241-3.462
	c1.837-2.209,2.712-4.874,2.658-7.976c3.425,0.578,6.462-0.056,9.1-1.931c2.835-2.001,4.42-4.92,4.753-8.756
	c0.334-3.902-0.65-7.021-2.951-9.356c-1.508-1.508-3.321-2.439-5.425-2.82c1.359-3.606,1.378-7.021,0.021-10.239
	c-1.201-2.902-3.168-5.087-5.904-6.555c-3.302-1.801-6.654-2.151-10.057-1.051c-2.909,0.923-5.033,2.69-6.395,5.279
	c-2.032-1.554-4.468-2.386-7.314-2.477c-3.136-0.101-5.904,0.733-8.306,2.501c-2.469,1.801-3.936,4.169-4.403,7.105
	c-0.404,2.639,0.072,5.396,1.402,8.268c-2.259,0.985-4,2.658-5.205,5.042c-1.601,3.202-1.451,6.421,0.45,9.657
	c0.171,0.291,0.382,0.542,0.578,0.809c-4.91,5.75-8.977,12.828-12.186,21.256c-3.267,8.538-5.141,17.123-5.647,25.755
	c-1.688,0.464-3.375,1.011-5.06,1.664c-11.007,4.236-17.646,11.041-19.914,20.414c-2.202,9.207-0.884,17.745,3.953,25.618
	c1.937,3.176,4.328,6.013,7.165,8.519l-5.213-2.064c-4.403-1.668-7.271-2.585-8.605-2.752c-2.569-0.3-4.737,0.083-6.505,1.151
	c-1.968,1.2-3.035,3.085-3.202,5.653c-0.133,2.302,0.717,4.453,2.552,6.454c1.935,2.168,4.57,3.67,7.906,4.504
	c2.935,0.767,6.805,1.434,11.608,2.001l8.396,0.866c0.023,0.049,0.045,0.098,0.068,0.147c-1.97,0.255-3.626,1.299-4.962,3.14
	c-1.311,1.828-1.931,3.939-1.877,6.325c-0.999-0.518-2.1-0.887-3.327-1.072c-2.269-0.366-4.353-0.083-6.254,0.851
	c-3.233,1.54-4.955,4.347-5.203,8.389c-1.36-1.484-2.728-2.624-4.104-3.385c-1.534-0.834-3.519-1.218-5.954-1.151
	c-2.569,0.034-4.854,0.584-6.855,1.651c-3.369,1.801-5.42,4.103-6.154,6.904c-0.7,2.568-0.35,5.654,1.051,9.257
	c1.435,3.735,3.87,7.655,7.305,11.758c3.903,4.637,7.688,7.655,11.358,9.056c2.868,1.102,5.604,1.135,8.206,0.101
	c0.972-0.387,1.815-0.873,2.531-1.46c1.132,1.592,3.003,2.614,5.624,3.061c2.936,0.468,5.287,0,7.055-1.4
	c0.8,2.668,2.418,4.703,4.853,6.104c2.202,1.268,4.553,1.769,7.055,1.502c1.781-0.184,3.37-0.759,4.775-1.707
	c-0.263,3.041-0.104,6.095,0.528,9.162c0.801,3.836,2.152,6.805,4.053,8.906c1.034,1.167,2.469,2.068,4.303,2.701
	c1.801,0.635,3.769,0.935,5.903,0.9c2.736-0.033,5.171-0.633,7.306-1.801c2.302-1.268,3.853-2.969,4.653-5.104
	c1.301-3.636,1.567-8.556,0.801-14.76c-0.408-3.364-1.104-6.162-2.084-8.41c2.642-0.797,4.789-2.192,6.437-4.199
	c1.769-2.168,2.636-4.619,2.603-7.354c-0.034-2.901-0.701-5.388-2.002-7.455c-1.557-2.503-3.975-4.214-7.235-5.152
	c-0.569-1.152-1.392-2.138-2.472-2.953c-1.256-0.932-2.662-1.505-4.211-1.737c0.609-1.461,0.877-3.094,0.759-4.918
	c-0.167-2.102-0.8-4.035-1.901-5.803c-0.641-1.009-1.4-1.881-2.262-2.637c-0.833-4.528-1.718-8.029-2.656-10.471
	c5.552,0.161,10.862-0.605,15.925-2.304c8.648-2.902,14.662-7.865,18.061-14.874c6.162,2.625,11.784,2.535,16.863-0.287
	c5.438-3.068,8.339-8.572,8.706-16.511c0.006-0.125,0.005-0.252,0.009-0.377c1.452,0.276,2.899,0.221,4.344-0.173
	c2.502-0.667,4.537-2.135,6.104-4.403c1.734-2.502,2.585-5.17,2.552-8.006C145.217,102.707,143.865,99.988,141.197,97.887z"/>
</svg>
