<?xml version="1.0" encoding="utf-8"?>
<!-- Generator: Adobe Illustrator 16.0.0, SVG Export Plug-In . SVG Version: 6.00 Build 0)  -->
<!DOCTYPE svg PUBLIC "-//W3C//DTD SVG 1.1//EN" "http://www.w3.org/Graphics/SVG/1.1/DTD/svg11.dtd">
<svg version="1.1" id="图层_1" xmlns="http://www.w3.org/2000/svg" xmlns:xlink="http://www.w3.org/1999/xlink" x="0px" y="0px"
	 width="263px" height="348px" viewBox="0 0 263 348" enable-background="new 0 0 263 348" xml:space="preserve">
<path d="M260.651,197.123c-0.899-4.895-3.013-8.773-6.343-11.637c-3.568-3.032-8.019-4.411-13.326-4.177
	c-2.585-13.935-5.916-28.34-9.997-43.219c-6.126-22.541-13.202-43.167-21.226-61.88c-2.329-5.418-4.581-10.18-6.756-14.307
	c6.357-11.273,11.262-23.581,14.697-36.934c1.598-6.16,2.463-11.188,2.596-15.083c0.134-3.962-0.516-5.876-1.947-5.743
	c-2.863,0.266-7.242,4.645-13.135,13.135c-5.405,7.763-10.495,16.682-15.278,26.728c-0.238-0.197-0.477-0.397-0.718-0.584
	c-1.236-5.525-5.222-13.037-11.973-22.547c-7.125-9.989-11.836-14.883-14.133-14.684c-1.732,0.2-3.813,2.131-6.244,5.793
	c-2.348,3.449-4.43,7.634-6.248,12.545c-1.643-4.823-3.702-9.473-6.188-13.943c-0.466-0.799-1.064-1.282-1.797-1.448
	c-0.699-0.133-1.383,0.033-2.049,0.5c-6.301,4.23-12.182,9.495-17.651,15.774C114.085,14.085,104.821,5.987,95.14,1.147
	c-1.598-0.799-2.647-1.016-3.146-0.649c-0.499,0.333-0.716,1.448-0.649,3.346c0.266,7.791,3.829,18.579,10.688,32.363
	c1.901,3.802,3.854,7.434,5.849,10.931c-1.054,1.885-2.091,3.81-3.102,5.8c-0.444,0.874-0.865,1.749-1.291,2.625
	c-9.739,8.54-22.425,23.727-38.064,45.571c-16.548,23.107-28.567,42.734-36.059,58.883c-0.173,0.374-0.328,0.722-0.47,1.054
	c-5.551-0.294-10.246,0.725-14.063,3.091c-3.43,2.164-5.894,5.244-7.392,9.239c-1.365,3.529-1.748,7.191-1.149,10.987
	c0.566,3.696,1.865,6.509,3.896,8.44c-4.162,2.264-7.092,5.76-8.79,10.488c-1.631,4.428-1.881,8.923-0.749,13.484
	c1.199,4.762,3.596,8.391,7.192,10.888c3.628,2.528,7.979,3.478,13.043,2.87c0.904,7.224,4.559,12.23,10.979,15.01
	c6.493,2.83,13.052,2.297,19.678-1.599c4.794,4.528,10.172,7.009,16.131,7.441c5.361,0.399,10.521-0.849,15.482-3.745
	c4.407-2.57,7.845-5.953,10.339-10.127c-0.016,0.563-0.047,1.115-0.051,1.686c-0.069,9.77,1.355,18.275,4.272,25.518
	c-0.123,0.915-0.218,1.877-0.277,2.9c-0.041,0.75-0.051,1.494-0.047,2.236c-0.956-0.647-2.085-0.884-3.399-0.688
	c-2.431,0.332-3.796,2.28-4.095,5.843c-0.3,3.463-0.034,6.227,0.799,8.291c0.817,2.058,2.334,3.874,4.536,5.453
	c0.943,17.174,7,34.219,18.188,51.132c3.263,4.961,6.976,6.909,11.137,5.844c1.665-0.434,2.863-1.349,3.596-2.747
	c0.452-0.847,0.649-1.749,0.612-2.702c1.148,1.422,2.487,2.352,4.032,2.752c2.631,0.699,4.578-0.316,5.844-3.047
	c0.865-1.83,1.182-7.624,0.949-17.38c-0.3-12.585,0.166-23.806,1.398-33.661c5.193-1.133,8.989-4.778,11.387-10.938
	c2.002-5.123,2.266-9.254,0.805-12.398c1.305-2.444,2.49-5.063,3.541-7.879c2.529-6.759,3.979-13.584,4.344-20.477
	c0.027-0.499,0.033-0.984,0.049-1.476c0.726,3.734,2.438,6.992,5.146,9.767c2.83,2.963,6.209,4.777,10.138,5.443
	c4.329,0.766,8.724,0,13.185-2.297c5.395,4.428,11.504,6.076,18.33,4.943c5.869-0.973,10.114-3.669,12.759-8.064
	c4.037,1.834,8.19,2.502,12.462,1.973c4.295-0.533,8.091-2.148,11.387-4.846c3.297-2.729,5.478-6.076,6.543-10.038
	c1.023-3.742,0.877-7.562-0.436-11.457c3.938-2.269,6.836-5.701,8.676-10.317C261.068,206.479,261.518,201.885,260.651,197.123z
	 M160.804,140.702c-1.188-1.421-2.447-2.399-3.784-2.911c-1.444-0.561-2.84-0.504-4.187,0.15l-0.504-1.839
	c1.309,0.329,2.901,0.56,4.79,0.69c1.077,0.074,2.085,0.088,3.038,0.055C160.367,138.045,160.583,139.336,160.804,140.702z
	 M128.307,126.803c3.025,2.13,7.352,4.105,12.977,5.924c0.391,2.191,0.613,4.424,0.669,6.7c-0.466,0.219-0.923,0.466-1.365,0.762
	c-3.815,2.501-5.385,6.797-4.753,12.851c-3.104,1.283-5.435,3.339-6.983,6.177c-1.632,2.963-2.165,6.227-1.599,9.789
	c0.482,2.809,1.565,5.169,3.229,7.097c-1.603,2.557-3.325,4.988-5.177,7.286c-1.354,1.686-2.99,3.494-4.902,5.426
	c-0.206-0.361-0.41-0.723-0.641-1.08c-3.03-4.596-7.342-7.125-12.935-7.592c-0.231-0.019-0.463-0.012-0.694-0.021
	C114.479,165.68,121.872,147.909,128.307,126.803z M162.299,225.305c-0.633,1.375-1.072,2.787-1.313,4.237
	c-0.139-1.745-0.359-3.439-0.669-5.077C160.947,224.806,161.609,225.085,162.299,225.305z"/>
</svg>
