<?xml version="1.0" encoding="utf-8"?>
<!-- Generator: Adobe Illustrator 16.0.0, SVG Export Plug-In . SVG Version: 6.00 Build 0)  -->
<!DOCTYPE svg PUBLIC "-//W3C//DTD SVG 1.1//EN" "http://www.w3.org/Graphics/SVG/1.1/DTD/svg11.dtd">
<svg version="1.1" id="图层_1" xmlns="http://www.w3.org/2000/svg" xmlns:xlink="http://www.w3.org/1999/xlink" x="0px" y="0px"
	 width="206px" height="311px" viewBox="0 0 206 311" enable-background="new 0 0 206 311" xml:space="preserve">
<path d="M204.9,106.846c-1.33-8.854-8.854-16.293-22.566-22.317c-1.579-0.692-3.23-1.337-4.919-1.957
	c-4.811-22.119-15.292-41.41-31.478-57.856c-6.391-6.491-13.148-11.983-20.271-16.476c-6.157-3.895-11.582-6.457-16.275-7.689
	c-0.666-0.2-1.049-0.2-1.148,0c-0.066,0.133,0.033,0.466,0.299,0.999c1.199,2.696,2.597,5.542,4.194,8.538L91.217,3.546
	c-1.298-0.466-1.564-0.1-0.799,1.099l12.681,19.671l-12.931,1.598c-0.832,0.066-1.148,0.299-0.948,0.699l0.599,0.649l17.923,11.283
	l-5.092,4.843c-0.299,0.299-0.433,0.532-0.399,0.699c0,0.167,0.216,0.333,0.649,0.5l9.836,4.144l0.14,2.679
	c-6.881-3.405-14.313-6.116-22.308-8.121l-1.298,0.05c-0.2,0.366,4.976,6.191,15.527,17.475l-16.576-1.498l-10.335-0.15
	c-0.965-0.033-1.464,0.083-1.498,0.35c-0.066,0.266,0.316,0.599,1.148,0.999l21.319,11.134l-7.539,0.999
	c-0.832,0.066-1.198,0.266-1.098,0.599l0.799,0.749l4.399,2.381c-7.354,1.125-14.76,2.781-22.224,5.008l-23.815-6.99
	c-1.032-0.3-1.332,0.033-0.898,0.999l5.912,13.007c-6.564,2.989-11.989,5.992-16.247,9.011c-4.66,3.262-8.388,6.84-11.184,10.734
	h-9.536l-8.288,0.1c-0.666,0-1.015,0.083-1.048,0.25c-0.034,0.1,0.116,0.399,0.449,0.899l7.988,9.286
	c-2.629,1.165-7.373,4.111-14.229,8.837c-0.565,0.366-0.799,0.666-0.699,0.898l0.898,0.5l9.187,1.797l10.784,1.847
	c-2.197,2.796-4.577,6.125-7.14,9.985c-0.599,0.799-0.749,1.381-0.449,1.748l2.247,0.15l12.881-2.946
	c-0.2,0.666-0.566,2.763-1.099,6.291c-0.133,0.699-0.133,1.098,0,1.198l1.198-0.3l6.79-3.146c-0.299,1.332-0.499,3.479-0.599,6.441
	c-0.1,0.666-0.066,1.048,0.1,1.148l1.048-0.399l8.238-6.641c5.226,2.396,11.034,4.36,17.424,5.892l-2.596,6.391
	c-0.458,1.166-0.689,1.979-0.707,2.453l-6.383-0.207l-22.417-0.749c-8.954,0.233-16.593,1.382-22.917,3.445
	c-3.262,1.065-5.476,2.529-6.641,4.394c-1.231,1.931-1.664,4.76-1.298,8.488c0.632,6.09,3.345,11.582,8.138,16.475
	c2.83,2.896,7.223,6.191,13.181,9.887c3.464,2.089,5.839,3.762,7.16,5.031c-1.769,1.648-3.433,3.299-4.963,4.953
	c-2.663,2.896-3.878,4.894-3.645,5.992c0.299,1.364,2.696,3.278,7.189,5.741c6.024,3.396,10.834,6.491,14.429,9.286
	c6.425,5.026,10.797,10.107,13.128,15.241c-1.111,3.413-2.03,6.61-2.744,9.573c-0.1,0.333,0,0.6,0.3,0.799l9.985,4.594
	c6.258,2.896,9.703,4.76,10.335,5.592c0.666,0.865,0.832,1.73,0.5,2.596l-2.047,3.046c-1.73,2.03-2.829,3.511-3.295,4.443
	c-1.099,1.997-1.465,4.094-1.099,6.29c0.233,1.498,1.082,2.896,2.546,4.195l4.344,3.095c3.229,2.163,5.292,4.044,6.191,5.642
	c1.498,2.763,1.381,6.341-0.35,10.734c-0.2,0.566-0.233,0.916-0.1,1.049l0.949-0.1c7.888-2.93,12.631-6.357,14.229-10.285
	c1.498-3.662,0.183-7.39-3.944-11.184l-2.996-2.946c-0.965-1.231-1.448-2.513-1.448-3.845l0.05-0.199
	c0.033-1.064,0.5-2.146,1.398-3.245l3.146-2.995c2.197-1.865,3.678-3.263,4.443-4.194c1.531-1.864,2.38-3.778,2.546-5.741v-0.649
	c0-2.097-0.815-4.526-2.446-7.29c-1.389-2.326-3.57-5.19-6.527-8.583c0.61-1.073,2.258-3.687,4.979-7.893l5.342-8.237
	c4.327,13.58,6.59,20.969,6.791,22.167l0.35,0.849c0.232,0.166,0.549-0.017,0.948-0.549c2.063-2.796,4.061-5.908,5.991-9.336
	c2.297-4.161,3.944-7.939,4.943-11.334l3.145,8.038c1.821,4.462,3.166,7.341,4.046,8.675l-0.45,0.861l-1.599,2.945
	c-0.665,1.465-0.999,2.863-0.999,4.194c0,1.099,0.167,2.196,0.5,3.295c0.566,1.897,1.647,3.512,3.245,4.843
	c0.966,0.799,2.563,1.765,4.793,2.896l4.294,2.297c1.432,0.998,2.347,2.146,2.746,3.444c0.399,1.198,0.499,2.946,0.299,5.243
	c-0.199,2.995,0.416,5.458,1.848,7.389c2.031,2.662,5.941,4.959,11.733,6.89l1.548,0.2l-0.699-1.299
	c-2.063-2.695-2.945-5.375-2.646-8.038c0.133-1.397,0.898-3.562,2.297-6.49l1.748-4.444c0.432-1.73,0.498-3.411,0.199-5.042
	c-0.5-2.597-1.814-4.927-3.944-6.989l-5.042-3.845c-1.266-0.799-1.914-1.331-1.947-1.598c-0.101-0.466,0.398-1.515,1.497-3.146
	c1.231-1.83,2.88-3.845,4.942-6.041c0.233-0.267,0.268-0.533,0.101-0.799l-3.944-8.838c-6.191-13.58-10.335-23.549-12.432-29.906
	c-2.83-8.462-4.573-16.662-5.256-24.607c2.033-3.258,3.078-6.754,3.109-10.491c0.032-3.711-0.9-6.411-2.774-8.125
	c0.444-3.747,1.108-7.543,2-11.389c15.636-1.816,29.28-5.126,40.915-9.943c12.016-4.959,20.953-11.101,26.811-18.423
	c2.597-3.229,4.478-6.507,5.643-9.835C205.001,113.319,205.367,110.008,204.9,106.846z M93.587,156.152
	c-6.691,2.631-14.43,4.311-23.24,5.014l-8.388-0.271c0.232-0.083,0.477-0.172,0.749-0.277l15.128-5.742L93.587,156.152z"/>
</svg>
