<?xml version="1.0" encoding="utf-8"?>
<!-- Generator: Adobe Illustrator 16.0.0, SVG Export Plug-In . SVG Version: 6.00 Build 0)  -->
<!DOCTYPE svg PUBLIC "-//W3C//DTD SVG 1.1//EN" "http://www.w3.org/Graphics/SVG/1.1/DTD/svg11.dtd">
<svg version="1.1" id="图层_1" xmlns="http://www.w3.org/2000/svg" xmlns:xlink="http://www.w3.org/1999/xlink" x="0px" y="0px"
	 width="184px" height="181px" viewBox="0 0 184 181" enable-background="new 0 0 184 181" xml:space="preserve">
<path d="M183.25,55.691c-3.168-4.001-7.734-6.102-13.704-6.302c-10.303-0.4-22.321,5.751-36.06,18.455l1.701-4.151
	c1.166-3.467,1.883-6.935,2.149-10.403c0.767-10.369,1.315-16.454,1.649-18.255c1.768-9.669,5.035-15.837,9.804-18.505
	c0.967-0.534,0.866-1.15-0.302-1.851c-1.1-0.667-2.5-1.017-4.2-1.05c-6.901-0.067-13.304,2.101-19.205,6.502
	c-5.502,4.101-10.401,10.036-14.704,17.805c-1.732-5.501-5.468-12.687-11.202-21.556C91.675,4.777,85.373-0.608,80.272,0.226
	C76.938,0.76,73.17,3.477,68.969,8.378c-3.501,4.135-6.102,8.169-7.802,12.104c-0.767,1.833-0.3,2.351,1.4,1.55
	c4.035-1.9,6.985-3.167,8.853-3.801c0.033,2.834,0.167,6.185,0.4,10.053c0.434,7.735,1.084,14.254,1.951,19.556
	c-3.501-3.234-7.619-6.485-12.353-9.753c-9.503-6.568-17.388-10.002-23.657-10.303c-3.167-0.133-7.102,0.45-11.803,1.75
	c-4.668,1.3-6.985,2.434-6.952,3.401c0,0.967,1.35,2.117,4.051,3.451l4.101,2c2.234,1.233,3.801,2.434,4.702,3.601
	c7.602,9.703,12.586,15.921,14.954,18.655l-5.402-1.55c-4.301-1-8.169-1.367-11.603-1.101c-6.068,0.434-12.187,2.334-18.355,5.702
	c-4.568,2.467-7.852,4.818-9.853,7.052c-1.234,1.367-1.734,2.367-1.5,3c0.233,0.567,1.284,1.15,3.151,1.75
	c10.036,3.268,16.921,6.052,20.656,8.353c2.801,1.767,8.035,4.751,15.704,8.952c8.802,4.835,14.771,7.869,17.905,9.103
	c2.968,1.201,6.485,2.201,10.553,3.002l5.202,0.801c-5.902,2.3-10.586,6.501-14.054,12.604c-3.468,6.135-4.685,12.402-3.651,18.805
	c0.716,4.38,2.455,8.229,5.206,11.553c-3.73-1.318-7.235-2.059-10.507-2.2c-6.068-0.231-9.953,1.734-11.653,5.902
	c-1.467,3.602-0.934,7.002,1.601,10.202c2.667,3.468,7.536,6.619,14.604,9.453c8.636,3.5,15.237,5.533,19.805,6.102
	c5.335,0.667,9.002-0.467,11.003-3.4c2.167-3.135,1.333-6.984-2.501-11.554c-0.967-1.172-2.063-2.305-3.263-3.405
	c5.526,1.445,11.876,2.202,19.068,2.256c5.908,0.053,11.307-0.457,16.229-1.496c-4.842,4.25-6.063,8.75-3.626,13.5
	c1.968,3.801,6.353,5.268,13.153,4.399c4.801-0.6,10.92-2.399,18.354-5.401c7.269-2.935,12.336-6.385,15.204-10.353
	c2.667-3.733,3.167-7.635,1.501-11.703c-2.001-4.835-6.353-6.635-13.056-5.401c-2.508,0.453-5.496,1.367-8.961,2.744
	c1.412-1.752,2.561-3.646,3.41-5.694c2.4-5.802,2.2-11.819-0.601-18.056c-2.968-6.567-8.452-12.42-16.454-17.555l2.301-3.001
	c2-2.269,4.117-4.067,6.352-5.401c2.635-1.533,6.668-4.302,12.104-8.302c6.136-4.535,10.369-8.019,12.703-10.453l11.753-13.654
	c4.803-5.602,8.152-8.652,10.053-9.153l2.951-0.45C183.268,56.391,183.584,56.091,183.25,55.691z"/>
</svg>
