<?xml version="1.0" encoding="utf-8"?>
<!-- Generator: Adobe Illustrator 16.0.0, SVG Export Plug-In . SVG Version: 6.00 Build 0)  -->
<!DOCTYPE svg PUBLIC "-//W3C//DTD SVG 1.1//EN" "http://www.w3.org/Graphics/SVG/1.1/DTD/svg11.dtd">
<svg version="1.1" id="图层_1" xmlns="http://www.w3.org/2000/svg" xmlns:xlink="http://www.w3.org/1999/xlink" x="0px" y="0px"
	 width="419px" height="284px" viewBox="0 0 419 284" enable-background="new 0 0 419 284" xml:space="preserve">
<path d="M407.346,59.466c-3.861-0.766-9.504-1.198-16.927-1.298l-23.467,1.049c18.374-5.126,31.156-10.286,38.347-15.479
	c6.49-4.693,9.52-7.889,9.087-9.586c-0.533-2.064-5.825-3.312-15.878-3.745c-11.018-0.466-23.916,0.549-38.695,3.045
	c-15.079,2.563-29.725,6.258-43.938,11.084c-14.546,4.96-28.276,11.084-41.192,18.374c-15.985,9.056-29.413,19.27-40.294,30.638
	c-0.996-1.602-2.205-3.112-3.644-4.524c-2.904-2.846-5.962-4.716-9.171-5.611c4.152-1.961,8.22-4.007,12.167-6.172
	c17.408-9.553,30.058-19.556,37.946-30.008c0.766-0.999,0.815-1.431,0.149-1.298c-0.532,0.133-1.281,0.5-2.246,1.099
	c-2.363,1.564-5.127,2.979-8.289,4.244c1.598-2.197,2.68-3.895,3.246-5.093c1.098-2.23,1.681-4.61,1.747-7.14
	c0.033-0.766-0.183-1.115-0.649-1.048c-0.332,0.033-0.665,0.216-0.998,0.549c-3.795,4.161-8.006,7.29-12.633,9.387
	c0.866-1.831,1.648-4.028,2.348-6.591c0.732-2.563,1.098-4.427,1.098-5.592l-0.149-0.949c-0.134-0.166-0.433-0.05-0.899,0.35
	c-3.561,2.696-6.707,4.527-9.436,5.492c1.73-4.094,3.162-8.139,4.293-12.133c1.332-4.66,1.998-8.471,1.998-11.434
	c0-2.53-0.616-3.012-1.848-1.448c-2.064,2.663-4.826,5.476-8.289,8.438c-3.395,2.896-6.391,5.026-8.986,6.391
	c0.632-2.996,0.898-6.424,0.799-10.286c-0.1-3.761-0.5-6.574-1.199-8.438c-0.199-0.499-0.398-0.732-0.599-0.699
	c-0.134,0-0.3,0.217-0.499,0.649c-0.832,1.764-2.28,3.911-4.344,6.441c-1.798,2.164-3.462,3.961-4.993,5.392
	c-0.167-2.463-0.981-5.559-2.446-9.287c-0.267-0.632-0.5-0.849-0.699-0.649l-0.699,1.448l-4.693,8.588
	c-0.033-1.997-0.3-4.144-0.799-6.441c-0.5-2.264-1.082-3.911-1.748-4.943c-0.299-0.5-0.532-0.649-0.699-0.45l-0.499,1.548
	l-1.398,3.895c-0.034-2.23-0.732-5.642-2.097-10.235l-2.047-6.191C203.283,0.266,203.1,0,202.933,0
	c-0.166-0.033-0.349,0.216-0.549,0.749c-4.084,10.127-10.996,21.685-20.723,34.667c-0.396-0.618-0.808-1.183-1.246-1.663
	c-1.165-1.298-2.33-1.897-3.495-1.797c-3.329,0.299-7.739,6.058-13.231,17.275c-3.092,6.314-5.417,12.106-6.976,17.378
	c-2.635,2.769-4.911,5.411-6.789,7.911c-8.157-10.16-17.757-19.691-28.825-28.584c-11.417-9.154-23.95-17.292-37.597-24.416
	C70.021,14.463,56.772,9.187,43.757,5.692C30.643,2.164,19.076,0.766,9.057,1.498C3.797,1.864,0.918,2.813,0.418,4.344
	c-0.533,1.465,1.115,3.761,4.943,6.891c3.461,2.862,10.602,6.823,21.419,11.883c8.987,4.228,18.541,8.338,28.66,12.333
	c-14.247-1.564-26.596-1.332-37.048,0.699C8.707,38.046,3.78,40.709,3.614,44.138c-0.233,4.36,4.494,8.338,14.18,11.933
	c10.652,3.961,24.915,6.408,42.79,7.34c-12.549,1.764-22.352,3.895-29.409,6.391c-6.391,2.23-9.67,4.394-9.836,6.491
	c-0.133,2.264,2.663,3.995,8.388,5.193C36.351,82.883,45.206,83,56.29,81.834c-5.958,1.998-11.733,4.477-17.326,7.44
	c-5.858,3.095-9.786,5.825-11.784,8.188c-2.33,2.896-3.195,5.143-2.596,6.74c0.599,1.498,2.297,2.463,5.093,2.896
	c5.326,0.832,12.033,0.649,20.122-0.549c7.822-1.132,15.994-3.063,24.516-5.792c-15.877,10.086-22.169,17.975-18.874,23.667
	c1.831,3.229,6.125,4.677,12.882,4.344c8.322-0.433,17.892-3.878,28.71-10.335c-4.793,4.66-7.856,8.654-9.188,11.983
	c-0.898,2.264-0.948,4.078-0.149,5.442c0.898,1.531,3.262,1.631,7.09,0.3c4.527-1.631,10.635-5.143,18.324-10.535
	c-2.663,3.129-4.76,5.875-6.291,8.238c-1.698,2.597-2.962,5.076-3.795,7.439c-0.699,2.064-1.082,4.045-1.148,5.941
	c-0.033,2.031,0.333,3.329,1.099,3.895l2.696,0.2c1.398-0.333,3.096-1.165,5.093-2.497c4.993-3.328,9.836-7.539,14.529-12.632
	c-0.832,2.63-1.348,5.026-1.548,7.19c-0.166,2.03-0.05,3.561,0.35,4.594c0.3,0.832,0.633,1.348,0.999,1.547l1.698-0.199
	c0.999-0.467,2.147-1.582,3.445-3.346l0.221-0.35c0.161,1.842,0.483,3.689,0.977,5.543c0.865,3.229,2.38,6.273,4.543,9.137
	l-2.946,2.547l-0.599,0.698l0.849,0.35l5.193,1.099l-3.495,3.046l-0.599,0.599c0,0.166,0.3,0.3,0.899,0.4l9.137,1.598l0.352,0.034
	c0.102,1.194,0.125,2.458,0.048,3.81l-0.1,0.799c-0.008,0.113-0.012,0.213-0.017,0.319l-0.682,0.53
	c-1.564,1.397-2.213,3.063-1.947,4.992c0.5,4.027-0.05,7.855-1.647,11.484c-1.032-2.164-2.014-4.744-2.946-7.739
	c-0.999-3.296-1.448-5.542-1.348-6.741c0.1-0.932-0.183-1.896-0.849-2.896c-0.633-0.966-1.515-1.73-2.646-2.296
	c-0.52-0.274-1.111-0.449-1.744-0.566c-0.6-0.622-1.494-1.314-2.7-2.08c-2.197-1.365-4.277-2.23-6.241-2.597
	c-1.132-0.2-1.764-0.116-1.897,0.249c-0.067,0.3,0.183,0.949,0.749,1.947l0.35,0.6l2.946,5.842c0.032,0.076,0.061,0.134,0.092,0.208
	c-0.171,0.666-0.269,1.316-0.242,1.938c0.1,1.965,0.899,3.512,2.397,4.645c0.632,0.432,1.548,1.598,2.746,3.494l3.146,5.742
	c-1.698-0.766-3.528-1.964-5.492-3.595c-1.698-1.432-2.696-2.431-2.996-2.996c-0.832-1.598-2.296-2.43-4.394-2.496
	c-1.325,0-2.636,0.358-3.933,1.043c-1.044-0.412-2.41-0.563-4.106-0.444c-2.563,0.167-4.71,0.932-6.441,2.297
	c-0.666,0.5-0.949,0.916-0.849,1.248c0.1,0.3,0.533,0.583,1.298,0.85c1.372,0.429,3.573,1.377,6.59,2.837
	c0.096,0.544,0.243,0.985,0.45,1.307c0.566,0.999,1.498,1.765,2.796,2.297c1.232,0.532,2.597,0.782,4.094,0.749
	c2.164-0.066,4.577,0.633,7.24,2.098c2.063,1.098,3.611,2.229,4.643,3.395l3.196,8.289c0.366,1.364-0.35,3.561-2.147,6.59
	c-1.132,1.831-1.398,3.729-0.799,5.692c0.113,0.539,0.359,1.049,0.69,1.54c-0.293,0.75-0.638,1.534-1.04,2.354l-2.247,3.745
	l-0.399,0.698l0.749,0.25c0.346,0.076,0.689,0.128,1.031,0.165c0.032,0.383,0.236,1.09,0.617,2.132
	c0.632,1.598,1.581,3.245,2.846,4.942c-2.497-0.133-4.228-0.133-5.192,0c-2.33,0.4-3.462,1.082-3.396,2.047
	c0.033,0.866,0.932,1.814,2.696,2.847c1.897,1.099,3.861,2.03,5.892,2.796c-3.195,1.598-5.625,3.179-7.29,4.743
	c-1.665,1.531-2.363,2.829-2.097,3.895c0.2,0.8,1.431,1.498,3.695,2.097c2.463,0.666,5.442,0.999,8.938,0.999
	c-1.465,1.632-2.83,3.362-4.094,5.192c-1.332,1.932-1.997,3.213-1.997,3.846v0.049c0,0.5,0.233,0.816,0.699,0.949
	c0.533,0.199,1.631,0.184,3.295-0.05c2.164-0.3,4.277-0.899,6.341-1.798c-0.267,1.398-0.4,3.146-0.4,5.242
	c0,1.832,0.117,3.412,0.35,4.744c0.3,1.498,0.699,2.396,1.198,2.695c0.932,0.533,2.463,0,4.594-1.598l5.292-5.043
	c0.1,1.498,0.35,2.896,0.749,4.195c0.466,1.564,1.048,2.463,1.748,2.695c0.799,0.233,1.814-0.266,3.046-1.498l2.746-3.694
	c0.366,1.598,0.982,3.212,1.847,4.843c0.965,1.798,1.947,3.096,2.946,3.895c1.065,0.832,1.964,1.182,2.696,1.049
	c1.198-0.166,2.247-1.298,3.146-3.395c0.832-1.998,1.448-4.645,1.848-7.939c1.464,1.797,3.112,3.346,4.943,4.644
	c1.132,0.799,2.014,1.048,2.646,0.749c0.565-0.232,0.882-1.032,0.948-2.396l0.05-2.197l-0.3-5.293
	c2.563,1.531,5.16,2.697,7.789,3.496c2.729,0.832,4.46,0.948,5.193,0.35c0.466-0.367,0.699-1.049,0.699-2.048
	c0-2.263-2.047-6.042-6.141-11.334c4.294-0.399,6.458-1.331,6.491-2.796c0-1.398-2.197-3.429-6.591-6.092l3.789-1.759
	c0.063,0.334,0.129,0.661,0.206,0.96c0.233,0.832,0.482,1.348,0.749,1.548c0.333,0.267,0.782,0.116,1.348-0.449
	c0.898-0.966,1.964-2.513,3.195-4.644c0.483-0.854,0.876-1.609,1.179-2.267c1.073-0.449,1.914-1.485,2.516-3.126l0.35-1.896
	l0.2-2.197c0.166-2.064,0.449-3.711,0.849-4.943c0.632-2.063,1.748-4.027,3.345-5.892c2.097-2.463,4.427-4.311,6.991-5.542
	c1.431-0.699,3.611-1.415,6.54-2.146l3.895-1.049c1.398-0.5,2.646-1.115,3.745-1.848c1.664-1.099,2.363-2.796,2.097-5.093
	l-0.109-0.482c0.603-0.387,1.282-0.837,2.057-1.365l2.597-1.598c0.865-0.466,1.281-0.832,1.248-1.099l-1.049-0.998
	c-1.031-0.799-2.513-1.299-4.443-1.498c-1.983-0.245-3.697,0.098-5.148,1.006c-0.73-0.224-1.439-0.273-2.126-0.145
	c0.297-0.434,0.601-0.853,0.884-1.311c2.941-4.773,4.748-10.273,5.454-16.479c2.743-3.126,5.286-8.563,7.627-16.325
	c2.166-7.153,3.114-13.052,2.864-17.716c0.68,0.616,1.341,1.152,1.979,1.589c2.93,1.998,4.744,2.414,5.443,1.248
	c0.332-0.565,0.365-1.73,0.1-3.494c-0.333-1.798-1.099-4.095-2.297-6.891l8.638,7.34c3.429,2.695,6.009,4.609,7.739,5.742
	c3.762,2.396,6.341,3.045,7.738,1.947c1.133-0.899,1.199-2.78,0.2-5.643c-0.865-2.496-2.896-5.709-6.091-9.637
	c7.855,5.625,14.646,9.354,20.371,11.185c4.494,1.431,7.223,1.78,8.188,1.048c1.032-0.799,0.315-2.929-2.147-6.391
	c-2.33-3.262-5.625-6.557-9.886-9.886c5.292,2.363,9.786,4.21,13.481,5.542c5.891,2.098,11.167,3.462,15.827,4.094
	c4.927,0.699,7.855,0.134,8.788-1.697c0.832-1.598,0.066-3.628-2.297-6.091c-1.531-1.664-4.544-3.994-9.037-6.99
	c4.327,1.398,9.104,2.729,14.329,3.995c5.56,1.365,9.837,2.197,12.832,2.497c7.789,0.765,11.816,0.216,12.083-1.648
	c0.133-1.198-1.548-3.279-5.043-6.241c-4.793-4.061-9.902-7.522-15.328-10.385c7.456,1.864,15.245,3.229,23.367,4.094l17.325,0.999
	c7.523,0,12.05-0.849,13.581-2.546c1.73-1.964-0.749-4.977-7.439-9.037c-6.657-4.028-17.242-7.956-31.755-11.784
	c6.856,0.466,14.529,0.35,23.018-0.35c8.521-0.732,15.262-1.847,20.221-3.345c5.227-1.564,7.873-3.162,7.939-4.793
	c0-1.665-2.214-3.229-6.641-4.693c-7.29-2.43-15.994-4.178-26.113-5.243c10.186-0.599,19.372-1.947,27.561-4.044
	c8.122-2.097,15.612-5.026,22.469-8.788c5.958-3.262,9.021-5.659,9.188-7.19C417.997,62.545,414.502,60.897,407.346,59.466z
	 M175.722,196.373l0.021-0.105c0.053,0.031,0.106,0.063,0.159,0.094L175.722,196.373z M143.89,203.954
	c0.705-1.208,1.94-2.123,3.721-2.737c1.541-0.547,2.924-0.743,4.155-0.607c1.641,1.476,4.313,2.396,8.027,2.754
	c3.535,0.338,6.609,0.001,9.235-0.995c0.603,0.357,1.357,0.707,2.298,1.046c1.099,0.432,2.747,0.799,4.943,1.098
	c-1.564,0.965-2.879,1.998-3.944,3.096c-1.065,1.065-1.681,1.98-1.848,2.746c-0.167,0.932,0.083,1.498,0.749,1.697l4.094,0.15
	c0.126-0.021,0.256-0.056,0.383-0.079l-4.277,3.774l-4.218,3.063c-0.387-1.24-0.843-2.286-1.375-3.113
	c-1.265-1.997-2.247-3.029-2.946-3.096c-0.832-0.066-1.914,0.966-3.245,3.096c-1.032,1.631-1.931,3.812-2.696,6.541
	c-0.732-1.332-1.698-2.68-2.896-4.045c-1.231-1.331-2.28-2.213-3.146-2.646c-0.5-0.3-0.932-0.366-1.298-0.2
	c-0.599,0.267-1.082,0.999-1.448,2.197c-0.333,1.132-0.5,2.413-0.5,3.845l0.1,1.598l-3.965-2.902
	c-0.008-0.407-0.042-0.819-0.129-1.241c-0.333-1.731-0.483-3.895-0.45-6.492C143.217,209.732,143.444,206.883,143.89,203.954z
	 M190.8,233.671c0.766-1.364,1.148-2.497,1.148-3.396c0-0.532-0.066-0.882-0.2-1.049c-0.167-0.199-0.583-0.416-1.248-0.648
	c-0.45-0.158-0.986-0.291-1.605-0.4l1.155-2.196l1.3-2.722c0.556,0.815,1.153,1.348,1.795,1.574l0.999-0.2
	c0.31-0.201,0.626-0.483,0.946-0.835c-0.098,1.143-0.256,2.182-0.496,3.082c-0.333,1.197-0.965,2.563-1.897,4.094
	c-0.832,1.465-1.381,2.663-1.647,3.595c-0.287,1.101-0.223,2.157,0.175,3.17l-3.221-0.474
	C189.103,236.268,190.035,235.068,190.8,233.671z M136.078,228.928c1.205-0.719,2.148-1.565,2.883-2.512
	c0.314,1.853,0.779,3.545,1.411,5.059c-2.029-0.841-3.964-1.428-5.816-1.788C135.068,229.48,135.576,229.231,136.078,228.928z
	 M125.159,178.454c-0.005,0.004-0.008,0.008-0.013,0.012c0-0.006-0.002-0.011-0.002-0.017v-0.019
	C125.148,178.439,125.154,178.446,125.159,178.454z"/>
</svg>
