<?xml version="1.0" encoding="utf-8"?>
<!-- Generator: Adobe Illustrator 16.0.0, SVG Export Plug-In . SVG Version: 6.00 Build 0)  -->
<!DOCTYPE svg PUBLIC "-//W3C//DTD SVG 1.1//EN" "http://www.w3.org/Graphics/SVG/1.1/DTD/svg11.dtd">
<svg version="1.1" id="图层_1" xmlns="http://www.w3.org/2000/svg" xmlns:xlink="http://www.w3.org/1999/xlink" x="0px" y="0px"
	 width="196px" height="233px" viewBox="0 0 196 233" enable-background="new 0 0 196 233" xml:space="preserve">
<path d="M193.049,30.928c-0.68-0.408-1.468-0.649-2.349-0.749c1.137-0.967,2.004-2.033,2.599-3.202
	c0.768-1.567,0.967-3.034,0.601-4.401c-0.167-0.533-0.517-1.034-1.05-1.5l-0.788-0.432c1.144-1.476,1.993-2.965,2.538-4.469
	c0.867-2.401,0.783-4.301-0.25-5.702c-0.7-0.934-1.717-1.35-3.051-1.25c-0.887,0.081-1.725,0.401-2.526,0.908
	c0.414-1.06,0.739-2.212,0.976-3.458c0.667-3.634-0.083-5.769-2.25-6.402c-2.501-0.7-5.318,0.367-8.452,3.201
	c-2.372,2.167-3.913,4.694-4.663,7.563c-0.242-0.196-0.52-0.368-0.838-0.512l-2.251-0.25c-2.393,0.542-4.073,2.273-5.054,5.174
	c-0.422-0.73-0.953-1.127-1.598-1.173c-0.867-0.1-1.867,0.684-3.002,2.351c-1.133,1.601-2.066,3.584-2.801,5.952
	c-0.777,2.5-1.141,4.725-1.138,6.705c-0.244-0.084-0.497-0.129-0.763-0.103c-0.934,0.034-2.033,1.034-3.301,3.001
	c-0.666,0.967-0.949,2.517-0.85,4.651c0.02,0.678,0.09,1.335,0.185,1.98c-6.353-0.945-13.791-0.367-22.341,1.771
	c-8.868,2.167-16.203,5.318-22.005,9.452c-3.001,2.134-5.168,4.084-6.502,5.852c-1.518,2.043-2.333,4.265-2.445,6.666
	c-3.778,4.67-8.192,8.607-13.259,11.789c-6.568,4.134-13.303,6.368-20.205,6.702c-6.268,0.3-11.319-1.467-15.154-5.301
	c-3.234-3.201-6.218-8.669-8.952-16.404c-1.3-3.634-2.317-6.102-3.051-7.402c-1.134-1.967-2.351-3-3.651-3.101
	c-1.267-0.033-2.734,0.65-4.401,2.05c-1.734,1.434-3.301,3.318-4.701,5.652c-2.3,3.801-4.067,8.452-5.301,13.953
	c-1.2,5.335-1.8,10.97-1.8,16.904c0,11.403,2.734,22.206,8.202,32.408c1.582,2.944,3.312,5.546,5.172,7.844
	c-3.584-0.916-8.236-1.45-13.975-1.592c-7.035-0.2-12.804,0.3-17.305,1.5c-0.934,0.268-1.367,0.551-1.3,0.851l1.45,0.05
	c4.368-1.167,10.303-1.566,17.805-1.2c6.192,0.293,11.09,0.963,14.699,2.005c0.901,1.001,1.826,1.949,2.788,2.809
	c-4.603,0.262-9.777,1.368-15.537,3.338c-5.335,1.834-10.403,4.102-15.204,6.803c-0.934,0.533-1.317,0.934-1.15,1.2
	c0.167,0.267,0.717,0.134,1.65-0.4c4.501-2.567,9.753-4.802,15.754-6.702c6.058-1.897,11.332-2.93,15.836-3.112
	c5.536,4.443,12.019,6.688,19.458,6.71c0.137,1.964,0.135,3.79-0.016,5.467c-0.254-0.446-0.542-0.854-0.87-1.212
	c-0.8-0.866-1.55-1.2-2.25-1c-0.8,0.233-1.317,1.417-1.551,3.551c-0.191,1.722-0.134,3.515,0.145,5.37
	c-0.857-0.745-1.673-0.939-2.445-0.568c-1.167,0.533-1.601,2.633-1.3,6.301c0.294,3.176,1.014,6.034,2.112,8.613
	c-1.146,4.263-1.908,8.152-2.262,11.643c-0.212,2.146-0.28,4.316-0.236,6.506c-0.769,0.455-1.332,1.256-1.664,2.445
	c-0.367,1.268-0.417,2.618-0.15,4.052c0.233,1.134,0.817,2.667,1.75,4.601c0.729,1.459,1.459,2.643,2.188,3.604
	c0.167,0.632,0.326,1.263,0.512,1.897c1.601,5.468,2.451,9.736,2.551,12.803c0.1,3.768-0.833,6.803-2.801,9.103
	c-1.467,1.801-1.834,3.567-1.101,5.302c0.367,0.934,1.551,1.6,3.551,2l3.587-0.113c0.708,0.544,1.953,0.935,3.764,1.164
	c2.667,0.367,4.584,0.05,5.751-0.95c1.267-1.034,2.984-3.751,5.151-8.152c0.014-0.027,0.025-0.055,0.039-0.082
	c0.927,0.356,2.071,0.638,3.462,0.832l3.282,0.156c-0.277,0.481-0.493,0.993-0.631,1.544c-0.567,2.201,0.733,3.668,3.901,4.401
	c3.101,0.733,6.135,0.417,9.102-0.95c1.101-0.5,1.701-1.35,1.801-2.551c0.008-0.078,0.007-0.154,0.011-0.23
	c3.358-0.714,6.425-2.114,9.191-4.221c1.946-1.475,3.479-3.074,4.643-4.783c0.731-0.476,1.384-0.948,1.909-1.418
	c1.334-1.2,2.167-2.518,2.5-3.951c0.134-0.467,0.134-1.051,0-1.75c-0.07-0.39-0.166-0.724-0.284-1.01
	c0.694-0.807,1.294-1.619,1.785-2.441c1.267-2.168,1.501-3.734,0.7-4.701c-0.7-0.834-1.917-1.101-3.65-0.801
	c-0.044,0.007-0.087,0.021-0.131,0.028c-0.388-1.392-0.973-2.799-1.783-4.225c1.589-11.552,11.463-22.475,29.67-32.763
	c12.604-7.135,21.156-13.37,25.657-18.705c6.596-7.786,7.788-16.117,3.611-24.989c1.926-2.682,3.463-5.485,4.591-8.419
	c1.867-4.801,2.418-9.569,1.65-14.304c-0.758-4.638-2.724-8.701-5.869-12.204c2.79-3.706,4.966-7.439,6.52-11.202
	c3.139-7.636,3.601-15.069,1.4-22.297c3.319-0.093,5.489-0.961,6.502-2.61c0.366-0.6,0.533-1.35,0.5-2.25
	c-0.022-0.533-0.126-0.995-0.267-1.424c2.833-0.674,5.655-2.226,8.468-4.677c3.401-3,4.902-5.451,4.502-7.352
	C194.55,32.146,193.982,31.462,193.049,30.928z M160.87,92.018c3.47,5.95,3.917,11.777,1.321,17.48
	c-0.516,1.11-1.121,2.204-1.803,3.283c-2.357-1.813-5.401-3.326-9.15-4.534c-3.245-1.038-6.242-1.589-8.999-1.671
	c4.962-2.867,9.701-6.298,14.2-10.332C158.008,94.84,159.484,93.431,160.87,92.018z M152.339,142.757
	c-3.734,3.534-10.187,7.969-19.354,13.304c-9.369,5.401-15.955,9.77-19.756,13.104c-6.41,5.58-10.48,11.851-12.224,18.803
	c-3.041-2.81-6.997-5.809-11.882-9c-3.634-2.334-7.102-5.369-10.402-9.104c-2.929-3.314-4.921-6.271-5.986-8.876
	c0.011-0.026,0.023-0.049,0.035-0.075c1.534-3.602,1.634-5.852,0.3-6.752c-0.224-0.146-0.465-0.244-0.721-0.304
	c0.567-1.16,1.013-2.485,1.321-3.997c0.5-2.201,0.333-3.518-0.5-3.951c-0.538-0.304-1.162-0.339-1.864-0.135
	c0.536-3.018,0.328-4.765-0.637-5.217c-0.821-0.437-1.743-0.174-2.762,0.773c0.209-0.654,0.558-1.199,1.062-1.624
	c0.566-0.467,1.4-0.866,2.5-1.2c1.748-0.477,3.454-1.067,5.129-1.745c3.631,1.108,7.734,2.882,12.326,5.346
	c6.335,3.435,11.235,6.886,14.704,10.353c0.533,0.5,0.883,0.634,1.05,0.4c0.2-0.267,0.05-0.65-0.45-1.15
	c-3.602-3.601-8.552-7.135-14.854-10.603c-4.058-2.24-7.758-3.928-11.106-5.069c1.838-0.829,3.632-1.782,5.381-2.86l10.234,0.38
	c-0.035,1.064,0.057,2.114,0.292,3.148c0.9,3.968,3.284,6.769,7.152,8.402c3.701,1.533,8.469,1.917,14.303,1.15
	c13.171-1.701,24.924-5.785,35.26-12.253c2.963-1.86,5.627-3.814,8.014-5.856C159.862,132.859,157.679,137.729,152.339,142.757z
	 M116.58,81.241c-0.782,0.322-1.607,0.738-2.469,1.234c0.106-0.759,0.186-1.498,0.265-2.235c1.296,0.209,2.629,0.331,4.005,0.353
	C117.731,80.797,117.124,81.012,116.58,81.241z M92.474,126.353c3.854-3.691,7.286-7.96,10.313-12.785
	c1.374,0.613,2.821,1.093,4.342,1.438c-4.005,2.581-7.246,5.627-9.703,9.146c-2.004,2.875-3.145,5.656-3.456,8.348l-8.654-0.38
	C87.793,130.453,90.181,128.536,92.474,126.353z M121.331,105.598c-5.762,1.096-10.257,0.612-13.519-1.409
	c1.511-3.344,2.77-6.772,3.803-10.275c5.602-4.038,12.363-6.855,20.318-8.421c8.74-1.697,16.051-1.202,21.963,1.436
	c-3.729,3.721-8.094,7.179-13.11,10.368C133.951,101.63,127.466,104.397,121.331,105.598z M155.367,47.692
	c0.005,0.13,0.022,0.259,0.022,0.39v3.451c0.084,0.739,0.25,1.333,0.495,1.785c-6.543,7.176-13.654,12.299-21.351,15.319
	c-6.944,2.747-13.587,3.495-19.935,2.296c-0.205-2.848-0.672-5.503-1.421-7.947c-0.473-1.504-1.002-2.744-1.585-3.736
	c4.157-4.1,11.003-7.473,20.54-10.117C141.987,46.408,149.729,45.931,155.367,47.692z M143.837,127.652
	c-9.103,5.402-18.604,8.67-28.507,9.803l-6.902-0.399c-1.752-0.518-2.97-1.296-3.658-2.333c3.067,0.507,5.63,1.115,7.659,1.832
	c0.767,0.301,1.217,0.301,1.351,0c0.1-0.299-0.25-0.583-1.051-0.85c-2.22-0.803-5.048-1.48-8.438-2.042
	c-0.655-2.124,0.574-4.623,3.736-7.511c4.969-4.534,12.553-7.585,22.756-9.152c10.503-1.633,18.321-0.6,23.456,3.102
	C151.372,122.735,147.904,125.252,143.837,127.652z M160.291,79.441c-0.179,0.25-0.377,0.492-0.561,0.74
	c-4.526-2.003-9.604-3.174-15.244-3.491c-3.2-0.166-6.259-0.066-9.19,0.273c2.338-0.944,4.748-2.062,7.241-3.374
	c9.657-5.113,16.922-10.84,21.801-17.179c0.828,0.215,1.681,0.158,2.558-0.17C168.129,63.819,165.935,71.553,160.291,79.441z
	 M68.526,222.988c-0.024-0.045-0.043-0.09-0.069-0.135C68.481,222.898,68.504,222.943,68.526,222.988z M68.192,222.424
	c-0.071-0.109-0.145-0.214-0.22-0.317C68.052,222.21,68.121,222.317,68.192,222.424z M69.09,225.398
	c0.158-0.186,0.303-0.398,0.458-0.592c-0.164,0.298-0.325,0.576-0.483,0.848C69.075,225.568,69.085,225.483,69.09,225.398z"/>
</svg>
