<?xml version="1.0" encoding="utf-8"?>
<!-- Generator: Adobe Illustrator 16.0.0, SVG Export Plug-In . SVG Version: 6.00 Build 0)  -->
<!DOCTYPE svg PUBLIC "-//W3C//DTD SVG 1.1//EN" "http://www.w3.org/Graphics/SVG/1.1/DTD/svg11.dtd">
<svg version="1.1" id="图层_1" xmlns="http://www.w3.org/2000/svg" xmlns:xlink="http://www.w3.org/1999/xlink" x="0px" y="0px"
	 width="326px" height="313px" viewBox="0 0 326 313" enable-background="new 0 0 326 313" xml:space="preserve">
<path d="M324.15,145.075c-0.667-3.967-1.334-7.067-2-9.3c-0.434-1.566-1.117-2.533-2.051-2.9l-3.5,0.15l-5.25,1.85l-7.25,2.95
	c-1.133,0.466-1.816,0.233-2.05-0.7l-1.649-6.85c-0.234-0.867-0.75-1.333-1.551-1.4c-0.8-0.1-1.684,0.217-2.649,0.95l-6.851,5.25
	c-0.533,0.367-1.149,0.55-1.85,0.55l-2.35-0.55c-14.643-4.707-25.639-8.306-33.025-10.809c4.014-5.642,7.725-11.936,11.125-18.892
	c5.733-11.667,9.483-22.583,11.25-32.75c1.1-6.2,0.8-10.767-0.9-13.7c-1.098-1.914-2.521-2.842-4.26-2.807
	c0.723-1.868,1.361-3.861,1.91-5.993c1.233-4.833,1.733-9.333,1.5-13.5c-0.2-3.967-0.983-6.4-2.35-7.3
	c-0.781-0.521-1.588-0.544-2.42-0.09c0.814-4.434,1.209-8.837,1.17-13.21c-0.066-4.8-0.717-8.65-1.95-11.55
	c-1.233-2.934-2.9-4.4-5-4.4c-1.967,0-3.75,1.033-5.351,3.1c-1.17,1.526-2.144,3.463-2.926,5.804
	c-0.482-0.821-1.106-1.34-1.874-1.554c-1.433-0.4-2.917,0.134-4.45,1.6c-1.633,1.534-3.083,3.85-4.35,6.95
	c-6.367,15.433-12.6,27.433-18.7,36c-9.54,13.515-20.003,21.247-31.386,23.208c-1.406,0.07-2.824,0.175-4.264,0.342
	c-2.293,0.262-4.495,0.646-6.625,1.126c-16.503-3.182-31.576-8.761-45.215-16.742c3.089-14.668,2.543-26.702-1.66-36.084
	c-2.967-6.5-7.517-11.45-13.65-14.85c-6.1-3.333-12.5-3.967-19.2-1.9c-5.85,1.786-10.014,4.954-12.537,9.47
	c-0.321-0.425-0.644-0.841-0.963-1.27c-1.933-2.633-4.05-3.383-6.35-2.25c-1.612,0.794-2.462,2.141-2.584,4.015
	c-0.55-0.778-1.105-1.534-1.666-2.265c-5.133-6.7-9.284-9.316-12.45-7.85c-2.91,1.334-3.825,5.239-2.766,11.689
	c-2.577-0.701-5.371-0.801-8.384-0.289c-3.3,0.566-6.434,1.8-9.4,3.7c-6.1,3.9-9.767,10.067-11,18.5
	c-0.43,2.871-0.558,5.803-0.396,8.795c-3.979-2.019-8.41-2.86-13.304-2.495c-5.767,0.466-10.567,2.55-14.4,6.25
	c-5.067,4.9-7.1,11.95-6.1,21.15c1.033,9.433,5,17.717,11.9,24.85c8.434,8.733,18.917,14.017,31.45,15.85
	c1.419,0.212,2.812,0.352,4.19,0.451c-1.217,4.074-2.357,7.306-3.421,9.699C31.3,133.752,22.84,146.383,19,162.975
	c-2.633,11.434-3.033,26.518-1.2,45.25c1.1,10.934,1.65,19.684,1.65,26.25c-3.434,2.167-5.05,3.9-4.85,5.2
	c0.098,0.848,1.271,1.375,3.506,1.585c-1.729,1.845-2.303,4.048-1.707,6.615c0.633,2.8,2.367,4.867,5.2,6.2
	c2.533,1.2,5.8,1.933,9.8,2.2c4.434,0.266,8.2-0.2,11.3-1.4c1.867-0.733,2.933-2.1,3.2-4.1c0.274-1.826-0.197-3.47-1.396-4.936
	c-0.021-0.575-0.15-1.308-0.403-2.215c-0.449-1.627-1.048-3.016-1.78-4.193c3.112-2.127,6.454-5.236,10.03-9.356
	c3.223-3.771,6.023-7.614,8.442-11.523c0.147,0.112,0.296,0.223,0.458,0.323c1.833,1.133,3.833,1.533,6,1.2
	c1.016-0.141,1.921-0.44,2.728-0.881c-0.22,1.667-0.17,3.344,0.172,5.03c0.434,2.134,1.25,3.9,2.45,5.301
	c1.3,1.533,3,2.616,5.1,3.25l5.573,0.2c-0.338,5.089-0.523,10.329-0.523,15.749c-0.031,16.818,1.75,30.398,5.334,40.755
	c-2.042,2.215-3.459,3.918-4.234,5.096c-1,1.533-1.283,2.649-0.85,3.35c0.482,0.795,1.964,1.077,4.426,0.857
	c-0.352,0.78-0.581,1.609-0.676,2.493c-0.133,1.232-0.017,2.35,0.35,3.35c1.867,4.733,7.583,7.5,17.15,8.3l10.75-0.649
	c3.367-0.801,5.5-2.084,6.4-3.851c0.733-1.433,0.833-2.966,0.3-4.6c-0.502-1.536-1.49-2.9-2.961-4.096
	c0.003-0.002,0.008-0.003,0.011-0.005c0.6-0.399,0.783-1.3,0.55-2.699c-0.2-1.367-0.683-2.717-1.45-4.051
	c1.867-2.232,4.383-4.684,7.55-7.35l8.7-7c6.776-5.594,12.003-10.222,15.696-13.892c8.166,4.143,18.389,6.102,30.704,5.842
	c14.033-0.267,26.883-3.567,38.55-9.9c6.877-3.74,12.956-8.402,18.262-13.959c1.136,0.901,2.698,1.737,4.688,2.509l7.8,2.4l4.9,1.25
	c1.767,0.467,3.083,0.934,3.95,1.4c-0.5,1.533-0.75,3.083-0.75,4.649c-0.033,1.667,0.25,2.616,0.85,2.851
	c0.343,0.146,0.73,0.188,1.15,0.16c-0.143,1.982,0.787,3.729,2.8,5.239c2.667,1.967,6.649,2.95,11.95,2.95
	c3.699-0.033,6.783-0.617,9.25-1.75c2.399-1.1,3.967-2.617,4.699-4.55c0.467-1.2,0.518-2.567,0.15-4.101
	c-0.337-1.346-0.962-2.467-1.841-3.389c0.396-0.276,0.647-0.611,0.741-1.011c0.166-0.767-0.5-1.733-2-2.9
	c-1.434-1.134-3.084-2.033-4.95-2.7c1.233-8.866,1.417-18.184,0.55-27.949c-1-11.134-3.283-21.734-6.85-31.801
	c-7.236-19.657-18.849-36.314-34.826-49.979c0.801-1.083,1.527-2.182,2.179-3.299c2.203-2.234,4.333-4.625,6.39-7.173l14.957,6.952
	c9.9,4.6,16.684,7.867,20.351,9.8c-0.267,2.967-0.217,5.633,0.149,8c0.167,1.167,0.783,1.917,1.851,2.25
	c1.033,0.3,2.267,0.15,3.7-0.45l4.199-2.2c0.967-0.4,1.566-0.2,1.801,0.6l1.75,5.65l2.5,7.15c0.633,1.633,1.55,2.566,2.75,2.8
	c0.732,0.167,1.783,0,3.149-0.5c3.9-1.333,7-2.7,9.3-4.101c0.9-0.566,1.284-1.05,1.15-1.449c-0.167-0.4-0.833-0.316-2,0.25
	c-1.967,1-4.866,2.166-8.7,3.5l-2.8-0.051c-0.434-0.333-0.816-0.916-1.15-1.75c-2.133-5.333-3.566-9.35-4.3-12.05
	c-0.267-1-0.649-1.616-1.149-1.85c-0.533-0.267-1.351-0.167-2.45,0.3l-4.45,2c-0.967,0.467-1.783,0.55-2.45,0.25
	c-0.634-0.267-0.983-0.833-1.05-1.7c-0.133-2.033-0.084-4.133,0.15-6.3c0.1-0.867-0.268-1.5-1.101-1.9
	c-4.85-2.425-16.587-7.911-35.173-16.441c0.7-0.896,1.393-1.809,2.076-2.741l13.547,4.481c11.233,3.7,18.066,5.983,20.5,6.85
	l3.05,0.4c0.634-0.133,1.317-0.466,2.05-1l6.4-4.7c0.633-0.5,1.166-0.7,1.6-0.6c0.4,0.1,0.667,0.417,0.801,0.95l1.449,6.25
	c0.5,1.867,1.95,2.233,4.351,1.1c2.133-0.966,6.033-2.417,11.7-4.35l2.399-0.2c0.566,0.233,1.017,0.9,1.351,2l2.55,8.7
	c0.233,0.867,0.533,1.284,0.899,1.25C324.217,146.608,324.316,146.075,324.15,145.075z M104.85,19.575c4-1.6,8.05-1.4,12.15,0.6
	c4.467,2.167,7.383,7.05,8.75,14.65c1.156,6.296,0.963,12.045-0.545,17.259c-9.537-7.035-18.592-15.557-27.167-25.559
	C99.128,23.297,101.397,20.979,104.85,19.575z M18.15,62.975c3.067-1.967,6.7-2.083,10.9-0.35c3.484,1.41,7.015,3.985,10.59,7.689
	c2.148,4.548,4.741,8.602,7.803,12.133c0.884,2.659,1.487,5.733,1.807,9.228c0.33,3.627,0.304,6.94-0.04,9.974
	c-1.288-0.132-2.605-0.319-3.96-0.573c-4.667-0.9-9.167-2.45-13.5-4.65c-4.1-2.1-7.333-4.4-9.7-6.9c-4.267-4.466-6.7-9.633-7.3-15.5
	C14.183,68.492,15.317,64.809,18.15,62.975z M61.946,93.363c3.009,1.245,6.114,1.968,9.317,2.165
	c-2.649,2.321-5.652,4.002-9.006,5.049C62.305,98.021,62.201,95.616,61.946,93.363z M58.2,39.825c0.935,4.373,2.32,8.884,4.14,13.53
	c-0.162-0.032-0.321-0.069-0.49-0.081c-1-0.066-1.867,0.284-2.6,1.05c-1.867,1.9-2.067,5.216-0.6,9.95
	c1.763,5.716,3.786,11.193,6.058,16.439c-2.656-1.75-5.226-4.336-7.708-7.789c-2.933-4.066-5.267-8.6-7-13.6
	c-1.767-5.2-2.55-9.95-2.35-14.25c0.233-4.733,1.667-8.317,4.3-10.75c1.617-1.506,3.329-2.23,5.132-2.197
	C57.191,34.328,57.558,36.886,58.2,39.825z M61.446,114.367c6.249-1.483,11.971-4.412,17.169-8.779
	c3.325,4.695,6.94,9.122,10.834,13.292c-0.095,0.403-0.177,0.806-0.242,1.209c-5.061-3.078-11.104-4.497-18.158-4.214
	c-3.495,0.129-6.945,0.664-10.354,1.586L61.446,114.367z"/>
</svg>
