<?xml version="1.0" encoding="utf-8"?>
<!-- Generator: Adobe Illustrator 16.0.0, SVG Export Plug-In . SVG Version: 6.00 Build 0)  -->
<!DOCTYPE svg PUBLIC "-//W3C//DTD SVG 1.1//EN" "http://www.w3.org/Graphics/SVG/1.1/DTD/svg11.dtd">
<svg version="1.1" id="图层_1" xmlns="http://www.w3.org/2000/svg" xmlns:xlink="http://www.w3.org/1999/xlink" x="0px" y="0px"
	 width="126px" height="141px" viewBox="0 0 126 141" enable-background="new 0 0 126 141" xml:space="preserve">
<path d="M123.693,21.866c-1.135-1.701-2.885-2.502-5.254-2.402c-1.174,0.05-2.45,0.259-3.831,0.627
	c0.16-0.11,0.321-0.212,0.479-0.327c1.834-1.334,3.269-2.735,4.303-4.203c1.501-2.101,1.501-4.12,0-6.054
	c-1.568-1.968-3.753-2.401-6.555-1.301c-1.734,0.667-3.72,2.018-5.955,4.053c-0.987,0.928-1.899,1.862-2.754,2.801
	c0.349-1.01,0.684-2.169,1.004-3.501c0.6-2.669,0.834-4.753,0.699-6.255c-0.299-3.102-1.551-4.836-3.752-5.204
	c-1.4-0.233-2.752-0.017-4.053,0.651c-1.334,0.7-2.335,1.701-3.002,3.002c-0.635,1.301-1.034,3.269-1.201,5.904
	c-0.116,2.284-0.029,4.582,0.238,6.892c-3.032,1.083-5.254,3.081-6.643,6.018c-0.534,1.167-1.484,3.585-2.852,7.255
	c-3.069,7.672-5.287,12.876-6.655,15.611c-2.526,5.079-5.119,9.023-7.774,11.872c-1.28-1.432-3.038-2.126-5.285-2.065
	c-2.235,0.067-3.936,1.018-5.104,2.852c-0.052,0.08-0.096,0.164-0.146,0.245c-2.872-1.525-5.957-4.293-9.261-8.35
	c-3.135-3.87-6.171-8.473-9.106-13.81c-2.535-4.57-5.487-7.956-8.856-10.157c-1.447-0.957-2.885-1.606-4.314-1.953
	c0.074-1.623,0.033-3.384-0.139-5.302c-0.3-3.169-0.867-5.571-1.701-7.205c-1.501-2.936-3.719-4.07-6.655-3.403
	c-2.869,0.634-4.453,2.318-4.753,5.054c-0.234,2.168,0.066,4.67,0.9,7.505c0.275,0.979,0.647,2.084,1.108,3.303
	c-1.645-0.862-3.331-1.519-5.061-1.952c-1.835-0.467-3.519-0.634-5.054-0.5c-3.036,0.267-4.887,1.584-5.554,3.953
	c-0.601,2.168-0.167,3.869,1.301,5.104c0.881,0.705,2.188,1.286,3.87,1.758c-2.239,0.526-3.918,1.387-5.021,2.595
	c-1.234,1.368-1.601,2.935-1.101,4.703c0.667,2.102,2.535,3.286,5.604,3.553c2.494,0.198,4.684-0.212,6.576-1.217
	c0.328,1.916,1.01,3.791,2.08,5.62c3.703,6.305,9.023,11.091,15.961,14.36c5.573,2.648,11.83,4.138,18.75,4.504
	c-4.18,2.033-7.829,4.866-10.944,8.505c-6.071,7.071-8.706,15.511-7.906,25.317c0.142,1.717,0.391,3.367,0.74,4.955
	c-1.075,0.598-2.313,1.183-3.742,1.749l-6.705,2.002c-1.501,0.334-2.685,1.268-3.552,2.803c-0.767,1.434-1.051,2.868-0.851,4.303
	c0.167,1.567,0.867,2.885,2.102,3.953c1.434,1.233,3.319,1.801,5.654,1.701c4.15-0.245,7.989-2.269,11.525-6.03
	c1.474,2.184,3.248,4.18,5.336,5.979c1.417,1.226,2.928,2.298,4.522,3.233c-0.783,3.144-1.059,5.888-0.819,8.226
	c0.3,3.201,1.535,5.203,3.703,6.004c2.369,0.9,4.653,0.383,6.855-1.551c2.095-1.846,3.7-4.612,4.828-8.275
	c2.513,0.204,5.156,0.193,7.931-0.031c3.584-0.284,6.941-0.973,10.076-2.059c0.921,2.427,2.099,4.314,3.533,5.661
	c1.969,1.835,4.153,2.285,6.555,1.351c4.718-1.804,6.184-7.313,4.41-16.509c5.408-5.858,8.008-12.718,7.808-20.575
	c2.882-1.066,5.684-2.438,8.397-4.145c3.202-2.035,5.32-3.953,6.354-5.754c1.534-2.636,1.817-5.204,0.851-7.706
	c-0.934-2.435-2.585-3.753-4.953-3.952c-2.602-0.201-5.271,0.967-8.006,3.502l-5.053,5.316c-2.032-5.484-5.314-10.145-9.857-13.973
	c-2.604-2.19-5.375-3.916-8.308-5.187c5.976-1.552,11.963-4.539,17.964-8.973c8.105-6.038,13.01-12.826,14.711-20.365
	c0.516-2.261,0.676-4.392,0.515-6.404l5.038,0.25c2.636-0.267,4.453-1.084,5.455-2.452
	C124.744,25.468,124.861,23.634,123.693,21.866z"/>
</svg>
