<?xml version="1.0" encoding="utf-8"?>
<!-- Generator: Adobe Illustrator 16.0.0, SVG Export Plug-In . SVG Version: 6.00 Build 0)  -->
<!DOCTYPE svg PUBLIC "-//W3C//DTD SVG 1.1//EN" "http://www.w3.org/Graphics/SVG/1.1/DTD/svg11.dtd">
<svg version="1.1" id="图层_1" xmlns="http://www.w3.org/2000/svg" xmlns:xlink="http://www.w3.org/1999/xlink" x="0px" y="0px"
	 width="195px" height="243px" viewBox="0 0 195 243" enable-background="new 0 0 195 243" xml:space="preserve">
<path d="M193.766,111.381l1.049-0.2l-0.6-0.8c-3.197-3.298-8.328-6.113-15.391-8.445c-7.895-2.631-15.323-3.514-22.285-2.648
	c4.164-3.431,9.977-7.562,17.438-12.392c7.528-4.897,13.175-8.178,16.94-9.844c0.666-0.3,0.949-0.566,0.849-0.8
	c-0.1-0.167-0.433-0.283-0.999-0.35c-7.861-0.833-14.758-0.883-20.688-0.15c-6.129,0.799-11.76,2.499-16.89,5.097
	c2.466-2.932,6.362-8.328,11.692-16.19l7.396-10.543c2.664-3.631,4.797-6.263,6.396-7.895c0.267-0.267,0.35-0.5,0.25-0.7
	c-0.101-0.233-0.333-0.333-0.7-0.3c-6.129,0.2-12.975,2.232-20.537,6.096c-7.596,3.898-14.357,8.845-20.287,14.841
	c0.933-3.964,3.781-11.209,8.545-21.736c4.996-11.126,8.828-18.322,11.492-21.587c0.334-0.433,0.367-0.733,0.101-0.899l-1.249,0.1
	c-7.329,2.832-14.508,7.845-21.537,15.041c-6.763,6.996-12.509,15.107-17.239,24.335c0.767-8.162,3.198-18.789,7.296-31.88
	c4.363-13.925,8.478-23.352,12.342-28.282c1.033-1.233,0.8-1.549-0.699-0.95c-7.129,2.832-14.074,7.912-20.838,15.241
	c-6.729,7.329-12.393,15.923-16.989,25.784c-3.231,6.996-5.729,14.241-7.495,21.736c-1.099-3.931-1.832-10.01-2.199-18.239
	c-0.366-8.128-0.2-14.491,0.5-19.088l-0.05-0.95c-0.2-0.267-0.533-0.1-1,0.5c-3.331,4.431-6.096,10.743-8.294,18.938
	c-2.332,8.828-3.315,17.489-2.948,25.984c-1.466-3.431-2.948-7.678-4.447-12.742c-1.499-4.997-2.282-8.362-2.349-10.094
	c-0.033-0.533-0.2-0.833-0.5-0.9c-0.3-0.033-0.533,0.2-0.699,0.7c-2.532,7.995-2.932,17.106-1.199,27.333
	c1.054,6.141,2.544,11.24,4.449,15.348c-1.411-0.958-3.287-2.008-5.648-3.156c-3.731-1.833-6.413-2.749-8.045-2.749
	c-0.999,0-1.132,0.333-0.399,1c2.598,2.532,5.563,6.346,8.895,11.443c3.486,5.399,5.757,9.959,6.843,13.702l-4.594-0.76l-7.445-0.5
	c-0.4,0.033-0.6,0.2-0.6,0.5c0.033,0.333,0.183,0.55,0.45,0.65c1.999,0.766,4.447,2.648,7.345,5.646
	c2.134,2.183,3.526,3.954,4.195,5.325c-2.102,7.173-5.393,12.39-9.885,15.637c-2.766-0.279-5.436-0.247-8.013,0.089
	c-1.977-2.424-4.566-4.695-7.784-6.81c-3.364-2.231-5.613-3.148-6.746-2.748c-1.499,0.5-2.915,3.631-4.248,9.395
	c-1.182,5.196-1.805,10.275-1.883,15.238c-0.372,0.759-0.732,1.536-1.065,2.351c-0.854,2.135-1.38,3.999-1.586,5.599
	c-5.98,3.383-10.255,8.041-12.805,13.989c-1.131,2.623-1.827,5.183-2.103,7.683c-2.999,0.677-6.243,1.975-9.74,3.91
	c-3.864,2.133-6.263,4.098-7.195,5.896c-0.233,0.434-0.316,0.717-0.25,0.85l0.75,0.25c1.333,0.232,4.348-0.267,9.044-1.5
	l6.136-1.903c-0.394,0.49-0.821,1.054-1.289,1.704c-1.299,1.832-2.115,3.215-2.449,4.147c-0.233,0.566-0.2,0.85,0.1,0.85
	l1.149-0.351c2.036-0.752,3.836-1.84,5.429-3.224c0.753,1.509,1.744,2.87,2.971,4.084c-0.406,2.656-0.643,5.88-0.705,9.684
	c-0.064,3.761,0.057,6.767,0.359,9.034c-1.202,0.521-2.681,1.463-4.457,2.858c-2.065,1.633-3.015,2.765-2.848,3.397l0.4,0.301
	l0.6,0.25l3.148-0.101l2.964-0.4c-0.15,0.255-0.304,0.519-0.466,0.8c-1.366,2.433-1.916,3.932-1.649,4.498
	c0.066,0.166,0.266,0.283,0.6,0.35c0.666,0.066,2.249-0.583,4.747-1.949l2.515-1.625c-0.136,0.304-0.274,0.62-0.416,0.976
	c-0.633,1.632-0.933,2.849-0.899,3.647c0.033,0.666,0.133,1.033,0.3,1.1l1.499-0.25c1.132-0.433,2.632-1.266,4.497-2.498
	c1.419-0.909,2.386-1.66,2.919-2.26l3.777-0.838c0.866-0.301,1.549-0.8,2.049-1.5l3.897-6.945l3.124-5.563
	c4.202,1.948,8.836,2.746,13.916,2.365c5.041-0.36,9.678-1.787,13.915-4.271c2.389,3.766,4.548,6.447,6.473,8.019
	c0.566,0.466,0.916,0.583,1.049,0.35l-0.05-0.899c-0.231-1.379-0.517-2.881-0.85-4.489c1.317,1.39,2.377,2.993,3.148,4.839
	c1.366,3.198,2.182,7.445,2.448,12.742c0.002,0.01,0.01,0.016,0.013,0.024c-0.052,0.063-0.114,0.106-0.163,0.176l-2.348,3.947
	c-1.433,2.698-1.899,4.298-1.399,4.797l0.7,0.2c0.533-0.066,1.582-0.517,3.148-1.35c1.226-0.641,2.303-1.269,3.249-1.886
	c-0.117,0.511-0.234,1.052-0.351,1.636c-0.566,2.932-0.633,4.664-0.2,5.197c0.233,0.233,0.5,0.316,0.8,0.25
	c0.799-0.133,2.165-1.283,4.097-3.448c1.08-1.191,1.922-2.231,2.544-3.132c-0.03,0.758-0.046,1.726-0.046,2.932
	c0,3.165,0.35,4.881,1.049,5.147c0.301,0.134,0.667-0.017,1.1-0.45c0.767-0.566,1.898-1.981,3.398-4.247
	c1.078-1.663,1.769-2.961,2.09-3.911l0.408-0.186c1.133-0.533,1.999-1.066,2.599-1.6c0.7-0.633,1.266-1.499,1.698-2.599
	c0.9-2.165,1.967-6.079,3.199-11.743c1.365-6.396,1.948-10.876,1.748-13.441l-0.6-3.498l-0.949-3.797
	c-1.014-4.148-1.646-7.17-1.906-9.09c1.578-0.679,3.328-2.387,5.254-5.152l5.447-8.794l2.998-4.997
	c0.859-1.358,1.62-2.337,2.295-2.98c1.479,2.202,2.8,4.786,3.951,7.777c2.165,5.664,2.965,10.627,2.398,14.891h0.007
	c-0.552,0.871-1.152,2.079-1.806,3.648c-0.967,2.332-1.232,3.748-0.8,4.247l1.55-0.499l3.497-2.149l1.923-1.473
	c-0.042,0.387-0.083,0.81-0.123,1.272c-0.201,2.166-0.15,3.582,0.149,4.248l0.499,0.449l0.85-0.5l2.949-3.147
	c0.616-0.672,1.098-1.231,1.461-1.692c0.047,0.729,0.157,1.603,0.338,2.643c0.332,1.932,0.648,3.297,0.949,4.097
	c0.199,0.533,0.449,0.767,0.749,0.7l1.1-1.05c1.906-2.725,3.065-5.007,3.502-6.862c4.322-3.331,6.615-5.78,6.841-7.329
	c0.733-5.196,1.199-11.11,1.4-17.739c0.194-5.323,0.155-8.833-0.116-10.542c4.73,2.265,9.284,3.687,13.657,4.246
	c0.666,0.101,0.717-0.25,0.15-1.05c-0.4-0.499-1.166-1.865-2.299-4.097c-1.533-3.265-2.799-5.681-3.798-7.245
	c-1.966-3.132-4.347-5.997-7.146-8.596c3.531,0.934,6.68,1.999,9.443,3.198l0.95,0.149l-0.05-0.499
	c-1.832-2.731-3.481-4.931-4.947-6.596c-2.299-2.565-4.78-4.581-7.445-6.046c6.229,0.699,15.79,3.381,28.682,8.045
	c1.066,0.365,1.3,0.066,0.7-0.9c-7.196-11.793-15.874-19.438-26.034-22.936c2.665-1.199,6.796-2.065,12.393-2.598
	C179.391,111.147,186.203,111.015,193.766,111.381z"/>
</svg>
