<?xml version="1.0" encoding="utf-8"?>
<!-- Generator: Adobe Illustrator 16.0.0, SVG Export Plug-In . SVG Version: 6.00 Build 0)  -->
<!DOCTYPE svg PUBLIC "-//W3C//DTD SVG 1.1//EN" "http://www.w3.org/Graphics/SVG/1.1/DTD/svg11.dtd">
<svg version="1.1" id="图层_1" xmlns="http://www.w3.org/2000/svg" xmlns:xlink="http://www.w3.org/1999/xlink" x="0px" y="0px"
	 width="289px" height="303px" viewBox="0 0 289 303" enable-background="new 0 0 289 303" xml:space="preserve">
<path d="M287.361,167.85c-0.266-0.232-0.882,0.15-1.848,1.148c-3.66,3.762-7.871,6.807-12.631,9.137
	c-4.992,2.396-10.052,3.729-15.178,3.994c-5.325,0.267-10.634-0.615-15.926-2.646c-5.092-1.963-9.785-4.842-14.079-8.637
	c-5.625-4.959-11.949-13.529-18.972-25.712l-7.439-13.08c-1.866-3.242-3.44-5.744-4.727-7.518
	c5.186,2.858,10.538,6.161,16.061,9.914c1.797,1.198,2.813,1.648,3.045,1.348c0.199-0.266-0.133-1.231-0.998-2.896
	c-4.76-9.137-12.584-18.313-23.464-27.527c-11.013-17.87-24.97-30.456-41.89-37.726c-5.281-2.279-10.697-3.95-16.239-5.052
	c7.991-6.932,16.543-12.812,25.674-17.614c10.119-5.292,22.301-9.985,36.547-14.079c1.164-0.333,1.73-0.632,1.697-0.899
	c0-0.266-0.683-0.583-2.047-0.948c-22.867-5.692-46.232-5.492-70.096,0.599c-7.585,1.941-14.587,4.324-21.011,7.144
	c3.231-4.725,8.016-10.48,14.371-17.279c5.525-5.924,10.8-11.167,15.826-15.727c1.265-1.165,1.797-1.897,1.598-2.197
	c-0.167-0.233-1.082-0.35-2.746-0.35C112.588,1.181,94.065,7.521,77.323,20.27c-5.978,4.547-11.399,9.708-16.288,15.456
	c0.707-10.742,3.736-21.752,9.099-33.03c0.699-1.431,0.898-2.28,0.599-2.546c-0.3-0.3-1.198-0.05-2.696,0.749
	C55.456,7.755,44.339,20.203,34.687,38.243c-5.109,9.569-8.93,19.034-11.483,28.397c-0.207-1.292-0.407-2.734-0.599-4.333
	c-0.765-6.69-0.948-13.414-0.549-20.17c0.167-2.729,0-4.044-0.5-3.944c-0.299,0.066-1.098,1.015-2.396,2.846
	c-6.39,9.885-11.2,21.318-14.428,34.299c-3.096,12.415-4.527,25.329-4.294,38.742c0.2,13.313,2.03,25.961,5.492,37.943
	c3.514,12.104,8.421,22.558,14.703,31.386c-0.258,1.46-0.558,2.889-0.923,4.262c-0.932,3.495-2.563,7.489-4.893,11.981
	c-1.398,2.664-1.797,5.442-1.198,8.338c0.599,3.063,2.313,7.938,5.142,14.629c2.53,5.924,3.895,10.551,4.094,13.879
	c0.266,4.494,0.632,7.04,1.098,7.639c0.366,0.566,2.962,2.247,7.789,5.043c1.697,0.998,3.478,2.23,5.342,3.694l3.789,2.851
	c0.427,0.589,0.977,1.039,1.653,1.344l7.938,2.945c3.095,0.965,4.76,1.281,4.993,0.948c0.266-0.399-0.683-2.146-2.846-5.242
	c-0.711-1.044-1.353-1.945-1.933-2.724c1.146,0.549,2.56,1.155,4.279,1.825c3.794,1.464,5.825,2.063,6.091,1.798
	c0.366-0.367-0.633-2.431-2.996-6.191c-0.38-0.607-0.741-1.163-1.093-1.693c6.201,1.325,9.413,1.74,9.63,1.244
	c0.3-0.699-1.198-2.796-4.493-6.291c-2.889-3.029-5.084-4.683-6.603-4.994c-4.487-4.001-7.31-7.021-8.425-9.035
	c-0.865-1.498-1.215-4.193-1.048-8.088l0.396-4.839c4.942-0.975,9.341-2.366,13.204-4.168c8.635,3.271,18.436,6.242,29.437,8.907
	c12.965,3.111,25.293,5.188,36.996,6.248c0.65,1.86,1.223,3.568,1.697,5.085l1.098,4.294c0.133,0.998,0.133,1.963,0,2.896
	l-1.547,5.491c-0.466,2.563,0.116,5.376,1.748,8.438c2.163,4.095,5.092,9.188,8.787,15.277c2.596,4.793,3.911,8.871,3.944,12.232
	c0,2.629,0.1,4.277,0.299,4.942c0.466,1.465,1.731,2.663,3.794,3.595l7.141,3.346l5.247,2.377c0.944,0.818,3.425,2.136,7.483,3.963
	c4.526,2.031,7.023,2.796,7.488,2.297c0.434-0.433-0.549-2.279-2.945-5.542l-3.12-4.044c1.296,0.542,3.148,1.142,5.567,1.797
	c3.96,1.133,6.09,1.448,6.39,0.949c0.4-0.679-1.789-3.476-6.56-8.383l7.608,1.144l4.593-0.2c0.467-0.799-1.531-2.828-5.99-6.09
	c-4.322-3.226-7.145-4.652-8.498-4.316c-1.134-0.84-2.102-1.793-2.886-2.873c-0.799-1.065-1.614-2.563-2.446-4.494l-3.146-7.289
	c-1.331-3.162-1.98-5.259-1.946-6.291c0.033-1.064,0.799-4.676,2.296-10.834l2.512-10.179c15.243,4.329,28.28,8.72,39.077,13.175
	c1.688,0.724,4.037,2.454,7.035,5.17c-0.088,0.841-0.072,1.372,0.054,1.57l1.468-0.16l5.871,5.552
	c0.391,0.315,0.796,0.597,1.203,0.875l1.094,1.372c1.331,1.598,2.047,2.779,2.146,3.545l0.5,2.846
	c0.266,0.832,0.665,1.431,1.197,1.797c0.533,0.366,1.598,0.699,3.195,0.998l5.293,0.999l7.536,1.875
	c0.466,0.31,0.981,0.58,1.601,0.771l7.139,1.698l4.893,0.399c0.199-0.399-1.131-1.897-3.994-4.493
	c-0.013-0.012-0.024-0.021-0.036-0.033c0.028,0.01,0.059,0.024,0.087,0.033l5.592,1.397l3.943,0.15
	c0.199-0.456-0.988-1.82-3.54-4.077l4.438,0.433l2.197-0.3c0.033-0.732-1.581-2.181-4.844-4.344
	c-3.123-2.113-5.155-3.077-6.126-2.918c-1.246-0.427-2.161-1.013-2.71-1.774c-0.305-0.443-0.572-1.154-0.808-2.104
	c0.64-0.199,1.229-0.473,1.756-0.843c1.231-0.898,2.13-2.296,2.696-4.194c0.431-1.492,0.584-3.155,0.495-4.969
	c1.153-0.125,2.271-0.375,3.349-0.771c5.293-1.898,8.154-5.726,8.588-11.483c0.387-5.522-1.63-9.817-6.035-12.896
	c0.712-1.315,1.17-2.856,1.369-4.627c8.251-4.856,14.8-11.679,19.644-20.471c4.859-8.82,7.405-18.473,7.639-28.957
	C287.694,168.949,287.595,168.05,287.361,167.85z"/>
</svg>
