<?xml version="1.0" encoding="utf-8"?>
<!-- Generator: Adobe Illustrator 16.0.0, SVG Export Plug-In . SVG Version: 6.00 Build 0)  -->
<!DOCTYPE svg PUBLIC "-//W3C//DTD SVG 1.1//EN" "http://www.w3.org/Graphics/SVG/1.1/DTD/svg11.dtd">
<svg version="1.1" id="图层_1" xmlns="http://www.w3.org/2000/svg" xmlns:xlink="http://www.w3.org/1999/xlink" x="0px" y="0px"
	 width="141px" height="175px" viewBox="0 0 141 175" enable-background="new 0 0 141 175" xml:space="preserve">
<path d="M138.642,116.1c-1.489-3.688-4.168-6.332-8.015-7.945c2.132-9.605,2.582-19.728,1.32-30.371
	c-0.466-2.919-1.128-6.049-1.97-9.372c2.252-0.786,4.211-2.332,5.866-4.666c1.133-1.732,1.915-3.68,2.348-5.845
	c0.467-2.298,0.45-4.446-0.049-6.445c-0.533-2.265-1.466-4.28-2.799-6.045c-1.299-1.732-2.93-3.097-4.895-4.096
	c-2.099-1.033-4.43-1.582-6.994-1.648c-2.283-0.058-4.394,0.284-6.351,0.979c-4.704-6.531-10.306-11.996-16.83-16.366
	c-6.795-4.53-14.07-7.515-21.813-8.989c-0.075-1.804-0.482-3.619-1.267-5.448c-0.933-2.098-2.182-3.93-3.747-5.495
	c-3.164-3.064-7.16-4.496-11.99-4.296c-2.298,0.066-4.529,0.616-6.694,1.648c-2.099,0.999-3.93,2.365-5.496,4.097
	c-1.632,1.798-2.848,3.997-3.647,6.594c-0.737,2.272-1.044,4.588-0.96,6.945c-7.53,3.54-14.178,8.656-19.922,15.385
	c-3.552,4.175-6.572,8.82-9.104,13.897c-4.271,0.05-7.933,1.59-10.979,4.637c-3.13,3.131-4.679,6.877-4.646,11.241
	c0.033,4.796,1.615,8.759,4.746,11.89c0.85,0.841,1.763,1.554,2.726,2.162C7.05,84.21,7.11,89.706,7.704,95.019
	c1.088,9.732,3.764,18.72,7.992,26.975c-0.182,0.168-0.37,0.323-0.548,0.501c-3.098,3.098-4.629,6.828-4.596,11.191
	c0.033,4.695,1.599,8.592,4.696,11.689c3.131,3.098,7.078,4.629,11.84,4.596c3.752,0,7.033-1.153,9.849-3.443
	c4.556,3.182,9.545,5.733,14.98,7.641c3.858,1.34,7.84,2.319,11.939,2.954l0.5,2.091c0.533,1.832,1.282,3.531,2.249,5.096
	c3.097,5.096,7.71,8.193,13.838,9.293c5.462,0.766,9.925-0.184,13.389-2.848c1.665-1.299,3.047-3.031,4.146-5.196
	c0.898-1.798,1.449-3.58,1.648-5.345c0.274-2.742-0.029-5.292-0.868-7.662c7.553-3.893,14.053-9.519,19.494-16.884
	c0.411,0.225,0.83,0.431,1.257,0.616c1.666,0.699,3.48,1.032,5.445,0.999c1.898-0.067,3.73-0.45,5.496-1.149
	c3.763-1.531,6.477-4.263,8.143-8.193C140.156,123.811,140.174,119.863,138.642,116.1z M123.853,41.272l-3.769,0.13
	c1.033-0.17,2.09-0.236,3.171-0.188C123.457,41.224,123.652,41.255,123.853,41.272z"/>
</svg>
