<?xml version="1.0" encoding="utf-8"?>
<!-- Generator: Adobe Illustrator 16.0.0, SVG Export Plug-In . SVG Version: 6.00 Build 0)  -->
<!DOCTYPE svg PUBLIC "-//W3C//DTD SVG 1.1//EN" "http://www.w3.org/Graphics/SVG/1.1/DTD/svg11.dtd">
<svg version="1.1" id="图层_1" xmlns="http://www.w3.org/2000/svg" xmlns:xlink="http://www.w3.org/1999/xlink" x="0px" y="0px"
	 width="120px" height="195px" viewBox="0 0 120 195" enable-background="new 0 0 120 195" xml:space="preserve">
<path d="M118.355,135.772c1.096-3.09,1.146-7.491,0.149-13.206c-1.097-5.947-2.856-10.1-5.282-12.459
	c-1.528-1.461-3.571-2.607-6.129-3.438c-1.812-0.584-4.269-1.109-7.355-1.579c-1.694-3.552-4.143-7.162-7.346-10.83
	c-3.223-3.688-9.469-9.501-18.738-17.442c-6.946-5.968-11.505-10.72-13.688-14.263c0.465,0.535,0.954,1.057,1.479,1.556
	c4.717,4.518,10.98,6.645,18.787,6.379c6.545-0.2,12.094-2.509,16.645-6.927c4.884-4.784,7.143-10.814,6.777-18.089
	c-0.266-5.449-2.392-10.25-6.379-14.402c-4.617-4.851-10.631-7.375-18.039-7.575c-6.498-0.166-12.186,1.986-17.063,6.453
	c0.421-1.931,0.614-3.962,0.566-6.104c-0.133-6.146-2.491-11.545-7.076-16.196c-4.851-4.917-10.781-7.375-17.791-7.375
	c-6.91,0-12.907,2.409-17.99,7.226c-5.116,4.851-7.674,10.598-7.674,17.243c0,6.544,2.143,12.043,6.428,16.495
	c4.851,5.017,11.528,7.525,20.033,7.525c1.363,0,2.694-0.128,4-0.357c1.433,4.013,1.918,6.569,1.432,7.633
	c-0.347,0.726-1.02,1.328-1.996,1.813c-0.667-0.998-1.399-1.972-2.24-2.91c-4.385-4.851-9.9-7.276-16.545-7.276
	c-6.811,0-12.475,2.375-16.993,7.126C2.11,59.211,0,64.311,0,70.091c0,6.645,2.359,12.027,7.076,16.146
	c4.485,3.92,10.017,5.881,16.595,5.881c6.412,0,11.778-2.209,16.097-6.628c4.12-4.187,6.179-9.153,6.179-14.9
	c0-0.956-0.073-1.887-0.178-2.806c0.774,0.047,1.338,0.215,1.673,0.514c0.764,0.698,0.731,3.256-0.1,7.674
	c-1.163,6.046-3.754,13.007-7.774,20.88c-3.974,7.788-6.126,15.812-6.487,24.07c-4.982,4.443-8.116,8.598-9.361,12.459
	c-0.797,2.524-0.498,6.512,0.897,11.959c1.395,5.482,3.139,9.27,5.232,11.363c1.506,1.494,3.264,2.795,5.24,3.929
	c3.593,6.396,9.518,11.136,17.783,14.21c0.137,0.051,0.276,0.089,0.414,0.139c-2.216,1.905-3.75,4.466-4.6,7.686
	c-0.963,3.688-0.498,6.362,1.396,8.023c2.957,2.691,7.309,2.658,13.057-0.1c5.81-2.81,9.744-7.154,11.843-13.001
	c1.357-0.138,2.723-0.311,4.104-0.554c4.016-0.693,7.729-1.824,11.173-3.342c0.548,0.51,1.473,0.828,2.781,0.949l3.082-0.365
	c1.084,1.404,2.448,2.274,4.094,2.607c2.857,0.632,5.78-0.348,8.771-2.939c3.422-2.957,5.632-7.16,6.629-12.608
	c0.83-4.552,0.58-8.438-0.748-11.661c-0.417-1.022-0.923-1.895-1.497-2.648c0.368-1.285,0.692-2.601,0.96-3.953
	C116.073,140.75,117.419,138.317,118.355,135.772z M55.064,52.335l-0.347-0.184c-0.299-0.299-0.764-1.528-1.396-3.688
	c-0.521-1.753-0.874-3.124-1.078-4.154c0.872-0.618,1.733-1.277,2.573-2.025c0.086-0.077,0.165-0.157,0.25-0.235
	c-0.331,1.587-0.499,3.243-0.499,4.969C54.568,48.887,54.741,50.655,55.064,52.335z"/>
</svg>
