<?xml version="1.0" encoding="utf-8"?>
<!-- Generator: Adobe Illustrator 16.0.0, SVG Export Plug-In . SVG Version: 6.00 Build 0)  -->
<!DOCTYPE svg PUBLIC "-//W3C//DTD SVG 1.1//EN" "http://www.w3.org/Graphics/SVG/1.1/DTD/svg11.dtd">
<svg version="1.1" id="图层_1" xmlns="http://www.w3.org/2000/svg" xmlns:xlink="http://www.w3.org/1999/xlink" x="0px" y="0px"
	 width="184px" height="248px" viewBox="0 0 184 248" enable-background="new 0 0 184 248" xml:space="preserve">
<path d="M177.705,173.008c-2.829-1.299-6.341-0.849-10.535,1.348c-3.895,2.064-7.49,5.11-10.785,9.139
	c-5.56-0.134-15.297-1.482-29.211-4.045c-3.309-0.603-6.401-1.189-9.285-1.761c-1.207-1.808-2.871-2.986-4.995-3.532
	c-2.32-0.596-4.467-0.226-6.441,1.094c-2.243-0.521-4.274-1.027-6.097-1.518c6.691-1.605,11.863-3.608,15.538-6.001
	c2.917,1.872,6.204,2.929,9.882,3.13c5.959,0.332,11.102-1.249,15.43-4.744c4.094-3.328,6.874-7.906,8.339-13.731
	c1.464-5.958,1.298-12.3-0.499-19.024c-1.932-7.289-5.609-14.18-11.035-20.671c5.559-0.1,8.139-3.912,7.739-11.435
	c-0.313-6.117-2.319-12.772-5.974-19.953c3.846-0.63,7.421-1.831,10.717-3.615c4.028-2.131,6.143-4.444,6.342-6.941
	c0.366-4.76-0.683-11.035-3.146-18.824c-2.475-7.703-5.533-14.055-9.16-19.091c1.225-0.728,2.386-1.624,3.469-2.729
	c3.361-3.429,4.993-7.64,4.893-12.633c-0.1-5.326-2.097-9.67-5.991-13.032c-3.562-3.029-7.474-4.411-11.734-4.145
	c-4.927,0.366-8.954,2.247-12.083,5.642c-3.129,3.429-4.66,7.673-4.594,12.733c0.066,4.028,1.681,7.64,4.844,10.835
	c3.423,3.457,7.645,5.27,12.661,5.441l-0.578,19.825c-13.614-11.551-23.784-14.664-30.509-9.337
	c-5.921,4.655-7.903,14.26-5.963,28.794C79.124,69.63,64.974,70.143,56.52,75.79c-6.851,4.567-9.455,11.892-7.833,21.958
	c-8.174,1.41-15.045,4.446-20.579,9.149c-5.459,4.594-8.938,10.12-10.436,16.578c-1.498,6.325-0.815,12.216,2.047,17.676
	c3.029,5.792,7.989,9.97,14.88,12.532c0.044,0.017,0.075,0.004,0.109-0.002c1.672,2.762,3.825,5.395,6.481,7.892
	c6.543,6.167,14.247,10.229,23.107,12.19c-3.927,1.927-10.723,4.503-20.411,7.732c-12.117,3.994-20.971,6.309-26.564,6.941
	c-3.895-2.73-7.39-4.312-10.485-4.744c-2.763-0.366-4.727,0.199-5.892,1.697c-2.13,2.697-1.082,5.809,3.146,9.338
	c4.194,3.429,8.372,4.844,12.533,4.244c2.996-0.433,9.354-2.463,19.074-6.092c9.88-3.705,18.492-7.383,25.864-11.032
	c-0.37,0.886-0.736,1.795-1.098,2.743c-0.716,1.886-1.341,3.723-1.881,5.514c-2.093-0.309-4.344-0.035-6.757,0.828
	c-3.329,1.198-5.526,3.246-6.591,6.142c-0.965,2.663-0.832,5.243,0.399,7.739c1.126,2.193,2.851,3.803,5.165,4.835
	c-0.911,2.947-0.707,5.697,0.628,8.247c1.398,2.73,3.678,4.494,6.84,5.293c1.07,0.265,2.106,0.4,3.116,0.434
	c1.822,6.238,5.743,11.907,11.814,16.993c5.359,4.46,9.238,6.574,11.634,6.341c1.365-0.133,2.747-1.947,4.145-5.442
	c1.324-3.343,1.999-6.595,2.039-9.758c4.845-1.098,9.144-3.501,12.892-7.22c4.564-4.564,7.342-10.257,8.368-17.057
	c3.807-1.717,7.278-4.28,10.405-7.709c3.296-3.596,4.994-6.691,5.094-9.287c0.018-0.653-0.256-1.326-0.801-2.019
	c17.848,4.209,28.924,6.483,33.207,6.812c2.963,0.2,6.074-0.633,9.337-2.496c2.963-1.698,5.526-3.912,7.689-6.641
	c2.13-2.73,3.313-5.293,3.546-7.69C180.984,175.854,179.969,174.039,177.705,173.008z"/>
</svg>
