<?xml version="1.0" encoding="utf-8"?>
<!-- Generator: Adobe Illustrator 16.0.0, SVG Export Plug-In . SVG Version: 6.00 Build 0)  -->
<!DOCTYPE svg PUBLIC "-//W3C//DTD SVG 1.1//EN" "http://www.w3.org/Graphics/SVG/1.1/DTD/svg11.dtd">
<svg version="1.1" id="图层_1" xmlns="http://www.w3.org/2000/svg" xmlns:xlink="http://www.w3.org/1999/xlink" x="0px" y="0px"
	 width="281px" height="237px" viewBox="0 0 281 237" enable-background="new 0 0 281 237" xml:space="preserve">
<path d="M270.282,52.033c-4.494-10.121-11.785-17.711-21.872-22.771c-2.497-1.265-3.813-1.714-3.945-1.348
	c-0.133,0.267,0.649,1.298,2.348,3.096c3.929,4.228,6.459,9.555,7.59,15.98c1.133,6.658,0.316,12.268-2.446,16.829
	c-3.86,6.392-10.67,11.103-20.424,14.132c-3.418,1.068-6.759,1.817-10.027,2.274c-3.914-2.794-8.151-4.879-12.7-6.276
	c1.746-4.887,2.389-10.143,1.904-15.773c-0.934-10.454-5.427-19.042-13.482-25.768c-8.041-6.711-17.291-9.625-27.752-8.743
	c-2.129-5.914-5.841-11.025-11.148-15.327c-7.857-6.358-16.846-9.105-26.966-8.24c-10.121,0.866-18.427,5.094-24.918,12.684
	c-2.328,2.708-4.176,5.573-5.563,8.589c-3.07-0.513-6.241-0.634-9.518-0.35c-10.953,0.965-19.925,5.443-26.916,13.433
	c-5.876,6.735-8.973,14.419-9.311,23.047c-14.233-0.573-25.995,2.863-35.283,10.311C12.427,73.738,7,81.778,3.571,91.932
	c-3.895,11.652-4.361,24.386-1.398,38.202c1.265,5.927,3.046,11.087,5.343,15.48c1.708,3.293,3.509,5.792,5.402,7.501
	c3.341,3.973,7.266,5.937,11.776,5.882c3.928-0.033,7.058-1.349,9.388-3.944c2.397-2.664,3.878-6.592,4.444-11.785
	c0.033-1.465-0.05-2.313-0.25-2.547c-0.233-0.3-0.716,0.051-1.448,1.049c-3.995,5.859-9.022,7.808-15.081,5.842
	c-4.095-1.297-7.757-4.478-10.986-9.536c-0.225-0.353-0.427-0.716-0.639-1.072c-0.528-4.956-0.303-9.776,0.689-14.459
	c1.931-8.888,6.375-16.262,13.333-22.122c7.923-6.658,17.511-10.953,28.764-12.884c4.915-0.84,9.469-1.094,13.67-0.771
	c0.15,0.142,0.305,0.281,0.458,0.422c-1.247,1.003-2.494,2.08-3.742,3.245c-8.19,7.59-13.649,16.296-16.379,26.117
	c-2.13,7.69-2.197,15.081-0.2,22.172c2.63,9.256,8.739,17.896,18.327,25.918c0.625,0.586,1.098,0.942,1.425,1.082
	c0.113,0.574,0.23,1.146,0.362,1.711l-0.788,0.603c-6.958,5.261-13.4,8.739-19.326,10.438c-2.83,0.832-4.145,2.662-3.945,5.492
	l0.2,1.049c0.699,2.797,2.43,4.978,5.193,6.543c3.196,1.83,6.941,2.264,11.236,1.297c5.859-1.297,10.736-3.777,14.631-7.439
	c0.362-0.337,0.716-0.693,1.067-1.061c2.178,2.633,4.704,5.045,7.622,7.203c4.34,3.213,9.33,5.778,14.943,7.725l-0.012,1.613
	c-0.233,2.528-0.799,3.994-1.698,4.395l-15.78,3.545c-10.52,2.53-17.228,4.811-20.125,6.842c-3.163,2.197-4.994,4.561-5.493,7.092
	c-0.466,2.264,0.116,4.41,1.748,6.441c1.531,1.896,3.646,3.346,6.342,4.344c2.73,1.032,5.443,1.332,8.14,0.898
	c10.154-1.598,19.359-4.178,27.615-7.74c7.158-3.063,11.619-5.893,13.383-8.488c2.63-3.828,2.313-7.606-0.949-11.336
	c-0.568-0.634-0.877-2.148-0.931-4.533c7.527,1.266,15.901,1.688,25.15,1.237c7.771-0.381,14.786-1.397,21.06-3.041l1.113,1.692
	l2.445,3.846c0.766,1.365,1.166,2.529,1.199,3.495l0.299,4.345c0.4,3.229,1.133,5.576,2.197,7.041
	c2.197,3.029,7.857,6.025,16.979,8.988c8.156,2.697,15.397,4.295,21.723,4.795c8.988,0.698,14.199-1.697,15.632-7.191
	c0.6-2.196,0.35-4.428-0.75-6.69c-1.132-2.229-2.813-3.912-5.044-5.044c-5.094-2.563-12.418-4.827-21.973-6.792l-13.682-2.646
	c-1.698-0.699-3.746-2.83-6.143-6.393c-0.887-1.337-1.621-2.563-2.211-3.688c5.408-2.58,10.026-5.826,13.846-9.746
	c2.099-2.166,3.939-4.524,5.525-7.074c1.928,2.123,3.85,3.854,5.76,5.177c4.662,3.33,9.972,5.146,15.931,5.442
	c4.396,0.201,8.022-0.633,10.886-2.496c2.598-1.697,4.063-3.846,4.395-6.441c0.234-1.73-0.049-3.179-0.848-4.345
	c-0.8-1.198-2.063-1.947-3.795-2.246c-7.625-1.332-14.066-3.38-19.326-6.144c-2.02-1.097-4.326-2.656-6.922-4.678
	c1.689-8.281,1.729-17.799,0.08-28.58c-1.316-8.705-3.971-16.707-7.941-24.016c6.047,4.378,11.216,10.225,15.482,17.572
	c3.395,5.826,5.941,12.168,7.641,19.027c1.465,5.793,2.113,10.936,1.947,15.43c-0.033,1.932,0.615,2.197,1.947,0.799
	c6.691-7.889,10.336-17.91,10.936-30.063c0.383-7.638-0.498-14.807-2.633-21.512c1.125-0.083,2.252-0.194,3.385-0.333
	c6.555,4.896,11.365,10.546,14.431,16.952c0.364,0.932,0.78,1.48,1.248,1.648c0.466,0.166,0.815-0.233,1.049-1.199
	c1.881-7.303,1.905-14.487,0.087-21.56c4.253-1.655,8.258-3.73,11.997-6.256c6.492-4.328,11.535-9.538,15.131-15.63
	C274.693,74.987,275.409,63.651,270.282,52.033z"/>
</svg>
