<?xml version="1.0" encoding="utf-8"?>
<!-- Generator: Adobe Illustrator 16.0.0, SVG Export Plug-In . SVG Version: 6.00 Build 0)  -->
<!DOCTYPE svg PUBLIC "-//W3C//DTD SVG 1.1//EN" "http://www.w3.org/Graphics/SVG/1.1/DTD/svg11.dtd">
<svg version="1.1" id="图层_1" xmlns="http://www.w3.org/2000/svg" xmlns:xlink="http://www.w3.org/1999/xlink" x="0px" y="0px"
	 width="173px" height="231px" viewBox="0 0 173 231" enable-background="new 0 0 173 231" xml:space="preserve">
<path d="M135.094,40.884c0.775,1.143,1.729,2.239,2.911,3.277c4.063,3.563,9.075,5.045,15.037,4.446
	c4.097-0.433,7.71-2.048,10.841-4.846c2.997-2.697,5.162-6.061,6.494-10.091c1.332-4.097,1.582-8.227,0.749-12.39
	c-0.899-4.529-2.98-8.509-6.244-11.939c-4.229-4.463-9.726-7.344-16.485-8.643c-6.729-1.299-13.789-0.849-21.182,1.349
	c-8.561,2.564-15.604,6.861-21.133,12.889c-5.385,5.873-8.86,12.957-10.452,21.231c-0.695-0.084-1.404-0.141-2.136-0.15
	c-4.73-0.033-8.876,1.232-12.44,3.797c-3.63,2.631-5.995,6.161-7.094,10.591c-0.5,1.998-0.45,3.847,0.15,5.545
	c0.123,0.347,0.278,0.668,0.441,0.985c-3.948,0.911-7.805,2.404-11.568,4.484c-0.272-0.006-0.532-0.031-0.813-0.024
	c-2.154,0.053-4.039,0.503-5.678,1.316c-1.098-1.283-2.508-2.266-4.264-2.915c-2.098-0.732-4.263-0.899-6.494-0.5
	c-5.262,0.933-8.359,4.08-9.292,9.442c-0.7,3.863,0.216,7.294,2.748,10.291c0.366,0.439,0.752,0.835,1.151,1.203
	c-7.446,8.034-13.975,18.985-19.584,32.857c-2.104-0.112-4.154,0.383-6.146,1.509c-2.998,1.732-5.012,4.196-6.045,7.394
	c-0.965,2.862-0.999,5.774-0.102,8.737c-3.145,2.318-5.434,5.379-6.842,9.197c-1.465,3.93-1.915,8.359-1.349,13.289
	c2.365,20.981,11.79,36.834,28.276,47.559c2.077,1.354,4.222,2.588,6.424,3.724c0.381,4.321,1.678,7.997,3.917,11.013
	c2.231,3.064,5.079,5.08,8.542,6.045c3.497,0.967,7.044,0.684,10.641-0.849c3.568-1.464,6.754-3.987,9.568-7.546
	c4.288,0.277,8.73,0.285,13.323,0.034c-1.872,4.755-1.177,8.624,2.086,11.608c3.564,3.297,8.592,3.946,15.086,1.947
	c7.494-2.297,13.756-5.411,18.785-9.342c5.792-4.498,9.142-9.583,10.061-15.25c8.297-4.106,15.414-9.302,21.312-15.623
	c13.688-14.688,19.384-33.588,17.085-56.701c-0.433-4.362-1.848-7.843-4.246-10.44c-1.887-2.036-4.126-3.285-6.714-3.759
	c-1.811-12.59-6.656-24.246-14.567-34.957c-8.687-11.721-18.465-19.372-29.325-22.977c0.338-0.718,0.526-1.516,0.55-2.401
	c0.144-4.51-1.021-8.459-3.479-11.854c4.142-3.329,8.794-5.187,13.97-5.531C126.249,37.631,130.756,38.627,135.094,40.884z
	 M62.97,139.129c-0.787,0.651-1.475,1.336-2.079,2.049c0.501-0.754,1.18-1.471,2.035-2.148
	C62.939,139.063,62.956,139.095,62.97,139.129z"/>
</svg>
