<?xml version="1.0" encoding="utf-8"?>
<!-- Generator: Adobe Illustrator 16.0.0, SVG Export Plug-In . SVG Version: 6.00 Build 0)  -->
<!DOCTYPE svg PUBLIC "-//W3C//DTD SVG 1.1//EN" "http://www.w3.org/Graphics/SVG/1.1/DTD/svg11.dtd">
<svg version="1.1" id="图层_1" xmlns="http://www.w3.org/2000/svg" xmlns:xlink="http://www.w3.org/1999/xlink" x="0px" y="0px"
	 width="141px" height="225px" viewBox="0 0 141 225" enable-background="new 0 0 141 225" xml:space="preserve">
<path d="M139.602,118.93c-0.432-0.333-1.828,0.348-4.188,2.043c-2.172,1.551-4.629,3.585-7.351,6.062
	c-1.756-1.012-3.709-1.524-5.862-1.524c-3.689,0-6.682,1.33-8.975,3.989c-2.16,2.46-3.225,5.451-3.191,8.975
	c0.026,1.362,0.254,2.646,0.661,3.858l-5.603,5.007c-1.101-5.686-3.021-11.185-5.777-16.493c-3.617-7.01-8.913-14.099-15.858-21.265
	c3.489-0.113,6.766-0.7,9.825-1.771c4.653-1.662,7.08-3.989,7.279-6.98c0.166-2.227-1.23-4.155-4.188-5.784
	c-1.936-1.077-4.237-1.807-6.892-2.201c2.982-2.192,5.054-4.532,6.192-7.023c1.098-2.36,1.147-4.171,0.15-5.435
	c-0.864-1.13-2.427-1.562-4.688-1.296c-1.656,0.207-3.332,0.796-5.027,1.764c0.315-0.745,0.505-1.499,0.541-2.263
	c0.066-1.529-0.499-2.609-1.695-3.241c-1.297-0.665-3.191-0.416-5.684,0.748c-1.771,0.844-3.528,2.006-5.276,3.453
	c-0.705-5.108-2.527-9.745-5.491-13.902c-0.53-3.862-0.618-8.664-0.251-14.431c0.182-2.813,0.501-6.152,0.955-10.002
	c0.787,3.346,1.897,6.018,3.333,8.007c1.229,1.695,3.706,3.889,7.429,6.582c5.219,3.823,8.858,7.047,10.92,9.672
	c2.957,3.723,5.035,8.493,6.232,14.31c0.73,3.689,1.279,5.634,1.645,5.833c0.599,0.366,1.778-1.429,3.54-5.385
	c4.786-10.636,6.332-20.442,4.637-29.417c-1.861-9.905-7.578-17.966-17.151-24.182c-3.291-2.127-5.7-4.221-7.229-6.282
	c-0.964-1.296-2.077-3.44-3.341-6.432c-2.193-5.251-3.738-8.625-4.637-10.121c-1.063-1.762-2.243-2.792-3.539-3.091
	c-2.228-0.499-3.84,0.283-4.837,2.343c-0.731,1.529-1.429,4.67-2.094,9.423l-3.69,22.486c-1.541,8.681-2.841,15.463-3.906,20.395
	c-4.466-2.26-9.327-3.45-14.591-3.542c-5.617-0.066-10.886,1.114-15.805,3.54c-5.152,2.526-9.207,6.116-12.165,10.77
	c-0.154,0.241-0.287,0.492-0.434,0.737c-2.145,0.85-4.065,2.126-5.749,3.85c-2.792,2.892-4.321,6.382-4.587,10.47
	c-0.2,3.191,0.548,6.415,2.244,9.673c1.462,2.759,3.257,4.936,5.385,6.531c0.543,0.411,1.019,0.735,1.43,0.979
	c0.552,1.13,1.184,2.224,1.881,3.286c-4.212,1.471-5.882,3.208-5.006,5.208c0.667,1.555,2.521,2.863,5.531,3.931
	c-3.926,0.601-7.32,1.746-10.167,3.448c-3.49,2.094-4.953,4.371-4.388,6.83c0.399,1.729,2.576,2.959,6.531,3.69l8.776,0.291
	c-0.528,0.673-1.01,1.378-1.396,2.151c-0.964,1.994-1.064,3.341-0.299,4.039c0.206,0.19,0.449,0.339,0.725,0.451
	c-2.723,6.292-3.116,12.807-1.173,19.542c1.951,6.736,5.977,12.702,12.064,17.901c-1.288,0.938-2.503,1.996-3.638,3.189
	c-2.194,2.26-3.141,4.104-2.842,5.533c0.2,0.898,1.379,1.496,3.54,1.795c1.079,0.157,2.235,0.213,3.459,0.178
	c-1.446,1.334-2.552,2.819-3.309,4.459c-0.964,2.128-0.964,3.641,0,4.537c1.429,1.297,3.905,1.596,7.429,0.898
	c2.973-0.6,5.726-1.857,8.267-3.754c-0.053,0.282-0.09,0.568-0.09,0.861c0,0.932,0.266,1.513,0.798,1.746
	c0.964,0.398,2.526-0.1,4.687-1.496c1.894-1.244,3.354-2.653,4.43-4.209c1.229,0.511,2.485,0.993,3.797,1.416
	c0.382,0.124,0.775,0.225,1.164,0.336l0.283,0.961c0.363,1.42,0.61,2.906,0.744,4.456c-2.237,0.917-4.92,1.76-8.073,2.524
	c-3.789,0.897-7.578,1.496-11.368,1.795c-2.194,0.166-3.706,0.549-4.537,1.146c-0.931,0.632-1.446,1.795-1.545,3.49
	c-0.167,2.659,0.183,5.035,1.047,7.13c0.731,1.828,1.429,2.742,2.094,2.742c0.395,0,0.805-0.223,1.228-0.627
	c1.071,2.87,2.042,4.354,2.911,4.416c0.465,0.033,1.03-0.333,1.695-1.097c0.426-0.494,0.82-1.07,1.186-1.715
	c1.744,3.699,3.194,5.537,4.349,5.504c0.765-0.033,1.612-1.297,2.542-3.789c1.097-2.859,1.695-4.338,1.795-4.438
	c1.43-1.063,4.089-2.227,7.978-3.49c3.294-1.088,6.718-2.018,10.259-2.802c-0.929,0.958-1.871,1.833-2.83,2.603
	c-3.158,2.592-4.172,5.484-3.042,8.676c0.864,2.525,2.842,4.919,5.933,7.18c2.393,1.762,3.856,2.243,4.388,1.445
	c0.399-0.631,0.598-3.258,0.598-7.878c0-0.322,0.134-0.822,0.39-1.481c-0.098,0.993-0.079,1.753,0.059,2.279
	c0.433,1.729,1.879,4.072,4.338,7.03c1.496,1.861,2.609,2.759,3.341,2.692c0.565-0.033,1.462-0.914,2.692-2.643
	c1.895-2.593,2.925-4.438,3.092-5.534c0.166-1.13-0.3-3.042-1.396-5.733l-0.452-1.458c1.029,1.139,1.937,2.258,2.696,3.353
	c0.631,0.963,0.947,2.643,0.947,5.035c-0.066,2.427,0.133,3.773,0.598,4.039c0.931,0.531,2.709-0.898,5.335-4.288
	c2.659-3.49,3.956-6.282,3.889-8.376c-0.033-0.898-0.78-1.994-2.243-3.291l-4.338-3.739c-4.313-4.06-7.126-7.079-8.475-9.08
	c0-0.016-0.001-0.028-0.002-0.044c-0.066-1.131-0.082-2.659-0.049-4.588l0.086-3.793c2.771-1.018,5.252-2.302,7.466-3.833
	c4.988,3.119,9.966,5.537,14.935,7.228c5.85,1.994,9.373,2.311,10.569,0.947c0.931-1.03,0.798-2.676-0.399-4.936
	c-0.036-0.069-0.078-0.138-0.115-0.207c4.597,1.124,9.008,1.219,13.229,0.257c5.119-1.13,6.664-3.507,4.637-7.13
	c-0.997-1.762-3.008-3.49-6.033-5.186c-1.756-1.015-3.603-1.844-5.521-2.525c1.05-0.365,2.002-0.812,2.829-1.363
	c1.596-1.097,2.293-2.293,2.094-3.59c-0.332-2.061-2.842-3.656-7.529-4.787c-1.992-0.488-4.032-0.826-6.115-1.031l5.898-7.384
	c1.59,0.811,3.32,1.248,5.203,1.286c3.291,0.066,6.1-1.031,8.426-3.291c2.46-2.426,3.689-5.534,3.689-9.323
	c0-2.919-0.791-5.465-2.345-7.651l5.087-6.708C139.22,120.99,140.034,119.295,139.602,118.93z M71.047,187.883
	c0.302,2.116,0.445,3.827,0.445,5.174c-0.813-0.878-2.185-1.641-4.135-2.281l-3.54-0.896v-3.192l-0.019-0.563
	c2.218,0.016,4.516-0.129,6.89-0.428L71.047,187.883z"/>
</svg>
