<?xml version="1.0" encoding="utf-8"?>
<!-- Generator: Adobe Illustrator 16.0.0, SVG Export Plug-In . SVG Version: 6.00 Build 0)  -->
<!DOCTYPE svg PUBLIC "-//W3C//DTD SVG 1.1//EN" "http://www.w3.org/Graphics/SVG/1.1/DTD/svg11.dtd">
<svg version="1.1" id="图层_1" xmlns="http://www.w3.org/2000/svg" xmlns:xlink="http://www.w3.org/1999/xlink" x="0px" y="0px"
	 width="259px" height="276px" viewBox="0 0 259 276" enable-background="new 0 0 259 276" xml:space="preserve">
<path d="M258.64,102.532c-0.067-1.897-1.631-5.541-4.692-10.932c-3.162-5.624-4.875-9.584-5.142-11.88
	c-0.399-3.361-2.347-8.27-5.841-14.726c-3.428-6.256-6.273-10.35-8.536-12.28l-7.138-6.689c-5.092-4.459-8.52-6.739-10.283-6.839
	l-11.932-1.797c-6.422-1.132-10.083-1.963-10.981-2.496l-2.995-2.446l-2.846-2.646l13.978-0.599l1.147-0.25
	c0.067-0.2-0.166-0.532-0.698-0.998c-3.993-3.528-6.972-5.94-8.936-7.238l12.68,0.649l15.574,1.098
	c1.497,0.167,1.913-0.066,1.248-0.699l-2.396-1.748c-9.651-6.356-18.254-10.716-25.809-13.079
	c-8.286-2.129-16.922-3.894-25.908-5.291c-8.053-1.298-13.095-1.831-15.125-1.598c-2.729,0.3-8.119,2.729-16.174,7.288
	c-6.422,3.661-12.895,7.688-19.418,12.081l-13.229-3.145c-8.053-1.963-12.962-2.812-14.726-2.546
	c-1.365,0.2-4.343,1.547-8.936,4.043c-4.925,2.629-9.984,5.657-15.175,9.085c-13.944,9.219-22.397,16.906-25.359,23.063
	c-0.932,1.897-1.98,4.526-3.145,7.887c-1.065,3.028-2.063,5.408-2.995,7.138c-1.564,2.962-2.563,4.959-2.995,5.99
	c-1.065,2.463-1.714,4.709-1.947,6.739c-0.3,2.962-0.999,5.741-2.097,8.336c-1.231-3.96-2.063-7.022-2.496-9.185
	c-0.299-1.697-0.766-1.714-1.397-0.05l-1.947,4.842c-0.632,1.564-1.082,2.879-1.348,3.944c-0.399,1.498-0.765,3.527-1.098,6.09
	c-0.366-1.032-0.699-2.662-0.999-4.892l-0.349-3.045c-0.267-1.431-0.916-3.794-1.947-7.088c-1.165-3.594-2.18-6.24-3.045-7.937
	l-0.449-0.699c-0.2-0.067-0.466,0.133-0.798,0.599c-4.959,7.055-8.42,19.817-10.383,38.287c-0.766,7.122-1.148,13.928-1.148,20.417
	c-0.034,6.124,0.266,10.316,0.898,12.579c0.699,2.629,3.328,6.906,7.887,12.83c4.759,6.223,9.75,11.73,14.976,16.522l8.536,10.732
	c5.191,6.655,8.786,10.866,10.782,12.63l-6.19-0.799l-5.84-1.548l-5.841-0.698l-5.89-0.25c-1.198-0.033-1.348,0.35-0.449,1.148
	l1.897,1.547c7.288,5.524,13.295,9.784,18.021,12.779c-1.398,0.1-6.423-0.766-15.076-2.596c-7.82-1.631-12.812-1.98-14.976-1.049
	c-0.599,0.267-0.848,0.516-0.749,0.749l0.749,0.55l6.839,4.143l8.437,5.592c9.784,6.322,17.971,11.148,24.56,14.476
	c9.221,4.625,18.976,8.39,29.253,11.313c-0.704,1.189-0.811,3.167-0.301,5.96c0.666,3.594,2.146,7.338,4.443,11.231
	c6.023,10.283,14.21,16.406,24.56,18.37c7.721,1.464,14.875,2.18,21.465,2.146l15.225-0.998c2.896-0.233,9.851-1.531,20.866-3.895
	c4.858-1.131,9.251-3.262,13.179-6.389c3.926-3.129,6.771-6.74,8.535-10.833c1.73-3.96,1.997-9.035,0.799-15.226
	c-0.961-4.953-2.229-8.261-3.803-9.923c2.712-1.524,5.512-3.086,8.445-4.703c3.561-1.964,8.354-4.442,14.377-7.438
	c3.195-1.598,5.424-2.962,6.689-4.093c1.631-1.465,3.261-5.375,4.892-11.731c1.597-6.157,2.396-11.331,2.396-15.524
	c0-2.463,0.1-4.493,0.3-6.09c0.3-2.297,0.948-5.226,1.946-8.786l3.046-11.183c0.731,1.432,1.431,3.528,2.097,6.291
	c0.666,2.861,1.131,5.807,1.397,8.835l0.149,1.198c0.133,0.299,0.516,0.017,1.148-0.849c1.098-1.53,2.297-4.193,3.594-7.987
	c1.132-3.328,2.197-7.038,3.195-11.132c2.229,6.822,4.477,14.843,6.738,24.062c0.334,1.431,0.649,2.096,0.949,1.996l0.998-1.896
	c3.627-8.553,6.49-17.505,8.586-26.856c2.097-9.352,3.145-17.871,3.145-25.559c-0.398-5.791-0.282-11.182,0.35-16.173
	L258.64,102.532z"/>
</svg>
