<?xml version="1.0" encoding="utf-8"?>
<!-- Generator: Adobe Illustrator 16.0.0, SVG Export Plug-In . SVG Version: 6.00 Build 0)  -->
<!DOCTYPE svg PUBLIC "-//W3C//DTD SVG 1.1//EN" "http://www.w3.org/Graphics/SVG/1.1/DTD/svg11.dtd">
<svg version="1.1" id="图层_1" xmlns="http://www.w3.org/2000/svg" xmlns:xlink="http://www.w3.org/1999/xlink" x="0px" y="0px"
	 width="189px" height="229px" viewBox="0 0 189 229" enable-background="new 0 0 189 229" xml:space="preserve">
<path d="M185.654,150.816c-0.533-0.967-3.299-1.933-8.298-2.898c-4.752-0.89-9.239-1.291-13.483-1.249
	c-0.116-5.889-0.92-11.921-2.413-18.098c-2.711-11.223-7.159-20.723-13.299-28.546c3.376-5.904,3.969-11.585,1.751-17.043
	c-2.306-5.636-8.854-9.343-19.621-11.133c-1.774-3.228-1.878-6.565-0.274-10.013c1.3-2.833,3.666-5.632,7.099-8.398
	c2.533-2.066,4.865-11.248,6.998-27.544c2.133-16.163,2.35-24.711,0.65-25.645c-2.633-1.433-11.182,1.333-25.645,8.298
	c-15.73,7.532-29.477,16.13-41.241,25.794C67.071,43.228,57.357,52.597,48.717,62.44c-5.561-0.358-11.451,0.794-17.678,3.495
	C23.374,69.201,16.191,74.4,9.493,81.532c-3.766,3.966-6.432,7.749-7.999,11.348c-1.633,3.699-1.833,6.648-0.6,8.848
	c1.366,2.399,3.649,4.349,6.849,5.849c2.966,1.366,6.148,2.1,9.548,2.199c0.074,0.003,0.139,0.003,0.209,0.005
	c-6.301,14.204-9.263,27.634-8.858,40.286c0.034,1.033,0.284,2.05,0.75,3.05c9.488,20.41,24.651,35.315,45.451,44.749l-2.561,1.941
	c-0.333,0.332-0.466,0.649-0.4,0.949c0.13,0.649,2.318,1.028,6.533,1.139c-0.011,0.021-0.023,0.039-0.034,0.061l-1.05,2.199
	c-0.566,1.4-0.7,2.316-0.4,2.75l4.399,0.25l4.304-0.644c-0.015,0.05-0.04,0.092-0.054,0.144l-0.7,2.399
	c-0.367,1.533-0.316,2.433,0.15,2.7c0.6,0.366,3.399-0.417,8.398-2.35c4.278-1.665,7.274-2.714,9.011-3.158
	c3.828,0.636,7.719,1.1,11.684,1.358c11.161,0.725,22.043-0.119,32.652-2.518c1.774,2.695,4.768,4.936,8.989,6.716
	c3.535,1.494,7.171,2.381,10.902,2.676c-0.035,0.077-0.071,0.137-0.105,0.225l-1.398,4.748c-0.533,2.133-0.684,3.283-0.451,3.449
	c0.301,0.234,1.533-0.166,3.699-1.199l3.502-1.679l1.498,3.479c1.066,2.366,1.799,3.565,2.199,3.599
	c0.561,0,2.821-2.225,6.772-6.658l2.425,2.909c1.667,1.8,2.7,2.716,3.1,2.749c0.301-0.299,0.834-1.466,1.6-3.498
	c5.299-14.531,5.966-27.729,2-39.592c-0.445-1.339-0.951-2.597-1.493-3.807c3.219-3.959,6.697-9.243,10.44-15.889
	C184.521,156.115,186.254,151.949,185.654,150.816z"/>
</svg>
