<?xml version="1.0" encoding="utf-8"?>
<!-- Generator: Adobe Illustrator 16.0.0, SVG Export Plug-In . SVG Version: 6.00 Build 0)  -->
<!DOCTYPE svg PUBLIC "-//W3C//DTD SVG 1.1//EN" "http://www.w3.org/Graphics/SVG/1.1/DTD/svg11.dtd">
<svg version="1.1" id="图层_1" xmlns="http://www.w3.org/2000/svg" xmlns:xlink="http://www.w3.org/1999/xlink" x="0px" y="0px"
	 width="395px" height="355px" viewBox="0 0 395 355" enable-background="new 0 0 395 355" xml:space="preserve">
<path d="M392.701,217.999c-8.295-3.032-15.457-5.847-21.486-8.444c-9.894-4.23-15.057-7.195-15.49-8.895
	c-1.1-4.364-0.999-14.208,0.3-29.532c1.199-13.625,2.398-22.952,3.598-27.982c0.366-1.466-0.1-1.766-1.399-0.899
	c-4.657,2.865-10.255,9.451-16.79,19.734c-7.45-1.838-18.057-5.633-31.829-11.39c-14.307-5.965-23.912-10.729-28.84-14.296
	c3.584-17.574,6.736-36.106,9.453-55.609c2.498-18.122,4.279-34.511,5.346-49.168c0.066-1.2-0.433-1.449-1.499-0.75
	c-10.593,7.562-21.886,19.271-33.878,35.127c-11.502,15.151-20.966,30.559-28.42,46.22c-4.846-0.577-8.606-1.373-11.281-2.388
	c-0.122-0.106-0.255-0.201-0.374-0.31c-1.099-1.066-2.599-1.565-4.497-1.499c-1.998,0.033-4.197,0.683-6.596,1.949
	c-1.365,0.733-3.115,1.1-5.246,1.1c-0.458,0-0.887-0.021-1.299-0.054c-3.437-6.688-6.458-13.76-9.045-21.232
	c-1.799-5.097-2.432-11.126-1.898-18.088c0.106-1.345,0.253-2.682,0.433-4.012c6.651-5.228,12.196-11.74,16.606-19.574
	c5.196-9.294,7.611-18.005,7.245-26.133c-0.399-8.162-3.881-13.158-10.444-14.991c-2.864-0.833-5.896-0.766-9.094,0.2
	c-2.257,0.661-4.37,1.714-6.346,3.139c-2.392-2.902-5.2-5.224-8.445-6.937c-4.93-2.598-10.36-3.531-16.29-2.798
	c-10.926,1.366-20.92,5.913-29.981,13.642c-0.745,0.636-1.453,1.31-2.169,1.975c0.097-5.573-2.024-9.399-6.375-11.469
	c-5.13-2.465-11.06-0.949-17.789,4.547c-9.027,7.362-14.624,16.523-16.789,27.482c-1.932,9.794-0.933,19.205,2.998,28.232
	c0.866,1.999,2.082,3.231,3.647,3.698c1.433,0.4,3.031,0.167,4.797-0.699c1.851-0.899,3.703-2.067,5.554-3.477
	c-0.635,5.275-0.721,10.581-0.257,15.919c1.033,12.159,4.68,21.936,10.943,29.332c0.933,1.099,2.065,1.732,3.398,1.899
	c1.333,0.133,2.648-0.217,3.947-1.049c1.667-1.12,3.415-2.364,5.24-3.73c1.869,0.665,5.631-0.237,11.299-2.716
	c2.415-1.061,4.679-2.19,6.799-3.386c0.79,4.995,1.293,10.795,1.498,17.434c-5.26,3.739-13.667,5.905-25.236,6.489
	c-10.96,0.566-20.038-0.233-27.233-2.398c-1.599-0.466-3.031-0.683-4.297-0.649c-1.266,0.066-2.848,0.417-4.747,1.049
	c-17.156,4.264-32.496,8.228-46.021,11.893C18.205,141.664,3.498,147.427,0.3,151.791c-0.367,0.5-0.433,0.899-0.2,1.199
	c0.233,0.3,0.633,0.416,1.199,0.35c4.397-0.267,10.477-0.3,18.239-0.1l15.502,0.946c-2.214,2.184-4.466,4.939-6.758,8.298
	c-3.431,5.03-5.396,9.127-5.896,12.292c-0.067,0.566-0.017,0.933,0.15,1.099l1.149-0.05c4.53-1.299,9.877-3.065,16.04-5.297
	c6.067-2.214,9.97-3.831,11.718-4.854l4.172,9.601c0.2,0.5,0.433,0.783,0.7,0.85c0.3,0.033,0.666-0.133,1.099-0.5
	c3.964-3.298,11.692-9.144,23.185-17.539c10.96-7.962,18.022-12.958,21.187-14.991c1.432-0.933,2.648-1.532,3.647-1.799l4.347-0.4
	l17.289,0.75l15.141,1.25c4.462,0.705,7.472,2.083,9.072,4.116c-0.182,2.649-0.383,5.305-0.628,7.976
	c-1.295,14.206-1.274,27.136,0.044,38.808c-2.448,0.824-4.84,1.858-7.178,3.104c-0.396-1.229-0.816-2.458-1.261-3.686
	c-2.032-5.63-4.147-9.994-6.346-13.092c-0.467-0.6-0.933-0.633-1.399-0.1c-3.098,3.464-5.563,8.811-7.396,16.039
	c-1.36,5.394-2.102,10.912-2.24,16.553l-3.214,3.897c-1.011-0.826-1.976-1.696-2.89-2.611c-0.333-0.333-0.617-0.483-0.85-0.45
	c-0.2,0.033-0.383,0.283-0.55,0.75c-0.899,2.432-1.466,6.096-1.699,10.993c-0.012,0.213-0.013,0.41-0.023,0.62
	c-2.034,3.822-3.643,7.582-4.773,11.272c-1.266,4.164-1.833,7.896-1.699,11.192c0.1,2.465,3.031,6.513,8.794,12.143
	c4.664,4.531,9.411,8.545,14.241,12.043c1.377,0.987,2.596,1.919,3.677,2.804c0.702,3.475,0.862,5.664,0.47,6.54l-3.798,4.996
	l-4.65,5.073c-1.749,0.358-4.586,2.4-8.542,6.171c-4.331,4.097-6.779,7.244-7.346,9.443c-0.2,0.766,0.067,1.149,0.8,1.149
	c3.231,0,7.195-0.816,11.892-2.448c1.122-0.397,2.119-0.786,3.009-1.167c-0.585,1.05-1.171,2.258-1.759,3.665
	c-1.832,4.297-2.749,7.879-2.749,10.743c0,0.466,0.083,0.749,0.25,0.85l0.899-0.149c2.898-1.3,6.413-3.082,10.543-5.348
	c2-1.091,3.565-1.986,4.739-2.705c-0.6,1.409-1.246,3.09-1.94,5.055c-1.133,3.164-1.866,5.563-2.199,7.195
	c-0.2,0.898,0.117,1.199,0.949,0.898c3.198-1.032,6.846-2.798,10.943-5.296c3.561-2.152,5.785-3.928,6.717-5.339
	c3.953-2.309,9.039-5.673,15.269-10.102c6.496-4.631,10.86-7.979,13.092-10.043c1.166-1.133,1.516-2.633,1.049-4.498l-1.699-8.295
	l-1.149-6.745c-0.1-0.899-0.45-1.782-1.049-2.648c-0.633-0.866-1.399-1.55-2.299-2.049c-4.24-2.303-6.671-4.952-7.331-7.943
	l3.383,0.099c7.383-0.567,12.734-1.728,16.067-3.476c10.636,6.077,21.881,10.615,33.752,13.569
	c13.681,3.396,27.498,4.535,41.456,3.433c1.435,1.275,2.713,2.482,3.815,3.612c1.73,1.794,3.25,3.632,4.603,5.504
	c-0.89,3.44-1.824,7.695-2.804,12.785c-1.166,6.029-1.717,9.877-1.649,11.542c0.101,1.933,2.782,6.43,8.045,13.491
	c5.396,7.296,9.327,11.427,11.792,12.393c0.183,0.073,0.372,0.135,0.558,0.203c0.271,1.729,1.657,4.615,4.19,8.691
	c2.598,4.164,4.863,7.179,6.795,9.044c0.566,0.5,1,0.433,1.299-0.2c1-1.998,1.717-4.846,2.149-8.544
	c0.33-2.699,0.443-5.436,0.364-8.203c2.023-0.363,4.142-0.888,6.355-1.575c0.858,1.16,2.007,2.498,3.474,4.031
	c3.765,3.932,7.229,6.68,10.394,8.246c0.8,0.365,1.249,0.183,1.349-0.551c0.7-4.03,0.95-7.512,0.75-10.443
	c-0.144-2.671-0.708-5.343-1.645-8.015c0.624-0.448,1.229-0.905,1.794-1.379c0.079-0.065,0.147-0.131,0.226-0.196
	c0.804,0.545,1.81,1.127,3.022,1.745c2.965,1.532,6.396,2.898,10.294,4.098c0.799,0.233,1.149-0.05,1.049-0.85
	c-0.466-3.132-1.332-6.38-2.598-9.743c-1.233-3.299-2.516-5.863-3.848-7.695c-0.868-1.194-1.984-1.871-3.339-2.049
	c-0.949-3.005-2.716-6.369-5.306-10.094c-3.931-5.63-7.596-9.478-10.993-11.543c-2.565-1.565-4.381-3.432-5.446-5.597
	c-1.233-2.632-2.315-5.347-3.248-8.145c-0.929-2.733-1.591-5.188-2-7.383c0.035-0.189,0.063-0.366,0.101-0.562
	c0.145-0.734,0.271-1.467,0.398-2.199c19.21-7.902,36.285-20.015,51.227-36.334c13.914-1.874,26.233-5.274,36.919-10.236
	C394.084,219.115,394.067,218.531,392.701,217.999z M327.893,186.519c-0.767,1.666-1.649,2.932-2.648,3.798
	c-0.67,0.573-1.509,1.067-2.505,1.487c-14.319-2.316-27.76-5.875-40.321-10.678c0.52-0.069,1.029-0.133,1.553-0.204
	c21.591-2.967,39.218-6.783,52.911-11.44C333.387,175.484,330.378,181.17,327.893,186.519z M221.514,139.326
	c-0.749-0.865-1.488-1.742-2.222-2.625c0.884-1.155,2.199-1.963,3.961-2.415C222.617,135.853,222.04,137.541,221.514,139.326z"/>
</svg>
