<?xml version="1.0" encoding="utf-8"?>
<!-- Generator: Adobe Illustrator 16.0.0, SVG Export Plug-In . SVG Version: 6.00 Build 0)  -->
<!DOCTYPE svg PUBLIC "-//W3C//DTD SVG 1.1//EN" "http://www.w3.org/Graphics/SVG/1.1/DTD/svg11.dtd">
<svg version="1.1" id="图层_1" xmlns="http://www.w3.org/2000/svg" xmlns:xlink="http://www.w3.org/1999/xlink" x="0px" y="0px"
	 width="408px" height="420px" viewBox="0 0 408 420" enable-background="new 0 0 408 420" xml:space="preserve">
<path d="M401.855,197.76c-3.396-9.791-8.342-17.6-14.836-23.427c-2.764-2.464-8.309-4.396-16.634-5.794l-13.187-1.648
	c-14.353-2.032-26.924-4.246-37.713-6.644l-7.826-1.973c-1.214-1.216-3.359-3.754-6.43-7.601c0.759-1.962,1.664-4.746,2.717-8.359
	c1.865-6.36,2.364-9.857,1.498-10.49c-0.499-0.366-1.481-0.167-2.946,0.6c-2.08,1.122-5.441,3.434-10.041,6.896l-3.021-4.002
	c0.566-1.727,1.224-3.97,1.973-6.74l2.047-8.542c0.167-0.966,0.117-1.565-0.149-1.798c-0.433-0.4-1.998,0.233-4.695,1.898
	c-1.986,1.244-4.257,2.875-6.802,4.878l-1.939-2.73c-0.3-0.899-0.6-3.896-0.899-8.991l-0.05-5.544l-0.05-2.048
	c-0.167-0.433-1.565-1.849-4.196-4.246l-5.146-4.747l4.786,0.505c-0.204,0.73-0.007,1.166,0.609,1.295
	c5.828,1.099,14.303,0.5,25.425-1.798c12.255-2.531,19.864-5.895,22.828-10.09c1.089-1.553,0.997-4.214-0.269-7.979
	c1.709,0.292,3.083-0.057,4.114-1.063c1.766-1.665,2.015-5.611,0.749-11.838c-1.598-7.726-5.461-15.501-11.588-23.327
	c-6.228-7.992-13.271-13.903-21.129-17.733c-6.794-3.33-11.473-4.146-14.037-2.447c-1.199,0.799-1.998,2.231-2.397,4.295
	c-0.229,1.096-0.313,2.023-0.275,2.806c-4.767-2.503-9.226-4.095-13.369-4.75c-1.836-2.234-3.876-4.386-6.136-6.448
	c-8.226-7.493-16.634-12.754-25.226-15.784c-8.159-2.864-13.421-2.764-15.784,0.299c-2.265,2.931-2.031,8.275,0.699,16.035
	c2.609,7.35,6.598,14.099,11.938,20.26c-8.552,6.222-17.688,13.759-27.422,22.647c-7.381,6.768-13.59,12.884-18.668,18.373
	c-10.228-6.564-22.62-12.196-37.228-16.875c-14.786-4.795-30.637-8.242-47.553-10.34c-17.05-2.098-33.7-2.664-49.951-1.698
	c-16.983,0.999-32.235,3.629-45.755,7.892c-4.462,1.398-7.027,2.997-7.693,4.795c-0.699,1.865,0.683,3.713,4.146,5.544
	c19.381,10.19,35.416,19.181,48.103,26.974c9.557,5.894,24.875,15.984,45.955,30.27c1.532,1.066,2.514,1.665,2.947,1.798l4.496,0.25
	l25.325-1.199c8.245-0.193,13.932-0.246,17.085-0.158c-2.877,3.279-4.771,5.376-5.646,6.252l-5.794,4.896l-9.89,7.792
	c-2.864,2.298-4.296,4.479-4.296,6.544c0,1.555,0.678,3.053,2.017,4.496c-6.993,19.443-16.485,40.104-28.491,61.989
	c-6.52,11.915-13.264,23.199-20.227,33.867l-6.058-3.379c-1.289-19.744-3.994-37.556-8.131-53.416
	c-3.796-14.552-7.093-21.845-9.891-21.878c-1.032,0-1.698,1.032-1.998,3.097l-6.39,45.853l-3.35-4.043
	c-2.964-3.73-4.979-6.045-6.044-6.943c-0.866-0.732-1.615-0.866-2.248-0.4c-1.265,0.866-0.999,5.295,0.799,13.287
	c1.152,5.159,2.294,9.342,3.429,12.582c-11.512,13.869-19.086,23.168-22.71,27.879c-2.165,2.863-3.18,4.495-3.047,4.895
	c0.066,0.467,0.366,0.833,0.899,1.1c2.131,1.132,8.259,1.099,18.382-0.1c9.857-1.124,17.556-2.701,23.141-4.723
	c2.171,3.116,4.567,6.161,7.177,9.139c-2.586,3.449-5.198,6.827-7.839,10.119c-3.264,4.063-4.446,6.727-3.547,7.992
	c0.866,1.232,3.613,1.148,8.242-0.25c5.367-1.598,10.654-3.427,15.87-5.461c12.862,10.746,27.66,18.915,44.393,24.511
	c-2.487,3.852-5.935,9.496-10.361,16.966c-6.327,10.723-11.405,19.53-15.235,26.424c-1.932,3.43-3.996,9.89-6.194,19.381
	c-1.366,5.849-2.23,9.925-2.6,12.245c-0.24,0.433-0.425,0.848-0.547,1.241c-0.4,1.365-0.533,5.545-0.4,12.538
	c0.133,7.426,0.6,11.838,1.399,13.237l0.2,0.35l0.599,0.449l1.049-0.25c1.365-0.899,3.813-4.296,7.343-10.189
	c3.295-5.521,5.312-9.711,6.066-12.586c1.136,0.196,2.01,0.386,2.611,0.57c0.302,1.87,1.919,5.571,4.859,11.116
	c3.43,6.493,5.978,10.54,7.643,12.138c0.466,0.467,0.916,0.666,1.349,0.6c0.466-0.066,0.849-0.566,1.149-1.498
	c0.566-1.632,1.232-4.896,1.998-9.791c0.907-5.799,1.37-9.619,1.393-11.471l1.701-0.391c1.196,1.811,4.588,5.145,10.194,10.014
	c6.76,5.827,10.889,9.074,12.388,9.74l1.499-0.05c0.899-0.8,0.066-5.062-2.498-12.788c-2.431-7.293-4.612-12.57-6.543-15.834
	c-0.106-0.185-0.215-0.348-0.323-0.522c-0.319-2.186-0.836-4.248-1.576-6.171c-1.065-2.83-1.981-5.994-2.747-9.49
	c-0.833-3.863,0.399-13.338,3.696-28.423c2.487-11.388,4.375-18.65,5.668-21.827c14.097,2.16,27.629,2.104,40.587-0.201
	c13.953-2.498,26.224-7.443,36.814-14.836c8.315-5.821,15.277-12.636,20.902-20.433c4.984,0.594,10.868,1.892,17.66,3.899
	c7.866,2.302,15.414,5.164,22.645,8.588c-11.907,13.499-21.764,24.915-29.539,34.221c-1.098,1.332-1.631,2.88-1.598,4.645
	c0,1.365,0.333,2.73,0.999,4.096l3.796,6.494c1.932,3.23,3.33,5.978,4.196,8.242c1.065,2.73,2.53,6.91,4.396,12.537
	c1.698,4.563,3.414,7.643,5.145,9.241c0.934,0.833,2.332,1.399,4.196,1.698l3.134,0.588c1.332,1.404,3.793,3.071,7.406,5.007
	c2.963,1.632,5.994,3.08,9.091,4.346c3.196,1.332,6.177,2.414,8.941,3.247c3.063,0.965,4.845,1.299,5.345,0.998
	c0.433-0.432,0.533-0.948,0.299-1.548c-0.632-1.599-3.879-6.011-9.74-13.237c-0.93-1.143-1.803-2.188-2.631-3.156
	c1.581,0.839,3.188,1.628,4.829,2.357l9.44,3.846c5.295,2.064,8.941,3.281,10.939,3.646c1.133,0.2,1.865,0.084,2.198-0.35
	c0.333-0.365,0.333-0.849,0-1.448c-1.466-2.497-5.295-6.96-11.489-13.387c-0.316-0.33-0.621-0.644-0.926-0.957
	c10.726,2.903,17.056,4.059,18.958,3.454l0.85-0.699c0.167-0.399,0.083-0.849-0.25-1.349l-2.497-2.597
	c-2.765-2.498-6.811-5.762-12.139-9.791l-7.492-5.295c-0.277-0.162-0.521-0.269-0.751-0.35c-1.332-0.833-3.278-2.648-5.843-5.444
	c-2.764-2.964-4.979-5.728-6.644-8.292c-1.465-2.364-2.198-4.512-2.198-6.443c0-1.532,0.367-3.514,1.1-5.944
	c0.666-2.065,1.814-5.146,3.446-9.241c1.665-4.029,4.812-8.108,9.44-12.238c2.031-1.831,5.562-4.545,10.59-8.142
	c5.096-3.63,8.426-7.56,9.99-11.788c1.499-4.063,1.416-8.492-0.249-13.287c-2.935-8.414-9.595-18.473-19.956-30.165
	c-0.178-2.603-0.435-5.665-0.773-9.196c-0.633-6.461-1.266-10.89-1.898-13.287c-0.334-1.332-0.732-2.064-1.199-2.198
	c-0.666-0.267-1.665,0.366-2.997,1.898c-1.637,1.86-3.88,5.033-6.724,9.505l-7.246-5.902c-0.184-1.987-0.421-4.296-0.716-6.949
	c-1.032-9.624-1.981-15.335-2.847-17.133c-0.233-0.533-0.55-0.833-0.949-0.899c-0.8-0.2-2.381,1.166-4.746,4.096
	c-2.054,2.54-4.317,5.903-6.781,10.054c-6.355-3.783-11.581-6.61-15.646-8.455c-3.197-5.262-6.094-10.49-8.691-15.685
	c-2.964-6.061-4.563-10.24-4.795-12.538l-0.25-5.045c0-3.996,0.549-8.325,1.648-12.987l1.356-5.003
	c2.149-2.029,5.006-4.604,8.583-7.734l3.302-2.861l5.989,1.012c5.063,1.033,8.625,2.182,10.689,3.447
	c2.531,1.599,7.41,5.645,14.637,12.138c7.126,6.394,10.955,10.107,11.488,11.139c0.399,0.966,0.766,2.847,1.1,5.645
	c0.266,1.565,0.516,2.631,0.748,3.197c0.2,0.5,1.216,1.199,3.047,2.098l4.455,2.19l9.832,10.647
	c7.259,8.059,14.235,16.5,20.929,25.325c21.612,28.505,39.845,60.374,54.696,95.606c1.998,4.695,3.979,7.359,5.944,7.992
	c2.165,0.666,3.264-1.832,3.297-7.493c0.033-15.817-0.933-32.501-2.897-50.051c-2.53-22.544-6.332-40.843-11.404-54.9
	c4.882,5.449,9.52,10.926,13.902,16.438c2.564,3.229,4.263,4.828,5.095,4.795c1.133,0,1.682-2.531,1.648-7.593
	C405.901,213.028,404.52,205.452,401.855,197.76z"/>
</svg>
