<?xml version="1.0" encoding="utf-8"?>
<!-- Generator: Adobe Illustrator 16.0.0, SVG Export Plug-In . SVG Version: 6.00 Build 0)  -->
<!DOCTYPE svg PUBLIC "-//W3C//DTD SVG 1.1//EN" "http://www.w3.org/Graphics/SVG/1.1/DTD/svg11.dtd">
<svg version="1.1" id="图层_1" xmlns="http://www.w3.org/2000/svg" xmlns:xlink="http://www.w3.org/1999/xlink" x="0px" y="0px"
	 width="153px" height="194px" viewBox="0 0 153 194" enable-background="new 0 0 153 194" xml:space="preserve">
<path d="M146.979,150.34c0-0.011,0-0.021,0-0.031c1.321-1.471,2.536-3.484,3.642-6.057c1.198-2.728,1.58-4.308,1.148-4.74
	l-3.643-0.499c-1.727-0.025-3.028,0.091-3.917,0.344c-0.199-0.23-0.425-0.429-0.645-0.635c0.444-1.152,0.669-2.913,0.669-5.298
	c0.033-3.026-0.266-4.673-0.897-4.939c-0.632-0.299-2.212,0.633-4.74,2.795c-0.389,0.333-0.74,0.65-1.074,0.961l-3.018-0.712
	l-3.297-0.66c-0.709-1.716-1.568-3.464-2.581-5.244c0.608-0.362,1.184-0.76,1.687-1.231c4.856-4.623,6.154-10.445,3.892-17.463
	c-2.477-7.653-8.922-14.374-19.324-20.164c3.487-6.016,4.561-12.466,3.208-19.355c-0.998-5.156-3.26-9.863-6.786-14.121
	c-2.759-3.306-6.128-6.126-10.089-8.475c-2.195-9.646-6.543-19.693-13.063-30.146C81.93,4.723,77.456-0.167,74.728,0
	c-2.129,0.133-4.64,4.274-7.534,12.424c-2.457,6.901-3.882,12.76-4.283,17.579c-3.532-6.479-8.089-12.34-13.68-17.579
	C42.877,6.47,38.437,3.758,35.908,4.291c-2.861,0.632-5.339,6.819-7.435,18.562c-2.089,11.537-2.516,21.585-1.314,30.173
	c-2.919,3.001-5.365,6.492-7.318,10.493c-3.094,6.287-4.191,12.424-3.293,18.412C17.82,90.465,22.646,97.119,31,101.909
	c-6.565,6.546-10.407,13.708-11.508,21.485c-0.385,2.66-0.426,5.122-0.131,7.391l-1.216,2.938c-0.599,1.57-1.14,3.065-1.628,4.493
	c-3.964,0.73-7.368,1.56-10.197,2.492c-2.794,0.898-4.291,1.646-4.491,2.246c-0.2,0.731,2.811,3.442,9.031,8.133
	c-3.094,2.096-5.688,4.142-7.784,6.138c-1.93,1.862-2.828,3.093-2.695,3.692c0.167,0.565,1.264,0.947,3.293,1.147
	c2.195,0.233,4.957,0.183,8.283-0.149c-1.83,2.594-3.21,4.923-4.141,6.985c-0.832,1.829-1.131,2.978-0.898,3.442
	c0.233,0.366,1.846,0.399,4.84,0.1l5.604-0.788c-1.022,1.349-1.883,2.613-2.561,3.782c-0.931,1.598-1.297,2.611-1.098,3.044
	c0.241,0.465,1.158,0.691,2.741,0.685c-0.18,0.388-0.349,0.815-0.496,1.312c-0.366,1.23-0.416,2.063-0.149,2.495
	c0.366,0.498,1.63,0.798,3.792,0.898l6.408-0.49c0.772,0.684,1.646,1.295,2.596,1.853c-0.05,1.39,0.087,2.927,0.427,4.624
	c0.466,2.229,1.064,3.427,1.796,3.594c0.964,0.199,2.329-0.267,4.091-1.397c1.599-1.011,2.884-2.233,3.892-3.645
	c1.451,0.164,2.958,0.235,4.518,0.221c0.469,0.834,1.071,1.628,1.819,2.376c1.031,1.064,1.929,1.613,2.694,1.646
	c0.566,0.033,1.297-0.217,2.196-0.748c0.392-0.243,0.731-0.504,1.041-0.775c0.774,1.052,1.46,1.651,2.052,1.773
	c1.165,0.232,3.443-0.982,6.836-3.643c3.061-2.396,5.456-4.641,7.186-6.736c2.594,6.287,4.424,9.43,5.489,9.43
	c0.499,0,1.181-0.748,2.045-2.244c0.617-1.08,1.202-2.376,1.761-3.85c1.911,1.36,3.42,2.344,4.477,2.9
	c1.23,0.666,2.129,0.916,2.693,0.749c0.6-0.167,1.664-1.713,3.193-4.641c1.33-2.63,2.468-5.324,3.437-8.075
	c1.459,1.381,2.86,2.488,4.198,3.285c1.464,0.898,2.495,1.215,3.094,0.948c0.732-0.333,1.381-2.445,1.945-6.337
	c0.306-1.992,0.566-4.237,0.785-6.727l2.209,2.385c1.431,1.265,2.479,1.896,3.145,1.896c0.495,0,1.005-0.491,1.525-1.417
	c0.151,6.573,2.289,11.052,6.457,13.393c3.76,2.129,8.067,1.996,12.924-0.399c5.488-2.694,10.479-7.867,14.969-15.518
	c1.067-1.821,1.962-3.664,2.72-5.524l5.064-1.062c1.298-0.434,1.996-0.832,2.096-1.198c0.186-0.864-1.414-3.049-4.752-6.52
	C146.794,152.786,146.927,151.568,146.979,150.34z"/>
</svg>
