<?xml version="1.0" encoding="utf-8"?>
<!-- Generator: Adobe Illustrator 16.0.0, SVG Export Plug-In . SVG Version: 6.00 Build 0)  -->
<!DOCTYPE svg PUBLIC "-//W3C//DTD SVG 1.1//EN" "http://www.w3.org/Graphics/SVG/1.1/DTD/svg11.dtd">
<svg version="1.1" id="图层_1" xmlns="http://www.w3.org/2000/svg" xmlns:xlink="http://www.w3.org/1999/xlink" x="0px" y="0px"
	 width="177px" height="234px" viewBox="0 0 177 234" enable-background="new 0 0 177 234" xml:space="preserve">
<path d="M175.4,77.52c-0.299-6.992-5.576-16.415-15.832-28.268c-3.979-4.596-7.866-8.692-11.666-12.321
	c-1.333-7.525-3.562-15.286-6.713-23.289c-3.496-8.856-6.343-13.318-8.541-13.385c-1.064-0.033-2.83,1.132-5.293,3.496
	c-2.024,1.968-3.695,3.986-5.055,6.049c-5.738-0.46-11.23-0.168-16.471,0.894c-2.525,0.505-4.69,1.097-6.497,1.775
	c-2.279-3.112-4.276-4.778-5.989-4.972c-1.299-0.133-2.813,1.266-4.545,4.195c-1.347,2.326-2.56,5.093-3.653,8.262
	c-1.084,1.025-2.103,2.22-3.039,3.625c-2.4,3.584-3.839,7.87-4.323,12.851l-2.419-0.065c-4.329,0.233-6.826,1.082-7.492,2.547
	c-0.799,1.731-0.982,4.162-0.549,7.292c0.533,3.663,1.832,7.308,3.896,10.938c0.336,0.589,0.689,1.167,1.055,1.736
	c-2.127,6.086-2.814,12.549-2.054,19.39c0.711,6.339,2.5,11.601,5.348,15.804c-0.561,0.471-0.968,0.915-1.203,1.327
	c-3.096,5.294-4.844,12.103-5.244,20.427c-0.2,4.195-0.083,7.991,0.35,11.387c-0.191,0.344-0.376,0.721-0.557,1.113
	c-1.257-0.245-2.505-0.512-3.738-0.813c-8.69-2.098-18.446-5.994-29.267-11.688c-3.363-1.765-5.46-2.83-6.292-3.196
	c-1.565-0.666-2.947-0.982-4.146-0.949c-5.261,0.1-10.472,4.578-15.632,13.434c-3.43,5.961-6.11,12.92-8.041,20.877
	c-1.798,7.425-2.281,12.686-1.448,15.782c0.266,1.532,0.899,2.497,1.898,2.896c1.099,0.433,2.647-0.066,4.645-1.498l12.981-9.319
	c5.866,2.228,12.632,3.597,20.332,4.075c12.779,0.804,25.211-1.359,37.3-6.462c0.153,0.132,0.323,0.254,0.483,0.381l-2.474,4.383
	c-1.831,3.363-2.88,5.561-3.146,6.593c-0.233,0.966-0.366,2.614-0.399,4.944l-0.1,4.045c-0.133,0.866-0.882,2.514-2.248,4.945
	c-7.924,16.814-12.369,25.621-13.335,26.42c-1.232,1.032-3.812,1.98-7.741,2.847c-3.462,1.332-5.51,4.046-6.143,8.141
	c-0.399,2.63,0.267,4.895,1.998,6.792c0.625,0.711,1.702,1.556,3.223,2.531c0.436,1.153,1.136,2.193,2.121,3.113
	c1.132,1.064,2.664,1.73,4.595,1.997c1.813,0.274,3.602,0.123,5.369-0.439c1.361,2.044,3.617,3.373,6.768,3.985
	c4.728,1.033,8.674-0.383,11.837-4.245c2.697-3.263,4.528-7.841,5.494-13.734c3.13-17.413,4.778-27.919,4.944-31.515
	c0.1-2.23,0.017-5.36-0.25-9.389l-0.399-5.395c0-1.198,0.699-3.18,2.098-5.943l2.62-4.682c0.226,0.014,0.455,0.032,0.676,0.037
	c4.229,0.066,7.925-1.314,11.088-4.145c1.597-1.557,3.075-2.855,4.447-3.916l0.747,1.019c0.932,1.065,2.047,1.998,3.346,2.797
	c2.023,1.275,4.297,2.079,6.815,2.426l2.724,6.464c0.966,2.432,1.398,3.863,1.299,4.295c-0.932,3.363-1.498,5.611-1.698,6.743
	c-0.433,2.497-0.483,4.778-0.149,6.843l2.597,16.031c2.098,11.587,4.079,19.661,5.943,24.223c1.665,4.628,4.312,8.008,7.94,10.139
	c3.93,2.264,7.975,2.363,12.137,0.299c1.365-0.665,2.431-1.83,3.197-3.496c0.115-0.23,0.199-0.467,0.296-0.701
	c2.798,0.886,5.363,0.166,7.694-2.195c2.063-2.089,2.862-4.582,2.429-7.47c0.763-0.99,1.358-2.075,1.767-3.268
	c0.566-1.765,0.649-3.513,0.25-5.244c-0.367-1.565-1.232-2.863-2.598-3.896c-1.564-1.133-3.529-1.698-5.893-1.698l-5.095-0.3
	l-1.049-0.799c-1.765-1.765-4.162-6.293-7.192-13.585c-2.797-6.759-4.444-11.57-4.943-14.434c-0.101-0.599-0.066-1.465,0.1-2.597
	l0.6-3.696c0.299-1.831-0.134-4.378-1.299-7.642l-3.502-7.721c0.655-0.536,1.258-1.124,1.804-1.768c0.94-1.141,1.597-2.256,2-3.348
	c0.428,0.203,0.891,0.372,1.396,0.5c2.432,0.666,4.578,0.25,6.443-1.248c1.965-1.599,2.896-3.68,2.797-6.243
	c-0.123-3.386-1.644-6.28-4.525-8.698l-0.869-4.587c-0.006-0.035-0.023-0.061-0.039-0.088c0.196-0.214,0.394-0.443,0.589-0.711
	c1.632-2.231,2.597-5.877,2.897-10.938c0.166-4.428-0.4-7.908-1.699-10.438c-0.578-1.136-1.143-1.918-1.695-2.35
	c-0.629-2.129-4.237-5.256-10.84-9.387c-3.934-2.447-8.451-4.981-13.537-7.601c0.156-0.113,0.322-0.241,0.502-0.39
	c1.064-0.866,1.648-1.931,1.748-3.196c0.086-1.374-0.349-2.599-1.296-3.677c2.081-0.84,4.558-2.19,7.438-4.064
	c2.877-1.863,5.021-3.532,6.454-5.011c4.136,12.087,8.941,19.844,14.423,23.241c5.793,3.629,11.687,3.763,17.68,0.4
	C173.12,88.823,175.867,83.946,175.4,77.52z M130.237,104.944l-1.034,3.99c-0.9,2.925-1.885,5.305-2.953,7.142
	c-0.954-7.939-1.769-13.72-2.441-17.33c-0.042-0.225-0.085-0.437-0.127-0.658l2.125,1.906
	C127.992,102.088,129.464,103.735,130.237,104.944z M91.296,116.276c-1.265-2.864-2.231-6.31-2.897-10.338l-0.526-4.248
	c0.971-0.715,3.257-2.128,6.869-4.242c1.919-1.112,3.508-2.024,4.789-2.749l-2.691,11.04c-1.032,3.829-2.23,7.375-3.596,10.638
	c-0.012,0.035-0.008,0.068-0.007,0.102l-0.993-0.152l-0.936,0.059C91.311,116.348,91.313,116.312,91.296,116.276z M96.24,78.269
	l-0.473-1.417c1.171,0.455,2.375,0.886,3.613,1.294c-0.029,0.042-0.065,0.08-0.094,0.122c-0.6,0.933-0.899,1.915-0.899,2.947
	l0.05,0.649l0.4,1.249c0.146,0.293,0.341,0.554,0.56,0.797c-0.7,0.166-1.478,0.377-2.343,0.639
	C97.062,82.468,96.802,80.375,96.24,78.269z"/>
</svg>
