<?xml version="1.0" encoding="utf-8"?>
<!-- Generator: Adobe Illustrator 16.0.0, SVG Export Plug-In . SVG Version: 6.00 Build 0)  -->
<!DOCTYPE svg PUBLIC "-//W3C//DTD SVG 1.1//EN" "http://www.w3.org/Graphics/SVG/1.1/DTD/svg11.dtd">
<svg version="1.1" id="图层_1" xmlns="http://www.w3.org/2000/svg" xmlns:xlink="http://www.w3.org/1999/xlink" x="0px" y="0px"
	 width="220px" height="327px" viewBox="0 0 220 327" enable-background="new 0 0 220 327" xml:space="preserve">
<path d="M212.057,189.326c-1.898-4.529-3.912-8.393-6.044-11.59c-1.898-2.896-3.247-4.346-4.046-4.346
	c-0.268,0-2.049,1.965-5.346,5.895c-4.229,5.029-8.476,9.392-12.738,13.088c-14.523,12.422-31.158,19.154-49.891,20.233
	c-0.397-1.771-0.815-3.451-1.264-4.997c-0.865-2.897-2.664-6.527-5.395-10.891c-3.009-4.852-6.492-9.361-10.407-13.562
	c2.111,1.4,5.68,1.825,10.707,1.273c1.499-0.167,2.798-0.767,3.896-1.798c0.8-0.733,1.615-1.85,2.448-3.348l1.198-2.598
	c0.533-0.865,6.212-5.278,17.034-13.238l12.439-9.242c1.731-1.632,2.863-3.164,3.396-4.596c0.766-2.065,0.55-4.379-0.649-6.944
	c-0.565-1.299-2.231-2.498-4.995-3.597c-2.165-0.866-5.861-1.948-11.09-3.247l-3.098-0.75c-3.277-0.835-9.074-2.993-17.375-6.464
	c5.7-0.312,9.391-3.153,11.057-8.539c0.413,0.563,0.836,1.078,1.273,1.516c2.397,2.431,5.744,3.663,10.041,3.696
	c5.861,0.034,9.891-2.248,12.088-6.844c2.266-4.795,1.898-10.99-1.098-18.583c-2.998-7.56-9.691-16.785-20.082-27.675
	c-8.525-8.892-15.561-15.056-21.114-18.509c-0.643-2.256-1.265-4.303-1.865-6.119c1.433-13.222,1.665-24.544,0.699-33.969
	c-0.866-8.625-2.381-13.088-4.546-13.388c-2.298-0.3-5.645,3.546-10.041,11.539c-4.896,8.859-8.559,18.8-10.99,29.823
	c-1.266-0.1-2.748-0.083-4.446,0.05l-5.295,0.899C81.359,29.954,75.864,19.88,70.036,12.287c-4.663-6.128-7.826-8.875-9.491-8.243
	c-1.699,0.633-2.265,5.445-1.699,14.437c0.7,10.757,3.164,22.913,7.394,36.467c-3.042,8.907-4.646,17.301-4.854,25.196
	c-2.381,6.089-6.477,13.515-12.331,22.311c-5.029,7.526-7.543,12.938-7.543,16.235c0.033,4.363,2.314,7.227,6.844,8.592
	c4.193,1.252,8.03,0.611,11.518-1.872c0.625,1.414,1.652,2.708,3.119,3.87c0.81,0.648,1.632,1.161,2.466,1.548
	c-1.246,1.477-3.532,3.794-6.912,6.994c-5.062,4.796-9.175,8.309-12.338,10.541c-6.541,4.609-13.259,9.898-20.149,15.848
	c-1.319-1.231-2.908-2.631-4.779-4.208c-4.929-4.163-7.626-5.961-8.092-5.395c-0.966,1.065-1.149,5.428-0.55,13.087
	c0.273,3.464,0.579,6.217,0.915,8.273l-3.462,3.916c-1.333,1.665-2.964,3.23-4.896,4.695c-1.099,0.866-1.832,1.549-2.198,2.049
	c-0.666,0.799-1.049,1.765-1.149,2.896c-0.133,1.433-0.1,2.848,0.1,4.246c0.333,2.266,1.099,4.014,2.298,5.246
	c1.365,1.465,2.947,2.197,4.746,2.197c1.132,1.865,2.697,2.998,4.696,3.397c2.165,0.466,4.346-0.083,6.544-1.648
	c1.599,0.732,3.247,0.849,4.945,0.35c1.099-0.333,2.681-1.132,4.746-2.397l0.25-0.15c1.699-1.032,2.931-2.681,3.697-4.945
	c0.766-2.265,1.149-5.395,1.149-9.392c0.999-2.364,3.946-6.777,8.842-13.237c5.295-6.994,9.092-11.19,11.39-12.589
	c2.797-1.665,5.711-4.629,8.742-8.892c2.126-3.028,5.071-7.867,8.817-14.479c0.81,0.354,1.667,0.613,2.578,0.767
	c0.474,1.362,0.634,2.735,0.444,4.12c-0.3,2.064-1.416,5.195-3.347,9.392c-1.865,4.163-4.33,8.425-7.393,12.788
	c-2.398,3.43-4.579,6.128-6.544,8.093l-12.039,10.29c-5.994,5.195-9.758,9.408-11.29,12.639c-1.199,2.531-1.582,7.844-1.149,15.936
	c0.466,8.227,1.582,15.703,3.347,22.43c0.339,1.302,4.575,2.06,12.676,2.279c-1.205,18.441-7.521,34.803-18.971,49.074
	c-2.365,2.964-4.762,4.979-7.193,6.045c-2.498,1.099-6.294,1.781-11.39,2.048l-4.146,0.45c-4.762,0.832-7.477,2.863-8.143,6.094
	c-0.3,1.432-0.283,2.864,0.05,4.296c0.367,1.366,0.966,2.531,1.799,3.497c0.566,0.633,1.149,1.065,1.748,1.299l3.397,0.35
	c1.132,0.566,2.365,0.966,3.697,1.199l3.946-0.25c0.999,0.766,2.015,1.182,3.047,1.249c1.499,0.133,3.58-0.283,6.244-1.249
	c5.695-2.064,10.773-3.414,15.236-4.047l4.795-0.699c1.798-0.332,3.047-0.699,3.747-1.099c1.299-0.732,2.265-1.948,2.897-3.646
	l1.798-6.045l1.299-3.696c1.465-4.13,2.881-7.543,4.246-10.24l5.945-10.541l3.047-5.495c0.833-1.665,1.282-2.997,1.349-3.996
	c0.133-1.399-0.233-3.247-1.099-5.545c-1.299-3.431-2.098-6.078-2.398-7.942c-0.564-3.544-0.306-7.326,0.753-11.343
	c6.6-0.421,12.224-1.278,16.831-2.595l2.048,4.745l0.75,1.599c0.466,0.566,1.149,0.865,2.048,0.899
	c5.944,0.128,12.539-0.425,19.773-1.646c0.813,1.541,2.227,3.518,4.255,5.941l5.496,6.943c2.23,3.031,4.162,6.078,5.794,9.143
	c3.364,6.327,6.511,14.253,9.441,23.777c2.964,9.525,4.113,15.486,3.446,17.885c-2.464,8.459-2.33,14.553,0.4,18.283
	c1.432,1.965,3.779,3.164,7.043,3.596l6.744-0.299c1.732,0.932,4.547,1.549,8.442,1.848c4.263,0.334,7.31-0.016,9.142-1.049
	c0.933-0.533,1.482-1.182,1.648-1.948l5.645-0.449c1.799-0.433,3.098-1.132,3.896-2.099c0.7-0.832,1.083-2.081,1.149-3.746
	c0.067-1.565-0.133-3.098-0.599-4.596c-0.833-2.697-2.099-5.029-3.797-6.994c-2.198-2.23-3.98-4.229-5.346-5.994
	c-2.73-3.563-4.962-6.678-6.693-9.342c-1.365-2.131-3.58-6.76-6.645-13.887l-4.846-11.49c-1.831-4.063-3.446-6.727-4.846-7.992
	l-4.545-3.348c-3.764-3.164-6.361-5.561-7.793-7.193c-2.873-3.198-5.357-7.104-7.462-11.709c2.045-0.655,3.932-1.33,5.621-2.028
	c12.804,3.7,24.343,4.006,34.61,0.899c10.258-3.164,19.799-9.908,28.625-20.232l17.982,15.037c2.232,1.932,3.531,2.863,3.896,2.797
	c0.434-0.1,0.717-1.498,0.85-4.195C219.467,214.104,217.219,201.781,212.057,189.326z M88.769,101.106l0.079,2.824l-5.049-0.439
	l0.213-3.369C85.491,100.533,87.073,100.864,88.769,101.106z M109.5,108.799c0.833-1.399,1.199-2.198,1.099-2.398
	c-0.033-0.133-0.7-0.333-1.999-0.599l-3.097-0.45l1.499-4.296c0.633-2.098,0.816-3.197,0.55-3.297
	c-0.1-0.066-0.899,0.216-2.398,0.849c-1.917,0.831-4.212,1.977-6.864,3.42l0.12-1.821l3.896-1.948l3.247-2.598
	c1.959-0.68,3.847-1.46,5.671-2.328c-0.06,4.297,0.503,9.967,1.689,17.01c-1.061-0.561-2.185-0.985-3.378-1.26L109.5,108.799z
	 M133.467,150.875c-0.544-1.473-1.118-2.886-1.736-4.209c-1.466-3.064-2.582-4.596-3.348-4.596c-1.299,0-3.496,3.713-6.594,11.14
	c-0.091,0.216-0.172,0.417-0.258,0.627l-6.686,1.021l-5.995,1.049c-1.965,0.533-3.78,1.732-5.445,3.597
	c-1.455,1.671-2.504,3.568-3.182,5.67L98.26,162.7c-0.999-1.332-1.698-2.397-2.098-3.197c-0.899-1.765-1.033-3.78-0.4-6.044
	c0.688-2.438,2.296-5.322,4.803-8.639c0.713,0.147,1.443,0.248,2.191,0.296c2.897,0.167,5.612-0.416,8.142-1.748
	c2.535-1.348,4.759-3.415,6.676-6.185c1.85,0.63,3.883,1.34,6.113,2.138c8.525,3.03,14.703,5.478,18.533,7.343
	C139.816,148.364,136.89,149.762,133.467,150.875z"/>
</svg>
