<?xml version="1.0" encoding="utf-8"?>
<!-- Generator: Adobe Illustrator 16.0.0, SVG Export Plug-In . SVG Version: 6.00 Build 0)  -->
<!DOCTYPE svg PUBLIC "-//W3C//DTD SVG 1.1//EN" "http://www.w3.org/Graphics/SVG/1.1/DTD/svg11.dtd">
<svg version="1.1" id="图层_1" xmlns="http://www.w3.org/2000/svg" xmlns:xlink="http://www.w3.org/1999/xlink" x="0px" y="0px"
	 width="275px" height="222px" viewBox="0 0 275 222" enable-background="new 0 0 275 222" xml:space="preserve">
<path d="M274.158,117.07l-5.996-0.949c-3.967-0.66-7.547-2.033-10.744-4.107c-6.017-12.937-15.869-22.903-29.559-29.9l-1.119-5.265
	c-0.733-2.765-1.5-4.797-2.299-6.096c-0.733-1.132-3.682-2.432-8.844-3.897c-4.697-1.299-9.277-2.249-13.741-2.848l-8.894-0.45
	c-2.199,0.167-3.631,0.566-4.298,1.199c-1.065,0.999-2.182,2.432-3.348,4.297c-0.811,1.282-1.516,2.575-2.121,3.878
	c-1.568,0.147-3.085,0.355-4.553,0.625c-1.753-5.515-4.637-10.745-8.644-15.692c4.096,0.089,7.705-1.271,10.82-4.1
	c1.366-1.232,2.398-2.565,3.098-3.997c0.666-1.333,0.867-2.332,0.6-2.998c-0.648-1.545-2.807-2.393-6.436-2.563
	c3.188-3.675,5.705-7.863,7.535-12.578c1.766-4.597,2.549-8.677,2.349-12.242c-0.2-3.664-1.133-6.712-2.798-9.144
	c-1.232-1.799-2.814-3.165-4.747-4.097c-2.365-1.166-5.247-1.499-8.644-1c-3.365,0.5-6.463,1.699-9.295,3.598
	c-1.289,0.873-2.493,1.864-3.631,2.949c0.188-4.471-1.137-7.763-4.014-9.844c-1.699-1.232-3.714-1.832-6.046-1.799
	c-2.364,0-4.78,0.633-7.245,1.899c-3.23,1.666-6.246,4.264-9.043,7.794c-2.865,3.665-4.897,7.612-6.096,11.842
	c-0.452,1.543-0.737,3.081-0.892,4.614c-0.755-1.108-1.702-2.1-2.856-2.965c-1.532-1.133-2.698-1.549-3.498-1.249
	c-1.299,0.533-2.015,2.315-2.148,5.346c-0.149,3.137,0.674,6.247,2.454,9.331c-2.305,0.374-4.06,0.844-5.252,1.412
	c-6.063-2.631-12.425-4.664-19.087-6.096c-9.327-1.999-18.404-2.832-27.231-2.499c-9.227,0.333-17.538,1.916-24.933,4.747
	c-5.615,2.143-10.621,4.891-15.018,8.244c-5.493-0.734-8.948-0.508-10.315,0.7c-4.896,4.264-8.927,9.71-12.092,16.339
	c-2.798,5.83-4.547,11.742-5.247,17.738c-0.167,1.565,0.367,3.531,1.599,5.896c1.144,2.164,2.602,4.043,4.348,5.662
	c-0.117,8.939,1.517,17.531,4.946,25.767c3.864,9.194,9.71,17.372,17.538,24.533c7.828,7.195,16.672,12.975,26.532,17.339
	c10.093,4.464,20.669,7.161,31.729,8.095c2.986,0.254,5.959,0.392,8.92,0.427c0.578,5.611,2.05,16.903,4.421,33.899
	c0,1.066-0.6,2.166-1.799,3.299c-1.299,1.165-2.016,1.981-2.149,2.447c-0.2,0.633,0.233,1.333,1.299,2.1
	c2.931,2.231,7.611,3.514,14.041,3.847c5.896,0.333,11.958-0.167,18.188-1.499c2.599-0.533,4.564-1.049,5.896-1.549
	c2.199-0.799,3.631-1.782,4.297-2.948c1.433-2.731,2.766-6.096,3.998-10.093c0.619-2.089,1.053-3.724,1.309-4.927
	c3.517,0.99,7.119,1.863,10.808,2.619l0.874,4.556c1,5.963,1.4,9.594,1.199,10.893c-0.066,0.4-0.766,1.116-2.098,2.148l-2.199,1.85
	c-0.766,0.732-1.166,1.398-1.199,1.998c-0.033,0.633,0.2,1.232,0.7,1.799c3.397,3.664,9.942,5.696,19.637,6.096
	c8.96,0.334,16.072-0.666,21.335-2.998c1.467-0.633,2.465-1.965,2.998-3.997c1.373-5.786,2.311-12.461,2.817-20.013
	c5.512-0.688,10.618-1.796,15.325-3.318c1.712,4.288,2.399,8.469,2.044,12.539c-0.1,0.732-0.583,1.582-1.448,2.548
	c-1.333,1.466-1.982,2.665-1.949,3.598c0.033,0.633,0.283,1.149,0.75,1.549c1.632,1.366,6.045,2.249,13.24,2.647
	c8.661,0.434,16.406-0.648,23.234-3.247c1.033-0.399,1.949-1.183,2.748-2.349l1.648-3.147c4.064-9.761,6.93-20.137,8.595-31.13
	c2.553-17.108,1.712-33.535-2.5-49.284c1.343,0.012,2.791-0.245,4.349-0.781c1.566-0.533,2.981-1.249,4.248-2.148
	c1.332-0.933,2.331-1.915,2.998-2.948C274.158,118.087,274.357,117.438,274.158,117.07z"/>
</svg>
