<?xml version="1.0" encoding="utf-8"?>
<!-- Generator: Adobe Illustrator 16.0.0, SVG Export Plug-In . SVG Version: 6.00 Build 0)  -->
<!DOCTYPE svg PUBLIC "-//W3C//DTD SVG 1.1//EN" "http://www.w3.org/Graphics/SVG/1.1/DTD/svg11.dtd">
<svg version="1.1" id="图层_1" xmlns="http://www.w3.org/2000/svg" xmlns:xlink="http://www.w3.org/1999/xlink" x="0px" y="0px"
	 width="350px" height="305px" viewBox="0 0 350 305" enable-background="new 0 0 350 305" xml:space="preserve">
<path d="M344.797,117.095c-2.869-13.945-10.357-25.372-22.469-34.279c-0.001,0-0.001-0.001-0.002-0.001
	c0.021-3.647-0.56-7.582-1.75-11.809c-2.869-10.275-8.624-19.567-17.266-27.874c-9.675-9.308-21.418-15.68-35.229-19.116
	c-15.947-3.937-33.363-3.52-52.246,1.251c-7.539-7.973-18.098-14.229-31.677-18.766c-13.378-4.47-27.64-6.589-42.787-6.355
	C125.426,0.378,110.78,3.23,97.435,8.702c-14.646,6.039-26.306,14.712-34.98,26.022c-17.281,2.735-31.51,7.773-42.687,15.113
	C8.492,57.277,2.037,66.001,0.402,76.01c-1.468,9.074,0.967,18.182,7.306,27.323c5.972,8.674,14.93,16.714,26.873,24.121
	c7.405,4.573,15.478,8.61,24.214,12.114c3.197,7.644,10.23,14.55,21.125,20.714c9.079,5.147,20.142,9.481,33.137,13.024
	c-0.22,1.928-0.537,3.875-0.959,5.842c-0.667,3.067-2.652,9.475-5.955,19.217c-0.169,0.496-0.319,0.971-0.479,1.455
	c-0.783,0.406-1.46,0.707-2.024,0.896c-3.903,1.4-10.208-2.853-18.916-12.762c-2.902-3.303-5.955-5.121-9.158-5.454
	c-2.803-0.267-5.305,0.634-7.506,2.702c-2.135,1.936-3.47,4.438-4.003,7.507c-0.567,3.271-0.05,6.339,1.551,9.208
	c4.037,7.307,11.293,12.443,21.769,15.413c5.267,1.491,10.023,2.038,14.271,1.646c-0.234,6.976,1.166,13.949,4.245,20.924
	c2.936,6.605,9.775,11.526,20.518,14.764c4.127,1.252,8.726,2.217,13.792,2.896c1.546,2.489,3.518,5.324,5.926,8.513
	c1.334,1.802,1.885,3.053,1.651,3.754c-0.233,0.733-1.385,1.334-3.453,1.801c-17.548,2.401-30.126,6.123-37.732,11.16
	c-6.305,4.17-8.557,8.642-6.756,13.411c2.102,5.604,10.042,6.438,23.821,2.503c11.61-3.337,24.337-8.976,38.183-16.915
	c3.069-1.735,4.954-3.819,5.655-6.255c1.134-4.138-1.484-8.726-7.857-13.763c-0.882-0.697-1.849-1.713-2.897-3.024
	c4.176,0.078,8.576,0.021,13.207-0.179c15.023-0.633,27.027-1.969,36.042-4c1.721,7.151,3.552,11.845,5.493,14.06
	c1.668,1.868,3.971,2.317,6.906,1.353c13.678-4.438,26.59-10.228,38.732-17.365c10.409-6.105,16.163-10.478,17.266-13.111
	c1.901-4.639,0.633-7.84-3.804-9.607c-4.604-1.836-10.81-1.285-18.616,1.65c-4.703,1.768-11.844,6.372-21.419,13.813l-8.006,5.854
	c-2.136,1.335-3.254,1.451-3.354,0.351c-0.039-0.422-0.129-0.891-0.246-1.383c8.58-4.375,14.09-11.23,16.511-20.586
	c0.762-2.926,0.95-6.795,0.569-11.599c7.668-1.753,13.42-3.907,17.246-6.468c7.439-4.938,11.625-12.728,12.562-23.369
	c0.267-2.836-0.483-5.555-2.252-8.157c-0.832-1.239-1.782-2.296-2.849-3.172c5.927-2.906,10.4-6.599,13.422-11.072
	c10.496,1.335,20.802,1.455,30.91,0.332c15.98-1.769,27.458-8.14,34.431-19.116C345.298,137.863,347.065,127.904,344.797,117.095z
	 M244.863,182.3c-2.437,9.509-5.871,15.664-10.309,18.466c-0.383,0.239-0.797,0.461-1.226,0.672
	c-0.011-0.041-0.019-0.08-0.027-0.121c-1.042-4.641-2.54-10.338-4.485-17.075c5.945-0.462,11.258-1.171,15.896-2.142
	c0.076-0.016,0.147-0.033,0.224-0.05C244.914,182.135,244.885,182.213,244.863,182.3z"/>
</svg>
