<?xml version="1.0" encoding="utf-8"?>
<!-- Generator: Adobe Illustrator 16.0.0, SVG Export Plug-In . SVG Version: 6.00 Build 0)  -->
<!DOCTYPE svg PUBLIC "-//W3C//DTD SVG 1.1//EN" "http://www.w3.org/Graphics/SVG/1.1/DTD/svg11.dtd">
<svg version="1.1" id="图层_1" xmlns="http://www.w3.org/2000/svg" xmlns:xlink="http://www.w3.org/1999/xlink" x="0px" y="0px"
	 width="441px" height="398px" viewBox="0 0 441 398" enable-background="new 0 0 441 398" xml:space="preserve">
<path d="M434.442,49.156c-1.251-3.197-2.748-6.275-4.487-9.237c0.27-0.878,0.515-1.949,0.733-3.227
	c0.334-2.069,0.467-3.754,0.4-5.056c-0.134-3.438-3.754-8.459-10.862-15.067c-7.108-6.574-12.614-10.078-16.519-10.512
	c-1.401-0.167-3.554,0.15-6.457,0.951c-1.771,0.483-3.235,0.965-4.436,1.449c-11.422-4.72-24.481-7.271-39.214-7.605
	c-16.246-0.382-31.3,1.683-45.171,6.172l-2.784-2.819c-2.869-2.736-4.871-4.138-6.006-4.205c-4.172-0.2-11.213,2.403-21.124,7.809
	c-10.146,5.506-16.202,10.211-18.171,14.116c-0.801,1.602-1.168,4.789-1.102,9.561c0.042,2.625,0.173,4.876,0.394,6.758
	c-9.881,11.25-16.382,24.358-19.465,39.344c-0.402,1.955-0.748,4.071-1.041,6.333c-1.976-1.215-4.313-1.828-7.019-1.828
	c-7.24,0-13.448,3.137-18.621,9.411c-3.733,4.504-6.112,9.682-7.151,15.525c-16.553-4.283-32.724-5.959-48.512-5.013
	c-15.847,0.917-30.614,4.426-44.308,10.514c-1.284-1.463-3.7-2.982-7.251-4.557c-4.772-2.136-8.359-2.903-10.762-2.303
	c-3.17,0.768-9.327,4.622-18.471,11.563c-10.111,7.708-15.467,13.565-16.068,17.57c-0.467,3.003-0.25,6.691,0.651,11.063
	c0.663,3.264,1.48,5.718,2.45,7.375c-3.086,4.195-5.982,8.606-8.713,13.206c-2.733,2.374-6.528,4.725-11.407,7.05
	c-5.039,2.403-9.394,3.988-13.065,4.755c-2.269,0.5-3.504,1.068-3.704,1.702c-0.167,0.634,0.618,1.552,2.353,2.753
	c2.637,1.802,5.506,3.037,8.61,3.704c2.78,0.574,5.103,0.582,6.98,0.034c-1.827,4.193-3.537,8.519-5.128,12.98
	c-6.147,17.316-10.209,35.904-12.229,55.736c-2.321,0.294-5.334,2.564-9.045,6.834c-3.604,4.139-5.356,7.059-5.256,8.76
	c0.066,1.135,0.4,2.82,1.001,5.057c0.434,1.596,0.885,2.917,1.353,3.978c-1.683,1.041-3.417,2.31-5.208,3.831
	c-2.369,1.969-3.788,3.537-4.254,4.705l-0.1,1.252l0.05,1.551c0,2.57,0.935,6.008,2.803,10.313
	c-1.702,1.034-3.304,2.169-4.806,3.404c-1.602,1.334-2.636,2.402-3.104,3.203l-0.1,0.25c-0.1,0.367-0.15,0.784-0.15,1.252
	c0,1.535,0.517,3.688,1.552,6.457c0.618,1.606,1.283,3.116,1.986,4.551c-1.126,1.862-2.238,4.762-3.338,8.714
	c-1.235,4.572-1.502,7.292-0.801,8.159c0.667,0.868,3.42,2.303,8.259,4.305c4.572,1.902,7.325,2.887,8.259,2.953
	c1.335,0.135,3.654-1.4,6.958-4.604c1.951-1.882,3.586-3.65,4.921-5.312c0.205,7.856,0.733,12.584,1.586,14.172
	c0.333,0.667,2.186,1.334,5.556,2.002l6.357,0.951c3.938,0.467,6.241,0.316,6.908-0.451c0.768-0.867,1.769-3.253,3.003-7.158
	c0.254-0.797,0.472-1.523,0.668-2.207c1.028,1.657,2.354,3.56,3.987,5.711c2.536,3.371,4.338,5.273,5.406,5.707l16.369,0.65
	l2.002-0.3c0.279-0.197,0.422-0.515,0.435-0.946c4.993,0.216,9.226,0.249,12.68,0.096c1.268-0.033,2.019-0.268,2.252-0.701
	c0.3-0.434,0.15-1.268-0.451-2.503c-0.634-1.302-2.102-3.704-4.405-7.208l-3.254-4.806c-0.476-0.68-1.245-1.236-2.3-1.674
	l0.047-0.778c0-2.67-0.5-4.906-1.501-6.708l4.655-2.804c2.002-1.367,3.204-2.535,3.604-3.504c0.333-0.9,0.5-2.27,0.5-4.104
	c0-1.799-0.268-3.597-0.772-5.396c3.75-1.572,6.276-2.98,7.57-4.221c8.918,4.84,18.925,8.585,30.021,11.232
	c0.843,3.438,2.107,5.832,3.791,7.194c-2.493,3.745-3.479,6.887-2.918,9.41c0.367,1.636,1.552,3.287,3.554,4.956l5.106,3.604
	c1.514,1.054,2.375,1.683,2.591,1.892c-0.758,2.283-1.139,4.141-1.139,5.567l0.1,1.102c0.434,1.334,1.702,2.902,3.804,4.705
	c1.902,1.668,3.804,2.986,5.707,3.954c-2.736,4.339-4.105,7.608-4.105,9.812l0.15,1.251c0.333,1.168,1.819,3.003,4.455,5.507
	c2.445,2.33,4.616,3.949,6.516,4.866c-1.225,2.347-2.222,4.888-2.961,7.647c-0.968,3.471-0.985,5.373-0.05,5.706
	c1.335,0.468,4.822,0.4,10.462-0.2c5.306-0.601,8.526-1.135,9.661-1.602c1.335-0.567,3.871-3.438,7.609-8.609
	c1.92-2.675,3.298-4.789,4.152-6.362c0.705,1.523,1.816,3.404,3.356,5.661c2.903,4.238,4.872,6.391,5.907,6.457
	c1.635,0.134,5.156-0.35,10.562-1.451c5.272-1.102,8.009-1.853,8.209-2.253c0.304-0.607,0.117-2.826-0.548-6.621l3.451,2.817
	c1.802,1.301,3.204,2.119,4.205,2.452l6.758-0.45l9.86-2.103c0.941-0.294,1.539-0.671,1.833-1.12l3.774-0.081
	c1.868-0.334,3.086-0.868,3.654-1.603c0.3-0.4,0.3-1,0-1.801c-0.346-0.899-0.85-1.805-1.493-2.715l5.848-0.189
	c3.938-0.4,6.173-1.018,6.708-1.852c0.5-0.768,0.25-2.553-0.752-5.356c-0.662-1.862-1.407-3.229-2.236-4.103
	c1.325-0.828,2.929-2.018,4.84-3.605c2.703-2.236,4.104-3.755,4.205-4.556l0.05-0.501c0-1.034-0.784-3.27-2.353-6.707
	c6.174-3.203,9.461-5.373,9.861-6.508l0.199-1.852c0-2.938-0.232-5.239-0.7-6.908c1.602-0.701,3.571-1.985,5.907-3.854
	c2.436-1.902,3.736-3.254,3.904-4.055l0.1-2.053c0-1.836-0.25-3.754-0.751-5.757c-0.46-1.895-1.043-3.353-1.744-4.392l0.822-1.006
	c7.516,4.788,15.578,8.464,24.198,11.004c10.579,3.17,21.774,4.789,33.588,4.855c11.646,0.066,22.876-1.368,33.688-4.305
	c12.647-3.438,22.525-8.894,29.633-16.369c4.906-5.172,8.21-10.912,9.912-17.219c1.635-5.873,1.602-11.83-0.101-17.87
	c-1.469-5.206-3.787-9.444-6.958-12.715l-2.633-2.634c0.836-5.257,0.895-10.731,0.13-16.438c-1.268-9.178-4.055-15.901-8.359-20.173
	c-2.97-2.837-6.907-4.188-11.813-4.055c-3.17,0.067-5.355,0.751-6.558,2.052c-0.767,0.802-1.117,1.902-1.051,3.305l0.101,1.502
	c0.151,2.743,0.235,5.278,0.268,7.653c-7.707-7.388-13.498-13.832-17.337-19.317c-5.039-7.208-7.726-14.016-8.06-20.423
	c-0.334-5.973,2.903-16.102,9.711-30.384c6.796-14.333,14.093-25.757,21.89-34.286c2.273-0.091,4.191-0.572,5.742-1.455
	c2.536-1.468,4.505-3.337,5.906-5.606c0.803-1.316,1.305-2.55,1.511-3.702c1.146-0.574,2.31-1.051,3.495-1.404
	c14.149-4.205,24.094-9.043,29.834-14.516c6.874-6.507,10.812-16.252,11.813-29.233C438.748,64.891,437.513,57.132,434.442,49.156z"
	/>
</svg>
