<?xml version="1.0" encoding="utf-8"?>
<!-- Generator: Adobe Illustrator 16.0.0, SVG Export Plug-In . SVG Version: 6.00 Build 0)  -->
<!DOCTYPE svg PUBLIC "-//W3C//DTD SVG 1.1//EN" "http://www.w3.org/Graphics/SVG/1.1/DTD/svg11.dtd">
<svg version="1.1" id="图层_1" xmlns="http://www.w3.org/2000/svg" xmlns:xlink="http://www.w3.org/1999/xlink" x="0px" y="0px"
	 width="248px" height="231px" viewBox="0 0 248 231" enable-background="new 0 0 248 231" xml:space="preserve">
<path d="M247.78,104.819c-0.101-2.802-2.418-6.037-6.954-9.707c-4.245-3.408-8.693-5.682-13.342-6.839
	c0.176-0.109,0.359-0.204,0.533-0.315c4.736-3.036,8.672-6.821,11.808-11.357c1.401-2.001,2.468-4.02,3.202-6.054
	c0.734-2.001,0.951-3.452,0.65-4.353c-0.734-2.135-4.036-4.336-9.906-6.604c-5.66-2.184-11.134-3.348-16.424-3.518
	c1.244-1.695,2.268-3.562,3.088-5.586c2.488-0.405,4.883-1.317,7.182-2.753c3.27-2.068,5.771-4.836,7.505-8.306
	c2.401-4.77,3.353-10.057,2.853-15.86c-0.468-5.771-2.219-10.657-5.254-14.66c-2.836-3.769-6.555-6.371-11.157-7.805
	c-4.637-1.435-9.739-1.534-15.31-0.3c-0.668,0.167-1.018,0.367-1.051,0.601c0,0.2,0.333,0.434,1,0.7
	c3.569,1,6.438,3.019,8.605,6.054c1.936,2.668,3.053,5.67,3.353,9.006c0.233,2.301-0.149,4.319-1.151,6.054
	c-0.014,0.025-0.032,0.045-0.046,0.07c-2.565-3.406-6.076-6.038-10.561-7.875c-5.103-2.101-10.272-2.685-15.51-1.751
	c-7.672,1.334-13.392,5.554-17.161,12.658c-1.333,2.515-2.256,5.108-2.787,7.776c-4.819,0.551-8.18-1.202-10.071-5.274
	c-1.2-2.568-1.552-5.57-1.051-9.006s1.634-6.004,3.402-7.705l0.5-0.9l-1.351-0.1c-6.871,1.468-11.824,5.003-14.859,10.607
	c-2.635,4.903-3.336,10.24-2.102,16.01c1.334,6.204,4.536,11.141,9.605,14.81c5.771,4.178,12.646,5.519,20.623,4.027
	c2.1,2.851,4.805,5.17,8.146,6.931c2.223,1.178,4.507,1.999,6.848,2.494c-2.365,2.144-4.002,4.646-4.896,7.512
	c-1.001,3.202-0.984,6.521,0.05,9.957c1.167,3.469,3.319,6.237,6.454,8.305c0.989,0.663,2.039,1.216,3.138,1.683
	c-1.928,1.545-3.396,3.415-4.388,5.622c-1.234,2.635-1.618,5.404-1.151,8.306c0.434,2.602,1.501,4.92,3.202,6.955
	c1.423,1.707,3.154,2.988,5.159,3.895c-3.509,1.421-6.234,3.536-8.161,6.362c-2.201,3.302-3.019,6.871-2.451,10.707
	c0.484,3.305,1.959,6.47,4.401,9.5c-0.403,0.105-0.804,0.223-1.2,0.355c-2.734,0.935-5.069,2.519-7.004,4.754
	c-1.936,2.225-3.256,4.843-3.975,7.847c-4.574-2.088-9.187-3.235-13.838-3.394c-0.027,0-0.05,0.015-0.073,0.026
	c-0.923-1.65-2.179-3.063-3.778-4.229c-1.478-1.115-3.288-1.835-5.395-2.205c-0.586-1.108-1.469-2.348-2.649-3.72
	c1.152,0.124,2.33,0.201,3.541,0.221c6.304,0,11.94-2.151,16.911-6.454c5.403-4.637,8.355-10.557,8.855-17.762
	c0.434-8.605-2.051-15.81-7.455-21.614c-3.051-3.237-6.866-5.533-11.429-6.911c0.03-0.748,0.068-1.483,0.122-2.195
	c0.4-5.337,1.5-10.356,3.302-15.06l0.05-0.701c-0.166-0.167-0.417-0.217-0.75-0.15c-4.37,0.434-9.106,3.269-14.209,8.505
	c-3.096,3.193-5.493,6.682-7.204,10.464c-4.92,1.916-8.98,4.972-12.159,9.199c-3.535,4.703-5.303,9.94-5.303,15.71
	c0,1.807,0.164,3.545,0.486,5.217c-2.139-3.811-4.021-6.255-5.64-7.318l-1.551-0.2c-2.068,0.667-3.669,3.836-4.803,9.506
	c-0.307,1.483-0.549,3.001-0.755,4.538c-3.838,0.124-7.836,0.766-12.003,1.966c-4.403,1.234-8.605,2.986-12.608,5.254
	c-6.919,3.93-12.467,9.073-16.666,15.408c-2.71-1.436-5.346-2.595-7.9-3.451l-2.305-0.055c-0.435-0.073-0.856-0.129-1.248-0.145
	l-0.429,0.104l-2.323-0.055c-0.5,0.366-0.75,1.001-0.75,1.901c0,0.89,0.187,1.961,0.52,3.175c-5.17-2.99-10.958-4.198-17.38-3.575
	c-3.202,0.301-6.404,1.317-9.606,3.052c-3.067,1.649-5.695,3.779-7.934,6.333c-5.166,0.423-9.944,1.663-14.33,3.724
	c-3.069,1.435-5.587,3.202-7.555,5.304c-1.968,2.034-3.135,4.119-3.502,6.254l0.1,0.7l0.701,0.05
	c4.736-0.801,9.156-0.767,13.259,0.101c1.451,0.288,2.955,0.7,4.502,1.212l-0.049,1.039c0,4.203,0.701,8.156,2.102,11.857
	c1.467,3.903,3.552,7.139,6.254,9.707c2.468,2.368,5.487,4.119,9.056,5.254c3.469,1.1,7.255,1.551,11.357,1.35
	c8.005-0.366,14.56-3.385,19.663-9.055c1.251-1.4,2.325-2.876,3.234-4.421l0.472,0.988c-0.259,0.368-0.525,0.729-0.754,1.131
	c-1.368,2.368-1.968,4.886-1.801,7.555c0.167,2.235,0.917,4.286,2.251,6.153c1.334,1.869,3.169,3.402,5.504,4.604
	c3.502,1.834,7.705,2.568,12.608,2.201c4.457-0.313,8.832-1.555,13.126-3.701c-0.944,2.015-1.739,4.24-2.369,6.703
	c-0.667,2.803-0.968,5.154-0.901,7.055c0.133,2.335,0.834,3.736,2.102,4.203c1.634,0.566,3.802-0.701,6.504-3.803
	c2.001-2.335,4.42-4.67,7.255-7.004c2.88-2.4,5.489-4.175,7.829-5.334c2.8,1.685,5.826,3.146,9.068,4.388
	c-0.518,1.238-0.787,2.714-0.787,4.448c0,1.935,0.268,3.686,0.801,5.254c0.467,1.301,1.018,2.067,1.651,2.301
	c0.867,0.334,1.868,0.117,3.002-0.65c0.9-0.566,2.001-1.584,3.302-3.052c2-2.222,3.659-3.798,4.988-4.748
	c5.927,1.024,11.885,1.252,17.877,0.646c8.151-0.848,14.89-2.498,20.236-4.939c1.06,1.637,2.152,3.46,3.279,5.489
	c2.234,3.97,4.169,5.754,5.804,5.354c1.7-0.366,2.635-3.401,2.802-9.106c0.093-3.132-0.165-6.154-0.76-9.074
	c1.905-1.618,3.607-3.376,5.097-5.281c1.137,0.725,2.261,1.519,3.368,2.398c3.735,2.936,6.787,6.371,9.156,10.307
	c1.601,2.535,3.051,3.568,4.352,3.102c0.801-0.232,1.401-1.051,1.802-2.451s0.517-3.152,0.351-5.254
	c-0.5-5.937-3.152-11.924-7.955-17.961c-0.902-1.128-1.797-2.145-2.688-3.095c2.63,0.535,6.036,0.604,10.242,0.192
	c5.771-0.566,9.239-1.65,10.406-3.252c0.968-1.334,1.268-3.77,0.9-7.305c-0.434-4.803-1.784-9.807-4.053-15.01
	c-1.491-3.376-3.219-6.357-5.178-8.952c2.958,0.37,6.956-0.005,12.033-1.154c6.971-1.567,10.891-3.853,11.758-6.854
	c0.366-1.234,0.149-3.186-0.65-5.854c-0.834-2.869-2.168-5.787-4.003-8.756c-3.082-5.014-6.732-8.953-10.943-11.834
	c3.909-1.044,8.204-3.458,12.895-7.278C245.362,110.806,247.881,107.42,247.78,104.819z"/>
</svg>
