<?xml version="1.0" encoding="utf-8"?>
<!-- Generator: Adobe Illustrator 16.0.0, SVG Export Plug-In . SVG Version: 6.00 Build 0)  -->
<!DOCTYPE svg PUBLIC "-//W3C//DTD SVG 1.1//EN" "http://www.w3.org/Graphics/SVG/1.1/DTD/svg11.dtd">
<svg version="1.1" id="图层_1" xmlns="http://www.w3.org/2000/svg" xmlns:xlink="http://www.w3.org/1999/xlink" x="0px" y="0px"
	 width="545px" height="308px" viewBox="0 0 545 308" enable-background="new 0 0 545 308" xml:space="preserve">
<path d="M542.992,185.14c-0.3-2.164-1.115-3.247-2.447-3.247c-1.298,0-2.431,0.934-3.396,2.797
	c-1.232,2.432-3.463,4.679-6.692,6.743c-3.33,2.131-6.909,3.546-10.738,4.245c-2.53,0.466-4.845,0.516-6.942,0.149
	c-0.688-0.114-1.313-0.289-1.909-0.49c-2.127-7.715-6.436-13.689-12.974-17.889c-5.727-3.696-12.136-5.526-19.228-5.493
	c-0.995,0.012-1.959,0.071-2.907,0.154c-1.171-1.067-2.156-2.279-2.937-3.65c-0.999-1.799-1.565-3.663-1.698-5.594
	c-0.133-2.064,0.25-4.129,1.148-6.193c0.8-1.965,1.981-3.779,3.546-5.444c1.532-1.631,2.114-2.913,1.748-3.846
	c-0.299-0.866-1.365-1.298-3.196-1.298c-4.761-0.033-9.173,0.965-13.234,2.997c-4.096,2.031-7.292,4.861-9.59,8.49
	c-2.363,3.696-3.695,7.825-3.995,12.387c-0.313,4.278,0.354,8.244,1.976,11.906c-0.382,0.244-0.759,0.536-1.127,0.929l-3.296,3.796
	c-1.03,1.274-2.062,2.736-3.093,4.365c-0.886-2.133-2.101-4.222-3.649-6.264c-3.125-4.103-6.95-7.218-11.46-9.366
	c3.691-3.04,7.28-6.688,10.761-10.96c1.099-1.365,1.599-2.631,1.498-3.796c-0.1-1.132-0.766-2.313-1.997-3.546
	c-6.793-6.759-14.351-11.287-22.675-13.584c-4.067-1.119-8.203-1.666-12.403-1.676c2.823-3.773,5.246-8.318,7.26-13.656
	c1.997-5.261,3.246-10.205,3.745-14.833c0.2-1.998-0.017-3.346-0.649-4.045c-0.532-0.566-1.664-0.965-3.396-1.198
	c-3.463-0.4-7.559-0.417-12.286-0.05c-5.324,0.424-10.155,1.31-14.545,2.613c2.715-8.266,4.378-17.269,4.956-27.035
	c0.066-1.565-0.167-2.614-0.699-3.146c-0.566-0.566-1.731-0.849-3.496-0.849l-7.892,0.699c-3.813,0.596-7.43,1.488-10.87,2.643
	c0.161-0.597,0.329-1.186,0.482-1.794c3.463-13.685,4.545-25.837,3.246-36.458c-0.399-3.163-1.165-5.277-2.298-6.343
	c-1.298-1.232-3.379-1.432-6.242-0.6c-6.626,1.931-12.836,4.179-18.629,6.742c-5.242,2.337-10.608,5.154-16.091,8.419
	c-0.325-1.256-0.718-2.576-1.189-3.974c-1.698-5.061-3.763-9.689-6.193-13.884c-2.597-4.461-4.512-6.509-5.743-6.143
	c-1.465,0.466-2.131,3.729-1.998,9.789c0.058,2.019,0.196,4.016,0.406,5.995c-0.753,0.074-2.065,1.013-3.952,2.845
	c-0.107,0.104-0.206,0.204-0.31,0.306c-5.482-3.094-11.612-5.439-18.394-7.037c-0.439-2.323-0.996-3.567-1.674-3.708
	c-0.692-0.157-2.049,0.726-4.053,2.624c-3.607-0.537-7.062-0.823-10.363-0.857c-1.43-3.795-4.028-8.327-7.809-13.603
	c-5.827-8.091-10.105-11.72-12.835-10.888c-0.833,0.233-1.415,2.214-1.748,5.943c-0.334,3.555-0.26,7.329,0.182,11.299
	c-0.748,1.522-1.277,2.994-1.564,4.408c-1.377-3.744-2.924-7.321-4.661-10.713c-5.094-9.989-11.554-18.046-19.378-24.173
	c-1.032-0.766-2.064-1.115-3.097-1.049c-1.065,0.033-2.014,0.516-2.847,1.448c-3.03,3.43-5.96,7.392-8.79,11.887
	c-3.408,5.434-6.056,10.797-7.963,16.09c-3.02-4.515-6.8-9.194-11.365-14.042c-1.332-1.398-2.713-1.998-4.145-1.798
	c-1.432,0.2-2.78,1.199-4.045,2.997c-2.597,3.663-4.978,7.575-7.142,11.737c-3.313,6.414-5.672,12.604-7.099,18.574
	c-1.375-2.686-2.938-5.35-4.738-7.986c-5.86-8.557-12.969-15.382-21.326-20.477c-1.698-1.032-3.03-1.448-3.996-1.249
	c-1.065,0.167-2.181,1.132-3.346,2.896c-2.63,4.029-4.928,9.639-6.892,16.831c-1.949,7.195-2.89,13.859-2.84,20.001
	c-2.403-2.912-5.138-5.722-8.247-8.414c-7.525-6.526-15.583-11.054-24.173-13.585l-2.946-0.149
	c-0.866,0.333-1.548,1.182-2.048,2.547c-1.698,4.329-2.997,9.806-3.896,16.432c-0.957,6.826-1.234,13.343-0.847,19.558
	c-1.263-0.44-2.558-0.825-3.898-1.129c-9.29-2.131-18.013-1.631-26.17,1.499c-2.883,1.108-5.432,2.464-7.662,4.056
	c-10.923-3.461-20.74-2.177-29.446,3.885c-8.657,6.026-13.301,14.45-13.934,25.271c-0.133,2.131,0.3,3.496,1.299,4.096
	c1.099,0.632,2.563-0.167,4.395-2.397c3.929-4.828,8.308-7.991,13.135-9.489c4.553-1.387,8.968-1.063,13.248,0.936
	c-0.009,1.139,0.054,2.275,0.187,3.41c0.566,4.694,2.298,8.94,5.194,12.735c3.496,4.595,7.924,8.124,13.285,10.588
	c5.35,2.443,10.99,3.489,16.914,3.175c0.006,0.007,0.011,0.015,0.018,0.021c3.662,4.096,5.394,9.723,5.194,16.881
	c-0.2,7.592-2.664,13.668-7.392,18.229c-2.131,2.031-2.664,3.646-1.598,4.845c1.032,1.132,2.847,1.348,5.444,0.648
	c12.386-3.229,20.76-10.371,25.122-21.425c3.549-9.067,3.721-18.456,0.538-28.164c3.485-2.972,5.845-6.582,7.054-10.842
	c0.074-0.257,0.131-0.521,0.197-0.782c2.862,1.417,5.959,2.229,9.292,2.43c4.295,0.233,8.224-0.649,11.787-2.647
	c6.792-3.795,10.804-9.223,12.036-16.281c0.118-0.671,0.203-1.355,0.27-2.048c2.187,1.587,4.937,2.742,8.271,3.446
	c3.929,0.799,7.874,0.815,11.836,0.05c6.559-1.265,11.237-3.962,14.034-8.091c0.639-0.946,1.186-1.979,1.643-3.094
	c1.721,2.216,4.393,3.968,8.046,5.241c4.562,1.598,9.123,1.915,13.685,0.949c1.644-0.346,3.164-0.86,4.587-1.509
	c2.6,3.482,5.811,6.234,9.635,8.251c-4.532,2.125-8.23,5.527-11.076,10.238c-3.063,5.061-4.611,10.721-4.645,16.98
	c-0.046,4.61,0.774,9.014,2.42,13.222c-4.234,2.216-7.513,5.887-9.812,11.051c-2.464,5.527-3.146,11.354-2.048,17.48
	c0.884,5.153,2.963,9.805,6.223,13.962c-3.668,5.595-5.542,11.526-5.574,17.802c0,6.593,2.014,12.603,6.043,18.029
	c1.924,2.605,4.228,4.906,6.875,6.933c-6.85,4.636-13.571,10.157-20.16,16.591c-8.024,7.824-13.651,14.949-16.881,21.376
	c-2.797,5.66-4.179,12.12-4.146,19.378c0.067,6.959,1.382,12.286,3.946,15.982c0.666,0.965,1.282,1.498,1.848,1.598
	c0.633,0.1,1.282-0.333,1.948-1.299c3.23-4.661,5.894-8.091,7.991-10.288c1.332-1.398,2.73-2.548,4.195-3.446
	c7.325-4.494,15.382-8.557,24.172-12.186c8.217-3.413,16.358-6.158,24.425-8.252c3.067,2.654,6.328,5.103,9.749,7.383
	c-0.118,2.842,0.113,5.759,0.737,8.76c0.732,3.263,1.765,5.943,3.097,8.041c0.632,0.998,1.215,1.548,1.748,1.648
	c0.632,0.133,1.298-0.268,1.998-1.199c2.438-3.25,4.947-6.198,7.521-8.877c11.877,5.352,24.187,8.479,36.929,9.377
	c12.582,0.873,24.292-0.536,35.146-4.188c2.193,1.323,4.154,2.652,5.857,3.987c0.999,2.431,2.73,5.577,5.194,9.439
	c2.131,3.362,4.378,6.608,6.742,9.739c1.332,1.73,2.613,2.547,3.846,2.447c1.132-0.067,2.114-0.899,2.946-2.498
	c1.531-2.896,2.497-8.207,2.896-15.932c0.314-5.818,0.221-10.84-0.27-15.091c3.339,0.797,7.389,1.931,12.156,3.404
	c5.727,1.731,10.389,3.313,13.984,4.745c0.499,1.896,1.448,4.262,2.847,7.092c1.465,3.029,2.813,5.277,4.045,6.742
	c1.065,1.299,2.165,1.848,3.297,1.647c1.032-0.166,1.864-0.915,2.497-2.247c1.631-3.629,2.697-8.508,3.196-14.633
	c0.532-6.293,0.166-10.622-1.099-12.986c-0.856-1.625-2.113-3.599-3.749-5.902c0.876-0.818,1.641-1.729,2.294-2.73
	c1.153,1.139,2.527,2.046,4.151,2.689c1.799,0.766,3.696,1.133,5.694,1.1c2.729-0.033,5.543-0.816,8.44-2.348
	c3.329-1.731,6.01-4.111,8.04-7.143c0.463-0.683,0.869-1.391,1.25-2.109c3.004,1.567,6.101,2.34,9.288,2.31
	c3.297-0.033,6.443-0.899,9.439-2.597c3.363-1.865,6.043-4.795,8.041-8.79c0.917-1.789,1.634-3.703,2.176-5.728
	c0.649,0.226,1.448,0.421,2.419,0.584l2.073,0.186c1.041,3.14,1.604,6.34,1.673,9.603c0.066,1.931,0.433,3.163,1.099,3.696
	c0.732,0.565,1.814,0.25,3.246-0.949c2.764-2.397,4.628-5.86,5.594-10.389c0.23-1.117,0.396-2.26,0.502-3.426
	c3.733-1.5,6.369-4.43,7.889-8.811c0.677-1.959,1.117-4.149,1.337-6.557c5.783,2.144,11.414,3.007,16.893,2.563
	c5.201-0.412,9.558-1.956,13.073-4.624c5.308,2.169,10.987,2.832,17.042,1.977c6.026-0.866,11.304-3.047,15.832-6.543
	c4.162-3.196,7.176-7.375,9.04-12.536C543.342,196.377,543.858,190.899,542.992,185.14z M270.952,150.08
	c2.83-4.021,4.437-8.121,4.842-12.301c1.568-0.706,3.068-1.548,4.497-2.532c6.35-4.338,9.564-9.88,9.652-16.622
	c3.558-0.192,6.926-0.716,10.104-1.578c3.989,5.386,9.792,8.707,17.452,9.909c3.337,0.524,6.518,0.579,9.561,0.217
	c1.293,5.875,5.064,10.547,11.315,14.017c4.707,2.618,9.264,3.619,13.67,3.006c0.363,4.27,1.977,8.131,4.859,11.578
	c3.176,3.735,7.017,5.748,11.518,6.055c-1.259,3.29-1.74,6.731-1.43,10.326c0.333,3.695,2.348,7.342,6.043,10.938
	c2.845,2.729,5.652,4.574,8.422,5.544c-0.686,2.027-1.058,4.191-1.114,6.492c-0.222,0.083-0.441,0.159-0.665,0.25
	c-5.327,2.148-9.936,5.354-13.831,9.61c-0.783-0.622-1.663-0.926-2.65-0.87c-1.165,0.1-2.264,0.665-3.296,1.698
	c-1.731,1.798-3.579,4.111-5.544,6.941c-1.604,2.317-2.94,4.496-4.02,6.541c-2.85-4.39-5.981-8.556-9.415-12.484
	c-6.492-7.424-13.701-13.635-21.625-18.629c-13.962-8.804-30.702-13.257-50.207-13.374c-0.211-0.253-0.433-0.503-0.652-0.753
	c0.245-0.885,0.461-1.781,0.616-2.703c0.925-5.49,0.07-10.879-2.52-16.17C268.171,153.637,269.649,151.94,270.952,150.08z"/>
</svg>
