<?xml version="1.0" encoding="utf-8"?>
<!-- Generator: Adobe Illustrator 16.0.0, SVG Export Plug-In . SVG Version: 6.00 Build 0)  -->
<!DOCTYPE svg PUBLIC "-//W3C//DTD SVG 1.1//EN" "http://www.w3.org/Graphics/SVG/1.1/DTD/svg11.dtd">
<svg version="1.1" id="图层_1" xmlns="http://www.w3.org/2000/svg" xmlns:xlink="http://www.w3.org/1999/xlink" x="0px" y="0px"
	 width="208px" height="214px" viewBox="0 0 208 214" enable-background="new 0 0 208 214" xml:space="preserve">
<path d="M206.427,201.705c-0.167-1.832-0.933-4.098-2.299-6.797l-4.448-7.646c-4.697-7.863-7.63-14.493-8.796-19.891
	c-1.333-6.131-2.532-9.945-3.599-11.445c-1.14-1.59-3.112-2.32-5.9-2.209c0.412-2.477,1.101-5.243,2.103-8.336l3.298-9.295
	c2.6-7.863,3.416-15.21,2.449-22.04c-1.066-7.83-6.797-17.592-17.191-29.286c-3.166-3.565-7.113-7.663-11.845-12.294l-7.896-7.946
	c-11.062-12.328-23.122-26.737-36.183-43.23C107.223,10.095,98.744,3.381,90.681,1.148C83.817-0.75,74.255,0.066,61.994,3.598
	l-10.095,0.35l-7.696-1.499c-3.199-0.333-6.114,0.1-8.746,1.299c-2.666,1.199-5.248,3.249-7.747,6.147
	c-1.979,2.275-3.854,5.195-5.624,8.754c-0.224,0.204-0.449,0.43-0.673,0.692c-0.933,1.133-1.383,2.365-1.349,3.698
	c0.002,0.016,0.016,0.03,0.021,0.046c-1.181,1.07-2.337,2.999-3.47,5.801c-1.399,3.432-2.116,6.63-2.149,9.596
	c-0.008,1.085,0.083,1.963,0.275,2.639c-0.878,1.219-1.223,2.422-1.024,3.608c0.022,0.169,0.064,0.319,0.103,0.474
	c-2.647,16.299,8.062,28.99,32.12,38.074c-5.023-0.088-9.951,0.303-14.781,1.184c-5.797,1.066-10.862,2.732-15.193,4.998
	c-3.332,1.732-6.447,4.214-9.346,7.446c-3.165,3.565-5.231,7.147-6.197,10.745c-0.933,3.599-0.466,6.647,1.399,9.146
	c1.692,2.235,3.91,3.197,6.644,2.913c0.559,1.105,1.287,2.056,2.202,2.834c1.765,1.529,3.7,2.03,5.803,1.507
	c0.108,0.25,0.218,0.5,0.345,0.742c1.266,2.398,3.048,3.682,5.347,3.848c1.766,0.134,3.449-0.35,5.048-1.449
	c1.599-1.133,2.799-2.682,3.598-4.647c1.933-4.798,3.382-8.112,4.348-9.945c1.699-3.165,3.532-5.381,5.498-6.647
	c2.865-1.866,8.396-3.132,16.592-3.798c7.806-0.661,13.7-0.283,17.718,1.113c1.349,2.513,2.567,5.401,3.663,8.64
	c-5.047,3.044-14.697,7.687-28.978,13.936c-11.261,4.932-19.391,8.847-24.389,11.745c-7.43,4.265-12.194,8.362-14.293,12.294
	c-1.932,3.632-1.999,7.164-0.2,10.596c1.729,3.245,4.449,4.744,8.138,4.539c0.003,0.02,0.005,0.039,0.008,0.059
	c0.467,2.732,2.266,4.664,5.397,5.797c2.535,0.951,4.945,1.088,7.231,0.42c0.301,0.613,0.684,1.191,1.166,1.729
	c1.333,1.499,3.065,2.448,5.197,2.849c2.166,0.366,4.215,0.1,6.147-0.8c2.166-1.032,3.781-2.698,4.848-4.997
	c2.699-5.731,5.164-10.362,7.396-13.895c1.065-1.673,2.133-3.193,3.202-4.594c0.688,2.189,2.3,4.354,4.845,6.493
	c2.633,2.215,6.095,4.24,10.369,6.078c0.085,3.346-0.665,5.941-2.272,7.766c-2.399,2.731-5.714,4.231-9.945,4.498
	c-6.064-0.267-10.662-0.3-13.794-0.101c-5.63,0.4-8.929,2.332-9.895,5.798c-0.9,3.165-0.35,5.847,1.649,8.046
	c1.75,1.869,3.926,2.768,6.521,2.708c0.157,0.147,0.303,0.299,0.476,0.44c1.949,1.592,4.38,2.402,7.279,2.457
	c0.269,0.228,0.557,0.442,0.867,0.642c2.599,1.666,6.297,2.166,11.095,1.499c3.499-0.466,8.063-1.815,13.694-4.048
	c6.497-2.565,11.011-5.081,13.543-7.546c2.465-2.399,3.798-4.748,3.998-7.047c0.2-2.633-0.966-5.931-3.498-9.896
	c-2.333-3.665-1.849-6.696,1.449-9.096c2.154-1.572,5.466-2.826,9.935-3.763c6.851,2.409,16.708,4.138,29.569,5.185
	c0.448,0.523,0.92,1.034,1.426,1.526c3.732,3.665,8.58,5.998,14.544,6.997c4.906,0.813,10.127,0.608,15.652-0.582
	c0.853,3.401,1.071,7.62,0.64,12.677c-0.396,4.596-1.127,7.646-2.19,9.188c-1.877,1.006-3.336,2.04-4.356,3.105
	c-2.199,2.365-2.865,5.231-1.999,8.596c0.8,3.099,3.282,4.915,7.446,5.448c3.313,0.441,5.939-0.058,7.903-1.469
	c0.067,0.072,0.123,0.147,0.193,0.219c1.833,1.865,4.481,2.766,7.946,2.699c3.085-0.089,5.56-0.918,7.427-2.482
	c0.446,0.482,0.941,0.934,1.519,1.332c3.199,2.232,6.547,2.582,10.046,1.05C205.178,208.436,206.793,205.67,206.427,201.705z"/>
</svg>
