<?xml version="1.0" encoding="utf-8"?>
<!-- Generator: Adobe Illustrator 16.0.0, SVG Export Plug-In . SVG Version: 6.00 Build 0)  -->
<!DOCTYPE svg PUBLIC "-//W3C//DTD SVG 1.1//EN" "http://www.w3.org/Graphics/SVG/1.1/DTD/svg11.dtd">
<svg version="1.1" id="图层_1" xmlns="http://www.w3.org/2000/svg" xmlns:xlink="http://www.w3.org/1999/xlink" x="0px" y="0px"
	 width="339px" height="332px" viewBox="0 0 339 332" enable-background="new 0 0 339 332" xml:space="preserve">
<path d="M337.601,206.781c-0.634-5.53-3.615-10.845-8.946-15.942c-6.33-5.265-10.695-9.413-13.094-12.444
	c-0.544-0.681-1.077-1.271-1.604-1.791c-2.938-4.516-7.436-10.237-13.54-17.201c-7.464-8.496-14.844-16.026-22.141-22.59
	c-5.831-5.265-11.761-9.013-17.792-11.245c-3.765-1.366-9.313-2.582-16.643-3.648c-5.364-0.766-10.412-2.132-15.143-4.098
	c-4.133-1.766-8.914-4.381-14.344-7.847c-9.056-5.792-18.426-10.121-28.112-12.986c-0.991-3.075-2.646-5.646-4.974-7.705
	c-3.955-3.457-8.624-4.686-14.006-3.688c-5.242-10.252-11.451-18.372-18.63-24.349c-5.897-4.964-13.427-9.096-22.59-12.395
	c-2.965-1.099-5.231-2.065-6.797-2.898c-1.699-0.899-3.332-2.083-4.898-3.548c-5.631-5.231-12.111-13.844-19.441-25.839
	C89.01,7.037,85.378,1.806,84.013,0.873c-0.767-0.533-1.45-0.716-2.049-0.55c-0.667,0.133-1.399,0.683-2.199,1.649
	c-0.966,1.199-1.883,2.898-2.749,5.098c-1.133,2.865-2.049,6.214-2.749,10.045c-1.133,6.23-1.417,13.677-0.85,22.34
	c0.457,7.034,1.364,13.122,2.708,18.295c-5.314,3.111-9.97,7.02-13.953,11.741c-5.764,6.818-9.322,14.502-10.69,23.046
	c-0.034,0.033-0.072,0.061-0.105,0.094c-0.766,0.7-1.233,1.516-1.399,2.449c-0.2,0.966-0.017,1.85,0.55,2.649
	c0.566,0.767,1.299,1.2,2.199,1.3c0.509,0.039,1.012-0.051,1.51-0.243c1.344,10.767,4.869,18.947,10.585,24.532
	c1.402,1.368,2.942,2.56,4.591,3.616c-3.749,1.287-7.862,2.756-12.388,4.431c-7.73,2.899-12.978,5.131-15.743,6.697
	c-5.397,3.032-9.762,6.797-13.094,11.295c-2.699,3.632-5.314,8.696-7.847,15.193c-8.003,20.325-11.546,38.709-10.649,55.158
	c-0.434,0.871-0.803,1.884-1.096,3.066l-5.897,18.391c-2.232,6.897-3.065,12.412-2.499,16.543c0.6,4.632,2.399,8.613,5.397,11.945
	c2.866,3.165,7.097,6.064,12.694,8.695c0.767,0.4,1.25,0.518,1.45,0.351c0.2-0.167,0.183-0.7-0.05-1.6
	c-1.933-6.897-2.065-14.11-0.4-21.64c0.641-2.963,1.778-6.601,3.393-10.886c2.743,1.041,5.364,1.894,7.852,2.539
	c4.198,1.065,7.264,1.315,9.196,0.749c1.766-0.533,3.282-1.466,4.548-2.799c1.085-1.145,1.868-2.477,2.38-3.977
	c0.073,0.009,0.146,0.021,0.218,0.029c4.265,0.433,7.18,0.216,8.746-0.65s2.799-2.382,3.698-4.548
	c0.23-0.561,0.409-1.117,0.547-1.672c3.661-1.78,6.052-3.621,7.149-5.524c1.366-2.333,1.816-6.015,1.35-11.045
	c-0.673-7.004-5.625-13.697-14.831-20.083c-1.032-6.237-1.969-13.895-2.812-22.999c-1.199-12.561-1.333-20.324-0.399-23.289
	c0.533-1.633,2.266-2.766,5.198-3.399l4.918-0.302c-1.606,4.676-2.316,9.623-2.12,14.846c0.3,7.263,2.316,13.994,6.047,20.191
	c4.032,6.697,9.663,12.027,16.893,15.993c6.064,3.298,12.911,5.313,20.541,6.047c7.33,0.7,14.56,0.184,21.69-1.55
	c7.197-1.766,13.411-4.58,18.642-8.445c2.026-1.514,3.814-3.132,5.375-4.851c1.639,2.191,2.964,4.972,3.971,8.349
	c0.286,0.978,0.529,1.964,0.738,2.957c-3.755,8.095-10.427,14.159-20.029,18.184c-11.961,4.965-21.124,10.112-27.488,15.443
	c-4.365,3.698-7.563,7.996-9.596,12.895c-2.332,5.697-2.648,11.445-0.949,17.242c2.599,8.896,8.846,14.561,18.742,16.992
	c7.483,1.834,15.69,1.639,24.602-0.533c0.931,1.319,1.924,2.935,2.986,4.881c0.996,1.829,1.725,3.385,2.222,4.698l-3.621,2.749
	l-5.498,3.199c-2.433,1.1-5.781,1.998-10.046,2.698c-3.032,0.5-6.047,1.282-9.046,2.349c-2.28,0.813-3.858,1.531-4.758,2.158
	c-1.534-0.501-3.129-0.774-4.788-0.809c-3.565-0.066-6.447,0.75-8.646,2.449c-2.299,1.766-3.615,4.331-3.948,7.696
	c-0.3,2.966,0.566,5.581,2.599,7.847c2.099,2.365,4.915,3.715,8.446,4.049c2.751,0.252,5.67-0.179,8.752-1.276
	c1.97,1.56,4.215,2.39,6.741,2.476c3.619,0.146,6.546-0.893,8.789-3.109c0.252,0.279,0.521,0.55,0.807,0.811
	c2.366,2.165,5.348,3.131,8.946,2.898c2.693-0.167,4.939-1.108,6.753-2.802c2.643,0.669,5.702,0.146,9.189-1.597
	c3.698-1.799,6.297-4.148,7.796-7.047c3.599-6.83,6.031-11.711,7.297-14.644c1.166-2.799,1.9-5.081,2.199-6.847
	c0.301-1.832,0.283-3.865-0.05-6.098c-0.366-2.266-1-5.248-1.899-8.945l-2.049-7.697l-0.75-1.749c-0.2-0.267-0.45-0.433-0.75-0.5
	c-0.433-0.066-1.083,0.5-1.949,1.699l-5.828,9.306c-1.679-1.888-2.832-4.039-3.46-6.451l2.441-1.205
	c3.132-1.766,6.414-4.064,9.846-6.896c3.332-2.766,6.731-5.131,10.196-7.098l2.995-1.479c0.534,0.156,1.068,0.306,1.603,0.431
	c3.488,0.823,6.413,0.899,8.793,0.252c0.036,0.064,0.066,0.133,0.104,0.197c4.197,7.33,10.111,12.711,17.742,16.143
	c5.297,2.399,10.662,3.633,16.093,3.699c0.491,0.009,0.975-0.001,1.459-0.011l2.688,4.309c2.433,4.698,3.699,9.096,3.799,13.194
	c0.033,2.032-2.166,4.598-6.598,7.696l-6.022,3.641c-1.575-0.416-3.215-0.537-4.923-0.342c-2.798,0.333-5.131,1.382-6.996,3.148
	c-2.033,1.933-3.082,4.349-3.148,7.247c-0.066,3.165,0.883,5.747,2.849,7.746c2.065,2.133,4.997,3.266,8.796,3.398
	c1.832,0.066,3.582-0.199,5.248-0.799l1.272-0.576c0.551,0.789,1.199,1.52,1.976,2.175c2.299,1.933,4.981,2.865,8.047,2.799
	c2.133-0.066,4.031-0.616,5.697-1.649c0.8-0.521,1.485-1.121,2.082-1.785c0.058,0.061,0.107,0.126,0.167,0.186
	c2.032,2.066,4.848,3.115,8.446,3.148c3.665,0.067,6.598-1.049,8.796-3.348c1.999-2.1,2.999-4.715,2.999-7.847
	c0-0.6-0.045-1.173-0.112-1.735c1.6-4.335,2.411-8.407,2.411-12.209c0-3.932-0.699-9.262-2.1-15.992
	c-1.499-7.164-3.148-12.512-4.947-16.043c-0.633-1.3-1.35-2.116-2.148-2.449l-0.201-0.1l-1.299-0.051c-0.8,0.268-1.416,0.934-1.85,2
	l-2.794,5.626c-0.678-1.559-1.346-3.225-2.003-5.026l-1.062-3.264c3.123-2.815,5.664-6.551,7.608-11.23
	c2.898-6.863,4.015-14.427,3.348-22.689c-0.666-8.83-2.965-16.477-6.896-22.939c-3.632-5.998-8.613-10.862-14.943-14.594
	c-4.145-2.428-8.22-4.108-12.229-5.067c-2.308-1.642-4.846-3.723-7.616-6.24c-1.862-8.253-4.321-17.073-7.394-26.476
	c-2.722-8.412-5.202-15.075-7.447-20.033l7.947-4.157c6.896-2.898,12.811-4.314,17.742-4.248c4.932,0.033,9.129,1.549,12.595,4.548
	c3.565,3.132,8.563,12.695,14.993,28.688l9.149,23.563l-1.453,5.274c-1.232,6.73-0.749,11.611,1.45,14.644
	c2.266,3.132,5.764,5.28,10.494,6.446c3.145,0.749,5.609,0.981,7.408,0.708c0.937,0.81,2.178,1.492,3.737,2.042l8.097-0.25
	c1.264-0.532,2.469-1.551,3.615-3.038c2.432,0.563,4.697,0.737,6.78,0.489c2.632-0.301,4.614-1.233,5.947-2.799l4.048-5.848
	l1.535-2.852c2.345,2.573,4.484,5.402,6.412,8.499c3.965,6.331,6.33,12.645,7.097,18.941c0.133,0.866,0.366,1.3,0.699,1.3
	c0.267,0,0.75-0.35,1.449-1.05c3.865-4.032,6.548-8.446,8.047-13.244C337.733,215.244,338.101,211.08,337.601,206.781z"/>
</svg>
