<?xml version="1.0" encoding="utf-8"?>
<!-- Generator: Adobe Illustrator 16.0.0, SVG Export Plug-In . SVG Version: 6.00 Build 0)  -->
<!DOCTYPE svg PUBLIC "-//W3C//DTD SVG 1.1//EN" "http://www.w3.org/Graphics/SVG/1.1/DTD/svg11.dtd">
<svg version="1.1" id="图层_1" xmlns="http://www.w3.org/2000/svg" xmlns:xlink="http://www.w3.org/1999/xlink" x="0px" y="0px"
	 width="449px" height="331px" viewBox="0 0 449 331" enable-background="new 0 0 449 331" xml:space="preserve">
<path d="M447.601,182.488c-5.263-2.664-13.258-5.629-23.983-8.894l-7.156-2.013c5.021-5.78,10.055-12.962,15.101-21.572
	c6.296-10.693,10.31-19.803,12.042-27.332c0.166-0.7,0.083-1.066-0.25-1.1c-0.233-0.066-0.533,0.05-0.899,0.35
	c-1.698,1.333-9.577,5.43-23.634,12.292c-12.858,6.191-20.567,9.928-23.161,11.225c0.158-4.053-0.222-8.682-1.173-13.923
	c-1.599-8.661-3.814-14.607-6.646-17.838c-0.3-0.333-0.616-0.5-0.949-0.5c-0.3,0.033-0.517,0.233-0.649,0.6
	c-5.33,14.557-11.876,25.882-19.638,33.977c-7.728,8.095-16.472,12.742-26.232,13.941c-5.996,0.733-12.342-0.217-19.037-2.848
	c-7.075-2.811-16.765-8.316-29.059-16.509c0.175-0.622,0.351-1.259,0.528-1.929c0.371-1.411,0.701-2.703,1.007-3.925
	c12.451-2.873,22.762-7.64,30.921-14.313c8.395-6.862,13.741-15.14,16.04-24.833c1.563-6.537,1.722-13.163,0.504-19.876
	c5.814-3.821,12.624-10.717,20.432-20.697c0.267-0.366,0.333-0.666,0.2-0.899c-0.1-0.2-0.316-0.316-0.649-0.35
	c-13.387-1.753-23.425-2.75-30.117-2.991c2.216-3.44,4.345-7.551,6.383-12.349l2.599-6.695c0.3-0.6,0.383-0.983,0.249-1.149
	l-1.299-0.1c-12.483,0.702-21.53,1.432-27.162,2.189c-15.374-11.559-35.39-19.759-60.079-24.575
	c-22.473-4.348-42.773-4.035-60.921,0.902c-1.911-1.172-6.319-2.955-13.23-5.349c-7.995-2.765-13.508-4.414-16.539-4.947
	c-0.6-0.1-0.966-0.1-1.099,0c-0.133,0.1-0.2,0.417-0.2,0.95c0.1,3.064,0.6,6.929,1.499,11.592c0.699,3.531,1.399,6.545,2.098,9.044
	l-14.54-1.749l-18.288-1.449c-0.667-0.034-1.049,0.05-1.149,0.25c-0.133,0.167-0.083,0.7,0.15,1.599
	c0.766,3.165,3.681,8.877,8.744,17.139c2.164,3.502,4.263,6.771,6.306,9.835c-0.452,1.281-0.868,2.577-1.209,3.905
	c-3.198,12.425-1.466,24.5,5.196,36.226c5.365,9.439,13.439,17.719,24.212,24.843c-2.248-0.45-4.585-0.758-7.024-0.909
	c-1.865-0.1-4.646-0.15-8.344-0.15l-11.492,0.15l-13.441-1.099c-12.125-1.999-21.003-7.528-26.632-16.589
	c-7.895-12.825-10.576-33.561-8.045-62.208c0.067-0.7,0-1.083-0.2-1.149c-0.2-0.066-0.533,0.1-1,0.5
	c-3.531,2.965-7.095,6.263-10.693,9.894c-3.274,3.306-6.126,6.44-8.581,9.413c-2.42-6.308-8.35-13.226-17.801-20.755
	C48.151,20.646,36.143,14.9,23.584,12.502c-0.666-0.1-1.033,0-1.099,0.3c-0.067,0.267,0.066,0.583,0.4,0.95
	c7.229,7.628,13.108,16.006,17.638,25.133c2.522,5.078,4.542,10.266,6.085,15.557c-4.351-1.988-10.387-3.312-18.127-3.965
	c-9.96-0.866-19.188-0.416-27.682,1.35c-0.666,0.166-0.916,0.433-0.75,0.799c0.1,0.3,0.316,0.516,0.649,0.649
	c13.258,4.963,23.185,10.693,29.78,17.188c5.196,5.13,10.976,13.874,17.338,26.232l0.899,1.749
	c6.029,11.625,12.242,20.486,18.638,26.582c10.227,9.694,23.051,15.506,38.474,17.438c11.625,1.433,24.334,0.966,38.125-1.399
	c7.595-1.299,18.371-3.881,32.329-7.745l6.901-1.847c-0.173,3.172,0.057,4.875,0.693,5.095c0.925,0.359,2.644-1.782,5.153-6.411
	c3.197-0.699,6.074-1.214,8.62-1.536c-4.59,3.331-8.083,7.812-10.475,13.443c-2.698,6.462-3.314,12.975-1.849,19.537
	c1.583,7.008,5.235,13.085,10.919,18.245c-12.284,7.285-19.762,16.972-22.412,29.073c-1.988,9.12-1.293,19.911,2.076,32.368
	c-0.236,7.947-1.759,14.896-4.574,20.846c-3.031,6.363-6.579,9.811-10.643,10.344c-3.231,0.4-5.913-1.283-8.044-5.047
	c-1.333-2.299-2.265-3.397-2.798-3.297c-0.566,0.133-0.5,1.516,0.2,4.146c0.732,2.765,1.965,5.113,3.697,7.045
	c1.699,1.865,3.764,3.148,6.196,3.848c2.765,0.8,5.563,0.816,8.395,0.051c2.554-0.686,4.754-1.932,6.609-3.724
	c0.678,2.61,1.795,5.454,3.337,8.526c-3.801,7.507-9.434,14.009-16.941,19.48c-0.433,0.3-0.7,0.616-0.8,0.949
	c-0.2,0.467,0.267,0.583,1.399,0.35c7.69-1.59,14.463-5.668,20.322-12.227c1.044,3.087,1.171,5.948,0.364,8.579
	c-1.099,3.665-4.047,7.445-8.844,11.343l-0.899,0.799l1.149,0.15c3.536-0.663,6.481-1.811,8.85-3.432
	c-0.823,6.559,0.369,12.884,3.591,18.971c0.566,1.066,1.049,1.566,1.449,1.5c0.366-0.067,0.516-0.417,0.45-1.05
	c-0.899-7.861,1.066-16.622,5.896-26.282c2.32-4.667,6.476-11.388,12.464-20.16c-0.631,4.278-0.399,8.988,0.712,14.139
	c-2.333,2.37-4.939,4.432-7.83,6.171c-3.665,2.198-5.313,3.564-4.947,4.098c0.333,0.499,2.365,0.134,6.096-1.1
	c2.974-0.974,5.666-2.128,8.094-3.452l0.001,0.005c1.232,4.497,1.865,7.861,1.898,10.093c0.067,2.799,0.267,4.248,0.6,4.348
	c0.333,0.1,1.166-1.133,2.499-3.697c2.949-5.549,4.263-11.449,3.982-17.691c2.212-2.373,4.301-5.196,6.261-8.492
	c1.434-2.401,2.654-4.92,3.692-7.539c-0.385,1.675-0.634,3.174-0.743,4.492c-0.7,8.127,2.248,14.973,8.844,20.535
	c0.933,0.767,1.332,0.816,1.199,0.15l-0.75-2.148c-2.099-6.396-1.849-13.491,0.75-21.285c1.531-4.631,5.08-12.043,10.643-22.236
	c4.497-8.193,7.528-14.107,9.094-17.738c2.932-6.629,4.598-12.591,4.996-17.887c1.014-13.104-5.622-24.875-19.869-35.318
	c0.061-0.021,0.123-0.037,0.184-0.059c7.262-2.598,13.008-7.012,17.238-13.241c3.131-4.597,5.014-9.71,5.646-15.34
	c0.504-4.507,0.095-8.767-1.195-12.789c10.147,12.247,20.772,22.674,31.874,31.276c14.024,10.859,28.348,18.438,42.972,22.735
	c16.788,4.964,34.311,6.029,52.564,3.198c18.421-2.865,37.209-9.66,56.362-20.387C448.4,183.338,448.4,182.889,447.601,182.488z"/>
</svg>
