<?xml version="1.0" encoding="utf-8"?>
<!-- Generator: Adobe Illustrator 16.0.0, SVG Export Plug-In . SVG Version: 6.00 Build 0)  -->
<!DOCTYPE svg PUBLIC "-//W3C//DTD SVG 1.1//EN" "http://www.w3.org/Graphics/SVG/1.1/DTD/svg11.dtd">
<svg version="1.1" id="图层_1" xmlns="http://www.w3.org/2000/svg" xmlns:xlink="http://www.w3.org/1999/xlink" x="0px" y="0px"
	 width="144px" height="162px" viewBox="0 0 144 162" enable-background="new 0 0 144 162" xml:space="preserve">
<path d="M140.85,134.725c-0.166-5.6-1.35-11.533-3.55-17.8c-1.563-4.686-3.596-9.097-6.064-13.255
	c2.815-8.356,3.588-16.242,2.265-23.645c-1.1-6.2-3.584-11.733-7.45-16.6c-2.233-2.833-4.05-4.116-5.45-3.85
	c-2,0.3-3.666,2.233-5,5.8c-1.237,3.395-1.894,7.445-1.983,12.137c-4.101-4.806-8.687-8.258-13.767-10.337
	c-2.967-1.233-5.184-1.283-6.649-0.15c-0.767,0.567-1.233,2.167-1.4,4.8c-0.063,1.037-0.05,2.097,0.002,3.167
	c-7.79-2.082-15.44-2.863-22.952-2.318c-2.102,0.15-4.123,0.407-6.074,0.755c3.446-7.127,6.11-15.421,7.974-24.905
	c2.233-11.2,2.783-21.533,1.65-31c-0.667-5.5-1.667-9.75-3-12.75c-1.367-3.033-2.933-4.55-4.7-4.55c-2.1,0-4.017,1.7-5.75,5.1
	c-1.833,3.6-2.833,8-3,13.2c-2-0.9-3.917-1.117-5.75-0.65c-1.575,0.361-2.967,1.218-4.182,2.559
	c-2.129-4.421-4.549-8.296-7.268-11.609c-4.9-5.967-8.9-8.167-12-6.6c-1.8,0.9-2.783,2.967-2.95,6.2
	c-0.167,3.2,0.467,7.784,1.9,13.75c-5.667-1.066-10.883,1.1-15.65,6.5c-5.333,6-8.55,14.6-9.65,25.8
	c-1.2,12.033,0.184,21.633,4.15,28.8c3.934,7.133,10.05,11.133,18.35,12c-1.767,0.866-3.3,2.066-4.6,3.6
	c-1.333,1.6-2.267,3.367-2.8,5.3c-1.167,4.333-0.983,8.467,0.55,12.4c1.567,3.966,4,6.399,7.3,7.3c4.3,1.2,8.417,0.084,12.35-3.35
	c3.75-3.289,6.639-8.158,8.688-14.566c0.3,2.761,0.746,5.517,1.361,8.266c1.867,8.323,5.042,15.688,9.493,22.118
	c-1.936,0.258-3.29,0.766-4.043,1.532c-1,1-1.567,2.517-1.7,4.55c-0.167,2.034,0.133,4.233,0.9,6.601
	c0.733,2.266,1.7,4.232,2.9,5.899c1.367,1.934,2.75,3.017,4.15,3.25c3.851,0.7,9.027-1.098,15.521-5.381
	c9.674,5.151,21.229,7.767,34.679,7.831c12.8,0.033,22.316-2.033,28.55-6.2c0.899-0.6,1.517-1.384,1.85-2.35
	C140.084,146.342,141.017,140.559,140.85,134.725z"/>
</svg>
