<?xml version="1.0" encoding="utf-8"?>
<!-- Generator: Adobe Illustrator 16.0.0, SVG Export Plug-In . SVG Version: 6.00 Build 0)  -->
<!DOCTYPE svg PUBLIC "-//W3C//DTD SVG 1.1//EN" "http://www.w3.org/Graphics/SVG/1.1/DTD/svg11.dtd">
<svg version="1.1" id="图层_1" xmlns="http://www.w3.org/2000/svg" xmlns:xlink="http://www.w3.org/1999/xlink" x="0px" y="0px"
	 width="279px" height="349px" viewBox="0 0 279 349" enable-background="new 0 0 279 349" xml:space="preserve">
<path d="M277.551,27.43c-2.165-2.998-6.912-4.463-14.24-4.397c-7.361,0.066-16.121,1.666-26.28,4.796
	c-14.023,4.364-28.413,11.025-43.169,19.986c-15.223,9.227-29.196,19.919-41.92,32.077c-12.191,11.658-23,24.466-32.427,38.422
	c-1.866,2.769-3.643,5.548-5.348,8.338c-0.259-5.88-2.126-11.295-5.644-16.232c-4.396-6.096-12.857-13.957-25.381-23.583
	c-8.461-6.529-14.423-15.089-17.887-25.682c-3.031-9.293-3.581-17.654-1.649-25.082c8.161-2.598,14.49-6.295,18.986-11.092
	c4.697-4.997,7.261-10.026,7.694-15.089c0.4-4.53-0.783-7.528-3.547-8.994c-1.765-0.999-4.28-1.182-7.544-0.549
	c-4.43,0.799-9.043,3.048-13.84,6.745C55.061,15.022,46.4,25.564,39.372,38.722C32.244,52.012,27.414,66.785,24.882,83.04
	c-2.598,16.722-2.365,32.677,0.699,47.866c2.971,14.727,8.323,27.288,16.043,37.695c-6.501,4.902-12.253,10.802-17.243,17.716
	c-11.691,16.188-17.854,35.475-18.486,57.858c-0.034,0.933-0.3,1.932-0.8,2.997l-1.749,2.898l-2.148,3.447
	C0.433,254.917,0.033,256.1,0,257.065c0,5.063,4.43,11.858,13.291,20.386c9.859,9.459,21.202,16.688,34.025,21.684
	c11.279,4.383,22.652,6.418,34.117,6.11c1.05,8.89,2.218,15.747,3.506,20.521c2.298,8.361,5.629,14.324,9.993,17.888
	c2.198,1.799,4.696,3.031,7.495,3.697c2.831,0.7,5.462,0.667,7.894-0.1c2.132-0.667,3.997-1.832,5.596-3.497
	c1.153-1.229,2.032-2.59,2.638-4.083c2.174,0.698,4.343,1.122,6.506,1.234c3.697,0.167,6.812-0.466,9.343-1.898
	c2.564-1.399,4.646-3.448,6.246-6.146c1.632-2.832,2.382-5.729,2.248-8.693c-0.167-3.465-1.415-6.763-3.747-9.894
	c-2.332-3.198-5.263-5.563-8.794-7.095c-4.63-1.999-9.36-3.432-14.19-4.297c-3.032-0.535-7.056-0.972-12.056-1.313
	c17.352-5.214,33.554-15.984,48.604-32.312c1.326,1.09,2.65,2.13,3.973,3.096c7.295,5.329,13.857,8.427,19.686,9.294
	c4.997,0.766,8.461-0.117,10.393-2.648c1.898-2.398,2.166-5.613,0.8-9.644s-3.947-7.645-7.744-10.843
	c-2.753-2.322-6.3-4.239-10.598-5.772c6.817-0.355,12.838-2.249,18.042-5.719c5.662-3.764,9.66-8.91,11.992-15.438
	c2.465-6.929,2.348-14.373-0.351-22.334c-0.081-0.238-0.173-0.471-0.258-0.706c9.973-3.081,20.251-9.17,30.836-18.28
	c12.292-10.626,20.136-21.685,23.533-33.177c1.731-5.929,1.898-11.042,0.499-15.339c-1.266-3.897-3.58-6.562-6.944-7.994
	c-2.69-1.149-5.68-1.199-8.96-0.179c0.092-3.278-0.3-6.549-1.183-9.814c-4.597-17.021-6.896-30.828-6.896-41.42
	c0-15.289,2.648-26.731,7.945-34.326c7.561,2.731,15.288,2.815,23.183,0.25c6.929-2.265,12.142-5.779,15.639-10.542
	c1.366-1.898,2.165-3.747,2.398-5.546C278.9,30.378,278.518,28.796,277.551,27.43z M190.264,191.962
	c-2.158-2.896-4.928-5.842-8.297-8.836c-0.408-2.664-0.629-4.844-0.646-6.503c-0.066-3.431,0.633-5.962,2.098-7.595
	c2.565-2.897,8.028-3.997,16.389-3.297c4.875,0.417,9.43,0.037,13.673-1.117l-8.376,14.957c-4.216,7.273-7.976,13.368-11.29,18.309
	C192.987,195.994,191.81,194.023,190.264,191.962z"/>
</svg>
