<?xml version="1.0" encoding="utf-8"?>
<!-- Generator: Adobe Illustrator 16.0.0, SVG Export Plug-In . SVG Version: 6.00 Build 0)  -->
<!DOCTYPE svg PUBLIC "-//W3C//DTD SVG 1.1//EN" "http://www.w3.org/Graphics/SVG/1.1/DTD/svg11.dtd">
<svg version="1.1" id="图层_1" xmlns="http://www.w3.org/2000/svg" xmlns:xlink="http://www.w3.org/1999/xlink" x="0px" y="0px"
	 width="319px" height="281px" viewBox="0 0 319 281" enable-background="new 0 0 319 281" xml:space="preserve">
<path d="M316.248,237.818c-1.501-3.57-4.604-6.689-9.309-9.359c-5.071-2.869-11.044-7.006-17.917-12.412
	c-8.041-6.372-14.464-12.378-19.269-18.017c-4.537-5.305-9.842-14.413-15.914-27.325l-7.808-18.067
	c-2.7-7.339-6.099-13.941-10.165-19.84c13.756-7.291,26.003-18.309,36.74-33.06c11.311-15.514,16.966-29.561,16.966-42.139
	c0-9.309-1.752-16.399-5.255-21.271c-3.37-4.704-8.191-7.057-14.464-7.057c-5.038,0-9.159,1.769-12.361,5.305
	c-3.103,3.403-4.788,7.741-5.056,13.012c-0.6,12.879-2.701,24.14-6.305,33.782c-4.896,13.043-12.918,25.127-24.047,36.259
	c-4.765-3.972-10.06-7.386-15.891-10.234c-6.056-2.971-12.492-5.226-19.304-6.775c6.595-10.927,10.399-24.461,11.396-40.62
	c0.567-8.975,0-17.366-1.701-25.173c-1.735-8.175-4.555-14.864-8.458-20.069c-5.238-6.974-10.627-11.461-16.165-13.463
	c-4.805-1.768-9.393-1.602-13.763,0.5c-4.471,2.135-7.023,6.239-7.657,12.312c-0.601,5.772,0.65,11.478,3.753,17.116
	c7.206,13.246,11.494,25.541,12.862,36.885c1.186,10.035,0.161,20.033-3.065,29.994c-8.98-0.058-18.481,0.863-28.515,2.787
	c-12.044,2.335-21.103,3.353-27.175,3.053c-5.839-0.3-15.014-2.202-27.526-5.705L57.455,90.68l-25.874-8.558
	c-7.14-2.335-12.879-3.07-17.216-2.202c-3.537,0.734-6.556,2.652-9.059,5.755c-4.104,5.138-5.839,14.297-5.205,27.476
	c0.634,13.313,3.47,25.057,8.508,35.233c5.939,11.978,14.463,23.722,25.574,35.233c11.16,11.58,24.124,22.021,38.858,31.344
	c0.565,3.805,1.407,7.521,2.53,11.146c4.671,15.214,14.097,28.209,28.277,38.986c5.805,4.404,13.329,7.356,22.571,8.857
	c8.975,1.436,18.717,1.369,29.227-0.199c1.061-0.156,2.117-0.33,3.169-0.515c13.895,2.934,28.299,4.697,43.225,5.269
	c18.15,0.635,35.867-0.551,53.15-3.553c15.848-2.736,29.51-6.74,40.988-12.012c11.277-5.172,17.983-10.426,20.118-15.765
	C317.533,244.041,317.516,240.921,316.248,237.818z"/>
</svg>
