<?xml version="1.0" encoding="utf-8"?>
<!-- Generator: Adobe Illustrator 16.0.0, SVG Export Plug-In . SVG Version: 6.00 Build 0)  -->
<!DOCTYPE svg PUBLIC "-//W3C//DTD SVG 1.1//EN" "http://www.w3.org/Graphics/SVG/1.1/DTD/svg11.dtd">
<svg version="1.1" id="图层_1" xmlns="http://www.w3.org/2000/svg" xmlns:xlink="http://www.w3.org/1999/xlink" x="0px" y="0px"
	 width="305px" height="355px" viewBox="0 0 305 355" enable-background="new 0 0 305 355" xml:space="preserve">
<path d="M301.734,282.609c-2.835-4.669-9.355-11.423-19.561-20.262c-4.594-3.995-8.771-7.274-12.542-9.857
	c4.065-9.322,7.07-19.554,8.989-30.715c1.668-9.872,2.185-18.061,1.551-24.564c-0.3-3.135-1.4-5.103-3.302-5.902
	c-1.868-0.768-3.868-0.268-6.003,1.5c-2.201,1.868-6.221,4.687-12.057,8.455c-6.167,3.956-11.376,6.997-15.652,9.149
	c-5.48-12.879-12.239-24.956-20.271-36.238c6.857-1.025,14.389-2.977,22.614-5.88c12.408-4.402,22.496-9.705,30.268-15.909
	c1.4-1.101,2.436-2.118,3.102-3.052c1.067-1.367,1.852-3.102,2.352-5.203c3.135-12.307,5.104-24.197,5.903-35.67
	c0.534-7.471,0.583-16.143,0.149-26.015c-0.333-7.671-0.116-16.393,0.65-26.165c0.834-10.506,2.068-18.728,3.703-24.664
	c0.533-1.935,0.267-3.202-0.801-3.802c-1.201-0.633-2.984,0.1-5.354,2.201c-2.878,2.587-5.453,5.431-7.741,8.517
	c0.617-9.395,0.899-17.365,0.838-23.875c-0.033-2.301-0.483-3.652-1.351-4.052c-0.801-0.4-2.051,0.033-3.752,1.301
	c-2.035,1.567-3.803,3.352-5.303,5.353c-0.724,0.964-1.847,2.673-3.362,5.11c-1.043-1.557-2.127-3.099-3.292-4.61
	c-5.736-7.504-11.507-12.74-17.311-15.708c-3.367-1.768-5.969-2.401-7.804-1.901c-1.868,0.534-3.636,2.451-5.304,5.753
	c-3.709,7.314-6.324,14.374-7.875,21.184c-2.014-1.401-4.671-2.445-7.983-3.124c-3.302-0.7-6.054-0.884-8.255-0.55
	c-1.334,0.2-2.184,0.684-2.551,1.451c-0.301,0.701-0.301,1.868,0,3.502c1.134,5.604,2.901,11.14,5.303,16.609
	c1.502,3.431,3.657,7.631,6.453,12.582c-5.34-0.085-10.676,0.749-16.008,2.526c-1.668,0.567-2.619,1.418-2.853,2.552
	c-0.2,1.067,0.233,2.185,1.301,3.352c3.603,4.002,9.005,8.388,16.21,13.158c4.123,2.727,8.007,5.062,11.659,7.018
	c4.838,6.067,9.688,13.109,14.556,21.148c2.927,4.811,5.147,11.391,6.663,19.729c-5.403,6.776-10.991,12.546-16.77,17.291
	c-7.1,5.78-14.241,9.84-21.424,12.195c-2.017-2.482-4.316-4.939-6.884-7.372c10.536-8.101,15.597-14.165,15.15-18.18
	c-0.334-3.001-4.753-6.587-13.258-10.756c-2.668-1.301-10.422-4.586-23.263-9.856c-2.636-1.101-4.62-2.018-5.954-2.751
	c-2-1.101-3.902-2.451-5.703-4.052c-13.807-12.307-24.013-20.645-30.617-25.014c-4.836-3.168-8.221-4.452-10.156-3.852
	c-2.318,0.763-3.951,4.058-4.902,9.87c-6.417-5.643-10.941-8.19-13.559-7.618c-2.512,0.576-4.577,4.46-6.197,11.644
	c-3.659-2.346-6.366-3.23-8.111-2.639c-2.068,0.701-4.736,6.32-8.004,16.859l-8.505,30.467l-2.201,7.104l-2.651,6.003
	c-4.736,9.405-8.155,16.593-10.256,21.562c-3.135,7.304-4.403,11.874-3.802,13.708c0.233,0.768,0.867,1.584,1.901,2.451
	c0.934,0.834,2.051,1.551,3.352,2.152c3.68,1.737,8.587,2.836,14.705,3.303c-0.275,4.549-0.365,8.764-0.247,12.605
	c0.002,0.089,0.007,0.189,0.009,0.279c-8.103,3.463-16.426,7.884-24.973,13.278c-9.438,5.903-16.676,11.474-21.712,16.71
	c-3.969,4.102-7.788,11.189-11.457,21.262c-2.468,6.67-4.703,14.208-6.704,22.613c-0.434,1.834-1.367,4.452-2.802,7.854
	c-1.334,3.135-2.568,5.736-3.702,7.805c-2.501,4.603-4.353,8.338-5.553,11.207c-1.834,4.369-2.968,8.371-3.402,12.006
	c-0.233,1.734,0.2,3.002,1.301,3.803c1.067,0.834,2.501,0.967,4.302,0.4c3.916-1.232,7.759-2.719,11.534-4.442
	c-0.105,3.173-0.597,7.753-1.479,13.747l-1.951,13.808c-0.233,2.335,0.033,3.819,0.8,4.452c0.701,0.602,1.935,0.518,3.702-0.25
	c3.402-1.533,6.304-3.051,8.705-4.553c1.653-1.015,3.547-2.338,5.654-3.933c0.396,0.511,0.779,1.025,1.2,1.532
	c6.17,7.438,13.141,12.14,20.912,14.107l4.202,0.551c1.468-0.134,2.668-0.817,3.602-2.052c4.877-6.419,8.281-13.965,10.249-22.609
	c1.298,1.008,2.585,1.841,3.859,2.448c3.902,1.867,5.854,1.15,5.854-2.151c-0.072-4.795-0.647-9.823-1.708-15.078l7.211-0.831
	c1.634-0.434,3.219-1.1,4.753-2c1.634-0.968,2.468-2.068,2.501-3.303c0.033-1.201-0.734-2.468-2.301-3.802
	c-6.537-5.704-12.04-11.808-16.509-18.311c-7.104-10.372-10.99-20.896-11.657-31.567c1.935-2.969,4.453-6.387,7.554-10.256
	c3.518-4.374,6.765-7.981,9.75-10.842c1.139,16.851,3.556,31.111,7.26,42.76c3.517,11.025,8.273,20.386,14.25,28.105
	c-2.579,4.775-5.723,9.929-9.448,15.469c-4.236,6.27-7.838,10.939-10.806,14.008c-2.068,2.135-2.769,4.236-2.101,6.304
	c0.733,2.201,2.834,3.535,6.303,4.002c9.706,1.335,21.496,0.434,35.37-2.701c13.203-2.99,23.803-7.041,31.802-12.153
	c9.106,0.296,18.598-0.698,28.481-3.006c11.207-2.635,21.68-6.653,31.418-12.057c9.44-5.227,17.113-11.199,23.063-17.901
	c3.035,0.699,10.935,0.78,23.714,0.241c15.342-0.666,26.598-1.65,33.769-2.951c4.536-0.834,7.271-2.201,8.204-4.102
	C304.252,288.296,303.702,285.812,301.734,282.609z"/>
</svg>
