<?xml version="1.0" encoding="utf-8"?>
<!-- Generator: Adobe Illustrator 16.0.0, SVG Export Plug-In . SVG Version: 6.00 Build 0)  -->
<!DOCTYPE svg PUBLIC "-//W3C//DTD SVG 1.1//EN" "http://www.w3.org/Graphics/SVG/1.1/DTD/svg11.dtd">
<svg version="1.1" id="图层_1" xmlns="http://www.w3.org/2000/svg" xmlns:xlink="http://www.w3.org/1999/xlink" x="0px" y="0px"
	 width="176px" height="140px" viewBox="0 0 176 140" enable-background="new 0 0 176 140" xml:space="preserve">
<path d="M172.783,67.278c-0.299-0.366-1.03-0.981-2.194-1.846c-2.128-1.529-3.606-2.926-4.438-4.189
	c-1.396-2.128-3.092-5.553-5.088-10.274l-1.944-4.239c-0.632-1.13-1.33-1.845-2.095-2.145c-0.864-0.366-1.944,0.116-3.241,1.446
	l-3.691,4.389l-3.19,3.591c-0.139,0.139-0.252,0.297-0.368,0.451c-0.196-2.049-0.651-3.981-1.362-5.797
	c2.441-0.913,4.438-2.7,5.971-5.377c1.861-3.159,2.908-7.199,3.142-12.12c0.233-4.489-0.232-8.745-1.396-12.768
	c-1.164-4.09-2.728-6.783-4.688-8.08c-3.691-2.428-9.826-3.242-18.404-2.444c-8.015,0.765-13.334,2.228-15.96,4.389
	c-1.861,1.563-2.909,4.389-3.143,8.479c-0.029,0.553-0.041,1.102-0.039,1.647c-4.047-0.842-8.445-1.205-13.229-1.049
	c-4.341,0.149-8.246,0.719-11.764,1.666c0.671-0.913,1.297-1.858,1.838-2.862c1.93-3.524,2.411-6.684,1.447-9.477
	C87.482,6.48,82.66,3.354,74.481,1.293c-7.814-1.961-13.782-1.928-17.905,0.1c-4.323,2.161-7.465,7.498-9.427,16.01
	c-0.831,3.524-1.18,6.75-1.047,9.676c0.133,3.092,0.765,5.187,1.896,6.284c2.228,2.195,6.683,2.876,13.367,2.045
	c1.158-0.141,2.292-0.318,3.4-0.531c-1.118,1.058-2.174,2.13-3.156,3.222c-0.558-1.36-1.566-2.08-3.038-2.143
	c-1.43-0.033-2.876,0.881-4.339,2.743c-0.577,0.741-1.111,1.596-1.62,2.519l-2.77-3.367c-0.299-0.299-0.798-0.515-1.496-0.648
	l-1.746-0.1c-0.599,0.1-1.181,0.366-1.746,0.798c-0.532,0.399-0.915,0.832-1.147,1.297l-3.441,5.636l-2.397,3.486l-1.343,0.055
	c-8.014,0.931-14.547,2.893-19.601,5.885c-5.387,3.159-9.726,7.631-13.018,13.417c-3.491,6.052-4.389,11.188-2.693,15.411
	c0.552,1.369,1.295,2.574,2.196,3.643c-0.05,4.793,0.744,9.101,2.393,12.916c1.131,2.562,2.361,4.439,3.691,5.638
	c1.064,0.931,1.729,1.246,1.995,0.946c0.233-0.231,0.615-1.612,1.147-4.14c0.698-3.292,1.48-6.118,2.344-8.479l0.635-1.463
	c0.254,0.008,0.512,0.022,0.761,0.019c1.829-0.033,3.208-0.399,4.14-1.099c1.031-0.766,2.776-2.493,5.237-5.188
	c2.178-2.313,4.001-4.244,5.486-5.811c0.2,0.481,0.499,1.006,0.898,1.57c0.897,1.33,1.995,2.327,3.292,2.993l1.546,0.599
	c0.199-0.033,0.25-0.299,0.149-0.799l-0.748-4.938c-0.132-2.344,0.296-4.292,1.279-5.852c2.737-2.377,5.479-4.298,8.227-5.786
	l0.17,2.31c0.432,2.361,1.363,4.255,2.793,5.687c0.632,0.631,1.047,0.914,1.247,0.848c0.199-0.1,0.266-0.582,0.199-1.446
	c-0.033-0.897,0.1-2.146,0.399-3.739c0.237-1.282,0.501-2.271,0.789-2.993c0.469,0.323,0.946,0.622,1.438,0.876
	c-0.418,2.814,0.177,5.746,1.813,8.798c1.244,2.396,2.698,4.232,4.357,5.523c-0.085,0.539-0.149,1.09-0.167,1.658
	c-0.031,1.811,0.161,2.819,0.569,3.047c-0.096,0.551-0.137,1.146-0.12,1.791c0.033,1.098,0.216,2.178,0.548,3.242
	c0.399,1.196,0.782,1.762,1.147,1.695c0.06-0.014,0.139-0.068,0.221-0.131c0.341,1.404,0.763,2.524,1.275,3.322
	c0.599,0.897,1.081,1.348,1.446,1.348c0.399,0,0.798-0.549,1.197-1.646c1.177-3.408,2.852-5.895,5.011-7.482
	c0.576,0.472,1.186,0.928,1.872,1.349c1.795,1.099,3.707,1.847,5.735,2.244l1.168-0.034c0.691,2.059,1.119,4.791,1.275,8.214
	c0.1,1.929,0.898,2.478,2.394,1.646c0.942-0.5,1.787-1.248,2.547-2.219c0.533,0.229,1.312-0.074,2.341-0.924
	c2.056-1.644,3.315-3.64,3.79-5.984c0.491,0.133,0.955-0.143,1.393-0.795c4.638,0.104,9.246-0.689,13.819-2.397
	c3.429-1.291,6.109-2.864,8.077-4.707c1.749-0.671,3.48-1.483,5.189-2.476c1.799-1.016,3.314-2.043,4.582-3.084
	c0.563,0.916,1.256,1.892,2.102,2.936l0.947,1.146c3.093,3.857,6.019,7.848,8.777,11.971c3.924,5.854,6.053,9.892,6.385,12.119
	c0.3,2.062,1.197,3.957,2.693,5.687c1.027,1.14,2.264,2.142,3.686,3.025c-0.018,0.319-0.033,0.676-0.045,1.114l-0.1,4.737
	l-0.499,6.982c-0.333,2.825-0.682,4.854-1.048,6.085c-0.166,0.664-0.133,1.014,0.1,1.047c0.399,0.066,1.563-0.383,3.492-1.348
	c2.295-1.096,4.605-3.041,6.932-5.834c2.263-2.66,4.107-5.586,5.537-8.778c0.48-1.078,0.858-2.144,1.156-3.199
	c2.133-1.353,3.912-3.651,5.327-6.925c1.894-4.288,2.403-9.155,1.569-14.585c0.099-0.511,0.191-1.095,0.275-1.774l0.897-6.533
	c0.565-3.227,0.615-5.504,0.149-6.834c-0.123-0.35-0.321-0.741-0.59-1.17l1.438-11.698
	C173.682,68.774,173.416,68.009,172.783,67.278z M47.506,47.93l0.09-0.153l0.449-0.499c0.181,0.061,0.424,0.272,0.716,0.601
	L47.506,47.93z M151.336,68.825c-0.645-0.375-1.27-0.722-1.888-1.056l0.491-0.591l1.197-1.297c0.334,0.898,0.831,1.929,1.496,3.093
	l0.672,1.124C152.648,69.642,151.992,69.209,151.336,68.825z M164.854,73.663c-1.23-1.197-2.078-2.244-2.545-3.144
	c-0.981-1.833-1.836-3.785-2.58-5.838c0.554,0.721,1.166,1.465,1.883,2.248l4.289,4.04l1.246,1.047
	c0.262,0.491,0.545,2.014,0.854,4.561L164.854,73.663z"/>
</svg>
