<?xml version="1.0" encoding="utf-8"?>
<!-- Generator: Adobe Illustrator 16.0.0, SVG Export Plug-In . SVG Version: 6.00 Build 0)  -->
<!DOCTYPE svg PUBLIC "-//W3C//DTD SVG 1.1//EN" "http://www.w3.org/Graphics/SVG/1.1/DTD/svg11.dtd">
<svg version="1.1" id="图层_1" xmlns="http://www.w3.org/2000/svg" xmlns:xlink="http://www.w3.org/1999/xlink" x="0px" y="0px"
	 width="608px" height="446px" viewBox="0 0 608 446" enable-background="new 0 0 608 446" xml:space="preserve">
<path d="M591.941,72.934c-9.444-5.349-17.724-8.709-24.867-10.131c-7.912-7.254-18.204-13.619-30.883-19.093
	c-12.821-5.528-26.659-9.558-41.513-12.089c-14.753-2.531-28.491-3.23-41.213-2.098c-11.721,1.047-21.295,3.556-28.724,7.523
	c0.316-0.72,0.619-1.432,0.898-2.128c2.065-5.129,2.548-8.259,1.449-9.392c-0.633-0.666-2.531-0.883-5.695-0.649
	c-2.6,0.209-5,0.616-7.225,1.201c0.594-2.951,1.095-6.036,1.479-9.293c0.733-6.062,0.649-9.442-0.249-10.141
	c-0.933-0.699-3.431,0.283-7.494,2.947c-4.096,2.698-7.16,5.362-9.191,7.993c-0.832-2.332-2.314-4.962-4.446-7.893
	c-2.265-3.164-4.013-4.762-5.245-4.795c-1.565-0.067-3.297,3.313-5.195,10.141c-1.502,5.519-2.376,10.008-2.636,13.495
	c-5.062,0.84-9.314,3.146-12.762,6.913c-6.56-6.941-14.393-12.469-23.518-16.561c-9.625-4.296-20.281-6.794-31.971-7.493
	c-7.562-0.469-15.642,0.443-24.229,2.701c-0.388-0.635-0.783-1.28-1.199-1.952C282.353,3.846,279.039-0.2,277.574,0
	c-2.094,0.29-4.016,5.423-5.767,15.37c-3.773-3.002-7.925-5.945-12.467-8.825c-7.293-4.629-11.806-6.444-13.538-5.445
	c-1.199,0.732-0.999,4.663,0.599,11.79c1.417,6.301,3.041,11.319,4.867,15.083l-9.712-0.396c-6.561,0.5-10.308,1.499-11.24,2.998
	c-0.633,0.999-0.05,3.031,1.749,6.095c1.441,2.515,3.452,5.248,6.021,8.192c-4.582,4.896-9.388,10.761-14.419,17.607
	c-7.163-1.951-14.966-3.064-23.423-3.32c-9.059-0.266-14.371,0.649-15.936,2.748c-1.865,2.498-1.282,8.842,1.749,19.033
	c2.901,9.787,6.404,17.458,10.495,23.065c-1.833,2.805-3.698,5.593-5.587,8.37c-7.534-2.375-15.808-3.952-24.839-4.709
	c-9.558-0.799-15.12-0.25-16.685,1.648c-1.519,1.891-0.856,7.276,1.98,16.147l-9.173,0.288l-2.897,0.2
	c-0.233,0.1-0.466,0.649-0.699,1.648c-0.4,1.565-0.649,2.881-0.75,3.947c-5.095,0.666-11.939,2.298-20.532,4.896
	c-7.293,2.165-12.772,4.03-16.435,5.595c-0.866,0.366-1.416,0.716-1.648,1.049c-0.3,0.399-0.316,0.966-0.05,1.698l0.85,2.298
	l0.949,2.398c0.4,0.699,0.799,1.115,1.199,1.249l2.148-0.05l25.477-2.748l23.089-0.898c-3.163,1.58-6.478,3.309-9.951,5.194
	c-13.221,7.194-23.912,13.921-32.071,20.182c-2.165,1.665-3.38,3.081-3.646,4.246c-0.267,1.132,0.333,2.248,1.798,3.347
	c2.864,2.131,5.029,3.58,6.494,4.346c1.332,0.699,2.531,1.032,3.597,0.999c0.866-0.033,2.265-0.383,4.196-1.049l14.787-5.595
	c2.568-0.912,5.012-1.749,7.358-2.527c-5.522,7.973-10.312,15.397-14.352,22.259c-5.529,9.288-11.029,19.662-16.5,31.095
	c-6.158-0.132-13.904-0.819-23.264-2.071c-3.297-3.33-7.327-9.625-12.089-18.883c-2.697-5.229-5.195-10.524-7.493-15.886
	c-1.898-4.296-3.33-6.694-4.296-7.193c-1.366-0.7-2.648,1.249-3.847,5.845c-1.765,6.661-2.448,15.469-2.048,26.426
	c0.055,1.511,0.132,2.974,0.221,4.413c-6.279-1.373-13.035-3.15-20.303-5.362l-18.083-5.745c-5.961-1.932-9.658-1.715-11.09,0.649
	c-1.199,1.998-1.016,6.377,0.55,13.138c2.05,9.243,5.962,19.288,11.688,30.115c-2.601,0.729-5.247,1.577-7.942,2.556
	c-10.091,3.63-15.47,6.944-16.136,9.941c-0.066,0.267,0.083,0.616,0.45,1.049c0.433,0.466,1.016,0.899,1.749,1.299
	c2.331,1.232,6.161,2.564,11.49,3.997l15.536,3.746c3.911,0.867,7.802,1.825,11.675,2.861c2.017,2.627,4.094,5.173,6.217,7.655
	l-4.005,6.519c-3.23,5.761-4.546,9.342-3.946,10.74s5.645,2.331,15.136,2.797c4.394,0.217,8.803,0.29,13.225,0.248
	c3.825,3.219,7.767,6.279,11.853,9.144c15.313,10.734,31.554,18.255,48.716,22.583c3.063,2.73,6.292,5.265,9.691,7.602
	c-1.9,0.638-4.402,1.56-7.553,2.786c-2.797,1.099-4.263,2.048-4.396,2.847c-0.1,0.7,0.866,1.732,2.897,3.098l5.794,3.697
	c-3.23,1.564-6.577,3.463-10.041,5.694c-2.864,1.832-4.679,3.131-5.445,3.897c-0.333,0.332-0.5,0.615-0.5,0.849
	c-0.033,0.267,0.2,0.532,0.699,0.8c1.499,0.898,3.73,1.998,6.694,3.297l4.69,1.876c-2.864,2.664-5.498,5.467-7.887,8.415
	c-3.764,4.629-7.244,10.041-10.441,16.234c-2.631,5.063-3.13,8.493-1.499,10.291c1.532,1.665,4.779,1.698,9.741,0.1l24.488-7.769
	c-0.361,4.683-0.059,9.993,0.939,15.962c1.099,6.693,2.614,12.372,4.546,17.034c1.865,4.563,3.83,7.193,5.895,7.894
	c1.765,0.599,3.514-0.267,5.246-2.598c3.53-5.263,7.043-10.308,10.541-15.137c6.827-9.491,11.756-15.403,14.787-17.734
	c4.729,2.931,10.357,6.128,16.885,9.592c5.162,2.73,9.325,4.813,12.489,6.244c2.798,1.299,4.646,1.565,5.545,0.8
	c1.066-0.966,1.299-3.714,0.7-8.243c-0.533-4.163-1.849-10.424-3.947-18.783c-1.744-7.079-3.32-12.552-4.728-16.431l3.679,0.396
	l9.691,0.199c1.832,0,2.914-0.299,3.247-0.898c0.3-0.5,0.083-1.433-0.649-2.798c-0.857-1.661-2.175-3.761-3.938-6.283
	c1.97-0.354,4.692-0.955,8.184-1.81c1.432-0.333,2.298-0.783,2.598-1.349c0.333-0.566,0.167-1.382-0.5-2.448
	c-0.405-0.68-0.822-1.303-1.251-1.873c0.903-0.199,1.805-0.403,2.7-0.625l11.263-2.686c6.022,7.744,12.389,14.855,19.109,21.319
	c7.418,7.107,14.497,12.792,21.241,17.082c0.573,0.842,1.168,1.692,1.788,2.551c4.862,6.727,9.558,11.739,14.087,15.036
	c3.431,2.515,6.229,3.549,8.398,3.121c0.2,0.063,0.399,0.126,0.594,0.176c0.19,0.051,0.43-0.171,0.718-0.658
	c1.836-0.996,3.397-3.396,4.678-7.234c0.261-0.776,0.503-1.604,0.737-2.456c1.765,0.081,3.511,0.067,5.242-0.027
	c2.328,2.336,5.34,4.729,9.057,7.179c4.563,3.031,8.825,5.262,12.788,6.694c5.362,1.932,9.009,2.397,10.94,1.398
	c1.898-0.933,3.03-3.713,3.397-8.343c0.366-4.729,0.3-9.874-0.2-15.436c-0.366-4.136-0.959-8.188-1.748-12.166
	c2.463-4.236,4.172-8.172,5.127-11.806c3.475,0.367,6.7,0.602,9.659,0.692c5.362,0.133,8.659-0.898,9.892-3.098
	c1.132-1.998,0.549-5.012-1.749-9.041c-2.667-4.722-5.949-9.485-9.829-14.292l8.73-4.841l0.586-0.335
	c1.715,2.033,4.277,5.761,7.707,11.225l7.243,11.489c2.664,3.863,4.813,5.612,6.444,5.246c1.299-0.3,2.664-2.299,4.096-5.994
	c1.699-4.396,3.015-9.059,3.947-13.988c0.464-2.387,0.86-5.089,1.195-8.089l16.188,0.495l21.431,2.299
	c4.796,0.732,7.527,0.582,8.193-0.449c0.732-1.1-0.4-3.73-3.397-7.894c-2.498-3.33-5.378-6.827-8.643-10.491
	c-0.753-0.841-1.492-1.646-2.224-2.429c1.109-0.477,2.99-1.229,5.671-2.267c1.532-0.566,2.331-1.248,2.398-2.048
	c0.1-0.999-0.883-2.364-2.948-4.097c-4.362-3.63-11.489-7.627-21.381-11.989c-8.414-3.692-14.707-5.854-18.892-6.497
	c5.323-10.369,7.949-22.418,7.852-36.164c-0.13-16.157-3.774-31.882-10.914-47.178l0.324-0.18c1.432-0.899,2.364-1.432,2.797-1.599
	l12.988,9.742c0.966,0.699,1.915,0.949,2.848,0.749c3.497-0.699,5.362-1.499,5.595-2.397l-0.05-0.6
	c-1.465-3.963-6.61-12.239-15.436-24.828c-0.83-1.186-1.643-2.334-2.449-3.465c2.24,0.825,6.097,2.161,11.591,4.015
	c8.159,2.764,13.638,4.563,16.436,5.395c0.832,0.233,1.615,0.133,2.348-0.3l3.446-2.348c1.599-1.232,2.798-2.348,3.598-3.347
	c0.333-0.433,0.35-0.849,0.05-1.249c-2.024-2.828-10.253-8.454-24.646-16.862l0.068-0.073l18.483,3.896l1.448,0.1l1.1-0.799
	l1.698-1.449l1.499-1.648c0.433-0.633,0.565-1.132,0.399-1.499c-0.134-0.333-0.633-0.766-1.499-1.299
	c-3.93-2.398-13.088-5.828-27.476-10.291c-13.572-4.26-22.568-6.587-27.01-6.994c-0.243-0.741-0.516-1.467-0.816-2.182l1.301,0.034
	l6.244-1.249l5.845-1.749c1.565-0.533,2.448-1.099,2.647-1.699c0.267-0.633-0.017-1.865-0.85-3.697
	c-2.497-5.461-6.194-11.589-11.09-18.383c-1.102-1.524-2.263-3.059-3.453-4.6c2.021,1.465,4.801,3.529,8.349,6.199l12.189,9.142
	c0.666,0.5,1.132,0.75,1.398,0.75l1.849-0.649l4.146-2.148c0.732-0.4,1.165-0.783,1.299-1.149c0.133-0.433-0.066-1.016-0.6-1.748
	l-3.147-3.896l2.698-4.746c0.232-0.5,0.266-1.016,0.1-1.548c-0.167-0.566-0.6-1.349-1.299-2.348
	c-2.719-3.75-7.785-8.499-15.198-14.244c2.046,0.783,5.008,1.883,8.903,3.304l15.236,5.445l1.549,0.45l1.549-0.35
	c1.832-0.733,3.547-1.515,5.146-2.348c1.065-0.533,1.582-1,1.549-1.399c-0.067-0.366-0.699-0.949-1.898-1.749
	c-4.03-2.631-12.605-7.077-25.728-13.338c-3.419-1.638-6.514-3.103-9.306-4.406c2.914-0.797,9.388-2.872,19.447-6.235
	c11.323-3.796,17.617-5.745,18.883-5.845c0.999-0.066,2.914,0.866,5.745,2.797l9.491,6.694
	c18.983,12.855,34.336,21.414,46.059,25.677c18.901,6.876,37.244,7.533,55.029,2.004c5.953,2.359,12.448,4.063,19.504,5.09
	c8.126,1.166,12.589,1.065,13.388-0.3c0.899-1.532-0.183-5.895-3.247-13.088c-2.671-6.259-5.666-11.18-8.976-14.803
	c5.688-1.057,11.707-2.992,18.067-5.829c7.027-3.164,10.508-5.711,10.441-7.643C607.145,82.925,602.032,78.629,591.941,72.934z
	 M362.545,341.359c1.135-0.375,2.252-0.765,3.351-1.172l7.492,0.457l-1.679,10.248C368.734,347.394,365.68,344.217,362.545,341.359z
	"/>
</svg>
