<?xml version="1.0" encoding="utf-8"?>
<!-- Generator: Adobe Illustrator 16.0.0, SVG Export Plug-In . SVG Version: 6.00 Build 0)  -->
<!DOCTYPE svg PUBLIC "-//W3C//DTD SVG 1.1//EN" "http://www.w3.org/Graphics/SVG/1.1/DTD/svg11.dtd">
<svg version="1.1" id="图层_1" xmlns="http://www.w3.org/2000/svg" xmlns:xlink="http://www.w3.org/1999/xlink" x="0px" y="0px"
	 width="224px" height="314px" viewBox="0 0 224 314" enable-background="new 0 0 224 314" xml:space="preserve">
<path d="M223.55,149.022l-1.551-1.601c-1.901-1.367-8.187-4.185-18.858-8.454c-11.112-4.439-19.157-7.07-24.145-7.897l-0.938-1.385
	l6.625-5.175c3.635-2.968,6.019-5.119,7.153-6.453c1.367-1.567,2.018-2.651,1.951-3.251c-0.06-0.44-0.648-0.945-1.766-1.514
	c2.761-3.663,5.731-7.988,8.918-12.992c6.703-10.471,11.455-19.609,14.257-27.412c0.467-1.334,0.733-2.451,0.8-3.352l-0.25-3.102
	c-2.734-17.341-10.621-31.914-23.66-43.719c-14.039-12.706-31.965-20.143-53.773-22.31c-20.877-2.034-40.936,2.885-60.178,14.756
	C58.626,27.235,45.22,43.309,37.917,63.384c-0.434,1.234-0.6,2.251-0.5,3.051c0.133,0.867,0.6,1.718,1.4,2.551l21.71,20.809
	l21.082,19.719c-1.764,0.642-3.054,1.256-3.824,1.841c-1,0.767-1.534,1.484-1.601,2.151c-0.01,0.103,0.01,0.216,0.021,0.327
	c-8.518,0.683-17.593,2.385-27.233,5.125c-9.104,2.568-16.808,5.486-23.11,8.754c-1.801,0.934-2.801,1.851-3.001,2.751
	c-0.2,0.833,0.333,1.884,1.601,3.151c4.335,4.402,9.304,7.82,14.907,10.254c5.936,2.568,12.155,3.785,18.658,3.652
	c6.97-0.133,13.389-1.784,19.259-4.952c5.475-2.972,9.998-7.03,13.594-12.144c2.97,7.016,7.255,12.952,12.868,17.796
	c0.457,0.393,0.92,0.775,1.389,1.148c-4.324-0.375-9.036,0.235-14.145,1.854c-4.835,1.5-9.621,3.785-14.356,6.853
	c-0.7,0.467-1.101,0.9-1.201,1.301s0.083,1.018,0.55,1.852c1.596,2.771,4.194,5.646,7.75,8.623
	c-3.959,1.559-9.349,4.095-16.204,7.634c-1.672,0.855-3.357,1.734-5.052,2.63c-1.615-0.867-3.056-1.535-4.302-1.979l-2.251-0.4
	c-0.3,0.101-0.367,0.601-0.2,1.501c0.385,1.671,0.74,2.976,1.066,3.933c-3.607,1.971-7.264,4.027-10.971,6.172
	c-11.271,6.603-18.725,11.188-22.36,13.756c-8.904,6.303-14.99,11.071-18.258,14.307C1.834,220.805,0.1,223.939,0,226.807
	c-0.1,3.303,0.333,6.654,1.301,10.055c0.8,2.835,1.75,5.086,2.851,6.754c0.867,1.267,1.501,2.018,1.901,2.25
	c0.7,0.4,1.351-0.016,1.951-1.25l2.501-4.902c0.257,0.482,0.516,0.954,0.774,1.418c-1.266,1.863-2.302,3.565-3.076,5.085
	c-0.967,1.901-1.801,3.985-2.501,6.253c-0.4,1.268-0.5,2.051-0.3,2.352l1.151,0.149c14.173-1.334,24.711-3.201,31.614-5.603
	c5.917-2.092,13.902-6.278,23.942-12.548c-2.644,3.992-5.969,9.253-9.985,15.8c-5.103,8.27-7.904,12.555-8.404,12.855l-12.005,6.453
	c-5.885,3.123-10.043,5.624-12.492,7.508c-0.966-0.002-2.715,1.006-5.266,3.047c-3.068,2.467-5.569,5.285-7.503,8.453
	c-0.667,1.102-0.917,1.801-0.75,2.102c0.167,0.3,0.851,0.45,2.051,0.45c2.609-0.074,5.272-0.435,7.99-1.07
	c-2.682,2.979-4.805,6.036-6.339,9.174c-0.434,0.934-0.567,1.501-0.4,1.7c0.167,0.234,0.734,0.234,1.701,0
	c5.294-1.132,9.863-2.52,13.725-4.157c-1.876,2.647-3.406,5.284-4.571,7.909c-0.467,1-0.5,1.584-0.1,1.751
	c0.434,0.167,1.434-0.033,3.001-0.601c2.134-0.733,5.202-2.067,9.204-4.002c4.378-2.099,7.668-3.912,9.889-5.445
	c6.912-2.709,12.002-4.884,15.222-6.51c4.902-2.501,7.453-4.619,7.653-6.353c0.734-6.937,2.634-14.007,5.703-21.21
	c3.301-7.77,7.036-13.355,11.205-16.757c5.502-4.469,11.555-8.12,18.158-10.955c6.103-2.601,10.038-3.485,11.806-2.651
	c5.102,2.334,9.22,5.186,12.355,8.554c3.102,3.335,4.869,6.753,5.303,10.255c0.367,3.068-0.033,6.486-1.201,10.254
	c-0.633,2.068-1.801,4.92-3.501,8.555c-0.9,1.967-1.468,3.502-1.7,4.602c-0.268,1.268-0.134,2.201,0.399,2.801
	c2.101,2.368,4.952,5.152,8.554,8.354c4.8,4.325,9.244,7.738,13.333,10.248c0.01,0.018,0.014,0.04,0.023,0.057
	c1.935,1.601,5.436,3.885,10.505,6.853l9.254,5.353c1.268,0.767,2.084,0.968,2.451,0.601c0.3-0.367,0.316-1.234,0.05-2.602
	c-0.333-1.682-1.045-3.597-2.135-5.744l9.188,4.594l1.9,0.2c0.233-0.3,0.217-1.117-0.051-2.451
	c-0.386-1.868-1.586-4.311-3.575-7.312l1.976,0.658l1.488,0.093l0.563,0.258c0.003-0.067-0.015-0.151-0.016-0.223l0.365,0.022
	c0.301-0.467,0.1-1.601-0.6-3.401c-1.301-3.435-3.186-6.653-5.652-9.654c-1.015-1.249-1.997-2.299-2.955-3.193
	c-1.954-2.659-4.826-5.692-8.65-9.112c-2.835-2.534-5.753-4.902-8.754-7.104l0.3-7.553c0.101-4.77,0-8.588-0.3-11.455
	c-0.167-1.834-2.051-5.069-5.652-9.705c-4.803-6.169-7.604-9.92-8.404-11.254c1.534-5.137,2.468-12.139,2.801-21.01
	c0.326-8.065,0.092-14.885-0.693-20.478c0.445-0.078,0.89-0.158,1.326-0.244l22.277,22.723
	c12.34,12.605,18.793,19.642,19.359,21.109c1.066,2.567,1.851,5.985,2.352,10.255c0.533,4.301,0.616,8.07,0.25,11.305
	c-0.134,1.268-0.134,2.001,0,2.201c0.199,0.267,0.816,0.184,1.85-0.25l4.703-2.951c2.033-1.502,3.468-2.769,4.302-3.803
	c1.501,7.604,2.601,11.439,3.302,11.506c0.533,0.066,2.784-1.584,6.752-4.953c3.636-1.066,6.438-2.9,8.404-5.502
	c1.734-2.301,2.602-4.885,2.602-7.754c0-3.801-1.984-7.986-5.953-12.555c-3.035-3.48-10.877-10.205-23.489-20.147l0.028-0.062
	l-0.172-0.052c-2.453-1.934-5.067-3.975-7.881-6.151l-25.47-19.297c1.229-0.626,2.409-1.289,3.51-2.013l1.551-1.301
	c0.1-0.233-0.067-0.717-0.501-1.45c-2.134-3.701-4.618-6.887-7.453-9.555c-2.776-2.54-6.053-4.751-9.823-6.639
	c4.206-0.7,8.496-2.055,12.875-4.116c4.698-2.221,8.898-4.927,12.612-8.105c4.585,5.679,10.146,9.824,16.701,12.407
	c5.936,2.368,11.972,3.219,18.107,2.552c9.638-1.001,17.074-4.569,22.311-10.705C223.566,150.156,223.75,149.556,223.55,149.022z
	 M86.114,205.106c-0.712-1.94-1.757-4.054-3.177-6.362c-1.692-2.78-3.66-5.402-5.873-7.883c6.774-5.813,12.609-10.307,17.515-13.489
	c0.759,0.436,1.52,0.855,2.281,1.255c-0.785,3.94-2.7,9.353-5.769,16.266C89.362,198.802,87.705,202.193,86.114,205.106z
	 M75.164,209.912c-1.36-0.188-2.782-0.329-4.282-0.412c-4.971-0.278-10.042,0.081-15.213,1.062c1.25-1.211,2.541-2.456,3.908-3.763
	c2.282-2.18,4.483-4.246,6.621-6.223C69.196,204.668,72.186,207.787,75.164,209.912z"/>
</svg>
