<?xml version="1.0" encoding="utf-8"?>
<!-- Generator: Adobe Illustrator 16.0.0, SVG Export Plug-In . SVG Version: 6.00 Build 0)  -->
<!DOCTYPE svg PUBLIC "-//W3C//DTD SVG 1.1//EN" "http://www.w3.org/Graphics/SVG/1.1/DTD/svg11.dtd">
<svg version="1.1" id="图层_1" xmlns="http://www.w3.org/2000/svg" xmlns:xlink="http://www.w3.org/1999/xlink" x="0px" y="0px"
	 width="434px" height="390px" viewBox="0 0 434 390" enable-background="new 0 0 434 390" xml:space="preserve">
<path d="M431.654,240.852c-54.544-33.531-89.325-54.327-104.343-62.386c-1.798-0.968-3.27-1.473-4.431-1.534
	c0.484-1.679,0.952-3.375,1.384-5.109c6.16-6.293,10.405-11.105,12.736-14.435c5.828-8.392,7.709-15.601,5.645-21.628
	c-2.164-6.061-8.524-10.623-19.08-13.686c-6.283-1.812-11.242-2.748-14.903-2.827c-2.304-2.35-4.904-4.59-7.824-6.713
	c-9.981-7.209-19.502-10.823-28.563-10.843c-2.355-3.363-4.329-6.251-5.919-8.662c3.07-3.301,4.951-6.573,5.612-9.815
	c0.733-3.53-0.116-6.51-2.548-8.941c-2.031-2.031-5.294-3.68-9.789-4.945c-3.363-0.966-5.844-1.432-7.442-1.399l-1.099,0.1
	c-0.301,0.066-0.617,0.233-0.949,0.5l-4.445,3.496l-4.396-0.749c-1.531-0.067-3.529,0.916-5.993,2.947
	c-2.138,1.764-3.708,3.691-4.73,5.776c-3.497-1.163-7.079-2.193-10.754-3.079c-12.166-2.931-24.737-4.18-37.709-3.76l-4.098-17.768
	l-5.794-24.825c3.197-1.432,5.644-3.846,7.343-7.242c1.665-3.363,2.198-6.743,1.598-10.14c-0.833-4.562-3.097-8.075-6.793-10.539
	c-3.729-2.464-7.975-3.23-12.737-2.298c-4.296,0.833-7.759,3.03-10.39,6.593c-2.697,3.663-3.696,7.742-2.997,12.237
	c0.566,3.497,2.248,6.427,5.044,8.791c2.664,2.264,5.877,3.629,9.64,4.096c1.143,19.192,2.002,33.361,2.581,42.522
	c-18.752,2.614-36.447,8.613-53.079,18.016c-19.613,11.055-33.433,24.708-41.458,40.958c-2.099,0.214-4.169,0.62-6.217,1.178
	l-9.166-15.254c1.173-1.061,2.262-2.145,3.246-3.257c3.063-3.529,4.446-6.46,4.146-8.791c-0.333-2.564-2.864-5.378-7.592-8.441
	c-3.962-2.564-7.359-4.179-10.189-4.845c-1.965-0.133-4.212,0.417-6.743,1.648l-3.296,1.998l-4.246-0.05l-5.044,0.3
	c-3.363,1.432-6.044,4.313-8.042,8.641c-1.731,3.796-2.63,7.825-2.697,12.088c-0.066,3.43,0.35,6.36,1.249,8.791
	c0.932,2.63,2.331,4.362,4.195,5.194c3.458,1.604,8.187,1.305,14.187-0.896c1.85,3.899,4.574,9.415,8.164,16.536
	c-2.253,2.422-4.316,5.075-6.167,7.986c-3.297,5.128-5.711,10.522-7.243,16.183c-0.143,0.539-0.254,1.067-0.376,1.599
	c-7.379,3.528-13.887,8.147-19.503,13.886c-6.527,6.66-9.59,12.687-9.191,18.082c0.733,9.457,11.022,17.216,30.869,23.276
	c4.284,1.304,8.75,2.454,13.386,3.462c3.146,2.953,6.517,5.424,10.11,7.415c-0.471,0.279-0.943,0.563-1.419,0.86
	c-8.425,5.228-14.651,11.355-18.681,18.382c-5.594,9.756-8.625,28.42-9.091,55.992c-0.3,16.416,0.383,36.695,2.048,60.838
	c0.067,0.932,2.947,3.264,8.641,6.992c5.628,3.73,8.708,5.461,9.241,5.195c1.865-0.933,6.743-4.146,14.635-9.641l14.086-9.939
	l0.449-0.55l-0.05-1.049c-3.53-29.137-6.26-52.579-8.192-70.327c-0.466-4.297-0.616-7.443-0.449-9.441
	c0.233-3.063,1.149-4.777,2.747-5.145c1.232,6.094,4.595,25.125,10.09,57.092c0.1,0.566,0.299,0.966,0.599,1.199l16.783,12.736
	l0.699,0.35l0.649-0.3c16.783-10.889,26.457-17.448,29.021-19.68l0.399-0.55l-0.15-0.998l-8.491-32.967l-8.841-33.066
	c-2.551-8.485-6.226-15.396-11.015-20.748c12.871,8.012,26.955,14.08,42.283,18.151c30.005,8.019,59.327,6.845,87.964-3.509
	c6.435-1.435,12.503-3.317,18.177-5.682c23.344-9.757,41.158-21.528,53.445-35.314c4.332-4.836,8.176-10.181,11.543-16.021
	c4.106,4.055,17.253,13.755,39.455,29.108l37.512,25.474l0.35,0.15l16.982,2.847c0.999,0.134,1.615-0.017,1.848-0.449l3.497,1.398
	l10.839,1.998c0.732,0.167,1.265-0.149,1.598-0.949l8.441-19.979C432.786,241.951,432.521,241.318,431.654,240.852z"/>
</svg>
