<?xml version="1.0" encoding="utf-8"?>
<!-- Generator: Adobe Illustrator 16.0.0, SVG Export Plug-In . SVG Version: 6.00 Build 0)  -->
<!DOCTYPE svg PUBLIC "-//W3C//DTD SVG 1.1//EN" "http://www.w3.org/Graphics/SVG/1.1/DTD/svg11.dtd">
<svg version="1.1" id="图层_1" xmlns="http://www.w3.org/2000/svg" xmlns:xlink="http://www.w3.org/1999/xlink" x="0px" y="0px"
	 width="420px" height="414px" viewBox="0 0 420 414" enable-background="new 0 0 420 414" xml:space="preserve">
<path d="M410.849,26.779c-3.6-9.568-10.351-16.819-20.252-21.752c-5.167-2.601-10.951-4.167-17.353-4.701
	c-7.601-0.633-14.751,0.383-21.452,3.05c-6.4,2.567-12.085,6.501-17.052,11.801c-5.067,5.434-8.935,11.818-11.602,19.152
	c-3.526,9.73-5.155,18.752-4.935,27.084c-17.113,18.571-33.77,31.735-49.972,39.474c-10.365,4.961-22.968,8.73-37.791,11.315
	c-3.137-13.464-11.971-23.54-26.517-30.218c-11.22-5.146-22.579-7.327-34.075-6.558c3.462-4.78,5.52-10.078,6.171-15.895
	c0.9-8.068-1.317-14.269-6.651-18.602c-5.101-4.134-11.885-5.718-20.352-4.751c-9.635,1.134-18.219,5.567-25.753,13.302
	c-8.201,8.468-13.001,17.002-14.401,25.603c-1.167,7.068-0.05,12.368,3.35,15.902c2.398,2.561,5.066,3.913,8,4.079l-2.9,4.122
	c-7.034,10.435-11.435,19.552-13.202,27.353c-2.4,10.668-0.7,20.903,5.101,30.704c2.751,4.675,6.372,8.646,10.844,11.925
	c-4.687,5.476-8.975,10.856-12.889,16.146c-13.374,2.181-25.145,6.824-35.31,13.934c-6.401,4.467-11.018,9.417-13.852,14.852
	c-2.867,5.434-3.483,10.4-1.85,14.901c1.667,4.733,5.417,8.384,11.251,10.951c1.31,0.576,2.675,1.061,4.081,1.476
	c0.146,0.926,0.454,1.79,0.97,2.575c0.8,1.167,1.867,1.967,3.2,2.399c0.083,0.027,0.169,0.04,0.253,0.063
	c-3.407,10.83-5.42,21.652-6.041,32.467c-13.738-7.67-26.497-11.386-38.268-11.126c-7.634,0.2-14.269,1.983-19.902,5.351
	c-3.834,2.301-6.817,5.301-8.951,9.001C0.717,285.727-0.2,289.377,0,293.11c0.233,3.801,1.384,7.067,3.451,9.802
	c1.467,2,3.35,3.617,5.65,4.85c2.734,1.501,6.118,2.117,10.151,1.851c3.203-0.212,5.887-0.885,8.104-1.973
	c0.924,2.165,1.89,4.619,2.897,7.374c2.733,7.367,6.367,14.734,10.901,22.102c7.101,11.568,15.518,21.486,25.253,29.754
	c14.901,12.602,31.237,20.886,49.006,24.854c12.635,2.834,25.786,3.95,39.455,3.35c13.261-0.566,26.507-2.747,39.739-6.498
	c1.115,0.04,2.225,0.076,3.316,0.098c6.444,0.12,12.713-0.086,18.823-0.584c4.161,6.265,9.266,11.169,15.331,14.686
	c4.501,2.599,9.124,4.237,13.866,4.938c1.122,1.254,3.551,2.244,7.336,2.964l9.501,0.899l6.051-0.75c1.9-0.533,3.15-1.3,3.75-2.3
	c0.567-0.967,0.518-2.233-0.149-3.801c-0.601-1.434-1.483-2.7-2.65-3.8c-0.464-0.43-0.939-0.776-1.419-1.084
	c4.003-3.901,8.961-10.825,14.871-20.77c4.887-8.231,8.011-14.006,9.381-17.334c7.185-5.907,13.562-13.624,19.122-23.17
	c7.468-12.869,11.151-27.754,11.051-44.656c-0.133-16.901-4.033-34.688-11.701-53.355c-6.219-15.158-14.136-29.301-23.722-42.446
	c9.04-3.572,16.088-7.666,21.144-12.279l3.929-0.231c2.667-0.533,4.233-1.5,4.7-2.9c0.434-1.267,0.184-2.8-0.75-4.601l-0.923-1.357
	c1.124-2.554,1.519-5.069,1.173-7.543c-0.5-3.667-2.434-6.651-5.801-8.951c-1.657-1.134-3.526-1.992-5.567-2.626
	c16.277-4.988,31.737-11.856,46.372-20.626c26.67-16.002,44.405-34.588,53.207-55.757C414.116,59,416.116,40.847,410.849,26.779z"/>
</svg>
