<?xml version="1.0" encoding="utf-8"?>
<!-- Generator: Adobe Illustrator 16.0.0, SVG Export Plug-In . SVG Version: 6.00 Build 0)  -->
<!DOCTYPE svg PUBLIC "-//W3C//DTD SVG 1.1//EN" "http://www.w3.org/Graphics/SVG/1.1/DTD/svg11.dtd">
<svg version="1.1" id="图层_1" xmlns="http://www.w3.org/2000/svg" xmlns:xlink="http://www.w3.org/1999/xlink" x="0px" y="0px"
	 width="597px" height="467px" viewBox="0 0 597 467" enable-background="new 0 0 597 467" xml:space="preserve">
<path d="M595.859,272.674c0.466-8.961,0.499-15.855,0.1-20.686c-0.2-2.466-0.717-4.614-1.549-6.446
	c-0.767-1.666-1.982-3.481-3.647-5.446c-11.944-14.309-22.303-24.201-31.09-29.716c-0.636-1.279-1.389-2.703-2.289-4.313
	l-3.498-5.697l-0.149-0.15l-0.25-0.2c-5.163-2.798-12.542-5.996-22.136-9.594l-0.15-0.05c-4.164-0.533-20.486-0.05-48.968,1.449
	l-0.25,0.1c-1.866,0.833-5.047,2.532-9.544,5.097c-2.406,1.373-4.421,2.566-6.061,3.586c-6.826-0.904-12.32-2.029-16.48-3.374
	c-0.55-1.16-1.195-2.411-1.943-3.761c-1.433-2.565-2.665-4.514-3.697-5.846l-0.3-0.2c-1.033-0.466-4.064-1.482-9.095-3.048
	l-10.068-3.008c0.319-1.269,0.616-2.546,0.874-3.837l1.649-10.543l-0.25-0.7l-0.683-0.459c1.214-1.334,2.589-3.092,4.131-5.287
	l0.1-0.3c2.632-15.157,1.982-28.282-1.949-39.375c-3.899-10.938-11.051-20.093-21.439-27.471l2.852-9.006
	c0.333-1.166,0.467-2.849,0.4-5.047c-0.101-2.499-0.483-4.847-1.149-7.045c-1.3-4.297-2.032-7.979-2.199-11.043
	c-0.033-1.166-0.433-2.565-1.199-4.197c-0.633-1.333-1.232-2.349-1.799-3.048c-0.433-0.533-1.099-1.016-1.998-1.449
	s-1.782-0.683-2.648-0.75l-3.388,0.183l-0.41-9.277l-0.149-0.35c-2.166-3.231-6.146-7.262-11.942-12.092
	c-5.827-4.805-11.94-9.082-18.315-12.877c0.404-3.637,0.764-7.483,1.076-11.558c0.267-3.098-0.167-4.963-1.299-5.596
	c-1.133-0.667-2.898-0.067-5.297,1.799l-10.637,8.459c-6.642-2.13-14.362-3.574-23.191-4.313c-9.561-0.766-19.204-0.616-28.932,0.45
	c-22.319,2.465-38.542,8.544-48.669,18.238l-0.25,0.449l-0.582,9.06l-4.715,0.684c-2.398,0.6-4.181,1.299-5.346,2.099
	c-2.332,1.999-5.347,6.512-9.044,13.541c-3.498,6.696-6.046,12.542-7.645,17.539l-0.05,0.25l0.073,5.153
	c-1.107-0.21-2.074-0.351-2.871-0.406h-0.15c-5.696,1.033-13.308,3.098-22.835,6.196c-9.361,3.032-15.79,5.497-19.288,7.396
	c-2.232,1.199-3.998,2.332-5.296,3.398c-1.266,1.066-2.432,2.365-3.498,3.897c-1.066,1.565-2.548,4.047-4.447,7.445
	c-1.276,2.314-2.393,4.427-3.367,6.357c-0.36-1.108-0.733-2.212-1.13-3.309l-0.15-0.25c-3.253-3.576-6.476-6.913-9.667-10.021
	c-0.177-9.338,0.045-19.369,0.672-30.103c0.7-12.259,1.682-20.854,2.948-25.784v-0.15c0.133-3.198,0.133-7.245,0-12.142l-0.45-8.994
	c-0.067-0.333-0.25-0.533-0.55-0.6c-2.332-0.7-5.58-1.216-9.744-1.549l-9.344-0.4c-0.3,0-0.5,0.117-0.6,0.35
	c-9.527,15.09-19.754,29.897-30.681,44.421c-10.959,14.558-19.82,25.084-26.583,31.58c-3.364,3.265-5.363,7.595-5.996,12.992
	c-0.799,6.695-1.432,16.006-1.898,27.932c-0.429,10.471-0.586,19.302-0.48,26.537c-4.151,5.801-7.017,10.671-8.564,14.586l-0.05,0.2
	c-0.899,25.617,0.433,49.918,3.998,72.903c0.466,3.031,1.932,6.829,4.397,11.393c1.043,1.96,2.998,4.908,5.841,8.818l-0.245-0.174
	l-0.3-0.05l-23.685-1.35l-0.45,0.1c-1.799,1.066-7.595,4.83-17.389,11.293c-9.994,6.196-17.689,10.044-23.085,11.543
	c-0.267,0.066-0.433,0.25-0.5,0.549c-1.499,6.529-2.715,13.925-3.648,22.187c-0.699,6.596-1.116,12.559-1.249,17.888v0.15
	c0.733,3.664,2.349,10.277,4.847,19.838l4.047,15.439l0.2,0.35l11.542,10.844c4.364,3.931,7.562,6.646,9.594,8.145l0.3,0.15
	c6.996,1.799,15.823,3.863,26.483,6.195c11.192,2.432,18.821,3.932,22.885,4.497h0.25c6.229-1.466,14.474-3.914,24.734-7.345
	l19.887-6.945l0.3-0.201l4.397-5.646l3.15-4.602c3.459,1.125,6.618,2.077,9.449,2.842c1.867,1.806,3.875,3.641,6.039,5.507
	c1.166,1.007,2.275,1.926,3.353,2.794c-1.539,2.203-3.297,4.483-5.302,6.851l-2.898,2.898l-4.697,3.098l-8.444,4.497
	c-4.231,2.198-7.312,3.73-9.244,4.597c-2.599,1.166-4.647,2.798-6.146,4.896c-1.683,2.366-2.943,5.533-3.796,9.476
	c-3.267,5.592-6.146,11.613-8.596,18.107c-1.366,3.73-1.383,6.563-0.05,8.494c1.366,1.999,4.064,2.832,8.095,2.498
	c3.098-0.232,7.095-0.916,11.992-2.048c0.75-0.175,1.461-0.348,2.154-0.52c1.053,0.369,2.155,0.728,3.342,1.068
	c3.331,0.967,6.013,1.466,8.044,1.499l13.342,4.747l10.181,3.734c-0.111,0.493-0.211,0.97-0.287,1.413
	c-0.667,3.764-0.133,6.445,1.599,8.044c1.866,1.699,4.98,2.049,9.344,1.05c3.265-0.767,6.962-1.898,11.093-3.397
	c0.063-0.022,0.121-0.044,0.183-0.066c4.78,1.476,7.719,2.215,8.811,2.215l0.25-0.05c2.332-0.733,5.58-2.065,9.744-3.998
	c4.23-1.998,6.813-3.431,7.745-4.297c1.599-1.433,8.811-9.744,21.636-24.935c1.432-1.698,2.282-3.947,2.548-6.745
	c0.267-2.565,0-4.913-0.8-7.046l-2.898-8.244l-2.598-8.245c-0.6-2.032-1.516-3.947-2.749-5.746c-0.902-1.309-1.912-2.442-3.012-3.43
	l6.918-6.561c11.695,1.222,23.88,0.918,36.568-0.952c11.331-1.711,21.031-4.314,29.142-7.789c0.847,0.549,1.658,1.061,2.388,1.492
	l0.45,0.1c8.162-0.532,16.623-1.832,25.383-3.896c8.229-1.966,14.191-3.98,17.889-6.047l0.15-0.149
	c1.311-1.356,2.571-2.72,3.8-4.089c2.587,1.046,6.188,2.06,10.841,3.039c0.302,0.064,0.598,0.119,0.897,0.181
	c-0.999,1.355-1.948,3.089-2.847,5.216l-0.05,0.15l-0.449,7.994c-0.2,3.898-0.4,6.13-0.6,6.696
	c-0.067,0.333,0.017,0.583,0.249,0.749c1.532,1.333,3.897,2.949,7.096,4.848l6.446,3.748l0.3,0.1
	c9.96,1.332,19.221,2.998,27.782,4.996c8.194,1.966,14.041,3.831,17.538,5.597c1.832,0.899,4.48,1.083,7.945,0.55
	c2.772-0.42,5.881-1.277,9.289-2.521c7.703-0.528,15.532-2.358,23.489-5.523c2.599-0.999,4.015-2.315,4.248-3.947
	c0.196-1.248-0.353-2.497-1.631-3.745c1.722-0.963,3.486-2.09,5.3-3.41c1.444,0.14,3.045,0.039,4.825-0.34l8.794-2.349l9.045-3.148
	c2.465-1.065,3.714-2.381,3.747-3.947c0.066-1.499-0.999-3.081-3.197-4.746c-1.6-1.199-4.298-2.898-8.096-5.098
	c-2.62-1.494-4.896-2.724-6.832-3.696l-2.262-3.948l-0.399-0.301l-12.842-4.396l-9.794-3.548l-7.445-3.598l-5.755-2.775
	c0.037-0.009,0.071-0.014,0.108-0.022c6.363-1.533,10.91-4.048,13.642-7.545l0.1-0.25c1-3.132,2.216-8.379,3.647-15.74
	c1.366-6.896,2.282-12.242,2.749-16.039c0-0.4-0.15-0.65-0.45-0.75l-7.488-2.896c-0.403-4.277-0.869-8.126-1.406-11.495
	c-0.1-0.733-0.499-1.283-1.199-1.649l-9.959-3.89c-0.519-0.738-1.039-1.467-1.566-2.179c7.592,0.569,15.729,1.789,24.417,3.67
	c7.555,1.664,13.588,3.396,18.15,5.193c4.184,3.441,7.551,6.527,10.082,9.247c0.833,0.867,2.115,1.699,3.848,2.499
	c1.599,0.767,3.064,1.266,4.396,1.499c2.232,0.399,9.145,1.982,20.737,4.746l26.982,6.597l4.348,0.699l4.146-0.499l12.729-3.477
	l6.059,4.775c6.196,4.896,9.661,7.778,10.394,8.645l0.5,0.25l8.944,0.299l8.544-0.049c0.333,0,0.566-0.184,0.7-0.551
	c0.999-4.363,1.898-9.027,2.698-13.99c0.832-5.264,1.199-8.729,1.099-10.394c-1.199-4.997-2.731-9.71-4.597-14.142
	c-1.797-4.17-3.691-7.623-5.683-10.375c3.242-1.221,6.534-2.735,9.88-4.564C595.692,273.225,595.859,273.008,595.859,272.674z"/>
</svg>
