<?xml version="1.0" encoding="utf-8"?>
<!-- Generator: Adobe Illustrator 16.0.0, SVG Export Plug-In . SVG Version: 6.00 Build 0)  -->
<!DOCTYPE svg PUBLIC "-//W3C//DTD SVG 1.1//EN" "http://www.w3.org/Graphics/SVG/1.1/DTD/svg11.dtd">
<svg version="1.1" id="图层_1" xmlns="http://www.w3.org/2000/svg" xmlns:xlink="http://www.w3.org/1999/xlink" x="0px" y="0px"
	 width="663px" height="620px" viewBox="0 0 663 620" enable-background="new 0 0 663 620" xml:space="preserve">
<path d="M657.788,46.319c-2.165-3.165-5.18-5.097-9.044-5.796c-4.197-0.767-8.544,0.167-13.041,2.798
	c-8.861,5.197-17.022,11.792-24.484,19.787c-6.21,6.621-12.3,14.58-18.272,23.849c3.265-8.513,7.784-17.145,13.575-25.897
	c4.031-6.096,8.828-12.442,14.391-19.038l11.293-12.992c3.498-4.064,5.18-8.245,5.047-12.542c-0.134-3.864-1.683-7.179-4.647-9.944
	c-2.965-2.731-6.563-4.23-10.793-4.497c-4.63-0.3-9.061,0.983-13.291,3.848c-8.761,5.896-17.122,15.024-25.084,27.382
	c-6.137,9.481-11.151,19.597-15.08,30.329c3.39-14.687,7.731-27.73,13.031-39.124c2.198-4.73,2.731-9.21,1.599-13.441
	c-1.032-3.864-3.23-6.812-6.596-8.844c-3.331-2.065-6.962-2.699-10.893-1.899c-4.33,0.899-8.128,3.431-11.393,7.595
	c-3.298,4.164-6.713,11.259-10.243,21.286c-3.998,11.292-7.379,24.234-10.144,38.825c-2.599,13.858-3.331,32.163-2.199,54.915
	c0.767,15.29,2.815,37.676,6.146,67.157c2.498,22.452,4.214,39.974,5.146,52.566c1.433,19.221,1.865,35.894,1.299,50.018
	c-0.899,23.185-5.046,43.189-12.441,60.011c-8.674,19.62-20.973,32.455-36.874,38.544c1.874-8.493,2.115-17.325,0.697-26.502
	c-1.199-7.795-3.581-14.823-7.146-21.086c-3.303-5.772-7.368-10.435-12.186-14.001c0.746-2.856,1.282-5.864,1.593-9.034
	c1.065-10.76-0.533-21.32-4.797-31.68c-3.864-9.427-9.078-17.222-15.641-23.385c-6.766-6.387-14.224-10.278-22.37-11.683
	c-0.419-7.915-2.95-15.297-7.61-22.146c-5.196-7.695-12.175-13.508-20.937-17.438c-4.304-1.949-8.646-3.279-13.029-4.001
	c-2.443-6.697-7.258-12.193-14.453-16.486c-7.361-4.397-15.906-6.796-25.633-7.195c-10.927-0.466-20.97,1.582-30.131,6.146
	c-8.837,4.403-15.136,10.347-18.906,17.824c-4.88-4.097-10.815-7.178-17.82-9.229c-11.459-3.331-23.052-3.231-34.778,0.3
	c-11.659,3.531-21.12,9.494-28.382,17.889c-7.489,8.668-11.264,18.543-11.344,29.62c-6.434,1.494-12.664,4.668-18.686,9.555
	c-6.629,5.363-12.159,12.025-16.589,19.987c-4.397,7.895-6.996,16.156-7.795,24.784c-0.169,1.887-0.224,3.729-0.207,5.543
	c-8.434,3.628-15.231,10.103-20.38,19.441c-5.063,9.193-7.762,19.621-8.095,31.279c-0.102,3.776,0.1,7.424,0.59,10.948
	c-6.316,3.794-10.646,10.784-12.982,20.981c-2.397,10.581-1.78,21.177,1.835,31.788c-3.807,3.354-7.875,6.699-12.228,10.035
	c-10.626,8.128-26.183,18.488-46.67,31.08c-18.188,11.159-32.846,23.817-43.972,37.976c-11.393,14.523-19.571,31.279-24.534,50.268
	c-2.298,8.794-2.499,17.022-0.6,24.684c1.676,6.735,4.568,11.434,8.666,14.106c-0.364,3.144-0.593,6.206-0.671,9.179
	c-0.133,5.363,1.066,9.677,3.598,12.941c2.299,2.965,5.264,4.614,8.895,4.947c3.631,0.3,6.996-0.783,10.093-3.248
	c3.398-2.698,5.763-6.546,7.096-11.543c1.996-7.393,4.004-14.451,6.023-21.212c-1.435,13.971,0.098,23.834,4.62,29.557
	c1.832,2.299,4.197,3.881,7.095,4.747c2.898,0.866,5.78,0.866,8.645,0c6.862-2.065,10.71-7.512,11.542-16.339
	c2.332-24.618,9.777-51.185,22.336-79.699c5.363-12.125,11.026-23.052,16.989-32.778c5.188-8.479,10.004-15.045,14.453-19.725
	c0.192,0.364,0.403,0.727,0.637,1.086c1.766,2.766,4.297,4.73,7.595,5.896c0.559,0.194,1.125,0.349,1.694,0.482
	c-1.666,2.7-2.853,5.536-3.543,8.512c-0.933,4.098-0.833,7.979,0.3,11.643c0.933,2.965,2.565,5.746,4.897,8.345
	c2.089,2.328,4.476,4.189,7.126,5.635c-2.019,3.676-4.399,7.15-7.176,10.405c-3.631,4.297-8.162,8.395-13.591,12.292
	c-3.631,2.598-5.796,5.663-6.496,9.193c-0.733,3.564,0.25,6.779,2.948,9.645c2.332,2.465,5.347,3.83,9.044,4.097
	c4.197,0.333,8.261-0.933,12.192-3.797c3.598-2.599,7.029-5.696,10.293-9.294c2.915-3.239,5.361-6.533,7.391-9.876
	c2.677,2.775,5.753,5.275,9.229,7.502c-0.614,0.842-1.238,1.658-1.88,2.424c-3.664,4.396-4.997,8.994-3.997,13.791
	c0.899,4.23,2.998,6.995,6.296,8.295c3.198,1.266,6.379,1.448,9.544,0.549c3.179-0.887,6.061-2.795,8.65-5.701l5.59,4.202
	c1.266,2.898,3.531,9.011,6.795,18.339c3.098,8.86,5.03,14.074,5.796,15.64c1.565,3.164,4.23,5.946,7.995,8.345
	c3.465,2.165,7.529,3.848,12.192,5.047c4.764,1.166,10.86,2.115,18.288,2.848c8.428,0.866,15.124,1.017,20.087,0.45
	c6.196-0.667,11.343-3.265,15.44-7.795c1.965-2.166,4.264-5.147,6.896-8.944c2.532-3.665,4.464-6.746,5.796-9.244
	c0.833-1.6,1.932-2.715,3.298-3.348c1.066-0.5,2.648-0.816,4.747-0.95l28.782-2.248c12.149-1.265,21.638-2.872,28.478-4.821
	c2.61,3.191,5.461,6.288,8.599,9.269c4.53,4.33,8.86,7.729,12.991,10.193c4.597,2.765,11.143,3.881,19.638,3.348
	c6.563-0.433,13.874-1.749,21.936-3.947c9.693-2.665,17.155-5.88,22.386-9.644c3.431-2.466,5.963-4.764,7.595-6.896
	c2.099-2.665,3.331-5.663,3.698-8.995c0.561-4.547,0.575-10.318,0.058-17.281c1.517,0.13,3.014,0.068,4.489-0.207
	c3.031-0.578,5.403-1.922,7.135-4.006c1.53,1.41,3.292,2.78,5.307,4.105c2.665,1.766,5.264,3.132,7.795,4.098
	c3.331,1.266,6.246,1.582,8.745,0.949c2.731-0.732,5.046-2.581,6.945-5.546c1.766-2.765,2.231-5.863,1.398-9.294
	c-0.865-3.564-2.897-6.296-6.096-8.195c-6.929-4.097-12.858-9.394-17.788-15.89c-1.426-1.892-2.704-3.823-3.864-5.786
	c2.901,2.36,5.443,4.311,7.611,5.836c4.83,3.398,9.277,5.83,13.342,7.296c3.864,1.433,7.479,1.433,10.843,0
	c3.598-1.532,6.046-4.397,7.346-8.595c1.165-3.798,1.148-7.079-0.051-9.844c-1.199-2.798-3.397-4.563-6.596-5.297
	c-6.729-1.599-12.292-4.646-16.688-9.144c-0.425-0.438-0.826-0.899-1.227-1.362c5.912-5.42,10.331-12.35,13.219-20.823
	c2.864-8.428,3.98-17.456,3.348-27.083c-0.5-7.762-2.232-14.79-5.197-21.086c-0.966-2.091-2.039-3.997-3.197-5.756
	c30.701-7.112,52.674-29.854,65.907-68.246c5.03-14.558,8.928-31.797,11.692-51.717c1.633-11.592,3.215-27.666,4.747-48.219
	c1.466-19.354,3.298-35.727,5.496-49.118c2.932-17.955,6.963-34.095,12.093-48.419c6.029-16.822,13.408-31.763,22.136-44.821
	c9.36-14.024,20.819-26.749,34.378-38.175c4.164-3.531,6.646-7.462,7.445-11.792C660.67,53.032,659.954,49.484,657.788,46.319z"/>
</svg>
