<?xml version="1.0" encoding="utf-8"?>
<!-- Generator: Adobe Illustrator 16.0.0, SVG Export Plug-In . SVG Version: 6.00 Build 0)  -->
<!DOCTYPE svg PUBLIC "-//W3C//DTD SVG 1.1//EN" "http://www.w3.org/Graphics/SVG/1.1/DTD/svg11.dtd">
<svg version="1.1" id="图层_1" xmlns="http://www.w3.org/2000/svg" xmlns:xlink="http://www.w3.org/1999/xlink" x="0px" y="0px"
	 width="465px" height="408px" viewBox="0 0 465 408" enable-background="new 0 0 465 408" xml:space="preserve">
<path d="M463.592,263.128c0.271-1.758,0.429-3.546,0.458-5.37c0.2-12.663-4.632-26.426-14.495-41.287
	c-6.131-9.213-14.685-19.375-25.646-30.483c-0.504-3.388-1.265-7.297-2.294-11.753c-1.6-6.832-3.083-11.68-4.449-14.545
	c-0.333-0.7-0.749-1.066-1.249-1.1c-0.467-0.034-0.934,0.216-1.399,0.75c-1.533,1.733-2.783,3.382-3.749,4.948
	c-0.663,1.025-1.561,2.642-2.687,4.838c-4.91-9.688-9.548-17.429-13.908-23.182c-1.366-1.833-2.3-1.683-2.799,0.45
	c-1.511,6.869-2.425,15.3-2.751,25.273c-3.13-0.256-6.308-0.039-9.533,0.654c-0.131-0.145-0.262-0.294-0.393-0.436l1.08-0.2
	c0.267-0.233,0.383-0.667,0.35-1.3c-0.199-3.232-1.282-7.947-3.249-14.146c-1.128-3.552-2.203-6.559-3.227-9.024
	c2.423-0.242,5.089-0.243,8.025,0.027c1.133,0.1,1.816-0.033,2.05-0.4c0.232-0.433-0.034-1.183-0.8-2.249
	c-2.129-2.969-5.242-6.441-9.339-10.415c14.981-1.866,28.41-6.206,40.278-13.028c12.329-7.098,22.143-16.395,29.44-27.891
	c6.731-10.563,10.414-22.676,11.047-36.338c0.467-10.097-0.816-22.409-3.849-36.938c-0.634-2.966-1.649-5.365-3.049-7.198
	c-1.147-1.529-2.45-2.527-3.909-3.004c-0.781-1.737-1.902-3.452-3.389-5.144c-3.366-3.832-6.864-5.165-10.497-3.999
	c-3.432,1.1-5.415,4.315-5.948,9.647c-0.165,1.64-0.178,3.141-0.066,4.526c-0.913,1.299-1.31,3.286-1.183,5.971
	c0.133,2.766,0.783,5.881,1.949,9.347c3.032,9.063,4.481,16.861,4.349,23.392c-0.134,6.631-1.899,14.229-5.299,22.792
	c-4.965,12.363-15.777,22.077-32.439,29.141c-13.008,5.539-26.579,8.533-40.706,9c-4.186-3.118-7.912-5.605-11.18-7.46
	c2.204-0.61,4.618-1.125,7.251-1.54c0.966-0.133,1.499-0.399,1.599-0.799c0.067-0.333-0.199-0.8-0.8-1.4
	c-3.032-2.932-8.047-5.781-15.045-8.547c-6.488-2.596-12.484-4.219-18-4.895c-3.242-4.155-6.862-8.062-10.891-11.7
	c-6.317-5.747-13.447-10.682-21.369-14.825c1.108-2.622,2.134-4.368,3.075-5.218c3.399,0.1,6.665-0.633,9.797-2.2
	c3.198-1.633,5.665-3.865,7.397-6.698c2.999-4.832,3.815-9.896,2.449-15.195c-1.433-5.598-4.932-9.664-10.496-12.196
	c-4.999-2.299-10.064-2.549-15.195-0.75c-4.832,1.699-8.314,4.598-10.447,8.697c-2.032,3.899-2.498,8.331-1.398,13.296
	c0.891,3.901,2.501,6.915,4.811,9.067c-0.598,1.809-1.35,3.706-2.263,5.695c-5.992-2.268-12.071-4.019-18.243-5.215
	c-6.299-1.233-12.413-1.849-18.344-1.849c-13.114,0-25.844,2.37-38.191,7.096c-1.111-2.219-1.902-4.097-2.368-5.631
	c2.521-2.327,4.205-5.339,5.02-9.062c1-4.532,0.483-8.781-1.55-12.746c-2.166-4.199-5.631-7.198-10.396-8.997
	c-4.832-1.833-9.597-1.899-14.295-0.2c-4.999,1.833-8.581,5.432-10.747,10.796c-2.199,5.465-2.049,10.73,0.45,15.795
	c1.399,2.799,3.482,5.165,6.248,7.098c3.599,2.533,7.564,3.599,11.896,3.199c0.898,0.96,2,2.78,3.301,5.439
	c-7.875,4.24-15.062,9.352-21.545,15.354c-3.553,3.293-6.821,6.799-9.815,10.507c-4.782,0.798-10.537,2.423-17.276,4.888
	c-8.197,2.966-13.629,5.765-16.295,8.397c-1.466,1.433-1.149,2.349,0.95,2.749c2.484,0.477,4.798,1.011,6.942,1.601
	c-3.269,1.915-6.93,4.374-10.988,7.383c-18.033-1.479-33.25-5.218-45.638-11.233c-12.796-6.231-21.759-14.512-26.891-24.842
	c-4.432-8.964-6.348-18.61-5.748-28.94c0.333-5.465,1.666-12.263,3.999-20.394c1.2-4.232,1.783-7.514,1.75-9.847
	c0-1.689-0.325-3.003-0.96-3.956c0.15-1.796,0.029-3.835-0.389-6.141c-0.966-5.298-3.083-8.114-6.348-8.447
	c-2.999-0.333-6.031,0.883-9.097,3.648c-1.968,1.748-3.394,3.698-4.297,5.845c-1.539,0.381-2.874,1.31-4,2.803
	c-1.4,1.766-2.416,4.215-3.049,7.348c-2.699,13.063-3.982,23.875-3.849,32.439c0.2,14.995,3.849,28.524,10.946,40.587
	c6.865,11.663,17.645,21.327,32.34,28.991c12.277,6.438,24.853,10.376,37.728,11.823c-4.24,4.021-7.357,7.414-9.337,10.17
	c-1.133,1.566-0.733,2.483,1.2,2.75l7.819,0.27c-0.906,2.343-1.829,4.982-2.771,7.928c-1.933,6.064-3.082,11.013-3.449,14.845
	c-0.067,0.533,0,0.916,0.2,1.149c0.2,0.233,0.633,0.367,1.3,0.4c0.049,0.001,0.096,0.003,0.145,0.005
	c-0.258,0.294-0.526,0.607-0.806,0.942c-3.061-0.77-6.143-1.138-9.248-1.111c-0.055-3.108-0.266-6.646-0.639-10.633
	c-0.6-6.065-1.366-10.98-2.299-14.746c-0.467-1.732-1.333-1.882-2.599-0.45c-1.899,2.233-4.215,5.598-6.948,10.097
	c-2.529,4.188-4.863,8.486-7.017,12.882l-2.68-4.385c-1.433-2.1-2.749-3.749-3.949-4.949c-0.533-0.533-0.983-0.783-1.35-0.75
	c-0.433,0.033-0.816,0.4-1.149,1.1c-1.433,2.933-2.833,7.397-4.199,13.396c-0.881,3.874-1.625,7.867-2.248,11.967
	c-1.085,1.682-2.767,3.756-5.049,6.228l-7.698,7.797c-4.298,4.299-8.297,9.297-11.996,14.995c-2.899,4.466-5.948,9.947-9.147,16.445
	c-2.366,4.766-4.115,9.83-5.249,15.195c-1.166,5.498-1.633,10.896-1.399,16.194c0.038,0.869,0.146,1.752,0.292,2.643
	c-0.512,2.653-0.695,5.802-0.542,9.454c0.179,5.102,1.099,8.763,2.747,11.007c0.104,1.892,0.287,3.41,0.552,4.538
	c0.3,1.365,1.283,3.248,2.949,5.648c1.019,1.461,1.973,2.673,2.874,3.678c0.01,0.125,0.015,0.245,0.025,0.371
	c0.4,5.498,3.016,9.68,7.848,12.545c1.966,1.199,5.848,2.433,11.646,3.699c1.693,0.378,3.213,0.67,4.587,0.891
	c0.056,0.741,0.218,1.463,0.512,2.158c0.866,1.933,2.482,3.282,4.849,4.049c2.432,0.767,4.998,0.666,7.697-0.3
	c2.999-1.066,5.615-3.065,7.848-5.998c2.366-3.099,4.198-5.998,5.498-8.697c0.994-2.015,1.882-4.371,2.671-7.044
	c1.35-0.707,2.628-1.681,3.827-2.953l4.599-5.648l4.848-5.798c1.933-1.933,3.616-4.432,5.048-7.497
	c1.2-2.566,2.616-6.515,4.249-11.847c1.566-5.132,4.465-10.93,8.697-17.394c3.866-5.965,7.748-10.863,11.646-14.695
	c2.599-2.566,4.632-5.932,6.098-10.098c1.5-4.198,2.233-8.697,2.2-13.495c-0.031-5.399-0.885-10.311-2.544-14.743
	c1.28-1.584,2.693-3.271,4.242-5.065c0.088,2.098,0.233,4.232,0.451,6.412c0.4,3.866,0.933,6.915,1.6,9.147
	c0.4,1.232,1.183,1.416,2.349,0.55c4.248-3.086,7.858-5.506,10.845-7.275c0.378,2.033,0.712,4.061,0.952,6.076
	c0.1,1.065,0.733,1.35,1.899,0.85c0.996-0.443,2.016-1.095,3.056-1.92c0.961,6.106,2.917,13.683,5.891,22.763
	c3.63,10.893,7.261,18.727,10.892,23.504c-6.707,4.109-14.981,10.099-24.838,17.983c-12.163,9.696-19.494,16.378-21.993,20.044
	c-2.433,3.598-5.315,11.445-8.647,23.542c-3.132,11.264-5.343,21.676-6.651,31.253c-3.298,0.943-7.307,2.78-12.042,5.535
	c-5.065,2.965-8.931,5.781-11.596,8.447c-0.933,0.933-0.733,1.549,0.6,1.85c2.799,0.666,6.165,1.199,10.097,1.6l0.563,0.029
	c-1.831,1.294-3.651,2.764-5.462,4.419c-1.66,1.52-3.164,3.083-4.528,4.685c-0.51,0.183-0.987,0.414-1.42,0.713
	c-2.366,1.633-4.582,4.949-6.648,9.947c-2.033,4.898-2.683,8.264-1.949,10.097c0.366,0.866,1.449,1.417,3.249,1.649l5.378-0.423
	c-1.838,4.093-2.299,7.117-1.38,9.07c0.633,1.399,4.398,1.883,11.296,1.449c5.708-0.392,10.177-1.152,13.441-2.272
	c-0.057,0.785,0.02,1.435,0.254,1.923c1.1,2.299,6.631,2.949,16.595,1.949c9.535-0.94,14.795-2.276,15.808-4.006
	c6.653-1.488,13.908-4.374,21.78-8.69c7.364-4.031,13.179-8.03,17.444-11.996c2.1-1.965,3.482-4.082,4.149-6.348
	c0.717-2.379,0.54-4.733-0.519-7.063c2.623-0.226,5.328-0.653,8.117-1.284c0.966-0.199,1.499-0.499,1.599-0.898
	c0.1-0.367-0.167-0.934-0.8-1.7c-2.599-3.366-5.148-6.099-7.647-8.197c-2.184-1.867-4.926-3.734-8.191-5.601
	c-0.272-12.445,0.31-22.415,1.744-29.912c4.644-6.034,10.481-11.826,17.543-17.37c4.521-3.576,8.815-6.529,12.885-8.872
	c12.666,7.243,26.413,10.905,41.247,10.971c15.128,0.066,28.539-3.641,40.24-11.104c4.514,2.556,9.425,5.985,14.742,10.306
	c6.38,5.121,11.402,9.972,15.089,14.555c0.86,3.775,1.467,8.619,1.806,14.586c0.325,5.389,0.405,10.58,0.241,15.573
	c-8.864,7.935-14.116,12.996-15.736,15.167c-0.4,0.6-0.55,1.066-0.449,1.398c0.1,0.301,0.449,0.533,1.049,0.7
	c2.222,0.687,5.072,1.162,8.529,1.433c-0.905,2.33-1.102,4.635-0.582,6.915c0.566,2.532,1.967,4.798,4.199,6.798
	c4.198,3.732,9.979,7.647,17.345,11.746c8.298,4.613,15.584,7.505,21.861,8.683c1.549,1.894,6.715,3.265,15.526,4.113
	c9.797,0.933,15.444,0.316,16.944-1.85c0.277-0.39,0.393-0.944,0.361-1.649c3.246,0.943,7.639,1.577,13.185,1.899
	c6.364,0.333,9.93,0,10.696-1c1.272-1.688,0.975-4.832-0.882-9.416c1.349,0.092,2.801,0.073,4.381-0.081
	c2.799-0.266,4.382-0.866,4.748-1.799c0.6-1.566-0.083-4.799-2.049-9.697c-2.1-5.231-4.398-8.53-6.898-9.896
	c-0.489-0.263-1.033-0.454-1.626-0.583c-1.061-1.372-2.433-2.877-4.122-4.516c-1.986-1.938-3.839-3.456-5.562-4.566l0.514-0.032
	l9.646-1.499c1.467-0.366,1.6-1.066,0.4-2.1c-2.333-2.099-6.132-4.749-11.396-7.947c-4.276-2.566-8.2-4.706-11.804-6.46
	c-1.255-8.351-3.218-17.726-5.891-28.129c-3.266-12.695-6.165-21.076-8.697-25.143c-2.832-4.564-10.797-12.078-23.893-22.542
	c-9.709-7.768-17.435-13.315-23.191-16.658c3.585-6.094,7.034-14.005,10.346-23.778c2.944-8.612,4.944-16.036,6.024-22.302
	c1.006,0.837,1.951,1.516,2.823,2.008c0.966,0.533,1.532,0.267,1.699-0.8c0.536-2.81,0.953-4.919,1.255-6.349
	c3.069,1.77,6.646,4.146,10.741,7.148c1.1,0.833,1.85,0.616,2.249-0.649c0.7-2.267,1.3-5.149,1.8-8.647
	c0.312-2.236,0.526-4.383,0.668-6.46c1.307,1.502,2.566,3.007,3.774,4.513c-1.506,4.148-2.323,8.694-2.443,13.644
	c-0.134,4.932,0.566,9.547,2.1,13.846c1.499,4.231,3.582,7.646,6.248,10.246c2.766,2.732,5.947,6.582,9.547,11.547
	c4.564,6.23,7.547,11.412,8.947,15.545c2.099,6.264,3.849,11.08,5.248,14.445c2.565,6.064,5.015,10.18,7.348,12.346l4.748,5.049
	l4.398,5.298c0.46,0.621,1.034,1.173,1.722,1.655c0.877,3.186,1.817,5.934,2.827,8.191c1.233,2.732,2.949,5.665,5.148,8.797
	c2.133,3.033,4.682,5.065,7.647,6.099c2.633,0.899,5.182,0.916,7.647,0.05c2.366-0.833,3.999-2.232,4.898-4.199
	c0.186-0.396,0.319-0.8,0.427-1.207c0.814-0.176,1.668-0.432,2.572-0.792l5.798-1.899c2.732-0.833,4.815-1.383,6.248-1.649
	c2.399-0.433,4.632-1.633,6.698-3.599c1.533-1.467,2.633-2.949,3.299-4.449c0.52-1.197,0.946-3,1.286-5.383
	c1.215-1.281,2.402-2.734,3.563-4.363c1.433-2.066,2.399-3.815,2.898-5.248c0.346-0.969,0.488-2.747,0.435-5.295
	c1.53-2.433,2.373-6.059,2.515-10.9C464.663,269.407,464.341,265.954,463.592,263.128z"/>
</svg>
