<?xml version="1.0" encoding="utf-8"?>
<!-- Generator: Adobe Illustrator 16.0.0, SVG Export Plug-In . SVG Version: 6.00 Build 0)  -->
<!DOCTYPE svg PUBLIC "-//W3C//DTD SVG 1.1//EN" "http://www.w3.org/Graphics/SVG/1.1/DTD/svg11.dtd">
<svg version="1.1" id="图层_1" xmlns="http://www.w3.org/2000/svg" xmlns:xlink="http://www.w3.org/1999/xlink" x="0px" y="0px"
	 width="468px" height="379px" viewBox="0 0 468 379" enable-background="new 0 0 468 379" xml:space="preserve">
<path d="M451.956,115.231c-23.09-4.765-47.546-5.498-73.368-2.199c-26.363,3.374-51.743,10.667-76.143,21.862
	c-0.062-0.22-0.113-0.453-0.176-0.671c-4.83-16.759-19.741-35.301-44.73-55.626c-9.296-7.563-18.825-14.394-28.588-20.491
	c-8.696-5.398-15.16-8.78-19.392-10.146c-2.399-0.8-4.098-0.783-5.098,0.05c-1.233,1-1.116,3.099,0.35,6.297
	c1.333,2.932,3.349,6.464,6.048,10.595c1.61,2.462,3.136,4.651,4.587,6.604c-8.393-4.156-17.433-8.174-27.128-12.052
	c-18.825-7.53-35.418-12.678-49.779-15.444c-5.397-1.033-8.63-0.549-9.696,1.45c-1.066,1.999,0.3,4.964,4.098,8.896
	c21.248,21.812,36.745,38.197,46.496,49.162c-4.37-0.902-8.521-1.533-12.458-1.895c-15.33-20.917-33.476-39.434-54.48-55.514
	C83.613,23.953,53.376,8.977,21.79,1.18C13.693-0.819,7.779-0.303,4.047,2.729c-3.865,3.166-4.981,8.729-3.349,16.693
	c2.999,14.86,9.563,30.087,19.692,45.681c10.013,15.452,20.766,26.853,32.254,34.226c-5.733,3.663-8.191,11.059-7.365,22.2
	c0.833,11.262,4.881,24.973,12.145,41.132c9.629,21.324,24.09,41.299,43.381,59.924c10.493,10.142,21.24,18.871,32.238,26.206
	c2.113,17.044,6.189,30.973,12.243,41.766c5.498,9.795,12.478,16.792,20.941,20.99c-8.13,15.227-11.628,29.787-10.495,43.682
	c0.466,5.73,1.716,10.479,3.748,14.244c1.966,3.665,4.332,5.797,7.097,6.396c2.066,0.434,4.131-0.299,6.197-2.199
	c1.999-1.865,3.698-4.564,5.098-8.096c2.241-5.73,3.15-11.807,2.731-18.226c0.89,1.841,1.878,3.619,2.966,5.331
	c2.299,3.632,4.698,6.314,7.197,8.047c2.433,1.699,4.448,2.165,6.047,1.398c2.999-1.432,4.132-6.097,3.399-13.994
	c-0.692-6.973-2.783-13.279-6.232-18.941c3.239,3.261,6.682,5.764,10.331,7.497c2.632,1.232,4.998,1.882,7.097,1.949
	c1.966,0.033,3.315-0.417,4.048-1.35c0.7-0.933,0.883-2.433,0.55-4.498c-0.333-2.199-1.199-4.498-2.599-6.897
	c-2.919-5.136-7.143-9.182-12.638-12.167c4.419-1.322,8.192-2.749,11.309-4.285c1.596,3.956,4.064,6.14,7.426,6.507
	c3.242,0.315,6.161-1.071,8.76-4.14c1.203,2.077,3.583,2.988,7.184,2.69c5.264-0.434,11.361-3.699,18.291-9.796
	c5.198-4.599,8.88-9.146,11.046-13.645c2.032-4.265,2.183-7.297,0.45-9.096c-0.88-0.907-2.063-1.464-3.521-1.705
	c6.281-5.04,11.997-11.261,17.143-18.671c13.508,0.545,27.308-1.887,41.404-7.313c12.261-4.765,23.14-11.045,32.636-18.842
	c16.227-13.328,28.404-26.938,36.534-40.832c2.634-4.498,4.571-8.587,5.823-12.273c14.031-6.381,27.257-14.686,39.657-24.962
	c11.296-9.329,19.025-17.642,23.19-24.939C463.534,122.895,461.485,117.164,451.956,115.231z"/>
</svg>
