<?xml version="1.0" encoding="utf-8"?>
<!-- Generator: Adobe Illustrator 16.0.0, SVG Export Plug-In . SVG Version: 6.00 Build 0)  -->
<!DOCTYPE svg PUBLIC "-//W3C//DTD SVG 1.1//EN" "http://www.w3.org/Graphics/SVG/1.1/DTD/svg11.dtd">
<svg version="1.1" id="图层_1" xmlns="http://www.w3.org/2000/svg" xmlns:xlink="http://www.w3.org/1999/xlink" x="0px" y="0px"
	 width="523px" height="370px" viewBox="0 0 523 370" enable-background="new 0 0 523 370" xml:space="preserve">
<path d="M512.149,122.044c-7.334-6.134-17.769-10.534-31.304-13.201c-16.921-3.312-37.718-4.525-62.362-3.656
	c5.901-10.772,10.413-22.548,13.508-35.347c3.301-13.735,3.067-21.236-0.7-22.502c-1.967-0.667-4.934,1.583-8.9,6.751
	c-2.434,3.133-8.401,11.901-17.902,26.302l-7.072-2.705c-0.851-1.255-1.718-2.502-2.597-3.745c2.859-5.598,4.889-9.958,6.069-13.053
	c1.267-3.4,2.184-7.051,2.75-10.951c0.566-3.667-0.017-5.868-1.75-6.601c-1.667-0.733-3.467,0.15-5.4,2.65
	c-3.918,5.038-7.836,9.948-11.755,14.749c-4.31-5.241-8.888-10.359-13.748-15.349c-11.401-11.768-18.868-16.768-22.402-15.001
	c-3.9,1.934-3.6,11.618,0.9,29.053c1.647,6.411,3.971,14.187,6.957,23.304c-5.937-4.907-11.275-8.996-16.008-12.252
	c-9.201-6.334-17.785-10.834-25.753-13.501c-8.834-2.934-16.951-4.1-24.352-3.5c-8.001,0.7-12.918,3.383-14.752,8.05
	c-1.566,4-0.467,8.318,3.301,12.952c3.633,4.467,8.817,8.184,15.551,11.151c6.867,3.034,14.719,5.417,23.553,7.151
	c8.07,1.594,19.612,3.141,34.605,4.64c-4.121,4.359-8.242,8.593-12.364,12.691c-0.013,0.007-0.026,0.013-0.039,0.021l-0.034,0.052
	c-4.321,4.293-8.644,8.443-12.967,12.449c-32.047,29.712-62.52,49.972-91.423,60.792c-1.377-0.456-2.861-0.939-4.452-1.453
	c-0.301-11.874-1.835-25.009-4.635-39.438c-3.5-17.802-7.234-26.702-11.201-26.702c-3.134,0-6.934,6.25-11.401,18.751
	c-3.617,10.059-7.476,23.645-11.574,40.729l-8.631,0.874c-0.942-8.646-2.298-17.426-4.098-26.351
	c-3.633-17.935-7.384-26.886-11.251-26.853c-4.26,0.058-9.038,8.625-14.331,25.689c-2.559-11.438-5.543-22.721-8.972-33.84
	c-5.167-16.702-11.534-33.653-19.102-50.854c-9.334-21.202-20.186-37.987-32.553-50.355C88.125,8.2,83.008,4.35,78.208,2.083
	c-4.734-2.233-8.667-2.667-11.801-1.3c-4.733,2.067-6.584,8.967-5.55,20.702c0.768,8.76,3.056,18.727,6.847,29.887
	c-9.25-14.924-19.396-26.699-30.45-35.288c-6.3-4.867-12.218-8.117-17.751-9.751c-5.167-1.567-9.268-1.5-12.301,0.2
	C4.234,8.2,2.167,11.7,1,17.034c-1.167,5.367-1.3,12.001-0.4,19.902C2.667,54.871,9.067,74.34,19.802,95.342
	c6.834,13.368,15.519,28.502,26.053,45.404c11.823,19.021,23.53,36.128,35.121,51.321c-1.188,4.493-2.388,9.214-3.602,14.2
	c-5.047,1.521-9.173,3.458-12.407,5.798c-17.068,5.024-28.475,13.336-34.214,24.939c-5.014,10.123-5.334,21.52-0.986,34.182
	c-0.157,0.197-0.313,0.402-0.464,0.622c-1.3,1.9-2.167,4.316-2.6,7.25c-1,6.935,0.583,13.619,4.75,20.053
	c0.6,0.934,1.167,1.316,1.7,1.15c0.5-0.134,0.85-0.701,1.05-1.701c0.829-4.275,1.635-7.602,2.42-10.013
	c2.12,3.591,4.874,6.213,8.249,7.886c1.564,2.293,3.682,4.526,6.347,6.701c-0.103,1.507-0.11,3-0.014,4.477
	c0.267,3.668,0.917,5.685,1.95,6.051c0.967,0.367,2.684-0.816,5.15-3.55c0.444-0.484,0.869-1.003,1.296-1.517
	c9.85,5.325,21.079,8.541,33.708,9.617c12.328,1.059,23.756-0.223,34.293-3.827c7.662-1.464,14.623-3.729,20.862-6.823
	c8.201-4.068,14.251-9.135,18.152-15.202c1.945-3.047,3.439-6.27,4.488-9.666c4.464,0.433,9.119,0.532,13.967,0.298
	c4.609,4.792,10.134,11.087,16.598,18.919l15.901,19.552l-7.301,9.951c-2.833,3.533-6.267,7.135-10.301,10.801l-9.101-1.699
	l-7-0.951c-1.767-0.166-2.767,0.018-3,0.551c-0.267,0.566,0.267,1.467,1.6,2.7c0.934,0.833,3.634,2.616,8.101,5.351l-6.951-0.2
	l-6.5-0.399c-1.4-0.135-2.217,0.049-2.45,0.549c-0.2,0.567,0.383,1.384,1.75,2.451l3.85,2.65l4.451,2.399l-4,4.651l-4.05,4
	c-1.6,1.566-2.117,2.666-1.55,3.3c0.534,0.634,1.75,0.567,3.65-0.2c14.96-5.833,28.425-13.922,40.4-24.258
	c0.359,0.61,1.337,1.229,2.954,1.855l8.151,3.352l-3.6,8.95c-1,2.3-1.1,3.65-0.3,4.05c0.8,0.367,2.1-0.183,3.9-1.649
	c6.667-5.468,15.302-15.735,25.902-30.804c1.583-2.245,3.062-4.381,4.457-6.429c0.192,0.064,0.377,0.136,0.594,0.179
	c1.6,0.434,3.433,1.051,5.5,1.85l-7.301,2.501c-2.1,0.634-3.167,1.351-3.2,2.149c0,0.801,1.017,1.434,3.05,1.9l6.701,1.851
	l-2.101,9.151c-0.732,3.033-0.566,4.6,0.5,4.7c0.967,0.033,2.234-0.917,3.801-2.851c7.201-8.934,13.584-21.252,19.152-36.953
	c3.467-9.801,6.517-20.669,9.15-32.604c0.166-0.733-0.367-1.25-1.6-1.55c-6.734-1.567-16.469-2.767-29.203-3.601
	c-10.048-0.647-18.163-0.854-24.361-0.621c5.793-2.761,10.761-5.753,14.904-8.979c30.985,7.338,63.729,13.445,98.265,18.301
	c27.136,3.834,51.972,4.233,74.507,1.199c24.136-3.232,36.953-9.518,38.453-18.852c0.7-4.334-1.066-8.684-5.3-13.051
	c-4.234-4.434-10.585-8.468-19.052-12.102c-0.126-0.054-0.259-0.104-0.386-0.158c10.511-1.031,19.229-3.225,26.138-6.592
	c7.634-3.734,11.234-7.901,10.801-12.502c-0.699-7.033-9.334-12.684-25.902-16.951c-17.835-4.601-40.971-6.467-69.406-5.601
	c-12.898,0.413-27.693,1.241-44.365,2.481c11.184-8.321,22.437-18.4,33.764-30.284c13.682-14.371,25.595-29.455,35.756-45.247
	c6.653,4.294,15.031,8.742,25.15,13.344c13.501,6.167,25.469,10.451,35.903,12.851c13.835,3.167,25.319,3.767,34.453,1.8
	c7.968-1.7,12.785-4.917,14.452-9.651C521.316,133.212,518.883,127.711,512.149,122.044z M254.274,303.711
	c-0.934,1.668-2.884,5.584-5.851,11.752c-2.6,5.434-5.634,11.001-9.101,16.701l-9.62,0.86c3.142-3.325,6.169-6.823,9.07-10.511
	c0.3-0.434,0.283-0.867-0.05-1.301c-5.467-7.367-12.384-14.734-20.752-22.102c-5.48-4.799-12.726-10.537-21.707-17.197
	c1.987-0.284,4.001-0.613,6.047-0.997C215.491,285.179,232.808,292.773,254.274,303.711z M225.872,337.015l6.801,2.9l-9.851,0.95
	c-0.489,0.041-0.918,0.098-1.313,0.165c1.458-1.316,2.9-2.654,4.312-4.039L225.872,337.015z M274.676,298.611
	c0.201-0.533,0.234-0.934,0.101-1.2l-0.95-0.8c-7.834-4.268-18.752-8.451-32.753-12.552c-10.056-2.985-18.495-5.073-25.327-6.27
	c1.084-0.298,2.175-0.607,3.274-0.931c2.568-0.756,5.03-1.542,7.41-2.351c4.863,0.522,12.769,1.937,23.743,4.251l27.402,6
	c-1.866,12.834-3.566,23.019-5.1,30.553c-3.037,1.15-6.048,2.121-9.033,2.932C269.046,309.763,272.798,303.212,274.676,298.611z"/>
</svg>
