<?xml version="1.0" encoding="utf-8"?>
<!-- Generator: Adobe Illustrator 16.0.0, SVG Export Plug-In . SVG Version: 6.00 Build 0)  -->
<!DOCTYPE svg PUBLIC "-//W3C//DTD SVG 1.1//EN" "http://www.w3.org/Graphics/SVG/1.1/DTD/svg11.dtd">
<svg version="1.1" id="图层_1" xmlns="http://www.w3.org/2000/svg" xmlns:xlink="http://www.w3.org/1999/xlink" x="0px" y="0px"
	 width="307px" height="271px" viewBox="0 0 307 271" enable-background="new 0 0 307 271" xml:space="preserve">
<path d="M296.674,129.876c6.198-15.531,8.932-29.611,8.198-42.242c-0.866-15.364-3.583-29.578-8.147-42.643
	c-4.066-11.564-7.699-17.763-10.898-18.596c-1.499-0.4-3.266,0.55-5.299,2.849c-2.133,2.433-4.399,6.166-6.799,11.198
	c-6.365,13.397-10.949,22.063-13.748,25.995c-1.125,1.576-2.545,3.311-4.238,5.194c-0.588-14.253-1.889-25.072-3.909-32.439
	c-2.899-10.564-8.166-19.413-15.797-26.545c-7.634-7.132-18.447-11.265-32.444-12.398c-13.464-1.1-25.445,0.833-35.943,5.799
	c-10.197,4.832-19.896,11.781-29.095,20.846c-7.699,7.565-17.114,18.78-28.245,33.644c-7.398,9.832-14.697,17.53-21.896,23.096
	c-7.265,5.565-16.68,10.698-28.245,15.397c-12.864,5.232-21.396,12.031-25.595,20.396c-3.193,6.416-3.786,13.649-1.795,21.694
	c-1.137,0.783-2.188,1.566-3.154,2.352c-4.499,3.666-10.348,12.414-17.547,26.245c-7.3,14.132-11.199,24.464-11.699,30.995
	c-0.7,9.031,0.3,19.946,3,32.744c3.133,14.93,7.632,26.045,13.498,33.344c1.533,1.866,2.633,2.6,3.299,2.199
	c0.667-0.434,1.483-2.416,2.45-5.949c2.466-9.031,5.565-18.979,9.298-29.844c4.866-14.331,8.598-23.33,11.198-26.995
	c-0.8,4.065-0.8,8.147,0,12.247c0.433,2.268,0.85,3.518,1.25,3.75c0.466,0.333,1.366-0.217,2.699-1.65
	c1.716-1.822,4.589-5.679,8.614-11.56c-1.342,8.601-2.015,14.974-2.015,19.108c0,3.565,0.533,6.049,1.6,7.449
	c0.7,0.865,2.75,2.231,6.149,4.099c5.232,2.899,8.215,4.017,8.948,3.35c0.5-0.433-0.067-2.216-1.7-5.349
	c-1.233-2.367-2.15-4.566-2.75-6.6c-0.333-0.967,0.25-6.183,1.75-15.646c1.4-8.6,2.433-14.297,3.1-17.098
	c0.066-0.267,3.482-3.133,10.248-8.599c0.413-0.336,0.815-0.662,1.208-0.979l6.191,2.848l-3.2,4.682
	c-3.566,5-5.565,8.098-5.999,9.299c-0.7,1.933-0.917,6.115-0.65,12.547c0.233,6.565,0.833,10.3,1.8,11.199
	c1,0.933,2.516,1.948,4.549,3.049l5.149,2.648c3.966,2,6.182,2.7,6.649,2.1c0.433-0.565-0.55-2.715-2.95-6.447l-3.799-5.999
	c-0.133-0.399-0.033-2.767,0.3-7.099l0.75-7.25c0.133-0.365,1.183-2.032,3.149-4.998l6.249-9.299l6.949,3.101
	c4.09,1.487,8.282,2.391,12.574,2.726c1.545,2.053,3.246,3.982,5.123,5.772c5.666,5.364,12.481,9.099,20.446,11.198
	c16.963,4.498,32.377,3.898,46.241-1.801c6.299-2.6,11.266-5.998,14.897-10.197c0.084-0.097,0.152-0.195,0.232-0.293l23.178-1.76
	c1.368,2.035,2.99,4.313,4.885,6.853c0.832,1.166,0.166,6.131-2,14.896c-2.232,9.064-4.383,14.531-6.449,16.396l-4.748,4.35
	c-3.434,3.266-4.999,5.149-4.699,5.648l8.1-0.249c6.998-0.935,10.897-1.8,11.696-2.601c0.435-0.434,1.302-2.267,2.601-5.498
	l5-12.498l6.348-14.248c1.134-2.633,1.351-4.916,0.65-6.849c-0.334-0.967-1.384-2.601-3.149-4.899l-1.8-2.448
	c-0.28-0.384-0.549-0.753-0.813-1.121l4.448-0.646c0.839,0.904,1.689,1.773,2.564,2.565l2.049,1.851
	c0.399,0.467,0.351,4.364-0.149,11.696l-1.101,13.147l-1.85,4.05c-1.466,2.565-1.982,3.948-1.55,4.149
	c0.433,0.199,2.185-0.617,5.249-2.451c2.133-1.198,3.564-2.6,4.3-4.198c1.601-3.565,3.282-7.716,5.05-12.447
	c2.666-7.299,4.133-12.599,4.397-15.896c0.065-1.135-0.435-2.217-1.5-3.25l-3.05-2.433c17.574-3.836,28.133-10.735,31.646-20.714
	c3.136-8.997,0.251-19.005-8.629-30.021C290.904,142.658,293.95,136.658,296.674,129.876z"/>
</svg>
