<?xml version="1.0" encoding="utf-8"?>
<!-- Generator: Adobe Illustrator 16.0.0, SVG Export Plug-In . SVG Version: 6.00 Build 0)  -->
<!DOCTYPE svg PUBLIC "-//W3C//DTD SVG 1.1//EN" "http://www.w3.org/Graphics/SVG/1.1/DTD/svg11.dtd">
<svg version="1.1" id="图层_1" xmlns="http://www.w3.org/2000/svg" xmlns:xlink="http://www.w3.org/1999/xlink" x="0px" y="0px"
	 width="294px" height="307px" viewBox="0 0 294 307" enable-background="new 0 0 294 307" xml:space="preserve">
<path d="M292.85,98.4c0.101-0.333,0-0.566-0.3-0.7c-5.466-2.5-10.75-5.567-15.85-9.2c-5.8-4.133-9.184-7.517-10.15-10.15
	c0-10.467,1.134-28.3,3.4-53.5l8.75-10.95l9.7-12.25c0.6-0.833,0.816-1.35,0.649-1.55l-1.6,0.15
	c-11.3,3.667-24.983,9.184-41.05,16.55l-0.25,0.2c-4.234,6.4-15.283,15.95-33.15,28.65L212.75,46c-1.367,8.3-1.883,24.333-1.55,48.1
	l0.2,0.45c4.899,3.333,10.649,7.65,17.25,12.95l0.5,0.1c4.434-1.533,9.25-2.95,14.449-4.25c-1.434,1.867-4.116,4.566-8.05,8.1
	c-0.267,0.2-0.3,0.433-0.1,0.7c2.866,3.867,5.017,6.95,6.45,9.25c0.166,0.2,0.366,0.283,0.6,0.25c2.633-0.767,5-1.233,7.1-1.4
	c-0.967,0.8-3.05,2.117-6.25,3.95c-0.266,0.1-0.366,0.283-0.3,0.55l0.9,7.35c0.066,0.3,0.216,0.466,0.45,0.5
	c1.166,0.167,2.416,0.55,3.75,1.15c-0.834,0.533-2.084,1.017-3.75,1.45c-0.268,0.066-0.4,0.216-0.4,0.45
	c-0.934,7.267-3.983,13.617-9.15,19.05c-5.5,5.767-11.699,8.5-18.6,8.2l-0.5,0.199c-2.639,3.77-5.385,7.155-8.23,10.185
	c-0.124-0.076-0.244-0.16-0.369-0.234c-3.667-2.167-7.783-3.366-12.351-3.6c-4.6-0.267-9.45,0.45-14.55,2.149
	c-9.3,3.101-15.95,4.717-19.95,4.851c-6.521,0.195-13.124-1.691-19.809-5.644c3.071,0.469,6.654,0.271,10.759-0.606
	c5.5-1.2,9.55-3.3,12.15-6.3c3.633-4.167,4.967-9.084,4-14.75c-0.967-5.633-3.934-10.466-8.9-14.5c-1.334-1.1-1.717-0.883-1.15,0.65
	c1.9,4.9,2.551,9.434,1.95,13.6c-0.6,4.267-2.45,7.867-5.55,10.8c-3.1,2.933-6.85,4.667-11.25,5.2
	c-3.956,0.514-7.774-0.038-11.457-1.632c-1.868-2.049-3.551-4.368-5.077-6.915c0.777-0.668,1.458-1.336,2.034-2.004
	c1.5-1.733,2.767-3.966,3.8-6.7c2.867-7.667,6.034-13.233,9.5-16.7c2.5-2.534,5.55-4.217,9.15-5.05l0.75-0.55
	c0.033-0.267-0.184-0.517-0.65-0.75c-1.992-1.111-4.109-1.673-6.352-1.69c8.419-3.984,18.21-9.394,29.402-16.26
	c0.268-0.2,0.334-0.417,0.2-0.65c-0.634-1.233-1.149-2.767-1.55-4.6l5.95,0.15l1.149-0.15c0.134-0.2,0.033-0.5-0.3-0.9
	c-1.733-2.033-3.066-3.917-4-5.65c2.333,0.833,5.134,1.566,8.4,2.2l0.5-0.15c2.7-2.633,5.7-6.75,9-12.35
	c2.866-4.933,5.216-9.633,7.05-14.1c0.166-0.3,0.084-0.534-0.25-0.7c-1.6-0.733-3.184-1.75-4.75-3.05c2.4-0.067,4.967-0.45,7.7-1.15
	l0.35-0.3c3.7-8.2,7.134-18.85,10.3-31.95c2.467-10.3,4.051-18.6,4.75-24.9c0.101-0.867-0.016-1.35-0.35-1.45
	c-0.3-0.1-0.666,0.183-1.1,0.85c-3.4,5.034-7.717,9.5-12.95,13.4c-4.534,3.4-9.284,6.033-14.25,7.9l-8.4,3.25
	c-4.167,1.667-7.45,3.15-9.85,4.45c-0.233,0.134-0.333,0.317-0.3,0.55l0.75,3.2l0.649,4.35c-2.3-1.767-4.55-3.167-6.75-4.2
	c-0.233-0.1-0.433-0.1-0.6,0c-11.3,8.1-19.534,14.933-24.7,20.5c-4.042,4.359-7.292,8.917-9.752,13.671
	c-0.318-1.985-0.807-3.991-1.498-6.021c-0.758-2.134-1.617-4.042-2.564-5.751c3.058-5.645,4.532-11.444,4.415-17.399
	c-0.167-8.434-3.333-15.717-9.5-21.85c-6.133-6.1-13.434-9.333-21.9-9.7c-12-0.5-21.684,3.55-29.05,12.15
	c-3.233,3.8-5.483,8.017-6.75,12.65c-1.3,4.667-1.417,9.216-0.35,13.65c0.133,0.566,0.333,0.867,0.6,0.9s0.5-0.25,0.7-0.85
	c2.3-6.767,6.65-11.216,13.05-13.35c6.467-2.133,11.65-0.75,15.55,4.15c2.799,3.527,4.372,7.745,4.75,12.636
	c-0.669,3.597-1.831,7.053-3.5,10.364c-2.167,4.233-4.967,7.866-8.4,10.9c-0.862,0.766-1.678,1.53-2.454,2.293
	C83.334,75.4,81.762,71.02,78.85,66.5c-3.3-5.1-7-8.283-11.1-9.55l-1.2-0.1c-0.167,0.167-0.066,0.566,0.3,1.2
	c2.967,5.134,4.35,10.4,4.15,15.8c-0.2,4.566-1.45,8.633-3.75,12.2c-0.703,1.081-1.317,2.143-1.891,3.197
	c-2.584-8.042-6.526-15.48-11.859-22.296C48.733,60.883,42.267,54.566,34.1,48l-0.7-0.05c-2.566,1.767-4.433,2.8-5.6,3.1l1.4-3.35
	l1.1-3.6c0.1-0.267,0.034-0.467-0.2-0.6c-4.533-3.5-8.967-7.533-13.3-12.1C9.933,24.167,5.067,17.283,2.2,10.75
	C1.867,10.017,1.55,9.667,1.25,9.7c-0.3,0.066-0.483,0.517-0.55,1.35c-0.8,10.733-0.583,21.067,0.65,31
	C2.283,49.283,3.833,56.767,6,64.5l0.5,0.35l4.3,0.2c1.6,0.2,3.083,0.583,4.45,1.15c-0.833,0.667-3.083,2-6.75,4
	c-0.233,0.167-0.317,0.366-0.25,0.6c1.6,6.434,3.383,12.817,5.35,19.15c1.9,6.1,3.65,11.15,5.25,15.15
	c0.1,0.3,0.316,0.417,0.65,0.35l3.25-0.95l3.55-0.75c-1.167,1.433-2.25,3.2-3.25,5.3c-0.233,0.434-0.267,0.75-0.1,0.95l0.85,0.05
	c2.6-0.867,4.967-1.433,7.1-1.7c-1.066,1.533-1.867,2.967-2.4,4.3c-0.133,0.267-0.083,0.483,0.15,0.65
	c2.934,2.233,6.934,4.817,12,7.75c3.877,2.205,7.379,4.044,10.537,5.55c-3.082-0.04-5.813,0.622-8.187,2
	c-0.533,0.333-0.783,0.617-0.75,0.85c0.033,0.267,0.383,0.45,1.05,0.55c5.833,0.9,10.2,3,13.1,6.3
	c2.733,3.167,4.883,8.35,6.45,15.55c0.633,2.933,1.533,5.066,2.7,6.4c1.034,1.2,3.117,2.566,6.25,4.1
	c2.967,1.434,6.534,2.75,10.7,3.95c3.303,0.967,6.06,1.551,8.294,1.767c0.203,3.572,0.091,6.456-0.344,8.634
	c-0.534,2.466-1.5,4.25-2.9,5.35c-2.1,1.667-4.55,2.184-7.35,1.55c-2.633-0.6-4.934-2.033-6.9-4.3c-0.466-0.5-0.85-0.716-1.15-0.649
	c-0.3,0.1-0.4,0.482-0.3,1.149c0.867,6.134,3.917,10.217,9.15,12.25c1.928,0.738,3.824,1.048,5.688,0.944
	c-0.093,1.548-0.163,3.089-0.203,4.62c-0.596,0.425-1.215,0.841-1.886,1.235c-3.9,2.268-8.067,3.45-12.5,3.551
	c-6.8,0.166-11.583-2.884-14.35-9.15c-0.3-0.767-0.633-1.133-1-1.1c-0.367,0-0.6,0.434-0.7,1.3
	c-0.667,6.033,0.417,11.149,3.25,15.35c2.7,4,6.833,6.917,12.4,8.75c5.264,1.755,10.597,2.134,15.996,1.183
	c1.079,7.299,2.81,13.857,5.19,19.677c-1.493,0.477-3.017,0.942-4.586,1.391c-5.6,1.601-10.466,2.733-14.6,3.4
	c-6.4,1-10.167,3.583-11.3,7.75c-1,3.833,0.283,6.966,3.85,9.399c2.067,1.367,4.483,2.15,7.25,2.351
	c3.2,0.233,6.167-0.384,8.9-1.851c4.025-2.171,9.024-3.693,14.977-4.58c0.054,2.099-0.059,4.378-0.345,6.848
	c-0.456,0.335-0.964,0.6-1.532,0.783c-2.167,0.699-4.7,0.232-7.6-1.4c-1.233-0.666-1.55-0.334-0.95,1
	c0.933,2.033,2.433,3.633,4.5,4.8c1.438,0.792,2.94,1.261,4.5,1.431c-0.073,0.356-0.137,0.703-0.216,1.066
	c-0.755,0.707-1.745,1.277-2.984,1.703c-2.067,0.666-3.9,0.65-5.5-0.05c-0.733-0.3-1.05-0.101-0.95,0.6
	c0.267,1.534,1.383,2.817,3.35,3.851c1.529,0.805,2.948,1.17,4.262,1.111c-1.809,6.238-3.746,10.356-5.812,12.338l-3.75,3.7
	c-1.533,1.866-2.217,3.65-2.05,5.351c0.2,1.866,1.2,3.467,3,4.8c1.733,1.267,3.85,2.033,6.35,2.3c3.8,0.4,6.9-0.2,9.3-1.8
	c2.667-1.767,5.083-5.167,7.25-10.2l6.6-16.85c0.778-2.148,1.458-4.069,2.056-5.804c1.364,0.522,2.826,0.83,4.395,0.903
	c0.6,0.033,0.95-0.066,1.05-0.3c0.067-0.267-0.133-0.583-0.6-0.95c-1.438-1.058-2.6-2.293-3.489-3.703
	c0.52-1.616,0.918-2.953,1.188-3.997c0.881-3.581,1.282-6.515,1.206-8.804c2.182-0.117,4.01-0.474,5.444-1.096
	c2.3-1,3.9-2.717,4.8-5.15c1.7-4.666,3.55-9.25,5.55-13.75c0.252-0.568,0.529-1.183,0.819-1.82c1.199-0.165,2.419-0.365,3.681-0.63
	c1.639-0.342,3.489-0.819,5.528-1.42c1.71,2.547,4.099,5.12,7.171,7.72c3.167,2.667,6.816,5.15,10.95,7.45
	c0.764,0.394,1.321,0.771,1.699,1.131c-1.149,1.891-3.097,3.415-5.849,4.569c-3.033,1.233-5.9,1.584-8.601,1.05
	c-0.466-0.1-0.767-0.033-0.899,0.2c-0.134,0.2-0.066,0.5,0.199,0.9c1.467,2.166,3.834,3.416,7.101,3.75
	c2.729,0.267,5.314-0.144,7.753-1.225c-0.192,0.939-0.408,1.926-0.653,2.975l-2.399,9.399c-0.867,3.333-1.7,5.667-2.5,7
	c-0.801,1.333-2.167,2.65-4.101,3.95c-3.233,2.2-5,4.267-5.3,6.2c-0.334,2.333,0.267,4.3,1.8,5.899c1.434,1.5,3.45,2.417,6.05,2.75
	c3.4,0.434,6.566,0.018,9.5-1.25c3.101-1.333,5.217-3.316,6.351-5.949l7.899-18.75c3.301-7.867,5.801-13.467,7.5-16.801
	c0.768-1.5,1.167-2.766,1.2-3.8c0-1.1-0.399-2.35-1.2-3.75c-2.434-4.2-4.083-7.667-4.949-10.399
	c-0.986-3.103-1.542-6.749-1.67-10.936c0.867,1.07,1.785,2.133,2.77,3.186c6.767,7.3,15.934,13.732,27.5,19.3
	c1.133,0.533,1.983,1.267,2.55,2.2c0.733,1.232,1.184,3.066,1.351,5.5c0.633,8.934,0.717,15.566,0.25,19.899
	c-0.801,7.3-3.134,13.483-7,18.55c-2.533,3.301-2.717,6.367-0.551,9.2c2.101,2.8,5.518,4.167,10.25,4.101
	c2.566-0.033,4.801-0.566,6.7-1.601c1.9-1.033,3.3-2.517,4.2-4.45c1.6-3.366,3.85-11.633,6.75-24.8l2.24-11.02
	c2.978,1.172,6.48,1.246,10.51,0.22c3.434-0.9,6.35-1.233,8.75-1c2.334,0.2,4.35,0.916,6.05,2.15
	c0.733,0.533,1.217,0.666,1.45,0.399c0.233-0.233,0.084-0.716-0.45-1.45c-1.667-2.266-3.417-3.816-5.25-4.649
	c-1.8-0.8-4.183-1.15-7.149-1.05c-3.867,0.1-7.117-0.551-9.75-1.95c-0.875-0.47-1.646-1.021-2.336-1.641l1.436-7.06
	c0.467-2.3,0.483-4.15,0.05-5.55c-0.333-1-1.134-2.3-2.399-3.9c-5.4-6.667-9.533-13.116-12.4-19.35c-2.767-6-4.9-12.983-6.4-20.95
	c-1.033-5.533-2.916-10.434-5.649-14.7c-0.811-1.271-1.678-2.44-2.59-3.534c2.538-0.812,5.452-1.297,8.79-1.416
	c4.033-0.166,7.467,0.25,10.3,1.25c0.3,0.066,0.5-0.033,0.6-0.3c3.233-6.167,8.917-9.95,17.05-11.35c4.667-0.833,12-0.851,22-0.05
	l0.4-0.15c1.9-1.6,3.867-3.95,5.9-7.05c1.967-3.034,3.467-5.95,4.5-8.75c0.066-0.267,0-0.467-0.2-0.6
	c-3.167-2.567-6.7-4.75-10.601-6.55c4.533-2.633,9-4.816,13.4-6.55c0.4-0.133,0.483-0.4,0.25-0.8c-0.733-1.4-0.783-2.817-0.15-4.25
	c0.634-1.4,1.667-2.233,3.101-2.5c0.433-0.067,0.6-0.3,0.5-0.7c-1.034-4.333-1.3-9.483-0.8-15.45
	C289.9,107.883,291.05,102.667,292.85,98.4z"/>
</svg>
