<?xml version="1.0" encoding="utf-8"?>
<!-- Generator: Adobe Illustrator 16.0.0, SVG Export Plug-In . SVG Version: 6.00 Build 0)  -->
<!DOCTYPE svg PUBLIC "-//W3C//DTD SVG 1.1//EN" "http://www.w3.org/Graphics/SVG/1.1/DTD/svg11.dtd">
<svg version="1.1" id="图层_1" xmlns="http://www.w3.org/2000/svg" xmlns:xlink="http://www.w3.org/1999/xlink" x="0px" y="0px"
	 width="306px" height="281px" viewBox="0 0 306 281" enable-background="new 0 0 306 281" xml:space="preserve">
<path d="M304.063,46.5c-0.399-18.313-1.498-27.987-3.297-29.019c-1.631-0.965-8.557,3.796-20.777,14.285
	c-11.854,10.156-20.328,18.38-25.423,24.674l-1.499,1.948c-0.266,0.433-0.383,1.032-0.35,1.798
	c1.166,19.379-1.781,37.293-8.84,53.743c-8.151,19.01-20.057,30.139-35.692,33.435c-0.174-0.106-0.341-0.218-0.519-0.32
	c-7.959-4.629-17.682-5.461-29.17-2.498c-8.357,2.165-16.682,2.115-24.973-0.149c-5.422-1.479-10.138-3.637-14.163-6.456
	c0.221-3.908,0.172-7.782-0.152-11.622c6.987-6.808,11.563-14.897,13.716-24.277c1.741-7.673,1.561-15.171-0.507-22.5
	c2.805-0.752,5.698-1.557,8.698-2.423c14.784-4.229,23.725-7.675,26.821-10.339c3.163-2.73,9.157-12.503,17.981-29.318
	c8.856-16.849,13.968-28.22,15.333-34.114c0.3-1.332,0.333-2.181,0.101-2.547c-0.301-0.5-1.133-0.766-2.498-0.799
	c-6.826-0.2-18.863,2.514-36.111,8.142c-17.715,5.76-29.402,10.972-35.063,15.633c-3.596,2.963-8.175,10.639-13.735,23.025
	c-1.166,2.607-2.292,5.24-3.392,7.89c-8.369-3.755-17.658-5.208-27.875-4.344c-9.661,0.786-17.671,3.354-24.046,7.683
	c-0.993,0.572-2.177,1.38-3.575,2.457c-2.399,1.849-4.929,4.073-7.591,6.673c-1.352-7.082-2.96-14.248-4.846-21.507
	c-2.198-8.491-3.879-13.585-5.045-15.284c-1.865-2.73-10.422-7.975-25.672-15.733C16.786,6.909,6.98,2.713,2.484,2.047l-1.648,0.1
	c-0.267,0.2-0.433,0.633-0.5,1.299C0.07,7.708,2.801,18.996,8.528,37.31C14.488,56.256,19,67.045,22.063,69.675
	c1.365,1.166,6.127,3.263,14.285,6.293c7.346,2.713,13.422,4.706,18.257,5.996c-2.329,3.471-3.506,6.286-3.523,8.439
	c-0.06,3.559,3.101,8.451,9.46,14.669c-0.495,4.371-2.326,8.953-5.515,13.75c-3.463,5.194-8.174,10.156-14.135,14.884
	c-6.926,5.527-13.785,11.987-20.578,19.379c-7.625,8.291-12.287,14.801-13.985,19.529c-1.998,5.561-2.348,14.219-1.049,25.973
	c1.265,11.654,3.113,17.598,5.544,17.83c0.5,0.067,2.73-2.396,6.693-7.392c6.06-7.658,12.803-15.267,20.229-22.825
	c1.631-1.698,2.397-3.43,2.297-5.195c-0.433-8.99,0.333-18.18,2.298-27.57c1.668-7.853,3.749-13.944,6.237-18.293
	c1.947-1.181,4.141-2.489,6.599-3.933c5.541-3.253,9.681-6.806,12.448-10.651c0.146,0.598,0.329,1.151,0.588,1.611
	c0.072,0.125,0.154,0.239,0.23,0.359c-0.482,2.278-0.711,3.996-0.68,5.135c0,1.598,0.433,3.063,1.298,4.395
	c1.099,1.698,3.629,3.479,7.592,5.344c4.196,1.965,8.625,3.313,13.286,4.046c1.82,0.289,3.578,0.452,5.281,0.501
	c-0.3,2.485-1.625,7.074-3.982,13.783c-2.338,6.646-3.611,12.141-3.845,16.512c-1.174,0.491-2.396,0.994-3.697,1.519
	c-4.395,1.766-6.826,3.014-7.292,3.746c-1.998,3.164-4.895,10.656-8.691,22.477c-3.829,12.054-5.277,18.563-4.345,19.529
	c0.7,0.67,6.916-0.519,18.611-3.55c-1.451,4.363-3.934,9.949-7.473,16.785c-4.262,8.259-8.042,14.218-11.338,17.882
	c-3.497,3.929-4.445,7.475-2.847,10.638c1.499,3.03,4.562,4.528,9.19,4.495c3.396,0,6.093-0.449,8.091-1.348
	c2.464-1.133,4.595-3.197,6.393-6.193c10.256-16.982,17.881-29.003,22.875-36.063c0.833-1.165,1.482-3.379,1.948-6.643
	c0.508-3.891,1.234-7.594,2.17-11.115c0.966-1.126,1.913-2.295,2.85-3.488c1.142,0.897,2.65,1.721,4.531,2.47
	c0.314,1.615,0.627,3.323,0.938,5.142c0.866,5.228,1.398,9.406,1.598,12.536c0.366,5.528-0.932,13.969-3.896,25.323
	c-0.833,3.23-2.064,6.66-3.696,10.289c-1.965,4.295-3.896,7.426-5.794,9.39c-2.431,2.497-3.18,5.145-2.248,7.942
	c1.032,3.029,3.779,4.928,8.241,5.693l9.041-0.3c2.73-0.866,4.928-2.414,6.593-4.646c2.331-3.129,5.677-10.405,10.039-21.826
	l9.44-26.521c0.999-2.931,1.499-5.678,1.499-8.241v-13.34c2.677,3.616,6.442,7.674,11.338,12.19
	c0.766,0.699,1.282,1.315,1.549,1.849c0.365,0.766,0.516,1.748,0.449,2.946c-0.3,4.43-1.133,9.407-2.498,14.935
	c-1.231,5.095-2.496,9.023-3.795,11.787l-0.899,1.749l-0.999,0.998c-4.662,3.763-6.626,7.309-5.894,10.639
	c0.632,2.964,2.914,4.645,6.843,5.045c5.127,0.533,9.855-0.4,14.185-2.797c4.296-2.397,7.06-5.578,8.291-9.54l5.145-16.782
	c2.464-8.025,4.362-13.869,5.694-17.531c0.666-1.765,0.166-3.912-1.498-6.443c-1.199-1.798-2.165-4.029-2.897-6.692
	c-0.535-1.911-0.871-3.763-1.017-5.557c1.376,1.507,2.832,2.969,4.413,4.358c5.694,4.994,13.152,9.506,22.376,13.535
	c2.23,0.965,3.43,2.68,3.596,5.145c1.133,18.547-1.299,31.5-7.292,38.858c-2.464,2.964-3.13,5.694-1.997,8.19
	c1.165,2.631,4.129,4.296,8.891,4.995c4.129,0.633,8.074-0.183,11.837-2.447c4.296-2.597,7.025-6.51,8.19-11.737l3.547-18.78
	c2.164-11.688,3.446-18.464,3.846-20.328c1.166-5.527,0.316-9.573-2.547-12.138c-3.696-3.329-7.393-9.605-11.088-18.829
	c-3.463-8.69-5.678-16.716-6.644-24.074c-0.651-4.882-2.118-9.103-4.398-12.666c17.816-2.865,35.033-11.468,51.647-25.843
	c16.649-14.384,27.787-30.167,33.415-47.349C303.746,76.984,304.463,64.98,304.063,46.5z"/>
</svg>
