<?xml version="1.0" encoding="utf-8"?>
<!-- Generator: Adobe Illustrator 16.0.0, SVG Export Plug-In . SVG Version: 6.00 Build 0)  -->
<!DOCTYPE svg PUBLIC "-//W3C//DTD SVG 1.1//EN" "http://www.w3.org/Graphics/SVG/1.1/DTD/svg11.dtd">
<svg version="1.1" id="图层_1" xmlns="http://www.w3.org/2000/svg" xmlns:xlink="http://www.w3.org/1999/xlink" x="0px" y="0px"
	 width="483px" height="442px" viewBox="0 0 483 442" enable-background="new 0 0 483 442" xml:space="preserve">
<path d="M480.627,106.412c0.434-0.533,0.301-0.883-0.399-1.05c-3.634-0.767-8.368-1.317-14.202-1.65
	c-4.271-0.245-8.236-0.314-11.931-0.226c4.834-13.74,6.385-28.548,4.63-44.429c-1.367-12.101-8.268-25.52-20.702-40.254
	c-4.9-5.801-9.651-10.518-14.252-14.152c-4.567-3.567-7.751-5.084-9.551-4.55c-1.767,0.533-4.434,5.25-8.001,14.151
	c-1.42,3.508-2.706,6.961-3.872,10.366c-11.128,0.15-22.272,3.805-33.432,10.986c-12.868,8.234-21.92,19.036-27.153,32.404
	c-5.4,13.735-7.918,27.386-7.551,40.955c0.008,0.298,0.025,0.584,0.035,0.879l-20.289,2.349c-0.443-1.929-1.246-3.615-2.449-5.028
	c-1.7-2.034-3.934-3.2-6.701-3.5l-22.068-0.916c3.702-5.255,7.376-10.857,11.018-16.836c6.234-10.268,10.885-19.286,13.952-27.053
	c3.1-7.867,3.783-12.518,2.05-13.951c-1.367-1.134-4.5-1.617-9.4-1.45c-5.334,0.2-11.668,1.184-19.003,2.95
	c-17.497,4.18-35.665,11.38-54.504,21.6c-5.973-1.024-13.38-0.85-22.254,0.553c-7.764,1.245-14.049,3.037-18.907,5.356
	c-8.583-4.553-19.729-7.841-33.449-9.857c-13.402-1.967-21.286-1.783-23.653,0.55c-1.034,1.033-1.05,4.15-0.05,9.351
	c1,5.367,2.817,11.451,5.45,18.252c5.442,14.089,11.941,25.498,19.494,34.231l-14.493,0.772l-12.159,0.834
	c-2.132-13.066-7.989-25.164-17.595-36.288C98.567,79.459,87.25,71.375,75.281,67.508c-11.586-3.732-24.852-3.836-39.786-0.333
	c-0.73-2.334-1.515-4.719-2.369-7.167c-3.267-9.435-5.734-14.202-7.401-14.302c-0.867-0.066-2.567,1.317-5.101,4.15
	c-2.733,3.034-5.45,6.718-8.151,11.052C5.14,72.608,1.106,83.676,0.373,94.111c-0.934,13.334,1.6,27.136,7.601,41.405
	c6.667,15.868,15.985,27.653,27.953,35.354c6.488,4.196,12.953,7.542,19.394,10.054c6.637,14.94,11.125,29.478,13.41,43.603
	c2.4,14.769,2.3,28.336-0.3,40.705c-0.1,0.467,0.066,0.717,0.5,0.75c12.768,1.867,25.069,8,36.904,18.402
	c13.135,11.501,21.819,25.318,26.053,41.454c0.133,0.434,0.383,0.583,0.75,0.45c9.968-2.801,19.169-4.668,27.604-5.601
	c8.255-0.929,15-0.854,20.272,0.198c-4.277,5.099-6.322,10.982-6.121,17.654c0.2,8.268,3.117,15.301,8.751,21.102
	c1.898,1.963,3.927,3.58,6.083,4.861c-2.202,4.781-3.256,9.66-3.133,14.641c0.167,5.4,1.667,10.352,4.5,14.852
	c2.701,4.301,6.217,7.718,10.551,10.252c4.5,2.634,9.168,3.9,14.001,3.8c3.399-0.066,6.555-0.533,9.489-1.366
	c1.614,6.334,4.722,11.204,9.364,14.568c4.967,3.634,11.5,5.4,19.602,5.3c1.068-0.012,2.124-0.104,3.17-0.266
	c5.349,5.778,11.948,9.718,19.832,11.768c8.368,2.167,16.535,1.8,24.504-1.101c8.268-3,14.935-7.917,20.002-14.751
	c2.859-3.893,4.888-7.996,6.094-12.308c10.783-3.708,18.243-10.6,22.359-20.696c4-9.835,3.75-19.253-0.75-28.253
	c-0.2-0.4-0.5-0.467-0.9-0.201c-3.2,2.168-7.634,4.385-13.302,6.651c-5.084,2.002-9.761,3.52-14.058,4.583
	c-2.59-4.39-6.066-8.104-10.444-11.134c-3.9-2.714-8.176-4.612-12.81-5.734c0.918-3.111,2.286-6.073,4.158-8.867l0.1-0.601
	c-0.1-0.232-0.3-0.35-0.6-0.35c-3.268-0.133-6.768,0.551-10.502,2.051c-4.176,1.67-7.37,4.027-9.599,7.06
	c-3.938,0.587-7.807,1.704-11.603,3.392c-6.513,2.88-11.521,6.817-15.063,11.785c-3.542-0.397-7.029-0.122-10.463,0.81
	c-0.688-2.745-1.659-5.264-2.928-7.544c-2.543-4.583-6.358-8.343-11.412-11.3c1.941-3.891,2.851-8.091,2.711-12.604
	c-0.018-0.536-0.05-1.065-0.09-1.591l3.19,1.541l0.75-0.1c8.3-7.302,17.769-13.502,28.403-18.603
	c10.968-5.234,22.369-8.885,34.204-10.952c10.835-1.866,21.303-2.266,31.403-1.199c9.835,1.033,18.069,3.334,24.703,6.9
	c0.366,0.233,0.65,0.15,0.85-0.25c10.435-20.235,24.887-36.621,43.355-49.155c18.335-12.435,36.12-18.069,53.355-16.902
	c0.534,0.001,0.768-0.267,0.7-0.8c-6.034-29.303-6.733-55.773-2.1-79.409C455.458,144.75,465.393,124.081,480.627,106.412z"/>
</svg>
