<?xml version="1.0" encoding="utf-8"?>
<!-- Generator: Adobe Illustrator 16.0.0, SVG Export Plug-In . SVG Version: 6.00 Build 0)  -->
<!DOCTYPE svg PUBLIC "-//W3C//DTD SVG 1.1//EN" "http://www.w3.org/Graphics/SVG/1.1/DTD/svg11.dtd">
<svg version="1.1" id="图层_1" xmlns="http://www.w3.org/2000/svg" xmlns:xlink="http://www.w3.org/1999/xlink" x="0px" y="0px"
	 width="613px" height="495px" viewBox="0 0 613 495" enable-background="new 0 0 613 495" xml:space="preserve">
<path d="M605.496,281.955c1.2-17.559-4.247-45.511-16.342-83.858c-6.263-19.857-14.159-41.879-23.688-66.067
	c-8.129-20.523-18.74-39.913-31.834-58.17c-21.622-30.152-46.41-51.241-74.362-63.268c-25.587-10.995-55.872-13.477-90.854-7.446
	c-10.994,1.932-21.806,4.598-32.434,7.996c-6.484,2.314-10.524,3.762-12.138,4.348c-3.071-0.397-5.945-0.62-8.602-0.65l-7.396,0.6
	c-6.563,1.199-13.293,6.197-20.189,14.992c-5.597,7.13-13.443,15.659-23.538,25.587c-9.729,9.529-17.075,16.009-22.039,19.44
	c-7.363,5.131-13.06,11.011-17.091,17.641c-4.064,6.696-5.98,13.46-5.747,20.29c0.11,3.157,0.6,6.207,1.455,9.153
	c-9.874,16.362-16.379,32.8-19.496,49.317c-2.807,14.842-3.027,30.368-0.683,46.569c-0.091,0.065-0.188,0.119-0.267,0.208
	c-0.833,0.899-1.899,2.499-3.198,4.797c-2.266,3.932-4.148,8.446-5.647,13.543c-4.699,15.628-5.216,33.74-1.575,54.322
	c-0.158,0.233-0.318,0.462-0.474,0.7c-8.063,12.326-15.076,22.055-21.04,29.185c-9.962,11.994-18.407,18.874-25.337,20.64
	c-7.996,2.532-16.575,1.933-25.737-1.799c-15.726-6.463-31.634-21.623-47.726-45.477c-15.125-22.389-25.17-50.408-30.135-84.058
	c-1.532-10.495-2.482-20.923-2.849-31.284l-0.05-12.344c0.233-2.932-0.6-4.814-2.499-5.647c-2.232-1-4.348-0.083-6.347,2.749
	l-2.698,4.748c-2.132,3.998-4.215,8.329-6.247,12.993C12.196,196.498,7.432,211.79,4.4,227.582
	c-4.264,22.122-5.147,43.711-2.648,64.768c3.365,28.419,12.793,54.855,28.286,79.31c12.194,19.457,27.62,34.316,46.277,44.577
	c17.558,9.662,35.632,14.094,54.223,13.294c18.923-0.8,37.614-8.112,56.071-21.939c5.696-4.257,11.133-9.001,16.327-14.21
	c0.855,2.53,2.055,5.545,3.613,9.063c3.632,8.229,7.497,14.56,11.594,18.991c-2.499,1.266-5.414,3.182-8.746,5.747
	c-0.633,0.533-0.916,0.982-0.85,1.349c0.067,0.5,0.517,0.816,1.35,0.95l4.432,0.794l-2.433,2.154
	c-3.565,3.398-6.114,6.463-7.646,9.195c-0.466,0.767-0.583,1.333-0.35,1.699c0.2,0.333,0.75,0.5,1.649,0.5l13.515-0.521
	c-0.032,1.052-0.04,2.547-0.021,4.52c0.034,4.497,0.3,8.396,0.8,11.693c0.391,2.115,4.221,3.385,11.473,3.816
	c0.159,0.672,0.507,1.333,1.07,1.98c1.233,1.433,3.182,2.316,5.847,2.649l9.745-0.4c2.648-0.386,4.897-0.856,6.792-1.403
	c0.861,1.185,2.356,1.956,4.502,2.303c7.207,1.229,15.077,0.519,23.609-2.126l5.576-0.322c4.331-0.666,7.729-1.999,10.195-3.998
	c1.633-1.333,2.516-3.332,2.649-5.997l0.228-3.426l3.62,1.377c0.799,0.267,1.399,0.267,1.799,0s0.434-0.883,0.1-1.849l-3.998-11.345
	l10.894-1.249c0.8-0.067,1.283-0.316,1.449-0.75c0.167-0.434,0.051-0.966-0.35-1.6l-9.189-15.3l3.393-6.339l2.497-4.894
	c11.934,6.271,24.172,11.455,36.711,15.564l0.622,4.071l-7.796,11.545c-0.5,0.799-0.667,1.398-0.5,1.799
	c0.167,0.366,0.85,0.449,2.049,0.25l7.213-1.188l0.084,9.133c0.1,1,0.766,1.85,1.999,2.549c2.029,1.131,5.354,1.614,9.974,1.449
	l0.371,0.55c1.199,1.166,2.798,1.866,4.797,2.1c3.679,0.463,7.753,0.151,12.223-0.935c1.02,0.958,2.734,1.605,5.169,1.934l7.346,0.3
	c3.365-0.1,6.147-0.55,8.347-1.35c0.207-0.065,0.363-0.173,0.495-0.299l3.303-0.301c2.799-0.433,5.08-1.216,6.847-2.349
	c1.199-0.766,1.999-1.749,2.398-2.948l0.3-2.599l-0.172-7.421l4.819,0.874l1.35-0.149c0.267-0.301,0.366-0.85,0.3-1.649
	l-0.525-3.807c15.296,0.029,30.373-1.578,45.23-4.819c1.463,3.854,3.195,7.843,5.22,11.974l-10.994,11.994
	c-0.6,0.7-0.783,1.283-0.55,1.749c0.3,0.533,0.883,0.767,1.749,0.7l8.956-0.913l-2.01,6.859c-0.166,0.9-0.166,1.45,0,1.649
	l1.649,0.2l3.941-0.635l-0.044,9.08c0,1.966,0.316,3.332,0.95,4.099c2.008,2.429,7.128,3.547,15.34,3.362
	c0.237,0.765,0.579,1.419,1.052,1.935c0.366,0.467,0.949,0.899,1.749,1.3c1.999,0.966,5.697,1.632,11.095,1.999
	c7.416,0.513,13.784-0.458,19.128-2.883c0.536,0.58,1.212,0.987,2.061,1.184l9.046,0.749c5.83-0.166,10.978-1.532,15.442-4.098
	l1.299-1.149c0.15-0.194,0.275-0.408,0.399-0.623l4.198-1.026c3.266-1.1,5.897-2.599,7.896-4.497c0.732-0.7,1.299-2.05,1.699-4.049
	c0.3-1.365,0.466-2.682,0.499-3.947c0.069-2.036,0.1-3.774,0.098-5.255l2.852-0.492c2.731-0.866,4.498-2.332,5.297-4.398
	l0.015-0.194c0.569-0.222,1.722-0.703,3.483-1.454c2.565-1.666,4.115-4.148,4.648-7.446c0.411-2.719,0.62-5.03,0.647-6.979
	c3.819-0.008,6.759-0.278,8.798-0.817c0.433-0.166,0.749-0.449,0.949-0.849l-0.05-1.25l-2.749-4.848
	c-1.416-2.308-2.58-3.944-3.501-4.931c13.058-19.116,18.4-40.873,15.995-65.283c-0.767-8.096-2.366-15.992-4.798-23.688
	l-2.824-7.585c1.078-2.246,2.152-4.754,3.224-7.557C601.415,312.272,604.397,297.946,605.496,281.955z"/>
</svg>
