<?xml version="1.0" encoding="utf-8"?>
<!-- Generator: Adobe Illustrator 16.0.0, SVG Export Plug-In . SVG Version: 6.00 Build 0)  -->
<!DOCTYPE svg PUBLIC "-//W3C//DTD SVG 1.1//EN" "http://www.w3.org/Graphics/SVG/1.1/DTD/svg11.dtd">
<svg version="1.1" id="图层_1" xmlns="http://www.w3.org/2000/svg" xmlns:xlink="http://www.w3.org/1999/xlink" x="0px" y="0px"
	 width="240px" height="275px" viewBox="0 0 240 275" enable-background="new 0 0 240 275" xml:space="preserve">
<g>
	<path d="M64.269,61.471c3.182,3.237,6.193,6.064,9.053,8.527c-0.305,3.835-0.028,7.436,0.834,10.799
		c2.53,9.954,8.722,17.145,18.576,21.572c10.021,4.494,21.589,5.043,34.706,1.648c14.183-3.662,24.303-9.938,30.361-18.826
		c5.727-8.422,7.107-17.977,4.145-28.663c-2.563-9.222-7.539-16.13-14.93-20.724c-6.193-3.862-13.767-5.909-22.722-6.143
		l-5.893-12.634l-6.991-14.432c-1.198-2.23-2.796-3.063-4.794-2.497c-1.997,0.566-2.896,2.131-2.696,4.694l1.249,13.283
		l1.278,14.625c-3.945,1.019-7.7,2.579-11.271,4.659c-1.153-0.535-2.326-1.071-3.54-1.606c-13.483-5.926-24.336-8.955-32.559-9.088
		c-6.892-0.066-11.219,1.432-12.984,4.494c-1.598,2.863-0.832,6.691,2.297,11.485C52.017,48.138,57.311,54.413,64.269,61.471z"/>
	<path d="M228.759,175.676c-5.427-6.758-14.282-12.701-26.565-17.828c-7.258-3.029-15.414-5.326-24.469-6.891
		c-7.916-1.41-17.094-2.337-27.508-2.791c0.216-3.405,0.054-6.819-0.508-10.243c-1.963-11.985-7.773-20.59-17.428-25.817
		c-4.594-2.497-9.736-3.795-15.43-3.895c-5.793-0.133-11.485,1.015-17.078,3.445c-12.688,5.443-21.639,15.464-26.869,30.044
		c-5.025,1.603-10.416,3.803-16.177,6.609c-9.321,4.561-18.31,10.087-26.966,16.578c-8.489,6.326-15.23,13.067-20.224,20.225
		c-5.16,7.324-8.206,14.682-9.138,22.072c-0.799,6.225,0.2,10.953,2.996,14.182c2.663,3.129,6.791,4.627,12.384,4.494
		c7.957-0.166,16.279-2.879,24.968-8.14c9.654-5.858,18.276-14.065,25.867-24.618c2.112-2.954,4.13-6.2,6.061-9.723
		c0.5,2.26,1.504,4.519,3.028,6.776c1.631,2.396,3.429,4.278,5.394,5.643c1.463,0.989,2.99,1.806,4.57,2.478
		c5.273,27.729,10.159,47.289,14.655,58.645c2.63,6.691,6.725,11.319,12.285,13.883c4.86,2.297,9.272,2.48,13.233,0.549
		c3.396-1.664,5.427-5.043,6.092-10.137c0.732-5.793-0.865-11.719-4.793-17.777c-2.764-4.262-7.624-11.086-14.582-20.475
		c-7.174-9.668-13.022-17.196-17.548-22.593c5.474,0.262,11.486-0.938,18.047-3.624c11.186-4.594,19.942-11.352,26.266-20.273
		c3.774-5.301,6.563-10.624,8.394-15.972c6.096,7.577,11.591,13.727,16.476,18.419c6.025,5.759,12.551,10.803,19.574,15.131
		c10.121,6.225,20.425,9.204,30.911,8.938c10.021-0.266,16.13-3.212,18.327-8.838C235.301,188.193,233.886,182.034,228.759,175.676z
		"/>
</g>
</svg>
