<?xml version="1.0" encoding="utf-8"?>
<!-- Generator: Adobe Illustrator 16.0.0, SVG Export Plug-In . SVG Version: 6.00 Build 0)  -->
<!DOCTYPE svg PUBLIC "-//W3C//DTD SVG 1.1//EN" "http://www.w3.org/Graphics/SVG/1.1/DTD/svg11.dtd">
<svg version="1.1" id="图层_1" xmlns="http://www.w3.org/2000/svg" xmlns:xlink="http://www.w3.org/1999/xlink" x="0px" y="0px"
	 width="382px" height="355px" viewBox="0 0 382 355" enable-background="new 0 0 382 355" xml:space="preserve">
<path d="M373.375,308.7c-12.634-15.634-28.467-31.667-47.5-48.101c-11.634-10.033-23.033-19.05-34.2-27.05
	c-3.466-2.5-6.8-4.517-10-6.05c-2.5-1.2-5.2-2.217-8.1-3.05c-9.4-2.667-19.2-5.917-29.4-9.75
	c-12.927-4.904-20.693-8.828-23.337-11.781c1.355-2.585,2.128-5.519,2.287-8.819c0.2-4.866-1.033-8.649-3.7-11.35
	c-2.8-2.8-6.517-5.167-11.149-7.1c-4.035-1.704-8.002-2.745-11.902-3.136c2.025-1.403,4.104-2.916,6.252-4.564
	c7.4-5.7,12.283-10.333,14.65-13.9l0.5-1.45c-0.033-0.534-0.25-0.934-0.65-1.2c-2.2-1.466-6.133-3.633-11.8-6.5
	c-2.824-1.403-5.253-2.573-7.296-3.513c0.352-0.456,0.777-0.948,1.296-1.487l1.92-1.685c0.767-0.013,1.528-0.047,2.28-0.115
	l0.55,2.75c0.1,0.6,0.333,0.95,0.7,1.05l1.25-0.2c3.99-1.477,7.729-3.13,11.216-4.959c5.238,1.924,13.595,6.457,25.084,13.609
	c12.033,7.5,20.649,13.583,25.85,18.25c2.634,18.4,5.05,30.583,7.25,36.55c0.7,1.967,1.55,2.967,2.55,3c1,0,1.834-0.967,2.5-2.9
	c4.934-13.767,8.268-28.117,10-43.05c1.167-10.2,1.7-22.7,1.601-37.5c-0.101-14.6-1.95-29-5.55-43.2
	c-3.559-13.898-7.85-22.585-12.868-26.099c-1.701-2.4-3.313-3.416-4.832-3.001c-1.267,0.367-2.15,1.733-2.65,4.1
	c-0.443,2.053-0.446,4.4-0.06,7.007c-1.187,2.849-1.984,8.44-2.391,16.792c-0.3,6.434-0.35,13.583-0.149,21.45
	c0.2,12.233,0.433,21,0.7,26.3c0.391,8.184,1.029,14.88,1.909,20.129c-5.133-1.748-11.461-4.45-19.01-8.129
	c-7.67-3.725-13.954-7.167-18.889-10.334c0.415-0.319,0.823-0.645,1.229-0.972c6.31,0.472,9.619,0.226,9.91-0.744
	c0.101-0.367-0.167-1.117-0.8-2.25l-2.381-3.258c0.076-0.082,0.155-0.16,0.23-0.242c4.358-4.738,7.396-9.553,9.125-14.444
	c2.058-2.13,4.297-4.99,6.726-8.606c3.134-4.567,4.384-7.2,3.75-7.9c-0.434-0.466-1.25-0.617-2.45-0.45
	c-1.5,0.206-3.769,0.894-6.801,2.06c-0.817-4.495-2.673-8.899-5.6-13.21c-3.537-5.276-8.382-10.028-14.525-14.262
	c-1.205-1.808-2.505-3.604-3.924-5.388l5.85-26.45l6.3-28.85c0.434-1.967,0.467-3.233,0.101-3.8c-0.4-0.634-1.518-0.95-3.351-0.95
	c-10.634,0-20.917,2.217-30.85,6.65c-9.667,4.333-18.25,10.434-25.75,18.3c-7.633,7.966-13.5,17.083-17.6,27.35
	c-4.16,10.446-6.208,21.365-6.189,32.747c-1.864-0.619-3.827-1.25-5.911-1.897c-12.233-3.8-20.25-5.683-24.05-5.65
	c-1.067,0-1.733,0.283-2,0.85c-0.233,0.566-0.05,1.35,0.55,2.35c0.867,1.5,3.733,4.383,8.6,8.65c5.5,4.833,14.117,11.967,25.85,21.4
	c-1.34,1.236-2.521,2.346-3.565,3.347c-2.789-1.794-5.487-3.368-8.085-4.697c-4.3-2.167-6.966-2.883-8-2.15
	c-1.233,0.9-0.383,5.8,2.55,14.7c2.898,8.758,6.385,16.687,10.444,23.807l-1.844,2.042c-10.9,12.067-18.6,19.867-23.1,23.4
	c-5.7-3.167-12.15-6.317-19.35-9.45c-6.867-2.967-12.333-5.017-16.4-6.15c-1.667-0.467-2.833-0.383-3.5,0.25
	c-0.7,0.633-0.733,1.783-0.1,3.45c4.8,12.134,14.017,25.967,27.65,41.5c5.106,5.818,10.186,11.187,15.242,16.143
	c-0.395,2.394-0.297,4.978,0.308,7.758c0.767,3.3,2.066,5.983,3.9,8.05c2.3,2.5,5.65,4.3,10.05,5.4
	c2.145,0.536,4.323,0.848,6.535,0.938c-3.229,13.279-6.756,23.773-10.584,31.462c-1.267,2.534-3.133,3.95-5.6,4.25l-43.55,6.05
	l-38.55,6.101c-5.133,0.866-9.083,1.866-11.85,3c-3.767,1.533-7.783,4.083-12.05,7.649c-8.9,7.434-15.667,15.834-20.3,25.2
	c-4.934,9.967-5.784,18-2.55,24.101c2,3.699,5.95,5.982,11.85,6.85c5.7,0.834,12.4,0.233,20.1-1.8
	c19.367-5.134,39.6-12.5,60.7-22.101c20.133-9.199,35.75-17.967,46.85-26.3c4.133-3.066,6.75-6.783,7.85-11.149
	c2.6-10.4,4.883-18.9,6.85-25.5c2.301-7.723,4.572-14.329,6.813-19.846c25.618,18.352,44.736,27.393,57.353,27.121
	c5.318,1.823,8.666,1.934,10.034,0.324c1.034-1.233,0.634-2.983-1.2-5.25c-0.716-0.885-1.511-1.668-2.379-2.354
	c-1.126-3.856-5.939-10.447-14.471-19.796c-5.277-5.809-11.41-12.086-18.385-18.825c3.3-1.519,6.482-3.348,9.535-5.524
	c1.629-1.158,3.114-2.339,4.478-3.537c7.621,2.148,15.67,4.784,24.172,7.938c7.8,2.866,14.134,5.449,19,7.75
	c2.767,1.266,5.15,2.732,7.15,4.399c2.033,1.733,4.1,4.034,6.2,6.9c8.934,12.433,15.816,22.417,20.649,29.95
	c7.366,11.566,13.4,22.533,18.101,32.899c1.866,4,4.583,7.017,8.149,9.05c20.8,12.066,39.267,16.2,55.4,12.4
	c5.666-1.334,9.083-4.217,10.25-8.65C378.241,317.55,377.009,313.166,373.375,308.7z M153.887,158.426
	c0.721,1.343,1.648,2.838,2.784,4.488c-0.323,4.167-0.515,8.998-0.574,14.494c-5.125,2.118-9.398,4.928-12.824,8.426
	c-3.234-2.324-6.093-4.295-8.547-5.884c3.5-5.3,8.633-11.284,15.4-17.95C151.401,160.749,152.651,159.569,153.887,158.426z"/>
</svg>
