<?xml version="1.0" encoding="utf-8"?>
<!-- Generator: Adobe Illustrator 16.0.0, SVG Export Plug-In . SVG Version: 6.00 Build 0)  -->
<!DOCTYPE svg PUBLIC "-//W3C//DTD SVG 1.1//EN" "http://www.w3.org/Graphics/SVG/1.1/DTD/svg11.dtd">
<svg version="1.1" id="图层_1" xmlns="http://www.w3.org/2000/svg" xmlns:xlink="http://www.w3.org/1999/xlink" x="0px" y="0px"
	 width="259px" height="338px" viewBox="0 0 259 338" enable-background="new 0 0 259 338" xml:space="preserve">
<path d="M256.699,137.794l-15.553-12.502l-13.303-10.752c-0.666-0.6-1.45-1.083-2.35-1.45c-0.172-0.069-0.337-0.126-0.5-0.181
	c-5.285-7.307-8.624-11.272-10.002-11.872c-1.768-0.767-4.219-1.184-7.352-1.25c-3.734-0.033-7.452,0.5-11.152,1.601
	c-5.901,1.7-10.152,4.117-12.753,7.251c-0.56,0.669-1.021,1.37-1.415,2.091c-5.08-3.307-11.846-7.282-20.339-11.942
	c-7.245-4.005-13.115-7.102-17.642-9.313c5.335-5.033,9.487-10.13,12.44-15.292c1.567-2.667,2.017-5.268,1.351-7.801l-7.352-27.206
	c-3.135-10.869-5.568-18.337-7.302-22.404c-1.634-3.834-5.685-6.901-12.152-9.202c-6.399-2.277-13.373-3.014-20.907-2.253
	c-3.89-3.389-10.584-5.142-20.101-5.248C79.549-0.066,68.88,1.718,58.311,5.418c-10.568,3.701-19.804,9.335-27.705,16.903
	c-3.534,3.365-6.145,6.535-7.853,9.513C16.991,35.002,12.15,39.01,8.251,43.876C3.284,50.077,1.167,56.211,1.9,62.279
	c0.4,3.134,2.451,10.369,6.151,21.704c3.234,9.902,6.167,18.304,8.802,25.205c1.333,3.467,2.85,5.668,4.551,6.601
	c7.457,3.988,15.448,6.439,23.971,7.367c-0.223,2.088-0.045,4.019,0.532,5.792c-1.508,1.91-2.274,3.985-2.299,6.224l-0.277,1.086
	c-2.802-1.131-6.684-1.427-11.674-0.866c-4.935,0.533-8.418,1.5-10.452,2.9c-1.467,1.034-2.4,2.067-2.801,3.101
	c-0.3,0.7-0.4,1.75-0.3,3.151c0.004,0.054,0.011,0.117,0.015,0.172c-1.379,3.511-3.897,9.429-7.566,17.781L0.35,185.203
	c-0.3,0.7-0.383,1.217-0.25,1.551c0.133,0.3,0.517,0.55,1.15,0.75c2.267,0.833,5.851,1.883,10.752,3.15
	c2.109,0.553,3.842,0.98,5.242,1.298c2.154,3.529,5.032,7.653,8.63,12.368l-7.771,30.092c-0.133,0.534-0.033,1.001,0.3,1.4
	l13.253,12.953c6.227,5.879,11.528,10.741,15.927,14.613c-0.071,0.14-0.145,0.261-0.224,0.34l-1.351-0.051l-2.5-2.2
	c-1.3-0.967-2.55-1.366-3.75-1.2c-1.034,0.133-2.467,0.517-4.301,1.15l-3.001,0.801c-0.8-0.067-1.417,0.116-1.85,0.549
	c-0.633,0.601-0.7,1.551-0.2,2.852c0.9,2.3,1.367,3.834,1.4,4.601c0.1,1.7-0.817,2.884-2.75,3.551c-1.4,0.466-1.4,1.2,0,2.2
	l2.9,2.25l-2.75,4.051c-0.767,0.768-1.017,1.885-0.75,3.352c0.3,1.566,0.75,2.767,1.35,3.6c0.767,1.034,1.834,1.617,3.201,1.751
	c1.4,0.167,2.701-0.2,3.901-1.101c1.067-0.767,1.717-1.633,1.95-2.6c0.167-0.634,0.45-0.784,0.85-0.451l3.301,2.201
	c0.367,0.199,0.417,0.583,0.15,1.15l-1.3,2.45l-1.05,1.851c-0.167,0.467-0.233,0.949-0.2,1.449c0.066,0.567,0.25,0.984,0.55,1.251
	c1.233,1,3.067,2.101,5.501,3.301c0.833,0.433,1.65,0.134,2.45-0.9l1.7-3.101c0.233-0.467,0.55-0.55,0.95-0.25l1.5,1.051
	c-0.667,1.666-1.067,3.033-1.2,4.1l-0.85,2.701c-0.167,0.633-0.167,1.2,0,1.7l1,1.65l2.25,3.2c0.3,0.567,0.85,0.951,1.65,1.15
	c0.9,0.233,1.7,0.066,2.4-0.5c0.267,0.967,0.05,1.768-0.65,2.4c-0.367,0.367-0.534,0.783-0.5,1.25c0,0.533,0.267,0.967,0.8,1.301
	c1.167,0.733,1.9,1.533,2.201,2.4c0.367,0.867,1.25,1.384,2.65,1.551l2.701,0.55c1.167,0.3,1.917,0.616,2.25,0.95
	c0.734,0.7,1.317,0.6,1.75-0.301l2.25-4.7l2.25,0.601l1.65,0.449c1,0.167,1.4,0.834,1.2,2c-0.233,1.4-0.35,2.301-0.35,2.701
	c0,1.334,0.367,2.316,1.1,2.951l2.5,1.949c0.733,0.634,1.034,1.217,0.9,1.751c-0.233,1.101,0.717,1.917,2.851,2.45l2.9,0.35
	c1.333-0.033,2.05-0.283,2.15-0.75l0.65-2.35c0.4-1.067,0.717-1.717,0.95-1.951c0.734-0.732,1.034-1.467,0.9-2.2
	c-0.167-0.833,0.083-1.25,0.75-1.25l1.851,0.101c0.167,0.033,0.367,0.183,0.6,0.449l0.45,1l0.7,2.65
	c0.233,1.234,0.917,1.668,2.05,1.301c0.667-0.233,1.767-0.233,3.3,0c1.5,0.2,2.601,0.5,3.301,0.9c1.1,0.633,1.7,0.283,1.8-1.051
	l0.4-2.6c0.233-1.201,0.467-1.984,0.7-2.352c0.233-0.399,0.333-0.85,0.3-1.35c-0.067-0.5-0.233-0.85-0.5-1.051
	c0.433-0.399,1.333-0.967,2.701-1.699c0.7-0.301,1.35-0.201,1.95,0.299l1.8,1.65c0.4,0.601,0.333,1.251-0.2,1.951
	c-1.467,1.867-2.284,3.033-2.45,3.5c-0.333,0.867-0.217,1.967,0.35,3.301c1.033,2.701,1.817,4.418,2.35,5.151
	c0.8,1.134,1.767,1.851,2.901,2.15l2.951,0.05c1.133-0.166,1.917-0.55,2.35-1.15c0.367-0.533,0.967-1.05,1.8-1.55l0.55-0.95
	c0.133-0.533,0.1-1-0.1-1.4c-0.433-1.1-0.283-2.018,0.45-2.75c0.367-0.4,0.867-0.601,1.5-0.601c0.566,0,1.033,0.134,1.4,0.399
	l1.15-0.049c0.467-0.334,0.767-0.967,0.9-1.9c0.267-2.034,0.601-3.901,1.001-5.602c0.1-0.5,0.283-0.85,0.549-1.051
	c0.268-0.133,0.551-0.133,0.852,0l3.3,0.101c1.4-0.601,2.483-2.034,3.251-4.301c0.199-0.601,0.233-1.15,0.1-1.65
	c-0.1-0.534-0.367-0.884-0.8-1.05c-0.567-0.234-0.983-0.684-1.251-1.351c-0.333-0.767-0.232-1.417,0.301-1.95
	c0.533-0.566,1.051-0.917,1.551-1.051l1.55,0.1l1.7,0.801l1.5,0.5c-0.566,2.301-0.85,4.135-0.85,5.501
	c0,1.435,0.6,2.101,1.801,2.001l2.8,0.4c1.333,0.332,2.15,0.717,2.45,1.149c0.334,0.5,0.951,0.583,1.851,0.25
	c0.934-0.333,1.601-0.833,2.001-1.5c0.633-1.067,0.949-2.95,0.949-5.651c0-0.467-0.166-0.867-0.5-1.2
	c-0.333-0.333-0.699-0.467-1.1-0.399c-0.734,0.133-0.984-0.101-0.75-0.701l0.55-3.301c0.101-0.899,0.384-1.434,0.851-1.6l2.15-1
	l1.3,2.2l1,1.601c0.733,0.8,1.434,1.184,2.101,1.15c2.667-0.134,4.534-0.134,5.602,0c0.566,0.066,0.949-0.167,1.15-0.701
	c0.232-0.533,0.149-1.083-0.25-1.65c-0.4-0.5-0.918-1.5-1.551-3l-1.051-2.75c-0.166-1.201-0.449-1.834-0.85-1.9l0.4-0.75l0.5-0.301
	l0.35,0.4l0.4,0.95c0.367,0.8,0.934,1.434,1.7,1.9c0.733,0.467,1.5,0.7,2.3,0.7l7.402-0.45c0.9-0.233,1.434-0.784,1.6-1.65
	c0.134-0.934-0.184-1.983-0.949-3.151l-1.251-2.4c-0.3-0.5-0.283-0.899,0.05-1.199l2.65-3.102c0.434-0.467,0.551-0.949,0.351-1.449
	c-0.2-0.434-0.55-0.734-1.05-0.9l-2.551-1.301c-0.4-0.3-0.601-0.65-0.601-1.05c0-0.467,0.233-0.833,0.7-1.101
	c1.5-0.934,2.5-1.184,3.001-0.75l3.751,2.851c0.434,0.399,0.866,0.534,1.3,0.399c0.366-0.133,0.634-0.383,0.8-0.75l1.551-3.4
	c0.1-0.434,0.367-0.8,0.8-1.1c0.4-0.301,0.833-0.45,1.3-0.45l2.352-0.851c1.066-0.566,1.85-1.066,2.35-1.5
	c0.768-0.667,0.75-1.45-0.05-2.351l-3.9-3.851l2.45-0.75l2.4-0.35l2.551-0.251l2.35-0.601c0.701-0.133,1.184-0.449,1.451-0.949
	c0.3-0.5,0.267-1.117-0.1-1.851c-0.834-1.7-1.051-3.384-0.65-5.051c0.366-1.4,0.15-2.301-0.65-2.7c-0.9-0.4-1.566-0.967-2-1.701
	c-0.266-0.398-0.645-0.651-1.115-0.786l23.369-23.368c0.834-0.867,1.4-1.684,1.7-2.451c1.167-2.833,3.134-9.435,5.901-19.803
	c2.7-10.169,4.101-16.12,4.201-17.854c0.066-0.701-0.317-4.218-1.15-10.553l-1.227-10.643c0.621-0.207,1.246-0.423,1.877-0.659
	c6.201-2.334,10.051-4.451,11.552-6.352c0.667-0.933,1.45-3.167,2.351-6.701c0.598-2.417,1.08-4.808,1.455-7.174l2.996-2.178
	l9.001-6.901c1.334-1.067,1.968-2.084,1.9-3.051C258.733,139.995,258.033,138.961,256.699,137.794z"/>
</svg>
