<?xml version="1.0" encoding="utf-8"?>
<!-- Generator: Adobe Illustrator 16.0.0, SVG Export Plug-In . SVG Version: 6.00 Build 0)  -->
<!DOCTYPE svg PUBLIC "-//W3C//DTD SVG 1.1//EN" "http://www.w3.org/Graphics/SVG/1.1/DTD/svg11.dtd">
<svg version="1.1" id="图层_1" xmlns="http://www.w3.org/2000/svg" xmlns:xlink="http://www.w3.org/1999/xlink" x="0px" y="0px"
	 width="556px" height="461px" viewBox="0 0 556 461" enable-background="new 0 0 556 461" xml:space="preserve">
<path d="M545.806,316.005c0.7-0.267,1.449-0.833,2.249-1.698l4.146-5.097c0.666-1.365,1.016-2.382,1.049-3.048
	c0.033-0.732-0.267-1.564-0.899-2.498l-15.388-19.633c-0.6-0.801-1.415-1.316-2.447-1.549l-3.198,0.199
	c-5.162,1.666-11.674,3.197-19.534,4.596c-6.215,1.096-11.433,1.749-15.69,1.977c2.326-0.737,4.644-1.492,6.948-2.275
	c10.392-3.564,17.186-6.479,20.383-8.743c1.266-1.166,2.282-2.798,3.048-4.896c0.766-2.1,1.032-3.98,0.8-5.646
	c-0.233-1.765-2.415-5.195-6.545-10.291c-3.098-3.863-6.229-7.411-9.393-10.642c-0.6-0.6-1.299-0.966-2.099-1.099
	c-0.832-0.134-1.615,0.033-2.348,0.499c-11.524,7.194-19.95,12.19-25.279,14.987c-0.669,0.354-1.319,0.682-1.976,1.016
	c-5.146-5.227-10.688-10.412-16.66-15.553c-6.228-5.363-11.457-9.426-15.687-12.19c-4.688-3.095-9.456-5.12-14.304-6.091
	c-0.13-0.069-0.252-0.133-0.385-0.204c-2.964-1.599-5.096-2.898-6.395-3.897c-20.051-15.487-40.7-28.527-61.95-39.119
	c-25.585-12.809-53.356-22.806-83.301-30.004c4.86-3.17,10.424-5.944,16.704-8.314c10.658-4.03,20.7-6.045,30.126-6.045
	c0.633,0,1.266-0.183,1.898-0.55c0.8-0.433,1.333-1.016,1.599-1.749l1.799-5.096c0.699-2.198,1.133-3.847,1.299-4.946
	c0.134-0.732,0.101-1.415-0.1-2.048c-0.2-0.633-0.533-1.083-0.999-1.349c-4.33-2.398-11.108-5.063-20.334-7.994
	c-9.159-2.964-17.119-5.029-23.88-6.195c-1.533-0.233-3.564,0.033-6.096,0.799c-3.396,0.999-6.961,2.448-10.691,4.347
	c-3.102,1.606-5.96,3.335-8.602,5.172c-0.114-0.454-0.233-0.912-0.353-1.37c2.574-2.457,6.188-5.073,10.854-7.849
	c4.729-2.765,9.343-5.063,13.839-6.895l1.499-0.899c0.3-0.366,0.449-0.933,0.449-1.698l-0.1-6.795c0-2.498-1.549-4.163-4.646-4.996
	c-3.23-0.866-7.244-1.649-12.04-2.348l-13.152-1.221c-1.034-4.703-2.222-9.777-3.584-15.266
	c-3.198-12.856-5.862-22.149-7.994-27.877c-1.599-4.363-3.63-7.744-6.095-10.142c-1.632-1.599-3.83-3.031-6.595-4.297
	c-2.052-0.916-4.22-1.655-6.481-2.249c3.848-1.187,6.979-2.683,9.379-4.496c3.364-2.565,4.846-5.462,4.446-8.693
	c-0.466-4.063-3.83-7.51-10.092-10.341c-7.494-3.364-17.07-4.413-28.727-3.147c-11.824,1.299-21.232,4.113-28.227,8.443
	c-5.962,3.664-8.909,7.411-8.843,11.241c0.033,3.53,2.082,6.678,6.145,9.442c3.158,2.16,6.76,3.584,10.793,4.293
	c-1.321,0.825-2.607,1.704-3.849,2.651c-5.295,4.063-8.243,8.826-8.843,14.288c-0.733,6.462-1.832,17.353-3.297,32.674
	l-2.384,23.264c-8.861-8.41-17.527-15.542-25.993-21.366c-9.226-6.295-17.769-10.758-25.629-13.389l-3.297-0.25
	c-0.899,0.3-1.665,1.033-2.298,2.198c-1.333,2.398-2.498,5.163-3.497,8.293c-0.342,1.111-0.41,2.124-0.258,3.057
	c-12.043-2.602-24.413-3.577-37.112-2.907c-0.866,0.033-1.599,0.25-2.198,0.649c-0.666,0.466-1.065,1.099-1.199,1.898l-1.898,10.542
	c-0.167,1.599,0.266,2.748,1.299,3.447c0.733,0.533,1.981,0.916,3.747,1.149c32.833,4.101,59.154,10.879,78.999,20.321
	c-4.807-0.417-9.576-0.637-14.302-0.637c-2.431,0-3.88,1-4.346,2.998c-0.13,0.636-0.252,1.251-0.367,1.848
	c-22.454,2.202-43.301,8.539-62.532,19.035c-19.185,10.458-34.456,23.73-45.813,39.818c-9.625,13.655-15.638,29.643-18.036,47.961
	c-2.175,16.442-1.026,31.873,3.439,46.296c-0.361,3.562-0.513,7.212-0.441,10.958c0.133,8.359,2.265,16.818,6.395,25.379
	c3.997,8.359,9.492,15.986,16.486,22.881c7.161,7.062,15.188,12.623,24.081,16.688c9.459,4.329,19.151,6.578,29.077,6.744
	c3.927,0.072,7.84-0.198,11.741-0.802c-0.933,7.461-0.693,16.54,0.749,27.28c0.898,6.757,2.052,12.933,3.453,18.551
	c-4.493-0.522-9.95-2.267-16.393-5.262c-6.961-3.264-13.206-7.111-18.735-11.541c-2.231-1.731-3.747-2.414-4.546-2.048
	c-0.833,0.366-0.933,1.782-0.3,4.247c2.332,8.959,6.728,18.118,13.189,27.478c6.028,8.759,13.04,16.52,21.033,23.281
	c7.96,6.794,15.554,11.424,22.781,13.889c7.727,2.664,13.889,2.431,18.485-0.7c3.664-2.497,6.228-7.21,7.694-14.138
	c1.452-6.704,1.423-13.685-0.048-20.934c4.618,3.056,9.362,5.807,14.237,8.243c9.858,4.93,19.9,8.427,30.125,10.492
	c4.53,0.933,8.576-0.316,12.14-3.747c4.996-4.796,8.293-11.657,9.892-20.584c1.582-8.764,1.11-17.65-1.366-26.655
	c3.09,0.285,6.209,0.465,9.359,0.527c14.188,0.299,27.894-1.683,41.117-5.945c12.79-4.098,23.73-9.876,32.824-17.336
	c9.292-7.594,15.57-16.07,18.834-25.43c1.799-5.195,1.932-8.01,0.4-8.443c-1.399-0.434-3.531,1.033-6.396,4.396
	c-1.765,1.799-3.863,2.615-6.295,2.448c-2.198-0.167-4.18-1.05-5.944-2.647c-1.898-1.732-3.314-3.781-4.247-6.146
	c-0.55-1.393-0.879-2.792-1.001-4.196c0.516-0.226,1.032-0.483,1.551-0.8c6.694-4.097,13.572-10.975,20.633-20.634
	c3.631-4.963,6.845-9.941,9.643-14.938l4.996-2.148c2.265-1.232,3.63-2.331,4.097-3.297c0.199-0.4,0.116-1.116-0.25-2.148
	c-0.142-0.426-0.307-0.809-0.483-1.169c1.255-2.797,2.168-6.53,2.731-11.222c0.576-4.696,0.702-9.659,0.431-14.855
	c0.713-0.812,1.37-1.662,1.973-2.549c8.094,5.771,16.367,13.026,24.824,21.801c7.537,7.889,13.547,15.208,18.036,21.96
	c0.477,4.511,1.696,8.425,3.696,11.714c1.666,2.764,5.979,9.441,12.939,20.033l10.842,16.687c1.232,2.099,3.397,3.979,6.494,5.646
	c2.499,1.388,5.428,2.494,8.737,3.35c0.645,5.037,1.016,10.992,1.105,17.883c0,0.666,0.133,1.316,0.399,1.949
	c0.267,0.699,0.649,1.182,1.149,1.448c2.831,1.731,5.479,3.048,7.943,3.946l1.998,0.101c0.866-0.134,1.615-0.433,2.248-0.899
	c6.729-5.129,12.707-10.309,17.936-15.537c1.1-1.133,1.582-2.998,1.449-5.596c-0.158-3.089-0.588-6.539-1.276-10.335
	c4.897-1.873,9.796-5.131,14.693-9.777c2.548,0.369,5.452,0.861,8.715,1.478l8.693-0.3l4.696-1.749
	c3.131-1.132,5.679-1.865,7.644-2.197l4.246-0.2c0.833,0.167,1.932,0.683,3.298,1.548c6.062,3.831,11.391,8.727,15.987,14.689
	c3.164,4.129,6.811,10.024,10.94,17.686c1.199,2.298,3.064,3.347,5.596,3.146l4.546-0.949c1.732-0.732,2.765-2.215,3.098-4.445
	c0.921-6.144,1.841-11.143,2.76-15.011c0.277,0.017,0.556,0.012,0.838-0.028l6.245-1.549c1.731-0.532,2.414-1.848,2.048-3.946
	c-0.566-3.097-2.864-9.442-6.895-19.034c-0.865-2.065-2.681-3.83-5.445-5.296c-2.615-1.363-5.545-2.688-8.767-3.979
	c4.623,0.56,9.113,0.924,13.463,1.081L545.806,316.005z M292.472,355.406c0.028-0.022,0.054-0.046,0.082-0.068
	c-0.036,0.038-0.072,0.077-0.109,0.115C292.454,355.438,292.462,355.422,292.472,355.406z"/>
</svg>
