<?xml version="1.0" encoding="utf-8"?>
<!-- Generator: Adobe Illustrator 16.0.0, SVG Export Plug-In . SVG Version: 6.00 Build 0)  -->
<!DOCTYPE svg PUBLIC "-//W3C//DTD SVG 1.1//EN" "http://www.w3.org/Graphics/SVG/1.1/DTD/svg11.dtd">
<svg version="1.1" id="图层_1" xmlns="http://www.w3.org/2000/svg" xmlns:xlink="http://www.w3.org/1999/xlink" x="0px" y="0px"
	 width="233px" height="341px" viewBox="0 0 233 341" enable-background="new 0 0 233 341" xml:space="preserve">
<path d="M225.299,244.658c-2.489-1.46-5.486-2.535-8.982-3.234c1.927-1.267,3.609-2.507,5.031-3.719
	c2.734-2.302,4.102-4.136,4.102-5.503c0-1.301-0.9-2.251-2.701-2.851c-1.668-0.602-3.802-0.751-6.402-0.451
	c-5.191,0.524-9.431,2.165-12.747,4.885l-2.96-2.684l-4.202-3.451l-5.903-5.002c-2.1-1.868-3.584-3.452-4.451-4.752
	c-9.805-14.707-16.591-29.747-20.359-45.121c-2.9-11.738-4.602-26.778-5.102-45.119c-0.201-8.104,0.333-14.957,1.6-20.559
	c0.701-3.068,2.201-7.487,4.503-13.256c3.567-8.938,5.419-17.308,5.552-25.111c0.16-7.875-1.372-16.448-4.561-25.705
	c3.352-4.404,5.641-7.594,6.861-9.561l0.051-0.15c0.233-2.401,0.417-7.053,0.551-13.956l0.199-15.207l-0.1-0.25l-0.301-0.1
	l-27.412,0.85l-0.199,0.05l-8.406,6.6c-9.456-5.3-20.522-8.022-33.212-8.15C93.333,3.024,82.503,5.394,73.25,10.25
	c-1.188-1.353-2.315-2.547-3.369-3.546l-0.65-0.4c-3.401-1.234-7.92-2.551-13.556-3.952C50.839,1.15,47.204,0.367,44.77,0l-0.9,0.15
	l-0.6,0.55c-3.768,14.473-5.703,22.71-5.802,24.711c0.277,3.334,2.333,9.92,6.151,19.735c-3.912,8.537-6.126,16.553-6.602,24.035
	c-0.467,7.437,0.733,14.806,3.602,22.109c1.134,2.901,1.684,5.486,1.65,7.753c-0.066,2.201-0.733,5.152-2.001,8.854
	c-2.268,6.569-6.886,21.443-13.856,44.62c-6.603,21.91-10.805,35.333-12.605,40.268c-7.27,20.008-11.555,35.898-12.855,47.67
	c-2.501,22.01,1.55,41.752,12.155,59.227c2.167,3.535,4.552,5.386,7.153,5.553c1.991,0.104,4.274-0.783,6.841-2.633
	c1.037,7.974,6.517,15.489,16.47,22.541c7.236,5.103,15.273,9.154,24.11,12.156c7.337,2.467,13.74,3.385,19.208,2.751
	c5.469-0.634,10.221-2.852,14.256-6.653c10.405-9.805,18.525-24.728,24.361-44.77c3.614-12.347,5.968-25.017,7.071-38.008
	c1.473-1.635,2.638-3.058,3.483-4.261c1.024-1.421,1.859-2.826,2.516-4.218c0.611,12.498,2.717,23.664,6.338,33.48
	c6.203,16.941,17.008,30.28,32.414,40.018c2.701,1.734,5.119,2.268,7.253,1.602c1.468-0.468,3.034-1.651,4.702-3.553
	c4.636-5.235,9.021-12.805,13.156-22.709c4.028-9.69,6.321-18.124,6.917-25.329c1.991,0.974,4.337,1.514,7.038,1.618
	c4.103,0.166,6.504-0.684,7.204-2.551c0.5-1.4-0.384-3.219-2.651-5.453c-1.438-1.411-3.276-2.854-5.501-4.33
	c2.695-0.247,5.165-0.652,7.401-1.223c3.936-1,6.053-2.268,6.354-3.801C229.602,248.143,228.301,246.392,225.299,244.658z
	 M57.976,115.601c3.235,5.569,5.686,8.404,7.353,8.504c0.575,0.062,2.579-0.981,6-3.121c6.1,5.222,12.74,8.834,19.924,10.83
	c1.414,2.645,2.264,5.426,2.538,8.349c0.333,3.535-0.083,8.087-1.25,13.656c-2.053,9.857-4.911,19.674-8.535,29.456
	c-1.607-4.959-3.93-9.742-6.972-14.349c-4.302-6.47-8.521-9.804-12.656-10.004c-4.102-0.2-7.803,2.401-11.105,7.803
	c-1.899,3.129-3.574,7.017-5.029,11.644c-1.014-8.214-1.268-16.316-0.724-24.299c0.267-4.068,1.417-12.072,3.452-24.011
	c1.583-9.311,2.596-16.708,3.04-22.195C55.203,110.53,56.519,113.113,57.976,115.601z M124.852,179.969
	c-2.164-8.103-5.581-20.02-10.251-35.755c-0.667-2.234-0.867-4.418-0.601-6.553c0.199-1.585,0.69-3.286,1.441-5.087
	c7.093-1.531,13.732-4.682,19.915-9.453c2.745,2.218,4.451,3.318,5.106,3.285c1.18-0.049,3.078-1.562,5.689-4.529
	c-0.201,12.08-1.216,29.324-3.043,51.735c-0.304-0.583-0.641-1.127-1.046-1.587c-1.134-1.333-2.468-2-4.002-2
	c-2,0-4.484,1.234-7.453,3.702C128.306,175.659,126.402,177.746,124.852,179.969z"/>
</svg>
