<?xml version="1.0" encoding="utf-8"?>
<!-- Generator: Adobe Illustrator 16.0.0, SVG Export Plug-In . SVG Version: 6.00 Build 0)  -->
<!DOCTYPE svg PUBLIC "-//W3C//DTD SVG 1.1//EN" "http://www.w3.org/Graphics/SVG/1.1/DTD/svg11.dtd">
<svg version="1.1" id="图层_1" xmlns="http://www.w3.org/2000/svg" xmlns:xlink="http://www.w3.org/1999/xlink" x="0px" y="0px"
	 width="251px" height="152px" viewBox="0 0 251 152" enable-background="new 0 0 251 152" xml:space="preserve">
<path d="M248.804,11.016c-5.923,4.126-13.26,9.982-22.011,17.568c-8.884,7.72-15.572,14.075-20.064,19.066l-0.498,0.849l0.299,0.848
	c1.996,3.66,5.84,12.029,11.529,25.105l-6.238,7.087l-5.84,6.539l-4.342-3.793c2.096-2.662,3.277-5.773,3.543-9.334
	c0.233-3.294-0.332-6.405-1.697-9.333c0.167-4.825-0.016-7.603-0.549-8.335c-1.031-1.531-3.344-3.244-6.938-5.141
	c-3.793-1.997-6.738-2.912-8.834-2.745c-1.53,0.133-7.104,3.926-16.72,11.379l-0.749-9.034c-0.365-2.862-0.732-5.058-1.098-6.588
	c-0.766-3.228-2.113-5.756-4.043-7.586c-1.963-1.797-4.575-2.978-7.836-3.543l-13.426-0.948l-10.082-0.399
	c-1.265-4.093-4.076-10.232-8.435-18.417c-5.058-9.45-8.584-14.091-10.581-13.925c-1.664,0.133-4.126,4.076-7.387,11.829
	c-2.529,5.923-5.041,12.793-7.536,20.613c-3.294,1.165-8.818,4.426-16.57,9.783l-10.681,7.686c-1.564,1.431-2.529,2.446-2.895,3.044
	c-0.533,0.898-0.849,2.279-0.948,4.143c-2.462,1.764-4.176,3.244-5.141,4.442c-0.932,1.198-1.397,2.462-1.397,3.793l0.25,2.446
	c-1.165,2.762-1.48,5.773-0.948,9.034c0.666,4.392,2.845,8.534,6.538,12.428l-13.575,6.987c1.664-11.579,2.778-18.982,3.344-22.21
	l0.05-1.248l-1.148-0.998c-4.525-4.226-12.827-10.614-24.905-19.166C19.432,44.522,9.599,38.018,1.747,33.426
	c-0.632-0.366-1.098-0.433-1.397-0.2c-0.333,0.2-0.416,0.666-0.25,1.397L8.535,70.16c0.133,0.765,0.516,1.281,1.148,1.547
	l17.568,7.986c10.148,4.559,16.521,7.303,19.116,8.234l-2.496,25.056v0.05c0,0.633,0.266,0.781,0.798,0.449l26.553-16.121
	c2.296,6.754,3.959,10.814,4.991,12.178c0.932,1.198,2.229,2.264,3.893,3.195c2.662,9.083,5.307,17.401,7.936,24.955
	c1.297,3.76,3.527,6.321,6.688,7.686c2.229,0.965,5.606,1.498,10.132,1.598c4.559,2.961,10.847,4.342,18.866,4.143
	c8.119-0.2,14.507-1.947,19.166-5.241l7.886-0.798c0.932-0.2,3.677-1.515,8.235-3.943c4.358-2.362,6.987-3.893,7.886-4.592
	l2.596-2.745c1.397-1.896,2.162-3.894,2.296-5.989l0.448-11.929l8.336-2.046l9.233-2.396c2.329-0.632,3.876-1.247,4.642-1.846
	c1.331-1.065,2.313-2.979,2.945-5.74l2.346-12.678l7.087,6.938c0.233,0.167,0.466,0.167,0.698,0l19.365-17.568l0.549-0.748v-1.248
	l-2.146-10.082l-1.997-9.483l24.307-10.631l0.25-0.399l2.895-36.185C250.816,10.301,250.168,10.051,248.804,11.016z"/>
</svg>
