<?xml version="1.0" encoding="utf-8"?>
<!-- Generator: Adobe Illustrator 16.0.0, SVG Export Plug-In . SVG Version: 6.00 Build 0)  -->
<!DOCTYPE svg PUBLIC "-//W3C//DTD SVG 1.1//EN" "http://www.w3.org/Graphics/SVG/1.1/DTD/svg11.dtd">
<svg version="1.1" id="图层_1" xmlns="http://www.w3.org/2000/svg" xmlns:xlink="http://www.w3.org/1999/xlink" x="0px" y="0px"
	 width="197px" height="185px" viewBox="0 0 197 185" enable-background="new 0 0 197 185" xml:space="preserve">
<path d="M196.802,112.431l-0.8-5.752c-0.601-3.167-1.102-4.851-1.501-5.052l-70.47-31.758c-0.6-7.735-1.684-13.121-3.25-16.154
	c-1.268-2.401-3.668-4.918-7.202-7.552c-2.868-2.134-5.552-3.751-8.052-4.852c-4.668-5.068-7.936-7.802-9.803-8.202
	c-0.934-0.2-2.517-0.017-4.751,0.55l-3.551,1l-7.852-0.6c-2.101-6.135-4.484-12.236-7.152-18.305
	C67.917,5.385,64.533,0.133,62.265,0c-2.201-0.133-4.818,5.268-7.852,16.205c-2.101,7.535-3.618,14.17-4.551,19.905
	c-7.235,1.034-13.804,2.667-19.705,4.901c-6.702,2.534-10.853,5.301-12.454,8.302c-2.367,4.435-3.234,11.236-2.601,20.405
	c0.467,7.169,1.784,15.104,3.951,23.807L1.799,104.879l-1.25,1.05c-0.267,0.333-0.4,0.784-0.4,1.351c0,1.2,1.05,8.686,3.151,22.456
	L6.45,149.99c1.067,8.469,2.951,15.104,5.651,19.906c3.368,5.968,8.486,10.353,15.354,13.153c2.867,1.167,5.635,1.384,8.302,0.649
	c3.034-0.866,5.352-2.9,6.952-6.102c1.367-2.733,1.784-5.651,1.25-8.752c-0.6-3.635-2.467-6.335-5.602-8.102
	c-4.468-2.568-7.186-5.035-8.152-7.402c-1.467-3.468-1.717-7.068-0.75-10.803c1-4.035,3.184-6.803,6.552-8.303
	c3.401,3.9,6.635,6.519,9.703,7.852c1.534,2.535,4.118,5.019,7.752,7.453c3.601,2.4,6.302,3.45,8.102,3.15
	c1.801-0.334,4.084-1.451,6.852-3.352l5.101-4l7.802-0.451l7.502-1.199c0.9,0.633,2.618,1.5,5.151,2.6
	c3.034,1.334,5.118,1.951,6.252,1.852c1.4-0.101,3.368-1.501,5.901-4.201c2.101-2.234,4.084-4.769,5.951-7.603
	c3.035-1.7,5.735-7.436,8.103-17.204c2.2-9.27,3.534-19.59,4.001-30.959l21.906,24.957c12.07,13.67,19.372,21.656,21.906,23.956
	l5.551,0.3l6.452-0.75c0.9-0.199,1.351-0.483,1.351-0.85c0-0.768-0.867-3.285-2.602-7.553l-3.45-8.102l-0.45-0.701l-0.801,0.051
	c-2.1,0.633-3.984,0.633-5.65,0c-1.268-0.467-2.268-1.184-3.002-2.15c-1.1-1.4-1.733-3.001-1.9-4.802
	c-0.166-1.833,0.184-3.45,1.051-4.851c0.9-1.468,2.217-2.484,3.951-3.051c1.667-0.534,3.351-0.534,5.051,0
	c1.467,0.467,2.617,1.316,3.451,2.551c0.801,1.267,1.201,2.816,1.201,4.65l0.1,0.9l1,0.2l16.254,1.351l1.001-0.2
	C196.752,113.914,196.835,113.364,196.802,112.431z M29.896,182.261l4.981,0.14C33.319,182.764,31.658,182.712,29.896,182.261z"/>
</svg>
