<?xml version="1.0" encoding="utf-8"?>
<!-- Generator: Adobe Illustrator 16.0.0, SVG Export Plug-In . SVG Version: 6.00 Build 0)  -->
<!DOCTYPE svg PUBLIC "-//W3C//DTD SVG 1.1//EN" "http://www.w3.org/Graphics/SVG/1.1/DTD/svg11.dtd">
<svg version="1.1" id="图层_1" xmlns="http://www.w3.org/2000/svg" xmlns:xlink="http://www.w3.org/1999/xlink" x="0px" y="0px"
	 width="232px" height="139px" viewBox="0 0 232 139" enable-background="new 0 0 232 139" xml:space="preserve">
<path d="M224.445,73.014c-4.354-4.12-9.984-7.227-16.896-9.32c-7.044-2.16-15.649-3.721-25.816-4.685l-22.378-0.698
	c1.595-6.877,1.711-13.789,0.35-20.733c-1.33-6.911-3.988-13.157-7.975-18.739C142.693,6.28,129.818,0,113.105,0
	C99.915,0,88.801,4.685,79.763,14.055c-7.841,8.14-12.293,17.377-13.356,27.71c-3.522-0.232-7.26-1.096-11.214-2.591
	c-4.344-1.649-8.551-3.926-12.624-6.816c0.054-0.005,0.11-0.007,0.164-0.012c2.06-0.232,3.804-0.781,5.233-1.645
	c1.495-0.897,2.458-2.027,2.891-3.389c0.465-1.628,0.282-3.355-0.548-5.183c-0.831-1.861-2.243-3.622-4.236-5.283
	C41.554,13.091,35.64,10.35,28.33,8.622C21.02,6.895,14.574,6.728,8.992,8.124c-2.824,0.698-5,1.861-6.529,3.489
	c-1.229,1.263-1.943,2.658-2.143,4.187c-0.332,2.459,0.482,5.167,2.442,8.124c2.591,3.888,6.844,7.526,12.759,10.915
	c6.977,3.987,15.201,7.343,24.67,10.067c9.237,2.658,17.942,4.22,26.115,4.685c0.167,6.081,1.96,12.443,5.383,19.088
	c4.319,8.406,10.15,14.354,17.493,17.842c-4.22,1.496-7.875,3.904-10.964,7.227c-3.489,3.688-5.466,7.709-5.931,12.062
	c-0.299,2.99,0.299,6.13,1.794,9.419c2.126,4.719,5.798,8.557,11.015,11.514c0.432,2.358,1.412,4.469,2.94,6.329
	c1.562,1.927,3.456,3.256,5.682,3.987c2.259,0.73,4.602,0.764,7.027,0.1c2.393-0.665,4.585-1.961,6.579-3.888
	c6.279,0.565,12.011-0.481,17.194-3.14c5.914-3.057,9.603-7.658,11.063-13.806c0.798-3.422,0.632-7.11-0.498-11.063
	c-1.495-5.217-4.519-9.652-9.07-13.308c13.623-3.688,23.939-12.343,30.949-25.966c3.854,0.266,8.29,0.897,13.308,1.894
	c5.064,0.976,8.854,1.981,11.396,3.014c-0.459,0.655-0.743,1.408-0.831,2.269c-0.133,1.694,0.516,3.538,1.943,5.532
	c1.43,1.96,3.456,3.82,6.08,5.582c4.818,3.156,10.467,5.432,16.945,6.828c6.479,1.395,12.045,1.527,16.696,0.398
	c5.117-1.229,7.741-3.788,7.874-7.676C230.442,80.406,228.465,76.801,224.445,73.014z"/>
</svg>
