<?xml version="1.0" encoding="utf-8"?>
<!-- Generator: Adobe Illustrator 16.0.0, SVG Export Plug-In . SVG Version: 6.00 Build 0)  -->
<!DOCTYPE svg PUBLIC "-//W3C//DTD SVG 1.1//EN" "http://www.w3.org/Graphics/SVG/1.1/DTD/svg11.dtd">
<svg version="1.1" id="图层_1" xmlns="http://www.w3.org/2000/svg" xmlns:xlink="http://www.w3.org/1999/xlink" x="0px" y="0px"
	 width="267px" height="175px" viewBox="0 0 267 175" enable-background="new 0 0 267 175" xml:space="preserve">
<path d="M266.649,66.014c-0.734-3.673-5.409-9.166-14.023-16.478c-8.515-7.212-14.208-10.701-17.079-10.468
	c-1.803,0.134-5.926,1.82-12.371,5.059c-6.21,3.172-9.833,5.309-10.867,6.411c-0.368,0.4-1.954,3.689-4.759,9.866l-4.407,9.566
	h-4.858l-5.108,0.2c-0.268,0.134-1.619,2.771-4.057,7.914l-4.107,8.063c-0.868-0.134-3.422-1.436-7.662-3.907
	c-4.241-2.471-7.129-4.34-8.665-5.609l0.101-3.055c0-14.291-4.825-25.526-14.475-33.707c-7.947-6.745-18.215-10.802-30.802-12.171
	c-2.538-5.81-6.043-11.803-10.518-17.98c-4.808-6.578-8.264-9.817-10.368-9.716c-2.204,0.1-5.359,4.24-9.466,12.421
	c-2.738,5.476-5.125,10.952-7.162,16.428c-13.356,3.072-22.738,7.813-28.147,14.224c-5.442,6.411-8.164,15.977-8.164,28.698
	l0.101,4.909l-3.406,7.312l-3.155,5.66c-0.267,0.267-4.074,1.436-11.419,3.506c-7.313,2.07-11.202,3.355-11.67,3.855
	c-1.836,2.004-4.224,7.18-7.162,15.527c0,1.302,1.719,4.875,5.159,10.718l-3.206,3.005c-4.274,3.84-7.129,6.511-8.564,8.014
	c-3.339,3.473-5.376,6.428-6.11,8.865C0.083,143.812,0,144.496,0,145.197c0,4.24,2.02,9.917,6.06,17.029
	c3.974,7.012,7.396,11.052,10.268,12.12l13.723,0.501c5.977-0.602,9.616-1.386,10.918-2.354c0.901-0.635,2.404-3.907,4.507-9.817
	c1.536-4.308,2.838-8.331,3.907-12.07l4.157,0.2l3.406-0.301c0.701-0.267,1.536-0.9,2.504-1.902
	c1.035-1.102,1.603-2.037,1.703-2.805l0.1-2.004c0-4.641-0.334-7.479-1.002-8.514c-0.567-0.969-5.876-4.525-15.927-10.668
	l0.501-4.008c0.167-1.736,0.1-2.771-0.2-3.104c-0.301-0.401-2.337-0.685-6.11-0.852l-6.161-0.2l-1.202-5.56l-1.252-6.461
	l13.823,1.603c0.468-0.268,1.887-2.688,4.257-7.262l4.107-8.064c1.736,9.25,4.274,17.113,7.613,23.59
	c2.705,5.275,5.643,9.183,8.815,11.721c0.734,0.567,1.619,0.852,2.654,0.852l3.406-0.552l3.707,2.854
	c2.371,1.77,3.89,2.805,4.558,3.105c1.102,1.67,2.854,3.439,5.259,5.309c2.337,1.871,4.023,2.855,5.059,2.955
	c1.269,0.101,3.339-0.701,6.21-2.403c2.571-1.536,4.357-2.839,5.359-3.907l15.927-1.752c8.548-1.27,13.907-2.438,16.077-3.506
	c1.436,1.268,3.205,2.287,5.309,3.055c1.803,0.635,3.039,0.868,3.707,0.701c1.234-0.301,2.838-1.436,4.808-3.406
	c1.603-1.636,3.005-3.338,4.207-5.108c1.804-1.202,3.489-2.905,5.059-5.108c1.47-2.17,3.122-7.195,4.958-15.075
	c1.703-7.279,2.755-13.339,3.156-18.181c2.003,1.97,4.674,4.207,8.014,6.711c3.338,2.504,5.441,3.856,6.311,4.057
	c0.768,0.168,3.639-0.267,8.613-1.302c5.076-1.035,7.797-1.819,8.164-2.354c0.201-0.233,0.869-5.058,2.004-14.474l3.005,0.952
	c1.335,0.468,2.404,0.952,3.206,1.453l0.9,5.66l0.952,4.809c0.267,0.934,2.37,2.888,6.311,5.859
	c3.907,2.972,6.345,4.457,7.313,4.457c0.901,0,2.204-0.334,3.906-1.002c1.771-0.701,2.805-1.352,3.105-1.953l1.202-4.057
	l1.201-5.709c6.378,2.637,10.268,3.873,11.67,3.705c1.236-0.133,4.574-2.437,10.018-6.911c5.041-4.173,8.363-7.195,9.967-9.065
	c0.367-0.434,0.969-2.003,1.803-4.708C266.499,68.969,266.85,66.982,266.649,66.014z"/>
</svg>
