<?xml version="1.0" encoding="utf-8"?>
<!-- Generator: Adobe Illustrator 16.0.0, SVG Export Plug-In . SVG Version: 6.00 Build 0)  -->
<!DOCTYPE svg PUBLIC "-//W3C//DTD SVG 1.1//EN" "http://www.w3.org/Graphics/SVG/1.1/DTD/svg11.dtd">
<svg version="1.1" id="图层_1" xmlns="http://www.w3.org/2000/svg" xmlns:xlink="http://www.w3.org/1999/xlink" x="0px" y="0px"
	 width="264px" height="270px" viewBox="0 0 264 270" enable-background="new 0 0 264 270" xml:space="preserve">
<path d="M261.805,232.327c-0.434-3.298-2.481-6.013-6.146-8.144c-4.33-2.531-10.576-3.947-18.736-4.248l-11.941,0.699l-8.502,0.326
	c0.271-0.171,0.408-0.626,0.408-1.375l-0.549-9.493l4.546,3.248l4.796,3.396c0.234,0.168,0.15-1.331-0.248-4.495l4.297,5.896
	c0.332,0.366,0.582,0.135,0.748-0.699l0.5-2.099l2.099,2.397c0.801,0.699,1.25,0.367,1.35-1c0.267-7.727,0.333-13.488,0.199-17.286
	l3.299,3.248c0.732,0.5,1.165,0.149,1.3-1.05l-0.101-10.143l1.248,0.898l1.399,1.15c1.564,1.631,2.363,2.113,2.396,1.447
	l-0.898-3.896l-3.947-16.638l2.799,3.347l3.298,4.348c1.267,2.031,2.183,3.064,2.748,3.098c0.633,0,0.666-1.232,0.101-3.697
	l-2.449-11.59c2.799,2.664,3.881,2.53,3.248-0.399l-3.146-12.343c-1.799-7.026-2.648-10.574-2.549-10.642l1.749,0.949l2.147,1.099
	l2.897,0.15c0.133-0.301-0.3-1.299-1.299-2.998c-1-1.732-2.466-3.848-4.396-6.346l-4.548-5.845c4.896,2.864,9.043,4.78,12.44,5.745
	l3.496,0.101c0.4-0.433,0.067-1.398-0.998-2.896l-11.592-15.04c-5.097-6.528-9.061-11.991-11.892-16.388
	c1.3-0.133,2.099-0.45,2.397-0.949c0.399-0.667-0.032-1.749-1.299-3.248l-5.146-5.146l6.296-1.249c1.531-0.2,2.281-0.5,2.248-0.899
	c0-0.366-0.666-0.982-1.998-1.849c-2.565-1.765-8.276-5.379-17.14-10.842l2.398-0.3c0.733-0.366,0.949-0.733,0.65-1.099
	c-0.233-0.3-1.066-0.816-2.498-1.549l-7.295-3.098l-6.445-2.698c0.467-0.233,1.682-0.683,3.646-1.349l3.947-1.399
	c1.799-0.833,2.564-1.599,2.299-2.298c-0.268-0.699-1.467-1.132-3.599-1.299c-4.097-0.267-8.51-0.333-13.239-0.2l-11.143,0.2
	l0.8-0.949l0.999-1.299c0.666-1.632,0.733-2.548,0.2-2.748c-0.367-0.133-1.383,0.083-3.048,0.649l-18.438,6.345l-1.049,0.25
	l0.199-1.149l1-3.048c0.699-1.999,0.615-3.098-0.25-3.297c-0.732-0.167-1.916,0.283-3.548,1.349L153.934,67
	c-2.026,1.182-3.682,2.153-5.007,2.938c2.243-4.748,4.61-9.143,7.104-13.181c6.43-10.459,13.99-19.002,22.684-25.631
	c2.799-2.365,5.563-4.097,8.294-5.196c2.698-1.099,5.612-1.649,8.743-1.649c5.863,0,10.959-1.499,15.289-4.497
	c3.598-2.498,6.379-5.796,8.344-9.893c0.866-1.832,0.866-3.664,0-5.496c-0.998-2.198-2.965-3.531-5.896-3.997
	c-5.429-0.865-10.908-0.398-16.438,1.4c-6.595,2.165-11.075,5.763-13.44,10.792c-1.766,3.797-3.329,6.579-4.695,8.344
	c-1.698,2.199-4.264,4.563-7.693,7.095c-8.461,6.229-16.505,15.589-24.134,28.08c-0.591,0.968-1.144,1.938-1.706,2.908
	c3.819-11.68,6.258-20.451,7.303-26.291l0.801-5.296c0.1-1.333-0.102-2.148-0.6-2.448c-0.666-0.4-2.416,1.232-5.246,4.896
	c-5.664,7.361-10.076,13.69-13.24,18.986c-3.131,5.163-6.813,12.241-11.042,21.234c-0.866,1.832-1.515,2.731-1.948,2.698
	l-1.899-1.849c-10.059-11.158-18.853-19.219-26.38-24.182c-2.665-1.765-4.396-2.415-5.196-1.949c-0.633,0.367-0.6,1.283,0.1,2.748
	c1.799,3.564,4.78,8.927,8.943,16.088l9.943,17.237l-0.799-0.2c-0.358-0.168-0.686-0.188-0.99-0.09
	c-2.632-2.158-5.582-4.392-8.853-6.705c-13.291-9.393-25.998-15.788-38.122-19.186c-5.096-1.433-8.71-2.582-10.842-3.448
	c-3.597-1.465-6.895-3.381-9.893-5.746c-3.464-2.731-7.162-4.597-11.092-5.596c-3.531-0.899-7.628-1.199-12.291-0.899
	c-3.897,0.267-7.211,1.399-9.942,3.397C1.332,44.415,0.066,46.68,0.3,49.211c0.233,2.831,1.765,5.296,4.597,7.395
	c2.332,1.732,5.179,2.998,8.543,3.797c3.764,0.899,7.228,1.199,10.393,0.899c2.931-0.266,5.829-1.049,8.693-2.348
	c3.531-1.565,8.127-1.832,13.79-0.799c2.631,0.5,6.911,1.715,12.84,3.646c10.226,3.297,21.151,9.509,32.776,18.636
	c3.166,2.486,6.016,4.877,8.558,7.175c-0.525-0.023-1.077-0.049-1.663-0.08l-14.089-1.25l-4.747-0.1
	c-0.566,0.366-0.25,1.449,0.949,3.248l1.349,2.298c0.5,0.999,0.649,1.532,0.45,1.599c-6.229,2.365-12.924,5.146-20.085,8.344
	c-1.299,0.733-1.866,1.316-1.699,1.749c0.2,0.566,1.566,1.016,4.097,1.349c-2.032,0.766-4.996,2.182-8.894,4.247l-7.344,4.247
	c-1.099,0.732-1.433,1.315-1,1.749c0.267,0.3,1.216,0.733,2.848,1.299l4.047,1.399l-4.996,6.895l-5.796,8.044
	c-1.033,1.632-1.316,2.565-0.85,2.798l2.298-0.25l6.096-1.599c-4.264,8.293-7.694,17.17-10.292,26.629
	c-0.633,2.267-0.616,3.682,0.05,4.248c0.566,0.465,1.416,0.299,2.548-0.5c1.666-1.199,3.364-2.666,5.096-4.396
	c-0.167,1.564-0.55,7.128-1.149,16.688c-0.133,2.299,0.15,3.465,0.849,3.498c0.466,0,1.232-0.582,2.298-1.748l3.198-4.248
	l2.698-3.797l0.75,18.836c0.1,2.1,0.45,3.131,1.049,3.099c0.333,0,1.382-0.666,3.147-1.999l4.147,26.73
	c0.833,4.764,1.899,4.945,3.198,0.549l1.599-6.345l1.149-4.896c0.799,2.996,1.516,6.595,2.148,10.791
	c0.5,2.031,0.949,3.098,1.349,3.197c0.366,0.066,0.966-0.666,1.798-2.197l1.799-3.848c1.732,4.063,4.297,9.209,7.694,15.438
	c0.748,1.37,1.45,2.638,2.116,3.819c-3.815-0.522-7.427-0.729-10.81-0.572c-6.895,0.333-11.991,1.999-15.289,4.996
	c-3.098,2.798-3.897,5.994-2.398,9.593c1.432,3.331,4.563,6.146,9.393,8.442c1.032,1.934,3.014,3.683,5.945,5.246
	c4.863,2.6,11.042,4.613,18.536,6.047c7.295,1.398,14.506,1.98,21.634,1.748c7.461-0.232,13.523-1.35,18.188-3.348
	c5.162-2.197,7.928-5.246,8.293-9.143c0.246-2.584-1.578-4.98-5.422-7.193l0.275-2.15l3.448,2.398l2.098,1.498l2.05,1.301
	c0.332,0.065,0.648-0.434,0.948-1.5c0.366-2.631,0.634-4.131,0.8-4.496c0.467,0.332,2.098,2.299,4.896,5.896
	c0.698,0.633,1.216,0.633,1.549,0l1.399-3.547c1.564,0.899,3.597,2.248,6.095,4.047c1.032,0.8,1.716,1.101,2.049,0.899l1.399-2.299
	l4.597-8.045l0.851,2.249c0.498,1.199,0.932,1.815,1.299,1.849c0.365,0.033,1.031-0.815,1.998-2.549l1.948-3.396
	c0.666,1.864,1.132,3.431,1.398,4.696c0.3,1.231,0.684,1.832,1.149,1.798c0.398-0.066,0.767-0.599,1.098-1.599l0.801-2.799
	l1.05-2.896c1.132,1.998,2.081,2.349,2.849,1.05c0.565-0.968,1.299-3.531,2.196-7.695c1.333,3.498,2.148,6.496,2.449,8.994
	c0.133,1.099,0.449,1.134,0.949,0.101l1.299-4.297l2.049,3.598c0.466,0.633,0.933,0.466,1.397-0.5l0.234-0.497
	c2.998,3.905,7.01,6.925,12.057,9.041c10.094,4.229,22.699,4.38,37.822,0.448c4.764-1.231,8.094-2.598,9.992-4.097
	c1.066-0.799,1.815-1.715,2.248-2.747c1.399-0.732,2.682-1.815,3.848-3.248C261.387,237.906,262.203,235.191,261.805,232.327z
	 M215.838,220.986c-0.771-0.193-1.8-0.543-3.07-1.041l0.172-2.008c1.166,1.698,2.115,2.697,2.849,2.998
	c0.049,0.021,0.093,0.031,0.139,0.047L215.838,220.986z"/>
</svg>
