<?xml version="1.0" encoding="utf-8"?>
<!-- Generator: Adobe Illustrator 16.0.0, SVG Export Plug-In . SVG Version: 6.00 Build 0)  -->
<!DOCTYPE svg PUBLIC "-//W3C//DTD SVG 1.1//EN" "http://www.w3.org/Graphics/SVG/1.1/DTD/svg11.dtd">
<svg version="1.1" id="图层_1" xmlns="http://www.w3.org/2000/svg" xmlns:xlink="http://www.w3.org/1999/xlink" x="0px" y="0px"
	 width="129px" height="193px" viewBox="0 0 129 193" enable-background="new 0 0 129 193" xml:space="preserve">
<path d="M126.83,134.832c-1.168-6.08-3.707-11.658-7.615-16.735c-3.739-4.88-8.117-8.405-13.119-10.609
	c0.84-1.332,1.656-2.938,2.447-4.823c1.035-2.404,1.72-4.659,2.054-6.763c0.335-2.104,0.2-3.357-0.4-3.758
	c-0.802-0.568-2.688,0.284-5.662,2.555c-2.355,1.759-4.138,3.397-5.359,4.915c-0.058-1.957-0.403-3.864-1.054-5.717
	c-1.169-3.474-3.24-6.363-6.213-8.668c-4.075-3.14-9.169-4.877-15.281-5.211L63.75,79.517c-1.169-0.267-3.023-1.737-5.562-4.409
	l-1.418-1.652c4.592,2.8,10.64,3.706,18.152,2.704l10.472-2.054c4.008-0.935,6.831-1.436,8.468-1.503l5.36,0.701
	c1.805,0.067,2.873-0.066,3.207-0.4c0.134-0.101,0.051-0.401-0.25-0.902l-1.954-2.405c2.104-0.835,3.758-2.087,4.96-3.758
	c1.103-1.503,1.387-2.438,0.852-2.806l-10.521-0.401c-6.681,0.668-14.246,2.154-22.697,4.459c-5.778,1.57-10.872,1.704-15.281,0.401
	c-0.501-0.143-0.973-0.31-1.432-0.487c5.013-2.947,9.436-6.92,13.256-11.939c4.811-6.413,7.082-12.827,6.814-19.24
	c-0.334-7.549-2.438-13.645-6.313-18.288c-3.038-3.658-6.413-5.772-10.121-6.364c-0.78-1.393-1.694-2.698-2.755-3.907
	c-2.605-2.973-5.795-5.027-9.57-6.163c-4.543-1.37-8.935-1.503-13.177-0.401C30.315,1.7,27.23,3.578,24.962,6.316
	c-4.418,0.456-8.525,1.955-12.318,4.508C7.6,14.231,4.093,18.858,2.122,24.703c-1.715,5.02-1.852,9.465-0.452,13.35
	c-0.883,2.966-1.422,6.014-1.602,9.147c-0.267,5.044,0.401,9.837,2.004,14.38c2.906,8.117,8.15,13.21,15.733,15.282
	c6.907,1.884,14.142,0.951,21.703-2.79c-2.558,4.006-5.479,7.297-8.776,9.854c-8.785,6.781-15.683,13.795-20.693,21.044
	c-4.242,6.112-5.745,9.786-4.509,11.022c0.334,0.301,1.403,0.201,3.207-0.301c1.971-0.534,4.025-1.353,6.163-2.455
	c-0.067,2.605,0.134,4.543,0.602,5.813c0.267,0.734,0.551,1.136,0.852,1.202c0.568,0.134,1.27-0.284,2.104-1.253
	c0.051-0.06,0.103-0.132,0.153-0.195c0.124,2.032,0.641,3.781,1.6,5.206c-2.672-1.169-4.042-1.703-4.108-1.603
	c-0.1,0.1,0.05,0.867,0.451,2.305l0.602,2.154l-1.854-0.201l-1.753,0.101l0.651,1.903l1.002,2.055
	c-4.676,5.912-7.064,12.994-7.165,21.244v0.351c0,9.687,3.958,18.354,11.875,26.004c0.246,0.237,0.499,0.459,0.747,0.689
	c-0.1,0.585-0.137,1.204-0.096,1.866c0.067,1.002,0.251,1.653,0.551,1.954c0.301,0.267,1.069,0.417,2.305,0.45l2.171-0.291
	c7.335,5.12,15.877,7.797,25.637,8.008c6.18,0.133,12.108-0.969,17.787-3.307c4.54-1.898,8.62-4.467,12.255-7.681
	c0.002-0.002,0.004-0.004,0.007-0.006c0.617-0.546,1.222-1.109,1.813-1.693c0.089-0.089,0.185-0.174,0.272-0.264
	c0.06-0.061,0.123-0.116,0.183-0.177c4.074-4.143,7.215-9.053,9.42-14.73c0.128-0.332,0.241-0.672,0.363-1.007
	c12.744,1.94,21.965,0.21,27.645-5.206c2.738-2.572,4.609-5.796,5.611-9.67C127.582,143.449,127.666,139.307,126.83,134.832z
	 M21.713,136.735c1.135,0.769,1.804,1.103,2.004,1.002c0.267-0.167,0.134-1.554-0.401-4.159c2.104,1.069,3.24,1.504,3.407,1.303
	c0.167-0.133-0.117-1.285-0.852-3.457c5.178,3.475,11.19,5.145,18.038,5.011l6.714-0.852c1.771-0.468,2.739-0.952,2.906-1.453
	c0.367-0.969-0.785-2.973-3.458-6.013c-3.04-3.44-6.229-5.461-9.57-6.063c3.774-1.604,6.797-4.893,9.069-9.87
	c2.004-4.442,2.572-7.198,1.704-8.267c-0.234-0.334-1.203-0.502-2.906-0.502l-5.913,0.651c-5.845,1.236-9.954,3.657-12.326,7.265
	c-0.119-2.62-0.532-4.691-1.235-6.224c8.354-8.775,14.11-18.339,17.256-28.696l1.766,12.224c2.071,9.554,5.094,16.952,9.069,22.196
	c3.368,4.42,7.557,7.598,12.541,9.572c3.708,2.532,6.814,6.196,9.305,11.02c3.007,5.846,4.843,12.895,5.511,21.145
	c0.024,0.291,0.035,0.572,0.055,0.86l-5.516-1.011c-6.18-1.203-12.107-1.253-17.787-0.15c-4.843,0.936-9.002,2.572-12.476,4.91
	c-2.205-2.371-3.441-3.508-3.708-3.407c-0.234,0.101-0.417,1.37-0.551,3.808l-1.703-1.353c-0.735-0.567-1.169-0.818-1.303-0.751
	c-0.134,0.033-0.101,0.65,0.1,1.854l0.501,2.705c-3.14-3.439-7.465-5.377-12.977-5.812l-5.511,0.251
	c-1.537,0.3-2.388,0.718-2.555,1.252c-0.334,1.136-0.034,2.723,0.902,4.76c1.269,2.84,3.44,4.793,6.513,5.862
	c-2.429,1.261-4.256,3.095-5.496,5.486c-5.858-6.081-8.841-12.902-8.934-20.468v-0.451c0-6.479,1.771-11.84,5.311-16.082
	L21.713,136.735z M36.493,175.615c0.301,1.404,0.752,2.623,1.353,3.658c0.558,1.022,1.339,2.027,2.317,3.017
	c-2.532-0.686-4.947-1.625-7.246-2.82C34.425,178.416,35.63,177.141,36.493,175.615z M48.518,175.516
	c-0.234-3.34-1.102-6.146-2.605-8.418l2.154,1.403c0.902,0.567,1.419,0.818,1.553,0.752c0.267-0.134,0.067-1.687-0.602-4.659
	l2.055,1.002c0.902,0.434,1.419,0.601,1.553,0.5c0.133-0.133,0.066-0.852-0.201-2.154l-0.551-2.455
	c7.015-4.676,16.734-5.344,29.16-2.004l3.395,0.86c-0.11,1.669-0.31,3.273-0.602,4.807c-3.033,5.662-7.428,10.161-13.214,13.473
	c-5.979,3.44-12.56,5.128-19.741,5.061c-1.132-0.004-2.242-0.056-3.336-0.14C48.438,181.234,48.77,178.563,48.518,175.516z
	 M95.215,130.271c-1.002-5.106-2.422-9.603-4.247-13.505c8.222,0.098,15.522,2.415,21.884,6.991
	c4.684,3.346,7.885,7.275,9.619,11.782c1.035,3.346,0.53,6.733-1.553,10.164c-2.037,3.407-4.977,5.979-8.818,7.716
	c-3.49,1.599-9.082,2.073-16.744,1.441c0.647-3.215,1.024-6.564,1.112-10.059C96.602,140.159,96.184,135.316,95.215,130.271z"/>
</svg>
