<?xml version="1.0" encoding="utf-8"?>
<!-- Generator: Adobe Illustrator 16.0.0, SVG Export Plug-In . SVG Version: 6.00 Build 0)  -->
<!DOCTYPE svg PUBLIC "-//W3C//DTD SVG 1.1//EN" "http://www.w3.org/Graphics/SVG/1.1/DTD/svg11.dtd">
<svg version="1.1" id="图层_1" xmlns="http://www.w3.org/2000/svg" xmlns:xlink="http://www.w3.org/1999/xlink" x="0px" y="0px"
	 width="191px" height="225px" viewBox="0 0 191 225" enable-background="new 0 0 191 225" xml:space="preserve">
<path d="M186.41,92.883c-2.055-7.06-6.638-14.561-13.733-22.501l1.106-1.107l0.449-0.799v-0.149
	c-0.199-0.865-1.631-1.647-4.293-2.346c1.266-1.93,2.131-3.793,2.596-5.59c0.533-1.963,0.35-3.028-0.549-3.194
	c-1.098-0.167-2.629,0.1-4.592,0.798c-1.644,0.595-3.275,1.383-4.896,2.34c-7.778-6.779-16.51-12.569-26.199-17.364
	c-1.789-0.894-3.566-1.72-5.335-2.498c7.567-0.571,15.268-2.538,23.104-5.937c7.819-3.427,13.992-7.454,18.518-12.079
	c4.025-4.159,6.389-8.235,7.087-12.229c0.665-3.727-0.233-6.605-2.695-8.634c-2.03-1.664-4.525-2.08-7.487-1.248
	c-4.158,1.131-8.201,4.775-12.128,10.931c-4.525,7.054-10.148,12.262-16.87,15.622c-7.453,3.76-16.42,5.374-26.902,4.842
	c-5.29-0.267-9.433-0.316-12.428-0.15c-2.695,0.133-5.24,0.499-7.636,1.098c-3.926,0.998-8.601,3.294-14.025,6.888
	c-13.376,8.984-30.945,9.35-52.707,1.098c-6.655-2.528-12.228-3.677-16.72-3.443c-4.559,0.266-7.586,1.913-9.084,4.941
	c-1.597,3.228-1.264,6.306,0.999,9.234c2.496,3.261,7.038,5.823,13.625,7.686c8.418,2.396,17.719,3.361,27.9,2.895
	c10.299-0.475,19.482-2.371,27.578-5.653c-0.242,0.353-0.482,0.697-0.726,1.061c-5.869,8.725-10.222,18.262-13.108,28.583
	l-12.896-0.433c-2.828,0.399-4.509,0.915-5.041,1.547l-0.2,0.449l0.05,0.149c0.167,0.566,1.032,1.447,2.596,2.646l3.843,2.645
	c-0.865,0.732-1.581,1.614-2.146,2.646c-0.499,0.932-0.682,1.547-0.549,1.847c0.233,0.532,1.397,0.616,3.494,0.25l4.093-0.849
	l4.085,1.078c-1.275,7.398-1.799,14.064-1.576,19.999c-2.945,0.999-5.43,2.44-7.451,4.329c-1.896,1.697-3.194,3.576-3.893,5.64
	c-0.932-3.294-3.061-6.173-6.389-8.635c-2.995-2.229-5.141-3.077-6.438-2.546c-0.765,0.3-1.331,1.432-1.697,3.395
	c-0.399,1.996-0.449,4.275-0.15,6.838c0.732,6.588,3.095,11.529,7.087,14.824l-3.394-0.749l-0.699,0.1
	c-0.133,0.133-0.1,0.416,0.1,0.849l1.098,1.746l1.398,2.097l-3.893-0.199l-0.699,0.149c-0.167,0.166-0.083,0.466,0.25,0.898
	l3.094,3.544c-3.028,4.991-4.792,10.515-5.291,16.57c-0.433,4.625-0.116,8.901,0.948,12.827c2.329,8.751,6.655,15.556,12.977,20.414
	c6.255,4.791,14.208,7.453,23.857,7.985c5.207,0.29,10.82-0.612,16.833-2.682c5.172,6.838,12.183,11.482,21.049,13.912
	c9.284,2.562,18.252,1.979,26.902-1.747c5.258-2.263,9.999-5.906,14.225-10.931c4.193-4.958,7.521-10.864,9.982-17.718
	c2.795-7.787,4.01-16.654,3.644-26.604c-0.445-12.061-3.271-24.365-8.464-36.912c-0.149-0.996-0.362-2-0.67-3.017
	c-1.098-3.594-3.027-6.871-5.789-9.833c-2.762-2.995-7.77-7.171-15.023-12.528c-3.128-2.296-5.823-5.058-8.086-8.285l-1.996-3.392
	c6.117,0.605,13.116,0.112,21.012-1.5c6.372-1.305,11.537-2.875,15.527-4.703c2.682,4.516,5.342,9.407,7.981,14.686
	c3.062,6.156,6.888,10.232,11.479,12.228c4.193,1.797,7.887,1.531,11.08-0.798C187.509,105.278,188.474,100.17,186.41,92.883z
	 M135.651,208.707c-0.728,0.586-1.487,1.146-2.296,1.668c-3.561,2.328-7.637,3.893-12.229,4.691
	c-5.457,0.932-11.03,0.565-16.721-1.099c-5.656-1.63-10.547-4.292-14.673-7.985l-2.953-3.089c4.284-1.98,8.365-4.438,12.235-7.393
	c6.189-4.692,11.746-10.614,16.671-17.769c6.275-9.101,11.133-19.718,14.586-31.836c1.897-0.134,3.822-0.487,5.777-1.09l1.697,1.781
	c1.563,1.863,2.979,4.043,4.243,6.538c3.992,7.952,5.673,17.569,5.041,28.849C146.447,192.608,142.647,201.516,135.651,208.707z
	 M47.009,197.397c-7.354-4.792-12.128-11.229-14.325-19.315c-2.429-9.25-1.381-17.436,3.145-24.557l4.392,1.148l0.849-0.1
	c0.1-0.134,0.033-0.416-0.2-0.85l-1.647-2.795l3.144,0.799h0.749c0.166-0.1,0.149-0.399-0.05-0.898l-1.098-2.496
	c8.605,4.349,16.579,3.953,23.924-1.151c-0.161,0.246-0.22,0.399-0.166,0.453l2.845,2.646c2.296,1.863,4.708,3.277,7.237,4.242
	l-3.843,0.648c-0.499,0.134-0.766,0.283-0.799,0.449l0.35,0.649l2.995,2.296l-3.344,2.047c-0.433,0.266-0.615,0.498-0.549,0.698
	l0.649,0.499l3.494,1.397c-1.065,5.324-1.597,10.298-1.597,14.924c0,8.639,1.333,15.739,3.976,21.327
	c-4.595,2.347-9.097,3.689-13.504,4.012C57.855,202.867,52.311,200.859,47.009,197.397z M55.934,133.584
	c0.587,1.52,1.246,2.893,1.978,4.109c-0.385-0.142-0.829-0.287-1.37-0.439l-2.595-0.648C54.97,135.582,55.63,134.574,55.934,133.584
	z M137.148,76.712c-5.31,2.77-10.567,4.711-15.777,5.83c2.571-1.843,4.787-4.151,6.644-6.928c3.727-5.523,4.975-11.363,3.743-17.519
	c-0.354-1.667-1.102-3.448-2.24-5.345c5.558,4.646,11.033,10.792,16.425,18.438C143.659,73,140.732,74.841,137.148,76.712z
	 M79.036,74.329c0.559,1.545,1.399,3.057,2.561,4.53c1.331,1.664,2.928,3.127,4.792,4.392c3.56,2.329,7.669,3.793,12.328,4.392
	c1.373,0.183,2.736,0.275,4.092,0.297c-5.819,2.271-14.315,2.551-25.488,0.84c0.013-0.295,0.018-0.592,0.034-0.887
	C77.595,83.161,78.16,78.644,79.036,74.329z M111.194,145.19c0.333,2.429,0.283,5.091-0.149,7.985
	c-1.331,9.217-6.189,19.116-14.574,29.697c-4.324,5.471-8.937,9.885-13.832,13.274c-2.682-5.55-4.036-11.718-4.036-18.515
	c0-4.858,0.565-9.417,1.697-13.676l4.342-0.549l0.849-0.25c0.133-0.166,0.017-0.449-0.35-0.849l-1.747-1.597l-1.647-1.348
	l3.893-0.648l0.848-0.35l-0.699-0.749l-1.996-1.348c6.488-0.1,12.112-1.93,16.87-5.49c3.794-2.828,5.706-5.257,5.739-7.287
	c0.034-1.064-1.979-2.213-6.039-3.444c-4.259-1.297-7.669-1.514-10.231-0.648c2.096-3.926,2.529-8.635,1.298-14.125
	c-1.098-4.857-2.329-7.42-3.693-7.686c-1.065-0.2-2.562,0.531-4.492,2.195c-1.406,1.188-2.41,2.314-3.021,3.379
	c-0.191-3.044-0.611-6.395-1.271-10.066c-0.834-4.786-1.358-9.513-1.593-14.186c4.822-0.027,9.4-0.466,13.722-1.337
	c5.541-1.096,10.149-2.826,13.852-5.174c0.107,0.825,0.216,2.753,0.323,5.823c0.167,4.858,0.101,9.234-0.199,13.127l-0.101,2.046
	c-0.299,5.923-0.299,10.465,0,13.626c0.533,5.49,1.931,10.183,4.193,14.075c0.567,0.984,1.16,1.941,1.766,2.885L111.194,145.19z"/>
</svg>
