<?xml version="1.0" encoding="utf-8"?>
<!-- Generator: Adobe Illustrator 16.0.0, SVG Export Plug-In . SVG Version: 6.00 Build 0)  -->
<!DOCTYPE svg PUBLIC "-//W3C//DTD SVG 1.1//EN" "http://www.w3.org/Graphics/SVG/1.1/DTD/svg11.dtd">
<svg version="1.1" id="图层_1" xmlns="http://www.w3.org/2000/svg" xmlns:xlink="http://www.w3.org/1999/xlink" x="0px" y="0px"
	 width="166px" height="171px" viewBox="0 0 166 171" enable-background="new 0 0 166 171" xml:space="preserve">
<path d="M158.838,50.666c-1.529-1.396-2.958-2.377-4.288-2.942c0.897-2.66,1.214-4.272,0.948-4.837
	c-0.267-0.565-1.33-0.366-3.192,0.599l-2.593,1.596c-1.297,0.765-2.41,1.197-3.342,1.296l-11.569,1.845
	c-3.659,0.825-7.351,1.994-11.076,3.504c1.538-2.36,2.576-4.973,3.113-7.839c5.958-1.71,9.687-3.771,11.155-6.188
	c1.196-1.995,0.781-3.907-1.248-5.735l-1.354-1.035l-0.19-0.312c-0.203-0.106-0.417-0.213-0.641-0.323l-4.995-3.816
	c-3.561-2.486-6.288-4.197-8.204-5.153c-0.697-0.973-1.448-1.932-2.268-2.876c-4.987-5.751-12.768-10.389-23.34-13.914
	C86.246,1.313,77.287-0.2,68.875-0.001c-10.107,0.266-16.025,1.546-17.753,3.84c-1.031,1.297-0.333,4.804,2.094,10.522
	c0.807,1.968,3.229,7.089,7.258,15.345c-0.027,0.04-0.05,0.074-0.077,0.115c-3.059,4.488-5.602,9.06-7.63,13.714
	c-2.028,4.688-3.258,8.843-3.69,12.467c-0.266,2.427-0.117,4.355,0.449,5.785c0.565,1.496,1.662,2.743,3.291,3.74
	c1.23,0.765,2.859,1.662,4.887,2.693l5.352,2.356c0.281,0.146,0.584,0.266,0.932,0.336c1.729,0.366,3.856-0.233,6.383-1.795
	l8.976-5.984c0.632-0.432,1.114-0.648,1.446-0.648l1.446,0.349c1.895,0.631,4.238,1.147,7.031,1.546l5.137,0.279
	c-4.325,1.749-8.47,3.985-12.417,6.752c-3.856,2.693-6.217,4.904-7.081,6.633c-0.499,0.964-0.067,3.341,1.296,7.131
	c1.337,3.699,3.127,7.429,5.335,11.186c-3.85,4.437-7.341,8.141-10.472,11.106c-3.823,3.656-7.813,6.948-11.968,9.873
	c-7.78,5.453-14.877,9.127-21.294,11.021c-1.571,0.47-3.131,0.838-4.68,1.112c-2.541-0.1-4.936-0.445-7.184-1.033
	c1.091-4.629,3.146-9.474,6.179-14.541l4.638,1.297l0.748,0.05c0.133-0.066,0.1-0.316-0.1-0.748l-1.396-3.042l3.79,0.399
	c0.765,0.1,0.931-0.167,0.499-0.799l-1.696-2.394c3.225,1.297,6.683,1.663,10.373,1.097c3.69-0.564,6.849-1.978,9.475-4.238
	c0.599-0.498,0.898-0.881,0.898-1.146l-0.948-1.596c-1.064-1.463-2.577-2.627-4.538-3.491c-1.695-0.698-3.325-1.063-4.887-1.097
	c3.856-3.059,5.868-7.348,6.034-12.867c0.066-1.296-0.033-2.061-0.299-2.294l-2.244-0.299c-5.286,0.133-9.509,2.726-12.667,7.78
	c-0.499-1.996-1.463-3.857-2.892-5.586c-1.596-1.895-3.358-3.158-5.286-3.79l-1.147-0.2c-0.167,0.067-0.349,0.349-0.549,0.848
	c-1.795,3.79-2.477,7.746-2.044,11.868c0.432,4.156,1.878,7.48,4.338,9.975l-3.142-0.648l-0.748-0.051
	c-0.1,0.101-0.05,0.366,0.149,0.799l1.446,3.092l-3.59-0.35l-0.798,0.1c-0.067,0.1,0.05,0.35,0.349,0.748l2.543,3.641
	c-3.535,4.976-6.066,10.178-7.603,15.604c-2.675-1.3-5.098-3.021-7.258-5.182c-5.485-5.452-8.229-12.65-8.229-21.593
	c0-4.488,0.748-9.01,2.244-13.564c1.529-4.721,3.773-9.209,6.732-13.465l3.74,0.698l0.798,0.05l-0.199-0.698l-1.496-2.893
	l3.74,1.097l0.798,0.05l-0.2-0.798l-1.247-3.042c3.956,2.161,8.062,3.175,12.317,3.042c3.99-0.133,7.165-1.213,9.525-3.241
	l0.798-0.798l-0.399-0.948c-1.13-1.662-2.593-3.208-4.388-4.638c-1.928-1.563-3.591-2.41-4.987-2.543
	c1.861-1.363,3.491-3.507,4.887-6.433c1.297-2.792,2.078-5.651,2.344-8.577c0.066-0.765,0.017-1.23-0.15-1.396
	c-0.166-0.166-0.748-0.283-1.745-0.349c-2.56-0.199-5.286,0.432-8.179,1.895c-3.092,1.529-5.353,3.541-6.782,6.034
	c-0.565-4.255-3.191-7.846-7.879-10.771c-0.532-0.333-0.881-0.499-1.047-0.499c-0.167,0.033-0.399,0.25-0.698,0.648
	c-2.228,2.992-3.341,6.666-3.341,11.021c0,4.654,1.313,8.744,3.94,12.268l-3.541-0.648H10.18l0.2,0.748l1.945,3.142l-3.69-0.349
	l-0.698,0.149l0.2,0.599l2.194,3.341C4.046,78.426,0.688,88.416,0.256,98.889c-0.399,10.406,2.161,18.751,7.68,25.034
	c3.271,3.718,7.157,6.58,11.645,8.608c-1.203,8.878,0.578,16.898,5.361,24.056c5.02,7.547,11.885,11.853,20.596,12.916
	c5.652,0.665,11.57,0.034,17.753-1.895c6.283-1.962,12.301-5.12,18.053-9.476c6.683-5.053,12.667-11.137,17.952-18.252
	c4.824-6.508,9.318-14.219,13.485-23.125c5.485-5.696,7.894-12.747,7.21-21.158c-0.199-2.793-1.196-6.383-2.992-10.771
	l-5.036-11.071c-1.92-3.985-3.179-6.787-3.774-8.405c2.007-1.337,4.805-2.675,8.412-4.012c3.657-1.396,6.533-2.194,8.627-2.394
	l11.021-0.698l12.168-0.798c8.478-0.798,12.733-1.979,12.767-3.541C161.216,53.176,160.435,52.096,158.838,50.666z M25.024,134.498
	c3.818,1.063,7.992,1.634,12.533,1.693c14.545,0.197,29.352-5.283,44.418-16.42c0.074-0.031,0.14-0.056,0.215-0.088
	c2.645-1.133,4.642-2.381,5.99-3.743c0.182,0.15,0.351,0.31,0.542,0.452c1.22,0.881,2.579,1.545,4.059,2.027
	c-1.432,8.804-4.734,17.124-9.943,24.952c-5.353,8.079-11.735,14.13-19.149,18.151c-4.954,2.693-9.342,4.206-13.166,4.539
	c-0.378,0.031-0.77,0.042-1.162,0.052c-4.638-0.905-8.892-2.827-12.751-5.787c-4.089-3.092-7.098-6.815-9.026-11.171
	C25.575,144.556,24.728,139.669,25.024,134.498z M98.715,68.46c-0.636,6.112-1.258,9.495-1.863,10.132
	c-3.766,3.924-6.402,6.766-7.939,8.55c-1.374-2.143-2.657-3.904-3.855-5.313c1.471-2.112,3.232-4.238,5.313-6.378
	C92.985,72.774,95.773,70.457,98.715,68.46z M125.966,30.442l0.458,1.125c0.558,2.056,0.828,4.239,0.83,6.539
	C127.16,35.473,126.733,32.917,125.966,30.442z"/>
</svg>
