<?xml version="1.0" encoding="utf-8"?>
<!-- Generator: Adobe Illustrator 16.0.0, SVG Export Plug-In . SVG Version: 6.00 Build 0)  -->
<!DOCTYPE svg PUBLIC "-//W3C//DTD SVG 1.1//EN" "http://www.w3.org/Graphics/SVG/1.1/DTD/svg11.dtd">
<svg version="1.1" id="图层_1" xmlns="http://www.w3.org/2000/svg" xmlns:xlink="http://www.w3.org/1999/xlink" x="0px" y="0px"
	 width="555px" height="672px" viewBox="0 0 555 672" enable-background="new 0 0 555 672" xml:space="preserve">
<path d="M554.48,629.771c-0.233-0.999-0.783-2.265-1.648-3.798l-1.25-1.999l-4.298-6.047c-2.132-2.898-3.914-5.514-5.347-7.846
	c-5.664-9.262-9.812-18.69-12.443-28.285l-4.248-14.242l-1.641-5.177c-0.621-9.566-0.828-20.518-0.608-32.903l0.05-2.898
	c0.033-4.831-0.633-9.679-1.999-14.543c-0.732-2.532-2.365-7.029-4.897-13.493l-1.1-2.798l-8.995-20.89
	c-5.63-12.993-9.111-21.455-10.444-25.387l-10.817-31.867l1.861-0.81c0.375,0.14,0.702,0.201,0.96,0.144l0.899-0.55l0.601-1.199
	c0.799-2.198,1.449-4.48,1.948-6.847c0.233-1.166,0.167-1.999-0.199-2.498c-0.315-0.42-0.921-0.743-1.794-0.978
	c-5.537-2.831-9.005-13.164-10.4-31.006l-0.3-3.648c-0.2-5.064-0.233-9.479-0.1-13.243c0.072-1.979,0.145-3.259,0.218-3.856
	c1.766-3.121,3.624-6.727,5.579-10.836c5.23-10.994,8.129-18.823,8.695-23.487c0.434-3.765,1.199-12.66,2.299-26.687l1.499-20.139
	l-0.05-0.55l-2.448-6.747c-0.5-1.399-0.983-2.082-1.449-2.049c-0.4,0.033-0.783,0.733-1.149,2.099l-10.195,36.531
	c-3.368,12.748-6.179,24.133-8.446,34.189l-1.448,2.092c-0.042,0.067-0.08,0.127-0.121,0.193l-1.978-18.284
	c-1.5-14.592-2.449-26.236-2.849-34.932c-0.2-6.097-1.333-21.672-3.398-46.726l-3.248-37.931
	c-1.233-18.024,5.58-39.896,20.439-65.616c6.696-11.594,16.341-25.553,28.935-41.878c1.666-2.166,2.898-4.498,3.698-6.997
	c0.399-1.199,0.732-2.782,0.999-4.748l1.277-17.338c12.354-17.79,24.424-34.475,36.203-50.026c0.633-0.933,0.85-1.533,0.65-1.799
	c-0.167-0.366-0.8-0.5-1.899-0.399l-9.944,1.149l-0.85,0.45L517.93,36.805c0.909-8.131,1.517-13.011,1.819-14.617
	c0.466-2.432,0.066-4.181-1.199-5.247c-0.767-0.667-1.783-0.983-3.049-0.95l-1.849,0.4c-7.33,2.532-14.976,5.397-22.938,8.595
	c-15.792,6.364-27.003,11.861-33.633,16.492c-2.365,1.732-4.348,3.731-5.946,5.997l-12.294,18.99l-8.195,11.644
	c-2.368,3.763-4.981,7.522-7.827,11.276c5.925-11.64,15.455-27.931,28.616-48.906c8.662-13.76,16.94-26.52,24.837-38.28
	c0.666-0.966,0.883-1.616,0.649-1.949l-1.999-0.15l-10.294,1.049l-0.85,0.5c-13.56,17.224-26.92,34.398-40.079,51.523
	c-26.054,33.916-41.279,54.738-45.677,62.467l-0.35,0.65l-0.649,1.399c-1.833,4.798-3.082,11.96-3.748,21.489
	c-0.271,3.874-0.426,7.563-0.477,11.084c-0.949,1.923-1.779,3.778-2.473,5.557c-0.493,1.316-0.82,2.287-0.997,2.948l-24.539-12.743
	c-1.267-0.7-2.082-0.866-2.449-0.5c-0.3,0.333-0.083,1.149,0.65,2.449l5.946,9.595c4.57,7.23,9.217,14.217,13.934,20.977
	c0.024,0.544,0.054,1.093,0.109,1.661c0.334,3.415,1.351,6.657,3.014,9.737l-0.865,4.705c-1.133,4.998-2.465,8.896-3.997,11.694
	c-0.233,0.399-0.25,0.799-0.051,1.199l17.392,39.279l0.799,1.35c0.367,0.433,0.684,0.633,0.95,0.6
	c0.433-0.067,0.782-0.866,1.049-2.399l1.749-12.244l0.986-6.861c1.697,1.958,3.368,3.146,5.011,3.513
	c1.77,0.415,4.057,0.238,6.842-0.506l5.675-0.336l0.776,7.04c0.262,3.988,0.287,8.188,0.121,12.562
	c-6.496,1.892-10.704,3.486-12.614,4.779c-1.399,0.966-1.499,3.748-0.3,8.346c0.833,3.265,2.199,7.08,4.098,11.444l0.649,0.699
	l4.833,1.623c-0.707,3.412-1.519,6.831-2.441,10.256c-0.905-1.253-1.605-2.068-2.092-2.433c-0.866-0.667-6.413-2.515-16.641-5.547
	l-1.25-0.1c-0.199,0.133-0.35,0.5-0.449,1.099c-0.434,1.633-0.85,4.181-1.249,7.646c-0.566,5.43-0.434,9.728,0.399,12.893
	c1.274,4.681,4.225,11.423,8.815,20.182c-0.346,0.738-0.703,1.478-1.06,2.216l-18.001-12.403
	c-24.587-17.391-37.514-26.403-38.779-27.036c-1.832-0.933-4.498-1.233-7.996-0.9l-4.886,0.798
	c-2.471-6.134-5.147-12.104-8.058-17.889c-4.431-8.829-9.045-16.525-13.843-23.088c-3.632-5.031-5.913-7.713-6.847-8.046l-5.347-0.4
	l-4.797,0.25c-0.633,0.066-1.05,0.233-1.25,0.5c-0.1,0.133-0.117,0.367-0.05,0.7l0.1,0.5l5.797,21.888l7.846,30.435l-9.295-3.499
	l-2.308-0.985c-6.53-10.113-13.618-20.015-21.28-29.699c-8.496-10.761-16.891-20.206-25.187-28.335
	c-6.696-6.597-10.728-10.028-12.094-10.295l-8.695-1.199l-6.646-0.75c-0.833-0.066-1.366,0.066-1.599,0.4
	c-0.2,0.3-0.117,0.816,0.25,1.549l18.541,36.631c12.494,24.887,19.573,39.313,21.239,43.277l-13.874,8.524
	c-7.562-4.746-15.514-9.406-23.906-13.971c-12.493-6.796-25.204-12.993-38.13-18.59l-15.992-6.497l-1.2,0.1
	c-0.366,0.2-0.583,0.533-0.649,1l-1.25,12.394c-0.066,0.466,0.067,0.866,0.4,1.199l28.485,26.086
	c18.881,17.208,30.566,27.704,35.1,31.528l0.382,3.204c0.129,3.089-0.22,5.654-1.024,7.718c-9.69-2.535-19.426-4.401-29.21-5.569
	c-10.294-1.232-20.006-1.615-29.135-1.149l-10.844,1.1c-0.367,0.066-0.633,0.233-0.8,0.499c-0.2,0.301-0.283,0.617-0.25,0.95
	l0.55,9.194c0.067,0.601,0.367,0.983,0.899,1.15l30.035,11.094c21.122,7.629,35.165,12.26,42.128,13.893
	c7.248,1.026,18.133,2.13,32.646,3.312c9.734,4.163,15.187,6.612,16.329,7.333c0.799,0.5,0.983,1.916,0.55,4.248
	c-0.307,1.647-1.029,4.148-2.155,7.479c-6.962,5.191-13.017,11.382-18.159,18.575c-1.735,1.331-3.67,2.738-5.822,4.229
	c-12.127,8.462-28.635,17.99-49.524,28.585c-26.853,12.294-52.973,20.373-78.359,24.237c-20.723,3.165-38.78,3.315-54.172,0.45
	c-11.927-2.199-22.938-5.647-33.033-10.345c-3.198-1.466-6.097-2.981-8.695-4.548l-3.048-1.898
	c-3.665-2.732-6.147-3.365-7.446-1.899l-0.55,1.699c-0.133,1.599,0.466,3.648,1.799,6.146l2.249,3.849
	c1.866,2.965,4.031,5.979,6.497,9.045c7.696,9.595,16.825,17.874,27.386,24.837c14.359,9.495,30.451,16.142,48.275,19.939
	c22.997,4.859,48.363,4.837,76.083-0.034c-1.285,4.12-2.26,7.436-2.921,9.93c-0.633,2.299-0.083,4.83,1.649,7.596
	c0.536,0.882,1.166,1.718,1.888,2.508l-11.533,27.727l-1.149,3.298c-0.733,2.532-1.083,4.848-1.049,6.946l-0.233,20.655
	l-1.866,4.282c-3.898,9.428-6.03,15.691-6.397,18.79c-0.066,0.767,0.033,1.249,0.3,1.449l1.649-0.05
	c7.572-2.856,15.51-5.68,23.811-8.471l3.041-0.338l17.125,23.4c0.533,0.8,0.983,1.2,1.349,1.2c0.333-0.034,0.683-0.467,1.049-1.3
	c5.093-10.752,8.168-17.479,9.229-20.188l24.454,12.892c0.866,0.466,1.433,0.6,1.699,0.399c0.267-0.133,0.4-0.783,0.4-1.949
	c0.033-1.832-0.217-5.58-0.75-11.244c-0.566-5.93-1.149-10.777-1.749-14.542l-0.25-1.999c-0.8-6.43-1.316-11.311-1.549-14.643
	c-0.566-7.329-0.566-13.376,0-18.141c0.246-2.129,0.689-5.429,1.33-9.886c1.531-0.197,3.086-0.64,4.667-1.358
	c2.232-0.966,3.715-2.148,4.448-3.548l3.998-9.795l4.198-11.744c0.6-1.865,0.316-3.647-0.85-5.347
	c-0.582-0.8-1.309-1.519-2.173-2.159c0.426-0.717,0.876-1.442,1.374-2.188c3.298-5.031,7.013-8.629,11.144-10.795
	c5.963-3.132,11.794-6.479,17.491-10.045l0.207-0.135c-1.748,2.68-3.449,5.24-5.104,7.682l-0.5,0.699
	c-0.333,0.6-0.566,1.232-0.7,1.899l-0.85,5.247l-0.578,3.262c-0.893,0.014-1.815,0.199-2.771,0.586
	c-2.765,1.1-4.481,3.582-5.147,7.446l-3.948,21.339c-0.367,2.965,0.7,5.914,3.198,8.846c0.491,0.58,1.038,1.143,1.614,1.695
	l-4.362,19.443l-0.85,5.098c-0.566,3.931-0.85,7.563-0.85,10.895v12.193c-0.027,4.596-0.184,8.375-0.465,11.36l-0.834,2.282
	c-4.664,12.494-7.862,22.139-9.595,28.935c-0.333,1.3-0.317,2.1,0.05,2.399c0.267,0.233,0.95,0.083,2.049-0.45
	c13.826-6.063,22.505-9.994,26.037-11.794c0.112-0.065,0.208-0.148,0.294-0.243l10.051,26.479c0.3,0.866,0.633,1.333,0.999,1.399
	c0.333,0.033,0.783-0.316,1.35-1.049c9.824-13.099,15.827-20.937,18.035-23.549l2.196,0.623c2.97,1.992,11.146,8.114,24.545,18.378
	c0.8,0.699,1.366,0.949,1.699,0.749c0.4-0.232,0.6-0.982,0.6-2.248c0.134-4.331-0.017-9.179-0.449-14.543
	c-0.899-10.428-1.55-19.14-1.949-26.137c-0.6-10.128-0.866-21.771-0.8-34.932c0.027-4.688,0.095-9.245,0.196-13.683l3.952-1.26
	c2.231-1.065,3.697-2.548,4.397-4.447l3.498-14.942l0.547-2.41c0.002,0.035,0.002,0.076,0.003,0.111
	c0.1,2.565,1.149,4.698,3.148,6.396c0.903,0.75,1.969,1.375,3.181,1.886l-0.282,12.707c0,2.998,0.149,5.081,0.449,6.247
	c3.432,13.126,7.547,24.137,12.344,33.032c1.608,2.429,3.833,3.995,6.668,4.711l11.023,6.483l16.291,9.995
	c0.866,0.533,1.416,0.732,1.649,0.6c0.233-0.1,0.399-0.649,0.499-1.649c0.101-1.699-0.549-5.28-1.948-10.743l9.745,3.547
	c7.762,2.965,13.293,5.331,16.591,7.097c0.899,0.399,1.516,0.5,1.85,0.3c0.366-0.267,0.416-0.816,0.149-1.649
	c-0.533-2.099-2.349-6.363-5.447-12.793l-1.046-2.25l25.733,2.699c0.899,0.101,1.466-0.033,1.699-0.399
	c0.232-0.3,0.133-0.833-0.3-1.6l-1.449-2.698l-3.448-5.297c-6.33-9.129-10.078-14.759-11.244-16.892
	c-2.299-4.265-4.182-8.429-5.647-12.493c-2.065-5.797-3.598-12.061-4.598-18.79c-1.066-7.396-2.481-15.209-4.248-23.438l-1.28-5.611
	c0.266-6.389,0.176-12.397-0.318-17.977c-0.233-2.531-0.783-5.38-1.649-8.545l-0.925-2.946c3.225-0.317,5.5-0.718,6.822-1.202
	l0.749-0.699c0.781-1.534,1.534-3.022,2.272-4.487c1.421-2.342,3.095-5.579,5.022-9.71c1.889-2.417,3.752-4.783,5.581-7.077
	l3.016,0.686c3.632,1.166,7.229,3.064,10.795,5.696c11.36,8.362,20.423,22.438,27.186,42.229l0.2,0.899l0.199,2.349l0.19,5.532
	c-1.591,0.248-3.073,0.843-4.438,1.814c-2.332,1.632-3.549,3.964-3.648,6.996l-0.05,9.845c0.033,6.663,0.25,10.527,0.649,11.594
	c0.945,2.956,3.725,5.265,8.294,6.938l-0.848,21.896l0.1,2.549c0.2,1.933,0.65,3.665,1.35,5.197l11.145,24.388l1.349,1.948
	c1.333,1.366,3.065,2.266,5.197,2.699l9.198,2.323c3.896,1.799,9.457,4.505,16.688,8.121l12.943,6.297l1.999,0.149
	c0.433-0.232,0.533-0.833,0.3-1.799c-0.433-2.232-1.249-4.931-2.448-8.096c-0.74-2.052-1.784-4.643-3.121-7.753l11.666,3.605
	l18.84,5.646l2.1-0.1c0.199-0.399,0.133-0.983-0.2-1.749c-0.467-1.133-1.366-2.665-2.698-4.598l-5.586-7.464
	c2.837,0.867,6.863,2.138,12.082,3.815c1.1,0.333,1.782,0.333,2.049,0C554.53,630.922,554.614,630.472,554.48,629.771z
	 M367.092,344.359l-7.01,3.909c-4.891,2.835-9.834,5.864-14.825,9.067l2.132-19.662l-0.05-3.248l-1.658-13.128l1.908,2.083
	C355.028,331.427,361.525,338.415,367.092,344.359z M332.938,307.385l-0.392,5.252c-0.078,1.351-0.135,2.537-0.172,3.584
	l-12.4-14.989c-1.384-4.369-2.871-8.656-4.455-12.866L332.938,307.385z M198.808,619.598l0.031,0.002
	c-0.007,0.037-0.015,0.073-0.022,0.11L198.808,619.598z M331.946,539.519c-0.932-0.959-2.108-1.728-3.509-2.324
	c1.861-6.912,3.963-12.725,6.308-17.415c0.499-1.005,1.024-1.971,1.57-2.907l4.177,6.155c0.297,0.446,0.53,1.254,0.698,2.42
	l-3.047,1.179c-2.433,1.399-3.831,3.298-4.198,5.696c-0.417,3.113-0.764,5.906-1.041,8.386
	C332.638,540.296,332.325,539.897,331.946,539.519z"/>
</svg>
