<?xml version="1.0" encoding="utf-8"?>
<!-- Generator: Adobe Illustrator 16.0.0, SVG Export Plug-In . SVG Version: 6.00 Build 0)  -->
<!DOCTYPE svg PUBLIC "-//W3C//DTD SVG 1.1//EN" "http://www.w3.org/Graphics/SVG/1.1/DTD/svg11.dtd">
<svg version="1.1" id="图层_1" xmlns="http://www.w3.org/2000/svg" xmlns:xlink="http://www.w3.org/1999/xlink" x="0px" y="0px"
	 width="710px" height="500px" viewBox="0 0 710 500" enable-background="new 0 0 710 500" xml:space="preserve">
<path d="M708.351,25.987c-23.751-12.592-50.368-20.62-79.85-24.084c-22.885-2.665-46.487-2.499-70.805,0.5
	c-18.188,2.265-36.21,6.113-54.065,11.542c-5.63,1.732-10.877,3.498-15.74,5.297l-1.101,0.436
	c-4.142-1.11-12.229-0.559-24.283,1.663c-13.958,2.532-30.031,6.762-48.22,12.692c-15.424,5.03-37.276,11.076-65.559,18.139
	l-43.222,10.394c-1.599,0.366-2.782,0.833-3.548,1.399c-0.633,0.433-1.149,1.083-1.549,1.949c-0.242,0.453-0.374,1.017-0.424,1.662
	c-10.739,3.771-24.615,8.129-41.649,13.079c-35.211,10.26-70.305,18.805-105.283,25.634l-0.55,0.15
	c-0.366,0.167-0.549,0.399-0.549,0.699c0,0.4,0.333,0.783,0.999,1.149l68.907,41.024l0.5,0.2l1.099,0.05
	c1.171-0.26,2.439-0.584,3.783-0.958l39.041,22.595l0.449,0.2l1.05-0.1c1.22-0.606,2.441-1.242,3.661-1.862l31.017,17.751l0.7,0.25
	c0.566,0.067,1.049-0.05,1.449-0.35l6.936-5.641c-0.012,0.364-0.04,0.729-0.04,1.093c0,0.433,0.2,0.8,0.6,1.1l7.046,4.247
	l2.198,11.992c0,0.002,0.002,0.003,0.002,0.005c-0.773,0.059-1.514,0.123-2.2,0.195c-1.032,0.1-1.815,0.566-2.349,1.399
	c-0.433,0.633-0.633,1.349-0.6,2.149l0.021,0.313c-1.887,1.996-3.76,4.281-5.618,6.882c-3.685,5.228-5.801,9.913-6.389,14.069
	c-4.675,4.658-8.347,10.489-11,17.511c-1.494,3.995-3.177,8.332-5.042,12.997c-2.228,1.229-4.445,2.636-6.65,4.241
	c-5.363,3.932-8.645,7.779-9.844,11.543c-1.795,4.341-3.235,8.953-4.361,13.808c-7.29,8.173-17.14,16.711-29.567,25.618
	c-27.516,19.654-57.43,32.162-89.743,37.525c-21.653,3.631-41.54,1.683-59.662-5.846c-18.289-7.596-34.295-20.67-48.02-39.225
	c-9.028-12.227-16.673-26.484-22.936-42.773c-1.965-5.097-3.681-10.11-5.146-15.041l-1.599-5.996
	c-0.566-2.332-1.099-4.031-1.599-5.097c-0.866-1.865-1.949-2.832-3.248-2.898c-2.065-0.067-3.547,2.249-4.447,6.946l-0.6,4.847
	c-0.4,3.998-0.65,8.212-0.75,12.642c-0.267,14.059,1.032,27.55,3.897,40.475c3.897,17.589,10.793,34.129,20.687,49.619
	c12.859,20.087,29.698,36.393,50.518,48.918c36.11,21.42,73.92,32.497,113.428,33.229c12.326,0.233,24.085-0.583,35.278-2.448
	c3.493-0.582,6.505-1.171,9.038-1.767c-2.764,3.401-5.51,6.985-8.238,10.761l-0.55,0.949l-1.199,2.549
	c-1.199,2.765-2.981,8.444-5.347,17.039c-0.2,0.933-0.066,1.898,0.4,2.898c0.433,1.032,1.299,2.314,2.598,3.847
	c6.196,7.596,11.41,13.176,15.64,16.74c2.099,1.799,3.564,2.814,4.397,3.048l0.949,0.35c3.531,1.332,10.827,3.015,21.886,5.047
	c0.025,0.003,0.045-0.012,0.069-0.014c0.012,0.004,0.019,0.01,0.031,0.014c2.765,0.766,10.826,1.632,24.185,2.599l31.18,0.949
	c0.433,0,0.767-0.2,0.999-0.6c0.011-0.018,0.017-0.037,0.027-0.055c5.267,1.2,13.535,2.134,24.808,2.803
	c1.099,0.066,1.799-0.05,2.099-0.35s0.316-1.017,0.05-2.148c-0.483-1.985-1.441-4.583-2.857-7.771l1.108-8.868
	c0.533-5.363,0.749-8.795,0.649-10.294c-0.017-0.246-0.118-0.513-0.257-0.788l0.107-0.661c0-1.799-0.616-4.014-1.85-6.646
	c-0.899-1.932-1.648-3.248-2.248-3.947l-7.195-9.494l-5.146-6.695c-1.399-2.099-2.732-4.514-3.998-7.246
	c-1.199-2.531-1.882-4.28-2.049-5.246c-0.233-1.133-0.383-2.365-0.449-3.698v-1.698c0-3.824,0.414-7.656,1.232-11.497
	c37.732-8.488,66.421-22.384,86.068-41.687c3.953-1.782,7.681-3.688,11.195-5.711l8.087,3.779
	c6.963,3.465,12.542,6.596,16.739,9.395c7.029,4.696,12.959,8.294,17.789,10.793c0.613,0.317,1.222,0.612,1.832,0.913
	c-1.193,0.795-2.615,1.654-4.28,2.584c-5.696,3.165-12.109,5.796-19.238,7.896c-4.431,1.166-8.095,3.081-10.993,5.746
	c-1.731,1.565-3.864,4.23-6.396,7.995c-1.666,2.531-3.198,4.613-4.597,6.246c-3.432,4.03-5.863,7.045-7.296,9.044
	c-1.032,1.232-1.249,3.165-0.649,5.797c0.533,2.432,1.383,4.214,2.548,5.346c0.166,0.185,0.664,0.564,1.472,1.125l2.076,6.87
	c1.799,5.797,3.148,9.777,4.048,11.942c0.333,0.767,0.699,1.183,1.1,1.25c0.366,0.066,0.866-0.167,1.499-0.7l8.801-7.73
	c8.303,5.593,13.765,9.469,16.383,11.628c3.132,2.565,5.93,4.397,8.395,5.497c1.466,0.633,3.165,1.132,5.097,1.499l0.899,0.199
	l14.118,0.738c0.008,0.003,0.016,0.01,0.023,0.012l15.989,3.147c12.192,1.799,23.752,2.282,34.679,1.449
	c0.23,0,0.43-0.087,0.604-0.241l10.238,1.241l19.737,1.349c1.466,0,2.349-0.3,2.648-0.899c0.3-0.633-0.017-1.648-0.949-3.048
	c-2.056-3.008-5.404-7.271-10.044-12.788c-0.356-4.265-0.821-7.324-1.398-9.148l-0.051-0.199c-1.099-2.299-4.063-4.881-8.895-7.745
	c-1.563-0.933-3.895-2.152-6.979-3.654c0.088-0.385,0.134-0.782,0.134-1.193c0-1.765-0.967-3.797-2.898-6.096
	c-1.666-1.966-4.497-4.631-8.495-7.995l-7.495-5.896l-7.245-5.446c-2.665-1.999-4.297-3.381-4.896-4.147v-0.25
	c0-0.865,1.182-2.665,3.547-5.396c2.398-2.731,5.23-5.513,8.495-8.345c8.595-1.532,16.123-4.146,22.586-7.845
	c5.729-3.265,9.443-6.596,11.143-9.993c0.866-1.699,1.299-3.981,1.299-6.846c0-1.6-0.133-3.281-0.399-5.047l-0.449-2.398
	c-0.367-1.666-1.316-4.598-2.849-8.795c-2.232-6.162-4.447-10.859-6.646-14.091c-2.898-4.231-5.414-7.296-7.546-9.194
	c-1.099-1-2.831-2.182-5.196-3.548l-3.348-1.849c-9.461-5.063-17.973-11.109-25.534-18.139
	c-7.595-7.029-13.857-14.725-18.788-23.086c-0.933-1.665-2.432-5.329-4.497-10.992c-2.132-7.029-5.88-15.057-11.243-24.085
	l-6.359-9.816c0.639-0.016,1.012-0.173,1.113-0.477c0.166-0.5-0.05-1.049-0.649-1.649l-6.731-6.937
	c0.034-3.382,0.317-6.703,0.848-9.961l3.142-0.151c0.095,0.752,0.38,1.396,0.893,1.909c0.566,0.566,1.283,0.816,2.149,0.75
	l4.977-0.346c0.315,2.085,0.619,3.868,0.911,5.326l-3.54,1.316c-1.698,0.833-2.231,2.198-1.599,4.097l1.699,6.296
	c0.499,1.299,1.433,1.999,2.798,2.099l5.896,0.699l5.946,4.997c3.498,2.698,6.18,4.147,8.045,4.347l8.194-0.95
	c4.931-0.933,9.978-2.231,15.141-3.897c14.43-4.777,25.384-11.121,32.874-19.025c0.412,0.51,0.858,0.979,1.354,1.387
	c0.966,0.799,2.231,1.366,3.798,1.699l4.08,0.134c0.041,0.021,0.072,0.048,0.117,0.066l14.44,6.746
	c0.866,0.4,1.433,0.483,1.699,0.25c0.233-0.167,0.25-0.733,0.05-1.699c-0.988-4.409-1.958-7.757-2.911-10.075
	c0.056,0.009,0.107,0.024,0.163,0.032c2.165,0.267,4.497-0.6,6.995-2.598c2.398-1.966,4.497-4.464,6.296-7.496
	c1.799-3.098,2.782-5.896,2.948-8.395c0.101-0.766-0.017-1.25-0.35-1.449c-0.3-0.2-0.8-0.117-1.499,0.25l-7.003,2.206
	c0.493-0.493,0.993-1.017,1.507-1.606c3.364-3.831,5.846-8.528,7.444-14.091c0.267-0.866,0.283-1.432,0.051-1.699l-1.799,0.1
	l-6.746,1.898l-6.933,1.603c2.143-2.535,4.188-6.375,6.133-11.546l3.099-9.944l0.1-1c-0.033-0.466-0.184-0.766-0.449-0.899
	c-0.3-0.133-0.85,0.067-1.649,0.6l-15.24,11.593c-0.078,0.056-0.131,0.137-0.202,0.2l-1.433,0.228l-4.462-10.072l-3.298-7.045
	l-0.549-0.899c-0.3-0.333-0.566-0.483-0.8-0.45c-0.366,0-0.699,0.483-0.999,1.449l-1.55,6.496
	c-0.898,4.864-1.406,9.848-1.555,14.942c-0.414,0.335-0.805,0.681-1.144,1.048c-1.266,1.199-2.165,2.981-2.698,5.347
	c-0.055,0.271-0.094,0.538-0.138,0.806l-0.062-0.006l-1.287-0.094c-4.593-2.423-10.383-4.774-17.401-7.051l-8.773-2.59
	c0.9-1.09,1.81-2.252,2.728-3.506l3.495-5.2l0.103,0.054l2.598,0.399c1-0.167,1.782-0.649,2.349-1.449
	c1.966-2.731,3.914-5.796,5.847-9.194c1.499-2.732,2.665-5.063,3.498-6.996l0.25-1.049c0.033-0.733-0.233-1.449-0.8-2.149
	c-0.5-0.566-1.05-0.982-1.649-1.249l-0.28-0.116c3.683-6.659,6.018-13.879,6.977-21.67c0.333-2.599,0.482-5.113,0.449-7.545
	l-0.067-2.167l0.468,0.069c0.933-0.1,1.782-0.483,2.548-1.149c0.833-0.667,1.383-1.516,1.649-2.549
	c0.199-0.766,0.35-2.682,0.449-5.746v-7.545c-0.114-2.583-0.59-4.52-1.423-5.817c18.775-12.101,37.738-19.108,56.888-21.016
	l1.449-0.05l2.798,0.15c8.296,1.083,14.844,2.371,19.688,3.857c2.894,3.263,5.643,5.711,8.245,7.336
	c5.93,3.731,11.26,4.48,15.99,2.249c2.13-0.99,3.76-2.321,4.944-3.959c1.709-1.137,3.261-3.086,4.649-5.885
	c1.045-2.09,1.847-4.246,2.411-6.464c0.196-0.121,0.379-0.251,0.563-0.38c3.982,1.821,7.529,3.145,10.617,3.946
	c0.014,0.003,0.026-0.005,0.04-0.003c0.004,0.001,0.007,0.003,0.011,0.003c0.499,0.1,0.865-0.067,1.099-0.5l4.497-7.945
	c3.136-5.292,5.305-8.359,6.519-9.23c0.974,0.239,1.833,0.385,2.576,0.436c1.599,0.133,2.915-0.1,3.947-0.7
	c1.166-0.766,1.582-1.965,1.249-3.598c-0.499-2.832-1.432-5.663-2.798-8.495c-0.404-0.837-0.757-1.525-1.062-2.082l0.911-1.416
	c1.267-1.832,2.749-3.564,4.447-5.197c5.497-5.197,12.226-8.528,20.188-9.994c0.933-0.2,1.416-0.517,1.449-0.949
	C709.55,26.92,709.184,26.454,708.351,25.987z M461.058,200.247l-2.798,0.28c-0.814,0.163-1.438,0.469-1.891,0.901
	c0.382-0.84,0.774-1.664,1.19-2.451l0.951-1.545c0.201-0.103,0.396-0.197,0.598-0.303c0.534-0.273,1.046-0.548,1.557-0.822
	C460.787,197.633,460.925,198.936,461.058,200.247z M455.511,203.675l-0.039,2.915c-0.298-0.205-0.606-0.407-0.915-0.61
	c0.31-0.89,0.634-1.755,0.975-2.597C455.524,203.481,455.511,203.573,455.511,203.675z"/>
</svg>
