<?xml version="1.0" encoding="utf-8"?>
<!-- Generator: Adobe Illustrator 16.0.0, SVG Export Plug-In . SVG Version: 6.00 Build 0)  -->
<!DOCTYPE svg PUBLIC "-//W3C//DTD SVG 1.1//EN" "http://www.w3.org/Graphics/SVG/1.1/DTD/svg11.dtd">
<svg version="1.1" id="图层_1" xmlns="http://www.w3.org/2000/svg" xmlns:xlink="http://www.w3.org/1999/xlink" x="0px" y="0px"
	 width="558px" height="363px" viewBox="0 0 558 363" enable-background="new 0 0 558 363" xml:space="preserve">
<path d="M555.146,243.596c-1.065-1.266-2.814-2.947-5.246-5.046c-2.73-2.298-5.179-4.097-7.344-5.396
	c-0.359-0.213-0.753-0.394-1.16-0.56c0.383-2.551-0.186-5.245-1.697-8.082c2.169-0.378,3.925-1.059,5.256-2.05
	c1.599-1.133,2.215-2.348,1.849-3.646c-0.366-1.399-1.999-2.814-4.896-4.247c-2.711-1.341-6.174-2.503-10.39-3.486
	c0.232-0.548,0.439-1.099,0.598-1.659c0.866-3.164,0.434-6.111-1.299-8.843c-0.729-1.13-1.677-2.199-2.822-3.216
	c0.448-8.758-1.371-16.38-5.471-22.863c-3.333-5.215-7.391-8.765-12.153-10.692l0.014-1.048c0.033-1.798-0.35-3.447-1.149-4.946
	c-0.566-1-1.516-2.231-2.848-3.697c-0.899-0.999-2.381-1.698-4.446-2.098l-3.912-0.503l-5.63-11.387
	c-2.998-5.928-5.495-10.392-7.494-13.389c-2.198-3.297-5.229-5.929-9.092-7.894c-2.304-1.167-5.978-2.51-10.997-4.027
	c-0.056-2.095-1.673-4.332-4.891-6.714c-2.921-2.177-5.904-3.548-8.949-4.124c0.59-3.972,0.188-7.697-1.242-11.164
	c-1.775-4.316-4.776-7.08-8.973-8.329c-2.313-4.339-5.197-8.535-8.651-12.588c4.05-1.362,8.957-3.215,14.727-5.561
	c9.992-4.03,15.903-6.928,17.735-8.693c1.698-1.665,1.965-4.479,0.8-8.443c-1.232-4.03-3.231-6.745-5.995-8.144
	c-1.166-0.599-6.528-1.682-16.087-3.247c-9.756-1.616-18.072-2.703-24.987-3.274c-5.7-10.905-13.783-19.546-24.272-25.901
	c-13.888-8.393-28.676-10.741-44.363-7.044c-7.487,1.778-13.834,5.214-19.071,10.266c-4.39,0.302-9.502,1.553-15.35,3.773
	c-4.963,1.898-11.024,4.763-18.186,8.593c-6.907,3.691-12.414,6.491-16.566,8.429l-29.096,1.913
	c-3.517,0.381-5.179,2.707-4.991,6.971l-1.204,0.023c-9.958,0-21.349-1.599-34.172-4.796c-14.455-3.597-27.411-8.509-38.868-14.738
	c-3.963-2.131-7.361-2.848-10.191-2.148c-2.265,0.566-4.497,2.198-6.695,4.896c-6.561,8.193-11.707,18.202-15.437,30.025
	c-4.124,13.085-5.692,26.218-4.719,39.398c-0.771-0.252-1.581-0.486-2.475-0.68c-5.195-1.132-10.958-1.049-17.286,0.25
	c-5.295,1.099-9.675,3.048-13.139,5.845c-2.925,2.335-4.441,4.714-4.599,7.135c-3.839,0.968-8.097,3.819-12.787,8.603
	c-5.557,5.652-12.024,14.279-19.398,25.865c-0.779,0.249-1.569,0.537-2.383,0.913c-5.496,2.498-10.258,7.344-14.288,14.538
	c-3.112,5.542-4.712,11.021-4.828,16.436c-2.077,3.151-4.132,6.586-6.164,10.342c-2.265,4.096-3.797,7.26-4.596,9.492
	c-0.799,2.197-1.232,4.862-1.299,7.993c-0.021,2.146,0.175,4.104,0.548,5.91c-2.348,5.152-4.36,10.294-5.993,15.423
	c-1.913,6.063-3.017,11.224-3.317,15.492c-2.059,0.759-4.488,1.862-7.324,3.342c-5.995,3.164-10.458,6.211-13.389,9.143
	c-1.532,1.531-2.165,3.098-1.898,4.695c0.3,1.633,1.516,3.248,3.647,4.847c6.228,4.63,12.44,6.744,18.635,6.345
	c5.948-0.426,13.869-2.542,23.716-6.313c4.021,2.8,10.732,5.121,20.147,6.962c8.619,1.67,16.458,2.398,23.528,2.199
	c6.111,5.472,13.153,10.387,21.135,14.737c5.295,2.93,11.291,3.213,17.985,0.849c3.864-1.399,5.346-3.764,4.446-7.095
	c-1.032-3.729-2.598-7.776-4.696-12.139c-0.998-2.094-1.955-3.919-2.872-5.482c4.552-2.327,7.767-4.928,9.616-7.807
	c0.36-0.552,0.681-1.151,0.968-1.793l11.672-0.656c4.396-0.865,6.794-2.264,7.194-4.195c0.466-2.266-1.166-4.713-4.896-7.345
	c-3.23-2.279-8.197-4.789-14.86-7.521l-1.646-5.038c0.999-0.052,1.924-0.272,2.768-0.681c0.933-0.433,1.632-1.016,2.098-1.748
	c0.533-0.866,0.666-2.148,0.4-3.848l-1.149-4.496c-3.264-10.457-4.879-18.951-4.846-25.479c0.033-3.197,0.633-6.561,1.798-10.092
	c0.799-2.364,0.383-4.746-1.249-7.144c-1.562-2.295-4.035-4.344-7.398-6.151l0.104-4.141c0.2-4.163,0.433-7.294,0.7-9.392
	c0.333-2.897,0.866-5.013,1.599-6.345c0.566-1.066,1.698-2.298,3.397-3.697c2.397-1.998,5.872-4.295,10.422-6.892
	c6.519,20.139,17.708,37.928,33.591,53.353c15.61,15.156,34.232,26.537,55.85,34.166c-0.472,0.486-0.903,0.967-1.292,1.44
	c-3.038,1.268-5.905,3.263-8.596,6.01c-3.264,3.298-5.496,6.86-6.694,10.69c-1.432,4.563-1.632,9.676-0.6,15.338
	c0.868,4.86,2.455,9.154,4.755,12.884c-0.765,1.559-1.599,3.126-2.507,4.702c-1.166,1.998-1.665,4.146-1.499,6.444
	c0.081,1.101,0.31,2.148,0.682,3.147c-5.934,4.963-8.977,10.953-9.139,17.966c-3.414,1.234-7.103,2.785-11.077,4.665
	c-5.396,2.564-9.009,4.613-10.841,6.145c-3.83,3.298-3.614,7.095,0.649,11.391c2.698,2.732,5.512,4.597,8.443,5.596
	c2.698,0.899,6.011,1.199,9.941,0.899l18.485-2.099c2.54-0.367,4.829-0.724,6.878-1.07c7.971,5.575,18.865,9.746,32.689,12.512
	c11.313,2.257,21.157,3.103,29.573,2.576c2.682,1.796,5.928,3.883,9.745,6.266c5.429,3.364,9.875,6.012,13.339,7.943
	c3.131,1.799,6.128,2.449,8.992,1.949c5.995-1,10.708-2.132,14.139-3.397c2.831-1.032,3.663-2.897,2.498-5.595
	c-3.395-7.61-7.195-14.586-11.392-20.95c2.983-1.589,5.782-4.542,8.394-8.876c1.565-2.598,2.881-5.346,3.947-8.243
	c0.124-0.354,0.226-0.688,0.335-1.03c3.743-0.027,7.461-0.515,11.155-1.467c4.663-1.199,7.044-2.648,7.144-4.348
	c0.134-2.997-2.848-6.145-8.942-9.441c-3.873-2.157-7.779-3.752-11.718-4.811c0.801-1.544,1.277-3.088,1.427-4.632
	c0.232-2.397-0.35-4.68-1.749-6.845c-5.528-8.692-9.009-18.602-10.441-29.725c-0.726-5.74-0.861-12.313-0.411-19.719
	c15.707-3.004,29.104-7.054,40.179-12.155c15.454-7.095,29.509-16.503,42.165-28.227c9.901-9.221,18.359-19.372,25.417-30.426
	l0.812,5.946c0.253,2.239,0.418,4.08,0.501,5.545c-0.966,0.373-1.917,0.899-2.85,1.599c-1.398,1.033-2.364,2.132-2.897,3.297
	c-0.833,1.699-1.249,3.747-1.249,6.145c0.033,2.332,0.467,4.68,1.299,7.044c1.532,4.229,2.115,9.31,1.749,15.237
	c-0.2,3.631-0.75,7.344-1.648,11.141c-0.7,3.031-1.033,5.279-1,6.744c0.057,2.054,0.678,3.542,1.851,4.479
	c-2.313,0.198-4.645,0.585-6.996,1.167c-3.197,0.799-5.578,1.731-7.144,2.797c-1.898,1.332-2.848,2.598-2.848,3.797
	c0,1.232,1.016,2.332,3.047,3.298c1.406,0.642,4.121,1.383,8.109,2.223c0.041,0.224,0.073,0.443,0.134,0.675
	c0.328,1.313,0.916,2.547,1.761,3.705c-0.301,0.29-0.603,0.579-0.911,0.891c-2.798,2.832-4.846,5.396-6.145,7.693
	c-2.531,4.464-1.898,7.312,1.898,8.543c3.797,1.266,8.376,1.383,13.738,0.351c3.098-0.6,7.061-1.799,11.89-3.597
	c2.093-0.787,3.927-1.523,5.506-2.209c7.87,2.686,14.802,4.295,20.772,4.807c5.729,0.466,11.374,0,16.937-1.399l14.488-4.046
	c3.811-1.069,6.718-1.842,8.735-2.321c1.921,0.646,4.167,1.27,6.752,1.871c6.228,1.433,12.339,2.315,18.334,2.647l5.646-0.399
	c2.132-0.565,4.529-1.849,7.194-3.847c1.998-1.499,3.064-2.947,3.197-4.347C557.145,246.626,556.512,245.194,555.146,243.596z"/>
</svg>
