<?xml version="1.0" encoding="utf-8"?>
<!-- Generator: Adobe Illustrator 16.0.0, SVG Export Plug-In . SVG Version: 6.00 Build 0)  -->
<!DOCTYPE svg PUBLIC "-//W3C//DTD SVG 1.1//EN" "http://www.w3.org/Graphics/SVG/1.1/DTD/svg11.dtd">
<svg version="1.1" id="图层_1" xmlns="http://www.w3.org/2000/svg" xmlns:xlink="http://www.w3.org/1999/xlink" x="0px" y="0px"
	 width="680px" height="493px" viewBox="0 0 680 493" enable-background="new 0 0 680 493" xml:space="preserve">
<path d="M670.206,249.822l-1.3-11.142l-0.819-8.033c0.186-0.292,0.388-0.566,0.569-0.861c6.829-11.093,8.878-22.286,6.146-33.578
	c-2.531-10.459-8.211-18.554-17.039-24.284c-6.158-4.022-12.557-6.288-19.189-6.842c-3.523-5.398-8.042-11.961-13.551-19.68
	c0.024-0.411,0.028-0.814,0.012-1.21c-0.1-2.465-1.082-5.097-2.947-7.895l-6.146-8.544l-3.947-5.097
	c-0.566-0.799-1.549-1.399-2.948-1.799c-0.754-0.22-1.513-0.328-2.274-0.34l-11.366-15.05l-6.096-7.745
	c-1.333-1.565-2.898-2.798-4.697-3.697c-1.166-0.6-3.048-1.299-5.646-2.099l-33.988-10.044c-0.559-1.804-1.435-3.208-2.638-4.196
	c-1.266-1.033-4.563-2.349-9.893-3.947c-4.564-1.366-7.362-2.099-8.395-2.199h-0.2c-2.063-0.375-4.08,0.455-6.056,2.448
	l-23.813-6.868c-0.794-2.528-1.98-4.104-3.559-4.724c-1.199-0.466-4.547-1.183-10.044-2.148l-6.447-1.14
	c-1.51-5.033-3.291-9.867-5.345-14.5c-5.563-12.658-12.824-23.201-21.785-31.629c-4.664-4.364-9.444-7.662-14.341-9.894
	c-4.063-1.799-7.429-2.598-10.093-2.398c-5.53,0.433-11.376,4.58-17.539,12.442c-1.998,2.498-3.897,5.247-5.696,8.245l-1.84,3.28
	c-0.252,0.055-0.502,0.101-0.758,0.167l0.699-10.693c0-7.128-1.065-10.993-3.198-11.592c-2.099-0.633-4.896,0.633-8.394,3.798
	c-2.466,2.265-5.131,5.33-7.995,9.194c-1.333-6.496-3.281-9.927-5.847-10.293c-1.499-0.2-3.364,0.933-5.596,3.398
	c-1.199,1.333-2.915,3.614-5.146,6.845l-5.146-9.494c-2.466-3.764-4.697-5.713-6.696-5.846c-2.231-0.167-4.563,2.166-6.995,6.996
	c-1.466,2.931-3.048,7.062-4.747,12.392l-2.298-1.399c-0.967-0.466-1.782-0.649-2.448-0.55c-2.065,0.4-3.115,3.248-3.148,8.544
	l-7.095-1.499c-0.767-0.1-1.433,0.133-1.999,0.7c-0.349,0.361-0.599,0.877-0.758,1.539c-0.362-0.264-0.72-0.532-1.091-0.789
	c-12.292-8.528-27.382-10.959-45.271-7.295c-14.457,2.998-25.649,9.877-33.578,20.637c-0.413,0.56-0.809,1.126-1.197,1.696
	c-0.035,0.004-0.066-0.007-0.103,0.003l-3.248,0.75c0.233-3.298,0.333-5.913,0.3-7.845c-0.033-3.564-0.7-5.446-1.999-5.646
	c-0.966-0.167-2.632,0.583-4.997,2.249c-2.265,1.599-4.064,3.214-5.396,4.847c-2.198-3.498-4.23-5.113-6.096-4.847
	c-1.066,0.167-2.032,0.616-2.898,1.349c-0.667,0.566-1.399,1.433-2.199,2.598c-4.097-4.73-7.229-7.878-9.394-9.444
	c-0.933-0.732-1.932-0.866-2.998-0.399c-1.433,0.566-2.698,2.731-3.798,6.496c-0.333,1.066-1.049,4.181-2.148,9.344
	c-2.332-1.199-4.514-2.099-6.545-2.698c-1.932-0.6-3.082-0.716-3.448-0.35c-0.8,0.799-1.1,2.532-0.899,5.197
	c0.033,0.6,0.25,2.065,0.649,4.397l0.85,5.746l-5.747-1.099c-1.066-0.1-1.699,0.017-1.898,0.35c-0.233,0.466-0.117,1.416,0.35,2.848
	l1.149,2.948c-3.897,0.7-7.029,1.466-9.394,2.299c-0.472,0.167-0.881,0.323-1.239,0.47c-1.895-1.33-5.149-2.851-9.803-4.567
	c-8.261-3.098-15.573-3.747-21.936-1.948c-2.898,0.833-5.696,2.498-8.395,4.997c-2.798,2.565-5.247,5.796-7.345,9.693
	c-4.664,8.728-7.478,19.371-8.444,31.929c-0.905,11.952,0.044,24.682,2.821,38.177l-5.27,5.044
	c-1.039,0.994-1.253,2.745-0.658,5.238l-6.675,5.32c-1.241-0.32-2.592-0.512-4.06-0.565c-3.664-0.1-6.762,0.866-9.294,2.898
	c-4.463,3.664-8.111,6.912-10.942,9.744c-0.8,0.799-1.199,2.115-1.199,3.947c0,1.187,0.179,2.516,0.52,3.974
	c-20.667,16.68-32.666,26.761-35.946,30.204c-3.09,3.275-6.28,10.196-9.57,20.75c-2.113,1.56-3.675,3.006-4.67,4.333
	c-1.232,1.666-2.964,8.378-5.196,20.137l-0.05,0.949c0,1.6,0.55,3.064,1.649,4.396l0.83,0.715
	c-1.492,7.849-2.646,15.395-3.452,22.627C6.571,291.018-0.201,305.905,0.049,323.324c0.133,8.794,1.965,17.139,5.496,25.033
	c3.365,7.596,8.028,14.19,13.991,19.787c1.199,1.133,2.426,2.178,3.667,3.183c-0.181,2.33-0.305,4.911-0.37,7.76
	c-0.2,7.595,0.15,12.659,1.049,15.19c0.233,0.732,2.082,3.348,5.546,7.845l7.245,9.044c3.731,4.33,7.229,6.546,10.493,6.646
	c2.665,0.1,4.98-0.833,6.945-2.798c3.398-3.398,5.08-7.745,5.047-13.042c0-3.405-0.532-6.512-1.565-9.339
	c0.674,0.896,1.316,1.704,1.915,2.394c3.864,4.464,7.279,6.246,10.243,5.347c1.965-0.6,3.798-1.749,5.497-3.448
	c1.999-1.998,3.498-4.497,4.497-7.495c0.061-0.199,0.104-0.399,0.161-0.599l14.33-0.55c5.25-0.568,9.705-1.338,13.393-2.302
	c-0.596,1.942-0.901,3.794-0.901,5.55c0,2.564,0.633,4.996,1.899,7.295c1.432,2.632,3.531,4.797,6.296,6.495
	c2.731,1.666,5.446,1.916,8.145,0.75c4.13-1.732,8.411-6.013,12.841-12.842c3.598-5.496,5.663-9.544,6.196-12.142
	c0.315-1.512,0.406-6.406,0.274-14.675c3.833-3.979,7.141-8.298,9.918-12.957c10.76-18.388,11.326-37.542,1.699-57.462
	c-8.542-17.619-22.23-29.396-41.034-35.368c-0.776-1.722-1.887-4.088-3.336-7.104l-1.599-3.348c-1.403-3.483-3.288-5.979-5.64-7.512
	c-0.506-1.554-1.156-3.228-1.935-5.011l13.97-10.111c1.32-0.99,2.04-2.171,2.171-3.54l27.808-15.89
	c6.448,8.159,13.67,14.964,21.687,20.379c6.129,4.13,12.259,6.945,18.388,8.444c4.197,1.033,7.329,1.349,9.394,0.949
	c1.611-0.322,2.986-0.91,4.135-1.756c0.289,0.607,0.578,1.213,0.862,1.806c2.49,5.269,4.412,9.188,5.769,11.764
	c-1.258,0.709-2.116,1.642-2.521,2.827c-0.5,1.365-0.383,2.914,0.35,4.646l7.545,16.938c4.664,10.26,7.329,15.906,7.995,16.938
	l0.5,0.8c0.866,1.399,1.682,2.315,2.448,2.748c0.38,0.227,0.786,0.383,1.213,0.481l0.236,1.418c0,0.966-0.633,2.016-1.898,3.147
	l-11.442,11.192c-5.522,5.554-10.584,10.77-15.22,15.674c-0.544-0.35-1.038-0.601-1.469-0.733c-1.299-0.399-2.599,0.05-3.897,1.349
	l-0.5,0.45l-8.195,9.843l-3.248,4.048c-1.499,1.799-1.932,3.614-1.299,5.446c0.087,0.245,0.216,0.521,0.381,0.824
	c-2.178,2.902-3.821,5.36-4.928,7.371c-1.632,3.031-2.648,6.063-3.048,9.094c-0.208,1.669-0.407,3.835-0.595,6.444
	c-4.651,1.292-7.286,2.41-7.849,3.349c-0.233,0.367-0.4,0.949-0.5,1.749l-0.2,3.497l-0.15,2.398l-0.599,0.75l-4.797,5.246
	c-1.166,1.232-1.749,2.082-1.749,2.549c0,0.3,0.15,0.666,0.45,1.1l0.25,0.35c2.032,2.564,3.048,4.563,3.048,5.996v0.1l-0.949,1.949
	c-0.667,1.266-1,3.131-1,5.596c0,1.133,0.35,2.115,1.049,2.948l1.899,2.099c0.699,0.8,1.049,1.366,1.049,1.699l-0.1,0.3
	c-0.766,0.933-1.149,2.248-1.149,3.947c0,0.866,0.1,1.898,0.3,3.098l0.1,0.85c0,0.5-0.2,0.866-0.6,1.1
	c-0.7,0.333-1.349,0.766-1.949,1.299c-0.733,0.666-1.199,1.349-1.399,2.049l-0.2,1.149c0,0.399,0.183,1.032,0.55,1.898l1,1.648
	l0.5,1.199c0,0.4-0.183,0.816-0.55,1.249l-0.999,0.85c-1.932,1.565-3.048,2.516-3.348,2.849c-1.299,1.398-1.949,2.897-1.949,4.497
	l0.2,1.599l0.549,2.299l1.349,4.646l0,0l-3.748,3.498c-2.698,2.332-4.064,4.497-4.097,6.495l0.05,1.499l0.549,4.397
	c0.233,2.398,1.033,3.931,2.398,4.597c1.199,0.533,3.848,0.8,7.945,0.8c0.566,0.066,1.832,0.583,3.797,1.549
	c2.032,1.032,3.498,1.898,4.397,2.599l0.55,0.499c1.466,1.399,2.881,2.232,4.247,2.499c0.933,0.166,2.648-0.117,5.147-0.85
	l5.246-1.699c1.166-0.399,1.999-0.533,2.499-0.399c1.832,1.565,3.181,2.448,4.047,2.648c0.733,0.166,1.782,0.166,3.148,0l2.998-0.45
	l3.248,1.35l2.948,1.349c1.299,0.566,2.365,0.816,3.198,0.75c0.7-0.101,1.416-0.467,2.149-1.1c0.6-0.467,1.199-0.8,1.799-0.999
	l2.099-0.7c0.399-0.066,0.75,0.033,1.049,0.3l0.549,0.4c1.799,1.432,3.448,2.448,4.947,3.048c1.799,0.732,3.731,1.049,5.796,0.949
	c1.266-0.033,3.015-1.016,5.246-2.948l4.297-4.147c0.233-0.232,0.466-0.366,0.7-0.399l1.299,0.15l1.799,0.649l2.199,0.35
	c0.899-0.101,1.849-0.517,2.848-1.249l3.148-2.599l0.45,0.35l2.348,2.049c1.1,0.732,2.099,0.883,2.998,0.45l1.399-0.9
	c1.532-1.099,2.498-1.498,2.898-1.199c1.232,0.934,2.765,1.233,4.597,0.9c1.199-0.2,2.416-0.65,3.648-1.35l1.898-0.749l2.599-0.3
	c0.766-0.134,1.216-0.55,1.349-1.25c0.1-0.566,0.05-1.032-0.15-1.398c-0.4-0.666-1.233-1.633-2.499-2.898
	c-0.267-0.533-0.35-1.282-0.25-2.248l0.2-1.499c0-1.267-0.55-2.448-1.649-3.548l-0.5-0.45c-0.666-0.666-1.016-1.148-1.049-1.448
	l-0.6-2.549c-0.366-0.999-0.982-2.065-1.849-3.198c-0.899-1.165-1.349-2.015-1.349-2.548c0-0.699,0.417-1.649,1.249-2.849
	l2.099-3.247c0.566-1.133,0.85-2.132,0.85-2.998c0-0.833-0.366-1.616-1.099-2.349l-1.649-1.449l-0.6-0.649
	c-0.5-0.6-0.983-2.365-1.449-5.297l-0.5-1.898l-0.35-1.399v-0.05l0.05-0.5c0-0.6-0.267-1.249-0.799-1.948l-1.349-1.699l-0.2-0.35
	c-0.366-0.532-0.649-1.232-0.849-2.099c0.233-0.232,0.982-0.766,2.249-1.599c1.299-0.833,2.132-1.433,2.498-1.799l2.798-3.147
	c0.466-0.566,0.699-1.183,0.699-1.85c0-0.532-0.399-1.148-1.199-1.849l-1.649-1.449l-0.549-0.849v-0.051l0.949-2.448
	c0.799-1.832,1.466-3.797,1.999-5.896l0.3-1.3l0.05-0.499c0-0.334-0.466-0.833-1.399-1.5l-2.849-1.82l16.59-12.47
	c15.823-11.726,25.733-18.571,29.73-20.536l29.979-3.447c10.526-1.533,20.037-3.382,28.531-5.547
	c22.452,5.93,34.395,10.81,35.826,14.641c0.334,0.865,0.5,3.114,0.5,6.745l-0.076,2.214c-3.037,1.965-5.25,3.545-6.619,4.731
	c-1.766,1.565-2.582,2.882-2.448,3.948l0.25,1.698l0.149,1.849l-0.45,0.6c-0.966,0.6-1.549,1.449-1.748,2.549
	c-0.101,0.433-0.15,1.531-0.15,3.297l-0.649,1.699l-0.699,1.399c-0.366,1.232-0.233,2.349,0.399,3.348l1.649,1.599l2.698,1.249
	c1.266,0.767,1.849,1.749,1.748,2.948c-0.166,1.865-0.815,3.581-1.948,5.146c-0.933,1.232-1.499,2.349-1.699,3.348
	c-0.366,1.666,0.083,3.265,1.35,4.797c0.699,0.833,1.099,1.499,1.199,1.999c0.133,0.733-0.167,1.549-0.899,2.448
	c-2.199,2.765-3.564,5.43-4.098,7.995c-0.5,2.398-0.916,3.764-1.249,4.097l-1.999,2.299c-0.633,0.899-0.949,1.832-0.949,2.798
	c0,1.499,0.767,2.981,2.299,4.447l1.749,1.749c0.532,0.732,0.716,1.516,0.549,2.349l-0.699,2.448c-0.267,1.1-0.25,2.065,0.05,2.898
	c0.233,0.699-0.482,1.915-2.148,3.647l-5.446,4.896l-0.55,0.8l-0.3,1.948c-0.133,1.433-0.05,2.915,0.25,4.447
	c0.233,1.199,0.083,2.198-0.45,2.998c-0.466,0.633-1.565,1.549-3.297,2.748c-1.066,0.699-2.199,1.732-3.398,3.098
	c-1.398,1.6-2.015,2.731-1.849,3.398c0.233,1.365,1.683,2.148,4.348,2.348l9.693-0.699l8.444-1.699l0.199,0.3
	c0.8,1.3,1.583,2.216,2.349,2.749c1.366,0.999,2.981,1.199,4.847,0.6c4.064-1.3,6.896-1.85,8.495-1.649l3.298-0.3l4.097,0.1
	l7.445,1.899c3.265,0.766,5.963,1.115,8.095,1.049l8.145,0.25l3.848,0.75l4.896-0.351l4.147-0.3l2.398,0.85l3.098,2.099l7.895,2.249
	c2.398,0.199,5.181-0.667,8.345-2.599c2.266-1.399,4.514-2.398,6.746-2.998c1.965-0.566,3.697-0.749,5.196-0.55
	c4.563,0.566,8.544,0,11.942-1.698l2.248-1.1c1.766-0.899,4.447-2.082,8.045-3.548c2.897-1.166,4.93-1.948,6.096-2.349
	c1.766-0.6,3.098-1.249,3.997-1.948c1.699-1.299,2.332-2.915,1.899-4.847c-0.333-1.399-0.583-3.448-0.75-6.146
	c-0.2-2.931-0.166-4.979,0.1-6.146c0.301-1.333,0.117-2.748-0.549-4.247l-1.999-3.048l-1.049-1.399
	c-0.833-1.1-1.466-2.299-1.899-3.598c-0.666-1.832-0.816-3.581-0.449-5.246l0.949-3.349c1.365-2.731,0.699-4.547-1.999-5.446
	l-3.848-1.149c-1.532-0.499-2.647-1.148-3.348-1.948c-1.499-1.699-2.831-3.515-3.997-5.446c-1.299-2.099-1.982-3.664-2.049-4.697
	l-0.1-2.998l-0.25-4.896c-0.166-1.133-0.449-1.966-0.85-2.498c-0.066-0.067,0.316-0.717,1.149-1.949l1.299-1.849
	c1.033-1.632,1.666-2.998,1.899-4.098c0.399-1.965-0.084-3.847-1.449-5.646c-1.433-1.832-2.299-3.064-2.599-3.697
	c-0.366-0.733-0.366-1.416,0-2.049l3.698-5.746c1.898-3.498,2.432-5.83,1.599-6.996c-0.333-0.467-1.232-1.115-2.698-1.949
	l-3.098-1.598c-1.199-0.667-1.966-1.166-2.299-1.5c-0.1-0.1-0.3-2.165-0.6-6.195c-0.267-3.564-1.466-5.547-3.598-5.946l-4.947,0.2
	l-0.752,0.199c-0.302-2.16-0.626-4.361-0.996-6.645c-1.966-12.26-4.298-21.902-6.996-28.932c-1.152-3.083-3.706-6.728-7.625-10.917
	c0.148-0.528,0.23-1.115,0.23-1.774c0-1.499-0.3-2.881-0.899-4.147c-0.5-0.999-3.364-3.647-8.595-7.944
	c-5.163-4.264-8.627-6.846-10.393-7.745c-2.011-1.019-4.831-1.679-8.436-1.992c-6.368-4.596-13.26-9.284-20.674-14.066
	c-0.101-0.714-0.145-1.66-0.121-2.879l0.258-3.83c1.696-0.017,2.894-0.422,3.589-1.217c0.833-0.966,1.616-3.481,2.349-7.545
	l2.448-15.689l1.799-12.742c0.467-3.234-0.737-5.296-3.609-6.185c1.404-4.715,2.823-11.152,4.259-19.348
	c0.478-2.71,0.914-5.483,1.332-8.284c1.309,0.897,2.777,1.481,4.414,1.739c2.766,0.466,5.847,0.117,9.244-1.049
	c3.498-1.232,6.779-3.131,9.844-5.696c8.794-7.395,15.84-18.388,21.136-32.978c2.921-8.042,5.094-16.632,6.532-25.758l2.362-0.075
	l11.792,0.55c11.199,0.936,21.203,3.066,30.016,6.389c0.132,0.788,0.517,1.605,1.164,2.455c0.699,0.933,1.615,1.815,2.748,2.648
	c1.632,1.166,5.912,3.314,12.842,6.446c2.331,1.066,4.063,1.632,5.196,1.699c1.068,0.045,2.072-0.283,3.017-0.966l2.579,0.516
	l9.944,27.082c-1.966,2.265-2.632,4.647-1.999,7.146l3.728,11.181c-0.715,0.931-1.472,2.091-2.278,3.509
	c-1.966,3.365-3.415,6.862-4.348,10.493c-3.064,11.526-0.683,22.219,7.146,32.079c3.843,4.842,8.791,8.575,14.82,11.225l0.869,4.715
	c0.866,5.03,1.299,8.561,1.299,10.593c0,2.065,1.366,6.029,4.098,11.893c2.465,5.329,4.264,8.693,5.396,10.093
	c0.866,1.065,3.531,2.249,7.995,3.548l1.898,0.649c4.83,1.732,8.577,2.815,11.242,3.248c3.831,0.6,6.38,0.116,7.646-1.449
	c0.933-1.132,1.715-2.581,2.348-4.347c0.767-2.066,1.149-4.131,1.149-6.196c0-1.232-0.149-2.481-0.449-3.747
	c-1.199-4.498-5.03-8.096-11.492-10.793c-0.8-1.999-1.749-3.481-2.849-4.447l1.399-4.497c0.545-1.818,0.871-3.334,0.991-4.564
	c5.898-0.28,11.848-1.086,17.846-2.431c0.184-0.042,0.358-0.087,0.54-0.13l2.309,0.63l5.946,1.748
	c0.189,0.729,0.372,1.419,0.554,2.103c-1.172,0.942-2.306,2.023-3.402,3.244c-2.864,3.298-4.297,6.562-4.297,9.794
	c0,2.764,1.133,5.546,3.397,8.344c0.846,1.045,1.72,1.969,2.621,2.771c-0.836,2.506-1.271,4.803-1.271,6.872
	c0,2.932,0.749,5.68,2.248,8.245c2.232,3.764,5.363,5.779,9.394,6.046c1.899,0.1,3.548-0.134,4.947-0.7
	c1.632-0.633,3.147-1.814,4.547-3.547l4.098-6.346l8.095-13.092c1.199-1.865,1.748-3.897,1.648-6.096l-0.75-4.297
	c-0.761-3.443-1.418-6.442-1.979-9.023C668.754,256.746,670.533,251.62,670.206,249.822z"/>
</svg>
