<?xml version="1.0" encoding="utf-8"?>
<!-- Generator: Adobe Illustrator 16.0.0, SVG Export Plug-In . SVG Version: 6.00 Build 0)  -->
<!DOCTYPE svg PUBLIC "-//W3C//DTD SVG 1.1//EN" "http://www.w3.org/Graphics/SVG/1.1/DTD/svg11.dtd">
<svg version="1.1" id="图层_1" xmlns="http://www.w3.org/2000/svg" xmlns:xlink="http://www.w3.org/1999/xlink" x="0px" y="0px"
	 width="681px" height="567px" viewBox="0 0 681 567" enable-background="new 0 0 681 567" xml:space="preserve">
<path d="M679.235,197.198c-4.865-0.933-12.497-2.016-22.894-3.25l-23.131-2.43c-0.104-0.608-0.226-1.071-0.363-1.369
	c-1.733-3.632-9.248-6.381-22.544-8.248c-10.331-1.433-17.846-1.95-22.544-1.55c-2.999,0.233-10.464,2.299-22.395,6.198
	c-11.997,3.933-19.611,6.832-22.844,8.698c-1.533,0.867-14.113,10.781-37.74,29.742l-23.934,19.17
	c-7.89,2.512-17.853,5.57-29.896,9.176c3.649-5.78,10.046-17.36,19.189-34.744l18.045-34.591c0.367-0.7,0.967-1.5,1.8-2.399
	l1.899-1.949c2.966-2.366,6.898-5.315,11.797-8.848c5.266-3.766,9.281-6.499,12.047-8.198c1.566-0.933,3.633-1.733,6.198-2.399
	c3.199-0.8,9.664-2.233,19.396-4.299l18.795-4.099c1.566-0.4,2.849-0.866,3.849-1.399l2.949-2.05
	c5.599-4.365,11.431-9.214,17.495-14.546c7.599-6.665,11.914-10.98,12.947-12.947c0.536-1.036,1.057-2.642,1.564-4.781
	l21.779-13.814c13.396-8.498,21.494-13.763,24.293-15.796c0.634-0.467,0.884-0.917,0.75-1.35c-0.1-0.4-0.566-0.617-1.399-0.65
	c-8.874-0.45-25.649-0.418-50.28,0.093c-0.684-0.615-1.382-1.23-2.106-1.843c-2.999-2.533-5.382-4.149-7.147-4.849
	c-2.6-1.066-10.397-1.45-23.394-1.15c-13.063,0.3-21.711,1.066-25.943,2.299c-3.566,1.033-15.513,8.031-35.841,20.995
	c-18.562,11.83-32.258,20.944-41.089,27.343c-2.366,1.699-4.416,4.049-6.148,7.048L435.7,163.106
	c-8.665,14.196-15.713,24.277-21.145,30.242c-1.833,2-8.665,7.031-20.495,15.096l-9.097,6.082c-1.698-2.727-2.49-6.28-2.35-10.681
	c0.05-1.675,0.221-3.355,0.509-5.041c0.064-0.054,0.126-0.104,0.19-0.158l0.4-0.55l13.546-26.293
	c9.164-17.495,15.246-28.092,18.245-31.792c5.698-7.131,12.047-14.829,19.045-23.094c9.864-11.697,16.246-18.695,19.146-20.995
	c1.266-1.033,6.948-3.349,17.045-6.948l22.145-7.848c1.533-0.566,2.716-1.133,3.549-1.7l3.199-2.949
	c5.032-5.298,11.131-12.113,18.295-20.444c7.998-9.331,12.313-14.83,12.947-16.496c0.525-1.336,0.726-3.76,0.603-7.255
	c10.302-8.321,22.035-18.27,35.237-29.885c0.6-0.5,0.833-0.95,0.7-1.35c-0.101-0.467-0.6-0.684-1.5-0.65
	c-9.202,0.224-25.432,1.47-48.645,3.731c-3.489-2.328-6.08-3.683-7.74-4.031c-2.466-0.533-10.797,0.633-24.993,3.499
	c-15.063,3.066-25.927,6.065-32.592,8.998c-6.198,2.766-16.612,11.664-31.241,26.693c-9.364,9.631-16.779,17.729-22.244,24.293
	c-1.467,1.733-4.883,8.914-10.248,21.544c-3.462,8.132-6.055,14.096-7.79,17.924c-0.34-2.036-0.823-4.422-1.457-7.177
	c-1.033-4.599-2.017-8.231-2.949-10.897c-0.233-0.7-0.733-1.517-1.5-2.45c-0.699-0.899-1.333-1.549-1.899-1.949
	c-0.948-0.689-1.894-1.348-2.838-1.992c0.274-4.566,0.471-10.364,0.589-17.403c0.1-7.798,0.066-14.43-0.1-19.895
	c-0.034-0.733-0.25-1.15-0.65-1.25c-0.434-0.167-0.967,0.1-1.6,0.8c-3.565,3.766-8.364,9.864-14.396,18.295
	c-5.19,7.285-9.114,13.228-11.788,17.847c-5.05,2.28-8.59,4.214-10.605,5.797c-3.633,2.866-7.598,9.414-11.897,19.645
	c-2.632,6.265-5.198,13.446-7.697,21.544c-0.6,1.933-0.717,4.866-0.35,8.798c0.3,3.599,0.766,6.115,1.399,7.548
	c3.915,9.205,7.047,17.601,9.418,25.206l-23.49,7.684l-17.77-31.44c-6.998-12.296-10.947-19.412-11.847-21.344
	c-0.866-1.833-0.566-8.064,0.9-18.695c1.2-8.831,2.633-17.145,4.299-24.943c0.5-2.199,0.717-3.815,0.65-4.849
	c-0.066-1.366-0.566-3.249-1.5-5.648c-1.566-4.166-3.316-8.081-5.249-11.747c-2.2-4.199-4.016-6.848-5.449-7.948
	c-0.196-0.148-0.415-0.296-0.635-0.444c0.127-4.192,0.089-11.009-0.115-20.45l-0.799-23.444c-0.067-1-0.333-1.516-0.8-1.549
	c-0.434-0.067-0.917,0.25-1.45,0.95c-3.399,4.732-7.865,11.497-13.396,20.294c-5.121,8.164-9.302,15.183-12.547,21.06
	c-1.41,0.683-2.934,1.47-4.599,2.384c-4.532,2.466-7.564,4.366-9.098,5.699c-5.832,4.965-12.43,24.394-19.795,58.285
	c-0.366,1.699-0.233,4.415,0.4,8.147c0.7,4.266,1.783,7.282,3.25,9.048l20.095,20.844c13.43,14.263,20.877,22.894,22.344,25.893
	c1.895,3.973,3.227,11.176,4.001,21.592l-25.387,6.548c-1.578-0.662-3.136-1.326-4.657-1.996
	c-6.527-2.863-12.656-5.857-18.386-8.984c-3.363-6.861-5.832-11.181-7.407-12.96c-1.566-1.765-7.585-5.162-18.046-10.188
	l17.096-8.457c9.331-4.532,16.846-8.115,22.544-10.747c0.899-0.434,1.266-0.9,1.1-1.4c-0.167-0.466-0.75-0.716-1.75-0.75
	c-7.231-0.133-16.646,0.134-28.243,0.8l-33.561,2.481c-5.195-7.536-9.312-15.591-12.327-24.175
	c-5.666-16.196-7.798-35.191-6.398-56.985c0.233-3.299-0.8-5.215-3.099-5.749c-2.299-0.5-4.582,0.667-6.848,3.499
	c-2.614,3.265-4.975,6.992-7.091,11.164c-3.733-6.503-7.71-13.088-11.954-19.761c-5.865-9.165-9.564-14.13-11.097-14.896
	c-0.54-0.27-1.321-0.461-2.327-0.578c-3.161-16.258-5.569-27.656-7.22-34.164c-0.2-0.833-0.517-1.283-0.95-1.35
	c-0.467-0.066-0.9,0.333-1.3,1.2c-2.066,4.299-4.516,10.514-7.348,18.645c-2.169,6.267-4.123,12.318-5.883,18.176
	c-0.966,0.298-1.691,0.604-2.165,0.919c-1.533,1.033-3.649,3.216-6.348,6.548c-2.866,3.532-4.866,6.515-5.999,8.947
	c-1.233,2.699-2.699,6.948-4.399,12.747c-1.799,6.032-3.083,11.181-3.849,15.446c-0.667,3.732-0.366,11.33,0.9,22.794
	c1,9.031,2.049,16.379,3.149,22.044c1.133,5.932,3.099,12.38,5.898,19.345c3.032,7.531,5.698,12.113,7.998,13.746
	c0.23,0.169,3.25,1.672,9.045,4.503c-11.686,5.345-20.589,9.312-26.69,11.892c-1,0.4-1.45,0.85-1.35,1.35
	c0.1,0.467,0.649,0.733,1.649,0.8c9.464,0.5,21.278,0.65,35.44,0.45l19.607-0.59c1.043,0.504,2.1,1.015,3.187,1.54
	c3.142,1.559,6.105,3.042,8.906,4.454c4.315,12.081,10.005,23.015,17.087,32.786c2.85,3.919,5.898,7.608,9.135,11.08
	c-10.193,4.969-20.791,10.231-31.829,15.813c-14.33,7.231-25.027,12.797-32.091,16.696c-0.8,0.433-1.133,0.899-1,1.399
	c0.167,0.467,0.683,0.667,1.55,0.6c8.553-0.385,17.163-1.229,25.821-2.481c-1.776,1.424-3.223,2.653-4.327,3.681
	c-1.399,1.299-2.299,2.416-2.699,3.349s-0.583,2.283-0.55,4.049c0.066,2.399,0.583,9.264,1.549,20.595
	c0.8,9.664,1.1,15.495,0.9,17.494c-0.167,1.8-3.316,8.564-9.447,20.295c-7.698,14.596-11.764,22.377-12.197,23.344
	c-0.466,0.934-0.633,1.699-0.5,2.3c0.133,0.633,0.633,1.383,1.5,2.249c1.037,1.037,2.45,2.305,4.21,3.786
	c-0.54,6.462-1.727,12.421-3.567,17.873l-18.338,0.535c-1.351,0.23-2.663,0.505-3.946,0.813c2.216-22.945,2.933-42.234,2.146-57.848
	c-0.067-1.167-0.367-1.733-0.9-1.7c-0.467,0.033-0.95,0.517-1.45,1.45C47.591,343.76,38.436,359.6,27.57,376.854
	c-2.389,2.889-4.776,6.063-7.16,9.543c-3.623,5.26-6.399,10.014-8.347,14.272c-4.434,6.098-8.335,10.859-11.698,14.271
	c-0.3,0.3-0.333,0.633-0.1,0.999c3.932,6.532,6.398,13.997,7.398,22.395c0.866,7.165,0.6,13.896-0.8,20.194
	c-0.067,0.267,0.017,0.517,0.25,0.75c3.565,3.366,6.265,6.349,8.098,8.947c2.266,3.232,4.032,6.898,5.299,10.997
	c0.2,0.566,0.566,0.75,1.1,0.55c3.421-1.093,7.298-1.908,11.575-2.479c-0.459,1.809-0.936,4.028-1.428,6.679
	c-0.733,3.933-1.233,7.465-1.5,10.598c-0.1,1.399,0.533,1.616,1.9,0.649c4.999-3.532,10.647-7.132,16.945-10.797
	c5.668-3.298,10.4-5.77,14.215-7.435c6.076,0.547,11.44,1.424,16.077,2.636c0.367,0.066,0.65-0.033,0.85-0.3
	c0.631-0.805,1.315-1.603,2.03-2.396c4.877,1.496,10.857,4.108,17.926,7.825c-1.587,5.523-2.497,12.333-2.71,20.463
	c-0.033,0.667,0.1,1.083,0.4,1.25c0.333,0.167,0.816,0.017,1.45-0.45c2.766-2.199,6.032-4.349,9.797-6.448
	c3.402-1.878,6.511-3.292,9.335-4.259c1.037,0.643,2.096,1.308,3.164,1.981c-5.648,6.59-12.018,12.362-19.148,17.273
	c-0.866,0.6-1.25,1.149-1.149,1.649c0.1,0.5,0.633,0.8,1.6,0.9c8.964,0.933,20.178-0.117,33.641-3.149
	c2.639-0.601,5.121-1.219,7.464-1.853c1.647,1.123,3.422,2.336,5.319,3.636c-0.825,3.188-1.572,7.86-2.236,14.063
	c-0.066,0.633,0.034,1.05,0.3,1.25c0.3,0.233,0.733,0.166,1.299-0.2c1.966-1.267,4.532-2.516,7.698-3.749
	c2.5-0.952,4.714-1.603,6.67-1.977c1.455,0.979,2.789,1.865,3.987,2.65c-4.4,4.642-9.055,9.108-14.006,13.372
	c-0.767,0.634-1.083,1.2-0.95,1.7c0.1,0.5,0.616,0.767,1.549,0.8c8.146,0.081,18.416-1.963,30.809-6.129
	c9.615,4.719,19.262,8.598,28.94,11.644c-4.814,5.171-9.667,10.037-14.561,14.58c-0.433,0.433-0.566,0.816-0.4,1.149
	c0.167,0.366,0.583,0.566,1.25,0.6c11.997,0.533,25.893-2.699,41.689-9.697c0.102-0.045,0.198-0.091,0.3-0.136
	c8.523,1.244,17.07,1.871,25.643,1.835c24.489-0.078,48.175-5.418,71.065-15.971c1.055,0.287,2.142,0.531,3.266,0.725
	c16.528,2.833,42.222,6.582,77.079,11.247c42.156,5.632,72.448,9.015,90.876,10.147c1.333,0.067,2.166-0.25,2.5-0.949
	c0.333-0.8-0.233-1.583-1.7-2.35c-17.762-9.131-44.255-22.194-79.479-39.189l-37.087-17.798
	c12.674-12.383,23.781-26.549,33.288-42.536c5.535-9.298,10.188-18.636,13.97-28.014l83.204-8.177
	c39.156-4.133,65.1-7.415,77.829-9.848c1.134-0.2,1.717-0.667,1.75-1.399c0.033-0.733-0.517-1.233-1.649-1.5
	c-20.961-4.698-51.27-10.73-90.926-18.096c-24.161-4.461-43.641-7.948-58.439-10.462c0.351-4.635,0.52-9.277,0.454-13.931
	c-0.185-13.667-2.142-26.441-5.859-38.329c5.451-8.804,8.873-13.744,10.259-14.808c7.798-5.965,18.878-10.713,33.241-14.246
	c6.498-1.6,15.612-3.215,27.343-4.848c1.366-0.168,2.482-0.518,3.349-1.051c0.967-0.6,2.066-1.633,3.3-3.099l14.445-17.945
	c6.232-7.865,9.614-11.997,10.147-12.397c1.934-1.433,6.282-3.399,13.047-5.898c6.498-2.399,10.98-3.782,13.446-4.149l12.197-0.8
	l11.746-0.85c1.733-0.4,5.032-2.083,9.897-5.049c5.132-3.099,8.648-5.648,10.548-7.648s4.266-5.432,7.098-10.297
	c1.284-2.199,2.349-4.121,3.206-5.781c3.394-1.57,11.093-5.119,23.137-10.664c11.631-5.365,20.179-9.481,25.644-12.347
	c0.667-0.367,1.017-0.733,1.05-1.1C680.585,197.697,680.135,197.397,679.235,197.198z M130.431,333.211l-0.5-13.846
	c-0.167-6.266-0.117-10.681,0.15-13.246c0.067-0.9,0.3-1.733,0.7-2.5c0.333-0.666,0.9-1.499,1.7-2.499
	c2.433-3.032,5.499-6.498,9.198-10.397c3.832-3.998,6.915-6.981,9.248-8.947c1.2-1,2.982-2.083,5.349-3.249
	c4.898-2.366,11.813-5.449,20.744-9.248c3.125-1.343,5.833-2.49,8.143-3.451c8.088,4.233,15.373,8.151,21.856,11.755
	c-0.385,0.181-0.76,0.358-1.157,0.544l-28.692,13.247c-2.899,1.332-4.732,2.449-5.499,3.349c-0.7,0.833-1.399,2.666-2.099,5.499
	c-2.799,11.097-4.849,18.878-6.148,23.344c-2.469,8.684-4.648,15.003-6.541,18.975c-9.912,5.472-20.576,12.622-32,21.465
	c-3.01,2.316-5.892,4.607-8.651,6.873c-1.911-3.699-2.815-7.01-2.695-9.923c0.133-2.466,1.05-4.898,2.749-7.298l5.499-6.398
	l6.749-7.697c0.933-1.134,1.516-2.084,1.75-2.85C130.447,336.045,130.497,334.878,130.431,333.211z M212.024,359.604l27-4.647
	c-3.021,2.259-6.24,4.672-9.67,7.248c-1.966,1.466-5.815,2.716-11.547,3.749l-9.643,1.491c1.324-3.06,2.458-5.414,3.394-7.04
	C211.714,360.126,211.869,359.866,212.024,359.604z M208.86,424.088l4.549-1.55c2.014-0.763,3.948-2.056,5.807-3.862
	c-0.208,1.42-0.471,2.886-0.808,4.412c-0.544,2.295-1.131,4.118-1.759,5.489c-2.123-0.06-4.257-0.179-6.405-0.367
	c-0.084-0.008-0.17-0.019-0.254-0.026c-1.308-1.183-2.453-2.146-3.446-2.901C207.119,424.869,207.887,424.471,208.86,424.088z
	 M258.486,312.698c-2.796,1.374-5.445,2.704-7.943,3.986c0.34-1.9,0.692-3.359,1.056-4.367c0.232-0.698,0.585-1.527,1.031-2.462
	l1.897-0.706C255.905,310.34,257.227,311.522,258.486,312.698z M170.92,397.744c-0.606,1.681-1.513,3.578-2.688,5.668
	c-1.906-2.483-3.604-4.38-5.085-5.658c1.258-1.104,3.191-2.455,5.824-4.059c1.1-0.669,2.229-1.321,3.372-1.965
	C172.049,393.897,171.576,395.903,170.92,397.744z M333.577,227.74c-0.218,1.221-0.927,3.376-2.114,6.44
	c-6.095-2.01-12.419-3.925-18.982-5.744c4.216-1.742,9.245-3.523,15.097-5.345c1.127-0.349,3.073-0.911,5.798-1.678
	C333.675,224.645,333.744,226.765,333.577,227.74z M91.741,376.65c0.5,0.366,0.8,0.633,0.9,0.799l0.3,1.15l-0.45,5.648l-0.05,2.05
	c0.133,0.566,0.45,1.149,0.95,1.749c0.502,0.586,0.902,1.114,1.207,1.589c-2.086-0.686-4.204-1.275-6.351-1.778
	c-0.942-6.16-2.229-11.793-3.861-16.894C86.496,372.65,88.944,374.543,91.741,376.65z"/>
</svg>
