<?xml version="1.0" encoding="utf-8"?>
<!-- Generator: Adobe Illustrator 16.0.0, SVG Export Plug-In . SVG Version: 6.00 Build 0)  -->
<!DOCTYPE svg PUBLIC "-//W3C//DTD SVG 1.1//EN" "http://www.w3.org/Graphics/SVG/1.1/DTD/svg11.dtd">
<svg version="1.1" id="图层_1" xmlns="http://www.w3.org/2000/svg" xmlns:xlink="http://www.w3.org/1999/xlink" x="0px" y="0px"
	 width="734px" height="576px" viewBox="0 0 734 576" enable-background="new 0 0 734 576" xml:space="preserve">
<path d="M726.519,102.055l-8.196-8.246c-0.733-0.933-1.383-1.933-1.949-2.999c-0.633-1.133-0.967-2.032-1-2.699
	c-0.066-1.299-0.399-2.299-0.999-2.999l-2.1-1.599c-1.433-1.033-4.098-1.55-7.996-1.55c-5.798,0-9.213-0.066-10.246-0.2
	c-5.098-0.633-12.095-3.715-20.99-9.246L653.65,59.574c-1.233-0.766-1.933-1.799-2.1-3.099l0.15-3.448
	c0.066-0.733-0.217-1.167-0.85-1.3c-1.434-0.333-2.815-1.049-4.148-2.149c-1.066-0.899-1.833-1.783-2.299-2.649
	c-0.633-1.033-1.566-1.583-2.799-1.649c-1.166-0.067-2.399,0.283-3.698,1.049c-1.566,0.899-3.966,1.183-7.197,0.85
	c-3.032-0.333-5.147-0.95-6.348-1.849c-1.232-0.933-3.148-1.933-5.747-2.999c-2.599-1.066-4.165-1.799-4.698-2.199
	c-4.564-3.465-7.263-7.88-8.097-13.244c-0.1-4.898-0.466-7.713-1.1-8.446c-0.499-0.633-2.165-0.966-4.997-1l-6.598,0.35
	c-0.499,0.066-0.833,0.35-0.999,0.85c-2.033,4.931-5.931,8.596-11.695,10.995c-4.132,1.732-8.729,2.666-13.794,2.799
	c-3.332,0.1-8.047-1.482-14.144-4.748c-4.731-2.499-9.146-5.331-13.244-8.496c-1.167-0.899-1.866-1.999-2.1-3.299
	c-0.133-0.833-0.083-2.049,0.15-3.648c0.066-0.5-0.217-1.183-0.85-2.049c-0.667-0.933-1.316-1.516-1.949-1.749l-4.848-0.4
	l-7.098-0.35c-2.199-0.233-5.431-1.133-9.695-2.699c-4.365-1.633-6.897-2.899-7.597-3.798c-1.066-1.333-3.999-1.6-8.797-0.8
	l-2.299,0.65c-0.8,0.4-1.266,0.866-1.399,1.399c-0.166,0.6,0.084,1.366,0.75,2.299s1.549,1.683,2.648,2.249
	c2.232,1.133,4.948,2.699,8.146,4.698c4.165,2.632,7.697,5.147,10.596,7.546l11.396,9.596c4.765,4.398,8.579,8.747,11.444,13.044
	c0.467,0.667,0.55,2.033,0.25,4.098c-0.267,1.799-0.683,3.449-1.249,4.948c-0.533,1.433-0.45,2.682,0.25,3.748
	c0.499,0.733,1.349,1.45,2.549,2.149c2.099,1.199,3.981,2.815,5.647,4.848c1.666,2.033,3.382,4.814,5.147,8.347
	c5.098,10.095,4.265,19.875-2.499,29.337c-0.233,0.3-0.166,0.716,0.2,1.25c0.767,1.033,1.05,2.532,0.85,4.498
	c-0.2,1.699-0.683,3.365-1.449,4.998c-1.233,2.666-3.932,5.98-8.097,9.945c-4.265,4.032-8.496,7.247-12.694,9.646l-3.249,0.15
	c-1.399-0.4-2.349-1.049-2.849-1.949c-0.566-1-1.666-1.599-3.299-1.799l-3.198,0.1l-3.948-0.799c-2.266-0.6-3.481-1.033-3.648-1.3
	c-0.134-0.2,0.033-0.7,0.5-1.499l0.899-1.649c0.167-0.933-0.649-2.466-2.449-4.598c-1.799-2.199-3.115-3.148-3.948-2.849
	c-0.366,0.133-1.616,2.882-3.748,8.247c-2.199,5.531-4.349,8.962-6.447,10.295c-0.434,0.267-0.533,0.766-0.3,1.5
	c0.866,2.632,1.033,5.081,0.5,7.347c-0.667,2.699-2.282,4.798-4.849,6.297c-0.532,0.3-0.516,0.8,0.051,1.5
	c1.565,1.666,2.332,3.682,2.299,6.047c-0.033,1.399-0.684,2.782-1.949,4.148c-1.133,1.266-2.1,1.882-2.898,1.849l-4.349,0.45
	l-3.549,0.5l-2.849-2.449c-1.799-1.599-3.115-2.232-3.948-1.899c-0.666,0.3-1.615,2.349-2.849,6.147
	c-0.999,3.099-1.583,5.198-1.749,6.297c-0.066,0.333,0.3,1,1.1,2c0.933,1.133,1.482,1.932,1.649,2.398
	c0.3,0.733-0.316,2.333-1.85,4.798c-1.466,2.399-2.582,3.748-3.349,4.048l-1.599-0.25l-1.087-0.466
	c0.571-1.619,1.149-3.396,1.736-5.332c3.032-10.029,4.081-16.459,3.148-19.292c-0.966-2.898-4.198-6.68-9.695-11.345
	c-6.169-5.227-12.768-9.226-19.791-12.018l-3.312-8.869c7.665-5.709,18.146-15.036,31.448-27.992
	c14.527-14.161,21.524-22.224,20.991-24.189c-0.2-0.833-2.982-2.216-8.347-4.148c-5.664-1.999-12.511-3.965-20.541-5.897
	c-20.627-5.034-39.549-7.688-56.775-7.977c-0.844-4.017-3.887-7.49-9.146-10.416c-6.397-3.565-13.628-4.864-21.691-3.898
	c-0.6,0.066-0.933,0.283-0.999,0.649c-0.1,0.367,0.1,0.733,0.6,1.1c5.064,3.665,7.863,8.046,8.396,13.144
	c0.03,0.285,0.032,0.575,0.046,0.863c-7.257,1.146-14.122,2.969-20.587,5.485c-6.437,2.473-12.094,5.465-16.992,8.964
	c-0.129-0.627-0.247-1.265-0.351-1.917c-0.8-5.131-0.783-10.629,0.05-16.493c0.167-1.199-0.283-1.466-1.349-0.799
	c-4.266,2.666-7.98,6.813-11.146,12.444c-3.132,5.598-4.698,10.812-4.698,15.644c0,2.1,0.314,3.962,0.922,5.603
	c-9.113,9.844-17.306,21.311-24.562,34.429c-2.799,5.065-4.998,9.546-6.597,13.444c-1.466,3.632-2.016,5.698-1.649,6.197
	c0.8,1.133,7.713,2.682,20.742,4.648c12.434,1.865,22.182,2.816,29.251,2.854l0.188,1.163c-4.084,2.667-8.217,6.652-12.397,11.977
	c-4.098,5.198-6.613,9.529-7.547,12.994c-0.8,3.032,2.016,9.746,8.446,20.142c1.266,2.051,2.476,3.917,3.632,5.609
	c-0.193,0.097-0.373,0.206-0.583,0.288l-1.849,0.25c-0.3-0.1-0.684-0.75-1.149-1.949c-0.434-1.167-0.917-1.799-1.45-1.899
	c-0.466-0.1-1.399,0.183-2.799,0.85c-1.299,0.633-2.398,0.783-3.298,0.45c-0.767-0.266-1.366-0.866-1.8-1.799l-0.85-2.899
	c-0.267-1.1-0.699-2.032-1.299-2.799c-0.566-0.733-1.2-1.233-1.899-1.5c-0.967-0.366-1.616-1.232-1.949-2.599l-0.45-3.749
	c-0.166-1.499-0.816-2.149-1.949-1.949l-2.599-0.2l-1.849-0.7c-0.633-0.433-1.466-0.167-2.499,0.8
	c-3.465,3.465-6.197,5.764-8.196,6.897c-3.698,2.065-7.98,2.799-12.844,2.199c-3.299-0.399-5.981-1.133-8.047-2.199
	c-2.532-1.299-4.998-3.482-7.396-6.547l-1.899-1.949c-0.966-1.033-1.466-1.999-1.499-2.898l-0.05-1.549
	c-0.066-0.633-0.183-1.033-0.35-1.2c-0.966-0.5-1.883-1.049-2.749-1.649c-1.632-1.133-2.499-2.332-2.599-3.598
	c-0.034-0.566,0.066-1.116,0.3-1.649l0.899-1.449c1.2,0.833,2.433,1.449,3.699,1.849l2.149,0.2c0.866-0.533,1.1-2.049,0.7-4.548
	c-0.1-0.633,0.05-1.516,0.45-2.649c0.333-0.966,0.35-1.882,0.05-2.749c-0.333-0.966-1.149-1.799-2.449-2.499
	c-1.5-0.633-2.565-1.167-3.199-1.6c-2.732-1.799-4.048-3.665-3.948-5.597l0.1-1.05l-0.2-1.1l-2.299-3.548
	c-1.133-1.666-1.749-2.715-1.849-3.148l-0.85-2.949c-0.533-1.333-1.2-2.033-1.999-2.099c-0.7-0.067-1.483,0.616-2.349,2.049
	c-1.033,1.666-1.716,2.616-2.049,2.849l-4.248,3.298c-2.432,1.732-4.415,2.632-5.947,2.699c-2.399,0.133-3.932,1.083-4.598,2.849
	c-0.366,1.133-0.866,1.883-1.5,2.249c-0.7,0.434-1.815,0.633-3.348,0.6c-6.597-0.067-12.811-2.083-18.642-6.047
	c-6.097-4.165-11.028-9.996-14.793-17.493c-3.132-6.164-5.131-13.027-5.998-20.591c-0.7-6.131-0.633-10.146,0.2-12.045l0.15-0.8
	l-0.3-0.85c-0.7-1.699-0.017-3.715,2.049-6.047l4.248-5.348c1.5-2.299,2.716-4.897,3.648-7.796
	c1.866-5.698,6.098-11.329,12.694-16.893c3.832-3.199,9.213-6.88,16.143-11.045c1.433-0.866,2.932-1.383,4.498-1.549
	c1.966-0.233,3.532,0.233,4.698,1.399l1.599,0.05c2.732-3.598,7.03-6.747,12.895-9.446c4.598-2.132,8.996-3.532,13.194-4.198
	l2.499-0.05c0.699,0.133,1.166,0.383,1.399,0.75l1.599,0.05c1.799-2.099,4.714-4.332,8.746-6.697l6.147-3.749
	c0.667-0.733,1.433-2.516,2.299-5.348c0.9-3.032,1.066-4.781,0.5-5.248c-0.467-0.4-2.749-0.05-6.847,1.049
	c-5.564,1.533-9.679,2.482-12.345,2.849l-10.096,0.75c-2.699-0.133-5.297-0.766-7.796-1.899c-1.066-0.467-1.849-0.633-2.349-0.5
	c-0.6,0.167-1.049,0.783-1.349,1.849c-0.433,1.466-1.083,2.599-1.949,3.398c-0.8,0.8-2.416,1.866-4.848,3.199
	c-8.596,4.665-16.109,7.447-22.54,8.346l-3.249,0.85l-3.398,1.25l-2.399,0.95l-3.199-0.1c-5.265-0.933-9.413-2.182-12.445-3.748
	c-3.932-2.033-7.396-5.131-10.396-9.296c-0.167-0.233-0.366-1.133-0.6-2.699c-0.2-1.299-0.65-2.149-1.35-2.549
	c-0.566-0.333-1.732-0.183-3.498,0.45l-4.848,1.7c-2.232,0.666-3.698,0.816-4.398,0.45c-0.6-0.267-1.066-0.184-1.399,0.25
	c-1,1.366-2.449,2.732-4.348,4.099c-1.933,1.399-3.765,2.382-5.498,2.949c-0.733,0.233-0.966,0.683-0.7,1.349
	c0.733,1.833,0.649,4.465-0.25,7.896c-1.133,4.165-3.265,7.397-6.397,9.696l-2.199,2.099l-1.5,1.649
	c-1.266,1-2.416,1.633-3.448,1.899c-1.2,0.3-2.716,0.3-4.548,0c-1.966-0.3-4.148-0.917-6.547-1.85c-2.499-1-4.065-1.882-4.698-2.648
	l-1.749-3.399c-0.833-1.699-1.799-3.015-2.899-3.948c-0.466-0.4-0.983-0.45-1.549-0.15l-5.397,2.899
	c-2.266,1.133-3.832,1.666-4.698,1.599l-7.047-1.749c-3.932-0.966-6.414-1.149-7.447-0.55c-0.4,0.233-1.683,1.383-3.848,3.448
	c-1.966,1.933-4.215,3.515-6.747,4.748c-0.566,0.267-0.783,0.7-0.65,1.299c0.966,4.398,0.217,9.363-2.249,14.894
	c-2.666,5.998-6.547,10.612-11.645,13.844l-2.949,1.499c-1.199,0.567-1.849,0.917-1.949,1.05l-0.35,1.949
	c-0.167,1.166-0.35,1.799-0.55,1.899L50.812,90.21c-5.897,3.699-10.729,5.964-14.494,6.797c-2.499,0.5-6.397,0.116-11.695-1.15
	l-3.249,0.15c-1.433,0.434-2.516,1.25-3.249,2.449c-1.033,1.666-3.149,4.348-6.347,8.046c-3.432,3.898-5.931,6.414-7.497,7.547
	c-0.833,0.533-0.783,0.966,0.15,1.299c0.5,0.167,1.133,0.75,1.899,1.749l1.299,1.949c0.167,0.367,0.45,0.6,0.85,0.7l1.299-0.1
	c5.064-1.966,9.979-3.699,14.744-5.198c6.064-1.933,10.429-3.016,13.094-3.249l3.898-0.549c1.299-0.333,2.632-0.933,3.999-1.799
	c3.032-1.833,5.831-3.215,8.396-4.148c5.031-1.833,10.412-2.682,16.143-2.549l10.695,0.95c3.732,0.533,6.248,1.116,7.547,1.749
	c1.266,0.6,2.132,1.216,2.599,1.849c0.4,0.533,0.7,1.35,0.9,2.449c0.167,0.966,0.85,1.783,2.049,2.449
	c1.266,0.7,2.749,1.05,4.448,1.05l6.697-0.3c2.932-0.067,4.864,0.267,5.797,1c1.233,1,2.416,2.449,3.548,4.348
	c1.2,2.099,1.699,3.748,1.5,4.948l-0.55,4.948c-0.2,2.199-0.466,3.615-0.8,4.248c-0.4,0.733-2.216,2.466-5.448,5.198l-6.847,5.398
	c-0.533,0.333-0.816,0.75-0.85,1.25l-0.3,5.797c-0.1,1.933-0.233,2.982-0.4,3.148l-3.548,1.1c-2.166,0.633-3.349,1.116-3.549,1.449
	c-2.432,4.099-4.998,7.647-7.696,10.646c-3.865,4.265-7.697,6.98-11.495,8.146c-1.899,0.6-3.432,1.299-4.598,2.099
	c-1.533,1.066-2.732,2.482-3.599,4.248l-2.049,2.949l-1.799,2.149c-0.533,0.533-0.667,1.066-0.4,1.599l1.699,3.948
	c0.3,0.8,0.966,0.933,2,0.4c4.564-2.166,7.763-4.165,9.596-5.998c2.199-2.166,5.914-3.282,11.145-3.349
	c3.951-0.045,7.885,0.591,11.804,1.875c-3.136,8.569-5.738,16.058-7.806,22.464c-0.367,1.099-0.25,1.815,0.35,2.149
	c0.566,0.366,1.35,0.15,2.349-0.65c18.456-14.804,30.828-24.878,37.131-30.233c4.749-2.175,8.001-3.228,9.748-3.152
	c1.033,0.033,2.732,1.399,5.098,4.098c2.266,2.565,3.465,4.281,3.599,5.147c0.133,0.833-0.267,2.566-1.199,5.198
	c-0.966,2.766-1.833,4.432-2.599,4.998l-3.398,1.849c-1.599,0.767-2.599,1.433-2.999,1.999c-0.467,0.7-1.167,2.299-2.099,4.798
	c-0.867,2.466-1.266,3.849-1.2,4.148l1.5,2.899c0.766,1.999,0.783,3.865,0.05,5.597c-0.866,2.099-2.299,3.832-4.298,5.198
	l-2.899,1.75l-2.549,8.446c-2.599,6.431-6.48,12.228-11.645,17.393l-0.4,0.75c-0.066,0.333,0,0.566,0.2,0.7l3.548,3.599
	c0.6,0.733,1.199,0.85,1.799,0.35c4.498-3.932,7.963-6.664,10.396-8.196c4.165-2.632,7.48-3.548,9.945-2.749
	c0.733,0.267,1.167,0.033,1.3-0.7c0.733-4.065,2.932-7.796,6.597-11.195c0.2-0.186,0.398-0.343,0.597-0.517
	c-0.588,9.354-1.055,20.281-1.396,32.803c-0.033,1.167,0.2,1.866,0.7,2.099c0.533,0.233,1.233-0.25,2.099-1.449
	c4.931-6.831,10.495-14.894,16.692-24.189c3.037-4.527,5.607-8.437,7.719-11.743c3.342,0.151,5.238,0.034,5.676-0.352l1.999-2.649
	l1.649-2.699c0.4-0.566,0.899-0.966,1.499-1.2l1.45-0.15l2.399-0.25c0.899-0.366,1.583-0.899,2.049-1.599
	c0.6-0.866,1.3-1.516,2.099-1.949c0.833-0.466,1.433-0.533,1.799-0.2l3.548,2.299l1.999,0.899c0.733,0.3,1.15,0.55,1.25,0.75
	l0.45,2.898c0.233,1.833,0.433,2.949,0.6,3.349l1.849,2.999c0.933,1.666,1.333,3.015,1.2,4.048c-0.133,1.033-1.25,2.333-3.349,3.898
	c-2.366,1.766-3.932,3.449-4.698,5.048c-0.167,0.4-0.333,1.783-0.5,4.148c-0.367,2.499-1.233,4.431-2.599,5.797l-0.45,0.55
	c-0.133,0.233-0.133,0.55,0,0.95c1.1,3.165,0.966,7.197-0.4,12.095c-1.133,4.031-2.849,7.946-5.147,11.745
	c-0.767,1.233-1.033,2.666-0.8,4.298c0.3,1.966,1.316,3.865,3.049,5.697c0.533,0.533,0.983,0.6,1.349,0.2
	c2.366-2.399,4.881-6.031,7.547-10.896l5.298-10.646c1.666-3.332,3.499-5.864,5.498-7.597c2.732-2.399,5.947-3.548,9.646-3.448
	l2.699-0.1c0.733-0.233,1.266-0.95,1.599-2.149c0.242-0.817,0.479-1.542,0.712-2.188c5.602,9.657,13.656,22.275,24.177,37.873
	c0.8,1.199,1.5,1.683,2.099,1.449c0.566-0.233,0.85-0.95,0.85-2.149c0.066-5.265,0-14.71-0.2-28.338
	c-0.093-6.93-0.194-12.446-0.302-16.586c0.217,0.081,0.426,0.152,0.651,0.244c1.833,0.766,3.349,1.649,4.548,2.649l0.75,0.25
	l0.55-0.549c0.733-2.399,2.166-4.432,4.298-6.098c2.399-1.866,5.165-2.766,8.296-2.699c2.999,0.066,6.297,0.517,9.896,1.349
	c2.898,0.633,5.198,1.316,6.897,2.049c1.1,0.466,1.982,1.383,2.649,2.749l1.449,4.248c0.233,0.866,0.433,1.416,0.6,1.649
	c0.267,0.466,0.75,0.75,1.449,0.85c0.867,0.1,2.033,0.383,3.499,0.85c1.6,0.5,2.766,0.966,3.499,1.399
	c0.6,0.366,1.083,0.233,1.45-0.4c1.766-3.299,3.898-5.331,6.397-6.098c0.799-0.233,1.332-0.533,1.599-0.899
	c0.3-0.367,0.483-1.066,0.55-2.099l0.35-3.698c0.233-1.5,0.7-2.516,1.399-3.049c0.8-0.6,1.982-1.049,3.549-1.349l2.881-0.091
	c1.534,2.771,4.255,6.6,8.164,11.486c5.013,6.278,9.313,10.585,12.903,12.927c-4.142,1.453-8.705,3.75-13.703,6.915
	c-6.396,4.065-9.995,7.447-10.795,10.146c-1.302,4.32,1.615,11.114,8.73,20.369c-6.739,7.007-13.68,12.229-20.825,15.615
	c-5.897,2.799-14.077,5.181-24.54,7.147c-21.791,4.164-39.783,9.012-53.977,14.543c-22.957,8.93-42.231,21.174-57.825,36.734
	c-11.095,11.096-24.522,20.141-40.283,27.138c-17.392,7.697-33.902,11.046-49.528,10.046c-13.527-0.866-27.838-3.165-42.931-6.896
	c-6.197-1.533-15.027-4.099-26.489-7.697c-3.665-1.166-6.197-0.833-7.597,1c-1.466,1.898-1.1,4.781,1.1,8.646
	c12.294,21.758,30.986,39.316,56.076,52.678c25.062,13.363,52.87,20.543,83.41,21.571c0.812,0.831,1.739,1.733,2.802,2.718
	c3.728,3.437,6.623,5.423,8.714,6.007c0.92,5.252,1.236,11.852,0.932,19.832c-0.309,7.904-1.178,14.34-2.595,19.344
	c-1.874,1.804-4.088,3.982-6.651,6.545c-0.8,0.8-0.85,1.467-0.15,1.999l12.944,8.797c5.464,3.665,9.063,6.014,10.795,7.047
	c0.766,0.433,1.35,0.566,1.749,0.399c0.367-0.2,0.434-0.683,0.2-1.449c-0.451-1.42-0.883-2.772-1.306-4.092
	c1.555,1.17,3.588,3.614,6.104,7.341c1.966,2.898,4.481,6.946,7.547,12.145c0.366,0.6,0.783,0.883,1.25,0.85
	c0.466,0,0.85-0.333,1.149-1c3.132-7.097,5.831-12.378,8.096-15.843c1.687-2.566,3.322-4.382,4.908-5.474
	c-0.66,1.748-1.23,3.324-1.709,4.724c-0.5,1.399-0.566,2.266-0.2,2.599c0.399,0.334,1.299,0.15,2.699-0.55l6.997-3.897
	c0.87-0.519,1.677-1.012,2.452-1.492c-0.465,0.575-0.87,1.093-1.203,1.542c-0.6,0.833-0.517,1.482,0.25,1.949
	c2.599,1.499,6.797,3.698,12.595,6.597l12.444,5.998c0.833,0.399,1.383,0.516,1.649,0.35c0.3-0.2,0.3-0.767,0-1.699l-0.785-2.137
	c2.079,0.462,4.42,1.995,7.032,4.636c3.132,3.165,6.43,7.713,9.896,13.644c0.3,0.467,0.65,0.717,1.05,0.75
	c0.433,0,0.733-0.2,0.899-0.6c3.232-6.197,6.247-10.995,9.046-14.394c2.349-2.896,4.333-4.504,5.966-4.869
	c-0.317,0.922-0.628,1.835-0.918,2.72c-0.267,0.833-0.183,1.416,0.25,1.749l1.649-0.1c13.427-6.631,21.624-10.846,24.589-12.645
	c0.466-0.3,0.666-0.65,0.6-1.05l-0.6-1.1l-3.577-4.012c-1.191-3.753-2.182-8.743-2.97-14.979c-1.108-8.646-1.424-16.65-0.968-24.03
	c1.387-0.895,3.251-2.584,5.616-5.107c3.532-3.731,5.298-6.298,5.298-7.696c0-0.025-0.007-0.053-0.007-0.078
	c0.237,0.456,0.482,0.898,0.707,1.377c1.527,3.305,2.42,6.516,2.698,9.635l-3.397,4.409c-0.466,0.566-0.466,1.083,0,1.55
	c4.398,4.298,9.845,9.229,16.343,14.793c0.732,0.633,1.315,0.866,1.749,0.7c0.433-0.167,0.5-0.75,0.199-1.749
	c-0.118-0.356-0.23-0.692-0.345-1.041c0.433,0.25,0.896,0.623,1.395,1.141c0.866,0.866,1.649,1.916,2.35,3.148
	c2.032,3.731,4.798,9.163,8.296,16.293c0.399,0.833,0.816,1.232,1.25,1.199c0.466-0.033,0.815-0.517,1.049-1.449
	c1.466-5.531,3.898-12.461,7.297-20.791c0.7-1.633,1.5-2.932,2.399-3.898c0.407-0.471,0.929-0.927,1.542-1.371
	c-0.113,0.602-0.227,1.202-0.343,1.821c-0.133,0.733-0.05,1.266,0.25,1.6c0.366,0.399,0.916,0.316,1.649-0.25
	c6.741-5.169,12.165-9.904,16.289-14.21l-0.347,3.464c-0.3,1.7-0.066,3.166,0.7,4.398c0.699,1.166,1.749,1.982,3.148,2.449
	c2.999,0.966,7.113,1.866,12.345,2.698l14.786,1.411c-0.046,0.237-0.027,0.483,0.058,0.738c0.166,0.533,0.533,0.783,1.1,0.75
	l36.484-1.1c0.566-0.033,0.899-0.25,0.999-0.649c0.101-0.434-0.05-0.816-0.449-1.15l-2.583-1.957
	c3.36-1.151,9.968-1.815,19.825-1.991c0.699,0,1.1-0.216,1.199-0.649c0.101-0.433-0.116-0.866-0.649-1.3
	c-11.328-8.529-17.159-13.061-17.492-13.594c-0.5-0.833-1.85-4.182-4.049-10.046c-2.063-5.521-3.797-10.448-5.201-14.778
	l1.375-7.694c1.42-0.774,2.829-1.564,4.219-2.387c3.195,1.284,6.792,3.316,10.803,6.118c4.492,3.107,7.818,5.984,10.01,8.638
	c-3.785,6.652-5.377,10.908-4.762,12.753c0.766,2.266,3.498,4.781,8.196,7.547c1.396,0.83,2.774,1.54,4.14,2.146
	c0.91,4.638,1.558,9.669,1.907,15.146c0.4,6.331,0.334,12.028-0.199,17.093c-0.334,3.265-0.334,5.497,0,6.697
	c0.466,1.699,1.749,2.865,3.848,3.498c1.833,0.566,6.364,1.383,13.595,2.449l17.011,2.266c-0.089,0.127-0.186,0.263-0.269,0.383
	c-0.399,0.601-0.5,1.1-0.3,1.5c0.2,0.433,0.717,0.666,1.55,0.699c8.396,0.167,21.391,0.167,38.982,0c1.1-0.033,1.666-0.3,1.699-0.8
	c0.034-0.433-0.35-0.966-1.149-1.599c-1.758-1.342-3.439-2.608-5.087-3.84c2.682-0.491,6.809-0.846,12.434-1.059
	c6.265-0.233,12.295-0.233,18.093,0c0.732,0.033,1.149-0.183,1.249-0.649c0.101-0.467-0.166-0.899-0.8-1.3
	c-3.165-2.132-7.413-5.264-12.744-9.396l-8.546-6.947c-0.333-0.333-1.866-4.198-4.599-11.595l-5.847-15.644
	c-0.424-6.355-0.305-17.026,0.355-31.989c1.246-0.969,2.908-2.764,4.992-5.395c3.365-4.231,5.047-7.297,5.047-9.195
	c0-1.1-1.133-3.082-3.398-5.948c-2.075-2.55-3.965-4.437-5.672-5.667c-0.113-4.851-0.733-9.18-1.874-12.975
	c-1.1-3.632-3.016-7.764-5.748-12.395c-3.332-5.598-7.33-13.811-11.995-24.64c-5.271-12.098-9.194-22.711-11.803-31.874
	c-0.66-4.726-1.904-11.815-3.74-21.303c-2.428-12.748-4.58-22.991-6.457-30.745c2.391-2.251,5.192-7.526,8.406-15.834
	c4.065-10.529,5.397-17.926,3.998-22.19c-0.766-2.299-3.682-5.431-8.746-9.396c-5.14-4.022-10.557-7.302-16.247-9.856
	c0.932-0.469,1.789-0.994,2.554-1.589c2.531-1.933,4.947-7.081,7.246-15.443c0.499-1.813,0.914-3.472,1.255-4.992
	c0.29-0.29,0.587-0.561,0.895-0.805c0.999-0.8,1.832-1.216,2.499-1.25c1.133-0.067,2.898,1.133,5.298,3.598
	c2.665,2.699,4.198,4.132,4.598,4.298l5.647-0.2c2.399-0.633,3.915-1.35,4.548-2.149c0.233-0.3,0.15-1.316-0.25-3.048
	c-0.433-1.933-0.633-3.082-0.6-3.449c0.167-1.299,1.133-2.815,2.899-4.548c1.499-1.466,2.698-2.349,3.598-2.649l2.749,0.1
	c1.166,0.366,1.999,0.933,2.499,1.699c0.5,0.733,1.199,1.283,2.1,1.649l2.148,0.25c1.233-0.233,2.216,1.016,2.949,3.749
	c0.799,2.932,0.666,5.831-0.4,8.696c-0.366,1-0.399,2.232-0.1,3.698c0.267,1.5,0.816,2.715,1.649,3.648l3.848,1.749
	c2.232,0.966,4.016,2.516,5.348,4.648l5.498,9.896l4.698,8.646c0.533,0.933,1.683,1.6,3.448,2c1.699,0.399,3.016,0.383,3.948-0.05
	s1.316-2.699,1.149-6.797c-0.233-5.598-0.2-9.313,0.101-11.145c0.066-0.4,0.017-0.7-0.15-0.9l-0.5-0.45
	c-4.397-3.765-6.447-7.68-6.147-11.745c0.027-0.393,0.095-0.797,0.188-1.21c2.938,2.053,6.252,4.303,9.958,6.758l22.341,14.494
	c1.033,0.667,1.749,0.816,2.149,0.45c0.366-0.3,0.366-0.899,0-1.799l-10.696-26.039c-4.708-11.051-7.984-18.227-9.837-21.545
	c0.981-0.992,2.11-1.625,3.391-1.895c2.498-0.533,4.848,0.2,7.047,2.199c1.999,1.766,3.598,4.298,4.798,7.597
	c0.866,2.366,3.099,3.398,6.696,3.099c3.032-0.3,6.265,0.517,9.696,2.449c1.866,1.033,4.064,2.648,6.597,4.848
	c4.799,4.131,8.497,8.23,11.096,12.294c1.532,2.399,3.365,6.131,5.497,11.195c0.9,2.099,2.35,3.698,4.349,4.798
	c1.766,0.933,3.099,1.149,3.998,0.65c0.899-0.533,0.883-2.599-0.05-6.197l-1.949-7.797c-0.033-0.566,0.434-1.882,1.399-3.948
	c0.899-1.966,1.3-3.165,1.199-3.598c-0.1-0.367-1.399-1.649-3.898-3.849c-2.698-2.332-4.314-3.932-4.848-4.798
	c-3.001-4.822-5.672-10.369-8.026-16.613c0.095,0.024,0.185,0.046,0.28,0.07l24.988,6.198c0.934,0.266,1.6,0.167,2-0.3
	c0.466-0.5,0.283-1.116-0.55-1.849l-20.691-20.541c-5.603-5.619-9.978-9.974-13.136-13.075c0.156-1.384,0.88-3.234,2.19-5.567
	c1.466-2.632,2.499-4.098,3.099-4.398c0.333-0.167,1.449-0.15,3.349,0.05l3.549,0.6c0.833,0.333,2.315,1.616,4.448,3.848
	c0.466,0.466,0.966,0.566,1.499,0.3c2.898-1.533,5.897-1.433,8.996,0.3l3.049,1.999c0.933,0.666,1.582,0.966,1.949,0.899
	c0.499-0.1,1.133-0.716,1.898-1.849c0.833-1.166,1.5-1.833,1.999-1.999c1.3-0.433,5.981,1.433,14.045,5.597
	c8.929,4.632,15.626,9.246,20.091,13.844c1.466,1.5,3.515,1.949,6.147,1.35c2.499-0.533,3.798-1.35,3.898-2.449
	c0.1-1.1-2.149-3.932-6.747-8.496l-8.597-8.197c-0.833-0.866-1.35-2.549-1.549-5.048c-0.2-2.699-0.434-4.298-0.7-4.798
	c-0.333-0.633-2.716-1.799-7.146-3.498l-5.391-2.124l26.031-1.875c0.967-0.066,1.499-0.367,1.6-0.899
	c0.1-0.533-0.384-1.033-1.449-1.5l-30.438-14.544c-10.074-4.78-16.913-7.958-20.545-9.546c-0.421-2.86-1.215-6.319-2.395-10.395
	c-0.434-1.566-0.217-4.731,0.649-9.496c0.8-4.465,1.466-7.047,1.999-7.747l3.398-2.499l4.948-3.148
	c0.732-0.467,1.282-1.149,1.649-2.049c1.966-4.964,3.615-7.747,4.947-8.346c1.3-0.633,3.849-1.016,7.647-1.149l9.245,0.5
	c2.466,0.433,5.048,1.716,7.747,3.849c2.466,1.966,3.932,3.715,4.398,5.248l0.899,2.249c0.433,0.733,0.982,1.216,1.649,1.449
	l2.748,0.1l2.549-0.1l1.35,1.35c0.767,0.833,1.816,1.333,3.149,1.499c1.865,0.3,3.182-0.066,3.948-1.099
	c1.166-1.6,2.498-2.399,3.998-2.399c4.965,0,8.963,0.55,11.994,1.649c2.133,0.733,4.849,2.266,8.146,4.598l2.899,2.549
	c1.166,1.1,2.315,1.949,3.448,2.549l5.248,3.948c2.266,1.833,3.748,2.833,4.448,2.999c1.599,0.4,3.314,0.15,5.147-0.75
	c1.732-0.866,2.599-1.749,2.599-2.648C732.216,108.136,730.316,105.787,726.519,102.055z"/>
</svg>
