<?xml version="1.0" encoding="utf-8"?>
<!-- Generator: Adobe Illustrator 16.0.0, SVG Export Plug-In . SVG Version: 6.00 Build 0)  -->
<!DOCTYPE svg PUBLIC "-//W3C//DTD SVG 1.1//EN" "http://www.w3.org/Graphics/SVG/1.1/DTD/svg11.dtd">
<svg version="1.1" id="图层_1" xmlns="http://www.w3.org/2000/svg" xmlns:xlink="http://www.w3.org/1999/xlink" x="0px" y="0px"
	 width="400px" height="448px" viewBox="0 0 400 448" enable-background="new 0 0 400 448" xml:space="preserve">
<path d="M388.703,309.568c-5.332-7.298-12.846-14.729-22.542-22.292c-24.404-19.087-51.995-31.446-82.757-37.115
	c-0.559-2.123-1.285-4.23-2.211-6.319c-3.183-7.234-7.936-12.559-14.228-16.007c-2.281-3.731-6.585-10.456-12.913-20.179
	c-11.762-17.96-18.909-29.389-21.441-34.287c-4.063-7.81-6.783-15.327-8.17-22.556c0.875,0.527,1.768,1.019,2.675,1.48
	c0.066,0.043,0.131,0.09,0.197,0.133c-0.003-0.013-0.005-0.025-0.008-0.039c3.669,1.842,7.598,3.167,11.804,3.937
	c3.064,0.566,4.765,0.6,5.098,0.1c0.333-0.566-0.483-2.283-2.449-5.148c-3.698-5.363-6.433-12.212-8.207-20.542
	c3.065-0.512,8.711-0.148,16.954,1.099l4.952,0.878c6.031,4.339,13.834,7.122,23.438,8.318c9.695,1.199,18.26,0.566,25.689-1.899
	c2.133-0.7,3.266-1.316,3.399-1.85c0.133-0.566-0.717-1.216-2.55-1.949c-6.164-2.499-13.012-6.647-20.542-12.445
	c-8.05-6.204-14.101-12.347-18.201-18.43c2.396-6.064,2.599-12.549,0.608-19.456c-2.666-9.263-9.014-16.394-19.043-21.392l-1.6-0.35
	c-2-8.563-1.833-17.96,0.5-28.189c2.299-10.129,6.83-21.325,13.595-33.587c0.633-1.1,0.25-1.483-1.149-1.149
	c-21.293,4.731-37.819,15.927-49.582,33.587c-9.596,14.395-14.678,30.372-15.244,47.932c-0.465,14.638,1.934,28.174,7.19,40.61
	c-2.469,10.763-3.667,23.898-3.592,39.41c0.034,4.199,0.25,12.346,0.65,24.441c0.333,9.396,0.4,16.46,0.2,21.192
	c-0.183,4.226-0.78,7.923-1.779,11.107c-8.927-25.184-22.686-46.87-41.305-65.037c-16.527-16.161-35.653-28.473-57.378-36.936
	c-19.293-7.497-37.636-10.979-55.029-10.446c-16.794,0.533-28.423,4.582-34.887,12.145c-8.363,9.763-10.829,22.559-7.397,38.386
	c3.365,15.661,11.962,31.805,25.79,48.432c14.628,17.593,33.104,33.221,55.429,46.882c17.604,10.791,36.501,19.613,56.677,26.487
	c-35.932,35.544-61.891,65.318-77.869,89.319c-2.433,3.633-2.666,5.765-0.7,6.398c1.833,0.566,4.631-0.25,8.397-2.449
	c14.161-8.397,24.924-14.645,32.288-18.743c10.559-5.863,18.492-9.867,23.814-12.024c-9.285,17.344-15.812,34.663-19.566,51.959
	c-2.833,13.129-3.682,24.641-2.549,34.537c1,8.663,3.082,13.845,6.248,15.544c5.531,2.933,14.194,0.9,25.99-6.098
	c12.462-7.431,25.124-18.576,37.986-33.438c11.28-13.101,21.325-27.606,30.16-43.488c7.681-0.269,15.833-1.937,24.47-5.043
	c10.563-3.799,19.908-9.08,28.039-15.845c9.269-7.711,16.132-16.562,20.603-26.544c23.94,11.958,49.191,18.849,75.761,20.646
	c11.263,0.767,20.743,0.366,28.439-1.199c7.664-1.566,12.162-4.016,13.495-7.348C395.65,321.547,393.768,316.498,388.703,309.568z
	 M142.845,259.586l-0.134,0.11c-10.894-9.073-20.686-18.951-29.355-29.648c-7.797-9.597-13.195-18.36-16.194-26.291
	c-3.199-8.497-3.382-15.361-0.55-20.592c2.099-3.199,6.364-4.931,12.795-5.198c6.864-0.3,14.645,1.166,23.341,4.398
	c21.678,8.023,41.34,23.498,58.996,46.388c-0.941,1.18-1.971,2.375-3.117,3.593c-2.532,2.666-7.431,7.265-14.694,13.795
	c-8.971,8.013-16.395,14.819-22.307,20.447C148.675,264.336,145.743,262.019,142.845,259.586z M133.299,382.541
	c0.866-6.832,2.949-15.262,6.248-25.291c1.422-4.301,2.956-8.564,4.586-12.799l0.461,0.254c6.165,3.432,11.179,5.997,15.044,7.697
	c6.375,2.758,12.835,4.816,19.379,6.193c-1.427,1.733-2.871,3.452-4.335,5.152c-9.13,10.563-17.477,18.643-25.041,24.24
	c-7.331,5.365-12.329,7.281-14.995,5.748C132.882,392.937,132.432,389.205,133.299,382.541z M282.517,273.164
	c1.144-3.952,1.839-7.417,2.075-10.379c0.12-1.667,0.13-3.324,0.037-4.972c15.002,4.242,30.732,12.324,47.195,24.265
	c7.497,5.465,13.312,10.58,17.443,15.344c4.398,5.031,6.147,8.863,5.248,11.496c-0.6,1.833-3.249,3.249-7.947,4.248
	c-4.698,1-10.596,1.383-17.693,1.15c-16.815-0.524-33.178-3.91-49.09-10.142C282.597,294.737,283.507,284.4,282.517,273.164z"/>
</svg>
