<?xml version="1.0" encoding="utf-8"?>
<!-- Generator: Adobe Illustrator 16.0.0, SVG Export Plug-In . SVG Version: 6.00 Build 0)  -->
<!DOCTYPE svg PUBLIC "-//W3C//DTD SVG 1.1//EN" "http://www.w3.org/Graphics/SVG/1.1/DTD/svg11.dtd">
<svg version="1.1" id="图层_1" xmlns="http://www.w3.org/2000/svg" xmlns:xlink="http://www.w3.org/1999/xlink" x="0px" y="0px"
	 width="227px" height="177px" viewBox="0 0 227 177" enable-background="new 0 0 227 177" xml:space="preserve">
<path d="M224.111,81.41c0.865-1.963,1.014-4.027,0.449-6.189c-0.533-2.163-1.664-3.994-3.395-5.491
	c-1.83-1.631-4.061-2.596-6.689-2.895c-13.51-1.531-26.338-3.86-38.484-6.988c-11.83-3.053-23.614-7.014-35.354-11.859
	c-2.047-7.694-5.309-14.431-9.82-20.187c-2.662-3.394-5.573-4.692-8.734-3.894c-3.295,0.799-5.508,3.578-6.639,8.336
	c-0.33,1.356-0.679,2.683-1.021,4.019c-10.815-5.508-22.156-11.875-34.028-19.105c0.181-1.039,0.208-2.099,0.059-3.182
	c-0.599-4.259-3.444-7.753-8.536-10.482c-5.856-3.128-13.161-4.176-21.913-3.145c-8.153,0.998-14.642,3.693-19.467,8.086
	c-4.559,4.16-6.422,8.635-5.59,13.427c0.499,2.895,2.512,5.458,6.04,7.687c2.767,1.747,5.367,2.705,7.802,2.872
	c-8.604,6.249-15.5,14.257-20.68,24.033c-5.79,10.882-8.552,22.263-8.286,34.142c0.133,6.49,1.597,12.546,4.393,18.17
	c2.795,5.69,6.605,10.316,11.431,13.877c9.905,7.279,21.326,8.815,34.253,4.647c-6.589,4.237-14.57,8.247-23.971,12.024
	c-10.449,4.226-19.9,7.104-28.352,8.635c-3.561,0.633-5.857,1.896-6.888,3.793c-1.098,2.063-0.599,4.809,1.498,8.236
	c3.693,6.023,9.45,10.184,17.271,12.479c7.687,2.23,14.925,1.997,21.713-0.698c4.991-1.997,9.384-5.241,13.178-9.733
	c3.582-4.298,7.557-10.799,11.926-19.499c1.195,2.826,2.73,5.313,4.646,7.419c3.594,3.961,8.502,6.489,14.725,7.588
	c6.389,1.098,12.146,0.299,17.271-2.396c11.946-0.232,18.27-1.414,18.968-3.544c0.167-0.499-1.214-2.944-4.144-7.337
	c-2.396-3.634-4.047-6.769-4.958-9.411c0-4.314-0.887-7.938-2.678-10.854c-2.022-3.303-5.125-5.55-9.29-6.758
	c6.729-2.906,12.965-6.478,18.674-10.763c9.949-7.521,16.805-15.923,20.564-25.208c1.408-3.434,2.287-7.195,2.681-11.256
	c12.169,7.344,21.382,12.598,27.618,15.748c12.679,6.457,25.424,11.464,38.235,15.025c6.09,1.664,10.382,0.799,12.878-2.596
	c2.529-3.428,1.764-7.388-2.296-11.88C221.531,85.137,223.179,83.506,224.111,81.41z M90.986,36.936
	c-7.089-4.536-13.707-7.639-19.854-9.313c1.841-0.796,3.475-1.85,4.902-3.163l17.098,12.226l17.72,12.376
	c-0.458,1.511-0.922,3.01-1.397,4.492C105.724,47.944,99.572,42.405,90.986,36.936z"/>
</svg>
