<?xml version="1.0" encoding="utf-8"?>
<!-- Generator: Adobe Illustrator 16.0.0, SVG Export Plug-In . SVG Version: 6.00 Build 0)  -->
<!DOCTYPE svg PUBLIC "-//W3C//DTD SVG 1.1//EN" "http://www.w3.org/Graphics/SVG/1.1/DTD/svg11.dtd">
<svg version="1.1" id="图层_1" xmlns="http://www.w3.org/2000/svg" xmlns:xlink="http://www.w3.org/1999/xlink" x="0px" y="0px"
	 width="478px" height="320px" viewBox="0 0 478 320" enable-background="new 0 0 478 320" xml:space="preserve">
<path d="M475.102,21.436c-1.165-5.396-2.914-9.811-5.245-13.242c-3.433-4.997-10.811-7.712-22.138-8.145
	c-13.657-0.5-30.597,2.665-50.816,9.494c-36.111,12.159-71.256,32.213-105.436,60.163c-34.531,28.19-62.763,60.147-84.722,95.854
	c-0.788-3.062-2.398-5.835-4.872-8.31c-0.843-0.843-1.721-1.577-2.627-2.226l12.921-28.805l10.693-24.734
	c2.731-6.463,3.198-10.344,1.399-11.643c-1.766-1.299-4.747,0.533-8.944,5.497c-12.655,14.858-25.36,30.645-38.113,47.352
	c-0.081-6.159,0.664-18.727,2.236-37.708c1.599-19.055,3.248-35.944,4.947-50.668c1.066-9.127,0.417-13.791-1.949-13.991
	c-2.265-0.167-5.48,3.781-9.644,11.843c-4.497,8.661-9.294,22.786-14.391,42.374c-5.018,19.231-7.764,34.027-8.251,44.417
	c-2.473-4.283-6.015-10.969-10.637-20.082c-4.764-9.361-7.945-15.791-9.544-19.288c-1.565-3.365-3.181-4.464-4.847-3.298
	c-1.699,1.199-2.165,4.181-1.399,8.944c1.199,7.628,3.931,17.755,8.195,30.381c1.787,5.308,3.625,10.277,5.515,14.908
	c-10.45-12.252-27.106-27.362-49.987-45.339c-23.021-18.157-39.377-29.566-49.071-34.23c-15.724-7.595-26.6-6.896-32.629,2.099
	c-1.199,1.799-2.332,4.714-3.398,8.745c-1.232,4.764-1.916,9.578-2.049,14.441c-0.4,13.458,3.398,23.635,11.393,30.531
	c11.226,9.661,21.636,19.521,31.23,29.582c11.293,11.792,17.889,20.271,19.788,25.434c6.596,17.955,10.443,28.132,11.542,30.529
	c5.23,11.326,11.26,19.223,18.089,23.687c6.496,4.229,14.024,7.013,22.586,8.345c8.2,1.262,18.093,1.284,29.638,0.098
	c-4.709,3.544-8.066,6.215-10.05,7.998c-6.496,5.83-9.744,10.844-9.744,15.041c0,5.197,2.499,10.311,7.496,15.34
	c5.596,5.631,13.292,9.928,23.085,12.893c-0.233,0.6-1.199,2.049-2.898,4.348c-1.999,3.099-3.231,5.479-3.698,7.146
	c-0.433,1.533-0.383,3.199,0.15,4.998c0.733,2.433,3.548,4.213,8.445,5.347c5.13,1.165,8.728,0.434,10.793-2.199
	c1.099-1.398,1.832-3.396,2.199-5.996c0.2-1.267,0.333-3.498,0.399-6.695l0.15-4.047c7.396,1.599,12.642,1.383,15.74-0.65
	c4.061-2.664,6.819-9.1,8.282-19.285c2.456,2.321,5.45,4.521,9.007,6.594c6.829,3.998,14.724,6.93,23.686,8.795l8.145,0.85
	c2.999-0.066,5.297-0.648,6.896-1.749c3.265-2.267,5.861-6.512,7.795-12.741c1.232-3.896,2.23-8.861,2.998-14.892l0.25-1.8
	c0.188-1.352,0.32-2.684,0.412-4.002c12.254,14.99,24.642,23.796,37.164,26.39c7.994,1.632,17.105,0.533,27.332-3.299
	c1.699,9.327,4.682,15.058,8.944,17.188c3.998,2.032,8.528,1.75,13.592-0.85c1.232-0.633,2.267-1.648,3.1-3.048
	c0.864-1.399,1.314-2.831,1.349-4.298l-0.05-0.148c0-2.666-0.851-5.414-2.549-8.246c-2.165-3.531-5.363-6.563-9.595-9.094
	c16.356-11.893,24.769-22.02,25.234-30.381c0.133-2.531-0.883-5.28-3.048-8.245c-2.009-2.656-4.858-5.299-8.527-7.927
	c8.231-3.123,14.753-5.979,19.521-8.563c6.896-3.698,12.542-7.896,16.938-12.592c9.96-10.761,15.606-27.117,16.939-49.07
	l1.249-7.795c1.133-7.729,3.964-14.824,8.494-21.287c6.463-9.294,18.771-21.903,36.927-37.826
	c16.79-14.791,26.367-31.23,28.731-49.319C476.751,34.461,476.501,27.832,475.102,21.436z"/>
</svg>
