<?xml version="1.0" encoding="utf-8"?>
<!-- Generator: Adobe Illustrator 16.0.0, SVG Export Plug-In . SVG Version: 6.00 Build 0)  -->
<!DOCTYPE svg PUBLIC "-//W3C//DTD SVG 1.1//EN" "http://www.w3.org/Graphics/SVG/1.1/DTD/svg11.dtd">
<svg version="1.1" id="图层_1" xmlns="http://www.w3.org/2000/svg" xmlns:xlink="http://www.w3.org/1999/xlink" x="0px" y="0px"
	 width="176px" height="181px" viewBox="0 0 176 181" enable-background="new 0 0 176 181" xml:space="preserve">
<path d="M175.35,141.05c-0.1-1.6-0.666-2.833-1.699-3.7c-0.667-0.533-1.533-0.866-2.601-1l-4.6,0.2l-11.4,1.4
	c-9,0.767-18.466-0.45-28.399-3.65c-9.556-3.022-19.238-7.785-29.046-14.262c9.354-1.698,16.571-5.376,21.646-11.038
	c5.7-6.3,7.533-13.867,5.5-22.7c-1.036-4.445-2.78-8.659-5.226-12.645c4.971-5.648,8.657-12.373,11.025-20.205
	c2.567,0.3,5.05-0.4,7.45-2.1c2.934-2.1,4.4-5.117,4.4-9.05c0-2.6-0.834-4.917-2.5-6.95c-1.259-1.573-2.799-2.727-4.614-3.475
	c-0.595-1.26-1.366-2.422-2.336-3.475c-2.4-2.566-5.351-3.85-8.851-3.85c-3.666,0-6.75,1.3-9.25,3.9
	c-2.5,2.533-3.75,5.583-3.75,9.15c0,3.333,1.184,6.2,3.551,8.6c2.3,2.366,5.116,3.683,8.449,3.95
	c-1.753,5.484-5.096,10.552-9.99,15.212c-2.057-2.168-4.357-4.256-6.909-6.262c-10.152-8.01-21.987-12.869-35.497-14.587
	c3.651-4.791,6.243-9.594,7.747-14.413c1.966-6.267,1.867-11.95-0.3-17.05C75.95,7.816,71.767,4.1,65.6,1.9
	C59.93-0.129,53.52-0.502,46.38,0.754c-1.115-0.228-2.251-0.423-3.43-0.554c-6.067-0.634-11.733,0.15-17,2.35
	c-8.434,3.534-14.983,9.733-19.65,18.6C2.133,29.083,0.117,37.7,0.25,47C0.417,57.133,3.333,65.983,9,73.55
	c5.568,7.381,13.198,12.748,22.854,16.136c-0.648,3.583-0.876,7.106-0.653,10.564c0.267,4.867,1.4,9.45,3.4,13.75
	c5.833,12.8,16.167,18.117,31,15.95c1.14-0.16,2.34-0.398,3.595-0.706C52.04,141.125,32.229,149.899,9.75,155.55
	c-2.633,0.667-4.517,1.4-5.65,2.2c-1.7,1.2-2.383,2.85-2.05,4.95c0.267,1.767,1.184,3.649,2.75,5.649c1.7,2.2,3.85,4.033,6.45,5.5
	c4.5,2.566,9.5,4.084,15,4.551c6.233,0.533,12.333-0.384,18.3-2.75c8.239-3.309,15.489-9.219,21.754-17.718l0.991-0.107
	c0.995,0.023,2.012-0.045,3.055-0.226l3.567-0.499c1.328-0.067,2.67-0.028,4.033,0.149c2.8,0.367,6.45,1.35,10.95,2.95
	c4.199,1.466,7.967,2.216,11.3,2.25c2.933,0.033,5.283-0.4,7.05-1.3c1.834-0.967,2.85-2.316,3.05-4.051
	c0.325-3.063-1.53-6.207-5.537-9.429c0.728-3.186,0.837-6.552,0.336-10.096c4.013,5.242,8.74,9.987,14.201,14.225
	c6.467,5.034,12.784,8.384,18.95,10.05c11.1,2.967,20.383,1.7,27.85-3.8c3.033-2.233,5.384-4.95,7.051-8.149
	C174.75,146.867,175.483,143.916,175.35,141.05z M58.2,35.45c0.167,2.4,0.167,4.667,0,6.8c-0.267,3-0.883,4.983-1.85,5.95
	c-9.97,10.292-17.014,20.381-21.151,30.27c-8.72-4.961-13.577-12.795-14.549-23.52c-0.733-8.2,1.383-15.5,6.35-21.9
	c4.799-6.184,11.264-10.23,19.361-12.182c1.378,0.446,2.725,1.071,4.039,1.882C55.267,25.783,57.867,30.017,58.2,35.45z"/>
</svg>
