<?xml version="1.0" encoding="utf-8"?>
<!-- Generator: Adobe Illustrator 16.0.0, SVG Export Plug-In . SVG Version: 6.00 Build 0)  -->
<!DOCTYPE svg PUBLIC "-//W3C//DTD SVG 1.1//EN" "http://www.w3.org/Graphics/SVG/1.1/DTD/svg11.dtd">
<svg version="1.1" id="图层_1" xmlns="http://www.w3.org/2000/svg" xmlns:xlink="http://www.w3.org/1999/xlink" x="0px" y="0px"
	 width="374px" height="473px" viewBox="0 0 374 473" enable-background="new 0 0 374 473" xml:space="preserve">
<path d="M368.696,258.343c-9.107-3.003-15.379-4.153-18.815-3.453c-0.733,0.134-2.135,1.018-4.203,2.652
	c-0.44,0.349-0.854,0.694-1.266,1.039c-0.373-0.304-0.83-0.616-1.387-0.938c-1.101-0.635-1.935-0.918-2.502-0.852
	c-0.5,0.066-2.419,1.001-5.755,2.803l-5.962,3.339c-10.261,0.782-24.26,4.083-42.021,9.921c-1.077-0.889-2.306-1.965-3.708-3.252
	c-2.949-2.678-4.898-4.658-5.866-5.952c0.304-1.014,0.733-2.126,1.312-3.354c0.935-2.068,1.735-3.42,2.402-4.054
	c0.601-0.567,5.438-1.818,14.512-3.753l14.211-3.152c2.369-1.502,4.438-6.272,6.205-14.312c1.735-7.806,2.152-13.478,1.251-17.014
	l-3.753-8.457l-3.803-8.457c-0.501-1.501-1.067-4.137-1.701-7.906c-0.668-3.836-0.968-6.271-0.901-7.306l10.158-10.358
	c6.739-6.906,10.292-11.076,10.659-12.51c0.3-1.101,0.166-3.92-0.4-8.457l-0.901-7.056c0.101-0.834,0.417-2.285,0.951-4.354
	c0.567-2.168,1.001-3.486,1.301-3.953c0.101-0.167,2.919-1.952,8.457-5.354c5.704-3.503,9.141-5.921,10.309-7.256
	c0.867-1.001,1.567-2.152,2.102-3.453l1.201-3.853c0.267-1.068,0.333-1.718,0.2-1.952c-0.101-0.267-0.484-0.167-1.151,0.3
	c-1.901,1.234-3.553,2.085-4.954,2.552c4.871-4.57,8.624-9.107,11.259-13.611c1.468-2.402,1.969-3.77,1.502-4.103
	c-0.435-0.367-1.702,0.35-3.804,2.151c-2.635,2.269-5.988,4.237-10.058,5.905c-4.271,1.735-8.74,2.902-13.411,3.503l-13.011-0.75
	l-13.761-0.601c-3.002,0.467-7.59,3.203-13.761,8.207c-6.605,5.371-10.542,10.025-11.81,13.961c-0.2,0.601-0.301,3.036-0.301,7.306
	c0.03,3.869-0.212,6.826-0.721,8.888l-5.133,3.772c-4.004,2.702-7.656,6.855-10.959,12.46c-3.27,5.504-4.504,9.491-3.703,11.959
	c0.434,1.368,4.17,4.971,11.209,10.809c6.639,5.504,9.957,9.541,9.957,12.109c0,1.735-0.617,3.436-1.852,5.104
	c-0.988,1.357-2.131,2.332-3.406,2.97c-0.845-0.464-1.839-1.033-2.998-1.719l-7.006-4.154c-2.702-1.401-4.954-2.035-6.756-1.901
	c-1.301,0.067-2.885,0.701-4.754,1.901c-1.42,0.901-2.779,1.979-4.088,3.215c-0.006-0.137-0.003-0.283-0.015-0.413
	c-0.134-1.634-1.218-4.203-3.253-7.706c-2.602-4.503-4.104-7.239-4.504-8.207c-0.6-1.435-1.668-5.104-3.202-11.009
	c-1.435-5.371-2.485-8.64-3.152-9.808c-0.7-1.201-4.036-4.47-10.009-9.808l-9.156-8.407c-1.234-2.335-2.869-6.672-4.904-13.01
	c-2.102-6.605-2.986-10.409-2.652-11.409c0.434-1.368,2.252-4.287,5.455-8.757c3.168-4.47,5.137-6.905,5.904-7.306l10.508,1.051
	l11.76,1.101c1.535-0.234,6.605-2.269,15.213-6.105c8.707-3.87,13.36-6.205,13.961-7.006l5.704-12.36
	c3.27-7.473,5.021-11.342,5.255-11.609c1.867-1.368,7.188-2.886,15.963-4.554c8.773-1.634,15.979-2.452,21.617-2.452l2.902-0.451
	c0.1-0.333-0.634-1.117-2.202-2.352c-1.401-1.068-2.771-1.869-4.113-2.447c5.447-0.129,10.774-1.07,15.973-2.857
	c7.573-2.602,13.527-6.522,17.864-11.76c1.568-1.868,2.219-2.985,1.952-3.353c-0.268-0.367-1.435-0.033-3.503,1.001
	c-3.708,1.866-7.586,3.473-11.619,4.841c7.366-4.584,13.61-11.864,18.725-21.854c4.804-9.375,7.423-18.215,7.856-26.521
	c0.167-2.502,0.083-3.82-0.25-3.953c-0.334-0.167-1.135,0.868-2.402,3.103c-7.873,14.312-19.883,23.736-36.029,28.273
	c-8.206,2.335-15.179,3.502-20.917,3.502c-6.871,0.034-13.91-1.451-21.116-4.454c-3.403-1.401-6.138-2.335-8.206-2.802
	c-3.57-0.834-6.189-0.734-7.857,0.3c-2.602,1.635-6.889,3.72-12.859,6.255c-6.473,2.736-12.711,5.054-18.715,6.956
	c-4.237,1.334-9.141,2.435-14.713,3.302l-14.561,2.052c-2.502,0.367-5.622,1.635-9.358,3.803c-3.636,2.102-6.005,3.937-7.105,5.504
	c-1.201,1.768-2.418,6.105-3.653,13.01c-1.368,7.706-2.418,12.46-3.153,14.262c-1.801,4.537-3.302,7.856-4.503,9.958
	c-1.401,2.468-3.103,4.553-5.104,6.255l-6.305,5.554c-4.27,4.07-6.655,7.206-7.156,9.408c-0.934,4.07-1.468,8.24-1.601,12.51
	c-0.134,4.871,0.367,8.374,1.501,10.509c0.233,0.434,3.52,3.569,9.858,9.407c6.472,6.305,10.208,10.809,11.209,13.511
	c0.302,0.813,0.579,1.692,0.833,2.636c-3.195-3.214-7.858-6.478-13.993-9.792c-6.805-3.67-11.326-5.288-13.561-4.854
	c-3.203,0.601-6.672,3.269-10.409,8.006c-3.87,4.871-7.439,11.242-10.708,19.115c-7.699,18.523-11.658,39.452-11.894,62.776
	c-2.591-0.362-5.446-0.422-8.572-0.176c-7.339,0.533-14.795,2.735-22.368,6.605c-1.168,0.605-2.417,1.193-3.734,1.767
	c-0.01-0.003-0.006-0.014-0.019-0.016c-6.739-0.667-12.16-4.37-16.263-11.109c-2.309-3.782-3.841-7.771-4.627-11.959
	c0.794-2.312,2.151-5.212,4.077-8.708l6.205-10.759c5.271-9.474,7.873-17.214,7.806-23.219c-0.033-2.735-3.886-7.306-11.559-13.711
	c-7.64-6.405-11.459-9.875-11.459-10.408c0-3.103,2.686-7.773,8.057-14.011c5.271-6.105,9.658-9.808,13.161-11.109
	c4.537-1.701,9.491-3.119,14.862-4.253c5.104-1.101,9.508-1.735,13.21-1.901c2.436-0.1,3.703-0.367,3.803-0.801
	c0.1-0.467-1.184-1.285-3.853-2.452c-4.315-1.921-8.578-3.191-12.788-3.816c7.843-2.001,14.865-5.37,21.044-10.145
	c6.171-4.804,10.308-10.025,12.41-15.663c0.767-2.068,0.951-3.203,0.55-3.403c-0.4-0.2-1.417,0.434-3.052,1.901
	c-3.303,2.936-7.323,5.321-12.06,7.156c-4.57,1.802-9.191,2.836-13.861,3.103l-17.114-1.901c-9.541-1.301-15.095-1.802-16.663-1.501
	c-8.874,1.602-19.266,8.791-31.175,21.567c-4.971,5.338-8.907,10.409-11.809,15.212c-3.036,5.037-4.271,8.74-3.703,11.109
	l2.202,7.105c1.034,3.37,1.551,5.921,1.551,7.656c0,2.001-1.001,4.938-3.002,8.807c-1.234,2.369-3.503,6.222-6.805,11.559
	c-5.004,8.073-8.173,13.428-9.508,16.063c-3.036,6.072-4.354,10.942-3.953,14.612c0.5,4.637,5.654,11.359,15.462,20.166
	l10.408,9.458c3.27,3.303,5.154,5.904,5.655,7.807l0.122-0.188c-0.042,1.01-0.113,2.146-0.222,3.439l-2.152,11.609
	c-0.021,0.109-0.039,0.211-0.059,0.318l-12.251-15.43c-1.568-1.969-2.535-2.819-2.902-2.553c-0.3,0.201-0.3,1.435,0,3.703
	c0.534,3.77,1.301,8.44,2.302,14.012c0.701,4.303,1.918,8.606,3.653,12.91c0.056,0.136,0.125,0.279,0.183,0.416
	c-0.41-0.297-0.86-0.613-1.384-0.967c-1.535-1.034-2.452-1.418-2.752-1.15c-0.3,0.267-0.167,1.351,0.4,3.252
	c0.601,2.002,1.351,5.639,2.252,10.909l1.251,7.506l5.658,9.188c-1.724-1.443-3.557-2.726-5.507-3.834
	c-1.401-0.801-2.285-1.034-2.652-0.701c-0.367,0.367-0.1,1.385,0.801,3.053c0.834,1.469,1.818,3.637,2.952,6.506l2.902,7.155
	l3.353,9.908l3.002,8.507c0.234,0.3,2.369,1.034,6.405,2.201l6.827,2.008c-1.739,0.036-3.572,0.084-5.525,0.145l-16.363,0.75
	c-3.336,0.234-5.038,0.635-5.104,1.201c-0.067,0.5,1.401,1.468,4.403,2.902l48.84,22.651c-10.539,5.221-18.27,9.167-23.169,11.826
	c-1.968,1.067-2.919,1.818-2.853,2.252s1.185,0.7,3.353,0.801l41.93,2.168l-9.303,11.192c-9.841,11.977-16.497,20.3-19.966,24.971
	c-1.601,2.201-2.302,3.52-2.102,3.953l4.104-0.251l35.378-10.208c15.269-4.6,25.937-7.911,32.029-9.941
	c-0.857,1.657-1.756,3.428-2.706,5.338c-3.002,6.139-5.771,12.076-8.307,17.814c-0.834,1.835-1.118,2.936-0.851,3.303
	c0.3,0.367,1.368,0,3.203-1.101c4.804-2.902,10.508-6.572,17.114-11.009c7.356-4.981,12.519-8.719,15.503-11.221l0.81,13.071
	c0.667,9.441,1.234,16.497,1.701,21.167c0.234,2.369,0.601,3.604,1.101,3.703c0.534,0.101,1.551-0.834,3.052-2.802
	c2.736-3.604,6.255-9.008,10.559-16.213c2.907-4.937,5.126-8.853,6.68-11.782l12.485,20.289l21.316,34.577
	c1.035,1.769,1.769,2.636,2.202,2.603c0.4-0.033,0.901-0.935,1.501-2.702c2.135-6.038,4.588-15.329,7.356-27.873
	c2.735-12.576,4.521-22.601,5.354-30.073l13.061,11.209l13.211,10.608c2.067,1.567,3.336,2.185,3.803,1.852
	c0.434-0.334,0.416-1.752-0.051-4.254c-2.332-12.732-6.474-26.431-12.379-41.069c3.592,1.215,9.036,3.371,16.383,6.491
	c7.706,3.303,13.91,6.122,18.615,8.457c2.468,1.234,3.853,1.685,4.152,1.352c0.234-0.301-0.184-1.651-1.25-4.054
	c-7.406-16.246-18.049-31.459-31.926-45.637c-11.305-11.555-21.091-19.079-29.363-22.581c0.078-0.031,0.161-0.056,0.239-0.087
	c9.44-3.77,17.197-9.875,23.269-18.314c6.339-8.83,9.652-20.972,9.942-36.423c1.022-0.152,2.411-0.487,4.169-1.007l1.367-0.456
	l-1.267,3.759c-0.968,3.002-1.335,4.619-1.101,4.854c0.533,0.533,3.369-0.033,8.506-1.701l0.563-0.203
	c-0.47,1.339-0.847,2.612-1.112,3.806c-0.4,1.769-0.45,2.786-0.15,3.052c0.601,0.535,3.437-0.033,8.507-1.701l6.378-2.322
	c2.863,2.096,4.896,3.426,6.082,3.975c2.136,1.033,8.007,1.668,17.614,1.9l23.869-1.051l7.006,5.805l6.104,5.205
	c2.235,0.9,5.138,1.367,8.707,1.4l8.507-0.6c3.103-0.434,4.737-0.951,4.904-1.552c0.167-0.667-1.034-1.952-3.604-3.853
	c-4.47-3.303-7.289-5.639-8.456-7.006c-1.568-1.902-3.02-3.837-4.354-5.805c-0.628-0.921-1.137-1.729-1.572-2.47
	c0.023-0.062,0.05-0.105,0.07-0.183c0.234-1.034,0.885-2.77,1.952-5.204c0.523-1.208,1.037-2.3,1.541-3.274l3.963,0.172
	c3.103,0,4.854-0.334,5.255-1.001c0.3-0.567,0.116-1.501-0.551-2.802c-0.487-0.921-1.171-1.911-2.032-2.964
	c0.898-0.424,1.916-0.869,3.083-1.34c2.068-0.868,5.288-2.052,9.658-3.554c2.936-1,4.437-1.817,4.503-2.451
	C373.45,260.311,371.898,259.41,368.696,258.343z M68.956,288.017c1.968-1.802,3.653-2.902,5.054-3.303l9.208-0.4
	c2.668,0.501,5.071,1.418,7.206,2.752c1.301,0.835,2.436,1.919,3.403,3.253c0.729,1.108,1.201,2.149,1.446,3.13
	c-0.362,1.3-0.894,2.618-1.6,3.955c-7.772-1.251-13.601-1.863-17.46-1.831c-1.834,0.066-2.835,0.234-3.002,0.5
	c-0.2,0.301,0.217,1.168,1.251,2.603l0.852,1.146l-7.007,0.656c-0.447-0.16-2.486-2.082-6.081-5.726l2.378-2.28
	C66.37,290.502,67.821,289.018,68.956,288.017z M137.903,305.455c1.457,2.535,2.966,4.923,4.531,7.151l-9.238,1.229l-5.343-3.102
	c-2.453-1.321-4.441-2.32-5.979-3.01c2.112-0.704,4.501-1.287,7.18-1.744L137.903,305.455z"/>
</svg>
