<?xml version="1.0" encoding="utf-8"?>
<!-- Generator: Adobe Illustrator 16.0.0, SVG Export Plug-In . SVG Version: 6.00 Build 0)  -->
<!DOCTYPE svg PUBLIC "-//W3C//DTD SVG 1.1//EN" "http://www.w3.org/Graphics/SVG/1.1/DTD/svg11.dtd">
<svg version="1.1" id="图层_1" xmlns="http://www.w3.org/2000/svg" xmlns:xlink="http://www.w3.org/1999/xlink" x="0px" y="0px"
	 width="187px" height="206px" viewBox="0 0 187 206" enable-background="new 0 0 187 206" xml:space="preserve">
<path d="M185.381,35.732c0.832-1.299,1.166-2.082,0.999-2.349l-2.649,0.05l-13.681,2.885c1.839-2.877,3.636-6.026,5.386-9.482
	c4.397-8.663,7.047-16.392,7.945-23.189c0.167-1.166,0.084-1.799-0.25-1.899c-0.332-0.133-1.065,0.267-2.198,1.199l-22.497,18.134
	c0.585-2.48,0.972-5.126,1.157-7.938c0.267-3.731,0.167-7.363-0.3-10.895C159.094,0.85,158.844,0.1,158.543,0
	c-0.299-0.1-0.783,0.366-1.449,1.399c-11.508,18.515-18.966,29.996-22.372,34.448c-1.06-1.771-2.64-3.231-4.765-4.363
	c-3.598-1.866-7.879-2.415-12.844-1.649c-1.133,0.233-1.732,0.5-1.799,0.799c-0.033,0.267,0.35,0.683,1.149,1.25
	c1.599,1.133,2.915,2.682,3.948,4.648c1.066,2.032,1.716,4.348,1.949,6.946c0.399,4.098-0.2,8.08-1.799,11.944
	c-1.432,3.4-3.28,5.898-5.539,7.51c-4.432-2.949-8.96-4.988-13.585-6.119c4.32-3.436,8.102-7.574,11.327-12.436
	c4.064-6.064,5.397-9.829,3.998-11.294l-4.498-0.1c-2.665,0.566-5.631,1.649-8.896,3.249c-3.657,1.759-7.054,3.852-10.219,6.242
	c1.474-3.466,2.683-7.824,3.623-13.089c1.232-6.897,0.916-10.645-0.949-11.245c-2.666-0.833-7.247,3.115-13.744,11.844
	c-4.061,5.467-7.296,10.869-9.743,16.207c-0.168-0.716-0.396-1.422-0.702-2.114c-0.566-1.333-1.149-2.016-1.75-2.049
	c-1.532-0.133-3.432,2.499-5.697,7.896c-1.853,4.47-3.197,8.927-4.038,13.371c-1.078-3.008-1.72-5.966-1.909-8.874
	c-0.333-5.397,0.55-9.762,2.648-13.093c1.299-1.999,2.882-3.432,4.748-4.298l1.499-1.049c0.067-0.367-0.4-0.783-1.399-1.25
	c-1.732-0.799-3.781-1.066-6.147-0.799c-2.399,0.267-4.564,1-6.497,2.199c-1.766,1.133-3.332,2.799-4.698,4.998
	c-0.488,0.822-0.889,1.651-1.243,2.482c-1.225-6.62-2.165-13.539-2.806-20.773l-0.85-12.644c-0.1-1.366-0.333-2.082-0.699-2.149
	c-0.367-0.066-1.017,0.417-1.949,1.449c-2.565,2.799-4.864,6.514-6.896,11.145c-1.342,3.101-2.3,6.125-2.902,9.077
	c-2.395-3.127-5.271-7.656-8.643-13.625L14.863,2.299c-0.8-1.366-1.416-2.016-1.849-1.949c-0.433,0.1-0.85,0.883-1.25,2.349
	c-1.466,5.464-1.899,11.794-1.299,18.991c0.467,5.875,1.62,11.371,3.425,16.503l-6.023-4.609l-5.297-4.148
	c-1.1-0.8-1.799-1.116-2.099-0.95c-0.267,0.167-0.316,0.867-0.15,2.099c0.966,7.13,3.631,14.276,7.996,21.439
	c4.631,7.563,10.445,13.96,17.441,19.191c-2.532,0.133-4.648,0.916-6.347,2.349c-1.733,1.466-2.616,3.265-2.649,5.397
	c-0.033,1.766,0.45,3.499,1.449,5.198c0.933,1.632,2.182,3.015,3.748,4.148c0.6,0.433,1.05,0.616,1.35,0.55
	c0.267-0.067,0.466-0.45,0.6-1.149c0.766-3.565,2.332-6.197,4.698-7.896c4.098-2.865,9.279-3.815,15.542-2.849
	c3.065,0.5,6.313,1.616,9.745,3.349c1.847,0.933,3.524,1.943,5.06,3.016c0.24,4.999,0.838,9.398,1.795,13.197
	c0,0.279-0.01,0.545-0.008,0.828c0.067,5.631,0.683,10.012,1.849,13.144c1.1,2.865,2.699,5.23,4.798,7.097
	c1.899,1.699,4.631,3.315,8.196,4.848c3.632,1.565,7.146,2.632,10.545,3.198c-3.931,1-7.58,2.982-10.945,5.947
	c-3.165,2.766-4.481,4.748-3.948,5.947c0.433,0.933,2.282,1.049,5.547,0.35c2.746-0.559,5.072-1.539,6.983-2.933
	c-1.244,2.462-2.13,5.248-2.636,8.38c-0.799,4.965-0.5,7.696,0.899,8.196c1.402,0.478,3.512-0.631,6.315-3.291
	c0.235,0.672,0.554,1.459,0.982,2.392c-3.632,5.73-6.963,12.011-9.995,18.841c-3.765,8.495-6.63,16.941-8.596,25.337
	c-2.632,1.1-4.831,2.217-6.597,3.35c-0.433,0.266-0.616,0.549-0.55,0.85c0.033,0.332,0.35,0.582,0.95,0.749l1.648,0.396
	c-0.236,0.184-0.487,0.362-0.698,0.555c-0.533,0.466-0.7,0.883-0.5,1.248c0.2,0.301,0.616,0.467,1.25,0.5l3.485,0.131
	c-0.079,0.106-0.159,0.207-0.236,0.319c-0.733,0.999-0.933,1.666-0.6,1.999c0.633,0.633,4.182-0.283,10.645-2.748
	c1.38-0.677,2.514-1.571,3.428-2.661c0.073,0.123,0.146,0.253,0.22,0.362c0.399,0.666,0.716,1.016,0.949,1.049
	c0.233,0,0.533-0.25,0.9-0.75l0.872-1.997c0.308,0.632,0.633,1.199,0.977,1.698c0.767,1.065,1.45,1.531,2.049,1.398
	c0.5-0.133,0.95-1.199,1.349-3.198c1.833,1.899,3.082,2.698,3.749,2.399c0.266-0.101,0.433-1.084,0.499-2.949l0.149-3.698
	c0.101-0.666,0.75-1.799,1.949-3.398c1.232-1.699,2.732-3.415,4.498-5.147c0.699-0.666,3.049-2.482,7.047-5.447l5.848-4.298
	c2.965-2.299,5.447-4.714,7.445-7.247c0.304-0.381,0.58-0.749,0.843-1.111c2.802,3.364,6.396,5.891,10.802,7.559
	c3.799,1.467,8.729,2.232,14.793,2.299l4.648,0.1l2.833,0.643c3.944,3.072,8.062,5.943,12.358,8.604l3.699,2.549l2.199,1.649
	c1.199,0.767,1.781,0.466,1.748-0.899l-0.308-2.076l2.907,1.576l0.999-0.15c0.233-0.232,0.316-0.633,0.25-1.199
	c-0.118-0.738-0.486-1.74-1.075-2.977l2.874,0.428l1.2-0.449c0.166-0.268,0.049-0.7-0.351-1.3l-4.198-5.197
	c-5.63-8.496-9.861-14.692-12.693-18.591l-6.746-8.646l-5.648-7.196c-2.152-3.021-4.146-6.024-5.989-9.013
	c2.553-0.46,4.95-1.578,7.189-3.381c2.599-2.1,3.515-3.781,2.749-5.048c-0.407-0.679-1.292-1.055-2.624-1.146l4.073-3.651
	l3.398-3.498c0.433-0.5,0.6-0.85,0.499-1.05c-0.1-0.233-0.6-0.399-1.499-0.499c-3.876-0.358-6.851-0.904-8.939-1.635
	c3.564-2.637,6.423-5.503,8.539-8.611c2.832-4.131,5.798-9.562,8.896-16.292l6.547-13.893c0.333-0.833,0.433-1.35,0.299-1.549
	c-0.232-0.267-0.932-0.133-2.098,0.4c-3.532,1.599-8.38,2.981-14.543,4.148c-11.762,2.199-21.689,5.897-29.786,11.094
	c-3.51,2.263-6.797,4.881-9.867,7.848c-0.096-1.172-0.22-2.403-0.378-3.7l-2.1-13.544c1.6-2.132,3.916-4.231,6.947-6.297
	c3.564-2.398,6.813-3.748,9.745-4.048c3.665-0.433,6.614,0.583,8.846,3.048c1.666,1.833,2.132,4.315,1.399,7.447
	c-0.166,0.733-0.1,1.166,0.2,1.299l1.649-0.25c3.432-1.299,5.613-4.031,6.547-8.196c0.918-4.183-0.268-7.343-3.507-9.507
	c6.799-2.796,13.034-6.221,18.699-10.284C174.985,48.709,180.949,42.596,185.381,35.732z"/>
</svg>
