<?xml version="1.0" encoding="utf-8"?>
<!-- Generator: Adobe Illustrator 16.0.0, SVG Export Plug-In . SVG Version: 6.00 Build 0)  -->
<!DOCTYPE svg PUBLIC "-//W3C//DTD SVG 1.1//EN" "http://www.w3.org/Graphics/SVG/1.1/DTD/svg11.dtd">
<svg version="1.1" id="图层_1" xmlns="http://www.w3.org/2000/svg" xmlns:xlink="http://www.w3.org/1999/xlink" x="0px" y="0px"
	 width="129px" height="120px" viewBox="0 0 129 120" enable-background="new 0 0 129 120" xml:space="preserve">
<path d="M127.748,41.232c-0.433-1.066-1.365-1.716-2.799-1.949c-1.998-0.333-3.582-0.733-4.748-1.199l-2.648-1.449
	c-1.232-0.933-2.398-2.683-3.498-5.248c-0.762-1.768-1.266-3.29-1.539-4.591c0.535-0.757,0.908-1.541,1.089-2.356
	c0.466-2.099-0.083-4.315-1.649-6.647c-1.417-2.109-3.438-4.012-6.053-5.712c1.151-0.902,1.654-1.813,1.505-2.734
	c-0.2-1.199-1.517-2.266-3.948-3.198c-2.466-0.933-5.432-1.483-8.896-1.649c-5.573-0.276-10.48,0.436-14.736,2.114
	c0.612-0.697,1.11-1.418,1.492-2.165c0.766-1.533,0.766-2.632,0-3.298c-1-0.866-2.832-1.233-5.498-1.1
	c-2.666,0.1-5.548,0.667-8.646,1.699C60.32,4.043,55.366,7.43,52.304,11.905c0.249-0.963,0.555-1.996,0.926-3.109l0.95-4.048
	c0.066-1.066-0.283-1.733-1.049-2c-2.199-0.7-5.465,1-9.796,5.098c-4.214,4.001-6.963,8.227-8.281,12.67l-0.815-4.374
	c-0.433-2.333-1.116-3.515-2.049-3.548c-0.8-0.034-1.583,0.633-2.349,1.999c-1.058,2.02-1.555,5.116-1.502,9.265
	c-1.541-0.792-3.669-1.118-6.394-0.968c-3.099,0.167-4.715,0.917-4.848,2.249c-0.067,0.933,1.116,1.883,3.548,2.849
	c2.059,0.818,3.469,1.507,4.235,2.067c-5.233,0.634-10.294,3.215-15.181,7.778c-4.865,4.565-6.48,7.93-4.848,10.096
	c0.733,0.933,2.016,1.399,3.849,1.399c0.806,0,1.611-0.088,2.417-0.254c-4.512,4.081-7.755,9.209-9.714,15.397
	c-1.066,3.365-1.5,6.331-1.3,8.896c0.2,2.499,0.933,3.915,2.199,4.248c0.914,0.234,1.876,0.139,2.886-0.278
	c-1.202,3.107-1.77,7.09-1.686,11.974c0.066,6.098,1.232,9.33,3.499,9.695c1.433,0.268,3.099-0.716,4.998-2.948
	c0.399-0.473,0.779-0.98,1.15-1.502c-0.075,2.771,0.583,5.29,1.999,7.55c1.666,2.666,4.115,4.548,7.347,5.647
	c2.719,0.942,5.56,1.221,8.516,0.882c3.994,3.829,9.539,6.61,16.674,8.314c6.697,1.633,11.062,1.782,13.094,0.449
	c1.1-0.732,1.399-1.849,0.9-3.348c-0.251-0.796-0.613-1.451-1.061-1.997c1.276-0.26,2.552-0.576,3.826-0.942
	c2.243,0.265,4.826,0.286,7.78,0.04c3.965-0.3,6.147-0.999,6.548-2.099c0.199-0.533,0.066-1.233-0.4-2.1
	c-0.301-0.578-0.637-1.046-1.002-1.415c0.768-0.442,1.534-0.901,2.301-1.384c1.531-0.967,3.007-2.017,4.456-3.104
	c0.067,0.05,0.124,0.106,0.192,0.155c2.898,2.1,5.965,3.133,9.196,3.1c2.032-0.033,3.282-0.633,3.749-1.8
	c0.25-0.615,0.259-1.311,0.042-2.082c0.38,0.265,0.788,0.515,1.257,0.733c1.467,0.666,2.732,0.832,3.799,0.499
	c0.832-0.267,1.332-0.999,1.499-2.198l-0.05-3.699c1.388-7.359,2.051-13.709,1.999-19.067c1.792-1.955,3.939-3.991,6.443-6.108
	c3.764-2.548,6.957-5.789,9.55-9.76c2.766-4.198,4.715-8.93,5.848-14.194C128.182,44.198,128.215,42.399,127.748,41.232z"/>
</svg>
