<?xml version="1.0" encoding="utf-8"?>
<!-- Generator: Adobe Illustrator 16.0.0, SVG Export Plug-In . SVG Version: 6.00 Build 0)  -->
<!DOCTYPE svg PUBLIC "-//W3C//DTD SVG 1.1//EN" "http://www.w3.org/Graphics/SVG/1.1/DTD/svg11.dtd">
<svg version="1.1" id="图层_1" xmlns="http://www.w3.org/2000/svg" xmlns:xlink="http://www.w3.org/1999/xlink" x="0px" y="0px"
	 width="173px" height="238px" viewBox="0 0 173 238" enable-background="new 0 0 173 238" xml:space="preserve">
<path d="M170.402,20.37c0.865-1.597,0.981-2.679,0.35-3.244c-0.633-0.632-1.714-0.283-3.244,1.048
	c-16.805,14.342-44.439,36.886-82.907,67.633c-4.725-4.991-16.638-19.549-35.738-43.674L17.667,2.352
	c-1.264-1.631-2.329-2.229-3.194-1.797c-0.602,0.313-0.797,1.05-0.598,2.198L13.874,2.75c0.002,0.015,0.005,0.031,0.007,0.045
	c0.006,0.034,0.009,0.065,0.016,0.1c1.937,12.236,5.672,29.289,11.207,51.166c5.486,21.75,10.273,38.428,14.368,50.065
	c-1.096,1.126-2.142,2.294-3.087,3.542c-4.825,6.389-7.154,13.643-6.988,21.763c0.166,7.719,3.976,14.824,11.43,21.313
	c6.287,5.466,13.803,9.313,22.525,11.572c-3.797,2.547-8.486,5.541-14.09,8.992c-1.342,0.824-2.423,1.723-3.267,2.689
	c-5.308-6.334-12.614-12.555-21.939-18.662c-8.984-5.89-15.54-8.984-19.666-9.283c-3.793-0.233-5.125,1.348-3.993,4.741
	c0.832,2.519,2.173,5.137,4,7.849c-1.112-0.104-1.949,0.188-2.503,0.887c-0.865,1.064-0.865,2.944,0,5.64
	c1.331,4.093,3.793,8.152,7.387,12.179c0.454,0.51,0.911,0.991,1.369,1.46c-0.806,0.282-1.366,0.938-1.668,1.984
	c-0.466,1.696,0.034,3.761,1.498,6.189c2.396,4.026,6.389,7.603,11.979,10.731c5.237,2.909,9.875,4.292,13.927,4.185
	c-1.149,2.818-1.58,5.715-1.25,8.692c0.399,3.594,1.93,6.855,4.592,9.783c0.895,0.977,1.863,1.843,2.896,2.612
	c-0.982,0.747-1.964,1.621-2.947,2.629c-1.331,1.331-2.313,2.562-2.945,3.693c-0.666,1.165-0.798,2.03-0.399,2.596
	c0.432,0.532,1.231,0.532,2.396,0c1.435-0.662,2.796-1.154,4.093-1.496c-0.379,1.38-0.609,2.761-0.648,4.142
	c-0.034,1.064,0.283,1.747,0.948,2.047c0.666,0.266,1.531,0.049,2.595-0.649c1.598-1.099,3.278-2.546,5.042-4.343
	c1.529-1.558,2.789-3.076,3.812-4.561c1.955,0.001,3.879-0.32,5.771-0.979c2.882-0.992,5.43-2.686,7.658-5.053l10.846-0.813
	c2.518,3.042,6.521,4.674,12.044,4.866c0.011,0,0.021,0,0.032,0l4.709,3.245c2.163,1.63,3.81,3.011,4.941,4.143
	c0.832,0.832,1.581,1.132,2.246,0.898c0.632-0.233,0.832-0.932,0.599-2.097c-0.188-0.8-0.45-1.569-0.75-2.322
	c1.195,0.561,2.264,1.151,3.196,1.773c1.065,0.732,1.863,0.849,2.396,0.35c0.533-0.466,0.449-1.314-0.25-2.545
	c-1.263-2.316-3.034-4.509-5.304-6.581c0.205-0.168,0.42-0.325,0.612-0.507c3.594-3.361,5.457-7.388,5.59-12.08
	c0.082-3.437-0.734-6.374-2.42-8.827c1.467-0.639,2.923-1.594,4.367-2.901c1.697-1.531,3.111-3.278,4.242-5.241
	c1.198-2.063,1.481-3.761,0.85-5.091c-0.417-0.809-1.054-1.287-1.902-1.446c0.526-0.523,1.047-1.066,1.553-1.649
	c1.83-2.129,3.66-4.842,5.49-8.135c1.064-1.931,1.331-3.594,0.799-4.992c-0.424-1.085-1.168-1.709-2.223-1.89
	c2.756-3.358,4.729-6.455,5.916-9.291c0.898-2.229,0.865-3.86-0.1-4.892c-0.932-1.031-2.513-1.215-4.742-0.549
	c-3.826,1.098-8.318,3.444-13.477,7.038c-5.179,3.624-9.245,7.297-12.221,11.017c-0.025-0.012-0.049-0.023-0.074-0.035
	c-1.469-1.577-3.146-4.147-5.028-7.701c0.005-0.057,0.015-0.117,0.019-0.173c9.283-1.38,17.038-4.688,23.244-9.946
	c6.256-5.357,9.816-11.713,10.682-19.066c0.766-6.355-0.1-12.744-2.596-19.167c-1.274-3.301-2.817-6.143-4.622-8.537
	c10.387-18.471,19.094-33.666,26.118-45.576C155.71,44.586,164.916,30.612,170.402,20.37z"/>
</svg>
