<?xml version="1.0" encoding="utf-8"?>
<!-- Generator: Adobe Illustrator 16.0.0, SVG Export Plug-In . SVG Version: 6.00 Build 0)  -->
<!DOCTYPE svg PUBLIC "-//W3C//DTD SVG 1.1//EN" "http://www.w3.org/Graphics/SVG/1.1/DTD/svg11.dtd">
<svg version="1.1" id="图层_1" xmlns="http://www.w3.org/2000/svg" xmlns:xlink="http://www.w3.org/1999/xlink" x="0px" y="0px"
	 width="195px" height="203px" viewBox="0 0 195 203" enable-background="new 0 0 195 203" xml:space="preserve">
<path d="M192.634,84.825l-0.349-0.649l-0.799,0.05c-3.129,1.165-7.439,3.628-12.932,7.389c-4.575,3.129-8.139,5.864-10.698,8.208
	c0.308-5.068,0.015-11.594-0.884-19.591c-1.266-11.417-3.18-19.837-5.742-25.263c-0.232-0.532-0.648-0.565-1.248-0.1
	c-4.727,3.828-10.068,11-16.026,21.518c-4.312,7.654-7.19,13.806-8.646,18.468c-2.522-9.406-5.396-17.19-8.628-23.311
	c-0.333-0.666-0.766-0.716-1.299-0.15c-5.524,5.958-9.652,13.313-12.381,22.067c-2.696,8.62-3.395,16.476-2.098,23.565
	c0.966,5.292,3.129,9.669,6.49,13.131c2.807,2.862,5.855,4.481,9.144,4.883c-5.174,3.497-11.274,5.958-18.329,7.349l-3.395-0.3
	c-4.477-0.461-8.506-1.949-12.096-4.45c1.188,0.295,2.25,0.456,3.158,0.456c0.899,0,1.015-0.383,0.35-1.148
	c-1.235-1.354-2.283-2.969-3.164-4.815c1.704,0.201,3.408,0.079,5.111-0.376c0.666-0.134,1.031-0.35,1.098-0.649
	c0.033-0.3-0.266-0.55-0.898-0.749c-4.393-1.331-8.887-4.127-13.48-8.388c-2.469-2.286-4.549-4.636-6.242-7.046
	c-0.161-0.721-0.315-1.447-0.448-2.19c-1.22-6.646-1.173-13.466,0.116-20.454c2.638-1.096,5.54-1.725,8.721-1.863
	c4.194-0.233,7.772,0.399,10.734,1.897c1.864,0.965,3.295,2.247,4.294,3.845c1.098,1.864,1.464,3.944,1.098,6.24
	c-0.166,1.032,0.199,1.332,1.099,0.898c3.694-1.797,5.925-4.942,6.69-9.436c0.799-4.493-0.167-8.438-2.896-11.833
	c-2.029-2.53-5.075-4.127-9.137-4.793c-2.82-0.502-5.728-0.489-8.719,0.022c6.134-3.43,11.261-8.023,15.36-13.801
	c4.893-6.89,7.439-14.329,7.639-22.317c0.2-9.22-2.746-17.058-8.837-23.515C98.24,11.134,90.369,7.572,80.75,6.94l-9.985,0.35
	c-3.495,0.399-8.238,1.215-14.229,2.446c-8.92,1.797-18.489,1.814-28.708,0.05C17.743,7.988,8.956,4.793,1.467,0.2L0.668,0.1
	c-0.233,0.1-0.35,0.349-0.35,0.749c-0.2,14.712,3.961,28.208,12.481,40.49c8.288,11.916,19.754,21.418,34.399,28.508
	c4.626,2.23,7.272,5.109,7.938,8.638c0.025,0.128,0.034,0.258,0.054,0.387c-3.883,1.25-6.705,3.808-8.442,7.701
	c-1.657,3.751-1.603,7.234,0.117,10.457c-0.994,1.733-1.93,3.463-2.824,5.19c-4.608,5.712-9,10.108-13.169,13.159
	c-4.826,3.563-9.686,5.592-14.579,6.092c-0.599,0.033-0.915,0.199-0.948,0.499c-0.033,0.267,0.167,0.55,0.599,0.849
	c1.032,0.732,2.23,1.248,3.595,1.548l1.747,0.06c-1.223,1.661-2.631,2.952-4.244,3.835c-0.533,0.3-0.766,0.599-0.699,0.898
	c0.066,0.3,0.383,0.466,0.948,0.499l5.292-0.449c0.984-0.266,1.896-0.611,2.749-1.023c-0.401,1.322-0.962,2.485-1.701,3.471
	c-0.333,0.432-0.433,0.765-0.299,0.998c0.133,0.266,0.499,0.332,1.098,0.199c1.664-0.365,3.611-1.348,5.841-2.945
	c1.747-1.237,3.321-2.629,4.732-4.168c-1.075,4.552-1.65,8.844-1.687,12.855c-0.1,12.548,4.294,22.865,13.181,30.954
	c3.607,3.284,7.632,5.881,12.062,7.815c0.521,3.557-0.152,6.843-2.026,9.858c-1.997,3.229-4.859,5.409-8.587,6.54
	c-0.566,0.166-0.882,0.366-0.949,0.6c-0.1,0.266,0.167,0.532,0.799,0.799c4.993,1.996,9.703,1.797,14.129-0.6
	c4.887-2.617,7.381-7.27,7.489-13.948c2.675,0.479,5.461,0.772,8.366,0.873c2.747,1.913,3.916,5.029,3.467,9.381
	c-0.532,5.026-2.679,8.388-6.44,10.085c-0.399,0.166-0.616,0.383-0.649,0.648c-0.033,0.301,0.25,0.5,0.849,0.6
	c3.062,0.6,5.975,0.333,8.737-0.799c2.663-1.031,4.81-2.68,6.44-4.942c3.574-4.902,3.76-10.151,0.571-15.745
	c10.999-1.714,21.18-6.143,30.532-13.313c11.596-8.891,18.774-19.654,21.544-32.289c2.183,3.516,5.594,5.816,10.259,6.877
	c4.627,1.064,8.921,0.683,12.882-1.148c9.785-4.526,17.157-12.98,22.117-25.362C192.352,104.828,193.865,94.61,192.634,84.825z"/>
</svg>
