<?xml version="1.0" encoding="utf-8"?>
<!-- Generator: Adobe Illustrator 16.0.0, SVG Export Plug-In . SVG Version: 6.00 Build 0)  -->
<!DOCTYPE svg PUBLIC "-//W3C//DTD SVG 1.1//EN" "http://www.w3.org/Graphics/SVG/1.1/DTD/svg11.dtd">
<svg version="1.1" id="图层_1" xmlns="http://www.w3.org/2000/svg" xmlns:xlink="http://www.w3.org/1999/xlink" x="0px" y="0px"
	 width="291px" height="344px" viewBox="0 0 291 344" enable-background="new 0 0 291 344" xml:space="preserve">
<path d="M289.149,214.063c-1.032-3.098-2.78-6.411-5.245-9.941c-3.098-4.496-7.044-8.826-11.84-12.988
	c3.131-0.434,7.077-0.4,11.84,0.1l2.947-0.05c0.434-0.3-0.084-1.05-1.549-2.248c-2.498-2.099-6.244-3.897-11.24-5.396
	c-6.572-1.968-13.543-2.636-20.901-2.031c-0.66-2.759-1.376-5.513-2.179-8.26l-2.473-7.513c0.91-5.039,1.374-10.127,1.374-15.268
	c0-8.692-1.016-15.736-3.048-21.131c-1.172-3.075-3.194-6.538-6.065-10.385c0.032-4.144,0.469-7.962,1.319-11.446
	c1.633-6.594,4.896-13.705,9.792-21.332c5.595-8.726,9.292-15.936,11.091-21.631c1.765-5.495,3.447-15.087,5.045-28.775
	c1.033-8.726,2.731-15.986,5.096-21.781c1.699-4.129,3.881-7.76,6.545-10.891c2.364-2.764,1.947-3.68-1.25-2.748
	c-4.529,1.266-9.324,4.013-14.387,8.243c-6.929,5.769-11.543,12.602-13.856,20.491c-0.274-0.254-0.545-0.51-0.831-0.759
	c-4.829-4.196-10.773-7.327-17.834-9.392c-7.294-2.098-14.938-2.798-22.93-2.098c-8.493,0.732-15.787,3.031-21.881,6.894
	c-3.399,2.134-6.094,4.556-8.134,7.247c-4.763,3.597-11.444,5.26-20.093,4.942c-4.229-0.167-10.291-1.066-18.184-2.698
	c-2.665-0.566-4.263-0.566-4.796,0c-0.533,0.566-0.433,2.214,0.3,4.946c2.831,10.657,9.841,20.782,21.031,30.373
	c9.192,7.86,20.232,14.638,33.121,20.333c0.422,0.185,0.812,0.373,1.219,0.56c-2.143,0.055-4.086,0.458-5.814,1.239l-3.547,2.548
	c-0.699,0.833-0.482,1.199,0.649,1.099l5.595,0.399c2.345,0.348,4.021,0.707,5.031,1.08c2.712,1.819,5.348,4.137,7.908,6.963
	c3.555,3.897,6.547,8.283,8.992,13.143c0.032,0.434,0.076,0.85,0.1,1.295v4.525c-7.118-7.695-14.918-14.725-23.43-21.061
	c-8.658-6.494-16.535-11.107-23.629-13.838c-7.428-2.831-14.338-3.747-20.732-2.748c-4.663,0.766-8.642,2.448-11.939,5.046
	l-3.747,3.896c-0.833,1.332-0.533,1.715,0.899,1.149c2.964-1.132,6.478-1.849,10.541-2.148c4.316-0.302,7.969,0.018,10.972,0.947
	c2.968,2.067,5.988,4.913,9.062,8.544c1.731,2.031,6.727,9.009,14.986,20.932c8.126,11.79,14.87,20.266,20.232,25.428
	c3.196,3.1,7.39,6.474,12.567,10.12c-2.338,11.106-5.373,21.094-9.12,29.946c-3.825,9.148-8.296,16.738-13.391,22.817
	c1.961-6.982,1.814-13.823-0.447-20.52c-1.666-4.896-4.113-9.075-7.344-12.539c-0.899-0.933-1.549-1.382-1.949-1.349
	c-0.466,0-0.949,0.549-1.448,1.648c-0.866,1.898-1.415,4.862-1.648,8.893c-0.074,1.168-0.106,2.32-0.114,3.463
	c-4.989-6.547-10.724-11.874-17.221-15.953c-4.862-3.03-9.492-5.045-13.888-6.044l-2.897-0.2c-0.533,0.3-0.783,1.282-0.75,2.947
	c0,4.996,0.783,10.324,2.348,15.986c2.298,8.359,5.912,15.203,10.841,20.532l-9.542-0.749c-1.632,0.166-2.564,0.566-2.798,1.198
	c-0.167,0.533,0.1,1.466,0.799,2.798c2.531,4.662,6.411,8.26,11.64,10.791c5.802,2.822,12.964,4.167,21.454,4.071
	c-3.399,2.841-7.184,5.516-11.362,8.018c-9.775,5.878-20.068,9.366-30.877,10.474c0.927-0.701,1.83-1.518,2.701-2.48
	c3.098-3.464,4.863-7.727,5.295-12.789c0.333-3.863-0.167-7.843-1.499-11.939c-1.066-3.297-2.348-5.861-3.847-7.693
	c-0.866-1.065-1.465-1.615-1.798-1.648c-0.433,0-1.049,0.649-1.849,1.948c-0.966,1.499-1.815,3.597-2.548,6.294
	c-0.342,1.311-0.599,2.61-0.8,3.903c-2.178-7.638-5.713-14.506-10.64-20.588c-3.397-4.229-6.96-7.594-10.69-10.091
	c-0.733-0.5-1.266-0.717-1.599-0.65c-0.466,0.066-0.849,0.633-1.149,1.699c-1.199,4.362-1.915,9.142-2.148,14.337
	c-0.312,6.585,0.353,12.255,1.976,17.025c-0.583-0.528-1.223-1.073-1.925-1.639c-2.231-1.765-3.88-2.897-4.946-3.397
	c-0.899-0.433-1.532-0.615-1.898-0.549c-0.732,0.133-1.132,0.932-1.199,2.397c-0.1,2.231,0.233,4.68,0.999,7.344
	c1.065,3.797,2.931,7.377,5.595,10.741c2.026,2.61,4.379,4.714,7.044,6.329c-8.69-2.329-16.686-6.2-23.98-11.625
	c-2.021-1.502-4.164-3.356-6.422-5.539c4.972,0.46,8.946-1.138,11.917-4.802c3.231-3.996,4.43-9.191,3.597-15.586
	c-0.566-4.297-2.481-9.992-5.745-17.086c-2.731-5.895-5.179-10.374-7.344-13.438c-0.799-1.166-1.432-1.732-1.898-1.699
	c-0.5,0-1.149,0.666-1.948,1.998c-1.266,2.065-2.432,4.43-3.497,7.094c-0.622,1.528-1.162,3.04-1.622,4.534
	c-1.167-4.061-2.597-7.849-4.323-11.327c-2.398-4.83-5.679-9.825-9.841-14.988c-8.293-10.324-14.621-20.116-18.984-29.374
	c-0.932-2.032-1.765-2.948-2.498-2.748c-0.6,0.2-1.349,1.349-2.248,3.447c-3.297,7.827-5.512,16.286-6.644,25.378
	c-1.493,12.206-0.424,22.969,3.203,32.293c-2.478-2.518-5.475-4.891-8.998-7.115c-4.729-2.997-8.942-4.946-12.639-5.845
	c-1.499-0.367-2.464-0.367-2.897,0c-0.433,0.365-0.533,1.182-0.3,2.447c0.999,5.229,3.214,11.573,6.644,19.033
	c4.43,9.658,9.275,16.836,14.538,21.531c8.193,7.361,16.186,11.307,23.979,11.84c5.936,0.391,11.073-1.223,15.421-4.82
	c4.13,8.892,9.406,17.081,15.852,24.553c9.691,11.258,21.115,19.75,34.27,25.479c9.358,4.063,18.384,7.11,27.076,9.142
	c6.824,1.574,13.836,2.584,21.032,3.042c-3.97,4.723-6.962,9.684-8.942,14.893c-2.398,6.262-3.297,12.723-2.697,19.383
	c0.5,5.929,1.599,8.976,3.297,9.143c0.766,0.066,1.416-1.082,1.948-3.447c0.108-0.455,0.199-0.917,0.284-1.383
	c1.473,3.689,3.509,6.865,6.11,9.525c2.531,2.564,5.179,4.313,7.942,5.246c2.065,0.666,3.248,0.815,3.547,0.449
	c0.201-0.3,0-1.282-0.599-2.947c-6.064-17.004-4.188-33.856,5.625-50.557h0.669c3.3-0.078,6.626-0.344,9.971-0.757
	c-0.38,1.006-0.695,1.962-0.928,2.855c-0.833,3.03-1.383,6.562-1.648,10.591c-0.334,5.329,0.232,9.459,1.697,12.389
	c0.6,1.232,1.15,1.865,1.649,1.898s1.016-0.516,1.548-1.648c0.393-0.828,0.706-1.806,0.956-2.904
	c1.752,4.322,4.322,7.996,7.737,10.998c3.197,2.73,6.061,4.263,8.592,4.596c0.767,0,1.266-0.166,1.499-0.5
	c0.2-0.266,0.233-0.582,0.101-0.949l-0.8-1.698c-2.265-4.362-3.896-8.775-4.896-13.238c-1.665-7.555-1.913-15.978-0.78-25.245
	c3.271-0.861,6.56-1.86,9.872-3.03c21.215-7.493,35.119-19.666,41.713-36.519c5.439-13.952,6.555-31.014,3.37-51.165
	c3.499,4.276,7.587,10.288,12.267,18.044c1.332,2.165,2.314,3.331,2.947,3.498c0.767,0.166,1.05-1.166,0.85-3.997
	c-0.243-3.486-1.146-7.008-2.684-10.561c2.487,2.097,5.275,4.579,8.379,7.463l8.941,8.343c1.898,1.699,3.082,2.348,3.547,1.948
	C290.498,218.908,290.215,217.16,289.149,214.063z"/>
</svg>
