<?xml version="1.0" encoding="utf-8"?>
<!-- Generator: Adobe Illustrator 16.0.0, SVG Export Plug-In . SVG Version: 6.00 Build 0)  -->
<!DOCTYPE svg PUBLIC "-//W3C//DTD SVG 1.1//EN" "http://www.w3.org/Graphics/SVG/1.1/DTD/svg11.dtd">
<svg version="1.1" id="图层_1" xmlns="http://www.w3.org/2000/svg" xmlns:xlink="http://www.w3.org/1999/xlink" x="0px" y="0px"
	 width="409px" height="339px" viewBox="0 0 409 339" enable-background="new 0 0 409 339" xml:space="preserve">
<path d="M397.111,250.995c-3.829-9.724-11.355-18.198-22.578-25.425c-8.725-5.629-17.583-9.424-26.573-11.389
	c-9.291-2.099-18.266-3.33-26.924-3.697c-16.441-0.718-33.747,1.08-51.912,5.379c-0.402-0.502-0.8-1.024-1.187-1.582
	c-1.898-2.664-5.045-8.043-9.44-16.135c-2.489-4.598-4.504-8.095-6.065-10.533c-1.777-21.132,3.161-41.666,14.857-61.596
	c12.32-20.979,30.436-38.445,54.347-52.398c13.187-7.692,24.759-12.055,34.716-13.087c2.756-0.279,5.463-0.291,8.122-0.042
	c2.033,0.496,3.903,1.16,5.564,2.04c2.431,1.299,4.329,2.897,5.694,4.795c1.765,2.531,2.198,5.162,1.299,7.892
	c-0.966,2.797-2.947,4.446-5.944,4.945c-1.932,0.333-3.713,0.05-5.345-0.849c-1.731-0.933-2.864-2.348-3.396-4.246
	c-0.333-1.199-0.649-1.749-0.949-1.648c-0.3,0.066-0.533,0.632-0.699,1.698c-1.166,7.226,1.215,11.888,7.143,13.986
	c2.465,0.866,5.096,1.032,7.893,0.5c2.83-0.566,5.278-1.765,7.343-3.597c2.997-2.631,4.778-5.927,5.345-9.89
	c0.6-4.396-0.482-8.608-3.247-12.638c-4.129-5.928-11.039-9.774-20.729-11.539c-11.589-2.131-25.392-0.75-41.409,4.146
	c-15.252,4.628-27.507,8.974-36.765,13.037c-7.907,3.49-16.99,8.301-27.218,14.398c4.799-11.224,12.418-21.038,22.872-29.434
	c12.355-9.957,21.912-20.014,28.672-30.171c4.763-7.16,7.676-13.537,8.742-19.131c0.499-2.631,0.516-4.129,0.05-4.496
	c-0.399-0.299-1.749-0.033-4.046,0.799c-7.027,2.531-14.47,4.296-22.328,5.295l-26.625,1.449c-13.253,0.133-21.245,0.3-23.977,0.5
	c-8.924,0.632-16.167,2.264-21.729,4.895c-2.153,1.01-4.174,2.144-6.063,3.399c-5.729-6.115-13.915-10.113-24.557-11.991
	c-11.256-1.964-19.298-0.566-24.126,4.196c-0.732,0.732-0.982,1.249-0.749,1.548c0.2,0.3,0.782,0.233,1.748-0.2
	c3.53-1.632,7.559-1.515,12.088,0.35c7.199,3.01,13.775,10.26,19.731,21.742c-2.701-2.037-6.261-4.155-10.69-6.357
	c-11.789-5.828-26.208-10.09-43.258-12.787c-18.282-2.897-32.252-2.515-41.909,1.148c-3.064,1.199-5.512,2.647-7.343,4.346
	c-0.999,0.966-1.648,1.798-1.948,2.498c-0.366,0.699-0.366,1.182,0,1.448c0.366,0.233,0.816,0.067,1.349-0.5
	c0.999-0.966,2.498-1.698,4.496-2.198l9.94-0.399c15.785,1.398,36.082,11.572,60.891,30.52c4.08,3.113,8.038,6.291,11.887,9.526
	c-2.971-1.643-5.967-3.057-8.99-4.231c-8.292-3.197-16.051-4.446-23.277-3.747c-6.228,0.6-11.089,2.598-14.586,5.994
	c-3.596,3.463-5.062,7.809-4.396,13.037c0.666,5.262,3.729,8.575,9.191,9.94c5.162,1.299,9.174,0.466,12.038-2.498
	c0.933-0.932,1.416-1.565,1.449-1.898c0.033-0.366-0.366-0.516-1.199-0.45l-5.345-0.599c-3.43-0.999-5.278-2.964-5.545-5.895
	c-0.266-2.664,0.799-5.211,3.197-7.643c1.679-1.703,3.478-2.789,5.393-3.282c2.154,0.204,4.127,0.638,5.896,1.334
	c6.028,2.398,12.654,8.076,19.881,17.034c8.691,10.756,14.969,21.462,18.832,32.119c3.863,10.589,5.744,22.312,5.645,35.166
	c-0.044,4.998-0.165,9.811-0.353,14.462c-1.188,4.961-2.932,11.604-5.242,19.954l-5.332,18.742c-0.738,1.363-1.771,3.712-3.11,7.082
	c-1.565,3.896-2.897,7.477-3.996,10.74c-1.132,3.396-2.647,5.145-4.545,5.244c-1.798,0.1-3.63-1.215-5.495-3.945l-0.699-0.699
	c-0.267-0.067-0.533,0.166-0.799,0.699c-2.531,5.527-2.148,9.99,1.149,13.387c2.677,2.73,5.859,3.431,9.545,2.1
	c-0.441,3.704-0.724,7.37-0.807,10.989c-12.324,5.897-25.635,10.091-39.958,12.536c-18.482,3.196-33.384,2.214-44.707-2.947
	c-11.089-5.063-18.099-14.02-21.029-26.874c-1.439-6.207-1.816-13.804-1.149-22.764c1.772,2.649,3.998,4.881,6.694,6.679
	c2.398,1.633,4.712,2.698,6.943,3.197c1.365,0.367,2.281,0.367,2.747,0c0.433-0.366,0.649-1.314,0.649-2.847l-0.1-4.546
	c-0.133-2.564-0.516-5.444-1.149-8.642c5.661,0.433,11.389,0.017,17.183-1.249c4.695-1.031,8.175-2.264,10.44-3.695l1.298-1.25
	l-0.899-1.848c-1.532-2.397-4.08-4.945-7.643-7.643c-4.229-3.197-8.242-5.195-12.038-5.994c2.764-1.465,5.645-4.313,8.642-8.542
	c0.599-0.866,0.849-1.465,0.749-1.798c-0.1-0.533-0.849-0.849-2.248-0.949c-1.033-0.1-2.481-0.083-4.346,0.05
	c-5.562,0.333-10.407,1.182-14.536,2.547c-0.095,0.032-0.181,0.07-0.275,0.103c4.111-6.646,8.397-11.885,12.863-15.688
	c7.06-6.027,15.251-9.324,24.576-9.89c9.158-0.566,16.317,1.798,21.479,7.093c2.036,2.061,3.537,4.253,4.516,6.574
	c-0.637-0.454-1.324-0.804-2.068-1.029c-2.997-0.866-5.528-0.566-7.592,0.899c-1.432,0.999-2.448,2.381-3.047,4.146
	c-0.599,1.865-0.616,3.796-0.05,5.794c0.533,1.898,1.515,3.546,2.947,4.945c1.432,1.398,3.13,2.414,5.095,3.047l5.794,0.449
	c2.098-0.266,3.879-0.898,5.345-1.898c1.465-0.965,2.731-2.38,3.796-4.245c1.332-2.364,2.131-5.112,2.397-8.242
	c0.433-5.162-0.699-10.19-3.396-15.085c-2.697-4.862-6.594-9.008-11.688-12.438c-3.497-2.331-7.659-3.996-12.488-4.995
	c-4.829-1.032-9.874-1.282-15.135-0.75c-8.635,0.821-16.034,2.766-22.226,5.808c2.109-4.481,3.342-9.396,3.694-14.749
	c0.167-2.997,0.05-5.794-0.35-8.392c-0.366-2.198-0.766-3.479-1.199-3.846c-0.233-0.233-0.533-0.299-0.899-0.2
	c-1.232,0.366-2.88,1.732-4.945,4.096c-2.498,2.864-4.196,5.861-5.095,8.991c-2.065-4.695-5.545-9.108-10.44-13.237
	c-3.03-2.531-5.628-4.329-7.792-5.395c-1.432-0.699-2.314-0.949-2.647-0.75c-0.3,0.2-0.583,1.083-0.849,2.647
	c-0.866,5.361-1.082,10.656-0.649,15.885c0.5,5.927,1.798,10.573,3.896,13.936l-8.242,0.25c-2.231,0.399-4.146,0.966-5.744,1.698
	c-1.399,0.633-2.165,1.249-2.298,1.848c-0.133,0.533,0.266,1.532,1.199,2.997c1.166,1.865,2.847,3.58,5.045,5.145
	c3.364,2.364,7.359,3.83,11.988,4.396c1,0.126,2.058,0.142,3.145,0.1c-5.495,5.037-10.791,11.554-15.882,19.581
	c-6.888,10.893-11.642,22.204-14.307,33.929c-5.174-2.93-10.229-4.773-15.164-5.507l-1.449,0.05c-0.266,0.2-0.35,0.717-0.25,1.549
	c0.233,2.098,0.766,4.213,1.598,6.344c1.465,3.83,3.68,7.193,6.644,10.09c-5.594-1.032-12.238-0.965-19.931,0.2
	c-5.627,0.833-10.09,1.882-13.387,3.147c-1.632,0.599-2.531,1.198-2.697,1.797c-0.167,0.6,0.333,1.383,1.499,2.349
	c3.063,2.63,7.493,5.312,13.287,8.042c7.259,3.43,14.169,5.545,20.729,6.344c-2.964,2.064-5.661,4.912-8.092,8.541
	c-1.898,2.798-3.347,5.545-4.346,8.242c-0.599,1.632-0.815,2.648-0.649,3.047c0.299,0.699,1.515,0.967,3.646,0.8
	c3.497-0.267,7.143-1.016,10.939-2.248c2.848-0.912,5.415-2.013,7.722-3.289c1.403,8.755,5.503,17.709,12.309,26.866
	c9.891,13.32,22.961,22.111,39.212,26.374c18.482,4.862,39.145,5.778,61.989,2.747c14.218-1.894,26.889-4.817,38.044-8.753
	c1.941,2.589,4.054,5.094,6.363,7.505c10.589,11.056,24.675,19.847,42.259,26.374c14.318,5.294,31.369,8.009,51.149,8.142
	c15.718,0.1,29.787-1.266,42.209-4.096c23.576-5.428,41.026-15.502,52.349-30.221C402.756,288.325,404.904,270.643,397.111,250.995z
	"/>
</svg>
