<?xml version="1.0" encoding="utf-8"?>
<!-- Generator: Adobe Illustrator 16.0.0, SVG Export Plug-In . SVG Version: 6.00 Build 0)  -->
<!DOCTYPE svg PUBLIC "-//W3C//DTD SVG 1.1//EN" "http://www.w3.org/Graphics/SVG/1.1/DTD/svg11.dtd">
<svg version="1.1" id="图层_1" xmlns="http://www.w3.org/2000/svg" xmlns:xlink="http://www.w3.org/1999/xlink" x="0px" y="0px"
	 width="147px" height="187px" viewBox="0 0 147 187" enable-background="new 0 0 147 187" xml:space="preserve">
<path d="M143.209,73.553c-2.228-2.161-4.986-3.191-8.277-3.092c-3.025,0.1-5.552,1.147-7.58,3.142
	c-2.16,2.094-3.225,4.771-3.191,8.028c0,3.357,1.147,6.034,3.441,8.028c2.061,1.861,4.604,2.792,7.629,2.792
	c0.36,0,0.716-0.015,1.064-0.043c0.369,4.077-0.309,7.208-2.062,9.368c-0.033-2.393-0.948-4.57-2.743-6.531
	c-1.229-1.363-2.809-2.161-4.736-2.394c-2.028-0.232-3.724,0.25-5.086,1.447c-1.563,1.362-2.311,3.125-2.244,5.285
	c0.033,2.094,0.797,3.84,2.293,5.236c1.396,1.329,3.176,2.077,5.336,2.243l3.241-0.199c-1.134,2.07-2.916,3.737-5.333,5.01
	c-0.786-0.956-1.633-1.879-2.545-2.767c-7.455-7.225-17.148-10.341-29.071-9.367c0.319-7.957-1.192-15.455-4.538-22.496
	c-2.714-5.663-6.165-10.102-10.346-13.327c8.858-0.577,17.99-5.318,27.399-14.248c9.773-9.308,15.741-19.231,17.901-29.769
	c0.964-5.02-1.213-6.964-6.532-5.834c-8.045,1.629-17.702,6.898-28.972,15.807c-0.069,0.055-0.134,0.109-0.203,0.164
	c1.012-3.116,1.944-6.903,2.797-11.383c1.03-5.552,1.596-10.339,1.695-14.361c0.066-1.961-0.466-3.241-1.596-3.839
	c-1.064-0.565-2.561-0.399-4.488,0.499c-7.479,3.491-14.327,10.488-20.544,20.993c-6.838,11.615-9.787,23.101-8.864,34.459
	c-2.509-0.192-5.054-0.185-7.641,0.047c-6.216,0.532-11.801,2.211-16.754,5.037c-4.255,2.426-7.479,5.069-9.674,7.928
	c-2.127,2.693-3.723,6.167-4.787,10.422c-1.13,4.521-2.494,7.829-4.089,9.923c-1.122,1.435-2.576,2.584-4.348,3.459
	c-2.294,0.529-4.274,1.561-5.924,3.123c-2.161,2.028-3.407,4.472-3.74,7.33c-0.432,3.591,0.482,6.665,2.743,9.225
	c0.887,0.991,1.909,1.821,3.058,2.5c3.968,5.53,10.192,10.946,18.683,16.249c6.198,3.874,11.8,6.5,16.814,7.894
	c-1.5,0.819-3.443,2.04-5.844,3.675l-7.081,5.236c-0.898,0.697-1.878,0.897-2.942,0.598l-3.839,0.1
	c-0.731,0.533-0.864,1.596-0.399,3.191c0.432,1.596,1.313,3.309,2.643,5.137c2.792,3.822,6.349,6.083,10.671,6.781l15.109-0.598
	c5.829-1.016,10.1-2.499,12.817-4.45c0.302,7.097,1.481,13.052,3.538,17.863c0.465,1.097,0.482,1.911,0.05,2.443
	c-1.031,1.097-1.479,2.128-1.346,3.091c0.166,1.131,1.213,2.045,3.141,2.743c1.662,0.632,3.823,0.881,6.483,0.748
	c3.523-0.2,6.166-1.247,7.928-3.142c3.518-3.806,5.921-9.287,7.221-16.43c0.38,1.013,0.887,2.05,1.556,3.115
	c0.831,1.297,1.762,2.478,2.792,3.541c0.699,0.765,0.947,1.745,0.748,2.941c-0.166,0.965,0.084,1.695,0.748,2.195
	c0.698,0.564,1.729,0.681,3.092,0.349c3.59-0.864,6.549-2.644,8.876-5.336c2.346-2.701,3.636-5.938,3.887-9.7
	c0.483-0.15,0.964-0.303,1.433-0.468c0.262,4.067,0.748,7.593,1.462,10.567l0.249,2.193l-0.697,0.848
	c-1.064,0.599-1.529,1.33-1.396,2.194c0.133,0.931,0.897,1.563,2.294,1.896l3.64,0.398l4.338-0.35
	c1.762-0.332,3.209-0.914,4.339-1.744c0.964-0.699,1.911-1.729,2.843-3.092c2.127-3.158,3.822-6.633,5.086-10.422
	c1.263-3.823,1.978-7.713,2.144-11.668c0.233-5.984-0.632-11.054-2.593-15.209c-0.619-1.315-1.292-2.398-2.01-3.291
	c0.278-8.568-1.762-15.883-6.123-21.941c3.863-2.111,6.352-4.816,7.435-8.127c4.201-2.63,5.857-7.122,4.984-13.465
	c1.503-0.453,2.886-1.21,4.142-2.292c2.426-2.095,3.64-4.903,3.64-8.427C146.45,78.207,145.369,75.647,143.209,73.553z
	 M131.441,103.92c-1.33,0.599-2.727,0.831-4.189,0.698c-1.563-0.133-2.825-0.665-3.789-1.596c-0.932-0.897-1.396-2.028-1.396-3.391
	c-0.033-1.362,0.416-2.443,1.346-3.241c0.832-0.731,1.912-1.03,3.242-0.897c1.296,0.133,2.326,0.614,3.092,1.446
	C131.508,98.834,132.072,101.161,131.441,103.92z"/>
</svg>
