<?xml version="1.0" encoding="utf-8"?>
<!-- Generator: Adobe Illustrator 16.0.0, SVG Export Plug-In . SVG Version: 6.00 Build 0)  -->
<!DOCTYPE svg PUBLIC "-//W3C//DTD SVG 1.1//EN" "http://www.w3.org/Graphics/SVG/1.1/DTD/svg11.dtd">
<svg version="1.1" id="图层_1" xmlns="http://www.w3.org/2000/svg" xmlns:xlink="http://www.w3.org/1999/xlink" x="0px" y="0px"
	 width="344px" height="345px" viewBox="0 0 344 345" enable-background="new 0 0 344 345" xml:space="preserve">
<path d="M342.576,270.254c-0.666-3.93-2.281-7.244-4.847-9.942c-2.543-2.607-5.517-4.108-8.909-4.53
	c1.001-4.721,0.679-8.975-0.983-12.758c-1.599-3.73-4.08-6.328-7.444-7.794c-3.664-1.565-7.678-1.549-12.042,0.05
	c-4.696,1.699-8.644,4.913-11.841,9.643c-0.732-1.199-1.766-2.331-3.098-3.396c-0.854-0.684-1.663-1.192-2.436-1.561
	c0.53-2.653,0.666-5.313,0.387-7.982c-0.533-4.863-2.432-8.527-5.695-10.992c-4.764-3.564-11.025-3.897-18.787-1
	c-6.348,2.361-11.469,6.201-15.399,11.476c1.867-10.552,2.591-21.87,2.18-33.95c6.181-3.547,12.237-7.724,18.167-12.55
	c19.086-15.622,28.945-31.144,29.578-46.566c0.533-13.057-3.197-24.849-11.191-35.374c-7.083-9.347-15.39-15.262-24.916-17.766
	c-3.564-2.502-7.963-3.749-13.207-3.719c-5.838,0-9.974,1.687-12.438,5.028c-1.802,0.401-2.951,0.97-3.399,1.717
	c-0.6,1.066-0.617,3.364-0.051,6.895c0.633,3.73,1.716,7.078,3.248,10.042c0.024,0.044,0.064,0.061,0.113,0.064
	c-0.14,0.472-0.23,0.872-0.264,1.185c-0.232,1.932,0.15,5.529,1.149,10.792l1.599,7.794c-0.913,0.834-2.2,2.313-3.85,4.415
	c-4.316-9.231-9.605-17.522-15.886-24.851c-6.296-7.395-13.356-13.54-21.185-18.437c12.957-7.261,23.083-18.137,30.378-32.626
	c5.462-10.859,8.394-21.135,8.794-30.828c0.166-3.597-0.25-5.813-1.25-6.645c-1.032-0.833-3.247-0.667-6.645,0.5
	c-8.994,3.131-17.737,9.177-26.23,18.137c-11.525,12.158-18.771,26.664-21.734,43.519c-4.364-1.699-9.178-2.814-14.44-3.348
	l-13.128,0.413c4.729-11.535,5.745-25.378,3.036-41.533c-2.232-13.257-5.696-23.383-10.393-30.378
	c-1.599-2.332-2.931-3.464-3.997-3.397c-0.966,0.1-2.249,1.349-3.847,3.747c-4.763,7.262-7.994,17.321-9.693,30.178
	c-2.268,16.828-0.051,31.885,6.632,45.178c-15.945,4.87-30.134,14.251-42.556,28.169c-5.385,6.033-10.295,12.769-14.744,20.191
	c-52.33,15.959-79.369,47.962-81.087,96.024c0,0.082,0.027,0.164,0.046,0.246c-0.17,3.043,0.511,6.905,2.052,11.596
	c1.799,5.495,3.897,8.393,6.295,8.693c1.199,0.166,2.198-0.5,2.998-1.999c0.14-0.262,0.306-0.629,0.496-1.09
	c1.242,0.259,2.757-0.536,4.551-2.407c1.966-2.056,3.481-4.575,4.595-7.51c0.032-0.014,0.07-0.021,0.102-0.035
	c2.998-1.365,8.744-4.597,17.238-9.693c6.571-3.998,11.011-6.788,13.328-8.377c0.011,1.523,0.053,3.062,0.162,4.631
	c0.756,10.912,3.37,19.651,7.83,26.229c-6.615,13.391-8.617,25.086-5.981,35.075c2.731,10.308,10.859,20.855,24.354,31.641
	c-2.262,1.202-4.23,2.558-5.867,4.084c-2.332,2.198-3.381,4.23-3.147,6.096c0.2,1.599,4.88,2.231,14.04,1.898l13.84-1
	c2.365-0.299,5.862-1.715,10.492-4.246l6.295-3.797c2.545-1.697,4.735-5.962,6.569-12.789c7.969,2.772,16.302,4.678,25.008,5.693
	c10.885,1.286,21.426,1.076,31.632-0.593c1.978,4.116,4.405,8.244,7.29,12.384c8.793,12.691,17.803,20.036,27.029,22.035
	c2.465,1.665,6.746,2.864,12.842,3.597c5.995,0.7,10.408,0.583,13.24-0.35c1.065-0.333,1.599-1.232,1.599-2.698
	c-0.034-1.565-0.8-3.431-2.298-5.596c-1.1-1.58-2.206-2.724-3.32-3.454c3.658-4.685,6.499-10.925,8.516-18.729
	c1.865-7.162,2.814-14.74,2.848-22.734c0.015-3.517-0.154-6.816-0.489-9.923l5.036-0.519c2.632,2.83,6.463,5.762,11.492,8.793
	c-1.399,2.598-1.965,5.229-1.699,7.895c0.367,3.131,1.898,5.779,4.597,7.944c2.132,1.665,4.614,2.564,7.444,2.698
	c3.098,0.133,5.846-0.733,8.244-2.599c0.533,4.863,2.266,8.86,5.197,11.991c3.53,3.764,8.344,5.646,14.439,5.646
	c5.729,0,10.075-1.832,13.04-5.496c2.398-2.932,3.397-6.029,2.998-9.293c2.432,1.065,4.829,1.432,7.194,1.099
	c2.531-0.333,4.68-1.399,6.445-3.198c1.865-1.865,2.948-4.213,3.248-7.045c0.267-2.498-0.1-4.796-1.1-6.895
	c4.563-2.265,7.878-5.546,9.943-9.843C342.659,277.815,343.209,274.051,342.576,270.254z M276.225,237.479
	c0,4.163-1.716,8.543-5.146,13.14c-3.83,5.063-8.794,8.944-14.889,11.642c-1.766-5.796-1.133-11.857,1.898-18.187
	c2.831-5.929,6.512-9.86,11.041-11.792l5.197,0.15C275.592,233.397,276.225,235.08,276.225,237.479z M241.721,261.524
	c0.141,1.443,0.375,2.873,0.708,4.288c-0.472,0.048-0.942,0.097-1.42,0.132c-0.247-0.588-0.504-1.143-0.768-1.673
	C240.745,263.366,241.244,262.456,241.721,261.524z M266.731,273.552l-0.101,2.748l-2.304-2.051
	c0.815-0.448,1.632-0.919,2.449-1.414L266.731,273.552z"/>
</svg>
