<?xml version="1.0" encoding="utf-8"?>
<!-- Generator: Adobe Illustrator 16.0.0, SVG Export Plug-In . SVG Version: 6.00 Build 0)  -->
<!DOCTYPE svg PUBLIC "-//W3C//DTD SVG 1.1//EN" "http://www.w3.org/Graphics/SVG/1.1/DTD/svg11.dtd">
<svg version="1.1" id="图层_1" xmlns="http://www.w3.org/2000/svg" xmlns:xlink="http://www.w3.org/1999/xlink" x="0px" y="0px"
	 width="280px" height="288px" viewBox="0 0 280 288" enable-background="new 0 0 280 288" xml:space="preserve">
<path d="M277.859,197.291c-0.533-2.928-1.748-5.74-3.646-8.438c-1.862-2.662-6.688-8.287-14.478-16.873
	c-7.622-8.42-13.813-14.992-18.571-19.719c-1.599-1.564-3.711-2.93-6.34-4.095l-10.084-3.994c-5.025-2.03-8.703-3.811-11.033-5.342
	c-3.129-1.997-5.356-4.326-6.688-6.989c-2.438-4.875-5.703-7.974-9.791-9.301c3.433-7.168,9.771-15.033,19.026-23.598
	c6.522-6.024,11.05-10.899,13.578-14.627c2.729-4.027,4.095-8.071,4.095-12.131c0-5.725-1.549-12.231-4.644-19.52
	c-2.763-6.523-6.175-12.431-10.234-17.723l5.593-9.485l7.638-13.479c0.932-1.73,1.397-3.095,1.397-4.094
	c0-2.529-1.397-4.56-4.193-6.09c-1.631-0.932-3.66-1.498-6.09-1.697c-2.463-0.233-3.944,0.05-4.443,0.849
	c-0.699,1.131-4.393,3.894-11.083,8.287c-7.854,5.158-15.21,9.219-22.065,12.181c-10.816,4.66-17.955,8.271-21.416,10.833
	c-2.828,2.097-4.875,4.959-6.141,8.587l-0.799,1.647c-0.434,0.466-1.182,0.932-2.246,1.397c-3.462,1.431-5.625,3.562-6.49,6.39
	c-0.5,1.598-0.232,3.894,0.799,6.889c0.309,0.89,0.68,1.815,1.11,2.773c-0.172,1.308,0.034,3.301,0.637,6.013
	c0.56,2.544,1.265,4.559,2.119,6.049c-2.198,1.664-3.993,3.424-5.364,5.283c-2.063,2.829-3.096,5.758-3.096,8.786
	c0,3.428,1.299,6.79,3.895,10.084c2.363,2.995,5.492,5.625,9.385,7.888c0.967,0.566,1.933,0.882,2.896,0.948
	c0.898,0.1,1.58-0.05,2.047-0.449c-1.746,5.792-4.55,10.569-8.375,14.365c-3.236-0.299-6.203-0.098-8.897,0.612
	c-3.361,0.899-6.057,2.53-8.087,4.893l-4.039,5.776c-4.534,1.731-7.772,3.169-9.689,4.308c-13.745,7.821-24.395,14.911-31.95,21.267
	c-4.16,3.528-7.455,6.106-9.884,7.738c-3.328,2.264-5.758,3.345-7.289,3.245c-9.452-0.467-17.423-2.33-23.913-5.592
	c-6.257-3.129-11.549-7.771-15.875-13.929c-5.358-7.655-8.403-17.09-9.136-28.306c-0.532-7.688-0.15-13.695,1.148-18.022
	l0.156-0.491c0.182-0.112,0.363-0.228,0.543-0.357c1.032-0.732,2.629-1.182,4.792-1.348c5.059-0.366,8.637-1.265,10.733-2.696
	c4.493-3.028,7.056-9.052,7.688-18.072c0.2-3.062,0.999-6.107,2.396-9.136c1.165-2.563,2.613-4.859,4.343-6.889l1.498-1.947
	c0.1-0.2-0.1-0.3-0.599-0.3c-2.297,0.233-4.21,0.832-5.741,1.797c-0.832,0.533-1.864,1.448-3.095,2.746
	c-0.666,0.732-1.131,1.015-1.398,0.849c-0.233-0.1-0.283-0.516-0.149-1.248c0.532-2.662,1.431-4.326,2.696-4.992
	c3.062-1.697,5.142-3.444,6.24-5.242c1.198-1.93,1.797-4.659,1.797-8.187c0-1.165-0.116-1.764-0.349-1.797
	c-0.267-0.066-0.616,0.499-1.049,1.697c-0.399,0.999-1.015,1.814-1.847,2.446c-0.999,0.766-1.731,0.715-2.197-0.15
	c-0.666-1.098,0.133-3.694,2.396-7.788l0.898-1.548l3.295-5.591c1.298-1.897,2.529-3.228,3.694-3.994l0.399-0.499l-0.549-0.3
	l-4.094,0.2c-0.799,0.433-1.614,1.498-2.446,3.195l-0.699,0.799l-0.799,0.1c-2.563-1.864-0.666-6.157,5.691-12.88l2.296-2.446
	c2.662-2.729,4.393-4.809,5.192-6.24c0.699-1.265,0.948-1.947,0.749-2.047c-0.2-0.066-0.882,0.283-2.047,1.048
	c-5.857,3.828-9.851,6.806-11.981,8.936c-2.197,2.197-3.994,5.076-5.392,8.637c-0.267,0.699-0.649,1.082-1.148,1.148
	c-0.466,0.1-0.782-0.083-0.948-0.549c-0.333-0.932-0.383-2.014-0.15-3.245c0.299-1.431,0.948-2.612,1.947-3.544l0.5-0.649
	l-0.799-0.1c-2.363,0.2-4.41,1.332-6.141,3.395c-1.531,1.797-2.979,4.51-4.343,8.137c-1.131,3.062-2.629,5.525-4.493,7.389
	c-0.533,0.565-0.965,0.815-1.298,0.749l-0.449-0.349c-0.399-0.333-0.183-1.614,0.649-3.844c0.866-2.33,1.88-4.177,3.045-5.542
	c0.499-0.599,0.682-0.932,0.549-0.998c-0.1-0.1-0.466,0.017-1.099,0.349c-4.326,1.93-7.954,5.508-10.883,10.733
	c-1.464,2.629-2.496,5.025-3.095,7.189c0-3.395-0.682-6.091-2.047-8.087l-0.499-0.45c-0.167,0.1-0.283,0.633-0.35,1.598
	c-0.133,2.962-0.865,5.608-2.196,7.938c-1.764,3.095-4.909,6.44-9.436,10.035c-2.496,1.997-4.36,4.493-5.591,7.488
	c-1.265,3.028-1.73,6.307-1.397,9.834c0.299,3.095,1.115,5.891,2.446,8.387c1.498,2.829,3.495,4.893,5.991,6.19
	c3.828,1.964,6.49,3.827,7.988,5.591c0.814,0.93,1.438,1.749,1.895,2.468l-0.197,0.428c-5.059,11.449-8.703,21.833-10.933,31.151
	c-2.596,10.683-3.627,21.1-3.095,31.251c1.332,25.992,16.541,46.811,45.629,62.451c1.012,0.546,2.01,1.066,3.001,1.578
	c0.138,0.635,0.3,1.272,0.494,1.918c0.699,2.328,1.914,4.908,3.644,7.736c2.164,3.563,3.262,7.307,3.295,11.232
	c0.066,4.926-1.498,10.5-4.692,16.724c-2.063,4.062-2.496,7.306-1.298,9.734c0.632,1.332,2.23,2.797,4.792,4.394l2.596,0.85
	c0.415,0.3,0.987,0.565,1.712,0.802c0.727,1.048,1.686,2.294,2.881,3.741c2.663,3.195,4.609,4.908,5.841,5.143
	c0.599,0.133,1.048,0.016,1.348-0.35c1.364-1.498,2.396-3.412,3.095-5.741c0.16-0.513,0.293-1.017,0.405-1.515
	c1.212,0.002,2.49-0.008,3.838-0.033c1.097-0.018,2.144-0.047,3.162-0.083c0.683,0.651,1.625,1.411,2.829,2.28
	c2.629,1.93,5.125,3.311,7.488,4.143l2.896,0.85c1.298,0.266,2.213,0.166,2.746-0.301c0.599-0.465,0.616-2.678,0.05-6.639
	c-0.13-0.905-0.28-1.751-0.441-2.557c0.954-0.355,1.755-0.75,2.388-1.188l0.237-0.161c1.085,0.462,3.09,0.997,6.054,1.608
	c4.227,0.897,7.139,1.265,8.736,1.099l1.048,0.05c0.532-0.033,0.782-0.232,0.749-0.6c-0.233-2.662-1.98-5.975-5.242-9.934
	c-1.777-2.147-3.313-3.66-4.627-4.582c-0.302-0.571-0.655-1.174-1.064-1.81c-1.231-1.963-3.262-4.676-6.09-8.137
	c2.097-2.073,4.106-4.274,6.037-6.595c1.203,1.767,2.37,3.194,3.498,4.248l1.348,1.396c0.666,0.666,1.148,0.916,1.448,0.749
	c0.532-0.267,0.699-1.548,0.499-3.845l-0.898-8.086c-0.057-0.719-0.111-1.406-0.162-2.076c0.562-0.823,1.113-1.66,1.658-2.51
	l0.477,0.016c1.265,1.708,2.756,3.633,4.518,5.818c5.492,6.821,8.87,10.018,10.134,9.584c0.699-0.232,0.849-1.697,0.449-4.394
	l-2.146-11.032l-0.055-0.336c2.133-0.207,4.208-0.482,6.227-0.824c0.976,0.348,1.892,0.676,2.757,0.989
	c0.467,1.052,0.885,1.611,1.255,1.668c0.287,0.052,0.657-0.223,1.107-0.802c2.625,0.977,4.617,1.764,5.932,2.35
	c3.994,1.83,6.373,3.577,7.139,5.241c0.434,1.032,0.566,2.048,0.399,3.045c-0.167,0.899-0.632,1.947-1.397,3.146
	c-1.131,1.797-2.098,3.844-2.896,6.14c-1.063,3.063-1.164,5.208-0.299,6.439c0.799,1.132,5.856,2.646,15.176,4.543l13.929,2.546
	l1.664-0.056c1.625,0.416,4.199,0.932,7.771,1.554c5.726,0.997,9.151,1.247,10.285,0.749c0.266-0.1,0.397-0.301,0.397-0.6
	l-0.449-1.697c-0.162-0.43-0.354-0.858-0.561-1.286c1.439,0.271,3.105,0.5,5.004,0.688c4.793,0.465,7.639,0.415,8.537-0.15
	c0.332-0.199,0.416-0.564,0.249-1.098c-0.219-0.688-0.815-1.596-1.789-2.717c2.229-0.076,3.544-0.354,3.937-0.829
	c0.232-0.266,0.267-0.581,0.101-0.948c-0.367-0.965-2.563-2.563-6.59-4.791c-1.659-0.912-3.007-1.621-4.074-2.15
	c-0.804-1.021-2.007-2.333-3.614-3.939l-1.697-1.897c-0.398-0.565-0.516-1.015-0.35-1.349c4.727-8.953,6.24-16.457,4.543-22.515
	c-0.998-3.661-4.326-8.687-9.984-15.076c-2.762-3.161-4.959-6.64-6.588-10.435l-2.242-6.223c0.408-1.021,0.809-2.053,1.192-3.112
	c2.229-6.19,4.243-13.163,6.041-20.917c1.964-8.486,3.146-15.692,3.544-21.616l0.045-3.396l11.088,3.695
	c4.692,1.764,8.787,3.693,12.28,5.791c2.563,1.564,6.623,8.32,12.183,20.268c3.66,7.89,7.254,16.375,10.783,25.461
	c0.625,1.587,1.387,2.938,2.271,4.087c0.34,1.567,0.81,3.503,1.422,5.848c1.599,6.124,2.912,9.419,3.944,9.886
	c0.498,0.267,0.882,0.184,1.146-0.25c2.192-3.432,3.741-7.261,4.672-11.477l4.797-0.141c0.392,1.521,0.976,3.504,1.765,5.976
	l2.896,8.387c0.732,1.664,1.314,2.515,1.747,2.548c0.433,0.032,1.032-0.533,1.798-1.697l1.598-3.096
	c0.058-0.152,0.107-0.309,0.162-0.462c0.067,1.294,0.129,2.173,0.188,2.607c0.2,1.563,0.582,2.446,1.146,2.646
	c0.5,0.199,1.017,0,1.55-0.6c2.129-2.363,3.96-6.373,5.489-12.031c1.272-4.675,1.619-8.459,1.057-11.369
	C278.171,201.716,278.258,199.602,277.859,197.291z"/>
</svg>
