<?xml version="1.0" encoding="utf-8"?>
<!-- Generator: Adobe Illustrator 16.0.0, SVG Export Plug-In . SVG Version: 6.00 Build 0)  -->
<!DOCTYPE svg PUBLIC "-//W3C//DTD SVG 1.1//EN" "http://www.w3.org/Graphics/SVG/1.1/DTD/svg11.dtd">
<svg version="1.1" id="图层_1" xmlns="http://www.w3.org/2000/svg" xmlns:xlink="http://www.w3.org/1999/xlink" x="0px" y="0px"
	 width="157px" height="124px" viewBox="0 0 157 124" enable-background="new 0 0 157 124" xml:space="preserve">
<path d="M156.523,85.773c-0.433-1.03-1.711-2.426-3.838-4.188c-2.293-1.827-4.867-3.488-7.726-4.982l-0.798-2.843l-0.896-2.241
	l-2.791-0.998l-3.091-0.996c-0.332-0.166-0.963-0.863-1.894-2.094l-1.596-2.393c-0.199-0.365-1.278-0.864-3.24-1.495
	c-1.859-0.599-3.238-0.93-4.137-0.996l-4.037,0.248l-1.765,0.249l-0.079-22.875c0-10.798-4.004-20.202-12.011-28.209
	C100.652,3.987,91.25,0,80.419,0c-10.865,0-20.218,3.838-28.06,11.513c-7.908,7.708-11.862,16.945-11.862,27.711L39.98,56.9
	c-1.189-0.418-1.97-0.631-2.323-0.631l-1.545,0.598l-1.695,0.548l-1.844-0.05l-1.894,0.299l-2.642,2.392l-2.691,2.342l-3.639,0.997
	c-2.126,0.532-3.372,0.914-3.738,1.146c-0.465,0.299-1.03,0.779-1.694,1.445l-1.296,1.645c-0.1,0.166-0.149,0.434-0.149,0.799
	c-0.399,0.995-0.814,1.594-1.246,1.793c-2.725,1.131-5.632,3.041-8.722,5.731c-3.057,2.657-4.585,4.603-4.585,5.831
	c0,2.525,1.645,5.814,4.934,9.867l3.09,3.39c1.13,1.229,1.711,2.062,1.745,2.492c0.1,2.192,0.864,4.817,2.292,7.875
	c10.333,6.346,16.032,9.469,17.095,9.368l7.725-3.389L44.684,108c0.366,0.066,1.445,0.564,3.24,1.494
	c1.761,0.898,2.824,1.496,3.189,1.795l1.445,4.585c1.03,3.024,1.728,4.651,2.093,4.884c0.831,0.565,4.236,1.313,10.217,2.244
	L76.73,124c1.229-0.166,3.208-1.611,5.932-4.336l3.938-4.236l6.729-0.148c3.521-0.1,5.466-0.1,5.831,0l4.485,2.841
	c3.09,1.894,5.166,2.856,6.229,2.891c1.661,0.066,4.618-1.776,8.871-5.532c3.854-3.422,6.396-6.129,7.626-8.123l5.781,0.549
	c3.654,0.299,5.881,0.299,6.678,0c2.359-0.864,4.369-2.842,6.031-5.932c1.728-0.564,3.953-1.762,6.678-3.589
	c2.293-1.563,3.723-2.675,4.287-3.34c0.332-0.397,0.564-1.993,0.697-4.784C156.656,87.566,156.656,86.072,156.523,85.773z"/>
</svg>
