<?xml version="1.0" encoding="utf-8"?>
<!-- Generator: Adobe Illustrator 16.0.0, SVG Export Plug-In . SVG Version: 6.00 Build 0)  -->
<!DOCTYPE svg PUBLIC "-//W3C//DTD SVG 1.1//EN" "http://www.w3.org/Graphics/SVG/1.1/DTD/svg11.dtd">
<svg version="1.1" id="图层_1" xmlns="http://www.w3.org/2000/svg" xmlns:xlink="http://www.w3.org/1999/xlink" x="0px" y="0px"
	 width="147px" height="185px" viewBox="0 0 147 185" enable-background="new 0 0 147 185" xml:space="preserve">
<path d="M123.769,109.397c0.699-0.465,1.36-0.996,1.975-1.61c1.734-1.768,2.868-3.854,3.402-6.255c0.501-2.335,0.3-4.37-0.601-6.104
	c-0.783-1.464-1.951-2.428-3.492-2.909c5.887-3.568,10.635-8.157,14.201-13.805c4.57-7.139,6.789-15.246,6.655-24.32
	c-0.063-5.311-0.857-10.382-2.385-15.215c0.561-2.286,0.974-5.014,1.233-8.204c0.301-4.404,0.15-7.223-0.449-8.457
	c-0.734-1.501-2.836-3.019-6.306-4.554c-3.297-1.488-6.619-2.376-9.967-2.665C117.264,5.107,104.375,0,89.363,0
	c-7.572,0-14.745,1.218-21.517,3.653c-6.618,2.413-12.401,5.835-17.362,10.254c-2.001-0.417-5.307-0.007-9.96,1.255
	c-6.605,1.735-10.442,4.454-11.509,8.157c-0.934,3.103-0.584,7.356,1.051,12.76c1.219,4.054,2.539,6.659,3.961,7.82
	c-0.725,3.723-1.109,7.23-1.109,10.495c0,8.24,1.585,15.362,4.754,21.367c2.935,5.515,7.428,10.368,13.449,14.573
	c-1.857,1.72-2.825,3.933-2.89,6.644c-0.063,2.852,1.023,5.539,3.227,8.066c-3.826,1.052-7.883,3.2-12.184,6.496
	c-4.304,3.303-7.506,6.654-9.608,10.058c-1.935,3.103-2.535,5.538-1.801,7.306c0.7,1.668,2.969,2.803,6.805,3.402
	c4.204,0.668,8.707,0.317,13.511-1.051c0.804-0.236,1.583-0.496,2.347-0.769c-0.4,2.444-0.639,4.774-0.696,6.974
	c-0.032,1.789,0.065,3.511,0.288,5.166c-4.662-0.859-10.443-1.613-17.352-2.264c-9.708-0.9-15.446-0.767-17.214,0.4
	c-2.068,1.368-4.921,4.487-8.557,9.357c-3.469,4.638-5.588,8.041-6.355,10.209c-0.834,2.269-0.734,4.236,0.3,5.904
	c1.067,1.735,2.819,2.52,5.254,2.353c6.539-0.468,15.496-2.269,26.872-5.405c9.962-2.789,17.396-5.353,22.317-7.691
	c1.281,1.663,2.782,3.21,4.505,4.64c0.266,0.22,0.543,0.428,0.816,0.639c-3.454,2.765-6.56,5.889-9.273,9.419
	c-3.503,4.57-4.67,7.79-3.503,9.658c1.635,2.636,5.838,4.12,12.61,4.453c6.438,0.301,10.875-0.434,13.311-2.201
	c1.268-0.9,2.385-3.219,3.352-6.955c0.728-2.878,1.093-5.228,1.104-7.061c3.404,0.58,7.071,0.866,11.006,0.855
	c3.529-0.01,6.804-0.243,9.838-0.688c0.707,3.291,1.943,6.457,3.724,9.494c2.234,3.903,4.604,6.055,7.105,6.455
	c3.303,0.533,7.789,0.017,13.461-1.551c6.472-1.802,9.207-4.087,8.207-6.855c-0.969-2.67-3.303-5.705-7.006-9.107
	c-2.577-2.373-5.06-4.281-7.457-5.78c6.3-5.302,9.476-13.128,9.508-23.493c0.002-0.362-0.007-0.721-0.012-1.08
	c1.998,0.443,4.342,0.612,7.068,0.479c4.003-0.199,6.571-1.117,7.705-2.752c1.402-1.935,0.534-5.404-2.602-10.408
	C135.396,118.113,130.356,113.368,123.769,109.397z"/>
</svg>
