<?xml version="1.0" encoding="utf-8"?>
<!-- Generator: Adobe Illustrator 16.0.0, SVG Export Plug-In . SVG Version: 6.00 Build 0)  -->
<!DOCTYPE svg PUBLIC "-//W3C//DTD SVG 1.1//EN" "http://www.w3.org/Graphics/SVG/1.1/DTD/svg11.dtd">
<svg version="1.1" id="图层_1" xmlns="http://www.w3.org/2000/svg" xmlns:xlink="http://www.w3.org/1999/xlink" x="0px" y="0px"
	 width="211px" height="333px" viewBox="0 0 211 333" enable-background="new 0 0 211 333" xml:space="preserve">
<path d="M192.619,223.102c-9.98-6.107-19.126-9.512-27.438-10.213c-4.673-0.4-10.014,0.617-16.021,3.054
	c-4.058,1.665-7.804,3.707-11.274,6.086c-1.272-4.517-3.271-8.982-5.999-13.396c-2.332-3.753-4.513-6.438-6.547-8.073
	c-0.134-4.82-1.505-9.022-4.117-12.604c-0.141-0.192-0.296-0.367-0.441-0.554l-0.359-1.8l-0.186-1.315
	c5.819,3.41,12.389,6.22,19.711,8.425c6.242,1.869,13.451,3.555,21.629,5.057c0.635,1.703,2.037,3.605,4.207,5.708
	c2.27,2.203,3.57,2.637,3.904,1.302c0.201-0.734,0.334-2.036,0.4-3.905l-0.1-4.506c6.775,1.702,10.447,1.985,11.015,0.851
	c0.501-1.001-1.535-4.005-6.108-9.012c1.603-0.501,3.121-1.152,4.557-1.953c1.735-1.001,2.453-1.752,2.152-2.253
	c-1.668-2.771-6.759-4.105-15.27-4.005c-3.338-5.007-12.066-11.449-26.186-19.326c-14.22-7.944-24.467-12.033-30.742-12.267
	l-2.002-6.609c-0.879-3.138-1.39-5.359-1.531-6.666c7.486-1.603,14.076-4.381,19.756-8.354c6.822-4.773,11.795-10.851,14.96-18.205
	c0.267,0.307,0.531,0.612,0.811,0.932c6.476,7.41,10.932,11.983,13.368,13.719c1.568,1.068,2.069,0.717,1.502-1.052
	c-0.734-2.136-3.137-6.942-7.209-14.419l-5.474-9.715c0.155-0.982,0.284-1.971,0.378-2.971l8.25-7.391
	c5.24-4.806,8.227-7.744,8.961-8.812c1.303-2.003-3.287,0.066-13.768,6.208c-1.217,0.714-2.355,1.396-3.431,2.051
	c-0.376-4.771-1.427-9.361-3.178-13.763l0.9-6.263c0.501-5.007,0.551-8.011,0.149-9.012c-0.467-1.168-3.521-2.52-9.162-4.056
	c-3.222-0.895-5.729-1.506-7.557-1.846c-1.521-1.238-3.124-2.409-4.81-3.511c-6.876-4.473-14.336-7.343-22.38-8.612
	c-4.217-0.664-8.393-0.847-12.527-0.554l0.461-7.006c0.067-3.038,0-5.474-0.2-7.31c-0.167-1.335-0.417-2.069-0.751-2.203
	c-0.434-0.167-1.302,0.267-2.604,1.302c-1.063,0.854-2.15,1.937-3.259,3.237c0.779-13.096,1.381-21.292,1.807-24.566
	c0.2-1.536,0.05-2.487-0.451-2.854c-0.567-0.367-1.435,0.117-2.604,1.452c-3.905,4.473-9.83,13.018-17.774,25.635
	c-7.166,11.375-11.849,19.368-14.065,24L45.47,51.17c-5.875,0.5-9.379,1.635-10.514,3.404c-0.901,1.436-0.734,4.856,0.501,10.264
	c0.875,3.819,1.898,7.219,3.052,10.249c-5.545-2.089-10.136-3.304-13.767-3.64c-0.968-0.067-1.635,0.033-2.002,0.3
	c-0.4,0.267-0.3,0.618,0.3,1.051l12.899,7.798c-1.061,5.543-1.213,11.187-0.432,16.935c0.823,6.137,2.601,11.484,5.312,16.062
	c-5.422,4.103-8.45,6.529-9.067,7.27c-0.701,0.834-0.935,1.335-0.701,1.502l2.203-0.201c2.819-0.65,6.455-1.968,10.907-3.952
	c1.965,2.188,4.75,4.606,8.369,7.256c4.239,3.138,8.145,5.524,11.716,7.16c-0.066,0.901-0.667,3.221-1.802,6.959
	c-1.135,3.805-1.953,6.142-2.453,7.009c-0.401,0.701-2.203,1.953-5.408,3.755c-11.249,6.375-19.676,13.718-25.284,22.03
	c-6.442,9.546-10.264,21.796-11.465,36.749c-1.869,2.137-3.171,4.974-3.905,8.512c-0.734,3.572-0.4,5.441,1.001,5.607
	c0.467,0.067,1.485-0.45,3.054-1.552c0.932-0.693,1.658-1.334,2.225-1.934c-0.008,0.869,0.021,1.732,0.128,2.585
	c0.184,1.369,0.481,2.415,0.891,3.146c-0.508,8.564-0.227,16.234,0.862,22.988c0.146,0.891,0.303,1.724,0.468,2.512
	c-1.452,2.011-4.034,4.159-7.778,6.451c-4.506,2.736-8.962,4.639-13.368,5.707c-1.402,0.334-1.686,0.901-0.851,1.702
	c0.834,0.802,2.403,1.502,4.707,2.103c6.242,1.535,12.534,1.186,18.875-1.051c-1.869,1.568-5.558,3.889-11.065,6.959
	c-1.502,0.835-0.567,1.619,2.804,2.354c3.672,0.801,8.194,0.852,13.568,0.15c0.989-0.127,1.972-0.274,2.95-0.442
	c0.219,2.222,1.081,4.075,2.608,5.549l5.207,3.455l2.553,1.952c0.567,0.668,0.852,1.452,0.852,2.354
	c0,1.135-2.621,2.837-7.861,5.107c-4.272,1.836-8.745,3.454-13.418,4.855c-5.674,1.703-9.463,3.222-11.366,4.557
	c-1.602,1.135-2.103,2.336-1.502,3.605c0.935,1.936,5.241,3.254,12.917,3.955c6.743,0.601,13.418,0.601,20.027,0
	c2.67-0.268,6.058-1.085,10.164-2.453c4.406-1.502,7.71-3.021,9.914-4.557c1.802-1.234,2.704-2.737,2.704-4.506
	c0-1.936-1.035-4.006-3.104-6.209l-1.402-1.451c-0.5-0.635-0.734-1.336-0.701-2.104c0.1-2.537,0.817-4.289,2.153-5.257
	c1.902-1.401,5.691-2.136,11.365-2.203c9.379-0.101,18.976,2.521,28.789,7.86c9.746,5.274,14.953,10.631,15.621,16.072l1.051,12.817
	c0.902,5.474,3.004,9.278,6.309,11.415c2.904,1.869,9.547,2.771,19.928,2.703c10.58-0.033,16.521-1.184,17.824-3.454
	c0.934-1.603,0.533-3.738-1.202-6.409c-2.403-3.638-7.144-7.776-14.22-12.416c-4.205-2.737-7.26-4.939-9.162-6.609
	c-2.837-2.402-4.406-4.522-4.706-6.358c-0.233-1.569,0.067-3.989,0.901-7.26c0.609-2.539,0.977-4.409,1.105-5.627
	c5.362,0.11,10.302-0.465,14.816-1.733c1.769-0.5,2.619-1.018,2.553-1.552c-0.066-0.434-0.784-0.984-2.152-1.652
	c-5.24-2.569-8.563-4.39-9.964-5.457c6.476,0.567,12.617-0.618,18.425-3.555c2.203-1.136,3.722-2.22,4.557-3.255
	c0.867-1.068,0.717-1.702-0.451-1.902c-2.668-0.449-5.153-1.088-7.471-1.903c9.89,0.187,21.023-1.911,33.406-6.308
	c6.175-2.203,11.082-4.539,14.72-7.01c3.938-2.703,5.791-5.19,5.558-7.46C209.074,236.153,203.367,229.678,192.619,223.102z"/>
</svg>
