<?xml version="1.0" encoding="utf-8"?>
<!-- Generator: Adobe Illustrator 16.0.0, SVG Export Plug-In . SVG Version: 6.00 Build 0)  -->
<!DOCTYPE svg PUBLIC "-//W3C//DTD SVG 1.1//EN" "http://www.w3.org/Graphics/SVG/1.1/DTD/svg11.dtd">
<svg version="1.1" id="图层_1" xmlns="http://www.w3.org/2000/svg" xmlns:xlink="http://www.w3.org/1999/xlink" x="0px" y="0px"
	 width="379px" height="439px" viewBox="0 0 379 439" enable-background="new 0 0 379 439" xml:space="preserve">
<path d="M376.261,414.208c-0.633-1.399-1.899-3.082-3.799-5.048c-4.578-4.771-9.298-7.953-14.156-9.574
	c-0.064-0.037-0.12-0.093-0.188-0.123c-2.439-1.117-6.256-5.128-11.436-11.999c-0.212-4.389-0.752-8.45-1.66-12.143
	c-1.1-4.432-2.933-9.396-5.498-14.895c-0.467-0.966-1.083-1.782-1.85-2.449c-0.6-0.514-1.217-0.84-1.852-0.983
	c0.23-2.143,0.401-4.39,0.502-6.764c0.267-6.265,0.066-11.729-0.6-16.395c-0.684-4.847-3.557-7.823-8.613-8.933
	c0.669-4.212,1.111-7.367,1.315-9.411c0.601-5.531,0.634-10.38,0.101-14.545c-0.267-2.199-2.066-3.982-5.398-5.349
	c-2.254-0.912-4.632-1.438-7.123-1.616c-0.406-1.092-0.813-2.176-1.225-3.232c-1.18-3.019-2.53-6.142-4.021-9.35
	c-0.09-5.216-0.94-11.006-2.576-17.391c-2.032-7.965-3.865-11.713-5.498-11.246c-0.6,0.166-1.166,0.949-1.699,2.35
	c-0.54,1.458-0.903,3.398-1.096,5.803c-1.346-2.284-2.73-4.592-4.202-6.953l-5.448-8.297c-1.967-3.032-3.049-5.182-3.249-6.448
	c-0.866-5.132-1.633-13.729-2.3-25.791c-0.047-0.907-0.09-1.778-0.131-2.631c2.146-1.204,4.074-3.39,5.779-6.566
	c1.409-2.593,2.402-5.327,3.024-8.183c0.847,0.739,1.734,1.421,2.674,2.035c3.232,2.099,7.448,3.699,12.646,4.798l2.699,0.15
	c0.4-0.267,0.2-0.95-0.6-2.049c-2.232-3.065-4.382-7.581-6.447-13.545c-1.733-5.029-2.696-9.018-2.903-11.988
	c5.551,1.853,9.334,1.567,11.35-0.858c0.986-1.166,1.202-3.372,0.661-6.601c0.095-0.146,0.188-0.288,0.289-0.446
	c1.366-2.132,1.933-3.749,1.699-4.848c-0.167-0.667-1.217-0.667-3.149,0c-0.071,0.023-0.126,0.045-0.194,0.068
	c-0.89-2.804-2.054-5.592-3.504-8.365c-1.289-2.465-2.614-4.53-3.974-6.242c0.182-0.384,0.391-0.781,0.618-1.188
	c3.532,5.338,9.078,8.251,16.65,8.729c8.164,0.533,14.162-2.216,17.994-8.248c1.166-1.799,0.65-2.399-1.55-1.799l-5.848,0.25
	c7.831-2.632,12.912-7.464,15.245-14.495c1.832-5.531,1.832-11.513,0-17.944c-0.333-1.266-0.75-1.75-1.25-1.449
	c-0.333,0.2-0.75,0.866-1.249,1.999c-3.136,6.903-7.42,10.782-12.846,11.659c0.063-0.191,0.141-0.368,0.199-0.563
	c0.867-2.899,1.066-4.932,0.601-6.098c-0.467-1.267-1.883-2.149-4.249-2.649l-12.146-1.1c-2.711-0.118-4.976-0.194-6.817-0.231
	c0.74-0.614,1.119-1.286,1.119-2.018c0-2.566-1.066-5.432-3.199-8.597c-2.032-3.032-4.465-5.548-7.298-7.547
	c1.233-3.199,3.133-7.664,5.698-13.396c2.699-6.064,5.249-11.546,7.647-16.444l12.896,0.95c3.999,0.2,6.132,0,6.398-0.6
	c0.166-0.434-1.399-2.5-4.698-6.198l-7.598-8.497c14.429-29.89,22.109-46.201,23.042-48.933c0.5-1.433,0.233-2.549-0.8-3.349
	c-1.1-0.799-2.183-0.533-3.249,0.8c-12.896,15.761-26.674,34.538-41.335,56.331l-13.445-2.699l-5.549-0.45
	c-0.4,0.333,0.084,1.716,1.449,4.148l8.197,12.996c-2.332,3.465-6.715,9.347-13.146,17.644c-13.636-1.054-25.087,1.072-34.36,6.366
	c-0.653-1.54-1.246-3.128-1.777-4.767c-0.6-1.966-1.1-3.065-1.499-3.299c-0.467-0.333-1,0.3-1.6,1.899
	c-1.195,3.083-1.695,6.598-1.514,10.535c-3.601,2.881-6.878,6.368-9.828,10.463c-4.45-3.454-8.961-6.859-13.55-10.202
	c-10.063-7.297-15.562-10.563-16.494-9.796c-1.083,0.886,2.086,11.826,9.5,32.807c-0.353,0.259-0.714,0.51-1.053,0.781
	c-4.381,3.529-7.538,7.979-9.506,13.327c-4.104-3.455-8.362-6.881-12.787-10.278c-7.064-5.432-10.997-7.914-11.796-7.447
	c-0.833,0.533,0.917,7.081,5.249,19.643l5.851,16.372c-0.74,0.995-1.45,2.024-2.102,3.121c-3.388,5.679-5.215,12.1-5.509,19.247
	c-18.602-0.531-35.945-5.833-52.021-15.948c-3.532-2.166-4.599-1.916-3.199,0.75c8.764,16.261,19.66,27.524,32.688,33.789
	c8.521,4.091,17.647,5.92,27.371,5.507c0.371,0.854,0.821,1.807,1.34,2.841c-2.44,1.113-5.126,2.179-8.068,3.197
	c-2.499,0.866-3.882,1.633-4.148,2.299c-0.3,0.767,1.066,1.25,4.099,1.449c3.942,0.234,8.002,0.205,12.179-0.082
	c0.076,0.111,0.149,0.224,0.225,0.333c-0.399,3.572-0.585,9.184-0.558,16.843c0.033,10.496,0.733,16.211,2.1,17.144
	c1.633,1.101,5.231-0.383,10.796-4.448c4.271-3.125,8.061-6.445,11.412-9.944c2.213,0.964,4.506,1.787,6.875,2.478
	c-7.64,12.18-16.432,20.779-26.373,25.795c-0.596-3.599-1.364-5.49-2.311-5.633c-1.158-0.151-2.763,2.687-4.812,8.496
	c-0.518,0.166-1.029,0.345-1.555,0.492c-12.628-4.487-23.952-6.352-33.97-5.589c-6.035,0.451-11.675,1.865-16.926,4.229l-0.118-0.08
	l-3.398-2.05c2.666-5.631,4.132-15.328,4.398-29.09c0.3-14.562-1.233-24.025-4.599-28.39c-1.366-1.799-5.998-0.65-13.895,3.449
	c-7.131,3.703-11.315,6.772-12.572,9.21c-1.999-0.207-5.924-0.238-11.783-0.094c-0.688-1.054-1.381-2.097-2.086-3.118
	c-7.931-11.529-15.278-18.194-22.042-19.993c-3.033-0.8-5.748,2.116-8.147,8.747c-1.933,5.298-3.365,11.813-4.298,19.543
	c-1.533,0.301-2.616,0.633-3.249,1c-0.363,0.204-0.642,0.467-0.851,0.779c-4.854-1.991-11.457-3.95-19.842-5.877
	c-7.231-1.633-12.729-2.632-16.495-2.999c-4.065-0.4-6.864,0.55-8.397,2.849c-1.466,2.232-1.133,4.516,1,6.848
	c8.797,9.764,19.56,18.677,32.289,26.74c23.698,14.948,49.345,23.371,76.93,25.309c-6.341,7.285-11.8,17.337-16.382,30.137
	c-3.835,0.459-7.1,1.691-9.765,3.734c-1.633,1.267-2.966,4.433-3.999,9.498c-0.704,3.457-1.237,7.599-1.604,12.409
	c-1.408,0.44-2.713,1.025-3.895,1.785c-1.6,1-2.599,2.166-2.999,3.499c-0.733,2.332-1.266,5.432-1.6,9.297
	c-0.244,3.139-0.297,6.161-0.179,9.078c-1.092,0.234-2.167,0.535-3.22,0.918c-0.733,0.233-1.449,0.667-2.149,1.3
	c-0.8,0.667-1.333,1.383-1.6,2.149c-1.167,3.432-2.083,6.797-2.749,10.097l-1.515,10.166c-1.251,1.195-2.624,2.788-4.133,4.829
	c-1.586,2.067-2.711,3.782-3.382,5.152c-0.352,0.107-0.707,0.232-1.067,0.396c-2.132,0.966-5.448,3.865-9.947,8.697
	c-4.665,5.031-6.864,8.33-6.598,9.896c0.133,0.8,1.116,1.133,2.949,0.999l5.503-0.917c-0.376,0.942-0.113,1.467,0.795,1.567
	c4.465,0.533,9.913,0.033,16.344-1.5c5.931-1.433,10.63-3.215,14.095-5.348c0.563-0.328,0.938-0.744,1.142-1.24
	c14.768-4.937,28.6-15.561,41.494-31.898c6.934-8.81,14.926-21.438,23.968-37.857l4.922,3.419c3.034,2.005,5.246,3.34,6.638,4.007
	c0.054,0.313,0.108,0.622,0.163,0.92c-0.706,0.422-1.393,0.875-2.052,1.371c-1.5,1.232-2.532,2.232-3.099,2.999
	c-0.733,1.066-1.116,2.315-1.149,3.749c-0.1,2.365-0.033,5.965,0.2,10.796c0.171,3.37,0.333,5.818,0.486,7.362
	c-1.247,0.398-2.448,0.882-3.585,1.484c-2.232,1.166-3.682,2.616-4.349,4.349c-0.333,0.8-0.966,4.016-1.899,9.647
	c-0.899,5.331-1.416,8.797-1.549,10.396c-0.028,0.369-0.037,0.698-0.033,1.001l-7.664,7.846c-3.788,4.325-5.929,7.535-6.437,9.639
	c-1.273,1.885-2.261,5.787-2.96,11.754c-0.643,5.684-0.706,9.68-0.203,12.021c-0.964,2.219-0.438,3.083,1.603,2.573
	c6.231-1.566,12.479-3.449,18.744-5.648c6.739-2.382,10.661-4.219,11.769-5.51c0.928-0.501,1.844-1.013,2.757-1.528
	c2.198,0.896,4.613,1.616,7.267,2.141c3.232,0.6,5.432,0.616,6.598,0.05c1.133-0.566,2.183-3.133,3.149-7.697
	c0.52-2.555,0.859-4.662,1.026-6.343c13.409-10.208,24.77-22.382,34.061-36.543c0.098-0.148,0.188-0.3,0.284-0.448
	c2.324,0.999,5.372,3.154,9.163,6.496c5.697,5.031,9.264,8.014,10.696,8.947c1.966,1.232,5.231,1.982,9.797,2.249h10.396
	c0.012,0,0.022-0.005,0.034-0.006c0.006,0.001,0.011,0.006,0.017,0.006l8.396-0.101l8.197-0.35c2.633-0.333,2.232-2.215-1.199-5.647
	c-3.336-3.272-6.883-5.573-10.637-6.918c-0.038-0.023-0.067-0.063-0.109-0.08c-1.618-0.642-3.425-3.324-5.417-8.032
	c0.393-2.552,0.558-5.153,0.469-7.813c-0.124-2.652-0.498-4.842-1.12-6.573c6.936-0.58,13.408-2.119,19.414-4.622
	c0.836-0.348,1.639-0.733,2.447-1.113c2.323,1.111,5.388,3.679,9.198,7.711c4.365,4.598,8.964,10.229,13.796,16.894l8.547,12.046
	c3.199,4.365,5.73,7.514,7.598,9.447c3.299,3.465,8.063,6.714,14.295,9.746c5.166,2.492,10.667,4.503,16.471,6.08
	c0.368,0.585,0.758,1.174,1.173,1.768c3.499,4.965,6.731,7.348,9.696,7.147c1.474-0.105,2.174-2.245,2.104-6.406
	c3.323,0.285,6.021,0.238,8.093-0.142l0.117-0.05l7.08,0.3l11.446,0.15C376.761,416.475,376.961,415.708,376.261,414.208z"/>
</svg>
