<?xml version="1.0" encoding="utf-8"?>
<!-- Generator: Adobe Illustrator 16.0.0, SVG Export Plug-In . SVG Version: 6.00 Build 0)  -->
<!DOCTYPE svg PUBLIC "-//W3C//DTD SVG 1.1//EN" "http://www.w3.org/Graphics/SVG/1.1/DTD/svg11.dtd">
<svg version="1.1" id="图层_1" xmlns="http://www.w3.org/2000/svg" xmlns:xlink="http://www.w3.org/1999/xlink" x="0px" y="0px"
	 width="192px" height="196px" viewBox="0 0 192 196" enable-background="new 0 0 192 196" xml:space="preserve">
<path d="M190.801,61.088c-1.099-0.699-2.714-1.465-4.845-2.298c-1.83-0.72-3.531-1.283-5.117-1.705
	c1.721-3.503,3.244-7.71,4.567-12.63c0.133-0.466,0.133-0.766,0-0.899s-0.416-0.133-0.849,0c-4.251,1.428-8.261,3.209-12.037,5.333
	c-0.676-3.264-1.242-6.987-1.698-11.177c-0.134-1.199-0.583-1.332-1.35-0.4c-1.365,1.599-2.713,3.863-4.045,6.793
	c-1.127,2.441-2.055,4.988-2.799,7.635c-1.691-2.36-3.309-4.37-4.844-5.986c-0.832-0.866-1.266-0.749-1.299,0.35
	c-0.193,2.753-0.246,7.19-0.156,13.283c-2.191-1.454-4.467-2.581-6.836-3.343l-1.398-0.1c-0.233,0.2-0.117,0.633,0.35,1.298
	l3.446,6.144l3.946,7.492c0.299,0.632,0.033,1.481-0.8,2.547c-3.978,4.844-8.954,11.577-14.91,20.161l-8.461-9.06
	c2.29-1.683,4.262-3.611,5.89-5.806c3.13-4.163,4.878-9.007,5.244-14.535c0.434-6.526-1.049-12.254-4.445-17.182
	c-3.623-5.24-8.601-8.148-14.926-8.737c-1.877-6.912-4.775-12.383-8.697-16.406c1.211-1.338,2.244-3.622,3.095-6.873
	c0.999-3.629,1.099-6.043,0.3-7.243c-0.666-0.965-2.715-1.448-6.145-1.448c-4.262-0.033-9.223,0.882-14.884,2.747
	c-4.163-2.797-9.906-4.329-17.232-4.595C74.272,4.28,69.511,4.913,65.582,6.345c-1.798-1.465-4.129-2.88-6.993-4.246
	c-3.363-1.631-5.528-2.231-6.494-1.798C50.53,1,49.132,3.614,47.9,8.143c-1.199,4.462-1.482,7.758-0.849,9.89
	c0.011,0.038,0.026,0.075,0.038,0.113c-2.866,1.396-5.33,3.418-7.38,6.081c-1.517,1.999-2.636,4.147-3.37,6.441
	c-4.795,1.174-8.774,3.809-11.915,7.944c-3.33,4.396-4.878,9.273-4.645,14.635c0.333,7.759,3.23,13.985,8.691,18.681
	c2.718,2.336,5.667,3.958,8.847,4.869c-2.77,2.424-6.528,6.039-11.294,10.865c-4.429,4.462-8.075,8.292-10.938,11.488
	c-2.397,2.631-4.645,4.295-6.743,4.994l-5.794,1.199c-1.365,0.199-2.181,0.582-2.447,1.148s-0.066,1.35,0.599,2.348
	c0.933,1.432,2.198,2.697,3.796,3.797c1.376,0.945,2.766,1.576,4.166,1.931c0.048,0.755,0.554,1.509,1.528,2.265
	c1.365,1.099,3.18,1.848,5.444,2.248l6.144-0.301c3.263-1.099,7.126-3.063,11.588-5.894c3.814-2.418,7.327-5.003,10.564-7.739
	c0.008,0.533,0.018,1.047,0.025,1.596c0.133,9.357,0.1,15.567-0.1,18.631l-0.45,3.796c-0.167,0.732-0.466,1.332-0.899,1.798
	c-4.129,4.195-7.059,9.357-8.791,15.484c-2.031,7.159-1.332,12.92,2.098,17.281c0.702,0.889,1.495,1.684,2.367,2.398
	c-1.151,0.608-2.405,1.34-3.766,2.197c-1.798,1.133-3.164,2.081-4.096,2.848c-0.965,0.832-1.199,1.614-0.699,2.347
	c0.485,0.714,1.585,1.021,3.291,0.927l-1.343,1.421c-0.533,0.866-0.583,1.632-0.15,2.298c0.433,0.732,1.282,0.965,2.547,0.699
	c2.287-0.458,4.443-1.11,6.484-1.936c-0.746,1.019-1.35,2.046-1.789,3.084c-0.466,1.1-0.466,1.865,0,2.298l2.547,0.149
	c2.031-0.599,4.862-1.664,8.491-3.196c3.996-1.632,6.81-2.964,8.441-3.995c2.192-1.31,2.961-3.323,2.342-6.023
	c0.617-0.187,1.235-0.393,1.854-0.62c3.396-1.266,7.775-2.015,13.136-2.247l16.533,0.849c2.597,0.333,5.277,1.016,8.041,2.048
	c3.164,1.199,5.861,2.664,8.092,4.395c0.892,0.692,1.809,1.291,2.74,1.841c-0.095,2.06,0.67,4.193,2.305,6.401
	c0.966,1.332,2.564,3.18,4.795,5.544c2.331,2.464,4.18,4.245,5.545,5.345c1.998,1.631,3.129,1.315,3.396-0.949
	c0.132-1.088,0.151-2.283,0.063-3.584c2.385,2.049,4.514,3.529,6.381,4.434l2.348,0.1c0.465-0.4,0.565-1.115,0.299-2.148
	c-0.213-0.85-0.485-1.7-0.787-2.551c0.449,0.206,0.933,0.395,1.486,0.553l1.998-0.049c0.366-0.4,0.35-1.082-0.05-2.049
	c-1.515-3.802-3.597-7.254-6.229-10.367c1.222-0.778,2.291-1.726,3.183-2.869c3.163-4.062,4.661-8.924,4.495-14.584
	c-0.199-6.193-2.397-12.305-6.593-18.331c-0.999-1.432-1.749-2.831-2.248-4.196c-0.036-0.087-0.071-0.192-0.106-0.283
	c4.358-7.5,7.381-12.604,9.068-15.311c2.405,1.252,4.605,2.345,6.572,3.258c1.765,0.799,3.846,1.231,6.243,1.298
	c2.564,0.034,4.862-0.383,6.894-1.249c2.031-0.832,4.295-2.147,6.793-3.945c2.53-1.832,4.512-3.613,5.943-5.345
	c0.799-0.966,0.916-1.848,0.35-2.647c-0.502-0.725-1.466-1.095-2.88-1.119c0.399-0.655,0.467-1.282,0.183-1.877
	c-0.366-0.732-1.248-1.216-2.647-1.449l-13.336-1.348c-1.032-0.033-2.098-0.483-3.196-1.35c-0.134-0.104-0.329-0.276-0.555-0.483
	c9.684-14.822,16.09-24.2,19.221-28.141l6.758-0.545c4.494-0.699,7.625-1.432,9.39-2.198l0.649-0.649c0-0.233-0.166-0.466-0.5-0.699
	c-1.495-1.129-3.927-2.543-7.271-4.232c1.645-0.542,3.35-1.191,5.124-1.961c2.697-1.165,4.978-2.364,6.843-3.596
	C191.4,61.904,191.4,61.487,190.801,61.088z M125.417,112.364c0.521,0.311,1.054,0.626,1.6,0.946l-0.854,1.523
	C125.908,113.921,125.659,113.096,125.417,112.364z"/>
</svg>
