<?xml version="1.0" encoding="utf-8"?>
<!-- Generator: Adobe Illustrator 16.0.0, SVG Export Plug-In . SVG Version: 6.00 Build 0)  -->
<!DOCTYPE svg PUBLIC "-//W3C//DTD SVG 1.1//EN" "http://www.w3.org/Graphics/SVG/1.1/DTD/svg11.dtd">
<svg version="1.1" id="图层_1" xmlns="http://www.w3.org/2000/svg" xmlns:xlink="http://www.w3.org/1999/xlink" x="0px" y="0px"
	 width="151px" height="325px" viewBox="0 0 151 325" enable-background="new 0 0 151 325" xml:space="preserve">
<path d="M148.596,17.161c0.567-0.867,0.351-1.301-0.65-1.301c-4.329,0-8.431,0.636-12.31,1.892
	c0.262-5.88,0.904-11.437,1.954-16.651c0.133-0.567,0.066-0.917-0.201-1.05c-0.267-0.167-0.666-0.067-1.2,0.3
	c-3.269,2.201-6.054,4.619-8.355,7.254c-1.335,1.522-2.877,3.599-4.618,6.211c-1.06-2.963-2.105-5.464-3.137-7.462
	c-0.334-0.667-0.768-0.667-1.301,0c-1.734,2.368-3.085,4.803-4.053,7.305c-0.815,2.144-1.457,4.733-1.944,7.724
	c-1.279-1.765-2.961-3.062-5.06-3.872c-0.467-0.2-0.801-0.2-1,0c-0.168,0.167-0.168,0.467,0,0.901
	c1.1,3.068,2.434,9.639,4.002,19.712l2.301,16.41c1.001,8.038,1.502,17.794,1.502,29.268c-0.033,11.707-0.601,24.065-1.701,37.073
	c-2.909,34.783-9.071,63.798-18.467,87.083c-1.705-12.634-3.321-26.294-4.848-41.005c-3.054-29.198-4.586-51.994-4.601-68.417
	c1.778-0.183,3.562-0.535,5.351-1.076c4.503-1.401,8.172-3.719,11.007-6.954c3.169-3.602,4.853-7.972,5.054-13.108
	c0.199-5.337-1.084-9.806-3.853-13.409c-2.374-3.101-5.553-5.199-9.517-6.318c0.188-2.209-0.025-4.63-0.689-7.29
	c-0.834-3.269-2.085-5.787-3.753-7.554c0.867-5.47,1.218-9.389,1.051-11.757c-0.134-1.701-0.517-2.885-1.151-3.552
	c-0.699-0.734-1.867-1.067-3.502-1c-2.334,0.133-4.886,0.517-7.654,1.15c-1.898,0.44-3.635,0.949-5.228,1.518
	c-4.26-1.817-8.951-2.847-14.084-3.068c-5.47-0.267-10.473,0.45-15.009,2.151c-3.469-2.501-6.687-4.286-9.656-5.354
	c-1.868-0.7-3.302-0.8-4.303-0.3c-1.101,0.533-1.801,1.768-2.101,3.702c-0.498,3.426-0.628,7.603-0.399,12.511
	c-1.583,1.543-2.952,3.656-4.104,6.351c-1.245,2.977-1.967,5.982-2.216,9.014c-3.598,0.403-6.716,1.825-9.341,4.294
	c-3.869,3.669-5.653,8.838-5.353,15.509c0.4,8.338,4.603,14.375,12.607,18.111c3.436,1.634,7.038,2.451,10.807,2.451
	c0.989,0.009,1.951-0.039,2.885-0.14c-0.728,7.037-2.268,16.31-4.636,27.857c-0.502,2.423-1.008,4.794-1.518,7.12
	c-6.193,4.18-11.202,9.931-14.993,17.295c-3.936,7.705-5.703,15.376-5.303,23.015c0.134,2.367,0.684,4.019,1.651,4.953
	c0.967,0.934,2.535,1.283,4.703,1.05c0.349-0.039,0.691-0.09,1.035-0.138l-5.788,16.197c-5.637,15.877-7.805,30.286-6.504,43.227
	c1.654,16.17,8.581,31.889,20.751,47.158c0.391,2.827,0.651,5.413,0.762,7.727c0.1,2.901-0.05,4.669-0.45,5.303
	c-0.467,0.701-2.885,2.401-7.254,5.104c-4.002,2.468-5.937,4.119-5.804,4.953c0.067,0.566,0.534,0.983,1.401,1.25l1.707,0.127
	c-0.238,0.252-0.478,0.503-0.706,0.773c-1.434,1.668-1.935,2.919-1.501,3.753c0.367,0.7,1.785,0.8,4.253,0.3
	c1.414-0.317,2.81-0.734,4.188-1.247c-0.094,0.134-0.195,0.262-0.286,0.397c-1.434,2.101-1.801,3.469-1.101,4.102
	c0.8,0.701,3.835,0.217,9.105-1.451c3.402-1.1,7.087-2.467,11.057-4.102c1.701-0.701,2.418-2.002,2.151-3.902
	c-0.534-3.902-0.567-8.405-0.1-13.509c0.417-4.417,1.08-7.823,1.982-10.25c0.157-0.138,0.312-0.265,0.469-0.406
	c2.148-1.917,3.975-3.766,5.517-5.556c1.713,2.104,3.573,3.96,5.59,5.556c1.801,1.367,2.885,2.385,3.252,3.052
	c0.97,1.94,1.449,4.491,1.45,7.634l-2.101,8.075c-0.834,2.669-1.584,4.453-2.251,5.354l-8.706,7.705
	c-4.836,4.036-7.154,6.454-6.954,7.254c0.167,0.734,1.067,1.185,2.702,1.352l3.268-0.148c-0.472,1.037-0.551,1.775-0.216,2.199
	c0.567,0.734,2.168,0.768,4.803,0.101c1.69-0.409,3.311-0.959,4.868-1.636c-0.112,0.571-0.058,1.021,0.185,1.336
	c0.768,0.967,3.102,1.066,7.004,0.3c3.436-0.667,6.154-1.501,8.155-2.501l1.701-1.201c0.434-0.601,0.633-1.435,0.6-2.502
	c-0.2-5.403,0.45-10.773,1.951-16.109c1.161-4.146,2.763-7.976,4.793-11.502c0.925-0.726,1.909-1.604,2.962-2.657
	c7.805-7.805,13.358-15.075,16.66-21.813c1.867-3.836,3.035-7.871,3.502-12.107c0.277-2.728,0.278-5.669,0.012-8.818
	c14.784-29.193,24.313-60.138,28.557-92.844c1.967-15.443,2.901-32.437,2.801-50.981c-0.1-13.108-0.801-30.002-2.102-50.682
	c-0.033-0.667,0.034-1.167,0.201-1.501c0.199-0.4,0.666-0.85,1.4-1.351c2.969-1.968,5.871-4.203,8.705-6.704
	c3.169-2.769,5.637-5.354,7.404-7.755c0.768-1,0.635-1.501-0.399-1.501c-2.847-0.164-5.408-0.601-7.716-1.282
	C141.921,26.647,145.243,22.43,148.596,17.161z"/>
</svg>
