<?xml version="1.0" encoding="utf-8"?>
<!-- Generator: Adobe Illustrator 16.0.0, SVG Export Plug-In . SVG Version: 6.00 Build 0)  -->
<!DOCTYPE svg PUBLIC "-//W3C//DTD SVG 1.1//EN" "http://www.w3.org/Graphics/SVG/1.1/DTD/svg11.dtd">
<svg version="1.1" id="图层_1" xmlns="http://www.w3.org/2000/svg" xmlns:xlink="http://www.w3.org/1999/xlink" x="0px" y="0px"
	 width="155px" height="212px" viewBox="0 0 155 212" enable-background="new 0 0 155 212" xml:space="preserve">
<path d="M152.251,23.703c-1.266-0.933-4.081-1.266-8.444-1c-4.997,0.367-10.326,1.533-15.99,3.498
	c-15.211,5.307-27.788,14.731-37.748,28.245c-0.943-0.393-1.922-0.773-2.926-1.144c1.449-3.382,2.634-6.935,3.549-10.662
	c1.799-7.362,1.632-11.559-0.5-12.592c-1.433-0.699-3.914-0.383-7.445,0.95c-3.73,1.432-7.445,3.581-11.143,6.446
	c-4.82,3.74-8.507,7.753-11.063,12.04c1.166-11.003-0.188-22.145-4.077-33.426c-1.632-4.73-3.448-8.595-5.446-11.593
	c-1.965-2.931-3.681-4.414-5.147-4.447c-1.832-0.034-4.314,1.765-7.445,5.396c-3.231,3.764-6.18,8.361-8.845,13.791
	c-6.192,12.623-8.208,23.951-6.072,33.993c-1.349-1.028-3.102-1.884-5.27-2.563c-2.732-0.866-4.48-0.949-5.247-0.25
	c-0.7,0.6-0.966,1.616-0.8,3.048c0.12,1.007,0.419,1.988,0.884,2.943c-0.916,0.009-1.801,0.052-2.633,0.155
	c-3.131,0.367-5.063,1.366-5.796,2.998c-0.833,1.899,1.116,5.397,5.846,10.494c3.494,3.773,6.845,6.81,10.057,9.128
	c-0.053-0.009-0.11-0.026-0.163-0.035c-2.798-0.466-4.53,0-5.197,1.399c-0.533,1.199,0.017,2.698,1.649,4.497
	c0.47,0.511,0.98,0.977,1.51,1.422l-4.757-0.223c-2.332,0.366-3.648,1.116-3.948,2.249c-0.433,1.432,0.816,3.598,3.748,6.496
	c0.57,0.57,1.149,1.102,1.732,1.613c-3.021-0.706-5.98-0.949-8.878-0.714c-3.697,0.333-5.746,1.316-6.146,2.948
	c-0.699,2.898,1.133,6.246,5.497,10.043c3.974,3.438,8.039,5.605,12.191,6.535c-2.384,1.812-4.732,4.159-7.044,7.057
	c-3.265,4.098-4.564,6.979-3.898,8.645c0.7,1.732,3.248,2.299,7.646,1.699c3.376-0.486,6.229-1.374,8.577-2.649
	c-0.877,1.489-1.594,3.147-2.131,4.997c-1.1,3.697-1.166,6.18-0.2,7.445l5.646,0.15c2.757-0.652,5.305-1.611,7.667-2.845
	c-0.369,2.262-0.571,4.463-0.571,6.592c0.01,1.039,0.076,1.944,0.186,2.743c-1.308,0.376-2.571,0.796-3.79,1.26
	c-0.569-1.098-1.514-2.05-2.842-2.854c-1.432-0.866-2.865-1.166-4.297-0.899c-1.195,0.203-2.156,0.769-2.885,1.69
	c-1.112-0.282-2.348-0.116-3.71,0.508c-0.37,0.163-0.705,0.349-1.012,0.553c-2.232,0.143-4.011,1.372-5.334,3.695
	c-1.532,2.731-1.849,5.996-0.949,9.793c0.833,3.498,2.565,6.113,5.197,7.846c1.545,1.001,3.077,1.546,4.594,1.651
	c0.671,1.155,1.674,2,3.051,2.495l4.697,0.101c3.525-1.156,4.977-3.645,4.366-7.46c2.749,1.173,6.234,2.029,10.474,2.563l9.78,0.271
	c0.502,0.687,1.037,1.357,1.597,2.018c-0.456,0.394-0.9,0.861-1.333,1.409c-1.965,2.498-2.731,5.663-2.298,9.493
	c0.466,3.898,1.899,6.945,4.297,9.145c2.101,1.942,4.587,2.914,7.448,2.939c2.115,2.705,4.791,3.342,8.042,1.857
	c3.209-1.419,4.536-3.795,4.029-7.101c1.458-0.494,2.636-1.406,3.535-2.731c2.847,3.212,5.648,5.718,8.401,7.518
	c-1.33,2.164-1.234,4.119,0.325,5.862c1.365,1.561,2.955,2.01,4.765,1.379c0.153,1.488,0.857,2.78,2.13,3.868
	c1.368,1.167,2.846,1.549,4.433,1.158c0.468,0.28,1.002,0.482,1.614,0.59c2.04,0.346,3.66-0.373,4.873-2.128
	c0.678-0.084,1.286-0.485,1.822-1.22c0.566-0.799,0.899-1.916,1-3.348c0.097-1.096,0.058-2.273-0.112-3.529
	c0.256-0.538,0.395-1.143,0.411-1.817c0.033-1.3-0.365-2.382-1.199-3.248c-0.61-0.61-1.34-0.946-2.165-1.057l-0.87-2.914
	c1.117-0.079,2.243-0.181,3.376-0.303c1.049,1.196,2.149,2.614,3.308,4.273c1.714,2.476,3.365,5.153,4.958,8.022
	c-0.326,0.365-0.564,0.821-0.711,1.371c-0.399,1.5,0.101,2.799,1.499,3.898c0.766,0.6,1.699,0.883,2.799,0.85
	c0.65,0,1.247-0.117,1.799-0.326c0.33,0.6,0.8,1.092,1.425,1.464c0.361,1.432,1.333,2.453,2.922,3.06
	c1.381,0.547,2.536,0.587,3.469,0.135c0.497,0.215,1.051,0.345,1.678,0.364c1.794,0.06,3.106-0.612,3.939-2.008
	c1.252-0.048,2.207-1.039,2.856-2.989c0.538-1.641,0.611-3.282,0.237-4.924c0.593-0.826,0.887-1.78,0.862-2.871
	c-0.033-1.498-0.65-2.682-1.85-3.547c-0.932-0.699-2.08-1.048-3.436-1.063c-1.467-11.983-3.97-21.623-7.502-28.938
	c2.674-0.125,5.153-0.817,7.439-2.078c2.466-1.398,3.564-2.781,3.299-4.146c-0.167-0.834-1.1-1.383-2.799-1.649
	c-0.086-0.014-0.172-0.013-0.259-0.024c3.341-2.204,6.08-5.733,8.204-10.619c2.198-4.963,2.648-7.878,1.35-8.744
	c-0.733-0.433-2.166-0.449-4.298-0.05c-2.299,0.433-4.714,1.282-7.245,2.548c-3.963,1.952-7.248,4.422-9.895,7.381
	c-1.269-0.586-3.606-1.115-7.045-1.584l-7.336-0.325c0.525-1.488,0.461-3.921-0.209-7.319c-0.161-0.819-0.339-1.6-0.526-2.357
	c3.243-1.975,6.136-4.605,8.68-7.886c1.356-0.322,2.719-0.695,4.089-1.149c6.229-2.1,9.428-4.348,9.594-6.746
	c0.146-2.133-2.144-4.201-6.865-6.206c1.802-6.324,2.341-12.963,1.616-19.919c3.77-0.912,7.926-2.32,12.494-4.256
	c8.261-3.498,12.343-6.512,12.242-9.044c-0.066-1.299-1.599-2.232-4.597-2.798c-2.409-0.43-4.844-0.467-7.302-0.157
	c6.358-7.532,11.626-17.784,15.796-30.773c1.865-5.863,3.048-10.993,3.548-15.39C153.816,27.284,153.45,24.603,152.251,23.703z
	 M115.064,153.635c-0.451-0.392-0.912-0.76-1.38-1.111l2.462-0.812C115.763,152.335,115.404,152.978,115.064,153.635z
	 M124.395,210.086l0.18,0.012C124.515,210.094,124.455,210.096,124.395,210.086z"/>
</svg>
