<?xml version="1.0" encoding="utf-8"?>
<!-- Generator: Adobe Illustrator 16.0.0, SVG Export Plug-In . SVG Version: 6.00 Build 0)  -->
<!DOCTYPE svg PUBLIC "-//W3C//DTD SVG 1.1//EN" "http://www.w3.org/Graphics/SVG/1.1/DTD/svg11.dtd">
<svg version="1.1" id="图层_1" xmlns="http://www.w3.org/2000/svg" xmlns:xlink="http://www.w3.org/1999/xlink" x="0px" y="0px"
	 width="296px" height="325px" viewBox="0 0 296 325" enable-background="new 0 0 296 325" xml:space="preserve">
<path d="M293.896,243.426c-2.2-6.103-7.636-14.154-16.306-24.158c-9.236-10.604-17.438-17.789-24.607-21.557
	c-1.812-10.467-6.24-18.907-13.282-25.323c8.834-3.598,16.996-12.512,24.485-26.743c3.068-5.835,5.219-11.17,6.453-16.005
	c1.267-4.801,1.217-7.519-0.15-8.152c-2.201-1-5.568,1-10.104,6.001c-0.811,0.893-1.566,1.803-2.298,2.72
	c2.44-8.001,4.573-20.1,6.399-36.331c2.234-20.139,1.834-30.459-1.2-30.959c-1.301-0.2-4.001,2.468-8.103,8.002
	c-4.635,6.202-9.07,13.654-13.305,22.357c-11.675,23.743-17.433,47.133-17.306,70.173c-5.037-1.72-10.47-2.542-16.304-2.452
	l-32.211,2.601l-30.759,2.45l-4.702-0.399c-1.134-0.267-2.201-0.733-3.201-1.4c-2.419-1.693-5.032-3.982-7.834-6.854
	c2.052-1.345,4.18-3.008,6.384-5c4.468-4.035,6.318-6.702,5.552-8.002c-0.5-0.833-1.817-1.167-3.951-1
	c-0.993,0.069-2.019,0.235-3.075,0.487c2.507-2.421,5.114-5.312,7.826-8.689c5.635-7.036,7.719-11.27,6.252-12.704
	c-1.301-1.233-5.118-0.983-11.454,0.75c-4.576,1.256-8.37,2.745-11.411,4.457c0.428-4.036,0.328-8.61-0.296-13.721
	c9.396-5.9,17.786-16.404,25.161-31.549c3.268-6.769,5.602-13.021,7.002-18.756c1.334-5.568,1.367-8.753,0.101-9.553
	c-1.101-0.667-3.518,0.217-7.252,2.651c-2.123,1.358-3.996,2.762-5.673,4.201c3.5-10.281,6.215-22.385,8.123-36.361
	c2.102-15.405,1.852-23.574-0.75-24.508c-1.667-0.6-4.834,0.867-9.503,4.401c-4.935,3.735-10.203,8.803-15.805,15.205
	c-14.264,16.334-24.761,34.227-31.509,53.671c-0.372-0.197-0.758-0.391-1.166-0.58c0.521-2.549,0.936-5.275,1.215-8.227
	c0.867-9.003,0.367-13.738-1.5-14.205c-1.201-0.333-2.651,0.383-4.352,2.151c-0.837,0.87-1.589,1.842-2.258,2.915
	c0.717-7.497,0.646-15.069-0.243-22.721c-1.3-11.237-3.451-16.889-6.452-16.956c-1.867-0.066-3.918,2.484-6.152,7.652
	c-2.167,5.035-4.068,11.504-5.702,19.406c-1.953,9.532-3.087,18.474-3.402,26.827c-2.632,0.415-4.933,1.023-6.903,1.825
	C52.71,54.623,43.708,38.603,31.365,23.407C26.063,16.905,21.062,11.771,16.36,8.003c-4.602-3.701-7.919-5.302-9.953-4.802
	c-1.534,0.4-2.601,3.518-3.201,9.353c-0.601,5.802-0.567,12.604,0.1,20.406c1.253,14.96,3.976,26.699,8.167,35.218
	c-1.814-1.211-3.635-2.14-5.466-2.758c-2.567-0.833-4.352-0.833-5.352,0c-0.767,0.633-0.55,2.717,0.65,6.252
	c1.234,3.568,3.084,7.552,5.552,11.954c5.623,9.826,11.499,16.776,17.625,20.857c-0.535,2.771-0.931,5.859-1.17,9.302
	c-0.312,4.024-0.313,7.427-0.012,10.226c-3.059-1.622-7.015-2.982-11.892-4.074c-6.368-1.467-10.036-1.667-11.003-0.6
	c-1.067,1.167,0.934,5.035,6.001,11.604c4.456,5.767,8.365,9.764,11.727,11.995l-4.625-0.241c-3.301,0.367-5.202,1.184-5.702,2.451
	c-0.5,1.3,0.784,3.184,3.852,5.652c2.731,2.262,5.566,3.875,8.505,4.842c-1.763,2.564-3.438,5.305-5.004,8.261
	c-3.901,7.369-6.686,14.838-8.353,22.407c-1.534,6.868-1.684,11.12-0.45,12.754c1,1.333,5.568-0.601,13.704-5.802
	c7.005-4.501,12.532-8.894,16.618-13.182c-0.673,2.132-1.246,4.405-1.713,6.83c-0.925,4.827-0.995,7.947-0.219,9.373
	c-2.52,3.786-4.416,6.832-5.683,9.133c-2.334,4.134-3.751,7.635-4.251,10.502c-0.133,0.867,0.017,1.451,0.45,1.751l1.801-0.149
	c5.713-2.693,10.71-4.654,15.001-5.897c-2.571,5.108-4.297,11.196-5.149,18.301c-0.9,7.636-0.7,14.771,0.601,21.407
	c0.133,0.6,0.383,0.967,0.75,1.1l1.25-0.25c3.401-2.033,6.652-4.785,9.753-8.252c1.452-1.646,2.695-3.24,3.743-4.783
	c0.32,4.651,1.059,9.507,2.259,14.586c1.534,6.402,3.268,10.604,5.202,12.604l2.101-0.05c1.181-1.182,2.243-2.733,3.198-4.617
	c1.061,1.729,1.414,4.115,1.053,7.168c-1.101,10.47-2.218,17.139-3.351,20.006c-1.601,3.935-3.535,6.235-5.802,6.902
	c-4.835,1.468-8.053,3.534-9.653,6.202c-1.567,2.533-1.434,5.234,0.4,8.103c1.7,2.667,5.918,4.534,12.654,5.602
	c5.602,0.866,10.203,0.983,13.804,0.351c1.467-0.301,2.651-0.717,3.551-1.251c0.9-0.5,1.75-1.251,2.551-2.251
	c6.702-8.202,11.587-17.238,14.654-27.107c2.68-8.646,3.77-17.309,3.305-25.984c0.505,0.078,0.999,0.136,1.479,0.171
	c1.224,1.691,2.623,3.473,4.219,5.356c0.533,0.667,0.9,1.384,1.1,2.15l0.3,2.602c0.066,3.701-0.25,7.969-0.95,12.804
	c-0.8,5.735-1.934,10.386-3.401,13.954c-2,4.969-4.368,7.736-7.102,8.303c-3.101,0.6-5.385,2.15-6.852,4.651
	c-1.601,2.733-1.334,5.435,0.8,8.103c1.267,1.601,3.601,2.951,7.002,4.051c3.535,1.135,7.269,1.684,11.204,1.65
	c10.003-0.133,16.688-3.75,20.056-10.854c3.167-6.668,5.968-13.387,8.402-20.156c2.245-6.285,3.921-11.946,5.037-16.996
	c3.831,3.313,7.504,5.728,11.019,7.244c1.1,0.5,1.7,0.133,1.8-1.101c0.568-9.236,0.545-17.77-0.048-25.626
	c4.229,3.799,9.138,7.547,14.735,11.244c1.422,2.011,2.591,4.021,3.468,6.029c1.201,2.834,1.768,5.401,1.701,7.702
	c-0.233,6.936-0.65,12.221-1.25,15.854c-0.268,1.602-0.701,2.718-1.301,3.352c-0.533,0.533-1.334,0.9-2.4,1.1
	c-2.668,0.534-4.752,1.668-6.252,3.402c-1.4,1.6-2.117,3.5-2.15,5.701c-0.067,2.134,0.566,3.918,1.9,5.352
	c1.934,2,5.251,3.185,9.953,3.551c6.936,0.567,11.687,0.451,14.254-0.35c3.602-1.201,5.969-3.185,7.102-5.952
	c4.869-12.171,8.986-21.706,12.354-28.608c1.93-3.95,2.836-8.365,2.729-13.24c5.149,3.669,10.045,6.56,14.676,8.639
	c1.033,0.5,1.584,0.2,1.65-0.9c0.06-0.671,0.107-1.34,0.163-2.01c0.622,0.948,1.327,1.871,2.138,2.76l3.901,3.752
	c1.233,1.133,2.101,2.15,2.601,3.051c0.667,1.166,1.033,2.601,1.101,4.301l0.05,9.604c-0.133,1.5-0.483,2.65-1.051,3.451
	c-0.566,0.767-1.55,1.45-2.95,2.051c-1.834,0.8-3.284,2.084-4.352,3.851c-1.101,1.733-1.584,3.585-1.45,5.552
	c0.199,3.034,2.117,5.268,5.752,6.702c2.133,0.833,4.718,1.351,7.752,1.55c8.236,0.668,13.704-0.033,16.404-2.1
	c2.035-1.534,3.802-3.535,5.303-6.002c1.667-2.768,2.533-5.419,2.601-7.953l0.75-15.305c0.467-7.77,0.851-13.204,1.15-16.305
	c0.233-2.268,0.167-4.102-0.2-5.502c-0.334-1.367-1.017-2.467-2.051-3.301c-1.063-0.905-2.011-1.773-2.883-2.617
	c3.742,1.164,7.139,1.772,10.186,1.816c1,0.066,1.417-0.366,1.25-1.3c-1.167-6.603-3.034-13.438-5.602-20.507
	c-0.314-0.868-0.635-1.717-0.959-2.555c3.871,1.03,8.408,1.883,13.613,2.555l15.354,0.851
	C293.846,244.942,294.229,244.426,293.896,243.426z"/>
</svg>
