<?xml version="1.0" encoding="utf-8"?>
<!-- Generator: Adobe Illustrator 16.0.0, SVG Export Plug-In . SVG Version: 6.00 Build 0)  -->
<!DOCTYPE svg PUBLIC "-//W3C//DTD SVG 1.1//EN" "http://www.w3.org/Graphics/SVG/1.1/DTD/svg11.dtd">
<svg version="1.1" id="图层_1" xmlns="http://www.w3.org/2000/svg" xmlns:xlink="http://www.w3.org/1999/xlink" x="0px" y="0px"
	 width="402px" height="347px" viewBox="0 0 402 347" enable-background="new 0 0 402 347" xml:space="preserve">
<path d="M399.835,56.467c1-4.397,1.033-6.879,0.101-7.446c-2.065-1.266-9.128,3.131-21.188,13.192
	c-0.625,0.521-1.235,1.039-1.843,1.555c0.016-0.45,0.006-0.901-0.056-1.355c-0.167-1.232-0.55-1.965-1.149-2.199
	c-1.149-0.413-2.783,0.157-4.897,1.7c4.228-11.327,6.477-24.239,6.696-38.778c0.101-6.363-0.267-11.693-1.1-15.991
	c-0.866-4.331-2.031-6.696-3.497-7.096c-1.333-0.367-3.731,1.033-7.196,4.197c-3.598,3.265-7.313,7.479-11.144,12.643
	c-8.98,12.074-14.702,23.664-17.19,34.771c-2.882-6.787-6.725-13.828-11.543-21.128c-3.998-6.03-7.813-10.86-11.443-14.492
	c-3.698-3.665-6.33-5.23-7.896-4.697c-2.332,0.833-2.382,9.461-0.15,25.885c1.983,14.53,4.479,25.898,7.488,34.119
	c-6.616-5.546-13.907-10.217-21.877-14.006c-6.202-12.489-17.403-25.04-33.634-37.652c-6.596-5.13-12.692-9.145-18.289-12.043
	c-5.43-2.865-8.861-3.881-10.294-3.048c-1.433,0.833-1.732,4.364-0.899,10.594c0.866,6.53,2.731,13.759,5.597,21.688
	c6.012,16.816,13.777,29.83,23.283,39.067c-1.118-0.142-2.311-0.196-3.595-0.14c-2.598,0.1-4.098,0.633-4.497,1.599
	c-0.5,1.199,0.249,3.131,2.249,5.796c2.031,2.665,4.813,5.447,8.345,8.345c7.383,6.04,14.67,10.089,21.865,12.162
	c-2.276,2.508-4.568,6.238-6.874,11.225c-2.381,5.154-3.798,9.688-4.27,13.614c-5.206-3.233-12.123-6.107-20.766-8.617
	c-10.961-3.165-17.074-3.615-18.34-1.349c-0.866,1.599,2.648,5.014,10.544,10.244c5.04,3.319,8.922,5.957,11.668,7.925
	c-4.652-0.071-9.241,0.535-13.767,1.819c-4.896,1.433-7.346,2.865-7.346,4.297c0,1.766,4.031,3.814,12.093,6.146
	c1.409,0.409,2.771,0.768,4.112,1.104c-8.919,1.826-21.831,2.009-38.742,0.546c-17.19-1.466-33.214-4.048-48.072-7.746
	c-17.029-4.217-33.167-4.117-48.418,0.275c-8.267-9.268-22.44-16.473-42.53-21.613c-8.128-2.065-15.474-3.298-22.037-3.698
	c-6.363-0.367-9.895,0.15-10.594,1.549c-1.166,2.432,3.265,7.496,13.292,15.191c5.889,4.521,11.266,8.113,16.14,10.793
	c-2.44-0.171-4.729-0.098-6.845,0.25c-2.898,0.5-4.414,1.299-4.547,2.399c-0.2,1.766,3.215,4.364,10.244,7.795
	c5.958,2.923,11.184,4.784,15.699,5.614c-4.043,4.251-7.553,9.1-10.502,14.575c-5.997,11.093-11.327,24.436-15.991,40.026
	c-4.131,13.659-6.929,26.102-8.395,37.329c-0.206,1.531-0.636,2.834-1.265,3.936c-5.644,0.064-13.581,1.749-23.82,5.059
	c-9.761,3.131-16.891,6.063-21.388,8.795c-0.7,0.434-1.016,0.883-0.95,1.35c0.033,0.466,0.45,0.865,1.25,1.199
	c4.031,1.465,9.478,2.631,16.34,3.498l19.089,1.199c-5.83,2.799-10.36,5.713-13.592,8.744c-0.733,0.7-1.016,1.267-0.85,1.699
	c0.2,0.434,0.816,0.633,1.849,0.6c6.463-0.199,11.859,0.233,16.19,1.3c-4.931,3.498-9.628,7.662-14.092,12.493
	c-4.264,4.631-7.246,8.678-8.945,12.143c-0.333,0.699-0.417,1.199-0.25,1.499c0.2,0.333,0.75,0.466,1.649,0.399
	c3.998-0.366,8.679-1.349,14.042-2.947c3.458-1.023,6.597-2.11,9.431-3.258c-1.059,1.735-1.783,3.471-2.135,5.206
	c-0.152,0.712-0.138,1.207,0.04,1.492c-0.564,3.12-0.698,5.974-0.389,8.552c0.333,2.965,1.232,5.348,2.698,7.146
	c1.133,1.398,2.898,2.481,5.297,3.248c1.759,0.553,3.575,0.848,5.447,0.89c1.065,0.592,3.125,0.979,6.197,1.159l8.545-0.25
	c0.243-0.03,0.442-0.087,0.609-0.164l6.237,0.264l6.496-0.25l0.85-0.35v-0.899c-0.083-0.366-0.203-0.724-0.312-1.084l3.46,0.335
	l4.547-0.101c0.933-0.134,1.299-0.616,1.1-1.449c-0.667-2.465-1.999-4.931-3.998-7.396c-1.529-1.925-2.899-3.171-4.115-3.76
	c-0.769-2.02-1.697-3.773-2.783-5.263c1.696,0.126,3.241,0.188,4.625,0.18c-1.091,1.349-1.548,2.453-1.324,3.296
	c0.433,1.699,3.548,3.265,9.345,4.697c3.255,0.809,6.246,1.308,8.988,1.515c-1.729,1.786-3.14,3.946-4.191,6.53
	c-1.132,2.732-1.449,4.548-0.949,5.447c0.866,1.533,4.181,1.932,9.944,1.199c5.463-0.699,9.961-1.916,13.492-3.647
	c8.329,0.899,21.771,1.249,40.327,1.05l48.522-1.8c0.615-0.044,1.223-0.104,1.833-0.156c1.926,2.462,4.378,4.447,7.361,5.953
	c2.646,1.362,4.884,1.898,6.728,1.633c1.197,0.405,3.063,0.811,5.615,1.216l8.545,0.949c0.844,0,1.221-0.35,1.146-1.037l5.1,0.637
	l6.496,0.15c0.634-0.033,1.033-0.166,1.2-0.399c0.1-0.233,0.033-0.616-0.2-1.149c-0.106-0.266-0.226-0.527-0.338-0.791l9.783,0.541
	c1.032,0,1.315-0.533,0.849-1.6c-0.733-1.732-1.832-3.747-3.298-6.046c-1.169-1.819-2.205-3.237-3.111-4.267
	c0.045-1.235-0.363-2.76-1.236-4.578c-0.734-1.536-1.578-2.853-2.517-3.979c1.934-1.089,3.839-2.243,5.715-3.467
	c1.11-0.728,2.171-1.462,3.201-2.202c0.73,3.142,1.828,6.514,3.345,10.147c1.732,4.197,3.266,6.929,4.598,8.195l1.799,0.1
	c1.933-1.5,4.131-4.647,6.596-9.445c1.693-3.383,3.195-6.89,4.529-10.504c1.088,3.583,2.539,7.02,4.366,10.305
	c3.397,6.129,7.362,10.193,11.894,12.193c0.766,0.332,1.365,0.1,1.799-0.7c1.832-3.099,3.131-7.413,3.897-12.942
	c0.074-0.541,0.135-1.075,0.194-1.609c0.813,1.936,1.646,3.667,2.504,5.157c1.833,3.231,4.015,5.964,6.547,8.195
	c1.032,0.933,1.732,0.749,2.099-0.55c0.45-1.607,0.884-3.666,1.3-6.151c1.796,3.165,4.928,5.689,9.443,7.551
	c5.306,2.134,11.063,2.729,17.261,1.821c1.009,0.373,2.594,0.551,4.777,0.527l7.346-0.75c0.866-0.199,1.116-0.732,0.749-1.599
	c-0.126-0.301-0.274-0.588-0.411-0.882l4.459,0.282l4.598-0.3c0.933-0.167,1.166-0.699,0.699-1.6
	c-0.249-0.497-0.513-0.974-0.777-1.447c1.149,0.077,2.292,0.064,3.426-0.052c1.1-0.133,1.416-0.699,0.949-1.698
	c-0.933-2.1-2.332-4.231-4.197-6.396c-0.977-1.131-1.892-1.997-2.751-2.631c-0.018-2.02-1.68-3.976-4.994-5.865
	c-2.753-1.568-5.584-2.528-8.494-2.888c0.696-5.148,1.082-10.323,1.163-15.526c1.495,2.43,3.423,4.97,5.781,7.621
	c3.731,4.197,7.279,7.246,10.645,9.145l1.449,0.25c0.366-0.166,0.533-0.6,0.499-1.299c-0.267-4.998-1.032-10.229-2.298-15.691
	c-1.192-4.994-2.646-9.407-4.358-13.244c2.559,0.111,5.254,0.531,8.105,1.301l1.55-0.15c0.267-0.299,0.216-0.815-0.15-1.549
	c-1.027-2.208-2.343-4.522-3.925-6.937c1.354-1.093,2.829-2.511,4.425-4.257c2.266-2.498,3.931-4.764,4.997-6.796
	c0.966-1.866,1.615-3.531,1.949-4.997c0.266-1.366,0.399-3.332,0.399-5.896c0-5.23-0.35-12.51-1.05-21.838
	c-0.666-8.994-1.365-16.224-2.099-21.688c-0.333-2.564-0.25-5.014,0.25-7.346c0.399-1.898,1.232-4.264,2.499-7.096
	c1.132-2.531,3.764-7.329,7.895-14.392l6.896-11.893c1.966-3.698,2.998-7.396,3.099-11.094c0.1-3.198-0.483-6.863-1.749-10.994
	c-1.633-5.497-5.78-14.559-12.443-27.185c-0.833-1.565-1.865-2.665-3.098-3.298c-1.267-0.667-2.832-0.85-4.697-0.55
	c-0.218,0.035-0.448,0.083-0.67,0.121c-0.405-2.982-0.994-5.789-1.768-8.42c3.94-2.104,7.703-4.695,11.282-7.792
	c3.364-2.932,5.863-5.747,7.495-8.445c1.566-2.599,1.866-4.281,0.899-5.047l-5.097,0.25c-1.457,0.406-2.817,0.913-4.101,1.502
	c4.044-5.144,7.86-11.851,11.446-20.141C397.137,65.878,398.836,60.898,399.835,56.467z"/>
</svg>
