<?xml version="1.0" encoding="utf-8"?>
<!-- Generator: Adobe Illustrator 16.0.0, SVG Export Plug-In . SVG Version: 6.00 Build 0)  -->
<!DOCTYPE svg PUBLIC "-//W3C//DTD SVG 1.1//EN" "http://www.w3.org/Graphics/SVG/1.1/DTD/svg11.dtd">
<svg version="1.1" id="图层_1" xmlns="http://www.w3.org/2000/svg" xmlns:xlink="http://www.w3.org/1999/xlink" x="0px" y="0px"
	 width="146px" height="197px" viewBox="0 0 146 197" enable-background="new 0 0 146 197" xml:space="preserve">
<path d="M144.352,82.716c-0.432-0.632-1.545-0.931-3.34-0.898c-4.92,0.034-10.023,1.097-15.309,3.191
	c-6.648,2.626-11.867,6.366-15.656,11.219c-8.424,10.83-11.109,20.812-8.099,29.955c0.042,0.778,0.094,1.562,0.169,2.357
	c0.102-0.294,0.22-0.602,0.35-0.918c0.188,0.474,0.378,0.947,0.599,1.416c0.632-1.828,1.729-4.088,3.291-6.781
	c1.662-2.793,3.274-5.103,4.837-6.932c-0.166,1.396-0.1,2.644,0.199,3.74c0.299,1.064,0.631,1.098,0.997,0.1
	c0.3-0.83,1.081-2.26,2.344-4.288c-0.267,2.56,0.017,7.13,0.848,13.712c0.897,7.148,1.329,11.502,1.296,13.064
	c-0.1,6.648-2.643,12.815-7.629,18.5c-4.545,5.163-9.702,8.36-15.455,9.641c0.132-3.812-0.412-7.476-1.648-10.987
	c-2.359-6.814-7.379-13.363-15.059-19.646c-8.343-6.882-14.31-13.264-17.9-19.148c-3.589-5.86-5.421-12.113-5.51-18.755
	c2.013-0.278,4.175-0.606,6.507-0.991l16.256-2.892l28.771-4.438c1.795-0.266,1.247-1.063-1.645-2.393
	c-0.664-0.306-3.044-1.26-7.129-2.856l3.389-0.136c2.16-0.631,2.626-1.163,1.396-1.595c-2.76-0.931-4.837-2.211-6.233-3.84
	c-1.396-1.629-2.261-3.806-2.593-6.532c-0.798-6.981,3.656-16.638,13.363-28.971c3.59-4.488,7.413-8.759,11.469-12.815
	c3.59-3.59,6.266-5.934,8.027-7.031c0.566-0.333,0.35-0.615-0.647-0.848c-1.097-0.266-2.56-0.15-4.388,0.349
	c1.063-1.496,3.406-3.624,7.03-6.383c2.759-2.094,3.806-3.158,3.142-3.191c-10.804-0.565-23.054,0.831-36.75,4.188
	c-11.602,3.424-17.668,5.086-18.199,4.986l-12.815-3.241c-6.274-0.961-12.013-0.755-17.236,0.578
	c-4.976-2.142-10.48-5.287-16.521-9.454C21.688,8.769,16.951,4.464,14.658,0.84c-0.532-0.864-0.881-0.764-1.047,0.299
	c-0.133,1.03-0.05,2.36,0.25,3.989c-1.23-1.23-1.662-1.097-1.296,0.399c1.03,4.554,1.612,12.167,1.745,22.837
	c0.106,8.369-0.101,15.679-0.61,21.968c-0.745,4.732-0.858,9.377-0.337,13.934c0.046,0.402,0.104,0.787,0.159,1.178
	c-0.521,1.141-1.281,2.085-2.303,2.812c-1.296,0.931-2.742,1.33-4.338,1.197c-0.831-0.066-1.081,0.216-0.748,0.848l1.596,1.745
	l-5.585-0.499c-1.994-0.2-2.56,0-1.695,0.598c1.363,0.931,2.975,2.526,4.837,4.787l4.887,6.183
	c4.321,5.385,8.078,9.374,11.269,11.967c4.04,3.237,8.266,5.368,12.671,6.43c-1.14,3.189-2.796,7.431-4.993,12.767
	c-2.36,7.514-3.008,15.259-1.944,23.236c0.228,1.655,0.567,3.342,1.012,5.058c1.257,5.933,2.383,12.49,3.376,19.675
	c1.097,8.012,1.479,12.998,1.147,14.959c-0.333,1.928-0.914,3.757-1.745,5.485l-2.044,3.739l-1.147,1.795
	c-0.399,0.633-0.631,1.147-0.698,1.547c-0.332,2.326,0.848,3.606,3.541,3.839c2.072,0.208,3.752-0.087,5.086-0.828
	c0.022,0.15,0.054,0.295,0.1,0.429c0.565,1.629,2.41,2.494,5.535,2.594c3.158,0.1,5.501-0.665,7.031-2.294
	c0.443-0.498,0.929-1.364,1.454-2.57c1.739,0.995,5.287,1.521,10.663,1.573c4.539,0.064,7.649-0.361,9.348-1.271
	c12.984-2.103,20.325-5.767,22.016-10.995c0.447-1.36,0.815-2.703,1.11-4.03c4.31-0.228,8.562-1.37,12.752-3.449
	c4.421-2.193,8.294-5.17,11.618-8.926c3.457-3.922,5.95-8.344,7.479-13.264c1.529-4.887,2.062-10.072,1.596-15.557
	c-1.13-13.33-0.3-23.752,2.493-31.266c2.327-6.249,6.814-12.116,13.463-17.601C144.219,84.627,144.885,83.48,144.352,82.716z"/>
</svg>
