<?xml version="1.0" encoding="utf-8"?>
<!-- Generator: Adobe Illustrator 16.0.0, SVG Export Plug-In . SVG Version: 6.00 Build 0)  -->
<!DOCTYPE svg PUBLIC "-//W3C//DTD SVG 1.1//EN" "http://www.w3.org/Graphics/SVG/1.1/DTD/svg11.dtd">
<svg version="1.1" id="图层_1" xmlns="http://www.w3.org/2000/svg" xmlns:xlink="http://www.w3.org/1999/xlink" x="0px" y="0px"
	 width="274px" height="231px" viewBox="0 0 274 231" enable-background="new 0 0 274 231" xml:space="preserve">
<path d="M270.354,199.747l-1.948-1.948c-3.529-3.529-6.478-5.344-8.843-5.443c-1.265-1.732-2.83-3.381-4.694-4.946
	c-2.998-2.531-6.144-4.146-9.44-4.845c-0.009-0.002-0.017-0.005-0.024-0.007c-0.288-3.104-0.646-5.357-1.076-6.737
	c-0.3-0.967-1.882-2.549-4.745-4.746l-3.896-2.885c0.093-10.035-0.438-18.274-1.601-24.689c-2.226-12.462-7.207-22.789-14.93-30.994
	c5.434-27.594,6.323-50.16,2.641-67.666c-2.93-13.721-8.875-24.811-17.834-33.27c-3.629-3.397-8.758-6.145-15.383-8.24
	c-6.596-2.098-13.455-3.164-20.582-3.197c-7.094-0.033-13.971,1.116-20.631,3.447c-6.295,2.198-11.557,5.128-15.786,8.792
	c-8.06,6.993-13.621,15.336-16.685,25.027c-2.537,8.091-3.371,17.399-2.541,27.9c-3.151-2.132-6.795-3.861-10.947-5.174
	c-6.228-1.998-13.038-2.88-20.432-2.647c-7.327,0.266-14.354,1.798-21.082,4.597c-6.693,2.797-11.972,6.377-15.835,10.74
	c-8.193,9.291-13.188,21.18-14.986,35.667c-1.989,16.003-0.594,37.593,4.165,64.732l-6.912,5.153l-0.101,0.248l-4.463,9.661
	L4.246,197.15c-2.631,1.432-4.047,2.682-4.246,3.744c-0.299,1.823,1.741,3.525,6.102,5.105c-0.306,1.236-0.293,2.199,0.041,2.888
	c0.266,0.499,0.666,0.833,1.199,0.999l2.548,0.5l7.643,1.35c3.33,0.732,5.529,1.582,6.594,2.548l0.799,0.698l3.697,0.199
	c1.599-0.266,3.98-0.865,7.144-1.798l5.695-1.798c0.233,1.432,1.232,2.83,2.997,4.195c1.365,1.065,2.781,1.865,4.246,2.397
	c1.399,0.566,2.797,0.716,4.196,0.449l6.943,1.599c4.929,1.266,8.309,2.416,10.141,3.446c2.131,1.199,7.993,2.032,17.584,2.498
	c8.991,0.433,14.286,0.399,15.885-0.101c1.166-0.366,4.546-2.332,10.141-5.895c17.718,5.928,29.042,8.758,33.969,8.492l6.693-0.4
	l1.898-0.248c5.527,1.863,9.458,1.197,11.789-2l5.195-2.646l8.041-1.149l10.842-0.398l0.133,0.013
	c0.023,0.027,0.044,0.063,0.068,0.087c2.032,1.932,4.664,3.363,7.894,4.297c2.431,0.699,4.512,0.998,6.243,0.898
	c4.197-0.199,6.795-0.916,7.793-2.148l0.65-1.248l0.248-1.397c-0.05-0.301-0.139-0.618-0.253-0.948l2.103-0.301l10.99-3.098
	c6.027-1.599,9.69-2.381,10.989-2.348c2.931,0.034,5.295-0.349,7.093-1.148l5.182-2.818l1.412,0.172l6.295-1.049
	c3.43-0.768,5.562-1.466,6.395-2.1l1.898-1.696c0.633-0.734,0.998-1.351,1.099-1.851c0.004-0.024-0.003-0.049-0.004-0.073
	c1.167-0.483,2.021-1.091,2.552-1.825c0.467-0.6,0.666-1.148,0.6-1.648C271.37,201.13,271.02,200.514,270.354,199.747z"/>
</svg>
