<?xml version="1.0" encoding="utf-8"?>
<!-- Generator: Adobe Illustrator 16.0.0, SVG Export Plug-In . SVG Version: 6.00 Build 0)  -->
<!DOCTYPE svg PUBLIC "-//W3C//DTD SVG 1.1//EN" "http://www.w3.org/Graphics/SVG/1.1/DTD/svg11.dtd">
<svg version="1.1" id="图层_1" xmlns="http://www.w3.org/2000/svg" xmlns:xlink="http://www.w3.org/1999/xlink" x="0px" y="0px"
	 width="386px" height="357px" viewBox="0 0 386 357" enable-background="new 0 0 386 357" xml:space="preserve">
<path d="M381.03,258.309c-1.9-5.068-6.736-8.354-14.506-9.854l-24.11-1.2c-11.005,0.2-19.575-0.033-25.711-0.7
	c-4.401-0.467-7.803-1.185-10.204-2.151c-4.302-1.7-6.52-4.285-6.653-7.753c-0.399-9.938,0.434-19.274,2.502-28.012l2.801-10.954
	c0.69-2.761,1.263-5.417,1.742-7.992c5.079-10.059,6.888-20.633,5.411-31.725c-0.167-1.234-0.467-1.984-0.9-2.251
	c-0.5-0.3-1.001,0.367-1.501,2.001c-0.198,0.649-0.428,1.262-0.677,1.851c-0.889-4.38-3.111-12.827-6.677-25.361
	c-3.359-11.761-5.256-21.752-5.723-30.017c4.819-0.864,9.728-2.028,14.727-3.497c9.505-2.801,17.725-6.186,24.661-10.154
	c2.768-1.567,4.368-2.801,4.802-3.702c0.4-0.934-0.784-0.85-3.552,0.25c-8.104,3.202-17.141,6.053-27.111,8.554
	c-4.782,1.184-9.322,2.159-13.646,2.945c0.02-1.932,0.124-4,0.312-6.203c3.049-1.606,6.234-3.41,9.583-5.446
	c11.004-6.669,19.241-13.156,24.71-19.458c1.768-2.001,2.635-3.352,2.601-4.052c0-0.767-1-0.384-3.001,1.15
	c-7.236,5.702-15.022,11.055-23.359,16.057c-3.364,2.012-6.561,3.791-9.624,5.384c1.313-5.874,4.319-12.469,9.023-19.791
	c4.102-6.369,9.805-13.772,17.107-22.209c1.301-1.501,1.884-2.401,1.751-2.701c-0.134-0.367-1.301-0.367-3.502,0l-16.356,3.401
	c-7.904,1.667-13.523,2.551-16.857,2.651l-5.702-0.5l-5.553-1.3c-7.337-1.601-11.571-2.435-12.705-2.501
	c-3.56-0.251-7.118,0.25-10.678,1.467c-3.251-1.151-5.964-3.354-8.13-6.619c-2.168-3.302-3.369-6.953-3.602-10.955
	c-0.066-1.234-0.268-1.917-0.601-2.051c-0.366-0.167-1.067,0.184-2.101,1.051c-4.502,3.735-8.771,10.254-12.806,19.558
	c-5.335,12.372-7.854,25.611-7.554,39.717l0.293-0.293c-0.917,1.572-2.043,3.397-3.394,5.495c-2.901,5.202-3.886,9.487-2.952,12.855
	c0.4,1.3,0.968,2.334,1.701,3.101c0.9,0.934,2.185,1.601,3.852,2.001c2.401,4.502,6.32,7.103,11.756,7.803
	c5.168,0.667,10.987-0.434,17.457-3.301c0.602,0.267,1.207,0.502,1.815,0.723c3.76,3.145,5.804,7,6.087,11.583
	c0.301,4.568-1.133,8.454-4.301,11.655c-6.036,6.036-15.507,8.954-28.412,8.754c-12.705-0.2-26.145-3.352-40.317-9.454
	c-18.607-8.003-32.163-12.105-40.667-12.305c-4.802-0.133-9.621,0.633-14.456,2.301c-2.552,0.912-5.491,2.223-8.806,3.921
	c-6.537-1.582-12.739-4.438-18.606-8.573c-6.903-4.869-10.404-9.487-10.504-13.856v-0.2c0-3.235,2.368-6.887,7.103-10.955
	c2.468-2.134,7.437-5.686,14.906-10.654c6.736-4.469,11.005-7.486,12.806-9.054c3.735-3.235,5.752-6.403,6.052-9.504
	c0.634-6.536-4.935-14.056-16.707-22.56c-10.638-7.703-20.125-12.355-28.462-13.956c4.402-3.301,9.037-5.969,13.906-8.003
	c4.469-1.868,9.538-3.335,15.207-4.402c1.5-0.3,2.284-0.6,2.351-0.9c0.067-0.367-0.65-0.9-2.151-1.601
	c-8.104-3.835-17.307-6.369-27.612-7.603C76.636,6.919,66.515,7.37,57.244,9.604l7.604-7.003C66.348,1.3,66.965,0.5,66.698,0.2
	l-3.352,0.25C31.567,8.253,11.625,23.66,3.522,46.669c-4.536,12.872-4.669,24.36-0.4,34.464c3.835,9.071,10.238,15.34,19.208,18.808
	c1.834,0.734,2.901,0.934,3.202,0.6c0.267-0.3-0.034-1.184-0.9-2.651c-3.202-5.369-5.002-10.705-5.402-16.007
	c-0.4-5.269,0.583-10.288,2.951-15.056c3.368-6.803,9.004-12.339,16.907-16.607c7.836-4.235,16.207-6.336,25.11-6.303
	c11.771,0.033,22.426,1.851,31.963,5.452c7.97,3.001,14.206,6.786,18.708,11.355c3.635,3.701,4.519,7.036,2.651,10.004
	c-1.467,2.334-6.219,6.286-14.256,11.855c-7.236,5.036-12.355,9.037-15.356,12.005c-5.069,5.002-7.653,9.737-7.753,14.206
	c-0.1,5.735,3.485,11.138,10.755,16.207c5.268,3.651,12.012,6.87,20.208,9.662c-6.888,4.509-11.575,11.708-14.056,21.602
	c-1.434,5.669-2.568,16.307-3.401,31.914l-1.05,14.355c-0.467,4.735-1.117,8.604-1.951,11.604c-0.733,2.701-2,5.47-3.801,8.304
	c-1.634,2.535-3.401,4.702-5.302,6.503l-4.852,4.401c-1.834,1.768-3.335,3.735-4.502,5.902c-3.168,5.803-5.436,15.74-6.803,29.813
	c-1.367,13.807-0.684,27.862,2.051,42.168c2.868,14.939,6.986,24.461,12.355,28.563c3.102,2.367,6.72,3.352,10.854,2.951
	c4.269-0.434,6.403-2.218,6.403-5.353c0-1.267-0.383-2.618-1.15-4.052c-0.9-1.701-2.234-3.268-4.001-4.701
	c-2.668-4.969-4.319-10.172-4.952-15.607c-0.333-3.001-0.367-7.82-0.1-14.456c0.367-8.903,2.701-18.024,7.003-27.361
	c4.935-10.704,10.904-17.641,17.907-20.809c12.75-5.768,23.092-11.926,31.054-18.47c0.112,0.828,0.203,1.707,0.26,2.663v6.253
	l-0.1,8.403c0.066,3.067,0.4,5.485,1,7.253c2.768,8.438,8.537,20.759,17.307,36.965c4.502,8.338,9.354,16.991,14.556,25.961
	c1.634,3.068,4.019,5.119,7.153,6.153c3.001,1,5.552,0.767,7.653-0.7c1.634-1.135,2.435-2.635,2.401-4.502
	c0-1.968-0.95-3.719-2.851-5.252c-3.301-3.702-7.353-12.572-12.155-26.611c-5.135-15.106-6.936-25.261-5.402-30.463
	c0.667-2.268,1.667-4.318,3.001-6.152c1.201-1.668,2.818-3.352,4.852-5.053c7.17-6.002,12.405-12.188,15.707-18.558
	c2.689-5.255,4.756-12.197,6.215-20.786c4.178,2.612,7.676,4.605,10.463,5.949c0.057,0.758,0.111,1.514,0.18,2.281
	c0.833,9.571,2.584,19.525,5.252,29.863l1.15,4.802c0.366,1.567,0.533,2.667,0.5,3.302c-1.4-0.268-3.102-1.084-5.103-2.451
	l-4.852-3.802c-1.401-1.167-2.335-1.651-2.802-1.45c-0.467,0.232-0.434,1.15,0.101,2.75c1.501,4.436,3.817,8.971,6.952,13.606
	c-1.3-1.367-2.184-2.067-2.65-2.101c-0.533-0.033-0.316,1.017,0.65,3.15c0.767,1.701,2.134,3.852,4.102,6.453
	c1.634,2.135,3.301,4.119,5.002,5.953c3.068,10.004,6.252,17.891,9.555,23.659c2.301,4.068,5.936,8.938,10.904,14.606
	c3.435,3.936,6.502,7.803,9.203,11.604c3.568,5.103,6.971,10.771,10.205,17.007c2.234,4.336,4.301,7.554,6.202,9.654
	c2.868,3.234,5.97,4.853,9.304,4.853c3.469,0,6.453-0.45,8.954-1.351c1.2-0.434,2.101-1.168,2.701-2.201
	c0.601-1.101,0.733-2.352,0.399-3.752c-0.299-1.1-1.467-2.701-3.501-4.802l-3.802-3.701c-3.001-3.602-8.303-13.64-15.906-30.112
	c-5.569-12.006-9.938-21.926-13.105-29.764c-2.068-5.102-3.318-8.986-3.752-11.654c-0.666-3.768-0.4-7.619,0.801-11.555
	c2.734-9.237,5.818-17.774,9.254-25.611c0.639-1.467,1.244-2.877,1.817-4.234c0.73,3.599,2.357,7.677,4.886,12.238
	c2.701,4.869,5.918,9.387,9.653,13.556c-2.167,1.233-5.419,2.084-9.754,2.551c-2.201,0.267-3.302,0.634-3.302,1.101
	c0.033,0.4,0.918,0.984,2.651,1.751c2.335,1.001,4.802,1.65,7.403,1.95c2.301,0.268,4.952,0.284,7.953,0.051
	c-2.801,2.434-4.602,4.118-5.402,5.052c-0.733,0.8-1.033,1.367-0.9,1.7c0.134,0.4,0.917,0.518,2.352,0.351
	c4.068-0.434,7.686-1.417,10.854-2.951c3.77,3.368,11.705,4.202,23.811,2.501c6.303-0.867,13.656-2.217,22.06-4.052l20.208-0.649
	c7.903,0.133,12.889,0.6,14.957,1.4c4.435,1.7,8.02,1.7,10.754,0C381.313,263.41,382.064,261.176,381.03,258.309z"/>
</svg>
