<?xml version="1.0" encoding="utf-8"?>
<!-- Generator: Adobe Illustrator 16.0.0, SVG Export Plug-In . SVG Version: 6.00 Build 0)  -->
<!DOCTYPE svg PUBLIC "-//W3C//DTD SVG 1.1//EN" "http://www.w3.org/Graphics/SVG/1.1/DTD/svg11.dtd">
<svg version="1.1" id="图层_1" xmlns="http://www.w3.org/2000/svg" xmlns:xlink="http://www.w3.org/1999/xlink" x="0px" y="0px"
	 width="318px" height="421px" viewBox="0 0 318 421" enable-background="new 0 0 318 421" xml:space="preserve">
<path d="M243.105,232.145c6.998,0.233,13.146-0.199,18.445-1.3c7.765-1.633,14.896-3.933,21.395-6.897
	c4.199-1.934,7.814-3.967,10.848-6.1c10.131-7.165,16.612-15.113,19.445-23.844c3.032-9.431,0.533-16.763-7.498-21.995
	c-4.033-2.632-9.148-4.249-15.347-4.849c-6.398-0.633-13.13-0.1-20.194,1.6c-6.799,1.633-13.397,4.049-19.796,7.248
	c-3.899,1.933-9.048,4.933-15.446,8.998l-1.699-2.149l-0.91-0.875c1.844-1.953,3.762-4.255,5.758-6.923
	c3.267-4.366,5.266-7.715,5.999-10.047c0.366-1.033,0.384-1.733,0.05-2.1c-0.333-0.4-1.049-0.533-2.148-0.4
	c-2.913,0.298-7.473,2.392-13.672,6.272c3.833-8.615,7.078-18.74,9.723-30.416c2.766-12.23,4.582-24.895,5.448-37.991
	c0.634-9.731,0.634-17.829,0-24.294c-0.6-5.932-1.616-9.598-3.05-10.997c-0.399-0.4-0.883-0.6-1.449-0.6
	c-0.891,0.096-1.979,0.805-3.264,2.113c0.616-5.172,0.996-10.07,1.114-14.66c0.267-9.498,0.033-17.046-0.7-22.645
	c-0.6-4.466-1.566-8.032-2.898-10.698c-0.667-1.333-1.467-2.116-2.4-2.349c-1.1-0.267-2.266,0.283-3.498,1.649l-1.5,2.1
	c0.1-4.899-0.45-9.265-1.65-13.097c-1.299-4.099-2.999-6.365-5.098-6.799c-2.8-0.6-7.299,1.883-13.498,7.448
	c-6.465,5.832-12.029,12.664-16.695,20.495c-1.891,3.19-3.633,6.329-5.238,9.419c-0.253-1.439-0.938-2.249-2.061-2.421
	c-2.499-0.367-6.314,2.75-11.447,9.348c-5.564,7.132-10.098,15.28-13.596,24.444c-3.266,8.564-5.616,17.629-7.048,27.193
	c-0.296,2.019-0.571,4.316-0.825,6.86c-0.242-0.684-0.5-1.277-0.774-1.761c-0.8-1.4-1.833-2.1-3.1-2.1
	c-2.199,0-4.382,3.632-6.548,10.897c-0.866,2.933-1.733,7.465-2.599,13.597c-1.175,8.314-1.521,15.54-1.062,21.705
	c-1.241-0.493-2.192-0.619-2.838-0.36c-0.833,0.267-1.433,1.117-1.799,2.55c-0.233,0.8-0.35,1.783-0.35,2.949
	c0,2.666,0.367,5.599,1.1,8.798c0.104,0.454,0.229,0.884,0.344,1.327c-2.978,2.346-5.468,4.589-7.442,6.721
	c-2.533-3.166-5.715-6.532-9.548-10.098c-4.532-4.166-9.414-8.048-14.646-11.647c-7.265-5.032-14.763-8.565-22.495-10.598
	c-6.032-1.6-11.797-2.183-17.296-1.75c-5.232,0.4-9.448,2.25-12.647,5.549c-4.099,4.232-5.548,10.214-4.349,17.946
	c0.767,5.178,2.325,10.169,4.655,14.979c-0.705,0.253-1.377,0.554-2.006,0.917c-1.666,1.066-2.449,2.899-2.349,5.499l0.792,12.851
	c-0.759-0.259-1.556-0.428-2.392-0.504c-2.066-0.233-4.266,0.184-6.599,1.25c-2.233,1.033-3.316,2.949-3.249,5.749
	c0.032,1.713-0.25,6.871-0.845,15.452c-1.597-0.326-2.968-0.232-4.104,0.295c-1.633,0.799-2.55,3.049-2.75,6.748
	c-0.167,3.332,0.217,6.165,1.15,8.498c0.512,1.229,1.221,2.492,2.085,3.783c-3.336,2.232-6.793,4.76-10.384,7.613
	c-2.199,1.7-1.933,2.783,0.8,3.25l5.949,0.949l6.249,0.85l-2,10.299c-0.233,1.299-0.1,2.082,0.4,2.349
	c0.4,0.2,1.116,0.034,2.149-0.499l7.448-3.8l2.893,12.729c-0.693,1.003-1.352,2.025-1.974,3.067
	c-1.43-3.573-2.952-6.183-4.568-7.799c-0.833-0.833-1.7-1.333-2.6-1.499c-1.366-0.234-2.6,0.332-3.699,1.699
	c-0.083,0.105-0.152,0.231-0.231,0.343c-2.106-6.206-4.857-10.598-8.267-13.14c-2.433-1.8-4.632-2.482-6.598-2.05
	c-2.733,0.566-4.899,2.633-6.499,6.198c-1.633,3.666-2.2,7.982-1.7,12.947c0.395,3.785,1.364,7.292,2.897,10.525
	c-1.464-0.554-2.5-0.898-3.097-1.027c-1.367-0.268-2.433-0.066-3.199,0.6c-0.767,0.699-1.083,1.85-0.95,3.449
	c0.133,2.332,0.9,5.248,2.3,8.748c1.6,4.065,3.599,7.582,5.999,10.547c3.232,4.033,6.432,7.382,9.598,10.048
	c3.599,3.032,7.698,5.649,12.297,7.849c5.858,24.206,15.214,42.974,28.047,56.339c-0.487,0.43-0.696,0.829-0.604,1.197
	c0.167,0.6,1.033,1.017,2.599,1.249l0.532,0.072c2.856,2.723,5.81,5.146,8.872,7.24c-2.163,0.455-3.77,0.835-4.804,1.137
	c-8.931,2.599-12.814,7.215-11.647,13.846c0.4,2.333,1.5,4.35,3.299,6.049c1.513,1.425,3.362,2.446,5.509,3.11
	c0.8,1.33,1.959,2.512,3.489,3.538c2.199,1.467,5.032,2.116,8.498,1.949l5.851-0.96c1.063,0.977,2.421,1.817,4.097,2.51
	c3,1.267,8.198,1.366,15.596,0.3c5.999-0.899,10.631-1.966,13.897-3.199c7.631-2.865,12.18-6.765,13.646-11.697
	c0.7-2.332,0.533-4.732-0.5-7.197l-1.047-1.764c6.065,0.969,10.234,1.541,12.495,1.713c2.799,0.166,3.282-0.833,1.45-2.999
	c-0.83-0.954-1.707-1.931-2.607-2.919c7.002-3.265,13.405-7.654,19.203-13.178c7.843-7.477,13.572-15.637,17.203-24.476
	l17.789,0.532c3.466,0.999,8.598,4.148,15.396,9.447c6.099,4.766,9.647,7.965,10.647,9.598c0.467,0.8,0.833,2.916,1.1,6.349
	c0.2,2.699,0.267,4.649,0.2,5.849c-5.965,7.231-10.031,12.697-12.197,16.396c-0.533,0.967-0.783,1.55-0.75,1.75
	c0.066,0.467,0.75,0.649,2.05,0.55c1.737-0.108,5.553-0.837,11.42-2.176c-1.286,1.653-2.193,3.072-2.672,4.226
	c-1.066,2.499-1.101,5.082-0.101,7.748c1.967,5.332,7.099,8.914,15.396,10.747l9.998,0.5c1.521-0.229,2.815-0.617,3.888-1.164
	c3.983,0.837,7.441,1.195,10.358,1.064c2.921-0.157,5.077-0.794,6.488-1.897c3.28,0.047,6.302-0.516,9.059-1.702
	c3.466-1.433,5.615-3.516,6.448-6.248c0.866-2.733,0.149-5.549-2.149-8.448c-0.722-0.909-1.469-1.702-2.238-2.392
	c1.848,0.338,2.465-0.345,1.838-2.058c-0.699-2.466-2.932-7.114-6.697-13.946c2.666-2.633,4.981-5.215,6.947-7.748
	c0.7-0.867,1-1.517,0.9-1.949c-0.133-0.566-0.834-1.018-2.1-1.35l-14.56-1.128l-0.237-4.671c-0.533-5.266-1.35-9.432-2.449-12.498
	c-1-2.699-5.665-7.631-13.996-14.796c-6.633-5.665-12.381-10.164-17.246-13.497c4.237-7.711,7.214-13.467,8.938-17.28
	c0.013,2.114,0.064,4.649,0.16,7.633c0.166,5.632,0.35,9.265,0.55,10.897c0.167,1.366,0.433,2.133,0.8,2.299
	c0.4,0.134,1.184-0.283,2.35-1.249l5.698-5.249l3.399-3.449c1.6,3.799,4.432,9.365,8.498,16.696c0.633,1.167,1.166,1.767,1.6,1.8
	c0.4,0.033,0.916-0.467,1.55-1.5l2.249-3.6c1.333-2.266,2.399-4.382,3.199-6.348c1.199,1.5,4.049,4.315,8.549,8.447
	c0.933,0.9,1.615,1.334,2.049,1.301c0.5-0.101,0.883-0.783,1.15-2.051l0.807-5.163c0.831,0.719,1.646,1.28,2.441,1.665
	c1.7,0.832,4,1.35,6.898,1.549l5.399-0.25c2.108-0.885,4.046-3.302,5.816-7.212c2.475-0.096,4.212-0.503,5.181-1.235
	c1.3-0.967,2.199-3.283,2.699-6.949c0.361-2.555,0.464-5.081,0.337-7.582c1.392-1.388,2.251-3.338,2.563-5.864
	c0.233-1.633-0.217-3.766-1.35-6.398c-0.866-2.133-1.733-3.732-2.599-4.799c-0.008-0.012-0.021-0.01-0.029-0.02
	c0.272-1.733-0.247-3.824-1.57-6.278c-1.234-2.334-2.65-4.033-4.25-5.1c-1.332-0.9-3.383-1.683-6.148-2.35
	c-1.101-0.277-2.224-0.482-3.359-0.651c1.904-3.167,3.109-5.401,3.609-6.696c0.566-1.334,0.7-2.15,0.4-2.449l-2.6,0.149
	c-5.266,1.533-8.865,2.649-10.797,3.349l2.199-6.898l1.799-6.348c0.167-0.9,0.134-1.5-0.1-1.8c-0.334-0.399-1.1-0.3-2.299,0.3
	c-1.268,0.633-4.3,2.383-9.099,5.249c-5.499,3.232-9.497,5.698-11.997,7.397l0.699-7.348c0.134-1.467,0.067-2.35-0.199-2.649
	c-0.434-0.466-1.366-0.033-2.799,1.3c-5.266,4.898-10.765,10.331-16.496,16.297c-5.399-1.4-11.465-4.116-18.196-8.148l-8.027-5.367
	l-0.57-3.631l17.096,1.799c2.433,0.167,2.849-0.783,1.249-2.849c-3.766-4.933-6.73-8.599-8.897-10.997l5.399-5.149l7.298-7.147
	c0.833-0.834,1.216-1.417,1.149-1.75c-0.066-0.434-0.766-0.717-2.1-0.85l-11.684-0.414c0.904-0.763,1.738-1.534,2.53-2.311
	C231.413,231.225,236.773,231.92,243.105,232.145z M61.803,191.424l1.607,1.559l-2.164,2.945c0.147-0.761,0.271-1.533,0.352-2.324
	L61.803,191.424z M71.196,210.45l0.1-0.935c0.877-0.517,1.789-1.095,2.749-1.765c1.705-1.19,3.201-2.439,4.499-3.743
	c5.712,3.154,12.006,5.756,18.896,7.791c4.339,1.292,8.697,2.291,13.072,3.009l7.223,9.489l-7.198-0.6l-5.899-0.301
	c-1.633-0.033-2.482,0.217-2.549,0.75c-0.066,0.334,0.3,1.017,1.1,2.05l7.298,7.849c-5.065,2.965-8.998,5.381-11.797,7.248
	c-1.1,0.699-1.616,1.249-1.55,1.648c0.033,0.4,0.65,0.9,1.85,1.5l7.148,2.949l4.24,1.479c-1.688,0.489-3.961,1.013-6.84,1.571
	c-5.199,1.033-8.831,1.316-10.897,0.85c-1.966-0.433-4.799-2.032-8.498-4.799c-2.623-1.933-4.653-3.633-6.109-5.108l0.311-0.09
	l8.648-2.4c1.5-0.466,2.25-0.933,2.25-1.399c0.033-0.399-0.583-1.032-1.85-1.899c-1.645-1.089-3.175-2.064-4.615-2.948
	c3.094-0.342,5.767-1.59,8.014-3.75c2.1-2.032,3.399-4.516,3.899-7.448c0.5-2.732,0.183-4.782-0.95-6.148
	c-0.733-0.9-1.949-1.416-3.649-1.55l-4.099,0.399c-4.565,1.268-7.665,1.816-9.298,1.65c-1-0.066-2.083-0.45-3.249-1.15l-2.2-1.6
	C71.112,212.35,71.096,211.482,71.196,210.45z M126.333,364.813c0.933-1.865,4.132-4.765,9.598-8.697
	c5.432-3.933,9.231-6.115,11.397-6.549l1.959-0.145c-0.998,1.437-2.036,2.845-3.159,4.193c-6.121,7.333-13.437,12.545-21.932,15.666
	C124.716,368.098,125.424,366.614,126.333,364.813z M64.098,293.68c2.533-4.832,4.149-9.248,4.849-13.246
	c0.733-4,0.333-6.416-1.2-7.248c-0.986-0.592-2.272-0.737-3.853-0.448c0.847-1.795,1.546-3.523,2.072-5.175
	c7.4,4.912,13.311,7.424,17.727,7.521c4.333,0.134,9.548-0.933,15.646-3.199c3.472-1.27,6.601-2.667,9.428-4.177l-0.18,0.429
	c-0.6,1.566-0.75,2.532-0.45,2.898c0.3,0.334,1.149,0.217,2.549-0.35l15.246-7.648c-0.4,1.666-0.95,4.782-1.649,9.348
	c-0.167,1.334-0.083,2.117,0.25,2.35c0.333,0.233,1.083-0.05,2.25-0.85c5.132-3.832,7.981-5.932,8.548-6.299l0.553,0.946
	c-0.792,4.697-2.253,10.454-4.402,17.3c-0.328,1.023-0.636,1.965-0.935,2.868c-2.1-0.836-3.98-1.483-5.613-1.919l-1.55-0.149
	c-0.4,0.134-0.616,0.667-0.65,1.6c0,0.999,0.184,2.8,0.55,5.398l0.003,0.029c-0.458-0.319-0.915-0.636-1.353-0.929
	c-0.866-0.566-1.433-0.816-1.699-0.75c-0.3,0.066-0.667,0.533-1.1,1.4c-0.328,0.644-0.664,1.457-1.006,2.415
	c-2.271-1.664-4.005-2.807-5.192-3.415c-0.867-0.434-1.417-0.634-1.65-0.601c-0.4,0.067-0.633,0.667-0.7,1.8
	c-0.061,1.578,0.2,4.822,0.776,9.691l-9.324-0.894c-1.4-0.066-2.149,0.184-2.25,0.75c-0.067,0.366,0.2,1.05,0.8,2.05l7.898,11.247
	c4.466,6.298,6.815,9.765,7.048,10.397c-5.499,3.865-10.498,8.098-14.996,12.697c-7.332,7.498-12.447,15.213-15.347,23.145
	c-2.068,0.641-4.006,1.251-5.841,1.838c-5.779-4.271-11.018-10.187-15.704-17.785c-6.532-10.597-11.214-22.611-14.046-36.041
	C55.766,306.077,60.598,300.412,64.098,293.68z M212.512,290.081c-0.199-0.566-0.449-0.884-0.75-0.95
	c-0.266-0.033-0.732,0.117-1.398,0.45c-1.112,0.556-2.998,1.852-5.639,3.867c-0.592-2.137-1.211-4.482-1.859-7.066
	c-1.547-6.026-2.474-10.232-2.782-12.632l0.266-0.644c3.607,4.966,7.229,9.214,10.864,12.726c2.475,2.387,5.147,4.672,8.015,6.856
	c-1.616,1.09-3.398,2.409-5.318,3.922C213.483,293.865,213.017,291.687,212.512,290.081z M234.008,302.578
	c-1.101,0.434-2.084,0.85-2.95,1.25c-1.6,0.699-3.349,1.566-5.249,2.6l0.101-4.75l-0.077-4.367c2.861,1.85,5.872,3.623,9.056,5.308
	L234.008,302.578z"/>
</svg>
