<?xml version="1.0" encoding="utf-8"?>
<!-- Generator: Adobe Illustrator 16.0.0, SVG Export Plug-In . SVG Version: 6.00 Build 0)  -->
<!DOCTYPE svg PUBLIC "-//W3C//DTD SVG 1.1//EN" "http://www.w3.org/Graphics/SVG/1.1/DTD/svg11.dtd">
<svg version="1.1" id="图层_1" xmlns="http://www.w3.org/2000/svg" xmlns:xlink="http://www.w3.org/1999/xlink" x="0px" y="0px"
	 width="206px" height="205px" viewBox="0 0 206 205" enable-background="new 0 0 206 205" xml:space="preserve">
<path d="M201.004,87.545c2.031-9.586,1.299-18.256-2.196-26.012c-2.43-5.426-6.157-8.887-11.184-10.385
	c-4.754-1.389-9.235-0.555-13.444,2.493c-0.331-0.729-0.686-1.447-1.084-2.144c-2.93-5.059-7.973-9.736-15.129-14.029
	c-10.252-6.158-16.975-12.249-20.17-18.273c-3.495-6.591-2.33-12.482,3.494-17.674c0.5-0.466,0.416-0.766-0.249-0.899
	c-4.028-0.799-8.205-0.649-12.532,0.449C124.35,2.17,120.588,4,117.227,6.563c-7.26,5.572-10.122,12.107-8.608,19.6
	c-3.808,1.083-7.055,2.762-9.715,5.064c-4.194,3.662-6.773,8.621-7.739,14.878c-0.258,1.601-0.393,3.214-0.423,4.838
	c-0.601-0.847-1.22-1.681-1.874-2.492c-3.628-4.56-7.539-7.872-11.733-9.936c-4.66-2.297-9.187-2.779-13.58-1.448
	c-8.388,2.529-13.713,9.719-15.977,21.568c-1.831,9.652-1.448,19.039,1.148,28.159c3.362,11.75,9.32,20.17,17.874,25.264
	c5.943,3.541,11.425,4.618,16.447,3.24c3.27,4.626,7.393,8.55,12.372,11.77c-7.963,2.029-15.294,4.677-21.979,7.956
	c-6.458,3.129-10.968,6.142-13.53,9.037c-3.029,3.429-5.592,8.62-7.689,15.577c-1.188,3.966-1.942,7.589-2.292,10.893
	c-4.51,0.588-9.748-0.119-15.732-2.155c-4.424-1.531-7.888-3.278-10.412-5.235c3.646-4.353,4.576-9.263,2.773-14.735
	c-1.897-5.892-6.258-9.869-13.081-11.933c-5.892-1.73-9.869-3.795-11.933-6.191c-0.266-0.299-0.466-0.399-0.599-0.299l-0.15,0.599
	c-0.1,1.364,0.117,3.745,0.649,7.14c0.433,2.629,0.25,5.426-0.549,8.388c-1.897,7.09-1.032,12.897,2.596,17.425
	c3.507,4.352,8.126,5.764,13.852,4.254c3.263,3.431,7.821,6.328,13.708,8.678c7.022,2.795,13.416,3.857,19.194,3.226
	c0.718,2.851,2.217,5.406,4.521,7.657c2.896,2.863,6.124,4.295,9.686,4.295c0.47,0,0.925-0.027,1.372-0.066
	c0.195,0.498,0.4,0.953,0.625,1.314c-1.265,0.332-2.263,0.915-2.996,1.747c-0.699,0.832-1.082,1.813-1.148,2.946
	c-0.067,2.296,1.614,3.961,5.042,4.992c3.428,0.998,6.724,0.799,9.886-0.6c2.663-1.164,3.328-3.694,1.997-7.588l-0.599-2.547
	c0.033-0.732,0.266-1.964,0.699-3.695l0.999-3.744c0.2-0.565,0.832-1.465,1.897-2.695c0.999-1.166,1.98-2.164,2.946-2.996
	c0.366-0.3,0.749-0.399,1.148-0.3l9.686,0.45c2.779-0.184,5.119-0.493,7.041-0.925c1.402,0.758,2.912,1.802,4.542,3.171
	c1.631,1.432,2.73,2.58,3.296,3.445c0.399,0.666,0.583,1.813,0.55,3.445c-0.034,1.863-0.417,3.244-1.148,4.143
	c-0.866,1.033-1.266,2.164-1.199,3.396c0.033,1.198,0.482,2.264,1.349,3.196c1.397,1.464,3.278,2.596,5.642,3.395
	c2.496,0.832,4.843,1.031,7.039,0.6c1.498-0.334,2.68-0.949,3.545-1.848c0.832-0.865,1.248-1.864,1.248-2.996
	c0-1.198-0.482-2.264-1.447-3.195c-0.927-0.927-2.096-1.506-3.477-1.777c1.186-1.227,2.203-2.701,3.027-4.463
	c1.165-2.53,1.73-5.076,1.697-7.64c-0.066-3.595-1.564-7.122-4.493-10.585c-2.653-3.2-5.896-5.511-9.723-6.938
	c0.074-3.083,0.648-7.501,1.734-13.281c0.791-4.164,1.548-7.446,2.274-9.887c4.346,2.291,9.705,4.721,16.099,7.29
	c7.356,2.93,12.032,4.377,14.03,4.344c6.557-0.066,14.795-2.796,24.713-8.188c10.585-5.726,17.441-11.684,20.57-17.875
	c1.531-3.062,1.931-6.107,1.198-9.137c-0.731-2.928-2.329-5.108-4.793-6.54c-0.085-0.049-0.173-0.089-0.258-0.136
	C195.011,104.244,199.004,96.811,201.004,87.545z M84.424,147.358c-2.297,4.261-4.078,7.257-5.342,8.987
	c-0.597,0.752-1.349,1.452-2.248,2.103c0.241-1.633,0.607-3.53,1.1-5.698c0.999-4.56,1.931-7.372,2.796-8.438
	c1.298-1.598,3.678-3.328,7.14-5.191c0.352-0.192,0.695-0.372,1.037-0.55L84.424,147.358z M139.095,139.52
	c-3.43-0.608-6.517-1.459-9.271-2.546c1.952,0.026,3.909-0.01,5.876-0.149c6.996-0.485,13.294-2.307,18.912-5.436
	c-0.133,0.183-0.253,0.357-0.389,0.543c-3.295,4.525-5.625,7.156-6.99,7.888L139.095,139.52z"/>
</svg>
