<?xml version="1.0" encoding="utf-8"?>
<!-- Generator: Adobe Illustrator 16.0.0, SVG Export Plug-In . SVG Version: 6.00 Build 0)  -->
<!DOCTYPE svg PUBLIC "-//W3C//DTD SVG 1.1//EN" "http://www.w3.org/Graphics/SVG/1.1/DTD/svg11.dtd">
<svg version="1.1" id="图层_1" xmlns="http://www.w3.org/2000/svg" xmlns:xlink="http://www.w3.org/1999/xlink" x="0px" y="0px"
	 width="296px" height="325px" viewBox="0 0 296 325" enable-background="new 0 0 296 325" xml:space="preserve">
<path d="M294.446,181.399c-0.565-4.228-2.081-8.389-4.544-12.483c-2.496-4.127-6.074-8.371-10.734-12.732
	c-3.563-3.329-6.109-6.358-7.641-9.087c-1.664-2.996-2.496-6.241-2.496-9.736c0-4.993,1.182-9.72,3.545-14.181
	c1.232-2.297,3.013-4.81,5.343-7.54c1.065-1.265,1.599-2.081,1.599-2.446c-0.033-0.566-1.033-0.666-2.996-0.3
	c-4.794,0.965-9.371,2.546-13.731,4.744c-5.759,2.896-10.069,6.424-12.933,10.585c-4.8,7.012-5.743,15.075-2.841,24.185
	c-10.774-0.56-21.028,2.374-30.763,8.82c-4.586,3.047-8.489,6.498-11.723,10.344c-0.512-0.772-1.031-1.585-1.558-2.438
	c0.602-0.503,1.166-1.043,1.647-1.664c1.364-1.731,2.196-3.879,2.496-6.441c0.232-1.977,0.088-3.536-0.391-4.726
	c3.494-1.105,5.769-3.674,6.781-7.756c0.666-2.696,0.367-5.21-0.898-7.54c-0.699-1.365-1.664-2.546-2.896-3.545
	c1.531-2.396,2.381-4.793,2.547-7.19c0.2-2.33-0.25-4.444-1.348-6.341c-1.099-1.931-2.963-3.595-5.592-4.993
	c-0.439-0.243-0.881-0.46-1.321-0.667c11.396-2.029,21.958-5.548,31.679-10.568c10.219-5.259,18.907-11.8,26.064-19.623
	c5.891-6.425,10.135-13.315,12.732-20.671c2.13-6.125,2.813-11.351,2.047-15.679c-1.365-7.756-5.443-13.398-12.233-16.926
	c-4.294-2.23-8.838-3.362-13.632-3.396c-4.627,0-8.837,0.366-12.632,1.099c-7.224,1.431-14.829,4.194-22.818,8.289
	c-8.255,4.261-15.046,9.287-20.372,15.079c-0.518,0.565-1.031,1.153-1.541,1.759c-0.287-1.722-1.018-3.522-2.203-5.404
	c-1.379-2.194-2.818-3.73-4.314-4.625c1.192-1.227,2.231-2.796,3.115-4.711c1.798-3.861,2.281-8.039,1.448-12.533
	c-0.632-3.462-2.446-6.358-5.442-8.688c-2.463-1.931-5.326-3.229-8.588-3.895c-2.297-0.466-3.462-0.333-3.495,0.399
	c0,0.366,0.349,0.982,1.048,1.847c1.398,1.631,2.314,2.846,2.746,3.645c0.999,1.964,1.115,3.945,0.35,5.942
	c-0.932,2.363-2.546,3.795-4.843,4.294c-1.065,0.233-3.728,0.283-7.989,0.15c-3.266-0.128-6.076,0.332-8.44,1.366
	c-2.036-5.486-4.627-9.136-7.786-10.902c-2.564-1.432-6.924-2.13-13.083-2.097c-3.928,0-7.04-0.566-9.337-1.698
	c-2.264-1.099-4.095-2.962-5.493-5.592c-1.065-2.064-1.298-4.394-0.699-6.99c0.333-1.365,1.048-3.096,2.147-5.193
	c0.766-1.431,1.048-2.33,0.849-2.696l-1.897,0.1c-2.962,1.132-6.341,3.445-10.136,6.94c-5.592,5.126-8.738,10.585-9.437,16.377
	c-0.699,5.592,0.549,10.219,3.745,13.881c0.97,1.111,2.009,2.009,3.102,2.74c-2.305,1.601-4.297,3.693-5.977,6.276
	c-0.537-2.873-1.83-5.565-3.915-8.067c-2.629-3.229-5.875-5.476-9.736-6.741l-8.488-0.299c-2.33,0.499-4.028,1.165-5.093,1.997
	c-0.433,0.333-0.6,0.682-0.5,1.048c0.066,0.333,0.383,0.766,0.949,1.298c1.231,1.099,2.264,2.396,3.096,3.895
	c1.265,2.297,1.698,4.544,1.298,6.741c-0.3,1.665-1.215,3.462-2.747,5.393l-4.194,4.793l-3.595,4.594
	c-1.498,2.197-2.58,4.21-3.246,6.042c-0.732,1.897-1.082,3.811-1.048,5.742c0.066,5.692,3.179,10.852,9.337,15.479l-0.299,0.499
	c-1.831-1.231-4.444-2.779-7.839-4.644l-7.04-3.595c-2.73-1.298-5.892-2.563-9.487-3.795c-5.459-1.864-10.27-2.996-14.43-3.396
	c-3.695-0.333-7.356-0.283-10.985,0.15c-3.595,0.433-6.657,1.182-9.188,2.247c-4.727,2.03-8.438,4.943-11.134,8.738
	c-3.396,4.76-4.827,10.585-4.294,17.476c0.566,7.29,2.862,13.664,6.89,19.123c3.795,5.093,9.221,9.487,16.277,13.182
	c5.592,2.929,11.351,5.043,17.276,6.341c5.193,1.131,11.251,1.781,18.175,1.947c6.191,0.133,12.083-0.417,17.675-1.648
	c3.631-0.804,6.725-1.795,9.309-2.964c0.124,0.416,0.296,0.915,0.527,1.517c-2.13,0-4.044,0.499-5.742,1.498
	c-2.463,1.432-4.044,3.711-4.744,6.841c-0.533,2.363-0.316,4.577,0.649,6.641c0.644,1.471,1.643,2.78,2.964,3.941
	c-0.988,1.25-1.72,2.771-2.165,4.597c-0.833,3.496-0.017,6.708,2.446,9.637c1.551,1.825,3.719,3.03,6.491,3.633
	c-1.477,2.891-3.181,5.52-5.143,7.852c-3.162,3.762-7.356,7.391-12.583,10.885c-4.76,3.229-9.154,5.343-13.182,6.342l-10.186,1.049
	l-7.939,0.249c-1.15,0.145-2.275,0.604-3.375,1.346c-2.684-0.679-6.904-2.895-12.702-6.688c-1.432-0.932-2.646-1.531-3.645-1.797
	l-2.946,0.1c-1.564,0.6-2.53,1.914-2.896,3.944c-0.343,1.857-0.007,3.702,0.999,5.534l-3.146-0.241
	c-1.265,0.267-2.23,0.865-2.896,1.798c-0.799,1.164-1.099,2.662-0.899,4.493c0.218,2.084,1.143,3.918,2.755,5.508
	c-1.25,0.51-2.044,1.624-2.356,3.38c-0.333,1.864,0.183,3.745,1.548,5.643c0.766,1.131,1.897,2.03,3.396,2.696
	c0.892,0.411,2.013,0.764,3.33,1.066c-0.88,0.531-1.629,1.169-2.231,1.929c-1.231,1.531-1.631,3.063-1.198,4.594
	c0.399,1.531,1.665,2.746,3.795,3.646c2.197,0.966,4.543,1.231,7.04,0.799c1.964-0.333,4.294-1.099,6.99-2.297l6.691-3.296
	l1.788-0.979c-2.222,2.656-3.807,5.279-4.733,7.869c-1.365,3.729-0.899,6.607,1.398,8.639c1.531,1.364,3.196,1.848,4.993,1.447
	c2.563-0.565,5.126-2.896,7.689-6.99c0.932-1.498,2.18-3.278,3.745-5.342c1.497-2.013,2.71-3.495,3.646-4.458
	c1.624-0.251,3.288-0.646,4.992-1.185c4.76-1.465,9.637-4.145,14.629-8.039c5.126-3.994,10.02-9.021,14.68-15.079
	c3.695-4.761,7.157-10.003,10.386-15.728c2.867-5.125,5.155-9.925,6.876-14.406c2.074,0.821,4.42,0.96,7.055,0.375
	c1.146-0.267,2.198-0.642,3.173-1.108c0.003,2.821-0.537,5.188-1.625,7.101c-1.365,2.43-4.46,5.875-9.287,10.335
	c-4.86,4.461-8.472,8.954-10.835,13.481c-2.43,4.594-3.828,9.721-4.194,15.379c-0.333,4.859,0.466,9.438,2.397,13.73
	c1.404,3.096,3.156,5.633,5.251,7.617c-1.09,2.084-2.556,5.513-4.403,10.309c-2.03,5.293-3.295,9.17-3.794,11.634
	c-1.332,6.325-0.017,11.917,3.944,16.776l3.096,3.695c0.965,1.265,1.381,2.213,1.249,2.846c-0.088,0.462-0.458,0.917-1.099,1.364
	c-4.902-0.025-8.939,0.546-12.083,1.731c-7.157,2.73-10.951,6.841-11.384,12.333c-0.133,1.765,0.2,3.462,0.999,5.093
	c1.098,2.264,2.979,4.062,5.642,5.393c1.764,0.865,3.961,1.266,6.591,1.199c1.229-0.037,2.198-0.134,2.927-0.286
	c0.596,0.457,1.251,0.868,1.966,1.234c3.362,1.698,6.974,2.264,10.835,1.698c1.723-0.238,3.684-0.813,5.857-1.686
	c0.097,0.094,0.185,0.195,0.285,0.287c1.298,1.164,2.746,2.014,4.344,2.547c2.396,0.799,5.176,0.981,8.338,0.549
	c3.129-0.4,6.042-1.332,8.738-2.797c8.954-4.793,13.947-10.651,14.979-17.575c0.5-3.329-0.316-6.508-2.446-9.536
	c-0.965-1.365-2.563-2.996-4.793-4.895l-4.145-3.345l-4.593-4.294c-1.531-1.697-2.646-4.095-3.346-7.189
	c-0.632-2.664-0.799-4.928-0.499-6.791c0.2-1.332,1.115-3.429,2.746-6.291c1.416-2.549,2.785-4.667,4.112-6.382l7.15,0.559
	c0.994,12.776,6.549,23.825,16.699,33.135c2.205,2.016,4.502,3.826,6.886,5.447c0.661,3.746,2.519,7.638,5.597,11.679
	c2.996,3.928,6.74,7.157,11.234,9.688c3.162,1.797,6.425,3.129,9.787,3.994c2.13,0.566,4.293,0.799,6.49,0.699
	c2.194-0.082,4.053-0.511,5.614-1.248c3.551,0.946,6.924,1.301,10.114,1.048c3.528-0.3,6.475-1.331,8.838-3.096
	c0.558-0.429,1.051-0.907,1.487-1.434c4.156,0.146,7.264-0.831,9.298-2.96c1.398-1.465,2.363-3.362,2.896-5.692
	c0.365-1.665,0.482-3.229,0.349-4.693c-0.267-2.364-1.165-4.494-2.696-6.392c-0.269-0.337-0.57-0.641-0.866-0.95
	c0.867-0.56,1.726-1.135,2.563-1.745c9.353-6.799,15.573-15.715,18.682-26.736c1.778-0.537,3.572-1.217,5.386-2.074
	c6.79-3.229,12.35-8.223,16.677-14.979c4.261-6.624,6.391-14.33,6.391-23.118c0-5.243-0.767-10.604-2.281-16.076
	c0.23-0.263,0.443-0.554,0.65-0.854c0.548-0.147,1.093-0.307,1.631-0.496c2.697-0.932,4.928-2.28,6.691-4.045
	c3.029-3.063,5.227-6.641,6.591-10.734C294.629,190.087,295.012,185.826,294.446,181.399z M184.604,176.935
	c0.884,2.32,2.761,5.736,5.637,10.257c1.292,2.062,2.617,4.047,3.96,5.99c-0.148,0.75-0.279,1.496-0.386,2.236
	c-2.321-2.961-5.075-5.808-8.317-8.526c-2.763-2.33-4.843-4.261-6.241-5.792c-1.203-1.343-2.182-2.761-2.962-4.245
	c1.335,0.472,2.834,0.743,4.51,0.8C182.182,177.692,183.445,177.446,184.604,176.935z"/>
</svg>
