<?xml version="1.0" encoding="utf-8"?>
<!-- Generator: Adobe Illustrator 16.0.0, SVG Export Plug-In . SVG Version: 6.00 Build 0)  -->
<!DOCTYPE svg PUBLIC "-//W3C//DTD SVG 1.1//EN" "http://www.w3.org/Graphics/SVG/1.1/DTD/svg11.dtd">
<svg version="1.1" id="图层_1" xmlns="http://www.w3.org/2000/svg" xmlns:xlink="http://www.w3.org/1999/xlink" x="0px" y="0px"
	 width="200px" height="207px" viewBox="0 0 200 207" enable-background="new 0 0 200 207" xml:space="preserve">
<path d="M195.953,148.068c-1.831-2.663-4.328-4.211-7.49-4.644c-0.045-0.006-0.089-0.007-0.134-0.012
	c1.511-4.226,0.624-7.95-2.663-11.175c-3.496-3.429-7.674-4.194-12.534-2.297c-4.494,1.765-6.874,5.177-7.142,10.237
	c-0.123,2.316,0.218,4.247,0.982,5.826c-2.39-0.082-4.482,0.521-6.275,1.814c-2.197,1.598-3.412,3.878-3.646,6.841
	c-0.233,3.196,0.683,5.926,2.747,8.189c1.943,2.098,4.32,3.182,7.121,3.279c-1.54,1.636-3.34,3.176-5.424,4.611
	c-5.095,3.503-10.529,5.342-16.294,5.556c0.147-1.213,0.234-2.498,0.214-3.907c-0.133-6.658-1.964-12.484-5.492-17.479
	c-2.963-4.229-6.509-7.69-10.637-10.387c-4.229-2.797-8.84-4.645-13.833-5.543c-0.766-0.133-1.382-0.367-1.848-0.699l-1.398-1.199
	c-2.828-2.604-8.832-7.385-17.991-14.333c5.352-1.873,9.542-4.518,12.572-7.934c0.67,0.938,1.467,1.808,2.423,2.592
	c1.731,1.432,3.812,2.479,6.242,3.146c5.859,1.698,12.335,0.783,19.426-2.746c8.156-4.028,14.849-10.637,20.075-19.825
	c4.627-8.256,6.674-16.796,6.143-25.618c-0.566-8.756-3.479-14.748-8.74-17.978c-2.829-1.731-6.225-2.613-10.188-2.646
	c-2.23,0-4.441,0.287-6.633,0.84c0.974-0.879,1.86-1.897,2.639-3.087c3.096-4.661,3.729-9.622,1.897-14.882
	c-1.803-5.15-5.193-8.148-10.141-9.034c0.061-0.959,0.028-1.943-0.097-2.951c-0.466-3.762-2.098-7.058-4.895-9.888
	c-2.963-3.029-6.625-4.761-10.985-5.193c-3.703-0.342-7.067,0.273-10.102,1.821c-0.843-1.896-2.096-3.556-3.781-4.967
	c-2.83-2.397-6.392-3.762-10.687-4.095c-4.095-0.3-7.89,0.682-11.386,2.946c-2.485,1.614-4.326,3.631-5.537,6.044
	c-1.844-1.991-4.255-3.345-7.247-4.047c-3.362-0.832-6.708-0.682-10.038,0.45c-4.561,1.565-7.657,4.461-9.288,8.689
	c-0.656,1.706-0.97,3.347-0.981,4.931c-3.482,0.929-6.108,3.269-7.858,7.054c-1.897,4.161-1.931,8.439-0.1,12.834
	c1.498,3.562,4.478,5.893,8.939,6.991c1.52,0.383,2.951,0.536,4.307,0.497c0.799,1.81,2.54,3.294,5.231,4.447
	c1.746,0.746,3.475,1.159,5.187,1.256c-0.496,0.135-1.006,0.266-1.542,0.392c-6.007,1.4-11.256,3.635-15.766,6.681
	c-4.25-6.185-9.313-9.915-15.195-11.175c-6.126-1.298-11.236,0.5-15.331,5.393c-5.393,6.459-7.64,15.614-6.742,27.466
	c0.866,11.219,4.012,20.425,9.438,27.615c3.129,4.063,7.291,6.625,12.484,7.691c4.5,0.918,8.445,0.482,11.847-1.273
	c6.547,5.963,15.112,9.471,25.708,10.506l-12.187,15.187l-0.849,0.649l-1.349,0.05c-8.623-0.499-16.696,0.416-24.22,2.746
	c-6.792,2.131-12.551,5.21-17.278,9.239c-4.461,3.762-7.407,7.822-8.839,12.184c-1.432,4.395-1.049,8.307,1.148,11.736
	c2.464,3.828,6.542,5.41,12.235,4.744c5.318-0.622,9.327-2.938,12.059-6.9c1.126,1.627,2.581,2.437,4.37,2.405
	c1.898,0,3.479-0.499,4.744-1.498c1.298-0.999,1.831-2.197,1.598-3.595c-0.279-1.879-0.466-3.536-0.569-4.989l11.605-7.896
	c4.195-2.996,6.991-5.243,8.39-6.741c1.498-1.632,3.979-4.993,7.44-10.087l6.996-10.871c0.469,2.306,0.655,5.632,0.545,10.021
	c-0.166,5.926-0.699,10.953-1.598,15.081c-0.167,0.899-0.699,1.532-1.598,1.897c-4.728,1.665-8.706,4.395-11.935,8.189
	c-3.129,3.696-4.827,7.458-5.094,11.287c-0.167,2.43,0.599,5.01,2.297,7.74c1.227,1.931,2.668,3.48,4.313,4.667
	c-1.322,0.512-2.42,1.179-3.265,2.024c-0.965,0.998-1.431,2.031-1.398,3.096c0.033,1.432,0.882,2.53,2.547,3.296
	c1.465,0.699,3.279,1.049,5.443,1.049c1.631,0,3.462-0.333,5.493-0.999c2.297-0.732,3.912-1.647,4.844-2.746
	c0.832-0.999,1.198-2.064,1.099-3.196c-0.1-0.999-0.533-1.931-1.298-2.796c-0.999-1.1-1.682-2.714-2.048-4.844
	c-0.333-2.031-0.233-3.313,0.3-3.846c2.003-2.003,4.632-4.096,7.871-6.275c1.522,0.428,3.418,0.79,5.712,1.082l8.789,0.399
	l0.999,0.149l0.999,0.749l4.944,4.694l3.696,3.945l1.647,3.596l1.548,4.294c0.2,0.767,0.133,1.382-0.199,1.849
	c-1.166,1.631-1.632,3.346-1.398,5.143c0.266,1.898,1.231,3.213,2.896,3.945c1.265,0.533,3.129,0.749,5.593,0.649
	c2.763-0.134,4.711-0.716,5.843-1.748c1.299-1.198,1.764-2.747,1.398-4.644c-0.363-1.785-1.421-3.278-3.158-4.486
	c1.83-1.85,3.02-4.66,3.558-8.448c0.161-1.133,0.233-2.226,0.245-3.29c1.977,0.688,3.994,1.237,6.054,1.647
	c0.248,0.148,0.479,0.303,0.742,0.444c4.395,2.363,8.506,2.496,12.335,0.399c0.035-0.019,0.063-0.045,0.098-0.064
	c3.729-0.261,7.573-0.898,11.537-1.933c12.669-3.331,21.677-9.84,27.045-19.51c0.42,0.352,0.889,0.682,1.42,0.982
	c1.798,0.965,3.828,1.448,6.092,1.448c3.297,0,6.026-0.899,8.19-2.696c2.163-1.798,3.495-4.278,3.995-7.441
	C198.417,153.596,197.751,150.666,195.953,148.068z M112.707,166.596c-2.63-2.797-5.942-5.177-9.938-7.141
	c0.066-3.13-0.582-7.391-1.947-12.785c-1.099-4.367-2.278-7.917-3.536-10.676c1.71,1.453,3.38,2.899,4.984,4.334
	c4.294,3.896,6.858,6.575,7.69,8.04c1.132,1.931,2.131,4.495,2.996,7.69c0.965,3.463,1.281,5.992,0.949,7.591l-0.979,3.184
	C112.854,166.755,112.779,166.671,112.707,166.596z M114.464,69.769c-0.895-1.763-2.308-3.644-4.253-5.645
	c-1.484-1.532-3.023-2.886-4.61-4.074c1.745,0.13,3.729-0.123,5.958-0.77c3.178-0.917,5.603-2.372,7.294-4.354
	c2.152,1.052,4.595,1.513,7.338,1.358c0.274-0.016,0.531-0.059,0.799-0.086C121.665,59.399,117.491,63.924,114.464,69.769z"/>
</svg>
