<?xml version="1.0" encoding="utf-8"?>
<!-- Generator: Adobe Illustrator 16.0.0, SVG Export Plug-In . SVG Version: 6.00 Build 0)  -->
<!DOCTYPE svg PUBLIC "-//W3C//DTD SVG 1.1//EN" "http://www.w3.org/Graphics/SVG/1.1/DTD/svg11.dtd">
<svg version="1.1" id="图层_1" xmlns="http://www.w3.org/2000/svg" xmlns:xlink="http://www.w3.org/1999/xlink" x="0px" y="0px"
	 width="215px" height="195px" viewBox="0 0 215 195" enable-background="new 0 0 215 195" xml:space="preserve">
<path d="M193.613,37.315C180.289,18.795,161.77,7.086,138.053,2.189c-14.623-3.031-29.846-2.648-45.668,1.149
	C76.496,7.169,61.639,14.048,47.815,23.975C34.658,33.401,23.882,44.56,15.488,57.451S2.13,83.35,0.598,96.474
	c-1.599,13.491,0.05,25.832,4.947,37.024c3.107,7.172,7.271,13.208,12.478,18.125c-0.553,1.251-0.955,2.711-1.186,4.409
	c-0.333,2.565,0.033,4.431,1.099,5.597c1.499,1.632,4.514,2.631,9.044,2.998c5.364,0.422,11.351-0.322,17.952-2.216
	c2.084,1.559,4.386,3.11,6.9,4.656c-3.336,5.997-4.248,10.068-2.718,12.198c1.833,2.599,6.746,2.998,14.74,1.199
	c3.329-0.745,6.476-1.753,9.459-2.999c9.709,3.579,19.2,5.873,28.465,6.847c16.123,1.699,30.996,0.766,44.619-2.798
	c3.12-0.82,6.135-1.784,9.063-2.864c2.686,4.279,5.476,7.639,8.374,10.059c2.832,2.365,5.28,3.432,7.346,3.198
	c2.064-0.267,4.279-2.964,6.645-8.095c2.635-5.819,4.58-13.206,5.849-22.135c7.548-6.897,13.653-15.264,18.285-25.132
	c5.03-10.692,7.961-22.301,8.794-34.825C212.384,76.971,206.672,55.502,193.613,37.315z"/>
</svg>
