<?xml version="1.0" encoding="utf-8"?>
<!-- Generator: Adobe Illustrator 16.0.0, SVG Export Plug-In . SVG Version: 6.00 Build 0)  -->
<!DOCTYPE svg PUBLIC "-//W3C//DTD SVG 1.1//EN" "http://www.w3.org/Graphics/SVG/1.1/DTD/svg11.dtd">
<svg version="1.1" id="图层_1" xmlns="http://www.w3.org/2000/svg" xmlns:xlink="http://www.w3.org/1999/xlink" x="0px" y="0px"
	 width="442px" height="473px" viewBox="0 0 442 473" enable-background="new 0 0 442 473" xml:space="preserve">
<path d="M431.19,229.254c-4.93-11.459-12.108-22.436-21.536-32.929c-9.094-10.127-19.704-19.154-31.83-27.083
	c-25.55-16.723-51.85-25.584-78.899-26.583c-18.422-0.7-36.294,1.949-53.616,7.945c-16.656,5.73-31.963,14.208-45.921,25.434
	c-13.758,11.06-25.4,24.118-34.928,39.175c-9.627,15.257-16.49,31.613-20.587,49.068c-5.363,22.953-5.83,44.406-1.399,64.359
	c4.416,19.902,13.227,35.949,26.409,48.163c-0.655,0.427-1.336,0.823-2.074,1.155c-2.865,1.267-6.33,1.482-10.394,0.65
	c-3.731-0.8-7.729-2.416-11.992-4.848c-8.761-4.996-16.423-7.578-22.986-7.744c-6.563-0.167-13.341,2.016-20.337,6.545
	c-3.931,2.565-6.862,3.748-8.794,3.549c-2.032-0.234-3.431-2.049-4.197-5.447c-0.533-2.232-0.5-5.38,0.1-9.443
	c0.533-3.632,1.582-8.346,3.148-14.142c2.198-8.228,3.598-13.94,4.197-17.14c1.432-7.628,2.015-14.924,1.749-21.886
	c-0.5-11.959-3.665-21.569-9.494-28.831c-1.356-1.681-2.767-3.135-4.232-4.368c-3.032-5.817-4.412-10.531-4.113-14.12
	c0.267-3.665,2.515-7.729,6.746-12.193c4.464-4.729,7.329-9.177,8.595-13.341c1.232-4.197,1.382-9.744,0.45-16.64
	c-0.7-5.063,0.117-9.161,2.448-12.292c1.093-1.465,2.659-2.8,4.695-4.006c7.321-0.948,14.384-3.507,21.188-7.687
	c6.096-3.731,11.426-8.311,15.99-13.741c4.464-5.363,8.361-11.743,11.693-19.138c4.031-8.994,5.213-18.422,3.547-28.282
	c-1.066-6.496-3.698-14.125-7.895-22.885c-1.499-3.165-1.749-6.513-0.75-10.044c1-3.564,3.148-6.962,6.446-10.193
	c5.896-5.729,13.408-9.294,22.536-10.693c10.26-1.599,20.354,0.083,30.281,5.047c15.723,7.829,28.898,10.077,39.525,6.746
	c10.26-3.198,16.623-11.009,19.088-23.435l2.398-11.243c1.166-4.264,2.415-7.146,3.748-8.645c2.631-2.898,5.813-4.047,9.543-3.448
	c3.165,0.533,7.546,2.532,13.143,5.996c8.994,5.63,17.422,7.795,25.283,6.496c7.529-1.233,13.492-5.43,17.889-12.592
	c4.897-7.995,5.48-16.39,1.749-25.184c-3.664-8.561-9.977-14.407-18.938-17.539c-5.563-1.966-10.86-2.349-15.89-1.149
	c-4.764,1.099-8.495,3.381-11.193,6.846c-2.789,3.594-3.969,7.687-3.557,12.274c-1.524-0.361-3.569-1.121-6.137-2.28l-9.295-4.447
	c-11.126-5.297-20.854-6.513-29.182-3.647c-8.194,2.798-14.59,9.377-19.188,19.737c-3.265,7.396-7.729,12.192-13.392,14.391
	c-3.631,1.399-7.928,1.699-12.892,0.899c-4.764-0.766-10.427-2.565-16.989-5.396c-16.057-6.996-31.997-9.027-47.82-6.096
	c-15.224,2.798-29.515,9.994-42.873,21.586c-2.932,2.565-4.93,5.563-5.996,8.994c-1.533,4.964-0.417,9.728,3.348,14.291
	c3.464,4.231,5.896,7.729,7.295,10.494c1.632,3.298,2.148,6.146,1.549,8.544c-0.6,2.365-2.249,4.53-4.947,6.496
	c-2.298,1.699-5.763,3.514-10.394,5.446c-25.284,10.527-43.706,23.585-55.265,39.175c-8.395,11.359-13.392,24.618-14.991,39.775
	c-1.066,9.86,0.55,17.289,4.847,22.286c4.197,4.897,11.593,8.111,22.186,9.644c7.961,1.166,13.108,3.531,15.44,7.095
	c2.132,3.165,1.732,6.663-1.199,10.494c-1.066,1.399-3.914,4.413-8.544,9.044c-9.328,9.328-14.874,14.975-16.64,16.939
	c-7.162,7.961-12.575,15.557-16.24,22.785c-5.263,10.394-8.578,22.453-9.943,36.178c-1.366,13.957-0.583,28.615,2.348,43.972
	c3.098,16.423,9.527,29.848,19.288,40.274c8.661,9.261,17.622,14.074,26.883,14.441c8.062,0.333,16.173-3.831,24.334-12.492
	c4.164-4.464,8.544-6.13,13.142-4.997c2.299,0.566,4.331,1.466,6.096,2.698c1.686,1.195,2.84,2.51,3.511,3.932
	c-0.004,0.005-0.008,0.01-0.013,0.016c-3.898,5.563-3.215,12.908,2.048,22.036c5.43,9.428,14.607,18.621,27.533,27.583
	c11.659,8.128,24.684,12.009,39.075,11.643c14.125-0.367,24.251-4.631,30.381-12.792c4.397-5.863,6.229-12.992,5.497-21.387
	c-0.633-7.462-3.131-14.907-7.496-22.336c-5.563-9.494-7.778-16.073-6.646-19.737c0.418-1.291,1.181-2.37,2.263-3.254
	c0.014,0.017,0.015,0.044,0.035,0.056c13.192,7.562,28.432,12.025,45.721,13.392c17.189,1.333,33.029-0.633,47.52-5.896
	c3.533-1.279,6.857-2.62,9.987-4.019c0.494,1.606,1.341,2.885,2.556,3.819c1.832,1.398,4.43,1.948,7.795,1.648
	c3.864-0.366,7.979-1.615,12.342-3.747c2.618-1.281,5.113-2.784,7.498-4.485c1.323,2.26,3.232,4.076,5.744,5.435
	c6.862,3.73,16.406,3.265,28.632-1.399c14.591-5.596,28.248-14.99,40.974-28.182c12.759-13.292,22.803-28.6,30.131-45.922
	c6.729-15.989,10.344-32.262,10.843-48.818C439.485,257.319,436.887,242.512,431.19,229.254z"/>
</svg>
