<?xml version="1.0" encoding="utf-8"?>
<!-- Generator: Adobe Illustrator 16.0.0, SVG Export Plug-In . SVG Version: 6.00 Build 0)  -->
<!DOCTYPE svg PUBLIC "-//W3C//DTD SVG 1.1//EN" "http://www.w3.org/Graphics/SVG/1.1/DTD/svg11.dtd">
<svg version="1.1" id="图层_1" xmlns="http://www.w3.org/2000/svg" xmlns:xlink="http://www.w3.org/1999/xlink" x="0px" y="0px"
	 width="158px" height="182px" viewBox="0 0 158 182" enable-background="new 0 0 158 182" xml:space="preserve">
<path d="M156.172,72.169c-2.234-0.6-6.604-1.15-13.104-1.65l-12.504-0.8c0.4-2.901,0.184-5.635-0.65-8.202l-1.301-3.551
	c3.002-2.234,9.687-6.886,20.057-13.954c1.398-0.934,1.867-1.868,1.4-2.801s-1.367-1.167-2.701-0.7
	c-1.301,0.434-4.719,1.851-10.253,4.251c-4.3,1.85-7.646,3.345-10.087,4.505c0.988-4.476,1.006-10.205,0.035-17.208
	c-1.234-8.836-3.002-13.72-5.303-14.654c-1.768-0.7-6.385,0.917-13.853,4.851c-4.014,2.111-7.521,4.321-10.545,6.624l-2.261-9.974
	l-4-17.104C90.736,0.434,90.003-0.167,88.902,0c-1.1,0.167-1.617,0.85-1.549,2.051l0.699,19.505l0.13,5.498l-0.128-0.396
	c-0.9-2.801-2.65-4.868-5.252-6.202c-2.601-1.334-5.285-1.55-8.052-0.65c-2.801,0.933-4.852,2.7-6.152,5.301
	c-1.304,2.542-1.532,5.165-0.701,7.867c-0.914-1.686-1.913-3.521-3.003-5.517C59.16,16.921,55.776,10.919,54.742,9.452
	c-1.1-1.5-2.267-2-3.5-1.5c-1.3,0.5-1.717,1.834-1.25,4.001c0.2,0.934,2.151,7.169,5.852,18.704l2.455,7.507
	c-3.793-1.301-8.249-2.309-13.408-3.004c-8.503-1.167-13.304-0.951-14.404,0.65c-2.334,3.435-1.967,10.253,1.1,20.456
	c2.274,7.486,4.687,13.284,7.238,17.404c-0.002,0.012-0.004,0.024-0.006,0.036c-3.601,0.35-8.553,0.969-14.884,1.864
	c-12.437,1.767-19.855,3.251-22.256,4.451c-1.167,0.601-1.65,1.384-1.45,2.351c0.201,1.034,1.017,1.568,2.451,1.601l35.9-1.141
	c0.241,1.724,0.639,3.438,1.208,5.141c0.688,2.095,1.613,4.007,2.758,5.75c-1.019,0.511-2.137,1.079-3.364,1.71
	c-1.399-2.905-3.712-5.209-6.945-6.909c-5.501-2.868-11.003-2.518-16.504,1.05C9.798,93.441,6.447,99.744,5.679,108.48
	c-0.667,7.47,0.584,14.321,3.751,20.556c2.967,5.836,7.235,10.485,12.803,13.954c5.535,3.435,11.553,5.185,18.055,5.251
	c6.698,0.065,13.06-1.707,19.092-5.289c0.319,0.507,0.668,1.003,1.065,1.485c1.314,1.607,2.92,2.895,4.802,3.879
	c0.094,0.989-0.123,1.849-0.65,2.574l-2.301,1.752l-21.106,10.701c-3.901,1.734-5.718,4.602-5.451,8.604
	c0.1,1.667,0.667,3.035,1.7,4.102c0.853,0.828,1.897,1.327,3.123,1.515c1.072,1.464,2.496,2.266,4.28,2.386
	c1.317,0.089,2.464-0.147,3.458-0.675c0.661,0.542,1.521,0.985,2.594,1.325c2.5,0.769,4.668-0.033,6.501-2.399
	c5.601-7.304,10.336-12.821,14.204-16.556c1.367-1.334,2.134-2.801,2.302-4.401c0.146-1.541-0.306-2.917-1.352-4.129
	c0.218-0.377,0.489-0.716,0.813-1.017c3.681,1.334,7.444,1.777,11.29,1.328c-0.697,0.824-1.104,2.021-1.201,3.614
	c-0.166,2.801,0.784,4.502,2.852,5.103c6.669,1.967,17.287,6.652,31.857,14.053c2.034,1.201,4.101,1.768,6.202,1.701
	c1.935-0.033,3.552-0.584,4.852-1.65c0.271-0.228,0.504-0.47,0.714-0.722l1.587-0.275c1.266-0.467,2.252-1.334,2.95-2.601
	c0.834-1.502,1.035-3.119,0.601-4.853c-0.038-0.148-0.095-0.286-0.142-0.429c0.871-2.959-0.22-5.354-3.307-7.174
	c-2.802-1.633-7.153-2.75-13.056-3.35l-12.453-2.302c-5.826-1.235-9.598-2.199-11.32-2.89c-0.074-0.489-0.058-1.04,0.066-1.661
	c0.013-0.065,0.032-0.129,0.047-0.193c1.422-0.924,2.762-2.001,4.007-3.257c2.767-2.837,4.604-6.371,5.555-10.569
	c1.377,1.332,3.249,2.664,5.625,3.997c0.676,2.85,2.326,5.011,4.974,6.473c2.733,1.5,5.334,1.732,7.801,0.699
	c0.947-0.401,1.696-0.946,2.26-1.626c2.783-0.948,4.286-2.721,4.492-5.327c0.201-2.467-0.516-4.517-2.15-6.15
	c-1.333-1.334-3.4-2.452-6.201-3.352c-2.867-0.968-4.635-1.734-5.301-2.302c-1.602-1.431-3.419-3.578-5.444-6.423
	c3.241-0.637,6.227-1.617,8.929-2.976c1.752,3.073,4.155,4.418,7.218,3.999c1.7-0.269,3.051-1.185,4.052-2.752
	c0.969-1.587,1.147-3.315,0.537-5.188c1.729-0.375,2.97-1.326,3.713-2.865c0.768-1.533,0.934-3.166,0.501-4.9
	c-0.399-1.533-1.301-2.701-2.7-3.502c-0.781-0.474-1.588-0.739-2.42-0.8c0.477-0.634,0.662-1.442,0.518-2.45
	c-0.133-1.066-0.549-1.967-1.25-2.7c-1.334-1.4-3.018-1.884-5.051-1.45c-2.101,0.434-3.9,1.732-5.401,3.9
	c-2,2.967-6.535,5.101-13.604,6.402c-1.103,0.205-2.201,0.366-3.299,0.504c-0.425-1.114-0.778-2.193-1.066-3.238
	c1.893-0.965,3.552-2.217,4.969-3.764c3.889-1.808,7.463-4.065,10.699-6.808c5.035-4.3,8.787-9.301,11.254-15.003l27.857-2.701
	c1.034-0.201,1.567-0.767,1.602-1.701C157.572,73.036,157.105,72.436,156.172,72.169z M21.485,118.143
	c0.486,0.29,1.006,0.549,1.599,0.74c2.767,0.901,5.468,0.85,8.102-0.15c2.501-0.933,4.652-2.584,6.452-4.95
	c2.161-2.813,3.212-6.324,3.165-10.529l7.984-3.169c3.309,2.298,7.392,3.997,12.256,5.094c2.426,0.549,4.956,0.93,7.583,1.152
	c-1.687,5.461-4.208,11.109-7.581,16.952c-1.742,3.031-2.839,6.087-3.323,9.164c-2.74,2.349-6.128,3.854-10.181,4.491
	c-4.135,0.635-8.169,0.283-12.104-1.051c-4.134-1.4-7.435-3.666-9.903-6.801C23.103,125.979,21.754,122.331,21.485,118.143z
	 M51.94,179.599l0.606-0.032c-0.2,0.024-0.401,0.038-0.603,0.033C51.942,179.6,51.941,179.599,51.94,179.599z"/>
</svg>
