<?xml version="1.0" encoding="utf-8"?>
<!-- Generator: Adobe Illustrator 16.0.0, SVG Export Plug-In . SVG Version: 6.00 Build 0)  -->
<!DOCTYPE svg PUBLIC "-//W3C//DTD SVG 1.1//EN" "http://www.w3.org/Graphics/SVG/1.1/DTD/svg11.dtd">
<svg version="1.1" id="图层_1" xmlns="http://www.w3.org/2000/svg" xmlns:xlink="http://www.w3.org/1999/xlink" x="0px" y="0px"
	 width="311px" height="265px" viewBox="0 0 311 265" enable-background="new 0 0 311 265" xml:space="preserve">
<path d="M304.459,58.93c3.229-5.658,5.109-10.784,5.643-15.377c0.532-4.56-0.383-7.639-2.746-9.237
	c-1.631-1.098-3.979-0.666-7.04,1.298c-2.696,1.697-7.057,5.342-13.081,10.934c-5.925,5.525-15.844,12.848-29.757,21.968
	c-12.116,7.955-19.888,12.665-23.316,14.129c-1.178,0.505-2.204,1.333-3.087,2.464c-1.864-4.219-4.893-7.656-9.096-10.302
	c-3.562-2.23-7.922-3.545-13.081-3.944c-3.372-0.238-6.116-0.004-8.253,0.685l-11.818-10.67c-6.59-5.825-10.551-9.203-11.883-10.135
	c-1.131-0.766-1.881-1.048-2.246-0.849c-0.366,0.167-0.434,0.832-0.199,1.997c0.266,1.464,1.58,5.359,3.943,11.683
	c2.226,5.98,4.133,10.568,5.729,13.806c-5.89-1.994-10.142-3.208-12.72-3.621c-0.932-0.167-1.48-0.1-1.646,0.2
	c-0.134,0.267,0.066,0.866,0.599,1.797c0.599,1.065,2.13,3.096,4.593,6.091l4.745,5.437c0,0.002-0.001,0.003-0.001,0.005
	c-1.831,7.356-5.227,16.293-10.186,26.811c-0.257,0.538-0.51,1.055-0.763,1.573c-2.85-2.433-6.252-3.468-10.222-3.071
	c-3.914,0.432-6.715,2.02-8.432,4.734c-1.011-0.785-2.125-1.468-3.351-2.038c-2.264-1.065-4.527-1.598-6.791-1.598
	c-3.628,0-6.856,1.015-9.686,3.045c-2.396,1.677-3.947,3.722-4.682,6.123c-1.158-2.797-2.23-5.779-3.207-8.969
	c-2.53-8.321-4.377-18.024-5.542-29.108c-0.5-4.394-2.48-8.621-5.941-12.682c-1.231-1.431-3.362-3.412-6.391-5.941l-7.489-4.893
	c-5.193-3.295-10.085-6.64-14.679-10.035c-7.656-5.625-14.762-11.3-21.319-17.025c-9.22-8.022-18.207-16.776-26.961-26.262
	c-4.827-5.192-8.721-7.706-11.683-7.539c-2.763,0.167-4.177,2.613-4.244,7.339c0.034,7.922,2.896,16.542,8.588,25.863
	c4.288,7.033,9.799,13.556,16.531,19.569c-13.592-6.915-21.595-8.093-23.97-3.493c-0.699,1.365-0.433,3.528,0.799,6.491
	c1.398,3.461,3.828,6.99,7.29,10.584c4.896,5.14,11.067,9.644,18.489,13.525c-4.036-1.003-7.33-1.573-9.852-1.692
	c-4.427-0.167-7.156,0.932-8.188,3.295c-0.732,1.665-0.216,3.961,1.548,6.89c1.831,3.063,4.593,6.042,8.288,8.937
	c5.74,4.543,12.132,7.806,19.169,9.803c-4.967,0.182-8.955,0.771-11.929,1.781c-3.995,1.398-5.992,3.495-5.992,6.291
	c0.1,4.26,4.127,7.938,12.083,11.034c5.203,2.025,11.123,3.25,17.757,3.678c-4.128,0.988-7.442,2.157-9.918,3.512
	c-3.262,1.797-4.776,3.711-4.543,5.741c0.233,1.765,1.348,3.495,3.345,5.192c2.197,1.864,5.009,3.246,8.438,4.145
	c5.049,1.344,10.516,1.462,16.396,0.37c-4.843,2.396-8.346,4.736-10.504,7.019c-2.33,2.43-2.979,4.627-1.947,6.591
	c0.833,1.465,2.53,2.597,5.093,3.396c2.663,0.832,5.758,1.131,9.287,0.898c3.054-0.188,6.029-0.722,8.93-1.587
	c-1.946,1.647-3.412,3.308-4.387,4.981c-1.298,2.264-1.531,4.095-0.699,5.492c0.654,1.058,1.554,1.859,2.689,2.414
	c-1.041,0.961-2.369,2.536-3.987,4.727c-0.749,1.013-1.448,2.004-2.116,2.981c-4.093-4.641-9.022-9.428-14.81-14.366
	c-5.259-4.492-10.551-8.587-15.877-12.281c-10.052-6.957-20.387-12.283-31.005-15.977c-8.388-2.93-15.361-4.395-20.92-4.395
	l-1.947,0.25c-0.266,0.199-0.333,0.633-0.2,1.298c1.198,5.259,5.392,12.499,12.582,21.719c7.589,9.753,15.328,17.392,23.216,22.917
	c9.353,6.557,19.705,11.6,31.055,15.128c5.326,1.631,10.784,2.862,16.376,3.694c6.497,6.887,14.943,11.569,25.309,14.081
	c1.606,3.721,3.951,7.067,7.045,10.034c2.802,2.677,6.313,5.111,10.514,7.311c0.439,0.646,1.061,1.35,1.917,2.126
	c1.398,1.265,2.696,2.13,3.895,2.597l5.492,0.35l9.268,0.965c0.053,0.955,0.171,1.883,0.368,2.779
	c0.433,1.896,1.148,3.445,2.147,4.643c0.632,0.732,1.315,1.1,2.047,1.1c0.766,0,1.248-0.45,1.448-1.349
	c0.799-3.329,2.829-7.106,6.091-11.333c0.136-0.179,0.281-0.35,0.418-0.526c2.405,1.381,6.147,4.058,11.265,8.065
	c5.459,4.295,8.895,7.312,10.341,9.068c-0.823,1.106-1.51,2.553-2.052,4.361c-0.5,1.631-0.766,3.063-0.8,4.294
	c0,0.666,0.35,1.032,1.049,1.099c0.731-0.033,1.747-0.467,3.046-1.299c3.794-2.43,9.885-4.692,18.273-6.789
	c7.789-1.932,13.447-2.797,16.975-2.597l3.994-0.499c1.252-0.495,1.994-1.231,2.228-2.21c0.473-0.22,0.931-0.508,1.368-0.886
	l1.049-0.898l1.098-0.649c2.63-0.832,2.613-2.03-0.05-3.595c-1.397-0.766-2.946-1.132-4.644-1.099
	c-0.61,0.023-1.142,0.115-1.636,0.238l0.238-0.238c0.965-0.966,1.798-1.664,2.496-2.097l1.349-0.898
	c0.766-0.633,0.965-1.266,0.599-1.897c-0.433-0.666-1.481-1.099-3.146-1.298l-4.643,0.398c-0.657,0.18-1.222,0.408-1.741,0.66
	c0.802-0.964,1.631-1.659,2.489-2.058c1.432-0.665,2.113-1.349,2.047-2.047c-0.066-0.699-0.781-1.249-2.146-1.647l-5.691-0.35
	c-0.95,0.206-1.753,0.532-2.417,0.972l-2.626-0.123c-1.198,0.3-2.146,1.032-2.846,2.196c-0.4,0.666-1.398,1.682-2.996,3.046
	c-1.564,1.331-3.346,2.68-5.342,4.044c-2.207,1.536-4.064,2.762-5.61,3.709l-4.575-0.264c-1.031-0.199-4.193-2.246-9.486-6.141
	c-5.077-3.701-8.859-6.762-11.38-9.198c2.521-2.338,5.297-4.5,8.335-6.479c3.262-2.131,5.242-3.545,5.941-4.244
	c1.064-1.095,1.641-2.468,1.731-4.115c0.849-2.04,1.652-3.354,2.411-3.923c1.133-0.933,1.582-1.647,1.349-2.147
	c-0.2-0.465-1.032-0.814-2.496-1.048c-1.364-0.233-2.88-0.067-4.544,0.499c-0.945,0.344-1.692,0.742-2.247,1.193l-1.247-0.195
	c-0.128,0.01-0.257,0.034-0.388,0.068c-0.03-0.114-0.063-0.223-0.108-0.319l1.295-2.345c0.599-0.998,1.248-1.781,1.947-2.347
	c1.364-1.132,1.914-2.03,1.646-2.696c-0.289-0.645-1.257-0.974-2.888-0.994c3.134-4.021,5.547-8.656,7.238-13.901
	c2.614,1.847,5.907,2.668,9.88,2.464c4.526-0.199,7.206-1.598,8.038-4.193c0.3-1.065,0.233-2.131-0.2-3.195
	c-0.11-0.258-0.245-0.501-0.391-0.738c3.004,0.931,6.095,1.534,9.278,1.786c6.956,0.532,10.935-0.948,11.933-4.443
	c0.199-0.833,0.1-1.747-0.3-2.746c-0.32-0.812-0.823-1.548-1.474-2.223c2.685,0.251,5.544,0.305,8.613,0.126
	c9.054-0.5,13.58-2.463,13.58-5.893c0.033-1.431-0.549-2.712-1.747-3.844c-0.46-0.459-0.985-0.869-1.575-1.232
	c2.919-0.148,5.824-0.54,8.715-1.214c8.021-1.864,12.115-4.677,12.282-8.438c-0.033-1.164-0.632-2.279-1.798-3.345
	c-0.804-0.759-1.786-1.397-2.924-1.934c5.163-0.809,9.886-2.356,14.158-4.657c3.295-1.797,5.775-3.794,7.439-5.99
	c1.598-2.098,2.13-3.961,1.598-5.593c-0.73-2.136-3.214-3.45-7.433-3.948c4.297-1.731,8.292-3.905,11.976-6.536
	c3.662-2.63,6.374-5.292,8.139-7.989c1.697-2.53,2.18-4.494,1.447-5.892c-0.932-1.531-3.111-2.396-6.54-2.596
	c-1.603-0.079-3.278,0.001-5.011,0.204c6.953-3.746,12.704-8.122,17.242-13.135c3.129-3.461,5.143-6.69,6.042-9.686
	c0.832-2.829,0.499-4.81-0.999-5.941c-1.564-1.165-3.928-1.398-7.09-0.699c-1.772,0.369-4.195,1.16-7.261,2.367
	C295.137,72.591,300.31,66.183,304.459,58.93z M195.217,143.358l-0.705-1.914c4.87-6.858,10.986-12.367,18.35-16.527
	c-1.648,3.59-3.993,7.125-7.059,10.602c-3.456,3.94-6.911,6.778-10.367,8.538C195.37,143.833,195.301,143.604,195.217,143.358z
	 M135.354,231.93l-0.749-0.775c0.908-0.78,1.791-2.067,2.646-3.867l1.677-4.033c0.99,0.902,2.457,2.012,4.414,3.334
	c1.663,1.116,2.972,1.922,3.939,2.428c-0.48,0.435-0.961,0.792-1.442,1.066l-0.849,0.35l-1.249,0.25L135.354,231.93z"/>
</svg>
