<?xml version="1.0" encoding="utf-8"?>
<!-- Generator: Adobe Illustrator 16.0.0, SVG Export Plug-In . SVG Version: 6.00 Build 0)  -->
<!DOCTYPE svg PUBLIC "-//W3C//DTD SVG 1.1//EN" "http://www.w3.org/Graphics/SVG/1.1/DTD/svg11.dtd">
<svg version="1.1" id="图层_1" xmlns="http://www.w3.org/2000/svg" xmlns:xlink="http://www.w3.org/1999/xlink" x="0px" y="0px"
	 width="380px" height="339px" viewBox="0 0 380 339" enable-background="new 0 0 380 339" xml:space="preserve">
<path d="M371.362,29.718c3.996-5.627,6.394-10.772,7.193-15.434c0.732-4.396-0.117-7.143-2.548-8.241
	c-0.865-0.4-2.064-0.283-3.596,0.35c-1.365,0.533-4.097,1.948-8.192,4.246c-13.253,7.525-30.118,15.434-50.598,23.725
	c-14.751,5.961-27.339,10.606-37.761,13.936c-3.796,1.166-6.543,2.747-8.242,4.745c-1.797,2.064-3.08,5.261-3.846,9.59
	c-0.699,3.728-1.522,7.295-2.456,10.722c0.899-4.688,1.357-9.756,1.357-15.217c-0.033-16.55-4.146-30.202-12.337-40.958
	c-8.525-11.222-19.73-16.833-33.615-16.833c-10.906,0-20.992,2.833-30.266,8.468c-3.372-5.329-8.448-8.239-15.237-8.717
	c-6.693-0.5-12.42,1.332-17.182,5.494c-8.225,7.192-12.604,16.133-13.136,26.822c-0.403,8.194,1.396,16.5,5.388,24.917
	c0.476,1.089,0.994,2.127,1.539,3.131c-1.224,0.948-2.58,1.905-4.08,2.871c-2.098,1.332-3.479,3.081-4.146,5.245
	c-0.533,1.932-0.466,3.963,0.2,6.094c0.533,1.365,1.049,2.098,1.548,2.198c0.4,0.067,0.999-0.266,1.798-0.999l2.747-2.747
	c0.825-0.782,1.502-1.352,2.058-1.751c1.311,0.629,2.926,1.071,4.885,1.302c1.484,0.18,2.927,0.22,4.335,0.142
	c0.357,0.399,0.712,0.803,1.059,1.219c-0.518,1.417-1.975,4.149-4.395,8.23l-6.194,10.239
	c-6.544,10.843-10.354,20.956-11.448,30.343c-12.423,3.158-24.391,10.013-35.906,20.569c-11.884-20.013-29.489-39.898-52.842-59.653
	c-9.058-7.659-17.882-14.319-26.473-19.979c-7.759-5.161-13.536-8.358-17.332-9.59l-2.397-0.299
	c-0.533,0.233-0.833,0.916-0.899,2.048c0,3.396,0.949,8.708,2.847,15.934c2.098,7.925,4.862,16.316,8.292,25.174
	c8.633,22.246,18.715,40.555,30.236,54.951c-1.267-0.394-2.207-0.647-2.814-0.757l-2.048,0.05c-0.266,0.233-0.216,0.882,0.15,1.948
	c1.299,3.896,3.78,8.791,7.442,14.685c4.762,7.625,10.189,14.568,16.283,20.828c6.863,7.008,14.029,12.576,21.487,16.749
	c2.355,5.072,5.438,9.26,9.252,12.561c-0.03,1.077-0.01,2.088,0.079,3.007c0.732,6.193,2.348,12.404,4.845,18.631
	c0.03,0.069,0.072,0.138,0.104,0.207c-0.799,1.614-1.202,4.85-1.202,9.732c0,0.474,0.107,0.926,0.289,1.362l-0.439,4.582
	l-0.603,4.179l-6.09-4.479c-1.132-0.732-1.715-0.416-1.749,0.949c0.033,1.564,0.5,5.178,1.398,10.839
	c0.933,5.595,1.648,9.274,2.148,11.038l-0.749,6.744l-1.299,8.24c-0.3,1.399-0.999,3.164-2.098,5.295l-1.099,1.998l-0.649,1.349
	c-0.255,0.925-0.124,3.394,0.384,7.37l-4.43,4.268c-2.231,1.232-3.58,2.432-4.046,3.597c-0.362,1.113-0.465,2.251-0.338,3.411
	c-0.106,0.141-0.212,0.28-0.312,0.436c-0.966,1.465-1.449,3.296-1.449,5.494c0,2.131,0.433,4.045,1.299,5.744
	c0.799,1.631,1.615,2.43,2.447,2.396c0.866,0,1.682-0.748,2.448-2.247l1.918-3.665l2.328-0.281c1.132-0.499,1.948-1.281,2.447-2.348
	l1.648-2.447l2.048-3.346c0.5-1.1,1.315-2.182,2.447-3.247c0.999-0.966,1.665-1.415,1.998-1.349c0.4,0.033,1.099,0.732,2.098,2.098
	c0.965,1.365,1.565,2.431,1.798,3.197c2.017,6.848,5.498,10.611,10.435,11.309l2.102,3.226c0.933,1.765,1.932,2.664,2.997,2.697
	c0.999,0,1.865-0.899,2.597-2.697c0.799-1.964,1.132-4.396,0.999-7.292c-0.031-0.826-0.214-1.617-0.537-2.377
	c0.203-0.549,0.306-1.132,0.31-1.748c1.004,0.581,2.21,0.989,3.673,1.178c2.132,0.313,3.71,0.059,4.75-0.749
	c2.338,0.988,4.239,2.218,5.689,3.696c0.866,0.832,1.615,1.099,2.248,0.799s0.982-0.999,1.049-2.098
	c0.167-3.197-0.483-6.061-1.948-8.592c-0.983-1.698-2.097-2.82-3.336-3.395l-0.91-1.55c-0.799-1.132-1.499-1.849-2.098-2.147
	l-4.295-0.649c-4.828-0.2-9.34-1.698-13.536-4.495c-3.862-2.564-6.06-5.145-6.593-7.742c-0.1-0.233-0.149-1.1-0.149-2.598
	c0-2.863,0.183-7.393,0.549-13.586c0.3-5.295,0.516-8.491,0.649-9.59l3.914-18.042c0.287-0.175,0.551-0.368,0.781-0.589
	c0.6-0.666,1.332-2.031,2.198-4.096c0.695-1.658,1.106-2.9,1.243-3.742c0.822-0.307,1.721-0.673,2.703-1.104l12.487-8.291
	c2.634-1.805,4.882-3.333,6.761-4.598c3.51,0.259,6.962,0.384,10.354,0.367c1.216,2.54,3.065,4.983,5.562,7.327
	c0.737,0.702,1.479,1.313,2.225,1.869l0.972,7.022c0.2,0.699,0.718,1.398,1.555,2.098l2.45,6.876
	c-3.482-0.315-5.705-0.345-6.652-0.083l-0.849,0.6c-0.066,0.166,0.017,0.516,0.25,1.049l5.844,6.243
	c3.729,3.929,5.877,6.343,6.443,7.242c1.265,1.965,2.314,4.579,3.146,7.843c0.833,3.263,1.249,6.359,1.249,9.289l-0.25,2.947
	c-0.266,1.532-0.15,2.848,0.35,3.946c0.633,1.365,1.815,2.214,3.546,2.548c1.166,0.232,4.029,1.165,8.591,2.797l8.541,3.196
	c2.298,0.966,4.628,2.431,6.993,4.396l3.196,2.947c0.833,0.633,2.165,0.932,3.996,0.898c1.521,0,2.782-0.204,3.815-0.589
	c0.587,0.203,1.142,0.426,1.63,0.689l2.646,1.948l2.498,1.498l1.947-0.05c0.367-0.3,0.566-0.949,0.6-1.948
	c0-1.932-0.749-4.079-2.248-6.443c-0.524-0.815-1.053-1.519-1.585-2.122l1.028-0.045l1.406,0.618
	c1.698,0.666,2.997,1.283,3.896,1.849c1.098,0.699,1.998,1.049,2.697,1.049h0.049c0.899,0,1.365-0.666,1.398-1.998
	c-0.033-1.298-0.832-3.163-2.396-5.595c-0.506-0.789-1.004-1.473-1.494-2.074c1.927,0.179,3.586,0.578,4.94,1.226l1.848,0.55
	l1.149-0.15c0.232-0.199,0.35-0.615,0.35-1.248c-0.033-0.633-0.25-1.332-0.65-2.098c-0.766-1.565-1.664-2.931-2.696-4.096
	c-0.995-1.149-1.981-1.949-2.957-2.413c-0.498-0.879-1.348-1.629-2.587-2.233c-1.232-0.599-2.465-0.898-3.697-0.898l-8.191,0.25
	c-5.86,0-11.154-0.85-15.883-2.547c-4.329-1.532-7.809-3.646-10.439-6.344c-0.999-0.899-3.213-5.844-6.643-14.835
	c-2.918-7.606-4.663-12.46-5.237-14.566c0.325-0.309,0.543-0.63,0.642-0.968c0.698-3.274,1.141-5.604,1.334-7.016
	c4.061-1.753,8.625-4.703,13.701-8.867c7.68-6.314,12.526-11.948,14.563-16.906c0.557-0.409,1.129-0.8,1.671-1.226
	c9.057-7.093,15.084-15.435,18.081-25.024c0.646-2.05,1.14-4.138,1.498-6.259c2.391,2.99,5.782,5.064,10.19,6.209
	c4.828,1.265,8.158,0.915,9.989-1.049c0.999-1.099,1.349-2.53,1.049-4.296c-0.105-0.608-0.3-1.217-0.542-1.825
	c2.625,1.234,5.417,2.18,8.384,2.824l10.09,0.35c3.03-0.565,5.128-1.765,6.294-3.597c0.799-1.265,0.799-2.847,0-4.744
	c-0.454-1.071-1.145-2.18-2.054-3.32c3.756,1.151,7.638,1.809,11.644,1.971c4.295,0.167,7.925-0.332,10.889-1.498
	c2.896-1.132,4.495-2.664,4.795-4.596c0.267-1.964-0.749-3.912-3.047-5.843c-1.225-1.05-2.889-2.142-4.966-3.271
	c4.142,0.523,8.229,0.403,12.259-0.375c3.762-0.766,6.842-2.048,9.24-3.846c2.397-1.798,3.729-3.879,3.996-6.244
	c0.1-1.665-0.699-3.097-2.398-4.295c-0.389-0.283-0.836-0.562-1.339-0.835c4.571,0.246,8.802-0.084,12.678-1.013
	c3.929-0.933,7.026-2.414,9.29-4.445c2.132-1.898,3.214-3.996,3.247-6.294c-0.066-1.698-1.432-3.296-4.096-4.795
	c-1.312-0.732-2.716-1.321-4.195-1.797c5.661-0.609,10.572-1.774,14.734-3.498c7.726-3.23,11.604-7.559,11.638-12.987
	c0-2.597-1.599-4.378-4.795-5.344c-1.418-0.427-3.374-0.727-5.836-0.905c4.603-1.464,9.097-3.354,13.478-5.688
	c5.462-2.897,9.507-5.944,12.138-9.141c2.73-3.363,3.479-6.343,2.248-8.94c-1.232-2.398-4.896-3.363-10.989-2.897
	c-1.449,0.126-3.778,0.479-6.979,1.056c6.36-3.181,12.353-7.337,17.968-12.494c4.762-4.396,8.191-8.674,10.289-12.837
	c2.131-4.129,2.431-7.176,0.899-9.14c-1.731-2.198-5.262-2.564-10.589-1.099l-10.283,3.761
	C360.566,42.376,366.584,36.382,371.362,29.718z M152.339,22.276c0.819-4.008,2.037-7.539,3.653-10.596
	c1.832-2.292,5.042-2.873,9.633-1.741c4.637,1.175,7.726,3.76,9.303,7.722c-5.157,4.844-9.383,10.123-12.668,15.84
	c-1.902,0.85-3.778,2.612-5.625,5.308c-0.59,0.857-1.119,1.753-1.62,2.667c-0.546-0.507-1.136-1.202-1.777-2.117
	c-1.021-1.39-1.645-2.678-1.917-3.874C151.086,31.141,151.419,26.738,152.339,22.276z M234.993,13.39
	c5.411,4.176,9.651,10.026,12.697,17.577c2.997,7.426,4.495,15.484,4.495,24.175c0,11.388-1.98,20.862-5.943,28.42
	c-3.264,6.194-8.625,12.254-16.084,18.182c-10.579,8.355-19.252,15.967-26.05,22.849c-1.106-2.67-1.964-6.139-2.57-10.412
	c-0.699-4.695-1.032-9.873-0.999-15.534c0-10.456,0.982-19.896,2.947-28.321c2.667-11.051,3.953-18.398,3.865-22.06
	c2.034-3.909,4.441-8.592,7.223-14.052l1.398-2.348c0.6-0.899,0.866-1.432,0.8-1.599c-0.033-0.2-0.499-0.316-1.398-0.35
	l-8.342-0.899l-6.044-1.199l-6.793-0.799c4.329-4.262,8.408-7.509,12.238-9.74c6.127-3.596,12.537-5.378,19.229-5.345
	C228.895,11.937,232.003,12.426,234.993,13.39z M165.825,99.696c-0.098,7.898-2.996,15.225-8.678,21.981
	c-3.213-0.49-6.344-0.681-9.395-0.578c1.997-7.889,5.739-15.74,11.229-23.551c2.44-3.471,4.218-6.515,5.356-9.146
	C165.353,92.681,165.861,96.458,165.825,99.696z M245.842,105.64c-7.717,9.767-16.655,15.781-26.806,18.065
	c5.487-4.729,11.888-9.784,19.214-15.168c7.422-5.437,13.082-11.56,17-18.363C252.572,95.92,249.441,101.082,245.842,105.64z"/>
</svg>
