<?xml version="1.0" encoding="utf-8"?>
<!-- Generator: Adobe Illustrator 16.0.0, SVG Export Plug-In . SVG Version: 6.00 Build 0)  -->
<!DOCTYPE svg PUBLIC "-//W3C//DTD SVG 1.1//EN" "http://www.w3.org/Graphics/SVG/1.1/DTD/svg11.dtd">
<svg version="1.1" id="图层_1" xmlns="http://www.w3.org/2000/svg" xmlns:xlink="http://www.w3.org/1999/xlink" x="0px" y="0px"
	 width="165px" height="301px" viewBox="0 0 165 301" enable-background="new 0 0 165 301" xml:space="preserve">
<path d="M162.667,245.225c-0.532-3.029-1.465-5.594-2.796-7.69l-3.646-5.542c-1.465-2.33-2.38-4.078-2.746-5.244l-0.022,0.002
	c2.181-7.043,3.205-16.758,3.068-29.162c-0.097-7.314-1.771-13.692-5.008-19.144l3.11-7.272c1.798-4.527,2.88-7.523,3.245-8.987
	c0.334-1.365,0.383-2.197,0.15-2.497l-2.247,0.051l-4.194,1.498l1.848-6.742l1.198-5.842c0.3-2.264-0.45-2.746-2.247-1.448
	c-3.289,2.312-10.202,7.802-20.72,16.45c-2.324-0.543-4.769-0.855-7.343-0.92c-3.396-0.101-8.655-0.034-15.779,0.199l-14.331,0.648
	l-0.749-0.199c-0.1-0.1-0.15-0.333-0.15-0.699l-0.748-13.382l-1.648-21.921c6.025-8.789,10.553-16.062,13.582-21.821
	c0.832-1.498,1.148-2.447,0.949-2.846c-0.233-0.366-1.132-0.466-2.697-0.299l-7.04,0.999l4.894-11.884l4.744-12.134
	c0.632-1.698,0.799-2.713,0.499-3.046l-3.196,0.1l-11.984,2.547l0.101-16.329l-0.05-12.483c-0.066-1.731-0.283-2.696-0.649-2.896
	c-0.333-0.167-1.298,0.15-2.896,0.949L58.855,63.865c-0.1-1.232-0.216-4.644-0.35-10.236l-0.299-10.486
	c-0.1-1.798-0.333-2.763-0.699-2.896c-0.333-0.133-1.132,0.35-2.397,1.448l-8.189,7.391C44.158,22.287,42.41,6.524,41.678,1.797
	c-0.167-1.132-0.549-1.714-1.148-1.748c-0.632-0.066-1.182,0.483-1.648,1.648c-2.43,5.925-6.558,18.342-12.383,37.25
	c-5.593,18.309-9.088,30.126-10.486,35.453c-0.466,1.798-0.549,2.863-0.25,3.196c0.3,0.366,1.165,0.183,2.597-0.549l19.075-10.336
	l0.949,10.037c0.119,1.199,0.231,2.266,0.337,3.217c-2.426,0.514-5.034,2.063-7.828,4.673c-4.094,3.861-6.874,8.905-8.339,15.13
	c-4.228-0.233-8.206,0.166-11.934,1.198c-6.358,1.797-9.82,5.227-10.386,10.286c-0.766,6.492,3.179,12.633,11.834,18.426
	c7.653,5.073,17.272,8.686,28.849,10.847c-1.154,6.109-2.216,12.493-3.183,19.163c-0.2,1.465-0.566,2.863-1.098,4.195l-2.297,5.393
	c-2.729,6.291-4.344,12.616-4.843,18.975c-0.5,6.391,0.133,12.583,1.897,18.575c1.564,5.326,3.362,10.319,5.393,14.979l4.444,9.438
	l2.546,5.593c0.766,1.864,1.298,3.729,1.598,5.593l3.295,21.222l2.227,15.222c-0.817,5.473-1.684,9.701-2.598,12.686
	c-0.483,1.163-0.868,2.269-1.126,3.301c-0.399,1.799-0.283,3.213,0.35,4.245c0.599,0.933,1.615,1.548,3.046,1.848l5.043-0.35
	c1.931-0.633,3.295-1.564,4.095-2.796c1.198-1.898,4.078-7.757,8.638-17.577c5.126-10.985,7.84-17.76,8.139-20.323l0.2-4.494
	l-0.549-8.888l-0.599-6.392c-0.033-1.099,0.316-2.23,1.049-3.396l4.694-7.04c2.972-4.693,5.08-8.551,6.348-11.598l0.893,2.06
	c1.132,2.364,2.363,4.527,3.695,6.491c2.323,3.396,4.728,5.857,7.21,7.4l-1.068,5.433l-2.546,11.186
	c-0.833,3.795-2.164,8.987-3.996,15.579l-3.118,10.694c-1.025,2.081-1.21,3.73-0.526,4.935c0.366,0.633,1.099,1.148,2.197,1.549
	l2.646,0.549l3.695-0.25c1.231-0.299,2.097-0.766,2.596-1.398c2.797-3.461,6.309-9.82,10.537-19.074
	c3.994-8.688,6.374-14.813,7.14-18.375c0.433-2.031,0.483-4.943,0.149-8.738l-1.048-8.489c-0.101-0.933-0.083-1.681,0.05-2.247
	c0.133-0.466,0.433-1.099,0.898-1.897l1.75-3.097c2.028,4.39,4.955,8.335,8.786,11.835c3.623,3.288,7.048,5.401,10.275,6.344
	c2.336,4.409,3.96,8.803,4.854,13.181c0.966,4.793,1.798,11.219,2.497,19.273c0.732,8.789,0.948,15.68,0.649,20.674l0.021-0.002
	c-0.045,0.304-0.101,0.617-0.121,0.9c-0.101,1.863,0.332,3.063,1.298,3.596c0.898,0.531,1.98,0.814,3.245,0.848
	c1.232,0.033,2.464-0.183,3.695-0.648c2.031-0.732,3.313-1.848,3.846-3.346c0.766-2.098,1.646-5.992,2.646-11.685
	c1.197-6.69,2.047-13.216,2.546-19.573C163.549,255.012,163.433,249.484,162.667,245.225z"/>
</svg>
