<?xml version="1.0" encoding="utf-8"?>
<!-- Generator: Adobe Illustrator 16.0.0, SVG Export Plug-In . SVG Version: 6.00 Build 0)  -->
<!DOCTYPE svg PUBLIC "-//W3C//DTD SVG 1.1//EN" "http://www.w3.org/Graphics/SVG/1.1/DTD/svg11.dtd">
<svg version="1.1" id="图层_1" xmlns="http://www.w3.org/2000/svg" xmlns:xlink="http://www.w3.org/1999/xlink" x="0px" y="0px"
	 width="347px" height="413px" viewBox="0 0 347 413" enable-background="new 0 0 347 413" xml:space="preserve">
<path d="M342.954,149.982c-0.767-1.4-1.883-2.983-3.35-4.75l-4.149-4.649l-4.6-5.25c-1.666-2.167-2.866-4.233-3.6-6.199
	c-0.833-2.266-1.649-5.866-2.449-10.798c-0.767-4.633-2.767-9.399-5.999-14.298c-1.833-2.749-3.827-5.218-5.968-7.436
	c-0.037-2.21-0.152-4.629-0.345-7.258c2.657-1.917,5.03-4.434,7.127-7.54c0.934,0.677,1.755,1.233,2.435,1.636
	c1.5,0.9,2.417,1.2,2.75,0.9c0.333-0.267,0.35-1.25,0.05-2.95c-0.263-1.482-0.789-3.577-1.574-6.268
	c0.993-2.314,1.809-4.672,2.424-7.081c0.601-2.5,0.934-4.667,1-6.5c0.033-1.233-0.149-2-0.55-2.3c-0.667-0.5-2.399-0.5-5.199,0
	l-2.681,0.603l-5.368-15.251C305.609,23.697,300.459,9.782,297.46,2.85c-0.899-2.1-1.683-3.05-2.351-2.85
	c-0.666,0.2-1.016,1.45-1.049,3.75c-0.033,4,0.899,24.047,2.799,60.143l-1.999,0.4l-3.004,0.39l-7.995-17.588l-9.648-20.647
	c-4.833-10.099-7.982-16.298-9.449-18.598c-1.533-2.433-2.35-2.233-2.449,0.6c-0.033,2.333,0.3,9.232,1,20.697
	c0.832,13.232,1.749,25.43,2.749,36.596l-5.45,0.451c-0.563-0.511-1.156-1.041-1.799-1.601c-3.833-3.3-7.549-6.183-11.148-8.649
	c-2.434-1.667-3.883-2.483-4.35-2.45c-0.967,0.066-1.283,1.866-0.949,5.399c0.433,4.5,1.082,9.449,1.949,14.848
	c0.732,4.613,1.375,7.845,1.929,9.705c-8.206-4.787-14.124-7.862-17.728-9.205c-1.332-0.5-2.199-0.6-2.6-0.3
	c-0.366,0.233-0.583,1.033-0.649,2.4c-0.067,2.233,0,5.966,0.2,11.199c0.3,7.466,0.85,15.648,1.649,24.547
	c-4.366-3-7.732-5.099-10.099-6.299c-1.5-0.733-2.449-0.933-2.85-0.6c-0.3,0.267-0.416,1.083-0.35,2.449
	c0.199,5.966,1.133,14.548,2.799,25.747c-1.5-1.566-2.999-2.966-4.499-4.199c-1.533-1.333-2.466-1.967-2.8-1.9
	c-0.566,0.1-0.85,1.316-0.85,3.649c0,3.6,0.55,12.015,1.65,25.247c-1.334-1.6-3.184-3.533-5.55-5.799
	c-1.967-1.866-2.917-1.517-2.851,1.05c0.101,3.2,0.467,7.699,1.101,13.499c-10.132-6.933-16.415-10.832-18.848-11.699l-1.75-0.05
	c-0.233,0.233-0.233,0.783,0,1.649c0.634,1.933,2.716,6,6.249,12.199c-11.898-9.332-19.614-15.015-23.147-17.048
	c-0.9-0.5-1.566-0.683-2-0.55c-0.567,0.2-0.617,0.933-0.15,2.2c0.833,2.333,3.316,7.199,7.449,14.598l-18.548-14.098
	c-10.599-7.899-18.431-13.482-23.497-16.748c-2.3-1.467-2.983-0.934-2.05,1.6c1.533,4.033,4.85,10.732,9.949,20.098
	c-20.731-8.032-37.946-14.365-51.644-18.998c-8.632-2.933-15.015-4.899-19.147-5.899c-0.833-0.167-1.383-0.083-1.65,0.25
	c-0.3,0.367-0.217,1,0.25,1.9c0.966,1.866,3.366,5.366,7.199,10.499c5.632,7.499,13.365,17.131,23.197,28.896
	c-15.298,0.2-28.03,1.133-38.196,2.8c-3.133,0.466-6.049,1.066-8.749,1.8c-3.433,1-5.283,1.816-5.549,2.45
	c-0.267,0.667,0.833,1.866,3.299,3.6l11.149,6.949c6.799,4.233,10.465,6.699,10.999,7.399c-6.466,4.933-12.599,11.665-18.398,20.198
	c-4.766,6.999-9.049,14.798-12.848,23.396c-0.6-1.266-1.65-3.149-3.15-5.648c-1.8-3-3.316-5.283-4.549-6.85
	c-1.1-1.367-1.833-2.083-2.2-2.15c-0.567-0.066-0.917,0.951-1.05,3.051c-0.2,3.066,0.017,7.148,0.65,12.248
	c-10.065,4.799-18.248,9.432-24.547,13.898c-2.133,1.5-1.966,2.366,0.5,2.6c2.566,0.3,8.433,0.184,17.598-0.35
	c-2.633,5.633-5.083,11.498-7.349,17.598c-1.7,4.566-2.933,8.232-3.7,10.998c-0.333,1.301-0.333,2.15,0,2.55
	c0.367,0.5,1.167,0.233,2.4-0.8c2.533-2.066,5.749-4.999,9.648-8.799c4.333-4.199,7.666-7.699,9.999-10.498
	c0.633,5.365,1.216,8.948,1.75,10.748c0.333,1.133,0.766,1.75,1.3,1.85c0.433,0.066,0.966-0.482,1.6-1.649
	c1.133-2.101,2.9-6.466,5.299-13.099c4.266,3.266,9.016,6.365,14.249,9.299c2.366,1.3,3.116,0.617,2.25-2.05l-2-6.05
	c-1.233-3.398-2.85-7.382-4.85-11.947c2.266-3.167,4.383-6.717,6.349-10.649c0.533-1.1,0.683-1.833,0.45-2.2
	c-0.2-0.333-0.95-0.566-2.25-0.699l-10.898-0.301c4.133-7.698,9.982-15.465,17.548-23.297c4.299-4.433,9.782-9.449,16.448-15.048
	l3.6-3.1c0.733-0.733,1.1-1.316,1.1-1.75c0-0.767-0.883-2.133-2.65-4.099c-2.3-2.566-5.649-5.583-10.049-9.049
	c10.932,1.967,18.765,3.783,23.497,5.45c-1.899,2.733-3.483,5.299-4.749,7.699c-2.167,4.066-3.683,9.766-4.55,17.099
	c-0.633,5.465-0.95,12.348-0.95,20.646c0,3.867,0.167,8.916,0.5,15.148l0.9,12.549l0.05,0.75l-0.8,0.35
	c-2.366,0.233-4.266,0.667-5.699,1.3c-2.7,1.2-4.633,3.25-5.799,6.149c-0.767,1.866-1.983,6.732-3.649,14.598l-4.7,22.398
	l-2.899,12.248c-2.2,8.999-3.966,15.564-5.299,19.697c-2.333,7.066-3.5,12.748-3.5,17.049c0,3.436,0.97,6.427,2.894,8.98
	c-2.997,4.233-3.617,7.69-1.843,10.367c1.667,2.499,5.482,4.549,11.448,6.148c5.833,1.533,9.649,1.666,11.449,0.4
	c0.533-0.4,1-1.217,1.4-2.449c0.4-1.367,0.6-2.95,0.6-4.75c0-3.434-0.317-6.5-0.95-9.199c-0.933-3.899-2.7-8.133-5.299-12.698
	c-0.367-0.634-0.55-1.6-0.55-2.899c0-2.8,1.083-7.183,3.25-13.148l5.949-14.799l1.8-4.6c5.033-12.998,9.116-22.63,12.249-28.896
	c1.733-3.466,2.983-5.549,3.75-6.248l8.649-0.4c6.566-0.867,12.615-2.867,18.148-6c6.035-3.418,11.068-8.692,15.114-15.797
	c1.985,1.25,3.929,2.426,5.838,3.538l0.295,4.21c0.152,2.012,0.292,3.615,0.423,4.838l-3.022,1.512
	c-1.733,1.133-2.65,2.616-2.75,4.449c-0.133,2.1,0.533,5.899,2,11.398c1.533,5.833,3.799,12.965,6.799,21.398
	c2.966,8.398,5.733,16.83,8.299,25.297l4.049,14.298c0.6,2.566,1.217,4.583,1.85,6.049c0.833,1.967,1.899,3.583,3.199,4.85
	c1.9,1.833,3.183,3.733,3.85,5.699c0.333,1,0.6,2.683,0.8,5.05c0.2,2.033,0.517,3.549,0.95,4.549c0.633,1.434,1.65,2.45,3.049,3.05
	c1.867,0.8,4.9,1.333,9.1,1.601c4.333,0.266,7.35,0.066,9.049-0.601c1.5-0.634,2.333-1.899,2.5-3.8
	c0.267-2.832-0.316-6.032-1.75-9.599c-1.367-3.399-3.083-6.132-5.149-8.198c-2.1-2.066-5.083-4.2-8.948-6.4
	c-0.334-0.899-1.25-4.398-2.75-10.498c-1.801-7.399-3.233-13.998-4.3-19.798c-1.333-7.266-2.383-14.614-3.149-22.048
	c-0.667-6.365-0.883-9.981-0.65-10.848l5.85-3.5c3.338-2.207,5.823-4.37,7.487-6.49c5.129,1.753,9.73,3.078,13.804,3.975
	c2.013,3.402,4.064,5.977,6.156,7.715c0.332,0.767,1.399,6.166,3.199,16.198l5.049,29.546c0.765,4.724,1.622,9.8,2.563,15.191
	c-1.709,5.111-2.582,8.184-2.612,9.206c-0.101,1.399,0.317,2.899,1.25,4.499c1.566,2.566,2.35,4.45,2.35,5.65
	c0,0.533-0.183,1.249-0.55,2.148l-0.9,2.101l-1.799,4.349c-0.967,2.434-1.45,4.084-1.45,4.95c0,1.134,0.316,2.183,0.95,3.149
	c1.166,1.6,3.066,2.967,5.699,4.1c2.818,1.172,5.994,1.83,9.505,2.01c0.091,0.98,0.108,1.977,0.044,2.989
	c-0.167,2.134,0.116,4.033,0.85,5.699c0.699,1.733,1.767,2.934,3.199,3.6c2.033,0.934,5.283,1.351,9.749,1.25
	c4.7-0.133,8.232-0.85,10.599-2.149c1.6-0.9,2.367-2.833,2.3-5.8c-0.066-2.366-0.6-4.849-1.6-7.448
	c-2.033-5.3-7.216-11.615-15.548-18.948c-0.385-0.904-1.237-7.377-2.558-19.403c2.175-4.656,5.608-12.897,10.306-24.741
	c5.229-13.165,10.761-27.651,16.596-43.442c2.181-1.794,4.463-4.037,6.852-6.752c6.367-7.299,11.433-15.998,15.199-26.097
	c3.766-9.966,5.648-20.497,5.648-31.596c0-3.6-0.383-7.1-1.149-10.499l-1.75-6.149l-0.399-1.7l0.549-1.349
	c2.867-6.599,5.066-13.932,6.6-21.998c1.251-6.618,1.795-12.148,1.649-16.617c4.704,2.231,9.219,3.757,13.545,4.586
	c3.711,2.243,7.329,3.711,10.853,4.382c4.767,0.867,10.032,0.217,15.799-1.95c5.266-2,8.599-4.2,9.998-6.599
	c1-1.7,1.467-4.533,1.4-8.499C345.054,155.614,344.32,152.348,342.954,149.982z M228.923,313.932
	c-1.003-10.84-1.505-17.479-1.505-19.917l1.311-5.636l5.089-1.214c0.388-0.11,0.774-0.237,1.161-0.356
	c0.386,0.387,0.878,0.789,1.488,1.207C235.871,292.092,233.355,300.733,228.923,313.932z"/>
</svg>
