<?xml version="1.0" encoding="utf-8"?>
<!-- Generator: Adobe Illustrator 16.0.0, SVG Export Plug-In . SVG Version: 6.00 Build 0)  -->
<!DOCTYPE svg PUBLIC "-//W3C//DTD SVG 1.1//EN" "http://www.w3.org/Graphics/SVG/1.1/DTD/svg11.dtd">
<svg version="1.1" id="图层_1" xmlns="http://www.w3.org/2000/svg" xmlns:xlink="http://www.w3.org/1999/xlink" x="0px" y="0px"
	 width="158px" height="239px" viewBox="0 0 158 239" enable-background="new 0 0 158 239" xml:space="preserve">
<path d="M156.752,112.687c-0.898-3.127-4.574-10.38-11.029-21.759c-6.653-11.711-10.962-18.265-12.925-19.663
	c-3.194-2.295-11.212-5.606-24.054-9.931c-9.043-3.029-16.038-4.95-21.013-5.778l1.399-24.315c0.398-6.987,0.532-10.68,0.398-11.079
	c-0.266-0.765-2.761-3.976-7.484-9.631C77.054,4.542,73.827,1.199,72.363,0.5c-0.766-0.366-3.893-0.083-9.382,0.849
	c-5.589,0.932-8.667,1.763-9.232,2.495c-0.998,1.297-2.995,4.94-5.989,10.929c-2.994,6.055-4.641,9.798-4.94,11.229
	c-0.133,0.799,1.414,5.623,4.641,14.473l4.99,13.175c0.267,0.632,1.813,2.312,4.642,5.04l4.27,3.86
	c-1.045,0.503-2.114,1.026-3.222,1.58c-11.279,5.623-18.582,10.347-21.908,14.173c-1.464,1.664-5.207,8.301-11.229,19.912
	c-6.022,11.611-9.116,18.149-9.282,19.613c-0.161,1.257-0.135,5.814,0.079,13.651c-1.32,0.545-3.839,1.914-7.564,4.115
	c-4.259,2.495-6.903,4.176-7.935,5.04C0.1,140.834,0,141.05,0,141.283c0,1.83,0.649,6.454,1.946,13.873
	c1.364,7.553,2.412,12.377,3.144,14.473c1.431,3.127,8.634,9.965,21.609,20.512l0.549,0.148c7.152-1.491,12.884-2.787,17.239-3.895
	l3.622,2.896c1.796,1.398,3.011,2.229,3.643,2.496c1.996,0.865,10.463,3.609,25.401,8.234l-3.743,6.837
	c-1.564,3.094-2.212,5.058-1.946,5.889c0.433,1.198,3.46,4.642,9.083,10.331c6.089,6.188,11.112,10.629,15.072,13.324
	c1.662,1.164,10.995-0.566,27.996-5.19c0.433-0.2,1.348-1.663,2.744-4.392c1.365-2.695,2.047-4.292,2.047-4.791
	c0-0.632-2.445-4.824-7.336-12.576c-3.862-6.131-6.759-10.572-8.691-13.326c4.235-1.712,11.686-7.261,22.365-16.666
	c10.147-8.95,16.069-14.806,17.766-17.567c1.266-2.063,2.496-10.048,3.693-23.954C157.401,124.032,157.584,115.615,156.752,112.687z
	"/>
</svg>
