<?xml version="1.0" encoding="utf-8"?>
<!-- Generator: Adobe Illustrator 16.0.0, SVG Export Plug-In . SVG Version: 6.00 Build 0)  -->
<!DOCTYPE svg PUBLIC "-//W3C//DTD SVG 1.1//EN" "http://www.w3.org/Graphics/SVG/1.1/DTD/svg11.dtd">
<svg version="1.1" id="图层_1" xmlns="http://www.w3.org/2000/svg" xmlns:xlink="http://www.w3.org/1999/xlink" x="0px" y="0px"
	 width="377px" height="306px" viewBox="0 0 377 306" enable-background="new 0 0 377 306" xml:space="preserve">
<path d="M369.545,171.34c-1.568-2.002-7.022-8.156-16.363-18.465c-3.811-4.229-6.37-7.197-7.699-8.925l3.746-4.486l3.002-4.454
	l6.105-18.314c3.937-12.477,5.721-19.766,5.354-21.868c-0.467-2.635-9.257-9.908-26.371-21.817
	c-17.681-12.277-30.023-19.216-37.029-20.817c-2.234-0.534-5.338-0.233-9.307,0.901c-2.06,0.575-4.867,1.567-8.41,2.966
	c-0.027-3.608-0.159-6.522-0.397-8.721c-0.534-4.771-1.634-8.473-3.302-11.108c-1.102-1.702-5.672-3.22-13.711-4.554
	c-7.674-1.234-12.294-1.501-13.861-0.801c-0.968,0.467-3.854,2.919-8.657,7.356c-1.332,1.233-2.475,2.313-3.44,3.253
	c-0.569-0.184-1.124-0.362-1.666-0.536c-5.368-12.908-10.638-22.958-15.811-30.14c-5.037-7.005-9.44-10.592-13.21-10.759
	c-2.136-0.1-5.071,1.818-8.808,5.755c-2.568,2.668-6.254,7.189-11.059,13.561l-4.454,5.705l-0.05,0.1
	c-1.33,2.222-3.75,6.675-7.241,13.322c-0.805-1.245-2.204-3.208-4.218-5.916c-3.136-4.17-5.004-6.455-5.604-6.855
	c-12.81-4.003-20.25-5.571-22.318-4.704c-1.134,0.467-3.636,3.536-7.506,9.208c-3.703,5.371-5.738,8.673-6.105,9.908l1.701,11.159
	l1.68,9.935l-4.432,3.477l-4.167,3.162c-3.469-4.507-9.249-12.244-17.35-23.229c-0.267-0.367-1.018-0.867-2.252-1.501l-4.103-2.202
	l-6.055-3.703c-2.235-1.535-3.819-2.902-4.753-4.103c-0.567-0.768-1.351-1.185-2.352-1.251c-0.734-0.067-2.152,0.851-4.253,2.752
	c-1.334,1.234-2.552,2.452-3.653,3.653c-0.4,0.467-1.101,5.471-2.102,15.012l-1.351,14.211c-0.1,0.968,0.383,2.769,1.451,5.404
	l3.653,9.007c4.183,10.485,6.724,18.762,7.635,24.843c-1.363,1.139-2.756,2.428-4.182,3.88c-2.235,2.268-3.353,3.786-3.353,4.553
	l0.072,5.295c-3.486-2.17-9.584-5.563-18.336-10.199c-14.678-7.806-22.868-11.609-24.569-11.409c-2.302,0.3-5.571,2.752-9.808,7.356
	l-12.36,14.562c-4.937,5.838-10.725,11.576-17.364,17.214c-0.734,0.4-0.701,8.307,0.1,23.719l1.451,26.121
	c-0.067,2.367,1.768,7.305,5.504,14.811c3.19,6.407,6.194,11.269,9.018,14.638c0.575,3.209,3.187,9.998,7.846,20.391
	c5.238,11.677,8.74,17.814,10.509,18.415l11.059,4.453c7.539,2.736,11.709,3.57,12.51,2.502c0.9-1.18,1.526-12.226,1.877-33.128
	c3.305-2.634,8.516-9.167,15.637-19.614c7.773-11.408,11.976-18.548,12.61-21.416c0.162-0.778,0.165-3.666,0.012-8.626
	c0.554,0.238,1.101,0.51,1.639,0.819c1.101,0.634,1.735,1.15,1.901,1.551c3.335,7.269,7.121,13.363,11.347,18.316l-0.238,0.799
	c-1.234,4.471-1.935,7.39-2.102,8.758c-0.1,0.867,1.468,5.271,4.704,13.21l5.104,12.26c0.234,0.834,1.185,1.769,2.853,2.802
	c1.668,1.035,2.969,1.535,3.903,1.502c1.168-0.066,1.785-0.301,1.852-0.701c0.801-3.202,2.202-7.623,4.204-13.26
	c0.804-2.291,1.52-4.226,2.151-5.813l2.303,2.01c1.368,1.201,2.285,1.818,2.752,1.852l8.957-0.25
	c4.708-0.192,7.822-0.27,9.394-0.235c0.301,4.512,0.374,7.885,0.214,10.094c-0.1,1.533,0.851,4.67,2.852,9.406
	c2.068,4.871,3.653,7.457,4.754,7.757c1.034,0.3,4.203-1.885,9.507-6.556c4.304-3.803,7.239-6.588,8.807-8.356
	c0.757-0.893,1.782-2.488,3.066-4.762c3.481,0.623,8.311,2.375,14.498,5.263c5.751,2.707,9.926,5.083,12.569,7.137
	c-0.646,4.037-1.3,7.241-1.96,9.576c-0.234,0.867,0.684,2.035,2.752,3.503s3.619,2.052,4.654,1.751
	c2.922-0.83,8.043-4.702,15.36-11.614l3.504-1.396l7.206-3.403c6.305-2.936,10.559-4.837,12.76-5.704
	c5.138-2.002,9.441-3.103,12.91-3.303l7.307,0.5c1.938,0.28,3.532,0.577,4.801,0.89c0,0.004,0.001,0.007,0.002,0.011
	c1.535,7.473,2.469,12.678,2.803,15.613c0.167,1.602,1.451,3.52,3.854,5.754c1.448,1.389,4.14,3.592,8.047,6.592
	c0.188,3.327,0.258,8.833,0.209,16.527l-0.45,20.666c-0.033,0.9,2.569,2.119,7.806,3.653c5.238,1.534,8.307,1.951,9.208,1.251
	c4.403-3.303,9.808-9.424,16.213-18.365c4.146-5.806,7.396-11.056,9.776-15.77c3.549-2.21,8.826-7.29,15.844-15.255
	c7.974-9.04,12.327-15.229,13.061-18.564l2.102-9.958c1.368-6.205,2.719-11.643,4.054-16.313c1.134-4.037,2.785-9.525,4.954-16.464
	l3.102-10.208C376.149,181.281,374.148,177.111,369.545,171.34z"/>
</svg>
