<?xml version="1.0" encoding="utf-8"?>
<!-- Generator: Adobe Illustrator 16.0.0, SVG Export Plug-In . SVG Version: 6.00 Build 0)  -->
<!DOCTYPE svg PUBLIC "-//W3C//DTD SVG 1.1//EN" "http://www.w3.org/Graphics/SVG/1.1/DTD/svg11.dtd">
<svg version="1.1" id="图层_1" xmlns="http://www.w3.org/2000/svg" xmlns:xlink="http://www.w3.org/1999/xlink" x="0px" y="0px"
	 width="355px" height="381px" viewBox="0 0 355 381" enable-background="new 0 0 355 381" xml:space="preserve">
<path d="M354.251,315.726c-0.6-19.015-2.631-33.101-6.095-42.259c-0.599-1.598-1.481-2.497-2.646-2.697
	c-1.1-0.166-1.882,0.283-2.348,1.35c-1.965,4.795-6.161,12.154-12.588,22.078c-3.672,5.67-6.979,10.568-9.937,14.73
	c-2.93-6.864-7.391-15.983-13.391-27.368c-1.882-3.56-3.597-6.737-5.153-9.555c0.685-4.837,2.535-13.354,5.553-25.561
	c2.997-12.056,5.562-21.712,7.692-28.972c0.6-1.998,0.6-6.927,0-14.785l-1.049-11.189c0-0.932-0.949-2.081-2.847-3.446
	c-1.965-1.398-3.464-1.648-4.496-0.75c-0.566,0.533-2.547,2.914-5.943,7.143l-13.138,16.983l-6.144,8.691l-3.497,4.945
	c-0.966,1.231-2.563,2.381-4.795,3.446l-5.645,2.397l-2.515,1.149c-0.119-0.079-0.23-0.148-0.347-0.224
	c0.614-1.401,1.233-2.864,1.862-4.422c2.73-6.794,4.213-11.456,4.445-13.986c0.1-1.065-0.6-2.714-2.098-4.945
	c-1.565-2.331-2.83-3.363-3.797-3.097c-0.732,0.199-3.796,2.997-9.19,8.392l-6.521,6.729l-5.677-20.635
	c2.869-4.913,4.838-8.503,5.904-10.77c0.832-1.765,1.865-5.295,3.098-10.589c1.265-5.528,1.664-8.675,1.198-9.441
	c-0.466-0.799-2.314-1.065-5.544-0.799l-5.445,0.799c-2.221,1.147-4.332,2.243-6.345,3.292l-4.077-15.335l1.881,0.106
	c0.419-0.03,1.438-1,3.044-2.891c1.313,0.986,2.755,2.046,4.349,3.19c0.466,0.233,0.965,0.1,1.498-0.399
	c0.566-0.566,0.783-1.215,0.649-1.948l-1.508-6.857l6.853-9.027l3.746-5.145c0.732-2.098,2.281-10.156,4.646-24.176
	c2.298-13.587,3.514-21.529,3.646-23.827c0-0.699-0.532-1.132-1.599-1.299c-1.032-0.2-1.932-0.083-2.697,0.35
	c-0.666,0.367-3.33,2.781-7.992,7.243l-7.115,7.07l-5.164-6.51c-0.094-1.395-0.196-2.861-0.309-4.406
	c-0.932-12.788-1.814-21.246-2.646-25.375c-0.699-3.53-5.494-14.253-14.387-32.168c-8.357-16.917-13.104-26.074-14.235-27.473
	c-0.532-0.699-1.765-1.515-3.696-2.447c-2.197-1.065-3.547-1.166-4.046-0.3c-1.132,2.031-2.065,5.428-2.798,10.19
	c-0.332,2.298-0.749,6.194-1.248,11.688l-0.2,2.748l-0.3,2.098c-2.531,9.89-3.696,17.233-3.496,22.028
	c0.133,2.831-0.383,8.259-1.549,16.284l-1.099,5.744c-0.401,1.873-0.655,3.351-0.777,4.472c-1.783,0.939-3.966,2.29-6.565,4.07
	c-3.14,2.16-5.741,4.107-7.809,5.844c-0.429-1.836-0.887-3.774-1.382-5.844c-2.797-11.588-4.829-19.63-6.094-24.126
	c-0.233-0.733-1.049-1.132-2.447-1.199c-1.399-0.1-2.265,0.15-2.598,0.75c-1.43,2.76-3.201,7.753-5.312,14.976
	c-1.045-3.237-3.221-8.761-6.526-16.574c-4.462-10.489-7.343-16.467-8.642-17.932c-0.566-0.666-1.698-1.232-3.396-1.698
	c-1.765-0.533-2.781-0.45-3.047,0.25l-2.847,8.691c-1.865,5.828-2.764,9.024-2.697,9.591c1.332,8.958,2.63,19.813,3.896,32.568
	c1.598,15.784,2.148,25.891,1.648,30.32c-0.067,0.766,0.066,1.932,0.399,3.497l1.199,5.694c1.872,10.388,3.092,19.146,3.678,26.32
	c-1.812,3.294-4.065,7.336-6.77,12.143l-13.342-18.282c-9.657-12.787-15.318-19.397-16.983-19.83
	c-0.533-0.133-1.981,2.064-4.346,6.593c-2.364,4.462-3.63,7.359-3.796,8.691c-0.233,2.298,0.466,8.442,2.098,18.432l1.998,13.887
	c0.566,4.729,0.783,7.892,0.649,9.49c-0.067,1.132,0.999,6.361,3.197,15.685l3.219,13.5l-1.72,3.033
	c-0.446,1.071-0.879,5.46-1.299,13.146c-1.661-2.446-3.405-5.008-5.245-7.701l-19.631-28.473c-0.5-0.732-1.365-1.282-2.597-1.648
	c-1.399-0.4-2.415-0.233-3.047,0.5c-0.999,1.166-2.647,3.514-4.945,7.043c-2.697,4.129-4.479,7.227-5.345,9.291
	c-0.36,0.884,0.392,11.274,2.257,31.153l-7.901-18.167c-4.462-10.057-6.927-15.451-7.393-16.184
	c-0.233-0.433-0.583-0.582-1.049-0.449c-0.732,0.199-2.714,2.164-5.944,5.895c-3.363,3.796-5.045,6.193-5.045,7.192
	c0,2.464,0.583,15.851,1.748,40.16l1.665,35.26c-0.622,0.414-1.149,0.861-1.585,1.339c-1.446-2.503-2.826-4.872-4.125-7.078
	c-0.6-1.031-1.099-1.481-1.499-1.348c-0.333,0.1-0.683,0.749-1.049,1.947c-0.859,2.828-1.68,5.918-2.462,9.27
	c-1.559-3.025-4.58-8.124-9.077-15.313c-0.866-1.399-1.482-2.032-1.849-1.898c-0.299,0.1-0.749,0.949-1.349,2.547
	c-1.765,4.695-4.396,12.305-7.892,22.828C2.397,318.189,0,326.564,0,328.963l0.3,0.799c0.2,0.3,0.416,0.467,0.649,0.5l14.094-0.047
	c0.894,2.629,2.581,7.894,5.064,15.807c-0.985,12.812-0.796,21.535,0.572,26.148c0.233,0.766,5.744,0.732,16.534-0.1l22.528-1.549
	l3.596,4.096c2.031,2.198,3.796,3.83,5.295,4.896c0.566,0.366,4.929-0.766,13.087-3.396c6.833-2.203,12.457-4.199,16.896-5.995
	c3.154-0.722,9.291-1.271,18.42-1.647l18.232-0.499c1.499-0.133,7.176-2.581,17.033-7.344c0.3-0.266,0.2-2.064-0.3-5.395
	l-1.698-12.287c-0.033-0.666-0.549-1.766-1.548-3.297l-3.597-5.445c-1.298-1.998-2.431-4.096-3.396-6.293
	c-0.999-2.165-1.532-3.764-1.599-4.795c-0.2-3.197-0.366-7.359-0.5-12.488l-0.2-11.139c-0.03-0.856-0.56-2.62-1.58-5.273
	l1.591-0.836c2.004,0.901,5.829,2.471,11.477,4.711c7.526,2.963,11.655,4.495,12.388,4.595l25.425,1.099l19.207-0.592
	c-1.553,4.003-2.895,9.093-4.021,15.277c-1.266,6.727-1.615,10.54-1.049,11.439l12.188,0.449l13.275-0.23
	c-0.303,1.548-0.681,3.696-1.137,6.475c-0.833,5.194-1.183,8.425-1.05,9.69c0.067,0.799,4.796,3.862,14.187,9.19
	c9.157,5.195,14.452,7.959,15.885,8.292c0.398,0.067,0.965-0.066,1.697-0.399l1.599-0.75c1.731-0.699,3.081-0.815,4.046-0.35
	l3.746,2.798l1.898,1.448c0.633,0.4,1.166,0.517,1.599,0.35c2.931-1.031,6.243-1.98,9.94-2.847
	c3.829-0.933,7.409-1.632,10.739-2.099l6.243-0.599l3.204-0.343l3.739,0.193l8.342,1.098c3.098,0.5,6.527,1.183,10.29,2.049
	l3.946,0.549c0.866-0.332,2.281-2.613,4.246-6.843c1.914-4.121,2.776-6.775,2.604-7.988c11.722-0.972,17.858-2.005,18.375-3.101
	C354.168,343.448,354.75,333.042,354.251,315.726z"/>
</svg>
