<?xml version="1.0" encoding="utf-8"?>
<!-- Generator: Adobe Illustrator 16.0.0, SVG Export Plug-In . SVG Version: 6.00 Build 0)  -->
<!DOCTYPE svg PUBLIC "-//W3C//DTD SVG 1.1//EN" "http://www.w3.org/Graphics/SVG/1.1/DTD/svg11.dtd">
<svg version="1.1" id="图层_1" xmlns="http://www.w3.org/2000/svg" xmlns:xlink="http://www.w3.org/1999/xlink" x="0px" y="0px"
	 width="253px" height="197px" viewBox="0 0 253 197" enable-background="new 0 0 253 197" xml:space="preserve">
<path d="M252.251,24.325c-4.161-4.693-9.853-8.971-17.077-12.833c-6.823-3.662-14.08-6.474-21.77-8.438
	c-8.288-2.097-16.428-3.079-24.416-2.946c-8.256,0.167-15.578,1.531-21.97,4.095c-1.364,0.532-2.047,1.182-2.047,1.947
	c0,0.732,0.482,1.298,1.448,1.697c9.486,4.194,15.063,12.799,16.727,25.814c1.097,8.536-0.982,17.191-6.22,25.964l-3.917,1.697
	c-0.565-2.629-1.331-4.926-2.297-6.89c-0.932-1.798-1.78-2.796-2.546-2.996c-1.165-0.299-3.312,0.316-6.44,1.848
	c-3.263,1.631-5.909,3.495-7.939,5.592c0.232-2.031,0.232-4.061,0-6.092c-0.233-2.164-0.649-3.345-1.248-3.545
	c-0.933-0.3-3.08,0.799-6.441,3.295c-2.492,1.814-4.468,3.549-5.939,5.206c-1.277-3.114-3.4-6.214-6.394-9.3
	c-2.862-2.963-4.876-4.46-6.042-4.494c-1.631-0.033-4.593,1.981-8.887,6.042c-3.833,3.64-6.666,7.511-8.526,11.605
	c-0.189-0.543-0.44-1.164-0.761-1.869c-0.766-1.598-1.398-2.396-1.897-2.396c-1.398-0.067-3.678,3.928-6.841,11.983
	c-2.23-2.097-4.976-3.928-8.238-5.493c-3.096-1.498-5.043-2.047-5.842-1.647c-1.298,0.699-2.563,4.028-3.794,9.986
	c-1.175,5.906-1.507,10.815-1.016,14.752c-1.188-0.288-2.472-0.563-3.877-0.822c-4.594-0.833-7.24-0.866-7.939-0.1
	c-0.379,0.402-0.583,1.479-0.617,3.198c-1.899-0.392-3.966-1.142-6.223-2.299c-5.359-2.696-9.52-6.641-12.483-11.834
	c-4.627-8.155-4.543-18.558,0.25-31.207l0.549-1.947l-1.298-0.1c-5.825,2.23-11.534,5.526-17.126,9.887
	c-5.526,4.327-10.602,9.42-15.229,15.278C13.797,72.192,10.069,78.15,6.74,84.841c-3.462,6.99-5.675,13.215-6.641,18.674
	c-0.2,0.965-0.183,1.664,0.05,2.098c0.014,0.029,0.033,0.048,0.048,0.074c-0.015,0.059-0.033,0.116-0.048,0.175
	c0.029-0.035,0.062-0.072,0.092-0.107c0.33,0.443,0.946,0.219,1.855-0.691c3.795-3.762,7.407-6.358,10.835-7.789
	c3.396-1.432,6.974-1.848,10.735-1.249c4.76,0.799,8.805,3.095,12.133,6.89c1.831,2.098,3.512,4.827,5.043,8.189l1.099,1.697
	c0.399,0.299,0.766,0.166,1.098-0.399c3.262-5.493,7.257-9.388,11.983-11.685c4.568-2.251,9.591-2.839,15.061-1.796l0.168,2.146
	l-3.595,0.949c-0.965,0.399-1.432,0.916-1.398,1.548c0.034,0.632,0.633,1.78,1.798,3.445l2.696,3.445
	c-1.764,1.231-3.928,3.411-6.491,6.541c-2.729,3.296-4.044,5.509-3.944,6.641c0.1,1.132,1.731,2.847,4.893,5.144
	c2.77,2.017,5.126,3.359,7.08,4.043c-0.688,0.668-1.432,1.446-2.236,2.348c-1.964,2.23-2.863,3.777-2.696,4.644
	c0.133,0.665,0.732,1.081,1.797,1.248l3.945,0.149c-0.732,1.831-1.381,4.561-1.947,8.189c-0.599,3.895-0.649,6.291-0.15,7.189
	c0.632,1.065,2.197,1.98,4.693,2.746c2.729,0.865,5.509,1.148,8.338,0.85c-0.499,2.963-0.799,5.625-0.898,7.988
	c-0.167,3.029,0.083,4.693,0.749,4.993c0.599,0.267,1.614-0.349,3.045-1.847c1.332-1.432,2.364-2.863,3.096-4.295
	c0.399,5.16,1.831,9.92,4.294,14.281c2.063,3.694,3.794,5.625,5.193,5.791c1.042,0.095,3.147-1.966,6.288-6.128
	c0.034,0.112,0.066,0.22,0.103,0.337c0.732,2.296,1.448,4.077,2.147,5.342c0.732,1.332,1.348,2.014,1.847,2.047
	c0.5,0.033,0.949-0.615,1.348-1.947l2.197-7.189c1.897,4.461,4.677,8.305,8.338,11.533c2.996,2.631,5.193,3.912,6.59,3.846
	c0.766-0.033,1.848-1.332,3.246-3.895c1.298-2.396,2.246-4.627,2.846-6.691c2.031,2.23,4.012,3.928,5.941,5.094
	c1.531,0.932,2.547,1.281,3.047,1.048c0.465-0.2,0.648-1.397,0.549-3.595c-0.1-2.064-0.383-3.912-0.849-5.543
	c2.597,1.798,5.426,3.246,8.487,4.344c2.896,1.033,5.477,1.615,7.74,1.748l3.346-0.35c0.599-0.332,1.031-0.898,1.298-1.697
	c0.466-1.266,0.716-3.313,0.749-6.142l-0.35-6.241c1.165,0.799,2.446,1.498,3.845,2.097c1.464,0.6,2.38,0.782,2.746,0.55
	c0.565-0.4,0.282-2.497-0.849-6.291c2.23,0.965,4.66,1.681,7.289,2.146l4.693-0.1c0.467-0.5,0.583-1.697,0.35-3.596
	c-0.232-1.963-0.766-4.011-1.598-6.141c2.963,1.431,6.292,2.33,9.986,2.695c3.263,0.3,5.227,0.134,5.893-0.499
	c0.599-0.599,0.632-2.995,0.1-7.19c-0.633-4.76-1.814-10.135-3.545-16.127c2.264,0.299,4.41,0.283,6.441-0.051
	c1.797-0.299,2.846-0.715,3.145-1.248c0.334-0.632,0.051-1.963-0.848-3.994c-1.1-2.529-2.896-5.409-5.393-8.638
	c2.029-1.099,4.377-2.963,7.039-5.593c2.83-2.763,4.244-4.71,4.244-5.842c0.033-1.332-2.229-3.313-6.79-5.941
	c-3.033-1.743-5.744-3.051-8.144-3.938c1.156-0.825,2.355-1.899,3.6-3.253c1.531-1.631,2.247-2.663,2.147-3.096
	c-0.101-0.499-0.616-0.915-1.548-1.248l-5.793-0.999c1.465-2.663,2.73-6.092,3.795-10.286c1.066-4.161,1.332-6.641,0.799-7.439
	c-0.465-0.699-2.063-1.298-4.793-1.797l-7.289-0.749l2.611-6.485c2.308-1.602,4.762-3.023,7.374-4.25
	c9.354-4.394,19.673-5.908,30.958-4.544c0.565,0.067,0.898-0.017,0.998-0.25l-0.15-0.799c-1.93-6.091-2.68-11.517-2.246-16.277
	c0.399-4.594,1.881-8.405,4.443-11.434c2.363-2.83,5.643-4.81,9.836-5.942c4.195-1.132,9.139-1.381,14.83-0.749
	c0.666,0.1,1.032-0.017,1.099-0.35C252.767,25.107,252.617,24.758,252.251,24.325z"/>
</svg>
