<?xml version="1.0" encoding="utf-8"?>
<!-- Generator: Adobe Illustrator 16.0.0, SVG Export Plug-In . SVG Version: 6.00 Build 0)  -->
<!DOCTYPE svg PUBLIC "-//W3C//DTD SVG 1.1//EN" "http://www.w3.org/Graphics/SVG/1.1/DTD/svg11.dtd">
<svg version="1.1" id="图层_1" xmlns="http://www.w3.org/2000/svg" xmlns:xlink="http://www.w3.org/1999/xlink" x="0px" y="0px"
	 width="357px" height="332px" viewBox="0 0 357 332" enable-background="new 0 0 357 332" xml:space="preserve">
<path d="M355.552,18.041c-2.064-0.1-6.677,0.799-13.835,2.697c-9.955,2.63-19.994,6.293-30.116,10.988
	c-13.252,6.16-25.038,12.918-35.36,20.277c-14.617,10.421-28.119,23.124-40.505,38.107c-3.263-0.965-7.241-1.432-11.937-1.398
	c-5.061,0.067-7.741,0.833-8.041,2.297c-0.3,1.465,1.498,3.113,5.395,4.945c3.529,1.665,7.491,2.913,11.887,3.746
	c7.857,18.779,9.672,36.642,5.443,53.59c-2.197,8.724-6.543,16.898-13.035,24.522c-3.084,3.628-6.593,7.034-10.505,10.232
	l-3.53,0.356c1.732-2.931,3.363-6.676,4.895-11.238c1.666-4.961,2.064-7.791,1.199-8.49c-0.999-0.766-3.346,0-7.042,2.297
	c-1.741,1.094-3.259,2.154-4.567,3.186c0.313-1.68,0.543-3.404,0.672-5.183c0.466-6.293-0.898-12.836-4.096-19.628
	c-1.498-3.23-3.846-7.109-7.042-11.637c-3.596-9.689-7.907-18.896-12.936-27.619c-5.327-9.223-10.938-16.964-16.831-23.224
	c-2.863-3.03-5.577-4.612-8.141-4.745c-2.264-0.1-4.928,0.949-7.991,3.146c-5.061,3.629-10.488,8.624-16.282,14.983
	c-9.656,10.588-16.682,21.609-21.077,33.063c-2.197,2.297-4.079,4.562-5.644,6.792c-3.529,4.895-5.877,9.739-7.042,14.534
	c-0.866,3.629-1.299,7.142-1.299,10.538c0,1.472,0.079,2.917,0.223,4.341c-2.37-1.379-4.61-2.347-6.716-2.893l-4.645,0.2
	c-0.6,0.633-0.75,2.514-0.45,5.644c0.1,1.023,0.244,1.995,0.407,2.943c-3.949-7.02-6.393-14.094-7.299-21.223
	c-0.399-3.33-0.6-6.526-0.6-9.589c0-11.221,2.447-21.692,7.342-31.415c2.697-5.327,5.644-9.672,8.84-13.035l11.587-0.5
	c4.928-0.633,7.392-1.748,7.392-3.346c0-1.365-2.664-2.73-7.991-4.096c-4.395-1.132-8.091-1.765-11.088-1.898
	c-2.497-6.559-4.811-11.887-6.942-15.982C82.457,63.24,74.766,52.136,65.177,41.015C53.157,27.097,39.639,16.226,24.622,8.401
	C19.428,5.738,14.434,3.624,9.639,2.059C6.01,0.893,3.413,0.277,1.848,0.211c-0.699-0.034-1.199,0.1-1.499,0.399
	C-0.083,1.043-0.1,1.609,0.299,2.309l2.597,3.246c4.661,5.427,8.457,10.622,11.387,15.583c5.294,8.923,8.99,18.513,11.087,28.768
	c4.462,21.775,1.016,39.489-10.338,53.14c-0.866,1.065-1.298,1.748-1.298,2.048c0,0.399,0.233,0.766,0.699,1.099l2.347,1.398
	c4.562,2.431,8.174,4.778,10.838,7.042c5.127,4.295,8.79,9.356,10.988,15.183c2.497,6.626,3.396,13.552,2.697,20.777
	c-0.366,3.896-1.365,8.391-2.997,13.485l-0.599,2.297c-0.1,0.433-0.067,0.783,0.1,1.049l0.999,0.648l2.497,0.6
	c4.195,0.932,7.525,1.865,9.989,2.797c4.828,1.798,8.89,4.212,12.187,7.242c3.529,3.163,6.06,6.525,7.591,10.088
	c0.633,1.432,1.315,3.83,2.048,7.192l0.3,1.448c0.066,0.4,0.2,0.699,0.399,0.899c0.267,0.267,0.666,0.383,1.199,0.35l2.297-0.25
	l4.442-0.148l0.702,1.147l2.348,3.496c-3.396,1.332-6.443,2.896-9.14,4.695c-2.963,1.997-4.445,3.611-4.445,4.844
	c-0.033,1.266,1.349,2.647,4.146,4.146c2.697,1.432,5.51,2.381,8.44,2.847c-2.863,2.098-5.294,5.061-7.292,8.891
	c-1.832,3.529-2.431,5.776-1.798,6.742c0.466,0.766,1.998,1.032,4.595,0.799l6.642-1.299c-1.897,4.229-2.364,6.742-1.398,7.542
	c0.6,0.499,1.798,0.3,3.596-0.6c0.452-0.217,0.879-0.448,1.289-0.689c-0.857,3.365-1.19,7.306-0.989,11.827
	c0.2,4.861,0.749,7.541,1.648,8.041c0.827,0.454,2.612,0.081,5.322-1.092c0.719,2.229,2.104,4.838,4.167,7.834
	c2.697,3.896,4.928,5.777,6.693,5.645c0.499-0.033,0.799-0.6,0.899-1.699l-0.001-0.023c1.141,1.181,2.092,1.714,2.848,1.572
	c0.56-0.099,0.939-0.835,1.141-2.202c0.719,1.695,1.536,2.607,2.455,2.702c0.873,0.092,1.761-0.48,2.662-1.7
	c2.562,2.228,6.953,4.261,13.22,6.095c0.311,0.089,0.623,0.168,0.935,0.252c0.051,0.406,0.138,0.837,0.264,1.297
	c0.399,1.598,1.132,2.996,2.198,4.195c0.907,1.034,2.027,1.852,3.35,2.46c-0.327,1.084-0.422,2.146-0.254,3.183
	c0.333,1.932,1.565,3.43,3.696,4.496c0.332,0.166,0.69,0.305,1.041,0.451c-0.269,1.913,0.107,3.569,1.115,4.975l-1.907,5.162
	c-0.799,2.33-1.432,4.877-1.898,7.641c-0.732,4.396-0.766,8.074-0.1,11.038c0.499,2.064,1.365,3.879,2.597,5.444
	c0.699,0.865,1.648,1.581,2.847,2.146c1.165,0.566,2.331,0.883,3.496,0.949c1.698,0.134,3.246-0.183,4.645-0.949
	c1.964-1.131,3.396-3.063,4.295-5.793c0.599-1.897,0.416-3.146-0.549-3.746c-0.899-0.565-1.881-0.35-2.947,0.65
	c-1.832,1.631-3.33,2.098-4.495,1.398c-1.631-0.9-1.898-4.146-0.799-9.74c0.566-2.863,1.282-5.277,2.147-7.241l1.198-2.321
	c7.075,2.295,11.907,4.7,14.484,7.216c1.398,1.398,2.281,2.613,2.647,3.646c0.399,1.1,0.333,2.164-0.2,3.197
	c-0.499,0.932-1.415,1.48-2.747,1.647l-3.197-0.05c-1.498-0.166-2.514,0.133-3.046,0.898c-0.666,0.899-0.483,2.064,0.549,3.496
	c1.132,1.599,2.897,2.647,5.294,3.146c2.597,0.566,5.061,0.267,7.392-0.898c1.132-0.566,2.147-1.349,3.046-2.348
	c0.899-1.065,1.548-2.23,1.948-3.496c0.5-1.631,0.6-3.396,0.3-5.294c-0.267-1.897-0.899-3.712-1.898-5.444
	c-2.064-3.629-5.494-6.959-10.289-9.988c-2.184-1.39-5.125-2.938-8.807-4.643c1.81-0.771,2.974-1.998,3.463-3.698
	c0.299-0.999,0.167-1.981-0.4-2.946c-0.408-0.688-0.985-1.237-1.699-1.675c0.217-0.127,0.418-0.267,0.6-0.423
	c1.265-1.1,1.915-2.348,1.948-3.746c0.1-1.432-0.416-2.646-1.548-3.646c-0.029-0.025-0.061-0.046-0.091-0.071
	c0.538-0.117,1.076-0.246,1.615-0.378c0.309,0.541,0.633,1.01,0.974,1.398c0.599,0.633,1.182,0.949,1.748,0.949
	c0.956,0,1.901-1.038,2.835-3.079c0.133,0.421,0.281,0.847,0.461,1.281c0.666,1.599,1.415,2.48,2.247,2.647
	c0.951,0.201,2.063-0.586,3.337-2.352c0.153,0.849,0.5,1.423,1.058,1.701c0.866,0.434,2.464-0.582,4.795-3.046
	c2.199-2.323,4.008-4.843,5.458-7.541c3.278,2.256,5.588,3.121,6.929,2.597c0.599-0.233,1.131-1.648,1.598-4.246
	c0.266-1.504,0.467-3.201,0.614-5.057c1.028-0.867,2.272-2.192,3.731-3.982l2.711-3.644c1.347,0.547,2.642,0.966,3.881,1.246
	l5.145-0.2c0.832-0.799,0.433-3.196-1.199-7.191c-0.878-2.214-1.818-4.162-2.816-5.862c2.356,0.785,5.353,1.276,9.01,1.467
	c4.429,0.233,6.909-0.083,7.441-0.948c0.367-0.633,0.1-1.781-0.799-3.447c-0.932-1.73-2.431-3.795-4.495-6.192
	c2.098,0.333,4.146,0.366,6.144,0.101c2.031-0.301,3.113-0.767,3.246-1.398c0.133-0.5-0.083-1.066-0.649-1.699
	c-0.665-0.732-1.997-1.781-3.995-3.146c2.697-0.732,5.211-1.864,7.541-3.396c2.197-1.466,3.396-2.714,3.596-3.746
	c0.234-1.099-1.414-2.964-4.943-5.594c-2.649-1.999-5.195-3.558-7.639-4.676l3.238-5.263c1.807-0.099,3.652-0.031,5.549,0.25
	c3.529,0.532,7.808,1.997,12.836,4.395l2.797,1.199l1.548-0.051c0.399-0.199,0.716-0.666,0.948-1.398l0.65-2.996
	c0.865-4.429,1.864-8.074,2.996-10.938c2.031-5.128,4.961-9.557,8.79-13.285c4.895-4.795,10.422-8.324,16.581-10.589
	c3.363-1.231,7.342-2.131,11.938-2.696l2.496-0.4l1.05-0.749l0.1-1.148l-0.649-2.397c-1.664-5.627-2.597-10.588-2.797-14.883
	c-0.333-7.791,1.349-14.966,5.045-21.526c4.561-8.124,10.82-13.884,18.778-17.281c4.329-1.898,9.772-3.129,16.332-3.696l3.146-0.399
	c0.732-0.167,1.198-0.466,1.398-0.899l0.1-0.849l-0.499-1.848c-1.532-5.394-2.447-10.521-2.747-15.382
	c-0.6-9.157,0.583-18.43,3.546-27.819c5.294-16.814,13.401-30.1,24.323-39.855c0.998-0.899,1.448-1.598,1.348-2.098
	C356.483,18.274,356.15,18.074,355.552,18.041z"/>
</svg>
