<?xml version="1.0" encoding="utf-8"?>
<!-- Generator: Adobe Illustrator 16.0.0, SVG Export Plug-In . SVG Version: 6.00 Build 0)  -->
<!DOCTYPE svg PUBLIC "-//W3C//DTD SVG 1.1//EN" "http://www.w3.org/Graphics/SVG/1.1/DTD/svg11.dtd">
<svg version="1.1" id="图层_1" xmlns="http://www.w3.org/2000/svg" xmlns:xlink="http://www.w3.org/1999/xlink" x="0px" y="0px"
	 width="330px" height="173px" viewBox="0 0 330 173" enable-background="new 0 0 330 173" xml:space="preserve">
<path d="M329.649,140.523c-5.607-21.128-18.074-38.418-37.401-51.87c-18.951-13.197-41.53-20.666-67.727-22.425
	c0.005-0.36,0.012-0.733,0.017-1.099c3.396,0.284,6.598,0.261,9.581-0.108c11.816-1.402,22.098-5.107,30.842-11.115
	c7.678-5.274,12.801-11.249,15.371-17.925c1.67-4.272,1.652-7.844-0.05-10.714c-1.902-3.171-5.524-4.623-10.864-4.356l-17.775,0.801
	c-8.344,0.134-14.168-0.25-17.473-1.151l-16.423-5.708c-1.419-0.448-2.778-0.836-4.111-1.197c-2.407-4.062-5.902-7.29-10.509-9.668
	c-5.508-2.837-11.982-4.139-19.426-3.905c-14.988,0.467-26.303,6.375-33.947,17.724c-6.75,9.979-10.733,24.286-11.955,42.912
	c-1.178-0.099-2.412-0.154-3.716-0.154c-7.644,0.034-16.806,1.736-27.488,5.107c-10.18,3.205-20.478,7.527-30.892,12.968
	c-10.547,5.508-19.727,11.366-27.538,17.574c-12.717,10.147-23.432,21.63-32.144,34.446C6.108,145.281,0.768,158.966,0,171.717
	c-0.033,0.634,0.25,0.951,0.851,0.951c14.72-0.233,32.745-3.688,54.074-10.364c21.863-6.81,39.688-14.72,53.473-23.732
	c6.662-4.343,12.634-8.848,17.945-13.509c0.114,0.977,0.265,1.957,0.48,2.944c1.572,7.228,5.316,12.402,11.217,15.541
	c-4.982,2.487-8.25,6.756-9.766,12.848c-0.701,2.871-0.718,5.458-0.05,7.761c0.701,2.437,2.069,4.089,4.105,4.957
	c2.47,1.068,5.625,1.318,9.463,0.751c3.938-0.567,7.644-1.836,11.115-3.806c8.336-4.764,11.91-11.225,10.748-19.371
	c1.687-0.184,3.423-0.415,5.224-0.706l11.966-2.153l8.161-1.102c4.434,0.656,8.505,1.072,12.232,1.261
	c-0.234,1.046-0.179,2.159,0.185,3.347c0.468,1.435,1.168,2.52,2.103,3.254c3.872,3.07,8.896,5.123,15.07,6.158
	c5.809,0.969,12.234,1.002,19.277,0.1c3.771-0.5,6.125-1.418,7.059-2.753c0.768-1.068,0.701-2.687-0.199-4.856
	c-1.068-2.57-3.389-5.008-6.96-7.311c-3.239-2.074-6.612-3.403-10.116-4.002c4.313-3.631,6.765-8.248,7.313-13.872
	c0.601-5.976-0.885-13.401-4.456-22.28l-0.259-0.613c12.67,8.761,27.013,16.533,43.066,23.294
	c17.691,7.41,36.184,13.052,55.477,16.923C329.566,141.542,329.85,141.258,329.649,140.523z"/>
</svg>
