<?xml version="1.0" encoding="utf-8"?>
<!-- Generator: Adobe Illustrator 16.0.0, SVG Export Plug-In . SVG Version: 6.00 Build 0)  -->
<!DOCTYPE svg PUBLIC "-//W3C//DTD SVG 1.1//EN" "http://www.w3.org/Graphics/SVG/1.1/DTD/svg11.dtd">
<svg version="1.1" id="图层_1" xmlns="http://www.w3.org/2000/svg" xmlns:xlink="http://www.w3.org/1999/xlink" x="0px" y="0px"
	 width="396px" height="271px" viewBox="0 0 396 271" enable-background="new 0 0 396 271" xml:space="preserve">
<path d="M364.846,57.804c0.091-0.871,0.146-1.703,0.181-2.515l4.961-1.578c4.958-2.03,9.417-4.775,13.378-8.236
	c6.255-5.458,9.667-12.214,10.231-20.267c0.301-3.694-0.249-6.821-1.646-9.384c-1.53-2.795-3.86-4.609-6.988-5.441
	c-2.596-0.699-5.757-0.633-9.483,0.199c-3.692,0.798-7.037,2.112-10.032,3.943c-3.593,2.169-6.686,4.957-9.298,8.337
	c-1.356,0.638-2.96,1.303-4.829,1.997c-3.196,1.165-5.492,1.814-6.89,1.947c-6.922-3.495-13.86-5.325-20.815-5.49
	c-5.309-0.125-10.077,0.696-14.318,2.438c-0.641-1.12-1.303-2.235-2.004-3.339c-4.194-6.689-8.687-11.714-13.478-15.075
	c-5.059-3.561-10.767-5.341-17.123-5.341c-6.289-0.033-11.313,1.648-15.073,5.042c-3.593,3.195-5.824,7.171-6.688,11.93
	c-0.865,4.659-0.332,9.468,1.598,14.426c4.069,10.454,12.363,18.273,24.863,23.469c-2.445,3.161-5.701,6.122-9.791,8.878
	c-2.843,1.915-5.872,3.582-9.081,5.009c-2.626-0.369-5.6-1.101-8.938-2.213c-4.559-1.465-9.284-2.13-14.18-1.996
	c-5.989,0.166-13.01,1.48-21.064,3.943l-11.932,0.449c-6.987-0.067-13.11-0.55-18.368-1.448l-7.188-1.647
	c-7.288-1.398-13.178-2.313-17.67-2.746l-16.672,0.599c-5.344,1.321-10.814,4.087-16.408,8.273
	c-7.697,1.969-15.488,5.228-23.373,9.796c-10.216,5.957-18.403,13.012-24.559,21.165c-9.651,12.712-17.853,28.885-24.609,48.519
	c-2.463,7.189-6.057,12.744-10.782,16.673c-4.193,3.461-8.436,5.073-12.729,4.842c-1.997-0.101-3.811-0.767-5.441-1.997
	c-1.262-0.96-2.297-2.184-3.129-3.642c1.1,0.442,2.281,0.817,3.576,1.097c3.328,0.732,6.556,0.749,9.684,0.051
	c2.197-0.5,4.36-1.598,6.489-3.295c2.163-1.764,3.827-3.811,4.992-6.141c1.365-2.662,2.047-5.623,2.047-8.885
	c0-3.162-0.616-6.289-1.847-9.385c-2.296-5.724-6.672-9.767-13.128-12.13c-6.489-2.363-13.061-2.263-19.717,0.3
	c-7.321,2.829-12.33,7.937-15.025,15.324c-2.329,6.29-2.712,13.045-1.15,20.268c1.698,7.887,5.808,14.559,12.33,20.016
	c7.255,6.09,15.474,8.67,24.659,7.738c10.283-0.999,18.952-6.158,26.007-15.475c5.158-6.789,9.617-16.123,13.378-28.005
	c2.396-7.62,6.006-15.491,10.832-23.611c4.891-8.253,9.983-14.959,15.274-20.117l2.937-2.301c-1.02,3.253-2.263,7.618-3.736,13.134
	c-2.462,8.386-5.191,15.591-8.186,21.614c-3.627,7.354-7.438,12.445-11.431,15.274c-5.79,4.093-9.551,8.386-11.281,12.878
	c-1.564,4.094-1.53,8.637,0.1,13.628c2.363,7.155,3.844,12.646,4.443,16.474c0.499,3.026,0.632,6.473,0.399,10.332l-0.899,10.383
	c-0.066,2.496,0.433,4.693,1.498,6.59c3.927,7.021,7.022,12.911,9.285,17.67c0.773,1.682,2.31,2.728,4.573,3.167
	c0.213,0.555,0.546,1.144,1.02,1.774c0.732,0.966,1.348,1.447,1.847,1.447c0.765-0.033,1.697-0.632,2.795-1.797
	c0.569-0.627,0.975-1.162,1.252-1.627c2.305-0.513,4.082-1.47,5.337-2.865c0.634,0.46,1.309,0.837,2.03,1.114
	c0.149,0.589,0.354,1.143,0.663,1.632c0.433,0.633,0.882,0.982,1.348,1.049c0.599,0.1,1.281-0.084,2.047-0.549
	c0.683-0.428,1.262-0.996,1.75-1.69c2.314-0.372,4.134-1.416,5.463-3.129c0.355,0.344,0.666,0.526,0.923,0.526
	c0.633,0,1.365-0.533,2.197-1.597c0.532-0.718,0.884-1.383,1.079-2.003c0.901-0.526,1.758-1.185,2.565-1.992
	c2.33-2.33,3.195-5.191,2.596-8.586c-0.466-2.629-2.179-4.709-5.141-6.239c-2.199-1.149-4.685-1.775-7.452-1.885l-5.876-14.14
	c-3.128-7.688-4.992-13.676-5.591-17.969c-0.166-1.033-0.15-2.514,0.05-4.443c0.03-0.299,0.086-0.606,0.123-0.907
	c1.353-3.329,3.981-6.702,7.913-10.123c4.159-3.562,8.452-6.024,12.878-7.388c1.911-0.576,3.653-1.126,5.252-1.652
	c0.393,2.501,1.545,5.344,3.484,8.539c6.223,10.217,10.183,17.021,11.88,20.417c2.696,5.291,4.227,9.933,4.594,13.929
	c0.233,2.428,0.166,6.188-0.2,11.28c-0.067,2.595,0.549,4.677,1.847,6.239c0.932,1.099,2.563,2.214,4.892,3.345
	c2.828,1.364,5.657,3.128,8.486,5.291c2.396,1.83,4.16,3.445,5.291,4.843c0.771,0.984,1.665,1.823,2.67,2.531
	c0.18,0.769,0.438,1.538,0.822,2.309c0.499,0.965,0.949,1.481,1.348,1.547c0.466,0.101,1.215-0.248,2.247-1.047
	c0.67-0.555,1.117-1.023,1.37-1.417c1.118-0.223,2.045-0.513,2.774-0.878c0.699-0.399,1.447-1.016,2.246-1.848
	c0.469-0.505,0.84-1.039,1.145-1.592c0.505,0.004,0.993-0.004,1.456-0.029c0.225,0.391,0.554,0.78,0.993,1.17
	c0.566,0.499,0.998,0.749,1.298,0.749c0.732,0.034,1.498-0.599,2.296-1.896c0.353-0.558,0.606-1.066,0.79-1.54
	c1.573-1.108,2.638-2.98,3.186-5.627c0.12-0.023,0.238-0.053,0.357-0.081l0.858,0.857c0.499,0.334,0.915,0.5,1.248,0.5
	c0.632,0,1.265-0.615,1.897-1.848c0.529-1.146,0.756-2.253,0.713-3.322c0.308-0.764,0.524-1.615,0.636-2.568
	c0.266-2.162-0.067-4.176-1-6.039c-1.165-2.297-3.644-3.926-7.437-4.894l-10.982-1.798c-1.198-0.199-2.779-0.947-4.742-2.246
	c-1.038-0.711-1.835-1.336-2.408-1.881l-8.824-30.563c-1.126-4.117,0.165-12.348,3.856-24.668c2.911-0.132,5.787-0.086,8.623,0.16
	c3.494,0.299,7.205,1.03,11.132,2.195c2.596,0.766,6.622,2.18,12.08,4.243l11.239,4.167c0.89,7.152,1.577,14.509,2.038,22.088
	c0.732,11.682,0.516,18.969-0.648,21.861l-3.844,6.34c-1.631,2.396-2.547,4.527-2.746,6.391c-0.332,2.995,0.033,5.557,1.099,7.688
	c1.033,2.097,2.663,3.644,4.892,4.643c7.821,3.359,12.647,6.105,14.478,8.236c2.604,3.02,5.123,4.938,7.563,5.8
	c0.192,0.435,0.43,0.896,0.723,1.39c0.598,0.998,1.064,1.497,1.396,1.497c0.633,0.132,1.465-0.399,2.496-1.598
	c0.366-0.43,0.641-0.809,0.868-1.161c0.451-0.134,0.896-0.288,1.329-0.486c1.398-0.666,2.447-1.58,3.145-2.746
	c0.051-0.084,0.088-0.189,0.136-0.277c0.312,0.116,0.641,0.214,0.996,0.281c0.185,0.381,0.449,0.793,0.813,1.244
	c0.666,0.832,1.232,1.182,1.697,1.049c0.5,0.065,1.115-0.365,1.848-1.299c0.504-0.635,0.841-1.286,1.042-1.949
	c0.505-0.299,0.923-0.629,1.254-0.993c0.356-0.387,0.693-0.907,1.018-1.526l0.03,0.027l1,0.199c0.764-0.232,1.414-0.814,1.945-1.746
	c0.284-0.514,0.461-1.002,0.546-1.469c0.513-0.248,0.903-0.538,1.152-0.877c0.599-0.8,0.981-1.998,1.147-3.595
	c0.232-2.13-0.117-4.326-1.049-6.589c-1.264-3.096-3.461-5.107-6.588-6.041c-2.33-0.698-7.721-1.281-16.174-1.746
	c-0.366-1.197-0.549-2.695-0.549-4.493c0-4.17,1.579-9.489,4.706-15.935c0.449,0.536,0.921,1.045,1.433,1.51
	c11.516,10.383,18.77,18.602,21.764,24.659c2.063,4.16,3.644,8.22,4.742,12.18c0.665,2.431,1.348,5.873,2.047,10.333
	c0.301,3.993,0.948,7.022,1.946,9.085c1.165,2.396,3.097,4.294,5.791,5.69c5.558,2.828,9.667,5.441,12.329,7.837
	c1.148,0.987,2.306,1.739,3.471,2.305c0.281,0.829,0.62,1.608,1.072,2.286c0.666,0.965,1.314,1.448,1.945,1.446
	c0.733,0,1.515-0.382,2.347-1.148c0.596-0.545,1.033-1.091,1.314-1.637c0.261-0.05,0.521-0.087,0.784-0.157
	c3.045-0.825,5.329-2.755,6.864-5.77c0.051,0.35,0.17,0.755,0.372,1.227c0.333,0.73,0.683,1.146,1.048,1.248
	c0.4,0.1,1.017-0.033,1.848-0.4c0.981-0.41,1.794-1.024,2.444-1.829c1.9-0.403,3.469-1.336,4.693-2.812
	c0.799-0.966,1.498-2.23,2.097-3.794c0.426-1.107,0.745-2.237,0.98-3.385c4.278-2.488,5.771-6.184,4.462-11.095
	c-0.6-2.228-1.713-4.225-3.345-5.988c-1.696-1.764-3.544-2.862-5.541-3.295c-2.295-0.499-5.624-0.549-9.982-0.149l-9.234,0.601
	c-0.799-0.035-1.498-0.434-2.097-1.199l-1.35-2.346c-2.029-3.861-6.172-12.363-12.429-25.508
	c-7.188-15.141-11.215-24.176-12.079-27.104c-0.565-1.931-0.815-3.877-0.75-5.841l0.898-10.981c0.071-0.759,0.121-1.537,0.183-2.305
	c6.018-3.311,10.842-6.915,14.443-10.823c3.528-3.762,6.987-9.085,10.382-15.974c2.296-4.559,5.607-9.235,9.934-14.027
	c3.654-4.02,6.914-6.954,9.79-8.828c3.358,3.424,6.253,5.536,8.681,6.334c2.695,1.031,5.707,1.564,9.035,1.597
	c3.161,0.033,5.822-0.4,7.985-1.298c1.599-0.666,3.045-1.797,4.344-3.395l2.737-4.233c0.475-0.454,1.036-1.018,1.692-1.703
	c2.516-0.122,4.502-1.391,5.961-3.805c1.459,0.958,3.619,2.314,6.532,4.1c6.155,3.827,11.181,6.656,15.074,8.486
	c1.931,0.932,3.028,1.165,3.295,0.699c0.3-0.432-0.4-1.364-2.097-2.795c-3.096-2.562-7.737-5.957-13.928-10.183l-6.396-4.24
	l1.505-2.799c0.473-0.812,0.963-1.532,1.467-2.176l7.968,1.727l17.82,3.444c3.36,0.566,5.107,0.532,5.24-0.1
	c0.134-0.632-1.48-1.464-4.842-2.496l-15.574-4.442c-2.869-0.795-5.24-1.431-7.152-1.919c2.69-2.637,4.39-4.631,5.067-5.965
	l1.688-0.252l13.678-2.646c3.727-0.832,5.54-1.581,5.44-2.247c-0.1-0.698-2.013-0.915-5.74-0.648L368.49,78.27l-0.311,0.054
	c-0.029-1.449-0.426-3.263-1.236-5.494c-0.805-2.286-1.913-4.699-3.309-7.234c0.053-0.302,0.107-0.615,0.162-0.953L364.846,57.804z"
	/>
</svg>
