<?xml version="1.0" encoding="utf-8"?>
<!-- Generator: Adobe Illustrator 16.0.0, SVG Export Plug-In . SVG Version: 6.00 Build 0)  -->
<!DOCTYPE svg PUBLIC "-//W3C//DTD SVG 1.1//EN" "http://www.w3.org/Graphics/SVG/1.1/DTD/svg11.dtd">
<svg version="1.1" id="图层_1" xmlns="http://www.w3.org/2000/svg" xmlns:xlink="http://www.w3.org/1999/xlink" x="0px" y="0px"
	 width="359px" height="296px" viewBox="0 0 359 296" enable-background="new 0 0 359 296" xml:space="preserve">
<path d="M356.603,242.781c-1.664-21.474-4.91-38.336-9.737-50.587c-0.566-1.465-1.148-2.181-1.748-2.147
	c-0.499,0.033-1.082,0.666-1.748,1.898l-6.564,12.646c-2.765-8.388-7.32-16.573-13.658-24.559
	c-4.35-14.128-8.777-25.626-13.285-34.479c-0.532-1.065-1.082-1.615-1.647-1.648c-0.566-0.033-1.099,0.433-1.599,1.398
	c-1.922,3.777-3.951,8.047-6.082,12.798c-10.171-7.865-21.77-15.064-34.816-21.587c-1.641-0.823-3.263-1.609-4.875-2.377
	c-2.478-7.342-6.399-14.97-11.805-22.892c-4.852-7.106-9.586-12.339-14.203-15.711c-0.149-23.45-9.016-40.529-26.645-51.205
	c-13.684-8.256-30.512-12.251-50.487-11.985c-17.997,0.258-33.635,3.694-46.929,10.287c0.934-5.462,2.157-11.593,3.683-18.427
	c2.23-10.154,4.211-17.711,5.942-22.672c0.266-0.732,0.266-1.198,0-1.398c-0.267-0.167-0.749-0.067-1.448,0.299
	c-10.054,5.427-19.958,15.597-29.713,30.512c-7.464,11.358-13.751,23.626-18.884,36.788c0.142-3.728,0.377-7.633,0.707-11.719
	c0.766-10.188,1.931-18.227,3.496-24.12c0.2-0.766,0.133-1.215-0.2-1.349c-0.299-0.1-0.716,0.05-1.248,0.45
	C63.853,38.054,54.382,50.222,44.694,67.5c-9.954,17.711-15.73,33.142-17.328,46.292c-0.2,1.298,0.316,1.715,1.548,1.249
	c14.886-5.674,37.651-12.063,68.246-19.162c-0.37,0.804-0.503,1.57-0.397,2.299c-3.634,4.104-6.999,8.421-10.072,12.968
	c-4.361,6.392-6.858,11.502-7.49,15.331c-0.087,0.537-0.131,1.04-0.155,1.528c-7.876,4.095-15.727,9.375-23.551,15.85
	c-0.981-1.229-2.018-3.06-3.11-5.493c-0.999-2.264-1.731-4.195-2.197-5.793c-0.133-0.433-0.316-0.666-0.549-0.699
	c-0.267-0.067-0.549,0.066-0.849,0.399c-4.294,4.728-8.456,11.003-12.484,18.826c-3.608,6.986-6.425,13.897-8.457,20.733
	c-0.46,0.553-0.919,1.105-1.369,1.655c-2.462-4.046-4.698-7.45-6.704-10.203l-1.398,0.049c-3.762,5.561-7.241,13.783-10.437,24.67
	c-2.693,9.138-4.455,17.681-5.299,25.636c-1.173,3.525-2.048,6.968-2.591,10.319c-0.133,0.898-0.017,1.465,0.35,1.697l1.848-0.199
	c16.18-6.592,37.104-17.445,62.771-32.56c15.373-9.066,27.962-17.007,37.8-23.836c2.435-0.614,5.152-1.2,8.156-1.757
	c-3.908,8.071-5.633,16.867-5.158,26.392c0.086,1.842,0.259,3.626,0.502,5.362c-4.568,2.897-9.179,7.141-13.835,12.766
	c-4.594,5.531-7.791,10.646-9.627,15.356c-0.431,0.206-0.897,0.581-1.409,1.173c-1.831,2.164-3.912,5.143-6.242,8.938
	c-2.73,4.429-3.979,7.225-3.745,8.391c0.233,1.098,1.797,2.347,4.694,3.745c2.73,1.331,5.793,2.396,9.188,3.196l1.933,0.04
	c1.495,1.626,3.424,3.086,5.797,4.377c-3.919,1.075-7.711,2.848-11.376,5.32c-3.662,2.431-6.209,4.794-7.64,7.091
	c-0.566,0.933-0.749,1.814-0.549,2.646c0.2,0.799,0.749,1.416,1.648,1.848c3.262,1.465,9.305,1.665,18.127,0.6
	c9.056-1.132,16.13-3.096,21.224-5.893c2.064-1.132,3.479-2.663,4.245-4.594c0.657-1.6,0.783-3.199,0.386-4.799
	c3.21-0.578,6.764-1.352,10.7-2.343c7.547-1.909,14.111-3.963,19.72-6.158c2.532,0.86,5.193,1.634,7.996,2.313
	c11.462,2.809,24.424,3.879,38.862,3.244c0.548,0.696,1.143,1.348,1.787,1.949c5.992,5.659,13.732,10.104,23.221,13.333
	c4.657,1.611,9.003,2.661,13.052,3.173c1.105,5.938,4.992,11.224,11.667,15.854c2.863,1.964,5.677,3.379,8.439,4.244l6.242,0.25
	c2.364-1.165,3.213-4.678,2.547-10.537c-0.724-6.007-2.98-11.111-6.735-15.336c2.686-2.123,5.035-4.793,7.036-8.034
	c2.886-4.673,4.634-9.828,5.259-15.458c6.284,4.59,13.18,9.357,20.708,14.309c25.602,16.779,46.941,28.016,64.02,33.709l1.948,0.149
	c0.399-0.2,0.632-0.649,0.698-1.349C358.001,278.686,358.101,262.09,356.603,242.781z M19.149,164.518l-0.025-0.034
	c0.001-0.002,0.001-0.003,0.002-0.005L19.149,164.518z"/>
</svg>
