<?xml version="1.0" encoding="utf-8"?>
<!-- Generator: Adobe Illustrator 16.0.0, SVG Export Plug-In . SVG Version: 6.00 Build 0)  -->
<!DOCTYPE svg PUBLIC "-//W3C//DTD SVG 1.1//EN" "http://www.w3.org/Graphics/SVG/1.1/DTD/svg11.dtd">
<svg version="1.1" id="图层_1" xmlns="http://www.w3.org/2000/svg" xmlns:xlink="http://www.w3.org/1999/xlink" x="0px" y="0px"
	 width="251px" height="313px" viewBox="0 0 251 313" enable-background="new 0 0 251 313" xml:space="preserve">
<path d="M248.853,21.613c-1.331-1.099-3.745-1.148-7.239-0.15c-8.355,2.363-15.629,3.279-21.82,2.746
	c-5.825-0.466-11.667-2.313-17.525-5.542c-4.094-2.264-8.871-5.076-14.33-8.438c-4.527-2.796-7.673-4.627-9.438-5.492
	c-5.691-2.896-11.316-4.344-16.876-4.344c-5.525,0-10.401,1.415-14.63,4.244c-5.85,3.985-8.57,10.119-8.183,18.388
	c-0.396-0.086-0.796-0.17-1.2-0.247c-7.951-2.397-16.639-2.524-26.067-0.366c-9.155,2.103-16.645,5.891-22.48,11.354
	c-10.281-6.747-19.566-8.642-27.85-5.663c-9.853,3.529-17.809,13.798-23.867,30.807c-5.459,15.545-9.62,25.531-12.483,29.958
	c-3.162,4.893-8.621,9.403-16.377,13.531c-5.426,2.962-8.255,5.525-8.488,7.689c-0.2,2.064,1.914,3.978,6.341,5.742
	c4.228,1.698,9.537,2.313,15.928,1.847c6.158-0.433,11.284-1.697,15.378-3.794c1.665,2.363,3.762,4.277,6.292,5.742
	c2.829,1.631,5.775,2.447,8.837,2.447c2.962,0,5.692-0.666,8.188-1.997c2.93-1.598,5.226-4.011,6.891-7.24
	c-2.63,9.087-8.804,17.193-18.524,24.316c-3.324,2.438-6.557,4.354-9.702,5.77c-1.475-0.603-2.487-1.559-3.03-2.874
	c-0.965-2.397-1.648-4.411-2.047-6.042c-0.433-1.664-1.082-2.496-1.947-2.496c-0.732,0.029-1.517,0.691-2.352,1.984
	c-0.408-1.779-1.201-3.407-2.391-4.88c-1.964-2.43-4.51-3.828-7.64-4.194c-3.495-0.466-6.541,0.266-9.137,2.197
	c-2.629,1.897-4.161,4.544-4.593,7.939c-0.433,3.295,0.233,6.391,1.997,9.287c1.509,2.553,3.537,4.385,6.083,5.497
	c0.517,0.72,1.238,1.512,2.206,2.393l3.195,3.295c5.492,7.422,13.065,14.863,22.718,22.319c8.954,6.857,14.962,10.336,18.025,10.436
	c2.196-0.025,5.519-0.813,9.939-2.342c-1,2.395-1.933,4.659-2.8,6.799c-4.895,1.423-9.159,4.418-12.781,9.023
	c-3.828,4.894-5.958,10.27-6.391,16.128c-0.499,6.558,0.483,12.101,2.946,16.627c1.831,3.404,4.269,5.906,7.305,7.515
	c0.776,3.118,1.826,6.143,3.18,9.063c2.796,6.092,6.475,10.968,11.035,14.629c1.298,0.933,2.28,1.965,2.946,3.096l0.949,2.447
	c3.795,13.781,8.056,23.949,12.782,30.508c4.161,5.725,9.17,9.287,15.029,10.685l9.037,0.449c4.161-0.333,7.224-1.182,9.188-2.546
	c1.498-1.1,2.28-2.48,2.347-4.145c0.066-1.498-0.433-3.079-1.498-4.744c-3.022-4.775-1.972-11.206,3.126-19.281
	c5.392,0.986,11.396,1.268,18.045,0.808c2.486-0.178,4.865-0.447,7.141-0.806c1.043,2.278,1.611,4.361,1.697,6.248
	c0.1,2.43-0.533,5.16-1.898,8.188c-2.496,5.56-1.963,9.304,1.598,11.234c3.496,1.731,7.989,2.431,13.482,2.097
	c5.991-0.398,10.518-2.063,13.58-4.992c5.127-4.96,9.504-15.778,13.132-32.455l1.198-6.74c0.4-1.965,1.099-3.895,2.098-5.793
	c2.963-5.525,5.043-11.018,6.241-16.477c0.999-4.627,1.431-9.47,1.298-14.529c-0.266-8.089-1.614-17.043-4.045-26.863
	c-2.057-8.37-4.719-16.665-7.984-24.884c2.683,1.717,5.443,2.619,8.285,2.665c3.895,0.066,7.556-1.398,10.984-4.394
	c4.859-4.394,6.724-9.937,5.592-16.627c-1.131-6.657-4.926-12.766-11.384-18.324c-6.602-5.622-15.938-10.166-27.996-13.637
	c-1.016-1.779-1.67-4.92-1.962-9.431c-0.3-4.494-0.2-7.823,0.299-9.986c1.266-4.56,2.348-9.087,3.246-13.581
	c0.994-4.934,1.6-9.249,1.843-12.988c2.386,4.962,5.92,9.314,10.64,13.038c5.792,4.527,11.684,6.891,17.676,7.09
	c4.926,0.133,9.187-1.215,12.781-4.044c3.795-3.029,5.692-6.907,5.692-11.634c0-4.294-1.515-7.706-4.544-10.236
	c-2.929-2.463-6.74-3.695-11.434-3.695c-4.494,0-8.056,1.432-10.686,4.294c-2.252,2.478-3.192,5.378-2.848,8.69
	c-0.455-0.507-0.904-1.037-1.346-1.601c-3.662-4.727-5.875-9.919-6.641-15.578c8.688,4.194,16.326,4.477,22.918,0.849
	c6.457-3.528,9.604-9.354,9.437-17.476c6.225-1.198,11.95-4.261,17.176-9.187c4.627-4.328,7.656-8.838,9.087-13.531
	C250.283,24.575,250.084,22.645,248.853,21.613z M84.382,118.028c3.928,4.327,5.892,8.255,5.892,11.784
	c0,1.198-0.366,2.546-1.099,4.044l-1.866,3.161c-2.102,1.404-4.645,3.185-7.67,5.377c-5.493,3.994-9.87,7.306-13.132,9.936
	l-1.099,0.549l-1.298-0.25c-5.638-2.485-10.704-4.524-15.21-6.127c2.013-1,4.037-2.125,6.073-3.41
	c6.058-3.828,11.301-8.488,15.728-13.98c4.215-5.238,7.202-10.666,8.993-16.278C81.036,114.369,82.592,116.094,84.382,118.028z"/>
</svg>
