<?xml version="1.0" encoding="utf-8"?>
<!-- Generator: Adobe Illustrator 16.0.0, SVG Export Plug-In . SVG Version: 6.00 Build 0)  -->
<!DOCTYPE svg PUBLIC "-//W3C//DTD SVG 1.1//EN" "http://www.w3.org/Graphics/SVG/1.1/DTD/svg11.dtd">
<svg version="1.1" id="图层_1" xmlns="http://www.w3.org/2000/svg" xmlns:xlink="http://www.w3.org/1999/xlink" x="0px" y="0px"
	 width="228px" height="206px" viewBox="0 0 228 206" enable-background="new 0 0 228 206" xml:space="preserve">
<path d="M227.7,141.648c-0.167-0.434-0.565-0.75-1.198-0.949c-10.234-3.356-29.203-9.271-56.873-17.735
	c0.599-0.854,1.103-1.772,1.519-2.75c1.458-0.341,2.962-0.78,4.521-1.336c5.659-2.03,11.002-5.11,16.028-9.237
	c5.26-4.361,9.238-9.172,11.935-14.432c2.996-5.792,4.045-11.551,3.146-17.277c-0.465-2.962-2.146-4.577-5.043-4.843
	c-0.262-0.025-0.509-0.028-0.757-0.031c0.272-0.731,0.507-1.456,0.657-2.167c0.232-1.165,0.184-2.031-0.15-2.597
	c-0.332-0.632-1.082-1.082-2.246-1.348c-6.459-1.332-12.983-1.015-19.574,0.949c-5.696,1.628-10.614,4.249-14.773,7.839
	c0.195-0.543,0.376-1.088,0.53-1.636c3.314-1.998,4.947-5.087,4.854-9.299c-0.021-2.8-0.719-5.153-2.063-7.076
	c-0.039-2.213-0.29-4.735-0.783-7.604c-0.422-2.609-0.93-4.88-1.516-6.851c0.376-2.449,0.193-4.876-0.582-7.28
	c-1.262-4.071-3.947-7.111-8.021-9.148c-0.918-1.905-2.114-4.14-3.614-6.731c-3.795-6.491-6.891-10.802-9.287-12.933
	c-4.262-3.795-15.613-6.075-34.056-6.841C92.112-0.365,76.466,0.783,63.417,3.779c-1.698,0.366-2.83,1.032-3.396,1.998
	c-0.632,1.032-0.699,2.497-0.2,4.394c1.298,5.16,3.928,9.871,7.89,14.132c3.729,3.995,8.272,7.224,13.632,9.687
	c0.916,0.407,1.838,0.771,2.763,1.116c-3.46,6.405-5.21,13.98-5.21,22.752c0,8.211,1.468,15.782,4.373,22.726
	c-0.51,0.295-1.007,0.604-1.476,0.943c-2.763,1.997-4.028,4.161-3.795,6.491c0.291,2.78,2.149,4.737,5.548,5.884
	c-1.304,0.751-2.529,1.561-3.677,2.426c-20.445-5.91-36.021-10.263-46.712-13.054l0.009,0.026c-0.334-0.041-0.717-0.02-1.157,0.074
	c-2.796,0.632-7.756,2.264-14.88,4.894c-6.891,2.53-11.551,4.411-13.981,5.643c-1.132,0.565-1.731,1.298-1.798,2.197
	c-0.233,2.597-0.533,10.437-0.899,23.519c-0.333,1.299-0.482,2.514-0.449,3.646c0.066,1.065,0.299,2.313,0.699,3.745
	c-0.366,4.527-0.549,8.238-0.549,11.135c0,1.281,0.425,2.021,1.257,2.243L1.398,140.4c0.016,0.002,0.033,0.005,0.049,0.007
	c0.128,0.03,0.267,0.048,0.414,0.055c9.201,1.195,25.298,3.937,48.323,8.228c18.697,3.463,33.691,6.354,45.004,8.674
	c0.275,1.034,0.745,1.964,1.416,2.784c-1.46,2.518-2.337,5.289-2.628,8.315c-0.333,3.495,0.217,6.475,1.648,8.938
	c1.165,1.965,2.331,3.695,3.496,5.193l3.096,3.613c-3.321,1.226-6.056,2.617-8.189,4.177c-2.463,1.831-3.412,3.412-2.846,4.744
	c0.732,1.798,5.06,2.181,12.983,1.148c6.758-0.866,11.734-1.897,14.931-3.097c1.764-0.632,2.846-1.48,3.245-2.546
	c0.333-0.899,0.116-1.814-0.649-2.747c-0.565-0.665-0.815-1.348-0.748-2.047c0.033-0.766,0.432-1.448,1.197-2.047
	c3.463-2.764,10.154-3.329,20.074-1.698c9.388,1.498,16.096,3.878,20.123,7.141c-1.83,1.997-2.746,4.028-2.746,6.093
	c0,2.063,0.932,3.428,2.797,4.094c4.594,1.664,10.303,3.013,17.127,4.045c7.023,1.031,10.752,1.016,11.186-0.05
	c0.433-0.966-0.732-2.613-3.496-4.944c-2.345-1.996-4.674-3.571-6.988-4.754c4.749-4.883,6.799-10.205,6.14-15.969
	c-0.088-0.727-0.222-1.469-0.398-2.227l10.086,2.627l7.939,1.647l9.388-0.899l9.938-1.598c0.799-0.299,1.348-0.666,1.647-1.098
	c0.267-0.367,0.333-0.866,0.2-1.498c-0.101-0.6,0.016-1.432,0.35-2.497c0.398-1.331,0.216-2.646-0.55-3.944
	c-0.633-1.066-0.633-2.164,0-3.297c1.099-1.764,1.631-3.312,1.598-4.644c-0.033-0.832,0.116-3.512,0.45-8.039l0.748-8.589
	C227.883,142.73,227.867,142.047,227.7,141.648z M192.266,86.977c-1.86,3.496-5.53,6.064-11.055,7.684
	c-2.144,0.628-4.2,1.025-6.181,1.216c-0.079-0.541-0.202-1.071-0.362-1.592c5.406-0.546,10.968-3.404,16.684-8.565
	C191.648,86.191,191.954,86.605,192.266,86.977z"/>
</svg>
