<?xml version="1.0" encoding="utf-8"?>
<!-- Generator: Adobe Illustrator 16.0.0, SVG Export Plug-In . SVG Version: 6.00 Build 0)  -->
<!DOCTYPE svg PUBLIC "-//W3C//DTD SVG 1.1//EN" "http://www.w3.org/Graphics/SVG/1.1/DTD/svg11.dtd">
<svg version="1.1" id="图层_1" xmlns="http://www.w3.org/2000/svg" xmlns:xlink="http://www.w3.org/1999/xlink" x="0px" y="0px"
	 width="355px" height="317px" viewBox="0 0 355 317" enable-background="new 0 0 355 317" xml:space="preserve">
<path d="M354.716,46.628l-1.949-10.895l-0.449-0.35l-8.396-0.75l-5.797-0.85c-1.333-0.533-2.315-1.433-2.948-2.699
	c-0.399-0.87-0.698-2.113-0.898-3.713c1.642-0.829,4.361-2.119,8.194-3.883l8.296-3.798l-0.018-0.011l0.118-0.039l0.149-0.35
	c-0.333-4.065-0.782-8.03-1.349-11.895c0-0.233-0.134-0.35-0.4-0.35C322.614,3.448,302.907,1.1,290.146,0l-0.6,0.15
	c-13.317,6.683-39.64,19.664-78.955,38.938c-0.483-0.693-1.008-1.367-1.607-2.006c-2.664-2.865-6.096-4.681-10.295-5.448
	c-3.064-0.551-5.989-0.427-8.779,0.347c-0.248-4.629-1.811-8.53-4.714-11.691c-2.765-2.932-6.28-4.831-10.545-5.697
	c-4.198-0.833-8.263-0.5-12.194,1c-4.035,1.525-7.181,4.001-9.458,7.404c-2.019-1.742-4.461-2.896-7.333-3.456
	c-3.532-0.667-7.08-0.333-10.645,0.999c-3.665,1.333-6.613,3.432-8.846,6.297c-2.432,3.132-3.615,6.73-3.548,10.795
	c-4.098-0.9-7.946-0.517-11.544,1.149c-3.299,1.466-5.931,3.765-7.896,6.896s-2.865,6.414-2.699,9.846
	c0.11,3.083,1.064,5.832,2.835,8.256c-4.049,2.75-6.669,6.588-7.833,11.535c-1.066,4.631-0.7,9.179,1.1,13.644
	c0.697,1.706,1.539,3.214,2.495,4.563L0.484,141.533c-0.2,0.1-0.283,0.25-0.25,0.45l0.5,3.748l0.55,4.998c0,0.267,0.15,0.4,0.45,0.4
	l10.495-0.35c1.966,0.033,3.298,0.6,3.998,1.699c0.566,0.866,0.8,2.249,0.7,4.148l-13.293,5.997c-0.167,0.133-0.233,0.283-0.2,0.449
	l0.9,8.646c0,0.267,0.133,0.4,0.4,0.4l19.74-0.15c6.033-0.019,11.075-0.011,15.132,0.023c-1.357,3.256-2.574,6.577-3.638,9.972
	c-4.531,1.399-6.48,6.048-5.847,13.943c0.241,3.076,0.771,5.91,1.555,8.528c-1.274,11.604-0.958,22.116,0.994,31.503
	c2.266,10.861,6.664,20.04,13.194,27.537c5.44,6.227,10.762,8.664,15.965,7.321c0.747,0.542,1.532,1.042,2.376,1.475
	c3.731,1.898,6.947,2.132,9.646,0.699c2.632-1.433,3.865-3.898,3.698-7.396c-0.033-0.575-0.118-1.125-0.226-1.662
	c1.829-1.281,3.318-2.959,4.424-5.084c1.233-2.366,1.766-4.766,1.6-7.197c-0.167-2.532-1.066-4.564-2.699-6.098
	c-1.437-1.309-3.283-2.077-5.53-2.319c0.631-4.117,5.281-11.699,13.976-22.769c3.182-4.021,6.436-7.948,9.753-11.796
	c12.647,0.832,23.532-2.647,32.657-10.437c0.783,0.496,1.679,0.933,2.719,1.293c1.466,0.533,2.916,0.832,4.348,0.899
	c0.466,0.066,0.8,0.2,1,0.399c0.167,0.2,0.267,0.6,0.3,1.199c0.133,3.932-0.183,8.18-0.95,12.744c-0.167,1-0.666,2.016-1.499,3.049
	c-0.521,0.601-1.115,1.134-1.768,1.613c-2.232-1.185-4.31-1.765-6.228-1.713c-4.265,0.166-7.963,2.148-11.095,5.947
	c-3.067,3.734-4.384,8.016-3.992,12.83c-3.22,3.146-6.471,6.912-9.752,11.309c-8.563,11.361-12.478,19.824-11.745,25.388
	c0.5,3.565,2.949,7.813,7.347,12.743c3.898,4.365,7.546,7.48,10.945,9.346c0.433,0.234,0.616,0.584,0.55,1.05
	c-0.033,0.399-0.3,0.816-0.8,1.249c-3.465,2.966-6.264,6.182-8.396,9.646c-2.199,3.498-2.849,5.98-1.949,7.445
	c0.9,1.566,5.598,1.084,14.094-1.449c8.029-2.365,13.793-4.681,17.292-6.946c1.5-0.933,2.249-2.165,2.249-3.698
	c0-1.674-0.942-3.426-2.807-5.255c7.29-3.066,15.085-5.998,23.397-8.788c10.628-3.599,17.975-5.514,22.04-5.748
	c4.231-0.266,10.245,0.533,18.042,2.399c5.391,1.304,10.554,2.836,15.516,4.568c-1.078,2.18-1.695,4.061-1.822,5.627
	c-0.133,1.933,0.483,3.265,1.85,3.998c4.397,2.332,11.012,4.181,19.84,5.548c8.83,1.365,13.693,1.282,14.594-0.25
	c0.732-1.333-0.883-3.882-4.848-7.646c-2.773-2.68-5.694-5.093-8.752-7.26c3.082-2.25,5.654-5.253,7.702-9.033
	c2.765-5.064,3.731-10.045,2.898-14.942c-0.767-4.531-3.715-9.528-8.846-14.993c-4.244-4.529-9.009-8.466-14.278-11.821
	c1.061-2.127,1.525-4.351,1.385-6.67c-0.334-5.464-2.865-9.579-7.597-12.345c-4.407-2.588-8.856-2.863-13.349-0.834
	c-0.29-1.308-0.445-2.676-0.445-4.113c0-1.666,0.483-4.598,1.449-8.795c0.772-3.503,1.718-7.211,2.829-11.115
	c8.37-3.424,15.023-8.948,19.961-16.572c1.378-2.134,2.553-4.32,3.538-6.556c6.557-0.018,12.44-3.396,17.652-10.137
	c5.073-6.518,7.935-14.241,8.595-23.162c3.646-3.31,6.909-6.859,9.746-10.672c2.956-3.909,5.176-7.665,6.676-11.271
	c4.59-2.2,7.933-5.918,10.017-11.168c2.313-5.813,2.478-11.626,0.509-17.439c0.933-3.554,1.289-7.222,1.077-11.003l73.678-29.979
	L354.716,46.628z"/>
</svg>
