<?xml version="1.0" encoding="utf-8"?>
<!-- Generator: Adobe Illustrator 16.0.0, SVG Export Plug-In . SVG Version: 6.00 Build 0)  -->
<!DOCTYPE svg PUBLIC "-//W3C//DTD SVG 1.1//EN" "http://www.w3.org/Graphics/SVG/1.1/DTD/svg11.dtd">
<svg version="1.1" id="图层_1" xmlns="http://www.w3.org/2000/svg" xmlns:xlink="http://www.w3.org/1999/xlink" x="0px" y="0px"
	 width="484px" height="364px" viewBox="0 0 484 364" enable-background="new 0 0 484 364" xml:space="preserve">
<path d="M481.4,287.013l-1.199-33.772c-0.799-19.684-1.165-33.039-1.099-40.066c0.1-4.03-0.233-11.091-0.999-21.183l-2.398-29.925
	c-0.966-12.823-1.698-24.963-2.198-36.42c-0.566-11.99-0.766-21.333-0.6-28.027c0.093-5.41-1.626-10.273-5.108-14.605
	c0.429-4.182,1.048-9.943,1.861-17.318c0.333-3.364-1.199-6.711-4.596-10.042c-2.932-2.864-6.545-5.146-10.842-6.844
	c-1.998-0.799-4.113-0.933-6.345-0.4c-2.298,0.533-4.879,1.782-7.743,3.747c-2.798,1.932-6.445,2.681-10.941,2.248
	c-4.611-0.4-8.446-2.122-11.524-5.132c-0.006-0.022-0.011-0.042-0.016-0.064c-0.899-3.83-2.931-6.678-6.095-8.543
	c-3.064-1.798-6.678-2.398-10.842-1.798c-3.663,0.533-7.144,2.281-10.441,5.246c-3.33,2.931-5.944,6.611-7.843,11.041
	c-4.097,9.492-9.842,18.468-17.236,26.928c-2.653,3.028-5.347,5.727-8.076,8.119c-4.272-0.287-8.492,0.414-12.656,2.122
	c-4.385,1.84-7.854,4.451-10.433,7.815c-0.364-0.493-0.727-0.987-1.108-1.47c-8.512-10.713-19.406-16.252-32.667-16.649
	c-0.6-1.101-1.228-2.196-1.904-3.285c-4.096-6.695-9.259-12.157-15.486-16.387c-5.206-3.554-10.602-5.833-16.184-6.872
	c4.317-5.654,6.942-11.902,7.84-18.757c0.832-6.395,0.083-12.606-2.248-18.634c-2.165-5.729-5.346-10.242-9.542-13.539
	c-4.363-3.43-8.96-4.862-13.789-4.296c-5.063,0.6-9.342,2.964-12.839,7.094c-3.331,3.93-5.512,8.893-6.544,14.888
	c-1.032,6.062-0.75,12.207,0.849,18.435c1.664,6.493,4.616,12.272,8.829,17.353c-4.182,1.365-8.276,3.565-12.282,6.602
	c-3.031-0.67-6.854-0.98-11.484-0.923c-4.288,0-8.096,0.278-11.426,0.833c-2.849-1.413-5.734-2.424-8.657-3.031
	c-7.506-1.54-14.563-0.229-21.173,3.917c-1.603-0.676-3.237-1.219-4.905-1.619c-5.922-1.465-11.238-0.92-15.964,1.583
	c-3.38-1.134-6.949-1.638-10.714-1.482c-6.878,0.248-12.048,2.569-15.554,6.91c-0.378-0.564-0.758-1.124-1.132-1.714
	c-4.093-6.4-6.973-13.125-8.645-20.172c0.093-1.844,0.113-3.809,0.052-5.906c-0.067-2.797-0.733-5.595-1.999-8.393
	c-1.532-3.297-3.597-5.679-6.195-7.144c-2.032-1.232-4.413-2.231-7.144-2.998c-2.798-0.732-5.562-1.116-8.293-1.149
	c-2.964-0.033-5.545,1.049-7.743,3.247c-2.165,2.132-3.381,4.713-3.647,7.744c-0.016,0.215-0.026,0.422-0.041,0.635
	c-3.344,3.86-9.218,5.952-17.644,6.26c-8.08,0.251-14.333-1.075-18.775-3.968c-1.369-2.215-2.737-3.69-4.106-4.425
	c-4.763-2.665-10.042-2.681-15.837-0.05c-5.895,2.631-8.843,6.461-8.843,11.491c0,2.24,0.257,4.611,0.755,7.107
	c-4.75,7.363-8.673,15.825-11.746,25.416C2.896,86.812,0.964,97.02,0.298,107.411c-1.444,21.652,2.721,39.621,12.483,53.911
	c0.075,18.565,0.177,40.104,0.306,64.641c0.3,58.785,0.316,92.857,0.05,102.216c-0.1,4.03,0.066,7.927,0.5,11.69
	c0.366,3.396,0.849,5.912,1.449,7.543c0.699,1.932,2.115,5.313,4.247,10.143c1.399,3.696,4.196,5.545,8.393,5.545l18.135-0.15
	c1.565-0.133,2.915-0.582,4.047-1.348c1.132-0.767,2.398-2.1,3.797-3.997c3.716-5.082,6.313-9.489,7.818-13.239
	c4.59,2.67,7.973,4.162,10.117,4.446l7.294,0.3l7.494,0.5l5.446,0.648c2.265,0,3.93-0.365,4.996-1.099
	c2.912-1.819,5.704-2.853,8.38-3.119c4.03,1.721,7.462,3.251,10.286,4.589c0.087,0.082,0.174,0.166,0.269,0.229
	c1.266,0.833,3.164,1.35,5.695,1.549c2.698,0.233,4.58-0.033,5.645-0.799c1.232-0.833,2.348-2.148,3.348-3.947
	c1.099-1.965,1.632-3.746,1.599-5.346l-0.438-43.206c1.048,2.156,2.388,4.303,4.035,6.437c2.685,3.451,5.895,6.586,9.619,9.41
	c-2.995,2.302-5.885,5.419-8.67,9.375c-3.197,4.496-4.33,7.561-3.397,9.191c1.132,2.032,8.26,1.649,21.382-1.148
	c11.49-2.498,20.033-4.912,25.629-7.244c2.998-1.232,4.796-2.914,5.396-5.045c0.533-1.766,0.117-3.432-1.249-4.996
	c-0.433-0.467-0.616-0.916-0.55-1.35c0.133-0.399,0.517-0.732,1.149-0.999c15.554-6.228,31.474-9.692,47.76-10.392
	c16.42-0.699,27.91,1.682,34.472,7.145c-1.731,1.432-2.397,2.964-1.999,4.596c0.4,1.799,2.032,3.248,4.896,4.347
	c5.828,2.231,13.905,4.014,24.23,5.346c11.123,1.399,17.035,1.016,17.735-1.149c0.532-1.598-1.149-4.113-5.046-7.543
	c-3.573-3.258-7.33-5.739-11.264-7.466c5.402-9.425,6.515-19.143,3.32-29.154c-2.992-9.3-8.933-16.806-17.8-22.529
	c0.021-0.316,0.05-0.629,0.063-0.951c0.2-4.696-0.532-8.376-2.197-11.041c-2.099-3.298-5.329-5.445-9.692-6.444
	c-4.221-0.945-8.381-0.578-12.481,1.068c-0.24-0.255-0.481-0.509-0.707-0.77c-0.967-1.232-1.399-2.531-1.299-3.896
	c0.332-6.062,0.898-12.023,1.697-17.885c0.021-0.248,0.056-0.461,0.095-0.657c2.873,1.714,6.551,2.505,11.047,2.355
	c4.496-0.134,8.859-1.099,13.089-2.897c1.055-0.447,2.099-0.941,3.137-1.462c4.683,1.413,10.158,1.032,16.447-1.187
	c6.08-2.17,11.902-5.707,17.469-10.593c9.531,2.225,20.896,2.376,34.139,0.401c13.134-1.983,22.106-5.132,26.93-9.439
	c0.332,7.24,0.464,27.704,0.397,61.396l-0.25,41.316c-0.133,14.154-0.083,22.914,0.15,26.278c0.2,2.298,0.566,4.013,1.099,5.146
	c0.8,1.632,2.215,2.814,4.247,3.547c3.164,1.232,9.025,2.998,17.585,5.296c8.493,2.231,14.405,3.63,17.735,4.196
	c3.298,0.533,5.912-0.566,7.844-3.297l4.66-6.307l1.935-0.088c1.299,0.199,2.314,0.633,3.047,1.299
	c0.866,0.799,1.749,1.182,2.648,1.148c0.832,0,1.565-0.35,2.198-1.049c1.822-1.945,4.356-3.268,7.583-3.982
	c1.282,1.658,2.257,3.499,2.908,5.531c0.6,1.865,1.432,3.131,2.498,3.797c0.999,0.633,2.431,0.883,4.296,0.75
	c3.131-0.134,6.661-0.783,10.592-1.949c3.83-1.133,6.478-2.298,7.943-3.497c1.599-1.231,2.664-2.564,3.197-3.997
	c0.399-1.232,0.6-3.131,0.6-5.695C481.983,312.092,481.8,300.302,481.4,287.013z M131.09,243.748
	c-0.133-11.804-0.266-22.809-0.4-33.021c1.73-0.114,3.438-0.334,5.122-0.674c2.794,2.498,6.673,3.73,11.665,3.67
	c4.829-0.066,9.792-1.266,14.888-3.597c2.319-1.073,4.557-2.274,6.719-3.592c2.098,0.453,4.288,0.642,6.57,0.573
	c0.845,2.979,1.628,6.913,2.349,11.812c0.866,5.729,1.166,9.592,0.899,11.591c-0.133,1.232-0.683,2.364-1.648,3.396
	c-1.567,1.598-4.223,3.815-7.945,6.64c-2.226-0.715-4.472-1.047-6.743-0.944c-5.462,0.166-10.142,2.814-14.039,7.943
	c-3.713,4.787-5.045,9.688-4.008,14.702c-1.758,1.607-3.568,3.479-5.434,5.632c-3.395,3.941-5.94,7.564-7.639,10.872L131.09,243.748
	z"/>
</svg>
