<?xml version="1.0" encoding="utf-8"?>
<!-- Generator: Adobe Illustrator 16.0.0, SVG Export Plug-In . SVG Version: 6.00 Build 0)  -->
<!DOCTYPE svg PUBLIC "-//W3C//DTD SVG 1.1//EN" "http://www.w3.org/Graphics/SVG/1.1/DTD/svg11.dtd">
<svg version="1.1" id="图层_1" xmlns="http://www.w3.org/2000/svg" xmlns:xlink="http://www.w3.org/1999/xlink" x="0px" y="0px"
	 width="184px" height="181px" viewBox="0 0 184 181" enable-background="new 0 0 184 181" xml:space="preserve">
<path d="M175.916,112.549c-4.521-7.241-10.082-11.86-16.677-13.872c-0.783-1.957-1.672-3.888-2.681-5.786
	c-7.684-14.501-20.272-23.98-37.768-28.438c-7.584-1.929-15.517-2.245-23.799-0.948c-4.565,0.726-8.988,1.911-13.279,3.525
	c-1.1-11.321-4.717-21.927-10.868-31.814c-5.588-9.014-12.723-16.68-21.404-23c-8.049-5.82-16.048-9.579-23.998-11.275
	c-8.016-1.696-14.236-0.948-18.66,2.245c-4.091,2.96-6.319,8.315-6.686,16.065c-0.366,7.417,0.998,15.616,4.091,24.597
	c3.193,9.313,7.617,17.628,13.271,24.946c5.901,7.659,12.417,13.157,19.532,16.55c-5.277,5.31-8.568,12.211-9.853,20.719
	c-1.463,9.612,0.349,18.477,5.438,26.592c4.956,7.916,11.176,12.257,18.66,13.021c0.115,0.012,0.229,0.015,0.343,0.024
	c1.28,2.142,2.699,4.248,4.296,6.313c4.59,5.921,10.111,10.876,16.564,14.868c6.353,3.957,12.972,6.585,19.857,7.883
	c15.667,2.959,29.834,1.363,42.508-4.79c3.264-1.582,6.24-3.381,8.931-5.396c9.694,0.023,17.839-2.135,24.396-6.528
	c6.853-4.656,11.094-11.142,12.723-19.457C182.652,129.445,181.006,120.764,175.916,112.549z"/>
</svg>
