<?xml version="1.0" encoding="utf-8"?>
<!-- Generator: Adobe Illustrator 16.0.0, SVG Export Plug-In . SVG Version: 6.00 Build 0)  -->
<!DOCTYPE svg PUBLIC "-//W3C//DTD SVG 1.1//EN" "http://www.w3.org/Graphics/SVG/1.1/DTD/svg11.dtd">
<svg version="1.1" id="图层_1" xmlns="http://www.w3.org/2000/svg" xmlns:xlink="http://www.w3.org/1999/xlink" x="0px" y="0px"
	 width="216px" height="248px" viewBox="0 0 216 248" enable-background="new 0 0 216 248" xml:space="preserve">
<path d="M206.908,111.292c4.061-5.659,6.274-12.299,6.641-19.922c0.366-7.589-2.197-14.896-7.689-21.919
	c-5.536-7.067-12.662-11.985-21.354-14.782c0.242-2.291,0.357-4.651,0.334-7.087c-0.101-12.649-4.045-23.533-11.834-32.654
	c-8.255-9.62-18.773-14.596-31.555-14.929c-15.313-0.366-27.762,4.894-37.348,15.778c-1.018,1.171-1.972,2.385-2.869,3.637
	c-5.657,1.237-11.425,5.361-17.303,12.39c-3.079,3.686-5.558,7.5-7.445,11.442c-9.259-1.677-18.012,0.497-26.257,6.532
	c-8.388,6.158-13.548,14.43-15.479,24.815c-0.832,4.46-0.782,9.337,0.15,14.629c0.899,5.292,2.546,10.252,4.943,14.879
	c4.414,8.537,9.892,13.83,16.426,15.903c-1.933,4.231-3.647,8.365-5.146,12.401c-2.34,0.51-4.587,1.598-6.736,3.301
	c-3.795,2.963-5.875,6.774-6.241,11.435c-0.433,5.159,0.516,9.687,2.846,13.581c0.803,1.392,1.679,2.547,2.628,3.466
	c-0.195,2.474-0.274,4.896-0.25,7.271c-9.557-6.403-18.423-9.771-26.594-10.088c-8.022-0.332-13.148,2.214-15.378,7.64
	c-1.798,4.294-1.348,8.638,1.348,13.032c2.463,3.994,6.475,7.521,12.033,10.584c5.393,2.996,11.284,5.043,17.675,6.142
	c6.256,1.079,11.978,1.045,17.179-0.073c0.217,0.43,0.416,0.87,0.644,1.295c-0.301,0.807-0.488,1.679-0.547,2.623
	c-0.059,0.877,0.016,1.734,0.182,2.579c-1.963,0.266-3.639,1.12-5.025,2.563c-1.697,1.73-2.53,3.911-2.497,6.541
	c0.1,3.328,1.582,5.875,4.444,7.639c2.896,1.731,6.158,2.014,9.786,0.85c1.964-0.566,4.011-0.449,6.142,0.35
	c3.562,1.298,6.84,3.129,9.836,5.492c3.528,2.762,5.958,5.775,7.29,9.037c1.298,3.129,3.495,4.727,6.591,4.793
	c2.962,0.066,5.126-1.165,6.491-3.695c0.935-1.71,1.483-3.72,1.658-6.018c3.227,0.883,6.575,1.637,10.076,2.224
	c9.89,1.639,19.743,1.898,29.555,0.784c-0.403,3.863,1.13,6.788,4.646,8.752c3.495,1.965,6.99,2.113,10.484,0.449
	c1.61-0.755,2.771-1.845,3.504-3.253c2.165,2.536,5.037,3.712,8.629,3.503c3.289-0.203,5.534-1.285,6.736-3.245
	c2.254,1.197,4.898,1.206,7.943,0c3.462-1.398,5.26-3.628,5.393-6.69c0.199-2.996-0.949-5.592-3.445-7.789
	c-2.186-1.91-4.957-3.025-8.293-3.37c9.382-5.839,16.362-13.317,20.926-22.444c4.741-9.424,7.704-18.861,8.894-28.311
	c2.761-0.203,5.155-2.099,7.184-5.691c2.097-3.661,2.979-7.688,2.646-12.082c-0.332-4.428-1.996-8.189-4.992-11.285
	c-2.586-2.646-5.115-3.857-7.59-3.668c-0.12-0.426-0.224-0.848-0.35-1.274c-1.657-5.577-3.174-11.035-4.559-16.379
	C198.18,120.343,203.154,116.458,206.908,111.292z"/>
</svg>
