<?xml version="1.0" encoding="utf-8"?>
<!-- Generator: Adobe Illustrator 16.0.0, SVG Export Plug-In . SVG Version: 6.00 Build 0)  -->
<!DOCTYPE svg PUBLIC "-//W3C//DTD SVG 1.1//EN" "http://www.w3.org/Graphics/SVG/1.1/DTD/svg11.dtd">
<svg version="1.1" id="图层_1" xmlns="http://www.w3.org/2000/svg" xmlns:xlink="http://www.w3.org/1999/xlink" x="0px" y="0px"
	 width="509px" height="398px" viewBox="0 0 509 398" enable-background="new 0 0 509 398" xml:space="preserve">
<path d="M506.854,87.816c-0.566-5.665-3.782-9.563-9.646-11.695c-3.465-1.267-6.697-1.233-9.696,0.1
	c-2.699,1.2-4.682,3.149-5.947,5.848c-1.2,2.699-1.35,5.248-0.45,7.647c0.042,0.112,0.099,0.213,0.145,0.321
	c-1.167,0.767-2.494,1.494-3.993,2.178c-0.903,0.378-1.738,0.67-2.526,0.903c-0.257-1.567-0.674-3.213-1.272-4.951
	c-0.766-2.232-1.666-4.048-2.699-5.448c3.532-2.465,6.281-4.832,8.247-7.097c2.799-3.299,5.015-7.431,6.647-12.396
	c2.499-7.43,1.933-13.511-1.699-18.243c-3.565-4.631-8.763-6.431-15.594-5.397c-4.599,0.699-8.131,2.449-10.596,5.248
	c-2.133,2.499-3.049,5.281-2.749,8.347c0.3,2.965,1.716,5.248,4.248,6.847c0.382,0.239,0.781,0.446,1.191,0.632
	c-1.518,4.646-3.345,7.996-5.49,10.014c-4.664-2.166-10.329-2.932-16.993-2.299c-6.118,0.608-11.661,2.26-16.639,4.932
	c-0.499-1.675-0.755-3.5-0.755-5.481c3.732-1.066,6.464-3.565,8.197-7.497c1.699-3.999,1.599-7.897-0.3-11.696
	c-1.167-2.232-3.199-3.715-6.098-4.448c-2.833-0.667-5.898-0.5-9.197,0.5c-7.93,2.399-12.679,7.664-14.244,15.794
	c-0.733,3.665-0.333,8.197,1.199,13.595c1.533,5.298,3.732,9.996,6.598,14.095c-6.498,7.83-9.43,22.841-8.797,45.033
	c0.101,2.466-0.366,4.432-1.399,5.898c-0.899,1.233-2.349,2.349-4.349,3.349c-2.698,1.366-7.047,2.349-13.045,2.949
	c-0.139,0.015-0.256,0.03-0.387,0.045l-5.361-7.343c-1.852-2.331-3.846-4.562-5.966-6.704c4.324-5.597,5.937-12.522,4.816-20.786
	c-1.266-9.63-5.864-17.343-13.795-23.141c-5.997-4.398-13.278-6.181-21.842-5.348c-6.655,0.674-12.185,2.678-16.614,5.979
	c2.571-5.621,3.399-12.242,2.47-19.874c-1.266-10.33-5.348-18.86-12.245-25.59c-6.73-6.498-15.728-9.497-26.99-8.997
	c-11.795,0.5-21.342,4.865-28.639,13.095c-0.712,0.808-1.318,1.671-1.836,2.583c-4.248-9.174-11.363-15.652-21.355-19.426
	c-10.396-3.898-20.709-3.782-30.938,0.35c-9.996,4.065-17.093,11.512-21.292,22.342c-1.974,5.12-2.972,10.159-3.013,15.117
	c-0.261,0.057-0.519,0.108-0.783,0.169c-2.045-2.646-5.406-4.215-10.099-4.69c-4.865-0.468-9.892,0.396-15.078,2.554
	c-3.905-2.107-8.357-3.344-13.362-3.704c-8.396-0.667-15.677,1.216-21.842,5.648c-7.597,5.364-11.879,13.028-12.845,22.991
	c-0.642,7.006,0.539,13.186,3.52,18.55c-4.813,4.822-8.647,9.602-11.467,14.337c-0.667,1.1-1.25,1.783-1.75,2.049
	c-0.566,0.333-1.583,0.533-3.049,0.6c-3.365,0.2-6.514,0.15-9.446-0.15c-3.932-0.467-6.714-1.333-8.347-2.599
	c-4.032-3.099-4.199-7.714-0.5-13.845c6.298-10.33,9.996-19.56,11.096-27.689c0.5-3.643,0.476-7.449-0.039-11.408
	c2.133-0.615,4.148-1.374,6.037-2.287c4.032-1.966,7.713-4.665,11.046-8.097c3.698-3.865,5.415-8.547,5.148-14.045
	c-0.267-5.265-2.199-9.246-5.798-11.945c-1.966-1.466-4.165-2.166-6.598-2.099c-2.299,0.033-4.398,0.7-6.297,1.999
	c-4.432,3.032-5.598,7.164-3.499,12.396c-1.199,1.566-2.882,3.065-5.048,4.499c-0.324,0.216-0.647,0.406-0.971,0.604
	c-4.012-7.614-9.469-12.947-16.373-15.999c-0.833-0.4-1.349-0.75-1.549-1.049c-0.267-0.4-0.4-1.05-0.4-1.95
	c0-2.297,0.143-4.477,0.412-6.55c0.536-0.2,1.065-0.446,1.587-0.747c4.765-2.766,6.281-7.23,4.548-13.395
	c-1.233-4.465-3.565-7.747-6.998-9.846c-3.365-2.066-6.914-2.549-10.646-1.45c-4.731,1.399-8.397,4.832-10.996,10.296
	c-3.099,6.564-4.049,15.061-2.849,25.49c-2.168,0.904-4.146,2.04-5.974,3.355c0.37-0.794,0.648-1.661,0.826-2.606
	c0.5-2.699,0.083-5.198-1.25-7.497c-1.433-2.499-3.682-4.098-6.748-4.798c-4.698-1.133-8.747-0.033-12.146,3.299
	c-3.599,3.499-5.198,8.347-4.798,14.545c0.4,5.364,1.933,10.362,4.599,14.994c0.881,1.521,1.86,2.926,2.917,4.239
	c-3.673,2.638-6.437,6.313-8.265,11.055c-2.066,5.565-2.549,11.813-1.45,18.743c1.1,6.298,3.832,11.546,8.197,15.744
	c4.022,3.871,9.084,6.507,15.165,7.935c2.224,3.76,4.677,7.008,7.377,9.708c7.93,8.03,16.444,14.145,25.54,18.343
	c9.164,4.232,20.276,7.164,33.337,8.797c1.133,0.133,2.116,0.383,2.949,0.75l1.035,0.668c-3.688,5.583-7.094,12.039-10.212,19.387
	c-7.508,1.491-14.063,5.302-19.663,11.433c-6.131,6.664-9.563,14.378-10.296,23.141c-0.733,8.063,0.517,15.644,3.749,22.741
	c2.801,6.251,6.795,11.362,11.97,15.343c0.558,13.352,3.393,24.755,8.5,34.215c-4.901,8.387-7.719,18.517-8.425,30.413
	c-0.5,7.896,0.133,15.461,1.899,22.691c1.766,7.33,4.481,13.428,8.147,18.293c-1.5,2.398-3.465,4.248-5.898,5.548
	c-5.998-1.3-10.846,0.333-14.544,4.897c-3.832,4.666-4.548,10.197-2.149,16.594c1.7,4.465,4.565,7.531,8.597,9.197
	c3.965,1.666,7.781,1.399,11.446-0.8c3.652-2.222,5.813-5.681,6.519-10.349c1.947-1.492,4.647-2.332,8.125-2.496
	c3.362-0.193,6.018,0.25,7.989,1.312c0.175,1.114,0.476,2.26,0.907,3.437c1,2.799,2.649,5.048,4.948,6.747
	c2.466,1.8,5.281,2.665,8.447,2.599c3.132-0.066,5.832-1.399,8.097-3.998c2.565-3.032,3.832-7.197,3.798-12.496
	c-0.066-5.23-1.999-9.596-5.798-13.094c-0.536-0.492-1.094-0.947-1.67-1.369c1.256-2.843,1.151-5.686-0.329-8.527
	c-1.531-2.918-3.993-4.453-7.378-4.616c2.934-3.163,6.302-6.273,10.127-9.329c2.01-1.581,4.02-3.043,6.029-4.389
	c14.519,8.25,30.017,14.149,46.501,17.684c15.527,3.299,30.888,4.281,46.083,2.949c13.438-1.188,25.636-4.084,36.621-8.644
	c5.671,1.367,10.398,4.037,14.159,8.044c0.043,0.046,0.079,0.095,0.121,0.142c-1.667,0.391-3.093,1.386-4.27,3.007
	c-1.532,2.133-2.115,4.698-1.749,7.697c0.366,2.732,1.616,4.981,3.749,6.748c2.1,1.799,4.414,2.549,6.947,2.248
	c0.333,1.833,0.949,3.549,1.85,5.148c0.771,1.362,1.644,2.379,2.613,3.067c-0.744,3.076-0.387,6.152,1.085,9.228
	c1.433,3.1,3.648,5.415,6.647,6.947c3.299,1.667,6.864,1.967,10.695,0.9c3.732-1.066,6.465-3.032,8.197-5.898
	c1.455-2.302,2.087-4.939,1.916-7.904c0.699-0.325,1.507-0.607,2.406-0.854c0.213,0.589,0.472,1.192,0.776,1.811
	c2.433,4.998,6.264,7.414,11.495,7.248c5.698-0.167,9.747-2.482,12.146-6.947c2.433-4.532,2.35-9.713-0.25-15.545
	c-2.398-5.264-6.631-8.663-12.695-10.195c-5.697-1.467-11.278-1-16.743,1.398c-0.666,0.334-1.184,0.25-1.549-0.25
	c-0.434-0.499-0.4-1.016,0.1-1.549c4.264-4.555,7.267-10.046,9.028-16.461c2.624-0.521,4.78-2.031,6.466-4.531
	c1.966-2.965,2.832-6.564,2.599-10.796c-0.2-4.198-1.399-7.614-3.599-10.246c-1.475-1.805-3.171-2.956-5.082-3.481
	c-1.424-6.691-3.877-12.934-7.348-18.729c3.627-6.387,6.49-14.722,8.581-25.021c2.466-11.963,3.716-25.441,3.749-40.436
	c0.033-14.428-1.033-28.373-3.199-41.834c-0.283-1.772-0.581-3.502-0.892-5.191c9.246,4.379,20.705,5.394,34.379,3.042
	c13.819-2.335,24.544-7.166,32.19-14.476c7.89,0.24,16.636-0.633,26.237-2.618c11.263-2.299,21.809-5.731,31.639-10.296
	c2.423-1.14,4.715-2.324,6.907-3.541c3.999,1.097,8.191,1.187,12.585,0.242c5.165-1.1,9.797-3.416,13.896-6.947
	c4.265-3.666,7.297-8.18,9.096-13.545c1.825-5.635,2.049-11.69,0.704-18.156c7.043-2.056,12.76-5.081,17.14-9.084
	C504.905,99.246,507.487,93.681,506.854,87.816z"/>
</svg>
