<?xml version="1.0" encoding="utf-8"?>
<!-- Generator: Adobe Illustrator 16.0.0, SVG Export Plug-In . SVG Version: 6.00 Build 0)  -->
<!DOCTYPE svg PUBLIC "-//W3C//DTD SVG 1.1//EN" "http://www.w3.org/Graphics/SVG/1.1/DTD/svg11.dtd">
<svg version="1.1" id="图层_1" xmlns="http://www.w3.org/2000/svg" xmlns:xlink="http://www.w3.org/1999/xlink" x="0px" y="0px"
	 width="447px" height="355px" viewBox="0 0 447 355" enable-background="new 0 0 447 355" xml:space="preserve">
<path d="M445.45,47.358c-1.499-4.231-4.131-7.28-7.896-9.146c-3.799-1.899-7.714-2.082-11.745-0.55
	c-3.165,1.167-6.464,2.815-9.896,4.948c-1.766,1.066-4.448,2.882-8.047,5.447c-2.533,1.846-4.67,3.264-6.44,4.287
	c-3.758-0.637-6.742-1.566-8.952-2.788c-2.309-1.279-5.003-3.565-8.071-6.831c1.972-2.306,3.808-4.641,5.473-7.013
	c5.597-8.063,8.063-14.744,7.396-20.041c-0.7-5.498-3.115-9.696-7.247-12.595c-3.165-2.232-6.58-3.182-10.245-2.849
	c-2.199,0.167-4.182,0.917-5.947,2.249c-2.1,1.599-3.466,3.782-4.099,6.547l-2.749,11.495c-1.632,6.264-3.198,11.278-4.697,15.043
	c-0.66,1.595-1.092,2.926-1.32,4.021c-0.23,0.514-0.485,1.021-0.747,1.527c-3.371,1.417-6.169,2.947-8.378,4.597
	c-2.03,1.552-3.735,3.401-5.149,5.515c-0.316-0.256-0.617-0.517-0.948-0.768c-5.53-4.131-11.128-6.064-16.792-5.797
	c-3.698,0.167-6.831,1.316-9.396,3.448c-2.998,2.532-4.498,6.014-4.498,10.445c0,2.033,0.533,3.815,1.6,5.348
	c1.066,1.5,2.532,2.616,4.398,3.349c5.819,2.256,10.688,4.753,14.621,7.489c-1.428,9.73-2.351,17.159-2.767,22.282
	c-5.079-1.136-11.419-2.958-19.052-5.482c-6.957-2.339-11.925-4.202-14.948-5.599c-2.202-3.733-4.849-7.563-7.941-11.493
	c-6.097-7.763-13.776-13.677-23.04-17.742c-9.195-4.065-19.225-5.998-30.086-5.798c-4.664,0.086-9.282,0.75-13.854,1.985
	c-15.845,1.73-31.401,6.563-46.668,14.507c-14.324,7.466-25.696,16.138-34.133,26.009c-0.479,0.161-0.961,0.347-1.451,0.58
	c-8.829,4.131-20.291,10.745-34.384,19.841c-14.061,9.064-24.354,16.538-30.902,22.431c-1.84-4.706-3.894-9.609-6.181-14.734
	c-1.566-3.565-3.882-5.881-6.947-6.947c-2.399-0.866-5.098-1.1-8.097-0.7c-2.599,0.366-4.914,1.083-6.947,2.149
	c-2.765,1.399-4.931,3.448-6.497,6.147c-2.299,3.932-2.615,8.513-0.95,13.744c1.729,5.441,5.674,11.327,11.827,17.658
	c-2.737,1.636-5.163,4.111-7.278,7.431c-2.467,3.824-4.139,8.212-5.037,13.15c-11.193-3.168-18.167-4.972-20.902-5.403
	c-6.297-1.033-11.162-0.133-14.594,2.699C1.616,174.118,0,178.116,0,183.447c0.033,4.664,1.549,8.729,4.548,12.194
	c3.199,3.665,7.497,6.015,12.895,7.047c4.131,0.767,10.062,0.45,17.792-0.95c1.295-0.234,2.486-0.466,3.615-0.695
	c1.507,6.378,4.771,11.848,9.829,16.389c5.298,4.698,11.928,7.847,19.891,9.446c9.329,1.866,18.059,1.565,26.188-0.899
	c7.396-2.266,13.793-6.147,19.191-11.645c5.098-5.198,8.763-11.262,10.995-18.192c2.171-6.71,2.706-13.371,1.629-19.985
	c0.581-0.594,1.166-1.17,1.755-1.729c0.316,2.043,1.001,5.209,2.063,9.521c0.991,3.882,1.971,7.402,2.939,10.603
	c-1.34,0.609-2.669,2.113-3.988,4.54c-1.399,2.532-2.316,4.981-2.749,7.348c-0.2,1.065-0.117,2.049,0.25,2.948
	c0.079,0.197,0.187,0.397,0.299,0.598c-1.646,1.771-4.857,6.646-9.645,14.646c-6.197,10.328-9.129,17.408-8.796,21.24
	c0.15,1.682,3.006,4.249,8.548,7.692c-4.357,6.308-7.714,11.614-10.047,15.897c-3.865,7.063-7.114,14.776-9.746,23.139
	c-3.532,11.295-6.131,20.708-7.797,28.238c-1.333,6.098-1.899,10.063-1.699,11.895c0.333,2.632,3.199,6.68,8.596,12.145
	c5.464,5.564,9.563,8.479,12.294,8.746c5.831,0.566,18.042-1.533,36.634-6.297c19.625-4.998,30.386-9.346,32.286-13.045
	c0.466-0.999,0.6-3.715,0.4-8.146c-0.333-6.33-0.433-11.277-0.3-14.843c0.2-5.431,0.899-9.462,2.099-12.095
	c1.566-3.432,4.215-7.18,7.947-11.245c2.317-2.527,4.505-4.654,6.577-6.421c9.777,1.739,19.373,2.749,28.787,3.027
	c-4.706,9.245-6.965,14.393-6.777,15.438c0.133,0.7,1.45,1.766,3.948,3.198c2.299,1.266,4.798,2.416,7.497,3.449
	c4.731,1.832,8.513,2.914,11.345,3.248l2.998-0.15c1.1-0.6,2.933-5.896,5.498-15.893c0.832-3.192,1.694-6.715,2.586-10.546
	l14.925-1.944c1.117,5.156,2.129,9.53,3.03,13.09c1.766,6.863,2.998,10.362,3.698,10.496c0.814,0.167,2.784-0.559,5.871-2.146
	c0.431,1.399,0.356,3.114-0.224,5.145l-1.699,4.398c-0.467,1.066-0.767,1.849-0.899,2.349c-0.233,0.733-0.351,1.499-0.351,2.299
	c0,1.433,0.367,2.698,1.1,3.798c1,1.467,2.716,2.75,5.148,3.849c3.398,1.565,9.362,3.332,17.892,5.298
	c8.563,1.999,16.676,3.516,24.339,4.548c11.162,1.466,20.058,2.165,26.688,2.099c6.73-0.1,10.795-0.982,12.194-2.648
	c1.1-1.332,0.949-4.048-0.45-8.146c-1.266-3.631-2.648-6.297-4.147-7.996c-0.057-0.066-0.12-0.126-0.179-0.191
	c-3.306-4.251-4.969-8.519-4.969-12.803c0-2.766-0.2-6.58-0.601-11.445c-0.466-5.464-0.999-9.762-1.599-12.895
	c-0.467-2.432-3.148-6.33-8.047-11.694l-11.593-11.778c1.363-1.312,1.989-2.485,1.848-3.515c-0.233-1.633-4.215-6.864-11.945-15.692
	c-7.028-8.002-11.69-12.897-13.991-14.693c0.083-0.298,0.12-0.582,0.098-0.85c-0.166-1.767-0.85-4.299-2.049-7.598
	c-0.826-2.314-1.515-3.991-2.067-5.053c1.19-2.344,3.359-8.264,6.516-17.787c4.531-13.827,7.146-25.288,7.846-34.384
	c0.124-1.662,0.187-3.31,0.211-4.95c5.537,1.029,14.824,1.929,27.877,2.701c14.927,0.866,23.939,0.816,27.038-0.15
	c7.796-2.399,16.376-10.079,25.738-23.04c8.663-11.961,14.144-22.624,16.442-31.986c1.767-7.097,2.582-13.327,2.449-18.691
	c-0.061-3.155-0.528-6.295-1.362-9.423c4.285-0.583,8.571-1.495,12.857-2.772c5.23-1.566,9.029-3.265,11.395-5.098
	c3.132-2.366,5.197-5.048,6.197-8.046C446.533,53.155,446.483,50.29,445.45,47.358z"/>
</svg>
