<?xml version="1.0" encoding="utf-8"?>
<!-- Generator: Adobe Illustrator 16.0.0, SVG Export Plug-In . SVG Version: 6.00 Build 0)  -->
<!DOCTYPE svg PUBLIC "-//W3C//DTD SVG 1.1//EN" "http://www.w3.org/Graphics/SVG/1.1/DTD/svg11.dtd">
<svg version="1.1" id="图层_1" xmlns="http://www.w3.org/2000/svg" xmlns:xlink="http://www.w3.org/1999/xlink" x="0px" y="0px"
	 width="287px" height="358px" viewBox="0 0 287 358" enable-background="new 0 0 287 358" xml:space="preserve">
<path d="M179.834,161.332c2.028-5.292,4.454-9.684,7.265-13.197c1.589,2.247,3.39,4.752,5.431,7.55
	c5.398,7.597,9.08,12.911,11.045,15.943l8.597,13.794l4.249,7.697c0.832,1.766,2.465,3.698,4.897,5.797
	c2.532,2.199,5.431,4.115,8.696,5.748c1.399,0.732,3.882,1.033,7.447,0.899c3.564-0.167,6.063-0.666,7.496-1.499
	c3.565-2.133,9.529-9.379,17.893-21.741c9.029-13.294,15.544-25.056,19.542-35.285c2.565-6.497,3.898-13.328,3.999-20.491
	c0.1-7.297-1.051-15.977-3.449-26.039c-2.499-10.462-4.148-19.592-4.947-27.389c-0.467-4.365-1.383-7.13-2.75-8.296
	c-1.292-1.094-3.213-0.883-5.76,0.629c-0.514-2.082-1.192-5.523-2.037-10.325c-0.966-5.731-1.682-10.679-2.148-14.844
	c-0.467-4.165-1.616-6.614-3.449-7.347c-1.665-0.667-3.682,0.117-6.047,2.349c-3.132,2.932-5.548,7.213-7.247,12.845
	c-1.933,6.431-2.532,13.494-1.799,21.191c0.532,5.231,1.565,9.729,3.099,13.494c0.272,0.648,0.56,1.255,0.855,1.843
	c-0.002,0.002-0.005,0.004-0.006,0.007l-2.878,3.645c-0.238-2.447-0.992-5.177-2.271-8.193c-1.898-4.531-4.664-8.796-8.296-12.794
	c-2.565-2.866-5.281-5.231-8.147-7.097c-3.998-2.565-7.047-3.465-9.146-2.699c-2.599,1-2.799,4.581-0.6,10.746l5.747,14.194
	c3.633,8.663,5.947,13.894,6.947,15.693c2.704,4.769,4.805,7.955,6.317,9.595c-0.102,1.568-0.103,3.201,0.007,4.904l-0.076-0.004
	c-0.533,4.998-2.416,10.662-5.648,16.993c-0.921,1.842-3.098,5.632-6.52,11.354c-5.385-10-9.628-17.255-12.723-21.749l-5.997-8.646
	c-2.032-2.999-3.698-5.698-4.997-8.097c-0.134-3.199-2.866-8.663-8.197-16.393c-4.983-7.166-9.534-12.568-13.657-16.231
	c-0.031-0.318-0.05-0.651-0.087-0.961c-0.736-6.371-6.841-16.382-18.281-30.012c-0.446-1.146-0.906-2.133-1.38-2.958
	c0.017-0.054,0.032-0.108,0.02-0.167c-3.365-13.828-9.362-23.707-17.993-29.637c-6.497-4.432-14.111-6.464-22.84-6.098
	c-10.962,0.466-19.742,4.598-26.339,12.395c-6.664,7.897-9.996,18.292-9.996,31.187c0.005,2.039,0.121,4.126,0.322,6.252
	c-1.974,3.148-3.947,7.633-5.92,13.49c-2.332,6.964-3.499,12.678-3.499,17.143c0,0.508,0.008,1.05,0.02,1.612
	c-2.898,2.057-5.489,4.683-7.766,7.884c-1.759,2.475-2.86,4.501-3.313,6.084c-4.097,3.223-12.347,10.582-24.775,22.104
	l-21.191,19.892c-3.266,3.166-6.764,7.447-10.496,12.845c-4.865,7.097-7.164,12.412-6.897,15.943
	c0.367,4.698,1.417,8.313,3.149,10.846c2.166,3.198,6.047,5.964,11.645,8.296l10.746,0.5l18.092-1.749
	c11.495-1.366,21.241-2.083,29.238-2.149c5.431-0.033,11.229-1.199,17.393-3.498c2.468-0.91,4.691-1.902,6.669-2.975
	c2.158,5.697,3.201,11.771,3.125,18.222c-0.55,0.182-1.083,0.479-1.598,0.896c-0.833,0.7-1.449,1.583-1.849,2.649l-2.549,7.297
	c-0.527,1.646-0.282,3.122,0.727,4.434c-4.75,1.251-10.104,3.119-16.07,5.612c-4.731,1.999-8.33,3.682-10.795,5.048
	c-1.366,0.767-2,1.749-1.899,2.948c0.04,0.652,0.308,1.432,0.793,2.331c-3.754,1.488-8.92,4.332-15.537,8.565
	c-8.097,5.166-14.201,9.975-18.331,14.427c-0.537,0.273-1.074,0.717-1.611,1.366c-2.865,3.465-4.781,5.964-5.748,7.496
	c-2.532,4.065-3.748,7.764-3.648,11.096c0.067,2.766,1.033,6.248,2.899,10.445l4.248,8.348c0.384,0.738,0.895,1.271,1.516,1.615
	c1.694,2.372,3.388,5.347,5.082,8.93c1.833,3.832,2.683,6.364,2.549,7.597c-0.1,1.167-0.683,3.399-1.75,6.697
	c-0.82,2.486-1.566,4.498-2.239,6.038c-0.383,0.643-0.689,1.343-0.91,2.108c-0.667,2.433-0.783,5.081-0.35,7.946
	c0.4,2.732,1.066,4.365,1.999,4.898c1.366,0.8,4.332,1.283,8.896,1.449c6.197,0.2,12.995-0.533,20.392-2.199
	c8.33-1.865,15.293-4.248,20.891-7.146c5.564-2.865,9.08-5.881,10.545-9.047c1.6-3.465,1.5-7.13-0.3-10.994
	c-1.333-2.866-4.498-7.314-9.496-13.346c-3.398-4.131-5.781-7.43-7.147-9.896c-2.099-3.831-3.148-7.663-3.148-11.495
	c0-3.731,1.449-7.396,4.348-10.995c2.912-3.601,7.195-6.963,12.813-10.094c1.323,0.776,2.657,1.52,4.007,2.206
	c-6.254,14.636-9.331,22.268-9.224,22.881c0.233,1.367,3.549,4.232,9.946,8.597c6.498,4.465,10.413,6.364,11.745,5.698
	c0.474-0.222,2.52-10.654,6.135-31.282c5.41,0.751,11.33,0.813,17.759,0.188c0.515,2.102,1.018,4.207,1.546,6.304l6.297,24.689
	c0.233,1.066,0.566,1.699,1,1.899l1.899-0.15c3.099-0.832,7.547-2.531,13.345-5.098c5.83-2.599,10.245-4.848,13.244-6.747
	c1.332-0.833,1.999-1.632,1.999-2.399c0.033-0.799-0.566-2.332-1.8-4.598c-2.499-4.685-6.101-10.98-10.786-18.862l2.84,1.569
	c4.498,2.566,8.713,5.165,12.646,7.797c12.561,8.396,20.024,15.51,22.391,21.342c2.031,4.897,3.348,13.16,3.947,24.789
	c0.233,4.432,0.35,10.962,0.35,19.592c0,2.799,0.317,4.981,0.95,6.547c0.866,2.133,2.516,3.916,4.948,5.348
	c4.564,2.699,13.127,6.131,25.689,10.296c15.127,4.998,25.521,6.964,31.187,5.897c0.866-0.166,1.849-0.75,2.948-1.749
	c1.166-1.066,2.166-2.349,2.999-3.849c1.167-2.032,1.999-4.414,2.499-7.146c0.767-4.198,0.434-8.213-1-12.045
	c-1.699-4.632-3.448-8.63-5.247-11.995c-0.733-1.333-2.532-5.798-5.397-13.395l-4.099-11.046l-4.599-14.043
	c-2.166-6.298-4.281-11.662-6.347-16.094c-2.032-4.398-6.497-10.063-13.395-16.993c-6.03-6.062-14.489-13.671-25.365-22.819
	c1.164-1.357,1.781-2.551,1.825-3.569c0.1-1.433-0.949-3.149-3.148-5.147c-2.666-2.433-6.447-5.182-11.346-8.247
	c-4.845-3.006-8.718-4.963-11.62-5.873c0.128-0.385,0.228-0.788,0.274-1.224c0.167-1.467-0.149-3.016-0.949-4.648
	c-1.366-2.832-2.732-5.064-4.098-6.697c-0.893-1.058-1.917-1.588-3.071-1.597C175.355,178.417,176.67,169.618,179.834,161.332z"/>
</svg>
