<?xml version="1.0" encoding="utf-8"?>
<!-- Generator: Adobe Illustrator 16.0.0, SVG Export Plug-In . SVG Version: 6.00 Build 0)  -->
<!DOCTYPE svg PUBLIC "-//W3C//DTD SVG 1.1//EN" "http://www.w3.org/Graphics/SVG/1.1/DTD/svg11.dtd">
<svg version="1.1" id="图层_1" xmlns="http://www.w3.org/2000/svg" xmlns:xlink="http://www.w3.org/1999/xlink" x="0px" y="0px"
	 width="183px" height="236px" viewBox="0 0 183 236" enable-background="new 0 0 183 236" xml:space="preserve">
<path d="M176.859,113.694c3.205-9.879,3.822-19.207,1.853-27.985c-1.735-7.71-5.339-14.835-10.813-21.377
	c-5.34-5.34-8.293-8.561-8.862-9.662l-4.705-9.212c-1.603-2.603-3.188-3.838-4.757-3.705c-0.901,0.067-1.637,0.768-2.202,2.103
	c-0.302,0.667-0.501,1.335-0.603,2.002l-3.203-0.951l-4.605,0.101c-0.424,0.318-0.693,0.717-0.827,1.185
	c-12.444-7.671-27.237-11.264-44.385-10.768l0.856-14.649c0.566-12.116,0.566-18.473,0-19.074C93.838,0.868,92.387,0.333,90.25,0.1
	c-2.236-0.267-3.688,0.033-4.355,0.901c-0.535,0.702-0.384,6.075,0.451,16.121l1.402,14.869c-2.67-7.175-6.375-14.301-11.114-21.377
	c-4.439-6.609-7.46-9.913-9.062-9.913c-1.369,0-3.021,0.818-4.957,2.453c-1.936,1.636-2.887,3.104-2.854,4.406
	c0.033,1.101,3.572,5.807,10.614,14.118l10.563,12.116c-3.437-1.836-6.958-3.588-10.563-5.257
	c-7.242-3.338-11.331-4.556-12.265-3.655c-0.567,0.534-0.985,2.236-1.252,5.106c-0.3,2.904-0.234,4.807,0.2,5.708
	c0.517,1.132,4.82,2.216,12.886,3.253c-9.509,2.745-17.816,7.059-24.903,12.967c-3.621,3.027-6.623,6.218-9.021,9.568
	c-0.43,0.242-0.893,0.539-1.392,0.898c-0.934,0.7-1.785,1.418-2.553,2.152l-1.102-2.103c-0.901-1.402-1.803-2.002-2.704-1.802
	c-1.535,0.3-2.703,1.986-3.504,5.056c-0.467,1.836-1.118,5.257-1.952,10.263c-0.134,0.868-2.103,4.806-5.908,11.815
	c-3.905,8.411-6.241,16.755-7.009,25.032c-1.068,11.182-0.734,19.992,1.001,26.434c1.903,7.043,5.658,12.049,11.265,15.02
	c1.346,0.707,2.771,1.168,4.266,1.406c-1.005,4.259-1.527,8.313-1.561,12.158c-0.025,2.706,0.201,5.33,0.675,7.874
	c-1.478-0.075-3.168-0.49-5.081-1.266c-1.202-0.467-3.672-1.702-7.41-3.705c-6.141-3.271-10.246-3.854-12.315-1.752
	c-1.268,1.269-0.784,3.688,1.452,7.261c2.203,3.604,5.557,7.342,10.063,11.213c10.525,9.114,21.417,14.479,32.674,16.116
	c0.209,0.15,0.405,0.306,0.618,0.455c1.41,0.996,2.866,1.93,4.348,2.827c-4.78,2.306-9.98,6.041-15.612,11.242
	c-6.208,5.806-8.627,9.495-7.259,11.063l12.116-0.351l10.463-2.253l1.552,4.306c1.368,2.905,2.837,4.423,4.405,4.556
	c1.635,0.135,4.305-1.234,8.01-4.104l5.057-4.307l8.26,4.256c5.84,2.67,9.612,3.605,11.314,2.804c1.369-0.667,1.218-3.021-0.45-7.06
	c-0.91-2.231-2.416-5.188-4.515-8.866c4.776,0.645,9.768,0.998,14.978,1.056c4.476,0.051,8.78-0.128,12.935-0.508
	c-0.784,2.938-1.27,6.006-1.422,9.221c-0.166,3.805,0.25,5.892,1.252,6.258c1.735,0.635,5.457-0.217,11.164-2.553l8.062-3.756
	l5.557,4.006c4.14,2.569,7.243,3.637,9.313,3.203c1.402-0.267,2.637-2.086,3.701-5.457l1.203-4.956l8.459,3.505
	c5.842,2.068,9.246,2.486,10.215,1.252c1.568-1.969-0.135-5.842-5.107-11.615c-4.295-4.96-8.771-8.881-13.422-11.786
	c0.068-0.045,0.139-0.085,0.207-0.13c14.285-9.312,21.494-21.41,21.628-36.295c0.067-7.01-1.735-15.137-5.408-24.381
	c-1.206-3.015-2.558-5.965-4.024-8.862C168.932,130.814,173.725,123.288,176.859,113.694z"/>
</svg>
