<?xml version="1.0" encoding="utf-8"?>
<!-- Generator: Adobe Illustrator 16.0.0, SVG Export Plug-In . SVG Version: 6.00 Build 0)  -->
<!DOCTYPE svg PUBLIC "-//W3C//DTD SVG 1.1//EN" "http://www.w3.org/Graphics/SVG/1.1/DTD/svg11.dtd">
<svg version="1.1" id="图层_1" xmlns="http://www.w3.org/2000/svg" xmlns:xlink="http://www.w3.org/1999/xlink" x="0px" y="0px"
	 width="158px" height="155px" viewBox="0 0 158 155" enable-background="new 0 0 158 155" xml:space="preserve">
<path d="M143.635,72.879c1.266-1.398,1.915-3.264,1.949-5.595c0.066-2.63-0.7-5.078-2.299-7.343c-0.299-0.366-0.615-0.433-0.949-0.2
	c-2.598,1.432-5.078,1.798-7.442,1.099c-3.363-0.932-5.878-3.413-7.542-7.442c-1.699-4.129-1.832-8.409-0.4-12.838
	c0.666-2.098,1.781-4.046,3.347-5.844c1.433-1.632,2.947-2.831,4.546-3.597c0.333-0.167,0.449-0.449,0.35-0.849
	c-0.6-2.364-1.965-4.912-4.096-7.643l-5.895-6.793l-5.245-6.344c-1.632-2.364-2.664-4.579-3.097-6.644
	c-0.4-1.798-0.816-2.748-1.249-2.847c-0.3-0.066-1.266,0.366-2.897,1.299c-1.898,1.065-4.545,2.064-7.941,2.997l-10.49,2.447
	c-12.122,2.564-20.181,4.612-24.177,6.145c-8.525,3.263-15.502,8.258-20.93,14.985c-0.367,0.433-0.3,0.816,0.2,1.149
	c3.197,2.298,5.112,5.511,5.744,9.641c0.6,4.163-0.183,8.558-2.348,13.187c-2.531,5.461-6.41,9.691-11.639,12.688
	c-5.761,3.33-11.755,4.179-17.982,2.547c-0.466-0.133-0.75,0.033-0.849,0.5c-4.447,15.362-1.498,28.734,8.836,40.118
	c-1.569,0.313-3.562,0.544-5.989,0.692c-6.46,0.367-11.406,1.183-14.836,2.448c-5.195,1.931-8.375,5.112-9.541,9.54
	c-0.866,3.364-0.799,6.711,0.2,10.041c0.935,3.128,2.501,5.641,4.686,7.552c-1.014,1.386-1.515,2.979-1.489,4.786
	c0,2.398,0.816,4.479,2.448,6.244c1.599,1.799,3.547,2.73,5.844,2.797c2.398,0.066,4.429-0.782,6.094-2.547
	c0.895-0.948,1.536-1.991,1.94-3.122l4.354,1.423l5.022,1.292c0.42,1.179,1.087,2.267,2.021,3.254
	c1.699,1.798,3.747,2.714,6.144,2.747c2.265,0.033,4.229-0.766,5.895-2.397c0.731-0.718,1.302-1.525,1.73-2.414l14.028-0.841
	c0.139,0.153,0.275,0.31,0.426,0.458c1.765,1.765,3.896,2.647,6.394,2.647s4.662-0.933,6.494-2.797
	c1.055-1.055,1.795-2.229,2.243-3.516c2.492-0.837,4.829-1.77,7.015-2.797c3.586,2.396,7.127,2.338,10.624-0.182
	c3.484-2.48,4.511-5.658,3.081-9.53c0.397-0.43,0.785-0.866,1.158-1.311c4.793-0.046,9.591-0.594,14.392-1.647
	c6.396-1.421,11.79-3.546,16.23-6.344c6.874-3.318,12.779-7.854,17.688-13.637c5.428-6.327,8.358-12.688,8.791-19.082
	C154.824,83.27,151.295,77.075,143.635,72.879z M101.994,42.241c-0.937-0.46-1.951-0.811-3.033-1.065
	c0.785-0.989,1.703-1.768,2.765-2.314c1.165-0.6,2.165-0.749,2.997-0.45c0.706,0.265,1.261,0.929,1.681,1.948
	C104.844,40.709,103.374,41.337,101.994,42.241z"/>
</svg>
