<?xml version="1.0" encoding="utf-8"?>
<!-- Generator: Adobe Illustrator 16.0.0, SVG Export Plug-In . SVG Version: 6.00 Build 0)  -->
<!DOCTYPE svg PUBLIC "-//W3C//DTD SVG 1.1//EN" "http://www.w3.org/Graphics/SVG/1.1/DTD/svg11.dtd">
<svg version="1.1" id="图层_1" xmlns="http://www.w3.org/2000/svg" xmlns:xlink="http://www.w3.org/1999/xlink" x="0px" y="0px"
	 width="248px" height="204px" viewBox="0 0 248 204" enable-background="new 0 0 248 204" xml:space="preserve">
<path d="M245.497,163.262c-2.236-2.002-6.208-3.388-11.917-4.156c-4.066-0.518-8.347-0.648-12.835-0.403
	c0.505-0.796,0.595-1.696,0.268-2.7c-0.534-1.603-2.087-2.771-4.657-3.506c-2.736-0.768-6.125-1.084-10.164-0.951
	c-4.184,0.126-8.182,0.729-12.01,1.773c-0.115-0.325-0.228-0.65-0.357-0.972c-1.54-3.755-3.892-6.559-7.037-8.432
	c1.419-9.015,1.499-18.054,0.228-27.118c-1.735-12.318-5.759-23.483-12.067-33.498c-6.309-10.081-14.236-17.892-23.783-23.433
	c-9.892-5.784-20.579-8.536-32.057-8.27c2.473-3.137,4.24-6.65,5.27-10.557c1.402-5.141,1.452-10.448,0.15-15.922
	c-1.269-5.341-3.605-10.148-7.01-14.42c-3.505-4.373-7.661-7.578-12.468-9.614c-2.169-0.901-3.505-1.185-4.005-0.851
	c-0.534,0.333-0.634,1.485-0.301,3.455c3.305,23.567,5.308,39.589,6.009,48.068C77.944,34.03,63.073,24.95,62.138,24.516
	c-1.535-0.734-2.553-0.818-3.054-0.25c-0.5,0.567-0.651,1.97-0.451,4.206c1.168,12.751,6.259,22.415,15.271,28.991
	c2.9,2.116,5.91,3.686,9.024,4.723c-13.002,9.523-21.727,23.229-26.148,41.142c-3.917,15.851-3.441,31.906,1.384,48.165
	c-5.081,4.829-7.434,10.773-7.045,17.835c-4.421-1.367-8.827-1.889-13.216-1.559c-3.806,0.3-6.977,1.151-9.514,2.554
	c-2.57,1.436-4.156,3.138-4.756,5.107c-0.512,1.676-0.144,3.059,1.086,4.154c-3.814,0.355-7.73,1.3-11.751,2.855
	c-5.308,2.069-9.096,4.456-11.366,7.16c-1.402,1.735-1.886,3.388-1.452,4.957c0.501,1.735,2.07,3.121,4.707,4.155
	c3.539,1.401,8.345,1.536,14.42,0.4c5.829-1.073,10.569-2.901,14.238-5.468c-0.381,0.739-0.658,1.51-0.819,2.313
	c-0.467,2.137,0.083,3.806,1.652,5.007c2.37,1.736,7.093,1.719,14.17-0.05c7.327-1.864,13.621-4.842,18.896-8.918
	c9.671,4.879,21.928,5.388,36.782,1.508c4.812-1.271,9.273-2.813,13.398-4.614c5.13,1.714,11.452,1.914,18.998,0.559
	c8.145-1.428,13.614-3.979,16.429-7.645c2.136,0.623,4.301,1.129,6.503,1.485c6.977,1.136,13.87,0.852,20.68-0.851
	c2.943-0.73,5.503-2.044,7.697-3.913c5.071,2.896,10.281,4.807,15.636,5.716l12.367-0.401c3.672-1.202,5.107-3.188,4.306-5.958
	c-0.42-1.444-1.35-2.759-2.751-3.953c4.656,1.392,9.56,1.916,14.718,1.549c5.542-0.4,9.781-1.668,12.719-3.805
	c1.702-1.234,2.554-2.688,2.554-4.355C247.483,165.815,246.832,164.464,245.497,163.262z"/>
</svg>
