<?xml version="1.0" encoding="utf-8"?>
<!-- Generator: Adobe Illustrator 16.0.0, SVG Export Plug-In . SVG Version: 6.00 Build 0)  -->
<!DOCTYPE svg PUBLIC "-//W3C//DTD SVG 1.1//EN" "http://www.w3.org/Graphics/SVG/1.1/DTD/svg11.dtd">
<svg version="1.1" id="图层_1" xmlns="http://www.w3.org/2000/svg" xmlns:xlink="http://www.w3.org/1999/xlink" x="0px" y="0px"
	 width="230px" height="325px" viewBox="0 0 230 325" enable-background="new 0 0 230 325" xml:space="preserve">
<path d="M229.127,221.659c-4.295-22.442-13.535-38.808-27.721-49.097c-14.146-10.229-29.751-11.908-46.812-5.047
	c-3.771-4.061-9.822-8.887-18.168-14.482c-9.012-5.985-16.294-9.851-21.862-11.614c-0.022-0.11-0.042-0.212-0.064-0.324l-0.6-3.196
	c-0.006-0.074-0.021-0.126-0.03-0.193c0.781-0.023,1.558-0.068,2.328-0.156c5.052-0.552,9.838-2.13,14.358-4.732
	c6.144,0.963,12.096-1.183,17.857-6.456c4.826-4.409,7.973-9.226,9.472-14.443c3.969-2.17,6.941-5.576,8.908-10.23
	c1.897-4.495,2.563-9.307,1.998-14.435c-0.566-5.294-2.314-9.839-5.245-13.635c-3.229-4.196-7.458-6.843-12.686-7.941
	c-2.691-9.293-6.678-18.601-11.929-27.925c1.178-2.743,1.846-5.982,1.989-9.734c0.333-8.458-1.848-17.231-6.543-26.321
	c-1.232-2.431-1.981-2.281-2.248,0.449c-0.307,3.75-1.45,10.505-3.419,20.222c-2.803-3.39-5.196-5.644-7.169-6.737
	c-0.666-0.366-1.1-0.549-1.299-0.549c-0.333,0.067-0.533,0.483-0.6,1.249c-0.566,5.96-1.648,14.951-3.246,26.971
	c-1.865,13.918-3.28,22.692-4.246,26.322c-0.766-2.165-3.146-10.722-7.143-25.672l-7.342-26.821
	c-0.267-0.799-0.566-1.182-0.899-1.149c-0.3,0.067-0.783,0.483-1.449,1.249c-1.305,1.398-2.761,3.279-4.355,5.605
	c-2.538-8.259-4.419-14.881-5.634-19.84c-0.5-1.931-1.332-2.031-2.497-0.3c-6.027,9.124-7.708,18.547-5.044,28.27
	c0.846,3.071,2.084,5.821,3.703,8.26c-5.432,11.471-8.268,21.539-8.498,30.198c-4.029,1.998-7.359,4.828-9.989,8.491
	c-2.564,3.629-4.079,7.575-4.545,11.837c-1.085,9.738,3.072,17.799,12.452,24.188c2.143,7.345,5.679,13.057,10.624,17.117
	c5.804,4.782,12.655,6.342,20.55,4.689c2.539,0.887,5.025,1.473,7.459,1.761c-0.031,0.11-0.064,0.211-0.089,0.343l-0.808,2.608
	c-9.624,0.997-18.599,3.878-26.912,8.679c-8.023,4.613-13.828,10.008-17.446,16.174c-7.218-2.694-14.338-3.231-21.362-1.59
	c-6.926,1.599-13.236,5.161-18.93,10.688C11.811,186.131,4.802,203.079,2.97,225.256c-0.066,1.064,0,1.664,0.2,1.797
	c0.267,0.134,0.833-0.232,1.698-1.098l12.287-12.587c6.193-6.526,10.339-11.088,12.437-13.686l0.15-0.3
	c0.599-7.958,3.946-13.568,10.039-16.832c2.697-1.465,5.478-2.08,8.341-1.848c3.03,0.233,5.744,1.365,8.142,3.396l0.899-0.1
	l3.846-8.391l3.679-8.692c2.793,2.095,6.124,3.434,10.006,3.997c4.295,0.6,8.59,0.1,12.886-1.498
	c5.696-2.098,10.358-5.244,14.013-9.413c-1.597,5.92-2.194,11.309-1.776,16.155c0.108,1.327,0.301,2.457,0.56,3.433
	c-11.611,2.855-23.402,8.385-35.373,16.596c-12.02,8.191-23.242,18.38-33.664,30.567c-8.091,9.523-14.967,19.646-20.628,30.367
	c-5.427,10.322-8.791,19.379-10.089,27.17c-0.4,2.299-0.383,3.613,0.05,3.946c0.533,0.433,2.165,0.101,4.895-0.999
	c5.195-2.031,12.004-6.193,20.428-12.486c9.656-7.159,16.149-13.519,19.479-19.08c3.996,2.165,9.739,2.348,17.231,0.55
	c6.94-1.638,11.934-4.27,15.01-7.88c-0.068,3.771,0.022,5.827,0.273,6.132c0.106,0.129,0.242,0.257,0.362,0.385
	c-0.033,1.212-0.038,3.374-0.012,6.508c0.033,4.495,0.167,7.075,0.399,7.741c0.26,0.825,0.911,1.646,1.907,2.465
	c-2.832,5.03-4.701,12.528-5.603,22.509c-0.933,10.655-0.267,19.495,1.998,26.521c0.533,1.632,1.049,2.397,1.548,2.298
	c0.466-0.066,0.783-0.832,0.949-2.298c0.5-4.595,1.681-12.271,3.546-23.025c2.064-11.679,3.686-19.07,4.867-22.193
	c3.314,1.281,5.424,1.722,6.321,1.315c0.433-0.199,1.065-2.496,1.898-6.893l1.388-7.077c0.193,0.016,0.388,0.032,0.56,0.035
	l0.75-0.3c0.319-0.383,0.56-1.064,0.726-2.028c0.145,0.087,0.291,0.177,0.423,0.23c0.186,0.075,0.396,0.131,0.591,0.198
	c2.422,3.599,4.71,6.809,6.851,9.592c2.83,3.729,4.745,5.826,5.744,6.293c1.216,0.594,3.379,0.709,6.458,0.36
	c1.091,5.934,4.121,12.254,9.125,18.969c5.16,6.926,11.154,12.569,17.98,16.932c1.765,1.132,2.863,1.481,3.297,1.049
	c0.398-0.433-0.051-1.499-1.35-3.196l-11.338-17.481c-5.885-9.219-9.735-15.039-11.557-17.469c2.117-0.688,3.288-1.571,3.466-2.659
	c0.194-0.971-1.536-5.965-5.179-14.954c0.468-0.379,0.701-0.771,0.684-1.179c-0.066-0.899-1.248-3.979-3.546-9.24l-3.262-7.173
	c0.605-0.48,1.029-1.003,1.264-1.567v-0.5c-2.047-5.13-4.32-10.206-6.803-15.231c0.782-6.102,1.023-10.974,0.709-14.587
	c-0.229-2.508-0.696-4.716-1.393-6.635c0.739-8.666-0.672-15.225-4.231-19.678c-0.007-0.093-0.019-0.182-0.027-0.273
	c1.27-0.977,2.65-2.437,4.152-4.43c3.696-4.928,5.444-11.538,5.244-19.829c-0.001-0.029-0.003-0.063-0.004-0.092
	c10.896,16.145,23.421,19.91,37.575,11.292l4.733,4.732l9.091,9.79c0.532,0.565,0.948,0.832,1.248,0.799l1.148-0.948
	c5.494-5.661,11.838-6.178,19.029-1.549c6.594,4.229,11.139,10.539,13.636,18.93l0.2,0.25l9.34,7.99
	c6.76,5.928,11.521,10.373,14.284,13.336c0.833,0.899,1.433,1.266,1.798,1.1C229.311,223.474,229.359,222.824,229.127,221.659z"/>
</svg>
