<?xml version="1.0" encoding="utf-8"?>
<!-- Generator: Adobe Illustrator 16.0.0, SVG Export Plug-In . SVG Version: 6.00 Build 0)  -->
<!DOCTYPE svg PUBLIC "-//W3C//DTD SVG 1.1//EN" "http://www.w3.org/Graphics/SVG/1.1/DTD/svg11.dtd">
<svg version="1.1" id="图层_1" xmlns="http://www.w3.org/2000/svg" xmlns:xlink="http://www.w3.org/1999/xlink" x="0px" y="0px"
	 width="209px" height="184px" viewBox="0 0 209 184" enable-background="new 0 0 209 184" xml:space="preserve">
<path d="M206.572,108.084c-0.532-5.32-1.929-11.057-4.189-17.208c-2.29-6.297-5.149-12.101-8.564-17.424
	c0.061-0.293,0.13-0.588,0.185-0.881c0.466-2.527,0.698-5.038,0.698-7.532c0-6.384-1.529-12.087-4.589-17.108
	c0.599-14.166,0.632-24.208,0.1-30.126c-0.864-9.411-2.345-14.032-4.438-13.866c-0.832,0.066-1.48,0.948-1.945,2.644
	c-0.466,1.696-0.981,5.038-1.547,10.025c-0.84,7.673-1.991,16.16-3.438,25.415c-5.68-9.202-13.688-16.447-24.044-21.724
	c-10.566-5.38-21.403-7.545-32.508-6.511c-0.176-1.423-0.355-2.85-0.512-4.262l-1.047-7.133c-0.433-1.962-1.164-2.743-2.195-2.344
	c-0.831,0.333-1.529,1.081-2.095,2.245c-0.931,1.962-1.696,4.655-2.294,8.08c-0.271,1.568-0.492,3.228-0.663,4.979
	c-11.79,3.33-22.494,11.602-32.107,24.848c-2.551,3.517-4.778,7.038-6.699,10.563c-4.93,3.023-9.698,6.646-14.3,10.885
	c-6.952,6.394-12.055,13.044-15.325,19.948c-1.48-4.377-2.973-8.271-4.476-11.668c-1.497-3.425-2.81-5.936-3.94-7.532
	c-1.53-2.128-2.561-3.026-3.092-2.693c-0.499,0.299-0.565,1.513-0.2,3.641l2.245,15.762c0.888,6.941,1.423,12.002,1.616,15.228
	c-0.981,1.81-1.886,3.883-2.713,6.22c-1.34,3.777-2.157,7.661-2.5,11.641c-0.864,1.271-1.823,3.72-2.875,7.315
	c-0.698-0.334-1.38-0.455-2.047-0.381l-2.305-7.951c-2.66-8.28-5.603-16.027-8.828-23.243c-2.294-5.121-4.522-9.577-6.684-13.367
	c-1.995-3.492-3.691-6.019-5.087-7.582c-3.625-4.057-4.821-3.691-3.591,1.097l7.382,31.424c0.133,1.13,0.133,2.045,0,2.742
	c-0.399,2.195-0.549,4.623-0.449,7.283c0.133,4.688,1.164,8.379,3.093,11.072c2.228,3.126,4.722,5.936,7.481,8.43
	c1.044,0.967,2.024,1.777,2.949,2.458c0.534,2.147,1.84,4.536,3.934,7.169c2.45,3.033,5.301,5.311,8.542,6.854
	c-0.452,2.697-0.296,5.236,0.485,7.61c0.831,2.494,2.294,4.639,4.389,6.435c0.931,0.765,1.646,1.064,2.145,0.897
	c0.565-0.166,0.931-0.964,1.097-2.394c0.2-1.363,0.582-2.811,1.147-4.34c0.182-0.479,0.371-0.918,0.563-1.336
	c0.199,1.434,0.531,2.951,1.033,4.578c1.297,4.156,3.292,7.133,5.985,8.928c1.995,1.33,3.492,1.696,4.489,1.098
	c0.632-0.365,1.014-1.014,1.147-1.945v-3.441c-0.091-2.471,0.309-4.361,1.177-5.698c0.496,2.021,1.483,4.483,2.963,7.394
	c2.361,4.789,4.955,8.047,7.781,9.776c2.062,1.297,3.625,1.63,4.688,0.997c0.632-0.398,1.014-1.047,1.147-1.944l0.05-3.292
	c0.133-2.561,0.366-4.572,0.698-6.035c0.364-1.508,0.885-2.669,1.554-3.507c0.162,0.034,0.328,0.063,0.491,0.095
	c-0.21,2.141,0.199,5.114,1.247,8.948c1.396,5.021,3.226,8.679,5.486,10.974c2.76,2.76,5.121,3.891,7.083,3.391
	c1.795-0.432,3.208-2.244,4.239-5.436c0.765-2.561,2.278-5.172,4.539-7.832c2.479-2.951,5.242-4.993,8.281-6.149l3.191,0.414
	c1.656,0.162,3.275,0.282,4.888,0.396c2.183,2.702,3.42,5.215,3.69,7.535c0.199,1.496,0.715,2.461,1.547,2.893
	c0.697,0.399,1.563,0.532,2.594,0.399c0.864-0.133,1.695-0.415,2.493-0.849c4.407-2.522,7.511-5.285,9.314-8.288
	c3.079,0.995,6.139,1.681,9.182,2.095c1.7,2.704,3.135,4.509,4.298,5.396l0.998,0.148c1.638-0.417,4.059-2.275,7.248-5.546
	l4.573,2.853c2.627,1.863,4.472,3.824,5.536,5.887c1.629,3.025,3.292,4.572,4.988,4.639c1.795,0.033,3.725-1.663,5.785-5.088
	c1.563-2.594,2.793-5.271,3.691-8.03c0.926-2.905,1.568-6.204,1.942-9.875l1.149,0.049c3.06-0.731,6.035-2.594,8.929-5.587
	c2.561-2.66,4.506-6.035,5.836-10.125c0.466-1.376,0.822-2.758,1.091-4.145c2.039-3.322,3.638-7.211,4.795-11.666
	C206.771,120.703,207.237,114.469,206.572,108.084z"/>
</svg>
