<?xml version="1.0" encoding="utf-8"?>
<!-- Generator: Adobe Illustrator 16.0.0, SVG Export Plug-In . SVG Version: 6.00 Build 0)  -->
<!DOCTYPE svg PUBLIC "-//W3C//DTD SVG 1.1//EN" "http://www.w3.org/Graphics/SVG/1.1/DTD/svg11.dtd">
<svg version="1.1" id="图层_1" xmlns="http://www.w3.org/2000/svg" xmlns:xlink="http://www.w3.org/1999/xlink" x="0px" y="0px"
	 width="349px" height="278px" viewBox="0 0 349 278" enable-background="new 0 0 349 278" xml:space="preserve">
<path d="M346,53.562c-1.033-1.066-4.1-0.067-9.198,3c-32.662,20.13-50.576,32.095-53.743,35.895
	c-1.532,1.833-2.966,5.416-4.299,10.749c-1.5,5.833-2.55,9.282-3.149,10.349c-0.144,0.215-0.36,0.444-0.636,0.684
	c-2.106-9.243-6.657-17.621-13.662-25.13c-1.185-1.272-2.438-2.484-3.724-3.667c-0.135-3.822-0.884-7.868-2.243-12.135
	c2.057-3.601,3.683-7.992,4.867-13.193c0.967-4.1,1.533-7.999,1.699-11.698c0.1-2.667-0.166-4.316-0.8-4.949
	c-0.634-0.566-2.017-0.566-4.149,0l-5.269,1.437c1.294-2.756,2.584-5.596,3.868-8.536c4.867-11.198,8.333-20.53,10.399-27.996
	c2.6-9.499,0.05-10.798-7.649-3.899c-5.766,5.199-14.23,13.715-25.396,25.546c-1.803,1.91-3.514,3.744-5.137,5.506l-1.361-1.006
	c-8.5-5.933-17.265-10.732-26.297-14.398c-10.42-4.225-20.065-6.395-28.958-6.565c-2.863-3.779-6.391-7.224-10.586-10.333
	c-2.066-1.533-3.583-2.1-4.549-1.7c-0.933,0.4-1.517,1.816-1.75,4.25l-0.935,10.472c-2.958,0.863-5.756,1.919-8.395,3.167
	c-9.663-0.203-19.863,1.615-30.615,5.508c-8.607,3.13-16.195,7.184-22.804,12.127l-15.141,0.721c-6.766,1-12.215,2.516-16.348,4.549
	c-3.1,1.533-4.716,3.016-4.849,4.449c-0.133,1.167,0.816,2.85,2.85,5.049c5.058,5.521,8.418,9.38,10.092,11.592
	c-1.107,1.898-2.057,3.751-2.843,5.555c-1.633,3.683-2.507,6.976-2.637,9.889c-2.303,2.008-4.838,5.597-7.612,10.808
	c-3.866,7.299-6.782,15.431-8.749,24.396c-3.278,15.151-3.286,29.921-0.057,44.313c-2.185,2.49-5.18,6.213-8.992,11.18
	c-6.066,7.898-11.782,15.931-17.148,24.096c-5.532,8.366-11.115,18.698-16.748,30.996c-3.233,6.999-4.099,10.932-2.6,11.799
	c1.167,0.666,4.35-0.518,9.549-3.55c8.032-4.733,15.181-9.382,21.447-13.948c8.832-6.499,14.315-11.814,16.448-15.947
	c0.833-1.6,1.35-3.383,1.55-5.35l0.1-4.549c0-1.5,0.083-2.633,0.25-3.4c0.2-1.033,0.633-1.966,1.3-2.799
	c1.3-1.667,2.516-2.983,3.649-3.949l0.046-0.035c0.088,0.176,0.178,0.353,0.267,0.528c0.164,3.833,0.695,7.748,1.637,11.755
	c1.734,7.464,4.69,14.56,8.829,21.298c1.021,4.538,2.664,8.708,4.926,12.512c-1.126,2.413-2.727,6.652-4.806,12.733
	c-2.8,8.166-4.416,13.832-4.85,16.998c-0.466,3.266,0.7,4.049,3.5,2.35c0.867-0.533,5.033-4.333,12.499-11.398l10.431-9.892
	c3.592,2.624,7.443,5.041,11.565,7.241c10.527,5.619,21.455,9.207,32.78,10.768c1.56,1.363,3.957,3.07,7.214,5.131
	c5.866,3.766,11.631,6.499,17.297,8.199l5.249,0.25c0.633-0.567,0.9-2.033,0.8-4.4l-0.344-9.625
	c9.033-1.426,16.531-3.917,22.496-7.473c2.665-0.128,5.28-0.426,7.844-0.899c12.762-2.322,23.99-7.229,33.693-14.706
	c3.534,0.198,7.067,0.113,10.601-0.292c6.8-0.767,12.565-2.633,17.298-5.599c1.866-1.167,2.966-2.233,3.299-3.2
	c0.334-1.1-0.116-2.6-1.35-4.499c-3.394-5.034-6.048-9.354-7.978-12.972c4.391-8.689,7.428-18.51,9.111-29.461
	c3.431-2.428,6.491-5.637,9.165-9.66c4.921-7.429,8.083-17.085,9.496-28.957c2.917-2.494,6.278-5.534,10.102-9.137
	c8.198-7.732,15.964-15.548,23.296-23.447c9.398-10.199,17.465-19.897,24.196-29.096c4.467-6.099,7.899-11.332,10.299-15.698
	C346.217,57.494,347,54.595,346,53.562z"/>
</svg>
