<?xml version="1.0" encoding="utf-8"?>
<!-- Generator: Adobe Illustrator 16.0.0, SVG Export Plug-In . SVG Version: 6.00 Build 0)  -->
<!DOCTYPE svg PUBLIC "-//W3C//DTD SVG 1.1//EN" "http://www.w3.org/Graphics/SVG/1.1/DTD/svg11.dtd">
<svg version="1.1" id="图层_1" xmlns="http://www.w3.org/2000/svg" xmlns:xlink="http://www.w3.org/1999/xlink" x="0px" y="0px"
	 width="448px" height="364px" viewBox="0 0 448 364" enable-background="new 0 0 448 364" xml:space="preserve">
<path d="M447.25,159.015c-0.433-1.166-2.081-1.765-4.946-1.799c-5.03,0-10.293,0.733-15.789,2.199
	c-6.896,1.832-12.908,4.563-18.038,8.194c-6.263,4.464-11.959,11.06-17.089,19.788c-1.632,2.73-3.098,5.512-4.396,8.344l-1.01,2.39
	c-1.107-1.516-2.345-2.95-3.737-4.288c-2.432-2.332-4.547-3.715-6.346-4.147c-2.243-0.518-5.547,0.616-9.898,3.38
	c3.902-11.304,9.056-21.666,15.494-31.062c1.566-2.265,1.982-3.881,1.249-4.847c-0.832-1.166-2.531-1.249-5.096-0.25
	c-7.429,2.798-13.892,6.996-19.388,12.592c-6.041,6.167-10.368,13.6-13.027,22.266c-3.512-3.055-6.65-4.508-9.407-4.328
	c-2.898,0.2-6.063,2.332-9.494,6.396c-3.24,3.796-5.655,8.099-7.266,12.896c-4.54-0.38-8.842,0.012-12.911,1.154
	c-3.517-1.65-7.381-2.808-11.602-3.457c-7.18-1.07-13.574-0.332-19.205,2.169c-1.911-0.581-3.881-1.048-5.928-1.369l-12.863,0.367
	c-1.002-0.561-2.025-1.063-3.07-1.505c1.012-6.655,0.366-12.873-1.955-18.649c-2.27-5.543-5.143-9.125-8.613-10.753
	c2.617-4.34,4.327-8.882,5.115-13.63c1.199-7.195,0.717-14.391-1.448-21.585c-1.964-6.538-4.974-11.915-9.003-16.162
	c2.624-6.977,2.886-14.645,0.758-23.012c-2.697-10.726-8.311-19.271-16.838-25.633c-4.62-3.458-9.549-5.975-14.782-7.565
	c-1.285-6.294-3.917-11.435-7.902-15.42c-4.797-4.797-11.193-7.944-19.188-9.443l-17.238-0.6
	c-10.231,1.075-20.032,6.258-29.402,15.524c-1.117-1.146-2.144-1.867-3.076-2.133c-1.399-0.4-3.314,0.35-5.746,2.249
	c-2.032,1.599-3.864,3.498-5.497,5.696c-0.267-6.329-2.298-13.108-6.096-20.336c-3.365-6.329-7.562-12.108-12.592-17.338
	C89.29,14.179,76.782,6.15,62.458,1.221c-3.931-1.366-6.262-1.566-6.995-0.6c-0.8,1.032,0.25,3.147,3.148,6.346
	c4.364,4.863,8.527,10.227,12.492,16.089c6.362,9.427,11.625,19.287,15.789,29.581c1.241,3.077,2.414,6.361,3.533,9.805
	c-0.822,0.771-1.947,2.127-3.383,4.086c-1.125,1.5-1.985,2.743-2.628,3.775C79.125,57.547,67.19,47.124,48.567,39.045
	c-8.294-3.597-16.489-5.879-24.583-6.845c-6.196-0.733-12.092-0.683-17.688,0.15C2.198,32.916,0.1,33.832,0,35.098
	c-0.1,1.166,1.532,2.382,4.896,3.647c5.663,2.132,11.359,4.78,17.089,7.945c8.494,4.664,16.456,10.16,23.884,16.489
	c11.126,9.494,20.003,19.604,26.632,30.33c1.699,2.765,3.148,4.247,4.347,4.447c1.232,0.2,3.281-0.75,6.146-2.848l7.195-5.296
	c2.27-1.614,4.374-2.942,6.33-4.017c0.276,1.327,0.552,2.654,0.816,4.017c0.666,3.331,1.682,5.43,3.048,6.296
	c1.565,0.966,3.681,0.35,6.346-1.849c0.057-0.046,0.118-0.102,0.176-0.149c0.279,1.332,0.555,2.513,0.827,3.557
	c-0.957,1.098-1.828,2.434-2.602,4.037c-1.299,2.665-1.898,5.33-1.799,7.995c0.188,4.138,1.617,7.499,4.253,10.103
	c-0.001,0.129-0.006,0.262-0.006,0.39c0,4.23,0.45,7.761,1.349,10.593c1.699,5.263,4.214,9.86,7.545,13.791
	c3.231,3.831,5.93,5.529,8.095,5.096c1.666-0.366,3.398-2.765,5.197-7.195c1.232-2.965,2.298-5.23,3.198-6.795
	c1.466-2.465,3.081-4.347,4.847-5.646c0.325-0.246,0.657-0.465,0.988-0.688c-0.061,0.706-0.081,1.459-0.039,2.287
	c0.067,1.532,0.3,3.048,0.7,4.547c0.733,2.665,1.899,2.931,3.498,0.799c1.532-2.065,3.231-3.697,5.097-4.896
	c0.999-0.677,1.81-1.293,2.439-1.85l2.408,0.201l2.374-0.055c-0.455,0.898-0.898,1.867-1.324,2.953
	c-1.086,2.741-1.732,5.37-1.956,7.891c-1.379,1.478-2.584,3.328-3.591,5.601c-1.199,2.731-1.965,5.679-2.298,8.844
	c-0.133,1.299,0.017,2.032,0.45,2.199c0.333,0.133,0.933-0.083,1.799-0.65l4.197-2.798c0.982-0.646,1.858-1.199,2.672-1.698
	c1.501,1.923,3.452,3.5,5.862,4.722c-0.718,0.906-1.48,2.063-2.289,3.472c-1.328,2.324-2.266,4.612-2.859,6.867
	c-1.889,0.363-3.933,1.716-6.135,4.076c-3.631,3.897-5.646,8.094-6.046,12.591c-0.1,1.199,0.067,1.949,0.5,2.249
	c0.466,0.3,1.183,0.101,2.148-0.6c2.499-1.899,5.38-3.214,8.644-3.947l0.833-0.163c0.449,1.912,1.111,3.656,2.015,5.209
	c0.194,0.336,0.423,0.674,0.647,1.011c-4.065,2.204-7.715,5.786-10.94,10.782c-3.026,4.688-4.803,9.256-5.345,13.706
	c-2.925,1.271-5.641,3.862-8.146,7.779c-3.098,4.764-4.847,9.377-5.247,13.841c-0.3,3.164,0.766,3.797,3.198,1.898
	c1.366-1.133,3.131-2.265,5.296-3.397c2.125-1.181,3.958-1.959,5.534-2.381c0.841,3.517,2.161,6.376,3.964,8.569
	c-0.374,1.515-0.717,2.979-1.004,4.354c-2.531,12.159-2.865,22.685-0.999,31.579c2.598,12.458,9.161,23.534,19.687,33.228
	c5.687,5.208,12.015,9.337,18.969,12.409c0.606,2.563,1.412,7.031,2.417,13.424c1.333,8.594,1.965,14.207,1.899,16.838l-0.899,3.598
	l-1.499,5.247c-0.333,1.499-0.25,2.432,0.25,2.798c0.566,0.434,1.898,0.416,3.997-0.05c1.999-0.433,4.197-1.315,6.596-2.648
	c2.731-1.466,4.88-3.064,6.446-4.797c2.365-2.698,4.847-6.528,7.445-11.492c2.108-4.021,4.071-8.397,5.895-13.113l10.644,0.321
	c6.362-0.633,11.726-1.914,16.089-3.847c4.001-1.741,7.835-3.665,11.518-5.757c4.824-0.84,10.025-2.016,15.614-3.537
	c2.627-0.74,5.228-1.548,7.816-2.387c-0.033,3.495-0.143,6.961-0.371,10.381c-0.433,6.829-1.166,11.492-2.198,13.991
	c-1.433,2.231-2.549,4.214-3.348,5.946c-0.733,1.599-1.1,2.731-1.1,3.397c0,0.6,0.35,0.966,1.049,1.099
	c1.699,0.301,4.197-0.133,7.495-1.299c4.265-1.498,7.646-3.764,10.144-6.795c2.865-3.465,6.396-10.061,10.593-19.787
	c3.571-8.268,5.949-14.653,7.159-19.192c1.634-0.879,3.224-1.793,4.79-2.725c0.095,1.707-0.017,3.336-0.357,4.878
	c-0.633,2.898-0.565,4.764,0.2,5.597c0.767,0.767,2.432,0.883,4.997,0.351c3.197-0.667,7.161-2.532,11.892-5.597
	c1.156-0.752,2.243-1.53,3.295-2.323l3.301,1.074c1.229,0.36,2.391,0.652,3.519,0.91c-0.273,3.29-1.194,8.928-2.769,16.928
	c-1.799,8.961-3.481,15.806-5.047,20.536c-2.232,3.132-3.848,5.68-4.847,7.646c-0.866,1.731-1.033,2.931-0.5,3.597
	c0.533,0.634,1.865,0.866,3.997,0.7c3.031-0.233,6.113-1.116,9.244-2.648c4.23-2.099,7.911-5.18,11.043-9.244
	c4.496-5.796,9.31-14.424,14.439-25.883c4.897-10.959,7.995-19.72,9.294-26.282c0.667-3.265,0.649-5.43-0.05-6.495
	c-0.6-0.934-2.481-1.966-5.646-3.099c-2.897-1.032-5.296-2.248-7.194-3.647c-2.622-1.943-4.607-4.379-5.973-7.293
	c0.758-2.321,1.372-4.861,1.825-7.646c0.277-1.704,0.473-3.342,0.604-4.926c1.673-3.233,2.921-7.253,3.742-12.063
	c0.736-4.291,1.028-8.598,0.917-12.917c0.337-0.311,0.667-0.606,0.982-0.873c2.964-2.499,5.596-3.731,7.895-3.698
	c4.33,0.067,11.209,3.099,20.636,9.095c2.332,1.498,4.147,1.948,5.446,1.349c0.866-0.333,1.565-1.05,2.099-2.148l1.1-3.349
	c2.998-13.357,9.027-27.48,18.088-42.371c6.495-10.726,15.189-19.77,26.082-27.132C446.634,161.613,447.65,160.214,447.25,159.015z"
	/>
</svg>
