<?xml version="1.0" encoding="utf-8"?>
<!-- Generator: Adobe Illustrator 16.0.0, SVG Export Plug-In . SVG Version: 6.00 Build 0)  -->
<!DOCTYPE svg PUBLIC "-//W3C//DTD SVG 1.1//EN" "http://www.w3.org/Graphics/SVG/1.1/DTD/svg11.dtd">
<svg version="1.1" id="图层_1" xmlns="http://www.w3.org/2000/svg" xmlns:xlink="http://www.w3.org/1999/xlink" x="0px" y="0px"
	 width="233px" height="145px" viewBox="0 0 233 145" enable-background="new 0 0 233 145" xml:space="preserve">
<path d="M226.948,71.828c-2.737-1.636-8.849-3.255-18.331-4.858l-13.899-1.844c-0.318-0.367-0.64-0.736-0.977-1.111
	c-2.864-3.195-5.359-5.42-7.497-6.707c0.73-2.01,1.015-4.229,0.836-6.667c-0.435-5.242-2.906-10.301-7.413-15.176
	c-3.072-3.306-6.679-5.894-10.819-7.763c-3.973-1.803-7.83-2.638-11.569-2.504c-4.141-7.98-10.501-14.274-19.083-18.882
	c-7.881-4.241-16.145-6.344-24.793-6.311c-8.015,0-15.678,2.307-22.993,6.885c-4.109-1.417-8.182-1.46-12.217-0.123
	c-5.243,1.736-9.132,5.276-11.67,10.618c-1.234,2.612-1.82,5.215-1.799,7.808c-4.123,0.198-8.745,1.179-13.878,2.96
	c-5.554,1.936-9.758,4.265-12.649,6.978c-4.865-1.587-11.402-3.013-19.656-4.273c-8.248-1.235-13.356-1.669-15.327-1.302
	l-0.501,0.201l-0.451,0.601c-3.406,12.789-2.938,23.824,1.402,33.107C8.148,73.016,16.2,79.36,27.795,82.519
	c-0.02,0.297-0.035,0.566-0.04,0.778c0,0.701,0.05,1.103,0.15,1.203l1.302,0.45c4.93,0.752,9.642,0.99,14.14,0.724
	c-0.875,6.488,0.733,12.359,4.842,17.608c3.347,4.256,7.495,6.962,12.434,8.137c-0.501,7.152,2.376,12.475,8.652,15.954
	c6.022,3.328,12.241,3.4,18.654,0.23c4.146,2.676,9.158,4.79,15.054,6.331c6.596,1.701,13.026,2.314,19.29,1.844
	c4.146,4.601,9.017,6.479,14.618,5.619c5.574-0.833,9.592-4.023,12.062-9.559c3.04,2.512,7.125,3.755,12.28,3.698
	c6.813-0.066,12.238-2.771,16.279-8.113c4.406-5.777,6.227-11.604,5.459-17.48c-0.722-5.43-3.447-9.396-8.123-11.935
	c0.292-0.664,0.574-1.336,0.828-2.031c2.667,3.279,5.983,5.997,9.949,8.155c3.707,1.971,6.979,3.039,9.816,3.206
	c0.401,0,0.719-0.233,0.952-0.701c0.567-1.001,1.085-3.022,1.553-6.061l0.651-4.157c0.166,0,2.271,2.922,6.311,8.766
	c0.167,0.233,0.385,0.35,0.651,0.35c0.3,0,0.518-0.133,0.651-0.4c0.367-0.701,0.65-1.752,0.852-3.155l0.5-5.108
	c1.203,0.635,2.738,1.652,4.608,3.055c0.334,0.134,0.585,0.134,0.751,0c3.205-2.504,6.378-6.294,9.517-11.369
	c3.105-5.075,5.075-9.617,5.91-13.623l0.05-1.804C228.268,72.763,227.783,72.329,226.948,71.828z"/>
</svg>
