<?xml version="1.0" encoding="utf-8"?>
<!-- Generator: Adobe Illustrator 16.0.0, SVG Export Plug-In . SVG Version: 6.00 Build 0)  -->
<!DOCTYPE svg PUBLIC "-//W3C//DTD SVG 1.1//EN" "http://www.w3.org/Graphics/SVG/1.1/DTD/svg11.dtd">
<svg version="1.1" id="图层_1" xmlns="http://www.w3.org/2000/svg" xmlns:xlink="http://www.w3.org/1999/xlink" x="0px" y="0px"
	 width="309px" height="286px" viewBox="0 0 309 286" enable-background="new 0 0 309 286" xml:space="preserve">
<path d="M306.236,128.89c-1.73-11.149-5.725-21-11.981-29.554c-5.761-7.929-12.665-13.612-20.705-17.063
	c1.813-4.955,1.338-9.42-1.46-13.389c-2.847-4.043-7.104-5.978-12.749-5.84c-2.501-13.029-8.196-24.63-17.104-34.796
	c-8.553-9.818-18.97-17.207-31.25-22.165c-11.914-4.859-24.512-6.823-37.791-5.891c-15.441,1.064-28.788,6.057-40.037,14.976
	c-0.022,0.015-0.028,0.039-0.044,0.058c-5.366-4.421-10.561-7.591-15.582-9.493c-5.192-1.997-9.868-2.546-14.028-1.647
	c-3.927,0.832-6.39,2.746-7.389,5.741c-0.997,2.96-0.108,6.198,2.624,9.707c-7.052-0.306-13.968,0.479-20.745,2.374
	c-11.682,3.294-22.149,9.651-31.401,19.07c-9.385,9.585-15.625,19.952-18.721,31.101c-2.077,7.477-2.433,13.837-1.083,19.089
	c-3.661,0.553-6.172,2.695-7.503,6.47c-1.319,3.833-0.791,7.335,1.537,10.515c-5.9,4.805-10.649,10.84-14.216,18.141
	c-4.094,8.42-6.141,17.405-6.141,26.958c0,10.582,2.463,20.65,7.389,30.201c4.879,9.438,11.518,16.849,19.913,22.233
	c-5.352,5.953-7.603,11.938-6.733,17.954c0.832,6.057,4.326,9.385,10.483,9.984l7.688-0.399c2.502-0.452,4.774-1.191,6.839-2.19
	c2.212,8.521,6.417,16.408,12.63,23.656c7.122,8.32,15.892,14.678,26.309,19.07c10.683,4.492,21.916,6.506,33.697,6.041
	c11.53-0.486,22.634-3.312,33.313-8.463c0.922,4.221,2.198,6.362,3.828,6.416c1.598,0.1,3.744-1.132,6.44-3.695
	c2.022-1.965,3.712-4.022,5.107-6.163c3.314,0.229,7.662,0.14,13.063-0.276c4.483-0.309,8.088-0.729,10.836-1.258
	c0.001,0.021-0.008,0.04-0.002,0.061c0.898,2.662,2.778,5.674,5.641,9.035c2.962,3.461,5.092,5.025,6.391,4.692
	c1.431-0.399,2.596-2.263,3.494-5.591c0.898-3.461,1.182-7.422,0.849-11.881c0.556-0.713,1.067-1.477,1.559-2.263
	c10.444,2.945,20.808,3.203,31.09,0.765c9.817-2.297,18.454-6.723,25.909-13.279s12.697-14.328,15.725-23.313
	c2.697-8.034,3.311-16.234,1.858-24.601c5.524,0.149,9.086-2.245,10.673-7.199c1.537-4.804,0.446-8.988-3.254-12.56
	c5.928-6.149,10.271-13.698,12.988-22.685C307.085,148.093,307.768,138.541,306.236,128.89z"/>
</svg>
