<?xml version="1.0" encoding="utf-8"?>
<!-- Generator: Adobe Illustrator 16.0.0, SVG Export Plug-In . SVG Version: 6.00 Build 0)  -->
<!DOCTYPE svg PUBLIC "-//W3C//DTD SVG 1.1//EN" "http://www.w3.org/Graphics/SVG/1.1/DTD/svg11.dtd">
<svg version="1.1" id="图层_1" xmlns="http://www.w3.org/2000/svg" xmlns:xlink="http://www.w3.org/1999/xlink" x="0px" y="0px"
	 width="135px" height="185px" viewBox="0 0 135 185" enable-background="new 0 0 135 185" xml:space="preserve">
<path d="M133.4,149.703c-0.967-0.865-3.182-1.715-6.647-2.549c-2.832-0.668-5.048-1.335-6.665-2.004
	c-0.121-0.231-0.277-0.463-0.482-0.695c-0.967-1.065-2.715-2.065-5.248-2.998c-1.57-0.545-3.022-0.909-4.379-1.127
	c6.219-2.984,11.072-7.031,14.525-12.168c4.165-6.198,5.697-13.078,4.598-20.643c-1.332-9.496-6.363-17.843-15.094-25.041
	c-9.62-7.924-21.911-12.583-36.86-13.998c7.11-6.02,10.143-16.806,9.07-32.385c-0.833-12.062-3.265-23.008-7.297-32.838
	c-0.866-2.132-1.649-3.215-2.349-3.249c-0.7-0.033-1.816,0.9-3.35,2.799c-7.164,8.897-11.446,20.159-12.845,33.788
	c-0.461,4.591-0.498,8.894-0.118,12.914c-3.275-2.512-10.458-5.399-21.574-8.665c-11.862-3.499-19.393-5.032-22.592-4.598
	c-0.733,0.1-1.149,0.316-1.25,0.649c-0.133,0.3-0.033,0.966,0.3,2c1.066,3.465,3.882,7.997,8.447,13.595
	c5.077,6.185,10.254,10.757,15.529,13.759c-5.436,1.13-11.744,2.724-18.928,4.784C7.431,74.698,0.733,77.264,0.1,78.73
	c-0.167,0.4-0.117,0.733,0.15,1c0.966,1.167,3.632,2.35,7.997,3.549c4.965,1.333,10.396,2.116,16.294,2.349
	c13.522,0.554,25.426-1.863,35.723-7.231C55.48,83.07,51.55,88.843,48.482,95.724c-4.832,10.829-5.915,20.81-3.249,29.938
	c1.699,5.832,4.881,10.563,9.546,14.195c4.548,3.53,10.223,5.712,17.015,6.553c-2.144,1.072-3.625,2.269-4.42,3.594
	c-0.048,0.08-0.079,0.158-0.12,0.237l-3.628,0.962c-1.966,0.4-3.399,0.767-4.298,1.1c-1.333,0.467-2.149,1.017-2.449,1.649
	c-0.933,1.966-0.533,3.898,1.2,5.798c1.533,1.666,3.565,2.799,6.098,3.398c1.022,0.25,2.026,0.385,3.011,0.405
	c-0.8,2.261-0.891,4.574-0.262,6.942c0.766,2.832,2.449,4.948,5.047,6.348c2.566,1.399,5.315,1.783,8.248,1.149
	c1.115-0.251,2.124-0.646,3.041-1.164c1.907,3.995,5.742,6.346,11.553,7.013c6.198,0.732,10.913-0.983,14.145-5.148
	c1.411-1.825,2.244-3.908,2.54-6.232c2.35,0.546,4.57,0.331,6.657-0.665c2.1-0.967,3.699-2.482,4.799-4.549
	c1.1-2.032,1.432-4.132,0.999-6.298c-0.15-0.749-0.403-1.455-0.739-2.125c2.367,0.331,4.529,0.074,6.487-0.773
	c2.266-0.967,3.715-2.482,4.349-4.549C134.584,151.803,134.367,150.537,133.4,149.703z"/>
</svg>
