<?xml version="1.0" encoding="utf-8"?>
<!-- Generator: Adobe Illustrator 16.0.0, SVG Export Plug-In . SVG Version: 6.00 Build 0)  -->
<!DOCTYPE svg PUBLIC "-//W3C//DTD SVG 1.1//EN" "http://www.w3.org/Graphics/SVG/1.1/DTD/svg11.dtd">
<svg version="1.1" id="图层_1" xmlns="http://www.w3.org/2000/svg" xmlns:xlink="http://www.w3.org/1999/xlink" x="0px" y="0px"
	 width="198px" height="296px" viewBox="0 0 198 296" enable-background="new 0 0 198 296" xml:space="preserve">
<path d="M195.499,252.277c-1.601-7.137-4.103-14.391-7.504-21.761c-8.654-18.77-20.91-33.724-36.736-44.894
	c-0.096-6.293-1.066-14.573-2.934-24.892c-1.92-10.603-4.062-18.538-6.425-23.822c2.821,1.67,5.663,2.745,8.525,3.211
	c3.702,0.6,7.488,0.15,11.355-1.351c3.869-1.501,6.304-3.452,7.305-5.853c1.167-2.801,0.066-5.47-3.302-8.004l-7.004-4.353
	c-7.075-4.236-12.778-8.146-17.125-11.734c3.346,1.627,6.918,3.038,10.722,4.23c4.902,1.568,9.756,2.602,14.558,3.102
	c3.868,0.433,5.986,0.467,6.353,0.1c0.734-0.667,0.734-4.102,0-10.305c-0.707-6.178-1.872-10.822-3.486-13.968
	c1.308-1.826,2.287-3.69,2.937-5.591c0.834-2.435,0.917-4.136,0.251-5.103c-0.534-0.767-1.518-0.967-2.952-0.6
	c-0.017,0.004-0.037,0.013-0.054,0.018c0.019-6.911-0.973-13.422-2.998-19.528c-2.602-7.871-6.57-13.791-11.906-17.759
	c-0.74-0.55-1.508-1.044-2.293-1.503c-1.496-2.476-3.515-4.513-6.061-6.101c-2.935-1.766-6.175-2.648-9.718-2.663
	c2.147-1.788,3.833-2.705,5.068-2.77c0.346,0.709,0.823,1.372,1.448,1.981c1.4,1.368,3.034,2.051,4.902,2.051
	c1.834,0,3.401-0.684,4.701-2.051c1.234-1.367,1.852-2.984,1.852-4.852c0-1.834-0.7-3.418-2.102-4.752
	c-1.367-1.334-3.001-2.001-4.902-2.001c-1.867,0-3.435,0.667-4.702,2.001c-1.233,1.301-1.851,2.885-1.851,4.752
	c0,0.466,0.044,0.917,0.131,1.352c-1.441-0.838-3.184-1.394-5.221-1.671c0.195-1.346,0.874-3.768,2.028-7.25
	c1.061,0.834,2.294,1.266,3.712,1.266c1.5,0,2.768-0.467,3.802-1.401c1.167-1.034,1.751-2.435,1.751-4.202
	c0-1.567-0.551-2.918-1.65-4.052c-1.102-1.134-2.436-1.701-4.003-1.701s-2.918,0.567-4.052,1.701
	c-1.101,1.134-1.635,2.485-1.602,4.052c0.047,1.235,0.379,2.279,0.963,3.156c-1.344,0.509-2.857,1.152-4.564,1.946
	c-2.01,0.928-3.525,1.734-4.56,2.423l-0.086-7.945c0.626,0.2,1.291,0.307,1.995,0.319c1.9,0.033,3.518-0.634,4.852-2.001
	c1.367-1.4,2.035-3.068,2.002-5.002s-0.734-3.602-2.102-5.002c-1.367-1.368-2.984-2.051-4.853-2.051s-3.468,0.684-4.802,2.051
	c-1.301,1.334-1.951,2.951-1.951,4.853c0,1.934,0.666,3.602,2,5.002c0.155,0.164,0.315,0.315,0.479,0.46
	c-1.215,0.884-2.673,2.244-4.381,4.092c-0.289,0.313-0.542,0.607-0.81,0.909l-0.842-2.56l-1.903-4.396
	c1.047-0.234,1.984-0.763,2.804-1.606c1.102-1.134,1.668-2.518,1.701-4.152c0-1.667-0.55-3.085-1.65-4.252
	c-1.135-1.201-2.484-1.818-4.053-1.851c-1.601-0.033-2.968,0.534-4.102,1.701c-1.168,1.167-1.751,2.584-1.751,4.252
	s0.567,3.102,1.7,4.302c0.948,0.976,2.069,1.519,3.343,1.679c-0.721,1.565-1.513,4.001-2.374,7.284
	c-0.544-0.526-1.11-1.035-1.719-1.51c-1.892-1.481-3.75-2.4-5.574-2.775c0.212-0.129,0.42-0.269,0.622-0.426
	c1.267-1,1.968-2.468,2.101-4.402c0.134-1.934-0.316-3.518-1.35-4.752c-1.168-1.434-2.652-2.268-4.453-2.501
	s-3.385,0.184-4.752,1.25c-1.368,1.101-2.101,2.602-2.201,4.502c-0.067,1.801,0.417,3.352,1.451,4.652
	c1.167,1.434,2.651,2.268,4.452,2.501c0.842,0.109,1.635,0.07,2.382-0.104c0.055,0.051,0.101,0.1,0.17,0.155
	c0.675,0.522,1.313,1.682,1.918,3.456c-1.831-1.207-4.165-2.162-7.021-2.855c-2.703-0.662-5.074-0.929-7.124-0.812
	c-2.222-0.696-4.594-1.184-7.133-1.439c-5.436-0.534-10.789,0-16.058,1.601c-5.154,1.549-9.474,3.904-12.979,7.042
	c-0.94-2.845-1.801-4.207-2.579-4.04c-2.868,0.567-5.636,3.368-8.305,8.404c-0.027,0.051-0.048,0.099-0.075,0.149
	c-6.13,0.966-12.856,3.462-20.186,7.504c-6.57,3.602-9.888,5.986-9.955,7.153c-0.1,1.201,1.584,3.269,5.052,6.203
	c3.869,3.269,8.588,6.336,14.157,9.205c4.19,2.155,8.387,3.944,12.59,5.394c-4.282,7.769-5.917,17.473-4.886,29.124
	c0.467,5.036,1.417,9.355,2.851,12.957c1.468,3.702,3.168,5.903,5.103,6.604c0.304,0.107,0.685,0.167,1.139,0.182
	c-1.041,4.096-3.443,8.651-7.243,13.675c-1.967,2.568-5.736,6.904-11.306,13.007c-4.002,4.402-6.503,7.537-7.504,9.405
	c-1.867,3.501-1.634,6.486,0.701,8.955c1.634,1.701,4.135,2.617,7.504,2.751c3.535,0.101,6.803-0.75,9.805-2.552
	c5.454-3.276,10.009-7.947,13.672-14.001c-1.021,5.6-3.472,17.074-7.349,34.405c-1.049,0.771-2.091,1.569-3.128,2.394
	c-20.509,12.591-34.393,30.295-41.615,53.143c-2.401,7.537-3.818,15.141-4.252,22.811c-0.267,5.104-0.167,8.738,0.3,10.906
	l0.65,0.75c1.701,1.034,5.403,1.635,11.106,1.801c6.821,0.223,13.626-0.549,20.417-2.288c0.032,0.028,0.061,0.059,0.093,0.087
	c4.527,3.986,9.809,6.799,15.829,8.468c-0.343,0.969-0.653,2.117-0.921,3.489c-0.934,4.568-0.1,7.87,2.501,9.904
	c4.335,3.336,9.905,4.353,16.708,3.052c6.463-1.255,10.922-4.034,13.431-8.3c1.211,1.766,2.692,3.579,4.479,5.448
	c4.469,4.669,8.304,7.004,11.506,7.004c2.768,0,6.336-2.269,10.706-6.804c2.558-2.642,4.745-5.355,6.564-8.142
	c4.79,5.99,10.787,8.992,17.997,8.992c6.338-0.033,11.123-1.851,14.357-5.452c1.734-1.902,2.719-4.836,2.952-8.805
	c0.06-0.859,0.076-1.638,0.061-2.357c3.408-1.799,6.477-4.06,9.189-6.803c8.09,1.64,16.476,1.654,25.167,0.005
	c7.237-1.4,11.656-2.951,13.257-4.652C197.217,261.299,196.833,258.081,195.499,252.277z"/>
</svg>
