<?xml version="1.0" encoding="utf-8"?>
<!-- Generator: Adobe Illustrator 16.0.0, SVG Export Plug-In . SVG Version: 6.00 Build 0)  -->
<!DOCTYPE svg PUBLIC "-//W3C//DTD SVG 1.1//EN" "http://www.w3.org/Graphics/SVG/1.1/DTD/svg11.dtd">
<svg version="1.1" id="图层_1" xmlns="http://www.w3.org/2000/svg" xmlns:xlink="http://www.w3.org/1999/xlink" x="0px" y="0px"
	 width="411px" height="362px" viewBox="0 0 411 362" enable-background="new 0 0 411 362" xml:space="preserve">
<path d="M408.43,177.298c0.041-0.139,0.082-0.295,0.123-0.469c0.467-1.765,0.134-3.563-0.999-5.395
	c-0.832-1.366-2.214-2.881-4.146-4.546l-1.784-1.362l-1.113-2.035c-2.964-7.459-4.812-14.503-5.545-21.129
	c-0.333-3.064-2.081-5.146-5.245-6.244c-1.53-0.533-4.527-0.949-8.99-1.249l-3.847-0.449l-2.448-0.35l-15.685-3.796
	c-7.692-2.131-13.237-4.163-16.634-6.094c-4.196-2.398-10.007-7.593-17.435-15.585c-6.645-7.171-11.677-13.425-15.138-18.789
	l3.3-17.576l5.096-28.672c0.898-5.395,0.865-8.392-0.101-8.991c-0.966-0.633-3.229,0.882-6.794,4.545l-12.688,13.687l-8.74,10.09
	l-12.139-50.102c-1.266-4.928-2.682-7.376-4.246-7.343c-1.465,0.033-2.979,2.398-4.547,7.093
	c-8.658,26.008-13.77,40.761-15.334,44.257c-1.799-1.932-7.76-10.806-17.883-26.625L219.936,5.694
	c-2.664-4.03-4.611-5.895-5.845-5.595c-1.198,0.267-1.882,2.681-2.048,7.243c-0.1,3.164-0.166,12.788-0.199,28.872l-0.199,27.773
	l-43.309-16.134c-5.162-1.832-8.076-2.131-8.742-0.899c-0.633,1.132,0.533,3.946,3.497,8.442l6.644,9.091
	c5.062,7.06,9.674,13.887,13.836,20.48c1.353,2.126,2.623,4.178,3.845,6.188c-6.037-0.778-12.28-2.205-18.73-4.291
	c-6.727-2.165-13.121-4.845-19.182-8.042c-8.259-4.362-14.153-6.66-17.683-6.893c-5.927-0.433-11.572,2.647-16.934,9.241
	c-4.595,5.661-12.122,13.687-22.578,24.077l-12.287,11.772c-6.704-13.518-9.094-29.027-7.145-46.539
	c1.998-18.081,8.043-32.9,18.133-44.456c5.562-6.36,6.994-9.857,4.296-10.49c-2.564-0.6-7.875,1.499-15.935,6.294
	c-3.83,2.265-8.075,5.728-12.737,10.39c-6.627,6.693-12.222,14.219-16.784,22.578c-13.032,23.902-15.705,50.994-8.036,81.27
	l-1.554,0.401c-3.397,0.566-5.895,1.116-7.493,1.648c-3.063,1.032-5.345,2.514-6.843,4.446c-0.599,0.732-1.782,2.864-3.546,6.394
	l-2.448,5.695c-2.231,3.796-7.209,9.69-14.936,17.683c-2.464,2.564-3.78,5.395-3.946,8.492c-0.07,1.291,0.121,2.843,0.547,4.631
	c-0.306,0.894-0.59,1.89-0.847,3.011c-0.965,4.363-0.982,8.576-0.05,12.639c0.766,3.23,1.565,5.078,2.398,5.545
	c1.099,0.533,2.681-0.684,4.745-3.646l7.502-10.762c0.735-0.136,1.419-0.339,2.039-0.628c1.199-0.532,2.231-1.249,3.097-2.147
	c0.933-0.966,1.549-2.03,1.848-3.196c0.253-0.972,0.594-2.002,1.003-3.078c1.896-0.281,3.893,0.094,5.991,1.13
	c2.464,1.231,4.762,3.181,6.893,5.845c1.335,1.682,2.304,3.239,2.923,4.682c-0.61,2.936-0.925,5.854-0.925,8.756
	c0,2.373,0.676,4.377,2.01,6.024c-0.021,0.315-0.043,0.634-0.062,0.968c-0.2,3.563-0.167,6.762,0.1,9.592
	c0.366,4.063,0.999,6.193,1.898,6.394c0.799,0.167,2.514-1.248,5.145-4.245c2.198-2.531,4.179-5.179,5.944-7.941
	c0.271-0.438,0.516-0.847,0.748-1.244c1.033-0.481,2.065-1.19,3.098-2.152c1.432-1.332,2.581-2.864,3.447-4.596l0.727-2.148
	c0.74-0.412,1.482-0.802,2.228-1.166c-1.221,3.053-3.67,6.987-7.351,11.807c-5.661,7.326-9.091,11.988-10.29,13.986
	c-2.464,3.996-3.963,8.592-4.496,13.786c-0.599,5.896,0.233,11.322,2.498,16.284c1.43,3.146,3.503,5.742,6.216,7.788
	c-2.153,3.56-4.74,6.278-7.765,8.146l-11.889,5.396c-5.261,2.33-10.057,5.395-14.386,9.189c-2.698,2.364-5.678,5.528-8.941,9.491
	c-1.965,2.364-3.13,4.679-3.497,6.943c-0.216,1.374-0.133,2.829,0.219,4.356c-0.039,0.082-0.08,0.156-0.119,0.238
	c-1.731,3.695-2.747,7.025-3.047,9.99c-0.267,2.697-0.067,4.328,0.599,4.895c0.733,0.633,2.281,0.217,4.646-1.248l9.241-5.945
	c0.423-0.299,0.819-0.586,1.198-0.867c1.196-0.43,2.459-1,3.797-1.729c2.615-1.402,4.538-2.744,5.785-4.029
	c1.487,0.654,2.989,1.785,4.505,3.43c1.932,2.064,3.447,4.495,4.546,7.293c-0.8,4.333-0.555,7.551,0.703,9.688
	c-0.44,1.994-0.644,4.273-0.603,6.848c0.033,3.796,0.566,7.492,1.599,11.089c0.766,2.631,1.615,3.997,2.547,4.097
	c0.899,0.1,1.932-1.049,3.097-3.447l4.995-8.291l2.897-4.396c0.231-0.389,0.433-0.748,0.618-1.092
	c0.877-0.473,1.737-1.203,2.579-2.205c1.071-1.254,2.355-3.277,3.848-6.051c4.12-1.064,8.414-1.188,12.886-0.344
	c4.486,0.826,8.262,2.48,11.336,4.955c-0.042,0.497-0.076,0.965-0.097,1.389c-0.133,2.598,0.367,4.662,1.499,6.195l1.992,1.9
	c0.254,2.77,1.086,6.99,2.504,12.686c0.799,3.264,1.648,5.11,2.548,5.543c1.065,0.533,2.547-0.466,4.446-2.996
	c3.396-4.563,5.578-8.176,6.543-10.84c0.418-1.186,0.645-2.352,0.701-3.5c2.194-1.756,3.743-3.752,4.644-5.99
	c0.933-2.398,1.199-5.295,0.799-8.691c-0.833-6.395-1.449-13.055-1.848-19.98c-0.366-6.627-0.45-11.639-0.25-15.035
	c0.233-4.33,1.382-8.524,3.447-12.588c3.53-6.994,6.078-12.688,7.643-17.084c3.364-3.264,5.678-6.594,6.943-9.99
	c0.983-2.647,1.184-5.104,0.632-7.377l5.262-6.709c0.966-1.299,1.299-2.248,0.999-2.848c-0.367-0.766-1.732-1.115-4.096-1.049
	c-5.325,0.15-9.634,1.592-12.948,4.296c-0.998,0.328-1.916,0.839-2.755,1.533c-0.028-0.774,0.005-1.601,0.096-2.472
	c2.712-2.635,5.878-5.368,9.513-8.203c1.422-1.108,2.74-2.108,3.987-3.039c10.028,2.643,19.741,3.604,29.131,2.839
	c13.317-1.067,24.475-4.45,33.487-10.135l3.927-0.255c5.728-0.133,10.357,0.231,13.887,1.099c-1.499,0.433-3.247,1.116-5.245,2.048
	c-3.996,1.898-7.493,4.279-10.49,7.145l-6.943-0.801c-3.33,0-5.96,0.685-7.892,2.049c-0.041,0.029-0.078,0.074-0.118,0.104
	l-3.928,0.146c-2.598,0.332-4.762,0.8-6.494,1.398c-2.331,0.799-3.48,1.582-3.446,2.348c0.066,0.666,1.065,1.498,2.997,2.498
	c2.027,1.041,5.018,2.48,8.949,4.309c0.159,0.288,0.335,0.568,0.542,0.837c0.932,1.267,2.298,2.164,4.096,2.696
	c2.664,0.767,6.743,1.482,12.238,2.148c2.365,1.664,7.792,4.945,16.284,9.84c8.392,5.295,14.987,10.724,19.782,16.284
	c0.933,1.099,2.265,3.015,3.996,5.745c2.098,3.297,3.846,6.428,5.244,9.391c2.764,5.795,5.528,10.89,8.292,15.285
	c3.03,4.795,5.546,7.894,7.543,9.291c1.114,0.787,2.657,1.192,4.614,1.228c0.924,1.012,2.324,2.312,4.227,3.918l8.543,6.692
	c1.864,1.398,3.181,1.883,3.945,1.449c0.732-0.467,1.066-1.848,0.999-4.146c-0.237-6.836-1.429-12.053-3.563-15.663l0.117-1.271
	c0.066-1.299,0-2.464-0.199-3.496c-0.18-0.873-0.827-2.258-1.93-4.14c1.443-3.382,4.7-6.381,9.771-8.998
	c3.31-1.698,6.837-3.012,10.572-3.956c3.418,2.242,6.67,3.75,9.758,4.506c1.548,0.357,2.91,0.488,4.127,0.443
	c0.533,0.393,1.111,0.805,1.768,1.255l10.391,6.942c2.498,1.731,4.097,2.414,4.796,2.049c0.698-0.366,0.882-1.932,0.549-4.695
	c-0.399-3.463-1.332-6.811-2.797-10.041c-0.922-2.006-1.991-3.766-3.179-5.331l0.53-2.161c0.066-1.397-0.449-2.83-1.549-4.296
	c-0.974-1.266-2.702-2.808-5.173-4.62c0.152-1.879,0.821-4.393,2.025-7.568c0.877-2.313,1.721-4.225,2.531-5.754
	c2.67,0.589,4.973,0.869,6.859,0.81c1.713-0.044,2.98-0.368,3.825-0.962c0.684,0.249,1.456,0.503,2.318,0.763l9.44,2.697
	c3.03,0.999,4.745,0.981,5.146-0.05c0.3-0.801-0.199-2.266-1.499-4.396c-2.265-3.764-4.929-6.91-7.991-9.441
	c-2.1-1.728-3.884-2.793-5.359-3.202c-0.813-1.566-1.622-2.669-2.434-3.291c-2.896-2.265-8.774-3.713-17.634-4.347l-23.076-1.147
	l-6.244-0.999l-3.057-1.143c3.336-4.297,5.073-9.006,5.219-14.127c5.64,3.238,8.92,5.234,9.826,5.979
	c3.529,2.964,6.959,2.031,10.289-2.798c2.73-3.929,5.295-9.259,7.692-15.983c1.499-4.195,2.015-8.56,1.549-13.088
	c-0.233-2.298-1.165-6.693-2.798-13.188c-1.498-6.027-2.396-13.037-2.697-21.029l-0.25-4.846c-0.051-0.851-0.301-1.605-0.742-2.265
	c2.908-5.121,5.227-9.572,6.944-13.346c1.082,0.57,4.325,2.227,9.733,4.971c4.662,2.398,6.993,4.096,6.993,5.095l0.1,8.192
	l-0.949,12.488c-0.232,3.796,0.05,6.394,0.851,7.792l1.947,4.046c3.229,6.229,5.429,10.207,6.594,11.939
	c3.229,4.828,6.544,7.742,9.939,8.74l1.117-0.09c1.989,2.02,4.195,3.619,6.626,4.785c2.697,1.266,5.444,1.898,8.242,1.898
	c3.196,0,5.027-0.467,5.494-1.399c0.398-0.799-0.149-2.114-1.648-3.944l-5.395-6.096c-1.223-1.314-2.175-2.289-2.875-2.947
	l0.228-2.548c-0.116-1.089-0.546-2.335-1.273-3.729c1.038-2.439,2.837-4.579,5.42-6.409c6.477-4.484,17.381-4.773,32.709-0.872
	c2.75,2.102,5.234,3.361,7.451,3.77c0.114,0.022,0.212,0.034,0.312,0.049l2.138,2.449l4.695,6.043
	c2.997,4.264,4.762,3.93,5.295-0.998C409.914,186.663,409.566,182.171,408.43,177.298z M133.369,126.029
	c-8.833,4.481-17.384,9.955-25.656,16.403c-0.141-1.411-0.219-2.847-0.219-4.316c1.499-2.498,5.228-6.494,11.189-11.988
	c5.722-5.271,10.393-9.055,14.036-11.378c4.837-1.3,10.906,0.089,18.214,4.182C145.997,120.234,140.146,122.596,133.369,126.029z
	 M234.072,178.877c-5.221-2.198-9.195-3.739-11.969-4.645c0.527-0.719,0.992-1.328,1.379-1.799c3.1-3.79,6-6.023,8.705-6.719
	c4.063,2.913,7.451,5.514,10.16,7.802l5.711,11.753c0.024,0.061,0.049,0.123,0.073,0.184
	C244.966,183.704,240.292,181.516,234.072,178.877z"/>
</svg>
