<?xml version="1.0" encoding="utf-8"?>
<!-- Generator: Adobe Illustrator 16.0.0, SVG Export Plug-In . SVG Version: 6.00 Build 0)  -->
<!DOCTYPE svg PUBLIC "-//W3C//DTD SVG 1.1//EN" "http://www.w3.org/Graphics/SVG/1.1/DTD/svg11.dtd">
<svg version="1.1" id="图层_1" xmlns="http://www.w3.org/2000/svg" xmlns:xlink="http://www.w3.org/1999/xlink" x="0px" y="0px"
	 width="339px" height="289px" viewBox="0 0 339 289" enable-background="new 0 0 339 289" xml:space="preserve">
<path d="M335.948,149.178c-1.167-13.641-4.836-24.38-11.006-32.218c-2.435-3.102-4.953-5.303-7.555-6.604
	c-2.401-1.201-4.386-1.401-5.953-0.601c-2.168,1.134-9.039,8.021-20.612,20.662l-15.944,17.759c-3.882-1.119-7.811-2.124-11.793-3
	c-0.465-0.997-0.931-1.982-1.396-2.962c1.143-0.436,2.944-1.031,5.418-1.791c3.569-1.067,6.271-1.768,8.105-2.102
	c0.467-0.1,0.734-0.383,0.801-0.851c0.5-8.104,5.953-17.543,16.359-28.316c8.438-8.739,16.427-15.125,23.964-19.162
	c1.868-1.067,1.018-1.701-2.552-1.901c-17.543-1-32.969-0.284-46.277,2.151c-13.615,2.505-22.971,6.448-28.081,11.821
	c-1.542-2.326-3.087-4.562-4.636-6.711c3.098-2.052,8.264-6.836,15.508-14.365c7.737-8.005,11.406-12.558,11.006-13.658
	c-0.2-0.634-1.234-0.967-3.102-1l-18.461,1.351c4.703-7.438,9.655-16.476,14.858-27.116c5.137-10.64,7.321-16.243,6.554-16.81
	c-1.101-0.8-6.938,1.117-17.51,5.753c-10.006,4.402-16.994,7.921-20.963,10.556c1.901-7.304,3.402-15.676,4.503-25.115
	c1.101-9.272,1.2-14.192,0.3-14.759c-1.1-0.667-5.869,3.135-14.309,11.407l-19.611,20.062v-0.15
	c-1.301-9.405-2.234-15.476-2.801-18.21c-0.501-2.501-1.068-3.819-1.701-3.953c-1.168-0.3-4.82,5.57-10.957,17.61
	c-4.839,9.533-7.926,16.003-9.266,19.419c-4.229-1.229-8.556-2.244-12.998-3.009c-22.914-3.969-43.993-1.634-63.237,7.004
	c-12.589,5.656-23.833,13.754-33.75,24.261c-9.092-17.636-22.832-29.108-41.233-34.402c-1.285-0.514-2.572-0.995-3.864-1.416
	c0.079,0.154,0.151,0.314,0.229,0.469c-0.363-0.086-0.713-0.187-1.08-0.269c4.469,9.406,7.588,18.694,9.355,27.867
	c2.198,11.458,2,21.519-0.592,30.184c-0.19,0.128-0.365,0.256-0.509,0.384c-4.236,3.769-8.872,9.606-13.908,17.51
	c-5.403,8.505-7.788,14.292-7.154,17.36c2.702,13.574,10.923,28.7,24.665,45.377c12.541,15.176,24.164,25.531,34.871,31.068
	c4.269,2.201,10.423,4.453,18.461,6.754c9.906,2.802,20.746,5.036,32.519,6.703c31.489,4.42,63.91,4.021,97.256-1.177
	c0.458,10.542,4.687,22.488,12.708,35.849c8.705,14.475,18.328,24.464,28.867,29.967c1.268,0.701,2.234,1.034,2.902,1.001
	c0.7,0,0.884-0.384,0.551-1.151c-2.736-6.437-3.369-17.677-1.902-33.719c1.368-14.843,3.386-24.782,6.055-29.818
	c0.533-1.033,0.5-2.151-0.101-3.352l-2.501-3.703l-2.402-3.301c-0.691-1.039-1.255-2.025-1.708-2.968
	c5.891-2.497,10.938-5.271,15.169-8.313c6.385,2.591,15.618,5.916,27.714,9.98c15.909,5.336,25.415,7.838,28.517,7.504
	c5.736-0.601,9.956-8.389,12.657-23.363C336.899,181.748,337.416,166.255,335.948,149.178z"/>
</svg>
