<?xml version="1.0" encoding="utf-8"?>
<!-- Generator: Adobe Illustrator 16.0.0, SVG Export Plug-In . SVG Version: 6.00 Build 0)  -->
<!DOCTYPE svg PUBLIC "-//W3C//DTD SVG 1.1//EN" "http://www.w3.org/Graphics/SVG/1.1/DTD/svg11.dtd">
<svg version="1.1" id="图层_1" xmlns="http://www.w3.org/2000/svg" xmlns:xlink="http://www.w3.org/1999/xlink" x="0px" y="0px"
	 width="319px" height="292px" viewBox="0 0 319 292" enable-background="new 0 0 319 292" xml:space="preserve">
<path d="M297.666,207.648c-8.211-4.705-17.654-9.895-28.334-15.568c2.469-0.9,5.673-2.402,9.611-4.505
	c4.104-2.136,7.008-3.888,8.711-5.257c1.701-1.301,1.801-2.202,0.3-2.703c-2.27-0.701-8.227-1.385-17.872-2.053
	c-9.399-0.622-15.865-0.735-19.4-0.343c0.227-0.524,0.459-1.063,0.699-1.623c0.359,0.266,0.671,0.39,0.93,0.364
	c0.701-0.066,1.303-1.135,1.803-3.203c4.238-17.789,4.672-35.076,1.302-51.863c-3.471-17.321-10.263-30.219-20.374-38.696
	c-13.504-11.337-29.697-18.25-48.557-20.778c6.685-20.841,10.444-33.719,11.262-38.593c0.166-0.834,0.133-1.318-0.101-1.452
	c-0.233-0.134-0.685,0.05-1.352,0.55c-1.936,1.435-7.926,8.41-17.972,20.925c-0.066-4.005-0.483-9.929-1.251-17.771
	c-0.734-7.375-1.469-13.333-2.202-17.871c-0.268-1.569-0.585-2.386-0.951-2.453c-0.301-0.067-0.852,0.434-1.652,1.502
	c-1.702,2.369-4.789,7.625-9.262,15.769c-3.871,7.042-7.309,13.533-10.312,19.474c-1.135-4.038-3.371-10.763-6.708-20.174
	c-3.204-8.978-5.624-15.385-7.259-19.223c-0.634-1.501-1.135-2.186-1.502-2.052c-0.333,0.1-0.784,0.935-1.352,2.503
	c-1.401,4.105-4.038,13.266-7.909,27.483l-7.509,28.184l-5.606-6.758l-6.658-7.659c-0.634-0.634-1.068-0.868-1.302-0.701
	c-0.233,0.133-0.333,0.601-0.3,1.401l2.189,29.182c-2.133,0.96-4.261,1.971-6.384,3.035c-1.548-2.433-3.142-4.917-4.816-7.487
	c-6.508-9.979-12.214-18.239-17.121-24.78c-5.073-6.708-7.843-9.645-8.31-8.811c-0.434,0.768,0.3,7.576,2.203,20.424
	c1.501,10.346,2.77,18.339,3.804,23.979L45.213,59.622C24.755,46.94,12.975,39.831,9.871,38.296
	c-3.371-1.635-5.34-2.219-5.907-1.752c-0.667,0.534,0.083,2.637,2.253,6.308c2.77,4.706,10.946,15.352,24.529,31.938l5.631,6.791
	c2.307,11.212,4.216,19.711,5.73,25.498c-0.929,0.224-1.881,0.461-2.855,0.714c-5.609-1.436-18.226-4.974-37.891-10.626
	c-0.868-0.233-1.301-0.117-1.301,0.351c0,0.434,0.35,1.202,1.051,2.303c4.338,6.875,8.527,13.232,12.565,19.073
	c6.208,8.911,10.879,14.901,14.017,17.972l-13.516,1.201l-10.813,1.302c-0.834,0.134-1.218,0.367-1.151,0.701
	c0.067,0.367,0.601,0.951,1.602,1.752c3.07,2.47,8.41,5.606,16.019,9.411c5.89,2.917,10.191,4.83,12.946,5.768
	c-1.035,3.065-1.997,6.159-2.833,9.3c-4.072,15.353-5.073,29.002-3.004,40.949c0.173,0.997,0.494,1.879,0.93,2.671
	c-1.93,10.89-0.177,26.561,5.277,47.039c2.336,8.744,4.889,16.319,7.659,22.728c2.87,6.641,5.39,10.646,7.559,12.014l3.104,0.15
	c9.378-6.141,19.457-17.454,30.236-33.94c10.379-15.853,15.869-27.716,16.47-35.593c0.1-1.201-1.101-2.619-3.604-4.255
	c-0.595-0.376-3.05-1.733-7.316-4.047c0.061-1.227,0.104-2.275,0.13-3.141c9.208,6.436,18.636,11.857,28.283,16.273
	c1.23,2.115,4.259,5.276,9.089,9.486c5.874,5.14,12.849,10.462,20.925,15.97c20.324,13.883,35.125,20.958,44.402,21.225
	c18.656,0.567,38.98-5.506,60.974-18.222c1.102-2.336,1.869-10.379,2.303-24.129l0.076-5.02l15.343,6.472l1.802,0.05
	c0.067-0.3-0.2-1.168-0.801-2.603c-0.7-1.77-1.952-4.122-3.755-7.059c-1.602-2.604-3.104-4.84-4.505-6.709l35.993,4.506
	c13.35,1.436,20.241,1.619,20.675,0.551C318.69,220.432,311.85,215.759,297.666,207.648z"/>
</svg>
