<?xml version="1.0" encoding="utf-8"?>
<!-- Generator: Adobe Illustrator 16.0.0, SVG Export Plug-In . SVG Version: 6.00 Build 0)  -->
<!DOCTYPE svg PUBLIC "-//W3C//DTD SVG 1.1//EN" "http://www.w3.org/Graphics/SVG/1.1/DTD/svg11.dtd">
<svg version="1.1" id="图层_1" xmlns="http://www.w3.org/2000/svg" xmlns:xlink="http://www.w3.org/1999/xlink" x="0px" y="0px"
	 width="274px" height="179px" viewBox="0 0 274 179" enable-background="new 0 0 274 179" xml:space="preserve">
<path d="M269.388,62.862c-1.931-2.23-4.378-3.545-7.34-3.944c-2.661-0.381-4.972,0.063-6.939,1.312
	c-4.594-1.989-8.676-3.785-12.257-5.389c1.413-2.958,1.235-6.075-0.576-9.354c-0.915-1.653-2.462-3.569-4.634-5.747
	c1.915-3.828,2.886-8.248,2.886-13.277c0-6.058-1.531-11.301-4.594-15.728s-6.689-6.641-10.885-6.641
	c-0.026,0-0.052,0.005-0.077,0.005c-13.354-1.164-23.441,1.695-30.265,8.572l-2.164-0.072c-0.96-1.911-2.149-3.718-3.594-5.409
	C184.889,2.396,180.146,0,174.72,0c-1.171,0-2.31,0.121-3.42,0.348c-9.942,1.179-18.513,4.115-25.689,8.839
	c-7.489,4.893-11.268,10.136-11.334,15.728c-0.025,1.96,0.509,3.924,1.593,5.889c-7.992,4.988-12.524,11.577-13.577,19.775
	c-0.214,1.647-0.274,3.231-0.197,4.758c-12.359,1.01-23.812,3.966-34.355,8.873c-5.459,2.53-13.231,7.173-23.317,13.93
	c-5.292,3.562-8.954,5.942-10.985,7.14c-3.961,2.363-7.207,3.795-9.736,4.294c-6.824,1.398-13.148,1.731-18.974,0.999
	c-4.061-0.532-9.037-1.864-14.929-3.994c-4.36-1.564-7.339-1.282-8.938,0.849c-1.764,2.33-0.699,6.142,3.196,11.434
	c5.292,7.157,12.532,13.998,21.72,20.521c10.251,7.249,21.212,12.772,32.873,16.594c-0.003,0.938-0.042,1.538-0.119,1.781
	c-0.399,0.998-1.797,2.646-4.194,4.943l-6.241,5.791c-3.662,3.529-5.759,5.893-6.292,7.09c-0.466,0.999-0.1,2.164,1.099,3.496
	c2.33,2.596,6.974,5.426,13.931,8.488c7.023,3.063,12.815,4.776,17.375,5.143c1.398,0.1,2.197-0.066,2.397-0.5
	c0.2-0.465-0.167-1.298-1.099-2.496c-0.059-0.076-0.125-0.148-0.186-0.224l4.33,0.772l5.393,0.449
	c1.398,0.034,2.081-0.216,2.047-0.748c-0.034-0.333-0.533-1.082-1.498-2.247c-0.672-0.823-1.523-1.616-2.52-2.383
	c1.664,0.102,2.89,0.082,3.668-0.063c0.799-0.133,1.231-0.35,1.298-0.649c0.067-0.3-0.233-0.832-0.898-1.598
	c-1.398-1.564-3.412-3.063-6.042-4.493c-2.822-1.558-5.849-2.73-9.06-3.563c3.193-2.117,5.98-4.209,8.311-6.274
	c3.063-2.763,4.743-4.96,5.043-6.591c0.055-0.314,0.089-0.662,0.114-1.023c3.394,0.23,6.95,0.265,10.678,0.091
	c-0.763,1.06-1.188,1.923-1.255,2.58c-0.133,1.099,0.533,2.347,1.997,3.745c2.597,2.463,6.475,4.943,11.634,7.439
	c5.526,2.63,10.119,4.045,13.781,4.244c2.729,0.1,3.545-0.699,2.447-2.396c-0.062-0.095-0.142-0.189-0.209-0.284l3.804,0.384
	l4.786,0.086c4.411,8.365,8.311,13.857,11.691,16.441c0.699,0.532,3.029,1.498,6.99,2.896c3.762,1.298,6.707,2.196,8.838,2.696
	l2.297-0.15c0.433-0.398,0.316-1.215-0.35-2.445c-0.71-1.273-1.901-2.812-3.567-4.607c2.951,1.082,6.631,2.136,11.057,3.158
	c1.132,0.268,1.914,0.184,2.347-0.249c0.467-0.466,0.449-1.198-0.05-2.196c-0.758-1.606-2.059-3.365-3.893-5.275
	c2.35,0.521,5.408,1.014,9.185,1.48c1.564,0.166,2.447-0.018,2.646-0.55c0.2-0.565-0.299-1.531-1.498-2.896
	c-1.197-1.398-3.078-3.029-5.642-4.894c-1.947-1.446-3.409-2.419-4.389-2.923c-1.725-1.698-3.891-3.436-6.546-5.216l-5.093-3.745
	c-1.997-1.664-3.911-3.628-5.742-5.892c-2.657-3.313-5.288-8.438-7.892-15.341c5.078-2.965,9.619-6.181,13.612-9.651
	c1.298,2.504,4.182,7.153,8.659,13.958c4.66,7.09,7.457,11.184,8.389,12.283c1.398,1.697,4.41,4.51,9.037,8.438
	c4.826,4.095,7.939,6.408,9.337,6.94c0.966,0.366,3.195,0.732,6.69,1.099l7.989,0.749c0.865,0.066,1.364-0.167,1.497-0.699
	c0.167-0.532-0.082-1.182-0.748-1.947c-0.762-0.934-1.855-1.933-3.271-2.993l2.821,0.396l6.641,0.55
	c0.965,0.066,1.531-0.149,1.697-0.649c0.166-0.499-0.1-1.132-0.799-1.897c-1.157-1.204-2.613-2.391-4.34-3.562
	c1.979,0.055,4.632-0.021,7.984-0.232c1.099-0.033,1.698-0.316,1.798-0.85c0.134-0.499-0.249-1.064-1.148-1.697l-13.831-8.139
	c-8.688-5.127-13.447-8.105-14.279-8.938c-1.798-1.798-5.393-7.605-10.785-17.426c-4.253-7.678-6.946-12.802-8.091-15.389
	c0.794-2.081,1.307-4.127,1.541-6.138c1.568,1.105,3.251,2.322,5.052,3.651l18.375,14.03l11.684,9.237
	c3.628,2.862,6.074,4.576,7.34,5.143c4.027,1.864,8.688,2.396,13.98,1.598c5.292-0.799,9.104-2.596,11.434-5.393
	c1.265-1.531,1.598-3.828,0.998-6.891c-0.441-2.158-1.167-4.001-2.158-5.551c-0.609-3.387-2.417-7.277-5.431-11.675
	c-1.459-2.135-2.957-4.082-4.486-5.874c0.067,0.036,0.136,0.073,0.192,0.082l2.047-1.348c1.116-0.996,2.318-2.265,3.599-3.779
	c0.712,0.095,1.439,0.164,2.193,0.184c4.959,0.132,9.078-1.348,12.362-4.433c0.199,0.597,0.801,1.965,1.818,4.134
	c1.331,2.962,2.297,4.527,2.896,4.693c0.399,0.133,1.531-0.849,3.396-2.946l2.884-3.54c1.867-0.211,3.497-0.667,4.854-1.403
	c3.129-1.664,4.744-4.793,4.844-9.387C271.934,67.938,271.118,64.893,269.388,62.862z M125.339,143.051l-4.095-0.999l2.047-2.397
	l1.155-1.414c0.341,0.813,0.683,1.627,1.042,2.463c0.429,0.993,0.853,1.957,1.274,2.908
	C126.051,143.317,125.572,143.128,125.339,143.051z M124.231,149.738c0.021,0.01,0.039,0.019,0.059,0.029
	c-0.034,0.011-0.065,0.025-0.099,0.037L124.231,149.738z M130.2,151.061c0.066,0.138,0.132,0.273,0.199,0.41
	c-0.241-0.146-0.471-0.284-0.701-0.422L130.2,151.061z M219.904,80.261c1.466-0.133,2.94-0.301,4.424-0.51
	c0.505,1.031,1.407,2.651,2.719,4.881c0.766,1.311,1.427,2.366,1.99,3.181C226.117,84.69,223.073,82.173,219.904,80.261z"/>
</svg>
