<?xml version="1.0" encoding="utf-8"?>
<!-- Generator: Adobe Illustrator 16.0.0, SVG Export Plug-In . SVG Version: 6.00 Build 0)  -->
<!DOCTYPE svg PUBLIC "-//W3C//DTD SVG 1.1//EN" "http://www.w3.org/Graphics/SVG/1.1/DTD/svg11.dtd">
<svg version="1.1" id="图层_1" xmlns="http://www.w3.org/2000/svg" xmlns:xlink="http://www.w3.org/1999/xlink" x="0px" y="0px"
	 width="243px" height="301px" viewBox="0 0 243 301" enable-background="new 0 0 243 301" xml:space="preserve">
<path d="M239.356,135.752c-1.963-9.516-5.34-16.952-10.132-22.309c-1.896-2.163-3.359-2.978-4.391-2.445s-1.148,2.196-0.35,4.991
	c1.754,6.203,2.405,12.119,1.972,17.751c-4.415,0.553-7.219,1.207-8.41,1.962c-0.3,0.167-0.449,0.35-0.449,0.549
	c-0.033,0.2,0.05,0.532,0.249,0.998c0.566,1.198,1.715,2.861,3.444,4.991c0.962,1.189,1.853,2.205,2.687,3.083
	c-1.48,4.011-3.56,7.765-6.233,11.265c-0.92-0.888-2.115-1.893-3.59-3.02l-5.19-3.493l-0.898-0.25
	c-0.199,0.066-0.332,0.316-0.399,0.749c-0.463,2.287-0.696,7.731-0.701,16.327c-3.683,2.575-7.644,4.722-11.897,6.415
	c-6.128-7.534-10.531-12.26-13.203-14.158c-0.633-0.432-1.098-0.632-1.397-0.599c-0.3,0.066-0.649,0.399-1.048,0.998
	c-1.165,1.73-2.861,5.29-5.091,10.681c-1.566,3.821-2.572,6.415-3.037,7.823c-4.215,0.1-8.313-0.204-12.293-0.911l-1.888-11.005
	c-1.198-6.288-2.097-10.414-2.695-12.377c-0.133-0.565-0.333-0.882-0.6-0.948c-0.232-0.1-0.632,0.017-1.197,0.35l-4.791,3.543
	l-7.301,5.774c-1.405-2.463-2.725-4.498-3.963-6.125c4.796-8.129,7.688-13.523,8.668-16.169c0.167-0.532,0.2-0.898,0.1-1.098
	l-0.947-0.499l-1.34-0.357l0.74-1.19c1.231-1.963,1.996-3.643,2.296-5.041c0.599-2.695-0.083-4.991-2.046-6.887l-8.484-7.137
	c-2.863-2.414-4.945-4.217-6.304-5.452c3.805-5.327,6.28-9.144,7.401-11.417c0.366-0.699,0.5-1.198,0.399-1.497
	c-0.1-0.299-0.516-0.632-1.247-0.998c-1.896-0.932-5.607-2.146-11.13-3.643l-6.94-1.813c-0.699-5.189-1.134-8.961-1.295-11.264
	c-0.353-4.442-0.288-8.075,0.191-10.904l16.977-1.223c4.824-0.832,8.284-2.412,10.381-4.741c1.098-1.198,1.913-2.795,2.445-4.791
	c0.565-1.963,0.765-4.009,0.599-6.139c-0.532-8.019-3.044-16.07-7.535-24.155c-4.459-8.052-10.099-14.823-16.92-20.313
	c-3.959-3.194-8.184-5.573-12.676-7.137c-4.458-1.597-8.451-2.146-11.978-1.647c-4.307,0.65-7.775,3-10.407,7.046
	c-2.243-2.639-4.646-4.576-7.21-5.798c-2.861-1.397-6.089-1.979-9.682-1.747c-2.729,0.167-5.324,1.231-7.786,3.194
	c-2.496,1.963-4.558,4.625-6.188,7.985c-2.125,4.437-3.283,9.156-3.5,14.151c-1.766,2.341-3.271,4.806-4.485,7.409
	c-1.442,3.206-2.136,5.943-2.096,8.223c-5.416,1.39-10.763,2.277-16.042,2.675c-1.979-0.876-4.001-1.369-6.067-1.465
	c-2.795-0.1-5.39,0.516-7.786,1.847c-3.626,2.029-5.606,5.34-5.939,9.932c-0.299,4.525,1.115,7.985,4.242,10.381
	c0.101,0.078,0.211,0.146,0.315,0.22c3.267,6.139,5.359,9.212,6.272,9.212c0.856,0,2.668-2.471,5.429-7.4
	c0.455-0.083,0.899-0.181,1.335-0.292c1.182,1.926,3.459,3.331,6.833,4.215c0.323,1.123,0.894,2.66,1.723,4.626
	c1.364,3.161,2.446,4.791,3.244,4.891c0.731,0.095,3.306-3.161,7.714-9.75c1.295-0.476,2.538-1.09,3.714-1.878
	c2.485-1.663,5.619-3.349,9.365-5.058l2.073,2.228c-2.223,1.696-4.312,3.547-6.248,5.575c-3.993,4.159-6.704,8.218-8.135,12.178
	c-0.208,0.581-0.376,1.147-0.522,1.707c-0.975,0.901-1.706,1.784-2.178,2.648c-0.096,0.134-0.191,0.266-0.294,0.436
	c-3.061,5.224-2.163,9.15,2.695,11.778c3.469,1.899,7.364,2.508,11.682,1.844c-0.324,0.563-0.672,1.205-1.052,1.949l-1.497,3.094
	l-10.68,6.438l-11.429,6.588c-1.797,1.165-3.144,3.028-4.042,5.589c-0.898,2.629-0.998,5.091-0.3,7.387
	c0.3,0.932,2.263,4.708,5.889,11.329l5.875,10.729l-2.032,7.237c-1,3.922-1.531,6.656-1.602,8.228
	c-6.689,8.026-11.965,15.467-15.816,22.315c-5.19,9.217-7.603,17.052-7.237,23.507c0.267,5.058,2.662,10.131,7.187,15.222
	c3.621,4.033,9.885,9.358,18.781,15.969c-0.979,2.037-4.638,4.748-10.995,8.137c-6.199,3.313-10.936,5.357-14.225,6.148
	c-0.229-0.067-0.474-0.109-0.748-0.109c-2.163,0-5.007,0.781-8.534,2.346c-3.26,1.43-5.523,2.777-6.787,4.042
	c-0.533,0.532-0.782,0.932-0.749,1.198l0.898,0.748l6.874,0.559c-1.012,0.839-1.858,1.651-2.531,2.436
	c-0.865,0.998-1.265,1.647-1.198,1.947c0.066,0.332,0.648,0.565,1.747,0.698l11.633-0.729c-1.35,1.44-2.435,2.782-3.249,4.023
	c-0.732,1.064-1.048,1.746-0.948,2.047c0.067,0.398,0.732,0.582,1.997,0.549c1.963,0.033,5.174-0.5,9.632-1.598l7.236-2.146
	c0.052-0.026,0.09-0.075,0.138-0.109c0.021,0.003,0.04,0.014,0.062,0.01c5.457-0.698,13.808-2.828,25.054-6.388
	c12.41-3.927,18.765-6.888,19.064-8.884c0.366-2.429-1.098-6.338-4.392-11.729c-3.46-5.623-7.42-10.264-11.878-13.924
	c0.732-0.565,2.329-1.048,4.791-1.447l3.913-0.635c4.376,2.824,9.192,5.184,14.453,7.072c13.811,4.939,30.39,6.554,49.722,4.859
	c1.585,1.066,2.776,1.949,3.529,2.627c3.261,2.961,4.259,5.84,2.994,8.635l-6.787,10.58c-3.033,4.583-4.28,7.821-3.752,9.725
	c-0.776,1.279-1.539,2.724-2.287,4.35c-1.23,2.661-2.112,5.123-2.645,7.386c-0.5,2.196-0.467,3.327,0.1,3.394
	c1.563,0.166,4.791-1.314,9.682-4.441c3.364-2.161,5.624-3.783,6.796-4.876l3.738,0.802c-0.159,2.597,0.069,5.433,0.695,8.516
	c0.799,4.026,1.797,6.305,2.995,6.838c0.465,0.199,2.445-1.914,5.938-6.338c3.303-4.138,5.153-6.665,5.582-7.619l3.84,0.069
	c0.505,1.396,1.653,3.559,3.454,6.501c2.463,3.959,4.126,5.939,4.99,5.939c0.832,0,2.163-1.963,3.993-5.889
	c1.896-4.127,2.712-7.287,2.445-9.482c-0.007-0.052-0.02-0.104-0.026-0.155c2.464-1.599,3.579-3.987,3.32-7.182
	c-0.199-2.628-2.262-6.938-6.188-12.927l-11.778-16.52c-1.325-1.833-2.539-3.567-3.664-5.222
	c15.969-5.644,31.681-15.691,47.134-30.162c15.272-14.24,25.203-27.882,29.795-40.925
	C240.904,158.875,241.719,147.397,239.356,135.752z M126.818,132.682c-0.179,0.456-0.56,1.228-1.14,2.31l-0.263-0.039
	c-0.373-1.308-0.811-2.994-1.312-5.063C125.226,130.975,126.133,131.907,126.818,132.682z M52.688,139.645
	c-0.502-0.859-1.175-2.129-2.033-3.843l-2.535-5.54l8.574-5.939c0.385-0.192,0.99-0.346,1.772-0.47
	C56.317,129.515,54.389,134.784,52.688,139.645z"/>
</svg>
