<?xml version="1.0" encoding="utf-8"?>
<!-- Generator: Adobe Illustrator 16.0.0, SVG Export Plug-In . SVG Version: 6.00 Build 0)  -->
<!DOCTYPE svg PUBLIC "-//W3C//DTD SVG 1.1//EN" "http://www.w3.org/Graphics/SVG/1.1/DTD/svg11.dtd">
<svg version="1.1" id="图层_1" xmlns="http://www.w3.org/2000/svg" xmlns:xlink="http://www.w3.org/1999/xlink" x="0px" y="0px"
	 width="363px" height="369px" viewBox="0 0 363 369" enable-background="new 0 0 363 369" xml:space="preserve">
<path d="M360.399,71.031c-0.134-1.134-0.9-2.385-2.302-3.753c-1.368-1.368-2.77-2.252-4.204-2.652l-4.403-0.25
	c-5.265-0.164-8.607-0.696-10.037-1.595c0.026-0.037,0.054-0.07,0.079-0.106c2.023-2.899,3.218-5.136,3.602-6.722
	c1.184-0.706,2.088-2.674,2.703-5.938c0.567-3.103,0.701-5.154,0.4-6.155c-0.233-0.767-1.635-2.185-4.203-4.253
	c-2.502-2.001-4.237-3.136-5.204-3.403c-1.302-0.367-3.47-0.083-6.506,0.851c-2.636,0.834-4.787,1.735-6.455,2.703
	c-0.5,0.3-1.034,1.151-1.602,2.552l-2.102,5.404c-2.235,5.138-4.688,8.824-7.356,11.06c-3.836,3.169-9.925,5.504-18.265,7.006
	c-0.934,0.167-1.984,2.269-3.152,6.305c-0.935,3.336-1.435,5.588-1.502,6.755c-0.066,0.701,0.852,1.735,2.752,3.103l3.381,2.242
	c0.953,1.93,2.743,3.768,5.377,5.514c0.5,0.326,1.006,0.623,1.515,0.906c-12.827,12.355-19.787,18.934-20.883,19.738
	c-3.724,0.718-8.632,1.377-14.76,1.974l-11.134,0.691c0.678-1.191,1.747-2.422,3.227-3.694c1.535-1.334,4.054-3.136,7.557-5.404
	c6.372-4.07,10.76-7.189,13.161-9.358c4.537-4.07,7.256-8.357,8.157-12.86c0.967-4.871,0.266-9.958-2.103-15.263
	c-2.266-5.035-5.81-9.725-10.599-14.077c0.371-2.531,0.639-5.174,0.791-7.942c0.7-12.91-1.035-26.622-5.205-41.134
	c-0.1-0.4-0.3-0.617-0.6-0.65c-0.268-0.033-0.518,0.066-0.751,0.3c-2.302,2.302-6.538,5.238-12.71,8.807
	c-5.388,3.15-9.42,5.14-12.105,5.978c-3.793-5.763-8.607-10.202-14.467-13.284c-5.938-3.069-12.36-4.503-19.266-4.303
	c-6.739,0.2-13.078,1.918-19.016,5.154c-4.653,2.515-8.604,5.705-11.854,9.567c-3.455-0.554-8.102-2.149-13.968-4.813
	c-5.471-2.469-9.225-4.487-11.259-6.055c-0.901-0.667-1.535-0.367-1.902,0.901c-3.402,11.331-3.971,23.972-1.714,37.92l-3.24,3.314
	l-4.354,4.153c-5.404,5.405-9.024,9.725-10.859,12.961c-2.869,5.038-3.836,10.609-2.902,16.714c0.8,5.137,3.92,9.908,9.357,14.312
	c0.162,0.132,0.358,0.277,0.533,0.414L130.359,94c-0.801-0.033-1.285,0.05-1.451,0.25c-0.2,0.167-0.334,0.684-0.4,1.551
	c-0.129,2.89-0.21,7.889-0.246,14.952c-7.526-0.573-12.415-1.453-14.667-2.641c-0.701-1.101-2.802-7.173-6.305-18.215
	c-2.998-9.46-4.713-15.134-5.146-17.026l1.984-0.342c0.118,0.235,0.238,0.457,0.36,0.654c1.234,2.002,3.069,3.053,5.504,3.153
	c1.635,0.066,3.236,1.368,4.804,3.903c1.401,2.269,2.502,5.004,3.303,8.207l0.4,0.851c0.2,0.134,0.517-0.017,0.951-0.45
	c2.302-2.168,4.387-6.489,6.255-12.96c1.634-5.605,2.369-9.542,2.202-11.81c-0.133-2.102-1.001-4.337-2.602-6.706
	c-1.368-2.001-2.702-3.403-4.003-4.204l-1.852-0.6l-3.453-0.801c-6.605-1.668-10.525-3.319-11.76-4.954
	c-1.201-1.568-1.785-5.821-1.751-12.761c0-3.836-0.184-6.405-0.551-7.706c-0.467-1.468-2.719-3.286-6.755-5.455
	c-3.937-2.135-6.706-3.12-8.307-2.953c-1.368,0.134-3.369,1.051-6.005,2.752c-2.835,1.835-5.171,3.82-7.006,5.955
	c-2.068,2.369-1.801,7.189,0.801,14.462c0.697,1.965,1.457,3.777,2.271,5.458l-2.121,2.248l-11.51-0.35
	c-1.268,0.467-2.886,2.185-4.854,5.154c-1.468,2.202-2.602,4.17-3.403,5.905c-0.901,1.968,0.034,7.123,2.802,15.463
	c2.902,8.807,6.022,14.879,9.358,18.215c0.434,0.4,0.767,0.517,1.001,0.35c0.233-0.167,0.35-0.567,0.35-1.201
	c0-3.736,0.517-8.207,1.551-13.411c0.728-3.677,1.576-6.542,2.541-8.61c1.047-0.517,2.545-0.655,4.515-0.397
	c2.703,0.367,4.271,1.101,4.704,2.202c0.267,0.734,1.418,7.473,3.453,20.217l3.003,18.866c0.333,1.801,2.135,3.986,5.404,6.555
	l10.759,7.506c1.771,1.189,3.401,2.33,4.902,3.427l-1.199,0.126c-0.5,0.1-0.817,0.25-0.951,0.451l-0.25,1.251l-0.774,25.489
	c-0.458,0.722-0.916,1.443-1.361,2.162l-4.07-6.183l-1-0.851c-0.167,0.034-0.551,0.3-1.151,0.801L82.57,166.811l-4.227,3.965
	c-16.48-9.898-27.492-27.252-33.004-52.104c-2.102-9.542-3.252-19.633-3.453-30.275c-0.134-8.708,0.333-16.547,1.401-23.52
	c0.667-4.404,0.3-6.973-1.101-7.707c-1.468-0.767-3.937,0.617-7.406,4.153c-8.474,8.674-15.83,20.351-22.068,35.029
	c-6.872,16.28-10.959,33.228-12.26,50.842c-1.501,20.284,0.934,39.517,7.306,57.698c7.138,20.344,18.946,38.44,35.394,54.304
	c-0.375,0.764-0.757,1.524-1.116,2.292c-9.241,19.771-13.952,43.087-14.149,69.941c-0.088,0.105-0.178,0.206-0.263,0.317
	c-0.768,1.001-2.386,4.304-4.854,9.908c-2.603,5.871-4.354,10.292-5.254,13.261c-0.334,1.135-0.3,1.852,0.1,2.152
	c0.4,0.267,1.034,0.166,1.901-0.301c3.403-1.768,7.656-4.354,12.761-7.756c3.053-2.029,5.309-3.64,6.779-4.838l0.501,0.242
	c-0.545,1.843-1.17,4.14-1.876,6.896c-1.568,5.973-2.502,10.342-2.802,13.111c-0.167,1.401-0.117,2.168,0.15,2.302
	c0.267,0.167,1.068-0.217,2.402-1.151c3.503-2.435,7.573-5.57,12.21-9.407c3.509-2.913,5.901-5.092,7.191-6.545l1.758,0.331
	c-0.181,1.624-0.362,3.723-0.542,6.314c-0.367,4.67-0.517,8.173-0.45,10.508c0.033,0.968,0.267,1.535,0.701,1.701
	c0.367,0.135,0.817-0.016,1.351-0.449c3.069-2.536,6.555-5.805,10.458-9.809c3.454-3.528,5.595-6.046,6.439-7.567
	c4.855-1.003,8.953-3.589,12.276-7.796c4.237-5.438,6.689-12.943,7.356-22.518c0.867-1.068,3.52-3.287,7.957-6.656
	c4.378-3.411,7.821-6.306,10.361-8.7c26.003,12.492,50.074,18.318,72.206,17.458c16.121-0.638,30.946-4.854,44.488-12.61
	c1.146,4.104,0.642,9.265-1.553,15.513l-2.651,7.105c-0.801,2.303-1.101,3.938-0.901,4.904c0.734,3.536,5.872,6.689,15.413,9.458
	c8.262,2.396,15.843,3.524,22.763,3.417c1.515,0.786,4.964,1.898,10.365,3.338c6.905,1.869,12.176,2.986,15.813,3.354l2.452-0.25
	c0.2-0.301-0.101-1.002-0.901-2.102c-1.068-1.482-2.46-3.21-4.151-5.167c12.062,0.37,19.493,0.49,22.267,0.362
	c1.268-0.033,2.019-0.233,2.252-0.601c0.233-0.333,0.033-0.917-0.601-1.751c-1.019-1.353-2.497-2.89-4.412-4.603l4.513,0.299
	c1.101-0.034,1.718-0.2,1.852-0.501c0.133-0.333-0.184-0.9-0.951-1.701c-1.734-1.801-4.57-4.12-8.507-6.955
	c-3.199-2.316-5.39-3.718-6.605-4.233c3.718-7.508,6.947-14.808,9.658-21.889c4.67-12.31,6.905-21.802,6.705-28.474
	c-0.3-10.942-4.253-21.751-11.859-32.427c-7.669-10.723-17.798-19.558-30.371-26.514c-0.202-7.751-0.889-14.551-2.065-20.391
	c2.099-1.059,4.071-2.302,5.914-3.737c7.873-6.105,12.127-15.763,12.761-28.974c0.233-4.637-0.033-9.007-0.8-13.111
	c-0.701-3.636-1.436-5.588-2.203-5.855c-1.499-0.489-4.924,1.342-10.263,5.478c-3.364-5.304-6.365-10.285-9.021-14.96
	c4.102-1.378,10.048-3.747,17.884-7.131c8.607-3.703,14.245-6.355,16.914-7.957c1.701-1,6.688-7.523,14.962-19.566l11.935-17.731
	l2.628,0.267c0.9-0.2,2.285-1.068,4.153-2.603l3.402-2.652l2.353-0.3c0.613,0.022,1.151,0.129,1.625,0.306
	c0.107,0.131,0.208,0.258,0.326,0.395c1.201,1.368,2.002,2.686,2.402,3.953c0.733,2.202,0.884,5.221,0.45,9.058
	c-0.066,0.4,0,0.684,0.2,0.851l0.951-0.05c4.036-1.901,7.556-5.571,10.559-11.009C359.749,79.422,360.933,74.868,360.399,71.031z"/>
</svg>
