<?xml version="1.0" encoding="utf-8"?>
<!-- Generator: Adobe Illustrator 16.0.0, SVG Export Plug-In . SVG Version: 6.00 Build 0)  -->
<!DOCTYPE svg PUBLIC "-//W3C//DTD SVG 1.1//EN" "http://www.w3.org/Graphics/SVG/1.1/DTD/svg11.dtd">
<svg version="1.1" id="图层_1" xmlns="http://www.w3.org/2000/svg" xmlns:xlink="http://www.w3.org/1999/xlink" x="0px" y="0px"
	 width="207px" height="236px" viewBox="0 0 207 236" enable-background="new 0 0 207 236" xml:space="preserve">
<path d="M206.3,124.15c-0.267-0.801-1.3-1.934-3.1-3.4c-1.667-1.367-3.2-2.4-4.601-3.1c-0.732-8.233-2.066-15.917-4-23.05
	c-3.232-11.867-8.316-22.55-15.25-32.05c-6.934-9.533-15.283-17.267-25.05-23.2c-2.739-1.697-5.93-3.353-9.521-4.97
	c1.254-3.064,2.287-6.332,3.07-9.83c1.167-5.033,1.566-9.866,1.2-14.5c-0.399-4.866-1.55-7.866-3.45-9
	c-2.866-1.667-7.166-1.616-12.899,0.15c-7.134,2.233-13.634,6.9-19.5,14c-3.667-0.9-7.784-0.534-12.35,1.1
	c-6.479,2.34-10.787,6.372-12.94,12.083l-0.86,0.167c-10.836,2.161-20.751,6.602-29.755,13.297c-2.468-1.96-5.411-2.969-8.845-2.997
	c-3.5-0.034-6.517,0.867-9.05,2.7c-1.033,0.733-1.9,1.6-2.6,2.6c-2.267-0.833-4.9-1.433-7.9-1.8c-3.533-0.434-6.583-0.434-9.15,0
	c-2.867,0.466-4.733,1.617-5.6,3.45c-0.9,1.934-0.867,4.95,0.1,9.05c1.3,5.633,4,10.466,8.1,14.5
	c2.542,2.501,5.329,4.406,8.355,5.728c-3.931,8.41-6.725,17.579-8.355,27.522c-0.837,5.057-1.348,10.134-1.538,15.231
	c-0.537-0.345-1.125-0.664-1.812-0.931c-1.967-0.767-3.633-0.75-5,0.05c-0.533,0.3-0.967,0.816-1.3,1.55
	c-0.367,0.8-0.55,1.733-0.55,2.8c0,1.967,0.65,4.116,1.95,6.45c-2.5-0.9-4.833-1.4-7-1.5c-1.934-0.066-3.45,0.184-4.55,0.75
	c-0.667,0.367-1.216,0.883-1.65,1.55c-0.5,0.733-0.733,1.5-0.7,2.3c0.066,2.533,1.65,5.066,4.75,7.601
	c2.133,1.733,4.533,3.167,7.2,4.3c-1.6,1.033-2.8,2.267-3.6,3.7c-1,1.767-1.117,3.517-0.35,5.25c0.367,0.8,1.066,1.517,2.1,2.149
	c1.034,0.634,2.184,1.018,3.45,1.15c2.3,0.267,4.75-0.066,7.35-1c1.478-0.525,2.698-1.132,3.676-1.815
	c4.768,15.937,13.748,28.584,26.974,37.915c7.252,5.122,15.321,8.875,24.19,11.287c1.229,1.377,2.546,2.667,3.944,3.88
	c-0.705,0.354-1.277,0.822-1.684,1.434c-0.5,0.7-0.667,1.5-0.5,2.399c0.267,1.434,1.667,2.551,4.2,3.351
	c0.59,0.189,1.139,0.335,1.669,0.461c-0.172,0.114-0.354,0.222-0.52,0.339c-1.566,1.1-3.316,2.65-5.25,4.65
	c-1.133,1.199-1.883,2.383-2.25,3.55c-0.367,1.2-0.316,2.233,0.15,3.1c0.9,1.7,2.833,2.351,5.8,1.95
	c1.441-0.206,3.678-0.79,6.704-1.749c-0.418,1.428-0.654,2.907-0.654,4.449c0,2.533,0.833,4.149,2.5,4.85l4.1-0.1
	c1.6-0.567,3.25-1.616,4.95-3.15c3-2.7,6.55-5.634,10.65-8.8c4.267-3.3,7.733-5.767,10.4-7.4c3.533-2.133,5.6-4.217,6.199-6.25
	c0.533-1.866-0.149-3.583-2.05-5.149c-0.181-0.159-0.391-0.313-0.61-0.465c0.306-0.049,0.604-0.085,0.91-0.136
	c20.5-3.467,37.768-11.066,51.801-22.8s23.633-26.634,28.8-44.7c0.667-2.333,1.1-4.566,1.3-6.699
	C206.666,126.4,206.6,124.983,206.3,124.15z"/>
</svg>
