<?xml version="1.0" encoding="utf-8"?>
<!-- Generator: Adobe Illustrator 16.0.0, SVG Export Plug-In . SVG Version: 6.00 Build 0)  -->
<!DOCTYPE svg PUBLIC "-//W3C//DTD SVG 1.1//EN" "http://www.w3.org/Graphics/SVG/1.1/DTD/svg11.dtd">
<svg version="1.1" id="图层_1" xmlns="http://www.w3.org/2000/svg" xmlns:xlink="http://www.w3.org/1999/xlink" x="0px" y="0px"
	 width="265px" height="324px" viewBox="0 0 265 324" enable-background="new 0 0 265 324" xml:space="preserve">
<path d="M241.334,62.2l5.741,4.393c2.329,1.531,4.427,2.347,6.29,2.446c2.729,0.167,5.076-1.248,7.039-4.244
	c2.131-3.195,2.447-6.656,0.949-10.384c-1.764-4.327-4.876-7.638-9.336-9.935c-2.963-1.498-7.123-2.762-12.481-3.794
	c3.528-1.398,6.44-3.129,8.737-5.192c2.43-2.164,3.961-4.477,4.593-6.939c1.099-4.394-0.399-8.604-4.493-12.631
	c-4.26-4.194-8.953-5.492-14.078-3.894c-2.597,0.799-4.893,2.28-6.891,4.443c-1.963,2.163-3.494,4.826-4.593,7.988
	c-0.932-4.726-2.579-8.953-4.942-12.681c-2.862-4.56-6.391-7.588-10.584-9.086c-4.227-1.498-8.005-1.348-11.333,0.449
	c-3.229,1.73-4.51,4.044-3.845,6.939c0.334,1.498,1.166,3.129,2.496,4.893l3.645,4.493l3.195,4.244
	c0.479,0.725,0.89,1.439,1.255,2.146c-4.495-2.68-8.842-4.318-13.036-4.891c-3.895-0.566-7.073-0.2-9.536,1.098
	c-2.329,1.198-3.544,3.128-3.645,5.792c-0.134,2.762,0.849,4.909,2.946,6.44c1.143,0.858,2.73,1.533,4.71,2.047
	c-1.208,1.202-2.399,2.545-3.576,4.007c-1.721-0.387-3.234-0.595-4.529-0.612c-1.631-0.033-2.612,0.183-2.946,0.649
	c-0.332,0.433-0.332,1.464,0,3.095c0.324,1.595,0.888,3.438,1.66,5.497c-2.503,4.378-4.664,9.124-6.452,14.273
	c-1.772,5.066-3.029,10.072-3.814,15.022c-0.277-0.294-0.55-0.604-0.829-0.894c-3.627-3.828-5.808-5.658-6.539-5.492
	c-1.065,0.3-1.998,3.628-2.797,9.985c-0.757,6.146-0.741,10.644,0.024,13.537c-0.606-0.093-1.214-0.184-1.83-0.259
	c-0.864-2.101-1.972-4.541-3.336-7.336c-3.761-7.722-6.558-12.548-8.388-14.479c-0.565-0.599-1.064-0.865-1.498-0.798
	c-0.398,0.1-0.848,0.532-1.348,1.298c-1.531,2.396-3.378,7.655-5.542,15.776c-0.691,2.629-1.239,4.943-1.645,6.946
	c-2.971,0.718-6.031,1.687-9.188,2.938c-2.706,1.059-5.055,2.146-7.085,3.256c0.56-3.413,0.844-8.345,0.844-14.839
	c0.033-8.487-0.666-12.714-2.097-12.681c-1.398,0.033-3.595,2.43-6.59,7.189c-0.487,0.759-0.939,1.491-1.375,2.207
	c-0.673-7.397-2.037-14.548-4.083-21.457c0.538-0.742,1.091-1.543,1.663-2.417c2.663-4.027,4.31-6.923,4.942-8.687
	c0.632-1.598,0.782-2.596,0.449-2.996c-0.299-0.333-1.398-0.533-3.295-0.599c-2.752-0.099-5.821,0.108-9.201,0.619
	c-3.016-6.142-6.519-11.067-10.519-14.747c-3.989-3.673-8.327-5.991-13.009-6.967c3.734-2.059,6.697-3.982,8.866-5.764
	c3.295-2.663,5.392-5.492,6.291-8.487c0.599-2.13,0.333-4.16-0.799-6.091c-1.198-2.03-2.962-3.128-5.292-3.295
	C76.449,3.338,70.941,5.136,64.75,9.13c-2.781,1.804-5.43,3.86-7.956,6.152c1.259-3.103,2.069-5.413,2.415-6.901
	c0.599-2.43,0.5-4.327-0.299-5.691c-1.231-2.197-3.928-2.979-8.088-2.347c-4.161,0.632-7.771,2.347-10.834,5.143
	c-3.128,2.862-5.558,6.54-7.289,11.033c-1.598,4.193-2.396,8.521-2.396,12.98v0.05c-4.493-0.766-9.136-0.549-13.929,0.649
	c-5.092,1.298-9.319,3.495-12.681,6.59c-2.53,2.33-3.761,5.125-3.694,8.387c0.033,3.062,1.115,5.292,3.245,6.69
	c1.93,1.331,4.843,1.631,8.737,0.898l6.102-1.667c-4.894,3.479-8.933,7.376-12.093,11.702c-3.628,4.959-5.508,9.535-5.642,13.729
	c-0.1,2.696,0.566,4.709,1.997,6.041c1.265,1.165,2.846,1.614,4.743,1.348c5.652-0.848,11.393-5.389,17.223-13.613
	c-0.002,0.564,0.03,1.125,0.101,1.681c0.371,2.788,1.645,4.552,3.809,5.307c1.018,4.691,4.41,9.617,10.165,14.777
	c-1.789,3.21-3.072,6.4-3.839,9.572c-0.3,1.231-0.233,2.014,0.2,2.346l2.846,0.399c3.594,0,7.821-0.782,12.681-2.346
	c0.46-0.149,0.881-0.298,1.304-0.447c6.473,3.888,12.533,6.798,18.178,8.731c-5.43,1.456-8.149,2.688-8.149,3.697
	c0,1.298,3.911,3.378,11.732,6.24c7.662,2.833,14.125,4.157,19.411,3.999c-5.23,10.363-6.268,20.446-3.085,30.25
	c2.78,8.589,8.394,15.523,16.822,20.81c-7.008-0.85-13.216-0.339-18.627,1.525c-0.352-1.321-0.745-2.734-1.19-4.263
	c-2.063-6.989-3.611-10.601-4.643-10.834c-0.965-0.233-3.378,1.765-7.239,5.991c-3.216,3.435-5.542,6.217-7,8.363
	c-0.684-0.603-1.352-1.16-1.986-1.623c-2.863-2.098-4.593-1.715-5.192,1.148c-0.27,1.301-0.477,2.951-0.625,4.935l-10.259-0.143
	c-7.189,0.067-11.033,0.55-11.532,1.448c-0.768,1.344,1.998,6.654,8.276,15.906c-0.844,0.318-1.72,0.688-2.635,1.117l-5.791,3.195
	c-1.564,0.966-2.413,1.947-2.546,2.946c-0.133,1.032,0.516,1.897,1.947,2.596l7.439,3.245c2.202,0.853,4.049,1.453,5.583,1.833
	c-0.407,2.02-0.887,5.813-1.44,11.397c-0.766,7.621-0.766,11.648,0,12.082c0.732,0.398,4.593-0.566,11.583-2.896l12.681-4.593
	c15.144,8.055,23.398,11.649,24.763,10.784c0.932-0.566,0.732-4.36-0.599-11.383c-0.036-0.192-0.076-0.379-0.112-0.57
	c3.731,0.242,7.445,0.068,11.144-0.509c-5.44,7.994-8.289,16.058-8.535,24.194c-0.071,2.707,0.177,5.269,0.724,7.694
	c-3.143-0.24-7.777-0.146-13.954,0.293c-7.755,0.565-11.682,1.314-11.782,2.247c-0.066,0.932,3.096,3.744,9.486,8.438
	c6.058,4.426,10.717,7.488,13.979,9.186c-3.062,3.527-6.624,8.587-10.684,15.177c-4.027,6.49-5.841,10.068-5.441,10.733
	c0.565,0.999,6.19,0.517,16.875-1.447c10.451-1.93,18.139-3.811,23.065-5.642c3.395,4.095,9.169,9.303,17.324,15.626
	c8.188,6.391,12.864,9.27,14.029,8.638c1.031-0.565,1.381-5.625,1.049-15.177c-0.268-6.957-0.616-12.498-1.049-16.625
	c5.392,0.565,11.998,0.682,19.82,0.35c8.287-0.334,12.646-1.049,13.08-2.147c0.432-0.998-2.996-3.595-10.285-7.788
	c-5.869-3.39-10.231-5.597-13.135-6.659c4.089-3.468,7.609-7.629,10.539-12.512c9.951-16.595,11.427-37.39,4.435-62.38
	c11.235,2.252,22.771,1.717,34.606-1.623c5.137-1.464,9.526-3.266,13.195-5.392l2.48,3.294c2.264,2.763,3.828,4.061,4.693,3.895
	c0.832-0.133,1.931-2.264,3.295-6.391c0.965-2.962,1.781-5.924,2.446-8.887c4.56,0,9.286-0.732,14.179-2.196
	c4.561-1.364,6.84-2.53,6.84-3.495c0-1.098-2.246-3.928-6.74-8.486c-1.469-1.492-2.835-2.828-4.112-4.032
	c0.678-0.457,1.555-1.162,2.665-2.159c1.83-1.697,2.695-2.879,2.596-3.544c-0.133-0.766-1.764-1.764-4.893-2.996
	c-1.759-0.713-3.138-1.219-4.149-1.524c0.979-2.196,1.931-4.709,2.852-7.562c1.664-5.159,2.214-8.071,1.647-8.737
	c-0.832-0.932-4.244-0.582-10.234,1.049c-1.915,0.521-3.613,1.057-5.142,1.607l-0.5-1.707c-0.665-1.964-1.315-3.012-1.947-3.145
	c-0.698-0.167-2.163,0.715-4.394,2.646c-1.888,1.614-3.127,2.875-3.733,3.792c-1.917-1.226-4.244-2.604-7-4.142
	c-5.292-2.962-8.304-4.21-9.036-3.745c-0.766,0.5-0.883,2.896-0.35,7.189c0.277,2.22,0.541,3.94,0.791,5.175
	c-2.458,0.688-5.017,1.656-7.681,2.913c-5.82,2.742-11.133,6.233-15.948,10.455c0.056-0.075,0.116-0.146,0.172-0.221
	c7.655-10.285,10.102-21.65,7.339-34.099c-1.208-5.445-3.554-10.355-7.027-14.735c2.696-0.081,6.787-0.705,12.319-1.89
	c7.389-1.597,10.817-3.045,10.285-4.343c-0.301-0.699-2.73-2.18-7.289-4.443c-0.891-0.445-1.718-0.847-2.51-1.223
	c6.403-2.518,12.301-5.654,17.693-9.409c0.084,0.05,0.157,0.098,0.242,0.148c3.596,2.097,6.541,3.328,8.837,3.694
	c1.631,0.233,2.663,0.066,3.096-0.5c0.433-0.599,0.616-2.014,0.549-4.244c-0.094-2.944-0.707-5.842-1.804-8.697
	c0.352-0.395,0.695-0.789,1.028-1.185c0.875,1.529,2.345,2.711,4.42,3.542c2.929,1.198,5.292,0.899,7.089-0.898
	c2.696-2.696,3.512-7.04,2.447-13.03c-0.73-4.169-1.978-7.7-3.721-10.614c0.043,0.029,0.082,0.05,0.126,0.08L241.334,62.2z"/>
</svg>
