<?xml version="1.0" encoding="utf-8"?>
<!-- Generator: Adobe Illustrator 16.0.0, SVG Export Plug-In . SVG Version: 6.00 Build 0)  -->
<!DOCTYPE svg PUBLIC "-//W3C//DTD SVG 1.1//EN" "http://www.w3.org/Graphics/SVG/1.1/DTD/svg11.dtd">
<svg version="1.1" id="图层_1" xmlns="http://www.w3.org/2000/svg" xmlns:xlink="http://www.w3.org/1999/xlink" x="0px" y="0px"
	 width="471px" height="376px" viewBox="0 0 471 376" enable-background="new 0 0 471 376" xml:space="preserve">
<path d="M465.103,114.414c-3.165-6.164-5.431-9.445-6.796-9.845l-5.147,0.45l-1.416,0.216c-0.611-0.958-1.864-2.226-3.781-3.814
	c-2.421-2.012-4.601-3.393-6.547-4.159c-0.799-1.168-1.663-2.059-2.599-2.637c-5.396-3.265-9.028-7.679-10.894-13.243
	c-0.134-0.433-5.414-6.247-15.842-17.44c-10.828-11.661-17.141-18.99-18.94-21.989c-0.3-0.5-3.182-0.933-8.645-1.299l-11.194-0.9
	c-0.3-0.133-0.883-0.933-1.749-2.398l-2.299-3.848c-5.23-8.329-13.377-17.008-24.438-26.036c-1.599-1.299-10.777-2.882-27.535-4.748
	l-24.137-2.349c-5.498-0.233-10.479-0.133-14.942,0.3l-11.644,1.449l-10.494,0.65c-4.132,0.433-9.18,2.016-15.143,4.747
	c-3.665,1.699-9.628,4.814-17.891,9.345c-6.996,2.999-13.226,5.181-18.69,6.546c-4.665,1.2-9.861,2.032-15.592,2.499
	c-2.699,0.233-6.979,0.966-12.843,2.199c-5.963,1.299-11.844,1.766-17.641,1.399c-4.498-0.3-8.329-0.05-11.494,0.75
	c-1.633,0.399-4.015,1.333-7.146,2.798l-12.793-0.65l-15.092-1.149c-2.865,0-8.662,3.282-17.391,9.845
	c-6.13,4.631-10.694,8.362-13.693,11.194c-1.932,1.799-4.314,6.463-7.146,13.993c-3.232,8.529-5.331,13.56-6.297,15.092
	c-0.799,1.266-0.799,3.981,0,8.146l2.599,12.593c0.8,4.664,1.5,10.561,2.099,17.69c0.233,1.866,0.133,3.915-0.3,6.147l-1.35,5.397
	c-0.233,0.966-0.066,2.532,0.5,4.697l2.149,6.597c1.166,3.165,2.332,6.796,3.498,10.894c1.466,5.064,2.332,8.912,2.599,11.544
	l1.699,17.391l1.299,14.542c0.033,0.634,0.666,1.2,1.899,1.699l4.297,1.799c4.157,2.189,6.876,6.017,8.192,11.439
	c-1.161-0.131-2.34-0.232-3.544-0.295c-12.527-0.666-22.405,0.367-29.634,3.099c-7.381,2.804-13.685,7.937-18.912,15.398
	c-0.392,0.135-0.787,0.249-1.178,0.394c-7.929,2.932-14.143,7.229-18.64,12.893c-1.799,2.299-2.999,4.73-3.598,7.297
	c-0.357,1.583-0.431,2.997-0.235,4.252c-4.412,3.082-8.615,8.053-12.608,14.938c-5.797,9.961-8.462,18.656-7.996,26.086
	c0.233,3.998,0.833,6.996,1.799,8.995c1.133,2.366,2.599,2.716,4.398,1.05c12.36-11.527,19.306-17.758,20.839-18.69
	c0.966-0.566,2.782-0.45,5.447,0.351c2.666,0.799,4.964,1.915,6.896,3.348c-4.231,4.797-7.446,9.345-9.645,13.643
	c-1.866,3.664-2.798,6.713-2.798,9.145c0,1.467,0.117,2.5,0.35,3.1c0.4,0.932,1.149,1.315,2.249,1.148
	c3.032-0.5,10.378-3.298,22.038-8.395c7.608-3.318,12.912-5.984,15.948-8.011c1.941,0.562,5.111-0.222,9.539-2.384
	c3.149-1.556,5.413-2.835,6.806-3.843c1.094,0.29,3.904-0.894,8.436-3.554c3.861-2.233,7.755-4.873,11.681-7.901
	c0.796,1.181,1.616,2.727,2.462,4.653c1.366,3.064,1.799,5.131,1.299,6.196l-2.999,4.747c-1.033,2.033-1.049,3.848-0.05,5.447
	c0.666,1.033,1.133,2.482,1.399,4.348c0.266,1.666,0.316,3.082,0.15,4.248c-0.017,0.103-0.018,0.194-0.031,0.295
	c-2.707,3.924-5.811,9.972-9.314,18.146c-4.897,11.36-5.714,17.457-2.449,18.29c3.298,0.833,8.795-3.031,16.491-11.594
	c6.222-6.889,10.806-12.996,13.791-18.342c6.409,0.523,12.386,0.913,17.91,1.163c-1.976,3.902-3.782,8.344-5.415,13.331
	c-2.632,7.929-2.849,12.526-0.65,13.793c1.866,1.032,6.347-1.75,13.443-8.346c6.913-6.405,12.098-12.612,15.601-18.624
	c0.468-0.021,0.923-0.046,1.379-0.07c2.631,1.454,5.384,2.729,8.271,3.806c-1.224,2.154-2.379,5.028-3.463,8.642
	c-1.566,5.23-1.666,8.412-0.3,9.545c2.47,2.053,9.539-2.678,21.18-14.149c9.677,0.987,19.668,0.006,29.973-2.935
	c-0.026,0.181-0.06,0.36-0.08,0.542c-1.199,11.062-0.799,20.756,1.2,29.085c1.565,6.497,3.798,11.244,6.696,14.243l3.398,3.048
	c1.133,0.7,1.866,0.55,2.2-0.45l3.197-12.393c2.199-8.496,3.498-13.227,3.898-14.193c2.565-0.466,6.879-0.066,12.943,1.199
	c-0.6,2.766-1.899,10.795-3.898,24.088c-0.267,1.399-0.217,2.349,0.15,2.849c0.467,0.633,1.549,0.749,3.248,0.35
	c5.131-1.232,11.094-4.78,17.891-10.645c7.226-6.261,11.48-12.287,12.766-18.082c1.953-1.648,4.323-4.308,7.123-8.004
	c1.144-1.513,2.147-2.973,3.029-4.386c1.451,8.009,4.589,15.968,9.414,23.875c4.898,7.963,9.563,13.127,13.993,15.492
	c2.199,1.199,3.632,1.6,4.298,1.199c0.767-0.467,1.116-2.182,1.049-5.146c-0.166-8.796-1.516-19.057-4.047-30.784
	c-0.596-2.765-1.208-5.316-1.835-7.675l9.097-0.584c2.745,6.533,6.492,12.805,11.278,18.803c6.862,8.596,14.559,15.176,23.087,19.74
	c1.866,0.999,3.049,1.199,3.549,0.6c0.499-0.633,0.516-2.365,0.05-5.197c-1.266-7.23-5.414-18.49-12.443-33.782
	c-0.642-1.4-1.271-2.73-1.893-4.026l2.979-0.152c0.817,3.34,2.05,6.896,3.71,10.676c5.064,11.627,12.511,20.889,22.339,27.785
	c1.133,0.799,1.966,0.916,2.498,0.35c0.467-0.467,0.75-1.482,0.85-3.049c0.233-4.131-0.55-10.728-2.349-19.789
	c-1.898-9.396-4.081-17.258-6.546-23.588c-0.011-0.028-0.022-0.055-0.033-0.083c1.136-4.44,2.724-9.848,4.78-16.259
	c2.165-6.729,4.015-12.093,5.547-16.091c2.365-6.163,4.748-10.728,7.146-13.692c2.165-2.666,5.214-5.031,9.146-7.097l2.099-1.1
	l1.299-1.099l29.234-66.266c2.166-7.829,6.063-16.624,11.694-26.386c1.932-3.332,6.58-10.678,13.942-22.038l7.097-10.994
	c1.898-3.132,2.848-5.114,2.848-5.947C470.35,126.957,468.601,121.244,465.103,114.414z"/>
</svg>
