<?xml version="1.0" encoding="utf-8"?>
<!-- Generator: Adobe Illustrator 16.0.0, SVG Export Plug-In . SVG Version: 6.00 Build 0)  -->
<!DOCTYPE svg PUBLIC "-//W3C//DTD SVG 1.1//EN" "http://www.w3.org/Graphics/SVG/1.1/DTD/svg11.dtd">
<svg version="1.1" id="图层_1" xmlns="http://www.w3.org/2000/svg" xmlns:xlink="http://www.w3.org/1999/xlink" x="0px" y="0px"
	 width="205px" height="236px" viewBox="0 0 205 236" enable-background="new 0 0 205 236" xml:space="preserve">
<path d="M202.932,167.979c-0.766-0.333-1.615,0.117-2.549,1.35c-1.398,1.732-3.165,3.432-5.297,5.098l-2.149-0.05l-2.55-5.098
	c-0.532-0.933-1.133-1.466-1.799-1.6c-0.699-0.167-1.549,0.05-2.549,0.649l-3.448,2.5c-1.37,1.1-2.502,2.082-3.404,2.949
	c-0.054-1.495-0.152-2.98-0.345-4.449c-0.566-4.299-1.516-6.681-2.848-7.146c-1-0.301-2.267-0.033-3.799,0.799
	c-1.086,0.632-2.046,1.389-2.883,2.268c-0.608-2.683-1.407-5.419-2.415-8.215c-2.333-6.464-4.698-10.146-7.097-11.045
	c-2.5-0.934-5.498-0.533-8.996,1.199c-2.938,1.427-5.326,3.364-7.184,5.801c-0.15-0.642-0.354-1.275-0.613-1.902
	c-1.199-2.799-3.35-4.898-6.447-6.297c0.699-5.099,0.433-9.83-0.8-14.194c-1.499-5.231-4.215-8.863-8.147-10.896
	c-4.498-2.366-10.045-2.882-16.643-1.549c-5.797,1.172-10.816,3.396-15.077,6.646c-0.007-0.018-0.008-0.031-0.016-0.049
	c-2.131-4.612-4.155-8.625-6.073-12.054c9.942-3.854,17.967-9.794,24.065-17.833c6.498-8.497,9.646-17.743,9.447-27.738
	c-0.334-14.027-6.564-25.522-18.693-34.485c-7.328-5.43-15.592-9.044-24.783-10.859c3.117-2.968,6.743-6.177,10.89-9.632
	c1.833-1.466,2.666-3.249,2.499-5.348c-0.167-1.999-1.166-3.665-2.999-4.998C88.431,0.466,86.548-0.133,84.582,0
	c-1.999,0.133-3.648,0.983-4.948,2.549c-3.721,4.453-6.552,10.488-8.512,18.067c-3.179-0.23-6.453-0.278-9.83-0.125
	c-13.361,0.6-24.64,3.449-33.835,8.546c-7.508,4.164-13.156,9.539-16.99,16.092c-1.497,0.81-3.047,2.422-4.651,4.849
	c-2.599,3.932-4.348,8.563-5.248,13.895c-0.966,5.697-0.8,11.095,0.5,16.193c0.602,2.475,1.33,4.356,2.184,5.647
	c2.986,11.746,12.447,20.694,28.403,26.839c7.063,2.732,14.494,4.415,22.291,5.048c2.888,0.245,5.693,0.329,8.419,0.259
	c1.804,3.564,3.267,7.327,4.414,11.275c-4.202-2.313-9.26-3.562-15.182-3.738c-6.264-0.166-10.779,0.85-13.544,3.049
	c-2.332,1.866-3.665,5.515-3.998,10.945c-0.3,5.231,0.366,9.763,1.999,13.594c-1.966,2.5-2.999,5.266-3.099,8.297
	c-0.1,2.766,0.55,5.314,1.949,7.646c1.433,2.266,3.265,3.782,5.498,4.549c0.438,0.152,0.878,0.255,1.318,0.334
	c-1.355,1.911-2.535,3.849-3.517,5.813c-1.133,2.332-1.683,4.048-1.649,5.147c0.066,1.5,0.933,3.133,2.599,4.898
	c1.366,1.398,2.832,2.549,4.398,3.448c0.742,0.419,1.382,0.807,1.926,1.166c-1.674,0.569-3.206,1.37-4.575,2.433
	c-1.666,1.266-2.482,2.416-2.449,3.448c0.067,1.732,1.982,3.548,5.748,5.448c3.532,1.766,7.047,2.865,10.545,3.298
	c1.266,0.134,2.199,0.55,2.799,1.249c0.151,0.159,0.284,0.341,0.401,0.544c-3.058,0.798-5.595,1.766-7.598,2.905
	c-2.466,1.399-3.965,2.932-4.498,4.598c-0.733,2.299-0.417,4.349,0.95,6.148c1.632,2.198,4.548,3.381,8.746,3.548
	c4.832,0.167,9.929-0.899,15.293-3.198c4.684-1.987,7.438-4.035,8.276-6.144c4.278,0.995,9.057,1.732,14.364,2.194
	c7.245,0.615,13.538,0.684,18.904,0.219c-0.422,3.015,0.842,5.959,3.836,8.828c3.498,3.398,8.18,5.281,14.044,5.647
	c4.465,0.233,8.247-0.217,11.345-1.35c3.365-1.267,5.182-3.132,5.448-5.598c0.267-2.599-0.933-5.214-3.599-7.847
	c-2.158-2.132-4.611-3.555-7.351-4.294c2.375-0.928,3.931-2.11,4.651-3.553c0.403-0.783,0.542-1.664,0.438-2.634
	c1.893,1.176,3.977,1.63,6.259,1.334c2.699-0.366,5.198-1.699,7.498-3.998c1.932-1.932,4.464-5.514,7.596-10.745
	c0.627-1.051,1.201-2.052,1.75-3.028c0.679,1.471,1.505,2.851,2.498,4.128c1.133,1.499,2.366,2.698,3.699,3.599
	c1.398,0.933,2.682,1.282,3.848,1.049c1.3-0.266,2.383-1.232,3.249-2.898c1.366-2.666,2.882-5.381,4.548-8.146
	c1.916-3.121,3.657-5.675,5.229-7.679c0.692,1.448,1.604,2.828,2.768,4.13c0.866,0.934,1.815,1.35,2.849,1.25
	c1-0.1,1.898-0.666,2.699-1.699c1.898-2.433,3.582-5.148,5.047-8.146c1.434-3.032,2.416-5.898,2.949-8.597
	C203.948,169.229,203.698,168.313,202.932,167.979z M110.422,132.693c3.498-0.232,5.98,0.35,7.446,1.75
	c1.366,1.299,1.933,3.365,1.699,6.197c-0.218,2.648-1.101,5.222-2.629,7.725c-2.27,0.176-4.176,0.98-5.718,2.421
	c-0.883,0.819-1.541,1.747-1.991,2.775c-2.631-6.224-5.396-12.17-8.302-17.814C103.814,133.938,106.976,132.913,110.422,132.693z
	 M49.697,143.09c0.333-1.699,1.25-2.85,2.749-3.449c2.033-0.8,4.748-1.049,8.146-0.75c3.649,0.343,6.548,1.423,8.709,3.229
	c0.11,1.047,0.214,2.1,0.287,3.169c0.531,7.62,0.019,14.142-1.502,19.603c-1.166-0.365-2.43-0.865-3.795-1.51
	c-1.18-0.564-2.229-1.129-3.152-1.693c0.034-0.021,0.069-0.035,0.104-0.057c2.032-1.232,2.932-3.314,2.699-6.247
	c-0.2-2.731-1.633-4.881-4.298-6.447c-2.765-1.632-5.797-1.899-9.096-0.8C49.647,146.404,49.364,144.722,49.697,143.09z"/>
</svg>
