<?xml version="1.0" encoding="utf-8"?>
<!-- Generator: Adobe Illustrator 16.0.0, SVG Export Plug-In . SVG Version: 6.00 Build 0)  -->
<!DOCTYPE svg PUBLIC "-//W3C//DTD SVG 1.1//EN" "http://www.w3.org/Graphics/SVG/1.1/DTD/svg11.dtd">
<svg version="1.1" id="图层_1" xmlns="http://www.w3.org/2000/svg" xmlns:xlink="http://www.w3.org/1999/xlink" x="0px" y="0px"
	 width="231px" height="204px" viewBox="0 0 231 204" enable-background="new 0 0 231 204" xml:space="preserve">
<path d="M228.152,109.111c-1.297-6.854-5.273-10.697-11.928-11.529c-2.197-0.266-4.377-0.216-6.539,0.15
	c-2.861,0.499-4.976,1.481-6.34,2.945c-1.496,1.531-2.013,3.544-1.548,6.04c0.366,1.996,1.447,3.262,3.244,3.793l5.142,0.25
	c3.028-0.199,5.01,0.051,5.94,0.748c0.632,0.467,1.03,1.348,1.196,2.646c0.199,1.464,0.018,3.128-0.549,4.99
	c-1.465,5.06-4.758,9.385-9.883,12.979c-6.022,4.259-13.76,6.705-23.209,7.337c-11.082,0.766-21.414-0.25-30.998-3.045
	c-1.367-0.404-2.727-0.852-4.076-1.332c0.177-2.586,0.652-5.402,1.433-8.451c0.858-3.384,1.504-6.673,1.951-9.873
	c0.724-2.236,1.206-3.427,1.442-3.554l1.646,1.198l0.799,0.647l1.048,0.101c0.399-0.199,0.599-0.516,0.599-0.948l-0.848-6.938
	l-0.25-1.797l3.545,0.149c0.027,0,0.049-0.003,0.076-0.003c-0.046,0.367-0.076,0.732-0.076,1.102c0,4.059,1.297,6.871,3.894,8.436
	c0.897,2.529,2.827,4.193,5.788,4.99c2.729,0.699,5.043,0.467,6.938-0.697c3.96,1.464,7.304,1.23,10.032-0.698
	c2.762-1.931,4.143-5.075,4.143-9.435c0-1.266-0.481-3.66-1.447-7.188l-0.897-3.444c-0.267-1.331-0.133-5.407,0.399-12.229
	l1.349-16.521c0.332-5.191,0.465-9.6,0.397-13.227c-0.032-2.928-1.396-5.091-4.092-6.489c-2.697-1.398-5.939-1.664-9.733-0.799
	c-2.362,0.533-5.009,1.331-7.937,2.396l-6.389,2.396c-1.465,0.532-3.561,0.948-6.289,1.248l-7.184,0.636l0.045-6.526
	c0-1.664-0.6-1.896-1.797-0.699l-1.147,1.148l2.396-19.666c0.134-1.165,0.084-1.813-0.148-1.947
	c-0.268-0.166-0.882,0.067-1.848,0.699l-2.846,1.847l1.198-3.344c0.333-1.198,0.333-1.88,0-2.046l-2.346,0.499
	c-3.095,1.032-7.604,3.328-13.526,6.888c-4.893,2.928-9.283,5.807-13.178,8.635l0.3-5.291c0.033-1.231-0.067-1.93-0.3-2.097
	s-0.815,0-1.747,0.5c-1.597,0.865-3.743,2.113-6.438,3.743l2.646-10.631c0.299-1.331,0.316-2.097,0.05-2.296
	c-0.3-0.232-1.148-0.033-2.546,0.599c-2.462,1.131-4.891,2.662-7.287,4.592c-2.596,2.129-5.391,4.892-8.386,8.286l0.05-3.045
	c0-0.599-0.183-0.998-0.549-1.198c-0.366-0.2-0.765-0.083-1.198,0.349c-1.997,1.93-4.492,3.977-7.487,6.14
	c-3.161,2.296-5.823,3.926-7.986,4.892l-5.99-6.789c-3.993-4.525-6.639-7.171-7.937-7.936c-1.264-0.732-2.113-0.999-2.545-0.799
	c-0.399,0.2-0.565,0.932-0.499,2.196l0.449,3.344l-11.68-1.797c-1.431-0.2-2.28-0.083-2.546,0.35
	c-0.266,0.399-0.1,1.214,0.499,2.445c0.466,0.999,1.73,2.929,3.793,5.79l-2.246-0.149c-1.264-0.067-1.997,0.133-2.196,0.599
	c-0.167,0.433,0.116,1.198,0.848,2.296L53.106,58.6l-1.348,0.15c-0.798,0.066-1.297,0.299-1.497,0.699
	c-0.233,0.399-0.2,1.015,0.1,1.847l1.747,5.241l-1.348,0.05c-0.865,0.033-1.364,0.299-1.498,0.799
	c-0.029,0.098-0.036,0.238-0.031,0.4c-1.741-0.396-3.654-0.955-5.759-1.698c-4.126-1.464-7.32-2.895-9.583-4.292
	c-1.298-0.832-2.263-1.797-2.895-2.895c-0.666-1.198-0.766-2.346-0.3-3.444c1.364-3.194,3.727-7.537,7.088-13.027
	c2.163-3.561,3.744-6.456,4.742-8.685c1.83-4.126,2.762-7.836,2.795-11.13c0.033-7.388-1.764-13.078-5.391-17.071
	c-3.062-3.394-6.972-5.208-11.73-5.44c-2.862-0.167-5.99,0.666-9.384,2.496c-2.229,1.198-5.074,3.145-8.535,5.84
	c-1.562,1.228-2.743,1.96-3.542,2.193c-1.896,0.632-3.228,2.013-3.993,4.143c-0.299,0.898-0.582,2.612-0.848,5.142l-0.599,2.895
	l-0.799,2.695c-0.865,3.294-0.666,5.79,0.599,7.487c1.231,1.664,3.311,2.462,6.239,2.396c2.862,3.061,6.955,3.311,12.279,0.749
	l1.997,1.048c0.299,0.732,0.466,1.664,0.499,2.795c0,1.265-0.183,2.462-0.549,3.594c-0.267,0.766-1.065,1.63-2.396,2.596
	l-3.894,2.595c-2.628,1.864-4.509,3.478-5.64,4.842c-1.797,2.063-2.695,4.276-2.695,6.639c0,3.261,2.08,6.821,6.239,10.681
	c3.228,2.995,8.502,6.789,15.823,11.38l10.681,7.438c2.275,1.604,4.347,2.952,6.22,4.049c-0.095,0.199-0.174,0.38-0.28,0.593
	c-1.564,3.194-4.342,7.953-8.335,14.275c-1.864,2.862-3.045,4.774-3.544,5.74c-0.799,1.431-1.032,2.346-0.699,2.745
	c0.333,0.398,1.165,0.266,2.496-0.399l8.086-4.692c0.366,1.398,0.782,4.311,1.248,8.735l0.649,4.692
	c0.266,1.764,0.582,2.645,0.948,2.645c0.266,0,0.865-0.582,1.797-1.746l2.396-3.096c0.715,1.461,1.39,2.967,2.032,4.507
	c-1.399,1.32-3.205,3.175-5.427,5.576l-3.693,3.743c-4.459,2.962-7.271,5.24-8.436,6.839c-2.396,3.261-2.396,7.038,0,11.33
	c0.999,1.797,3.444,2.944,7.337,3.444c2.362,0.299,6.355,0.397,11.979,0.299c7.92-0.199,12.445,0.217,13.577,1.248v0.149
	c0,0.998-1.082,3.095-3.244,6.289l-5.84,8.086l-3.494,3.743c-5.391,4.593-7.42,9.334-6.089,14.227
	c1.298,4.856,5.125,7.287,11.48,7.287c2.695,1.696,5.257,2.744,7.688,3.145c2.429,0.365,4.526,0.066,6.289-0.898
	c2.829-1.598,4.243-4.625,4.243-9.084c0-3.594-0.765-7.037-2.296-10.332c0.266-1.896,1.314-5.106,3.145-9.634
	c1.963-4.858,3.577-7.886,4.842-9.084c0.466-0.466,1.98-1.381,4.542-2.745c1.83-0.998,3.078-2.313,3.744-3.943
	c0.425-1.088,0.669-2.196,0.738-3.328c0.272-0.168,0.606-0.612,1.009-1.362l1.896-4.692l0.35-0.897l1.997,1.797l7.687,6.737
	l0.898,0.149c0.333-0.065,0.549-0.249,0.649-0.549l1.098-3.194c1.198-3.627,2.08-6.056,2.646-7.287l1.797-3.345l1.497,3.693
	c0.499,1.332,0.965,1.997,1.398,1.997c0.364,0.033,0.831-0.499,1.396-1.598l2.047-3.295l1.947,2.896
	c0.698,1.065,1.264,1.548,1.696,1.448c0.433-0.102,0.799-0.75,1.099-1.946c0.403-1.672,0.749-2.892,1.043-3.687
	c1.274,1.094,2.396,2.17,3.354,3.229c0.316,0.41,0.607,0.75,0.871,1.015c0.216,0.264,0.427,0.527,0.621,0.789
	c1.465,1.996,2.629,4.358,3.494,7.088l1.349,6.039l0.35,2.096l0.601,1l3.145,1.646c1.33,0.698,2.213,1.297,2.645,1.797l1.248,2.495
	c1.998,3.96,4.276,5.308,6.838,4.043c2.529-1.298,3.479-4.06,2.847-8.286l-0.05-1.197l0.199-2.646l0.449-2.694
	c0.1-1-0.018-1.897-0.35-2.695l-2.446-6.09c-0.177-0.457-0.34-0.89-0.495-1.31c10.367,2.849,21.426,3.864,33.188,3.006
	c6.655-0.499,13.144-2.097,19.466-4.792c7.555-3.228,13.328-7.504,17.32-12.828C226.988,124.27,229.518,116.398,228.152,109.111z
	 M164.314,93.34l-2.795-4.143c-0.731-1.331-1.231-2.662-1.498-3.993c-0.162-0.896-0.304-3.337-0.422-7.27
	c1.137-1.328,2.504-2.665,4.115-4.01c2.396-1.963,5.49-4.176,9.284-6.639c-0.466,2.862-0.897,7.104-1.298,12.728
	c-0.434,6.489-0.948,10.349-1.547,11.58c-0.366,0.832-1.531,2.179-3.494,4.043c-2.131,2.03-3.61,3.644-4.442,4.841
	c-0.431,0.594-0.792,1.189-1.099,1.785l-1.697-5.129l3.844-1.348l1.447-0.848C164.98,94.538,164.848,94.005,164.314,93.34z
	 M77.765,149.043c-1.132,0.998-1.865,1.381-2.197,1.148l-4.941-3.693c-2.496-1.764-4.576-2.912-6.239-3.443l2.096-2.048l3.282-3.323
	c0.503,0.526,1.007,1.033,1.51,1.576l6.139,6.688c0.784,0.979,1.386,1.577,1.809,1.801C78.835,148.073,78.36,148.493,77.765,149.043
	z M85.151,145.648l-4.731,1.338c0.137-0.234,0.281-0.504,0.438-0.838l1.797-4.043l3.115,3.561L85.151,145.648z"/>
</svg>
