<?xml version="1.0" encoding="utf-8"?>
<!-- Generator: Adobe Illustrator 16.0.0, SVG Export Plug-In . SVG Version: 6.00 Build 0)  -->
<!DOCTYPE svg PUBLIC "-//W3C//DTD SVG 1.1//EN" "http://www.w3.org/Graphics/SVG/1.1/DTD/svg11.dtd">
<svg version="1.1" id="图层_1" xmlns="http://www.w3.org/2000/svg" xmlns:xlink="http://www.w3.org/1999/xlink" x="0px" y="0px"
	 width="263px" height="362px" viewBox="0 0 263 362" enable-background="new 0 0 263 362" xml:space="preserve">
<path d="M259.104,60.789c-2.73-9.325-5.961-16.468-9.69-21.43c-1.065-1.398-2.397-2.215-3.997-2.448
	c-1.465-0.2-3.063,0.1-4.795,0.899c-2.432,1.112-5.367,3.214-8.783,6.26c2.317-4.51,4.036-8.929,5.137-13.253
	c0.832-3.197,1.032-5.811,0.6-7.842c-0.467-2.065-1.682-4.03-3.646-5.895c-4.662-4.363-10.773-8.259-18.332-11.689
	c-8.06-3.63-14.903-5.328-20.531-5.095c-3.996,0.167-6.344,1.981-7.043,5.445c-1.118,5.663-1.991,11.312-2.637,16.949
	c-0.613-2.289-1.341-4.621-2.209-7.009c-1.398-3.729-2.83-6.86-4.296-9.391c-1.032-1.765-2.515-2.964-4.446-3.597l-6.044,0.15
	c-4.329,1.465-8.808,4.163-13.437,8.092c-4.662,3.93-8.076,7.909-10.24,11.938c-0.6,1.099-0.916,2.231-0.949,3.397
	c-0.066,1.099,0.116,2.414,0.549,3.946c0.594,2.105,1.278,4.226,2.021,6.355c-0.766-0.74-1.539-1.376-2.32-1.909
	c-1.299-0.866-2.698-1.183-4.197-0.949c-1.831,0.266-3.513,1.349-5.045,3.247c-5.594,6.86-9.274,13.288-11.039,19.282
	c-0.533,1.798-0.75,3.414-0.649,4.846c0.1,1.765,0.649,3.58,1.648,5.445c1.584,3.106,4.445,7.166,8.549,12.155
	c-0.352,0.278-0.707,0.546-1.056,0.833c-5.628,4.629-10.024,9.757-13.188,15.386c-3.197,5.694-4.762,11.239-4.695,16.634
	c0.145,9.951,3.762,19.171,10.841,27.665c-2.168,0.845-4.381,1.904-6.645,3.206c-2.564,1.532-4.362,2.864-5.395,3.997
	c-1.132,1.299-1.715,2.564-1.749,3.796c-0.033,0.766,0.25,2.098,0.849,3.996c0.3,0.999,0.849,2.431,1.648,4.296l1.599,4.096
	c0.566,1.665,0.749,2.897,0.549,3.696c-0.2,0.833-0.916,1.565-2.148,2.198c-6.551,3.399-10.028,6.855-10.443,10.369l-7.789,1.42
	c-3.963,0.866-5.995,3.529-6.094,7.992c-0.067,4.529-0.083,11.123-0.05,19.781l0.293,20.145c-3.945,0.946-6.519,3.558-7.686,7.879
	c-1.266,4.629-0.2,8.642,3.197,12.039c1.765,1.765,4.046,2.747,6.843,2.947c1.302,0.085,2.465,0.005,3.494-0.235
	c-1.999,3.229-3.698,6.239-5.092,9.026c-0.186,0.369-0.347,0.714-0.519,1.069l-6.025-3.267c-2.198-1.1-4.346-1.982-6.444-2.648
	l-5.195,0.2c-1.532,0.767-3.147,2.281-4.846,4.546c-3.33,4.463-7.126,10.956-11.389,19.481c-3.314,6.555-5.954,12.462-7.928,17.731
	c-5.686-1.418-11.401-2.489-17.148-3.195c-3.202-0.387-5.909-0.572-8.139-0.564c-0.344-1.914-0.76-4.15-1.252-6.729
	c-1.731-9.092-2.98-14.72-3.746-16.885c-0.533-1.432-1.199-2.363-1.999-2.797c-0.732-0.399-1.698-0.399-2.897,0
	c-1.865,0.6-3.963,1.665-6.294,3.197c-2.098,1.398-3.747,2.714-4.945,3.946c-1.166,1.265-1.765,2.614-1.798,4.046
	c-0.033,1.365,0.45,2.964,1.449,4.795c1.166,2.132,3.363,5.729,6.594,10.791c1.272,2.005,2.39,3.727,3.374,5.204
	c-1.336,1.355-2.822,2.959-4.473,4.836c-4.263,4.829-6.377,7.858-6.344,9.091c0.066,1.332,1.682,3.297,4.845,5.895
	c3.197,2.598,5.694,3.896,7.493,3.896c3.382,0,8.699-2.015,15.922-6.016l8.504,5.966l12.388,9.392
	c2.231,1.764,4.462,2.497,6.694,2.197c2.065-0.267,4.313-1.449,6.744-3.547c4.779-4.181,8.625-7.265,11.563-9.279
	c1.7,1.139,3.467,2.329,5.32,3.585l14.573,10.215c-0.043,1.086-0.009,2.033,0.113,2.823c0.381,2.191,1.458,3.611,3.204,4.286
	c-0.717,1.565-1.931,3.167-3.653,4.805c-1.232,1.231-2.215,2.631-2.947,4.196c-0.766,1.665-0.966,2.947-0.6,3.846
	c0.466,1.033,1.815,1.815,4.046,2.348c4.296,1,7.243,1.865,8.841,2.598c2.031,0.967,5.045,1.466,9.042,1.499
	c3.696,0.033,6.977-0.316,9.841-1.05c4.063-1.031,7.343-1.414,9.84-1.148l8.542-0.449c3.43-0.6,6.277-1.432,8.542-2.498
	c1.432-0.699,2.265-1.498,2.497-2.397c0.233-0.933-0.116-2.048-1.049-3.347c-1.032-1.365-2.664-2.997-4.895-4.896
	c-1.928-1.664-3.924-3.194-5.98-4.603c3.361-2.16,7.127-4.127,11.324-5.887c7.094-2.998,14.004-4.896,20.73-5.695l15.143-0.754
	c-0.788,0.863-1.749,1.474-2.904,1.803c-2.064,0.633-3.846,1.516-5.344,2.647c-1.433,1.099-2.182,2.114-2.248,3.048
	c-0.033,1.099,1.398,2.78,4.295,5.045c2.898,2.23,6.262,4.262,10.091,6.094l9.292,4.096c4.595,1.965,6.992,3.064,7.192,3.297
	c2.065,2.232,3.88,3.847,5.444,4.846c1.732,1.066,3.414,1.532,5.046,1.398c0.8-0.066,4.029-1.432,9.69-4.096
	c6.328-2.997,10.474-4.813,12.438-5.445l9.191-3.297c2.464-1.064,3.729-2.031,3.796-2.896c0.133-1.266-1.415-2.348-4.646-3.247
	l-6.243-1.798l-2.798-1.998c-0.107-0.071-0.21-0.127-0.316-0.195c2.01,0.057,3.586-0.455,4.712-1.554
	c1.498-1.532,1.799-3.829,0.899-6.894c-0.6-2.098-1.433-4.112-2.497-6.044l-2.276-3.582c2.079-2.661,4.201-5.669,6.372-9.056
	c4.861-7.627,7.26-13.021,7.193-16.186c-0.033-2.396-3.248-6.26-9.641-11.588c-5.72-4.771-11.081-8.256-16.089-10.469
	c0.027-8.441-0.704-15.496-2.203-21.146c1.256,0.481,2.689,0.615,4.305,0.395c2.265-0.267,4.229-1.133,5.895-2.598
	c2.231-1.932,3.546-4.346,3.946-7.243c0.329-2.391-0.021-4.723-1.028-7c0.974-1.715,1.455-3.74,1.428-6.087
	c-0.033-3.297-0.949-6.211-2.747-8.742c-1.666-2.364-3.863-4.08-6.594-5.145c-2.765-1.066-5.562-1.299-8.393-0.7
	c-3.063,0.633-5.744,2.165-8.042,4.596c-2.665-0.333-6.145-1.231-10.44-2.697c-4.563-1.499-7.41-2.78-8.541-3.847
	c-1.488-1.423-2.643-5.932-3.469-13.515c2.02-1.884,3.813-3.734,5.399-5.556c0.821,0.784,1.643,1.588,2.464,2.437
	c2.765,2.831,5.795,2.997,9.092,0.499l6.294-4.795c2.831-2.331,4.646-4.213,5.444-5.645c0.767-1.365,1.149-2.797,1.149-4.296
	s-0.399-3.28-1.198-5.345c-0.633-1.598-1.766-3.796-3.396-6.594c-1.604-2.693-3.097-4.914-4.48-6.67
	c11.663-4.332,20.555-11.976,26.671-22.937c0.955-0.616,1.884-2.097,2.785-4.46c1.266-3.331,1.965-7.043,2.099-11.14
	c0.199-4.929-0.367-9.375-1.699-13.337c-0.878-2.61-1.781-4.238-2.71-4.92c-0.73-2.06-1.593-3.958-2.585-5.696
	c5.619-2.621,12.42-5.821,20.431-9.614c1.898-0.866,3.196-1.998,3.896-3.397c0.532-1.065,0.849-2.631,0.948-4.695
	C262.834,76.924,261.668,69.614,259.104,60.789z M200.76,238.77c0.36,1.137,0.817,2.105,1.354,2.934
	c-1.805,1.516-4.219,3.268-7.248,5.259l-7.291,4.49c-1.759-2.69-3.408-8.315-4.947-16.878c-1.635-8.938-2.692-18.22-3.187-27.836
	c0.367,0.073,0.697,0.12,0.982,0.136c1.949,10.726,4.132,17.021,6.55,18.858c1.798,1.365,4.046,2.714,6.743,4.046
	c2.253,1.141,4.519,2.104,6.797,2.911C199.973,234.56,200.054,236.586,200.76,238.77z M126.23,232.825
	c0.133-3.13-0.583-5.944-2.148-8.442c-1.332-2.031-3.247-3.446-5.745-4.245l-5.878,0.19l0.134-0.041
	c-0.523-1.705-1.138-4.82-1.842-9.299c2.529,2.881,5.345,5.508,8.486,7.851c3.84,2.888,7.116,4.481,9.829,4.789
	c-1.348,6.719-2.206,12.831-2.579,18.344c-0.982-0.728-1.951-1.394-2.907-1.993C125.2,238.082,126.089,235.701,126.23,232.825z"/>
</svg>
