<?xml version="1.0" encoding="utf-8"?>
<!-- Generator: Adobe Illustrator 16.0.0, SVG Export Plug-In . SVG Version: 6.00 Build 0)  -->
<!DOCTYPE svg PUBLIC "-//W3C//DTD SVG 1.1//EN" "http://www.w3.org/Graphics/SVG/1.1/DTD/svg11.dtd">
<svg version="1.1" id="图层_1" xmlns="http://www.w3.org/2000/svg" xmlns:xlink="http://www.w3.org/1999/xlink" x="0px" y="0px"
	 width="399px" height="434px" viewBox="0 0 399 434" enable-background="new 0 0 399 434" xml:space="preserve">
<path d="M356.322,46.821c19.209-15.073,32.516-28.496,39.919-40.269c1.334-2.134,1.634-3.518,0.9-4.152l-4.202-0.15
	c-11.505,2.501-24.428,7.52-38.768,15.057c-12.606,6.637-25.212,14.624-37.817,23.961c-11.605,8.604-21.327,16.924-29.163,24.961
	c-7.838,8.037-12.072,14.023-12.707,17.958c-3.067,19.076-6.819,35.667-11.255,49.773c-6.32,20.069-14.396,36.835-24.218,50.315
	c-5.678-3.702-11.711-6.835-18.096-9.402c-0.15-2.691-0.469-6.991-0.956-12.9c7.569-5.569,11.806-12.072,12.706-19.509
	c0.9-7.303-1.501-14.857-7.203-22.66l-3.902-5.903c-1.268-2.334-1.968-4.619-2.102-6.853c-1.4-23.911-2.283-37.417-2.65-40.519
	c-0.668-5.502-3.485-8.337-8.454-8.504c-2.067-0.066-4.019,0.467-5.853,1.601c-1.935,1.201-3.335,2.851-4.202,4.952
	c-0.601,1.467-1.901,8.471-3.902,21.01l-3.202,20.859c-0.267,1.534-1.067,3.285-2.401,5.252l-4.102,5.103
	c-6.47,7.837-9.388,15.474-8.754,22.911c0.534,6.37,3.602,12.406,9.204,18.108l-2.427,14.643c-3.946,0.929-7.227,1.818-9.828,2.665
	c-3.687,1.229-6.942,2.689-9.794,4.365c-5.244-10.646-10.749-23.718-16.518-39.23c-8.37-22.444-13.339-40.269-14.907-53.475
	c-0.633-5.27-6.403-12.906-17.308-22.911c-8.337-7.637-19.092-16.174-32.265-25.612C69.824,29.53,57.035,21.76,43.729,14.957
	C28.788,7.32,16.149,2.484,5.811,0.45l-5.453,0.2c-0.6,0.8-0.066,2.534,1.601,5.202c6.97,11.039,20.559,24.378,40.769,40.019
	C63.004,61.545,81.979,73.35,99.654,81.287c0.85,5.59,2.155,11.587,3.903,17.979c-13.337-8.479-27.308-15.23-41.92-20.23
	c-15.407-5.269-31.147-8.487-47.222-9.654c-3.335-0.233-5.286,0.184-5.853,1.25c-0.534,1.067,0.333,2.685,2.601,4.852
	c10.571,10.171,24.595,19.192,42.069,27.063c17.294,7.826,36.441,13.783,57.405,17.908c1.988,5.097,4.137,10.17,6.457,15.216
	c-18.526-7.373-36.663-11.801-54.408-13.265c-14.006-1.167-24.294-0.6-30.864,1.701c-1.734,0.567-2.068,1.601-1,3.102
	c1.801,2.568,5.869,5.469,12.206,8.704c6.503,3.301,14.223,6.353,23.161,9.154c21.251,6.614,41.278,9.554,60.085,8.838
	c2.273,4.048,4.126,7.162,5.56,9.339c-7.564-0.724-17.256,0.085-29.079,2.433c-13.473,2.668-20.176,5.469-20.109,8.404
	c0.033,1.634,2.134,3.268,6.303,4.902c4.269,1.634,9.421,2.768,15.457,3.401c14.811,1.519,27.168-0.527,37.084-6.125
	c2.817,3.461,5.94,7.012,9.383,10.656c-3.169,2.352-5.854,4.744-8.049,7.175c-2.435,2.734-4.068,5.319-4.902,7.753
	c-1.034,3.068-1.601,8.187-1.701,15.357c-0.097,7.292,0.352,14.6,1.325,21.922l-1.175,0.138c-2.268-10.104-4.168-17.124-5.703-21.06
	c-1.334-3.535-2.651-5.252-3.952-5.152c-8.504,0.567-19.359,3.952-32.565,10.155c-5.203,2.434-9.555,4.769-13.056,7.003
	c-3.468,2.234-5.103,3.735-4.902,4.502c0.5,1.868,6.77,2.635,18.809,2.301c10.872-0.333,18.442-1.017,22.71-2.051l1.301,8.153
	c-7.637,1.768-16.091,4.67-25.362,8.705c-9.538,4.135-14.09,6.986-13.656,8.553c0.434,1.701,6.553,2.369,18.358,2.002
	c10.972-0.367,18.275-1.067,21.91-2.102l-0.15,4.953c-4.402,1.133-9.688,3.018-15.857,5.652c-5.903,2.501-10.738,4.869-14.507,7.104
	c-3.668,2.167-5.536,3.801-5.603,4.902c-0.066,1.199,1.935,2.033,6.003,2.5c6.136,0.734,14.69,0.25,25.662-1.45
	c11.272-1.733,17.558-3.669,18.859-5.803c0.634-1.034,1.267-3.618,1.901-7.753c0.7-4.469,1.101-8.955,1.201-13.457l2.794-0.403
	c2.046,6.359,4.513,10.977,7.41,13.81c4.589,4.524,10.907,9.448,18.927,14.768c-0.649,1.49-1.355,3.719-2.12,6.692
	c-1.034,3.969-1.617,6.72-1.75,8.254c-0.167,1.567,0.066,2.451,0.7,2.651c0.5,0.166,1.551-0.066,3.151-0.7
	c2.201-0.867,4.886-2.335,8.054-4.402c2.696-1.729,4.535-3.253,5.529-4.575c0.302,1.091,0.479,2.626,0.524,4.625
	c0.067,3.068-0.25,5.236-0.95,6.504c-0.834,1.434-6.77,6.068-17.809,13.906c-10.538,7.47-15.974,12.256-16.307,14.355
	c-1.601,9.872-1.301,26.129,0.9,48.773c2.234,23.044,5.202,39.551,8.904,49.522c0.767,2.067,1.634,3.185,2.602,3.352
	c1.034,0.134,1.984-0.967,2.851-3.302c9.471-26.111,10.205-55.075,2.201-86.89c1.534-0.601,3.535-1.718,6.002-3.352l7.554-5.253
	c-2.968,14.24-3.552,30.898-1.751,49.974c1.801,19.242,5.419,33.966,10.855,44.17c1.301,2.435,2.568,3.735,3.802,3.902
	c1.334,0.2,2.418-1.034,3.251-3.702c4.902-15.407,6.92-31.498,6.053-48.271c-0.833-16.074-4.402-34.467-10.705-55.176l3.952-3.552
	l3.352-3.702c1.167,1.234,2.834,2.686,5.002,4.353l5.603,4.202c-3.568,15.707-3.234,35.148,1,58.326
	c4.002,21.877,9.389,37.251,16.158,46.121c1.268,1.668,2.284,2.385,3.051,2.151c0.668-0.2,1.201-1.15,1.602-2.852
	c2.801-12.072,3.501-26.646,2.101-43.72c-1.401-17.208-4.72-33.982-9.954-50.323l4.651,3.151l3.702,2.401
	c1.033,17.808,4.602,35.483,10.705,53.024c4.535,12.939,9.57,23.744,15.106,32.415c1.334,2.067,2.552,2.918,3.651,2.551
	c1.135-0.4,1.785-1.867,1.951-4.402c1.134-15.94-0.834-34.866-5.902-56.776c-4.002-17.341-8.354-31.03-13.057-41.068
	c-0.467-1.033-6.869-5.27-19.209-12.706c-12.072-7.304-18.309-11.922-18.708-13.856c-0.555-2.633-0.466-5.031,0.247-7.203
	c4.262-1.038,9.061-2.758,14.367-5.123c0.964,1.371,3.097,3.222,6.445,5.573c3.436,2.435,6.22,4.202,8.354,5.303
	c1.434,0.767,2.335,1.001,2.701,0.7c0.4-0.301,0.484-1.334,0.25-3.102l-1.15-8.453c-0.625-3.892-1.17-6.517-1.635-7.882
	c5.894-3.648,10.848-7.356,14.842-11.128c4.568-4.302,7.354-8.203,8.354-11.705c0.511-1.783,0.991-3.639,1.443-5.565l6.51,1.113
	c0,10.238,0.934,17.142,2.802,20.71c0.467,0.9,3.168,1.75,8.104,2.551l15.907,1.501c15.007,0.667,22.66-0.334,22.961-3.001
	c0.233-2.002-3.818-4.786-12.156-8.354c-7.903-3.401-15.023-5.636-21.359-6.703l0.05-2.651l0.101-2.251l22.06-0.65
	c9.171-0.866,13.823-2.101,13.957-3.702c0.166-2-4.252-4.401-13.257-7.203c-7.036-2.201-14.256-3.951-21.66-5.252
	c0.4-3.436,0.817-5.986,1.251-7.653l20.159,0.8c10.938-0.133,16.408-1.233,16.408-3.301c0-3.201-7.32-7.42-21.961-12.656
	c-5.936-2.134-11.205-3.668-15.807-4.602c-5.002-1-7.92-1.017-8.754-0.05c-1.568,1.834-3.102,4.986-4.603,9.455
	c-1.634,4.902-2.802,10.305-3.501,16.207l-4.371-0.157c0.146-1.099,0.286-2.213,0.419-3.345c1.067-9.305,1.417-17.558,1.05-24.761
	c-0.229-5.034-4.673-11.093-13.313-18.173c6.189-5.258,11.916-11.251,17.176-17.985c5.942,4.618,13.692,7.268,23.3,7.896
	c10.171,0.633,19.759-1.117,28.763-5.252c2.068-0.967,3.118-2.001,3.152-3.102c0.066-1.101-0.834-2.084-2.701-2.951
	c-4.869-2.234-11.506-4.119-19.91-5.653c-8.719-1.593-16.958-2.253-24.722-1.984c2.463-3.768,4.62-7.441,6.471-11.023
	c17.189,1.151,33.93-0.612,50.216-5.302c13.439-3.868,25.712-9.454,36.817-16.758c2.201-1.434,3.201-2.618,3.001-3.551
	c-0.166-1.067-1.768-1.801-4.802-2.201c-13.473-1.868-28.029-1.434-43.67,1.301c-12.452,2.188-23.717,5.445-33.809,9.758
	c2.083-5.35,3.888-10.659,5.405-15.928c15.673-1.146,31.843-5.353,48.513-12.639c17.341-7.604,32.748-17.475,46.221-29.614
	c2.168-1.934,3.019-3.468,2.552-4.602c-0.434-1.067-1.968-1.567-4.603-1.501c-14.406,0.5-30.23,3.852-47.472,10.055
	c-15.685,5.648-29.391,12.542-41.121,20.679c1.044-5.858,1.796-11.759,2.253-17.705C318.766,73.476,337.726,61.381,356.322,46.821z"
	/>
</svg>
