<?xml version="1.0" encoding="utf-8"?>
<!-- Generator: Adobe Illustrator 16.0.0, SVG Export Plug-In . SVG Version: 6.00 Build 0)  -->
<!DOCTYPE svg PUBLIC "-//W3C//DTD SVG 1.1//EN" "http://www.w3.org/Graphics/SVG/1.1/DTD/svg11.dtd">
<svg version="1.1" id="图层_1" xmlns="http://www.w3.org/2000/svg" xmlns:xlink="http://www.w3.org/1999/xlink" x="0px" y="0px"
	 width="230px" height="178px" viewBox="0 0 230 178" enable-background="new 0 0 230 178" xml:space="preserve">
<path d="M227.254,99.73c-1.896-3.693-4.774-6.105-8.635-7.237c-0.746-0.212-1.472-0.351-2.186-0.449
	c-2.804-2.265-5.8-3.225-8.994-2.845c-0.438,0.048-0.867,0.117-1.289,0.203c-1.961-0.52-3.895-0.635-5.799-0.303
	c-2.196,0.366-4.043,1.231-5.541,2.595c-1.631,1.464-2.762,3.294-3.394,5.491c-0.665,2.195-0.749,4.475-0.25,6.838
	c0.466,2.129,1.598,3.943,3.395,5.439c0.068,0.059,0.142,0.109,0.211,0.166c-7.785,0.051-16.169-1.883-25.168-5.855
	c-8.645-3.777-15.389-8.24-20.275-13.374c0.871-1.055,1.694-2.196,2.456-3.447c2.131-3.427,3.512-6.888,4.144-10.382
	c1.364,0.066,2.628-0.266,3.793-0.999c1.897-1.198,3.411-3.194,4.542-5.989c1.165-2.895,1.664-6.156,1.498-9.783
	c-0.467-9.816-2.995-17.786-7.587-23.908c-4.626-6.189-11.663-10.948-21.113-14.275l-0.649-0.2l-3.494-1.497
	c-0.798-0.566-1.363-1.481-1.696-2.746c-0.565-2.196-0.316-5.34,0.749-9.434l0.698-3.494c0.066-0.765-0.116-1.481-0.549-2.146
	c-0.999-1.531-2.829-2.096-5.491-1.697c-2.861,0.466-6.006,1.946-9.434,4.442c-8.584,6.256-15.24,15.989-19.965,29.199
	c-3.228,9.018-5.407,19.15-6.539,30.397c-0.133,1.364-0.399,2.413-0.798,3.145c-0.399,0.765-1.115,1.464-2.146,2.096l-0.799,0.499
	c-1.53,0.965-2.412,2.18-2.645,3.644c-0.233,1.497,0.2,3.311,1.297,5.44c1.032,1.963,2.845,4.109,5.441,6.439
	c2.635,2.384,5.668,4.538,9.073,6.479c-6.094,3.815-13.172,7.034-21.252,9.643c-12.414,4.019-25.343,6.117-38.783,6.319
	c0.51-2.224,0.532-4.43,0.051-6.618c-0.699-3.095-2.313-5.656-4.842-7.687c-2.662-2.13-5.856-3.278-9.583-3.444
	c-3.697-0.148-7.205,0.766-10.527,2.727c-0.268,0.088-0.537,0.169-0.804,0.269c-5.405,2.004-9.267,6.136-11.596,12.38
	c-0.472,0.853-0.912,1.737-1.281,2.693c-1.131,2.995-1.63,6.09-1.498,9.284c0.366,6.489,3.195,11.646,8.485,15.474
	c5.291,3.859,12.345,5.822,21.163,5.889c7.687,0.067,15.839-1.214,24.458-3.843c8.652-2.695,17.037-6.538,25.156-11.53
	c8.419-5.19,15.972-11.23,22.661-18.118c2.529-2.604,4.88-5.277,7.054-8.02c-1.115,16.043,0.737,31.18,5.574,45.405
	c3.361,9.815,8.518,18.084,15.473,24.807c6.488,6.256,12.295,9.2,17.42,8.834c2.895-0.199,5.141-1.348,6.738-3.443
	c1.36-1.795,1.977-3.917,1.852-6.366c1.08-0.886,1.998-1.79,2.74-2.718c2.662-3.063,4.758-6.889,6.289-11.48
	c1.664-4.958,2.496-10.332,2.496-16.122l-0.25-5.591c-0.563-6.46-2.303-12.393-5.21-17.801l0.161,0.111
	c5.664,4.422,11.174,7.792,16.529,10.104c7.72,3.36,15.156,5.224,22.311,5.59c7.121,0.366,13.045-0.799,17.77-3.494
	c2.795-1.598,5.091-3.71,6.888-6.339c1.797-2.662,2.911-5.64,3.345-8.935C229.566,106.469,228.951,102.992,227.254,99.73z
	 M120.89,102.525l0.038-3.124c1.662,0.238,3.259,0.366,4.802,0.405c-0.473,0.431-0.939,0.884-1.396,1.371
	c-1.271,1.335-2.422,2.802-3.46,4.394C120.871,104.731,120.875,103.724,120.89,102.525z M145.346,96.371
	c-0.678-0.277-1.361-0.511-2.05-0.71c0.352-0.211,0.694-0.438,1.035-0.668L145.346,96.371z"/>
</svg>
