<?xml version="1.0" encoding="utf-8"?>
<!-- Generator: Adobe Illustrator 16.0.0, SVG Export Plug-In . SVG Version: 6.00 Build 0)  -->
<!DOCTYPE svg PUBLIC "-//W3C//DTD SVG 1.1//EN" "http://www.w3.org/Graphics/SVG/1.1/DTD/svg11.dtd">
<svg version="1.1" id="图层_1" xmlns="http://www.w3.org/2000/svg" xmlns:xlink="http://www.w3.org/1999/xlink" x="0px" y="0px"
	 width="581px" height="425px" viewBox="0 0 581 425" enable-background="new 0 0 581 425" xml:space="preserve">
<path d="M579.85,307.325c-1.7-5.535-4.634-9.836-8.802-12.903c-6.135-4.535-16.088-7.836-29.858-9.902
	c-16.637-2.534-31.725-1.051-45.262,4.451c2.635-3.468,4.535-8.103,5.702-13.904c0.8-3.967,1.2-7.985,1.2-12.053
	c0-3.834-1.25-7.269-3.751-10.303c-2.634-3.234-5.835-4.852-9.603-4.852c-3.734,0-6.969,1.067-9.702,3.201
	c-2.301,1.801-3.818,3.918-4.552,6.352c-0.3,1.033-0.717,3.117-1.25,6.252c-0.5,2.734-0.834,4.867-1,6.401l-1.501,10.003
	c-1.3,7.135-3.617,12.236-6.951,15.304c-4.401,4.101-14.087,4.667-29.058,1.7l-9.203-1.851c-5.801-1.167-10.436-1.917-13.903-2.251
	c-5.635-0.566-11.187-0.482-16.654,0.25c-7.035,0.9-12.637,3.651-16.804,8.253c-3.734,4.134-5.352,8.452-4.852,12.953
	c0.366,3.368,2.017,6.853,4.951,10.452c1.867,2.301,4.468,4.818,7.802,7.553c2.134,1.733,3.551,2.967,4.251,3.701
	c2.134,2.2,3.534,4.817,4.201,7.852c0.7,3.102,0.15,6.186-1.65,9.252c-1.467,2.468-3.167,4.201-5.102,5.201
	c-1.733,0.867-4.65,0.918-8.752,0.15c-4.501-0.867-8.436-2.434-11.803-4.701c-2.501-1.7-3.801-3.9-3.901-6.602
	c-0.033-1.033,0.417-3.817,1.351-8.352l1.25-5.451c1.134-5.77,0.867-11.02-0.8-15.755c-1.268-3.601-3.435-7.085-6.502-10.452
	c-3.834-4.135-8.085-7.369-12.753-9.703c-2.534-1.233-5.901-2.434-10.103-3.601l-3.751-0.95c-1.567-0.566-2.101-3.084-1.601-7.553
	l1-9.052c0.434-4.435,0.7-10.086,0.801-16.954c0.066-3.734,0.25-8.252,0.55-13.554c0.4-7.436,0.867-13.454,1.4-18.055
	c0.5-4.201,1.233-7.318,2.2-9.353c0.601-1.301,1.484-2.384,2.651-3.251c2.667-2,6.685-2.867,12.053-2.601
	c5.001,0.233,11.569,1.451,19.705,3.65c3.367,0.9,5.818,1.668,7.352,2.301c3.668,1.567,6.452,2.535,8.353,2.901l12.203-0.4
	c6.702-1.366,11.62-4.251,14.754-8.652c2.067-2.868,3.301-6.302,3.701-10.303c0.399-3.768-0.733-6.885-3.401-9.353
	c-1.066-1-3.184-2.284-6.352-3.851c-5.102-2.467-7.886-4.685-8.353-6.652c-0.399-1.733,0.7-3.817,3.302-6.251
	c1.2-1.134,3.134-2.634,5.801-4.501c2.001-1.367,6.835-4.101,14.504-8.202c6.568-3.501,12.17-6.418,16.805-8.752
	c4.001-2.034,8.636-4.218,13.903-6.552c4.268-1.934,8.436-4.034,12.503-6.301l16.204-9.753c5.401-3.367,9.503-4.734,12.304-4.101
	c1.167,0.267,2.834,1.167,5.001,2.7c1.167,0.8,2.567,1.851,4.201,3.151l4.001,3.051l5.952,4.351c2.5,1.701,4.935,2.384,7.302,2.051
	c2.434-0.333,5.018-1.75,7.752-4.251c2-1.867,3.001-3.918,3.001-6.152c-0.034-2.934-1.4-6.385-4.102-10.353
	c-2.134-3.067-4.567-5.835-7.302-8.302c-4.168-3.734-9.819-6.568-16.954-8.502l-4.596-0.866c4.197-0.101,8.51,0.341,12.947,1.366
	c5.868,1.333,12.12,3.718,18.755,7.152c4.302,2.234,7.919,3.151,10.853,2.75c1.501-0.167,3.085-0.85,4.752-2.05
	c1.9-1.4,3.351-3.151,4.351-5.251c0.834-1.867,1.2-3.584,1.101-5.151c-0.134-1.934-0.601-4.001-1.4-6.202
	c-0.733-1.934-1.617-3.684-2.65-5.251c-2.101-3.101-4.985-5.552-8.652-7.352c-3.734-1.867-8.853-3.451-15.354-4.751
	c-8.936-1.734-18.904-1.9-29.907-0.5c8.902-4.268,22.155-4.384,39.76-0.35c9.103,2.067,15.638,2.184,19.605,0.35
	c1.767-0.833,3.451-2.201,5.051-4.101c1.701-2.034,2.685-4.051,2.951-6.052c0.267-2.2,0.017-4.317-0.75-6.352
	c-1.167-3.134-3.635-6.068-7.402-8.802c-3.567-2.601-6.951-4.118-10.152-4.551l-13.054-0.5c-8.902,0.367-17.904,2.051-27.007,5.051
	c-8.535,2.834-15.688,6.252-21.455,10.253c-2.551,1.729-5.394,4.126-8.521,7.179c0.639-2.054,1.37-4.083,2.22-6.079
	c1.834-4.301,3.801-7.385,5.901-9.252c2.167-1.9,4.868-3.317,8.103-4.251c2.5-0.733,7.285-1.667,14.354-2.801
	c3.4-0.534,6.635-1.851,9.702-3.951c3.001-2.067,5.535-4.634,7.603-7.702c1.267-1.9,2.134-4.035,2.601-6.402
	c0.467-2.267,0.467-4.151,0-5.651c-1.268-4.201-4.585-7.369-9.953-9.502c-4.901-1.967-9.819-2.534-14.754-1.701
	c-4.201,0.734-9.769,3.185-16.704,7.352c-5.034,3.001-9.402,6.001-13.104,9.002c-3.167,2.567-7.068,7.102-11.703,13.604
	c-5.101,7.168-8.019,12.72-8.752,16.654c-0.4,2.3-0.684,4.868-0.851,7.702l-0.199,8.002l0.199,6.001l0.013,1.783
	c-0.502-1.869-1.138-3.649-1.913-5.333c-1.667-3.634-3.851-6.635-6.552-9.002c-2.4-2.101-5.251-3.667-8.552-4.701
	c-3.134-1-6.118-1.351-8.952-1.05c-4.635,0.5-8.619,2.317-11.953,5.451c-3.001,2.834-4.734,5.952-5.201,9.353
	c-0.301,2.167,0.133,4.201,1.3,6.102c1.367,2.201,4.151,5.018,8.353,8.452c4.301,3.501,8.135,7.602,11.503,12.303
	c2.467,3.434,4.401,6.752,5.802,9.953c1,2.301,1.583,3.951,1.75,4.951c0.233,1.634-0.083,3.301-0.95,5.001
	c-1.434,2.701-6.368,6.185-14.804,10.453c-14.137,7.335-23.656,12.787-28.558,16.354c-10.536,7.702-16.004,15.538-16.404,23.506
	c-0.1,2.101,0.184,4.185,0.851,6.251c1.3,4.101,3.884,7.335,7.752,9.703c4.034,2.467,6.868,4.384,8.502,5.751
	c1.9,1.634,2.817,3.034,2.751,4.201c-0.101,1.6-1.551,3.384-4.352,5.351c-2.801,1.934-7.469,0.884-14.003-3.15
	c-3.368-2.034-9.103-3.668-17.205-4.901l-3.551-0.5c-1.4-0.267-2.384-0.684-2.951-1.25c-0.399-0.4-0.75-1.617-1.05-3.651
	c-0.267-1.934-0.4-4.001-0.4-6.202l0.05-8.502c0-3.768-0.133-7.452-0.399-11.053c-0.233-3.534-1.167-8.636-2.801-15.304
	c-1.367-5.468-2.4-9.103-3.101-10.903l-4.352-12.903c-1.634-4.135-4.618-10.736-8.952-19.805c-1.067-2.268-3.768-5.368-8.103-9.303
	c-3.2-2.867-6.718-5.701-10.553-8.502c-4.4-3.234-8.652-4.535-12.753-3.901l-4.201,0.5l-2.7,0.35l-2.551-0.25
	c-3.901-1.601-7.402-2.667-10.502-3.201c-2-0.333-3.384-1.033-4.151-2.101c-0.467-0.633-0.767-1.6-0.9-2.9l-0.85-5.802
	c-0.634-3.567-1.367-6.401-2.201-8.502c-1.467-3.601-7.369-6.702-17.705-9.303c-3.435-0.867-7.419-1.4-11.953-1.6
	c-5.802-0.3-11.687,0.017-17.655,0.95c-6.735,1.067-12.22,2.317-16.454,3.751c-4.034,1.4-6.485,2.834-7.352,4.301
	c-1,1.667-0.967,4.317,0.1,7.952l2.101,7.152c0.5,1.801,0.75,3.034,0.75,3.701c0,0.6-0.283,1.284-0.85,2.05l-2.851,3.251l-1.45,1.25
	l-1.351-0.3c-4.935-2.201-9.386-2.934-13.354-2.201c-4.301,0.767-9.186,3.484-14.654,8.152
	c-5.801,5.001-10.203,10.553-13.203,16.654c-3.701,7.602-7.469,21.489-11.303,41.661l-1.95,9.553
	c-2.301,10.736-3.201,17.854-2.701,21.355l1.5,7.702l1.65,8.302c0.167,1.367,0.134,2.284-0.1,2.751c-0.4,0.8-1.5,1.383-3.301,1.75
	c-3.867,0.8-6.818,1.583-8.852,2.351c-4.168,1.634-8.269,4.167-12.303,7.602c-1.534,1.301-4.101,3.834-7.702,7.602l-8.002,8.354
	c-3.067,2.8-5.785,4.384-8.152,4.75c-4.001,0.634-8.202-1.184-12.604-5.451c-4.368-4.201-7.052-8.969-8.052-14.303
	c-0.534-2.935-0.817-5.052-0.851-6.353c0-1.634,0.333-2.784,1-3.451c1.233-1.3,3.067-1.75,5.501-1.35
	c4.101,0.667,7.102,0.35,9.002-0.951c2.134-1.5,3.751-4.684,4.852-9.552c0.767-3.434,1.217-7.802,1.35-13.104
	c0.1-4.301-0.017-8.719-0.35-13.253l-0.3-8.552l-0.15-8.302c0.066-6.202,0.683-12.403,1.85-18.605
	c1.467-7.702,3.651-14.304,6.552-19.805c3.067-5.835,8.302-11.52,15.704-17.054c3.034-2.268,8.052-5.452,15.054-9.553l5.952-3.651
	c1.9-1.3,3.968-2.934,6.202-4.901c3.268-2.9,5.435-5.968,6.502-9.202c0.867-2.501,1.017-4.885,0.45-7.152
	c-0.667-2.768-2.434-4.852-5.301-6.252c-3.201-1.567-7.102-2.284-11.703-2.15c-4.834,0.133-9.569,1.217-14.204,3.251
	c-4.634,2.067-8.585,5.018-11.853,8.852c-2.5,2.934-4.401,6.118-5.701,9.553c-0.2-1.801-0.3-3.568-0.3-5.302
	c0-6.201,1.217-12.403,3.651-18.604c1.2-3.067,3.651-7.985,7.352-14.754l2.551-4.551l2.25-4.401c1.333-2.934,2-6.035,2-9.303
	c0-1.967-0.55-4.184-1.65-6.651c-1.034-2.367-2.667-4.468-4.901-6.302c-1.8-1.5-3.667-2.601-5.602-3.301
	c-3.501-1.234-6.985-0.85-10.453,1.15c-3.467,2-6.652,5.501-9.552,10.502c-2.268,3.901-3.868,7.819-4.801,11.753
	c-0.567,2.334-1.117,5.968-1.65,10.903l-1,8.202c-0.5,3.201-0.784,6.936-0.85,11.203l0.05,9.002l0.05,2.55
	c-0.9-0.867-1.967-2.684-3.201-5.451c-0.633-1.434-1.067-3.601-1.3-6.502l-0.55-9.052c-0.434-7.435-1-13.903-1.701-19.405
	c-1-7.569-2.984-13.153-5.952-16.754c-2-2.467-4.784-4.201-8.352-5.201c-2.534-0.734-5.334-0.284-8.402,1.35
	c-3.101,1.667-5.601,4.068-7.501,7.202c-3.001,4.901-4.501,9.519-4.501,13.854c0,4.067,1.017,8.635,3.051,13.703
	c8.802,21.772,13.753,35.226,14.854,40.361c-1.367-1.867-3.118-5.168-5.251-9.903c-2.234-4.935-4.118-9.769-5.651-14.504
	c-3.401-10.369-7.702-17.438-12.903-21.205c-1.2-0.9-2.768-1.5-4.701-1.801c-1.9-0.333-3.734-0.316-5.501,0.05
	c-3.701,0.8-6.418,2.601-8.152,5.401c-3.834,6.401-3.151,15.287,2.051,26.657c3.167,6.869,7.285,14.037,12.353,21.506
	c2.814,4.154,5.365,7.532,7.654,10.143c-1.553-1.236-3.3-2.745-5.253-4.542c-8.202-7.635-14.07-11.453-17.605-11.453
	c-2.167,0-3.951,0.4-5.351,1.2c-1.834,1.034-3.568,2.934-5.201,5.701c-0.9,1.534-1.484,3.251-1.75,5.151
	c-0.3,1.934-0.2,3.785,0.3,5.552c1.434,5.401,5.285,9.886,11.553,13.453c5.901,3.301,11.986,7.436,18.254,12.403
	c5.968,4.735,10.136,8.619,12.503,11.653c2,2.567,4.984,6.084,8.952,10.553l8.752,9.752c1.333,1.5,2.634,3.784,3.901,6.852
	l2.951,8.052l1.9,4.801c0.934,2.101,1.301,4.034,1.101,5.801c-0.2,1.5-0.733,2.534-1.601,3.101c-0.867,0.567-2.217,0.767-4.051,0.6
	c-1.834-0.133-3.718-0.583-5.651-1.351c-2.634-1.067-5.352-1.534-8.152-1.4c-3.468,0.1-5.935,1.217-7.402,3.351
	c-1.767,2.567-2.484,5.751-2.15,9.552c0.467,5.268,2.9,11.97,7.302,20.105c4.468,8.302,9.486,15.171,15.054,20.605
	c5.368,5.268,10.97,8.919,16.804,10.952c6.902,2.4,12.204,3.385,15.904,2.951c5.035-0.633,9.853-3.734,14.454-9.303
	c9.069-11.002,17.738-18.021,26.007-21.055c3.801-1.4,6.335-2.051,7.602-1.951c0.867,0.066,1.567,0.684,2.101,1.851
	c0.667,1.501,1.684,3.118,3.051,4.852l2.15,2.4c0.767,0.634,1.817,1.117,3.151,1.45l3.651,0.7c2.868,0.467,4.852,0.983,5.952,1.551
	c0.533,0.233,1.15,0.917,1.851,2.05c0.667,1.067,1.133,2.084,1.4,3.051l2.801,9.253c1.7,5.368,2.851,8.636,3.451,9.803
	c0.6,1.233,1.333,4.067,2.201,8.502l1.9,10.452c0.467,2.334,1.4,5.318,2.801,8.953c1.167,3.168,2.234,5.685,3.201,7.552l3.851,6.452
	l3.701,6.102l3.601,5.751c4.101,7.103,5.835,11.319,5.202,12.653c-0.333,0.7-1.084,1.2-2.251,1.5l-4.651,0.451l-6.952-0.4
	c-5.968-0.467-11.669-0.518-17.104-0.15c-7.969,0.533-14.837,1.884-20.605,4.051c-7.002,2.668-12.187,5.686-15.554,9.053
	c-2.667,2.667-4.534,5.951-5.602,9.853c-0.633,2.3-0.566,4.618,0.2,6.952c0.5,1.533,1.367,3.25,2.601,5.15l1.901,3.451
	c0.934,2.467,0.467,4.051-1.4,4.752c-1.667,0.6-3.484,0.016-5.452-1.751c-1.8-1.634-3.801-4.335-6.001-8.103
	c-1.867-3.2-3.067-5.801-3.601-7.802c-0.433-1.634-0.533-3.384-0.3-5.251l0.6-3.201l0.7-3.15c0.3-1.601,0.35-2.768,0.15-3.501
	c-0.3-1.101-1.167-2.185-2.601-3.251l-3.751-3.051c-1.333-1.367-2.017-2.635-2.051-3.801c-0.066-1.934,1.284-3.901,4.051-5.902
	l9.402-7.551c5.135-4.402,8.369-7.703,9.703-9.903c2.067-3.435,3.234-6.852,3.501-10.253c0.4-4.601-1.084-8.335-4.451-11.203
	c-2.334-2-4.418-3.483-6.252-4.451c-2.834-1.533-5.518-2.184-8.052-1.949c-1.934,0.166-3.935,0.883-6.001,2.15
	c-2.101,1.267-4.001,2.917-5.702,4.951c-0.9,1.133-2.351,3.351-4.351,6.651l-5.001,8.402c-2,3.134-3.851,5.351-5.551,6.651
	c-2.734,2.134-5.868,3.784-9.402,4.951l-10.003,2.501c-7.602,1.733-13.67,3.317-18.205,4.751
	c-8.302,2.601-14.987,5.518-20.055,8.752c-5.735,3.701-10.636,7.486-14.704,11.354c-4.035,3.834-7.502,8.002-10.403,12.503
	c-2.567,3.935-3.984,8.069-4.251,12.403c-0.2,3.434,0.283,6.519,1.45,9.252c1.167,2.768,3.134,5.085,5.902,6.952
	c3,2.001,6.018,2.817,9.052,2.45c3.401-0.399,6.218-1.566,8.452-3.5c2.067-1.834,4.051-4.734,5.952-8.703
	c3.634-7.435,7.235-13.203,10.803-17.304c3.213-3.681,6.854-6.692,10.896-9.077c-3.462,3.282-6.365,6.442-8.696,9.477
	c-4.901,6.436-8.635,13.754-11.203,21.956c-2.967,9.603-3.718,17.771-2.25,24.507c0.9,4.134,2.451,7.252,4.651,9.352
	c1.5,1.4,3.568,2.501,6.202,3.302c2.801,0.866,5.385,1.1,7.752,0.7c3.201-0.501,5.552-2.117,7.052-4.852
	c1.4-2.501,2.15-6.635,2.25-12.403c0.133-8.269,0.7-14.687,1.7-19.255c0.444-2.063,0.999-4.022,1.654-5.89
	c-2.932,11.951-3.001,23.251-0.204,33.896c2.067,7.836,4.451,13.82,7.152,17.955c2.634,4.101,5.501,6.234,8.602,6.401
	c2.834,0.167,5.235-0.434,7.202-1.801c2.901-2,4.535-5.534,4.901-10.603c0.024-0.342,0.026-0.686,0.029-1.029
	c1.655,1.034,3.345,1.767,5.072,2.18l6.751,0.45c2.567-0.133,4.451-0.9,5.651-2.301c1.134-1.267,2.018-3.484,2.651-6.651
	c0.333-1.7,0.267-3.234-0.2-4.602c-0.4-1.134-1.267-2.65-2.601-4.551l-3.651-5.352c-1.601-2.567-2.984-5.269-4.151-8.103
	c-2.101-5.067-3.151-9.686-3.151-13.854c-0.018-2.264,0.284-4.459,0.886-6.589c1.239,0.414,2.775,1.506,4.616,3.288
	c2.9,2.801,4.601,6.035,5.101,9.703c0.634,4.567,2.267,8.469,4.901,11.703c2.667,3.268,5.935,5.352,9.802,6.252
	c5.268,1.266,10.203,1.717,14.804,1.35c6.035-0.434,9.669-2.317,10.903-5.651c0.934-2.435,1.167-5.118,0.7-8.052
	c-0.3-1.801-1.067-4.451-2.301-7.952l-2.4-6.603c-1.267-4.668-1.75-8.151-1.451-10.452c0.434-3.667,2.518-7.318,6.252-10.952
	c3.901-3.802,10.502-6.853,19.805-9.152c9.736-2.401,17.471-2.568,23.206-0.501c3.435,1.233,6.019,2.501,7.752,3.802
	c1.534,1.133,2.851,2.667,3.951,4.601l1.75,4.001c0.667,1.867,1.117,3.501,1.35,4.901c2.134,11.27,3.368,19.405,3.701,24.406
	l0.1,8.603c0.167,4.101,0.717,7.318,1.65,9.652c1.167,3.034,3.351,5.901,6.552,8.602c2.901,2.501,5.968,4.269,9.202,5.302
	c2.401,0.8,5.651,1.367,9.752,1.7l11.103,0.9c6.402,0.233,14.454-0.583,24.156-2.45l9.903-2.001l37.859-8.252l5.901-1.4
	c4.835-1.233,8.353-2.734,10.553-4.501c2.834-2.334,5.285-6.252,7.353-11.753c2.434-6.436,3.351-12.554,2.75-18.355l-0.8-6.401
	c-0.434-2.267-1.184-4.101-2.251-5.501c-1.467-1.801-3.934-3.518-7.401-5.151c-1.334-0.601-2.601-1.768-3.801-3.501l-2.201-3.65
	c-0.8-1.268-1.851-4.652-3.15-10.153c-0.733-2.901-1.15-4.751-1.251-5.552c-0.5-3.601-0.55-6.651-0.149-9.152
	c0.333-2.033,0.884-3.351,1.65-3.951c1.066-0.833,2.917-1.083,5.552-0.75c2.934,0.4,7.085,2.751,12.453,7.053
	c4.101,3.301,6.818,7.602,8.151,12.902c0.768,3.135,1.051,6.952,0.851,11.453l-0.15,4.252c-0.333,7.401,0.95,12.786,3.852,16.153
	c2.634,3.034,6.519,5.769,11.652,8.202c6.336,3.001,12.771,4.117,19.306,3.352c8.102-0.867,13.887-3.568,17.354-8.103
	c2.467-3.268,3.301-7.368,2.5-12.304c-0.333-2.066-1.133-4.534-2.4-7.401l-3.351-6.952c-2.034-4.234-3.218-6.951-3.551-8.152
	c-0.767-2.566-0.483-4.451,0.85-5.65c2.734-2.501,7.202-3.635,13.404-3.401c6.067,0.233,12.52,1.733,19.354,4.501
	c3.935,1.601,7.785,3.551,11.553,5.852l7.202,4.651c1.334,0.899,3.301,1.967,5.901,3.2l5.752,2.852
	c13.003,7.135,20.688,13.42,23.056,18.854c1.134,2.567,2.051,5.919,2.751,10.053c0.434,2.634,0.684,4.734,0.75,6.302
	c0.167,3.101,1.101,5.734,2.801,7.902c2,2.5,4.651,3.701,7.952,3.601c1.1-0.034,2.2-0.317,3.301-0.851
	c1.134-0.566,2.101-1.334,2.9-2.301c1.734-2.133,2.984-4.984,3.751-8.552c0.767-3.667,0.851-7.202,0.25-10.603
	c-0.778-4.418-2.19-8.448-4.229-12.097c0.739,0.773,1.515,1.654,2.329,2.644c2.968,3.635,5.385,7.619,7.252,11.953l2.601,7.002
	c1.467,4.334,2.734,7.202,3.801,8.603c1.734,2.2,4.102,3.034,7.103,2.501c1.6-0.301,3.134-1.184,4.601-2.65
	c1.634-1.635,2.751-3.618,3.352-5.952c0.666-2.501,1-5.552,1-9.152c0-7.969-1.734-14.87-5.201-20.706
	c-3.568-6.067-8.619-11.068-15.154-15.004c2.567,0.968,5.234,2.551,8.002,4.752c3.135,2.567,6.186,5.801,9.152,9.702
	c1.134,1.501,2.634,4.151,4.501,7.952c1.701,3.468,3.268,6.135,4.701,8.002c1.935,2.501,3.901,4.018,5.902,4.551
	c2.533,0.701,5.435,0.067,8.702-1.9c1.767-1.066,3.334-2.434,4.701-4.101c1.4-1.733,2.283-3.435,2.65-5.101
	c0.634-3.002,0.15-6.919-1.45-11.754c-1.801-5.234-4.451-9.919-7.952-14.053c-3.668-4.269-10.003-8.503-19.005-12.704
	c-4.802-2.242-9.199-3.891-13.195-4.948c1.333,0.171,2.712,0.385,4.143,0.647c6.436,1.167,12.504,3.034,18.205,5.601
	c5.501,2.502,10.103,3.918,13.804,4.252c2.467,0.233,5.435-0.051,8.902-0.851c2.667-0.601,4.734-2.233,6.201-4.901
	c0.801-1.4,1.301-2.967,1.501-4.701C580.316,309.859,580.217,308.492,579.85,307.325z"/>
</svg>
