<?xml version="1.0" encoding="utf-8"?>
<!-- Generator: Adobe Illustrator 16.0.0, SVG Export Plug-In . SVG Version: 6.00 Build 0)  -->
<!DOCTYPE svg PUBLIC "-//W3C//DTD SVG 1.1//EN" "http://www.w3.org/Graphics/SVG/1.1/DTD/svg11.dtd">
<svg version="1.1" id="图层_1" xmlns="http://www.w3.org/2000/svg" xmlns:xlink="http://www.w3.org/1999/xlink" x="0px" y="0px"
	 width="427px" height="205px" viewBox="0 0 427 205" enable-background="new 0 0 427 205" xml:space="preserve">
<path d="M412.438,109.909c-29.231,15.216-59.18,23.741-89.845,25.577c-7.47,0.448-14.829,0.494-22.077,0.138
	c12.415-5.45,22.927-12.059,31.486-19.858c7.362-6.756,12.907-14.036,16.678-21.827c2.281,1.063,4.726,2.051,7.348,2.957
	c7.107,2.47,14.516,4.055,22.224,4.755c7.875,0.734,14.949,0.4,21.223-1.001c6.773-1.468,11.846-4.037,15.216-7.708
	c6.607-7.141,8.742-15.983,6.407-26.528c-2.136-9.61-6.724-16.751-13.765-21.422c-0.901-0.601-1.502-0.884-1.802-0.851
	c-0.301,0-0.518,0.3-0.651,0.901c-2.102,9.143-9.009,16.4-20.722,21.773c-9.838,4.502-20.141,6.321-30.905,5.477
	c-0.571-4.319-2.245-7.603-5.021-9.849c0.651-1.932,1.136-3.958,1.44-6.089c0.768-5.306,0.351-10.194-1.251-14.666
	c-0.808-2.221-1.867-4.333-3.176-6.339c0.28-0.871,0.9-2.106,1.874-3.721c1.201-2.002,2.503-3.888,3.904-5.656
	c1.168-1.468,1.535-2.419,1.102-2.853c-0.435-0.434-1.719-0.417-3.854,0.05c-6.507,1.38-11.437,1.654-14.804,0.833
	c-4.831-3.125-10.278-5.367-16.361-6.699c-3.405-1.816-7.135-3.52-11.229-5.096c-15.049-5.773-30.516-9.477-46.398-11.112
	c-15.783-1.635-31.117-1.135-45.999,1.501c-15.583,2.803-30.099,7.958-43.546,15.466c-13.548,7.575-24.859,16.935-33.936,28.08
	l-4.705,5.556c-2.755,3.367-4.592,5.945-5.536,7.758c-4.403,1.417-8.75,3.171-13.034,5.306
	c-11.646,5.773-21.189,13.698-28.63,23.775c-3.173,4.294-5.694,8.61-7.566,12.948c-8.133-0.34-13.755-4.62-16.86-12.848
	c-1.368-3.604-2.002-7.492-1.902-11.663c0.134-4.038,0.918-7.591,2.353-10.661c1.335-2.736,0.417-3.57-2.753-2.502
	c-7.141,2.436-14.248,5.806-21.322,10.11c-6.982,4.285-13.018,8.936-18.128,13.945c-7.862,2.422-13.203,6.88-16.008,13.384
	c-2.87,6.574-2.636,13.847,0.701,21.823c0.1,0.243,0.204,0.424,0.31,0.563c0.819,4.581,2.33,8.004,4.545,10.249
	c6.307,6.439,17.135,10.027,32.484,10.762c11.289,0.519,24.153-0.505,38.564-3.045c1.327,2.758,2.865,5.622,4.631,8.6
	c7.508,12.681,14.982,20.439,22.424,23.275c0.601,0.233,1.234-0.033,1.902-0.801l2.502-3.654c1.719-2.67,3.448-4.955,5.188-6.883
	c0.162,0.461,0.344,0.945,0.569,1.478c0.734,1.669,1.518,3.103,2.353,4.304c0.834,1.202,1.668,1.92,2.502,2.152
	c0.734,0.201,2.453,0.217,5.155,0.051c10.244-0.567,20.271-3.17,30.082-7.809c8.242-3.904,14.548-8.242,18.92-13.014
	c0.598-0.675,1.229-1.505,1.891-2.475c7.35,2.169,15.274,3.75,23.786,4.727l25.256,0.881c6.325,14.192,16.11,25.357,29.401,33.456
	c19.153,11.646,41.794,14.999,67.922,10.061c9.272-1.734,18.166-4.586,26.693-8.526c4.203,0.685,8.667,0.383,13.398-0.934
	c5.072-1.401,9.66-3.721,13.765-6.957c3.804-2.971,6.991-6.674,9.561-11.112c2.414-4.134,3.794-8.089,4.161-11.868
	c10.224-12.184,18.165-26.26,23.818-42.238c1.034-2.903,1.401-4.605,1.101-5.105C415.257,108.775,414.239,109.008,412.438,109.909z"
	/>
</svg>
