<?xml version="1.0" encoding="utf-8"?>
<!-- Generator: Adobe Illustrator 16.0.0, SVG Export Plug-In . SVG Version: 6.00 Build 0)  -->
<!DOCTYPE svg PUBLIC "-//W3C//DTD SVG 1.1//EN" "http://www.w3.org/Graphics/SVG/1.1/DTD/svg11.dtd">
<svg version="1.1" id="图层_1" xmlns="http://www.w3.org/2000/svg" xmlns:xlink="http://www.w3.org/1999/xlink" x="0px" y="0px"
	 width="372px" height="358px" viewBox="0 0 372 358" enable-background="new 0 0 372 358" xml:space="preserve">
<path d="M370.495,259.719c-0.218-4.813-0.858-8.134-1.916-9.985c0.642-6.455,0.915-12.224,0.817-17.296
	c-0.2-11.426-1.966-20.203-5.297-26.332c-4.463-8.16-11.774-18.07-21.935-29.729c-6.595-7.595-16.205-17.871-28.829-30.829
	L293.5,125.712c-6.996-7.128-11.676-12.508-14.041-16.139c-0.732-1.132-1.516-2.748-2.348-4.847l-2.199-5.446l-3.747-8.395
	c-1.226-2.36-2.558-3.978-3.998-4.864c2.804-2.537,4.809-4.798,5.997-6.778c0.6-1,0.732-1.666,0.399-1.999l-1.725-0.157
	l-2.872-0.942c-1.05-0.461-1.868-0.901-2.466-1.323c-0.507-1.598-1.323-3.32-2.479-5.177c0.057-1.012,0.188-2.27,0.397-3.793
	c0.333-2.365,0.633-3.947,0.898-4.747c0.834-0.5,2.066-1.066,3.698-1.699c1.499-0.605,2.642-0.959,3.467-1.09
	c0.53,0.755,1.139,1.779,1.829,3.089l2.599,5.346c0.366,0.699,0.699,1.083,0.999,1.149c0.333,0.067,0.85-0.133,1.549-0.6
	c3.797-2.531,7.562-7.561,11.292-15.089c3.631-7.328,4.979-12.208,4.048-14.64c-2.665-7.028-13.291-14.457-31.878-22.285
	c-18.154-7.628-32.978-11.208-44.47-10.742c-5.096,0.566-11.957,3.831-20.585,9.793c-8.894,6.129-14.357,11.625-16.389,16.488
	c-0.189,0.515-0.558,2.639-1.099,6.319l-6.545-0.723c-3.184-0.674-5.623-1.449-7.343-2.32c-3.211-9.447-5.114-17.205-5.698-23.262
	c-0.133-1.333-1.666-3.048-4.597-5.146c-1.566-1.166-4.014-2.698-7.345-4.597c-1.066-0.566-5.546-0.916-13.441-1.049
	c-8.228-0.133-13.507,0.167-15.839,0.899c-1.799,0.766-4.664,5.03-8.594,12.791c-3.244,6.392-6.537,13.74-9.876,22.028
	c-4.734,3.057-9.34,6.889-13.807,11.549c-6.875,7.145-13.298,16.024-19.28,26.604l-6.652,0.926
	c-3.631,0.733-5.729,1.349-6.295,1.849c-1.099,1-2.865,4.23-5.296,9.693c-2.498,5.629-3.647,9.21-3.448,10.742
	c0.167,1.399,2.465,4.264,6.896,8.594c0.037,0.036,0.07,0.066,0.106,0.102c-2.082,5.184-3.935,10.941-5.552,17.286
	c-1.237,4.837-2.523,10.707-3.855,17.585c-0.954,0.39-3.108,1.75-6.488,4.1c-3.797,2.665-5.846,4.463-6.146,5.396
	c-0.6,1.766-1.032,5.58-1.299,11.442c-0.3,6.029-0.183,10.176,0.35,12.441c0.246,1.037,2.465,3.049,6.616,6.016
	c-0.278,6.622,0.638,14.137,2.777,22.564c2.111,8.249,4.892,15.54,8.333,21.89c-3.255,5.36-5.901,10.606-7.926,15.737l-18.794-0.803
	c-5.962-0.732-10.959-1.648-14.99-2.748l-5.646-0.199c-0.933,0.766-0.699,2.48,0.7,5.146c3.131,5.929,8.377,11.991,15.739,18.187
	c6.684,5.596,13.088,9.604,19.22,12.065c0.981,2.853,2.538,5.823,4.713,8.92c2.198,3.198,5.679,7.595,10.443,13.191
	c1.158,1.518,2.328,3.273,3.51,5.257l-1.562-0.062c-0.966,0-1.565,0.217-1.799,0.65l-5.346,8.194l-5.846,7.245l-3.797,4.047
	c-1,1.066-1.549,1.832-1.649,2.299c-0.333,1.398-0.616,3.297-0.849,5.695c-0.3,2.832-0.3,4.598,0,5.297
	c0.533,1.232,1.965,3.08,4.297,5.546c2.132,2.265,3.547,3.581,4.247,3.947c0.933,0.466,1.932,0.782,2.998,0.949l3.69,0.181
	c0.497,1.001,1.774,1.842,3.854,2.518c2.398,0.799,5.346,1.232,8.844,1.299c3.464,0.1,6.429-0.166,8.894-0.799
	c1.862-0.483,3.09-1.104,3.715-1.857c0.788,0.645,1.896,1.081,3.33,1.307c1.865,0.334,4.664,0.384,8.394,0.15
	c3.764-0.199,6.462-0.566,8.094-1.1c1.64-0.529,2.732-1.336,3.283-2.42c0.456,0.187,0.987,0.347,1.614,0.472
	c2.032,0.366,4.396,0.35,7.095-0.05c5.504-0.845,8.665-2.37,9.488-4.574c7.086,6.013,15.016,10.637,23.789,13.867
	c9.46,3.432,20.086,5.297,31.878,5.597c3.764,0.1,5.996-0.283,6.695-1.149c0.633-0.832,0.266-2.582-1.1-5.246
	c-4.197-8.295-8.61-20.219-13.241-35.775c-3.882-13.027-7.39-26.925-10.528-41.676c1.976-0.674,4.542-1.879,7.73-3.643
	c3.674-1.996,6.189-3.614,7.586-4.866c3.4-0.303,6.784-0.704,10.146-1.222c6.172,1.1,13.167,4.358,20.991,9.785
	c6.952,4.827,12.272,9.592,15.979,14.294c-0.944,0.303-1.768,0.783-2.438,1.495c-1.434,1.533-3.814,4.381-7.146,8.545
	c-3.997,4.996-6.063,7.943-6.196,8.844c-0.133,0.6-0.149,1.516-0.049,2.748c0.1,1.832,0.482,2.98,1.148,3.447l9.293,7.545
	c4.531,3.896,7.379,6.512,8.545,7.844c0.5,0.6,2.165,0.9,4.996,0.9l5.746-0.301c0.533-0.033,1.1-0.383,1.699-1.049l0.927-1.175
	c0.437,0.679,0.975,1.157,1.621,1.425c1.665,0.699,4.446,1.1,8.345,1.199c3.896,0.1,6.762-0.167,8.594-0.8
	c1.133-0.366,1.948-0.716,2.447-1.05c0.7-0.466,1.1-1.031,1.199-1.698c0.022-0.123,0.035-0.243,0.056-0.365
	c1.246,0.381,2.968,0.655,5.191,0.815c2.897,0.232,5.296,0.199,7.194-0.101c3.198-0.499,5.063-1.481,5.597-2.948
	c1.632,0.633,3.681,0.834,6.146,0.6c2.266-0.199,4.23-0.683,5.896-1.449c2.598-1.165,3.914-2.281,3.947-3.348
	c0.133-2.131-0.268-4.279-1.199-6.445c-0.933-2.079-2.269-3.823-3.969-5.262c-0.328-1.794-1.562-3.389-3.727-4.781
	c-1.133-0.732-3.081-1.665-5.846-2.797c-4.164-1.6-7.295-3.082-9.394-4.447c-3.258-2.151-5.086-4.53-5.521-7.131
	c1.442-0.979,3.278-2.114,5.521-3.412l5.347-2.998c1.898-1.133,3.197-2.064,3.896-2.798c0.934-0.999,2.315-3.864,4.147-8.595
	c1.899-4.963,2.948-8.627,3.147-10.992c0.234-2.997-2.215-8.811-7.344-17.438c-5.536-9.248-11.297-16.333-17.278-21.283
	c2.056-4.36,3.643-8.922,4.736-13.692c0.366-1.632-0.882-5.462-3.747-11.491c0.333-1.933,1.398-6.313,3.197-13.141l2.33-8.738
	c1.434-1.066,2.985-2.344,4.666-3.854c3.697-3.364,5.846-5.896,6.445-7.595c0.307-0.856,0.615-1.99,0.925-3.382
	c6.522,11.472,12.184,23.703,16.962,36.709c7.129,19.453,10.81,37.174,11.043,53.162l0.5,44.818
	c0.332,28.348,0.648,45.985,0.949,52.914c0.1,2.432,0.749,3.914,1.948,4.446c0.966,0.399,2.564,0.267,4.797-0.399
	c5.563-1.666,12.857-6.762,21.885-15.289c9.844-9.303,17.016-18.773,21.526-28.412c0.58-0.725,1.181-1.51,1.807-2.367
	c4.863-6.595,8.444-13.607,10.743-21.035C369.729,275.508,370.829,267.547,370.495,259.719z"/>
</svg>
