<?xml version="1.0" encoding="utf-8"?>
<!-- Generator: Adobe Illustrator 16.0.0, SVG Export Plug-In . SVG Version: 6.00 Build 0)  -->
<!DOCTYPE svg PUBLIC "-//W3C//DTD SVG 1.1//EN" "http://www.w3.org/Graphics/SVG/1.1/DTD/svg11.dtd">
<svg version="1.1" id="图层_1" xmlns="http://www.w3.org/2000/svg" xmlns:xlink="http://www.w3.org/1999/xlink" x="0px" y="0px"
	 width="303px" height="186px" viewBox="0 0 303 186" enable-background="new 0 0 303 186" xml:space="preserve">
<path d="M300.898,73.749c-1.031-1.498-2.496-2.946-4.394-4.344c-3.26-2.371-6.815-3.861-10.652-4.515
	c3.181-0.577,5.996-1.393,8.405-2.476c3.295-1.465,5.01-3.046,5.143-4.744c0.301-3.196-2.246-6.042-7.639-8.539
	c-5.568-2.592-12.162-3.753-19.76-3.516c0.916-1.179,1.384-2.239,1.384-3.175c0-1.897-2.28-3.163-6.841-3.795
	c-3.974-0.543-7.452-0.32-10.443,0.659c0.136-0.975,0.271-2.039,0.407-3.206c0.665-5.292,0.649-8.089-0.05-8.389
	c-0.766-0.333-2.43,1.298-4.994,4.894c-0.396,0.564-0.766,1.134-1.142,1.702c-0.012-1.192-0.137-2.406-0.405-3.649
	c-0.5-2.297-1.299-3.562-2.397-3.795c-1.165-0.267-2.847,0.799-5.043,3.196c-1.644,1.775-2.907,3.571-3.814,5.387l-1.878-5.587
	c-0.766-1.765-1.365-2.646-1.798-2.646c-0.366,0.033-0.882,0.915-1.548,2.646c-0.433,1.265-0.815,3.562-1.148,6.891
	c-0.11,0.996-0.195,1.919-0.261,2.787c-0.397-0.199-0.857-0.38-1.387-0.54l-2.547-0.1c-0.698,0.399-1.165,1.814-1.397,4.245
	c-0.301,2.763,0.066,5.176,1.098,7.24c-1.265,3.429-4.178,8.755-8.738,15.979c-4.627,7.29-7.806,11.534-9.537,12.732
	c-1.664,1.099-7.506,2.646-17.526,4.644c-8.999,1.793-15.71,2.854-20.142,3.182c0.477-0.936,0.883-1.946,1.217-3.032
	c0.594-1.854,0.73-3.345,0.426-4.486c2.741,1.164,5.463,1.864,8.163,2.089c3.163,0.266,6.075-0.316,8.738-1.748
	c2.634-1.407,4.331-3.357,5.108-5.841c0.427-1.124,0.509-2.816,0.234-5.095c-0.232-1.964-0.815-4.876-1.748-8.738l-1.16-5.015
	c0.801-0.545,1.867-2.14,3.208-4.821c1.664-3.229,2.28-5.077,1.847-5.542c-0.332-0.399-2.113-0.183-5.342,0.649
	c-0.463,0.116-0.889,0.23-1.294,0.344l-0.099-1.309c0.833-0.688,2.144-1.547,3.939-2.58c2.073-1.142,4.476-2.34,7.172-3.591
	c0.396,0.145,0.738,0.168,1.017,0.046c0.214-0.096,0.416-0.349,0.61-0.742l0.966-0.422c0.363,0.489,0.813,1.024,1.37,1.613
	c1.664,1.798,2.813,2.563,3.445,2.297c0.532-0.233,1.031-1.647,1.498-4.244c0.149-0.862,0.247-1.597,0.302-2.221
	c1.607-0.578,3.019-1.015,4.209-1.291l3.128,2.264c0.966,0.633,1.632,0.816,1.998,0.549c2.098-1.598,4.094-5.126,5.992-10.586
	c2.03-5.858,2.479-10.252,1.348-13.182c-1.764-4.394-6.208-7.523-13.332-9.387c-10.486-2.729-24.518-2.547-42.094,0.549
	c-17.043,3.029-28.761,7.157-35.152,12.383c-4.228,3.462-7.356,7.723-9.387,12.783c-1.998,4.927-2.78,10.203-2.347,15.829
	c0.714,9.658,4.437,18.25,11.146,25.784c-0.387-0.294-0.777-0.599-1.159-0.867c-2.929-2.03-4.81-2.563-5.643-1.598
	c-1.065,1.332-1.015,3.795,0.15,7.39c1.165,3.695,2.863,6.408,5.093,8.139l-2.376-0.148c0.015-0.044,0.002-0.08-0.071-0.101
	c-2.164-0.433-7.756-3.495-16.777-9.188c-8.655-5.526-13.632-9.021-14.93-10.486c-1.265-1.365-3.279-5.476-6.042-12.333
	c-3.296-8.123-5.31-14.98-6.042-20.572c0.799-1.099,1.598-2.946,2.396-5.542c0.766-2.597,1.032-4.245,0.799-4.943
	c-0.2-0.566-1.115-0.849-2.747-0.849c-1.094-0.024-2.063,0.077-2.92,0.291c0.14-1.249,0.265-2.69,0.374-4.335
	c0.299-4.827,0.083-7.374-0.649-7.64c-0.799-0.3-2.447,1.465-4.943,5.293c-0.072,0.109-0.133,0.21-0.203,0.319
	c-0.073-2.132-0.386-4.417-0.946-6.86c-0.799-3.628-1.797-5.659-2.996-6.092c-1.132-0.399-2.547,0.3-4.245,2.097
	c-1.551,1.673-2.635,3.536-3.297,5.57c-1.615-4.663-2.714-6.94-3.294-6.818c-0.666,0.1-1.332,3.029-1.998,8.788
	c-0.12,1.05-0.221,1.999-0.313,2.896c-2.949-1.581-6.683-2.551-11.222-2.896c-4.96-0.333-7.79,0.366-8.488,2.097
	c-0.581,1.407-0.625,2.934-0.165,4.574c-4.93-1.305-11.484-1.244-19.709,0.22c-8.955,1.564-13.565,3.662-13.831,6.292
	c-0.3,2.73,3.429,5.393,11.185,7.989c2.807,0.94,5.328,1.665,7.595,2.197c-6.536,1.469-12.319,3.94-17.332,7.44
	c-5.226,3.595-7.59,6.808-7.09,9.637c0.399,2.23,4.261,3.778,11.584,4.644c3.918,0.499,7.678,0.679,11.289,0.562
	c-2.945,1.788-5.364,4.522-7.244,8.226c-2.064,4.061-2.53,6.824-1.398,8.289c1.032,1.231,4.744,1.748,11.135,1.548
	c4.756-0.122,8.669-0.609,11.763-1.456c-2.18,2.156-3.857,4.637-5.021,7.447c-1.332,3.163-1.448,5.326-0.35,6.491l1.555-0.043
	c0.538,0.074,1.249,0.049,2.108-0.06l5.225-0.146c5.322-1.372,10.581-3.678,15.775-6.907c-0.062,1.111,0.149,1.906,0.653,2.363
	c1.787,1.56,7.229,0.273,16.307-3.841l2.218,4.291c0.565,0.951,1.127,1.805,1.685,2.578c-0.064,0.037-0.128,0.072-0.187,0.119
	c-0.865,0.699-1.248,2.097-1.148,4.194c0.067,2.23,0.649,4.76,1.748,7.59c2.456,6.302,6.524,12.073,12.187,17.323
	c-4.146-1.554-8.142-2.42-11.987-2.594c-3.862-0.166-5.992,0.301-6.392,1.398c-0.624,1.643,1.048,3.938,4.996,6.876
	c-2.052-0.237-4.166-0.389-6.347-0.442c-2.287-1.501-4.71-2.964-7.288-4.387c-5.726-3.162-9.521-4.627-11.384-4.394
	c-7.124,0.966-16.495,3.612-28.112,7.939c-10.286,3.828-18.442,7.474-24.467,10.936c-2.33,1.265-3.528,2.114-3.595,2.546
	c-0.133,0.533,1.032,0.949,3.496,1.248l30.908,3.746l21.671,2.297c1.232,0,4.71-1.898,10.436-5.693
	c3.793-2.481,6.602-4.418,8.456-5.825c5.017,0.582,8.958,1.12,11.816,1.616c-1.633,1.383-2.368,2.521-2.196,3.41
	c0.266,1.398,2.13,2.53,5.592,3.396l10.003,0.427c-0.755,0.733-1.445,1.781-2.063,3.168c-1.032,2.431-1.182,3.878-0.449,4.345
	l9.387-0.35c5.218-1.273,9.236-3.423,12.083-6.43c0.069,0.063,0.131,0.126,0.201,0.188c-1.465,1.598-2.83,3.545-4.095,5.842
	c-1.231,2.264-1.665,3.629-1.298,4.095c0.366,0.499,1.631,0.35,3.795-0.449c1.439-0.471,2.686-1.005,3.754-1.6
	c-0.181,0.91-0.294,1.854-0.309,2.848c0,2.331,0.516,3.646,1.548,3.944c0.713,0.208,1.679-0.238,2.896-1.329
	c-0.39,1.814-0.709,3.832-0.949,6.073c-0.33,2.845-0.414,5.078-0.259,6.711c-1.186-0.772-2.497-1.001-3.936-0.669
	c-1.731,0.433-3.129,1.531-4.194,3.296c-0.071,0.12-0.131,0.247-0.197,0.37c-2.034-2.6-4.61-3.29-7.742-2.019
	c-3.058,1.224-4.78,3.248-5.192,6.058c-0.453,0.657-0.87,1.81-1.249,3.479c-0.499,2.297-0.749,4.545-0.749,6.741
	c0,1.698,0.25,2.646,0.749,2.847c0.533,0.199,1.564-0.334,3.096-1.598l3.795-3.445l0.924-1.14c0.058,0.021,0.116,0.026,0.174-0.009
	l2.297-0.35l1.907,0.18c-0.021,0.252-0.043,0.498-0.06,0.769c-0.1,1.698-0.05,3.229,0.15,4.594c0.2,1.631,0.482,2.497,0.849,2.597
	c0.433,0.1,1.365-0.482,2.796-1.748l3.645-3.895l1.648-2.247h6.727c0.529,1.087,1.798,2.783,3.809,5.093
	c1.165,1.398,1.947,2.098,2.347,2.098s0.966-0.683,1.698-2.047c1.531-2.697,2.314-5.477,2.347-8.34
	c0.01-0.335-0.044-0.651-0.129-0.96c-0.259-5.903-2.043-9.15-5.364-9.726c-0.135-0.028-0.27-0.044-0.405-0.06
	c0.079-1.174,0.263-2.815,0.555-4.933c0.339-2.744,0.664-4.766,0.974-6.082c0.39-0.476,0.764-1.104,1.123-1.908
	c0.468-1.13,0.75-2.248,0.886-3.356c0.727,0.99,1.673,1.959,2.858,2.907c1.598,1.332,2.763,1.814,3.496,1.448
	c0.726-0.394,1.132-1.647,1.226-3.744l1.391-2.121c0.494,0.775,1.012,1.482,1.56,2.115c1.214,1.99,2.419,4.696,3.612,8.144
	c0.932,2.598,1.997,6.092,3.195,10.486l1.697,6.691c0.6,1.964,1.183,3.262,1.748,3.895c0.699,0.799,1.648,1.266,2.847,1.398
	l3.795-0.25l3.146-0.35l2.543-0.166c1.086,0.356,1.989,0.745,2.7,1.164c0.966,0.566,2.396,1.682,4.294,3.346
	c0.666,0.566,1.132,0.717,1.398,0.449c0.091-0.072,0.168-0.195,0.236-0.353c0.157-0.146,0.232-0.474,0.227-0.979
	c0.042-0.335,0.075-0.708,0.086-1.164c0.075-1.474-0.075-3.013-0.449-4.618l1.463-0.165c0.86,0.307,1.949,0.83,3.281,1.588
	c1.697,1.031,3.195,2.131,4.494,3.295c1.297,1.166,2.097,0.716,2.396-1.348c0.178-1.336,0.16-2.809-0.019-4.397
	c2.187,0.615,3.826,1.364,4.911,2.25c0.732,0.565,1.315,0.633,1.748,0.2c0.433-0.434,0.633-1.215,0.6-2.348
	c-0.1-2.796-1.266-5.575-3.496-8.338c-0.028-0.038-0.063-0.064-0.093-0.1c-0.628-1.646-2.24-2.863-4.851-3.646
	c-2.457-0.778-4.443-0.73-5.971,0.12c-1.451-0.806-3.201-1.25-5.264-1.318c-3.912-0.097-7.351,1.248-10.321,4.01
	c-0.604,0.1-1.182,0.267-1.732,0.505c-0.768-2.487-2.038-5.75-3.825-9.808c-2.28-5.14-4.185-8.604-5.723-10.427
	c0.008-0.043,0.018-0.084,0.024-0.128c0.812,0.678,1.756,1.223,2.853,1.616l3.445-0.1c0.633-0.433,0.666-1.614,0.1-3.546
	c-0.525-1.758-1.439-3.244-2.73-4.465c3.328-1.688,6.092-3.97,8.273-6.869c5.82-7.893,6.184-17.745,1.124-29.543l20.048,2.18
	c13.848,1.299,21.537,1.414,23.068,0.35l8.039-7.041l6.196-6.055c0.878,1.189,2.979,2.491,6.337,3.908
	c3.662,1.631,6.242,2.246,7.74,1.848c0.586-0.174,0.862-0.817,0.839-1.914c3.304,3.189,7.977,5.429,14.04,6.707l7.341,0.6
	c2.163-0.233,3.445-0.832,3.845-1.798c0.532-1.364-0.267-3.396-2.396-6.092c-0.757-0.959-1.499-1.796-2.228-2.516
	c4.721,1.436,9.44,2.147,14.161,2.117c5.359,0,8.238-1.016,8.639-3.046c0.499-2.463-0.467-4.91-2.896-7.34
	c-0.809-0.809-1.701-1.503-2.659-2.107l11.946-0.34c5.859-0.799,9.021-2.114,9.488-3.944
	C302.23,76.429,301.864,75.214,300.898,73.749z M119.063,104.605c-0.499-1.389-1.26-3.105-2.317-5.191
	c-0.981-1.91-1.879-3.47-2.7-4.699l11.657,1.611C123.096,99.127,120.88,101.888,119.063,104.605z M104.862,100.963
	c-1.845-2.867-4.533-5.953-8.047-9.255c2.396,0.554,5.145,1.107,8.248,1.658l-0.15,3.003L104.862,100.963z M167.233,79.303
	c0.109-0.362,0.271-0.764,0.495-1.21l0.824-1.285c0.61,0.381,1.221,0.738,1.83,1.073c-0.255,0.071-0.52,0.153-0.808,0.263
	C168.791,78.448,168.011,78.837,167.233,79.303z"/>
</svg>
