<?xml version="1.0" encoding="utf-8"?>
<!-- Generator: Adobe Illustrator 16.0.0, SVG Export Plug-In . SVG Version: 6.00 Build 0)  -->
<!DOCTYPE svg PUBLIC "-//W3C//DTD SVG 1.1//EN" "http://www.w3.org/Graphics/SVG/1.1/DTD/svg11.dtd">
<svg version="1.1" id="图层_1" xmlns="http://www.w3.org/2000/svg" xmlns:xlink="http://www.w3.org/1999/xlink" x="0px" y="0px"
	 width="477px" height="344px" viewBox="0 0 477 344" enable-background="new 0 0 477 344" xml:space="preserve">
<path d="M465.591,211.583c-5.923-1.185-10.663-1.528-14.261-1.063c2.894-2.731,5.369-6.48,7.404-11.298
	c2.77-6.572,4.221-13.695,4.354-21.367c0-0.668-0.116-1.068-0.35-1.201l-1.701,0.1c-6.706,1.901-12.36,5.371-16.965,10.408
	c-3.889,4.25-6.755,9.355-8.632,15.292c-2.052-4.352-5.336-8.631-9.884-12.839c-4.704-4.338-7.606-5.973-8.707-4.904
	c-1.802,1.668-2.052,6.071-0.751,13.211c1.302,7.373,3.57,13.061,6.806,17.064c-2.635-1.001-6.038-1.568-10.208-1.701l-8.057,0.4
	c-0.801,0.199-1.268,0.434-1.401,0.699c-0.134,0.268-0.017,0.734,0.351,1.402c1.101,2.135,3.619,4.403,7.556,6.805
	c3.331,2.02,6.365,3.195,9.104,3.534c-7.356,4.688-15.323,8.736-23.916,12.13c-20.751,8.199-40.396,11.148-58.938,8.873
	c-2.773-1.556-5.825-3.096-9.169-4.62c-4.766-2.176-9.283-3.908-13.563-5.217l2.204-3.39c0.533-0.701,0.366-1.135-0.501-1.302
	l-8.957-0.7c1.101-1.668,2.835-4.104,5.204-7.307c2.502-3.402,4.587-6.088,6.255-8.057l0.551-1
	c-0.101-0.201-0.483-0.301-1.151-0.301c-1.768,0-5.654,0.551-11.659,1.651c-4.523,0.86-7.629,1.51-9.359,1.955
	c-0.085-2.553,0.231-6.869,0.952-12.964c0.134-0.901-0.15-1.252-0.851-1.051c-1.753,0.406-5.481,2.195-11.136,5.33
	c-2.644-2.415-5.607-4.762-8.931-7.032c-2.729-1.87-5.256-3.346-7.584-4.439c-0.957-3-2.628-5.924-5.027-8.771
	c-0.795-0.946-1.732-1.94-2.81-2.981c4.455,1.749,8.944,2.933,13.469,3.531l1.802-0.149c0.199-0.233,0.15-0.784-0.15-1.651
	c-0.801-2.303-1.868-4.771-3.203-7.406c-0.877-1.814-1.718-3.361-2.524-4.651c5.44,3.203,12.092,5.596,19.989,7.153l9.408,1.251
	l4.254-0.4c0.633-0.9-0.385-3.937-3.053-9.107c-2.246-4.466-4.791-8.102-7.634-10.907c4.545,1.97,9.574,3.604,15.09,4.902
	c8.641,2.001,17.214,2.786,25.722,2.352c2.001-0.1,3.119-0.4,3.353-0.9c0.233-0.467-0.117-1.618-1.051-3.453
	c-2.102-3.937-5.638-8.507-10.609-13.711c-3.635-3.781-7.008-6.805-10.125-9.087c5.977,1.378,12.3,2.41,18.982,3.083
	c13.445,1.334,24.204,0.583,32.277-2.252c0.9-0.3,1.385-0.634,1.451-1.001c0.101-0.3-0.15-0.867-0.75-1.702
	c-2.202-3.069-6.456-6.956-12.761-11.66c-5.229-3.878-9.81-6.847-13.752-8.919c7.746-0.153,15.117-0.913,22.108-2.29
	c12.344-2.402,22.402-6.572,30.176-12.51c2.035-1.568,3.052-2.853,3.052-3.853c-0.033-1.001-1.051-2.102-3.052-3.303
	c-4.371-2.603-10.209-4.871-17.515-6.806c-4.258-1.092-8.153-1.833-11.712-2.247c1.508-0.307,3.012-0.634,4.506-1.006
	c11.543-2.869,21.685-7.557,30.425-14.062c1.902-1.401,2.819-2.485,2.753-3.252c-0.067-0.768-1.118-1.635-3.153-2.603
	c-4.903-2.335-11.81-4.303-20.717-5.905c-6.361-1.121-11.875-1.756-16.565-1.92c3.099-1.418,6.217-3.013,9.359-4.835
	c13.11-7.573,21.818-16.431,26.122-26.573c0.434-0.967,0.55-1.634,0.35-2.001s-0.817-0.65-1.852-0.851
	c-6.205-1.268-15.246-0.834-27.122,1.301c-10.49,1.859-18.999,4.402-25.541,7.623c2.292-2.399,4.503-5.128,6.625-8.224
	c5.838-8.574,9.241-17.448,10.208-26.622c0.134-1.234,0.051-1.935-0.25-2.102l-2.401,0.15c-8.141,2.102-17.298,6.472-27.474,13.111
	c-11.938,7.721-21.486,16.406-28.661,26.051c-0.063-0.178-0.167-0.306-0.313-0.379c-0.5-0.234-1.701,0.183-3.603,1.251
	c-1.635,0.9-3.437,2.068-5.405,3.503c-1.523,1.077-2.832,2.069-3.942,2.981l1.892-6.384c0.6-2.402,0.6-3.72,0-3.954
	c-0.601-0.233-1.951,0.417-4.054,1.952c-3.41,2.513-6.347,5.77-8.818,9.757c0.26-1.965,0.563-4.449,0.911-7.455
	c0.334-2.402,0.168-3.687-0.5-3.854c-0.566-0.167-1.785,0.617-3.652,2.352c-1.568,1.468-2.97,3.069-4.204,4.804
	c-1.435,2.102-2.435,4.153-3.003,6.155c-0.082,0.318-0.136,0.624-0.166,0.917c-0.979,0.986-1.474,2.423-1.473,4.32
	c-1.272-0.362-2.955-0.74-5.066-1.135l-5.555-0.5c-0.434,0.267-0.066,2.119,1.102,5.555c1.301,3.837,3.068,7.84,5.304,12.01
	c-2.835-0.834-5.472-1.418-7.907-1.751c-3.168-0.467-4.971-0.317-5.404,0.45c-0.566,1.001,1.151,4.254,5.154,9.758
	c1.678,2.36,3.458,4.646,5.305,6.884c-0.573-0.109-1.216-0.203-1.951-0.278l-3.903,0.15c-0.501,0.2-0.651,0.55-0.45,1.051
	c0.5,1.134,2.469,3.103,5.904,5.905c3.069,2.569,5.455,4.32,7.156,5.254c-5.037,23.553-8.04,35.797-9.008,36.731
	c-1.635,1.101-5.237,4.737-10.809,10.909c-2.409,2.686-4.52,5.09-6.357,7.239l-4.202-2.185c2.536-2.068,5.254-5.171,8.157-9.308
	c0.334-0.434,0.467-0.734,0.4-0.901c-0.033-0.167-0.35-0.267-0.951-0.3c-1.268-0.133-3.202-0.117-5.804,0.05l-6.255,0.65
	c1.768-5.738,2.769-9.642,3.002-11.71c0.1-0.634,0.067-1.018-0.1-1.151c-0.167-0.2-0.567-0.284-1.201-0.25
	c-2.102,0.134-4.837,0.768-8.207,1.902c-3.203,1.067-5.738,2.185-7.606,3.353l0.701-6.506l0.3-4.604l-0.25-0.851
	c-0.133-0.133-0.45-0.05-0.951,0.25c-1.868,1.201-3.803,2.719-5.805,4.554c-1.485,1.365-2.612,2.538-3.392,3.525
	c-0.383-1.256-0.771-2.577-1.162-3.976c-2.344-8.265-3.262-14.18-2.763-17.761c0.861,0.249,1.746,0.483,2.663,0.697
	c4.397,1.026,9.094,1.574,14.057,1.698c1.426,0.597,2.715,1.085,3.858,1.455c4.404,1.434,7.64,1.384,9.708-0.15
	c2.235-1.668,3.403-5.188,3.503-10.559c0.233-11.81-2.168-22.686-7.206-32.627c-5.004-9.908-11.526-16.748-19.566-20.518
	c-3.803-1.801-8.007-2.619-12.611-2.452c-4.704,0.167-9.107,1.334-13.211,3.503c-9.775,5.104-15.129,13.778-16.063,26.021
	c-0.768,9.842,0.467,25.205,3.703,46.089c0.729,4.766,1.475,9.316,2.238,13.674c-1.295-0.348-3.018-0.719-5.19-1.114l-3.103,0.15
	c-0.167,0.3,0.15,1.285,0.951,2.953c0.801,1.602,1.602,3.52,2.402,5.755c0.767,2.135,1.217,3.736,1.351,4.804l-8.107,1.251
	c-2.702,0.667-4.587,1.301-5.655,1.901c-0.267,0.2-0.417,0.367-0.45,0.5c-0.034,0.167,0.05,0.384,0.25,0.65
	c1.268,1.702,2.769,3.47,4.504,5.305c2.302,2.435,4.387,4.27,6.255,5.504c-1.494,0.576-2.856,1.228-4.11,1.941
	c-2.084-1.02-6.13-3.281-12.153-6.795c-7.04-4.104-11.209-6.639-12.511-7.606c-0.801-1-3.553-6.622-8.257-16.864
	c-4.588-9.851-7.119-15.663-7.602-17.458c1.138-0.997,2.238-2.233,3.298-3.71c1.935-2.636,3.002-5.004,3.203-7.106
	c0-0.534-0.25-0.834-0.75-0.901c-0.984-0.089-2.505,0.157-4.556,0.734c1.863-2.54,3.599-6.104,5.206-10.692
	c1.769-5.138,2.552-9.208,2.352-12.21c0-0.667-0.333-0.901-1-0.701c-3.203,0.901-6.389,2.419-9.558,4.554l1.601-6.555l0.951-5.455
	c0.034-0.734-0.3-1.034-1-0.901c-1.301,0.367-3.203,1.167-5.705,2.402c-2.246,1.123-3.827,2.093-4.765,2.916
	c-0.995-0.768-2.008-1.09-3.041-0.964c-0.009,0.001-0.013,0.005-0.022,0.007c-3.199-2.122-6.411-3.597-9.636-4.411
	c-2.269-0.6-3.57-0.617-3.903-0.05c-0.233,0.495,0.195,1.548,1.282,3.16l-4.685-0.207l-5.755,0.25
	c-0.67,0.087-1.202,0.219-1.611,0.389C77.18,71.723,66.18,67.755,51.343,64.86c-13.979-2.702-27.573-3.82-40.784-3.353
	c-2.703,0.1-4.154,0.384-4.354,0.851c-0.2,0.467,0.567,1.852,2.302,4.154c5.705,7.606,12.444,13.995,20.217,19.166
	c3.723,2.492,7.854,4.804,12.377,6.943c-5.908-0.026-12.268,0.727-19.083,2.264c-7.373,1.635-13.678,3.77-18.916,6.405
	c-2.001,1.001-3.036,1.785-3.103,2.352c-0.033,0.5,0.834,1.451,2.602,2.853c7.707,5.905,17.365,10.542,28.975,13.912
	c3.044,0.889,6.004,1.618,8.894,2.212c-3.315,1.315-6.976,3.257-10.996,5.844c-5.371,3.503-9.975,7.323-13.812,11.459
	c-1.768,1.902-2.602,3.186-2.502,3.854c0.067,0.767,1.268,1.584,3.603,2.452c9.408,3.469,18.949,5.288,28.624,5.454
	c4.016,0.065,7.901-0.173,11.664-0.695c-4.069,2.489-7.942,5.534-11.614,9.153c-4.17,4.103-7.439,8.24-9.808,12.411
	c-0.434,0.768-0.584,1.317-0.45,1.65c0.1,0.268,0.517,0.584,1.251,0.951c6.973,3.236,16.297,4.304,27.974,3.203
	c5.083-0.489,9.663-1.289,13.745-2.397c-2.163,2.002-4.326,4.412-6.489,7.251c-3.103,4.07-5.455,8.023-7.056,11.86
	c-0.367,0.867-0.467,1.468-0.3,1.802c0.2,0.333,0.75,0.6,1.651,0.801c7.673,1.567,16.197,0.917,25.571-1.952
	c3.416-1.039,6.606-2.273,9.577-3.699c-1.223,2.085-2.497,4.727-3.822,7.952c-1.768,4.271-2.986,7.841-3.653,10.709
	c-0.2,0.868-0.217,1.436-0.05,1.702c0.233,0.333,0.901,0.45,2.001,0.351c7.04-0.501,14.445-2.752,22.219-6.756
	c2.828-1.484,5.378-3.028,7.656-4.633c-0.725,1.978-1.459,4.302-2.202,6.984c-1.034,3.971-1.618,7.023-1.751,9.158
	c-0.033,0.934,0.1,1.501,0.4,1.701c0.3,0.233,1.034,0.233,2.202,0c5.771-1.168,11.493-3.753,17.165-7.756
	c3.311-2.311,6.226-4.844,8.77-7.587c-0.44,2.103-0.795,4.659-1.063,7.687c-0.367,3.67-0.451,6.389-0.25,8.156
	c0.067,0.834,0.234,1.318,0.5,1.451c0.3,0.168,1.001,0.018,2.102-0.449c3.836-1.602,8.106-4.555,12.811-8.857
	c3.05-2.782,5.415-5.303,7.109-7.567c0.323,2.555,0.833,5.19,1.548,7.917c1.398,5.39,3.353,10.352,5.85,14.895
	c-6.307-0.628-11.799-0.046-16.459,1.77c-4.938,1.901-8.24,4.871-9.908,8.907c-1.501,3.67-1.051,7.957,1.351,12.86
	c1.96,3.952,4.45,7.095,7.455,9.451c-0.047,0.158-0.089,0.331-0.13,0.505c-2.273-0.104-4.196,0.085-5.723,0.604
	c-1.835,0.667-3.053,1.685-3.653,3.052c-0.634,1.469-0.934,3.654-0.901,6.557c0,0.201,0.009,0.39,0.013,0.585
	c-0.686,0.21-1.342,0.59-1.965,1.166c-0.9,0.801-1.334,1.685-1.301,2.652c0.233,4.904,0.634,8.073,1.201,9.508
	c0.775,2.003,2.513,3.311,5.196,3.937c0.534,0.573,1.303,1.146,2.361,1.719c1.368,0.767,2.919,1.384,4.654,1.852
	c1.601,0.5,2.602,0.5,3.002,0c0.4-0.434,0.384-1.436-0.05-3.003l-0.63-2.101c0.422,0.303,0.839,0.608,1.281,0.899
	c1.601,1.001,2.602,1.317,3.002,0.95c0.367-0.366,0.417-1.601,0.15-3.702l-0.229-1.989c2.016-0.506,4.56-0.86,7.634-1.063
	c1.988-0.146,3.615-0.208,4.881-0.184l3.477,12.544c1.234,4.137,2.068,6.005,2.502,5.604c0.801-0.757,1.758-2.121,2.867-4.071
	c1.35,8.94,4.086,17.82,8.242,26.641c4.17,8.773,7.29,12.777,9.358,12.01c1.634-0.634,2.318-4.921,2.052-12.861
	c-0.07-1.906-0.174-3.709-0.31-5.42c4.708,7.988,9.861,14.728,15.472,20.183c5.104,4.972,8.307,7.056,9.608,6.255
	c1.368-0.834,0.717-5.988-1.952-15.463c-1.819-6.67-3.569-12.137-5.251-16.439c1.406,1.217,2.968,2.314,4.701,3.279
	c2.902,1.668,5.488,2.602,7.756,2.803c0.734,0.1,1.25,0,1.551-0.301c1.168-1.068-0.05-6.055-3.653-14.963
	c-3.184-7.826-6.049-13.496-8.596-17.022l1.09-0.092l0.851-0.351l-0.15-0.801c-0.534-1.066-1.785-2.686-3.753-4.854
	c-1.537-1.705-2.742-2.9-3.624-3.598l4.374-4.859l3.439-4.229c4.755,1.434,10.061,2.647,15.913,3.641l-2.488,9.997
	c-1.834,7.572-2.869,12.243-3.102,14.012c-0.167,1.033-0.117,1.567,0.15,1.602c0.299,0.066,1.017-0.385,2.15-1.352l12.161-9.758
	l6.706,25.471c0.199,0.601,0.383,0.918,0.55,0.951l0.801-0.65l4.604-9.809l4.454-10.108l9.357,10.458
	c0.467,0.468,0.818,0.651,1.051,0.551l0.351-1.101l0.201-8.993c0.694,0.999,1.314,1.836,1.851,2.488c0.4,0.5,0.717,0.717,0.951,0.65
	c0.199-0.067,0.35-0.418,0.45-1.051c0.121-0.998,0.347-2.497,0.666-4.445c1.75,1.284,4.56,3.197,8.441,5.746l7.706,4.854
	l1.151,0.351c0.134-0.134,0.134-0.534,0-1.201c-1.069-4.325-1.95-7.593-2.647-9.829l3.648,2.523c0.434,0.3,0.734,0.4,0.9,0.3
	c0.2-0.134,0.301-0.45,0.301-0.95c-0.076-1.422-0.336-3.112-0.746-5.018c3.937,5.631,10.088,11.473,18.461,17.527
	c3.97,2.869,7.64,5.188,11.009,6.956c3.303,1.668,5.388,2.335,6.256,2.002c0.634-0.267,0.566-1.769-0.2-4.504
	c-0.801-2.803-2.119-6.139-3.954-10.009c-1.832-3.873-3.804-7.5-5.904-10.897c5.096,2.552,11.63,4.967,19.616,7.245
	c9.475,2.735,14.679,3.386,15.613,1.951c0.333-0.5-0.434-2.352-2.302-5.555c-2.202-3.703-5.071-7.59-8.607-11.66
	c-2.41-2.758-4.928-5.352-7.545-7.793c19.963-2.052,37.645-7.506,53.033-16.377c11.605-6.721,21.373-15.117,29.313-25.179
	c3.027,5.219,7.391,9.748,13.122,13.569c5.571,3.67,9.274,4.954,11.109,3.854c0.533-0.301,0.617-1.385,0.25-3.254
	c-0.367-1.9-1.084-3.986-2.152-6.255c-1.945-4.052-4.204-7.064-6.762-9.089c6.484,0.519,13.223-0.475,20.224-3.021
	c6.973-2.568,10.542-5.154,10.709-7.756C476.883,214.92,473.163,213.084,465.591,211.583z"/>
</svg>
