<?xml version="1.0" encoding="utf-8"?>
<!-- Generator: Adobe Illustrator 16.0.0, SVG Export Plug-In . SVG Version: 6.00 Build 0)  -->
<!DOCTYPE svg PUBLIC "-//W3C//DTD SVG 1.1//EN" "http://www.w3.org/Graphics/SVG/1.1/DTD/svg11.dtd">
<svg version="1.1" id="图层_1" xmlns="http://www.w3.org/2000/svg" xmlns:xlink="http://www.w3.org/1999/xlink" x="0px" y="0px"
	 width="426px" height="258px" viewBox="0 0 426 258" enable-background="new 0 0 426 258" xml:space="preserve">
<path d="M425.149,79.534c-0.3-1.334-1.901-2.469-4.804-3.402c-5.471-1.802-11.793-2.719-18.966-2.752
	c-7.209-0.031-14.688,0.859-22.429,2.647c-0.541,0.021-1.138,0.056-1.791,0.105c-2.602,0.167-4.487,0.45-5.654,0.851
	c-0.566,0.237-1.179,0.765-1.835,1.563l-0.867,0.289c-12.777,4.103-21.818,8.657-27.123,13.661
	c-5.737,5.404-10.508,14.295-14.312,26.672c-2.035,6.605-5.504,13.595-10.408,20.968c-2.975,4.487-5.342,7.63-7.114,9.456
	c0.309-4.423,0.429-7.263,0.358-8.506c-0.167-3.503-1.518-4.204-4.053-2.102c-1.469,1.167-3.537,3.186-6.205,6.055
	c-1.921,2.05-3.356,3.671-4.313,4.875c-1.315-3.565-3.126-6.662-5.444-9.278c-3.971-4.438-10.676-9.074-20.117-13.912
	c-4.617-2.373-11.395-10.196-20.32-23.438c16.881-0.714,32.713-4.574,47.492-11.591c7.173-3.403,13.111-7.106,17.815-11.109
	c4.137-3.537,6.071-6.105,5.805-7.707c-0.367-2.302-4.054-3.853-11.06-4.654c-7.072-0.834-15.43-0.617-25.07,0.65
	c-10.842,1.368-21,3.82-30.475,7.356c-7.394,2.753-13.865,5.998-19.455,9.711c-4.354-3.541-8.961-6.02-13.822-7.409
	c-4.705-1.368-9.909-1.818-15.613-1.351c-3.744,0.3-7.077,1.011-10.016,2.117c2.94-15.206,1.627-32.241-3.945-51.107
	c-2.369-8.007-5.087-14.695-8.157-20.066c-3.002-5.271-5.588-7.94-7.756-8.007c-2.802,0-5.221,3.169-7.256,9.508
	c-2.068,6.472-3.103,14.278-3.103,23.419c0,10.242,1.368,20.033,4.103,29.374c3.057,10.489,7.618,19.379,13.654,26.704
	c-1.379,1.802-2.745,3.842-4.096,6.123c-1.535,2.636-3.753,5.872-6.656,9.708c-3.102,4.079-5.818,7.225-8.154,9.449
	c-8.437,2.092-15.131,6.309-20.069,12.669c-5.971,7.673-9.124,18.115-9.458,31.326c-0.134,6.271-0.584,10.858-1.351,13.761
	c-0.601,2.336-2.052,5.705-4.354,10.108c-2.135,4.037-3.303,7.239-3.503,9.608c-0.071,0.897-0.014,1.856,0.158,2.871
	c-4.917-1.749-8.251-2.68-9.966-2.771c-1.902-0.133-2.936,0.234-3.103,1.102c-0.2,0.801,0.417,1.852,1.852,3.152l5.304,4.954
	c0.231,0.222,0.442,0.428,0.654,0.636c-2.411,2.136-5.129,3.497-8.161,4.068c-3.536,0.667-8.14,0.367-13.811-0.901
	c-11.31-2.502-18.749-3.92-22.318-4.253c-5.104-0.467-10.442,0.1-16.013,1.701c-4.037,1.135-8.157,3.82-12.36,8.057
	c-2.452,2.452-5.549,6.21-9.282,11.256c-1.676,0.216-3.187,1.41-4.529,3.605c-0.656,1.088-1.099,2.101-1.34,3.043
	c-4.453,4.183-9.622,7.397-15.524,9.618c-3.203,1.201-6.889,2.151-11.059,2.853c-3.436,0.5-5.337,1.885-5.705,4.153
	c-0.333,2.302,1.068,4.17,4.204,5.604c7.773,3.67,14.512,5.788,20.217,6.355c5.971,0.6,12.894-0.25,20.767-2.553
	c3.603-1.067,8.391-3.486,14.362-7.256c1.676-1.055,3.165-1.953,4.505-2.728c6.443-0.853,12.038-0.155,16.762,2.128
	c3.836,1.768,8.157,2.385,12.961,1.852c5.137-0.568,10.175-2.42,15.112-5.555c3.736-2.402,8.29-6.223,13.661-11.46
	c4.276-4.137,7.367-7.487,9.309-10.076l0.449,5.772c0.067,1.334,0.417,2.168,1.051,2.502c0.667,0.301,1.334-0.133,2.001-1.301
	c0.601-1.034,1.384-2.219,2.352-3.553c0.746-1.044,1.363-1.831,1.877-2.412c2.108,2.179,4.579,4.072,7.431,5.664
	c5.073,2.791,12.222,5.123,21.395,7.01c-4.861,3.815-7.862,8.216-8.984,13.207c-0.567,2.402,0.067,4.32,1.901,5.755
	c1.835,1.435,4.087,1.769,6.756,1.001c5.337-1.535,10.809-4.337,16.413-8.406c5.826-4.26,9.357-8.314,10.596-12.162
	c2.74-0.571,6.075-1.419,10.021-2.551l7.707-2.102c1.401-0.233,8.14-0.184,20.216,0.15l10.176-0.375
	c-0.055,0.36-0.082,0.733-0.067,1.125c0.033,1.035,0.351,1.952,0.95,2.752c2.436,3.303,7.09,6.105,13.962,8.408
	c6.539,2.234,12.427,3.168,17.665,2.802c3.136-0.233,5.254-1.101,6.355-2.603c1.066-1.468,1.15-3.486,0.25-6.055
	c-1.246-3.205-5.695-6.436-13.328-9.693c3.93-1.708,7.758-4.1,11.477-7.221c5.504-4.637,11.125-11.143,16.863-19.516
	c2.636-3.87,4.236-8.123,4.805-12.761c0.303-2.512,0.291-5.186-0.015-8.012c6.857,0.514,11.234,0.583,13.125,0.205
	c1.668-0.366,2.552-0.817,2.652-1.351c0.1-0.567-0.685-1.318-2.353-2.252l-2.552-1.451l-2.252-1.451
	c-0.01-0.099,0.084-0.376,0.259-0.791l6.347,0.591c8.273,0,14.646-2.118,19.116-6.355c2.769-2.636,6.839-7.873,12.21-15.713
	c3.436-4.304,6.255-7.223,8.456-8.757c3.503-2.502,8.107-4.12,13.812-4.854c7.606-0.935,13.512-2.202,17.715-3.803
	c4.403-1.668,8.824-4.371,13.261-8.107c2.636-2.235,4.888-7.039,6.756-14.412c2.102-8.24,3.336-12.644,3.703-13.211
	c1.268-2.068,4.954-6.639,11.059-13.711C424.866,81.836,425.417,80.568,425.149,79.534z"/>
</svg>
