<?xml version="1.0" encoding="utf-8"?>
<!-- Generator: Adobe Illustrator 16.0.0, SVG Export Plug-In . SVG Version: 6.00 Build 0)  -->
<!DOCTYPE svg PUBLIC "-//W3C//DTD SVG 1.1//EN" "http://www.w3.org/Graphics/SVG/1.1/DTD/svg11.dtd">
<svg version="1.1" id="图层_1" xmlns="http://www.w3.org/2000/svg" xmlns:xlink="http://www.w3.org/1999/xlink" x="0px" y="0px"
	 width="611px" height="405px" viewBox="0 0 611 405" enable-background="new 0 0 611 405" xml:space="preserve">
<path d="M607.388,131.634c-2.066-11.865-4.716-19.198-7.949-21.998c-2.52-2.045-5.276-3.644-8.244-4.846
	c0.97-1.896,2.315-4.475,4.045-7.752l6.299-11.999c1.033-2.066,1.333-4.799,0.9-8.199c-0.533-4.066-2.149-6.799-4.85-8.199
	c-2.333-1.167-4.666-1.617-6.999-1.35c-2.8,0.333-5.449,1.667-7.949,4c-5.799,5.533-10.398,13.165-13.798,22.897
	c-1.177,3.374-2.009,6.476-2.511,9.318c-2.927,1.158-6.385,3.708-10.388,7.68c-4.333,4.366-6.783,7.866-7.35,10.499
	c-0.3,1.434,0.05,5.733,1.05,12.898c1.033,7.333,1.467,11.582,1.3,12.749c-0.199,1.4-2.35,4.216-6.449,8.449
	c-4.232,4.366-6.482,6.932-6.749,7.699c-1.066,3.133-1.1,7.816-0.1,14.048c0.498,3.131,1.172,5.808,2.005,8.065
	c-0.512,1.223-1.134,2.468-1.855,3.734l-8.448-2.2c-3.167-0.733-5.066-1.05-5.699-0.95c-0.601,0.1-2,0.767-4.2,2
	c-1.966,1.167-4.815,3.149-8.549,5.949l-6.149,4.599h-4.549l-4.949,0.45c-1.424,0.342-2.784,0.897-4.094,1.623l-5.506-0.473
	c-2.987-0.448-5.273-0.937-6.868-1.466c2.558-5.077,3.468-12.866,2.719-23.381c-0.699-9.465-1.883-15.398-3.549-17.798
	c-1.233-1.7-6.1-4.366-14.599-7.999c-7.933-3.399-13.849-5.533-17.748-6.399l-10.41,0.787l-1.488-0.537l-4.35-1.6
	c1.533-1.466,3.85-3.416,6.949-5.849c1.1-1.1,1.533-1.866,1.3-2.3c-0.233-0.4-1.05-0.6-2.449-0.6l-7.6,0.3
	c-4.732,0.167-7.165,0.167-7.299,0c-0.1-0.167,0.55-3.1,1.95-8.799l2.1-8.549c0.333-1.434,0.316-2.367-0.05-2.8
	c-0.4-0.467-1.233-0.4-2.5,0.2c-1.566,0.733-6.732,3.866-15.498,9.399c-5.189,3.256-8.941,5.644-11.273,7.173
	c-3.966-8.613-8.37-16.063-13.224-22.321c-3.732-4.833-7.971-9.226-12.698-13.194c0.662-3.089,1.412-5.143,2.249-6.154
	c0.039-0.028,0.09-0.058,0.144-0.087c4.235,3.546,7.826,5.336,10.756,5.336c2.199-0.034,4.282-0.767,6.249-2.2l3.449-3.299
	c1.533,1,3.1,1.816,4.699,2.45c1.8,0.7,3.35,1.05,4.649,1.05c2.667,0.033,4.917-0.917,6.75-2.85
	c1.472-1.525,2.455-3.437,2.969-5.719c1.65,0.314,3.49,0.245,5.53-0.23c4.399-1,7.715-3.7,9.948-8.099
	c1.533-3.033,1.833-6.266,0.9-9.699c-0.867-3.233-2.583-5.849-5.149-7.849c3.399-2.233,5.815-5.283,7.249-9.149
	c1.366-3.633,1.633-7.315,0.8-11.048c-1.033-4.566-3.733-8.216-8.1-10.949c-3.133-2-6.249-3.15-9.349-3.45
	c0.533-3.799-0.233-7.749-2.3-11.849c-2.466-4.966-6.149-8.182-11.049-9.649c-6.466-1.966-12.581-1.516-18.348,1.35
	c-5.133,2.533-8.448,5.966-9.948,10.299c-3.267-1.433-6.649-1.883-10.148-1.35c-4.066,0.6-7.35,2.5-9.85,5.699
	c-2.399,3.066-3.832,6.683-4.299,10.849c-0.434,4.033,0.133,7.599,1.699,10.699c-3.933,0.399-7.199,2.383-9.799,5.949
	c-2.466,3.366-3.683,7.116-3.649,11.249c-0.033,4.466,1.384,8.499,4.25,12.098c2.954,3.732,6.79,6.008,11.485,6.867l0.113,1.632
	c-0.101,0.434-0.867,1.383-2.3,2.85l-1.94,1.974c-7.398-3.567-15.462-5.206-24.207-4.873c-9.299,0.333-17.881,2.816-25.747,7.449
	c-10.499-2.733-20.431-3.017-29.796-0.85c-7.523,1.745-14.478,5.023-20.873,9.813l0.318-2.306c1.687-0.299,3.09-1.168,4.207-2.608
	c1.233-1.566,1.917-3.516,2.05-5.849c3.799,0.5,6.932-0.617,9.398-3.35c2.467-2.733,3.7-6.366,3.7-10.899
	c0-3.699-0.867-6.899-2.6-9.599c-1.305-2.018-3.002-3.643-5.088-4.879c1.489-2.354,2.258-5.206,2.289-8.569
	c0-3.933-1.05-7.366-3.149-10.299c-2.466-3.5-5.966-5.75-10.499-6.749c-4.066-0.9-8.216-0.684-12.449,0.65
	c-1.667-6.466-5.266-11.266-10.799-14.398c-5.532-3.133-12.098-4.149-19.697-3.05c-7.366,1.033-13.082,4.583-17.148,10.649
	c-3.566,5.299-5.166,11.148-4.799,17.548c-4.799,1.833-8.666,4.966-11.599,9.399c-2.733,4.1-4.083,8.366-4.049,12.798
	c0,5.999,2.033,11.582,6.099,16.748c4.108,5.167,9.06,8.258,14.837,9.314c-0.285,3.347,0.2,6.409,1.461,9.183
	c1.533,3.3,4.016,5.849,7.449,7.649c3.299,1.733,6.949,2.483,10.949,2.25c3.868-0.248,7.488-1.383,10.868-3.383
	c1.896,0.625,3.936,1.317,6.129,2.083c0.567,0.4,1.517,1.383,2.85,2.95l2.009,2.403c-2.83,4.12-5.417,9.113-7.758,14.994
	c-2.383,5.943-4.067,11.737-5.077,17.387l-20.52-5.188l-2.449,0.15c-0.333,0.433-0.217,1.3,0.35,2.6l8.549,14.598l-6.249,1.15
	l-6.799,1.2c-1.2,0.333-1.85,0.833-1.95,1.5c-0.066,0.633,0.45,1.316,1.55,2.05l6.299,3.2l8.149,3.899l-2.75,2.95
	c-1.3,1.4-2.167,2.466-2.6,3.2c-0.434,0.733-0.583,1.233-0.45,1.5c0.167,0.3,0.65,0.434,1.45,0.4l3.25-0.4l1.992-0.209
	c-0.693,1.24-1.438,2.652-2.242,4.259c-1.667,3.299-3.183,6.549-4.549,9.749c-0.934,2.233-2.283,4.616-4.05,7.149
	c-1.833,2.566-3.85,4.949-6.049,7.148l-9.549,9.549c-4.399,4.8-7.349,9.166-8.849,13.099c-1.6,4.3-2.7,9.799-3.3,16.498
	c-0.4,4.733-0.5,9.049-0.3,12.948c0.133,2.4,0,5.283-0.4,8.649c-0.434,3.666-1.117,7.382-2.05,11.148
	c-0.432,1.804-0.753,3.461-0.986,4.999c-0.876,0.331-1.895,0.895-3.063,1.7c-1.533,1.066-3.083,2.366-4.65,3.899
	c-2.933,2.934-5.749,4.333-8.449,4.199c-0.566-0.033-1.267-0.467-2.1-1.3c-0.934-0.999-1.517-2.083-1.75-3.249
	c-0.667-3.633-3.766-8.25-9.299-13.849c-5.599-5.133-8.616-8.032-9.049-8.698c-0.233-0.334-0.217-3.184,0.05-8.55
	c0.233-5.099,0.434-8.115,0.6-9.049c0.3-1.8,0.45-4.199,0.45-7.199c0.033-3.366-0.217-5.366-0.75-5.999
	c-3.133-3.1-5.35-7.332-6.649-12.698c-0.867-3.633-1.183-6.216-0.95-7.749c2.033-2.3,4.283-7.766,6.749-16.398
	c2.4-8.499,3.316-13.898,2.75-16.198c-0.5-1.733-1.966-4.033-4.399-6.899l-4.899-5.3c-4.913-4.913-9.138-10.415-12.681-16.502
	c1.912-4.485,3.557-10.013,4.932-16.593c2.033-9.732,2.55-16.415,1.55-20.047c-1.433-4.633-5.116-6.982-11.048-7.049
	c-6.799,0-10.182,2.7-10.149,8.099c0,3.686-0.517,8.995-1.538,15.887c-3.723-3.404-6.666-5.445-8.811-6.088
	c-5.899-1.533-11.949-1.2-18.148,1c-0.303,0.108-0.604,0.233-0.906,0.349c-0.82-1.824-1.701-4.762-2.644-8.848
	c-1.167-5.033-1.867-9.066-2.1-12.099c-0.267-3.566-1.533-6.166-3.8-7.799c-2.066-1.5-4.466-1.916-7.199-1.25
	c-2.433,0.566-4.5,1.65-6.199,3.25c-1.6,1.533-2.683,3.316-3.25,5.35c-0.966,3.133-0.2,8.648,2.3,16.548
	c2.006,6.499,4.189,11.722,6.546,15.691c-3.273,3.132-6.491,6.82-9.652,11.065c-3.177-1.143-5.762-1.088-7.742,0.19
	c-1.9,1.233-2.85,3.2-2.85,5.899c0,2.109,0.816,5.935,2.43,11.437c-0.062,0.683-0.117,1.368-0.13,2.062
	c-0.399,7.851,0.246,15.201,1.907,22.064l-4.907-0.167l-12.398-1.8c-2.433,0-4.599,1.067-6.499,3.2
	c-1.733,1.966-2.7,4.149-2.899,6.549c-0.3,2.566,0.15,4.899,1.35,6.999c1.3,2.233,3.333,4.033,6.099,5.399
	c3,1.467,9.149,1.934,18.448,1.4c5.063-0.294,9.399-0.786,13.059-1.464c2.113,1.288,4.44,2.098,6.989,2.413
	c1.967,0.233,4.417,0.2,7.349-0.1l4.55-0.551c0.566-0.033,1.966,0.667,4.199,2.101c2.267,1.433,3.95,2.699,5.049,3.8
	c4.773,4.771,13.035,6.901,24.768,6.4c0.649,1.654,1.407,4.489,2.279,8.547c1.1,4.967,1.483,7.833,1.15,8.6l-5.799,11.498
	c-3.7,7.299-5.616,11.166-5.75,11.599c-0.267,0.934-0.267,2.583,0,4.95c0.237,2.193,0.567,3.896,0.989,5.115
	c-0.546,1.273-0.861,3.459-0.939,6.582c-0.1,4.301,0.283,8.699,1.15,13.199c2.399,12.231,7.082,19.214,14.048,20.947l6.699-0.45
	c2.178-0.408,3.707-0.856,4.619-1.342c0.596,0.371,1.685,1.132,3.281,2.292l3.899,3c1.533,1.366,4.549,2.582,9.049,3.648
	c4.6,1.101,7.833,1.334,9.699,0.701c1.433-0.834,3.066-2.101,4.899-3.801c3.666-3.365,6.533-7.165,8.599-11.398
	c1.5-3.066,4.199-5.766,8.099-8.099c2.845-1.683,5.372-2.746,7.584-3.191c0.139,0.149,0.271,0.301,0.416,0.449
	c-1.392,2.271-2.082,5.047-2.051,8.342c0,3.6,0.85,7.099,2.55,10.499l2.3,4.549c0.833,1.8,1.233,3.066,1.2,3.8
	c0,0.2-1.133,2.066-3.399,5.599c-2.204,3.499-3.374,6.521-3.53,9.076c-0.797,0.644-1.36,1.512-1.669,2.623
	c-0.233,0.833-0.35,3.35-0.35,7.549l0.2,7.999c0.133,1.267,1.366,3.899,3.699,7.899c2.333,3.966,3.966,6.299,4.899,6.999
	c0.408,0.299,0.938,0.496,1.579,0.601c0.355,0.484,0.722,0.953,1.096,1.412c-1.423,2.361-2.634,4.13-3.625,5.286
	c-1.933,2.267-3.966,3.633-6.099,4.1c-1.067,0.233-3.2,0.017-6.399-0.649l-6.349-1.15c-1.5,0.033-4.366,1.666-8.599,4.899
	c-4.199,3.133-6.333,5.149-6.399,6.05c0.133,1.1,1.45,2.532,3.949,4.299c2.433,1.733,4.25,2.6,5.449,2.6
	c1.333,0,7.916-2.149,19.748-6.449c1.7-0.6,3.616-0.883,5.75-0.85c2.3,0.066,4.383,0.5,6.249,1.3c5.366,2.2,9.349,3.316,11.949,3.35
	c1.633-0.033,4.233-0.917,7.799-2.649c1.832-0.873,3.396-1.697,4.743-2.484c-0.296,2.762,0.167,4.695,1.407,5.783
	c2.899,2.6,7.016,4.217,12.349,4.85c5.232,0.634,10.515,0.184,15.848-1.35c10.632-3.033,18.381-4.75,23.248-5.149
	c4.999-0.399,10.832,0.283,17.498,2.05l11.049,0.649c5.366-0.333,9.332-1.35,11.898-3.05c1.533-0.999,3.016-2.398,4.449-4.199
	c1.2-1.5,1.883-2.6,2.05-3.299c0.083-0.411,0.099-0.982,0.052-1.71c0.166,0.002,0.332,0.01,0.499,0.01
	c4.899,0,9.899-0.767,14.998-2.3c5.066-1.533,10.016-3.75,14.849-6.648c3.37,2.079,6.917,3.894,10.631,5.462
	c-0.481,0.802-0.913,1.644-1.282,2.536c-0.633,1.566-0.883,2.8-0.75,3.699c0.334,1.801,2.2,3.733,5.6,5.8s6.032,2.85,7.899,2.35
	l8.299-1.95c2.933-0.499,5.183-0.516,6.749-0.049c5.899,1.766,11.481,3.183,16.748,4.249c5.899,1.233,10.016,1.717,12.349,1.45
	s6.615-2.017,12.848-5.25c6.533-3.466,9.899-5.216,10.099-5.249c0.601-0.167,3.95-0.184,10.049-0.05
	c6,0.133,9.383,0.083,10.149-0.15c2.699-0.967,4.982-2.383,6.849-4.25c1.9-1.898,2.85-3.782,2.85-5.648
	c-0.033-2.2-0.733-4.217-2.1-6.049c-0.95-1.268-2.075-2.218-3.374-2.855c0.298-0.236,0.592-0.481,0.883-0.733
	c1.621,1.378,3.746,2.791,6.391,4.238c3.3,1.833,6.316,3.083,9.049,3.749c1.8,0.467,5.866-0.5,12.199-2.899
	c3.032-1.2,6.183-1.816,9.448-1.85c3.333-0.067,5.85,0.5,7.549,1.7c2.333,1.6,5.233,2.766,8.699,3.499l8.999,0.649
	c1.3-0.1,3.566-0.799,6.799-2.1c2.866-1.166,4.916-1.649,6.149-1.449l8.549-0.35c2.333-0.801,3.533-1.917,3.6-3.35
	c-0.1-0.834-1.166-1.967-3.199-3.4c-1.866-1.299-3.333-2.082-4.399-2.35c-0.833-0.166-2.7-0.166-5.6,0l-4.899,0.25
	c-2.033-0.232-5.249-2.399-9.648-6.499c-4.3-3.999-7.3-6.016-8.999-6.05c-0.833,0-2.5,0.467-5,1.4
	c-2.266,0.867-3.899,1.184-4.898,0.949c-0.934-0.232-3.384-1.85-7.35-4.849c-3.376-2.589-5.856-4.838-7.454-6.75
	c0.373-0.979,0.755-1.996,1.155-3.099c2.699-7.466,4.466-13.898,5.299-19.298c0.467-3.066,0.55-5.183,0.25-6.349
	c-0.3-1.2-1.517-3.316-3.649-6.35c-4.933-7.133-7.649-13.382-8.149-18.748c-0.166-1.666-1.35-7.299-3.549-16.898
	c-1.828-7.767-2.734-13.16-2.725-16.195c0.615-2.216,0.959-3.937,1.024-5.151c0.033-1.533-0.267-3.433-0.899-5.699
	c-0.8-2.8-1.917-5.517-3.35-8.149c-1.467-2.699-3.017-4.865-4.649-6.499c-1.267-1.3-2.101-2.666-2.5-4.099l-0.658-4.254
	c1.362-0.555,3.083-1.327,5.208-2.346c4.399-2.066,7.599-3.717,9.599-4.949l2.995-2.458l1.254,0.657
	c3.762,2.172,7.287,4.652,10.6,7.412c0.112,1.284,0.395,2.53,0.85,3.737c0.466,1.1,2.732,4.017,6.799,8.749
	c3.966,4.633,6.282,7.133,6.949,7.499c1.699,0.966,6.982,1.767,15.848,2.399c8.399,0.6,13.498,0.7,15.299,0.3
	c1.466-0.433,6.115-3.282,13.947-8.549c7.8-5.3,11.982-8.415,12.549-9.349c0.533-1.166,0.85-3.899,0.95-8.199
	c0.061-3.91-0.084-7.896-0.415-11.946c0.595-0.518,1.196-1.06,1.814-1.651c4.1-3.914,6.997-7.944,8.724-12.089l9.225-0.31
	c4.266-1,10.782-5.416,19.548-13.249c9.498-8.532,15.215-15.848,17.147-21.947C609.654,152.298,609.487,143.499,607.388,131.634z"/>
</svg>
