<?xml version="1.0" encoding="utf-8"?>
<!-- Generator: Adobe Illustrator 16.0.0, SVG Export Plug-In . SVG Version: 6.00 Build 0)  -->
<!DOCTYPE svg PUBLIC "-//W3C//DTD SVG 1.1//EN" "http://www.w3.org/Graphics/SVG/1.1/DTD/svg11.dtd">
<svg version="1.1" id="图层_1" xmlns="http://www.w3.org/2000/svg" xmlns:xlink="http://www.w3.org/1999/xlink" x="0px" y="0px"
	 width="280px" height="326px" viewBox="0 0 280 326" enable-background="new 0 0 280 326" xml:space="preserve">
<path d="M278.752,97.906l-2.747-4.494l-5.792-10.038c-1.195-2.232-2.014-4.11-2.479-5.655c2.824-1.93,4.6-3.607,5.324-5.032
	c0.565-1.132,0.698-4.228,0.398-9.289c-0.264-5.04-1.044-8.62-2.34-10.745c2.854-4.273,4.287-8.333,4.287-12.176
	c0-4.361-1.448-10.387-4.346-18.077c-3.428-9.089-7.324-15.165-11.685-18.227c-3.629-2.597-10.504-3.896-20.624-3.896
	c-9.322,0-15.115,0.732-17.379,2.197c-2.598,1.665-6.508,6.991-11.734,15.98c-5.494,9.422-8.24,16.08-8.24,19.975
	c0,3.163,2.515,7.391,7.541,12.684c4.194,4.461,7.424,7.241,9.688,8.34l3.795,0.699l5.493-0.149
	c0.471,2.165,1.781,4.083,3.898,5.765c-0.033,1.072-0.02,2.508,0.047,4.322c0.065,2.93,0.232,4.71,0.498,5.343
	c1.065,2.696,3.945,4.877,8.64,6.542c0.593,0.211,1.187,0.4,1.778,0.579c0.119,1.629,0.131,3.506,0.021,5.663l-0.5,6.642
	l-0.351,5.193c-0.1,1.665,0.033,2.88,0.4,3.646c0.504,1.075,1.192,1.981,2.041,2.742l-13.139,16.661
	c-2.741-1.319-5.239-2.3-7.479-2.923c2.963-1.964,5.893-3.596,8.787-4.894c1.365-0.599,2.049-0.982,2.049-1.148
	c0-0.2-0.717-0.433-2.147-0.699l-5.942-0.45c-3.429-0.166-6.158-0.133-8.188,0.1c0.766-1.032,1.798-2.214,3.097-3.545l2.348-2.247
	c0.832-0.732,1.215-1.215,1.147-1.448l-1.448-0.2c-5.26,0.366-9.438,1.149-12.533,2.347c0.033-5.093-0.434-11.203-1.398-18.327
	l-1.498-9.938c0-1.665,0.184-3.379,0.55-5.144c0.365-1.798,0.849-3.262,1.447-4.395l0.75-1.797
	c-0.101-0.133-0.718-0.017-1.849,0.349c-0.301,0-1.231,0.417-2.797,1.249l0.699-3.595c0.365-1.065,0.467-1.715,0.299-1.948
	c-0.231-0.233-0.799,0-1.697,0.699l-2.348,1.348l-1.548,0.25l-0.2-0.499c-0.299-1.798-0.1-3.529,0.6-5.193l0.25-1.249
	c-0.133-0.1-0.532,0.05-1.198,0.449c-4.261,2.264-8.871,5.543-13.832,9.838c-7.476,6.446-13.304,13.469-17.489,21.067
	c-0.543-0.943-1.057-2.032-1.537-3.289c-0.632-1.731-1.031-3.263-1.197-4.595c-0.133-1.198-0.601-1.448-1.398-0.749
	c-0.732,0.633-1.332,1.698-1.798,3.196c-1.831-5.926-3.013-9.388-3.546-10.387c-0.532-1.099-1.266-3.396-2.197-6.891
	c-0.898-3.363-1.432-5.727-1.598-7.091c-0.166-1.531-0.416-2.38-0.75-2.547c-0.365-0.133-0.731,0.5-1.098,1.898l-1.349,4.145
	c-1.133,2.963-2.331,5.061-3.597,6.292c-0.366-0.799-0.698-1.831-0.998-3.096c-0.366-1.565-0.551-3.063-0.551-4.495
	c0-1.565-0.065-2.414-0.198-2.547c-0.166-0.167-0.683,0.316-1.55,1.448c-1.465,1.931-2.963,4.195-4.494,6.792
	c-3.095,5.16-5.242,9.971-6.44,14.432c-1.631-2.796-2.697-5.293-3.196-7.491c-0.2-0.899-0.416-1.365-0.649-1.398
	c-0.233,0-0.616,0.433-1.148,1.298c-1.065,1.631-1.865,3.812-2.397,6.542c-0.34,1.827-0.519,3.773-0.561,5.821
	c-3.708-1.934-8.258-5.163-13.672-9.716c-6.525-5.493-10.221-9.821-11.086-12.984c-0.366-1.232-0.666-1.864-0.899-1.897
	c-0.3-0.067-0.616,0.533-0.949,1.797c-0.366,1.232-0.532,2.863-0.499,4.894c-0.799-0.799-1.598-1.864-2.397-3.196
	c-0.833-1.498-1.398-2.913-1.698-4.245c-0.366-1.631-0.649-2.464-0.849-2.497c-0.2,0-0.549,0.766-1.049,2.297
	c-0.732,2.264-1.132,4.494-1.198,6.691c-0.1,2.43,0.133,5.576,0.699,9.438c-2.43-2.93-4.677-4.278-6.741-4.045
	c-0.866,0.1-1.315,0.316-1.349,0.649c-0.034,0.333,0.283,0.716,0.949,1.148l1.149,1.398c0.899,1.398,1.814,3.229,2.747,5.493
	c2.369,6.005,4.338,14.148,5.909,24.416c-1.472,1.051-3.167,1.747-5.11,2.051c-2.663,0.399-5.51,0-8.539-1.199
	c-1.199-0.466-1.881-0.599-2.048-0.399c-0.133,0.167,0.167,0.766,0.899,1.798c1.099,1.631,2.963,3.462,5.593,5.493l-9.538,0.35
	l-1.648,0.2c-0.1,0.133,0.066,0.5,0.5,1.099c0.599,0.766,1.631,1.665,3.096,2.697c1.765,1.265,3.795,2.414,6.093,3.445
	c-4.495,1.299-8.873,2.863-13.134,4.694c-4.228,1.798-7.125,3.346-8.689,4.644c-0.4,0.333-0.583,0.583-0.549,0.75l0.849,0.649
	l5.893,3.646c-1.665,0.333-3.479,0.882-5.443,1.648c-1.462,0.559-2.77,1.164-3.954,1.806c-1.845,0.225-3.65,0.535-5.414,0.937
	c0.249-1.1,0.445-2.292,0.578-3.592c0.237-2.43,0.25-4.903,0.066-7.412c1.487-0.795,2.964-1.74,4.428-2.875
	c5.227-4.028,7.84-8.522,7.84-13.483c0-1.199-0.5-2.78-1.498-4.744c-0.718-1.436-1.482-2.63-2.292-3.588
	c1.185-2.294,1.808-4.6,1.877-6.918c1.455-0.212,3.104-0.602,4.959-1.18c2.996-0.965,5.177-2.081,6.542-3.346
	c1.565-1.465,2.514-4.395,2.847-8.789l0.05-6.492c-0.1-1.931-1.198-3.546-3.296-4.844c-0.84-0.517-1.648-0.903-2.426-1.169
	c0.016-0.324,0.029-0.649,0.029-0.978c0-3.096-0.616-6.358-1.848-9.788c-1.199-3.362-2.78-6.325-4.744-8.889
	c-1.564-1.998-4.711-4.062-9.438-6.192c-3.729-1.631-7.524-2.963-11.386-3.995c-3.196-0.832-8.124-0.25-14.782,1.748
	c-6.392,1.897-11.02,4.028-13.883,6.392c-0.799,0.666-2.447,3.579-4.944,8.739L9.789,69.84l-5.792,8.739
	C1.332,82.809,0,86.288,0,89.018c0,3.163,2.747,8.639,8.24,16.429c4.728,6.725,7.957,10.72,9.688,11.985
	c1.099,0.799,3.063,1.398,5.893,1.797l1.831,0.139c-0.126,1.563-0.01,3.327,0.366,5.304c0.433,2.131,0.965,3.496,1.598,4.095
	c1.565,1.465,3.795,2.697,6.692,3.696c0.1,0.035,0.207,0.058,0.308,0.091c-0.617,1.785-1.751,4.566-3.404,8.348
	c-2.031,4.594-3.512,7.74-4.444,9.438c-0.833,1.465-1.531,3.113-2.098,4.944c-0.632,1.998-0.898,3.596-0.799,4.794
	c0.1,1.166,1.315,2.946,3.646,5.343c2.297,2.363,3.995,3.597,5.094,3.695l4.894-0.601l5.443-0.35l19.376,6.143l4.348,1.328
	c-1.254,1.152-2.411,2.369-3.449,3.666c-1.798,2.264-3.479,5.062-5.044,8.391c-0.632,1.33-0.899,2.029-0.799,2.097l2.147-0.897
	c0.133-0.134,1.365-0.684,3.696-1.648c2.796-1.197,5.177-2.047,7.141-2.547l-4.045,9.189c-2.031,4.594-3.262,7.739-3.695,9.438
	c-0.1,0.5-0.1,0.816,0,0.949l1.049,0.149l5.094-1.049l7.74-1.199c-1.032,0.966-2.347,2.447-3.945,4.445
	c-0.799,0.998-1.148,1.563-1.048,1.696l2.097-0.25l2.197-0.448l4.295-0.647c-0.799,2.828-2.397,7.106-4.794,12.834
	c-2.796,6.523-5.293,11.534-7.49,15.03c-0.833,1.331-1.166,2.063-0.999,2.196c0.133,0.134,0.833-0.1,2.098-0.698l6.592-2.747
	c4.894-1.931,8.722-3.13,11.485-3.596l2.647,4.295c0.965,1.831,1.681,3.445,2.147,4.844c0.5,1.465,0.833,2.215,0.999,2.247
	c0.166,0.033,0.466-0.614,0.899-1.946c1.332-4.296,2.546-7.541,3.645-9.738c3.266,5.638,6.004,10.216,8.223,13.75
	c-0.974,3.171-2.032,6.82-3.179,10.969c-3.03,10.953-4.544,18.411-4.544,22.373c0,4.693,1.165,9.021,3.496,12.982
	c2.664,4.563,6.076,6.842,10.237,6.842c1.894,0,4.101-1.109,6.613-3.308c0.419,0.935,1.062,1.839,1.925,2.714
	c-0.404,1.195-0.979,2.553-1.747,4.09c-0.932,1.897-1.914,3.611-2.946,5.144c-1.798,2.729-2.697,5.261-2.697,7.591
	c0,1.631,0.649,3.912,1.948,6.842c1.631,3.629,3.446,5.443,5.443,5.443c1.598,0,3.229-0.283,4.894-0.85l1.522-0.623
	c1.31,1.377,2.419,2.07,3.322,2.07c1.165,0,3.063-1.132,5.693-3.396c2.63-2.265,4.245-4.212,4.844-5.843
	c0.2-0.5,0.333-2.764,0.398-6.793c0.068-4.16,0.283-6.907,0.65-8.238c0.365-1.266,1.631-4.045,3.795-8.34
	c2.03-4.028,3.129-6.477,3.295-7.342c0.269-1.397,0.102-2.963-0.498-4.692c-0.633-1.832-1.516-2.997-2.646-3.496l-3.245-0.699
	c-1.144-0.235-2.022-0.454-2.651-0.655c-0.653-1.613-1.366-2.875-2.144-3.738c-1.136-1.252-2.653-1.791-4.553-1.617
	c1.169-1.787,2.547-3.869,4.153-6.273c2.601-3.882,4.918-7.291,6.969-10.263c1.168,1.154,2.404,2.394,3.718,3.722
	c6.426,6.393,10.587,10.953,12.483,13.684l0.699,0.699l0.85-0.601c1.932-2.497,3.896-5.409,5.894-8.739
	c2.964-4.906,5.22-9.433,6.769-13.574c0.75,3.074,1.621,6.795,2.619,11.179c2.099,9.255,3.279,14.864,3.547,16.828l0.299,2.696
	l0.4,5.844c0.133,2.297,0.35,3.845,0.647,4.644c0.799,2.031,2.364,3.813,4.694,5.345c2.729,1.83,5.793,2.746,9.188,2.746
	c3.063,0,6.293-1.615,9.688-4.845c3.597-3.429,5.793-7.356,6.593-11.785c0.268-1.331,0.268-3.545,0-6.642
	c-0.365-2.93-0.565-5.243-0.599-6.941c-0.066-2.963,0.398-5.543,1.397-7.74c0.491-1.07,1.327-2.557,2.491-4.437
	c0.104,0.019,0.178,0.021,0.205-0.008l-0.064-0.218c0.538-0.863,1.137-1.801,1.813-2.828l6.343-9.59l7.141-10.836
	c2.433-3.694,3.847-6.158,4.245-7.391c0.559-1.654,1.01-3.716,1.357-6.15l2.438-0.142c4.96-0.2,8.771-0.3,11.437-0.3l1.896-0.15
	l-0.947-1.396c-3.031-3.329-5.894-6.659-8.59-9.987c-3.963-4.795-6.441-8.224-7.441-10.287l11.087-0.448l7.79-0.201l2.146-0.25
	c0.066-0.232-0.433-0.731-1.498-1.498c-5.427-3.828-9.521-6.824-12.283-8.988l12.633-7.291l1.549-1.048
	c-0.033-0.167-0.6-0.417-1.697-0.749c-7.092-1.932-11.752-3.08-13.982-3.445c3.461-3.396,7.273-7.841,11.437-13.334
	c3.229-4.261,5.792-7.957,7.688-11.086c0.899-1.498,1.267-2.397,1.101-2.697l-1.179,0.024c1.898-3.758,3.727-7.911,5.473-12.509
	l3.596-9.888l0.75-1.948l3.495-7.341c0.998-2.031,2.58-4.994,4.744-8.889c1.364-2.43,2.047-3.928,2.047-4.494
	C280,100.42,279.584,99.371,278.752,97.906z"/>
</svg>
