<?xml version="1.0" encoding="utf-8"?>
<!-- Generator: Adobe Illustrator 16.0.0, SVG Export Plug-In . SVG Version: 6.00 Build 0)  -->
<!DOCTYPE svg PUBLIC "-//W3C//DTD SVG 1.1//EN" "http://www.w3.org/Graphics/SVG/1.1/DTD/svg11.dtd">
<svg version="1.1" id="图层_1" xmlns="http://www.w3.org/2000/svg" xmlns:xlink="http://www.w3.org/1999/xlink" x="0px" y="0px"
	 width="187px" height="234px" viewBox="0 0 187 234" enable-background="new 0 0 187 234" xml:space="preserve">
<path d="M185.611,128.308c-0.621-0.082-1.297-0.13-2.004-0.157c0.411-6.245,0.404-12.729-0.043-19.463
	c-0.499-7.588-1.464-13.979-2.896-19.171c-0.765-2.795-1.78-4.343-3.046-4.643c-1.23-0.333-2.578,0.349-4.043,2.047
	c-1.432,1.564-2.779,3.478-4.045,5.741c-0.821,1.506-1.464,2.882-1.947,4.141c-0.483-0.619-1.03-0.957-1.646-0.995
	c-2.43-0.1-5.359,2.879-8.787,8.937c-2.631,4.611-4.483,8.869-5.576,12.782c-2.03-0.363-4.002-0.246-5.915,0.354
	c-0.249-2.109-0.633-4.164-1.144-6.166c6.594-14.541,10.544-31.786,11.836-51.753c0.566-8.521,0.449-15.793-0.35-21.817
	c-0.799-6.124-2.13-9.752-3.994-10.884c-2.297-1.364-7.306-0.216-15.027,3.445c-7.334,3.438-12.894,7.286-16.722,11.531
	c-1.088-2.259-2.402-4.505-3.947-6.739c-1.952-2.846-3.78-5.052-5.488-6.64c-4.409-8.998-11.22-16.131-20.473-21.368
	C82.533,3.062,74.777,0.582,67.089,0.05c-1.298-0.133-1.847,0.033-1.647,0.499l0.899,1.048c6.175,5.899,9.451,12.935,9.841,21.102
	c-0.088-0.143-0.164-0.291-0.255-0.432c-1.93-2.929-4.277-5.242-7.04-6.94c-0.566-0.333-0.965-0.482-1.198-0.449
	c-0.433,0-0.532,0.533-0.299,1.598c0.466,2.03,0.549,4.293,0.25,6.79c-0.499,3.994-1.98,7.938-4.443,11.832
	c-2.476,3.932-4.252,7.46-5.347,10.595c-3.947,4.478-6.436,9.443-7.462,14.896c-6-2.904-13.105-5.429-21.34-7.567
	c-8.121-2.13-15.027-3.329-20.719-3.595c-3.262-0.133-5.542,0.449-6.84,1.748c-1.132,1.131-1.581,3.528-1.348,7.189
	C0.872,69.08,3.85,80.579,9.076,92.861c7.222,16.983,17.307,30.694,30.247,41.142c0.044,2.599,0.45,5.329,1.206,8.185
	c-3.013,0.77-6.532,1.927-10.583,3.494c-6.324,2.43-11.333,4.859-15.028,7.289c-2.03,1.332-2.979,2.43-2.846,3.295
	s1.332,1.582,3.595,2.146c2.796,0.666,7.322,1.148,13.58,1.449l18.173-0.6c-2.962,1.564-5.708,3.278-8.238,5.143
	c-2.363,1.73-4.16,3.295-5.392,4.692c-1.165,1.331-1.631,2.264-1.398,2.796c0.2,0.5,1.098,0.832,2.696,0.998
	c3.095,0.367,6.823,0.316,11.183-0.149c4.265-0.462,8.148-1.266,11.659-2.402c0.196,0.476,0.545,1.039,1.072,1.704
	c0.866,1.064,1.814,1.847,2.846,2.346c-2.995,1.432-5.076,3.313-6.24,5.642c-1.465,2.995-1.731,5.991-0.799,8.987
	c0.932,3.095,2.795,5.392,5.591,6.889c0.866,0.5,1.398,0.716,1.598,0.649c0.266-0.1,0.399-0.616,0.399-1.548
	c0-3.373,1.019-6.532,3.045-9.48c-0.613,3.605-1.756,8.188-3.444,13.774l-2.996,9.136c-0.898,2.23-1.747,4.477-2.546,6.74
	c-0.599,1.864-0.882,3.379-0.849,4.543c0.033,1.432,0.549,2.58,1.547,3.445c1.298,1.098,3.445,1.348,6.44,0.749
	c2.663-0.565,5.226-1.614,7.688-3.146c2.962-1.83,5.825-4.36,8.587-7.589c2.349-2.755,4.269-5.658,5.81-8.69
	c5.14,2.337,10.657,3.905,16.557,4.697c2.729,0.368,5.386,0.53,7.979,0.512l1.059,3.432l1.348,5.242
	c0.565,2.529,1.581,5.725,3.045,9.586c1.498,3.928,3.645,5.891,6.441,5.891c3.095,0,5.974-2.363,8.637-7.089
	c3.232-5.748,5.096-13.769,5.604-24.033c0.479-0.189,0.959-0.364,1.435-0.58c4.145-1.871,8.06-4.553,11.754-8.017l3.224,2.176
	c1.331,1.031,2.147,2.047,2.446,3.045c0.366,1.265,0.6,2.446,0.699,3.545l0.25,5.441c0.066,2.796,0.232,4.76,0.499,5.892
	c0.3,1.165,0.849,2.047,1.647,2.646c1.298,0.932,3.029,1.049,5.191,0.35c3.096-0.965,5.692-3.561,7.789-7.788
	c2.097-4.261,3.346-9.503,3.744-15.727c0.366-5.292,0.166-9.437-0.599-12.431c-0.267-1.1-1.448-4.095-3.545-8.987
	c-0.832-1.897-1.515-3.911-2.047-6.041c-0.115-0.476-0.194-0.925-0.284-1.381c3.337-2.311,6.298-6.098,8.871-11.399
	c2.896-5.892,4.793-12.549,5.691-19.971l0.111-1.088c0.885-1.059,1.731-1.951,2.535-2.656l0.748-0.85
	C186.577,128.607,186.277,128.408,185.611,128.308z"/>
</svg>
