<?xml version="1.0" encoding="utf-8"?>
<!-- Generator: Adobe Illustrator 16.0.0, SVG Export Plug-In . SVG Version: 6.00 Build 0)  -->
<!DOCTYPE svg PUBLIC "-//W3C//DTD SVG 1.1//EN" "http://www.w3.org/Graphics/SVG/1.1/DTD/svg11.dtd">
<svg version="1.1" id="图层_1" xmlns="http://www.w3.org/2000/svg" xmlns:xlink="http://www.w3.org/1999/xlink" x="0px" y="0px"
	 width="555px" height="385px" viewBox="0 0 555 385" enable-background="new 0 0 555 385" xml:space="preserve">
<path d="M554.3,196.323c-0.333-0.467-1.199-0.267-2.599,0.6c-10.729,6.664-20.093,7.714-28.09,3.149
	c-3.299-1.867-6.848-4.898-10.646-9.097c-1.866-2.099-5.348-6.398-10.446-12.896l-8.747-11.296
	c-3.564-4.432-6.881-8.081-9.946-10.946c-10.163-9.463-22.608-15.062-37.336-16.794c-14.662-1.7-29.223,0.7-43.685,7.197
	c-7.897,3.565-14.728,7.98-20.492,13.245c-3.565,3.266-7.298,7.514-11.196,12.746c-2.371,3.26-4.742,5.857-7.113,7.799
	c-1.749-0.527-3.624-0.801-5.632-0.801c-2.699,0-5.231,0.6-7.598,1.799c-2.248,1.155-4.115,2.736-5.632,4.71
	c-7.985-4.04-16.071-11.089-24.257-21.155c-4.365-5.398-12.063-16.494-23.092-33.288c-9.297-14.294-15.645-23.425-19.043-27.39
	c-3.296-3.867-6.626-6.917-9.99-9.156c11.283,2.465,23.292,2.872,36.03,1.209c13.662-1.799,26.574-5.731,38.736-11.796
	c2.232-1.133,3.215-1.916,2.948-2.349c-0.266-0.433-1.549-0.55-3.849-0.35c-8.297,0.6-17.01-0.55-26.14-3.449
	c-4.966-1.599-12.662-4.798-23.092-9.597c-11.83-5.498-19.093-8.663-21.792-9.496c-6.494-1.957-13.133-2.436-19.915-1.49
	c6.683-5.547,12.379-12.023,17.065-19.453c4.532-7.197,7.481-14.162,8.847-20.892c0.267-1.399,0.3-2.25,0.1-2.549
	c-0.233-0.333-0.833-0.133-1.799,0.6c-15.194,11.429-30.072,18.66-44.634,21.692c-7.164,1.466-16.277,1.866-27.34,1.2l-4.298-0.25
	c-0.94-0.067-1.774-0.085-2.52-0.062c0.943-1.931,1.835-3.971,2.669-6.136c3.699-9.663,5.515-19.459,5.448-29.39
	c0-2.199-0.7-2.432-2.099-0.7c-8.784,11.028-22.734,21.561-41.819,31.602c-7.071-1.909-13.692-2.999-19.859-3.262
	c-6.449-0.282-11.827,0.36-16.158,1.903c0.449-2.397,0.766-4.935,0.914-7.651c0.3-4.898,0.05-10.679-0.75-17.344
	c-0.333-2.932-1.199-3.082-2.599-0.45c-2.766,5.198-6.514,10.23-11.246,15.095c-4.599,4.698-9.78,8.897-15.544,12.595
	c-1.2,0.767-2.966,1.566-5.298,2.399l-6.348,2.249c-2.522,0.962-4.572,1.792-6.162,2.493c1.226-3.362,1.736-7.253,1.513-11.69
	c-0.233-4.365-1.116-8.73-2.649-13.095c-0.633-1.766-1.233-2.632-1.799-2.599c-0.566,0-0.95,0.966-1.149,2.899
	c-0.633,5.898-3.399,12.612-8.297,20.143c-2.565,3.965-7.68,10.712-15.344,20.243L41.885,67.52
	c-3.332,4.132-5.898,7.647-7.697,10.546c-4.927,7.916-6.269,14.778-4.039,20.589c-0.21,0.357-0.403,0.709-0.559,1.053
	c-0.433,0.966-2.949,2.449-7.547,4.448c-3.799,1.633-5.931,2.566-6.397,2.799c-2.466,1.133-4.315,2.199-5.548,3.199
	c-1.5,1.199-2.266,2.116-2.299,2.749c-0.033,0.766,0.816,1.916,2.549,3.449c5.564,4.898,14.845,9.03,27.84,12.396
	c14.473,3.725,28.764,4.756,42.874,3.109c-1.693,2.629-2.787,5.893-3.286,9.785c-2.52,2.181-4.042,6.038-4.55,11.598
	c-0.633,6.531,0.667,11.862,3.898,15.994c1.998,2.555,4.379,4.604,7.111,6.187c-1.458,5.134-2.634,9.182-3.527,12.147
	c0.069-1.074,0.125-2.232,0.165-3.49c0.067-1.133-0.05-1.75-0.35-1.85c-0.267-0.1-0.783,0.333-1.549,1.3l-6.798,9.596
	c-2.81,3.995-5.286,7.304-7.438,9.943l-11.006,6.151c-9.197,5.197-16.061,9.346-20.592,12.445
	c-6.287,4.279-10.084,7.746-11.404,10.405c-0.198-0.002-0.389-0.021-0.592-0.009c-3.565,0.166-7.38,1.433-11.446,3.799
	c-3.465,1.998-6.314,4.265-8.547,6.797c-0.899,1.033-1.283,1.799-1.149,2.299s0.783,0.867,1.949,1.1l13.695,0.65
	c0.145-0.003,0.281-0.008,0.423-0.011c0.291,0.163,0.573,0.309,0.861,0.466c-1.435,1.517-3.095,3.857-4.983,7.042
	c-2.199,3.731-3.632,6.798-4.299,9.196c-0.366,1.334-0.383,2.184-0.05,2.55l2.649,0.1c3.099-0.633,6.964-2.199,11.596-4.698
	c4.707-2.554,8.334-5.164,10.911-7.831c0.178,0.039,0.352,0.071,0.528,0.107c-1.125,4.312-1.777,7.927-1.942,10.823
	c-0.1,1.532,0.033,2.382,0.399,2.549c0.3,0.133,1.133-0.167,2.5-0.9c2.766-1.499,5.881-3.814,9.346-6.947
	c2.498-2.252,4.304-4.225,5.43-5.924c3.706-0.943,7.427-2.548,11.164-4.822l1.849-1.75l2.049-2.998
	c3.732-5.598,6.564-9.496,8.497-11.695c4.998-5.599,11.279-10.58,18.843-14.945c0.866-0.5,1.2-0.883,1-1.149
	c-0.167-0.267-0.916-0.483-2.249-0.649l18.293-10.297c1.732-0.967,2.532-1.582,2.399-1.85c-0.133-0.266-1.166-0.449-3.099-0.549
	l-14.495,0.85l6.198-8.748c0.633-1.1,0.783-1.749,0.45-1.949l-2.499,0.35c-4.265,1.3-6.398,1.999-6.398,2.099
	c0.566-2.432,1.5-5.531,2.799-9.296c1.076-3.076,1.972-5.307,2.691-6.694c6.874,0.63,13.226-0.797,19.06-4.27
	c1.625,0.243,3.25,0.395,4.875,0.452c3.928,2.14,7.483,5.79,10.66,10.961c1.313,2.134,3.745,7.072,7.291,14.803l-1.992,5.34
	c-1.333,3.064-2.616,4.998-3.849,5.797c-2.699,1.833-7.331,4.232-13.895,7.198c-9.73,4.298-15.245,6.997-16.544,8.097
	l-11.496,10.297c-7.531,7.33-11.313,12.361-11.346,15.094c0,2.533,1.399,6.082,4.198,10.646c2.599,4.299,4.765,6.965,6.498,7.997
	l3.149,1.649l8.647,4.299c3.632,1.999,6.064,3.781,7.297,5.348c2.066,2.633,3.682,5.914,4.848,9.847
	c1.167,4.099,1.167,6.813,0,8.147c-1.233,1.432-4.848,3.881-10.846,7.347c-5.518,3.224-9.311,5.147-11.426,5.805
	c-1.884,0.063-5.385,1.256-10.517,3.593c-5.131,2.365-9.063,4.548-11.796,6.547c-1.166,0.867-1.716,1.649-1.649,2.35
	c0.1,0.666,0.75,1.166,1.949,1.499c1.562,0.461,3.542,0.684,5.932,0.672c-4.086,2.797-4.966,4.623-2.633,5.476
	c1.533,0.566,4.865,1.033,9.996,1.4c3.732,0.273,6.58,0.379,8.547,0.318c-0.9,1.243-1.686,2.486-2.35,3.729
	c-0.866,1.633-1,2.849-0.4,3.649c0.566,0.732,1.7,1.066,3.399,0.999c4.232-0.2,9.38-1.183,15.444-2.948
	c5.832-1.7,9.813-3.316,11.946-4.849c0.179-0.129,0.328-0.303,0.464-0.498c1.587-0.14,4.073-0.62,7.483-1.452
	c3.932-0.966,6.464-1.732,7.597-2.299l2.699-2.349l4.298-5.148l5.248-6.247c2.033-2.199,3.565-3.683,4.598-4.449
	c2.732-1.999,4.582-3.832,5.548-5.498c1.333-2.299,1.283-4.615-0.15-6.947c-0.767-1.266-2.533-3.099-5.298-5.498l-7.747-6.547
	c-2.333-2.033-4.548-4.6-6.648-7.697c-1.333-2-3.265-5.266-5.798-9.797c-1.815-3.23-3.495-6.111-5.043-8.658
	c6.791-1.959,13.995-3.432,21.638-4.387l18.643-1.7l13.729-1.535c1.789,0.63,3.804,1.42,6.064,2.386
	c5.859,2.515,10.249,4.238,13.19,5.186c1.517,1.907,3.019,3.728,4.503,5.46c5.698,6.598,10.113,10.612,13.245,12.046l8.047,2.549
	c8.53,2.532,14.528,4.432,17.994,5.697c7.164,2.6,11.413,4.865,12.746,6.799c2.399,3.598,4.615,8.313,6.647,14.145
	c2.466,7.031,3.465,12.828,2.999,17.394c-0.1,0.833-0.533,2.415-1.3,4.748l-2.099,6.298l-2.649,7.997
	c-0.408,1.427-0.578,2.517-0.518,3.281c-1.193,1.393-2.486,3.078-3.881,5.065c-3.632,5.199-5.998,9.547-7.098,13.046
	c-0.4,1.366-0.433,2.282-0.1,2.749c0.333,0.434,1.116,0.616,2.349,0.55c3.332-0.134,8.063-1.25,14.195-3.349
	c5.074-1.736,8.225-3.175,9.454-4.315l3.78,0.49c-0.239,2.061-0.409,4.286-0.489,6.724c-0.133,4.299,0.034,7.598,0.5,9.896
	c0.333,1.5,0.783,2.332,1.35,2.499s1.582-0.25,3.049-1.249c3.266-2.166,6.814-5.165,10.646-8.997
	c3.514-3.542,5.572-6.196,6.215-7.987c2.67-0.109,4.478-0.36,5.426-0.754c1.041,1.584,2.58,3.474,4.653,5.692
	c3.599,3.865,6.864,6.731,9.796,8.597c1.366,0.866,2.3,1.184,2.8,0.949c0.533-0.232,0.899-1.199,1.1-2.898
	c0.3-2.232,0.466-4.965,0.499-8.197c0.067-3.665-0.066-7.181-0.399-10.546c-0.066-0.662-0.237-1.345-0.467-2.039
	c1.617-1.212,2.711-2.811,3.266-4.809c0.833-3.165,0.25-7.164-1.749-11.995l-5.898-13.396c-2.398-5.165-4.265-8.797-5.598-10.896
	c-2.633-5.564-7.363-11.429-14.195-17.593c-1.532-1.367-7.83-6.432-18.893-15.195c-8.431-6.697-13.462-11.279-15.095-13.745
	c-1.5-2.266-2.815-5.481-3.949-9.646c-0.633-2.333-1.516-6.265-2.649-11.796l-2.149-10.096c-0.178-0.723-0.358-1.408-0.54-2.097
	c14.936,3.649,33.219,1.295,54.871-7.101c8.463-3.266,16.61-7.164,24.44-11.695c4.859-2.82,8.885-5.452,12.108-7.902
	c1.509,1.477,3.229,2.705,5.186,3.654c2.3,1.1,4.565,1.648,6.798,1.648c3.809,0,7.104-0.984,9.898-2.932
	c5.598-0.335,11.444,0.705,17.542,3.132c4.598,1.8,10.662,5.065,18.193,9.796c10.396,6.564,18.193,10.996,23.392,13.296
	c9.996,4.398,20.426,6.78,31.288,7.147c19.293,0.6,38.203-3.532,56.729-12.396c18.127-8.663,30.673-19.293,37.637-31.889
	C554.417,197.723,554.634,196.789,554.3,196.323z M182.734,189.726l0.001,0L182.734,189.726L182.734,189.726z"/>
</svg>
