<?xml version="1.0" encoding="utf-8"?>
<!-- Generator: Adobe Illustrator 16.0.0, SVG Export Plug-In . SVG Version: 6.00 Build 0)  -->
<!DOCTYPE svg PUBLIC "-//W3C//DTD SVG 1.1//EN" "http://www.w3.org/Graphics/SVG/1.1/DTD/svg11.dtd">
<svg version="1.1" id="图层_1" xmlns="http://www.w3.org/2000/svg" xmlns:xlink="http://www.w3.org/1999/xlink" x="0px" y="0px"
	 width="227px" height="196px" viewBox="0 0 227 196" enable-background="new 0 0 227 196" xml:space="preserve">
<path d="M215.208,102.773c5.57-14.32,7.527-28.688,5.851-43.103c-1.664-14.248-6.441-25.7-14.331-34.356
	c-4.528-4.927-8.106-6.891-10.736-5.893c-1.132,0.466-1.964,1.382-2.497,2.747c-0.566,1.398-0.883,3.529-0.949,6.392
	c-0.266,15.48-2.164,30.079-5.692,43.794c-3.628,14.148-8.905,27.065-15.829,38.75c-7.324,12.317-16.264,22.971-26.816,31.959
	c-8.668,7.402-18.088,13.35-28.236,17.886l-2.721-11.299c4.222-1.715,8.082-4.159,11.582-7.336
	c4.194-3.795,7.141-7.923,8.838-12.384c0.633-1.631,0.899-3.162,0.8-4.594c-0.101-1.299-0.517-2.381-1.249-3.246
	c-0.521-0.58-1.222-0.922-2.091-1.042c2.413-4.377,3.633-9.753,3.643-16.145c5.262-0.962,10.223-2.981,14.878-6.084
	c5.094-3.429,9.57-7.957,13.433-13.583c6.159-8.988,10.354-19.358,12.584-31.11c2.23-11.918,2.097-23.387-0.399-34.406
	c-0.865-3.829-1.998-7.008-3.396-9.538c-1.331-2.43-2.813-4.078-4.443-4.944c-2.896-1.564-7.258-1.215-13.084,1.049
	c-10.619,4.128-19.908,11.069-27.864,20.824c-7.872,9.696-12.967,20.41-15.303,32.135c-1.653-0.921-3.382-1.729-5.186-2.424
	c3.453-7.086,3.995-13.711,1.612-19.874c-1.231-3.196-3.063-5.959-5.493-8.29c-2.563-2.53-5.443-4.211-8.639-5.043l-4.994-0.3
	c-1.065,0.267-1.831,0.732-2.297,1.398c-0.932,1.332-0.566,3.362,1.099,6.092c2.796,4.527,4.394,10.237,4.794,17.128
	c0.109,2.106,0.094,4.138-0.024,6.111l-0.376-0.019c-6.888-0.098-13.296,0.987-19.233,3.236
	c-1.919-10.103-6.355-20.021-13.325-29.752C51.592,16.926,42.886,9.186,32.999,4.292c-8.623-4.328-15.331-5.393-20.125-3.196
	C8.114,3.293,4.635,9.085,2.438,18.474c-3.329,14.448-2.796,29.845,1.598,46.191C8.43,80.944,15.088,92.413,24.01,99.07
	c2.796,2.098,5.976,3.762,9.538,4.994c2.83,0.962,5.708,1.563,8.629,1.846c-0.346,8.321,1.685,14.933,6.102,19.826
	c2.064,2.297,5.043,4.229,8.938,5.793c1.718,0.69,3.425,1.232,5.121,1.64c-3.069,0.378-6.126,0.996-9.166,1.905
	c-4.694,1.398-8.573,3.23-11.635,5.494c-1.465,1.064-2.53,2.313-3.196,3.744c-0.666,1.365-0.849,2.631-0.549,3.796
	c0.266,0.999,0.882,1.897,1.848,2.696c1.465,1.099,3.529,1.798,6.192,2.098c3.296,0.366,6.608,0.35,9.938-0.051
	c2.047-0.247,4.015-0.631,5.907-1.148c-1.028,1.769-2.049,4.042-3.061,6.842c-1.831,4.994-2.747,9.604-2.747,13.832
	c0,3.145,0.667,5.683,1.983,7.63c-0.805,0.373-1.554,0.881-2.232,1.559c-1.531,1.432-2.214,3.18-2.047,5.243
	c0.167,1.731,0.932,3.13,2.297,4.195c1.998,1.531,4.428,2.08,7.291,1.647c3.838-0.623,6.729-2.76,8.695-6.368l1.991,0.275
	c4.528-0.066,11.785,0.034,21.772,0.301l4.594,0.149l1.985-0.197c1.411,3.461,3.72,5.684,6.953,6.639l3.895,0.35
	c1.232-0.133,2.28-0.482,3.146-1.048c1.432-0.966,2.246-2.331,2.446-4.096c0.134-1.231-0.2-2.563-0.999-3.994
	c-0.6-1.096-1.381-2.087-2.328-2.978c0.478-0.571,0.886-1.229,1.221-1.976c3.023,1.361,6.348,2.373,9.996,3.006
	c5.859,0.998,10.42,0.832,13.683-0.5c1.499-0.6,2.38-1.448,2.647-2.547c0.266-1.132-0.167-2.348-1.299-3.646
	c-0.082-0.094-0.178-0.186-0.265-0.279c6.05,0.748,12.031,0.616,17.942-0.419c5.859-1.066,11.086-2.896,15.68-5.494
	c3.296-1.863,5.643-3.845,7.041-5.941c1.132-1.632,1.581-3.097,1.348-4.395c-0.266-1.432-1.164-2.664-2.695-3.695
	c-1.632-1.1-3.829-1.881-6.592-2.348c-1.143-0.2-2.299-0.351-3.466-0.465c10.796-3.479,20.461-8.495,28.983-15.064
	c9.221-7.092,15.43-14.632,18.625-22.621c2.131-5.327,2.298-8.973,0.5-10.937C217.836,103.457,216.681,102.932,215.208,102.773z"/>
</svg>
