<?xml version="1.0" encoding="utf-8"?>
<!-- Generator: Adobe Illustrator 16.0.0, SVG Export Plug-In . SVG Version: 6.00 Build 0)  -->
<!DOCTYPE svg PUBLIC "-//W3C//DTD SVG 1.1//EN" "http://www.w3.org/Graphics/SVG/1.1/DTD/svg11.dtd">
<svg version="1.1" id="图层_1" xmlns="http://www.w3.org/2000/svg" xmlns:xlink="http://www.w3.org/1999/xlink" x="0px" y="0px"
	 width="223px" height="193px" viewBox="0 0 223 193" enable-background="new 0 0 223 193" xml:space="preserve">
<path d="M221.1,146.02c-1.902-10.676-8.941-19.984-21.119-27.925c-13.383-8.706-29.767-13.146-49.134-13.344
	c3.347-3.087,6.315-6.627,8.897-10.627c3.051-4.752,5.649-10.306,7.798-16.657c0.49-0.526,0.979-1.056,1.46-1.61
	c5.572-6.406,9.543-13.962,11.911-22.67c2.368-8.574,3.02-17.682,1.952-27.324c-0.734-6.606-2.887-11.61-6.456-15.014
	c-3.637-3.403-8.558-5.004-14.763-4.804c-2.233,0.071-4.505,0.32-6.81,0.73c-3.163-2.618-6.894-4.502-11.207-5.634
	c-4.571-1.168-9.409-1.418-14.513-0.75c-13.646,1.801-24.456,7.79-32.43,17.966c-2.519,3.199-4.669,6.725-6.461,10.567
	c-2.447-4.093-5.795-7.667-10.053-10.717C75.168,14.636,69.93,12.5,64.458,11.8c-5.671-0.701-10.959,0.05-15.864,2.252
	c-4.538,2.048-8.428,5.197-11.686,9.418c-2.213-0.281-4.44-0.389-6.681-0.31c-3.47,0.167-6.222,1.368-8.257,3.604
	c-1.602,1.801-2.803,4.32-3.604,7.557c-0.867,3.403-1.184,7.207-0.951,11.41c0.834,17.583,5.789,31.528,14.863,41.837
	c0.106,0.12,0.216,0.23,0.323,0.349l0.278,0.602l3.053,5.855c3.837,6.273,8.508,11.343,14.013,15.214
	c3.095,2.184,6.252,3.824,9.467,4.959c-13.68-0.708-25.364,1.02-35.04,5.199c-10.976,4.738-18.383,12.178-22.22,22.32
	c-2.102,5.572-2.669,11.01-1.702,16.314c0.968,5.438,3.336,9.476,7.106,12.111l0.751,0.199c0.2-0.1,0.283-0.333,0.25-0.699
	c-0.1-4.338,0.25-8.375,1.051-12.111c0.813-3.864,2.018-6.858,3.605-9.008c3.215-2.313,7.195-3.606,11.959-3.854l10.412,0.723
	c-1.155,3.651-1.56,7.131-1.204,10.438c0.367,3.536,1.584,6.605,3.653,9.207c2.269,2.836,5.371,4.938,9.308,6.307
	c3.283,1.151,6.804,1.653,10.559,1.513c-0.643,0.531-1.232,1.138-1.751,1.84c-1.401,1.868-2.235,4.104-2.502,6.706
	c-0.066,0.268-0.017,0.484,0.15,0.65l0.75-0.05c5.405-2.902,11.978-5.071,19.718-6.506l12.214-1.635
	c0.021,0.016,0.038,0.034,0.058,0.05c-1.378,0.744-2.617,1.738-3.714,2.986c-1.835,2.102-2.769,4.42-2.803,6.956
	c-0.033,2.569,0.834,4.421,2.603,5.556c2.569,1.701,5.605,2.035,9.108,1c3.736-1.101,6.739-3.436,9.008-7.006
	c0.834-1.223,1.514-2.6,2.056-4.114c0.801,0.053,1.61,0.097,2.448,0.11l3.553-0.348c1.286,2.718,2.621,4.838,4.004,6.354
	c2.201,2.436,4.854,4.137,7.957,5.104c3.035,0.935,5.504,0.834,7.406-0.3c1.568-0.969,2.418-2.569,2.553-4.805
	c0.1-2.27-0.568-4.488-2.002-6.656c-0.17-0.262-0.359-0.508-0.541-0.76c7.067,2.817,13.756,4.4,20.059,4.713
	c6.506,0.334,11.844-0.684,16.014-3.053c6.473-3.603,9.676-9.125,9.609-16.564c-0.029-6.53-2.662-11.557-7.893-15.082
	c0.864,0.023,1.74,0.033,2.637,0.019c18.25-0.267,30.061,1.351,35.432,4.854c1.137,0.737,2.088,1.543,2.864,2.411
	c-0.466,2.909-1.816,5.973-4.064,9.199c-2.103,2.97-4.153,5.055-6.155,6.255l-0.701,0.551c-0.233,0.367,0.017,0.567,0.751,0.602
	c8.007,0.4,14.347-2.035,19.017-7.307c2.235-2.536,3.837-5.473,4.805-8.809C221.516,152.727,221.699,149.356,221.1,146.02z
	 M56.101,147.321c4.794-0.06,8.731-0.884,11.819-2.465c-0.411,1.214-0.64,2.357-0.687,3.432c-5.226,3.187-10.587,4.564-16.086,4.087
	c-5.528-0.442-10.102-2.625-13.746-6.507l3.636,0.252L56.101,147.321z"/>
</svg>
