<?xml version="1.0" encoding="utf-8"?>
<!-- Generator: Adobe Illustrator 16.0.0, SVG Export Plug-In . SVG Version: 6.00 Build 0)  -->
<!DOCTYPE svg PUBLIC "-//W3C//DTD SVG 1.1//EN" "http://www.w3.org/Graphics/SVG/1.1/DTD/svg11.dtd">
<svg version="1.1" id="图层_1" xmlns="http://www.w3.org/2000/svg" xmlns:xlink="http://www.w3.org/1999/xlink" x="0px" y="0px"
	 width="158px" height="226px" viewBox="0 0 158 226" enable-background="new 0 0 158 226" xml:space="preserve">
<path d="M153.733,71.678c2.271-6.478,3.256-13.224,2.956-20.236c-0.168-4.575-1.035-8.682-2.605-12.322
	c-1.535-3.54-3.489-6.061-5.86-7.563c-1.77-1.102-3.974-1.219-6.611-0.351c-2.538,0.835-5.109,2.421-7.714,4.758
	c-1.816,1.653-3.379,3.405-4.744,5.233c-0.276-1.901-0.861-3.845-1.768-5.834c-1.636-3.673-3.79-5.576-6.461-5.71
	c-3.172-0.2-6.312,2.571-9.417,8.315c-2.973,5.455-4.08,10.624-3.368,15.516c-1.587-0.584-3.198-1.122-4.846-1.592
	c-6.625-1.889-13.236-2.706-19.837-2.476c3.301-9.573,5.032-18.105,5.16-25.573C88.785,15.763,87.1,9.518,83.56,5.11
	c-3.105-3.907-7.146-5.577-12.122-5.009c-5.042,0.601-8.565,3.239-10.569,7.914c-2.371,5.543-2.721,12.088-1.052,19.635
	c1.754,7.827,5.482,15.622,11.153,23.386c-7.412,1.65-14.277,4.474-20.603,8.457c0-5.238-2.054-10.476-6.178-15.714
	c-4.475-5.71-8.599-8.081-12.372-7.113c-2.571,0.668-4.241,3.172-5.009,7.514c-0.455,2.66-0.497,5.137-0.147,7.44
	c-2.168-2.406-4.606-4.353-7.316-5.838c-5.577-3.039-10.201-3.356-13.875-0.952c-2.404,1.603-4.024,4.909-4.858,9.917
	c-0.835,5.042-0.635,10.469,0.601,16.279c1.369,6.412,3.79,12.021,7.263,16.83c3.557,4.85,7.905,8.417,13.04,10.705
	c-0.819,4.213-1.085,8.54-0.769,12.987c0.668,9.851,4.809,18.332,12.422,25.445c5.125,4.813,11.628,8.795,19.473,11.97
	c-0.255,1.432-0.439,2.915-0.54,4.459c-0.094,1.377-0.11,2.69-0.064,3.954c-5.32,4.269-11.402,6.724-18.268,7.316
	c-1.002,0.1-1.854,0.4-2.555,0.9c-0.735,0.535-1.202,1.186-1.402,1.954c-0.434,1.804,0.534,3.507,2.905,5.108
	c2.872,1.904,6.528,3.123,10.97,3.657c3.078,0.373,6.155,0.384,9.233,0.063c-1.983,8.104-2.243,15.748-0.768,22.929
	c1.202,5.977,3.59,11.437,7.163,16.379c2.003,2.738,4.358,5.025,7.063,6.861c2.604,1.804,4.809,2.688,6.612,2.654
	c2.17-0.066,4.107-2.27,5.81-6.611c1.604-4.107,2.305-8.131,2.104-12.071c2.538,0.2,4.525,0.233,5.961,0.101
	c0.852-0.077,1.709-0.243,2.572-0.478c0.951,5.027,2.741,9.333,5.393,12.899c2.604,3.473,5.059,5.143,7.362,5.009
	c1.103-0.067,2.638-1.068,4.608-3.005c2.104-2.037,3.939-4.392,5.51-7.063c3.205-5.477,5.242-11.17,6.11-17.08
	c1.4-9.299-0.129-18.598-4.584-27.896c3.295-0.772,6.446-1.933,9.442-3.51c4.542-2.371,6.846-4.926,6.912-7.664
	c0.067-4.141-1.085-8.414-3.455-12.822c-0.637-1.195-1.283-2.228-1.938-3.115c6.741-4.912,12.005-10.663,15.763-17.271
	c4.441-7.78,6.361-16.028,5.76-24.744c-0.323-4.585-1.233-8.934-2.712-13.052C147.985,83.479,151.367,78.442,153.733,71.678z
	 M115.341,149.335c-0.001-0.007-0.001-0.013-0.002-0.02c0.118-0.044,0.224-0.089,0.331-0.133
	C115.569,149.234,115.456,149.285,115.341,149.335z"/>
</svg>
