<?xml version="1.0" encoding="utf-8"?>
<!-- Generator: Adobe Illustrator 16.0.0, SVG Export Plug-In . SVG Version: 6.00 Build 0)  -->
<!DOCTYPE svg PUBLIC "-//W3C//DTD SVG 1.1//EN" "http://www.w3.org/Graphics/SVG/1.1/DTD/svg11.dtd">
<svg version="1.1" id="图层_1" xmlns="http://www.w3.org/2000/svg" xmlns:xlink="http://www.w3.org/1999/xlink" x="0px" y="0px"
	 width="251px" height="284px" viewBox="0 0 251 284" enable-background="new 0 0 251 284" xml:space="preserve">
<path d="M247.205,28.079c-1.631-6.223-4.426-11.432-8.387-15.625c-3.928-4.16-7.721-6.007-11.382-5.541
	c-3.459,0.432-5.872,2.808-7.252,7.102c-2.225-2.409-4.433-4.084-6.626-5.005c-2.33-0.965-4.459-1.015-6.39-0.15
	c-2.097,0.898-3.678,2.596-4.743,5.092c-1.025,2.324-1.401,4.924-1.142,7.795c-2.343-0.296-4.727-0.364-7.151-0.201
	c-0.508-1.799-1.229-3.359-2.189-4.649c-2.662-3.561-6.689-3.811-12.081-0.749c-3.353,1.888-6.11,4.385-8.286,7.477
	c0.167-4.661-0.511-8.225-2.047-10.672c-1.199-1.83-2.746-2.912-4.643-3.245c-3.129-0.566-6.507,1.015-10.135,4.743
	c-3.43,3.489-5.975,7.837-7.645,13.035c-4.859-1.848-9.979-3.087-15.369-3.7c-9.377-1.04-18.686-0.079-27.925,2.872
	c-1.206-5.931-3.288-10.824-6.27-14.653c-2.896-3.694-5.774-5.491-8.636-5.392c-1.664,0.033-3.062,0.865-4.193,2.496
	c-0.91,1.279-1.587,2.972-2.06,5.028c-3.726-3.932-7.018-5.549-9.871-4.828c-3.295,0.84-5.646,4.023-7.06,9.534
	c-5.27-2.794-11.199-4.302-17.801-4.492c-1.723-0.053-3.376,0.001-4.975,0.14c-0.082-2.534-0.605-4.706-1.614-6.48
	c-0.999-1.764-2.346-2.929-4.043-3.495c-2.792-0.931-5.483,0.008-8.072,2.813c-0.924-3.697-2.624-5.971-5.107-6.807
	c-3.561-1.198-7.604,0.616-12.13,5.441c-4.526,4.759-7.688,10.517-9.485,17.272C0.365,31.158-0.4,37.764,0.199,43.055
	c0.425,3.827,1.543,6.55,3.326,8.214C2.138,61.289,4.3,70.833,10.033,79.896c6.29,9.984,15.193,16.324,26.708,19.02
	c-6.523,4.626-11.116,9.784-13.778,15.475c-2.197,4.626-2.962,9.269-2.296,13.928c1.032,7.056,4.826,11.282,11.382,12.68
	c2.762,0.566,5.508,0.399,8.237-0.499c2.795-0.932,5.075-2.529,6.839-4.792c3.561-4.526,5.358-10.05,5.391-16.573
	c0.033-6.357-1.581-12.88-4.842-19.569c8.321-0.752,15.684-3.606,22.097-8.546c2.221,9.615,5.962,17.614,11.25,23.972
	c4.991,6.034,11.509,10.749,19.536,14.162c-0.239,0.788-0.453,1.613-0.616,2.512c-0.424,2.3-0.558,4.717-0.418,7.243
	c-12.426,5.236-18.703,9.147-18.801,11.727c-0.066,2.229,1.498,5.874,4.692,10.933c2.823,4.44,7.13,10.289,12.886,17.511
	c-1.862,1.079-3.678,2.476-5.447,4.204c-3.461,3.429-5.225,6.873-5.292,10.334c-0.133,6.023,3.677,11.082,11.432,15.176
	c2.351,1.244,4.93,2.3,7.688,3.209c-1.043,4.197-3.169,10.26-6.39,18.207c-3.395,8.287-5.508,12.863-6.34,13.729
	c-0.566,0.565-1.781,1.297-3.644,2.196c-6.257,3.028-11.033,6.239-14.327,9.634c-5.092,5.226-6.506,10.717-4.244,16.475
	c0.932,2.396,2.646,4.343,5.142,5.84c2.429,1.465,5.108,2.23,8.037,2.297c3.295,0.1,6.473-0.732,9.535-2.496
	c3.661-2.097,6.423-5.208,8.287-9.335c1.331-2.929,4.293-11.831,8.886-26.708l8.018-26.965c1.946,0.253,3.978,0.435,6.062,0.574
	c0.249,2.96,0.052,6.608-0.601,10.966l-2.346,12.78l-3.495,19.219c-0.965,6.356-0.999,10.75-0.1,13.18
	c0.965,2.596,2.995,4.809,6.09,6.639c2.995,1.764,6.273,2.813,9.834,3.145c2.961,0.3,5.591,0.051,7.887-0.748
	c2.463-0.832,4.277-2.18,5.441-4.044c2.596-4.227,2.68-8.52,0.25-12.88c-1.231-2.195-3.91-5.258-8.037-9.185
	c-1.531-1.464-2.513-2.513-2.945-3.146c-0.865-1.298-1.049-6.289-0.549-14.976c0.408-7.733,1.133-14.791,2.165-21.188
	c6.469-0.755,12.588-2.441,18.352-5.071c8.387-3.86,12.813-7.953,13.278-12.28c0.367-3.194-1.181-6.772-4.643-10.732
	c-2.45-2.792-5.201-5.177-8.23-7.188c0.848-8.033-0.518-13.109-4.1-15.228c-3.062-1.797-6.723-1.847-10.982-0.149
	c-0.342,0.136-0.676,0.301-1.013,0.456l-0.026-1.996c0.465,0.003,0.928-0.023,1.389-0.107c2.67-0.479,5.072-2.192,7.209-5.13
	c3.339,3.6,7.782,7.553,13.358,11.869c5.292,4.027,9.468,6.823,12.53,8.387c2.928,1.464,9.035,3.395,18.32,5.791
	c10.45,2.662,16.457,3.378,18.021,2.146c0.533-0.399,0.716-0.915,0.549-1.548c-0.532-2.396-3.544-4.959-9.035-7.688
	c-2.896-1.432-8.004-3.527-15.326-6.29l-7.139-2.896c-4.992-2.563-9.95-5.924-14.876-10.084c-4.277-3.579-8.031-7.362-11.313-11.329
	c0.47-2.054,0.771-4.165,0.88-6.342c0.229-4.118-0.237-7.638-1.389-10.568c8.877-4.615,15.782-11.605,20.707-20.981
	c1.365-2.575,2.495-5.196,3.4-7.862c5.226,1.795,11.356,2.627,18.415,2.47c-1.764,6.922-2.745,13.063-2.945,18.421
	c-0.333,8.187,1.182,14.094,4.543,17.722c3.194,3.495,7.487,4.726,12.88,3.694c5.69-1.131,9.318-4.509,10.883-10.134
	c1.064-3.794,0.698-8.12-1.099-12.979c-2.33-6.257-6.806-12.397-13.429-18.421c10.85-3.361,18.736-9.618,23.662-18.77
	c3.86-7.188,5.425-14.71,4.692-22.564c-0.089-0.985-0.215-1.949-0.358-2.903c1.125,0.737,2.243,1.209,3.354,1.406
	c1.398,0.233,2.613,0.05,3.645-0.549c2.795-1.597,4.56-5.292,5.291-11.082C249.484,40.875,248.969,34.669,247.205,28.079z
	 M106.03,158.222c2.762,3.462,5.758,4.909,8.986,4.343c0.12-0.021,0.237-0.056,0.355-0.08l-0.138,1.289
	c-2.918-0.894-5.572-0.853-7.956,0.139c-2.513,1.041-4.209,3.263-5.092,6.66l-2.545-7.559l-2.896-8.985
	c0.669-0.607,2.519-1.455,5.521-2.535C103.283,154.08,104.534,156.328,106.03,158.222z"/>
</svg>
