<?xml version="1.0" encoding="utf-8"?>
<!-- Generator: Adobe Illustrator 16.0.0, SVG Export Plug-In . SVG Version: 6.00 Build 0)  -->
<!DOCTYPE svg PUBLIC "-//W3C//DTD SVG 1.1//EN" "http://www.w3.org/Graphics/SVG/1.1/DTD/svg11.dtd">
<svg version="1.1" id="图层_1" xmlns="http://www.w3.org/2000/svg" xmlns:xlink="http://www.w3.org/1999/xlink" x="0px" y="0px"
	 width="314px" height="450px" viewBox="0 0 314 450" enable-background="new 0 0 314 450" xml:space="preserve">
<path d="M307.909,99.472c-7.603-4.601-21.255-7.802-40.96-9.602c-11.82-1.076-22.696-1.217-32.645-0.44
	c12.092-3.393,23.351-6.929,33.745-10.612c19.038-6.801,30.79-12.703,35.259-17.704c2.467-2.734,3.833-6.418,4.101-11.053
	c0.3-5.001-1.2-7.985-4.501-8.952c-8.803-2.534-23.672,0.4-44.61,8.802c-9.289,3.73-17.917,7.779-25.898,12.139
	c12.835-10.356,22.906-19.24,30.199-26.643c8.202-8.335,13.687-15.62,16.454-21.854c1.434-3.268,1.166-6.385-0.801-9.352
	c-1.934-2.934-4.5-4.318-7.701-4.151c-3.801,0.2-9.285,2.501-16.454,6.902c-6.835,4.167-14.169,9.585-22.005,16.253
	c-17.971,15.304-30.156,29.173-36.559,41.609c-0.005,0.009-0.001,0.024-0.005,0.034c-1.809-1.55-3.845-3.188-6.111-4.915
	c2.67-5.896,3.424-13.556,2.216-23.025c-1.233-9.902-3.984-16.92-8.252-21.055c-2.634-2.567-7.018-1.75-13.152,2.451
	c-5.502,3.783-9.178,7.862-11.074,12.231c-0.61-1.011-1.22-2.052-1.829-3.129c-2.867-5.068-6.318-12.086-10.352-21.055
	c-0.467-1-0.867-1.467-1.2-1.4c-0.4,0.033-0.667,0.65-0.8,1.851c-0.942,7.885-2.462,15.32-4.518,22.338
	c-4.205-3.436-9.193-5.857-14.986-7.235c-6.201-1.467-10.235-1.017-12.103,1.351c-2.934,3.667-4.351,9.769-4.251,18.304
	c0.052,7.136,1.29,13.17,3.679,18.134c-10.999-8.47-23.789-16.533-38.387-24.185c-17.671-9.302-31.958-14.953-42.86-16.954
	c-2.601-0.5-5.151-0.117-7.652,1.15c-2.333,1.2-4.201,2.951-5.601,5.251c-1.434,2.367-2.083,4.851-1.95,7.452
	c0.2,2.867,1.367,5.435,3.5,7.702c7.375,7.92,17.379,15.175,29.996,21.769c-2.247-0.398-4.48-0.759-6.691-1.064
	c-12.469-1.7-23.572-1.867-33.307-0.5c-2.367,0.333-4.451,1.517-6.251,3.551c-1.734,1.934-2.851,4.234-3.351,6.901
	c-1.167,6.468,1.25,11.353,7.251,14.653c14.5,8.008,33.306,12.929,56.389,14.782c-7.143,0.489-13.874,1.21-20.181,2.171
	c-17.537,2.667-30.24,6.935-38.108,12.803c-1.5,1.133-2.634,2.817-3.401,5.051c-0.733,2.234-0.934,4.518-0.6,6.852
	c0.833,5.768,4.251,9.136,10.252,10.103c8.935,1.467,18.871,1.667,29.807,0.6c12.16-1.205,24.706-3.937,37.631-8.176
	c-5.44,3.871-10.833,8.337-16.176,13.427c-12.936,12.37-22.055,24.389-27.356,36.058c-2.201,4.834-1.184,8.985,3.05,12.453
	c4.168,3.368,8.485,3.884,12.953,1.55c13.503-7.135,26.989-17.987,40.459-32.557c9.749-10.524,17.445-20.577,23.101-30.159
	c5.793,5.949,14.175,10.387,25.16,13.305c5.242,1.379,10.375,2.253,15.403,2.643v4.258c-13.503,6.135-25.806,11.886-36.908,17.254
	c-21.771,10.536-32.674,16.787-32.707,18.754c-0.067,2.667,4.567,9.702,13.903,21.105c4.006,4.882,7.768,9.296,11.297,13.261
	c-3.06,5.26-4.936,10.36-5.596,15.294c-0.7,5.269,0.217,8.77,2.751,10.503c1.116,0.779,2.587,1.006,4.391,0.712
	c-0.502,3.256-0.449,6.436,0.16,9.541c0.531,2.702,1.354,4.456,2.461,5.29l-1.361,2.761c-0.767,1.701-1.067,2.635-0.9,2.801
	c1.725,1.701,5.519,3.354,11.366,4.958c-2.751,3.923-9.871,15.702-21.368,35.351l-19.254,33.058c-1.134,1.935-0.834,3.317,0.9,4.151
	c2.997,1.444,6.629,2.836,10.877,4.176c-1.949,4.254-5.053,9.741-9.327,16.479l-13.503,20.854
	c-8.202,12.87-14.07,22.306-17.604,28.307c-5.501,9.202-8.585,15.22-9.252,18.054c-0.067,0.334,0.067,0.584,0.4,0.75
	c7.969,4.102,21.705,7.485,41.209,10.152c18.104,2.534,38.525,4.102,61.264,4.701c22.706,0.634,43.509,0.217,62.414-1.25
	c20.305-1.601,35.158-4.185,44.56-7.752c0.367-0.167,0.518-0.434,0.451-0.8c-1.602-8.535-4.719-22.572-9.353-42.109
	c-4.603-19.24-7.772-31.189-9.52-35.887c2.896-0.519,5.458-1.124,7.669-1.821c0.4-0.101,0.566-0.351,0.5-0.751
	c-1.1-9.335-5.534-24.038-13.303-44.109c-6.85-17.586-12.295-29.015-16.34-34.3c4.406-0.6,7.489-1.468,9.238-2.608
	c0.7-0.467-2.451-9.319-9.452-26.556c-0.814-1.989-1.599-3.875-2.358-5.685c0.807-0.019,1.548-0.227,2.209-0.667
	c1.033-0.667,1.783-1.734,2.25-3.201c1.631-5.22,0.701-11.896-2.775-20.021c1.224-3.02,3.165-9.564,5.826-19.637
	c3.334-12.436,4.817-19.304,4.451-20.604c-0.396-1.385-10.284-6.879-29.651-16.479c-1.576-3.353-3.51-5.501-5.808-6.426
	c-2.048-0.832-4.192-0.663-6.432,0.485c-8.837-4.241-14.601-6.923-17.273-8.037l-0.332-4.196c1.218-0.072,2.429-0.172,3.633-0.305
	c12.803-1.367,23.455-6.601,31.957-15.703c1.497-1.598,2.838-3.245,4.047-4.932c8.685,8.191,19.968,16.769,33.861,25.736
	c15.838,10.236,27.924,16.054,36.259,17.454c4.868,0.833,8.719-0.55,11.553-4.151c2.733-3.434,3.251-6.918,1.55-10.452
	c-3.4-7.168-14.203-16.054-32.406-26.656c-10.794-6.265-21.077-11.45-30.855-15.57c14.325,2.72,28.012,4.877,41.057,6.468
	c18.238,2.234,29.807,2.567,34.708,1c3.968-1.267,6.802-4.435,8.502-9.502C311.576,104.757,310.909,101.306,307.909,99.472z
	 M198.834,192.393c0.621-3.319,0.828-6.913,0.663-10.756c1.586,0.59,3.205,1.239,4.889,2.004c2.634,1.234,4.335,2.217,5.101,2.951
	c-0.566,2.868-1.666,6.518-3.3,10.953c-1.341,3.575-2.454,6.185-3.342,7.843c-0.856-0.526-1.737-0.989-2.645-1.387
	c-0.963-1.709-2.029-3.562-3.202-5.557C197.771,196.844,198.387,194.838,198.834,192.393z M141.529,171.929
	c-0.043,2.447,0.146,5.072,0.567,7.874c-0.535,1.784-1.693,4.946-3.475,9.489c-1.989,5.177-3.432,8.526-4.33,10.051
	c-0.491,0.14-0.995,0.3-1.521,0.501c-3.304,1.235-6.549,3.354-9.739,6.333c-3.79-4.081-8.851-9.498-15.217-16.285
	c2.867-2.134,8.785-5.535,17.754-10.202C133.338,175.583,138.655,172.999,141.529,171.929z"/>
</svg>
