<?xml version="1.0" encoding="utf-8"?>
<!-- Generator: Adobe Illustrator 16.0.0, SVG Export Plug-In . SVG Version: 6.00 Build 0)  -->
<!DOCTYPE svg PUBLIC "-//W3C//DTD SVG 1.1//EN" "http://www.w3.org/Graphics/SVG/1.1/DTD/svg11.dtd">
<svg version="1.1" id="图层_1" xmlns="http://www.w3.org/2000/svg" xmlns:xlink="http://www.w3.org/1999/xlink" x="0px" y="0px"
	 width="157px" height="140px" viewBox="0 0 157 140" enable-background="new 0 0 157 140" xml:space="preserve">
<path d="M144.777,31.664c-4.695-6.792-10.821-12.936-18.38-18.43C112.279,2.944,94.615-1.334,73.404,0.397
	c-12.42,0.999-24.257,4.428-35.512,10.289c-12.687,6.593-22.093,15.117-28.22,25.573C2.613,48.379-0.45,61.931,0.482,76.915
	c0.965,15.55,6.11,27.987,15.433,37.31c15.717,15.717,37.31,23.226,64.781,22.526c14.651-0.333,26.805-2.647,36.461-6.942
	c7.126-3.197,13.618-7.925,19.479-14.186c11.688-12.486,17.797-29.285,18.33-50.396C155.267,53.141,151.87,41.953,144.777,31.664z"
	/>
</svg>
