<?xml version="1.0" encoding="utf-8"?>
<!-- Generator: Adobe Illustrator 16.0.0, SVG Export Plug-In . SVG Version: 6.00 Build 0)  -->
<!DOCTYPE svg PUBLIC "-//W3C//DTD SVG 1.1//EN" "http://www.w3.org/Graphics/SVG/1.1/DTD/svg11.dtd">
<svg version="1.1" id="图层_1" xmlns="http://www.w3.org/2000/svg" xmlns:xlink="http://www.w3.org/1999/xlink" x="0px" y="0px"
	 width="189px" height="217px" viewBox="0 0 189 217" enable-background="new 0 0 189 217" xml:space="preserve">
<path d="M182.359,82.111c-6.031-15.26-14.043-27.171-24.039-35.733c-8.096-6.93-17.858-11.895-29.287-14.894
	c-1.732-0.466-2.981-1.016-3.748-1.649c-0.6-0.5-1.182-1.316-1.748-2.449c-5.231-10.562-12.828-18.208-22.79-22.939
	C91.718,0.182,82.389-1.05,72.76,0.749C63.897,2.381,56.201,6.613,49.67,13.443c-7.53,7.83-11.728,17.559-12.594,29.187
	c-9.862,6.464-18.258,16.459-25.188,29.986c-7.363,14.46-11.245,29.636-11.645,45.529c-0.333,13.894,1.383,26.404,5.147,37.533
	c3.865,11.395,9.696,20.773,17.492,28.137c1.066,1,1.749,2.016,2.049,3.049l0.2,1.898c0.466,12.994,5.314,21.008,14.543,24.039
	c4.598,1.5,9.396,1.75,14.394,0.75c5.165-1,9.812-3.166,13.944-6.497c6.13,2.765,13.594,4.498,22.39,5.198l22.589-0.801
	c9.796-1.633,17.925-4.248,24.389-7.846c3.478-1.936,6.497-4.189,9.104-6.729c4.326,2.531,9.877,3.488,16.685,2.83
	c8.93-0.833,15.377-4.881,19.342-12.145c2.865-5.197,4.23-10.961,4.098-17.292c-0.133-5.364-1.217-10.079-3.248-14.144
	c-0.585-1.18-1.239-2.188-1.946-3.061c3.97-8.501,6.121-19.753,6.444-33.772C188.189,104.601,186.357,92.207,182.359,82.111z"/>
</svg>
