<?xml version="1.0" encoding="utf-8"?>
<!-- Generator: Adobe Illustrator 16.0.0, SVG Export Plug-In . SVG Version: 6.00 Build 0)  -->
<!DOCTYPE svg PUBLIC "-//W3C//DTD SVG 1.1//EN" "http://www.w3.org/Graphics/SVG/1.1/DTD/svg11.dtd">
<svg version="1.1" id="图层_1" xmlns="http://www.w3.org/2000/svg" xmlns:xlink="http://www.w3.org/1999/xlink" x="0px" y="0px"
	 width="554px" height="274px" viewBox="0 0 554 274" enable-background="new 0 0 554 274" xml:space="preserve">
<path d="M546.001,106.78c-4.466-3.033-9.898-4.933-16.297-5.699c-1.294-0.149-2.565-0.223-3.819-0.24
	c-0.242-3.872-1.035-7.475-2.38-10.808c-1.322-3.217-3.07-5.928-5.235-8.142c3.166-2.175,5.85-4.59,8.035-7.255
	c2.532-3.099,4.599-6.765,6.198-10.998c1.8-4.766,2.5-9.031,2.1-12.797c-0.233-1.966-0.8-3.816-1.699-5.549
	c-0.934-1.767-2.1-3.2-3.499-4.299c-4.767-3.699-10.266-4.716-16.497-3.05c-5.799,1.566-10.815,4.982-15.048,10.249
	c-2.666,3.266-4.865,6.932-6.599,10.998c-0.565,1.339-1.097,2.783-1.603,4.31c-3.104-0.909-6.151-1.567-9.141-1.973
	c-0.557-1.79-1.415-3.472-2.604-5.036c-1.232-1.6-2.8-2.883-4.699-3.849c-1.933-1-4.065-1.583-6.398-1.75
	c-4.433-0.367-8.766,0.867-12.998,3.7c-4.232,2.833-7.415,6.632-9.548,11.397c-0.271,0.613-0.517,1.234-0.747,1.859
	c-10.461,4.388-19.539,9.924-27.198,16.638c-8.665,7.632-15.73,16.963-21.196,27.995c-6.932,0.267-13.197,1.9-18.796,4.899
	c-4.705,2.542-8.763,5.926-12.189,10.131c-3.268-19.191-11.43-34.73-24.486-46.617c0.404-0.288,0.813-0.586,1.232-0.907
	c3.433-2.6,6.432-5.666,8.998-9.198c4.666-6.366,8.049-12.998,10.148-19.896c1.833-6.132,2.849-13.147,3.049-21.046
	c0.134-6.166-0.833-11.648-2.899-16.447c-1.966-4.599-4.683-7.999-8.148-10.198c-3.633-2.267-7.865-3.316-12.697-3.149
	c-5.333,0.167-11.031,1.799-17.098,4.899c-5.332,2.7-10.164,6.332-14.497,10.898c-4.499,4.699-8.132,10.031-10.898,15.997
	c-2.633,5.732-4.432,11.831-5.398,18.297c-0.098,0.674-0.178,1.311-0.253,1.938c-8.828-3.177-18.474-4.075-28.942-2.688
	c-9.686,1.316-17.37,4.126-23.105,8.391c-1.456-4.851-3.697-9.813-6.739-14.89c-3.333-5.532-7.399-10.481-12.198-14.847
	c-4.799-4.333-10.148-7.915-16.047-10.748c-6.732-3.233-13.081-4.949-19.046-5.149c-5.965-0.233-10.765,1.066-14.397,3.899
	c-3.466,2.666-5.932,6.432-7.398,11.298c-2.066,6.665-2.1,15.014-0.1,25.045c2.833,14.031,9.249,26.028,19.247,35.993
	c2.533,2.533,5.666,4.849,9.398,6.949c0.663,0.379,1.321,0.726,1.98,1.071c-4.659,7.021-8.194,14.641-10.579,22.875
	c-2.531,8.73-3.845,18.48-3.974,29.223c-8.061-3.121-15.086-3.667-21.071-1.628c-4.333-8.299-9.115-15.481-14.348-21.546
	c-3.917-4.575-8.609-9.03-14.059-13.369c0.474-2.688,0.595-5.397,0.361-8.127c-0.533-6.632-3.283-11.098-8.249-13.397
	c-2-0.933-4.283-1.417-6.849-1.45c-2.566-0.033-4.999,0.4-7.299,1.3c-2.758,1.142-5.268,2.812-7.543,4.979
	c-5.97-2.161-12.217-3.346-18.751-3.53L73.64,92.15c-0.903-3.671-2.232-7.128-4.002-10.366c-3.366-6.099-7.832-10.715-13.397-13.848
	c-6.032-3.366-11.581-3.799-16.647-1.299c-5.032,2.499-7.882,7.215-8.548,14.147c-0.6,6.432,0.733,13.114,3.999,20.046
	c1.268,2.656,2.773,5.123,4.508,7.409c-2.317,2.735-4.074,5.184-5.257,7.339c-2.664,4.934-4.271,10.563-4.846,16.872
	c-1.194-0.309-2.333-0.556-3.403-0.725c-4.5-0.667-8.665-0.45-12.498,0.65c-2.933,0.833-5.399,2.083-7.398,3.75
	c-1.8,1.467-3.25,3.332-4.349,5.599c-1.066,2.233-1.667,4.532-1.8,6.899c-0.233,5.165,1.766,9.848,5.999,14.047
	c4.732,4.766,11.165,7.432,19.296,7.998c4.429,0.312,8.668,0.068,12.727-0.705c9.06,15.824,22.392,27.23,40.014,34.199
	c9.598,3.766,20.413,5.949,32.444,6.549c12.664,0.667,24.595-0.55,35.793-3.648c5.965,3.932,13.947,5.582,23.945,4.948
	c7.483-0.508,14.556-2.282,21.223-5.319c2.722,6.332,6.619,12.605,11.722,18.816c5.565,6.799,11.481,12.148,17.747,16.048
	c6.832,4.266,13.564,7.349,20.196,9.248c4.333,1.267,9.115,2.1,14.348,2.499l2.051-0.152c1.781,2.741,3.927,5.261,6.447,7.552
	c2.733,2.565,5.649,4.632,8.749,6.198c6.532,3.3,13.698,4.3,21.497,3c7.598-1.267,14.014-4.383,19.246-9.348
	c5.433-5.199,8.565-11.948,9.398-20.247c0.11-1.11,0.167-2.213,0.189-3.31c13.284-5.07,24.175-15.056,32.654-29.984
	c5.205-9.125,8.751-18.233,10.673-27.327c10.533,3.927,21.589,5.239,33.169,3.932c12.798-1.433,22.513-5.366,29.145-11.798
	c18.83,3.033,36.41,1.116,52.741-5.749c16.207-6.802,28.271-17.316,36.215-31.523c3.702,1.174,7.576,1.836,11.626,1.979
	c3.899,0.134,7.682-0.399,11.348-1.6c3.6-1.167,6.466-2.783,8.599-4.849c1.399-1.333,2.5-2.933,3.3-4.799
	c0.767-1.833,1.149-3.733,1.149-5.699C553.649,114.512,551.1,110.246,546.001,106.78z"/>
</svg>
