<?xml version="1.0" encoding="utf-8"?>
<!-- Generator: Adobe Illustrator 16.0.0, SVG Export Plug-In . SVG Version: 6.00 Build 0)  -->
<!DOCTYPE svg PUBLIC "-//W3C//DTD SVG 1.1//EN" "http://www.w3.org/Graphics/SVG/1.1/DTD/svg11.dtd">
<svg version="1.1" id="图层_1" xmlns="http://www.w3.org/2000/svg" xmlns:xlink="http://www.w3.org/1999/xlink" x="0px" y="0px"
	 width="204px" height="216px" viewBox="0 0 204 216" enable-background="new 0 0 204 216" xml:space="preserve">
<path d="M202.482,132.447c-1.099-5.063-3.229-9.873-6.394-14.434c-1.465-2.132-3.979-5.162-7.541-9.091
	c1.632,0.666,4.212,2.099,7.741,4.295c1.398,0.865,1.947,0.634,1.646-0.698c-0.231-1.1-0.865-2.463-1.896-4.096
	c-5.262-8.291-12.502-15.616-21.725-21.975c-10.723-7.425-21.941-11.803-33.662-13.135c-5.594-0.633-10.805,0.066-15.631,2.097
	c-4.795,1.998-8.625,5.044-11.487,9.14c-2.63,3.762-4.111,8.324-4.444,13.684c-0.098,1.506-0.089,2.959,0.003,4.371
	c-0.597-0.357-1.188-0.714-1.801-1.074c-9.689-5.693-17.047-11.204-22.075-16.531c-1.805-1.913-3.348-3.863-4.679-5.843
	c0.672,0.002,1.273-0.043,1.783-0.15c1.898-0.4,4.329-2.064,7.292-4.994c2.83-2.83,4.461-5.044,4.895-6.643
	c0.5-1.731-1.132-5.394-4.895-10.987c-1.996-2.96-3.961-5.464-5.897-7.522c2.544-0.408,3.746-0.781,3.6-1.118
	c-0.233-0.566-0.949-1.332-2.147-2.297c-1.199-0.965-2.497-1.831-3.896-2.597l8.291,0.849l6.243,1.199l2.048,0.549
	c0.167-0.133-0.216-1.082-1.149-2.847c-1.897-3.596-4.578-6.759-8.041-9.489c-1.931-1.565-4.345-3.097-7.242-4.595l5.494-0.849
	c2.364-0.366,3.396-0.699,3.096-0.999c-0.299-0.266-1.381-0.782-3.246-1.548l-4.195-1.648c1.165-0.732,2.946-1.548,5.344-2.447
	c1.897-0.733,3.662-1.315,5.294-1.748c1.298-0.366,1.897-0.683,1.798-0.949c-0.067-0.267-0.716-0.649-1.948-1.149
	c-2.897-1.166-6.942-1.998-12.136-2.497c-4.828-0.433-8.573-0.416-11.237,0.05l4.195-3.346c1.265-1.032,1.665-1.648,1.198-1.848
	l-3.995,0.15c-0.766,0.1,0.167-0.549,2.797-1.948c2.664-1.432,4.927-2.397,6.792-2.896c2.364-0.666,3.313-1.166,2.847-1.499
	l-2.847-0.5l-10.738,0.45c-2.098,0.466-4.478,1.265-7.142,2.397l3.046-3.846c0.8-0.864,1.099-1.413,0.9-1.646l-2.098-0.1
	c-9.589,1.265-19.228,6.726-28.917,16.381c-3.629,3.596-6.708,7.258-9.239,10.987c-2.297,3.429-3.496,5.893-3.596,7.392
	c-0.107,1.398,0.36,3.284,1.382,5.638c-2.196,1.189-4.111,2.585-5.727,4.2c-0.786,0.786-1.514,1.659-2.213,2.578
	c-2.089-1.15-3.454-1.829-4.08-2.028c-1.765-0.533-3.18-0.133-4.245,1.199c-1.598,2.098-3.33,5.044-5.194,8.84
	c-2.264,4.661-3.046,7.674-2.347,9.04c0.394,0.788,1.118,1.921,2.14,3.365c-1.287,1.838-1.94,4.174-1.94,7.023
	c0,3.596,1.032,6.576,3.096,8.94c1.731,1.964,3.363,2.863,4.895,2.697c0.644,0.676,1.917,2.454,3.807,5.311
	c-0.782,1.211-1.39,2.632-1.81,4.278c-0.834,3.182-0.695,6.045,0.392,8.597l-3.888-0.257l-1.099,0.05
	c-0.1,0.133-0.017,0.417,0.25,0.849c1.499,1.998,2.813,3.48,3.946,4.445L6.21,112.52c-0.366,0.301-0.5,0.551-0.399,0.75
	c0.133,0.199,0.549,0.416,1.249,0.648l3.196,1.148l-2.147,1.248c-0.533,0.268-0.732,0.483-0.6,0.649l1.299,0.699l3.346,1.748
	c-1.032,0.932-2.646,2.713-4.844,5.344c-2.098,2.563-3.462,4.378-4.095,5.443c-0.333,0.532-0.433,0.864-0.3,0.999l1.149-0.051
	l8.19-1.349l-1.398,2.896c-0.333,0.634-0.399,1.017-0.2,1.149l1.298-0.2l3.446-0.998c-2.164,2.631-4.212,5.877-6.143,9.737
	c-1.265,2.531-2.164,4.611-2.697,6.243c-0.267,0.8-0.35,1.266-0.25,1.398l1.349-0.449c0.999-0.566,3.679-1.781,8.041-3.646
	l-1.3,8.893c-0.1,0.898-0.066,1.397,0.1,1.498l1.148-0.948l4.345-4.944l-0.899,2.996c-0.233,0.801-0.3,1.232-0.2,1.299l1.149-0.549
	l3.896-2.598c-2.797,9.988-4.262,15.898-4.395,17.73c-0.066,1.264-0.033,2.029,0.1,2.297c0.167,0.365,0.516,0.133,1.049-0.699
	l3.496-4.695l3.446-4.295c0.23,0.656,0.483,1.32,0.754,1.99c0.076,1.701,0.388,4.111,0.943,7.25
	c0.732,4.361,1.598,8.355,2.597,11.986c1.099,4.027,1.282,7.573,0.549,10.637l-1.103,2.582c-0.922,0.771-1.853,1.724-2.793,2.861
	c-1.032,1.231-1.898,2.465-2.597,3.695c-0.266,0.499-0.366,0.814-0.299,0.949l1.148,0.398l6.431,0.448
	c0.753,0.46,1.634,0.894,2.659,1.3c0.051,0.021,0.118,0.039,0.171,0.061c-0.144,0.443-0.237,0.811-0.271,1.089
	c-0.1,0.799,0.383,1.215,1.448,1.248c1.365,0.067,2.88-0.199,4.545-0.8c0.431-0.166,0.813-0.338,1.153-0.512
	c1.178,0.049,2.47,0.071,3.891,0.063c1.001-0.007,1.924-0.034,2.811-0.074c-0.073,0.126-0.16,0.261-0.214,0.374l-0.799,1.997
	c0,0.467,0.45,0.75,1.349,0.851l4.345-0.25c0.717-0.138,1.297-0.303,1.77-0.488c0.157,0.113,0.309,0.227,0.478,0.339
	c1.272,0.817,2.878,1.446,4.798,1.901c-0.181,0.596-0.326,1.168-0.403,1.693c-0.167,1.398-0.183,2.214-0.05,2.447l3.096,0.148
	c1.232-0.299,2.414-0.814,3.546-1.548c0.997-0.608,1.725-1.241,2.215-1.897c0.956,0.005,1.942-0.01,2.979-0.051
	c7.092-0.266,11.737-1.215,13.934-2.846c0.751-0.546,1.505-1.882,2.261-3.979c0.479,1.152,1.559,1.972,3.282,2.431
	c0.167,1.631,1.349,2.714,3.546,3.246l5.394,0.448c0.366,1.066,2.63,1.814,6.792,2.248c4.129,0.434,8.641,0.399,13.534-0.1
	c12.853-1.266,19.293-4.379,19.326-9.34c2.198-2.23,4.43-5.377,6.693-9.439c1.862-3.305,3.346-6.646,4.479-10.021
	c3.486-0.452,7.072-2.201,10.754-5.259c3.063-2.564,5.693-5.728,7.892-9.489c2.131-3.729,3.444-7.375,3.944-10.938
	c1.697,1.33,3.529,3.013,5.494,5.043l1.797,1.648c0.566,0.366,0.783,0.133,0.65-0.699l-0.75-2.896
	c-0.398-1.231-0.615-2.063-0.648-2.498l4.545,3.247l3.546,2.847c0.999,0.8,1.631,1.115,1.897,0.949
	c0.267-0.2,0.282-0.981,0.049-2.349l-0.897-3.746l-0.851-3.396c3.298,2.53,5.545,4.544,6.742,6.043
	c0.633,0.8,1.033,1.05,1.199,0.749c0.232-0.333,0.232-1.398,0-3.195c-0.566-4.729-2.431-10.223-5.594-16.481l-6.842-11.836
	l3.346,1.748c1.398,0.731,2.148,0.883,2.248,0.448c0.1-0.433-0.3-1.397-1.199-2.896l-2.098-3.396l6.893,2.746l6.442,2.848
	c1.032,0.6,1.681,0.783,1.948,0.55C202.832,134.777,202.816,133.912,202.482,132.447z"/>
</svg>
