<?xml version="1.0" encoding="utf-8"?>
<!-- Generator: Adobe Illustrator 16.0.0, SVG Export Plug-In . SVG Version: 6.00 Build 0)  -->
<!DOCTYPE svg PUBLIC "-//W3C//DTD SVG 1.1//EN" "http://www.w3.org/Graphics/SVG/1.1/DTD/svg11.dtd">
<svg version="1.1" id="图层_1" xmlns="http://www.w3.org/2000/svg" xmlns:xlink="http://www.w3.org/1999/xlink" x="0px" y="0px"
	 width="199px" height="256px" viewBox="0 0 199 256" enable-background="new 0 0 199 256" xml:space="preserve">
<path d="M191.938,95.662c-1.603-2.703-4.806-3.571-9.611-2.603c-2.937,0.601-5.94,1.869-9.011,3.804
	c-0.082,0.051-0.157,0.112-0.238,0.165c8.389-12.385,12.976-23.42,13.754-33.103c0.301-3.971-0.066-7.358-1.102-10.162
	c-0.9-2.403-2.119-3.972-3.654-4.706c-3.17-1.535-6.957-0.25-11.363,3.854c-1.246,1.146-2.441,2.438-3.585,3.875
	c1.279-3.838,2.233-7.829,2.835-11.984c1.001-6.942,0.9-13.049-0.301-18.322c-0.867-3.804-2.453-6.741-4.756-8.81
	c-2.402-2.136-4.889-2.62-7.459-1.452c-2.202,1.001-4.138,2.887-5.807,5.657c-1.535,2.603-2.97,6.241-4.305,10.913
	c-6.174,21.692-14.233,40.781-24.178,57.267c-7.255,12.029-15.607,22.843-25.057,32.44c-0.995-1.129-2.243-2.152-3.778-3.056
	c-1.134-0.634-2.085-0.868-2.853-0.701c-0.667,0.133-1.118,0.517-1.352,1.151c-0.923,2.307-2.809,4.27-5.631,5.896
	c-1.094-0.48-2.188-0.936-3.279-1.341c-0.768-0.267-1.335-0.567-1.702-0.901c-0.467-0.4-0.901-1.001-1.302-1.802
	c-0.434-0.834-0.884-2.203-1.352-4.105c-0.434-1.635-0.684-2.803-0.751-3.504c-0.067-0.935,0-1.702,0.2-2.303
	c0.367-0.968,1.168-1.852,2.403-2.653l6.808-4.355c1.916-1.356,3.693-2.808,5.349-4.346c8.19-1.174,15.226-3.737,21.083-7.718
	c3.104-2.103,5.389-4.355,6.857-6.758c1.436-2.27,1.869-4.272,1.301-6.007c-0.5-1.335-2.336-2.186-5.506-2.553l-10.062-0.3
	c-1.99,0-4.683-0.417-8.061-1.241c0.378-4.548,0.034-8.991-1.05-13.326c-1.235-4.872-3.337-9.294-6.308-13.266
	c-4.171-5.606-10.028-9.928-17.57-12.965c-6.262-2.511-11.997-3.553-17.217-3.157c2.321-7.563,3.226-14.29,2.7-20.17
	c-0.3-3.871-1.468-7.042-3.504-9.511C51.59,1.168,49.371,0,46.868,0c-2.436,0-4.372,1.151-5.807,3.454
	c-1.048,1.718-1.624,3.862-1.748,6.415c-1.296-1.91-2.714-3.485-4.259-4.712c-3.771-2.97-7.509-3.588-11.213-1.853
	c-2.436,1.202-3.904,3.521-4.405,6.958c-0.567,4.038,0.618,8.343,3.554,12.915c1.969,3.037,4.522,5.807,7.659,8.31
	c2.257,1.806,4.616,3.308,7.064,4.541c-4.986,1.24-9.563,3.67-13.722,7.323c-5.84,5.14-9.628,11.781-11.363,19.924L10.326,76.64
	c-0.601,3.738-1.302,5.924-2.103,6.558L4.318,85.35c-1.969,1.068-2.937,1.986-2.903,2.753c0.1,3.271,4.222,7.626,12.365,13.065
	c8.743,5.84,17.804,9.745,27.182,11.714c2.836,0.601,4.572,1.435,5.206,2.503c0.567,1.035,0.484,2.97-0.25,5.807
	c-0.69,2.783-1.499,5.191-2.425,7.226c-19.175,8.008-32.173,18.395-38.973,31.169c-5.62,10.633-6.185,20.638-1.723,30.018
	c-0.41,1.273-0.661,2.659-0.73,4.173c-0.234,3.904,0.951,7.459,3.554,10.662c1.869,2.336,4.222,4.222,7.058,5.656
	c-0.567,7.076,2.169,11.998,8.209,14.768c5.874,2.738,12.091,2.242,18.65-1.479c0.853,0.806,1.824,1.545,2.905,2.222l0.421,3.213
	l0.25,3.554c0,0.601-0.133,0.935-0.4,1.001c-3.604,0.534-7.926,1.686-12.965,3.455c-5.606,1.936-10.329,4.037-14.167,6.307
	c-2.97,1.803-4.322,3.137-4.055,4.005c0.267,0.835,1.869,1.151,4.806,0.951c3.738-0.2,5.89-0.167,6.458,0.101
	c0.4,0.166,1.135,0.934,2.203,2.303l1.902,2.553c1.068,1.301,1.835,1.969,2.303,2.002c0.534,0.066,1.602-0.467,3.204-1.602
	c0.868-0.602,2.353-1.469,4.455-2.604c2.37-1.268,3.938-1.969,4.706-2.102l6.308,0.449l4.854,0.857
	c-0.173,0.564-0.112,1.017,0.202,1.346c0.667,0.701,2.319,0.818,4.956,0.351l9.661-1.651c1.602-0.234,5.624,1.418,12.064,4.955
	c1.134,0.601,2.036,0.9,2.703,0.901c0.701,0.033,1.635-0.267,2.803-0.901c3.771-2.035,6.524-3.371,8.26-4.005
	c1.969-0.733,4.188-1.218,6.658-1.452l9.761-0.049c2.235,0,3.454-0.334,3.654-1.002c0.2-0.701-0.584-1.752-2.353-3.153
	c-2.203-1.735-5.807-3.571-10.813-5.507c-3.271-1.268-8.26-2.953-14.968-5.056l-1.302-0.651l-0.4-0.801l0.042-7.302
	c4.666,1.184,9.324,1.032,13.974-0.457c4.834-1.537,8.493-4.119,10.988-7.737c6.88,2.282,12.746,1.48,17.595-2.424
	c4.506-3.605,6.775-8.394,6.809-14.367c0-5.641-2.002-9.861-6.008-12.665c-0.18-0.126-0.363-0.239-0.546-0.355
	c1.451-6.407,0.959-13.204-1.474-20.389c2.288,0.023,4.515-0.101,6.676-0.381c8.209-1.067,12.381-3.604,12.515-7.608
	c0.101-2.736-1.535-4.756-4.905-6.058c-0.348-0.136-0.709-0.245-1.07-0.354c11.617-2.313,22.304-7.695,32.057-16.164
	c9.109-7.877,15.734-16.637,19.873-26.281C193.174,103.788,193.773,98.732,191.938,95.662z M72.849,234.926l-0.5,0.65
	c-4.086,2.026-7.174,3.683-9.275,4.974l-4.341-2.571c-2.537-1.334-4.272-2.186-5.206-2.553l-1.151-0.751l-0.1-1.151l0.165-4.251
	c1.873,0.329,3.817,0.517,5.842,0.547c5.403,0.069,10.067-0.779,14.006-2.528L72.849,234.926z"/>
</svg>
