<?xml version="1.0" encoding="utf-8"?>
<!-- Generator: Adobe Illustrator 16.0.0, SVG Export Plug-In . SVG Version: 6.00 Build 0)  -->
<!DOCTYPE svg PUBLIC "-//W3C//DTD SVG 1.1//EN" "http://www.w3.org/Graphics/SVG/1.1/DTD/svg11.dtd">
<svg version="1.1" id="图层_1" xmlns="http://www.w3.org/2000/svg" xmlns:xlink="http://www.w3.org/1999/xlink" x="0px" y="0px"
	 width="262px" height="349px" viewBox="0 0 262 349" enable-background="new 0 0 262 349" xml:space="preserve">
<path d="M258.053,217.967c2.632-10.959,3.148-20.885,1.549-29.777c-2.131-11.625-5.929-21.517-11.391-29.677
	c-5.409-8.05-11.732-13.266-18.966-15.663c0.81-3.533,1.774-7.025,2.928-10.468c3.63-10.925,5.413-21.966,5.346-33.125
	c-0.088-9.645-1.519-17.003-4.29-22.081c0.441,0.122,0.881,0.246,1.342,0.348c5.463,1.166,10.393,0.516,14.789-1.949
	c5.596-3.131,8.894-8.061,9.893-14.789c1.033-7.261-1.032-14.605-6.195-22.033c-4.097-5.896-9.26-10.342-15.488-13.34
	c-4.838-2.313-9.17-3.332-13.008-3.086c-4.256-2.241-7.756-3.637-10.475-4.159l-0.998-0.05c-0.134,0.067-0.316,0.4-0.551,1
	c-0.653,2.093-0.937,4.478-0.862,7.142c-2.618-1.124-4.485-2.999-5.582-5.644c-1.698-4.097-1.849-10.358-0.45-18.786
	c0.167-0.933,0.101-1.465-0.199-1.599c-0.267-0.133-0.883,0.033-1.849,0.5c-3.897,1.865-7.045,5.329-9.442,10.392
	c-0.025,0.053-0.045,0.106-0.07,0.16c-0.703-1.534-1.573-2.828-2.629-3.857c-1.064-0.999-2.547-1.965-4.445-2.897
	c-1.066-0.5-1.749-0.633-2.049-0.4c-0.267,0.233-0.267,0.833,0,1.799c2.231,8.394,3.264,14.688,3.098,18.885
	c-0.074,1.428-0.299,2.771-0.643,4.048c-2.231-1.658-4.832-2.808-7.801-3.448l-8.045-0.399l-1.348,0.299l-0.25,1.199
	c-0.1,1.347,0.211,3.201,0.924,5.553c-0.6,1.665-1.01,3.772-1.225,6.338c-0.264,2.831-0.111,5,0.443,6.528
	c-3.176,3.475-5.184,7.44-5.988,11.908c-0.5,2.964-1.116,5.346-1.85,7.145c-0.932,2.265-2.264,4.23-3.996,5.896L143.74,84.718
	l-13.04,13.74c-2.332,2.831-3.281,4.696-2.848,5.596c0.466,0.866,2.015,0.549,4.646-0.949c2.231-1.232,13.19-8.543,32.874-21.934
	c5.736-3.931,12.92-6.367,21.523-7.337c2.567,2.655,5.862,4.325,9.903,4.989c4.096,0.688,7.746,0.127,10.96-1.651
	c0.962,0.625,1.859,1.319,2.68,2.101c3.531,3.297,5.296,9.326,5.296,18.086c0,9.559-2.215,20.251-6.646,32.075
	c-2.088,5.538-3.821,11.028-5.215,16.475c-5.749,2.123-11.604,4.805-17.567,8.057c-5.693,3.105-10.669,6.282-14.943,9.527
	c-5.446-7.983-12.612-15.607-21.528-22.866c-14.223-11.558-28.479-18.886-42.768-21.983c-10.825-2.332-21.284-2.415-31.376-0.25
	c-9.926,2.132-18.736,6.279-26.43,12.44c-7.827,6.229-13.906,14.04-18.236,23.432c-4.497,9.893-6.745,20.851-6.745,32.875
	c0.034,9.293,3.131,19.019,9.293,29.178c6.275,10.268,14.503,18.766,24.638,25.535c-7.284-0.134-15.891-1.33-25.837-3.603
	c-15.222-4.097-24.865-6.328-28.928-6.694c-1.266-0.1-2.165,0.116-2.698,0.649c-0.5,0.499-0.75,1.365-0.75,2.598
	c0.066,2.331,1.299,5.263,3.697,8.794c2.765,4.029,6.395,7.693,10.892,10.991c9.915,7.23,21.535,10.917,34.851,11.076
	c-1.041,0.141-2.114,0.279-3.225,0.415c-8.727,1.032-13.707,1.814-14.938,2.348c-1.199,0.533-1.882,1.066-2.049,1.6
	c-0.2,0.566,0.05,1.531,0.75,2.897c2.298,4.396,6.978,7.71,14.04,9.942c7.637,2.413,16.834,3.011,27.553,1.839
	c-0.008,0.003-0.016,0.007-0.024,0.01l-12.84,5.446c-1.865,1.032-2.765,1.814-2.698,2.348c0.033,0.5,0.966,1.482,2.798,2.947
	c3.531,2.698,8.81,4.381,15.838,5.047c8.293,0.799,16.487-0.25,24.581-3.148c6.695-2.405,12.416-5.453,17.208-9.111
	c2.958,5.008,6.479,9.28,10.57,12.809c2.344,2.032,4.559,3.526,6.649,4.508l-0.504,1.088c-0.4,0.967-0.616,1.716-0.649,2.249
	l0.899,6.146c0.533,4.13,0.6,7.228,0.199,9.293l-0.1,0.399l-0.449,0.3c-4.697,2.198-8.744,4.547-12.141,7.045
	c-3.164,2.331-5.396,4.513-6.695,6.545c-0.866,1.332-1.199,2.197-1,2.598c0.2,0.366,1.016,0.566,2.448,0.6h8.543
	c5.163,0,8.145,0.05,8.943,0.15l8.344,3.247l7.994,3.197l1.248,0.25l0.9-0.399l3.697-4.147c2.131-2.498,3.347-3.797,3.646-3.897
	l6.295,0.25l7.045,0.301c1.332-0.167,2.031-0.45,2.099-0.85c0.066-0.367-0.433-1.066-1.499-2.099
	c-0.412-0.396-0.857-0.79-1.318-1.183c0.625-0.242,1.478-0.514,2.567-0.816c1.832-0.499,3.114-0.749,3.847-0.749
	c1.433-0.033,4.664,0.6,9.693,1.898l7.294,1.999l1.948,0.25l1.449-1.149l2.698-3.147c1.466-1.699,2.382-2.632,2.747-2.799
	l4.297-0.449l5.496-0.649c1.998-0.499,3.015-0.982,3.048-1.448c0-0.467-0.966-1.083-2.897-1.85
	c-3.197-1.199-8.527-2.581-15.988-4.146c-8.094-1.732-14.521-2.748-19.285-3.047c-0.5-0.533-1.249-2.183-2.248-4.947l-1.398-4.396
	c0.965-2.326,1.782-4.061,2.453-5.21c2.171-0.239,4.796-1.209,7.889-2.934c2.742-1.563,5.143-3.299,7.214-5.197
	c3.146-1.308,6.253-3.322,9.323-6.044c0.614-0.54,1.198-1.103,1.77-1.675c3.673,0.084,7.436-0.449,11.285-1.6
	c6.643,1.729,13.333,0.878,20.07-2.571c2.631-1.332,4.813-2.848,6.545-4.547c1.632-1.565,2.414-2.798,2.348-3.697
	c-0.033-0.766-0.865-1.266-2.498-1.498l-2.972,0.099c3.612-1.888,6.86-4.338,9.717-7.394c1.865-2.031,3.364-4.113,4.497-6.245
	c0.965-1.799,1.398-3.098,1.299-3.897c-0.1-1.133-1.648-1.698-4.646-1.698c-2.365,0-4.719,0.354-7.063,1.032
	c0.823-2.914,1.417-5.966,1.788-9.152C250.535,239.81,255.271,229.484,258.053,217.967z M167.972,324.436l-2.698,2.697
	c-1.471,1.471-2.526,2.598-3.177,3.39c-0.092-0.047-0.178-0.095-0.271-0.142c-5.463-2.765-10.758-4.547-15.888-5.346
	c-2.632-9.16-3.931-13.939-3.897-14.34c0-0.332,0.316-1.199,0.949-2.598c0.315-0.708,0.596-1.271,0.844-1.696
	c2.239-0.481,4.521-1.274,6.852-2.4c3.785-1.863,6.654-4.109,8.624-6.731c0.307,0.05,0.604,0.089,0.909,0.135
	c1.837,1.73,3.864,3.335,6.104,4.798c0.217,0.142,0.426,0.267,0.64,0.4l-1.239,2.697c-1.099,2.532-1.632,4.063-1.599,4.597
	c0,0.333,0.699,2.765,2.098,7.295C167.521,321.521,168.105,323.936,167.972,324.436z"/>
</svg>
