<?xml version="1.0" encoding="utf-8"?>
<!-- Generator: Adobe Illustrator 16.0.0, SVG Export Plug-In . SVG Version: 6.00 Build 0)  -->
<!DOCTYPE svg PUBLIC "-//W3C//DTD SVG 1.1//EN" "http://www.w3.org/Graphics/SVG/1.1/DTD/svg11.dtd">
<svg version="1.1" id="图层_1" xmlns="http://www.w3.org/2000/svg" xmlns:xlink="http://www.w3.org/1999/xlink" x="0px" y="0px"
	 width="134px" height="190px" viewBox="0 0 134 190" enable-background="new 0 0 134 190" xml:space="preserve">
<g>
	<path d="M95.602,125.4c-0.134-0.898-1.217-1.448-3.248-1.648c-2.311-0.212-4.767-0.266-7.355-0.172
		c-0.369-0.811-0.893-1.52-1.563-2.132c6.416-4.219,11.543-9.393,15.363-15.532c4.796-7.693,6.645-15.67,5.545-23.931
		c-1.065-7.761-4.496-14.588-10.291-20.484c-3.739-3.81-8.155-6.899-13.223-9.297c1.518-3.117,2.317-6.28,2.381-9.488
		c0.066-3.431-0.732-6.528-2.398-9.292c-3.024-5.023-7.77-8.107-14.22-9.268c1.021-2.661,0.742-5.269-0.868-7.819
		c-1.065-1.698-2.864-3.497-5.396-5.396c-1.532-1.199-2.215-2.714-2.048-4.546s1.132-3.514,2.897-5.046
		c0.566-0.5,0.766-0.866,0.6-1.099l-1.149-0.2C52.802,0.883,46.54,2.598,41.844,5.196c-3.63,2.032-6.095,4.43-7.395,7.194
		c-1.836,3.93-1.219,8.298,1.837,13.101c-3.153,1.028-5.983,2.419-8.482,4.186c-3.797,2.731-6.412,6.078-7.844,10.042
		c-1.033,2.765-1.199,5.545-0.5,8.343c0.661,2.581,2,4.966,3.999,7.161c-6.743,3.86-12.171,8.92-16.239,15.222
		c-5.163,7.994-7.178,16.387-6.045,25.181c1.032,7.727,4.33,14.422,9.892,20.084c5.321,5.452,12.301,9.439,20.924,11.977
		c-1.212,1.635-1.529,3.238-0.94,4.811c0.007,0.017,0.018,0.03,0.025,0.047c-1.252,0.137-2.412,0.418-3.472,0.852
		c-1.832,0.732-2.765,1.666-2.798,2.798c-0.1,1.898,1.849,4.097,5.845,6.595c3.097,1.956,6.421,3.524,9.965,4.715l3.024,10.074
		c0.633,1.664,2.531,2.931,5.696,3.797c2.564,0.699,5.595,1.065,9.093,1.099c4.696,0.101,8.826-0.416,12.39-1.549
		c4.363-1.365,7.128-3.447,8.294-6.245c0.399-0.966,1.065-3.764,1.999-8.393l1.22-6.67c1.529-0.851,3.303-2.173,5.324-3.973
		c2.465-2.197,4.497-4.33,6.095-6.395C95.118,127.482,95.734,126.2,95.602,125.4z"/>
	<path d="M130.724,135.293c-1.032-2.198-2.515-3.78-4.446-4.746c-1.852-0.972-3.744-1.145-5.679-0.54
		c-0.006-0.02-0.005-0.041-0.017-0.06c-1.467-1.898-3.331-3.197-5.596-3.896c-2.099-0.633-4.214-0.65-6.346-0.051
		c-2.131,0.566-3.83,1.633-5.096,3.198c-1.297,1.582-1.895,3.454-1.81,5.606c-2.147,0.693-3.864,1.884-5.135,3.586
		c-1.366,1.898-1.999,4.08-1.899,6.545c0.168,2.432,1,4.514,2.498,6.245c1.633,1.898,3.748,2.931,6.346,3.098
		c0.133,2.598,1.35,4.163,3.646,4.696c2.232,0.533,4.563-0.1,6.995-1.898c1.266,1.232,2.781,1.998,4.546,2.298
		c1.699,0.267,3.314,0.067,4.847-0.6c3.63-1.632,4.979-4.679,4.047-9.143c2.265-2.099,3.63-4.53,4.097-7.294
		C132.123,139.906,131.789,137.559,130.724,135.293z"/>
	<path d="M103.545,163.021c-1.166-0.233-2.365-0.1-3.598,0.399c-1.798-0.633-3.43-0.616-4.896,0.05
		c-1.333,0.633-2.282,1.615-2.848,2.947c-0.566,1.333-0.616,2.632-0.149,3.897c0.565,1.366,1.682,2.349,3.347,2.948
		c-0.3,1.731,0.2,2.997,1.499,3.797l1.805,0.039c0.496,0.091,1.01,0.099,1.539,0.032l1.303,0.028
		c3.63,0.366,5.979-1.049,7.044-4.246c0.966-3.031,0.316-5.746-1.948-8.145C105.776,163.838,104.744,163.254,103.545,163.021z"/>
	<path d="M30.403,157.376l-5.296,0.249c-2.265-2.863-5.379-4.579-9.343-5.146c-3.73-0.499-7.061,0.101-9.992,1.799
		c-2.931,1.731-4.696,4.196-5.296,7.394c-0.466,2.665-0.066,5.43,1.199,8.294c-2.065,2.465-2.048,4.913,0.05,7.345
		c2.032,2.364,4.613,3.23,7.744,2.598c-0.433,2.831,1.099,5.229,4.596,7.194c3.498,1.965,7.078,2.448,10.742,1.448
		c2.431-0.633,4.363-1.848,5.795-3.646c1.299-1.633,2.248-3.863,2.848-6.695c3.764-1.132,5.662-3.896,5.695-8.293
		c0.034-4.164-1.349-7.561-4.146-10.191C33.7,158.525,32.168,157.742,30.403,157.376z"/>
</g>
</svg>
