<?xml version="1.0" encoding="utf-8"?>
<!-- Generator: Adobe Illustrator 16.0.0, SVG Export Plug-In . SVG Version: 6.00 Build 0)  -->
<!DOCTYPE svg PUBLIC "-//W3C//DTD SVG 1.1//EN" "http://www.w3.org/Graphics/SVG/1.1/DTD/svg11.dtd">
<svg version="1.1" id="图层_1" xmlns="http://www.w3.org/2000/svg" xmlns:xlink="http://www.w3.org/1999/xlink" x="0px" y="0px"
	 width="202px" height="289px" viewBox="0 0 202 289" enable-background="new 0 0 202 289" xml:space="preserve">
<g>
	<path d="M200.502,103.392c-0.832-2.827-2.129-5.056-3.891-6.685c-1.497-1.364-3.127-1.946-4.89-1.746
		c-1.729,0.233-2.86,0.998-3.393,2.295c-0.532,1.23-0.582,2.727-0.149,4.49c0.305,1.223,0.76,2.355,1.357,3.402
		c-1.89-0.123-3.443,0.351-4.65,1.437c-1.355,1.139-1.902,2.649-1.666,4.518c-1.696-1.086-3.632-1.555-5.816-1.375
		c-2.141,0.163-3.939,0.858-5.413,2.063c-0.827-7.132-2.228-14.123-4.216-20.971c-4.321-14.932-10.422-25.163-18.293-30.717
		c1.538-0.516,2.8-1.283,3.775-2.309c1.197-1.264,2.012-3.043,2.444-5.338c0.798-4.091-0.3-8.548-3.293-13.37
		c-2.854-4.566-6.488-7.872-10.888-9.941c0.361-0.327,0.67-0.699,0.91-1.134c1.33-2.494,0.116-6.219-3.643-11.175
		c-2.594-3.459-6.385-6.852-11.374-10.177c-6.12-4.058-11.641-6.137-16.563-6.236c-1.297-0.033-2.295,0.382-2.993,1.247
		c-0.599,0.699-0.897,1.53-0.897,2.495c0,3.259,2.826,8.797,8.48,16.613c-3.758,0.067-7.018,0.915-9.777,2.544
		c-2.895,1.663-4.84,3.925-5.838,6.785c-1.23,3.492-1.014,7.317,0.649,11.474c1.212,3.007,3.042,5.714,5.464,8.133
		c-7.41,0.663-14.523,3.224-21.338,7.687c-0.772-1.399-1.897-2.782-3.383-4.146c-1.303-1.148-2.546-2.004-3.732-2.581
		c1.209-0.583,1.96-1.579,2.236-3.006c0.432-2.261-0.632-4.756-3.193-7.483c-2.41-2.56-5.468-4.473-9.16-5.751
		c2.725-1.097,4.769-2.141,6.117-3.129c1.43-1.031,2.412-2.245,2.944-3.642c1.763-4.49-1.147-6.552-8.731-6.186
		c-3.16,0.166-6.169,0.765-9.03,1.796c-3.559,1.23-5.721,2.844-6.485,4.839c-0.299,0.898-0.266,1.829,0.1,2.793
		c0.366,1.031,1.081,1.962,2.146,2.794c-2.063,0.499-3.792,1.414-5.188,2.744c-1.43,1.397-2.295,3.06-2.594,4.989
		c-0.399,2.527,0.133,5.022,1.596,7.483c1.218,2.013,2.928,3.719,5.13,5.119c-0.432,0.221-0.814,0.521-1.139,0.917
		c-0.565,0.765-0.832,1.63-0.798,2.594c0.033,2.927,1.729,6.236,5.089,9.928c3.176,3.408,6.604,5.646,10.283,6.721
		c-8.175,10.259-13.914,21.597-17.205,34.019c-8.605-0.435-15.431,1.695-20.467,6.405c-4.39,4.157-6.868,9.645-7.434,16.463
		c-0.399,5.022,0.666,9.545,3.193,13.569c1.346,2.124,2.942,3.778,4.778,4.978c1,4.933,2.527,9.415,4.601,13.432
		c1.696,3.227,4.091,6.802,7.184,10.727c-0.233,4.456,0.066,9.379,0.898,14.767c0.931,6.485,2.295,10.228,4.091,11.226l2.045-0.15
		c0.632-0.432,1.979-2.527,4.041-6.285l3.292-6.287c1.432,0.897,2.981,1.705,4.644,2.426c1.482,10.79,3.541,22.831,6.178,36.127
		c-0.625,0.104-1.305,0.387-2.041,0.859c-1.43,0.898-2.428,2.096-2.994,3.593l-3.592-0.149c-1.197,0.266-2.195,0.831-2.993,1.695
		c-1.929,1.996-2.378,4.574-1.347,7.733c0.777,2.545,2.004,4.003,3.666,4.411c-0.232,3.168,1.309,5.397,4.666,6.664
		c3.492,1.33,6.369,0.615,8.631-2.146c0.314,0.239,0.61,0.418,0.896,0.567c3.32,15.121,6.231,26.896,8.732,35.303
		c0.632,2.195,2.012,3.476,4.141,3.842c2.129,0.365,3.841-0.333,5.139-2.096c3.625-4.922,11.458-19.706,23.498-44.352
		c10.519-21.6,16.688-34.795,18.514-39.601l0.195-0.011c0.066,3.061,0.266,5.537,0.598,7.434c0.366,1.93,0.799,2.96,1.297,3.094
		c1.048,0.294,5.048-4.253,11.989-13.619c3.764-1.27,7.057-2.879,9.862-4.84c3.426-2.38,6.593-5.586,9.504-9.599
		c2.604-0.505,5.107-1.456,7.509-2.874c4.157-2.428,7.051-5.904,8.681-10.427c1.703-4.637,1.498-9.287-0.567-13.954
		c1.025-1.327,2.047-2.759,3.062-4.305c1.963-3.027,3.542-5.921,4.74-8.681c1.097-2.627,1.546-4.424,1.346-5.388
		c-0.498-2.095-4.938-3.276-13.32-3.542l-3.811,0.199c0.07-1.227,0.123-2.449,0.161-3.667c3.006,1.559,6.615,1.39,10.834-0.522
		c4.923-2.195,7.616-5.205,8.082-9.03c1.995-0.266,4.008-1.58,6.036-3.941c2.129-2.528,3.293-5.222,3.492-8.082
		C201.383,107.948,201.134,105.687,200.502,103.392z M170.708,135.521l-0.04-0.101c0.136-2.158,0.209-4.305,0.255-6.447
		c-0.003,0.201-0.001,0.411-0.005,0.61c0.012,0.008,0.023,0.014,0.035,0.022c-0.031,1.964-0.103,3.936-0.219,5.914L170.708,135.521z
		"/>
	<path d="M44.451,210.597c1.317-3.124,1.459-6.248,0.397-9.373c-0.998-2.894-2.793-5.321-5.388-7.284
		c-2.728-2.062-5.82-3.176-9.279-3.342c-3.825-0.2-7.118,0.881-9.878,3.242c-6.619-2.229-11.791-1.181-15.516,3.143
		c-1.563,1.863-2.511,4.059-2.844,6.586c-0.33,2.607,0.096,5.149,1.272,7.626c-1.573,1.253-2.58,2.917-3.019,4.996
		c-0.499,2.395-0.133,4.806,1.098,7.233c1.43,2.86,3.742,4.89,6.935,6.087c3.725,1.396,7.932,1.28,12.622-0.35
		c2.494,3.192,5.67,4.523,9.528,3.991c3.825-0.532,6.619-2.545,8.381-6.037c1.996,0.233,3.775-0.033,5.338-0.797
		c1.663-0.766,2.827-1.963,3.492-3.593c0.898-2.028,1.014-4.224,0.349-6.585C47.297,213.853,46.126,212.01,44.451,210.597z"/>
	<path d="M156.5,238.035c-0.94-3.305-2.812-6.051-5.637-8.225c-2.861-2.162-5.705-3.044-8.531-2.645
		c-1.464,0.199-2.645,0.831-3.543,1.896c-0.831,0.964-1.279,2.179-1.347,3.642c-5.421-0.698-9.212,0.814-11.374,4.54
		c-1.768,3.033-2.028,6.314-0.797,9.844c-0.684-0.469-1.395-0.853-2.146-1.113c-1.664-0.599-3.26-0.582-4.79,0.05
		c-2.395,0.998-3.608,2.844-3.642,5.538c-0.033,2.661,1.081,4.855,3.342,6.585c1.231,0.932,2.729,1.53,4.49,1.797l5.089-0.25
		c2.429,2.693,5.688,4.291,9.778,4.789c4.202,0.51,7.648-0.445,10.358-2.83l4.858-0.263c4.59-1.331,7.399-4.241,8.431-8.73
		c0.997-4.29,0.632-7.999-1.098-11.126C158.996,239.813,157.845,238.659,156.5,238.035z"/>
</g>
</svg>
