<?xml version="1.0" encoding="utf-8"?>
<!-- Generator: Adobe Illustrator 16.0.0, SVG Export Plug-In . SVG Version: 6.00 Build 0)  -->
<!DOCTYPE svg PUBLIC "-//W3C//DTD SVG 1.1//EN" "http://www.w3.org/Graphics/SVG/1.1/DTD/svg11.dtd">
<svg version="1.1" id="图层_1" xmlns="http://www.w3.org/2000/svg" xmlns:xlink="http://www.w3.org/1999/xlink" x="0px" y="0px"
	 width="342px" height="383px" viewBox="0 0 342 383" enable-background="new 0 0 342 383" xml:space="preserve">
<g>
	<path d="M339.296,175.727c1.34-4.082,1.729-6.667,1.169-7.758c-0.654-1.215-3.724-1.823-9.207-1.823l-8.132,0.374
		c-2.057,0.25-5.11,0.888-9.161,1.916c-1.638,0.428-3.01,0.814-4.143,1.161l-3.147-1.628l-3.739-2.01
		c-3.271-9.783-8.475-19.239-15.609-28.368c-7.318-9.343-15.538-16.836-24.645-22.511c2.824-2.853,7.372-7.928,13.661-15.251
		c9.191-10.718,14.161-17.23,14.909-19.536c1.562-4.742,1.161-8.991-1.148-12.759c0.209-0.036,0.414-0.084,0.635-0.094
		c7.852-0.156,13.241-1.698,16.17-4.626c2.96-2.96,5.733-7.197,8.319-12.712c2.804-6.076,3.131-9.534,0.981-10.375
		c-2.244-0.872-7.26-1.449-15.049-1.729l-8.413-0.514c-2.804-0.343-4.486-0.903-5.048-1.683c-1.059-1.495-0.639-3.318,1.263-5.468
		c1.9-2.15,3.755-3.038,5.562-2.664c1.152,0.218,1.402-0.296,0.748-1.542c-0.654-1.277-1.979-2.695-3.973-4.253
		c-5.453-4.393-11.793-6.776-19.021-7.15c-0.125,0-0.437-1.06-0.936-3.178c-0.529-2.212-1.558-3.505-3.084-3.879l-7.432-2.384
		c-4.704-1.402-8.209-1.776-10.516-1.122L242.6,8.039l-5.701,2.804c-2.088,0.903-3.895,1.402-5.422,1.496
		c-3.863,0.249-6.59,0.28-8.179,0.093c-2.555-0.312-4.409-1.168-5.562-2.57c-2.398-2.929-4.471-4.954-6.216-6.076
		c-4.362-2.835-9.783-4.082-16.265-3.739c-8.63,0.468-15.672,1.496-21.124,3.085c-4.736,1.402-8.74,3.38-12.011,5.936
		c-2.212,1.776-3.926,4.502-5.141,8.179c-0.623,1.869-1.122,3.801-1.495,5.795c-0.53,1.184-2.072,2.446-4.627,3.786
		c-2.68,1.371-5.203,2.119-7.571,2.244c-1.714,0.093-3.334-0.577-4.86-2.01c-8.164-7.447-18.694-11.45-31.594-12.011
		c-10.562-0.467-19.395,1.09-26.499,4.673c-1.714,0.873-4.128,3.241-7.244,7.104c-1.09,1.309-2.82,3.599-5.188,6.87
		c-2.461,0.312-4.128,1.075-5.001,2.29c-0.903,1.215-1.075,2.976-0.514,5.281c0.312,1.277,0.358,2.368,0.141,3.271
		c-0.25,0.966-0.826,1.916-1.729,2.851c-1.309,1.309-3.536,2.633-6.683,3.973c-2.555,1.09-5.406,2.056-8.553,2.897
		c-4.954,1.34-8.272,2.321-9.955,2.944c-3.926,1.496-7.337,3.505-10.235,6.029c-7.135,6.2-12.961,13.32-17.479,21.358
		c-4.237,7.509-5.546,12.307-3.926,14.395c0.53,0.654,1.667,1.386,3.412,2.197c0.935,0.436,2.602,1.122,5,2.056
		c5.328,2.119,7.977,3.941,7.945,5.468c-0.031,1.309-2.197,3.131-6.496,5.468c-6.73,3.677-10.999,8.787-12.806,15.33
		c-1.091,3.926-1.277,9.316-0.561,16.17c0.499,4.83,2.025,8.366,4.58,10.609c2.461,2.181,6.123,3.349,10.983,3.505
		c0.935,0,2.493-0.873,4.674-2.617c2.212-1.807,3.973-2.804,5.281-2.991c1.339-0.187,2.477,0.421,3.412,1.823l1.776,2.057
		c0.966,0.592,2.259,0.607,3.879,0.046c4.518-1.495,8.677-3.754,12.479-6.776c2.212-1.714,4.627-4.035,7.244-6.964l2.477-2.523
		c0.81-0.717,1.511-1.137,2.103-1.262c6.886-1.402,11.668-3.661,14.348-6.776c2.618-3.054,5.328-9.394,8.132-19.021
		c0.343-1.215,0.919-1.698,1.729-1.449c0.654,0.155,1.994,1.059,4.02,2.71c1.558,1.277,2.851,1.885,3.879,1.823
		c1.184-0.063,2.82-0.966,4.907-2.711c2.586-2.243,6.746-6.278,12.479-12.104c6.854-7.01,10.313-11.107,10.375-12.292l-0.234-2.196
		c-0.405-2.15-0.545-3.661-0.42-4.534c0.249-1.9,1.324-3.474,3.225-4.72c4.113-2.742,9.441-5.032,15.984-6.87
		c7.01-1.963,13.319-2.757,18.928-2.383c-1.371,2.118-2.103,3.848-2.196,5.188c-0.125,1.932,0.95,3.271,3.225,4.019
		c5.764,1.932,12.011,2.15,18.741,0.654c7.914-1.776,14.814-5.733,20.703-11.871c0.936-0.997,1.293-2.54,1.076-4.627
		c-0.156-1.558,0.514-2.648,2.01-3.271c3.926-1.589,6.105-3.848,6.543-6.777c0.342-2.056-0.281-5.375-1.87-9.955
		c0.218-0.53,0.981-1.184,2.29-1.963c1.527-0.904,2.976-1.371,4.347-1.402c2.462-0.062,4.657-0.405,6.589-1.028
		c1.185-0.374,2.493-0.951,3.926-1.729c1.402-0.748,2.977-0.919,4.721-0.514c5.297,1.184,9.565,1.138,12.807-0.14
		c2.586-1.028,6.23-3.754,10.936-8.179c0.343-0.28,1.651,0.25,3.926,1.589c1.869,1.059,3.318,1.807,4.346,2.243
		c1.839,0.748,3.553,1.122,5.142,1.122c2.524,0,4.487,0.374,5.889,1.122c-2.368,0.467-4.269,1.542-5.702,3.225
		c-2.212,2.586-2.975,4.938-2.289,7.057c0.81,2.461,3.676,4.985,8.599,7.571l2.617,1.215l2.104,1.075
		c-1.434,1.371-2.149,2.773-2.149,4.207c0,0.571,0.128,1.198,0.365,1.873c-2.636,0.624-4.538,1.524-5.693,2.708
		c-3.147,3.303-7.634,9.487-13.461,18.554c-3.671,5.736-6.615,10.635-8.846,14.715c-0.795-3.921-3.668-6.958-8.633-9.106
		c-2.592-1.137-5.334-1.856-8.221-2.175c-1.628-3.639-4.424-6.349-8.418-8.107c-3.396-1.496-7.243-2.197-11.543-2.103
		c-6.014,0.125-12.447,1.449-19.302,3.973c-6.761,2.461-9.362,4.315-7.806,5.562c0.842,0.685,3.428,2.009,7.759,3.972
		c3.189,1.429,5.773,2.528,7.771,3.31c-2.596,1.322-4.709,3.096-6.323,5.337c-2.025,2.773-3.084,5.935-3.178,9.487
		c-0.125,3.396,0.623,6.465,2.244,9.207c1.522,2.595,3.537,4.417,6.031,5.479c-3.182,4.173-5.863,9.621-8.041,16.347
		c-2.965,9.109-4.01,17.394-3.152,24.862c-3.628-7.23-8.288-13.406-14-18.506c-3.615-3.234-7.518-5.934-11.702-8.11
		c2.88-7.263,1.835-13.411-3.16-18.436c-4.963-4.963-11.854-6.876-20.663-5.757c-0.015-1.115,0.287-2.594,0.94-4.479
		c0.811-2.399,1.854-4.487,3.131-6.263c1.215-1.651,1.464-2.866,0.748-3.645c-0.779-0.873-2.664-1.106-5.655-0.701
		c-5.639,0.748-11.294,2.742-16.965,5.982c-5.733,3.303-9.238,6.637-10.516,10.001c-0.875,2.258-0.651,4.258,0.647,6.005
		c-1.877,0.881-3.623,2.035-5.227,3.482c-2.711,2.462-4.643,5.359-5.795,8.693c-1.153,3.396-1.277,6.637-0.374,9.721
		c0.915,3.295,2.897,5.973,5.934,8.043c-6.336,9.667-10.687,22.043-13.038,37.15c-2.711,17.573-2.119,34.803,1.776,51.69
		l-0.821,0.799c-0.303,0.014-0.589,0.024-0.908,0.042c-5.017,0.28-8.366,0.794-10.048,1.542c-2.648,0.998-5.297,2.041-7.945,3.132
		c-5.328,2.212-8.023,3.536-8.085,3.972c-0.063,0.438,0.966,2.648,3.084,6.637l3.458,6.777c0.405,1.246,4.175,3.691,11.31,7.338
		c1.354,0.701,2.713,1.371,4.072,2.04c-0.601,8.105,2.054,15.263,7.985,21.468c5.702,5.92,11.622,8.49,17.76,7.711
		c1.054-0.127,1.988-0.409,2.827-0.812c6.218,3.082,12.92,5.477,20.12,7.168c7.536,1.804,14.989,2.671,22.362,2.628
		c1.925,2.158,4.022,4.42,6.333,6.813c8.163,8.443,13.257,12.151,15.283,11.123c0.966-0.498,1.667-2.586,2.103-6.263
		c0.445-3.729,0.59-8.905,0.438-15.507c3.27-1.045,6.392-2.283,9.372-3.705c5.672,8.471,14.901,21.172,27.719,38.141
		c16.949,22.464,27.574,35.846,31.874,40.146c2.461,2.462,4.751,3.489,6.87,3.085c2.243-0.437,3.583-2.462,4.02-6.076
		c1.309-10.843,1.526-28.711,0.654-53.605c-0.66-19.336-1.677-34.646-3.047-45.964l7.242-0.879c1.929,2.702,3.983,5.313,6.18,7.817
		c5.795,6.574,10.142,9.41,13.039,8.506c2.492-0.81,4.066-6.044,4.721-15.703c0.212-3.054,0.305-6.109,0.297-9.166
		c6.922-3.911,12.86-8.684,17.79-14.342c4.617-5.285,8.138-11.106,10.59-17.447c3.4-0.175,6.741-1.893,10.021-5.173
		c3.178-3.209,5.67-7.197,7.478-11.964c1.869-4.985,2.602-9.768,2.196-14.348c-0.44-4.826-2.149-8.764-5.091-11.839
		c1.45-2.591,3.052-5.587,4.811-9.006L339.296,175.727z"/>
	<path d="M240.918,64.402c1.37,0.031,2.772-0.296,4.205-0.981c1.34-0.686,2.539-1.604,3.6-2.757c1.619-1.87,2.305-3.614,2.056-5.234
		c-0.312-2.212-1.153-4.113-2.523-5.702c-1.122-1.34-2.306-2.15-3.552-2.431c-1.184-0.28-3.054,0.686-5.608,2.898
		c-2.493,2.15-3.91,3.926-4.253,5.328c-0.437,1.776-0.031,3.661,1.215,5.655C237.365,63.296,238.985,64.371,240.918,64.402z"/>
	<path d="M157.494,96.931c2.898,0,5.032-0.981,6.403-2.944c0.717-1.028,0.748-2.571,0.094-4.627
		c-0.654-2.057-1.527-3.209-2.617-3.458c-1.371-0.312-3.271,0.716-5.702,3.084c-2.492,2.399-3.505,4.315-3.038,5.749
		C153.132,96.198,154.752,96.931,157.494,96.931z"/>
	<path d="M70.332,157.173c2.15,1.994,3.863,2.96,5.141,2.897c1.433-0.031,3.053-1.293,4.86-3.785
		c1.683-2.399,2.493-4.331,2.43-5.795c-0.093-1.807-1.309-3.583-3.646-5.328c-2.243-1.713-4.206-2.43-5.889-2.15
		c-1.589,0.25-3.084,1.402-4.486,3.458c-1.247,1.87-1.87,3.505-1.87,4.907C66.873,153.123,68.026,155.054,70.332,157.173z"/>
	<path d="M63.835,181.85c0.062,1.152,0.514,2.103,1.355,2.851c0.81,0.717,1.807,1.075,2.991,1.075c0.966,0,1.854-0.483,2.664-1.449
		c0.748-0.872,1.122-1.682,1.122-2.43c0-1.122-0.436-2.041-1.309-2.757c-0.841-0.686-1.823-1.028-2.944-1.028
		c-1.09,0-2.025,0.39-2.804,1.168S63.773,180.915,63.835,181.85z"/>
	<path d="M40.561,186.85c0.374-0.997,0.078-2.71-0.888-5.141c-0.935-2.43-2.259-4.876-3.973-7.337
		c-4.362-6.325-8.568-9.378-12.619-9.16c-3.583,0.218-7.493,2.742-11.73,7.571c-4.051,4.673-5.904,8.366-5.562,11.076
		c0.125,1.122,0.732,2.025,1.823,2.711c0.592,0.405,1.667,0.873,3.225,1.402c2.15,0.717,3.38,1.277,3.692,1.683
		c0.312,0.374,0.686,1.48,1.122,3.318l1.822,5.936c0.592,1.682,1.231,2.57,1.917,2.664c2.742,0.342,6.746-1.387,12.011-5.188
		C36.542,192.707,39.595,189.53,40.561,186.85z"/>
	<path d="M58.881,220.641c-3.521-6.356-6.263-9.582-8.226-9.675c-1.932-0.124-4.938,1.479-9.02,4.813
		c-3.396,2.805-5.624,4.985-6.683,6.543c-0.592,0.967-0.919,2.742-0.981,5.328c-0.063,2.586,0.171,4.331,0.701,5.234
		c1.246,1.932,3.333,4.113,6.262,6.543c3.209,2.617,5.593,3.895,7.151,3.832c1.713-0.093,4.751-1.697,9.113-4.813
		c4.393-3.116,6.59-5.219,6.59-6.31C63.789,230.393,62.153,226.561,58.881,220.641z"/>
	<path d="M311.675,285.649c0.405-0.903,0.608-1.776,0.608-2.617l-0.141-1.075c-0.28-0.902-1.075-1.682-2.384-2.336
		c-1.028-0.499-1.869-0.639-2.523-0.421c-0.654,0.249-1.23,0.981-1.729,2.196c-0.404,1.122-0.561,2.025-0.467,2.711
		c0.063,0.592,0.342,1.168,0.841,1.729l1.542,1.216c1.091,0.592,2.057,0.701,2.898,0.327
		C310.818,287.129,311.271,286.553,311.675,285.649z"/>
	<path d="M323.172,298.314c-0.997-0.778-2.181-1.401-3.552-1.869c-1.277-0.436-2.523-0.639-3.738-0.607
		c-1.185,0.063-2.166,0.343-2.944,0.842c-1.651,1.121-2.633,2.835-2.944,5.141c-0.25,2.398,0.389,4.439,1.916,6.122
		c0.966,1.028,2.461,1.886,4.486,2.571c2.181,0.747,3.91,0.856,5.188,0.326c1.465-0.623,2.57-2.181,3.318-4.674
		c0.623-2.242,0.732-3.987,0.327-5.234C324.886,299.998,324.2,299.125,323.172,298.314z"/>
</g>
</svg>
