<?xml version="1.0" encoding="utf-8"?>
<!-- Generator: Adobe Illustrator 16.0.0, SVG Export Plug-In . SVG Version: 6.00 Build 0)  -->
<!DOCTYPE svg PUBLIC "-//W3C//DTD SVG 1.1//EN" "http://www.w3.org/Graphics/SVG/1.1/DTD/svg11.dtd">
<svg version="1.1" id="图层_1" xmlns="http://www.w3.org/2000/svg" xmlns:xlink="http://www.w3.org/1999/xlink" x="0px" y="0px"
	 width="166px" height="283px" viewBox="0 0 166 283" enable-background="new 0 0 166 283" xml:space="preserve">
<path d="M165.251,15.989c-0.333-0.366-1.249-0.533-2.746-0.5c-21.302,0.067-37.66,4.061-49.076,11.982
	c-4.56,3.195-9.202,8.77-13.929,16.725c-0.085,0.143-0.16,0.281-0.243,0.424c-0.359-0.149-0.738-0.275-1.131-0.382
	c1.227-1.348,2.21-2.949,2.921-4.835c0.832-2.33,1.115-4.676,0.85-7.039l-0.3-0.449c-4.726-2.097-8.903-2.696-12.531-1.797
	c-3.148,0.766-5.675,2.618-7.591,5.536c-0.056-0.573-0.136-1.153-0.248-1.742c-0.599-3.128-1.897-5.242-3.894-6.34
	c-1.564-0.865-4.127-1.73-7.688-2.596l-1.103-0.198c-1.275-3.999-3.215-8.026-5.836-12.083c-2.829-4.327-6.157-8.254-9.985-11.782
	c-0.632-0.599-1.132-0.849-1.498-0.749c-0.399,0.133-0.782,0.666-1.148,1.598c-2.696,6.723-4.36,12.315-4.993,16.775
	c-1.018,6.84-0.313,13.373,2.075,19.604c-1.491,0.471-2.897,1.012-4.172,1.663c-0.566,0.3-0.915,0.616-1.048,0.949
	c-0.1,0.299-0.05,0.766,0.15,1.398c1.231,3.461,3.478,6.606,6.74,9.436c0.651,0.565,1.299,1.072,1.945,1.542
	c-9.211,4.812-15.189,12.387-17.926,22.735l-4.139-0.213c-1.698,0.299-2.913,0.865-3.645,1.697c-0.699,0.799-1.082,1.98-1.148,3.545
	c-0.399,11.283,3.395,21.651,11.383,31.103c7.36,8.732,15.654,13.635,24.884,14.712c1.7,4.796,1.114,9.095-1.769,12.896
	c-1.617,2.126-3.792,3.837-6.494,5.156c-3.707-3.349-8.638-4.965-14.824-4.807c-2.828,0.071-5.433,0.535-7.842,1.347
	c1.076-2.136,1.583-4.479,1.502-7.038c-0.1-3.129-1.048-6.44-2.846-9.935c-2.596-4.993-9.22-12.614-19.87-22.866l-1.498-0.898
	c-0.333,0.066-0.749,0.466-1.248,1.198c-2.463,3.728-3.777,8.87-3.944,15.427c-0.113,4.398,0.315,8.116,1.257,11.184l-1.606-0.201
	c-0.832,0.1-1.148,0.616-0.949,1.547c0.932,5.192,3.029,9.652,6.291,13.38c3.168,3.611,6.931,5.926,11.275,6.974
	c-2.917,3.945-4.947,8.69-6.083,14.244c-1.464,7.289-1.215,15.144,0.749,23.564c1.764,7.322,2.829,15.493,3.195,24.513l-0.149,2.746
	l-0.749,1.647c-1.065,1.498-1.947,3.229-2.646,5.192c-0.799,2.164-1.265,4.326-1.398,6.49l-2.396,33.449
	c-0.1,1.564,0.25,2.746,1.048,3.545c0.965,0.932,2.081,1.664,3.345,2.197c1.231,0.532,2.38,0.799,3.445,0.799
	c1.831,0,2.746-1.032,2.746-3.096c0-8.188,1.498-16.842,4.494-25.961c2.729-8.32,5.774-14.445,9.136-18.373
	c3.029-3.527,4.792-9.302,5.292-17.323c0.168-2.624,0.166-5.092,0.021-7.429c0.751,0.59,1.488,1.122,2.212,1.603
	c0.644,3.454,1.542,7.025,2.709,10.719c0.627,2.006,1.244,4.305,1.851,6.879c-0.925,4.749-1.362,8.538-1.302,11.344
	c0.033,1.032,0.699,3.711,1.997,8.038c0.836,2.718,1.662,5.287,2.478,7.718l-0.63,14.948l-1.298,19.77
	c-0.133,1.73,0.466,3.112,1.797,4.145c1.132,0.832,2.679,1.23,4.643,1.197c1.997-0.033,3.478-0.482,4.443-1.348
	c0.999-0.865,1.614-2.23,1.847-4.094c0.247-2.427,0.851-6.246,1.81-11.449l1.385-0.033c0.965-0.133,1.631-0.383,1.997-0.749
	c0.299-0.333,0.449-0.865,0.449-1.598c0-2.418-0.377-6.225-1.127-11.397c0.027-0.13,0.052-0.254,0.079-0.385l1.598-9.835
	l0.799-9.137c0.366-5.226,1.198-11.449,2.496-18.672c0.674-3.653,1.037-7.038,1.11-10.174c3.301-0.375,6.566-1.037,9.792-2.001
	c-0.823,17.642-0.464,30.644,1.08,38.984c1.664,9.12,3.195,18.539,4.593,28.258c0.232,1.598,0.682,2.879,1.348,3.844
	c0.566,0.799,1.447,1.531,2.646,2.197c1.697,0.898,3.777,1.547,6.24,1.947c2.796,0.365,3.943-0.85,3.445-3.645
	c-0.799-4.261-1.332-10.918-1.598-19.971c-0.167-6.889-0.167-13.163,0-18.821c0.066-2.229,1.131-9.752,3.195-22.565l3.594-22.268
	c0.932-7.389,0.649-14.078-0.849-20.069c-1.764-7.188-6.557-16.558-14.378-28.107c-4.027-6.024-3.046-12.665,2.945-19.92
	c4.227-5.026,7.705-10.185,10.434-15.477c2.797-5.358,4.561-10.334,5.293-14.927c1.286-7.878,0.234-15.368-3.14-22.47
	c5.263-0.646,11.506-2.347,18.766-5.139c9.12-3.528,15.677-7.14,19.671-10.834c3.561-3.262,6.889-7.422,9.984-12.481
	c0.174-0.283,0.335-0.563,0.503-0.845c2.768-3.435,5.282-6.979,7.535-10.638c2.53-4.094,4.228-7.605,5.093-10.534
	C165.566,17.12,165.584,16.355,165.251,15.989z"/>
</svg>
