<?xml version="1.0" encoding="utf-8"?>
<!-- Generator: Adobe Illustrator 16.0.0, SVG Export Plug-In . SVG Version: 6.00 Build 0)  -->
<!DOCTYPE svg PUBLIC "-//W3C//DTD SVG 1.1//EN" "http://www.w3.org/Graphics/SVG/1.1/DTD/svg11.dtd">
<svg version="1.1" id="图层_1" xmlns="http://www.w3.org/2000/svg" xmlns:xlink="http://www.w3.org/1999/xlink" x="0px" y="0px"
	 width="375px" height="507px" viewBox="0 0 375 507" enable-background="new 0 0 375 507" xml:space="preserve">
<path d="M374.65,486.906c-6.001-10.535-11.019-24.187-15.053-40.956c-4.233-17.635-6.134-33.854-5.7-48.656
	c0.133-4.134-0.75-7.001-2.65-8.601c-0.667-0.566-3.4-1.867-8.201-3.9c-4.4-2.034-7.551-4.102-9.451-6.201
	c-3.2-3.601-4.768-8.484-4.701-14.652c0.033-1.666,0.184-3.816,0.45-6.451l0.7-6.801c1.101-12.035,1.567-20.303,1.4-24.803
	c-0.001-0.021-0.003-0.043-0.004-0.064c1.725,0.354,3.694,0.505,5.954,0.414c3.401-0.1,6.051-0.684,7.951-1.75
	c0.4-0.233,0.517-0.566,0.351-1c-0.267-0.834-1.167-2.134-2.7-3.9c-0.737-0.849-1.45-1.575-2.146-2.227
	c4.362,0.182,8.364-0.174,11.997-1.074c3.701-0.934,6.685-2.35,8.951-4.25c0.4-0.334,0.434-0.734,0.101-1.201
	c-3.434-4.199-10.602-9.484-21.503-15.852c-5.402-3.144-10.317-5.765-14.77-7.886c3.859-5.1,6.376-11.362,7.519-18.817
	c1.18-7.438,0.681-14.442-1.482-21.018c1.028,0.592,2.103,1.134,3.232,1.615c3.968,1.633,7.817,2.267,11.552,1.9
	c0.434-0.066,0.684-0.316,0.75-0.75c0.967-7.734-0.95-14.552-5.751-20.453c-1.381-1.704-2.922-3.207-4.611-4.524
	c3.835-3.233,5.838-7.748,5.962-13.579c0.1-6.801-2.601-12.668-8.102-17.602c1.122-1.122,1.786-2.342,2.01-3.656
	c1.964,0.387,4.288,0.347,6.992-0.145c4.634-0.833,9.234-2.667,13.802-5.5c0.333-0.233,0.449-0.55,0.35-0.95
	c-1.066-4.367-3.567-8.151-7.501-11.352c-3.378-2.775-6.964-4.475-10.752-5.121c0.548-1.331,1.015-2.822,1.4-4.48
	c1.423-6.275,0.825-11.2-1.735-14.809c1.017-0.511,2.029-1.063,3.036-1.693c5.2-3.267,8.784-7.184,10.751-11.751
	c0.334-0.733-0.267-1.7-1.8-2.9c-1.467-1.167-3.468-2.267-6.001-3.3c-6.301-2.534-12.035-3.267-17.202-2.201
	c-0.646,0.138-1.279,0.319-1.904,0.528c1.74-6.671,1.64-12.72-0.347-18.13c-2.934-7.901-9.718-13.869-20.352-17.902
	c1.899-3.134,2.816-6.601,2.75-10.401c-0.033-3.767-1.018-7.301-2.951-10.602c-1.989-3.404-4.551-6.076-7.681-8.021
	c2.609,0.006,5.318-0.349,8.132-1.08c4.233-1.1,7.784-2.784,10.65-5.051c0.301-0.3,0.4-0.6,0.301-0.9
	c-1.101-4.233-4.151-7.951-9.151-11.151c-4.766-3.019-9.795-4.492-15.086-4.437c3.098-2.265,5.593-5.319,7.485-9.165
	c2.333-4.768,3.699-10.585,4.1-17.453l-0.1-0.75l-0.75-0.15c-7.568-0.2-14.336,1.2-20.303,4.201
	c-6.534,3.234-11.135,7.934-13.803,14.102c-2.366-4.5-5.566-8.218-9.601-11.151c-4.101-2.967-8.601-4.767-13.502-5.401
	c-10.829-1.41-20.822,2.739-29.989,12.412c-0.151-0.419-0.295-0.836-0.465-1.26c-2.434-5.968-5.934-10.285-10.501-12.952
	c-0.467-0.233-0.851-0.15-1.15,0.25c-3.4,4.567-5.2,10.051-5.401,16.452c-0.046,1.341-0.017,2.621,0.071,3.854
	c-9.325-1.34-16.485,0.306-21.474,4.947c-5.567,5.134-7.167,12.869-4.8,23.203c-4.324,1.37-8.14,3.088-11.477,5.135
	c2.707-9.067,1.422-17.098-3.875-24.087c-5.701-7.601-13.919-10.802-24.653-9.602c-1.767-3.567-4.268-6.401-7.501-8.501
	c-3.067-2.034-6.417-3.167-10.051-3.4c-6.6-0.458-11.924,1.612-15.978,6.203c0.878-6.76,0.151-12.884-2.225-18.355
	c-2.1-4.867-4.184-7.301-6.251-7.301c-1.4,0-3.034,1.067-4.9,3.2c-1.967,2.234-3.65,5.051-5.051,8.451
	c-3.601,8.768-3.951,17.369-1.05,25.804c-1.833,0.4-3.634,1.05-5.4,1.95c-1.8,0.929-3.224,1.992-4.316,3.173
	c-3.764-6.1-10.906-10.126-21.438-12.075c-3.967-0.767-7.635-1.05-11.001-0.85c-3.201,0.167-5.018,0.667-5.451,1.5
	c-0.433,0.867-0.033,2.517,1.2,4.951c1.3,2.6,3.15,5.2,5.551,7.801c4.218,4.64,8.697,7.875,13.433,9.72
	c-2.303,1.016-4.184,2.719-5.631,5.132c-2.034,3.333-2.75,7.184-2.15,11.551c-7.901,2.201-13.585,5.618-17.052,10.251
	c-3.534,4.734-4.601,10.452-3.201,17.152c-6.167-0.3-11.901,1.984-17.202,6.851c-1.934,1.767-3.55,3.667-4.851,5.701
	c-1.133,1.8-1.7,3.15-1.7,4.05c0,1.167,2.4,2.684,7.201,4.551c4.442,1.724,8.319,2.615,11.634,2.674
	c-0.131,0.777-0.183,1.583-0.133,2.426c0.4,6.134,4.534,11.202,12.401,15.202c-1.119,3.872-1.531,7.827-1.25,11.863
	c-2.67,0.935-5.271,2.459-7.801,4.589c-6.768,5.701-10.051,12.985-9.851,21.853c0,0.533,0.283,0.8,0.85,0.8
	c10.001-0.067,17.869-2.65,23.603-7.751c0.317-0.279,0.598-0.58,0.897-0.869c1.719,1.811,3.612,3.282,5.704,4.37
	c-6.634,6.834-9.268,14.135-7.901,21.903c1.267,7.167,5.434,12.901,12.502,17.202c-5.501,3.3-9.151,8.084-10.952,14.352
	c-1.633,5.701-1.684,12.435-0.15,20.203c0.133,0.566,0.483,0.783,1.05,0.65c1.767-0.467,4.117-1.617,7.051-3.451
	c3.167-2,5.618-3.983,7.351-5.951c-0.267,5.768,1.067,11.068,4,15.903c2.634,4.367,6.651,8.467,12.052,12.301
	c0.533,0.4,0.95,0.301,1.25-0.3c3.201-6.233,5.017-13.218,5.451-20.953c0.467-7.801-0.567-14.385-3.101-19.753
	c3.467,2.3,7.601,3.734,12.402,4.301c4.201,0.467,6.518,0.283,6.951-0.55c1.433-2.733,1.15-6.601-0.851-11.602
	c-2.4-6-6.684-9.834-12.852-11.501c2.534-4.101,3.801-8.684,3.801-13.751c0-4.501-0.95-8.668-2.851-12.502
	c3.767,1.833,7.584,2,11.452,0.5c1.3-0.467,2.467-1.083,3.5-1.85l1.3-1.25c0.1-4.034-1.25-7.918-4.05-11.652
	c-3.634-4.801-9.084-8.234-16.352-10.301c4.667-3.2,8.151-7.651,10.451-13.352c0.744-1.868,1.305-3.669,1.696-5.409
	c1.635,4.235,4.434,7.457,8.406,9.659l0.95-0.1c1.368-1.114,2.575-2.329,3.638-3.634c0.837,3.278,3.149,7.782,6.963,13.536
	c3.567,5.334,5.968,8.368,7.201,9.101c1.913,1.192,4.89,2.173,8.901,2.95c-0.646,0.63-1.16,1.324-1.542,2.08
	c-1.795,0.966-3.153,2.517-4.058,4.671c-0.868,2.045-1.269,4.525-1.244,7.405c-2.06,1.552-4.844,3.467-8.357,5.747
	c-6.479,4.175-11.421,7.015-14.88,8.566c-2.332,0.22-3.777,0.962-4.322,2.235c-0.6,1.4-0.483,3.734,0.35,7.001
	c0.8,3.067,1.833,5.518,3.1,7.351c1.297,1.844,2.543,2.887,3.74,3.138c0.175,0.1,0.363,0.187,0.562,0.263
	c2.934,3.434,7.151,5.034,12.651,4.8c2.867-0.1,7.268-1,13.202-2.7c2.165-0.562,3.942-0.976,5.337-1.243
	c0.266,3.369-0.176,8.792-1.326,16.268c-2.375,1.882-3.93,4.008-4.661,6.378c-2.8-1.233-5.601-0.6-8.401,1.9
	c-3.067,2.7-4.817,6.667-5.25,11.901c-5.667-0.567-10.618,0.267-14.852,2.501c-3.5,1.833-5.051,3.3-4.651,4.4
	c1.833,4.867,3.784,8.601,5.851,11.201c2.063,2.594,4.792,4.757,8.173,6.501c-4.256,0.05-7.788-0.444-10.573-1.501
	c-0.934-0.366-1.284,0.134-1.05,1.5c0.2,1.4,0.883,3.084,2.05,5.051c3.101,5.268,6.834,8.418,11.202,9.451
	c-1.1,3.535-1.484,7.219-1.15,11.053c0.267,3.467,1.067,6.65,2.4,9.551c0.167,0.233,1.75-0.1,4.75-1
	c3.201-1,5.417-2.018,6.651-3.051c0.017,0.707,0.105,1.44,0.228,2.186c-0.285,8.654,0.15,16.814,1.323,24.469
	c0.7,4.467,1.767,9.168,3.201,14.102c1.233,4.167,1.85,7.15,1.85,8.951c0,2.667-0.5,8.301-1.5,16.902
	c-0.067,1.4,1.433,3.184,4.5,5.351l5.051,3.5c-0.167,15.636-2.534,29.487-7.101,41.556c-4.701,12.302-12.035,23.587-22.003,33.854
	c-0.633,0.667-0.483,2.884,0.45,6.651c0.854,3.446,1.878,5.938,3.07,7.484l-0.67,0.767c-4.467,4.767-7.134,9.635-8.001,14.602
	c-0.3,1.667-0.367,3.184-0.2,4.551c0.167,1.101,0.367,1.717,0.6,1.851c3.801,1.767,8.602,2.066,14.402,0.899
	c5.267-1.1,8.384-2.533,9.351-4.3c0.267-0.434,0.25-2.701-0.05-6.802c-0.096-1.388-0.102-2.591-0.026-3.622
	c0.847,0.657,1.852,1.299,3.026,1.922c1.634,0.834,3.184,1.417,4.651,1.751c0.767,0.133,1.117-0.184,1.05-0.95
	c-1.267-12.269,0.367-25.438,4.9-39.506c2.7-8.435,7.518-19.603,14.452-33.504l4.5-8.751c1.196-2.339,2.136-4.409,2.844-6.237
	c0.147,0.313,0.312,0.622,0.456,0.937c6.634,14.602,10.235,32.337,10.802,53.207c0.033,0.7,1.633,1.85,4.8,3.45
	c2.707,1.397,4.786,2.248,6.246,2.559c1.113,7.719,3.858,14.438,8.256,20.145c1.867,2.434,3.784,4.334,5.751,5.7
	c1.801,1.268,3.167,1.801,4.101,1.601c2-0.366,4.083-2.367,6.251-6.001c1.834-3.033,3.017-6.751,3.551-11.151
	c0.467-4.2,0.183-6.451-0.851-6.751c-4.211-1.342-7.386-3.013-9.573-4.997l4.272-0.554c1.934-0.533,3.7-1.233,5.301-2.1
	c0.8-0.4,0.851-0.884,0.149-1.45c-4.934-3.634-10.034-9.752-15.302-18.353c-5.4-8.802-9.401-17.687-12.001-26.654
	c-0.934-3.233-1.583-6.917-1.95-11.051c-0.367-4.067-0.367-7.519,0-10.352c0.067-0.733-0.05-1.4-0.35-2.001l-1.65-2.1
	c-2.233-2.334-4.234-4.717-6-7.15c-2.167-3.068-3.634-5.768-4.401-8.102c5.965-2.11,11.448-4.281,16.464-6.51
	c11.813,1.263,22.901,1.393,33.243,0.359c3.397-0.354,7.601-1.005,12.574-1.942c-0.539,3.557-0.559,7.561-0.022,12.043
	c0.566,4.868,1.6,8.835,3.1,11.901c0.334,0.634,1.101,1.467,2.301,2.501l3.801,3.15l6.851,6.401c2.367,2.566,3.65,4.783,3.851,6.65
	c0.166,9.268-2.134,20.069-6.9,32.404c-4.234,10.835-9.352,20.52-15.353,29.054c-0.3,0.4,0.083,2.067,1.149,5.001
	c0.968,2.721,1.866,4.652,2.696,5.81c-0.567,1.267-1.632,3.013-3.196,5.241c-3.166,4.567-5.1,8.868-5.801,12.902
	c-0.5,3.033-0.449,4.717,0.15,5.051c2,1.033,6.668,0.683,14.002-1.051c7.234-1.7,11.085-3.267,11.552-4.7
	c0.434-1.301,0.333-4.067-0.3-8.302c-0.04-0.26-0.072-0.501-0.109-0.753c1.823,1.193,3.494,1.933,5.01,2.204
	c1.6,0.267,2.334,0.05,2.2-0.65c-2.601-14.302-2.15-27.954,1.351-40.956c2.4-8.834,6.584-18.252,12.551-28.253l4.651-8.352
	c1.267-2.567,1.917-4.684,1.95-6.351c0-0.601-0.417-1.434-1.25-2.501l-2.301-2.95c-1.5-2.167-2.517-3.867-3.051-5.101
	c-0.967-2.167-1.283-4.184-0.949-6.051c0.199-1.233,2.483-4.851,6.851-10.852c3.638-4.995,6.61-8.798,8.924-11.417
	c3.962,7.426,8.138,12.821,12.528,16.168c2.034,1.533,4.401,3.083,7.102,4.65l7.201,3.851c6.634,3.367,11.052,5.817,13.252,7.352
	c4.634,3.267,8.034,7.117,10.201,11.551c4.134,8.435,7.468,19.486,10.001,33.154c3.268,17.569,2.917,31.071-1.05,40.506
	c-0.1,0.333-0.066,0.616,0.1,0.85c1.526,1.963,3.643,3.777,6.333,5.448c-0.193,0.423-0.411,0.842-0.682,1.253
	c-2.501,3.834-4.234,8.067-5.201,12.702c-1.033,4.867-0.533,7.45,1.5,7.751c4.435,0.633,9.002,0.183,13.702-1.351
	c4.434-1.467,7.501-3.367,9.201-5.7c0.4-0.567,0.5-1.684,0.3-3.351l-0.8-4.401c-0.107-0.606-0.199-1.163-0.279-1.684
	c1.671,0.183,3.539,0.201,5.63,0.034c2.768-0.233,4.601-0.75,5.501-1.551C374.833,487.623,374.884,487.272,374.65,486.906z
	 M306.541,274.527c-8.001-4.167-17.886-5.483-29.654-3.95c-9.102,1.167-20.386,1.034-33.854-0.399
	c-13.001-1.4-24.003-3.567-33.005-6.502c-3.232-1.033-6.4-2.8-9.5-5.301c-3.168-2.566-5.051-4.934-5.651-7.1
	c-2.333-8.268-3.718-17.369-4.15-27.304c-0.2-4.734-0.15-12.602,0.149-23.603l0.201-11.352c-0.031-3.603-0.226-6.669-0.569-9.248
	c1.867,0.114,3.895,0.214,6.119,0.297l15.603-0.7c1.367-0.534,4.667-4.784,9.9-12.752c5.335-8.101,7.785-12.852,7.352-14.252
	c-0.566-1.733-6.484-2.833-17.752-3.3l-20.854,0.75c-1.5,0.467-4.25,3.184-8.25,8.151c-1.019,1.266-1.944,2.445-2.794,3.556
	c-0.912-0.534-1.824-1.001-2.735-1.395c2.469-5.752,6.128-12.106,10.98-19.063c2.504-2.968,7.12-6.468,13.84-10.497
	c1.338,1.692,2.939,3.177,4.813,4.446c6.334,4.3,13.535,4.5,21.603,0.6c-0.833,5.567,0.184,10.768,3.051,15.602
	c2.967,5,7.251,8.401,12.852,10.201h0.75l0.35-0.6c1.168-4.3,1.867-7.968,2.102-11.001c0.224-2.862,0.048-5.46-0.483-7.826
	c2.19,0.515,4.5,0.417,6.934-0.325c0.733,7.601,3.55,13.435,8.451,17.502c4.4,3.634,10.251,5.667,17.552,6.101
	c-4.267,5.434-6.684,11.568-7.25,18.402c-0.566,6.435,0.6,11.535,3.5,15.302c0.301,0.333,0.65,0.417,1.051,0.25
	c7.734-3.634,13.385-7.968,16.951-13.002c0.834-1.199,1.569-2.487,2.225-3.846c0.497,6.183,3.801,11.65,9.928,16.398
	c-4.967,4.434-7.484,9.651-7.551,15.652c-0.101,5.967,2.217,11.151,6.951,15.552c-5.901,3.234-10.152,7.968-12.752,14.202
	c-2.534,6.167-2.701,11.901-0.5,17.202c0.166,0.4,0.467,0.567,0.899,0.5c5.067-0.667,9.335-2.384,12.802-5.15
	c0.648-0.523,1.247-1.086,1.822-1.668c-0.919,5.907,0.074,12.128,3.028,18.67c1.223,2.727,2.617,5.105,4.176,7.15
	C312.602,278.319,309.73,276.197,306.541,274.527z M152.215,155.852c-0.244-2.347-1.038-5.652-2.395-9.941
	c-1.146-3.703-3.022-9.058-5.619-16.046c1.643-0.149,3.663-0.863,6.069-2.157c2.61-1.38,5.092-3.145,7.459-5.253
	c0.191,0.333,0.383,0.667,0.592,1.003c1.867,3.034,4.2,5.518,7.001,7.451c2.662,1.888,5.338,2.96,8.028,3.239
	c-1.427,1.506-2.791,3.041-4.078,4.612c-0.3,0.4-1.517,3.7-3.65,9.901l-2.531,7.513
	C159.432,155.654,155.807,155.547,152.215,155.852z M114.666,136.409c5.441,1.431,10.339,0.76,14.707-1.957l0.295,0.357
	c1.066,1.667,2.4,5.151,4,10.452c0.005,0.019,0.01,0.036,0.016,0.055c-2.423-1.204-6.267-2.422-11.567-3.655
	c-7.468-1.767-14.168-2.434-20.103-2c-0.065,0.004-0.114,0.016-0.176,0.021c1.522-2.783,2.495-5.91,2.92-9.379
	C106.997,133.219,110.289,135.263,114.666,136.409z"/>
</svg>
