<?xml version="1.0" encoding="utf-8"?>
<!-- Generator: Adobe Illustrator 16.0.0, SVG Export Plug-In . SVG Version: 6.00 Build 0)  -->
<!DOCTYPE svg PUBLIC "-//W3C//DTD SVG 1.1//EN" "http://www.w3.org/Graphics/SVG/1.1/DTD/svg11.dtd">
<svg version="1.1" id="图层_1" xmlns="http://www.w3.org/2000/svg" xmlns:xlink="http://www.w3.org/1999/xlink" x="0px" y="0px"
	 width="416px" height="517px" viewBox="0 0 416 517" enable-background="new 0 0 416 517" xml:space="preserve">
<path d="M414.9,39.551c0.767-0.733,1.083-1.267,0.949-1.6c-0.133-0.333-0.683-0.616-1.649-0.85c-8.299-2.167-19.298-3.2-32.996-3.1
	c-13.27,0.088-23.781,1.353-31.546,3.79c4.189-4.833,8.323-8.622,12.398-11.339c0.566-0.367,0.833-0.667,0.8-0.9l-1-0.6
	c-6.1-1.933-13.315-2.417-21.647-1.45c-8.433,0.967-16.281,3.216-23.547,6.75c2.366-3.433,4.466-7.116,6.299-11.049
	c1.833-3.899,2.517-6.149,2.05-6.749l-4.399-0.25c-2.899,0.267-5.982,0.85-9.249,1.75c-6.698,1.832-12.11,4.399-16.248,7.694
	c2.004-4.263,3.56-8.494,4.649-12.693c0.4-1.467,0.5-2.283,0.301-2.45c-0.201-0.1-1.101,0.083-2.7,0.55
	c-12.265,3.633-21.747,9.016-28.446,16.148c-1.085,1.164-2.058,2.354-2.939,3.564c0.013-0.04,0.026-0.075,0.039-0.114
	c2.133-6.566,3.533-12.999,4.2-19.298c0.1-0.933-0.284-1.233-1.149-0.9c-8.699,3.433-17.648,10.299-26.848,20.598
	c-6.206,6.931-10.93,13.637-14.181,20.122c0.261-2.54,0.423-5.623,0.482-9.273c0.101-6.133-0.149-9.365-0.75-9.699
	c-0.333-0.167-1.649,0.45-3.949,1.85c-2.866,1.767-5.649,3.983-8.349,6.649c-7.769,7.706-12.819,17.149-15.156,28.328
	c-1.615-5.655-4.42-10.851-8.441-15.579c-1.8-2.066-3.666-3.866-5.599-5.399c-1.6-1.267-2.467-1.85-2.6-1.75
	c-0.938,0.547-1.819,1.939-2.643,4.161c-3.29,0.092-6.393,0.867-9.305,2.338c-3.066,1.533-6.199,4-9.399,7.399
	c1.2-13.432-0.65-23.647-5.549-30.646c-0.267-0.366-0.617-0.466-1.05-0.3c-2,0.933-4.116,3.6-6.35,7.999
	c-1.52,3.063-2.486,5.723-2.923,7.999c-1.709-5.744-4.499-11.709-8.375-17.897c-4.633-7.399-7.699-10.982-9.199-10.749
	c-0.467,0.066-1.117,1.167-1.95,3.3c-1,2.5-1.783,5.382-2.35,8.648c-0.458,2.71-0.702,5.42-0.778,8.129
	c-3.152-6.947-8.155-13.523-15.02-19.728C101.888,6.722,95.539,2.739,89.739,1.006c-0.4-0.167-0.717-0.05-0.95,0.35
	c-1.333,2.133-2,5.882-2,11.249c0,3.503,0.279,6.545,0.822,9.148c-3.964-3.956-9.179-7.524-15.67-10.698
	c-4.933-2.4-9.882-4.166-14.848-5.299c-4.799-1.1-8.699-1.4-11.699-0.9c-0.467,0.066,0,2.233,1.4,6.499
	c0.864,2.649,1.768,4.887,2.708,6.739c-4.836-3.716-10.434-7.115-16.807-10.188C20.964,2.239,10.365-0.294,0.9,0.306l-0.85,0.25
	l0.05,0.75c2.433,10.232,7.916,19.281,16.448,27.147c1.803,1.664,3.724,3.249,5.76,4.757l-5.36-0.458
	c-3.066,0.1-5.566,0.583-7.499,1.45c3.716,10.849,9.785,18.439,18.19,22.794l-2.792-0.146c-3.667,0.167-5.566,0.45-5.699,0.85
	c-0.267,0.767,0.6,2.75,2.6,5.949c2.366,3.799,5.299,7.366,8.799,10.699C37.417,80.97,44.83,85.154,52.781,86.92
	c-7.591,1.261-14.196,3.74-19.785,7.474c-0.333,0.233-0.517,0.434-0.55,0.6l0.35,0.65c4.1,4.899,9.682,9.182,16.748,12.849
	c5.898,3.038,12.091,5.286,18.576,6.753c-4.667,0.859-9.013,2.483-13.026,4.896c-0.4,0.233-0.6,0.433-0.6,0.6
	c-0.034,0.167,0.117,0.417,0.45,0.75c6.166,6,12.982,10.199,20.448,12.599c6.06,1.921,11.935,2.485,17.628,1.707
	c-3.434,3.383-6.712,7.472-9.829,12.292c-0.3,0.4-0.4,0.7-0.3,0.9c0.1,0.2,0.383,0.333,0.85,0.4
	c12.462,1.799,22.864,0.621,31.217-3.518c-1.081,2.138-1.957,4.408-2.62,6.817c-0.867,3.1-1.267,6.016-1.2,8.749
	c0,0.633,0.3,0.9,0.9,0.8c3.841-0.387,7.682-1.154,11.522-2.259c1.022,1.811,2.264,3.796,3.726,5.958
	c3.5,5.166,5.866,8.116,7.099,8.849c1.3,0.8,3.1,1.533,5.399,2.2l4.128,0.973c-0.637,0.615-1.151,1.289-1.534,2.026
	c-1.838,0.979-3.225,2.539-4.144,4.7c-0.867,2.076-1.269,4.572-1.244,7.454c-2.059,1.552-4.843,3.466-8.355,5.745
	c-6.467,4.194-11.402,7.035-14.859,8.571c-2.318,0.222-3.774,0.958-4.338,2.228c-0.6,1.434-0.483,3.75,0.35,6.949
	c0.8,3.1,1.85,5.549,3.15,7.349c1.207,1.717,2.37,2.73,3.491,3.065c0.22,0.137,0.479,0.239,0.742,0.338
	c0.008,0.015,0.003,0.032,0.017,0.046c2.933,3.399,7.149,5,12.648,4.799c2.833-0.133,7.249-1.033,13.249-2.7
	c2.15-0.609,3.922-1.045,5.324-1.311c0.241,2.866-0.014,7.025-0.775,12.509c-0.567,4.2-1.65,10.482-3.25,18.848l-5.649,29.896
	c-1.586,10.816-1.797,19.876-0.666,27.222c-0.687,10.102-0.439,19.581,0.766,28.423c0.7,5.199,1.85,10.531,3.449,15.998l1.3,4.648
	c0.4,1.667,0.6,3.1,0.6,4.3l-0.7,9.199l-0.8,7.698c-0.1,1.4,1.383,3.167,4.45,5.3l5.049,3.499
	c-0.167,15.599-2.533,29.33-7.099,41.195c-4.666,12.065-12.015,23.231-22.047,33.496c-0.667,0.667-0.517,3.017,0.45,7.05
	c0.884,3.653,1.925,6.262,3.122,7.831l-0.672,0.768c-4.466,4.766-7.133,9.615-7.999,14.548c-0.3,1.7-0.367,3.233-0.2,4.6
	c0.167,1.101,0.367,1.717,0.6,1.85c3.799,1.767,8.599,2.066,14.398,0.9c5.266-1.1,8.399-2.533,9.399-4.3
	c0.233-0.433,0.2-2.699-0.1-6.799c-0.095-1.391-0.099-2.592-0.021-3.622c0.846,0.649,1.848,1.274,3.021,1.872
	c1.667,0.866,3.233,1.45,4.699,1.75c0.733,0.166,1.066-0.134,1-0.9c-1.267-12.265,0.367-25.43,4.899-39.495
	c2.766-8.532,7.583-19.697,14.448-33.496l4.5-8.749l2.813-6.299c0.158,0.335,0.333,0.664,0.486,1
	c6.633,14.598,10.232,32.329,10.799,53.193c0.033,0.667,1.633,1.816,4.799,3.45c2.704,1.381,4.784,2.229,6.244,2.548
	c1.116,7.722,3.876,14.442,8.305,20.149c1.833,2.399,3.733,4.299,5.7,5.699c1.799,1.232,3.166,1.767,4.1,1.6
	c2-0.367,4.082-2.383,6.249-6.05c1.833-3.032,3.017-6.749,3.55-11.148c0.5-4.166,0.232-6.416-0.801-6.749
	c-4.224-1.3-7.414-2.955-9.618-4.95l4.319-0.6c1.9-0.499,3.666-1.183,5.299-2.049c0.734-0.467,0.768-0.95,0.101-1.45
	c-4.933-3.633-10.032-9.749-15.298-18.348c-5.4-8.832-9.399-17.731-11.999-26.697c-0.933-3.232-1.583-6.916-1.95-11.049
	c-0.367-4.099-0.367-7.532,0-10.298c0.1-0.7-0.017-1.367-0.35-2l-1.65-2.1c-2.233-2.334-4.232-4.717-5.999-7.149
	c-2.167-3.066-3.633-5.782-4.399-8.149c5.992-2.099,11.5-4.266,16.54-6.5c11.781,1.256,22.838,1.383,33.154,0.352
	c3.376-0.353,7.58-1.005,12.576-1.942c-0.512,3.587-0.533,7.607-0.027,12.091c0.6,4.899,1.649,8.849,3.149,11.848
	c0.333,0.668,1.1,1.518,2.3,2.551l3.749,3.149l6.85,6.349c2.366,2.566,3.666,4.783,3.899,6.649
	c0.134,9.299-2.183,20.114-6.949,32.446c-4.233,10.832-9.349,20.515-15.349,29.047c-0.299,0.366,0.084,2.033,1.15,4.999
	c0.96,2.73,1.853,4.657,2.677,5.794c-0.57,1.264-1.627,3.013-3.177,5.255c-3.133,4.566-5.049,8.865-5.749,12.898
	c-0.533,3.066-0.5,4.732,0.1,4.999c2,1.033,6.666,0.7,13.999-1c7.266-1.699,11.115-3.266,11.549-4.699
	c0.433-1.333,0.332-4.116-0.301-8.349c-0.038-0.245-0.068-0.472-0.104-0.709c1.844,1.195,3.513,1.938,5.003,2.209
	c1.601,0.267,2.333,0.033,2.2-0.7c-2.6-14.265-2.15-27.913,1.35-40.945c2.399-8.832,6.582-18.248,12.549-28.246
	c2.266-3.7,3.832-6.467,4.699-8.3c1.232-2.6,1.866-4.716,1.899-6.349c0-0.601-0.417-1.434-1.249-2.5l-2.301-3
	c-1.5-2.166-2.516-3.865-3.049-5.099c-0.967-2.134-1.283-4.134-0.95-5.999c0.233-1.268,2.532-4.883,6.899-10.85
	c3.643-5.019,6.602-8.809,8.887-11.385c3.956,7.409,8.125,12.794,12.511,16.135l7.099,4.649l7.249,3.85
	c6.633,3.399,11.032,5.849,13.198,7.349c4.633,3.267,8.05,7.116,10.249,11.549c4.133,8.399,7.466,19.431,9.999,33.096
	c3.267,17.599,2.899,31.113-1.1,40.546c-0.134,0.3-0.084,0.583,0.149,0.85c1.515,1.946,3.608,3.747,6.268,5.407
	c-0.191,0.42-0.404,0.836-0.668,1.242c-2.467,3.799-4.199,8.032-5.199,12.698c-1.033,4.899-0.533,7.499,1.5,7.799
	c4.466,0.634,9.032,0.184,13.698-1.35c4.433-1.5,7.499-3.416,9.198-5.749c0.434-0.567,0.533-1.684,0.301-3.35l-0.75-4.35
	c-0.107-0.607-0.199-1.164-0.28-1.685c1.666,0.177,3.518,0.18,5.579-0.016c2.767-0.233,4.6-0.75,5.5-1.55
	c0.366-0.3,0.433-0.649,0.199-1.05c-6.032-10.499-11.065-24.13-15.098-40.896c-4.233-17.631-6.133-33.846-5.699-48.644
	c0.133-4.133-0.75-6.999-2.65-8.599c-0.666-0.567-3.399-1.867-8.198-3.9c-4.399-2.066-7.55-4.148-9.449-6.249
	c-3.199-3.6-4.767-8.481-4.699-14.647c0.033-1.601,0.183-3.733,0.449-6.4l0.7-6.849c1.1-11.999,1.566-20.247,1.4-24.747
	c-0.265-7.724-1.579-15.261-3.911-22.619c4.97-2.075,8.823-6.198,11.56-12.377c1.134-2.5,1.75-4.633,1.85-6.398
	c0.067-1.733-0.366-2.233-1.3-1.5c-1.766,1.366-3.683,2.232-5.749,2.6c-1.399,0.232-3.033,0.25-4.899,0.05
	c6.466-5.499,9.332-12.182,8.599-20.048c-0.767-8.365-5.549-15.231-14.348-20.597c-0.833-0.533-1.366-0.583-1.6-0.15
	c-0.167,0.333-0.101,0.8,0.199,1.399c2.434,4.767,2.417,9.766-0.05,14.998c-1.573,3.322-3.699,6.063-6.377,8.226
	c1.04-4.869,0.2-9.363-2.572-13.475c-1.066-1.566-2.149-2.716-3.249-3.45c-1.066-0.666-1.616-0.666-1.649,0
	c-0.167,4.467-1.567,8.416-4.2,11.85c-2.249,2.902-5.112,5.014-8.572,6.357c-5.48-0.977-11.57-1.032-18.274-0.158
	c-9.099,1.166-20.381,1.033-33.846-0.4c-12.998-1.4-23.98-3.566-32.946-6.499c-3.233-1.066-6.415-2.85-9.549-5.35
	c-3.133-2.566-5.017-4.916-5.649-7.049c-2.333-8.266-3.716-17.381-4.149-27.347c-0.039-0.921-0.068-1.964-0.088-3.122
	c3.078,0.419,6.106-0.152,9.087-1.728c1.233-0.667,2.033-1.3,2.4-1.9c0.365-0.6,0.082-0.85-0.851-0.75
	c-1.466,0.133-3.45-0.3-5.949-1.3c-1.563-0.633-2.903-1.326-4.032-2.077c3.811-0.037,7.422-0.659,10.832-1.873
	c5.865-2.033,10.148-5.566,12.848-10.599c0.834-1.533,0.467-1.917-1.1-1.15c-3.133,1.533-6.916,1.85-11.349,0.95
	c4.1-1.833,7.649-4.949,10.648-9.349c2.8-4.133,4.283-8.082,4.45-11.848v-0.05c0-0.633-0.201-0.966-0.601-1
	c-0.333,0-0.634,0.15-0.899,0.45c-3.4,3.933-7.899,5.999-13.499,6.199c-4.714,0.179-8.675-0.948-11.894-3.36
	c-0.062-0.676-0.135-1.313-0.214-1.928l6.158,0.539l15.599-0.7c1.366-0.5,4.666-4.75,9.898-12.749
	c5.299-8.099,7.732-12.832,7.299-14.198c-0.566-1.733-6.482-2.833-17.748-3.3l-20.848,0.75c-1.466,0.467-4.215,3.183-8.249,8.149
	c-1.016,1.26-1.937,2.432-2.782,3.534c-1.056-0.628-2.257-1.226-3.614-1.789c1.163-2.646,2.67-5.586,4.546-8.844
	c2-3.466,3.55-5.899,4.649-7.299c1.167-1.467,3.216-3.466,6.15-6c2.801-2.445,5.35-4.406,7.653-5.9
	c3.421,3.958,7.914,7.426,13.493,10.399c7.766,4.133,16.016,6.666,24.748,7.599l1.35-0.2c0.266-0.267,0.383-0.733,0.35-1.399
	c-0.2-3.767-0.916-7.166-2.15-10.199c-1.1-2.733-2.883-5.749-5.349-9.049c6.366,3.966,15.798,6.283,28.296,6.949
	c10.033,0.566,19.648,0.067,28.847-1.5c0.233-0.033,0.417-0.133,0.551-0.3l0.149-0.65c-0.5-3.7-3.866-8.465-10.099-14.298
	c-3.112-2.925-6.009-5.257-8.696-7.01c5.479-0.07,11.126-0.925,16.945-2.588c5.775-1.68,9.332-3.49,10.679-5.43
	c12.396,3.24,22.718,2.235,30.966-3.02l0.601-0.65l-0.25-0.8c-3.033-4.566-6.799-8.399-11.299-11.499
	c-1.661-1.139-3.384-2.143-5.164-3.024c6.799-0.148,14.197-1.348,22.212-3.625c9.799-2.766,17.798-6.449,23.997-11.048
	c0.9-0.633,0.884-1.35-0.05-2.15c-3-2.667-6.782-5.083-11.349-7.249c-4.833-2.3-9.433-3.75-13.799-4.35
	c9.232-0.533,20.081-3.633,32.547-9.299C399.919,51.05,408.867,45.417,414.9,39.551z M172.877,165.085
	c-1.615-6.43-3.058-11.817-4.331-16.167c2.324-0.054,4.575-0.312,6.732-0.831c3.621-0.891,6.781-2.432,9.494-4.603
	c-0.031,0.154-0.065,0.297-0.095,0.454c-1.133,6-1.25,9.166-0.35,9.499l2.65-0.05c0.351-0.079,0.669-0.179,0.974-0.289
	c-0.429,1.188-0.919,2.563-1.474,4.139l-2.758,8.001C180.066,164.783,176.452,164.731,172.877,165.085z M172.672,69.686
	c1.04-1.112,2.173-2.563,3.407-4.388l2.268-3.803c-0.057,3.864,0.375,7.683,1.331,11.452c0.182,0.721,0.389,1.423,0.603,2.12
	C178.032,73.058,175.5,71.261,172.672,69.686z M151.01,143.84c0.407,0.449,0.804,0.888,1.222,1.349c0.433,0.7,0.85,2.133,1.25,4.299
	c0.447,2.392,0.871,4.455,1.273,6.202c-0.075-0.053-0.153-0.113-0.224-0.152c-2.1-1.167-6.099-2.45-11.999-3.85
	c-0.283-0.066-0.558-0.123-0.839-0.186C145.379,149.046,148.485,146.493,151.01,143.84z"/>
</svg>
