<?xml version="1.0" encoding="utf-8"?>
<!-- Generator: Adobe Illustrator 16.0.0, SVG Export Plug-In . SVG Version: 6.00 Build 0)  -->
<!DOCTYPE svg PUBLIC "-//W3C//DTD SVG 1.1//EN" "http://www.w3.org/Graphics/SVG/1.1/DTD/svg11.dtd">
<svg version="1.1" id="图层_1" xmlns="http://www.w3.org/2000/svg" xmlns:xlink="http://www.w3.org/1999/xlink" x="0px" y="0px"
	 width="289px" height="455px" viewBox="0 0 289 455" enable-background="new 0 0 289 455" xml:space="preserve">
<path d="M287.587,434.309c-5.997-10.528-11.013-24.156-15.044-40.882c-4.265-17.659-6.164-33.868-5.697-48.628
	c0.1-4.133-0.799-6.998-2.699-8.597c-0.666-0.567-3.398-1.866-8.195-3.898c-4.398-2.099-7.531-4.182-9.396-6.247
	c-3.199-3.599-4.765-8.48-4.697-14.645c0-1.632,0.133-3.781,0.399-6.446l0.7-6.798c1.117-11.666,1.601-19.841,1.454-24.537
	c1.894,0.454,4.049,0.564,6.491,0.299c3.133-0.367,5.615-1.233,7.447-2.6c0.4-0.299-0.1-1.416-1.5-3.348
	c-0.839-1.143-1.751-2.142-2.724-3.017c4.183,0.113,8.04-0.264,11.57-1.132c3.765-0.967,6.764-2.383,8.996-4.248l0.35-0.6l-0.2-0.6
	c-3.465-4.232-10.695-9.613-21.689-16.144c-9.265-5.489-16.868-9.292-22.816-11.414c-9.075-10.773-22.573-15.003-40.506-12.675
	c-9.096,1.166-20.357,1.033-33.785-0.4c-13.028-1.399-24.023-3.565-32.986-6.497c-3.265-1.066-6.431-2.849-9.496-5.348
	c-3.165-2.565-5.047-4.915-5.647-7.047c-2.332-8.263-3.731-17.376-4.198-27.338c-0.167-4.398-0.116-12.245,0.15-23.54l0.2-11.345
	c-0.031-3.614-0.211-6.688-0.528-9.271c1.866,0.109,3.896,0.202,6.126,0.275l15.593-0.7c1.366-0.533,4.665-4.781,9.896-12.744
	c5.331-8.097,7.763-12.828,7.297-14.194c-0.566-1.733-6.48-2.832-17.742-3.299l-20.791,0.75c-1.5,0.466-4.265,3.182-8.296,8.146
	c-1.025,1.261-1.953,2.435-2.804,3.541c-1.094-0.657-2.256-1.253-3.518-1.763c2.706-5.83,6.044-11.139,10.02-15.922
	c4.57-5.51,9.792-10.05,15.654-13.636c1.118,0.355,2.296,0.425,3.538,0.192c2.399-0.434,4.098-1.766,5.098-3.999
	c0.069-0.145,0.123-0.289,0.183-0.433c3.4-1.608,7.274-2.938,11.662-3.965c4.231-0.966,8.463-1.549,12.695-1.749
	c0.059-0.009,0.098-0.033,0.118-0.071c1.278-0.229,2.571-1.062,3.88-2.528c1.133-1.333,1.815-2.649,2.049-3.948
	c0.199-1.233-0.066-2.049-0.8-2.449l-0.311,0.022l-7.985-0.722l-6.76-0.454c3.817-4.985,16.294-18.84,37.445-41.578
	c1-1,1.051-2.315,0.15-3.948c-0.866-1.599-1.815-2.032-2.849-1.299L149.06,28.952c-0.104-0.121-0.192-0.25-0.312-0.365
	c-0.051-0.049-0.109-0.082-0.161-0.128c0.145-2.039,0.714-6.039,1.71-12.017l1.75-10.396c0.1-0.866-0.467-1.683-1.699-2.449
	c-1.233-0.766-2.133-0.683-2.699,0.25c-1.899,3.165-5.082,11.078-9.546,23.739l-7.197,20.741l-2.749,2.099l-2.229,1.463
	c-0.014-0.811-0.152-1.648-0.42-2.513c-0.766-2.599-2.499-4.231-5.198-4.898c-2.332-0.6-4.515-0.05-6.547,1.649
	c-1.966,1.666-2.999,3.715-3.099,6.147c-1.399-1.266-2.982-1.899-4.748-1.899c-1.434,0-2.688,0.439-3.767,1.308
	c-0.004-0.647-0.016-1.246-0.032-1.806c0.073-0.697,0.09-1.383,0-2.05c-0.2-1.732-0.883-2.865-2.049-3.398
	c-1.033-0.433-2.266-0.183-3.699,0.75c-1.533,0.966-2.715,2.349-3.548,4.148c-0.533,1.189-0.882,2.329-1.087,3.43
	c-0.003,0.01-0.011,0.006-0.013,0.019l-0.012,0.117c-0.104,0.595-0.172,1.18-0.179,1.749L90.124,68.37
	c-0.548,5.159-1.018,9.026-1.409,11.604c-3.088,2.81-5.226,4.961-6.388,6.438c-0.333,0.367-1.549,3.548-3.648,9.546l-2.681,7.819
	c-3.824-0.521-7.605-0.594-11.343-0.23L61.436,90.26c-1.632-6.497-2.749-10.479-3.349-11.944c-0.267-0.667-3.048-3.565-8.346-8.696
	c-5.231-5.098-8.03-8.163-8.396-9.196l-0.152-0.5c1.423-0.161,2.658-0.757,3.701-1.8c1.199-1.232,1.799-2.732,1.799-4.498
	c0-1.766-0.6-3.282-1.799-4.548c-1.233-1.299-2.732-1.949-4.498-1.949c-0.951,0-1.841,0.236-2.673,0.692
	c-2.303-9.274-3.843-18.335-4.631-27.186c0.353-0.888,0.473-1.952,0.356-3.193c-0.091-0.954-0.359-1.759-0.787-2.43
	c-0.198-3.52-0.256-7.236-0.163-11.164c0.066-1.899-1.3-3.132-4.099-3.699c-2.765-0.533-4.331-0.033-4.698,1.5
	c-0.926,3.675-1.487,6.093-1.69,7.276c-0.9-0.285-1.901-0.331-3.007-0.129c-1.833,0.333-3.065,1.383-3.698,3.148
	c-0.351,0.997-0.415,1.946-0.214,2.851c-0.066-0.026-0.131-0.057-0.198-0.08C12.75,12.462,9.779,9.826,5.96,6.797
	C4.594,5.73,3.128,5.947,1.563,7.446c-1.6,1.5-1.933,2.999-1,4.498c0.661,1.123,3.209,4.528,7.634,10.201
	c0.226,0.44,0.525,0.857,0.912,1.244c0.137,0.137,0.277,0.26,0.417,0.378c-0.02-0.007-0.048-0.022-0.067-0.029l1.718,2.128
	c-0.101,0.226-0.192,0.463-0.269,0.72c-0.566,1.933-0.017,3.665,1.649,5.198c1.33,1.176,2.821,1.638,4.467,1.406l8.277,10.438
	l0.921,7.367c-0.409-0.371-0.86-0.699-1.371-0.969c-1.232-0.667-2.332-0.783-3.298-0.35c-1,0.467-1.549,1.433-1.649,2.899
	c-0.038,0.774,0.062,1.543,0.271,2.308l-8.117,0.441c-1,0-1.749,0.85-2.249,2.549c-0.533,1.733-0.216,2.866,0.95,3.399l9.396,4.548
	c4.87,2.46,8.188,4.286,9.956,5.479c-2.225,1.222-3.415,3.208-3.559,5.966c-0.068,1.642,0.26,2.967,0.976,3.981
	c-1.35,0.086-2.642,0.734-3.874,1.966c-1.168,1.146-1.89,2.405-2.183,3.771c-1.547-0.058-3.6,0.001-6.163,0.178
	c-1.533,0.1-2.466,0.333-2.799,0.7c-0.367,0.399-0.4,1.283-0.1,2.648c0.766,3.299,3.148,7.896,7.147,13.794
	c3.565,5.298,5.964,8.33,7.197,9.096c2.041,1.269,5,2.283,8.845,3.049c-0.629,0.614-1.136,1.287-1.515,2.021
	c-1.838,0.98-3.221,2.531-4.132,4.675c-0.875,2.093-1.277,4.598-1.244,7.481c-2.048,1.546-4.813,3.449-8.302,5.713
	c-6.512,4.178-11.472,7.019-14.935,8.568c-2.293,0.228-3.717,0.967-4.257,2.227c-0.633,1.399-0.516,3.715,0.35,6.947
	c0.8,3.065,1.833,5.514,3.099,7.347c1.241,1.765,2.436,2.788,3.586,3.092c0.209,0.127,0.452,0.223,0.697,0.315
	c0.008,0.013,0.002,0.028,0.015,0.041c2.932,3.399,7.147,4.998,12.645,4.798c2.799-0.133,7.197-1.033,13.194-2.699
	c2.146-0.608,3.919-1.043,5.328-1.309c0.269,3.271-0.138,8.512-1.217,15.722c-2.104,1.748-3.694,4.054-4.761,6.928
	c-2.865-1.2-5.714-0.517-8.546,2.049c-2.999,2.765-4.698,6.68-5.098,11.745c-3.998-0.466-7.83-0.066-11.495,1.2
	c-3.299,1.133-5.914,2.749-7.847,4.848c-0.233,0.3-0.283,0.6-0.15,0.899c1.833,4.731,3.848,8.446,6.047,11.146
	c2.109,2.651,4.782,4.834,8.008,6.56c-1.896,0.031-3.704-0.035-5.41-0.212l-5.248-0.9c-0.533-0.133-0.683,0.467-0.45,1.799
	c0.233,1.4,0.816,2.949,1.749,4.648c2.599,4.765,6.248,7.797,10.945,9.096c-1.033,3.398-1.433,6.914-1.199,10.546
	c0.266,3.432,1.066,6.613,2.399,9.546c0.167,0.366,0.45,0.516,0.85,0.449c4.265-0.434,7.663-1.566,10.195-3.398
	c0.116,1.004,0.313,2.017,0.58,3.035c-0.289,13.618,1.218,26.012,4.568,37.147c1.232,4.099,1.849,7.08,1.849,8.946l-0.7,9.195
	l-0.8,7.697c-0.1,1.398,1.383,3.165,4.448,5.297l5.048,3.499c-0.167,15.626-2.499,29.304-6.997,41.032
	c-4.565,11.961-11.845,23.073-21.84,33.335c-0.667,0.666-0.55,3.049,0.35,7.146c0.794,3.765,1.783,6.435,2.967,8.019l-0.667,0.778
	c-4.498,4.73-7.18,9.579-8.047,14.543c-0.3,1.699-0.366,3.232-0.2,4.599c0.167,1.1,0.367,1.716,0.6,1.849
	c3.798,1.766,8.596,2.066,14.394,0.899c5.265-1.1,8.396-2.532,9.396-4.298c0.267-0.433,0.25-2.698-0.05-6.797
	c-0.095-1.385-0.101-2.581-0.028-3.608c0.825,0.645,1.813,1.266,2.977,1.859c1.666,0.866,3.232,1.449,4.698,1.749
	c0.8,0.167,1.133-0.133,1-0.899c-1.266-12.262,0.383-25.422,4.948-39.482c2.699-8.43,7.497-19.592,14.394-33.486l4.548-8.746
	c1.179-2.305,2.109-4.36,2.814-6.19c0.14,0.3,0.297,0.593,0.434,0.894c6.63,14.594,10.246,32.318,10.845,53.177
	c0.033,0.666,1.633,1.815,4.798,3.448c2.729,1.394,4.807,2.243,6.242,2.555c1.113,7.716,3.856,14.432,8.252,20.135
	c1.866,2.399,3.782,4.299,5.748,5.698c1.799,1.232,3.165,1.766,4.098,1.599c1.999-0.366,4.082-2.382,6.247-6.047
	c1.799-3.032,2.965-6.747,3.499-11.146c0.5-4.164,0.233-6.413-0.799-6.747c-4.217-1.288-7.415-2.955-9.638-4.984l4.34-0.563
	c1.933-0.5,3.698-1.184,5.298-2.05c0.733-0.466,0.766-0.949,0.1-1.449c-4.931-3.632-10.012-9.745-15.243-18.342
	c-5.431-8.829-9.429-17.726-11.995-26.688c-0.933-3.198-1.583-6.88-1.949-11.045c-0.4-4.064-0.417-7.496-0.05-10.295
	c0.1-0.733,0-1.4-0.3-2c-0.3-0.566-0.866-1.266-1.699-2.099c-2.232-2.333-4.231-4.715-5.997-7.147
	c-2.166-3.064-3.632-5.78-4.398-8.146c5.983-2.104,11.482-4.271,16.51-6.5c11.789,1.258,22.867,1.386,33.218,0.354
	c3.385-0.352,7.57-1,12.521-1.932c-0.511,3.583-0.531,7.599-0.026,12.077c0.6,4.897,1.649,8.847,3.148,11.845
	c0.333,0.666,1.1,1.516,2.299,2.549l3.749,3.148c3.365,2.898,5.664,5.015,6.896,6.348c2.365,2.565,3.648,4.781,3.848,6.646
	c0.134,9.297-2.182,20.108-6.946,32.436c-4.198,10.862-9.313,20.541-15.343,29.038c-0.267,0.366,0.117,2.032,1.149,4.997
	c0.988,2.725,1.881,4.648,2.681,5.785c-0.538,1.231-1.579,2.982-3.13,5.261c-3.166,4.564-5.098,8.862-5.797,12.894
	c-0.533,3.065-0.5,4.731,0.1,4.998c2,1.033,6.664,0.7,13.995-0.999c7.263-1.699,11.128-3.266,11.594-4.698
	c0.434-1.333,0.316-4.115-0.35-8.347c-0.04-0.253-0.071-0.488-0.107-0.733c1.835,1.211,3.506,1.96,5.006,2.233
	c1.633,0.267,2.365,0.033,2.199-0.7c-2.6-14.261-2.149-27.904,1.35-40.932c2.398-8.863,6.597-18.275,12.594-28.238l4.648-8.296
	c1.232-2.599,1.865-4.715,1.898-6.347c0.033-0.6-0.366-1.434-1.199-2.5l-2.299-2.998c-1.5-2.133-2.532-3.832-3.099-5.098
	c-0.966-2.133-1.267-4.132-0.899-5.998c0.232-1.232,2.516-4.848,6.847-10.845c3.618-4.997,6.577-8.787,8.884-11.382
	c3.955,7.406,8.123,12.79,12.507,16.13c2.032,1.532,4.397,3.082,7.097,4.647l7.247,3.849c6.663,3.398,11.062,5.848,13.194,7.347
	c4.664,3.266,8.08,7.113,10.245,11.545c4.132,8.396,7.464,19.425,9.995,33.086c3.266,17.592,2.916,31.103-1.049,40.532
	c-0.166,0.267-0.133,0.55,0.1,0.85c1.514,1.945,3.606,3.746,6.266,5.405c-0.191,0.42-0.404,0.836-0.668,1.241
	c-2.465,3.799-4.198,8.03-5.197,12.694c-1.033,4.898-0.533,7.497,1.499,7.797c4.465,0.633,9.046,0.184,13.744-1.35
	c4.431-1.499,7.497-3.415,9.196-5.747c0.399-0.566,0.5-1.683,0.299-3.349l-0.799-4.349c-0.107-0.606-0.199-1.163-0.28-1.684
	c1.666,0.177,3.517,0.18,5.577-0.016c2.766-0.232,4.599-0.749,5.498-1.549C287.754,435.092,287.82,434.742,287.587,434.309z
	 M101.247,71.577c0.004,0.005,0.008,0.011,0.013,0.016l-0.015,0.011C101.245,71.595,101.246,71.585,101.247,71.577z"/>
</svg>
