<?xml version="1.0" encoding="utf-8"?>
<!-- Generator: Adobe Illustrator 16.0.0, SVG Export Plug-In . SVG Version: 6.00 Build 0)  -->
<!DOCTYPE svg PUBLIC "-//W3C//DTD SVG 1.1//EN" "http://www.w3.org/Graphics/SVG/1.1/DTD/svg11.dtd">
<svg version="1.1" id="图层_1" xmlns="http://www.w3.org/2000/svg" xmlns:xlink="http://www.w3.org/1999/xlink" x="0px" y="0px"
	 width="210px" height="203px" viewBox="0 0 210 203" enable-background="new 0 0 210 203" xml:space="preserve">
<path d="M206.65,110.35c-0.7-0.366-2.018-0.866-3.95-1.5c0.3-4.3,0.25-6.616-0.15-6.95c-0.466-0.333-2.283,0.367-5.45,2.1l-2.1-2.85
	c-1-1.233-1.717-1.85-2.15-1.85c-0.467-0.033-1.016,0.517-1.649,1.65c-0.601,1.066-0.934,2.033-1,2.899
	c-0.001,0.016,0,0.028-0.001,0.044c-7.852,1.354-13.482,2.628-16.902,3.824c2.498-5.377,3.592-11.379,3.253-18.018
	c-0.634-12.134-5.933-22.267-15.899-30.4c-1.828-1.489-3.713-2.828-5.653-4.02c3.148-4.031,5.1-10.707,5.853-20.03
	c0.801-9.667,0.051-18.017-2.25-25.05c-2.066-6.3-5.482-9.684-10.25-10.15c-4.833-0.5-9.732,2.117-14.699,7.85
	c-4.601,5.333-8.018,11.583-10.25,18.75c-2.528,8.017-2.864,15.303-1.01,21.858c-2.283,0.263-4.506,0.667-6.67,1.212
	c-0.305-9.215-4.071-18.289-11.321-27.221C97.367,13.833,90.2,8.867,82.9,7.6c-4.7-0.8-8.75,0.35-12.15,3.45
	c-3.633,3.333-5.583,8.2-5.85,14.6c-0.367,8.767,0.8,17.3,3.5,25.6c3.421,10.587,8.771,18.038,16.036,22.374
	c-3.633,6.501-5.265,13.559-4.886,21.176c0.456,8.715,3.728,16.125,9.798,22.238c-0.839-0.311-1.688-0.606-2.548-0.888
	c-4.223-1.374-8.445-2.307-12.667-2.811C67.184,102.343,53.548,90.031,33.2,76.4c-8.133-5.466-15.367-9.716-21.7-12.75
	c-6.4-3.1-10.05-4.083-10.95-2.95c-1.167,1.466,0.833,5.783,6,12.95c4.097,5.641,10.775,13.849,20.026,24.614
	c-2.894-2.083-6.13-4.204-9.726-6.364C8.617,86.933,3.767,85.183,2.3,86.65c-1.667,1.7,0.483,6.95,6.45,15.75
	c5.233,7.714,11.276,14.629,18.103,20.771c-2.325-1.045-4.377-1.771-6.152-2.172l-4.05,0.15c-0.9,1.732,1.783,6.35,8.05,13.85
	c6.208,7.398,12.009,12.807,17.411,16.263c-0.493,2.766-0.816,5.479-0.961,8.138c-0.6,11.266,2.033,19.982,7.9,26.149
	c4.167,4.366,9.217,7.034,15.15,8c5.925,0.95,12.064,0.071,18.412-2.593c-0.275,1.51-0.347,3.041-0.212,4.593
	c0.233,3.167,1.217,5.101,2.95,5.8c1.566,0.634,3.583,0.117,6.05-1.55c2.479-1.714,4.403-4.068,5.787-7.047
	c3.714,0.054,8.229-0.262,13.563-0.953c6.226-0.774,12.065-0.63,17.525,0.423c-0.256,1.829-0.237,3.541,0.074,5.127
	c0.434,2.268,1.351,3.584,2.75,3.95c1.734,0.434,3.734-0.183,6-1.85c2.117-1.566,3.894-3.638,5.329-6.214
	c0.613-0.153,1.213-0.35,1.795-0.611c2.872,1.416,5.929,2.146,9.177,2.175c3.766,0,7.666-0.933,11.699-2.8
	c9.434-4.367,17.783-14.15,25.051-29.35c7.154-14.975,10.803-29.949,10.947-44.924c0.064-0.075,0.139-0.151,0.202-0.227
	c4.733-2.666,7.034-4.566,6.9-5.7C208.166,111.3,207.65,110.816,206.65,110.35z"/>
</svg>
