<?xml version="1.0" encoding="utf-8"?>
<!-- Generator: Adobe Illustrator 16.0.0, SVG Export Plug-In . SVG Version: 6.00 Build 0)  -->
<!DOCTYPE svg PUBLIC "-//W3C//DTD SVG 1.1//EN" "http://www.w3.org/Graphics/SVG/1.1/DTD/svg11.dtd">
<svg version="1.1" id="图层_1" xmlns="http://www.w3.org/2000/svg" xmlns:xlink="http://www.w3.org/1999/xlink" x="0px" y="0px"
	 width="163px" height="256px" viewBox="0 0 163 256" enable-background="new 0 0 163 256" xml:space="preserve">
<path d="M159.203,146.964c-0.633-1.399-2.432-2.149-5.396-2.249c-2.157-0.081-4.467,0.114-6.923,0.58
	c-0.413-11.568-2.563-22.557-6.47-32.961c-2.299-6.096-6.246-14.108-11.843-24.036c-3.897-6.863-6.38-11.41-7.446-13.642
	c-2.332-4.997-3.714-9.495-4.146-13.492c-0.634-5.896-0.434-10.827,0.6-14.792c0.832-3.065,1.832-4.847,2.998-5.347
	c4.297-1.732,7.695-4.314,10.193-7.746c2.465-3.398,3.648-7.063,3.549-10.994c-0.101-3.897-1.566-7.496-4.398-10.793
	c-2.832-3.265-6.463-5.646-10.893-7.146c-2.832-1-4.515-1.149-5.048-0.45c-0.466,0.633-0.05,2.182,1.249,4.647
	c1.633,3.165,1.416,5.58-0.649,7.246c-1.565,1.333-3.698,1.932-6.396,1.799c-2.633-0.167-4.881-0.966-6.746-2.399
	c-3.166-2.465-3.781-5.697-1.85-9.694c1.299-2.665,1.699-4.264,1.199-4.797c-0.533-0.566-2.698-0.766-6.496-0.6
	c-4.33,0.167-8.445,1.633-12.343,4.397c-3.897,2.798-6.43,6.113-7.595,9.944c-0.833,2.599-0.917,5.164-0.25,7.695
	c0.933,3.631,3.381,6.93,7.346,9.895c1.833,1.399,2.215,4.131,1.149,8.195c-0.999,3.631-2.881,7.562-5.646,11.793
	c-2.598,3.964-6.979,8.662-13.142,14.092L44.97,81.902c-14.059,11.893-24.636,24.103-31.731,36.628
	c-7.163,12.726-11.36,26.868-12.593,42.425c-1.438,18.083,1.426,33.636,8.568,46.672c-1.735,3.825-3.128,8.333-4.17,13.543
	c-1.599,7.862-1.166,12.876,1.299,15.041c3.614,3.127,12.158,1.721,25.605-4.191c7.364,4.721,15.812,8.142,25.365,10.238
	c9.83,2.152,19.441,2.224,28.837,0.257c2.662,3.276,5.686,6.13,9.09,8.538c4.498,3.198,8.328,4.547,11.494,4.048
	c3.531-0.566,6.496-4.813,8.895-12.743c1.714-5.644,2.743-11.275,3.093-16.895c13.313-12.25,21.896-28.739,25.759-49.46
	c2.585-1.937,5.029-4.479,7.327-7.651c2.998-4.131,5.163-8.379,6.496-12.742C159.569,151.345,159.869,148.463,159.203,146.964z"/>
</svg>
