<?xml version="1.0" encoding="utf-8"?>
<!-- Generator: Adobe Illustrator 16.0.0, SVG Export Plug-In . SVG Version: 6.00 Build 0)  -->
<!DOCTYPE svg PUBLIC "-//W3C//DTD SVG 1.1//EN" "http://www.w3.org/Graphics/SVG/1.1/DTD/svg11.dtd">
<svg version="1.1" id="图层_1" xmlns="http://www.w3.org/2000/svg" xmlns:xlink="http://www.w3.org/1999/xlink" x="0px" y="0px"
	 width="302px" height="337px" viewBox="0 0 302 337" enable-background="new 0 0 302 337" xml:space="preserve">
<path d="M294.498,189.582c4.568-6.269,5.951-13.638,4.15-22.107c-0.366-1.767-2.551-4.518-6.551-8.253
	c-3.203-2.989-6.025-5.272-8.475-6.867c-2.263-7.755-6.214-20.327-11.863-37.744c5.205-13.811,4.909-28.399-0.92-43.768
	c-5.182-13.765-13.63-25.605-25.325-35.532c-6.458-19.171-10.273-30.079-11.437-32.69c-0.834-1.867-1.867-2.734-3.102-2.601
	c-1.268,0.133-1.801,1.301-1.601,3.501l2.245,22.313c-11.978-6.988-25.843-11.612-41.607-13.86
	c-15.705-2.268-31.627-1.951-47.766,0.95c-16.506,2.935-31.46,8.253-44.865,15.956c-14.305,8.236-25.575,18.473-33.811,30.71
	c-7.536,11.237-10.737,22.324-9.603,33.261c1.067,10.336,5.368,17.105,12.904,20.307c4.602,1.967,10.137,2.317,16.605,1.05
	c2.467-0.467,4.401-1.067,5.802-1.801c1.434-0.733,1.817-1.333,1.15-1.8c-3.101-2.101-5.118-4.401-6.052-6.902
	c-0.967-2.634-0.667-5.269,0.9-7.903c3.701-6.202,10.871-10.62,21.507-13.254c0.114-0.028,0.226-0.05,0.339-0.078
	c16.956,2.36,28.957,8.331,35.973,17.934c5.536,7.568,7.19,16.114,4.983,25.633c-10.021,6.287-18.67,16.678-25.94,31.186
	c-2.734,5.435-4.751,10.487-6.052,15.156c-1.234,4.334-1.484,6.902-0.75,7.702c0.864,0.938,7.312-0.76,19.329-5.087
	c0.956,0.212,1.912,0.42,2.869,0.612c-0.586,1.127-1.084,2.797-1.491,5.024c-0.028,0.151-0.048,0.308-0.075,0.46
	c-0.814,0.562-2.517,1.506-5.127,2.841c-2.088,1.044-3.491,1.715-4.231,2.023c-1.378-0.104-2.785-0.131-4.222-0.072
	c-0.752,0.031-1.496,0.083-2.236,0.145c-8.962-5.257-30.167-18.806-63.635-40.658c-33.444-21.874-51.217-33.394-53.318-34.562
	c-1.333-0.767-2.317-0.7-2.951,0.2c-0.601,0.934-0.333,2.001,0.8,3.201c5.635,5.869,19.89,19.957,42.764,42.264
	c24.366,23.769,39.666,38.25,45.906,43.451c-0.945,0.9-1.88,1.828-2.792,2.814c-9.937,10.736-15.055,23.458-15.355,38.162
	c-0.3,17.006,5.669,30.66,17.906,40.965c11.003,9.27,24.625,14.121,40.863,14.555c0.559,0.015,1.11,0.007,1.666,0.013
	c0.299,2.876,0.378,7.786,0.235,14.741c-0.2,8.203-0.6,14.289-1.201,18.256c-0.6,3.936,0.15,6.152,2.251,6.652
	c2.067,0.467,5.001-0.75,8.803-3.65c8.003-6.103,14.588-12.404,19.756-18.906c6.736-8.502,12.148-18.516,16.262-30.012
	c1.995-1.259,3.961-2.606,5.896-4.05c5.668-4.235,10.402-8.77,14.204-13.604c3.234-4.135,4.868-7.119,4.901-8.953
	c0.063-3.891-0.283-7.594-1.013-11.121c1.564-1.927,3.252-4.569,5.064-7.936c2.259-4.223,3.689-7.955,4.296-11.198
	c1.505,0.251,3.023,0.339,4.557,0.245c5.369-0.334,10.154-2.918,14.355-7.753c3.628-4.196,6.471-9.664,8.547-16.368
	c2.035,0.191,4.241,0.457,6.658,0.813c7.086,1.026,12.395,2.313,15.962,3.855c-0.067,0.234-0.122,0.467-0.157,0.697
	c-0.667,4.468,1.451,11.403,6.352,20.807c4.202,8.069,9.703,16.655,16.506,25.758c1.301,1.734,2.551,2.451,3.752,2.151
	c1.233-0.333,1.983-1.567,2.25-3.701l2.001-13.454c0.934-6.536,1.517-12.138,1.751-16.807c0.618-12.814-1.223-20.894-5.518-24.255
	c0.032-0.987-0.034-1.954-0.195-2.9C290.668,193.995,292.752,191.956,294.498,189.582z M241.064,171.568l-0.285-1.993l3.06-5.242
	c-0.75,1.709-1.52,3.669-2.309,5.892C241.362,170.689,241.216,171.125,241.064,171.568z M242.969,137.646
	c-4.818-5.17-10.442-8.333-16.894-9.434c-4.087-0.729-7.979-0.568-11.687,0.445c-0.962-0.769-1.939-1.499-2.938-2.179
	c1.457-3.611,4.91-6.969,10.373-10.07c6.35-3.58,12.525-4.993,18.526-4.243L242.969,137.646z"/>
</svg>
