<?xml version="1.0" encoding="utf-8"?>
<!-- Generator: Adobe Illustrator 16.0.0, SVG Export Plug-In . SVG Version: 6.00 Build 0)  -->
<!DOCTYPE svg PUBLIC "-//W3C//DTD SVG 1.1//EN" "http://www.w3.org/Graphics/SVG/1.1/DTD/svg11.dtd">
<svg version="1.1" id="图层_1" xmlns="http://www.w3.org/2000/svg" xmlns:xlink="http://www.w3.org/1999/xlink" x="0px" y="0px"
	 width="394px" height="385px" viewBox="0 0 394 385" enable-background="new 0 0 394 385" xml:space="preserve">
<path d="M387.005,75.25c2.964-5.73,4.68-9.494,5.146-11.293c1.145-4.207-0.904-8.572-6.137-13.094
	c0.264-0.58,0.419-1.147,0.439-1.696c0.065-1.433-0.351-2.632-1.249-3.598c-1.267-1.399-3.765-2.898-7.496-4.497
	c-3.098-1.366-6.246-1.899-9.443-1.599c-2.481,0.231-4.248,0.838-5.306,1.819c-1.283-0.147-2.595-0.255-3.938-0.32
	c-3.612-0.185-7.226,0.253-10.838,1.298c0.061-0.801,0.101-1.601,0.095-2.397c-0.033-4.297-0.967-8.861-2.799-13.691
	c-1.467-3.897-3.099-7.063-4.896-9.494c-0.999,3.398-1.799,5.08-2.398,5.047l-0.898-0.649l-1.1-1.199
	c-0.767-0.966-1.966-1.982-3.599-3.048l-2.248-1.299c0.767,1.366,1.199,3.231,1.299,5.597c0.033,1.666-0.149,3.098-0.55,4.297
	c-0.366,1.033-0.85,1.732-1.449,2.099c-2.563-8.395-5.695-14.691-9.394-18.888c-3.031-3.398-7.346-6.246-12.942-8.544l1.399,2.848
	c0.833,1.965,0.981,3.215,0.45,3.748l-6.348-0.35l4.197,8.444c2.433,5.863,2.715,9.328,0.851,10.394
	c-1.232,0.7-2.932,0.25-5.098-1.349l-2.848-2.598c-1.933-2.232-3.731-4.031-5.396-5.397c-2.199-1.765-4.447-2.998-6.746-3.697
	l-2.648-0.85l2.35,3.647c1.064,1.566,1.531,2.815,1.398,3.748c-0.135,1.232-1.166,1.315-3.1,0.25l-2.849-1.949
	c-2.331-2.432-4.963-4.097-7.896-4.997c-3.83-1.133-8.577-1.199-14.239-0.2c3.397,2.732,6.146,5.63,8.244,8.695
	c2.099,3.098,2.682,5.097,1.749,5.996l-2.799,0.35c-1.666-0.066-2.897-0.399-3.697-1l2.599,7.046c1.632,4.764,2.231,7.412,1.8,7.945
	l-3.648,0.15l-4.246-0.55l1.447,1.899c0.408,0.553,1.115,1.739,2.117,3.547l-7.113-0.299l-8.844-0.65l-5.848-0.6l0.898,4.547
	c0.867,3.664,1.982,7.079,3.349,10.244c1.5,3.455,3.207,6.379,5.111,8.799c-0.104,0.018-0.212,0.026-0.314,0.045l-10.143-1.249
	c-7.396-0.433-14.142,0.549-20.238,2.948l-2.446,0.8l6.494,3.348c-2.498,0.367-5.828,2.765-9.992,7.195l-5.548,6.546l2.948,0.15
	l5.247-0.15l3.771-0.292c-0.593,0.295-1.193,0.58-1.771,0.891c-5.229,2.832-10.676,6.929-16.34,12.292
	c-2.631,2.532-5.514,4.93-8.644,7.195l-3.848,2.598l2.349,1.049c2.099,0.7,4.497,1.016,7.196,0.95
	c-1.898,1.333-4.831,2.448-8.795,3.348c-1.049,0.237-2.059,0.429-3.043,0.591c-0.339-2.029-0.87-3.961-1.604-5.788
	c-1.432-3.564-3.564-6.612-6.396-9.144l-0.45,4.747c-0.833,3.165-2.548,4.747-5.146,4.747c-1.399-3.298-3.498-7.012-6.296-11.143
	c-5.63-8.228-12.709-14.291-21.237-18.188c1.599,2.565,2.182,4.164,1.749,4.797c-0.566,0.566-2.865,0.117-6.896-1.349
	c1.999,2.965,3.248,5.613,3.748,7.945c0.533,2.565,0.05,4.414-1.449,5.547c-1.566,1.199-3.165,1.382-4.797,0.549
	c-1.932-0.966-4.514-3.531-7.745-7.695c-3.198-3.631-5.713-6.063-7.545-7.295c-2.832-1.899-6.163-2.881-9.994-2.948l1.349,1.999
	c1.233,1.766,1.799,3.398,1.699,4.897l-0.1,0.2l-8.295,0.35l-7.745,0.35l-3.048,0.899c1.932,0.933,3.415,2.049,4.447,3.348
	c0.899,1.132,1.266,2.148,1.099,3.048c-0.1,0.667-1.732,1.299-4.897,1.899l-4.747,0.649l4.447,2.499
	c2.932,1.799,4.397,3.115,4.397,3.947c-0.033,1.399-1.199,2.465-3.498,3.198l-3.448,0.7c-7.595,1.232-13.625,4.58-18.088,10.043
	c-4.197,5.13-6.795,11.842-7.795,20.137l2.448-1.699c1.732-0.899,2.865-0.733,3.398,0.5c0.6,1.266,1.049,2.065,1.349,2.398
	c0.733,0.766,1.699,1.099,2.898,1c0.733-0.067,1.799-0.383,3.198-0.95c-3.098,2.032-4.98,6.146-5.646,12.342
	c-0.2,1.666-0.3,7.096-0.3,16.29c0,3.265-0.516,5.663-1.549,7.196c-0.933,1.432-2.599,2.515-4.997,3.248l-4.547-0.2
	c-1.066-0.366-2.532-1.083-4.397-2.148l-3.398-1.849c3.032,5.463,4.297,8.511,3.798,9.145c-0.5,0.6-1.199,1.049-2.099,1.349
	l-2.749,0.3c-1.632-0.2-3.314-1.016-5.047-2.449c-1.332-1.132-2.465-2.415-3.397-3.848l-1.1-1.599l-0.699,1.849
	c-1.533,4.164-0.417,9.161,3.348,14.992c3.462,5.326,7.93,9.332,13.391,12.028c0.323,0.673,0.5,1.204,0.5,1.562l-0.05,0.25
	c-0.3,0.301-1.566,0-3.798-0.898l-1.699-0.699l0.3,1.799l0.2,2.049l-0.05,0.649l-2.998-1.749c-3.031-1.999-5.48-3.314-7.345-3.947
	c-3.298-1.1-6.379-0.965-9.244,0.399l-1.999,0.949l2.099,0.899c2.199,0.898,3.398,1.748,3.598,2.549v0.25l-0.5,1.199l-3.398-0.5
	c-2.532-0.601-4.597-0.916-6.196-0.949c-2.665-0.033-4.98,0.531-6.946,1.697l-3.148,1.75l2.749,0.399
	c4.364,0.633,8.761,4.53,13.191,11.692c0.982,1.566,1.938,3.26,2.871,5.051c-5.283,1.119-10.703,3.457-16.262,7.041l-1.699,1.199
	l-3.448,2.949c-1.533,1.332-2.732,2.03-3.598,2.098l5.446,0.551c3.831,0.499,6.346,1.064,7.545,1.697
	c-0.866,0.566-2.349,1.084-4.447,1.55l-4.947,0.6l1.599,0.95l1.999,1.1c-2.398,1.1-5.164,2.947-8.295,5.545l-5.846,4.248
	c-2.432,1.332-5.28,2.215-8.544,2.648L0,263.83c0.933,1.365,2.548,2.648,4.847,3.848c4.631,2.432,10.344,3.264,17.139,2.498
	c-1.799,0.833-2.964,1.865-3.498,3.098c-0.267,0.633-0.366,1.166-0.3,1.601c2.298-0.833,5.18-0.8,8.645,0.101
	c3.031,0.766,6.063,2.049,9.094,3.848c-5.03,0.434-8.345,1.365-9.944,2.799c-0.766,0.699-1.049,1.365-0.849,1.998
	c2.898,0.365,5.83,1.365,8.794,2.998c1.999,1.1,4.597,2.865,7.795,5.297l2.998,2.299c2.871,2.13,5.92,3.749,9.134,4.893
	c-0.372,1.787-0.85,3.521-1.438,5.201c-1.632,4.563-3.981,8.527-7.046,11.893l-6.146,5.796c-4.097,4.598-6.146,8.745-6.146,12.442
	c0,4.03,1.382,7.545,4.147,10.543c2.965,3.265,6.762,4.914,11.393,4.947h1.249c2.099,1.1,3.915,1.832,5.447,2.197
	c3.064,0.732,5.83,0.434,8.295-0.898c2.232,0.766,4.63,0.934,7.195,0.5c2.598-0.467,4.93-1.467,6.996-2.998
	c2.565-1.832,5.479-8.078,8.744-18.738c0.782-2.545,1.462-4.918,2.043-7.118c2.225,1.483,4.489,2.881,6.802,4.17
	c0.747,0.416,1.499,0.813,2.251,1.208c1.564,4.932,2.696,12.057,3.396,21.378c0.6,8.263,1.315,13.108,2.148,14.541
	c0.7,1.166,1.865,2.481,3.498,3.946l3.948,3.3l3.448,2.696c1.232,1,1.982,1.832,2.249,2.5c1.033,2.564,2.682,4.547,4.947,5.945
	c2.499,1.565,5.663,2.314,9.494,2.248l9.144-0.998c3.498-0.734,5.713-1.533,6.646-2.398l7.045,0.248
	c3.731-0.332,6.329-1.465,7.795-3.396l3.198,0.199c2.498-0.033,4.563-0.783,6.196-2.248c1.632-1.467,2.449-3.313,2.449-5.547
	c0-4.896-1.383-9.679-4.147-14.341c-3.131-5.297-6.896-7.945-11.293-7.945c-3.098,0-5.596-0.434-7.495-1.299
	c-2.398-1.1-4.297-2.999-5.696-5.696c-0.375-0.724-0.768-1.588-1.179-2.592c0.144-0.004,0.286-0.002,0.43-0.007
	c11.159-0.333,19.971-3.147,26.433-8.444c7.595-6.229,10.876-15.226,9.844-26.983l-0.111-0.017c0.17-0.532,0.34-1.071,0.511-1.633
	l1.549-4.746c0.566-1.533,1.166-2.683,1.799-3.448c1.94-2.385,13.265-5.848,33.962-10.388l2.264,1.293
	c1.699,1.133,3.049,2.299,4.049,3.498c1.498,1.799,2.414,3.267,2.748,4.397c0.166,0.699,0.115,1.215-0.15,1.549
	c-0.799,1.033-2.248,1.281-4.348,0.75c-1.465-0.399-3.381-1.217-5.746-2.448l0.2,1.799c0.3,1.498,0.916,3.015,1.849,4.547
	c3.064,4.931,8.744,9.044,17.039,12.343c4.531,1.832,8.063,3.063,10.594,3.696c3.332,0.834,7.063,1.3,11.193,1.399
	c2.998,0.066,5.945,1,8.844,2.799c1.463,0.904,3.031,2.124,4.702,3.643c-0.019,0.055-0.035,0.116-0.056,0.155
	c-0.633,1.599-0.949,3.414-0.949,5.446c0,1.299,0.184,3.08,0.551,5.347c0.199,1.397,0.232,3.081,0.1,5.047
	c-0.1,1.898-0.315,3.531-0.649,4.896c-1.032,4.031-1.215,7.347-0.549,9.943c0.633,2.432,2.063,4.447,4.297,6.047l7.646,4.447
	c4.53,2.697,6.862,4.43,6.996,5.196c0.232,1.466,0.75,2.798,1.549,3.997c1.032,1.533,2.397,2.615,4.098,3.248
	c3.031,1.1,6.979,1.533,11.843,1.299c4.53-0.199,7.712-0.832,9.544-1.898c2.498,0.699,4.98,1.084,7.445,1.149
	c3.431,0.067,5.829-0.565,7.194-1.897c2.633,0.799,5.464,1.115,8.494,0.948c4.298-0.233,6.896-1.632,7.795-4.196
	c1.634-4.631,1.301-9.86-0.999-15.69c-1.897-4.896-4.146-8.263-6.744-10.095c-0.468-0.332-1.566-0.715-3.3-1.147l-3.797-0.851
	c-3.498-1-6.213-2.114-8.146-3.348c-3.432-2.199-6.43-5.529-8.994-9.994c-1.087-1.889-2.063-9.912-2.93-24.037
	c5.201-0.723,10.809-2.137,16.82-4.244c13.559-4.764,22.485-11.776,26.783-21.036c4.33-9.328,3.098-19.556-3.698-30.681
	c-1.17-1.922-2.473-3.766-3.873-5.551c-0.093-0.781-0.2-1.563-0.323-2.346c2.132,2.064,3.715,3.898,4.747,5.497
	c0.966,1.466,2.082,3.681,3.348,6.646l1.55,2.948l1.049-1.698c1.466-2.498,2.198-5.547,2.198-9.145
	c0-4.164-0.916-8.328-2.748-12.492c1.532,0.699,2.549,1.249,3.048,1.648c0.667,0.533,1.416,1.449,2.249,2.748l1.648,2.599
	c0.898-1.698,1.517-3.681,1.85-5.946c0.601-4.563-0.6-8.311-3.598-11.242l-6.946-6.746l-6.646-5.695
	c-2.933-2.633-4.397-4.298-4.397-4.997h0.05c0.733-0.899,3.382-0.866,7.945,0.101c2.266,0.467,4.464,1.032,6.596,1.698l-0.448-3.147
	c-0.435-2.266-1.051-3.83-1.85-4.696c2.998,0.2,6.646,1.065,10.942,2.599c2.132,0.766,3.965,1.516,5.497,2.248
	c-1.333-2.199-2.332-4.381-2.998-6.546c-0.768-2.397-1.499-4.131-2.199-5.196c-1.266-1.898-3.198-3.38-5.796-4.448l9.344-4.547
	l-9.344-2.548c3.664-1.232,6.213-3.481,7.645-6.746l1-4.547c-1.133,0.566-2.332,0.966-3.598,1.199
	c1.766-1.899,2.531-3.947,2.298-6.146l-0.898-2.749l-6.246,3.298c-4.83,2.165-8.812,3.064-11.942,2.698
	c0.5-0.333,2.915-1.566,7.246-3.698c4.229-2.265,6.778-4.014,7.645-5.247c0.953-1.4,1.553-3.636,1.802-6.694
	c1.567-0.44,3.183-1.099,4.846-2.001c3.364-1.799,5.763-3.647,7.195-5.546c-2.166-0.5-3.564-1.316-4.197-2.448
	c-1.3-2.265,1.882-4.914,9.544-7.945l2.498-0.899c-3.064-1.533-6.329-2.665-9.794-3.398c1.6-1.033,3.864-1.932,6.796-2.698
	l3.947-0.85c-4.432-3.298-7.578-5.447-9.443-6.446c-2.832-1.399-4.881-2.482-6.146-3.248c-1.401-0.829-2.476-1.67-3.228-2.526
	c2.014-6.859,4.965-14.424,8.873-22.708L387.005,75.25z M116.634,232.777c-0.252-0.202-0.504-0.399-0.758-0.578l-1.549-0.85
	l-1.1,4.748l-4.247-4.896l-0.95,8.594c-4.764-9.193-8.495-16.09-11.193-20.688c-1.656-2.861-3.303-5.393-4.939-7.608
	c6.256-0.366,11.187-1.343,14.783-2.935c0.053,0.115,0.111,0.203,0.172,0.276c2.937,4.937,6.591,8.96,10.972,12.066
	c1.065,0.759,2.162,1.422,3.273,2.038C119.428,226.072,117.932,229.343,116.634,232.777z M187.981,128.566
	c0.375-1.619,0.66-2.963,0.866-4.062c0.367,0.174,0.728,0.332,1.083,0.464c1.666,0.633,3.914,0.933,6.746,0.899l3.948-0.549
	c-1.435,1.132-3.083,2.964-4.948,5.496l-1.785,2.223c-0.088-0.458-0.161-0.925-0.264-1.374l-1.299-4.147l-1.749,3.698
	c-1.433,2.632-2.782,4.38-4.047,5.247C186.598,134.962,187.081,132.331,187.981,128.566z M202.171,177.185
	c0.226,0.112,0.457,0.203,0.685,0.311c-1.765,0.699-3.551,1.383-5.381,2.038c-6.163,2.222-12.239,4.022-18.231,5.417
	c5.46-7.9,9.477-15.669,12.044-23.307c1.059,0.826,2.221,1.791,3.489,2.899c4.63,4.064,9.277,6.596,13.941,7.595
	c-2.064,1.166-4.23,2.249-6.496,3.248l-1.947,0.85L202.171,177.185z"/>
</svg>
