<?xml version="1.0" encoding="utf-8"?>
<!-- Generator: Adobe Illustrator 16.0.0, SVG Export Plug-In . SVG Version: 6.00 Build 0)  -->
<!DOCTYPE svg PUBLIC "-//W3C//DTD SVG 1.1//EN" "http://www.w3.org/Graphics/SVG/1.1/DTD/svg11.dtd">
<svg version="1.1" id="图层_1" xmlns="http://www.w3.org/2000/svg" xmlns:xlink="http://www.w3.org/1999/xlink" x="0px" y="0px"
	 width="103px" height="113px" viewBox="0 0 103 113" enable-background="new 0 0 103 113" xml:space="preserve">
<path d="M99.222,33.115c-1.734-4.702-4.302-9.188-7.704-13.456C87.016,14.09,81.547,9.605,75.111,6.203
	c-6.47-3.435-13.289-5.436-20.459-6.002C40.679-0.9,28.157,2.519,17.085,10.455C12.45,13.79,8.631,17.592,5.63,21.86
	c-2.901,4.102-4.652,8.104-5.252,12.005c-0.8,4.969,0.583,9.804,4.152,14.506c3.868,5.102,9.788,9.454,17.758,13.056
	c4.731,2.152,9.835,3.852,15.289,5.124l-0.632,2.13l-1.601,4.352c-0.996,2.739-1.826,5.297-2.502,7.687
	c-1.888-0.573-3.542-0.855-4.951-0.834c-1.901,0.034-3.085,0.617-3.552,1.751c-0.467,1.234,0.284,2.852,2.251,4.852
	c1.305,1.305,2.819,2.365,4.496,3.232c-0.131,1.482-0.119,2.845,0.056,4.071c0.567,4.436,2.868,8.271,6.903,11.505
	c4.469,3.635,9.921,5.402,16.358,5.303c6.035-0.1,11.004-1.867,14.906-5.303c3.535-3.102,5.553-6.869,6.053-11.305
	c0.186-1.559,0.146-3.163-0.097-4.808c3.886-5.478,5.34-8.815,4.349-9.999c-0.934-1.12-3.44-0.725-7.48,1.145
	c-0.911-1.711-2.1-3.723-3.574-6.047l-2.201-3.301l-1.127-1.955c7.432-0.496,14.13-2.074,20.085-4.748
	c9.671-4.336,14.956-10.421,15.856-18.258C101.605,42.152,100.955,37.851,99.222,33.115z"/>
</svg>
