<?xml version="1.0" encoding="utf-8"?>
<!-- Generator: Adobe Illustrator 16.0.0, SVG Export Plug-In . SVG Version: 6.00 Build 0)  -->
<!DOCTYPE svg PUBLIC "-//W3C//DTD SVG 1.1//EN" "http://www.w3.org/Graphics/SVG/1.1/DTD/svg11.dtd">
<svg version="1.1" id="图层_1" xmlns="http://www.w3.org/2000/svg" xmlns:xlink="http://www.w3.org/1999/xlink" x="0px" y="0px"
	 width="200px" height="215px" viewBox="0 0 200 215" enable-background="new 0 0 200 215" xml:space="preserve">
<path d="M194.904,124.324c-3.195-8.621-8.271-15.793-15.227-21.518c-6.927-5.712-13.901-8.488-20.925-8.34
	c12.229-7.379,18.864-16.844,19.876-28.405c0.467-5.325-0.499-10.884-2.896-16.675c-2.396-5.792-6.074-11.466-11.033-17.024
	c-8.587-9.553-19.338-17.208-32.252-22.966c-12.98-5.758-26.294-8.77-39.94-9.036c-13.779-0.3-27.209,1.997-40.29,6.89
	c-13.147,4.893-24.064,11.699-32.751,20.419c-4.959,4.959-8.72,10.185-11.283,15.677C5.589,48.837,4.357,54.229,4.49,59.521
	c0.167,7.022,2.43,13.446,6.79,19.271c4.394,5.858,10.734,10.917,19.021,15.177c7.389,3.781,16.097,6.784,26.114,9.013
	c-0.892,3.313-2.197,7.139-3.91,11.478c-0.132-0.104-0.252-0.22-0.387-0.32c-2.696-2.03-5.475-3.345-8.338-3.944
	c-9.519-1.997-18.588,0.533-27.209,7.589c-8.021,6.557-13.13,14.678-15.327,24.363c-2.097,9.02-1.764,18.106,0.999,27.259
	c2.929,9.752,7.755,16.126,14.479,19.121c3.96,1.765,8.104,2.663,12.431,2.696c3.61,0.027,6.995-0.565,10.162-1.755
	c4.409,6.805,11.402,12.4,20.991,16.783c9.852,4.525,20.286,6.806,31.303,6.839c13.679,0.067,24.946-2.362,33.799-7.289
	c8.786-4.893,14.761-12.032,17.923-21.417c2.363-7.023,3.063-13.314,2.098-18.873c-0.372-2.074-1.234-4.834-2.562-8.242
	c0.701,0.166,1.436,0.243,2.212,0.205c0.921-0.069,1.773-0.292,2.567-0.647c0.811,1.132,1.66,2.237,2.574,3.294
	c3.961,4.559,8.321,7.805,13.081,9.734c4.793,1.998,9.618,2.696,14.478,2.098c6.724-0.832,11.716-4.294,14.978-10.385
	c2.696-4.992,4.193-11.283,4.494-18.871C197.551,135.541,196.769,129.416,194.904,124.324z M143.881,103.006
	c-3.295,4.626-5.242,10.3-5.841,17.025c-0.578,6.49,0.175,13.481,2.233,20.965c-1.702-0.419-3.313-1.262-4.83-2.543
	c-0.426-0.369-0.828-0.767-1.217-1.18c-2.638-6.497-4.615-12.167-5.922-16.993c-1.501-5.598-2.212-10.45-2.156-14.579
	c7.134-1.145,13.709-2.839,19.726-5.083C145.172,101.363,144.496,102.145,143.881,103.006z"/>
</svg>
