<?xml version="1.0" encoding="utf-8"?>
<!-- Generator: Adobe Illustrator 16.0.0, SVG Export Plug-In . SVG Version: 6.00 Build 0)  -->
<!DOCTYPE svg PUBLIC "-//W3C//DTD SVG 1.1//EN" "http://www.w3.org/Graphics/SVG/1.1/DTD/svg11.dtd">
<svg version="1.1" id="图层_1" xmlns="http://www.w3.org/2000/svg" xmlns:xlink="http://www.w3.org/1999/xlink" x="0px" y="0px"
	 width="304px" height="342px" viewBox="0 0 304 342" enable-background="new 0 0 304 342" xml:space="preserve">
<path d="M298.943,265.878c-1.66-6.511-4.586-12.821-8.751-18.935c0.064-1.983-0.566-4.19-1.901-6.623
	c-6.068-11.17-14.255-20.623-24.558-28.358c-8.569-6.435-17.522-10.97-26.858-13.604c-4.935-1.435-11.02-5.386-18.255-11.854
	c-7.313-6.575-12.553-12.98-15.763-19.217c0.577-0.56,1.091-1.19,1.564-1.863c2.197,2.092,5.109,3.206,8.746,3.325
	c4.068,0.167,7.603-0.967,10.604-3.401c3.334-2.701,5.068-6.186,5.201-10.453c0.167-4.035-1.05-7.536-3.65-10.503
	c-2.534-2.901-5.719-4.635-9.553-5.202c-3.901-0.534-7.386,0.317-10.453,2.551c-1.434,0.167-3.151-0.184-5.152-1.05
	c-1.666-0.7-2.717-1.3-3.15-1.801c-0.267-0.3-0.416-0.75-0.45-1.35c-0.013-0.272,0.011-0.527,0.053-0.774
	c2.027,0.372,4.077,0.549,6.149,0.523c5.068-0.033,9.686-1.25,13.854-3.651c9.77-0.133,17.655-3.334,23.657-9.603
	c5.968-6.269,9.653-15.155,11.054-26.658c2.1-17.305-2.685-32.959-14.354-46.963c-5.269-6.302-11.454-11.487-18.556-15.555
	c-6.388-3.625-12.978-6.051-19.763-7.292c-0.069-2.434,0.974-5.417,3.157-8.962c2.201-3.634,4.702-6.468,7.503-8.502
	c1.7-1.2,2.401-2.117,2.101-2.75c-0.267-0.534-1.316-0.8-3.15-0.8c-3.368,0-6.303,0.617-8.803,1.85
	c-1.699,0.838-3.469,2.104-5.306,3.784c-0.015-1.425-0.143-2.805-0.396-4.133c-0.233-1.167-0.533-1.817-0.9-1.951
	c-0.399-0.133-1.167,0.217-2.3,1.05c-1.886,1.485-3.329,2.958-4.383,4.418c-2.756-6.44-7.479-10.214-14.174-11.32
	c-2.633-0.433-4.084-0.283-4.351,0.45c-0.101,0.367,0.25,1.351,1.05,2.951c1.153,2.278,1.912,4.7,2.318,7.249
	c-2.062-0.738-3.942-1.103-5.619-1.047c-0.967,0.033-1.533,0.217-1.7,0.55c-0.134,0.3,0.05,0.867,0.55,1.7
	c0.762,1.306,1.172,2.88,1.269,4.696c-4.746-2.077-8.788-2.028-12.122,0.156c-2.633,1.801-2.35,2.667,0.852,2.601
	c2.467-0.066,5.217,0.984,8.252,3.151c3.01,2.119,4.716,4.338,5.151,6.656c-12.874,3.816-23.697,11.578-32.459,23.303
	c-10.037,13.437-14.087,28.058-12.154,43.863c1.701,14.004,8.886,24.574,21.557,31.709c8.095,4.579,16.915,6.897,26.451,6.984
	c-1.258,0.504-2.185,1.175-2.778,2.011c-1.707-0.891-3.673-1.415-5.918-1.543c-3.668-0.2-6.752,0.567-9.252,2.3
	c-3.968,2.768-6.036,6.669-6.203,11.704c-0.2,5.435,2.284,9.536,7.453,12.304c0.657,0.354,1.328,0.638,2.007,0.889
	c-14.377,8.139-25.323,13.284-32.816,15.416c-7.335,2.066-15.238,2.268-23.707,0.6c-5.635-1.1-10.103-1.533-13.404-1.301
	c-2.868,0.201-6.469,1.067-10.803,2.602c-5.435,1.967-11.037,2.634-16.805,2c-8.703-0.934-16.671,0.15-23.907,3.251
	c-2.625,1.123-4.747,2.314-6.379,3.57c-8.938,3.229-16.321,7.9-22.129,14.035c-5.468,5.802-7.369,10.236-5.702,13.304
	c1.233,2.268,3.051,3.617,5.451,4.051l7.402-0.449c4.935-0.934,8.803-0.967,11.604-0.101c2.4,0.767,4.918,2.585,7.552,5.452
	c3.067,3.301,5.401,5.468,7.002,6.502c3.234,2.066,6.902,2.867,11.003,2.4c3.534-0.4,6.702-1.367,9.502-2.9l5.952-4.252
	c2.134-1.667,3.718-2.768,4.751-3.301c1.901-0.967,4.051-1.4,6.452-1.301c11.136,0.434,18.905-0.199,23.307-1.9
	c4.868-1.934,8.469-6.135,10.803-12.604c1.8-5.135,2.834-7.952,3.101-8.453c1.418-2.92,3.323-5.257,5.706-7.02
	c1.582-0.569,3.318-1.177,5.248-1.832c11.737-4.002,20.056-7.236,24.957-9.703c4.45-2.28,8.855-5.163,13.22-8.625
	c-2.839,9.892-10.491,21.217-22.973,33.982c-7.874,8.041-16.722,15.775-26.513,23.212c-6.206,3.658-13.867,7.075-23.001,10.247
	l-11.003,3.852c-2.199,0.875-3.573,1.675-4.125,2.399c-4.762,0.502-8.83,1.185-12.18,2.052c-5.721,1.479-8.707,3.346-8.976,5.598
	c-3.511,0.89-6.869,1.928-10.03,3.155c-5.992,2.323-9.256,4.604-9.811,6.844c-6.678,1.843-12.311,4.073-16.847,6.71
	c-7.836,4.568-10.587,9.437-8.252,14.604c2.3,5.068,8.019,8.136,17.155,9.202c6.333,0.744,13.076,0.523,20.224-0.645
	c0.031,0.217,0.073,0.432,0.132,0.645c0.767,2.668,3.134,4.318,7.102,4.952c3.534,0.533,7.802,0.2,12.804-1.001
	c4.835-1.166,9.236-2.867,13.204-5.102c2.558-1.45,4.577-2.932,6.077-4.442c0.652,1.993,2.286,3.032,4.926,3.093
	c2.667,0.066,6.052-0.816,10.153-2.65c2.119-0.964,4.151-2.025,6.108-3.172c-0.083,1.488,0.495,2.664,1.744,3.521
	c0.508,0.345,1.051,0.556,1.622,0.661c-2.124,2.712-3.96,5.745-5.473,9.142c-2.167,4.868-2.801,8.803-1.9,11.804
	c1,3.301,3.217,5.418,6.652,6.352c3.234,0.867,7.052,0.583,11.453-0.851c4.435-1.467,8.703-3.9,12.804-7.302
	c3.666-3.031,6.752-6.515,9.279-10.436c1.497,3.185,4.169,3.302,8.026,0.333c3.227-2.521,5.917-6.255,8.076-11.195
	c1.071,1.982,2.644,2.192,4.728,0.592c2.414-1.832,4.6-5.662,6.564-11.44c0.264,0.444,0.553,0.864,0.888,1.237
	c1.101,1.201,2.368,1.784,3.802,1.751c0.701,0,1.334-0.144,1.903-0.422c-0.31,3.081,0,7.526,0.946,13.376
	c1.367,8.369,3.686,12.486,6.953,12.354c0.934-0.033,1.9-0.617,2.9-1.751c0.853-0.946,1.653-2.228,2.404-3.831
	c0.467,5.518,1.818,10.849,4.098,15.984c3.301,7.369,7.235,11.537,11.803,12.504c3.035,0.634,5.52,0.033,7.453-1.801
	c1.236-1.193,2.092-2.788,2.58-4.771c1.423,3.699,3.613,7.26,6.623,10.673c5.468,6.168,10.52,8.086,15.154,5.752
	c3.834-1.901,5.701-6.703,5.602-14.404c-0.069-4.617-0.753-9.227-2.021-13.829c4.275-3.707,2.604-11.535-4.996-23.473
	c0.583-2.889-1.175-7.674-5.287-14.364l-2.968-4.249c0.354-3.437-1.491-8.162-5.584-14.206c-2.2-3.268-6.719-9.02-13.554-17.255
	l-6.452-7.603c-0.698-0.83-1.325-1.601-1.916-2.342c-5.603-9.311-9.287-17.036-11.038-23.166
	c-3.168-11.218-2.139-21.635,3.063-31.255c3.011,6.32,6.685,11.977,11.042,16.951c2.001,2.268,5.702,5.835,11.103,10.703
	l3.486,3.319c0.238,1.645,0.206,3.209-0.135,4.684c-0.233,1.033-0.801,2.483-1.701,4.351c-2.066,4.435-2.9,7.836-2.5,10.203
	c0.533,3.234,3.251,5.886,8.152,7.952c3.067,1.301,5.552,3.018,7.452,5.152c1.834,2,3.435,4.751,4.802,8.252
	c2.734,7.068,5.734,11.787,9.002,14.154c3.734,2.701,9.586,3.851,17.556,3.451c4.935-0.234,8.669,0.366,11.203,1.801
	c1.567,0.899,4.284,3.4,8.152,7.502c3.101,3.334,5.669,5.651,7.702,6.951c2.801,1.768,5.352,2.218,7.652,1.351
	C300.127,277.498,300.844,273.213,298.943,265.878z"/>
</svg>
