<?xml version="1.0" encoding="utf-8"?>
<!-- Generator: Adobe Illustrator 16.0.0, SVG Export Plug-In . SVG Version: 6.00 Build 0)  -->
<!DOCTYPE svg PUBLIC "-//W3C//DTD SVG 1.1//EN" "http://www.w3.org/Graphics/SVG/1.1/DTD/svg11.dtd">
<svg version="1.1" id="图层_1" xmlns="http://www.w3.org/2000/svg" xmlns:xlink="http://www.w3.org/1999/xlink" x="0px" y="0px"
	 width="353px" height="343px" viewBox="0 0 353 343" enable-background="new 0 0 353 343" xml:space="preserve">
<path d="M343.469,193.876c0.239-0.407,0.455-0.831,0.634-1.282c3.565-8.896-5.315-16.979-26.643-24.243l-3.799-1.3
	c-0.367-0.133-1.283-1.167-2.749-3.099c-4.166-5.665-8.965-9.647-14.396-11.947c-9.598-4.099-21.61-3.732-36.039,1.1
	c-4.865,1.633-9.231,2.565-13.097,2.799c-4.819,0.315-10.831-0.169-18.003-1.433c0.152-0.409,0.305-0.827,0.457-1.267l3.8,0.75
	l3.849,0.45c4.166-5.165,7.447-12.03,9.848-20.594c2.199-7.897,2.699-13.046,1.499-15.445c-0.366-0.7-0.883-1.05-1.55-1.05
	l-11.769,0.315c8.133-9.245,12.219-20.158,12.219-32.756c0-13.296-4.599-24.993-13.796-35.09
	c-8.946-9.828-20.476-16.224-34.571-19.206c0.079-2.757,0.438-6,1.081-9.736c1.466-8.631,3.599-14.279,6.398-16.945
	c0.433-0.433,0.365-0.7-0.201-0.8c-0.633-0.133-1.549,0.05-2.748,0.55c-1.647,0.656-3.378,1.713-5.186,3.152l-0.213-2.552
	c-0.101-1.033-0.367-1.616-0.801-1.75c-0.399-0.1-0.982,0.083-1.749,0.55l-3.649,2.849l-1.363,1.206
	c-0.853-2.006-1.83-3.793-2.936-5.354c-0.732-1-1.283-1.516-1.648-1.549c-0.4-0.034-0.851,0.4-1.35,1.299
	c-0.288,0.547-0.622,1.238-0.996,2.058c-0.731-1.264-1.384-2.07-1.953-2.407c-0.567-0.333-0.984-0.184-1.25,0.45l-1.3,2.649
	l-1.077,1.746c-0.881-1.281-1.995-2.435-3.372-3.446c-1.133-0.833-2.133-1.35-3-1.55c-0.833-0.2-1.1-0.033-0.799,0.5
	c2.499,4.732,3.715,10.48,3.649,17.245c-0.063,4.499-0.726,8.331-1.983,11.503c-13.635,1.985-25.657,7.474-36.057,16.489
	c-12.33,10.697-18.495,23.66-18.495,38.889c0,9.4,2.392,17.859,7.159,25.385c-8.003-1.647-12.411-1.913-13.207-0.792
	c-1.733,2.466-0.667,9.181,3.199,20.145c3.766,10.764,6.481,16.112,8.147,16.045h8.348c1.02,3.194,2.005,5.781,2.957,7.771
	c-4.262,2.253-8.48,3.256-12.654,2.976c-3.932-0.267-8.281-1.716-13.046-4.349c-9.664-5.432-18.028-8.064-25.093-7.897
	c-6.298,0.133-12.229,2.549-17.795,7.248l-6.048,4.799c-2.533,1.7-4.915,2.633-7.148,2.799c-11.53,0.933-20.594,3.466-27.192,7.598
	c-5.484,3.4-8.401,7.355-8.763,11.861c-2.145,2.403-4.288,4.314-6.432,5.734c-3.899,2.666-6.598,4.948-8.098,6.849
	c-2.399,3.064-3.183,6.447-2.35,10.146c1.133,5.132,4.166,8.064,9.098,8.797c1.966,0.301,4.698,0.334,8.197,0.101l10.447-0.85
	c2.866-0.101,5.848,0.616,8.947,2.149c2.233,1.133,4.916,2.898,8.048,5.299c3.799,2.965,7.314,5.031,10.547,6.197
	c4.099,1.5,8.498,1.9,13.196,1.2c5.632-0.866,10.947-3.032,15.946-6.498c4.462-3.105,8.304-7.024,11.539-11.739
	c2.635-1.459,5.271-3.803,7.906-7.056c1.866-2.3,4.349-5.965,7.448-10.997l4.499-6.898c1.666-2.166,3.349-3.632,5.048-4.398
	c7.865-3.432,14.163-6.415,18.895-8.947c4.595-2.472,9.143-5.27,13.647-8.375c0.629,1.583,1.229,2.898,1.798,3.926
	c1.333,2.399,2.666,3.599,3.999,3.599c1.666,0,3.382-1.366,5.148-4.099c0.107-0.165,0.224-0.355,0.343-0.55
	c2.089-2.546,3.904-4.668,5.452-6.379c-0.243,9.302-1.5,18.576-3.795,27.822c-1.867,7.603-4.32,14.407-7.321,20.465
	c-3.844,2.7-8.248,4.88-13.224,6.527c-5.832,1.934-12.229,3.083-19.194,3.449c-9.73,0.5-17.745,1.982-24.043,4.449
	c-5.265,2.066-11.08,5.631-17.445,10.697c-0.6,0.433-0.583,0.883,0.05,1.35c4.565,3.365,10.014,6.764,16.346,10.197
	c6.911,3.77,12.263,5.958,16.068,6.582c-13.877,11.103-23.822,20.392-29.814,27.857c-10.364,12.896-17.862,28.643-22.494,47.236
	c-0.167,0.733-0.2,1.167-0.1,1.301l1.25-0.301c5.132-2.199,10.864-3.516,17.195-3.949c2.499-0.199,7.998-0.217,16.495-0.049
	c9.831,0.232,17.095,0.066,21.794-0.5c9.131-1.1,18.111-3.783,26.942-8.049c15.462-7.464,26.426-19.693,32.89-36.689
	c2.925-7.66,4.755-15.714,5.492-24.162c3.318,15.823,10.348,28.496,21.101,38.009c4.399,3.899,9.947,7.747,16.646,11.546
	l17.795,9.348c11.063,5.766,18.678,10.147,22.844,13.146c7.498,5.432,12.846,11.563,16.045,18.395c0.5,1.1,0.95,1.584,1.35,1.45
	c0.434-0.101,0.783-0.733,1.05-1.899c6.798-29.191,3.065-54.186-11.196-74.979c-5.799-8.498-13.597-16.662-23.394-24.494
	c-7.265-5.831-16.712-12.279-28.343-19.344c-8.03-4.898-14.445-12.463-19.244-22.693c-4.652-9.843-6.715-19.896-6.196-30.159
	c1.601-0.598,3.149-1.999,4.647-4.231c1.065-1.574,2.21-3.762,3.431-6.555c4.44,0.771,10.666,3.328,18.712,7.705
	c6.172,3.355,10.666,6.362,13.5,9.023c1.985,3.212,3.572,6.863,4.746,10.972c0.865,3.165,1.6,7.098,2.199,11.796
	c0.732,5.832,1.482,9.765,2.249,11.797c1.466,3.966,4.165,7.147,8.098,9.548c4.132,2.565,9.331,3.182,15.596,1.85
	c3.532-0.734,8.364-2.467,14.495-5.199l5.1-2.1c1.633-0.6,2.898-0.899,3.799-0.899l12.796,1.2l11.946,2.199l13.996,1.999
	c4.799,0.366,8.515,0.066,11.147-0.899c2.232-0.801,4.115-2.15,5.648-4.049c1.566-1.9,2.516-4.016,2.849-6.349
	C351.695,201.452,349.181,197.148,343.469,193.876z"/>
</svg>
