<?xml version="1.0" encoding="utf-8"?>
<!-- Generator: Adobe Illustrator 16.0.0, SVG Export Plug-In . SVG Version: 6.00 Build 0)  -->
<!DOCTYPE svg PUBLIC "-//W3C//DTD SVG 1.1//EN" "http://www.w3.org/Graphics/SVG/1.1/DTD/svg11.dtd">
<svg version="1.1" id="图层_1" xmlns="http://www.w3.org/2000/svg" xmlns:xlink="http://www.w3.org/1999/xlink" x="0px" y="0px"
	 width="396px" height="364px" viewBox="0 0 396 364" enable-background="new 0 0 396 364" xml:space="preserve">
<path d="M392.9,256.271c-1.633-2.898-4.897-6.364-9.796-10.396c-5.566-4.579-11.349-8.131-17.341-10.677
	c-0.831-3.839-4.324-6.529-10.499-8.065c-10.096-2.499-20.158-1.799-30.188,2.1c-5.997,2.332-13.578,6.747-22.741,13.244
	l-8.896,6.348c-3.399,2.299-6.214,3.832-8.446,4.599c-2.133,0.767-5.099,1.249-8.896,1.449l-12.596-0.7
	c-9.338-1.518-15.959-4.776-19.88-9.767c16.622,1.761,31.401-0.9,44.32-8.026c8.163-4.498,14.878-10.546,20.143-18.143
	c3.675-5.336,6.449-11.21,8.364-17.598c15.128-2.829,27.67-9.786,37.618-20.888c10.063-11.262,14.628-23.641,13.695-37.136
	c-1.2-17.394-8.131-31.455-20.793-42.184c-11.273-9.52-24.248-14.336-38.911-14.479c-5.527-9.889-12.673-18.731-21.466-26.505
	c-15.871-14.039-35.066-22.707-57.554-26.052c-0.062-2.714,0.681-6.359,2.225-10.934c1.866-5.465,4.049-9.63,6.548-12.496
	c0.767-0.833,0.55-1.199-0.649-1.1c-1.166,0.133-2.766,0.667-4.799,1.6c-2.51,1.163-4.682,2.456-6.545,3.865l-0.103-3.115
	c0-0.866-0.167-1.349-0.499-1.449c-0.234-0.067-0.783,0.083-1.65,0.45c-1.6,0.689-3.029,1.766-4.311,3.187
	c-1.185-3.942-3.003-7.28-5.485-9.984c-1.366-1.466-2.616-2.432-3.749-2.899c-1.1-0.4-1.615-0.217-1.549,0.55
	c0.166,2.333,0.199,5.165,0.1,8.497c-0.009,0.357-0.021,0.698-0.031,1.042c-0.705-0.765-1.488-1.374-2.367-1.792
	c-0.867-0.4-1.416-0.5-1.65-0.3c-0.232,0.167-0.316,0.683-0.249,1.549v3.539c-3.633-4.901-7.212-7.288-10.738-7.165
	c-0.02-0.007-0.039-0.016-0.058-0.022c0.009,0.007,0.017,0.017,0.025,0.024c-0.175,0.007-0.35,0.007-0.524,0.026
	c2.965,2.899,5.098,7.264,6.397,13.095c1.038,4.703,1.283,8.839,0.754,12.422c-13.206,0.65-26.187,3.087-38.939,7.32
	c-15.728,5.231-29.706,12.729-41.934,22.492c-11.398,9.071-20.527,19.512-27.396,31.316c-16.457,5.581-28.56,14.112-36.28,25.612
	c-9.275,13.781-9.117,28.473,0.438,44.071c-4.868,6.691-7.501,13.675-7.885,20.954c-0.466,8.63,2.232,17.577,8.097,26.84
	c5.298,8.364,12.928,14.678,22.891,18.942c9.897,4.256,20.743,5.928,32.535,5.021c4.498,5.425,10.178,10.05,17.046,13.872
	c5.554,3.092,11.568,5.463,18.006,7.166c-3.19,2.166-8.138,3.943-14.857,5.329c-8.93,1.832-15.461,1.666-19.593-0.5
	c-1-0.533-5.748-4.947-14.244-13.244c-7.997-7.831-14.345-12.563-19.043-14.195c-9.296-3.266-18.91-4.448-28.839-3.549
	c-8.507,0.749-13.765,2.793-15.796,6.122c-6.118,1.116-12.83,4.538-20.14,10.272C6.864,251.59,2.299,256.889,0.5,261.72
	c-1.066,2.866-0.433,4.864,1.899,5.997c2.333,1.167,6.464,1.467,12.396,0.9c4.965-0.5,8.763-0.584,11.396-0.25
	c7.164,0.967,12.562,2.249,16.194,3.849c7.664,3.398,12.945,9.063,15.844,16.993c1.033,2.766,2.666,5.031,4.898,6.798
	c2.366,1.866,5.282,3.065,8.747,3.599c5.464,0.833,11.096,0.15,16.894-2.049s10.029-5.232,12.695-9.098
	c3.399-4.931,6.714-8.68,9.946-11.245c2.962-2.365,6.083-3.973,9.358-4.839c7.495-0.558,14.3-1.864,20.38-3.958
	c5.249-1.812,12.054-5.227,20.377-10.201c0.491,0.048,0.969,0.114,1.464,0.155c0.956,0.077,1.902,0.115,2.851,0.166
	c-5.237,7.246-14.56,15.553-27.992,24.924c-11.762,8.164-22.591,14.578-32.487,19.243c-1.466,0.7-2.583,1.699-3.349,2.999
	c-0.733,1.299-0.899,2.432-0.5,3.398c0.933,2.166,3.849,3.148,8.747,2.949c4.932-0.256,11.249-1.694,18.92-4.291
	c-0.33,0.861-0.416,1.646-0.228,2.342c0.667,2.232,3.666,2.615,8.997,1.149c5.009-1.364,10.149-4.06,15.414-8.05
	c-0.127,0.248-0.239,0.486-0.32,0.703c-0.633,1.599-0.333,2.932,0.9,3.998c1.566,1.366,3.849,1.615,6.847,0.75
	c2.899-0.867,6.048-2.633,9.446-5.299c2.134-1.68,4.111-3.502,5.958-5.441c-0.297,12.413,1.248,21.126,4.639,26.134
	c1.5,2.166,3.199,3.382,5.098,3.649c1.417,0.19,2.788-0.175,4.115-1.075c0.572,5.885,2.05,10.938,4.481,15.119
	c3.51,6.03,7.417,7.403,11.721,4.146c0.318,1.031,0.654,2.039,1.024,3.001c1.965,5.031,4.481,8.764,7.547,11.195
	c2.732,2.133,5.748,3.033,9.047,2.699c3.299-0.333,5.697-1.816,7.197-4.448c1.6-2.799,2.115-6.697,1.549-11.695
	c-0.136-1.241-0.34-2.511-0.597-3.803c2.468,2.621,4.982,3.493,7.544,2.603c1.633-0.566,2.766-2.382,3.398-5.447
	c0.6-2.881,0.423-5.813-0.517-8.791c0.907-0.069,1.779-0.27,2.616-0.605c2.655-1.056,3.709-3.341,3.194-6.829
	c6.567,6.456,13.579,10.895,21.046,13.276c7.365,2.332,12.129,1.899,14.295-1.299c2.633-3.865,2.016-9.064-1.85-15.595
	c-1.046-1.763-2.272-3.502-3.644-5.225c1.529-0.05,2.845-0.72,3.944-2.022c1.466-1.799,1.816-3.998,1.049-6.598
	c-0.533-1.766-2.099-3.932-4.697-6.498l-7.697-6.697c-0.214-0.173-0.404-0.33-0.609-0.496c1.193-0.092,2.28-0.573,3.258-1.453
	c1.467-1.365,1.85-3.082,1.15-5.148c-0.566-1.766-2.166-3.615-4.799-5.547c-1.299-0.967-4.615-3.049-9.946-6.248
	c-7.597-4.631-14.211-9.463-19.843-14.494c-6.966-6.264-12.104-12.619-15.453-19.065c1.146,0.32,2.279,0.614,3.41,0.899
	c5.347,9.384,14.886,16.559,28.637,21.515c5.768,2.056,12.042,3.652,18.801,4.812c2.755,1.166,5.501,3.065,8.239,5.734
	c2.866,2.799,5.599,6.281,8.197,10.445c3.932,6.231,6.831,10.28,8.696,12.146c3.865,3.832,8.431,5.664,13.695,5.498
	c6.497-0.201,12.129-2.55,16.894-7.048c2.665-2.532,6.081-7.164,10.246-13.896l0.05-0.1c3.766-6.064,9.946-10.246,18.543-12.545
	c4.965-1.333,10.362-1.949,16.194-1.85c7.264,0.167,12.345-0.966,15.244-3.398C393.7,260.87,394.233,258.671,392.9,256.271z"/>
</svg>
