<?xml version="1.0" encoding="utf-8"?>
<!-- Generator: Adobe Illustrator 16.0.0, SVG Export Plug-In . SVG Version: 6.00 Build 0)  -->
<!DOCTYPE svg PUBLIC "-//W3C//DTD SVG 1.1//EN" "http://www.w3.org/Graphics/SVG/1.1/DTD/svg11.dtd">
<svg version="1.1" id="图层_1" xmlns="http://www.w3.org/2000/svg" xmlns:xlink="http://www.w3.org/1999/xlink" x="0px" y="0px"
	 width="404px" height="361px" viewBox="0 0 404 361" enable-background="new 0 0 404 361" xml:space="preserve">
<path d="M401.802,306.19c-0.995-3.88-2.862-8.462-5.585-13.73c0.509-1.015-0.399-3.023-2.758-6.052
	c-10.558-13.822-22.581-22.631-36.069-26.428c-14.688-4.13-31.822-2.531-51.405,4.796c-6.229,2.298-15.92,2.397-29.074,0.3
	c-11.149-1.785-21.179-4.522-30.092-8.211c8.644-1.253,17.011-3.141,25.096-5.678c17.852-5.617,32.973-13.98,45.38-25.072
	c5.712-0.546,11.284-1.643,16.716-3.303c20.449-6.228,34.537-18.201,42.264-35.918c3.497-8.027,5.229-16.536,5.195-25.528
	c-0.033-8.959-1.832-17.702-5.396-26.228c-3.93-9.392-9.642-17.701-17.135-24.928c-7.122-6.842-15.009-11.845-23.64-15.056
	c-3.581-5.842-8.004-11.548-13.278-17.116c-9.392-9.925-20.665-18.584-33.821-25.978c-13.455-7.593-27.759-13.238-42.912-16.935
	c-13.075-3.147-26.052-4.668-38.928-4.567c-0.562-3.121-0.727-7.09-0.488-11.918c0.3-6.195,1.249-10.841,2.848-13.938
	c0.433-0.833,0.366-1.182-0.2-1.049c-0.599,0.1-1.433,0.649-2.497,1.648c-1.897,1.768-3.618,3.968-5.166,6.587l-1.679-2.341
	l-1.848,0.05l-0.302,0.622c-0.1-0.54-0.199-1.091-0.297-1.671c-0.533-3.064-0.899-5.662-1.099-7.793
	c-0.1-0.932-0.616-1.032-1.549-0.299c-0.932,0.699-1.981,1.965-3.147,3.796c-1.947,3.028-3.307,6.07-4.102,9.126
	c-0.747-0.611-1.788-1.384-3.142-2.332c-0.633-0.433-1.083-0.533-1.349-0.3c-0.2,0.2-0.333,0.716-0.399,1.548l-0.102,2.318
	c-2.763-2.061-5.576-3.394-8.44-3.967l-3.447,0.1c-0.666,0.433-0.549,1.099,0.35,1.998c2.098,2.032,4.33,5.379,6.694,10.042
	c2.218,4.346,3.441,7.709,3.69,10.114c-16.354,2.897-31.039,8.417-44.056,16.563c-15.366,9.571-28.157,22.619-38.382,39.127
	c-10.339,3.857-19.368,9.47-27.062,16.874c-8.093,7.76-13.688,16.486-16.785,26.177c-3.431,10.857-4.013,22.048-1.749,33.571
	c2.431,12.089,7.843,23.646,16.236,34.67c10.225,13.455,28.226,23.413,54.003,29.874c0.049,0.013,0.1,0.023,0.149,0.036
	c11.092,8.492,24.712,15.276,40.865,20.346c2.994,0.943,6.013,1.805,9.054,2.592c-3.87,3.611-10.165,7.16-18.896,10.646
	c-10.591,4.23-20.132,6.361-28.625,6.395c-4.629,0.033-9.975-0.898-16.036-2.797c-2.265-0.699-7.793-2.73-16.586-6.095
	c-12.589-4.829-21.914-7.693-27.976-8.593c-9.958-1.465-18.934,0.1-26.927,4.696c-2.813,1.59-5.29,3.497-7.438,5.715
	c-8.601,3.227-16.147,8.779-22.636,16.665c-2.964,3.631-5.129,7.145-6.495,10.541c-1.365,3.464-1.682,6.278-0.949,8.443
	c1.099,3.164,3.63,5.361,7.594,6.594c3.996,1.232,9.991,1.633,17.984,1.199c16.119-0.933,32.788,3.896,50.006,14.487
	c6.461,3.964,13.239,5.829,20.333,5.595c7.294-0.266,12.839-2.681,16.636-7.243c1.166-1.399,2.581-3.563,4.246-6.495l4.097-7.842
	c2.364-5.063,4.479-8.943,6.344-11.641c2.348-3.362,5.131-6.179,8.324-8.483l2.467-0.708c1.666-0.472,3.272-0.934,4.824-1.387
	c-5.5,13.043-5.005,25.313,1.52,36.806c2.564,4.496,6.228,9.208,10.991,14.138c2.298,2.398,6.627,6.478,12.989,12.239l6.194,5.396
	l5.295,5.096c2.431,2.83,4.613,3.813,6.544,2.947c1.732-0.799,2.515-2.481,2.348-5.046c-0.43-5.938-0.479-11.517-0.151-16.741
	c1.32,1.909,2.802,2.896,4.447,2.953c1.865,0.066,3.347-1.065,4.446-3.396c0.866-1.799,2.398-3.914,4.596-6.345
	c1.665-1.832,4.046-4.196,7.143-7.095c8.359-7.693,13.339-12.506,14.938-14.438c4.437-5.357,6.938-10.805,7.512-16.338
	c1.371,3.128,2.534,6.488,3.479,10.094c3.863,14.82,2.631,29.191-3.696,43.113c-1.132,2.498-1.516,5.145-1.149,7.943
	c0.334,2.664,1.166,4.346,2.498,5.045l1.849-0.05c0.999-0.366,1.864-1.132,2.598-2.298c1.332-2.198,3.164-4.646,5.495-7.344
	l6.844-7.394c7.561-7.927,12.473-13.571,14.738-16.936c4.695-7.027,6.844-14.121,6.443-21.282
	c-0.6-10.391-4.396-19.865-11.39-28.425c-0.226-0.276-0.459-0.542-0.688-0.813c4.778,1.746,10.316,2.952,16.625,3.611
	c4.312,0.447,9.646,0.683,15.96,0.714c2.746,0.869,5.289,2.765,7.619,5.73c2.364,3.03,4.729,7.526,7.094,13.488
	c3.53,8.825,6.128,14.554,7.793,17.185c3.664,5.862,8.227,9.275,13.688,10.242c7.127,1.299,13.455,0.849,18.983-1.35
	c4.396-1.766,8.942-4.979,13.639-9.642c4.463-4.429,10.024-6.96,16.686-7.593c6.86-0.666,12.955,0.932,18.284,4.795
	c3.197,2.365,5.179,3.215,5.944,2.549C402.667,312.852,402.801,310.254,401.802,306.19z"/>
</svg>
