<?xml version="1.0" encoding="utf-8"?>
<!-- Generator: Adobe Illustrator 16.0.0, SVG Export Plug-In . SVG Version: 6.00 Build 0)  -->
<!DOCTYPE svg PUBLIC "-//W3C//DTD SVG 1.1//EN" "http://www.w3.org/Graphics/SVG/1.1/DTD/svg11.dtd">
<svg version="1.1" id="图层_1" xmlns="http://www.w3.org/2000/svg" xmlns:xlink="http://www.w3.org/1999/xlink" x="0px" y="0px"
	 width="199px" height="306px" viewBox="0 0 199 306" enable-background="new 0 0 199 306" xml:space="preserve">
<path d="M196.854,125.477c0.998-2.262,1.38-4.874,1.146-7.834c-0.398-4.757-2.078-9.93-5.039-15.519
	c-3.094-5.888-7.202-11.394-12.325-16.517c-10.078-10.133-21.73-16.862-34.947-20.2c-2.873-5.45-7.645-12.61-14.354-21.516
	c-9.581-12.608-18.563-22.039-26.946-28.293c-7.285-5.422-13.889-8.816-19.81-10.18l-7.285-0.449
	c-2.396,0.333-4.258,1.181-5.589,2.545c-0.983,1.013-1.66,2.318-2.065,3.884c-9.604-5.89-19.809-9.452-30.619-10.67
	C26.146-0.736,16.1,1.858,8.881,8.512c-2.828,2.628-5.007,5.738-6.537,9.331C0.348,22.6-0.384,27.956,0.148,33.911
	C0.647,39.267,1.995,44.54,4.19,49.729C6.486,55.185,9.496,59.942,13.222,64c10.061,10.929,22.349,20.745,36.82,29.468
	c-1.756,1.523-3.458,3.074-5.084,4.664c-10.113,9.946-15.852,19.644-17.215,29.091c-0.2,1.597-0.3,3.127-0.3,4.591
	c0,4.292,0.932,8.25,2.794,11.876c1.996,3.792,4.857,6.87,8.583,9.231c-4.857,6.221-7.286,12.875-7.286,19.959
	c0,3.16,0.466,6.321,1.397,9.481c2.661,9.148,8.949,16.634,18.862,22.455c5.624,3.284,11.891,5.788,18.78,7.537
	c-5.123,5.081-9.508,10.054-13.141,14.917c-6.354,8.517-10.911,17.183-13.672,25.998c-2.661,8.416-3.46,16.234-2.395,23.453
	c1.031,7.086,3.759,12.94,8.184,17.564c4.491,4.658,10.711,7.402,18.662,8.234c8.649,0.897,16.617-0.916,23.902-5.439
	c10.279-6.38,19.325-15.207,27.141-26.48c0.917,0.838,1.997,1.483,3.247,1.93c3.627,1.23,7.386,1.015,11.277-0.648
	c4.292-1.896,8.584-5.506,12.875-10.828c7.086-8.816,12.84-21.324,17.266-37.525c3.348-12.399,5.426-24.946,6.257-37.637
	c9.686-6.302,17.233-16.14,22.634-29.527c2.396-5.922,3.793-11.428,4.192-16.518c0.375-4.962-0.26-8.827-1.877-11.622
	C195.805,127.438,196.389,126.532,196.854,125.477z"/>
</svg>
