<?xml version="1.0" encoding="utf-8"?>
<!-- Generator: Adobe Illustrator 16.0.0, SVG Export Plug-In . SVG Version: 6.00 Build 0)  -->
<!DOCTYPE svg PUBLIC "-//W3C//DTD SVG 1.1//EN" "http://www.w3.org/Graphics/SVG/1.1/DTD/svg11.dtd">
<svg version="1.1" id="图层_1" xmlns="http://www.w3.org/2000/svg" xmlns:xlink="http://www.w3.org/1999/xlink" x="0px" y="0px"
	 width="184px" height="136px" viewBox="0 0 184 136" enable-background="new 0 0 184 136" xml:space="preserve">
<path d="M179.611,85.708l-4.207-1.252c-1.203-7.146-2.939-12.039-5.21-14.677c-2.765-3.178-8.422-6.264-16.96-9.26l0.83-1.06
	l1.303-2.204c0.2-0.868-0.701-1.402-2.705-1.603l-3.04,0.155c0.342-2.588-0.057-5.524-1.218-8.82
	c-0.981-2.828-2.192-5.108-3.625-6.848l1.371-1.567c1.569-2.104,2.153-3.54,1.753-4.308c-0.267-0.468-1.52-0.651-3.757-0.551
	c-1.282,0.055-2.576,0.198-3.878,0.414c4.067-7.373,5.849-11.458,5.331-12.235l-8.917-0.351l-9.202,0.946l0.386-14.32
	c0.067-4.007-0.05-6.111-0.351-6.312c-0.668-0.501-4.742,1.286-12.223,5.36c-4.6,2.472-8.184,4.573-10.767,6.307
	c-0.089-0.828-0.234-1.661-0.454-2.5c-0.367-1.302-0.668-1.887-0.901-1.753l-4.458,2.204c-1.215,0.592-2.244,1.104-3.104,1.543
	c0.074-1.996-0.06-4.478-0.402-7.454C94.806,2.021,94.389,0.167,93.954,0c-0.668-0.233-3.74,1.419-9.217,4.959
	c-5.243,3.373-9.468,6.361-12.673,8.966c-1.336,1.135-3.189,2.321-5.561,3.557c-5.744,3.072-10.853,6.428-15.328,10.068
	c-4.522,3.703-8.151,7.517-10.908,11.44c-0.169-0.459-0.371-0.963-0.613-1.521c-0.868-2.104-1.536-3.139-2.004-3.106
	c-0.434,0.034-1.202,1.302-2.304,3.807c-0.47,1.057-0.848,1.996-1.163,2.852l-2.694-3.754c-2.037-2.604-3.256-3.89-3.657-3.857
	c-0.801,0.1-1.252,2.638-1.353,7.614l-0.04,4.012l-0.461-0.505l-1.002-0.702c-0.167,0.067-0.3,0.468-0.4,1.202
	c-0.401,2.705-1.169,5.911-2.304,9.618c-1.069,3.573-2.004,6.078-2.805,7.514c-3.423,6.333-5.329,12.82-5.772,19.459
	c-0.822,0.858-1.719,2.064-2.694,3.634c-1.082,1.721-1.896,3.282-2.471,4.703c-0.703,0.317-2.076,1.115-4.141,2.41
	c-2.739,1.703-4.175,2.821-4.308,3.355c-0.154,0.738,1.641,1.977,5.333,3.704c-0.482,0.802-1.125,2.055-1.927,3.76
	c-1.169,2.472-1.67,3.924-1.503,4.358l4.95-0.294c0.5,2.047,1.587,4.631,3.266,7.757c2.07,3.908,3.724,5.878,4.959,5.911
	c1.002,0.034,2.521-1.419,4.559-4.358c1.12-1.609,1.995-3.017,2.631-4.229c0.901,5.761,2.228,8.729,3.981,8.888
	c1.57,0.134,3.657-1.419,6.262-4.659l2.413-3.446c0.483,1.548,1.082,3.148,1.795,4.8c2.104,4.809,4.091,7.146,5.961,7.012
	c2.204-0.166,4.692-2.938,7.464-8.314c0.297-0.573,0.574-1.136,0.842-1.693c6.134,0.145,13.727-0.702,22.781-2.542
	c2.241,1.617,5.843,3.561,10.84,5.838c5.777,2.672,9,3.606,9.668,2.806c0.533-0.668,0.684-3.09,0.45-7.264
	c-0.099-1.808-0.229-3.46-0.394-4.96c2.146,0.357,5.408,1.985,9.811,4.91c4.441,2.972,7.264,5.359,8.466,7.163l0.751,3.406
	l0.602,4.107c0.066,0.734,1.019,0.602,2.855-0.4c0.508-0.271,1.032-0.587,1.569-0.936c0.843,1.651,2.188,3.433,4.04,5.344
	c2.104,2.17,3.641,3.205,4.609,3.105c1.402-0.101,3.039-2.07,4.908-5.911c1.431-2.952,2.467-5.723,3.145-8.328l0.213,0.063
	l2.955,0.3c0.301-0.333-0.15-2.688-1.354-7.063c1.336-0.835,2.873-1.603,4.609-2.305c1.002-0.435,0.434-1.335-1.703-2.704
	c-1.236-0.803-2.805-1.654-4.709-2.555c-0.178-3.122-0.52-5.727-1.02-7.836c1.052-0.45,2.367-1.217,3.975-2.334l2.352-1.832
	c1.877,1.001,7.187,2.29,15.918,3.868l0.666,2.122c0.635,1.736,1.186,2.738,1.652,3.006c0.372,0.186,1.033-0.297,1.979-1.439
	c0.577,0.961,1.531,2.253,2.88,3.894c2.371,2.839,4.158,4.157,5.359,3.958c1.236-0.234,2.689-2.021,4.358-5.36
	c1.349-2.728,2.182-5.021,2.508-6.887c0.102,0.023,0.194,0.051,0.298,0.074c2.17,0.468,3.256,0.3,3.256-0.501
	c0-0.701-0.869-2.555-2.605-5.561c1.402-0.534,2.839-1.202,4.309-2.004c1.736-1.002,2.604-1.736,2.604-2.203
	C183.669,87.395,182.316,86.643,179.611,85.708z"/>
</svg>
