<?xml version="1.0" encoding="utf-8"?>
<!-- Generator: Adobe Illustrator 16.0.0, SVG Export Plug-In . SVG Version: 6.00 Build 0)  -->
<!DOCTYPE svg PUBLIC "-//W3C//DTD SVG 1.1//EN" "http://www.w3.org/Graphics/SVG/1.1/DTD/svg11.dtd">
<svg version="1.1" id="图层_1" xmlns="http://www.w3.org/2000/svg" xmlns:xlink="http://www.w3.org/1999/xlink" x="0px" y="0px"
	 width="315px" height="239px" viewBox="0 0 315 239" enable-background="new 0 0 315 239" xml:space="preserve">
<path d="M314.4,182.814c-0.6-1.332-2.048-3.547-4.346-6.644c2.131-1.165,3.197-2.064,3.197-2.697c0-0.666-1.915-1.965-5.745-3.896
	v-0.05c0.566-3.529,0.25-7.16-0.949-10.89c-1.265-3.896-3.229-7.093-5.894-9.591c-3.497-3.23-7.576-5.562-12.238-6.993
	c-1.898-0.6-4.33-1.065-7.293-1.399c-2.998-4.563-6.494-9.49-10.49-14.785c-7.608-10.114-14.129-17.459-19.564-22.049
	c-0.539-2.441-1.285-4.898-2.266-7.373c-1.498-3.863-2.863-5.794-4.096-5.794c-1.266,0-2.364,1.732-3.297,5.195
	c-0.156,0.567-0.299,1.134-0.429,1.701c-1.166-0.496-2.309-0.948-3.41-1.324l-1.506-2.625l-2.194-3.244
	c-0.073-1.106-0.218-2.329-0.453-3.7c-0.467-2.431-0.999-4.246-1.599-5.445c-0.366-0.766-0.716-1.215-1.049-1.349
	c-0.466-0.233-1.05,0.05-1.749,0.849c-0.821,0.917-1.675,2.284-2.558,4.072c-0.819-0.566-1.936-1.221-3.386-1.974
	c-1.932-1.033-3.547-1.749-4.846-2.148l-2.447-0.15c-0.866,0.399-1.199,1.532-1,3.396c0.244,2.15,0.682,4.526,1.28,7.09
	l-3.528,0.303c-0.332-3.597-0.998-7.359-1.998-11.289c-1.064-4.429-2.031-6.71-2.896-6.844c-0.5-0.066-0.982,0.133-1.449,0.6
	c-0.729,0.729-1.714,2.171-2.946,4.302c-1.989-3.295-4.287-6.44-6.901-9.432c1.761-2.507,3.974-6.827,6.65-13.003
	c2.731-6.327,4.713-11.639,5.945-15.935c0.566-1.965,0.648-3.114,0.25-3.447l-3.996,0.2c-0.867,0.167-2.549,0.716-5.046,1.648
	l-4.097,1.499c-0.432-5.528-1.281-12.155-2.547-19.881c-1.066-6.46-1.898-10.806-2.498-13.037c-0.433-1.599-0.949-2.481-1.549-2.647
	c-0.599-0.133-1.447,0.383-2.547,1.548c-1.332,1.365-3.88,4.995-7.643,10.89c-3.664,5.828-6.361,10.457-8.092,13.887l-5.646-4.546
	c-3.597-2.73-5.812-3.913-6.644-3.546c-0.932,0.433-1.648,3.68-2.148,9.741c-0.434,4.917-0.552,9.331-0.358,13.243
	c-4.136-0.765-8.395-1.154-12.779-1.154c-8.877,0-17.402,1.704-25.579,5.098c0.054-2.087-0.044-5.148-0.297-9.194
	c-0.366-5.894-0.899-10.24-1.599-13.038c-0.333-1.365-0.783-2.114-1.349-2.248c-0.5-0.1-1.266,0.216-2.298,0.949
	c-0.799,0.533-1.731,1.449-2.797,2.748l-2.098,2.598c-1.565-3.796-4.396-9.208-8.492-16.235c-3.963-6.827-6.71-11.106-8.242-12.837
	c-1.065-1.166-1.815-1.732-2.248-1.699c-0.433,0.067-0.965,0.799-1.598,2.198c-1.698,3.863-3.33,8.958-4.896,15.285
	c-1.932,7.793-3.18,15.419-3.747,22.878c-3.929-3.197-7.576-5.545-10.939-7.043c-1.632-0.699-2.647-0.982-3.047-0.849
	c-0.633,0.2-1.049,1.266-1.249,3.197c-0.566,4.996-0.167,10.973,1.199,17.933c1.832,9.258,5.062,16.717,9.691,22.379l-9.341-1.249
	l-8.143-0.549c-1.532,0.033-2.414,0.316-2.647,0.849c-0.167,0.333-0.033,1.132,0.4,2.398c0.366,1.132,1.465,3.513,3.297,7.143
	s3.513,6.76,5.045,9.391c-5.628,2.098-9.741,3.83-12.338,5.195c-1.398,0.733-2.081,1.365-2.048,1.898
	c0,0.466,0.633,1.049,1.898,1.748l5.245,2.148c2.445,0.873,4.704,1.55,6.775,2.031c-3.146,2.408-6.585,5.16-10.321,8.259
	c-7.626,6.328-13.67,11.756-18.133,16.285c-2.331-0.267-4.695-0.217-7.093,0.149c-3.83,0.566-7.093,1.849-9.791,3.847
	c-4.296,3.197-6.811,8.125-7.543,14.785c-3.297,0.934-5.461,1.766-6.494,2.498c-0.466,0.366-0.716,0.716-0.75,1.049l0.4,0.85
	c0.599,0.766,1.881,1.765,3.846,2.997c-3.097,3.33-5.029,5.761-5.794,7.293c-0.433,0.8-0.566,1.332-0.4,1.599
	c0.2,0.333,0.916,0.615,2.148,0.85l7.543,0.699c-1.798,5.961-2.697,9.457-2.697,10.489c0,0.833,0.167,1.333,0.5,1.499l3.147,0.1
	c0.92-0.081,1.937-0.223,3.036-0.413c-0.303,2.264-0.149,5.414,0.461,9.454c0.866,5.528,2.364,8.525,4.496,8.992
	c2.032,0.433,5.162-1.232,9.391-4.996c3.706-3.34,6.178-6.359,7.445-9.063l1.346,2.071l0.999,0.849
	c0.367,0.066,0.816-0.167,1.349-0.699l4.346-5.595c1.118,1.199,2.106,2.141,2.979,2.85c0.146,1.782,0.48,3.612,1.017,5.492
	c-3.13,1.799-5.079,3.064-5.844,3.797c-1.033,0.932-1.033,1.698,0,2.297c0.766,0.5,2.514,1.116,5.245,1.849
	c-2.031,5.195-3.164,8.259-3.396,9.191c-0.366,1.332-0.433,2.132-0.2,2.397l3.297,0.2l7.692-1.448l0.6,11.488
	c0.133,1.499,0.45,2.348,0.949,2.548c0.702,0.299,2.599-0.379,5.667-2.013c0.669,2.959,1.826,6.145,3.474,9.556
	c2.464,5.161,4.962,7.776,7.493,7.843c2.464,0.066,5.145-2.814,8.042-8.643c2.241-4.539,3.667-8.608,4.281-12.207
	c2.682,2.751,4.724,4.563,6.109,5.414c0.966,0.566,1.599,0.832,1.898,0.799c0.333-0.1,0.732-0.699,1.199-1.798
	c0.699-1.765,1.415-5.578,2.148-11.439l3.996,0.5l2.248,0.149c1.532-0.133,1.948-1.016,1.249-2.647
	c-0.633-1.698-2.165-4.562-4.596-8.592c1.732-1.831,3.097-4.13,4.096-6.894c0.933-2.498,1.399-4.945,1.399-7.343
	c0-2.831-0.5-5.661-1.499-8.491c-0.7-1.965-1.465-3.564-2.298-4.796c1.225-3.186,3.157-9.662,5.79-19.411
	c5.069,2.239,10.927,4.225,17.574,5.956c1.495,0.643,2.87,1.207,4.124,1.691c2.689,3.063,6.29,5.92,10.826,8.566
	c4.653,2.72,9.611,4.788,14.868,6.219c-1.452,1.38-2.928,3.116-4.428,5.221c-4.934,6.912-8.208,15.196-9.853,24.829
	c-1.251,1.992-2.43,4.284-3.535,6.891c-1.698,3.996-2.215,6.327-1.549,6.993c0.469,0.469,1.624,0.322,3.441-0.42
	c-0.229,2.839-0.096,6.157,0.406,9.961c0.5,3.862,1.166,6.927,1.998,9.191c0.399,1.065,0.849,1.648,1.349,1.748
	c0.5,0.101,1.149-0.267,1.948-1.099c1.432-1.465,3.063-3.514,4.895-6.145c0.837-1.207,1.567-2.324,2.202-3.359l0.646,1.162
	c0.966,1.664,1.832,2.947,2.597,3.846c0.833,0.999,1.465,1.516,1.898,1.549c0.633,0.033,1.299-0.633,1.998-1.998
	c1-1.932,2.148-5.412,3.447-10.44c0.199-0.699,0.533-1.282,0.999-1.748c6.561-7.16,9.841-16.701,9.841-28.623
	c0-0.94-0.022-1.845-0.059-2.729c0.915-1.494,1.602-3.528,2.057-6.112c0.442-2.315,0.58-4.409,0.434-6.298
	c1.373-0.031,2.731-0.09,4.063-0.196c0.789-0.061,1.57-0.148,2.347-0.25c0.785,2.201,2.342,4.202,4.696,5.994
	c4.684,3.611,10.993,3.971,18.919,1.1c0.206,0.248,0.413,0.495,0.642,0.735l1.719,4.259c1.565,3.564,2.697,5.346,3.396,5.346
	c0.301,0,0.533-0.084,0.699-0.25c0.268-0.3,0.483-0.899,0.65-1.799c2.73,6.128,4.879,9.125,6.443,8.992l0.899-0.75
	c0.382-0.627,0.798-1.709,1.246-3.23l2.351,2.981l5.694,7.393c3.763,5.128,6.11,8.126,7.044,8.991
	c0.499,0.434,0.948,0.633,1.348,0.6c0.5-0.066,0.783-0.6,0.85-1.598c0.1-1.199,0.033-3.064-0.199-5.596l-0.143-1.45
	c0.793,0.968,1.688,2.033,2.689,3.198c3.264,3.83,5.777,6.411,7.543,7.743l1.948,1.149c0.599,0,1.032-0.8,1.299-2.398
	c0.466-2.996,0.532-6.71,0.2-11.139c-0.207-2.831-0.466-5.059-0.777-6.688l1.026-0.106c2.132-0.466,3.28-1.183,3.446-2.147
	c0.177-1.208-2.127-3.748-6.902-7.615c-1.373-3.106-3.104-6.148-5.235-9.119c-2.397-3.297-4.813-5.878-7.243-7.742
	c-4.463-3.364-9.458-5.645-14.986-6.844c-5.328-1.133-9.607-0.966-12.838,0.499c-1.844,0.813-3.231,1.938-4.173,3.368l-0.272,0.179
	c-1.765,1.532-3.797,2.78-6.094,3.747c-2.492,1.047-4.602,0.982-6.329-0.19c4.119-1.561,8.028-3.774,11.724-6.653
	c3.896-3.047,7.026-6.417,9.396-10.109c4.835-1.104,9.551-3.23,14.148-6.38c0.141,2.824,0.983,5.624,2.53,8.396
	c1.998,3.597,4.845,6.394,8.542,8.392c0.5,3.297,0.949,5.545,1.349,6.744c0.233,0.699,0.517,1.099,0.849,1.199l1.199-0.2
	l1.964-1.586c1.295,2.929,2.864,5.481,4.729,7.63c2.132,2.498,3.93,3.613,5.396,3.348c0.666-0.101,1.298-0.4,1.897-0.9
	c0.302-0.247,0.568-0.54,0.814-0.86c3.076,4.761,7.606,8.536,13.622,11.301l1.399,4.347c1.064,2.896,1.965,4.412,2.697,4.545
	c0.898,0.2,2.747-1.281,5.545-4.445c4.195,4.462,6.676,6.609,7.442,6.443c0.095-0.016,0.193-0.066,0.294-0.143
	c1.242,2.157,2.925,4.239,5.102,6.236c2.697,2.465,4.861,3.514,6.493,3.147c1.998-0.433,3.53-3.829,4.596-10.19
	c0.797-4.781,1.094-8.419,0.897-10.924c0.926,0.254,1.648,0.418,2.149,0.484l1.349-0.1c0.3-0.2,0.45-0.75,0.45-1.648
	c0-1.332-0.283-3.431-0.85-6.295l7.144-0.6c0.599-0.166,0.966-0.398,1.099-0.699C314.8,183.914,314.7,183.447,314.4,182.814z
	 M216.644,145.85c0.072-0.335,0.128-0.664,0.181-0.991c1.834-2.03,2.966-4.358,3.404-6.983c2.941-3.932,5.355-8.152,7.232-12.666
	l1.314,3.567c-1.802,4.264-3.367,7.52-4.689,9.73c-2.313,3.814-4.85,6.497-7.613,8.056
	C216.53,146.325,216.593,146.095,216.644,145.85z M219.74,110.084c-0.558,4.489-1.472,8.868-2.701,13.15
	c-0.476-0.883-0.999-1.761-1.571-2.635c0.246-3.568-0.106-7.091-1.072-10.565c-0.296-1.044-0.635-2.01-0.996-2.934
	c1.888-3.584,3.403-6.741,4.55-9.473l2.196,6.757L219.74,110.084z M74.779,130.515l2.12-3.071c1.276,2.169,2.816,4.292,4.621,6.367
	c-0.808,1.259-1.591,2.509-2.345,3.747c-3.896,6.36-7.909,13.754-12.039,22.179c-2.098,0.079-4.163,0.514-6.198,1.271
	c0.756-2.009,1.127-4.395,1.103-7.166c-0.034-1.998-0.233-3.846-0.6-5.545C64.272,145.301,68.718,139.373,74.779,130.515z"/>
</svg>
