<?xml version="1.0" encoding="utf-8"?>
<!-- Generator: Adobe Illustrator 16.0.0, SVG Export Plug-In . SVG Version: 6.00 Build 0)  -->
<!DOCTYPE svg PUBLIC "-//W3C//DTD SVG 1.1//EN" "http://www.w3.org/Graphics/SVG/1.1/DTD/svg11.dtd">
<svg version="1.1" id="图层_1" xmlns="http://www.w3.org/2000/svg" xmlns:xlink="http://www.w3.org/1999/xlink" x="0px" y="0px"
	 width="170px" height="205px" viewBox="0 0 170 205" enable-background="new 0 0 170 205" xml:space="preserve">
<path d="M168.709,131.992l-8.525-7.511l-6.467-5.503c0.084-0.854,0.184-1.701,0.246-2.563c0.543-7.504,0.248-15.046-0.838-22.625
	c1.598-1.331,3.972-3.593,7.151-6.821c3.472-3.502,5.653-5.822,6.544-6.958c0.584-0.768,0.829-1.275,0.736-1.521
	c-0.092-0.307-0.66-0.66-1.705-1.06c-2.027-0.86-5.821-2.028-11.382-3.502l-6.597-1.708c-2.401-6.886-5.448-13.338-9.143-19.355
	l3.85-5.757c2.766-4.362,4.547-7.527,5.346-9.493c0.369-0.891,0.461-1.475,0.277-1.751c-0.216-0.276-0.938-0.461-2.166-0.553
	l-4.332-0.092h-4.746l-11.824,0.794c-1.172-1.073-2.379-2.086-3.615-3.052l1.107-8.295c0.061-0.891-0.093-1.398-0.461-1.521
	c-0.277-0.123-0.783-0.015-1.521,0.323c-1.167,0.492-2.842,1.306-5.022,2.442l-1.645,0.871l-1.996-11.977l-1.337-6.544l-1.428-6.175
	c-0.308-1.014-0.661-1.582-1.061-1.705c-0.43-0.123-1.014,0.184-1.751,0.921c-1.26,1.229-4.209,4.563-8.849,10l-5.16,6.406
	c-1.059,1.329-1.913,2.407-2.582,3.258c-4.818-0.268-9.66,0.121-14.522,1.161c-4.512-3.328-7.839-5.548-9.947-6.631
	c-0.86-0.399-1.444-0.553-1.751-0.461c-0.43,0.092-0.676,0.63-0.737,1.613c-0.066,0.604-0.09,1.491-0.077,2.627l-2.043-1.383
	c-1.782-1.168-3.134-1.966-4.056-2.396l-1.152-0.369c-0.307,0.062-0.522,0.43-0.645,1.106c-0.324,2.263-0.421,7.021-0.295,14.262
	c-7.038,4.242-13.765,9.791-20.182,16.644l-2.519-0.537c-5.622-1.075-9.724-1.69-12.304-1.843c-1.29-0.062-2.058,0.107-2.304,0.507
	c-0.184,0.276-0.153,0.937,0.092,1.981c0.614,2.335,2.135,6.16,4.562,11.475c0.445,0.974,0.862,1.871,1.261,2.719
	c-6.321,9.338-11.02,19.107-14.079,29.309l-7.459,0.46c-0.983,0.184-1.521,0.491-1.613,0.921c-0.092,0.307,0.062,0.83,0.461,1.567
	c0.891,1.728,2.851,4.643,5.875,8.742c-1.215,7.338-1.583,14.595-1.083,21.765c0.361,5.566,1.364,10.941,2.998,16.128
	c-0.554,0.979-1.429,2.561-2.629,4.747l-3.318,6.451c-0.492,1.015-0.676,1.645-0.553,1.891c0.123,0.245,0.676,0.383,1.659,0.414
	l10.209-0.979c2.264,4.074,4.939,7.845,8.039,11.302c1.512,1.655,2.656,2.873,3.448,3.672c-0.621,1.614-1.292,3.56-2.019,5.867
	c-1.505,4.916-2.412,8.664-2.719,11.244c-0.123,1.015-0.062,1.645,0.184,1.891l1.659,0.23c3.226-0.216,7.358-0.984,12.396-2.305
	c4.801-1.265,8.298-2.602,10.511-4.009c0.552,0.246,1.106,0.489,1.667,0.726c0.065,1.179,0.275,3.682,0.633,7.522
	c0.553,5.899,1.09,9.985,1.613,12.259c0.276,1.137,0.553,1.781,0.83,1.936c0.338,0.184,1.014-0.031,2.027-0.646
	c0.891-0.554,4.025-3.134,9.401-7.742l7.767-6.87c8.827,1.34,17.491,1.414,25.998,0.263c0.053,0.098,0.097,0.2,0.153,0.294
	c1.044,1.844,3.686,4.531,7.926,8.064c3.963,3.287,7.219,5.653,9.77,7.098l1.981,0.875c0.522-0.031,0.921-0.737,1.198-2.12
	c0.614-3.041,1.229-7.112,1.844-12.212c0.654-5.354,0.882-8.771,0.691-10.295c10.935-6.328,19.511-15.686,25.713-28.092
	c1.313-2.627,2.488-5.306,3.539-8.032l9.181-3.812l11.29-4.931c0.922-0.553,1.414-0.999,1.475-1.337
	C169.893,133.422,169.508,132.854,168.709,131.992z"/>
</svg>
