<?xml version="1.0" encoding="utf-8"?>
<!-- Generator: Adobe Illustrator 16.0.0, SVG Export Plug-In . SVG Version: 6.00 Build 0)  -->
<!DOCTYPE svg PUBLIC "-//W3C//DTD SVG 1.1//EN" "http://www.w3.org/Graphics/SVG/1.1/DTD/svg11.dtd">
<svg version="1.1" id="图层_1" xmlns="http://www.w3.org/2000/svg" xmlns:xlink="http://www.w3.org/1999/xlink" x="0px" y="0px"
	 width="630px" height="423px" viewBox="0 0 630 423" enable-background="new 0 0 630 423" xml:space="preserve">
<path d="M627,157.087c-0.867-4.667-1.9-8.452-3.101-11.353c-0.589-1.461-1.209-2.622-1.859-3.49
	c1.937-5.948,2.905-11.608,2.859-16.965c-0.134-9.735-4.635-17.804-13.503-24.206c-7.755-5.566-17.035-8.828-27.832-9.799
	c-0.343-1.103-0.867-2.189-1.625-3.254l-7.603-9.952c-4.101-5.135-7.201-8.735-9.302-10.803c-1.134-1.1-1.95-1.634-2.451-1.601
	c-0.7,0-1.267,0.851-1.7,2.551c-1.134,4.601-1.9,12.887-2.301,24.856c-0.003,0.465,0.023,0.905,0.05,1.343
	c-7.305,2.635-13.708,6.722-19.209,12.258c-19.745-10.871-39.697-17.496-59.859-19.853c-20.538-2.434-40.359-0.383-59.464,6.151
	c-27.106,9.302-45.944,29.857-56.514,61.665c-4.134,12.369-6.602,25.473-7.401,39.309c-0.409,6.414-0.437,12.442-0.106,18.108
	c-9.215-1.155-18.257-1.52-27.124-1.097c-1.578-2.34-3.676-5.296-6.328-8.909c-0.154-0.208-0.298-0.399-0.45-0.604
	c-7.244-50.301-4.297-88.232,8.853-113.773c2.773-5.381,5.924-10.098,9.43-14.188c1.568,1.912,3.229,3.661,4.985,5.245
	c-0.004,0.031-0.008,0.06-0.012,0.091c-0.5,3.901-0.8,7.418-0.9,10.553c-0.033,1.333,0.117,2.167,0.45,2.5
	c0.061,0.061,0.13,0.109,0.206,0.148l-0.006,0.052l0.049-0.035c0.56,0.25,1.508-0.036,2.852-0.865l7.821-5.398
	c5.886,2.787,12.343,4.198,19.386,4.198c10.831,0,20.256-3.299,28.282-9.875l5.275,1.573c1.4,0.3,2.268,0.3,2.601,0
	c0.3-0.267,0.351-1.067,0.15-2.4l-1.399-5.822c3.329-4.141,5.97-8.697,7.9-13.683c1.935-5.101,2.901-10.002,2.901-14.703
	c0-5.635-1.384-11.453-4.151-17.454c-2.763-5.996-6.498-11.154-11.183-15.495c0.167-1.787,0.262-3.379,0.28-4.76
	c0.033-1.434-0.233-2.268-0.801-2.501c-0.533-0.267-1.517-0.033-2.95,0.7c-0.882,0.466-1.854,1.034-2.869,1.653
	C392.118,2.539,384.106,0.2,375.29,0.2c-8.636,0-16.404,2.117-23.306,6.352c-5.866,3.597-10.763,8.45-14.707,14.536l-6.098-0.833
	c-1.634-0.033-2.567,0.233-2.801,0.8c-0.167,0.367,0.017,1.2,0.55,2.5c0.711,1.887,1.903,4.327,3.563,7.305
	c-1.834,4.899-2.763,9.634-2.763,14.2c0,3.796,0.624,7.717,1.864,11.761c-5.527,5.172-10.355,11.197-14.467,18.096
	c-9.536,16.037-15.003,36.592-16.404,61.665c-0.814,14.979-0.066,32.859,2.237,53.625c-1.5,3.507-3.178,8.012-5.038,13.541
	c-2.035,6.05-3.404,10.693-4.122,13.963c-6.181,2.301-12.656,5.139-19.426,8.517c-8.026-33.868-24.979-58.569-50.871-74.092
	c-17.704-10.669-37.742-16.287-60.114-16.854c-20.305-0.5-40.376,4.368-60.214,14.604c-12.48,6.403-23.795,14.322-33.963,23.735
	c-5.24-2.846-10.897-4.754-16.975-5.719c-0.358-0.767-0.81-1.584-1.375-2.462L39.86,150.585l-6.151-7.052
	c-1.167-1.233-1.967-1.833-2.4-1.8c-0.5,0.067-0.984,0.983-1.451,2.75c-1.282,4.552-2.518,12.997-3.707,25.313
	c-3.558,1.096-6.963,2.449-10.196,4.094c-3.267,1.667-6.068,3.434-8.402,5.301c-5.468,4.101-7.602,8.952-6.401,14.553
	c0.797,3.456,2.239,7.149,4.319,11.076c-0.516,1.316-1.105,2.906-1.769,4.778c-1.567,4.201-2.684,7.619-3.351,10.252
	c-0.4,1.635-0.45,2.617-0.15,2.951l2.601,0.2c1.549-0.193,3.641-0.662,6.259-1.397c-0.02,0.051-0.039,0.095-0.058,0.146
	c-1.833,4.936-2.384,7.919-1.65,8.953c0.5,0.699,2.784,0.533,6.852-0.5c3.39-0.895,6.168-1.977,8.357-3.243
	c3.102,3.113,6.38,6.081,9.848,8.894c2.781,2.241,5.67,4.347,8.645,6.344c-0.306,1.656-0.521,3.805-0.643,6.459
	c-0.233,4.368-0.067,6.719,0.5,7.053c1.217,0.76,4.341-0.818,9.361-4.722c-0.52,3.263-0.808,5.857-0.859,7.772
	c-0.066,1.4,0.033,2.233,0.3,2.5c0.333,0.301,1.25,0.167,2.75-0.4c2.601-1.033,6.018-2.816,10.252-5.351l1.651-1.057
	c6.976,2.598,12.671,3.68,17.054,3.207c2.867-0.3,5.185-1.2,6.952-2.7c1.667-1.468,3.267-3.852,4.801-7.152
	c1.633-3.367,3.034-7.269,4.201-11.703c0.948-3.791,1.515-7.201,1.745-10.274c3.563-1.776,7.761-4.033,12.608-6.779
	c7.102-4.101,10.652-6.685,10.652-7.752c0-1.167-4.251-3.134-12.753-5.901c-6.835-2.2-11.736-3.601-14.704-4.201
	c-0.269-0.062-0.523-0.093-0.784-0.137c-2.74-6.129-6.274-11.559-10.635-16.262c8.543-7.589,17.995-13.968,28.374-19.11
	c16.704-8.202,33.691-12.103,50.962-11.703c19.205,0.533,36.208,5.234,51.012,14.104c22.826,13.676,37.666,35.986,44.555,66.889
	c-4.498,2.676-8.881,5.392-13.155,8.146l-2.894-1.717c-3.101-1.767-4.901-2.551-5.401-2.351c-0.7,0.267-1.234,1.533-1.601,3.801
	c-0.354,1.964-0.516,4.37-0.492,7.204c-9.44,6.614-18.38,14.061-26.821,22.342c-2.804-0.604-7.015-1.367-12.647-2.29
	c-7.602-1.199-12.653-1.833-15.154-1.9c-2.167-0.133-3.434,0.201-3.801,1.001c-0.233,0.601,0.05,1.784,0.85,3.551
	c0.7,1.501,3.084,5.484,7.152,11.952c2.271,3.628,4.125,6.52,5.588,8.726c-6.415,9.468-9.546,17.712-9.389,24.733
	c0.16,12.301,4.728,23.531,13.675,33.697c-0.934,1.606-2.407,4.923-4.423,9.963c-2.667,6.602-4.384,11.703-5.151,15.304
	c-0.667,3.134,0.533,4.301,3.601,3.501c4.167-1.067,9.719-3.068,16.654-6.002c5.197-2.248,8.743-4.016,10.653-5.31
	c7.917,4.899,17.305,9.539,28.207,13.911c12.364,5.004,24.287,8.873,35.775,11.625c0.77,3.597,1.531,6.496,2.284,8.681
	c0.6,1.8,1.15,2.817,1.65,3.051c0.733,0.333,1.984-0.167,3.751-1.501c2.235-1.738,4.83-4.034,7.773-6.868
	c0.923,10.769,2.099,18.017,3.529,21.722c0.567,1.468,1.083,2.301,1.55,2.501c0.667,0.233,1.734-0.283,3.201-1.55
	c3.852-3.363,9.547-10.428,17.075-21.173c2.033-0.024,4.063-0.076,6.081-0.183c7.835-0.4,16.888-1.551,27.156-3.451
	c5.479-1.014,11.199-2.486,17.136-4.362l9.021,7.363c7.035,5.602,12.153,9.235,15.354,10.902c1.2,0.601,2.001,0.851,2.4,0.75
	c0.667-0.199,1.15-1.267,1.451-3.2c0.816-5.032,0.653-14.013-0.482-26.922c12.172-5.813,23.353-12.241,33.541-19.286l2.699-0.203
	c5.802-0.567,10.152-1.2,13.054-1.9c1.934-0.434,2.983-1.034,3.15-1.801c0.134-0.601-0.267-1.583-1.2-2.95
	c-0.927-1.292-2.114-2.798-3.559-4.517c9.959-9.555,18.075-20.045,24.313-31.492c3.984-7.339,6.636-14.192,7.982-20.57l5.021-3.485
	c3.968-2.9,6.685-5.219,8.152-6.951c0.9-1.067,1.333-1.852,1.3-2.352c-0.1-0.733-0.934-1.483-2.5-2.25
	c-3.759-1.706-7.921-3.242-12.458-4.618c-2.796-8.342-10.16-17.005-22.101-25.989c-4.24-3.183-8.916-6.29-14.01-9.326
	c1.706-6.316,2.864-11.307,3.457-14.93c0.267-1.566,0.233-2.551-0.1-2.951l-3.401-0.25c-3,0.467-7.901,1.734-14.703,3.801
	c-3.962,1.156-6.679,1.975-8.165,2.457c-6.211-2.824-12.835-5.578-19.892-8.258c-8.483-3.165-16.814-5.692-24.998-7.596
	c-0.355-5.076-0.379-10.656-0.058-16.76c0.7-11.869,2.65-23.122,5.852-33.758c8.468-28.173,23.655-46.028,45.561-53.563
	c31.746-10.888,66.316-7.765,103.708,9.347c-2.541,4.699-4.411,9.702-5.647,14.992c-1.467,0.017-3.154,0.216-5.089,0.617
	l-10.152,2.5c-5.501,1.5-9.452,2.868-11.853,4.101c-1.334,0.7-1.967,1.351-1.9,1.951c0.033,0.367,0.5,0.917,1.4,1.65
	c1.566,1.333,5.352,3.667,11.353,7.001c5.234,2.934,8.886,4.868,10.952,5.801c1.998,0.911,3.748,1.355,5.28,1.385
	c2.213,10.754,6.75,19.398,13.625,25.921c6.935,6.568,14.804,9.686,23.605,9.352c3.896-0.154,7.939-0.952,12.126-2.369
	c0.046,0.037,0.079,0.083,0.127,0.119c1.434,1.067,4.851,2.117,10.252,3.151s9.536,1.434,12.403,1.2c1.2-0.066,1.934-0.434,2.2-1.1
	c0.301-0.6,0.167-1.617-0.4-3.051c-0.566-1.5-1.767-3.834-3.601-7.001c-0.729-1.245-1.413-2.371-2.053-3.379
	c4.803-3.459,9.195-7.377,13.155-11.775c3.058-3.332,5.823-6.976,8.317-10.911c1.579,0.676,3.386,1.362,5.437,2.059
	c5.301,1.767,8.269,2.3,8.902,1.6C628.017,163.855,627.8,161.455,627,157.087z"/>
</svg>
