<?xml version="1.0" encoding="utf-8"?>
<!-- Generator: Adobe Illustrator 16.0.0, SVG Export Plug-In . SVG Version: 6.00 Build 0)  -->
<!DOCTYPE svg PUBLIC "-//W3C//DTD SVG 1.1//EN" "http://www.w3.org/Graphics/SVG/1.1/DTD/svg11.dtd">
<svg version="1.1" id="图层_1" xmlns="http://www.w3.org/2000/svg" xmlns:xlink="http://www.w3.org/1999/xlink" x="0px" y="0px"
	 width="157px" height="146px" viewBox="0 0 157 146" enable-background="new 0 0 157 146" xml:space="preserve">
<path d="M157,61.778c-0.4-1.636-1.486-4.208-3.256-7.714l-2.705-4.91c-1.069-0.701-3.391-1.854-6.964-3.457
	c-3.306-1.436-5.394-2.288-6.262-2.555c-0.046-0.012-0.089,0.023-0.131,0.078l-0.17-0.028c-4.386,2.674-7.854,4.809-10.445,6.429
	l-1.427-7.18l-1.754-8.266l-0.2-0.25l-4.709-2.405c-3.641-1.77-6.713-2.989-9.218-3.657c-0.017-0.004-0.035,0.01-0.052,0.015
	c-0.08-0.039-0.162-0.065-0.249-0.065l-6.662,1.403l-6.863,1.653l-0.301,0.4l-0.752,7.565c-0.533,5.276-0.818,8.533-0.852,9.769
	c-0.274,0.188-0.545,0.387-0.816,0.583c-1.36-10.44-2.224-15.864-2.59-16.263l-6.111-3.907c-3.808-2.305-5.979-3.557-6.513-3.757
	c-0.019-0.009-0.04,0.001-0.06,0.003c-0.05-0.014-0.085-0.048-0.141-0.054l-6.112,1.704l-0.216,0.067l-1.438-0.969
	c1.47-7.715,2.221-12.507,2.254-14.377l-0.15-0.902l-0.751-0.852c-1.002-0.835-3.156-2.288-6.462-4.358l-6.009-3.426l-0.002-0.03
	c-1.47-0.534-3.59-1.002-6.362-1.403l-7.564-0.651l-0.501,0.3L41.58,7.425c-1.57,4.041-2.455,6.512-2.655,7.414
	c-2.304,0.534-4.308,1.286-6.011,2.254c-1.425,0.789-2.89,1.853-4.393,3.185c-6.518-3.309-10.359-5.066-11.517-5.267
	c-0.222-0.078-0.414-0.055-0.572,0.078c-0.401,0.367-1.954,2.288-4.659,5.761c-2.705,3.54-4.058,5.427-4.058,5.661
	c0,0.668,0.885,2.922,2.655,6.763l3.256,6.613c-0.701,1.57-1.419,3.707-2.154,6.412c-0.968,3.574-1.603,7.014-1.903,10.32
	L5.21,59.474L0.701,62.58L0.15,63.231C0.05,63.398,0,63.682,0,64.083c0,1.169,0.234,3.774,0.701,7.815
	c0.501,4.241,0.885,6.747,1.152,7.514l0.301,0.501h0.06c0.705,0.672,3.197,1.755,7.504,3.257c3.352,1.145,5.698,1.858,7.07,2.158
	c0.661,0.968,1.341,1.843,2.047,2.601c-1.636,8.75-2.471,13.676-2.505,14.778c0,0.204,0.076,0.383,0.188,0.55
	c-0.016,0.046-0.015,0.082,0.013,0.101c0.057,0.041,0.123,0.08,0.181,0.121c0.028,0.025,0.039,0.056,0.07,0.08
	c0.136,0.089,0.292,0.183,0.467,0.279c3.387,2.259,8.211,4.388,14.511,6.383c5.243,1.637,9.051,2.555,11.422,2.756h0.601l0.351-0.4
	l3.206-6.463l3.056-6.513L54.554,99c1.387-0.354,2.374-0.777,3.004-1.263l0.049,0.028c0.002,0.01-0.003,0.023,0.002,0.031
	c0.268,0.401,2.154,1.286,5.661,2.656l6.011,2.254l0.433-0.052l-6.444,7.065c-0.134,0.133-0.167,0.283-0.1,0.45
	c0.501,2.237,1.569,5.126,3.206,8.667l2.254,4.658c0.059,0.139,0.156,0.207,0.273,0.241c1.712,0.989,4.607,2.011,8.693,3.065
	l5.71,1.252l7.291-3.505c0.859,0.322,1.732,0.601,2.629,0.8c0,3.507,0.283,8.75,0.852,15.73l0.1,0.351l0.023,0.003
	c0.009,0.016,0.01,0.038,0.027,0.047c2.438,1.27,7.047,2.772,13.826,4.509c5.711-0.435,10.754-1.151,15.129-2.153l0.351-0.352
	l2.153-16.781c4.609-3.273,8.232-6.646,10.871-10.12l13.176,1.903c0.2,0.034,0.351-0.033,0.451-0.199
	c1.469-2.271,3.707-7.85,6.713-16.732l0.049-0.351l-0.3-0.351c-0.901-0.802-4.442-3.223-10.62-7.264
	c0.668-2.973,1.002-6.63,1.002-10.972c0-3.808-0.184-6.379-0.551-7.714c2.904-2.973,6.395-7.214,10.469-12.725L157,61.778z
	 M84.262,57.671l-2.822-0.433c3.283-1.985,5.864-3.576,7.756-4.778C87.482,54.029,85.837,55.763,84.262,57.671z"/>
</svg>
