<?xml version="1.0" encoding="utf-8"?>
<!-- Generator: Adobe Illustrator 16.0.0, SVG Export Plug-In . SVG Version: 6.00 Build 0)  -->
<!DOCTYPE svg PUBLIC "-//W3C//DTD SVG 1.1//EN" "http://www.w3.org/Graphics/SVG/1.1/DTD/svg11.dtd">
<svg version="1.1" id="图层_1" xmlns="http://www.w3.org/2000/svg" xmlns:xlink="http://www.w3.org/1999/xlink" x="0px" y="0px"
	 width="362px" height="354px" viewBox="0 0 362 354" enable-background="new 0 0 362 354" xml:space="preserve">
<path d="M359.274,153.906c-1.699-11.13-3.115-18.146-4.249-21.044l-5.998-7.748c-4.398-5.532-8.099-10.88-11.098-16.045
	l-14.596-25.743c-6.998-12.096-11.663-19.244-13.996-21.444c-0.4-0.4-1.366-0.733-2.898-1l-4-0.55
	c-3.398-0.4-6.73-1.116-9.996-2.149l-11.098-5.499c-6.798-3.499-10.681-5.398-11.646-5.698l-4.098-0.85
	c-2.066-0.4-3.232-0.716-3.5-0.95l-7.797-7.548l-8.148-7.848c-1.266-1.167-2.648-2.099-4.148-2.799
	c-1.766-0.833-3.383-1.133-4.849-0.899c-1.333,0.233-2.449,1-3.349,2.299c-1.201,1.733-1.533,3.766-1,6.098
	c0.434,1.933,1.35,3.766,2.748,5.499c3.5,4.397,6.282,8.23,8.349,11.497c1.899,2.966,2.882,4.949,2.948,5.948
	c0.102,1.833-0.332,6.032-1.299,12.597c-1.066,7.198-2.399,14.379-4,21.544c-1.731,7.731-3.582,15.229-5.548,22.494
	c-1.866,6.865-3.216,11.28-4.049,13.246c-4.698,5.898-10.364,11.38-16.996,16.445l-12.146,8.797l-7.998,5.299l-4.648-0.1
	c-1.6,0.267-2.682,0.6-3.248,1c-0.912,0.699-1.99,2.799-3.236,6.27c-0.356,0.021-0.728,0.053-1.112,0.097
	c-2.375-4.604-4.608-10.139-6.698-16.613c-2.199-6.865-3.532-12.396-3.999-16.595c-0.206-1.97-0.307-5.188-0.302-9.652
	c0.035-0.017,0.068-0.028,0.103-0.045c1.799-0.866,3.182-1.366,4.149-1.5l5.548-0.65c2.133-0.367,3.565-0.966,4.299-1.799
	c1.399-1.7,2.166-3.416,2.3-5.148c2.267-2.666,4.282-5.882,6.049-9.647c1.799-3.766,2.699-6.665,2.699-8.698
	c0-1-0.468-1.866-1.4-2.599l-2.049-1.45c-0.467-0.4-1.066-1.283-1.799-2.649l-1.802-4.149l-3.799-10.747
	c0.134-2.199,0.084-4.315-0.149-6.348l-0.351-2.399l0.95-3.399l0.601-2.649c0.066-0.966-0.032-2.083-0.301-3.349
	c-0.231-1.133-1.101-3.082-2.601-5.848l-3.647-6.698c-2.099-4.065-3.632-7.848-4.599-11.347l-2.699-12.347l-2.699-12.646
	c-0.4-1.733-1.25-3.216-2.549-4.449c-1.401-1.302-2.9-1.852-4.5-1.652c-1.6,0.233-2.916,1.2-3.949,2.899
	c-0.933,1.533-1.366,3.065-1.299,4.599l0.8,10.597l0.2,5.948l-0.05,6.798c0,2.333-0.65,4.199-1.95,5.599
	c-0.833,0.866-2.116,1.666-3.849,2.399c-1.2,0.533-2.849,0.85-4.949,0.95c-2.033,0.066-3.482-0.1-4.349-0.5
	c-1.366-0.6-3.716-2.383-7.048-5.349l-8.397-8.348l-8.998-8.947c-1.6-1.533-3.666-2.25-6.198-2.149
	c-2.166,0.066-3.782,0.55-4.849,1.45c-1.166,0.933-1.816,2.399-1.949,4.398c-0.167,2.2,0.4,4.116,1.699,5.749l5.849,6.398
	c3.299,3.632,5.582,6.564,6.848,8.797c1.699,2.999,3.249,6.332,4.648,9.997c1.6,4.132,2.399,7.165,2.399,9.097
	c0,2.866-0.55,6.648-1.649,11.347c-1.233,4.999-1.85,8.031-1.85,9.097c0,0.767,0.417,2,1.25,3.699l2.1,3.849l2.699,3.499
	l2.699,3.099l0.391,0.078l1.409,6.27c2.233,11.897,3.083,21.611,2.549,29.142c-0.882,11.686-2.597,22.086-5.136,31.217l-1.312,0.074
	l-2.199,0.9c-3.199-3.266-6.015-6.682-8.448-10.247c-1.799-2.699-3.149-4.849-4.049-6.448c-1.233-2.233-2.266-4.549-3.099-6.948
	c-0.6-1.766-1.366-5.698-2.299-11.796c-0.433-3.466-1.166-5.949-2.199-7.448l-6.848-7.748l-7.398-8.348
	c-1.366-1.666-2.999-4.999-4.898-9.997c-1.866-4.832-3.066-8.781-3.599-11.847c-0.866-4.699-1.3-9.214-1.3-13.546
	c0-3.866,0.3-6.215,0.9-7.048l14.546-16.096c1.3-1.433,2-3.049,2.1-4.849c0.066-1.599-0.333-2.899-1.2-3.899
	c-1.167-1.333-2.933-1.816-5.299-1.449c-2.266,0.366-4.648,1.449-7.148,3.249l-12.796,9.747L63.46,57.582
	c-0.3,0.233-1.133,0.667-2.499,1.3l-3.199,1.45c-3.565,1.6-6.165,3.065-7.798,4.398c-1.966,1.6-6.865,6.948-14.696,16.046
	c-7.931,9.23-12.463,14.862-13.596,16.895c-0.866,1.533-2.716,6.148-5.548,13.846c-3.033,8.231-5.232,14.746-6.598,19.544
	c-1.566,5.465-3.316,12.363-5.249,20.694c-2.066,8.864-3.399,15.346-3.999,19.445c-0.133,0.633-0.133,2.499,0,5.598
	c0.2,4.599,0.65,10.864,1.35,18.795l0.05,0.3c0.167,1.967,0.8,3.467,1.899,4.5c0.866,0.832,1.85,1.248,2.949,1.248
	c1.166,0,2.166-0.648,2.999-1.949c0.8-1.266,1.2-2.731,1.2-4.397l-0.3-3.249c-0.167-2.033-0.167-3.749,0-5.148
	c4.499-5.433,9.831-10.446,15.995-15.045c5.081-3.814,10.042-6.723,14.889-8.748c-0.063,0.268-0.111,0.529-0.143,0.783
	c-1.559,2.515-2.349,4.854-2.349,7.015c0,2.557,0.718,4.622,2.136,6.206C40.493,177.674,40,178.3,39.467,179
	c-2.333,3.031-3.549,5.215-3.649,6.547c-0.167,1.967,0.333,3.616,1.5,4.949l0.178,0.127c0.166,0.87,0.497,1.697,1.021,2.473
	c0.867,1.232,2.033,2.082,3.499,2.549l4.099,0.551c3.632,0.199,5.832-0.483,6.598-2.051l0.324-0.67
	c0.811,0.92,1.57,1.582,2.275,1.971c1.666,0.967,3.199,1.416,4.599,1.351c1-0.032,2.116-0.399,3.349-1.101
	c3.899,3.365,7.698,6.164,11.396,8.396c5.965,3.566,11.047,5.199,15.246,4.898c1.833-0.166,4.332-1.082,7.498-2.748l2.899-1.75
	l3.399-1.799l7.998-3.851l4.051-2.024c-5.258,10.103-8.864,19.66-10.799,28.668c-0.558,2.599-0.965,5.154-1.255,7.676
	c-7.018,6.113-12.247,12.088-15.64,17.917c-5.465,9.331-7.714,17.312-6.748,23.942c0.533,3.533,2.533,7.631,5.998,12.297
	c0.9,1.199,2.133,2.416,3.699,3.648l2.949,2.199l-0.5,2.3l-2.299,2.8c-1.633,1.698-3.316,3.148-5.049,4.348l-6.198,3.9l-1.149,0.1
	l-0.5,0.1c-1.066,0.234-2.383,0.732-3.949,1.5c-1.866,0.9-3.599,1.949-5.199,3.148c-2.866,2.232-4.582,4.266-5.148,6.1
	c-0.014,0.046-0.02,0.081-0.033,0.125c-0.256,0.645-0.353,1.253-0.267,1.824c0.018,0.104,0.066,0.193,0.14,0.271
	c0.243,0.389,0.793,0.385,1.66-0.021c1.133-0.5,2.633-0.768,4.499-0.801l3.899,0.101c-2.233,2.065-3.866,4.349-4.899,6.849
	c-0.533,1.232-0.866,2.383-1,3.448c-0.1,0.5,0.017,0.851,0.35,1.05l0.728-0.06l0.123,0.01c0.005-0.005,0.022-0.015,0.032-0.021
	l0.967-0.079l2.199-0.949c1.033-0.399,2.116-0.699,3.249-0.899l9.098-0.449l-1.05,2.1c-0.733,1.633-1.183,3.049-1.35,4.248
	c-0.167,1.268,0.1,1.982,0.8,2.15c0.467,0.1,1.2-0.084,2.2-0.551l1.949-0.949c1.3-0.601,2.833-1.199,4.599-1.801l3.949-0.998
	l3.699-0.851c2.333,0.731,3.999,1.017,4.999,0.851c1.2-0.201,2.216-0.584,3.049-1.15l1.649-1.6l4.149-2.949
	c2.866-1.898,5.015-3.133,6.448-3.699c2.232-0.934,5.231-1.799,8.997-2.6c1-0.299,1.917-0.85,2.75-1.648
	c0.899-0.867,1.516-1.883,1.85-3.049c0.266-0.867,0.133-2.482-0.4-4.85c-0.567-2.533-1.35-4.498-2.35-5.898l3.249-2.148
	c2.1-1.566,3.532-2.482,4.299-2.75c0.066-0.021,0.141-0.037,0.208-0.058c1.414,0.829,2.863,1.608,4.343,2.344
	c2.932,2.808,6.063,5.461,9.396,7.962c13.602,10.137,28.297,16.171,44.082,18.126c-0.658,2.558-0.953,5.017-0.844,7.366
	c0.066,0.9,0.184,1.6,0.35,2.1c0.233,0.699,0.633,1.299,1.199,1.799l1.6,1.201l2.301,0.799l3.499,3.049l2.999,2.65
	c0.667,0.699,1.55,1.949,2.648,3.748l0.801,1.15c0.6,0.799,1.017,1.216,1.248,1.249c0.4,0.032,1.033-0.783,1.9-2.449
	c1.633-2.8,2.715-5.265,3.248-7.397l3.1-0.051l2.149,0.75l4.049,2.25l4.099,2.699c0.769,0.732,1.468,1.6,2.101,2.6
	c0.8,1.267,1.315,1.916,1.55,1.948c0.467,0.134,1.083-0.333,1.85-1.399c0.768-1.032,1.399-2.266,1.899-3.698
	c0.435-1.199,0.685-2.699,0.75-4.498v-2.3l3.699-0.2l3.849,1.351l3.198,1.199c0.667,0.333,1.834,1.366,3.5,3.1l0.649,0.85l1.1,0.801
	c0.667-0.066,1.3-0.768,1.898-2.1c0.468-0.801,0.768-1.833,0.9-3.1c0.232-2.365-0.234-4.85-1.4-7.447l-3.147-5.75
	c0.06-1.258-0.088-2.352-0.415-3.301c17.281-4.873,32.086-16.355,44.402-34.488c9.896-14.596,13.079-31.357,9.547-50.285
	c-2.333-12.629-7.415-25.359-15.245-38.189l1.149-0.949l1.05-1.1c0.3-1.633,0.333-2.949,0.1-3.949l-0.05-0.3l0.95-0.7l1.799-1.049
	c0.601-0.4,1.017-0.982,1.25-1.75c0.366-1.133,1.101-2.516,2.199-4.148c1.3-2.032,2.614-3.582,3.948-4.647l12.847-10.048
	l1.898-1.299c0.968-0.7,1.417-1.2,1.351-1.5c-0.033-0.167-0.649-0.167-1.85,0l-2.35,0.4c-3.933,1.466-6.998,2.732-9.197,3.799
	l0.801-0.95l0.748-1c0-0.233-1.383,0.184-4.147,1.25c-2.299,0.766-4.481,2.149-6.548,4.147c-0.7,0.666-1.649,1.866-2.85,3.6
	c-0.834,1.199-1.399,1.684-1.699,1.449c-0.434-0.367-0.25-1,0.55-1.898l1.85-1.95l1.399-1.698l0.75-1.05
	c-0.102-0.7-0.45-1.2-1.051-1.5l-1.549-0.35l-1.149-0.3l-0.949-0.3c-0.301-0.667-0.334-1.533-0.101-2.6
	c0.199-1.1,0.615-1.982,1.248-2.649c0.435-0.367,1.052-0.667,1.851-0.9c0.399-0.1,1.133-0.1,2.199,0
	c0.934-0.033,1.551-0.517,1.85-1.45c0.234-0.633,0.283-1.5,0.15-2.599l-0.3-2.049c0-0.6,0.199-1.267,0.6-2l1.1-1.5
	c0.435-0.5,0.668-0.966,0.7-1.4l-0.399-1.75l-1-0.75l-1.148-0.65c-0.493-0.559-0.791-1.053-0.895-1.482
	c4.947,0.047,9.183,0.82,12.689,2.332c3.399,1.466,10.098,6.632,20.095,15.496c7.364,6.565,14.396,13.147,21.095,19.746
	c0.333,1.365,0.5,2.864,0.5,4.498c0,2.6,0.267,4.465,0.8,5.6c0.565,1.199,1.516,1.814,2.849,1.85
	c3.033,0.066,4.767-1.949,5.199-6.049l0.149-21.844v-1.1C361.724,171.618,360.907,164.57,359.274,153.906z M51.762,191.896
	c-0.967-0.268-1.616-0.601-1.95-1l-0.498-0.782l0.547-1.117l1.961,2.92L51.762,191.896z M66.507,162.554l-3.699,1.75l-1.1-0.3
	l-0.85-0.35c-1.177-1.667-2.196-2.983-3.072-3.983c3.426,0.066,6.576,0.85,9.448,2.358C66.995,162.2,66.766,162.361,66.507,162.554z
	 M100.25,186.598c-2.366,0.998-4.865,1.832-7.498,2.498l-3.899,0.95c-2.033,0.533-6.398-2.217-13.096-8.248l-0.15-1.149l0.548-1
	l0.077-0.149c1.137,0.545,2.425,0.636,3.872,0.25c0.9-0.233,2.349-0.851,4.349-1.849c3.232-1.601,5.232-2.55,5.999-2.851
	c2.566-0.866,5.065-1.066,7.498-0.6c3.043,0.579,7.043,3.069,11.978,7.428C107.223,183.45,104.006,185.023,100.25,186.598z
	 M211.415,193.495c-0.707-0.502-1.663-1.38-2.854-2.616c2.629-5.113,4.215-7.977,4.756-8.58c0.725-0.725,1.768-1.615,3.092-2.656
	c0.515,0.256,1.16,0.523,1.955,0.808l2.9,2.448c0.232,1.066,0.198,3.148-0.101,6.248l-0.851,5.648l-3.898,0.301
	C214.48,195.029,212.814,194.495,211.415,193.495z M280.197,255.027c-6.865,11.496-15.162,18.729-24.893,21.693
	c-3.732,1.141-7.414,1.61-11.046,1.424c-0.462-8.853-2.69-17.275-6.7-25.267c-3.398-6.832-7.682-13.196-12.847-19.096l-8.099-8.548
	l-0.523-1.06c-0.746-1.991-1.527-4.042-2.375-6.188c-0.045-0.112-0.102-0.237-0.146-0.354c0.738,0.725,1.215,1.155,1.396,1.254
	c1.399,0.766,3.315,1.115,5.749,1.049c2.732-0.065,5.032-0.699,6.896-1.898c2.101-1.366,3.934-3.766,5.5-7.198
	c1.998-4.332,4.265-11.596,6.797-21.793l3.101-0.7c1.332-0.5,2.267-1.199,2.8-2.1c0.881-1.475,1.67-2.734,2.375-3.805
	c-0.055,0.373-0.107,0.746-0.177,1.154c-0.366,2.199-0.717,3.584-1.049,4.149c-0.567,0.899-0.667,1.815-0.302,2.749l1.15,2.449
	l0.25,0.75l1.1,4.248c0.9,2.399,2.082,3.416,3.55,3.05c0.433-0.101,1.601-0.716,3.498-1.851l2.448-1.05l2.052-0.198l2.049,0.85
	c0.565,0.232,0.981,0.5,1.25,0.799l0.449,1.1l0.149,1.5c-0.133,1.935,0.25,3.199,1.149,3.799l0.2,0.15
	c2.799,1.899,5.115,2.566,6.947,2c0.867-0.234,1.782-0.9,2.75-2c0.332-0.367,1.731-0.6,4.198-0.699
	c3.365,7.664,5.349,15.346,5.947,23.043C286.596,238.566,284.729,247.43,280.197,255.027z"/>
</svg>
