<?xml version="1.0" encoding="utf-8"?>
<!-- Generator: Adobe Illustrator 16.0.0, SVG Export Plug-In . SVG Version: 6.00 Build 0)  -->
<!DOCTYPE svg PUBLIC "-//W3C//DTD SVG 1.1//EN" "http://www.w3.org/Graphics/SVG/1.1/DTD/svg11.dtd">
<svg version="1.1" id="图层_1" xmlns="http://www.w3.org/2000/svg" xmlns:xlink="http://www.w3.org/1999/xlink" x="0px" y="0px"
	 width="325px" height="198px" viewBox="0 0 325 198" enable-background="new 0 0 325 198" xml:space="preserve">
<path d="M316.061,87.085c-4.827-2.763-10.869-1.515-18.125,3.745c-3.563,2.596-6.99,6.458-10.285,11.583
	c-1.432,2.197-3.662,6.158-6.691,11.884l-3.396,6.092c-1.676,2.223-3.522,3.029-5.54,2.446c2.834-4.724,5.116-9.947,6.838-15.678
	c3.596-11.951,4.328-24.766,2.197-38.447c-2.43-15.612-8.305-29.226-17.625-40.843c-4.052-5.026-8.429-9.379-13.121-13.078
	c-3.459-3.004-7.587-5.637-12.395-7.894c-0.235-0.109-0.452-0.196-0.684-0.301c-2.701-1.303-5.482-2.442-8.354-3.394
	c-14.979-4.926-30.158-4.177-45.537,2.247c-5.459,2.297-10.867,5.892-16.227,10.785c-5.859,5.392-10.869,11.667-15.03,18.824
	c-10.186,17.576-13.415,36.849-9.687,57.82c1.58,8.98,4.409,17.102,8.462,24.382l-1.372-0.166l-5.742-1.148
	c-2.13-0.433-4.644-3.012-7.54-7.738c-2.13-3.496-4.793-8.755-7.989-15.779c-7.557-16.544-15.113-29.493-22.669-38.846
	c-9.82-12.216-21.087-20.521-33.803-24.916c-17.342-6.025-32.039-9.121-44.089-9.287c-11.551-0.167-19.939,2.363-25.165,7.589
	c-2.63,2.63-3.212,6.607-1.748,11.934c1.431,5.16,4.411,10.286,8.938,15.379c3.162,3.562,8.571,8.088,16.228,13.581
	c9.021,6.458,21.82,14.729,38.397,24.815c6.058,3.695,15.595,10.436,28.61,20.223c11.717,8.154,21.204,12.599,28.46,13.331
	l20.172,0.898c3.628,0.067,7.623,0.55,11.984,1.448c2.624,0.528,4.864,1.107,6.729,1.736c2.499,2.732,5.238,5.3,8.221,7.7
	c-0.003,0.388,0.001,0.781-0.021,1.149c-0.166,2.795-0.865,4.576-2.098,5.342c-4.826,3.029-7.522,6.774-8.088,11.234
	c-0.466,3.994,0.766,7.54,3.695,10.636c5.892,6.158,14.397,12.066,25.515,17.726c12.516,6.391,22.27,8.954,29.26,7.689
	c7.623-1.365,13.248-5.094,16.877-11.186c1.598-2.662,2.23-5.176,1.896-7.539c-0.365-2.529-1.814-4.461-4.344-5.792
	c-2.43-1.298-9.42-4.261-20.971-8.888l-16.577-6.541c-1.796-0.659-3.299-1.371-4.53-2.132c1.524,0.557,3.063,1.078,4.631,1.532
	c8.055,2.33,15.994,3.13,23.816,2.397c16.91-1.598,30.691-6.774,41.343-15.528c0.051-0.042,0.099-0.086,0.148-0.127
	c1.888,1.991,3.157,3.75,3.796,5.27c2.197,5.16,5.242,8.838,9.137,11.035c4.494,2.529,9.521,2.662,15.08,0.398
	c7.057-2.862,14.563-9.503,22.519-19.922c8.322-10.852,12.716-20.338,13.182-28.461C323.284,96.323,321.054,89.915,316.061,87.085z"
	/>
</svg>
