<?xml version="1.0" encoding="utf-8"?>
<!-- Generator: Adobe Illustrator 16.0.0, SVG Export Plug-In . SVG Version: 6.00 Build 0)  -->
<!DOCTYPE svg PUBLIC "-//W3C//DTD SVG 1.1//EN" "http://www.w3.org/Graphics/SVG/1.1/DTD/svg11.dtd">
<svg version="1.1" id="图层_1" xmlns="http://www.w3.org/2000/svg" xmlns:xlink="http://www.w3.org/1999/xlink" x="0px" y="0px"
	 width="227px" height="223px" viewBox="0 0 227 223" enable-background="new 0 0 227 223" xml:space="preserve">
<path d="M223.947,66.751c-1.902-7.642-3.054-11.746-3.454-12.313c-0.334-0.333-3.137-1.902-8.409-4.705
	c-5.172-2.77-8.025-4.238-8.56-4.405c-0.018-0.003-0.035,0.012-0.052,0.016l-0.199-0.066c-0.232-0.033-3.653,0.984-10.261,3.053
	l-3.078,0.959l-5.331-4.413c3.404-17.119,5.156-26.546,5.256-28.281l-0.451-0.801c-9.844-6.24-15.399-9.627-16.668-10.161
	C171.105,5,166.817,3.882,159.877,2.28c-7.142-1.635-10.996-2.336-11.563-2.103c-0.367,0.133-2.136,4.338-5.306,12.614
	l-5.307,14.065c-2.05,0.169-4.24,0.566-6.561,1.17c-2.289-3.454-3.812-5.39-4.551-5.775c-11.779-6.808-18.271-10.294-19.472-10.461
	c-0.047-0.009-0.09,0.021-0.129,0.073c-0.183,0.025-0.399,0.091-0.671,0.227c-1.168,0.701-4.705,3.504-10.612,8.409
	c-6.14,5.072-9.577,8.109-10.312,9.11l-0.4,0.851c-0.133,0.601,1.886,9.11,6.057,25.528c-2.636,3.437-5.739,8.526-9.31,15.267
	l-19.922-1.401c-0.271,0.09-0.517,0.412-0.742,0.93l-0.259-1.681c-0.801-4.972-1.352-7.608-1.652-7.909
	c-0.334-0.4-2.319-1.535-5.957-3.404c-3.671-1.835-5.79-2.77-6.357-2.803c-0.026,0-0.045,0.023-0.068,0.035l-0.032-0.035
	l-6.207,1.552c-3.604,1.034-5.773,1.702-6.507,2.002c-0.267,0.1-0.467,0.3-0.601,0.601c-0.233,0.634-0.834,6.474-1.802,17.52
	c-3.771,2.502-7.091,5.773-9.961,9.811l-5.957-1.251L9.511,83.97c-0.3,0-0.534,0.117-0.701,0.35
	c-0.467,0.634-2.687,5.94-6.657,15.917l-0.201,0.851l0.25,0.5l9.26,8.309c-0.734,2.971-1.285,6.324-1.652,10.061
	c-0.367,3.838-0.384,6.741-0.05,8.711l-5.105,5.405c-2.97,3.204-4.521,5.039-4.655,5.506c-0.133,0.468,0.667,2.703,2.403,6.708
	c1.535,3.67,2.569,5.956,3.104,6.857l0.419,0.545c0.012,0.052,0.038,0.088,0.081,0.105c2.669,1.135,5.223,2.086,7.658,2.854
	l4.055,1.001c1.757-0.606,4.242-1.957,7.437-4.032c1.673,0.915,3.446,1.63,5.327,2.13l0.701,15.667l0.25,0.551l0.024,0.01
	c0.01,0.013,0.01,0.032,0.025,0.041c0.333,0.267,2.085,0.951,5.256,2.052c3.27,1.135,5.256,1.702,5.957,1.702l7.608-0.852
	l5.035-0.671c0.183,0.708,0.457,1.682,0.821,2.924l0.4,0.601l0.207,0.015l-0.007,0.035l19.972,4.806l8.52-2.34
	c1.673,2.041,3.515,3.848,5.546,5.393l-2.503,13.314l-2.502,12.965c0.033,0.334,0.167,0.617,0.4,0.852
	c1.001,0.566,4.772,1.984,11.313,4.254c6.291,2.182,10.167,3.402,11.636,3.667c0.133,0.03,0.271,0.06,0.427,0.087l9.16,1.102
	l7.459,0.65c0.634-0.1,1.084-0.316,1.352-0.65c0.7-1.001,2.869-4.805,6.507-11.412l6.808-12.113l7.15,0.804l0.308,0.447
	c4.038,5.806,6.356,8.977,6.958,9.511c0.138,0.12,0.266,0.207,0.385,0.265c0.007,0.01,0.007,0.028,0.016,0.035
	c0.701,0.367,3.637,1.102,8.81,2.202l8.81,1.452c0.768-0.167,4.455-3.204,11.063-9.11c6.807-6.039,10.395-9.644,10.762-10.812
	c0.2-0.7-0.984-4.556-3.555-11.563l-4.654-12.313c3.971-5.573,6.824-10.129,8.559-13.666l10.012,1.652l9.61,1.301l0.651-0.149
	l0.45-0.601c0.834-1.436,3.904-10.979,9.21-28.632l0.1-0.7l-0.45-0.551l-17.77-10.611c0.634-3.07,1.001-7.159,1.102-12.264
	c0.066-4.872-0.117-8.542-0.551-11.012l10.111-6.908c5.539-3.938,8.459-6.257,8.759-6.958
	C226.767,78.981,225.85,74.493,223.947,66.751z"/>
</svg>
