<?xml version="1.0" encoding="utf-8"?>
<!-- Generator: Adobe Illustrator 16.0.0, SVG Export Plug-In . SVG Version: 6.00 Build 0)  -->
<!DOCTYPE svg PUBLIC "-//W3C//DTD SVG 1.1//EN" "http://www.w3.org/Graphics/SVG/1.1/DTD/svg11.dtd">
<svg version="1.1" id="图层_1" xmlns="http://www.w3.org/2000/svg" xmlns:xlink="http://www.w3.org/1999/xlink" x="0px" y="0px"
	 width="341px" height="224px" viewBox="0 0 341 224" enable-background="new 0 0 341 224" xml:space="preserve">
<path d="M340.301,97.991c-0.566-2.563-1.249-4.511-2.048-5.843c-0.832-1.398-2.081-2.364-3.745-2.896l-2.108-0.194
	c0.695-0.83,1.396-1.677,2.108-2.553c1.664-2.23,2.363-3.496,2.098-3.795c-0.267-0.333-1.798-0.1-4.595,0.699
	c-1.132,0.299-6.227,1.964-15.282,4.994l-6.868,2.348c-12.126,1.425-26.128,4.028-41.985,7.8c-0.59-4.456-1.4-8.111-2.437-10.947
	l15.682-21.625l0.3-0.699l-0.3-0.699c-0.499-0.999-3.13-4.961-7.891-11.886l-8.341-11.736l-0.998-0.6l-9.489-0.999l-8.59-0.649
	c-0.051,0-0.095,0.03-0.133,0.087l-0.466,0.063c-1.1,0.366-4.545,1.998-10.338,4.894l-0.642,0.318
	c-4.025-3.262-7.61-5.755-10.745-7.459c0.532-17.213,0.715-26.619,0.549-28.217l-0.15-0.849c-0.1-0.167-0.266-0.283-0.499-0.35
	l-32.761-6.342L173.96,0.169l-0.063-0.013c-0.045-0.004-0.085,0.003-0.127,0.005l-0.123-0.005c-0.009,0.003-0.009,0.017-0.016,0.021
	c-0.203,0.051-0.365,0.191-0.484,0.428c-0.699,1.532-3.346,9.656-7.94,24.372c-3.534,0.177-7.137,0.781-10.801,1.765l-6.129-5.86
	c-4.461-4.162-6.908-6.309-7.341-6.442l-9.239-0.799l-9.289-0.55l-0.699,0.2c-1.398,0.865-5.194,3.962-11.387,9.289l-9.688,8.54
	l-0.399,0.649l0.05,0.799c0.2,0.932,1.748,4.811,4.645,11.636l5.044,11.836c-3.311,4.33-6.452,9.907-9.428,16.702
	c-0.621,0.314-1.495,0.781-2.626,1.403l-6.557,0.198c-1.171-0.762-2.375-1.486-3.612-2.171l-4.295-2.048l-0.2-14.483l-0.2-0.999
	c-0.067-0.1-0.383-0.267-0.949-0.5l-5.094-1.398l-4.695-1.149c-0.001,0-0.002,0.002-0.003,0.002
	c-0.035-0.014-0.061-0.041-0.097-0.052l-9.339-0.3h-9.888l-0.849,0.15c-0.1,0.067-0.216,0.25-0.35,0.549
	c-0.266,0.799-1.015,5.943-2.247,15.432c-4.641,1.367-9.036,3.924-13.19,7.653l-3.99-1.71l-3.945-1.498l-3.396-0.45l-3.71-0.439
	l-0.035-0.01l-0.009,0.005l-0.041-0.005c0.001,0.009,0.002,0.017,0.003,0.026l-0.402,0.224c-0.4,0.399-1.848,2.947-4.345,7.641
	c-2.464,4.528-4.028,7.558-4.694,9.089l-0.25,0.849l0.299,0.549c0.466,0.599,2.314,2.197,5.543,4.794l5.494,4.345
	c-1.365,6.759-1.432,13.168-0.2,19.227l-10.837,8.24c-0.266,0.267-0.366,0.566-0.299,0.899l4.145,8.49l4.145,7.99
	c0.2,0.267,0.383,0.417,0.549,0.45l0.052-0.01l-0.002,0.01l4.745,1.049l4.894,0.898c0.366-0.033,1.515-0.6,3.446-1.698l2.997-1.781
	c3.095,3.013,6.469,5.513,10.138,7.475l0.4,7.542c0.233,4.794,0.449,7.773,0.649,8.939c0.021,0.223,0.138,0.41,0.331,0.572
	c0,0.059,0.017,0.106,0.069,0.127c1.564,0.799,5.826,1.764,12.785,2.896c3.525,0.563,6.33,0.958,8.427,1.186
	c-3.655,1.805-7.244,3.607-10.725,5.406c-14.675,7.588-27.009,14.71-37.021,21.369c-0.718,0.32-1.456,0.651-2.233,1.004
	c-8.257,3.729-13.833,6.56-16.73,8.49c-1.764,1.199-2.63,1.932-2.597,2.197c0.066,0.268,1.082,0.55,3.046,0.85l11.262,0.639
	c0.248,1.423,0.844,3.26,1.822,5.555c0.933,2.264,1.748,3.895,2.447,4.894c0.5,0.699,0.882,1.132,1.148,1.298l1.948,0.201
	c14.916-0.5,33.411-3.214,55.485-8.141c0.717-0.16,1.456-0.338,2.179-0.502l-0.53,0.852c-1.332,1.997-1.865,3.079-1.598,3.246
	c0.266,0.199,1.798-0.2,4.595-1.199l12.186-5.044c3.352-1.432,5.958-2.563,7.836-3.399c13.226-3.507,27.185-7.608,41.877-12.305
	c-0.398,10.591-0.557,16.388-0.471,17.352c0.066,0.666,0.383,1.149,0.949,1.449c1.832,0.732,6.842,2.23,15.033,4.494
	c8.523,2.397,13.167,3.546,13.933,3.446c0.015,0,0.025-0.01,0.04-0.01c0.004,0.001,0.007,0.009,0.011,0.01l7.791,0.499l9.788,0.4
	l1.048-0.15l0.45-0.6c0.532-1.298,1.614-4.91,3.246-10.837c1.665-6.06,2.714-10.288,3.146-12.685l11.131-1.665l3.901,4.361
	l8.74,9.39c0.128,0.128,0.266,0.207,0.408,0.262c0.019,0.049,0.049,0.079,0.091,0.088l17.929,1.997
	c0.434-0.033,4.678-3.079,12.735-9.14c7.957-5.959,12.202-9.256,12.735-9.889c0.199-0.266,0.216-0.682,0.05-1.248l-6.192-12.734
	l-6.243-12.387c3.362-4.794,6.093-9.654,8.19-14.582l15.731,0.1c8.224,0.033,12.419-0.033,12.585-0.199
	c0.4-0.5,1.299-5.877,2.697-16.132c0.104-0.787,0.203-1.534,0.299-2.264c0.342-0.177,0.68-0.352,1.02-0.527l10.967-3.151
	l12.485-4.046c1.065-0.532,1.582-0.898,1.549-1.099c0-0.199-0.483-0.433-1.448-0.699l-3.347-0.749l-1.758-0.329
	c10.433-6.059,18.663-11.593,24.681-16.601c2.231-1.864,3.347-3.812,3.347-5.843L340.301,97.991z M287.213,119.217l-6.346-1.559
	c11.369-3.098,20.926-5.41,28.648-6.929c-5.215,3.262-11.197,6.525-17.936,9.788C290.426,120.144,288.977,119.712,287.213,119.217z
	 M51.599,203.104c12.177-6.357,28.313-13.741,48.438-22.161c0.995,1.387,1.644,2.19,1.943,2.399l10.168,0.723
	c0.451,1.436,0.784,2.393,1.004,2.893c0.008,0.078,0.027,0.155,0.065,0.23c0.096,0.168,0.25,0.265,0.433,0.329
	C89.604,194.782,68.918,199.979,51.599,203.104z M81.904,154.824c1.83-0.454,3.589-1.034,5.29-1.718
	c-0.084,0.11-0.156,0.2-0.246,0.319c-1.198,1.565-1.814,2.631-1.848,3.197c0.033,0.299,0.566,1.231,1.598,2.797l1.624,2.47
	c-3.017,1.388-5.994,2.773-8.909,4.157C80.743,159.891,81.574,156.144,81.904,154.824z"/>
</svg>
