<?xml version="1.0" encoding="utf-8"?>
<!-- Generator: Adobe Illustrator 16.0.0, SVG Export Plug-In . SVG Version: 6.00 Build 0)  -->
<!DOCTYPE svg PUBLIC "-//W3C//DTD SVG 1.1//EN" "http://www.w3.org/Graphics/SVG/1.1/DTD/svg11.dtd">
<svg version="1.1" id="图层_1" xmlns="http://www.w3.org/2000/svg" xmlns:xlink="http://www.w3.org/1999/xlink" x="0px" y="0px"
	 width="132px" height="86px" viewBox="0 0 132 86" enable-background="new 0 0 132 86" xml:space="preserve">
<path d="M127.645,47.559c-2.359-7.611-7.793-14.424-16.303-20.44c-0.384-0.273-0.781-0.533-1.174-0.796
	C103.904,19.72,96.907,13.995,89.156,9.17c-7.811-4.819-14.574-7.694-20.291-8.625c-6.082-0.997-11.582-0.764-16.501,0.698
	c-4.786,1.462-9.107,4.121-12.962,7.977c-1.163,1.164-2.476,1.762-3.938,1.795c-1.562,0.033-2.958-0.582-4.188-1.845
	c-2.194-2.26-4.703-3.191-7.528-2.792c-2.726,0.366-4.985,1.845-6.78,4.437c-1.33,1.928-2.809,2.892-4.437,2.892
	c-2.925-0.033-5.501,0.964-7.728,2.992c-2.027,1.828-3.473,4.154-4.337,6.979c-0.299,0.897-0.333,1.413-0.1,1.545l2.393-0.249
	c2.559-0.632,4.902-0.648,7.029-0.05c2.559,0.698,4.387,2.193,5.484,4.487c1.595,3.39,3.639,5.55,6.132,6.481
	c2.26,0.831,4.653,0.582,7.179-0.748c2.161-1.13,4.088-1.346,5.783-0.648c1.562,0.665,2.809,2.061,3.739,4.188
	c2.825,6.581,5.883,11.134,9.173,13.66c3.124,2.394,7.943,4.056,14.458,4.985c3.755,0.532,7.528,1.513,11.317,2.941
	c2.434,0.894,4.66,1.921,6.724,3.054c2.697,1.946,5.098,3.56,7.186,4.823c7.977,4.787,15.023,7.346,21.139,7.678
	c6.748,0.333,12.065-2.094,15.954-7.278C128.775,62.232,129.972,55.236,127.645,47.559z M4.298,23.934
	c1.252-0.284,2.555-0.314,3.907-0.099L4.298,23.934z"/>
</svg>
