<?xml version="1.0" encoding="utf-8"?>
<!-- Generator: Adobe Illustrator 16.0.0, SVG Export Plug-In . SVG Version: 6.00 Build 0)  -->
<!DOCTYPE svg PUBLIC "-//W3C//DTD SVG 1.1//EN" "http://www.w3.org/Graphics/SVG/1.1/DTD/svg11.dtd">
<svg version="1.1" id="图层_1" xmlns="http://www.w3.org/2000/svg" xmlns:xlink="http://www.w3.org/1999/xlink" x="0px" y="0px"
	 width="164px" height="323px" viewBox="0 0 164 323" enable-background="new 0 0 164 323" xml:space="preserve">
<path d="M159.053,96.479c-1.687-7.869-5.219-13.605-10.582-17.228c-7.37-7.171-16.63-12.876-27.82-17.08
	c-3.173-1.196-6.363-2.205-9.571-3.046c1.29-3.57,4.274-8.509,8.972-14.832l11.535-15.181c3.695-5.393,5.127-10.67,4.295-15.83
	c-0.932-5.793-4.627-9.722-11.086-11.786c-5.727-1.864-11.17-2.047-16.33-0.549c-5.493,1.564-10.004,4.86-13.533,9.888
	c-3.861,5.526-6.125,13.25-6.791,23.171c-0.502,7.811-0.016,15.187,1.433,22.141c-4.179-0.073-8.384,0.13-12.619,0.631
	c-24.77,2.996-44.212,13-58.328,30.013C5.143,103.104-0.983,122.663,0.249,145.468c1.132,21.307,7.674,40.118,19.626,56.43
	c8.256,11.186,21.057,23.221,38.402,36.105c3.396,2.529,6.475,5.826,9.238,9.888c3.163,4.694,4.744,8.956,4.744,12.784
	c0,0.389,0.019,0.763,0.036,1.138c-9.66,5.538-17.26,11.185-22.758,16.94c-8.656,9.021-11.419,17.511-8.29,25.468
	c2.83,7.157,9.288,11.935,19.376,14.332c8.822,2.098,18.444,2.081,28.864-0.05c11.852-2.43,20.791-6.809,26.816-13.134
	c5.561-5.759,7.758-12.052,6.592-18.876c-1.064-6.093-5.01-11.952-11.834-17.578c-6.216-5.13-13.001-8.727-20.352-10.803
	c-1.662-7.962-4.742-15.798-9.262-23.506c-4.694-7.99-11.236-16.329-19.626-25.019c-5.826-6.06-10.404-12.102-13.733-18.128
	c-4.328-7.924-6.342-15.613-6.042-23.071c0.266-6.292,1.515-11.918,3.745-16.879c1.447-3.211,3.257-6.029,5.411-8.472
	c-0.088,0.18-0.18,0.35-0.267,0.532c-4.028,8.323-5.859,16.18-5.493,23.571c0.333,6.691,2.563,11.835,6.691,15.431
	c3.729,3.263,8.157,4.661,13.284,4.195c6.359-0.533,11.069-2.397,14.132-5.594c3.196-3.362,4.527-8.09,3.995-14.182l-1.897-22.223
	c-0.325-5.606-0.281-9.977,0.126-13.125c3.783,1.536,7.949,3.791,12.509,6.783c6.262,4.132,12.37,7.037,18.328,8.741
	c6.991,2.88,14.464,2.568,22.421-0.95c8.989-3.995,15.78-11.036,20.374-21.124C159.868,115.372,161.083,105.834,159.053,96.479z"/>
</svg>
