<?xml version="1.0" encoding="utf-8"?>
<!-- Generator: Adobe Illustrator 16.0.0, SVG Export Plug-In . SVG Version: 6.00 Build 0)  -->
<!DOCTYPE svg PUBLIC "-//W3C//DTD SVG 1.1//EN" "http://www.w3.org/Graphics/SVG/1.1/DTD/svg11.dtd">
<svg version="1.1" id="图层_1" xmlns="http://www.w3.org/2000/svg" xmlns:xlink="http://www.w3.org/1999/xlink" x="0px" y="0px"
	 width="481px" height="418px" viewBox="0 0 481 418" enable-background="new 0 0 481 418" xml:space="preserve">
<path d="M479.101,255.301c-0.4-3.531-2.632-6.23-6.697-8.096c-3.631-1.732-8.229-2.582-13.792-2.549
	c-5.397,0.033-10.545,0.899-15.442,2.599c-5.164,1.732-9.012,4.048-11.544,6.946c-13.46-2.065-26.336-9.512-38.63-22.338
	c-5.696-5.961-10.851-12.659-15.479-20.074c9.795-7.257,17.693-16.251,23.674-27.002c6.197-11.228,9.679-23.171,10.445-35.831
	c0.466-7.596,0.433-15.575-0.101-23.938c-0.533-8.429-1.516-16.275-2.948-23.538c-1.333-6.763-2.516-14.909-3.548-24.437
	c-1.833-17.325-7.446-32.3-16.842-44.927c-2.313-3.134-4.859-5.974-7.627-8.541c0.407-2.019,0.755-4.129,1.03-6.351
	c0.5-3.698,0.7-6.98,0.6-9.845c-0.033-1.333-0.316-2.166-0.85-2.499l-2.948,0.1c-4.031,1.3-8.212,3.315-12.543,6.047
	c-0.804,0.518-1.536,1.023-2.235,1.524c-3.398-1.479-7-2.706-10.809-3.672c-8.579-2.164-16.468-2.519-23.673-1.08
	c-0.019-1.137-0.04-2.324-0.064-3.568c-0.033-2.065-0.583-3.348-1.649-3.848c-1.099-0.533-2.715-0.2-4.847,1
	c-4.765,2.632-9.096,6.296-12.993,10.994c-3.999,4.797-6.581,9.528-7.747,14.192c-0.397,1.662-0.308,2.85,0.248,3.585
	c-1.65,5.189-1.992,10.688-0.997,16.504c1.166,6.696,4.015,12.977,8.546,18.84c4.897,6.364,11.394,11.678,19.489,15.942
	c13.693,7.196,24.421,16.591,32.184,28.186c7.963,11.96,11.943,25.037,11.943,39.229c0,13.621-3.264,24.956-9.771,34.019
	c-16.902-44.572-43.312-73.891-79.232-87.941c-15.126-5.897-31.018-8.646-47.676-8.246c-13.804,0.392-27.074,2.89-39.814,7.481
	c-14.897,1.645-27.733,6.611-38.512,14.892c-4.52,0.361-8.797,1.724-12.827,4.113c-7.563,4.398-12.36,12.011-14.393,22.838
	c-0.395,2.123-0.645,4.266-0.765,6.427c-0.393,0.278-0.774,0.589-1.134,0.969c-3.099,3.332-5.614,7.247-7.546,11.744
	c-1.832,4.331-2.832,8.545-2.998,12.643c-0.034,1.533,0.316,2.482,1.049,2.849c0.733,0.4,1.699,0.1,2.898-0.899
	c2.332-1.933,4.964-3.781,7.896-5.547c0.881-0.549,1.731-1.053,2.563-1.529c1.157,3.675,2.659,7.398,4.533,11.174
	c2.24,4.479,4.843,8.392,7.794,11.758c-2.788,1.863-5.81,3.5-9.094,4.884c-1.166,0.5-1.716,1.183-1.649,2.049
	c0.034,0.8,0.633,1.566,1.799,2.299c3.032,1.966,6.83,3.265,11.394,3.898l10.944-0.35c1.011-0.287,1.856-0.718,2.553-1.278
	c1.171,0.485,2.364,0.936,3.594,1.328c11.027,3.465,20.956,2.399,29.784-3.198c4.464-2.828,7.878-6.653,10.263-11.457
	c6.322-4.401,13.643-5.403,21.97-2.986c9.729,2.832,18.14,9.745,25.237,20.739c2.863,4.418,5.217,9.756,7.075,15.982
	c-9.923,17.255-24.067,28.516-42.457,33.742c-16.792,4.765-33.766,3.915-50.924-2.549c-12.46-4.698-22.438-12.027-29.934-21.989
	c-7.396-9.795-12.261-21.988-14.593-36.58c-2.199-13.693-6.28-23.555-12.244-29.585c-5.331-5.393-12.292-7.768-20.881-7.135
	c-0.021-0.019-0.037-0.042-0.058-0.061c-3.032-2.599-8.079-3.765-15.142-3.498c-6.93,0.3-12.044,1.749-15.342,4.348
	c-2.299,1.833-2.182,3.582,0.35,5.247c2.499,1.699,4.964,3.782,7.396,6.247l0.074,0.085c-1.086,1.434-2.114,2.98-3.073,4.663
	c-4.329,7.527-6.417,16.028-6.279,25.498c-1.929,0.946-4.014,2.167-6.265,3.687c-4.298,2.965-7.413,5.847-9.345,8.646
	c-0.699,1.066-0.966,1.932-0.799,2.598c0.167,0.634,0.75,1.2,1.749,1.699c2.865,1.533,6.813,2.816,11.844,3.849
	c2.506,0.51,4.667,0.786,6.523,0.856c3.102,9.173,8.034,16.987,14.816,23.431c9.195,8.796,22.289,15.608,39.28,20.439
	c3.698,1.032,11.311,3.581,22.838,7.646c11.494,4.031,19.207,6.613,23.138,7.746c23.288,6.564,45.093,6.431,65.416-0.399
	c17.767-5.964,30.442-15.466,38.035-28.498c0,0.703,0.007,1.403-0.005,2.112c-0.467,23.754-7.213,46.159-20.24,67.215
	c-5.688,9.15-12.452,16.267-20.263,21.401c-8.586,3.54-18.553,2.462-29.91-3.261c-1.144-0.579-2.255-1.197-3.35-1.833
	c-2.652-3.365-6-5.771-10.045-7.216c-6.385-5.628-11.618-12.569-15.69-20.836c-7.729-15.791-14.159-23.321-19.29-22.588
	c-1.733,0.232-3.132,1.148-4.198,2.748c-1.045,1.567-1.62,3.578-1.779,5.98c-9.757-11.122-20.522-19.436-32.303-24.92
	c-12.727-5.964-23.271-7.113-31.634-3.449c-2.265,0.967-3.582,2.399-3.948,4.299c-0.367,1.998,0.316,4.414,2.049,7.246
	c0.6,0.933,0.3,1.232-0.899,0.898c-9.395-2.298-18.507-2.748-27.336-1.349c-9.062,1.466-15.975,4.515-20.739,9.146
	c-1.232,1.232-1.749,2.465-1.549,3.697c0.267,1.3,1.25,2.232,2.949,2.799l2.999,0.8c0.433,0.101,0.666,0.25,0.7,0.45l-0.5,0.449
	c-7.663,3.665-13.81,8.729-18.44,15.192c-4.397,6.168-7.108,13.229-8.175,21.159c-0.269,0.606-0.527,1.215-0.771,1.828
	c-1.566,3.998-1.25,6.78,0.95,8.346c2.166,1.533,4.464,0.934,6.896-1.799c18.224-20.289,37.447-28.885,57.67-25.786
	c20.489,3.132,39.046,17.907,55.671,44.327c14.426,22.854,32.583,37.047,54.472,42.577c16.678,4.188,34.748,3.079,54.208-3.321
	c7.44,8.351,16.155,14.426,26.151,18.214c8.862,3.365,17.591,4.581,26.187,3.648c6.33-0.7,12.493-2.882,18.49-6.547
	c4.764-2.865,9.212-6.496,13.343-10.895c4.231-4.431,6.764-8.462,7.597-12.093c0.732-3.266,0.1-6.297-1.899-9.096
	c-2.365-3.299-6.463-4.748-12.294-4.348c-6.43,0.467-14.492,3.164-24.188,8.096c-4.598,2.365-9.744,3.781-15.441,4.248
	c-5.479,0.485-9.799-0.176-12.98-1.964c12.758-6.889,23.917-16.657,33.47-29.32c9.362-12.394,16.808-26.985,22.338-43.777
	c5.197-15.892,8.38-32.749,9.546-50.573c0.711-10.95,0.624-21.709-0.256-32.277c1.916,0.196,3.829,0.325,5.739,0.389
	c2.71,6.921,5.746,11.64,9.108,14.147c1.1,0.866,2.266,1.216,3.498,1.05c1.233-0.167,2.299-0.867,3.198-2.1
	c1.366-1.832,2.549-3.965,3.549-6.396c0.233-0.566,0.449-0.85,0.649-0.85c0.167,0,0.3,0.267,0.399,0.8
	c1.399,11.993,5.147,23.071,11.244,33.233c6.131,10.16,13.193,17.057,21.189,20.688c2.266,1.066,4.181,1.166,5.747,0.3
	c1.666-0.899,2.365-2.632,2.099-5.197c-0.333-3.365,0-5.83,1-7.396c1.032-1.499,2.898-2.448,5.597-2.848l12.044-0.6l10.244,0.749
	c6.23,0.6,12.777,0.466,19.641-0.399c5.703-0.724,10.19-1.818,13.505-3.273c4.167,0.265,8.377-0.036,12.631-0.925
	c5.23-1.032,9.412-2.731,12.544-5.097C477.9,261.114,479.434,258.365,479.101,255.301z M307.595,169.837
	c1.794,0.882,3.409,2.615,4.842,5.206c1.933,3.398,3.415,7.896,4.448,13.493c1.037,5.782,2.083,11.065,3.138,15.859
	c-0.775,0.047-1.548,0.096-2.339,0.124C315.233,192.008,311.876,180.442,307.595,169.837z"/>
</svg>
