<?xml version="1.0" encoding="utf-8"?>
<!-- Generator: Adobe Illustrator 16.0.0, SVG Export Plug-In . SVG Version: 6.00 Build 0)  -->
<!DOCTYPE svg PUBLIC "-//W3C//DTD SVG 1.1//EN" "http://www.w3.org/Graphics/SVG/1.1/DTD/svg11.dtd">
<svg version="1.1" id="图层_1" xmlns="http://www.w3.org/2000/svg" xmlns:xlink="http://www.w3.org/1999/xlink" x="0px" y="0px"
	 width="183px" height="248px" viewBox="0 0 183 248" enable-background="new 0 0 183 248" xml:space="preserve">
<path d="M177.635,203.694c-0.124-0.612-0.302-1.184-0.532-1.715c0.48-5.605-1.714-10.663-6.61-15.169
	c-6.227-5.76-14.336-8.324-24.325-7.691c-2.864,0.199-6.693,0.116-11.488-0.25c-5.095-0.366-8.708-0.865-10.839-1.498
	c-3.039-0.883-9.755-6.519-20.131-16.887c0.617-0.341,1.235-0.674,1.85-1.045c7.158-4.363,13.553-10.391,19.18-18.082
	c5.595-7.692,9.924-16.317,12.987-25.875c3.163-9.957,4.662-20.08,4.495-30.369c-0.266-17.283-4.029-33.75-11.288-49.4
	c-7.46-15.984-16.55-26.623-27.272-31.917c-5.729-2.831-14.319-4.08-25.774-3.747c-11.655,0.3-19.58,2.115-23.776,5.445
	c-9.923,7.892-18.099,19.33-24.525,34.315c-7.226,16.85-10.24,34.199-9.041,52.047c1.532,22.444,8.675,40.758,21.429,54.945
	c5.694,6.36,12.088,11.238,19.181,14.635c1.098,0.522,2.199,0.988,3.302,1.428c-3.093,3.056-6.143,5.719-9.146,7.963
	c-3.596,2.697-6.494,4.313-8.691,4.845c-2.897,0.733-6.793,1.316-11.688,1.749L24.44,177.87c-8.259-0.233-14.785,2.664-19.581,8.691
	c-4.57,5.706-5.798,12.232-3.7,19.577c-0.016,0.298-0.019,0.598,0.003,0.902c0.167,2.098,1.099,3.813,2.797,5.145
	c0.93,0.729,1.937,1.215,3.016,1.475c2.023,0.949,4.564,1.491,7.623,1.623c3.704,0.174,7.127-0.211,10.289-1.12
	c1.636,0.464,3.284,0.404,4.946-0.179c2.264-0.8,3.829-2.148,4.695-4.047c0.138-0.307,0.246-0.613,0.338-0.92
	c6.635-4.66,13.614-11.125,20.94-19.409c6.697-7.618,11.865-14.619,15.546-21.021c-0.452,3.033-1.481,6.687-3.108,10.981
	c-2.265,5.861-4.646,10.09-7.143,12.688c-2.764,2.83-3.979,6.277-3.646,10.34c0.264,2.926,1.26,5.619,2.964,8.087
	c-1.302,3.606-2.41,7.646-3.313,12.142c-1.432,7.193-1.715,12.654-0.849,16.385c0.799,3.363,3.896,5.428,9.291,6.193
	c5.294,0.732,9.107-0.166,11.438-2.697c1.265-1.365,1.765-2.947,1.499-4.746c-0.233-1.73-0.3-4.528-0.2-8.391
	c0.036-2.083,0.107-3.921,0.21-5.529c2.139,0.846,4.023,1.283,5.633,1.283c1.156,0,2.414-0.187,3.749-0.518
	c0.888,0.277,1.785,0.514,2.692,0.717c0.183,3.438,0.072,7.688-0.347,12.787c-0.133,1.766,0.449,3.397,1.748,4.896
	c2.53,2.897,6.161,4.13,10.89,3.696c5.094-0.499,8.508-3.063,10.239-7.691c1.173-3.269,1.154-8.448-0.03-15.495
	c8.211-2.858,13.551-7.015,16.014-12.478c0.566-1.266,0.616-2.33,0.15-3.196c-0.533-0.899-1.498-1.216-2.897-0.949
	c-2.73,0.532-5.411,0.55-8.042,0.05c-2.535-0.467-4.583-1.365-6.2-2.648c0.12-0.859,0.173-1.751,0.106-2.696
	c-0.199-2.83-1.281-5.261-3.246-7.292c-3.631-3.863-6.428-8.941-8.393-15.235c-0.806-2.499-1.395-5.549-1.773-9.133
	c5.083,7.979,10.6,15.192,16.559,21.62c6.461,6.927,12.954,12.455,19.48,16.584c3.111,1.973,6.173,3.574,9.185,4.821
	c0.778,1.651,2.011,2.909,3.702,3.77c2.065,1.032,4.18,1.266,6.344,0.699c1.078-0.272,1.985-0.721,2.738-1.326
	c1.447,0.1,2.883,0.113,4.305,0.028c4.813-0.279,8.524-1.533,11.151-3.748c2.082-0.511,3.614-1.571,4.583-3.195
	C177.802,207.79,178.068,205.893,177.635,203.694z"/>
</svg>
