<?xml version="1.0" encoding="utf-8"?>
<!-- Generator: Adobe Illustrator 16.0.0, SVG Export Plug-In . SVG Version: 6.00 Build 0)  -->
<!DOCTYPE svg PUBLIC "-//W3C//DTD SVG 1.1//EN" "http://www.w3.org/Graphics/SVG/1.1/DTD/svg11.dtd">
<svg version="1.1" id="图层_1" xmlns="http://www.w3.org/2000/svg" xmlns:xlink="http://www.w3.org/1999/xlink" x="0px" y="0px"
	 width="192px" height="272px" viewBox="0 0 192 272" enable-background="new 0 0 192 272" xml:space="preserve">
<path d="M190.704,190.721c0.707-1.189,1.066-2.55,1.066-4.084c-0.033-2.035-0.7-3.77-2.001-5.203
	c-0.773-0.896-1.654-1.516-2.64-1.864c-0.518-0.578-1.088-1.093-1.714-1.538c-4.137-2.869-11.191-4.337-21.166-4.404
	c-6.705-0.066-13.51,0.434-20.414,1.502l-8.007,0.5c-2.401-0.2-4.67-0.783-6.805-1.752c-2.001-0.867-4.737-2.752-8.206-5.653
	c-3.471-2.912-6.212-5.664-8.243-8.26c1.448-3.153,2.183-6.056,2.224-8.712c8.507-2.483,16.969-6.878,25.384-13.201
	c11.542-8.706,20.031-18.563,25.469-29.571c0.567-1.034,0.784-1.901,0.65-2.602c-0.134-0.834-0.7-1.534-1.701-2.102
	c-8.073-4.603-15.312-11.492-21.716-20.665c-6.438-9.173-11.525-19.898-15.262-32.174c-3.035-10.074-6.254-18.797-9.656-26.169
	c-4.337-9.44-8.474-15.511-12.41-18.213c-4.57-3.203-9.89-5.254-15.961-6.155L72.633,1c-5.504,1.167-10.357,3.069-14.561,5.704
	c-4.27,2.702-7.222,5.788-8.856,9.257c-2.702,5.838-4.537,11.659-5.504,17.463c-1.034,6.305-1.251,13.593-0.65,21.866
	c1.234,15.878,0.851,27.804-1.151,35.776c-2.802,10.941-9.34,20.815-19.614,29.622c-1.768,1.535-1.635,3.236,0.4,5.104
	c12.609,11.742,27.07,19.831,43.382,24.269c2.49,0.677,4.992,1.24,7.501,1.734c0.014,1.679,0.367,3.368,1.105,5.07
	c0.38,0.852,0.866,1.676,1.411,2.486c-6.81,5.959-12.839,10.13-18.073,12.475c-2.335,1.034-5.537,1.4-9.607,1.101
	c-3.402-0.2-6.705-0.817-9.907-1.851c-10.841-3.369-19.931-3.52-27.27-0.451c-0.143,0.06-0.276,0.127-0.416,0.189
	c-1.514,0.224-2.845,0.841-3.987,1.862c-0.466,0.428-0.858,0.892-1.192,1.385c-3.67,3.255-5.513,7.776-5.513,13.576
	c0,3.042,0.409,5.753,1.178,8.171c-0.195,0.684-0.29,1.411-0.277,2.187c0.033,2.035,0.8,3.736,2.302,5.104
	c1.355,1.258,2.899,1.902,4.629,1.943c4.078,2.868,9.635,4.311,16.687,4.311c4.97,0,10.324-0.734,16.062-2.201
	c6.071-1.568,10.491-3.486,13.26-5.754c4.036-3.27,9.323-9.141,15.861-17.613c3.107-4.07,6.081-8.157,8.944-12.256
	c-1.133,15.794-5.66,29.206-13.597,40.227c-6.338,8.84-15.544,16.879-27.62,24.117c-7.539,4.537-8.323,9.174-2.352,13.91
	c2.902,2.302,7.939,4.688,15.111,7.155c6.738,2.302,10.875,3.303,12.409,3.003c1.672-0.34,3.417-1.557,5.234-3.631
	c0.177,3.506,0.63,6.26,1.371,8.234c0.967,2.801,2.819,4.836,5.554,6.104c2.501,1.168,5.104,1.484,7.806,0.951
	c3.269-0.668,5.671-2.068,7.205-4.203c0.379-0.534,0.685-1.087,0.923-1.658c0.863,2.555,2.935,4.295,6.232,5.211
	c2.535,0.7,4.938,0.667,7.205-0.1c2.836-0.969,4.854-2.936,6.055-5.905c1.289-3.256,2.327-7.124,3.118-11.595
	c3.563-1.408,6.998-3.071,10.292-5.018c3.669-2.168,6.455-4.253,8.355-6.254c1.635-1.668,2.369-3.604,2.202-5.805
	c-0.167-2.302-1.302-4.653-3.403-7.055c-5.137-5.904-9.773-15.479-13.91-28.722c-2.888-9.336-4.801-18.287-5.784-26.871
	c2.286,3.347,6.146,8.612,11.589,15.813c6.605,8.706,14.327,15.011,23.167,18.914c7.206,3.168,14.827,4.619,22.867,4.353
	c2.733-0.083,5.248-0.517,7.545-1.299c0.537,0.096,1.105,0.147,1.712,0.147c1.734,0,3.318-0.55,4.754-1.65
	c1.487-1.14,2.291-2.615,2.427-4.415c1.929-2.187,3.378-4.779,4.327-7.794C190.315,195.353,190.69,193.027,190.704,190.721z"/>
</svg>
