<?xml version="1.0" encoding="utf-8"?>
<!-- Generator: Adobe Illustrator 16.0.0, SVG Export Plug-In . SVG Version: 6.00 Build 0)  -->
<!DOCTYPE svg PUBLIC "-//W3C//DTD SVG 1.1//EN" "http://www.w3.org/Graphics/SVG/1.1/DTD/svg11.dtd">
<svg version="1.1" id="图层_1" xmlns="http://www.w3.org/2000/svg" xmlns:xlink="http://www.w3.org/1999/xlink" x="0px" y="0px"
	 width="95px" height="151px" viewBox="0 0 95 151" enable-background="new 0 0 95 151" xml:space="preserve">
<path d="M92.799,85.41c-0.968-7.24-3.438-13.547-7.408-18.919C80.52,59.95,74.146,56.113,66.271,54.979
	c-0.141-0.019-0.247-0.021-0.373-0.033c-0.129-0.039-0.264-0.076-0.395-0.113c2.264-3.275,3.768-6.957,4.471-11.066
	c0.701-4.038,0.451-8.676-0.75-13.915c-0.734-3.037-2.187-7.524-4.355-13.464L62.217,8.98c-0.901-2.736-1.469-5.172-1.702-7.308
	c-0.101-0.934-0.25-1.435-0.45-1.501c-0.134-0.034-0.534,0.217-1.201,0.75C49.553,8.363,42.412,15.771,37.44,23.145
	s-7.508,14.332-7.608,20.872c-0.08,4.236,1.074,8.136,3.418,11.713c-0.675,0.22-1.334,0.446-1.968,0.683
	c-0.128,0.027-0.272,0.063-0.449,0.117c-6.674,2.035-12.513,5.339-17.519,9.91C8.276,71.079,4.639,76.568,2.404,82.908
	c-2.269,6.373-2.937,13.08-2.002,20.121c0.901,6.907,3.17,12.93,6.807,18.068c1.494,2.096,3.143,3.574,4.943,4.453
	c-0.313,1.008-0.331,2.06-0.038,3.155c0.4,1.401,1.201,2.485,2.402,3.253c1.302,0.801,2.77,0.918,4.405,0.352
	c0.887-0.325,1.899-0.915,3.022-1.738c0.214,0.298,0.451,0.613,0.685,0.927c-2.858,0.787-4.819,2.369-5.86,4.765
	c-1.101,2.536-0.667,4.705,1.302,6.508c1.167,1.101,2.652,1.734,4.455,1.901l4.104-0.25l3.104,0.25
	c0.801,0.333,1.668,0.917,2.603,1.752c2.203,2.069,4.472,3.253,6.807,3.554c3.003,0.4,6.557-0.5,10.662-2.703
	c3.304-1.802,5.589-2.786,6.856-2.953c1.535-0.233,4.038,0.167,7.508,1.201l5.206,1.402l5.005,0.25
	c3.971-0.734,5.974-2.77,6.007-6.106c0.032-3.278-2.001-6.151-6.056-8.624l0.764-1.359c1.301,1.073,2.729,1.689,4.291,1.824
	c2.369,0.201,4.204-0.734,5.506-2.803c1.268-2.002,1.418-3.721,0.45-5.155c-0.768-1.168-2.269-2.569-4.505-4.204
	c-0.228-0.167-0.441-0.33-0.654-0.492c1.587-3.774,2.741-6.968,3.457-9.573c3.546-1.703,6.155-4.797,7.809-9.306
	C93.148,96.772,93.6,91.45,92.799,85.41z"/>
</svg>
