<?xml version="1.0" encoding="utf-8"?>
<!-- Generator: Adobe Illustrator 16.0.0, SVG Export Plug-In . SVG Version: 6.00 Build 0)  -->
<!DOCTYPE svg PUBLIC "-//W3C//DTD SVG 1.1//EN" "http://www.w3.org/Graphics/SVG/1.1/DTD/svg11.dtd">
<svg version="1.1" id="图层_1" xmlns="http://www.w3.org/2000/svg" xmlns:xlink="http://www.w3.org/1999/xlink" x="0px" y="0px"
	 width="237px" height="294px" viewBox="0 0 237 294" enable-background="new 0 0 237 294" xml:space="preserve">
<path d="M232.976,126.545c-2.437-8.346-5.926-17.126-10.466-26.34c-10.816-21.967-23.086-38.342-36.807-49.125
	c5.509-5.508,9.182-13.053,11.018-22.635c1.368-7.244,1.568-14.188,0.601-20.832c-0.567-4.106-1.569-6.527-3.005-7.261
	c-1.235-0.701-3.422-0.284-6.561,1.252c-5.675,2.771-11.05,7.144-16.124,13.12c-6.343,7.511-10.383,15.791-12.118,24.838
	c-16.225-3.004-34.954-2.754-56.187,0.751c-21.399,3.539-35.538,8.78-42.415,15.724c-0.801,0.835-1.318,1.502-1.552,2.003
	c-0.234,0.567-0.25,1.218-0.05,1.953c0.834,3.205,5.074,8.046,12.719,14.522c5.851,4.928,13.126,10.362,21.793,16.291
	c-0.672,2.492-1.167,5.071-1.462,7.746c-0.768,6.844-0.117,13.538,1.953,20.081c1.874,5.828,4.712,11.089,8.513,15.786
	c-0.038,0.694,0.21,1.873,0.751,3.543c0.67,1.982,1.476,3.803,2.401,5.48c-6.514-2.116-13.983-6.113-22.432-12.04
	c-6.631-4.604-13.037-9.79-19.218-15.558c-7.308-7.271-13.949-14.816-19.892-22.651c-2.95-3.899-5.472-7.568-7.597-11.024
	c-4.711-8.401-7.056-15.861-7.025-22.377c0.034-5.675,2.12-10.032,6.26-13.07c4.374-3.205,10.166-4.257,17.376-3.155
	c0.401,0.033,0.801-0.15,1.202-0.551c0.534-0.534,1.202-1.586,2.003-3.155c0.801-1.536,1.168-2.471,1.102-2.805
	c-0.634-3.672-2.403-8.179-5.308-13.521c-2.904-5.342-5.191-8.279-6.86-8.813c-5.141-1.636-10.416-2.153-15.824-1.552
	c-5.408,0.567-10.333,2.203-14.772,4.907C4.843,24.222-0.131,33.586,0.069,46.172c0.333,22.734,12.335,44.501,36.005,65.3
	c9.849,8.68,21.032,16.475,33.551,23.386c11.397,6.27,22.681,11.173,33.854,14.728l-4.91,9.159l-12.819-0.4
	c-5.008,0.434-7.745,1.452-8.213,3.055c-0.4,1.402,1.269,3.806,5.008,7.211c3.425,3.076,7.66,6.184,12.682,9.32
	c0.121,2.313,0.397,4.908,0.838,7.806c0.835,5.274,1.77,8.396,2.805,9.364c0.634,0.534,3.522-0.384,8.663-2.754
	c3.306-1.53,6.119-3.049,8.452-4.554c5.217,1.735,10.119,3.016,14.684,3.802c4.841,0.835,7.562,0.835,8.163,0
	c1.068-1.401,0.551-4.223-1.553-8.463c-2.104-4.206-4.657-7.628-7.662-10.266c0.61-1.478,1.954-4.438,4.019-8.853
	c10.996,4.83,21.658,13.748,31.987,26.78c9.18,11.584,16.608,24.305,22.283,38.158c4.34,10.617,7.012,20.516,8.013,29.695
	c1.001,9.048,0.267,16.292-2.203,21.734c-0.301,0.768-0.15,1.552,0.45,2.354c1.937,2.637,6.076,5.074,12.42,7.311
	c6.275,2.17,11.417,3.021,15.423,2.555c2.204-0.234,3.539-0.919,4.007-2.054c2.57-6.276,3.037-15.374,1.401-27.292
	c-1.803-12.92-5.642-24.705-11.518-35.354c-9.748-17.661-20.915-31.982-33.501-42.967c-12.316-10.715-27.615-19.62-45.879-26.724
	l0.459-0.918c4.826-0.679,7.666-1.336,8.537-1.974c14.263,0.744,26.844-3.313,37.734-12.198c1.329-1.085,2.574-2.211,3.757-3.367
	c7.96,3.051,15.774,5.653,23.435,7.774c12.318,3.371,20.147,4.206,23.486,2.504c0.701-0.367,1.201-0.852,1.502-1.453l0.551-2.654
	C236.414,141.284,235.412,134.824,232.976,126.545z"/>
</svg>
