<?xml version="1.0" encoding="utf-8"?>
<!-- Generator: Adobe Illustrator 16.0.0, SVG Export Plug-In . SVG Version: 6.00 Build 0)  -->
<!DOCTYPE svg PUBLIC "-//W3C//DTD SVG 1.1//EN" "http://www.w3.org/Graphics/SVG/1.1/DTD/svg11.dtd">
<svg version="1.1" id="图层_1" xmlns="http://www.w3.org/2000/svg" xmlns:xlink="http://www.w3.org/1999/xlink" x="0px" y="0px"
	 width="379px" height="388px" viewBox="0 0 379 388" enable-background="new 0 0 379 388" xml:space="preserve">
<path d="M377.927,203.671c-0.633-8.862-5.181-23.007-13.645-42.434c-7.664-17.593-14.645-31.104-20.941-40.534
	c-2.233-3.365-3.166-3.382-2.8-0.05c1.366,12.195,0.75,29.605-1.849,52.229l-2.999,23.491c-1.033,7.696-1.566,12.661-1.6,14.894
	c-0.267,9.631,5.731,17.794,17.993,24.491c0.267,8.363-2.049,20.075-6.947,35.136c-2.296,7.049-4.669,13.188-7.119,18.422
	c1.092-10.031,0.185-19.79-2.777-29.268c-2.599-8.229-6.88-15.077-12.845-20.541c-5.465-4.998-11.778-8.363-18.943-10.097
	c-0.474-0.115-0.944-0.203-1.416-0.303c-0.182-7.847-3.701-19.234-10.578-34.185c-6.831-14.96-13.662-26.356-20.492-34.186
	c-1.267-1.466-2.033-2.016-2.299-1.649c-0.234,0.3-0.217,1.366,0.049,3.199c0.768,5.265,0.783,11.362,0.051,18.293
	c-0.467,4.631-1.55,11.479-3.249,20.542l-2.349,12.445c-0.801,4.731-1.2,8.663-1.2,11.796c0,2.173,0.31,4.519,0.909,7.025
	c-1.76-2.109-3.708-4.186-5.857-6.227c-10.484-9.942-22.924-16.814-37.311-20.631c1.396-1.418,3.436-4.716,6.123-9.907
	c2.898-5.564,4.765-9.529,5.598-11.895c0.967-2.699-4.182,0.117-15.443,8.447l-0.201-11.346c-0.166-4.132-0.332-6.498-0.499-7.097
	c-0.433-1.4-3.198,1.1-8.297,7.497l-1.163,1.551c-0.249-1.448-0.922-4.347-2.035-8.748c-1.133-4.398-1.283-7.88-0.45-10.446
	c0.866-2.666,2.799-5.831,5.798-9.496c2.799-3.399,4.664-5.915,5.598-7.547c1.933-3.365,3.065-7.08,3.398-11.146
	c0.434-5.831-0.949-11.212-4.148-16.144c-1.633-2.532-5.465-6.881-11.496-13.045c-5.297-5.432-9.18-9.729-11.645-12.895
	c-4.099-5.265-6.198-11.413-6.298-18.443c-0.066-3.732,0.733-9.83,2.399-18.293c1.233-6.231,1.883-10.763,1.949-13.595
	c0.2-10.763-3.449-20.559-10.946-29.389C171.59,6.098,165.009,1.599,158.212,0.1c-1.266-0.267-1.316,0.317-0.15,1.75l5.848,7.247
	c6.797,9.497,9.93,19.509,9.396,30.039c-0.2,3.798-1.466,7.98-3.798,12.545l-7.147,11.896c-4.565,7.264-7.564,12.662-8.997,16.194
	c-2.599,6.431-3.449,12.845-2.549,19.243c0.866,6.331,3.199,12.345,6.997,18.043c1.966,2.999,5.631,7.414,10.996,13.245
	c4.132,4.465,6.781,7.547,7.947,9.247c2.399,3.332,3.648,6.498,3.749,9.497c0.133,3.565-0.883,7.28-3.049,11.146l-6.348,9.247
	c-2.832,4.098-4.682,7.38-5.548,9.846c-1.266,3.519-1.474,7.227-0.651,11.118c-1.896-0.897-3.811-1.725-5.746-2.472
	c-5.898-2.266-7.63-2.066-5.198,0.6c1.766,1.933,4.032,5.248,6.797,9.946c2.282,3.854,3.928,6.937,4.945,9.261
	c-8.241,3.275-15.71,7.28-22.388,12.032c-7.824,5.556-14.085,11.84-18.818,18.835c-0.626-0.919-1.302-1.82-2.037-2.703
	c0.596-3.423,1.045-6.886,1.335-10.392c5.087-1.138,9.095-4.55,12.023-10.239c2.532-4.965,3.832-10.612,3.898-16.943
	c0.033-4.832-1.45-11.329-4.448-19.493l-9.546-23.741c-8.997-22.891-14.378-41.067-16.144-54.529
	c-0.233-1.899-0.55-2.899-0.949-2.999c-0.4-0.1-0.917,0.7-1.55,2.399c-5.897,15.894-9.996,35.27-12.295,58.127
	c-2,19.759-2.183,34.637-0.55,44.633c0.899,5.598,2.965,10.362,6.197,14.294c3.132,3.766,7.031,6.365,11.696,7.797l0.359,0.007
	c-0.055,0.844-0.124,1.688-0.201,2.53c-5.65-3.113-12.427-4.686-20.351-4.686c-14.028,0-25.357,4.914-33.987,14.744
	s-12.745,22.541-12.345,38.135c0.292,10.348,2.699,20.133,7.185,29.363c-4.541-4.954-9.268-12.17-14.182-21.666
	c-6.238-12.117-9.807-22.171-10.723-30.171c3.251-1.613,5.897-4.061,7.923-7.364c3.499-5.698,4.848-13.395,4.049-23.092
	c-0.733-8.863-3.699-21.291-8.897-37.285c-4.798-14.794-9.863-27.822-15.194-39.085c-1.6-3.332-2.433-3.115-2.499,0.65
	c-0.1,7.464-0.983,15.994-2.649,25.59c-0.966,5.598-2.699,13.828-5.198,24.69c-2.132,9.43-3.499,15.827-4.098,19.192
	c-1.1,6.364-1.5,11.479-1.2,15.345c0.466,6.098,2.499,11.278,6.098,15.543c3,3.55,6.507,5.885,10.507,7.028
	c0.01,0.134,0.022,0.271,0.039,0.419c1.266,11.463,5.598,23.008,12.995,34.637c8.213,12.884,17.942,21.552,29.176,26.029
	c4.098,5.901,9.122,11.556,15.106,16.954c13.995,12.528,29.739,20.409,47.232,23.642c20.15,3.698,39.474,0.192,57.977-10.479
	c2.497,9.924,6.14,19.449,10.946,28.57c4.799,9.098,8.53,13.646,11.195,13.646c0.967,0,2.684-1.8,5.148-5.397
	c2.666-3.933,5.231-8.631,7.697-14.096c3.283-7.285,5.692-14.32,7.237-21.108c10.151,6.236,22.049,10.042,35.696,11.413
	c17.66,1.799,32.887-1.6,45.682-10.196c7.364-4.932,13.879-11.296,19.543-19.093c5.543-7.665,9.684-15.925,12.457-24.764
	c8.118-7.223,14.596-16.061,19.431-26.517c5.531-11.862,9.08-26.073,10.646-42.634c5.265-3.398,8.964-8.213,11.096-14.444
	C377.761,215.8,378.394,210.068,377.927,203.671z M93.487,271.245c-1.333-1.366-1.999-3.299-1.999-5.798
	c0-2.033,0.75-3.715,2.249-5.048c1.399-1.267,3.082-1.899,5.048-1.899c1.785,0,3.338,0.669,4.665,1.993
	c-1.867,4.208-4.014,8.405-6.447,12.591C95.57,272.752,94.39,272.148,93.487,271.245z M105.716,255.019
	c-1.145-2.608-2.837-4.565-5.082-5.865c-5.131-2.933-10.463-2.865-15.994,0.2c-5.965,3.332-8.88,8.813-8.747,16.443
	c0.1,4.898,1.383,9.097,3.849,12.596c2.204,3.166,5.257,5.556,9.138,7.189c-5.3,7.414-10.739,13.822-16.317,19.212
	c-6.639-10.151-9.964-20.335-9.964-30.55c0-9.696,2.949-18.109,8.846-25.24c5.831-7.031,12.595-10.547,20.292-10.547
	c3.865,0,7.38,0.834,10.546,2.5c2.579,1.331,4.712,3.084,6.414,5.245C107.843,249.146,106.845,252.085,105.716,255.019z
	 M152.464,346.716c-7.597,0.433-16.477-0.333-26.64-2.3c-7.264-1.432-15.578-5.281-24.94-11.545
	c-10.126-6.815-18.484-14.651-25.101-23.49c8.83-5.731,16.646-12.917,23.445-21.559c1.283,0.066,2.556,0.088,3.804,0.017
	c5.57-0.213,10.471-1.894,14.709-5.023c3.046,7.756,7.282,14.369,12.73,19.817c4.449,4.421,10.213,8.55,17.265,12.392
	c0.18,0.305,0.418,0.621,0.729,0.953c1.999,2.199,5.731,4.599,11.196,7.197c5.464,2.599,11.179,4.665,17.143,6.198
	c0.097,3.928,0.671,8.271,1.701,13.008C167.479,344.898,158.796,346.346,152.464,346.716z M296.608,338.169
	c-11.829,8.663-25.673,12.362-41.534,11.096c-10.355-0.82-21.149-3.732-32.373-8.681c0.704-4.747,0.973-9.369,0.785-13.86
	c6.265-2.565,11.746-5.448,16.443-8.646c4.066-2.732,7.015-5.331,8.848-7.798c1.1-1.499,1.615-2.564,1.549-3.198
	c-0.018-0.12-0.064-0.237-0.125-0.353c6.998-5.424,12.7-11.713,17.068-18.89c0.423-0.691,0.821-1.383,1.208-2.074
	c2.163,1.863,4.678,3.434,7.589,4.673c7.526,3.143,14.564,3.436,21.117,0.889c5.705,9.124,12.479,15.163,20.322,18.113
	C312.902,321.743,305.941,331.326,296.608,338.169z M274.742,260.548c0.38-2.828,1.509-5.543,3.384-8.146
	c1.627,0.659,3.352,1.166,5.188,1.5l0.477,2.119c-0.495,0.633-0.948,1.299-1.326,2.029c-1.333,2.598-1.565,5.264-0.7,7.996
	c0.967,2.898,2.866,4.632,5.698,5.198l0.507-0.041c0.871,2.581,1.761,4.988,2.67,7.22c-3.389,0.07-6.646-1.07-9.773-3.43
	c-3.539-2.653-5.562-5.96-6.104-9.902c0.032-0.665,0.055-1.329,0.055-1.994C274.816,262.243,274.791,261.394,274.742,260.548z
	 M300.157,272.195c-0.039,0.091-0.09,0.171-0.131,0.26c-1.256-3.707-2.341-7.255-3.256-10.646c0.796,0.467,1.558,1.195,2.287,2.188
	C301.057,266.63,301.424,269.362,300.157,272.195z M319.004,305.099c-2.125-1.025-4.39-3.252-6.802-6.714
	c-2.257-3.184-4.499-7.24-6.728-12.146c3.839-3.508,6.138-8.002,6.878-13.495c0.833-6.131-0.899-11.495-5.198-16.094
	c-3.73-4.053-8.019-5.993-12.862-5.826l-0.183-1.07c2.088-1.491,3.724-3.434,4.958-5.779c2.628,0.658,5.307,1.864,8.037,3.629
	c6.265,4.032,10.496,9.664,12.695,16.895C323.715,277.305,323.447,290.839,319.004,305.099z"/>
</svg>
