<?xml version="1.0" encoding="utf-8"?>
<!-- Generator: Adobe Illustrator 16.0.0, SVG Export Plug-In . SVG Version: 6.00 Build 0)  -->
<!DOCTYPE svg PUBLIC "-//W3C//DTD SVG 1.1//EN" "http://www.w3.org/Graphics/SVG/1.1/DTD/svg11.dtd">
<svg version="1.1" id="图层_1" xmlns="http://www.w3.org/2000/svg" xmlns:xlink="http://www.w3.org/1999/xlink" x="0px" y="0px"
	 width="325px" height="271px" viewBox="0 0 325 271" enable-background="new 0 0 325 271" xml:space="preserve">
<path d="M319.153,140.546c-1.832-3.231-3.831-6.479-5.996-9.744l-5.297-7.645c-1.6-2.299-2.749-4.397-3.448-6.296
	c-0.666-1.699-1.217-3.98-1.648-6.846c-0.5-3.331-1.582-5.729-3.248-7.195c-1.166-1.066-2.998-1.882-5.496-2.449
	c-2.052-0.485-4.098-0.76-6.139-0.871c-4.564-7.647-10.021-14.578-16.398-20.766c-6.028-5.896-14.041-12.143-24.034-18.738
	c-4.996-3.298-7.462-6.712-7.396-10.244c0.034-1.266,0.399-2.932,1.101-4.997L243,39.208c2.299-8.528,1.816-16.14-1.449-22.836
	c-2.932-6.096-7.629-10.594-14.091-13.492c-6.329-2.832-12.876-3.531-19.638-2.099c-7.264,1.532-13.275,5.263-18.039,11.193
	c-2.032,2.532-3.698,3.964-4.997,4.297c-1.599,0.4-4.765-0.033-9.494-1.299c-12.992-3.464-27.883-2.515-44.673,2.848l-5.347,0.35
	c-2.099-0.4-4.014-1.433-5.746-3.098c-3.032-2.932-5.697-5.047-7.995-6.346c-3.998-2.232-8.412-3.298-13.242-3.198
	c-5.663,0.1-10.81,1.582-15.44,4.447c-4.464,2.798-7.928,6.563-10.394,11.293c-2.499,4.83-3.614,10.144-3.348,15.94
	c0.266,6.196,2.148,12.359,5.646,18.489c0.933,1.599,1.416,2.998,1.449,4.197c0.034,1.333-0.483,2.682-1.549,4.048
	c-3.955,5.079-7.292,10.152-10.052,15.22c-6.396,4.303-11.963,9.566-16.682,15.811c-3.936,5.239-7.337,11.269-10.227,18.06
	c-0.852,0.061-1.706,0.157-2.566,0.329c-5.263,1.033-8.794,3.814-10.593,8.345c-0.433,1.133-0.683,3.265-0.75,6.396
	c-0.033,1.632-1.283,3.098-3.748,4.397c-6.263,3.331-11.177,7.829-14.741,13.491c-3.165,5.098-4.914,10.594-5.247,16.489
	c-0.333,5.598,0.683,10.61,3.048,15.041c2.465,4.598,5.93,7.713,10.394,9.345c5.23,1.966,9.494,4.364,12.792,7.194
	c5.03,4.299,10.776,5.715,17.239,4.248c6.363-1.433,11.01-5.063,13.941-10.894c3.731-0.267,6.596-1.449,8.595-3.548
	c2.176-2.256,3.482-5.663,3.946-10.188c4.564,5.7,10,10.737,16.342,15.084c2.499,1.699,4.064,3.148,4.697,4.348
	c0.667,1.232,0.866,3.133,0.6,5.697c-0.3,2.864-0.933,5.131-1.899,6.795c-1.366,2.332-3.598,4.148-6.696,5.447
	c-6.463,2.631-12.942,5.797-19.438,9.494c-8.361,4.73-14.141,8.944-17.339,12.643c-3.065,3.531-5.18,7.563-6.346,12.093
	c-1.166,4.563-1.133,8.711,0.1,12.442c1.299,4.03,3.831,6.928,7.596,8.693c4.197,1.966,9.594,2.266,16.19,0.9
	c10.494-2.133,20.487-7.029,29.981-14.691c9.827-7.928,15.724-16.24,17.689-24.936c0.333-1.531,0.417-3.465,0.25-5.795
	c-0.133-2.398-0.5-4.299-1.099-5.697c-0.566-1.332-0.833-2.432-0.8-3.299c0-0.633,0.2-1.516,0.6-2.647
	c0.466-1.433,1.049-2.864,1.749-4.298c0.4-0.799,0.966-1.148,1.699-1.049c0.266,0.033,1.049,0.316,2.348,0.85
	c12.826,5.396,25.967,7.995,39.426,7.795c10.127-0.133,21.502-1.982,34.129-5.547c4.797-1.332,7.912,0.051,9.344,4.148l1.799,5.596
	c1.133,3.932,1.566,6.43,1.299,7.496c-1.132,4.563-0.766,9.326,1.1,14.291c1.9,4.996,5.064,9.561,9.494,13.691
	c10.194,9.493,23.502,14.092,39.927,13.791c10.793-0.199,17.938-4.015,21.438-11.442c1.497-3.198,1.965-6.579,1.397-10.144
	c-0.566-3.599-2.115-6.863-4.646-9.795c-3.666-4.23-8.146-7.962-13.442-11.193c-4.132-2.498-9.96-5.379-17.489-8.645
	c-3.398-1.466-6.346-3.113-8.846-4.947c-3.03-2.197-5.063-4.464-6.096-6.795c-1.531-2.799-1.998-5.029-1.398-6.695
	c0.5-1.299,2.049-2.85,4.646-4.647c5.43-3.798,10.327-8.146,14.69-13.042c3.138-3.518,5.884-7.207,8.254-11.063
	c1.308,1.474,2.935,2.797,4.89,3.968c0.166,6.495,2.748,11.893,7.743,16.188c5.265,4.531,11.927,6.613,19.988,6.247
	c7.828-0.333,14.856-2.149,21.087-5.446c5.996-3.131,10.693-7.295,14.092-12.492c3.432-5.264,5.196-10.993,5.296-17.188
	C324.483,153.354,322.751,146.908,319.153,140.546z M260.59,116.257c-0.475-4.086-1.189-7.8-2.148-11.14l4.197,4.498
	c0.067,0.078,0.129,0.151,0.193,0.229c-0.809,1.314-1.412,2.734-1.793,4.269C260.841,114.894,260.7,115.596,260.59,116.257z
	 M263.438,127.354c-0.199,0.533-0.783,1.283-1.748,2.249c-0.139,0.136-0.268,0.273-0.402,0.409c0-0.054,0.003-0.105,0.003-0.159
	c0.01-2.824-0.073-5.505-0.228-8.075c0.347,0.817,0.816,1.627,1.426,2.429C263.421,125.372,263.736,126.421,263.438,127.354z"/>
</svg>
