<?xml version="1.0" encoding="utf-8"?>
<!-- Generator: Adobe Illustrator 16.0.0, SVG Export Plug-In . SVG Version: 6.00 Build 0)  -->
<!DOCTYPE svg PUBLIC "-//W3C//DTD SVG 1.1//EN" "http://www.w3.org/Graphics/SVG/1.1/DTD/svg11.dtd">
<svg version="1.1" id="图层_1" xmlns="http://www.w3.org/2000/svg" xmlns:xlink="http://www.w3.org/1999/xlink" x="0px" y="0px"
	 width="154px" height="217px" viewBox="0 0 154 217" enable-background="new 0 0 154 217" xml:space="preserve">
<path d="M149.012,141.001c-2.633-2.063-5.422-3.716-8.35-5c1.697-6.376,1.792-13.156,0.268-20.343
	c-3.16-14.899-9.795-27.088-19.904-36.566c-8.839-8.345-19.223-13.429-31.143-15.271c-6.98-6.385-15.238-16.353-24.781-29.926
	C55.657,20.392,49.62,10.132,46.993,3.114c-0.699-1.829-1.813-2.744-3.343-2.744c-1.23,0-2.345,0.183-3.342,0.549
	c-0.964,0.299-1.646,0.715-2.045,1.247c-1.43,1.83-2.345,3.775-2.744,5.837c-2.428,13.237-3.342,30.348-2.744,51.333
	c0.588,21.243,2.664,38.791,6.222,52.652c-0.079,2.291-0.009,4.485,0.22,6.578c-3.357,1.679-5.482,3.468-6.342,5.372
	c-1.179,2.583-1.761,5.212-1.774,7.885c-3.626,4.227-6.693,8.247-9.189,12.058c-1.625-1.47-3.306-2.737-5.05-3.778
	c-2.261-1.363-3.891-1.863-4.889-1.497c-2.156,0.804-3.453,4.888-3.896,12.228l-3.736,0.145c-0.632,0.365-0.781,1.463-0.449,3.293
	c0.162,0.811,0.37,1.568,0.619,2.276c-1.19,0.41-2.202,0.927-3.013,1.564c-0.932,0.665-1.43,1.33-1.497,1.995
	c-0.067,1.031,1.097,2.545,3.492,4.54c1.674,1.428,3.347,2.526,5.021,3.311c-1.937,4.668-3.431,8.791-4.472,12.354
	c-1.131,4.091-1.064,7.882,0.2,11.374c0.565,1.53,1.497,3.559,2.793,6.086c0.787,1.554,1.595,3.039,2.418,4.47
	c-0.484,0.957-0.958,2.04-1.42,3.263l-1.098,3.193c-0.2,0.799-0.183,1.496,0.05,2.096c0.233,0.598,0.749,1.146,1.546,1.646
	c3.559,2.395,7.267,3.691,11.125,3.891c3.658,0.199,7.233-0.582,10.726-2.345c1.43-0.731,1.879-2.146,1.347-4.24
	c-0.482-1.896-1.207-3.793-2.152-5.689c2.299-1.14,4.794-2.599,7.49-4.388c0.328-0.216,0.625-0.422,0.931-0.631
	c6.414,1.793,13.333,2.246,20.77,1.329c2.209-0.272,4.365-0.665,6.479-1.152c1.114,0.695,2.295,1.509,3.549,2.449
	c0.912,0.661,1.719,1.291,2.438,1.896l-0.792,2.794c-0.199,1.397,0.2,2.494,1.197,3.292c0.499,0.366,1.414,0.815,2.744,1.348
	l3.342,1.098l7.184,0.698l6.535-0.349c0.865-0.4,1.613-1.364,2.246-2.895c0.564-1.396,0.764-2.494,0.598-3.292l-1.098-2.395
	c-0.52-0.876-1.124-1.653-1.779-2.371c5.042-3.623,8.305-6.362,9.762-8.205c0.731-0.897,1.164-1.929,1.297-3.093
	c0.133-1.131-0.017-2.512-0.449-4.141c-0.365-1.463-0.998-3.209-1.896-5.238l-2.065-3.976c1.05-1.961,1.81-3.95,2.276-5.968
	c4.808-0.496,9.447-1.199,13.907-2.129c5.288-1.098,9.162-2.278,11.623-3.542c1.764-0.897,3.592-2.444,5.488-4.64
	c1.896-2.162,2.71-3.658,2.444-4.49c-0.226-0.707-0.99-1.206-2.271-1.51c0.213-0.769,0.381-1.621,0.502-2.562
	c4.385,0.141,8.849-0.246,13.393-1.167c5.188-1.03,7.898-2.261,8.131-3.691C153.783,145.574,152.271,143.529,149.012,141.001z"/>
</svg>
