<?xml version="1.0" encoding="utf-8"?>
<!-- Generator: Adobe Illustrator 16.0.0, SVG Export Plug-In . SVG Version: 6.00 Build 0)  -->
<!DOCTYPE svg PUBLIC "-//W3C//DTD SVG 1.1//EN" "http://www.w3.org/Graphics/SVG/1.1/DTD/svg11.dtd">
<svg version="1.1" id="图层_1" xmlns="http://www.w3.org/2000/svg" xmlns:xlink="http://www.w3.org/1999/xlink" x="0px" y="0px"
	 width="336px" height="310px" viewBox="0 0 336 310" enable-background="new 0 0 336 310" xml:space="preserve">
<path d="M335.399,119.759c-0.033-1.834-0.583-2.935-1.65-3.302c-1.034-0.333-2.367,0.067-4.002,1.201
	c-5.102,3.535-12.355,10.788-21.76,21.76c-8.81,10.283-16.717,20.535-23.741,30.757c-3.76,1.835-8.83,3.721-15.227,5.659
	c-9.182,2.778-16.536,4.269-22.105,4.508l-0.004-0.006c-0.199-0.566-0.35-1.484-0.45-2.751c-0.467-4.368-2.151-12.038-5.052-23.01
	c-2.361-8.776-4.28-15.334-5.762-19.689c3.733-5.438,4.938-12.03,3.61-19.779c-1.435-8.137-5.902-15.04-13.405-20.709
	c-4.555-3.464-8.814-5.508-12.779-6.148c-0.141-0.815-0.302-1.634-0.484-2.458c20.839-6.799,44.047-15.864,69.639-27.209
	c2-0.867,2.951-2.001,2.852-3.402c-0.101-1.434-1.418-2.151-3.953-2.151c-23.707-0.12-49.813,3.157-78.304,9.809
	c-3.472-5.672-7.767-11.526-12.886-17.562c-5.803-6.836-11.889-12.873-18.259-18.108c-6.37-5.236-12.089-8.904-17.158-11.005
	c-2.234-0.867-3.768-0.25-4.602,1.851l-3.803,8.377c-5.498-6.112-11.413-11.445-17.756-15.98
	c-6.803-4.902-13.206-8.237-19.208-10.004l-2.551-0.05c-0.6,0.333-0.967,1.034-1.101,2.101l-2.251,14.306
	c-1.134,6.703-2.067,11.555-2.801,14.557c-0.459,1.814-1.248,3.201-2.356,4.173c-13.471,1.863-24.777,8.369-33.91,19.538
	c-9.137,11.205-13.473,23.344-13.006,36.417c0.069,1.856,0.359,3.805,0.848,5.837c-6.342,1.627-15.46,4.983-27.359,10.069
	c-12.572,5.402-20.426,9.371-23.561,11.905c-0.934,0.734-1.267,1.468-1,2.201c0.267,0.7,0.984,1.034,2.151,1
	c6.77-0.1,17.341-1.234,31.714-3.401c12.17-1.851,20.828-3.421,25.977-4.711c1.308,1.82,2.684,3.433,4.137,4.812
	c0.8,0.767,1.618,1.134,2.451,1.1c0.867-0.033,1.684-0.517,2.451-1.451c0.281-0.338,0.55-0.659,0.824-0.987
	c3.842,4.964,10.662,9.61,20.454,13.939c-3.172,5.741-3.927,11.785-2.254,18.134c-3.049,6.211-7.386,16.099-13.021,29.691
	c-0.101,0.245-0.189,0.485-0.279,0.727c-1.435-0.513-3.003-1.182-4.723-2.027c-1.901-0.934-3.452-1.801-4.652-2.602
	c-1.467-1-2.667-1.2-3.602-0.6c-0.934,0.6-1.083,1.734-0.45,3.401c0.754,2.059,1.802,3.97,3.11,5.75l-1.81-0.048l-6.253-0.75
	c-1.768-0.267-2.901,0.066-3.401,1c-0.534,1.034,0.033,2.352,1.701,3.952c1.334,1.334,3.235,2.852,5.703,4.552
	c2.134,1.501,4.185,2.802,6.153,3.902c0.934,0.533,1.834,1.2,2.701,2.001c0.42,0.377,0.766,0.731,1.061,1.07
	c0.22,1.255,0.482,2.548,0.79,3.882c0.667,2.801,1.301,4.836,1.901,6.103c0.634,1.334,1.467,1.984,2.501,1.951
	c1.067-0.067,1.884-0.917,2.451-2.552c1.268-3.468,2.385-6.152,3.352-8.053c1.402-2.804,2.879-4.969,4.432-6.495
	c1.104-0.316,2.194-0.818,3.272-1.509c3.335-2.135,6.603-4.502,9.804-7.104c3.698-3.029,6.569-5.802,8.615-8.322
	c1.156,2.061,2.46,4.07,3.909,6.031c0.671,7.248,2.173,15.581,4.514,25.008c-5.645,5.285-12.184,12.122-19.639,20.553
	c-8.237,9.305-12.939,15.34-14.106,18.107c-1.348,3.256-2.906,13.685-4.675,31.259c-1.681,0.37-4.788,1.854-9.331,4.458
	c-5.069,2.9-8.554,5.235-10.455,7.003c-0.934,0.833-1.3,1.517-1.1,2.051c0.2,0.534,0.883,0.8,2.051,0.8l11.574-0.516
	c-1.963,1.603-3.579,3.063-4.821,4.368c-0.833,0.934-1.15,1.718-0.95,2.351c0.2,0.667,1.034,0.851,2.501,0.551
	c6.203-1.301,15.374-2.785,27.512-4.452c0.527-0.071,0.962-0.217,1.337-0.409l7.617-0.791l9.754-0.423
	c0.15,0.09,0.317,0.163,0.5,0.222l7.003,1.651l5.953,1.15c3.001,0.467,3.818-0.583,2.451-3.151c-0.65-1.24-1.826-2.89-3.522-4.941
	c-0.054-2.762,0.111-5.245,0.521-7.414c0.4-2.301,0.967-3.769,1.701-4.402c1.4-1.133,5.486-3.284,12.255-6.453
	c5.892-2.744,10.968-4.922,15.234-6.54c6.579,2.458,14.335,4.423,23.283,5.891c16.393,2.694,32.402,3.43,48.037,2.237
	c0.686,0.336,1.364,0.689,2.035,1.064c2.502,1.434,4.186,2.717,5.053,3.852c0.434,0.566,0.617,1.801,0.55,3.701
	c-0.096,1.901-0.408,3.647-0.925,5.247c-1.451,0.563-3.156,1.656-5.128,3.307c-2.501,2.067-4.368,4.019-5.603,5.853
	c-0.666,1.001-0.816,1.668-0.45,2.001l2.201,0.15l7.753-0.55l6.953-0.25c0.608,0,1.113-0.176,1.527-0.508
	c2.258,0.436,4.774,1.064,7.577,1.908c2.375,0.708,4.222,1.36,5.565,1.959c0.318,0.379,0.726,0.697,1.238,0.941l9.203,4.303
	l10.005,4.151c1.601,0.601,2.651,0.667,3.151,0.2c0.467-0.434,0.551-1.451,0.25-3.051c-0.391-2.078-1.229-4.495-2.508-7.245
	l1.674-0.354c0.445,0.43,1.017,0.702,1.734,0.795c3.701,0.567,7.504,1.317,11.405,2.251c4.335,1,7.587,1.951,9.755,2.852l3.001,0.1
	c0.833-0.533,0.8-1.7-0.101-3.501c-1.667-3.302-4.652-7.054-8.953-11.255c-3.611-3.527-6.281-5.542-8.036-6.085
	c0.109-4.583,0.071-10.05-0.118-16.425c-0.215-7.315-0.56-13.124-1.029-17.465c4.469-3.253,10.479-9.779,18.037-19.603
	c7.87-10.271,13.373-18.725,16.507-25.361c4.103-8.704,7.954-22.376,11.556-41.019C333.916,145.504,335.6,130.764,335.399,119.759z"
	/>
</svg>
