<?xml version="1.0" encoding="utf-8"?>
<!-- Generator: Adobe Illustrator 16.0.0, SVG Export Plug-In . SVG Version: 6.00 Build 0)  -->
<!DOCTYPE svg PUBLIC "-//W3C//DTD SVG 1.1//EN" "http://www.w3.org/Graphics/SVG/1.1/DTD/svg11.dtd">
<svg version="1.1" id="图层_1" xmlns="http://www.w3.org/2000/svg" xmlns:xlink="http://www.w3.org/1999/xlink" x="0px" y="0px"
	 width="390px" height="421px" viewBox="0 0 390 421" enable-background="new 0 0 390 421" xml:space="preserve">
<path d="M389.246,110.426c-0.733-3.801-2.317-8.135-4.751-13.003c-2.112-4.225-4.404-7.938-6.87-11.152
	c0.496-2.604,0.645-4.896,0.419-6.853c-0.367-3.401-1.834-6.151-4.401-8.252l-11.203-9.452c-1.4-1.167-2.351-2.217-2.851-3.151
	s-0.783-2.15-0.85-3.651l-0.05-6.952c-0.067-1.034-0.251-1.817-0.551-2.351c-0.366-0.567-0.983-1.05-1.851-1.45
	c-3.601-1.767-6.301-3.268-8.102-4.501c-1.634-1.034-2.501-1.917-2.601-2.651c-0.267-1.634-0.384-3.451-0.351-5.451l0.2-4.751
	c0.033-1.234-0.217-2.134-0.75-2.701c-0.6-0.634-1.601-0.9-3.001-0.8c-4.2,0.3-8.651,1.1-13.353,2.4
	c-3.522,0.984-6.633,2.141-9.354,3.461c-5.157-3.773-14.174-8.911-27.056-15.414C276.686,6.052,265.533,1.5,258.465,0.1
	c-0.934-0.2-1.467-0.133-1.6,0.2c-0.134,0.333,0.199,0.75,1,1.25c6.734,4.268,14.07,9.302,22.005,15.104
	c9.259,6.819,16.377,12.583,21.41,17.318c-0.575,0.265-1.176,0.543-1.806,0.836c-4.268,2-7.318,3.484-9.152,4.451
	c-0.93,0.472-1.714,1.081-2.365,1.814c-1.667,0.675-3.484,1.586-5.436,2.71c-2.589-2.122-5.265-4.369-8.053-6.774
	c-15.104-13.003-26.373-23.922-33.808-32.758c-1.001-1.233-1.718-1.833-2.151-1.8c-0.5,0-0.482,0.967,0.051,2.901
	c3.646,12.62,9.98,25.643,18.981,39.065c-2.485,2.766-4.994,6.262-7.528,10.496c-2.237,3.721-4.01,7.204-5.318,10.45
	c-1.236,1.787-2.382,3.667-3.437,5.64c-1.395-1.615-2.877-3.877-4.448-6.788c-1.534-2.801-2.801-5.551-3.801-8.252
	c-0.334-0.833-0.817-0.883-1.451-0.15c-6.396,7.17-10.154,16.68-11.292,28.513c-3.324,3.318-6.908,7.82-10.763,13.547
	c-1.709,2.544-3.222,4.939-4.557,7.201c-2.199-4.458-4.332-8.129-6.396-11.002L197,94.123c-3,3.667-5.851,9.519-8.551,17.554
	c-2.589,7.703-4.264,15.096-5.045,22.187c-2.067,1.028-4.235,2.2-6.508,3.52c-6.201,3.534-11.886,7.385-17.054,11.553
	c-1.435,1.153-2.364,2.618-2.802,4.388c-0.661,0.142-1.291,0.335-1.889,0.584c-1.226-1.5-2.94-2.597-5.162-3.272
	c-1.6-0.467-3.367-1.384-5.301-2.75c-1.8-1.3-3.217-2.601-4.251-3.901c-1.467-1.834-2.484-4.018-3.051-6.552
	c-0.4-1.6-1.383-2.617-2.951-3.051l-1.754-0.641c-0.051-0.595-0.123-1.177-0.237-1.737c1.273-1.662,2.409-3.608,3.391-5.874
	c1.1-2.601,1.834-5.201,2.201-7.802c0.133-1.034,0.033-1.667-0.3-1.9c-0.367-0.233-1.117-0.067-2.25,0.5
	c-2.445,1.253-5.6,2.592-9.447,4.014l-0.405-0.613c-0.5-1.034-1.201-2-2.101-2.901c-0.602-0.641-1.216-1.14-1.841-1.528
	c-0.229-0.71-0.613-1.45-1.16-2.222c-1.567-2.234-3.184-4.968-4.851-8.202c-1.9-3.634-3.351-6.968-4.351-10.002
	c-0.767-2.134-1.567-2.184-2.4-0.15c-1.367,3.234-2.184,6.952-2.451,11.153c-0.3,4.601,0.184,8.702,1.45,12.303
	c0.263,0.764,0.646,1.414,1.139,1.96c-0.272,1.051-0.777,1.976-1.512,2.777c-0.202-0.118-0.408-0.232-0.627-0.336
	c-8.002-4.001-13.77-7.085-17.304-9.252c-1.867-1.134-2.451-0.6-1.75,1.6c1.2,3.667,2.768,7.202,4.701,10.603
	c2.034,3.534,4.101,6.302,6.202,8.302c0.44,0.423,0.901,0.784,1.383,1.085c-0.022,2.005,0.301,4.011,1.018,6.017
	c0.9,2.434,2.234,4.451,4.001,6.051c0.476,0.432,0.973,0.82,1.48,1.185c-0.015,4.972,1.843,8.672,5.622,11.068
	c13.27,8.569,21.372,13.604,24.306,15.104c3.128,1.577,6.299,1.889,9.512,0.98c1.865,3.376,5.056,5.375,9.593,5.971
	c3.945,0.493,7.272-0.17,10.001-1.95c0.884-0.012,1.892-0.06,3.051-0.15l4.951-0.601l0.294-0.015
	c-1.06,7.175-1.594,15.459-1.594,24.871c0,0.733,0.104,1.417,0.271,2.07c-1.656,8.001-5.942,14.583-12.874,19.735
	c-7.602,5.668-16.354,8.086-26.256,7.252c-1.472-0.127-2.701,0.115-3.689,0.723c-1.719-0.488-3.522-0.797-5.413-0.923
	c-4.401-0.3-9.702-1.45-15.904-3.45c-5.101-1.635-10.335-3.685-15.704-6.152c-1.501-0.644-3.102-0.881-4.797-0.727
	c-0.744-0.524-1.578-0.982-2.505-1.373c-4.334-1.834-10.986-6.803-19.955-14.904c-8.135-7.368-14.087-13.486-17.854-18.354
	c-0.566-0.734-1.267-1.417-2.1-2.051c-0.619-0.486-1.174-0.828-1.676-1.051l-1.725-2.3c-3.201-3.801-6.635-10.419-10.303-19.855
	c-0.303-0.773-0.591-1.538-0.88-2.303c-0.964-7.95-2.352-16.828-4.171-26.654c-1.834-9.969-3.368-17.087-4.602-21.355
	c-2.134-7.369-4.951-13.653-8.452-18.854C9.939,87.754,5.822,84.237,1.454,82.97c-1.034-0.3-1.45,0-1.25,0.9
	c2.134,8.702,3.551,17.587,4.251,26.656c0.534,6.835,0.717,14.653,0.55,23.456c-0.267,12.069,0.25,23.739,1.55,35.008
	c1.238,10.426,2.965,18.507,5.179,24.257c0.402,3.914,1.059,7.051,1.973,9.401c2.334,6.101,7.085,16.12,14.253,30.057
	c7.935,15.471,13.67,25.289,17.204,29.457l2.65,2.351l3.201,2.251l0.65,1.4c1.367,2.934,2.934,5.251,4.701,6.951
	c20.412,19.248,39.644,33.899,57.703,43.981c0.678,1.111,1.434,2.13,2.246,3.079c0.462,10.672-0.855,19.752-3.985,27.207
	c-3.301,7.836-8.802,14.42-16.504,19.755l-3.501,2.301c-1.567,0.899-3.018,1.483-4.351,1.75l-10.453,1.7
	c-1.267,0.134-2.384,0.518-3.351,1.15c-0.459,0.307-0.838,0.644-1.141,1.01l-0.309-0.01c-3.968,1.234-8.569,3.401-13.803,6.502
	c-5.335,3.201-9.586,6.368-12.753,9.502c-2,1.934-1.634,2.818,1.101,2.65l24.156-1.6c1.224-0.078,2.322-0.29,3.303-0.628
	c0.631,0.317,1.341,0.55,2.148,0.678l3.751-0.25c3.27-0.994,6.179-1.733,8.751-2.234c-2.759,2.819-5.51,6.313-8.251,10.486
	c-3.634,5.468-6.401,10.803-8.302,16.004c-0.467,1.267-0.55,2.017-0.25,2.251c0.367,0.267,1.234-0.018,2.601-0.851
	c8.102-5.034,16.071-9.485,23.906-13.354c0.918-0.459,1.716-1.027,2.417-1.682l1.434-0.219c1.134-0.3,2.067-0.667,2.801-1.1
	l7.302-4.651l7.202-5.451c0.733-0.634,1.367-1.051,1.9-1.25l2.101-0.501l6.602-0.35l6.139-0.038
	c0.517,0.313,1.065,0.625,1.663,0.938c2,1.067,3.984,1.867,5.951,2.401l3.822,0.421c0.553,0.483,1.177,0.896,1.88,1.229
	c8.835,4.001,14.437,6.635,16.804,7.901c1.5,0.801,2.451,1.084,2.851,0.851c0.433-0.233,0.433-1.101,0-2.601
	c-1.134-4.268-2.851-8.586-5.151-12.953c-2.367-4.501-4.634-7.668-6.802-9.502c-0.248-0.208-0.499-0.398-0.751-0.578
	c-0.58-1.297-1.408-2.293-2.5-2.973c-3.201-2.001-6.052-4.901-8.552-8.703c-2.801-4.268-4.201-8.385-4.201-12.353
	c0-5.051,0.83-9.056,2.478-12.028c6.623-1.732,12.876-4.756,18.754-9.083l17.627,0.657c6.087-0.208,11.542-0.721,16.382-1.531
	c0.714,0.1,1.499,0.133,2.373,0.08c17.87-1.293,32.886-6.115,45.056-14.456c2.653,1.172,5.352,2.183,8.095,3.032
	c2.41,2.042,4.447,4.162,6.063,6.373c1.934,2.667,2.917,4.968,2.95,6.901c0.1,6.135-1.467,11.37-4.701,15.704
	c-1.334,1.801-2.117,3.768-2.35,5.901c-0.234,2.134,0.116,4.134,1.05,6.001c1.8,3.602,2.834,5.835,3.101,6.701
	c0.467,1.435,1.25,2.701,2.351,3.802c0.673,0.694,1.369,1.226,2.088,1.619c0.194,0.749,0.44,1.508,0.763,2.282
	c1.967,4.667,4.617,9.618,7.952,14.854c0.634,1,1.167,1.467,1.601,1.4c0.366-0.101,0.684-0.701,0.949-1.801
	c1.635-6.436,2.468-12.453,2.501-18.055c0.008-0.867-0.032-1.682-0.11-2.454c0.576-0.876,0.887-2.034,0.91-3.497
	c0.01-0.552-0.029-1.104-0.099-1.656l6.45,0.605c2.29,0.347,4.315,0.797,6.107,1.337c1.837,1.387,3.927,3.017,6.296,4.915
	c5.168,4.102,8.786,6.301,10.853,6.602c1.578,0.268,2.902,0.086,4.002-0.497c0.547,0.298,1.126,0.552,1.75,0.747l10.252,3.451
	c5.201,1.8,9.186,3.25,11.953,4.351l1.75-0.05c0.167-0.4,0.017-1.018-0.45-1.851c-6.386-11.88-13.923-19.533-22.607-22.973
	c-0.903-0.949-2.34-1.695-4.3-2.239c1.973,0.267,3.725,0.801,5.252,1.606c3.468,1.8,5.552,2.801,6.252,3.001
	c1.7,0.466,3.309,0.267,4.829-0.575c0.667,0.241,1.373,0.403,2.122,0.475c5.702,0.501,12.403,1.584,20.105,3.251
	c2.334,0.467,2.733-0.25,1.2-2.15c-2.968-3.768-6.635-7.369-11.003-10.803c-4.367-3.434-8.302-5.801-11.803-7.102
	c-0.481-0.175-0.932-0.295-1.365-0.387c-0.505-0.6-1.188-1.11-2.086-1.514c-1.366-0.634-2.783-0.851-4.251-0.65
	c-1.667,0.267-3.75,0.25-6.251-0.05c-2.634-0.3-4.935-0.817-6.902-1.551l-7.102-3.001c-3.2-1.434-5.117-2.434-5.751-3l-1.771-1.193
	c-0.088-1.59-0.064-3.258,0.068-5.003c1.399-0.179,3.028-0.233,4.903-0.155c7.202,0.233,12.704-2.101,16.505-7.002
	c3.5-4.475,5.081-10.547,4.755-18.205c1.231-4.336,1.753-9.067,1.546-14.203c-0.319-6.846-1.927-12.357-4.795-16.563l0.095-0.739
	l-0.301-2.352c-1-3.667-3.034-7.318-6.102-10.952c-3-3.567-6.168-6.185-9.502-7.853c-0.877-0.431-1.771-0.823-2.68-1.184
	c-4.013-5.174-8.781-9.371-14.324-12.569c-5.167-3.014-10.406-4.807-15.715-5.409l-1.989-9.494
	c-1.085-5.581-1.722-10.189-1.921-13.849c0.106-0.083,0.209-0.158,0.32-0.255c1.164-0.948,2.307-2.166,3.429-3.644
	c2.678,0.779,4.849,1.544,6.474,2.293c2.668,1.167,4.651,2.534,5.951,4.101c0.967,1.134,2.201,1.75,3.701,1.851l3-0.25l2.162-0.541
	c0.865,0.798,1.853,1.518,2.99,2.141c0.967,0.5,2.483,0.851,4.551,1.051c2.033,0.166,3.951,0.133,5.751-0.1
	c0.968-0.134,1.95-0.484,2.951-1.051c0.609-0.346,1.121-0.726,1.558-1.133c2.099,0.64,4.458,0.646,7.094-0.018
	c3.734-0.934,7.535-1.25,11.403-0.95c3.067,0.233,6.685,0.917,10.853,2.051l5.751,0.35c1.378-0.279,2.469-0.812,3.307-1.565
	c1.978,1.175,4.37,1.821,7.196,1.916c0.176,0.006,0.366-0.011,0.547-0.013c2.899,2.754,6.154,5.38,9.806,7.864
	c1.1,0.767,1.833,1.051,2.2,0.85c0.367-0.199,0.483-0.883,0.351-2.05l-1.445-10.161c0.259-0.191,0.501-0.388,0.726-0.589
	c0.268,0.118,0.556,0.188,0.869,0.197c4.501,0.3,8.552,1.117,12.153,2.45l2,0.15c0.301-0.367,0.15-1.184-0.45-2.45
	c-1.5-3.134-3.45-5.985-5.851-8.552c-2.234-2.4-4.401-4.118-6.502-5.151c-0.255-0.127-0.501-0.196-0.738-0.217
	c-1.084-2.257-2.559-4.083-4.463-5.435c-0.335-0.231-0.679-0.439-1.028-0.636c-0.197-3.651-0.256-6.48-0.172-8.466
	c0.033-1.034-0.084-1.634-0.351-1.8c-0.3-0.2-0.883,0.033-1.75,0.7c-2.666,2.038-4.853,4.513-6.576,7.411
	c-0.353-0.573-0.834-1.05-1.476-1.409c-1.2-0.667-2.634-0.833-4.302-0.5l-15.653,2.4l-16.654,1.1
	c-3.762-0.104-6.838,0.508-9.248,1.815c-1.653-1.757-3.967-2.703-6.955-2.815c-1.08-0.031-2.094,0.065-3.055,0.258
	c-0.591-0.338-1.313-0.644-2.197-0.909l-3.351-0.8c-4.028-0.902-8.964-4.399-14.8-10.474l3.647-3.879l4.151-4.801
	c0.8-0.934,1.166-1.867,1.1-2.801c-0.033-0.733-0.383-1.617-1.051-2.65c-0.875-1.376-2.878-3.969-5.982-7.748
	c0.244-1.199,0.538-2.425,0.932-3.706c1.033-3.4,2.4-6.435,4.102-9.102c1.119-1.796,1.894-3.551,2.362-5.27
	c0.154-0.35,0.279-0.719,0.338-1.132c0.262-2.094,0.335-4.645,0.241-7.6c0.512-0.495,1.004-0.955,1.459-1.352
	c0.934-0.8,1.467-1.784,1.601-2.951l0.2-4.001l0.031-2.51c1.014-1.037,2.054-2.084,3.119-3.142c4.301-4.301,7.777-7.538,10.453-9.74
	l0.35-0.112l6.951-4.501l6.303-4.201c10.859,7.014,21.646,12.334,32.357,15.954c12.703,4.301,25.122,6.151,37.259,5.551
	c2.467-0.1,3.717-0.333,3.751-0.7c0-0.333-1.167-0.867-3.501-1.6c-9.836-3.067-17.854-8.286-24.056-15.654
	c-3.611-4.272-6.007-8.493-7.191-12.663c2.215-0.423,4.604-1.222,7.191-2.44c2.423-1.094,4.375-2.229,5.908-3.401
	c0.954,0.744,2.033,1.722,3.244,2.951c2.233,2.167,4.051,4.301,5.451,6.401c0.601,0.932,1.158,1.377,1.679,1.388
	c4.451,5.127,8.778,10.645,12.975,16.566c0.9,1.267,1.517,1.784,1.851,1.551C389.446,112.527,389.479,111.76,389.246,110.426z"/>
</svg>
