<?xml version="1.0" encoding="utf-8"?>
<!-- Generator: Adobe Illustrator 16.0.0, SVG Export Plug-In . SVG Version: 6.00 Build 0)  -->
<!DOCTYPE svg PUBLIC "-//W3C//DTD SVG 1.1//EN" "http://www.w3.org/Graphics/SVG/1.1/DTD/svg11.dtd">
<svg version="1.1" id="图层_1" xmlns="http://www.w3.org/2000/svg" xmlns:xlink="http://www.w3.org/1999/xlink" x="0px" y="0px"
	 width="160px" height="224px" viewBox="0 0 160 224" enable-background="new 0 0 160 224" xml:space="preserve">
<path d="M137.061,143.606c-2.343-9.354-6.378-18.198-12.109-26.528c1.641-4.331,3.317-8.919,5.025-13.744
	c7.373-3.846,13.586-10.408,18.633-19.703c5.133-9.465,6.582-16.879,4.35-22.245c-0.464-1.117-1.033-2.218-1.702-3.306
	c4.766-6.5,6.805-13.811,6.101-21.939c-0.733-8.698-4.449-14.88-11.147-18.545c-3.899-2.133-8.081-2.483-12.548-1.05
	c-4.123,1.344-7.341,3.864-9.672,7.532c-2.387-2.725-4.99-5.469-7.824-8.232C105.436,5.382,97.07,0.1,91.072,0
	c-6.965-0.133-14.53,1.85-22.695,5.949c-6.882,3.457-12.942,7.72-18.195,12.775c-1.21-3.245-3.107-6.255-5.7-9.026
	c-5.932-6.332-12.963-8.615-21.095-6.849C13.09,5.049,6.075,11.697,2.342,22.795c-1.566,4.699-2.283,9.631-2.149,14.797
	c0.167,5.099,1.133,9.714,2.899,13.847c3.133,7.332,8.265,12.247,15.396,14.747c2.436,0.85,4.826,1.305,7.172,1.384
	c-0.309,3.264-0.237,5.907,0.226,7.914c0.867,3.866,2.85,8.048,5.949,12.547c3.421,4.896,7.426,8.849,12,11.883
	c-3.012,1.413-5.766,3.525-8.251,6.363c-3.033,3.466-5.315,7.599-6.848,12.397c-1.333,4.266-1.816,8.447-1.45,12.547
	c0.4,3.966,1.516,7.248,3.349,9.848c3.266,4.532,7.698,6.932,13.297,7.198c1.214,0.056,2.396-0.005,3.547-0.169
	c-0.288,12.703,3.043,26.655,10,41.859c2.333,5.166,4.882,9.998,7.648,14.497c2.233,3.6,3.716,5.698,4.449,6.299
	c2.732,2.199,5.965,3.632,9.698,4.299c3.713,0.63,7.066,0.325,10.067-0.888c0.396,1.517,1.301,2.914,2.73,4.188
	c1.832,1.633,4.299,2.883,7.398,3.749c4.065,1.133,8.248,1.383,12.547,0.749c4.6-0.666,7.766-2.199,9.498-4.599
	c8.598-11.943,14.099-24.696,16.533-38.251c4.723-0.324,8.765-2.124,12.11-5.439c3.599-3.565,5.398-7.881,5.398-12.947
	c0-4.998-1.899-9.264-5.698-12.797C146.286,145.528,142.014,143.805,137.061,143.606z"/>
</svg>
