<?xml version="1.0" encoding="utf-8"?>
<!-- Generator: Adobe Illustrator 16.0.0, SVG Export Plug-In . SVG Version: 6.00 Build 0)  -->
<!DOCTYPE svg PUBLIC "-//W3C//DTD SVG 1.1//EN" "http://www.w3.org/Graphics/SVG/1.1/DTD/svg11.dtd">
<svg version="1.1" id="图层_1" xmlns="http://www.w3.org/2000/svg" xmlns:xlink="http://www.w3.org/1999/xlink" x="0px" y="0px"
	 width="456px" height="420px" viewBox="0 0 456 420" enable-background="new 0 0 456 420" xml:space="preserve">
<path d="M448.354,146.773c-1.104-2.232-2.467-4.051-4.087-5.461c1.411-3.493,1.616-7.514,0.59-12.075
	c-1.033-4.597-2.932-8.377-5.696-11.341c-1.896-2.001-4.165-3.401-6.805-4.202c0.293-2.443,0.001-4.857-0.889-7.239
	c-1.333-3.497-3.848-6.595-7.545-9.292c-2.031-1.466-4.463-2.382-7.294-2.748c-2.72-0.356-5.486-0.135-8.301,0.642
	c-1.904-0.296-4.628,0.118-8.187,1.257c-4.164,1.366-6.229,2.715-6.195,4.047c0.052,0.807,1.333,2.11,3.808,3.895
	c-0.701,2.495-0.939,4.867-0.716,7.116c-1.534,1.679-2.81,3.547-3.791,5.627c-0.662,1.416-1.213,3-1.672,4.721
	c-4.518,2.315-14.078,5.902-28.705,10.768c-15.422,5.163-24.947,7.877-28.578,8.144c-1.632,0.1-10.143-3.797-25.53-11.691
	c-14.737-7.536-25.971-13.82-33.722-18.861c-3.11-4.742-6.802-10.288-11.094-16.662c-10.883-16.129-17.24-26.557-19.103-31.317
	c-0.126-1.949-0.157-3.5-0.083-4.605c0.176-2.058,1.512-3.777,3.998-5.161l5.045,0.314c1.898-0.533,3.896-1.516,5.996-2.948
	c1.998-1.366,3.264-2.548,3.797-3.547c0.299-0.6,0.332-2.165,0.1-4.696c-0.156-1.651-0.351-2.889-0.582-3.733
	c0.121-0.665,0.009-1.304-0.367-1.912c-0.111-0.176-0.305-0.335-0.535-0.485c-0.007-0.003-0.007-0.012-0.015-0.014
	c-0.008-0.003-0.016-0.006-0.024-0.01c-0.333-0.209-0.784-0.393-1.353-0.551c-10.483-4.269-18.848-8.035-25.092-11.298
	c-0.002-2.198-1.038-3.924-3.108-5.178c-2.091-1.266-4.104-1.356-6.038-0.279c-6.311-4.437-11.333-9.769-15.046-16.008
	c-0.433-0.699-2.881-1.216-7.344-1.549c-4.263-0.366-6.745-0.399-7.444-0.1c-1.033,0.466-2.582,1.715-4.646,3.747
	c-2.298,2.165-3.464,3.697-3.497,4.596l-1.397,14.338c-1.56-1.013-3.439-1.616-5.648-1.798c-4.463-0.366-7.611,1.149-9.442,4.546
	c-1.766,3.231-1.616,6.512,0.449,9.842c2.453,3.978,6.549,5.976,12.278,6.005l-3.984,26.021l-3.098,17.086
	c-0.633,2.965-1.799,6.462-3.498,10.492l-4.896,10.992l-3.997,8.543c-1.463,3.095-2.674,5.875-3.662,8.375
	c-3.327,1.997-7.315,4.498-11.976,7.513c-8.927,5.729-15.272,10.076-19.036,13.04c-10.825-0.966-22.1-2.814-33.824-5.546
	c-12.951-3.029-23.911-6.625-32.933-10.773c-0.583-0.595-1.191-1.172-1.84-1.717c-3.094-2.553-6.68-4.272-10.75-5.173
	c-0.067-1.607-0.32-3.303-0.764-5.089c0.416-0.313,0.834-0.63,1.271-0.979c4.097-3.298,6.062-5.479,5.896-6.545
	c-0.233-1.266-3.015-2.365-8.344-3.297c-2.4-0.409-4.575-0.596-6.55-0.587c-2.373-1.506-5.052-2.261-8.039-2.261
	c-9.026,0-16.387,3.564-22.083,10.692c-5.328,6.692-7.255,13.924-5.803,21.693c-2.626,2.865-4.556,6.341-5.788,10.432
	c-2.745,9.138-0.968,18.041,5.303,26.709c-0.396,1.447-0.687,2.949-0.856,4.517c-0.6,5.762,0.683,11.092,3.847,15.988
	c3.164,4.863,7.544,8.327,13.14,10.392c8.627,3.197,23.199,5.163,43.717,5.896c18.219,0.666,37.404,0.283,57.556-1.149
	c4.032-0.299,12.738-6.803,26.089-19.473l0.041,6.683c-0.033,1.965-1.382,7.844-4.047,17.637l-8.793,30.477l-0.674,2.323
	l-7.22-3.173c-0.4-0.033-0.533,1.466-0.4,4.497l0.35,6.095l-7.844-2.897c-4.996-1.766-7.494-2.415-7.494-1.949
	c0.033,1.533,1.765,8.478,5.196,20.834l-8.344-0.549l-8.493-0.75l-2.448,0.15c-0.366,0.199-0.433,0.683-0.2,1.449
	c0.999,3.23,3.963,9.26,8.893,18.086l7.245,12.641l-9.893,0.1c-2.631,0.1-3.581,0.516-2.848,1.249l13.689,12.39l-5.796,3.798
	c-1.599,0.966-2.198,1.582-1.798,1.849c1.132,0.732,2.981,1.482,5.546,2.248c1.629,0.498,2.896,0.822,3.818,0.982
	c-0.648,9.392-0.906,20.004-0.771,31.842c0.133,13.124,0.683,25.465,1.649,37.022c-0.233,0.866-2.298,3.063-6.195,6.595
	l-9.493,8.894c-1.366,1.398-1.049,2.098,0.949,2.098l13.239-1.477l-2.747,4.824c-0.566,0.999-0.749,1.615-0.549,1.849l1.898,0.05
	c8.893-2.064,14.489-3.48,16.787-4.246l-0.399,7.244c-0.067,0.499,0.033,0.799,0.3,0.899l1.599-0.45
	c1.632-0.766,4.746-2.031,9.343-3.797l7.044-2.748c0.799,1.666,1.416,3.348,1.849,5.046c0.267,0.899,0.566,1.399,0.899,1.499
	c0.333,0.134,0.933-0.083,1.798-0.649l5.196-3.647l3.847-2.798c7.727,4.164,12.657,6.646,14.789,7.444
	c0.833,0.334,1.366,0.434,1.599,0.3c0.267-0.166,0.45-0.666,0.55-1.498l-0.05-4.247l-0.25-4.197l6.944,1.399l5.646,1.549
	c0.999,0.267,1.532,0.184,1.599-0.25c0.033-0.399-0.383-1.315-1.249-2.748c-1-1.632-2.515-3.613-4.546-5.945l-2.548-3.348
	c-0.6-0.999-0.833-1.981-0.699-2.947c0.733-5.463,5.612-14.756,14.639-27.879c3.793-5.5,7.199-10.187,10.218-14.063
	c2.18-0.472,4.998-1.31,8.468-2.523l8.843-3.448l2.148,10.293c0.233,1.1,0.499,1.715,0.8,1.849c0.365,0.133,0.916-0.3,1.648-1.3
	c2.465-3.363,5.479-7.227,9.043-11.59l10.941,12.189c0.866,0.934,1.516,1.433,1.949,1.5c0.398,0.033,0.865-0.316,1.398-1.05
	l4.097-6.396l3.647-6.195l7.544,6.795c1.166,1.066,1.882,1.582,2.148,1.549c0.333-0.066,0.6-0.898,0.8-2.498l0.555-6.872
	c3.933,2.172,8.21,6.656,12.834,13.468c4.397,6.461,6.929,11.441,7.595,14.938c0.267,1.232,0.183,4.598-0.249,10.093
	c-0.317,3.93-0.742,6.934-1.273,9.027c-1.245,1.863-3.915,4.714-8.02,8.56l-8.645,7.844c-0.865,0.799,1.366,1.199,6.695,1.199
	l11.167-0.543c-1.056,3.668-1.618,5.76-1.675,6.238l-0.049,0.649l0.799-0.05l8.494-3.048c3.896-1.398,6.561-2.298,7.993-2.698
	l-0.999,5.746c0,0.8,0.383,1.032,1.149,0.699c0.999-0.433,4.313-2.398,9.942-5.896c1.865,1.232,4.713,2.781,8.543,4.646l5.995,2.798
	c0.566,0.233,1.116-0.616,1.649-2.548l0.999-4.247c1.032,0.3,3.681,1.316,7.943,3.048c1.1,0.433,1.815,0.6,2.148,0.5
	c0.3-0.067,0.367-0.333,0.2-0.8l-1.799-3.697l12.69,3.747c0.699,0.2,0.517-0.633-0.55-2.498c-0.685-1.225-1.457-2.254-2.298-3.13
	l13.689-2.766c1.032-0.3-0.167-1.481-3.598-3.547c-2.267-1.386-5.952-3.391-11.02-5.997c4.226-4.762,8.067-10.437,11.52-17.035
	c5.429-10.292,7.943-19.669,7.544-28.128c-1.166-26.68-8.943-57.89-23.332-93.629c-11.964-29.623-26.725-57.971-44.27-85.051
	c3.986,2.831,9.115,6.266,15.392,10.308c10.492,6.762,18.053,11.075,22.683,12.94c2.864,1.166,8.677,1.532,17.437,1.099
	c8.261-0.367,17.587-1.333,27.979-2.898c24.614-3.73,40.553-8.094,47.813-13.09c6.029-4.13,9.942-9.443,11.741-15.938
	C452.001,159.347,451.385,153.002,448.354,146.773z"/>
</svg>
