<?xml version="1.0" encoding="utf-8"?>
<!-- Generator: Adobe Illustrator 16.0.0, SVG Export Plug-In . SVG Version: 6.00 Build 0)  -->
<!DOCTYPE svg PUBLIC "-//W3C//DTD SVG 1.1//EN" "http://www.w3.org/Graphics/SVG/1.1/DTD/svg11.dtd">
<svg version="1.1" id="图层_1" xmlns="http://www.w3.org/2000/svg" xmlns:xlink="http://www.w3.org/1999/xlink" x="0px" y="0px"
	 width="276px" height="309px" viewBox="0 0 276 309" enable-background="new 0 0 276 309" xml:space="preserve">
<g>
	<path d="M275.6,130.325l-1.449-1.7l-16.5-15.4c0.333-1.767,1.434-6.75,3.3-14.95l3.75-16.6c0.167-0.866,0.167-1.5,0-1.9
		c-0.134-0.466-0.601-1.083-1.4-1.85l-8.3-7.7l-8.85-8c-1-0.9-1.75-1.333-2.25-1.3c-0.4,0.067-1.051,0.617-1.95,1.65l-8,9.45
		l-6.957,8.041L202.019,55.91L212.1,44.775l7.65-8.4c0.4-0.566,0.533-1.033,0.4-1.4l-1.15-1.6l-19.45-19.2l-2.05-1.7
		c-0.467-0.133-1.383,0.1-2.75,0.7c-11.834,5-19.8,8.3-23.9,9.9c-4.666-6.7-10.066-13.967-16.199-21.8l-1.2-1.05
		c-0.4-0.167-0.983-0.167-1.75,0c-10.567,2.133-20.067,4.25-28.5,6.35c-0.733,0.2-1.184,0.433-1.35,0.7
		c-0.133,0.233-0.133,0.7,0,1.4c0.846,4.525,2.761,13.799,5.736,27.795l-33.88,7.645c-1.828-12.858-3.098-21.297-3.807-25.29
		c-0.133-0.667-0.333-1.05-0.6-1.15l-1.5,0.1l-25.45,5.6l-1.15,0.4c-0.2,0.133-0.367,0.434-0.5,0.9L57,40.725l-3.95,15.7l-13,3.1
		l-11.95,2.8c-0.434,0.066-0.767,0.25-1,0.55c-0.2,0.233-0.383,0.65-0.55,1.25l-3.65,13.15l-4,14.4c-0.167,0.733-0.2,1.2-0.1,1.4
		c0.167,0.2,0.65,0.417,1.45,0.65l17.658,5.078l-0.958,3.722l-2.1,8.8l-0.1,1.2l0.5,1.15l4.75,8.3l-9,8.1l-0.55,0.6l-0.25,0.8
		l-1.75,9.1l-1.366,6.626c-6.747-5.058-11.962-8.904-15.634-11.527c-0.867-0.6-1.517-0.85-1.95-0.75
		c-0.4,0.134-0.75,0.717-1.05,1.75l-8.3,30.25c-0.2,0.767-0.233,1.317-0.1,1.65l1.15,1.2l18.65,14.5l-7,28.5
		c-0.3,1.3-0.417,2.116-0.35,2.449c0.033,0.334,0.4,0.816,1.1,1.45l20.1,20.3c0.833,0.834,1.417,1.268,1.75,1.301
		c0.4,0,0.966-0.417,1.7-1.25l9.55-11.15l7.38-8.83l0.82,0.93l1.15,1.051l1.5,0.199l8.063,0.453c0.199,1.289,0.654,2.36,1.387,3.197
		c0.933,1.1,2.2,1.65,3.8,1.65c0.015,0,0.027-0.003,0.042-0.003L70.7,235.425l0.1,0.351l5.65,5.6l4.968,5.175
		c-12.146,5.592-20.237,9.368-24.268,11.325c-0.767,0.334-1.167,0.65-1.2,0.95c-0.034,0.3,0.3,0.85,1,1.649
		c6.533,7.066,13.433,14.101,20.7,21.101l1.05,0.7l1.45-0.101l11.45-2.649l11.25-2.75l17.25,16.55l1.3,0.899l1.3-0.1l26.75-8.05
		c1.267-0.4,1.966-0.733,2.1-1c0.101-0.2-0.149-0.767-0.75-1.7l-13.924-21.067l5.174-1.383l7.5-2.05l1.851-0.65l0.899-1.1
		l4.626-9.021c0.748,0.365,1.587,0.527,2.524,0.472c1.321-0.099,2.413-0.462,3.285-1.081l9.064,4.23l0.75,0.25l0.8-0.1l2.249-0.661
		l4.251,24.011c0.268,1.4,0.634,2.2,1.101,2.4l3.25-0.35l13.7-2.9l12.8-2.95c0.866-0.233,1.399-0.466,1.6-0.7l0.65-1.699l8.3-29.9
		l23.05-3.5l1.351-0.45l0.55-1.149l10.3-31.051c0.166-0.633,0.117-1.066-0.15-1.3l-1.699-0.25l-20.455,2.137l4.255-13.887
		l0.45-2.149l-0.45-2.101l-3.05-10.45l3.949-2l4.351-2.05c0.433-0.2,0.733-0.55,0.899-1.05l3.618-14.005
		c2.893,0.853,6.139,1.912,9.782,3.205l8.4,2.899c1.199,0.4,1.916,0.101,2.149-0.899c2.567-10.967,4.833-20.25,6.8-27.85
		C275.684,131.792,275.767,130.825,275.6,130.325z"/>
	<path d="M61.5,238.675c-0.033-1.8-0.6-3.316-1.7-4.55c-1.1-1.233-2.483-1.883-4.15-1.95c-2.066-0.066-3.767,0.667-5.1,2.2
		c-1.167,1.334-1.716,2.834-1.65,4.5c0.1,1.767,0.65,3.233,1.65,4.4c1.1,1.3,2.567,1.949,4.4,1.949c1.833,0,3.4-0.649,4.7-1.949
		C60.95,242.008,61.567,240.475,61.5,238.675z"/>
	<path d="M163.6,274.625c1.9-0.066,3.417-0.767,4.551-2.1c1.033-1.268,1.516-2.834,1.449-4.7c-0.1-1.9-0.8-3.483-2.1-4.75
		c-1.233-1.167-2.617-1.733-4.15-1.7c-1.866,0-3.434,0.666-4.699,2c-1.2,1.267-1.75,2.783-1.65,4.55
		c0.066,1.934,0.684,3.534,1.85,4.8C160.084,274.059,161.666,274.691,163.6,274.625z"/>
	<path d="M164.5,292.225c-2.367,0.033-4.383,0.917-6.05,2.65c-1.601,1.6-2.366,3.4-2.3,5.4c0.1,2.467,1,4.516,2.699,6.149
		c1.601,1.534,3.417,2.267,5.45,2.2c2.4-0.066,4.317-0.883,5.75-2.45c1.434-1.566,2.134-3.533,2.101-5.899
		c-0.033-2.268-0.816-4.167-2.351-5.7C168.334,293.008,166.566,292.225,164.5,292.225z"/>
	<path d="M38.8,257.825c-2.633,0.066-4.716,0.899-6.25,2.5c-1.367,1.466-2.017,3.283-1.95,5.45c0.033,2.533,0.917,4.583,2.65,6.149
		c1.567,1.467,3.4,2.184,5.5,2.15c2.333-0.034,4.267-0.95,5.8-2.75c1.434-1.667,2.117-3.517,2.05-5.55
		c-0.067-2.4-0.883-4.351-2.45-5.851C42.683,258.459,40.9,257.758,38.8,257.825z"/>
</g>
</svg>
