<?xml version="1.0" encoding="utf-8"?>
<!-- Generator: Adobe Illustrator 16.0.0, SVG Export Plug-In . SVG Version: 6.00 Build 0)  -->
<!DOCTYPE svg PUBLIC "-//W3C//DTD SVG 1.1//EN" "http://www.w3.org/Graphics/SVG/1.1/DTD/svg11.dtd">
<svg version="1.1" id="图层_1" xmlns="http://www.w3.org/2000/svg" xmlns:xlink="http://www.w3.org/1999/xlink" x="0px" y="0px"
	 width="211px" height="196px" viewBox="0 0 211 196" enable-background="new 0 0 211 196" xml:space="preserve">
<path d="M209.6,42.097c-0.301-3.169-1.035-5.689-2.202-7.557c-1.936-3.07-5.155-4.854-9.659-5.355
	c-2.902-0.334-6.273-0.1-10.109,0.701c-15.382,3.77-26.592,6.356-33.633,7.757c-7.606,1.535-16.632,2.669-27.075,3.403
	l-14.069,0.561c-0.813-11.582-5.527-21.28-14.157-29.088C89.752,4.412,78.875,0.274,66.063,0.107
	c-9.009-0.134-17.6,1.785-25.774,5.755c-8.075,3.937-15.148,9.609-21.22,17.016C5.856,38.861-0.5,59.03,0,83.386
	c0.434,20.686,5.072,38.454,13.914,53.301c8.324,13.981,19.686,24.241,34.076,30.794c1.088,2.96,2.405,6.188,3.96,9.694
	c5.038,11.41,9.659,17.383,13.863,17.916c3.203,0.4,7.774-3.136,13.713-10.609l4.504-6.557l0.855-1.356
	c8.8,0.715,18.132,0.543,27.994-0.511c1.369,2.302,3.755,5.188,7.185,8.674c4.938,4.971,8.792,7.224,11.561,6.756
	c3.004-0.5,6.123-4.17,9.359-11.01c2.146-4.552,3.521-8.157,4.129-10.819c4.09-1.315,7.657-2.763,10.686-4.345
	c4.971-2.569,9.358-5.455,13.162-8.658c4.17-3.504,6.306-6.34,6.406-8.509c0.066-1.769-1.318-3.67-4.154-5.705
	c-2.795-1.979-6.849-3.973-12.128-5.981c3.999-2.777,7.497-5.292,10.477-7.531c0.667,4.371,2.235,7.59,4.704,9.659
	c1.234,1.001,2.652,1.735,4.254,2.202l4.505,0.35c2.035-0.3,3.804-1.117,5.305-2.452c1.602-1.435,2.687-3.303,3.253-5.604
	c0.768-2.903,0.066-5.772-2.102-8.609c-1.001-1.334-2.536-2.469-4.604-3.402c-0.657-0.304-1.308-0.55-1.955-0.767
	c1.984-1.575,3.524-3.947,4.607-7.142c1.101-3.27,1.452-6.155,1.052-8.658c-0.301-2.006-0.876-3.86-1.724-5.565
	c6.619-7.977,12.023-16.759,16.187-26.364c2.336-5.338,4.055-10.327,5.155-14.964C209.566,51.606,210.033,46.435,209.6,42.097z"/>
</svg>
