<?xml version="1.0" encoding="utf-8"?>
<!-- Generator: Adobe Illustrator 16.0.0, SVG Export Plug-In . SVG Version: 6.00 Build 0)  -->
<!DOCTYPE svg PUBLIC "-//W3C//DTD SVG 1.1//EN" "http://www.w3.org/Graphics/SVG/1.1/DTD/svg11.dtd">
<svg version="1.1" id="图层_1" xmlns="http://www.w3.org/2000/svg" xmlns:xlink="http://www.w3.org/1999/xlink" x="0px" y="0px"
	 width="279px" height="347px" viewBox="0 0 279 347" enable-background="new 0 0 279 347" xml:space="preserve">
<path d="M277.801,49.639c-0.334-0.267-1.1-0.05-2.299,0.649c-1.033,0.566-3.314,2.232-6.846,4.997l1.799-3.398l-0.898-3.297
	c-0.6-2.065-0.9-3.364-0.9-3.897c0-0.7,1.199-3.314,3.598-7.845l3.748-6.995l0.749-1.948l-2.498,0.05
	c-2.599,1.066-5.263,2.332-7.994,3.797c-3.731,1.999-5.913,3.614-6.546,4.846l-4.496,8.794c-2.199,4.064-3.764,6.529-4.697,7.395
	c-3.896,3.098-7.461,6.079-10.691,8.944c-6.296,5.596-10.043,9.91-11.242,12.941c-0.367,0.999-0.75,2.831-1.149,5.496l-1.249,8.194
	l-3.098,16.938c-0.175,0.792-0.352,1.566-0.531,2.33l-2.816-4.979l-1.898-3.248c-0.2-1.033-0.066-9.293,0.399-24.782
	c0.433-14.656,0.8-24.466,1.099-29.429c0.101-1.832,1.749-4.647,4.947-8.444c2.231-2.632,4.363-4.847,6.395-6.646
	c1.232-1.132,5.846-4.03,13.841-8.694c1.099-0.699,1.632-1.282,1.599-1.749c-0.066-0.5-0.85-0.816-2.348-0.949l-4.997,0.15
	l13.04-15.989c0.834-1.066,1.217-1.782,1.15-2.148c-0.134-0.466-1.017-0.466-2.648,0c-5.396,1.466-12.208,3.764-20.436,6.895
	c-11.325,4.33-18.87,8.028-22.634,11.092c-4.03,3.264-10.159,9.943-18.387,20.036c-8.194,10.059-12.591,16.288-13.19,18.687
	c-0.233,0.933-0.35,2.048-0.35,3.348c0,2.165,0.482,5.346,1.449,9.543l3.797,15.039l3.947,13.64
	c1.632,5.629,2.465,8.994,2.498,10.093c0.033,0.433-0.283,1.149-0.949,2.149c-0.699,1.032-1.299,1.532-1.799,1.499
	c-5.629-0.433-10.543-1.249-14.74-2.448l-7.344-2.598c-1.066-0.399-2.682,0.067-4.847,1.399c-0.374,0.228-0.714,0.461-1.054,0.694
	c0.339-0.952,0.416-1.643,0.204-2.043c-0.366-0.667-1.499-0.417-3.397,0.75c-3.23,2.032-7.928,5.446-14.09,10.243l9.843-23.184
	l8.194-19.986c0.766-2.165,0.916-3.381,0.449-3.647c-0.433-0.3-1.565,0.167-3.397,1.399c-1.466,0.999-6.661,5.379-15.589,13.141
	l-9.707,8.541c0.998-2.325,1.89-4.832,2.662-7.542c1.499-5.296,2.398-11.175,2.698-17.637c0.333-7.961-0.533-14.406-2.598-19.336
	c-3.264-7.794-8.394-13.507-15.389-17.138c-7.028-3.597-15.805-5.063-26.331-4.396c-9.393,0.566-19.952,3.764-31.677,9.593
	c-14.39,7.095-26.281,16.472-35.674,28.13C12.524,79.101,6.278,94.573,3.747,113.093c-1.599,11.725-1.299,21.967,0.899,30.728
	c1.666,6.695,4.28,12.091,7.845,16.188c1.798,2.065,3.88,3.731,6.245,4.997c1.095,0.59,1.968,0.971,2.664,1.188
	c0.5,1.714,1.591,3.23,3.275,4.549l2.105,3.905l5.125,9.793c-0.323,1.663-0.07,3.246,0.771,4.747
	c0.696,1.227,1.867,2.287,3.479,3.192l0.1,0.182c-1.407,1.747-4.081,5.351-8.027,10.816l-11.741,16.138l-6.995,9.344
	c-1.732,2.265-3.664,5.579-5.796,9.942c-1.832,3.697-2.865,6.096-3.098,7.195c-0.899,4.63-0.75,7.345,0.45,8.145
	c0.633,0.398,1.465,0.666,2.498,0.799l2.698-0.3c21.162-11.586,34.131-18.778,38.923-21.589
	c-4.894,17.927-8.584,35.007-11.043,51.218c-2.132,14.057-3.064,24.999-2.798,32.826c0.533,15.223,2.698,23.917,6.495,26.081
	c3.498,2.065,9.993,1.066,19.486-2.998c4.996-2.131,25.132-11.175,60.406-27.13c0.833-0.399,1.233-0.782,1.199-1.149
	c0-0.333-0.399-0.732-1.199-1.199l-2.698-1.349l4.297-2.398c1.333-0.8,1.965-1.466,1.898-1.999c-0.1-0.566-0.899-0.799-2.398-0.699
	l-8.494,0.449l17.288-14.189c0.966-0.865,1.432-1.599,1.399-2.198c-0.033-0.699-0.799-0.883-2.298-0.55l-26.88,6.646l7.495-14.04
	c1.399-2.965,0.799-3.647-1.799-2.049c-1.7,1.025-4.949,3.346-9.746,6.961c2.47-4.283,4.854-8.354,7.147-12.207
	c4.13-6.961,8.71-13.641,13.74-20.035l12.991-16.039c6.491-8.106,10.751-14.968,12.788-20.588c5.489,2.548,11.855,5.425,19.14,8.646
	c20.451,9.027,31.894,13.824,34.325,14.391c2.765,0.666,5.745,0.699,8.943,0.1c3.231-0.566,5.063-1.499,5.496-2.799
	c0.366-0.998,0.267-2.631-0.3-4.896c-0.5-2.131-1.199-4.029-2.099-5.695c-1.132-2.065-10.31-13.041-27.53-32.926
	c-15.754-18.262-28.913-32.664-39.503-43.241c7.298,0.313,13.556,1.552,18.769,3.719c3.697,1.565,6.262,3.214,7.693,4.946
	c2.532,3.165,5.164,5.813,7.895,7.944c3.998,3.198,7.911,4.997,11.742,5.396c6.695,0.733,16.422-1.433,29.179-6.496
	c10.825-4.297,17.304-7.511,19.437-9.643c0.566-0.566,1.498-2.115,2.798-4.646c1.499-2.865,2.698-4.963,3.597-6.295
	c1.633-2.499,3.281-4.38,4.947-5.646l9.742-7.295c6.629-5.129,10.26-8.377,10.893-9.743c0.334-0.666,0.55-3.264,0.65-7.794
	l0.1-17.888c0-12.491,0.1-19.603,0.299-21.334c0.167-1.465,1.449-5.146,3.848-11.042l5.047-12.241
	C278.017,50.638,278.1,49.872,277.801,49.639z M145.086,132.78c2.901-1.472,7.173-3.896,12.85-7.295
	c5.063-2.798,8.561-3.98,10.493-3.548c1.799,0.4,5.079,2.232,9.843,5.496l10.143,7.145c2.099,1.399,6.313,1.949,12.641,1.649
	c3.742-0.196,7.104-0.573,10.091-1.127c-1.892,2.532-4.014,4.928-6.394,7.173c-4.13,3.864-7.244,6.112-9.343,6.746l-8.394,0.849
	c-4.963,0.333-8.645,0.367-11.043,0.1l-5.545-1c-1.033-0.333-1.865-0.833-2.498-1.499l-5.896-6.095
	c-3.498-3.498-5.646-5.346-6.445-5.546c-1.365-0.366-4.514,0.7-9.443,3.198l-4.841,2.693
	C142.523,138.674,143.781,135.688,145.086,132.78z"/>
</svg>
