<?xml version="1.0" encoding="utf-8"?>
<!-- Generator: Adobe Illustrator 16.0.0, SVG Export Plug-In . SVG Version: 6.00 Build 0)  -->
<!DOCTYPE svg PUBLIC "-//W3C//DTD SVG 1.1//EN" "http://www.w3.org/Graphics/SVG/1.1/DTD/svg11.dtd">
<svg version="1.1" id="图层_1" xmlns="http://www.w3.org/2000/svg" xmlns:xlink="http://www.w3.org/1999/xlink" x="0px" y="0px"
	 width="304px" height="214px" viewBox="0 0 304 214" enable-background="new 0 0 304 214" xml:space="preserve">
<path d="M303.01,93.873c-0.633-1.768-2.416-2.634-5.351-2.601c-8.069,0.067-17.288,2.368-27.657,6.902
	c-9.898,4.337-18.657,9.813-26.305,16.4c-5.506-7.778-13.054-14.896-22.656-21.352c-4.367-2.934-9.452-6.885-15.254-11.853
	c-5.867-5.068-10.969-9.902-15.303-14.504c-14.137-14.937-29.291-25.406-45.461-31.407c-0.634-6.501-2.967-12.319-7.002-17.454
	c-4-5.068-9.385-9.152-16.153-12.253c-14.037-6.435-29.541-7.535-46.511-3.301C62.754,5.619,52.852,11.771,45.65,20.906
	c-6.702,8.469-9.502,17.237-8.402,26.306c1,7.935,4.951,14.253,11.853,18.955c4.472,3.021,9.432,4.932,14.867,5.763
	c0.217,4.231,2.679,9.511,7.388,15.842c5.235,6.935,7.702,14.086,7.402,21.455l-0.6,7.701l-0.527,8.09
	c-9.316-8.65-21.925-15.197-37.832-19.642c-7.468-2.101-14.487-3.334-21.055-3.701c-6.468-0.367-11.336,0.15-14.603,1.55
	c-2.768,1.2-4.151,2.75-4.151,4.651c0.034,1.733,1.117,3.301,3.251,4.701c8.335,5.368,16.887,11.503,25.656,18.404
	c10.583,8.29,17.613,14.819,21.097,19.59l-1.593-0.186l-6.751,0.45c-1.734,0.334-2.734,1.117-3.001,2.351s0.267,2.518,1.601,3.851
	c6.468,6.502,16.304,12.504,29.507,18.005c9.971,4.191,19.075,6.95,27.339,8.315c10.565,9.867,24.284,16.953,41.177,21.241
	c14.537,3.667,29.657,4.935,45.361,3.801c20.638-1.434,37.475-7.019,50.512-16.754c5.843-4.374,10.446-9.241,13.831-14.592
	c6.845-3.733,13.355-8.333,19.526-13.814c6.902-6.135,11.819-11.97,14.754-17.505c1.267-2.434,1.5-4.25,0.699-5.451
	c-0.8-1.233-2.517-1.767-5.15-1.6c-3.168,0.166-6.068,0.65-8.702,1.45c-0.496,0.149-0.993,0.332-1.491,0.511
	c2.259-4.505,7.018-11.223,14.294-20.166c7.368-9.102,13.687-16.153,18.954-21.154C302.894,97.39,303.61,95.573,303.01,93.873z"/>
</svg>
