<?xml version="1.0" encoding="utf-8"?>
<!-- Generator: Adobe Illustrator 16.0.0, SVG Export Plug-In . SVG Version: 6.00 Build 0)  -->
<!DOCTYPE svg PUBLIC "-//W3C//DTD SVG 1.1//EN" "http://www.w3.org/Graphics/SVG/1.1/DTD/svg11.dtd">
<svg version="1.1" id="图层_1" xmlns="http://www.w3.org/2000/svg" xmlns:xlink="http://www.w3.org/1999/xlink" x="0px" y="0px"
	 width="264px" height="303px" viewBox="0 0 264 303" enable-background="new 0 0 264 303" xml:space="preserve">
<path d="M261.135,188.006c-0.633-0.3-2.248,0.2-4.848,1.5l-7.996,3.548c-2.021,0.827-3.864,1.471-5.543,1.94
	c1.928-5.079,2.67-9.149,2.195-12.186c-0.166-1.266-0.566-2.1-1.199-2.498c-0.6-0.4-1.266-0.301-1.999,0.299
	c-9.196,7.863-18.558,13.744-28.087,17.642c-9.046,3.682-17.343,5.222-24.908,4.67c-0.027-0.041-0.051-0.081-0.078-0.122
	c-2.232-3.365-6.215-8.329-11.945-14.893c-5.063-5.83-10.328-13.826-15.791-23.988c-3.332-6.264-7.747-15.393-13.244-27.386
	c-1.205-2.662-2.35-5.106-3.446-7.379c5.626-2.536,9.733-7.074,12.292-13.66c2.44-6.466,3.096-14.031,1.977-22.687
	c1.675-1.242,3.283-2.687,4.82-4.35c3.298-3.632,5.214-7.247,5.747-10.845l-0.101-0.55c-0.133-0.2-0.316-0.316-0.549-0.35
	c-1.899-0.333-3.998-0.35-6.297-0.05c-0.575,0.087-1.115,0.199-1.641,0.319c3.194-9.781,3.696-19.898,1.49-30.354
	c-1.642-7.86-4.568-14.864-8.772-21.016c-0.433-0.751-0.939-1.453-1.537-2.094c-1.006-1.33-2.051-2.632-3.184-3.876
	c-6.897-7.597-15.226-13.044-24.988-16.342c-9.546-3.236-18.786-3.868-27.722-1.908c-2.878-0.955-6.308-1.44-10.309-1.44
	c-5.697,0-11.311,1.299-16.842,3.898c-5.83,2.732-8.746,5.714-8.746,8.946c0,3.398,2.732,5.897,8.196,7.496
	c3.731,1.1,8.112,1.666,13.143,1.699c2.585,0.03,5.076-0.192,7.483-0.642l-0.086,5.989c0.03,4.105,0.264,6.946,0.698,8.545
	c-1.917,1.387-3.734,2.94-5.452,4.66c-1.34-1.501-2.704-2.764-4.092-3.76c-2.932-2.099-6.147-3.182-9.645-3.248
	c-4.931-0.067-8.796,2.265-11.594,6.997c-2.865,4.831-3.065,9.712-0.6,14.643c1.599,3.231,3.831,5.73,6.697,7.496
	c2.173,1.355,4.624,2.235,7.347,2.648c-1.323,5.504-1.331,11.416,0,17.742c1.33,6.268,3.71,11.592,7.115,15.996
	c-4.035,1.114-7.458,2.826-10.264,5.144c-0.333,0.266-0.5,0.483-0.5,0.649l0.6,0.65c4.797,2.932,9.945,4.781,15.442,5.547
	c3.596,0.494,6.699,0.375,9.333-0.326c4.839,2.381,9.899,4.186,15.174,5.427c0.339,0.652,0.732,1.614,1.18,2.895l0.518,1.623
	c-1.834,0.27-3.623,0.744-5.365,1.426c-1.748,0.694-3.341,1.553-4.786,2.569c-12.969-4.936-25.353-8.132-37.143-9.565
	c-12.759-1.592-22.272-0.615-28.545,2.926c-2.276-5.406-4.902-10.002-7.887-13.771c-3.432-4.331-6.913-7.013-10.445-8.046
	c-4.664-1.333-8.746,0.216-12.244,4.647c-3.765,4.698-4.931,10.711-3.499,18.041c1.133,5.597,3.482,10.628,7.047,15.093
	c4.221,5.3,9.507,8.806,15.849,10.541c0.09,4.729,0.845,9.495,2.292,14.297c2.432,8.196,6.264,15.043,11.495,20.54
	c5.23,5.53,11.278,9.013,18.141,10.444c9.362,1.933,18.891,0.234,28.585-5.098c7.171-3.927,13.61-9.271,19.328-16.009
	c1.817,0.594,3.737,0.9,5.76,0.917c1.896,0,3.77-0.269,5.624-0.781c-0.856,3.389-2.114,6.446-3.825,9.127
	c-2.132,3.299-4.881,5.931-8.246,7.896c-2.965,1.699-9.396,3.748-19.291,6.146c-8.729,2.066-13.527,3.766-14.393,5.098
	c-0.564,0.884-1.063,1.878-1.508,2.96c-6.42,2.377-11.952,6.183-16.583,11.433c-5.164,5.864-6.747,11.128-4.748,15.793
	c1.169,2.754,2.976,4.994,5.404,6.732c0.502,0.626,1.327,1.297,2.492,2.013l4.298,2.299c1.932,0.933,3.098,1.633,3.498,2.099
	l-6.197,0.9c-3.232,0.666-5.797,1.499-7.696,2.498c-4.797,2.466-6.43,5.564-4.897,9.296s5.231,5.696,11.094,5.897
	c6.53,0.232,13.76-1.15,21.689-4.148c8.163-3.031,12.36-6.131,12.594-9.295c0.067-1.133-0.516-2.166-1.749-3.1l-3.349-2.098
	c-1.199-0.768-1.999-1.367-2.398-1.8c-0.264-0.249-0.452-0.507-0.587-0.769c1.717-0.205,3.5-0.456,5.351-0.753
	c2.333,1.461,4.786,2.839,7.38,4.12c11.294,5.598,22.056,7.896,32.284,6.896c3.499-0.366,6.797-1.049,9.895-2.049
	c7.996,6.363,15.893,10.661,23.689,12.894c4.23,1.2,9.795,1.916,16.691,2.149l5.797,0.299c1.966,0.234,3.365,0.634,4.198,1.2
	c3.099,2.132,5.979,4.397,8.646,6.796c3.299,3.032,5.197,5.381,5.697,7.047c0.199,0.533,0.267,1.5,0.199,2.898l-0.199,3.049
	c-0.066,2.565,0.333,4.764,1.199,6.597c1.266,2.765,3.682,5.231,7.246,7.396c5.364,3.265,11.028,4.914,16.992,4.947
	c5.963,0.034,10.262-1.549,12.894-4.747c1.267-1.566,2.099-3.349,2.499-5.348c0.433-2.066,0.35-3.998-0.25-5.797
	c-1.199-3.398-3.965-6.431-8.296-9.096c-4.132-2.565-9.346-4.564-15.643-5.997c-2.032-0.466-4.831-3.349-8.396-8.646
	c-3.799-5.664-5.647-10.278-5.547-13.844c0.133-5.031-0.584-9.961-2.149-14.793c-1.433-4.397-3.282-7.846-5.548-10.344
	c0.12-0.608,0.193-1.238,0.229-1.885c15.876,2.314,30.363,0.27,43.45-6.162c5.73-2.799,10.562-6.18,14.493-10.145
	c3.831-3.865,6.413-7.797,7.746-11.795C261.835,189.905,261.901,188.34,261.135,188.006z"/>
</svg>
