<?xml version="1.0" encoding="utf-8"?>
<!-- Generator: Adobe Illustrator 16.0.0, SVG Export Plug-In . SVG Version: 6.00 Build 0)  -->
<!DOCTYPE svg PUBLIC "-//W3C//DTD SVG 1.1//EN" "http://www.w3.org/Graphics/SVG/1.1/DTD/svg11.dtd">
<svg version="1.1" id="图层_1" xmlns="http://www.w3.org/2000/svg" xmlns:xlink="http://www.w3.org/1999/xlink" x="0px" y="0px"
	 width="390px" height="326px" viewBox="0 0 390 326" enable-background="new 0 0 390 326" xml:space="preserve">
<path d="M382.471,70.789c-3.466-8.732-9.082-16.114-16.848-22.146c-4.699-3.667-9.748-6.249-15.147-7.749
	c-5.364-1.533-10.165-1.733-14.396-0.6c-6.047,1.583-10.495,5.516-13.354,11.789c-1.151-0.195-2.314-0.3-3.492-0.29
	c-2.481,0.036-4.826,0.307-7.046,0.796c-3.075-3.201-6.854-6.267-11.352-9.195c-4.479-2.945-8.817-5.219-13.015-6.836
	c-2.827-9.395-7.135-17.186-12.934-23.359C268.121,6,260.057,1.734,250.691,0.401c-7.998-1.1-15.979,0.333-23.946,4.299
	c-6.261,3.144-11.31,7.269-15.187,12.341c-9.441-3.375-18.959-4.933-28.557-4.643c-9.427,0.285-18.384,2.348-26.88,6.146
	c-2.042-5.196-5.562-9.587-10.614-13.146C139.375,1.1,133.026-0.65,126.46,0.15c-10.198,1.2-19.414,6.732-27.646,16.597
	c-7.096,8.485-11.576,17.812-13.452,27.976C76.007,49.986,67.537,56.119,59.97,63.14c-8.014,7.45-13.689,14.68-17.028,21.689
	c-3.21,0.523-5.672,1.836-7.368,3.957c-0.005,0.006-0.01,0.015-0.015,0.021c-2.565-2.961-5.193-4.72-7.884-5.27
	c-2.033-0.4-4.199-0.233-6.499,0.5c-2.133,0.7-4.25,1.833-6.349,3.399c-3.666,2.766-6.932,6.999-9.798,12.698
	c-3.133,6.232-4.766,12.315-4.899,18.248c-0.1,4.566,0.733,8.765,2.5,12.598c1.766,3.866,4.399,7.216,7.898,10.049
	c4.485,3.66,9.189,6.54,14.107,8.66c4.297,5.917,10.163,10.013,17.638,12.237c8.71,2.578,17.691,1.92,26.944-1.951
	c3.904,9.182,9.685,17.916,17.35,26.198c8.01,8.69,16.81,15.597,26.393,20.729c0.665,2.68,1.002,6.045,1.002,10.115
	c0,7.031-0.883,14.563-2.649,22.597c-1.767,8.099-3.85,13.946-6.249,17.547c-11.132,2.399-20.463,5.532-27.996,9.397
	c-11.932,6.199-20.014,14.381-24.247,24.547c-1.766,4.3-0.55,8.6,3.649,12.898c5.933,6.031,17.014,8.682,33.245,7.948
	c15.098-0.7,28.446-3.782,40.044-9.249c8.432-3.999,14.281-7.748,17.547-11.248c2.799-2.967,4.199-6.365,4.199-10.198
	c0-1.634-0.467-4.517-1.4-8.649c-0.9-3.897-1.283-7.299-1.15-10.196c0.3-7.601,4.333-16.465,12.098-26.597
	c2.466-3.199,5.133-6.315,7.999-9.35l1.153-1.138c6.358,1.298,14.137,1.86,23.343,1.688c8.251-0.177,15.404-0.812,21.46-1.904
	l9.635,15.252c7.566,13.164,11.949,23.68,13.148,31.545c-2.966,6.031-3.783,11.914-2.449,17.646c0.967,4.232,2.85,8,5.648,11.299
	c2.867,3.398,6.85,6.481,11.949,9.248c11.729,6.332,24.996,10.35,39.793,12.049c15.432,1.731,26.463,0.133,33.096-4.799
	c2.231-1.668,3.849-3.483,4.849-5.449c1.4-2.733,1.8-5.883,1.2-9.449c-2-11.932-9.482-21.663-22.447-29.195
	c-8.799-5.133-18.529-8.599-29.195-10.398c-2.465-3.799-4.715-12.598-6.748-26.396c-1.59-10.88-2.44-19.718-2.571-26.562
	c8.179-3.463,16.135-8.146,23.868-14.081c8.423-6.439,15.902-13.837,22.452-22.181c1.819,0.342,3.713,0.623,5.692,0.832
	c6.999,0.733,13.582,0.084,19.747-1.949c6.232-2.032,11.815-5.416,16.748-10.147c5.966-5.666,10.531-12.815,13.697-21.447
	c2.51-6.781,3.71-13.021,3.622-18.731c5.572-6.462,8.734-13.865,9.477-22.213C387.188,89.186,385.938,79.454,382.471,70.789z"/>
</svg>
