<?xml version="1.0" encoding="utf-8"?>
<!-- Generator: Adobe Illustrator 16.0.0, SVG Export Plug-In . SVG Version: 6.00 Build 0)  -->
<!DOCTYPE svg PUBLIC "-//W3C//DTD SVG 1.1//EN" "http://www.w3.org/Graphics/SVG/1.1/DTD/svg11.dtd">
<svg version="1.1" id="图层_1" xmlns="http://www.w3.org/2000/svg" xmlns:xlink="http://www.w3.org/1999/xlink" x="0px" y="0px"
	 width="285px" height="351px" viewBox="0 0 285 351" enable-background="new 0 0 285 351" xml:space="preserve">
<path d="M281.405,231.316c-2.1-10.031-5.449-18.83-10.049-26.396c-1.433-2.333-2.566-3.466-3.399-3.399
	c-0.767,0.1-1.232,1.183-1.4,3.249c-0.5,5.399-1.216,9.981-2.148,13.748c-1.134-0.899-2.7-1.916-4.7-3.05
	c-2.1-1.199-3.815-2.016-5.149-2.449c-2.933-0.934-4.648-1.066-5.148-0.4c-0.467,0.533-0.084,1.684,1.149,3.45
	c3.833,5.532,6.982,12.331,9.448,20.397c2.4,7.898,3.9,16.098,4.5,24.596c1.252,17.967-1.496,32.125-8.238,42.478
	c-12.434,7.365-26.331,10.167-41.705,8.365c-10.031-1.167-19.914-4.315-29.646-9.448c-9.335-4.908-17.969-11.315-25.915-19.188
	c0.401-3.138,0.646-5.965,0.719-8.458c0.068-3.303-0.19-5.48-0.761-6.589c2.053-4.818,4.003-10.519,5.849-17.119
	c6.225,4.846,13.281,9.912,21.208,15.21c7.632,5.099,12.948,8.799,15.948,11.098c5.133,3.967,8.814,7.633,11.048,10.998
	c2.833,4.2,5.133,5.883,6.899,5.05c1.666-0.833,2.166-3.517,1.5-8.049c-0.801-5.199-2.383-10.148-4.75-14.848
	c-2.04-4.024-4.848-8.23-8.396-12.61c2.238,1.393,4.496,2.83,6.796,4.361c11.665,7.732,21.431,15.398,29.296,22.996
	c2.767,2.667,4.633,3.617,5.599,2.85c1.033-0.799,1.15-3.732,0.351-8.799c-1.866-11.598-6.999-22.196-15.397-31.795
	c-8.466-9.698-21.164-19.414-38.095-29.146c-11.819-6.79-21.965-13.174-30.441-19.153l-0.255-3.994
	c-0.195-2.351-0.392-4.094-0.587-5.238c6.163-0.068,11.654-0.515,16.435-1.36c9.699-1.7,15.215-4.815,16.549-9.349
	c1.999-6.666-1.9-16.731-11.699-30.196c-7.965-10.998-15.581-19.314-22.847-24.946c-2.964-2.268-5.905-3.8-8.824-4.63
	c-2.284-7.995-5.502-18.033-9.673-30.165c-3.32-9.464-6.114-17.127-8.394-23.039c9.228-3.98,18.375-9.146,27.44-15.506
	c15.564-10.932,27.896-22.764,36.995-35.495c0.399-0.6,0.517-0.966,0.351-1.1c-0.134-0.2-0.601-0.2-1.4,0
	c-0.267,0.033-2.949,1.033-8.049,3l-9.249,3.399c1-2.833,1.717-6.433,2.149-10.798c0.4-3.966,0.417-6.699,0.051-8.199
	c-0.268-1.1-0.533-1.666-0.801-1.7c-0.266-0.033-0.666,0.333-1.199,1.1c-14.076,20.519-31.092,37.311-51.01,50.424
	c-2.15-7.496-4.685-13.772-7.605-18.83c0.736-2.069,1.348-4.474,1.823-7.248c1.066-6.333,0.933-11.699-0.4-16.098
	c-0.133-0.4-0.4-0.534-0.8-0.4c-4.899,1.1-9.582,3.55-14.048,7.349c-0.686,0.584-1.317,1.171-1.923,1.759
	c-2.713-0.999-5.935-1.488-9.675-1.459c-4.166,0.067-8.182,0.733-12.048,2c-3.971,1.328-7.504,2.918-10.622,4.759l-3.676-3.76
	l-3.949-4.649c-0.467-0.6-1.2-0.2-2.2,1.2c-1.067,1.4-2.017,3.333-2.85,5.799c-2.06,5.907-2.45,11.285-1.206,16.146
	c-3.495,7.5-4.63,17.645-3.394,30.448c0.186,1.875,0.238,3.626,0.172,5.267C51.19,69.903,44.18,61.69,38.939,49.093
	c-3.599-8.565-6.049-18.131-7.349-28.696c-0.2-1.6-0.633-2.4-1.3-2.4c-0.567,0.067-1.267,0.85-2.1,2.35
	c-1.767,3.13-3.168,7.502-4.214,13.082c-1.773-2.275-3.402-4.038-4.885-5.283c-1.799-1.5-2.75-1.633-2.849-0.4
	c-0.3,4.699,0.466,9.882,2.299,15.548c1.9,5.899,4.649,11.448,8.249,16.647c8.507,12.332,19.073,19.42,31.691,21.28
	c-0.804,1.972-1.993,3.964-3.577,5.977c-2.945,0.055-4.315,0.663-4.068,1.839c0.167,0.667,0.583,1.233,1.25,1.7
	c0.667,0.434,1.5,0.7,2.5,0.8l0.147-0.016c10.209,3.247,20.941,3.025,32.198-0.684c7.381-2.46,13.973-6.033,19.815-10.667
	c3.078,4.94,5.639,13.424,7.681,25.464c1.06,6.357,1.69,11.973,1.895,16.85c-4.638,0.262-10.277,2.509-16.943,6.796
	c-3.02,1.971-7.329,5.231-12.897,9.75c-6.271-7.292-12.719-13.698-19.348-19.199c-9.765-8.099-17.531-12.048-23.297-11.849
	c-5.132,0.2-10.249,3.133-15.348,8.799c-4.933,5.399-9.449,12.932-13.548,22.597c-8.798,20.597-13.748,44.427-14.848,71.489
	c-0.233,5.4,0.3,14.382,1.6,26.947l3.7,33.595l1.8,19.447c0.4,4.433,0.933,6.649,1.6,6.649c1.767,0.1,4.1-2.783,6.999-8.648
	c2.381-4.763,4.09-9.75,5.143-14.955c2.199,18.392,3.552,29.283,4.056,32.652c0.233,1.466,0.633,2.383,1.2,2.749
	c0.767,0.399,1.833,0.034,3.2-1.1c2.2-1.8,4.549-5.116,7.049-9.948c2.667-5.199,4.949-11.099,6.849-17.697
	c4.699-16.799,5.482-32.829,2.35-48.094c-2.3-11.099-3.816-18.848-4.549-23.246c-1.4-8.433-2.233-16.198-2.5-23.297
	c-0.18-4.462-0.132-8.993,0.136-13.591c2.202,5.11,4.873,7.608,8.013,7.492c2.845-0.157,5.113-2.063,6.819-5.669
	c0.423-0.315,0.813-0.674,1.169-1.073c3.842,7.033,9.99,14.096,18.458,21.19c8.299,6.966,13.782,10.048,16.448,9.249
	c1.767-0.5,4.833-2.65,9.199-6.449c3.466-3.012,6.235-5.692,8.32-8.05c0.644,1.131,1.299,2.256,1.974,3.372
	c-2.571,13.258-6.374,24.93-11.444,34.973c-5.799,11.398-13.331,20.964-22.597,28.696c-7.199,5.999-12.881,14.048-17.047,24.146
	c-4.7,11.398-5.133,20.98-1.3,28.746c4,8.099,9.715,12.849,17.147,14.248c5.57,1.079,12.338,0.31,20.293-2.297
	c-0.235,0.987-0.731,2.217-1.496,3.696c-0.967,1.9-1.8,3.166-2.5,3.8c-1.733,1.532-7.149,5.099-16.248,10.698
	c-2.2,1.434-3.283,2.516-3.25,3.25c0.033,0.699,0.833,1.049,2.4,1.049l8.899-1.46c-1.722,1.812-2.847,3.088-3.35,3.81
	c-1.366,1.801-1.983,3.017-1.85,3.65l2.9,0.05c4.026-1.401,6.95-2.483,8.823-3.262c-1.044,1.888-1.522,3.162-1.424,3.812l2.799,0.1
	c2.466-1.033,5.982-2.966,10.549-5.799c4.766-3.033,7.432-5.066,7.999-6.1c2.966-5.666,5.449-12.848,7.449-21.547
	c1.866-8.365,2.216-13.131,1.05-14.297c-0.367-0.367-1.1-0.518-2.2-0.451l-3.55,0.351l-4.249,0.351
	c-0.764,0-1.415-0.069-1.965-0.198c1.394-0.733,2.863-1.468,4.415-2.202c6.832-3.233,12.647-5.407,17.47-6.547
	c4.167,0.481,8.026-0.009,11.582-1.459c-2.39,4.521-4.744,9.215-7.055,14.105c-2.633,5.633-4.216,9.465-4.75,11.498
	c-0.7,2.533-0.833,4.066-0.4,4.6c0.333,0.5,1.15,0.232,2.45-0.801l4.949-4.898l3.217-3.73c-0.023,0.13-0.044,0.249-0.067,0.381
	c-0.867,4.533-1.4,7.898-1.6,10.098c-0.2,2.367,0.034,3.584,0.7,3.65c0.6,0.033,1.649-0.983,3.149-3.05l3.799-5.949l1.484-2.472
	c-0.231,3.499-0.31,5.711-0.234,6.621c0.101,1.9,0.45,2.85,1.051,2.85c0.5,0,1.283-0.699,2.35-2.1
	c3.042-3.93,5.745-10.964,8.113-21.083c18.133,13.103,36.591,20.669,55.377,22.683c19.431,2.1,35.895-2.184,49.393-12.848
	c6.8-5.366,12.216-12.632,16.248-21.797c3.699-8.533,5.967-18.048,6.799-28.547C284.172,251.281,283.505,241.249,281.405,231.316z"
	/>
</svg>
