<?xml version="1.0" encoding="utf-8"?>
<!-- Generator: Adobe Illustrator 16.0.0, SVG Export Plug-In . SVG Version: 6.00 Build 0)  -->
<!DOCTYPE svg PUBLIC "-//W3C//DTD SVG 1.1//EN" "http://www.w3.org/Graphics/SVG/1.1/DTD/svg11.dtd">
<svg version="1.1" id="图层_1" xmlns="http://www.w3.org/2000/svg" xmlns:xlink="http://www.w3.org/1999/xlink" x="0px" y="0px"
	 width="446px" height="394px" viewBox="0 0 446 394" enable-background="new 0 0 446 394" xml:space="preserve">
<path d="M444.9,160.875c-0.045-0.94-0.283-1.831-0.696-2.677c-0.339-4.78-1.683-8.674-4.051-11.664
	c-2.965-3.731-7.212-5.613-12.741-5.646c-4.431-0.066-9.311,0.417-14.641,1.449c-4.787,0.917-8.668,2.033-11.654,3.345
	c-0.063-0.047-0.123-0.101-0.188-0.147c-4.764-3.364-9.36-4.497-13.791-3.397c-0.295,0.072-0.596,0.179-0.899,0.305l-4.446-0.255
	c-3.631,0.267-5.979,1.033-7.046,2.298c-1.132,1.399-1.516,4.664-1.148,9.793c0.014,0.217,0.035,0.42,0.05,0.634
	c-1.635-1.012-3.349-1.925-5.146-2.733c-2.165-0.999-4.048-1.632-5.646-1.898l-3.548-0.15c-0.399,0.266-0.449,1.366-0.149,3.297
	c0.947,6.9,1.365,11.986,1.26,15.279c-0.58,0.173-1.153,0.351-1.76,0.51c-0.421,0.112-0.854,0.206-1.279,0.31
	c-3.408-3.428-7.869-7.292-13.411-11.602c-6.595-5.13-11.975-8.661-16.139-10.593c-2.532-1.166-4.081-1.416-4.647-0.75
	c-0.333,0.366-0.383,1.549-0.149,3.548l1.549,11.642c0.556,4.055,0.946,7.476,1.178,10.28c-1.733,0.463-3.395,1.111-4.975,1.961
	c-0.586,0.319-1.198,0.7-1.822,1.109c-8.413-4.464-13.919-7.166-16.516-8.104c-1.833-0.733-2.898-0.933-3.198-0.6
	c-0.333,0.266-0.3,1.366,0.1,3.297l2.824,10.299l-13.167-12.848c-0.866-0.999-1.532-2.115-1.999-3.348
	c-0.576-1.568-1.253-3.134-2.01-4.699l0.611,0.352l2.099,0.649c0.267-0.1,0.8-0.783,1.599-2.049
	c1.699-2.831,3.515-5.596,5.447-8.294c2.631-3.631,4.646-5.863,6.045-6.695l10.144-0.45l11.592,1.549l2.698,0.1
	c0.167-0.133,0.3-1,0.4-2.598c0.433-5.93,1.148-13.125,2.148-21.585c1.132-9.694,1.998-15.09,2.598-16.189
	c0.5-1.066,4.764-3.448,12.792-7.145c6.063-2.832,12.291-5.53,18.688-8.095l2.498-1.249c0.167-0.267,0.066-1.049-0.3-2.349
	c-0.899-3.364-2.648-8.061-5.246-14.09c-2.565-5.962-5.047-11.143-7.445-15.54c7.828-27.814,12.325-45.136,13.491-51.965
	c0.3-1.666,0.282-2.665-0.051-2.998l-2.498,0.05c-4.197,1.066-11.159,3.448-20.886,7.145c-9.46,3.631-16.688,6.646-21.686,9.044
	c-4.563-2.032-10.692-4.33-18.388-6.895c-7.961-2.698-13.808-4.397-17.538-5.097c-1.965-0.4-3.131-0.383-3.498,0.05
	c-0.332,0.333-0.466,1.449-0.399,3.348l0.749,17.688c0.351,7.823,0.454,13.618,0.318,17.434l-11.16,0.904
	c-5.23,0.733-9.377,1.632-12.441,2.698c-1.1,0.367-1.75,0.716-1.949,1.049c-0.333,0.466-0.434,1.382-0.3,2.748
	c0.435,3.54,1.579,11.268,3.433,23.174c-1.438-1.851-3.185-4.031-5.281-6.585l-9.737-11.748c1.282-4.101,2.546-8.809,3.791-14.135
	c1.899-8.261,3.132-15.34,3.698-21.236c0.1-1.366,0.016-2.249-0.25-2.648c-0.367-0.366-1.116-0.466-2.249-0.3l-14.59,3.048
	c-6.763,1.632-12.742,3.198-17.938,4.697c-4.397-9.793-7.978-16.889-10.743-21.286c-0.899-1.399-1.666-2.115-2.298-2.149
	c-0.633-0.066-1.782,0.433-3.448,1.499c-2.565,1.632-6.029,4.314-10.393,8.045c-3.531,2.964-6.762,5.846-9.693,8.644l-1.699,1.199
	l-0.899-1c-4.197-6.063-8.194-11.442-11.992-16.139c-0.933-1.199-1.649-1.849-2.149-1.949c-0.6-0.1-1.432,0.45-2.498,1.649
	l-6.665,8.802l-0.98-1.307l-1.649-1.999c-0.899-0.866-1.565-1.25-1.999-1.149c-0.433,0.133-1,0.716-1.699,1.749
	c-2.52,3.842-4.962,7.993-7.333,12.431c-0.426-0.636-0.863-1.423-1.312-2.388c-0.5-1.033-1.416-3.414-2.748-7.145
	c-0.633-1.666-1.166-2.515-1.599-2.548c-0.466-0.033-1.083,0.799-1.849,2.498c-1.799,3.864-4.081,9.244-6.845,16.14
	c-2.422,6.019-4.118,10.545-5.096,13.594c-2.167-3.087-4.83-6.684-7.995-10.796c-3.964-5.196-6.962-8.861-8.994-10.993
	c-0.999-0.966-1.749-1.565-2.248-1.799c-0.633-0.2-1.433-0.05-2.398,0.45c-3.964,1.965-9.894,5.646-17.788,11.043
	c-8.095,5.529-13.624,9.66-16.589,12.392l-28.131-3.348L9.043,36.508c-2.532-0.133-2.948,1.149-1.249,3.848
	c2.765,4.497,7.895,11.975,15.39,22.435l16.589,22.734l0.1,15.79l-0.45,13.091c-0.1,1.865-0.083,2.881,0.05,3.048l2.848,0.15
	c6.129-0.5,13.558-0.583,22.285-0.25c9.161,0.367,14.257,1,15.29,1.899c1.766,1.565,3.848,6.762,6.246,15.589
	c1.099,3.998,2.781,11.026,5.046,21.086c0.133,0.7,0.633,0.899,1.499,0.6c5.93-2.298,12.458-4.347,19.587-6.146
	c8.128-2.032,13.341-2.715,15.64-2.048c2.465,0.699,5.18,3.364,8.145,7.995c2.065,3.165,3.947,6.745,5.646,10.743
	c0.5,1.266,0.916,1.932,1.249,1.999c0.267,0.067,0.933-0.283,1.999-1.049c3.564-2.798,6.429-4.88,8.594-6.246
	c3.664-2.398,6.379-3.598,8.145-3.598c3.05,0,6.846,3.157,11.383,9.457c-1.415,3.575-4.314,7.945-8.735,13.128
	c-2.523,2.968-5.046,5.609-7.568,7.947l0.473-3.65c0.233-2.265,0.3-3.964,0.2-5.097c-0.1-1.132-0.416-1.765-0.949-1.898
	c-0.5-0.1-1.549,0.183-3.148,0.849c-1.432,0.566-3.281,1.516-5.546,2.848l-4.135,2.468c-1.283-0.475-4.246-0.865-8.886-1.168
	c0.188-1.909,0.53-4.236,1.029-6.995l1.399-7.845c0.367-2.365,0.2-3.748-0.5-4.147c-0.566-0.267-2.049-0.017-4.447,0.75
	c-3.165,1.066-7.429,3.398-12.792,6.995c-4.318,2.878-8.38,5.943-12.212,9.172c-1.633-0.388-3.219-0.85-4.753-1.386
	c0.266-1.509,0.686-3.296,1.276-5.388l2.298-7.445c0.433-1.499,0.45-2.415,0.05-2.748c-0.466-0.333-1.632-0.217-3.498,0.35
	c-1.333,0.366-3.748,1.366-7.245,2.998l-7.508,3.332c-0.667-0.71-1.287-1.446-1.85-2.212c0.732-1.802,1.371-5.411,1.914-10.863
	c0.699-6.496,0.533-10.609-0.5-12.341c-1.866-3.165-5.147-5.047-9.844-5.646c-3.265-0.417-5.854-0.001-7.8,1.208
	c-0.329,0.062-0.66,0.14-0.994,0.241c-4.197,1.199-8.194,4.064-11.992,8.594c-0.282,0.339-0.547,0.69-0.817,1.037
	c-1.743-1.213-4.029-2.491-6.878-3.835c-3.831-1.799-6.628-2.665-8.394-2.598c-3.464,0.133-8.028,1.616-13.691,4.447
	c-5.563,2.765-8.694,5.047-9.394,6.846c-0.566,1.399-0.766,3.614-0.6,6.646c0.06,1.325,0.299,3.642,0.714,6.93
	c-0.261,1.625-0.074,3.311,0.585,5.062c1.533,4.264,4.697,8.161,9.494,11.692c1.699,1.251,3.517,2.391,5.445,3.429
	c-0.776,1.47-1.494,3.088-2.147,4.866c-0.866,2.332-1.266,3.914-1.199,4.747c0.067,1.133,0.616,2.481,1.649,4.047
	c0.56,0.787,1.158,1.491,1.792,2.122c0.077,0.315,0.173,0.625,0.307,0.926c1.532,3.698,5.113,7.245,10.743,10.644
	c1.57,0.939,3.115,1.754,4.64,2.47l-1.992,6.624L45.341,231c-0.792-0.158-1.589-0.311-2.372-0.48
	c-1.132-3.477-2.646-7.453-4.545-11.934c-2.232-5.131-4.264-9.294-6.096-12.492c-0.866-1.465-1.632-2.231-2.298-2.299
	c-0.733-0.033-1.499,0.717-2.298,2.249c-1.133,2.132-2.532,5.18-4.197,9.144l-3.407,8.261c-5.457-2.271-10.604-4.886-15.431-7.86
	c-2.032-1.266-3.431-1.582-4.197-0.949c-0.833,0.633-0.733,2.064,0.3,4.297c8.095,17.422,20.287,33.311,36.576,47.668
	c16.126,14.15,34.525,25.239,55.184,33.282c0.053,0.102,0.106,0.203,0.158,0.303c-0.625,4.605-0.89,7.848-0.799,9.748
	c-0.651-0.357-1.169-0.618-1.529-0.762c-0.899-0.433-1.549-0.583-1.949-0.45c-0.433,0.134-0.716,0.633-0.849,1.5
	c-0.943,4.933-1.633,14.601-2.072,28.993c-0.742,0.745-1.334,1.59-1.775,2.535c-1.965,4.264-3.498,8.36-4.597,12.292
	c-0.643,2.257-1.093,4.301-1.363,6.149c-0.886,1.415-1.515,3.111-1.885,5.093c-0.5,2.698-0.466,6.445,0.1,11.242
	c0.5,4.297,1.232,7.945,2.198,10.943c0.367,1.165,0.816,1.865,1.349,2.098c0.566,0.233,1.366-0.017,2.398-0.749
	c2.898-2.132,5.696-4.747,8.395-7.845c1.417-1.62,2.638-3.198,3.676-4.738c2.203,0.386,4.355,0.616,6.46,0.706
	c1.098,1.734,2.677,3.726,4.753,5.981c3.931,4.264,7.762,7.561,11.493,9.893c1.066,0.666,1.849,0.933,2.348,0.799
	c0.566-0.1,1.033-0.732,1.399-1.898c0.767-2.432,1.299-5.813,1.599-10.143c0.119-2.13,0.153-4.16,0.109-6.093
	c2.101,0.7,6.127,2.182,12.083,4.444c5.596,2.098,9.593,3.646,11.992,4.646c1.333,0.566,2.149,0.749,2.449,0.549
	c0.399-0.232,0.45-1.065,0.15-2.498c-0.866-4.496-2.915-9.561-6.146-15.189c-1.052-1.851-2.069-3.433-3.052-4.762
	c0.063-0.405,0.082-0.816,0.054-1.234c-0.1-2.031-1.266-4.23-3.498-6.596c-2.199-2.365-4.963-4.347-8.294-5.945l-2.448-1.399
	c-0.633-0.466-0.933-0.966-0.899-1.499l0.45-4.598c0-0.565,0.3-1.049,0.899-1.448l4.047-2.748c1.2-0.854,2.111-1.596,2.74-2.227
	c0.171-0.023,0.354-0.042,0.508-0.072c2.765-0.499,7.145-2.998,13.141-7.495c6.262-4.696,9.793-8.361,10.593-10.992
	c0.28-0.959,0.617-2.295,1.011-3.993c11.776-0.398,19.409-0.965,22.873-1.703c1.859-0.402,6.46-2.523,13.796-6.356l0.294,0.011
	c3.631-0.2,8.744-1.149,15.34-2.849c1.598-0.407,3.058-0.803,4.403-1.19c2.338,1.643,4.636,3.628,6.889,5.987
	c0.917,0.972,1.742,1.938,2.527,2.902c-0.171,1.482-0.643,2.946-1.427,4.393c-0.299,0.529-0.647,1.036-1.018,1.532
	c-2.158-1.685-4.7-3.536-7.676-5.579c-3.265-2.231-6.046-3.98-8.344-5.246c-1.066-0.6-1.916-0.732-2.548-0.4
	c-0.667,0.301-0.933,1.033-0.799,2.199c0.433,3.197,1.232,7.195,2.398,11.992c0.912,3.591,1.79,6.677,2.636,9.276
	c-1.27,1.87-1.836,4.205-1.687,7.013c0.133,3.497,1.249,9.393,3.348,17.688c0.333,1.532,1.016,2.915,2.049,4.147
	c0.999,1.199,2.415,2.364,4.247,3.497c2.065,1.299,5.13,2.766,9.194,4.397c3.204,1.252,5.683,2.046,7.458,2.393
	c0.073,0.091,0.149,0.179,0.236,0.256c2.298,1.832,6.346,3.714,12.142,5.646c5.396,1.766,9.677,2.781,12.842,3.049
	c1.865,0.133,2.932-0.033,3.197-0.5c0.233-0.367,0.051-1.549-0.549-3.548c-0.559-1.774-1.326-3.77-2.298-5.981
	c2.721,1.199,5.789,2.346,9.243,3.434c3.764,1.199,6.845,2.016,9.243,2.448c1.865,0.333,2.965,0.333,3.298,0
	c0.434-0.399,0.316-1.583-0.35-3.548c-0.877-2.574-2.024-5.3-3.424-8.166c3.883,1.099,8.285,1.907,13.217,2.42
	c1.332,0.133,2.115-0.05,2.349-0.55c0.2-0.433-0.033-1.266-0.7-2.498c-2.197-4.03-4.945-7.995-8.244-11.892
	c-3.102-3.6-5.547-5.705-7.338-6.323c-0.104-0.685-0.271-1.349-0.557-1.972c-0.433-0.933-0.999-1.666-1.699-2.198
	c-1.932-1.433-4.713-2.315-8.344-2.648c-3.564-0.267-7.045,0.066-10.443,0.999l-4.746-0.149l-3.148-3.448
	c-0.434-0.466-0.533-0.865-0.3-1.199l0.452-0.452c1.333,0.471,2.759,0.923,4.295,1.353c4.764,1.299,8.861,1.914,12.291,1.848
	c3.465-0.066,7.046-1.365,10.743-3.896c3.864-2.699,6.13-5.613,6.796-8.744c1.865-8.895,1.781-16.839-0.25-23.834
	c-2.465-8.628-6.013-17.555-10.643-26.782c-3.99-7.949-7.869-14.305-11.639-19.1c3.666-8.471,6.606-17.815,8.79-28.069
	c2.706-12.67,4.139-25.676,4.327-39.008c4.944,4.54,10.08,10.146,15.41,16.823c5.029,6.229,9.21,12.108,12.541,17.638
	c2.065,3.398,3.73,5.547,4.997,6.446c2.099,1.466,5.829,2.448,11.192,2.948c10.093,0.966,18.454,0.383,25.083-1.749
	c6.429-2.065,12.358-5.946,17.788-11.643c2.965-3.064,7.062-7.028,12.292-11.892c5.396-5.063,9.46-8.694,12.191-10.893
	c1.066-0.899,2.099-1.283,3.098-1.149l18.488,1.299c0.899,0,1.665,0.367,2.298,1.1c1.859,2.108,3.325,3.881,4.424,5.339
	c-0.011,0.183-0.026,0.36-0.026,0.557c0.033,2.832-0.2,6.213-0.7,10.144c-0.466,3.997-1.099,7.528-1.898,10.593
	c-0.433,1.732-0.533,2.799-0.3,3.198c0.399,0.666,1.683,0.55,3.848-0.351c3.631-1.531,7.528-3.664,11.692-6.395
	c4.463-2.965,7.345-5.447,8.644-7.445c1.732-2.599,2.682-5.529,2.849-8.795c0.085-1.465-0.014-2.801-0.274-4.022
	c0.584-6.163,0.068-10.591-1.546-13.286c1.452-1.139,2.81-2.331,4.068-3.577C442.452,172.767,445.134,166.937,444.9,160.875z
	 M418.79,170.636l-1.771,0.032c-0.899-0.067-1.382-0.217-1.448-0.45c-0.033-0.267,0.383-0.8,1.249-1.599
	c0.555-0.456,1.096-0.838,1.627-1.164C418.564,168.442,418.679,169.496,418.79,170.636z M43.621,175.594
	c-0.169-1.339-0.343-2.728-0.519-4.155c2.134,0.781,3.216,1.342,3.216,1.678c0.033,0.333-0.4,0.833-1.299,1.499L43.621,175.594z
	 M259.633,83.198l0.242,2.177l-4.993-0.445L259.633,83.198z M109.549,231.089c-1.175-1.638-2.646-3.866-4.417-6.697
	c3.562,1.908,6.987,3.59,10.286,5.063C113.512,230.055,111.555,230.599,109.549,231.089z M77.622,234.336
	c-2.956-7.938-5.268-13.854-6.92-17.699c-3.131-7.361-6.496-14.007-10.093-19.937l-1.799-2.298
	c-0.063-0.045-0.127-0.075-0.191-0.111c0.031-0.098,0.062-0.201,0.091-0.289c0.167-0.5,0.466-0.6,0.899-0.3
	c1.832,1.399,3.181,2.349,4.047,2.848c1.366,0.733,2.515,1.049,3.448,0.95c0.25-0.045,0.575-0.17,0.963-0.364
	c4.557,4.788,9.764,9.371,15.634,13.745c-0.186,2.587-0.552,6.276-1.107,11.103l-1.505,12.362
	C79.944,234.354,78.789,234.352,77.622,234.336z"/>
</svg>
