<?xml version="1.0" encoding="utf-8"?>
<!-- Generator: Adobe Illustrator 16.0.0, SVG Export Plug-In . SVG Version: 6.00 Build 0)  -->
<!DOCTYPE svg PUBLIC "-//W3C//DTD SVG 1.1//EN" "http://www.w3.org/Graphics/SVG/1.1/DTD/svg11.dtd">
<svg version="1.1" id="图层_1" xmlns="http://www.w3.org/2000/svg" xmlns:xlink="http://www.w3.org/1999/xlink" x="0px" y="0px"
	 width="294px" height="287px" viewBox="0 0 294 287" enable-background="new 0 0 294 287" xml:space="preserve">
<path d="M293.2,84.675c-0.233-9.1-0.866-15.616-1.9-19.55c-0.533-2.066-2-4.383-4.399-6.95c-1.654-1.739-3.605-3.479-5.82-5.218
	c-0.158-0.817-0.318-1.437-0.48-1.832c-0.766-1.767-2.916-3.917-6.449-6.45c-2.742-1.898-4.828-3.002-6.277-3.336
	c-1.818-2.447-3.548-4.188-5.189-5.235c0.187-3.384-0.916-5.454-3.334-6.179c-3-1.033-6.833-2.1-11.5-3.2
	c-2.023-0.512-3.822-0.186-5.4,0.962c-1.165-0.388-2.379-0.565-3.649-0.512c-1.634,0.067-2.933,0.483-3.899,1.25
	c-1.268,0.967-2.484,1.55-3.65,1.75c-0.9,0.167-1.8,0.6-2.7,1.3c-0.733,0.6-1.333,1.267-1.8,2c-0.934,1.5-1.633,4.183-2.1,8.05
	c-0.467,3.367-0.584,5.733-0.351,7.1c0.134,1.066,0.833,2.283,2.101,3.65c1.033,1.1,2.083,2,3.149,2.7
	c0.636,0.419,1.246,0.756,1.839,1.038c0.082,0.397,0.183,0.827,0.3,1.286c-0.267,0.091-0.529,0.214-0.788,0.376
	c-0.566,0.3-0.984,0.733-1.25,1.3l-1.801,3.15c-0.3,0.566-0.533,1.3-0.699,2.2l-0.25,2.6c-0.066,1.2-0.084,8.417-0.051,21.65
	c-0.066,3.3,1.334,7.05,4.2,11.25c0.567,0.8,0.967,1.7,1.2,2.7c0.161,0.751,0.231,1.706,0.22,2.845
	c-4.215-0.778-9.293-1.987-15.222-3.622c-1.161-1.723-2.386-3.236-3.674-4.545c-0.059-2.614-0.421-4.807-1.124-6.528
	c-1.467-3.533-4.684-7.383-9.65-11.55c-4.73-3.972-8.888-6.285-12.487-6.974c0.601-1.707,1.294-3.61,2.088-5.726
	c3-7.966,4.684-12.683,5.05-14.15c0.533-2.233,0.233-3.933-0.9-5.1c-2.366-2.433-5.816-5.75-10.35-9.95
	c-5.2-4.867-8.75-8.017-10.65-9.45c-0.3-3.066-0.917-7.083-1.85-12.05c-0.833-4.6-1.4-7.317-1.7-8.15
	c-0.334-0.867-2.133-2.35-5.4-4.45c-3.266-2.1-5.416-3.1-6.449-3c-3.5,0.5-13.917,8.133-31.25,22.9
	c-17.033,14.534-26.05,23.15-27.05,25.85c-0.467,1.267-0.167,4.717,0.9,10.35c0.908,4.732,1.954,8.749,3.135,12.073
	c-0.99-0.402-1.984-0.748-2.985-1.023l-4.25-0.5c-1.133,0.2-2.8,1.034-5,2.5c-1.422,0.939-2.731,1.913-3.937,2.917
	c-0.953,0.015-1.895,0.053-2.813,0.134c-2.566,0.233-4.7,1.15-6.4,2.75c-3.979,3.856-7.958,8.495-11.937,13.897
	c0.002-0.838,0.047-1.708,0.187-2.647l2.05-14.1c0.767-5.2,1.367-8.434,1.8-9.7c0.14-0.406,0.239-0.792,0.32-1.167
	c1.271-0.185,2.564-0.791,3.879-1.833l2.4-2.3l2.45-3.05c0.667-1.1,1-2.066,1-2.9c0-0.7-0.267-1.55-0.8-2.55l-3.25-4.85
	c-1.633-2.3-2.95-3.967-3.95-5c-1.557-1.608-3.124-2.24-4.7-1.913c-1.471-1.536-3.417-3.279-5.85-5.237
	c-2.767-2.267-4.967-3.867-6.6-4.8c-0.967-0.566-1.917-0.816-2.85-0.75c-0.967,0.1-1.85,0.45-2.65,1.05
	c-0.643,0.524-1.257,1.057-1.869,1.591c-3.185-1.651-6.097-2.785-8.731-3.391c-1.066-0.233-1.967-0.233-2.7,0
	c-0.8,0.267-1.55,0.867-2.25,1.8c-1.238,1.698-2.489,3.819-3.751,6.313c-1.176,0.596-3.601,2.4-7.299,5.437
	c-3.118,2.522-5.651,4.692-7.612,6.516c-0.995,0.01-1.881,0.037-2.638,0.084c-1.1,0.1-1.85,0.3-2.25,0.6
	c-0.5,0.333-0.967,1.05-1.4,2.15l-6.95,17.5C1.717,76.292,0.2,81.258,0,83.725c-0.3,3.533,0.35,10.333,1.95,20.4
	c1.4,8.8,2.85,16.233,4.35,22.3c0.3,1.067,0.617,1.8,0.95,2.2c0.4,0.467,1.083,0.783,2.05,0.95l4.7,1.15l4.5,1.3l1.8,0.35
	l1.849-0.274c1.647,4.87,3.265,8.009,4.852,9.374c1.033,0.867,2.833,2.083,5.4,3.65c2.6,1.566,4.75,2.7,6.45,3.4l3.6-0.15
	c2.212-1.546,5.217-3.244,8.999-5.092c-0.547,8.469,0.227,16.569,2.351,24.292c1.067,4.1,2.4,7.483,4,10.149
	c-0.333,1.2-0.433,2.566-0.3,4.101c0.1,1.833,0.45,3.5,1.05,5c1.534,3.833,4,7.85,7.4,12.05c3.867,4.767,7.466,7.684,10.8,8.75
	c2.603,0.802,5.712,1.206,9.323,1.218c0.877,0.656,1.823,1.323,2.838,2.001c-2.294,0.991-4.854,2.402-7.71,4.281
	c-6.2,4.1-10.117,7.85-11.75,11.25c-1.633,3.367-3.367,9.967-5.2,19.8c-1.6,8.3-2.65,15.184-3.15,20.65l-0.1,2.05
	c0.033,0.867,0.267,1.5,0.7,1.9l2.4,2.449c0.874,1.012,2.021,1.532,3.432,1.58c0.204,1.494,0.74,2.736,1.618,3.721
	c1.2,1.3,3.2,2.366,6,3.199c3.7,1.101,8.717,2.184,15.05,3.25c6.533,1.101,10.466,1.467,11.8,1.101c0.9-0.2,2.233-0.717,4-1.55
	c1.733-0.834,3.2-1.634,4.4-2.4c0.677-0.401,1.152-1.051,1.466-1.896c6.679-2.266,11.257-4.153,13.684-5.654
	c0.934-0.567,1.583-1.233,1.95-2c0.3-0.7,0.45-1.65,0.45-2.851c0-5.6-0.15-11.083-0.45-16.449c-0.433-7.867-1.133-13.75-2.1-17.65
	c-0.633-2.666-1.633-4.816-3-6.45c-0.771-0.911-1.523-1.777-2.265-2.623c4.258,1.694,7.598,2.77,10.015,3.224l13.75,0.699l14-0.649
	c2.174-0.314,3.76-1.113,4.772-2.382l6.177-0.668l0.2-0.101c1.268-1.156,2.329-2.313,3.209-3.47c0.766,0.826,1.57,1.714,2.411,2.656
	c-0.75,0.419-1.477,0.78-2.17,1.063c-0.934,0.4-1.6,0.866-2,1.4c-0.434,0.566-0.7,1.399-0.8,2.5
	c-0.634,5.399-1.25,11.716-1.851,18.95c-0.699,8.633-1.05,14.934-1.05,18.899c0,0.9,0.184,1.616,0.55,2.15
	c0.334,0.5,0.884,0.899,1.65,1.2l11.588,4.247c0.005,0.05,0.008,0.104,0.012,0.152c0.066,0.967,0.301,1.684,0.7,2.15
	c0.434,0.5,1.134,0.767,2.101,0.8l3.399,0.55c1.7,0.366,2.9,0.784,3.601,1.25c0.566,0.333,1.149,0.567,1.75,0.7l2.199,0.2
	l13.25-0.65l11.25-1.1c1.634-0.233,2.934-0.583,3.9-1.05c1.033-0.467,1.85-1.134,2.45-2c1-1.4,1.8-2.867,2.399-4.4
	c0.7-1.7,1-3.166,0.9-4.4c-0.533-8.732-1.934-18.85-4.2-30.35c-0.333-1.533-1.183-2.983-2.55-4.35
	c-0.359-0.371-0.839-0.819-1.437-1.343l-0.413-6.357c-0.268-2.7-0.533-4.333-0.801-4.9c-0.566-1.134-3.333-3.333-8.3-6.6
	c-2.771-1.792-5.144-3.207-7.146-4.271c2.11-1.783,4.458-4.173,7.047-7.179c3.2-3.733,4.933-6.4,5.2-8
	c0.218-1.267-0.227-3.701-1.324-7.286c3.021-3.54,5.932-8.549,8.724-15.063c3.167-7.4,5.067-14.268,5.7-20.601
	c0.2-1.767-0.517-4.716-2.15-8.85c-1.066-2.667-2.066-4.833-3-6.5c-0.533-1.1-0.717-2.233-0.55-3.4
	c0.057-0.382,0.172-0.808,0.325-1.262c3.915,0.467,8.098,0.192,12.547-0.826c0.576,1.602,2.37,3.561,5.428,5.888
	c3.234,2.466,5.967,4.1,8.2,4.9l5.95,0.2l6.35-0.85c1.574-0.545,4.196-3.212,7.857-7.989c1.8-0.245,3.821-0.723,6.093-1.461
	c2.733-0.933,4.517-1.816,5.351-2.65c1.366-1.367,3.266-4.967,5.699-10.8c2.301-5.5,3.984-10.3,5.051-14.4
	C293.084,100.508,293.434,94.008,293.2,84.675z"/>
</svg>
