<?xml version="1.0" encoding="utf-8"?>
<!-- Generator: Adobe Illustrator 16.0.0, SVG Export Plug-In . SVG Version: 6.00 Build 0)  -->
<!DOCTYPE svg PUBLIC "-//W3C//DTD SVG 1.1//EN" "http://www.w3.org/Graphics/SVG/1.1/DTD/svg11.dtd">
<svg version="1.1" id="图层_1" xmlns="http://www.w3.org/2000/svg" xmlns:xlink="http://www.w3.org/1999/xlink" x="0px" y="0px"
	 width="586px" height="523px" viewBox="0 0 586 523" enable-background="new 0 0 586 523" xml:space="preserve">
<path d="M583.398,231.41c-1.334-9.705-2.484-16.775-3.451-21.211c-0.367-1.567-0.734-2.651-1.101-3.251l-1.852-1.701
	c-1.284-0.766-2.607-1.53-3.949-2.294c-1.489-9.358-5.096-18.218-10.858-26.57c-5.77-8.471-12.989-15.375-21.661-20.71
	c-8.007-4.934-16.422-8.014-25.239-9.257c-2.853-2.257-6.091-3.997-9.729-5.2c-1.478-0.481-4.719-0.792-9.69-0.933
	c-3.837-3.409-7.093-7.263-9.774-11.555c3.655-4.329,7.325-9.249,11.011-14.776c4.402-6.604,6.987-11.389,7.754-14.357
	c0.834-3.102,1.134-8.388,0.9-15.858c-0.2-7.404-0.8-12.323-1.801-14.758c-0.834-2.134-3.435-5.97-7.804-11.506
	c-0.942-1.208-1.832-2.323-2.679-3.363c3.924-4.558,8.958-11.139,15.135-19.799c6.236-8.737,11.64-16.725,16.208-23.962
	c0.667-0.9,1.101-1.951,1.301-3.152c0.267-1.367,0.05-2.435-0.65-3.202c-0.9-0.967-2.034-1.751-3.401-2.351
	c-1.067-0.434-8.204,0.617-21.411,3.152c-10.639,2.034-18.143,3.568-22.512,4.602c-2.001,0.534-3.668,1.134-5.002,1.801
	c-1.134,0.633-2.485,1.634-4.053,3.001c-5.035,4.335-9.237,7.737-12.606,10.205c-0.733,0.567-1.483,0.934-2.251,1.101l-3.302,0.15
	l-8.554-1.05l-8.455-1c-1.233-0.067-2.284,0.083-3.151,0.45c-0.801,0.333-1.935,1.05-3.401,2.151
	c-5.336,4.169-13.023,10.439-23.063,18.81c-10.104,8.504-17.092,14.541-20.96,18.109c-2.669,2.468-4.003,4.686-4.003,6.653
	c0.008,0.536-0.017,1.208-0.065,1.984c-8.021-8.109-16.767-14.729-26.247-19.843c-10.637-5.802-21.165-9.104-31.584-9.921
	c-0.4-1.61-0.827-3.284-1.283-5.037c-2.034-7.537-3.436-11.906-4.202-13.106c-1.459-2.334-7.028-5.38-16.683-9.133
	c1.092-3.605,2.184-6.955,3.275-10.026c0.4-1.067,0.334-2.018-0.199-2.852c-0.567-0.9-1.502-1.417-2.803-1.551
	c-4.035-0.3-12.222-0.317-24.562-0.05c-9.738,0.167-17.409,0.367-23.012,0.601c-1.634,0.1-2.601,0.5-2.901,1.201
	c-0.3,0.767,0.183,1.784,1.451,3.051l12.156,11.456c0.934,0.854,1.827,1.662,2.702,2.45c-2.456,1.338-4.796,2.897-7.004,4.704
	c-3.035,2.501-4.853,4.686-5.453,6.554c-1.034,3.335-2.235,8.854-3.602,16.559c-0.164,0.934-0.314,1.821-0.455,2.676
	c-12.467,5.554-23.894,14.162-34.274,25.84c-0.035-1.163-0.144-2.331-0.339-3.503c-0.434-2.535-1.117-4.235-2.051-5.103
	c-4.202-3.969-12.189-9.555-23.962-16.759c-12.006-7.337-19.277-10.972-21.812-10.905c-0.792,0.039-1.779,0.194-2.947,0.456
	c-2.136-2.903-4.272-5.647-6.408-8.21c-2.868-3.435-4.736-5.286-5.603-5.553c-3.635-1.201-12.673-3.468-27.114-6.803
	c-13.14-3.068-23.896-5.453-32.267-7.154c-1.501-0.3-3.152,0.333-4.953,1.901c-1.901,1.667-2.368,3.218-1.4,4.652l14.807,22.712
	c8.329,12.985,13.983,22.055,16.977,27.224c-1.085,2.049-2.225,4.33-3.42,6.844c-4.502,9.471-6.987,15.991-7.454,19.56
	c-0.333,2.668,0.317,7.92,1.951,15.758c1.567,7.704,2.868,12.273,3.902,13.707c0.867,1.101,3.769,3.735,8.704,7.904l11.126,8.742
	c-1.782,1.574-3.514,3.927-5.194,7.066c-1.821-0.682-3.786-1.32-5.932-1.901c-6.201-1.704-12.285-2.539-18.253-2.508
	c-7.52-2.758-15.258-4.145-23.218-4.145c-12.006-0.066-21.944,2.818-29.815,8.654c-2.401,1.734-6.053,4.969-10.956,9.705
	l-8.604,8.254c-1.732,1.646-2.448,3.957-2.156,6.927c-2.233,1.797-4.645,3.77-7.249,5.93c-8.104,6.637-14.107,11.823-18.009,15.558
	c-1.101,1.101-1.268,2.785-0.5,5.053l1.851,4.502l1.801,3.702c0.129,0.259,0.295,0.508,0.48,0.752
	c-3.281,5.452-5.253,10.111-5.883,13.956c-0.533,3.501-0.784,11.623-0.75,24.362c0.033,12.54,0.333,21.995,0.9,28.365
	c0.2,2.034,0.483,3.636,0.85,4.802c0.5,1.801,1.284,3.152,2.352,4.053c1.934,1.701,4.519,3.451,7.754,5.252
	c2.566,1.38,4.855,2.395,6.876,3.055c0.426,0.4,0.837,0.739,1.228,0.998c6.037,3.969,10.906,6.587,14.607,7.854
	c1.868,0.635,3.502,0.635,4.903,0c0.989-0.481,1.671-1.199,2.066-2.135c2.285,0.613,4.214,0.425,5.788-0.566
	c1.631-1.027,2.695-2.8,3.205-5.305l1.648,0.152c1-0.334,1.667-1.15,2.001-2.451c3.587-12.557,6.655-22.289,9.203-29.203
	c1.597,0.43,3.545,0.117,5.854-0.962c3.235-1.501,13.773-7.237,31.616-17.209c0.718-0.403,1.415-0.84,2.095-1.305
	c1.487,0.588,3.152,0.881,5.008,0.854c2.568-0.033,4.836-0.767,6.804-2.201c5.669-4.002,10.989-8.037,15.958-12.106
	c6.503-5.303,10.522-9.205,12.056-11.706c1.874-3.017,2.813-7.243,2.843-12.648c1.642-4.014,3.064-8.695,4.261-14.065
	c0.381-1.766,0.712-3.486,1-5.169c3.223-3.454,6.524-7.431,9.906-11.939c4.069-5.437,7.02-10.072,8.854-13.907l9.973-1.08
	c-0.014,0.993-0.033,1.986-0.018,2.98c0.446,32.482,8.938,58.511,25.462,78.1c-3.342,4.001-8.208,10.046-14.606,18.149
	c-7.17,8.972-11.539,14.591-13.106,16.858c-0.634,0.9-1.001,1.935-1.101,3.102c-0.134,1.201,0.066,2.334,0.6,3.402
	c7.522,15.758,19.427,28.337,35.684,37.759c-0.018,2.56,0.16,5.547,0.535,8.964c0.387,3.953,0.902,7.406,1.541,10.374
	c-0.749,1.208-1.679,4.666-2.792,10.388c-0.173,0.928-0.323,1.783-0.461,2.604c-3.527,2.334-7.203,4.987-11.044,8.002
	c-5.069,3.936-8.237,6.82-9.505,8.654c-1.301,1.967-2.785,6.637-4.452,14.007c-0.268,1.174-0.508,2.281-0.735,3.359
	c-4.443,1.111-8.089,2.938-10.92,5.495c-3.102,2.768-5.069,6.27-5.903,10.506c-3.668,19.01-5.669,30.382-6.003,34.117
	c-0.233,2.101,0.383,3.902,1.851,5.402c0.34,0.349,0.715,0.692,1.107,1.034l-20.167,15.124
	c-11.239,8.438-18.009,13.374-20.31,14.808c-0.967,0.667-1.651,1.418-2.051,2.252c-0.3,0.7-0.45,1.684-0.45,2.951
	c-0.1,2.802,0,8.838,0.3,18.109c0,2.734,1.117,4.402,3.352,5.002l24.913,6.554l21.311,5.353l5.002,0.301
	c1.368-0.167,3.285-0.718,5.753-1.651c11.806-4.569,27.081-10.822,45.824-18.76c19.61-8.271,32.433-13.924,38.47-16.958
	c1.4-0.701,2.418-1.501,3.051-2.401c0.601-0.9,0.9-2.068,0.9-3.502c0.114-10.297,0.239-17.772,0.377-22.447
	c2.335-1.741,3.633-3.646,3.875-5.717c0.534-4.703,0.884-16.859,1.05-36.469c0-3.269-1.351-6.037-4.052-8.305
	c-2.415-2.022-5.438-3.286-9.055-3.806l-0.2-11.853l-0.45-3.602l-1.651-2.701l-7.154-9.105c-0.867-1-1.451-1.816-1.751-2.451
	c-0.233-0.633-0.35-1.483-0.35-2.551c0.2-6.303,0.65-11.039,1.351-14.207c0.3-1.367,1.067-2.385,2.301-3.052
	c4.246-2.364,8.422-4.414,12.532-6.158c9.675,1.21,19.849,1.754,30.541,1.606c9.484-0.154,18.629-0.914,27.448-2.254l5.118,3.704
	c3.202,2.435,5.22,4.118,6.054,5.052c1.066,1.268,1.834,2.602,2.301,4.003c0.634,1.935,1.15,4.068,1.551,6.403
	c0.4,2.501,0.551,4.568,0.45,6.203c-0.1,1.601-0.45,2.818-1.051,3.652l-3.451,4.552l-3.302,4.503
	c-0.601,0.934-1.001,1.768-1.201,2.5c-0.267,0.834-0.417,1.852-0.45,3.053c-0.243,6.939-0.325,12.65-0.248,17.148
	c-2.743,0.525-5.295,1.662-7.655,3.411c-2.835,2.102-4.402,4.436-4.703,7.004c-0.5,4.502-0.884,9.338-1.15,14.508
	c-0.3,6.303-0.283,11.756,0.05,16.358c0.234,3.444,1.686,6.607,4.349,9.492c-0.362,7.757-0.438,15.098-0.196,21.974
	c0.066,2.968,0.817,4.985,2.251,6.053l30.466,23.513c14.907,11.539,23.896,18.593,26.964,21.16c2.335,1.968,5.036,2.651,8.104,2.052
	c30.448-5.67,50.325-9.772,59.63-12.307c1.668-0.434,2.852-1.101,3.552-2.001c0.601-0.801,0.968-2.018,1.101-3.652
	c0.768-10.905,1.151-17.441,1.151-19.609c0-1.435-0.2-2.585-0.601-3.452c-0.301-0.667-0.917-1.501-1.852-2.501l-26.89-28.043
	c0.301-0.289,0.606-0.576,0.877-0.872c1.167-1.234,1.984-2.368,2.451-3.401c0.5-1.101,0.717-2.285,0.65-3.552l-1.351-17.06
	l-1.651-15.407c-0.6-4.103-2.367-7.588-5.303-10.456c-2.61-2.52-5.451-3.923-8.521-4.23c-0.24-2.078-0.512-4.21-0.834-6.424
	c-0.934-6.471-1.918-10.723-2.951-12.758c-1.301-2.534-4.869-6.286-10.706-11.256c-4.523-3.783-8.534-6.831-12.035-9.147
	c-0.038-1.823-0.209-4.134-0.521-6.96c-0.533-5.137-1.217-8.287-2.051-9.455c-0.035-0.053-0.095-0.116-0.137-0.172
	c0.925-2.437,1.243-6.086,0.938-10.984c-0.256-4.398-0.896-8.477-1.876-12.271c15.92-9.209,29.923-21.202,41.996-36.002
	c1.668-2.068,1.685-4.17,0.05-6.304l-16.809-21.361l-16.936-20.555c6.25-8.215,11.3-17.269,15.135-27.169
	c6.07-15.708,8.738-32.7,8.004-50.976c-0.06-1.551-0.161-3.087-0.273-4.619c2.529,0.471,5.42,0.91,8.678,1.317l20.213,1.559
	c1.102,2.088,2.268,4.564,3.5,7.446c1.438,3.322,2.589,6.283,3.455,8.887c-0.909,2.776-1.661,5.716-2.255,8.823
	c-1.646,8.881-0.866,15.476,2.336,19.793c-0.938,6.643-0.938,13.484,0.016,20.527c0.9,6.737,3.919,14.174,9.055,22.312
	c3.902,6.188,8.453,11.94,13.637,17.265l0.87,6.248c0.367,3.268,2.052,5.152,5.053,5.652l9.555,0.75l2.717-0.115
	c-2.733,5.827-4.895,10.115-6.469,12.822c-1.334,2.301-1.434,4.886-0.3,7.754l2.802,7.104c0.4,1.234,1.317,2.001,2.751,2.301
	c0.411,0.098,0.86,0.13,1.327,0.133c0.969,4.379,2.191,7.894,3.676,10.523c0.5,0.9,1.134,1.467,1.9,1.7l3.152-0.1
	c0.171-0.038,0.364-0.095,0.543-0.138c1.627,3.486,3.462,6.322,5.51,8.492c1.2,1.233,3.019,1.65,5.453,1.25
	c2.748-0.438,6.34-1.449,10.754-3.022c0.671,1.146,1.438,2.254,2.303,3.323c1.134,1.434,2.718,1.917,4.752,1.45
	c1.468-0.333,4.603-1.4,9.405-3.202l11.205-4.502c2.469-1.066,6.204-4.602,11.206-10.605c4.469-5.27,7.32-9.138,8.555-11.605
	c2.913-5.73,5.433-14.786,7.562-27.147c0.196-0.097,0.395-0.199,0.593-0.317c2.534-1.5,4.436-2.9,5.702-4.202
	c0.801-0.8,1.335-1.651,1.602-2.551l0.2-3.001C585.633,249.919,584.8,241.815,583.398,231.41z M89.164,15.016
	c-0.207,0.166-0.415,0.343-0.623,0.518c0.151-0.141,0.315-0.285,0.504-0.435C89.086,15.069,89.124,15.045,89.164,15.016z"/>
</svg>
