<?xml version="1.0" encoding="utf-8"?>
<!-- Generator: Adobe Illustrator 16.0.0, SVG Export Plug-In . SVG Version: 6.00 Build 0)  -->
<!DOCTYPE svg PUBLIC "-//W3C//DTD SVG 1.1//EN" "http://www.w3.org/Graphics/SVG/1.1/DTD/svg11.dtd">
<svg version="1.1" id="图层_1" xmlns="http://www.w3.org/2000/svg" xmlns:xlink="http://www.w3.org/1999/xlink" x="0px" y="0px"
	 width="170px" height="243px" viewBox="0 0 170 243" enable-background="new 0 0 170 243" xml:space="preserve">
<path d="M162.695,1.448c-0.6-0.999-1.115-1.498-1.549-1.498c-0.467,0.033-0.782,0.649-0.949,1.848
	c-2.009,15.177-5.206,30.107-9.565,44.795c-0.437,0.034-0.878,0.115-1.323,0.258c-2.164,0.666-3.696,2.431-4.596,5.295
	l-8.641,30.668c-4.262,14.884-6.859,22.693-7.792,23.426c-3.732,3.065-7.188,5.752-10.396,8.098
	c0.861-11.63-0.601-22.172-4.388-31.624c-3.664-9.124-9.191-16.55-16.584-22.277c-7.025-5.394-14.834-8.674-23.425-9.84
	c-8.658-1.099-16.899,0.1-24.725,3.597c-7.625,3.396-13.769,8.574-18.431,15.534c-0.571,0.857-1.108,1.738-1.625,2.633
	c-1.859-0.492-3.79-1.061-5.817-1.734c-8.757-2.897-15.95-6.394-21.578-10.489c-0.933-0.699-1.382-0.5-1.349,0.599
	C0.129,69.162,1.91,77.62,5.307,86.111c3.264,8.191,7.692,15.601,13.287,22.227c1.212,1.44,2.457,2.798,3.722,4.101
	c0.089,0.548,0.17,1.095,0.273,1.644c1.399,7.359,3.796,13.603,7.193,18.731c0.599,0.899,1.199,1.315,1.798,1.249
	c0.666-0.134,1.099-0.816,1.298-2.049c0.361-2.092,0.838-4.122,1.425-6.092c2.658,4.866,6.375,8.695,11.188,11.451l-4.87-0.564
	l-8.841-1.897c-1.932-0.565-3.513-0.833-4.745-0.8c-1.232,0-2.931,0.316-5.095,0.949l-6.843,2.298
	c-2.531,0.999-4.362,1.882-5.494,2.647c-1.565,1.065-2.498,2.298-2.797,3.696c-0.266,1.265,0.05,2.563,0.949,3.896l5.294,7.293
	c2.031,2.664,3.646,4.545,4.845,5.645c1.232,1.132,2.88,1.848,4.945,2.147c2.098,0.233,4.379,0.2,6.843-0.101
	c2.1-0.259,3.928-0.694,5.503-1.297c4.803,1.082,10.565,1.621,17.324,1.598c3.512,0,6.696-0.141,9.567-0.414
	c0.008,0.288,0.007,0.572,0.023,0.863c0.2,3.763,1.148,7.26,2.847,10.489c0.648,1.208,1.354,2.292,2.113,3.257
	c-0.074,4.033,0.796,7.838,2.607,11.417c-3.664,2.411-7.385,6.018-11.164,10.85c-3.714,4.767-6.394,9.359-8.065,13.781
	c-5.249,1.071-9.857,3.381-13.812,6.948c-0.501,0.449-0.967,0.898-1.403,1.348c-0.743,0.022-1.523,0.334-2.343,0.949
	c-1.298,0.933-2.281,2.381-2.947,4.346c-0.732,2.164-0.916,4.096-0.549,5.794c0.366,1.665,1.099,2.597,2.198,2.797
	c0.278,0.047,0.56,0.035,0.843-0.012c0.98,1.359,2.42,2.468,4.352,3.309c1.002,0.428,2.091,0.753,3.25,0.998
	c0.575,1.053,1.801,1.738,3.692,2.049c1.965,0.3,4.112,0.134,6.443-0.499c2.473-0.721,4.378-1.679,5.733-2.869
	c2.872-1.008,5.609-2.422,8.202-4.273c4.596-3.264,6.993-6.627,7.193-10.09c0.1-1.998-0.366-3.713-1.398-5.145
	c-1.074-1.453-2.58-2.348-4.492-2.723c1.015-3.025,2.756-6.163,5.241-9.416c2.256-3.028,4.872-5.787,7.816-8.3
	c0.97,0.567,1.976,1.041,3.023,1.407c0.633,0.233,0.966,0.033,0.999-0.6c0.078-1.096,0.257-2.582,0.531-4.437
	c2.945-2.124,5.728-3.851,8.343-5.165c1.974,0.854,4.203,1.546,6.71,2.061c5.744,1.186,10.776,1.053,15.115-0.366l0.019,1.564
	c0,3.597-0.1,6.127-0.299,7.592c-0.033,0.499,0.016,0.8,0.149,0.899l0.849-0.051c4.629-1.331,8.658-3.929,12.088-7.791
	c0.242-0.271,0.47-0.556,0.703-0.835c1.571,0.786,3.056,1.724,4.441,2.833c1.965,1.564,2.947,2.913,2.947,4.045
	c0.1,2.031,0.017,4.047-0.25,6.045c-0.299,2.23-0.799,3.979-1.498,5.244c-0.732,1.365-1.482,2.431-2.248,3.197
	c-0.898,0.932-2.064,1.697-3.496,2.297c-3.829,1.698-5.961,4.262-6.394,7.692c-0.433,3.563,1.249,6.443,5.045,8.642
	c4.163,2.396,9.041,4.428,14.636,6.093c1.079,0.317,2.102,0.592,3.094,0.841c0.314,0.831,1.142,1.567,2.5,2.206
	c1.765,0.8,4.012,1.183,6.742,1.149c2.864-0.033,5.078-0.566,6.645-1.599c1.138-0.75,1.783-1.604,1.948-2.563
	c0.9-0.533,1.738-1.153,2.497-1.883c0.511-0.504,0.939-1.026,1.32-1.56c0.608,0.123,1.201,0.091,1.775-0.139
	c1.033-0.434,1.666-1.449,1.898-3.047c0.233-1.565,0.017-3.131-0.649-4.695c-0.799-1.998-1.915-3.446-3.347-4.346
	c-0.911-0.623-1.76-0.904-2.55-0.854c-0.73-0.558-1.536-1.106-2.444-1.643c-3.713-2.234-8.089-3.82-13.109-4.776
	c1.351-2.091,2.443-4.605,3.27-7.561c1.299-4.529,1.481-8.359,0.549-11.488c-0.865-3.064-3.413-6.061-7.643-8.991
	c-2.857-1.956-6.16-3.683-9.862-5.203c0.31-0.813,0.606-1.637,0.872-2.489c3.496-11.389,2.547-22.277-2.848-32.666
	c-3.571-6.952-8.415-12.897-14.507-17.857c2.686-1.358,5.692-3.002,9.063-4.969c7.259-4.263,11.954-7.41,14.085-9.441
	c3.363-3.197,8.292-11.105,14.785-23.726c6.626-12.82,9.939-21.111,9.939-24.875c0-1.691-0.277-3.456-0.83-5.295
	c3.374-7.555,5.317-16.444,5.825-26.672C169.555,20.679,167.49,9.64,162.695,1.448z M51.525,150.029l6.927,0.316l6.526-0.329
	c-0.895,1.577-1.584,3.252-2.067,5.023c-1.48-0.54-3.046-1.121-4.708-1.748c-2.479-0.945-4.689-1.812-6.64-2.603
	C51.558,150.466,51.543,150.247,51.525,150.029z M101.209,117.111c3.465,1.216,6.725,1.953,9.774,2.202l-5.129,3.302
	c-1.269-0.718-3.256-1.786-5.961-3.203C100.356,118.657,100.795,117.891,101.209,117.111z"/>
</svg>
