<?xml version="1.0" encoding="utf-8"?>
<!-- Generator: Adobe Illustrator 16.0.0, SVG Export Plug-In . SVG Version: 6.00 Build 0)  -->
<!DOCTYPE svg PUBLIC "-//W3C//DTD SVG 1.1//EN" "http://www.w3.org/Graphics/SVG/1.1/DTD/svg11.dtd">
<svg version="1.1" id="图层_1" xmlns="http://www.w3.org/2000/svg" xmlns:xlink="http://www.w3.org/1999/xlink" x="0px" y="0px"
	 width="358px" height="403px" viewBox="0 0 358 403" enable-background="new 0 0 358 403" xml:space="preserve">
<path d="M345.797,184.245c-2.941-5.077-8.965-11.408-18.059-18.987c-0.509-10.566-5.4-22.056-14.701-34.478
	c-9.502-12.704-19.088-20.622-28.758-23.756c-1.167-0.4-1.533-0.034-1.1,1.1c2.066,5.168,3.783,11.27,5.15,18.305
	c1.291,6.826,1.808,12.474,1.568,16.975c-3.025-0.559-5.881-0.639-8.566-0.239c-2.192-1.582-5.259-3.641-9.206-6.183l-12.673-7.945
	c1.452-3.272,2.609-6.792,3.471-10.56c0.666-3.101,0.633-5.352-0.101-6.752s-2.284-2.267-4.651-2.601l-7.952-0.7l-7.454-0.284
	c1.166-0.824,2.108-1.548,2.833-2.176c18.092-2.03,33.625-9.217,46.583-21.597c15.871-15.137,24.04-34.993,24.507-59.566
	c0.033-0.633-0.083-1-0.35-1.1c-0.268-0.1-0.634,0.033-1.101,0.4c-4.515,3.941-9.162,7.034-13.938,9.307l0.985-0.504
	c-11.004,3.734-21.689,3.868-32.06,0.4c-4.302-1.434-7.769-3.318-10.403-5.652c-2.634-2.267-3.951-4.568-3.951-6.902
	c0-3.634,1.268-6.902,3.802-9.803c2.501-2.867,5.718-4.701,9.652-5.501c0.667-0.133,1.001-0.367,1.001-0.7
	c-0.034-0.267-0.334-0.583-0.9-0.95c-3.102-2.101-7.203-3.301-12.304-3.601c-5.035-0.3-10.22,0.35-15.555,1.951
	c-12.077,3.639-20.161,10.181-24.273,19.606c-7.532-0.166-14.863,1.373-21.989,4.65c-7.836,3.667-14.154,8.836-18.956,15.504
	c-5.135,7.068-7.835,14.887-8.102,23.457c-0.1,2.701,0.35,4.568,1.351,5.602c1.033,1.067,2.834,1.517,5.401,1.35
	c1.798-0.092,3.647-0.287,5.537-0.563c0.819,6.098,2.466,11.84,4.966,17.218c1.1,2.334,3.251,3.918,6.451,4.751
	c0.244,0.063,0.48,0.136,0.722,0.201l-0.722,1.299c-0.306,0.371-0.6,0.675-0.883,0.921c-1.219-1.843-2.46-2.842-3.725-3.025
	c-2.627-5.811-7.302-11.86-14.047-18.152c-4.134-3.868-8.119-6.785-11.953-8.752c-4.168-2.134-7.536-2.817-10.103-2.051
	c-4.234,1.267-7.385,7.152-9.453,17.655c-1.117,5.602-1.64,10.945-1.614,16.048c-2.479,0.149-5.19,0.334-8.138,0.557
	c-14.085,1.076-25.702,2.348-34.859,3.815c-1.303-0.677-2.439-1.152-3.401-1.414c-8.869-2.501-17.521-1.984-25.958,1.55
	c-3.401,1.4-6.185,3.067-8.352,5.001c-1.513,1.391-2.493,2.691-2.952,3.903c-6.085,0.894-15.2,0.378-27.356-1.552
	c-12.57-2.067-21.873-4.551-27.908-7.452l-1.101-0.1c-0.233,0.2-0.233,0.6,0,1.2c2.434,6.668,7.186,13.054,14.254,19.156
	c6.501,5.668,14.371,10.603,23.606,14.804c8.902,4.035,17.955,6.902,27.158,8.603c3.248,0.612,6.352,1.033,9.331,1.285
	c8.25,6.258,21.319,11.067,39.232,14.42c10.585,1.961,19.469,2.748,26.665,2.367c2.842,2.33,6.22,4.601,10.12,6.813
	c-7.833,0.351-14.619,2.014-20.331,5.023c-6.068,3.234-9.119,7.002-9.153,11.303c-0.036,2.378,0.743,4.765,2.323,7.163
	c-6.911,2.982-13.837,6.657-20.778,11.043c-8.969,5.635-13.871,10.136-14.704,13.504c-0.833,3.301-0.6,9.535,0.7,18.705
	c1.4,9.869,3.968,22.506,7.702,37.91c-1.767,2.768-4.401,7.686-7.902,14.754c-0.194,0.389-0.382,0.766-0.567,1.139
	c-1.252,0.049-2.433,0.456-3.534,1.262c-1.4,1.034-2.834,2.801-4.301,5.303l-7.502,13.253c-4.768,8.269-9.103,15.538-13.003,21.806
	c-4.501,7.203-9.753,14.404-15.754,21.606c-5.168,6.235-7.936,9.753-8.302,10.554c-0.434,0.967-0.617,2.867-0.55,5.701
	c0.133,4.968,0.583,9.619,1.35,13.953c0.8,4.701,1.867,8.42,3.201,11.154c0.133,0.3,0.3,0.466,0.5,0.5
	c0.133,0.033,0.35-0.067,0.65-0.301l9.302-8.602c2.31-2.287,4.228-4.289,5.77-6.021c-0.867,4.735-1.707,11.304-2.519,19.725
	c-0.066,0.634,0,1,0.2,1.101l1.05-0.25c4.401-2.134,9.353-5.035,14.854-8.702c5.202-3.469,8.803-6.202,10.803-8.203
	c2.5-2.5,3.701-5.502,3.601-9.002c-0.267-9.503,2.517-21.906,8.352-37.211c4.268-11.17,8.619-20.506,13.054-28.008
	c1.134-1.967,1.801-3.984,2-6.051c0.104-1.508-0.043-2.837-0.425-4l2.076-2.752l6.602-8.652l22.006-1.501
	c10.136-1.067,16.054-2.117,17.755-3.151c1.534-0.934,4.651-5.135,9.353-12.604l8.856-14.368c3.81,5.309,7.789,10.307,11.949,14.969
	c5.303,5.968,9.736,10.069,13.305,12.304c1.4,0.867,3.717,2.051,6.951,3.551c3.201,1.5,5.719,2.551,7.553,3.15l-1.451,6.752
	c-0.117,0.654-0.215,1.243-0.3,1.797c-0.669,0.153-1.271,0.5-1.8,1.055c-0.768,0.8-1.15,1.867-1.15,3.2
	c0,1.367-0.533,3.985-1.601,7.853c-1.067,3.968-2.151,7.135-3.251,9.502c-0.133,0.4-0.117,0.751,0.05,1.051
	c4.835,8.002,8.319,14.988,10.453,20.956c2.233,6.135,3.835,13.454,4.802,21.956c0.266,2.434,1.333,4.301,3.2,5.602
	c4.201,2.934,10.937,6.818,20.206,11.653c9.969,5.201,17.138,8.402,21.506,9.603c0.467,0.133,0.767,0.133,0.9,0
	c0.133-0.1,0.199-0.416,0.199-0.95c0.034-1.367-0.25-3.251-0.85-5.651c-0.246-0.982-0.498-1.824-0.757-2.531
	c3.032,0.986,6.148,1.563,9.359,1.681c1.366,0.067,1.65-0.433,0.851-1.501c-3.734-4.834-9.586-11.619-17.556-20.355
	c-7.435-8.102-14.32-15.304-20.655-21.605l-1.5-2c-0.301-0.635-0.534-1.602-0.701-2.901l-1-10.503
	c-0.434-5.268-0.65-9.002-0.65-11.203c0-2.134-0.283-3.785-0.85-4.951c-0.416-0.937-1.007-1.482-1.769-1.647
	c0.313-1.464,0.645-2.931,1.019-4.404c1.333-5.335,2.834-9.703,4.5-13.104c0.867-1.767,2.218-3.768,4.052-6.001l5.302-6.052
	c3.067-3.301,6.368-8.02,9.902-14.154c3.968-6.868,5.869-11.72,5.701-14.554c-0.232-3.468-3.717-9.819-10.452-19.056
	c-6.308-8.67-11.964-15.049-16.97-19.144c1.886-2.053,2.896-4.272,3.016-6.663c0.233-5.135-2.701-9.903-8.803-14.304
	c-3.187-2.282-6.719-4.141-10.579-5.599c6.614-0.264,12.449-1.554,17.481-3.904c6.168-2.9,9.319-6.585,9.453-11.053
	c0.066-2.701-1.367-5.568-4.302-8.603c-2.554-2.641-5.702-4.838-9.442-6.595c6.359-1.697,12.093-4.581,17.194-8.659
	c1.459-1.168,2.827-2.414,4.118-3.723c3.904,2.631,11.379,8.02,22.439,16.176c0.884,0.623,1.81,1.213,2.765,1.781
	c5.656,15.78,16.228,30.41,31.745,43.882c13.67,11.937,27.607,20.289,41.812,25.058l3.451,0.25c0.866-0.334,1.45-1.251,1.75-2.751
	C356.483,212.32,353.799,197.882,345.797,184.245z M207.931,183.49c1.291-7.196,2.428-13.222,3.414-18.085
	c1.9,0.831,3.547,1.837,4.915,3.036c2.568,2.234,3.785,4.635,3.652,7.202c-0.266,3.74-3.194,6.625-8.783,8.657
	C210.084,184.003,209.019,183.733,207.931,183.49z M142.38,114.005c2.13,7.271,6.014,14.314,11.663,21.126
	c0.769,0.925,1.522,1.788,2.264,2.6c-5.449-0.066-10.326,0.58-14.632,1.938c-2.223-2.258-4.665-4.648-7.317-7.164
	c1.71-0.451,3.487-1.091,5.332-1.925c2.734-1.233,4.084-2.25,4.051-3.051c-0.067-1.567-3.518-3.501-10.353-5.801
	c-5.399-1.81-10.326-3.061-14.791-3.768C127.09,116.74,135.018,115.422,142.38,114.005z"/>
</svg>
