<?xml version="1.0" encoding="utf-8"?>
<!-- Generator: Adobe Illustrator 16.0.0, SVG Export Plug-In . SVG Version: 6.00 Build 0)  -->
<!DOCTYPE svg PUBLIC "-//W3C//DTD SVG 1.1//EN" "http://www.w3.org/Graphics/SVG/1.1/DTD/svg11.dtd">
<svg version="1.1" id="图层_1" xmlns="http://www.w3.org/2000/svg" xmlns:xlink="http://www.w3.org/1999/xlink" x="0px" y="0px"
	 width="437px" height="384px" viewBox="0 0 437 384" enable-background="new 0 0 437 384" xml:space="preserve">
<path d="M431.104,30.768c-1.166-3.696-2.664-5.761-4.496-6.193c-1.897-0.4-3.213,1.215-3.945,4.845
	c-2.198,10.955-8.125,21.761-17.782,32.416c-7.658,8.432-15.729,14.49-24.209,18.175c-2.152-2.143-4.905-3.623-8.257-4.439
	c-3.996-0.999-8.291-0.849-12.887,0.45c-4.443,1.276-7.959,4.188-10.558,8.72c-2.188-3.13-5.685-5.338-10.491-6.627
	c0.466-2.865-0.417-5.744-2.676-8.635c-2.997-3.796-7.476-5.861-13.437-6.194c0.2-2.131-0.383-3.946-1.748-5.444
	c-1.498-1.665-3.63-2.464-6.394-2.397c1.432-3.729,0.933-7.359-1.498-10.889c-2.742-4.02-7.22-5.72-13.432-5.104
	c1.204-2.739,1.192-5.748-0.055-9.032c-1.498-3.929-4.346-7.442-8.541-10.539c-4.229-3.097-8.641-4.912-13.236-5.444
	c-5.061-0.566-9.24,0.683-12.537,3.746c-0.332-4.129-1.998-6.676-4.994-7.642c-2.931-0.932-6.211-0.117-9.84,2.448
	c-2.664-8.025-7.643-12.337-14.935-12.937c-3.263-0.267-6.36,0.416-9.29,2.048c-2.63,1.442-4.822,3.478-6.588,6.096
	c-1.772-2.698-4.398-4.125-7.897-4.249c-3.996-0.133-7.276,1.665-9.84,5.395c-3.43-3.097-7.209-5.161-11.338-6.193
	c-3.963-0.966-7.775-0.849-11.438,0.35c-4.541,1.489-7.989,4.111-10.358,7.853c-7.672,1.035-15.143,3.697-22.407,8.031
	c-7.164,4.298-12.71,9.335-16.677,15.095c-8.115-0.475-14.298,1.979-18.536,7.382c-2.331,2.964-3.613,6.46-3.846,10.489
	c-0.233,4.096,0.666,8.191,2.697,12.287c-3.696,0.066-6.327,1.582-7.892,4.545c-1.598,2.997-1.282,6.027,0.949,9.09
	c-3.33,0.5-5.544,1.965-6.643,4.396c-0.982,2.178-0.818,4.471,0.461,6.875c-3.389,0.109-6.34,1.228-8.853,3.364
	c-2.664,2.264-4.362,5.245-5.095,8.941c-0.161,0.819-0.254,1.629-0.301,2.432c-5.703,4.038-10.637,7.94-14.783,11.703
	c-0.585,0.537-1.154,1.108-1.731,1.662c-4.586,0.585-9.12-1.082-13.603-5.008c-4.995-4.396-7.942-9.823-8.841-16.283
	c-0.167-1.065-0.649-1.232-1.449-0.5c-7.925,7.259-11.821,14.801-11.688,22.626c0.013,0.963,0.091,1.917,0.226,2.861
	c-3.811,6.212-5.339,12.9-4.571,20.065c0.767,7.352,3.783,13.105,8.999,17.296c-2.42,4.146-4.478,8.45-6.152,12.922
	c-2.934,7.791-4.438,15.357-4.532,22.702c-7.321-2.892-13.381-6.887-18.145-12.014c-1.931-2.098-3.463-2.697-4.595-1.798
	c-1.132,0.899-1.465,2.947-0.999,6.144c1.165,8.458,4.029,16.3,8.591,23.525c4.462,7.126,10.173,13.021,17.132,17.682
	c0.767,0.51,1.546,0.991,2.329,1.462c1.249,8.231,1.926,15.344,2.017,21.314c0.1,8.791-1.016,15.767-3.346,20.928
	c-0.833,1.799-1.116,2.881-0.849,3.247c0.299,0.433,1.582,0.233,3.846-0.6c1.313-0.496,2.519-1.04,3.639-1.622
	c-0.231,0.452-0.503,0.938-0.841,1.473l-2.148,3.097c-1.565,2.298-2.531,3.962-2.897,4.995c-0.666,1.73-0.516,3.18,0.45,4.345
	c1.065,1.266,2.147,3.247,3.247,5.944c1.065,2.664,1.831,5.244,2.297,7.742c0.633,3.263,0.516,7.592-0.35,12.986
	c-0.732,4.461-1.765,8.674-3.097,12.637c-0.133,0.499,0.849,0.766,2.947,0.799c2.221,0.031,4.302-0.342,6.251-1.097
	c0.193,0.1,0.386,0.199,0.595,0.295c-0.04,1.072-0.406,3.401-1.102,6.995c-0.833,4.429-1.565,7.476-2.198,9.141
	c-0.233,0.566-0.15,1.249,0.25,2.048c0.466,0.899,1.298,1.782,2.497,2.647c3.497,2.497,8.508,4.313,15.035,5.444
	c6.993,1.231,11.788,0.799,14.385-1.299c1.632-1.332,1.765-5.71,0.399-13.136l-2.113-9.035c0.348-0.15,0.654-0.318,0.915-0.506
	c0.933-0.699,1.299-1.531,1.099-2.497c-0.933-4.562-2.764-9.606-5.494-15.134l-6.743-12.287c-2.831-5.063-4.063-8.009-3.696-8.842
	c1.032-2.563,1.832-4.412,2.397-5.543c0.443-0.869,0.893-1.602,1.347-2.224c1.167,2.304,2.531,4.479,4.098,6.519
	c0.833,1.099,1.416,1.549,1.749,1.349c0.266-0.134,0.466-0.733,0.599-1.798c1.199-8.924,4.246-16.816,9.141-23.676
	c2.674-3.737,7.079-8.387,13.181-13.931c3.7,2.444,7.664,7.053,11.893,13.831c4.029,6.426,6.327,11.005,6.893,13.735
	c0.1,0.566,0.333,0.849,0.699,0.849c0.266,0,0.516-0.133,0.749-0.398l2.193-2.287c2.267-1.174,4.895-2.26,7.894-3.257
	c0.245,1.735,0.098,4.047-0.447,6.942c-0.533,2.73-1.182,5.078-1.948,7.042c-0.466,1.065-0.616,1.698-0.449,1.898l1.598-0.25
	c2.057-0.771,3.84-1.699,5.382-2.764l-1.836,6.31c-0.033,0.533,0.15,1.1,0.549,1.699l1.748,1.947
	c3.896,4.063,6.827,8.324,8.791,12.787c2.73,6.227,3.097,11.987,1.099,17.281c-0.233,0.633-0.166,1.016,0.2,1.149l1.648-0.35
	c1.625-0.715,2.899-1.365,3.833-1.953c0.008,1.288-0.152,3.082-0.486,5.399c-0.399,3.03-0.816,5.111-1.249,6.244
	c-0.1,0.266-0.083,0.499,0.05,0.699c1.731,3.329,6.327,5.877,13.786,7.642c7.326,1.731,12.004,1.565,14.035-0.499
	c1.099-1.1,1.099-4.379,0-9.84c-0.889-4.417-1.942-7.693-3.155-9.862c0.593-0.272,1.05-0.597,1.357-0.978
	c0.2-0.199,0.266-0.465,0.2-0.799c-1.065-4.129-3.729-9.923-7.992-17.382c-3.929-6.893-6.959-11.421-9.09-13.585
	c-0.148-0.148-0.309-0.384-0.482-0.704c1.515,1.081,2.211,1.069,2.08-0.046c-0.167-1.199-0.117-2.813,0.15-4.845
	c0.157-1.353,0.373-2.426,0.645-3.236c0.272,0.4,0.525,0.782,0.803,1.188c4.729,6.926,8.158,12.703,10.29,17.332
	c2.531,5.594,3.496,10.123,2.897,13.586c-0.066,0.433,0.133,0.716,0.599,0.849c0.533,0.167,1.249,0.034,2.148-0.399
	c1.521-0.711,2.931-1.625,4.235-2.733c1.854,4.476,2.995,10.585,3.407,18.367c0.533,8.991-0.183,16.948-2.148,23.875
	c-0.167,0.499-0.066,0.899,0.3,1.198c0.5,0.566,1.715,0.783,3.646,0.65c1.428-0.13,2.805-0.406,4.132-0.82
	c-0.492,5.229-0.772,9.322-0.835,12.258c-0.1,4.895,0.266,8.059,1.099,9.49c0.866,1.432,2.814,2.747,5.844,3.945
	c2.164,0.833,4.362,1.433,6.593,1.799l11.788,0.6c4.396-0.301,7.409-1.183,9.041-2.647c1.931-1.698,2.031-5.911,0.3-12.638
	c-1.099-4.169-2.306-7.688-3.62-10.57c1.295-0.479,2.259-1.064,2.87-1.766c0.533-0.666,0.6-1.266,0.2-1.799
	c-2.963-4.429-5.86-9.707-8.691-15.834c-5.213-11.29-7.821-21.205-7.833-29.752c0.792,0.434,1.621,0.829,2.489,1.183
	c1.432,0.565,2.514,0.815,3.247,0.749c0.766-0.066,0.899-0.5,0.399-1.299c-1.872-2.942-3.077-6.913-3.623-11.897
	c1.703-0.554,3.652-1.454,5.871-2.737c2.564-1.498,5.011-3.18,7.342-5.045l-0.999,1.849l-1.199,1.997
	c-0.733,1.066-0.933,1.766-0.6,2.099c0.333,0.3,1.032,0.216,2.098-0.25c1.998-0.866,3.613-1.849,4.845-2.946
	c1.199-1,2.348-2.348,3.446-4.047c-0.233,3.164-0.083,5.928,0.45,8.292c0.533,2.497,1.598,5.095,3.196,7.792
	c1.1,1.864,1.781,1.881,2.049,0.05c0.898-6.427,5.094-13.153,12.586-20.179c3.197-3.031,9.84-8.225,19.93-15.584
	c0.487-0.354,0.947-0.697,1.394-1.036c1.56,0.813,3.308,2.169,5.249,4.083c0.905,0.905,1.646,1.713,2.242,2.432
	c-0.489,0.71-1.21,1.558-2.191,2.563c-1.466,1.466-2.831,2.598-4.096,3.396c-1.432,0.933-2.148,1.582-2.148,1.948
	c0,0.399,0.732,0.883,2.197,1.448c1.87,0.743,4.167,1.307,6.884,1.694c-1.343,1.06-2.97,2.044-4.886,2.951
	c-2.297,1.099-4.545,1.864-6.742,2.298c-2.664,0.5-4.246,1.049-4.745,1.648c-0.466,0.566-0.283,1.564,0.55,2.996
	c0.795,1.364,1.23,2.446,1.348,3.276c-2.156,1.71-5.592,2.952-10.339,3.717c-0.899,0.167-1.831,1.249-2.797,3.247
	c-0.999,2.264-1.549,4.978-1.648,8.141c-0.101,3.963,0.699,7.359,2.397,10.189c1.665,2.764,4.529,4.795,8.591,6.094
	c3.929,1.299,7.01,1.332,9.241,0.1c2.863-1.598,5.594-3.713,8.191-6.343l3.355-3.785c2.58-0.031,3.964-0.434,4.137-1.21
	c0.732-3.363,2.496-6.76,5.294-10.189c1.706-2.095,4.432-4.87,8.157-8.313c0.165,0.907,0.366,1.801,0.634,2.669
	c0.732,2.197,1.282,2.73,1.647,1.599c0.9-2.73,4.163-6.627,9.791-11.688c5.993-5.36,9.506-9.073,10.538-11.138
	c2.265-4.43,2.314-11.672,0.15-21.729c-1.898-8.795-4.771-16.755-8.594-23.897c1.011-1.405,1.604-3.12,1.78-5.143
	c3.104,0.938,6.258,0.999,9.461,0.171c3.496-0.899,6.526-2.697,9.09-5.395c2.564-2.73,4.18-5.861,4.845-9.391
	c0.644-3.358,0.312-6.652-0.993-9.883c3.276-0.224,5.416-1.481,6.388-3.803c0.811-1.909,0.688-3.982-0.362-6.219
	c6.859-0.264,11.579-3.165,14.148-8.716c1.099-2.464,1.515-5.028,1.248-7.692c-0.19-2.177-0.833-4.106-1.914-5.794
	c2.725-0.661,4.432-2.521,5.111-5.594c0.674-3.167-0.179-5.868-2.552-8.105c3.071-1.445,5.278-3.615,6.598-6.529
	c1.231-2.733,1.615-5.973,1.167-9.709c1.154-1.162,2.132-2.464,2.918-3.915l5.944-0.678c5.686,3.555,11.167,4.798,16.443,3.712
	c5.36-1.099,9.423-2.78,12.187-5.044c2.334-1.923,4.107-4.603,5.337-8.02c4.931-2.005,9.563-4.822,13.894-8.463
	c7.492-6.26,13.52-14.452,18.081-24.575c4.462-9.923,7.026-20.628,7.692-32.116C435.932,53.145,434.566,41.756,431.104,30.768z"/>
</svg>
