<?xml version="1.0" encoding="utf-8"?>
<!-- Generator: Adobe Illustrator 16.0.0, SVG Export Plug-In . SVG Version: 6.00 Build 0)  -->
<!DOCTYPE svg PUBLIC "-//W3C//DTD SVG 1.1//EN" "http://www.w3.org/Graphics/SVG/1.1/DTD/svg11.dtd">
<svg version="1.1" id="图层_1" xmlns="http://www.w3.org/2000/svg" xmlns:xlink="http://www.w3.org/1999/xlink" x="0px" y="0px"
	 width="169px" height="247px" viewBox="0 0 169 247" enable-background="new 0 0 169 247" xml:space="preserve">
<path d="M163.41,73.588c-1.677-0.888-3.397-1.497-5.158-1.859c1.515-0.857,2.82-1.866,3.91-3.032
	c1.431-1.564,2.063-2.995,1.896-4.292c-0.133-1.131-1.015-2.08-2.645-2.845c-1.12-0.536-2.322-0.862-3.603-0.987
	c0.521-0.342,1.026-0.706,1.505-1.109c2.098-1.764,2.945-3.361,2.547-4.792c-0.301-0.998-1.314-1.763-3.045-2.296
	c-1.074-0.351-2.243-0.55-3.49-0.626c1.908-0.976,3.82-2.161,5.736-3.566c4.325-3.194,6.238-5.89,5.739-8.085
	c-0.433-1.83-2.412-3.245-5.939-4.243c-3.052-0.893-6.329-1.197-9.83-0.918c0.904-0.993,1.189-1.968,0.847-2.925
	c-0.334-1.098-1.682-1.83-4.043-2.196c-1.635-0.281-3.319-0.342-5.053-0.191c0.377-0.398,0.735-0.813,1.06-1.256
	c1.53-2.096,1.863-3.776,0.998-5.041c-0.665-1.031-2.229-1.431-4.692-1.198c-1.495,0.134-2.981,0.447-4.462,0.911
	c1.274-1.366,2.37-2.847,3.265-4.455c1.797-3.261,2.146-5.59,1.049-6.987c-1.631-1.997-5.175-2.496-10.632-1.498
	c-4.737,0.827-8.954,2.51-12.665,5.023c2.398-4.436,4.078-7.796,5.029-10.064c0.731-1.763,0.914-3.011,0.549-3.743
	c-0.366-0.732-1.381-1.082-3.045-1.048c-10.082,0.167-19.316,3.394-27.701,9.683c-1.203,0.901-2.349,1.857-3.463,2.842
	c-1.544,0.138-3.117,0.598-4.722,1.4c-1.528,0.789-2.761,1.716-3.705,2.779c0.159-1.862,0.17-3.768,0.011-5.724
	c-0.333-3.926-1.215-6.122-2.646-6.588c-2.429-0.799-5.54,1.214-9.333,6.039c-1.729,2.205-3.091,4.292-4.109,6.271
	c-0.634-0.761-1.426-1.107-2.379-1.03c-1.764,0.066-3.394,1.165-4.892,3.294c-0.166,0.228-0.321,0.47-0.476,0.713
	c-0.063-2.221-0.432-4.193-1.122-5.904c-0.898-2.163-2.03-3.311-3.394-3.444c-1.431-0.133-3.094,0.632-4.991,2.296
	c-1.93,1.664-3.677,3.876-5.241,6.638c-2.383,4.114-3.789,8.185-4.227,12.212c-0.464-0.854-1.011-1.638-1.663-2.33
	c-1.397-1.464-2.828-2.08-4.292-1.847c-2.662,0.433-4.458,3.178-5.39,8.235c-0.759,4.02-0.542,7.846,0.64,11.481
	c-0.807-0.392-1.717-0.628-2.736-0.701c-1.564-0.167-2.729,0.117-3.494,0.849c-1.231,1.131-1.265,3.344-0.1,6.638
	c0.396,1.156,0.873,2.201,1.416,3.152c-0.946,0.549-1.506,1.704-1.666,3.486c-0.065,0.69-0.036,1.364,0.069,2.023
	c-0.975-0.435-2.012-0.728-3.113-0.875c-1.597-0.2-2.745,0.017-3.444,0.649c-1.764,1.597-1.581,4.608,0.549,9.034
	c1.117,2.373,2.473,4.397,4.055,6.093c-0.377,0.083-0.731,0.215-1.06,0.396c-0.5,0.299-0.865,0.649-1.098,1.048
	c-0.599,1.198-0.416,2.812,0.549,4.841c0.482,0.995,1.107,1.965,1.85,2.916c-1.583-0.431-3.148-0.541-4.695-0.32
	c-2.096,0.299-3.377,1.065-3.843,2.296c-0.898,2.362,0.632,5.707,4.592,10.032c2.233,2.417,4.556,4.362,6.962,5.869
	c-0.792,0.275-1.489,0.687-2.071,1.269c-0.898,0.898-1.331,1.98-1.297,3.244c0.066,2.363,1.946,4.775,5.64,7.237
	c1.732,1.135,3.489,2.001,5.269,2.626c-0.581,0.203-1.125,0.455-1.625,0.768c-1.198,0.732-1.796,1.614-1.796,2.645
	c0.033,2.229,1.847,4.01,5.44,5.34c1.074,0.407,2.167,0.719,3.274,0.955c-0.316,0.262-0.599,0.568-0.828,0.941
	c-0.433,0.732-0.616,1.432-0.549,2.097c0.1,1.364,1.63,2.246,4.592,2.646c0.724,0.099,1.447,0.143,2.17,0.145
	c-0.566,1.239,0.044,2.259,1.872,3.05c1.384,0.612,2.955,0.763,4.703,0.471c0.226,0.193,0.483,0.369,0.761,0.534
	c-0.783,0.241-1.546,0.511-2.29,0.808c-7.656-0.195-15.137,0.805-22.439,3.028c-8.518,2.563-15.339,6.406-20.463,11.53
	c-0.898,0.898-1.314,1.763-1.248,2.595c0.033,0.832,0.516,1.748,1.447,2.746c2.13,2.229,6.156,4.741,12.079,7.536
	c5.676,2.67,10.363,4.264,14.087,4.812c-0.113,1.193-0.15,2.348-0.119,3.467c-0.208,0.766-0.41,1.54-0.592,2.353
	c-1.697,7.521-1.514,12.478,0.549,14.874c0.723,0.841,2.191,1.336,4.4,1.488c3.924,2.502,8.562,3.773,13.917,3.803
	c1.313,0.008,2.629-0.063,3.948-0.201c0.914,1.006,1.948,1.88,3.104,2.623c0.098,1.834,0.098,3.799-0.014,5.912
	c-0.082,1.554-0.212,2.918-0.382,4.133c-0.738,0.685-1.804,1.485-3.211,2.406c-1.178,0.792-2.182,1.375-3.05,1.795
	c-0.016,0.001-0.029,0.001-0.045,0.002c-1.815,0.106-3.38,0.617-4.703,1.517c-0.294,0.039-0.578,0.105-0.837,0.229l-3.544,0.85
	c-1.298,0.133-2.379,0.748-3.244,1.846c-0.626,0.783-0.998,1.672-1.133,2.658c-0.312,0.202-0.604,0.427-0.864,0.687
	c-1.896,1.863-2.928,4.392-3.094,7.587c-0.167,3.26,0.649,6.105,2.445,8.534c1.032,1.431,2.046,2.146,3.045,2.146
	c0.998,0.033,1.83-0.616,2.496-1.946c1.04-2.05,2.187-3.524,3.437-4.438c0.418,0.158,0.913,0.245,1.504,0.245
	c0.865,0,1.564-0.199,2.096-0.599c0.566-0.433,1.231-0.749,1.997-0.948c0.865-0.166,1.681-0.699,2.446-1.598
	c0.538-0.645,0.939-1.336,1.216-2.068c0.742-0.615,1.521-1.132,2.334-1.56c-0.283,1.329-0.215,2.896,0.243,4.727
	c0.489,2.066,1.307,3.534,2.441,4.424c0.095,0.365,0.185,0.726,0.304,1.116c0.632,2.097,1.381,3.859,2.246,5.291
	c1.498,2.396,3.394,2.695,5.69,0.898c1.198-0.932,2.379-2.479,3.544-4.643c0.546-1.03,0.955-1.982,1.259-2.875
	c0.505-0.54,1.017-1.187,1.536-1.966l1.298-2.246c0.228-0.455,0.308-1.376,0.244-2.756c0.843,0.171,1.757,0.598,2.751,1.309
	c0.5,0.366,0.937,0.759,1.343,1.165l1.003,2.578c0.466,1.265,1.364,2.063,2.695,2.396l2.075-0.198
	c1.027,1.723,1.966,2.99,2.816,3.791c0.865,0.832,1.647,1.265,2.346,1.298c0.732,0.033,1.547-0.35,2.445-1.148
	c0.966-0.832,1.764-2.129,2.396-3.893c0.699-1.83,1.048-3.677,1.048-5.54c0-2.429-0.698-4.393-2.097-5.89
	c-0.04-0.044-0.081-0.081-0.121-0.123c0.126-0.791,0.054-1.562-0.221-2.313l5.583,0.488c1.546,0.314,2.847,0.645,3.939,0.988
	c0.616,0.595,1.365,0.934,2.249,1.009c0.865,0.033,1.73,0.333,2.596,0.898c1.863,1.364,3.727,2.911,5.59,4.642
	c0.699,0.633,1.598,0.982,2.695,1.049c0.617,0.04,1.147-0.021,1.61-0.16c0.53,0.79,0.909,1.675,1.136,2.655
	c0.232,0.965,0.698,1.548,1.396,1.747c0.799,0.199,1.814-0.133,3.045-0.998c1.164-0.766,2.029-1.963,2.596-3.594
	c0.309-0.816,0.514-1.691,0.634-2.616l2.062-0.379l1.54-0.787c0.671,0.586,1.322,1.529,1.954,2.833
	c0.598,1.198,1.33,1.863,2.195,1.997c0.932,0.1,1.797-0.416,2.596-1.548c0.766-1.031,1.281-2.628,1.547-4.791
	c0.096-0.882,0.113-1.684,0.087-2.439c0.317,0.175,0.667,0.326,1.062,0.443l1.896,0.05c1.197-0.399,1.863-1.431,1.996-3.095
	c0.166-1.764-0.299-3.81-1.396-6.139c-0.898-1.896-2.164-3.244-3.794-4.043l-3.146-0.124c-0.644-1.094-1.612-1.927-2.942-2.472
	l-2.626-0.123l0.03-0.026c-0.069,0.008-0.139,0.011-0.208,0.018l-1.438-0.067c-0.132,0.055-0.25,0.127-0.372,0.195
	c-1.362,0.053-2.704,0.011-4.021-0.146c-0.338-0.032-0.648-0.022-0.946,0.006c-1.591-0.349-3.565-0.847-5.942-1.503l-6.938-2.047
	c-1.164-0.399-1.779-1.031-1.846-1.896c-0.193-1.433-0.133-3.239,0.153-5.379c3.47-1.416,5.873-3.287,7.215-5.611
	c2.857-1.155,5.496-2.479,7.904-3.983c1.807-1.127,3.452-2.315,4.949-3.561c2.513-0.336,4.989-1.39,7.429-3.177
	c2.729-2.03,4.991-4.609,6.788-7.736c3.928-6.882,4.408-13.036,1.452-18.463c0.325-0.268,0.563-0.582,0.693-0.953
	c0.666-1.797-0.082-3.91-2.246-6.339c-0.063-0.071-0.131-0.134-0.194-0.204c0.749-0.155,1.481-0.472,2.191-0.994
	c1.132-0.832,1.714-1.797,1.747-2.895c0.1-2.162-1.714-4.492-5.44-6.987c-2.923-1.989-6.177-3.562-9.728-4.759
	c0.035-0.197,0.057-0.403,0.045-0.632c-0.016-0.303-0.073-0.603-0.165-0.899c1.264,0.375,2.64,0.666,4.157,0.85
	c3.361,0.433,5.441,0.133,6.239-0.898c0.832-1.064,0.466-2.612-1.099-4.643c-0.413-0.546-0.861-1.045-1.343-1.498l3.54-0.398
	c1.497-0.499,2.379-1.148,2.645-1.946c0.133-0.366,0.084-0.849-0.149-1.448c-0.084-0.264-0.206-0.501-0.347-0.726
	c1.505,0.022,3.13-0.096,4.889-0.372c4.025-0.666,6.205-1.747,6.538-3.245c0.167-0.832-0.116-1.797-0.849-2.895
	c-0.531-0.775-1.16-1.389-1.868-1.869c1.351-0.236,2.768-0.588,4.265-1.076c4.658-1.531,6.921-3.461,6.787-5.79
	c-0.066-1.165-0.914-2.296-2.545-3.394c-1.096-0.746-2.26-1.283-3.484-1.638c0.578-0.239,1.157-0.504,1.737-0.808
	c2.562-1.364,3.81-2.629,3.743-3.793c-0.066-0.932-0.799-1.73-2.195-2.396c-0.63-0.298-1.271-0.525-1.925-0.684
	c2.568-0.862,5.091-2.093,7.564-3.709c4.259-2.828,6.372-5.523,6.339-8.085C168.867,77.631,167.037,75.519,163.41,73.588z
	 M82.012,197.56c0.068-0.003,0.139-0.009,0.208-0.012c0.569,0.461,1.189,0.864,1.868,1.202c0.417,2.936,0.479,5.591,0.19,7.966
	c-0.424,0.143-0.869,0.396-1.328,0.724c-1.152,0.299-2.443,0.49-3.89,0.561c-1.684,0.063-2.946,0.619-3.797,1.652
	c-0.368,0.073-0.733,0.168-1.094,0.294c-0.357,0.119-0.671,0.256-0.96,0.401l0.261-3.396l0.659-4.652
	C77.503,201.368,80.115,199.774,82.012,197.56z"/>
</svg>
