<?xml version="1.0" encoding="utf-8"?>
<!-- Generator: Adobe Illustrator 16.0.0, SVG Export Plug-In . SVG Version: 6.00 Build 0)  -->
<!DOCTYPE svg PUBLIC "-//W3C//DTD SVG 1.1//EN" "http://www.w3.org/Graphics/SVG/1.1/DTD/svg11.dtd">
<svg version="1.1" id="图层_1" xmlns="http://www.w3.org/2000/svg" xmlns:xlink="http://www.w3.org/1999/xlink" x="0px" y="0px"
	 width="498px" height="466px" viewBox="0 0 498 466" enable-background="new 0 0 498 466" xml:space="preserve">
<path d="M495.451,62.986c-2.631-1.932-6.512-1.898-11.641,0.1c-5.795,2.231-11.974,5.329-18.535,9.292
	c-4.376,2.667-8.571,5.543-12.596,8.616c4.941-5.15,8.63-8.844,11.047-11.064c3.331-3.064,4.23-5.379,2.698-6.944
	c-1.599-1.665-5.163-1.599-10.691,0.2c-7.062,2.298-15.721,7.245-25.979,14.838c-7.286,5.383-14.084,11.164-20.416,17.323
	c4.279-5.513,8.289-10.492,12.022-14.925c2.432-2.931,2.849-5.163,1.249-6.695c-1.599-1.565-4.546-1.665-8.843-0.3
	c-5.962,1.865-13.672,7.178-23.131,15.938c-7.769,7.218-14.524,14.849-20.27,22.892c2.886-5.754,5.313-10.074,7.279-12.95
	c2.132-3.097,2.465-5.313,1-6.645c-1.532-1.432-4.497-0.949-8.894,1.449c-9.292,5.096-17.735,14.488-25.329,28.177
	c-1.827,3.292-3.432,6.509-4.817,9.652c0.35-1.912,0.755-4.042,1.22-6.405c0.767-3.897-0.283-6.128-3.147-6.695
	c-2.931-0.599-5.662,1.232-8.193,5.496c-2.498,4.197-5.146,9.626-7.943,16.287c-1.584,3.751-2.926,7.231-4.025,10.439
	c-0.373-1.867-1.189-3.026-2.47-3.445c-1.165-0.399-2.564,0-4.196,1.199c-1.524,1.114-3.048,2.77-4.571,4.967
	c-6.735-3.439-11.86-5.631-15.362-6.565c-1.865-0.466-2.998-0.483-3.397-0.05c-0.433,0.466-0.167,1.482,0.799,3.047
	c1.442,2.313,4.502,5.542,9.162,9.68l-1.368-0.338l-1.199,0.05c-0.199,0.233-0.133,0.6,0.2,1.099l0.949,1.399
	c-5.296-3.93-10.392-6.578-15.288-7.944l-1.349,0.15c-0.2,0.267-0.05,0.666,0.45,1.199l4.795,5.396
	c-3.396-1.132-7.027-1.882-10.891-2.248c-0.666-0.067-1.066,0.017-1.199,0.25c-0.133,0.233,0.066,0.566,0.6,1l2.348,2.198
	c-2.664-0.6-6.027-1.066-10.092-1.399l-11.091-0.35c-0.666,0-1.049,0.183-1.149,0.549c-0.066,0.333,0.15,0.683,0.65,1.049
	l6.494,4.346c3.331,2.232,6.313,4.363,8.943,6.395c-5.962,0.899-10.608,1.865-13.939,2.897c-0.633,0.2-0.949,0.483-0.949,0.85
	s0.301,0.633,0.899,0.799c1.187,0.343,3.358,1.057,6.485,2.129c-1.798,0.345-3.28,0.75-4.437,1.218
	c-1.665,0.666-2.448,1.466-2.349,2.398c0.072,0.559,0.487,1.19,1.236,1.893c-6.065,0.728-11.066,1.759-14.975,3.103
	c-0.633,0.233-0.949,0.517-0.949,0.85c0,0.3,0.333,0.516,1,0.649c6.828,1.332,14.188,3.197,22.082,5.595l-8.044,2.548
	c-0.666,0.167-0.982,0.416-0.949,0.749c0.033,0.333,0.367,0.566,1,0.7l6.545,0.999c-9.193,3.63-15.571,5.995-19.135,7.094
	c-0.566,0.2-0.849,0.483-0.849,0.85c0.033,0.333,0.333,0.566,0.899,0.699c5.896,1.266,12.257,2.132,19.085,2.598l-3.797,2.448
	c-0.7,0.267-1.05,0.583-1.05,0.949c-0.033,0.333,0.3,0.5,0.999,0.5l2.448-0.25l-8.243,6.195c-0.566,0.466-0.8,0.833-0.699,1.099
	c0.1,0.3,0.516,0.45,1.248,0.45c4.563,0.1,9.31,0.017,14.238-0.25l-2.726,2.486c-1.518,0.779-3.392,1.47-5.667,2.061
	c-2.047,0.512-3.829,0.786-5.359,0.834c-3.123-3.752-7.043-7.759-11.777-12.026c-2.198-1.965-6.461-5.046-12.79-9.242l-12.34-7.944
	c-2.165-1.366-4.247-3.264-6.245-5.695c-1.366-1.699-2.848-3.864-4.447-6.495c-8.693-14.489-21.899-41.201-39.618-80.136
	c-4.596-10.092-11.524-17.803-20.783-23.132c-21.816-12.689-41.267-24.313-58.353-34.872C52.107,26.682,30.708,11.794,22.781,3.634
	c-2.198-2.265-4.43-3.447-6.694-3.547c-2.365-0.1-4.097,1.099-5.196,3.597c-1.766,3.997-2.265,8.477-1.499,13.439
	c0.799,5.029,2.748,9.692,5.845,13.989c3.608,5.047,7.951,10.073,12.975,15.079c-1.118-0.757-2.243-1.53-3.383-2.339l-7.644-5.745
	c-2.498-2.065-5.013-2.898-7.544-2.498c-2.598,0.433-4.43,1.982-5.496,4.646c-0.899,2.198-1.266,4.663-1.099,7.394
	c0.2,3.797,1.499,7.578,3.897,11.341c3.953,6.233,9.788,12.696,17.485,19.389c-0.889-0.478-1.833-0.992-2.847-1.553L9.792,70.131
	c-1.965-1.099-3.764-1.416-5.396-0.949c-1.599,0.433-2.714,1.515-3.347,3.247c-1.332,3.597-1.465,7.694-0.399,12.29
	c1.032,4.43,2.931,8.21,5.695,11.341c5.695,6.495,15.521,14.105,29.476,22.832c4.519,2.836,8.827,5.354,12.935,7.57
	c-4.063-1.258-8.263-2.623-12.635-4.123c-7.594-2.631-13.306-4.846-17.136-6.645c-2.964-1.365-5.379-1.599-7.244-0.699
	s-2.698,2.748-2.498,5.545c0.133,2.265,0.417,4.213,0.85,5.845c0.599,2.298,1.565,4.347,2.897,6.145
	c4.43,6.029,12.19,12.124,23.281,18.286c6.854,3.82,13.905,7.078,21.146,9.796c-10.224-2.413-17.844-4.38-22.844-5.899
	c-2.764-0.833-4.779-0.75-6.045,0.25c-1.166,0.966-1.632,2.681-1.399,5.146c0.366,4.063,3.114,8.36,8.243,12.89
	c5.163,4.563,12.124,8.826,20.883,12.79c7.027,3.192,14.419,5.897,22.16,8.137l-2.326-0.343c-3.697-0.7-5.862,0.017-6.495,2.148
	c-0.533,1.832,0.05,3.73,1.749,5.695c7.794,9.026,18.985,15.288,33.573,18.785c0.553,0.133,1.12,0.257,1.684,0.382
	c-1.923,0.165-3.56,0.434-4.881,0.817c-2.332,0.633-3.547,1.915-3.647,3.847c-0.1,1.932,0.966,3.697,3.198,5.296
	c10.525,7.628,23.397,12.04,38.619,13.239c5.967,0.463,11.587,0.424,16.867-0.109c-2.286,1.076-4.889,2.228-7.824,3.457
	c-4.863,2.064-8.91,3.613-12.14,4.646c-1.932,0.633-2.881,1.731-2.848,3.297c0.067,1.599,1.183,3.114,3.348,4.547
	c6.195,3.963,15.088,4.979,26.679,3.047c0.032-0.005,0.062-0.012,0.094-0.018c-0.426,0.219-0.847,0.434-1.293,0.668
	c-3.031,1.598-5.046,2.813-6.045,3.646c-1.865,1.532-2.564,3.114-2.098,4.746c0.5,1.766,2.198,2.897,5.096,3.397
	c7.55,1.337,14.745,1.161,21.595-0.483c-3.115,2.108-5.216,3.856-6.257,5.229c-1.266,1.665-1.516,3.298-0.75,4.896
	c0.267,0.557,0.632,1.04,1.084,1.46c-8.052,10.829-13.133,22.896-15.223,36.21c-1.148,7.265-1.055,13.521,0.247,18.797
	c-18.601,2.357-39.928,8.475-63.996,18.373c-24.847,10.192-42.799,20.351-53.857,30.477c-1.199,1.099-1.582,2.148-1.149,3.146
	c0.466,1.033,1.765,1.949,3.897,2.748c5.129,1.799,10.774,2.965,16.936,3.497c7.087,0.618,12.988,0.089,17.712-1.578
	c0.035,0.299,0.137,0.607,0.323,0.929c0.633,1.066,1.898,1.799,3.797,2.198c6.062,1.266,12.407,1.599,19.035,0.999
	c5.078-0.461,9.479-1.396,13.229-2.787c0.039,0.396,0.172,0.792,0.41,1.188c0.566,0.966,1.432,1.499,2.598,1.599
	c2.698,0.3,6.595,0.25,11.69-0.149l12.54-1.499c3.268-0.586,6.678-2.004,10.226-4.229c0.165,0.234,0.383,0.463,0.666,0.683
	c0.7,0.566,1.599,0.833,2.698,0.799l5.196-0.749c1.523-0.347,2.764-0.735,3.76-1.161c1.556,2.339,3.695,5.038,6.432,8.105
	c5.099,5.739,10.057,10.402,14.876,14.013l-4.085,3.424c-3.897,3.431-6.478,5.861-7.744,7.294c-0.667,0.766-0.5,1.249,0.5,1.448
	c4.18,1.001,9.576,1.741,16.176,2.222c-1.468,4.056-2.335,7.335-2.587,9.819c-0.133,0.999,0.3,1.315,1.299,0.949
	c1.799-0.566,3.747-1.35,5.846-2.349c1.083-0.516,2.051-1.014,2.913-1.493c-0.166,3.081-0.208,5.902-0.115,8.438
	c0.034,0.5,0.184,0.8,0.45,0.899c0.267,0.066,0.583-0.05,0.949-0.35l3.878-3.424c0.505,1.57,0.929,3.386,1.271,5.446
	c0.011,0.208,0.019,0.414,0.046,0.626l0.35,3.247l0.2,3.247c0,1.766,0.783,3.397,2.348,4.896c1.032,1.032,2.415,1.781,4.146,2.248
	l3.346,0.257c1.353,0.723,2.964,1.092,4.848,1.092c3.264,0,6.012-0.883,8.244-2.647c2.265-1.832,3.764-4.413,4.496-7.744
	c0.333-1.332,0.267-2.281-0.2-2.848c-0.399-0.533-1.132-0.666-2.198-0.399l-3.347,0.3c-0.402-0.009-0.769-0.04-1.113-0.084
	c0.352-2.499,0.05-4.666-0.917-6.497c-0.025-0.668-0.065-1.307-0.131-1.899c0.325-0.568,0.667-1.155,1.033-1.765
	c2.27,0.14,4.656,0.516,7.174,1.152c0.6,0.166,0.899-0.083,0.899-0.75c-0.1-3.164-0.066-5.878,0.1-8.143l5.695-1.3
	c2.131-0.666,4.03-1.448,5.695-2.348c0.7-0.366,0.783-0.85,0.25-1.449c-1.132-1.332-2.148-3.03-3.048-5.096
	c-0.66-1.456-1.093-2.719-1.333-3.817c0.114-0.115,0.236-0.241,0.334-0.329c0.833-0.766,2.165-1.482,3.997-2.148
	c1.865-0.699,3.397-1.049,4.597-1.049c1.632,0,3.28,0.732,4.945,2.198c0.7,0.666,1.533,1.148,2.498,1.448
	c0.482,0.14,0.924,0.208,1.334,0.218c0.117,0.24,0.225,0.483,0.314,0.731c0.4,1.066,0.65,2.498,0.75,4.297
	c0.033,1.365,0.449,2.182,1.249,2.448c0.7,0.267,1.599,0.017,2.698-0.75c2.331-1.599,4.263-3.696,5.795-6.295
	c1.732-2.897,2.432-5.646,2.099-8.243c-0.107-0.965-0.391-1.831-0.823-2.613c-0.021-0.801-0.107-1.61-0.275-2.433
	c-0.4-1.765-1.05-2.997-1.949-3.697l-5.65-3.502c-0.667-0.897-2.014-1.578-4.042-2.043c-1.624-0.347-3.026-0.392-4.226-0.163
	c-0.041-0.098-0.079-0.197-0.125-0.294c0.238-2.297-0.64-4.36-2.644-6.188c-0.028-0.025-0.059-0.046-0.087-0.07
	c0.208-1.781,0.239-3.027,0.087-3.727c-0.066-0.532-0.417-0.782-1.05-0.749l-4.146,0.7c-0.988,0.208-1.861,0.424-2.643,0.644
	c0.149-2.893,0.165-5.226,0.045-6.989c-0.033-0.933-0.516-1.215-1.449-0.85c-3.395,1.447-6.939,3.629-10.631,6.527
	c-0.047-1.005-0.131-2.139-0.26-3.43l-0.899-6.095c-0.233-1.099-0.866-1.315-1.898-0.649l-4.446,3.547l-4.164,3.654
	c-0.398-0.688-0.821-1.33-1.282-1.905c-0.533-0.633-1.066-0.583-1.599,0.149c-0.664,0.924-1.293,1.891-1.906,2.88
	c-0.779-0.666-0.9-1.54-0.342-2.63c0.899-1.832,2.481-4.529,4.746-8.094c0.629-0.993,1.239-1.933,1.839-2.844l13.598-1.003
	c2.205-0.343,4.276-0.75,6.227-1.217c2.398,4.641,6.14,10.349,11.259,17.154c5.396,7.194,9.543,11.974,12.439,14.338
	c1.865,1.532,4.963,2.698,9.293,3.497l16.32,1.436c-0.997,2.147-2.203,4.577-3.631,7.308c-0.266,0.533-0.266,0.949,0,1.249
	c0.234,0.3,0.584,0.383,1.05,0.25c2.885-0.754,5.57-1.821,8.069-3.184c-0.859,4.698-1.196,9.846-0.975,15.474
	c0.033,0.6,0.216,0.966,0.549,1.1c0.367,0.1,0.767-0.084,1.199-0.55l5.546-5.646l4.243-3.878c0.213,1.101,0.527,2.323,0.952,3.678
	c0.566,1.732,1.116,3.114,1.649,4.146c0.199,0.4,0.466,0.583,0.799,0.55l0.749-0.499c0.955-1.128,2.085-2.885,3.391-5.269
	c-0.004,0.406,0.012,0.813,0.057,1.222c0.267,2.531,1.183,4.113,2.748,4.746c1.332,0.633,2.598,1.499,3.797,2.598
	c0.866,0.8,2.215,1.116,4.047,0.949c1.379-0.132,2.591-0.496,3.653-1.071c0.821,0.169,1.697,0.251,2.642,0.222
	c2.931-0.066,5.329-1.016,7.194-2.848c1.698-1.632,2.682-3.63,2.947-5.995c0.134-1.165-0.083-1.998-0.649-2.498
	c-0.532-0.466-1.282-0.549-2.248-0.249l-3.397,0.199c-0.342-0.064-0.669-0.157-0.987-0.269c-0.603-0.712-1.159-1.734-1.672-3.048
	l-0.388-5.477c-0.134-2.465-0.05-4.08,0.249-4.846c0.367-0.866,3.048-3.764,8.044-8.693c4.512-4.481,8.077-7.801,10.713-9.978
	c0.224-0.064,0.449-0.146,0.678-0.265l2.998-0.398c1.035,0.042,2.034,0.174,3.003,0.377c0.664,0.383,1.313,0.806,1.943,1.271
	c0.933,0.633,2.265,0.898,3.996,0.799c1.386-0.097,2.385-0.437,3.008-1.013c0.38,0.771,0.551,1.604,0.489,2.512
	c-0.033,1.232,0.417,1.998,1.35,2.298c0.966,0.3,1.998-0.066,3.098-1.1c1.565-1.432,2.697-3.164,3.396-5.195
	c0.7-1.998,0.866-3.98,0.5-5.945c-0.419-2.152-1.433-3.939-3.032-5.367c-0.409-1.298-1.118-2.541-2.164-3.725
	c-0.984-1.114-1.989-1.886-3.015-2.335c-0.261-2.257-0.982-4.032-2.181-5.31c-1.076-1.133-2.269-1.966-3.569-2.521
	c-0.552-0.592-1.217-1.198-2.026-1.826c-1.632-1.198-2.98-1.765-4.047-1.698l-5.596,0.35c-0.483,0-1.003,0.114-1.552,0.332
	l-3.844,0.367c-1.816,0.375-3.222,0.856-4.265,1.431c-0.625-0.231-1.189-0.287-1.681-0.132l-5.445,0.6
	c-0.845,0.021-1.633,0.181-2.376,0.452l-3.669,0.147c-1.666,0.3-3.081,0.799-4.247,1.499c-2.631,1.532-4.446,3.397-5.445,5.595
	c-0.24,0.538-0.429,1.156-0.595,1.812c-0.067,0.083-0.135,0.169-0.203,0.259c-0.899-3.658-1.882-6.339-2.949-8.015l-1.799-0.05
	c-0.799,1.065-1.748,2.748-2.848,5.045c-0.946,1.918-1.697,3.675-2.271,5.281c-0.591-1.775-1.248-3.325-1.976-4.631
	c-0.2-0.334-0.45-0.517-0.75-0.55c-0.299,0-0.6,0.2-0.898,0.6c-1.395,1.894-2.64,4.06-3.734,6.499l-3.11-0.703
	c-0.733-0.234-1.166-0.75-1.3-1.549c-0.766-4.53-1.631-10.941-2.598-19.235c-0.934-7.896-1.529-13.957-1.79-18.198
	c1.368-3.976,2.364-8.401,2.989-13.276c0.666-5.129,1.666-10.458,2.998-15.987c1.036-4.389,2.128-8.232,3.275-11.551
	c4.01-4.195,8.792-8.919,14.36-14.178c8.46-8.027,13.922-12.824,16.387-14.389c2.465-1.566,6.878-3.414,13.239-5.546
	c5.531-1.89,9.943-3.073,13.271-3.572c1.911,0.87,3.738,1.79,5.464,2.772c2.625,1.533,4.829,3.078,6.623,4.632
	c0.286,0.573,0.563,1.121,0.82,1.614c0.7,1.365,1.898,2.547,3.598,3.547c1.398,0.799,2.848,1.332,4.347,1.598l5.346,0.5l5.096-0.149
	c1.242-0.152,1.899-0.596,1.983-1.327c0.286-0.757,0.093-1.929-0.585-3.52c-0.749-1.885-1.467-4.154-2.155-6.799
	c0.953-4.795,0.566-9.333-1.13-13.621c1.632-2.249,5.058-4.585,10.279-7.008c5.801-2.699,10.455-3.729,13.978-3.111
	c0.666,0.505,1.288,1.104,1.86,1.813c1.299,1.699,2.198,3.73,2.697,6.096c0.2,0.865,0.616,1.332,1.249,1.398s1.3-0.267,1.999-1
	c1.998-2.064,3.68-4.296,5.046-6.693c1.499-2.632,2.248-4.896,2.248-6.795c0-1.532-0.483-3.681-1.449-6.445
	c-0.799-2.231-1.731-4.413-2.798-6.544c-0.865-1.765-2.114-3.164-3.746-4.197c-1.633-1.032-3.331-1.499-5.097-1.399
	c-1.665,0.133-4.912,0.05-9.742-0.25l-11.141-0.949l-3.263-0.209c-5.395-2.638-12.879-7.48-22.456-14.531
	c2.554-1.241,5.793-2.523,9.731-3.846c3.83-1.299,7.66-2.431,11.491-3.397c2.031-0.5,3.696-1.199,4.995-2.099
	c1.532-0.999,2.849-2.398,3.947-4.196c7.494-12.257,22.698-31.441,45.613-57.554c21.517-24.514,38.569-42.516,51.159-54.007
	c1.266-1.166,1.915-2.365,1.948-3.597C497.033,64.785,496.518,63.786,495.451,62.986z"/>
</svg>
