<?xml version="1.0" encoding="utf-8"?>
<!-- Generator: Adobe Illustrator 16.0.0, SVG Export Plug-In . SVG Version: 6.00 Build 0)  -->
<!DOCTYPE svg PUBLIC "-//W3C//DTD SVG 1.1//EN" "http://www.w3.org/Graphics/SVG/1.1/DTD/svg11.dtd">
<svg version="1.1" id="图层_1" xmlns="http://www.w3.org/2000/svg" xmlns:xlink="http://www.w3.org/1999/xlink" x="0px" y="0px"
	 width="231px" height="241px" viewBox="0 0 231 241" enable-background="new 0 0 231 241" xml:space="preserve">
<path d="M228.208,73.558c-0.999-2.164-3.445-3.163-7.341-2.996c-6.426,0.299-16.829,3.246-31.211,8.839
	c-14.377,5.654-25.028,11.041-31.975,16.162c-0.788-0.651-1.648-1.215-2.556-1.723c1.795-1.992,3.353-4.388,4.667-7.198
	c0.3-0.666,0.134-1.049-0.499-1.149l-7.69-0.599c0.732-3.196,1.115-5.776,1.148-7.74c0.033-0.732-0.283-0.999-0.949-0.799
	c-1.707,0.434-3.323,0.988-4.879,1.623c-1.94-6.033-5.437-11.088-10.502-15.156c-5.178-4.1-11.115-6.512-17.807-7.25
	c3.142-6.023,5.686-12.36,7.62-19.017c2.03-7.058,2.996-13.184,2.896-18.377c-0.033-1.265-0.315-1.981-0.848-2.147
	c-0.5-0.2-1.183,0.083-2.048,0.849c-1.465,1.465-3.046,3.229-4.744,5.293c-1.638,1.966-2.98,3.763-4.059,5.408
	c-0.905-4.143-2.293-8.49-4.181-13.049c-2.231-5.327-4.594-9.771-7.091-13.333c-0.666-0.932-1.282-1.348-1.848-1.249
	c-0.533,0.133-0.932,0.749-1.199,1.848c-0.865,3.962-1.531,8.223-1.998,12.784c-0.525,5.226-0.631,9.916-0.329,14.085l-4.115-3.648
	c-1.864-1.465-3.512-2.646-4.944-3.545c-0.832-0.5-1.498-0.616-1.998-0.35c-0.533,0.266-0.716,0.882-0.549,1.848
	c0.732,4.261,2.73,9.788,5.993,16.58c3.064,6.441,6.367,12.125,9.901,17.068c-4.806,1.444-9.24,4.089-13.297,7.951
	c-4.89,4.687-7.932,10.002-9.14,15.942c-0.705-0.363-1.536-0.716-2.496-1.061c-1.432-0.499-2.647-0.799-3.646-0.899
	c-0.766-0.066-1.032,0.2-0.799,0.799l1.748,7.241c-1.731,0.133-3.679,0.483-5.843,1.049c-2.031,0.566-3.679,1.165-4.944,1.798
	c-0.433,0.2-0.649,0.449-0.649,0.749c0,0.266,0.167,0.5,0.499,0.699c3.363,2.364,5.843,4.395,7.441,6.092
	c-1.041,1.22-1.938,2.43-2.702,3.631c-10.378-4.31-22.471-7.954-36.3-10.922c-13.45-2.863-22.955-3.995-28.515-3.396
	c-3.961,0.466-6.076,2.181-6.342,5.144c-0.267,2.863,1.198,5.426,4.395,7.69c3.163,2.297,7.324,4.294,12.484,5.993
	c3.243,1.118,6.363,1.944,9.366,2.491c-2.52,1.033-4.947,2.402-7.269,4.15c-2.663,1.998-4.311,3.745-4.944,5.243
	c-0.799,1.998-0.682,3.812,0.35,5.443c1.099,1.697,2.98,2.797,5.643,3.296l15.381,0.599c3.112-0.19,6.057-0.525,8.844-0.995
	c-1.824,1.776-3.161,3.737-4,5.89c-0.666,1.831-0.6,3.346,0.2,4.545c0.899,1.231,2.597,1.83,5.093,1.797
	c5.003-0.132,10.048-0.96,15.135-2.46c-0.768,1.219-1.498,2.476-2.151,3.809c-0.865,1.931-1.431,3.662-1.698,5.193
	c-0.899,5.727-0.183,11.835,2.147,18.327c1.732,4.811,4.197,9.349,7.372,13.621c-0.859,3.642-0.989,7.589-0.38,11.848
	c0.833,5.56,2.73,10.438,5.693,14.632c2.792,3.943,6.122,6.612,9.985,8.017c-0.357,1.891-0.672,4.605-0.946,8.163l-0.349,2.147
	c-0.167,0.666-0.466,1.182-0.899,1.548c-1.184,1.006-2.826,1.831-4.876,2.495c-0.798-0.782-1.651-1.197-2.564-1.197
	c-2.098,0-4.711,1.315-7.84,3.945c-2.93,2.497-4.245,4.096-3.945,4.795c0.233,0.532,1.797,0.932,4.694,1.197
	c2.77,0.217,5.673,0.179,8.698-0.089c-0.217,0.646-0.423,1.305-0.608,1.987c-0.599,2.197-0.766,3.429-0.499,3.695
	c0.299,0.366,2.13-0.033,5.493-1.199c3.339-1.192,5.683-2.506,7.046-3.938l1.593,0.094l1.636-0.192
	c0.452,0.863,1.254,1.893,2.409,3.089c1.765,1.831,2.847,2.714,3.246,2.647c0.499-0.034,1.332-1.1,2.497-3.197
	c1.232-2.297,1.831-4.127,1.798-5.492c0.066-1.465-0.266-2.914-0.999-4.345c-0.833-1.532-1.981-2.714-3.446-3.546
	c0.466-3.762,0.799-7.308,0.999-10.637c4.894-1.664,9.056-4.545,12.484-8.639c0.911-1.08,1.678-2.146,2.318-3.202
	c2.667,0.329,5.4,0.542,8.219,0.604c3.54,0.042,7.252-0.307,11.135-1.042c0.416,0.808,0.878,1.591,1.399,2.341
	c2.83,3.995,7.059,6.991,12.685,8.988l0.649,10.188c-1.498,1.299-2.764,2.646-3.795,4.045c-1.398,1.898-2.031,3.496-1.898,4.795
	l0.002-0.002c0,0.017-0.002,0.033-0.002,0.051c0.066,1.166,0.816,2.848,2.247,5.045c0.767,1.164,1.515,2.08,2.247,2.746
	c0.6,0.532,1.016,0.799,1.249,0.799l1.298-0.999l1.698-2.546c0.14-0.279,0.253-0.546,0.369-0.814
	c1.042,0.113,2.116,0.123,3.221,0.033c0.347,1.107,1.955,2.414,4.85,3.927c1.198,0.599,2.547,1.132,4.045,1.598l2.397,0.35
	c0.232-0.166,0.283-0.999,0.149-2.497c-0.085-1.348-0.282-2.57-0.579-3.682c1.554,0.5,3.18,0.926,4.924,1.234l5.094,0.65l2.297-0.35
	c0.1-0.167-0.15-0.75-0.749-1.748c-0.833-1.365-2.03-2.863-3.596-4.494c-2.93-3.097-4.877-4.645-5.843-4.645
	c-0.29,0-0.6,0.089-0.921,0.22c-0.671-0.354-1.393-0.789-2.175-1.318l-2.098-1.698c-0.232-0.399-0.516-2.264-0.85-5.593
	c-0.322-2.968-0.503-5.245-0.541-6.839c4.517-2.575,8.167-6.213,10.929-10.939c2.729-4.66,4.295-9.771,4.694-15.33
	c0.27-3.642,0.011-7.019-0.752-10.144c5.302-7.937,8.291-17.168,8.941-27.71c0.267-3.895-0.133-7.008-1.198-9.338l-1.398-2.896
	c-0.499-1.065-0.882-2.081-1.148-3.047c-0.499-1.764-1.964-2.945-4.395-3.545c-1.17-0.272-2.315-0.732-3.441-1.359
	c0.813,0.179,1.641,0.351,2.493,0.51c7.091,1.332,13,1.549,17.728,0.649c2.497-0.466,4.194-1.331,5.094-2.597
	c0.933-1.332,0.933-2.93,0-4.794c-0.889-1.839-2.706-3.534-5.428-5.091c0.165,0.001,0.328,0.003,0.493,0.003l8.28,0.344
	c6.892-0.466,12.667-1.598,17.328-3.396c2.497-0.933,3.995-2.281,4.495-4.045c0.432-1.565,0.033-3.146-1.199-4.744
	c-1.697-2.431-4.078-4.395-7.141-5.893c-1.583-0.8-3.249-1.419-4.994-1.868c3.831-1.85,7.578-4.03,11.236-6.572
	c3.928-2.763,6.891-5.327,8.889-7.69C228.508,77.953,229.141,75.622,228.208,73.558z"/>
</svg>
