<?xml version="1.0" encoding="utf-8"?>
<!-- Generator: Adobe Illustrator 16.0.0, SVG Export Plug-In . SVG Version: 6.00 Build 0)  -->
<!DOCTYPE svg PUBLIC "-//W3C//DTD SVG 1.1//EN" "http://www.w3.org/Graphics/SVG/1.1/DTD/svg11.dtd">
<svg version="1.1" id="图层_1" xmlns="http://www.w3.org/2000/svg" xmlns:xlink="http://www.w3.org/1999/xlink" x="0px" y="0px"
	 width="361px" height="259px" viewBox="0 0 361 259" enable-background="new 0 0 361 259" xml:space="preserve">
<path d="M348.913,41.383c-1.397-4.961-2.996-8.04-4.794-9.239c-1.631-1.099-2.979-0.35-4.045,2.247
	c-0.399,0.999-1.415,5.443-3.046,13.333l-4.396,20.724c-2.563,11.619-4.894,20.491-6.991,26.617
	c-4.327,12.685-9.903,23.488-16.729,32.41c-3.662,4.794-7.74,9.138-12.233,13.034c-4.197,3.605-8.523,6.608-12.98,9.023
	c0.144-0.245,0.281-0.491,0.445-0.733c0.633-0.932,1.647-2.113,3.047-3.546c7.988-8.155,10.637-13.149,7.939-14.981
	c-1.765-1.23-4.811-1.397-9.139-0.499c-5.061,0.999-10.172,3.263-15.331,6.792c-1.798,1.199-4.079,5.177-6.843,11.936
	c-0.916,2.282-1.908,4.881-2.977,7.791c-4.681,0.747-9.21,1.085-13.584,1.002c-0.354-1.218-0.839-2.467-1.467-3.749
	c-0.622-1.312-1.316-2.524-2.084-3.642c0.316-3.277,0.506-8.055,0.566-14.319c4.022,0.321,8.072,0.037,12.153-0.865
	c4.595-1.065,7.558-2.579,8.89-4.545c2.629-3.862,2.996-9.588,1.099-17.179c-1.797-7.158-4.627-12.701-8.489-16.629
	c-2.464-2.53-5.645-4.861-9.537-6.992c-3.539-1.912-6.783-3.171-9.734-3.787c2.396-1.146,4.252-2.412,5.539-3.804
	c2.197-2.397,3.197-5.759,2.996-10.087c-0.316-8.649-2.215-17.077-5.67-25.286c4.525-6.123,8.297-14.638,11.313-25.55
	c2.997-10.687,3.796-16.729,2.397-18.127c-1.498-1.465-7.74-1.049-18.728,1.249c-8.724,1.804-16.442,4.053-23.164,6.745
	c-10.228-4.447-21.081-6.135-32.567-5.047c-9.746,0.891-18.486,3.618-26.229,8.165c-4.513-3.836-11.347-7.341-20.513-10.512
	c-9.455-3.296-14.931-4.111-16.43-2.447c-1.598,1.831-0.799,8.772,2.397,20.824c2.979,11.274,6.044,19.138,9.194,23.609
	c-1.571,4.154-2.956,9.146-4.151,14.993c-1.198,5.959-1.765,10.62-1.698,13.982c0.066,2.73,0.416,4.877,1.049,6.442
	c0.666,1.631,1.714,2.83,3.146,3.596c8.148,4.315,14.523,8.133,19.132,11.456c-3.066,0.489-5.956,1.236-8.646,2.277
	c-3.129,1.232-5.709,2.747-7.74,4.544c-4.162,3.662-6.775,8.572-7.84,14.731c-0.433,2.63-0.067,4.361,1.099,5.193l4.494,0.1
	c3.496-1.165,6.659-1.665,9.488-1.498c2.364,0.167,4.228,0.766,5.593,1.798c0.262,0.197,0.517,0.375,0.776,0.565l-2.923,7.176
	c-1.019,2.524-1.846,4.504-2.486,5.947c-1.961,1.104-4.012,3.051-6.153,5.838c-2.164,2.862-3.496,5.228-3.995,7.091
	c-0.533,1.965-0.399,3.896,0.399,5.792c0.633,1.499,1.814,3.246,3.546,5.244c1.698,1.933,3.462,5.627,5.293,11.086
	c0.107,0.318,0.205,0.63,0.307,0.944c-2.01-1.145-4.74-2.408-8.197-3.79c-3.255-1.291-5.708-2.162-7.378-2.626
	c-1.979-11.438-5.244-17.516-9.8-18.198c-1.964-0.3-4.045,0.601-6.242,2.696c-2.152,2.027-4.038,4.84-5.664,8.416
	c-0.522-0.018-1.047-0.018-1.577,0.022c-5.193,0.366-10.004,2.497-14.432,6.392c-2.858,2.498-5.716,5.943-8.574,10.315
	c0.115-4.823,0.094-8.52-0.065-11.063c-0.233-3.264-0.749-5.926-1.548-7.989c-0.433-1.101-1.166-2.297-2.197-3.597l-2.547-3.146
	c-1.432-1.931-3.413-5.51-5.943-10.735c-1.964-4.096-3.745-6.658-5.343-7.69c-2.23-1.465-5.526-3.046-9.888-4.744
	c-4.328-1.631-7.724-2.613-10.187-2.946c-3.729-0.533-5.776,0.466-6.143,2.996c-0.333,2.364,0.799,4.876,3.396,7.541
	c2.93,2.963,5.576,6.025,7.94,9.188c1.998,2.597,3.279,4.544,3.845,5.843c0.433,0.932,0.766,2.064,0.999,3.396l0.184,1.186
	c-0.145,0.343-0.346,0.738-0.633,1.212c-0.965,1.599-2.414,2.863-4.345,3.795l-2.321,0.884l0.323-0.185l-0.299,0.149
	c-0.899-0.532-3.279-2.613-7.141-6.242c-3.729-3.495-6.026-5.442-6.892-5.844c-2.796-1.23-6.658-2.063-11.585-2.496
	c-4.461-0.366-8.439-0.334-11.935,0.101c-3.329,0.399-4.461,1.664-3.396,3.795c1.099,2.197,4.095,4.162,8.989,5.894
	c2.197,0.799,3.795,1.631,4.794,2.496c0.699,0.633,1.797,1.965,3.296,3.996c3.362,4.659,7.374,9.754,12.035,15.28
	c1.631,1.897,2.713,3.328,3.246,4.295c0.5,0.865,1.015,2.246,1.548,4.146c3.063,10.553,6.509,19.559,10.337,27.016
	c4.563,8.966,9.266,14.852,14.108,17.676c-0.169,0.393-0.343,0.766-0.525,1.102c-0.866,1.599-2.164,3.097-3.895,4.494
	c-3.229,2.598-4.262,4.646-3.096,6.144c1.065,1.298,3.313,1.729,6.742,1.298c2.996-0.365,6.458-1.314,10.387-2.847
	c3.962-1.498,6.575-2.896,7.84-4.194c2.796-2.863,5.127-6.209,6.991-10.038c2.264-4.692,2.73-8.239,1.398-10.637
	c-0.539-0.987-1.035-1.929-1.498-2.834c2.491-2.03,5.335-3.534,8.539-4.506c3.462-1.066,6.825-1.384,10.087-0.949
	c1.765,0.231,4.678,1.415,8.739,3.545c3.263,1.698,5.893,2.248,7.89,1.647c1.398-0.398,2.78-1.748,4.145-4.045
	c1.332-2.229,2.147-4.494,2.447-6.791c0.158-1.235,0.264-2.541,0.343-3.883c1.96,0.75,4.119,1.752,6.499,3.033
	c2.863,1.564,4.994,2.98,6.392,4.245c1.631,1.431,3.362,2.38,5.193,2.847l5.966-0.156c1.092,0.932,2.325,1.754,3.705,2.463
	c0.353,1.273,1.403,2.75,3.164,4.436c1.665,1.633,3.995,2.715,6.991,3.246c1.305,0.23,2.42,0.305,3.364,0.237
	c-0.636,1.006-0.537,1.681,0.331,2.01c2.697,0.998,6.342,1.065,10.937,0.199c4.95-0.974,9.339-3.032,13.192-6.138
	c0.948,1.226,2.339,2.227,4.187,2.991c2.83,1.198,5.676,1.148,8.539-0.149c0.33-0.151,0.711-0.385,1.121-0.666
	c10.242,1.281,19.627,1.8,28.148,1.551c1.646,2.229,3.238,4.24,4.775,6.021c-1.11,2.809-1.435,5.616-0.937,8.424
	c0.365,1.966,1.364,4.445,2.996,7.441c1.729,3.096,3.578,5.692,5.543,7.79c2.297,2.397,5.51,4.429,9.638,6.093
	c6.094,2.363,7.989,0.166,5.692-6.592c-0.783-2.329-1.347-4.224-1.699-5.706c5.739-3.575,9.58-6.373,11.487-8.377
	c2.963-3.13,6.408-8.673,10.337-16.63c1.577-3.195,3.223-6.384,4.922-9.564c7.7-3.418,15.067-7.629,22.095-12.656
	c7.657-5.526,14.282-11.569,19.875-18.129c14.482-17.045,23.472-37.568,26.967-61.572C358.002,91.204,356.104,66.917,348.913,41.383
	z M161.997,137.962l-2.431,6.58c-0.255-0.797-0.54-1.528-0.857-2.187c0.641-1.85,1.551-4.127,2.739-6.842l2.182-4.849
	c0.171-0.039,0.339-0.087,0.508-0.134l0.323-0.01L161.997,137.962z"/>
</svg>
