<?xml version="1.0" encoding="utf-8"?>
<!-- Generator: Adobe Illustrator 16.0.0, SVG Export Plug-In . SVG Version: 6.00 Build 0)  -->
<!DOCTYPE svg PUBLIC "-//W3C//DTD SVG 1.1//EN" "http://www.w3.org/Graphics/SVG/1.1/DTD/svg11.dtd">
<svg version="1.1" id="图层_1" xmlns="http://www.w3.org/2000/svg" xmlns:xlink="http://www.w3.org/1999/xlink" x="0px" y="0px"
	 width="530px" height="386px" viewBox="0 0 530 386" enable-background="new 0 0 530 386" xml:space="preserve">
<path d="M525.853,6.915c0.899-2.631,0.749-4.563-0.45-5.795c-1.266-1.266-3.247-1.266-5.945,0
	c-5.096,2.365-10.991,5.362-17.687,8.993c-6.462,3.51-12.063,6.759-16.824,9.757c0.194-0.271,0.402-0.546,0.587-0.813
	c0.966-1.433,1.082-2.565,0.35-3.397c-0.733-0.866-1.982-0.866-3.748,0c-10.892,5.362-41.219,16.937-90.98,34.724
	c-5.729,2.065-10.825,5.096-15.289,9.093c-4.529,4.03-8.576,9.16-12.141,15.388c-2.731,4.796-6.928,14.256-12.591,28.379
	c-5.528,13.889-10.275,26.763-14.239,38.621c-3.464,10.392-7.693,18.253-12.69,23.582c-6.97,7.457-17.311,12.919-31.003,16.4
	c-5.607-6.152-11.977-10.404-19.109-12.752c-5.262-1.732-10.841-1.932-16.737-0.6c-5.268,1.211-9.269,3.298-12.033,6.243
	c-0.238-0.856-0.474-1.736-0.708-2.646c-5.02-19.584-11.716-34.205-20.086-43.866c3.554-0.782,8.029-2.46,13.441-5.047
	c6.362-3.064,10.992-5.995,13.889-8.793c1.099-1.066,1.565-1.849,1.399-2.349c-0.233-0.533-1.182-0.882-2.848-1.049
	c-4.063-0.489-9.089-0.155-15.056,0.98c-0.205-0.326-0.426-0.632-0.664-0.917c3.349-4.333,7.054-10.172,11.123-17.551
	c4.597-8.294,7.444-14.556,8.544-18.786c0.333-1.299,0.366-2.182,0.1-2.648c-0.3-0.6-1.066-0.683-2.298-0.25
	c-4.23,1.433-9.676,4.214-16.337,8.344c-7.694,4.763-13.374,9.276-17.037,13.54c0.133-4.13,0.616-8.311,1.449-12.541
	c0.3-1.333,0.183-2.132-0.35-2.398c-0.566-0.299-1.399,0.083-2.498,1.149c-4.197,3.93-8.277,9.743-12.241,17.437
	c-3.876,7.566-5.865,13.685-6.018,18.393c-0.493,0.047-0.987,0.113-1.482,0.192c-0.689-1.233-1.628-2.176-2.842-2.796
	c-1.565-0.8-3.198-0.899-4.896-0.3c-1.798,0.633-2.998,1.832-3.597,3.597c-0.469,1.325-0.485,2.673-0.063,4.044
	c-2.244,1.503-4.291,3.316-6.133,5.449c-2.765,3.198-4.846,6.795-6.245,10.792c-0.833,2.432-2.165,4.48-3.997,6.146
	c-1.732,1.632-3.764,2.764-6.096,3.397c-2.998,0.833-5.179,2.415-6.545,4.747s-1.815,5.263-1.349,8.793
	c0.466,3.664,1.715,7.078,3.748,10.242c1.865,2.931,3.997,5.096,6.395,6.495c0.866,0.5,1.532,0.633,1.999,0.4
	c0.533-0.267,0.732-1,0.6-2.199c-0.3-2.931,0.1-6.012,1.199-9.243c0.61-1.746,1.338-3.23,2.182-4.458
	c1.857-1.027,3.92-1.688,6.212-1.937c2.564-0.3,4.097-0.066,4.596,0.7c0.233,0.4,0.267,1.033,0.1,1.898
	c-0.141,0.605-0.372,1.121-0.671,1.567c-0.534,0.129-1.126,0.257-1.777,0.382l-5.646,0.6c-1.433-0.034-2.315,0.416-2.648,1.349
	c-0.333,0.899,0,1.732,0.999,2.498c3.264,2.432,7.594,3.664,12.99,3.697c5.862,0,10.159-1.615,12.89-4.846
	c3.098-3.63,5.879-5.596,8.344-5.896c2.432-0.3,4.713,0.982,6.845,3.847c2.132,2.831,3.88,6.029,5.246,9.593
	c1.565,4.03,2.898,9.076,3.997,15.139c0.11,0.624,0.227,1.235,0.343,1.846c-3.721,3.239-6.541,7.809-8.437,13.742
	c-1.865,5.829-2.498,11.675-1.899,17.537c0.433,3.963,0.583,7.145,0.45,9.543c-0.133,1.832-0.533,4.097-1.199,6.795
	c-0.118,0.531-0.084,0.882,0.085,1.072c-2.02,4.207-5.747,7.108-11.227,8.67c-5.396,1.532-11.625,1.615-18.686,0.25l-25.331-4.447
	c-11.258-1.865-19.235-3.014-23.932-3.447c-8.027-0.732-15.622-0.033-22.783,2.099c-7.161,2.132-12.973,5.413-17.437,9.843
	c-4.696,4.696-13.956,12.674-27.779,23.932c-15.355,12.523-26.763,21.084-34.224,25.681c-2.265,1.399-2.948,2.998-2.048,4.796
	c0.262,0.497,0.615,0.909,1.045,1.249c-4.679,3.922-10.265,9.14-16.783,15.688c-6.695,6.695-10.842,11.209-12.44,13.54
	c-1.532,2.265-1.632,4.097-0.3,5.496c1.266,1.332,3.214,1.749,5.846,1.249c9.792-1.766,20.967-5.979,33.524-12.641
	c0.622-0.333,1.229-0.664,1.833-0.994c-2.636,3.398-5.133,7.038-7.478,10.937c-3.098,5.163-5.129,9.442-6.095,12.841
	c-0.5,1.832-0.283,3.197,0.649,4.097c1.066,1.032,2.781,1.132,5.146,0.3c13.577-4.788,27.607-12.813,42.088-24.059
	c-2.751,5.052-5.123,10.282-7.065,15.715c-0.799,2.165-0.616,3.747,0.55,4.746c1.166,1,2.998,1.083,5.496,0.25
	c12.058-3.93,25.131-11.592,39.221-22.982c1.478-1.192,2.901-2.369,4.278-3.535c-1.55,3.545-3.06,7.912-4.528,13.128
	c-0.566,1.999-0.316,3.431,0.75,4.296c0.999,0.834,2.481,0.916,4.447,0.25c11.972-4.121,23.494-11.914,34.566-23.36
	c-0.35,1.023-0.684,2.09-0.992,3.226c-0.7,2.498-1.116,4.58-1.249,6.246c-0.167,1.799,0.149,3.064,0.949,3.797l3.997,0.1
	c10.592-4.463,20.818-11.674,30.677-21.633c0.197-0.199,0.385-0.398,0.579-0.599c-0.31,1.197-0.574,2.426-0.779,3.696
	c-0.366,2.264-0.483,4.163-0.35,5.695c0.133,1.865,0.683,3.064,1.649,3.598c0.966,0.532,2.248,0.316,3.847-0.65
	c6.162-3.664,12.357-9.16,18.586-16.487c3.699-4.321,6.583-8.37,8.661-12.148c-0.008,3.479,0.338,6.913,1.082,10.3
	c0.399,1.799,1.282,2.831,2.648,3.098c1.432,0.3,2.981-0.383,4.646-2.049c4.663-4.696,8.293-10.108,10.892-16.237
	c2.284-5.428,3.425-10.592,3.437-15.491c3.216,3.28,6.967,6.007,11.251,8.182c0.099,1.167,0.348,2.504,0.75,4.012
	c0.2,0.899,0.566,1.6,1.099,2.099c0.633,0.6,1.682,1.183,3.147,1.749c0.533,0.232,0.949,0.516,1.249,0.85l0.949,1.748
	c0.472,1.39,0.851,3.213,1.138,5.459c-1.789,1.851-3.334,10.583-4.635,26.217c-1.399,16.754-1.366,25.281,0.1,25.581
	c1.065,0.233,3.93-3.147,8.594-10.142c4.107-6.193,7.438-11.916,10.004-17.178c0.435,3.159,0.993,6.725,1.688,10.732
	c2.931,17.02,5.029,25.464,6.295,25.33c1.299-0.1,3.396-5.112,6.295-15.038c2.688-9.362,4.617-18.025,5.804-26.007
	c10.464,23.69,16.509,35.28,18.128,34.75c1.386-0.441,1.981-7.532,1.789-21.254c1.291,0.688,2.661,1.22,4.111,1.588
	c1.948,1.962,4.494,3.555,7.64,4.777c2.678,1.037,5.276,1.587,7.797,1.663c0.313,3.151,0.889,6.375,1.746,9.679
	c0.633,2.564,0.866,4.563,0.699,5.995c-0.166,1.898-0.433,3.563-0.8,4.996c-0.299,1.266-0.199,2.614,0.3,4.047
	c0.382,1.091,0.964,2.087,1.725,2.999c-0.397,2.065,1.305,4.761,5.121,8.093c4.263,3.764,8.26,5.563,11.99,5.396
	c0.467-0.033,0.75-0.166,0.85-0.399c0.066-0.267-0.083-0.532-0.449-0.8c-1.033-0.799-2.065-1.948-3.098-3.447
	c-0.254-0.359-0.482-0.703-0.688-1.03c0.72,0.508,1.544,1.018,2.485,1.53c4.73,2.564,9.677,3.547,14.839,2.947
	c0.566-0.033,0.899-0.199,1-0.499c0.066-0.333-0.167-0.667-0.7-0.999l-5.346-4.348c-0.819-0.773-1.501-1.469-2.079-2.104
	l0.181-1.593l-0.19-1.68c4.024,1.427,7.57,1.673,10.633,0.73c1.099-0.299,1.182-0.766,0.249-1.398
	c-1.798-1.066-3.646-2.531-5.545-4.396c-0.354-0.347-0.68-0.688-1.002-1.027c0.369-0.489,0.673-1.059,0.901-1.721
	c0.3-0.899,0.417-1.782,0.35-2.648c-0.066-1.032-0.383-1.898-0.949-2.598l-2.198-1.699c-6.015-3.57-10.238-10.225-12.681-19.944
	c0.774-0.51-0.214-3.823-2.962-9.934c5.726,8.429,11.736,16.346,18.041,23.733c7.927,9.326,13.939,14.938,18.036,16.837l2.898,0.101
	c0.633-0.566,0.582-1.516-0.15-2.849c-2.608-4.797-5.266-10.049-7.969-15.743c4.477,4.426,10.025,8.857,16.662,13.295
	c9.193,6.162,16.588,10.076,22.184,11.741c1.599,0.5,2.748,0.417,3.447-0.249c0.766-0.7,0.833-1.999,0.2-3.897
	c-0.5-1.499-1.499-3.614-2.998-6.345c-1.244-2.35-2.427-4.347-3.556-6.03c1.694,0.186,3.432,0.151,5.204-0.068
	c3.811,2.662,8.632,5.097,14.489,7.297c5.962,2.231,10.809,3.448,14.539,3.647c1.799,0.1,3.197-0.25,4.197-1.049
	c1.198-0.967,1.582-2.415,1.148-4.348c-2.064-9.192-6.328-18.386-12.79-27.578c-1.946-2.784-4.028-5.467-6.232-8.06
	c3.615,2.071,7.719,4.107,12.328,6.11c5.129,2.266,8.926,3.664,11.391,4.197c1.333,0.266,2.266,0.133,2.798-0.4
	c0.566-0.6,0.55-1.632-0.05-3.098c-2.564-6.028-8.594-14.006-18.086-23.932c-6.773-7.075-13.125-12.674-19.06-16.815l9.067,0.728
	c3.996,0.133,7.277,0.066,9.842-0.199c3.465-0.301,4.064-1.883,1.799-4.747c-6.994-9.026-21.8-17.753-44.416-26.181
	c-19.913-7.45-36.224-11.49-48.953-12.14c-0.073-0.702-0.121-1.391-0.11-2.049c0.066-2.465-0.466-4.397-1.599-5.796l-2.248-3.248
	c-0.467-1.165-1.282-2.197-2.448-3.098c-1.299-0.998-2.864-1.715-4.696-2.148c-1.266-0.299-2.548-1.348-3.848-3.146
	c-1.266-1.732-2.132-3.515-2.598-5.347c-0.433-1.665-1.999-3.313-4.696-4.946c-1.771-1.092-3.721-2.003-5.83-2.754
	c-0.986-1.736-2.123-3.45-3.411-5.141c7.409,3.003,16.268,4.771,26.578,5.297l20.185-0.85c5.929-0.865,10.242-2.016,12.94-3.447
	c1.832-0.966,2.814-1.982,2.947-3.048c0.134-0.966-0.449-2.048-1.748-3.247c-2.532-2.332-6.112-4.613-10.742-6.846
	c-3.86-1.854-7.518-3.213-10.989-4.123c0.167-0.34,0.289-0.684,0.338-1.033c12.121,2.183,25.127,2.296,39.03,0.311
	c13.223-1.865,22.232-4.713,27.029-8.543c1.632-1.333,2.365-2.631,2.198-3.897c-0.167-1.266-1.216-2.415-3.147-3.447
	c-2.765-1.399-8.36-3.081-16.787-5.046c-4.842-1.128-9.734-2.16-14.675-3.105c10.708-0.426,22.324-2.581,34.859-6.487
	c7.86-2.465,14.955-5.313,21.284-8.544c6.195-3.164,10.675-6.195,13.439-9.093c1.699-1.799,2.265-3.381,1.698-4.747
	c-0.565-1.333-2.031-2.048-4.396-2.148c-3.964-0.133-10.975-0.167-21.034-0.1c-6.605,0.05-12.963,0.129-19.076,0.236
	c9.09-2.27,18.661-5.426,28.719-9.479c18.819-7.594,29.711-14.606,32.676-21.034c0.866-1.898,0.933-3.381,0.2-4.447
	c-0.8-1.132-2.365-1.632-4.696-1.499c-4.857,0.334-11.138,1.021-18.826,2.055c9.684-3.316,18.73-7.95,27.119-13.946
	c8.461-6.063,13.69-11.275,15.688-15.638c0.899-1.965,0.966-3.531,0.2-4.697c-0.8-1.199-2.432-1.715-4.896-1.549
	c-3.105,0.2-7.329,0.82-12.652,1.852c5.172-3.011,10.668-6.949,16.499-11.844c6.362-5.363,11.142-10.109,14.339-14.239
	c1.566-1.999,1.999-3.647,1.3-4.946c-0.733-1.333-2.448-1.882-5.146-1.649c-2.914,0.255-6.29,0.78-10.101,1.56
	c4.865-5.099,9.648-11.372,14.348-18.847C521.572,16.541,524.453,11.012,525.853,6.915z M341.092,331.27
	c-1.232-0.266-3.164-1.299-5.796-3.098c-2.354-1.613-4.259-3.216-5.73-4.808c-0.189-1.047-0.439-2.035-0.74-2.975
	c1.633,1.355,3.369,2.781,5.222,4.285c3.117,2.524,5.839,4.663,8.193,6.442L341.092,331.27z"/>
</svg>
