<?xml version="1.0" encoding="utf-8"?>
<!-- Generator: Adobe Illustrator 16.0.0, SVG Export Plug-In . SVG Version: 6.00 Build 0)  -->
<!DOCTYPE svg PUBLIC "-//W3C//DTD SVG 1.1//EN" "http://www.w3.org/Graphics/SVG/1.1/DTD/svg11.dtd">
<svg version="1.1" id="图层_1" xmlns="http://www.w3.org/2000/svg" xmlns:xlink="http://www.w3.org/1999/xlink" x="0px" y="0px"
	 width="339px" height="345px" viewBox="0 0 339 345" enable-background="new 0 0 339 345" xml:space="preserve">
<path d="M329.549,198.079c-2.767-3.167-6.351-5.317-10.751-6.451c-5.401-1.434-9.985-1.467-13.752-0.101
	c-3.834,1.4-6.118,3.968-6.851,7.701l-3.401,17.354c-1.533,7.567-2.767,12.951-3.7,16.152l-0.801,2.1
	c-0.299,0.301-0.899,0.467-1.8,0.5c-1.833,0.066-3.184,0.367-4.051,0.9c-0.899,0.566-1.399,1.518-1.5,2.851
	c-0.101,1.5-0.583,2.684-1.45,3.55c-0.633,0.635-1.816,1.367-3.551,2.201c-3.136,1.553-6.959,3.03-11.452,4.438
	c-0.187-1.147-0.634-2.277-1.35-3.389c-0.743-1.175-1.656-2.134-2.728-2.896c8.262-12.729,13.293-25.865,15.08-39.41
	c1.732-13.197,0.595-28.594-3.394-46.174c0.224-0.086,0.448-0.17,0.671-0.26c1.022,0.101,2.062,0.147,3.122,0.127
	c6.134-0.1,12.886-3.05,20.253-8.852c7.299-5.777,12.121-12.134,14.473-19.069c5.632-4.538,9.865-10.262,12.682-17.186
	c4.334-10.668,4.284-21.503-0.15-32.504c-2.333-5.701-5.7-10.668-10.102-14.902c-3.968-3.788-8.51-6.727-13.615-8.833
	c-2.994-4.466-6.996-8.346-12.038-11.62c-5.768-3.767-12.252-6.368-19.453-7.801c-6.901-1.367-13.302-1.467-19.202-0.3
	c-6.102,1.167-10.586,3.517-13.453,7.051l0.022,0.007c-0.063,0.081-0.111,0.173-0.122,0.293c-0.033,0.333,0.133,0.617,0.5,0.85
	c4.821,2.719,8.853,9.127,12.098,19.209c-4.933,4.05-8.8,8.847-11.567,14.414c-3.481-6.263-6.778-11.697-9.882-16.271
	c-1.967-2.867-4.884-4.851-8.751-5.951l-9.716-0.285c-9.528-12.703-20.186-23.387-31.99-32.021
	C157.574,8.701,135.254,0.933,110.917,0.2C95.182-0.267,79.579,3.184,64.11,10.551C49.908,17.352,38.84,25.837,30.905,36.005
	c-2.434,3.101-2.167,5.784,0.8,8.051c2.934,2.234,6.101,2.384,9.501,0.45c3.7-2.134,6.768-3.717,9.201-4.751
	c3-1.267,5.967-2.133,8.901-2.6c18.77-2.967,34.805-0.15,48.107,8.451c14.969,9.668,22.587,24.72,22.854,45.157
	c0.206,13.68-1.125,27.127-3.983,40.34c-2.725,2.742-7.392,5.53-14.02,8.367c-7.259,3.103-13.056,4.654-17.429,4.696
	c-0.01-0.065-0.014-0.13-0.024-0.196c-0.667-4.267-2.133-9.301-4.4-15.102c-2.024-5.16-4.246-9.804-6.66-13.94
	c0.039-1.674-0.001-3.361-0.142-5.063c-0.833-10.168-4.417-17.752-10.751-22.753c-4.534-3.567-9.834-5.867-15.902-6.901
	c-5.742-0.957-11.607-0.679-17.593,0.806c-3.716-3.762-6.876-8.454-9.46-14.108c-3.155-6.973-4.62-13.531-4.401-19.677
	c0.067-0.184,0.067-0.342,0-0.476l-1.1-0.1c-4.267,1.467-8.285,4.267-12.052,8.401c-3.967,4.401-7.034,9.618-9.201,15.652
	c-4.857,13.581-4.192,27.708,1.974,42.38c-2.531,8.467-2.725,16.843-0.574,25.13c2.334,8.935,6.851,15.519,13.552,19.753
	c7.504,4.702,16.398,6.002,26.672,3.921c4.994,2.979,12.069,4.842,21.235,5.58c9.068,0.7,15.336,0.167,18.803-1.601
	c0.512-0.263,1.003-0.56,1.481-0.875c6.48-0.835,12.59-2.174,18.322-4.025c6.185-2.052,11.264-4.51,15.256-7.367
	c-3.336,9.498-7.502,19.187-12.506,29.07c-6.621,13.035-10.394,26.298-11.346,39.788c-8.412,9.344-16.881,20.089-25.409,32.272
	c-10.302,14.735-15.752,24.854-16.353,30.354c-0.649,6.297,2.125,15.416,8.303,27.339c-3.331,1.368-6.582,3.421-9.753,6.166
	c-3.134,2.7-5.534,5.468-7.201,8.302c-0.667,1.199-0.833,1.982-0.5,2.35l2.45,0.1c3.079-0.621,6.933-1.714,11.543-3.27
	c-1.005,1.343-1.873,2.731-2.592,4.17c-0.566,1.134-0.683,1.867-0.35,2.201l2.8-0.201c6.901-2.4,12.902-4.133,18.002-5.2
	c0.586-0.127,1.05-0.307,1.409-0.533l3.692-0.517c2.434-0.5,4.134-1,5.101-1.5c2-0.967,3.417-2.317,4.25-4.051l4.401-8.951
	c2.034-3.935,3.584-6.368,4.65-7.302c3.101-2.7,8.702-4.817,16.803-6.351c6.402-1.232,12.049-1.648,16.965-1.271
	c8.471,4.823,18.48,8.303,30.042,10.423c9.001,1.634,17.852,2.15,26.553,1.55c8.017-0.527,14.961-1.951,20.864-4.245
	c5.62,3.001,8.92,4.867,9.892,5.596c2.732,2.067,4.617,4.45,5.65,7.151c2.801,7.167,4.917,11.568,6.351,13.201
	c0.562,0.66,1.125,1.238,1.692,1.734c0.332,1.174,0.784,2.61,1.358,4.316c1.267,3.701,2.333,6.301,3.2,7.802l1.301-0.05
	c1.166-1.834,2.217-4.251,3.15-7.252c0.309-1.013,0.564-1.994,0.796-2.961l4.305-0.389l5.415-1.245
	c3.018,2.817,5.679,5.681,7.937,8.596c0.733,0.9,1.317,1.167,1.751,0.8c0.366-0.3,0.549-0.934,0.549-1.9
	c0-5.076-0.627-9.393-1.851-12.986c0.25-0.623,0.426-1.274,0.501-1.965c1.009-10.513,1.229-21.068,0.679-31.666
	c3.234-0.907,6.557-2.108,9.974-3.64c3.967-1.8,6.5-3.317,7.601-4.551c0.563-0.642,1.12-1.509,1.669-2.585
	c6.208-1.878,12.006-4.494,17.384-7.867c7.401-4.666,12.752-10.084,16.053-16.252c3.934-7.334,7.4-15.452,10.401-24.354
	c2.834-8.501,4.768-16.285,5.801-23.354C333.95,205.847,332.717,201.713,329.549,198.079z"/>
</svg>
