<?xml version="1.0" encoding="utf-8"?>
<!-- Generator: Adobe Illustrator 16.0.0, SVG Export Plug-In . SVG Version: 6.00 Build 0)  -->
<!DOCTYPE svg PUBLIC "-//W3C//DTD SVG 1.1//EN" "http://www.w3.org/Graphics/SVG/1.1/DTD/svg11.dtd">
<svg version="1.1" id="图层_1" xmlns="http://www.w3.org/2000/svg" xmlns:xlink="http://www.w3.org/1999/xlink" x="0px" y="0px"
	 width="295px" height="183px" viewBox="0 0 295 183" enable-background="new 0 0 295 183" xml:space="preserve">
<path d="M293.9,123.377c-0.633-1.399-2.016-2.482-4.146-3.248c-2.232-0.766-5.047-1.166-8.445-1.199
	c-3.397-0.033-6.313,0.316-8.744,1.049c-2.365-7.728-7.078-19.854-14.141-36.375c-0.663-1.557-1.301-3.043-1.925-4.492
	c0.225-0.45,0.434-0.917,0.626-1.404c1.433-3.531,1.865-6.878,1.299-10.043c-0.6-3.464-2.314-5.846-5.146-7.145
	c-1.833-0.837-3.709-1.156-5.626-0.979c-1.472-3.012-2.698-5.327-3.667-6.915c-0.6-1-1.416-1.583-2.448-1.749
	c-0.933-0.167-1.915,0.017-2.948,0.549c-0.544,0.277-1.105,0.594-1.675,0.93c-1.119-1.279-2.288-2.555-3.521-3.828
	c-4.597-4.73-8.711-8.061-12.342-9.993c-1.299-0.7-2.349-0.85-3.147-0.45c-0.8,0.4-1.5,1.366-2.1,2.898
	c-0.422,1.112-0.838,2.207-1.25,3.29c-0.084-0.027-0.161-0.073-0.248-0.092c-0.899-0.167-1.832,0.15-2.799,0.95
	c-2.465,1.999-5.213,4.83-8.244,8.494c-2.737,3.315-4.978,6.425-6.771,9.352c-0.906-0.453-1.819-0.866-2.741-1.226
	c-0.158-5.757-1.514-10.768-4.068-15.03c0.732-5.271,0.53-10.464-0.609-15.581c-1.4-6.362-3.981-11.059-7.746-14.09
	c-6.762-5.43-15.805-7.912-27.131-7.445c-9.366,0.373-16.621,2.499-21.775,6.368c-6.406-6.817-14.226-11.587-23.494-14.263
	c-9.56-2.698-20.969-1.615-34.227,3.248C60.908,10.02,51.981,16.932,47.917,25.693c-0.178,0.384-0.333,0.77-0.503,1.154
	c-3.431,2.754-6.33,6.115-8.691,10.088c-2.898,4.897-4.247,9.527-4.047,13.891c0.133,3.265,1.183,6.845,3.148,10.743
	c1.574,3.119,3.569,6.056,5.938,8.831c-2.38,4.647-5.001,9.654-7.887,15.053c-7.395,13.757-12.858,23.034-16.389,27.831
	c-6.762-2.432-11.092-3.764-12.991-3.997l-2.898,0.149c-0.666,0.334-1.199,1.116-1.599,2.349c-0.766,2.433-1.333,5.196-1.699,8.294
	c-0.466,3.698-0.433,6.563,0.1,8.595c0.233,0.999,0.667,1.516,1.299,1.549c0.633,0,1.216-0.449,1.749-1.349
	c1.632-2.799,3.531-5.463,5.696-7.994c2.832,0.766,6.346,2.298,10.543,4.596c1.499,0.8,3.114,1.217,4.847,1.25
	c1.799,0.033,3.397-0.383,4.797-1.25c9.56-5.662,17.488-14.073,23.784-25.232c2.211-3.934,4.004-7.845,5.398-11.734
	c2.445,2.159,4.979,4.047,7.603,5.669c-0.41,1.647-0.828,3.313-1.259,5.016c-5.263,20.818-9.377,34.293-12.342,40.422
	c-2.865-0.266-6.179-0.299-9.943-0.1l-9.194,1.049c-1.565,0.268-2.215,1.3-1.949,3.098c0.667,5.363,1.616,10.327,2.848,14.891
	c0.233,0.933,0.633,1.449,1.199,1.549c0.533,0.066,1.083-0.283,1.649-1.049c2.065-2.965,3.614-6.196,4.647-9.693
	c2.465,0,5.379,0.366,8.744,1.099l8.294,1.249l5.796-0.299c2.465-2,5.446-6.08,8.944-12.242c4.031-7.029,7.345-14.507,9.943-22.436
	c1.985-5.983,3.388-11.653,4.249-17.033c4.257-0.124,8.394-0.668,12.413-1.624c3.522,2.531,6.618,4.891,9.297,7.081
	c-0.754-0.377-1.496-0.537-2.226-0.465c-1.832,0.166-3.281,2.648-4.347,7.445c-1.033,4.629-1.482,10.326-1.349,17.088
	c0.333,16.655,3.481,29.447,9.444,38.374c0.799,1.199,1.549,1.999,2.249,2.398c0.633,0.399,1.565,0.649,2.798,0.749
	c2.165,0.167,4.147,0.934,5.946,2.299c1.632,1.266,2.848,2.798,3.647,4.597c0.633,1.466,1.315,2.115,2.048,1.948
	c0.7-0.166,1.183-1.049,1.449-2.647c0.366-2.132,0.549-4.131,0.549-5.996v-0.949l5.247,0.399c1.333,0.4,2.165,0.916,2.499,1.549
	c1.132,1.898,2.315,3.248,3.547,4.047c1.865,1.166,2.832,0.816,2.898-1.049c0-1.332-0.25-3.098-0.75-5.297
	c-0.566-2.432-1.182-4.146-1.849-5.146c-0.733-1.065-2.515-2.231-5.346-3.497c-2.832-1.333-5.446-2.165-7.845-2.498
	c-1.532-13.69-4.43-26.132-8.694-37.325c-0.862-2.242-1.71-4.247-2.547-6.033c2.694,0.95,5.92,2.259,9.693,3.936
	c3.631,1.564,6.962,3.113,9.993,4.646c1.465,0.732,2.598,0.366,3.397-1.1c2.397-4.43,4.314-8.612,5.799-12.572
	c1.478,2.243,3.066,3.882,4.767,4.917c-0.106,0.038-0.227,0.057-0.322,0.11c-5.297,2.766-9.344,6.646-12.142,11.643
	c-2.998,5.363-4.297,11.608-3.897,18.736c0.5,9.295,6.163,16.723,16.989,22.285c9.826,5.03,20.869,7.246,33.127,6.646
	c15.189-0.7,26.615-3.415,34.277-8.145c7.895-4.897,12.008-12.076,12.342-21.536c0.199-5.729-1.35-11.093-4.647-16.089
	c-1.317-1.996-2.862-3.83-4.619-5.515c3.909-2.704,8.008-5.22,12.313-7.526c1.399-0.732,2.465-0.967,3.198-0.699
	c0.646,0.215,1.159,0.851,1.544,1.892c-2.113,5.502-3.853,11.554-5.191,18.194c-2.266,11.226-2.798,20.27-1.599,27.131
	c0.499,2.932,1.782,4.931,3.847,5.996c2.133,1.1,3.564,2.383,4.297,3.848c0.667,1.299,0.834,2.915,0.5,4.848
	c-0.266,1.498-0.05,2.397,0.65,2.697c0.699,0.267,1.582-0.184,2.648-1.349c1.398-1.466,2.647-3.397,3.746-5.796
	c0.878-1.911,1.361-3.468,1.458-4.678l2.939-0.119c1.433,0.133,2.282,0.35,2.548,0.649c0.634,0.8,0.867,2.632,0.7,5.496
	c-0.101,1.399,0.216,2.198,0.949,2.398c0.7,0.2,1.549-0.233,2.548-1.3c1.566-1.731,2.898-3.797,3.998-6.195
	c1.066-2.299,1.599-4.197,1.599-5.695c0-2.865-1.166-4.298-3.497-4.298l-7.197-0.608c1.062-8.365,1.565-17.815,1.5-28.372
	c-0.021-3.444-0.1-6.604-0.236-9.483c3.77,5.375,7.745,9.727,11.93,13.031c1.266,0.966,2.83,1.299,4.696,1
	c1.332-0.234,3.331-0.934,5.995-2.1c2.234-0.99,4.45-1.581,6.646-1.777c1.269,3.241,2.664,6.158,4.197,8.723
	c1.232,2.032,2.398,2.082,3.497,0.15c0.633-1.1,1.232-2.766,1.799-4.996c0.499-2.1,0.782-3.965,0.85-5.597
	C294.55,126.175,294.367,124.442,293.9,123.377z M207.713,62.035c-0.926,2.372-1.821,4.654-2.682,6.828
	c-0.414-0.373-0.829-0.742-1.253-1.094C204.937,65.949,206.243,64.041,207.713,62.035z M201.763,141.164
	c-4.431,4.23-11.159,6.297-20.187,6.196c-10.126-0.101-17.154-2.332-21.086-6.695c-3.685-4.045-3.759-9.035-0.251-14.966
	c2.373,2.462,5.68,4.853,9.945,7.171c4.863,2.599,8.761,3.881,11.692,3.848c3.563-0.067,7.728-1.282,12.491-3.647
	c3.881-1.926,6.927-3.938,9.158-6.038c0.319,0.563,0.604,1.115,0.857,1.66C206.362,133.453,205.498,137.612,201.763,141.164z
	 M226.896,60.02c-1.454,1.311-2.897,2.695-4.33,4.142c-0.758-2.737-1.487-5.226-2.188-7.463c0.62-1.194,1.197-2.341,1.721-3.424
	c1.873,1.92,3.721,3.951,5.546,6.079C227.396,59.576,227.149,59.789,226.896,60.02z M119.05,88.157l-0.63,2.092l-1.64,3.485
	c-0.426-0.719-0.874-1.447-1.362-2.191C116.854,90.478,118.07,89.35,119.05,88.157z M231.077,104.389
	c-1.011-8.139-2.965-18.137-5.869-30.003c0.115-0.11,0.223-0.214,0.339-0.326c3.141-3.022,5.805-5.421,7.996-7.205
	c0.822,1.166,1.537,2.251,2.144,3.258c-0.764,2.52-0.946,5.068-0.546,7.645c0.442,2.808,1.49,4.987,3.129,6.558
	c1.223,4.99,3.109,10.402,5.659,16.234c-3.722,0.943-7.704,2.113-11.986,3.541C231.648,104.189,231.366,104.289,231.077,104.389z
	 M211.955,71.511l0.154,4.665c-0.086,0.111-0.172,0.222-0.258,0.333c-0.532-0.735-1.077-1.446-1.631-2.136
	C210.787,73.447,211.365,72.494,211.955,71.511z M135.397,87.26c-0.982,3.302-1.845,6.796-2.588,10.484
	c-0.963,4.876-1.529,9.21-1.71,13.015c-2.034-0.82-4.668-1.611-7.934-2.372c-0.681-0.164-1.329-0.296-1.989-0.44
	C127.217,100.579,131.96,93.683,135.397,87.26z"/>
</svg>
