<?xml version="1.0" encoding="utf-8"?>
<!-- Generator: Adobe Illustrator 16.0.0, SVG Export Plug-In . SVG Version: 6.00 Build 0)  -->
<!DOCTYPE svg PUBLIC "-//W3C//DTD SVG 1.1//EN" "http://www.w3.org/Graphics/SVG/1.1/DTD/svg11.dtd">
<svg version="1.1" id="图层_1" xmlns="http://www.w3.org/2000/svg" xmlns:xlink="http://www.w3.org/1999/xlink" x="0px" y="0px"
	 width="176px" height="287px" viewBox="0 0 176 287" enable-background="new 0 0 176 287" xml:space="preserve">
<path d="M172.891,182.672c-1.5,0.167-2.932,0.551-4.297,1.15c0.332-1.166,0.782-2.148,1.349-2.948c0.366-0.533,0.466-0.899,0.3-1.1
	l-1.25-0.1c-1.531,0.399-2.98,1.149-4.346,2.248c0.166-1.466,0.416-2.781,0.749-3.947l1.499-3.997
	c0.266-0.566,0.283-0.949,0.05-1.149l-1.099-0.1c-2.166,0.699-4.164,1.716-5.996,3.048c0.433-2.099,1.166-4.047,2.198-5.846
	c0.333-0.566,0.383-0.967,0.149-1.199l-1.249,0.1c-3.198,1.6-6.646,4.113-10.343,7.545c-3.03,2.88-5.461,5.624-7.303,8.235
	c-2.542-1.249-5.33-2.39-8.362-3.421c0.222-0.529,0.463-1.084,0.726-1.666c1.033-2.332,2.115-4.498,3.248-6.496
	c0.232-0.4,0.266-0.732,0.1-1c-0.1-0.266-0.4-0.398-0.899-0.398l-11.142,0.898c1.398-5.396,3.264-10.941,5.596-16.639
	c0.199-0.433,0.217-0.766,0.05-0.998c-0.167-0.268-0.533-0.351-1.099-0.25c-4.364,0.832-13.808,3.314-28.331,7.444l-0.149-4.497
	c0.066-0.933-0.316-1.148-1.149-0.649c-2.632,1.599-5.046,3.397-7.245,5.396c0.066-1.466,0.283-2.981,0.649-4.547
	c0.167-0.966-0.183-1.216-1.049-0.749c-2.539,1.34-4.688,2.862-6.494,4.545c-0.501-1.889-0.92-3.641-1.25-5.245
	c-0.333-1.599-0.034-2.665,0.899-3.198c9.093-5.563,16.172-14.223,21.235-25.981c4.764-11.092,6.313-21.218,4.646-30.379
	c-1.099-6.096-4.246-13.024-9.443-20.785c-4.863-7.195-9.426-12.225-13.689-15.09c-6.363-4.264-13.241-7.511-20.636-9.743
	l-9.443-2.348c-0.2-0.067-3.348-6.229-9.443-18.487C43.697,16.405,38.9,7.045,36.235,2.248c-0.933-1.665-1.732-2.432-2.398-2.298
	c-0.666,0.133-1.033,1.183-1.099,3.148c-0.167,6.995-0.2,15.639-0.1,25.932c0.1,10.193,0.283,18.387,0.55,24.583
	c-6.129,4.197-11.742,8.711-16.838,13.541c-5.529,5.263-9.043,9.593-10.542,12.991c-2.398,5.463-4.114,13.224-5.146,23.284
	c-1.066,10.493-0.766,18.287,0.899,23.384c2.765,8.261,8.211,15.506,16.338,21.735c8.095,6.295,17.405,10.426,27.931,12.391
	c1.066,0.233,1.832,0.566,2.298,1c0.5,0.433,0.833,1.166,1,2.197c0.378,2.325,0.917,5.013,1.606,8.035l-2.806-1.489
	c-1.565-0.666-2.915-1.132-4.047-1.399c-0.933-0.232-1.282,0.117-1.049,1.05c0.3,1.499,0.866,3.181,1.699,5.046l-7.345-0.398
	l-7.095,0.849c-0.467,0.134-0.716,0.333-0.75,0.6c-0.067,0.3,0.083,0.616,0.45,0.949c3.664,3.498,6.412,6.579,8.244,9.243
	c-4.83,1.199-9.527,3.398-14.09,6.596c-0.366,0.267-0.533,0.55-0.5,0.85c0,0.3,0.183,0.55,0.549,0.75
	c5.201,2.886,9.363,5.848,12.511,8.885c-1.476,0.531-2.979,1.162-4.516,1.907c-2.665,1.3-4.713,2.614-6.146,3.947
	c-0.433,0.333-0.633,0.616-0.6,0.85l0.699,0.649c1.532,0.799,2.748,1.648,3.647,2.549c-1.732,1.665-3.015,3.147-3.847,4.446
	c-0.233,0.399-0.283,0.7-0.15,0.899c0.066,0.232,0.333,0.35,0.799,0.35l3.048,0.25c-0.533,1.599-1.282,3.264-2.249,4.996
	l-2.848,5.146c-0.5,0.833-0.283,1.332,0.649,1.499l11.492-0.849c0.925-0.154,1.805-0.313,2.661-0.475
	c-0.822,6.909-1.03,14.722-0.612,23.458c0.233,4.83,0.766,10.976,1.599,18.437l0.05,1.699c-0.1,0.434-0.316,0.8-0.649,1.1
	l-3.448,3.297c-0.833,0.9-1.049,1.75-0.649,2.549c0.399,0.799,1.199,1.266,2.398,1.398c3.365,0.334,7.662,0.351,12.891,0.051
	c6.096-0.4,11.259-1.199,15.489-2.398c1.599-0.467,2.648-1,3.148-1.6c0.5-0.666,0.766-1.748,0.799-3.247
	c0.067-2.532,0.45-5.396,1.149-8.594c0.689-3.244,1.527-5.989,2.513-8.244c3.424,1.015,7.008,1.776,10.778,2.248
	c4.37,0.559,8.748,0.728,13.133,0.53c0.307,2.946,0.565,5.946,0.747,9.033c-2.151,1.561-4.136,3.247-5.936,5.076
	c-0.966,0.934-1.299,1.832-0.999,2.698c0.3,0.833,1.033,1.266,2.198,1.3l4.206-0.366l-0.009,0.016l-4.048,3.747
	c-1.065,0.867-1.498,1.683-1.299,2.449c0.2,0.799,1.05,1.299,2.549,1.498c4.097,0.5,9.526,0.5,16.289,0
	c7.361-0.566,12.59-1.531,15.688-2.897c0.966-0.433,1.632-0.999,1.999-1.698c0.332-0.633,0.6-1.799,0.799-3.498
	c1.03-8.029,1.463-16.898,1.325-26.571c1.977-1.091,3.884-2.27,5.719-3.542c0.903,2.57,1.691,5.21,2.35,7.929l2.148,9.894l0.3,2.548
	c-0.033,0.532-0.333,1.05-0.899,1.549l-1.898,1.898l-1.549,1.999c-0.5,0.966-0.55,1.799-0.149,2.498
	c0.398,0.732,1.281,1.166,2.647,1.299c4.097,0.367,8.794,0.367,14.091,0c6.361-0.467,11.309-1.383,14.839-2.748
	c1.232-0.5,2.065-1.166,2.499-1.998c0.299-0.6,0.482-1.666,0.549-3.198c0.833-13.624-0.083-27.714-2.748-42.271
	c-1.99-11.085-4.337-19.361-7.039-24.85c3.002-6.088,6.823-12.161,11.486-18.221C174.422,183.089,174.189,182.605,172.891,182.672z"
	/>
</svg>
