<?xml version="1.0" encoding="utf-8"?>
<!-- Generator: Adobe Illustrator 16.0.0, SVG Export Plug-In . SVG Version: 6.00 Build 0)  -->
<!DOCTYPE svg PUBLIC "-//W3C//DTD SVG 1.1//EN" "http://www.w3.org/Graphics/SVG/1.1/DTD/svg11.dtd">
<svg version="1.1" id="图层_1" xmlns="http://www.w3.org/2000/svg" xmlns:xlink="http://www.w3.org/1999/xlink" x="0px" y="0px"
	 width="358px" height="343px" viewBox="0 0 358 343" enable-background="new 0 0 358 343" xml:space="preserve">
<path d="M357.426,130.089c0-5.033-1.574-10.566-4.724-16.6c-3.12-6.063-7.196-11.39-12.229-15.981
	c-4.268-3.885-10.521-6.549-18.763-7.991c-4.182-0.714-8.538-1.058-13.061-1.051c2.892-5.747,5.316-13.752,7.276-24.025
	c2.03-10.86,2.708-19.852,2.03-26.975c-0.117-1.383-0.544-2.208-1.28-2.472c-0.706-0.206-1.472,0.118-2.296,0.971
	c-4.709,4.915-9.756,12.714-15.144,23.398c-1.137,2.257-2.176,4.442-3.122,6.557c-5.677,2.962-10.478,6.095-14.404,9.399
	c-0.657-0.761-1.353-1.527-2.052-2.294c0.609-3.365,1.078-6.967,1.39-10.836c0.296-4.18,0.368-7.579,0.222-10.198
	c-0.029-0.677-0.191-1.06-0.485-1.148c-0.294-0.059-0.603,0.177-0.927,0.707l-10.146,11.652c-0.229-0.206-0.439-0.409-0.671-0.615
	c-9.919-8.83-19.103-14.908-27.549-18.233c-2.796-1.119-3.812-0.383-3.048,2.207c1.855,6.534,6.183,15.114,12.98,25.739
	c1.512,2.342,3.002,4.537,4.471,6.595c-6.822,7.956-11.944,14.128-15.332,18.481c-5.592,7.123-9.49,12.877-11.698,17.262
	c-2.736,5.475-6.505,15.261-11.302,29.359c-0.383,1.125-0.797,2.355-1.234,3.668c-1.313-0.739-2.348-0.908-3.092-0.49
	c-0.913,0.5-1.104,1.795-0.574,3.885c0.373,1.41,0.729,2.917,1.064,4.501c-1.738,5.338-3.771,11.67-6.09,18.984
	c-1.181,0.83-2.388,1.75-3.629,2.784c-1.816,1.514-3.402,2.989-4.777,4.43c-0.016-1.585,0.188-2.862,0.629-3.813
	c1.884-3.825,3.898-9.417,6.048-16.775c2.062-7.211,3.282-12.715,3.664-16.512c0.147-1.795-0.205-2.884-1.06-3.267
	c-0.883-0.382-2.061,0.044-3.531,1.28c-3.385,2.767-6.961,6.417-10.729,10.949c-0.041,0.048-0.079,0.099-0.119,0.148
	c-1.211-4.104-1.824-7.777-1.824-11.009c0-3.591,0.722-6.902,2.164-9.933c3.236-6.829,5.856-14.304,7.857-22.428
	c2.119-8.859,2.738-15.791,1.854-20.794c-1-5.504-3.986-11.758-8.961-18.763c-3.961-5.541-7.922-9.674-11.883-12.405
	c7.438-5.587,14.93-13.358,22.479-23.355c6.887-9.153,11.214-16.394,12.979-21.721c1.001-3.032,0.016-4.003-2.958-2.914
	c-8.506,3.208-17.336,8.212-26.487,15.011c-8.953,6.651-15.693,13.28-20.234,19.888c-1.985-7.865-5.212-16.023-9.699-24.479
	c-4.386-8.358-8.815-14.819-13.289-19.381c-1.118-1.148-2.016-1.619-2.693-1.413c-0.677,0.206-1.045,1.074-1.104,2.605
	c-0.236,6.063,0.279,13.951,1.545,23.664c1.207,9.448,2.62,17.085,4.238,22.913c-6.622,0.647-12.7,1.722-18.233,3.223
	c-6.593,1.795-11.449,3.974-14.569,6.534c-3.238,2.62-6.607,6.416-10.11,11.39c-4.474,6.357-6.608,11.552-6.402,15.584
	c0.103,2.292,0.961,4.887,2.573,7.787c-1.366,2-2.484,4.278-3.323,6.871c-0.883,2.914-1.31,5.769-1.28,8.565
	c0.029,1.854,0.75,4.018,2.164,6.49c0.316,0.55,0.623,1.024,0.924,1.45c0.918,5.314,4.198,10.894,9.848,16.74
	c5.386,5.621,11.699,10.271,18.94,13.951c3.031,1.501,5.342,3.517,6.931,6.048c0.883,1.442,2.222,4.503,4.018,9.183
	c0.891,2.361,1.719,4.762,2.519,7.181c-2.528-0.993-5.328-1.762-8.435-2.28l-9.271-0.839c-0.401,0.009-0.736,0.065-1.04,0.143
	c-4.865-8.508-9.178-16.8-12.912-24.866c-2.767-6.063-5.401-10.758-7.902-14.083c-2.473-3.267-5.298-5.842-8.477-7.726
	c-11.567-6.77-25.974-17.983-43.222-33.641C34.23,71.798,22.442,59.422,15.496,49.827c-0.883-1.207-1.692-1.707-2.428-1.501
	c-0.736,0.147-1.074,0.971-1.015,2.472c0.147,2.767,0.927,6.181,2.34,10.243c1.227,3.555,2.668,6.692,4.3,9.459
	c-5.179-3.086-10.162-6.369-14.939-9.856c-1.413-1.03-2.473-1.207-3.179-0.53c-0.707,0.677-0.78,1.884-0.221,3.62
	c5.445,16.865,16.644,35.319,33.597,55.362c17.777,20.956,35.466,35.805,53.066,44.546c0.913,0.471,1.516,0.868,1.81,1.192
	c0.383,0.412,0.707,1.119,0.971,2.119c1.354,5.65,3.635,11.802,6.843,18.454c2.821,5.856,5.666,10.684,8.536,14.505
	c-3.881-0.044-7.839,0.041-11.892,0.285c-0.618,0.06-0.986,0.191-1.104,0.396c-0.118,0.206-0.015,0.604,0.309,1.192
	c2.705,4.44,5.172,8.391,7.406,11.86c-3.261,3.34-6.743,7.195-10.453,11.582c-1.236,1.502-2.34,2.604-3.311,3.312
	c-0.824,0.647-2.163,1.456-4.018,2.428c-9.536,4.886-18.646,11.259-27.328,19.116c-8.653,7.8-14.142,14.629-16.467,20.484
	c-1.177,2.942-1.707,7.49-1.589,13.643c0.118,5.975,0.766,11.346,1.943,16.114c0.235,1.03,0.279,1.854,0.132,2.472
	c-0.147,0.678-0.574,1.281-1.28,1.811c-1.884,1.442-3.562,3.313-5.033,5.607c-1.06,1.619-1.472,2.781-1.236,3.487
	c0.176,0.706,1.06,1.192,2.649,1.457c5.533,1.06,11.846,1.825,18.939,2.296c5.733,0.4,10.59,0.521,14.592,0.361
	c-0.153,1.438-0.281,2.858-0.386,4.262c-0.333,0.154-0.68,0.355-1.05,0.631c-1.972,1.471-4.444,3.547-7.417,6.225
	c-2.914,2.619-5.077,4.725-6.49,6.313c-0.913,1.03-1.177,1.825-0.794,2.385c0.382,0.589,1.28,0.839,2.693,0.75l9.05-1.016
	l9.051-1.412c0.571-0.104,1.041-0.248,1.44-0.42c2.202,0.636,5.557,1.057,10.082,1.259l9.847-0.275
	c0.248,0.416,0.658,0.777,1.279,1.069c2.443,1.147,5.209,2.179,8.3,3.091c3.032,0.885,5.769,1.486,8.212,1.812
	c1.177,0.147,1.928,0.028,2.251-0.354c0.294-0.382,0.206-1.205-0.265-2.472c-1.252-3.622-3.168-7.666-5.732-12.119
	c0.654-1.323,1.2-2.782,1.626-4.394c0.588-2.118,0.897-4.135,0.927-6.049l0.177-1.369c0.118-0.381,0.383-0.809,0.795-1.278
	c1.648-1.884,3.958-4.149,6.931-6.799c2.938-2.667,5.785-5.005,8.547-7.041c0.021,0.02,0.04,0.048,0.062,0.065
	c13.657,10.33,30.698,16.48,51.124,18.453c8.96,0.881,17.539,0.881,25.742,0.021c-0.068,0.902-0.129,1.943-0.18,3.156
	c-0.029,4.533,7.961,6.756,23.973,6.666l16.953-1.146c5.269-0.707,8.197-1.457,8.785-2.252c0.266-0.412,0.266-0.896,0-1.457
	c-0.324-0.559-0.912-1.118-1.766-1.678c-4.268-2.707-7.682-5.226-10.242-7.549c-0.295-0.295-0.486-0.78-0.574-1.457l-0.045-1.943
	l0.453-3.749c4.15-2.37,7.82-5.044,11.034-8.009c9.692,4.219,16.772,8.021,21.228,11.404c1.973,1.502,3.576,3.237,4.813,5.211
	c0.971,1.588,1.883,3.575,2.735,5.959c0.795,2.268,1.576,4.105,2.34,5.52c0.973,1.766,2.062,3.223,3.269,4.371
	c0.677,0.617,2.147,1.029,4.414,1.234l4.371-0.181c0.323,0.392,0.81,0.707,1.501,0.933c2.179,0.734,5.563,1.354,10.154,1.854
	l10.992,0.707c1.561-0.029,2.442-0.383,2.648-1.061c0.236-0.617-0.161-1.457-1.191-2.517c-0.66-0.674-1.354-1.354-2.063-2.037
	c1.423-0.157,3.258-0.508,5.508-1.053c0.552-0.12,0.979-0.341,1.302-0.646c1.727,0.119,3.835,0.146,6.381,0.07l7.328-0.619
	c1.384-0.264,2.179-0.734,2.385-1.412c0.234-0.677-0.178-1.441-1.236-2.295c-3.793-3.035-9.145-5.945-16.021-8.738
	c-0.954-5.11-1.897-9.471-2.83-13.071c-2.119-8.151-4.709-14.995-7.771-20.529c-1.796-3.206-6.961-8.844-15.496-16.907
	c-7.176-6.781-13.452-12.297-18.853-16.576c1.435-0.7,2.93-1.453,4.504-2.275c5.238-2.678,9.595-5.15,13.066-7.417
	c0.885-0.528,0.869-1.074-0.043-1.634l-8.434-4.592c-3.502-1.854-6.739-3.369-9.712-4.547c2.208-4.709,4.487-8.285,6.843-10.729
	c0.441-0.473,0.589-0.854,0.441-1.146c-0.146-0.295-0.516-0.429-1.104-0.398l-8.653-0.396l-6.666-1.06
	c1.283-5.497,2.953-9.765,5.004-12.817c5.274-1.802,9.895-3.24,13.848-4.313c1.678-0.441,2.518-1.178,2.518-2.207
	c0-0.973-0.75-1.723-2.252-2.252c-2.647-0.883-6.254-1.678-10.816-2.385c-4.198-0.654-7.777-0.976-10.756-0.969
	c0.931-0.847,1.877-1.662,2.854-2.431c4.101-3.26,8.188-5.467,12.265-6.637c1.657,2.03,3.525,4.009,5.615,5.93
	c7.477,6.828,14.54,10.331,21.191,10.508c6.239,0.235,11.699-1.647,16.379-5.649c4.355-3.719,5.767-7.268,4.237-10.646
	c1.677-2.89,2.997-5.644,3.93-8.252c0.824-2.266,1.119-3.532,0.884-3.796c-0.266-0.235-1.604-0.015-4.018,0.662
	c-2.315,0.604-4.402,1.345-6.288,2.208c-0.101-0.615-0.211-1.233-0.334-1.854c-0.365-1.871-0.816-3.635-1.348-5.298
	c1.321-1.231,2.451-2.568,3.392-4.013c2.916,0.758,5.895,1.425,8.948,1.982c5.15,0.913,8.462,1.148,9.934,0.707
	c2.502-0.736,4.842-3.208,7.02-7.417c2.143-4.177,3.083-8.437,2.84-12.776c0.661-0.738,1.266-1.55,1.797-2.455
	C356.558,137.991,357.426,134.356,357.426,130.089z M140.039,190.307l-3.456-2.549c-1.891-2.441-3.956-5.406-6.188-8.869l5.008,5.37
	l4.813,4.855L140.039,190.307z"/>
</svg>
