<?xml version="1.0" encoding="utf-8"?>
<!-- Generator: Adobe Illustrator 16.0.0, SVG Export Plug-In . SVG Version: 6.00 Build 0)  -->
<!DOCTYPE svg PUBLIC "-//W3C//DTD SVG 1.1//EN" "http://www.w3.org/Graphics/SVG/1.1/DTD/svg11.dtd">
<svg version="1.1" id="图层_1" xmlns="http://www.w3.org/2000/svg" xmlns:xlink="http://www.w3.org/1999/xlink" x="0px" y="0px"
	 width="424px" height="454px" viewBox="0 0 424 454" enable-background="new 0 0 424 454" xml:space="preserve">
<path d="M420.982,175.822c-14.36-2.465-34.335-3.782-59.923-3.948c-25.223-0.167-41.332,0.85-48.329,3.049
	c-4.665,1.532-13.811,7.863-27.438,18.991c-9.577,7.818-19.058,16.073-28.443,24.751c-0.217,0-0.426-0.017-0.645-0.012
	c2.199-3.099,5.365-6.563,9.496-10.396c0.367-0.333,0.533-0.649,0.5-0.949c-0.005-0.019-0.021-0.035-0.027-0.053
	c8.086-8.63,15.693-16.496,22.816-23.587c10.296-10.295,17.359-16.759,21.191-19.392c5.23-3.565,20.974-10.445,47.229-20.641
	l42.48-16.343c1.434-0.666,2.116-1.433,2.05-2.299c-0.101-0.866-0.95-1.383-2.549-1.549l-9.796-1.849
	c-3.532-0.833-6.597-1.732-9.196-2.699c5.364-4.365,11.229-10.212,17.593-17.542c6.063-6.963,10.445-12.778,13.144-17.442
	c0.733-1.133,0.866-1.966,0.4-2.499c-0.434-0.5-1.316-0.566-2.649-0.2c-15.726,4.432-37.399,12.728-65.021,24.889
	c-29.05,12.827-47.268,22.519-54.671,29.079c-0.085-0.066-0.169-0.125-0.255-0.192c-1.666-1.299-3.882-3.599-6.647-6.897
	c-2.053-2.415-4.074-4.97-6.072-7.63c-0.049-0.129-0.105-0.261-0.162-0.392c3.674-0.062,7.69-0.508,12.081-1.374
	c5.099-1,8.813-2.215,11.146-3.648c2.933-1.799,6.931-5.098,11.995-9.896c4.864-4.665,8.229-8.33,10.096-10.995
	c0.666-0.933,0.816-1.683,0.449-2.249c-0.399-0.6-1.433-0.75-3.099-0.45c-4.031,0.667-8.13,1.666-12.294,2.999
	c-3.299,1.1-7.264,1.649-11.895,1.649c-6.831,0-11.596-0.4-14.295-1.199c-0.6-0.2-0.966-0.483-1.1-0.85
	c-0.133-0.399-0.066-1,0.201-1.799c0.966-3.065,2.582-7.23,4.848-12.495c2.398-5.464,4.281-9.263,5.646-11.395l7.397-9.896
	c4.665-5.964,10.079-12.678,16.243-20.141c1.732-2.132,2.198-3.765,1.399-4.898c-0.833-1.1-2.532-1.133-5.099-0.1
	c-4.098,1.633-10.379,4.848-18.842,9.646c-8.563,4.931-13.877,8.363-15.942,10.295c-1.999,1.899-4.382,4.781-7.147,8.646
	c-2.37,3.242-4.329,6.27-5.916,9.106c-1.089-5.385-1.883-10.005-2.38-13.854c-1.032-7.896-1.1-13.927-0.2-18.092
	c0.934-4.098,1.899-7.997,2.899-11.695l3.148-11.845c0.899-3.898,1.55-7.597,1.949-11.095c0.267-2.333-0.101-3.765-1.1-4.298
	c-0.933-0.5-2.216-0.117-3.849,1.149c-5.064,3.965-11.045,9.996-17.941,18.092c-6.598,7.797-10.379,13.094-11.346,15.893
	c-1.033,3.065-2.148,8.93-3.348,17.592c-1.108,7.87-1.757,14.49-1.947,19.86c-2.233-0.852-4.664-2.134-7.299-3.868
	c-3.932-2.599-6.697-5.164-8.297-7.696c-2.632-4.198-6.114-10.412-10.445-18.642c-4.198-8.03-7.113-13.961-8.746-17.792
	c-0.667-1.566-1.449-2.282-2.349-2.149c-0.899,0.1-1.399,0.933-1.499,2.499c-0.5,6.23-0.7,13.644-0.6,22.24
	c0.1,9.362,0.533,15.26,1.3,17.692c0.799,2.466,3.432,6.714,7.896,12.745c3.833,5.202,7.132,9.224,9.91,12.092l-5.462-0.448
	c-2.699-0.366-5.547-1-8.546-1.899c-2.599-0.733-8.546-3.465-17.842-8.196c-8.23-4.132-13.977-7.164-17.243-9.096
	c-1.799-1.066-3.165-1.283-4.098-0.649c-1.066,0.666-0.85,2.082,0.65,4.248c3.565,5.164,8.763,11.845,15.593,20.041
	c8.03,9.629,13.177,14.877,15.443,15.743c1.966,0.766,4.665,1.383,8.097,1.849l11.395,0.65c-5.265,2.665-10.362,5.964-15.293,9.896
	c-4.631,3.632-7.88,6.764-9.746,9.396c-0.733,1.066-0.883,1.949-0.45,2.649c0.4,0.7,1.216,1.133,2.449,1.3l9.546,0.5l7.835-0.808
	c-3.506,9.113-6.951,20.59-10.334,34.443c-1.972,8.026-3.627,15.657-4.979,22.911c-2.444-4.491-5.221-8.689-8.365-12.565
	c-4.265-5.264-8.296-8.813-12.094-10.645l-0.75-0.2c-0.167,0.1-0.316,0.367-0.45,0.8c-0.552,1.863-0.821,4.14-0.82,6.814
	c-2.063-4.581-5.321-12.315-9.775-23.207l-9.446-22.49c-3.398-7.53-6.147-12.594-8.247-15.193
	c-6.23-7.93-22.307-21.424-48.229-40.482C64.64,59.124,47.547,47.379,35.253,39.982c-1.533-0.899-2.599-1.066-3.199-0.5
	c-0.667,0.6-0.433,1.849,0.7,3.748c3.499,5.764,8.146,12.661,13.944,20.691c6.43,8.963,11.745,15.743,15.943,20.341
	c-8.097-0.133-14.227,0.35-18.392,1.449c-1.333,0.367-2.099,0.966-2.299,1.799c-0.2,0.866,0.267,1.849,1.399,2.949
	c2.865,2.766,13.977,10.512,33.335,23.24c19.425,12.728,30.67,20.607,33.735,23.64c3.432,3.332,7.264,8.18,11.495,14.543
	l11.845,18.742l9.596,15.293c3.335,5.112,6.242,9.293,8.732,12.568c-0.313,0.061-0.614,0.131-0.912,0.206
	c-6.319-6.746-13.252-13.785-20.814-21.121c-9.696-9.396-16.659-15.41-20.891-18.042c-2.821-1.82-6.064-3.378-9.686-4.702
	c-2.556-4.833-5.091-8.293-7.606-10.341c-0.866-0.7-1.633-0.95-2.299-0.75c-0.733,0.233-1.232,1-1.499,2.299
	c-0.362,1.99-0.697,3.87-1.008,5.646l-13.136-1.548l-41.781-4.098l-29.537-3.199c-1.599-0.133-2.532,0.216-2.799,1.049
	s0.25,1.666,1.549,2.499c4.498,2.899,10.212,6.347,17.143,10.345c7.297,4.132,13.011,7.181,17.142,9.146
	c-4.464,2.099-8.962,3.798-13.494,5.098c-1.533,0.433-2.232,1.116-2.099,2.049c0.1,0.866,0.883,1.633,2.349,2.299
	c5.352,2.515,11.285,3.99,17.79,4.446c0.605,5.175,2.147,10.439,4.651,15.795c2.432,5.231,5.297,9.646,8.596,13.244
	c-2.832,0.267-5.748,1.017-8.746,2.249c-2.932,1.2-5.098,2.499-6.497,3.898c-0.633,0.667-0.95,1.25-0.95,1.749
	c0.033,0.467,0.366,1.033,1,1.699c2.032,1.933,5.148,4.048,9.346,6.348c2.195,1.202,4.142,2.147,5.854,2.848
	c-0.461,0.887-0.896,1.948-1.306,3.199c-0.5,1.566-0.833,2.948-1,4.148c-0.3,2.199,0.65,2.782,2.849,1.749
	c1.732-0.833,3.698-1.516,5.897-2.049l6.347-0.9c-0.034,1.767,0.216,4.115,0.75,7.047c0.167,0.967,0.583,1.533,1.25,1.7
	c0.6,0.133,1.233-0.134,1.899-0.8c2.499-2.398,5.598-4.398,9.296-5.998c3.395-1.475,6.59-2.254,9.59-2.357
	c2.778,2.735,7.247,6.197,13.45,10.404c6.53,4.432,11.461,7.348,14.793,8.746c2.799,1.166,5.481,1.766,8.046,1.799
	c2.532,0.067,5.098-0.449,7.697-1.549c4.46-1.811,8.175-3.547,11.168-5.213c-2.488,5.813-4.164,11.997-5.021,18.557
	c-0.869,6.823-0.805,13.488,0.174,19.996c-7.054,15.393-11.415,32.813-13.068,52.272c-1.766,21.224,0.417,37.866,6.547,49.929
	c0.6,1.199,1.233,1.715,1.899,1.549c0.633-0.2,0.983-0.916,1.049-2.149c0.1-2.599,0.45-5.431,1.05-8.496
	c1.033,2.333,1.816,3.849,2.349,4.548c0.7,0.934,1.333,1.283,1.899,1.05c0.533-0.2,0.833-0.883,0.899-2.05
	c0.233-3.498,0.716-7.163,1.45-10.994c0.718-3.537,1.553-6.572,2.5-9.124c0.167,1.237,0.413,2.463,0.749,3.677
	c0.766,2.665,1.799,4.83,3.099,6.496c0.633,0.834,1.25,1.15,1.849,0.95c0.533-0.134,0.899-0.783,1.1-1.949
	c1.299-7.431,2.898-15.144,4.798-23.14c1.977-8.23,3.861-14.991,5.654-20.296c0.877,0.686,1.77,1.358,2.692,2.003
	c3.862,2.682,7.962,4.869,12.289,6.584c3.981,23.288,12.92,42.459,26.844,57.488c5.064,5.498,10.912,10.529,17.542,15.094
	c3.031,2.065,7.879,5.031,14.543,8.896c8.264,4.731,14.344,8.646,18.242,11.745c4.432,3.599,7.797,7.547,10.096,11.845
	c1.666,3.099,3.148,5.182,4.448,6.247c1.799,1.5,2.782,1.1,2.948-1.199c0.016-0.327,0.008-0.69-0.015-1.078
	c1.03,1.554,2.168,3.56,3.413,6.026c0.467,0.933,0.983,1.365,1.55,1.299c0.566-0.1,0.933-0.633,1.099-1.599
	c0.62-3.224,0.627-7.483,0.036-12.754c0.456,0.574,0.87,1.145,1.214,1.708c0.666,1.066,1.283,1.5,1.85,1.3
	c0.6-0.2,0.899-0.933,0.899-2.199c0.033-4.998-1.449-10.712-4.448-17.143c-3.099-6.663-6.714-11.611-10.846-14.843
	c-11.794-9.196-20.44-18.143-25.938-26.839c-7.978-12.566-12.077-27.541-12.324-44.911c2.437-1.132,4.796-2.435,7.076-3.917
	c3.363-2.178,6.447-4.667,9.267-7.453c1.345,5.071,2.289,11.38,2.828,18.948c0.6,8.163,0.616,16.226,0.05,24.188
	c-0.1,1.3,0.166,2.083,0.8,2.35c0.633,0.267,1.249-0.05,1.849-0.949c1.3-2.033,2.266-4.031,2.898-5.998
	c1.434,4.232,2.333,9.68,2.699,16.344c0.033,1.166,0.316,1.832,0.85,1.998c0.5,0.2,1.083-0.1,1.75-0.899
	c1.432-1.899,2.564-4.064,3.398-6.497c0.832,2.398,1.432,5.381,1.799,8.946c0.333,3.099,0.449,6.181,0.35,9.246
	c-0.033,1.532,0.316,2.415,1.05,2.648c0.733,0.2,1.499-0.333,2.299-1.599c3.466-5.531,6.063-12.861,7.797-21.99
	c1.766-8.93,2.532-18.659,2.299-29.188c-0.548-22.709-5.075-42.581-13.555-59.638c0.115-1.251,0.206-2.511,0.261-3.784
	c0.296-6.995-0.36-13.732-1.954-20.217c2.137,2.398,4.337,4.377,6.602,5.923c2.799,1.866,5.564,2.981,8.296,3.349
	c2.766,0.366,7.897-0.184,15.395-1.649c7.596-1.433,13.91-3.132,18.941-5.098l1.799-0.399l1.399,0.399
	c2.441,1.354,5.497,2.343,9.148,2.978c1.622,1.21,3.716,2.351,6.295,3.42c2.499,1.032,5.197,1.898,8.097,2.598l9.995,1.35
	c3.532,0.234,6.681,0.25,9.446,0.051c1.299-0.066,2.016-0.417,2.148-1.05c0.101-0.634-0.35-1.282-1.35-1.949
	c-1.545-0.968-3.147-2.151-4.795-3.502l13.592,1.054c1.999,0,2.415-0.934,1.249-2.799l-3.009-4.431
	c0.523-1.248,0.859-2.72,1.01-4.416c0.2-2.065,0.116-4.099-0.25-6.097c-0.433-2.799-0.433-5.198,0-7.197
	c0.346-1.451,0.887-2.535,1.613-3.27c1.934,0.289,4.06,1.008,6.383,2.17c1.5,0.732,3.416,1.832,5.748,3.299
	c2.433,1.532,4.581,1.466,6.447-0.2c1.999-1.8,2.632-4.897,1.899-9.296c-0.367-2.332-2.116-5.848-5.248-10.545
	c-3.432-5.198-6.563-8.68-9.396-10.445c-2.084-1.309-5.347-2.465-9.757-3.474c0.119-0.206,0.233-0.417,0.348-0.628
	c3.336,0.808,7.091,1.479,11.308,2.003l11.495,0.6c1.066-0.033,1.716-0.316,1.949-0.85c0.167-0.6-0.133-1.366-0.899-2.299
	c-5.031-6.531-9.596-11.212-13.694-14.044c6.797-1.433,15.061-3.715,24.789-6.847c9.696-3.132,16.81-5.831,21.341-8.096
	c1.166-0.566,1.716-1.183,1.649-1.849C423.315,176.589,422.516,176.089,420.982,175.822z M135.109,208.808
	c4.729,3.001,8.662,5.807,11.818,8.421l-2.872,1.383c-6.581-3.127-14.551-6.378-23.924-9.757c0.192-3.542,0.155-6.424-0.109-8.646
	C125.151,202.82,130.182,205.678,135.109,208.808z M313.23,209.458l2.789-0.172c-4.802,6.17-8.42,12.027-10.836,17.564
	c-0.18,0.39-0.369,0.735-0.564,1.059c-1.059-0.528-2.332-0.901-3.834-1.108l-6.496-0.25l-14.094,1.05l-15.066,1.775
	c-0.111-0.077-0.215-0.147-0.327-0.227c-0.121-0.082-0.233-0.161-0.354-0.242l23.743-10.203c10.962-4.598,17.759-7.313,20.391-8.146
	L313.23,209.458z M279.766,148.259c-3.843,6.504-8.996,16.153-15.464,28.962l-15.069,30.187c-0.591,0.13-1.193,0.284-1.795,0.435
	c2.213-3.633,4.387-7.937,6.52-12.93c2.798-6.464,4.598-11.945,5.396-16.443c0.2-0.866-0.149-1.183-1.049-0.95
	c-5.965,1.766-12.178,5.148-18.643,10.146c-5.802,4.453-10.257,8.966-13.401,13.537c-1.204-10.371-1.503-19.318-0.892-26.831
	c0.812-9.668,3.469-20.658,7.944-32.948c0.389,0.243,0.784,0.461,1.179,0.684c1.031,3.5,2.651,6.825,4.871,9.974
	c2.232,3.198,4.897,5.997,7.996,8.396c2.832,2.199,5.081,4.415,6.747,6.647c0.733,0.933,1.499,1.266,2.299,1
	c0.8-0.3,1.267-1.083,1.399-2.349c0.434-3.965,0.199-8.48-0.699-13.544c-0.797-4.249-1.843-7.709-3.136-10.39
	c0.318-0.908,0.327-1.913,0.026-3.014c0.372-0.36,0.773-0.851,1.209-1.49c0.273-0.419,0.511-0.821,0.729-1.214
	c1.929,1.613,4.129,3.331,6.618,5.163c4.864,3.565,8.279,5.664,10.245,6.297C274.3,148.092,276.627,148.315,279.766,148.259z"/>
</svg>
