<?xml version="1.0" encoding="utf-8"?>
<!-- Generator: Adobe Illustrator 16.0.0, SVG Export Plug-In . SVG Version: 6.00 Build 0)  -->
<!DOCTYPE svg PUBLIC "-//W3C//DTD SVG 1.1//EN" "http://www.w3.org/Graphics/SVG/1.1/DTD/svg11.dtd">
<svg version="1.1" id="图层_1" xmlns="http://www.w3.org/2000/svg" xmlns:xlink="http://www.w3.org/1999/xlink" x="0px" y="0px"
	 width="282px" height="293px" viewBox="0 0 282 293" enable-background="new 0 0 282 293" xml:space="preserve">
<path d="M278.597,241.881c-0.479-5.109-1.868-8.908-4.167-11.398c-2.33-2.459-5.843-3.816-10.537-4.072
	c-2.011-0.096-3.592-0.494-4.74-1.197c-1.214-0.702-2.14-1.787-2.778-3.256c-2.171-4.822-4.614-8.19-7.328-10.105
	c-3.125-2.205-7.021-2.807-11.675-1.838c-0.59-1.109-1.106-2.18-1.538-3.206c3.184,0.729,6.034,1.098,8.52,1.068
	c0.446,0,0.622-0.208,0.526-0.623c-0.479-4.726-1.085-8.908-1.819-12.548l2.251,4.837l2.059,5.364
	c0.32,0.83,0.719,1.245,1.198,1.245c0.479,0,0.846-0.479,1.102-1.437c5.109-19.854,5.835-38.022,2.179-54.507
	c0.877-2.559,2.668-4.477,5.389-5.744c7.023-3.256,12.037-8.956,15.039-17.098c2.649-7.216,3.384-14.943,2.203-23.181
	c-0.352-2.395-1.214-3.656-2.587-3.784c-1.31-0.096-2.442,0.926-3.4,3.065c-0.734,1.533-1.836,2.65-3.305,3.353
	c-1.532,0.67-3.4,0.83-5.604,0.479c-2.778-0.447-4.901-0.303-6.37,0.431c-1.438,0.67-2.666,2.107-3.688,4.311
	c-1.021,2.139-2.603,3.72-4.742,4.741c-1.945,0.987-4.454,1.486-7.521,1.502c-6.002-7.766-13.56-14.34-22.7-19.702
	c-6.702-3.898-13.554-6.665-20.55-8.323c1.173-3.81,1.181-7.582,0.003-11.313c-1.277-4.055-3.752-7.711-7.424-10.968
	c-2.554-2.299-3.814-5.333-3.783-9.1c0.032-3.321,1.021-6.609,2.97-9.866c3.672-6.354,5.364-14.145,5.077-23.372
	c-0.32-9.1-2.443-16.907-6.371-23.42c-0.989-1.724-2.043-2.411-3.16-2.06c-1.182,0.352-1.772,1.725-1.772,4.119
	c0,5.492-0.958,10.553-2.874,15.183c-1.947,4.693-4.757,8.732-8.429,12.117c-5.045,4.598-8.271,8.94-9.675,13.027
	c-1.404,3.959-1.373,8.429,0.096,13.411c1.149,3.863,1.453,6.96,0.91,9.291c-0.543,2.203-2.075,4.358-4.598,6.466
	c-3.8,3.097-5.971,6.833-6.514,11.207c-0.409,3.25,0.088,6.218,1.478,8.908c-13.357,5.147-24.743,13.58-34.167,25.282
	c-0.907-1.411-2.013-2.766-3.327-4.064c-7.024-6.896-16.906-9.483-29.646-7.759c-4.311,0.639-7.679,0.655-10.106,0.048
	c-3.225-0.734-5.667-2.618-7.328-5.651c-4.598-8.621-10.936-14.097-19.014-16.428c-6.258-1.788-13.282-1.645-21.073,0.431
	c-1.82,0.479-2.666,1.277-2.538,2.395c0.127,1.118,1.021,1.979,2.682,2.586c3.321,1.181,6.242,3.017,8.765,5.508
	c2.522,2.458,4.391,5.332,5.604,8.621c3.289,8.653,6.115,14.208,8.478,16.667c2.586,2.714,6.896,4.326,12.931,4.837
	c2.555,0.223,4.678,0.91,6.37,2.059c1.756,1.246,2.842,2.858,3.257,4.837c1.437,7.312,4.997,12.788,10.68,16.428
	c0.143,0.092,0.292,0.17,0.437,0.259c-1.81-0.194-3.803-0.533-5.992-1.025c-4.151-0.894-7.711-2.011-10.68-3.353l-1.054-0.144
	c-0.255,0.192-0.255,0.575,0,1.149c3.129,8.174,7.184,13.921,12.165,17.242c-4.854,1.245-10.265,2.267-16.236,3.065l-15.661,1.293
	c-0.543,0-0.862,0.144-0.958,0.431c-0.16,0.288-0.032,0.639,0.383,1.054c3.271,3.66,6.568,6.853,9.892,9.594
	c-10.266,5.636-20.858,13.768-31.78,24.411c-10.952,10.632-17.705,19.237-20.259,25.815c-1.788,4.502-2.267,8.205-1.437,11.111
	c0.83,3.033,3.225,5.795,7.184,8.285c7.152,4.438,16.891,8.685,29.215,12.74c11.113,3.673,23.619,6.964,37.493,9.879
	c-0.125,1.529-0.131,3.268,0.008,5.256c0.447,6.002,1.884,9.354,4.311,10.057c2.458,0.767,6.019-0.91,10.68-5.028
	c2.676-2.351,4.556-4.511,5.646-6.482l14.53,2.223c0.602,1.789,1.495,3.866,2.718,6.271c2.905,5.748,5.396,8.605,7.471,8.574
	c1.405-0.032,3.321-1.422,5.748-4.168c2.02-2.328,3.661-4.774,4.966-7.325c0.838-0.251,1.69-0.528,2.565-0.848l10.293,0.712
	c-0.333,0.403-0.682,0.789-1.062,1.14c-0.446,0.384-0.623,0.734-0.526,1.054c0.159,0.319,0.559,0.415,1.197,0.287
	c2.571-0.407,5.238-1.165,7.992-2.242l8.542,0.035c-0.935,2.139-2.021,3.968-3.268,5.464c-0.415,0.511-0.591,0.878-0.526,1.102
	c0.127,0.255,0.542,0.399,1.244,0.431c2.825,0.086,6.092-0.498,9.771-1.707c1.42,1.135,2.811,2.079,4.166,2.809
	c1.756,0.926,3.033,1.31,3.832,1.15c1.244-0.287,2.762-1.948,4.549-4.981c1.311-2.224,2.306-4.338,3.003-6.352
	c4.834-2.855,9.149-5.942,12.946-9.262c1.149,4.055,1.293,7.519,0.432,10.394c-0.16,0.51-0.112,0.877,0.143,1.102
	c0.288,0.159,0.672,0.031,1.15-0.384c2.969-2.458,5.906-5.796,8.813-10.01c2.126-3.034,3.813-5.924,5.063-8.672
	c1.659,3.008,3.154,6.317,4.468,9.965c0.255,0.734,0.59,1.069,1.006,1.006c0.383-0.096,0.654-0.447,0.813-1.054
	c0.731-2.866,1.905-6.526,3.51-10.963c1.727,1.114,3.369,1.997,4.919,2.629c2.523,1.021,4.344,1.229,5.461,0.623
	c1.309-0.766,2.012-2.777,2.107-6.035c0.014-0.435,0.016-0.87,0.015-1.306l5.014-0.37c0.511-0.128,0.767-0.336,0.767-0.623
	l-0.719-0.861c-1.5-0.895-2.922-2.123-4.262-3.688c-0.579-0.658-1.063-1.312-1.489-1.964c-0.12-0.663-0.252-1.327-0.403-1.992
	c1.332,0.711,2.729,1.313,4.191,1.8c2.011,0.734,3.719,1.102,5.124,1.102c1.245,0,1.581-0.479,1.006-1.437
	c-0.853-1.471-1.727-3.251-2.623-5.325c1.885,0.776,4.145,1.071,6.79,0.871c3.193-0.256,6.354-1.133,9.482-2.635
	c3.129-1.469,6.162-1.979,9.1-1.532c3.066,0.511,6.179,2.092,9.34,4.741c1.277,1.118,2.363,1.438,3.257,0.959
	C278.453,245.488,278.82,244.115,278.597,241.881z"/>
</svg>
