<?xml version="1.0" encoding="utf-8"?>
<!-- Generator: Adobe Illustrator 16.0.0, SVG Export Plug-In . SVG Version: 6.00 Build 0)  -->
<!DOCTYPE svg PUBLIC "-//W3C//DTD SVG 1.1//EN" "http://www.w3.org/Graphics/SVG/1.1/DTD/svg11.dtd">
<svg version="1.1" id="图层_1" xmlns="http://www.w3.org/2000/svg" xmlns:xlink="http://www.w3.org/1999/xlink" x="0px" y="0px"
	 width="550px" height="454px" viewBox="0 0 550 454" enable-background="new 0 0 550 454" xml:space="preserve">
<path d="M541.852,234.326c-12.759-1.932-26.739-6.471-41.941-13.616c-11.666-5.468-23.149-11.994-34.45-19.576
	c-14.035-9.406-30.112-15.986-48.23-19.741c-19.138-3.953-36.513-3.604-52.138,1.014c5.943-6.671,10.767-14.297,14.462-22.887
	c7.254-16.842,10.59-39.335,10.007-67.479c-0.401-20.087,2.643-37.585,9.132-52.496c6.562-15.129,16.514-27.305,29.856-36.528
	c0.547-0.364,0.803-0.692,0.766-0.984c-0.036-0.328-0.419-0.547-1.148-0.656c-12.358-1.932-26.138-1.367-41.34,1.695
	c-14.801,3.063-29.419,8.166-43.855,15.312c-14.691,7.291-27.578,15.949-38.661,25.974c-11.629,10.556-20.213,21.729-25.766,33.514
	c-0.644-0.149-1.418-0.171-2.341-0.048c-7.729,1.057-15.712,6.635-23.952,16.733c-6.211,7.668-10.272,15.489-12.2,23.461
	c-2.346-0.091-4.728-0.074-7.146,0.053c-1.114,0.04-2.213,0.103-3.296,0.19c-5.164-13.987-13.177-27.376-24.057-40.165
	c-10.718-12.577-23.404-23.55-38.06-32.919c-14.509-9.369-29.638-16.314-45.387-20.834c-16.259-4.703-31.771-6.397-46.535-5.085
	c-0.692,0.037-1.075,0.237-1.148,0.602c-0.036,0.401,0.219,0.766,0.766,1.094c13.379,8.458,23.058,20.561,29.037,36.31
	c5.25,13.744,7.036,28.107,5.359,43.09c-3.317,29.748,0.839,54.136,12.468,73.166c2.875,4.704,6.119,8.934,9.707,12.721
	c-11.59-3.871-24.101-4.438-37.541-1.675c-14.619,2.953-26.813,8.932-36.583,17.936c-7.4,6.745-15.584,12.559-24.552,17.444
	c-9.187,4.922-18.501,8.494-27.943,10.718c-3.281,0.766-5.013,1.495-5.195,2.188c-0.182,0.693,1.258,1.586,4.32,2.68
	c18.665,6.707,33.703,16.787,45.113,30.239c12.65,14.91,27.359,25.337,44.129,31.278c14.06,4.998,26.607,5.963,37.653,2.922
	c-5.229,5.367-9.761,11.3-13.592,17.803c-8.494,14.438-12.358,29.984-11.593,46.645c0.692,14.363-1.185,25.154-5.632,32.373
	c-4.484,7.327-12.286,12.066-23.404,14.217c-0.62,0.146-0.966,0.328-1.039,0.547c-0.073,0.256,0.128,0.675,0.602,1.258
	c3.245,4.12,8.257,7.4,15.038,9.843c6.417,2.297,13.726,3.628,21.928,3.992c17.667,0.675,32.917-2.803,45.766-10.412
	c3.698,4.764,7.741,9.118,12.129,13.066c2.274,8.304,4.703,14.935,7.287,19.875c0.948,1.823,2.188,2.606,3.719,2.352
	c1.495-0.255,2.479-1.44,2.953-3.555c0.807-3.832,1.785-7.644,2.933-11.437c4.595-4.95,14.349-11.29,29.275-19.021
	c13.379-6.963,26.594-12.96,39.646-17.991c7.834-3.043,15.035-6.349,21.647-9.899c11.252,13.208,24.266,23.676,39.051,31.391
	c13.634,7.035,27.834,11.301,42.598,12.795c13.78,1.35,26.467,0.128,38.06-3.663c11.52-3.792,20.269-9.533,26.248-17.226
	c2.296-2.952,3.044-4.685,2.241-5.194c-0.656-0.475-2.569,0-5.741,1.422c-10.099,4.557-19.467,3.354-28.107-3.609
	c-8.749-7.072-13.215-17.316-13.396-30.731c-0.328-22.821-2.188-41.742-5.578-56.762c-1.6-7.065-3.531-13.167-5.778-18.353
	c8.899,4.332,20.48,4.68,34.76,1.019c14.327-3.646,28.436-10.408,42.325-20.287c13.488-9.588,28.909-17.973,46.262-25.154
	c16.04-6.672,32.81-11.921,50.308-15.748c4.886-1.094,7.383-2.006,7.492-2.734C549.635,235.984,547.065,235.164,541.852,234.326z"/>
</svg>
