<?xml version="1.0" encoding="utf-8"?>
<!-- Generator: Adobe Illustrator 16.0.0, SVG Export Plug-In . SVG Version: 6.00 Build 0)  -->
<!DOCTYPE svg PUBLIC "-//W3C//DTD SVG 1.1//EN" "http://www.w3.org/Graphics/SVG/1.1/DTD/svg11.dtd">
<svg version="1.1" id="图层_1" xmlns="http://www.w3.org/2000/svg" xmlns:xlink="http://www.w3.org/1999/xlink" x="0px" y="0px"
	 width="307px" height="502px" viewBox="0 0 307 502" enable-background="new 0 0 307 502" xml:space="preserve">
<path d="M305.352,217.058c0.898-1.398,1.198-2.481,0.898-3.247c-0.332-0.732-1.299-1.065-2.896-0.999
	c-4.096,0.167-9.008,0.883-14.736,2.148c-5.089,1.131-9.482,2.396-13.188,3.793c6.465-15.804,12.826-29.409,19.083-40.807
	c0.866-1.598,0.982-2.781,0.35-3.546c-0.6-0.766-1.831-0.966-3.696-0.6c-9.657,1.965-21.762,8.242-36.314,18.832
	c-13.064,9.481-24.315,19.54-33.779,30.168c-0.67-0.365-1.663-0.449-2.985-0.248c-4.628,0.732-9.973,2.015-16.033,3.846
	c-5.825,1.708-10.969,3.56-15.451,5.55c1.6-4.831,3.171-10.202,4.711-16.14c2.432-9.357,4.029-17.266,4.795-23.727
	c0.268-2.198,0.067-3.546-0.599-4.046c-0.699-0.5-2.065-0.3-4.097,0.599c-6.56,2.897-13.486,7.959-20.779,15.185
	c-7.193,7.027-13.869,15.335-20.03,24.926c-1.914,2.964-3.692,5.906-5.36,8.83c-11.869-6.303-20.829-20.768-26.859-43.446
	c-5.461-20.48-7.292-41.243-5.495-62.289c0.733-8.425,3.014-16.733,6.844-24.926c2.697-5.694,6.61-12.171,11.738-19.431
	c0.833-1.232,1.099-2.131,0.799-2.697c-0.366-0.6-1.432-0.899-3.197-0.899c-8.425-0.066-16.334,0.966-23.727,3.097
	c-6.638,1.879-12.174,4.414-16.633,7.59c-0.64-0.113-1.292-0.214-1.955-0.301c0.729-2.332,0.951-4.695,0.655-7.089
	c-0.2-1.599,0.133-2.864,0.999-3.796c0.966-0.999,2.714-1.865,5.245-2.597c9.357-2.464,16.151-5.312,20.38-8.542
	c5.562-4.229,9.175-10.49,10.84-18.782c0.799-3.863,2.514-7.692,5.145-11.489c1.499-2.098,4.995-6.293,10.49-12.587
	c1.565-1.798,6.028-6.194,13.387-13.187c7.06-6.694,11.255-10.89,12.587-12.588c1-1.232,1.316-2.148,0.949-2.747
	c-0.398-0.7-1.581-0.683-3.546,0.05c-5.295,1.965-14.369,7.226-27.224,15.784c-12.521,8.359-21.429,15.002-26.724,19.931
	c-2.265,2.098-3.796,4.362-4.596,6.793c-0.533,1.599-0.799,3.73-0.799,6.394c0,3.03-0.716,5.361-2.148,6.993
	c-1.465,1.598-3.813,2.764-7.043,3.496c-9.257,2.032-16.567,5.512-21.929,10.44c-5.594,5.095-7.592,10.473-5.994,16.134
	c0.389,1.361,0.532,2.968,0.458,4.792c-2.398,0.739-4.7,1.936-6.901,3.6c-0.637,0.476-1.203,0.952-1.721,1.429
	c-5.501,1.612-10.643,3.762-15.426,6.451c0.636-1.381,0.978-2.906,1.013-4.583c0.033-3.263,0.399-5.728,1.099-7.393
	c0.633-1.565,1.815-2.914,3.547-4.046c2.564-1.699,5.544-3.996,8.941-6.894c4.163-3.53,6.594-6.061,7.293-7.592
	c0.533-1.332,0.733-2.997,0.6-4.995c-0.2-2.131-0.799-4.113-1.798-5.944c-0.5-0.933-0.749-1.749-0.749-2.448
	c0.033-0.732,0.399-1.781,1.099-3.147c1.166-2.331,7.077-9.724,17.733-22.178c10.823-12.588,17.033-20.413,18.632-23.477
	c0.599-1.132,0.649-1.898,0.149-2.298c-0.466-0.333-1.398-0.183-2.797,0.45c-3.896,1.765-11.356,7.076-22.378,15.935
	c-9.657,7.726-17.266,14.236-22.828,19.531c-4.462,4.196-7.326,8.076-8.591,11.639c-1.247,3.43-1.267,7.141-0.091,11.126
	c-7.161,5.504-12.36,10.92-15.594,16.247c-3.976,6.52-4.631,12.293-1.985,17.325c-2.072,2.925-4.536,5.693-7.405,8.3
	c-5.796,5.264-7.625,11.339-5.492,18.224c-3.852,2.02-7.864,3.36-12.041,4.005c-1.066,0.167-1.749,0.549-2.048,1.149
	c-0.3,0.5-0.283,1.315,0.05,2.447c3.396,11.056,11.089,18.699,23.077,22.928c8.246,2.862,14.698,5.657,19.383,8.387
	c2.365,2.784,4.267,6.623,5.692,11.543c1.261,4.353,1.934,8.61,2.031,12.774c-0.572,0.192-1.144,0.385-1.731,0.563
	c-12.122,3.663-22.245,3.08-30.371-1.749l-0.949-0.15c-0.2,0.2-0.25,0.666-0.15,1.399c0.366,2.831,1.682,5.611,3.946,8.342
	c2.159,2.615,4.838,4.71,8.025,6.298c-6.363,4.14-11.074,9.711-14.119,16.729c-3.597,8.359-4.413,17.6-2.448,27.723
	c1.965,9.99,6.294,18.981,12.987,26.974c3.872,4.653,8.224,8.527,13.049,11.633c0.482,7.688,3.372,15.765,8.68,24.231
	c0.525,0.831,1.058,1.623,1.593,2.408c0.071,5.503,0.567,11.834,1.504,19.021c0.633,5.162,1.898,13.221,3.796,24.176
	c1.898,11.423,1.315,26.191-1.749,44.308c-3.03,17.882-7.659,34.232-13.886,49.052c-1.513,3.466-2.275,6.354-2.311,8.683
	c-1.16,0.454-2.337,1.003-3.533,1.657c-4.729,2.598-8.758,4.079-12.088,4.445c-4.396,0.467-6.344,2.831-5.844,7.094
	c0.333,2.431,0.766,4.329,1.299,5.694c0.666,1.831,1.615,3.13,2.847,3.896c1.499,0.933,4.829,2.132,9.99,3.597
	c5.528,1.665,9.491,2.498,11.889,2.498c5.828,0,15.751-1.865,29.771-5.595c12.821-3.43,21.246-6.11,25.275-8.042
	c2.265-1.166,3.713-2.598,4.346-4.296c0.6-1.565,0.6-3.729,0-6.494c-2.431-10.323-4.812-21.828-7.143-34.516
	c-2.997-16.518-4.262-26.874-3.796-31.07c0.999-9.457,3.063-18.898,6.194-28.322c3.139-9.477,6.627-16.618,10.463-21.438
	c4.591,0.327,8.896,0.145,12.924-0.528c2.457,6.358,6.508,13.327,12.178,20.918c6.341,8.529,10.892,19.138,13.664,31.812
	c-1.076,5.926-2.71,12.679-4.922,20.288c-3.002,10.328-5.801,17.247-8.398,20.78l-6.038,1.447c-2.165,0.367-3.646,1.799-4.445,4.296
	c-0.666,2.198-0.683,4.596-0.05,7.193c0.766,3.33,3.447,5.694,8.042,7.093c3.629,1.077,7.85,1.463,12.645,1.176
	c-1.845,6.096-2.894,10.942-3.149,14.543c-1.802,0.55-3.235,1.503-4.25,2.913c-1.199,1.698-1.715,3.746-1.548,6.145
	c0.266,3.996,1.199,6.776,2.797,8.342c1.865,1.798,5.461,3.03,10.79,3.696c10.79,1.299,19.731,1.481,26.824,0.55
	c5.562-0.767,12.172-2.165,19.831-4.196c8.658-2.265,13.437-4.096,14.336-5.495c1.964-2.964,0.499-13.653-4.396-32.068
	c-4.196-15.784-8.559-29.338-13.088-40.66c-1.275-3.176-2.476-7.012-3.603-11.482c0.819-3.518,1.255-7.353,1.255-11.545
	c-0.033-4.896-0.615-9.208-1.748-12.938c-1.365-4.662-1.166-11.871,0.6-21.629c1.821-9.828,4.571-17.976,8.228-24.487
	c0.505,0.096,1.01,0.193,1.513,0.312c4.491,1.053,8.239,2.865,11.261,5.417c2.25,6.729,6.648,12.9,13.216,18.509
	c8.625,7.359,14.369,15.701,17.232,25.025c2.265,7.293,2.848,15.686,1.748,25.176c-1.432,12.488-2.613,21.362-3.546,26.624
	c-1.508,8.609-3.208,14.424-5.101,17.457c-1.681,0.694-3.327,1.252-4.939,1.674c-3.797,0.999-5.479,3.53-5.045,7.593
	c0.266,2.331,1.031,4.829,2.297,7.493c1.499,2.931,3.047,4.695,4.646,5.295c2.164,0.832,5.444,1.465,9.84,1.897
	c4.496,0.434,8.209,0.45,11.139,0.051c4.563-0.566,12.488-2.814,23.777-6.744c12.021-4.096,18.498-7.109,19.432-9.041
	c0.398-0.866,0.383-2.83-0.051-5.895l-1.549-9.69c-0.766-4.795-1.947-13.553-3.546-26.274c-1.898-14.585-2.947-23.859-3.147-27.822
	c-0.266-5.361-1.248-10.174-2.947-14.436c-1.365-3.431-3.396-6.961-6.094-10.59c-3.796-4.962-6.293-9.99-7.492-15.086
	c-1.133-4.994-1.299-11.256-0.5-18.781c0.566-5.661,0.916-13.504,1.049-23.527c0.02-2.21,0.023-4.31,0.014-6.31
	c1.948-0.235,4.054-0.609,6.33-1.133c2.897-0.633,5.328-1.332,7.293-2.099c1.432-0.565,2.215-1.198,2.348-1.897
	c0.167-0.699-0.383-1.548-1.648-2.548c-2.363-1.831-4.662-3.297-6.893-4.396c7.692-2.298,14.402-4.629,20.13-6.993
	c1.399-0.566,2.132-1.148,2.198-1.748c0.033-0.633-0.649-1.532-2.049-2.697c-5.295-4.496-12.354-8.941-21.179-13.338
	c3.03-5.294,8.175-13.686,15.435-25.175C296.293,230.761,301.555,222.652,305.352,217.058z"/>
</svg>
