<?xml version="1.0" encoding="utf-8"?>
<!-- Generator: Adobe Illustrator 16.0.0, SVG Export Plug-In . SVG Version: 6.00 Build 0)  -->
<!DOCTYPE svg PUBLIC "-//W3C//DTD SVG 1.1//EN" "http://www.w3.org/Graphics/SVG/1.1/DTD/svg11.dtd">
<svg version="1.1" id="图层_1" xmlns="http://www.w3.org/2000/svg" xmlns:xlink="http://www.w3.org/1999/xlink" x="0px" y="0px"
	 width="486px" height="455px" viewBox="0 0 486 455" enable-background="new 0 0 486 455" xml:space="preserve">
<path d="M483.9,353.634c-0.256-2.526-1.109-4.395-2.551-5.614c-0.617-10.946-1.874-22.24-3.774-33.882
	c0.475-0.213,0.838-0.469,1.079-0.774c0.433-0.6,0.616-1.683,0.55-3.248c-0.233-5.43-1.582-12.142-4.047-20.136
	c-0.592-1.859-1.616-3.057-3.066-3.603c-3.1-12.988-6.589-24.338-10.475-34.02c-1.765-4.465-2.664-9.244-2.697-14.34
	c0-3.299,0.433-7.745,1.299-13.341c2.031-12.524,3.514-24.899,4.446-37.124c1.366-17.321,1.216-30.678-0.449-40.071
	c-1.233-6.816-7.383-17.961-18.42-33.41c3.086-4.482,5.787-8.625,8.077-12.408c0.933-1.499,1.449-2.731,1.549-3.697
	c0.101-0.933-0.166-2.082-0.799-3.447c-0.181-0.403-0.4-0.84-0.638-1.292c1.4-3.787,2.712-8.286,3.935-13.497
	c1.399-5.563,2.249-10.042,2.549-13.44c0.232-2.864,0.033-4.696-0.6-5.496c-0.7-0.767-2.349-0.899-4.946-0.4
	c-6.463,1.166-14.107,2.964-22.934,5.396c-9.229,2.522-17.119,5.017-23.706,7.482c-6.363-4.92-12.152-8.218-17.364-9.88
	c-5.33-1.665-12.524-3.098-21.585-4.297c-6.725-0.86-13.892-1.511-21.485-1.959c-3.197-7.33-7.336-15.976-12.44-25.97
	c-6.295-12.458-11.475-21.685-15.538-27.68c-1.166-1.798-2.632-2.898-4.397-3.297c-1.998-0.367-4.197,0.167-6.595,1.599
	c-6.195,3.598-17.671,13.241-34.426,28.929c-2.278,2.136-4.481,4.224-6.623,6.272c-23.765-4.633-43.45-6.795-59.029-6.472
	c-11.878,0.233-21.978,1.861-30.327,4.863c-7.535-4.175-16.042-8.311-25.533-12.408c-10.692-4.563-19.786-7.861-27.28-9.893
	c-5.463-1.433-9.36-1.333-11.692,0.3c-2.298,1.565-3.331,4.796-3.098,9.693c0.5,12.258,2.298,26.764,5.396,43.519
	c0.562,3.03,1.142,5.96,1.736,8.81c-2.281,1.956-4.854,4.508-7.731,7.678c-3.442,3.798-6.73,7.82-9.882,12.042
	c-2.551-2.522-5.167-5.232-7.855-8.145C80.874,74.318,70.582,61.061,61.655,47.205c-1.466-2.298-3.048-3.397-4.747-3.298
	c-1.599,0.1-3.115,1.299-4.547,3.598C45.3,59.129,38.305,73.935,31.376,91.922c-0.547,1.406-1.064,2.759-1.567,4.088
	c-3.851-2.905-7.932-5.466-12.272-7.636c-3.731-1.766-6.496-1.266-8.294,1.499c-3.797,5.696-6.595,10.959-8.394,15.789
	c-1.433,3.598-1.133,6.979,0.899,10.143c2.432,3.831,6.729,9.126,12.891,15.888c4.662,5.067,9.159,9.64,13.493,13.725
	c1.554,2.689,3.367,5.574,5.443,8.66c2.762,4.16,5.798,8.376,9.078,12.643c-0.402-0.071-0.798-0.084-1.184-0.002
	c-0.933,0.2-1.699,0.866-2.298,1.999c-1.299,2.765-2.598,6.329-3.897,10.692c-1.032,3.564-0.433,6.795,1.799,9.693
	c3.131,4.23,8.127,10.026,14.989,17.387c6.583,6.958,11.457,11.679,14.621,14.166c0.859,10.875,1.432,24.868,1.717,41.994
	c0.133,7.128-0.883,16.321-3.048,27.58c-1.839,9.798-4.192,19.223-7.028,28.296l-3.465-0.366c-1.532-0.2-2.714-0.083-3.547,0.351
	c-0.899,0.466-1.565,1.281-1.999,2.447c-4.13,11.426-6.862,20.203-8.194,26.332c-0.633,2.83,0.399,4.496,3.098,4.996l1.595,0.163
	c-3.202,7.792-6.723,15.557-10.548,23.297c-0.928,0.329-1.843,0.667-2.738,1.022c-1.965,0.732-3.813,2.314-5.546,4.746
	c-1.565,2.198-3.181,4.98-4.846,8.344c-2.032,4.131-3.115,7.295-3.248,9.493c-0.167,1.832,0.3,3.015,1.399,3.548
	c0.347,0.185,0.733,0.26,1.15,0.246c-1.005,3.055-1.396,6.351-1.15,9.896c0.299,4.396,1.449,7.744,3.447,10.043
	c3.598,3.997,8.011,7.827,13.241,11.491c6.295,4.431,11.675,6.962,16.138,7.595c5.263,0.732,12.974,0.699,23.133-0.1
	c10.126-0.767,18.204-1.966,24.232-3.598c8.028-2.132,15.755-5.579,23.184-10.343c7.37-4.706,12.375-9.442,15.024-14.207
	c0.908,0.601,1.796,0.712,2.663,0.317c1.066-0.5,1.649-1.716,1.749-3.647l0.15-18.886c0-2.432-0.966-4.23-2.898-5.396
	c-0.104-0.064-0.225-0.13-0.332-0.194c0.089-9.317,0.894-18.949,2.418-28.9c1.188-0.037,2.133-0.292,2.81-0.784
	c0.732-0.533,1.299-1.465,1.699-2.798c2.564-8.228,4.463-16.022,5.696-23.384c0.233-1.398-0.017-2.498-0.75-3.297
	c-0.513-0.602-1.262-0.968-2.208-1.138l7.486-30.67c3.68,2.125,7.551,4.112,11.659,5.927c8.965,3.96,18.369,6.95,28.205,8.988
	c-1.137,3.134-2.294,7.058-3.473,11.796c-0.267,1.366-0.117,2.415,0.45,3.147c0.566,0.666,1.432,0.967,2.598,0.9l1.149-0.039
	c-0.768,1.552-1.666,3.572-2.698,6.084l-3.228,7.546c-0.436,0.081-0.861,0.163-1.269,0.249c-1.632,0.299-3.265,1.498-4.896,3.598
	c-3.398,4.629-5.979,9.143-7.745,13.539c-0.589,1.459-0.592,2.535-0.023,3.237c-2.27,2.45-3.67,5.232-4.173,8.354
	c-0.667,4.197,0.516,7.845,3.547,10.942c2.931,2.965,5.879,5.463,8.844,7.495c3.464,2.298,6.345,3.564,8.644,3.797
	c8.76,0.966,19.969,0.117,33.626-2.549c14.65-2.855,25.565-6.825,32.754-11.908c0.256,0.1,0.5,0.179,0.722,0.217l2.798-0.6
	c2.564-1.032,5.163-2.281,7.795-3.746c2.897-1.6,5.029-3.016,6.395-4.248c1.434-1.166,2.1-2.781,1.999-4.846
	c-0.134-4.396-0.333-7.312-0.6-8.744c-0.252-1.481-0.882-2.404-1.88-2.782c0.134-9.434-0.18-18.124-0.939-26.071l0.721-0.025
	c1.166-0.1,2.016-0.4,2.549-0.899c0.566-0.5,0.966-1.266,1.199-2.298c1.371-5.401,2.296-10.897,2.823-16.478
	c1.945-0.525,3.882-1.076,5.809-1.654c-0.345,5.16-0.671,11.253-0.979,18.28c-0.335,0-0.678,0.001-1.008,0.001
	c-3.297,0-4.879,1.415-4.746,4.247v23.832c0,3.265,1.482,4.863,4.447,4.797c0.147-0.002,0.285-0.004,0.432-0.006
	c-0.204,12.843-0.254,23.676-0.152,32.516c-1.183,0.795-2.263,1.567-3.229,2.315c-2.197,1.665-3.33,3.764-3.396,6.296
	c-0.434,18.753,0.499,29.312,2.797,31.677c0.616,0.638,1.254,0.971,1.913,1.014c3.038,6.165,11.707,11.923,26.018,17.273
	c14.556,5.362,27.197,7.744,37.923,7.145c11.925-0.633,23.217-4.33,33.875-11.092c10.337-6.533,16.113-13.703,17.355-21.507
	c0.479,0.151,0.973,0.164,1.481,0.022c1.433-0.4,2.099-1.633,1.998-3.697c-0.267-6.796-2.198-14.757-5.796-23.884
	c-0.688-1.777-1.704-3.335-3.03-4.683c-0.575-1.119-1.135-2.301-1.677-3.548c4.806,2.937,10.251,5.566,16.349,7.881
	c6.496,2.398,11.709,3.748,15.64,4.048c8.427,0.633,18.819-1.882,31.177-7.545c10.784-4.942,17.799-9.513,21.067-13.714
	c0.397,0.165,0.803,0.21,1.217,0.123c2.731-0.332,4.131-1.865,4.197-4.596C484.6,367.041,484.434,361.162,483.9,353.634z
	 M383.023,289.529c0.169-3.775,0.399-7.269,0.689-10.498c2.331,2.066,3.974,3.656,4.906,4.753c0.271,0.314,0.509,0.638,0.747,0.961
	c-1.046,1.065-1.646,2.842-1.796,5.335c-0.101,1.965-0.117,5.929-0.051,11.891l0.051,12.691c0,2.864,1.582,4.23,4.746,4.097
	c0.057-0.001,0.11-0.001,0.166-0.001c-0.096,3.707-0.23,7.172-0.405,10.393c-0.078-1.53-0.164-3.123-0.261-4.795
	c-0.1-1.566-0.549-2.699-1.349-3.398c-0.732-0.633-1.898-0.933-3.497-0.898l-3.858,0.127
	C382.585,309.846,382.545,299.625,383.023,289.529z"/>
</svg>
