<?xml version="1.0" encoding="utf-8"?>
<!-- Generator: Adobe Illustrator 16.0.0, SVG Export Plug-In . SVG Version: 6.00 Build 0)  -->
<!DOCTYPE svg PUBLIC "-//W3C//DTD SVG 1.1//EN" "http://www.w3.org/Graphics/SVG/1.1/DTD/svg11.dtd">
<svg version="1.1" id="图层_1" xmlns="http://www.w3.org/2000/svg" xmlns:xlink="http://www.w3.org/1999/xlink" x="0px" y="0px"
	 width="322px" height="395px" viewBox="0 0 322 395" enable-background="new 0 0 322 395" xml:space="preserve">
<path d="M317.619,229.488c-1.032-1.266-2.497-2.432-4.396-3.496c-2.063-1.165-3.763-1.648-5.095-1.448l-2.197,0.351
	c-5.859,1.099-8.988,1.299-9.39,0.6c-0.101-0.232-0.149-0.566-0.149-0.999c0-1.065,0.334-2.297,1-3.695
	c0.766-1.599,1.765-2.979,2.996-4.146l1.256,0.156l0.491,2.392c0.233,1.331,0.55,2.063,0.949,2.196
	c0.467,0.168,1.397-0.215,2.797-1.147c1.531-0.999,2.797-2.414,3.796-4.245c0.58-1.021,0.923-1.926,1.083-2.74
	c0.627-0.94,1.025-2.066,1.164-3.401c0.366-2.864-0.315-5.462-2.048-7.791c-1.298-1.8-2.863-3.113-4.693-3.946
	c-1.731-0.799-4.18-0.949-7.343-0.449c-3.661,0.532-6.043,1.814-7.142,3.845l-2.497,4.945c-0.832,1.631-2.063,3.379-3.695,5.243
	c-1.466,1.697-2.997,3.181-4.596,4.444l-1.498,1.049c-0.565,0.2-1.115-0.05-1.647-0.749c-0.601-0.767-0.898-1.965-0.898-3.597
	l0.1-2.896c0-1.397-0.633-2.598-1.898-3.596c-0.705-0.529-1.563-0.963-2.555-1.312l0.707-3.535c0.4-2.264-0.449-3.028-2.547-2.297
	c-2.597,0.899-5.193,2.797-7.791,5.693c-2.297,2.564-3.611,4.645-3.945,6.243c-0.068,0.312-0.096,0.601-0.086,0.872
	c-0.1,0.311-0.178,0.632-0.213,0.977c-0.066,0.832,0.032,1.965,0.299,3.396c0.199,1.165,0.832,2.496,1.898,3.994
	c0.932,1.267,2.014,2.465,3.246,3.597c0.332,0.334,0.648,1.082,0.947,2.248l0.451,2.696c-1.565,1.133-4.412,2.48-8.541,4.046
	c-3.902,1.411-6.823,2.485-8.795,3.229c-0.92-1.226-1.851-2.786-2.791-4.728l-1.817-4.417c0.303-2.095,0.384-4.248,0.219-6.472
	l2.397,5.895c0.299,0.865,0.582,1.332,0.849,1.398c0.3,0.032,0.499-0.483,0.599-1.549c0.76-7.199-1.065-14.353-5.457-21.461
	c0.487-5.503,0.578-9.748,0.264-12.701c-0.299-3.196-1.131-5.593-2.496-7.191c-2.031-2.397-5.645-4.195-10.838-5.394
	c-5.084-1.181-12.18-1.907-21.268-2.183c1.691-1.138,5.064-2.624,10.129-4.459l6.344-2.347c1.765-0.766,2.73-1.498,2.896-2.197
	c0.499-1.965-0.898-5.977-4.195-12.037c-1.73-3.263-4.729-8.241-8.99-14.933l8.342-28.417c2.797-9.656,4.013-14.633,3.646-14.933
	c-2.064-1.598-12.453,5.394-31.164,20.976c-2.931-1.298-5.943-2.23-9.039-2.796c-5.729-1.065-11.222-0.883-16.482,0.549
	c-17.247-9.956-29.616-16.914-37.107-20.876c-12.619-6.625-19.395-9.256-20.327-7.891c-0.799,1.099,1.731,7.924,7.591,20.477
	c6.393,13.718,12.936,25.438,19.627,35.16c-1.105,2.126-2.08,4.209-2.973,6.265l-0.772-0.172l-2.997-0.899
	c-4.761-1.964-8.607-3.346-11.537-4.146c-4.495-1.232-7.758-1.432-9.789-0.599l-1.327,0.586c-1.872-2.567-3.095-4.412-3.667-5.531
	l-1.398-3.546c-0.992-2.947-2.163-4.975-3.509-6.103c0.415-0.964,0.705-2.057,0.862-3.287c0.266-1.964,0.167-5.061-0.3-9.289
	l-0.2-1.898c-0.266-2.664,0.466-7.342,2.197-14.034c1.665-6.259,3.296-11.054,4.895-14.384l2.098-4.045l2.747-5.843
	c0.428-1.134,0.634-2.123,0.664-2.996l1.534-0.25c1.931-0.599,3.413-1.648,4.445-3.146l3.296-4.794
	c2.664-3.396,5.194-5.61,7.591-6.643c1.199-0.5,4.861-1.232,10.988-2.197c5.86-0.933,9.089-1.582,9.689-1.948
	c1.119-0.661,1.94-1.843,2.466-3.543c6.167-2.049,9.796-3.433,10.869-4.148c0.933-0.633,1.382-1.115,1.349-1.448
	c-0.065-0.3-0.683-0.699-1.849-1.199c-1.465-0.633-3.961-1.365-7.491-2.197l-4.158-0.873c-0.14-0.264-0.282-0.526-0.437-0.775
	c-0.932-1.532-3.013-2.314-6.243-2.347c-1.339-0.015-2.572,0.088-3.72,0.286c4.2-1.712,7.445-2.894,9.713-3.533
	c1.798-0.499,3.563-0.499,5.294,0l4.645,1.798c2.931,1.032,5.693,1.632,8.29,1.798c3.729,0.233,7.691-0.3,11.887-1.598
	c8.024-2.531,14.418-6.06,19.178-10.588c3.298-3.196,5.461-6.426,6.494-9.689c1.164-3.763,0.715-6.942-1.35-9.54
	C201.885,2.53,195.492,0.133,186.369,0c-8.457-0.1-16.115,1.582-22.975,5.044c-3.43,1.731-6.359,4.262-8.791,7.591
	c-1.199,1.665-2.397,3.796-3.596,6.393l-1.398,3.896c-0.599,1.565-1.398,2.664-2.397,3.296c-1.032,0.666-3.296,1.682-6.792,3.047
	l-12.092,4.675c-0.912-1.152-2.193-2.52-3.89-4.125c-3.196-3.03-5.743-5.127-7.641-6.293c-1.898-1.132-4.495-1.148-7.791-0.05
	c-1.998,0.666-3.846,1.548-5.544,2.647c-1.265,0.799-2.281,2.447-3.046,4.944l-1.398,6.043l0.122,0.25
	c-1.539-2.702-2.996-4.679-4.367-5.893c-2.098-1.897-4.745-2.431-7.941-1.598c-2.231,0.566-4.645,1.781-7.242,3.646
	c-1.465,1.032-2.797,4.611-3.996,10.738c-0.527,2.855-0.928,5.598-1.224,8.25l-8.066,2.038c-3.363,0.966-5.993,2.015-7.891,3.146
	c-1.631,0.999-2.997,2.614-4.095,4.844c-0.999,2.064-1.498,4.063-1.498,5.993c0,0.933,0.183,1.848,0.549,2.747
	c1.165,2.664,3.846,3.33,8.041,1.998c1.897-0.587,6.586-2.536,14.048-5.836c0.553,3.049,1.613,5.518,3.197,7.391l-4.559,27.262
	c-0.766,5.993-0.916,11.62-0.449,16.881c0.599,6.359,2.064,11.271,4.395,14.733c0.673,0.985,1.401,1.786,2.171,2.442
	c-0.216,1.473,0.251,2.956,1.425,4.45c1.166,1.465,3.28,3.196,6.343,5.194l1.648,1.249c1.897,1.465,3.862,3.479,5.893,6.043
	c0.013,0.016,0.024,0.033,0.037,0.049c-4.036,3.758-5.992,7.189-5.83,10.29c0.3,5.793,2.064,12.652,5.294,20.577
	c1.704,4.204,3.528,7.659,5.47,10.389c-10.932-4.091-22.925-3.946-35.985,0.449c-14.816,4.961-25.654,13.834-32.513,26.619
	c-5.627,10.488-8.374,21.326-8.24,32.514c0.1,9.988,2.43,19.111,6.992,27.368c-2.464,1.332-5.86,1.632-10.188,0.899
	c-5.061-0.865-9.505-3.015-13.334-6.443c-2.997-2.663-4.728-3.995-5.194-3.995c-0.632,0-1.165,1.632-1.598,4.896
	c-1.498,11.354,1.032,21.31,7.591,29.865c6.959,9.057,16.432,13.617,28.418,13.684c9.922,0.033,18.529-1.631,25.82-4.993
	c6.759-3.13,11.937-7.491,15.532-13.084c4.251,4.187,8.991,8.104,14.193,11.771c-0.23,1.01-0.359,2.029-0.359,3.062l0.05,1.049
	l0.899,11.338l0.6,8.34c-2.331-2.03-4.711-3.813-7.142-5.344c-3.529-2.265-6.409-3.444-8.64-3.546l-6.742,0.6
	c-2.919,0.584-5.333,1.494-7.288,2.701c-1.699,0.014-3.351,0.348-4.949,1.044c-2.164,0.899-4.212,2.466-6.143,4.695
	c-2.63,2.963-4.162,6.358-4.595,10.188c-0.2,1.965,0.067,3.098,0.799,3.396c0.699,0.267,2.281-0.101,4.745-1.099
	c1.929-0.785,3.773-1.403,5.54-1.871c0.095,0.705,0.343,1.643,0.753,2.82c0.766,2.196,1.748,3.445,2.946,3.744l9.639,2.697
	c-2.764,1.299-7.208,1.598-13.335,0.898l-5.543-0.748c-2.797-0.301-5.211-0.283-7.242,0.049c-5.75,0.99-9.18,4.609-10.301,10.841
	c-1.623,1.321-2.987,2.883-4.083,4.692c-1.665,2.797-2.581,5.977-2.747,9.539c-0.067,2.03,0.116,3.213,0.549,3.545
	c0.466,0.334,1.531-0.017,3.196-1.049c2.014-1.259,3.984-2.367,5.916-3.345c1.178,1.372,2.563,2.414,4.173,3.095
	c2.331,0.967,4.845,1.016,7.542,0.149c5.56-1.729,12.735-3.496,21.525-5.293c9.623-1.998,16.398-2.997,20.327-2.997l7.042-0.148
	c8.257-0.268,13.768,0.166,16.531,1.299c0.732,0.299,2.614,1.646,5.644,4.045c6.359,4.395,11.404,6.824,15.133,7.291
	c2.417,0.317,4.798,0.119,7.144-0.584l0.797,0.483c2.198,1.332,3.946,2.447,5.244,3.347c1.931,1.332,3.363,1.864,4.295,1.599
	c0.999-0.3,1.731-1.632,2.198-3.995c0.5-2.664,0.433-5.261-0.2-7.791c-0.356-1.4-0.881-2.723-1.539-3.98
	c0.25-1.035,0.39-2.146,0.39-3.36c0-1.698-0.366-3.214-1.099-4.545c-0.833-1.564-2.248-2.996-4.245-4.296
	c-3.163-1.965-8.84-4.562-17.031-7.791c-1.199-1.697-2.447-4.245-3.746-7.641c-1.232-3.164-2.081-5.943-2.547-8.342
	c-0.848-4.406,0.171-9.697,3.034-15.863c17.278,2.561,32.535,0.959,45.76-4.813c14.944-6.532,26.877-18.253,35.809-35.146
	c2.304,0.541,5.209,1.364,8.742,2.483c5.293,1.665,9.123,3.063,11.485,4.194l1.666,0.05c-0.551,0.753-1.007,2.397-1.366,4.944
	c-0.199,1.666-1.016,3.713-2.447,6.145c-0.631,1.098-0.947,2.563-0.947,4.395c0,0.799,0.299,1.683,0.898,2.646l1.998,2.997
	c0.731,1.231,1.098,2.497,1.098,3.796c0,2.896-1.848,5.943-5.543,9.139c-0.666,0.367-1.615,0.6-2.848,0.699l-3.596,0.051
	c-4.495-0.066-7.259,0.467-8.291,1.598c-1.064,1.166-1.896,2.414-2.497,3.746c-0.06,0.138-0.091,0.263-0.142,0.396
	c-2.729,1.696-4.814,3.263-6.252,4.699c-2.764,2.764-2.28,4.245,1.449,4.444h7.426c0.793,0.961,1.681,1.633,2.662,1.998
	c2.031,0.799,5.244,0.815,9.64,0.051c4.86-0.866,9.14-1.282,12.836-1.25l10.985,1.05c4.362,0.731,7.826,1.498,10.39,2.298
	c3.662,1.165,6.075,2.529,7.241,4.096l1.148,1.647c4.896,6.987,10.43,8.493,16.602,4.55c0.637,0.311,1.289,0.635,1.978,0.994
	l5.595,3.347c1.332,0.966,2.197,1.248,2.598,0.849c0.267-0.299,0.316-1.215,0.15-2.746c-0.435-2.996-1.3-5.693-2.599-8.092
	c-0.244-0.453-0.495-0.865-0.75-1.259l5.045,0.16c0.665-0.344,1.243-0.785,1.781-1.271c2.26,0.734,4.528,1.613,6.81,2.668
	c1.698,0.767,2.746,1.033,3.146,0.8c0.533-0.333,0.333-1.599-0.6-3.796c-1.032-2.797-2.247-5.127-3.646-6.991
	c-1.477-1.968-2.993-3.158-4.555-3.593c-1.617-1.875-3.808-3.51-6.584-4.897c-2.03-1.032-5.027-2.348-8.988-3.944
	c-4.063-1.666-6.811-2.697-8.241-3.099l-5.644-0.599l-5.943,0.3l-6.343,0.299l-1.748-0.149l-2.597-0.299
	c0.033-0.601,0.299-1.449,0.799-2.548c0.966-2.196,2.58-4.61,4.845-7.241c3.296-3.929,5.243-6.543,5.843-7.842
	c0.4-0.898,0.6-2.146,0.6-3.744l-0.25-1.55l-0.25-1.548l-0.1-2.098c0-1,0.135-1.782,0.4-2.348l1.098-1.949
	c1.898-3.428,2.848-5.977,2.848-7.641c0-0.633-0.184-1.215-0.55-1.748c-0.766-0.932-2.464-2.229-5.095-3.896
	c-2.529-1.632-4.244-2.548-5.145-2.747c-1.227-0.307-2.57,0.029-4.031,0.998c-0.315-1.105-0.996-1.86-2.062-2.246
	c-1.432-0.467-3.297-1.6-5.594-3.396c-2.364-1.832-4.896-4.111-7.592-6.842c-5.693-5.895-10.755-9.988-15.183-12.287
	c-3.088-1.59-6.248-2.426-9.479-2.525c-0.166-1.816-0.358-3.625-0.608-5.414c-0.268-1.852-0.837-3.482-1.677-4.918
	c1.22-1.565,4.063-4.625,8.567-9.217l2.219-2.345c7.891,4.382,12.549,8.875,13.964,13.481l0.53,1.432
	c-0.247,1.508-0.16,3.078,0.269,4.712c0.601,2.397,1.665,4.245,3.197,5.544c1.563,1.299,3.396,1.814,5.493,1.549
	c2.396-0.334,6.709-1.633,12.936-3.896c8.758-3.296,15.149-4.479,19.178-3.546c2.365,2.431,6.045,3.013,11.039,1.748
	c3.86-0.966,6.94-2.382,9.238-4.245c0.699-0.533,1.48-1.531,2.348-2.996c0.533-0.967,0.981-1.615,1.349-1.948
	c0.466-0.433,1.065-0.649,1.798-0.649c0.625,1.877,1.994,3.396,4.088,4.566l0.157,1.627l0.15,5.644
	c-0.102,1.397,0.065,2.198,0.499,2.397c0.433,0.199,1.299-0.101,2.598-0.898c3.729-2.299,5.843-4.68,6.343-7.143
	c0.011-0.05,0.014-0.096,0.023-0.145c1.427-1.809,2.318-4.785,2.673-8.945C319.8,234.865,319.218,231.486,317.619,229.488z
	 M234.161,293.66l-0.242,0.152l-0.994-0.188L234.161,293.66z M223.975,231.029c-0.091-0.053-0.188-0.105-0.281-0.158l0.459,0.023
	L223.975,231.029z"/>
</svg>
