<?xml version="1.0" encoding="utf-8"?>
<!-- Generator: Adobe Illustrator 16.0.0, SVG Export Plug-In . SVG Version: 6.00 Build 0)  -->
<!DOCTYPE svg PUBLIC "-//W3C//DTD SVG 1.1//EN" "http://www.w3.org/Graphics/SVG/1.1/DTD/svg11.dtd">
<svg version="1.1" id="图层_1" xmlns="http://www.w3.org/2000/svg" xmlns:xlink="http://www.w3.org/1999/xlink" x="0px" y="0px"
	 width="308px" height="442px" viewBox="0 0 308 442" enable-background="new 0 0 308 442" xml:space="preserve">
<path d="M306.6,10.855c-0.701-3.803-3.104-6.688-7.206-8.657c-4.204-2.002-9.324-2.636-15.362-1.902
	c-7.406,0.901-12.794,2.953-16.164,6.155c-2.701,2.602-3.836,5.538-3.402,8.807c0.237,1.635,1.006,3.038,2.286,4.218
	c-5.813,2.428-13.961,4.941-24.454,7.542c-10.129,2.553-17.81,3.98-23.064,4.291c-5.051-3.826-10.769-5.803-17.168-5.892
	c-5.004-0.033-9.791,1.018-14.361,3.152c-4.037,1.918-7.381,4.467-10.041,7.638c-6.842,0.449-15.269,0.488-25.288,0.118
	c-13.445-0.499-23.519-1.509-30.226-3.029c0.069-4.27-2.381-7.881-7.355-10.832c-5.337-3.136-12.343-4.704-21.017-4.704
	c-8.073,0-14.528,1.368-19.366,4.104c-5.004,2.835-7.489,6.722-7.456,11.659c0.034,7.506,6.239,13.728,18.615,18.665
	c6.772,2.669,18.582,5.722,35.429,9.158c4.831,0.996,10.084,2.25,15.731,3.745c12.466,7.847,23.938,17.938,34.409,30.283
	c10.609,12.51,16.431,22.752,17.465,30.725c0.358,2.912,0.59,6.056,0.707,9.405c-9.046-10.268-19.254-18.778-30.631-25.518
	c-16.247-9.642-33.694-14.962-52.343-15.963c-2.603-0.167-3.903,0.067-3.903,0.701c0,0.667,1.201,1.535,3.603,2.602
	c5.404,2.402,10.942,6.021,16.613,10.859c4.404,3.703,9.208,8.423,14.412,14.162c7.74,8.574,16.414,15.646,26.021,21.217
	c7.465,4.313,16.051,8.028,25.733,11.162c-0.827,9.262-2.514,15.722-5.065,19.363c-3.57,5.237-12.327,8.607-26.271,10.108
	c-12.777,1.401-22.102,0.884-27.973-1.551c-4.937-2.035-10.058-5.154-15.362-9.357c-5.038-4.003-9.091-8.073-12.16-12.21
	c-0.467-0.634-0.868-0.851-1.201-0.65c-0.333,0.167-0.534,0.65-0.601,1.451c-0.818,5.509-1.02,11.229-0.62,17.155
	c-4.094-2.515-8.322-5.474-12.69-8.899c-7.74-5.971-13.178-11.359-16.313-16.163c-0.701-1.067-1.284-1.518-1.751-1.351
	c-0.5,0.134-0.717,0.934-0.65,2.402c0,8.748,1.473,17.179,4.381,25.303c-1.929-1.239-3.883-2.535-5.883-3.936
	c-11.142-7.773-19.215-15.313-24.219-22.619c-1.668-2.468-2.903-3.72-3.703-3.753c-0.834-0.033-1.101,1.368-0.801,4.204
	c0.967,7.906,3.403,15.996,7.306,24.27c2.101,4.42,4.444,8.453,7.027,12.102c-9.045,4.268-18.742,11.555-29.095,21.875
	C11.96,223.611,4.337,234.053,0.301,243.795c-0.5,1.134-0.484,1.768,0.05,1.9c0.467,0.101,1.034-0.149,1.702-0.75
	c8.494-7.853,19.092-13.421,31.771-16.73c-0.474,4.959-0.588,9.632-0.296,13.979c0.4,5.271,1.452,11.275,3.153,18.014
	c1.735,7.006,2.735,14.111,3.002,21.318c0.233,6.538-0.133,10.959-1.101,13.26c-0.196,0.446-0.364,0.872-0.549,1.31
	c-1.808-0.977-4.17-1.864-7.107-2.66c-1.301-0.367-2.185-0.3-2.652,0.2c-0.163,0.163-0.241,0.401-0.277,0.677l-0.023-0.026
	c0,0.07,0,0.137,0,0.207c-0.001,0.059-0.003,0.117,0,0.181c-0.025,3.921,0.057,7.582,0.25,10.972c0.2,2.834,0.466,5.118,0.797,6.878
	c0.379,11.403,2.429,27.5,6.158,48.317c4.637,25.987,9.608,43.135,14.912,51.441c1.134,1.801,3.653,4.403,7.556,7.806
	c4.003,3.503,7.006,5.655,9.007,6.456c3.336,1.468,4.871,0.75,4.604-2.152c-0.3-4.604-1.852-13.678-4.654-27.222
	c-0.905-4.375-1.731-8.211-2.479-11.524c-0.531-7.768-0.739-17.883-0.623-30.359c0.148-15.702,0.714-27.284,1.697-34.76
	c0.641-1.037,1.4-2.093,2.307-3.172c9.341-11.509,17.047-24.336,23.119-38.48c2.622-6.038,4.656-11.627,6.114-16.776
	c4.644,0.676,10.159,2.314,16.555,4.927c1.87,8.152,3.307,16.885,4.303,26.211c0.335,3.195,0.563,6.061,0.691,8.615
	c-0.542-0.321-1.155-0.654-1.892-1.01c-1.768-0.867-3.069-1.351-3.903-1.451c-0.867-0.033-1.468,0.301-1.801,1.002
	c-0.367,0.834-0.451,2.252-0.25,4.253c4.414,49.084,9.4,81.614,14.959,97.594c-0.344,3.084-0.485,6.277-0.397,9.594
	c0.2,7.272,1.334,12.96,3.403,17.063c0.767,1.567,1.785,2.269,3.052,2.102c1.268-0.2,2.252-1.284,2.953-3.253
	c0.74-2.211,1.951-4.987,3.609-8.3c1.612,1.328,3.081,2.284,4.397,2.846l4.354,0.1c0.834-0.867,0.934-2.535,0.3-5.004
	c-0.876-3.135-1.621-6.578-2.237-10.327c3.471-5.911,7.728-12.769,12.796-20.598c14.919-22.964,23.77-36.752,26.561-41.376
	c2.296-3.033,3.578-6.006,3.813-8.915c0.032-0.308,0.024-0.56-0.001-0.786c3.276-6.614,4.791-15.095,4.505-25.484
	c-0.155-7.643-1.18-15.82-3.053-24.521c3.306-0.183,6.571-0.519,9.801-1.001c1.127,5.394,1.799,11.429,2.009,18.116
	c0.301,7.605-0.084,13.928-1.15,18.965l-2.014,8.577l-3.291,0.28c-1.401,0.367-2.186,0.867-2.352,1.501
	c-0.167,0.901-0.15,2.786,0.05,5.655c0.168,2.601,0.419,4.643,0.75,6.142c-1.021,15.587-0.566,30.888,1.401,45.9
	c2.436,18.182,6.738,32.209,12.91,42.084c0.901,1.501,2.97,3.319,6.205,5.454c2.97,1.969,5.389,3.286,7.256,3.953l5.305-0.149
	c1.034-0.901,1.102-2.419,0.2-4.554c-3.569-8.474-5.588-22.318-6.055-41.534c-0.358-15.486,0.214-29.271,1.703-41.379
	c0.187-1.403,0.232-2.714,0.099-3.907c-0.147-1.369-0.514-2.409-1.09-3.133c2.469-9.037,6.146-20.06,11.047-33.098
	c4.171-11.075,7.439-21.917,9.809-32.525c0.786-3.477,1.419-6.695,1.905-9.671c3.321-2.548,6.606-5.627,9.854-9.245
	c4.003-4.437,6.371-7.99,7.105-10.658c0.268-1.102,0.301-1.818,0.1-2.152c-0.232-0.367-0.934-0.5-2.102-0.4
	c-1.135,0.127-2.23,0.342-3.291,0.632c0.42-0.552,0.836-1.109,1.24-1.683c4.137-5.938,6.621-11.977,7.455-18.114
	c0.168-1.435,0.033-2.302-0.4-2.603l-2.652,0.15c-1.615,0.467-3.16,1.145-4.651,1.986c0.273-0.537,0.542-1.081,0.799-1.636
	c2.169-4.671,3.403-9.124,3.703-13.361c0.101-1.635-0.05-2.703-0.45-3.203c-0.467-0.534-1.352-0.667-2.652-0.4
	c-1.734,0.367-3.854,1.134-6.355,2.302c-1.686,0.742-3.231,1.524-4.659,2.342c-2.632-5.955-6.414-12.772-11.354-20.457
	c-4.671-7.272-8.04-17.915-10.108-31.926c-0.375-2.588-0.675-5.164-0.932-7.731c9.217-5.828,18.368-15.707,27.453-29.649
	c8.174-12.543,14.361-25.17,18.565-37.881c0.501-1.501,0.483-2.318-0.05-2.452c-0.567-0.167-1.401,0.3-2.502,1.401
	c-1.869,1.868-3.87,3.603-6.006,5.204l-8.856,6.355c-5.839,4.037-11.376,9.09-16.614,15.162
	c-5.502,6.352-9.729,12.778-12.712,19.278c0.096-2.532,0.235-5.057,0.452-7.569c0.101-1.501,0.25-2.569,0.451-3.203
	c0.137-0.511,0.34-1.003,0.594-1.479c0.269-0.054,0.533-0.113,0.797-0.172c0.003,0,0.007,0,0.01,0
	c3.104-0.267,6.188-2.452,9.258-6.555c2.573-3.333,3.954-6.218,4.144-8.655c0.02-0.052,0.04-0.099,0.06-0.152
	c11.242-30.592,29.891-55.662,55.945-75.211c4.204-3.136,7.189-6.088,8.957-8.857C306.549,17.294,307.233,14.091,306.6,10.855z
	 M143.779,349.179c0.447-5.62,1.023-11.338,1.739-17.163l-0.107,0.232c0.39-2.23,0.34-3.989-0.148-5.281
	c2.021-5.047,3.864-10.184,5.51-15.418c1.664-5.499,2.833-10.167,3.52-14.021c2.766,5.709,4.798,10.484,6.088,14.322
	c0.051,0.165,0.088,0.319,0.131,0.479c-1.138,0.255-2.398,1.754-3.784,4.525c-1.51,3.112-2.4,5.85-2.686,8.222
	C151.383,330.789,147.961,338.828,143.779,349.179z"/>
</svg>
