<?xml version="1.0" encoding="utf-8"?>
<!-- Generator: Adobe Illustrator 16.0.0, SVG Export Plug-In . SVG Version: 6.00 Build 0)  -->
<!DOCTYPE svg PUBLIC "-//W3C//DTD SVG 1.1//EN" "http://www.w3.org/Graphics/SVG/1.1/DTD/svg11.dtd">
<svg version="1.1" id="图层_1" xmlns="http://www.w3.org/2000/svg" xmlns:xlink="http://www.w3.org/1999/xlink" x="0px" y="0px"
	 width="306px" height="439px" viewBox="0 0 306 439" enable-background="new 0 0 306 439" xml:space="preserve">
<path d="M299.988,146.033c-0.9-7.707-3.254-14.78-7.057-21.219c-11.91-20.185-19.535-32.08-22.871-35.683
	c-3.336-3.637-6.006-7.757-8.008-12.361c-1.066-2.536-4.203-6.639-9.408-12.311c-0.83-0.899-1.625-1.742-2.404-2.56
	c1.41-6.119,0.361-11.355-3.15-15.707c-3.527-4.317-8.16-6.235-13.892-5.761c1.308-4.777,1.452-9.796,0.43-15.059
	c-1.169-6.35-3.591-10.46-7.259-12.346c-0.784-7.224-3.417-11.553-7.905-12.977c-0.467-0.134-0.784-0.134-0.95,0
	c-0.168,0.133-0.217,0.45-0.149,0.951c1.067,6.673-0.685,13.512-5.255,20.519c-4.51,6.812-10.17,11.221-16.975,13.233
	c-1.23-3.81-3.396-7.12-6.498-9.93c-5.138-4.638-11.711-6.839-19.718-6.606c-5.772,0.167-10.894,1.918-15.364,5.255
	c-4.037,3.103-7.073,7.14-9.108,12.111c-2.002,4.871-2.686,9.826-2.052,14.864c0.544,4.782,2.213,8.925,4.982,12.444
	c-2.48,1.336-4.869,2.971-7.167,4.9c-3.022-1.897-6.5-3.808-10.476-5.734c-4.504-2.235-8.024-3.687-10.56-4.354
	c-0.901-0.267-1.185,0.05-0.851,0.951c1.268,3.503,3.02,7.39,5.255,11.661c0.181,0.339,0.364,0.666,0.546,1.001
	c-6.314-3.348-13.644-5.18-22.016-5.455c-8.622-0.226-17.573,1.226-26.847,4.32c0.267-0.587,0.544-1.114,0.833-1.575
	c0.777-0.305,1.542-0.698,2.292-1.194c1.751-1.141,2.837-2.421,3.28-3.836c0.513-0.288,0.992-0.604,1.442-0.943
	c0.422,1.663,1.197,2.712,2.334,3.128c1.334,0.501,2.619-0.033,3.854-1.601c0.834-1.168,2.636-2.386,5.405-3.653
	c2.536-1.201,5.038-2.052,7.507-2.552c3.47-0.768,5.271-2.77,5.405-6.006c0.121-2.883-1.083-5.696-3.584-8.441
	c0.96-0.952,1.891-2,2.783-3.169c1.635-2.135,2.602-3.954,2.902-5.455c0.3-1.468,0.267-2.736-0.1-3.803
	c-0.333-0.935-1.118-2.152-2.352-3.653c-3.537-4.17-7.073-7.106-10.609-8.808c-2.335-1.134-4.337-2.652-6.006-4.554
	c-1.201-1.401-2.702-2.102-4.504-2.102c-1.968-0.033-4.121,0.834-6.456,2.603c-2.902,2.168-7.29,6.256-13.162,12.261
	C59.552,33.9,55.615,38.821,54.714,41.59c-1.934,5.67-4.303,10.207-7.106,13.61c-4.538,5.605-9.058,12.962-13.563,22.07
	c-5.74,11.449-8.75,20.925-9.039,28.438c-8.285,10.37-14.577,21.853-18.836,34.469c-4.805,14.38-6.79,29.61-5.956,45.692
	c1.843,34.681,11.592,65.514,29.232,92.504c-0.91,3.465-2.509,7.656-4.81,12.591c-0.367,0.834-0.417,1.636-0.15,2.402
	c0.167,0.635,0.601,1.335,1.301,2.102c1.401,1.503,3.704,3.236,6.906,5.205c0.734,0.5,0.784,0.886,0.15,1.151
	c-2.703,0.968-4.788,2.085-6.256,3.353c-0.701,0.567-1.101,1.318-1.201,2.253c-0.067,0.733,0.05,1.436,0.35,2.103
	c0.935,2.034,1.869,4.62,2.803,7.757l1.852,7.207c0.267,1.201,0.868,2.035,1.802,2.502c0.5,0.268,1.285,0.434,2.352,0.5
	c0.734,0.066,1.101,0.818,1.101,2.252l-0.55,6.006c-0.134,1.168-0.017,2.035,0.35,2.604c0.334,0.566,1.018,1.066,2.052,1.5
	c1.368,0.603,2.286,1.77,2.753,3.505c0.167,0.768,1.034,1.434,2.602,2.002l4.805,1.399c1.968,0.568,3.954,2.219,5.955,4.955
	c0.801,1.002,2.169,1.353,4.104,1.051c1.968-0.334,3.586-1.185,4.854-2.553c3.636-3.97,5.889-6.154,6.756-6.556
	c0.734-0.3,1.568-0.218,2.502,0.251c0.867,0.5,1.351,1.051,1.451,1.65c0.067,0.367-0.066,1.936-0.4,4.705
	c-0.333,2.401-0.267,4.053,0.2,4.953c0.701,1.27,0.884,2.771,0.551,4.506c-0.2,1.201,0.183,2.117,1.151,2.752
	c0.834,0.5,1.952,0.701,3.353,0.601c1.535-0.067,2.302,0.801,2.302,2.603c0,1.168,0.217,2.119,0.65,2.854
	c0.5,0.867,1.185,1.301,2.052,1.301c1.068,0,1.818,0.719,2.252,2.152c0.467,1.4,3.57,3.152,9.308,5.255
	c5.238,1.901,8.691,2.836,10.359,2.803c0.834,0,2.87-2.401,6.106-7.207c3.336-4.971,5.572-7.674,6.706-8.106l6.306-0.15
	c2.803,0.566,4.354,1.52,4.654,2.854c0.801,3.336,1.985,6.223,3.553,8.658c1.602,2.502,3.236,3.953,4.904,4.354
	c1.401,0.3,2.77,1.352,4.104,3.152c0.767,1,1.935,1.518,3.503,1.551c1.535,0.033,3.02-0.416,4.454-1.352
	c0.901-0.566,2.085-0.816,3.553-0.751c1.333,0.066,2.669,0.384,4.003,0.951c2.535,1.269,5.688,1.201,9.459-0.2
	c1.502-0.533,3.137-1.919,4.904-4.152l3.652-5.105c0.291-0.391,0.563-0.748,0.824-1.086l4.832,3.738l6.355,4.104
	c1.334,0.734,2.803,1.118,4.403,1.152l6.705-0.901l6.058-1.651c3.235-1,5.12-1.551,5.653-1.651c1.603-0.267,2.651,0.067,3.153,1.002
	l2.252,2.651c1.134,1.067,2.103,1.818,2.902,2.252c0.801,0.468,1.9,0.668,3.303,0.601l3.754-0.5
	c1.335-0.267,2.318,0.033,2.951,0.899c1.136,1.437,2.236,2.537,3.305,3.305c0.602,0.434,0.584,1.268-0.051,2.503
	c-3.471,6.938-5.204,10.976-5.204,12.11c0,1.033,1.534,3.354,4.604,6.956c3.104,3.67,5.139,5.487,6.105,5.455
	c0.634-0.033,2.318-1.353,5.054-3.953l6.707-6.507c0.5-0.435,0.899-0.635,1.201-0.601c0.267,0,0.565,0.233,0.899,0.7
	c0.9,1.135,2.119,3.486,3.653,7.057c0.466,1.07,0.765,2.465,0.905,4.17c-2.189,1.846-3.684,3.378-4.459,4.588
	c-1.135,1.803-0.967,3.62,0.501,5.455l8.058,10.261c0.668,0.934,1.502,1.551,2.502,1.852c0.867,0.233,1.969,0.25,3.303,0.05
	l6.957-0.399c1.334,0.134,2.22-0.167,2.652-0.901c0.334-0.7,0.184-1.534-0.451-2.502c-0.5-0.733-0.801-1.568-0.899-2.502
	l-0.149-2.902c-0.033-1.102-0.635-1.769-1.802-2.002c-1.035-0.233-2.119-0.051-3.254,0.55c-0.479,0.299-1.01,0.496-1.589,0.599
	c0.029-2.95,0.222-5.966,0.589-9.056c0.267-2.603,0.584-4.737,0.95-6.405c0.232-1.135,0.867-1.651,1.9-1.553l2.854-0.35
	c0.667-0.434,1-1.269,1-2.503c0-0.967-0.333-2.368-1-4.203c-0.668-2.002-1.368-3.304-2.103-3.904
	c-0.733-0.699-1.803-0.982-3.203-0.851c-1.135,0.101-2.151,0.417-3.053,0.951l-1.352,0.2l-1.051-1.151
	c-0.969-1.568-1.818-3.736-2.553-6.506c-0.233-0.834-0.134-1.551,0.301-2.152c0.267-0.367,0.884-0.867,1.852-1.501
	c0.7-0.501,1.117-1.051,1.251-1.651c0.101-0.434,0.065-1.135-0.101-2.102c-0.101-0.602,0.201-1.785,0.9-3.554
	c0.534-1.167,1.117-3.438,1.752-6.806c0.7-3.771,0.817-5.922,0.351-6.457l-3.253-0.25l-6.256,0.7
	c-0.935,0.134-1.535-0.301-1.801-1.301l-1.752-4.806c-0.302-0.7-0.318-1.184-0.052-1.45c0.233-0.302,0.886-0.483,1.952-0.552
	l3.554-0.649c0.968-0.534,1.519-1.735,1.651-3.604c0.1-1.668,0.55-4.153,1.351-7.457c0.636-2.635,1.234-4.838,1.804-6.604
	c0.467-1.401,0.481-2.637,0.049-3.703c-0.367-0.969-1.117-1.936-2.252-2.903l2.005-5.346l4.852-0.259
	c2.503-0.033,4.438-0.701,5.806-2.002c1.302-1.201,2.27-3.17,2.902-5.906c0.867-3.469,2.354-6.756,4.454-9.858
	c1.769-2.568,3.62-4.521,5.556-5.854c1.102-0.733,1.769-1.567,2.002-2.502c0.232-0.935,0.117-2.085-0.352-3.454
	c-1.834-5.371-2.335-12.761-1.501-22.17c0.233-2.201-0.899-4.337-3.403-6.404c-2.436-2.035-5.17-3.154-8.207-3.354
	c-0.399,0-0.617-0.234-0.649-0.701c-0.033-0.334,0.133-0.9,0.5-1.701l0.95-2.402c0.468-1.367,0.302-2.818-0.5-4.354
	c-0.801-1.566-1.985-2.77-3.553-3.604c-2.67-1.233-4.021-3.354-4.055-6.355c-0.033-1.566-0.45-2.902-1.251-4.003
	c-0.769-1.103-1.868-1.869-3.304-2.304c-1.834-0.532-5.139-1.719-9.908-3.553c-4.973-1.869-8.391-3.27-10.26-4.203
	c-0.176-0.086-0.352-0.156-0.525-0.215c2.628-6.384,4.362-14.802,5.18-25.31c0.623-8.096,0.521-15.194-0.285-21.33
	c0.914-0.862,1.826-1.902,2.738-3.142c0.764-1.011,1.383-1.965,1.891-2.874c5.683-0.845,10.675-2.128,14.925-3.883
	c15.446-6.439,23.854-9.875,25.223-10.31c2.103-0.7,3.57-1.435,4.404-2.202c1.001-0.968,1.853-2.619,2.553-4.955
	C300.389,157.61,300.689,152.339,299.988,146.033z M95.801,112.001c7.685-1.253,15.292-0.425,22.821,2.442
	c-0.25,1.281-0.42,2.601-0.501,3.964c-0.111,1.943-0.037,3.884,0.213,5.826c-2.315-0.565-5.347-0.479-9.12,0.281
	c-4.671,0.901-8.641,2.419-11.911,4.554c-0.834,0.5-1.551,0.567-2.152,0.2c-2.869-1.602-6.306-3.253-10.31-4.955
	c-3.464-1.459-6.645-2.655-9.56-3.605C81.709,116.068,88.546,113.152,95.801,112.001z M123.228,223.354l-0.751,3.604l-0.489,2.652
	c-1.596-0.935-3.378-1.645-5.367-2.103l-6.656-0.399c-1.101,0.133-1.869,0.517-2.302,1.149c-0.367,0.601-0.584,1.502-0.65,2.703
	c-0.034,0.7-0.417,1.617-1.151,2.752l-1.502,2.004c-1.928-2.276-4.011-4.218-6.254-5.807c-5.705-4.07-11.411-5.306-17.116-3.704
	c-5.338,1.501-9.125,5.438-11.36,11.813c-0.007,0.02-0.012,0.039-0.019,0.059c-5.32-6.611-9.719-13.5-13.198-20.668
	c0.847-0.975,1.651-2.074,2.408-3.313c3.336-5.505,5.188-12.445,5.555-20.819c0.367-9.108-0.951-16.415-3.954-21.92
	c-2.769-5.04-6.495-7.712-11.177-8.024c0.317-1.73,0.732-3.527,1.243-5.391c7.484,8.349,15.481,15.328,23.995,20.922
	c12.922,8.496,26,13.039,39.235,13.652c0.435,2.974,1.141,5.85,2.153,8.618c1.134,3.036,3.286,8.091,6.456,15.164l0.951,3.403
	C123.445,220.768,123.428,221.986,123.228,223.354z M229.355,238.746c-0.354-0.119-0.73-0.129-1.133-0.028
	c-0.734,0.233-1.302,0.784-1.701,1.651c-0.435,1.268-1.385,2.535-2.854,3.804c-0.768,0.634-1.718,0.751-2.854,0.351l-3.104-1.45
	c-1.268-0.769-2.002-1.402-2.201-1.902c-0.234-0.532-0.268-1.535-0.101-3.003c0.134-1.301,0.351-2.368,0.651-3.202
	c0.365-1.002,0.299-2.002-0.201-3.004c-0.5-1.134-1.451-1.983-2.853-2.552c-2.569-1.102-5.422-2.569-8.56-4.404
	c-1.268-0.767-2.668-0.9-4.202-0.4c-1.151,0.326-2.152,0.924-3.004,1.793l-0.199-3.895v-5.055c0.033-0.701,0.166-1.251,0.399-1.651
	l1.102-1.352c3.503-3.637,7.74-8.591,12.712-14.863c4.292-5.43,7.476-9.846,9.593-13.287c4.071,5.7,6.924,12.521,8.523,20.494
	C231.361,216.468,231.346,227.125,229.355,238.746z M244.789,126.867c-0.7-0.267-1.484-0.801-2.354-1.602
	c-5.109-4.465-10.754-7.045-16.934-7.748c1.887-0.707,3.55-1.85,4.973-3.462c2.504-2.836,3.82-6.556,3.955-11.16
	c2.312,0.592,4.286,0.521,5.932-0.198c1.603,2.843,3.013,6.926,4.228,12.259c0.942,4.358,1.568,8.41,1.912,12.186L244.789,126.867z"
	/>
</svg>
