<?xml version="1.0" encoding="utf-8"?>
<!-- Generator: Adobe Illustrator 16.0.0, SVG Export Plug-In . SVG Version: 6.00 Build 0)  -->
<!DOCTYPE svg PUBLIC "-//W3C//DTD SVG 1.1//EN" "http://www.w3.org/Graphics/SVG/1.1/DTD/svg11.dtd">
<svg version="1.1" id="图层_1" xmlns="http://www.w3.org/2000/svg" xmlns:xlink="http://www.w3.org/1999/xlink" x="0px" y="0px"
	 width="306px" height="439px" viewBox="0 0 306 439" enable-background="new 0 0 306 439" xml:space="preserve">
<path d="M299.988,146.033c-0.9-7.707-3.253-14.78-7.057-21.219c-11.91-20.185-19.534-32.08-22.871-35.683
	c-3.336-3.637-6.005-7.757-8.007-12.361c-1.067-2.536-4.204-6.639-9.408-12.311c-0.83-0.899-1.626-1.742-2.405-2.56
	c1.411-6.119,0.362-11.355-3.15-15.707c-3.528-4.317-8.16-6.235-13.892-5.761c1.308-4.777,1.452-9.796,0.43-15.059
	c-1.169-6.35-3.591-10.46-7.259-12.346c-0.784-7.224-3.417-11.553-7.905-12.977c-0.467-0.134-0.784-0.134-0.95,0
	c-0.168,0.133-0.217,0.45-0.15,0.951c1.067,6.673-0.684,13.512-5.255,20.519c-4.509,6.812-10.169,11.221-16.974,13.233
	c-1.231-3.81-3.397-7.12-6.498-9.93c-5.138-4.638-11.711-6.839-19.718-6.606c-5.772,0.167-10.894,1.918-15.364,5.255
	c-4.037,3.103-7.073,7.14-9.108,12.111c-2.002,4.871-2.686,9.826-2.052,14.864c0.544,4.782,2.213,8.925,4.982,12.444
	c-2.48,1.336-4.869,2.971-7.167,4.9c-3.022-1.897-6.5-3.808-10.476-5.734c-4.504-2.235-8.024-3.687-10.56-4.354
	c-0.901-0.267-1.185,0.05-0.851,0.951c1.268,3.503,3.02,7.39,5.255,11.661c0.181,0.339,0.364,0.666,0.546,1.001
	c-6.314-3.348-13.644-5.18-22.016-5.455c-8.622-0.226-17.573,1.226-26.847,4.32c0.267-0.587,0.544-1.114,0.833-1.575
	c0.777-0.305,1.542-0.698,2.292-1.194c1.751-1.141,2.837-2.421,3.28-3.836c0.513-0.288,0.992-0.604,1.442-0.943
	c0.422,1.663,1.197,2.712,2.334,3.128c1.334,0.501,2.619-0.033,3.854-1.601c0.834-1.168,2.636-2.386,5.405-3.653
	c2.536-1.201,5.038-2.052,7.507-2.552c3.47-0.768,5.271-2.77,5.405-6.006c0.121-2.883-1.083-5.696-3.584-8.441
	c0.96-0.952,1.891-2,2.783-3.169c1.635-2.135,2.602-3.954,2.902-5.455c0.3-1.468,0.267-2.736-0.1-3.803
	c-0.333-0.935-1.118-2.152-2.352-3.653c-3.537-4.17-7.073-7.106-10.609-8.808c-2.335-1.134-4.337-2.652-6.006-4.554
	c-1.201-1.401-2.702-2.102-4.504-2.102c-1.968-0.033-4.121,0.834-6.456,2.603c-2.902,2.168-7.29,6.256-13.162,12.261
	c-6.973,7.073-10.91,11.994-11.811,14.763C52.78,47.26,50.411,51.797,47.608,55.2c-4.538,5.605-9.058,12.962-13.563,22.07
	c-5.74,11.449-8.75,20.925-9.039,28.438c-8.285,10.37-14.577,21.853-18.836,34.469c-4.805,14.38-6.79,29.61-5.956,45.692
	c1.843,34.681,11.592,65.514,29.232,92.504c-0.91,3.465-2.509,7.657-4.81,12.591c-0.367,0.834-0.417,1.635-0.15,2.402
	c0.167,0.635,0.601,1.335,1.301,2.102c1.401,1.502,3.704,3.236,6.906,5.205c0.734,0.5,0.784,0.885,0.15,1.151
	c-2.703,0.968-4.788,2.085-6.256,3.353c-0.701,0.567-1.101,1.318-1.201,2.252c-0.067,0.734,0.05,1.436,0.35,2.103
	c0.935,2.035,1.869,4.62,2.803,7.757l1.852,7.207c0.267,1.201,0.868,2.035,1.802,2.502c0.5,0.268,1.285,0.434,2.352,0.5
	c0.734,0.067,1.101,0.818,1.101,2.252l-0.55,6.006c-0.134,1.168-0.017,2.035,0.35,2.603c0.334,0.567,1.018,1.067,2.052,1.501
	c1.368,0.602,2.286,1.769,2.753,3.504c0.167,0.768,1.034,1.434,2.602,2.002l4.805,1.4c1.968,0.568,3.954,2.219,5.955,4.955
	c0.801,1.001,2.169,1.352,4.104,1.051c1.968-0.334,3.586-1.185,4.854-2.553c3.636-3.97,5.889-6.155,6.756-6.556
	c0.734-0.3,1.568-0.217,2.502,0.251c0.867,0.5,1.351,1.051,1.451,1.65c0.067,0.367-0.066,1.936-0.4,4.705
	c-0.333,2.402-0.267,4.053,0.2,4.954c0.701,1.269,0.884,2.77,0.551,4.505c-0.2,1.201,0.183,2.118,1.151,2.752
	c0.834,0.5,1.952,0.701,3.353,0.601c1.535-0.067,2.302,0.801,2.302,2.603c0,1.168,0.217,2.118,0.65,2.853
	c0.5,0.867,1.185,1.301,2.052,1.301c1.068,0,1.818,0.718,2.252,2.152c0.467,1.401,3.57,3.153,9.308,5.255
	c5.238,1.901,8.691,2.836,10.359,2.803c0.834,0,2.87-2.402,6.106-7.207c3.336-4.971,5.572-7.674,6.706-8.107l6.306-0.15
	c2.803,0.567,4.354,1.519,4.654,2.854c0.801,3.336,1.985,6.222,3.553,8.657c1.602,2.503,3.236,3.954,4.904,4.354
	c1.401,0.3,2.77,1.351,4.104,3.152c0.767,1.001,1.935,1.518,3.503,1.551c1.535,0.034,3.02-0.416,4.454-1.351
	c0.901-0.567,2.085-0.817,3.553-0.751c1.334,0.066,2.669,0.384,4.004,0.951c2.535,1.268,5.688,1.201,9.459-0.2
	c1.501-0.534,3.136-1.919,4.904-4.153l3.652-5.105c0.291-0.391,0.563-0.748,0.824-1.086l4.832,3.738l6.355,4.104
	c1.334,0.734,2.803,1.118,4.404,1.152l6.705-0.901l6.057-1.651c3.236-1.001,5.121-1.552,5.654-1.652
	c1.602-0.266,2.652,0.067,3.153,1.002l2.252,2.652c1.134,1.067,2.103,1.818,2.903,2.252c0.8,0.467,1.9,0.667,3.303,0.6l3.753-0.5
	c1.335-0.267,2.319,0.033,2.952,0.9c1.135,1.436,2.236,2.536,3.304,3.304c0.601,0.434,0.584,1.268-0.05,2.503
	c-3.471,6.938-5.205,10.976-5.205,12.11c0,1.034,1.535,3.354,4.604,6.956c3.104,3.67,5.139,5.488,6.106,5.455
	c0.634-0.033,2.318-1.352,5.054-3.953l6.707-6.506c0.5-0.435,0.9-0.635,1.201-0.601c0.267,0,0.566,0.233,0.9,0.7
	c0.9,1.135,2.119,3.486,3.653,7.057c0.466,1.07,0.765,2.465,0.905,4.17c-2.189,1.845-3.684,3.378-4.459,4.588
	c-1.134,1.802-0.967,3.62,0.501,5.455l8.058,10.26c0.667,0.934,1.501,1.551,2.502,1.852c0.867,0.233,1.969,0.25,3.303,0.05
	l6.957-0.4c1.334,0.134,2.219-0.167,2.652-0.901c0.334-0.7,0.184-1.534-0.451-2.502c-0.5-0.733-0.801-1.568-0.9-2.502l-0.15-2.902
	c-0.033-1.102-0.634-1.769-1.801-2.002c-1.035-0.234-2.119-0.051-3.254,0.55c-0.48,0.298-1.01,0.496-1.589,0.598
	c0.03-2.95,0.222-5.966,0.589-9.055c0.267-2.603,0.584-4.738,0.95-6.406c0.233-1.134,0.868-1.651,1.901-1.552l2.854-0.35
	c0.667-0.434,1-1.269,1-2.503c0-0.967-0.333-2.368-1-4.203c-0.668-2.002-1.368-3.304-2.102-3.904
	c-0.734-0.7-1.803-0.983-3.203-0.851c-1.135,0.101-2.152,0.417-3.053,0.951l-1.352,0.2l-1.051-1.151
	c-0.968-1.568-1.818-3.736-2.553-6.506c-0.233-0.834-0.133-1.551,0.301-2.152c0.267-0.367,0.884-0.867,1.852-1.501
	c0.7-0.501,1.117-1.051,1.251-1.651c0.101-0.434,0.066-1.135-0.101-2.102c-0.1-0.602,0.201-1.785,0.901-3.554
	c0.534-1.167,1.117-3.437,1.751-6.806c0.701-3.771,0.818-5.922,0.351-6.456l-3.253-0.251l-6.256,0.701
	c-0.934,0.133-1.535-0.301-1.801-1.301l-1.752-4.805c-0.301-0.701-0.317-1.185-0.051-1.451c0.234-0.301,0.885-0.484,1.952-0.551
	l3.554-0.65c0.967-0.534,1.518-1.735,1.651-3.604c0.1-1.668,0.55-4.154,1.351-7.457c0.635-2.635,1.234-4.838,1.803-6.605
	c0.467-1.401,0.482-2.637,0.049-3.703c-0.367-0.969-1.117-1.936-2.252-2.903l2.005-5.346l4.852-0.259
	c2.503-0.033,4.438-0.701,5.806-2.002c1.301-1.201,2.269-3.17,2.902-5.906c0.867-3.469,2.353-6.756,4.454-9.858
	c1.769-2.569,3.62-4.521,5.556-5.855c1.101-0.733,1.768-1.567,2.002-2.502c0.232-0.935,0.116-2.085-0.352-3.454
	c-1.834-5.371-2.335-12.761-1.501-22.17c0.233-2.201-0.9-4.337-3.403-6.405c-2.436-2.035-5.171-3.153-8.207-3.353
	c-0.4,0-0.617-0.234-0.65-0.701c-0.033-0.334,0.133-0.9,0.5-1.701l0.951-2.402c0.467-1.368,0.301-2.819-0.5-4.354
	c-0.801-1.567-1.986-2.769-3.554-3.603c-2.669-1.234-4.021-3.354-4.054-6.356c-0.033-1.567-0.45-2.902-1.251-4.003
	c-0.768-1.102-1.868-1.869-3.304-2.303c-1.834-0.533-5.138-1.719-9.908-3.553c-4.972-1.869-8.391-3.27-10.26-4.204
	c-0.175-0.085-0.351-0.156-0.525-0.214c2.628-6.384,4.362-14.802,5.18-25.31c0.623-8.096,0.52-15.194-0.285-21.33
	c0.913-0.862,1.825-1.902,2.737-3.142c0.764-1.011,1.384-1.965,1.892-2.874c5.682-0.845,10.674-2.128,14.924-3.883
	c15.447-6.439,23.855-9.875,25.223-10.31c2.103-0.7,3.57-1.435,4.404-2.202c1.001-0.968,1.852-2.619,2.553-4.955
	C300.389,157.61,300.689,152.339,299.988,146.033z M74.483,178.863c12.922,8.496,26,13.039,39.235,13.652
	c0.435,2.974,1.141,5.85,2.153,8.618c1.134,3.036,3.286,8.091,6.456,15.164l0.951,3.403c0.167,1.067,0.15,2.286-0.05,3.653
	l-0.751,3.604l-0.489,2.653c-1.596-0.935-3.378-1.645-5.367-2.103l-6.656-0.4c-1.101,0.133-1.869,0.517-2.302,1.15
	c-0.367,0.601-0.584,1.502-0.65,2.703c-0.034,0.7-0.417,1.617-1.151,2.752l-1.502,2.004c-1.928-2.277-4.011-4.218-6.254-5.807
	c-5.705-4.07-11.411-5.305-17.116-3.704c-5.338,1.501-9.125,5.438-11.36,11.812c-0.007,0.02-0.012,0.039-0.019,0.059
	c-5.32-6.611-9.719-13.5-13.198-20.668c0.847-0.975,1.651-2.074,2.408-3.313c3.336-5.505,5.188-12.445,5.555-20.819
	c0.367-9.108-0.951-16.415-3.954-21.92c-2.769-5.04-6.495-7.712-11.177-8.024c0.317-1.73,0.732-3.527,1.243-5.391
	C57.972,166.29,65.969,173.269,74.483,178.863z M229.355,238.746c-0.353-0.119-0.73-0.129-1.133-0.028
	c-0.733,0.233-1.301,0.784-1.701,1.651c-0.434,1.268-1.385,2.535-2.853,3.804c-0.768,0.634-1.718,0.751-2.853,0.351l-3.104-1.451
	c-1.268-0.768-2.002-1.402-2.201-1.902c-0.234-0.533-0.268-1.535-0.101-3.003c0.134-1.301,0.351-2.368,0.651-3.202
	c0.366-1.002,0.3-2.002-0.201-3.004c-0.5-1.134-1.451-1.984-2.852-2.552c-2.57-1.101-5.422-2.569-8.559-4.404
	c-1.268-0.767-2.669-0.9-4.203-0.4c-1.151,0.326-2.152,0.924-3.004,1.793l-0.199-3.895v-5.055c0.033-0.701,0.166-1.251,0.4-1.651
	l1.101-1.352c3.503-3.637,7.74-8.591,12.712-14.863c4.292-5.43,7.475-9.846,9.593-13.287c4.071,5.7,6.923,12.521,8.523,20.494
	C231.362,216.468,231.346,227.125,229.355,238.746z M225.502,117.517c1.887-0.707,3.55-1.85,4.973-3.462
	c2.503-2.836,3.82-6.556,3.954-11.16c2.312,0.592,4.287,0.521,5.932-0.198c1.603,2.843,3.013,6.926,4.228,12.259
	c0.942,4.358,1.568,8.41,1.912,12.186l-1.712-0.275c-0.7-0.267-1.485-0.801-2.353-1.602
	C237.326,120.8,231.681,118.22,225.502,117.517z M118.334,124.233c-2.315-0.565-5.347-0.479-9.12,0.281
	c-4.671,0.901-8.641,2.419-11.911,4.554c-0.834,0.5-1.551,0.567-2.152,0.2c-2.869-1.602-6.306-3.253-10.31-4.955
	c-3.464-1.459-6.645-2.655-9.56-3.605c6.428-4.64,13.265-7.556,20.52-8.707c7.685-1.253,15.292-0.425,22.821,2.442
	c-0.25,1.281-0.42,2.601-0.501,3.964C118.01,120.35,118.084,122.291,118.334,124.233z"/>
</svg>
