<?xml version="1.0" encoding="utf-8"?>
<!-- Generator: Adobe Illustrator 16.0.0, SVG Export Plug-In . SVG Version: 6.00 Build 0)  -->
<!DOCTYPE svg PUBLIC "-//W3C//DTD SVG 1.1//EN" "http://www.w3.org/Graphics/SVG/1.1/DTD/svg11.dtd">
<svg version="1.1" id="图层_1" xmlns="http://www.w3.org/2000/svg" xmlns:xlink="http://www.w3.org/1999/xlink" x="0px" y="0px"
	 width="416px" height="356px" viewBox="0 0 416 356" enable-background="new 0 0 416 356" xml:space="preserve">
<path d="M413.705,270.807c0.51-0.81,1.125-1.47,1.845-1.979c0.15-0.12,0.195-0.3,0.135-0.54c-1.229-3.779-1.739-6.539-1.529-8.279
	c0.06-0.33,0-0.555-0.18-0.676c-1.801-1.289-4.44-2.489-7.92-3.6c-1.8-0.539-2.34-1.709-1.62-3.51c0.72-1.859,2.43-3.314,5.13-4.364
	c0.36-0.15,0.465-0.479,0.314-0.99c-1.319-5.669-2.97-10.095-4.949-13.274c-0.6-0.99-1.515-1.319-2.745-0.99l-4.274,0.406
	c-1.02-0.211-1.695-0.886-2.025-2.025c-0.51-1.71-1.35-3.404-2.52-5.085c-1.319-1.92-2.76-3.3-4.319-4.14
	c-0.99-0.57-1.98-0.824-2.97-0.765c-1.051,0.03-1.905,0.39-2.565,1.079l-1.484,1.261c-0.54,0.3-1.26,0.495-2.16,0.585
	c-1.11,0.09-2.43,0.555-3.96,1.395c-1.5,0.84-2.31,1.53-2.43,2.07c-0.12,0.6-0.15,1.604-0.09,3.015c0.06,1.021-0.061,1.62-0.36,1.8
	l-2.159-0.045c-1.29-0.359-2.7-1.035-4.23-2.025c-1.109-0.75-2.01-0.795-2.699-0.135l-3.42,2.564c-0.96,0.631-1.26,1.5-0.9,2.61
	c0.36,1.14,0.375,2.265,0.045,3.375c-0.33,1.08-0.824,1.68-1.484,1.8c-0.75,0.12-1.516-0.15-2.295-0.811
	c-0.69-0.629-1.26-1.439-1.71-2.43c0.39-0.81,0.555-1.814,0.495-3.015c-0.09-0.84-1.23-1.874-3.42-3.104
	c-1.89-1.05-3.99-1.95-6.3-2.699c-1.649-0.541-3.029-0.556-4.14-0.046c-1.021,0.479-1.56,1.229-1.62,2.25
	c0,0.3-0.285,0.585-0.854,0.854c-0.601,0.301-1.275,0.451-2.025,0.451c-1.35,0-2.069-0.496-2.16-1.485
	c-0.18-2.07-1.064-3.181-2.654-3.33c-1.62-0.18-2.79,0.63-3.51,2.43l-0.63,0.765l-0.729,0.096c-1.149-5.73-2.212-10.464-3.186-14.18
	c-1.6-6.143-3.269-10.923-5.005-14.371c3.555-11.096,3.159-20.811-1.205-29.141c-4.35-8.279-11.908-13.934-22.678-16.964
	l-4.051-3.555c-0.569-0.42-0.795-1.215-0.674-2.385c0.129-1.858,0.576-3.871,1.305-6.018c0.933,0.182,1.875,0.347,2.834,0.483
	c8.34,1.17,16.395,0.9,24.164-0.81c8.267-1.837,14.359-5.032,18.288-9.581c5.368-2.246,10.104-6.305,14.2-12.198
	c3.93-5.609,5.34-9.764,4.229-12.464c-0.33-0.84-1.26-1.965-2.79-3.375c-1.56-1.44-3.225-2.7-4.994-3.78
	c-0.511-7.05-2.13-13.724-4.86-20.024c-2.369-5.459-4.244-8.189-5.624-8.189c-0.78,0-2.28,2.055-4.5,6.165
	c-0.711,1.299-1.357,2.591-1.975,3.878c-3.545-2.001-7.416-3.313-11.61-3.936c-1.528-3.051-3.802-5.702-6.813-7.958
	c3.135-9.412,5.649-17.444,7.529-24.067c2.25-7.89,4.064-15.344,5.444-22.364c0.75-3.81-0.18-4.215-2.79-1.215
	c-10.427,12.11-20.053,24.071-28.901,35.886c-2.512-9.347-6.889-18.237-13.171-26.662c-5.67-7.56-12.434-14.249-20.293-20.069
	c-6.99-5.16-13.8-8.879-20.43-11.16c-6.42-2.22-11.084-2.58-13.994-1.08c-2.52,1.32-4.319,4.334-5.399,9.044
	c-1.021,4.41-1.274,9.75-0.765,16.019c0.23,2.911,0.579,5.718,1.031,8.435c-5.11-5.604-11.4-10.356-18.896-14.24
	c-7.739-3.99-13.034-5.354-15.884-4.095c-1.89,0.84-3.045,3.54-3.465,8.1c-0.39,4.35-0.03,9.599,1.08,15.749
	c0.739,4.16,1.657,8.047,2.741,11.68c-3.248-3.184-7.079-6.076-11.515-8.666c-5.58-3.3-9.299-4.455-11.159-3.465
	c-1.23,0.63-1.62,3.165-1.17,7.604c0.45,4.32,1.575,9.33,3.375,15.029c1.628,5.157,3.393,9.72,5.289,13.707
	c-1.923-1.45-3.879-2.699-5.874-3.717c-3.21-1.62-5.4-2.055-6.57-1.305c-0.99,0.66-1.035,3.135-0.135,7.424
	c0.87,4.26,2.354,8.745,4.455,13.454c2.52,5.67,5.189,10.35,8.009,14.04c2.7,3.54,4.65,5.055,5.85,4.544
	c0.81-0.36,0.87-2.28,0.18-5.76c-0.532-2.634-1.327-5.405-2.375-8.307c3.279,3.63,6.986,6.931,11.149,9.882
	c6.81,4.83,11.25,6.39,13.319,4.68c1.17-0.93,1.545-3.48,1.125-7.649c-0.297-3.314-1.003-6.596-2.075-9.848
	c3.731,4.272,7.704,8.086,11.93,11.423c5.939,4.68,9.898,6.66,11.879,5.939c0.93-0.36,1.74-1.35,2.43-2.97
	c0.605-1.431,1.052-3.178,1.354-5.214l1.751-0.365l5.641-1.843c1.829,1.798,3.802,3.555,5.916,5.271
	c-1.292,1.751-2.607,3.641-3.952,5.706c-4.46,6.878-8.111,13.923-10.971,21.132c-3.756-0.386-7.523,0.098-11.303,1.457
	c-5.939,2.1-10.484,5.37-13.634,9.81c-2.426,3.429-3.639,7.069-3.67,10.915c-3.967,4.081-8.406,8.078-13.338,11.988
	c-3.831,3.032-7.669,5.77-11.514,8.229l-1.896-1.659c-0.39-0.39-0.375-0.825,0.045-1.305c0.99-0.99,0.945-2.175-0.135-3.555
	l-2.879-4.275c-0.9-1.439-1.98-2.205-3.24-2.294l-1.395-3.6c-0.27-0.57-0.105-0.765,0.495-0.585c1.35,0.36,2.25,0.09,2.7-0.81
	l1.08-2.52l-0.045-0.405c-1.83-3.419-2.685-5.325-2.565-5.714c0.15-0.39,0.435-0.675,0.855-0.855c0.57-0.27,1.29-0.27,2.16,0
	l1.8-0.18c0.36-0.39,0.255-1.035-0.315-1.935c-0.57-0.87-0.855-1.65-0.855-2.34c0-0.45-0.24-0.66-0.72-0.63
	c-4.649,0.24-7.604,0.9-8.864,1.98c-0.18,0.18-0.225,0.375-0.135,0.585c1.08,2.76,1.11,5.07,0.09,6.93
	c-1.02,1.95-2.94,2.925-5.76,2.925l-1.665,0.225c-0.39,0.21-0.72,0.6-0.99,1.17c-0.96,2.16-2.55,4.83-4.77,8.009
	c-0.3,0.45-0.405,0.84-0.315,1.17l0.675,0.81c1.68,1.5,2.025,3.105,1.035,4.815c-1.11,1.89-3.615,3.359-7.514,4.41l-0.225,0.135
	l-4.725,5.4l-0.18,0.449c0.42,2.131,0.195,3.586-0.675,4.365c-0.93,0.84-2.565,0.855-4.905,0.045c-1.68-0.57-3.48-0.9-5.4-0.99
	l-4.365,0.36l-0.27,0.136l-4.725,5.939l-4.455,5.984c-0.12,0.15-0.15,0.3-0.09,0.449c0.78,2.91,0.915,5.76,0.405,8.551
	c-0.54,2.789-1.71,5.264-3.51,7.424l-0.09,0.135l-1.305,4.5c-0.3,1.199-0.48,2.369-0.54,3.51l-0.45,2.609l-0.9,2.295
	c-0.526,1.422-0.933,2.907-1.244,4.442c-1.016-6.231-2.249-11.709-3.706-16.411c-0.45-1.471-0.855-2.234-1.215-2.295
	c-0.39-0.09-1.065,0.525-2.025,1.845c-3.629,5.201-6.831,11.173-9.616,17.899c-4.258,0.495-8.118,1.951-11.577,4.375
	c-1.964,1.374-3.624,2.949-5.004,4.711c-1.948-0.803-3.834-1.615-5.631-2.438c0.688-2.356,1.051-4.806,1.051-7.358
	c0.03-2.699-0.405-5.369-1.305-8.009c-0.811-2.377-1.967-4.536-3.435-6.501c0.672-2.167,1.114-4.961,1.32-8.393
	c0.24-4.291,0.015-8.16-0.675-11.609c-0.21-1.11-0.525-1.74-0.945-1.891c-0.45-0.15-1.14,0.12-2.07,0.811
	c-4.623,3.461-8.383,7.737-11.284,12.826l-3.655-0.362c-4.709,0-8.791,1.072-12.27,3.172c-2.065-2.237-3.515-4.6-4.334-7.087
	c-0.25-0.748-0.443-1.554-0.603-2.395c5.171-0.284,9.653-2.544,13.427-6.83c3.81-4.319,5.715-9.119,5.715-14.398
	c0-2.078-0.295-4.08-0.854-6.013c1.192-1.5,2.319-3.102,3.376-4.81c1.835,0.653,3.635,0.958,5.396,0.877
	c4.56-0.12,8.37-1.62,11.429-4.5c2.725-2.526,4.484-5.732,5.302-9.601c0.034-0.01,0.064-0.018,0.098-0.028
	c2.339-0.77,4.501-1.672,6.489-2.706c2.616,2.867,5.981,4.276,10.115,4.19c2.939-0.028,5.509-0.793,7.719-2.28
	c0.675,0.212,1.355,0.408,2.045,0.57l6.75,1.08l0.72-0.135c0.09-0.15,0.06-0.465-0.09-0.945c-0.777-2.619-1.725-5.04-2.833-7.272
	c0.767,0.287,1.73,0.663,2.876,1.121l-0.042,0.617c0.09,4.05,1.32,7.245,3.689,9.584c2.34,2.34,5.43,3.51,9.27,3.51
	c2.413,0,4.572-0.571,6.484-1.699c1.775,1.137,4.048,2.021,6.835,2.644l2.16-0.09c0.21-0.27,0.15-0.975-0.18-2.115l-1.44-4.05
	c-0.556-1.287-1.244-2.514-2.056-3.686c0.338-1.302,0.506-2.651,0.481-4.054c-0.03-3.87-1.245-7.035-3.645-9.495
	c-2.37-2.37-5.295-3.555-8.774-3.555c-2.67,0-5.025,0.66-7.065,1.98c-1.665,1.091-2.977,2.536-3.971,4.298
	c-1.491-0.601-3.199-1.211-5.117-1.831c-0.225-3.527-1.595-6.514-4.141-8.947c-2.7-2.61-5.97-3.915-9.81-3.915
	c-3.51,0-6.479,1.05-8.909,3.15c-2.338,2.024-3.812,4.748-4.442,8.153l-6.033,0.726c-1.081-1.525-2.398-2.87-3.969-4.02
	c-3.03-2.19-6.405-3.285-10.125-3.285c-4.799,0-8.954,1.785-12.464,5.354c-3.6,3.66-5.28,8.009-5.04,13.049
	c0.046,1.069,0.188,2.091,0.378,3.089c-1.236,1.113-2.897,2.663-4.98,4.647c-2.071-0.754-4.167-1.145-6.287-1.167
	c-5.729-0.03-10.649,2.1-14.759,6.39c-4.08,4.26-6.044,9.18-5.895,14.759c0.15,4.17,1.215,7.935,3.195,11.294
	c1.642,2.754,3.764,5.003,6.364,6.752c-0.093,3.41,0.375,7.008,1.421,10.797c1.451,5.389,3.798,9.947,7.017,13.699
	c-0.856,2.544-1.321,5.332-1.348,8.395c-0.03,7.2,2.085,12.93,6.345,17.189c4.17,4.17,9.629,6.209,16.379,6.119
	c4.318-0.083,8.132-1.136,11.454-3.135c4.156,2.414,7.54,4.285,10.142,5.606c-0.3,7.075,1.212,13.019,4.547,17.822
	c3.9,5.64,9.689,8.895,17.369,9.765c5.01,0.6,9.57,0.135,13.679-1.395c4.034-1.492,7.319-3.912,9.877-7.235
	c3.635,1.941,6.819,3.873,9.517,5.795c6.667,4.742,12.583,10.639,17.763,17.665c-0.071,0.128-0.143,0.249-0.214,0.379
	c-3.63,6.6-7.334,12.869-11.114,18.809c-3.019,4.771-5.49,8.365-7.421,10.798l-0.049-0.718c-0.15-0.84-0.39-1.305-0.72-1.395
	c-0.39-0.061-0.96,0.27-1.71,0.989c-1.32,1.229-2.31,2.715-2.97,4.454c-0.449,1.158-0.669,2.291-0.71,3.402
	c-0.103,0.257-0.185,0.518-0.235,0.783c-0.66,3.359-0.39,5.52,0.81,6.479c2.16,1.62,4.29,2.159,6.39,1.62
	c0.494-0.117,0.959-0.254,1.411-0.4c-0.052,0.66,0.096,1.333,0.479,2.02l1.305,2.34l1.26,2.475c0.3,0.811,0.675,1.336,1.125,1.576
	l2.205,0.314c3.36,0,5.4-0.225,6.12-0.675l0.37-0.356c0.735,0.396,1.661,0.785,2.78,1.166c1.5,0.51,2.76,0.811,3.78,0.9l2.205-0.045
	c0.51-0.15,0.885-0.51,1.125-1.08c0.24-0.51,1.08-1.275,2.52-2.295l3.285-2.25c1.05-0.779,1.665-1.695,1.845-2.744
	c0.12-0.781-0.015-1.92-0.405-3.42c-0.492-1.858-0.417-5.035,0.21-9.503c1.048,0.869,2.252,1.473,3.614,1.808
	c1.89,0.45,3.615,0.33,5.175-0.359c3.54-1.561,7.169-4.23,10.889-8.01c0.695-0.706,1.356-1.451,2.02-2.194
	c6.988,4.054,14.933,6.389,23.854,6.964c1.38,0.086,2.75,0.112,4.114,0.112c-0.09,0.35-0.16,0.779-0.199,1.327
	c-0.15,2.25,0.24,4.5,1.17,6.75c0.703,1.735,1.552,2.999,2.544,3.802c0.272,0.6,0.727,1.057,1.416,1.328
	c1.65,0.659,3.54,0.944,5.67,0.854c0.167-0.007,0.319-0.038,0.479-0.057c0.802,1.792,1.722,2.879,2.761,3.252l4.005,0.135
	c2.19-0.15,3.689-0.42,4.499-0.811c0.723-0.36,1.261-0.849,1.656-1.438c0.842-0.18,1.759-0.495,2.754-0.947
	c1.32-0.569,2.13-1.08,2.43-1.529c0.328-0.546,0.354-3.066,0.085-7.517c0.316,0.152,0.633,0.311,0.95,0.452
	c4.38,1.949,7.8,2.43,10.26,1.439c2.879-1.17,5.489-4.664,7.829-10.484c2.576-6.467,3.866-14.012,3.903-22.608
	c8.146-9.702,14.783-21.778,19.9-36.247c3.96-11.16,7.064-19.02,9.314-23.579c0.757-1.522,1.563-2.998,2.414-4.431
	c1.518-0.688,3.021-1.485,4.506-2.4c0.384,0.279,0.733,0.677,1.045,1.206c0.449,0.81,0.75,1.74,0.899,2.79
	c0.45,3.27,0.54,5.925,0.271,7.965c-0.18,1.26,0.314,2.084,1.484,2.475l1.395,0.54c0.631,0.12,1.186-0.06,1.666-0.54
	c0.449-0.391,0.914-0.705,1.395-0.945c0.51-0.27,0.869-0.359,1.08-0.27l1.484,1.26c0.6,0.689,0.855,1.32,0.766,1.89l-0.855,2.565
	l-1.484,2.295c-0.78,0.869-0.9,1.635-0.36,2.295l3.104,4.184c1.35,1.951,2.13,3.226,2.34,3.825c0.15,0.54,0.9,1.11,2.25,1.71
	c1.65,0.66,2.82,1.245,3.51,1.755c0.54,0.39,1.125,0.54,1.755,0.45c0.54-0.061,0.96-0.255,1.26-0.585
	c2.19,0.181,4.17-0.45,5.94-1.89c1.8,0.6,3.314,0.975,4.544,1.125c1.29,0.15,2.115,1.125,2.476,2.924
	c0.359,1.74,0.104,2.881-0.766,3.42c-1.02,0.631-1.319,1.426-0.899,2.385l1.574,3.871c0.78,1.889,1.38,3.044,1.801,3.464
	c0.51,0.511,1.364,1.095,2.564,1.755l2.745,1.215l3.645,0.09c2.189-0.539,4.05-0.555,5.579-0.045c1.17,0.42,2.04,0.99,2.61,1.711
	c0.57,0.689,0.78,1.454,0.63,2.295c-0.24,1.229,0.24,1.949,1.439,2.159c1.471,0.271,2.896,0.795,4.275,1.575l0.54-0.045
	c1.68-1.5,3.06-2.115,4.14-1.846c0.93,0.24,1.935,1.2,3.015,2.881c1.14,1.77,1.92,3.689,2.34,5.76
	c0.09,0.479,0.315,0.885,0.675,1.215c0.36,0.329,0.78,0.494,1.26,0.494l5.31,0.585c1.83,0.33,3.226,0.705,4.186,1.125
	c1.08,0.479,2.159,0.675,3.239,0.585c0.9-0.09,1.92-0.39,3.06-0.9c0.66-0.33,1.53-0.629,2.61-0.899c0.96-0.271,2.1-1.065,3.42-2.385
	c0.72-0.72,1.5-1.215,2.34-1.485l0.359-0.359c0.99-3.27,1.605-5.91,1.846-7.92c1.109-0.33,2.024-0.854,2.744-1.574
	c1.65-2.551,3.21-3.33,4.68-2.34l1.891,0.989l1.8,0.36c1.109,0.21,1.979,0.525,2.609,0.945c0.48,0.33,0.93,0.539,1.351,0.629
	l1.845-0.09c2.97-0.75,5.805-2.055,8.504-3.914c2.49-1.68,4.02-3.195,4.59-4.545c0.39-0.811,0.436-2.641,0.135-5.49l-0.18-0.27
	c-1.14-1.2-1.814-2.865-2.024-4.994c-0.12-1.23-0.105-2.326,0.045-3.285C413.016,272.172,413.285,271.497,413.705,270.807z
	 M35.574,166.096c0.34-0.41,0.676-0.809,1.001-1.183l1.492,1.467c-0.744-0.003-1.478,0.008-2.204,0.031
	C35.769,166.304,35.671,166.201,35.574,166.096z M225.126,92.33c0.538,0.697,1.096,1.394,1.674,2.089
	c-0.479,0.137-0.958,0.275-1.437,0.401L225.126,92.33z M185.974,257.713l-2.88,0.27c-3.096,0.91-5.739,1.857-7.936,2.841
	l-1.063-1.536c0.39-0.209,0.84-0.84,1.35-1.89c0.33-0.72,0.795-1.454,1.395-2.204l1.935-2.16c1.23-1.471,1.305-3.87,0.225-7.199
	c-1.11-3.391-2.76-5.415-4.95-6.075c-0.78-0.24-1.395-0.915-1.845-2.024c-0.42-1.08-0.585-2.325-0.495-3.735
	c0.03-0.6,0.39-0.899,1.08-0.899c0.6,0,1.02-0.105,1.26-0.315c0.27-0.24,0.465-0.705,0.585-1.396c0.33-2.01,0.9-3.84,1.71-5.489
	c2.04,0.601,3.525-0.39,4.455-2.97c1.11-3.06,1.68-6.074,1.709-9.045c0.03-0.81-0.135-1.574-0.495-2.295
	c-0.36-0.659-0.81-1.17-1.35-1.529c-0.99-0.66-1.44-1.92-1.35-3.779c0.024-0.497,0-0.936-0.05-1.339
	c4.922-2.646,10.327-5.788,16.249-9.461l8.618-5.654c0.484,4.825,1.374,9.695,2.676,14.608c1.59,6.061,3.614,11.34,6.075,15.84
	c1.59,2.85,2.189,6.374,1.799,10.574c-0.39,4.229-1.739,8.444-4.049,12.645c-5.352,9.796-13.62,16.204-24.787,19.244
	c0.133-0.805,0.252-1.624,0.353-2.461C186.379,258.808,186.304,257.953,185.974,257.713z M301.529,234.18
	c-0.471,0.06-0.882,0.202-1.217,0.449c-0.511,0.36-0.795,0.885-0.855,1.575c-0.061,1.14-0.27,2.295-0.63,3.465
	c-0.36,1.229-0.81,2.189-1.351,2.88c-0.239,0.33-0.84,0.51-1.799,0.539c-1.11,0.031-2.01-0.239-2.7-0.809
	c0.149-1.141,0.149-2.25,0-3.33l-0.854-3.465l-0.451-0.36l-1.07-0.162c3.104-2.542,6.131-5.603,9.082-9.193
	C300.174,228.602,300.789,231.405,301.529,234.18z M202.823,331.145c-0.195,0.397-0.415,0.816-0.651,1.249
	c-0.731-0.33-1.446-0.683-2.139-1.064C200.966,331.285,201.897,331.229,202.823,331.145z"/>
</svg>
