<?xml version="1.0" encoding="utf-8"?>
<!-- Generator: Adobe Illustrator 16.0.0, SVG Export Plug-In . SVG Version: 6.00 Build 0)  -->
<!DOCTYPE svg PUBLIC "-//W3C//DTD SVG 1.1//EN" "http://www.w3.org/Graphics/SVG/1.1/DTD/svg11.dtd">
<svg version="1.1" id="图层_1" xmlns="http://www.w3.org/2000/svg" xmlns:xlink="http://www.w3.org/1999/xlink" x="0px" y="0px"
	 width="673px" height="541px" viewBox="0 0 673 541" enable-background="new 0 0 673 541" xml:space="preserve">
<path d="M671.45,262.5c-12.068,0.467-26.286,3.967-42.653,10.5c-15.468,6.168-25.669,11.968-30.603,17.401
	c-3.3,3.667-4.233,8.518-2.8,14.552c1.033,4.199,2.983,8.434,5.851,12.7c1.933,2.834,2.433,5.751,1.5,8.751
	c-0.934,2.934-2.95,5.1-6.051,6.5c-0.934,0.467-2.3,0.934-4.101,1.4l-4.45,0.75c-1.967,0.066-3.917,0.4-5.851,1
	c-1.481,0.456-2.643,0.976-3.501,1.556c-3.203-0.122-6.604-0.137-10.215-0.038c3.77-2.493,8.188-4.717,13.266-6.668
	c0.768-0.267,1.117-0.6,1.051-1c-0.033-0.367-0.45-0.517-1.25-0.449c-6.968,0.633-13.451-0.268-19.452-2.701
	c-3.167-1.3-7.566-2.184-13.2-2.65c-4.495-0.379-9.048-0.398-13.651-0.096c2.541-1.219,4.85-2.566,6.9-4.055
	c1.233-0.866,1.15-1.383-0.25-1.55c-5.434-0.7-12.685-0.417-21.752,0.851c-9.167,1.3-16.617,3.133-22.352,5.5
	c-3.413,1.39-7.68,2.543-12.76,3.472c-0.735,0.099-1.426,0.214-2.048,0.352c-1.239,0.203-2.525,0.393-3.855,0.57
	c-4.131-1.947-8.41-2.969-12.839-3.044c-3.7-0.066-9.951,0.668-18.752,2.201c-8.367,1.467-14.218,2.783-17.551,3.949
	c-1.667,0.567-2.851,1.717-3.551,3.451c-0.474,1.145-0.75,2.647-0.851,4.469c-0.383,0.097-0.765,0.189-1.147,0.287
	c-1.189-0.732-2.404-1.392-3.652-1.956c-4.133-1.899-8.05-2.649-11.75-2.25c-3.301,0.366-7.334,1.167-12.102,2.4
	c-4.3,1.1-8.184,2.283-11.65,3.55c-4.099,1.515-6.612,4.054-7.563,7.606l-2.824,0.452l-5.615-6.566
	c9.171-4.429,17.679-9.223,25.502-14.393c9.435-6.234,16.868-12.352,22.302-18.352c0.367-0.367,0.483-0.7,0.351-1
	c-0.101-0.268-0.4-0.4-0.9-0.4c-5.801,0.334-12.301,1.334-19.501,3c-6.719,1.538-12.781,3.398-18.211,5.569
	c7.147-5.815,15.479-13.532,25.011-23.171c15.269-15.5,25.169-27.501,29.702-36.002c0.334-0.633,0.417-1.083,0.25-1.35
	c-0.166-0.233-0.583-0.233-1.25,0c-9.667,3.367-21.385,9.201-35.152,17.5c-11.418,6.84-21.565,13.781-30.488,20.822
	c3.304-4.249,6.813-8.998,10.537-14.271c10.733-15.134,17.984-26.952,21.751-35.452c0.601-1.233,0.233-1.6-1.1-1.1
	c-12.435,4.634-26.285,13.084-41.553,25.352c-14.343,11.548-25.601,23.218-33.797,35.01c2.09-5.605,4.072-11.821,5.945-18.659
	c2.667-9.801,4.334-18.234,5-25.301c0.134-1.167-0.333-1.45-1.399-0.85c-7.468,4.034-14.868,11.784-22.202,23.251
	c-4.362,6.832-7.848,13.683-10.496,20.551c-4.59-1.271-8.333-2.77-11.205-4.499c-3.101-1.866-5.434-4.134-7.001-6.8
	c-2.667-4.435-5.784-10.151-9.351-17.152c-3.658-7.221-6.319-12.977-8.008-17.305c0.745-1.297,1.559-2.565,2.458-3.796
	c2.8-3.8,5.601-6.25,8.4-7.351c6.434-2.567,11.318-7.684,14.651-15.351c1.9-4.3,5.934-9.901,12.101-16.801
	c7.434-8.268,15.185-14.951,23.252-20.052c8.233-5.167,16.518-7.567,24.852-7.2c6.634,0.267,17.751-2.534,33.353-8.401
	c13.634-5.134,23.802-9.767,30.502-13.901c12.516-7.67,25.222-15.086,38.107-22.261c3.124,2.299,6.685,4.438,10.696,6.41
	c5,2.434,15.435,6.434,31.303,12.001c13.467,4.733,25.085,9.317,34.853,13.751c9.367,4.233,17.634,8.601,24.802,13.101
	c8.567,5.434,21.218,12.518,37.952,21.252c16.401,8.601,30.437,15.518,42.104,20.751l1.8,0.1c0.301-0.4,0.15-1-0.45-1.8
	c-10.594-15.047-22.389-29.345-35.371-42.901c7.813,3.56,16.367,7.009,25.671,10.349c10.268,3.667,19.718,6.6,28.352,8.8l1.351-0.15
	c0.167-0.267,0.05-0.717-0.35-1.35c-7.289-11.039-19.322-24.252-36.057-39.622l14.104,4.119c0.7,0.267,1.184,0.267,1.45,0
	c0.233-0.3,0.1-0.817-0.4-1.55c-6.367-8.901-21.085-21.018-44.153-36.353c-20.736-13.794-37.841-23.387-51.33-28.801
	c-2.089-1.375-4.176-2.757-6.273-4.102c-14.769-9.434-32.136-18.101-52.104-26.002c-15.201-6-35.086-12.701-59.654-20.101
	c-5.033-1.5-9.467-2.317-13.301-2.45c-3.663-0.146-8.025,0.268-13.085,1.238c1.035-1.734,2.492-3.546,4.384-5.439
	c0.434-0.4,0.967-0.65,1.601-0.75l1.7,0.25c1.1,0.534,2.983,0.784,5.65,0.75c2.733-0.033,4.983-0.383,6.75-1.05
	c1.834-0.7,3.334-1.067,4.501-1.1c1.866-0.1,2.934-0.817,3.2-2.15c0.033-0.5,0.517-0.767,1.45-0.8c1.434-0.033,2.95-0.317,4.55-0.85
	c1.867-0.6,3.184-1.383,3.95-2.35c0.768-0.934,1.95-1.767,3.551-2.5c1.7-0.733,3.566-1.217,5.601-1.45
	c0.633-0.067,0.967-0.25,1-0.55c0.066-0.333-0.2-0.65-0.8-0.95c-0.82-0.352-1.674-0.599-2.557-0.752
	c1.494-1.714,4.194-3.729,8.106-6.048c4.601-2.733,9.268-4.917,14.001-6.55c0.767-0.233,1.101-0.534,1-0.9
	c-0.1-0.367-0.55-0.483-1.35-0.35l-14.701,1.75l-14.352,0.85c-1.8-0.034-3.833,0.417-6.1,1.35c-2.334,0.967-4.668,2.367-7.001,4.2
	c-1.634,1.267-2.533,2.5-2.7,3.7c-0.134,0.934-0.783,1.583-1.95,1.95s-2.066,0.267-2.7-0.3c-0.867-0.8-2.55-1.234-5.051-1.3
	c-3.133-0.067-5.85-0.033-8.15,0.1l-8.801,0.95c-2.467,0.367-4.7,1.1-6.7,2.2c-1.967,1.067-4.267,2.8-6.9,5.201
	c-0.867,0.8-1.634,2.117-2.3,3.95c-0.534,1.5-0.917,3.1-1.15,4.8c-0.267,1.967-1.117,3.867-2.551,5.701
	c-0.881,1.096-1.9,2.053-3.031,2.9c-6.356,0.703-11.345,1.005-14.961,0.905c-1.574-1.075-3.297-2.022-5.209-2.806
	c-4.9-2-10.718-2.967-17.451-2.9c-3.372,0.035-6.63,0.441-9.78,1.198c0.213-0.783,0.123-1.765-0.271-2.948
	c-0.566-1.634,0.033-3.101,1.8-4.4c1.667-1.2,3.467-1.733,5.4-1.6c1.101,0.066,1.967-0.117,2.601-0.55
	c0.566-0.433,0.983-1.15,1.25-2.15c0.133-0.4,0.434-0.8,0.9-1.2c0.433-0.367,0.899-0.617,1.399-0.75c0.8-0.2,2.4-1.083,4.801-2.65
	l5.05-3.55l1.95-1.75c0.4-0.533,0.634-1.133,0.7-1.8c0.066-0.634,1.017-0.983,2.851-1.05c1.434-0.067,2.35-0.717,2.75-1.95
	c0.434-1.267,0.134-2.7-0.9-4.3c-0.3-0.467-0.316-0.9-0.05-1.3c0.267-0.4,0.601-0.6,1-0.6c2.134,0,3-0.8,2.601-2.4
	c-0.167-0.667,0.217-1.85,1.149-3.55c0.801-1.467,2.084-3.184,3.851-5.15c2-2.233,4.2-4.3,6.601-6.2c0.533-0.4,0.733-0.733,0.601-1
	l-1.251-0.1c-2.666,0.867-4.967,1.467-6.9,1.8c-2.866,0.467-5.167,1.367-6.9,2.7l-5.65,4.4c-2.2,1.6-4.634,3.067-7.301,4.4
	c-2.2,1.133-3.917,3.717-5.15,7.75c-0.467,1.534-1.55,2.767-3.25,3.7c-1.352,0.705-2.655,1.017-3.912,0.983
	c-0.668-1.092-1.871-1.892-3.639-2.383c-3.1-0.867-6.233-0.25-9.4,1.85c-1.6,1.1-4.75,3.733-9.451,7.9
	c-5.4,4.801-9.167,8.501-11.301,11.101c-1.2,1.5-1.667,3.117-1.4,4.85c0.2,1.267,0.95,3.067,2.25,5.4
	c0.934,1.667,1.283,3.4,1.05,5.201c-0.2,1.7-1,3.883-2.4,6.55c-0.812,1.498-1.401,4.076-1.774,7.707
	c-3.31,1.391-6.241,2.942-8.791,4.655c-0.139-1.663-0.333-2.925-0.586-3.761c-0.367-1.267-2.034-3.5-5-6.7
	c-2.667-2.867-4.917-5-6.75-6.4c-1.767-1.333-4.083-2.284-6.95-2.851l-6.401-0.45c-4.633,0.134-10.967,1.101-19.001,2.9
	c-1.523,0.347-3.021,0.714-4.517,1.084c-1.646-4.508-3.901-8.507-6.784-11.985c-2.656-3.193-5.332-5.27-8.027-6.251
	c0.045-1.115,0.047-2.189-0.023-3.2c-0.034-0.733-0.233-1.117-0.6-1.15s-0.684,0.283-0.95,0.95c-0.314,0.824-0.819,1.75-1.493,2.769
	c-4.79-0.348-10.188,1.281-16.208,4.932c-6.05,3.648-12.333,9.1-18.843,16.314c-0.133-1.194-0.334-2.334-0.609-3.414
	c-0.133-0.667-0.35-0.983-0.65-0.95c-0.3,0-0.517,0.333-0.65,1c-0.22,1.41-0.721,2.805-1.451,4.186
	c0.181-2.061,0.22-4.219,0.101-6.486c-0.233-4.733-1.05-8.734-2.45-12.001c-0.267-0.566-0.583-0.816-0.95-0.75
	c-0.333,0.1-0.533,0.45-0.6,1.05c-0.467,4.467-3.684,10.917-9.651,19.352c-3.233,4.534-7.934,10.434-14.101,17.701
	c-2.2,2.6-4.067,5.9-5.6,9.901c-1.667,4.467-2.434,8.617-2.3,12.451l0.2,6.75l-0.226,8.277c-2.416,2.2-4.989,4.805-7.725,7.824
	c-3.367,3.667-5.951,6.817-7.75,9.451c-0.294,0.429-0.544,0.854-0.752,1.273l-31.75-2.423c-10.768-0.567-18.702-0.783-23.802-0.65
	c-2.196,0.08-3.954,0.447-5.289,1.093c-0.237-0.215-0.473-0.437-0.712-0.643c-2.7-2.267-6.134-2.75-10.301-1.45
	c-1.534,0.5-3.667,1.333-6.4,2.5c-2.567,1.067-4.4,1.9-5.5,2.5c-4.092,2.094-6.259,5.455-6.548,10.054
	c-1.885,0.052-3.994,0.182-6.353,0.397c-6.601,0.566-12.101,1.583-16.501,3.05c-0.533,0.167-0.783,0.4-0.75,0.7
	c0,0.3,0.283,0.5,0.85,0.6c3.466,0.607,6.746,1.216,9.872,1.827c-3.037,0.861-6.27,2.054-9.722,3.623
	c-4.067,1.867-6.934,3.567-8.601,5.101c-0.4,0.333-0.55,0.617-0.45,0.85c0.067,0.2,0.35,0.3,0.85,0.3h0.05
	c6.403-0.314,12.543-0.398,18.461-0.289c-2.675,2.109-5.266,4.51-7.761,7.24c-2.833,3.067-4.784,5.684-5.851,7.851
	c-0.233,0.5-0.3,0.817-0.2,0.95c0.1,0.167,0.433,0.167,1,0c3.333-1.067,7.584-2.833,12.751-5.3c1.679-0.789,3.187-1.528,4.554-2.225
	c-0.739,5.85,0.114,10.633,2.597,14.325c12.501,18.735,31.202,37.937,56.104,57.604c25.169,19.835,46.37,31.986,63.605,36.453
	c1.367,0.333,1.684-0.134,0.95-1.4c-5.11-8.772-11.74-18.397-19.864-28.86c8.205,5.517,17.92,10.598,29.141,15.245
	c-1.546,3.837-2.624,8.888-3.227,15.165c-0.833,8.901-0.583,18.368,0.75,28.402c3.071,22.516,9.88,42.417,20.391,59.729
	c-0.977,4.297-1.425,8.654-1.339,13.076c0.133,5.367,1.067,9.283,2.8,11.75c4.767,6.801,11.201,12.751,19.301,17.852
	c7.234,4.567,14.084,7.501,20.552,8.801c1.833,0.367,3.483,1.3,4.95,2.801c1.402,1.401,2.491,3.194,3.304,5.333
	c-1.88,3.975-4.625,8.096-8.254,12.368c-3.767,4.366-7.984,8.317-12.651,11.851c-4.4,3.3-8.334,5.601-11.801,6.9
	c-0.567,0.2-0.817,0.5-0.75,0.9c0.033,0.433,0.367,0.684,1,0.75l9.951,0.399l6.71-0.742c-0.452,0.145-0.914,0.308-1.36,0.442
	c-0.6,0.2-0.917,0.483-0.95,0.851c-0.034,0.399,0.3,0.649,1,0.75c4.767,0.633,10.901,0.6,18.401-0.101
	c0.183-0.018,0.354-0.04,0.536-0.058c-0.235,1.445-0.561,2.607-0.986,3.458c-0.5,1.033-1.233,1.801-2.2,2.301
	c-3.167,1.633-6.15,3.934-8.951,6.9c-1.247,1.298-2.335,2.586-3.275,3.866c-2.443,0.577-4.786,1.739-7.026,3.484
	c-1.365,1.05-2.423,2.124-3.191,3.22c-2.733,0.202-5.936,0.782-9.659,1.78c-3.934,1.066-7.268,2.267-10.001,3.601
	c-3.1,1.533-6,3.517-8.701,5.95c-2.666,2.396-4.802,4.955-6.419,7.675c-5.009,3.464-8.459,6.407-10.332,8.826
	c-0.333,0.4-0.434,0.75-0.3,1.05c0.167,0.268,0.517,0.434,1.05,0.5c2.7,0.2,5.767,0.15,9.201-0.149
	c2.808-0.218,5.371-0.571,7.704-1.054c-0.491,0.446-0.664,0.832-0.503,1.153c0.167,0.301,0.567,0.417,1.2,0.351l20.352-2.2
	l17.901-0.9c2.8,0,4.967-0.8,6.5-2.4c0.007-0.007,0.012-0.015,0.018-0.021c6.766-1.02,11.743-1.351,14.883-0.979
	c1.7,0.2,3.117,0,4.25-0.6c1.067-0.567,2.05-1.617,2.95-3.15c0.8-1.367,2.25-3.283,4.351-5.75c2.3-2.734,4.067-4.501,5.3-5.301
	c1.733-1.134,3.267-1.3,4.6-0.5l4.451,3c0.733,0.533,1.566,0.8,2.5,0.8c0.382,0.013,0.768-0.035,1.155-0.115
	c1.566,1.14,3.47,2.311,5.746,3.516c2.8,1.508,5.571,2.748,8.315,3.745c-0.672,0.288-1.357,0.599-2.064,0.955
	c-5.5,2.834-10.384,6.418-14.651,10.751c-3.934,4.049-6.287,7.749-7.08,11.105c-2.998,2.694-5.493,5.294-7.471,7.796
	c-0.733,0.934-0.517,1.483,0.65,1.65l9.951-0.3c4.167-0.528,7.931-1.438,11.334-2.683c-0.294,0.42-0.381,0.768-0.234,1.032
	c0.133,0.3,0.567,0.45,1.3,0.45c6.6-0.033,14.651-0.95,24.151-2.75c8.968-1.733,15.268-3.468,18.901-5.201
	c0.652-0.309,1.237-0.647,1.762-1.014c3.569-0.969,6.636-1.484,9.189-1.536c3.5-0.066,5.784-1.316,6.851-3.75
	c0.833-1.834,2.417-4.351,4.75-7.551c2.467-3.4,4.483-5.733,6.051-7.001l3.95,0.101l5.551,3.1c1.081,0.677,2.202,0.868,3.359,0.6
	c4.755,3.281,9.144,6.679,13.142,10.202c0.434,0.399,0.783,0.533,1.05,0.399c0.233-0.133,0.316-0.483,0.25-1.05
	c-0.467-3.2-1.333-6.634-2.6-10.301c-1.21-3.51-2.55-6.456-4.02-8.844c-0.026-0.152-0.041-0.304-0.081-0.457
	c-0.267-1.066-0.867-2.017-1.801-2.851c-3.366-3-7.15-5.9-11.351-8.7c-2.733-1.867-4.184-5.051-4.351-9.551
	c-0.133-4.367,0.967-7.851,3.301-10.451c3.467-3.833,5.75-7.583,6.851-11.25c1.133-3.634,0.967-6.801-0.5-9.501
	c-1.733-3.233-2.634-8.468-2.7-15.701c-0.025-5.628,0.475-10.314,1.488-14.082c0.387-0.178,0.768-0.36,1.168-0.525
	c0.025-0.01,0.052-0.019,0.076-0.029c0.627-0.255,1.268-0.495,1.926-0.719c0.053-0.019,0.107-0.034,0.16-0.052
	c0.632-0.211,1.277-0.41,1.938-0.593c0.079-0.021,0.161-0.041,0.24-0.063c0.639-0.172,1.289-0.332,1.955-0.478
	c0.104-0.022,0.211-0.043,0.316-0.065c0.648-0.137,1.308-0.262,1.981-0.373c0.123-0.021,0.248-0.039,0.371-0.059
	c0.668-0.105,1.348-0.199,2.04-0.28c0.131-0.016,0.264-0.03,0.396-0.045c0.702-0.077,1.417-0.142,2.145-0.194
	c0.122-0.009,0.244-0.018,0.367-0.025c0.744-0.05,1.501-0.085,2.271-0.109c0.122-0.003,0.244-0.008,0.367-0.011
	c0.784-0.02,1.578-0.024,2.38-0.019c0.132,0.001,0.262,0.001,0.395,0.003c0.599,0.008,1.209,0.032,1.818,0.055
	c0.676,2.56,2.842,4.631,6.503,6.212c3.534,1.567,8.784,2.967,15.752,4.2c7.033,1.267,12.584,1.784,16.65,1.551
	c3.841-0.216,7.421-1.246,10.744-3.081c2.423,0.451,4.952,0.916,7.592,1.396c0.112,2.079,1.197,3.926,3.266,5.534
	c2.001,1.567,4.518,2.65,7.551,3.251c8.634,1.8,17.368,3.1,26.202,3.899c3.867,0.334,7.567-0.283,11.101-1.85
	c1.156-0.51,2.326-1.147,3.509-1.892c37.851,6.281,68.416,10.767,91.648,13.442c0.967,0.1,1.483-0.033,1.55-0.4
	c0.067-0.333-0.267-0.816-1-1.45c-6.548-5.321-24.911-11.375-55.059-18.158c1.546-1.592,3.029-3.387,4.452-5.382
	c0.517-0.02,1.024-0.033,1.553-0.062c1.934-0.066,3.417-0.934,4.451-2.6c0.474-0.784,0.939-1.596,1.399-2.422
	c2.567-0.016,6.306,0.057,11.251,0.222l13.151,0.7l8.2-0.551c3.567-0.8,7.001-2.283,10.301-4.45
	c3.934-2.533,8.367-5.934,13.301-10.2c5.734-4.968,9.418-8.868,11.051-11.701c2.434-4.134,4.351-7.217,5.751-9.251
	c1.994-2.954,3.845-5.273,5.552-6.965c0.632-0.212,1.281-0.424,1.898-0.636c19.335-6.566,34.236-11.051,44.703-13.451
	c0.834-0.199,1.233-0.467,1.2-0.8c-0.033-0.3-0.399-0.583-1.1-0.851c-5.375-2.075-11.616-3.972-18.71-5.692
	c0.543-1.658,1.257-3.246,2.158-4.758c1.167-1.967,2.534-3.601,4.101-4.9c0.833-0.7,1.3-1.601,1.4-2.7
	c0.133-1.267-0.351-2.417-1.45-3.45c-3.268-3.134-6.2-6.367-8.801-9.7c-3.334-4.301-5.268-7.801-5.801-10.502
	c-0.3-1.666-0.55-4.3-0.75-7.9l-0.25-7.6c0-1.4,0.184-2.451,0.551-3.15c0.333-0.667,0.933-1.217,1.8-1.65
	c4.5-2.301,7.733-4.867,9.7-7.701c1.467-2.133,3.467-4.199,6.001-6.199c2.667-2.102,5.4-3.701,8.2-4.801
	c0.567-0.233,0.834-0.5,0.801-0.801c-0.034-0.333-0.351-0.583-0.95-0.75c-1.552-0.469-3.158-0.73-4.816-0.799
	c2.146-2.703,5.326-5.669,9.566-8.901c4.434-3.367,8.45-5.834,12.051-7.401c0.733-0.333,1.05-0.65,0.95-0.95
	C672.684,262.583,672.25,262.466,671.45,262.5z M279.483,86.642l4.288-0.255c1.166-0.138,2.271-0.281,3.337-0.428
	c0.066,0.345,0.148,0.688,0.263,1.028c0.075,0.235,0.165,0.449,0.257,0.658c-2.431,2.183-4.828,4.678-7.188,7.514l-2.62-0.076
	c0.312-0.957,0.628-1.947,0.95-2.996C279.155,90.82,279.39,88.997,279.483,86.642z M241.618,137.69
	c-0.267,4.701,0.75,8.434,3.05,11.201c2.3,2.733,5.567,4.117,9.801,4.15l19.852-1.5c6.195-1.01,11.164-2.463,14.945-4.344
	c-3.977,7.978-10.474,19.492-19.496,34.546c-11.501,19.168-21.151,33.936-28.952,44.304c-0.603,0.807-1.134,1.564-1.608,2.281
	c-1.467-1.482-3.582-3.872-6.344-7.167c0.204-0.329,0.381-0.664,0.501-1.014c0.3-0.9,0.383-2.05,0.25-3.451
	c-0.4-3.8-1.017-6.817-1.85-9.05c-0.633-1.767-1.817-3.05-3.55-3.851c-1.446-0.636-2.854-0.794-4.226-0.477
	c-0.086-0.997-0.195-2.078-0.33-3.255c1.95-2.376,2.848-5.606,2.656-9.719c-0.233-4.734-1.6-8.201-4.101-10.401
	c-0.405-0.334-0.795-0.535-1.172-0.619c0.911-4.685,2.645-8.784,5.222-12.282c0.467-0.633,0.583-1.067,0.35-1.3l-1.4,0.1
	c-2.117,1.015-3.792,2.271-5.076,3.74c0.3-2.852,0.755-5.977,1.376-9.39c0.733-3.867,1.467-7.101,2.2-9.701
	c0.167-0.6,0.133-0.983-0.1-1.15c-0.267-0.167-0.684-0.066-1.25,0.3c-3.085,2.056-5.746,5.006-7.997,8.823
	c-1.457-6.542-2.38-13.198-2.754-19.974c-0.332-6.077-0.081-10.968,0.745-14.686c2.226,0.004,4.733,0.353,7.556,1.085
	c3.733,1,6.6,2.3,8.601,3.9c2.3,1.833,4.917,2.517,7.851,2.05c2.197-0.349,3.966-1.223,5.323-2.604
	C241.854,131.138,241.832,134.287,241.618,137.69z M167.962,150.541c3.143-1.871,6.099-3.948,8.869-6.229
	c0.282,1.601,0.432,3.146,0.432,4.629c-0.033,1.9-0.3,4-0.8,6.3c-0.233,1.1,0.167,1.384,1.2,0.85c1.5-0.735,2.96-1.925,4.383-3.517
	c0.501,2.569,0.962,5.473,1.378,8.726c-4.574-3.428-10.228-6.725-16.961-9.892C166.957,151.131,167.453,150.847,167.962,150.541z
	 M165.643,273.115c1.045,2.216,1.973,4.397,2.784,6.544c-0.005,0.011-0.01,0.022-0.015,0.034c-0.839-1.353-1.608-2.424-2.299-3.193
	c-0.333-0.366-0.633-0.516-0.9-0.449c-0.3,0.1-0.517,0.383-0.65,0.85c-0.471,1.927-0.81,4.146-1.02,6.651
	c-0.575-2.553-1.136-5.34-1.681-8.401c-0.243-1.346-0.448-2.562-0.623-3.674L165.643,273.115z M278.321,508.067
	c-0.8-2.167-1.867-4.65-3.2-7.45c-1.365-2.81-2.631-5.117-3.802-6.938c-0.057-1.024-0.597-2.062-1.648-3.112l-4.5-4.65
	c-1.9-2.267-2.867-4.117-2.9-5.551c-0.2-6.167,0.15-10.018,1.05-11.551c1.506-2.526,2.459-4.733,2.881-6.632
	c3.769-1.366,7.591-2.968,11.47-4.818c13.034-6.231,22.057-12.797,27.087-19.694c0.072,0.182,0.143,0.358,0.215,0.543
	c1.934,4.967,3.283,8.934,4.051,11.9c1.199,4.534,1.75,8.501,1.649,11.901c-0.1,3.467-0.883,6.083-2.35,7.851
	c-2.534,3.1-5.268,7.583-8.201,13.45c-2.118,4.237-3.66,7.964-4.631,11.185c-1.88,1.695-3.914,3.658-6.12,5.917
	c-2.385,2.443-4.38,4.659-6.03,6.671c-1.522,0.091-3.186,0.46-4.985,1.097C278.343,508.144,278.336,508.11,278.321,508.067z"/>
</svg>
