<?xml version="1.0" encoding="utf-8"?>
<!-- Generator: Adobe Illustrator 16.0.0, SVG Export Plug-In . SVG Version: 6.00 Build 0)  -->
<!DOCTYPE svg PUBLIC "-//W3C//DTD SVG 1.1//EN" "http://www.w3.org/Graphics/SVG/1.1/DTD/svg11.dtd">
<svg version="1.1" id="图层_1" xmlns="http://www.w3.org/2000/svg" xmlns:xlink="http://www.w3.org/1999/xlink" x="0px" y="0px"
	 width="560px" height="567px" viewBox="0 0 560 567" enable-background="new 0 0 560 567" xml:space="preserve">
<path d="M558.5,0.726c-0.8-0.733-2.266-0.9-4.398-0.5c-12.197,2.266-35.591,7.965-70.182,17.096
	c-35.457,9.364-60.533,16.512-75.229,21.444c-4.732,1.6-9.447,4.182-14.146,7.748c-3.95,3.034-7.39,6.379-10.351,10.012
	c-0.429-0.078-0.968-0.073-1.646,0.035c-10.498,1.833-22.444,8.098-35.841,18.795c-11.896,9.498-20.128,18.195-24.693,26.093
	c-0.8,1.399-0.916,2.433-0.35,3.099c0.633,0.7,1.815,0.833,3.549,0.4c5.426-1.35,10.569-3.036,15.448-5.038
	c0.563,1.397,1.622,3.139,3.196,5.238c1.3,1.7,1.583,3.616,0.851,5.749c-2.3,6.632-4.282,14.33-5.949,23.094
	c-1.976,10.494-2.951,20.003-2.943,28.545c-0.194,0.253-0.396,0.502-0.609,0.748c-5.26-2.083-10.956-1.887-17.092,0.599
	c-6.222,2.482-12.191,7.042-17.913,13.641c-2.472-2.008-4.3-3.275-5.48-3.793c-1.933-0.867-5.748-1.316-11.447-1.35
	c-6.031-0.034-10.38,0.533-13.046,1.699c-1.233,0.533-3.366,2.183-6.398,4.949c-1.713,1.548-2.93,2.757-3.686,3.653
	c-1.934-1.103-3.043-3.231-3.312-6.402c-0.4-4.333-0.566-7.248-0.5-8.748c0.057-2.463,0.502-4.282,1.329-5.471
	c1.628,0.575,2.991,1.067,4.07,1.472l3.399,0.25c1.366-0.267,2.649-0.883,3.849-1.849c2.066-1.667,5.332-4.882,9.797-9.647
	c4.498-4.832,6.965-7.765,7.398-8.798c0.6-1.433,0.982-4.449,1.148-9.047c0.168-4.132,0.134-7.082-0.1-8.848
	c-0.199-1.533-1.016-4.232-2.449-8.098c-1.467-3.899-2.683-6.615-3.648-8.147c-1.3-2.1-4.016-5.115-8.148-9.048
	c-3.766-3.565-6.648-6.015-8.647-7.348c-1.266-0.867-2.149-1.217-2.649-1.05c-0.566,0.167-0.917,1.033-1.05,2.599
	c-0.079,1.22-0.127,2.999-0.143,5.318c-1.786-1.49-3.905-3.913-6.355-7.268c-2.299-3.199-4.366-6.415-6.198-9.647
	c-1.866-3.299-5.398-5.865-10.597-7.698c-11.597-3.399-18.512-5.565-20.745-6.498c-2.266-0.933-4.682-1.216-7.248-0.85
	c-1.862,0.242-3.544,0.801-5.056,1.657c-1.236-4.488-3.358-9.567-6.391-15.253c-3.466-6.565-6.632-10.93-9.498-13.096
	c-1.666-1.233-8.397-3.749-20.194-7.548c-10.964-3.532-19.045-5.898-24.244-7.098c-2.133-0.5-3.482-0.283-4.049,0.65
	c-0.533,0.9,0,1.899,1.6,3c4.365,2.932,15.179,10.63,32.441,23.094c0.6,0.433,1.017,0.883,1.25,1.35c0.2,0.433,0.333,1.05,0.4,1.85
	l0.55,14.996c0,1.433,0.4,2.916,1.2,4.449l2.999,4.949l3.299,5.199c0.433,0.633,0.983,1.083,1.649,1.35l2.149,0.25l6.798-0.1
	c0.899,0,1.399,0.55,1.5,1.65c0.2,2.932,0.783,6.332,1.75,10.197c0.21,0.839,0.492,1.6,0.839,2.292l-6.988,0.257l-6.648,0.7
	c-2.03,0.346-3.349,0.889-3.989,1.618c-15.265-1.286-35.77-1.378-61.543-0.269c-26.66,1.133-44.421,2.966-53.286,5.499
	c-3.132,0.866-3.866,2.482-2.2,4.849c4.666,6.598,8.281,11.197,10.847,13.796c1.367,1.366,3.116,2.066,5.249,2.099l28.714,1.019
	l-3.546,18.27c-3.594,1.292-6.686,2.544-9.272,3.755c-1.566,0.733-2.449,1.733-2.649,3c-0.233,1.199,0.2,2.299,1.3,3.299
	c5.365,5.199,9.797,8.415,13.296,9.647c1.666,0.566,3.149,0.9,4.449,1l4.149-0.35l3.963-0.676
	c10.325,4.818,17.625,8.117,21.907,9.901c-4.129,2.68-7.408,4.922-9.824,6.721c-2.5,1.833-2.783,3.616-0.85,5.349
	c1.333,1.2,4.766,3.899,10.297,8.098c0.7,0.533,1.583,0.8,2.649,0.8c1.033,0,2.033-0.233,2.999-0.7
	c2.5-1.3,6.349-3.049,11.547-5.249c4.35-1.815,7.961-3.242,10.842-4.285c-0.601,1.233-1.142,2.426-1.621,3.575
	c-0.672,0.53-1.369,1.089-2.123,1.709c-4.432,3.632-6.998,6.165-7.698,7.598c-0.7,1.433-1.383,3.565-2.049,6.398
	c-0.584,2.542-0.913,4.583-0.984,6.126c-6.652,1.812-12.693,5.835-18.111,12.119c-5.165,6.032-8.415,12.38-9.747,19.045
	c-0.162,0.879-0.118,1.569,0.105,2.094c-0.711,0.647-1.577,1.217-2.604,1.705c-1.267,0.6-2.5,0.916-3.699,0.95
	c-2.732,0.1-5.448,0.55-8.147,1.35c-1.733,0.533-4.232,1.466-7.498,2.799c-9.064,3.799-20.228,8.897-33.491,15.296
	c-17.095,8.198-27.209,13.746-30.342,16.646c-4.632,4.266-12.313,15.763-23.044,34.491C6.998,342.168,0.783,356.348,0.05,364.278
	c-0.233,2.532,0.217,4.266,1.35,5.198l6.249,4.648l5.948,3.55l2.849,0.25c0.933-0.267,1.616-0.866,2.05-1.8
	c1.974-4.116,4.245-8.33,6.792-12.633l6.904,4.436c2.623,1.557,4.823,2.77,6.648,3.678c-0.407,2.394-0.694,4.491-0.85,6.27
	c-0.267,2.965,0.4,4.748,2,5.348c1.366,0.5,3.649,0.917,6.848,1.25l6.898,0.45c0.9,0,1.616-0.167,2.149-0.5
	c0.7-0.433,1.216-1.2,1.55-2.3c0.718-2.22,1.854-5.042,3.408-8.466c5.826-2.052,10.775-3.532,14.849-4.442l-0.461,4.061
	c-0.3,2.434,0.516,3.783,2.449,4.049c1.566,0.201,3.583,0.234,6.048,0.101l5.148-0.649c1.133-0.334,2.016-0.783,2.649-1.35
	c0.667-0.634,1.25-1.584,1.75-2.85c1.833-4.532,4.682-13.08,8.548-25.643l7.298-24.444c0.5-1.633,1.05-2.999,1.649-4.099
	c0.7-1.267,1.683-2.516,2.949-3.749c4.066-3.933,8.531-9.265,13.396-15.995c2.298-3.202,4.219-6.134,5.772-8.801
	c3.73-2.439,7.198-5.016,10.374-7.746c3.899-3.399,6.898-6.598,8.998-9.597c0.833-1.167,1.083-2.05,0.75-2.649
	c-0.333-0.6-1.216-0.75-2.649-0.45c-3.827,0.765-7.364,1.751-10.644,2.932c2.503-5.191,6.363-7.993,11.594-8.381
	c5.198-0.367,11.03-2.433,17.495-6.198c6.459-3.739,10.75-7.694,12.881-11.863c1.709,3.089,3.776,6.193,6.213,9.314
	c2.125,2.723,4.087,4.917,5.889,6.593c2.349,3.028,3.873,7.44,4.558,13.252c0.7,5.965,0.217,10.448-1.45,13.446
	c-3.393,6.107-5.633,11.814-6.732,17.125c-3.749,2.433-7.536,6.601-11.362,12.518c-2.866,4.365-6.049,10.264-9.548,17.695
	c-0.633,1.399-1.2,2.416-1.699,3.049c-0.767,0.934-1.85,1.767-3.249,2.5c-6.698,3.532-18.162,10.146-34.391,19.844
	c-18.128,10.798-28.659,17.513-31.591,20.145c-1.92,1.717-2.773,3.739-2.559,6.065c-6.882,6.893-10.133,14.4-9.738,22.527
	c0.433,8.165,3.899,15.18,10.397,21.045c5.332,4.832,11.18,7.814,17.545,8.947l2.096-0.082c1.817,1.146,3.923,2.21,6.352,3.181
	c1.479,0.614,2.859,1.099,4.152,1.475c0.215,1.556,0.381,3.846,0.497,6.874c0.096,2.499,0.122,4.567,0.08,6.217
	c-0.418,0.559-0.817,1.081-1.179,1.53c-4.099,5.166-7.832,8.332-11.197,9.498c-1.1,0.366-1.949,0.966-2.549,1.8
	c-0.231,0.339-0.396,0.683-0.505,1.029c-1.554,0.351-3.382,1.418-5.493,3.219c-2.5,2.166-4.149,4.166-4.949,5.999
	c-0.8,1.799-1.433,4.481-1.899,8.048c-0.4,2.933-0.6,5.599-0.6,7.998c0,1.299,0.233,2.199,0.7,2.699
	c0.467,0.533,1.35,0.883,2.649,1.05l4.099,0.1l3.178-0.229c-0.009,0.743,0.013,1.485,0.071,2.229c0.133,1.6,0.417,2.733,0.85,3.399
	c0.667,1.133,1.866,1.699,3.599,1.699l7.098-0.699l5.46-1.324c-0.023,0.489-0.031,0.967-0.012,1.424c0.034,1.2,0.3,2.066,0.8,2.6
	c0.667,0.733,1.833,1.05,3.499,0.949c2.799-0.166,6.315-1.016,10.547-2.549c4.107-1.451,6.562-2.743,7.407-3.881
	c7.083-1.763,13.202-3.485,18.336-5.167c7.398-2.433,11.747-4.499,13.046-6.198c2.133-2.799,5.215-5.349,9.248-7.647
	c3.266-1.9,6.315-3.199,9.147-3.899c1.433-0.366,2.35-1.1,2.75-2.199c0.267-0.767,0.3-1.85,0.1-3.249
	c-1.367-9.697-3.933-17.829-7.698-24.394c-1.36-2.389-2.827-4.468-4.398-6.248c1.792-5.367,2.699-9.924,2.699-13.646
	c0.033-1.5-0.167-2.383-0.6-2.649c-0.466-0.333-1.483-0.233-3.049,0.3c-4.719,1.541-9.591,3.545-14.606,5.977
	c-1.837-1.287-3.651-2.806-5.438-4.577c-3.77-3.799-6.023-7.479-6.774-11.044c4.026-2.391,8.258-4.52,12.723-6.352
	c9.728-4,19.875-6.399,30.433-7.234c4.403,2.761,9.314,4.849,14.755,6.235c14.083,3.536,28.197,1.828,42.343-5.094
	c3.367,4.841,5.802,8.957,7.293,12.342c3.532,8.031,7.582,14.396,12.147,19.095c4.716,4.867,9.584,7.506,14.603,7.93
	c0.937,0.787,1.82,1.353,2.643,1.668c1.588,0.62,3.979,1.2,7.165,1.74c2.47,1.775,5.128,3.974,7.981,6.607
	c3.432,3.165,5.348,5.281,5.748,6.348c0.399,1.066,0.883,5.065,1.449,11.997c0.491,6.245,0.744,11.258,0.759,15.044
	c-2.798,2.893-5.583,6.371-8.356,10.449c-4.2,6.169-6.948,11.745-8.253,16.731c-2.092,2.529-3.981,5.29-5.644,8.312
	c-4.332,7.765-6.781,16.43-7.348,25.993c-0.334,5.832,2.666,8.614,8.998,8.348c3.732-0.133,8.563-0.999,14.495-2.599
	c5.219-1.419,8.608-2.728,10.183-3.929c1.238,0.431,2.956,0.725,5.164,0.879c2.026,0.162,3.765,0.175,5.243,0.052
	c0.714,2.403,2.383,4.589,5.054,6.547c3.599,2.6,8.064,4.232,13.396,4.898c5.465,0.667,10.297,0.084,14.496-1.749
	c3.75-1.649,6.366-4.119,7.888-7.382l3.709-0.416c1.433-0.353,2.665-0.775,3.717-1.26c0.848,1.814,2.781,3.518,5.831,5.108
	c3.665,1.966,7.897,3.249,12.696,3.849c5.065,0.634,9.265,0.283,12.597-1.05c3.832-1.499,5.832-4.115,5.998-7.848
	c0.434-9.298-0.466-17.762-2.699-25.394c-0.955-3.298-2.163-6.396-3.595-9.317c0.07-2.392-0.044-4.686-0.354-6.878
	c-0.367-2.933-1.117-6.048-2.25-9.348c-0.691-1.992-1.702-3.833-3.025-5.527c-1.39-5.68-4.283-13.383-8.722-23.165
	c-4.231-9.331-8.414-17.462-12.546-24.394c-1.033-1.766-2.416-3.349-4.149-4.748c-1.366-1.133-3.249-2.366-5.648-3.699
	c-3.032-1.666-8.131-5.898-15.296-12.696c-2.853-2.706-5.281-5.11-7.3-7.224c15.097,2.274,29.627,0.471,43.59-5.424
	c13.863-5.864,25.66-15.063,35.391-27.592c9.664-12.464,15.946-26.51,18.845-42.139c0.171-0.92,0.325-1.838,0.47-2.756
	c5.403-6.185,11.507-13.856,18.303-22.996c1.409,0.908,3.063,2.04,4.972,3.408l5.599,4.248c0.866,0.733,1.666,0.967,2.399,0.7
	c0.8-0.3,1.399-1.134,1.8-2.499c0.899-2.967,1.766-8.082,2.599-15.347c0.718-6.284,1.137-11.847,1.261-16.698
	c10.372-15.078,18.721-27.996,25.032-38.737c0.634-1.066,0.816-1.966,0.55-2.699c-0.333-0.833-1.232-1.383-2.699-1.649
	c-5.562-1.007-12.305-1.832-20.203-2.478c1.75-3.901,3.288-7.032,4.607-9.369c0.7-1.3,0.75-2.167,0.15-2.6
	c-0.601-0.4-1.667-0.267-3.199,0.4c-3.791,1.662-8.845,5.225-15.161,10.689c-5.057-0.251-10.459-0.45-16.23-0.591
	c-5.317-0.137-10.471-0.216-15.472-0.241c-2.214-1.258-5.164-2.759-8.872-4.508c-4.299-1.966-7.481-3.316-9.548-4.049l-2.349-0.1
	c-0.434,0.267-0.634,0.9-0.601,1.899c0,1.604,0.174,3.942,0.518,7.003c-5.734,0.173-11.194,0.444-16.423,0.796
	c-6.243-3.693-12.846-6.558-19.809-8.59c-0.554-4.944-1.463-10.23-2.775-15.904c-2.966-12.93-6.498-22.061-10.598-27.393
	c-1.633-2.1-2.832-1.966-3.599,0.4c-0.767,2.299-1.732,5.865-2.899,10.697c-1.3,5.332-2.032,9.031-2.199,11.097
	c-0.012,0.176-0.017,0.336-0.023,0.5c-5.982-5.479-13.854-7.066-23.62-4.749c-1.6,0.367-2.732,0.067-3.399-0.899
	c-2.206-3.31-5.221-5.962-9.016-7.978c5.462-1.856,10.189-5.514,14.164-11.018c4.266-5.998,6.415-12.413,6.448-19.245
	c0-0.567,0.384-0.833,1.15-0.8c3.398,0.133,5.882,0.117,7.448-0.05c2.532-0.267,4.998-1.316,7.397-3.149
	c3.166-2.433,6.998-5.166,11.497-8.198c1.166-0.767,2.166-1.3,2.999-1.6l2.899-0.35l47.587,1.65
	c22.395,0.6,36.99,0.899,43.788,0.899c1.566,0,2.816-0.25,3.749-0.75c0.7-0.4,1.5-1.133,2.399-2.2l8.948-11.497
	c3.699-5.032,6.515-9.114,8.447-12.247c0.733-1.166,0.95-2.199,0.65-3.099c-0.367-1-1.367-1.683-3-2.049
	c-3.828-0.842-9.028-1.812-15.584-2.907l14.585-12.139l13.569-11.605l6.575-1.041c2.166-0.3,3.665-1.167,4.499-2.6l6.947-13.396
	l6.499-12.946c0.466-1.233,0.3-2.316-0.5-3.249c-0.866-1.033-2.233-1.55-4.099-1.55c-1.311-0.005-2.762,0-4.326,0.013
	c-1.594-3.749-3.697-8.344-6.321-13.809l-5.848-11.556c13.108-4.056,22.044-6.637,26.792-7.739c1.933-0.433,3.365-1.166,4.299-2.199
	c0.833-0.9,1.533-2.35,2.1-4.349c1.232-4.232,4.516-13.347,9.847-27.343C559.4,2.575,559.3,1.425,558.5,0.726z M294.321,242.661
	c3.993,3.417,8.317,5.903,12.961,7.503c-1.685,0.921-3.346,1.877-4.964,2.894c-16.077,10.151-26.236,23.382-30.506,39.679
	c-1.228-0.667-2.367-1.122-3.43-1.392c-1.213-1.67-2.053-4.308-2.504-7.946c-0.467-3.632-0.5-7.115-0.1-10.447
	c0.133-1.333,0.616-2.566,1.45-3.699l3.349-3.999c1.699-1.899,3.065-3.216,4.099-3.949c2.233-1.633,4.016-3.782,5.349-6.448
	c2.667-5.265,4.348-9.88,5.049-13.846c0.1-0.533,0.399-0.95,0.898-1.25c0.467-0.267,1.033-0.4,1.7-0.4c1.2,0,2.399,0.35,3.599,1.05
	L294.321,242.661z"/>
</svg>
