<?xml version="1.0" encoding="utf-8"?>
<!-- Generator: Adobe Illustrator 16.0.0, SVG Export Plug-In . SVG Version: 6.00 Build 0)  -->
<!DOCTYPE svg PUBLIC "-//W3C//DTD SVG 1.1//EN" "http://www.w3.org/Graphics/SVG/1.1/DTD/svg11.dtd">
<svg version="1.1" id="图层_1" xmlns="http://www.w3.org/2000/svg" xmlns:xlink="http://www.w3.org/1999/xlink" x="0px" y="0px"
	 width="301px" height="403px" viewBox="0 0 301 403" enable-background="new 0 0 301 403" xml:space="preserve">
<path d="M300.188,244.866c-0.067-1.399-0.483-2.647-1.249-3.747c-0.633-0.999-1.466-1.782-2.498-2.348
	c-2.932-1.699-5.613-2.549-8.045-2.549c-1.299,0-2.465-0.482-3.497-1.449c-1.065-0.999-1.532-2.048-1.399-3.146l0.551-3.898
	c0.232-2.298,0.116-3.979-0.35-5.045c-0.6-1.3-2.915-4.164-6.945-8.594c-4.363-4.83-7.744-7.979-10.143-9.443
	c-3.098-1.865-6.096-1.916-8.993-0.15c-1.421,0.85-3.19,1.812-5.269,2.874c0.812-4.621,1.385-11.303,1.721-20.061
	c0.29-9.151,0.14-16.396-0.438-21.771l4.735-2.611c1.965-1.266,3.131-2.398,3.498-3.397c0.6-1.765,0.449-5.563-0.45-11.392
	c-0.833-5.563-1.698-9.16-2.599-10.792c-0.735-1.391-2.778-2.101-6.083-2.151c2.058-2.874,3.826-6.063,5.284-9.59
	c2.232-5.396,3.298-10.692,3.197-15.888c-0.1-5.196-1.332-9.426-3.697-12.69c-4.396-5.896-9.476-9.959-15.238-12.191
	c-2.636-0.988-5.3-1.542-7.99-1.682c0.329-1.53,0.553-3.039,0.657-4.521c25.83-9.387,39.937-14.98,42.311-16.78
	c1.673-0.707,2.738-3.632,3.194-8.793c0.533-5.829,0.199-13.074-1-21.734c-0.799-5.795-2.064-11.341-3.797-16.638
	c-2.035-6.138-3.961-9.196-5.776-9.192c-1.965-0.407-8.064-0.274-18.306,0.399l-23.532,2.098l-9.144,0.3
	c-2.564-0.3-5.079-1.083-7.544-2.348c-10.292-5.196-21.9-6.995-34.824-5.396c-11.521,1.406-21.087,5.133-28.709,11.164
	c-5.073-0.202-11.976-0.194-20.754,0.028l-18.786,0.7c-3.397,0.267-6.545,3.031-9.443,8.294c-1.424,2.535-2.639,5.362-3.655,8.468
	c-11.708,0.242-22.998,2.96-33.867,8.17c-10.858,5.196-20.501,12.457-28.928,21.784c-8.46,9.393-14.972,20.068-19.536,32.026
	c-2.55,6.699-4.373,13.545-5.48,20.534c-0.873,0.527-1.714,1.09-2.514,1.699c-1.632,1.299-2.748,2.532-3.347,3.697
	c-1.099,2.332-1.449,7.411-1.049,15.239c0.399,7.961,1.382,13.74,2.948,17.337c1.155,2.659,3.148,4.789,5.949,6.409
	c1.519,6.901,3.563,14.09,6.142,21.57c3.747,10.971,7.838,20.367,12.271,28.204c-1.488,2.574-2.964,5.451-4.427,8.669
	c-1.699,3.764-2.598,6.245-2.698,7.444c-0.3,4.13,1.798,9.06,6.295,14.789c3.048,3.854,6.058,6.589,9.03,8.258
	c-0.522,1.412-0.809,2.968-0.835,4.683c-0.034,2.198,0.366,4.18,1.199,5.945c1.266,2.665,1.949,4.63,2.049,5.896
	c0.1,1.199-0.283,2.682-1.149,4.446l-2.198,4.848c-0.833,1.832-1.249,3.247-1.249,4.246c0,2.398,0.849,6.396,2.548,11.991
	c1.699,5.563,3.181,9.159,4.447,10.792c0.866,1.1,3.397,3.131,7.594,6.096c4.264,3.031,6.878,4.547,7.844,4.547l4.697-0.9
	l4.996-0.249c0.5,0.3,0.933,1.998,1.299,5.097c0.466,3.396,0.816,5.313,1.049,5.745c0.267,0.532,2.981,2.315,8.144,5.346
	c4.697,2.765,8.111,4.663,10.242,5.696c1.199,0.6,2.665,0.799,4.397,0.6c1.532-0.2,2.865-0.666,3.997-1.399
	c1.033-0.699,2.115-1.016,3.248-0.949c1.299,0.033,2.432,0.532,3.397,1.499c1.166,1.199,2.748,2.332,4.747,3.397
	c2.298,1.299,4.147,1.898,5.546,1.798l8.893,0.5l9.296,1.448c0.378,0.741,0.712,1.362,0.997,1.85
	c1.033,1.698,1.882,2.515,2.548,2.448l3.947,0.1c1.865,0.233,3.314,0.65,4.347,1.25c1.499,0.898,3.231,1.531,5.196,1.898
	c1.865,0.332,3.364,0.35,4.497,0.049c1.099-0.299,2.314-1.481,3.646-3.547l2.299-3.447c0.5-0.333,1.565-0.467,3.197-0.4
	c1.633,0.067,2.832,0.301,3.598,0.7c0.832,0.433,2.715,2.349,5.646,5.745c1.333,1.566,3.181,2.498,5.546,2.799
	c1.898,0.232,3.881,0.033,5.945-0.6c2.166-0.633,4.547-1.799,7.145-3.498c2.299-1.565,4.081-3.064,5.347-4.496
	c0.658-0.786,1.332-1.391,2.018-1.852l6.426,6.198c3.497,3.497,5.88,5.579,7.146,6.245c1.498,0.833,3.113,1.316,4.846,1.449
	c1.666,0.1,3.264-0.133,4.797-0.699c0.699-0.334,1.799-0.483,3.297-0.45c1.399,0.033,2.281,0.183,2.648,0.45
	c0.333,0.166,1.332,1.182,2.998,3.047l3.847,4.646c-1.433,1.299-2.765,2.898-3.997,4.797c-1.232,1.832-1.849,3.147-1.849,3.947
	c0,1.032,1.583,2.831,4.747,5.396c3.396,2.764,6.062,4.014,7.994,3.746l3.597-2.797c2.331-1.865,3.931-2.715,4.796-2.549
	c0.967,0.133,2.416,1.282,4.348,3.447c1.799,2.099,2.73,3.564,2.798,4.396c0.066,0.867-0.733,3.016-2.398,6.445
	c-0.399,1-0.6,1.799-0.6,2.398c0,1,0.433,1.932,1.3,2.798c0.832,0.833,1.781,2.265,2.848,4.297c1.099,1.999,1.765,3.515,1.998,4.547
	c0.366,1.332,1.016,2.382,1.949,3.147c0.832,0.633,1.781,0.933,2.848,0.899l3.896,0.2l3.447-0.45c0.334-0.233,0.6-0.799,0.8-1.698
	c0.267-0.899,0.565-1.532,0.899-1.898c0.933-0.933,1.299-1.799,1.1-2.599c-0.167-0.8-0.767-1.382-1.799-1.749
	c-1.799-0.699-3.298-1.465-4.497-2.298c-1.099-0.767-1.665-1.382-1.698-1.849c-0.033-0.633,0.716-1.549,2.248-2.748l4.146-2.898
	c0.899-0.599,1.532-1.231,1.898-1.898c0.301-0.532,0.483-1.215,0.55-2.048c0.2-3.798,0.217-6.679,0.05-8.644
	c-0.166-1.332-0.766-2.314-1.799-2.947c-0.799-0.5-1.715-0.717-2.748-0.65l-6.145,0.699c-1.766-2.931-3.964-5.795-6.596-8.594
	c2.498-3.131,3.997-5.462,4.497-6.994c0.366-1.166,0.616-2.947,0.749-5.346c0.167-2.665,0.033-4.348-0.399-5.047
	c-0.366-0.6-1.166-1.115-2.398-1.549l-3.347-0.5c-0.434-3.131-1.467-6.944-3.098-11.441l14.389-9.692l13.189-8.743
	c1.966-1.466,2.499-3.381,1.6-5.746c-1-2.598-1.116-4.563-0.35-5.896l3.697-3.647c2.198-2.131,3.764-4.063,4.696-5.795
	c1.731-3.164,2.415-6.896,2.048-11.192l2.249-1.798l2.548-1.5c2.232-0.965,3.397-2.364,3.498-4.196l0.449-13.69L300.188,244.866z
	 M69.21,85.785c6.959-11.36,15.242-19.014,24.843-22.983c1.278,3.073,3.083,5.203,5.435,6.346
	c8.341,4.075,18.837,8.411,31.438,13.004c-0.131,1.462-0.155,2.908-0.062,4.333c0.133,1.799,0.85,3.764,2.148,5.896
	c0.993,1.6,2.023,2.838,3.085,3.752c-6.933,0.418-12.975,3.014-18.124,7.789c-5.462,5.063-8.81,11.475-10.042,19.236l-0.5,1.798
	l-0.999,1.099c-4.63,4.13-8.294,9.859-10.992,17.188c-2.764,7.627-3.48,14.339-2.148,20.135c0.766,3.231,3.564,6.512,8.394,9.843
	c4.23,2.998,8.044,4.796,11.441,5.396c1.466,0.233,3.831,0.233,7.095,0l7.794-1.049c0.676-0.172,1.708-0.585,3.086-1.234
	c1.844,2.623,3.031,4.434,3.559,5.431c0.933,1.965,1.515,4.414,1.749,7.345c0.609,8.292,0.88,14.535,0.82,18.782
	c-1.169,0.227-2.308,0.521-3.42,0.875l0.051-0.521c0.067-1.6-1.032-3.648-3.297-6.146c-2.165-2.364-4.88-4.596-8.144-6.694
	c-8.061-5.229-13.989-6.778-17.787-4.646c-3.897,2.198-7.211,4.28-9.942,6.245c-1.248,0.905-2.61,1.965-4.077,3.169
	c-3.442-2.732-7.243-6.51-11.412-11.363c-4.629-5.42-7.666-9.996-9.148-13.747c1.086-1.285,2.156-2.659,3.203-4.14
	c2.065-2.964,3.364-5.413,3.897-7.344c0.399-1.366,0.649-3.331,0.75-5.896c0.06-2.206-0.022-4.074-0.229-5.64
	c-0.011-0.522-0.067-1.073-0.171-1.655c-0.6-3.264-1.948-7.645-4.047-13.14c-2.432-6.195-4.58-10.326-6.445-12.391
	c-0.762-0.87-1.875-1.483-3.304-1.865c-1.394-0.538-3.131-1.007-5.228-1.407C58.596,109.249,62.167,97.315,69.21,85.785z
	 M233.938,172.72c-0.066,0.433-1.232,1.599-3.498,3.497c-2.23,1.899-3.463,3.331-3.696,4.297c-0.467,2.065-0.533,4.946-0.2,8.644
	c0.367,4.364,1.232,7.111,2.598,8.244l3.798,1.749c2.165,0.899,3.298,1.565,3.397,1.999c0.068,0.386,0.106,0.855,0.12,1.396
	c-0.533-0.539-1.18-0.874-1.969-0.946l-4.297-0.75c-1.065-0.366-1.731-0.916-1.999-1.649c-0.433-1.332-1.349-2.298-2.748-2.897
	l-4.196,0.1l-1.948,0.649l-1.85,0.4c-0.898-1.532-2.248-3.048-4.047-4.546c-0.156-0.131-0.384-0.244-0.68-0.339
	c0.146-3.938,1.055-7.772,2.729-11.502c1.466-3.331,3.381-6.246,5.746-8.744c2.74-2.967,6.285-7.257,10.617-12.846
	C233.475,166.761,234.184,171.181,233.938,172.72z"/>
</svg>
