<?xml version="1.0" encoding="utf-8"?>
<!-- Generator: Adobe Illustrator 16.0.0, SVG Export Plug-In . SVG Version: 6.00 Build 0)  -->
<!DOCTYPE svg PUBLIC "-//W3C//DTD SVG 1.1//EN" "http://www.w3.org/Graphics/SVG/1.1/DTD/svg11.dtd">
<svg version="1.1" id="图层_1" xmlns="http://www.w3.org/2000/svg" xmlns:xlink="http://www.w3.org/1999/xlink" x="0px" y="0px"
	 width="361px" height="438px" viewBox="0 0 361 438" enable-background="new 0 0 361 438" xml:space="preserve">
<path d="M357.708,342.476c-0.714,0.071-1.339-0.286-1.874-1.071c-0.214-0.214-0.429-0.285-0.643-0.214
	c-1.892,0.5-4.783,1.678-8.674,3.534c-4.105,1.928-6.836,3.463-8.193,4.605l-0.428,0.588c-0.036,0.179,0.054,0.447,0.268,0.804
	c1.035,1.571,2.07,3.517,3.105,5.837c0.893,2.105,1.321,3.391,1.285,3.854c-0.107,0.321-0.731,0.679-1.874,1.071
	c-0.849,0.299-1.641,0.487-2.384,0.577c-0.205-0.787-0.436-1.544-0.722-2.237l-0.482-0.589l-0.856,0.054l-3.802,0.535
	c-1.07-0.071-2.034-0.589-2.892-1.553c-2.998-3.32-4.926-5.033-5.782-5.141c-1.274-0.182-2.795,0.118-4.559,0.89
	c-0.468-5.986-1.216-11.066-2.242-15.239c-1.499-6.033-4.373-13.029-8.62-20.99c-2.893-5.391-4.284-12.119-4.177-20.187
	c0.321-20.954-4.891-38.106-15.636-51.456c-3.656-4.52-7.681-8.121-12.064-10.824c4.645-3.707,8.548-6.179,11.689-7.382
	c1.107-0.429,2.053-0.696,2.838-0.804l3.535,0.161c2.391,0.356,5.889-0.125,10.494-1.446c4.677-1.392,8.104-2.998,10.28-4.818
	c1.464-1.25,3.231-3.427,5.302-6.533c1.928-2.963,3.177-5.265,3.748-6.907c0.928-2.57,0.643-5.015-0.857-7.335
	c-1.356-2.106-3.408-3.713-6.157-4.819c2.463-9.138,5.622-17.42,9.478-24.845c1.428-2.678,2.98-4.801,4.658-6.372
	c1.643-1.606,3.784-2.999,6.426-4.177c2.748-1.249,4.676-2.517,5.783-3.802l2.677-2.463l2.838-2.249
	c1.999-1.678,3.552-4.301,4.658-7.871c1.143-3.677,1.643-7.925,1.5-12.744c-0.144-5.39-1.071-10.013-2.785-13.868
	c-1.606-3.641-3.408-5.569-5.407-5.783c-1.464-0.143-3.303,0.66-5.516,2.409l-5.676,4.284l-1.231,0.268
	c-0.286-0.178-0.643-0.714-1.071-1.606c-0.571-1.214-0.928-2.892-1.07-5.033l-0.429-5.569c-0.5-3.784-2.855-8.728-7.068-14.832
	c-3.926-5.747-7.639-9.942-11.137-12.583c-2.702-2.052-4.526-5.083-5.491-9.069c1.9-2.791,4.54-6.483,7.954-11.118
	c1.82-2.463,2.284-4.89,1.392-7.282c-0.642-1.678-0.892-3.142-0.749-4.391c0.143-1.071-1.035-2.784-3.534-5.14
	c-2.963-2.82-6.622-5.64-10.977-8.46c-4.748-3.07-8.031-4.551-9.853-4.444c-2.284,0.071-6.318,2.195-12.101,6.372l-5.783,3.267
	c-2.564,1.251-4.976,2.281-7.252,3.115c-4.653-0.549-9.286-1.319-13.898-2.312c-6.996-1.5-12.102-3.159-15.314-4.98
	c-3.161-1.807-6.161-3.098-9.002-3.884c-0.015-0.027-0.032-0.051-0.047-0.079c-1.356-2.606-2.178-5.497-2.463-8.674
	c-0.429-5.426-4.73-10.12-12.904-14.082C204.693,2.945,192.182,0.464,176.404,0c-9.638-0.286-19.348,2.32-29.128,7.817
	c-9.21,5.176-15.118,10.852-17.724,17.027c-3.855,9.139-9.156,16.224-15.903,21.257c-6.89,5.212-9.62,11.495-8.192,18.848
	l1.017,9.21l0.643,10.066c0.286,4.748,3.98,8.746,11.084,11.994c6.176,2.856,13.529,4.605,22.061,5.248
	c4.177,0.357,9.656-0.625,16.438-2.945c7.211-2.463,12.28-5.336,15.207-8.621c4.528-5.091,8.731-8.863,12.617-11.352
	c0.645,2.657,1.088,5.589,1.305,8.835c0.107,1.606,0.481,2.731,1.124,3.374c0.5,0.535,1.535,0.999,3.106,1.392
	c1.998,0.535,6.656,1,13.975,1.392c7.675,0.357,12.459,0.268,14.35-0.268c1.857-0.571,4.784-2.695,8.782-6.372
	c3.177-2.999,5.657-5.586,7.442-7.764c0.465-0.643,0.893-1.089,1.285-1.338c0.465-0.357,1.143-0.643,2.035-0.857
	c3.248-0.857,8.104-0.286,14.564,1.713c2.941,0.914,5.774,1.994,8.507,3.225c0.156,3.106,0.107,6.934-0.154,11.5
	c-0.214,3.07,1.41,6.247,4.872,9.531c1.75,1.678,4.891,3.356,9.424,5.034c3.963,1.463,7.211,2.356,9.746,2.677
	c1.785,0.178,3.23-0.072,4.337-0.75c2.07-1.142,4.462-2.106,7.175-2.891c3.534,3.32,6.604,7.532,9.21,12.637
	c2.856,5.533,4.444,10.798,4.766,15.795l-8.728,6.854c-3.641,2.999-5.623,4.801-5.943,5.408c-1.178,2.249-1.964,6.05-2.356,11.405
	c-0.393,5.319-0.179,8.978,0.643,10.977c0.321,0.821,1.018,1.535,2.089,2.142c3.069,1.606,5.318,3.142,6.746,4.605
	c-4.641,9.388-8.96,16.42-12.958,21.097c-1.678,1.928-3.659,3.052-5.943,3.374c-1.999,0.286-4.017-0.071-6.051-1.071
	c-1.035-0.5-2.374-0.518-4.016-0.054c-1.714,0.464-3.605,1.41-5.676,2.838c-1.285,0.893-2.534,2.892-3.749,5.997
	c-1.07,2.785-1.605,4.908-1.605,6.372c0,1.642,0.357,3.124,1.07,4.444c0.75,1.356,1.643,2.088,2.678,2.195l0.688,0.116
	c-3.972,3.291-8.317,5.831-13.044,7.611c-1,0.081-2.003,0.191-3.012,0.357l-14.437,0.482c-1.354-0.991-2.804-2.234-4.358-3.748
	c-6.318-6.104-12.137-10.834-17.455-14.19c-7.211-4.534-14.726-7.479-22.543-8.835c-3.713-0.643-6.586-1.303-8.621-1.981
	c-1.349-0.45-2.643-1.029-3.886-1.724c16.826-7.609,27.047-13.942,30.66-18.999c1.105-1.571,1.73-5.104,1.873-10.602
	c0.143-5.961-0.375-12.494-1.553-19.598c-1.463-8.639-3.463-15.171-5.996-19.597c-2.57-4.498-5.605-6.675-9.104-6.533l-16.759,1.446
	c-7.39,0.928-14.458,2.088-21.204,3.48c-10.316-4.426-21.65-6.14-34.001-5.141c-12.387,1-24.095,4.605-35.125,10.816l-11.94-0.857
	l-11.62-0.214c-4.212-0.072-8.496,2.463-12.851,7.603c-4.284,5.034-7.479,11.173-9.584,18.42
	c-2.249,7.675-2.642,15.064-1.178,22.167c1.464,7.318,4.623,12.851,9.478,16.599c2.351,1.829,5.926,3.883,10.695,6.16
	c0.024,0.052,0.042,0.107,0.067,0.159c1.535,3.284,4.176,5.586,7.925,6.907l1.071,0.107l0.482-1.017l0.4-1.911l2.853,1.031
	c0.83,1.427,1.802,2.767,2.907,4.025c0.992,2.273,2.2,4.388,3.639,6.332c1.343,1.827,2.802,3.36,4.358,4.646
	c-4.373,5.899-7.585,11.847-9.605,17.842c-2.07,6.104-3.195,13.083-3.374,20.937c-0.178,9.424-0.643,17.599-1.392,24.523
	c-0.643,5.854-1.624,11.763-2.945,17.724c-0.357,1.678-0.857,3.07-1.5,4.176l-2.249,3.053c-4.141,4.783-7.96,11.28-11.459,19.49
	c-2.45,5.747-4.532,11.869-6.245,18.367l-3.982-0.322c-1.392,0-2.285,0.678-2.677,2.035c-0.607,2.178-2.106,3.712-4.498,4.604
	c-2.213,0.821-4.783,0.964-7.71,0.429c-1.963-0.357-3.427-0.34-4.391,0.053c-0.893,0.393-1.624,1.268-2.195,2.624l-2.999,6.318
	c-1.285,2.07-3.105,3.73-5.461,4.979c-1.464,0.785-1.731,1.945-0.803,3.48c0.823,1.401,1.935,2.857,3.303,4.363
	c-1.782,1.42-3.72,3.315-5.82,5.703c-5.64,6.426-8.746,12.78-9.317,19.063c-0.143,1.714-0.036,2.73,0.321,3.052
	c0.357,0.286,1.178,0.161,2.463-0.374c3.684-1.422,6.624-2.723,8.846-3.908c-0.279,1.246-0.451,2.445-0.493,3.587
	c-0.071,1.713,0.107,2.784,0.536,3.212c0.428,0.393,1.338,0.393,2.731,0c5.036-1.339,9.591-3.023,13.716-5.017
	c-0.23,0.734-0.431,1.461-0.598,2.179c-0.428,1.785-0.482,2.892-0.161,3.32l3.106,0.054c9.209-2.07,16.331-3.32,21.364-3.748
	c0.954-0.1,1.811-0.35,2.584-0.732c2.368-0.222,5.037-0.142,8.018,0.25c1.785,0.214,3.57-0.464,5.354-2.034
	c1.25-1.071,3.088-1.606,5.515-1.606c1.999,1.499,4.141,2.498,6.425,2.998l7.015-0.321c1.535-0.5,3.445-1.32,5.729-2.463
	c2.356-1.178,3.944-2.124,4.765-2.838c0.821-0.75,1.589-2.249,2.303-4.498c0.607-1.892,1.053-3.891,1.338-5.997
	c0.143-0.999,0.321-1.784,0.536-2.356c0.464-0.749,0.696-1.623,0.696-2.623c0-0.785,0.107-1.339,0.321-1.66
	c0.25-0.393,0.714-0.643,1.392-0.75c0.607-0.106,2.106-0.695,4.498-1.767l5.194-0.214l2.785-0.107
	c0.964-0.32,1.713-0.91,2.249-1.767l2.517-2.892c1.285-1.356,2.32-2.32,3.106-2.892c0.964-0.679,1.321-1.945,1.071-3.802
	l-1.231-4.498c-0.214-0.678-0.286-1.535-0.214-2.57c0.107-0.963,0.286-1.73,0.536-2.302c0.178-0.393,0.518-0.821,1.017-1.285
	c0.536-0.5,1.018-0.821,1.446-0.964c0.607-0.143,2.463,0.25,5.569,1.178c0.5,0.107,0.856-0.053,1.071-0.481
	c1.106-1.892,2.57-3.23,4.391-4.017c0.893-0.393,1.5-0.82,1.821-1.285c0.357-0.535,0.535-1.267,0.535-2.195
	c0-1.57,0.214-2.908,0.643-4.016c0.179-0.57-0.018-0.91-0.589-1.018c-3.284-0.499-6.443,0.679-9.478,3.535
	c-0.893,0.82-2.374,1.285-4.444,1.392l-5.087-0.589c-1.356-0.5-2.534-0.34-3.534,0.482c-1.071,0.855-1.267,2.016-0.589,3.479
	l-0.964,2.945c-0.393,0.535-0.607,1.071-0.643,1.606l0.107,1.393c0.143,0.606-0.161,1.142-0.91,1.605l-1.821,0.482l-2.088-0.054
	c-0.571-0.143-1.339-0.839-2.303-2.089c-1.035-1.392-1.66-2.677-1.874-3.854c-0.178-1.285-0.553-2.214-1.125-2.784
	c-0.571-0.571-1.428-0.893-2.57-0.965c-1.323-0.09-2.994-0.085-4.975,0.002c1.348-8.742,2.169-19.032,2.458-30.896l0.214-2.089
	c0.179-0.679,0.518-1.445,1.018-2.302c1.66-2.745,4.206-7.89,7.634-15.424c1.437,1.742,3.036,3.393,4.842,4.929
	c4.498,3.784,9.727,6.532,15.688,8.245c5.39,1.535,10.423,2,15.1,1.393l5.944-0.535l6.05,0.535l9.576,0.546
	c0.437,2.944,1.229,5.696,2.418,8.235c1.194,2.559,2.687,4.631,4.462,6.242c-0.915,5.468-2.468,10.602-4.676,15.391
	c-1.037,2.215-2.198,4.297-3.469,6.263c-0.241-0.356-0.547-0.642-0.921-0.854c-0.714-0.393-1.517-0.482-2.41-0.268
	c-4.605,1.32-7.8,2.944-9.584,4.872c-1.341,1.407-1.909,3.284-1.721,5.62c-0.435,0.1-0.847,0.177-1.224,0.217
	c-1.285,0.143-1.999-0.107-2.142-0.75c-0.179-1.035-0.696-1.874-1.553-2.517c-0.714-0.5-1.41-0.768-2.088-0.804l-4.873,0.375
	c-1.892,0.429-3.266,1.018-4.123,1.768c-0.678,0.57-1.018,1.285-1.018,2.142l0.214,3.105c0,1.285-0.303,2.249-0.91,2.892
	l-3.641,3.052l-4.23,2.892c-0.678,0.535-1.089,0.964-1.232,1.285c-0.178,0.393-0.178,1,0,1.82c0.248,1.086,0.916,2.687,2,4.796
	c-0.752,0.723-1.507,1.56-2.268,2.54c-2.677,3.427-4.337,7.015-4.979,10.763c-0.286,1.535-0.268,2.463,0.053,2.784
	s1.143,0.232,2.463-0.268l3.59-0.997c-0.047,0.353-0.097,0.707-0.11,1.051c-0.071,1.32,0.053,2.088,0.375,2.302
	c0.321,0.25,1.089,0.144,2.303-0.321c1.828-0.737,4.412-1.533,7.738-2.386c-0.025,0.224-0.065,0.45-0.082,0.673
	c-0.107,1.392,0,2.231,0.321,2.517s1.089,0.16,2.303-0.375c2.605-1.106,5.39-2.159,8.353-3.159c2.98-0.973,5.45-1.655,7.411-2.049
	c0.411,0.969,1.01,1.938,1.799,2.905c0.643,0.75,0.893,1.66,0.75,2.731l-0.643,4.926c-0.072,1.321,0.053,2.213,0.375,2.678
	c0.286,0.428,1,0.749,2.142,0.964l6.532,0.91c1.321,0.143,2.303,0.571,2.945,1.285l2.344,2.465c0.504,4.147,1.422,8.08,2.796,11.777
	c1.356,3.605,3.034,6.765,5.033,9.478c0.893,1.214,1.588,1.821,2.088,1.821c0.536-0.036,1.142-0.661,1.82-1.874
	c2.986-5.301,6.181-10.024,9.582-14.181c0.914,0.417,1.86,0.634,2.841,0.634c1.013-0.027,1.926-0.273,2.739-0.738
	c0.646,1.8,1.423,3.478,2.347,5.021c2,3.319,4.766,6.176,8.301,8.567c1.105,0.785,1.909,1.124,2.409,1.018
	c0.535-0.107,1.017-0.786,1.445-2.035c1.685-4.771,3.341-9.038,4.97-12.801c1.122,0.702,1.992,1.074,2.58,1.074
	c0.429,0,1-0.231,1.714-0.696l1.116-1.018c0.701,1.141,1.515,2.349,2.471,3.642c2.785,3.748,5.623,6.872,8.514,9.37
	c1.071,0.964,1.91,1.375,2.518,1.232c0.57-0.107,1.178-0.857,1.82-2.249c1.642-3.642,2.855-7.461,3.641-11.459
	c0.48-2.46,0.733-4.745,0.776-6.869c2.285-1.882,4.757-2.148,7.416-0.788c0.394,0.179,0.768,0.09,1.124-0.268
	c1.285-1.285,2.874-2.392,4.766-3.319l4.391-1.874c0.679-0.286,1.215-0.679,1.607-1.179c0.393-0.571,0.695-1.41,0.91-2.517
	c0.214-1.142,0.303-2.963,0.268-5.461l-0.16-6.747c0-0.127,0.007-0.232,0.009-0.354c0.633,1.31,1.696,1.952,3.203,1.906l4.175,0.308
	c-0.128,3.226,0.138,6.195,0.805,8.902c0.715,2.82,1.785,5.033,3.213,6.64c0.714,0.785,1.268,1.195,1.66,1.231
	c0.464,0.035,1.053-0.357,1.768-1.178c3.326-3.732,5.854-6.854,7.583-9.366c0.33,1.556,0.836,3.125,1.519,4.707
	c1.321,2.928,2.91,5.158,4.766,6.693c0.821,0.643,1.41,0.964,1.768,0.964c0.464,0,1.088-0.41,1.874-1.231
	c3.119-3.277,5.429-6.484,6.936-9.622c0.429,1.344,0.984,2.677,1.685,4c1.321,2.534,2.945,4.676,4.873,6.425
	c0.821,0.715,1.428,1.071,1.82,1.071s0.91-0.393,1.553-1.178c1.964-2.428,3.677-5.033,5.141-7.817
	c1.028-1.929,1.756-3.634,2.192-5.125l6.804,0.52l0.481-0.214c1.57-1.785,3.355-3.534,5.354-5.247
	c0.964-0.893,1.624-1.964,1.981-3.213c0.25-1.143,1.018-1.678,2.303-1.606l0.428-0.161c0.75-0.678,1.695-1.393,2.838-2.142
	c1.106-0.749,1.91-1.196,2.41-1.339c0.892-0.214,1.499-0.5,1.82-0.856c0.285-0.356,0.5-1.089,0.643-2.195
	c0.606-4.569,1.624-7.817,3.052-9.745c1.214-1.606,2.803-2.41,4.766-2.41c1.178,0,2.017-0.214,2.517-0.643
	c0.606-0.499,0.839-1.355,0.696-2.57c-0.25-2.783-0.25-4.604,0-5.461c0.214-0.785,0.179-1.445-0.107-1.98l-1.392-1.232
	c-1.179-0.856-2.196-2.124-3.053-3.802c-0.893-1.714-1.178-3.069-0.856-4.069c0.285-0.856,1.178-1.678,2.677-2.463
	c1.25-0.607,2.428-1,3.534-1.178c1.82-0.215,3.159-0.929,4.016-2.143C360.153,343.064,359.778,342.262,357.708,342.476z
	 M267.484,361.912l-1.125,0.375c-0.047,0.014-0.081,0.029-0.126,0.043c-0.065-1.046-0.061-1.886,0.02-2.506
	c0.143-1.178,0.481-2.23,1.017-3.159c0.5-0.893,1.09-1.534,1.768-1.928l1.768-0.214c0.82,0.035,1.48,0.196,1.98,0.482
	c0.002,0.001,0.003,0.002,0.005,0.003c-0.138,0.673-0.288,1.331-0.451,1.975c-1.352,0.128-2.459,0.532-3.302,1.234
	C268.002,359.11,267.484,360.342,267.484,361.912z M257.846,348.688c-0.999,1.249-1.498,3.551-1.498,6.906l-0.322,1.66l-1.124,1.178
	c-0.571,0.393-1.392,0.732-2.464,1.018l-2.623,0.429c-0.535-0.036-1.268-0.749-2.195-2.142c-0.964-1.464-1.678-2.999-2.143-4.605
	c-0.356-1.249-0.91-2.034-1.659-2.355c-0.536-0.215-1.374-0.215-2.517,0l-5.717,1.92c-0.655-6.748-1.55-12.889-2.689-18.412
	c-1.678-8.104-3.998-15.528-6.961-22.275c-0.517-1.148-0.916-2.427-1.22-3.812l4.886-4.511c5.461,0.561,10.193,1.664,14.234,3.285
	c1.651,5.938,4.437,10.841,8.391,14.676c4.533,4.426,10.137,7.068,16.813,7.925c1.803,0.231,3.633,0.312,5.485,0.264
	c0.155,4.614,0.062,9.366-0.281,14.258c-0.644,0.228-1.17,0.37-1.563,0.417c-1.392,0.144-2.783-0.213-4.176-1.07
	c-1.178-0.714-2.143-1.018-2.892-0.91h-2.945c-0.606-0.035-1.392,0.125-2.356,0.482c-0.855,0.32-1.553,0.66-2.088,1.017
	c-0.643,0.429-0.963,1.16-0.963,2.195C257.258,347.08,257.453,347.901,257.846,348.688z"/>
</svg>
