<?xml version="1.0" encoding="utf-8"?>
<!-- Generator: Adobe Illustrator 16.0.0, SVG Export Plug-In . SVG Version: 6.00 Build 0)  -->
<!DOCTYPE svg PUBLIC "-//W3C//DTD SVG 1.1//EN" "http://www.w3.org/Graphics/SVG/1.1/DTD/svg11.dtd">
<svg version="1.1" id="图层_1" xmlns="http://www.w3.org/2000/svg" xmlns:xlink="http://www.w3.org/1999/xlink" x="0px" y="0px"
	 width="577px" height="542px" viewBox="0 0 577 542" enable-background="new 0 0 577 542" xml:space="preserve">
<path d="M575.112,196.646l-5.222-8.301l0.385-23.969c0.146-9.236,0.109-14.367-0.11-15.393c-0.293-1.319-2.529-7.092-6.707-17.317
	l-10.445-24.684c-0.659-1.54-1.319-2.327-1.979-2.364c-0.659,0-1.228,0.733-1.704,2.199c-0.732,2.382-1.612,4.526-2.639,6.432
	c-0.586,1.1-0.806,2.437-0.659,4.013c0.276,5.187,0.388,11.976,0.338,20.326c-1.164-0.875-2.39-1.749-3.691-2.624
	c-1.356-0.88-2.291-1.118-2.804-0.715c-0.55,0.44-0.568,1.484-0.056,3.134c1.599,5.161,2.996,9.959,4.201,14.409
	c-0.539-0.936-1.073-1.877-1.617-2.809c-0.843-1.466-1.612-2.071-2.309-1.814c-0.733,0.22-1.081,1.191-1.045,2.914
	c0.194,7.891,0.142,15.108-0.146,21.681l-5.791-8.432c-0.513-0.807-0.989-1.356-1.429-1.649c-0.477-0.33-1.191-0.55-2.145-0.66
	l-5.167-1.1l-4.894-1.429c-1.025-0.477-1.887-1.136-2.583-1.979c-6.037-7.493-11.438-14.149-16.214-19.984
	c-0.627-15.23-0.521-26.884,0.325-34.936c0.147-1.319-0.036-2.125-0.549-2.419c-0.477-0.33-1.265-0.128-2.364,0.605
	c-4.618,3.042-8.503,5.223-11.655,6.542c-0.659,0.256-1.136,0.568-1.429,0.935c-0.33,0.403-0.514,0.971-0.55,1.704
	c-0.114,1.883-0.393,4.748-0.833,8.576c-0.167,0.041-0.331,0.106-0.486,0.22c-0.843,0.623-0.898,1.833-0.165,3.628
	c0.052,0.123,0.1,0.237,0.15,0.359c-0.065,0.539-0.134,1.091-0.205,1.657c-0.846,0.78-1.804,1.822-2.871,3.124
	c-1.876-4.385-3.56-7.902-5.046-10.528c-1.136-2.089-2.382-2.181-3.738-0.274c-3.519,5.131-6.652,10.354-9.4,15.668
	c-2.09,4.031-4.271,7.55-6.542,10.555c-0.403,0.513-0.623,0.971-0.66,1.374c-0.073,0.403,0.019,0.99,0.275,1.759
	c0.946,3.206,1.777,6.215,2.519,9.068c-1.257,2.543-2.711,5.073-4.388,7.589c-0.99,1.576-2.346,2.364-4.068,2.364
	c-0.88,0-1.503,0.146-1.869,0.44c-0.257,0.183-0.495,0.586-0.715,1.209c-1.796,4.838-2.858,9.694-3.188,14.568l0.109,1.594
	l0.715,1.1c1.76,1.833,3.61,4.086,5.553,6.762c2.129,2.884,3.772,5.45,4.968,7.723c-21.177,6.61-37.386,13.017-48.632,19.221
	c-3.14-2.444-6.552-4.866-10.267-7.263c-5.364-3.49-10.358-9.506-14.981-18.04c0.707-7.448,2.95-24.772,6.727-51.97
	c0.712,0.172,1.414,0.359,2.098,0.576c2.603,0.879,4.654,1.998,6.157,3.354c8.796,7.917,15.283,13.964,19.461,18.142
	c1.393,1.356,2.346,1.888,2.859,1.594c0.513-0.256,0.678-1.301,0.494-3.133c-0.659-5.828-1.667-11.93-3.023-18.307
	c-1.466-6.744-2.896-11.802-4.288-15.173c-3.177-7.734-10.098-17.976-20.757-30.72c-1.309-7.515-2.618-15.705-3.927-24.585
	c-1.43-9.529-2.419-16.969-2.969-22.32c-0.257-2.749-0.972-5.186-2.145-7.312l-9.4-17.372l-9.896-19.077
	c-0.403-0.806-0.788-1.374-1.154-1.704c-0.477-0.44-1.1-0.715-1.869-0.825l-16.053-2.529c-2.162-0.366-2.95,0.55-2.364,2.749
	c0.798,3.094,1.521,6.917,2.174,11.468l-17.951,1.561l-18.68,2.367c-2.776-3.843-5.04-6.877-6.774-9.074
	c-0.696-0.916-1.355-1.448-1.979-1.594s-1.448-0.018-2.475,0.385l-16.877,7.532c-0.917,0.403-1.448,0.935-1.594,1.594
	c-0.146,0.55,0,1.246,0.44,2.089l6.532,12.721c-3.221,8.178-6.57,16.98-10.05,26.421c-3.644,9.866-6.422,17.755-8.357,23.72
	l-9.62-2.61l-2.694,0.165c-0.55,0.513-0.641,1.393-0.275,2.639c3.482,12.021,5.681,20.377,6.597,25.069
	c0.22,0.99,0.532,1.723,0.935,2.199c0.403,0.477,1.008,0.861,1.814,1.155c28.672,10.371,47.692,17.911,57.075,22.625
	c0.82,11.785,2.066,23.452,3.782,34.989c0.22,1.283,0.568,2.272,1.044,2.969c0.403,0.586,1.045,1.1,1.925,1.539
	c1.869,0.99,5.479,2.584,10.83,4.783l10.5,4.343c1.283,0.586,2.254,1.209,2.914,1.869c0.732,0.733,1.355,1.759,1.869,3.079
	c1.392,3.379,3.035,6.317,4.906,8.858l-3.037,1.807c-1.026,0.586-1.484,1.649-1.375,3.188c0.223,3.437,0.291,6.412,0.214,8.947
	c-10.587-3.846-20.649-6.979-30.175-9.387c-3.922-0.916-4.637,0.367-2.145,3.848c2.529,3.592,5.791,7.935,9.786,13.029
	c3.74,4.795,7.178,9.015,10.318,12.673c-0.087,0.101-0.169,0.199-0.258,0.301c-3.735,4.241-7.394,8.615-10.983,13.104
	c-13.768-4.245-23.804-7.223-30.083-8.926l-3.244,0.11c-0.293,0.586,0.146,1.649,1.32,3.188c5.2,6.486,11.528,13.703,18.947,21.626
	c-6.132,0.631-12.046,1.937-17.738,3.937c-7.514,2.602-13.377,6.011-17.592,10.225c-5.461,5.461-9.749,11.893-12.864,19.297
	c-2.908,6.809-4.57,13.893-5.019,21.244c-0.837-0.011-1.744,0.021-2.684,0.073c-2.231-1.881-4.84-3.566-7.855-5.045
	c-5.102-2.5-10.48-3.979-16.127-4.463c0.148-3.618,0.346-7.212,0.624-10.765c0.147-2.529-0.971-3.83-3.354-3.904
	c-2.858-0.072-7.037-0.77-12.534-2.089c-4.875-1.136-9.144-2.345-12.809-3.628c-1.869-0.66-3.482-0.293-4.838,1.1
	c-7.513,7.916-15.796,14.788-24.849,20.615c-8.759,5.645-16.474,9.181-23.145,10.61c-1.393,0.293-2.474,0.916-3.244,1.869
	c-0.806,0.952-1.375,2.4-1.704,4.343c-0.257,1.613-0.385,3.849-0.385,6.707c0,2.383-0.22,4.252-0.66,5.607
	c-0.593,1.937-1.166,3.918-1.73,5.92c-4.56,3.106-10.895,5.955-19.05,8.539c-8.686,2.712-15.906,4.068-21.66,4.068l-12.737-0.729
	c-0.369-2.568-0.919-5.467-1.667-8.728c-0.879-3.812-1.741-6.763-2.583-8.851c-0.477-1.21-1.063-1.906-1.759-2.09
	c-0.696-0.146-1.686,0.146-2.969,0.88c-5.827,3.335-12.828,7.77-21,13.304c-9.236-1.576-15.228-1.997-17.977-1.264
	c-5.094,1.318-12.791,6.01-23.089,14.073c-10.079,7.952-17.17,14.77-21.275,20.45c-1.246,1.723-1.667,2.987-1.265,3.793
	c0.403,0.844,1.705,1.027,3.903,0.551c6.744-1.393,13.396-2.547,19.956-3.464l13.139-0.989c1.869,0.256,4.6,1.283,8.191,3.078
	c3.21,1.622,6.091,3.37,8.674,5.232c0.096,0.34,0.193,0.678,0.287,1.035c2.382,9.126,4.544,16.089,6.487,20.891
	c0.513,1.173,1.008,1.851,1.484,2.034c0.477,0.183,1.301-0.037,2.474-0.66c5.937-3.042,10.665-5.992,14.184-8.851
	c9.125,4.435,19.736,9.107,31.831,14.019c11.797,4.804,21.583,8.438,29.397,10.927l-0.096,2.377
	c-0.11,1.319,0.091,2.346,0.604,3.079c0.477,0.659,1.393,1.319,2.749,1.979c6.56,3.152,11.746,5.754,15.558,7.807
	c7.514,4.142,13.322,8.008,17.427,11.6c2.309,1.942,4.636,1.612,6.982-0.989l1.776-2.381c2.271,0.797,4.555,1.433,6.854,1.886
	l7.035,0.908c1.686,1.209,3.585,2.231,5.719,3.05c5.131,1.943,9.529,2.053,13.194,0.33c1.306-0.547,2.461-1.063,3.489-1.551
	c1.478,6.167,3.257,10.65,5.338,13.443c-0.071,2.021-0.027,4.889,0.134,8.613c0.284,6.303,0.186,11.051-0.29,14.265
	c-2.3,2.051-4.819,4.005-7.572,5.856c-1.042,0.685-1.567,1.947-1.593,3.769c-0.424,0.318-0.846,0.726-1.265,1.234
	c-1.943,2.235-4.472,4.563-7.587,6.981c-2.529,1.942-3.903,6.139-4.123,12.59c-0.256,6.56,0.88,11.801,3.409,15.723
	c0.623,0.989,1.191,1.484,1.704,1.484c0.477,0.036,1.026-0.458,1.649-1.484c2.932-4.508,5.699-8.191,8.301-11.05
	c0.953-1.063,1.795-1.796,2.529-2.199c0.586-0.403,1.411-0.715,2.474-0.935c0.766-0.162,1.393-0.439,1.892-0.82l3.056,0.271
	l3.066-0.406c0.042,0.042,0.079,0.091,0.122,0.131c1.246,1.137,3.335,1.778,6.267,1.925l11.985,0.989
	c2.932,0.477,5.149,1.356,6.652,2.639c5.205,4.508,9.016,8.026,11.435,10.556c1.173,1.173,2.089,1.648,2.749,1.429
	c0.66-0.256,0.898-1.173,0.715-2.748c-0.517-4.195-1.11-8.017-1.776-11.492c5.535,2.109,11.256,4.871,17.169,8.304
	c1.355,0.806,2.271,1.081,2.748,0.824c0.514-0.293,0.643-1.21,0.385-2.749c-0.988-6.523-3.115-12.809-6.376-18.856
	c-3.042-5.644-5.571-8.576-7.586-8.796c-0.072-0.006-0.15,0.004-0.224,0.003l0.004-0.003l-0.04,0.004
	c-0.195,0.002-0.396,0.022-0.605,0.062l-5.897,0.595c-2.104,0.382-4.06,0.853-5.887,1.401c-0.215-0.353-0.433-0.695-0.655-1.017
	c-1.246-1.906-3.115-2.511-5.607-1.814c-1.466,0.366-2.84,0.019-4.123-1.045c-1.149-0.924-2.039-2.323-2.673-4.19l2.053-3.979
	c6.825-4.374,11.704-8.161,14.583-11.346c0.429-0.478,0.825-1.011,1.194-1.592c2.496,0.271,5.028,0.265,7.602-0.058
	c4.654-0.55,9.694-2.126,15.119-4.728c1.282-0.623,1.887-1.191,1.813-1.705c-0.073-0.513-0.77-1.044-2.089-1.594
	c-4.508-1.979-8.008-3.83-10.5-5.553c-1.04-0.724-2.051-1.505-3.034-2.339c2.809-0.961,6.173-2.422,10.081-4.37
	c0.893,0.657,1.805,1.37,2.739,2.146c1.026,0.879,1.76,1.209,2.199,0.989c0.439-0.184,0.623-0.953,0.55-2.309
	c-0.055-1.211-0.137-2.396-0.246-3.558c0.763-0.413,1.539-0.837,2.335-1.28c12.168-6.78,19.076-12.241,20.726-16.383
	c1.293-3.261,2.289-9.845,2.987-19.725c18.288,0.214,35.967-3.246,53.032-10.401c1.972-0.829,3.919-1.701,5.845-2.614
	c2.143,7.104,6.92,13.969,14.331,20.591l8.137,7.037c1.961,1.818,3.274,3.447,3.957,4.892c-1.472,0.994-2.988,2.103-4.562,3.354
	c-3.629,2.896-6.157,5.461-7.587,7.696c-1.612,2.529-2.053,8.521-1.319,17.977c0.019,0.229,0.044,0.441,0.07,0.651
	c-1.996,1.851-3.556,3.903-4.675,6.16c-5.826,1.917-10.386,4.206-13.647,6.878c-1.796,1.429-1.558,2.474,0.715,3.133
	c4.715,1.283,9.396,2.973,14.045,5.043c0.845,0.514,1.835,0.928,2.997,1.225c6.344,1.603,13.101,3.669,20.237,6.161l1.808,1.096
	l13.085,5.112l12.259,5.113c1.466,0.659,2.346,0.788,2.639,0.385c0.294-0.403,0.037-1.283-0.77-2.639
	c-2.199-3.665-4.6-7.184-7.201-10.556c-0.088-0.114-0.17-0.217-0.257-0.329c7.877,1.446,15.006,4.094,21.367,7.971
	c1.209,0.733,2.052,1.008,2.528,0.824c0.514-0.22,0.733-1.008,0.66-2.363c-0.088-1.272-0.447-2.669-1.054-4.181
	c0.357,0.175,0.709,0.373,1.054,0.607c0.88,0.586,1.521,0.77,1.924,0.55c0.403-0.257,0.477-0.917,0.22-1.979
	c-0.403-2.053-1.246-4.508-2.528-7.366c-1.539-3.409-2.95-5.479-4.233-6.213c-0.88-0.513-2.199-0.971-3.958-1.374l-4.696-0.635
	c-1.153-1.111-2.351-2.202-3.605-3.269c-1.173-0.989-2.271-1.558-3.298-1.704c-1.063-0.184-2.4,0.019-4.014,0.604
	c-3.005,1.063-5.735,1.063-8.191,0c-2.528-1.026-3.408-2.584-2.639-4.673c1.21-3.445,2.749-6.579,4.618-9.4
	c0.346-0.534,0.543-0.985,0.614-1.367c1.979-3.37,4.424-6.906,7.357-10.618c2.688-3.418,5.234-6.314,7.652-8.741
	c2.578-0.564,5.229-1.257,7.96-2.089c7.11-2.198,12.956-4.709,17.537-7.531c1.928-1.206,3.483-2.647,4.702-4.303
	c2.999,5.9,5.231,10.843,6.678,14.803c0.514,1.319,0.696,3.134,0.55,5.442c-0.257,3.336-0.678,6.414-1.265,9.236
	c-0.329,1.576-0.402,2.95-0.22,4.123c0.186,1.177,0.649,2.478,1.358,3.89c-0.682,0.589-1.354,0.982-2.018,1.168l-3.134-0.385
	c-4.215-1.832-8.539-3.812-12.975-5.938c-1.209-0.55-1.96-0.678-2.254-0.385c-0.293,0.293-0.238,1.063,0.165,2.31
	c2.236,6.267,5.534,13.505,9.896,21.715c0.55,0.916,1.448,1.374,2.694,1.374l8.851-0.659l7.587-1.484
	c1.652-0.493,2.908-1.184,3.78-2.066c1.199,0.771,2.433,1.387,3.701,1.85c-3.277,1.168-6.683,2.234-10.23,3.186
	c-1.319,0.366-1.979,0.824-1.979,1.374c0.037,0.477,0.532,0.953,1.484,1.43c3.006,1.539,6.836,3.097,11.49,4.673
	c4.508,1.539,7.422,2.309,8.741,2.309l5.882-0.989c3.006-0.77,4.783-1.539,5.333-2.31c1.173-1.612,2.73-4.508,4.673-8.686
	c1.905-3.995,3.17-7.019,3.793-9.071c0.177-0.631,0.195-1.217,0.071-1.76c0.079-0.452,0.093-0.982,0.039-1.594
	c-0.11-1.209-0.44-2.455-0.99-3.738c-1.355-3.078-2.675-7.055-3.958-11.93c-1.202-4.541-2.084-8.745-2.678-12.647
	c0.066-0.123,0.142-0.266,0.204-0.381c0.236-0.445,0.361-0.878,0.376-1.298c0.568-0.992,0.665-2.629,0.284-4.915
	c-0.88-5.754-1.484-10.299-1.814-13.634l-0.604-4.178c-0.33-1.173-0.898-2.364-1.704-3.573c-1.43-2.126-3.61-5.791-6.543-10.995
	c-2.21-3.877-4.13-7.383-5.79-10.559c-0.535-2.653-1.078-5.377-1.631-8.188l-0.88-2.914l-1.539-2.475l-8.576-9.785l-9.73-10.5
	c-0.218-0.238-0.446-0.422-0.68-0.575c0.926-3.15,1.775-7.347,2.549-12.619c0.77-5.461,1.1-9.29,0.989-11.489
	c-0.037-0.807-0.349-1.998-0.935-3.574l-1.595-3.902c-0.293-0.77-0.439-1.595-0.439-2.475c0-0.91,0.319-3.041,0.954-6.379
	c5.885-3.682,10.815-6.637,14.769-8.85c1.503-0.842,2.163-1.979,1.979-3.408c-0.514-4.545-1.888-11.508-4.123-20.891
	c-2.236-9.199-3.83-14.696-4.783-16.492c-0.807-1.576-4.307-5.113-10.5-10.61c-4.868-4.395-9.343-8.206-13.432-11.447
	c2.496-2.185,9.041-5.533,19.644-10.048c4.939-2.091,10.683-4.437,17.202-7.03c0.885,1.36,1.772,2.723,2.699,4.116
	c0.659,0.953,1.649,1.466,2.969,1.539l9.07,0.935c2.178,0.281,3.856,0.57,5.047,0.866c5.902,9.089,12.008,18.984,18.318,29.701
	c0.952,1.613,1.722,2.382,2.309,2.309c0.586-0.073,0.916-1.026,0.989-2.859c0.416-8.824,0.979-16.356,1.688-22.632l4.304,0.972
	l1.814,0.22c0.477-0.037,1.008-0.22,1.595-0.55c0.792-0.516,1.768-1.049,2.915-1.598c0.313-0.107,0.522-0.284,0.603-0.546
	c0.11-0.476-0.128-1.026-0.714-1.649l-2.529-2.749c-0.659-0.733-1.1-1.704-1.319-2.914l-0.507-2.143l0.287,0.988
	c0.293,0.66,0.953,0.989,1.979,0.989c0.33,0,0.66,0.348,0.99,1.045l1.649,3.518l1.759,3.519c0.696,1.209,1.265,1.777,1.704,1.704
	c0.477-0.073,0.916-0.788,1.319-2.144l3.587-10.513c0.288,0.427,0.583,0.843,0.866,1.277c1.759,2.676,2.896,2.401,3.408-0.825
	c0.77-4.618,1.888-10.39,3.354-17.317c1.393-6.487,2.73-12.241,4.014-17.262C576.121,199.504,575.919,198.039,575.112,196.646z
	 M504.457,184.908c-0.53-4.059-1.02-8.452-1.467-13.187c1.765,1.999,3.801,4.21,6.098,6.625c-0.878,0.08-1.377,0.332-1.484,0.762
	c-0.073,0.403,0.165,1.044,0.715,1.924l1.906,3.035C508.38,184.301,506.458,184.581,504.457,184.908z M307.988,342.605
	c0.572-2.834,0.962-6.289,1.169-10.357c4.16-0.859,8.351-2.213,12.575-4.102c4.545-2.016,8.063-4.178,10.555-6.487
	c6.341-5.9,11.545-12.461,15.613-19.681c0.482-0.853,0.919-1.66,1.322-2.435c0.339,0.118,0.674,0.244,1.011,0.365
	c-0.15,2.162-0.925,5.411-2.333,9.766c-1.576,4.948-3.097,8.54-4.563,10.774c-7.403,6.378-18.674,13.891-33.811,22.541
	c-0.685,0.392-1.349,0.761-2.025,1.144L307.988,342.605z M430.363,374.655l-1.73-4.708c4.01-4.95,7.541-10.059,10.594-15.325
	c0.931,0.952,1.861,2.103,2.791,3.485c1.796,2.713,3.537,4.746,5.223,6.103c1.825,1.401,3.854,2.263,6.083,2.593
	c0.133,0.721,0.269,1.452,0.394,2.149c-0.213,0.184-0.429,0.395-0.648,0.646c-0.55,0.623-0.935,1.301-1.155,2.034
	c-1.282,4.251-2.528,7.679-3.738,10.28c-0.843,1.76-1.264,3.372-1.264,4.838c-0.023,0.938,0.146,1.923,0.465,2.946
	c-2.774-1.638-5.873-3.422-9.316-5.365c-1.282-0.696-2.309-1.393-3.078-2.089c-0.733-0.696-1.43-1.576-2.09-2.639
	C431.939,378.101,431.097,376.451,430.363,374.655z"/>
</svg>
