<?xml version="1.0" encoding="utf-8"?>
<!-- Generator: Adobe Illustrator 16.0.0, SVG Export Plug-In . SVG Version: 6.00 Build 0)  -->
<!DOCTYPE svg PUBLIC "-//W3C//DTD SVG 1.1//EN" "http://www.w3.org/Graphics/SVG/1.1/DTD/svg11.dtd">
<svg version="1.1" id="图层_1" xmlns="http://www.w3.org/2000/svg" xmlns:xlink="http://www.w3.org/1999/xlink" x="0px" y="0px"
	 width="691px" height="577px" viewBox="0 0 691 577" enable-background="new 0 0 691 577" xml:space="preserve">
<path d="M690.264,390.033c-0.304-4.521-1.096-8.302-2.358-11.368c0.127-0.774,0.175-1.601,0.119-2.491
	c-0.094-2.193-0.817-4.061-2.17-5.6c-2.673-3.131-5.479-5.636-8.415-7.52c0.082-0.569,0.093-1.164,0.015-1.791
	c-0.187-1.073-0.56-2.007-1.12-2.8l-6.79-9.239c-0.865-1.027-2.053-1.739-3.544-2.156c-0.509-11.188-1.169-20.63-1.985-28.294
	c-1.073-10.267-2.544-19.109-4.41-26.529c-4.06-16.193-11.293-35.419-21.699-57.679c-2.287-4.9-3.804-7.21-4.55-6.93
	c-0.654,0.28-0.724,3.033-0.211,8.26c0.7,6.767,1.167,13.813,1.4,21.14s0.187,13.533-0.14,18.62
	c-6.44-8.167-21.583-22.12-45.43-41.859c-6.021-5-11.692-9.635-17.038-13.931c1.443-1.928,3.645-5.099,6.608-9.519
	c5.144-7.695,9.125-12.774,11.946-15.244c2.396,0.888,4.365,1.653,5.903,2.294l2.59,0.56l2.59-0.56l12.67-4.9
	c7.7-3.033,12.507-4.807,14.42-5.32c1.354-0.374,2.03-0.84,2.03-1.4c0-0.165-0.057-0.316-0.159-0.457
	c-0.422-1.309-1.075-2.549-1.957-3.722c0.426-0.21,0.852-0.416,1.276-0.651c2.753-1.586,4.27-3.126,4.55-4.62
	c0.233-1.213-0.187-2.8-1.261-4.76c-0.595-1.189-1.329-2.317-2.174-3.396c1.438-6.534,1.449-14.863,0.004-25.023
	c-0.84-5.927-5.039-15.026-12.6-27.299c-7-11.48-12.739-19.273-17.22-23.38c-3.796-3.495-7.494-6.449-11.101-8.901
	c-3.2-3.396-5.897-7.355-8.079-11.889c-2.146-4.433-3.593-8.96-4.34-13.58c-0.467-2.847-1.307-5.577-2.52-8.19
	c-1.167-2.52-2.94-5.413-5.32-8.68c-9.706-13.3-19.903-23.287-30.589-29.96C527.773,4.223,515.057,0.467,501.058,0
	c-1.167-0.047-1.82,0.14-1.96,0.56c-0.188,0.42,0.256,0.863,1.33,1.33c3.266,1.446,5.949,2.846,8.05,4.2
	c1.507,1.015,2.892,2.142,4.176,3.359c-6.099-1.839-13.192-3.131-21.326-3.849c-11.153-0.98-20.229-0.63-27.229,1.05
	c-1.026,0.233-1.54,0.56-1.54,0.98c0,0.373,0.443,0.7,1.33,0.98c6.767,2.38,12.554,4.947,17.36,7.7
	c4.505,2.628,8.504,5.633,12.003,9.007c-1.35-0.06-2.713-0.058-4.094,0.023c-4.573,0.233-8.446,1.19-11.619,2.87
	c-0.887,0.467-1.307,0.933-1.261,1.4c0,0.42,0.607,0.724,1.82,0.91c8.68,1.12,16.66,4.153,23.939,9.1
	c5.273,3.593,11.037,8.867,17.29,15.82c6.253,7,12.133,12.296,17.64,15.89c5.507,3.547,11.853,6.183,19.039,7.91
	c5.414,1.307,9.357,3.15,11.83,5.53c2.333,2.24,3.85,5.437,4.55,9.59c0.892,5.101,7.744,14.44,20.539,28.004
	c-3.248-2.62-6.613-5.414-10.109-8.404c-7.886-6.767-14.746-13.066-20.579-18.899c-5.6-5.693-11.41-9.847-17.43-12.46
	c-10.873-4.667-23.427-12.017-37.659-22.05c-9.193-6.533-18.247-13.556-27.16-21.069c-1.026-0.887-1.843-1.237-2.449-1.05
	c-0.607,0.233-0.91,0.98-0.91,2.24l-0.141,4.27c0,0.933,0.374,1.913,1.12,2.939c5.128,7.297,10.745,14.848,16.84,22.645
	c-4.376-3.185-9.121-6.692-14.25-10.535c-1.119-0.84-2.029-1.073-2.729-0.7c-0.7,0.373-1.05,1.307-1.05,2.8l0.279,6.72
	c0.094,1.914,0.631,3.477,1.61,4.69c2.8,3.313,8.703,9.287,17.71,17.92l18.199,16.939c2.101,1.867,3.663,3.99,4.69,6.37l2.45,6.23
	c0.326,0.933,0.723,1.68,1.189,2.24c0.467,0.607,1.213,1.213,2.24,1.82l22.26,13.79c1.307,0.793,2.776,1.237,4.409,1.33l5.029,0.688
	c-5.234,3.185-9.254,5.83-12.028,7.921c-2.48,1.847-4.463,3.595-5.982,5.25c-8.932,4.676-17.387,11.271-25.36,19.8
	c-7.963-7.057-17.297-15.634-28.017-25.75c-12.974-12.273-21.699-20.206-26.18-23.799c-4.106-3.313-6.649-4.55-7.63-3.71
	c-0.934,0.747-0.56,3.756,1.12,9.03c2.053,6.393,5.67,14.653,10.85,24.779l-22.119-19.39l-26.18-22.609
	c-2.986-2.427-4.807-3.407-5.46-2.94c-0.606,0.467-0.42,2.077,0.56,4.83c1.4,3.92,4.667,11.293,9.8,22.12l3.851,8.54l3.149,7
	l-22.68-20.3c-13.346-11.9-22.376-19.576-27.089-23.029c-3.033-2.24-4.9-3.08-5.601-2.52c-1.727,1.353-0.023,7.91,5.11,19.669
	c4.255,9.625,8.162,17.163,11.723,22.619c-18.916-9.545-33.263-16.343-43.013-20.379c-7.652-3.22-11.923-4.27-12.81-3.15
	c-0.373,0.467-0.233,1.167,0.42,2.1c1.073,1.494,3.5,3.967,7.28,7.42l21.42,18.479c22.399,18.526,44.589,35.419,66.568,50.679
	c9.1,6.3,17.43,11.2,24.989,14.7c4.294,2.053,9.73,4.153,16.311,6.3c4.863,1.549,8.722,3.019,11.602,4.41
	c-0.381,1.276-0.74,2.557-1.079,3.843c-4.86-2.366-10.208-4.86-16.053-7.483c-15.727-7-28.303-12.109-37.729-15.33l-2.729-0.14
	c-0.794,0.28-1.517,0.98-2.17,2.1c-2.658,4.533-5.256,8.178-7.792,10.961l-22.658-1.581c-9.053-0.28-15.913-0.163-20.579,0.35
	c-2.101,0.233-3.243,0.77-3.431,1.61c-0.14,0.887,0.677,2.03,2.45,3.43c7.81,6.174,20.005,14.122,36.562,23.831
	c-0.847,3.776-1.808,7.887-2.892,12.358c-1.74,7.292-3.438,14.071-5.097,20.366c-10.339,2.024-20.283,4.181-29.833,6.469
	l-16.31-15.495c-20.533-19.973-50.959-41.556-91.278-64.749c-42.326-24.36-77.792-39.97-106.398-46.829
	c-1.493-0.327-2.24,0.256-2.24,1.75c0,3.08,4.83,10.197,14.49,21.35c2.847,3.267,6.183,7.793,10.01,13.58
	c3.453,5.227,5.787,9.123,7,11.69c1.26,2.753,3.267,8.726,6.02,17.919c2.987,10.126,4.854,16.146,5.6,18.06
	c0.513,1.26,1.003,2.17,1.47,2.73l2.73,1.82c10.593,5.133,20.3,10.593,29.12,16.379c9.272,6.101,16.91,12.167,22.937,18.199
	c-0.206-0.093-0.4-0.186-0.607-0.279c-13.066-5.88-23.916-9.543-32.549-10.99l-1.68,0.14c-0.233,0.28-0.187,0.793,0.14,1.54l5.88,14
	l1.05,1.819l1.96,1.19c6.676,3.03,15.798,7.824,27.362,14.377c-5.006,6.467-10.784,14.518-17.352,24.192
	c-1.96-1.213-4.014-2.311-6.16-3.29c-2.193-0.979-3.827-1.54-4.9-1.68l-10.92,0.42l-13.06,1.053
	c-9.108-8.999-17.566-15.654-25.369-19.952c-1.073-0.561-1.68-0.816-1.82-0.771c-0.233,0.094-0.257,0.724-0.07,1.89
	c0.211,1.165,0.454,2.351,0.72,3.553c-4.774-4.747-10.404-9.548-16.889-14.402c-6.953-5.273-13.323-9.426-19.11-12.459
	c-1.026-0.513-1.657-0.677-1.89-0.49c-0.233,0.187-0.117,0.793,0.35,1.82c3.445,6.859,7.343,15.305,11.688,25.315
	c-3.187-1.912-6.762-3.551-10.778-4.875l-1.33-0.07c-0.14,0.187-0.117,0.63,0.07,1.33c2.027,7.579,4.271,14.873,6.694,21.931
	l-19.014,4.458c-4.76,1.214-10.243,1.121-16.45-0.279l-10.78-3.15c-3.407-1.166-6.043-2.193-7.91-3.08
	c-1.633-0.84-3.383-1.166-5.25-0.979c-1.61,0.183-3.162,0.744-4.657,1.674c-0.888-0.307-1.853-0.608-2.902-0.903l-9.1-2.94
	c-3.593-1.446-7.466-3.384-11.62-5.81c-9.473-5.6-18.853-9.684-28.14-12.25c-9.1-2.52-17.476-3.43-25.129-2.73
	c-1.027,0.094-1.563,0.373-1.61,0.84c-0.047,0.42,0.396,0.817,1.33,1.19c14.652,5.442,26.346,11.77,35.103,18.977
	c-1.788-0.683-3.573-1.305-5.353-1.827c-4.713-1.399-8.82-2.076-12.32-2.029c-2.193,0-2.38,0.676-0.56,2.029
	c2.94,2.054,6.207,4.667,9.8,7.84c3.453,3.033,6.533,5.997,9.24,8.891l6.65,8.26c2.986,3.92,5.32,6.58,7,7.979
	c1.026,0.934,1.96,1.446,2.8,1.54c0.7,0.094,1.68-0.094,2.94-0.561c5.095-1.961,9.575-3.497,13.478-4.631
	c9.53,4.81,21.855,11.484,36.992,20.031c2.146,1.307,3.92,2.73,5.32,4.27l5.599,6.582c4.642,10.591,7.746,18.433,9.311,23.518
	c0.653,2.007,2.007,3.943,4.06,5.811c2.707,2.52,6.603,6.906,11.689,13.159c4.34,5.32,8.4,10.593,12.18,15.819
	c2.753,3.78,6.043,6.16,9.87,7.141c6.243,1.55,10.917,3.643,14.061,6.265c-3.092,3.919-5.939,8.379-8.531,13.404
	c-4.106,8.073-6.486,15.61-7.14,22.61c-0.047,0.793,0.046,1.283,0.28,1.47l1.47-0.28c6.604-3.24,12.684-7.257,18.242-12.048
	c-1.146,3.522-2.213,7.161-3.192,10.928c-2.287,8.82-3.967,17.547-5.04,26.18l0.14,1.47l1.4-0.209
	c6.207-2.474,12.39-5.717,18.549-9.73c2.652-1.73,5.121-3.492,7.424-5.283c-1.048,3.124-2.054,6.557-3.014,10.323
	c-0.327,1.12,0.117,1.47,1.33,1.05c8.026-2.986,17.243-8.097,27.649-15.33c9.186-6.31,16.792-12.52,22.859-18.632l4.65-0.127
	c4.807,0.42,11.2,1.703,19.18,3.85l21.49,6.58l3.57,0.489c1.074-0.093,2.17-0.536,3.29-1.329c1.46-0.967,3.211-2.183,5.22-3.618
	c6.64-0.22,14.018-1.409,22.149-3.592c7.004-1.914,12.939-4.131,17.84-6.642c6.692,0.537,13.299,1.722,19.819,3.562
	c4.667,1.399,7.094,0.047,7.28-4.061l1.05-21.069c0.094-1.12,0.443-2.823,1.05-5.109c0.444-1.709,0.901-3.213,1.37-4.521
	c0.177-0.061,0.351-0.099,0.52-0.099c0.421,0,0.98,0.21,1.681,0.63c2.7,1.47,5.688,2.885,8.929,4.252
	c0.687,3.404,1.947,6.817,3.811,10.237c0.104,0.188,0.218,0.373,0.324,0.56c-3.783,2.263-7.508,5.429-11.174,9.521
	c-4.34,4.807-6.767,8.937-7.28,12.39c-0.513,3.407,0.164,8.12,2.03,14.14c1.763,5.771,4.114,10.995,7.041,15.686
	c-0.751,1.607-1.489,3.28-2.211,5.034l-1.19,2.101l-1.819,1.33c-6.113,3.267-10.616,6.626-13.51,10.079
	c-2.326,2.836-3.706,5.857-4.163,9.062c-1.27,2.788-2.429,6.146-3.467,10.118c-1.727,6.627-2.543,12.366-2.45,17.22
	c0.14,4.854,1.773,5.297,4.9,1.33c2.006-2.52,4.013-4.666,6.02-6.439c1.96-1.634,4.293-3.221,7-4.76l1.467-1.196
	c5.269-2.955,9.687-4.387,13.235-4.263c0.23,0.506,0.62,1.041,1.188,1.608c3.08,2.987,7.56,6.44,13.439,10.36
	c5.554,3.64,10.757,6.649,15.61,9.029c2.939,1.447,4.876,0.724,5.81-2.17c1.567-5.123,2.518-11.588,2.858-19.377
	c3.015,0.65,5.913,1.902,8.691,3.768c2.707,1.82,5.063,4.036,7.069,6.649c1.307,1.587,2.287,2.287,2.94,2.101
	c0.7-0.187,1.12-1.377,1.26-3.57c0.858-15.221-6.022-26.012-20.595-32.402c-1.027-10.186-3.026-17.291-6.005-21.287
	c-0.446-0.596-0.89-1.048-1.329-1.368c6.984-3.488,11.703-7.487,14.139-12.001c1.713-3.082,2.55-7.356,2.535-12.794
	c5.029-0.946,9.359-2.049,12.979-3.309c-0.043,7.811,0.081,14.651,0.376,20.513c0.093,2.333,0.583,3.593,1.47,3.779
	s1.937-0.746,3.149-2.8c3.174-5.366,5.857-10.477,8.05-15.33c1.943-4.372,3.757-9.178,5.45-14.387
	c1.829-1.765,3.563-3.768,5.206-5.993c15.656,2.716,29.31,3.503,40.961,2.359c-0.079,0.107-0.16,0.197-0.237,0.312
	c-1.82,2.613-3.127,5.6-3.92,8.96c-0.887,3.593-0.934,6.72-0.141,9.38c1.587,5.46,6.066,10.569,13.44,15.329
	c5.413,3.453,10.896,5.974,16.449,7.561c0.76,0.215,1.463,0.336,2.121,0.383c2.224,2.394,4.054,4.629,5.438,6.687
	c0.514,0.747,0.49,1.33-0.069,1.75c-4.34,3.406-6.977,5.833-7.91,7.28c-0.84,1.26-0.934,2.356-0.28,3.29
	c0.606,0.979,1.914,1.656,3.92,2.029c14.047,2.66,26.996,5.646,38.85,8.96c19.086,5.32,32.246,10.733,39.479,16.24
	c2.939,2.239,4.106,1.517,3.5-2.17c-0.585-3.312-1.637-6.431-3.141-9.362c5.759,0.394,13.259,2.27,22.53,5.652l2.66,0.21
	c0.513-0.327,0.723-1.144,0.63-2.45c-0.076-1.519-0.205-3.037-0.368-4.555c2.189,0.362,4.5,0.938,6.947,1.755l3.57,0.069
	c0.561-0.513,0.63-1.68,0.21-3.5c-0.793-3.359-2.66-6.673-5.6-9.939c-2.778-3.063-5.877-5.376-9.298-6.938
	c-1.168-3.43-2.531-6.857-4.143-10.282c-5.227-11.2-11.619-19.833-19.179-25.899c-2.193-1.773-3.71-2.403-4.551-1.89
	c-0.84,0.513-0.699,2.1,0.421,4.76c1.866,4.479,3.126,9.659,3.779,15.539c0.187,2.054-0.303,3.99-1.47,5.811
	c-1.307,1.913-2.823,2.637-4.55,2.17l-23.66-5.88c-1.493-0.28-2.753-0.934-3.779-1.96c-5.646-5.974-12.11-12.227-19.39-18.76
	c-2.054-1.82-3.523-3.804-4.41-5.95c-0.84-2.007-1.26-4.387-1.26-7.14c0-2.8,1.143-4.97,3.43-6.51c3.08-2.054,8.609-3.453,16.59-4.2
	c13.649-1.257,23.511-5.173,29.597-11.742c-0.076,1.011-0.164,2.053-0.268,3.133c-0.746,7.652-1.89,14.723-3.43,21.209
	c-0.514,2.287-0.561,3.594-0.14,3.92c0.42,0.327,1.54-0.443,3.359-2.31c4.061-4.2,8.657-9.729,13.79-16.59
	c5.366-7.28,8.633-12.507,9.8-15.68c1.167-3.267,1.377-9.729,0.63-19.39c-0.7-9.706-1.89-16.263-3.57-19.67
	c-1.633-3.313-8.306-9.496-20.02-18.55c-11.713-9.1-21.746-15.843-30.1-20.229c-1.1-0.604-2.31-0.878-3.626-0.834
	c-0.238-0.793-0.485-1.582-0.742-2.364c0.155-2.998,0.076-5.9-0.251-8.701c-0.233-2.007,0.116-4.62,1.05-7.84
	c0.481-1.727,1.415-4.427,2.796-8.087c6.879,4.007,13.208,6.828,18.974,8.437l4.41,0.07c0.653-0.607,0.63-2.076-0.07-4.41
	c-0.56-1.96-2.217-5.482-4.97-10.57c-2.713-4.889-4.063-10.479-4.072-16.761l8.702,4.079c0.753,2.221,2.005,3.748,3.77,4.563
	l7.42,3.57c1.214,0.605,2.544,0.887,3.99,0.84c0.925-0.03,1.797-0.197,2.627-0.476l5.283,2.925c1.166,0.84,2.286,2.007,3.359,3.5
	c7.143,9.81,12.556,17.57,16.287,23.333c-0.817,2.382-0.765,4.382,0.163,5.997l5.39,8.26c1.034,1.513,2.704,2.511,4.994,3.005
	c0.984,2.21,2.259,3.73,3.825,4.555c1.173,0.645,2.222,1.444,3.174,2.365c0.72,7.441,1.065,14.428,1.026,20.944
	c0,2.193,0.771,2.474,2.311,0.84c0.23-0.243,0.437-0.509,0.661-0.758c0.471,3.361,0.996,6.044,1.578,8.038
	c0.561,1.96,1.354,2.123,2.38,0.49c2.147-3.454,4.084-7.351,5.811-11.69c1.452-3.769,2.467-7.17,3.094-10.245
	c1.894,3.861,3.966,8.675,6.216,14.445c0.42,0.98,0.863,1.47,1.33,1.47c0.514-0.047,0.91-0.606,1.189-1.68
	C690.147,400.58,690.591,395.493,690.264,390.033z M500.633,339.205c0.683,1.852,1.198,4.023,1.545,6.52
	c0.466,3.266,0.489,5.6,0.069,6.999c-0.373,1.354-2.123,3.313-5.25,5.88c-2.366,1.909-4.767,3.555-7.196,4.964
	c-0.518-0.632-1.035-1.325-1.553-2.094c-2.848-4.387-7.677-9.543-14.49-15.47c-0.514-0.467-0.98-1.213-1.4-2.24
	c-1.213-3.453-2.939-5.623-5.18-6.51l-11.152-0.828c-0.283-0.362-0.58-0.67-0.889-0.929l3.007-2.803
	c6.831-0.001,12.326-2.15,16.454-6.5l0.33-0.353c8.604,2.235,16.249,5.91,22.909,11.063
	C498.799,337.643,499.725,338.415,500.633,339.205z M411.459,326.754c0.514,0.934,0.956,1.494,1.33,1.68l2.38-0.279
	c4.004-1.234,7.784-2.145,11.353-2.751c-2.459,1.203-4.751,2.585-6.873,4.151c-1.54,1.072-1.54,2.24,0,3.5l1.2,1.12
	c-0.541-0.213-1.073-0.406-1.62-0.631c-5.04-2.1-9.333-4.27-12.88-6.51c-0.979-0.653-1.96-1.587-2.939-2.8l-9.393-12.31
	l10.155,1.753C406.876,318.065,409.306,322.425,411.459,326.754z M335.16,346.704c12.366,2.193,30.613,5.739,54.739,10.64
	c2.333,0.42,4.293,1.004,5.88,1.75c1.399,0.606,2.939,1.517,4.62,2.73c6.859,5.039,13.72,8.26,20.579,9.659
	c3.253,0.685,7.176,1.054,11.735,1.123c0.089,2.162,0.183,4.217,0.28,6.156c-10.999,6.073-20.606,15.143-28.815,27.23
	c-1.606,2.347-3.069,4.688-4.4,7.027c-5.208,1.508-9.766,3.016-13.659,4.522c-1.585,0.621-3.088,0.975-4.517,1.084
	c-1.418-7.388-3.824-13.739-7.223-19.045c-2.298-4.947-5.914-9.741-10.87-14.379c-4.693-4.4-9.292-7.414-13.797-9.067
	c-0.71-2.062-1.408-4.169-2.093-6.332c-0.84-2.66-1.96-4.644-3.36-5.95c-1.307-1.307-3.196-2.24-5.67-2.8
	c-7.755-1.813-15.471-3.896-23.148-6.239c0.47-4.032,1.146-8.176,2.029-12.432C323.297,344.198,329.193,345.644,335.16,346.704z
	 M550.595,203.236c3.059-4.035,6.98-7.97,11.792-11.8c-0.095,0.236-0.203,0.475-0.29,0.71c-0.188,0.7-0.21,1.167-0.07,1.4l1.26,0.07
	l4.83-0.49c-3.407,6.58-5.554,11.457-6.44,14.63c-0.466,1.68,0.094,2.146,1.681,1.4c2.239-1.158,4.209-2.418,5.938-3.769
	c-0.284,2.444-0.399,5.396-0.338,8.878c0.023,1.25,0.061,2.349,0.111,3.301C562.354,212.21,556.191,207.429,550.595,203.236z"/>
</svg>
