<?xml version="1.0" encoding="utf-8"?>
<!-- Generator: Adobe Illustrator 16.0.0, SVG Export Plug-In . SVG Version: 6.00 Build 0)  -->
<!DOCTYPE svg PUBLIC "-//W3C//DTD SVG 1.1//EN" "http://www.w3.org/Graphics/SVG/1.1/DTD/svg11.dtd">
<svg version="1.1" id="图层_1" xmlns="http://www.w3.org/2000/svg" xmlns:xlink="http://www.w3.org/1999/xlink" x="0px" y="0px"
	 width="707px" height="529px" viewBox="0 0 707 529" enable-background="new 0 0 707 529" xml:space="preserve">
<path d="M706.5,29.492c-0.2-1-1.434-1.716-3.699-2.149c-8.627-1.519-22.848-1.576-42.628-0.181
	c-3.09-12.005-5.411-18.242-6.958-18.664c-1.1-0.267-6.981,1.399-17.645,4.999c-6.458,2.186-11.668,4.084-15.649,5.702l-3.445-9.051
	c-2.666-6.465-4.433-9.831-5.299-10.097c-1-0.3-3.915,0.917-8.747,3.649c-3.899,2.166-11.014,6.481-21.345,12.946
	c-7.23,4.465-13.196,8.231-17.895,11.297c-8.964,5.732-14.263,9.431-15.896,11.097c-1.466,1.566-5.765,8.564-12.896,20.994
	l-20.394,35.49c-9.731,16.662-14.979,25.476-15.746,26.442c-0.467,0.3-3.115,1.466-7.947,3.499l-16.789,7.013
	c1.604-7.957,3.153-16.217,4.642-24.808c2.167-12.73,3.383-20.911,3.649-24.543c0.167-2.433-0.149-3.833-0.949-4.199
	c-0.567-0.2-1.316-0.067-2.25,0.399c-1.6,0.867-4.032,2.85-7.298,5.949c-7.465,6.865-13.013,12.296-16.646,16.295
	c-16.995,18.928-28.691,35.24-35.09,48.936c-2.666,5.631-5.781,16.745-9.348,33.34c-1.53,6.81-3.573,16.971-6.128,30.485
	c-8.65-3.703-13.861-5.688-15.615-5.942c-2.058-0.285-8.002,0.229-17.817,1.538c-0.262-2.986-0.554-6.162-0.878-9.535l-1.799-20.894
	c-1-10.364-1.866-16.396-2.6-18.095c-0.699-1.633-6.314-7.681-16.845-18.145l-24.294-23.693l-22.043-20.794
	c-9.797-9.098-15.196-14.029-16.195-14.796c-1.133-0.867-1.933-1.266-2.399-1.2c-0.6,0.133-1.116,0.966-1.549,2.5
	c-0.551,1.718-2.02,9.875-4.4,24.432c-2.604-1.258-6.099-2.886-10.496-4.888c-10.264-4.632-18.378-7.964-24.343-9.997
	c-1.366-0.434-4.548,0.167-9.547,1.799c-4.266,1.399-6.915,2.399-7.948,2.999c-1.029,0.611-3.539,6.985-7.518,19.087
	c-2.269-0.212-4.79-0.426-7.578-0.643l-31.491-1.1c-6.798,0.133-11.896,0.583-15.296,1.35c-3.032,0.733-3.432,2.283-1.199,4.648
	c3.965,4.232,14.762,10.53,32.391,18.895c5.564,2.617,10.349,4.809,14.386,6.591c-1.951,7.49-2.85,12.661-2.689,15.502
	c0.5,6.398,0.883,12.813,1.149,19.245l0.041,1.078c-7.375,1.005-14.54,2.159-21.484,3.471c-10.793,2.068-19.129,3.999-25.026,5.793
	l-2.167-2.094c-4.365-4.066-10.73-8.531-19.094-13.396c-7.365-4.332-12.913-7.098-16.646-8.297
	c-2.766-0.967-3.632-0.133-2.599,2.499c0.433,1.033,2.716,5.565,6.848,13.596c1.016,1.961,1.949,3.754,2.807,5.392
	c-22.081-10.119-43.912-19.072-65.49-26.836c-6.131-2.199-12.379-3.999-18.745-5.398c-5.465-1.167-9.764-1.816-12.896-1.95
	c-2.066-0.033-3.216,0.267-3.449,0.9c-0.167,0.566,0.316,1.433,1.45,2.599c2.399,2.433,6.881,6.048,13.446,10.847l11.747,8.348
	l25.193,16.495l24.82,15.942c-1.039,1.171-2.068,2.388-3.076,3.703c-1.432,1.844-2.719,3.745-3.882,5.694
	c-3.687-1.128-8.812-2.408-15.413-3.844c-8.198-1.8-13.846-2.733-16.945-2.799c-1.5,0-2.349,0.433-2.549,1.3
	c-0.167,0.667,0.033,1.416,0.6,2.249c2.099,3.033,7.464,7.398,16.095,13.096c4.017,2.688,7.898,5.122,11.657,7.323
	c-0.329,1.746-0.575,3.524-0.741,5.335c-7.177-2.816-26.176-9.784-57.003-20.906c-3.032-1.167-7.731-2.749-14.096-4.749
	c-8.597-2.666-14.545-4.182-17.845-4.549c-1.733-0.167-2.732,0.184-2.999,1.05c-0.167,0.733,0.2,1.683,1.1,2.849
	c3.932,4.999,13.163,12.413,27.692,22.244c19.008,12.849,42.512,26.471,70.503,40.866c0.785,1.136,1.607,2.151,2.468,3.041
	c1.809,3.431,4.208,6.69,7.206,9.778c3.433,3.465,6.415,5.465,8.948,5.998c3.532,0.832,7.831,0.467,12.896-1.1
	c4.793-1.449,7.961-3.401,9.523-5.85l9.371,1.201c5.198,0.433,9.581,0.316,13.146-0.351l4.999-1.1
	c3.066-0.767,5.166-1.149,6.298-1.149c2.052,0.03,4.809,0.723,8.255,2.065c-0.849,2.129-1.733,4.467-2.656,7.032
	c-4.266,11.729-6.615,19.711-7.048,23.942c-1,9.765-0.716,17.262,0.85,22.493c0.447,1.53,1.088,3.403,1.916,5.606l-7.364,0.243
	c-2,0.266-3.299,0.749-3.899,1.449c-1,1.199-2.066,4.031-3.199,8.498l-1.185,5.713c-0.067,0.098-0.153,0.186-0.215,0.285
	c-1.133,1.766-1.966,7.431-2.499,16.994c-0.567,10.464-0.083,18.229,1.449,23.294c1.767,5.898,4.083,11.764,6.948,17.595
	c2.899,5.865,5.582,10.114,8.048,12.747c0.351,0.375,0.678,0.658,0.994,0.896c0.577,2.894,0.733,7.626,0.456,14.249
	c-0.267,6.132-0.633,10.33-1.1,12.597l-2.999,11.446l-2.949,10.397c-0.433,1.199-0.05,2.499,1.15,3.898l2.757,2.577
	c0.077,2.775,0.791,7.265,2.141,13.469c1.933,8.53,3.632,14.263,5.099,17.194c0.7,1.5,1.3,2.267,1.799,2.3
	c0.467,0.066,1.3-0.483,2.5-1.649c2.099-2.166,4.949-6.515,8.547-13.047c1.813-3.31,3.201-5.967,4.186-8.007l4.512,0.26l4.117-0.237
	c2.866,2.87,6.304,6.757,10.329,11.684c2.5,3.032,5.182,5.815,8.048,8.348c1,0.866,1.733,1.3,2.199,1.3
	c0.733-0.1,1.417-1,2.049-2.699c1.2-3.299,1.65-8.464,1.35-15.496c-0.055-1.428-0.153-2.76-0.271-4.044
	c2.204,0.563,4.691,1.408,7.469,2.545l9.297,4.099l7.698,3.249l1.949,0.3c0.5-0.199,0.8-0.999,0.9-2.399
	c0.033-1.699-0.333-4.132-1.1-7.298c-0.733-2.898-1.633-5.581-2.699-8.048c-1.524-3.668-3.181-6.637-4.967-8.913
	c-0.729-1.938-1.983-3.767-3.78-5.482c-1.733-1.666-3.549-2.916-5.449-3.749l-20.494-8.348c-3.499-1.466-5.915-3.166-7.248-5.099
	c-0.967-1.3-2-3.832-3.099-7.598l-0.9-3.049c-1.157-3.735-2.232-11.476-3.225-23.21c1.17-1.973,2.329-4.63,3.475-7.981
	c1.08-3.129,1.751-5.662,2.025-7.617c2.666,2.078,4.975,3.387,6.922,3.918c2.399,0.667,4.732,1,6.998,1
	c4.065,0,7.198-0.916,9.397-2.749c2.232-1.712,5.815-6.604,10.74-14.657c1.912,2.553,4.604,5.32,8.104,8.309
	c4.699,3.933,8.664,6.349,11.896,7.248c2.1,0.667,4.749,1.1,7.948,1.3l10.397-0.45c4.633-0.825,11.347-3.394,20.09-7.664
	c0.737,1.651,1.458,3.348,2.154,5.115l3.799,11.146c0.5,1.533,1.066,2.366,1.699,2.499c0.6,0.2,1.199-0.383,1.8-1.749
	c1.433-2.966,2.699-7.081,3.799-12.347c0.426-2.076,0.741-3.909,0.958-5.526c1.185,4.159,3.339,9.391,6.49,15.724
	c1.762,3.494,3.408,6.396,4.94,8.713c0.534,1.422,1.086,3.159,1.659,5.233l2.199,8.697l1.1,3.898c0.767,2.433,1.3,5.282,1.6,8.548
	c0.4,3.966,0.35,7.564-0.149,10.797c-1,6.032-1.566,9.914-1.7,11.646c-0.233,2.666,0.05,4.399,0.85,5.199
	c0.541,0.541,3.366,2.177,8.462,4.904c0.287,0.337,0.611,0.653,0.985,0.943c3.699,2.767,8.432,6.665,14.196,11.697l6.298,5.198
	c0.967,0.7,1.667,1.017,2.1,0.95c0.934-0.067,1.483-1.184,1.649-3.35c0.391-4.516,0.078-9.718-0.926-15.595
	c3.381,1.623,8.188,4.21,14.473,7.797c3.665,2.1,7.631,4.282,11.896,6.549c1.333,0.699,2.232,0.982,2.699,0.85
	c0.8-0.233,1.1-1.45,0.899-3.649c-0.24-3.146-1.63-7.463-4.13-12.911c1.077,0.761,2.352,1.681,3.83,2.765
	c1.866,1.399,4.849,3.415,8.947,6.048c1.066,0.7,1.783,1,2.149,0.899c0.7-0.166,1.133-1.249,1.3-3.249
	c0.167-1.933-0.15-4.765-0.95-8.497c-0.6-2.899-1.1-4.799-1.499-5.698c-0.967-2.399-2.183-4.766-3.649-7.099
	c-2.898-4.731-5.631-7.164-8.197-7.298c-0.228-0.011-0.46-0.001-0.692,0.013c-0.696-0.646-1.714-1.2-3.057-1.662
	c-2.299-0.8-5.965-1.482-10.997-2.05l-6.098-0.55l-4.399-0.749c-0.866-0.566-2.549-3.85-5.048-9.848
	c-2.066-5.032-3.899-9.931-5.499-14.695c-0.533-1.6-1.232-4.699-2.1-9.298c-0.771-4.01-1.241-7.138-1.417-9.403
	c0.66,0.196,1.376,0.382,2.167,0.556l5.249,0.65c1.832-0.067,5.515-2.1,11.047-6.099c5.632-4.032,9.747-7.598,12.346-10.697
	c2.433-2.966,4.516-7.265,6.249-12.896c1.041-3.52,1.686-6.329,1.942-8.444l8.704,0.247c2.3-0.199,5.132-2.549,8.498-7.048
	c0.694-0.955,1.135-2.057,1.353-3.288l0.146,0.238c2.433,3.799,3.966,5.982,4.599,6.549c1.041,0.884,3.985,2.582,8.786,5.076
	c-0.983,1.954-2.179,4.576-3.587,7.87c-2.166,4.998-3.333,7.998-3.499,8.997l-0.03,0.123c-1.903,3.297-3.793,7.729-5.669,13.323
	c-1.865,5.632-2.932,9.947-3.198,12.946c-0.134,1.434-0.018,2.316,0.35,2.649c0.467,0.434,1.449,0.184,2.949-0.75
	c3.343-2.097,7.148-5.357,11.406-9.755c0.192,0.918,0.42,1.959,0.69,3.157l2.399,9.697c0.566,2.133,1.1,3.282,1.6,3.449
	c0.533,0.166,1.449-0.7,2.749-2.6c1.966-2.799,3.882-6.798,5.748-11.997c1.899-5.331,2.933-9.58,3.1-12.746
	c1.565-1.999,3.415-5.082,5.548-9.247c2.066-4.065,3.383-7.182,3.949-9.348c0.467-1.767,0.517-4.065,0.149-6.897
	c-0.267-2.033-0.6-3.549-0.999-4.549c-0.068-0.172-0.227-0.357-0.438-0.551c0.105-0.904,0.122-1.964,0.037-3.199
	c-0.066-1.532-0.25-2.814-0.55-3.848c-0.366-1.267-2.149-4.933-5.349-10.998c-2.477-4.732-4.347-8.024-5.614-9.888
	c1.729-2.446,3.089-4.849,4.065-7.207c0.466-1.088-0.141-4.041-1.79-8.812c4.023,0.441,8.431,0.995,13.236,1.664
	c18.062,2.6,30.725,5.598,37.989,8.997c5.665,2.666,15.496,7.864,29.491,15.596c18.197,9.836,31.749,16.605,40.688,20.333
	c-0.383,0.137-0.763,0.27-1.149,0.411c-8.73,3.132-17.295,6.814-25.692,11.047c-7.798,3.933-11.514,6.531-11.147,7.798
	c0.134,0.6,1.017,1,2.649,1.199l11.646,0.8l11.97,0.416c-0.207,0.246-0.416,0.485-0.622,0.734c-4.6,5.598-6.481,9.03-5.648,10.297
	c0.399,0.633,1.616,0.883,3.648,0.749l13.946-1.949l3.442-0.513c8.285,2.321,22.84,8.402,43.694,18.258l11.297,5.398
	c2.699,1.2,4.498,1.8,5.398,1.8l3.749-0.55l5.448-1.5c8.331-2.299,15.479-3.832,21.444-4.599l3.648-1.05l4.699-2.149l4.548-2.299
	c1.866-0.934,3.333-1.6,4.399-2l10.847-4.148c6.498-2.899,10.03-5.481,10.597-7.748c0.667-2.499,0.066-8.581-1.799-18.244
	c-1.267-6.332-1.883-9.932-1.85-10.797l0.35-14.746c0.133-7.832,0.05-13.047-0.25-15.646c-0.3-2.531-0.633-14.778-1-36.738
	l-0.399-39.039c0-2.166-0.45-5.815-1.35-10.947l-2.999-15.396c-1.767-8.464-2.999-14.829-3.699-19.094
	c-0.866-5.665-2.85-13.063-5.948-22.194c-3.032-8.998-5.165-13.863-6.398-14.596l-1.199-0.1c-0.434,0.167-0.816,0.55-1.15,1.149
	l-1.1,3c-1.732,5.665-3.582,9.48-5.548,11.447c-0.967,0.933-1.583,3.016-1.85,6.248c-0.134,1.066-0.233,4.282-0.3,9.647
	c-0.066,2.599-0.35,4.948-0.85,7.048l-1.2,3.999c-0.3,1.266-0.633,4.798-1,10.597c-0.499,6.465-0.816,12.747-0.949,18.845
	c-2.399-4.932-4.299-8.498-5.698-10.697c-1.733-2.799-3.016-4.099-3.849-3.899c-1.233,0.233-1.583,10.363-1.05,30.391l1.084,26.365
	c-2.699-4.874-4.695-8.386-5.983-10.52c-2.166-3.398-3.599-4.998-4.298-4.799c-0.567,0.168-0.967,0.65-1.2,1.45
	c-0.366,1.333-0.55,3.866-0.55,7.598c-6.231-6.364-15.396-14.096-27.492-23.193c-5.231-4.032-9.98-7.497-14.246-10.397
	c-2.999-2.032-5.032-3.314-6.098-3.848c-0.7-0.334-1.267-0.451-1.7-0.351c-0.733,0.267-1.083,1.466-1.05,3.599
	c0.067,2.899,0.75,8.615,2.05,17.146c0.633,4.266,1.5,8.747,2.6,13.446l1.549,7.248c-0.752-0.053-1.443-0.08-2.104-0.094
	c-1.917-1.903-4.025-3.724-6.344-5.455c-2.033-1.566-3.532-2.532-4.499-2.898l-1.249-0.351c-0.533,0.101-0.717,0.7-0.55,1.8
	l2.699,14.796l-2.8-3.149c-15.362-17.195-25.109-27.159-29.241-29.892c-1.033-0.833-1.933-1.3-2.699-1.399
	c-1.566-0.334-2.05,0.982-1.45,3.949c0.434,2.332,1.783,6.265,4.049,11.797c1.208,3.049,2.334,5.762,3.387,8.178
	c-5.063-4.913-10.092-9.341-15.083-13.277c-8.131-6.498-13.813-10.597-17.045-12.296c-1.767-0.967-3.016-1.167-3.749-0.601
	c-1.756,1.392-0.891,6.36,2.589,14.896c-3.638-2.032-8.109-5.058-13.436-9.098l-20.944-16.195l-8.095-6.098
	c-0.618-5.418-2.758-11.629-6.451-18.646l-3.049-5.648c-1.134-2.132-1.634-3.416-1.5-3.849l5.448-15.196
	c3.466-9.63,5.549-14.663,6.248-15.096c0.4-0.233,8.314-3.016,23.744-8.348c16.062-5.598,26.925-9.831,32.59-12.696l25.843-17.745
	c16.029-11.03,26.159-17.262,30.392-18.695c3.032-1.033,8.114-1.799,15.246-2.299l20.144-0.799l15.746-0.65
	c3.932-0.267,6.398-0.75,7.397-1.45c2.248-1.491,5.19-7.159,8.827-16.992l18.516-5.751c13.563-4.499,22.127-7.864,25.692-10.097
	c1.767-1.066,2.499-2.083,2.199-3.049c-0.233-0.767-1.216-1.65-2.949-2.649c-3.465-2-10.396-4.299-20.794-6.898l-12.658-2.951
	c4.018-13.979,6.192-23.488,6.51-28.491c0.077-1.153,0.007-2.83-0.207-5.017l16.053-9.878c11.663-7.698,19.161-13.629,22.494-17.795
	C706.233,31.375,706.699,30.291,706.5,29.492z M192.646,254.128l-0.7-3.499c-0.867-3.866-2.533-7.915-4.999-12.146
	c-2.628-4.436-5.518-7.927-8.664-10.484c-0.044-0.352-0.085-0.693-0.134-1.063c-0.633-4.999-1.216-8.298-1.749-9.897
	c-1.078-3.412-2.624-6.739-4.588-9.989c3.938,1.085,8.414,2.166,13.435,3.241c11.367,2.491,20.371,4.245,27.017,5.263l2.675,10.433
	l3.049,5.798c2.166,3.899,3.666,6.082,4.499,6.548c0.566,0.367,1.75,0.617,3.549,0.75l4.199-0.1
	c2.466-0.566,10.097-4.915,22.894-13.046c3.999-2.499,9.147-5.948,15.446-10.347l8.747-5.948l3.899,0.899l5.798,1.6l9.948,2.289
	c1.59,5.265,2.756,9.237,3.494,11.898c-17.772,5.438-36.361,12.994-55.779,22.703c-15.907,7.939-27.451,14.715-34.659,20.338
	c-0.392,0.167-0.779,0.332-1.181,0.506c-1.333,0.58-2.589,1.133-3.785,1.664c-4.888-2.972-8.194-5.975-9.911-9.012
	C194.145,260.826,193.312,258.027,192.646,254.128z M346.964,217.85l0.13-0.523c0.15,0.126,0.304,0.256,0.457,0.385L346.964,217.85z
	"/>
</svg>
