<?xml version="1.0" encoding="utf-8"?>
<!-- Generator: Adobe Illustrator 16.0.0, SVG Export Plug-In . SVG Version: 6.00 Build 0)  -->
<!DOCTYPE svg PUBLIC "-//W3C//DTD SVG 1.1//EN" "http://www.w3.org/Graphics/SVG/1.1/DTD/svg11.dtd">
<svg version="1.1" id="图层_1" xmlns="http://www.w3.org/2000/svg" xmlns:xlink="http://www.w3.org/1999/xlink" x="0px" y="0px"
	 width="297px" height="319px" viewBox="0 0 297 319" enable-background="new 0 0 297 319" xml:space="preserve">
<path d="M292.155,164.651c-0.802-2.261-1.847-3.406-3.134-3.435c-1.289,0-2.404,1.088-3.35,3.263
	c-3.177,7.271-8.973,11.893-17.389,13.868c-3.721,0.887-7.27,0.959-10.646,0.215c-2.772-0.644-5.127-1.774-7.075-3.38
	c4.838-0.714,8.807-2.796,11.884-6.28c3.091-3.492,4.708-7.686,4.852-12.581c0.172-6.011-1.432-10.791-4.809-14.34
	c-3.35-3.521-7.715-5.066-13.096-4.637c-2.031,0.171-3.205,0.816-3.521,1.932c-0.286,1.087,0.344,2.318,1.89,3.692
	c1.889,1.688,2.876,3.621,2.962,5.796c0.058,2.061-0.644,3.449-2.104,4.165c-3.063,1.545-5.696-0.558-7.899-6.312
	c-3.976-10.336-9.499-15.326-16.558-15.015c1.69-1.676,2.788-3.869,3.29-6.581c0.516-2.862,0.315-5.839-0.601-8.93
	c-0.944-3.091-2.419-5.653-4.423-7.685c-1.934-1.959-4.084-3.111-6.448-3.464c-2.778-3.397-6.177-4.819-10.21-4.221
	c-1.431,0.229-2.304,0.773-2.619,1.632c-0.257,0.83,0.029,1.832,0.859,3.005c3.406,4.694,4.207,9.216,2.404,13.567
	c-0.802,1.889-2.047,3.449-3.735,4.68c-1.66,1.173-3.621,1.946-5.882,2.318c-9.017,1.459-16.529,5.796-22.541,13.009
	c-5.81,6.918-9.339,15.497-10.628,25.705c-0.036-0.01-0.069-0.021-0.104-0.03c-5.886-1.479-12.09-1.407-18.604,0.178
	c-0.421-0.376-1.175-0.636-2.263-0.778c-1.797-0.238-3.61-0.592-5.44-1.06c0.153-0.035,0.306-0.061,0.459-0.101
	c2.977-0.772,4.494-1.989,4.551-3.649c0.029-1.288-1.231-2.376-3.778-3.263c-2.49-0.887-5.753-1.445-9.789-1.674
	c-10.361-0.601-15.413-6.984-15.156-19.149c0.029-1.603,0.487-3.091,1.374-4.465c0.945-1.431,2.247-2.59,3.907-3.478
	c3.721-1.946,6.741-3.792,9.059-5.539c2.959-2.272,5.14-4.619,6.563-7.038c4.268-0.415,8.051-1.813,11.341-4.211
	c3.32-2.404,5.596-5.424,6.826-9.059c1.316-3.807,1.23-7.714-0.258-11.721c-1.688-4.465-5.423-6.669-11.205-6.612
	c-1.879,0.018-3.729,0.284-5.549,0.796c3.024-2.856,5.179-6.622,6.45-11.315c1.295-4.915,1.255-9.299-0.085-13.165
	c1.603-3.058,2.965-6.268,4.078-9.633c3.148-9.503,4.064-19.005,2.748-28.508c-0.229-1.774-0.873-2.676-1.932-2.705
	c-1.059,0-1.774,0.901-2.146,2.705c-1.638,8.046-4.729,15.742-9.263,23.092c-0.439-2.266-1.229-4.292-2.416-6.047
	c-1.374-2.089-2.776-3.12-4.208-3.091c-0.801,0.029-1.603,0.486-2.404,1.374c-0.478,0.554-0.837,1.144-1.098,1.761
	c-0.802-0.118-1.635-0.154-2.508-0.087c-4.093-13.825-12.136-22.755-24.129-26.791c-3.361-1.138-6.972-1.853-10.818-2.172
	c-1.351-1.299-2.82-2.552-4.423-3.753c-2.919-2.146-5.71-3.707-8.372-4.68c-2.604-0.916-4.465-1.031-5.582-0.344
	c-1.288,0.802-0.873,4.036,1.245,9.703l0.02,0.053c-6.229,1.106-12.916,2.987-20.07,5.657c-5.896,2.204-11.864,2.633-17.904,1.288
	c-5.868-1.317-10.519-4.007-13.954-8.072c-1.001-1.231-2.032-1.66-3.091-1.288c-1.145,0.401-1.817,1.674-2.018,3.821
	c-0.287,3.234,0.586,6.541,2.619,9.917c1.678,2.78,3.762,4.98,6.251,6.599c-0.845,0.08-1.684,0.242-2.516,0.486
	c-3.12,0.916-5.653,2.805-7.599,5.667c-0.859,1.26-1.031,2.247-0.515,2.962c0.486,0.716,1.531,0.959,3.134,0.73l12.468,0.39
	c-6.288,4.38-10.106,9.586-11.437,15.625c-1.347,6.292,0.098,11.883,4.317,16.777c-4.116,1.013-6.373,2.571-6.722,4.689
	c-0.287,1.803,0.558,4.079,2.533,6.827c1.76,2.479,3.833,4.441,6.217,5.89c-2.942,0.056-5.731,0.62-8.363,1.709
	c-3.578,1.489-5.481,3.349-5.71,5.582c-0.229,2.147,0.973,4.336,3.606,6.569c2.287,1.936,5.017,3.396,8.188,4.382
	c-2.747,0.505-5.266,1.441-7.544,2.831c-3.377,2.032-4.966,4.265-4.766,6.698c0.088,1.141,0.522,2.148,1.264,3.037
	c-3.733,2.067-6.325,5.14-7.747,9.243c-1.442,4.193-1.104,7.958,0.968,11.303c-0.259,1.153-0.425,2.351-0.496,3.595
	c-0.36,5.611,1.218,9.833,4.7,12.69c0.148,1.609,0.465,3.163,0.967,4.655c1.202,3.464,3.148,5.883,5.839,7.256
	c1.546,0.802,2.59,1.045,3.134,0.73c0.572-0.315,0.601-1.303,0.086-2.963c-1.145-3.863-0.558-7.585,1.76-11.163
	c2.404-3.692,6.04-6.226,10.905-7.6c10.018-2.862,16.458-6.497,19.32-10.905c2.576-4.007,2.375-8.958-0.601-14.855
	c-0.859-1.603-0.902-3.148-0.129-4.637c1.259-2.433,2.605-4.293,4.036-5.582c1.223-1.096,2.662-1.867,4.292-2.35
	c0.598,2.534,1.992,4.412,4.208,5.613c2.73,1.511,5.659,1.505,8.781,0.021c5.133,5.85,12.426,10.813,21.917,14.877
	c3.263,1.374,4.308,4.88,3.134,10.519c-1.259,5.982-4.751,12.565-10.476,19.75c-2.805,3.549-5.653,7.872-8.544,12.965
	c-3.349,5.926-5.71,11.135-7.084,15.629c-1.202,3.921-1.975,7.713-2.319,11.377c-0.4,4.18-0.014,6.541,1.16,7.084
	c0.744,0.344,1.975,0.043,3.692-0.901c1.222-0.682,2.332-1.503,3.343-2.45c-0.609,2.742-1.15,5.561-1.583,8.504
	c-1.117,7.527-0.931,11.578,0.558,12.15c1.417,0.549,3.292,0.131,5.62-1.251c-0.602,5.009-1.728,10.901-3.387,17.694
	c-0.572,2.29-1.188,4.309-1.846,6.055l-2.361,5.495c-5.124,11.649-8.544,19.649-10.261,24c-4.494,11.478-7.084,20.265-7.771,26.361
	c-0.258,2.118-0.029,3.778,0.687,4.98c0.687,1.174,1.903,2.062,3.649,2.662c3.492,1.116,7.098,1.603,10.819,1.46
	c4.293-0.172,7.857-1.188,10.69-3.049c1.402-0.887,2.333-1.789,2.791-2.705c0.515-0.973,0.845-2.519,0.988-4.637
	c1.23-19.635,2.347-33.688,3.349-42.161c0.916-7.871,2.046-13.438,3.392-16.701l5.238-13.181c1.684-4.41,3.16-8.613,4.445-12.625
	c1.063,1.733,2.224,3.411,3.498,5.025c2.175,2.776,4.293,4.823,6.354,6.14c1.831,1.177,3.25,1.544,4.269,1.119
	c0.772,4.784,1.428,9.883,1.957,15.325c0.315,3.406,0.343,7.098,0.086,11.076c-0.286,4.18-0.859,8-1.717,11.464
	c-4.408,17.946-6.913,32.114-7.514,42.505c-0.172,3.32,0.673,5.682,2.533,7.084c2.433,1.832,6.154,2.69,11.163,2.576
	c4.58-0.086,8.573-0.873,11.979-2.361c1.688-0.744,2.791-1.488,3.306-2.232c0.658-0.916,1.03-2.434,1.116-4.551
	c0.106-3.217-0.002-6.938-0.321-11.157l7.062-0.607c1.374-0.315,2.375-0.901,3.005-1.761c0.63-0.887,0.987-2.275,1.073-4.164
	c0.172-4.094-0.014-9.488-0.558-16.186c-0.544-6.584-1.359-13.496-2.447-20.738c-1.001-6.611-1.474-11.248-1.417-13.91
	c0.086-3.463,0.93-7.385,2.533-11.764l3.692-10.563c0.935-2.907,1.683-5.679,2.265-8.327c0.313-0.096,0.621-0.188,0.912-0.259
	l3.703-0.347c0.944,2.236,2.083,4.54,3.424,6.915c3.435,6.068,7.514,11.479,12.236,16.229c1.86,1.861,3.163,3.836,3.907,5.926
	c0.772,2.117,1.188,4.938,1.245,8.458c0.085,5.639-0.071,13.038-0.473,22.196c-0.458,10.219-1.087,18.806-1.89,25.761
	c-0.257,2.232-0.07,3.864,0.559,4.895c0.716,1.174,2.219,2.089,4.508,2.748c1.976,0.601,4.995,0.888,9.06,0.858l8.759-0.602
	c4.265-0.572,6.482-3.348,6.654-8.328c0.201-7.156-0.916-15.07-3.349-23.743c-1.746-6.183-4.923-15.099-9.531-26.748
	c-3.521-8.987-5.009-16.687-4.466-23.099c0.859-10.562,0.873-19.205,0.043-25.932c-1.145-9.303-3.893-16.501-8.242-21.596
	c-1.91-2.242-4.166-4.093-6.749-5.573c3.052-3.357,6.344-5.802,9.883-7.308c3.663-1.545,7.112-1.917,10.347-1.116
	c3.32,0.858,5.939,2.819,7.857,5.882c2.09,3.32,3.134,7.586,3.134,12.795c-0.028,13.195,3.878,23.656,11.722,31.385
	c6.668,6.611,15.284,10.547,25.846,11.807c10.161,1.174,19.221-0.301,27.178-4.422c8.647-4.458,14.33-11.42,17.055-20.88
	c3.812-4.104,6.504-8.706,8.062-13.812C294.173,175.929,294.13,170.146,292.155,164.651z"/>
</svg>
