<?xml version="1.0" encoding="utf-8"?>
<!-- Generator: Adobe Illustrator 16.0.0, SVG Export Plug-In . SVG Version: 6.00 Build 0)  -->
<!DOCTYPE svg PUBLIC "-//W3C//DTD SVG 1.1//EN" "http://www.w3.org/Graphics/SVG/1.1/DTD/svg11.dtd">
<svg version="1.1" id="图层_1" xmlns="http://www.w3.org/2000/svg" xmlns:xlink="http://www.w3.org/1999/xlink" x="0px" y="0px"
	 width="139px" height="263px" viewBox="0 0 139 263" enable-background="new 0 0 139 263" xml:space="preserve">
<path d="M135.443,188.975c-1.064-1.973-2.155-3.348-3.271-4.127c-0.908-0.623-1.623-0.779-2.143-0.467
	c-0.363,0.207-0.545,0.648-0.545,1.323c-0.025,0.52,0.065,1.091,0.273,1.714c0.233,0.805,0.337,1.545,0.311,2.219
	c-0.025,0.779-0.232,1.207-0.623,1.285c-0.648,0.182-1.531,0.039-2.647-0.428s-2.142-1.117-3.076-1.947
	c-2.726-2.414-6.62-5.141-11.683-8.178c-7.762-4.621-14.783-7.541-21.066-8.762c-5.348-1.037-10.682-1.22-16.004-0.545
	c-3.193,0.416-6.113,1.091-8.761,2.025l-0.312-18.496c-0.052-2.337,0.571-4.219,1.869-5.646c1.324-1.454,3.725-2.882,7.204-4.283
	c3.09-1.221,8.853-2.921,17.289-5.102c7.217-1.895,12.422-3.154,15.615-3.777c3.557,6.205,7.723,10.358,12.5,12.461
	c3.686,1.636,6.697,2.103,9.033,1.402c1.766-0.546,3.077-1.74,3.934-3.583c0.26-0.571,0.324-1.376,0.195-2.414
	c-0.131-1.038-0.441-2.09-0.936-3.154c-1.012-2.129-2.479-4.063-4.4-5.802c-2.283-2.077-4.906-3.505-7.865-4.284
	c-3.895-1.039-7.865-1.324-11.916-0.856c-2.311,0.285-4.893,0.896-7.748,1.83l-0.896,0.272l-16.354,5.101
	c-8.107,2.561-13.458,4.313-16.066,5.261c0.063-0.7,0.185-1.452,0.412-2.301c0.263-1.053,0.575-1.853,0.933-2.416
	c4.756,0.153,9.623-0.613,14.605-2.335c8.021-2.778,13.59-7.321,16.705-13.629c0.883-1.428,1.688-3.232,2.414-5.413
	c1.251-3.732,1.854-7.504,1.816-11.314c0.826-0.914,1.674-2.021,2.545-3.327c0.986-1.462,1.849-2.979,2.603-4.545l0.979,0.106
	c1.479,0,2.515-0.351,3.104-1.052l5.113-4.595c3.738-3.608,6.541-6.763,8.41-9.462c2.752-3.972,3.726-8.165,2.921-12.578
	c-1.168-6.438-5.958-14.044-14.368-22.819c-7.113-7.424-15.576-12.37-25.389-14.836c-5.479-1.402-12.371-2.051-20.678-1.947
	l-6.902,0.059c1.242-0.625,2.454-1.329,3.631-2.123c4.621-3.115,7.878-6.62,9.774-10.514c1.532-3.141,1.856-5.321,0.974-6.542
	c-0.857-1.22-3.193-1.233-7.009-0.039c-4.024,1.272-7.918,3.414-11.682,6.425c-2.748,2.198-5,4.805-6.778,7.805
	c0.628-3.503,1.025-6.95,1.171-10.336c0.182-3.894-0.233-7.23-1.246-10.008C50.346,1.428,48.957,0,47.244,0
	c-1.817,0-3.4,1.519-4.75,4.556c-1.402,3.167-2.116,7.061-2.142,11.682c-0.036,3.286,0.435,6.442,1.385,9.476
	c-4.205-2.365-7.45-5.376-9.718-9.047c-0.364-0.493-0.649-0.688-0.857-0.584c-0.089,0.054-0.103,0.182-0.082,0.345
	c-1.566,2.036-3.013,4.151-4.339,6.345c-0.05-0.009-0.099-0.013-0.135,0.008c-0.111,0.056-0.14,0.181-0.092,0.369
	c-1.582,2.656-2.98,5.433-4.212,8.319c-0.052-0.007-0.099-0.001-0.135,0.035c-0.078,0.091-0.104,0.247-0.078,0.467
	c-0.492,1.178-0.966,2.367-1.401,3.583c-0.817,2.264-1.495,4.494-2.046,6.691c-0.005,0.004-0.013,0.002-0.018,0.007
	c-0.081,0.061-0.087,0.154-0.054,0.266c-0.928,3.771-1.461,7.444-1.606,11.019c-0.018,0.003-0.042-0.004-0.053,0.008
	c-0.156,0.156-0.156,0.389,0,0.701l1.129,1.48c4.363,4.892,10.153,8.025,17.341,9.438l0.104,2.671
	c0.312,2.051,1.039,3.712,2.181,4.984l0.015-0.013c0.729,1.002,2.143,1.93,4.244,2.784c-0.174,3.517,0.083,7.256,0.796,11.228
	c-0.672,1.02-1.31,2.074-1.901,3.174c-2.025,3.816-3.323,7.671-3.894,11.565c-1.09,7.243,0.649,14.304,5.218,21.183
	c4.878,7.394,11.651,11.994,20.308,13.818l-3.233,5.247l-11-10.927c-8.074-7.762-13.979-12.928-17.718-15.498
	c-0.856-1.869-2.284-3.622-4.283-5.257c-3.453-2.855-7.801-4.335-13.045-4.439c-3.297-0.052-6.01,0.455-8.138,1.519
	c-1.636,0.805-2.856,1.908-3.661,3.31c-0.727,1.194-1.09,2.557-1.09,4.089c-0.026,1.35,0.234,2.453,0.779,3.31
	c1.064,1.791,3.271,2.985,6.62,3.582c4.647,0.805,10.826,0.195,18.536-1.83c2.751,1.532,6.166,4.037,10.241,7.516
	c6.843,5.808,13.253,12.719,19.237,20.713c-3.496,6.02-6.025,13.326-7.598,21.908l-4.591,0.213
	c-3.842,0.675-7.308,2.271-10.397,4.789c-1.194,1.013-2.232,2.051-3.115,3.115c-1.03,1.189-1.574,2.097-1.636,2.722
	c-6.76,0.826-10.773,1.787-12.032,2.886c-2.077,1.817-0.493,6.841,4.75,15.07c5.296,8.307,11.643,15.615,19.042,21.923
	c2.674,2.232,4.335,3.063,4.984,2.492c0.623-0.571,0.428-1.921-0.584-4.05c-0.597-1.221-1.35-2.505-2.259-3.855
	c-1.116-1.688-2.855-4.971-5.218-9.852c-0.147-0.309-0.279-0.591-0.418-0.886c2.411,2.486,4.991,4.171,7.739,5.053
	c2.051,0.649,3.907,0.974,5.568,0.974c1.609,0,2.557-0.286,2.843-0.857c0.259-0.597-0.091-1.492-1.052-2.687
	c-0.986-1.22-1.428-2.077-1.324-2.569c0.156-0.623,0.649-1.285,1.479-1.986c0.803-0.629,1.721-1.134,2.741-1.526l0.647,1.409
	c2.596,5.971,4.958,12.149,7.087,18.535c2.622,7.893,6.542,20.664,11.76,38.317c0.337,1.063,0.792,1.985,1.362,2.765
	c0.598,0.805,1.143,1.143,1.637,1.012c0.441-0.104,0.791-0.609,1.051-1.518c0.26-0.831,0.402-1.818,0.428-2.96
	c0.104-3.245-0.271-8.671-1.129-16.276l-2.842-21.846l-0.652-4.695c0.796,1.033,1.62,1.958,2.482,2.748
	c3.452,3.142,8.216,5.465,14.291,6.971c2.621,0.648,5.01,0.973,7.164,0.973c4.206,0,7.736-1.103,10.592-3.309
	c2.077-1.61,3.336-3.22,3.777-4.829c0.182-0.623,0.207-1.181,0.078-1.675c-0.13-0.52-0.402-0.896-0.818-1.129
	c-0.908-0.52-1.921-0.182-3.037,1.012c-0.285,0.313-0.701,0.507-1.246,0.585l-1.713-0.117c-2.28-0.759-3.775-2.391-4.497-4.883
	c3.62,0.167,6.873,0.016,9.715-0.491c4.93-0.884,8.346-2.742,10.271-5.563c1.565,0.142,3.151,0.096,4.76-0.161
	c1.714-0.312,3.181-0.792,4.4-1.44c2.959-1.688,4.906-4.089,5.842-7.204C136.936,194.09,136.74,191.416,135.443,188.975z"/>
</svg>
