<?xml version="1.0" encoding="utf-8"?>
<!-- Generator: Adobe Illustrator 16.0.0, SVG Export Plug-In . SVG Version: 6.00 Build 0)  -->
<!DOCTYPE svg PUBLIC "-//W3C//DTD SVG 1.1//EN" "http://www.w3.org/Graphics/SVG/1.1/DTD/svg11.dtd">
<svg version="1.1" id="图层_1" xmlns="http://www.w3.org/2000/svg" xmlns:xlink="http://www.w3.org/1999/xlink" x="0px" y="0px"
	 width="166px" height="208px" viewBox="0 0 166 208" enable-background="new 0 0 166 208" xml:space="preserve">
<path d="M164.936,171.719c-0.078-0.313-0.508-0.533-1.289-0.663c-7.55-1.302-12.757-4.687-15.621-10.154
	c-2.682-5.077-2.799-10.739-0.352-16.988c2.63-6.743,4.439-12.067,5.429-15.974c1.224-4.868,1.64-9.125,1.249-12.77
	c-0.832-7.498-5.922-15.14-15.27-22.925c-4.374-3.619-7.199-7.589-8.475-11.912c-0.911-3.176-1.041-7.017-0.391-11.521
	c2.161-14.84-0.26-27.546-7.264-38.117c-7.603-11.43-18.967-17.47-34.094-18.121c-8.124-0.365-15.479,1.419-22.065,5.35
	c-0.563,0.337-1.096,0.685-1.624,1.035c0.293-4.147-0.203-8.306-1.5-12.478C62.368,2.265,60.91,0.104,59.295,0
	c-1.562-0.104-3.319,1.328-5.272,4.296c-1.562,2.385-2.601,4.778-3.137,7.18c-1.963-3.285-4.233-5.92-6.822-7.883
	c-1.822-1.406-3.268-1.927-4.335-1.562c-1.015,0.364-1.796,1.614-2.343,3.749c-1.171,4.687-1.015,10.375,0.469,17.066
	c1.55,6.963,4.216,12.117,7.986,15.483c-2.676,1.939-4.615,4.673-5.799,8.222c-1.171,3.489-1.458,7.199-0.859,11.13
	c0.625,3.958,2.057,7.355,4.296,10.193c2.421,3.098,5.467,5.038,9.138,5.819c0.052,4.192,1.406,7.785,4.062,10.779
	c2.812,3.177,6.327,4.713,10.545,4.608c3.671-0.104,6.417-1.21,8.24-3.319c1.666-1.953,2.031-3.944,1.093-5.975
	c-0.072-0.156-0.174-0.294-0.268-0.438c1.942,0.414,3.892,0.647,5.847,0.729c-0.447,2.716-0.992,4.914-1.635,6.583
	c-5.103,3.645-13.525,6.6-25.268,8.865c-12.106,2.317-21.349,2.564-27.728,0.742c-6.17-1.745-11.482-2.226-15.934-1.445
	c-4.036,0.703-7.107,2.083-9.216,4.14c-2.031,1.979-2.682,4.048-1.953,6.209c0.729,2.213,2.604,3.645,5.624,4.296
	c2.682,0.573,5.728,0.442,9.139-0.391c2.525-0.625,4.725-1.536,6.6-2.733c1.77-1.12,3.437-2.63,4.999-4.531
	c0.183-0.208,0.352-0.338,0.508-0.39l0.938,0.078c5.441,1.458,13.916,1.25,25.424-0.625c11.404-1.849,19.475-4.296,24.213-7.342
	c-1.563,3.411-3.411,6.848-5.546,10.31l-5.702,8.787c-1.224,1.9-2.486,4.374-3.788,7.42c-1.198,2.76-2.109,5.234-2.734,7.421
	c-1.484,5.624-2.109,12.288-1.875,19.995c0.208,6.951,1.159,15.596,2.851,25.932c0.833,5.104,1.94,10.662,3.32,16.676
	c1.51,6.535,2.916,11.69,4.218,15.466c0.547,1.536,1.328,2.226,2.343,2.069c0.989-0.182,1.536-1.028,1.64-2.538
	c0.156-1.979,0.182-7.134,0.078-15.466l-0.273-16.129c-0.026-5.389,0.104-10.401,0.391-15.035c0.001-0.022,0.003-0.043,0.004-0.064
	c2.479,4.136,5.62,7.779,9.421,10.929c0.809,2.756,1.378,4.567,1.705,5.421c2.552,6.743,5.259,12.627,8.123,17.652
	c2.161,3.775,5.051,8.123,8.67,13.044c0.989,1.354,1.952,1.783,2.89,1.288c0.938-0.494,1.198-1.51,0.781-3.046l-4.49-13.708
	c-1.66-4.962-2.918-9.071-3.793-12.368c1.865,0.965,3.854,1.638,5.979,1.98c2.161,0.364,4.179,0.364,6.054,0
	c1.718-0.313,2.615-0.898,2.693-1.758c0.105-0.808-0.48-1.405-1.757-1.796c-0.901-0.283-1.828-0.774-2.778-1.461
	c-1.109-1.397-2.022-3.183-2.729-5.374c-0.91-2.838-1.574-6.651-1.991-11.442c-0.547-6.301-1.575-11.612-3.085-15.934
	c-1.381-4.01-3.893-9.139-7.537-15.388c-4.23-7.275-5.993-14.954-5.306-23.033c2.356,1.214,5.112,1.827,8.272,1.827
	c4.791,6.248,8.202,9.945,10.232,11.092c1.225,0.676,2.305,0.768,3.242,0.273c1.016-0.547,1.405-1.576,1.172-3.086
	c-0.443-3.124-1.797-6.665-4.063-10.623c-2.316-4.036-4.83-7.173-7.537-9.412c-2.146-1.777-4.421-2.876-6.818-3.324l-0.797-1.128
	c-0.547-0.859-0.951-1.601-1.211-2.226l0.86-7.097c3.118-0.529,6.204-1.542,9.255-3.057c3.229-1.588,5.818-3.437,7.771-5.545
	c-0.912,3.411-1.341,6.392-1.289,8.943c0.156,6.196,3.008,12.328,8.553,18.394c5.233,5.728,8.149,11.04,8.748,15.934
	c0.494,3.905-0.494,8.422-2.968,13.551c-5.312,10.91-7.485,21.22-6.522,30.932c1.119,11.508,6.666,20.62,16.637,27.337
	c0.693,0.488,1.131,0.63,1.317,0.435c4.877,0.533,9.504,0.331,13.873-0.629h0.002c0,0,0,0,0-0.001
	c2.687-0.59,5.277-1.461,7.771-2.616c0.505-0.235,0.976-0.488,1.455-0.736c0.26-0.003,0.417-0.074,0.452-0.229
	c2.9-1.558,5.314-3.366,7.238-5.428l0.11-0.011c0.009-0.031-0.006-0.062-0.008-0.092c1.374-1.49,2.487-3.116,3.354-4.868
	C164.899,171.945,164.973,171.856,164.936,171.719z M62.303,82.833c-1.198-0.599-2.252-1.705-3.164-3.319
	c-1.067-1.901-1.536-3.971-1.406-6.21c1.102-0.304,2.067-0.686,2.906-1.142c1.501,1.165,3.156,2.24,4.983,3.212
	c1.198,0.642,2.399,1.194,3.602,1.705C65.437,77.58,63.125,79.493,62.303,82.833z"/>
</svg>
