<?xml version="1.0" encoding="utf-8"?>
<!-- Generator: Adobe Illustrator 16.0.0, SVG Export Plug-In . SVG Version: 6.00 Build 0)  -->
<!DOCTYPE svg PUBLIC "-//W3C//DTD SVG 1.1//EN" "http://www.w3.org/Graphics/SVG/1.1/DTD/svg11.dtd">
<svg version="1.1" id="图层_1" xmlns="http://www.w3.org/2000/svg" xmlns:xlink="http://www.w3.org/1999/xlink" x="0px" y="0px"
	 width="288px" height="347px" viewBox="0 0 288 347" enable-background="new 0 0 288 347" xml:space="preserve">
<path d="M286.131,328.73c-2.151-9.229-9.44-21.301-21.867-36.218c-9.686-11.629-19.289-21.505-28.812-29.649l2.021,0.141
	c0.311-0.312,0.043-1.047-0.807-2.208c-12.181-17.271-30.679-33.678-55.455-49.227l-2.289-6.056c-1.104-2.35-2.18-3.566-3.228-3.65
	c-6.198-0.623-10.444-1.854-12.737-3.694c-2.375-1.927-3.467-5.063-3.308-9.375c0.239,0.07,0.48,0.152,0.718,0.204
	c1.98,0.424,4.047,0.24,6.199-0.553c4.33-1.557,7.741-5.166,10.232-10.826c0.935-2.145,1.67-4.417,2.226-6.807
	c5.962,1.311,12.457,2.104,19.513,2.348c6.567,0.198,10.644-0.07,12.229-0.807c0.533-0.254,1.631-1.221,3.281-2.889
	c1.056,0.267,2.146,0.546,3.3,0.851c7.464,1.985,12.602,3.669,15.425,5.052c3.348,13.805,6.402,26.942,9.159,39.403
	c3.142,14.124,4.954,23.126,5.435,27.004c0.17,1.302,0.693,2.519,1.571,3.651c0.481,0.603,1.514,1.632,3.086,3.077l2.009,6.052
	c2.321,6.709,4.09,11.266,5.308,13.672c0.538,1.019,0.962,1.543,1.274,1.57c0.339,0.029,0.877-0.467,1.613-1.486
	c4.358-6.142,7.543-12.383,9.553-18.724c0.671-2.12,1.161-4.056,1.472-5.807c0.873-0.659,1.728-1.804,2.562-3.45
	c1.048-2.123,1.486-4.033,1.316-5.731c-1.613-19.39-7.529-38.581-17.748-57.575c-8.834-16.44-18.713-29.039-29.635-37.804
	c-5.626-20.446-13.786-37.001-24.479-49.667c-1.271-2.588-3.336-6.198-6.221-10.864c-4.246-6.907-8.549-13.134-12.908-18.682
	c-0.112-0.17-0.268-0.255-0.467-0.255l-8.619-0.637c-0.849-0.05-1.63-0.094-2.359-0.132c-0.059-1.122-0.311-1.926-0.782-2.373
	c-1.702-1.677-4.159-3.077-7.366-4.2c-3.179-2.959-7.006-6.194-11.527-9.727c-8.125-6.341-17.126-12.596-27.005-18.767
	C105.028,9.537,87.804,1.668,76.34,0.31l-0.425,0.042c-3.453,1.727-7.006,6.595-10.657,14.606c-3.425,7.558-4.925,12.921-4.5,16.092
	l0.255,0.467l16.941,18.173l10.871,11.668l-13.418,8.458c-6.199,4.048-9.596,6.524-10.19,7.43c-0.877,1.331-2.038,4.062-3.481,8.195
	c-1.5,4.217-2.335,7.189-2.505,8.917c-0.125,1.147,0.369,2.55,1.476,4.204c-0.181,0.072-0.361,0.139-0.542,0.212
	c-3.538,1.416-6.539,2.774-9.001,4.076c-1.642,0.849-3.694,3.708-6.157,8.577c-2.491,4.954-3.85,8.987-4.076,12.101
	c-0.35,4.808,0.278,10.661,1.876,17.551c-0.042,3.202,0.595,6.354,1.945,9.453c0.921,2.133,1.954,4.068,3.091,5.819
	c2.476,6,6.754,11.284,12.874,15.835c2.88,2.131,5.837,3.837,8.868,5.13c-6.249,1.512-13.077,4.01-20.501,7.522
	c-7.813,3.681-15.059,7.898-21.739,12.653c-7.076,5.011-12.554,9.936-16.432,14.776c-4.146,5.168-6.021,9.766-5.66,13.8
	c-1.766,2.327-3.088,4.993-3.936,8.023c-1.755,6.284-1.769,13.177-0.042,20.678c0.312,1.331,0.608,2.01,0.892,2.038
	s0.948-0.495,1.996-1.57l10.997-11.889c1.179-1.359,2.129-2.493,2.867-3.42l3.757,0.234c2.151-0.424,3.85-1.301,5.095-2.632
	l23.225-25.093c11.078-11.655,19.025-19.031,23.861-22.158l12.06-0.939c5.794-0.824,10.356-1.803,13.714-2.932l5.127-0.143
	c1.845,1.92,3.866,3.605,6.082,5.027c4.048,2.604,7.586,3.82,10.615,3.65c1.416-0.057,2.703-0.48,3.864-1.273
	c0.85-0.573,1.533-1.275,2.047-2.104c1.043,0.45,2.087,0.806,3.133,1.043c1.971,0.438,4.001,0.685,6.083,0.76
	c1.004,1.131,1.712,2.558,2.111,4.293c0.538,2.406,0.382,4.925-0.467,7.558c-0.481,1.473-1.727,3.977-3.736,7.516
	c-0.547,0.966-1.052,1.88-1.537,2.767c-0.012,0-0.022-0.009-0.035-0.007c-12.398,0.537-25.419,2.08-39.062,4.628
	c-14.833,2.802-24.839,5.845-30.019,9.129c-3.51,2.179-6.935,6.765-10.275,13.757c-3.396,7.02-3.906,10.784-1.528,11.294
	c0.526,0.083,7.751-2.202,21.639-6.845c2.105,7.459,2.978,16.558,2.605,27.311c-0.481,13.869-2.505,23.211-6.072,28.022
	c-0.566,0.765-0.892,1.557-0.977,2.378c-0.054,0.524,0.007,0.985,0.161,1.395c-2.889,3.82-6.307,8.443-10.267,13.891
	c-0.679,0.962-0.92,1.585-0.722,1.868l2.081,0.169c4.897-0.82,11.775-2.363,20.635-4.627c10.303-2.661,17.337-4.855,21.102-6.582
	c3.878,1.5,7.402,2.435,10.572,2.803l1.613-0.043c0.198-0.17,0.354-0.721,0.467-1.655c1.132-10.587-0.227-22.461-4.076-35.623
	c-3.249-11.142-7.132-19.902-11.646-26.303c2.786-1.774,6.068-3.803,9.863-6.094c8.425-5.064,14.25-8.285,17.478-9.662
	c-0.008,3.474,0.673,6.894,2.096,10.257c3.878,9.171,9.667,18.257,17.366,27.258c8.52,9.992,17.563,17.593,27.131,22.801
	c0.82,0.453,1.387,0.637,1.698,0.553c0.312-0.086,0.708-0.51,1.188-1.274c2.548-4.188,4.728-8.958,6.539-14.309
	c1.866-5.527,3.032-10.886,3.508-16.08c1.114,2.464,2.247,4.913,3.413,7.333c4.161,8.634,6.694,12.908,7.601,12.823
	c1.075-0.113,2.15-4.415,3.227-12.907c0.308-2.483,0.597-4.633,0.869-6.473c8.781,7.753,15.062,16.179,18.832,25.281
	c3.878,9.313,6.396,22.404,7.558,39.275c0.057,1.104,0.565,1.77,1.528,1.995c0.963,0.227,1.812-0.198,2.548-1.273l1.228-1.925
	c3.357,2.273,8.848,5.722,16.52,10.374c9.087,5.52,14.083,8.279,14.988,8.279c0.68,0,2.52-2.42,5.52-7.261
	c2.946-4.763,5.299-9.107,7.066-13.04c2.413,1.312,4.568,2.589,6.436,3.827c1.529,0.99,2.449,1.387,2.76,1.188
	C286.527,331.235,286.498,330.344,286.131,328.73z M223.901,157.809l3.419-4.591c0.898,3.435,1.798,7.021,2.697,10.739
	C228.313,161.888,226.274,159.838,223.901,157.809z M146.492,266.408c-0.805-0.419-1.696-0.999-2.663-1.721l0.021,0.015
	c1.072,0.697,1.94,1.249,2.624,1.67C146.479,266.384,146.486,266.396,146.492,266.408z"/>
</svg>
