<?xml version="1.0" encoding="utf-8"?>
<!-- Generator: Adobe Illustrator 16.0.0, SVG Export Plug-In . SVG Version: 6.00 Build 0)  -->
<!DOCTYPE svg PUBLIC "-//W3C//DTD SVG 1.1//EN" "http://www.w3.org/Graphics/SVG/1.1/DTD/svg11.dtd">
<svg version="1.1" id="图层_1" xmlns="http://www.w3.org/2000/svg" xmlns:xlink="http://www.w3.org/1999/xlink" x="0px" y="0px"
	 width="398px" height="342px" viewBox="0 0 398 342" enable-background="new 0 0 398 342" xml:space="preserve">
<path d="M395.725,304.75c-0.6-4.268-1.85-8-3.75-11.2c-1.532-2.667-3.648-5.167-6.35-7.5c-0.2-1.032-0.6-2.017-1.2-2.95
	c-1.666-2.6-3.783-4.533-6.35-5.8c-2.102-1.032-5.834-2.149-11.2-3.35c-5.566-1.233-9.134-3.483-10.7-6.75
	c-0.6-1.233-1.1-2.968-1.5-5.2l-1.1-6.35c-2.102-10.102-4.217-16.95-6.352-20.551l0.852-3.149c0.5-5.101,0.416-9.134-0.25-12.101
	c-1.602-7-5.834-12.301-12.7-15.899c-7.866-4.134-14.116-5.534-18.75-4.2c-3.533,1-6.75,3.084-9.65,6.25
	c-6.865-0.7-12.516-2.25-16.949-4.65c-0.859-0.459-1.664-0.947-2.412-1.459l1.013-0.74l2.8-2.801c0.967-1.065,1.301-1.815,1-2.25
	c-0.3-0.434-1.316-0.533-3.05-0.3l-5.573,0.615c0.008-0.004,0.016-0.011,0.023-0.015c0.697-0.359,1.129-1.27,1.301-2.703
	c0.018-0.018,0.032-0.03,0.049-0.047c3.348-3.377,3.309-4.695-0.098-3.971c-0.377-3.664-1.473-7.373-3.303-11.131
	c-0.5-1.1-1.449-2.134-2.851-3.1c-1.5-1.034-3.2-1.75-5.1-2.15c0.565-4.667,1.767-8.917,3.6-12.75c1.8-3.733,3.884-6.45,6.25-8.15
	c2.435-1.7,4.65-3.767,6.65-6.2c1.887-2.247,3.067-4.222,3.556-5.93c0.227,0.559,0.439,1.117,0.694,1.68l2.813,5.815
	c-0.269,2.673-0.158,4.653,0.336,5.935c0.437,1.125,1.16,2.189,2.135,3.204c0.192,2.203,0.733,4.562,1.666,7.096
	c1.033,2.733,2.231,5.033,3.6,6.9c0.166,10.266,6.467,19.133,18.9,26.6c6.565,3.935,13.398,6.084,20.5,6.45
	c4.972,0.215,8.632-0.387,11.024-1.775c0.441,1.128,0.963,2.028,1.574,2.676c1.033,1.101,2.533,1.551,4.5,1.351
	c3.634-0.3,7.899-2.517,12.8-6.65c5.268-4.466,7.617-8.517,7.05-12.149c-0.232-1.467-0.933-2.666-2.1-3.601
	c-0.634-0.532-1.866-1.25-3.7-2.149c-1.76-0.858-3.275-1.823-4.548-2.894c2.36-2.252,5.023-5.777,7.998-10.607
	c4-6.4,6.767-12.533,8.3-18.4c0.834-3.267,0.65-6.6-0.55-10c-1.366-3.934-3.816-6.533-7.351-7.8
	c-5.434-1.934-11.684-0.634-18.75,3.9l-0.478,0.261c0.976-2.92,1.951-6.467,2.927-10.661c1.567-6.633,2.117-11.034,1.65-13.2
	c-0.7-3.067-2.268-6.283-4.7-9.65c-3.166-4.333-6.533-6.617-10.1-6.85c-2.188-0.156-6.114,0.883-11.763,3.108
	c1.176-4.566,1.638-9.399,1.361-14.508c-0.366-6.9-2.05-13.233-5.05-19c-4.268-8.2-10.518-14.25-18.75-18.15
	c-8.268-3.934-15.316-4.117-21.15-0.55c-5.698,3.5-9.198,9.55-10.5,18.15c-0.467,3.138-0.565,6.256-0.313,9.353
	c-0.379-0.049-0.75-0.113-1.135-0.153c-6.779-0.737-13.742,0.136-20.886,2.604c4.265-5.766,11.16-14.716,20.734-26.904l26.7-33.85
	c2.666-3.567,3.5-5.967,2.5-7.2c-1-1.2-3.385-0.95-7.15,0.75c-5.634,2.5-19.898,9.8-42.8,21.9l-37.601,19.9
	c-4.801-2.934-10.518-4.55-17.149-4.85c-6.267-0.333-11.967,0.533-17.1,2.6c-25.566-26.1-40.45-40.967-44.65-44.6
	c-2.433-2.067-4.033-2.75-4.8-2.05c-0.833,0.767-0.733,3.233,0.3,7.4l8,27.95l9.2,32.5c-0.61,1.107-1.118,2.304-1.534,3.581
	c-5.271,0.607-10.328,2.901-15.166,6.919c-5.8,4.767-9.4,10.467-10.8,17.1c-0.663,3.154-0.698,6.267-0.122,9.339
	c-0.744,0.945-1.054,1.732-0.929,2.361c0.125,0.673,0.848,1.337,2.167,1.992c0.744,1.936,1.735,3.855,2.983,5.758
	c1.838,2.813,4.146,5.418,6.922,7.814c-1.763,3.433-3.73,6.539-5.922,9.286c-2.827,3.558-5.683,6.063-8.566,7.54
	c-0.363-0.345-0.739-0.676-1.133-0.99c-2.967-2.367-6.417-3.617-10.35-3.75c-5.733,0.333-11.95,0.25-18.65-0.25
	c-7.333-0.534-12.184-1.383-14.55-2.55c-2.767-1.366-5.767-1.517-9-0.45c-1.833,0.6-3.583,1.783-5.25,3.55
	c-1.049,1.102-1.927,2.268-2.646,3.494c-1.404-1.21-2.399-2.328-2.954-3.344c-2.4-4.333-5.383-7.283-8.95-8.85
	c-3.819-1.681-7.964-1.561-12.427,0.315c-0.488-2.777-0.815-5.156-0.973-7.116c-0.1-1.333,0.1-2.833,0.6-4.5l1.65-4.45
	c1.6-4.367,2.566-7.867,2.9-10.5c0.667-5,0.25-10.667-1.25-17c-1.933-8.167-6.217-14.333-12.85-18.5
	c-6.133-3.8-11.983-4.767-17.55-2.9c-5.3,1.767-9.133,6.2-11.5,13.3c-2.4,7.167-2.5,14.767-0.3,22.8c1.3,4.867,3.8,9.1,7.5,12.7
	c2.267,2.2,5.6,4.617,10,7.25l5.2,3.3c1.733,1.233,2.867,2.434,3.4,3.6c0.694,1.459,1.5,3.498,2.42,6.11
	c-2.962,1.539-5.433,3.134-7.37,4.79c-2.7,2.267-4.15,4.467-4.35,6.6c-0.4,4.133-0.267,7.65,0.4,10.55
	c0.733,3.267,2.05,5.217,3.95,5.85c2.2,0.733,5.417,1.633,9.65,2.7c2.524,0.622,4.707,1.117,6.567,1.493l0.347,1.753
	c-2.322,1.122-4.563,2.676-6.714,4.704c-3,2.801-4.5,5.417-4.5,7.852c0,2.699,0.583,4.85,1.75,6.449
	c1.167,1.565,2.767,2.351,4.8,2.351l7.469,0.391c0.14,3.839,0.416,6.615,0.831,8.31c0.533,2.435,1.5,3.916,2.9,4.449
	c1.9,0.7,4.867,1.019,8.9,0.95c4.5-0.1,7.45-0.782,8.85-2.05c0.9-0.732,1.217-1.633,0.95-2.7c-0.2-0.933-1.317-2.667-3.35-5.2
	l-2.988-3.562c1.489-0.315,2.788-1.058,3.888-2.238c1.3-1.366,2.117-3.032,2.45-5c0.196-1.089,0.18-2.114-0.008-3.089l3.094-1.204
	c1.5,3.562,3.483,5.87,5.964,6.894c2.9,1.199,6.633,1.25,11.2,0.149c2.967-0.733,6.85-2.167,11.65-4.3c5.2-2.268,10.533-4.1,16-5.5
	l8.65-2.35c2.867-0.833,5.034-1.633,6.5-2.4h0.1l0.05-0.05c2.367-1.733,3.95-4.417,4.75-8.05c0.144-0.676,0.242-1.358,0.318-2.043
	c4.057-5.261,8.265-10.055,12.631-14.357c4.672-4.64,8.904-8.084,12.709-10.363c0.1,0.04,0.198,0.081,0.298,0.122
	c0.099,1.164,0.204,2.279,0.313,3.357c-6.246,3.261-10.379,8.746-12.371,16.484c-1.3,4.867-3.1,9.816-5.4,14.85
	c-3.8,8.3-7.883,13.884-12.25,16.75c-3.267,2.134-7.417,3.583-12.45,4.35l-10.95,0.45l-8.15,0.4c-2.133,0.365-3.7,0.883-4.7,1.55
	c-0.867,0.532-1.317,0.899-1.35,1.1c0,0.2,0.433,0.435,1.3,0.7l5.15,1.75c-1.867,0.666-3.683,1.834-5.45,3.5
	c-1.733,1.666-2.934,3.334-3.6,5c-0.467,1.268-0.45,2.018,0.05,2.25l2-0.25c3.267-0.9,6.6-1.35,10-1.35
	c-1.167,1.832-2.017,3.383-2.55,4.648c-0.733,1.7-1.133,3.417-1.2,5.15c-0.033,0.898,0.017,1.417,0.15,1.55l1.35-0.101
	c1.667-0.532,3.833-0.899,6.5-1.101l-5.05,3.601c-2.1,1.5-3.017,2.316-2.75,2.449l4.4,0.352l6.8,0.05c-2.2,1.7-5.1,3.2-8.7,4.5
	c-0.9,0.334-1.333,0.649-1.3,0.95c0.033,0.267,0.533,0.615,1.5,1.05c1.466,0.633,3.95,0.867,7.45,0.7c4.067-0.2,8.067-0.95,12-2.25
	l-1.25,3.648c-0.933,2.066-1.217,3.2-0.85,3.4c0.5,0.268,2.45-0.217,5.85-1.45c5.8-2.134,10.2-4.634,13.2-7.5
	c3.167-3,6.267-7.233,9.3-12.7c5.067-9.166,8.3-19.481,9.7-30.949l0.4-6.949l0.1-7.05c0.267-7.7,0.5-12.417,0.7-14.15
	c0.521-4.378,1.567-7.546,3.129-9.533c1.153,7.999,2.725,12.674,4.721,13.983c1.733,1.133,4.133,1.75,7.2,1.85
	c3.1,0.1,5.35-0.4,6.75-1.5l4.475-3.919l3.925,7.27c1.533,2.534,2.9,4.1,4.1,4.7c1.133,0.566,3.867,1.383,8.2,2.45l6.9,1.65
	c6.332,4.634,10.365,8.733,12.1,12.3c-2.366,1.934-4.417,4.916-6.148,8.95c-1.533,3.565-2.15,6.017-1.852,7.35
	c0.075,0.372,0.693,1.181,1.816,2.396c-0.596,0.406-1.301,1.039-2.116,1.904l-3.55,3.551c-3.834,3.468-9.083,6.101-15.75,7.899
	l-3.05-6.1c-2.066-3.534-3.85-5.267-5.35-5.2c-4.667,0.2-10.133,3.184-16.4,8.95c-6.233,5.7-9.6,10.733-10.1,15.1
	c-0.3,2.468,0.384,5.25,2.05,8.351c1.233,2.367,3.2,5.185,5.9,8.449c-0.667,1.367-0.783,3.4-0.35,6.102l3.7,12.949
	c2.233,8.134,3.183,12.899,2.85,14.301c-0.367,1.634-3.067,4.134-8.1,7.5c-6.4,4.333-10.3,7.183-11.7,8.55
	c-0.4,0.399-0.717,0.967-0.95,1.7c-0.267,0.767-0.383,1.533-0.35,2.3c-1.733,1.467-3.383,4.117-4.95,7.95
	c-1.633,3.933-2.483,7.482-2.55,10.648c-0.067,2.168,1.066,2.967,3.4,2.4c2.434-0.6,6.5-2.166,12.2-4.7
	c1.667,0.767,3.783,0.567,6.35-0.601c1.6-0.732,3.15-1.717,4.65-2.949c0.566-0.434,1.4-0.85,2.5-1.25l2.9-0.7
	c-0.367,1.534-0.55,3.149-0.55,4.851c-0.033,1.801,0.134,3.367,0.5,4.699c-0.767,3.033-1.167,6.25-1.2,9.65
	c-0.067,4.033,0.566,6.316,1.9,6.85c1.133,0.4,3.7-0.75,7.7-3.449c3.733-2.532,6.233-4.617,7.5-6.25c4-0.032,7.133-2.518,9.4-7.449
	l2.8-6.801c1.166-2.801,2.383-5.018,3.649-6.649c1.233-1.565,3.733-3.685,7.5-6.351c3.767-2.699,7.185-4.782,10.25-6.25
	c1.3-0.633,2.384-1.815,3.25-3.551c1.833-0.434,3.435-1.033,4.8-1.8c1.4-0.767,2.135-1.466,2.2-2.101c0.067-0.5-0.433-1.5-1.5-3
	c-1.2-1.633-2.417-2.816-3.649-3.549c-0.434-0.867-3.033-3.435-7.801-7.701c-4.732-4.266-7.35-6.916-7.85-7.949
	c-2.066-4.268-3.316-8.467-3.75-12.6l-1.35-9.951c1.299-1.133,2.065-3,2.299-5.6c0.233-2.732-0.283-5.033-1.549-6.9
	c3.266-2,6.481-3.582,9.648-4.75c1.732-0.6,3.982-1.232,6.75-1.899l3.462-0.753c0.927,1.688,1.425,3.139,1.487,4.354
	c0.134,1.801,1.435,3.301,3.9,4.5c4.066,2,10.232,2.767,18.5,2.301c1.06-0.062,2.073-0.139,3.049-0.229
	c5.183,2.971,10.647,4.915,16.4,5.827l3.852-0.2c0.134-0.332-0.301-1-1.301-2c-2.033-2.033-3.518-3.684-4.449-4.949
	c4.865,1.301,8.75,1.834,11.648,1.601c1.234-0.101,1.885-0.3,1.95-0.601c0.034-0.334-0.483-1.133-1.55-2.399
	c-1.768-2.065-2.95-3.601-3.551-4.601l6.149,1.351l6.552,0.55l1.278-0.251c0.899,0.884,1.661,1.718,2.271,2.501
	c-0.332,2.167,0.149,4.7,1.451,7.602c1.299,2.865,2.799,4.783,4.5,5.75c-0.635,0.434-0.816,1.434-0.552,3l1.7,6l2.449,7.398
	c1.066,3.635,1.533,6.635,1.4,9l-1.101,16c-0.333,5.9-0.25,9.635,0.25,11.2c0.467,1.435,3.267,5.149,8.399,11.149
	c4.833,5.666,7.468,9.982,7.899,12.949c0.567,4.033,2.167,7.418,4.801,10.15c2.934,3.066,6.949,5,12.05,5.8
	c1.333,0.233,4.399,2.45,9.2,6.649c1.3,1.135,2.351,1.899,3.149,2.301c1.399,0.666,2.399,0.482,3-0.551
	c1.267-2.199,1.899-5.383,1.899-9.549l-0.449-3.25l-0.601-3l0.351-1.852l0.25-2.148c0.267-1.701,0.399-3.117,0.399-4.25
	c0-2-0.351-3.867-1.051-5.602c-0.433-1.1-1.35-2.768-2.75-5l-1.25-2.148c2.2-0.102,5.134,0.25,8.801,1.049
	c3.566,0.801,7.033,1.851,10.399,3.149c2.267,0.734,4.315,0.968,6.149,0.7c1.801-0.232,3.968-1.018,6.5-2.35l7.601,1.699l5.101,1
	c1.133,0.033,1.816-0.117,2.05-0.449C395.875,307.3,395.925,306.316,395.725,304.75z"/>
</svg>
