<?xml version="1.0" encoding="utf-8"?>
<!-- Generator: Adobe Illustrator 16.0.0, SVG Export Plug-In . SVG Version: 6.00 Build 0)  -->
<!DOCTYPE svg PUBLIC "-//W3C//DTD SVG 1.1//EN" "http://www.w3.org/Graphics/SVG/1.1/DTD/svg11.dtd">
<svg version="1.1" id="图层_1" xmlns="http://www.w3.org/2000/svg" xmlns:xlink="http://www.w3.org/1999/xlink" x="0px" y="0px"
	 width="145px" height="236px" viewBox="0 0 145 236" enable-background="new 0 0 145 236" xml:space="preserve">
<path d="M142.904,161.471c-0.598-0.832-1.961-1.063-4.09-0.699c-1.795,0.299-4.406,1.08-7.83,2.345
	c-8.016,2.927-15.613,3.293-22.795,1.098c-2.291-0.709-4.508-1.675-6.657-2.885l1.319-6.293c1.528-7.748,2.328-13.75,2.395-18.006
	l-0.199-6.636l-0.494-4.496c1.567-2.172,2.584-5.621,3.037-10.367c0.499-5.188,0.018-9.527-1.445-13.019
	c-1.031-2.594-2.526-4.772-4.49-6.535c-1.717-1.533-3.656-2.607-5.797-3.264c8.233-4.519,13.629-10.345,16.172-17.485
	c3.726-10.408,3.875-20.95,0.449-31.624c-0.732-2.299-1.598-4.458-2.578-6.493c1.688-4.085,2.472-8.123,2.328-12.112
	c-0.133-3.691-0.931-6.684-2.394-8.978c-1.229-1.896-3.009-3.442-5.337-4.639c-2.063-1.064-3.99-1.629-5.786-1.696
	c-1.375-0.043-3.131,0.235-5.224,0.797c-0.547-1.797-1.375-3.416-2.508-4.837c-1.164-1.463-2.61-2.644-4.34-3.542
	c-1.795-0.931-3.476-1.347-5.037-1.247c-1.938,0.101-4.498,1.225-7.672,3.358c-1.111-0.888-2.426-1.668-4-2.311
	c-2.195-0.898-4.24-1.363-6.135-1.396c-3.259-0.1-6.833,2.195-10.724,6.883c-3.358,4.023-5.537,7.814-6.534,11.373
	c-0.028,0.094-0.036,0.207-0.061,0.305c-3.634,2.548-6.748,5.746-9.316,9.622c-3.691,5.686-5.886,12.27-6.584,19.752
	c-0.166,1.862-0.682,3.392-1.546,4.589l-1.347,1.546l-4.439,4.938c-1.729,2.361-2.611,4.656-2.644,6.884
	c-0.066,4.189,1.513,8.164,4.739,11.921c3.325,3.924,7.083,5.819,11.273,5.687c1.132,2.109,2.453,3.973,3.946,5.612
	c-0.116-0.022-0.241-0.056-0.354-0.075c-3.192-0.532-5.953-0.15-8.28,1.147c-2.594,1.43-4.738,3.874-6.435,7.333
	c-1.653,3.462-2.58,7.458-2.799,11.975l-0.493-0.053c-0.565-0.133-1.147-0.133-1.746,0c-0.665,0.166-1.214,0.465-1.646,0.897
	c-0.366,0.399-0.582,1.081-0.648,2.045c-2.86-0.066-4.772,0.466-5.736,1.596c-0.599,0.699-0.898,1.68-0.898,2.943
	c0,0.2,0.117,0.532,0.349,0.998c-1.363,0.465-2.261,1.18-2.693,2.145c-0.199,0.398-0.299,0.947-0.299,1.646l0.25,0.799l0.399,0.797
	c-0.964,0.898-1.446,1.629-1.446,2.195l0.1,0.797c0.029,0.176,0.08,0.348,0.14,0.518c-1.436,2.342-2.35,4.945-2.734,7.813
	l-3.841,8.23C0.582,146.256,0,148.768,0,150.895c0,2.494,0.432,4.606,1.297,6.336c1.031,2.095,3.159,4.889,6.385,8.379
	c1.496,2.396,3.408,3.709,5.736,3.941c1.164,0.1,2.395-0.066,3.691-0.5c1.33-0.465,2.128-1.047,2.394-1.744l2.045,0.049l0.948,5.887
	c1.031,3.425,3.176,6.484,6.435,9.178l1.047,5.536c0.665,3.791,0.998,6.353,0.998,7.683c0,3.758-0.881,6.151-2.644,7.184
	c-1.663,0.931-3.874,1.895-6.634,2.893l-6.934,2.395c-5.287,1.996-8.513,4.556-9.676,7.683c-0.698,1.929-0.682,4.224,0.05,6.883
	c0.698,2.527,1.729,4.456,3.092,5.786c1.929,1.862,4.024,3.126,6.285,3.791c2.261,0.698,5.32,0.997,9.178,0.896
	c5.753-0.166,10.957-1.112,15.612-2.842l7.931-2.844l5.836-0.449c1.929-0.266,3.425-0.932,4.489-1.996
	c0.632-0.598,1.014-1.463,1.147-2.594l0.05-3.49c0-2.096-0.167-4.156-0.499-6.186l-0.948-4.889
	c-0.632-3.025-0.881-6.519-0.748-10.476c0.105-3.133,0.401-5.153,0.882-6.098c1.291,0.123,2.541,0.116,3.75-0.009l0.755,0.121
	c0.897,1.197,1.812,2.76,2.743,4.688c1.43,2.96,2.278,5.703,2.544,8.23L67.936,211l0.798,10.076
	c0.599,3.225,2.162,5.387,4.689,6.484c3.957,1.762,10.606,3.44,19.952,5.037c10.574,1.828,17.757,2.096,21.547,0.799
	c4.189-1.396,6.801-3.809,7.832-7.232c1.563-5.354,1.213-9.378-1.048-12.071c-1.196-1.396-3.093-2.976-5.687-4.739
	c-2.793-1.895-5.569-3.424-8.33-4.588l-6.834-2.844c-2.492-1.064-3.989-1.879-4.488-2.443c-1.074-1.192-2.135-3.399-3.182-6.602
	c5.646,0.171,11.924-0.75,18.844-2.775c11.971-3.524,20.451-8.713,25.438-15.563C142.488,167.654,144.302,163.299,142.904,161.471z"
	/>
</svg>
