<?xml version="1.0" encoding="utf-8"?>
<!-- Generator: Adobe Illustrator 16.0.0, SVG Export Plug-In . SVG Version: 6.00 Build 0)  -->
<!DOCTYPE svg PUBLIC "-//W3C//DTD SVG 1.1//EN" "http://www.w3.org/Graphics/SVG/1.1/DTD/svg11.dtd">
<svg version="1.1" id="图层_1" xmlns="http://www.w3.org/2000/svg" xmlns:xlink="http://www.w3.org/1999/xlink" x="0px" y="0px"
	 width="276px" height="338px" viewBox="0 0 276 338" enable-background="new 0 0 276 338" xml:space="preserve">
<path d="M273.705,82.999c-0.7-3.102-2.268-8.121-4.703-15.059c-1.734-5.103-2.818-8.539-3.252-10.306
	c-0.934-3.835-2.051-6.854-3.352-9.055c-2.135-3.636-5.687-7.438-10.656-11.407c-7.871-6.337-16.76-10.339-26.666-12.007
	c-7.904-1.334-14.658-1.101-20.262,0.7c-3.002,0.967-6.203,3.986-9.605,9.056c-3.336,4.97-5.254,9.456-5.754,13.458
	c-0.367,2.968,0.934,5.353,3.902,7.154c1.183,0.73,2.318,1.216,3.411,1.485c-0.42,0.938-0.658,1.827-0.709,2.667
	c-0.134,1.534,0.366,2.735,1.501,3.602c2.602,1.935,6.104,3.569,10.506,4.903s8.005,1.868,10.807,1.601
	c1-0.1,1.852-0.75,2.551-1.951c0.467-0.852,0.803-1.882,1.021-3.072c1.111,0.402,2.499,0.744,4.183,1.021l6.458,0.335l0.196,0.815
	l0.351,1.701l-2.602,5.354c-1.446,2.851-2.482,4.978-3.12,6.399c-3.779-3.193-8.648-4.873-14.641-4.999
	c-4.646-0.091-8.816,0.86-12.537,2.801c-2.213-2.167-4.758-3.949-7.675-5.303c-3.802-1.768-7.755-2.618-11.856-2.551
	c-5.729,0.125-11.085,1.947-16.079,5.421l-2.932-0.215c2.653-1.729,4.512-3.68,5.552-5.857c0.834-1.701,0.951-3.019,0.351-3.952
	c-0.436-0.68-1.157-1.201-2.148-1.571l-0.514-1.808c0.269-0.32,0.57-0.756,0.911-1.324c0.552-0.959,0.942-1.803,1.184-2.538
	l0.317,0.087c1.401-0.3,2.651-1.118,3.752-2.452c1.134-1.334,1.817-2.868,2.052-4.603c0.3-2.435-0.184-4.786-1.451-7.054
	c-1.465-2.636-3.824-4.76-7.066-6.379c0.656-3.245,0.667-5.613,0.012-7.079c-0.619-1.427-2.425-3.234-5.383-5.412
	c1.476-5.546,2.088-8.684,1.831-9.396c-0.667-2.068-5.136-4.72-13.407-7.955c-6.286-2.446-11.997-4.255-17.143-5.44
	c-4.912-1.968-8.426-2.91-10.524-2.814c-1.301,0.067-2.501,0.701-3.602,1.901c-0.554,0.607-1.152,1.464-1.79,2.551
	c-2.826-0.434-4.881-0.333-6.165,0.3c-2.435,1.201-4.786,4.052-7.054,8.555c-2.143,4.189-3.975,9.34-5.505,15.43
	c-2.494,2.19-4.079,4.368-4.751,6.533c-0.8,2.568-1.317,5.687-1.551,9.355l-0.35,9.306l-0.601,8.605
	c-0.07,0.604-0.155,1.184-0.245,1.756c-0.739,1.308-1.807,2.723-3.207,4.247c-2.55,2.751-5.584,5.018-9.094,6.809
	c-0.858-0.241-1.744-0.429-2.664-0.555c-4.457-0.625-8.816-0.599-13.078,0.077c0.321-0.181,0.644-0.372,0.971-0.577
	c6.47-4.036,9.922-7.404,10.356-10.106c0.233-1.334,0.15-2.852-0.25-4.553c-0.263-1.148-0.607-2.082-1.024-2.818
	c0.781-0.378,1.487-0.825,2.074-1.384c1.635-1.601,2.318-3.736,2.051-6.404c-0.233-2.135-1.434-4.953-3.602-8.455
	c-2.468-4.036-5.22-7.171-8.255-9.406c-2.001-1.467-4.036-2.518-6.104-3.152c-2.101-0.634-4.052-0.784-5.854-0.45
	c-2.835,0.534-9.139,2.885-18.911,7.054c-2.468,1.067-4.686,2.485-6.654,4.252c-1.968,1.734-3.902,4.002-5.804,6.804l-2.651,3.402
	l-2.802,3.202c-4.669,5.37-7.805,9.522-9.406,12.457c-3.102,5.67-4.486,11.857-4.152,18.561c0.467,8.472,0.484,18.661,0.05,30.568
	l-0.5,9.205c-0.2,3.102-0.283,5.103-0.25,6.004c0.3,6.003,3.619,11.44,9.956,16.31c5.503,4.236,12.558,7.571,21.163,10.006
	l4.389,0.182c0.515,0.206,1.072,0.413,1.715,0.619c2.068,0.667,3.652,0.851,4.752,0.55l3.402-0.4h3.252
	c2.468,0.033,4.002-0.351,4.603-1.151l1.053-2.658c7.474-2.498,14.315-5.659,20.51-9.499c0.233-0.146,0.457-0.291,0.685-0.437
	c2.053,1.104,4.209,2.916,6.469,5.44c2.554,2.777,4.242,5.353,5.085,7.733c-0.044,0.176-0.052,0.363,0.018,0.572
	c0.039,0.087,0.067,0.176,0.105,0.263c-1.122,0.446-2.108,1.337-2.957,2.688c-1.201,1.868-1.584,3.969-1.151,6.304
	c0.234,1.334,0.734,2.585,1.501,3.752c0.767,1.167,1.668,2.101,2.702,2.802c0.534,0.371,1.038,0.627,1.519,0.8
	c-0.043,0.2-0.07,0.399-0.118,0.601c-1.146,4.714-3.019,8.248-5.61,10.616c-0.525,0.218-1.042,0.461-1.544,0.741
	c-5.036,2.834-8.822,5.353-11.356,7.554c-2.135,1.802-4.653,4.336-7.555,7.604c-3.869,4.369-6.754,8.322-8.655,11.857
	c-0.633,1.167-1,4.086-1.101,8.755l0.1,14.709v5.308c-2.5,1.605-5.565,3.951-9.206,7.049c-4.903,4.203-7.705,7.355-8.405,9.456
	c-0.5,1.435-0.967,5.036-1.401,10.807c-0.5,6.337-0.467,10.456,0.1,12.357c0.9,2.802,1.685,5.587,2.352,8.354
	c0.833,3.436,1.167,5.688,1,6.754c-0.233,1.301-1.384,3.053-3.452,5.254c-0.767,0.834-1.184,2.534-1.25,5.103
	c-0.03,2.068,0.148,3.846,0.512,5.364l-2.863,4.142l-3.152,4.302c-1.067,1.535-1.651,2.785-1.751,3.753
	c-0.267,2.134,0.033,4.77,0.9,7.905c0.834,3.135,1.718,4.852,2.652,5.152c2.635,0.9,5.52,1.234,8.655,1
	c2.752-0.201,4.938-0.854,6.562-1.954c1.876,0.535,3.918,0.846,6.146,0.904c2.963,0.081,5.216-0.423,6.783-1.494
	c5.028,0.629,8.731,0.348,11.106-0.845c4.479,0.612,7.834,0.351,10.053-0.796c3.051,0.655,6.063,0.897,9.03,0.683
	c3.302-0.232,5.77-0.967,7.404-2.201c1.067-0.801,1.917-1.851,2.551-3.151c0.667-1.301,1.018-2.702,1.051-4.202
	c0.067-1.502-0.25-2.919-0.951-4.253c-0.667-1.268-1.634-2.335-2.902-3.202c-2.687-1.791-5.978-2.113-9.851-1.012
	c-1.9-0.414-4.019-1.457-6.358-3.141c-2.368-1.668-3.952-3.152-4.753-4.453c-0.8-1.268-1.217-2.4-1.25-3.401
	c-0.033-0.867,0.233-1.868,0.8-3.002c1.167-2.401,2.718-4.687,4.653-6.854c1.067-1.233,2.752-2.918,5.053-5.053l2.901-2.501
	l2.151-2.352c2.301-3.603,4.136-8.538,5.503-14.809c1.325-6.078,1.829-11.744,1.525-17.008c0.447-0.188,0.917-0.374,1.427-0.553
	l4.953-1.351c1.768-0.601,4.836-3.752,9.205-9.456c4.37-5.703,9.406-13.142,15.109-22.313c0.238-0.385,0.412-0.808,0.553-1.249
	c2.747-2.715,8.292-4.319,16.657-4.804c8.021-0.444,13.805,0.349,17.36,2.374c0.09,0.146,0.188,0.275,0.301,0.377
	c0.767,0.634,1.617,1.701,2.551,3.202l2.552,4.252l0.9,1.451c1.501,2.335,4.836,5.037,10.006,8.105
	c4.837,2.868,8.288,4.419,10.356,4.652l1.951-0.15l1.801-0.25c1.018-0.048,1.893-0.01,2.645,0.102l0.508,1.449l0.5,2.252v0.25
	l-2.352,2.251l-4.053,3.103c-1.534,1.334-2.468,2.584-2.801,3.752c-0.4,1.467-0.768,3.552-1.102,6.254
	c-0.333,2.867-0.5,5.42-0.5,7.654c0,1.567,0.25,3.035,0.75,4.402c0.268,0.867,1.352,2.502,3.252,4.902l5.254,7.255
	c0.606,0.985,1.104,1.914,1.513,2.798c-0.209,1.293-0.646,2.596-1.313,3.906l-2.65,4.202c-1.469,2.034-2.285,3.269-2.452,3.702
	c-0.366,0.9-0.483,3.119-0.351,6.654c0.134,3.469,0.4,5.653,0.801,6.554c0.233,0.534,0.801,1.101,1.701,1.701l3.052,1.751
	c2.001,1.067,3.436,1.9,4.303,2.502c1.601,1.133,3.218,2.584,4.853,4.352c1.602,1.768,2.701,3.252,3.303,4.453
	c0.299,0.634,1.05,1.15,2.25,1.551l4.653,1c2.535,0.4,5.503,0.418,8.905,0.051c3.46-0.398,5.965-1.095,7.543-2.083
	c0.822,0.342,2.037,0.604,3.664,0.782l6.153-0.4c0.593-0.197,1.147-0.497,1.671-0.875c0.463,0.131,1.091,0.195,1.932,0.175
	c2.761-0.134,4.831-0.707,6.235-1.702c0.844,0.385,1.859,0.561,3.069,0.502c1.184-0.05,2.201-0.33,3.057-0.835
	c1.47,0.252,2.788-0.012,3.947-0.816l2.052-2.151c0.634-1.001,1.018-2.035,1.151-3.102c0.333-2.469-0.418-4.437-2.252-5.904
	c-0.7-0.533-1.584-0.867-2.651-1l-1.258,0.109c-0.771-0.366-1.667-0.554-2.699-0.55c-1.405-0.571-3.35-1.588-5.849-3.062
	l-9.906-6.555l-0.5-0.35l-6.555-5.104c-1.834-1.734-2.751-3.335-2.751-4.803c0-1.834,0.65-4.219,1.951-7.154l4.052-8.154
	l1.502-3.052c2.135-4.403,3.668-8.038,4.602-10.907c1.299-3.894,1.852-7.222,1.674-9.996c1.045-1.235,1.795-2.293,2.229-3.161
	c1.769-3.735,1.618-7.788-0.449-12.157c-1.401-2.969-2.769-7.521-4.103-13.658c-0.435-1.935-1.234-4.319-2.401-7.154l-3.102-7.254
	c-2.336-5.804-8.406-11.824-18.211-18.061c-8.45-5.391-16.44-8.909-23.975-10.558c-2.464-1.152-4.762-2.97-6.895-5.452
	c-1.801-2.135-2.901-3.835-3.301-5.103l-0.489-2.402c0.913-0.228,1.826-0.857,2.739-1.901c1.068-1.167,1.902-2.584,2.502-4.252
	c0.667-1.734,1.001-3.469,1.001-5.203c0-3.102-0.901-5.72-2.702-7.854c-1.437-1.707-2.955-2.64-4.553-2.815l0.386-3.152
	c0.973-0.601,1.991-1.364,3.066-2.338c1.713-1.567,3.332-3.391,4.865-5.456c9.241,6.308,19.357,9.549,30.356,9.708
	c8.882,0.118,16.137-1.613,21.782-5.175c1.17-0.063,2.731,0.278,4.733,1.073l3.602,1.501c1.468,0.5,2.752,0.667,3.853,0.5
	c0.934-0.167,2.067-0.984,3.401-2.451l3.402-4.453l1.852-2.802c0.328-0.492,0.61-0.873,0.85-1.147l2.652-0.854
	c1.334-0.534,2.502-1.234,3.502-2.102c1.434-1.167,2.885-3.302,4.353-6.404c2.201-4.603,3.353-9.656,3.452-15.159
	C275.723,96.19,275.106,89.27,273.705,82.999z M41.476,86.602c-0.344-0.49-0.632-1.055-0.858-1.702
	c-0.413-1.179-0.549-2.414-0.44-3.698l0.591,0.045c0.663-0.123,1.345-0.429,2.043-0.902c0.673,0.508,1.535,0.8,2.603,0.854
	C43.521,82.833,42.208,84.634,41.476,86.602z"/>
</svg>
