<?xml version="1.0" encoding="utf-8"?>
<!-- Generator: Adobe Illustrator 16.0.0, SVG Export Plug-In . SVG Version: 6.00 Build 0)  -->
<!DOCTYPE svg PUBLIC "-//W3C//DTD SVG 1.1//EN" "http://www.w3.org/Graphics/SVG/1.1/DTD/svg11.dtd">
<svg version="1.1" id="图层_1" xmlns="http://www.w3.org/2000/svg" xmlns:xlink="http://www.w3.org/1999/xlink" x="0px" y="0px"
	 width="350px" height="452px" viewBox="0 0 350 452" enable-background="new 0 0 350 452" xml:space="preserve">
<path d="M340.758,139.798c-5.029-9.092-8.926-14.788-11.688-17.085c-1.699-1.432-3.682-3.664-5.945-6.694
	c-2.664-3.563-4.813-7.077-6.444-10.541l-2.498-5.645l-4.296-9.592c-1.731-3.664-3.146-6.228-4.245-7.693l-8.045-10.191
	c-3.896-4.729-6.644-7.893-8.242-9.492c-1.531-1.532-3.381-3.047-5.545-4.546l-7.095-4.596c-7.228-4.563-13.672-2.864-19.334,5.096
	l-0.351,0.5c-0.831,1.099-3.778,3.597-8.842,7.494l-5.396,4.296c-3.797,3.03-5.694,6.095-5.694,9.192
	c0,2.098,1.016,4.396,3.047,6.894c-2.465,2.464-3.696,4.763-3.696,6.894l0.05,0.999c0.2,2.398,1.232,4.896,3.098,7.494
	c1.731,2.431,3.78,4.43,6.146,5.995l1.299,0.899c3.331,2.198,5.911,3.764,7.743,4.696c3.23,1.632,5.813,2.298,7.744,1.998
	c4.496,4.962,8.859,8.193,13.088,9.692c2.716,0.947,5.035,1.121,6.974,0.542c0.485,0.26,0.956,0.496,1.411,0.705
	c1.189,0.821,2.623,1.671,4.305,2.55l4.098,1.948l0.898,2.048c0.399,1.166,0.6,2.498,0.6,3.997l-0.399,4.046
	c-0.633,4.496-0.948,8.343-0.948,11.54c0,2.598,0.232,4.962,0.698,7.094l-5.444-2.148c-3.464-1.399-5.777-2.182-6.943-2.348
	c-3.131-0.466-7.344,0.766-12.639,3.697c-5.963,3.264-10.226,7.261-12.789,11.99c-5.297-5.695-11.092-8.659-17.387-8.892
	c-2.73-0.1-5.379,0.366-7.943,1.398c-0.86,0.355-1.641,0.756-2.373,1.185c1.377-3.326,2.052-7.015,2.063-11.045
	c0.086-0.096,0.175-0.185,0.261-0.281c8.094-9.125,13.338-17.785,15.735-25.978c1.101-3.73,0.633-6.278-1.397-7.644
	c-2.897-1.832-7.461-1.582-13.688,0.75c-4.329,1.599-8.31,3.63-11.938,6.095l-1-0.85c0.799-3.896,1.299-7.51,1.498-10.841
	c0.168-3.064,0.066-5.528-0.299-7.394c-0.6-2.931-1.332-5.229-2.199-6.894c-0.865-1.599-1.979-2.814-3.347-3.647
	c-1.532-0.899-3.097-1.282-4.696-1.149c-1.266,0.1-2.646,0.533-4.146,1.299c-3.496,1.799-7.011,4.83-10.541,9.092
	c-3.113,3.718-5.131,6.993-6.077,9.833c-1.729,0.08-3.42,0.303-5.072,0.67c-2.375-10.319-5.47-16.836-9.283-19.545
	c-2.198-1.532-4.33-1.832-6.395-0.899c-1.698,0.766-3.081,2.481-4.146,5.146c-0.999,2.598-1.782,6.312-2.348,11.141
	c-0.4,3.497-0.616,6.944-0.649,10.341c-0.067,3.197,0.05,5.662,0.35,7.394c-1.898,2.364-3.38,4.629-4.446,6.794
	c-0.788,1.577-2.182,2.836-4.165,3.786c-2.185-2.167-4.278-3.984-6.276-5.434c-3.764-2.831-8.126-4.913-13.089-6.245
	c-4.996-1.366-9.792-1.648-14.388-0.85c-4.163,0.7-8.992,2.481-14.488,5.346c-0.732-3.896-2.847-8.41-6.344-13.539
	c-3.963-5.828-8.193-9.941-12.689-12.339c-2.231-1.232-5.861-1.998-10.891-2.298l-8.143-0.35c0.566-2.065,0.85-3.847,0.85-5.346
	c0-3.264-1.149-6.378-3.447-9.342c-1.832-2.365-2.748-4.696-2.748-6.994c6.894,0.167,11.923-0.433,15.087-1.798
	c3.064,1.665,7.311,2.781,12.739,3.347c5.529,0.566,10.291,0.316,14.288-0.75c1.599-0.433,3.114-1.116,4.546-2.048
	c1.432-0.899,2.398-1.782,2.897-2.647c1.399-2.465,2.098-5.928,2.098-10.391c0-1.965-0.716-4.03-2.148-6.195l6.394-0.75
	c2.698-0.633,4.746-1.798,6.145-3.497c0.933-1.133,1.665-2.565,2.198-4.296c0.533-1.765,0.799-3.564,0.799-5.396l-0.2-2.998
	c-0.599-4.763-0.916-9.358-0.949-13.788c-0.066-10.191-0.299-16.319-0.699-18.384c-0.366-1.765-1.182-3.53-2.448-5.295
	c-1.333-1.898-2.848-3.281-4.546-4.146c-1.565-0.833-3.414-1.216-5.545-1.149c-2.431,0.1-5.046,0.766-7.843,1.998l-3.297-0.2
	l-2.998-2.198c-2.131-1.599-3.664-2.548-4.596-2.848c-2.132-0.766-4.596-0.616-7.394,0.45c-1.499,0.6-3.613,1.682-6.344,3.248
	l-3.147,2.198c-1.232,0.933-2.148,1.465-2.748,1.599L69.64,7.512l-3.447-0.849l-6.295-0.3c-2.165,0.366-4.18,1.532-6.044,3.497
	c-0.6,0.632-1.216,1.465-1.849,2.498l-1.349,2.048c-1,1.299-2.132,2.165-3.397,2.598l-5.495,0.6c-4.229,0.1-7.194,1.149-8.892,3.147
	c-0.899,1.065-2.165,3.863-3.797,8.393c-1.798,0.466-3.281,2.215-4.446,5.246c-1.266,3.297-2.065,7.927-2.398,13.888
	c-0.167,2.797-0.899,5.345-2.198,7.643c-0.799,1.433-2.348,3.464-4.646,6.095c-2.398,2.831-4.146,5.079-5.246,6.744
	c-1.932,2.964-3.447,6.228-4.546,9.792C3.93,83.879,2.714,88.209,1.948,91.54C0.649,97.135,0,102.164,0,106.627
	c0,10.524,3.597,18.251,10.791,23.18c1.632,4.03,2.781,6.461,3.447,7.294c1.399,1.665,3.747,2.548,7.044,2.648
	c1.066,4.996,3.914,9.875,8.542,14.637c5.394,5.548,12.016,9.247,19.835,11.143c-0.341,0.346-0.688,0.707-1.051,1.097l-3.397,3.297
	c-1.333,1.099-2.714,1.898-4.146,2.398c-6.594,2.198-10.608,6.028-12.04,11.49c-0.533,1.998-0.799,4.563-0.799,7.693l0.064,3.535
	c-9.339,11.211-13.482,22.904-12.404,35.082c0.4,4.363,1.449,8.492,3.147,12.389c1.232,2.865,2.448,4.93,3.647,6.195
	c1.732,5.527,5.295,8.376,10.691,8.543c2.764,0.1,5.662-0.417,8.692-1.549c6.161,1.465,12.573,1.632,19.233,0.5
	c7.194-1.232,12.839-3.764,16.936-7.594c1.965,1.164,3.48,2.563,4.546,4.194c1.239,1.892,2.108,4.474,2.613,7.736l-0.338,1.169
	c-0.407-0.094-0.831-0.087-1.275,0.038c-0.833,0.231-1.465,0.731-1.898,1.498c-0.433,0.8-0.566,1.6-0.4,2.397
	c0.107,0.617,0.409,1.146,0.885,1.59c-1.756,2.356-4.286,4.227-7.609,5.596c-1.389,0.229-3.072,0.742-5.065,1.558
	c-2.598,1.033-5.379,2.398-8.343,4.097c-8.027,4.697-15.354,10.676-21.981,17.936c-8.16,8.926-12.922,17.585-14.288,25.979
	c-0.267,1.664-0.4,3.446-0.4,5.346l-0.05,6.443c-0.233,6.195,0.699,11.19,2.797,14.987c2.198,3.964,5.529,6.294,9.992,6.994
	l3.747,3.696c0.7,0.6,1.582,1.231,2.648,1.897c-2.165,1.532-4.663,3.996-7.494,7.396l-2.298,3.396l-1.749,2.298
	c-1.999,1.5-3.764,3.23-5.295,5.196c-1.932,2.497-2.897,4.729-2.897,6.692c0,1,0.233,1.898,0.699,2.699
	c1.332,2.496,3.947,4.711,7.843,6.644s6.861,2.448,8.893,1.549c1.898-0.832,3.896-2.498,5.995-4.996l4.746-6.543
	c1.865-2.632,3.164-4.214,3.896-4.745l0.1,0.6c0,0.766-0.333,1.798-1,3.097l-2.248,3.696l-3.247,4.695
	c-1.166,1.865-1.749,3.364-1.749,4.496l0.05,0.699c0.466,3.266,1.849,5.629,4.146,7.095c1.565,1.032,3.847,1.615,6.844,1.748
	c2.964,0.135,5.778-0.198,8.443-0.999c3.797-1.133,6.661-3.164,8.593-6.095c1.765-2.765,2.897-6.594,3.397-11.489
	c0.233-2.498,1.299-6.479,3.197-11.939c1.798-5.063,3.364-8.826,4.696-11.291c0.5-0.998,1.965-2.848,4.396-5.545l5.695-6.795
	c1.965-2.797,2.998-5.262,3.098-7.394v-0.448c0-4.598-3.68-7.66-11.041-9.193l4.746-4.396c2.398-2.265,4.263-4.38,5.595-6.345
	c0.171-0.255,0.339-0.522,0.504-0.804c2.113-1.354,4.574-2.487,7.389-3.394c6.604-2.114,13.497-2.243,20.673-0.418
	c0.717,1.613,1.486,3.767,2.307,6.464c2.132,6.859,4.43,11.771,6.894,14.736c4.796,5.729,12.656,10.059,23.58,12.988l-3.047,2.598
	l-3.297,2.1c-1.432,0.998-2.714,2.314-3.847,3.945c-0.999,1.499-1.848,3.182-2.548,5.047c-0.833,2.297-1.249,4.412-1.249,6.344
	c0,1.633,0.633,3.765,1.898,6.396l2.348,4.246c0.533,1.065,0.699,3.164,0.5,6.295c-0.233,3.099-0.649,5.029-1.249,5.795
	l-2.897,2.698c-1.765,1.432-3.097,2.681-3.997,3.746c-1.499,1.799-2.531,3.764-3.097,5.896c-0.466,1.665-0.7,3.497-0.7,5.495
	c0,2.064,0.649,3.764,1.949,5.096c1.332,1.332,3.514,2.465,6.544,3.396l7.544,2.848c5.195,2.365,8.276,4.613,9.242,6.744
	l1.649,4.746c0.866,2.864,1.648,4.862,2.348,5.995c1.199,1.897,2.848,3.098,4.946,3.597c9.059,2.1,15.587,3.048,19.583,2.849
	c4.896-0.268,7.96-2.165,9.19-5.695c8.193,0.767,13.59-0.383,16.188-3.446c1.799-2.099,2.215-5.079,1.249-8.941
	c-0.565-2.231-1.981-3.848-4.246-4.848c-1.731-0.731-3.612-1.032-5.646-0.897c-3.364-1.732-6.812-3.863-10.342-6.396
	c-6.395-4.63-10.808-9.159-13.237-13.589c0.331-2.031,2.497-5.595,6.493-10.689c3.697-4.729,6.445-7.728,8.242-8.993
	c2.731-0.334,4.914-1.016,6.545-2.049c1.633-1.031,3.297-2.78,4.996-5.244c1.065-1.532,2.114-3.547,3.146-6.045
	c1.266-3.164,1.898-5.846,1.898-8.043c0-1.434-0.25-2.849-0.75-4.248c-0.365-1.03-1.131-2.646-2.297-4.846
	c1.1-8.992-0.982-18.717-6.244-29.175c-7.912-15.688-21.83-28.692-41.749-39.021c-0.132-0.279-0.35-0.547-0.667-0.795l-1.749-1.049
	c-1.999-1.066-3.314-2.017-3.947-2.849c-0.115-0.147-0.209-0.302-0.308-0.455c0.451-0.103,0.857-0.276,1.207-0.545
	c0.566-0.466,0.849-1.082,0.849-1.849s-0.283-1.433-0.849-1.998c-0.326-0.307-0.683-0.523-1.068-0.664
	c0.709-0.475,1.753-0.887,3.166-1.233l5.545-1.05c5.362-0.833,9.442-1.798,12.239-2.896c4.729-1.865,8.244-4.681,10.541-8.442
	c5.629-0.866,10.892-2.964,15.787-6.295c4.162-2.831,7.061-5.778,8.692-8.843c1.031,1.332,1.798,2.78,2.297,4.347
	c0.334,1.099,0.666,2.747,1,4.946l0.999,6.395c0.564,2.964,1.332,5.645,2.299,8.043c2.297,5.795,6.262,11.007,11.889,15.637
	c4.996,4.096,9.76,6.594,14.289,7.493c0.998,3.164,2.563,5.911,4.694,8.243c1.199,1.299,2.966,2.932,5.296,4.896l2.148,1.849
	c0.766,0.731,1.48,1.683,2.146,2.848c1.5,2.765,4.33,4.445,8.494,5.046l8.592-0.399c1.232-0.3,2.314-0.933,3.248-1.898l4.994-5.595
	l6.396-6.645c3.997-4.164,5.995-8.609,5.995-13.338c0-4.896-1.549-10.691-4.646-17.387l6.794-5.646
	c3.464-3.396,5.412-6.526,5.846-9.392c0.434-2.997,0.282-6.444-0.449-10.341c-0.3-1.799-0.449-3.447-0.449-4.945l0.599-3.498
	l0.601-3.697c0-2.729-0.684-4.928-2.048-6.594l-1.85-1.848c-0.698-0.768-1.082-1.699-1.149-2.798
	c-0.142-2.205-0.356-4.029-0.646-5.484c2.237-1.116,4.401-3.015,6.492-5.706c1.465-1.898,3.729-5.262,6.794-10.091l6.944-10.241
	c2.764-3.763,5.027-6.045,6.794-6.844c5.662-0.333,9.425-1.149,11.29-2.448c2.298-1.632,4.479-5.479,6.545-11.54
	c0.699-2.198,1.049-4.047,1.049-5.545C350,160.347,346.919,151.055,340.758,139.798z"/>
</svg>
