<?xml version="1.0" encoding="utf-8"?>
<!-- Generator: Adobe Illustrator 16.0.0, SVG Export Plug-In . SVG Version: 6.00 Build 0)  -->
<!DOCTYPE svg PUBLIC "-//W3C//DTD SVG 1.1//EN" "http://www.w3.org/Graphics/SVG/1.1/DTD/svg11.dtd">
<svg version="1.1" id="图层_1" xmlns="http://www.w3.org/2000/svg" xmlns:xlink="http://www.w3.org/1999/xlink" x="0px" y="0px"
	 width="224px" height="239px" viewBox="0 0 224 239" enable-background="new 0 0 224 239" xml:space="preserve">
<path d="M222.918,119.203c-0.7-4.07-1.885-8.44-3.553-13.111c-2.502-7.039-5.821-13.762-9.958-20.167
	c-5.943-9.204-13.162-15.63-21.642-19.306c0.518-1.888,0.438-3.564-0.277-5.015c-0.898-1.887-2.564-3.107-4.96-3.694
	c-2.167-4.785-3.768-9.892-4.798-15.322c-1.102-8.04-2.119-14.212-3.053-18.516c-2.335-10.976-8.189-18.332-17.564-22.068
	c-9.342-3.737-18.899-2.585-28.674,3.453c-6.906,4.237-11.594,10.292-14.063,18.166c-1.845,5.905-1.981,11.723-0.413,17.452
	c-1.66,1.24-3.207,2.859-4.641,4.866c-1.394,1.936-2.521,4-3.409,6.18c-0.822-2.449-1.092-4.992-0.795-7.631
	c0.4-3.736,2.853-11.126,7.356-22.168c0.868-2.202,1.051-3.52,0.55-3.954c-0.601-0.467-2.319-0.25-5.154,0.651
	c-13.478,4.237-24.22,9.825-32.227,16.764c-11.31,9.774-16.847,21.935-16.614,36.48c0.133,8.507,2.719,16.514,7.756,24.02
	c4.904,7.273,11.209,12.727,18.916,16.364c10.342,4.904,19.983,5.872,28.923,2.902c3.211-1.07,5.899-2.566,8.09-4.467
	c0.201,3.551,0.046,7.453-0.482,11.723c-1.368,11.21-3.62,20.718-6.756,28.524c-3.47,8.507-8.124,15.346-13.962,20.517
	c-5.004,4.438-13.144,7.823-24.42,10.159c-12.144,2.535-22.052,2.401-29.725-0.4c-8.541-3.17-14.246-7.373-17.115-12.611
	c-1.501-2.769-2.085-5.688-1.751-8.757c0.434-3.903,2.335-7.64,5.705-11.21c1.535-1.635,2.102-2.785,1.701-3.453
	c-0.4-0.633-1.351-0.35-2.852,0.852c-3.403,2.769-5.738,5.922-7.006,9.457c-1.334,3.703-1.334,7.44,0,11.21
	c-2.469-1.668-4.32-4.021-5.555-7.056c-1.068-2.603-1.401-4.771-1.001-6.506c0.267-1.134,0.767-2.268,1.501-3.402l2.702-3.604
	c0.701-0.834,0.951-1.451,0.75-1.852c-0.167-0.4-0.684-0.283-1.551,0.351c-1.602,1.167-3.002,2.786-4.204,4.854
	c0-0.668,0.134-1.484,0.4-2.453l0.55-2.301c0.4-2.703,0.2-3.953-0.6-3.754c-0.834,0.2-1.585,1.502-2.252,3.903
	c-2.402,8.94-0.934,16.298,4.403,22.069c-4.037,0.8-7.189,0.217-9.458-1.752c-0.968-0.834-1.735-2.052-2.302-3.653
	c-0.5-1.435-0.951-3.536-1.351-6.306c-0.133-1.066-0.467-1.567-1-1.501c-0.5,0.101-0.817,0.7-0.951,1.802
	c-0.3,2.669,0.167,5.354,1.401,8.057l-2.402-2.452l-2.102-3.202c-0.967-1.635-1.785-2.369-2.452-2.202
	c-0.667,0.167-0.684,1.134-0.05,2.902c1.435,4.204,4.137,7.339,8.107,9.407c3.269,1.702,6.922,2.486,10.959,2.353l4.204,0.601
	c1.635,0.533,3.036,1.318,4.204,2.352l6.755,5.805c3.87,2.937,7.773,5.154,11.71,6.656c6.939,2.669,15.563,3.387,25.872,2.152
	c11.143-1.302,20.717-4.588,28.724-9.859c-2.135,5.404-2.285,10.843-0.451,16.314c1.602,4.771,4.354,8.773,8.257,12.01
	c2.235,1.868,4.737,3.253,7.506,4.153l6.155,1.552c2.269,0.667,3.67,2.619,4.204,5.854c0.566,3.536,0.049,8.323-1.552,14.362
	c-0.468,1.734-0.351,2.619,0.351,2.652c0.7,0,1.434-0.885,2.201-2.652c1.502-3.604,2.303-7.09,2.402-10.459
	c0.801,2.102,1.401,5.254,1.802,9.458c0.134,1.201,0.467,1.519,1.001,0.95c0.566-0.566,0.851-1.65,0.851-3.252
	c0.066-4.237-0.534-7.94-1.802-11.109c-1.034-2.603-2.318-4.438-3.854-5.505c3.703-0.467,7.156,0.033,10.359,1.501
	c3.836,1.735,7.089,4.821,9.758,9.258c1.301,2.169,2.302,3.104,3.002,2.803c0.668-0.268,0.534-1.568-0.4-3.903
	c-3.469-8.808-10.792-12.961-21.968-12.46c3.569-2.169,7.372-3.236,11.409-3.203c3.47,0.033,7.356,0.9,11.66,2.602
	c1.936,0.768,2.886,0.668,2.853-0.3c-0.034-0.968-0.901-1.868-2.603-2.702c-6.139-2.969-12.227-3.586-18.266-1.852
	c-1.534,0.434-3.569,1.201-6.104,2.302c-2.035,0.901-3.42,1.368-4.153,1.401c-1.701,0.066-3.604-0.301-5.705-1.102
	c-2.168-0.767-4.236-1.885-6.205-3.352c-4.037-3.037-6.205-8.057-6.505-15.063c-0.234-6.406,0.834-10.693,3.203-12.861
	c9.408-8.574,17.081-18.215,23.02-28.924c6.262-11.322,9.623-22.314,10.094-32.981c2.826,2.254,5.534,3.875,8.121,4.857
	c4.438,1.668,8.99,1.751,13.662,0.25c10.107-3.203,17.314-5.054,21.617-5.555c4.737-0.534,10.125-0.05,16.164,1.452
	c2.668,0.667,5.721,1.634,9.157,2.902l7.507,2.852c2.401,1.034,3.92,1.451,4.553,1.252
	C223.002,121.805,223.186,120.871,222.918,119.203z M129.34,83.823l-1.967-1.887c-0.889-2.134-2.002-4.258-3.388-6.37
	c-1.475-2.281-4.041-5.467-7.648-9.515c-0.067-4.197,1.074-8.711,3.431-13.542c2.937,3.546,7.605,7.976,14.026,13.299
	c3.131,2.589,5.795,4.938,8.004,7.054c-1.048,0.88-1.984,1.781-2.8,2.705c-2.515,2.825-4.736,6.661-6.674,11.48
	C131.397,85.955,130.405,84.88,129.34,83.823z"/>
</svg>
