<?xml version="1.0" encoding="utf-8"?>
<!-- Generator: Adobe Illustrator 16.0.0, SVG Export Plug-In . SVG Version: 6.00 Build 0)  -->
<!DOCTYPE svg PUBLIC "-//W3C//DTD SVG 1.1//EN" "http://www.w3.org/Graphics/SVG/1.1/DTD/svg11.dtd">
<svg version="1.1" id="图层_1" xmlns="http://www.w3.org/2000/svg" xmlns:xlink="http://www.w3.org/1999/xlink" x="0px" y="0px"
	 width="190px" height="183px" viewBox="0 0 190 183" enable-background="new 0 0 190 183" xml:space="preserve">
<path d="M184.96,90.896l0.897-3.143c0.199-1.131,0.184-1.862-0.049-2.195c-0.399-0.532-1.498-0.865-3.293-0.998l-4.107,0.182
	c-1.613-1.387-3.751-2.927-6.418-4.622c-3.362-2.176-6.118-3.721-8.28-4.648c5.896-3.646,9.665-8.142,11.323-13.482l0.25,0.023
	c2.095-1.53,3.226-3.824,3.392-6.884c0.128-2.93-0.729-5.331-2.545-7.217c0.813-1.938,1.315-4.498,1.497-7.698
	c0.133-2.062-0.115-4.14-0.748-6.235c-0.189-0.636-0.4-1.21-0.629-1.735c1.166-1.528,1.418-3.753,0.729-6.694
	c-0.729-3.159-2.36-6.385-4.889-9.677c-6.285-8.28-14.631-13.202-25.04-14.765c-13.634-2.062-25.239-0.05-34.817,6.036
	c-9.545,6.052-15.248,14.948-17.108,26.687c-0.437,2.717-0.572,5.379-0.411,7.987c-1.92,0.505-3.604,1.484-5.056,2.926
	c-0.984-0.817-2.033-1.69-3.163-2.633c-6.285-5.221-9.926-7.731-10.924-7.532c-1.064,0.233-2.062,1.729-2.993,4.489
	c-0.662,2.037-1.076,4.053-1.25,6.05l-4.885-0.313c-2.395,0.133-3.758,0.665-4.09,1.596c-0.88,2.441,0.915,8.47,5.367,18.061
	c-3.799,4.825-7.056,10.074-9.757,15.759c-1.071,2.247-1.987,4.609-2.783,7.064c-0.537-7.764-2.482-13.931-5.847-18.487
	c-4.19-5.72-10.342-8.58-18.456-8.58c-7.915,0-14.915,2.793-21,8.38C3.291,74.651-0.002,82.25-0.002,91.395
	c0,4.039,0.918,7.699,2.711,11c4.177,10.422,10.903,19.543,20.185,27.359c9.905,8.346,19.672,12.682,29.303,13.034
	c-0.232,0.957-0.458,1.94-0.671,2.978l-1.646,10.228c-2.727,1.729-4.822,3.392-6.285,4.987c-1.297,1.396-1.912,2.461-1.846,3.191
	c0.1,0.865,1.347,1.879,3.741,3.043l5.637,2.395c0.033,3.192,0.1,5.238,0.2,6.137c0.166,1.163,0.515,1.845,1.047,2.045
	c0.632,0.232,2.062-0.1,4.29-0.997c2.294-0.933,4.589-2.129,6.884-3.592c3.591,4.722,6.036,6.935,7.333,6.634
	c0.864-0.166,2.577-2.277,5.138-6.335l5.387-8.58c1.929-2.793,4.955-6.767,9.079-11.921c0.293-0.374,0.55-0.781,0.777-1.216
	c3.453,1.44,8.253,1.789,14.437,1.016c1.646-0.213,3.27-0.509,4.878-0.862c4.517,2.625,9.423,7.043,14.726,13.283
	c4.855,5.653,7.648,8.53,8.381,8.631c2.992,0.397,7.748-0.666,14.267-3.192c6.618-2.595,10.274-4.938,10.975-7.034
	c0.116-0.329-0.022-0.711-0.403-1.143c2.43-1.696,3.646-2.896,3.646-3.597c0-1.297-2.678-3.093-8.03-5.387
	c1.762-3.625,1.93-8.048,0.498-13.271c-1.479-5.418-4.369-9.769-8.643-13.078c3.604-6.063,5.953-13.021,7.05-20.873
	c6.897,2.846,14.196,3.408,21.896,1.679c3.125-0.697,5.754-1.662,7.881-2.894c2.029-1.196,3.043-2.277,3.043-3.242
	s-0.332-1.862-0.998-2.692c1.431-1.196,2.545-2.36,3.343-3.491c0.665-0.933,0.981-1.58,0.948-1.945
	C188.984,92.625,187.587,91.694,184.96,90.896z"/>
</svg>
