<?xml version="1.0" encoding="utf-8"?>
<!-- Generator: Adobe Illustrator 16.0.0, SVG Export Plug-In . SVG Version: 6.00 Build 0)  -->
<!DOCTYPE svg PUBLIC "-//W3C//DTD SVG 1.1//EN" "http://www.w3.org/Graphics/SVG/1.1/DTD/svg11.dtd">
<svg version="1.1" id="图层_1" xmlns="http://www.w3.org/2000/svg" xmlns:xlink="http://www.w3.org/1999/xlink" x="0px" y="0px"
	 width="255px" height="285px" viewBox="0 0 255 285" enable-background="new 0 0 255 285" xml:space="preserve">
<path d="M251.553,213.063c-2.029-12.514-6.756-23.896-14.178-34.146c-10.15-14.11-22.447-23.229-36.891-27.356
	c-0.942-0.271-1.883-0.512-2.822-0.733c5.779-9.241,9.566-18.166,11.357-26.773c1.407-6.802,1.59-13.451,0.582-19.95
	c0.006-0.007,0.012-0.012,0.018-0.019c4.16-5.458,6.174-11.132,6.041-17.023c-0.016-0.477-0.059-0.946-0.102-1.415
	c2.307-1.692,4.698-2.936,7.188-3.677c2.93-0.865,5.459-0.882,7.588-0.05c5.261,1.997,6.74,7.971,4.442,17.921
	c-0.698,2.995-0.832,4.842-0.397,5.542c0.531,0.832,2.063,0.482,4.593-1.048c2.43-1.464,4.775-3.944,7.039-7.438
	c2.396-3.761,3.993-7.655,4.793-11.682c2.096-10.55-1.781-17.938-11.633-22.165c-6.988-3.028-14.261-3.877-21.814-2.546
	c-5.496,0.996-10.457,2.933-14.896,5.79c-1.354-0.706-2.771-1.298-4.273-1.747c-4.834-1.44-9.389-1.153-13.668,0.825
	c-0.156-0.09-0.303-0.187-0.459-0.275c-5.658-3.228-11.781-5.292-18.371-6.19c-13-1.798-24.681,0.852-35.043,7.932
	c-1.32-23.581-8.765-41.229-22.367-52.911C97.43,4.643,84.201,0,68.592,0l-4.243,0.449c-0.865,0.366-1.082,1.148-0.649,2.346
	c1.564,4.56,2.729,9.103,3.495,13.628c1.065,6.257,1.165,11.499,0.299,15.726c-0.699,3.361-2.612,7.788-5.741,13.279
	c-3.894,6.823-6.224,11.182-6.989,13.08c-2.619,6.303-3.575,12.769-2.884,19.396c-2.799,0.382-5.613,0.925-8.448,1.67
	c-8.52,2.23-16.058,6.623-22.614,13.179c-6.09,6.124-10.949,13.695-14.577,22.714c-3.494,8.686-5.524,17.905-6.09,27.656
	c-0.532,9.816,0.466,19.17,2.996,28.057c2.795,9.784,7.238,18.62,13.329,26.508c5.857,7.555,12.78,13.711,20.768,18.471
	c7.954,4.76,16.341,7.755,25.16,8.986c9.052,1.265,17.855,0.531,26.408-2.197c8.553-2.695,16.125-7.154,22.714-13.379
	c1.493-1.406,2.906-2.887,4.254-4.428c7.49-1.854,14.66-4.104,21.514-6.755c1.454,4.261,3.929,8.205,7.431,11.832
	c6.156,6.355,14.875,11.082,26.158,14.177c26.725,7.289,39.688,24.33,38.889,51.121c-0.133,3.992-0.084,6.488,0.149,7.486
	c0.3,1.331,1.147,1.932,2.546,1.798c8.721-0.832,16.475-4.81,23.264-11.932c6.557-6.854,11.267-15.593,14.127-26.209
	C252.852,235.744,253.417,224.545,251.553,213.063z"/>
</svg>
