<?xml version="1.0" encoding="utf-8"?>
<!-- Generator: Adobe Illustrator 16.0.0, SVG Export Plug-In . SVG Version: 6.00 Build 0)  -->
<!DOCTYPE svg PUBLIC "-//W3C//DTD SVG 1.1//EN" "http://www.w3.org/Graphics/SVG/1.1/DTD/svg11.dtd">
<svg version="1.1" id="图层_1" xmlns="http://www.w3.org/2000/svg" xmlns:xlink="http://www.w3.org/1999/xlink" x="0px" y="0px"
	 width="387px" height="354px" viewBox="0 0 387 354" enable-background="new 0 0 387 354" xml:space="preserve">
<path d="M382.391,205.303c-1-5.063-2.947-9.744-5.846-14.041c-1.999-2.931-4.214-5.43-6.646-7.494
	c-2.198-1.799-3.581-2.781-4.147-2.947c-0.966-0.268-0.799,0.933,0.5,3.598c1.632,3.396,1.948,7.078,0.949,11.042
	c-1.199,4.729-4.247,9.543-9.145,14.438c-2.798,2.8-4.847,5.363-6.146,7.695c-1.633,2.932-2.465,6.18-2.498,9.742
	c-0.063,3.816,1.592,7.208,4.916,10.186c-0.777,1.094-1.58,2.254-2.418,3.506c-0.449,0.677-0.966,1.33-1.519,1.974
	c-4.146-22.354-17.527-37.506-40.152-45.442c-9.094-3.164-19.137-4.945-30.129-5.347c-4.936-0.177-9.715-0.063-14.351,0.324
	c-1.174-13.021,0.29-26.867,4.407-41.544c7.693-27.547,11.857-50.082,12.49-67.603c0.867-24.149-4.297-43.236-15.488-57.259
	c-9.16-11.459-21.686-19.27-37.574-23.434c-17.221-4.497-34.908-3.581-53.062,2.748c-21.951,7.694-38.606,21.701-49.965,42.021
	c-2.237,4.02-4.158,8.117-5.766,12.29c-10.867-5.731-20.872-7.356-30.008-4.846c-9.993,2.765-18.62,10.343-25.882,22.734
	c-3.498,5.996-6.912,11.059-10.243,15.189c-4.63,5.729-8.494,8.811-11.592,9.244c-3.131,0.433-4.397,1.066-3.797,1.898
	c0.4,0.533,1.882,1.333,4.447,2.398c1.865,0.799,3.881,1.282,6.046,1.449c1.699,0.133,3.997,0.1,6.895-0.1l10.493,0.45
	c4.297,1.465,6.312,5.129,6.045,10.992c-0.313,6.801-0.321,11.553-0.026,14.27c-0.367,2.786-0.573,5.573-0.573,8.364
	c0,17.254,5.679,31.295,17.038,42.12c5.771,5.479,12.173,9.446,19.197,11.921c1.351,2.875,2.345,6.02,2.938,9.465
	c1.173,7.067,0.575,13.569-1.75,19.521c-4.168-4.727-9.042-8.495-14.638-11.277c-8.694-4.331-18.154-6.029-28.38-5.098
	c-11.958,1.1-22.734,4.431-32.327,9.994c-9.194,5.361-14.44,10.975-15.739,16.838c-9.127,6.328-14.939,13.523-17.438,21.584
	c-1.732,5.63-1.849,11.976-0.35,19.037c0.799,3.863,2.282,7.693,4.447,11.492l4.847,7.443c1.232,1.73,1.932,2.548,2.099,2.448
	c0.133-0.066,0.066-1.199-0.2-3.397c-0.399-3.563-0.05-7.994,1.049-13.289c1.532-7.229,4.181-12.658,7.944-16.289
	c5.53-1.767,12.175-1.85,19.936-0.25c12.891,2.598,25.765,9.659,38.623,21.186c5.142,4.6,10.64,8.16,16.486,10.708
	c0.913,4.126,2.219,8.057,3.95,11.776c5.063,10.892,13.69,19.918,25.882,27.08c17.122,10.092,37.74,13.34,61.856,9.742
	c24.449-3.664,42.854-13.955,55.211-30.878c5.201-7.129,9.027-14.998,11.518-23.588c8.973-4.587,18.42-11.663,28.354-21.28
	c2.923-2.834,6.108-5.209,9.554-7.139c6.213,2.439,12.979,4.084,20.325,4.891c10.12,1.118,19.188-0.226,27.212-4.023l1.468,2.225
	c2.065,3.365,3.465,6.463,4.197,9.295c0.8,2.963,1.216,6.428,1.249,10.393c0,2.632-0.149,5.013-0.449,7.146
	c-0.2,1.398-0.184,2.148,0.05,2.248c0.301,0.166,1.184-0.282,2.648-1.35c2.465-1.732,4.38-3.73,5.745-5.996
	c2.231-3.863,3.397-8.927,3.498-15.188c0.065-4.83-0.783-9.859-2.548-15.089c-0.518-1.507-1.057-2.883-1.612-4.153
	c2.87-3.022,5.471-6.469,7.791-10.354c2.256,0.438,4.606,0.336,7.062-0.333c6.528-1.832,10.859-6.162,12.991-12.991
	C384.239,222.257,384.256,214.563,382.391,205.303z M250.309,195.05c-3.744,0.992-7.271,2.281-10.566,3.88
	c-5.66-9.404-13.417-19.984-23.284-31.75c-7.035-8.397-11.765-17.144-14.224-26.235c2.166-6.531,3.255-12.927,3.23-19.183
	c-0.035-9.474-1.512-17.901-4.4-25.3l10.297,0.468c3.664-0.267,7.412-1.316,11.242-3.148c3.099-1.465,4.48-2.548,4.146-3.248
	l-3.848-2.048c-1.365-0.633-3.348-2.349-5.945-5.146c-2.165-2.365-4.38-5.03-6.645-7.995c-3.599-4.796-6.797-8.577-9.595-11.342
	c-4.131-4.13-8.544-7.395-13.241-9.793c-8.994-4.597-17.921-6.412-26.781-5.446c-7.881,0.855-17.237,4.071-28.06,9.632
	c1.577-2.651,3.268-5.213,5.077-7.684c10.859-14.923,25.349-25.599,43.469-32.027c12.891-4.563,25.198-6.262,36.923-5.097
	c13.19,1.333,23.899,6.229,32.129,14.69c9.426,9.693,14.973,23.483,16.638,41.371c1.897,20.319-1.315,45.318-9.644,74.997
	C252.006,163.286,249.701,180.086,250.309,195.05z M317.224,255.512c1.157-0.013,2.303,0.01,3.435,0.07
	C319.522,255.62,318.377,255.598,317.224,255.512z"/>
</svg>
