<?xml version="1.0" encoding="utf-8"?>
<!-- Generator: Adobe Illustrator 16.0.0, SVG Export Plug-In . SVG Version: 6.00 Build 0)  -->
<!DOCTYPE svg PUBLIC "-//W3C//DTD SVG 1.1//EN" "http://www.w3.org/Graphics/SVG/1.1/DTD/svg11.dtd">
<svg version="1.1" id="图层_1" xmlns="http://www.w3.org/2000/svg" xmlns:xlink="http://www.w3.org/1999/xlink" x="0px" y="0px"
	 width="330px" height="283px" viewBox="0 0 330 283" enable-background="new 0 0 330 283" xml:space="preserve">
<path d="M324.854,249.982c-0.844-1.183-2.017-2.053-3.507-2.625c-2.322-3.381-7.061-5.224-14.225-5.517
	c-5.595-0.267-10.155,0.199-13.687,1.398c-4.063,1.364-9.557,4.161-16.481,8.391c-7.226,4.363-12.72,7.127-16.481,8.292
	c-5.295,1.633-10.022,1.383-14.186-0.749c-5.596-2.864-9.855-7.524-12.786-13.985c-4.129-9.09-6.478-22.858-7.043-41.307
	c-0.466-16.148-2.78-28.47-6.942-36.96c-0.567-1.169-1.224-2.31-1.945-3.429c5.654-4.309,10.057-9.422,13.184-15.354
	c3.064-5.793,3.83-10.056,2.299-12.786c-0.967-1.765-4.346-3.546-10.14-5.344c-3.647-1.146-7.892-2.195-12.713-3.149l2.174-3.743
	c2.131-4.029,3.612-7.342,4.444-9.939c0.06-0.181,0.109-0.38,0.156-0.59c1.851-0.847,3.367-2.259,4.539-4.255
	c1.4-2.354,2.561-5.932,3.479-10.713c0.639-0.619,1.293-1.516,1.965-2.723c1.631-2.897,2.913-6.743,3.847-11.538
	c2.396-12.087,1.682-23.042-2.148-32.865c-2.764-7.159-6.293-13.236-10.588-18.23c-3.547-4.128-6.607-6.293-9.187-6.51
	c-2.008-2.996-4.04-5.422-6.099-7.276c-2.165-1.964-3.862-2.863-5.096-2.697c-0.155,0.019-0.304,0.084-0.445,0.172
	c-7.031-8.202-16.004-13.208-26.926-15.007c-8.643-1.4-16.879-0.749-24.716,1.938c-0.085-0.028-0.171-0.066-0.256-0.091
	c-1.832-0.533-4.229-0.35-7.192,0.549c-2.418,0.742-4.874,1.868-7.36,3.336c-9.33-1.191-18.098,1.653-26.304,8.551
	c-7.658,6.46-12.986,14.635-15.983,24.524c-3.463,11.322-3.313,21.744,0.45,31.267c0.035,0.089,0.074,0.173,0.11,0.262
	c-0.276,2.708-0.331,5.054-0.161,7.03c0.3,3.829,1.365,7.009,3.197,9.54c0.618,0.857,1.346,1.664,2.183,2.42
	c0.329,2.754,0.864,6.022,1.613,9.817c0.497,2.513,1.014,4.814,1.549,6.93c-10.827-0.117-18.31-0.063-22.427,0.162
	c-6.16,0.399-10.489,1.182-12.986,2.348c-2.131,0.965-3.48,2.531-4.046,4.695c-0.433,1.731,0.117,4.495,1.648,8.292
	c1.665,4.129,4.129,8.441,7.392,12.936c8.088,11.169,18.069,19.701,29.931,25.611c-1.493,5.021-2.516,10.729-3.059,17.144
	c-2.697,31.565-8.375,53.692-17.032,66.38c-4.861,7.126-11.288,11.405-19.279,12.837c-6.959,1.198-13.502-0.084-19.629-3.847
	c-2.997-1.798-7.509-5.678-13.536-11.639c-5.894-5.826-11.371-8.356-16.433-7.592c-4.063,0.633-6.593,2.647-7.592,6.045
	c-0.732,2.496-0.583,5.526,0.449,9.09c1.132,3.861,3.097,7.593,5.894,11.188c6.993,9.058,16.982,14.751,29.968,17.082
	c12.187,2.197,23.492,0.55,33.914-4.944c11.621-6.127,19.995-16.134,25.123-30.019c1.965-5.295,3.63-12.271,4.995-20.929
	c0.7-4.361,1.698-12.221,2.997-23.574c1.712-15.264,3.272-26.197,4.681-32.813c3.001,0.715,6.003,1.075,9.005,1.045l8.94-0.897
	c8.524-1.166,15.284-1.449,20.278-0.851c5.461,0.601,12.154,2.547,20.079,5.845c8.791,3.63,16.25,5.276,22.377,4.944
	c6.078-0.324,13.043-2.705,20.879-7.108c1.146,3.034,2.098,6.599,2.847,10.705c1.631,8.823,3.046,28.803,4.243,59.937
	c0.269,6.961,2.382,14.002,6.345,21.129c5.128,9.223,12.088,15.133,20.878,17.729c6.525,1.932,13.786,1.882,21.775-0.149
	c4.229-1.064,10.689-3.463,19.381-7.191c3.063-1.332,6.609-2.531,10.64-3.596l10.788-2.549c4.096-0.933,7.991-2.246,11.688-3.945
	c4.229-1.932,6.609-3.729,7.144-5.395C326.303,253.297,326.021,251.582,324.854,249.982z"/>
</svg>
