<?xml version="1.0" encoding="utf-8"?>
<!-- Generator: Adobe Illustrator 16.0.0, SVG Export Plug-In . SVG Version: 6.00 Build 0)  -->
<!DOCTYPE svg PUBLIC "-//W3C//DTD SVG 1.1//EN" "http://www.w3.org/Graphics/SVG/1.1/DTD/svg11.dtd">
<svg version="1.1" id="图层_1" xmlns="http://www.w3.org/2000/svg" xmlns:xlink="http://www.w3.org/1999/xlink" x="0px" y="0px"
	 width="385px" height="355px" viewBox="0 0 385 355" enable-background="new 0 0 385 355" xml:space="preserve">
<path d="M379.052,87.435c-2.966-13.828-9.563-26.057-19.792-36.686c-10.496-10.929-22.158-18.343-34.985-22.241
	c-5.966-1.799-11.063-2.333-15.294-1.599c-4.5,0.766-7.53,2.898-9.098,6.397c-1.833,4.131,1.1,8.896,8.796,14.294l11.546,7.247
	c5.498,3.332,9.631,5.981,12.396,7.947c9.296,6.598,15.811,14.844,19.542,24.74c3.332,8.896,4.215,18.426,2.648,28.589
	c-1.5,9.497-4.915,18.31-10.245,26.44c-5.331,8.13-11.729,14.211-19.192,18.243c-8.161,4.447-16.763,7.71-25.799,9.805
	c-3.181-1.164-6.472-2.221-9.888-3.158c-16.821-4.587-33.367-5.754-49.642-3.519l3.608-2.779c4.932-3.999,9.846-5.798,14.744-5.398
	c5.53,0.433,11.295,0.517,17.293,0.25l14.994-1.45c17.359-2.666,31.389-8.68,42.083-18.043
	c10.964-9.629,15.562-20.392,13.795-32.287c-0.898-5.831-3.382-10.713-7.446-14.645c-3.731-3.632-8.696-6.381-14.896-8.247
	c-6.33-1.866-11.712-4.215-16.144-7.047c-5.465-3.465-8.881-7.314-10.245-11.545c-0.565-1.799-1.833-4.099-3.799-6.897
	c-1.482-2.103-2.894-3.805-4.238-5.119c-1.303-9.578-5.255-18.217-11.854-25.919c-9.863-11.529-21.459-18.609-34.787-21.242
	c-11.629-2.3-22.609-0.967-32.947,3.976c-0.197-1.036-0.67-2.013-1.439-2.926c-0.966-1.167-2.115-1.966-3.447-2.399
	c-8.563-2.699-17.743-2.949-27.54-0.75c-8.53,1.933-16.311,5.348-23.341,10.246c-3.229,2.228-5.193,4.576-5.902,7.042
	c-7.423-4.343-16.915-4.932-28.484-1.744c-12.362,3.432-22.275,9.93-29.738,19.493c-5.432,6.964-9.163,14.694-11.196,23.191
	c-1.933,8.197-1.982,15.777-0.15,22.741c0.072,0.264,0.149,0.513,0.223,0.771c-0.894,0.208-1.849,0.873-2.872,2.028
	c-0.667,0.733-1.5,1.849-2.499,3.349c-0.966,1.433-1.766,2.749-2.399,3.948c-0.6,1.066-1.499,2.066-2.699,2.999l-4.048,2.499
	c-10.429,5.731-17.36,11.829-20.792,18.293c-3.999,7.53-2.982,15.194,3.049,22.991c3.232,4.199,8.53,7.781,15.894,10.746
	c7.064,2.832,15.511,4.898,25.34,6.198c5.115,0.712,11.182,2.788,18.184,6.205c-11.903,0.608-23.322,2.863-34.256,6.768
	c-4.587-2.2-9.06-5.037-13.416-8.525c-16.094-12.895-24.058-28.589-23.891-47.082c0.133-18.293,8.18-35.486,24.141-51.58
	c11.396-11.462,18.476-20.209,21.242-26.24c2.133-4.632,1.766-8.147-1.099-10.546c-4.199-3.432-10.063-3.016-17.593,1.25
	c-6.664,3.765-13.711,9.946-21.142,18.542c-10.196,11.862-17.41,24.357-21.641,37.485c-3.899,12.029-5.098,24.007-3.599,35.936
	c1.366,11.196,4.981,21.508,10.846,30.938c5.665,9.196,12.878,16.66,21.642,22.392c2.644,1.733,5.356,3.31,8.136,4.732
	c-9.914,5.4-18.674,12.152-26.279,20.258c-10.563,11.229-18.359,24.407-23.391,39.534c-5.031,15.194-6.914,31.172-5.647,47.932
	c0.333,4.765,1.616,8.63,3.848,11.597c2.033,2.799,4.298,4.114,6.797,3.947c2.732-0.167,4.965-1.8,6.698-4.898
	c1.833-3.364,2.649-7.764,2.449-13.193c-1.366-33.521,6.797-59.544,24.491-78.07c8.042-8.391,17.708-15.16,28.997-20.31
	c6.779,1.747,13.887,2.741,21.333,2.967c3.394,0.097,6.706,0.04,9.94-0.157c-14.195,7.127-26.243,15.689-36.13,25.697
	c-10.996,11.129-18.626,23.341-22.891,36.637c-3.832,11.896-4.848,24.289-3.049,37.186c0.395,2.84,0.931,5.67,1.591,8.494
	c-1.475,1.539-2.929,3.111-4.34,4.75c-3.599,4.132-5.598,7.863-5.998,11.195c-0.333,2.732,0.35,4.865,2.049,6.397
	c3.265,2.883,8.014,1.356,14.24-4.565c1.759,4.021,3.792,8.025,6.102,12.014c2.499,4.298,5.365,7.229,8.597,8.795
	c2.932,1.4,5.531,1.435,7.797,0.102c2.033-1.167,3.266-3.197,3.699-6.098c0.533-3.532-0.367-7.497-2.699-11.896
	c-3.331-6.199-6.037-12.271-8.131-18.218c5.123-4.633,9.783-8.224,13.979-10.771c0.266-0.164,0.55-0.326,0.826-0.489
	c0.879,5.749,2.333,11.509,4.372,17.282c5.331,15.061,14.344,29.455,27.04,43.184c2.999,3.232,6.131,5.248,9.396,6.047
	c3.332,0.834,6.147,0.217,8.446-1.849c2.066-1.866,2.916-4.165,2.549-6.897c-0.433-3.133-2.499-6.697-6.198-10.695
	c-16.432-17.725-25.978-36.027-28.657-54.912c4.128-1.569,8.705-3.145,13.724-4.721c1.384,4.313,3.43,8.42,6.186,12.301
	c4.132,5.799,7.197,11.33,9.196,16.595c1.966,5.098,3.049,10.262,3.249,15.493c0.1,3.133,1.083,5.697,2.949,7.697
	c1.6,1.732,3.282,2.564,5.048,2.498c1.833-0.033,3.416-0.815,4.749-2.349c1.699-1.933,2.649-4.815,2.849-8.647
	c0.267-5.164-0.75-10.777-3.049-16.843c-2.299-6.03-6.131-13.161-11.496-21.392c-2.361-3.65-4.175-7.277-5.464-10.883
	c0.911-0.508,1.83-1.063,2.754-1.646c3.858,9.401,9.209,18.545,16.105,27.423c2.199,2.799,4.515,4.813,6.947,6.047
	c2.899,1.467,5.415,1.467,7.547,0c3.295-2.277,4.137-5.591,2.553-9.929c2.235,2.979,4.894,6.397,7.993,10.277
	c9.83,12.296,15.744,19.143,17.743,20.543c4.731,3.231,7.78,3.631,9.147,1.198c0.898-1.532,1.065-4.131,0.5-7.797
	c-0.209-1.289-1.107-5.108-2.698-11.455c1.757-0.176,3.622-0.99,5.603-2.467c1.906,3.709,4.029,7.078,6.393,10.073
	c2.164,2.8,4.314,4.466,6.447,4.998c1.731,0.433,3.398,0.101,4.998-0.999c3.599-2.566,3.797-6.465,0.6-11.695
	c-2.866-4.646-5.401-9.809-7.607-15.479c1.893-3.243,3.614-6.826,5.159-10.761c3.498-8.996,5.479-18.358,5.947-28.09
	c0.307-6.635-0.114-13.033-1.214-19.213c2.713,0.912,5.392,1.698,8.035,2.355c0.484,6.223,0.959,14.852,1.424,25.904
	c0.302,7.063,1.65,10.43,4.05,10.096c2.266-0.332,5.063-3.748,8.396-10.246c1.705-3.355,3.113-7.934,4.229-13.707
	c0.379,1.594,0.705,3.195,0.97,4.811c3.766,22.758-3.999,46.416-23.291,70.974c-3.398,4.332-5.146,8.229-5.248,11.694
	c-0.066,2.865,0.934,5.049,2.999,6.549c2.332,1.699,4.933,2.099,7.798,1.199c3.231-1.033,6.646-3.666,10.245-7.896
	c11.029-12.93,18.843-26.29,23.441-40.085c4.598-13.896,5.696-27.506,3.299-40.834c-1.044-5.804-2.726-11.447-5.024-16.937
	c5.453-0.433,11.228-0.485,17.317-0.164c4.812,8.758,7.629,18.355,8.448,28.795c1.066,13.861-1.449,28.89-7.547,45.084
	c-1.5,3.965-1.566,7.547-0.2,10.744c1.333,3.199,3.647,5.133,6.946,5.799c2.332,0.467,4.981-0.282,7.947-2.25
	c3.299-2.266,5.614-5.348,6.947-9.245c4.765-14.161,7.063-27.757,6.896-40.784c-0.132-12.729-2.625-24.568-7.474-35.521
	c7.003,1.357,12.931,3.133,17.771,5.332c2.799,1.301,5.414,1.533,7.847,0.7c1.999-0.667,3.397-1.782,4.198-3.349
	c0.767-1.566,0.8-3.398,0.101-5.498c-0.867-2.532-2.648-4.549-5.349-6.049c-6.598-3.664-16.243-6.063-28.938-7.196
	c-1.685-0.151-3.403-0.272-5.147-0.375c-9.269-12.8-22.409-24.487-39.43-35.062c4.648,0.856,9.561,1.574,14.738,2.149
	c10.538,1.179,20.244,1.527,29.126,1.06c17.249,8.324,28.759,19.494,34.5,33.526c6.064,14.794,5.481,32.121-1.75,51.979
	c-1.564,4.23-1.683,8.097-0.35,11.596c1.398,3.697,4.064,5.947,7.997,6.747c3.432,0.7,6.696-0.416,9.796-3.349
	c2.933-2.799,5.049-6.563,6.348-11.297c4.332-16.025,5.148-30.953,2.449-44.781c-2.666-13.694-8.646-25.641-17.943-35.836
	c-4.462-4.877-9.484-9.217-15.065-13.022c13.425-4.241,25.064-11.34,34.908-21.314c9.597-9.763,16.395-21.125,20.393-34.087
	C381.268,113.424,381.884,100.396,379.052,87.435z M151.479,187.881c-3.935,5.793-5.949,9.516-6.036,11.16
	c-0.025,0.666,0.061,1.836,0.256,3.504c-1.861,1.049-3.671,2.172-5.43,3.369C142.676,199.268,146.413,193.257,151.479,187.881z
	 M101.168,174.623c4.285-0.869,8.741-1.567,13.346-2.117C109.392,173.577,104.947,174.281,101.168,174.623z M80.818,257.918
	c-0.639,3.742-1.027,7.49-1.167,11.242c-3.517,1.625-6.832,3.324-9.928,5.102c-2.848,1.639-5.613,3.404-8.302,5.287
	c-2.144-13.805-0.666-26.863,4.453-39.174c5.665-13.695,15.411-25.891,29.239-36.586c12.139-9.412,26.514-16.965,43.118-22.662
	c-14.534,8.825-26.762,19.508-36.671,32.059C90.397,227.348,83.483,242.258,80.818,257.918z M123.181,253.111
	c0.031-0.87,0.101-1.738,0.197-2.604c0.166,0.724,0.342,1.449,0.528,2.177C123.664,252.825,123.425,252.975,123.181,253.111z
	 M122.117,223.199c-3.732,4.945-6.709,10.185-8.912,15.728c-2.682,6.648-4.022,13.214-4.057,19.699
	c-4.281,1.181-8.377,2.429-12.285,3.745c0.098-1.945,0.259-3.895,0.498-5.852c1.733-14.028,7.047-27.557,15.944-40.584
	c7.6-11.115,17.288-21.098,29.052-29.957C131.066,196.286,124.32,208.691,122.117,223.199z M137.028,223.525
	c2.97-3.26,6.419-6.51,10.346-9.746c0.086,0.522,0.176,1.057,0.268,1.605c0.617,3.613,1.161,6.946,1.636,10.014
	c-2.822,5.599-6.314,10.687-10.502,15.24C137.467,234.706,136.887,229.002,137.028,223.525z M143.644,256.168
	c-0.306-0.764-0.601-1.523-0.886-2.279c3.264-3.332,6.174-6.916,8.745-10.74c0.442,5.593,0.722,12.265,0.837,20.019
	c0.075,5.603,0.177,9.341,0.308,11.224C149.042,268.213,146.031,262.139,143.644,256.168z M190.225,281.958
	c-0.329,0.426-0.636,0.845-0.932,1.261c-1.711-6.727-2.62-10.504-2.717-11.307c-2.366-15.76-3.948-27.307-4.748-34.637
	c-1.239-10.891-1.279-19.907-0.126-27.062c3.189,6.644,5.501,13.183,6.924,19.614c1.699,7.764,2.216,15.91,1.549,24.439
	c-0.609,7.971,0.125,16.256,2.159,24.846C191.654,280.064,190.954,281.014,190.225,281.958z M187.155,189.764l0.971-3.367
	c0.021-0.104,0.021-0.211,0.038-0.315c0.11-0.011,0.217-0.024,0.327-0.036c2.947,4.598,5.53,9.118,7.749,13.563
	C192.873,196.617,189.84,193.34,187.155,189.764z M203.534,256.962c-0.13-1.832-0.214-3.649-0.214-5.44
	c0-9.53-1.684-19.494-5.049-29.89c-0.678-2.071-1.418-4.092-2.193-6.085c2.544,2.01,5.287,3.855,8.207,5.557
	c1.263,5.242,1.958,10.367,2.084,15.373C206.529,243.445,205.584,250.273,203.534,256.962z M218.016,213.035
	c-0.798-0.332-1.58-0.676-2.356-1.025c-4.058-9.836-10.163-19.01-18.31-27.521c0.789-0.202,1.566-0.422,2.336-0.655
	c8.806,5.869,16.469,12.058,22.975,18.573c1.617,2.978,2.964,7.545,4.033,13.724C223.813,215.266,220.921,214.238,218.016,213.035z
	 M269.303,218.143c-4.552,0.207-9.24,0.526-14.104,0.99c-0.096,0.01-0.195,0.014-0.293,0.023c-1.703-2.688-3.578-5.334-5.612-7.94
	c-0.037-5.042-0.383-9.375-1.038-12.997c0.561,0.444,1.109,0.887,1.646,1.322C257.559,205.717,264.023,211.917,269.303,218.143z"/>
</svg>
