<?xml version="1.0" encoding="utf-8"?>
<!-- Generator: Adobe Illustrator 16.0.0, SVG Export Plug-In . SVG Version: 6.00 Build 0)  -->
<!DOCTYPE svg PUBLIC "-//W3C//DTD SVG 1.1//EN" "http://www.w3.org/Graphics/SVG/1.1/DTD/svg11.dtd">
<svg version="1.1" id="图层_1" xmlns="http://www.w3.org/2000/svg" xmlns:xlink="http://www.w3.org/1999/xlink" x="0px" y="0px"
	 width="458px" height="215px" viewBox="0 0 458 215" enable-background="new 0 0 458 215" xml:space="preserve">
<path d="M457.45,39.725c-0.602-2.633-3.102-5.35-7.5-8.15c-3.667-2.367-7.05-3.95-10.15-4.75c-0.2-2.467-1.5-4.75-3.898-6.85
	c-1.667-1.467-4.302-3.15-7.9-5.05c-2.233-1.167-4.616-1.917-7.15-2.25l-5.25-0.2h-1.448c-0.435-3.867-4.268-7-11.5-9.4
	c-5.4-1.767-9.65-2.417-12.75-1.95l-3.352,1.3c-1.565-1.333-4.683-2.117-9.35-2.35c-3.3-0.167-6.05-0.1-8.25,0.2
	c-2.367,0.3-6.967,3.233-13.8,8.8c-6.567,5.333-10.685,9.3-12.352,11.9c-1.934,3-2.898,5.667-2.898,8c0,3.267,0.683,7.533,2.05,12.8
	c-2.602,1-5.45,3.967-8.55,8.9c-3.4,5.333-4.983,10.017-4.75,14.05c0.166,2.933,1.5,6.033,4,9.3l6.85,7.65
	c0.934,0.967,1.934,2.317,3,4.05l1.45,2.55c-0.233,3.167,1.25,6.6,4.45,10.3c3.065,3.533,6.833,6.35,11.3,8.45
	c-12.634,10.067-19.967,16.266-22,18.6c-1.566,1.768-3.483,6.934-5.75,15.5c-1.634,6.066-2.867,11.334-3.7,15.8
	c-1.6,0.8-3.45,0.784-5.55-0.05c-1.9-0.768-4.05-3.133-6.45-7.1c-2.2-3.602-3.95-7.367-5.25-11.301
	c-0.731-2.197-2.396-3.771-4.973-4.734c-1.026-5.59-2.466-10.732-4.327-15.415c-1.967-4.9-3.684-7.8-5.15-8.7l-7.05-4.35
	c-0.366-2.167-0.883-4.1-1.55-5.8c-1.232-3.233-3.102-5.65-5.602-7.25l-14.549-9.3l-2.701-5.85c-1.434-3-2.467-4.817-3.1-5.45
	c-2.834-2.7-9.217-4.317-19.15-4.85c-8.967-0.533-14.683-0.217-17.148,0.95c-1.133,0.533-2.2,1.267-3.2,2.2l-1.65,1.9
	c-3.967-0.867-8.7-1.4-14.2-1.6c-6.733-0.2-11.467,0.367-14.2,1.7c-2.1,1-5.483,3.967-10.15,8.9c-4.3,4.533-7.683,8.533-10.15,12
	c-2.8-0.867-4.767-1.217-5.9-1.05c-1.367,0.167-2.967,1.117-4.8,2.85c-3.367,3.2-6.717,7.233-10.05,12.1
	c-4.167,6.033-6.167,10.632-6,13.8c0.133,2.166,1.017,5.449,2.65,9.85c1.6,4.268,2.4,7.217,2.4,8.85c0,0.801-1.434,4-4.3,9.602
	c-0.72,1.398-1.35,2.719-1.892,3.959c-2.407,0.474-4.458,1.05-6.108,1.74c-2.333,1-4.383,2.399-6.15,4.199
	c-1.967,1.967-3.517,3.867-4.65,5.7c-1.2,1.866-1.783,3.366-1.75,4.5c0,0.866,0.15,1.95,0.45,3.25l0.4,2.45
	c0,1.6-0.417,2.867-1.25,3.8l-0.05-0.149c-0.8-2.633-1.467-4.584-2-5.851c-0.933-2.2-2.133-4.315-3.6-6.35
	c-2.533-3.5-6.433-7.833-11.7-13c-6.667-6.534-11.617-10.134-14.85-10.8l-7.4-1.4c-3.133-0.732-5.767-1.768-7.9-3.1
	c3.867-0.7,7.333-1.867,10.4-3.5c3.7-2,6.083-4.352,7.15-7.051c0.433-1.066,1.1-2.232,2-3.5l2.6-3.449l2.6-3.352
	c0.667-1.066,1.117-2.482,1.35-4.25c0.4-2.966-0.517-6.583-2.75-10.85c-2.267-4.367-4.583-6.833-6.95-7.4l1-3.85
	c0.633-2.4,0.95-4.083,0.95-5.05c0-2-0.3-3.7-0.9-5.1c-1.933-4.333-4-8.267-6.2-11.8c-3.567-5.7-6.567-8.684-9-8.95l-7.3-0.35
	c-5.066,0-8.333,0.533-9.8,1.6c-1.467-0.9-4.133-1.216-8-0.95c-3.367,0.267-6.333,0.816-8.9,1.65c-3.267,1.1-5.567,2.95-6.9,5.55
	c-4.9-0.667-10.066,0.583-15.5,3.75c-2.966,1.7-4.983,3.833-6.05,6.4c-0.767,1.7-1,2.95-0.7,3.75
	c-3.066,0.667-6.433,2.783-10.1,6.35c-4.6,4.4-6.833,9.017-6.7,13.85c0.033,0.934,0.633,4.35,1.8,10.25
	c1.5,7.699,2.517,12.5,3.05,14.399c1.6,5.8,3.717,10.167,6.35,13.101c2.933,3.232,6.95,6.867,12.05,10.899
	c5.167,4.067,9.483,6.983,12.95,8.75c0.867,0.435,2.45,1.067,4.75,1.9c2,0.833,3.3,1.716,3.9,2.649
	c7.133,10.699,15.367,19.532,24.7,26.5c7.633,5.666,14.917,9.416,21.85,11.25l6.75,0.949l4.85-0.1l4.1,0.199
	c1.2,0.199,2.333,0.633,3.4,1.301c2.667,1.732,5.367,2.917,8.1,3.55c3.066,0.7,5.45,0.517,7.15-0.55
	c1.333-0.833,2.417-2.102,3.25-3.801c0.8-1.666,1.4-2.617,1.8-2.851l5.85-3.3c7.2-2.768,12.633-5.184,16.3-7.25
	c2.908-1.637,4.967-3.202,6.195-4.7l0.205,0.05c2.4,0.7,4.017,1.234,4.85,1.602c6.4,8.898,11.883,14.933,16.45,18.1
	c6.4,4.434,11.617,6.934,15.65,7.5l20.65,2.2l25.6,0.899c4.9-1.268,12.116-4.117,21.65-8.551c12.533-5.832,19.982-10.85,22.35-15.05
	c3.067-0.101,5.967-1.565,8.7-4.399c2.888-3.008,4.856-7.002,5.927-11.965c3.301,1.135,6.491,2.756,9.573,4.864
	c4.233,2.899,7.316,5.983,9.25,9.25c0.533,3.435,1.95,6.218,4.25,8.351c2.2,2.033,4.45,2.834,6.75,2.399
	c0.8-0.134,5.65-2.116,14.55-5.95c10.033-4.332,15.185-6.55,15.45-6.648c2.268-0.866,8.5-5.385,18.7-13.551l14.6-12
	c4.468-3.467,8.033-8.051,10.7-13.75l5.25-13.899c1.566-3.968,2.733-6.517,3.5-7.649c5.2-1.367,11.685-6.649,19.45-15.851
	c7.366-8.733,14.083-18.767,20.149-30.1c1.533-2.8,2.699-7.933,3.5-15.4c0.634-5.833,0.949-11.867,0.949-18.1
	C457.8,43.108,457.684,40.758,457.45,39.725z"/>
</svg>
