<?xml version="1.0" encoding="utf-8"?>
<!-- Generator: Adobe Illustrator 16.0.0, SVG Export Plug-In . SVG Version: 6.00 Build 0)  -->
<!DOCTYPE svg PUBLIC "-//W3C//DTD SVG 1.1//EN" "http://www.w3.org/Graphics/SVG/1.1/DTD/svg11.dtd">
<svg version="1.1" id="图层_1" xmlns="http://www.w3.org/2000/svg" xmlns:xlink="http://www.w3.org/1999/xlink" x="0px" y="0px"
	 width="521px" height="271px" viewBox="0 0 521 271" enable-background="new 0 0 521 271" xml:space="preserve">
<path d="M520.1,132.951c-0.133-3.565-0.398-5.747-0.799-6.547c-0.434-0.899-2.183-2.565-5.248-4.998
	c-3.197-2.499-5.514-3.932-6.945-4.298l-9.896-2.299c-5.164-1.1-8.129-1.549-8.896-1.35c-0.566,0.133-4.115,1.649-10.646,4.548
	l-11.195,4.948l-0.001,0.002c-1.599-0.718-2.877-1.411-3.837-2.079c0.537-1.592,1.531-4.378,2.988-8.368l3.349-9.095
	c2.032-2.599,4.516-5.114,7.446-7.546c2.365-1.966,3.682-3.282,3.948-3.948c0.467-1.166,0.017-3.232-1.351-6.197
	c-1.266-2.765-2.215-4.248-2.849-4.448c-11.395-1.966-18.024-2.465-19.891-1.499c-1.176,0.572-4.189,3.244-9.001,7.965l-0.943-0.719
	c-1.633-1.167-2.749-1.766-3.349-1.799l-5.747,0.65l-3.393,0.763c-1.357-1.475-2.804-2.93-4.354-4.361
	c-0.101-0.633-0.216-2.765-0.351-6.397c-0.133-3.032-0.333-4.831-0.6-5.397c-0.433-1-4.598-3.415-12.494-7.247
	c-7.93-3.898-12.544-5.697-13.843-5.397c-1.732,0.433-5.481,4.181-11.245,11.245l-13.443,0.25c-0.6-3.865-1.383-6.047-2.349-6.547
	c-2.332-1.199-7.613-1.882-15.843-2.049l-0.259,0.013c-0.585-4.651-1.016-7.258-1.29-7.809c-0.435-0.833-2.232-2.082-5.397-3.748
	l-6.297-3.099l0.3-5.797c0.133-2.965,0-4.848-0.399-5.647c-0.467-0.899-2.532-1.882-6.196-2.949l-8.396-1.899l-4.396-8.446
	c-2.966-5.397-4.898-8.246-5.798-8.546c-0.899-0.3-3.498,0.6-7.796,2.699l-7.598,3.898l-4.797-3.749
	c-2.732-2.099-4.98-3.615-6.748-4.548c-1.799-0.966-6.779-1.499-14.941-1.599l-18.092,0.15l-3.699-5.247
	c-0.899-1.133-1.815-1.783-2.749-1.949l-18.241-1.5l-13.743-0.649c-2.066-0.067-3.398,0.15-3.999,0.649
	c-0.466,0.367-1.216,2.166-2.249,5.397l-3.049,10.195c-5.164,1.899-9.845,4.048-14.043,6.447l-5.748,3.548l-10.645-0.65
	c-4.431-0.233-7.247-0.033-8.446,0.6c-1.166,0.633-3.814,4.831-7.946,12.594c-3.932,7.363-6.031,11.694-6.297,12.994
	c-0.167,0.833,0.267,2.099,1.299,3.798l1.001,1.574c-1.022,1.137-2.254,2.61-3.7,4.423c-0.697,0.876-1.307,1.661-1.875,2.403
	c-4.031-1.546-6.452-2.238-7.22-2.053c-0.5,0.133-1.633,0.85-3.398,2.149l-2.999,2.199c-1.566-0.933-4.065-2.099-7.497-3.498
	c-3.965-1.6-6.497-2.316-7.596-2.149c-0.7,0.1-2.232,1.017-4.598,2.749c-2.365,1.799-3.731,2.798-4.098,2.999
	c-7.863-5.997-12.511-9.063-13.943-9.196c-0.733-0.066-4.731,1.949-11.994,6.047c-7.463,4.231-11.328,6.88-11.595,7.946
	c-0.133,0.533-0.2,2.232-0.2,5.098l0.05,5.847l-5.197,3.398l-7.918,5.504l-8.924-6.304c-5.831-3.898-9.262-5.864-10.295-5.897
	l-10.045,1.1c-6.431,0.666-12.161,0.6-17.192-0.2c-1.899-0.3-4.898,2.565-8.996,8.596c-3.932,5.73-5.897,9.545-5.897,11.444
	c0,0.667,0.883,1.583,2.649,2.749c1.499,1,2.749,1.666,3.748,1.999h0.1l0.1,0.05l13.144,2.249c4.365,0.866,6.797,1.516,7.296,1.949
	l4.698,5.748c1.126,1.277,2.141,2.339,3.056,3.211c-0.318,0.959-0.645,2.007-0.979,3.149l-10.073-0.363l-11.395-0.6
	c-1.066-0.133-3.815,2-8.246,6.397c-3.598,3.565-6.48,6.68-8.646,9.346c-0.7,0.867-1.482,3.449-2.349,7.746
	c-0.899,4.564-0.899,6.998,0,7.297l4.548,1c3.198,0.533,5.331,0.482,6.397-0.15c1.299-0.799,4.265-1.832,8.896-3.098
	c5.131-1.4,8.379-1.85,9.746-1.35l13.643,4.946c9.262,3.132,14.343,4.231,15.243,3.3l1.799-2.25c1.133-1.8,2.032-3.099,2.699-3.897
	c1.166-1.333,2.615-1.999,4.348-1.999l8.396,0.699l6.122,0.309l5.623,4.391c4.498,3.863,7.463,7.246,8.896,10.146
	c0.2,0.466,1.116,1.133,2.749,1.998c1.699,0.935,2.815,1.334,3.348,1.2c5.164-1.133,8.613-2.516,10.345-4.147
	c0.5-0.467,1.049-1.866,1.649-4.198c0.633-2.466,0.833-4.33,0.6-5.598c-0.733-4.064-2.116-9.229-4.148-15.493
	c-1.068-3.26-1.883-5.61-2.449-7.06c0.148-1.032,0.271-2.035,0.352-2.989l1.248-1.196l4.547,0.75c2.832,0.4,4.531,0.433,5.098,0.1
	c0.933-0.533,6.264-5.797,15.992-15.792l15.04,2.249c-4.347,6.396-6.543,11.024-6.543,13.844c-0.033,1.266,0.883,3.232,2.749,5.897
	c1.365,1.946,3.107,4.067,5.182,6.343c-1.76,1.192-2.891,2.063-3.383,2.603c-0.733,0.866-1.716,6.715-2.949,17.542
	c-1.232,10.896-1.516,16.774-0.85,17.642c1.033,1.3,3.315,3.398,6.847,6.298c4.031,3.265,6.613,4.813,7.746,4.647
	c1.131-0.188,2.648-0.998,4.541-2.404c1.182,1.324,2.53,2.82,4.055,4.502l1.041,1.138l-1.391,6.46
	c-0.833,3.73-1.299,6.063-1.399,6.997c-0.133,1.267-0.083,2.114,0.15,2.549c0.267,0.533,1.116,1.351,2.549,2.448l13.094,9.195
	c0.133,1.666-0.316,4.647-1.35,8.945c-1,4.164-1.766,6.53-2.299,7.098l-8.446,3.548c-6.364,2.397-10.479,3.981-12.344,4.747
	c-2.865,1.134-4.481,2.25-4.848,3.35c-0.267,0.768-0.516,1.966-0.75,3.6c-0.2,1.698-0.3,3.297-0.3,4.797
	c0,1.199,0.267,2.397,0.8,3.599c0.5,1.133,1.033,1.849,1.599,2.149c1.1,0.549,3.659,0.623,7.651,0.23l0.195,2.768
	c0.066,0.565,0.25,1.049,0.55,1.448c0.399,0.5,1.116,0.949,2.149,1.351l7.146,0.6l6.42-0.375c0.302,0.795,0.859,1.454,1.676,1.975
	c0.833,0.533,1.732,0.832,2.699,0.898l6.597,0.25l4.848-0.699c3.099-1.365,9.279-4.798,18.541-10.295
	c9.262-5.531,14.11-8.68,14.543-9.445c0.767-1.266,1.149-2.932,1.149-4.998c0-1.565-0.383-2.998-1.149-4.297
	c-0.2-0.334-0.3-0.916-0.3-1.75v-2.699l0.15-2.248l0.25-2.148l7.247,0.5c4.165,0.268,6.463,0.249,6.896-0.05
	c0.63-0.441,0.808-2.573,0.544-6.353c0.882-0.027,1.759-0.053,2.655-0.096l12.914-0.854l1.129,1.254
	c0.467,0.332,1.216,0.467,2.249,0.4l11.896-2l3.756-0.777l0.041,0.128c0.5,1.366,0.968,2.083,1.399,2.149l15.894-1.399l1.498,2.948
	c0.834,1.666,1.449,2.582,1.851,2.748l13.368-2.719l1.125,3.27c0.666,1.966,0.999,3.414,0.999,4.349l-0.25,1.599
	c-1.101,2.267-1.649,4.215-1.649,5.848l0.102,2.949c0.1,0.933,0.333,1.582,0.698,1.949l2.999,2.348l5.247,4.248l10.745,10.146
	c5.164,4.697,8.529,6.779,10.095,6.246l5.099-1.499c1.976-0.705,3.384-1.335,4.247-1.892l1.45,0.842
	c1.833,1,3.064,1.566,3.697,1.699c1.633,0.334,4.281-0.149,7.946-1.449l3.398-1.249c1.024-0.529,1.853-1.798,2.482-3.804
	c1.143,0.311,2.087,0.436,2.814,0.354c1.064-0.133,3.03-1.217,5.896-3.248c1.233-0.899,1.883-2.333,1.949-4.299l0.35-7.096
	c0-1.732-0.1-2.982-0.3-3.749c-0.199-0.934-0.648-1.684-1.349-2.249l-3.999-2.748l-8.346-6.247
	c-3.398-2.832-5.465-5.081-6.197-6.747c-0.767-1.832-1.749-5.547-2.948-11.146l-1.952-9.627l3.052-2.367
	c0.566-0.532,0.916-1.049,1.051-1.549c0.133-0.532,0.083-1.299-0.15-2.299l-1.648-4.498l-0.948-2.276l0.148-0.122
	c1.232-1.133,1.815-2.049,1.749-2.749c-0.732-6.13-1.1-9.595-1.1-10.396c7.163-1.799,11.328-3.164,12.494-4.098
	c1.731-1.4,3.647-6.064,5.747-13.994c2.031-7.529,2.897-12.344,2.599-14.441c-0.133-1-1.116-2.399-2.948-4.198l-3.799-3.398
	l0.3-2.997c4.798-5.099,7.197-7.948,7.197-8.547c0-1.866-0.283-4.331-0.85-7.396c-0.433-2.428-0.99-4.878-1.662-7.35l12.155,0.604
	l3.948-3.099l0.352,2.399c-0.935,0.966-1.566,1.716-1.899,2.249c-0.933,1.199-1.383,2.116-1.35,2.749
	c0.032,0.6,1.933,3.198,5.696,7.796l5.897,7.046l-0.15,2.799l-0.111,4.329l-4.085,2.769c-4.231,2.697-7.447,4.598-9.646,5.697
	c-1.065,0.498-2.766,2.531-5.098,6.096c-2.365,3.498-3.632,5.865-3.798,7.098c-0.067,0.634,0.898,3.198,2.897,7.696
	c2.032,4.563,3.365,7.047,3.998,7.446l4.598,0.799c2.698,0.233,4.432,0.233,5.197,0c0.833-0.267,2.865-1.916,6.099-4.946
	c3.197-2.999,5.479-4.664,6.847-4.998l2.155-0.624c3.807,2.338,7.554,3.867,11.237,4.572l6.396,0.199
	c1.166-0.267,3.832-1.766,7.996-4.498l7.496-5.098c5.098,1.1,10.096,1.717,14.992,1.85c5.599,0.134,9.264-0.467,10.995-1.799
	c0.767-0.601,3.031-3.365,6.797-8.297l7.221-9.934c0.867-0.197,1.806-0.416,2.825-0.661l9.994-2.299c0.732,0,3.35,0.683,7.847,2.049
	l6.997,2.05c0.8,0,2.299-0.768,4.498-2.3c2.031-1.433,3.28-2.499,3.748-3.198C520.083,138.832,520.233,136.648,520.1,132.951z"/>
</svg>
