<?xml version="1.0" encoding="utf-8"?>
<!-- Generator: Adobe Illustrator 16.0.0, SVG Export Plug-In . SVG Version: 6.00 Build 0)  -->
<!DOCTYPE svg PUBLIC "-//W3C//DTD SVG 1.1//EN" "http://www.w3.org/Graphics/SVG/1.1/DTD/svg11.dtd">
<svg version="1.1" id="图层_1" xmlns="http://www.w3.org/2000/svg" xmlns:xlink="http://www.w3.org/1999/xlink" x="0px" y="0px"
	 width="353px" height="360px" viewBox="0 0 353 360" enable-background="new 0 0 353 360" xml:space="preserve">
<path d="M350.153,28.543c-1.697-2.763-4.678-5.16-8.938-7.191c-3.828-1.797-6.991-2.63-9.488-2.497
	c-1.696-2.563-3.777-5.293-6.24-8.189c-3.163-3.762-5.942-6.542-8.34-8.339c-1.299-0.965-3.246-1.598-5.844-1.898l-6.74,0.2
	c-2.598,0.499-4.961,1.714-7.092,3.645c-1.697,1.565-3.596,3.962-5.693,7.191l-11.934,0.449c-3.629,0.933-6.643,2.797-9.039,5.593
	c-2.764,3.196-5.061,6.991-6.891,11.385c-1.564,3.795-2.348,6.825-2.348,9.088c0,2.763,0.582,5.244,1.748,7.44
	c0.965,1.831,2.197,3.229,3.695,4.195c-0.367,2.197-0.25,4.644,0.35,7.341c0.564,2.597,1.348,4.544,2.347,5.842
	c2.663,3.462,5.876,6.691,9.638,9.688c0.963,0.773,1.883,1.451,2.773,2.064c-0.477,2.215-1.098,4.537-1.875,6.974
	c-0.163,0.498-0.326,0.975-0.488,1.432c-0.956-1.643-2.59-3.285-4.904-4.928c-2.009-1.441-3.732-2.319-5.184-2.658
	c-1.555-8.4-3.34-13.842-5.354-16.318c-2.23-2.729-7.308-6.009-15.23-9.837c-7.923-3.795-13.316-5.576-16.18-5.343
	c-1.188,0.09-2.969,0.562-5.328,1.408c-1.502-2.674-2.842-4.715-4.01-6.103c-0.933-1.065-5.842-3.296-14.73-6.691
	c-7.725-2.93-12.701-4.694-14.932-5.293c-1.598-0.399-8.922,0.916-21.972,3.945c-11.053,2.563-18.027,4.295-20.923,5.193
	c-1.698,0.533-3.595,2.181-5.693,4.944c-0.968,1.227-1.936,2.632-2.904,4.21c-1.561-1.499-3.059-2.811-4.486-3.911
	c-3.03-2.397-5.443-3.479-7.241-3.246c-1.964,0.266-6.176,1.714-12.634,4.344c-7.99,3.263-14.615,6.608-19.875,10.038
	c-4.395,2.863-8.423,6.525-12.084,10.986c-2.53,3.063-4.111,5.36-4.744,6.891c-0.466,1.232-0.416,3.596,0.15,7.091l0.964,4.58
	c-0.665,0.198-1.298,0.424-1.863,0.713c-1.398,0.699-3.679,3.129-6.841,7.291c-2.621,3.413-5.219,7.216-7.795,11.369
	c-0.606-3.853-1.75-8.271-3.44-13.267c-1.63-4.761-3.244-8.75-4.843-11.977c1.083-0.804,1.953-1.638,2.596-2.504l8.29-0.649
	c4.794-0.833,8.24-2.281,10.337-4.345c2.863-2.73,4.578-6.358,5.144-10.886c0.533-4.461-0.167-8.339-2.098-11.635
	c-0.888-1.479-2.305-2.536-4.246-3.174c-0.716-0.873-1.675-1.843-2.895-2.917c-2.297-2.064-4.694-3.878-7.191-5.443
	c-0.18-0.112-0.341-0.201-0.515-0.305c0.124-1.035,0.007-1.938-0.384-2.691c-0.017-0.03-0.039-0.057-0.057-0.086l0.157-0.313
	c0.366-0.866,0.533-1.781,0.499-2.747c-0.066-1.198-0.732-2.763-1.997-4.694c-1.298-1.931-3.013-3.929-5.144-5.993l-4.495-4.544
	c-2.53-2.497-5.759-3.612-9.688-3.346c-3.562,0.266-6.841,1.548-9.837,3.845c-2.23-0.732-5.127-0.882-8.689-0.45
	c-4.095,0.5-7.707,1.698-10.836,3.595c-4.028,2.431-7.374,5.843-10.038,10.237c-2.563,4.194-4.111,8.622-4.644,13.283L1.298,46.17
	C0.433,52.629,0,56.99,0,59.254c-0.033,4.195,0.782,7.124,2.447,8.789c0.466,0.466,0.985,0.938,1.542,1.417
	c-2.677,6.939-3.693,19.291-3.04,37.084c0.632,17.378,2.13,27.915,4.494,31.61c2.83,4.395,6.841,8.023,12.035,10.886
	c5.616,3.071,11.232,4.239,16.848,3.507c1.667,3.474,4.612,6.454,8.869,8.927c3.108,1.795,5.875,2.833,8.315,3.141
	c-0.63,3.983-1.255,8.705-1.873,14.188l-0.399,3.595c-0.267,1.563,1.614,4.479,5.643,8.738c2.796,2.93,5.227,5.228,7.291,6.893
	c0.5,0.406,1.494,0.787,2.943,1.142l-2.494,1.755c-2.164,1.631-3.246,2.963-3.246,3.994c0,2.379,0.4,7.57,1.197,15.559
	c-5.019,3.201-10.095,8.104-15.229,14.754c-6.458,8.355-11.02,17.127-13.683,26.315c-1.065,3.695-0.999,8.706,0.2,15.03
	c1.165,6.126,3.179,12.418,6.042,18.877c-5.127,2.563-9.289,5.543-12.484,8.938c-2.709,2.858-4.225,5.461-4.564,7.813
	c-0.974,0.539-2.582,1.729-4.824,3.571c-2.463,2.031-4.91,4.179-7.34,6.441c-1.598,1.498-2.23,2.613-1.897,3.346
	c0.333,0.832,1.731,1.1,4.194,0.8l9.204-1.368c-2.811,2.725-5.161,5.559-7.006,8.509c-0.965,1.563-1.198,2.613-0.699,3.146
	c0.466,0.533,1.715,0.55,3.746,0.051c6.192-1.398,11.085-2.862,14.681-4.395c-1.897,2.496-3.579,5.01-5.043,7.539
	c-1.032,1.799-1.349,2.996-0.949,3.596l3.646,0.201c3.695-0.934,7.424-2.215,11.186-3.846c1.136-0.501,2.088-0.957,2.896-1.377
	c-1.398,2.305-2.648,4.659-3.744,7.069c-0.899,1.997-1.115,3.245-0.649,3.745c0.433,0.498,1.648,0.398,3.646-0.301l10.287-3.994
	c3.943-1.678,6.557-3.015,7.846-4.012l0.693,0.018c0.632-0.033,1.182-0.233,1.648-0.6c3.196-2.631,9.671-6.427,19.425-11.387
	c9.055-4.628,14.931-7.309,17.627-8.04c3.637-0.993,6.29-2.872,7.984-5.614c4.479-1.767,8.56-3.729,12.19-5.92
	c4.328-2.597,6.242-4.429,5.743-5.492c-0.6-1.267-3.712-2.58-9.338-3.945c-4.194-1.014-7.253-1.584-9.186-1.717
	c-1.338-2.953-2.093-5.234-2.25-6.822c-0.299-2.697,0.466-5.145,2.297-7.342c1.026-1.227,2.523-2.508,4.49-3.848
	c0.218,0.116,0.435,0.237,0.654,0.354c7.657,4.094,12.75,6.092,15.28,5.992c3.177-0.118,9.318-1.354,18.403-3.697l0.273,0.352
	c1.265,1.564,2.114,2.413,2.547,2.547c4.228,1.433,11.951,2.563,23.17,3.396c11.918,0.866,19.625,0.633,23.122-0.698
	c4.682-1.82,12.389-5.742,23.104-11.755c0.26,0.205,0.518,0.412,0.766,0.619c3.563,2.963,6.574,6.592,9.037,10.886
	c-0.332,0.967-1.431,2.432-3.295,4.395l-1.932,2.139c-2.836,0.887-6,2.285-9.504,4.204c-4.195,2.264-6.408,4.012-6.643,5.243
	c-0.134,0.565,0.051,1.064,0.551,1.498l6.49,3.746l3.794,2.058c0.486,0.925,1.162,1.789,2.05,2.586
	c1.696,1.53,4.36,2.996,7.989,4.396c5.359,1.996,12.851,5.709,22.472,11.135c10.985,6.191,17.859,10.953,20.623,14.281
	c0.326,0.389,0.736,0.698,1.213,0.948c0.852,1.39,2.447,3.229,4.83,5.544c3.328,3.264,6.357,5.727,9.088,7.391
	c2.098,1.3,3.412,1.849,3.944,1.648c0.666-0.301,0.716-2.914,0.15-7.841c-0.458-4.118-1.22-7.767-2.277-10.952l3.449-2.102
	c2.758,1.152,6.524,2.209,11.313,3.166c4.594,0.933,7.872,1.365,9.837,1.299c1.798-0.1,2.796-0.416,2.995-0.949
	c0.166-0.466-0.184-1.581-1.049-3.346c-1.165-2.496-3.694-5.742-7.59-9.737l-1.299-1.298l9.338,0.499
	c6.759,0.3,10.837,0.366,12.234,0.2c1.465-0.168,2.196-0.449,2.196-0.85c0-0.399-0.799-1.433-2.396-3.097
	c-2.597-2.696-5.811-5.177-9.638-7.44c-0.929-0.554-1.789-1.027-2.598-1.438l8.738-0.609c2.664-0.399,4.162-0.865,4.495-1.398
	c0.166-0.266,0.199-0.532,0.1-0.799c-1.064-2.696-4.578-5.076-10.537-7.142c-4.119-1.457-7.283-2.245-9.517-2.382
	c-0.689-0.843-1.425-1.68-2.218-2.512l-5.992-5.645c3.828-5.525,5.742-11.135,5.742-16.828c0-4.262-0.533-8.256-1.598-11.983
	c-1.398-4.761-3.847-9.921-7.342-15.48c-1.632-2.63-3.812-6.375-6.542-11.235l-2.808-5.092c0.688-1.847,1.424-3.955,2.208-6.344
	l1.149-3.893l11.035-4.348c1.73-0.998,4.645-4.345,8.738-10.037c4.161-5.76,6.958-10.354,8.39-13.783
	c1.231-2.896,1.299-9.354,0.199-19.375l-2.446-17.178c-0.6-3.895-1.798-6.558-3.596-7.99l-3.546-3.096l-0.802-0.745
	c6.6-2.427,10.918-5.506,12.937-9.243l0.999-1.748c5.394-9.621,9.255-18.46,11.585-26.516c4.109-14.285,4.29-27.436,0.567-39.461
	c1.99-1.75,3.644-3.737,4.926-5.979l3.495-7.69l1.897-4.444c0.832-1.897,1.516-3.279,2.048-4.145
	c2.297-3.629,3.828-6.658,4.594-9.089C352.284,35.135,352.018,31.539,350.153,28.543z"/>
</svg>
