<?xml version="1.0" encoding="utf-8"?>
<!-- Generator: Adobe Illustrator 16.0.0, SVG Export Plug-In . SVG Version: 6.00 Build 0)  -->
<!DOCTYPE svg PUBLIC "-//W3C//DTD SVG 1.1//EN" "http://www.w3.org/Graphics/SVG/1.1/DTD/svg11.dtd">
<svg version="1.1" id="图层_1" xmlns="http://www.w3.org/2000/svg" xmlns:xlink="http://www.w3.org/1999/xlink" x="0px" y="0px"
	 width="298px" height="288px" viewBox="0 0 298 288" enable-background="new 0 0 298 288" xml:space="preserve">
<path d="M296.6,74.35l-2.898,0.4c-2.067,0.6-3.4,1.45-4,2.55c-0.635,1.067-0.817,2.833-0.551,5.3c0.101,1.1-0.166,2.133-0.801,3.1
	c-0.6,0.966-1.3,1.533-2.1,1.7c-0.9,0.267-1.55-0.117-1.95-1.15c-0.2-0.467-0.3-1.083-0.3-1.85l0.05-1.85c0-1.033-0.333-2.15-1-3.35
	c-0.466-0.9-0.483-1.717-0.05-2.45c1.1-1.934,2.45-3.133,4.05-3.6c1.067-0.333,1.65-0.617,1.75-0.85
	c0.134-0.233-0.25-0.55-1.149-0.95c-1.733-0.767-3.051-0.95-3.949-0.55c-0.602,0.267-1.567,1.167-2.9,2.7
	c-0.6,0.7-1.1,0.917-1.5,0.65c-0.5-0.3-0.6-1.25-0.3-2.85c0.601-2.233,0.867-3.5,0.8-3.8c-0.066-0.267-0.884,0.017-2.449,0.85
	c-2.033,1.167-3.301,1.917-3.801,2.25c-1.333,0.933-2.115,1.75-2.35,2.45c-0.167,0.667,0.1,1.833,0.8,3.5
	c0.767,1.733,1.117,2.817,1.05,3.25c-0.1,0.8-0.384,1.6-0.85,2.4c-0.467,0.833-1,1.417-1.602,1.75c-0.865,0.5-1.832,0.633-2.898,0.4
	c-1.102-0.233-1.817-0.75-2.15-1.55c-0.566-1.333-0.365-2.767,0.602-4.3c0.6-1,0.75-1.566,0.449-1.7
	c-0.267-0.133-1.017,0.017-2.25,0.45c-1.267,0.434-2.218,1.083-2.851,1.95c-0.533,0.767-0.883,1.816-1.05,3.15
	c-0.434,3.267-1.534,5.433-3.301,6.5c-2.5,1.5-5.018,1.583-7.551,0.25c-2.3-1.167-4.766-3.583-7.398-7.25
	c-3.467-4.833-6.482-7.983-9.051-9.45c-1.834-1-4.649-1.6-8.449-1.8c-3.667-0.2-6.366,0-8.102,0.6
	c-2.065,0.733-3.582,2.267-4.55,4.6c-0.767,1.833-1.833,3.017-3.2,3.55c-1.332,0.533-2.016,0.3-2.05-0.7l-0.149-1.9
	c-0.065-0.434-0.268-0.767-0.601-1c-0.1-0.066-0.45-0.233-1.05-0.5c-0.4-0.2-0.6-0.434-0.6-0.7c0-0.8,0.283-1.767,0.85-2.9l1.2-2.95
	c-0.034-0.367-0.65-0.2-1.851,0.5c-3.601,2.066-5.283,5.75-5.051,11.05c0.102,1.833-0.134,3.167-0.699,4
	c-0.468,0.733-1,0.9-1.601,0.5c-0.533-0.3-0.851-1.083-0.95-2.35c-0.1-1.3,0.067-2.617,0.5-3.95c0.5-1.567,0.667-2.417,0.5-2.55
	c-0.1-0.1-0.583,0.2-1.449,0.9c-1.968,1.567-3.218,3.784-3.75,6.65c-0.468,2.533-0.468,6.1,0,10.7c0.334,3.2-0.232,6.5-1.699,9.9
	c-1.363,3.12-3.256,5.767-5.664,7.95c-0.535-0.437-1.067-0.862-1.594-1.262c1.231-1.153,1.674-2.432,1.308-3.838
	c-0.468-1.667-2.116-3.6-4.95-5.8c-1.3-1-1.916-1.883-1.85-2.65c0.065-0.967,1.199-1.85,3.398-2.65c0.9-0.3,1.301-0.533,1.2-0.7
	l-1.399-0.65l-4.301-0.15c-1.3,0.467-1.949,1.2-1.949,2.2c0,1.467-0.468,2.5-1.399,3.1c-0.833,0.566-1.5,0.633-2,0.2
	c-0.9-0.767-1.284-1.65-1.15-2.65c0.134-1.167,1-2.2,2.601-3.1l1.199-0.95c0.066-0.267-0.231-0.517-0.898-0.75
	c-1.4-0.467-2.75-0.45-4.051,0.05c-0.934,0.367-1.949,1.05-3.051,2.05l-1.75,1.45c-0.633,0.434-1.133,0.6-1.5,0.5
	c-0.666-0.2-1.25-1.1-1.75-2.7c-0.533-1.8-1.315-2.9-2.35-3.3c-1.9-0.733-4.117-0.383-6.65,1.05c-0.8,0.433-1.5,1.1-2.1,2l-1.2,2.1
	c-0.9,1.6-1.65,2.167-2.25,1.7c-0.4-0.3-0.3-1.15,0.3-2.55c0.6-1.4,1.367-2.483,2.3-3.25c0.934-0.733,1.184-1.633,0.75-2.7
	c-0.4-1-1.317-1.95-2.75-2.85c-1.167-0.767-1.833-1.133-2-1.1c-0.233,0-0.2,0.534,0.1,1.6c0.433,1.434,0.45,2.617,0.05,3.55
	c-0.333,0.8-0.833,1.167-1.5,1.1l-3.45-0.15c-1.5,0.067-2.567,0.4-3.2,1c-0.8,0.8-1.017,2.434-0.65,4.9
	c0.4,2.467,0.333,3.967-0.2,4.5c-0.6,0.634-1.517,0.85-2.75,0.65c-1.167-0.167-2.25-0.6-3.25-1.3c-0.966-0.7-2.25-0.966-3.85-0.8
	c-1.567,0.167-1.583,0.733-0.05,1.7c0.6,0.4,1.033,1,1.3,1.8c0.233,0.733,0.267,1.333,0.1,1.8c-0.433,1.133-1.3,1.934-2.6,2.4
	c-1.233,0.467-1.983,0.4-2.25-0.2c-0.167-0.3-0.017-0.883,0.45-1.75c0.434-0.833,0.917-1.467,1.45-1.9
	c0.933-0.733,0.75-0.983-0.55-0.75L122,103.1c-0.867-0.033-1.35-0.167-1.45-0.4c-0.066-0.167,0.034-0.883,0.3-2.15
	c0.3-1.4,0.217-2.883-0.25-4.45l-0.6-1.55c-0.167-0.033-0.483,0.434-0.95,1.4c-0.466,1-1.767,2.8-3.9,5.4
	c-1.633,1.933-2.35,3.583-2.15,4.95c0.1,0.833,0.583,1.65,1.45,2.45c0.433,0.367,0.383,0.733-0.15,1.1c-0.4,0.3-0.9,0.483-1.5,0.55
	c-1.6,0.1-2.85-0.316-3.75-1.25c-0.633-0.6-0.833-1.367-0.6-2.3c0.167-0.7,0.133-1.317-0.1-1.85l-0.95-1.65
	c-0.333-0.7-0.217-1.667,0.35-2.9c0.5-1.1,0.667-1.717,0.5-1.85c-0.167-0.133-0.9,0.133-2.2,0.8c-1.767,0.9-2.833,2.1-3.2,3.6
	l-0.8,4.15c-0.4,0.934-0.983,1.284-1.75,1.05c-0.9-0.3-1.883-1.45-2.95-3.45c-0.533-0.933-0.7-1.683-0.5-2.25
	c0.1-0.333,0.5-0.783,1.2-1.35l1.5-1.1c0.5-0.533,0.567-1.15,0.2-1.85c-0.5-1.034-0.833-2.2-1-3.5
	c-0.167-1.367-0.083-2.483,0.25-3.35c0.467-1.2,0.6-1.867,0.4-2c-0.133-0.133-0.7,0.033-1.7,0.5c-2.1,0.967-3.184,2.267-3.25,3.9
	l0.05,5.5c-0.2,1.167-0.583,2.083-1.15,2.75c-0.533,0.6-1.1,0.867-1.7,0.8c-0.566-0.066-0.95-0.417-1.15-1.05
	c-0.133-0.5-0.167-1.05-0.1-1.65c0.1-0.833,0-1.333-0.3-1.5l-1.2-0.2c-0.6-0.1-0.95-0.267-1.05-0.5
	c-0.067-0.167-0.017-0.466,0.15-0.9l1.6-3.15c0.633-1.333,0.816-2.217,0.55-2.65c-0.233-0.434-1.167-0.65-2.8-0.65H83.3
	c-0.566-0.066-0.917-0.533-1.05-1.4c-0.1-0.5-0.05-0.983,0.15-1.45l0.8-1.35c0.466-0.733,0.183-1.283-0.85-1.65l-3.6-1.75
	c-1.6-0.9-2.317-1.583-2.15-2.05c0.133-0.367,0.816-0.267,2.05,0.3c2.033,0.866,3.4,1.3,4.1,1.3c1.133-0.033,2.2-0.833,3.2-2.4
	l2-2.65l1.6-1.35l-2.65-0.7c-0.867-0.167-2.3,0.034-4.3,0.6l-1.65,0.4c-0.467,0-0.917-0.3-1.35-0.9
	c-1.131-1.583-1.268-3.275-0.433-5.074L88.85,69.3c4.833-1.267,8.683-3.95,11.55-8.05l1.35-2.4c-0.1-0.167-0.933,0.05-2.5,0.65
	c-1.433,0.566-3.067,1.017-4.9,1.35L89.5,61.2c7.067-1.534,13.383-4.567,18.95-9.1c5.1-4.167,9.033-9.083,11.8-14.75
	c1.967-4.034,3.083-8.684,3.35-13.95c0.267-5.367-0.417-10.216-2.05-14.55c-0.7-1.833-1.2-2.733-1.5-2.7
	c-0.3,0-0.583,0.95-0.85,2.85c-0.267,1.767-0.667,3.066-1.2,3.9c-0.2-3.333-0.933-6.333-2.2-9c-1.2-2.6-1.983-3.833-2.35-3.7
	c-0.333,0.133-0.5,1.667-0.5,4.6c0,3.167-0.5,5.784-1.5,7.85c-1.1,2.333-2.967,4.317-5.6,5.95c0.433-1.633,0.55-3.233,0.35-4.8
	c-0.2-1.533-0.65-2.75-1.35-3.65c-0.7-0.933-1.133-1.367-1.3-1.3c-0.133,0.033-0.283,0.617-0.45,1.75
	c-0.233,1.933-1.017,3.767-2.35,5.5c-1.6,2.066-3.75,3.583-6.45,4.55c-2.933,1.067-7.667,0.883-14.2-0.55l-14.05-3.05
	c-5.533-0.533-10.867,0.567-16,3.3c-4.466,2.367-7.917,5.417-10.35,9.15c-0.067-0.6-0.034-1.434,0.1-2.5
	c0.267-2.066,0.95-4.25,2.05-6.55c0.7-1.434,0.867-2.25,0.5-2.45c-0.4-0.2-1.517,0.283-3.35,1.45
	c-7.867,4.933-14.433,12.017-19.7,21.25c-3.773,6.578-6.019,12.674-6.741,18.291C9.936,57.183,7.475,55.737,5.2,54.7
	c-2.467-1.134-3.983-1.483-4.55-1.05c-1.367,1.1-1.017,4.833,1.05,11.2c2.269,6.905,5.651,12.57,10.127,17.016
	c-1.423,3.181-2.254,5.765-2.478,7.734c-0.202,1.615,0,3.367,0.593,5.252c0.122,5.282,1.014,8.987,2.67,11.127
	c-0.058,1.119-0.178,2.292-0.363,3.521l-0.85,5c-0.6,4.7-0.733,8.233-0.4,10.6c0.367,2.5,1.383,4.583,3.05,6.25
	c1.8,1.833,3.733,3.466,5.8,4.9c1.3,0.9,2.617,1.316,3.95,1.25c1.133-0.066,2.633-0.533,4.5-1.4l6.2-2.6
	c1.467-0.6,2.417-1.35,2.85-2.25c2.598-5.197,5.836-9.302,9.701-12.338c3.174,8.041,5.414,17.46,6.699,28.288l1.2,11.75
	c0.433,3.966,0.933,6.917,1.5,8.85c1.925,6.462,4.88,11.876,8.849,16.261c2.095,3.791,4.244,7.877,6.451,12.289
	c2.529,5.158,4.399,9.328,5.611,12.512c-0.1,1.828-0.3,3.896-0.611,6.238c-0.6,4.7-1.45,9.334-2.55,13.9
	c-0.367,1.467-1.1,5.334-2.2,11.6c-1.1,5.867-2.067,9.484-2.9,10.852c-2.367,3.898-3.583,6.933-3.65,9.1
	c-0.034,1.01,0.231,2.031,0.792,3.066c-1.229,1.828-2.203,3.783-2.893,5.884c-0.733,2.2-1.067,4.185-1,5.95
	c0.1,2.199,0.917,4.55,2.45,7.05c1.6,2.601,3.217,4.084,4.85,4.45c1.934,0.433,4.917-0.616,8.95-3.15
	c4.233-2.699,6.683-5.398,7.35-8.1c0.046-0.182,0.067-0.393,0.099-0.592c1.091,0.817,2.933,0.841,5.551,0.041
	c3.767-1.166,7.533-3.866,11.3-8.101c2.333-2.651,1.947-7.21-1.144-13.661c1.344-0.979,2.117-2.008,2.293-3.089
	c0.3-1.667-0.183-4.233-1.45-7.7c-1.533-4.365-2.417-7.3-2.65-8.8l-2.018-12.854c0.021-0.034,0.048-0.057,0.067-0.096l0.8-2.199
	c0.467-1.268,1.133-2,2-2.199c0.8-0.2,1.333,0.134,1.6,1c0.333,1.033,0.983,1.884,1.95,2.55c0.933,0.633,2,0.983,3.2,1.05l2.55-0.3
	c0.133-0.233-0.217-0.783-1.05-1.649c-3-3.166-2.4-4.685,1.8-4.551l2.2,0.352c0.8,0,1.317-0.269,1.55-0.801l0.35-2.351
	c0.066-1.435,1-1.733,2.8-0.899c2.567,1.199,4.45,1.633,5.65,1.301c0.633-0.2,1.2-1.019,1.7-2.45c0.233-0.634,1.133-1.15,2.7-1.55
	c1.967-0.467,3.167-0.852,3.6-1.15c1.133-0.768,1.684-1.217,1.65-1.35c-0.033-0.2-0.75-0.367-2.15-0.5c-1.833-0.2-3-0.783-3.5-1.75
	c-0.8-1.769-2.633-2.4-5.5-1.9c0.533-1.1,1.333-1.65,2.4-1.65l3.95,0.5l4.25,0.2c1.367-0.233,2.483-1.1,3.35-2.6l1.25-2.351l0.7-0.5
	l0.85,0.199c1.7,0.7,3.15,0.967,4.35,0.801c0.199-0.027,0.385-0.084,0.568-0.146c0.063,3.291-0.24,7.281-0.918,11.997
	c-0.667,4.767-1.383,8.183-2.15,10.25c-0.467,1.233-1.6,3.233-3.4,6l-3.35,5.1c-1.398,2.604-1.902,4.683-1.542,6.249
	c-1.437,1.565-2.809,3.355-4.108,5.401c-1.833,2.899-2.617,5-2.35,6.3c0.167,0.834,0.767,1.633,1.8,2.4
	c1.034,0.8,2.35,1.416,3.95,1.85c2.7,0.732,5.717,0.95,9.05,0.65c3.1-0.269,5.567-0.867,7.4-1.801
	c0.933-0.468,1.483-1.566,1.65-3.301c0.182-1.729-0.027-4.294-0.618-7.679c1.806-0.856,3.011-2.185,3.567-4.021
	c0.2-0.634,0.333-1.685,0.4-3.149l0.25-4.4c0.398-6.866,1.35-12.3,2.85-16.3c4.645-11.953,8.104-19.827,10.385-23.631l0.416,0.081
	l2,0.85c0.699,0.4,1.35,1.05,1.949,1.95c0.434,0.633,1.583,0.867,3.45,0.7l2.946-0.617c2.608,1.888,4.729,3.543,6.354,4.967
	c3.7,3.233,5.467,5.767,5.301,7.601l-0.301,9.949c-0.398,7.033-1.134,11.5-2.199,13.4c-1.566,2.732-2.533,5.768-2.9,9.1
	c-0.332,2.801-0.217,5.217,0.351,7.25c0.003,0.01,0.011,0.017,0.013,0.025c-1.354,1.803-2.533,3.563-3.513,5.275
	c-1.601,2.832-2.45,5.199-2.55,7.1c-0.033,1.533,0.184,2.6,0.65,3.2c0.731,0.966,2.315,1.6,4.75,1.899
	c3.231,0.366,6.699,0.301,10.398-0.199c4.667-0.602,7.482-1.769,8.45-3.5c0.935-1.668,1.351-3.967,1.25-6.9
	c-0.062-2.204-0.411-4.499-1.022-6.876c0.428-0.522,0.803-1.396,1.123-2.624c0.467-1.666,0.633-3.232,0.5-4.7L202.9,230.9
	c-0.435-2.033-0.617-3.734-0.551-5.102c0.233-4.134,1.565-9.833,4-17.1l4.075-11.665l2.774-0.085c1.566,0.865,3.699,1.05,6.398,0.55
	c1.033-0.2,1.566-0.435,1.602-0.7c0-0.115-0.102-0.27-0.272-0.449h0.022c-0.01-0.002-0.02-0.008-0.03-0.009
	c-0.222-0.231-0.569-0.508-1.069-0.842c-1.301-0.867-1.685-1.733-1.149-2.601c0.399-0.633,1.366-0.949,2.899-0.949
	c1.532,0.033,2.584,0.365,3.149,1c1.367,1.634,3.517,2.466,6.45,2.5c3.333,0.033,6.017-1.233,8.05-3.801
	c1.065-1.301,1.383-1.983,0.95-2.051l-2.852,0.65c-2.065,0.533-3.467,0.518-4.199-0.05c-0.699-0.5-1.116-1.167-1.25-2
	c-0.166-0.935,0.101-1.75,0.801-2.45c0.634-0.6,1.816-0.684,3.55-0.25l2.95,0.65c1.333,0.166,2.466,0.016,3.398-0.45
	c0.734-0.366,1.352-1,1.852-1.9c0.433-0.833,0.865-2.032,1.3-3.6l0.7-2.95c0.333-1.3,0.716-2.25,1.148-2.85
	c0.435-0.635,1.234-1.283,2.4-1.95c0.367-0.233,1.4-0.767,3.1-1.601c1.566-0.767,2.352-1.316,2.352-1.649s-0.75-0.601-2.25-0.8
	c-2.034-0.301-3.301-0.668-3.801-1.102c-0.532-0.466-0.768-0.966-0.699-1.5c0.1-0.6,0.55-1.134,1.35-1.6
	c1.7-1,2.733-1.733,3.102-2.2c0.633-0.867,0.865-2.283,0.699-4.25c-0.101-1.101,0.116-2.315,0.649-3.649
	c0.565-1.5,1.334-2.584,2.3-3.25c1.534-1.066,2.2-1.699,2-1.899l-3-0.15c-2,0.101-3.583,0.7-4.75,1.8
	c-0.865,0.769-1.85,2.25-2.949,4.45c-0.699,1.366-1.801,2-3.301,1.9c-1.134-0.034-2.232-0.417-3.3-1.15c-1.3-0.933-2.3-1.216-3-0.85
	c-0.533,0.233-1.334,1.183-2.399,2.85c-0.867,1.333-1.649,1.935-2.351,1.8c-0.666-0.166-0.916-0.832-0.75-2
	c0.3-1.865,0.185-3.1-0.351-3.699c-0.532-0.633-1.801-0.851-3.801-0.649c-0.766,0.065-1.582,0.601-2.449,1.601l-2.101,3
	c-1.3,2.032-2.3,3.166-3,3.399c-1.267,0.5-2.101,0.334-2.5-0.5c-0.366-0.8-0.3-2.065,0.2-3.8c0.268-0.866,0.084-1.4-0.551-1.602
	l-1.6-0.05c-1.301-0.032-1.982-0.433-2.051-1.2c-0.1-0.699,0.301-1.416,1.2-2.148c1.8-1.434,2.883-2.567,3.25-3.4
	c0.532-1.167,0.685-1.8,0.45-1.898c-0.233-0.102-0.784,0.199-1.65,0.898c-0.732,0.635-2.1,1.217-4.1,1.75l-3.75,1.102
	c-1.534,0.898-2.75,3.516-3.65,7.85c-0.232,1.2-0.634,1.768-1.199,1.7c-0.435-0.067-0.834-0.317-1.199-0.75
	c-0.367-0.435-0.533-0.884-0.5-1.351c0.1-0.566,0.049-0.982-0.15-1.25c-0.166-0.166-0.45-0.301-0.85-0.399
	c-0.435-0.101-0.867-0.4-1.301-0.9c-0.435-0.532-0.718-1.134-0.851-1.8c-0.233-1.232-0.634-1.232-1.2,0l-1.35,2.107L199.1,145.3
	c0.242-3.058,0.342-5.729,0.313-8.051c3.123,0.958,7.063,0.074,11.838-2.699c1.233-0.733,2.399-0.883,3.5-0.45
	c0.565,0.233,1.084,0.883,1.55,1.95l1.102,3.25c0.5,1.434,1.633,2.333,3.398,2.7l4.551-0.3c1.532-0.467,2.282-0.817,2.25-1.05
	c-0.033-0.167-0.617-0.517-1.75-1.05c-1.166-0.567-1.916-1.2-2.25-1.9c-0.435-0.934-0.399-1.75,0.101-2.45
	c0.565-0.867,1.733-0.7,3.5,0.5c0.866,0.6,1.8,1.083,2.8,1.45c1.133,0.433,2.018,0.6,2.65,0.5c0.699-0.1,1.283-0.417,1.75-0.95
	l1.25-2l1.35-2.6c0.666-1.133,1.416-2.05,2.25-2.75c0.867-0.7,1.883-0.867,3.051-0.5l3.35,1.75c1.699,1.067,3.033,1.784,4,2.15
	c1.634,0.6,3.25,0.75,4.851,0.45c1.8-0.333,3.05-1,3.75-2c0.334-0.434,0.666-1.35,1-2.75c0.166-0.633,0.649-1.667,1.45-3.1
	c0.699-1.167,0.949-1.783,0.75-1.85l-2.301,0.7c-3.199,1.2-5.649,1.5-7.35,0.9c-0.467-0.167-0.768-0.4-0.9-0.7v-0.25
	c0.199-0.367,1.584-0.833,4.15-1.4l2.85-0.35l2.699-0.55c0.867-0.367,1.584-1,2.15-1.9l1.35-2.55c1.334-2.534,2.385-4.017,3.15-4.45
	c0.934-0.533,2.801-0.55,5.6-0.05l6.602,0.45c2.434-0.466,4.384-1.983,5.85-4.55l1.2-2.3l-1.899-0.05
	c-3.066,0.4-4.916-0.617-5.551-3.05c-0.466-1.9-0.315-3.517,0.45-4.85c1.2-2.167,4.233-3.633,9.101-4.4
	c1.199-0.233,2.367-0.6,3.5-1.1c1.233-0.6,2.084-1.233,2.551-1.9c0.8-1.133,0.898-3.233,0.3-6.3c-0.634-3.133-0.435-5.9,0.601-8.3
	L296.6,74.35z M240.777,184.762c-0.582,0.16-1.189,0.23-1.827,0.188l-0.386-0.068L240.777,184.762z"/>
</svg>
