<?xml version="1.0" encoding="utf-8"?>
<!-- Generator: Adobe Illustrator 16.0.0, SVG Export Plug-In . SVG Version: 6.00 Build 0)  -->
<!DOCTYPE svg PUBLIC "-//W3C//DTD SVG 1.1//EN" "http://www.w3.org/Graphics/SVG/1.1/DTD/svg11.dtd">
<svg version="1.1" id="图层_1" xmlns="http://www.w3.org/2000/svg" xmlns:xlink="http://www.w3.org/1999/xlink" x="0px" y="0px"
	 width="394px" height="369px" viewBox="0 0 394 369" enable-background="new 0 0 394 369" xml:space="preserve">
<path d="M392.597,170.354c-0.133-0.4-1.216-0.184-3.249,0.65c-2.166,0.899-3.898,1.016-5.197,0.35c-0.567-0.3-1.417-0.3-2.551,0
	l-2.898,0.9c-3.499,0.833-5.281,0.417-5.35-1.25c-0.065-1.4,0.667-2.7,2.2-3.899c1.934-1.5,2.915-2.499,2.949-2.999
	c0.066-0.533-0.934-0.733-3-0.6c-2.433,0.133-5.031,1.566-7.798,4.299c-1.333,1.366-2.865,1.483-4.599,0.35
	c-1.801-1.133-2.899-3.083-3.3-5.848c-0.267-2.033,0.7-3.799,2.899-5.299c2.999-2,4.582-3.782,4.748-5.349
	c0.167-1.733-1.101-4.548-3.799-8.448c-0.833-1.266-1.149-3.049-0.949-5.348c0.1-1.1-0.185-1.95-0.851-2.549l-2.3-1.35
	c-2.333-1.267-3.633-2.566-3.898-3.899c-0.268-1.4,0.667-2.566,2.8-3.499c2.231-0.967,3.332-1.633,3.299-2
	c0-0.3-0.981-0.617-2.949-0.95c-1.267-0.233-2.698,0.066-4.299,0.899c-2.166,1.333-4.147,2.433-5.948,3.299
	c-0.933,0.633-1.865,1.016-2.799,1.149c-1.898,0.267-2.866-0.833-2.898-3.299c-0.066-1.267-0.2-2.166-0.4-2.699
	c-0.333-0.8,0.117-1.6,1.35-2.399l3.301-1.7c0.633-0.333,1.05-0.8,1.249-1.399l0.149-1.35l0.05-0.85c0.033-0.3,0.2-0.5,0.5-0.6
	c0.733-0.267,2.232,0.466,4.499,2.199c2.166,1.7,3.767,2.266,4.8,1.7c1.031-0.533,1.666-1.983,1.898-4.349
	c0.232-2.366,0.434-3.583,0.6-3.649c0.533-0.233,1.767,0.883,3.699,3.349c1.999,2.5,3.465,4.832,4.398,6.998
	c0.666,1.533,1.133,2.3,1.398,2.3c0.4,0.033,0.768-1.2,1.101-3.699c0.367-2.833,0.134-5.082-0.699-6.748
	c-0.434-0.9-1.733-2.516-3.899-4.849c-0.865-1-1.383-1.733-1.55-2.2c-0.231-0.633,0.018-1.083,0.75-1.35
	c2.434-0.866,4.032-2.033,4.799-3.499c0.768-1.533-0.1-2.383-2.6-2.549l-1.999-0.15l-1.55-0.4c-1.033-1.5-0.316-2.816,2.148-3.949
	c2.499-1.167,4.082-3.283,4.749-6.349c0.5-2.433,0.518-3.715,0.051-3.849c-0.399-0.133-1.5,0.65-3.3,2.349l-3.549,2.899
	c-1.367,0.966-2.45,1.516-3.25,1.649l-3.448,0.05l-5.448-0.85c-2.732-0.433-5.898,0.233-9.497,2
	c-3.799,1.899-7.031,4.599-9.697,8.098c-0.967,1.233-1.983,2.1-3.05,2.6c-1.434,0.633-2.299,0.133-2.599-1.5
	c-0.367-1.866-0.866-3.166-1.5-3.899c-0.533-0.567-1.749-1.316-3.648-2.25c-1.366-0.667-0.8-1.899,1.699-3.699l3.349-2.649
	c0.102-0.366-0.898-0.55-2.999-0.55c-3.231,0-6.182,1.083-8.848,3.25c-2.332,1.866-4.248,4.315-5.748,7.348
	c-2.499,5.099-4.766,7.598-6.799,7.498c-1.898-0.066-4.766-2.533-8.598-7.398c-0.967-1.233-2.35-2.199-4.148-2.899
	c-2.1-0.866-4.383-1.133-6.848-0.799c-4.933,0.667-9.664,2.616-14.197,5.848c-5.266,3.766-8.996,8.581-11.196,14.446
	c-2.532,6.765-4.765,11.646-6.698,14.646c-1.748,2.675-3.507,4.269-5.275,4.818c-0.35-0.412-0.648-0.789-0.875-1.111
	c-0.188-0.798-0.241-1.729-0.147-2.807c0.168-1.666,0.617-3.083,1.351-4.249l2.199-3.999c0.434-1.233,0.283-2.283-0.449-3.149
	c-1.399-1.633-2.133-3.066-2.199-4.299c-0.1-1.566,0.75-3.149,2.549-4.749c0.602-0.533,1.533-0.983,2.8-1.35l3.05-0.75
	c1.732-0.467,2.982-0.933,3.748-1.4c1.233-0.733,2.533-2.016,3.899-3.849c0.7-0.966,0.983-1.533,0.85-1.699
	c-0.134-0.233-0.85-0.133-2.149,0.3c-2.032,0.7-4.064,1.2-6.099,1.5c-2.333,0.367-3.632,0.267-3.899-0.3
	c-0.398-0.9,0.084-1.7,1.451-2.399c0.633-0.333,0.916-0.6,0.851-0.8c-0.034-0.2-0.399-0.417-1.101-0.65c-2.1-0.7-3.767-0.583-5,0.35
	c-0.731,0.566-1.549,1.75-2.449,3.549c-0.666,1.3-1.266,2.033-1.799,2.2c-0.532,0.167-1.633-0.05-3.299-0.65l-0.351-0.15l-2.649,0.1
	c-1.133,0.8-1.832,2.149-2.1,4.049l-0.25,1.75l-1.148,0.1l-1.6-1.149l-1.301-1.95l-2.199-3.599c-1.1-1.2-2.582-1.583-4.449-1.15
	c-1.398,0.3-2.865,0.933-4.398,1.899l-3.098,2.049c-2.101,1.4-3.834,1.517-5.199,0.35l-1.551-1.649c-0.498-0.7-0.865-1.083-1.1-1.15
	l-2.85,0.15l-2.599-0.15c-0.134-0.3-0.101-0.8,0.101-1.5l0.799-1.799l0.75-1.75c-0.1-0.1-0.666-0.1-1.699,0
	c-2.832,0.3-5.1,2.333-6.798,6.098l-1,1.7l-0.45-0.15l-1.85-1.1l-3.249-0.15c-1.267,0.433-2.333,1.3-3.199,2.6l-1.5,2.849
	c-0.133,0.233-0.433,0.083-0.9-0.45c-0.767-0.866-1.816-1.35-3.149-1.449c-1.7-0.167-2.783-0.434-3.249-0.8l-0.4-0.55v-0.05
	c0-0.466,0.35-1.05,1.049-1.75c1.233-1.133,1.733-1.916,1.5-2.349l-0.7-0.35c-1.366-0.066-2.566,0.267-3.599,1
	c-0.8,0.566-1.7,1.533-2.7,2.899l-1.799,2.699c-0.8,1.133-1.583,1.983-2.35,2.549c-1.333,1.033-2.333,0.983-2.999-0.15l-1.35-1.549
	c-0.433-0.133-1.133,0.15-2.1,0.85c-0.799,0.6-1.466,0.55-1.999-0.15c-0.5-0.7-0.667-1.816-0.5-3.349
	c0.2-1.633,0.183-2.483-0.05-2.549c-0.2-0.067-0.8,0.417-1.8,1.45c-0.733,0.733-1.333,1.75-1.799,3.049l-0.95,3.399l-1.05,3.299
	c-0.467,1.066-1.066,1.866-1.8,2.399c-1.199,0.9-2.083,0.683-2.649-0.65c-0.533-1.333-1.25-1.933-2.149-1.799
	c-0.9,0.167-1.633,0-2.2-0.5c-0.533-0.433-0.85-1.033-0.95-1.799l-0.2-2.049c-0.067-0.167-0.4-0.067-1,0.3
	c-1.233,0.766-2.083,1.633-2.549,2.599c-0.433,0.933-0.45,1.799-0.05,2.599l1.15,2.149c0.399,1.033,0.466,1.95,0.2,2.75
	c-0.533,1.5-1.616,2.416-3.249,2.749c-1.4,0.267-3,0.1-4.799-0.5c-2.999-1.033-4.399-2.366-4.199-3.999
	c0.1-0.933-0.117-1.649-0.65-2.149l-1.799-1.3c-1.133-1.033-1.65-1.899-1.55-2.599c0.133-0.7,0.917-1.433,2.35-2.2
	c0.533-0.267,1.316-0.6,2.349-1c0.733-0.5,1.017-1.466,0.85-2.899c-0.2-1.633-0.066-2.916,0.4-3.849
	c0.367-0.8,1.05-1.483,2.05-2.049c1.799-1,2.732-1.6,2.799-1.8c0.1-0.267-0.783-0.5-2.649-0.7c-4.599-0.533-8.564,0.25-11.897,2.349
	l-3.399,2.149c-0.833,0.367-1.733,0.267-2.699-0.3c-0.833-0.5-1.616-1.316-2.35-2.449l-0.457-0.771
	c0.363,0.104,0.754,0.198,1.207,0.271l5.198,0.2c3.933-0.333,6.981-1.433,9.148-3.299c2.466-2.166,3.666-5.215,3.599-9.147
	l0.1-3.149c0.267-1.1,0.95-1.95,2.049-2.55c2.666-1.533,4.799-2.416,6.398-2.649c1.066-0.167,1.833-0.017,2.299,0.45
	c0.9,0.966,0.25,3.349-1.949,7.148c-1.7,2.799-2.05,4.932-1.05,6.398c0.9,1.3,2.583,1.833,5.048,1.6c0.9-0.1,1.733,0.05,2.5,0.45
	c0.733,0.4,1.616,1.133,2.649,2.2c1.433,1.5,2.299,2.199,2.599,2.099c0.367-0.1,0.217-1.133-0.45-3.099
	c-0.733-2.133-1.1-3.516-1.1-4.149c-0.034-0.933,0.4-1.766,1.299-2.499c0.9-0.7,1.35-1.983,1.35-3.849c0-0.4,0.1-0.7,0.3-0.9
	l1.299-0.15l1.7,0.3l2.449,0.1c0.933-0.033,1.583-0.25,1.95-0.65c0.233-0.233,0.316-0.7,0.25-1.399l-0.2-1.799
	c-0.433-5.332,1.483-8.381,5.749-9.147c3.299-0.5,5.798,0.316,7.498,2.449c1.266,1.566,1.982,3.516,2.149,5.848
	c0.2,2.366-0.2,4.782-1.2,7.248c-1.167,2.933-1.4,4.965-0.7,6.099c0.933,1.533,2.966,2.799,6.098,3.799
	c2.699,0.833,4.916,1.183,6.648,1.05c2.333-0.167,4.732-1.716,7.198-4.649c2.333-2.799,3.866-4.166,4.599-4.099
	c1.767,0.167,4.299,2.149,7.599,5.948c1.966,2.299,4.282,3.333,6.948,3.099c1.766-0.133,4.231-0.983,7.397-2.549l4.448-2.449
	c1.3-0.533,2.268-0.717,2.898-0.55l1.25,1.05c1.232,1.799,2.767,2.349,4.599,1.649c1.633-0.633,3.666-2.333,6.099-5.099l3.649-3.599
	c0.967-0.767,1.815-1.216,2.549-1.35c0.565-0.1,1.267,0.017,2.101,0.35l2.198,0.75l2.601-0.2c1.231-0.533,1.633-2.149,1.199-4.849
	c-0.199-1.2,0.1-2.25,0.899-3.149c0.731-0.767,1.716-1.283,2.948-1.55c1.8-0.399,2.684-0.733,2.648-1
	c-0.033-0.267-0.933-0.667-2.699-1.2c-1.633-0.466-3.365-0.25-5.197,0.65l-1.699,1l-1.898,0.8c-1.268,0.233-2.449,0.217-3.55-0.05
	c-1.1-0.267-1.75-0.667-1.948-1.2c-0.269-0.7,0.315-1.516,1.748-2.449c2.032-1.267,3.032-2.333,3-3.199
	c-0.066-1.466-1.449-2.982-4.148-4.549c-1.533-0.9-2.166-1.683-1.9-2.349c0.234-0.6,0.733-1.083,1.5-1.45
	c0.867-0.4,1.916-0.583,3.149-0.55l3.799,0.7l2.249,0.1c0.268-0.233,0.384-1.1,0.35-2.6c0-1.633,0.117-2.632,0.352-2.999
	c0.634-0.966,1.398-1.833,2.3-2.599c0.999-0.867,2.017-1.483,3.049-1.85c1.366-0.467,2.101-0.85,2.199-1.15
	c0.166-0.433-0.718-0.833-2.649-1.2l-4.599,0.3c-0.935,0.3-1.933,0.85-2.999,1.649l-2.05,1.35l-2.449,0.1
	c-1.033-0.3-1.633-0.983-1.799-2.05c-0.101-0.866,0.116-1.783,0.649-2.749c0.565-0.966,1.281-1.7,2.148-2.199
	c1.699-0.967,3.398-0.816,5.1,0.45c2.365,1.733,4.314,2.349,5.848,1.85c1.066-0.367,2.416-1.6,4.05-3.699l2.499-3.499
	c1.732-1.933,3.632-3.116,5.697-3.549c1.301-0.267,2.884-0.25,4.75,0.05c0.533,0.1,2.099,0.683,4.697,1.75
	c1.801,0.7,3.184,1.066,4.149,1.1c1.399,0,2.815-0.583,4.249-1.75c1.365-1.1,2.732-1.683,4.099-1.75l3.698,0.5l4.75,0.5
	c0.6-0.1,0.85-0.417,0.749-0.95l-0.851-2.05l-0.799-2c-0.134-0.6-0.084-1.266,0.149-1.999c0.267-0.767,0.832-1.316,1.699-1.65
	c0.967-0.4,2.565-0.6,4.799-0.6c1.731,0,2.516-0.233,2.35-0.7c-0.101-0.4-0.934-1.017-2.5-1.85
	c-4.397-2.433-8.514-2.216-12.347,0.65c-0.966,0.733-2.05,1.216-3.249,1.45c-1.133,0.266-1.883,0.2-2.249-0.2
	c-0.434-0.433-0.384-0.983,0.148-1.649c1.4-1.7,1.968-2.949,1.699-3.749c-0.466-1.3-1.932-2.216-4.397-2.75
	c-0.533-0.1-0.884-0.333-1.05-0.7c-0.399-0.767,0-2.199,1.199-4.299c0.666-1.167,0.851-1.816,0.551-1.949
	c-0.268-0.1-1.2,0.05-2.801,0.45c-1.498,0.4-2.531,1.2-3.099,2.399c-0.601,1.333-0.8,3.432-0.601,6.298
	c0.168,2.133-0.283,3.532-1.351,4.199c-0.466,0.3-2.166,0.767-5.098,1.399l-2.949,0.65c-4.698,1.167-7.582-0.183-8.647-4.049
	c-0.799-3.266-2.965-4.898-6.498-4.898c-1.033,0-2.217,0.333-3.549,1c-0.699,0.367-1.684,1-2.949,1.899l-1.449,1.05l-1.1,0.55
	l-0.15-0.3c-0.301-1.433-0.783-2.716-1.449-3.849c-0.6-1.033-1.184-1.683-1.75-1.949c-2.531-1.3-4.498-0.6-5.898,2.099
	c-1.065,2.133-3.016,4.482-5.848,7.048c-2.3,2.033-3.482,4.099-3.55,6.198c-0.065,1.666,0.649,3.766,2.149,6.298l2.949,4.599
	c1.266,2.033,1.934,3.532,2,4.499c0.065,1.466-0.418,2.366-1.451,2.699c-0.767,0.3-1.799,0.15-3.099-0.45
	c-1.133-0.533-1.935-1.116-2.399-1.75c-0.601-0.733-0.633-2.016-0.101-3.849c0.435-1.433,0.584-2.3,0.45-2.6
	c-0.2-0.366-0.95-0.366-2.249,0c-3.433,1.033-5.517,3.283-6.248,6.748c-0.201,1.033-0.983,1.6-2.351,1.7l-2.1,0.2
	c-0.9,0.133-1.5,0.433-1.8,0.899c-0.399,0.567-0.499,1.55-0.3,2.949c0.166,1,0.617,2.666,1.35,4.999
	c0.334,1.1,0.916,2.166,1.75,3.199l2.1,2.25c1.3,1.433,1.815,3.033,1.55,4.799c-0.3,1.633-1.333,3.616-3.101,5.948
	c-1.266,1.7-2.516,2.599-3.748,2.699c-0.834,0.067-2.25-0.316-4.248-1.149c-1.399-0.567-3.367-1.066-5.898-1.5
	c-2.268-0.367-4.132-1.3-5.6-2.799c-0.899-0.9-1.565-1.917-2-3.049c-0.6-1.566-0.616-2.716-0.05-3.449c0.267-0.366,0.6-0.55,1-0.55
	l1.25,0.35l1.35,0.5c0.533,0.067,0.966-0.167,1.3-0.7l0.948-1.649c0.468-0.8,0.984-1.399,1.551-1.799l1.1-1.1
	c-0.033-0.233-0.565-0.7-1.6-1.4l-2.249-1.2l-2.601,0.2c-0.709,0.41-1.36,0.689-1.958,0.853l-0.998,0.043l-3.391-0.297
	c-2.733-0.733-4.499-2.399-5.299-4.999c-0.366-1.167-0.649-3.833-0.85-7.998c-0.2-4.265,0.65-7.614,2.549-10.047
	c1.833-2.366,5.115-4.365,9.848-5.998l4.898-1.2c2.433-0.733,3.949-1.667,4.549-2.799c0.365-0.7,0.699-2.699,1-5.999
	c0.266-2.466-0.268-4.016-1.6-4.648c-0.9-0.4-2.15-0.184-3.75,0.65c-1.299,0.7-2.549,1.649-3.748,2.849
	c-0.435,0.466-0.916,0.8-1.449,1l-1.6-0.1c-0.333-0.2-0.517-0.833-0.55-1.9v-2.999v-1.399l-0.4-1.05
	c-0.367-0.333-0.967-0.467-1.8-0.4l-2.25,0.35l-3.549,0.5c-1.033,0.067-1.666-0.183-1.899-0.75c-0.167-0.399-0.05-1.333,0.35-2.799
	c0.466-1.633,0.633-2.516,0.5-2.649c-0.133-0.167-0.716,0.183-1.75,1.05c-0.767,0.633-1.316,1.333-1.649,2.099
	c-0.433,0.967-0.6,2.25-0.5,3.849c0.1,1.733-0.5,2.833-1.799,3.299c-1.667,0.667-3.349,0.4-5.049-0.8l-4.149-3.999l-2.049-2.399
	c-0.8-0.933-1.516-1.516-2.149-1.75c-0.933-0.4-2.033-0.25-3.299,0.45l-3.299,2.1l-3.349,1.799c-1.433,0.633-2.866,1-4.299,1.1
	l-1.95-0.25c-0.3-0.167-0.4-0.35-0.3-0.55l0.65-1.1l0.45-1.35c0-0.766-0.333-1.483-1-2.149l-1.5-1.6
	c-0.367-0.433-0.55-0.85-0.55-1.25c0-1.366,0.35-2.333,1.049-2.899l0.8-0.75c0-0.167-0.383-0.267-1.149-0.3
	c-1.233-0.033-2.25,0.183-3.049,0.65c-0.633,0.366-1.383,1.066-2.25,2.099l-1.649,2.2c-0.7,0.866-1.316,1.399-1.85,1.599
	l-2.649,0.05c-0.967-0.433-1-1.466-0.1-3.099l1.149-1.55l1.5-1.699c0.899-1.066,1.316-1.733,1.25-2l-2.049-0.05l-7.598,0.8
	c-3.632,0.467-6.082,1.233-7.348,2.299c-1.299,1.1-2.066,2.483-2.299,4.149v4.449l0.25,2.549c0.067,0.933-0.033,1.767-0.3,2.5
	c-0.5,1.5-1.366,2.416-2.6,2.75c-1.033,0.267-1.75,0.1-2.149-0.5c-0.233-0.367-0.2-1.2,0.1-2.5c0.367-1.466,0.5-2.482,0.4-3.049
	c-0.133-0.8-0.95-1.5-2.449-2.099l-3.699-1.3l-2.049-0.7c-0.367-0.033-0.3,0.35,0.2,1.149c0.733,1.167,1.216,2.566,1.449,4.199
	c0.367,2.266,0.083,4.499-0.85,6.698c-0.3,0.8-0.667,1.333-1.1,1.6l-1.3,0.35c-1.2,0.167-2.232,0.5-3.099,1
	c-1.466,0.899-2.783,2.399-3.949,4.499c-1.033,1.866-1.35,3.682-0.95,5.449c0.1,0.466,0.7,1.85,1.799,4.149
	c0.8,1.733,1.267,2.999,1.4,3.799c0.233,1.433-0.1,2.799-1,4.099c-1.566,2.233-3.466,3.349-5.698,3.349
	c-2.366,0.067-4.166-0.783-5.399-2.549c-1.1-1.466-1.116-3.549-0.05-6.248l1.399-3.749c0.267-0.933,0.333-1.7,0.2-2.299
	c-0.2-0.9-1.033-1.733-2.5-2.5c-1.6-0.667-2.599-1.116-2.999-1.35c-1.766-0.966-2.949-1.799-3.549-2.5
	c-0.467-0.533-0.684-1.166-0.65-1.899c0.033-1.6,3.366-3.599,9.997-5.998c1.167-0.434,2.133-1.017,2.899-1.75
	c0.667-0.633,1.05-1.267,1.149-1.9c0.133-0.799-0.083-1.732-0.649-2.799c-0.567-0.967-1.267-1.8-2.1-2.5
	c-1.433-1.167-2.366-2.299-2.799-3.399c-0.4-0.933-0.517-2.166-0.35-3.699c0.133-1.399,0.583-2.599,1.35-3.599
	c0.567-0.7,1.367-1.383,2.399-2.049l1.5-1.05l-1.5-0.4L91.229,0.1c-1.066,0.233-2.1,1.116-3.099,2.649l-1.3,1.9
	c-0.633,0.7-1.366,1.149-2.199,1.35c-2.066,0.533-3.599,1.166-4.599,1.899c-2,1.466-2.732,3.532-2.199,6.198
	c0.533,2.566,0.5,4.465-0.1,5.698c-0.466,1.066-1.45,1.866-2.949,2.399l-2.449,0.2l-2.649-0.9c-2.366-1.133-4.515-1.583-6.448-1.35
	c-1.399,0.133-2.466,0.716-3.199,1.75c-0.5,0.733-0.883,1.799-1.149,3.199c-0.167,1.133-0.4,2-0.7,2.599
	c-0.367,0.8-1.233,1.533-2.6,2.2c-1.633,0.799-2.632,1.5-2.999,2.099c-0.5,0.833-0.617,2.233-0.35,4.199
	c0.333,2.232-0.066,3.799-1.2,4.698c-0.397,0.331-0.978,0.525-1.711,0.608l-2.062-0.044c-1.027-0.166-1.729-0.595-2.076-1.314
	c-0.233-0.466-0.233-1.383,0-2.75c0.066-0.366,0.283-0.883,0.65-1.549c0.267-0.466,0.316-0.9,0.15-1.3
	c-0.9-2.466-1.167-4.115-0.8-4.949l0.25-0.899l-0.8,0.1c-3.732,1.4-4.882,3.266-3.449,5.599c0.667,0.933,0.5,2.033-0.5,3.299
	l-2.599,3.199c-1.266,1.733-1.783,3.283-1.55,4.649c0.167,0.9,0.75,1.899,1.75,3c1.466,1.566,2.066,2.749,1.799,3.549
	c-0.3,0.8-1.05,0.4-2.25-1.2l-2.099-2.599c-0.867-0.9-1.566-1.183-2.1-0.85c-1.133,0.667-1.667,2.483-1.6,5.449
	c0.067,2.833,0.617,5.265,1.649,7.298c0.571,1.111,0.728,2.023,0.513,2.755c-1.753-2.837-4.649-6.549-8.711-11.153
	c-4.699-5.266-7.564-7.832-8.598-7.698c-0.7,0.1-0.883,2.233-0.55,6.398c0.23,3.256,0.699,6.698,1.378,10.303L6.602,48.787
	c-2.666-2.666-4.565-3.732-5.699-3.199c-1.133,0.5-1,2.349,0.4,5.548C2.436,53.669,5.935,60.55,11.8,71.78
	c3.971,7.599,6.788,12.861,8.463,15.813c-1.899,3.305-3.077,5.888-3.515,7.73c-0.533,2.266-0.45,5.165,0.25,8.698l-5.049,10.547
	c-2.699,5.499-5.082,9.614-7.148,12.347c-1.766,2.299-2.649,4.849-2.649,7.648c0,2.566,0.567,5.182,1.7,7.848
	c1.666,3.999,4.282,6.165,7.848,6.499c0.366,0.667,0.85,1.25,1.449,1.75c0.733,0.6,1.517,0.933,2.35,1l5.848-0.15l3.299-0.25
	c0.966-0.233,1.966-0.866,2.999-1.899l2.25-2.249l5.648-6.249c2.299-2.566,4.016-4.249,5.148-5.049
	c2.566-1.799,5.682-3.249,9.348-4.349l1.899-0.583c3.534,7.189,5.875,12.331,6.998,15.379c2.966,7.931,4.482,15.596,4.549,22.994
	l0.3,20.244c0.245,2.732,0.7,5.445,1.344,8.139c-0.585,5.435-2.099,14.518-4.543,27.252c-2.933,15.431-5.082,25.094-6.448,28.992
	c-1.3,3.799-2.45,6.781-3.449,8.947c-1.966,4.366-2.732,7.416-2.299,9.148c0.866,3.266,2.083,6.23,3.649,8.896
	c2.033,3.499,4.315,5.715,6.848,6.646c12.296,4.601,20.161,9.299,23.594,14.098l2.999,5.35c0.9,1.532,1.7,2.516,2.399,2.948
	c0.833,0.565,2.283,0.935,4.349,1.101c3.932,0.299,6.648,0.899,8.148,1.799c2.466,1.434,4.915,4.565,7.348,9.397
	c0.21,0.39,0.483,0.685,0.812,0.892c0.738,1.727,1.76,3.51,3.087,5.356c1.324,1.845,2.679,3.363,4.063,4.579
	c-0.256,0.768-0.465,1.693-0.615,2.818c-0.267,1.967-0.216,3.383,0.15,4.248c0.699,1.762,1.148,4.129,1.354,7.086
	c-1.899,1.271-3.917,3.373-6.053,6.312c-2.732,3.732-4.132,6.966-4.199,9.697c-0.033,1,0.067,1.782,0.3,2.351
	c0.3,0.666,0.833,1.149,1.6,1.448c2.966,1.134,6.765,1.767,11.397,1.899c5.565,0.134,10.064-0.684,13.497-2.448l1.6-1.399
	c0.267-0.566,0.35-1.533,0.25-2.898l-0.5-5.249l-0.261-2.091c0.865-1.164,1.834-3.439,2.91-6.857
	c0.621-1.913,1.051-3.541,1.292-4.889c0.725,1.244,1.672,3.061,2.857,5.488c1,1.633,1.917,2.5,2.75,2.6c0.9,0.134,2-0.566,3.299-2.1
	l1.55-2.398c0.633-1.033,1.233-1.666,1.799-1.9c0.833-0.365,1.616-0.133,2.35,0.701l1.799,2.6c1.6,1.998,3.083,2.933,4.449,2.799
	c1.367-0.133,1.833-1.366,1.4-3.698l-0.4-2.15c-0.1-0.864,0.05-1.466,0.45-1.799l2-0.149l2.649,0.699l3.099,0.95
	c1.1,0.231,2.033,0.033,2.799-0.601c2.499-2,4.099-3.184,4.798-3.549l3.449-1.351c3.866-2.198,3.599-3.216-0.8-3.05
	c-1.133,0.066-2.25-0.199-3.349-0.799c-1.233-0.7-1.849-1.6-1.85-2.699c0-0.834,0.35-1.416,1.05-1.75
	c0.633-0.3,1.833-0.482,3.599-0.55l3.349,0.25c1.533,0.167,2.716,0.149,3.549-0.05c1.833-0.435,2.816-1.416,2.949-2.949
	c0.167-1.866-1-4.398-3.499-7.598c-0.633-0.802-0.35-1.949,0.85-3.449c0.7-0.867,2.632-2.834,5.798-5.898
	c1.066-1,1.116-2.199,0.15-3.6l-1.009-1.188c4.227-0.204,7.157-0.788,8.757-1.761c0.566-0.333,0.9-0.783,1-1.35
	c0.367-1.566,0.283-4.314-0.25-8.248l-0.766-4.637c0.797-0.646,1.713-1.521,2.766-2.66c2.133-2.334,3.532-4.184,4.198-5.549
	c0.158-0.316,0.231-1.82,0.222-4.5c0.889,0.543,1.555,1.204,1.979,2c0.864,1.467,2.215,2.1,4.049,1.899
	c1.397-0.167,3.481-0.95,6.248-2.351l2.397-0.051c0.367,0.234,0.867,0.852,1.5,1.85c0.7,1.101,1.166,1.668,1.4,1.701l1.199-1.201
	c0.833-1.166,1.799-2.147,2.898-2.948c1.133-0.832,2.199-1.315,3.198-1.449l2.45-0.351c0.134-0.065-0.25-0.399-1.148-1
	c-2.468-1.666-4.601-2.549-6.398-2.648l-4.299,0.602l-3-0.15c-0.533-0.2-0.949-0.566-1.25-1.1c-0.633-1.033-0.383-2.584,0.75-4.648
	c0.967-1.768,2.467-2.883,4.5-3.35c2.199-0.5,3.549,0.35,4.049,2.549c0.533,2.166,1.281,3.648,2.249,4.449
	c0.899,0.767,1.966,1.133,3.198,1.1c0.967,0,1.867-0.25,2.699-0.75c0.633-0.366,0.916-0.783,0.851-1.25l-0.37-0.738l0.02-0.011
	l-0.063-0.079l-0.536-1.07c-0.166-0.199-0.25-0.518-0.25-0.949c-0.033-0.467,0.051-0.918,0.25-1.351c0.134-0.333,0.649-0.333,1.55,0
	l2.699,1c2.8,0.833,4.882,0.517,6.249-0.95c1.433-1.533,1.499-3.832,0.198-6.897c-0.731-1.767-0.415-2.683,0.951-2.748
	c2.564-0.101,4.314-0.451,5.248-1.052l2.299-1.998l1.423-1.869c0.378,3.023,0.771,8.109,1.178,15.314
	c0.231,3.933-0.101,7.564-1,10.896c-0.833,3.066-2.065,5.699-3.698,7.898c-1.601,2.166-1.601,6.697,0,13.596
	c0.012,0.15,0.035,0.299,0.07,0.445c-1.664,1.2-3.337,2.98-5.021,5.354c-2.432,3.398-4.063,7.031-4.897,10.896
	c-0.231,1.065-0.101,1.899,0.399,2.5c1.066,1.332,4.299,2.25,9.697,2.75c6.531,0.6,12.279-0.435,17.245-3.101
	c0.8-0.399,1.218-0.899,1.25-1.5c0.2-1.731,0.134-4.082-0.2-7.048l-0.475-2.956c0.908-0.81,1.932-2.513,3.074-5.142
	c1.766-4.032,2.748-7,2.949-8.897c0.1-1.233-0.185-2.75-0.851-4.549c-0.981-2.142-1.669-3.71-2.062-4.708
	c1.436-1.447,2.789-1.984,4.061-1.592c0.866,0.268,2.55,1.533,5.049,3.8c1.6,1.467,2.883,2.166,3.85,2.1
	c0.666-0.065,1.934-0.731,3.799-1.999c1.833-1.232,3.75-1.8,5.749-1.699l3.698-0.399c0.399-0.433-0.383-1.065-2.35-1.899
	c-1-0.4-3.466-1.082-7.398-2.049c-1.031-0.234-1.666-0.5-1.898-0.801v-0.398c-0.033-0.135,0.834-0.668,2.6-1.601l2.648-1.351
	c1-0.566,2.268-0.699,3.8-0.398l4.149,1.299l4.098,1.35c1.634,0.435,2.916,0.451,3.85,0.052c0.634-0.234,1-0.685,1.101-1.351
	c0.065-0.634-0.133-1.268-0.601-1.899l-1.1-1.449c-0.167-0.467,0-1.133,0.5-2c0.6-1,1.532-1.582,2.799-1.749l3.35,0.148l3.6-0.198
	c0.233-0.267-0.2-0.834-1.3-1.699c-1.233-1-1.866-1.733-1.899-2.2c-0.1-1.398-0.267-2.216-0.5-2.449
	c-0.333-0.398-1.065-0.332-2.198,0.2l-2.051,0.8c-0.833,0.168-1.531-0.066-2.1-0.699c-0.833-0.934,0.167-1.717,3-2.351l8.848-0.649
	c1.532,0.102,2.632-0.25,3.299-1.049c0.434-0.566,0.783-1.617,1.051-3.148v-1.9c0-0.933,0.05-1.533,0.148-1.799l0.602-0.9
	l0.698-0.148l1.949-0.3c0.967-0.367,1.8-1.117,2.5-2.25c0.666-1.101,0.883-2.499,0.649-4.199c-0.366-1.799-0.55-3.082-0.55-3.849
	c0-0.467,0.1-0.834,0.3-1.101l1-1.149l2.549-2.698l3.05-2.949c0.8-1,1.249-2.198,1.351-3.601c0.065-1.465,0.3-2.432,0.698-2.897
	c0.7-0.866,1-1.5,0.9-1.899c-0.134-0.399-0.717-0.482-1.75-0.25c-0.233,0.066-1.55,1.117-3.948,3.149
	c-2,1.666-4.065,2.267-6.199,1.8c-0.333-0.066-0.55-0.268-0.648-0.601c-0.134-0.767,0.85-2.05,2.949-3.851
	c1.133-0.965,2.633-2.182,4.499-3.647c0.933-0.8,1.398-1.699,1.398-2.699l-0.5-2.149c-0.133-0.532-0.133-0.949,0-1.25
	c0.134-0.398,0.5-0.832,1.101-1.299c1.199-0.934,1.933-2.05,2.198-3.35c0.2-0.934,0.15-1.8-0.148-2.6
	c-0.467-1.334-0.883-1.899-1.25-1.699l-0.899,1.35c-1,1.801-2.499,2.967-4.499,3.499l-2.949,0.55
	c-1.333,0.434-2.05,1.399-2.148,2.899c-0.167,2.299-0.518,3.582-1.05,3.849c-0.966,0.467-2.133,0.283-3.499-0.55
	c-1.101-0.698-1.434-1.698-1-2.999l0.7-1.898c0-0.367-0.384-0.367-1.149,0c-0.833,0.399-1.717,0.981-2.649,1.75
	c-1.1,0.933-2.017,1.916-2.749,2.949c-0.5,0.731-0.782,1.498-0.851,2.299l0.15,2c0.199,1.6,0.05,2.799-0.45,3.599
	c-0.601,0.899-1.799,1.55-3.6,1.948c-1.898,0.4-3.031,0.768-3.398,1.101c-0.666,0.5-0.949,1.601-0.851,3.3l0.2,2.498
	c0.033,1.168-0.184,2.184-0.649,3.051c-0.699,1.332-1.566,1.582-2.599,0.75c-0.934-0.701-1.467-1.551-1.601-2.551
	c-0.3-2.633-0.083-4.582,0.649-5.848l0.699-1.6c-0.066-0.269-0.615-0.201-1.648,0.199c-1.866,0.699-3.199,1.565-3.999,2.6
	c-1.267,1.666-1.716,4.166-1.351,7.498l0.101,2.35c-0.101,0.799-0.517,1.6-1.249,2.398c-0.834,0.899-1.417,1.35-1.75,1.35
	l-0.35-0.949c-0.435-1.966-0.983-2.781-1.65-2.449c-0.799,0.4-2.682,2.649-5.648,6.748c-1.066,1.435-2.249,2.25-3.549,2.449
	c-1.332,0.233-1.898-0.398-1.699-1.898c0.166-1.133,0.133-1.85-0.1-2.149c-0.4-0.467-1.301-0.866-2.699-1.199l-4.1,0.25
	c-0.314,0.157-0.688,0.47-1.114,0.925c0.37-2.463,0.886-4.904,1.563-7.322l2.301-8.348c0.5-2.934,0.166-5.283-1-7.05l-2.101-2.549
	l-2.549-2.699c-2.767-3.133-4.799-5.849-6.099-8.147c-2.033-3.465-3.133-6.914-3.301-10.348l-0.1-7.248
	c0-10.164-0.615-19.145-1.85-26.941c-0.209-1.314-0.436-2.583-0.676-3.815l0.625,0.366l2.85-0.3l4.1-1.05
	c1.533-0.2,3.217,0.183,5.049,1.149c3.032,1.566,3.782,4.916,2.25,10.047l-1.351,3.899c-0.399,1.466-0.333,2.649,0.2,3.549
	c1.365,2.366,3.715,3.999,7.048,4.898l2.849,0.55c0.4-0.1,0.102-0.833-0.897-2.199l-1.5-2c-0.667-1-1.066-1.833-1.199-2.5
	c-0.201-1.1-0.051-2.216,0.449-3.349c0.5-1.1,1.083-1.75,1.75-1.949c0.899-0.267,1.716,0.466,2.448,2.199
	c0.832,1.966,1.684,3.333,2.55,4.099c0.698,0.6,1.6,0.933,2.698,1l1.699-0.3c0.801-0.133,1.35-0.133,1.65,0
	c0.467,0.2,0.732,0.433,0.799,0.7l-0.199,1.25l-0.699,2.1c-0.168,0.933,0.101,1.7,0.799,2.3c1.566,1.332,2.634,2.666,3.199,3.998
	c0.768,1.834,1.051,4.416,0.851,7.748c-0.101,1.767,0.101,3.299,0.601,4.601c0.467,1.266,1.065,1.932,1.799,1.998
	c0.635,0.066,1.268-0.416,1.899-1.449c0.601-1,1-2.133,1.2-3.398c0.167-1,0.583-1.85,1.249-2.549l1.75-1.4l1.148-1.299
	c0.268-0.5,0.4-1.217,0.4-2.15c0-1.1-0.384-2.582-1.15-4.447c-0.466-1.233-0.564-2.116-0.3-2.649l0.55-0.4
	c0,0.833,0.317,1.583,0.95,2.25c0.5,0.565,1.149,1,1.949,1.299l1.399,0.4c0.5,0.133,0.899,0.366,1.199,0.699l0.399,0.801
	l-0.699,0.75c-1.467,1.231-2.2,2.416-2.2,3.549c0,1.933,1,3.281,3,4.049l0.351,0.8l0.3,1.249l1.2-0.85l1.6-1.949
	c0.366-0.732,0.583-1.833,0.649-3.299c0.032-0.867,0.55-1.717,1.55-2.551c0.933-0.8,1.716-1.166,2.349-1.1
	c0.467,0.066,0.75,0.398,0.852,1l-0.052,1.8l-0.698,3.05c-0.4,1.231-0.566,2.35-0.5,3.35c0.2,2.498,0.55,4.031,1.05,4.598
	c0.533,0.566,0.966-0.416,1.3-2.949c0.133-1.1,0.416-1.85,0.85-2.248c0.699-0.668,1.616-0.884,2.749-0.649l2.351,0.799
	c0.898,0.233,1.481,0.117,1.749-0.351c0.2-0.365,0.334-1.35,0.399-2.948v-2.999c0.033-1.333,0.233-2.434,0.601-3.299
	c0.667-1.566,1.767-2.301,3.299-2.199c0.8,0.066,1.5,0.316,2.1,0.749c0.635,0.467,1.051,1.084,1.25,1.85
	c0.166,0.667,0.134,1.55-0.101,2.65l-0.649,2.948c-0.365,1.933-0.35,3.865,0.051,5.799c0.699,2.966,2.883,4.447,6.549,4.447
	l2.499-0.299l2.299,0.199c0.567,0.4,1.184,1.383,1.85,2.949c0.468,1.133,0.685,2.049,0.65,2.75l-0.65,2.248l-0.85,1.85
	c-0.399,0.801-0.633,1.551-0.699,2.25c-0.167,1.533,0.083,2.899,0.749,4.1l1.899,2.398c0.532,0.6,0.834,0.85,0.899,0.75l0.55-1.85
	c0.5-1.566,1.533-2.566,3.1-2.999c1.667-0.468,2.333,0.583,2,3.149l-0.9,3.248c-0.499,1.532-0.782,2.799-0.85,3.799
	c-0.133,1.666,0.101,2.649,0.7,2.949c0.467,0.268,1.398,0.084,2.799-0.55c0.3-0.1,0.55,0.033,0.75,0.4
	c0.267,0.499,0.232,1.383-0.101,2.647c-0.667,2.434-0.565,4.766,0.301,6.998c0.8,2.066,2.1,3.717,3.897,4.949
	c1.866,1.332,3.816,2.082,5.85,2.249l4.599-0.2c0.134-0.365-1.1-1.016-3.698-1.949c-3.499-1.266-4.433-4.147-2.8-8.646
	c1.433-3.934,3.399-6.665,5.898-8.198c3.231-1.999,5.397-3.481,6.497-4.448c1.866-1.634,3.018-3.433,3.449-5.398
	c0.467-2.065,0.4-5.148-0.2-9.247c-0.466-3.165,0.034-5.798,1.5-7.897c0.968-1.399,1.149-2.865,0.551-4.397l-2.149-3.649
	c-0.533-0.865-0.916-1.783-1.148-2.749c-0.167-0.834-1.083-1.399-2.75-1.7c-2.032-0.398-3.383-0.898-4.05-1.498
	c-0.766-0.701-0.716-1.65,0.15-2.851c1.033-1.399,3.016-1.967,5.948-1.698l2.648-0.201c0.467-0.367,0.649-1.482,0.55-3.349
	l-0.25-2.699c0-0.933,0.316-1.583,0.95-1.95c1.666-0.899,3.082-2.049,4.248-3.449C391.964,171.92,392.73,170.754,392.597,170.354z
	 M250.771,99.68l-1.401,0.045C249.811,99.639,250.275,99.62,250.771,99.68z M112.923,283.673c0.167-0.601,0.983-1,2.45-1.2
	l2.564-0.148c-0.239,1.354-0.137,2.754,0.334,4.197c0.144,0.451,0.414,1.102,0.8,1.939l-0.5-0.289
	c-1.366-0.6-2.516-0.717-3.449-0.35l-1,0.25l-0.899-0.102c-0.3-0.267-0.483-0.767-0.55-1.498
	C112.573,285.671,112.656,284.738,112.923,283.673z M103.075,253.082c-0.566,0.566-1.066,1.499-1.5,2.799
	c-0.333,0.934-0.966,1.949-1.899,3.049l-2.35,2.699c-1.133,1.333-1.583,2.301-1.35,2.898c0.1,0.268,0.683,0.733,1.75,1.399
	c0.7,0.468,0.867,0.983,0.5,1.55l-1.1,0.75l-2.2-1.949c-1.5-1.066-3.149-0.916-4.949,0.449c-1.399,1.066-2.132,0.918-2.199-0.449
	c-0.1-1.434,0.65-3.049,2.25-4.849c0.866-1,1.216-1.616,1.05-1.85c-0.133-0.2-0.733-0.019-1.8,0.549
	c-2.766,1.435-4.482,2.533-5.148,3.3c-0.933,1.032-1.4,2.717-1.4,5.049l0.05,2.299c-0.067,0.968-0.267,1.668-0.6,2.101
	c-0.6,0.7-1.333,1.05-2.199,1.05c-0.713-0.02-1.368,0.053-1.975,0.198c-0.692-0.812-1.321-1.579-1.874-2.298
	c0.034-0.866,0.167-1.616,0.4-2.249l0.8-1.8c1.933-3.965,5.032-8.014,9.298-12.146c4.463-4.275,9.333-7.738,14.597-10.412
	c1.083,2.201,2.275,4.502,3.583,6.908C104.113,252.318,103.527,252.63,103.075,253.082z M124.77,306.77
	c-0.147,0.75-0.317,1.483-0.478,2.226c-1.579-0.917-3.217-1.634-4.921-2.125c-1.748-0.474-3.314-0.67-4.72-0.616
	c-0.241-0.449-0.577-0.863-1.028-1.236l-4.099-2.6c-1-0.6-2.049-2.184-3.149-4.748c-0.138-0.316-0.268-0.613-0.393-0.898
	l1.643-1.002c0.733-0.266,1.616-0.148,2.649,0.351c1.399,0.733,2.333,1.101,2.799,1.101c0.733,0,1.283-0.648,1.65-1.949
	c0.6-2.199,1.25-3.582,1.949-4.148c0.529-0.424,1.604-0.75,3.205-0.984c0.141,0.282,0.287,0.574,0.444,0.885l3.499,6.998
	C125.02,301.087,125.337,304.003,124.77,306.77z M191.849,251.98c-0.5,8.166-1.333,13.182-2.5,15.047l-3.399,4.748
	c-1.533,2.065-2.482,3.55-2.849,4.449c-0.433,1.1-0.633,2.666-0.6,4.698c0,2,0.233,3.647,0.7,4.949
	c0.033,0.101,0.09,0.187,0.131,0.28c-1.017,0.916-2.406,2.514-4.18,4.816c-2.208,2.864-3.904,5.434-5.097,7.709l-3.601-0.961
	c-0.733-0.232-0.883-0.799-0.45-1.699c0.633-1.332,0.85-2.549,0.65-3.647c-0.267-1.399-0.566-2.149-0.899-2.25
	c-0.333-0.065-0.733,0.45-1.2,1.55c-0.633,1.467-1.767,2.814-3.399,4.049c-2.166,1.566-3.699,2.934-4.599,4.1
	c-0.733,0.899-1.183,1.899-1.35,3l-0.15,3.147l0.05,3.449c-0.1,1.033-0.616,1.685-1.549,1.949l-1.25-0.05
	c-0.233-0.168-0.3-0.399-0.2-0.7l0.6-2.249c0.133-0.999-0.05-1.649-0.55-1.949c-1.466-0.833-2.366-1.482-2.699-1.95
	c-0.566-0.832-0.316-1.731,0.75-2.698c0.667-0.566,0.917-0.934,0.75-1.101c-0.133-0.166-0.649-0.166-1.549,0
	c-2.699,0.435-4.799,1.649-6.298,3.649c-1.233,1.565-1.933,3.416-2.1,5.549l-0.048,1.101l-0.25,0.95
	c-0.333,0.232-0.966,0.133-1.899-0.301l-1.595-0.713l2.444-8.084c2.2-7.166,3.399-11.598,3.599-13.297c0.2-1.533,0.1-3.148-0.3-4.85
	l-1.25-4.799l-1.45-5.998c-0.533-2.6-0.767-5.064-0.7-7.398c0.133-5.83,1.566-13.013,4.299-21.543
	c0.126-0.396,0.255-0.77,0.382-1.156l3.767-1.144l4.049-1.399c6.998-2.332,13.18-5.683,18.545-10.047
	c1.978-1.625,4.423-3.998,7.316-7.086c3.278,2.873,5.612,5.205,6.979,6.985c1.667,2.166,2.699,4.415,3.099,6.748
	C192.366,240.001,192.316,244.716,191.849,251.98z M246.736,236.087c-0.768,0.899-1.516,1.25-2.25,1.05l-0.85-0.148
	c-0.367-0.201-0.617-0.783-0.75-1.75c-0.101-1-0.5-1.684-1.199-2.049l-2.049-0.301c-2.4,0.065-3.718-0.617-3.949-2.05
	c-0.168-1.167,0.217-2.233,1.148-3.198c0.434-0.468,0.602-0.834,0.5-1.101l-1.148-0.051l-3.601,1.948
	c-1,0.9-1.565,2.218-1.698,3.949c-0.101,0.935,0,2,0.299,3.199l0.701,2.449c0.398,1.334,0.315,2.449-0.25,3.35
	c-0.533,0.866-1.033,1.084-1.5,0.649c-0.5-0.433-0.801-1.166-0.899-2.199c-0.101-1.101,0.1-2.101,0.6-2.999l0.351-1.25
	c-0.133-0.3-0.65-0.184-1.551,0.35c-1.299,0.801-2.416,1.935-3.349,3.399l-2.05,3.05c-1.033,1.1-1.865,1.549-2.499,1.35
	c-0.733-0.233-1.05-1.416-0.95-3.549c0.066-1.367-1.082-2.416-3.447-3.149c-0.951-0.289-1.753-0.454-2.424-0.511
	c0.325-0.676,0.663-1.367,1.023-2.088l1.949-3.649c0.5-1.101,0.615-2.365,0.35-3.799c-0.1-0.634-0.467-1.816-1.1-3.55l-1.399-4.049
	c-0.733-3.065-1.3-6.132-1.7-9.197c-0.219-1.643-0.357-3.104-0.422-4.401c3.48,3.786,8.036,7.319,13.669,10.601
	c6.231,3.633,12.181,8.28,17.845,13.946c1.452,1.452,2.74,2.808,3.868,4.066L246.736,236.087z"/>
</svg>
