<?xml version="1.0" encoding="utf-8"?>
<!-- Generator: Adobe Illustrator 16.0.0, SVG Export Plug-In . SVG Version: 6.00 Build 0)  -->
<!DOCTYPE svg PUBLIC "-//W3C//DTD SVG 1.1//EN" "http://www.w3.org/Graphics/SVG/1.1/DTD/svg11.dtd">
<svg version="1.1" id="图层_1" xmlns="http://www.w3.org/2000/svg" xmlns:xlink="http://www.w3.org/1999/xlink" x="0px" y="0px"
	 width="315px" height="296px" viewBox="0 0 315 296" enable-background="new 0 0 315 296" xml:space="preserve">
<path d="M311.602,91.644c-0.398-17.278-5.76-32.758-16.08-46.441c-10.319-13.683-24.951-24.752-43.894-33.208
	c-20.642-9.221-41.847-13.116-63.62-11.685c-21.838,1.398-39.416,7.824-52.732,19.276c-3.196,2.763-4.161,5.509-2.896,8.239
	c1.265,2.796,4.028,3.596,8.29,2.397c11.952-3.329,24.703-4.494,38.251-3.496c13.218,0.932,25.584,3.829,37.104,8.689
	c11.885,4.994,21.389,11.469,28.514,19.425c7.723,8.589,11.936,18.16,12.633,28.714c0.633,9.621-1.83,18.376-7.39,26.267
	c-4.825,6.768-10.712,11.366-17.66,13.799c-5.692-4.581-11.89-8.549-18.595-11.902c-13.981-7.024-29.112-10.903-45.393-11.635
	c-15.614-0.699-30.544,1.515-44.793,6.642c-13.848,5.021-25.399,12.199-34.669,21.521c-2.689-0.327-5.43-0.497-8.227-0.497
	c-7.257,0-14.065,0.832-20.424,2.497c-2.132,0.569-4.167,1.229-6.119,1.962c-3.841-5.001-8.668-8.002-14.505-8.954
	c-5.526-0.865-10.653,0.15-15.38,3.046c-5.027,3.096-7.74,8.023-8.14,14.781c-0.349,6.469,1.619,11.394,5.891,14.78
	c-1.699,2.58-3.364,5.543-4.992,8.938c-3.258,6.789-5.384,12.998-6.4,18.64c-4.608,3.625-7.639,7.699-9.08,12.223
	c-2.33,7.291-1.764,13.133,1.698,17.527c2.38,3.004,5.451,4.528,9.209,4.582c0.126,0.688,0.346,1.438,0.679,2.26
	c0.466,1.164,0.949,1.998,1.448,2.496c0.632,0.666,1.897,0.883,3.795,0.649c0.502-0.063,0.948-0.147,1.347-0.245
	c-1.155,9.611,1.102,17.735,6.792,24.364c3.281,3.815,7.409,6.671,12.381,8.567c-0.405,1.965-0.708,4.145-0.896,6.563
	c-0.197,2.759-0.189,5.072,0.019,6.951c-0.507,0.179-0.998,0.388-1.466,0.64c-2.098,1.099-3.196,2.547-3.296,4.344
	c-0.1,1.731,0.982,3.279,3.246,4.645c1.898,1.133,4.028,1.865,6.392,2.197l7.74-0.398c2.19-0.631,3.511-1.568,3.99-2.808
	c6.059-1.362,12.417-4.623,19.081-9.827c6.45-5.081,11.169-10.415,14.199-15.996c5.95,1.664,12.248,3.031,18.893,4.102
	c-1.857,9.063-2.255,18.474-1.226,28.227c-1.831,1.109-2.789,2.505-2.853,4.191c-0.034,1.6,1.115,2.896,3.445,3.896
	c2.23,0.967,5.11,1.465,8.639,1.498c3.329,0.034,6.109-0.449,8.339-1.447c1.726-0.754,2.814-1.695,3.28-2.822
	c6.472-2.858,13.385-8.619,20.74-17.278c2.916,1.688,6.621,2.123,11.136,1.274c4.138-0.756,6.437-2.11,6.911-4.063
	c2.066-1.589,4.157-3.517,6.271-5.824c2.084-2.276,3.856-4.552,5.354-6.827c5.68-0.867,10.925-2,15.721-3.41
	c8.24-2.394,15.399-5.406,21.527-9.01c0.68,4.359,2.122,9.588,4.339,15.701c2.081,5.716,3.981,9.971,5.701,12.77
	c-0.14,0.369-0.208,0.738-0.208,1.112c0,1.832,1.132,3.33,3.396,4.495c2.131,1.1,4.61,1.646,7.44,1.646
	c2.796,0,5.343-0.565,7.64-1.696c2.498-1.231,3.846-2.78,4.045-4.646c0.028-0.235,0.03-0.466,0.019-0.692
	c4.999-7.45,9.244-16.396,12.716-26.871c3.762-11.319,6.143-23.021,7.143-35.104c0.881-10.438,0.746-20.108-0.399-29.016
	c13.042-8.046,24.032-20.785,32.958-38.25C307.673,126.317,312.001,108.822,311.602,91.644z"/>
</svg>
