<?xml version="1.0" encoding="utf-8"?>
<!-- Generator: Adobe Illustrator 16.0.0, SVG Export Plug-In . SVG Version: 6.00 Build 0)  -->
<!DOCTYPE svg PUBLIC "-//W3C//DTD SVG 1.1//EN" "http://www.w3.org/Graphics/SVG/1.1/DTD/svg11.dtd">
<svg version="1.1" id="图层_1" xmlns="http://www.w3.org/2000/svg" xmlns:xlink="http://www.w3.org/1999/xlink" x="0px" y="0px"
	 width="250px" height="273px" viewBox="0 0 250 273" enable-background="new 0 0 250 273" xml:space="preserve">
<path d="M246.553,143.293c-2.531-6.761-7.178-11.807-13.939-15.138c1.101-4.296,1.684-7.494,1.75-9.592
	c0.166-6.595-1.831-12.423-5.995-17.486c4.131-1.333,7.312-3.831,9.543-7.494c3.196-5.263,3.463-12.041,0.799-20.334
	c-2.664-8.36-8.41-14.538-17.235-18.535c-8.027-3.63-16.404-4.646-25.131-3.047c-5.729,1.066-11.341,3.497-16.837,7.294
	c-5.562,3.831-10.024,8.41-13.389,13.739c-3.132,4.896-5.195,10.641-6.195,17.236c-0.844,5.416-0.86,11.035-0.093,16.85
	c-6.62-4.245-14.29-7.313-23.012-9.203c-0.568-1.67-1.028-2.805-1.377-3.401c-0.426-0.742-0.965-1.364-1.572-1.914
	c0.05-0.864,0.081-1.731,0.082-2.604c0.48-0.237,0.962-0.492,1.441-0.778c2.031-1.199,3.713-2.615,5.045-4.247
	c1.633-1.965,2.715-4.729,3.248-8.293c0.399-2.831,0.434-4.596,0.101-5.296c5.362-4.529,9.959-10.108,13.789-16.736
	c4.661-8.061,5.762-14.272,3.297-18.635c1.799-5.129,3.196-10.508,4.196-16.137c0.8-4.596-0.051-7.577-2.549-8.943
	c-2.265-1.232-5.61-1.016-10.041,0.65c-4.264,1.565-8.811,4.196-13.64,7.894c-4.996,3.83-9.409,8.144-13.239,12.939
	c-3.787,4.752-6.859,9.757-9.271,14.995c-2.845-2.167-6.223-4.187-10.164-6.052c-9.559-4.53-19.568-6.395-30.026-5.595
	c-11.532,0.907-21.769,4.753-30.717,11.52c-0.551-8.06-1.759-15.507-3.655-22.311c-2.332-8.327-5.429-14.972-9.292-19.934
	c-3.131-4.097-5.979-5.346-8.543-3.747c-3.397,2.098-4.796,9.509-4.196,22.232l0.05,2.647c-4.063,2.132-5.512,7.927-4.347,17.386
	c1,8.193,2.948,14.655,5.846,19.384c-4.23-2.764-6.828-2.631-7.794,0.4c-0.899,2.798-0.183,6.511,2.148,11.141
	c3.031,6.062,6.428,11.225,10.191,15.488c0.077,0.087,0.153,0.167,0.229,0.253c0.247,2.082,0.87,4.694,1.869,7.84l0.571,1.693
	c-5.167-1.202-9.335-1.564-12.504-1.084c-1.503-0.603-3.763-0.596-6.802,0.04c-3.331,0.7-5.663,1.599-6.995,2.698
	c-0.699,0.599-0.916,1.182-0.649,1.749c0.385,0.77,1.785,1.667,4.167,2.686c-2.422,0.237-4.117,0.623-5.066,1.161
	c-0.399,0.2-0.6,0.516-0.6,0.949c-0.033,0.466,0.2,1.016,0.7,1.649c2.71,3.077,4.712,5.126,6.013,6.158
	c1.472,6.975,6.503,14.712,15.12,23.219c7.661,7.526,15.654,13.771,23.981,18.734c1.594,0.939,3.129,1.78,4.617,2.539
	c0.397,4.877,1.385,9.908,2.977,15.098c1.85,6.506,4.394,12.479,7.615,17.928c-2.475,2.214-5.013,4.809-7.615,7.802
	c-5.829,6.694-8.926,12.407-9.292,17.136v0.201c0.133,3.029,0.816,5.928,2.048,8.691c0.966,2.199,2.648,5.047,5.046,8.543
	l-1.449,2.25c-0.933,1.299-1.482,2.131-1.648,2.498c-1.266,2.563-1.898,4.646-1.898,6.244c0,0.399,0.083,0.731,0.25,1
	c0.267,0.465,0.7,0.698,1.299,0.698l5.046-0.75l4.596-0.897l1.449,3.945c0.866,1.832,1.865,2.682,2.998,2.549
	c0.966-0.066,2.964-0.851,5.995-2.349l5.795-2.897l2.249,4.297c1.332,1.932,2.764,2.615,4.296,2.049l8.643-3.646
	c5.695-2.6,8.643-4.298,8.843-5.098c0.433-1.898,0.117-5.628-0.949-11.189c0.174-0.896,2.979-3.354,8.411-7.369
	c3.255,1.018,6.712,1.727,10.375,2.123c7.745,0.801,15.033,0.117,21.871-2.024c0.444,1.006,1.008,1.921,1.711,2.726l8.094,8.543
	l6.844,7.145c1.898,2.131,2.947,4.096,3.148,5.895c0.1,0.699,0.065,1.517-0.101,2.448l-0.551,3.147
	c-0.166,1.531-0.199,2.647-0.101,3.348c0.101,0.898,0.449,1.648,1.049,2.248c0.666,0.766,1.982,1.148,3.947,1.148l11.391-1.049
	c7.527,5.661,12.24,7.645,14.14,5.944l4.146-4.547l3.398-3.996c2.098,1.032,4.563,2.063,7.395,3.099l4.695,1.598
	c2.165,0.699,3.182-0.032,3.047-2.197c-0.065-1.365-0.283-2.564-0.647-3.598l-1.699-4.846l-1.948-4.646l-0.101-1.948l-0.101-2.798
	c-0.365-5.762-0.766-9.809-1.199-12.141c-1.131-5.896-3.297-11.642-6.493-17.236c-1.302-2.307-2.669-4.479-4.091-6.546
	c9.279,0.384,19.468-2.624,30.568-9.041c5.795-3.364,10.875-8.327,15.238-14.888c4.297-6.463,7.145-13.324,8.543-20.584
	C249.25,156.283,248.852,149.389,246.553,143.293z"/>
</svg>
