<?xml version="1.0" encoding="utf-8"?>
<!-- Generator: Adobe Illustrator 16.0.0, SVG Export Plug-In . SVG Version: 6.00 Build 0)  -->
<!DOCTYPE svg PUBLIC "-//W3C//DTD SVG 1.1//EN" "http://www.w3.org/Graphics/SVG/1.1/DTD/svg11.dtd">
<svg version="1.1" id="图层_1" xmlns="http://www.w3.org/2000/svg" xmlns:xlink="http://www.w3.org/1999/xlink" x="0px" y="0px"
	 width="355px" height="357px" viewBox="0 0 355 357" enable-background="new 0 0 355 357" xml:space="preserve">
<path d="M324.08,202.477c-0.096-3.896-0.328-7.841-0.715-11.836c-0.765-7.959-2.13-16.286-4.089-24.972
	c6.056-3.946,11.372-9.204,15.933-15.804c4.797-6.996,8.245-14.708,10.344-23.137c2.267-9.128,2.582-18.473,0.949-28.034
	c-1.438-8.458-4.307-16.343-8.564-23.673c0.02-0.852-0.353-2.232-1.13-4.161c-0.833-2.099-1.564-3.581-2.197-4.447
	c-1.666-2.299-2.966-3.182-3.898-2.648c-0.624,0.34-1.163,1.499-1.618,3.46c-0.485-0.444-1.003-0.87-1.58-1.261l-7.495-4.448
	l-0.73-0.45c-1.41-7.659-4.356-14.66-8.84-21.004c1.19-0.316,2.315-0.926,3.375-1.833c1.499-1.299,2.614-2.965,3.348-4.998
	c1.565-4.497,1.499-9.395-0.2-14.691c-1.864-5.797-5.279-10.428-10.244-13.892c-7.896-5.53-15.207-6.13-21.938-1.799
	c-2.632,1.732-4.73,3.981-6.297,6.747c-1.366,2.43-2.047,4.72-2.057,6.873c-8.969-2.538-18.258-3.208-27.877-1.976
	c-10.521,1.331-19.213,4.768-26.084,10.297c-2.19-4.097-5.033-7.453-8.545-10.047c-3.8-2.832-7.88-4.397-12.244-4.697
	c-4.631-0.3-9.244,0.816-13.842,3.348c-4.498,2.499-8.229,5.913-11.195,10.244c-4.564,6.796-5.53,14.225-2.898,22.288
	c2.665,8.062,7.712,13.009,15.142,14.841c0.086,0.021,0.17,0.035,0.258,0.056c-0.336,1.659-0.623,3.499-0.857,5.542l-0.85,7.396
	L185.245,92.6c-1.366,8.529-3.415,16.441-6.146,23.737c-3.441,9.13-7.435,18.223-11.969,27.28c-1.74-0.659-3.54-1.239-5.389-1.753
	c-1.947-7.072-5.169-12.744-9.667-17.014c0.347-2.749-0.054-6.732-1.209-11.961c-1.2-5.264-2.499-9.295-3.898-12.093
	c-1.599-3.231-3.148-4.797-4.647-4.697c-1.266,0.1-2.415,1.716-3.448,4.847c-1.026,3.047-3.598,7.515-7.682,13.373
	c-1.373-0.366-2.79-0.711-4.261-1.03c-3.236-0.698-6.466-1.218-9.691-1.597c-1.593-4.582-4.135-8.668-7.649-12.245
	c-3.682-3.749-8.175-6.72-13.476-8.916c-0.534-2.249-1.204-4.326-2.016-6.226c-1.399-3.231-3.481-6.529-6.247-9.894
	c-2.398-2.865-4.314-3.981-5.747-3.348c-1.299,0.566-1.916,2.265-1.849,5.097c0.123,3.127-0.273,6.685-1.161,10.646
	c-2.223-0.134-4.451-0.15-6.686-0.041c-2.155-1.518-4.286-3.17-6.392-4.961c0.507-1.041,1.006-2.668,1.495-4.895
	c0.633-2.832,0.949-5.131,0.949-6.896c0-2.73-0.516-4.214-1.549-4.447c-0.767-0.167-2.299,0.383-4.598,1.649
	c-1.246,0.685-4.218,1.326-8.87,1.924c-2.771-3.247-5.495-6.75-8.17-10.519c-3.631-5.063-7.129-7.279-10.494-6.646
	c-2.965,0.6-5.53,3.281-7.695,8.045c-1.725,3.776-3.028,7.594-3.957,11.45l-5.538-0.506l-6.747-1.149
	c-2.365-0.6-3.864-0.783-4.497-0.55c-1.166,0.433-1.166,1.982,0,4.647c1.333,2.999,3.448,6.197,6.346,9.595
	c2.675,3.104,5.514,5.69,8.514,7.762c-0.125,3.507,0.027,6.871,0.481,10.078c0.445,3.416,1.283,7.097,2.47,11.016
	c-4.475,6.229-7.455,12.893-8.942,19.988c-2.033-0.479-4.153-1.097-6.371-1.87l-3.348-1.1c-2.565-0.7-4.131-0.85-4.697-0.45
	c-0.9,0.633-0.517,2.682,1.149,6.146c1.666,3.432,3.931,6.763,6.796,9.995c2.172,2.438,4.269,4.273,6.294,5.532
	c0.768,3.574,1.996,6.896,3.7,9.959c2.091,3.765,4.795,6.902,8.099,9.424c-1.038,3.389-1.85,6.783-2.456,10.182
	c-1.895,0.911-4.143,1.662-6.793,2.23c-3.498,0.733-7.296,1.101-11.394,1.101c-6.93,0-8.029,2.532-3.298,7.596
	c5.331,5.71,12.249,9.679,20.716,11.954c0.817,6.676,2.611,12.512,5.419,17.479c3.204,5.662,7.438,9.66,12.675,12.039
	c0.053,1.358,0.137,2.733,0.242,4.119c-2.975,0.604-6.686,1.131-11.168,1.582l-10.844,0.649c-4.198-0.233-6.313,0.533-6.347,2.299
	c-0.033,1.3,1.083,3.063,3.348,5.297c4.264,4.265,9.661,7.763,16.191,10.494c4.633,1.943,9.158,3.237,13.579,3.904
	c0.822,2.233,2.353,4.876,4.611,7.938c2.398,3.264,4.947,6.146,7.646,8.646c5.23,4.862,8.695,6.579,10.394,5.146
	c0.857-0.697,1.205-2.189,1.057-4.459c7.591,7.172,17.595,12.313,30.025,15.403c14.324,3.589,29.254,3.627,44.789,0.131
	c4.408,2.047,8.967,3.97,13.675,5.771c0.217,0.213,0.439,0.427,0.658,0.64c-5.057,3.519-7.844,7.052-8.351,10.601
	c-0.233,1.832,0.1,3.832,1,5.998c0.899,2.164,2.282,4.313,4.147,6.444c4.298,4.965,12.227,10.494,23.788,16.591
	c8.899,4.711,15.27,7.318,19.127,7.84c1.81,0.867,4.291,1.719,7.457,2.555l9.694,2.05c4.397,0.565,6.863,0.45,7.396-0.351
	c0.4-0.666-0.35-2.582-2.248-5.746l-3.301-5.03c1.555,0.733,3.758,1.479,6.648,2.231l8.146,1.799l7.795-0.25
	c0.5-0.865-0.332-3.031-2.498-6.496c-1.133-1.767-2.582-3.682-4.348-5.746c-0.563-0.657-1.104-1.266-1.63-1.828
	c-0.692-2.471-2.76-6.104-6.217-10.915c-3.181-4.402-6.563-8.496-10.137-12.31c0.845-0.343,1.694-0.728,2.549-1.151
	c10.498-0.337,20.478-1.521,29.926-3.579c5.021-1.078,9.798-2.396,14.354-3.926c-0.406,1.856-0.611,3.384-0.611,4.574
	c0,2.231,0.616,3.965,1.85,5.197c1.898,1.865,8.928,3.231,21.088,4.098c9.98,0.67,19.117,0.806,27.43,0.418
	c1.578,0.596,4.356,0.856,8.351,0.781l11.544-0.85c4.697-0.466,7.079-1.35,7.146-2.648c0.081-0.81-0.953-2.211-3.063-4.183
	c5.063-0.289,8.021-0.926,8.858-1.914c0.898-1.101-0.366-3.049-3.798-5.847l-4.947-3.897l-2.843-1.864
	c-1.488-1.306-3.572-2.883-6.252-4.731c-3.53-2.408-6.419-4.142-8.69-5.224c7.193-4.627,13.096-9.746,17.687-15.365
	c6.329-7.729,9.776-15.891,10.344-24.486c0.5-7.429-1.499-14.875-5.997-22.337C336.929,213.943,331.291,207.898,324.08,202.477z"/>
</svg>
