<?xml version="1.0" encoding="utf-8"?>
<!-- Generator: Adobe Illustrator 16.0.0, SVG Export Plug-In . SVG Version: 6.00 Build 0)  -->
<!DOCTYPE svg PUBLIC "-//W3C//DTD SVG 1.1//EN" "http://www.w3.org/Graphics/SVG/1.1/DTD/svg11.dtd">
<svg version="1.1" id="图层_1" xmlns="http://www.w3.org/2000/svg" xmlns:xlink="http://www.w3.org/1999/xlink" x="0px" y="0px"
	 width="200px" height="131px" viewBox="0 0 200 131" enable-background="new 0 0 200 131" xml:space="preserve">
<path d="M199.583,66.023l-4.685-16.492l-0.398-0.598h-0.747l-26.608,7.923c-3.754,1.129-6.545,1.362-8.371,0.698
	c-1.693-0.665-3.105-2.359-4.235-5.083c-0.83-2.358-0.681-4.584,0.448-6.677c1.162-2.159,3.058-3.704,5.681-4.634l27.854-9.268
	c1.063-0.365,1.429-1.03,1.097-1.993l-5.88-17.191c-0.266-0.764-0.881-1.046-1.844-0.847c-9.668,2.558-16.078,4.352-19.233,5.382
	c-14.353,4.684-23.521,11.111-27.507,19.284c-2.133,4.37-2.76,9.133-1.885,14.291c-4.113-5.442-9.511-9.695-16.203-12.746
	c-7.914-3.606-15.979-4.793-24.191-3.586c0.069-0.382,0.104-0.765,0.075-1.147c0.332-0.366,0.548-0.864,0.648-1.495
	c0.066-0.598,0-1.179-0.2-1.744c-0.332-0.864-1.279-1.478-2.84-1.844c1.03-1.03,1.362-2.093,0.997-3.189
	c-0.167-0.498-0.548-0.88-1.146-1.146l-1.793-0.249l-0.1-0.449l-0.449-0.697c1.196-1.329,1.595-2.525,1.196-3.588l-0.897-0.847
	c-0.498-0.266-1.013-0.432-1.544-0.498c0.997-0.93,1.395-1.694,1.196-2.292c-0.1-0.299-0.564-0.598-1.395-0.897l-1.489-0.237
	c1.637-0.936,3.065-1.903,4.279-2.902c3.123-2.558,4.302-4.9,3.538-7.026c-0.698-1.927-3.289-3.223-7.773-3.887l-9.417,0.249
	c-0.897,0.332-1.694,0.847-2.392,1.544l-0.797,0.947c-0.963,0.066-2.159,0.349-3.588,0.847c-2.757,0.997-5.265,2.957-7.524,5.88
	c-2.425,3.156-3.222,5.88-2.392,8.172c0.598,1.694,2.309,2.608,5.132,2.741c1.762,0.08,3.831-0.166,6.196-0.725l-1.014,1.622
	c-0.133,0.232-0.167,0.481-0.1,0.748l0.449,0.548l1.544,0.648l1.246,0.747l-0.449,1.146l-0.747,1.445
	c-0.133,0.199-0.183,0.432-0.15,0.698c0,0.232,0.1,0.415,0.299,0.548l2.491,1.396c0.333,0.166,0.432,0.382,0.299,0.647l-1.096,2.591
	c-0.166,0.398-0.199,0.781-0.1,1.146c0.133,0.365,0.399,0.631,0.797,0.797l1.495,0.448c0.531,0.133,0.83,0.283,0.896,0.449
	l-0.598,1.295c-0.399,0.864-0.532,1.561-0.399,2.093c0.1,0.399,0.432,0.748,0.997,1.046l0.104,0.03
	c-7.756,4.284-13.61,10.48-17.544,18.606c-2.296,4.758-3.647,9.601-4.072,14.529c-1.84-2.836-3.937-4.94-6.292-6.308
	c-4.75-2.758-10.913-2.774-18.486-0.051c-4.518,1.595-14.168,5.397-28.951,11.411c-0.532,0.166-0.797,0.581-0.797,1.244
	l0.349,13.854c0.033,0.365,0.25,0.697,0.648,0.996l5.381,2.938l0.897-0.1l27.157-9.666c1.429-0.531,2.724-0.664,3.887-0.398
	c1.229,0.3,2.043,0.964,2.441,1.992c1.462,4.086-0.332,7.441-5.381,10.066l-5.232,2.143l-6.029,2.242l-11.561,3.537l-10.314,2.94
	c-0.465,0.133-0.647,0.432-0.548,0.896l1.096,14.352l0.498,1.396l5.282,4.485l1.146,0.148l10.464-2.99l11.411-3.688
	c10.63-3.82,18.154-6.627,22.573-8.421c4.318-1.761,6.81-6.129,7.474-13.104c0.062-0.688,0.103-1.383,0.129-2.084
	c2.991,4.629,6.777,8.478,11.353,11.552c-1.065,2.585-1.114,5.243-0.122,7.973c1.03,2.89,2.923,4.899,5.681,6.029
	c2.658,1.063,5.481,1.063,8.471,0c2.923-1.063,5.016-2.923,6.279-5.581c0.163-0.354,0.303-0.707,0.426-1.063
	c6.054,0.478,12.224-0.408,18.509-2.674c6.351-2.275,11.743-5.525,16.187-9.738l6.785,0.222c2.823-1.03,4.85-2.791,6.078-5.282
	s1.329-5.132,0.301-7.923c-0.498-1.397-1.269-2.595-2.293-3.604c2.653-7.078,3.242-14.324,1.76-21.74
	c2.429,3.183,5.238,5.619,8.455,7.258c5.58,2.824,12.024,3.173,19.334,1.047c10.695-3.156,20.578-6.445,29.647-9.866l0.747-0.548
	C199.716,66.889,199.716,66.521,199.583,66.023z"/>
</svg>
