<?xml version="1.0" encoding="utf-8"?>
<!-- Generator: Adobe Illustrator 16.0.0, SVG Export Plug-In . SVG Version: 6.00 Build 0)  -->
<!DOCTYPE svg PUBLIC "-//W3C//DTD SVG 1.1//EN" "http://www.w3.org/Graphics/SVG/1.1/DTD/svg11.dtd">
<svg version="1.1" id="图层_1" xmlns="http://www.w3.org/2000/svg" xmlns:xlink="http://www.w3.org/1999/xlink" x="0px" y="0px"
	 width="297px" height="294px" viewBox="0 0 297 294" enable-background="new 0 0 297 294" xml:space="preserve">
<path d="M296.699,117.25c-2.936-11.509-4.62-17.548-5.055-18.115l-4.054-3.002l-4.254-2.752l-1.101-0.4l-1.2,0.35
	c-21.752,10.676-34.013,16.63-36.781,17.865c-1.435-0.434-2.401-1.234-2.901-2.402c-0.201-0.5-0.301-1.067-0.301-1.701
	c0-1.168,0.301-2.286,0.899-3.353c0.635-1.134,2.521-2.686,5.655-4.654c2.302-1.401,4.504-2.619,6.604-3.653l15.813-8.006
	l14.861-7.657c0.368-0.232,0.578-0.515,0.666-0.837l0.034-0.014l-0.026-0.022c0.053-0.224,0.058-0.462-0.021-0.729l-2.354-7.957
	l-2.502-7.957c-0.199-0.467-3.035-3.119-8.506-7.957c-0.302-0.2-0.802-0.117-1.503,0.25c-26.989,14.245-42.502,22.485-46.538,24.721
	c-3.972,2.213-7.189,5.219-9.673,9.001c-2.979-2.679-6.21-5.008-9.702-6.968c0.014-0.346-0.01-0.718-0.093-1.132l-0.329-0.911
	l0.922-2.062c1.281,0.142,2.553,0.204,3.813,0.17c3.869-0.1,7.105-1.018,9.708-2.752l0.55-0.75c1.402-4.137,1.369-8.507-0.1-13.111
	c-1.168-3.736-2.619-6.272-4.354-7.606c-0.101-0.133-0.25-0.217-0.45-0.25c-0.267-0.033-0.5,0.067-0.699,0.3
	c-0.334,0.367-0.984,0.55-1.953,0.55c-1,0.034-1.951-0.184-2.853-0.65c-1.567-0.867-2.317-1.751-2.252-2.652l-0.05-1.101
	l-0.602-0.551c-4.369-1.535-8.807-1.401-13.311,0.4c-2.803,1.101-5.238,2.602-7.307,4.504c-2.135,2.035-3.203,3.953-3.203,5.755
	l0.051,0.5c0.882,3.136,2.469,5.948,4.74,8.445c-0.33,0.712-0.291,1.662,0.117,2.85l-0.573,1.647
	c-0.604,0.238-1.149,0.642-1.632,1.22c-0.146,0.188-0.272,0.384-0.383,0.588L178,74.264l-5.861,0.369
	c1.978-2.438,3.258-5.24,3.811-8.426c0.801-4.47,0.101-9.058-2.104-13.761L153.779,10.21l-0.551-0.65L142.47,0.451l-2.202-0.1
	l-15.413,9.809c-0.4,0.233-0.6,0.567-0.6,1l0.3,1.251l8.958,19.416c6.005,13.111,9.475,20.951,10.409,23.52
	c1,2.669,1.501,4.787,1.501,6.355c0,2.068-0.951,3.853-2.852,5.354c-2.135-0.3-4.087-2.302-5.855-6.005l-16.664-36.08
	c-0.3-0.567-0.751-0.968-1.351-1.201l-3.503-1.702l-4.254-2.151l-2.252,0.05c-1.301,0.734-3.92,2.369-7.856,4.904l-6.305,4.053
	l-0.801,0.75l0.25,1.201c0.167,0.634,3.103,7.84,8.808,21.618l10.159,24.32c2.335,5.305,6.155,9.425,11.459,12.361
	c4.602,2.567,8.981,3.541,13.142,2.965c-4.275,4.682-7.645,9.945-10.089,15.801c-0.101,0.242-0.187,0.487-0.284,0.73
	c-4.694-5.944-10.396-10.686-17.131-14.191c-7.573-3.937-15.646-5.905-24.22-5.905c-10.274,0-19.479,2.584-27.623,7.728
	c-0.448-0.773-1.228-1.779-2.353-3.024c-1.702-1.801-7.707-6.289-18.015-13.461c-9.008-6.239-14.095-9.692-15.263-10.359
	c-0.5-0.3-1.251-0.417-2.251-0.35l-4.955,0.45L9.458,70.26c-0.5,0.1-0.801,0.367-0.901,0.8L5.555,85.473
	c-0.1,0.367-0.05,0.684,0.15,0.951l0.6,0.65l11.71,9.008l15.613,12.26c2.969,2.535,4.554,4.971,4.754,7.306l-1.401,0.1
	c-0.5-0.267-4.237-3.103-11.209-8.507l-11.36-8.958c-0.701-0.534-1.201-0.834-1.501-0.901l-1.352,0.05l-3.903,0.851l-4.604,1.251
	c-0.5,0.133-0.801,0.434-0.901,0.901L0.05,114.097c-0.1,0.534-0.05,0.967,0.15,1.301l0.801,1.001l10.309,10.059
	c6.873,6.572,11.293,10.675,13.261,12.31c2.102,1.668,4.187,2.936,6.255,3.803c0.858,0.365,1.635,0.621,2.343,0.787
	c0.221,6.21,1.454,12.072,3.702,17.587l-2.492,0.041c-1.001,0.201-1.868,0.568-2.602,1.103c-0.58,0.396-1.055,0.896-1.445,1.488
	c-1.612,1.874-2.589,3.978-2.908,6.317c-0.4,2.836,0.183,5.504,1.751,8.006c1.568,2.502,3.669,4.121,6.305,4.854
	c2.233,0.634,4.663,0.562,7.283-0.194c0.871-0.15,1.647-0.449,2.325-0.906c0.934-0.668,1.685-1.635,2.252-2.901
	c0.153-0.377,0.276-0.767,0.385-1.161c4.372,4.627,9.326,8.326,14.868,11.086c-0.954,2.405-1.286,6.416-0.991,12.043
	c0.233,4.604,1.251,15.479,3.052,32.629c0.1,0.565,0.234,0.934,0.4,1.101l0.751,0.351c10.142,2.803,15.43,4.17,15.863,4.104
	c0.333-0.065,1.535-1.102,3.603-3.104l3.252-3.352c0.134-0.301-0.033-2.369-0.5-6.206l-1.001-12.36
	c-0.267-3.469-0.367-5.972-0.3-7.506c0.033-1.035,0.15-1.785,0.35-2.252l0.211-0.449c0.839,0.023,1.686-0.035,2.541-0.201
	c0.802-0.151,1.547-0.39,2.248-0.691c0.768,1.179,1.375,2.425,1.805,3.744c0.601,2.002,0.951,4.453,1.051,7.355
	c0.1,4.104,0.7,13.027,1.801,26.771l0.1,0.451c0.133,0.334,0.384,0.533,0.75,0.602l7.006,1.9l8.458,2.053
	c0.367,0.033,0.684-0.084,0.951-0.352l3.853-4.654l2.953-3.803l0.3-0.801l0.1-1.251c-0.601-25.789-1.585-40.649-2.953-44.588
	c-0.854-2.401-1.798-4.213-2.832-5.446c1.354-0.939,2.688-1.929,3.982-3.011c6.595-5.462,11.576-12.073,14.946-19.83
	c3.083,4.095,6.723,7.722,10.926,10.873c3.907,2.925,8.074,5.242,12.483,6.993c-6.814,4.186-12.404,9.682-16.737,16.525
	c-4.537,7.14-7.206,14.896-8.006,23.271c-0.716,7.91,0.296,15.599,3.011,23.063c-0.462,0.162-0.893,0.367-1.259,0.656l1.378,0.201
	l-0.027,0.051l0.14,0.072l-4.593,0.126c-2.102,0.802-3.553,2.187-4.354,4.154c-0.934,2.668-0.734,5.354,0.601,8.057
	c0.634,1.334,1.551,2.519,2.752,3.554c0.609,0.504,0.999,0.604,1.172,0.301l0.229-0.051l0.701-0.101l1.301,0.399l0.5,0.25l0.701,0.5
	l0.3,0.802c0.067,0.334,0.167,0.532,0.3,0.601c2.903,0.7,5.638,0.418,8.207-0.851c0.806-0.408,1.519-0.89,2.161-1.429
	c3.03,3.315,6.694,6.361,11,9.136c0.824,0.522,1.66,1.017,2.504,1.491l0.549,21.427c0,0.399,0.05,0.668,0.15,0.801
	c0.133,0.234,0.416,0.386,0.85,0.451l16.215,0.101c0.732,0,1.102-0.334,1.102-1l0.088-15.479c4.904,0.646,9.819,0.584,14.742-0.176
	l0.131,15.902c-0.065,0.334-0.016,0.65,0.15,0.95l0.751,0.552l16.765,0.049c0.967,0.066,1.519-0.184,1.65-0.75v-2.303v-12.01
	l-0.125-9.376c1.042-0.628,2.073-1.28,3.078-1.983c2.691-1.899,5.161-4.024,7.425-6.361c0.123,0.854,0.343,1.675,0.683,2.459
	c0.533,1.268,1.283,2.234,2.252,2.902c0.767,0.564,1.672,0.897,2.707,1.015c2.476,0.653,4.775,0.688,6.9,0.086
	c2.602-0.7,4.688-2.302,6.255-4.804c1.567-2.537,2.169-5.205,1.802-8.008c-0.355-2.44-1.39-4.619-3.076-6.541
	c-0.308-0.429-0.668-0.802-1.08-1.119c-0.033-0.03-0.063-0.063-0.098-0.096l-0.005,0.016c-0.051-0.037-0.094-0.08-0.146-0.115
	c-1.635-1.135-3.502-1.52-5.604-1.151l-0.235,0.067c2.553-5.663,4.047-11.66,4.459-17.997c0.488,0.045,0.978,0.091,1.481,0.114
	c3.47,0.166,11.56-2.803,24.271-8.907l18.967-9.759l1.251-1.051c0.167-0.301,0.217-0.733,0.149-1.301l-1.25-6.557l-1.553-7.956
	c-0.1-0.501-0.367-0.917-0.801-1.251l-6.455-4.104l-0.9-0.201c-0.367,0.033-0.852,0.185-1.451,0.451l-30.525,14.512
	c-1.134-0.435-1.816-1.418-2.052-2.951v-0.602c0-0.733,0.134-1.418,0.399-2.052c0.269-0.603,0.617-1.034,1.051-1.302
	c2.57-1.334,9.291-4.454,20.168-9.357l16.265-7.257c0.565-0.267,0.935-0.6,1.101-1l0.101-1.252
	c-1.567-8.606-2.502-13.192-2.802-13.762l-3.004-2.752l-3.453-2.853c-0.434-0.434-0.851-0.635-1.25-0.602l-1.603,0.602
	c-23.651,11.242-37.215,17.881-40.684,19.916c-2.822,1.678-5.183,3.863-7.091,6.547c-1.418-1.115-2.969-2.229-4.67-3.344
	c-2.396-1.508-4.896-2.811-7.487-3.927c4.108-2.431,7.874-5.438,11.291-9.034c6.813-7.177,11.377-15.74,13.708-25.677
	c2.943,1.221,5.683,1.896,8.21,2.007l7.457-0.601c3.271-0.701,7.038-2.052,11.309-4.054c3.804-1.768,11.076-5.455,21.818-11.059
	l15.914-8.507l0.75-0.75C296.834,118.217,296.834,117.817,296.699,117.25z"/>
</svg>
