<?xml version="1.0" encoding="utf-8"?>
<!-- Generator: Adobe Illustrator 16.0.0, SVG Export Plug-In . SVG Version: 6.00 Build 0)  -->
<!DOCTYPE svg PUBLIC "-//W3C//DTD SVG 1.1//EN" "http://www.w3.org/Graphics/SVG/1.1/DTD/svg11.dtd">
<svg version="1.1" id="图层_1" xmlns="http://www.w3.org/2000/svg" xmlns:xlink="http://www.w3.org/1999/xlink" x="0px" y="0px"
	 width="240px" height="286px" viewBox="0 0 240 286" enable-background="new 0 0 240 286" xml:space="preserve">
<path d="M234.49,117.614c1.363-7.954,1.08-15.825-0.85-23.613c-1.765-7.123-4.011-11.366-6.738-12.73
	c-1-9.885-3.463-17.29-7.389-22.215c-2.164-2.696-4.377-4.16-6.641-4.393c-2.33-0.233-4.941,0.832-7.838,3.195
	c-0.395,0.322-0.76,0.649-1.145,0.973c-1.664-5.089-3.457-10.316-5.396-15.7c-2.928-8.054-6.174-16.441-9.734-25.161L183.32,4.742
	c-0.998-2.496-2.995-4.01-5.99-4.543c-2.696-0.466-5.574-0.066-8.637,1.198c-3.129,1.265-5.441,3.029-6.939,5.292
	c-1.697,2.563-1.947,5.208-0.748,7.938l6.59,12.73c-6.855-2.563-11.1-3.578-12.729-3.045c-0.8,0.266-1.248,1.381-1.349,3.345
	c-0.133,2.063,0.199,4.127,0.998,6.19c0.301,0.732,1.896,2.014,4.793,3.844c3.295,2.097,5.226,3.428,5.791,3.994l8.586,7.488
	l7.539,6.689c2.774,4.657,5.474,10.783,8.096,18.345c-1.287,1.789-2.459,3.594-3.504,5.417c-3.928,6.822-6.041,13.645-6.34,20.468
	c-0.065,1.442-0.025,2.84,0.102,4.202l-4.475,6.273c-2.961-10.666-10.912-18.539-23.883-23.605c1.73-5.159,3.428-9.585,5.092-13.279
	s3.812-7.788,6.44-12.281l4.044-6.689c1.164-2.396,1.164-4.177,0-5.341c-1.498-1.498-4.71-2.263-9.635-2.296
	c-4.494,0-7.239,0.366-8.238,1.098c-0.932,0.666-2.08,3.828-3.443,9.485c0.299-9.585-0.149-14.894-1.349-15.925
	c-2.329-2.063-6.206-0.666-11.632,4.193c-5.191,4.66-7.92,8.503-8.188,11.532c-1.931-0.766-4.792,0.133-8.586,2.695
	c-3.96,2.729-5.524,5.492-4.692,8.287c0.433,1.498,1.481,3.927,3.145,7.289c1.564,3.128,3.095,5.974,4.593,8.537
	c-7.954,2.496-14.411,6.956-19.37,13.379c-4.526,5.857-7.372,12.747-8.537,20.667c-1.098,7.622-0.499,15.076,1.797,22.365
	c2.429,7.521,6.34,13.662,11.731,18.421c-2.696,0.299-5.458,0.965-8.287,1.996c-2.995,1.133-5.757,2.579-8.287,4.344
	c-13.246,2.029-25.843,6.789-37.791,14.277c-2.934,1.83-5.625,3.71-8.09,5.637c-9.616-6.944-17.746-11.883-24.359-14.771
	c-6.356-2.764-10.617-3.378-12.78-1.848c-2.463,1.765-1.88,6.189,1.747,13.279c3.965,7.737,10.319,15.43,19.047,23.077
	c-0.057,0.13-0.121,0.257-0.176,0.386c-11.915,9.318-19.869,16.707-23.863,22.164c-3.062,4.228-1.381,7.889,5.042,10.982
	c2.363,1.133,4.942,1.98,7.738,2.547l5.391,0.35c1.698-0.5,3.645-1.28,5.841-2.347l6.59,5.491c3.095,2.297,5.791,3.527,8.087,3.693
	c1.764,0.135,4.826-0.448,9.186-1.746l0.82-0.258c0.05,0.217,0.106,0.437,0.178,0.656c0.565,1.83,1.78,3.361,3.644,4.594
	c3.228,2.063,6.224,5.008,8.986,8.836c3.262,4.492,7.355,11.664,12.281,21.516c0.566,1.165,1.181,2.064,1.847,2.695
	c0.632,0.565,1.131,0.8,1.498,0.699c1.93-0.433,3.245-3.578,3.944-9.436c3.994,1.432,7.921,3.295,11.781,5.591
	c1.065,0.601,2.03,0.916,2.896,0.949c0.632,0.032,1.131-0.101,1.498-0.399c0.699-0.498,1.148-1.465,1.348-2.896
	c0.366-2.197,0.033-5.19-0.999-8.986c3.561,1.231,7.555,2.431,11.981,3.595l3.844,0.449c0.932-0.1,1.498-0.35,1.697-0.748
	c0.666-1.231,0.25-2.828-1.248-4.793c-1.897-2.463-6.257-6.689-13.08-12.681c-4.101-3.584-7.27-5.998-9.522-7.267
	c2.396,0.576,4.917,1.037,7.575,1.375c2.292,0.293,4.545,0.463,6.764,0.518c2.759,2.673,7.724,8.088,14.9,16.257l9.336,9.935
	c1.265,1.465,2.547,1.731,3.845,0.8c1.598-1.132,2.528-3.944,2.795-8.437l12.53,5.939l3.244,0.849c1,0.033,1.683-0.133,2.047-0.499
	c1.398-1.464,0.517-5.059-2.646-10.783l8.985,2.598l2.098,0.199c0.498-0.066,0.848-0.366,1.049-0.898
	c1.098-2.764-1.881-6.475-8.938-11.133c-6.071-4.006-13.457-7.68-22.133-11.025c0.322-0.169,0.646-0.33,0.967-0.506
	c11.482-6.291,19.402-13.546,23.763-21.768c4.293-8.086,6.239-19.27,5.841-33.547l0.08-4.162c1.406,1.662,2.699,2.951,3.863,3.813
	c2.829,2.131,5.857,2.612,9.086,1.448c4.227-1.531,6.439-5.81,6.641-12.83c0.086-3.724-0.418-8.058-1.484-12.97l11.09-8.864
	c0.928,2.235,1.902,3.515,2.925,3.813c1.535,0.453,5.216-0.553,11.03-3.012c0.266,1.932,0.502,3.79,0.701,5.557
	c1.099,10.019,1.23,18.422,0.398,25.211l-0.699,4.244c-0.498,1.963-1.297,3.727-2.396,5.291c-1.896,2.629-1.164,4.959,2.196,6.987
	c3.162,1.933,5.925,2.496,8.287,1.698c2.164-0.766,4.193-2.08,6.09-3.943c1.898-1.896,3.313-4.027,4.244-6.391
	c1.031-2.63,1.049-8.555,0.05-17.771c-0.632-6.092-1.937-15.48-3.912-28.154c4.271-2.408,6.896-4.375,7.856-5.892
	c1.896-2.929,3.295-7.006,4.192-12.231C236.121,124.753,235.921,120.477,234.49,117.614z M121.168,179.466
	c-0.313,1.289-0.682,2.367-1.097,3.279c-0.003-0.013-0.007-0.021-0.011-0.031c1.01-2.834,1.661-5.649,1.907-8.438
	C121.834,176.072,121.568,177.802,121.168,179.466z M126.061,177.619l-1.748-1.896c-0.022-0.021-0.045-0.037-0.068-0.058
	C125,176.256,125.613,176.904,126.061,177.619c0.166-0.832,0.267-2.096,0.299-3.793l-0.1-4.145l0.2,4.145
	C126.46,175.189,126.326,176.455,126.061,177.619z M132.001,173.826l-2.845-2.646c-0.244-0.194-0.485-0.371-0.726-0.529
	c1.042,0.66,2.162,1.621,3.37,2.926l1.749-4.516C132.909,170.509,132.391,172.093,132.001,173.826z M133.602,168.926
	c0.366-0.785,0.715-1.451,1.047-2.011C134.271,167.553,133.92,168.221,133.602,168.926z M134.764,166.725
	c0.205-0.33,0.402-0.617,0.592-0.859C135.159,166.15,134.948,166.423,134.764,166.725z M136.811,166.404
	c0.357,0.441,0.782,0.884,1.281,1.33c0.209,0.186,0.409,0.334,0.61,0.483C137.956,167.742,137.328,167.136,136.811,166.404z"/>
</svg>
