<?xml version="1.0" encoding="utf-8"?>
<!-- Generator: Adobe Illustrator 16.0.0, SVG Export Plug-In . SVG Version: 6.00 Build 0)  -->
<!DOCTYPE svg PUBLIC "-//W3C//DTD SVG 1.1//EN" "http://www.w3.org/Graphics/SVG/1.1/DTD/svg11.dtd">
<svg version="1.1" id="图层_1" xmlns="http://www.w3.org/2000/svg" xmlns:xlink="http://www.w3.org/1999/xlink" x="0px" y="0px"
	 width="252px" height="331px" viewBox="0 0 252 331" enable-background="new 0 0 252 331" xml:space="preserve">
<path d="M251,194.463c-0.467-2.266-1.398-4.081-2.799-5.447c-1.1-1.1-3.698-3.082-7.797-5.947l-11.945-8.297
	c-3.697-2.565-7.23-5.364-10.596-8.396l-3.223-2.979l-0.427-0.97l-1.05-2.299l2.999-0.15l0.8-0.25c0.1-0.167-0.033-0.434-0.398-0.8
	l-2.649-2.399l2.599-1.049c0.967-0.367,1.033-0.816,0.2-1.35l-2.599-1.449c0.666-0.8,1.682-1.616,3.049-2.449
	c0.966-0.466,0.966-0.95,0-1.449l-3.398-1.05l2.35-5.998c1.031-2.699,1.449-4.165,1.248-4.398l-2.348,0.1l-2.449,0.5l-0.801-3.849
	l-0.55-2.999l-0.399-0.85c-0.166-0.066-0.434,0.05-0.799,0.35l-2.5,1.949l-0.8-5.897c-0.065-0.566-0.25-0.85-0.55-0.85
	c-0.434,0.034-1.266,0.533-2.499,1.5c-0.833-5.631-1.416-8.747-1.749-9.346c-0.232-0.433-0.467-0.633-0.699-0.6l-0.75,0.649
	l-1.25,1.949l-1.299,1.899l-2.398-5.348l-0.551-0.1l-0.449,0.65l-0.949,2.349l-1.801-2.949c-0.365-0.633-0.666-0.916-0.898-0.85
	c-0.134,0.033-0.283,0.3-0.45,0.8l-0.35,1.749c-0.933-0.466-2.032-1.399-3.3-2.799l-2.549-2.898
	c-0.766-0.867-1.266-1.283-1.498-1.25c-0.201,0-0.518,0.417-0.951,1.25l-0.948,2.299l-0.899,2.099
	c-0.634-0.267-1.781-0.966-3.447-2.099l-2.301-1.649l-0.748-0.3c-0.201,0.033-0.334,0.283-0.4,0.75l-0.15,2.449l-1.499-0.85
	l-0.8-0.25c-0.166,0.033-0.232,0.283-0.199,0.75l0.1,1.799c-0.899-0.133-2.448-0.716-4.647-1.749l-3.448-1.75l-0.949-0.2
	c-0.232,0.1-0.399,0.383-0.5,0.85c-0.133,0.566-0.101,2.565,0.101,5.998l-2.649-0.65l-2.549-0.35c-0.434,0.066-0.666,0.2-0.699,0.4
	c-0.033,0.167,0.051,0.45,0.25,0.85l0.851,1.049l0.799,1.25l-2.647-0.15c-0.768,0-1.066,0.283-0.9,0.85l0.551,1.799l0.35,1.5
	l-1.199,0.45l-0.899,0.2c-0.299,0.167-0.448,0.316-0.448,0.45l0.299,0.9l1.35,1.799l-1.699,0.5c-0.766,0.2-1.199,0.433-1.299,0.7
	c-0.066,0.233,0.133,0.683,0.6,1.35l0.801,1c-0.2,0.4-0.801,0.899-1.801,1.5l-2.697,1.5c-2,1.033-3.282,1.732-3.85,2.099l-1.199,1
	c-0.033,0.267,0.299,0.6,1,1l3.049,1.949l-1.5,0.9l-0.649,0.5c-0.033,0.133,0.052,0.3,0.25,0.5l2.649,1.899l-3.35,1.399
	c-1.365,0.5-2.232,0.85-2.6,1.05c-0.832,0.367-0.865,0.85-0.1,1.449l3.599,2.349c0.534,0.344,1.005,0.655,1.424,0.937
	c-7.991,2.721-16.028,3.917-24.115,3.562c-4.467-0.2-8.576-0.859-12.326-1.977l-1.218-2.122l3.099-0.15l0.75-0.5l-0.649-1
	l-3.399-3.798l5.798-1.35c0.433-0.3,0.316-0.716-0.35-1.25c-3.698-2.499-6.031-4.015-6.997-4.548l1.849-1.1
	c0.566-0.367,0.65-0.667,0.25-0.9l-2.049-1.1l1.45-1.649c0.366-0.366,0.466-0.683,0.3-0.949l-0.9-0.65
	c-0.766-0.466-1.566-1.2-2.399-2.199c0.167-0.533,0.866-1.683,2.099-3.449c0.733-1,0.583-1.549-0.45-1.649l-4.948-0.6l-0.05-0.8
	c0-1.642,0.205-3.064,0.574-4.31c6.2-8.037,10.616-15.947,13.221-23.729c2.689-8.003,3.917-17.235,3.715-27.668l2.333-2.37
	l2.849-3.449c0.333,0.367,0.85,1.516,1.549,3.449l1.25,0.05c0.334-0.4,0.699-1.266,1.101-2.599l0.799-2.599l1.3,2.699l0.5,0.9
	c0.2,0.167,0.467,0.066,0.801-0.3c0.766-0.766,1.433-1.782,1.998-3.048c0.445-0.965,0.762-1.883,0.949-2.756
	c3.719,3.576,8.198,7.36,13.445,11.353c2.366,1.799,5.098,3.299,8.195,4.499c3.3,1.266,5.549,1.583,6.748,0.95
	c1.199-0.6,1.666-1.583,1.398-2.949c-0.232-1.199-0.933-2.366-2.099-3.499c-9.132-8.887-15.063-15.584-17.812-20.105l7.114-0.986
	l17.394-1.15c10.363-0.2,17.627,0.35,21.793,1.649c2.432,0.767,3.932,0.783,4.498,0.05c0.533-0.667,0.231-1.833-0.9-3.499
	c-0.766-1.1-1.749-2.166-2.948-3.199c-1.366-1.166-2.731-2.049-4.099-2.649c-0.899-0.366-2.715-0.566-5.447-0.6l-8.247-0.15
	l-14.646-1.25c-5.246-0.599-9.816-1.321-13.721-2.164l1.377-2.085l0.198-0.75c-0.065-0.167-0.282-0.3-0.649-0.4l-2.099-0.55
	l2.599-6.397c0.201-0.7-0.066-1.016-0.799-0.95l-2,0.4l-1.898,0.3l0.35-1.799l0.2-2.099l-0.25-0.95l-0.899,0.25l-1.6,0.8l0.75-5.098
	l0.799-5.547c0.067-0.933-0.365-1.083-1.299-0.45c-2.031,1.633-3.516,2.649-4.447,3.049l-3.1-6.197l-0.55-0.65
	c-0.2-0.033-0.517,0.2-0.95,0.7l-1.449,2.099l-1.749-2.999l-0.85-0.75c-0.267,0-0.417,0.316-0.45,0.95l-0.148,1.649l-3.45-4.748
	l-3.299-4.298c-0.2-0.233-0.4-0.35-0.6-0.35c-0.167,0.034-0.35,0.15-0.55,0.35l-1.1,1.999l-1.399,2.899l-2.249-1.999
	c-1.033-0.9-1.933-1.516-2.699-1.85c-0.666-0.3-1-0.05-1,0.75l0.35,3.199l-2.549-1.399c-0.933-0.533-1.599-0.816-1.999-0.85
	c-0.4-0.034-0.633,0.05-0.7,0.25l0.15,0.85l0.3,1.599L97.211,2.49l-1.15-0.2c-0.399,0.067-0.533,0.5-0.399,1.3l0.799,2.949
	l0.85,3.499l-5.647-0.6l-4.598-0.6c-0.433,0.034-0.7,0.2-0.8,0.5v0.75l0.6,1.999l0.65,2.549c-1.633-0.7-2.932-1.049-3.898-1.049
	c-1.066,0-1.266,0.417-0.6,1.25l1.849,2.699c-1.799-0.1-2.882-0.083-3.249,0.05l-0.55,0.35l0.05,0.65
	c0.2,0.566,0.766,1.416,1.699,2.549l-7.247,3.398c-0.533,0.333-0.616,0.716-0.25,1.15l4.848,5.897l-3.099,1.6
	c-0.566,0.233-0.833,0.466-0.8,0.699l0.95,1l1.5,1.149l-2.399,0.85l-1.799,0.5c-0.6,0.366-0.633,0.783-0.1,1.25l3.449,3.049
	l2.399,2.349l-3.648,3.748c-0.233,0.333-0.2,0.667,0.1,1c0.3,0.3,2.066,1.033,5.298,2.199l-1.049,0.699l-1.05,0.6
	c-0.433,0.3-0.5,0.667-0.2,1.1l1.5,0.95l1.949,0.6l-3.199,1.949c-0.633,0.466-0.633,0.916,0,1.35c0.466,0.3,1.499,0.483,3.099,0.55
	h3.349l-1.649,5.198c-0.366,0.933-0.066,1.299,0.9,1.1l2.349-0.65l2.299-0.5l-0.25,3.049c0,0.3,0.05,0.517,0.15,0.65l0.7,0.15
	c0.367-0.033,0.966-0.35,1.799-0.95l1.7-1.199l-0.4,1.899l-0.55,1.75l-0.15,0.75c0.1,0.267,0.45,0.35,1.049,0.25
	c0.767-0.133,1.75-0.517,2.949-1.149l2.449-1.35l-0.5,2.049c-0.066,0.333-0.033,0.533,0.1,0.6h0.9l1.799-0.95
	c0.966-0.666,1.616-1.049,1.949-1.149l-0.5,1.2c-0.1,0.233-0.05,0.417,0.15,0.55l0.75,0.05l0.681-0.238
	c1.019,5.44,0.322,12.851-2.13,22.28c-2.596,9.928-6.015,17.464-10.253,22.621c-0.758,0.273-1.643,0.479-2.645,0.622l-0.947-5.3
	c-0.233-0.767-0.683-0.9-1.349-0.4c-0.966,0.966-1.85,1.633-2.649,1.999c-1.799-3.732-3.199-6.098-4.198-7.097
	c-0.5-0.5-0.983-0.35-1.45,0.45l-0.75,1.45l-1.6,2.299c-0.866-2.432-1.5-3.848-1.899-4.248c-0.533-0.533-0.95-0.483-1.25,0.15
	l-0.7,1.849l-1.05,1.849l-1.299-2.549l-1.5-2.649c-0.6-0.766-1.066-0.683-1.399,0.25c-0.566,2.032-1.1,3.415-1.6,4.148l-3.298-3.299
	c-1.033-1.033-1.666-1.533-1.899-1.5c-0.233,0.033-0.35,0.683-0.35,1.949l-0.05,1.799l-2.549-2.499c-0.5-0.4-0.85-0.566-1.05-0.5
	c-0.233,0.066-0.283,0.45-0.15,1.149l0.45,3.698l-3.199-2.898c-2.199-1.899-3.482-2.866-3.848-2.899
	c-0.367-0.034-0.6,0.55-0.7,1.749l-0.3,3.049l-3.249-1.899c-1.566-0.966-2.749-1.466-3.548-1.5c-0.4,0-0.633,0.133-0.7,0.4
	l-0.4,2.049l-0.75,2.649l-2.899-1.499c-1.266-0.6-2.232-0.95-2.898-1.05c-0.533-0.1-0.75,0.233-0.65,1l0.75,3.149l-1.599-1.399
	l-1.649-1.5c-0.433-0.3-0.716-0.383-0.85-0.25c-0.134,0.133-0.2,0.483-0.2,1.05l0.25,1.849l0.7,3.049l-4.298-1.699
	c-1.899-0.767-3.199-1.183-3.898-1.25c-0.4,0-0.649,0.167-0.75,0.5c-0.433,1.066-0.65,3.615-0.65,7.647l-3.148-0.399
	c-0.5,0.133-0.5,0.583,0,1.349l1.299,2.199l-2.749-0.5c-0.966-0.1-1.266,0.133-0.899,0.699l1.299,1.649l-3.849-0.05
	c-1.899-0.1-3.115-0.1-3.648,0c-0.466,0.1-0.583,0.433-0.35,1l1.699,2.199l2.249,2.949l-3.149,0.7l-2.799,0.65
	c-0.5,0.267-0.75,0.517-0.75,0.75l0.5,0.75l2.849,1.299l-1.849,0.25c-0.667,0.066-1.083,0.183-1.25,0.35
	c-0.3,0.3-0.184,0.7,0.35,1.2l1.399,1l-2.899,0.5l-2.999,0.45c-0.9,0.167-1.366,0.433-1.399,0.8c0,0.233,0.233,0.799,0.7,1.699
	c0.6,1.2,2.232,3.715,4.898,7.547l-2.999,1c-0.966,0.566-1,1.116-0.1,1.649l1.199,0.6l1.2,0.75l-2.249,0.35l-1.849,0.35
	c-0.3,0.233-0.434,0.417-0.4,0.55l0.45,0.55l3.648,2.449l-1.899,0.7c-0.966,0.267-1.566,0.5-1.799,0.7
	c-0.6,0.433-0.517,0.766,0.25,1l3.599,0.649l-3.148,2c-1.933,1.199-3.032,1.933-3.299,2.199c-0.467,0.5-0.35,0.933,0.35,1.299
	l2.649,1.05c1.7,0.666,2.932,1.216,3.699,1.648l-2.499,2.699c-0.633,0.767-0.566,1.232,0.2,1.398l2.699-0.05l-1.35,1.649
	c-0.566,0.899-0.333,1.35,0.7,1.35l1.549-0.199l-2.749,2.748c-0.5,0.666-0.317,1.115,0.55,1.35l1.749,0.4l2.049,0.648l-1.6,1.949
	l-1.899,2.1c-0.3,0.334-0.433,0.565-0.4,0.699c0,0.233,0.45,0.366,1.35,0.399l1.899-0.199l2.899-0.149l-0.95,1.3
	c-0.333,0.6-0.233,0.916,0.3,0.948l2.299,0.149l-2.649,1.9c-0.8,0.6-0.617,0.981,0.55,1.147l4.348-0.299l-1.299,2.748
	c-0.667,1.333-1.05,2.266-1.15,2.799v0.65c0.067,0.166,0.3,0.268,0.7,0.3l6.397-1.149l-1.899,3.898
	c-0.167,0.398-0.183,0.684-0.05,0.85l0.7,0.101l2.049-0.649l2.099-0.5l-1.299,2.301c-0.633,1.199-0.866,1.832-0.7,1.897l3.149-0.5
	l3.848-0.999l-1.299,2.749l-1.449,2.949c-0.233,0.399-0.217,0.666,0.05,0.799l1.049-0.05l4.249-1.85
	c0.192-0.088,0.352-0.154,0.533-0.233c0.201,3.403-0.685,7.772-2.682,13.129c-1.899,5.131-3.865,8.979-5.897,11.545
	c-1.399,1.731-2.033,3.282-1.899,4.647c0.167,1.566,1.333,3.898,3.499,6.998c3.332,4.797,7.447,12.012,12.345,21.642
	c5.564,10.963,8.597,18.51,9.097,22.641c0.133,1.134-0.483,2.749-1.85,4.849c-1.333,2-2.366,3.065-3.099,3.199l-2.249-0.15
	l-2.149-0.449c-1.633-0.199-2.933-0.066-3.898,0.4c-0.5,0.231-1.316,1.199-2.449,2.897l-2.173,3.209
	c-0.059,0.029-0.119,0.054-0.176,0.091c-0.966,0.565-2.516,1.781-4.648,3.647c-2.866,2.532-4.148,4.313-3.849,5.348
	c0.133,0.5,0.816,0.75,2.049,0.75l5.448-0.3c1.891-0.188,3.334-0.434,4.348-0.729c1.263,0.67,2.332,0.918,3.199,0.729
	c1.1-0.268,1.933-0.816,2.499-1.648c1.066-1.799,2.799-3.183,5.198-4.148c2.56-1.049,5.712-1.563,9.442-1.555
	c0.778,1.096,1.233,2.361,1.354,3.804l-0.25,6.349l-0.1,3.748c0,1.573,1.361,3.063,4.054,4.473c0.482,1.191,1.224,2.742,2.243,4.674
	c1.833,3.564,3.065,5.531,3.698,5.896l1.35-0.148c0.767-0.668,1.333-3.049,1.699-7.147c0.156-1.823,0.225-3.329,0.213-4.54
	c0.707-0.447,1.354-1.16,1.937-2.156c0.833-1.367,1.183-2.601,1.049-3.699l-0.5-1.199l-0.9-1.648
	c-1.233-1.967-2.182-3.666-2.849-5.099c-0.689-1.474-1.167-2.992-1.45-4.554c3.434-0.358,7.576,0.186,12.445,1.654
	c5.298,1.565,8.463,3.315,9.496,5.248c1.066,2.065,2.549,3.481,4.448,4.248c1.233,0.467,2.366,0.633,3.399,0.499
	c0.566-0.065,1.066-0.332,1.499-0.799c0.297-0.321,0.484-0.67,0.616-1.028l5.932,0.528c3.532,0.133,5.381-0.033,5.548-0.5
	c0.167-0.366-0.066-0.899-0.7-1.601l-1.999-1.897c-2.592-2.351-4.729-3.918-6.422-4.729c0.086-0.889-0.187-1.895-0.825-3.019
	c-0.373-0.651-1.594-1.655-3.643-3c5.152-0.183,7.588-0.748,7.291-1.698c-0.233-0.767-1.466-1.783-3.699-3.049
	c-1.879-1.078-3.602-1.816-5.183-2.252c-0.029-0.193-0.066-0.378-0.115-0.547c-0.167-0.866-1.183-1.717-3.049-2.549
	c-2.032-0.934-3.415-1.199-4.148-0.801c-3.232,1.767-7.747,2.084-13.545,0.949c-3.587-0.701-6.494-1.809-8.758-3.298
	c-1.545-1.942-3.091-4.323-4.637-7.147c-1.5-2.698-3.865-7.58-7.097-14.645c-3.166-7.029-6.048-14.378-8.646-22.041
	c-1.664-4.922-2.691-8.361-3.085-10.333c1.591-4.122,3.252-7.714,4.984-10.759c1.635-2.88,3.208-5.064,4.722-6.57
	c0.069,0.314,0.174,0.531,0.327,0.622c0.2,0.134,0.433,0.067,0.7-0.198l0.949-1.699l1.2-2.25c0.2,0.5,0.3,1.25,0.3,2.25v2.397
	c0.2,2.533,1.033,2.683,2.499,0.45l2.049-3.499l1.449-2.299l1.15,1.55l0.663,0.663c0.346,1.687,0.443,4.306,0.287,7.883
	c-0.233,4.365-0.816,7.647-1.75,9.847c-0.433,1-0.267,2.383,0.5,4.148c0.733,1.632,1.649,2.898,2.749,3.798
	c0.966,0.802,2.033,1.218,3.199,1.25c1.167,0.033,2.216-0.267,3.149-0.899c1.466-0.967,4.731-1.982,9.796-3.049
	c5.398-1.166,10.296-1.781,14.694-1.85h5.998c2.878,0.139,4.941,0.439,6.228,0.896c-2.032,3.383-5.577,6.47-10.676,9.25
	c-1,0.5-1.599,2.065-1.799,4.699c-0.2,2.231-0.117,4.03,0.25,5.396c0.239,0.912,0.781,1.673,1.614,2.287
	c0.161,1.06,0.498,2.257,1.035,3.609c0.833,2.033,1.716,3.416,2.649,4.148c0.6,0.467,1.183,0.633,1.75,0.5
	c0.866-0.2,1.583-1.583,2.149-4.148l0.526-3.492c0.422-0.344,0.779-0.762,1.023-1.307l0.55-2.049c0.367-1.533,0.65-2.416,0.85-2.648
	l4.249-5.848l3.299-4.748c0.799-1.1,1.349-1.633,1.649-1.6c0.267,0,0.717,0.5,1.35,1.499l0.85,1.45
	c1.399,2.332,2.133,5.164,2.199,8.496c0.033,2.731-0.35,5.313-1.149,7.746c-0.233,0.834,0.216,1.883,1.35,3.148
	c0.364,0.388,0.724,0.722,1.083,1.029c0.136,1.082,0.372,2.479,0.716,4.219c0.667,3.398,1.3,5.248,1.899,5.548
	c0.866,0.367,1.982-0.833,3.349-3.599c1.055-2.109,1.786-4.103,2.23-5.991c0.281-0.175,0.542-0.356,0.771-0.558
	c0.633-0.565,1.231-2.164,1.799-4.797c0.566-2.731,0.615-4.449,0.15-5.147c-0.566-0.867-1.734-3.3-3.5-7.298
	c-1.097-2.553-1.95-4.654-2.57-6.323l0.471-0.974c1.732,0.666,4.082,2.299,7.047,4.897c2.699,2.399,4.331,4.114,4.897,5.147
	l1.1,2.648c0.768,2.032,1.133,3.717,1.1,5.049c-0.033,0.832,0.616,1.633,1.949,2.397c0.792,0.456,1.557,0.786,2.297,1
	c0.25,0.807,0.596,1.767,1.053,2.897c1,2.5,1.832,4.25,2.498,5.248c1.467,2.301,2.5,3.434,3.1,3.399
	c0.566-0.067,1.018-1.283,1.35-3.649c0.233-1.799,0.301-4.164,0.2-7.097c-0.062-1.493-0.164-2.692-0.307-3.626
	c0.435-0.682,0.741-1.529,0.905-2.57c0.168-1.334,0-2.217-0.5-2.649c-0.433-0.366-1.017-1.134-1.748-2.3l-1.851-3.349l-1.621-3.474
	c0.298,0.209,0.562,0.445,0.771,0.725c0.935,1.166,2.066,1.833,3.398,2c0.354,0.039,0.756-0.019,1.184-0.129l7.214,6.176
	c1.1,0.601,1.584-0.133,1.45-2.199c-0.102-1.565-0.518-3.332-1.25-5.297c-0.625-1.597-1.344-2.918-2.145-4
	c0.139-0.744,0.143-1.525-0.006-2.348c-0.199-1.367-0.766-2.15-1.699-2.35c-1.166-0.268-2.414-0.801-3.748-1.6
	c-1.166-0.666-2.166-1.367-2.998-2.101c-1.232-1.101-2.117-1.683-2.648-1.748c-1.899-0.233-4.799-0.95-8.696-2.149
	c-3.897-1.166-6.099-1.982-6.599-2.449c-0.934-2.133-2.748-3.447-5.447-3.947c-2.532-0.5-4.765-0.167-6.697,0.999
	c-0.633,0.333-3.798,0.815-9.496,1.45l-11.396,1.049l-4.148,0.15l-12.145,0.448l-7.647-0.399l4.855-14.192l0.042,0.049l1.149-0.05
	c0.767-1.699,1.316-2.814,1.649-3.35l1.2,3.299c0.267,0.967,0.716,1.065,1.349,0.301c0.767-0.9,1.649-2.383,2.649-4.448l2.299-4.998
	l1.1,1.999c0.5,0.934,0.933,0.768,1.299-0.5l1.3-4.848l1.999,2.799c0.333,0.366,0.6,0.482,0.8,0.35l0.35-0.898
	c0.7-3.232,1.25-5.415,1.649-6.549l3.648,2.949c0.533,0.366,0.9,0.5,1.1,0.4c0.2-0.134,0.3-0.467,0.3-1l-1.149-7.396l3.749,0.101
	c0.866-0.033,0.966-0.5,0.3-1.399l-1.949-2.35l3.299-0.45c0.5-0.133,0.6-0.481,0.3-1.049l-1.35-3.049
	c0.633-0.334,2.066-0.552,4.298-0.65c0.467-0.065,0.767-0.184,0.9-0.35c0.133-0.199,0.05-0.517-0.25-0.949
	c-1.266-1.666-2.083-2.883-2.449-3.647l1.15-0.851l0.201-0.116c5.056,1.492,9.856,2.454,14.393,2.864
	c8.472,0.735,16.744-0.358,24.818-3.243c0.202,0.065,0.436,0.117,0.723,0.145l4.799,0.102l-1.5,1.999
	c-0.866,0.933-0.75,1.383,0.35,1.349l3.049-0.299l-2.349,2.148c-0.366,0.334-0.517,0.6-0.45,0.8c0.033,0.233,0.316,0.417,0.85,0.55
	l2.699,0.051l3.398-0.051l-1.449,2.399l-0.449,1.149c0.033,0.267,0.316,0.383,0.85,0.35l6.396-1.25l-0.398,2.15l-0.399,2.248
	c-0.033,0.532,0.033,0.834,0.199,0.899l0.85-0.302l2.749-1.647c1.532-0.7,2.899-1.717,4.1-3.049l0.75,2.599
	c0.133,0.399,0.315,0.584,0.549,0.551l0.65-0.449l2.1-2l0.148,2.749c0,0.5,0.45,0.583,1.35,0.25l4.6-2.899l-0.551,3.949
	c0,0.799,0.367,1.049,1.1,0.75c1.5-0.634,3.148-1.699,4.948-3.199l2.948-2.6l0.9,2.05c0.332,0.667,0.582,0.999,0.75,0.999
	l0.799-0.799l0.801-1.1l0.799-1.101l1.75,2.699c0.466,0.532,0.898,0.6,1.299,0.198c0.629-0.709,1.178-1.854,1.648-3.414
	c1.886,1.797,3.832,3.263,5.849,4.363c6.03,3.325,14.729,5.389,26.082,6.192c0.581,0.306,1.142,0.608,1.657,0.905
	c5.031,2.897,9.613,6.697,13.744,11.396c1.865,2.134,3.231,1.666,4.099-1.399C251.383,198.111,251.4,196.396,251,194.463z"/>
</svg>
