<?xml version="1.0" encoding="utf-8"?>
<!-- Generator: Adobe Illustrator 16.0.0, SVG Export Plug-In . SVG Version: 6.00 Build 0)  -->
<!DOCTYPE svg PUBLIC "-//W3C//DTD SVG 1.1//EN" "http://www.w3.org/Graphics/SVG/1.1/DTD/svg11.dtd">
<svg version="1.1" id="图层_1" xmlns="http://www.w3.org/2000/svg" xmlns:xlink="http://www.w3.org/1999/xlink" x="0px" y="0px"
	 width="353px" height="450px" viewBox="0 0 353 450" enable-background="new 0 0 353 450" xml:space="preserve">
<path d="M347.051,190.1c-1.033-3.831-3.531-8.044-7.495-12.641c-6.929-8.061-16.487-14.106-28.68-18.137
	c-7.938-2.635-15.483-7.229-22.646-13.738c-0.104-3.988,0.347-7.275,1.36-9.845c0.533-1.399,1.482-2.948,2.849-4.647l0.648-0.799
	l-0.949-0.6c-1.397-0.833-2.83-1.565-4.297-2.198c-0.499-2.898-0.749-5.313-0.749-7.245c0-0.933,0.566-2.365,1.698-4.297l0.65-1.149
	c0.033-0.233-0.15-0.533-0.551-0.899c-0.865-0.766-1.781-1.283-2.748-1.549l1.051-1.898c0.932-1.532,0.633-2.115-0.9-1.749
	c-0.666,0.167-1.314,0.167-1.947,0l-0.949-0.85c-0.268-0.466-0.483-1.232-0.649-2.298l-0.905-4.41
	c1.409-3.39,2.221-6.488,2.403-9.281c0.467-6.828-1.481-15.706-5.847-26.631c-2.83-7.162-5.778-13.641-8.844-19.438l-7.344-12.891
	c-1.434-2.365-2.449-3.564-3.049-3.598c-0.699-0.033-0.516,1.782,0.551,5.446c2.598,8.96,5.146,20.769,7.645,35.425
	c1.776,10.506,2.973,18.956,3.588,25.363l-1.629-0.767c-4.256-8.283-9.976-17.01-17.198-26.195
	c-5.396-6.829-10.226-13.44-14.489-19.836c-4.797-7.162-8.359-13.308-10.691-18.437c-2.498-5.363-3.531-5.146-3.099,0.649
	c0.767,8.827,2.349,17.288,4.746,25.382c3.397,11.492,8.161,21.019,14.29,28.58c1.727,2.55,3.572,4.997,5.516,7.365l-6.314,1.429
	c-1.465-0.6-2.646-1.016-3.547-1.249l-2.848-0.5l-2.101-0.1c-0.267,0.133-0.049,0.6,0.649,1.399c0.967,1.1,2.031,2.715,3.197,4.847
	l-2.447-0.3l-3.498-1.199c-0.766-0.433-1.25-0.6-1.448-0.5c-0.166,0.1-0.185,0.517-0.05,1.249c0.332,1.766,0.898,3.048,1.697,3.848
	l-3.746,0.449c-1.832,0.233-2.781,0.5-2.849,0.8l0.699,1.799l0.8,1.399c-0.852,0.667-1.715,1.713-2.592,3.101
	c-0.13-0.292-0.324-0.636-0.605-1.052l-3.197-4.047l-2.5-3.048l1.8-0.7l2.349-0.75l0.999-0.45c0.134-0.233-0.1-0.649-0.698-1.249
	c-1.666-1.599-3.281-2.865-4.847-3.797l4.446-1.349c0.633-0.2,0.933-0.383,0.898-0.549l-1.6-1.299
	c-2.298-1.465-4.43-2.598-6.395-3.397l1.549-1.899c1.133-1.266,1.965-2.065,2.498-2.398l0.75-0.75
	c-0.067-0.1-0.519-0.283-1.351-0.55l-6.396,0.2c-0.768-2.065-1.565-3.431-2.398-4.097l-1.299-1.249
	c-0.167-0.399-0.2-0.966-0.102-1.699c0.135-0.799,0.4-1.565,0.801-2.298l0.6-1.549l-1.447,0.05l-3.349,1.149l-2.499,0.35
	c-0.268-0.2-0.449-0.949-0.55-2.248l-0.101-2.648c0-0.267-0.633-0.05-1.897,0.649c-0.556,0.304-1.019,0.507-1.396,0.617l2.793-3.665
	c3.299-4.563,5.746-8.744,7.347-12.541c2.063-4.796,3.829-10.759,5.296-17.887c1.564-7.562,2.432-14.74,2.6-21.535
	c0.1-4.297-0.201-6.579-0.9-6.845c-0.732-0.233-1.832,1.715-3.297,5.846c-3.231,8.894-7.412,16.688-12.541,23.383
	c-5.265,6.829-9.494,14.756-12.691,23.783c-1.523,4.295-2.584,8.035-3.202,11.248l-1.745,0.081
	c-0.212-0.608-0.412-1.208-0.648-1.835c-1.875-4.922-4.385-10.143-7.507-15.651c2.225-3.315,4.494-7.098,6.808-11.38
	c1.865-3.397,2.564-5.346,2.1-5.846c-0.5-0.533-2.05,0.649-4.646,3.547l-7.479,8.262c-1.16-1.876-2.368-3.774-3.663-5.713
	c-0.683-1.019-1.345-2.071-2.011-3.117l1.911-2.229c2.931-3.131,4.081-4.763,3.448-4.896c-0.267-0.066-1.965,0.533-5.097,1.799
	l-2.751,1.281c-2.374-3.98-4.647-8.123-6.792-12.474c-3.131-6.329-5.479-11.908-7.045-16.738c-1.133-3.531-1.982-5.296-2.548-5.296
	c-0.633,0-0.983,1.898-1.049,5.696c-0.133,6.795,0.5,13.641,1.898,20.536c1.017,4.998,2.404,9.826,4.153,14.487
	c-6.146,3.626-12.227,7.604-18.243,11.944c-8.427,5.996-15.556,13.374-21.385,22.134c-5.231,7.879-8.541,15.468-9.953,22.769
	c-0.288-0.126-0.539-0.284-0.739-0.484c-0.866-0.866-1.299-2.115-1.299-3.747l-0.15-2.948c-0.133-0.1-0.799,0.583-1.999,2.049
	c-2.498,2.798-4.114,5.546-4.847,8.244l-3.198-2.648c-1.565-1.299-2.465-1.815-2.698-1.549c-0.233,0.267-0.1,1.399,0.399,3.398
	l1,4.047l-3.697,0.45c-0.899,0.233-1.366,0.45-1.399,0.649c-0.067,0.233,0.299,0.55,1.099,0.95c1.199,0.566,1.649,1.032,1.349,1.399
	c-0.3,0.366-1.699,1.032-4.197,1.999c-1.932,0.699-2.931,1.249-2.998,1.649c-0.033,0.399,0.783,0.849,2.448,1.349l0.899,0.25
	c-1.765,1.932-3.447,4.763-5.046,8.494c-0.982,2.308-1.645,4.168-1.994,5.589c-2.017-0.174-4.878-0.62-8.599-1.342l-18.987-4.147
	l-19.086-4.197c-2.898-0.466-6.295-0.216-10.193,0.75c-4.164,1.033-8.161,2.731-11.991,5.096c-7.162,4.43-6.995,6.129,0.5,5.097
	c2.833-0.386,5.912-0.496,9.234-0.333c3.438,0.71,7.429,1.814,12,3.331c5.596,1.832,11.359,4.047,17.288,6.646l14.39,6.396
	c4.887,1.998,9.342,3.234,13.378,3.729c-1.651,1.844-3.412,4.098-5.284,6.764c-5.063,7.162-6.912,11.558-5.546,13.19
	c0.5,0.633,1.599,0.25,3.297-1.149l5.346-5.247c0.414-0.408,0.806-0.786,1.194-1.16c-1.577,5.482-2.86,11.956-3.842,19.447
	c-0.769,5.733-1.273,11.467-1.543,17.201l-0.955,3.484c-1.233,4.264-1.266,6.396-0.1,6.396c1.132-0.034,2.648-1.749,4.547-5.146
	c4.53-8.194,8.46-17.771,11.792-28.73c1.385-4.557,2.813-8.521,4.283-11.917c1.524,1.491,2.382,4.008,2.562,7.57
	c0.1,2.065,0.35,3.181,0.75,3.348c0.466,0.267,1.299-0.716,2.498-2.948l1.449-2.298l3.297,4.996
	c0.933,1.232,1.566,1.815,1.899,1.749c0.366-0.067,0.483-0.899,0.35-2.499l-0.35-2.598c4.137,2.307,8.123,3.465,11.963,3.514
	l4.225,10.327c3.031,7.595,5.413,12.641,7.145,15.139c6.329,9.061,13.957,17.804,22.884,26.231l2.135,1.738
	c0.108,0.208,0.239,0.438,0.413,0.71c0.715,1.049,1.403,2.34,2.065,3.857c-1.317,3.896-2.043,7.642-2.165,11.23
	c-0.533,1.366-1.599,2.615-3.198,3.748c-1.565,1.166-2.349,1.932-2.349,2.299c0,0.365,0.783,0.85,2.349,1.448
	c0.833,0.3,1.666,0.667,2.498,1.101l1.299,0.949c-0.067,0.6-2.016,2.381-5.846,5.346l-1.798,1.498c-0.133,0.4,0.616,0.733,2.248,1
	l4.997,0.449l2.848,0.15c0.6,0.266,0.483,1.682-0.35,4.246c-0.799,2.531-1.615,4.164-2.448,4.896l-0.799,1.049
	c0,0.201,0.483,0.334,1.449,0.399l3.997-0.351l-1.549,4.947c-0.766,2.332-1.033,3.664-0.8,3.996c0.2,0.301,1.133-0.133,2.798-1.299
	l3.248-2.398l3.298,8.396c1.965,4.931,3.248,7.545,3.847,7.845c0.6,0.301,1.016-0.332,1.249-1.898l0.4-3.197l0.938,0.83
	c1.967,6.158,4.565,11.002,7.805,14.509c2.398,2.599,6.196,5.28,11.392,8.044c1.933,1.033,3.229,2.133,3.896,3.299
	c0.467,0.865,0.601,1.914,0.4,3.146c-0.365,2.066-0.217,3.182,0.449,3.348c0.097,0.02,0.213,0.008,0.338-0.018
	c-0.55,6.396-3.175,16.841-7.883,31.346c-2.863,8.895-7.277,21.369-13.24,37.424l-3.698,10.043c-2.598,2.266-7.328,4.58-14.19,6.945
	c-5.629,1.898-10.06,3.081-13.291,3.547l-3.547,0.2l-3.697,0.05c-2.465,0-4.247,0.283-5.346,0.851
	c-1.732,0.865-2.715,2.563-2.948,5.097v0.072c-0.403,0.287-0.819,0.612-1.249,0.977c-2.065,1.699-3.914,3.881-5.546,6.545
	c-1.099,1.799-1.466,2.965-1.099,3.498c0.399,0.566,1.699,0.416,3.897-0.45c1.765-0.695,4.217-1.596,7.354-2.699
	c1.144,1.545,3.016,1.904,5.637,1.052l7.495-1.799c-5.329,2.632-8.544,4.696-9.643,6.194c-0.466,0.634-0.733,1.333-0.799,2.1
	l0.05,2.249l0.022,0.282c-0.374,0.448-0.763,0.952-1.171,1.517c-1.565,2.098-2.832,4.247-3.797,6.444
	c-0.733,1.633-0.916,2.716-0.55,3.247c0.466,0.633,1.666,0.468,3.598-0.499c2.342-1.037,4.436-2,6.298-2.893
	c1.078,0.521,2.32,0.794,3.745,0.794c4.796,0,8.177-1.315,10.143-3.947c2.232-2.998,5.813-6.444,10.743-10.343
	c5.629-4.497,9.793-6.762,12.491-6.795c0.933,1.266,1.599,2.781,1.999,4.547l0.6,4.996l0.449,4.946
	c0.267,1.999,0.7,3.613,1.299,4.847c0.866,1.865,2.781,3.198,5.746,3.997l6.271-0.224l0.824,0.822l3.547,3.397
	c0.666,0.6,1.149,0.883,1.449,0.85c0.301-0.065,0.551-0.55,0.75-1.449c0.507-2.364,0.621-4.741,0.391-7.131
	c0.727-0.734,1.328-1.555,1.808-2.462c0.633-1.199,0.948-2.332,0.948-3.396c0-1.166-0.299-2.3-0.897-3.397
	c-0.2-0.399-0.698-0.95-1.499-1.648l-1.999-2.049c-3.397-4.264-5.296-7.328-5.694-9.193c0.705-0.235,1.297-0.531,1.783-0.882
	c0.961,0.029,2.162,0.238,3.612,0.633c0.601,0.133,1.03,0.05,1.299-0.25c0.3-0.333,0.283-0.934-0.051-1.799
	c-0.565-1.166-1.332-2.315-2.298-3.447c-0.809-0.921-1.617-1.667-2.426-2.261c-0.078-0.131-0.139-0.254-0.224-0.389l-2.798-3.598
	l-0.25-0.3c-0.398-1.6-0.6-3.497-0.6-5.696c0-8.525,2.599-21.852,7.795-39.972c3.729-13.023,6.846-22.601,9.344-28.729
	c0.732-1.865,1.1-4.162,1.1-6.896l-0.354-4.456c0.451-0.186,0.706-1.004,0.752-2.488c0.066-2.499,0.467-5.479,1.199-8.943
	c0.731-3.396,1.498-5.996,2.299-7.795c0.898,0.334,1.799,2.565,2.697,6.695l1.5,8.443c0.299,1.732,0.683,2.648,1.147,2.748
	c0.183,0.037,0.396-0.047,0.634-0.245l-0.084,1.993l-0.498,3.099c-0.367,2.133-0.552,3.715-0.552,4.747
	c0,1.099,0.134,2.165,0.399,3.197c0.301,1.332,1.384,4.996,3.248,10.992c9.228,30.211,14.373,49.481,15.439,57.81l-3.848,3.697
	l-3.049,2.897c-0.711,0.832-1.231,1.664-1.572,2.495c-1.491,1.158-2.58,2.276-3.225,3.351c-1.898,3.197-1.516,4.431,1.149,3.697
	c1.276-0.361,2.337-0.516,3.195-0.477c0.036,0.062,0.063,0.114,0.103,0.177c-1.332,1.732-3.996,4.014-7.994,6.845l-3.547,2.299
	c-1.367,0.866-2.232,1.532-2.6,1.999c-0.967,1.3-1.382,2.697-1.249,4.196c0.112,0.977,0.46,1.901,1.007,2.784
	c-0.273,0.479-0.543,1.052-0.809,1.713c-0.731,1.766-1.197,3.664-1.397,5.696c-0.198,2.063-0.032,3.181,0.5,3.348
	c0.468,0.133,1.683-0.5,3.647-1.898c1.406-0.979,3.107-1.928,5.076-2.851c1.233,0.518,2.392,0.706,3.468,0.552
	c1.932-0.199,3.598-1.35,4.995-3.446c4.632-6.796,9.943-11.492,15.939-14.091c1.332,0.134,3.447,2.198,6.346,6.195
	c2.631,3.599,5.246,7.844,7.845,12.74c1.065,2.032,2.946,3.248,5.646,3.646l5.215-0.239l3.879,3.237
	c1.064,0.967,1.814,1.351,2.248,1.149c0.434-0.2,0.633-1.049,0.601-2.548c-0.022-1.962-0.175-3.729-0.438-5.313
	c0.588-0.786,1.039-1.74,1.338-2.882c0.334-1.231,0.434-2.365,0.301-3.396c-0.367-2.632-1.699-4.58-3.998-5.847
	c-5.93-3.197-10.459-6.879-13.59-11.043c6.994,1.666,12.924,4.932,17.787,9.793c0.532,0.566,1.332,0.884,2.397,0.95l3.298-0.55
	c0.975-0.373,1.855-0.89,2.658-1.533c2.201,0.674,4.035,1.304,5.484,1.883c1.967,0.833,3.115,1.082,3.449,0.749
	c0.398-0.365,0.1-1.549-0.899-3.547c-1.433-2.798-2.865-4.964-4.298-6.496c-0.295-0.315-0.584-0.595-0.868-0.849
	c0.125,0.096,0.253,0.188,0.368,0.3c-0.231-2.365-1.481-4.015-3.746-4.947l-6.297-1.549l-2.447-0.6
	c-2.396-0.699-5.729-2.048-9.993-4.047c-4.896-2.231-9.343-4.58-13.34-7.045c-5.396-11.125-10.626-24.967-15.688-41.521
	c-5.662-18.421-8.494-32.161-8.494-41.221l-0.101-3.036c0.304,0.506,0.57,0.739,0.799,0.688c0.435-0.101,0.835-1.283,1.199-3.547
	c0.301-1.898,0.733-3.814,1.3-5.746c0.457-1.492,0.914-2.68,1.372-3.58c3.479,10.16,7.481,18.443,12.019,24.813
	c4.664,6.629,9.744,11.043,15.24,13.24c3.196,1.267,6.729,1.633,10.592,1.1c3.392-0.463,6.841-1.59,10.347-3.364
	c2.096,0.642,4.21,1.063,6.342,1.268l11.292-0.551c2.965-0.766,5.098-2.016,6.396-3.746c0.933-1.199,1.349-2.615,1.248-4.248
	l-0.104-0.567c1.403-0.002,2.822-0.077,4.253-0.231c5.829-0.633,9.743-2.348,11.741-5.146c2.532-3.631,1.865-8.026-1.998-13.19
	c-9.562-12.66-32.431-26.121-68.588-40.381c0.475-1.113,0.771-1.961,0.886-2.539c0.333,0.066,1.016,0.367,2.048,0.899
	c1.232,0.699,2.032,0.949,2.398,0.75c0.301-0.167,0.149-2.465-0.449-6.896l2.998-0.352c1.632-0.166,2.481-0.398,2.548-0.699
	c0.033-0.266-0.365-1.064-1.199-2.397l-1.798-3.099l2.697-0.35c1.198-0.333,1.864-0.666,1.998-0.999
	c0.067-0.167-0.166-0.767-0.699-1.799c-0.601-1.099-1.166-1.897-1.698-2.397c2.498-2.133,3.881-5.279,4.147-9.443l-2.499,0.8
	c-1.698,0.601-2.766,0.767-3.198,0.5c-0.198-0.101-0.299-0.783-0.299-2.049l0.05-2.199c0-3.597-0.384-6.944-1.148-10.043
	c-0.467-1.832-1-3.33-1.6-4.496c0.366-1.299,0.616-2.881,0.749-4.747c0.066-1.099,0.019-1.732-0.149-1.899
	c-0.133-0.133-0.517-0.017-1.148,0.35l-2.498,1.399l0.999-2.748c0.733-2.065,0.267-2.632-1.399-1.699c-1.231,0.667-1.998,1-2.297,1
	l1.248-3.297c0.866-2.166,1.232-3.331,1.1-3.498l-2.198,0.25l-2.997,0.2c-0.667-0.167-1.482-0.65-2.448-1.449l-2.198-2.198
	l7.146-14.29c6.235-12.441,9.874-20.09,10.93-22.975c0.938-0.655,1.987-1.403,3.16-2.258l2.849,2.249
	c1.166,0.866,1.881,1.249,2.148,1.149c0.266-0.133,0.615-1,1.049-2.598c0.133-0.466,0.482-1.049,1.049-1.749
	c0.768-1.066,3.031-2.765,6.795-5.096l4.314-1.629c2.719,1.266,6.58,2.723,11.625,4.377c1.332,0.433,3.646,1.782,6.945,4.047
	l8.644,6.146c7.628,5.33,13.19,8.81,16.688,10.442c5.447,2.55,9.694,2.925,12.767,1.175c3.303,1.775,6.952,3.663,10.966,5.67
	c0.935,0.466,1.449,0.633,1.55,0.5C347.483,191.849,347.384,191.232,347.051,190.1z M163.833,66.6
	c1.223,1.873,2.501,3.726,3.87,5.546l-2.625,1.086c-2.099,0.666-4.363,0.916-6.795,0.75l-0.454-0.013
	C159.8,71.674,161.799,69.227,163.833,66.6z M138.298,64.438c2.952-3.118,8.253-8.303,15.896-15.551
	c0.847,1.743,1.733,3.467,2.691,5.158c0.594,1.304,1.223,2.597,1.88,3.878c-5.555,4.412-11.792,8.433-18.719,12.061
	c-3.867,2.019-7.418,3.952-10.665,5.802C131.08,72.749,134.038,68.974,138.298,64.438z M119.112,97.665
	c-0.304-0.05-0.603-0.087-0.904-0.131c5.296-0.956,9.581-2.011,12.846-3.167c4.463-1.632,8.977-4.114,13.541-7.445
	c2.365-1.632,5.363-4.364,8.994-8.194c1.102-1.178,2.219-2.431,3.342-3.717c0.457,0.588,1.275,1.385,2.503,2.418
	c-3.164,0.2-5.063,0.616-5.696,1.249c-0.4,0.433-0.366,0.866,0.1,1.299l1.948,1.399c-0.1,0.899-0.649,2.048-1.648,3.447
	c-1.166,1.565-2.365,2.515-3.598,2.848l-4.747,0.899c-3.265,0.766-5.08,1.549-5.446,2.348c-0.133,0.233,1,0.649,3.397,1.249
	c2.832,0.7,4.547,1.199,5.146,1.499c-1.565,0.766-3.297,1.715-5.196,2.848c-2.032,1.166-3.281,1.982-3.747,2.448l-0.3,0.45
	c0,0.3,0.466,0.483,1.399,0.549c2.032,0.167,3.73,0.5,5.096,1c-0.699,0.933-1.416,2.198-2.148,3.797
	c-0.318,0.723-0.569,1.367-0.774,1.958c-0.218,0.104-0.481,0.254-0.824,0.492c-0.933,0.633-2.032,1.182-3.298,1.649l-2.348,0.6
	c1.166-1.732,2.015-3.364,2.548-4.897c0.4-1.099,0.466-1.749,0.2-1.948l-2.349,0.15l-3.747,0.949
	C129.505,100.647,124.741,98.631,119.112,97.665z M176.67,199.392c-3.397,1.932-5.679,3.514-6.845,4.747
	c-1.266-0.233-2.615-0.766-4.047-1.599l-2.698-1.749l-1.049-0.3c-0.1,0.2,0.133,0.883,0.7,2.049l2.298,4.796
	c-1.932-0.533-3.964-1.399-6.096-2.598c-1.232-0.699-1.865-0.833-1.898-0.399l0.599,1.849l1.1,2.498
	c0.533,1.066,0.799,1.782,0.799,2.148l-0.4,0.85l-1.481,1.926l-0.917-0.127l-0.904-0.021c-7.013-5.245-13.508-12.477-19.481-21.713
	c-2.798-4.297-5.113-8.478-6.945-12.541c-1.435-3.2-2.221-5.479-2.367-6.853c1.303,0.6,2.167,0.94,2.566,1.006
	c0.333,0.034,0.5-0.033,0.5-0.2l-0.35-1.699l-1.199-6.246c0.699,0.466,1.815,0.899,3.348,1.299c1.532,0.433,2.898,0.666,4.097,0.699
	c1.332,0.033,2.098-0.117,2.298-0.45c0.167-0.3-0.067-1.083-0.7-2.348l-1.299-2.998l7.045-0.899l3.098-0.849
	c0.066-0.267-0.866-0.85-2.798-1.749l-3.098-2.448c1.133-1.965,2.215-4.597,3.248-7.895l1.749-6.595l2.848-3.297
	c0.966-1.133,1.316-1.866,1.049-2.199l-3.897,0.1c2.165-1.932,3.681-3.514,4.547-4.747c0.933-1.299,1.333-2.115,1.199-2.448
	l-2.249-0.1l-3.348,0.2c-0.1-3.231-0.699-6.445-1.799-9.643c-0.666-1.999-1.432-3.747-2.298-5.246
	c0.701-1.022,1.225-1.922,1.593-2.713c0.21,0.063,0.444-0.108,0.705-0.535c0.3-0.5,0.783-0.999,1.449-1.499
	c0.6-0.433,0.899-0.583,0.899-0.45c0.033,2.831,0.533,5.446,1.499,7.844c0.466,1.232,0.949,2.198,1.449,2.898
	c-0.733,1.466-1.333,3.064-1.799,4.796c-0.266,0.933-0.366,1.482-0.3,1.649c0.067,0.2,0.367,0.2,0.899,0l1.699-0.699
	c0.766-0.3,1.616-0.483,2.548-0.55c0.799,1.965,1.932,3.781,3.397,5.446l1.899,2.099l-0.949,3.547
	c-0.6,2.132-0.899,3.498-0.899,4.097c-0.1,0.733,0.017,1.116,0.35,1.149c0.333,0.033,0.799-0.25,1.399-0.849
	c0.799-0.766,2.315-1.866,4.547-3.298l0.3,3.198c0.2,2.065,0.466,3.131,0.799,3.198c0.3,0.066,1.232-0.616,2.798-2.048l2.698-2.349
	l0.3,2.349l0.45,3.297c0.167,0.667,0.316,1,0.45,1l0.949-1l2.049-2.648c0.501-0.649,0.899-1.133,1.214-1.482
	c2.247,8.68,4.541,21.358,6.88,38.057c0.925,6.521,1.708,12.556,2.352,18.103C181.508,196.856,179.33,197.911,176.67,199.392z
	 M219.391,109.407l1-0.2l2.196,0.35c0.332,0.116,0.595,0.176,0.821,0.208c-0.692,1.222-1.325,2.494-1.869,3.839l-0.35-0.95
	c-0.232-0.466-0.633-0.25-1.199,0.65c-0.215,0.337-0.424,0.741-0.629,1.198c0.127-0.747,0.216-1.521,0.229-2.347L219.391,109.407z
	 M216.742,122.397c0.097-0.11,0.313-0.207,0.599-0.294l-0.19,1.448C216.781,122.886,216.643,122.498,216.742,122.397z
	 M232.229,185.702c-2.361,5.258-4.408,9.499-6.137,12.73l-3.753-1.387c-1.133-2.898-2.364-5.513-3.698-7.845
	c-0.564-0.999-0.932-1.482-1.099-1.449c-0.134,0.066-0.283,0.666-0.45,1.799l-0.849,3.997l-0.95,3.098
	c-0.633-0.799-1.182-1.882-1.648-3.248c-0.433-1.133-0.748-1.682-0.949-1.649c-0.166,0-0.6,0.516-1.299,1.549
	c-0.6,0.866-1.315,1.432-2.147,1.699l-5.246-0.399l-3.323-0.374c0.059-0.523,0.116-1.038,0.176-1.575
	c1.799-16.755,2.365-29.246,1.699-37.474l-1.392-16.729c1.097-0.139,1.97,0.091,2.59,0.74l1.449,2.499
	c0.433,0.766,0.749,1.066,0.948,0.899l0.449-1.299l2.1-4.896c1.266-2.598,2.049-3.847,2.349-3.747
	c0.166,0.033,0.8,0.399,1.897,1.099c0.934,0.566,1.5,0.816,1.699,0.75c0.299-0.133,0.449-1.016,0.449-2.648
	c-0.033-1.699-0.25-3.064-0.648-4.097c0.851,0.335,1.722,0.558,2.611,0.673c0.149,5.305,0.728,9.947,1.734,13.917l-2.098,0.3
	c-1.366,0.2-2.101,0.483-2.199,0.85c-0.133,0.366,0.434,0.933,1.699,1.699c1.498,0.899,3.047,1.549,4.646,1.948l-2.147,2.398
	c-1.299,1.232-1.933,2.049-1.898,2.448c0.033,0.333,0.615,0.633,1.748,0.899l5.646,0.799l1.897-0.15
	c0,0.667-0.601,1.832-1.799,3.498c-1.166,1.599-2.063,2.582-2.697,2.948c-0.532,0.3-0.417,0.649,0.351,1.049
	c0.666,0.333,1.299,0.516,1.897,0.549l4.197-0.15l3.348-0.75c1.099-0.266,1.731-0.266,1.897,0c0.166,0.233-0.032,0.883-0.6,1.949
	l-1.6,2.148c-0.865,0.7-0.383,1.016,1.449,0.949c1.932,0,3.715-0.399,5.347-1.199c0.681,0.566,1.492,1.042,2.407,1.446
	C239.313,169.349,236.632,175.923,232.229,185.702z"/>
</svg>
