<?xml version="1.0" encoding="utf-8"?>
<!-- Generator: Adobe Illustrator 16.0.0, SVG Export Plug-In . SVG Version: 6.00 Build 0)  -->
<!DOCTYPE svg PUBLIC "-//W3C//DTD SVG 1.1//EN" "http://www.w3.org/Graphics/SVG/1.1/DTD/svg11.dtd">
<svg version="1.1" id="图层_1" xmlns="http://www.w3.org/2000/svg" xmlns:xlink="http://www.w3.org/1999/xlink" x="0px" y="0px"
	 width="355px" height="288px" viewBox="0 0 355 288" enable-background="new 0 0 355 288" xml:space="preserve">
<path d="M350.795,42.815c0.66-3.013,0.741-6.425,0.222-10.252c-0.897-6.693-3.445-12.587-7.642-17.682
	c-4.595-5.594-10.339-9.657-17.232-12.187c-10.089-3.729-21.627-3.613-34.613,0.35c-7.893,2.397-15.883,7.525-23.975,15.384
	c-5.658,5.476-10.234,11.248-13.783,17.301c-6.098-9.874-13.961-17.952-23.629-24.194c-10.123-6.56-19.596-9.424-28.42-8.591
	c-5.793,0.566-11.222,2.98-16.283,7.243c-4.541,3.826-8.037,8.505-10.516,14.017c-4.116,2.656-7.047,5.954-8.764,9.908
	c-1.565,3.563-1.848,7.226-0.849,10.989c0.875,3.32,2.607,6.211,5.179,8.683c-0.288,0.426-0.555,0.859-0.783,1.306
	c-0.999,1.932-1.416,3.963-1.249,6.094c0.167,2.165,0.899,4.246,2.198,6.244c2.431,3.829,6.394,5.627,11.888,5.396
	c4.263-0.167,8.772-1.432,13.535-3.796c4.43-2.231,7.625-3.613,9.59-4.146c4.129-1.132,8.325-1.065,12.588,0.2
	c3.597,1.065,6.394,2.248,8.392,3.546c2.631,1.731,4.694,4.112,6.192,7.143c1.166,2.431,1.183,6.577,0.052,12.437
	c-1.134,5.927-2.947,10.938-5.445,15.034c-3.196,5.261-8.407,10.473-15.633,15.634c-4.311,3.059-9.598,6.232-15.855,9.519
	c-3.129-6.59-7.757-12.432-13.914-17.51c-4.129-3.43-8.94-6.393-14.435-8.891c-4.722-2.17-9.574-3.823-14.554-4.96l-1.779-15.419
	c-0.433-4.195-1.282-6.393-2.547-6.593c-1.032-0.2-2.53,1.083-4.495,3.846c-1.265,1.765-4.079,6.044-8.441,12.836
	c-0.809,1.25-1.562,2.416-2.26,3.5c-15.755,0.636-29.175,6.07-40.246,16.329c-7.41,6.855-12.679,14.826-15.832,23.899
	c-3.443-5.843-7.733-11.332-12.888-16.457c-6.094-6.094-11.738-9.973-16.933-11.638c-5.86-1.865-10.955-1.349-15.284,1.549
	c-3.494,2.338-5.228,5.227-5.217,8.661c-3.957-0.575-7.4-0.009-10.317,1.728c-2.997,1.732-5.111,4.529-6.343,8.392
	c-1.012,3.29-1.087,6.387-0.247,9.297c-1.721,0.495-3.305,1.306-4.748,2.44c-4.895,3.863-6.41,9.208-4.545,16.035
	c1.898,7.092,6.76,12.485,14.585,16.183c15.317,7.226,25.606,12.437,30.868,15.634c6.926,4.229,13.852,9.855,20.778,16.883
	c5.261,5.361,9.307,10.788,12.138,16.283c0.875,1.729,1.761,3.84,2.66,6.316c0.031,0.226,0.054,0.451,0.087,0.676
	c1.698,11.422,6.327,21.443,13.885,30.068c6.993,7.992,16,14.252,27.022,18.78c10.522,4.361,21.844,6.726,33.965,7.093
	c9.024,0.267,18.114-0.684,27.271-2.848c8.746-2.054,17.252-5.137,25.521-9.227c8.983,7.115,18.041,10.869,27.175,11.225
	c6.161,0.268,11.288-1.148,15.385-4.245c2.41-1.837,4.094-3.929,5.08-6.264l4.959-0.181c2.498-0.532,4.68-1.416,6.543-2.647
	c4.063-2.696,6.443-6.192,7.144-10.487c0.104-0.606,0.164-1.207,0.196-1.805c0.879-0.243,1.793-0.646,2.75-1.243
	c1.731-1.065,3.181-2.465,4.346-4.194c1.332-1.998,2.131-4.347,2.398-7.043c0.332-3.063-0.15-5.91-1.449-8.541
	c-2.465-5.028-6.676-8.658-12.637-10.89c-1.861-0.692-3.989-1.272-6.371-1.743c10.358-15.594,16.072-32.856,17.108-51.802
	c1.033-19.047-2.63-40.308-10.987-63.783c-3.763-10.556-5.512-18.963-5.244-25.224c0.3-6.427,2.729-11.238,7.293-14.435
	c6.426-4.462,12.986-4.812,19.68-1.049c4.229,2.397,8.291,6.277,12.188,11.638c2.496,3.463,5.678,5.761,9.539,6.893
	c3.862,1.132,7.326,0.799,10.391-0.999c3.229-1.898,5.527-4.462,6.893-7.692c0.896-2.095,1.301-4.285,1.237-6.565
	c3.722-0.023,7.521-1.777,11.399-5.273c4.494-4.029,6.893-8.524,7.191-13.486C352.104,48.377,351.728,45.502,350.795,42.815z"/>
</svg>
