<?xml version="1.0" encoding="utf-8"?>
<!-- Generator: Adobe Illustrator 16.0.0, SVG Export Plug-In . SVG Version: 6.00 Build 0)  -->
<!DOCTYPE svg PUBLIC "-//W3C//DTD SVG 1.1//EN" "http://www.w3.org/Graphics/SVG/1.1/DTD/svg11.dtd">
<svg version="1.1" id="图层_1" xmlns="http://www.w3.org/2000/svg" xmlns:xlink="http://www.w3.org/1999/xlink" x="0px" y="0px"
	 width="309px" height="365px" viewBox="0 0 309 365" enable-background="new 0 0 309 365" xml:space="preserve">
<path d="M285.369,300.805c-1.133-1.398-1.898-2.447-2.299-3.147c-0.17-0.276-0.309-0.548-0.428-0.813
	c16.971-25.394,24.045-56.81,21.211-94.259c-1.565-20.883-9.261-40.368-23.082-58.453c-13.422-17.619-33.224-34.672-59.401-51.159
	c-17.652-11.124-31.642-24.813-41.966-41.066c-6.629-10.492-12.323-23.431-17.086-38.819c-1.199-3.863-2.698-6.978-4.496-9.342
	c-1.766-2.398-3.481-3.581-5.146-3.547c-1.266,0.034-2.631,0.899-4.097,2.598c-1.932,2.231-3.414,5.412-4.446,9.542
	c-0.733,2.997-2.165,5.345-4.296,7.044c-1.232,0.966-3.63,2.215-7.194,3.747c-2.698,1.066-4.729,1.915-6.095,2.548
	c-2.465,1.132-4.263,2.365-5.396,3.697c-1.532,1.798-2.398,4.03-2.598,6.694c-0.1,1.632,0.083,4.113,0.55,7.444l0.899,6.195
	c0.233,2.365-0.017,4.196-0.75,5.496c-3.531,6.528-5.446,11.407-5.746,14.638c-0.266,2.564,0.55,5.479,2.448,8.743l2.698,3.897
	c1.299,1.832,2.182,3.431,2.648,4.796c0.267,0.766,0.316,1.782,0.15,3.048l-0.55,3.647l-1.099,5.595
	c-0.266,2.198,0.067,4.014,1,5.446c1.332,1.965,3.331,3.813,5.995,5.545c1.099,0.7,3.414,1.965,6.944,3.797l4.846,2.548
	c1.798,1.033,3.181,2.032,4.146,2.998c1.765,1.832,3.047,3.564,3.847,5.196c0.5,1.066,1.066,2.865,1.699,5.396
	c0.433,1.798,1.116,3.28,2.048,4.446c0.966,1.299,2.098,2.065,3.397,2.298c1.432,0.233,2.879-0.033,4.346-0.799
	c1.466-0.799,2.748-1.998,3.847-3.597c3.765-5.629,8.608-10.409,14.539-14.338c6.229-4.164,12.639-6.678,19.233-7.544
	c5.563-0.766,11.558-0.017,17.984,2.248c4.777,1.655,8.991,3.862,12.661,6.601c0.539,0.76,1.067,1.535,1.578,2.342
	c5.995,9.459,8.51,19.95,7.544,31.475c-1.633,20.317-7.41,36.871-17.336,49.66c-8.326,10.758-18.585,17.817-30.775,21.183
	c-7.061,1.967-13.972,1.999-20.732,0.102c-7.762-2.199-13.972-6.662-18.635-13.391c-6.928-9.957-14.288-17.603-22.082-22.932
	c-9.397-6.39-19.635-9.611-30.711-9.667l-6.508-12.814c-1.333-2.731-2.465-4.097-3.397-4.097c-0.799,0.033-1.699,1.215-2.698,3.547
	l-4.197,9.492c-1.283,2.9-2.285,5.195-3.021,6.917c-11.232,3.901-19.668,10.554-25.307,19.961
	c-5.262,8.761-7.66,18.985-7.194,30.677l-0.25,0.049c-4.763,3.697-7.927,7.461-9.492,11.291c-1.333,3.23-1.465,6.213-0.4,8.942
	c1.033,2.599,2.948,4.515,5.746,5.746c2.523,1.121,5.887,1.712,10.071,1.784c1.579,3.605,3.78,6.712,6.616,9.307
	c1.606,1.486,2.837,2.172,3.7,2.065c5.49,4.282,11.25,7.331,17.283,9.125c0.957,0.286,1.915,0.53,2.875,0.752
	c0.65,1.996,1.376,3.985,2.184,5.969c-9.036,11.614-21.374,21.884-37.033,30.8c-13.189,7.526-24.597,12.141-34.222,13.84
	c-7.161,1.266-10.458,3.347-9.892,6.244c0.366,1.731,1.865,3.463,4.497,5.194c0.833,0.565,1.865,1,3.097,1.3l3.447,0.6l5.046,0.899
	c1.999,0.532,3.63,1.332,4.896,2.397l1.249,1.849l1.199,2.448c1.965,3.464,3.797,5.962,5.496,7.492
	c3.064,2.732,6.894,4.147,11.491,4.248c3.764,0.101,7.111-0.982,10.042-3.248c1.499-1.166,3.447-3.264,5.845-6.295
	c1.099-1.433,1.916-2.381,2.448-2.848c0.833-0.8,1.648-1.199,2.448-1.199c0.866,0.033,1.815,0.383,2.848,1.049l2.947,2.349
	l4.247,3.548c1.766,1.232,3.364,1.766,4.796,1.6c1.399-0.166,2.681-1.017,3.847-2.549l2.698-4.445c0.966-2.1,1.715-3.58,2.249-4.446
	c0.899-1.532,1.948-2.365,3.147-2.498c0.599-0.067,1.582,0.167,2.947,0.698l5.046,1.699c2.232,0.268,4.347-0.566,6.345-2.498
	c1.698-1.599,3.38-4.396,5.046-8.394c1.201-2.792,2.29-5.935,3.28-9.382c1.696,1.428,3.423,2.818,5.213,4.136
	c10.392,7.627,22.032,13.173,34.921,16.638c16.786,4.496,34.038,4.862,51.759,1.1l1.292-0.289c2.46,1.993,4.863,3.779,7.2,5.334
	c7.095,4.73,12.507,6.662,16.236,5.796c0.768-0.167,1.565-0.749,2.397-1.749l1.699-2.598c1.897-3.031,3.764-4.93,5.596-5.695
	c1.365-0.6,4.563-1.082,9.593-1.449c7.127-0.531,11.939-1.531,14.438-2.996c3.23-1.865,4.513-5.213,3.847-10.043
	c-0.333-2.631,0.134-4.713,1.397-6.244c1.267-1.5,3.683-2.881,7.244-4.146c4.33-1.532,7.379-2.896,9.144-4.098
	c2.965-2.063,4.963-4.879,5.996-8.442c0.698-2.433,0.616-4.763-0.25-6.994C287.982,304.834,286.967,303.104,285.369,300.805z"/>
</svg>
