<?xml version="1.0" encoding="utf-8"?>
<!-- Generator: Adobe Illustrator 16.0.0, SVG Export Plug-In . SVG Version: 6.00 Build 0)  -->
<!DOCTYPE svg PUBLIC "-//W3C//DTD SVG 1.1//EN" "http://www.w3.org/Graphics/SVG/1.1/DTD/svg11.dtd">
<svg version="1.1" id="图层_1" xmlns="http://www.w3.org/2000/svg" xmlns:xlink="http://www.w3.org/1999/xlink" x="0px" y="0px"
	 width="293px" height="265px" viewBox="0 0 293 265" enable-background="new 0 0 293 265" xml:space="preserve">
<path d="M286.759,105.011c-3.628-4.693-10.2-8.67-19.72-11.932c-9.52-3.229-17.807-4.327-24.861-3.295
	c-2.563,0.366-5.227,1.048-7.988,2.047l-6.84,2.696c-4.959,1.897-8.953,3.145-11.98,3.744l-17.521,0.749
	c-5.16-0.399-10.318-1.847-15.478-4.343c-2.529-1.231-6.573-3.645-12.132-7.239l-3.346-2.297l-2.113-1.354
	c0.636-1.233,1.4-2.383,2.313-3.439c1.365-1.593,3.185-3.149,5.45-4.669c0.496,0.009,0.986,0.033,1.489,0.026
	c8.62-0.067,15.608-2.53,20.969-7.389c1.862-1.664,3.36-3.778,4.492-6.34c1.132-2.629,1.764-5.475,1.897-8.537
	c0.232-5.059-0.949-10.55-3.545-16.475c-2.496-5.691-5.857-10.85-10.085-15.476c-7.489-8.188-18.454-14.345-32.899-18.472
	c-16.042-4.56-31.534-3.362-46.479,3.594C96.434,12.203,86.5,20.407,78.578,31.224c-1.897,2.629-4.06,5.891-6.49,9.785l-6.19,10.234
	c-4.161,6.923-7.855,12.681-11.083,17.273c-4.493,6.324-9.086,11.932-13.779,16.824c-6.59,6.823-9.968,12.797-10.135,17.923
	c-0.066,1.963,0.316,4.027,1.148,6.19l2.546,5.542c0.832,1.797,1.515,3.694,2.047,5.691c0.434,1.583,0.665,2.917,0.731,4.048
	l-5.074,3.84c-2.529,1.664-4.277,2.979-5.242,3.944c-1.931,1.864-3.245,4.044-3.944,6.541c-0.998,3.561-1.082,6.821-0.25,9.784
	c0.366,1.265,1.365,3.429,2.996,6.49l1.847,3.844c0.466,1.398,0.566,2.88,0.299,4.443c-0.299,1.598-1.048,2.944-2.247,4.043
	c-0.799,0.767-2.213,1.715-4.243,2.846c-2.862,1.664-4.942,3.079-6.241,4.244c-2.363,2.097-3.86,4.459-4.493,7.089
	c-0.466,1.965-0.382,4.012,0.25,6.141c0.632,2.131,1.78,4.178,3.444,6.142c1.225,1.442,2.644,2.748,4.244,3.922
	c-0.792,1.247-1.874,2.419-3.246,3.517c-1.265,1.031-3.028,2.181-5.292,3.445c-3.528,1.996-5.958,3.711-7.289,5.143
	c-2.363,2.463-3.278,5.291-2.746,8.486c0.799,4.926,5.874,9.152,15.227,12.68c8.087,3.063,17.589,5.043,28.506,5.941l18.271-0.799
	l16.125-3.145l11.682-2.297c3.96-0.533,7.206-0.517,9.735,0.049c2.496,0.565,5.259,1.615,8.288,3.146
	c1.73,0.865,4.16,2.18,7.289,3.943c5.824,3.096,10.101,4.893,12.83,5.392c2.396,0.433,6.157,0.2,11.283-0.698
	c7.456-1.365,11.897-2.08,13.33-2.146c5.259-0.232,9.802,0.915,13.629,3.443c9.22,6.158,17.142,10.302,23.765,12.433
	c8.319,2.629,16.541,2.879,24.662,0.748c3.859-0.998,6.838-2.729,8.936-5.191c3.628-4.293,5.542-11.133,5.742-20.519
	c0.066-3.628,1.896-6.79,5.49-9.485c3.528-2.661,8.903-4.976,16.125-6.938c2.063-0.565,4.644-1.031,7.738-1.397l7.288-0.799
	c5.06-0.565,8.87-1.382,11.435-2.446c3.428-1.432,5.558-3.595,6.39-6.49c0.832-2.961-0.067-5.559-2.696-7.787
	c-1.664-1.397-4.242-2.746-7.738-4.045c-2.396-0.897-3.959-1.862-4.691-2.896c-0.301-0.466-0.633-1.597-0.999-3.396
	c-0.433-2.229-1.464-3.894-3.095-4.992c-2.596-1.697-7.141-2.762-13.629-3.194c-7.422-0.466-13.93-1.664-19.521-3.595
	c-4.634-1.606-8.191-3.588-10.713-5.928c0.042-0.154,0.09-0.302,0.129-0.463c0.898-3.728,0.283-6.656-1.848-8.785
	c-2.229-2.23-7.254-4.146-15.076-5.742c-5.592-1.131-9.352-2.063-11.282-2.795c-4.228-1.531-7.589-3.812-10.085-6.84
	c-1.631-1.965-2.445-3.646-2.445-5.043c0-1.33,0.666-1.863,1.996-1.598l3.445,0.998l3.096,1.148
	c3.527,1.197,6.373,1.996,8.536,2.396l13.974,0.759l1.004,2.736c1.896,3.826,4.311,6.057,7.238,6.689
	c2.33,0.531,4.461,0.416,6.391-0.351c0.832-0.3,2.197-1.099,4.095-2.396c1.229-1.031,2.795-1.549,4.692-1.549
	c1.797,0,4.31,0.467,7.537,1.397l4.193,0.55c1.064-0.199,2.114-0.882,3.146-2.047c0.498-0.564,1.063-0.934,1.697-1.1l2.844-0.08
	l0.601,1.029l1.897,3.244c0.766,1.166,1.58,2.064,2.444,2.696c3.361,2.563,6.89,3.212,10.584,1.947
	c3.562-1.231,5.741-3.646,6.54-7.239c0.934-4.193,0.717-7.889-0.648-11.083c-1.297-2.929-3.928-6.074-7.889-9.436
	c-2.162-1.83-3.527-3.461-4.093-4.892c-0.515-1.282-0.547-2.773-0.108-4.469c0.088,0.012,0.168,0.012,0.258,0.026
	c1.697,0.299,2.813,0.782,3.346,1.448c2.297,2.896,5.209,5.109,8.736,6.64c4.127,1.797,7.938,1.997,11.433,0.599
	c2.962-1.165,4.56-3.744,4.792-7.738C292.232,114.463,290.486,109.837,286.759,105.011z M109.426,42.263
	c0-0.001,0.002-0.001,0.002-0.002c0.231-0.001,0.469,0.013,0.705,0.022c0.002,0.008,0.004,0.016,0.006,0.024
	C109.9,42.289,109.661,42.269,109.426,42.263z"/>
</svg>
