<?xml version="1.0" encoding="utf-8"?>
<!-- Generator: Adobe Illustrator 16.0.0, SVG Export Plug-In . SVG Version: 6.00 Build 0)  -->
<!DOCTYPE svg PUBLIC "-//W3C//DTD SVG 1.1//EN" "http://www.w3.org/Graphics/SVG/1.1/DTD/svg11.dtd">
<svg version="1.1" id="图层_1" xmlns="http://www.w3.org/2000/svg" xmlns:xlink="http://www.w3.org/1999/xlink" x="0px" y="0px"
	 width="486px" height="306px" viewBox="0 0 486 306" enable-background="new 0 0 486 306" xml:space="preserve">
<path d="M481.003,216.979c-2.73-3.498-6.295-6.396-10.692-8.692l-8.544-4.147c-8.692-4.097-14.521-7.511-17.486-10.242
	c-4.931-4.529-7.444-10.543-7.544-18.037c-0.102-8.693-2.133-15.055-6.097-19.086c-2.498-2.564-7.578-5.296-15.238-8.194
	c-1.621-0.632-2.945-1.192-3.983-1.683c0.898-3.903,2.273-9.064,4.133-15.505c1.166-4.097,0.866-8.127-0.897-12.091
	c-1.899-4.197-5.063-7.211-9.493-9.043c-4.099-1.699-8.313-1.749-12.643-0.15c-4.528,1.666-8.492,4.896-11.892,9.693
	c-1.97,2.795-3.835,5.404-5.602,7.838c-7.986-2.674-15.068-7.225-21.229-13.684c-3.631-3.797-9.127-11.192-16.488-22.184
	c-6.361-9.56-11.809-16.888-16.338-21.984c-7.162-8.061-14.823-14.223-22.984-18.486c-16.153-8.394-33.108-11.492-50.862-9.293
	c-7.14,0.889-14.577,2.669-22.302,5.311c-8.201-1.214-17.947-4.009-29.261-8.409c-6.528-2.565-18.354-7.794-35.474-15.689
	c-17.121-7.894-28.296-12.874-33.526-14.939C114.7,3.615,104.674,0.984,96.48,0.384c-7.528-0.566-16.571,0.167-27.13,2.199
	L58.557,4.915C51.418,3.801,45.892,3.252,42.02,3.282c-4.963,0.033-8.677,0.949-11.142,2.748c-3.068,2.261-5.125,6.608-6.189,13.003
	l-4.903,1.787l-6.745,2.098c-2.964,0.966-5.529,2.099-7.694,3.398c-1.999,1.199-3.481,2.948-4.447,5.246
	c-1,2.298-1.183,4.397-0.55,6.295c0.7,2.198,2.349,3.914,4.947,5.146c2.598,1.232,5.579,1.699,8.943,1.399
	c6.729-0.566,11.508-0.566,14.34,0c4.698,0.979,8.223,3.599,10.588,7.838c-0.033,0.119-0.058,0.235-0.096,0.356l-1.149,3.098
	l-1.549,4.697c-0.433,1.965-0.4,3.781,0.1,5.446c0.433,1.565,1.299,2.998,2.598,4.297c1.399,1.399,3.048,2.415,4.947,3.048
	c2.831,0.933,6.062,1.099,9.693,0.5c4.197-0.7,7.978-2.332,11.342-4.896c4.112-3.149,7.543-5.586,10.313-7.333
	c1.04,0.109,2.391,0.01,4.076-0.312c3.131-0.566,6.545-0.033,10.243,1.599c3.863,1.676,7.274,4.318,10.241,7.907
	c0.857,4.156,1.773,6.945,2.75,8.332c1.232,1.699,2.998,2.148,5.296,1.349c1.433-0.533,2.648,0.217,3.647,2.249
	c1.199,2.532,2.698,8.044,4.497,16.538c0.566,2.665,1.732,4.646,3.498,5.946c1.632,1.266,3.481,1.699,5.546,1.299
	c1.699-0.333,3.165-1.532,4.397-3.597c1.299-2.198,1.715-4.497,1.249-6.895c-1.066-5.829-1.565-10.476-1.499-13.94
	c0.001-0.089,0.008-0.17,0.01-0.258c2.399,1.159,5.422,3.931,9.083,8.352c3.834,4.635,6.864,9.32,9.1,14.054
	c-4.52,6.97-7.525,13.695-9,20.171c-1.133,4.896-1.482,9.477-1.049,13.74c0.433,4.563,1.732,8.494,3.897,11.792
	c3.697,5.663,9.11,10.226,16.238,13.69c3.699,1.79,7.692,3.189,11.969,4.215c-0.392,0.517-0.962,0.994-1.727,1.433l-5.696,2.348
	l-4.547,1.999c-1.632,0.866-2.714,1.814-3.248,2.848c-1.499,2.932-1.882,5.514-1.149,7.746c0.366,1.164,1.449,2.78,3.248,4.846
	c0.287,0.33,0.546,0.647,0.787,0.955c-0.476,2.285-2.108,4.399-4.934,6.34c-2.865,1.998-6.479,3.547-10.842,4.646
	c-4.463,1.134-8.394,2.981-11.792,5.548c-3.498,2.598-5.596,5.328-6.295,8.192c-0.6,2.465-0.183,5.063,1.249,7.795
	c1.266,2.465,3.231,4.863,5.896,7.194c2.032,1.766,4.48,3.381,7.345,4.847l7.695,3.447c7.161,3.063,11.891,5.763,14.189,8.094
	c4.23,4.297,6.679,11.024,7.345,20.187c0.466,6.129,2.015,11.774,4.647,16.938c2.698,5.296,6.245,9.441,10.642,12.439
	c6.562,4.53,14.939,7.045,25.132,7.545c10.16,0.533,21.168-0.981,33.026-4.547c8.528-2.563,16.321-5.912,23.384-10.043
	c3.664-2.131,8.81-5.646,15.438-10.541c5.362-3.998,9.51-6.763,12.44-8.295c4.664-2.397,9.844-3.947,15.539-4.646
	c4.264-0.533,8.428-0.065,12.491,1.397c1.466,0.533,4.713,2.1,9.743,4.697c6.096,3.164,11.024,4.93,14.788,5.297
	c6.162,0.531,13.258-1.416,21.284-5.847c0.968-0.533,1.999-1.433,3.1-2.698l2.447-2.998c1.1-1.465,2.614-2.697,4.546-3.697
	c2.166-1.166,4.382-1.766,6.646-1.799c1.433-0.033,2.599-0.615,3.498-1.748l1.948-3.297c2.064-3.199,3.696-5.348,4.896-6.445
	c3.331-3.031,8.479-5.83,15.438-8.395c7.462-2.732,13.989-4.182,19.586-4.348c3.431-0.133,7.994,0.383,13.689,1.549l9.293,1.799
	l11.442,0.898c5.862-0.133,10.842-1.348,14.938-3.646c4.031-2.266,6.446-5.146,7.245-8.645
	C485.05,224.073,483.935,220.709,481.003,216.979z M39.482,50.413c-0.002-0.016-0.003-0.035-0.004-0.052l0.007,0.006
	C39.485,50.382,39.483,50.398,39.482,50.413z"/>
</svg>
