<?xml version="1.0" encoding="utf-8"?>
<!-- Generator: Adobe Illustrator 16.0.0, SVG Export Plug-In . SVG Version: 6.00 Build 0)  -->
<!DOCTYPE svg PUBLIC "-//W3C//DTD SVG 1.1//EN" "http://www.w3.org/Graphics/SVG/1.1/DTD/svg11.dtd">
<svg version="1.1" id="图层_1" xmlns="http://www.w3.org/2000/svg" xmlns:xlink="http://www.w3.org/1999/xlink" x="0px" y="0px"
	 width="326px" height="413px" viewBox="0 0 326 413" enable-background="new 0 0 326 413" xml:space="preserve">
<path d="M329.103,65.624c-2.163-5.627-5.526-10.539-10.089-14.734c-3.729-3.463-8.374-6.11-13.936-7.941
	c-5.66-1.865-11.154-2.531-16.482-1.998c-5.926,0.566-11.32,2.281-16.182,5.145c-4.928,2.864-8.907,6.643-11.938,11.338
	c-1.408,1.994-4.444,8.318-9.104,18.962c-3.688-1.881-7.233-3.597-10.624-5.126c-3.529-1.532-5.943-2.464-7.242-2.797
	c-1.998-0.499-4.296,1.465-6.893,5.894l-1.104,2.239c-14.472-8.039-29.204-13.169-44.198-15.375
	c-15.927-2.303-30.428-1.04-43.511,3.767c-0.422-1.61-0.864-3.216-1.341-4.815c-3.363-11.354-6.809-16.998-10.339-16.932
	c-3.268,0.064-9.327,0.965-18.161,2.696c-1.448-9.758-2.687-16.168-3.716-19.229c-1.731-4.995-5.094-9.923-10.089-14.784
	C88.96,6.837,83.583,3.458,78.022,1.792C72.694,0.194,67.017-0.272,60.99,0.394C54.797,1.06,49.287,2.792,44.458,5.588
	c-5.661,3.33-10.156,7.858-13.485,13.585c-2.498,4.295-4.196,8.94-5.095,13.935c-1.199,6.626-1.149,12.62,0.15,17.98
	c1.232,5.095,3.646,9.856,7.242,14.285c2.272,2.831,5.291,6.235,9.01,10.179c-9.106,6.418-13.385,11.319-12.806,14.695
	c0.5,2.83,3.913,9.423,10.239,19.779c0.929,1.519,1.798,2.924,2.62,4.241c-2.982,2.935-6.085,6.776-9.313,11.542
	c-2.651,3.895-4.465,6.986-5.467,9.299c-8.486,5.787-14.342,13.09-17.558,21.917c-2.831,7.725-3.08,15.6-0.75,23.625
	c1.482,5.188,4.16,10.616,8.019,16.279c0.158,0.469,0.332,0.937,0.511,1.403c-1.557,3.502-2.559,7.129-2.985,10.887
	c-0.566,4.629-0.184,8.809,1.148,12.536c0.54,1.533,1.387,3.001,2.506,4.412c-1.44,8.056-1.967,16.272-1.557,24.657
	c0.625,13.187,3.582,24.467,8.869,33.841c-2.679,2.64-5.023,5.688-7.021,9.163c-3.629,6.326-5.644,12.736-6.043,19.229
	c-0.362,5.795-0.178,11.071,0.55,15.832c-2.582,11.317-3.349,21.574-2.298,30.769c1.096,9.666,4.127,17.411,9.058,23.274
	c-0.085,0.293-0.161,0.59-0.217,0.898c-0.766,4.129-0.933,8.175-0.5,12.137c0.5,4.196,1.631,7.792,3.396,10.789
	c0.5,0.865,1.315,1.615,2.448,2.247c1.032,0.6,2.031,0.933,2.997,0.999c8.158,0.5,17.931-0.832,29.318-3.995
	c10.955-3.063,18.38-6.344,22.276-9.84c0.613-0.546,1.097-1.076,1.465-1.594l3.81-0.611c3.507,2.785,8.382,4.957,14.653,6.501
	c6.56,1.598,11.038,1.631,13.436,0.101c1.465-0.934,2.264-3.313,2.397-7.144c0.133-2.863-0.117-6.193-0.75-9.988
	c-0.366-2.099-0.916-4.047-1.648-5.845c-0.367-0.881-0.743-1.614-1.128-2.207c3.309-7.243,5.605-15.835,6.892-25.772
	c9.005,3.455,19.23,5.151,30.697,5.056c9.345-0.058,18.763-1.28,28.25-3.646c-0.231,0.533-0.397,1.129-0.522,1.767
	c-2.063,1.358-4.162,2.989-6.301,4.926c-2.531,2.297-3.996,4.013-4.396,5.146c-0.333,0.864-0.267,1.563,0.2,2.098
	c0.884,1.137,5.773,2.438,14.654,3.904c1.401,1.859,3.112,3.465,5.174,4.785c0.939,0.603,1.92,1.17,2.924,1.719
	c0.154,2.533,1.613,6.111,4.418,10.769c3.63,6.06,6.793,8.99,9.49,8.79c1.799-0.133,5.045-1.748,9.739-4.844
	c4.282-2.855,7.075-5.377,8.416-7.573l4.706-0.243c0.834,1.145,2.063,2.334,3.71,3.57c4.896,3.629,11.404,6.992,19.528,10.09
	c8.191,3.129,13.867,4.378,17.031,3.745c1.365-0.3,2.132-1.465,2.298-3.496c0.3-3.431-0.982-8.291-3.847-14.584
	c-2.539-5.664-5.017-9.42-7.429-11.271c3.593-2.988,6.208-6.008,7.829-9.06c1.607-3.103,2.043-5.976,1.333-8.625
	c3.365-1.717,5.935-3.536,7.706-5.459c4.795-5.194,7.992-13.235,9.59-24.125c1.532-10.39,0.316-20.244-3.646-29.567
	c-2.16-5.094-5.308-10.188-9.414-15.279c1.363-2.186,2.334-4.723,2.871-7.646c0.281-1.542,0.426-3.126,0.443-4.75
	c3.17-0.523,6.006-1.648,8.497-3.392c2.464-1.729,4.462-3.945,5.993-6.644c1.498-2.644,2.425-5.718,2.783-9.217
	c5.757-3.031,10.043-7.666,12.851-13.908c3.162-7.1,3.643-15,1.456-23.695c5.854-12.871,3.967-24.636-5.701-35.29
	c-0.537-0.591-1.123-1.19-1.732-1.793c-1.569-8.231-3.148-14.658-4.74-19.282c2.18-1.775,4.098-3.364,5.725-4.747
	c7.324-6.227,11.42-10.356,12.286-12.387c0.666-1.599-0.101-4.295-2.298-8.092c-1.781-3.042-4.369-6.586-7.738-10.621
	c7.287-4.668,12.804-8.457,16.529-11.355c4.262-3.296,7.508-7.309,9.739-12.037c2.063-4.329,3.229-9.107,3.496-14.334
	C331.65,74.714,330.867,70.252,329.103,65.624z"/>
</svg>
