<?xml version="1.0" encoding="utf-8"?>
<!-- Generator: Adobe Illustrator 16.0.0, SVG Export Plug-In . SVG Version: 6.00 Build 0)  -->
<!DOCTYPE svg PUBLIC "-//W3C//DTD SVG 1.1//EN" "http://www.w3.org/Graphics/SVG/1.1/DTD/svg11.dtd">
<svg version="1.1" id="图层_1" xmlns="http://www.w3.org/2000/svg" xmlns:xlink="http://www.w3.org/1999/xlink" x="0px" y="0px"
	 width="156px" height="137px" viewBox="0 0 156 137" enable-background="new 0 0 156 137" xml:space="preserve">
<path d="M151.425,77.05c-4.267-1.7-7.782-3.649-10.55-5.85c-2.135-1.698-3.668-3.426-4.611-5.184
	c0.506-5.652-0.027-10.539-1.604-14.656c4.688,1.597,8.961,3.76,12.815,6.49c1.065,0.733,2.666,0.333,4.801-1.2
	c2.231-1.633,2.949-3.483,2.148-5.55c-3.64-9.316-9.504-17.347-17.576-24.102c0.146-2.707,0.952-6.039,2.428-9.999
	c0.633-1.667,2.05-4.917,4.25-9.75c1.133-2.533,0.565-4.617-1.7-6.25c-2.233-1.6-4.4-1.483-6.5,0.35L128.075,9
	c-3.546,3.654-6.197,6.078-7.985,7.314C107.82,10.341,94.65,7.163,80.575,6.8c-3.169-0.074-6.344,0.088-9.523,0.439
	C70.385,5.221,69.38,3.802,68.025,3c-1.066-0.633-3.383-0.75-6.95-0.35c-3.055,0.336-6.11,0.937-9.164,1.776
	c-2.023-2.111-3.52-3.271-4.486-3.476c-2.6-0.534-7.35,0.583-14.25,3.35c-7.1,2.833-11.5,5.517-13.2,8.05
	c-0.333,0.5-0.55,1.383-0.65,2.65l-0.209,2.808L17.275,16.2c-2.433-1.867-4.9-1.617-7.4,0.75c-2.467,2.366-2.933,4.783-1.4,7.25
	l0.564,0.772L5.575,27.2c-2.267,1.466-3.883,2.716-4.85,3.75c-0.367,0.366-0.55,1.4-0.55,3.1c-0.033,1.5,0.034,2.534,0.2,3.1
	c0.2,0.6,0.5,1,0.9,1.2l1.45,0.45l5.5,1.45c2.876,0.929,5.087,1.994,6.644,3.192c-0.063,0.354-0.146,0.693-0.194,1.058
	c-0.127,1.037-0.183,2.084-0.182,3.141c-0.639,0.642-1.573,1.229-2.818,1.759c-1.333,0.603-2.792,1.05-4.367,1.351
	C6.602,50.572,5.92,50.36,5.275,50.1l-1.35-0.6c-0.466-0.1-0.917,0-1.35,0.3L1.425,51c-0.533,0.7-0.816,1.217-0.85,1.55
	c-0.067,1.667,0.9,3.55,2.9,5.65c2.591,2.78,6.258,4.651,10.976,5.634c0.399,6.962,1.785,13.171,4.174,18.616
	c0.126,0.286,0.265,0.569,0.397,0.854L13.875,93.6l-4.8,10.301c-0.833,2.033-0.45,3.834,1.15,5.399c1.6,1.601,3.467,1.95,5.6,1.05
	c1.267-0.533,4.083-2.016,8.45-4.449l8.467-4.967c2.46,2.146,5.18,4.213,8.153,6.207c-0.27,3.399-0.742,7.713-1.419,12.959
	c-0.2,1.7-0.117,3.102,0.25,4.2c0.4,1.101,1.15,2.083,2.25,2.95c1.033,0.8,2.767,1.65,5.2,2.55c2.567,0.968,5.067,1.667,7.5,2.101
	c2.367,0.435,4.217,0.301,5.55-0.399c1.167-0.633,2.767-2.166,4.8-4.601c2.967-3.565,5.8-6.233,8.5-8
	c2.567-1.666,4.883-2.416,6.951-2.25c12.688,1.08,21.771,0.263,27.27-2.448c0.266,1.442,0.51,2.616,0.73,3.499
	c0.768,3.1,1.733,5.615,2.899,7.55c3.233,5.267,8.233,8.334,15,9.2c6.2,0.767,12.185-0.417,17.95-3.551
	c4.966-2.699,8.134-6.133,9.5-10.301c1.365-4.199,0.85-8.883-1.551-14.05c-2.154-4.638-5.569-9.411-10.229-14.319l2.329,0.069
	l3.2,1.05c1.1,0.334,2.482-1.065,4.148-4.199c1.566-2.934,2.533-5.684,2.9-8.25c0.166-1.199,0.05-2.018-0.35-2.449
	C153.975,78.15,153.025,77.684,151.425,77.05z"/>
</svg>
