<?xml version="1.0" encoding="utf-8"?>
<!-- Generator: Adobe Illustrator 16.0.0, SVG Export Plug-In . SVG Version: 6.00 Build 0)  -->
<!DOCTYPE svg PUBLIC "-//W3C//DTD SVG 1.1//EN" "http://www.w3.org/Graphics/SVG/1.1/DTD/svg11.dtd">
<svg version="1.1" id="图层_1" xmlns="http://www.w3.org/2000/svg" xmlns:xlink="http://www.w3.org/1999/xlink" x="0px" y="0px"
	 width="348px" height="342px" viewBox="0 0 348 342" enable-background="new 0 0 348 342" xml:space="preserve">
<path d="M345.749,52.786c-0.799-2.098-2.048-3.779-3.746-5.044c-1.798-1.332-3.695-1.881-5.693-1.648
	c-52.538,7.258-84.052,12.485-94.538,15.682c-3.396,1.032-6.26,4.645-8.59,10.837c-0.979,2.573-1.697,5.025-2.164,7.359
	c-3.674,2.243-8.793,4.306-15.363,6.19c-3.408-2.954-5.596-5.856-6.545-8.705c-0.565-1.698-0.883-5.11-0.948-10.238l0.351-4.794
	c0.165-2.197,0.165-4.062,0-5.593c-0.468-4.395-4.347-8.74-11.638-13.035c-5.461-3.196-11.554-5.793-18.278-7.791
	c-5.792-1.665-10.838-1.915-15.133-0.75c-0.92,0.232-1.811,1.078-2.672,2.517c-7.955-6.155-14.407-9.111-19.352-8.859
	c-7.292,0.366-13.118,3.03-17.48,7.991c-2.23,2.497-5.194,7.641-8.889,15.432c-0.155,0.324-0.298,0.616-0.449,0.929
	c-0.154-3.931-0.453-6.843-0.9-8.72c-0.799-3.23-2.331-5.61-4.595-7.142c-5.727-3.895-16.048-10.304-30.964-19.228
	C62.946,9.087,53.074,3.46,48.546,1.296c-5.027-2.397-8.823-1.881-11.387,1.548c-2.497,3.363-2.347,7.075,0.45,11.137l20.526,29.266
	c8.718,12.335,14.605,20.521,17.688,24.598c0.859,2.324,2.501,5.225,4.935,8.713l1.054,1.546
	c-13.809,3.893-22.66,9.616-26.524,17.183c-1.665,3.229-2.647,7.142-2.947,11.736c-0.04,0.562-0.066,1.21-0.085,1.907
	c-3.018,3.507-5.307,7.728-6.857,12.676c-1.531,4.761-1.914,8.174-1.148,10.238c0.2,0.5,1.465,1.781,3.795,3.845l3.714,3.245
	c-0.237,0.614-0.515,1.16-0.822,1.657l-21.17-4.452l-19.078-3.396c-1.865-0.167-3.629,0.167-5.294,0.999
	c-1.698,0.866-2.947,2.081-3.746,3.646c-0.999,1.964-1.398,4.045-1.199,6.243c0.167,2.264,0.965,4.178,2.397,5.743
	c1.465,1.598,5.56,5.078,12.286,10.438l9.359,7.386c-4.359,7.55-6.934,16.771-7.711,27.672c-0.3,3.896,0.549,7.606,2.547,11.137
	c1.166,2.063,3.313,4.795,6.442,8.19c4.262,4.66,6.592,8.439,6.992,11.337c0.3,2.163-0.583,5.711-2.646,10.638
	c-2.164,5.096-3.43,8.424-3.796,9.988c-0.999,4.129-0.799,8.341,0.6,12.636c1.132,3.463,3.446,6.658,6.942,9.588
	c0.335,0.277,0.949,0.729,1.805,1.331l-14.041,14.852c-1.298,1.299-1.898,3.047-1.798,5.244c0.1,1.863,0.632,3.662,1.598,5.394
	c2.297,3.962,5.21,5.478,8.74,4.544c1.462-0.389,9.002-4.471,22.585-12.223l0.538,2.834c1.032,6.459,1.748,10.371,2.147,11.736
	c1.298,4.36,3.429,7.475,6.393,9.34c2.763,1.797,6.209,2.746,10.338,2.846c3.795,0.101,6.143-0.398,7.042-1.498l1.998-2.697
	c2.93-4.161,5.494-7.324,7.691-9.488c3.867-3.836,8.404-6.951,13.606-9.35c-3.929,6.893-6.646,12.98-8.113,18.238
	c-1.498,5.428-1.515,9.189-0.05,11.287c0.999,1.498,2.78,2.896,5.344,4.195c2.941,1.485,5.883,2.057,8.825,1.729
	c0.183,0.037,0.37,0.063,0.564,0.07c4.894,0.231,11.753-0.75,20.576-2.947c10.222-2.563,16.73-5.543,19.527-8.939
	c2.297-2.764,5.66-5.277,10.088-7.541c3.659-1.882,6.792-2.906,9.417-3.099c0.48,0.387,0.97,0.802,1.47,1.251l13.083,13.533
	l7.843,8.341l9.237,9.339c1.767,1.665,4.047,2.465,6.844,2.396c2.497-0.032,5.011-0.731,7.541-2.098
	c2.431-1.331,4.244-2.93,5.443-4.794c1.299-1.998,1.531-3.829,0.698-5.493l-3.146-5.644l-11.088-19.179
	c-2.643-4.939-4.553-9.066-5.784-12.436c1.55-1.706,3.754-3.814,6.634-6.343c2.494-2.21,4.486-3.841,5.998-4.913
	c1.639,0.984,3.284,1.58,4.939,1.768l2.297-0.351l3.146-2.446c0.209-0.203,0.423-0.436,0.634-0.656l3.313,2.754
	c2.663,1.963,4.844,3.013,6.542,3.146c2.231,0.167,5.827-3.612,10.788-11.337c4.894-7.658,6.875-12.303,5.941-13.934
	c-0.356-0.644-1.113-1.28-2.246-1.914c0.514-2.069,1.377-4.844,2.597-8.324c1.431-4.125,2.754-7.494,3.972-10.129l1.271,0.191
	l35.358,5.192c2.497,0.231,4.578-0.351,6.242-1.748c1.532-1.332,2.765-3.412,3.696-6.242c1.031-3.164,1.182-5.993,0.449-8.489
	c-0.633-2.131-1.766-3.695-3.396-4.695c-0.611-0.365-9.732-4.307-27.352-11.819c1.512-3.581,2.11-6.653,1.781-9.206
	c-0.367-2.797-1.933-5.693-4.695-8.689c0.865-2.696,0.967-8.457,0.301-17.278c-0.569-7.607-1.424-14.196-2.559-19.782
	c2.861-1.539,4.332-2.669,4.405-3.391c0.466-3.896-1.516-9.539-5.942-16.93c-4.528-7.524-8.623-11.669-12.285-12.436
	c-0.934,0.1-2.863,1.315-5.795,3.646l-5.43,4.396l-2.959-11.288c-0.234-0.832-1.017-1.631-2.349-2.397l-4.162-1.931
	c1.455-1.531,3.072-2.874,4.861-4.012c1.829-1.171,3.516-1.972,5.059-2.41c2.497,2.16,4.495,3.67,5.979,4.507
	c3.496,1.998,6.809,2.431,9.938,1.298c7.059-2.563,19.977-9.206,38.756-19.927c18.312-10.421,33.428-19.71,45.347-27.867
	c2.264-1.531,3.679-3.646,4.245-6.343C346.614,56.931,346.481,54.816,345.749,52.786z"/>
</svg>
