<?xml version="1.0" encoding="utf-8"?>
<!-- Generator: Adobe Illustrator 16.0.0, SVG Export Plug-In . SVG Version: 6.00 Build 0)  -->
<!DOCTYPE svg PUBLIC "-//W3C//DTD SVG 1.1//EN" "http://www.w3.org/Graphics/SVG/1.1/DTD/svg11.dtd">
<svg version="1.1" id="图层_1" xmlns="http://www.w3.org/2000/svg" xmlns:xlink="http://www.w3.org/1999/xlink" x="0px" y="0px"
	 width="331px" height="308px" viewBox="0 0 331 308" enable-background="new 0 0 331 308" xml:space="preserve">
<g>
	<path d="M330.301,126.233c-0.3-1.099-1.132-1.714-2.497-1.848l-6.892-0.5l-8.04-0.549c-2.098-0.2-3.746-0.832-4.944-1.897
		c-0.532-0.466-1.298-1.448-2.297-2.946l-1.199-1.648c-0.466-0.532-1.016-0.899-1.646-1.099l-6.043-1.648
		c-2.264-0.366-4.096-0.183-5.493,0.549c-0.897,0.5-1.781,1.349-2.646,2.547c-0.865,1.199-1.482,2.431-1.849,3.696
		c-1.433,4.96-5.344,7.84-11.735,8.64c-7.425,0.999-12.802-1.215-16.131-6.642c-1.697-2.73-2.779-5.993-3.246-9.788
		c-0.5-4.461,0.018-8.64,1.549-12.535c1.299-3.329,3.479-6.359,6.541-9.089c3.83-3.329,8.674-5.81,14.533-7.441
		c0.5-0.133,0.715-0.433,0.648-0.899l-0.25-2.646c-0.033-0.866,0.134-1.498,0.499-1.897c1.231-1.398,5.161-1.665,11.786-0.799
		l13.283,1.149c1.465-0.333,2.681-1.182,3.646-2.547c0.933-1.365,1.398-2.93,1.398-4.694c0-2.563-0.916-4.96-2.747-7.191
		c-1.964-2.331-4.345-3.646-7.142-3.945l-16.58-0.749c-5.893,0.533-10.838,2.53-14.832,5.993c-0.933,0.799-2.197,2.23-3.795,4.295
		l-3.695,4.395c-2.764,2.63-5.178,3.845-7.241,3.646c-1.966-0.2-3.945-1.714-5.943-4.544c-1.198-1.665-1.813-3.296-1.848-4.894
		c0-0.899,0.25-2.131,0.75-3.695c0.832-1.598,1.265-2.714,1.298-3.346c0.033-1.065-1.031-2.098-3.195-3.096l-0.851,0.05
		l-2.847,2.597c-1.031,0.899-2.131,1.349-3.297,1.349c-2.43,0-3.194-1.148-2.297-3.446c0.866-2.197,2.23-3.646,4.096-4.345
		c1.231-0.466,2.215-1.049,2.947-1.748c0.933-0.899,1.182-1.798,0.748-2.697c-0.6-1.298-3.063-2.081-7.391-2.347
		c-3.796-0.233-5.544-1.232-5.244-2.996c0.266-1.432,2.146-2.68,5.643-3.746c2.299-0.699,4.846-1.215,7.642-1.548
		c3.164-0.399,5.794-1.265,7.892-2.597c1.932-1.199,3.096-2.58,3.495-4.145c0.601-2.563-1.165-5.277-5.293-8.14
		c-2.696-1.864-8.073-3.146-16.131-3.845L215.59,21.51c-3.063,0.799-5.461,2.63-7.191,5.493c-1.031,1.698-1.914,4.045-2.646,7.042
		c-0.467,1.931-1.017,3.229-1.647,3.896c-0.832,0.865-2.114,1.132-3.847,0.799c-0.799-0.167-1.696-0.599-2.696-1.298
		c-1.064-0.699-1.814-1.398-2.246-2.098l-1.049-3.496c-0.367-1.199-1.332-1.531-2.896-0.999c-0.4,0.133-1.033,0.55-1.898,1.249
		l-2.347,1.748c-3.462,2.197-5.66,3.229-6.593,3.096c-1.266-0.2-2.996-1.465-5.193-3.795c-2.43-2.497-3.828-4.811-4.195-6.941
		c-0.266-1.265,0.5-2.863,2.299-4.794c2.563-2.863,7.058-6.126,13.482-9.788c2.531-1.465,3.563-2.996,3.098-4.594
		c-0.5-1.865-2.83-3.479-6.991-4.844c-4.029-1.332-8.324-1.998-12.886-1.998c-4.194,0-8.39,1.615-12.584,4.844
		c-1.665,1.265-4.378,3.878-8.14,7.84l-2.597,2.397c-0.4,0.1-1.166-0.549-2.297-1.947l-2.946-3.796
		c-0.899-1.065-1.781-1.681-2.647-1.848l-3.995,0.45c-6.326,1.564-13.567,5.127-21.724,10.687
		c-4.694,3.196-6.842,7.291-6.442,12.285c0.167,2.197,1.115,4.211,2.847,6.042c1.332,1.432,2.979,2.597,4.944,3.496
		c1.032,0.499,1.565,1.315,1.598,2.447c0.033,0.999-0.3,2.031-0.999,3.096c-0.732,1.099-1.631,1.931-2.697,2.497l-4.544-0.15
		c-1.332-0.932-2.58-1.598-3.745-1.998l-3.146-0.1c-0.832,0.433-1.398,1.415-1.698,2.946c-0.267,1.166-0.399,2.83-0.399,4.994
		c0,0.699-0.483,1.249-1.448,1.648c-1.698,0.699-4.179,0.699-7.441,0c-3.129-0.666-5.227-1.532-6.292-2.597
		c-1.665-1.665-4.828-4.028-9.489-7.091c-4.96-3.229-8.839-5.394-11.636-6.492c-0.899-0.366-2.048-0.266-3.446,0.3
		c-0.966,0.399-2.264,1.132-3.896,2.197c-2.497,1.665-4.794,3.762-6.892,6.292c-2.264,2.697-3.413,4.944-3.446,6.742
		c-0.033,1.199,0.566,2.813,1.798,4.844c1.432,2.331,2.247,3.945,2.447,4.844c0.233,1.032-0.167,3.029-1.198,5.993
		c-1.166,3.363-2.547,5.577-4.145,6.642l-3.096-0.05c-3.097-2.231-6.126-3.646-9.089-4.245c-3.329-0.666-6.259-0.233-8.789,1.298
		c-2.63,1.598-4.761,4.045-6.393,7.341c-1.632,3.296-2.23,6.425-1.798,9.389c0.333,1.998,1.149,4.378,2.447,7.141l3.746,7.142
		c2.83,5.526,4.511,9.006,5.043,10.438c1.365,3.729,1.565,6.892,0.6,9.488c-0.799,2.131-2.048,3.462-3.746,3.995
		c-1.598,0.466-3.762,0.316-6.492-0.449c-0.566-0.167-1.448-1.465-2.647-3.896c-0.932-1.864-1.831-3.912-2.696-6.143
		c-1.499-3.995-2.73-6.459-3.696-7.391c-0.799-0.732-1.365-0.399-1.698,0.999l-3.795,16.83C0.583,135.805,0,141.482,0,146.609
		c0,1.432,0.183,3.313,0.549,5.643l0.899,6.043c0.3,2.563,1.165,6.408,2.597,11.536c1.332,4.694,2.297,7.674,2.896,8.938
		c0.433,0.865,1.349,1.481,2.747,1.848l3.446,0.5c4.495,0.433,7.857,1.531,10.088,3.296c1.764,1.465,2.963,2.862,3.595,4.194
		l0.699,2.498c0.2,1.299,0.1,2.112-0.299,2.446c-0.566,0.466-1.781,0.466-3.646,0c-1.798-0.434-2.963-0.282-3.496,0.449
		c-0.666,0.897-0.466,3.063,0.599,6.492c0.866,2.93,1.765,5.177,2.697,6.741c0.5,0.832,1.182,1.414,2.048,1.748l2.297,0.398
		l1.748,0.25c0.399,0.133,0.616,0.383,0.649,0.749c0.233,2.763,1.032,6.427,2.397,10.987c1.731,5.859,3.546,9.521,5.443,10.986
		c0.566,0.465,1.515,0.883,2.847,1.248l3.596,0.898l7.291,1.698c2.53,1.063,4.028,3.129,4.495,6.19
		c0.066,0.4-0.083,0.883-0.45,1.449l-1.498,1.748c-1.831,2.063-3.013,3.563-3.545,4.494c-1.166,2.164-1.448,4.479-0.849,6.941
		c1.765,7.356,9.039,13.899,21.824,19.627c4.661,2.063,9.488,3.777,14.482,5.143c4.395,1.166,7.607,1.732,9.638,1.699
		c4.961-0.033,7.974-1.332,9.039-3.896c0.699-1.598,0.882-5.709,0.549-12.334c0.633-0.799,4.811-0.184,12.535,1.848l1.947,0.5
		c2.064,0.466,4.461,2.181,7.191,5.144l7.591,8.789c1.332,1.433,3.446,2.381,6.342,2.849l8.64-0.25
		c2.53-0.533,4.927-1.599,7.191-3.197c2.364-1.697,3.862-3.461,4.495-5.293l0.5-1.648c1.198-3.994,2.73-6.658,4.594-7.99
		c3.33-2.396,9.506-3.712,18.527-3.945c0.732-0.032,1.766,0.783,3.098,2.447l3.194,4.396c1.232,1.766,2.646,3.264,4.245,4.495
		c1.798,1.397,3.646,2.33,5.544,2.797c12.884,3.195,24.369-3.113,34.457-18.928c1.332-2.098-0.332-2.28-4.993-0.549
		c-5.294,2.029-9.921,2.297-13.884,0.799c-3.096-1.133-5.243-2.963-6.44-5.494c-1.199-2.496-1.582-5.043-1.148-7.641
		c0.398-2.396,1.248-3.962,2.547-4.695c5.061-2.861,9.223-4.243,12.484-4.145c3.463,0.1,6.609,1.848,9.438,5.244
		c2.364,2.863,6.076,4.744,11.137,5.643c5.127,0.934,9.522,0.449,13.186-1.447c1.93-1,3.545-2.215,4.844-3.646l2.696-3.646
		l1.698-2.446c0.666-0.8,1.432-1.481,2.297-2.048c1.299-0.833,2.83-1.299,4.595-1.398l4.845,0.35
		c7.024,0.967,12.285-0.465,15.78-4.295c2.765-3.029,4.478-7.457,5.144-13.283c0.633-5.693,0-9.821-1.896-12.385
		c-0.564-0.799-1.448-1.365-2.646-1.698c-1.564-0.433-3.229-0.233-4.994,0.6c-2.996,1.398-6.459,2.364-10.387,2.896l-8.988,0.55
		l-3.945,0.148c-0.633,0.066-1.199-0.365-1.699-1.299l-1.248-2.695c-1.664-3.529-3.129-4.528-4.395-2.996l-2.197,3.295
		c-0.999,1.499-1.881,2.447-2.646,2.848c-1.53,0.832-3.313,1.364-5.344,1.598c-2.33,0.267-4.162,0-5.494-0.799
		c-2.097-1.266-2.93-3.379-2.496-6.343c0.332-2.229,1.248-4.495,2.746-6.792c0.732-1.098,2.183-2.029,4.346-2.797l6.992-1.797
		c6.392-1.432,10.586-2.497,12.584-3.196c4.961-1.831,8.807-4.462,11.535-7.891c0.699-0.899,0.699-1.565,0-1.997
		c-0.599-0.367-1.414-0.467-2.445-0.301c-8.092,1.266-13.201-0.449-15.332-5.144c-1.799-3.963-0.516-6.893,3.846-8.79
		c4.229-1.863,10.555-2.412,18.979-1.646c7.789,0.666,13.998,0.383,18.627-0.85c3.929-1.065,5.627-2.349,5.094-3.847
		c-0.434-1.298-0.217-2.68,0.648-4.145c0.934-1.531,2.348-2.73,4.245-3.596c3.362-1.564,5.942-3.046,7.74-4.444
		c3.13-2.431,5.627-5.477,7.491-9.139C330.135,130.562,330.767,127.998,330.301,126.233z"/>
	<path d="M192.816,290.285c-1.863-1.73-3.295-2.746-4.295-3.046c-1.465-0.433-3.347-0.417-5.644,0.05l-5.644,0.949
		c-1.332,0.033-2.813-0.483-4.444-1.549l-3.995-2.896c-1.331-0.932-2.313-1.348-2.946-1.248c-1.199,0.232-2.78,1.498-4.744,3.795
		c-1.931,2.23-3.063,4.063-3.396,5.494c-0.833,3.596-0.267,6.725,1.698,9.389c1.299,1.73,3.296,3.162,5.993,4.295
		c2.629,1.099,5.527,1.748,8.69,1.947c4.229,0.232,7.641,0.184,10.237-0.15c5.36-0.698,9.056-2.446,11.087-5.242
		c0.898-1.266,1.48-2.514,1.748-3.745c0.299-1.498,0.066-2.83-0.699-3.996C195.764,293.232,194.549,291.883,192.816,290.285z"/>
	<path d="M285.404,245.24c-1.963-1.232-3.428-1.781-4.396-1.648c-0.665,0.1-1.53,0.582-2.596,1.448l-1.998,2.048l-1.947,2.447
		c-0.866,0.865-1.831,1.432-2.896,1.697l-4.695,0.85c-5.26,0.865-8.456,1.498-9.588,1.896c-3.363,1.133-5.359,3.014-5.992,5.645
		c-0.467,1.896,0.116,3.943,1.748,6.143c1.298,1.765,2.58,2.93,3.846,3.496c3.029,1.364,5.959,2.246,8.789,2.646
		c3.629,0.498,6.541,0.082,8.738-1.249c2.564-1.532,5.145-3.778,7.741-6.742c2.431-2.763,4.36-5.56,5.793-8.39l1.448-3.246
		c0.398-1.299,0.365-2.414-0.101-3.346C288.701,247.736,287.402,246.505,285.404,245.24z"/>
	<path d="M325.606,167.584c-0.967-0.434-2.147-0.6-3.547-0.5l-3.896,0.55l-5.043,0.698c-1.865,0.066-3.546-0.166-5.044-0.698
		c-1.232-0.466-2.563-0.8-3.996-0.999c-1.964-0.267-3.379-0.1-4.244,0.5c-1.864,1.331-3.746,4.461-5.644,9.389
		c-2.03,5.359-2.613,9.539-1.748,12.535c0.666,2.229,2.048,3.646,4.146,4.244c2.63,0.799,6.043,0.467,10.237-0.998
		c3.43-1.199,6.093-2.58,7.99-4.146l1.896-1.797l2.048-1.648c2.863-1.765,4.744-3.18,5.645-4.244
		c1.331-1.599,2.33-4.111,2.996-7.541c0.166-0.8,0.083-1.799-0.25-2.996C326.788,168.633,326.272,167.85,325.606,167.584z"/>
	<path d="M315.02,106.458c1.266,0.366,3.014,0.017,5.243-1.049c2.099-0.999,3.597-2.064,4.495-3.196
		c0.267-0.299,0.482-0.932,0.648-1.897l1.697-1.598l0.601-2.197l0.199-1.049c0-1.665-0.134-2.78-0.399-3.346
		c-0.466-1.265-1.265-2.048-2.396-2.347c-2.132-0.6-4.694-0.316-7.691,0.849c-2.963,1.166-4.777,2.581-5.443,4.245
		c-1.53,3.829-1.813,6.708-0.849,8.64C311.79,104.909,313.088,105.892,315.02,106.458z"/>
	<path d="M75.758,35.343l9.439,0.25c1.731-0.3,3.396-1.332,4.994-3.096l3.945-5.244c0.866-1.198,2.963-3.479,6.292-6.841
		c2.73-2.764,4.594-5.194,5.593-7.292l0.05-0.1c1.166-2.364,1.615-4.361,1.349-5.993c-0.3-2.031-1.765-3.046-4.395-3.046
		c-2.93,0-6.425,0.649-10.487,1.947c-1.498,0.466-3.013,1.315-4.544,2.547l-3.945,3.446c-0.866,0.699-3.129,1.448-6.792,2.247
		c-2.997,0.633-4.877,1.814-5.644,3.546c-0.566,1.265-0.932,3.029-1.099,5.293c-0.167,2.197-0.1,4.012,0.2,5.443
		C71.414,31.981,73.095,34.278,75.758,35.343z"/>
</g>
</svg>
