<?xml version="1.0" encoding="utf-8"?>
<!-- Generator: Adobe Illustrator 16.0.0, SVG Export Plug-In . SVG Version: 6.00 Build 0)  -->
<!DOCTYPE svg PUBLIC "-//W3C//DTD SVG 1.1//EN" "http://www.w3.org/Graphics/SVG/1.1/DTD/svg11.dtd">
<svg version="1.1" id="图层_1" xmlns="http://www.w3.org/2000/svg" xmlns:xlink="http://www.w3.org/1999/xlink" x="0px" y="0px"
	 width="436px" height="352px" viewBox="0 0 436 352" enable-background="new 0 0 436 352" xml:space="preserve">
<g>
	<path d="M433.686,118.631c-0.833-0.899-4.694-1.448-11.589-1.648l-28.472,0.2c-12.159,0.06-20.427-0.367-24.828-1.277
		c7.539-9.343,16.444-20.601,26.728-33.789c16.116-20.679,26.239-34.232,30.368-40.66c3.729-5.794,5.195-9.124,4.396-9.99
		c-0.699-0.766-4.346-0.417-10.938,1.049c-11.987,2.664-31.451,7.892-58.393,15.685c-21.74,6.318-38.052,11.39-48.94,15.219
		c-22.039-12.539-45.685-17.688-70.939-15.418c-10.855,0.965-20.846,3.28-29.97,6.943c-2.874,1.158-5.532,2.412-8.016,3.742
		c-8.121-5.702-20.792-14.203-38.039-25.52c-17.35-11.422-29.97-19.547-37.862-24.376l-12.088-7.043
		c-3.097-1.532-5.211-2.048-6.344-1.548c-1.232,0.566-1.732,2.348-1.499,5.345c0.233,2.697,1.115,7.243,2.647,13.636
		c2.531,10.356,7.592,28.089,15.185,53.197c5.265,17.371,8.98,29.343,11.156,35.953c-3.705-0.647-10.86-2.305-21.496-4.983
		l-23.027-5.844c-5.961-1.332-9.324-1.332-10.09,0c-0.633,1.132,0.483,4.013,3.347,8.642c7.798,12.49,22.833,33.652,45.062,63.433
		c-3.68,1.028-12.277,2.477-25.831,4.35c-5.628,0.766-8.375,1.848-8.242,3.247c0.067,1.031,2.314,3.229,6.744,6.594l37.063,27.922
		c19.117,14.593,33.267,25.785,42.489,33.604c12.542,15.511,27.51,28.854,44.924,40.022c12.787,8.225,30.021,16.815,51.697,25.772
		c5.465,2.25,9.67,4.052,12.655,5.418c1.274,2.242,2.565,4.314,3.878,6.171c2.631,3.764,4.213,5.563,4.746,5.396
		c0.434-0.134,0.732-2.298,0.898-6.493c0.002-0.068,0.008-0.133,0.011-0.2c4.198,2.269,9.089,5.331,14.675,9.19
		c4.396,3.098,6.927,4.346,7.593,3.746c0.601-0.532-0.183-3.015-2.348-7.441l-2.747-5.695c1.965,1.066,6.927,4.379,14.885,9.94
		l18.433,12.787c7.525,5.028,11.622,6.86,12.287,5.495c0.601-1.267-1.78-5.445-7.143-12.539
		c-10.49-13.885-16.75-22.312-18.781-25.273l5.146,2.797c3.297,1.799,5.794,3.08,7.492,3.846c3.729,1.666,5.744,2.183,6.044,1.55
		c0.365-0.699-0.898-3.479-3.796-8.343c-1.65-2.725-3.489-6.316-5.511-10.752c2.224,1.408,5.218,2.48,9.007,3.211
		c5.86,1.131,10.822,1.031,14.886-0.301c5.095-1.664,10.257-1.248,15.483,1.248c2.396,1.15,4.394,2.531,6.015,4.133
		c0.586,4.488-0.176,9.088-2.317,13.801c-1.432,3.229-3.663,6.728-6.693,10.488c-2.229,2.832-3.245,4.58-3.047,5.246
		c0.233,0.698,2.016,0.883,5.346,0.549c8.791-0.832,16.899-3.213,24.325-7.143c6.228-3.264,9.74-6.111,10.539-8.542
		c0.866-2.599,1.282-7.909,1.249-15.935c-0.032-7.76-0.398-12.953-1.099-15.584c-0.233-0.865-1.083-1.881-2.548-3.047l-4.597-3.297
		c-4.194-2.83-7.241-5.346-9.141-7.543c-2.676-3.07-4.207-6.383-4.619-9.93c3.915-4.46,6.814-8.629,8.665-12.499
		c3.497-7.226,2.548-16.517-2.847-27.872c-2.065-4.296-4.463-8.226-7.193-11.788c-2.529-3.297-4.629-5.395-6.294-6.294
		c-2.143-1.184-6.021-1.691-11.603-1.539l10.604-6.003c4.896-2.997,9.524-5.978,13.888-8.94c7.491-5.063,10.988-8.492,10.488-10.289
		c-0.466-1.566-4.745-2.998-12.837-4.297l-28.521-4.435c4.584-4.185,12.42-11.042,23.526-20.59l28.972-24.875
		C432.67,123.36,434.917,120.03,433.686,118.631z"/>
	<path d="M143.124,228.422l-2.448-2.098c-1.099-0.732-2.031-1.1-2.797-1.1l-8.691,0.85l-5.944,0.8
		c-1.266,0.16-2.667,0.178-4.188,0.067c-4.326-3.371-10.203-9.584-17.64-18.648L87.58,191.609c-1.964-1.699-7.026-3.73-15.185-6.094
		c-8.059-2.332-13.387-3.363-15.984-3.099c-2.531,0.233-7.842,4.112-15.934,11.64c-8.059,7.459-12.404,12.438-13.037,14.936
		c-1.433,5.592-0.914,12.945,1.542,22.049l-1.143,0.029l-9.541-0.15c-1.898,0-3.313,0.25-4.246,0.749
		c-1.532,0.866-4.246,4.313-8.142,10.34c-4.229,6.593-6.194,11.255-5.895,13.986c0.533,4.528,3.164,10.239,7.893,17.133
		c5.927,8.69,13.12,15.401,21.578,20.13c1.266,0.699,2.131,0.916,2.598,0.648c0.433-0.232,0.483-0.781,0.15-1.647
		c-2.364-6.728-3.763-13.819-4.196-21.278c-0.169-3.006-0.159-5.932-0.005-8.791c2.823-0.447,6.003,0.213,9.545,1.998
		c1.631,0.832,5.228,3.146,10.789,6.942l9.491,6.243c3.563,1.965,6.91,3.014,10.04,3.146c2.165,0.102,4.545-0.267,7.143-1.099
		l5.595-2.147c2.098-0.832,3.729-1.281,4.895-1.349c1.132-0.067,2.897,0.199,5.295,0.8l4.645,1.197l4.795,0.148
		c2.265-0.465,5.978-2.963,11.139-7.491c4.293-3.741,7.46-5.876,9.504-6.409l0.835,0.314c4.862,1.531,9.191,2.299,12.987,2.299
		c2.364,0,5.661-1.85,9.89-5.545c4.063-3.563,6.194-6.211,6.394-7.942c0.466-4.562-0.233-9.424-2.098-14.585
		C147.32,234.383,145.389,230.953,143.124,228.422z M63.953,224.826c-1.129,1.664-3.561,2.979-7.269,3.949
		c1.815-1.899,4.353-4.479,7.669-7.797c0.005,0.004,0.011,0.006,0.016,0.01C64.799,222.436,64.664,223.717,63.953,224.826z"/>
</g>
</svg>
