<?xml version="1.0" encoding="utf-8"?>
<!-- Generator: Adobe Illustrator 16.0.0, SVG Export Plug-In . SVG Version: 6.00 Build 0)  -->
<!DOCTYPE svg PUBLIC "-//W3C//DTD SVG 1.1//EN" "http://www.w3.org/Graphics/SVG/1.1/DTD/svg11.dtd">
<svg version="1.1" id="图层_1" xmlns="http://www.w3.org/2000/svg" xmlns:xlink="http://www.w3.org/1999/xlink" x="0px" y="0px"
	 width="289px" height="337px" viewBox="0 0 289 337" enable-background="new 0 0 289 337" xml:space="preserve">
<path d="M275.289,202.689c-1.831-1.076-3.637-1.504-5.417-1.285c0.577-1.207,1.069-2.118,1.472-2.711
	c1.165-1.799,0.799-2.881-1.1-3.246l-6.443,0.248c-1.26,0.308-2.412,0.699-3.464,1.172c-0.925-2.682-2.108-5.17-3.571-7.454
	c1.844-1.306,5.301-4.399,10.383-9.3c6.691-6.428,9.89-10.09,9.59-10.989c-0.334-0.966-2.53-1.848-6.594-2.647
	c-2.816-0.573-5.396-0.875-7.772-0.943c2.765-2.69,5.964-5.93,9.621-9.746c11.256-11.788,16.467-18.88,15.635-21.278
	c-0.601-1.765-7.493-2.598-20.68-2.498c-0.466,0.004-0.919,0.01-1.376,0.016c1.094-1.947,2.218-4.525,3.373-7.758
	c1.533-4.329,1.949-6.709,1.25-7.143l-10.391,0.3c-4.959,0.857-9.158,2.042-12.621,3.547c3.848-6.63,7.658-13.09,11.424-19.331
	l23.076-37.211c3.195-5.128,4.577-8.191,4.146-9.19c-0.533-1.099-3.847-1.715-9.938-1.848c-12.621-0.267-27.271,1.349-43.955,4.845
	c-11.151,2.319-20.338,4.84-27.566,7.562c0.896-5.234,2.184-10.566,3.892-16.003c0.899-2.863,1.183-4.445,0.849-4.745
	c-0.465-0.399-2.896-0.433-7.291-0.1c-3.83,0.267-8.241,1.132-13.236,2.597c-2.385,0.684-4.563,1.407-6.545,2.166
	c-0.094-3.985,0.105-9.432,0.602-16.351c0.532-7.126,1.198-13.536,1.997-19.23c0.533-3.696,0.55-5.744,0.052-6.144
	c-0.732-0.666-3.414-0.1-8.043,1.698c-11.287,4.362-22.859,12.438-34.713,24.225c-7.021,6.954-12.211,13.061-15.582,18.326
	c-0.44-1.577-0.874-3.47-1.301-5.689c-0.666-3.363-1.132-6.543-1.398-9.54c-0.167-1.964-0.483-2.997-0.949-3.097
	c-0.533-0.133-2.048,0.599-4.545,2.198c-4.562,2.897-9.89,7.858-15.983,14.884c-0.722,0.829-1.407,1.638-2.065,2.432
	c-5.205-3.918-11.906-10.75-20.112-20.513c-8.658-10.289-15.384-19.58-20.179-27.871c-1.998-3.53-3.746-5.194-5.245-4.995
	c-1.532,0.2-2.947,2.397-4.246,6.593c-4.329,13.918-5.844,35.213-4.545,63.883c1.23,27.452,4.354,47.975,9.361,61.61
	c-2,6.318-3.501,12.825-4.488,19.526c-9.463,2.081-18.014,6.485-25.652,13.215c-7.292,6.426-12.371,13.554-15.234,21.377
	c-0.066,0.233-1.715,1.351-4.945,3.349c-3.13,1.963-4.728,3.361-4.795,4.194c-0.062,1.175,1.635,2.466,5.045,3.869
	c-0.993,0.903-1.849,1.858-2.548,2.873c-1.199,1.698-1.582,2.881-1.149,3.547c0.333,0.565,1.965,0.832,4.895,0.799l5.456-0.538
	c-0.267,1.051-0.441,2.258-0.511,3.637c-0.167,2.33,0.133,3.695,0.899,4.096c0.466,0.266,1.981-0.051,4.545-0.949l9.24-3.247
	c9.662-2.968,18.641-3.935,26.955-2.95c1.568,6.629,3.633,13.025,6.21,19.185c2.903,6.938,6.386,13.429,10.44,19.481
	c-3.225,1.851-6.042,4.475-8.442,7.889c-2.73,3.863-4.512,8.143-5.344,12.838c-1.5,8.617,0.311,16.74,5.411,24.369
	c-1.183,1.033-2.387,2.527-3.613,4.5c-1.532,2.498-2.081,4.097-1.648,4.796c0.366,0.6,1.315,1.065,2.847,1.397l1.198,0.146
	c-0.425,0.881-0.857,1.963-1.297,3.252c-0.899,2.764-1.132,4.496-0.699,5.194c0.533,0.865,2.281,1.017,5.244,0.449
	c1.683-0.322,3.212-0.738,4.607-1.236c-0.083,0.23-0.186,0.451-0.261,0.688c-0.732,2.23-0.616,3.546,0.35,3.946
	c2.298,0.965,5.927,0.965,10.889,0c4.862-0.933,10.173-2.632,15.934-5.097c13.194-5.611,23.144-12.385,29.869-20.312
	c0.217,0.076,0.432,0.158,0.649,0.233c12.822,4.422,25.343,6.188,37.567,5.307c2.746,5.369,6.353,10.146,10.834,14.322
	c6.625,6.16,15.949,11.705,27.971,16.633c0.767,0.3,1.965,2.613,3.597,6.943c1.563,4.194,2.931,6.41,4.096,6.643
	c0.832,0.167,2.431-1.016,4.796-3.546l3.297-3.896l5.344,2.846c3.729,1.832,5.961,2.531,6.693,2.099
	c1.098-0.633,2.264-2.563,3.495-5.794l1.498-4.596l5.296,1.35c3.362,0.699,5.327,0.6,5.895-0.301
	c0.531-0.865,0.449-3.014-0.25-6.443c-0.832-3.296-1.215-5.045-1.148-5.244c2.364-7.756,3.021-16.556,2.012-26.373
	c2.127,0.315,5.19-0.076,9.228-1.197c5.494-1.532,8.573-3.579,9.239-6.145c0.666-2.564-2.297-6.877-8.891-12.938
	c-4.517-4.151-8.838-7.607-12.968-10.381c1.382-3.353,2.628-7.156,3.728-11.445c1.272-4.993,2.605-11.861,4-20.561
	c6.369-1.453,13.109-3.754,20.226-6.912l2.946-0.299c1.83-0.232,2.863-0.601,3.097-1.1c0.334-0.633-0.065-1.698-1.198-3.196
	c-0.82-1.079-1.633-1.819-2.438-2.237c3.478-1.873,5.191-3.26,5.135-4.156C278.186,204.938,277.188,203.82,275.289,202.689z"/>
</svg>
