<?xml version="1.0" encoding="utf-8"?>
<!-- Generator: Adobe Illustrator 16.0.0, SVG Export Plug-In . SVG Version: 6.00 Build 0)  -->
<!DOCTYPE svg PUBLIC "-//W3C//DTD SVG 1.1//EN" "http://www.w3.org/Graphics/SVG/1.1/DTD/svg11.dtd">
<svg version="1.1" id="图层_1" xmlns="http://www.w3.org/2000/svg" xmlns:xlink="http://www.w3.org/1999/xlink" x="0px" y="0px"
	 width="487px" height="493px" viewBox="0 0 487 493" enable-background="new 0 0 487 493" xml:space="preserve">
<path d="M480.449,231.698c-1-0.733-1.983-1.283-2.95-1.65c-1.2-0.467-2.167-0.567-2.9-0.3c-4.366,1.634-8.434,3.634-12.2,6.001
	c-5.367,3.333-8.584,6.601-9.651,9.801c-1.496,4.461-2.375,8.313-2.642,11.563l-0.208-0.012c-4.635,0.198-7.352,0.832-8.151,1.898
	c-0.666,0.934-2.667,3.001-6,6.2l-10.751,10.2l-14.402,13.603c-4.634,4.468-7.267,7.233-7.899,8.302c-0.667,1.1-0.4,4.7,0.8,10.801
	c0.242,1.229,0.497,2.351,0.759,3.416c-0.055,0.013-0.104,0.021-0.158,0.035c-4.2,1-7.601,2.449-10.201,4.351
	c-2.066,1.5-4.084,4.284-6.051,8.351c-0.767,1.561-1.381,3.012-1.854,4.361l-8.897-3.161c-2.2-0.366-5.801,1.649-10.801,6.051
	c-0.185,0.16-0.36,0.323-0.543,0.484c-2.055-2.545-3.676-4.011-4.858-4.386l-4.25-0.399l-4.699,0.55l-0.856,0.066l-2.191-6.178
	c0.214-0.396,0.377-0.793,0.447-1.189l0.8-10.25l4.501-19.002c1.301-5.867,1.783-9.785,1.45-11.752
	c-0.334-2.033-1.134-4.551-2.399-7.551c-1.233-2.967-2.4-5.217-3.501-6.75c-0.948-1.34-2.022-2.62-3.198-3.855
	c1.539-3.835,2.524-6.688,2.948-8.547c0.5-2.266,1.649-4.482,3.45-6.65l5.45-5.801l4.2-5.05c1.967-2.267,1.9-7.067-0.2-14.402
	l-4.751-13.838c1.254-2.6,2.619-5.828,4.103-9.714l5.75-16.702c1.699-4.467,2.116-11.701,1.25-21.702
	c-0.768-9.034-2.051-15.968-3.851-20.802c-0.967-2.567-4.617-7.201-10.951-13.901c-0.709-0.734-1.633-1.411-2.765-2.03
	c-0.28-1.963-0.642-4.302-1.086-7.021l-5.051-30.503l-1.101-7c-0.267-1.834-4.417-4.201-12.451-7.101
	c-2.329-0.835-5.143-1.77-8.409-2.798c-0.57-1.524-1.163-3.097-1.791-4.753c-6.401-16.735-10.585-26.269-12.553-28.603
	c-2.232-2.667-12.5-8.967-30.803-18.902c-18.77-10.201-29.986-15.301-33.654-15.301c-3.433,0-15.317,2.784-35.652,8.351
	l-17.751,4.451l-13.051,2.7c-3.567,0.567-6.701,3.2-9.401,7.901c-2.767,5.934-4.967,10.234-6.601,12.901
	c-0.479,0.789-0.922,1.503-1.346,2.18c-1.154,0.148-2.321,0.318-3.505,0.521c-0.873,0.15-1.706,0.315-2.521,0.488
	c-1.406-2.947-3.362-6.92-5.879-11.939c-6-12.001-9.868-18.219-11.601-18.652l-6.451-0.35c-3.333,0.2-5.75,0.783-7.25,1.75
	c-0.434,0.267-0.9,0.934-1.4,2c-0.433,0.867-0.717,1.6-0.85,2.2c-0.327,1.704-1.269,9.855-2.822,24.418
	c-4.968,1.493-10.886,3.335-17.78,5.535c-18.235,5.8-28.336,9.584-30.303,11.351c-2.1,1.934-8.734,12.668-19.902,32.203
	c-11.134,19.502-16.968,30.537-17.502,33.104c-0.3,1.4,0.05,3.333,1.05,5.801c0.934,2.233,2.284,4.567,4.05,7l2.785,3.646
	c-3.647,6.428-8.856,16.289-15.636,29.608c-2.634,5.167-5.518,10.151-8.651,14.952c-2.734,4.234-4.584,6.75-5.551,7.551
	c-1.467,1.233-1.883,3.767-1.25,7.601c0.2,1.4,1.15,5.234,2.85,11.501c1.967,7.367,2.767,12.551,2.4,15.551l-0.7,5.25L12.651,242
	c-0.4,3.4-0.083,5.618,0.95,6.65l4.4,5.15c0.526,0.57,1.08,1.151,1.63,1.731c-0.451,0.481-0.906,0.966-1.38,1.469l-13.9,14.401
	c-3.367,3.768-4.767,8.168-4.201,13.201c0.4,3.168,1.8,8.967,4.201,17.401l7.401,26.703c5.167,18.103,8.317,27.886,9.451,29.353
	c2.929,3.776,9.826,6.863,20.647,9.27l0.205,1.434l-0.1,0.75l-2.601,6.351c-1.233,3.532-1.85,6.684-1.85,9.45
	c0,1.435,0.15,2.983,0.45,4.65c0.4,2.301,1.033,4.334,1.9,6.102l9.351,17.252c5.367,9.667,8.484,15.051,9.351,16.15
	c0.633,0.801,1.65,1.468,3.05,2l4.45,1.352l4.551,1.35c1.567,0.602,2.6,1.268,3.1,2.001l19.102,29.553
	c1.434,1.968,4.617,4.033,9.551,6.2c2.967,1.301,7.451,2.95,13.452,4.951c3.8,1.268,8.417,3.417,13.852,6.45
	c3.934,2.2,7.567,4.434,10.901,6.701c2.833,1.866,6.601,2.75,11.301,2.648c4.5-0.1,7.768-0.982,9.801-2.648l5.25-7.353l9.451-8.95
	c4-3.566,6.701-5.501,8.101-5.801c3.067-0.7,6.15-2.167,9.25-4.399c3.267-2.367,5.067-4.552,5.401-6.552
	c0.367-2.232,1.65-7.4,3.85-15.502c2.3-8.566,3.784-13.301,4.451-14.2l1.5-1.25c3.467-2.867,6.118-5.302,7.951-7.302
	c3.3-3.634,5.184-6.918,5.65-9.852l0.85-4.5l1.45-8.552c0.5-3.699,0.75-7.283,0.75-10.75c0-0.848-0.017-1.711-0.048-2.584
	c0.608-2.439,1.236-4.854,1.898-7.217c1.534-5.469,2.851-9.318,3.951-11.553c0.9-1.767,4.017-5.584,9.351-11.451
	c1.567-1.767,3.917-3.767,7.051-6c2.399-1.768,3.834-3.218,4.301-4.351c0.988-2.488,2.031-8.019,3.129-16.569
	c1.396,4.192,2.288,6.573,2.672,7.118c0.398,0.601,1.916,1.185,4.551,1.75l8.275,1.74c0.009,0.205,0.017,0.399,0.025,0.608
	l0.25,14.252c0,4.168,0.115,6.602,0.35,7.302c0.9,2.467,5.1,6.601,12.602,12.401c7,5.435,11.784,8.601,14.352,9.5
	c2.172,0.733,5.199,0.621,9.063-0.314l2.138,2.165l11.15,11.7c1.634,1.602,3.15,2.4,4.551,2.4l12.901-0.949l7.65-0.649l3.551,0.3
	l2.899-0.45c2.968-1,6-2.467,9.102-4.399c3.534-2.2,6.301-4.519,8.301-6.951c0.834-1,1.567-3.051,2.2-6.15
	c0.128-0.658,0.264-1.465,0.406-2.387c2.522,0.453,5.564,0.371,9.145-0.264c5.701-1.033,9.918-2.5,12.651-4.4l0.601-0.398
	l6.15-4.752c2.267-2.166,3.566-4.25,3.899-6.25c0.043-0.293,0.058-0.678,0.047-1.135l3.403-0.216c4.667-0.5,8.317-1.3,10.951-2.399
	c2.033-0.899,4.067-2.649,6.101-5.25c1.867-2.435,3.135-4.817,3.802-7.151c0.398-1.366-0.033-4.65-1.302-9.851
	c-0.049-0.199-0.097-0.379-0.145-0.572c0.066,0.023,0.128,0.049,0.195,0.072c4.267,1.434,7.184,1.516,8.751,0.25
	c2.267-1.834,6.982-7.168,14.15-16.003c6.935-8.534,11.201-14.168,12.801-16.901l0.45-2.25l1.45-22.803l-0.837-2.775
	c1.807-0.363,3.784-1.067,5.938-2.124c2.968-1.5,5.335-3.117,7.102-4.851c2.134-2.102,4.117-5.719,5.95-10.852
	c1.501-5.668,2.367-10.302,2.601-13.902C486.217,237.216,484.35,234.599,480.449,231.698z M251.977,207.845l-6.853,11.351
	c-2.533,4.5-4.167,8.601-4.9,12.301c-0.667,3.2,1.85,10.667,7.551,22.401c0.232,0.48,0.457,0.938,0.684,1.398l-2.184-1.695
	l-7.551-6.65c-2.667-2.534-4.784-4.851-6.351-6.951c-1.333-1.833-3.084-5.601-5.25-11.301c-1.267-3.467-3.167-9.001-5.701-16.602
	l-5.5-15.802c-1.833-4.801-3.334-7.934-4.5-9.401c-0.997-1.231-2.861-2.651-5.554-4.25c1.96-1.144,3.169-2.261,3.604-3.352
	l3.75-8.18c0.135,0.043,0.264,0.086,0.4,0.129c15.268,4.834,24.769,6.784,28.503,5.851h0.274
	c-0.844,6.683-1.221,10.546-1.125,11.551c0.3,2.767,3.951,8.734,10.953,17.902c0.096,0.125,0.188,0.244,0.282,0.368L251.977,207.845
	z"/>
</svg>
