<?xml version="1.0" encoding="utf-8"?>
<!-- Generator: Adobe Illustrator 16.0.0, SVG Export Plug-In . SVG Version: 6.00 Build 0)  -->
<!DOCTYPE svg PUBLIC "-//W3C//DTD SVG 1.1//EN" "http://www.w3.org/Graphics/SVG/1.1/DTD/svg11.dtd">
<svg version="1.1" id="图层_1" xmlns="http://www.w3.org/2000/svg" xmlns:xlink="http://www.w3.org/1999/xlink" x="0px" y="0px"
	 width="244px" height="270px" viewBox="0 0 244 270" enable-background="new 0 0 244 270" xml:space="preserve">
<path d="M241.422,31.95c-0.966-1.531-2.447-2.879-4.443-4.044c-1.031-0.599-2.58-1.298-4.644-2.097
	c-1.53-0.632-2.479-1.115-2.846-1.448c-0.365-0.366-0.567-0.92-0.624-1.642c0.063-0.035,0.109-0.07,0.174-0.104
	c0.732-0.433,1.914-0.982,3.545-1.647l4.145-1.947c0.566-0.399,0.666-0.898,0.299-1.498c-0.397-1.099-1.696-2.297-3.894-3.595
	c-2.497-1.465-4.96-2.229-7.39-2.297c-1.564-0.033-3.66,0.45-6.29,1.448l-3.944,1.448c-3.728-0.2-6.855,0.349-9.387,1.647
	c-2.195,1.132-5.242,3.545-9.137,7.239L188.3,31.25c-5.145,4.115-9.26,6.325-12.366,6.671c-1.436-2.426-2.992-4.774-4.709-7.021
	c-0.822-1.085-1.675-2.124-2.541-3.139c1.736-3.079,3.069-6.771,3.989-11.09c1.031-4.693,1.031-7.688,0-8.986
	c-0.933-1.165-4.327-1.231-10.187-0.2c-5.803,0.982-10.229,2.668-13.313,5.039c-6.547-3.182-13.689-5.131-21.435-5.838
	c-8.957-0.812-18.024,0.147-27.202,2.848c-5.085-3.633-10.295-6.279-15.635-7.89c-7.023-2.13-13.031-2.23-18.023-0.3
	c-1.464,0.566-2.313,1.198-2.546,1.897C64.2,3.74,64.366,4.672,64.832,6.037c1.764,4.826,4.111,9.153,7.04,12.98
	c0.89,1.164,1.87,2.317,2.928,3.461c-7.668,5.418-14.623,11.797-20.852,19.156c-15.11,17.776-26.876,38.545-35.297,62.31
	c-8.62,24.352-11.967,47.119-10.066,68.308c-6.064,13.361-8.752,25.375-8.057,36.037c0.566,8.654,3.611,17.175,9.136,25.563
	c1.498,2.23,2.213,3.978,2.147,5.242c-0.066,1.131-0.865,2.579-2.396,4.344c-4.061,4.692-5.875,8.486-5.442,11.383
	c0.167,0.933,0.699,1.882,1.598,2.847c0.589,0.608,1.222,1.108,1.891,1.519c0.76,1.332,2.418,2.821,4.999,4.474
	c3.162,2.03,5.925,3.245,8.288,3.646c4.227,0.766,8.621,0.697,13.18-0.201c4.294-0.832,7.023-2.014,8.188-3.545
	c0.05-0.063,0.09-0.134,0.131-0.203c2.945-1.444,4.726-3.072,5.311-4.889c0.333-1.099,0.2-2.629-0.399-4.594
	c-0.699-2.163-0.949-3.461-0.749-3.895c0.965-1.896,3.845-4.525,8.637-7.889c5.492-3.895,9.22-6.689,11.184-8.388
	c1.17-1.029,2.279-2.083,3.327-3.161c11.933,3.628,24.175,4.249,36.728,1.861c1.911,1.065,4.266,2.742,7.076,5.043
	c4.094,3.396,6.39,5.941,6.89,7.64c-3.129,1.865-4.044,4.062-2.746,6.591c1.099,2.264,3.462,4.161,7.091,5.691
	c3.627,1.598,8.402,2.88,14.328,3.845c5.141,0.847,10.68,1.37,16.588,1.599c0.492,0.142,1.1,0.242,1.834,0.299l10.784-0.299
	c4.793-0.566,7.772-1.516,8.937-2.847c1.766-1.964,1.314-4.344-1.348-7.14c-2.119-2.246-4.025-3.563-5.724-3.977
	c-1.296-1.311-2.84-2.646-4.661-4.013c-2.004-1.46-3.771-2.515-5.334-3.212c9.695-9.539,15.409-19.551,17.117-30.039
	c1.83-11.53-1.064-24.227-8.655-38.081c0.677-4.515,0.867-9.194,0.567-14.042c-0.633-10.284-3.129-20.469-7.489-30.554
	c-2.563-5.926-6.108-12.503-10.606-19.712l1.627-0.169c0.551,0.651,1.297,1.171,2.239,1.559c1.697,0.666,3.878,0.849,6.54,0.549
	c0.233,0,0.666,0.216,1.299,0.649c4.293,2.962,8.055,2.779,11.283-0.549l1.197-0.949l2.146,0.15c0.5-0.167,1.016-0.682,1.549-1.548
	c1.947-3.448,3.52-7.218,4.722-11.304c5.659-4.088,10.911-9.364,15.747-15.855c2.963-3.961,6.758-9.918,11.384-17.874l8.787-14.878
	c3.396-5.525,6.008-9.053,7.839-10.584c2.163-0.932,4.959-1.764,8.387-2.496c2.563-0.533,4.576-1.198,6.041-1.997
	C242.221,33.598,242.121,32.949,241.422,31.95z"/>
</svg>
