<?xml version="1.0" encoding="utf-8"?>
<!-- Generator: Adobe Illustrator 16.0.0, SVG Export Plug-In . SVG Version: 6.00 Build 0)  -->
<!DOCTYPE svg PUBLIC "-//W3C//DTD SVG 1.1//EN" "http://www.w3.org/Graphics/SVG/1.1/DTD/svg11.dtd">
<svg version="1.1" id="图层_1" xmlns="http://www.w3.org/2000/svg" xmlns:xlink="http://www.w3.org/1999/xlink" x="0px" y="0px"
	 width="387px" height="373px" viewBox="0 0 387 373" enable-background="new 0 0 387 373" xml:space="preserve">
<path d="M379.6,141.75c-3.967-3.833-8.75-5.75-14.35-5.75c-4.226,0-7.888,1.027-11.001,3.053c-0.118-0.444-0.344-0.848-0.699-1.203
	c-0.414-0.441-0.924-0.689-1.52-0.766c-6.798-3.593-13.478-8.028-20.034-13.31c-1.032-5.43-2.563-12.433-4.596-21.024l-5.4-22.5
	c-2.938-12.42-4.73-20.945-5.384-25.602c0.594-0.654,1.219-1.365,1.884-2.148c2.533-3,4.25-5.467,5.15-7.4
	c0.933-1.934,0.782-4.75-0.45-8.45c-0.733-2.1-1.65-4.117-2.75-6.05c-0.4-0.733-1.584-1.85-3.55-3.35l-3.3-2.287
	c-0.041-0.425-0.09-0.835-0.15-1.213c-0.667-3.9-2.384-6.883-5.15-8.95c-0.533-0.433-2.267-0.783-5.2-1.05l-4.5-0.35l-3.55-4.15
	c-1.7-1.8-3.384-3.066-5.05-3.8c-0.934-0.4-3.033-0.434-6.3-0.1l-6,0.95c-3.167-3.3-5.4-5.25-6.7-5.85l-6.05-0.2
	c-2.767,0.367-4.667,0.934-5.7,1.7c-1.268,1-3.633,5.267-7.1,12.8c-3.7,8.066-5.467,13.533-5.301,16.4
	c0.152,2.45,1.572,6.238,4.229,11.332c-0.274,3.688-1.509,7.428-3.729,11.219l-1.051,1.8c-0.466,0.7-0.75,1.2-0.85,1.5
	c-0.733,2-0.7,4.35,0.1,7.05c0.733,2.434,1.817,4.367,3.25,5.8c1,1,3.934,2.55,8.801,4.65c4.699,2,7.532,3.017,8.5,3.05
	c0.502,0.012,1.021-0.024,1.553-0.083L277.45,95.5l13.05,23.65l1.172,2.597c-0.936,1.729-3.347,3.694-7.271,5.903
	c-3.785,2.096-9.342,4.609-16.623,7.528l0.022-0.078c-0.1-0.233-0.483-0.3-1.149-0.2l-4.317,0.528l1.418-2.228l1.05-2.45
	c0.2-0.833,0.034-1.35-0.5-1.55l-3.1-0.4l-1.051-0.05l1-0.7l0.899-0.75l0.3-0.65c0.033-0.267-0.115-0.6-0.449-1l-1.551-1.4
	l2.45-2.95l0.15-0.8c-0.101-0.2-0.417-0.283-0.95-0.25l-7.1,0.3c3-3.333,4.717-5.417,5.148-6.25l0.15-0.8
	c-0.102-0.167-0.45-0.367-1.051-0.6l-3.851-0.25l-3.851-0.05l0.801-1.1c0.334-0.5,0.449-0.883,0.35-1.15s-0.467-0.533-1.1-0.8
	l-1.9-0.65l1.051-1.3l0.649-1l0.05-0.75c-0.1-0.167-0.383-0.267-0.85-0.3c-1.533,0-2.934-0.316-4.2-0.95l1.25-4.1l0.5-2.05
	l-0.2-0.75c-0.166-0.133-0.481-0.133-0.949,0l-5.5,1.45l0.801-1.65l0.949-2.1l0.199-1.4l-1.3-0.05
	c-1.299,0.346-2.757,1.024-4.354,1.995c-0.248-1.309-0.512-2.664-0.795-4.095c1.5-8.2,3.166-19.367,5-33.5
	c2.166-16.633,3.301-28.617,3.399-35.95c0.034-3.1-0.384-4.9-1.25-5.4c-0.933-0.566-2.767,0.083-5.5,1.95
	c-5.833,3.966-13.183,10.633-22.05,20c-8.79,9.263-14.702,16.677-17.745,22.247c-4.366-1.363-9.146-2.004-14.355-1.897
	c-6.176,0.088-11.648,1.231-16.423,3.42c-4.821-7.026-11.736-14.729-20.777-23.12c-8.667-8.034-15.95-13.733-21.85-17.1
	c-3.033-1.7-5.017-2.316-5.95-1.85c-0.8,0.434-1.25,2-1.35,4.7c-0.2,5.833,1.067,15.333,3.8,28.5
	c3.066,14.667,6.816,27.767,11.25,39.3c-0.477,2.847-0.901,5.505-1.277,7.99l-2.521-1.19l-1.25-0.3c-0.2,0.1-0.35,0.417-0.45,0.95
	l0.05,2.9l0.15,2.45l-3.75-0.25c-0.633,0.033-0.867,0.367-0.7,1l1.3,3.45l-2.4-0.05c-0.633,0-0.883,0.283-0.75,0.85
	c0.133,0.466,0.583,1.4,1.35,2.8l-2.15-0.15l-2.4-0.05c-0.6,0.067-0.767,0.417-0.5,1.05l1.95,4.2l-5.4,2.4
	c-0.5,0.267-0.583,0.667-0.25,1.2l3.95,4.6l-1.55,0.35l-1.85,0.7c-0.3,0.3-0.35,0.65-0.15,1.05c0.4,0.667,1.483,1.733,3.25,3.2
	l-3.75,2.3c-0.567,0.566-0.55,1.05,0.05,1.45l1.95,1.1l1.4,0.6l-2.25,1.95l-2.25,2.05c-0.3,0.434-0.25,0.8,0.15,1.1
	c1.14,0.95,3.116,1.975,5.908,3.075l-4.108,0.425l-3.85,0.9c-0.733,0.233-0.867,0.65-0.4,1.25l2.15,2.65l1.7,2.05l-2.55,2.25
	l-1.8,1.7c-0.167,0.333-0.133,0.617,0.1,0.85c0.4,0.434,1.566,1.217,3.5,2.35l-1.7,1.45l-1.55,1.4c-0.3,0.366-0.417,0.633-0.35,0.8
	c0.066,0.2,0.45,0.5,1.15,0.9s1.5,0.733,2.4,1l-2.05,1.7c-0.267,0.333-0.367,0.583-0.3,0.75c0.067,0.167,0.35,0.4,0.85,0.7
	l1.95,1.05l-2.85,3.05c-1.233,1.367-2.05,2.383-2.45,3.05c-0.3,0.533-0.183,0.917,0.35,1.15c0.775,0.374,2.432,0.694,4.942,0.96
	c-4.842,4.184-8.023,6.798-9.497,7.799c-2.801-2.854-6.814-7.987-12.045-15.409c-5.767-8.2-9.4-13.85-10.9-16.95
	c-0.5-1.033-0.883-2.367-1.15-4l-0.75-4.95c-0.7-3.933-1.317-6.8-1.85-8.6c-0.867-2.9-1.917-4.867-3.15-5.9
	c-0.809-0.678-2.008-1.18-3.587-1.511c-1.136-0.903-2.504-2.063-4.113-3.489l-6.6-6.25l-3.4-3.6l-1.85-1.8
	c-4-2.533-6.65-4.15-7.95-4.85c-2.7-1.433-4.7-2.033-6-1.8c-2.5,0.467-4.933,1.183-7.3,2.15c-2.7,1.167-4.4,2.333-5.1,3.5
	c-0.951,1.715-1.896,4.03-2.836,6.902c-1.528,0.366-3.177,0.875-4.964,1.548c-3.667,1.367-6.133,2.917-7.4,4.65
	c-2.143,2.987-3.585,7.171-4.336,12.532c-1.685,0.4-2.911,1.318-3.664,2.768L2.3,150c-2.033,6.267-2.633,10.4-1.8,12.4
	c0.433,1.034,1.233,1.833,2.4,2.4c0.703,0.331,1.492,0.532,2.348,0.632c-0.164,3.086-0.138,5.791,0.102,8.068
	c0.333,3.066,1.033,4.867,2.1,5.4c2.066,1.067,4.683,0.917,7.85-0.45c3.233-1.434,5.434-3.5,6.6-6.2
	c0.808-1.831,1.294-4.37,1.472-7.592c1.388-0.25,2.765-0.104,4.128,0.492c0.9,0.367,1.767,1.15,2.6,2.35l1.95,3.2
	c1.5,2.167,2.867,3.716,4.1,4.65c1.467,1.1,3.45,1.917,5.95,2.45c2.167,0.434,3.45,0.934,3.85,1.5
	c3.533,5.5,12.25,14.55,26.15,27.15c15.267,13.899,25.383,20.899,30.35,21c4.033,0.1,11.066-2.667,21.1-8.3
	c8.919-5,15.476-9.514,19.68-13.541c0.497,3.024,0.687,6.521,0.57,10.49c-0.2,5.601-1.05,10.149-2.55,13.649
	c-0.833,1.935-4.183,6.283-10.05,13.05L116.6,259.4l-6.7,7.85c-1.133,1.566-2.35,4.867-3.65,9.9c-1.133,4.398-1.75,7.5-1.85,9.3
	c-0.033,0.733,0.7,2.782,2.2,6.149c1.6,3.633,3.483,7.315,5.65,11.051c3.919,6.781,7.429,11.506,10.534,14.201l-1.984,4.897
	c-1.2,2.935-1.95,4.5-2.25,4.7l-5.6,2.199c-3.833,1.566-6.034,2.634-6.6,3.199c-1.167,1.2-1.833,3.269-2,6.2
	c-0.2,2.9,0.167,4.968,1.1,6.2c1.066,1.367,3.45,2.316,7.15,2.85c3.428,0.481,6.734,0.332,9.921-0.438
	c1.919,0.808,4.604,1.192,8.079,1.14l8.981-0.842c2.224,0.866,5.376,1.266,9.469,1.191l12.6-1.301
	c1.167-0.133,2.817-1.383,4.95-3.75c2.267-2.533,4.05-5.25,5.35-8.148l4.8-11.4c1.533-3.966,2.3-6.384,2.3-7.25
	c0-2.066-0.283-4.033-0.85-5.898c-0.667-2.102-1.534-3.519-2.6-4.25c-3.367-2.234-5.75-4.5-7.15-6.801
	c-1.965-3.234-2.517-6.969-1.686-11.189c4.646-2.564,11.267-4.969,19.885-7.21c14.067-3.634,23.617-4.284,28.65-1.95
	c4.934,2.334,10.9,6.033,17.9,11.1c4.156,2.99,8.279,6.172,12.371,9.521c-0.518,6.475-1.785,12.107-3.821,16.88
	c-1.267,3-3.2,6.283-5.8,9.851c-2.366,3.301-3.717,5.883-4.051,7.75c-0.633,3.899,0.084,10.101,2.149,18.601
	c2.333,9.7,5.317,15.466,8.95,17.3c2.9,1.434,7.584,2.184,14.05,2.25l11.851-0.949c0.547-0.119,1.086-0.381,1.617-0.771l7.582,0.672
	l8.301-0.5c0.334-0.105,0.658-0.273,0.976-0.49c1.556,0.342,3.659,0.622,6.325,0.84c3.699,0.301,6.482,0.317,8.35,0.051
	c0.866-0.133,1.733-0.584,2.602-1.351c0.832-0.8,1.5-1.767,2-2.899c0.698-1.566,1.083-3.232,1.148-5
	c0.066-1.899-0.267-3.366-1-4.399c-0.565-0.8-1.482-1.517-2.75-2.149l-3.398-1.649c-2.334-1.269-4.234-2.468-5.7-3.601
	c-1.733-1.801-3.366-4.268-4.9-7.399c-1.013-1.999-1.723-3.718-2.147-5.171l1.897-2.729l3.851-5.35L301.6,318.8
	c2.602-4.2,4.435-8.083,5.5-11.649c0.867-2.934,1.084-7.315,0.65-13.149c-0.4-5.435-1.134-9.7-2.2-12.8
	c-0.966-2.733-5.216-8.352-12.75-16.852l-20.85-22.6l-3.229-3.432c-2.226-4.627-4.947-11.293-8.171-20.02
	c-4.392-11.949-7.099-20.726-8.125-26.33l2.525,0.881l1.05-0.101l-0.05-1c-0.534-2.2-0.833-3.75-0.9-4.649l3.55,0.199l2.602-0.1
	c0.433-0.067,0.699-0.2,0.8-0.4l-0.3-1c-0.764-1.553-1.396-3.035-1.914-4.454c13.322-3.629,28.424-9.824,45.313-18.596
	c17.268-9,26.635-15.633,28.102-19.9c0.805-2.352,0.762-6.606-0.114-12.726c5.359,4.011,10.661,7.369,15.905,10.08
	c0.088,0.565,0.336,1.049,0.759,1.446c0.253,0.253,0.53,0.442,0.828,0.575c-3.67,3.66-5.528,8.21-5.528,13.675
	c0,5.7,1.935,10.517,5.8,14.45c3.9,3.9,8.718,5.85,14.45,5.85c5.467,0,10.185-1.867,14.15-5.6c4.1-3.934,6.148-8.833,6.148-14.7
	C385.6,150.367,383.6,145.65,379.6,141.75z M369.15,159.8c-1.067,1.1-2.367,1.65-3.9,1.65s-2.833-0.55-3.9-1.65
	c-1.1-1.066-1.648-2.366-1.648-3.9c0-0.69,0.139-1.38,0.412-2.07c0.295,0.034,0.591-0.003,0.887-0.13c0.5-0.2,0.883-0.6,1.15-1.2
	c0.188-0.441,0.252-0.882,0.216-1.323c0.912-0.545,1.872-0.827,2.884-0.827c1.533,0,2.833,0.55,3.9,1.65
	c1.1,1.066,1.648,2.367,1.648,3.9C370.799,157.434,370.249,158.733,369.15,159.8z"/>
</svg>
