<?xml version="1.0" encoding="utf-8"?>
<!-- Generator: Adobe Illustrator 16.0.0, SVG Export Plug-In . SVG Version: 6.00 Build 0)  -->
<!DOCTYPE svg PUBLIC "-//W3C//DTD SVG 1.1//EN" "http://www.w3.org/Graphics/SVG/1.1/DTD/svg11.dtd">
<svg version="1.1" id="图层_1" xmlns="http://www.w3.org/2000/svg" xmlns:xlink="http://www.w3.org/1999/xlink" x="0px" y="0px"
	 width="312px" height="212px" viewBox="0 0 312 212" enable-background="new 0 0 312 212" xml:space="preserve">
<path d="M309.5,100.9c-2.267-3.267-4.783-4.75-7.55-4.45l-3.4,1.05c-0.591,0.201-1.125,0.33-1.631,0.422
	c-0.194-0.915-1.112-2.07-2.769-3.472l-3.9-3.2c-8.232-8.967-12.9-14.733-14-17.3c-0.768-1.8-2.15-3.3-4.15-4.5
	c-1.8-1.1-3.199-1.5-4.199-1.2c-0.008,0.002-0.016,0.008-0.023,0.011c-0.727-0.7-1.548-1.146-2.477-1.311
	c-1.101-0.2-2.217,0-3.351,0.6c-2.966,1.567-7.017,2.9-12.149,4l-5.017,0.435c2.019-2.752,4.023-4.964,6.017-6.634
	c3.232-2.733,6.916-4.567,11.051-5.5c0.283-0.066,0.535-0.242,0.759-0.509c0.5,0.341,1.119,0.693,1.892,1.059
	c1.434,0.7,2.217,1.1,2.351,1.2c1.399,1.033,3.733,3.133,7,6.3c4,3.9,6.649,6.917,7.95,9.05c0.666,1.1,2,1.616,4,1.55
	c0.117-0.002,0.23-0.013,0.347-0.019c0.665,1.484,1.315,2.523,1.953,3.069c0.767,0.634,1.767,0.833,3,0.6
	c1.267-0.2,2.399-0.783,3.399-1.75l2.101-2.55c0.8-0.934,1.517-1.617,2.149-2.05c0.934-0.667,2.084-1.15,3.449-1.45
	c1.301-0.3,2.051-0.583,2.25-0.85c0.233-0.267,0.018-0.717-0.648-1.35c-1.168-1.1-2.168-1.883-3-2.35
	c-1.168-0.633-2.316-0.9-3.45-0.8c-1.265,0.118-2.722,0.634-4.349,1.503c-0.42-1.012-1.17-1.913-2.252-2.704
	c-9.968-7.133-16.916-12.5-20.851-16.1c-2.767-2.567-4.601-4.017-5.5-4.35c-1.239-0.479-2.746-0.199-4.511,0.824
	c-1.277-0.673-2.491-0.834-3.641-0.474c-0.699,0.2-2.1,1.333-4.199,3.4l-7.051,7.1l-3.6,3.5c-1.725,1.633-4.111,2.684-7.152,3.164
	c-0.244-3.281-0.889-5.912-1.947-7.864c-1.434-2.7-3.916-5.167-7.449-7.4c-1.366-0.867-4.583-2.55-9.65-5.05
	c-5.767-2.8-9.566-5.3-11.398-7.5c-1.9-2.3-3.635-5.55-5.2-9.75c-1.567-4.3-2.851-9.25-3.851-14.85c-0.301-1.8-1.301-2.8-3-3
	c-1.732-0.2-2.899,0.6-3.5,2.4l-2,6.2c-2.033,6.434-3.649,10.917-4.851,13.45c-1.623,3.435-3.356,5.619-5.199,6.596
	c-1.723-1.216-3.522-4.53-5.399-9.946l-2.95-10.5c-0.8-2.233-2.034-3.2-3.7-2.9c-1.666,0.267-2.633,1.633-2.9,4.1l-1,10.45
	c-0.563,3.961-1.269,7.271-2.119,9.928c-0.918,1.368-2.088,2.677-3.529,3.922c-1.816,1.57-4.352,3.255-7.589,5.051
	c-1.288-0.877-2.657-1.283-4.111-1.201c-3.233,0.167-5.433,1.85-6.6,5.05c-0.208,0.59-0.355,1.19-0.47,1.795
	c-2.716,1.439-4.598,2.708-5.63,3.805c-0.746,0.817-1.204,1.952-1.392,3.384c-1.841-0.877-3.451-1.836-4.808-2.884l-1.65-1.3
	c-0.6-0.3-1.284-0.45-2.05-0.45c-0.694,0.026-1.348,0.184-1.962,0.467c-1.272-0.581-2.801-0.404-4.587,0.533
	c-2.033,1.1-3.083,2.434-3.15,4l0.15,3.2l-0.1,2.4l-0.984,3.338c-1.032-0.446-2.063-0.912-3.093-1.397
	c-1.045-1.071-1.961-2.109-2.738-3.11c0.288-2.202,0.053-4.363-0.735-6.481c-1.167-3.223-3.263-5.687-6.267-7.412
	c0.229-4.2-0.499-9.611-2.184-16.238c-2.567-10.067-6.133-17.667-10.7-22.8c-2.4-2.633-9.3-5.483-20.7-8.55
	c-13.067-3.5-25-4.9-35.8-4.2c-3.433,0.2-8.483,3.184-15.15,8.95C6.067,14.533,2.233,18.833,0.9,22c-1,2.367-1.033,6.133-0.1,11.3
	c0.9,4.9,2.317,9.417,4.25,13.55c1.133,2.5,2.534,4.583,4.2,6.25c1.367,1.4,2.317,2.083,2.85,2.05c0.6-0.066,1.1-1.05,1.5-2.95
	c0.767-3.634,2.867-7.717,6.3-12.25c0.399-0.528,0.802-1.029,1.207-1.523c2.732-1.146,5.591-1.937,8.593-2.327
	c3.466-0.434,5.783-0.167,6.95,0.8c1.7,1.4,3.85,3.65,6.45,6.75c3.167,3.8,5.683,7.45,7.55,10.95c1.033,1.9,1.4,3.566,1.1,5
	c-0.155,0.777-0.464,1.328-0.901,1.69c-0.299-0.046-0.6-0.08-0.899-0.141c-4.633-0.933-8.6-3.566-11.9-7.9l-0.5-0.5
	c-0.167-0.066-0.35-0.017-0.55,0.15c-1.3,1-2,3.367-2.1,7.1c-0.133,3.566,0.25,5.7,1.15,6.4c1.667,1.267,3.983,4,6.95,8.2
	c2.3,3.3,4.2,6.233,5.7,8.8c0.767,1.333,4.367,2.033,10.8,2.1c6.267,0.067,11.9-0.467,16.9-1.6c3.04-0.675,5.936-2.48,8.692-5.384
	l1.69,0.046c2.008,0.715,4.046,0.776,6.114,0.168l0.704,0.02c0.648-0.204,1.258-0.458,1.851-0.737
	c-0.744,3.859-2.04,8.283-3.901,13.287l-4.95,11.9c-0.714,1.637-0.693,3.26,0.055,4.871c-1.188,1.316-2.57,2.183-4.155,2.578
	l-2.25,0.601c-0.9,0.3-1.583,0.75-2.05,1.351c-1.333,1.733-1.917,3.733-1.75,6c0.167,1.666,0.483,2.532,0.95,2.601
	c0.267,0.032,1.033-0.351,2.3-1.15c2.6-1.565,5.35-2.149,8.25-1.75l2.7,0.15c2.033-0.134,3.55-0.884,4.55-2.25
	c0.849-1.188,1.236-2.716,1.172-4.575c0.28-0.125,0.557-0.264,0.828-0.425c1.767-1.067,2.816-2.601,3.15-4.601l0.309-2.028
	L105,104.85c3,1.033,5.133,0.833,6.4-0.6c1.133-1.267,1.267-2.933,0.4-5c-0.037-0.092-0.125-0.141-0.244-0.161
	c0.338-0.268,0.654-0.579,0.944-0.939c1.1-1.333,1.733-3.133,1.9-5.4l0.1-3.1c0.04-0.67,0.099-1.222,0.173-1.683
	c0.235-0.042,0.476-0.095,0.727-0.167c0.323-0.094,0.616-0.209,0.904-0.328c0.72,0.417,1.389,0.657,1.996,0.678
	c1.034,0.033,2.75-0.433,5.15-1.4l4.1-0.35c1.89,0.08,3.568,0.349,5.054,0.79c0.688,0.949,1.46,1.707,2.315,2.275
	c1.267,5.208,3.766,9.197,7.532,11.935c4.09,2.978,9.111,3.982,15.046,3.052c3.706,1.926,7.31,3.144,10.804,3.647
	c3.48,0.491,7.105,0.308,10.87-0.537c1.353,1.302,3.668,2.269,6.979,2.888c5.101,0.966,10.367,0.5,15.801-1.4
	c3.3-1.134,6.267-2.633,8.898-4.5c2.867-2.033,4.816-4.183,5.852-6.45c0.197-0.452,0.328-0.884,0.427-1.304
	c1.835-0.719,3.517-1.689,5.022-2.946c1.75-1.413,3.117-3.093,4.132-5.015c6.334,1.538,11.21,4.124,14.618,7.765l2,2.55
	c0.525,0.661,0.994,1.181,1.406,1.566c-0.103,0.288-0.156,0.583-0.156,0.884c0.063,4.433-1.322,9.237-4.127,14.403
	c-0.436,0.048-0.875,0.113-1.322,0.197c-3.215,0.582-5.801,1.874-7.778,3.86c-3.196-0.242-8.601,0.054-16.222,0.89
	c-11.102,1.233-18.417,3.116-21.95,5.649c-4.666,3.399-11.101,11.584-19.3,24.551c-8.866,14.065-13.102,24.065-12.7,30
	c0.2,2.6,1.633,6.75,4.3,12.449c2.733,5.899,5,9.449,6.801,10.649c1.699,1.166,4.334,2.383,7.899,3.649
	c4.435,1.566,8.666,2.551,12.7,2.949c2.033,0.168,3.183,0.033,3.449-0.398c0.301-0.467,0.283-2.116-0.051-4.95
	c-1.565-11.565-1.5-18.315,0.2-20.25c3.733-4.267,9.116-8.983,16.15-14.149c2.471-1.815,4.719-3.336,6.755-4.576
	c0.555-0.104,1.117-0.187,1.695-0.225c1.398-0.066,2.199,0.051,2.398,0.352c0.7,1.5,1.034,3.731,1,6.699
	c-0.063,3.635-0.96,6.434-2.672,8.418c-1.566-0.088-3.143-0.357-4.729-0.817l-0.601-0.05c-0.267,0.033-0.45,0.1-0.55,0.199
	c-0.301,0.532,0.268,2.217,1.699,5.051c1.201,2.365,2.184,4.065,2.951,5.1c0.666,0.9,1.25,1.283,1.75,1.15
	c1-0.234,3.533-0.25,7.6-0.051l7.1,0.101l5.45-0.65c2.601-0.933,5.935-4.366,10-10.3c1.833-2.6,3.399-4.65,4.7-6.15
	c1.867-2.199,2.3-6.717,1.3-13.55c-0.821-5.592-2.37-11.502-4.629-17.723c0.038-0.536,0.054-1.05,0.054-1.55
	c1.203-0.891,2.146-2.266,2.825-4.127c0.8-2.102,1.101-4.4,0.899-6.9c-0.331-3.787-1.621-7.009-3.866-9.665
	c-0.108-2.651,0.159-5.726,0.817-9.235c0.666-3.731,1.467-6.583,2.398-8.55c0.534-1.1,0.217-2.433-0.949-4
	c-0.082-0.109-0.166-0.207-0.248-0.309c0.563-1.172,0.618-2.435,0.147-3.791c-0.601-1.767-1.95-3.117-4.05-4.05
	c-2.7-1.167-5.518-2.55-8.45-4.15c-2.554-1.398-4.697-2.716-6.449-3.955l1.949-0.445l3.399-1.2c1.834-0.667,4.149-1.25,6.949-1.75
	l9.7-0.75l4.399-0.15c0.691-0.138,1.271-0.362,1.764-0.652c0.633,0.98,1.729,2.047,3.287,3.202c1.732,1.333,4.184,4.45,7.35,9.35
	c3.135,4.833,4.984,8.3,5.551,10.4c0.566,2.167,1.717,3.6,3.449,4.3l4.062,0.166c0.893,1.349,2.069,2.248,3.54,2.685
	c1.699,0.533,3.398,0.35,5.1-0.551l2.15-1.449c1.365-0.967,2.615-1.65,3.75-2.05c1.699-0.633,3.482-0.833,5.35-0.6
	c1.667,0.233,2.567,0.133,2.7-0.3C311.134,103.567,310.634,102.533,309.5,100.9z M103.55,90.6c-0.9,2.8-1.25,4.733-1.05,5.8
	c0.069,0.355,0.2,0.686,0.359,1.005l-1.123,0.115l0.514-3.37c0.859-5.152,1.829-9.017,2.909-11.613
	c0.316,0.213,0.617,0.42,0.916,0.626L103.55,90.6z M132.35,74.45c-0.622,0.476-1.119,1.024-1.495,1.643
	c-3.445-0.026-7.73-0.894-12.859-2.604c0.285-1.081,0.893-2.821,1.824-5.223c0.321,0.022,0.663,0.019,1.03-0.016
	c1.066-0.033,3.133,0.583,6.2,1.85c1.813,0.763,3.166,1.379,4.074,1.852c0.454,0.876,0.975,1.696,1.556,2.469L132.35,74.45z"/>
</svg>
