<?xml version="1.0" encoding="utf-8"?>
<!-- Generator: Adobe Illustrator 16.0.0, SVG Export Plug-In . SVG Version: 6.00 Build 0)  -->
<!DOCTYPE svg PUBLIC "-//W3C//DTD SVG 1.1//EN" "http://www.w3.org/Graphics/SVG/1.1/DTD/svg11.dtd">
<svg version="1.1" id="图层_1" xmlns="http://www.w3.org/2000/svg" xmlns:xlink="http://www.w3.org/1999/xlink" x="0px" y="0px"
	 width="707px" height="677px" viewBox="0 0 707 677" enable-background="new 0 0 707 677" xml:space="preserve">
<path d="M706.509,613.918c-0.968-5.971-3.553-11.54-7.755-16.71c-3.902-4.771-7.088-6.971-9.556-6.604
	c-1.102,0.166-3.035,1.25-5.805,3.253c-1.866,1.399-3.418,2.4-4.651,3.001c-1.56,0.716-3.147,1.121-4.766,1.229
	c0.623-3.313,0.446-6.475-0.537-9.485c-1.002-3.034-2.637-5.553-4.903-7.554c-11.173-9.906-24.431-23.081-39.773-39.522
	c-15.343-16.41-24.248-26.982-26.716-31.72c-2.135-4.068-5.72-5.954-10.756-5.652c-4.137,0.232-7.389,1.434-9.756,3.602
	c-0.044,0.037-0.05,0.095-0.058,0.152c-1.867-2.456-3.995-3.825-6.396-4.056c-1.769-0.167-5.67,1.603-11.707,5.305
	c-1.331,0.867-2.54,1.647-3.676,2.378c4.905-4.225,10.386-8.777,16.482-13.686c3.335-2.669,7.671-5.986,13.009-9.956
	c3.835-2.969,6.152-5.203,6.953-6.704c1.367-2.502,2.103-6.137,2.201-10.905c0.086-3.979-0.286-7.376-1.108-10.2
	c0.186-0.188,0.383-0.359,0.559-0.557c3.669-4.068,4.37-9.739,2.102-17.011c-6.736-21.379-11.057-35.638-12.958-42.774
	c-3.901-14.477-6.504-27.933-7.804-40.374c-0.567-5.604-1.368-9.738-2.401-12.407c-0.993-2.567-2.494-4.797-4.491-6.696
	c4.22-4.216,7.977-9.044,11.246-14.516c14.475-24.114,20.911-45.744,19.311-64.888c-0.5-6.07-1.934-12.607-4.302-19.612
	c-2.735-8.171-4.203-12.791-4.403-13.858c-0.166-0.967,0.567-3.636,2.202-8.005l4.452-12.658
	c3.302-10.973,5.286-17.877,5.953-20.712c1.268-5.07,1.769-9.222,1.501-12.458c-0.233-3.102-1.302-6.837-3.201-11.207l-8.057-17.01
	l-9.755-19.511c-3.603-7.371-5.854-12.958-6.755-16.76c-0.267-1.167-0.133-4.069,0.4-8.705c1.066-9.072,1.385-16.06,0.951-20.962
	c-0.834-9.139-3.869-16.543-9.105-22.213c-10.706-11.541-23.146-21.58-37.322-30.118c-14.741-8.905-30.468-15.66-47.178-20.262
	c-37.389-10.306-74.845-9.089-112.366,3.652c-3.97,1.334-7.872,4.586-11.707,9.755c-3.067,4.069-5.47,8.338-7.204,12.808
	c-3.368,8.739-5.369,18.428-6.004,29.067c-0.113,1.949-0.167,3.81-0.167,5.595c-8.646,7.187-14.729,19.11-18.244,35.78
	c-1.468,7.104-2.201,14.025-2.201,20.762c0,6.437,0.649,11.323,1.951,14.659c1.867,4.736,4.103,6.887,6.703,6.454
	c2.103-0.367,6.188-3.068,12.258-8.104l12.808-10.807c5.203-4.136,9.239-6.554,12.107-7.254l10.416,1.076
	c24.813,13.753,44.851,31.747,60.075,54.006c6.138,8.972,10.839,17.744,14.107,26.316c2.902,7.638,4.203,13.725,3.902,18.261
	l-9.605,7.705l-9.205,7.304c-0.467,0.634-0.784,1.784-0.951,3.452l-0.198,6.804l0.449,7.205c0.166,2.735,0.018,4.436-0.449,5.103
	c-4.336,6.47-9.322,11.957-14.959,16.459c-5.132,4.066-9.746,6.296-13.854,6.709c-5.863-3.797-12.835-10.469-20.916-20.017
	l-7.005-8.105c-2.334-2.301-4.302-3.202-5.903-2.702c-1.468,0.434-2.983,1.968-4.553,4.603c-1.701,2.868-3.102,6.437-4.202,10.706
	c-2.769,10.94-2.719,22.997,0.15,36.171c1.033,4.77,3.052,10.006,6.054,15.709c3.468,6.57,7.771,12.708,12.907,18.411
	c13.074,14.608,29,23.832,47.777,27.667c13.976,2.866,26.85,2.45,38.623-1.252c4.421-1.386,8.61-3.216,12.569-5.484
	c13.136,5.044,26.178,6.701,39.129,4.968c-0.259,3.541,0.328,6.62,1.783,9.223c1.101,1.935,3.735,4.952,7.904,9.056
	c5.235,5.137,10.522,13.091,15.858,23.863c7.604,15.344,11.94,31.202,13.008,47.578c0.061,0.832,0.194,1.634,0.369,2.419
	c-3.252,1.419-5.765,4.438-7.522,9.088l-2.151,6.704c-0.767,2.603-1.501,4.471-2.201,5.604
	c-7.471,12.341-17.677,24.131-30.617,35.371c-12.24,10.673-23.397,17.909-33.471,21.713c-0.9,0.345-1.718,0.898-2.467,1.619
	c0.678-8.297,0.619-15.496-0.185-21.581c-1.769-13.041-7.172-24.599-16.21-34.671c-0.667-0.768-1.269-1.067-1.802-0.9
	c-0.534,0.134-0.866,0.667-1.001,1.601c-1.264,9.728-3.922,19.445-7.965,29.157c-0.74-2.476-1.323-4.219-1.74-5.191
	c-1.001-2.47-2.185-4.036-3.553-4.703l-4.678,0.115c4.005-6.119,9.674-13.404,17.035-21.878
	c4.803-5.537,11.322-12.624,19.562-21.264c5.003-5.27,6.221-9.389,3.652-12.356c-1.102-1.234-2.735-1.901-4.903-2.001
	c-2.268-0.102-4.686,0.434-7.254,1.601l-49.479,22.363c-4.035,1.9-6.653,2.635-7.854,2.201c-1.101-0.366-1.084-1.734,0.05-4.104
	c1.936-4.002,8.307-14.708,19.111-32.118l16.71-26.716c1.701-2.869,2.452-5.42,2.252-7.653c-0.167-2.002-1.051-3.47-2.652-4.404
	c-1.534-0.934-3.385-1.166-5.553-0.699c-2.302,0.5-4.47,1.701-6.504,3.602c-27.85,25.517-45.243,41.143-52.181,46.878
	c-4.003,3.336-6.922,4.604-8.756,3.804c-1.567-0.667-2.034-2.618-1.4-5.854c1.566-7.705,4.086-21.129,7.555-40.273l5.003-27.866
	c0.5-3.235,0.283-5.903-0.649-8.006c-0.867-1.934-2.186-3.135-3.952-3.602c-1.768-0.467-3.636-0.134-5.604,1
	c-2.067,1.268-3.869,3.252-5.402,5.954c-1.534,2.735-11.925,23.831-31.168,63.287c-1.868,3.836-3.354,5.837-4.453,6.004
	c-1.135,0.167-2.719-1.483-4.753-4.953c-1.4-2.368-6.438-12.958-15.108-31.769l-14.859-32.17c-1.268-2.567-2.867-4.385-4.803-5.453
	c-1.734-0.967-3.469-1.184-5.203-0.65c-1.701,0.501-3.018,1.635-3.952,3.402c-0.967,1.936-1.284,4.236-0.951,6.904l8.655,64.787
	c0.534,3.902-0.033,6.172-1.701,6.805c-1.434,0.534-3.068-0.066-4.903-1.801l-26.215-23.215l-26.516-23.263
	c-2.435-2.103-4.82-3.252-7.154-3.453c-2.101-0.166-3.835,0.435-5.203,1.802c-1.334,1.367-2.018,3.151-2.051,5.354
	c-0.033,2.401,0.734,4.82,2.301,7.255c2.368,3.735,8.455,12.724,18.261,26.966l16.46,24.015c1.501,2.302,2.151,3.985,1.951,5.054
	c-0.233,1.232-1.601,1.601-4.103,1.101c-4.069-0.834-23.497-6.805-58.284-17.911c-3.069-1.033-5.737-1.232-8.005-0.601
	c-2.101,0.601-3.536,1.785-4.303,3.553c-0.8,1.734-0.767,3.687,0.1,5.854c0.934,2.301,2.685,4.419,5.253,6.354
	c6.304,4.771,12.724,9.939,19.261,15.51c0.052,0.044,0.101,0.087,0.153,0.131c-0.39,0.027-0.821,0.267-1.304,0.771
	c-8.638,9.438-14.308,21.179-17.01,35.221c-0.358,1.89-0.65,3.779-0.888,5.673c-11.715-5.295-22.203-11.86-31.432-19.73
	c-11.14-9.473-19.328-19.945-24.564-31.419c-0.967-2.067-3.252-3.552-6.854-4.452l-5.498-0.775c-0.004-0.061,0-0.115-0.005-0.176
	c-0.867-10.071,1.384-21.546,6.754-34.42c5.403-12.975,12.024-22.63,19.862-28.967c2.135-1.734,3.352-4.52,3.652-8.355
	c0.2-2.873-0.162-5.502-1.085-7.89c11.77-2.202,24.621-7.508,38.557-15.925c15.275-9.205,24.248-17.609,26.916-25.214
	c4.502-12.874,5.37-26.266,2.602-40.174c-2.069-10.313-6.13-20.779-12.139-31.396l-1.77-14.48
	c-1.167-9.372-1.518-15.442-1.051-18.211c0.534-3.369,4.019-9.055,10.456-17.06c5.124-6.425,9.732-11.359,13.842-14.854
	c7.12-2.191,12.818-3.547,17.076-4.058c6.337-0.767,9.873-2.234,10.606-4.402c0.767-2.335-1.751-5.403-7.554-9.206
	c-9.172-6.003-21.046-10.806-35.621-14.409c-12.474-3.102-21.896-4.353-28.267-3.752c-4.77,0.434-16.043,5.753-33.82,15.959
	c-19.078,11.006-32.202,20.378-39.373,28.117c-3.469,3.769-5.653,8.521-6.554,14.258c-0.567,3.569-0.717,9.556-0.451,17.96
	l0.701,14.859c0.167,5.77-0.033,11.023-0.601,15.759c-1.601,12.808-6.72,27.433-15.359,43.876c-2.001,3.802-0.75,9.505,3.752,17.11
	c2.168,3.636,6.871,10.073,14.108,19.311c3.648,4.647,6.788,8.255,9.423,10.827c-1.744,2.013-3.171,4.303-4.27,6.884
	c-1.501,3.502-2.051,6.771-1.651,9.806l1,5.954c0.3,2.568,0.133,4.853-0.5,6.854l-5.453,19.462
	c-4.069,13.642-8.438,26.349-13.108,38.122c-1.734,4.369-1.367,8.737,1.101,13.107c1.688,2.953,3.847,5.081,6.457,6.42
	c-0.431,4.722,0.08,9.163,1.558,13.322c-3.967-0.691-7.346-0.511-10.116,0.569c-3.569,1.435-6.271,4.453-8.104,9.056
	c-1.167,2.936-5.503,8.973-13.008,18.11c-12.607,15.274-24.031,29.733-34.271,43.376c-4.836,6.37-9.139,11.406-12.907,15.107
	c-2.069,1.996-2.826,4.9-2.284,8.707c-2.43,0.888-4.688,1.16-6.771,0.799c-1.434-0.232-3.185-0.967-5.253-2.2
	c-1.401-0.769-2.552-1.251-3.452-1.451c-1.434-0.3-2.702-0.116-3.802,0.551c-4.002,2.436-7.304,6.203-9.906,11.308
	c-2.435,4.868-3.652,9.688-3.652,14.457c0,1.901,0.75,2.253,2.251,1.052c2.235-1.834,5.103-3.452,8.605-4.854
	c3.302-1.334,5.954-2.001,7.955-2.001c0.967,0,3.319,0.967,7.054,2.901c6.538,3.369,11.007,5.32,13.408,5.854
	c4.402,1.001,8.038-0.05,10.906-3.151c1.401-1.534,2.585-3.502,3.552-5.903c0.606-1.468,1.039-2.94,1.336-4.421
	c1.906-0.627,3.649-1.532,5.218-2.733c2.935-2.268,4.686-5.151,5.253-8.654c0.4-2.603,2.185-6.903,5.353-12.907
	c3.269-6.204,7.121-12.507,11.557-18.911c11.307-16.343,20.829-25.682,28.567-28.017c2.635-0.768,4.669-1.734,6.104-2.901
	c1.191-0.949,2.06-2.072,2.615-3.363c1.202,0.407,2.51,0.685,3.939,0.813c1.601,0.134,3.535,0.684,5.803,1.65
	c1.254,0.537,2.428,1.128,3.54,1.762c-1.8,1.081-4.056,2.896-6.739,5.401c-0.104-0.065-0.195-0.145-0.302-0.209
	c-3.102-1.868-6.654-2.285-10.656-1.251c-4.169,1.067-6.904,3.335-8.205,6.805c-3.469,9.339-12.041,24.23-25.715,44.677
	c-14.108,21.146-24.081,33.536-29.918,37.172c-3.001,1.867-4.919,4.235-5.753,7.104c-0.247,0.864-0.436,2.844-0.568,5.907
	c-1.641,0.027-3.187-0.222-4.635-0.755c-0.767-0.3-2.084-1.017-3.952-2.151c-2.535-1.5-5.17-2.218-7.905-2.149
	c-4.436,0.133-8.822,3.335-13.158,9.604c-4.236,6.07-6.67,12.407-7.304,19.012c-0.067,0.768,0.1,1.2,0.5,1.301
	c0.434,0.101,1.101-0.217,2.001-0.95c4.169-3.269,8.738-5.003,13.708-5.203c3.869-0.167,7.138,0.518,9.806,2.051
	c3.936,2.201,7.988,3.604,12.157,4.203c4.469,0.667,8.038,0.233,10.707-1.301c2.603-1.472,4.388-3.447,5.393-5.901
	c9.224,0.939,14.705-0.573,16.42-4.555c6.037-14.108,12.59-27.983,19.662-41.625c10.727-20.694,20.231-35.762,28.521-45.243
	c1.814,1.637,4.323,2.83,7.55,3.568l10.456,1.201c9.105,0.565,18.027,2.468,26.766,5.703c7.735,2.887,14.881,6.7,21.459,11.411
	c0.942,3.653,3.225,8.352,6.857,14.104c2.814,4.411,6.236,9.149,10.262,14.216c-0.121,1.134-0.064,2.33,0.194,3.595
	c1.534,7.339,5.136,14.093,10.807,20.264c6.07,6.637,13.958,11.939,23.664,15.909c14.275,5.837,29.268,7.736,44.977,5.702
	c6.438-0.834,11.94-2.251,16.51-4.253c3.483-1.533,5.899-3.181,7.275-4.938c9.832,2.605,20.095,4.095,30.797,4.438
	c11.345,0.342,22.114-0.681,32.329-3.03c1.151,1.264,2.799,2.607,4.942,4.031c4.27,2.901,9.489,4.986,15.659,6.254
	c9.906,2.067,21.028,1.734,33.37-1.001c11.807-2.635,22.296-7.37,31.469-14.208c7.604-5.703,13.207-11.924,16.81-18.66
	c0.733-1.368,1.317-2.97,1.751-4.804c0.293-1.228,0.42-2.268,0.412-3.151c4.094-3.765,7.836-8.511,11.23-14.23
	c6.914-5.037,15.587-9.999,26.028-14.887c12.374-5.804,22.882-9.539,31.52-11.207l14.56,0.451c3.657,0.494,6.496,0.261,8.523-0.691
	c4.297,4.438,9.075,10.732,14.34,18.901l11.856,19.962c3.067,5.203,6.903,12.273,11.507,21.213
	c5.504,10.606,9.271,18.544,11.307,23.814c1.201,3.034,3.752,5.553,7.654,7.554c4.213,2.165,8.463,2.52,12.751,1.066
	c2.563,3.857,5.677,6.354,9.362,7.438c4.368,1.301,9.188,0.567,14.459-2.201l3.352-2.301c1.501-1.067,2.702-1.734,3.603-2.002
	c2.701-0.768,5.986-0.685,9.855,0.251c3.836,0.9,7.237,2.418,10.206,4.553c1.201,0.867,1.918,1.102,2.151,0.7v-1.853
	c-0.101-4.735-1.385-9.339-3.854-13.808c-2.101-3.77-4.803-7.121-8.104-10.057c-3.402-3.034-6.82-4.869-10.257-5.503
	c-3.002-0.533-5.869-0.133-8.604,1.201l-5.453,2.551c-1.713,0.69-3.109,1.016-4.195,0.979c-0.221-1.325-0.712-2.588-1.508-3.78
	l-4.703-5.403c-3.302-3.437-7.471-8.789-12.507-16.061c-3.303-4.67-8.188-11.989-14.659-21.963
	c-8.338-12.842-14.273-22.78-17.811-29.817c-2.77-5.503-4.569-10.307-5.403-14.408l-1.301-5.453
	c-0.087-0.295-0.208-0.569-0.331-0.843c4.667,3.991,12.011,12.103,22.044,24.355c12.875,15.743,21.229,27.583,25.065,35.521
	c1.533,3.201,4.103,5.586,7.703,7.153c0.512,0.229,1.026,0.415,1.544,0.583c-0.246,1.289-0.245,2.579,0.008,3.869
	c0.232,1.302,0.7,2.485,1.4,3.553c2.568,4.27,7.104,6.486,13.607,6.653c3.269,0.134,6.354-0.717,9.256-2.552
	c1.668-1.033,3.836-2.701,6.504-5.003c2.436-1.834,4.72-2.868,6.854-3.102c3.436-0.367,7.938,0.666,13.509,3.102
	C706.142,616.053,706.809,615.586,706.509,613.918z M130.046,459.032c0.001-0.592,0.009-1.185,0.024-1.776
	c0.027,0.492,0.055,0.985,0.098,1.471c0.001,0.014,0,0.024,0.001,0.036C130.122,458.829,130.08,458.915,130.046,459.032z
	 M236.43,494.547c-2.037,1.256-3.593,4.422-4.673,9.481c-4.694-9.705-7.68-19.104-8.935-28.192c-0.054-0.365-0.14-0.672-0.243-0.943
	c8.653,7.441,15.026,13.57,19.117,18.384C239.592,493.281,237.833,493.7,236.43,494.547z M588.689,536.372
	c-2.976-0.431-5.729-0.324-8.271,0.303c-0.895-2.081-1.79-3.7-2.686-4.854c-0.742-0.948-1.554-1.717-2.425-2.325
	c2.003-1.022,3.681-1.971,5.032-2.842c0.762,2.455,2.636,4.86,5.646,7.218c0.775,0.604,2.181,1.532,4.194,2.776
	C589.704,536.543,589.214,536.447,588.689,536.372z"/>
</svg>
